0
SECTION
2
HEADER
9
$ACADVER
1
AC1009
0
ENDSEC
0
SECTION
2
ENTITIES
0
POLYLINE
8
0
62
0
70
1
10
0
20
0
30
0
0
VERTEX
8
0
10
0
20
0
30
0
0
VERTEX
8
0
10
0
20
116.187
30
0
0
VERTEX
8
0
10
179.2
20
116.187
30
0
0
VERTEX
8
0
10
179.2
20
0
30
0
0
SEQEND
8
0
0
TEXT
8
0
62
0
10
0
20
-12
30
0
40
8
1
0
50
0
0
LINE
8
0
62
0
10
12.2194704168803
20
0
30
0
11
12.2194704168803
21
3.2
31
0
0
LINE
8
0
62
0
10
12.2194704168803
20
116.187
30
0
11
12.2194704168803
21
112.987
31
0
0
LINE
8
0
62
0
10
24.4389408337607
20
0
30
0
11
24.4389408337607
21
3.2
31
0
0
LINE
8
0
62
0
10
24.4389408337607
20
116.187
30
0
11
24.4389408337607
21
112.987
31
0
0
LINE
8
0
62
0
10
36.658411250641
20
0
30
0
11
36.658411250641
21
3.2
31
0
0
LINE
8
0
62
0
10
36.658411250641
20
116.187
30
0
11
36.658411250641
21
112.987
31
0
0
LINE
8
0
62
0
10
48.8778816675213
20
0
30
0
11
48.8778816675213
21
3.2
31
0
0
LINE
8
0
62
0
10
48.8778816675213
20
116.187
30
0
11
48.8778816675213
21
112.987
31
0
0
LINE
8
0
62
0
10
61.0973520844016
20
0
30
0
11
61.0973520844016
21
6.4
31
0
0
LINE
8
0
62
0
10
61.0973520844016
20
116.187
30
0
11
61.0973520844016
21
109.787
31
0
0
TEXT
8
0
62
0
10
61.0973520844016
20
-12
30
0
40
8
1
5
50
0
0
LINE
8
0
62
0
10
73.3168225012819
20
0
30
0
11
73.3168225012819
21
3.2
31
0
0
LINE
8
0
62
0
10
73.3168225012819
20
116.187
30
0
11
73.3168225012819
21
112.987
31
0
0
LINE
8
0
62
0
10
85.5362929181623
20
0
30
0
11
85.5362929181623
21
3.2
31
0
0
LINE
8
0
62
0
10
85.5362929181623
20
116.187
30
0
11
85.5362929181623
21
112.987
31
0
0
LINE
8
0
62
0
10
97.7557633350426
20
0
30
0
11
97.7557633350426
21
3.2
31
0
0
LINE
8
0
62
0
10
97.7557633350426
20
116.187
30
0
11
97.7557633350426
21
112.987
31
0
0
LINE
8
0
62
0
10
109.975233751923
20
0
30
0
11
109.975233751923
21
3.2
31
0
0
LINE
8
0
62
0
10
109.975233751923
20
116.187
30
0
11
109.975233751923
21
112.987
31
0
0
LINE
8
0
62
0
10
122.194704168803
20
0
30
0
11
122.194704168803
21
6.4
31
0
0
LINE
8
0
62
0
10
122.194704168803
20
116.187
30
0
11
122.194704168803
21
109.787
31
0
0
TEXT
8
0
62
0
10
122.194704168803
20
-12
30
0
40
8
1
10
50
0
0
LINE
8
0
62
0
10
134.414174585684
20
0
30
0
11
134.414174585684
21
3.2
31
0
0
LINE
8
0
62
0
10
134.414174585684
20
116.187
30
0
11
134.414174585684
21
112.987
31
0
0
LINE
8
0
62
0
10
146.633645002564
20
0
30
0
11
146.633645002564
21
3.2
31
0
0
LINE
8
0
62
0
10
146.633645002564
20
116.187
30
0
11
146.633645002564
21
112.987
31
0
0
LINE
8
0
62
0
10
158.853115419444
20
0
30
0
11
158.853115419444
21
3.2
31
0
0
LINE
8
0
62
0
10
158.853115419444
20
116.187
30
0
11
158.853115419444
21
112.987
31
0
0
LINE
8
0
62
0
10
171.072585836325
20
0
30
0
11
171.072585836325
21
3.2
31
0
0
LINE
8
0
62
0
10
171.072585836325
20
116.187
30
0
11
171.072585836325
21
112.987
31
0
0
TEXT
8
0
62
0
10
-4
20
-4
30
0
40
8
1
0
50
0
0
LINE
8
0
62
0
10
0
20
5.16386666666667
30
0
11
3.2
21
5.16386666666667
31
0
0
LINE
8
0
62
0
10
179.2
20
5.16386666666667
30
0
11
176
21
5.16386666666667
31
0
0
LINE
8
0
62
0
10
0
20
10.3277333333333
30
0
11
3.2
21
10.3277333333333
31
0
0
LINE
8
0
62
0
10
179.2
20
10.3277333333333
30
0
11
176
21
10.3277333333333
31
0
0
LINE
8
0
62
0
10
0
20
15.4916
30
0
11
3.2
21
15.4916
31
0
0
LINE
8
0
62
0
10
179.2
20
15.4916
30
0
11
176
21
15.4916
31
0
0
LINE
8
0
62
0
10
0
20
20.6554666666667
30
0
11
3.2
21
20.6554666666667
31
0
0
LINE
8
0
62
0
10
179.2
20
20.6554666666667
30
0
11
176
21
20.6554666666667
31
0
0
LINE
8
0
62
0
10
0
20
25.8193333333333
30
0
11
6.4
21
25.8193333333333
31
0
0
LINE
8
0
62
0
10
179.2
20
25.8193333333333
30
0
11
172.8
21
25.8193333333333
31
0
0
TEXT
8
0
62
0
10
-4
20
21.8193333333333
30
0
40
8
1
20
50
0
0
LINE
8
0
62
0
10
0
20
30.9832
30
0
11
3.2
21
30.9832
31
0
0
LINE
8
0
62
0
10
179.2
20
30.9832
30
0
11
176
21
30.9832
31
0
0
LINE
8
0
62
0
10
0
20
36.1470666666667
30
0
11
3.2
21
36.1470666666667
31
0
0
LINE
8
0
62
0
10
179.2
20
36.1470666666667
30
0
11
176
21
36.1470666666667
31
0
0
LINE
8
0
62
0
10
0
20
41.3109333333333
30
0
11
3.2
21
41.3109333333333
31
0
0
LINE
8
0
62
0
10
179.2
20
41.3109333333333
30
0
11
176
21
41.3109333333333
31
0
0
LINE
8
0
62
0
10
0
20
46.4748
30
0
11
3.2
21
46.4748
31
0
0
LINE
8
0
62
0
10
179.2
20
46.4748
30
0
11
176
21
46.4748
31
0
0
LINE
8
0
62
0
10
0
20
51.6386666666667
30
0
11
6.4
21
51.6386666666667
31
0
0
LINE
8
0
62
0
10
179.2
20
51.6386666666667
30
0
11
172.8
21
51.6386666666667
31
0
0
TEXT
8
0
62
0
10
-4
20
47.6386666666667
30
0
40
8
1
40
50
0
0
LINE
8
0
62
0
10
0
20
56.8025333333333
30
0
11
3.2
21
56.8025333333333
31
0
0
LINE
8
0
62
0
10
179.2
20
56.8025333333333
30
0
11
176
21
56.8025333333333
31
0
0
LINE
8
0
62
0
10
0
20
61.9664
30
0
11
3.2
21
61.9664
31
0
0
LINE
8
0
62
0
10
179.2
20
61.9664
30
0
11
176
21
61.9664
31
0
0
LINE
8
0
62
0
10
0
20
67.1302666666667
30
0
11
3.2
21
67.1302666666667
31
0
0
LINE
8
0
62
0
10
179.2
20
67.1302666666667
30
0
11
176
21
67.1302666666667
31
0
0
LINE
8
0
62
0
10
0
20
72.2941333333333
30
0
11
3.2
21
72.2941333333333
31
0
0
LINE
8
0
62
0
10
179.2
20
72.2941333333333
30
0
11
176
21
72.2941333333333
31
0
0
LINE
8
0
62
0
10
0
20
77.458
30
0
11
6.4
21
77.458
31
0
0
LINE
8
0
62
0
10
179.2
20
77.458
30
0
11
172.8
21
77.458
31
0
0
TEXT
8
0
62
0
10
-4
20
73.458
30
0
40
8
1
60
50
0
0
LINE
8
0
62
0
10
0
20
82.6218666666666
30
0
11
3.2
21
82.6218666666666
31
0
0
LINE
8
0
62
0
10
179.2
20
82.6218666666666
30
0
11
176
21
82.6218666666666
31
0
0
LINE
8
0
62
0
10
0
20
87.7857333333333
30
0
11
3.2
21
87.7857333333333
31
0
0
LINE
8
0
62
0
10
179.2
20
87.7857333333333
30
0
11
176
21
87.7857333333333
31
0
0
LINE
8
0
62
0
10
0
20
92.9496
30
0
11
3.2
21
92.9496
31
0
0
LINE
8
0
62
0
10
179.2
20
92.9496
30
0
11
176
21
92.9496
31
0
0
LINE
8
0
62
0
10
0
20
98.1134666666666
30
0
11
3.2
21
98.1134666666666
31
0
0
LINE
8
0
62
0
10
179.2
20
98.1134666666666
30
0
11
176
21
98.1134666666666
31
0
0
LINE
8
0
62
0
10
0
20
103.277333333333
30
0
11
6.4
21
103.277333333333
31
0
0
LINE
8
0
62
0
10
179.2
20
103.277333333333
30
0
11
172.8
21
103.277333333333
31
0
0
TEXT
8
0
62
0
10
-4
20
99.2773333333333
30
0
40
8
1
80
50
0
0
LINE
8
0
62
0
10
0
20
108.4412
30
0
11
3.2
21
108.4412
31
0
0
LINE
8
0
62
0
10
179.2
20
108.4412
30
0
11
176
21
108.4412
31
0
0
LINE
8
0
62
0
10
0
20
113.605066666667
30
0
11
3.2
21
113.605066666667
31
0
0
LINE
8
0
62
0
10
179.2
20
113.605066666667
30
0
11
176
21
113.605066666667
31
0
0
TEXT
8
0
62
0
10
89.6
20
-32
30
0
40
10
1
R (kpc)
50
0
0
TEXT
8
0
62
0
10
-24
20
58.0935
30
0
40
10
1
V (km/s)
50
90
0
TEXT
8
0
62
0
10
72.6
20
131.187
30
0
40
11
1
V vs. R
50
0
0
POLYLINE
8
0
62
5
70
0
10
0
20
0
30
0
0
VERTEX
8
0
10
6.10973520844016
20
42.0350203504096
30
0
0
VERTEX
8
0
10
6.72070872928418
20
43.7668520458862
30
0
0
VERTEX
8
0
10
7.3316822501282
20
45.7398695646007
30
0
0
VERTEX
8
0
10
7.94265577097221
20
47.7249043316258
30
0
0
VERTEX
8
0
10
8.55362929181623
20
49.6440580911796
30
0
0
VERTEX
8
0
10
9.16460281266025
20
51.5427833242637
30
0
0
VERTEX
8
0
10
9.77557633350426
20
53.4323837274895
30
0
0
VERTEX
8
0
10
10.3865498543483
20
55.2766411065892
30
0
0
VERTEX
8
0
10
10.9975233751923
20
57.1295825954667
30
0
0
VERTEX
8
0
10
11.6084968960363
20
57.5812285429356
30
0
0
VERTEX
8
0
10
12.2194704168803
20
58.4799475803139
30
0
0
VERTEX
8
0
10
12.8304439377243
20
59.3378234343372
30
0
0
VERTEX
8
0
10
13.4414174585684
20
60.158184710604
30
0
0
VERTEX
8
0
10
14.0523909794124
20
60.9785459868708
30
0
0
VERTEX
8
0
10
14.6633645002564
20
61.7989072631376
30
0
0
VERTEX
8
0
10
15.2743380211004
20
62.2941585423803
30
0
0
VERTEX
8
0
10
15.8853115419444
20
62.8392333571951
30
0
0
VERTEX
8
0
10
16.4962850627884
20
63.3843081720099
30
0
0
VERTEX
8
0
10
17.1072585836325
20
63.9293829868248
30
0
0
VERTEX
8
0
10
17.7182321044765
20
64.1524383626388
30
0
0
VERTEX
8
0
10
18.3292056253205
20
64.4401611387874
30
0
0
VERTEX
8
0
10
18.9401791461645
20
64.7278839149359
30
0
0
VERTEX
8
0
10
19.5511526670085
20
65.0156066910845
30
0
0
VERTEX
8
0
10
20.1621261878526
20
65.1298970430705
30
0
0
VERTEX
8
0
10
20.7730997086966
20
65.2308524031226
30
0
0
VERTEX
8
0
10
21.3840732295406
20
65.3318077631748
30
0
0
VERTEX
8
0
10
21.9950467503846
20
65.4327631232269
30
0
0
VERTEX
8
0
10
22.6060202712286
20
65.428198340083
30
0
0
VERTEX
8
0
10
23.2169937920726
20
65.3550057040452
30
0
0
VERTEX
8
0
10
23.8279673129166
20
65.2818130680074
30
0
0
VERTEX
8
0
10
24.4389408337607
20
65.2086204319696
30
0
0
VERTEX
8
0
10
25.0499143546047
20
65.1354277959318
30
0
0
VERTEX
8
0
10
25.6608878754487
20
65.0136537978598
30
0
0
VERTEX
8
0
10
26.2718613962927
20
64.9026029018024
30
0
0
VERTEX
8
0
10
26.8828349171367
20
64.7915520057451
30
0
0
VERTEX
8
0
10
27.4938084379807
20
64.6805011096877
30
0
0
VERTEX
8
0
10
28.1047819588248
20
64.5597527996345
30
0
0
VERTEX
8
0
10
28.7157554796688
20
64.4386063675719
30
0
0
VERTEX
8
0
10
29.3267290005128
20
64.3174599355094
30
0
0
VERTEX
8
0
10
29.9377025213568
20
64.1963135034468
30
0
0
VERTEX
8
0
10
30.5486760422008
20
63.9962795444638
30
0
0
VERTEX
8
0
10
31.1596495630448
20
63.7514627963373
30
0
0
VERTEX
8
0
10
31.7706230838888
20
63.5066460482109
30
0
0
VERTEX
8
0
10
32.3815966047328
20
63.2618293000845
30
0
0
VERTEX
8
0
10
32.9925701255769
20
63.0170125519581
30
0
0
VERTEX
8
0
10
33.6035436464209
20
62.6626546283413
30
0
0
VERTEX
8
0
10
34.2145171672649
20
62.3345497081718
30
0
0
VERTEX
8
0
10
34.8254906881089
20
62.0064447880024
30
0
0
VERTEX
8
0
10
35.4364642089529
20
61.678339867833
30
0
0
VERTEX
8
0
10
36.0474377297969
20
61.3527399732539
30
0
0
VERTEX
8
0
10
36.6584112506409
20
61.0271589370857
30
0
0
VERTEX
8
0
10
37.269384771485
20
60.7015779009176
30
0
0
VERTEX
8
0
10
37.880358292329
20
60.3759968647495
30
0
0
VERTEX
8
0
10
38.491331813173
20
60.0537970718221
30
0
0
VERTEX
8
0
10
39.102305334017
20
59.7332638036565
30
0
0
VERTEX
8
0
10
39.713278854861
20
59.412730535491
30
0
0
VERTEX
8
0
10
40.324252375705
20
59.0921972673255
30
0
0
VERTEX
8
0
10
40.935225896549
20
58.77166399916
30
0
0
VERTEX
8
0
10
41.5461994173931
20
58.508932459073
30
0
0
VERTEX
8
0
10
42.1571729382371
20
58.2313052189296
30
0
0
VERTEX
8
0
10
42.7681464590811
20
57.9536779787863
30
0
0
VERTEX
8
0
10
43.3791199799251
20
57.6760507386429
30
0
0
VERTEX
8
0
10
43.9900935007691
20
57.4216947776348
30
0
0
VERTEX
8
0
10
44.6010670216131
20
57.1667824935032
30
0
0
VERTEX
8
0
10
45.2120405424571
20
56.9118702093716
30
0
0
VERTEX
8
0
10
45.8230140633012
20
56.6569579252399
30
0
0
VERTEX
8
0
10
46.4339875841452
20
56.4055882285317
30
0
0
VERTEX
8
0
10
47.0449611049892
20
56.1557237124027
30
0
0
VERTEX
8
0
10
47.6559346258332
20
55.9058591962737
30
0
0
VERTEX
8
0
10
48.2669081466772
20
55.6559946801446
30
0
0
VERTEX
8
0
10
48.8778816675212
20
55.4061301640156
30
0
0
VERTEX
8
0
10
49.4888551883653
20
55.1562656478866
30
0
0
VERTEX
8
0
10
50.0998287092093
20
54.9064011317575
30
0
0
VERTEX
8
0
10
50.7108022300533
20
54.6565366156285
30
0
0
VERTEX
8
0
10
51.3217757508973
20
54.4066720994995
30
0
0
VERTEX
8
0
10
51.9327492717413
20
54.1941367601934
30
0
0
VERTEX
8
0
10
52.5437227925853
20
53.9796066200826
30
0
0
VERTEX
8
0
10
53.1546963134293
20
53.7650764799718
30
0
0
VERTEX
8
0
10
53.7656698342733
20
53.550546339861
30
0
0
VERTEX
8
0
10
54.3766433551174
20
53.3415720971595
30
0
0
VERTEX
8
0
10
54.9876168759614
20
53.1346136090526
30
0
0
VERTEX
8
0
10
55.5985903968054
20
52.9276551209457
30
0
0
VERTEX
8
0
10
56.2095639176494
20
52.7206966328389
30
0
0
VERTEX
8
0
10
56.8205374384934
20
52.513738144732
30
0
0
VERTEX
8
0
10
57.4315109593374
20
52.3032182107907
30
0
0
VERTEX
8
0
10
58.0424844801815
20
52.0937358386825
30
0
0
VERTEX
8
0
10
58.6534580010255
20
51.8842534665743
30
0
0
VERTEX
8
0
10
59.2644315218695
20
51.6747710944662
30
0
0
VERTEX
8
0
10
59.8754050427135
20
51.465288722358
30
0
0
VERTEX
8
0
10
60.4863785635575
20
51.2558063502498
30
0
0
VERTEX
8
0
10
61.0973520844015
20
51.0463239781416
30
0
0
VERTEX
8
0
10
61.7083256052455
20
50.8368416060335
30
0
0
VERTEX
8
0
10
62.3192991260895
20
50.6022349412974
30
0
0
VERTEX
8
0
10
62.9302726469336
20
50.3599420771723
30
0
0
VERTEX
8
0
10
63.5412461677776
20
50.1176492130472
30
0
0
VERTEX
8
0
10
64.1522196886216
20
49.875356348922
30
0
0
VERTEX
8
0
10
64.7631932094656
20
49.6330634847969
30
0
0
VERTEX
8
0
10
65.3741667303096
20
49.3725600310429
30
0
0
VERTEX
8
0
10
65.9851402511536
20
49.1176477469113
30
0
0
VERTEX
8
0
10
66.5961137719977
20
48.8627354627796
30
0
0
VERTEX
8
0
10
67.2070872928417
20
48.607823178648
30
0
0
VERTEX
8
0
10
67.8180608136857
20
48.3189783270468
30
0
0
VERTEX
8
0
10
68.4290343345297
20
48.0337794348995
30
0
0
VERTEX
8
0
10
69.0400078553737
20
47.7485805427522
30
0
0
VERTEX
8
0
10
69.6509813762177
20
47.4633816506049
30
0
0
VERTEX
8
0
10
70.2619548970617
20
47.1801960684435
30
0
0
VERTEX
8
0
10
70.8729284179057
20
46.8975210602975
30
0
0
VERTEX
8
0
10
71.4839019387498
20
46.6148460521515
30
0
0
VERTEX
8
0
10
72.0948754595938
20
46.3321710440056
30
0
0
VERTEX
8
0
10
72.7058489804378
20
46.0494960358596
30
0
0
VERTEX
8
0
10
73.3168225012818
20
45.8263856679879
30
0
0
VERTEX
8
0
10
73.9277960221258
20
45.5840928038628
30
0
0
VERTEX
8
0
10
74.5387695429698
20
45.3417999397376
30
0
0
VERTEX
8
0
10
75.1497430638138
20
45.0995070756125
30
0
0
VERTEX
8
0
10
75.7607165846579
20
44.8804812998647
30
0
0
VERTEX
8
0
10
76.3716901055019
20
44.65837950775
30
0
0
VERTEX
8
0
10
76.9826636263459
20
44.4362777156353
30
0
0
VERTEX
8
0
10
77.5936371471899
20
44.2141759235206
30
0
0
VERTEX
8
0
10
78.2046106680339
20
44.0004500597147
30
0
0
VERTEX
8
0
10
78.8155841888779
20
43.7884438036052
30
0
0
VERTEX
8
0
10
79.4265577097219
20
43.5764375474957
30
0
0
VERTEX
8
0
10
80.037531230566
20
43.3644312913862
30
0
0
VERTEX
8
0
10
80.64850475141
20
43.1575433477056
30
0
0
VERTEX
8
0
10
81.259478272254
20
42.9556326276013
30
0
0
VERTEX
8
0
10
81.870451793098
20
42.753721907497
30
0
0
VERTEX
8
0
10
82.481425313942
20
42.5518111873928
30
0
0
VERTEX
8
0
10
83.092398834786
20
42.3499004672885
30
0
0
VERTEX
8
0
10
83.70337235563
20
42.1778803285695
30
0
0
VERTEX
8
0
10
84.3143458764741
20
42.0012084484783
30
0
0
VERTEX
8
0
10
84.9253193973181
20
41.8245365683871
30
0
0
VERTEX
8
0
10
85.5362929181621
20
41.6478646882958
30
0
0
VERTEX
8
0
10
86.1472664390061
20
41.4733674623731
30
0
0
VERTEX
8
0
10
86.7582399598501
20
41.2992194662832
30
0
0
VERTEX
8
0
10
87.3692134806941
20
41.1250714701933
30
0
0
VERTEX
8
0
10
87.9801870015381
20
40.9509234741033
30
0
0
VERTEX
8
0
10
88.5911605223822
20
40.7822164788077
30
0
0
VERTEX
8
0
10
89.2021340432262
20
40.618164018723
30
0
0
VERTEX
8
0
10
89.8131075640702
20
40.4541115586383
30
0
0
VERTEX
8
0
10
90.4240810849142
20
40.2900590985535
30
0
0
VERTEX
8
0
10
91.0350546057582
20
40.1260066384688
30
0
0
VERTEX
8
0
10
91.6460281266022
20
39.9711633690738
30
0
0
VERTEX
8
0
10
92.2570016474462
20
39.814682560993
30
0
0
VERTEX
8
0
10
92.8679751682902
20
39.6582017529122
30
0
0
VERTEX
8
0
10
93.4789486891343
20
39.5017209448314
30
0
0
VERTEX
8
0
10
94.0899222099783
20
39.3542614417902
30
0
0
VERTEX
8
0
10
94.7008957308223
20
39.2078761697146
30
0
0
VERTEX
8
0
10
95.3118692516663
20
39.061490897639
30
0
0
VERTEX
8
0
10
95.9228427725103
20
38.9151056255634
30
0
0
VERTEX
8
0
10
96.5338162933543
20
38.7687203534878
30
0
0
VERTEX
8
0
10
97.1447898141983
20
38.6223350814122
30
0
0
VERTEX
8
0
10
97.7557633350424
20
38.4759498093367
30
0
0
VERTEX
8
0
10
98.3667368558864
20
38.3295645372611
30
0
0
VERTEX
8
0
10
98.9777103767304
20
38.1831792651855
30
0
0
VERTEX
8
0
10
99.5886838975744
20
38.0588468093587
30
0
0
VERTEX
8
0
10
100.199657418418
20
37.9301287252922
30
0
0
VERTEX
8
0
10
100.810630939262
20
37.8014106412258
30
0
0
VERTEX
8
0
10
101.421604460107
20
37.6726925571593
30
0
0
VERTEX
8
0
10
102.032577980951
20
37.5439744730928
30
0
0
VERTEX
8
0
10
102.643551501795
20
37.4152563890263
30
0
0
VERTEX
8
0
10
103.254525022639
20
37.2865383049599
30
0
0
VERTEX
8
0
10
103.865498543483
20
37.1578202208934
30
0
0
VERTEX
8
0
10
104.476472064327
20
37.0351885143521
30
0
0
VERTEX
8
0
10
105.087445585171
20
36.9165659662909
30
0
0
VERTEX
8
0
10
105.698419106015
20
36.7979434182296
30
0
0
VERTEX
8
0
10
106.309392626859
20
36.6793208701684
30
0
0
VERTEX
8
0
10
106.920366147703
20
36.5606983221071
30
0
0
VERTEX
8
0
10
107.531339668547
20
36.4420757740458
30
0
0
VERTEX
8
0
10
108.142313189391
20
36.3234532259846
30
0
0
VERTEX
8
0
10
108.753286710235
20
36.2048306779233
30
0
0
VERTEX
8
0
10
109.364260231079
20
36.0862081298621
30
0
0
VERTEX
8
0
10
109.975233751923
20
35.9748355931287
30
0
0
VERTEX
8
0
10
110.586207272767
20
35.8637846970714
30
0
0
VERTEX
8
0
10
111.197180793611
20
35.752733801014
30
0
0
VERTEX
8
0
10
111.808154314455
20
35.6416829049567
30
0
0
VERTEX
8
0
10
112.419127835299
20
35.5482569400987
30
0
0
VERTEX
8
0
10
113.030101356143
20
35.4649687680557
30
0
0
VERTEX
8
0
10
113.641074876987
20
35.3816805960127
30
0
0
VERTEX
8
0
10
114.252048397831
20
35.2983924239697
30
0
0
VERTEX
8
0
10
114.863021918675
20
35.2151042519267
30
0
0
VERTEX
8
0
10
115.473995439519
20
35.0838633422391
30
0
0
VERTEX
8
0
10
116.084968960363
20
34.9640303600139
30
0
0
VERTEX
8
0
10
116.695942481207
20
34.8441973777888
30
0
0
VERTEX
8
0
10
117.306916002051
20
34.7243643955636
30
0
0
VERTEX
8
0
10
117.917889522895
20
34.5502152086
30
0
0
VERTEX
8
0
10
118.528863043739
20
34.3778086924709
30
0
0
VERTEX
8
0
10
119.139836564583
20
34.2054021763419
30
0
0
VERTEX
8
0
10
119.750810085427
20
34.0329956602129
30
0
0
VERTEX
8
0
10
120.361783606271
20
33.9834385372715
30
0
0
VERTEX
8
0
10
120.972757127115
20
33.9952678718515
30
0
0
VERTEX
8
0
10
121.583730647959
20
34.0070972064315
30
0
0
VERTEX
8
0
10
122.194704168803
20
34.0189265410115
30
0
0
VERTEX
8
0
10
122.805677689647
20
34.0307558755916
30
0
0
VERTEX
8
0
10
123.416651210491
20
33.9833285192454
30
0
0
VERTEX
8
0
10
124.027624731335
20
33.9033598033345
30
0
0
VERTEX
8
0
10
124.638598252179
20
33.8233910874237
30
0
0
VERTEX
8
0
10
125.249571773023
20
33.7434223715128
30
0
0
VERTEX
8
0
10
125.860545293868
20
33.5929167424993
30
0
0
VERTEX
8
0
10
126.471518814712
20
33.4007132685539
30
0
0
VERTEX
8
0
10
127.082492335556
20
33.2085097946084
30
0
0
VERTEX
8
0
10
127.6934658564
20
33.016306320663
30
0
0
VERTEX
8
0
10
128.304439377244
20
32.8241028467176
30
0
0
VERTEX
8
0
10
128.915412898088
20
32.7121366729963
30
0
0
VERTEX
8
0
10
129.526386418932
20
32.6742784129768
30
0
0
VERTEX
8
0
10
130.137359939776
20
32.6364201529573
30
0
0
VERTEX
8
0
10
130.74833346062
20
32.5985618929377
30
0
0
VERTEX
8
0
10
131.359306981464
20
32.5607036329181
30
0
0
VERTEX
8
0
10
131.970280502308
20
32.4956515442818
30
0
0
VERTEX
8
0
10
132.581254023152
20
32.4350783282505
30
0
0
VERTEX
8
0
10
133.192227543996
20
32.3745051122192
30
0
0
VERTEX
8
0
10
133.80320106484
20
32.313931896188
30
0
0
VERTEX
8
0
10
134.414174585684
20
32.2290802221837
30
0
0
VERTEX
8
0
10
135.025148106528
20
32.1407442821381
30
0
0
VERTEX
8
0
10
135.636121627372
20
32.0524083420925
30
0
0
VERTEX
8
0
10
136.247095148216
20
31.9640724020468
30
0
0
VERTEX
8
0
10
136.85806866906
20
31.8854855620124
30
0
0
VERTEX
8
0
10
137.469042189904
20
31.8148168099759
30
0
0
VERTEX
8
0
10
138.080015710748
20
31.7441480579394
30
0
0
VERTEX
8
0
10
138.690989231592
20
31.6734793059029
30
0
0
VERTEX
8
0
10
139.301962752436
20
31.6028105538664
30
0
0
VERTEX
8
0
10
139.91293627328
20
31.5352440104342
30
0
0
VERTEX
8
0
10
140.523909794124
20
31.467099142399
30
0
0
VERTEX
8
0
10
141.134883314968
20
31.3989542743638
30
0
0
VERTEX
8
0
10
141.745856835812
20
31.3308094063286
30
0
0
VERTEX
8
0
10
142.356830356656
20
31.2580889290247
30
0
0
VERTEX
8
0
10
142.9678038775
20
31.1848962929869
30
0
0
VERTEX
8
0
10
143.578777398344
20
31.1117036569491
30
0
0
VERTEX
8
0
10
144.189750919188
20
31.0385110209113
30
0
0
VERTEX
8
0
10
144.800724440032
20
30.9653183848735
30
0
0
VERTEX
8
0
10
145.411697960876
20
30.8921257488357
30
0
0
VERTEX
8
0
10
146.02267148172
20
30.8189331127979
30
0
0
VERTEX
8
0
10
146.633645002564
20
30.7457404767601
30
0
0
VERTEX
8
0
10
147.244618523408
20
30.6725478407223
30
0
0
VERTEX
8
0
10
147.855592044252
20
30.6089038467717
30
0
0
VERTEX
8
0
10
148.466565565096
20
30.5432828627378
30
0
0
VERTEX
8
0
10
149.07753908594
20
30.4776618787039
30
0
0
VERTEX
8
0
10
149.688512606784
20
30.41204089467
30
0
0
VERTEX
8
0
10
150.299486127629
20
30.3511568640876
30
0
0
VERTEX
8
0
10
150.910459648473
20
30.2905836480563
30
0
0
VERTEX
8
0
10
151.521433169317
20
30.230010432025
30
0
0
VERTEX
8
0
10
152.132406690161
20
30.1694372159937
30
0
0
VERTEX
8
0
10
152.743380211005
20
30.1046458024826
30
0
0
SEQEND
8
0
0
POLYLINE
8
0
62
6
70
0
10
0
20
0
30
0
0
VERTEX
8
0
10
6.10973520844016
20
2.91655243341558
30
0
0
VERTEX
8
0
10
6.72070872928418
20
3.89998082989963
30
0
0
VERTEX
8
0
10
7.3316822501282
20
4.88340922638367
30
0
0
VERTEX
8
0
10
7.94265577097221
20
5.91980812692038
30
0
0
VERTEX
8
0
10
8.55362929181623
20
6.97170689235248
30
0
0
VERTEX
8
0
10
9.16460281266025
20
8.02360565778458
30
0
0
VERTEX
8
0
10
9.77557633350426
20
8.88333923321858
30
0
0
VERTEX
8
0
10
10.3865498543483
20
9.7995091256917
30
0
0
VERTEX
8
0
10
10.9975233751923
20
10.7156790181648
30
0
0
VERTEX
8
0
10
11.6084968960363
20
11.1235811856871
30
0
0
VERTEX
8
0
10
12.2194704168803
20
11.6936424521148
30
0
0
VERTEX
8
0
10
12.8304439377243
20
12.2637037185425
30
0
0
VERTEX
8
0
10
13.4414174585684
20
12.7985888799122
30
0
0
VERTEX
8
0
10
14.0523909794124
20
13.3033656801728
30
0
0
VERTEX
8
0
10
14.6633645002564
20
13.8081424804335
30
0
0
VERTEX
8
0
10
15.2743380211004
20
14.3129192806942
30
0
0
VERTEX
8
0
10
15.8853115419444
20
14.8176960809549
30
0
0
VERTEX
8
0
10
16.4962850627884
20
15.1321712592116
30
0
0
VERTEX
8
0
10
17.1072585836325
20
15.4804672513915
30
0
0
VERTEX
8
0
10
17.7182321044765
20
15.8287632435714
30
0
0
VERTEX
8
0
10
18.3292056253205
20
16.1770592357512
30
0
0
VERTEX
8
0
10
18.9401791461645
20
16.5185902968408
30
0
0
VERTEX
8
0
10
19.5511526670085
20
16.8593146370168
30
0
0
VERTEX
8
0
10
20.1621261878526
20
17.2000389771928
30
0
0
VERTEX
8
0
10
20.7730997086966
20
17.5407633173687
30
0
0
VERTEX
8
0
10
21.3840732295406
20
17.9059773995664
30
0
0
VERTEX
8
0
10
21.9950467503846
20
18.2896077677645
30
0
0
VERTEX
8
0
10
22.6060202712286
20
18.6732381359627
30
0
0
VERTEX
8
0
10
23.2169937920726
20
19.0568685041608
30
0
0
VERTEX
8
0
10
23.8279673129166
20
19.4404988723589
30
0
0
VERTEX
8
0
10
24.4389408337607
20
19.7768784441856
30
0
0
VERTEX
8
0
10
25.0499143546047
20
20.1226505523641
30
0
0
VERTEX
8
0
10
25.6608878754487
20
20.4684226605427
30
0
0
VERTEX
8
0
10
26.2718613962927
20
20.8141947687212
30
0
0
VERTEX
8
0
10
26.8828349171367
20
20.9871288419125
30
0
0
VERTEX
8
0
10
27.4938084379807
20
21.1461335339946
30
0
0
VERTEX
8
0
10
28.1047819588248
20
21.3051382260767
30
0
0
VERTEX
8
0
10
28.7157554796688
20
21.4641429181588
30
0
0
VERTEX
8
0
10
29.3267290005128
20
21.6687849647851
30
0
0
VERTEX
8
0
10
29.9377025213568
20
21.9035061769063
30
0
0
VERTEX
8
0
10
30.5486760422008
20
22.1382273890275
30
0
0
VERTEX
8
0
10
31.1596495630448
20
22.3729486011487
30
0
0
VERTEX
8
0
10
31.7706230838888
20
22.6076698132699
30
0
0
VERTEX
8
0
10
32.3815966047328
20
23.1816171695846
30
0
0
VERTEX
8
0
10
32.9925701255769
20
23.6813462018426
30
0
0
VERTEX
8
0
10
33.6035436464209
20
24.1810752341007
30
0
0
VERTEX
8
0
10
34.2145171672649
20
24.6808042663588
30
0
0
VERTEX
8
0
10
34.8254906881089
20
25.1829496198296
30
0
0
VERTEX
8
0
10
35.4364642089529
20
25.685202536089
30
0
0
VERTEX
8
0
10
36.0474377297969
20
26.1874554523484
30
0
0
VERTEX
8
0
10
36.6584112506409
20
26.6897083686077
30
0
0
VERTEX
8
0
10
37.269384771485
20
27.1230788434251
30
0
0
VERTEX
8
0
10
37.880358292329
20
27.5168047476285
30
0
0
VERTEX
8
0
10
38.491331813173
20
27.9105306518318
30
0
0
VERTEX
8
0
10
39.102305334017
20
28.3042565560351
30
0
0
VERTEX
8
0
10
39.713278854861
20
28.6979824602384
30
0
0
VERTEX
8
0
10
40.324252375705
20
28.9691866652978
30
0
0
VERTEX
8
0
10
40.935225896549
20
29.2695288614529
30
0
0
VERTEX
8
0
10
41.5461994173931
20
29.569871057608
30
0
0
VERTEX
8
0
10
42.1571729382371
20
29.8702132537631
30
0
0
VERTEX
8
0
10
42.7681464590811
20
29.9857779454088
30
0
0
VERTEX
8
0
10
43.3791199799251
20
30.0993527254675
30
0
0
VERTEX
8
0
10
43.9900935007691
20
30.2129275055261
30
0
0
VERTEX
8
0
10
44.6010670216131
20
30.3265022855848
30
0
0
VERTEX
8
0
10
45.2120405424571
20
30.4350292976408
30
0
0
VERTEX
8
0
10
45.8230140633012
20
30.5410324256956
30
0
0
VERTEX
8
0
10
46.4339875841452
20
30.6470355537503
30
0
0
VERTEX
8
0
10
47.0449611049892
20
30.753038681805
30
0
0
VERTEX
8
0
10
47.6559346258332
20
30.8590418098598
30
0
0
VERTEX
8
0
10
48.2669081466772
20
31.0294942558595
30
0
0
VERTEX
8
0
10
48.8778816675212
20
31.183451179939
30
0
0
VERTEX
8
0
10
49.4888551883653
20
31.3374081040185
30
0
0
VERTEX
8
0
10
50.0998287092093
20
31.491365028098
30
0
0
VERTEX
8
0
10
50.7108022300533
20
31.6865645985063
30
0
0
VERTEX
8
0
10
51.3217757508973
20
31.8809036666066
30
0
0
VERTEX
8
0
10
51.9327492717413
20
32.075242734707
30
0
0
VERTEX
8
0
10
52.5437227925853
20
32.2695818028074
30
0
0
VERTEX
8
0
10
53.1546963134293
20
32.5203452365259
30
0
0
VERTEX
8
0
10
53.7656698342733
20
32.7954485926679
30
0
0
VERTEX
8
0
10
54.3766433551174
20
33.07055194881
30
0
0
VERTEX
8
0
10
54.9876168759614
20
33.3456553049521
30
0
0
VERTEX
8
0
10
55.5985903968054
20
33.6207586610941
30
0
0
VERTEX
8
0
10
56.2095639176494
20
33.8750255684948
30
0
0
VERTEX
8
0
10
56.8205374384934
20
34.1349856206291
30
0
0
VERTEX
8
0
10
57.4315109593374
20
34.3949456727633
30
0
0
VERTEX
8
0
10
58.0424844801815
20
34.6549057248976
30
0
0
VERTEX
8
0
10
58.6534580010255
20
34.8696740397543
30
0
0
VERTEX
8
0
10
59.2644315218695
20
35.0867280638664
30
0
0
VERTEX
8
0
10
59.8754050427135
20
35.3037820879785
30
0
0
VERTEX
8
0
10
60.4863785635575
20
35.5208361120906
30
0
0
VERTEX
8
0
10
61.0973520844015
20
35.6604449284915
30
0
0
VERTEX
8
0
10
61.7083256052455
20
35.7714958245488
30
0
0
VERTEX
8
0
10
62.3192991260895
20
35.8825467206062
30
0
0
VERTEX
8
0
10
62.9302726469336
20
35.9935976166635
30
0
0
VERTEX
8
0
10
63.5412461677776
20
36.1046485127209
30
0
0
VERTEX
8
0
10
64.1522196886216
20
35.9953877687862
30
0
0
VERTEX
8
0
10
64.7631932094656
20
35.9499578567628
30
0
0
VERTEX
8
0
10
65.3741667303096
20
35.9045279447393
30
0
0
VERTEX
8
0
10
65.9851402511536
20
35.8590980327158
30
0
0
VERTEX
8
0
10
66.5961137719977
20
35.84927524521
30
0
0
VERTEX
8
0
10
67.2070872928417
20
35.8366558252035
30
0
0
VERTEX
8
0
10
67.8180608136857
20
35.824036405197
30
0
0
VERTEX
8
0
10
68.4290343345297
20
35.8114169851904
30
0
0
VERTEX
8
0
10
69.0400078553737
20
35.8084205932254
30
0
0
VERTEX
8
0
10
69.6509813762177
20
35.8084205932254
30
0
0
VERTEX
8
0
10
70.2619548970617
20
35.8084205932254
30
0
0
VERTEX
8
0
10
70.8729284179057
20
35.8084205932254
30
0
0
VERTEX
8
0
10
71.4839019387498
20
35.8084205932254
30
0
0
VERTEX
8
0
10
72.0948754595938
20
35.7030321096764
30
0
0
VERTEX
8
0
10
72.7058489804378
20
35.6298394736385
30
0
0
VERTEX
8
0
10
73.3168225012818
20
35.5566468376008
30
0
0
VERTEX
8
0
10
73.9277960221258
20
35.483454201563
30
0
0
VERTEX
8
0
10
74.5387695429698
20
35.3256711154358
30
0
0
VERTEX
8
0
10
75.1497430638138
20
35.1767619593589
30
0
0
VERTEX
8
0
10
75.7607165846579
20
35.027852803282
30
0
0
VERTEX
8
0
10
76.3716901055019
20
34.8789436472051
30
0
0
VERTEX
8
0
10
76.9826636263459
20
34.6879236594353
30
0
0
VERTEX
8
0
10
77.5936371471899
20
34.486012939331
30
0
0
VERTEX
8
0
10
78.2046106680339
20
34.2841022192267
30
0
0
VERTEX
8
0
10
78.8155841888779
20
34.0821914991225
30
0
0
VERTEX
8
0
10
79.4265577097219
20
33.8802807790182
30
0
0
VERTEX
8
0
10
80.037531230566
20
33.5780716001772
30
0
0
VERTEX
8
0
10
80.64850475141
20
33.3080160120378
30
0
0
VERTEX
8
0
10
81.259478272254
20
33.0379604238983
30
0
0
VERTEX
8
0
10
81.870451793098
20
32.7679048357589
30
0
0
VERTEX
8
0
10
82.481425313942
20
32.680571534563
30
0
0
VERTEX
8
0
10
83.092398834786
20
32.5695206385057
30
0
0
VERTEX
8
0
10
83.70337235563
20
32.4584697424483
30
0
0
VERTEX
8
0
10
84.3143458764741
20
32.347418846391
30
0
0
VERTEX
8
0
10
84.9253193973181
20
32.3698687369596
30
0
0
VERTEX
8
0
10
85.5362929181621
20
32.4203464169857
30
0
0
VERTEX
8
0
10
86.1472664390061
20
32.4708240970117
30
0
0
VERTEX
8
0
10
86.7582399598501
20
32.5213017770378
30
0
0
VERTEX
8
0
10
87.3692134806941
20
32.5819518236323
30
0
0
VERTEX
8
0
10
87.9801870015381
20
32.6526205756688
30
0
0
VERTEX
8
0
10
88.5911605223822
20
32.7232893277053
30
0
0
VERTEX
8
0
10
89.2021340432262
20
32.7939580797418
30
0
0
VERTEX
8
0
10
89.8131075640702
20
32.8646268317783
30
0
0
VERTEX
8
0
10
90.4240810849142
20
32.9710678940433
30
0
0
VERTEX
8
0
10
91.0350546057582
20
33.0720232540954
30
0
0
VERTEX
8
0
10
91.6460281266022
20
33.1729786141475
30
0
0
VERTEX
8
0
10
92.2570016474462
20
33.2739339741997
30
0
0
VERTEX
8
0
10
92.8679751682902
20
33.3120572996623
30
0
0
VERTEX
8
0
10
93.4789486891343
20
33.3398200236766
30
0
0
VERTEX
8
0
10
94.0899222099783
20
33.367582747691
30
0
0
VERTEX
8
0
10
94.7008957308223
20
33.3953454717053
30
0
0
VERTEX
8
0
10
95.3118692516663
20
33.3879505299968
30
0
0
VERTEX
8
0
10
95.9228427725103
20
33.3500922699772
30
0
0
VERTEX
8
0
10
96.5338162933543
20
33.3122340099577
30
0
0
VERTEX
8
0
10
97.1447898141983
20
33.2743757499381
30
0
0
VERTEX
8
0
10
97.7557633350424
20
33.2365174899186
30
0
0
VERTEX
8
0
10
98.3667368558864
20
33.223152813449
30
0
0
VERTEX
8
0
10
98.9777103767304
20
33.2054856254398
30
0
0
VERTEX
8
0
10
99.5886838975744
20
33.1878184374307
30
0
0
VERTEX
8
0
10
100.199657418418
20
33.1701512494216
30
0
0
VERTEX
8
0
10
100.810630939262
20
33.1682151192288
30
0
0
VERTEX
8
0
10
101.421604460107
20
33.1682151192288
30
0
0
VERTEX
8
0
10
102.032577980951
20
33.1682151192288
30
0
0
VERTEX
8
0
10
102.643551501795
20
33.1682151192288
30
0
0
VERTEX
8
0
10
103.254525022639
20
33.1682151192288
30
0
0
VERTEX
8
0
10
103.865498543483
20
33.1682151192288
30
0
0
VERTEX
8
0
10
104.476472064327
20
33.1682151192288
30
0
0
VERTEX
8
0
10
105.087445585171
20
33.1682151192288
30
0
0
VERTEX
8
0
10
105.698419106015
20
33.1682151192288
30
0
0
VERTEX
8
0
10
106.309392626859
20
33.1022253484916
30
0
0
VERTEX
8
0
10
106.920366147703
20
33.0492237844642
30
0
0
VERTEX
8
0
10
107.531339668547
20
32.9962222204368
30
0
0
VERTEX
8
0
10
108.142313189391
20
32.9432206564095
30
0
0
VERTEX
8
0
10
108.753286710235
20
33.0438648526806
30
0
0
VERTEX
8
0
10
109.364260231079
20
33.1574396327392
30
0
0
VERTEX
8
0
10
109.975233751923
20
33.2710144127979
30
0
0
VERTEX
8
0
10
110.586207272767
20
33.3845891928565
30
0
0
VERTEX
8
0
10
111.197180793611
20
33.5375165873891
30
0
0
VERTEX
8
0
10
111.808154314455
20
33.7167123514816
30
0
0
VERTEX
8
0
10
112.419127835299
20
33.8959081155742
30
0
0
VERTEX
8
0
10
113.030101356143
20
34.0751038796667
30
0
0
VERTEX
8
0
10
113.641074876987
20
34.2542996437593
30
0
0
VERTEX
8
0
10
114.252048397831
20
34.3142428491723
30
0
0
VERTEX
8
0
10
114.863021918675
20
34.4000549052166
30
0
0
VERTEX
8
0
10
115.473995439519
20
34.4858669612609
30
0
0
VERTEX
8
0
10
116.084968960363
20
34.5716790173052
30
0
0
VERTEX
8
0
10
116.695942481207
20
34.6069096720631
30
0
0
VERTEX
8
0
10
117.306916002051
20
34.6397201640801
30
0
0
VERTEX
8
0
10
117.917889522895
20
34.672530656097
30
0
0
VERTEX
8
0
10
118.528863043739
20
34.7053411481139
30
0
0
VERTEX
8
0
10
119.139836564583
20
34.6329321838208
30
0
0
VERTEX
8
0
10
119.750810085427
20
34.4991663317517
30
0
0
VERTEX
8
0
10
120.361783606271
20
34.3654004796827
30
0
0
VERTEX
8
0
10
120.972757127115
20
34.2316346276136
30
0
0
VERTEX
8
0
10
121.583730647959
20
34.0978687755445
30
0
0
VERTEX
8
0
10
122.194704168803
20
33.8815100680294
30
0
0
VERTEX
8
0
10
122.805677689647
20
33.6846471159278
30
0
0
VERTEX
8
0
10
123.416651210491
20
33.4877841638261
30
0
0
VERTEX
8
0
10
124.027624731335
20
33.2909212117244
30
0
0
VERTEX
8
0
10
124.638598252179
20
33.2633313564773
30
0
0
VERTEX
8
0
10
125.249571773023
20
33.2380925164643
30
0
0
VERTEX
8
0
10
125.860545293868
20
33.2128536764513
30
0
0
VERTEX
8
0
10
126.471518814712
20
33.1876148364382
30
0
0
VERTEX
8
0
10
127.082492335556
20
33.2092733722059
30
0
0
VERTEX
8
0
10
127.6934658564
20
33.2547032842294
30
0
0
VERTEX
8
0
10
128.304439377244
20
33.3001331962528
30
0
0
VERTEX
8
0
10
128.915412898088
20
33.3455631082763
30
0
0
VERTEX
8
0
10
129.526386418932
20
33.3909930202998
30
0
0
VERTEX
8
0
10
130.137359939776
20
33.416116614468
30
0
0
VERTEX
8
0
10
130.74833346062
20
33.4464032224836
30
0
0
VERTEX
8
0
10
131.359306981464
20
33.4766898304993
30
0
0
VERTEX
8
0
10
131.970280502308
20
33.5069764385149
30
0
0
VERTEX
8
0
10
132.581254023152
20
33.542403011209
30
0
0
VERTEX
8
0
10
133.192227543996
20
33.5777373872272
30
0
0
VERTEX
8
0
10
133.80320106484
20
33.6130717632455
30
0
0
VERTEX
8
0
10
134.414174585684
20
33.6484061392637
30
0
0
VERTEX
8
0
10
135.025148106528
20
33.6222952723583
30
0
0
VERTEX
8
0
10
135.636121627372
20
33.5692937083309
30
0
0
VERTEX
8
0
10
136.247095148216
20
33.5162921443035
30
0
0
VERTEX
8
0
10
136.85806866906
20
33.4632905802762
30
0
0
VERTEX
8
0
10
137.469042189904
20
33.4102890162488
30
0
0
VERTEX
8
0
10
138.080015710748
20
33.2914513426105
30
0
0
VERTEX
8
0
10
138.690989231592
20
33.1904959825584
30
0
0
VERTEX
8
0
10
139.301962752436
20
33.0895406225063
30
0
0
VERTEX
8
0
10
139.91293627328
20
32.9885852624541
30
0
0
VERTEX
8
0
10
140.523909794124
20
32.8902805568326
30
0
0
VERTEX
8
0
10
141.134883314968
20
32.7918490807817
30
0
0
VERTEX
8
0
10
141.745856835812
20
32.6934176047309
30
0
0
VERTEX
8
0
10
142.356830356656
20
32.5949861286801
30
0
0
VERTEX
8
0
10
142.9678038775
20
32.492882151708
30
0
0
VERTEX
8
0
10
143.578777398344
20
32.3894029076546
30
0
0
VERTEX
8
0
10
144.189750919188
20
32.2859236636011
30
0
0
VERTEX
8
0
10
144.800724440032
20
32.1824444195477
30
0
0
VERTEX
8
0
10
145.411697960876
20
32.0789651754943
30
0
0
VERTEX
8
0
10
146.02267148172
20
32.0712206547232
30
0
0
VERTEX
8
0
10
146.633645002564
20
32.0358862787049
30
0
0
VERTEX
8
0
10
147.244618523408
20
32.0005519026867
30
0
0
VERTEX
8
0
10
147.855592044252
20
31.9652175266684
30
0
0
VERTEX
8
0
10
148.466565565096
20
32.0036289667431
30
0
0
VERTEX
8
0
10
149.07753908594
20
32.0364394587601
30
0
0
VERTEX
8
0
10
149.688512606784
20
32.069249950777
30
0
0
VERTEX
8
0
10
150.299486127629
20
32.102060442794
30
0
0
VERTEX
8
0
10
150.910459648473
20
32.1406217024668
30
0
0
VERTEX
8
0
10
151.521433169317
20
32.1810038464877
30
0
0
VERTEX
8
0
10
152.132406690161
20
32.2213859905086
30
0
0
VERTEX
8
0
10
152.743380211005
20
32.2617681345294
30
0
0
SEQEND
8
0
0
POLYLINE
8
0
62
6
70
0
10
0
20
0
30
0
0
VERTEX
8
0
10
6.10973520844016
20
50.9749591654967
30
0
0
VERTEX
8
0
10
6.72070872928418
20
53.383119970362
30
0
0
VERTEX
8
0
10
7.3316822501282
20
55.937290579681
30
0
0
VERTEX
8
0
10
7.94265577097221
20
58.4094682522017
30
0
0
VERTEX
8
0
10
8.55362929181623
20
60.8231232310558
30
0
0
VERTEX
8
0
10
9.16460281266025
20
63.1981108813761
30
0
0
VERTEX
8
0
10
9.77557633350426
20
65.6574853807933
30
0
0
VERTEX
8
0
10
10.3865498543483
20
68.0334806212664
30
0
0
VERTEX
8
0
10
10.9975233751923
20
70.354444348865
30
0
0
VERTEX
8
0
10
11.6084968960363
20
71.3479323712978
30
0
0
VERTEX
8
0
10
12.2194704168803
20
72.721873664479
30
0
0
VERTEX
8
0
10
12.8304439377243
20
74.0533739082066
30
0
0
VERTEX
8
0
10
13.4414174585684
20
75.3914560726229
30
0
0
VERTEX
8
0
10
14.0523909794124
20
76.7351719149168
30
0
0
VERTEX
8
0
10
14.6633645002564
20
78.0229646927245
30
0
0
VERTEX
8
0
10
15.2743380211004
20
79.2692465940729
30
0
0
VERTEX
8
0
10
15.8853115419444
20
80.5155284954212
30
0
0
VERTEX
8
0
10
16.4962850627884
20
81.2719225730595
30
0
0
VERTEX
8
0
10
17.1072585836325
20
82.1153805693046
30
0
0
VERTEX
8
0
10
17.7182321044765
20
82.9588385655497
30
0
0
VERTEX
8
0
10
18.3292056253205
20
83.7299352274293
30
0
0
VERTEX
8
0
10
18.9401791461645
20
84.5163642854563
30
0
0
VERTEX
8
0
10
19.5511526670085
20
85.3027933434834
30
0
0
VERTEX
8
0
10
20.1621261878526
20
85.9447336768227
30
0
0
VERTEX
8
0
10
20.7730997086966
20
86.5755644613707
30
0
0
VERTEX
8
0
10
21.3840732295406
20
87.2063952459187
30
0
0
VERTEX
8
0
10
21.9950467503846
20
87.8372260304667
30
0
0
VERTEX
8
0
10
22.6060202712286
20
88.2967627445196
30
0
0
VERTEX
8
0
10
23.2169937920726
20
88.7561096327568
30
0
0
VERTEX
8
0
10
23.8279673129166
20
89.215456520994
30
0
0
VERTEX
8
0
10
24.4389408337607
20
89.6748034092312
30
0
0
VERTEX
8
0
10
25.0499143546047
20
90.0880697702666
30
0
0
VERTEX
8
0
10
25.6608878754487
20
90.4792717904686
30
0
0
VERTEX
8
0
10
26.2718613962927
20
90.8704738106706
30
0
0
VERTEX
8
0
10
26.8828349171367
20
91.2616758308726
30
0
0
VERTEX
8
0
10
27.4938084379807
20
91.6528778510747
30
0
0
VERTEX
8
0
10
28.1047819588248
20
91.9484272170051
30
0
0
VERTEX
8
0
10
28.7157554796688
20
92.2689604851706
30
0
0
VERTEX
8
0
10
29.3267290005128
20
92.5894937533361
30
0
0
VERTEX
8
0
10
29.9377025213568
20
92.9100270215016
30
0
0
VERTEX
8
0
10
30.5486760422008
20
93.2071444293811
30
0
0
VERTEX
8
0
10
31.1596495630448
20
93.5049627415349
30
0
0
VERTEX
8
0
10
31.7706230838888
20
93.8027810536887
30
0
0
VERTEX
8
0
10
32.3815966047328
20
94.1005993658425
30
0
0
VERTEX
8
0
10
32.9925701255769
20
94.3662452288838
30
0
0
VERTEX
8
0
10
33.6035436464209
20
94.6186336290141
30
0
0
VERTEX
8
0
10
34.2145171672649
20
94.8710220291444
30
0
0
VERTEX
8
0
10
34.8254906881089
20
95.1234104292748
30
0
0
VERTEX
8
0
10
35.4364642089529
20
95.3757988294051
30
0
0
VERTEX
8
0
10
36.0474377297969
20
95.6002125230126
30
0
0
VERTEX
8
0
10
36.6584112506409
20
95.8324098511326
30
0
0
VERTEX
8
0
10
37.269384771485
20
96.0646071792524
30
0
0
VERTEX
8
0
10
37.880358292329
20
96.2968045073724
30
0
0
VERTEX
8
0
10
38.491331813173
20
96.4994950576932
30
0
0
VERTEX
8
0
10
39.102305334017
20
96.7039296617987
30
0
0
VERTEX
8
0
10
39.713278854861
20
96.9083642659043
30
0
0
VERTEX
8
0
10
40.324252375705
20
97.1127988700099
30
0
0
VERTEX
8
0
10
40.935225896549
20
97.2892130184845
30
0
0
VERTEX
8
0
10
41.5461994173931
20
97.4557893625706
30
0
0
VERTEX
8
0
10
42.1571729382371
20
97.6223657066566
30
0
0
VERTEX
8
0
10
42.7681464590811
20
97.7889420507426
30
0
0
VERTEX
8
0
10
43.3791199799251
20
97.9555183948286
30
0
0
VERTEX
8
0
10
43.9900935007691
20
98.0863196348475
30
0
0
VERTEX
8
0
10
44.6010670216131
20
98.2276571389204
30
0
0
VERTEX
8
0
10
45.2120405424571
20
98.3689946429934
30
0
0
VERTEX
8
0
10
45.8230140633012
20
98.5103321470665
30
0
0
VERTEX
8
0
10
46.4339875841452
20
98.6516696511394
30
0
0
VERTEX
8
0
10
47.0449611049892
20
98.7930071552124
30
0
0
VERTEX
8
0
10
47.6559346258332
20
98.9343446592854
30
0
0
VERTEX
8
0
10
48.2669081466772
20
99.0756821633584
30
0
0
VERTEX
8
0
10
48.8778816675212
20
99.2131222624978
30
0
0
VERTEX
8
0
10
49.4888551883653
20
99.3494119985682
30
0
0
VERTEX
8
0
10
50.0998287092093
20
99.4857017346386
30
0
0
VERTEX
8
0
10
50.7108022300533
20
99.621991470709
30
0
0
VERTEX
8
0
10
51.3217757508973
20
99.7582812067794
30
0
0
VERTEX
8
0
10
51.9327492717413
20
99.949443680321
30
0
0
VERTEX
8
0
10
52.5437227925853
20
100.123591676411
30
0
0
VERTEX
8
0
10
53.1546963134293
20
100.297739672501
30
0
0
VERTEX
8
0
10
53.7656698342733
20
100.471887668591
30
0
0
VERTEX
8
0
10
54.3766433551174
20
100.654567000265
30
0
0
VERTEX
8
0
10
54.9876168759614
20
100.836286648359
30
0
0
VERTEX
8
0
10
55.5985903968054
20
101.018006296453
30
0
0
VERTEX
8
0
10
56.2095639176494
20
101.199725944547
30
0
0
VERTEX
8
0
10
56.8205374384934
20
101.365210596175
30
0
0
VERTEX
8
0
10
57.4315109593374
20
101.526739172259
30
0
0
VERTEX
8
0
10
58.0424844801815
20
101.688267748342
30
0
0
VERTEX
8
0
10
58.6534580010255
20
101.849796324426
30
0
0
VERTEX
8
0
10
59.2644315218695
20
102.011324900509
30
0
0
VERTEX
8
0
10
59.8754050427135
20
102.154159203645
30
0
0
VERTEX
8
0
10
60.4863785635575
20
102.303068359722
30
0
0
VERTEX
8
0
10
61.0973520844015
20
102.451977515799
30
0
0
VERTEX
8
0
10
61.7083256052455
20
102.600886671876
30
0
0
VERTEX
8
0
10
62.3192991260895
20
102.635742253793
30
0
0
VERTEX
8
0
10
62.9302726469336
20
102.68621993382
30
0
0
VERTEX
8
0
10
63.5412461677776
20
102.736697613846
30
0
0
VERTEX
8
0
10
64.1522196886216
20
102.787175293872
30
0
0
VERTEX
8
0
10
64.7631932094656
20
102.814442460753
30
0
0
VERTEX
8
0
10
65.3741667303096
20
102.837157416765
30
0
0
VERTEX
8
0
10
65.9851402511536
20
102.859872372777
30
0
0
VERTEX
8
0
10
66.5961137719977
20
102.882587328789
30
0
0
VERTEX
8
0
10
67.2070872928417
20
102.900119714082
30
0
0
VERTEX
8
0
10
67.8180608136857
20
102.912739134089
30
0
0
VERTEX
8
0
10
68.4290343345297
20
102.925358554095
30
0
0
VERTEX
8
0
10
69.0400078553737
20
102.937977974102
30
0
0
VERTEX
8
0
10
69.6509813762177
20
102.950597394108
30
0
0
VERTEX
8
0
10
70.2619548970617
20
102.966221936826
30
0
0
VERTEX
8
0
10
70.8729284179057
20
102.981365240833
30
0
0
VERTEX
8
0
10
71.4839019387498
20
102.996508544841
30
0
0
VERTEX
8
0
10
72.0948754595938
20
103.011651848849
30
0
0
VERTEX
8
0
10
72.7058489804378
20
102.996125090485
30
0
0
VERTEX
8
0
10
73.3168225012818
20
102.975934018474
30
0
0
VERTEX
8
0
10
73.9277960221258
20
102.955742946464
30
0
0
VERTEX
8
0
10
74.5387695429698
20
102.935551874454
30
0
0
VERTEX
8
0
10
75.1497430638138
20
102.911231858131
30
0
0
VERTEX
8
0
10
75.7607165846579
20
102.883469134116
30
0
0
VERTEX
8
0
10
76.3716901055019
20
102.855706410102
30
0
0
VERTEX
8
0
10
76.9826636263459
20
102.827943686088
30
0
0
VERTEX
8
0
10
77.5936371471899
20
102.800180962073
30
0
0
VERTEX
8
0
10
78.2046106680339
20
102.741560290037
30
0
0
VERTEX
8
0
10
78.8155841888779
20
102.68855872601
30
0
0
VERTEX
8
0
10
79.4265577097219
20
102.635557161982
30
0
0
VERTEX
8
0
10
80.037531230566
20
102.582555597955
30
0
0
VERTEX
8
0
10
80.64850475141
20
102.525011252263
30
0
0
VERTEX
8
0
10
81.259478272254
20
102.466961920233
30
0
0
VERTEX
8
0
10
81.870451793098
20
102.408912588203
30
0
0
VERTEX
8
0
10
82.481425313942
20
102.350863256173
30
0
0
VERTEX
8
0
10
83.092398834786
20
102.345265451184
30
0
0
VERTEX
8
0
10
83.70337235563
20
102.378075943201
30
0
0
VERTEX
8
0
10
84.3143458764741
20
102.410886435218
30
0
0
VERTEX
8
0
10
84.9253193973181
20
102.443696927235
30
0
0
VERTEX
8
0
10
85.5362929181621
20
102.476507419252
30
0
0
VERTEX
8
0
10
86.1472664390061
20
102.515650845056
30
0
0
VERTEX
8
0
10
86.7582399598501
20
102.553509105075
30
0
0
VERTEX
8
0
10
87.3692134806941
20
102.591367365095
30
0
0
VERTEX
8
0
10
87.9801870015381
20
102.629225625114
30
0
0
VERTEX
8
0
10
88.5911605223822
20
102.681196262675
30
0
0
VERTEX
8
0
10
89.2021340432262
20
102.734197826703
30
0
0
VERTEX
8
0
10
89.8131075640702
20
102.78719939073
30
0
0
VERTEX
8
0
10
90.4240810849142
20
102.840200954758
30
0
0
VERTEX
8
0
10
91.0350546057582
20
102.894740177738
30
0
0
VERTEX
8
0
10
91.6460281266022
20
102.950265625767
30
0
0
VERTEX
8
0
10
92.2570016474462
20
103.005791073796
30
0
0
VERTEX
8
0
10
92.8679751682902
20
103.061316521825
30
0
0
VERTEX
8
0
10
93.4789486891343
20
103.116841969853
30
0
0
VERTEX
8
0
10
94.0899222099783
20
103.133401750063
30
0
0
VERTEX
8
0
10
94.7008957308223
20
103.158640590076
30
0
0
VERTEX
8
0
10
95.3118692516663
20
103.183879430089
30
0
0
VERTEX
8
0
10
95.9228427725103
20
103.209118270102
30
0
0
VERTEX
8
0
10
96.5338162933543
20
103.219760700025
30
0
0
VERTEX
8
0
10
97.1447898141983
20
103.22985623603
30
0
0
VERTEX
8
0
10
97.7557633350424
20
103.239951772035
30
0
0
VERTEX
8
0
10
98.3667368558864
20
103.250047308041
30
0
0
VERTEX
8
0
10
98.9777103767304
20
103.260142844046
30
0
0
VERTEX
8
0
10
99.5886838975744
20
103.270238380051
30
0
0
VERTEX
8
0
10
100.199657418418
20
103.280333916056
30
0
0
VERTEX
8
0
10
100.810630939262
20
103.290429452062
30
0
0
VERTEX
8
0
10
101.421604460107
20
103.300524988067
30
0
0
VERTEX
8
0
10
102.032577980951
20
103.343898634835
30
0
0
VERTEX
8
0
10
102.643551501795
20
103.379233010853
30
0
0
VERTEX
8
0
10
103.254525022639
20
103.414567386871
30
0
0
VERTEX
8
0
10
103.865498543483
20
103.44990176289
30
0
0
VERTEX
8
0
10
104.476472064327
20
103.460102067845
30
0
0
VERTEX
8
0
10
105.087445585171
20
103.47019760385
30
0
0
VERTEX
8
0
10
105.698419106015
20
103.480293139855
30
0
0
VERTEX
8
0
10
106.309392626859
20
103.49038867586
30
0
0
VERTEX
8
0
10
106.920366147703
20
103.502183215002
30
0
0
VERTEX
8
0
10
107.531339668547
20
103.514802635008
30
0
0
VERTEX
8
0
10
108.142313189391
20
103.527422055015
30
0
0
VERTEX
8
0
10
108.753286710235
20
103.540041475022
30
0
0
VERTEX
8
0
10
109.364260231079
20
103.552660895028
30
0
0
VERTEX
8
0
10
109.975233751923
20
103.643675427891
30
0
0
VERTEX
8
0
10
110.586207272767
20
103.714344179927
30
0
0
VERTEX
8
0
10
111.197180793611
20
103.785012931964
30
0
0
VERTEX
8
0
10
111.808154314455
20
103.855681684
30
0
0
VERTEX
8
0
10
112.419127835299
20
103.926350436037
30
0
0
VERTEX
8
0
10
113.030101356143
20
103.997019188073
30
0
0
VERTEX
8
0
10
113.641074876987
20
104.06768794011
30
0
0
VERTEX
8
0
10
114.252048397831
20
104.138356692146
30
0
0
VERTEX
8
0
10
114.863021918675
20
104.176991290084
30
0
0
VERTEX
8
0
10
115.473995439519
20
104.202230130097
30
0
0
VERTEX
8
0
10
116.084968960363
20
104.22746897011
30
0
0
VERTEX
8
0
10
116.695942481207
20
104.252707810123
30
0
0
VERTEX
8
0
10
117.306916002051
20
104.277946650136
30
0
0
VERTEX
8
0
10
117.917889522895
20
104.282250558595
30
0
0
VERTEX
8
0
10
118.528863043739
20
104.2923460946
30
0
0
VERTEX
8
0
10
119.139836564583
20
104.302441630606
30
0
0
VERTEX
8
0
10
119.750810085427
20
104.312537166611
30
0
0
VERTEX
8
0
10
120.361783606271
20
104.274487179413
30
0
0
VERTEX
8
0
10
120.972757127115
20
104.239152803395
30
0
0
VERTEX
8
0
10
121.583730647959
20
104.203818427376
30
0
0
VERTEX
8
0
10
122.194704168803
20
104.168484051358
30
0
0
VERTEX
8
0
10
122.805677689647
20
104.127568633383
30
0
0
VERTEX
8
0
10
123.416651210491
20
104.084662605361
30
0
0
VERTEX
8
0
10
124.027624731335
20
104.041756577338
30
0
0
VERTEX
8
0
10
124.638598252179
20
103.998850549316
30
0
0
VERTEX
8
0
10
125.249571773023
20
103.955944521294
30
0
0
VERTEX
8
0
10
125.860545293868
20
103.98443504028
30
0
0
VERTEX
8
0
10
126.471518814712
20
103.992006692284
30
0
0
VERTEX
8
0
10
127.082492335556
20
103.999578344288
30
0
0
VERTEX
8
0
10
127.6934658564
20
104.007149996292
30
0
0
VERTEX
8
0
10
128.304439377244
20
104.036765035339
30
0
0
VERTEX
8
0
10
128.915412898088
20
104.064527759353
30
0
0
VERTEX
8
0
10
129.526386418932
20
104.092290483368
30
0
0
VERTEX
8
0
10
130.137359939776
20
104.120053207382
30
0
0
VERTEX
8
0
10
130.74833346062
20
104.141992873165
30
0
0
VERTEX
8
0
10
131.359306981464
20
104.162183945175
30
0
0
VERTEX
8
0
10
131.970280502308
20
104.182375017186
30
0
0
VERTEX
8
0
10
132.581254023152
20
104.202566089196
30
0
0
VERTEX
8
0
10
133.192227543996
20
104.222757161207
30
0
0
VERTEX
8
0
10
133.80320106484
20
104.213744237683
30
0
0
VERTEX
8
0
10
134.414174585684
20
104.213744237683
30
0
0
VERTEX
8
0
10
135.025148106528
20
104.213744237683
30
0
0
VERTEX
8
0
10
135.636121627372
20
104.213744237683
30
0
0
VERTEX
8
0
10
136.247095148216
20
104.205235951268
30
0
0
VERTEX
8
0
10
136.85806866906
20
104.197664299264
30
0
0
VERTEX
8
0
10
137.469042189904
20
104.19009264726
30
0
0
VERTEX
8
0
10
138.080015710748
20
104.182520995256
30
0
0
VERTEX
8
0
10
138.690989231592
20
104.148667353729
30
0
0
VERTEX
8
0
10
139.301962752436
20
104.108285209708
30
0
0
VERTEX
8
0
10
139.91293627328
20
104.067903065687
30
0
0
VERTEX
8
0
10
140.523909794124
20
104.027520921666
30
0
0
VERTEX
8
0
10
141.134883314968
20
103.987138777645
30
0
0
VERTEX
8
0
10
141.745856835812
20
103.976606005889
30
0
0
VERTEX
8
0
10
142.356830356656
20
103.956414933879
30
0
0
VERTEX
8
0
10
142.9678038775
20
103.936223861868
30
0
0
VERTEX
8
0
10
143.578777398344
20
103.916032789858
30
0
0
VERTEX
8
0
10
144.189750919188
20
103.881257880032
30
0
0
VERTEX
8
0
10
144.800724440032
20
103.848447388015
30
0
0
VERTEX
8
0
10
145.411697960876
20
103.815636895998
30
0
0
VERTEX
8
0
10
146.02267148172
20
103.782826403981
30
0
0
VERTEX
8
0
10
146.633645002564
20
103.773141911489
30
0
0
VERTEX
8
0
10
147.244618523408
20
103.768094143486
30
0
0
VERTEX
8
0
10
147.855592044252
20
103.763046375484
30
0
0
VERTEX
8
0
10
148.466565565096
20
103.757998607481
30
0
0
VERTEX
8
0
10
149.07753908594
20
103.756814718348
30
0
0
VERTEX
8
0
10
149.688512606784
20
103.759338602349
30
0
0
VERTEX
8
0
10
150.299486127629
20
103.761862486351
30
0
0
VERTEX
8
0
10
150.910459648473
20
103.764386370352
30
0
0
VERTEX
8
0
10
151.521433169317
20
103.766910254353
30
0
0
VERTEX
8
0
10
152.132406690161
20
103.823388052136
30
0
0
VERTEX
8
0
10
152.743380211005
20
103.871341848161
30
0
0
SEQEND
8
0
0
POLYLINE
8
0
62
1
70
0
10
0
20
0
30
0
0
VERTEX
8
0
10
6.10973520844016
20
42.1360797174608
30
0
0
VERTEX
8
0
10
6.72070872928418
20
43.9402684161133
30
0
0
VERTEX
8
0
10
7.3316822501282
20
45.9998190589812
30
0
0
VERTEX
8
0
10
7.94265577097221
20
48.0906500447061
30
0
0
VERTEX
8
0
10
8.55362929181623
20
50.131199873465
30
0
0
VERTEX
8
0
10
9.16460281266025
20
52.1635577828394
30
0
0
VERTEX
8
0
10
9.77557633350426
20
54.1657949884807
30
0
0
VERTEX
8
0
10
10.3865498543483
20
56.1385556559053
30
0
0
VERTEX
8
0
10
10.9975233751923
20
58.1258546978243
30
0
0
VERTEX
8
0
10
11.6084968960363
20
58.6458177443912
30
0
0
VERTEX
8
0
10
12.2194704168803
20
59.6376185204789
30
0
0
VERTEX
8
0
10
12.8304439377243
20
60.5918783239204
30
0
0
VERTEX
8
0
10
13.4414174585684
20
61.5045613348487
30
0
0
VERTEX
8
0
10
14.0523909794124
20
62.4128400979583
30
0
0
VERTEX
8
0
10
14.6633645002564
20
63.3227426575778
30
0
0
VERTEX
8
0
10
15.2743380211004
20
63.9173047526168
30
0
0
VERTEX
8
0
10
15.8853115419444
20
64.5626313440489
30
0
0
VERTEX
8
0
10
16.4962850627884
20
65.1655823994725
30
0
0
VERTEX
8
0
10
17.1072585836325
20
65.7769783085049
30
0
0
VERTEX
8
0
10
17.7182321044765
20
66.0763580540968
30
0
0
VERTEX
8
0
10
18.3292056253205
20
66.4396840232544
30
0
0
VERTEX
8
0
10
18.9401791461645
20
66.8024159855039
30
0
0
VERTEX
8
0
10
19.5511526670085
20
67.1659556876825
30
0
0
VERTEX
8
0
10
20.1621261878526
20
67.3627851981932
30
0
0
VERTEX
8
0
10
20.7730997086966
20
67.5480753463333
30
0
0
VERTEX
8
0
10
21.3840732295406
20
67.7411922853311
30
0
0
VERTEX
8
0
10
21.9950467503846
20
67.9408289781556
30
0
0
VERTEX
8
0
10
22.6060202712286
20
68.0407154614912
30
0
0
VERTEX
8
0
10
23.2169937920726
20
68.0767288268219
30
0
0
VERTEX
8
0
10
23.8279673129166
20
68.1149624814728
30
0
0
VERTEX
8
0
10
24.4389408337607
20
68.1416840093989
30
0
0
VERTEX
8
0
10
25.0499143546047
20
68.1729053173737
30
0
0
VERTEX
8
0
10
25.6608878754487
20
68.1596031851608
30
0
0
VERTEX
8
0
10
26.2718613962927
20
68.1584812572824
30
0
0
VERTEX
8
0
10
26.8828349171367
20
68.1058352003718
30
0
0
VERTEX
8
0
10
27.4938084379807
20
68.0494392867263
30
0
0
VERTEX
8
0
10
28.1047819588248
20
67.9843408174423
30
0
0
VERTEX
8
0
10
28.7157554796688
20
67.919389144824
30
0
0
VERTEX
8
0
10
29.3267290005128
20
67.8695211004612
30
0
0
VERTEX
8
0
10
29.9377025213568
20
67.8301573805826
30
0
0
VERTEX
8
0
10
30.5486760422008
20
67.7172423202646
30
0
0
VERTEX
8
0
10
31.1596495630448
20
67.5632876478227
30
0
0
VERTEX
8
0
10
31.7706230838888
20
67.4106877778189
30
0
0
VERTEX
8
0
10
32.3815966047328
20
67.3754140691559
30
0
0
VERTEX
8
0
10
32.9925701255769
20
67.3197595725443
30
0
0
VERTEX
8
0
10
33.6035436464209
20
67.1664550542011
30
0
0
VERTEX
8
0
10
34.2145171672649
20
67.0428086117733
30
0
0
VERTEX
8
0
10
34.8254906881089
20
66.9251832033538
30
0
0
VERTEX
8
0
10
35.4364642089529
20
66.81277750679
30
0
0
VERTEX
8
0
10
36.0474377297969
20
66.7078820327436
30
0
0
VERTEX
8
0
10
36.6584112506409
20
66.6082176666938
30
0
0
VERTEX
8
0
10
37.269384771485
20
66.4856598493828
30
0
0
VERTEX
8
0
10
37.880358292329
20
66.3508518478199
30
0
0
VERTEX
8
0
10
38.491331813173
20
66.2227775316804
30
0
0
VERTEX
8
0
10
39.102305334017
20
66.0998770333734
30
0
0
VERTEX
8
0
10
39.713278854861
20
65.9806543387607
30
0
0
VERTEX
8
0
10
40.324252375705
20
65.811105095792
30
0
0
VERTEX
8
0
10
40.935225896549
20
65.6567879887646
30
0
0
VERTEX
8
0
10
41.5461994173931
20
65.5566354525911
30
0
0
VERTEX
8
0
10
42.1571729382371
20
65.4455082287962
30
0
0
VERTEX
8
0
10
42.7681464590811
20
65.251633468138
30
0
0
VERTEX
8
0
10
43.3791199799251
20
65.057650305699
30
0
0
VERTEX
8
0
10
43.9900935007691
20
64.885067770559
30
0
0
VERTEX
8
0
10
44.6010670216131
20
64.7127326075563
30
0
0
VERTEX
8
0
10
45.2120405424571
20
64.5387633835403
30
0
0
VERTEX
8
0
10
45.8230140633012
20
64.3643188651119
30
0
0
VERTEX
8
0
10
46.4339875841452
20
64.1937004046309
30
0
0
VERTEX
8
0
10
47.0449611049892
20
64.0251098697089
30
0
0
VERTEX
8
0
10
47.6559346258332
20
63.8572278907897
30
0
0
VERTEX
8
0
10
48.2669081466772
20
63.7214191431006
30
0
0
VERTEX
8
0
10
48.8778816675212
20
63.5786669193644
30
0
0
VERTEX
8
0
10
49.4888551883653
20
63.4369512736704
30
0
0
VERTEX
8
0
10
50.0998287092093
20
63.2962791684818
30
0
0
VERTEX
8
0
10
50.7108022300533
20
63.1773327299503
30
0
0
VERTEX
8
0
10
51.3217757508973
20
63.059321178886
30
0
0
VERTEX
8
0
10
51.9327492717413
20
62.9748017517556
30
0
0
VERTEX
8
0
10
52.5437227925853
20
62.8897753262558
30
0
0
VERTEX
8
0
10
53.1546963134293
20
62.8351518117053
30
0
0
VERTEX
8
0
10
53.7656698342733
20
62.7949238529033
30
0
0
VERTEX
8
0
10
54.3766433551174
20
62.7613314071284
30
0
0
VERTEX
8
0
10
54.9876168759614
20
62.7313310164865
30
0
0
VERTEX
8
0
10
55.5985903968054
20
62.7032063737518
30
0
0
VERTEX
8
0
10
56.2095639176494
20
62.6656940495995
30
0
0
VERTEX
8
0
10
56.8205374384934
20
62.6329780327747
30
0
0
VERTEX
8
0
10
57.4315109593374
20
62.5990329241429
30
0
0
VERTEX
8
0
10
58.0424844801815
20
62.5677217455772
30
0
0
VERTEX
8
0
10
58.6534580010255
20
62.512958060089
30
0
0
VERTEX
8
0
10
59.2644315218695
20
62.460871382756
30
0
0
VERTEX
8
0
10
59.8754050427135
20
62.4101992705611
30
0
0
VERTEX
8
0
10
60.4863785635575
20
62.3609451717684
30
0
0
VERTEX
8
0
10
61.0973520844015
20
62.2687283006436
30
0
0
VERTEX
8
0
10
61.7083256052455
20
62.1609554141718
30
0
0
VERTEX
8
0
10
62.3192991260895
20
62.0334050347935
30
0
0
VERTEX
8
0
10
62.9302726469336
20
61.9004267788715
30
0
0
VERTEX
8
0
10
63.5412461677776
20
61.7683123200656
30
0
0
VERTEX
8
0
10
64.1522196886216
20
61.5078784511159
30
0
0
VERTEX
8
0
10
64.7631932094656
20
61.2849121790094
30
0
0
VERTEX
8
0
10
65.3741667303096
20
61.0473980686605
30
0
0
VERTEX
8
0
10
65.9851402511536
20
60.8146218594639
30
0
0
VERTEX
8
0
10
66.5961137719977
20
60.6031142146376
30
0
0
VERTEX
8
0
10
67.2070872928417
20
60.3902837789391
30
0
0
VERTEX
8
0
10
67.8180608136857
20
60.1505216181081
30
0
0
VERTEX
8
0
10
68.4290343345297
20
59.9141181466252
30
0
0
VERTEX
8
0
10
69.0400078553737
20
59.683916838869
30
0
0
VERTEX
8
0
10
69.6509813762177
20
59.4559970321944
30
0
0
VERTEX
8
0
10
70.2619548970617
20
59.2301771602795
30
0
0
VERTEX
8
0
10
70.8729284179057
20
59.0052579604765
30
0
0
VERTEX
8
0
10
71.4839019387498
20
58.7808375054925
30
0
0
VERTEX
8
0
10
72.0948754595938
20
58.4925343567499
30
0
0
VERTEX
8
0
10
72.7058489804378
20
58.2240632906524
30
0
0
VERTEX
8
0
10
73.3168225012818
20
58.0028685301428
30
0
0
VERTEX
8
0
10
73.9277960221258
20
57.7666429596319
30
0
0
VERTEX
8
0
10
74.5387695429698
20
57.4785339194654
30
0
0
VERTEX
8
0
10
75.1497430638138
20
57.1958925134369
30
0
0
VERTEX
8
0
10
75.7607165846579
20
56.9316087399249
30
0
0
VERTEX
8
0
10
76.3716901055019
20
56.6649059842433
30
0
0
VERTEX
8
0
10
76.9826636263459
20
56.372287739845
30
0
0
VERTEX
8
0
10
77.5936371471899
20
56.0729742482752
30
0
0
VERTEX
8
0
10
78.2046106680339
20
55.7802767153035
30
0
0
VERTEX
8
0
10
78.8155841888779
20
55.4889501443697
30
0
0
VERTEX
8
0
10
79.4265577097219
20
55.1976388534501
30
0
0
VERTEX
8
0
10
80.037531230566
20
54.8448793745778
30
0
0
VERTEX
8
0
10
80.64850475141
20
54.5160295552349
30
0
0
VERTEX
8
0
10
81.259478272254
20
54.1912650102257
30
0
0
VERTEX
8
0
10
81.870451793098
20
53.8666531749369
30
0
0
VERTEX
8
0
10
82.481425313942
20
53.6532980454437
30
0
0
VERTEX
8
0
10
83.092398834786
20
53.4255345711327
30
0
0
VERTEX
8
0
10
83.70337235563
20
53.2214791886938
30
0
0
VERTEX
8
0
10
84.3143458764741
20
53.0137436629066
30
0
0
VERTEX
8
0
10
84.9253193973181
20
52.8876191675173
30
0
0
VERTEX
8
0
10
85.5362929181621
20
52.7790061946221
30
0
0
VERTEX
8
0
10
86.1472664390061
20
52.6725224971057
30
0
0
VERTEX
8
0
10
86.7582399598501
20
52.5667251956729
30
0
0
VERTEX
8
0
10
87.3692134806941
20
52.467657543157
30
0
0
VERTEX
8
0
10
87.9801870015381
20
52.375297267323
30
0
0
VERTEX
8
0
10
88.5911605223822
20
52.2876930582048
30
0
0
VERTEX
8
0
10
89.2021340432262
20
52.2042041869019
30
0
0
VERTEX
8
0
10
89.8131075640702
20
52.1211937583052
30
0
0
VERTEX
8
0
10
90.4240810849142
20
52.0613117414318
30
0
0
VERTEX
8
0
10
91.0350546057582
20
51.998607008937
30
0
0
VERTEX
8
0
10
91.6460281266022
20
51.9436272435019
30
0
0
VERTEX
8
0
10
92.2570016474462
20
51.8879911882512
30
0
0
VERTEX
8
0
10
92.8679751682902
20
51.7925296525539
30
0
0
VERTEX
8
0
10
93.4789486891343
20
51.6907105466203
30
0
0
VERTEX
8
0
10
94.0899222099783
20
51.5960606253305
30
0
0
VERTEX
8
0
10
94.7008957308223
20
51.5024917155881
30
0
0
VERTEX
8
0
10
95.3118692516663
20
51.3863339005601
30
0
0
VERTEX
8
0
10
95.9228427725103
20
51.2505034147447
30
0
0
VERTEX
8
0
10
96.5338162933543
20
51.1147592440884
30
0
0
VERTEX
8
0
10
97.1447898141983
20
50.9791020780963
30
0
0
VERTEX
8
0
10
97.7557633350424
20
50.8435326131875
30
0
0
VERTEX
8
0
10
98.3667368558864
20
50.7240909280969
30
0
0
VERTEX
8
0
10
98.9777103767304
20
50.6019708550821
30
0
0
VERTEX
8
0
10
99.5886838975744
20
50.4966049660183
30
0
0
VERTEX
8
0
10
100.199657418418
20
50.3880303150137
30
0
0
VERTEX
8
0
10
100.810630939262
20
50.2899308078865
30
0
0
VERTEX
8
0
10
101.421604460107
20
50.1932491347361
30
0
0
VERTEX
8
0
10
102.032577980951
20
50.0967116029753
30
0
0
VERTEX
8
0
10
102.643551501795
20
50.0003190475022
30
0
0
VERTEX
8
0
10
103.254525022639
20
49.9040723084066
30
0
0
VERTEX
8
0
10
103.865498543483
20
49.807972230996
30
0
0
VERTEX
8
0
10
104.476472064327
20
49.7165534051692
30
0
0
VERTEX
8
0
10
105.087445585171
20
49.6282513991672
30
0
0
VERTEX
8
0
10
105.698419106015
20
49.5400760395729
30
0
0
VERTEX
8
0
10
106.309392626859
20
49.4077919211037
30
0
0
VERTEX
8
0
10
106.920366147703
20
49.284235355291
30
0
0
VERTEX
8
0
10
107.531339668547
20
49.1607116256645
30
0
0
VERTEX
8
0
10
108.142313189391
20
49.0372209803652
30
0
0
VERTEX
8
0
10
108.753286710235
20
49.0172089048256
30
0
0
VERTEX
8
0
10
109.364260231079
20
49.0064303963313
30
0
0
VERTEX
8
0
10
109.975233751923
20
49.0015223846081
30
0
0
VERTEX
8
0
10
110.586207272767
20
48.9973657289215
30
0
0
VERTEX
8
0
10
111.197180793611
20
49.0206384403097
30
0
0
VERTEX
8
0
10
111.808154314455
20
49.0626767725736
30
0
0
VERTEX
8
0
10
112.419127835299
20
49.1183383112532
30
0
0
VERTEX
8
0
10
113.030101356143
20
49.1820771636299
30
0
0
VERTEX
8
0
10
113.641074876987
20
49.2465264346909
30
0
0
VERTEX
8
0
10
114.252048397831
20
49.2284853517608
30
0
0
VERTEX
8
0
10
114.863021918675
20
49.2287247951435
30
0
0
VERTEX
8
0
10
115.473995439519
20
49.1950453509974
30
0
0
VERTEX
8
0
10
116.084968960363
20
49.1699543328195
30
0
0
VERTEX
8
0
10
116.695942481207
20
49.1096353881052
30
0
0
VERTEX
8
0
10
117.306916002051
20
49.0478510815883
30
0
0
VERTEX
8
0
10
117.917889522895
20
48.9479494264934
30
0
0
VERTEX
8
0
10
118.528863043739
20
48.8497127392076
30
0
0
VERTEX
8
0
10
119.139836564583
20
48.676991789699
30
0
0
VERTEX
8
0
10
119.750810085427
20
48.460677576711
30
0
0
VERTEX
8
0
10
120.361783606271
20
48.3306822313267
30
0
0
VERTEX
8
0
10
120.972757127115
20
48.2439949315702
30
0
0
VERTEX
8
0
10
121.583730647959
20
48.1575260519261
30
0
0
VERTEX
8
0
10
122.194704168803
20
48.0129574957919
30
0
0
VERTEX
8
0
10
122.805677689647
20
47.8826460921772
30
0
0
VERTEX
8
0
10
123.416651210491
20
47.7105680688247
30
0
0
VERTEX
8
0
10
124.027624731335
20
47.5155052701705
30
0
0
VERTEX
8
0
10
124.638598252179
20
47.4391293931879
30
0
0
VERTEX
8
0
10
125.249571773023
20
47.3644312483044
30
0
0
VERTEX
8
0
10
125.860545293868
20
47.2395777352195
30
0
0
VERTEX
8
0
10
126.471518814712
20
47.0852994615084
30
0
0
VERTEX
8
0
10
127.082492335556
20
46.9644648717358
30
0
0
VERTEX
8
0
10
127.6934658564
20
46.8609834892738
30
0
0
VERTEX
8
0
10
128.304439377244
20
46.7581073032269
30
0
0
VERTEX
8
0
10
128.915412898088
20
46.7119948698493
30
0
0
VERTEX
8
0
10
129.526386418932
20
46.7179503477029
30
0
0
VERTEX
8
0
10
130.137359939776
20
46.7094505426052
30
0
0
VERTEX
8
0
10
130.74833346062
20
46.704690621057
30
0
0
VERTEX
8
0
10
131.359306981464
20
46.6999805468716
30
0
0
VERTEX
8
0
10
131.970280502308
20
46.6763841716406
30
0
0
VERTEX
8
0
10
132.581254023152
20
46.6596946617325
30
0
0
VERTEX
8
0
10
133.192227543996
20
46.6430383798773
30
0
0
VERTEX
8
0
10
133.80320106484
20
46.6264816167011
30
0
0
VERTEX
8
0
10
134.414174585684
20
46.5932274872732
30
0
0
VERTEX
8
0
10
135.025148106528
20
46.5132903844851
30
0
0
VERTEX
8
0
10
135.636121627372
20
46.4139457556069
30
0
0
VERTEX
8
0
10
136.247095148216
20
46.3146171702368
30
0
0
VERTEX
8
0
10
136.85806866906
20
46.2220294446847
30
0
0
VERTEX
8
0
10
137.469042189904
20
46.1349106512801
30
0
0
VERTEX
8
0
10
138.080015710748
20
46.0001268304967
30
0
0
VERTEX
8
0
10
138.690989231592
20
45.8782989539682
30
0
0
VERTEX
8
0
10
139.301962752436
20
45.756478596064
30
0
0
VERTEX
8
0
10
139.91293627328
20
45.636809402234
30
0
0
VERTEX
8
0
10
140.523909794124
20
45.5186652214751
30
0
0
VERTEX
8
0
10
141.134883314968
20
45.4004371747713
30
0
0
VERTEX
8
0
10
141.745856835812
20
45.2822169591223
30
0
0
VERTEX
8
0
10
142.356830356656
20
45.1608375057822
30
0
0
VERTEX
8
0
10
142.9678038775
20
45.036486844881
30
0
0
VERTEX
8
0
10
143.578777398344
20
44.9111514565392
30
0
0
VERTEX
8
0
10
144.189750919188
20
44.7858240206331
30
0
0
VERTEX
8
0
10
144.800724440032
20
44.6605046041115
30
0
0
VERTEX
8
0
10
145.411697960876
20
44.5351932746727
30
0
0
VERTEX
8
0
10
146.02267148172
20
44.4788695055872
30
0
0
VERTEX
8
0
10
146.633645002564
20
44.4026864854639
30
0
0
VERTEX
8
0
10
147.244618523408
20
44.3265215544593
30
0
0
VERTEX
8
0
10
147.855592044252
20
44.2569782771954
30
0
0
VERTEX
8
0
10
148.466565565096
20
44.2393986744188
30
0
0
VERTEX
8
0
10
149.07753908594
20
44.2178846937232
30
0
0
VERTEX
8
0
10
149.688512606784
20
44.1964820295065
30
0
0
VERTEX
8
0
10
150.299486127629
20
44.1784450570779
30
0
0
VERTEX
8
0
10
150.910459648473
20
44.1649071227482
30
0
0
VERTEX
8
0
10
151.521433169317
20
44.1528089626017
30
0
0
VERTEX
8
0
10
152.132406690161
20
44.140827553175
30
0
0
VERTEX
8
0
10
152.743380211005
20
44.1260850524842
30
0
0
SEQEND
8
0
0
POLYLINE
8
0
62
2
70
0
10
0
20
0
30
0
0
VERTEX
8
0
10
6.10973520844016
20
42.1360797174608
30
0
0
VERTEX
8
0
10
6.72070872928418
20
43.9402684161133
30
0
0
VERTEX
8
0
10
7.3316822501282
20
45.9998190589812
30
0
0
VERTEX
8
0
10
7.94265577097221
20
48.0906500447061
30
0
0
VERTEX
8
0
10
8.55362929181623
20
50.131199873465
30
0
0
VERTEX
8
0
10
9.16460281266025
20
52.1635577828394
30
0
0
VERTEX
8
0
10
9.77557633350426
20
54.1657949884807
30
0
0
VERTEX
8
0
10
10.3865498543483
20
56.1385556559053
30
0
0
VERTEX
8
0
10
10.9975233751923
20
58.1258546978243
30
0
0
VERTEX
8
0
10
11.6084968960363
20
58.6458177443912
30
0
0
VERTEX
8
0
10
12.2194704168803
20
59.6376185204789
30
0
0
VERTEX
8
0
10
12.8304439377243
20
60.5918783239204
30
0
0
VERTEX
8
0
10
13.4414174585684
20
61.5045613348487
30
0
0
VERTEX
8
0
10
14.0523909794124
20
62.4128400979583
30
0
0
VERTEX
8
0
10
14.6633645002564
20
63.3227426575778
30
0
0
VERTEX
8
0
10
15.2743380211004
20
63.9173047526168
30
0
0
VERTEX
8
0
10
15.8853115419444
20
64.5626313440489
30
0
0
VERTEX
8
0
10
16.4962850627884
20
65.1655823994725
30
0
0
VERTEX
8
0
10
17.1072585836325
20
65.7769783085049
30
0
0
VERTEX
8
0
10
17.7182321044765
20
66.0763580540968
30
0
0
VERTEX
8
0
10
18.3292056253205
20
66.4396840232544
30
0
0
VERTEX
8
0
10
18.9401791461645
20
66.8024159855039
30
0
0
VERTEX
8
0
10
19.5511526670085
20
67.1659556876825
30
0
0
VERTEX
8
0
10
20.1621261878526
20
67.3627851981932
30
0
0
VERTEX
8
0
10
20.7730997086966
20
67.5480753463333
30
0
0
VERTEX
8
0
10
21.3840732295406
20
67.7411922853311
30
0
0
VERTEX
8
0
10
21.9950467503846
20
67.9408289781556
30
0
0
VERTEX
8
0
10
22.6060202712286
20
68.0407154614912
30
0
0
VERTEX
8
0
10
23.2169937920726
20
68.076728826822
30
0
0
VERTEX
8
0
10
23.8279673129166
20
68.1149624814728
30
0
0
VERTEX
8
0
10
24.4389408337607
20
68.1416840093989
30
0
0
VERTEX
8
0
10
25.0499143546047
20
68.1729053173737
30
0
0
VERTEX
8
0
10
25.6608878754487
20
68.1596031851608
30
0
0
VERTEX
8
0
10
26.2718613962927
20
68.1584812572824
30
0
0
VERTEX
8
0
10
26.8828349171367
20
68.1058352003718
30
0
0
VERTEX
8
0
10
27.4938084379807
20
68.0494392867263
30
0
0
VERTEX
8
0
10
28.1047819588248
20
67.9843408174423
30
0
0
VERTEX
8
0
10
28.7157554796688
20
67.919389144824
30
0
0
VERTEX
8
0
10
29.3267290005128
20
67.8695211004612
30
0
0
VERTEX
8
0
10
29.9377025213568
20
67.8301573805826
30
0
0
VERTEX
8
0
10
30.5486760422008
20
67.7172423202646
30
0
0
VERTEX
8
0
10
31.1596495630448
20
67.5632876478227
30
0
0
VERTEX
8
0
10
31.7706230838888
20
67.4106877778189
30
0
0
VERTEX
8
0
10
32.3815966047328
20
67.3754140691559
30
0
0
VERTEX
8
0
10
32.9925701255769
20
67.3197595725443
30
0
0
VERTEX
8
0
10
33.6035436464209
20
67.1664550542011
30
0
0
VERTEX
8
0
10
34.2145171672649
20
67.0428086117733
30
0
0
VERTEX
8
0
10
34.8254906881089
20
66.9251832033538
30
0
0
VERTEX
8
0
10
35.4364642089529
20
66.81277750679
30
0
0
VERTEX
8
0
10
36.0474377297969
20
66.7078820327436
30
0
0
VERTEX
8
0
10
36.6584112506409
20
66.6082176666937
30
0
0
VERTEX
8
0
10
37.269384771485
20
66.4856598493828
30
0
0
VERTEX
8
0
10
37.880358292329
20
66.3508518478199
30
0
0
VERTEX
8
0
10
38.491331813173
20
66.2227775316803
30
0
0
VERTEX
8
0
10
39.102305334017
20
66.0998770333734
30
0
0
VERTEX
8
0
10
39.713278854861
20
65.9806543387607
30
0
0
VERTEX
8
0
10
40.324252375705
20
65.811105095792
30
0
0
VERTEX
8
0
10
40.935225896549
20
65.6567879887646
30
0
0
VERTEX
8
0
10
41.5461994173931
20
65.5566354525911
30
0
0
VERTEX
8
0
10
42.1571729382371
20
65.4455082287962
30
0
0
VERTEX
8
0
10
42.7681464590811
20
65.251633468138
30
0
0
VERTEX
8
0
10
43.3791199799251
20
65.057650305699
30
0
0
VERTEX
8
0
10
43.9900935007691
20
64.885067770559
30
0
0
VERTEX
8
0
10
44.6010670216131
20
64.7127326075563
30
0
0
VERTEX
8
0
10
45.2120405424571
20
64.5387633835403
30
0
0
VERTEX
8
0
10
45.8230140633012
20
64.3643188651119
30
0
0
VERTEX
8
0
10
46.4339875841452
20
64.1937004046309
30
0
0
VERTEX
8
0
10
47.0449611049892
20
64.025109869709
30
0
0
VERTEX
8
0
10
47.6559346258332
20
63.8572278907897
30
0
0
VERTEX
8
0
10
48.2669081466772
20
63.7214191431006
30
0
0
VERTEX
8
0
10
48.8778816675212
20
63.5786669193644
30
0
0
VERTEX
8
0
10
49.4888551883653
20
63.4369512736704
30
0
0
VERTEX
8
0
10
50.0998287092093
20
63.2962791684818
30
0
0
VERTEX
8
0
10
50.7108022300533
20
63.1773327299503
30
0
0
VERTEX
8
0
10
51.3217757508973
20
63.059321178886
30
0
0
VERTEX
8
0
10
51.9327492717413
20
62.9748017517556
30
0
0
VERTEX
8
0
10
52.5437227925853
20
62.8897753262558
30
0
0
VERTEX
8
0
10
53.1546963134293
20
62.8351518117053
30
0
0
VERTEX
8
0
10
53.7656698342733
20
62.7949238529033
30
0
0
VERTEX
8
0
10
54.3766433551174
20
62.7613314071284
30
0
0
VERTEX
8
0
10
54.9876168759614
20
62.7313310164865
30
0
0
VERTEX
8
0
10
55.5985903968054
20
62.7032063737518
30
0
0
VERTEX
8
0
10
56.2095639176494
20
62.6656940495995
30
0
0
VERTEX
8
0
10
56.8205374384934
20
62.6329780327747
30
0
0
VERTEX
8
0
10
57.4315109593374
20
62.5990329241429
30
0
0
VERTEX
8
0
10
58.0424844801815
20
62.5677217455772
30
0
0
VERTEX
8
0
10
58.6534580010255
20
62.512958060089
30
0
0
VERTEX
8
0
10
59.2644315218695
20
62.460871382756
30
0
0
VERTEX
8
0
10
59.8754050427135
20
62.4101992705611
30
0
0
VERTEX
8
0
10
60.4863785635575
20
62.3609451717684
30
0
0
VERTEX
8
0
10
61.0973520844015
20
62.2687283006436
30
0
0
VERTEX
8
0
10
61.7083256052455
20
62.1609554141717
30
0
0
VERTEX
8
0
10
62.3192991260895
20
62.0334050347935
30
0
0
VERTEX
8
0
10
62.9302726469336
20
61.9004267788715
30
0
0
VERTEX
8
0
10
63.5412461677776
20
61.7683123200656
30
0
0
VERTEX
8
0
10
64.1522196886216
20
61.5078784511159
30
0
0
VERTEX
8
0
10
64.7631932094656
20
61.2849121790094
30
0
0
VERTEX
8
0
10
65.3741667303096
20
61.0473980686605
30
0
0
VERTEX
8
0
10
65.9851402511536
20
60.8146218594639
30
0
0
VERTEX
8
0
10
66.5961137719977
20
60.6031142146376
30
0
0
VERTEX
8
0
10
67.2070872928417
20
60.3902837789391
30
0
0
VERTEX
8
0
10
67.8180608136857
20
60.1505216181081
30
0
0
VERTEX
8
0
10
68.4290343345297
20
59.9141181466252
30
0
0
VERTEX
8
0
10
69.0400078553737
20
59.683916838869
30
0
0
VERTEX
8
0
10
69.6509813762177
20
59.4559970321944
30
0
0
VERTEX
8
0
10
70.2619548970617
20
59.2301771602795
30
0
0
VERTEX
8
0
10
70.8729284179057
20
59.0052579604765
30
0
0
VERTEX
8
0
10
71.4839019387498
20
58.7808375054925
30
0
0
VERTEX
8
0
10
72.0948754595938
20
58.4925343567499
30
0
0
VERTEX
8
0
10
72.7058489804378
20
58.2240632906524
30
0
0
VERTEX
8
0
10
73.3168225012818
20
58.0028685301428
30
0
0
VERTEX
8
0
10
73.9277960221258
20
57.7666429596319
30
0
0
VERTEX
8
0
10
74.5387695429698
20
57.4785339194654
30
0
0
VERTEX
8
0
10
75.1497430638138
20
57.1958925134369
30
0
0
VERTEX
8
0
10
75.7607165846579
20
56.9316087399249
30
0
0
VERTEX
8
0
10
76.3716901055019
20
56.6649059842433
30
0
0
VERTEX
8
0
10
76.9826636263459
20
56.372287739845
30
0
0
VERTEX
8
0
10
77.5936371471899
20
56.0729742482752
30
0
0
VERTEX
8
0
10
78.2046106680339
20
55.7802767153035
30
0
0
VERTEX
8
0
10
78.8155841888779
20
55.4889501443697
30
0
0
VERTEX
8
0
10
79.4265577097219
20
55.1976388534501
30
0
0
VERTEX
8
0
10
80.037531230566
20
54.8448793745778
30
0
0
VERTEX
8
0
10
80.64850475141
20
54.516029555235
30
0
0
VERTEX
8
0
10
81.259478272254
20
54.1912650102257
30
0
0
VERTEX
8
0
10
81.870451793098
20
53.8666531749369
30
0
0
VERTEX
8
0
10
82.481425313942
20
53.6532980454437
30
0
0
VERTEX
8
0
10
83.092398834786
20
53.4255345711327
30
0
0
VERTEX
8
0
10
83.70337235563
20
53.2214791886938
30
0
0
VERTEX
8
0
10
84.3143458764741
20
53.0137436629067
30
0
0
VERTEX
8
0
10
84.9253193973181
20
52.8876191675173
30
0
0
VERTEX
8
0
10
85.5362929181621
20
52.779006194622
30
0
0
VERTEX
8
0
10
86.1472664390061
20
52.6725224971057
30
0
0
VERTEX
8
0
10
86.7582399598501
20
52.5667251956729
30
0
0
VERTEX
8
0
10
87.3692134806941
20
52.467657543157
30
0
0
VERTEX
8
0
10
87.9801870015381
20
52.375297267323
30
0
0
VERTEX
8
0
10
88.5911605223822
20
52.2876930582048
30
0
0
VERTEX
8
0
10
89.2021340432262
20
52.2042041869019
30
0
0
VERTEX
8
0
10
89.8131075640702
20
52.1211937583052
30
0
0
VERTEX
8
0
10
90.4240810849142
20
52.0613117414318
30
0
0
VERTEX
8
0
10
91.0350546057582
20
51.998607008937
30
0
0
VERTEX
8
0
10
91.6460281266022
20
51.9436272435019
30
0
0
VERTEX
8
0
10
92.2570016474462
20
51.8879911882512
30
0
0
VERTEX
8
0
10
92.8679751682902
20
51.7925296525539
30
0
0
VERTEX
8
0
10
93.4789486891343
20
51.6907105466203
30
0
0
VERTEX
8
0
10
94.0899222099783
20
51.5960606253305
30
0
0
VERTEX
8
0
10
94.7008957308223
20
51.5024917155881
30
0
0
VERTEX
8
0
10
95.3118692516663
20
51.3863339005601
30
0
0
VERTEX
8
0
10
95.9228427725103
20
51.2505034147447
30
0
0
VERTEX
8
0
10
96.5338162933543
20
51.1147592440884
30
0
0
VERTEX
8
0
10
97.1447898141983
20
50.9791020780963
30
0
0
VERTEX
8
0
10
97.7557633350424
20
50.8435326131875
30
0
0
VERTEX
8
0
10
98.3667368558864
20
50.7240909280969
30
0
0
VERTEX
8
0
10
98.9777103767304
20
50.6019708550821
30
0
0
VERTEX
8
0
10
99.5886838975744
20
50.4966049660183
30
0
0
VERTEX
8
0
10
100.199657418418
20
50.3880303150137
30
0
0
VERTEX
8
0
10
100.810630939262
20
50.2899308078865
30
0
0
VERTEX
8
0
10
101.421604460107
20
50.1932491347361
30
0
0
VERTEX
8
0
10
102.032577980951
20
50.0967116029753
30
0
0
VERTEX
8
0
10
102.643551501795
20
50.0003190475022
30
0
0
VERTEX
8
0
10
103.254525022639
20
49.9040723084066
30
0
0
VERTEX
8
0
10
103.865498543483
20
49.807972230996
30
0
0
VERTEX
8
0
10
104.476472064327
20
49.7165534051692
30
0
0
VERTEX
8
0
10
105.087445585171
20
49.6282513991672
30
0
0
VERTEX
8
0
10
105.698419106015
20
49.5400760395729
30
0
0
VERTEX
8
0
10
106.309392626859
20
49.4077919211037
30
0
0
VERTEX
8
0
10
106.920366147703
20
49.284235355291
30
0
0
VERTEX
8
0
10
107.531339668547
20
49.1607116256645
30
0
0
VERTEX
8
0
10
108.142313189391
20
49.0372209803652
30
0
0
VERTEX
8
0
10
108.753286710235
20
49.0172089048256
30
0
0
VERTEX
8
0
10
109.364260231079
20
49.0064303963313
30
0
0
VERTEX
8
0
10
109.975233751923
20
49.0015223846081
30
0
0
VERTEX
8
0
10
110.586207272767
20
48.9973657289215
30
0
0
VERTEX
8
0
10
111.197180793611
20
49.0206384403097
30
0
0
VERTEX
8
0
10
111.808154314455
20
49.0626767725736
30
0
0
VERTEX
8
0
10
112.419127835299
20
49.1183383112532
30
0
0
VERTEX
8
0
10
113.030101356143
20
49.1820771636299
30
0
0
VERTEX
8
0
10
113.641074876987
20
49.2465264346909
30
0
0
VERTEX
8
0
10
114.252048397831
20
49.2284853517608
30
0
0
VERTEX
8
0
10
114.863021918675
20
49.2287247951435
30
0
0
VERTEX
8
0
10
115.473995439519
20
49.1950453509974
30
0
0
VERTEX
8
0
10
116.084968960363
20
49.1699543328195
30
0
0
VERTEX
8
0
10
116.695942481207
20
49.1096353881052
30
0
0
VERTEX
8
0
10
117.306916002051
20
49.0478510815883
30
0
0
VERTEX
8
0
10
117.917889522895
20
48.9479494264934
30
0
0
VERTEX
8
0
10
118.528863043739
20
48.8497127392076
30
0
0
VERTEX
8
0
10
119.139836564583
20
48.676991789699
30
0
0
VERTEX
8
0
10
119.750810085427
20
48.460677576711
30
0
0
VERTEX
8
0
10
120.361783606271
20
48.3306822313267
30
0
0
VERTEX
8
0
10
120.972757127115
20
48.2439949315702
30
0
0
VERTEX
8
0
10
121.583730647959
20
48.157526051926
30
0
0
VERTEX
8
0
10
122.194704168803
20
48.0129574957919
30
0
0
VERTEX
8
0
10
122.805677689647
20
47.8826460921772
30
0
0
VERTEX
8
0
10
123.416651210491
20
47.7105680688248
30
0
0
VERTEX
8
0
10
124.027624731335
20
47.5155052701705
30
0
0
VERTEX
8
0
10
124.638598252179
20
47.4391293931878
30
0
0
VERTEX
8
0
10
125.249571773023
20
47.3644312483044
30
0
0
VERTEX
8
0
10
125.860545293868
20
47.2395777352195
30
0
0
VERTEX
8
0
10
126.471518814712
20
47.0852994615084
30
0
0
VERTEX
8
0
10
127.082492335556
20
46.9644648717358
30
0
0
VERTEX
8
0
10
127.6934658564
20
46.8609834892738
30
0
0
VERTEX
8
0
10
128.304439377244
20
46.7581073032269
30
0
0
VERTEX
8
0
10
128.915412898088
20
46.7119948698493
30
0
0
VERTEX
8
0
10
129.526386418932
20
46.7179503477028
30
0
0
VERTEX
8
0
10
130.137359939776
20
46.7094505426052
30
0
0
VERTEX
8
0
10
130.74833346062
20
46.704690621057
30
0
0
VERTEX
8
0
10
131.359306981464
20
46.6999805468716
30
0
0
VERTEX
8
0
10
131.970280502308
20
46.6763841716406
30
0
0
VERTEX
8
0
10
132.581254023152
20
46.6596946617325
30
0
0
VERTEX
8
0
10
133.192227543996
20
46.6430383798773
30
0
0
VERTEX
8
0
10
133.80320106484
20
46.6264816167011
30
0
0
VERTEX
8
0
10
134.414174585684
20
46.5932274872732
30
0
0
VERTEX
8
0
10
135.025148106528
20
46.5132903844851
30
0
0
VERTEX
8
0
10
135.636121627372
20
46.4139457556069
30
0
0
VERTEX
8
0
10
136.247095148216
20
46.3146171702368
30
0
0
VERTEX
8
0
10
136.85806866906
20
46.2220294446847
30
0
0
VERTEX
8
0
10
137.469042189904
20
46.1349106512801
30
0
0
VERTEX
8
0
10
138.080015710748
20
46.0001268304967
30
0
0
VERTEX
8
0
10
138.690989231592
20
45.8782989539682
30
0
0
VERTEX
8
0
10
139.301962752436
20
45.756478596064
30
0
0
VERTEX
8
0
10
139.91293627328
20
45.636809402234
30
0
0
VERTEX
8
0
10
140.523909794124
20
45.5186652214751
30
0
0
VERTEX
8
0
10
141.134883314968
20
45.4004371747713
30
0
0
VERTEX
8
0
10
141.745856835812
20
45.2822169591223
30
0
0
VERTEX
8
0
10
142.356830356656
20
45.1608375057822
30
0
0
VERTEX
8
0
10
142.9678038775
20
45.036486844881
30
0
0
VERTEX
8
0
10
143.578777398344
20
44.9111514565392
30
0
0
VERTEX
8
0
10
144.189750919188
20
44.7858240206331
30
0
0
VERTEX
8
0
10
144.800724440032
20
44.6605046041115
30
0
0
VERTEX
8
0
10
145.411697960876
20
44.5351932746727
30
0
0
VERTEX
8
0
10
146.02267148172
20
44.4788695055872
30
0
0
VERTEX
8
0
10
146.633645002564
20
44.4026864854639
30
0
0
VERTEX
8
0
10
147.244618523408
20
44.3265215544593
30
0
0
VERTEX
8
0
10
147.855592044252
20
44.2569782771954
30
0
0
VERTEX
8
0
10
148.466565565096
20
44.2393986744188
30
0
0
VERTEX
8
0
10
149.07753908594
20
44.2178846937232
30
0
0
VERTEX
8
0
10
149.688512606784
20
44.1964820295065
30
0
0
VERTEX
8
0
10
150.299486127629
20
44.1784450570779
30
0
0
VERTEX
8
0
10
150.910459648473
20
44.1649071227482
30
0
0
VERTEX
8
0
10
151.521433169317
20
44.1528089626017
30
0
0
VERTEX
8
0
10
152.132406690161
20
44.140827553175
30
0
0
VERTEX
8
0
10
152.743380211005
20
44.1260850524842
30
0
0
SEQEND
8
0
0
POLYLINE
8
0
62
3
70
0
10
0
20
0
30
0
0
VERTEX
8
0
10
6.10973520844016
20
44.7531490404532
30
0
0
VERTEX
8
0
10
6.72070872928418
20
47.6516739704622
30
0
0
VERTEX
8
0
10
7.3316822501282
20
50.466706548161
30
0
0
VERTEX
8
0
10
7.94265577097221
20
53.4134640154652
30
0
0
VERTEX
8
0
10
8.55362929181623
20
55.8458338620157
30
0
0
VERTEX
8
0
10
9.16460281266025
20
58.2888535924205
30
0
0
VERTEX
8
0
10
9.77557633350426
20
60.8089400262061
30
0
0
VERTEX
8
0
10
10.3865498543483
20
62.8322456540993
30
0
0
VERTEX
8
0
10
10.9975233751923
20
64.9802487458258
30
0
0
VERTEX
8
0
10
11.6084968960363
20
66.9680777463211
30
0
0
VERTEX
8
0
10
12.2194704168803
20
68.8446543652546
30
0
0
VERTEX
8
0
10
12.8304439377243
20
70.7055769946882
30
0
0
VERTEX
8
0
10
13.4414174585684
20
72.3823983934219
30
0
0
VERTEX
8
0
10
14.0523909794124
20
73.9906487150348
30
0
0
VERTEX
8
0
10
14.6633645002564
20
75.5950117627271
30
0
0
VERTEX
8
0
10
15.2743380211004
20
77.0026962787931
30
0
0
VERTEX
8
0
10
15.8853115419444
20
78.3791102815869
30
0
0
VERTEX
8
0
10
16.4962850627884
20
79.7561136881588
30
0
0
VERTEX
8
0
10
17.1072585836325
20
80.9241275218882
30
0
0
VERTEX
8
0
10
17.7182321044765
20
82.1044704319104
30
0
0
VERTEX
8
0
10
18.3292056253205
20
83.2053176457467
30
0
0
VERTEX
8
0
10
18.9401791461645
20
84.2425520057891
30
0
0
VERTEX
8
0
10
19.5511526670085
20
85.2498664003905
30
0
0
VERTEX
8
0
10
20.1621261878526
20
86.1646961672438
30
0
0
VERTEX
8
0
10
20.7730997086966
20
87.0350573784278
30
0
0
VERTEX
8
0
10
21.3840732295406
20
87.88948215522
30
0
0
VERTEX
8
0
10
21.9950467503846
20
88.6417946431221
30
0
0
VERTEX
8
0
10
22.6060202712286
20
89.3695164951657
30
0
0
VERTEX
8
0
10
23.2169937920726
20
90.0901913339537
30
0
0
VERTEX
8
0
10
23.8279673129166
20
90.7019933431548
30
0
0
VERTEX
8
0
10
24.4389408337607
20
91.3078142996094
30
0
0
VERTEX
8
0
10
25.0499143546047
20
91.8717462263319
30
0
0
VERTEX
8
0
10
25.6608878754487
20
92.4003983960579
30
0
0
VERTEX
8
0
10
26.2718613962927
20
92.9065224286748
30
0
0
VERTEX
8
0
10
26.8828349171367
20
93.3636636534692
30
0
0
VERTEX
8
0
10
27.4938084379807
20
93.7960110056976
30
0
0
VERTEX
8
0
10
28.1047819588248
20
94.217410900644
30
0
0
VERTEX
8
0
10
28.7157554796688
20
94.5837742030216
30
0
0
VERTEX
8
0
10
29.3267290005128
20
94.9371642455728
30
0
0
VERTEX
8
0
10
29.9377025213568
20
95.2878260212906
30
0
0
VERTEX
8
0
10
30.5486760422008
20
95.5811857415664
30
0
0
VERTEX
8
0
10
31.1596495630448
20
95.8681010091766
30
0
0
VERTEX
8
0
10
31.7706230838888
20
96.1366659444401
30
0
0
VERTEX
8
0
10
32.3815966047328
20
96.3893867636698
30
0
0
VERTEX
8
0
10
32.9925701255769
20
96.6291541922679
30
0
0
VERTEX
8
0
10
33.6035436464209
20
96.8463248778756
30
0
0
VERTEX
8
0
10
34.2145171672649
20
97.0535093811988
30
0
0
VERTEX
8
0
10
34.8254906881089
20
97.2568965823725
30
0
0
VERTEX
8
0
10
35.4364642089529
20
97.4336733603004
30
0
0
VERTEX
8
0
10
36.0474377297969
20
97.6075001484291
30
0
0
VERTEX
8
0
10
36.6584112506409
20
97.7842846996877
30
0
0
VERTEX
8
0
10
37.269384771485
20
97.9347530286124
30
0
0
VERTEX
8
0
10
37.880358292329
20
98.0818471479043
30
0
0
VERTEX
8
0
10
38.491331813173
20
98.2260185936547
30
0
0
VERTEX
8
0
10
39.102305334017
20
98.3675017539567
30
0
0
VERTEX
8
0
10
39.713278854861
20
98.50378541248
30
0
0
VERTEX
8
0
10
40.324252375705
20
98.63429128754
30
0
0
VERTEX
8
0
10
40.935225896549
20
98.7650137711237
30
0
0
VERTEX
8
0
10
41.5461994173931
20
98.8976633866388
30
0
0
VERTEX
8
0
10
42.1571729382371
20
99.0217223092404
30
0
0
VERTEX
8
0
10
42.7681464590811
20
99.1500009553908
30
0
0
VERTEX
8
0
10
43.3791199799251
20
99.2857390472754
30
0
0
VERTEX
8
0
10
43.9900935007691
20
99.4149275768154
30
0
0
VERTEX
8
0
10
44.6010670216131
20
99.5443602261538
30
0
0
VERTEX
8
0
10
45.2120405424571
20
99.6818504094435
30
0
0
VERTEX
8
0
10
45.8230140633012
20
99.8274908087873
30
0
0
VERTEX
8
0
10
46.4339875841452
20
99.9767950848702
30
0
0
VERTEX
8
0
10
47.0449611049892
20
100.13173278212
30
0
0
VERTEX
8
0
10
47.6559346258332
20
100.291636292316
30
0
0
VERTEX
8
0
10
48.2669081466772
20
100.453775940918
30
0
0
VERTEX
8
0
10
48.8778816675212
20
100.613755271125
30
0
0
VERTEX
8
0
10
49.4888551883653
20
100.776374800029
30
0
0
VERTEX
8
0
10
50.0998287092093
20
100.942042274903
30
0
0
VERTEX
8
0
10
50.7108022300533
20
101.105137970204
30
0
0
VERTEX
8
0
10
51.3217757508973
20
101.261598179579
30
0
0
VERTEX
8
0
10
51.9327492717413
20
101.4216143235
30
0
0
VERTEX
8
0
10
52.5437227925853
20
101.582763401293
30
0
0
VERTEX
8
0
10
53.1546963134293
20
101.737500264337
30
0
0
VERTEX
8
0
10
53.7656698342733
20
101.892631128984
30
0
0
VERTEX
8
0
10
54.3766433551174
20
102.047180766869
30
0
0
VERTEX
8
0
10
54.9876168759614
20
102.198194579995
30
0
0
VERTEX
8
0
10
55.5985903968054
20
102.346726239355
30
0
0
VERTEX
8
0
10
56.2095639176494
20
102.494010880802
30
0
0
VERTEX
8
0
10
56.8205374384934
20
102.639944342344
30
0
0
VERTEX
8
0
10
57.4315109593374
20
102.785152156681
30
0
0
VERTEX
8
0
10
58.0424844801815
20
102.920440456659
30
0
0
VERTEX
8
0
10
58.6534580010255
20
103.057948970259
30
0
0
VERTEX
8
0
10
59.2644315218695
20
103.195276506332
30
0
0
VERTEX
8
0
10
59.8754050427135
20
103.324691355328
30
0
0
VERTEX
8
0
10
60.4863785635575
20
103.454535818965
30
0
0
VERTEX
8
0
10
61.0973520844015
20
103.582695404534
30
0
0
VERTEX
8
0
10
61.7083256052455
20
103.705703074566
30
0
0
VERTEX
8
0
10
62.3192991260895
20
103.827413359208
30
0
0
VERTEX
8
0
10
62.9302726469336
20
103.946677913614
30
0
0
VERTEX
8
0
10
63.5412461677776
20
104.062925998273
30
0
0
VERTEX
8
0
10
64.1522196886216
20
104.180272187069
30
0
0
VERTEX
8
0
10
64.7631932094656
20
104.286907171115
30
0
0
VERTEX
8
0
10
65.3741667303096
20
104.395379835286
30
0
0
VERTEX
8
0
10
65.9851402511536
20
104.503357621378
30
0
0
VERTEX
8
0
10
66.5961137719977
20
104.60336565643
30
0
0
VERTEX
8
0
10
67.2070872928417
20
104.704138178474
30
0
0
VERTEX
8
0
10
67.8180608136857
20
104.802968337237
30
0
0
VERTEX
8
0
10
68.4290343345297
20
104.896250674506
30
0
0
VERTEX
8
0
10
69.0400078553737
20
104.989223796852
30
0
0
VERTEX
8
0
10
69.6509813762177
20
105.079387569479
30
0
0
VERTEX
8
0
10
70.2619548970617
20
105.165910485535
30
0
0
VERTEX
8
0
10
70.8729284179057
20
105.254670768296
30
0
0
VERTEX
8
0
10
71.4839019387498
20
105.333017768212
30
0
0
VERTEX
8
0
10
72.0948754595938
20
105.41297906203
30
0
0
VERTEX
8
0
10
72.7058489804378
20
105.492380179549
30
0
0
VERTEX
8
0
10
73.3168225012818
20
105.564338684733
30
0
0
VERTEX
8
0
10
73.9277960221258
20
105.637266280862
30
0
0
VERTEX
8
0
10
74.5387695429698
20
105.708266652152
30
0
0
VERTEX
8
0
10
75.1497430638138
20
105.773874532134
30
0
0
VERTEX
8
0
10
75.7607165846579
20
105.839779198
30
0
0
VERTEX
8
0
10
76.3716901055019
20
105.902854240504
30
0
0
VERTEX
8
0
10
76.9826636263459
20
105.962168232498
30
0
0
VERTEX
8
0
10
77.5936371471899
20
106.024203742465
30
0
0
VERTEX
8
0
10
78.2046106680339
20
106.076673395868
30
0
0
VERTEX
8
0
10
78.8155841888779
20
106.13048926853
30
0
0
VERTEX
8
0
10
79.4265577097219
20
106.183702388673
30
0
0
VERTEX
8
0
10
80.037531230566
20
106.230244060188
30
0
0
VERTEX
8
0
10
80.64850475141
20
106.277743518982
30
0
0
VERTEX
8
0
10
81.259478272254
20
106.323394844604
30
0
0
VERTEX
8
0
10
81.870451793098
20
106.364063276728
30
0
0
VERTEX
8
0
10
82.481425313942
20
106.405263776545
30
0
0
VERTEX
8
0
10
83.092398834786
20
106.443746867092
30
0
0
VERTEX
8
0
10
83.70337235563
20
106.47859714196
30
0
0
VERTEX
8
0
10
84.3143458764741
20
106.516119986701
30
0
0
VERTEX
8
0
10
84.9253193973181
20
106.545191624384
30
0
0
VERTEX
8
0
10
85.5362929181621
20
106.575243340435
30
0
0
VERTEX
8
0
10
86.1472664390061
20
106.60459708724
30
0
0
VERTEX
8
0
10
86.7582399598501
20
106.628130638654
30
0
0
VERTEX
8
0
10
87.3692134806941
20
106.652408976801
30
0
0
VERTEX
8
0
10
87.9801870015381
20
106.674907221095
30
0
0
VERTEX
8
0
10
88.5911605223822
20
106.692945835748
30
0
0
VERTEX
8
0
10
89.2021340432262
20
106.711461771976
30
0
0
VERTEX
8
0
10
89.8131075640702
20
106.727431156792
30
0
0
VERTEX
8
0
10
90.4240810849142
20
106.740045063524
30
0
0
VERTEX
8
0
10
91.0350546057582
20
106.754938823829
30
0
0
VERTEX
8
0
10
91.6460281266022
20
106.762679129578
30
0
0
VERTEX
8
0
10
92.2570016474462
20
106.771025374609
30
0
0
VERTEX
8
0
10
92.8679751682902
20
106.778533372659
30
0
0
VERTEX
8
0
10
93.4789486891343
20
106.781009721481
30
0
0
VERTEX
8
0
10
94.0899222099783
20
106.78374606011
30
0
0
VERTEX
8
0
10
94.7008957308223
20
106.784572216034
30
0
0
VERTEX
8
0
10
95.3118692516663
20
106.781293766634
30
0
0
VERTEX
8
0
10
95.9228427725103
20
106.777991216658
30
0
0
VERTEX
8
0
10
96.5338162933543
20
106.772054350241
30
0
0
VERTEX
8
0
10
97.1447898141983
20
106.762795989424
30
0
0
VERTEX
8
0
10
97.7557633350424
20
106.754830224121
30
0
0
VERTEX
8
0
10
98.3667368558864
20
106.740617063329
30
0
0
VERTEX
8
0
10
98.9777103767304
20
106.726170115132
30
0
0
VERTEX
8
0
10
99.5886838975744
20
106.710409343395
30
0
0
VERTEX
8
0
10
100.199657418418
20
106.690221759947
30
0
0
VERTEX
8
0
10
100.810630939262
20
106.669700530588
30
0
0
VERTEX
8
0
10
101.421604460107
20
106.647183088574
30
0
0
VERTEX
8
0
10
102.032577980951
20
106.621054533335
30
0
0
VERTEX
8
0
10
102.643551501795
20
106.594485550457
30
0
0
VERTEX
8
0
10
103.254525022639
20
106.56545825999
30
0
0
VERTEX
8
0
10
103.865498543483
20
106.533486339425
30
0
0
VERTEX
8
0
10
104.476472064327
20
106.502077671616
30
0
0
VERTEX
8
0
10
105.087445585171
20
106.465712993991
30
0
0
VERTEX
8
0
10
105.698419106015
20
106.428747838554
30
0
0
VERTEX
8
0
10
106.309392626859
20
106.3904205168
30
0
0
VERTEX
8
0
10
106.920366147703
20
106.348585669106
30
0
0
VERTEX
8
0
10
107.531339668547
20
106.306145802043
30
0
0
VERTEX
8
0
10
108.142313189391
20
106.261932930389
30
0
0
VERTEX
8
0
10
108.753286710235
20
106.214871458666
30
0
0
VERTEX
8
0
10
109.364260231079
20
106.167196504311
30
0
0
VERTEX
8
0
10
109.975233751923
20
106.117511283179
30
0
0
VERTEX
8
0
10
110.586207272767
20
106.065524638976
30
0
0
VERTEX
8
0
10
111.197180793611
20
106.013627564116
30
0
0
VERTEX
8
0
10
111.808154314455
20
105.95821592824
30
0
0
VERTEX
8
0
10
112.419127835299
20
105.902137558546
30
0
0
VERTEX
8
0
10
113.030101356143
20
105.844922580815
30
0
0
VERTEX
8
0
10
113.641074876987
20
105.785283219318
30
0
0
VERTEX
8
0
10
114.252048397831
20
105.725056615881
30
0
0
VERTEX
8
0
10
114.863021918675
20
105.663541678194
30
0
0
VERTEX
8
0
10
115.473995439519
20
105.600146096794
30
0
0
VERTEX
8
0
10
116.084968960363
20
105.536253832172
30
0
0
VERTEX
8
0
10
116.695942481207
20
105.471063590455
30
0
0
VERTEX
8
0
10
117.306916002051
20
105.404469403488
30
0
0
VERTEX
8
0
10
117.917889522895
20
105.337871110793
30
0
0
VERTEX
8
0
10
118.528863043739
20
105.269338289548
30
0
0
VERTEX
8
0
10
119.139836564583
20
105.200474293141
30
0
0
VERTEX
8
0
10
119.750810085427
20
105.131082774506
30
0
0
VERTEX
8
0
10
120.361783606271
20
105.060602781987
30
0
0
VERTEX
8
0
10
120.972757127115
20
104.990044990721
30
0
0
VERTEX
8
0
10
121.583730647959
20
104.919162124584
30
0
0
VERTEX
8
0
10
122.194704168803
20
104.847816069142
30
0
0
VERTEX
8
0
10
122.805677689647
20
104.776727717319
30
0
0
VERTEX
8
0
10
123.416651210491
20
104.705519732559
30
0
0
VERTEX
8
0
10
124.027624731335
20
104.634115774676
30
0
0
VERTEX
8
0
10
124.638598252179
20
104.563041285977
30
0
0
VERTEX
8
0
10
125.249571773023
20
104.491536659906
30
0
0
VERTEX
8
0
10
125.860545293868
20
104.420203589582
30
0
0
VERTEX
8
0
10
126.471518814712
20
104.348964847708
30
0
0
VERTEX
8
0
10
127.082492335556
20
104.277666904425
30
0
0
VERTEX
8
0
10
127.6934658564
20
104.20664047748
30
0
0
VERTEX
8
0
10
128.304439377244
20
104.13582873025
30
0
0
VERTEX
8
0
10
128.915412898088
20
104.065241280725
30
0
0
VERTEX
8
0
10
129.526386418932
20
103.995098167821
30
0
0
VERTEX
8
0
10
130.137359939776
20
103.925397901874
30
0
0
VERTEX
8
0
10
130.74833346062
20
103.856240090439
30
0
0
VERTEX
8
0
10
131.359306981464
20
103.787806388819
30
0
0
VERTEX
8
0
10
131.970280502308
20
103.720134573976
30
0
0
VERTEX
8
0
10
132.581254023152
20
103.653437660842
30
0
0
VERTEX
8
0
10
133.192227543996
20
103.587882920194
30
0
0
VERTEX
8
0
10
133.80320106484
20
103.523691053446
30
0
0
VERTEX
8
0
10
134.414174585684
20
103.461112411233
30
0
0
VERTEX
8
0
10
135.025148106528
20
103.400285793536
30
0
0
VERTEX
8
0
10
135.636121627372
20
103.341136299767
30
0
0
VERTEX
8
0
10
136.247095148216
20
103.283486209387
30
0
0
VERTEX
8
0
10
136.85806866906
20
103.227175370147
30
0
0
VERTEX
8
0
10
137.469042189904
20
103.172080531071
30
0
0
VERTEX
8
0
10
138.080015710748
20
103.118105956584
30
0
0
VERTEX
8
0
10
138.690989231592
20
103.065174567033
30
0
0
VERTEX
8
0
10
139.301962752436
20
103.01322228231
30
0
0
VERTEX
8
0
10
139.91293627328
20
102.962194492593
30
0
0
VERTEX
8
0
10
140.523909794124
20
102.91204376776
30
0
0
VERTEX
8
0
10
141.134883314968
20
102.86272829945
30
0
0
VERTEX
8
0
10
141.745856835812
20
102.81421079639
30
0
0
VERTEX
8
0
10
142.356830356656
20
102.76645767348
30
0
0
VERTEX
8
0
10
142.9678038775
20
102.719438439253
30
0
0
VERTEX
8
0
10
143.578777398344
20
102.67312522204
30
0
0
VERTEX
8
0
10
144.189750919188
20
102.627492395999
30
0
0
VERTEX
8
0
10
144.800724440032
20
102.582516280867
30
0
0
VERTEX
8
0
10
145.411697960876
20
102.53817489732
30
0
0
VERTEX
8
0
10
146.02267148172
20
102.494447765031
30
0
0
VERTEX
8
0
10
146.633645002564
20
102.451315734103
30
0
0
VERTEX
8
0
10
147.244618523408
20
102.408760842908
30
0
0
VERTEX
8
0
10
147.855592044252
20
102.366766197139
30
0
0
VERTEX
8
0
10
148.466565565096
20
102.325315866049
30
0
0
VERTEX
8
0
10
149.07753908594
20
102.28439479281
30
0
0
VERTEX
8
0
10
149.688512606784
20
102.243988716534
30
0
0
VERTEX
8
0
10
150.299486127629
20
102.204084104043
30
0
0
VERTEX
8
0
10
150.910459648473
20
102.164668089826
30
0
0
VERTEX
8
0
10
151.521433169317
20
102.125728422942
30
0
0
VERTEX
8
0
10
152.132406690161
20
102.08725341984
30
0
0
VERTEX
8
0
10
152.743380211005
20
102.049231922256
30
0
0
SEQEND
8
0
0
POLYLINE
8
0
62
4
70
0
10
0
20
0
30
0
0
VERTEX
8
0
10
6.10973520844016
20
47.8716864824559
30
0
0
VERTEX
8
0
10
6.72070872928418
20
50.3830726678192
30
0
0
VERTEX
8
0
10
7.3316822501282
20
53.09991242772
30
0
0
VERTEX
8
0
10
7.94265577097221
20
55.8198118748545
30
0
0
VERTEX
8
0
10
8.55362929181623
20
58.4757812901173
30
0
0
VERTEX
8
0
10
9.16460281266025
20
61.1001039942153
30
0
0
VERTEX
8
0
10
9.77557633350426
20
63.672334868924
30
0
0
VERTEX
8
0
10
10.3865498543483
20
66.2000284993812
30
0
0
VERTEX
8
0
10
10.9975233751923
20
68.7095556638165
30
0
0
VERTEX
8
0
10
11.6084968960363
20
69.9624055192262
30
0
0
VERTEX
8
0
10
12.2194704168803
20
71.5968678779873
30
0
0
VERTEX
8
0
10
12.8304439377243
20
73.1772179488226
30
0
0
VERTEX
8
0
10
13.4414174585684
20
74.7068954755533
30
0
0
VERTEX
8
0
10
14.0523909794124
20
76.2133776516447
30
0
0
VERTEX
8
0
10
14.6633645002564
20
77.6978556100046
30
0
0
VERTEX
8
0
10
15.2743380211004
20
78.9101178395882
30
0
0
VERTEX
8
0
10
15.8853115419444
20
80.1442446283614
30
0
0
VERTEX
8
0
10
16.4962850627884
20
81.3230512851236
30
0
0
VERTEX
8
0
10
17.1072585836325
20
82.4970265693897
30
0
0
VERTEX
8
0
10
17.7182321044765
20
83.3976135027745
30
0
0
VERTEX
8
0
10
18.3292056253205
20
84.3356535548723
30
0
0
VERTEX
8
0
10
18.9401791461645
20
85.2579474912699
30
0
0
VERTEX
8
0
10
19.5511526670085
20
86.1594610071779
30
0
0
VERTEX
8
0
10
20.1621261878526
20
86.9188074267879
30
0
0
VERTEX
8
0
10
20.7730997086966
20
87.6540362066557
30
0
0
VERTEX
8
0
10
21.3840732295406
20
88.3761483958962
30
0
0
VERTEX
8
0
10
21.9950467503846
20
89.0926756438859
30
0
0
VERTEX
8
0
10
22.6060202712286
20
89.7171427540696
30
0
0
VERTEX
8
0
10
23.2169937920726
20
90.2761191218863
30
0
0
VERTEX
8
0
10
23.8279673129166
20
90.8315352721491
30
0
0
VERTEX
8
0
10
24.4389408337607
20
91.3566180242218
30
0
0
VERTEX
8
0
10
25.0499143546047
20
91.8757007516384
30
0
0
VERTEX
8
0
10
25.6608878754487
20
92.350847827864
30
0
0
VERTEX
8
0
10
26.2718613962927
20
92.8175509363519
30
0
0
VERTEX
8
0
10
26.8828349171367
20
93.2390143563392
30
0
0
VERTEX
8
0
10
27.4938084379807
20
93.646516833924
30
0
0
VERTEX
8
0
10
28.1047819588248
20
94.0322858036605
30
0
0
VERTEX
8
0
10
28.7157554796688
20
94.4126842842257
30
0
0
VERTEX
8
0
10
29.3267290005128
20
94.7919887866076
30
0
0
VERTEX
8
0
10
29.9377025213568
20
95.1650363295609
30
0
0
VERTEX
8
0
10
30.5486760422008
20
95.4850693373068
30
0
0
VERTEX
8
0
10
31.1596495630448
20
95.7577543031776
30
0
0
VERTEX
8
0
10
31.7706230838888
20
96.0268261792956
30
0
0
VERTEX
8
0
10
32.3815966047328
20
96.371500710557
30
0
0
VERTEX
8
0
10
32.9925701255769
20
96.6877576867311
30
0
0
VERTEX
8
0
10
33.6035436464209
20
96.932919598095
30
0
0
VERTEX
8
0
10
34.2145171672649
20
97.1913908094417
30
0
0
VERTEX
8
0
10
34.8254906881089
20
97.4421757943994
30
0
0
VERTEX
8
0
10
35.4364642089529
20
97.6952690435681
30
0
0
VERTEX
8
0
10
36.0474377297969
20
97.9452930606597
30
0
0
VERTEX
8
0
10
36.6584112506409
20
98.1887874733403
30
0
0
VERTEX
8
0
10
37.269384771485
20
98.4203753812194
30
0
0
VERTEX
8
0
10
37.880358292329
20
98.6284129150909
30
0
0
VERTEX
8
0
10
38.491331813173
20
98.8398324705952
30
0
0
VERTEX
8
0
10
39.102305334017
20
99.0515842608217
30
0
0
VERTEX
8
0
10
39.713278854861
20
99.2552469319355
30
0
0
VERTEX
8
0
10
40.324252375705
20
99.4260201307823
30
0
0
VERTEX
8
0
10
40.935225896549
20
99.6029512732102
30
0
0
VERTEX
8
0
10
41.5461994173931
20
99.806823123089
30
0
0
VERTEX
8
0
10
42.1571729382371
20
100.005403474454
30
0
0
VERTEX
8
0
10
42.7681464590811
20
100.144818648813
30
0
0
VERTEX
8
0
10
43.3791199799251
20
100.277401744954
30
0
0
VERTEX
8
0
10
43.9900935007691
20
100.430834304771
30
0
0
VERTEX
8
0
10
44.6010670216131
20
100.571999932764
30
0
0
VERTEX
8
0
10
45.2120405424571
20
100.713826512328
30
0
0
VERTEX
8
0
10
45.8230140633012
20
100.854978577167
30
0
0
VERTEX
8
0
10
46.4339875841452
20
100.990676489417
30
0
0
VERTEX
8
0
10
47.0449611049892
20
101.130482288114
30
0
0
VERTEX
8
0
10
47.6559346258332
20
101.268670980467
30
0
0
VERTEX
8
0
10
48.2669081466772
20
101.420058635652
30
0
0
VERTEX
8
0
10
48.8778816675212
20
101.570455429283
30
0
0
VERTEX
8
0
10
49.4888551883653
20
101.717505728964
30
0
0
VERTEX
8
0
10
50.0998287092093
20
101.859059076115
30
0
0
VERTEX
8
0
10
50.7108022300533
20
102.021250747383
30
0
0
VERTEX
8
0
10
51.3217757508973
20
102.171954718108
30
0
0
VERTEX
8
0
10
51.9327492717413
20
102.344814599208
30
0
0
VERTEX
8
0
10
52.5437227925853
20
102.51654731588
30
0
0
VERTEX
8
0
10
53.1546963134293
20
102.698670678315
30
0
0
VERTEX
8
0
10
53.7656698342733
20
102.891622871087
30
0
0
VERTEX
8
0
10
54.3766433551174
20
103.085909657891
30
0
0
VERTEX
8
0
10
54.9876168759614
20
103.275015774263
30
0
0
VERTEX
8
0
10
55.5985903968054
20
103.467932083683
30
0
0
VERTEX
8
0
10
56.2095639176494
20
103.650787323327
30
0
0
VERTEX
8
0
10
56.8205374384934
20
103.830177701658
30
0
0
VERTEX
8
0
10
57.4315109593374
20
104.015120689839
30
0
0
VERTEX
8
0
10
58.0424844801815
20
104.189847918894
30
0
0
VERTEX
8
0
10
58.6534580010255
20
104.351584964484
30
0
0
VERTEX
8
0
10
59.2644315218695
20
104.513943972388
30
0
0
VERTEX
8
0
10
59.8754050427135
20
104.66926781823
30
0
0
VERTEX
8
0
10
60.4863785635575
20
104.827246641419
30
0
0
VERTEX
8
0
10
61.0973520844015
20
104.957143242923
30
0
0
VERTEX
8
0
10
61.7083256052455
20
105.071081901789
30
0
0
VERTEX
8
0
10
62.3192991260895
20
105.175995162707
30
0
0
VERTEX
8
0
10
62.9302726469336
20
105.273870403362
30
0
0
VERTEX
8
0
10
63.5412461677776
20
105.366589932241
30
0
0
VERTEX
8
0
10
64.1522196886216
20
105.390404286868
30
0
0
VERTEX
8
0
10
64.7631932094656
20
105.425899985112
30
0
0
VERTEX
8
0
10
65.3741667303096
20
105.454543295726
30
0
0
VERTEX
8
0
10
65.9851402511536
20
105.485613065661
30
0
0
VERTEX
8
0
10
66.5961137719977
20
105.522251035196
30
0
0
VERTEX
8
0
10
67.2070872928417
20
105.560276466034
30
0
0
VERTEX
8
0
10
67.8180608136857
20
105.581069757177
30
0
0
VERTEX
8
0
10
68.4290343345297
20
105.598091136345
30
0
0
VERTEX
8
0
10
69.0400078553737
20
105.621455397778
30
0
0
VERTEX
8
0
10
69.6509813762177
20
105.6429263951
30
0
0
VERTEX
8
0
10
70.2619548970617
20
105.660731787312
30
0
0
VERTEX
8
0
10
70.8729284179057
20
105.68480066251
30
0
0
VERTEX
8
0
10
71.4839019387498
20
105.699802709256
30
0
0
VERTEX
8
0
10
72.0948754595938
20
105.680794542118
30
0
0
VERTEX
8
0
10
72.7058489804378
20
105.672621348772
30
0
0
VERTEX
8
0
10
73.3168225012818
20
105.684540562959
30
0
0
VERTEX
8
0
10
73.9277960221258
20
105.690140460011
30
0
0
VERTEX
8
0
10
74.5387695429698
20
105.665852801231
30
0
0
VERTEX
8
0
10
75.1497430638138
20
105.639648716726
30
0
0
VERTEX
8
0
10
75.7607165846579
20
105.626022156004
30
0
0
VERTEX
8
0
10
76.3716901055019
20
105.608367151113
30
0
0
VERTEX
8
0
10
76.9826636263459
20
105.572705352267
30
0
0
VERTEX
8
0
10
77.5936371471899
20
105.538805797633
30
0
0
VERTEX
8
0
10
78.2046106680339
20
105.500470778966
30
0
0
VERTEX
8
0
10
78.8155841888779
20
105.464297549182
30
0
0
VERTEX
8
0
10
79.4265577097219
20
105.428011087817
30
0
0
VERTEX
8
0
10
80.037531230566
20
105.354683938254
30
0
0
VERTEX
8
0
10
80.64850475141
20
105.295968058286
30
0
0
VERTEX
8
0
10
81.259478272254
20
105.238295943458
30
0
0
VERTEX
8
0
10
81.870451793098
20
105.176627164748
30
0
0
VERTEX
8
0
10
82.481425313942
20
105.174148656208
30
0
0
VERTEX
8
0
10
83.092398834786
20
105.161697730899
30
0
0
VERTEX
8
0
10
83.70337235563
20
105.157428609323
30
0
0
VERTEX
8
0
10
84.3143458764741
20
105.155376863818
30
0
0
VERTEX
8
0
10
84.9253193973181
20
105.187113065854
30
0
0
VERTEX
8
0
10
85.5362929181621
20
105.228136974129
30
0
0
VERTEX
8
0
10
86.1472664390061
20
105.269358908898
30
0
0
VERTEX
8
0
10
86.7582399598501
20
105.30593971442
30
0
0
VERTEX
8
0
10
87.3692134806941
20
105.346692870887
30
0
0
VERTEX
8
0
10
87.9801870015381
20
105.388943712609
30
0
0
VERTEX
8
0
10
88.5911605223822
20
105.42924764316
30
0
0
VERTEX
8
0
10
89.2021340432262
20
105.472680840258
30
0
0
VERTEX
8
0
10
89.8131075640702
20
105.513651442542
30
0
0
VERTEX
8
0
10
90.4240810849142
20
105.562350787941
30
0
0
VERTEX
8
0
10
91.0350546057582
20
105.612424085339
30
0
0
VERTEX
8
0
10
91.6460281266022
20
105.659914293465
30
0
0
VERTEX
8
0
10
92.2570016474462
20
105.707149719675
30
0
0
VERTEX
8
0
10
92.8679751682902
20
105.733855933625
30
0
0
VERTEX
8
0
10
93.4789486891343
20
105.753237032514
30
0
0
VERTEX
8
0
10
94.0899222099783
20
105.776523155556
30
0
0
VERTEX
8
0
10
94.7008957308223
20
105.798622254377
30
0
0
VERTEX
8
0
10
95.3118692516663
20
105.806112210329
30
0
0
VERTEX
8
0
10
95.9228427725103
20
105.804718168456
30
0
0
VERTEX
8
0
10
96.5338162933543
20
105.801094437716
30
0
0
VERTEX
8
0
10
97.1447898141983
20
105.794497906821
30
0
0
VERTEX
8
0
10
97.7557633350424
20
105.789921229872
30
0
0
VERTEX
8
0
10
98.3667368558864
20
105.788021760468
30
0
0
VERTEX
8
0
10
98.9777103767304
20
105.784705251742
30
0
0
VERTEX
8
0
10
99.5886838975744
20
105.788420752112
30
0
0
VERTEX
8
0
10
100.199657418418
20
105.787152969815
30
0
0
VERTEX
8
0
10
100.810630939262
20
105.790895237996
30
0
0
VERTEX
8
0
10
101.421604460107
20
105.793740588487
30
0
0
VERTEX
8
0
10
102.032577980951
20
105.793678925525
30
0
0
VERTEX
8
0
10
102.643551501795
20
105.793843300656
30
0
0
VERTEX
8
0
10
103.254525022639
20
105.792058509522
30
0
0
VERTEX
8
0
10
103.865498543483
20
105.787811794147
30
0
0
VERTEX
8
0
10
104.476472064327
20
105.786834158241
30
0
0
VERTEX
8
0
10
105.087445585171
20
105.783351691353
30
0
0
VERTEX
8
0
10
105.698419106015
20
105.779508904556
30
0
0
VERTEX
8
0
10
106.309392626859
20
105.75403769155
30
0
0
VERTEX
8
0
10
106.920366147703
20
105.730013678887
30
0
0
VERTEX
8
0
10
107.531339668547
20
105.705791301796
30
0
0
VERTEX
8
0
10
108.142313189391
20
105.680282211437
30
0
0
VERTEX
8
0
10
108.753286710235
20
105.700489080506
30
0
0
VERTEX
8
0
10
109.364260231079
20
105.724731007452
30
0
0
VERTEX
8
0
10
109.975233751923
20
105.749994569351
30
0
0
VERTEX
8
0
10
110.586207272767
20
105.773599732255
30
0
0
VERTEX
8
0
10
111.197180793611
20
105.810251169885
30
0
0
VERTEX
8
0
10
111.808154314455
20
105.852712965907
30
0
0
VERTEX
8
0
10
112.419127835299
20
105.900908098403
30
0
0
VERTEX
8
0
10
113.030101356143
20
105.951901502601
30
0
0
VERTEX
8
0
10
113.641074876987
20
106.001261792838
30
0
0
VERTEX
8
0
10
114.252048397831
20
106.011831398988
30
0
0
VERTEX
8
0
10
114.863021918675
20
106.029762035104
30
0
0
VERTEX
8
0
10
115.473995439519
20
106.030304017663
30
0
0
VERTEX
8
0
10
116.084968960363
20
106.034447193995
30
0
0
VERTEX
8
0
10
116.695942481207
20
106.021059141457
30
0
0
VERTEX
8
0
10
117.306916002051
20
106.005673829547
30
0
0
VERTEX
8
0
10
117.917889522895
20
105.972657937421
30
0
0
VERTEX
8
0
10
118.528863043739
20
105.93871593111
30
0
0
VERTEX
8
0
10
119.139836564583
20
105.870062162152
30
0
0
VERTEX
8
0
10
119.750810085427
20
105.780953657131
30
0
0
VERTEX
8
0
10
120.361783606271
20
105.730444964222
30
0
0
VERTEX
8
0
10
120.972757127115
20
105.699401408139
30
0
0
VERTEX
8
0
10
121.583730647959
20
105.667786852862
30
0
0
VERTEX
8
0
10
122.194704168803
20
105.608870659436
30
0
0
VERTEX
8
0
10
122.805677689647
20
105.556232790175
30
0
0
VERTEX
8
0
10
123.416651210491
20
105.484126680619
30
0
0
VERTEX
8
0
10
124.027624731335
20
105.401154631911
30
0
0
VERTEX
8
0
10
124.638598252179
20
105.371646417079
30
0
0
VERTEX
8
0
10
125.249571773023
20
105.342081181629
30
0
0
VERTEX
8
0
10
125.860545293868
20
105.289676832617
30
0
0
VERTEX
8
0
10
126.471518814712
20
105.223790537897
30
0
0
VERTEX
8
0
10
127.082492335556
20
105.172456566192
30
0
0
VERTEX
8
0
10
127.6934658564
20
105.128659769599
30
0
0
VERTEX
8
0
10
128.304439377244
20
105.084830747344
30
0
0
VERTEX
8
0
10
128.915412898088
20
105.065904000198
30
0
0
VERTEX
8
0
10
129.526386418932
20
105.069885816846
30
0
0
VERTEX
8
0
10
130.137359939776
20
105.067139342376
30
0
0
VERTEX
8
0
10
130.74833346062
20
105.065788029781
30
0
0
VERTEX
8
0
10
131.359306981464
20
105.064288622478
30
0
0
VERTEX
8
0
10
131.970280502308
20
105.054180759419
30
0
0
VERTEX
8
0
10
132.581254023152
20
105.047013401952
30
0
0
VERTEX
8
0
10
133.192227543996
20
105.039754448708
30
0
0
VERTEX
8
0
10
133.80320106484
20
105.032465477877
30
0
0
VERTEX
8
0
10
134.414174585684
20
105.017730007829
30
0
0
VERTEX
8
0
10
135.025148106528
20
104.98229463241
30
0
0
VERTEX
8
0
10
135.636121627372
20
104.938318216671
30
0
0
VERTEX
8
0
10
136.247095148216
20
104.894423524589
30
0
0
VERTEX
8
0
10
136.85806866906
20
104.853575711718
30
0
0
VERTEX
8
0
10
137.469042189904
20
104.815200789142
30
0
0
VERTEX
8
0
10
138.080015710748
20
104.755944960245
30
0
0
VERTEX
8
0
10
138.690989231592
20
104.702505467099
30
0
0
VERTEX
8
0
10
139.301962752436
20
104.649183798574
30
0
0
VERTEX
8
0
10
139.91293627328
20
104.596915387669
30
0
0
VERTEX
8
0
10
140.523909794124
20
104.545421801936
30
0
0
VERTEX
8
0
10
141.134883314968
20
104.493999980193
30
0
0
VERTEX
8
0
10
141.745856835812
20
104.442690069403
30
0
0
VERTEX
8
0
10
142.356830356656
20
104.3901220443
30
0
0
VERTEX
8
0
10
142.9678038775
20
104.336386191632
30
0
0
VERTEX
8
0
10
143.578777398344
20
104.282346834699
30
0
0
VERTEX
8
0
10
144.189750919188
20
104.228433593753
30
0
0
VERTEX
8
0
10
144.800724440032
20
104.174646664599
30
0
0
VERTEX
8
0
10
145.411697960876
20
104.120986242989
30
0
0
VERTEX
8
0
10
146.02267148172
20
104.096907584689
30
0
0
VERTEX
8
0
10
146.633645002564
20
104.064378647675
30
0
0
VERTEX
8
0
10
147.244618523408
20
104.031903036127
30
0
0
VERTEX
8
0
10
147.855592044252
20
104.002290659525
30
0
0
VERTEX
8
0
10
148.466565565096
20
103.994811078604
30
0
0
VERTEX
8
0
10
149.07753908594
20
103.985660852772
30
0
0
VERTEX
8
0
10
149.688512606784
20
103.976561589546
30
0
0
VERTEX
8
0
10
150.299486127629
20
103.96889604041
30
0
0
VERTEX
8
0
10
150.910459648473
20
103.963144226025
30
0
0
VERTEX
8
0
10
151.521433169317
20
103.958005345852
30
0
0
VERTEX
8
0
10
152.132406690161
20
103.952917194658
30
0
0
VERTEX
8
0
10
152.743380211005
20
103.946658042764
30
0
0
SEQEND
8
0
0
POLYLINE
8
0
62
2
70
0
10
0
20
0
30
0
0
VERTEX
8
0
10
6.10973520844016
20
37.7707627382609
30
0
0
VERTEX
8
0
10
6.72070872928418
20
40.0850306479609
30
0
0
VERTEX
8
0
10
7.3316822501282
20
42.2455442905415
30
0
0
VERTEX
8
0
10
7.94265577097221
20
44.2626416701707
30
0
0
VERTEX
8
0
10
8.55362929181623
20
46.1454210045529
30
0
0
VERTEX
8
0
10
9.16460281266025
20
47.9019840826859
30
0
0
VERTEX
8
0
10
9.77557633350426
20
49.5396126218071
30
0
0
VERTEX
8
0
10
10.3865498543483
20
51.0649032925108
30
0
0
VERTEX
8
0
10
10.9975233751923
20
52.483874303052
30
0
0
VERTEX
8
0
10
11.6084968960363
20
53.8020509772338
30
0
0
VERTEX
8
0
10
12.2194704168803
20
55.0245352105918
30
0
0
VERTEX
8
0
10
12.8304439377243
20
56.1560623152068
30
0
0
VERTEX
8
0
10
13.4414174585684
20
57.2010478961295
30
0
0
VERTEX
8
0
10
14.0523909794124
20
58.1636267943816
30
0
0
VERTEX
8
0
10
14.6633645002564
20
59.0476856765652
30
0
0
VERTEX
8
0
10
15.2743380211004
20
59.8568905027624
30
0
0
VERTEX
8
0
10
15.8853115419444
20
60.5947098389134
30
0
0
VERTEX
8
0
10
16.4962850627884
20
61.2644347734368
30
0
0
VERTEX
8
0
10
17.1072585836325
20
61.8691960383664
30
0
0
VERTEX
8
0
10
17.7182321044765
20
62.4119788143974
30
0
0
VERTEX
8
0
10
18.3292056253205
20
62.8956356025508
30
0
0
VERTEX
8
0
10
18.9401791461645
20
63.3228974725356
30
0
0
VERTEX
8
0
10
19.5511526670085
20
63.6963839383035
30
0
0
VERTEX
8
0
10
20.1621261878526
20
64.0186116670355
30
0
0
VERTEX
8
0
10
20.7730997086966
20
64.2920021903602
30
0
0
VERTEX
8
0
10
21.3840732295406
20
64.5188887577783
30
0
0
VERTEX
8
0
10
21.9950467503846
20
64.7015224494343
30
0
0
VERTEX
8
0
10
22.6060202712286
20
64.8420776453669
30
0
0
VERTEX
8
0
10
23.2169937920726
20
64.9426569343439
30
0
0
VERTEX
8
0
10
23.8279673129166
20
65.005295531195
30
0
0
VERTEX
8
0
10
24.4389408337607
20
65.0319652627453
30
0
0
VERTEX
8
0
10
25.0499143546047
20
65.024578172544
30
0
0
VERTEX
8
0
10
25.6608878754487
20
64.9849897883869
30
0
0
VERTEX
8
0
10
26.2718613962927
20
64.9150020903997
30
0
0
VERTEX
8
0
10
26.8828349171367
20
64.8163662124208
30
0
0
VERTEX
8
0
10
27.4938084379807
20
64.6907849056032
30
0
0
VERTEX
8
0
10
28.1047819588248
20
64.5399147898356
30
0
0
VERTEX
8
0
10
28.7157554796688
20
64.3653684154961
30
0
0
VERTEX
8
0
10
29.3267290005128
20
64.1687161563814
30
0
0
VERTEX
8
0
10
29.9377025213568
20
63.9514879525007
30
0
0
VERTEX
8
0
10
30.5486760422008
20
63.7151749204857
30
0
0
VERTEX
8
0
10
31.1596495630448
20
63.4612308484591
30
0
0
VERTEX
8
0
10
31.7706230838888
20
63.1910735920149
30
0
0
VERTEX
8
0
10
32.3815966047328
20
62.9060863879436
30
0
0
VERTEX
8
0
10
32.9925701255769
20
62.6076191033445
30
0
0
VERTEX
8
0
10
33.6035436464209
20
62.2969894391276
30
0
0
VERTEX
8
0
10
34.2145171672649
20
61.9754841090997
30
0
0
VERTEX
8
0
10
34.8254906881089
20
61.6443600192406
30
0
0
VERTEX
8
0
10
35.4364642089529
20
61.3048454768886
30
0
0
VERTEX
8
0
10
36.0474377297969
20
60.9581414658597
30
0
0
VERTEX
8
0
10
36.6584112506409
20
60.605423033543
30
0
0
VERTEX
8
0
10
37.269384771485
20
60.2478408496532
30
0
0
VERTEX
8
0
10
37.880358292329
20
59.8865230159705
30
0
0
VERTEX
8
0
10
38.491331813173
20
59.5225772354498
30
0
0
VERTEX
8
0
10
39.102305334017
20
59.1570934925745
30
0
0
VERTEX
8
0
10
39.713278854861
20
58.7911474641801
30
0
0
VERTEX
8
0
10
40.324252375705
20
58.4258049866776
30
0
0
VERTEX
8
0
10
40.935225896549
20
58.0621280834457
30
0
0
VERTEX
8
0
10
41.5461994173931
20
57.7011833634559
30
0
0
VERTEX
8
0
10
42.1571729382371
20
57.3440541670862
30
0
0
VERTEX
8
0
10
42.7681464590811
20
56.9918589462215
30
0
0
VERTEX
8
0
10
43.3791199799251
20
56.6457807585763
30
0
0
VERTEX
8
0
10
43.9900935007691
20
56.3071185714142
30
0
0
VERTEX
8
0
10
44.6010670216131
20
55.9773878913857
30
0
0
VERTEX
8
0
10
45.2120405424571
20
55.6585618333372
30
0
0
VERTEX
8
0
10
45.8230140633012
20
55.3537874410531
30
0
0
VERTEX
8
0
10
46.4339875841452
20
55.06604687413
30
0
0
VERTEX
8
0
10
47.0449611049892
20
54.7919558511728
30
0
0
VERTEX
8
0
10
47.6559346258332
20
54.5280125472588
30
0
0
VERTEX
8
0
10
48.2669081466772
20
54.2722056435489
30
0
0
VERTEX
8
0
10
48.8778816675212
20
54.0231679489734
30
0
0
VERTEX
8
0
10
49.4888551883653
20
53.7798797807002
30
0
0
VERTEX
8
0
10
50.0998287092093
20
53.5415413090421
30
0
0
VERTEX
8
0
10
50.7108022300533
20
53.3075050990523
30
0
0
VERTEX
8
0
10
51.3217757508973
20
53.0772358145565
30
0
0
VERTEX
8
0
10
51.9327492717413
20
52.8502840976677
30
0
0
VERTEX
8
0
10
52.5437227925853
20
52.6262686118583
30
0
0
VERTEX
8
0
10
53.1546963134293
20
52.4048631356347
30
0
0
VERTEX
8
0
10
53.7656698342733
20
52.1857869569248
30
0
0
VERTEX
8
0
10
54.3766433551174
20
51.9687975200336
30
0
0
VERTEX
8
0
10
54.9876168759614
20
51.7536846648845
30
0
0
VERTEX
8
0
10
55.5985903968054
20
51.5402660251233
30
0
0
VERTEX
8
0
10
56.2095639176494
20
51.3283832905247
30
0
0
VERTEX
8
0
10
56.8205374384934
20
51.1178991277118
30
0
0
VERTEX
8
0
10
57.4315109593374
20
50.9086946114266
30
0
0
VERTEX
8
0
10
58.0424844801815
20
50.7006670580424
30
0
0
VERTEX
8
0
10
58.6534580010255
20
50.4937281804072
30
0
0
VERTEX
8
0
10
59.2644315218695
20
50.2878025025794
30
0
0
VERTEX
8
0
10
59.8754050427135
20
50.0828259870209
30
0
0
VERTEX
8
0
10
60.4863785635575
20
49.8787448372718
30
0
0
VERTEX
8
0
10
61.0973520844015
20
49.6755144467559
30
0
0
VERTEX
8
0
10
61.7083256052455
20
49.4730984702773
30
0
0
VERTEX
8
0
10
62.3192991260895
20
49.2714679993958
30
0
0
VERTEX
8
0
10
62.9302726469336
20
49.0706008260991
30
0
0
VERTEX
8
0
10
63.5412461677776
20
48.8704807822576
30
0
0
VERTEX
8
0
10
64.1522196886216
20
48.6710971442608
30
0
0
VERTEX
8
0
10
64.7631932094656
20
48.4724440941877
30
0
0
VERTEX
8
0
10
65.3741667303096
20
48.274520230105
30
0
0
VERTEX
8
0
10
65.9851402511536
20
48.0773281193355
30
0
0
VERTEX
8
0
10
66.5961137719977
20
47.8808738894788
30
0
0
VERTEX
8
0
10
67.2070872928417
20
47.6851668526589
30
0
0
VERTEX
8
0
10
67.8180608136857
20
47.4902191592336
30
0
0
VERTEX
8
0
10
68.4290343345297
20
47.2960454776166
30
0
0
VERTEX
8
0
10
69.0400078553737
20
47.10266269745
30
0
0
VERTEX
8
0
10
69.6509813762177
20
46.9100896536285
30
0
0
VERTEX
8
0
10
70.2619548970617
20
46.718346869074
30
0
0
VERTEX
8
0
10
70.8729284179057
20
46.5274563144388
30
0
0
VERTEX
8
0
10
71.4839019387498
20
46.337441183114
30
0
0
VERTEX
8
0
10
72.0948754595938
20
46.1483256801854
30
0
0
VERTEX
8
0
10
72.7058489804378
20
45.96013482413
30
0
0
VERTEX
8
0
10
73.3168225012818
20
45.7728942602039
30
0
0
VERTEX
8
0
10
73.9277960221258
20
45.5866300846647
30
0
0
VERTEX
8
0
10
74.5387695429698
20
45.4013686790389
30
0
0
VERTEX
8
0
10
75.1497430638138
20
45.2171365538161
30
0
0
VERTEX
8
0
10
75.7607165846579
20
45.0339602010426
30
0
0
VERTEX
8
0
10
76.3716901055019
20
44.8518659554002
30
0
0
VERTEX
8
0
10
76.9826636263459
20
44.6708798634551
30
0
0
VERTEX
8
0
10
77.5936371471899
20
44.491027560884
30
0
0
VERTEX
8
0
10
78.2046106680339
20
44.3123341575849
30
0
0
VERTEX
8
0
10
78.8155841888779
20
44.1348241306959
30
0
0
VERTEX
8
0
10
79.4265577097219
20
43.9585212257134
30
0
0
VERTEX
8
0
10
80.037531230566
20
43.7834483660278
30
0
0
VERTEX
8
0
10
80.64850475141
20
43.6096275714279
30
0
0
VERTEX
8
0
10
81.259478272254
20
43.4370798863777
30
0
0
VERTEX
8
0
10
81.870451793098
20
43.2658253191657
30
0
0
VERTEX
8
0
10
82.481425313942
20
43.0958827935607
30
0
0
VERTEX
8
0
10
83.092398834786
20
42.9272701151503
30
0
0
VERTEX
8
0
10
83.70337235563
20
42.7600039555023
30
0
0
VERTEX
8
0
10
84.3143458764741
20
42.5940998585675
30
0
0
VERTEX
8
0
10
84.9253193973181
20
42.4295722757527
30
0
0
VERTEX
8
0
10
85.5362929181621
20
42.2664346391173
30
0
0
VERTEX
8
0
10
86.1472664390061
20
42.1046994871733
30
0
0
VERTEX
8
0
10
86.7582399598501
20
41.9443786659428
30
0
0
VERTEX
8
0
10
87.3692134806941
20
41.7854836425036
30
0
0
VERTEX
8
0
10
87.9801870015381
20
41.6280259950536
30
0
0
VERTEX
8
0
10
88.5911605223822
20
41.4720181969352
30
0
0
VERTEX
8
0
10
89.2021340432262
20
41.3174749274799
30
0
0
VERTEX
8
0
10
89.8131075640702
20
41.1644154170065
30
0
0
VERTEX
8
0
10
90.4240810849142
20
41.0128680177581
30
0
0
VERTEX
8
0
10
91.0350546057582
20
40.8628792781257
30
0
0
VERTEX
8
0
10
91.6460281266022
20
40.7145199263203
30
0
0
VERTEX
8
0
10
92.2570016474462
20
40.5678057538116
30
0
0
VERTEX
8
0
10
92.8679751682902
20
40.4225826142329
30
0
0
VERTEX
8
0
10
93.4789486891343
20
40.2786574002458
30
0
0
VERTEX
8
0
10
94.0899222099783
20
40.1358829272227
30
0
0
VERTEX
8
0
10
94.7008957308223
20
39.9941468888687
30
0
0
VERTEX
8
0
10
95.3118692516663
20
39.8533586049007
30
0
0
VERTEX
8
0
10
95.9228427725103
20
39.7134419821889
30
0
0
VERTEX
8
0
10
96.5338162933543
20
39.5743316093085
30
0
0
VERTEX
8
0
10
97.1447898141983
20
39.4359703743059
30
0
0
VERTEX
8
0
10
97.7557633350424
20
39.2983078979466
30
0
0
VERTEX
8
0
10
98.3667368558864
20
39.1612994447367
30
0
0
VERTEX
8
0
10
98.9777103767304
20
39.0249051344333
30
0
0
VERTEX
8
0
10
99.5886838975744
20
38.8890893533094
30
0
0
VERTEX
8
0
10
100.199657418418
20
38.7538203043154
30
0
0
VERTEX
8
0
10
100.810630939262
20
38.6190696574878
30
0
0
VERTEX
8
0
10
101.421604460107
20
38.4848122750834
30
0
0
VERTEX
8
0
10
102.032577980951
20
38.3510259940429
30
0
0
VERTEX
8
0
10
102.643551501795
20
38.2176914536063
30
0
0
VERTEX
8
0
10
103.254525022639
20
38.084791959401
30
0
0
VERTEX
8
0
10
103.865498543483
20
37.9523133777226
30
0
0
VERTEX
8
0
10
104.476472064327
20
37.8202440554388
30
0
0
VERTEX
8
0
10
105.087445585171
20
37.688574762194
30
0
0
VERTEX
8
0
10
105.698419106015
20
37.5572986525413
30
0
0
VERTEX
8
0
10
106.309392626859
20
37.4264112463706
30
0
0
VERTEX
8
0
10
106.920366147703
20
37.2959104266117
30
0
0
VERTEX
8
0
10
107.531339668547
20
37.1657964537215
30
0
0
VERTEX
8
0
10
108.142313189391
20
37.0360719969443
30
0
0
VERTEX
8
0
10
108.753286710235
20
36.9067421828102
30
0
0
VERTEX
8
0
10
109.364260231079
20
36.777814661825
30
0
0
VERTEX
8
0
10
109.975233751923
20
36.6492996948531
30
0
0
VERTEX
8
0
10
110.586207272767
20
36.5212102613223
30
0
0
VERTEX
8
0
10
111.197180793611
20
36.3935621921577
30
0
0
VERTEX
8
0
10
111.808154314455
20
36.2663743313142
30
0
0
VERTEX
8
0
10
112.419127835299
20
36.139668731046
30
0
0
VERTEX
8
0
10
113.030101356143
20
36.0134708877303
30
0
0
VERTEX
8
0
10
113.641074876987
20
35.8878100273679
30
0
0
VERTEX
8
0
10
114.252048397831
20
35.7627194531011
30
0
0
VERTEX
8
0
10
114.863021918675
20
35.6382369717206
30
0
0
VERTEX
8
0
10
115.473995439519
20
35.5144054229462
30
0
0
VERTEX
8
0
10
116.084968960363
20
35.3912733456243
30
0
0
VERTEX
8
0
10
116.695942481207
20
35.2688958312412
30
0
0
VERTEX
8
0
10
117.306916002051
20
35.1473356417042
30
0
0
VERTEX
8
0
10
117.917889522895
20
35.0266647137086
30
0
0
VERTEX
8
0
10
118.528863043739
20
34.9069662537265
30
0
0
VERTEX
8
0
10
119.139836564583
20
34.7883377834073
30
0
0
VERTEX
8
0
10
119.750810085427
20
34.6708958062734
30
0
0
VERTEX
8
0
10
120.361783606271
20
34.5547833771256
30
0
0
VERTEX
8
0
10
120.972757127115
20
34.4401826763404
30
0
0
VERTEX
8
0
10
121.583730647959
20
34.3273319387664
30
0
0
VERTEX
8
0
10
122.194704168803
20
34.2165124315392
30
0
0
VERTEX
8
0
10
122.805677689647
20
34.1078923373689
30
0
0
VERTEX
8
0
10
123.416651210491
20
34.001365167084
30
0
0
VERTEX
8
0
10
124.027624731335
20
33.8967082626412
30
0
0
VERTEX
8
0
10
124.638598252179
20
33.7937340300894
30
0
0
VERTEX
8
0
10
125.249571773023
20
33.6923028894777
30
0
0
VERTEX
8
0
10
125.860545293868
20
33.5923078893326
30
0
0
VERTEX
8
0
10
126.471518814712
20
33.493663376639
30
0
0
VERTEX
8
0
10
127.082492335556
20
33.3962982820181
30
0
0
VERTEX
8
0
10
127.6934658564
20
33.3001520553667
30
0
0
VERTEX
8
0
10
128.304439377244
20
33.2051720648878
30
0
0
VERTEX
8
0
10
128.915412898088
20
33.1113118424452
30
0
0
VERTEX
8
0
10
129.526386418932
20
33.018529847039
30
0
0
VERTEX
8
0
10
130.137359939776
20
32.9267885620451
30
0
0
VERTEX
8
0
10
130.74833346062
20
32.8360538168076
30
0
0
VERTEX
8
0
10
131.359306981464
20
32.7462942644515
30
0
0
VERTEX
8
0
10
131.970280502308
20
32.6574809717306
30
0
0
VERTEX
8
0
10
132.581254023152
20
32.5695870912502
30
0
0
VERTEX
8
0
10
133.192227543996
20
32.4825875955685
30
0
0
VERTEX
8
0
10
133.80320106484
20
32.3964590586517
30
0
0
VERTEX
8
0
10
134.414174585684
20
32.3111794741605
30
0
0
VERTEX
8
0
10
135.025148106528
20
32.2267281027991
30
0
0
VERTEX
8
0
10
135.636121627372
20
32.1430853428904
30
0
0
VERTEX
8
0
10
136.247095148216
20
32.0602326197314
30
0
0
VERTEX
8
0
10
136.85806866906
20
31.9781522902858
30
0
0
VERTEX
8
0
10
137.469042189904
20
31.8968275605256
30
0
0
VERTEX
8
0
10
138.080015710748
20
31.8162424132917
30
0
0
VERTEX
8
0
10
138.690989231592
20
31.7363815449698
30
0
0
VERTEX
8
0
10
139.301962752436
20
31.6572303096113
30
0
0
VERTEX
8
0
10
139.91293627328
20
31.5787746693783
30
0
0
VERTEX
8
0
10
140.523909794124
20
31.5010011503985
30
0
0
VERTEX
8
0
10
141.134883314968
20
31.4238968032713
30
0
0
VERTEX
8
0
10
141.745856835812
20
31.3474491675958
30
0
0
VERTEX
8
0
10
142.356830356656
20
31.2716462399934
30
0
0
VERTEX
8
0
10
142.9678038775
20
31.1964764451788
30
0
0
VERTEX
8
0
10
143.578777398344
20
31.1219286097072
30
0
0
VERTEX
8
0
10
144.189750919188
20
31.0479919380739
30
0
0
VERTEX
8
0
10
144.800724440032
20
30.9746559908943
30
0
0
VERTEX
8
0
10
145.411697960876
20
30.9019106649285
30
0
0
VERTEX
8
0
10
146.02267148172
20
30.8297461747489
30
0
0
VERTEX
8
0
10
146.633645002564
20
30.7581530358717
30
0
0
VERTEX
8
0
10
147.244618523408
20
30.6871220492032
30
0
0
VERTEX
8
0
10
147.855592044252
20
30.6166442866644
30
0
0
VERTEX
8
0
10
148.466565565096
20
30.5467110778774
30
0
0
VERTEX
8
0
10
149.07753908594
20
30.4773139978128
30
0
0
VERTEX
8
0
10
149.688512606784
20
30.4084448553034
30
0
0
VERTEX
8
0
10
150.299486127629
20
30.3400956823486
30
0
0
VERTEX
8
0
10
150.910459648473
20
30.2722587241337
30
0
0
VERTEX
8
0
10
151.521433169317
20
30.2049264297051
30
0
0
VERTEX
8
0
10
152.132406690161
20
30.1380914432414
30
0
0
VERTEX
8
0
10
152.743380211005
20
30.0717465958717
30
0
0
SEQEND
8
0
0
POLYLINE
8
0
62
3
70
0
10
0
20
0
30
0
0
VERTEX
8
0
10
6.10973520844016
20
43.6172486114562
30
0
0
VERTEX
8
0
10
6.72070872928418
20
46.5388363012463
30
0
0
VERTEX
8
0
10
7.3316822501282
20
49.3020359472703
30
0
0
VERTEX
8
0
10
7.94265577097221
20
51.9164574412253
30
0
0
VERTEX
8
0
10
8.55362929181623
20
54.3906014512809
30
0
0
VERTEX
8
0
10
9.16460281266025
20
56.7320791452914
30
0
0
VERTEX
8
0
10
9.77557633350426
20
58.9477713415242
30
0
0
VERTEX
8
0
10
10.3865498543483
20
61.0439501276922
30
0
0
VERTEX
8
0
10
10.9975233751923
20
63.0263745926962
30
0
0
VERTEX
8
0
10
11.6084968960363
20
64.9003674395754
30
0
0
VERTEX
8
0
10
12.2194704168803
20
66.670876950407
30
0
0
VERTEX
8
0
10
12.8304439377243
20
68.3425275203426
30
0
0
VERTEX
8
0
10
13.4414174585684
20
69.9196611798394
30
0
0
VERTEX
8
0
10
14.0523909794124
20
71.4063719625877
30
0
0
VERTEX
8
0
10
14.6633645002564
20
72.8065345570012
30
0
0
VERTEX
8
0
10
15.2743380211004
20
74.1238283588911
30
0
0
VERTEX
8
0
10
15.8853115419444
20
75.3617577995042
30
0
0
VERTEX
8
0
10
16.4962850627884
20
76.5236696346485
30
0
0
VERTEX
8
0
10
17.1072585836325
20
77.6127677355358
30
0
0
VERTEX
8
0
10
17.7182321044765
20
78.6321258120567
30
0
0
VERTEX
8
0
10
18.3292056253205
20
79.5846984118021
30
0
0
VERTEX
8
0
10
18.9401791461645
20
80.4733304723732
30
0
0
VERTEX
8
0
10
19.5511526670085
20
81.3007656509454
30
0
0
VERTEX
8
0
10
20.1621261878526
20
82.069653615072
30
0
0
VERTEX
8
0
10
20.7730997086966
20
82.7825564451889
30
0
0
VERTEX
8
0
10
21.3840732295406
20
83.4419542734441
30
0
0
VERTEX
8
0
10
21.9950467503846
20
84.0502502629762
30
0
0
VERTEX
8
0
10
22.6060202712286
20
84.6097750140653
30
0
0
VERTEX
8
0
10
23.2169937920726
20
85.1227904709255
30
0
0
VERTEX
8
0
10
23.8279673129166
20
85.591493390521
30
0
0
VERTEX
8
0
10
24.4389408337607
20
86.0180184268226
30
0
0
VERTEX
8
0
10
25.0499143546047
20
86.4044408753437
30
0
0
VERTEX
8
0
10
25.6608878754487
20
86.7527791172815
30
0
0
VERTEX
8
0
10
26.2718613962927
20
87.0649967971729
30
0
0
VERTEX
8
0
10
26.8828349171367
20
87.343004763641
30
0
0
VERTEX
8
0
10
27.4938084379807
20
87.5886627994668
30
0
0
VERTEX
8
0
10
28.1047819588248
20
87.803781164372
30
0
0
VERTEX
8
0
10
28.7157554796688
20
87.9901219712742
30
0
0
VERTEX
8
0
10
29.3267290005128
20
88.149400415279
30
0
0
VERTEX
8
0
10
29.9377025213568
20
88.283285872856
30
0
0
VERTEX
8
0
10
30.5486760422008
20
88.3934028877545
30
0
0
VERTEX
8
0
10
31.1596495630448
20
88.4813320593533
30
0
0
VERTEX
8
0
10
31.7706230838888
20
88.5486108488194
30
0
0
VERTEX
8
0
10
32.3815966047328
20
88.5967343182252
30
0
0
VERTEX
8
0
10
32.9925701255769
20
88.6271558182645
30
0
0
VERTEX
8
0
10
33.6035436464209
20
88.6412876409022
30
0
0
VERTEX
8
0
10
34.2145171672649
20
88.6405016545027
30
0
0
VERTEX
8
0
10
34.8254906881089
20
88.6261299409589
30
0
0
VERTEX
8
0
10
35.4364642089529
20
88.5994654573664
30
0
0
VERTEX
8
0
10
36.0474377297969
20
88.5617627484707
30
0
0
VERTEX
8
0
10
36.6584112506409
20
88.5142387421199
30
0
0
VERTEX
8
0
10
37.269384771485
20
88.4580736681171
30
0
0
VERTEX
8
0
10
37.880358292329
20
88.394412152685
30
0
0
VERTEX
8
0
10
38.491331813173
20
88.324364558329
30
0
0
VERTEX
8
0
10
39.102305334017
20
88.2490086652922
30
0
0
VERTEX
8
0
10
39.713278854861
20
88.1693918319016
30
0
0
VERTEX
8
0
10
40.324252375705
20
88.0865338364064
30
0
0
VERTEX
8
0
10
40.935225896549
20
88.0014307122541
30
0
0
VERTEX
8
0
10
41.5461994173931
20
87.9150600782144
30
0
0
VERTEX
8
0
10
42.1571729382371
20
87.8283888141647
30
0
0
VERTEX
8
0
10
42.7681464590811
20
87.7423846225667
30
0
0
VERTEX
8
0
10
43.3791199799251
20
87.6580345037881
30
0
0
VERTEX
8
0
10
43.9900935007691
20
87.5763767994883
30
0
0
VERTEX
8
0
10
44.6010670216131
20
87.4985639750427
30
0
0
VERTEX
8
0
10
45.2120405424571
20
87.4260131635638
30
0
0
VERTEX
8
0
10
45.8230140633012
20
87.3608523800002
30
0
0
VERTEX
8
0
10
46.4339875841452
20
87.305019079006
30
0
0
VERTEX
8
0
10
47.0449611049892
20
87.2562910854164
30
0
0
VERTEX
8
0
10
47.6559346258332
20
87.212367459138
30
0
0
VERTEX
8
0
10
48.2669081466772
20
87.1719164285013
30
0
0
VERTEX
8
0
10
48.8778816675212
20
87.1340308649867
30
0
0
VERTEX
8
0
10
49.4888551883653
20
87.0980357080334
30
0
0
VERTEX
8
0
10
50.0998287092093
20
87.0634043396624
30
0
0
VERTEX
8
0
10
50.7108022300533
20
87.0297140170318
30
0
0
VERTEX
8
0
10
51.3217757508973
20
86.9966190337789
30
0
0
VERTEX
8
0
10
51.9327492717413
20
86.9638331867202
30
0
0
VERTEX
8
0
10
52.5437227925853
20
86.9311176313017
30
0
0
VERTEX
8
0
10
53.1546963134293
20
86.8982720890329
30
0
0
VERTEX
8
0
10
53.7656698342733
20
86.8651282571159
30
0
0
VERTEX
8
0
10
54.3766433551174
20
86.8315447287139
30
0
0
VERTEX
8
0
10
54.9876168759614
20
86.7974029864245
30
0
0
VERTEX
8
0
10
55.5985903968054
20
86.762604180688
30
0
0
VERTEX
8
0
10
56.2095639176494
20
86.7270664964356
30
0
0
VERTEX
8
0
10
56.8205374384934
20
86.6907229699255
30
0
0
VERTEX
8
0
10
57.4315109593374
20
86.6535196563506
30
0
0
VERTEX
8
0
10
58.0424844801815
20
86.6154140751068
30
0
0
VERTEX
8
0
10
58.6534580010255
20
86.5763738778965
30
0
0
VERTEX
8
0
10
59.2644315218695
20
86.536375697913
30
0
0
VERTEX
8
0
10
59.8754050427135
20
86.4954041477582
30
0
0
VERTEX
8
0
10
60.4863785635575
20
86.4534509407944
30
0
0
VERTEX
8
0
10
61.0973520844015
20
86.4105141158043
30
0
0
VERTEX
8
0
10
61.7083256052455
20
86.3665973488311
30
0
0
VERTEX
8
0
10
62.3192991260895
20
86.3217093392145
30
0
0
VERTEX
8
0
10
62.9302726469336
20
86.2758632590614
30
0
0
VERTEX
8
0
10
63.5412461677776
20
86.2290762574647
30
0
0
VERTEX
8
0
10
64.1522196886216
20
86.1813690121139
30
0
0
VERTEX
8
0
10
64.7631932094656
20
86.1327653222685
30
0
0
VERTEX
8
0
10
65.3741667303096
20
86.0832917379375
30
0
0
VERTEX
8
0
10
65.9851402511536
20
86.032977220955
30
0
0
VERTEX
8
0
10
66.5961137719977
20
85.9818528342964
30
0
0
VERTEX
8
0
10
67.2070872928417
20
85.9299514564667
30
0
0
VERTEX
8
0
10
67.8180608136857
20
85.8773075183061
30
0
0
VERTEX
8
0
10
68.4290343345297
20
85.8239567598635
30
0
0
VERTEX
8
0
10
69.0400078553737
20
85.7699360053762
30
0
0
VERTEX
8
0
10
69.6509813762177
20
85.7152829545991
30
0
0
VERTEX
8
0
10
70.2619548970617
20
85.6600359889815
30
0
0
VERTEX
8
0
10
70.8729284179057
20
85.6042339914007
30
0
0
VERTEX
8
0
10
71.4839019387498
20
85.5479161782863
30
0
0
VERTEX
8
0
10
72.0948754595938
20
85.4911219431583
30
0
0
VERTEX
8
0
10
72.7058489804378
20
85.4338907107048
30
0
0
VERTEX
8
0
10
73.3168225012818
20
85.3762618006284
30
0
0
VERTEX
8
0
10
73.9277960221258
20
85.3182743006251
30
0
0
VERTEX
8
0
10
74.5387695429698
20
85.2599669479002
30
0
0
VERTEX
8
0
10
75.1497430638138
20
85.2013780187397
30
0
0
VERTEX
8
0
10
75.7607165846579
20
85.1425452257115
30
0
0
VERTEX
8
0
10
76.3716901055019
20
85.0835056221482
30
0
0
VERTEX
8
0
10
76.9826636263459
20
85.0242955136107
30
0
0
VERTEX
8
0
10
77.5936371471899
20
84.9649503761178
30
0
0
VERTEX
8
0
10
78.2046106680339
20
84.9055047809759
30
0
0
VERTEX
8
0
10
78.8155841888779
20
84.8459923261065
30
0
0
VERTEX
8
0
10
79.4265577097219
20
84.7864455738616
30
0
0
VERTEX
8
0
10
80.037531230566
20
84.7268959953814
30
0
0
VERTEX
8
0
10
80.64850475141
20
84.6673739216653
30
0
0
VERTEX
8
0
10
81.259478272254
20
84.6079085016525
30
0
0
VERTEX
8
0
10
81.870451793098
20
84.5485276677502
30
0
0
VERTEX
8
0
10
82.481425313942
20
84.4892581095147
30
0
0
VERTEX
8
0
10
83.092398834786
20
84.4301252564401
30
0
0
VERTEX
8
0
10
83.70337235563
20
84.3711532712768
30
0
0
VERTEX
8
0
10
84.3143458764741
20
84.312365055913
30
0
0
VERTEX
8
0
10
84.9253193973181
20
84.2537822728169
30
0
0
VERTEX
8
0
10
85.5362929181621
20
84.1954253864726
30
0
0
VERTEX
8
0
10
86.1472664390061
20
84.1373137316588
30
0
0
VERTEX
8
0
10
86.7582399598501
20
84.0794656193265
30
0
0
VERTEX
8
0
10
87.3692134806941
20
84.0218984978182
30
0
0
VERTEX
8
0
10
87.9801870015381
20
83.9646292000292
30
0
0
VERTEX
8
0
10
88.5911605223822
20
83.9076743327744
30
0
0
VERTEX
8
0
10
89.2021340432262
20
83.8510509201238
30
0
0
VERTEX
8
0
10
89.8131075640702
20
83.7947775444358
30
0
0
VERTEX
8
0
10
90.4240810849142
20
83.7388765559923
30
0
0
VERTEX
8
0
10
91.0350546057582
20
83.6833784139932
30
0
0
VERTEX
8
0
10
91.6460281266022
20
83.6283241650168
30
0
0
VERTEX
8
0
10
92.2570016474462
20
83.5737252890871
30
0
0
VERTEX
8
0
10
92.8679751682902
20
83.5195068780035
30
0
0
VERTEX
8
0
10
93.4789486891343
20
83.4655741302476
30
0
0
VERTEX
8
0
10
94.0899222099783
20
83.4118553400946
30
0
0
VERTEX
8
0
10
94.7008957308223
20
83.3582966378939
30
0
0
VERTEX
8
0
10
95.3118692516663
20
83.3048554353318
30
0
0
VERTEX
8
0
10
95.9228427725103
20
83.2514969134676
30
0
0
VERTEX
8
0
10
96.5338162933543
20
83.1981920589891
30
0
0
VERTEX
8
0
10
97.1447898141983
20
83.144916456701
30
0
0
VERTEX
8
0
10
97.7557633350424
20
83.0916494885617
30
0
0
VERTEX
8
0
10
98.3667368558864
20
83.0383737718428
30
0
0
VERTEX
8
0
10
98.9777103767304
20
82.9850747482463
30
0
0
VERTEX
8
0
10
99.5886838975744
20
82.9317403737083
30
0
0
VERTEX
8
0
10
100.199657418418
20
82.8783608784192
30
0
0
VERTEX
8
0
10
100.810630939262
20
82.8249285776362
30
0
0
VERTEX
8
0
10
101.421604460107
20
82.7714377204032
30
0
0
VERTEX
8
0
10
102.032577980951
20
82.7178843673561
30
0
0
VERTEX
8
0
10
102.643551501795
20
82.664266291406
30
0
0
VERTEX
8
0
10
103.254525022639
20
82.6105828968384
30
0
0
VERTEX
8
0
10
103.865498543483
20
82.5568351535748
30
0
0
VERTEX
8
0
10
104.476472064327
20
82.5030255441974
30
0
0
VERTEX
8
0
10
105.087445585171
20
82.4491580219619
30
0
0
VERTEX
8
0
10
105.698419106015
20
82.3952379784961
30
0
0
VERTEX
8
0
10
106.309392626859
20
82.3412722202443
30
0
0
VERTEX
8
0
10
106.920366147703
20
82.2872689530218
30
0
0
VERTEX
8
0
10
107.531339668547
20
82.2332377742894
30
0
0
VERTEX
8
0
10
108.142313189391
20
82.1791896729852
30
0
0
VERTEX
8
0
10
108.753286710235
20
82.1251370369713
30
0
0
VERTEX
8
0
10
109.364260231079
20
82.0710936683655
30
0
0
VERTEX
8
0
10
109.975233751923
20
82.0170748072703
30
0
0
VERTEX
8
0
10
110.586207272767
20
81.9630971646759
30
0
0
VERTEX
8
0
10
111.197180793611
20
81.9091789656455
30
0
0
VERTEX
8
0
10
111.808154314455
20
81.8553400042915
30
0
0
VERTEX
8
0
10
112.419127835299
20
81.8016017125811
30
0
0
VERTEX
8
0
10
113.030101356143
20
81.7479872456977
30
0
0
VERTEX
8
0
10
113.641074876987
20
81.694521587649
30
0
0
VERTEX
8
0
10
114.252048397831
20
81.6412316821321
30
0
0
VERTEX
8
0
10
114.863021918675
20
81.588146595587
30
0
0
VERTEX
8
0
10
115.473995439519
20
81.5352977221853
30
0
0
VERTEX
8
0
10
116.084968960363
20
81.4827190447948
30
0
0
VERTEX
8
0
10
116.695942481207
20
81.430447472696
30
0
0
VERTEX
8
0
10
117.306916002051
20
81.3785232878594
30
0
0
VERTEX
8
0
10
117.917889522895
20
81.326990750451
30
0
0
VERTEX
8
0
10
118.528863043739
20
81.2758989482436
30
0
0
VERTEX
8
0
10
119.139836564583
20
81.2253030394571
30
0
0
VERTEX
8
0
10
119.750810085427
20
81.1752661677108
30
0
0
VERTEX
8
0
10
120.361783606271
20
81.1258625785294
30
0
0
VERTEX
8
0
10
120.972757127115
20
81.0771827833784
30
0
0
VERTEX
8
0
10
121.583730647959
20
81.0293403129213
30
0
0
VERTEX
8
0
10
122.194704168803
20
80.982464860459
30
0
0
VERTEX
8
0
10
122.805677689647
20
80.9366331511378
30
0
0
VERTEX
8
0
10
123.416651210491
20
80.8917991384481
30
0
0
VERTEX
8
0
10
124.027624731335
20
80.8478643957357
30
0
0
VERTEX
8
0
10
124.638598252179
20
80.8047449595763
30
0
0
VERTEX
8
0
10
125.249571773023
20
80.762377519602
30
0
0
VERTEX
8
0
10
125.860545293868
20
80.7207129429116
30
0
0
VERTEX
8
0
10
126.471518814712
20
80.6797114216321
30
0
0
VERTEX
8
0
10
127.082492335556
20
80.6393395783566
30
0
0
VERTEX
8
0
10
127.6934658564
20
80.5995687060594
30
0
0
VERTEX
8
0
10
128.304439377244
20
80.5603736371123
30
0
0
VERTEX
8
0
10
128.915412898088
20
80.5217319772742
30
0
0
VERTEX
8
0
10
129.526386418932
20
80.4836235637545
30
0
0
VERTEX
8
0
10
130.137359939776
20
80.4460300680026
30
0
0
VERTEX
8
0
10
130.74833346062
20
80.4089346960439
30
0
0
VERTEX
8
0
10
131.359306981464
20
80.3723219569176
30
0
0
VERTEX
8
0
10
131.970280502308
20
80.3361774800825
30
0
0
VERTEX
8
0
10
132.581254023152
20
80.3004878689219
30
0
0
VERTEX
8
0
10
133.192227543996
20
80.2652405814381
30
0
0
VERTEX
8
0
10
133.80320106484
20
80.2304238318061
30
0
0
VERTEX
8
0
10
134.414174585684
20
80.1960265081991
30
0
0
VERTEX
8
0
10
135.025148106528
20
80.1620381034819
30
0
0
VERTEX
8
0
10
135.636121627372
20
80.1284486562211
30
0
0
VERTEX
8
0
10
136.247095148216
20
80.0952487000549
30
0
0
VERTEX
8
0
10
136.85806866906
20
80.0624292199099
30
0
0
VERTEX
8
0
10
137.469042189904
20
80.0299816138817
30
0
0
VERTEX
8
0
10
138.080015710748
20
79.9978976598366
30
0
0
VERTEX
8
0
10
138.690989231592
20
79.9661694859786
30
0
0
VERTEX
8
0
10
139.301962752436
20
79.9347895447791
30
0
0
VERTEX
8
0
10
139.91293627328
20
79.9037505897671
30
0
0
VERTEX
8
0
10
140.523909794124
20
79.8730456547748
30
0
0
VERTEX
8
0
10
141.134883314968
20
79.8426680352992
30
0
0
VERTEX
8
0
10
141.745856835812
20
79.8126112716991
30
0
0
VERTEX
8
0
10
142.356830356656
20
79.7828691339916
30
0
0
VERTEX
8
0
10
142.9678038775
20
79.7534356080472
30
0
0
VERTEX
8
0
10
143.578777398344
20
79.7243048830158
30
0
0
VERTEX
8
0
10
144.189750919188
20
79.6954713398387
30
0
0
VERTEX
8
0
10
144.800724440032
20
79.6669295407233
30
0
0
VERTEX
8
0
10
145.411697960876
20
79.6386742194743
30
0
0
VERTEX
8
0
10
146.02267148172
20
79.6107002725878
30
0
0
VERTEX
8
0
10
146.633645002564
20
79.5830027510299
30
0
0
VERTEX
8
0
10
147.244618523408
20
79.555576852632
30
0
0
VERTEX
8
0
10
147.855592044252
20
79.5284179150351
30
0
0
VERTEX
8
0
10
148.466565565096
20
79.5015214091382
30
0
0
VERTEX
8
0
10
149.07753908594
20
79.4748829329974
30
0
0
VERTEX
8
0
10
149.688512606784
20
79.4484982061358
30
0
0
VERTEX
8
0
10
150.299486127629
20
79.4223630642302
30
0
0
VERTEX
8
0
10
150.910459648473
20
79.3964734541355
30
0
0
VERTEX
8
0
10
151.521433169317
20
79.3708254292234
30
0
0
VERTEX
8
0
10
152.132406690161
20
79.345415145007
30
0
0
VERTEX
8
0
10
152.743380211005
20
79.3202388550279
30
0
0
SEQEND
8
0
0
POLYLINE
8
0
62
4
70
0
10
0
20
0
30
0
0
VERTEX
8
0
10
6.10973520844016
20
47.3579644248243
30
0
0
VERTEX
8
0
10
6.72070872928418
20
49.7452604800973
30
0
0
VERTEX
8
0
10
7.3316822501282
20
52.3272434199291
30
0
0
VERTEX
8
0
10
7.94265577097221
20
54.898120178085
30
0
0
VERTEX
8
0
10
8.55362929181623
20
57.3887632756193
30
0
0
VERTEX
8
0
10
9.16460281266025
20
59.8380083049369
30
0
0
VERTEX
8
0
10
9.77557633350426
20
62.2550091014015
30
0
0
VERTEX
8
0
10
10.3865498543483
20
64.6084092896996
30
0
0
VERTEX
8
0
10
10.9975233751923
20
66.9444250103961
30
0
0
VERTEX
8
0
10
11.6084968960363
20
68.0661067268344
30
0
0
VERTEX
8
0
10
12.2194704168803
20
69.5500584269411
30
0
0
VERTEX
8
0
10
12.8304439377243
20
70.9801030081246
30
0
0
VERTEX
8
0
10
13.4414174585684
20
72.3588717902883
30
0
0
VERTEX
8
0
10
14.0523909794124
20
73.7173354487005
30
0
0
VERTEX
8
0
10
14.6633645002564
20
75.055094626276
30
0
0
VERTEX
8
0
10
15.2743380211004
20
76.1055633867977
30
0
0
VERTEX
8
0
10
15.8853115419444
20
77.1780080533895
30
0
0
VERTEX
8
0
10
16.4962850627884
20
78.2311419364977
30
0
0
VERTEX
8
0
10
17.1072585836325
20
79.2648112734304
30
0
0
VERTEX
8
0
10
17.7182321044765
20
80.0205689686502
30
0
0
VERTEX
8
0
10
18.3292056253205
20
80.8108755740309
30
0
0
VERTEX
8
0
10
18.9401791461645
20
81.5834942197499
30
0
0
VERTEX
8
0
10
19.5511526670085
20
82.3384131619257
30
0
0
VERTEX
8
0
10
20.1621261878526
20
82.9394290646141
30
0
0
VERTEX
8
0
10
20.7730997086966
20
83.5137965320316
30
0
0
VERTEX
8
0
10
21.3840732295406
20
84.0720990105361
30
0
0
VERTEX
8
0
10
21.9950467503846
20
84.6144435184361
30
0
0
VERTEX
8
0
10
22.6060202712286
20
85.0597915150995
30
0
0
VERTEX
8
0
10
23.2169937920726
20
85.4377992368774
30
0
0
VERTEX
8
0
10
23.8279673129166
20
85.8016923560827
30
0
0
VERTEX
8
0
10
24.4389408337607
20
86.1516521419233
30
0
0
VERTEX
8
0
10
25.0499143546047
20
86.487892740097
30
0
0
VERTEX
8
0
10
25.6608878754487
20
86.7742529032838
30
0
0
VERTEX
8
0
10
26.2718613962927
20
87.0557524482109
30
0
0
VERTEX
8
0
10
26.8828349171367
20
87.3245919742654
30
0
0
VERTEX
8
0
10
27.4938084379807
20
87.5810677206895
30
0
0
VERTEX
8
0
10
28.1047819588248
20
87.8183640660176
30
0
0
VERTEX
8
0
10
28.7157554796688
20
88.0437101890422
30
0
0
VERTEX
8
0
10
29.3267290005128
20
88.2577379778725
30
0
0
VERTEX
8
0
10
29.9377025213568
20
88.4607959527971
30
0
0
VERTEX
8
0
10
30.5486760422008
20
88.5962411982696
30
0
0
VERTEX
8
0
10
31.1596495630448
20
88.6897249452771
30
0
0
VERTEX
8
0
10
31.7706230838888
20
88.7740885272102
30
0
0
VERTEX
8
0
10
32.3815966047328
20
88.8496745835334
30
0
0
VERTEX
8
0
10
32.9925701255769
20
88.9168299570959
30
0
0
VERTEX
8
0
10
33.6035436464209
20
88.8986572819251
30
0
0
VERTEX
8
0
10
34.2145171672649
20
88.8919230882378
30
0
0
VERTEX
8
0
10
34.8254906881089
20
88.8783605911899
30
0
0
VERTEX
8
0
10
35.4364642089529
20
88.8583074857821
30
0
0
VERTEX
8
0
10
36.0474377297969
20
88.8338309000032
30
0
0
VERTEX
8
0
10
36.6584112506409
20
88.8035319509006
30
0
0
VERTEX
8
0
10
37.269384771485
20
88.767730790474
30
0
0
VERTEX
8
0
10
37.880358292329
20
88.7267572848722
30
0
0
VERTEX
8
0
10
38.491331813173
20
88.6832268054456
30
0
0
VERTEX
8
0
10
39.102305334017
20
88.63627149511
30
0
0
VERTEX
8
0
10
39.713278854861
20
88.585073153073
30
0
0
VERTEX
8
0
10
40.324252375705
20
88.5299414483687
30
0
0
VERTEX
8
0
10
40.935225896549
20
88.4711793696419
30
0
0
VERTEX
8
0
10
41.5461994173931
20
88.4473086335207
30
0
0
VERTEX
8
0
10
42.1571729382371
20
88.4102383260814
30
0
0
VERTEX
8
0
10
42.7681464590811
20
88.3701469070707
30
0
0
VERTEX
8
0
10
43.3791199799251
20
88.3273081449056
30
0
0
VERTEX
8
0
10
43.9900935007691
20
88.2971188807795
30
0
0
VERTEX
8
0
10
44.6010670216131
20
88.2642156437789
30
0
0
VERTEX
8
0
10
45.2120405424571
20
88.2292085595726
30
0
0
VERTEX
8
0
10
45.8230140633012
20
88.192333146557
30
0
0
VERTEX
8
0
10
46.4339875841452
20
88.1560390526276
30
0
0
VERTEX
8
0
10
47.0449611049892
20
88.119051366034
30
0
0
VERTEX
8
0
10
47.6559346258332
20
88.08040632256
30
0
0
VERTEX
8
0
10
48.2669081466772
20
88.0401070662584
30
0
0
VERTEX
8
0
10
48.8778816675212
20
87.9981586130603
30
0
0
VERTEX
8
0
10
49.4888551883653
20
87.9545677903743
30
0
0
VERTEX
8
0
10
50.0998287092093
20
87.9093431593317
30
0
0
VERTEX
8
0
10
50.7108022300533
20
87.8624949384912
30
0
0
VERTEX
8
0
10
51.3217757508973
20
87.8140349291437
30
0
0
VERTEX
8
0
10
51.9327492717413
20
87.7870161954833
30
0
0
VERTEX
8
0
10
52.5437227925853
20
87.7570110901609
30
0
0
VERTEX
8
0
10
53.1546963134293
20
87.7252726452999
30
0
0
VERTEX
8
0
10
53.7656698342733
20
87.6918192313813
30
0
0
VERTEX
8
0
10
54.3766433551174
20
87.6600510956551
30
0
0
VERTEX
8
0
10
54.9876168759614
20
87.627806386893
30
0
0
VERTEX
8
0
10
55.5985903968054
20
87.5938761493977
30
0
0
VERTEX
8
0
10
56.2095639176494
20
87.5582833620553
30
0
0
VERTEX
8
0
10
56.8205374384934
20
87.5210519346684
30
0
0
VERTEX
8
0
10
57.4315109593374
20
87.4800772576227
30
0
0
VERTEX
8
0
10
58.0424844801815
20
87.4381474466504
30
0
0
VERTEX
8
0
10
58.6534580010255
20
87.394666233542
30
0
0
VERTEX
8
0
10
59.2644315218695
20
87.3496605949753
30
0
0
VERTEX
8
0
10
59.8754050427135
20
87.3031581508566
30
0
0
VERTEX
8
0
10
60.4863785635575
20
87.2551871102514
30
0
0
VERTEX
8
0
10
61.0973520844015
20
87.2057762186035
30
0
0
VERTEX
8
0
10
61.7083256052455
20
87.1549547062146
30
0
0
VERTEX
8
0
10
62.3192991260895
20
87.088151464379
30
0
0
VERTEX
8
0
10
62.9302726469336
20
87.0156565319027
30
0
0
VERTEX
8
0
10
63.5412461677776
20
86.9419833162823
30
0
0
VERTEX
8
0
10
64.1522196886216
20
86.8671620263264
30
0
0
VERTEX
8
0
10
64.7631932094656
20
86.791223153512
30
0
0
VERTEX
8
0
10
65.3741667303096
20
86.7038263112475
30
0
0
VERTEX
8
0
10
65.9851402511536
20
86.6186296970621
30
0
0
VERTEX
8
0
10
66.5961137719977
20
86.5324670242564
30
0
0
VERTEX
8
0
10
67.2070872928417
20
86.4453694174043
30
0
0
VERTEX
8
0
10
67.8180608136857
20
86.3383732610899
30
0
0
VERTEX
8
0
10
68.4290343345297
20
86.2327061091018
30
0
0
VERTEX
8
0
10
69.0400078553737
20
86.1263492377581
30
0
0
VERTEX
8
0
10
69.6509813762177
20
86.0193339801379
30
0
0
VERTEX
8
0
10
70.2619548970617
20
85.9127972569352
30
0
0
VERTEX
8
0
10
70.8729284179057
20
85.8059331734322
30
0
0
VERTEX
8
0
10
71.4839019387498
20
85.6984911157386
30
0
0
VERTEX
8
0
10
72.0948754595938
20
85.5905020528943
30
0
0
VERTEX
8
0
10
72.7058489804378
20
85.481996783376
30
0
0
VERTEX
8
0
10
73.3168225012818
20
85.4049521601926
30
0
0
VERTEX
8
0
10
73.9277960221258
20
85.3169186264473
30
0
0
VERTEX
8
0
10
74.5387695429698
20
85.2282612036772
30
0
0
VERTEX
8
0
10
75.1497430638138
20
85.1390093707282
30
0
0
VERTEX
8
0
10
75.7607165846579
20
85.0614662337227
30
0
0
VERTEX
8
0
10
76.3716901055019
20
84.9816680792462
30
0
0
VERTEX
8
0
10
76.9826636263459
20
84.9012726467137
30
0
0
VERTEX
8
0
10
77.5936371471899
20
84.8203077782016
30
0
0
VERTEX
8
0
10
78.2046106680339
20
84.7431495111924
30
0
0
VERTEX
8
0
10
78.8155841888779
20
84.6663305186647
30
0
0
VERTEX
8
0
10
79.4265577097219
20
84.5889808073646
30
0
0
VERTEX
8
0
10
80.037531230566
20
84.5111262226277
30
0
0
VERTEX
8
0
10
80.64850475141
20
84.4354080802688
30
0
0
VERTEX
8
0
10
81.259478272254
20
84.3617487159073
30
0
0
VERTEX
8
0
10
81.870451793098
20
84.2876184690216
30
0
0
VERTEX
8
0
10
82.481425313942
20
84.2130408990638
30
0
0
VERTEX
8
0
10
83.092398834786
20
84.1380389649553
30
0
0
VERTEX
8
0
10
83.70337235563
20
84.0776257696531
30
0
0
VERTEX
8
0
10
84.3143458764741
20
84.0143979904185
30
0
0
VERTEX
8
0
10
84.9253193973181
20
83.9507181799671
30
0
0
VERTEX
8
0
10
85.5362929181621
20
83.8866067498316
30
0
0
VERTEX
8
0
10
86.1472664390061
20
83.8231593996757
30
0
0
VERTEX
8
0
10
86.7582399598501
20
83.7594840342497
30
0
0
VERTEX
8
0
10
87.3692134806941
20
83.6954257254734
30
0
0
VERTEX
8
0
10
87.9801870015381
20
83.6310022768794
30
0
0
VERTEX
8
0
10
88.5911605223822
20
83.5688859536391
30
0
0
VERTEX
8
0
10
89.2021340432262
20
83.5086837058167
30
0
0
VERTEX
8
0
10
89.8131075640702
20
83.4481323283892
30
0
0
VERTEX
8
0
10
90.4240810849142
20
83.3872470224471
30
0
0
VERTEX
8
0
10
91.0350546057582
20
83.3260423195015
30
0
0
VERTEX
8
0
10
91.6460281266022
20
83.2689520223209
30
0
0
VERTEX
8
0
10
92.2570016474462
20
83.2107543677465
30
0
0
VERTEX
8
0
10
92.8679751682902
20
83.1522447695495
30
0
0
VERTEX
8
0
10
93.4789486891343
20
83.0934280224905
30
0
0
VERTEX
8
0
10
94.0899222099783
20
83.0385838424399
30
0
0
VERTEX
8
0
10
94.7008957308223
20
82.9839224593679
30
0
0
VERTEX
8
0
10
95.3118692516663
20
82.928938363861
30
0
0
VERTEX
8
0
10
95.9228427725103
20
82.8736370030251
30
0
0
VERTEX
8
0
10
96.5338162933543
20
82.818024109537
30
0
0
VERTEX
8
0
10
97.1447898141983
20
82.762105702849
30
0
0
VERTEX
8
0
10
97.7557633350424
20
82.7058880903819
30
0
0
VERTEX
8
0
10
98.3667368558864
20
82.6493778687292
30
0
0
VERTEX
8
0
10
98.9777103767304
20
82.5925819248787
30
0
0
VERTEX
8
0
10
99.5886838975744
20
82.5456728795683
30
0
0
VERTEX
8
0
10
100.199657418418
20
82.4964167635877
30
0
0
VERTEX
8
0
10
100.810630939262
20
82.4468489340085
30
0
0
VERTEX
8
0
10
101.421604460107
20
82.3969774382557
30
0
0
VERTEX
8
0
10
102.032577980951
20
82.3468106161483
30
0
0
VERTEX
8
0
10
102.643551501795
20
82.2963571010892
30
0
0
VERTEX
8
0
10
103.254525022639
20
82.2456258212666
30
0
0
VERTEX
8
0
10
103.865498543483
20
82.1946260008639
30
0
0
VERTEX
8
0
10
104.476472064327
20
82.1461109963651
30
0
0
VERTEX
8
0
10
105.087445585171
20
82.0991341834277
30
0
0
VERTEX
8
0
10
105.698419106015
20
82.0518933314037
30
0
0
VERTEX
8
0
10
106.309392626859
20
82.0043988549559
30
0
0
VERTEX
8
0
10
106.920366147703
20
81.9566614681029
30
0
0
VERTEX
8
0
10
107.531339668547
20
81.9086921854125
30
0
0
VERTEX
8
0
10
108.142313189391
20
81.8605023231957
30
0
0
VERTEX
8
0
10
108.753286710235
20
81.8121035007046
30
0
0
VERTEX
8
0
10
109.364260231079
20
81.7635076413298
30
0
0
VERTEX
8
0
10
109.975233751923
20
81.7179184008676
30
0
0
VERTEX
8
0
10
110.586207272767
20
81.6722814097431
30
0
0
VERTEX
8
0
10
111.197180793611
20
81.626467545998
30
0
0
VERTEX
8
0
10
111.808154314455
20
81.580489949354
30
0
0
VERTEX
8
0
10
112.419127835299
20
81.5420441136552
30
0
0
VERTEX
8
0
10
113.030101356143
20
81.507836083781
30
0
0
VERTEX
8
0
10
113.641074876987
20
81.4734513241747
30
0
0
VERTEX
8
0
10
114.252048397831
20
81.4389041896495
30
0
0
VERTEX
8
0
10
114.863021918675
20
81.4042093378748
30
0
0
VERTEX
8
0
10
115.473995439519
20
81.3486892894834
30
0
0
VERTEX
8
0
10
116.084968960363
20
81.2980608189657
30
0
0
VERTEX
8
0
10
116.695942481207
20
81.2474052099564
30
0
0
VERTEX
8
0
10
117.306916002051
20
81.1967384349763
30
0
0
VERTEX
8
0
10
117.917889522895
20
81.1229286608783
30
0
0
VERTEX
8
0
10
118.528863043739
20
81.0500412541686
30
0
0
VERTEX
8
0
10
119.139836564583
20
80.9773483522675
30
0
0
VERTEX
8
0
10
119.750810085427
20
80.9048676841962
30
0
0
VERTEX
8
0
10
120.361783606271
20
80.8841555540197
30
0
0
VERTEX
8
0
10
120.972757127115
20
80.8891934870697
30
0
0
VERTEX
8
0
10
121.583730647959
20
80.8941959223321
30
0
0
VERTEX
8
0
10
122.194704168803
20
80.8991795687728
30
0
0
VERTEX
8
0
10
122.805677689647
20
80.9041569488763
30
0
0
VERTEX
8
0
10
123.416651210491
20
80.8842194242895
30
0
0
VERTEX
8
0
10
124.027624731335
20
80.8506533817941
30
0
0
VERTEX
8
0
10
124.638598252179
20
80.8171524673974
30
0
0
VERTEX
8
0
10
125.249571773023
20
80.7837168120205
30
0
0
VERTEX
8
0
10
125.860545293868
20
80.7209663219458
30
0
0
VERTEX
8
0
10
126.471518814712
20
80.6411681186376
30
0
0
VERTEX
8
0
10
127.082492335556
20
80.5617494315422
30
0
0
VERTEX
8
0
10
127.6934658564
20
80.4827113841979
30
0
0
VERTEX
8
0
10
128.304439377244
20
80.4040550991319
30
0
0
VERTEX
8
0
10
128.915412898088
20
80.3584110993063
30
0
0
VERTEX
8
0
10
129.526386418932
20
80.3430072781761
30
0
0
VERTEX
8
0
10
130.137359939776
20
80.3276183457017
30
0
0
VERTEX
8
0
10
130.74833346062
20
80.3122443104416
30
0
0
VERTEX
8
0
10
131.359306981464
20
80.2968851809526
30
0
0
VERTEX
8
0
10
131.970280502308
20
80.2705283275235
30
0
0
VERTEX
8
0
10
132.581254023152
20
80.2460257885217
30
0
0
VERTEX
8
0
10
133.192227543996
20
80.221561502837
30
0
0
VERTEX
8
0
10
133.80320106484
20
80.1971355054769
30
0
0
VERTEX
8
0
10
134.414174585684
20
80.1629837310233
30
0
0
VERTEX
8
0
10
135.025148106528
20
80.1275095813051
30
0
0
VERTEX
8
0
10
135.636121627372
20
80.0921171478228
30
0
0
VERTEX
8
0
10
136.247095148216
20
80.0568065389548
30
0
0
VERTEX
8
0
10
136.85806866906
20
80.0254618119612
30
0
0
VERTEX
8
0
10
137.469042189904
20
79.9973306888715
30
0
0
VERTEX
8
0
10
138.080015710748
20
79.9692521199037
30
0
0
VERTEX
8
0
10
138.690989231592
20
79.9412261604349
30
0
0
VERTEX
8
0
10
139.301962752436
20
79.9132528658165
30
0
0
VERTEX
8
0
10
139.91293627328
20
79.886556838369
30
0
0
VERTEX
8
0
10
140.523909794124
20
79.8596811734801
30
0
0
VERTEX
8
0
10
141.134883314968
20
79.8328546290056
30
0
0
VERTEX
8
0
10
141.745856835812
20
79.8060772544801
30
0
0
VERTEX
8
0
10
142.356830356656
20
79.7775561933753
30
0
0
VERTEX
8
0
10
142.9678038775
20
79.7489066100388
30
0
0
VERTEX
8
0
10
143.578777398344
20
79.7203139302033
30
0
0
VERTEX
8
0
10
144.189750919188
20
79.6917782151182
30
0
0
VERTEX
8
0
10
144.800724440032
20
79.6632995259983
30
0
0
VERTEX
8
0
10
145.411697960876
20
79.6348779240241
30
0
0
VERTEX
8
0
10
146.02267148172
20
79.6065134703403
30
0
0
VERTEX
8
0
10
146.633645002564
20
79.5782062260555
30
0
0
VERTEX
8
0
10
147.244618523408
20
79.5499562522428
30
0
0
VERTEX
8
0
10
147.855592044252
20
79.5254383414091
30
0
0
VERTEX
8
0
10
148.466565565096
20
79.5002042558732
30
0
0
VERTEX
8
0
10
149.07753908594
20
79.4750163402624
30
0
0
VERTEX
8
0
10
149.688512606784
20
79.4498746384877
30
0
0
VERTEX
8
0
10
150.299486127629
20
79.4265891983332
30
0
0
VERTEX
8
0
10
150.910459648473
20
79.403462181647
30
0
0
VERTEX
8
0
10
151.521433169317
20
79.3803746489817
30
0
0
VERTEX
8
0
10
152.132406690161
20
79.3573266347986
30
0
0
VERTEX
8
0
10
152.743380211005
20
79.3327173843509
30
0
0
SEQEND
8
0
0
POLYLINE
8
0
62
2
70
0
10
0
20
0
30
0
0
VERTEX
8
0
10
6.10973520844016
20
7.74368636301065
30
0
0
VERTEX
8
0
10
6.72070872928418
20
7.49436636204731
30
0
0
VERTEX
8
0
10
7.3316822501282
20
7.65409113099472
30
0
0
VERTEX
8
0
10
7.94265577097221
20
9.5223901667443
30
0
0
VERTEX
8
0
10
8.55362929181623
20
9.11468503680079
30
0
0
VERTEX
8
0
10
9.16460281266025
20
9.52913566491914
30
0
0
VERTEX
8
0
10
9.77557633350426
20
11.1050028125053
30
0
0
VERTEX
8
0
10
10.3865498543483
20
10.4575524610629
30
0
0
VERTEX
8
0
10
10.9975233751923
20
11.2021252467705
30
0
0
VERTEX
8
0
10
11.6084968960363
20
11.6041587610709
30
0
0
VERTEX
8
0
10
12.2194704168803
20
11.9340275006346
30
0
0
VERTEX
8
0
10
12.8304439377243
20
12.7375733753994
30
0
0
VERTEX
8
0
10
13.4414174585684
20
12.9977902031713
30
0
0
VERTEX
8
0
10
14.0523909794124
20
13.3601007262924
30
0
0
VERTEX
8
0
10
14.6633645002564
20
14.1700243801168
30
0
0
VERTEX
8
0
10
15.2743380211004
20
14.3242117732725
30
0
0
VERTEX
8
0
10
15.8853115419444
20
14.7241124380385
30
0
0
VERTEX
8
0
10
16.4962850627884
20
15.5184136325018
30
0
0
VERTEX
8
0
10
17.1072585836325
20
15.5489060500077
30
0
0
VERTEX
8
0
10
17.7182321044765
20
16.0253586889878
30
0
0
VERTEX
8
0
10
18.3292056253205
20
16.4010078733958
30
0
0
VERTEX
8
0
10
18.9401791461645
20
16.753011526499
30
0
0
VERTEX
8
0
10
19.5511526670085
20
17.2662467508428
30
0
0
VERTEX
8
0
10
20.1621261878526
20
17.5737864725167
30
0
0
VERTEX
8
0
10
20.7730997086966
20
17.9207166959677
30
0
0
VERTEX
8
0
10
21.3840732295406
20
18.4499212442466
30
0
0
VERTEX
8
0
10
21.9950467503846
20
18.6957786446861
30
0
0
VERTEX
8
0
10
22.6060202712286
20
19.0470129356131
30
0
0
VERTEX
8
0
10
23.2169937920726
20
19.5795099261483
30
0
0
VERTEX
8
0
10
23.8279673129166
20
19.7596422862475
30
0
0
VERTEX
8
0
10
24.4389408337607
20
20.1300245665587
30
0
0
VERTEX
8
0
10
25.0499143546047
20
20.4602692789039
30
0
0
VERTEX
8
0
10
25.6608878754487
20
20.7806914655587
30
0
0
VERTEX
8
0
10
26.2718613962927
20
21.1694406839265
30
0
0
VERTEX
8
0
10
26.8828349171367
20
21.4593418355285
30
0
0
VERTEX
8
0
10
27.4938084379807
20
21.7680982400705
30
0
0
VERTEX
8
0
10
28.1047819588248
20
22.1657334338932
30
0
0
VERTEX
8
0
10
28.7157554796688
20
22.4160246091669
30
0
0
VERTEX
8
0
10
29.3267290005128
20
22.7198542715006
30
0
0
VERTEX
8
0
10
29.9377025213568
20
23.1197553445719
30
0
0
VERTEX
8
0
10
30.5486760422008
20
23.3316521859659
30
0
0
VERTEX
8
0
10
31.1596495630448
20
23.6350438734301
30
0
0
VERTEX
8
0
10
31.7706230838888
20
23.9206236919392
30
0
0
VERTEX
8
0
10
32.3815966047328
20
24.2016207683329
30
0
0
VERTEX
8
0
10
32.9925701255769
20
24.5134047521098
30
0
0
VERTEX
8
0
10
33.6035436464209
20
24.7717082961493
30
0
0
VERTEX
8
0
10
34.2145171672649
20
25.0398640517554
30
0
0
VERTEX
8
0
10
34.8254906881089
20
25.3550652515112
30
0
0
VERTEX
8
0
10
35.4364642089529
20
25.5855089887461
30
0
0
VERTEX
8
0
10
36.0474377297969
20
25.8455057371635
30
0
0
VERTEX
8
0
10
36.6584112506409
20
26.1603843321106
30
0
0
VERTEX
8
0
10
37.269384771485
20
26.3663838847471
30
0
0
VERTEX
8
0
10
37.880358292329
20
26.6181293066241
30
0
0
VERTEX
8
0
10
38.491331813173
20
26.8618187992922
30
0
0
VERTEX
8
0
10
39.102305334017
20
27.1031564596059
30
0
0
VERTEX
8
0
10
39.713278854861
20
27.3576209470865
30
0
0
VERTEX
8
0
10
40.324252375705
20
27.5810950532545
30
0
0
VERTEX
8
0
10
40.935225896549
20
27.8097668868315
30
0
0
VERTEX
8
0
10
41.5461994173931
20
28.0640654883452
30
0
0
VERTEX
8
0
10
42.1571729382371
20
28.2664954320085
30
0
0
VERTEX
8
0
10
42.7681464590811
20
28.4858152659276
30
0
0
VERTEX
8
0
10
43.3791199799251
20
28.7376767153292
30
0
0
VERTEX
8
0
10
43.9900935007691
20
28.9232737380432
30
0
0
VERTEX
8
0
10
44.6010670216131
20
29.1311223393965
30
0
0
VERTEX
8
0
10
45.2120405424571
20
29.3355232442954
30
0
0
VERTEX
8
0
10
45.8230140633012
20
29.5385337530175
30
0
0
VERTEX
8
0
10
46.4339875841452
20
29.7456630611521
30
0
0
VERTEX
8
0
10
47.0449611049892
20
29.9340229497271
30
0
0
VERTEX
8
0
10
47.6559346258332
20
30.1249064659506
30
0
0
VERTEX
8
0
10
48.2669081466772
20
30.329519602594
30
0
0
VERTEX
8
0
10
48.8778816675212
20
30.5010581069957
30
0
0
VERTEX
8
0
10
49.4888551883653
20
30.6822108686058
30
0
0
VERTEX
8
0
10
50.0998287092093
20
30.8828478865419
30
0
0
VERTEX
8
0
10
50.7108022300533
20
31.0418844611432
30
0
0
VERTEX
8
0
10
51.3217757508973
20
31.2103822596138
30
0
0
VERTEX
8
0
10
51.9327492717413
20
31.3776338035102
30
0
0
VERTEX
8
0
10
52.5437227925853
20
31.5438589784683
30
0
0
VERTEX
8
0
10
53.1546963134293
20
31.7094406112515
30
0
0
VERTEX
8
0
10
53.7656698342733
20
31.8632754549754
30
0
0
VERTEX
8
0
10
54.3766433551174
20
32.0179814602404
30
0
0
VERTEX
8
0
10
54.9876168759614
20
32.1794671637678
30
0
0
VERTEX
8
0
10
55.5985903968054
20
32.3192275564996
30
0
0
VERTEX
8
0
10
56.2095639176494
20
32.4641776915323
30
0
0
VERTEX
8
0
10
56.8205374384934
20
32.6205870435312
30
0
0
VERTEX
8
0
10
57.4315109593374
20
32.7503573682597
30
0
0
VERTEX
8
0
10
58.0424844801815
20
32.8824393671131
30
0
0
VERTEX
8
0
10
58.6534580010255
20
33.0142530011229
30
0
0
VERTEX
8
0
10
59.2644315218695
20
33.1451049464284
30
0
0
VERTEX
8
0
10
59.8754050427135
20
33.2728076995947
30
0
0
VERTEX
8
0
10
60.4863785635575
20
33.3929279829004
30
0
0
VERTEX
8
0
10
61.0973520844015
20
33.5128431826149
30
0
0
VERTEX
8
0
10
61.7083256052455
20
33.6353609157175
30
0
0
VERTEX
8
0
10
62.3192991260895
20
33.7432598868758
30
0
0
VERTEX
8
0
10
62.9302726469336
20
33.853552687196
30
0
0
VERTEX
8
0
10
63.5412461677776
20
33.9702047146193
30
0
0
VERTEX
8
0
10
64.1522196886216
20
34.0695642994381
30
0
0
VERTEX
8
0
10
64.7631932094656
20
34.1672539717586
30
0
0
VERTEX
8
0
10
65.3741667303096
20
34.2649987122437
30
0
0
VERTEX
8
0
10
65.9851402511536
20
34.3616929605998
30
0
0
VERTEX
8
0
10
66.5961137719977
20
34.4539984792772
30
0
0
VERTEX
8
0
10
67.2070872928417
20
34.5412191627082
30
0
0
VERTEX
8
0
10
67.8180608136857
20
34.6275066437724
30
0
0
VERTEX
8
0
10
68.4290343345297
20
34.713861631858
30
0
0
VERTEX
8
0
10
69.0400078553737
20
34.7901475874981
30
0
0
VERTEX
8
0
10
69.6509813762177
20
34.8670168846894
30
0
0
VERTEX
8
0
10
70.2619548970617
20
34.9469374721196
30
0
0
VERTEX
8
0
10
70.8729284179057
20
35.0154951893929
30
0
0
VERTEX
8
0
10
71.4839019387498
20
35.0802614276376
30
0
0
VERTEX
8
0
10
72.0948754595938
20
35.145048471579
30
0
0
VERTEX
8
0
10
72.7058489804378
20
35.2086200559922
30
0
0
VERTEX
8
0
10
73.3168225012818
20
35.267299254559
30
0
0
VERTEX
8
0
10
73.9277960221258
20
35.3223786456462
30
0
0
VERTEX
8
0
10
74.5387695429698
20
35.3760197590435
30
0
0
VERTEX
8
0
10
75.1497430638138
20
35.4282067684575
30
0
0
VERTEX
8
0
10
75.7607165846579
20
35.4732689007863
30
0
0
VERTEX
8
0
10
76.3716901055019
20
35.5177281717615
30
0
0
VERTEX
8
0
10
76.9826636263459
20
35.5630749287014
30
0
0
VERTEX
8
0
10
77.5936371471899
20
35.6008308562816
30
0
0
VERTEX
8
0
10
78.2046106680339
20
35.633798788407
30
0
0
VERTEX
8
0
10
78.8155841888779
20
35.6665611169902
30
0
0
VERTEX
8
0
10
79.4265577097219
20
35.6979113909749
30
0
0
VERTEX
8
0
10
80.037531230566
20
35.7243022066057
30
0
0
VERTEX
8
0
10
80.64850475141
20
35.7479473495119
30
0
0
VERTEX
8
0
10
81.259478272254
20
35.7698008458488
30
0
0
VERTEX
8
0
10
81.870451793098
20
35.7893243678017
30
0
0
VERTEX
8
0
10
82.481425313942
20
35.803629581299
30
0
0
VERTEX
8
0
10
83.092398834786
20
35.8165576533069
30
0
0
VERTEX
8
0
10
83.70337235563
20
35.8289654658469
30
0
0
VERTEX
8
0
10
84.3143458764741
20
35.8361578303878
30
0
0
VERTEX
8
0
10
84.9253193973181
20
35.8382583401191
30
0
0
VERTEX
8
0
10
85.5362929181621
20
35.8398337024052
30
0
0
VERTEX
8
0
10
86.1472664390061
20
35.8397977441998
30
0
0
VERTEX
8
0
10
86.7582399598501
20
35.8349968673392
30
0
0
VERTEX
8
0
10
87.3692134806941
20
35.8279093242953
30
0
0
VERTEX
8
0
10
87.9801870015381
20
35.8187882174328
30
0
0
VERTEX
8
0
10
88.5911605223822
20
35.8068845968088
30
0
0
VERTEX
8
0
10
89.2021340432262
20
35.7909886743279
30
0
0
VERTEX
8
0
10
89.8131075640702
20
35.7732255011561
30
0
0
VERTEX
8
0
10
90.4240810849142
20
35.7540508681655
30
0
0
VERTEX
8
0
10
91.0350546057582
20
35.7311218697279
30
0
0
VERTEX
8
0
10
91.6460281266022
20
35.7032273723815
30
0
0
VERTEX
8
0
10
92.2570016474462
20
35.6744603821956
30
0
0
VERTEX
8
0
10
92.8679751682902
20
35.6439032827436
30
0
0
VERTEX
8
0
10
93.4789486891343
20
35.6089344003995
30
0
0
VERTEX
8
0
10
94.0899222099783
20
35.5718982549035
30
0
0
VERTEX
8
0
10
94.7008957308223
20
35.5326787617068
30
0
0
VERTEX
8
0
10
95.3118692516663
20
35.4905119300998
30
0
0
VERTEX
8
0
10
95.9228427725103
20
35.4451357417401
30
0
0
VERTEX
8
0
10
96.5338162933543
20
35.3976114478083
30
0
0
VERTEX
8
0
10
97.1447898141983
20
35.34815284352
30
0
0
VERTEX
8
0
10
97.7557633350424
20
35.2958092031458
30
0
0
VERTEX
8
0
10
98.3667368558864
20
35.2388962561058
30
0
0
VERTEX
8
0
10
98.9777103767304
20
35.1807867438066
30
0
0
VERTEX
8
0
10
99.5886838975744
20
35.1207536845876
30
0
0
VERTEX
8
0
10
100.199657418418
20
35.056763920464
30
0
0
VERTEX
8
0
10
100.810630939262
20
34.9908001549095
30
0
0
VERTEX
8
0
10
101.421604460107
20
34.9225943463102
30
0
0
VERTEX
8
0
10
102.032577980951
20
34.8514861639966
30
0
0
VERTEX
8
0
10
102.643551501795
20
34.7776801160127
30
0
0
VERTEX
8
0
10
103.254525022639
20
34.7016181877908
30
0
0
VERTEX
8
0
10
103.865498543483
20
34.623382192982
30
0
0
VERTEX
8
0
10
104.476472064327
20
34.5427718810132
30
0
0
VERTEX
8
0
10
105.087445585171
20
34.4581661960685
30
0
0
VERTEX
8
0
10
105.698419106015
20
34.3721153600398
30
0
0
VERTEX
8
0
10
106.309392626859
20
34.2840886332483
30
0
0
VERTEX
8
0
10
106.920366147703
20
34.192642502262
30
0
0
VERTEX
8
0
10
107.531339668547
20
34.0992882924064
30
0
0
VERTEX
8
0
10
108.142313189391
20
34.0037461807943
30
0
0
VERTEX
8
0
10
108.753286710235
20
33.905525764889
30
0
0
VERTEX
8
0
10
109.364260231079
20
33.8049912864622
30
0
0
VERTEX
8
0
10
109.975233751923
20
33.7022681344166
30
0
0
VERTEX
8
0
10
110.586207272767
20
33.5973833213828
30
0
0
VERTEX
8
0
10
111.197180793611
20
33.4904702972376
30
0
0
VERTEX
8
0
10
111.808154314455
20
33.380278989306
30
0
0
VERTEX
8
0
10
112.419127835299
20
33.2685422865466
30
0
0
VERTEX
8
0
10
113.030101356143
20
33.1549216990447
30
0
0
VERTEX
8
0
10
113.641074876987
20
33.0385245045831
30
0
0
VERTEX
8
0
10
114.252048397831
20
32.9203716141092
30
0
0
VERTEX
8
0
10
114.863021918675
20
32.8002593474832
30
0
0
VERTEX
8
0
10
115.473995439519
20
32.6778974251339
30
0
0
VERTEX
8
0
10
116.084968960363
20
32.553633610694
30
0
0
VERTEX
8
0
10
116.695942481207
20
32.4274813734172
30
0
0
VERTEX
8
0
10
117.306916002051
20
32.2994702616843
30
0
0
VERTEX
8
0
10
117.917889522895
20
32.1698208251821
30
0
0
VERTEX
8
0
10
118.528863043739
20
32.0377931894691
30
0
0
VERTEX
8
0
10
119.139836564583
20
31.9044011579279
30
0
0
VERTEX
8
0
10
119.750810085427
20
31.7694926606053
30
0
0
VERTEX
8
0
10
120.361783606271
20
31.632658049673
30
0
0
VERTEX
8
0
10
120.972757127115
20
31.4944908403422
30
0
0
VERTEX
8
0
10
121.583730647959
20
31.3549198683475
30
0
0
VERTEX
8
0
10
122.194704168803
20
31.2138644999663
30
0
0
VERTEX
8
0
10
122.805677689647
20
31.0715926110431
30
0
0
VERTEX
8
0
10
123.416651210491
20
30.9281482329093
30
0
0
VERTEX
8
0
10
124.027624731335
20
30.7836189595266
30
0
0
VERTEX
8
0
10
124.638598252179
20
30.6382158784438
30
0
0
VERTEX
8
0
10
125.249571773023
20
30.491724112466
30
0
0
VERTEX
8
0
10
125.860545293868
20
30.3446440981432
30
0
0
VERTEX
8
0
10
126.471518814712
20
30.1970248305586
30
0
0
VERTEX
8
0
10
127.082492335556
20
30.0488671435304
30
0
0
VERTEX
8
0
10
127.6934658564
20
29.9005093823206
30
0
0
VERTEX
8
0
10
128.304439377244
20
29.7520809164585
30
0
0
VERTEX
8
0
10
128.915412898088
20
29.6037455777125
30
0
0
VERTEX
8
0
10
129.526386418932
20
29.4557822642713
30
0
0
VERTEX
8
0
10
130.137359939776
20
29.3084275329647
30
0
0
VERTEX
8
0
10
130.74833346062
20
29.1619698777804
30
0
0
VERTEX
8
0
10
131.359306981464
20
29.0167607819972
30
0
0
VERTEX
8
0
10
131.970280502308
20
28.8731570308955
30
0
0
VERTEX
8
0
10
132.581254023152
20
28.7316761932132
30
0
0
VERTEX
8
0
10
133.192227543996
20
28.592901315638
30
0
0
VERTEX
8
0
10
133.80320106484
20
28.4575830558656
30
0
0
VERTEX
8
0
10
134.414174585684
20
28.3265722254184
30
0
0
VERTEX
8
0
10
135.025148106528
20
28.2003740060064
30
0
0
VERTEX
8
0
10
135.636121627372
20
28.0787508060397
30
0
0
VERTEX
8
0
10
136.247095148216
20
27.9611102247928
30
0
0
VERTEX
8
0
10
136.85806866906
20
27.8469240213461
30
0
0
VERTEX
8
0
10
137.469042189904
20
27.7357937874053
30
0
0
VERTEX
8
0
10
138.080015710748
20
27.6274167934665
30
0
0
VERTEX
8
0
10
138.690989231592
20
27.5215544398713
30
0
0
VERTEX
8
0
10
139.301962752436
20
27.4180122896095
30
0
0
VERTEX
8
0
10
139.91293627328
20
27.3166277002114
30
0
0
VERTEX
8
0
10
140.523909794124
20
27.2172618530931
30
0
0
VERTEX
8
0
10
141.134883314968
20
27.1197943705995
30
0
0
VERTEX
8
0
10
141.745856835812
20
27.0241195262551
30
0
0
VERTEX
8
0
10
142.356830356656
20
26.9301434826415
30
0
0
VERTEX
8
0
10
142.9678038775
20
26.8377822198617
30
0
0
VERTEX
8
0
10
143.578777398344
20
26.7469599445018
30
0
0
VERTEX
8
0
10
144.189750919188
20
26.6576078428612
30
0
0
VERTEX
8
0
10
144.800724440032
20
26.5696630870611
30
0
0
VERTEX
8
0
10
145.411697960876
20
26.4830680309113
30
0
0
VERTEX
8
0
10
146.02267148172
20
26.3977695508349
30
0
0
VERTEX
8
0
10
146.633645002564
20
26.3137184994906
30
0
0
VERTEX
8
0
10
147.244618523408
20
26.2308692482172
30
0
0
VERTEX
8
0
10
147.855592044252
20
26.149179300378
30
0
0
VERTEX
8
0
10
148.466565565096
20
26.0686089619515
30
0
0
VERTEX
8
0
10
149.07753908594
20
25.9891210588179
30
0
0
VERTEX
8
0
10
149.688512606784
20
25.9106806924972
30
0
0
VERTEX
8
0
10
150.299486127629
20
25.8332550278127
30
0
0
VERTEX
8
0
10
150.910459648473
20
25.756813107275
30
0
0
VERTEX
8
0
10
151.521433169317
20
25.6813256879834
30
0
0
VERTEX
8
0
10
152.132406690161
20
25.6067650976315
30
0
0
VERTEX
8
0
10
152.743380211005
20
25.5331051068179
30
0
0
SEQEND
8
0
0
POLYLINE
8
0
62
3
70
0
10
0
20
0
30
0
0
VERTEX
8
0
10
6.10973520844016
20
10.0189806169811
30
0
0
VERTEX
8
0
10
6.72070872928418
20
10.2381027496806
30
0
0
VERTEX
8
0
10
7.3316822501282
20
10.7795046858499
30
0
0
VERTEX
8
0
10
7.94265577097221
20
12.5570531927215
30
0
0
VERTEX
8
0
10
8.55362929181623
20
12.6656872498801
30
0
0
VERTEX
8
0
10
9.16460281266025
20
13.3813918921399
30
0
0
VERTEX
8
0
10
9.77557633350426
20
14.9294152925732
30
0
0
VERTEX
8
0
10
10.3865498543483
20
14.8837914102864
30
0
0
VERTEX
8
0
10
10.9975233751923
20
15.814829520755
30
0
0
VERTEX
8
0
10
11.6084968960363
20
16.5125934742369
30
0
0
VERTEX
8
0
10
12.2194704168803
20
17.1633505276521
30
0
0
VERTEX
8
0
10
12.8304439377243
20
18.1267082031735
30
0
0
VERTEX
8
0
10
13.4414174585684
20
18.7203786735339
30
0
0
VERTEX
8
0
10
14.0523909794124
20
19.3841724201022
30
0
0
VERTEX
8
0
10
14.6633645002564
20
20.3424268268814
30
0
0
VERTEX
8
0
10
15.2743380211004
20
20.8584108605067
30
0
0
VERTEX
8
0
10
15.8853115419444
20
21.5381148177373
30
0
0
VERTEX
8
0
10
16.4962850627884
20
22.4758905560088
30
0
0
VERTEX
8
0
10
17.1072585836325
20
22.912282723653
30
0
0
VERTEX
8
0
10
17.7182321044765
20
23.6248355588212
30
0
0
VERTEX
8
0
10
18.3292056253205
20
24.2775753161663
30
0
0
VERTEX
8
0
10
18.9401791461645
20
24.9168748267574
30
0
0
VERTEX
8
0
10
19.5511526670085
20
25.6461542117817
30
0
0
VERTEX
8
0
10
20.1621261878526
20
26.2474155126849
30
0
0
VERTEX
8
0
10
20.7730997086966
20
26.8728405879492
30
0
0
VERTEX
8
0
10
21.3840732295406
20
27.604371765016
30
0
0
VERTEX
8
0
10
21.9950467503846
20
28.1588918156324
30
0
0
VERTEX
8
0
10
22.6060202712286
20
28.7766650369521
30
0
0
VERTEX
8
0
10
23.2169937920726
20
29.5017476945233
30
0
0
VERTEX
8
0
10
23.8279673129166
20
30.0157934361577
30
0
0
VERTEX
8
0
10
24.4389408337607
20
30.6270706744012
30
0
0
VERTEX
8
0
10
25.0499143546047
20
31.2200312571076
30
0
0
VERTEX
8
0
10
25.6608878754487
20
31.8086299481505
30
0
0
VERTEX
8
0
10
26.2718613962927
20
32.4238838280998
30
0
0
VERTEX
8
0
10
26.8828349171367
20
32.9844389016506
30
0
0
VERTEX
8
0
10
27.4938084379807
20
33.5546990685694
30
0
0
VERTEX
8
0
10
28.1047819588248
20
34.1674776660475
30
0
0
VERTEX
8
0
10
28.7157554796688
20
34.6962357896134
30
0
0
VERTEX
8
0
10
29.3267290005128
20
35.252636233588
30
0
0
VERTEX
8
0
10
29.9377025213568
20
35.8584888604544
30
0
0
VERTEX
8
0
10
30.5486760422008
20
36.3643973370511
30
0
0
VERTEX
8
0
10
31.1596495630448
20
36.901851824917
30
0
0
VERTEX
8
0
10
31.7706230838888
20
37.4353049360789
30
0
0
VERTEX
8
0
10
32.3815966047328
20
37.967519655913
30
0
0
VERTEX
8
0
10
32.9925701255769
20
38.5022167086279
30
0
0
VERTEX
8
0
10
33.6035436464209
20
39.0119567275708
30
0
0
VERTEX
8
0
10
34.2145171672649
20
39.525246990304
30
0
0
VERTEX
8
0
10
34.8254906881089
20
40.0538765230357
30
0
0
VERTEX
8
0
10
35.4364642089529
20
40.5395538351207
30
0
0
VERTEX
8
0
10
36.0474377297969
20
41.0370352743613
30
0
0
VERTEX
8
0
10
36.6584112506409
20
41.5571398694927
30
0
0
VERTEX
8
0
10
37.269384771485
20
42.028383905419
30
0
0
VERTEX
8
0
10
37.880358292329
20
42.5026662707895
30
0
0
VERTEX
8
0
10
38.491331813173
20
42.9785685444316
30
0
0
VERTEX
8
0
10
39.102305334017
20
43.4543193584693
30
0
0
VERTEX
8
0
10
39.713278854861
20
43.9221366121971
30
0
0
VERTEX
8
0
10
40.324252375705
20
44.3788910911811
30
0
0
VERTEX
8
0
10
40.935225896549
20
44.8361030622267
30
0
0
VERTEX
8
0
10
41.5461994173931
20
45.2955851577267
30
0
0
VERTEX
8
0
10
42.1571729382371
20
45.7326536229446
30
0
0
VERTEX
8
0
10
42.7681464590811
20
46.1735490318815
30
0
0
VERTEX
8
0
10
43.3791199799251
20
46.6232449009757
30
0
0
VERTEX
8
0
10
43.9900935007691
20
47.050037744698
30
0
0
VERTEX
8
0
10
44.6010670216131
20
47.4666299113349
30
0
0
VERTEX
8
0
10
45.2120405424571
20
47.8869869941204
30
0
0
VERTEX
8
0
10
45.8230140633012
20
48.3074465545255
30
0
0
VERTEX
8
0
10
46.4339875841452
20
48.7154308105401
30
0
0
VERTEX
8
0
10
47.0449611049892
20
49.1192790660344
30
0
0
VERTEX
8
0
10
47.6559346258332
20
49.5218666082206
30
0
0
VERTEX
8
0
10
48.2669081466772
20
49.9201170568596
30
0
0
VERTEX
8
0
10
48.8778816675212
20
50.3069420157634
30
0
0
VERTEX
8
0
10
49.4888551883653
20
50.6932923929599
30
0
0
VERTEX
8
0
10
50.0998287092093
20
51.0809115366661
30
0
0
VERTEX
8
0
10
50.7108022300533
20
51.4594772815242
30
0
0
VERTEX
8
0
10
51.3217757508973
20
51.8218056668621
30
0
0
VERTEX
8
0
10
51.9327492717413
20
52.1884620338351
30
0
0
VERTEX
8
0
10
52.5437227925853
20
52.5551006812458
30
0
0
VERTEX
8
0
10
53.1546963134293
20
52.9075539783914
30
0
0
VERTEX
8
0
10
53.7656698342733
20
53.2593444501721
30
0
0
VERTEX
8
0
10
54.3766433551174
20
53.608860671454
30
0
0
VERTEX
8
0
10
54.9876168759614
20
53.9507350294943
30
0
0
VERTEX
8
0
10
55.5985903968054
20
54.2872258243025
30
0
0
VERTEX
8
0
10
56.2095639176494
20
54.6208586838107
30
0
0
VERTEX
8
0
10
56.8205374384934
20
54.9515852869691
30
0
0
VERTEX
8
0
10
57.4315109593374
20
55.2806931490426
30
0
0
VERTEX
8
0
10
58.0424844801815
20
55.5912502862674
30
0
0
VERTEX
8
0
10
58.6534580010255
20
55.9059239447048
30
0
0
VERTEX
8
0
10
59.2644315218695
20
56.2202879242722
30
0
0
VERTEX
8
0
10
59.8754050427135
20
56.5202344739447
30
0
0
VERTEX
8
0
10
60.4863785635575
20
56.8211386892685
30
0
0
VERTEX
8
0
10
61.0973520844015
20
57.1191547338616
30
0
0
VERTEX
8
0
10
61.7083256052455
20
57.4080457129047
30
0
0
VERTEX
8
0
10
62.3192991260895
20
57.6948373913992
30
0
0
VERTEX
8
0
10
62.9302726469336
20
57.9774720747663
30
0
0
VERTEX
8
0
10
63.5412461677776
20
58.254948074017
30
0
0
VERTEX
8
0
10
64.1522196886216
20
58.5346115402641
30
0
0
VERTEX
8
0
10
64.7631932094656
20
58.795456841968
30
0
0
VERTEX
8
0
10
65.3741667303096
20
59.0598189509139
30
0
0
VERTEX
8
0
10
65.9851402511536
20
59.3235078585233
30
0
0
VERTEX
8
0
10
66.5961137719977
20
59.5733588933354
30
0
0
VERTEX
8
0
10
67.2070872928417
20
59.8247439976656
30
0
0
VERTEX
8
0
10
67.8180608136857
20
60.0728742919982
30
0
0
VERTEX
8
0
10
68.4290343345297
20
60.3114570512914
30
0
0
VERTEX
8
0
10
69.0400078553737
20
60.5496093389467
30
0
0
VERTEX
8
0
10
69.6509813762177
20
60.7829578088287
30
0
0
VERTEX
8
0
10
70.2619548970617
20
61.0100562417213
30
0
0
VERTEX
8
0
10
70.8729284179057
20
61.2410062073439
30
0
0
VERTEX
8
0
10
71.4839019387498
20
61.4540370497451
30
0
0
VERTEX
8
0
10
72.0948754595938
20
61.6697999318302
30
0
0
VERTEX
8
0
10
72.7058489804378
20
61.8845101295779
30
0
0
VERTEX
8
0
10
73.3168225012818
20
62.0864197944735
30
0
0
VERTEX
8
0
10
73.9277960221258
20
62.289839441573
30
0
0
VERTEX
8
0
10
74.5387695429698
20
62.4898045655881
30
0
0
VERTEX
8
0
10
75.1497430638138
20
62.6804412655767
30
0
0
VERTEX
8
0
10
75.7607165846579
20
62.8713436564631
30
0
0
VERTEX
8
0
10
76.3716901055019
20
63.0572090036601
30
0
0
VERTEX
8
0
10
76.9826636263459
20
63.23646312806
30
0
0
VERTEX
8
0
10
77.5936371471899
20
63.4199415547468
30
0
0
VERTEX
8
0
10
78.2046106680339
20
63.5870733453065
30
0
0
VERTEX
8
0
10
78.8155841888779
20
63.7560847180554
30
0
0
VERTEX
8
0
10
79.4265577097219
20
63.92368340386
30
0
0
VERTEX
8
0
10
80.037531230566
20
64.0797772161767
30
0
0
VERTEX
8
0
10
80.64850475141
20
64.2370186161801
30
0
0
VERTEX
8
0
10
81.259478272254
20
64.3907300025206
30
0
0
VERTEX
8
0
10
81.870451793098
20
64.5357298397672
30
0
0
VERTEX
8
0
10
82.481425313942
20
64.6811056140808
30
0
0
VERTEX
8
0
10
83.092398834786
20
64.8214871496122
30
0
0
VERTEX
8
0
10
83.70337235563
20
64.9553704091857
30
0
0
VERTEX
8
0
10
84.3143458764741
20
65.0930788617329
30
0
0
VERTEX
8
0
10
84.9253193973181
20
65.2163938822253
30
0
0
VERTEX
8
0
10
85.5362929181621
20
65.3407440810385
30
0
0
VERTEX
8
0
10
86.1472664390061
20
65.4633680630099
30
0
0
VERTEX
8
0
10
86.7582399598501
20
65.5759232086159
30
0
0
VERTEX
8
0
10
87.3692134806941
20
65.6890928037314
30
0
0
VERTEX
8
0
10
87.9801870015381
20
65.7987604285285
30
0
0
VERTEX
8
0
10
88.5911605223822
20
65.9005832992014
30
0
0
VERTEX
8
0
10
89.2021340432262
20
66.0025555043344
30
0
0
VERTEX
8
0
10
89.8131075640702
20
66.0997716910303
30
0
0
VERTEX
8
0
10
90.4240810849142
20
66.1909191151125
30
0
0
VERTEX
8
0
10
91.0350546057582
20
66.2850597080518
30
0
0
VERTEX
8
0
10
91.6460281266022
20
66.366957533671
30
0
0
VERTEX
8
0
10
92.2570016474462
20
66.4491106099224
30
0
0
VERTEX
8
0
10
92.8679751682902
20
66.5292955025916
30
0
0
VERTEX
8
0
10
93.4789486891343
20
66.6009157012664
30
0
0
VERTEX
8
0
10
94.0899222099783
20
66.672564157629
30
0
0
VERTEX
8
0
10
94.7008957308223
20
66.7408364121261
30
0
0
VERTEX
8
0
10
95.3118692516663
20
66.8022885788709
30
0
0
VERTEX
8
0
10
95.9228427725103
20
66.8635002817797
30
0
0
VERTEX
8
0
10
96.5338162933543
20
66.9203439044241
30
0
0
VERTEX
8
0
10
97.1447898141983
20
66.9717662518139
30
0
0
VERTEX
8
0
10
97.7557633350424
20
67.0251561837121
30
0
0
VERTEX
8
0
10
98.3667368558864
20
67.0685307158882
30
0
0
VERTEX
8
0
10
98.9777103767304
20
67.1114949652591
30
0
0
VERTEX
8
0
10
99.5886838975744
20
67.152348438627
30
0
0
VERTEX
8
0
10
100.199657418418
20
67.1861646270507
30
0
0
VERTEX
8
0
10
100.810630939262
20
67.2194630846957
30
0
0
VERTEX
8
0
10
101.421604460107
20
67.2496153031761
30
0
0
VERTEX
8
0
10
102.032577980951
20
67.2740728333671
30
0
0
VERTEX
8
0
10
102.643551501795
20
67.2978709044357
30
0
0
VERTEX
8
0
10
103.254525022639
20
67.3178170145632
30
0
0
VERTEX
8
0
10
103.865498543483
20
67.333146971294
30
0
0
VERTEX
8
0
10
104.476472064327
20
67.3494122054856
30
0
0
VERTEX
8
0
10
105.087445585171
20
67.3578828704439
30
0
0
VERTEX
8
0
10
105.698419106015
20
67.3654445910469
30
0
0
VERTEX
8
0
10
106.309392626859
20
67.3708873838928
30
0
0
VERTEX
8
0
10
106.920366147703
20
67.3708174365744
30
0
0
VERTEX
8
0
10
107.531339668547
20
67.3698095621657
30
0
0
VERTEX
8
0
10
108.142313189391
20
67.366009046062
30
0
0
VERTEX
8
0
10
108.753286710235
20
67.3577076928806
30
0
0
VERTEX
8
0
10
109.364260231079
20
67.3484164451056
30
0
0
VERTEX
8
0
10
109.975233751923
20
67.3359164264832
30
0
0
VERTEX
8
0
10
110.586207272767
20
67.3197312837409
30
0
0
VERTEX
8
0
10
111.197180793611
20
67.3036078563173
30
0
0
VERTEX
8
0
10
111.808154314455
20
67.2818462549702
30
0
0
VERTEX
8
0
10
112.419127835299
20
67.2589079358667
30
0
0
VERTEX
8
0
10
113.030101356143
20
67.2340257415546
30
0
0
VERTEX
8
0
10
113.641074876987
20
67.2051433177295
30
0
0
VERTEX
8
0
10
114.252048397831
20
67.1751210334277
30
0
0
VERTEX
8
0
10
114.863021918675
20
67.1428207262434
30
0
0
VERTEX
8
0
10
115.473995439519
20
67.1072729368351
30
0
0
VERTEX
8
0
10
116.084968960363
20
67.0706148025768
30
0
0
VERTEX
8
0
10
116.695942481207
20
67.0315409288668
30
0
0
VERTEX
8
0
10
117.306916002051
20
66.9898359284309
30
0
0
VERTEX
8
0
10
117.917889522895
20
66.9476486938115
30
0
0
VERTEX
8
0
10
118.528863043739
20
66.9018821414926
30
0
0
VERTEX
8
0
10
119.139836564583
20
66.8549918678494
30
0
0
VERTEX
8
0
10
119.750810085427
20
66.8065919497565
30
0
0
VERTEX
8
0
10
120.361783606271
20
66.7557089528981
30
0
0
VERTEX
8
0
10
120.972757127115
20
66.7038228219665
30
0
0
VERTEX
8
0
10
121.583730647959
20
66.6504057705393
30
0
0
VERTEX
8
0
10
122.194704168803
20
66.5950817973312
30
0
0
VERTEX
8
0
10
122.805677689647
20
66.538891524486
30
0
0
VERTEX
8
0
10
123.416651210491
20
66.4812958252935
30
0
0
VERTEX
8
0
10
124.027624731335
20
66.4222929941225
30
0
0
VERTEX
8
0
10
124.638598252179
20
66.362811837585
30
0
0
VERTEX
8
0
10
125.249571773023
20
66.3017315831933
30
0
0
VERTEX
8
0
10
125.860545293868
20
66.2400590253194
30
0
0
VERTEX
8
0
10
126.471518814712
20
66.1777200401347
30
0
0
VERTEX
8
0
10
127.082492335556
20
66.114512229893
30
0
0
VERTEX
8
0
10
127.6934658564
20
66.0509912416161
30
0
0
VERTEX
8
0
10
128.304439377244
20
65.9870974114252
30
0
0
VERTEX
8
0
10
128.915412898088
20
65.9228725268827
30
0
0
VERTEX
8
0
10
129.526386418932
20
65.8586879688816
30
0
0
VERTEX
8
0
10
130.137359939776
20
65.7945634179662
30
0
0
VERTEX
8
0
10
130.74833346062
20
65.730676451489
30
0
0
VERTEX
8
0
10
131.359306981464
20
65.6673329613474
30
0
0
VERTEX
8
0
10
131.970280502308
20
65.6046103862557
30
0
0
VERTEX
8
0
10
132.581254023152
20
65.5428622118619
30
0
0
VERTEX
8
0
10
133.192227543996
20
65.4823689422709
30
0
0
VERTEX
8
0
10
133.80320106484
20
65.4234950235624
30
0
0
VERTEX
8
0
10
134.414174585684
20
65.3666513878906
30
0
0
VERTEX
8
0
10
135.025148106528
20
65.3120720026619
30
0
0
VERTEX
8
0
10
135.636121627372
20
65.2596519119913
30
0
0
VERTEX
8
0
10
136.247095148216
20
65.2091225154955
30
0
0
VERTEX
8
0
10
136.85806866906
20
65.1602421903567
30
0
0
VERTEX
8
0
10
137.469042189904
20
65.1128270311745
30
0
0
VERTEX
8
0
10
138.080015710748
20
65.066736095179
30
0
0
VERTEX
8
0
10
138.690989231592
20
65.0218574501885
30
0
0
VERTEX
8
0
10
139.301962752436
20
64.9780992751908
30
0
0
VERTEX
8
0
10
139.91293627328
20
64.9353843171728
30
0
0
VERTEX
8
0
10
140.523909794124
20
64.8936463013718
30
0
0
VERTEX
8
0
10
141.134883314968
20
64.8528274958885
30
0
0
VERTEX
8
0
10
141.745856835812
20
64.8128769896632
30
0
0
VERTEX
8
0
10
142.356830356656
20
64.7737494321855
30
0
0
VERTEX
8
0
10
142.9678038775
20
64.7354040845396
30
0
0
VERTEX
8
0
10
143.578777398344
20
64.6978040877795
30
0
0
VERTEX
8
0
10
144.189750919188
20
64.6609158875103
30
0
0
VERTEX
8
0
10
144.800724440032
20
64.6247087735631
30
0
0
VERTEX
8
0
10
145.411697960876
20
64.589154506293
30
0
0
VERTEX
8
0
10
146.02267148172
20
64.5542270092896
30
0
0
VERTEX
8
0
10
146.633645002564
20
64.519902113831
30
0
0
VERTEX
8
0
10
147.244618523408
20
64.4861573442314
30
0
0
VERTEX
8
0
10
147.855592044252
20
64.4529717359194
30
0
0
VERTEX
8
0
10
148.466565565096
20
64.4203256800139
30
0
0
VERTEX
8
0
10
149.07753908594
20
64.3882007895686
30
0
0
VERTEX
8
0
10
149.688512606784
20
64.3565797837055
30
0
0
VERTEX
8
0
10
150.299486127629
20
64.3254463866355
30
0
0
VERTEX
8
0
10
150.910459648473
20
64.29478523917
30
0
0
VERTEX
8
0
10
151.521433169317
20
64.2645818207835
30
0
0
VERTEX
8
0
10
152.132406690161
20
64.2348223806464
30
0
0
VERTEX
8
0
10
152.743380211005
20
64.2054938763321
30
0
0
SEQEND
8
0
0
POLYLINE
8
0
62
4
70
0
10
0
20
0
30
0
0
VERTEX
8
0
10
6.10973520844016
20
6.99439577173247
30
0
0
VERTEX
8
0
10
6.72070872928418
20
7.9914373687101
30
0
0
VERTEX
8
0
10
7.3316822501282
20
9.02553576819774
30
0
0
VERTEX
8
0
10
7.94265577097221
20
10.10187104732
30
0
0
VERTEX
8
0
10
8.55362929181623
20
11.2226042959988
30
0
0
VERTEX
8
0
10
9.16460281266025
20
12.3545728458019
30
0
0
VERTEX
8
0
10
9.77557633350426
20
13.3596433127837
30
0
0
VERTEX
8
0
10
10.3865498543483
20
14.4290409374132
30
0
0
VERTEX
8
0
10
10.9975233751923
20
15.4740750788714
30
0
0
VERTEX
8
0
10
11.6084968960363
20
16.1784826571543
30
0
0
VERTEX
8
0
10
12.2194704168803
20
16.997083948344
30
0
0
VERTEX
8
0
10
12.8304439377243
20
17.796915566623
30
0
0
VERTEX
8
0
10
13.4414174585684
20
18.5826237337965
30
0
0
VERTEX
8
0
10
14.0523909794124
20
19.3451127527336
30
0
0
VERTEX
8
0
10
14.6633645002564
20
20.0920267029952
30
0
0
VERTEX
8
0
10
15.2743380211004
20
20.8506575204671
30
0
0
VERTEX
8
0
10
15.8853115419444
20
21.6021994241693
30
0
0
VERTEX
8
0
10
16.4962850627884
20
22.2109680481149
30
0
0
VERTEX
8
0
10
17.1072585836325
20
22.8658935224068
30
0
0
VERTEX
8
0
10
17.7182321044765
20
23.491923716283
30
0
0
VERTEX
8
0
10
18.3292056253205
20
24.126849141277
30
0
0
VERTEX
8
0
10
18.9401791461645
20
24.7598683623353
30
0
0
VERTEX
8
0
10
19.5511526670085
20
25.3739716840589
30
0
0
VERTEX
8
0
10
20.1621261878526
20
25.9986574832408
30
0
0
VERTEX
8
0
10
20.7730997086966
20
26.6209664010182
30
0
0
VERTEX
8
0
10
21.3840732295406
20
27.2438208270443
30
0
0
VERTEX
8
0
10
21.9950467503846
20
27.890873085152
30
0
0
VERTEX
8
0
10
22.6060202712286
20
28.5306426734818
30
0
0
VERTEX
8
0
10
23.2169937920726
20
29.1575058135645
30
0
0
VERTEX
8
0
10
23.8279673129166
20
29.806666850351
30
0
0
VERTEX
8
0
10
24.4389408337607
20
30.3961262341207
30
0
0
VERTEX
8
0
10
25.0499143546047
20
30.9998193217651
30
0
0
VERTEX
8
0
10
25.6608878754487
20
31.6055078681272
30
0
0
VERTEX
8
0
10
26.2718613962927
20
32.1930695569418
30
0
0
VERTEX
8
0
10
26.8828349171367
20
32.6791896268817
30
0
0
VERTEX
8
0
10
27.4938084379807
20
33.1545877976249
30
0
0
VERTEX
8
0
10
28.1047819588248
20
33.6155575028837
30
0
0
VERTEX
8
0
10
28.7157554796688
20
34.0890018906512
30
0
0
VERTEX
8
0
10
29.3267290005128
20
34.5845749597931
30
0
0
VERTEX
8
0
10
29.9377025213568
20
35.0866316280751
30
0
0
VERTEX
8
0
10
30.5486760422008
20
35.6104550924069
30
0
0
VERTEX
8
0
10
31.1596495630448
20
36.1065118547722
30
0
0
VERTEX
8
0
10
31.7706230838888
20
36.6102793246882
30
0
0
VERTEX
8
0
10
32.3815966047328
20
37.3256142026507
30
0
0
VERTEX
8
0
10
32.9925701255769
20
37.9778861558791
30
0
0
VERTEX
8
0
10
33.6035436464209
20
38.639612255839
30
0
0
VERTEX
8
0
10
34.2145171672649
20
39.298758977205
30
0
0
VERTEX
8
0
10
34.8254906881089
20
39.9451454142938
30
0
0
VERTEX
8
0
10
35.4364642089529
20
40.6025465242928
30
0
0
VERTEX
8
0
10
36.0474377297969
20
41.2532534519176
30
0
0
VERTEX
8
0
10
36.6584112506409
20
41.8923704095408
30
0
0
VERTEX
8
0
10
37.269384771485
20
42.5071789288597
30
0
0
VERTEX
8
0
10
37.880358292329
20
43.0711780180326
30
0
0
VERTEX
8
0
10
38.491331813173
20
43.6416975631017
30
0
0
VERTEX
8
0
10
39.102305334017
20
44.2134337054228
30
0
0
VERTEX
8
0
10
39.713278854861
20
44.7692847606949
30
0
0
VERTEX
8
0
10
40.324252375705
20
45.2546455758425
30
0
0
VERTEX
8
0
10
40.935225896549
20
45.7558556173757
30
0
0
VERTEX
8
0
10
41.5461994173931
20
46.2436540231232
30
0
0
VERTEX
8
0
10
42.1571729382371
20
46.7408866327304
30
0
0
VERTEX
8
0
10
42.7681464590811
20
47.1137117814589
30
0
0
VERTEX
8
0
10
43.3791199799251
20
47.4746662610038
30
0
0
VERTEX
8
0
10
43.9900935007691
20
47.8536443388161
30
0
0
VERTEX
8
0
10
44.6010670216131
20
48.2094949907623
30
0
0
VERTEX
8
0
10
45.2120405424571
20
48.5683189713903
30
0
0
VERTEX
8
0
10
45.8230140633012
20
48.9268748027868
30
0
0
VERTEX
8
0
10
46.4339875841452
20
49.2709804686467
30
0
0
VERTEX
8
0
10
47.0449611049892
20
49.6226483994634
30
0
0
VERTEX
8
0
10
47.6559346258332
20
49.9718495175313
30
0
0
VERTEX
8
0
10
48.2669081466772
20
50.3484641416285
30
0
0
VERTEX
8
0
10
48.8778816675212
20
50.7235792982188
30
0
0
VERTEX
8
0
10
49.4888551883653
20
51.092513899106
30
0
0
VERTEX
8
0
10
50.0998287092093
20
51.451096209569
30
0
0
VERTEX
8
0
10
50.7108022300533
20
51.8509169373508
30
0
0
VERTEX
8
0
10
51.3217757508973
20
52.2283792624494
30
0
0
VERTEX
8
0
10
51.9327492717413
20
52.610843586092
30
0
0
VERTEX
8
0
10
52.5437227925853
20
52.9938626455033
30
0
0
VERTEX
8
0
10
53.1546963134293
20
53.3975046083686
30
0
0
VERTEX
8
0
10
53.7656698342733
20
53.8222156449989
30
0
0
VERTEX
8
0
10
54.3766433551174
20
54.2440799710163
30
0
0
VERTEX
8
0
10
54.9876168759614
20
54.6543358846796
30
0
0
VERTEX
8
0
10
55.5985903968054
20
55.07200587229
30
0
0
VERTEX
8
0
10
56.2095639176494
20
55.4710079900809
30
0
0
VERTEX
8
0
10
56.8205374384934
20
55.8638637207184
30
0
0
VERTEX
8
0
10
57.4315109593374
20
56.2706088035507
30
0
0
VERTEX
8
0
10
58.0424844801815
20
56.6576983335901
30
0
0
VERTEX
8
0
10
58.6534580010255
20
57.0212732103351
30
0
0
VERTEX
8
0
10
59.2644315218695
20
57.3864206812555
30
0
0
VERTEX
8
0
10
59.8754050427135
20
57.7391912178457
30
0
0
VERTEX
8
0
10
60.4863785635575
20
58.0971940869428
30
0
0
VERTEX
8
0
10
61.0973520844015
20
58.405089776716
30
0
0
VERTEX
8
0
10
61.7083256052455
20
58.6851439648067
30
0
0
VERTEX
8
0
10
62.3192991260895
20
58.9715510477996
30
0
0
VERTEX
8
0
10
62.9302726469336
20
59.2525384099773
30
0
0
VERTEX
8
0
10
63.5412461677776
20
59.5248671647438
30
0
0
VERTEX
8
0
10
64.1522196886216
20
59.6760712282683
30
0
0
VERTEX
8
0
10
64.7631932094656
20
59.84900977617
30
0
0
VERTEX
8
0
10
65.3741667303096
20
60.0258877876807
30
0
0
VERTEX
8
0
10
65.9851402511536
20
60.2032187946929
30
0
0
VERTEX
8
0
10
66.5961137719977
20
60.3910391882019
30
0
0
VERTEX
8
0
10
67.2070872928417
20
60.5819286080765
30
0
0
VERTEX
8
0
10
67.8180608136857
20
60.7704500040817
30
0
0
VERTEX
8
0
10
68.4290343345297
20
60.9497928523238
30
0
0
VERTEX
8
0
10
69.0400078553737
20
61.1403615242869
30
0
0
VERTEX
8
0
10
69.6509813762177
20
61.3278246714651
30
0
0
VERTEX
8
0
10
70.2619548970617
20
61.5075727802609
30
0
0
VERTEX
8
0
10
70.8729284179057
20
61.6978032292144
30
0
0
VERTEX
8
0
10
71.4839019387498
20
61.8725861206834
30
0
0
VERTEX
8
0
10
72.0948754595938
20
61.9894853453947
30
0
0
VERTEX
8
0
10
72.7058489804378
20
62.1251247777247
30
0
0
VERTEX
8
0
10
73.3168225012818
20
62.2512350119967
30
0
0
VERTEX
8
0
10
73.9277960221258
20
62.3813208143668
30
0
0
VERTEX
8
0
10
74.5387695429698
20
62.4613155513802
30
0
0
VERTEX
8
0
10
75.1497430638138
20
62.5386637558257
30
0
0
VERTEX
8
0
10
75.7607165846579
20
62.6211108067398
30
0
0
VERTEX
8
0
10
76.3716901055019
20
62.6996276128737
30
0
0
VERTEX
8
0
10
76.9826636263459
20
62.748466263048
30
0
0
VERTEX
8
0
10
77.5936371471899
20
62.8009149423926
30
0
0
VERTEX
8
0
10
78.2046106680339
20
62.8406551963544
30
0
0
VERTEX
8
0
10
78.8155841888779
20
62.8834678913839
30
0
0
VERTEX
8
0
10
79.4265577097219
20
62.9267021851943
30
0
0
VERTEX
8
0
10
80.037531230566
20
62.9084968212766
30
0
0
VERTEX
8
0
10
80.64850475141
20
62.9118649512964
30
0
0
VERTEX
8
0
10
81.259478272254
20
62.9141819201116
30
0
0
VERTEX
8
0
10
81.870451793098
20
62.9104146749411
30
0
0
VERTEX
8
0
10
82.481425313942
20
63.0060734222559
30
0
0
VERTEX
8
0
10
83.092398834786
20
63.0854426058559
30
0
0
VERTEX
8
0
10
83.70337235563
20
63.1588286517657
30
0
0
VERTEX
8
0
10
84.3143458764741
20
63.2394988411449
30
0
0
VERTEX
8
0
10
84.9253193973181
20
63.3766966021143
30
0
0
VERTEX
8
0
10
85.5362929181621
20
63.5295051062501
30
0
0
VERTEX
8
0
10
86.1472664390061
20
63.6813620563115
30
0
0
VERTEX
8
0
10
86.7582399598501
20
63.8254633626207
30
0
0
VERTEX
8
0
10
87.3692134806941
20
63.9765692380015
30
0
0
VERTEX
8
0
10
87.9801870015381
20
64.1302184233312
30
0
0
VERTEX
8
0
10
88.5911605223822
20
64.2772709367044
30
0
0
VERTEX
8
0
10
89.2021340432262
20
64.4265950470202
30
0
0
VERTEX
8
0
10
89.8131075640702
20
64.5719741965646
30
0
0
VERTEX
8
0
10
90.4240810849142
20
64.7300311902722
30
0
0
VERTEX
8
0
10
91.0350546057582
20
64.8903289601006
30
0
0
VERTEX
8
0
10
91.6460281266022
20
65.0407496697786
30
0
0
VERTEX
8
0
10
92.2570016474462
20
65.1918082231829
30
0
0
VERTEX
8
0
10
92.8679751682902
20
65.3096660562397
30
0
0
VERTEX
8
0
10
93.4789486891343
20
65.4158188997615
30
0
0
VERTEX
8
0
10
94.0899222099783
20
65.5230222465352
30
0
0
VERTEX
8
0
10
94.7008957308223
20
65.6278681977563
30
0
0
VERTEX
8
0
10
95.3118692516663
20
65.7093947842141
30
0
0
VERTEX
8
0
10
95.9228427725103
20
65.7768855799449
30
0
0
VERTEX
8
0
10
96.5338162933543
20
65.8410697574892
30
0
0
VERTEX
8
0
10
97.1447898141983
20
65.9007560426041
30
0
0
VERTEX
8
0
10
97.7557633350424
20
65.9639561351788
30
0
0
VERTEX
8
0
10
98.3667368558864
20
66.0317036423053
30
0
0
VERTEX
8
0
10
98.9777103767304
20
66.0974226137456
30
0
0
VERTEX
8
0
10
99.5886838975744
20
66.1619365956376
30
0
0
VERTEX
8
0
10
100.199657418418
20
66.2213179771252
30
0
0
VERTEX
8
0
10
100.810630939262
20
66.2889931746545
30
0
0
VERTEX
8
0
10
101.421604460107
20
66.3555096185967
30
0
0
VERTEX
8
0
10
102.032577980951
20
66.4176579077083
30
0
0
VERTEX
8
0
10
102.643551501795
20
66.4804248498295
30
0
0
VERTEX
8
0
10
103.254525022639
20
66.5403387198355
30
0
0
VERTEX
8
0
10
103.865498543483
20
66.5965808489596
30
0
0
VERTEX
8
0
10
104.476472064327
20
66.6548627588125
30
0
0
VERTEX
8
0
10
105.087445585171
20
66.7071934755766
30
0
0
VERTEX
8
0
10
105.698419106015
20
66.7592038959496
30
0
0
VERTEX
8
0
10
106.309392626859
20
66.7772046173173
30
0
0
VERTEX
8
0
10
106.920366147703
20
66.7977651837271
30
0
0
VERTEX
8
0
10
107.531339668547
20
66.8182644133644
30
0
0
VERTEX
8
0
10
108.142313189391
20
66.836967373476
30
0
0
VERTEX
8
0
10
108.753286710235
20
66.9281189982821
30
0
0
VERTEX
8
0
10
109.364260231079
20
67.0257231574888
30
0
0
VERTEX
8
0
10
109.975233751923
20
67.1211081824997
30
0
0
VERTEX
8
0
10
110.586207272767
20
67.2137846698648
30
0
0
VERTEX
8
0
10
111.197180793611
20
67.3270305939315
30
0
0
VERTEX
8
0
10
111.808154314455
20
67.449392153422
30
0
0
VERTEX
8
0
10
112.419127835299
20
67.5714242696801
30
0
0
VERTEX
8
0
10
113.030101356143
20
67.6925260937744
30
0
0
VERTEX
8
0
10
113.641074876987
20
67.8110922416169
30
0
0
VERTEX
8
0
10
114.252048397831
20
67.8690892892823
30
0
0
VERTEX
8
0
10
114.863021918675
20
67.9386866173922
30
0
0
VERTEX
8
0
10
115.473995439519
20
68.0060006246589
30
0
0
VERTEX
8
0
10
116.084968960363
20
68.0729703980362
30
0
0
VERTEX
8
0
10
116.695942481207
20
68.1125842126502
30
0
0
VERTEX
8
0
10
117.306916002051
20
68.1490465933195
30
0
0
VERTEX
8
0
10
117.917889522895
20
68.1855899424773
30
0
0
VERTEX
8
0
10
118.528863043739
20
68.2195158721457
30
0
0
VERTEX
8
0
10
119.139836564583
20
68.1992603776122
30
0
0
VERTEX
8
0
10
119.750810085427
20
68.1469921685095
30
0
0
VERTEX
8
0
10
120.361783606271
20
68.0931742001022
30
0
0
VERTEX
8
0
10
120.972757127115
20
68.0389729129588
30
0
0
VERTEX
8
0
10
121.583730647959
20
67.9838969496549
30
0
0
VERTEX
8
0
10
122.194704168803
20
67.8863484587362
30
0
0
VERTEX
8
0
10
122.805677689647
20
67.7984931192816
30
0
0
VERTEX
8
0
10
123.416651210491
20
67.7099994808475
30
0
0
VERTEX
8
0
10
124.027624731335
20
67.6208196155368
30
0
0
VERTEX
8
0
10
124.638598252179
20
67.6148780647233
30
0
0
VERTEX
8
0
10
125.249571773023
20
67.6087654502885
30
0
0
VERTEX
8
0
10
125.860545293868
20
67.6020831303902
30
0
0
VERTEX
8
0
10
126.471518814712
20
67.5947342595919
30
0
0
VERTEX
8
0
10
127.082492335556
20
67.6095418465251
30
0
0
VERTEX
8
0
10
127.6934658564
20
67.6355548007107
30
0
0
VERTEX
8
0
10
128.304439377244
20
67.6609900667556
30
0
0
VERTEX
8
0
10
128.915412898088
20
67.6858179308911
30
0
0
VERTEX
8
0
10
129.526386418932
20
67.7102805123716
30
0
0
VERTEX
8
0
10
130.137359939776
20
67.7242755627364
30
0
0
VERTEX
8
0
10
130.74833346062
20
67.74041059913
30
0
0
VERTEX
8
0
10
131.359306981464
20
67.7562910288355
30
0
0
VERTEX
8
0
10
131.970280502308
20
67.7718464928679
30
0
0
VERTEX
8
0
10
132.581254023152
20
67.7897512151934
30
0
0
VERTEX
8
0
10
133.192227543996
20
67.8074559668144
30
0
0
VERTEX
8
0
10
133.80320106484
20
67.8250562924771
30
0
0
VERTEX
8
0
10
134.414174585684
20
67.8426094378527
30
0
0
VERTEX
8
0
10
135.025148106528
20
67.8296719333353
30
0
0
VERTEX
8
0
10
135.636121627372
20
67.8034173248132
30
0
0
VERTEX
8
0
10
136.247095148216
20
67.7771924273955
30
0
0
VERTEX
8
0
10
136.85806866906
20
67.750998526334
30
0
0
VERTEX
8
0
10
137.469042189904
20
67.7248359106425
30
0
0
VERTEX
8
0
10
138.080015710748
20
67.6662893906349
30
0
0
VERTEX
8
0
10
138.690989231592
20
67.6166770187212
30
0
0
VERTEX
8
0
10
139.301962752436
20
67.5671790598947
30
0
0
VERTEX
8
0
10
139.91293627328
20
67.5177957661917
30
0
0
VERTEX
8
0
10
140.523909794124
20
67.4698194944589
30
0
0
VERTEX
8
0
10
141.134883314968
20
67.4218907599352
30
0
0
VERTEX
8
0
10
141.745856835812
20
67.3740717352397
30
0
0
VERTEX
8
0
10
142.356830356656
20
67.3263626541397
30
0
0
VERTEX
8
0
10
142.9678038775
20
67.2769899596637
30
0
0
VERTEX
8
0
10
143.578777398344
20
67.2270734765563
30
0
0
VERTEX
8
0
10
144.189750919188
20
67.1772793012621
30
0
0
VERTEX
8
0
10
144.800724440032
20
67.1276077059594
30
0
0
VERTEX
8
0
10
145.411697960876
20
67.0780589629611
30
0
0
VERTEX
8
0
10
146.02267148172
20
67.0743556196543
30
0
0
VERTEX
8
0
10
146.633645002564
20
67.057467870253
30
0
0
VERTEX
8
0
10
147.244618523408
20
67.0405944900882
30
0
0
VERTEX
8
0
10
147.855592044252
20
67.0237354900123
30
0
0
VERTEX
8
0
10
148.466565565096
20
67.0420633225804
30
0
0
VERTEX
8
0
10
149.07753908594
20
67.0577321470292
30
0
0
VERTEX
8
0
10
149.688512606784
20
67.0734133611322
30
0
0
VERTEX
8
0
10
150.299486127629
20
67.089106956202
30
0
0
VERTEX
8
0
10
150.910459648473
20
67.1075670169094
30
0
0
VERTEX
8
0
10
151.521433169317
20
67.1269170756081
30
0
0
VERTEX
8
0
10
152.132406690161
20
67.1462858440975
30
0
0
VERTEX
8
0
10
152.743380211005
20
67.1656733061915
30
0
0
SEQEND
8
0
0
ENDSEC
0
EOF
