0
SECTION
2
HEADER
9
$ACADVER
1
AC1009
0
ENDSEC
0
SECTION
2
ENTITIES
0
POLYLINE
8
0
62
0
70
1
10
0
20
0
30
0
0
VERTEX
8
0
10
0
20
0
30
0
0
VERTEX
8
0
10
0
20
143.352
30
0
0
VERTEX
8
0
10
179.2
20
143.352
30
0
0
VERTEX
8
0
10
179.2
20
0
30
0
0
SEQEND
8
0
0
TEXT
8
0
62
0
10
0
20
-12
30
0
40
8
1
0
50
0
0
LINE
8
0
62
0
10
8.96
20
0
30
0
11
8.96
21
3.2
31
0
0
LINE
8
0
62
0
10
8.96
20
143.352
30
0
11
8.96
21
140.152
31
0
0
LINE
8
0
62
0
10
17.92
20
0
30
0
11
17.92
21
3.2
31
0
0
LINE
8
0
62
0
10
17.92
20
143.352
30
0
11
17.92
21
140.152
31
0
0
LINE
8
0
62
0
10
26.88
20
0
30
0
11
26.88
21
3.2
31
0
0
LINE
8
0
62
0
10
26.88
20
143.352
30
0
11
26.88
21
140.152
31
0
0
LINE
8
0
62
0
10
35.84
20
0
30
0
11
35.84
21
3.2
31
0
0
LINE
8
0
62
0
10
35.84
20
143.352
30
0
11
35.84
21
140.152
31
0
0
LINE
8
0
62
0
10
44.8
20
0
30
0
11
44.8
21
6.4
31
0
0
LINE
8
0
62
0
10
44.8
20
143.352
30
0
11
44.8
21
136.952
31
0
0
TEXT
8
0
62
0
10
44.8
20
-12
30
0
40
8
1
5
50
0
0
LINE
8
0
62
0
10
53.76
20
0
30
0
11
53.76
21
3.2
31
0
0
LINE
8
0
62
0
10
53.76
20
143.352
30
0
11
53.76
21
140.152
31
0
0
LINE
8
0
62
0
10
62.72
20
0
30
0
11
62.72
21
3.2
31
0
0
LINE
8
0
62
0
10
62.72
20
143.352
30
0
11
62.72
21
140.152
31
0
0
LINE
8
0
62
0
10
71.68
20
0
30
0
11
71.68
21
3.2
31
0
0
LINE
8
0
62
0
10
71.68
20
143.352
30
0
11
71.68
21
140.152
31
0
0
LINE
8
0
62
0
10
80.64
20
0
30
0
11
80.64
21
3.2
31
0
0
LINE
8
0
62
0
10
80.64
20
143.352
30
0
11
80.64
21
140.152
31
0
0
LINE
8
0
62
0
10
89.6
20
0
30
0
11
89.6
21
6.4
31
0
0
LINE
8
0
62
0
10
89.6
20
143.352
30
0
11
89.6
21
136.952
31
0
0
TEXT
8
0
62
0
10
89.6
20
-12
30
0
40
8
1
10
50
0
0
LINE
8
0
62
0
10
98.56
20
0
30
0
11
98.56
21
3.2
31
0
0
LINE
8
0
62
0
10
98.56
20
143.352
30
0
11
98.56
21
140.152
31
0
0
LINE
8
0
62
0
10
107.52
20
0
30
0
11
107.52
21
3.2
31
0
0
LINE
8
0
62
0
10
107.52
20
143.352
30
0
11
107.52
21
140.152
31
0
0
LINE
8
0
62
0
10
116.48
20
0
30
0
11
116.48
21
3.2
31
0
0
LINE
8
0
62
0
10
116.48
20
143.352
30
0
11
116.48
21
140.152
31
0
0
LINE
8
0
62
0
10
125.44
20
0
30
0
11
125.44
21
3.2
31
0
0
LINE
8
0
62
0
10
125.44
20
143.352
30
0
11
125.44
21
140.152
31
0
0
LINE
8
0
62
0
10
134.4
20
0
30
0
11
134.4
21
6.4
31
0
0
LINE
8
0
62
0
10
134.4
20
143.352
30
0
11
134.4
21
136.952
31
0
0
TEXT
8
0
62
0
10
134.4
20
-12
30
0
40
8
1
15
50
0
0
LINE
8
0
62
0
10
143.36
20
0
30
0
11
143.36
21
3.2
31
0
0
LINE
8
0
62
0
10
143.36
20
143.352
30
0
11
143.36
21
140.152
31
0
0
LINE
8
0
62
0
10
152.32
20
0
30
0
11
152.32
21
3.2
31
0
0
LINE
8
0
62
0
10
152.32
20
143.352
30
0
11
152.32
21
140.152
31
0
0
LINE
8
0
62
0
10
161.28
20
0
30
0
11
161.28
21
3.2
31
0
0
LINE
8
0
62
0
10
161.28
20
143.352
30
0
11
161.28
21
140.152
31
0
0
LINE
8
0
62
0
10
170.24
20
0
30
0
11
170.24
21
3.2
31
0
0
LINE
8
0
62
0
10
170.24
20
143.352
30
0
11
170.24
21
140.152
31
0
0
LINE
8
0
62
0
10
179.2
20
0
30
0
11
179.2
21
6.4
31
0
0
LINE
8
0
62
0
10
179.2
20
143.352
30
0
11
179.2
21
136.952
31
0
0
TEXT
8
0
62
0
10
179.2
20
-12
30
0
40
8
1
20
50
0
0
TEXT
8
0
62
0
10
-4
20
-4
30
0
40
8
1
0
50
0
0
LINE
8
0
62
0
10
0
20
8.19154285714286
30
0
11
3.2
21
8.19154285714286
31
0
0
LINE
8
0
62
0
10
179.2
20
8.19154285714286
30
0
11
176
21
8.19154285714286
31
0
0
LINE
8
0
62
0
10
0
20
16.3830857142857
30
0
11
3.2
21
16.3830857142857
31
0
0
LINE
8
0
62
0
10
179.2
20
16.3830857142857
30
0
11
176
21
16.3830857142857
31
0
0
LINE
8
0
62
0
10
0
20
24.5746285714286
30
0
11
3.2
21
24.5746285714286
31
0
0
LINE
8
0
62
0
10
179.2
20
24.5746285714286
30
0
11
176
21
24.5746285714286
31
0
0
LINE
8
0
62
0
10
0
20
32.7661714285714
30
0
11
3.2
21
32.7661714285714
31
0
0
LINE
8
0
62
0
10
179.2
20
32.7661714285714
30
0
11
176
21
32.7661714285714
31
0
0
LINE
8
0
62
0
10
0
20
40.9577142857143
30
0
11
6.4
21
40.9577142857143
31
0
0
LINE
8
0
62
0
10
179.2
20
40.9577142857143
30
0
11
172.8
21
40.9577142857143
31
0
0
TEXT
8
0
62
0
10
-4
20
36.9577142857143
30
0
40
8
1
40
50
0
0
LINE
8
0
62
0
10
0
20
49.1492571428571
30
0
11
3.2
21
49.1492571428571
31
0
0
LINE
8
0
62
0
10
179.2
20
49.1492571428571
30
0
11
176
21
49.1492571428571
31
0
0
LINE
8
0
62
0
10
0
20
57.3408
30
0
11
3.2
21
57.3408
31
0
0
LINE
8
0
62
0
10
179.2
20
57.3408
30
0
11
176
21
57.3408
31
0
0
LINE
8
0
62
0
10
0
20
65.5323428571429
30
0
11
3.2
21
65.5323428571429
31
0
0
LINE
8
0
62
0
10
179.2
20
65.5323428571429
30
0
11
176
21
65.5323428571429
31
0
0
LINE
8
0
62
0
10
0
20
73.7238857142857
30
0
11
3.2
21
73.7238857142857
31
0
0
LINE
8
0
62
0
10
179.2
20
73.7238857142857
30
0
11
176
21
73.7238857142857
31
0
0
LINE
8
0
62
0
10
0
20
81.9154285714285
30
0
11
6.4
21
81.9154285714285
31
0
0
LINE
8
0
62
0
10
179.2
20
81.9154285714285
30
0
11
172.8
21
81.9154285714285
31
0
0
TEXT
8
0
62
0
10
-4
20
77.9154285714285
30
0
40
8
1
80
50
0
0
LINE
8
0
62
0
10
0
20
90.1069714285714
30
0
11
3.2
21
90.1069714285714
31
0
0
LINE
8
0
62
0
10
179.2
20
90.1069714285714
30
0
11
176
21
90.1069714285714
31
0
0
LINE
8
0
62
0
10
0
20
98.2985142857142
30
0
11
3.2
21
98.2985142857142
31
0
0
LINE
8
0
62
0
10
179.2
20
98.2985142857142
30
0
11
176
21
98.2985142857142
31
0
0
LINE
8
0
62
0
10
0
20
106.490057142857
30
0
11
3.2
21
106.490057142857
31
0
0
LINE
8
0
62
0
10
179.2
20
106.490057142857
30
0
11
176
21
106.490057142857
31
0
0
LINE
8
0
62
0
10
0
20
114.6816
30
0
11
3.2
21
114.6816
31
0
0
LINE
8
0
62
0
10
179.2
20
114.6816
30
0
11
176
21
114.6816
31
0
0
LINE
8
0
62
0
10
0
20
122.873142857143
30
0
11
6.4
21
122.873142857143
31
0
0
LINE
8
0
62
0
10
179.2
20
122.873142857143
30
0
11
172.8
21
122.873142857143
31
0
0
TEXT
8
0
62
0
10
-4
20
118.873142857143
30
0
40
8
1
120
50
0
0
LINE
8
0
62
0
10
0
20
131.064685714286
30
0
11
3.2
21
131.064685714286
31
0
0
LINE
8
0
62
0
10
179.2
20
131.064685714286
30
0
11
176
21
131.064685714286
31
0
0
LINE
8
0
62
0
10
0
20
139.256228571428
30
0
11
3.2
21
139.256228571428
31
0
0
LINE
8
0
62
0
10
179.2
20
139.256228571428
30
0
11
176
21
139.256228571428
31
0
0
TEXT
8
0
62
0
10
89.6
20
-32
30
0
40
10
1
R (kpc)
50
0
0
TEXT
8
0
62
0
10
-24
20
71.676
30
0
40
10
1
V (km/s)
50
90
0
TEXT
8
0
62
0
10
72.6
20
158.352
30
0
40
11
1
V vs. R
50
0
0
POLYLINE
8
0
62
5
70
0
10
0
20
0
30
0
0
VERTEX
8
0
10
1.792
20
12.697132494776
30
0
0
VERTEX
8
0
10
2.688
20
17.9310173863419
30
0
0
VERTEX
8
0
10
3.584
20
21.2422868227746
30
0
0
VERTEX
8
0
10
4.48
20
23.7289790340214
30
0
0
VERTEX
8
0
10
5.376
20
26.061234507077
30
0
0
VERTEX
8
0
10
6.272
20
29.2549647252594
30
0
0
VERTEX
8
0
10
7.168
20
32.1619781551538
30
0
0
VERTEX
8
0
10
8.064
20
34.3495897737968
30
0
0
VERTEX
8
0
10
8.96
20
36.3665435122966
30
0
0
VERTEX
8
0
10
9.856
20
38.3381363413782
30
0
0
VERTEX
8
0
10
10.752
20
40.2527051698251
30
0
0
VERTEX
8
0
10
11.648
20
41.9630912270173
30
0
0
VERTEX
8
0
10
12.544
20
43.6558729489561
30
0
0
VERTEX
8
0
10
13.44
20
45.2994296365457
30
0
0
VERTEX
8
0
10
14.336
20
46.8469055652267
30
0
0
VERTEX
8
0
10
15.232
20
48.3503846123785
30
0
0
VERTEX
8
0
10
16.128
20
49.7439279048764
30
0
0
VERTEX
8
0
10
17.024
20
51.1339191387373
30
0
0
VERTEX
8
0
10
17.92
20
52.2632268425939
30
0
0
VERTEX
8
0
10
18.816
20
53.4147033268054
30
0
0
VERTEX
8
0
10
19.712
20
54.3368597070156
30
0
0
VERTEX
8
0
10
20.608
20
55.2070452079266
30
0
0
VERTEX
8
0
10
21.504
20
56.0772307088377
30
0
0
VERTEX
8
0
10
22.4
20
56.6692990219129
30
0
0
VERTEX
8
0
10
23.296
20
57.2618137714491
30
0
0
VERTEX
8
0
10
24.192
20
57.8543285209853
30
0
0
VERTEX
8
0
10
25.088
20
58.3336516526701
30
0
0
VERTEX
8
0
10
25.984
20
58.8187731038528
30
0
0
VERTEX
8
0
10
26.88
20
59.3038945550356
30
0
0
VERTEX
8
0
10
27.776
20
59.6415187037915
30
0
0
VERTEX
8
0
10
28.672
20
59.9933243363286
30
0
0
VERTEX
8
0
10
29.568
20
60.3451299688657
30
0
0
VERTEX
8
0
10
30.464
20
60.456632022194
30
0
0
VERTEX
8
0
10
31.36
20
60.6010574923934
30
0
0
VERTEX
8
0
10
32.256
20
60.7454829625929
30
0
0
VERTEX
8
0
10
33.152
20
60.9975513943058
30
0
0
VERTEX
8
0
10
34.048
20
61.2308540769357
30
0
0
VERTEX
8
0
10
34.944
20
61.4641567595655
30
0
0
VERTEX
8
0
10
35.84
20
61.5336905414533
30
0
0
VERTEX
8
0
10
36.736
20
61.6373806226221
30
0
0
VERTEX
8
0
10
37.632
20
61.741070703791
30
0
0
VERTEX
8
0
10
38.528
20
61.6254713073178
30
0
0
VERTEX
8
0
10
39.424
20
61.5625166151796
30
0
0
VERTEX
8
0
10
40.32
20
61.4995619230414
30
0
0
VERTEX
8
0
10
41.216
20
61.3099300419898
30
0
0
VERTEX
8
0
10
42.112
20
61.1543949202365
30
0
0
VERTEX
8
0
10
43.008
20
60.9988597984833
30
0
0
VERTEX
8
0
10
43.904
20
60.9275018864887
30
0
0
VERTEX
8
0
10
44.8
20
60.8312182396891
30
0
0
VERTEX
8
0
10
45.696
20
60.7349345928894
30
0
0
VERTEX
8
0
10
46.592
20
60.5841003094569
30
0
0
VERTEX
8
0
10
47.488
20
60.4507844908112
30
0
0
VERTEX
8
0
10
48.384
20
60.2746603124599
30
0
0
VERTEX
8
0
10
49.28
20
60.0598737157531
30
0
0
VERTEX
8
0
10
50.176
20
59.8450871190462
30
0
0
VERTEX
8
0
10
51.072
20
59.6024828287284
30
0
0
VERTEX
8
0
10
51.968
20
59.3395544086218
30
0
0
VERTEX
8
0
10
52.8639999999999
20
59.0766259885151
30
0
0
VERTEX
8
0
10
53.7599999999999
20
58.8090299471307
30
0
0
VERTEX
8
0
10
54.6559999999999
20
58.5386950926549
30
0
0
VERTEX
8
0
10
55.5519999999999
20
58.268360238179
30
0
0
VERTEX
8
0
10
56.4479999999999
20
57.9980253837031
30
0
0
VERTEX
8
0
10
57.3439999999999
20
57.7276905292272
30
0
0
VERTEX
8
0
10
58.2399999999999
20
57.4573556747513
30
0
0
VERTEX
8
0
10
59.1359999999999
20
57.2006297540034
30
0
0
VERTEX
8
0
10
60.0319999999999
20
56.9488109854506
30
0
0
VERTEX
8
0
10
60.9279999999999
20
56.6969922168977
30
0
0
VERTEX
8
0
10
61.8239999999999
20
56.4480892231438
30
0
0
VERTEX
8
0
10
62.7199999999999
20
56.1999736717755
30
0
0
VERTEX
8
0
10
63.6159999999999
20
55.9518581204072
30
0
0
VERTEX
8
0
10
64.5119999999999
20
55.6695351776631
30
0
0
VERTEX
8
0
10
65.4079999999999
20
55.3806842372642
30
0
0
VERTEX
8
0
10
66.3039999999999
20
55.0918332968653
30
0
0
VERTEX
8
0
10
67.1999999999999
20
54.7963748546549
30
0
0
VERTEX
8
0
10
68.0959999999999
20
54.5001174798868
30
0
0
VERTEX
8
0
10
68.9919999999999
20
54.2038601051188
30
0
0
VERTEX
8
0
10
69.8879999999999
20
53.8761230797186
30
0
0
VERTEX
8
0
10
70.7839999999999
20
53.5465367502891
30
0
0
VERTEX
8
0
10
71.6799999999999
20
53.2169504208596
30
0
0
VERTEX
8
0
10
72.5759999999999
20
52.8984392724676
30
0
0
VERTEX
8
0
10
73.4719999999999
20
52.5799625945919
30
0
0
VERTEX
8
0
10
74.3679999999999
20
52.2614859167162
30
0
0
VERTEX
8
0
10
75.2639999999999
20
51.958552099104
30
0
0
VERTEX
8
0
10
76.1599999999999
20
51.6548882899667
30
0
0
VERTEX
8
0
10
77.0559999999999
20
51.3512244808295
30
0
0
VERTEX
8
0
10
77.9519999999999
20
51.0516403748114
30
0
0
VERTEX
8
0
10
78.8479999999999
20
50.7516797828587
30
0
0
VERTEX
8
0
10
79.7439999999999
20
50.4517191909061
30
0
0
VERTEX
8
0
10
80.6399999999998
20
50.1432112166081
30
0
0
VERTEX
8
0
10
81.5359999999998
20
49.8358441902862
30
0
0
VERTEX
8
0
10
82.4319999999998
20
49.5284771639643
30
0
0
VERTEX
8
0
10
83.3279999999998
20
49.1943040622863
30
0
0
VERTEX
8
0
10
84.2239999999998
20
48.8647177328568
30
0
0
VERTEX
8
0
10
85.1199999999998
20
48.5351314034273
30
0
0
VERTEX
8
0
10
86.0159999999998
20
48.2055450739978
30
0
0
VERTEX
8
0
10
86.9119999999998
20
47.8759587445683
30
0
0
VERTEX
8
0
10
87.8079999999998
20
47.5463724151388
30
0
0
VERTEX
8
0
10
88.7039999999998
20
47.245920017706
30
0
0
VERTEX
8
0
10
89.5999999999998
20
46.9385529913841
30
0
0
VERTEX
8
0
10
90.4959999999998
20
46.6311859650622
30
0
0
VERTEX
8
0
10
91.3919999999998
20
46.3288685821265
30
0
0
VERTEX
8
0
10
92.2879999999998
20
46.0252047729892
30
0
0
VERTEX
8
0
10
93.1839999999998
20
45.7215409638519
30
0
0
VERTEX
8
0
10
94.0799999999998
20
45.4598262062309
30
0
0
VERTEX
8
0
10
94.9759999999998
20
45.1857881345704
30
0
0
VERTEX
8
0
10
95.8719999999998
20
44.9117500629099
30
0
0
VERTEX
8
0
10
96.7679999999998
20
44.6866505666857
30
0
0
VERTEX
8
0
10
97.6639999999998
20
44.4459414496866
30
0
0
VERTEX
8
0
10
98.5599999999998
20
44.2225878459428
30
0
0
VERTEX
8
0
10
99.4559999999998
20
44.0152076836051
30
0
0
VERTEX
8
0
10
100.352
20
43.8078275212675
30
0
0
VERTEX
8
0
10
101.248
20
43.6089368725901
30
0
0
VERTEX
8
0
10
102.144
20
43.4163695789908
30
0
0
VERTEX
8
0
10
103.04
20
43.2238022853916
30
0
0
VERTEX
8
0
10
103.936
20
43.0428168241346
30
0
0
VERTEX
8
0
10
104.832
20
42.8687656164584
30
0
0
VERTEX
8
0
10
105.728
20
42.6947144087821
30
0
0
VERTEX
8
0
10
106.624
20
42.5281942646714
30
0
0
VERTEX
8
0
10
107.52
20
42.3652527085489
30
0
0
VERTEX
8
0
10
108.416
20
42.2023111524265
30
0
0
VERTEX
8
0
10
109.312
20
42.0447782814544
30
0
0
VERTEX
8
0
10
110.208
20
41.8892431597012
30
0
0
VERTEX
8
0
10
111.104
20
41.7337080379479
30
0
0
VERTEX
8
0
10
112
20
41.5810712468233
30
0
0
VERTEX
8
0
10
112.896
20
41.4292393422546
30
0
0
VERTEX
8
0
10
113.792
20
41.277407437686
30
0
0
VERTEX
8
0
10
114.688
20
41.1286678517993
30
0
0
VERTEX
8
0
10
115.584
20
40.9805391644153
30
0
0
VERTEX
8
0
10
116.48
20
40.8324104770312
30
0
0
VERTEX
8
0
10
117.376
20
40.6875680963826
30
0
0
VERTEX
8
0
10
118.272
20
40.5431426261831
30
0
0
VERTEX
8
0
10
119.168
20
40.3987171559837
30
0
0
VERTEX
8
0
10
120.064
20
40.2682128649392
30
0
0
VERTEX
8
0
10
120.96
20
40.1386002634781
30
0
0
VERTEX
8
0
10
121.856
20
40.0089876620171
30
0
0
VERTEX
8
0
10
122.752
20
39.8830493433982
30
0
0
VERTEX
8
0
10
123.648
20
39.7571399591217
30
0
0
VERTEX
8
0
10
124.544
20
39.6312305748453
30
0
0
VERTEX
8
0
10
125.44
20
39.5091894614644
30
0
0
VERTEX
8
0
10
126.336
20
39.3869832943725
30
0
0
VERTEX
8
0
10
127.232
20
39.2647771272807
30
0
0
VERTEX
8
0
10
128.128
20
39.1588199959843
30
0
0
VERTEX
8
0
10
129.024
20
39.0514266976309
30
0
0
VERTEX
8
0
10
129.92
20
38.9440333992775
30
0
0
VERTEX
8
0
10
130.816
20
38.8281276069195
30
0
0
VERTEX
8
0
10
131.712
20
38.7133278741969
30
0
0
VERTEX
8
0
10
132.608
20
38.5985281414743
30
0
0
VERTEX
8
0
10
133.504
20
38.4881786438073
30
0
0
VERTEX
8
0
10
134.4
20
38.3770821282692
30
0
0
VERTEX
8
0
10
135.296
20
38.2659856127312
30
0
0
VERTEX
8
0
10
136.192
20
38.1688217665202
30
0
0
VERTEX
8
0
10
137.088
20
38.068834902536
30
0
0
VERTEX
8
0
10
137.984
20
37.9688480385518
30
0
0
VERTEX
8
0
10
138.88
20
37.8640229634051
30
0
0
VERTEX
8
0
10
139.776
20
37.7603328822363
30
0
0
VERTEX
8
0
10
140.672
20
37.6566428010675
30
0
0
VERTEX
8
0
10
141.568
20
37.5428883214671
30
0
0
VERTEX
8
0
10
142.464
20
37.4317918059291
30
0
0
VERTEX
8
0
10
143.36
20
37.320695290391
30
0
0
VERTEX
8
0
10
144.256
20
37.2357297111988
30
0
0
VERTEX
8
0
10
145.152
20
37.1431492815837
30
0
0
VERTEX
8
0
10
146.048
20
37.0505688519687
30
0
0
VERTEX
8
0
10
146.944
20
36.9634085976762
30
0
0
VERTEX
8
0
10
147.84
20
36.8745313852458
30
0
0
VERTEX
8
0
10
148.736
20
36.7875651190067
30
0
0
VERTEX
8
0
10
149.632
20
36.7023911237609
30
0
0
VERTEX
8
0
10
150.528
20
36.617217128515
30
0
0
VERTEX
8
0
10
151.424
20
36.5383579360033
30
0
0
VERTEX
8
0
10
152.32
20
36.4642935923113
30
0
0
VERTEX
8
0
10
153.216
20
36.3902292486192
30
0
0
VERTEX
8
0
10
154.112
20
36.3276595164176
30
0
0
VERTEX
8
0
10
155.008
20
36.2721112586486
30
0
0
VERTEX
8
0
10
155.904
20
36.2165630008796
30
0
0
VERTEX
8
0
10
156.8
20
36.1560289224076
30
0
0
VERTEX
8
0
10
157.696
20
36.0930742302694
30
0
0
VERTEX
8
0
10
158.592
20
36.0301195381312
30
0
0
VERTEX
8
0
10
159.488
20
35.9779124396123
30
0
0
VERTEX
8
0
10
160.384
20
35.9297706162125
30
0
0
VERTEX
8
0
10
161.28
20
35.8816287928127
30
0
0
VERTEX
8
0
10
162.176
20
35.8392487423293
30
0
0
VERTEX
8
0
10
163.072
20
35.7985133532987
30
0
0
VERTEX
8
0
10
163.968
20
35.7577779642681
30
0
0
VERTEX
8
0
10
164.864
20
35.6985933281679
30
0
0
VERTEX
8
0
10
165.76
20
35.6356386360297
30
0
0
VERTEX
8
0
10
166.656
20
35.5726839438914
30
0
0
VERTEX
8
0
10
167.552
20
35.5162669768832
30
0
0
VERTEX
8
0
10
168.448
20
35.4607187191142
30
0
0
VERTEX
8
0
10
169.344
20
35.4051704613451
30
0
0
VERTEX
8
0
10
170.24
20
35.3253822492476
30
0
0
VERTEX
8
0
10
171.136
20
35.2439114711864
30
0
0
VERTEX
8
0
10
172.032
20
35.1624406931252
30
0
0
VERTEX
8
0
10
172.928
20
35.0626857217053
30
0
0
VERTEX
8
0
10
173.824
20
34.962698857721
30
0
0
VERTEX
8
0
10
174.72
20
34.8627119937368
30
0
0
VERTEX
8
0
10
175.616
20
34.743470996127
30
0
0
VERTEX
8
0
10
176.512
20
34.6249680462197
30
0
0
VERTEX
8
0
10
177.408
20
34.5064650963125
30
0
0
SEQEND
8
0
0
POLYLINE
8
0
62
6
70
0
10
0
20
0
30
0
0
VERTEX
8
0
10
1.792
20
2.69463373126914
30
0
0
VERTEX
8
0
10
2.688
20
4.02503213920465
30
0
0
VERTEX
8
0
10
3.584
20
5.21959317965592
30
0
0
VERTEX
8
0
10
4.48
20
6.27882644831026
30
0
0
VERTEX
8
0
10
5.376
20
7.3380597169646
30
0
0
VERTEX
8
0
10
6.272
20
8.20109143364493
30
0
0
VERTEX
8
0
10
7.168
20
9.08019992453414
30
0
0
VERTEX
8
0
10
8.064
20
9.95930841542334
30
0
0
VERTEX
8
0
10
8.96
20
10.6570642507406
30
0
0
VERTEX
8
0
10
9.856
20
11.3940044704762
30
0
0
VERTEX
8
0
10
10.752
20
12.1309446902119
30
0
0
VERTEX
8
0
10
11.648
20
12.730184128258
30
0
0
VERTEX
8
0
10
12.544
20
13.3634342668248
30
0
0
VERTEX
8
0
10
13.44
20
13.9966844053916
30
0
0
VERTEX
8
0
10
14.336
20
14.5225852085702
30
0
0
VERTEX
8
0
10
15.232
20
15.0780677862604
30
0
0
VERTEX
8
0
10
16.128
20
15.6335503639506
30
0
0
VERTEX
8
0
10
17.024
20
16.1041391629671
30
0
0
VERTEX
8
0
10
17.92
20
16.6003702657037
30
0
0
VERTEX
8
0
10
18.816
20
17.0966013684402
30
0
0
VERTEX
8
0
10
19.712
20
17.5323341297515
30
0
0
VERTEX
8
0
10
20.608
20
17.9878298434575
30
0
0
VERTEX
8
0
10
21.504
20
18.4313818366278
30
0
0
VERTEX
8
0
10
22.4
20
18.8646582472262
30
0
0
VERTEX
8
0
10
23.296
20
19.2979346578245
30
0
0
VERTEX
8
0
10
24.192
20
19.7093649869964
30
0
0
VERTEX
8
0
10
25.088
20
20.1056092257487
30
0
0
VERTEX
8
0
10
25.984
20
20.5018534645011
30
0
0
VERTEX
8
0
10
26.88
20
20.8885833184693
30
0
0
VERTEX
8
0
10
27.776
20
21.2700146884832
30
0
0
VERTEX
8
0
10
28.672
20
21.6514460584971
30
0
0
VERTEX
8
0
10
29.568
20
22.0380225970098
30
0
0
VERTEX
8
0
10
30.464
20
22.426860401393
30
0
0
VERTEX
8
0
10
31.36
20
22.8156982057761
30
0
0
VERTEX
8
0
10
32.256
20
23.2377348777926
30
0
0
VERTEX
8
0
10
33.152
20
23.6710112883909
30
0
0
VERTEX
8
0
10
34.048
20
24.1042876989892
30
0
0
VERTEX
8
0
10
34.944
20
24.546445790656
30
0
0
VERTEX
8
0
10
35.84
20
24.9908318528082
30
0
0
VERTEX
8
0
10
36.736
20
25.4352179149603
30
0
0
VERTEX
8
0
10
37.632
20
25.8859130739315
30
0
0
VERTEX
8
0
10
38.528
20
26.3377055704528
30
0
0
VERTEX
8
0
10
39.424
20
26.7894980669742
30
0
0
VERTEX
8
0
10
40.32
20
27.2145022717921
30
0
0
VERTEX
8
0
10
41.216
20
27.6366690308367
30
0
0
VERTEX
8
0
10
42.112
20
28.0588357898812
30
0
0
VERTEX
8
0
10
43.008
20
28.4880875979583
30
0
0
VERTEX
8
0
10
43.904
20
28.9176607913721
30
0
0
VERTEX
8
0
10
44.8
20
29.3472339847858
30
0
0
VERTEX
8
0
10
45.696
20
29.7954897410479
30
0
0
VERTEX
8
0
10
46.592
20
30.2435790203846
30
0
0
VERTEX
8
0
10
47.488
20
30.6916682997214
30
0
0
VERTEX
8
0
10
48.384
20
31.2065760896501
30
0
0
VERTEX
8
0
10
49.28
20
31.7176200611251
30
0
0
VERTEX
8
0
10
50.176
20
32.2286640326
30
0
0
VERTEX
8
0
10
51.072
20
32.7232100493692
30
0
0
VERTEX
8
0
10
51.968
20
33.2194411521058
30
0
0
VERTEX
8
0
10
52.8639999999999
20
33.7156722548423
30
0
0
VERTEX
8
0
10
53.7599999999999
20
34.1341707764421
30
0
0
VERTEX
8
0
10
54.6559999999999
20
34.5637439698558
30
0
0
VERTEX
8
0
10
55.5519999999999
20
34.9933171632696
30
0
0
VERTEX
8
0
10
56.4479999999999
20
35.3732532440681
30
0
0
VERTEX
8
0
10
57.3439999999999
20
35.7620910484512
30
0
0
VERTEX
8
0
10
58.2399999999999
20
36.1509288528343
30
0
0
VERTEX
8
0
10
59.1359999999999
20
36.5162343930345
30
0
0
VERTEX
8
0
10
60.0319999999999
20
36.8865561114946
30
0
0
VERTEX
8
0
10
60.9279999999999
20
37.2568778299547
30
0
0
VERTEX
8
0
10
61.8239999999999
20
37.6517017528647
30
0
0
VERTEX
8
0
10
62.7199999999999
20
38.0405395572478
30
0
0
VERTEX
8
0
10
63.6159999999999
20
38.4293773616309
30
0
0
VERTEX
8
0
10
64.5119999999999
20
38.7163265871472
30
0
0
VERTEX
8
0
10
65.4079999999999
20
39.0311000478383
30
0
0
VERTEX
8
0
10
66.3039999999999
20
39.3458735085294
30
0
0
VERTEX
8
0
10
67.1999999999999
20
39.5707438802762
30
0
0
VERTEX
8
0
10
68.0959999999999
20
39.8225626488291
30
0
0
VERTEX
8
0
10
68.9919999999999
20
40.074381417382
30
0
0
VERTEX
8
0
10
69.8879999999999
20
40.2549289202835
30
0
0
VERTEX
8
0
10
70.7839999999999
20
40.4586058654366
30
0
0
VERTEX
8
0
10
71.6799999999999
20
40.6188729403743
30
0
0
VERTEX
8
0
10
72.5759999999999
20
40.7410791074661
30
0
0
VERTEX
8
0
10
73.4719999999999
20
40.863285274558
30
0
0
VERTEX
8
0
10
74.3679999999999
20
40.9421481622046
30
0
0
VERTEX
8
0
10
75.2639999999999
20
40.9902899856044
30
0
0
VERTEX
8
0
10
76.1599999999999
20
41.0384318090042
30
0
0
VERTEX
8
0
10
77.0559999999999
20
41.0440728959425
30
0
0
VERTEX
8
0
10
77.9519999999999
20
41.0255568100195
30
0
0
VERTEX
8
0
10
78.8479999999999
20
41.0070407240965
30
0
0
VERTEX
8
0
10
79.7439999999999
20
40.927201276277
30
0
0
VERTEX
8
0
10
80.6399999999998
20
40.8198079779236
30
0
0
VERTEX
8
0
10
81.5359999999998
20
40.7124146795702
30
0
0
VERTEX
8
0
10
82.4319999999998
20
40.5527879467011
30
0
0
VERTEX
8
0
10
83.3279999999998
20
40.3750335218403
30
0
0
VERTEX
8
0
10
84.2239999999998
20
40.1972790969794
30
0
0
VERTEX
8
0
10
85.1199999999998
20
39.9842072778892
30
0
0
VERTEX
8
0
10
86.0159999999998
20
39.7620142468131
30
0
0
VERTEX
8
0
10
86.9119999999998
20
39.5398212157371
30
0
0
VERTEX
8
0
10
87.8079999999998
20
39.2925313507477
30
0
0
VERTEX
8
0
10
88.7039999999998
20
39.0407125821949
30
0
0
VERTEX
8
0
10
89.5999999999998
20
38.788893813642
30
0
0
VERTEX
8
0
10
90.4959999999998
20
38.530412860504
30
0
0
VERTEX
8
0
10
91.3919999999998
20
38.2711876575819
30
0
0
VERTEX
8
0
10
92.2879999999998
20
38.0119624546599
30
0
0
VERTEX
8
0
10
93.1839999999998
20
37.7633124927755
30
0
0
VERTEX
8
0
10
94.0799999999998
20
37.5151969414073
30
0
0
VERTEX
8
0
10
94.9759999999998
20
37.267081390039
30
0
0
VERTEX
8
0
10
95.8719999999998
20
37.0338421122679
30
0
0
VERTEX
8
0
10
96.7679999999998
20
36.8005394296381
30
0
0
VERTEX
8
0
10
97.6639999999998
20
36.5672367470082
30
0
0
VERTEX
8
0
10
98.5599999999998
20
36.3613254595471
30
0
0
VERTEX
8
0
10
99.4559999999998
20
36.1539452972094
30
0
0
VERTEX
8
0
10
100.352
20
35.9465651348718
30
0
0
VERTEX
8
0
10
101.248
20
35.7432920170402
30
0
0
VERTEX
8
0
10
102.144
20
35.5396150718871
30
0
0
VERTEX
8
0
10
103.04
20
35.3359381267341
30
0
0
VERTEX
8
0
10
103.936
20
35.1494653118187
30
0
0
VERTEX
8
0
10
104.832
20
34.9606012354041
30
0
0
VERTEX
8
0
10
105.728
20
34.7717371589894
30
0
0
VERTEX
8
0
10
106.624
20
34.6008531650261
30
0
0
VERTEX
8
0
10
107.52
20
34.4268019573498
30
0
0
VERTEX
8
0
10
108.416
20
34.2527507496736
30
0
0
VERTEX
8
0
10
109.312
20
34.0927665679959
30
0
0
VERTEX
8
0
10
110.208
20
33.9298250118735
30
0
0
VERTEX
8
0
10
111.104
20
33.766883455751
30
0
0
VERTEX
8
0
10
112
20
33.6185908897873
30
0
0
VERTEX
8
0
10
112.896
20
33.4667589852187
30
0
0
VERTEX
8
0
10
113.792
20
33.31492708065
30
0
0
VERTEX
8
0
10
114.688
20
33.1732491456273
30
0
0
VERTEX
8
0
10
115.584
20
33.0288236754279
30
0
0
VERTEX
8
0
10
116.48
20
32.8843982052284
30
0
0
VERTEX
8
0
10
117.376
20
32.7610566263343
30
0
0
VERTEX
8
0
10
118.272
20
32.6314440248733
30
0
0
VERTEX
8
0
10
119.168
20
32.5018314234123
30
0
0
VERTEX
8
0
10
120.064
20
32.3831487437107
30
0
0
VERTEX
8
0
10
120.96
20
32.2609425766188
30
0
0
VERTEX
8
0
10
121.856
20
32.138736409527
30
0
0
VERTEX
8
0
10
122.752
20
32.0165302424352
30
0
0
VERTEX
8
0
10
123.648
20
31.8943240753433
30
0
0
VERTEX
8
0
10
124.544
20
31.7721179082515
30
0
0
VERTEX
8
0
10
125.44
20
31.6499117411596
30
0
0
VERTEX
8
0
10
126.336
20
31.5277055740678
30
0
0
VERTEX
8
0
10
127.232
20
31.4101868226865
30
0
0
VERTEX
8
0
10
128.128
20
31.2953870899639
30
0
0
VERTEX
8
0
10
129.024
20
31.1805873572412
30
0
0
VERTEX
8
0
10
129.92
20
31.0708630163359
30
0
0
VERTEX
8
0
10
130.816
20
30.9634697179824
30
0
0
VERTEX
8
0
10
131.712
20
30.856076419629
30
0
0
VERTEX
8
0
10
132.608
20
30.7432197533515
30
0
0
VERTEX
8
0
10
133.504
20
30.6284200206289
30
0
0
VERTEX
8
0
10
134.4
20
30.5136202879063
30
0
0
VERTEX
8
0
10
135.296
20
30.3988205551836
30
0
0
VERTEX
8
0
10
136.192
20
30.284020822461
30
0
0
VERTEX
8
0
10
137.088
20
30.1692210897384
30
0
0
VERTEX
8
0
10
137.984
20
30.0668999972909
30
0
0
VERTEX
8
0
10
138.88
20
29.9669131333066
30
0
0
VERTEX
8
0
10
139.776
20
29.8669262693224
30
0
0
VERTEX
8
0
10
140.672
20
29.7702530534603
30
0
0
VERTEX
8
0
10
141.568
20
29.6739694066607
30
0
0
VERTEX
8
0
10
142.464
20
29.5776857598611
30
0
0
VERTEX
8
0
10
143.36
20
29.4919250215881
30
0
0
VERTEX
8
0
10
144.256
20
29.4067510263422
30
0
0
VERTEX
8
0
10
145.152
20
29.3215770310964
30
0
0
VERTEX
8
0
10
146.048
20
29.2475079085373
30
0
0
VERTEX
8
0
10
146.944
20
29.1734435648453
30
0
0
VERTEX
8
0
10
147.84
20
29.0993792211533
30
0
0
VERTEX
8
0
10
148.736
20
29.0331061020259
30
0
0
VERTEX
8
0
10
149.632
20
28.9664481927031
30
0
0
VERTEX
8
0
10
150.528
20
28.8997902833802
30
0
0
VERTEX
8
0
10
151.424
20
28.8413115747288
30
0
0
VERTEX
8
0
10
152.32
20
28.7820600997752
30
0
0
VERTEX
8
0
10
153.216
20
28.7228086248215
30
0
0
VERTEX
8
0
10
154.112
20
28.667840738257
30
0
0
VERTEX
8
0
10
155.008
20
28.612292480488
30
0
0
VERTEX
8
0
10
155.904
20
28.556744222719
30
0
0
VERTEX
8
0
10
156.8
20
28.5280614236046
30
0
0
VERTEX
8
0
10
157.696
20
28.4947324689432
30
0
0
VERTEX
8
0
10
158.592
20
28.4614035142818
30
0
0
VERTEX
8
0
10
159.488
20
28.4093883016371
30
0
0
VERTEX
8
0
10
160.384
20
28.3612464782373
30
0
0
VERTEX
8
0
10
161.28
20
28.3131046548374
30
0
0
VERTEX
8
0
10
162.176
20
28.299021699282
30
0
0
VERTEX
8
0
10
163.072
20
28.2768023961744
30
0
0
VERTEX
8
0
10
163.968
20
28.2545830930668
30
0
0
VERTEX
8
0
10
164.864
20
28.186827924536
30
0
0
VERTEX
8
0
10
165.76
20
28.131279666767
30
0
0
VERTEX
8
0
10
166.656
20
28.0757314089979
30
0
0
VERTEX
8
0
10
167.552
20
28.0569578518207
30
0
0
VERTEX
8
0
10
168.448
20
28.0273321143439
30
0
0
VERTEX
8
0
10
169.344
20
27.9977063768671
30
0
0
VERTEX
8
0
10
170.24
20
27.9190529890061
30
0
0
VERTEX
8
0
10
171.136
20
27.8560982968679
30
0
0
VERTEX
8
0
10
172.032
20
27.7892670295735
30
0
0
VERTEX
8
0
10
172.928
20
27.718905903066
30
0
0
VERTEX
8
0
10
173.824
20
27.6485447765586
30
0
0
VERTEX
8
0
10
174.72
20
27.5739190987882
30
0
0
VERTEX
8
0
10
175.616
20
27.4961515379116
30
0
0
VERTEX
8
0
10
176.512
20
27.4183839770349
30
0
0
VERTEX
8
0
10
177.408
20
27.3448128133938
30
0
0
SEQEND
8
0
0
POLYLINE
8
0
62
6
70
0
10
0
20
0
30
0
0
VERTEX
8
0
10
1.792
20
15.5762735969388
30
0
0
VERTEX
8
0
10
2.688
20
23.5635992793367
30
0
0
VERTEX
8
0
10
3.584
20
30.152602997449
30
0
0
VERTEX
8
0
10
4.48
20
33.9229640146683
30
0
0
VERTEX
8
0
10
5.376
20
39.227525127551
30
0
0
VERTEX
8
0
10
6.272
20
43.9826883290816
30
0
0
VERTEX
8
0
10
7.168
20
48.2913393061224
30
0
0
VERTEX
8
0
10
8.064
20
51.8981323086735
30
0
0
VERTEX
8
0
10
8.96
20
55.2757723852041
30
0
0
VERTEX
8
0
10
9.856
20
58.9050555612245
30
0
0
VERTEX
8
0
10
10.752
20
62.3136881938776
30
0
0
VERTEX
8
0
10
11.648
20
64.8464382780612
30
0
0
VERTEX
8
0
10
12.544
20
67.8909769438775
30
0
0
VERTEX
8
0
10
13.44
20
70.4977800382653
30
0
0
VERTEX
8
0
10
14.336
20
73.1863157142857
30
0
0
VERTEX
8
0
10
15.232
20
75.6316078220663
30
0
0
VERTEX
8
0
10
16.128
20
77.7100632589286
30
0
0
VERTEX
8
0
10
17.024
20
79.8375254846939
30
0
0
VERTEX
8
0
10
17.92
20
82.0281841836735
30
0
0
VERTEX
8
0
10
18.816
20
83.9992551371174
30
0
0
VERTEX
8
0
10
19.712
20
85.6288213392857
30
0
0
VERTEX
8
0
10
20.608
20
87.2718153635204
30
0
0
VERTEX
8
0
10
21.504
20
89.0939993877551
30
0
0
VERTEX
8
0
10
22.4
20
90.3867925473761
30
0
0
VERTEX
8
0
10
23.296
20
91.6670476311953
30
0
0
VERTEX
8
0
10
24.192
20
93.0006385140306
30
0
0
VERTEX
8
0
10
25.088
20
94.3449063520408
30
0
0
VERTEX
8
0
10
25.984
20
95.4211434336735
30
0
0
VERTEX
8
0
10
26.88
20
96.4965577040816
30
0
0
VERTEX
8
0
10
27.776
20
97.7320212244898
30
0
0
VERTEX
8
0
10
28.672
20
99.0355536734694
30
0
0
VERTEX
8
0
10
29.568
20
99.7801519011816
30
0
0
VERTEX
8
0
10
30.464
20
100.53482858217
30
0
0
VERTEX
8
0
10
31.36
20
101.289505263158
30
0
0
VERTEX
8
0
10
32.256
20
102.201382193878
30
0
0
VERTEX
8
0
10
33.152
20
103.097560752551
30
0
0
VERTEX
8
0
10
34.048
20
103.993739311225
30
0
0
VERTEX
8
0
10
34.944
20
104.889917869898
30
0
0
VERTEX
8
0
10
35.84
20
105.669531505102
30
0
0
VERTEX
8
0
10
36.736
20
106.341665424107
30
0
0
VERTEX
8
0
10
37.632
20
107.013799343112
30
0
0
VERTEX
8
0
10
38.528
20
107.541838446429
30
0
0
VERTEX
8
0
10
39.424
20
108.079545581633
30
0
0
VERTEX
8
0
10
40.32
20
108.617252716837
30
0
0
VERTEX
8
0
10
41.216
20
109.165031670918
30
0
0
VERTEX
8
0
10
42.112
20
109.712696345663
30
0
0
VERTEX
8
0
10
43.008
20
110.260361020408
30
0
0
VERTEX
8
0
10
43.904
20
110.894082797353
30
0
0
VERTEX
8
0
10
44.8
20
111.510205556441
30
0
0
VERTEX
8
0
10
45.696
20
111.917959943878
30
0
0
VERTEX
8
0
10
46.592
20
112.276431367347
30
0
0
VERTEX
8
0
10
47.488
20
112.634902790816
30
0
0
VERTEX
8
0
10
48.384
20
113.090914744898
30
0
0
VERTEX
8
0
10
49.28
20
113.579739413265
30
0
0
VERTEX
8
0
10
50.176
20
114.068564081633
30
0
0
VERTEX
8
0
10
51.072
20
114.55738875
30
0
0
VERTEX
8
0
10
51.968
20
114.866092561224
30
0
0
VERTEX
8
0
10
52.8639999999999
20
115.224563984694
30
0
0
VERTEX
8
0
10
53.7599999999999
20
115.583035408163
30
0
0
VERTEX
8
0
10
54.6559999999999
20
115.898446377551
30
0
0
VERTEX
8
0
10
55.5519999999999
20
116.224329489796
30
0
0
VERTEX
8
0
10
56.4479999999999
20
116.550212602041
30
0
0
VERTEX
8
0
10
57.3439999999999
20
116.897704897959
30
0
0
VERTEX
8
0
10
58.2399999999999
20
117.246218781888
30
0
0
VERTEX
8
0
10
59.1359999999999
20
117.594732665816
30
0
0
VERTEX
8
0
10
60.0319999999999
20
117.867178067602
30
0
0
VERTEX
8
0
10
60.9279999999999
20
118.152325790816
30
0
0
VERTEX
8
0
10
61.8239999999999
20
118.437473514031
30
0
0
VERTEX
8
0
10
62.7199999999999
20
118.746401728316
30
0
0
VERTEX
8
0
10
63.6159999999999
20
119.060064223852
30
0
0
VERTEX
8
0
10
64.5119999999999
20
119.373726719388
30
0
0
VERTEX
8
0
10
65.4079999999999
20
119.602312404337
30
0
0
VERTEX
8
0
10
66.3039999999999
20
119.80598934949
30
0
0
VERTEX
8
0
10
67.1999999999999
20
120.009666294643
30
0
0
VERTEX
8
0
10
68.0959999999999
20
120.213343239796
30
0
0
VERTEX
8
0
10
68.9919999999999
20
120.410651709184
30
0
0
VERTEX
8
0
10
69.8879999999999
20
120.6098025
30
0
0
VERTEX
8
0
10
70.7839999999999
20
120.768961383438
30
0
0
VERTEX
8
0
10
71.6799999999999
20
120.906835007849
30
0
0
VERTEX
8
0
10
72.5759999999999
20
121.044708632261
30
0
0
VERTEX
8
0
10
73.4719999999999
20
121.182582256672
30
0
0
VERTEX
8
0
10
74.3679999999999
20
121.31813249426
30
0
0
VERTEX
8
0
10
75.2639999999999
20
121.452559278061
30
0
0
VERTEX
8
0
10
76.1599999999999
20
121.586986061862
30
0
0
VERTEX
8
0
10
77.0559999999999
20
121.688918035714
30
0
0
VERTEX
8
0
10
77.9519999999999
20
121.770388813776
30
0
0
VERTEX
8
0
10
78.8479999999999
20
121.851859591837
30
0
0
VERTEX
8
0
10
79.7439999999999
20
121.933330369898
30
0
0
VERTEX
8
0
10
80.6399999999998
20
122.014801147959
30
0
0
VERTEX
8
0
10
81.5359999999998
20
122.09627192602
30
0
0
VERTEX
8
0
10
82.4319999999998
20
122.177742704082
30
0
0
VERTEX
8
0
10
83.3279999999998
20
122.187466836735
30
0
0
VERTEX
8
0
10
84.2239999999998
20
122.187466836735
30
0
0
VERTEX
8
0
10
85.1199999999998
20
122.187466836735
30
0
0
VERTEX
8
0
10
86.0159999999998
20
122.187466836735
30
0
0
VERTEX
8
0
10
86.9119999999998
20
122.187466836735
30
0
0
VERTEX
8
0
10
87.8079999999998
20
122.187466836735
30
0
0
VERTEX
8
0
10
88.7039999999998
20
122.161279287186
30
0
0
VERTEX
8
0
10
89.5999999999998
20
122.126810881083
30
0
0
VERTEX
8
0
10
90.4959999999998
20
122.09234247498
30
0
0
VERTEX
8
0
10
91.3919999999998
20
122.057874068878
30
0
0
VERTEX
8
0
10
92.2879999999998
20
122.050331632653
30
0
0
VERTEX
8
0
10
93.1839999999998
20
122.050331632653
30
0
0
VERTEX
8
0
10
94.0799999999998
20
122.050331632653
30
0
0
VERTEX
8
0
10
94.9759999999998
20
122.079691033163
30
0
0
VERTEX
8
0
10
95.8719999999998
20
122.120426422194
30
0
0
VERTEX
8
0
10
96.7679999999998
20
122.161161811224
30
0
0
VERTEX
8
0
10
97.6639999999998
20
122.201897200255
30
0
0
VERTEX
8
0
10
98.5599999999998
20
122.187466836735
30
0
0
VERTEX
8
0
10
99.4559999999998
20
122.187466836735
30
0
0
VERTEX
8
0
10
100.352
20
122.187466836735
30
0
0
VERTEX
8
0
10
101.248
20
122.215236715561
30
0
0
VERTEX
8
0
10
102.144
20
122.255972104592
30
0
0
VERTEX
8
0
10
103.04
20
122.296707493622
30
0
0
VERTEX
8
0
10
103.936
20
122.337442882653
30
0
0
VERTEX
8
0
10
104.832
20
122.390084100765
30
0
0
VERTEX
8
0
10
105.728
20
122.439871798469
30
0
0
VERTEX
8
0
10
106.624
20
122.481068034243
30
0
0
VERTEX
8
0
10
107.52
20
122.515536440345
30
0
0
VERTEX
8
0
10
108.416
20
122.550004846448
30
0
0
VERTEX
8
0
10
109.312
20
122.584473252551
30
0
0
VERTEX
8
0
10
110.208
20
122.656850165816
30
0
0
VERTEX
8
0
10
111.104
20
122.756425561224
30
0
0
VERTEX
8
0
10
112
20
122.856000956633
30
0
0
VERTEX
8
0
10
112.896
20
122.90405541773
30
0
0
VERTEX
8
0
10
113.792
20
122.941396191008
30
0
0
VERTEX
8
0
10
114.688
20
122.978736964286
30
0
0
VERTEX
8
0
10
115.584
20
123.016077737564
30
0
0
VERTEX
8
0
10
116.48
20
123.07498873565
30
0
0
VERTEX
8
0
10
117.376
20
123.130999895568
30
0
0
VERTEX
8
0
10
118.272
20
123.192667882653
30
0
0
VERTEX
8
0
10
119.168
20
123.256680636844
30
0
0
VERTEX
8
0
10
120.064
20
123.320693391035
30
0
0
VERTEX
8
0
10
120.96
20
123.384706145226
30
0
0
VERTEX
8
0
10
121.856
20
123.448718899417
30
0
0
VERTEX
8
0
10
122.752
20
123.479623297194
30
0
0
VERTEX
8
0
10
123.648
20
123.520358686224
30
0
0
VERTEX
8
0
10
124.544
20
123.561094075255
30
0
0
VERTEX
8
0
10
125.44
20
123.653442168367
30
0
0
VERTEX
8
0
10
126.336
20
123.743060024235
30
0
0
VERTEX
8
0
10
127.232
20
123.832677880102
30
0
0
VERTEX
8
0
10
128.128
20
123.833089285714
30
0
0
VERTEX
8
0
10
129.024
20
123.833089285714
30
0
0
VERTEX
8
0
10
129.92
20
123.833089285714
30
0
0
VERTEX
8
0
10
130.816
20
123.917633139031
30
0
0
VERTEX
8
0
10
131.712
20
124.052059922832
30
0
0
VERTEX
8
0
10
132.608
20
124.186486706633
30
0
0
VERTEX
8
0
10
133.504
20
124.244494897959
30
0
0
VERTEX
8
0
10
134.4
20
124.244494897959
30
0
0
VERTEX
8
0
10
135.296
20
124.244494897959
30
0
0
VERTEX
8
0
10
136.192
20
124.244494897959
30
0
0
VERTEX
8
0
10
137.088
20
124.317488227041
30
0
0
VERTEX
8
0
10
137.984
20
124.398959005102
30
0
0
VERTEX
8
0
10
138.88
20
124.480429783163
30
0
0
VERTEX
8
0
10
139.776
20
124.518765306122
30
0
0
VERTEX
8
0
10
140.672
20
124.518765306122
30
0
0
VERTEX
8
0
10
141.568
20
124.518765306122
30
0
0
VERTEX
8
0
10
142.464
20
124.601640681122
30
0
0
VERTEX
8
0
10
143.36
20
124.661385918367
30
0
0
VERTEX
8
0
10
144.256
20
124.721131155612
30
0
0
VERTEX
8
0
10
145.152
20
124.780876392857
30
0
0
VERTEX
8
0
10
146.048
20
124.828725151148
30
0
0
VERTEX
8
0
10
146.944
20
124.873534079082
30
0
0
VERTEX
8
0
10
147.84
20
124.918343007015
30
0
0
VERTEX
8
0
10
148.736
20
124.957655098852
30
0
0
VERTEX
8
0
10
149.632
20
124.99499587213
30
0
0
VERTEX
8
0
10
150.528
20
125.032336645408
30
0
0
VERTEX
8
0
10
151.424
20
125.069677418686
30
0
0
VERTEX
8
0
10
152.32
20
125.162615089286
30
0
0
VERTEX
8
0
10
153.216
20
125.252232945153
30
0
0
VERTEX
8
0
10
154.112
20
125.34185080102
30
0
0
VERTEX
8
0
10
155.008
20
125.423296645408
30
0
0
VERTEX
8
0
10
155.904
20
125.504767423469
30
0
0
VERTEX
8
0
10
156.8
20
125.586238201531
30
0
0
VERTEX
8
0
10
157.696
20
125.615846938776
30
0
0
VERTEX
8
0
10
158.592
20
125.615846938776
30
0
0
VERTEX
8
0
10
159.488
20
125.615846938776
30
0
0
VERTEX
8
0
10
160.384
20
125.707068221644
30
0
0
VERTEX
8
0
10
161.28
20
125.810473439953
30
0
0
VERTEX
8
0
10
162.176
20
125.913878658261
30
0
0
VERTEX
8
0
10
163.072
20
126.01728387657
30
0
0
VERTEX
8
0
10
163.968
20
126.072240516582
30
0
0
VERTEX
8
0
10
164.864
20
126.122028214286
30
0
0
VERTEX
8
0
10
165.76
20
126.17181591199
30
0
0
VERTEX
8
0
10
166.656
20
126.243609707614
30
0
0
VERTEX
8
0
10
167.552
20
126.312546519819
30
0
0
VERTEX
8
0
10
168.448
20
126.381483332025
30
0
0
VERTEX
8
0
10
169.344
20
126.450420144231
30
0
0
VERTEX
8
0
10
170.24
20
126.438658163265
30
0
0
VERTEX
8
0
10
171.136
20
126.438658163265
30
0
0
VERTEX
8
0
10
172.032
20
126.438658163265
30
0
0
VERTEX
8
0
10
172.928
20
126.529105063776
30
0
0
VERTEX
8
0
10
173.824
20
126.610575841837
30
0
0
VERTEX
8
0
10
174.72
20
126.692046619898
30
0
0
VERTEX
8
0
10
175.616
20
126.712928571429
30
0
0
VERTEX
8
0
10
176.512
20
126.712928571429
30
0
0
VERTEX
8
0
10
177.408
20
126.712928571429
30
0
0
SEQEND
8
0
0
POLYLINE
8
0
62
1
70
0
10
0
20
0
30
0
0
VERTEX
8
0
10
1.792
20
12.9799161990973
30
0
0
VERTEX
8
0
10
2.688
20
18.3772214502336
30
0
0
VERTEX
8
0
10
3.584
20
21.8741606106871
30
0
0
VERTEX
8
0
10
4.48
20
24.5456331669205
30
0
0
VERTEX
8
0
10
5.376
20
27.0746203009867
30
0
0
VERTEX
8
0
10
6.272
20
30.3827395370986
30
0
0
VERTEX
8
0
10
7.168
20
33.4191991155099
30
0
0
VERTEX
8
0
10
8.064
20
35.7642578804824
30
0
0
VERTEX
8
0
10
8.96
20
37.8958903507515
30
0
0
VERTEX
8
0
10
9.856
20
39.9954501912823
30
0
0
VERTEX
8
0
10
10.752
20
42.040933535851
30
0
0
VERTEX
8
0
10
11.648
20
43.8515520052179
30
0
0
VERTEX
8
0
10
12.544
20
45.6554117092283
30
0
0
VERTEX
8
0
10
13.44
20
47.412503622362
30
0
0
VERTEX
8
0
10
14.336
20
49.0462846929046
30
0
0
VERTEX
8
0
10
15.232
20
50.6468934914274
30
0
0
VERTEX
8
0
10
16.128
20
52.1427488764039
30
0
0
VERTEX
8
0
10
17.024
20
53.6098963314344
30
0
0
VERTEX
8
0
10
17.92
20
54.8362760675712
30
0
0
VERTEX
8
0
10
18.816
20
56.0840824997787
30
0
0
VERTEX
8
0
10
19.712
20
57.0953331092581
30
0
0
VERTEX
8
0
10
20.608
20
58.0635846556793
30
0
0
VERTEX
8
0
10
21.504
20
59.0285663080155
30
0
0
VERTEX
8
0
10
22.4
20
59.7267509782645
30
0
0
VERTEX
8
0
10
23.296
20
60.4261996029353
30
0
0
VERTEX
8
0
10
24.192
20
61.1194109657867
30
0
0
VERTEX
8
0
10
25.088
20
61.7013001279031
30
0
0
VERTEX
8
0
10
25.984
20
62.2894378279528
30
0
0
VERTEX
8
0
10
26.88
20
62.8751526634124
30
0
0
VERTEX
8
0
10
27.776
20
63.3208044653809
30
0
0
VERTEX
8
0
10
28.672
20
63.7807500845508
30
0
0
VERTEX
8
0
10
29.568
20
64.2433588080948
30
0
0
VERTEX
8
0
10
30.464
20
64.4823109304446
30
0
0
VERTEX
8
0
10
31.36
20
64.7537199998072
30
0
0
VERTEX
8
0
10
32.256
20
65.0384964663947
30
0
0
VERTEX
8
0
10
33.152
20
65.4294891583001
30
0
0
VERTEX
8
0
10
34.048
20
65.8045148638498
30
0
0
VERTEX
8
0
10
34.944
20
66.1843679966657
30
0
0
VERTEX
8
0
10
35.84
20
66.4148834851547
30
0
0
VERTEX
8
0
10
36.736
20
66.6792096563802
30
0
0
VERTEX
8
0
10
37.632
20
66.9480418482994
30
0
0
VERTEX
8
0
10
38.528
20
67.0177099621056
30
0
0
VERTEX
8
0
10
39.424
20
67.1388163335836
30
0
0
VERTEX
8
0
10
40.32
20
67.2519535078899
30
0
0
VERTEX
8
0
10
41.216
20
67.2509702299802
30
0
0
VERTEX
8
0
10
42.112
20
67.2841607211071
30
0
0
VERTEX
8
0
10
43.008
20
67.3233394277495
30
0
0
VERTEX
8
0
10
43.904
20
67.4417644473581
30
0
0
VERTEX
8
0
10
44.8
20
67.5403379846625
30
0
0
VERTEX
8
0
10
45.696
20
67.6498594892218
30
0
0
VERTEX
8
0
10
46.592
20
67.7134202523295
30
0
0
VERTEX
8
0
10
47.488
20
67.795839463603
30
0
0
VERTEX
8
0
10
48.384
20
67.8740382401221
30
0
0
VERTEX
8
0
10
49.28
20
67.920511284104
30
0
0
VERTEX
8
0
10
50.176
20
67.9714737048744
30
0
0
VERTEX
8
0
10
51.072
20
67.9945912208023
30
0
0
VERTEX
8
0
10
51.968
20
68.0052497081806
30
0
0
VERTEX
8
0
10
52.8639999999999
20
68.0205431747119
30
0
0
VERTEX
8
0
10
53.7599999999999
20
67.9973794930204
30
0
0
VERTEX
8
0
10
54.6559999999999
20
67.9811092904827
30
0
0
VERTEX
8
0
10
55.5519999999999
20
67.9686254895255
30
0
0
VERTEX
8
0
10
56.4479999999999
20
67.9340709326156
30
0
0
VERTEX
8
0
10
57.3439999999999
20
67.9073884786916
30
0
0
VERTEX
8
0
10
58.2399999999999
20
67.8839994259146
30
0
0
VERTEX
8
0
10
59.1359999999999
20
67.8627100733652
30
0
0
VERTEX
8
0
10
60.0319999999999
20
67.8511981797154
30
0
0
VERTEX
8
0
10
60.9279999999999
20
67.842640515233
30
0
0
VERTEX
8
0
10
61.8239999999999
20
67.8530575717165
30
0
0
VERTEX
8
0
10
62.7199999999999
20
67.8639793300893
30
0
0
VERTEX
8
0
10
63.6159999999999
20
67.8780337924487
30
0
0
VERTEX
8
0
10
64.5119999999999
20
67.8089307635779
30
0
0
VERTEX
8
0
10
65.4079999999999
20
67.7528372655487
30
0
0
VERTEX
8
0
10
66.3039999999999
20
67.6993933367116
30
0
0
VERTEX
8
0
10
67.1999999999999
20
67.5905797315741
30
0
0
VERTEX
8
0
10
68.0959999999999
20
67.4988837036686
30
0
0
VERTEX
8
0
10
68.9919999999999
20
67.4093057098283
30
0
0
VERTEX
8
0
10
69.8879999999999
20
67.2539659832643
30
0
0
VERTEX
8
0
10
70.7839999999999
20
67.112818347353
30
0
0
VERTEX
8
0
10
71.6799999999999
20
66.9472676891485
30
0
0
VERTEX
8
0
10
72.5759999999999
20
66.7688580425318
30
0
0
VERTEX
8
0
10
73.4719999999999
20
66.5917453584045
30
0
0
VERTEX
8
0
10
74.3679999999999
20
66.3891738641101
30
0
0
VERTEX
8
0
10
75.2639999999999
20
66.1807752246772
30
0
0
VERTEX
8
0
10
76.1599999999999
20
65.9725728586602
30
0
0
VERTEX
8
0
10
77.0559999999999
20
65.7386049104176
30
0
0
VERTEX
8
0
10
77.9519999999999
20
65.4932538245827
30
0
0
VERTEX
8
0
10
78.8479999999999
20
65.2480680919331
30
0
0
VERTEX
8
0
10
79.7439999999999
20
64.9646963636938
30
0
0
VERTEX
8
0
10
80.6399999999998
20
64.6575467711846
30
0
0
VERTEX
8
0
10
81.5359999999998
20
64.3514729839167
30
0
0
VERTEX
8
0
10
82.4319999999998
20
64.0124883161984
30
0
0
VERTEX
8
0
10
83.3279999999998
20
63.6413614252744
30
0
0
VERTEX
8
0
10
84.2239999999998
20
63.2738641613757
30
0
0
VERTEX
8
0
10
85.1199999999998
20
62.8839869282249
30
0
0
VERTEX
8
0
10
86.0159999999998
20
62.4883377346926
30
0
0
VERTEX
8
0
10
86.9119999999998
20
62.0927120319612
30
0
0
VERTEX
8
0
10
87.8079999999998
20
61.6811198811157
30
0
0
VERTEX
8
0
10
88.7039999999998
20
61.2891034136168
30
0
0
VERTEX
8
0
10
89.5999999999998
20
60.8917567509016
30
0
0
VERTEX
8
0
10
90.4959999999998
20
60.4901663058477
30
0
0
VERTEX
8
0
10
91.3919999999998
20
60.0919950477749
30
0
0
VERTEX
8
0
10
92.2879999999998
20
59.6927865327969
30
0
0
VERTEX
8
0
10
93.1839999999998
20
59.3003126343884
30
0
0
VERTEX
8
0
10
94.0799999999998
20
58.9405276550294
30
0
0
VERTEX
8
0
10
94.9759999999998
20
58.5712455448411
30
0
0
VERTEX
8
0
10
95.8719999999998
20
58.2114314830831
30
0
0
VERTEX
8
0
10
96.7679999999998
20
57.8893465257764
30
0
0
VERTEX
8
0
10
97.6639999999998
20
57.5552301242964
30
0
0
VERTEX
8
0
10
98.5599999999998
20
57.2519280458504
30
0
0
VERTEX
8
0
10
99.4559999999998
20
56.9600409759728
30
0
0
VERTEX
8
0
10
100.352
20
56.6681682881024
30
0
0
VERTEX
8
0
10
101.248
20
56.3854795082294
30
0
0
VERTEX
8
0
10
102.144
20
56.1074450218278
30
0
0
VERTEX
8
0
10
103.04
20
55.82943316301
30
0
0
VERTEX
8
0
10
103.936
20
55.5712964745538
30
0
0
VERTEX
8
0
10
104.832
20
55.3170381005688
30
0
0
VERTEX
8
0
10
105.728
20
55.0628036291407
30
0
0
VERTEX
8
0
10
106.624
20
54.8257817742832
30
0
0
VERTEX
8
0
10
107.52
20
54.5895533052781
30
0
0
VERTEX
8
0
10
108.416
20
54.3533439682002
30
0
0
VERTEX
8
0
10
109.312
20
54.1302144185345
30
0
0
VERTEX
8
0
10
110.208
20
53.9067873076195
30
0
0
VERTEX
8
0
10
111.104
20
53.6833754984814
30
0
0
VERTEX
8
0
10
112
20
53.4714422794849
30
0
0
VERTEX
8
0
10
112.896
20
53.2579179977263
30
0
0
VERTEX
8
0
10
113.792
20
53.0444033915527
30
0
0
VERTEX
8
0
10
114.688
20
52.8396799587346
30
0
0
VERTEX
8
0
10
115.584
20
52.6337133744968
30
0
0
VERTEX
8
0
10
116.48
20
52.427754011447
30
0
0
VERTEX
8
0
10
117.376
20
52.2375825328054
30
0
0
VERTEX
8
0
10
118.272
20
52.0438041764384
30
0
0
VERTEX
8
0
10
119.168
20
51.8500279047666
30
0
0
VERTEX
8
0
10
120.064
20
51.6739517541802
30
0
0
VERTEX
8
0
10
120.96
20
51.4963653770165
30
0
0
VERTEX
8
0
10
121.856
20
51.3187828357268
30
0
0
VERTEX
8
0
10
122.752
20
51.1440693892527
30
0
0
VERTEX
8
0
10
123.648
20
50.9693838098149
30
0
0
VERTEX
8
0
10
124.544
20
50.7947035944929
30
0
0
VERTEX
8
0
10
125.44
20
50.6230477660628
30
0
0
VERTEX
8
0
10
126.336
20
50.4512702694024
30
0
0
VERTEX
8
0
10
127.232
20
50.2824279355233
30
0
0
VERTEX
8
0
10
128.128
20
50.1279805756085
30
0
0
VERTEX
8
0
10
129.024
20
49.9724219451388
30
0
0
VERTEX
8
0
10
129.92
20
49.8200387995026
30
0
0
VERTEX
8
0
10
130.816
20
49.6624601730084
30
0
0
VERTEX
8
0
10
131.712
20
49.5057492328826
30
0
0
VERTEX
8
0
10
132.608
20
49.3456374514612
30
0
0
VERTEX
8
0
10
133.504
20
49.1878034504254
30
0
0
VERTEX
8
0
10
134.4
20
49.0293937934628
30
0
0
VERTEX
8
0
10
135.296
20
48.870992890057
30
0
0
VERTEX
8
0
10
136.192
20
48.72351457171
30
0
0
VERTEX
8
0
10
137.088
20
48.5738416433996
30
0
0
VERTEX
8
0
10
137.984
20
48.431930550224
30
0
0
VERTEX
8
0
10
138.88
20
48.2876808069348
30
0
0
VERTEX
8
0
10
139.776
20
48.1443249423485
30
0
0
VERTEX
8
0
10
140.672
20
48.0030281744209
30
0
0
VERTEX
8
0
10
141.568
20
47.8540794903171
30
0
0
VERTEX
8
0
10
142.464
20
47.7072167780883
30
0
0
VERTEX
8
0
10
143.36
20
47.5668785862304
30
0
0
VERTEX
8
0
10
144.256
20
47.4474084966791
30
0
0
VERTEX
8
0
10
145.152
20
47.321965493252
30
0
0
VERTEX
8
0
10
146.048
20
47.203404232263
30
0
0
VERTEX
8
0
10
146.944
20
47.0891004860995
30
0
0
VERTEX
8
0
10
147.84
20
46.9734492659201
30
0
0
VERTEX
8
0
10
148.736
20
46.8641248431746
30
0
0
VERTEX
8
0
10
149.632
20
46.7559689783248
30
0
0
VERTEX
8
0
10
150.528
20
46.6478131176604
30
0
0
VERTEX
8
0
10
151.424
20
46.5496815672254
30
0
0
VERTEX
8
0
10
152.32
20
46.4548349558293
30
0
0
VERTEX
8
0
10
153.216
20
46.3599883527292
30
0
0
VERTEX
8
0
10
154.112
20
46.2768185870078
30
0
0
VERTEX
8
0
10
155.008
20
46.1988023237483
30
0
0
VERTEX
8
0
10
155.904
20
46.1207878965491
30
0
0
VERTEX
8
0
10
156.8
20
46.0554960458243
30
0
0
VERTEX
8
0
10
157.696
20
45.9854301476933
30
0
0
VERTEX
8
0
10
158.592
20
45.9153678405694
30
0
0
VERTEX
8
0
10
159.488
20
45.8421588408051
30
0
0
VERTEX
8
0
10
160.384
20
45.7745422514849
30
0
0
VERTEX
8
0
10
161.28
20
45.7069270463568
30
0
0
VERTEX
8
0
10
162.176
20
45.6649359963527
30
0
0
VERTEX
8
0
10
163.072
20
45.6191967493796
30
0
0
VERTEX
8
0
10
163.968
20
45.5734588406993
30
0
0
VERTEX
8
0
10
164.864
20
45.4850176877762
30
0
0
VERTEX
8
0
10
165.76
20
45.4011854105985
30
0
0
VERTEX
8
0
10
166.656
20
45.3173535979561
30
0
0
VERTEX
8
0
10
167.552
20
45.2614416901636
30
0
0
VERTEX
8
0
10
168.448
20
45.1994902352213
30
0
0
VERTEX
8
0
10
169.344
20
45.1375415564712
30
0
0
VERTEX
8
0
10
170.24
20
45.0261718432557
30
0
0
VERTEX
8
0
10
171.136
20
44.9232179180609
30
0
0
VERTEX
8
0
10
172.032
20
44.8178602516729
30
0
0
VERTEX
8
0
10
172.928
20
44.6959693314968
30
0
0
VERTEX
8
0
10
173.824
20
44.5738975149925
30
0
0
VERTEX
8
0
10
174.72
20
44.4491811175949
30
0
0
VERTEX
8
0
10
175.616
20
44.3074161541216
30
0
0
VERTEX
8
0
10
176.512
20
44.1662336192918
30
0
0
VERTEX
8
0
10
177.408
20
44.0276608649901
30
0
0
SEQEND
8
0
0
POLYLINE
8
0
62
2
70
0
10
0
20
0
30
0
0
VERTEX
8
0
10
1.792
20
12.9799161990973
30
0
0
VERTEX
8
0
10
2.688
20
18.3772214502336
30
0
0
VERTEX
8
0
10
3.584
20
21.8741606106871
30
0
0
VERTEX
8
0
10
4.48
20
24.5456331669205
30
0
0
VERTEX
8
0
10
5.376
20
27.0746203009867
30
0
0
VERTEX
8
0
10
6.272
20
30.3827395370986
30
0
0
VERTEX
8
0
10
7.168
20
33.4191991155099
30
0
0
VERTEX
8
0
10
8.064
20
35.7642578804824
30
0
0
VERTEX
8
0
10
8.96
20
37.8958903507515
30
0
0
VERTEX
8
0
10
9.856
20
39.9954501912823
30
0
0
VERTEX
8
0
10
10.752
20
42.040933535851
30
0
0
VERTEX
8
0
10
11.648
20
43.8515520052179
30
0
0
VERTEX
8
0
10
12.544
20
45.6554117092283
30
0
0
VERTEX
8
0
10
13.44
20
47.412503622362
30
0
0
VERTEX
8
0
10
14.336
20
49.0462846929046
30
0
0
VERTEX
8
0
10
15.232
20
50.6468934914274
30
0
0
VERTEX
8
0
10
16.128
20
52.1427488764039
30
0
0
VERTEX
8
0
10
17.024
20
53.6098963314344
30
0
0
VERTEX
8
0
10
17.92
20
54.8362760675712
30
0
0
VERTEX
8
0
10
18.816
20
56.0840824997787
30
0
0
VERTEX
8
0
10
19.712
20
57.0953331092581
30
0
0
VERTEX
8
0
10
20.608
20
58.0635846556793
30
0
0
VERTEX
8
0
10
21.504
20
59.0285663080155
30
0
0
VERTEX
8
0
10
22.4
20
59.7267509782645
30
0
0
VERTEX
8
0
10
23.296
20
60.4261996029353
30
0
0
VERTEX
8
0
10
24.192
20
61.1194109657867
30
0
0
VERTEX
8
0
10
25.088
20
61.7013001279031
30
0
0
VERTEX
8
0
10
25.984
20
62.2894378279528
30
0
0
VERTEX
8
0
10
26.88
20
62.8751526634124
30
0
0
VERTEX
8
0
10
27.776
20
63.3208044653809
30
0
0
VERTEX
8
0
10
28.672
20
63.7807500845508
30
0
0
VERTEX
8
0
10
29.568
20
64.2433588080948
30
0
0
VERTEX
8
0
10
30.464
20
64.4823109304446
30
0
0
VERTEX
8
0
10
31.36
20
64.7537199998072
30
0
0
VERTEX
8
0
10
32.256
20
65.0384964663947
30
0
0
VERTEX
8
0
10
33.152
20
65.4294891583001
30
0
0
VERTEX
8
0
10
34.048
20
65.8045148638498
30
0
0
VERTEX
8
0
10
34.944
20
66.1843679966657
30
0
0
VERTEX
8
0
10
35.84
20
66.4148834851547
30
0
0
VERTEX
8
0
10
36.736
20
66.6792096563802
30
0
0
VERTEX
8
0
10
37.632
20
66.9480418482994
30
0
0
VERTEX
8
0
10
38.528
20
67.0177099621056
30
0
0
VERTEX
8
0
10
39.424
20
67.1388163335836
30
0
0
VERTEX
8
0
10
40.32
20
67.2519535078899
30
0
0
VERTEX
8
0
10
41.216
20
67.2509702299802
30
0
0
VERTEX
8
0
10
42.112
20
67.2841607211071
30
0
0
VERTEX
8
0
10
43.008
20
67.3233394277495
30
0
0
VERTEX
8
0
10
43.904
20
67.4417644473581
30
0
0
VERTEX
8
0
10
44.8
20
67.5403379846625
30
0
0
VERTEX
8
0
10
45.696
20
67.6498594892218
30
0
0
VERTEX
8
0
10
46.592
20
67.7134202523295
30
0
0
VERTEX
8
0
10
47.488
20
67.795839463603
30
0
0
VERTEX
8
0
10
48.384
20
67.8740382401221
30
0
0
VERTEX
8
0
10
49.28
20
67.920511284104
30
0
0
VERTEX
8
0
10
50.176
20
67.9714737048744
30
0
0
VERTEX
8
0
10
51.072
20
67.9945912208023
30
0
0
VERTEX
8
0
10
51.968
20
68.0052497081806
30
0
0
VERTEX
8
0
10
52.8639999999999
20
68.0205431747119
30
0
0
VERTEX
8
0
10
53.7599999999999
20
67.9973794930204
30
0
0
VERTEX
8
0
10
54.6559999999999
20
67.9811092904827
30
0
0
VERTEX
8
0
10
55.5519999999999
20
67.9686254895255
30
0
0
VERTEX
8
0
10
56.4479999999999
20
67.9340709326156
30
0
0
VERTEX
8
0
10
57.3439999999999
20
67.9073884786917
30
0
0
VERTEX
8
0
10
58.2399999999999
20
67.8839994259146
30
0
0
VERTEX
8
0
10
59.1359999999999
20
67.8627100733652
30
0
0
VERTEX
8
0
10
60.0319999999999
20
67.8511981797154
30
0
0
VERTEX
8
0
10
60.9279999999999
20
67.842640515233
30
0
0
VERTEX
8
0
10
61.8239999999999
20
67.8530575717165
30
0
0
VERTEX
8
0
10
62.7199999999999
20
67.8639793300893
30
0
0
VERTEX
8
0
10
63.6159999999999
20
67.8780337924487
30
0
0
VERTEX
8
0
10
64.5119999999999
20
67.8089307635779
30
0
0
VERTEX
8
0
10
65.4079999999999
20
67.7528372655487
30
0
0
VERTEX
8
0
10
66.3039999999999
20
67.6993933367116
30
0
0
VERTEX
8
0
10
67.1999999999999
20
67.5905797315741
30
0
0
VERTEX
8
0
10
68.0959999999999
20
67.4988837036687
30
0
0
VERTEX
8
0
10
68.9919999999999
20
67.4093057098283
30
0
0
VERTEX
8
0
10
69.8879999999999
20
67.2539659832643
30
0
0
VERTEX
8
0
10
70.7839999999999
20
67.112818347353
30
0
0
VERTEX
8
0
10
71.6799999999999
20
66.9472676891485
30
0
0
VERTEX
8
0
10
72.5759999999999
20
66.7688580425318
30
0
0
VERTEX
8
0
10
73.4719999999999
20
66.5917453584045
30
0
0
VERTEX
8
0
10
74.3679999999999
20
66.3891738641101
30
0
0
VERTEX
8
0
10
75.2639999999999
20
66.1807752246772
30
0
0
VERTEX
8
0
10
76.1599999999999
20
65.9725728586602
30
0
0
VERTEX
8
0
10
77.0559999999999
20
65.7386049104176
30
0
0
VERTEX
8
0
10
77.9519999999999
20
65.4932538245827
30
0
0
VERTEX
8
0
10
78.8479999999999
20
65.2480680919331
30
0
0
VERTEX
8
0
10
79.7439999999999
20
64.9646963636938
30
0
0
VERTEX
8
0
10
80.6399999999998
20
64.6575467711846
30
0
0
VERTEX
8
0
10
81.5359999999998
20
64.3514729839167
30
0
0
VERTEX
8
0
10
82.4319999999998
20
64.0124883161984
30
0
0
VERTEX
8
0
10
83.3279999999998
20
63.6413614252744
30
0
0
VERTEX
8
0
10
84.2239999999998
20
63.2738641613757
30
0
0
VERTEX
8
0
10
85.1199999999998
20
62.8839869282249
30
0
0
VERTEX
8
0
10
86.0159999999998
20
62.4883377346926
30
0
0
VERTEX
8
0
10
86.9119999999998
20
62.0927120319612
30
0
0
VERTEX
8
0
10
87.8079999999998
20
61.6811198811157
30
0
0
VERTEX
8
0
10
88.7039999999998
20
61.2891034136168
30
0
0
VERTEX
8
0
10
89.5999999999998
20
60.8917567509016
30
0
0
VERTEX
8
0
10
90.4959999999998
20
60.4901663058477
30
0
0
VERTEX
8
0
10
91.3919999999998
20
60.0919950477748
30
0
0
VERTEX
8
0
10
92.2879999999998
20
59.6927865327969
30
0
0
VERTEX
8
0
10
93.1839999999998
20
59.3003126343884
30
0
0
VERTEX
8
0
10
94.0799999999998
20
58.9405276550294
30
0
0
VERTEX
8
0
10
94.9759999999998
20
58.5712455448411
30
0
0
VERTEX
8
0
10
95.8719999999998
20
58.2114314830831
30
0
0
VERTEX
8
0
10
96.7679999999998
20
57.8893465257764
30
0
0
VERTEX
8
0
10
97.6639999999998
20
57.5552301242964
30
0
0
VERTEX
8
0
10
98.5599999999998
20
57.2519280458504
30
0
0
VERTEX
8
0
10
99.4559999999998
20
56.9600409759728
30
0
0
VERTEX
8
0
10
100.352
20
56.6681682881024
30
0
0
VERTEX
8
0
10
101.248
20
56.3854795082294
30
0
0
VERTEX
8
0
10
102.144
20
56.1074450218278
30
0
0
VERTEX
8
0
10
103.04
20
55.82943316301
30
0
0
VERTEX
8
0
10
103.936
20
55.5712964745538
30
0
0
VERTEX
8
0
10
104.832
20
55.3170381005688
30
0
0
VERTEX
8
0
10
105.728
20
55.0628036291407
30
0
0
VERTEX
8
0
10
106.624
20
54.8257817742832
30
0
0
VERTEX
8
0
10
107.52
20
54.5895533052781
30
0
0
VERTEX
8
0
10
108.416
20
54.3533439682002
30
0
0
VERTEX
8
0
10
109.312
20
54.1302144185345
30
0
0
VERTEX
8
0
10
110.208
20
53.9067873076195
30
0
0
VERTEX
8
0
10
111.104
20
53.6833754984814
30
0
0
VERTEX
8
0
10
112
20
53.4714422794849
30
0
0
VERTEX
8
0
10
112.896
20
53.2579179977263
30
0
0
VERTEX
8
0
10
113.792
20
53.0444033915527
30
0
0
VERTEX
8
0
10
114.688
20
52.8396799587346
30
0
0
VERTEX
8
0
10
115.584
20
52.6337133744968
30
0
0
VERTEX
8
0
10
116.48
20
52.427754011447
30
0
0
VERTEX
8
0
10
117.376
20
52.2375825328054
30
0
0
VERTEX
8
0
10
118.272
20
52.0438041764384
30
0
0
VERTEX
8
0
10
119.168
20
51.8500279047666
30
0
0
VERTEX
8
0
10
120.064
20
51.6739517541802
30
0
0
VERTEX
8
0
10
120.96
20
51.4963653770165
30
0
0
VERTEX
8
0
10
121.856
20
51.3187828357268
30
0
0
VERTEX
8
0
10
122.752
20
51.1440693892527
30
0
0
VERTEX
8
0
10
123.648
20
50.9693838098149
30
0
0
VERTEX
8
0
10
124.544
20
50.7947035944929
30
0
0
VERTEX
8
0
10
125.44
20
50.6230477660628
30
0
0
VERTEX
8
0
10
126.336
20
50.4512702694024
30
0
0
VERTEX
8
0
10
127.232
20
50.2824279355233
30
0
0
VERTEX
8
0
10
128.128
20
50.1279805756085
30
0
0
VERTEX
8
0
10
129.024
20
49.9724219451388
30
0
0
VERTEX
8
0
10
129.92
20
49.8200387995026
30
0
0
VERTEX
8
0
10
130.816
20
49.6624601730084
30
0
0
VERTEX
8
0
10
131.712
20
49.5057492328826
30
0
0
VERTEX
8
0
10
132.608
20
49.3456374514612
30
0
0
VERTEX
8
0
10
133.504
20
49.1878034504254
30
0
0
VERTEX
8
0
10
134.4
20
49.0293937934628
30
0
0
VERTEX
8
0
10
135.296
20
48.870992890057
30
0
0
VERTEX
8
0
10
136.192
20
48.72351457171
30
0
0
VERTEX
8
0
10
137.088
20
48.5738416433995
30
0
0
VERTEX
8
0
10
137.984
20
48.431930550224
30
0
0
VERTEX
8
0
10
138.88
20
48.2876808069348
30
0
0
VERTEX
8
0
10
139.776
20
48.1443249423485
30
0
0
VERTEX
8
0
10
140.672
20
48.0030281744209
30
0
0
VERTEX
8
0
10
141.568
20
47.8540794903171
30
0
0
VERTEX
8
0
10
142.464
20
47.7072167780883
30
0
0
VERTEX
8
0
10
143.36
20
47.5668785862304
30
0
0
VERTEX
8
0
10
144.256
20
47.447408496679
30
0
0
VERTEX
8
0
10
145.152
20
47.321965493252
30
0
0
VERTEX
8
0
10
146.048
20
47.2034042322631
30
0
0
VERTEX
8
0
10
146.944
20
47.0891004860995
30
0
0
VERTEX
8
0
10
147.84
20
46.9734492659201
30
0
0
VERTEX
8
0
10
148.736
20
46.8641248431746
30
0
0
VERTEX
8
0
10
149.632
20
46.7559689783248
30
0
0
VERTEX
8
0
10
150.528
20
46.6478131176604
30
0
0
VERTEX
8
0
10
151.424
20
46.5496815672254
30
0
0
VERTEX
8
0
10
152.32
20
46.4548349558293
30
0
0
VERTEX
8
0
10
153.216
20
46.3599883527292
30
0
0
VERTEX
8
0
10
154.112
20
46.2768185870078
30
0
0
VERTEX
8
0
10
155.008
20
46.1988023237483
30
0
0
VERTEX
8
0
10
155.904
20
46.1207878965491
30
0
0
VERTEX
8
0
10
156.8
20
46.0554960458243
30
0
0
VERTEX
8
0
10
157.696
20
45.9854301476933
30
0
0
VERTEX
8
0
10
158.592
20
45.9153678405694
30
0
0
VERTEX
8
0
10
159.488
20
45.8421588408051
30
0
0
VERTEX
8
0
10
160.384
20
45.7745422514849
30
0
0
VERTEX
8
0
10
161.28
20
45.7069270463568
30
0
0
VERTEX
8
0
10
162.176
20
45.6649359963527
30
0
0
VERTEX
8
0
10
163.072
20
45.6191967493796
30
0
0
VERTEX
8
0
10
163.968
20
45.5734588406993
30
0
0
VERTEX
8
0
10
164.864
20
45.4850176877762
30
0
0
VERTEX
8
0
10
165.76
20
45.4011854105985
30
0
0
VERTEX
8
0
10
166.656
20
45.3173535979561
30
0
0
VERTEX
8
0
10
167.552
20
45.2614416901636
30
0
0
VERTEX
8
0
10
168.448
20
45.1994902352213
30
0
0
VERTEX
8
0
10
169.344
20
45.1375415564712
30
0
0
VERTEX
8
0
10
170.24
20
45.0261718432557
30
0
0
VERTEX
8
0
10
171.136
20
44.9232179180609
30
0
0
VERTEX
8
0
10
172.032
20
44.8178602516729
30
0
0
VERTEX
8
0
10
172.928
20
44.6959693314968
30
0
0
VERTEX
8
0
10
173.824
20
44.5738975149925
30
0
0
VERTEX
8
0
10
174.72
20
44.4491811175949
30
0
0
VERTEX
8
0
10
175.616
20
44.3074161541216
30
0
0
VERTEX
8
0
10
176.512
20
44.1662336192918
30
0
0
VERTEX
8
0
10
177.408
20
44.0276608649901
30
0
0
SEQEND
8
0
0
POLYLINE
8
0
62
3
70
0
10
0
20
0
30
0
0
VERTEX
8
0
10
1.792
20
13.2214550293955
30
0
0
VERTEX
8
0
10
2.688
20
24.7490357158762
30
0
0
VERTEX
8
0
10
3.584
20
23.9855799145168
30
0
0
VERTEX
8
0
10
4.48
20
27.0479851585326
30
0
0
VERTEX
8
0
10
5.376
20
33.3145831913076
30
0
0
VERTEX
8
0
10
6.272
20
40.4152005425268
30
0
0
VERTEX
8
0
10
7.168
20
42.0963893102837
30
0
0
VERTEX
8
0
10
8.064
20
45.1913363640249
30
0
0
VERTEX
8
0
10
8.96
20
49.5069003365113
30
0
0
VERTEX
8
0
10
9.856
20
54.1911188997885
30
0
0
VERTEX
8
0
10
10.752
20
56.6359668681438
30
0
0
VERTEX
8
0
10
11.648
20
59.636198056205
30
0
0
VERTEX
8
0
10
12.544
20
62.9910864409596
30
0
0
VERTEX
8
0
10
13.44
20
66.5193704072837
30
0
0
VERTEX
8
0
10
14.336
20
68.940750195793
30
0
0
VERTEX
8
0
10
15.232
20
71.6036850822507
30
0
0
VERTEX
8
0
10
16.128
20
74.357916232538
30
0
0
VERTEX
8
0
10
17.024
20
77.1748832217665
30
0
0
VERTEX
8
0
10
17.92
20
79.3676447081527
30
0
0
VERTEX
8
0
10
18.816
20
81.7036525648965
30
0
0
VERTEX
8
0
10
19.712
20
83.9658167842487
30
0
0
VERTEX
8
0
10
20.608
20
86.2819146008267
30
0
0
VERTEX
8
0
10
21.504
20
88.2045102648911
30
0
0
VERTEX
8
0
10
22.4
20
90.1907813531485
30
0
0
VERTEX
8
0
10
23.296
20
92.1008250850319
30
0
0
VERTEX
8
0
10
24.192
20
94.0246210345406
30
0
0
VERTEX
8
0
10
25.088
20
95.6833127482012
30
0
0
VERTEX
8
0
10
25.984
20
97.3650348082649
30
0
0
VERTEX
8
0
10
26.88
20
98.9751312234548
30
0
0
VERTEX
8
0
10
27.776
20
100.580599693176
30
0
0
VERTEX
8
0
10
28.672
20
101.996938186341
30
0
0
VERTEX
8
0
10
29.568
20
103.414924920582
30
0
0
VERTEX
8
0
10
30.464
20
104.775668589147
30
0
0
VERTEX
8
0
10
31.36
20
106.100882398302
30
0
0
VERTEX
8
0
10
32.256
20
107.309785078029
30
0
0
VERTEX
8
0
10
33.152
20
108.50034515866
30
0
0
VERTEX
8
0
10
34.048
20
109.636239308913
30
0
0
VERTEX
8
0
10
34.944
20
110.74255579953
30
0
0
VERTEX
8
0
10
35.84
20
111.764201961058
30
0
0
VERTEX
8
0
10
36.736
20
112.759517747082
30
0
0
VERTEX
8
0
10
37.632
20
113.704906631178
30
0
0
VERTEX
8
0
10
38.528
20
114.625390329149
30
0
0
VERTEX
8
0
10
39.424
20
115.484510846293
30
0
0
VERTEX
8
0
10
40.32
20
116.313043290168
30
0
0
VERTEX
8
0
10
41.216
20
117.097237010428
30
0
0
VERTEX
8
0
10
42.112
20
117.861410443623
30
0
0
VERTEX
8
0
10
43.008
20
118.572323938544
30
0
0
VERTEX
8
0
10
43.904
20
119.266455927027
30
0
0
VERTEX
8
0
10
44.8
20
119.914668491506
30
0
0
VERTEX
8
0
10
45.696
20
120.544467078012
30
0
0
VERTEX
8
0
10
46.592
20
121.135982954779
30
0
0
VERTEX
8
0
10
47.488
20
121.711951874524
30
0
0
VERTEX
8
0
10
48.384
20
122.245897564243
30
0
0
VERTEX
8
0
10
49.28
20
122.763380841067
30
0
0
VERTEX
8
0
10
50.176
20
123.253003196969
30
0
0
VERTEX
8
0
10
51.072
20
123.729651463549
30
0
0
VERTEX
8
0
10
51.968
20
124.16795776979
30
0
0
VERTEX
8
0
10
52.8639999999999
20
124.591840190804
30
0
0
VERTEX
8
0
10
53.7599999999999
20
124.994166583471
30
0
0
VERTEX
8
0
10
54.6559999999999
20
125.382886163634
30
0
0
VERTEX
8
0
10
55.5519999999999
20
125.747130033772
30
0
0
VERTEX
8
0
10
56.4479999999999
20
126.093191404278
30
0
0
VERTEX
8
0
10
57.3439999999999
20
126.422512824108
30
0
0
VERTEX
8
0
10
58.2399999999999
20
126.741064735154
30
0
0
VERTEX
8
0
10
59.1359999999999
20
127.039782887436
30
0
0
VERTEX
8
0
10
60.0319999999999
20
127.321201505378
30
0
0
VERTEX
8
0
10
60.9279999999999
20
127.589512387362
30
0
0
VERTEX
8
0
10
61.8239999999999
20
127.849134513773
30
0
0
VERTEX
8
0
10
62.7199999999999
20
128.093214335339
30
0
0
VERTEX
8
0
10
63.6159999999999
20
128.320866444987
30
0
0
VERTEX
8
0
10
64.5119999999999
20
128.538155502915
30
0
0
VERTEX
8
0
10
65.4079999999999
20
128.746762194192
30
0
0
VERTEX
8
0
10
66.3039999999999
20
128.942387392929
30
0
0
VERTEX
8
0
10
67.1999999999999
20
129.129315878658
30
0
0
VERTEX
8
0
10
68.0959999999999
20
129.303792432569
30
0
0
VERTEX
8
0
10
68.9919999999999
20
129.470821441745
30
0
0
VERTEX
8
0
10
69.8879999999999
20
129.627225300971
30
0
0
VERTEX
8
0
10
70.7839999999999
20
129.776915773878
30
0
0
VERTEX
8
0
10
71.6799999999999
20
129.915330571024
30
0
0
VERTEX
8
0
10
72.5759999999999
20
130.047386510384
30
0
0
VERTEX
8
0
10
73.4719999999999
20
130.170576451931
30
0
0
VERTEX
8
0
10
74.3679999999999
20
130.288981700354
30
0
0
VERTEX
8
0
10
75.2639999999999
20
130.397351956156
30
0
0
VERTEX
8
0
10
76.1599999999999
20
130.500760252471
30
0
0
VERTEX
8
0
10
77.0559999999999
20
130.596068838022
30
0
0
VERTEX
8
0
10
77.9519999999999
20
130.688182268967
30
0
0
VERTEX
8
0
10
78.8479999999999
20
130.774403506358
30
0
0
VERTEX
8
0
10
79.7439999999999
20
130.851864855984
30
0
0
VERTEX
8
0
10
80.6399999999998
20
130.919765826923
30
0
0
VERTEX
8
0
10
81.5359999999998
20
130.982504366753
30
0
0
VERTEX
8
0
10
82.4319999999998
20
131.038993725139
30
0
0
VERTEX
8
0
10
83.3279999999998
20
131.085842458877
30
0
0
VERTEX
8
0
10
84.2239999999998
20
131.123058027523
30
0
0
VERTEX
8
0
10
85.1199999999998
20
131.154487614293
30
0
0
VERTEX
8
0
10
86.0159999999998
20
131.180052223212
30
0
0
VERTEX
8
0
10
86.9119999999998
20
131.195901912547
30
0
0
VERTEX
8
0
10
87.8079999999998
20
131.20251743707
30
0
0
VERTEX
8
0
10
88.7039999999998
20
131.20231522809
30
0
0
VERTEX
8
0
10
89.5999999999998
20
131.196982583659
30
0
0
VERTEX
8
0
10
90.4959999999998
20
131.184403775811
30
0
0
VERTEX
8
0
10
91.3919999999998
20
131.161785941878
30
0
0
VERTEX
8
0
10
92.2879999999998
20
131.132699661719
30
0
0
VERTEX
8
0
10
93.1839999999998
20
131.09860104598
30
0
0
VERTEX
8
0
10
94.0799999999998
20
131.058101930753
30
0
0
VERTEX
8
0
10
94.9759999999998
20
131.008469777254
30
0
0
VERTEX
8
0
10
95.8719999999998
20
130.95292609749
30
0
0
VERTEX
8
0
10
96.7679999999998
20
130.89268589311
30
0
0
VERTEX
8
0
10
97.6639999999998
20
130.826950803495
30
0
0
VERTEX
8
0
10
98.5599999999998
20
130.75323520638
30
0
0
VERTEX
8
0
10
99.4559999999998
20
130.674355443323
30
0
0
VERTEX
8
0
10
100.352
20
130.590981171709
30
0
0
VERTEX
8
0
10
101.248
20
130.503227985293
30
0
0
VERTEX
8
0
10
102.144
20
130.409565158867
30
0
0
VERTEX
8
0
10
103.04
20
130.311170765752
30
0
0
VERTEX
8
0
10
103.936
20
130.2092287485
30
0
0
VERTEX
8
0
10
104.832
20
130.103779859479
30
0
0
VERTEX
8
0
10
105.728
20
129.993912484907
30
0
0
VERTEX
8
0
10
106.624
20
129.880627179508
30
0
0
VERTEX
8
0
10
107.52
20
129.764983066861
30
0
0
VERTEX
8
0
10
108.416
20
129.647024894407
30
0
0
VERTEX
8
0
10
109.312
20
129.526305351336
30
0
0
VERTEX
8
0
10
110.208
20
129.4038181775
30
0
0
VERTEX
8
0
10
111.104
20
129.280518849713
30
0
0
VERTEX
8
0
10
112
20
129.156538247489
30
0
0
VERTEX
8
0
10
112.896
20
129.031886227826
30
0
0
VERTEX
8
0
10
113.792
20
128.907728997058
30
0
0
VERTEX
8
0
10
114.688
20
128.785049886262
30
0
0
VERTEX
8
0
10
115.584
20
128.664509968831
30
0
0
VERTEX
8
0
10
116.48
20
128.546894121063
30
0
0
VERTEX
8
0
10
117.376
20
128.433584774276
30
0
0
VERTEX
8
0
10
118.272
20
128.324343947898
30
0
0
VERTEX
8
0
10
119.168
20
128.218200663103
30
0
0
VERTEX
8
0
10
120.064
20
128.114357973531
30
0
0
VERTEX
8
0
10
120.96
20
128.012848962009
30
0
0
VERTEX
8
0
10
121.856
20
127.913585641829
30
0
0
VERTEX
8
0
10
122.752
20
127.816217345117
30
0
0
VERTEX
8
0
10
123.648
20
127.720386131721
30
0
0
VERTEX
8
0
10
124.544
20
127.626235709126
30
0
0
VERTEX
8
0
10
125.44
20
127.533775063817
30
0
0
VERTEX
8
0
10
126.336
20
127.442799591247
30
0
0
VERTEX
8
0
10
127.232
20
127.353099323384
30
0
0
VERTEX
8
0
10
128.128
20
127.264794394309
30
0
0
VERTEX
8
0
10
129.024
20
127.177904092557
30
0
0
VERTEX
8
0
10
129.92
20
127.092301839192
30
0
0
VERTEX
8
0
10
130.816
20
127.007867099524
30
0
0
VERTEX
8
0
10
131.712
20
126.924682722954
30
0
0
VERTEX
8
0
10
132.608
20
126.842763309603
30
0
0
VERTEX
8
0
10
133.504
20
126.762037071694
30
0
0
VERTEX
8
0
10
134.4
20
126.682446170032
30
0
0
VERTEX
8
0
10
135.296
20
126.604043122982
30
0
0
VERTEX
8
0
10
136.192
20
126.526839871499
30
0
0
VERTEX
8
0
10
137.088
20
126.450809147776
30
0
0
VERTEX
8
0
10
137.984
20
126.375941323295
30
0
0
VERTEX
8
0
10
138.88
20
126.302275513858
30
0
0
VERTEX
8
0
10
139.776
20
126.229835124877
30
0
0
VERTEX
8
0
10
140.672
20
126.158640800884
30
0
0
VERTEX
8
0
10
141.568
20
126.088736784578
30
0
0
VERTEX
8
0
10
142.464
20
126.020196868982
30
0
0
VERTEX
8
0
10
143.36
20
125.953113485147
30
0
0
VERTEX
8
0
10
144.256
20
125.887540036075
30
0
0
VERTEX
8
0
10
145.152
20
125.823403989746
30
0
0
VERTEX
8
0
10
146.048
20
125.760592701181
30
0
0
VERTEX
8
0
10
146.944
20
125.69901651652
30
0
0
VERTEX
8
0
10
147.84
20
125.638605804239
30
0
0
VERTEX
8
0
10
148.736
20
125.57930334172
30
0
0
VERTEX
8
0
10
149.632
20
125.521060071526
30
0
0
VERTEX
8
0
10
150.528
20
125.463832757408
30
0
0
VERTEX
8
0
10
151.424
20
125.407582573294
30
0
0
VERTEX
8
0
10
152.32
20
125.352274184952
30
0
0
VERTEX
8
0
10
153.216
20
125.297875114896
30
0
0
VERTEX
8
0
10
154.112
20
125.244355282023
30
0
0
VERTEX
8
0
10
155.008
20
125.191686655235
30
0
0
VERTEX
8
0
10
155.904
20
125.139842984869
30
0
0
VERTEX
8
0
10
156.8
20
125.08879958921
30
0
0
VERTEX
8
0
10
157.696
20
125.038533181237
30
0
0
VERTEX
8
0
10
158.592
20
124.98902172553
30
0
0
VERTEX
8
0
10
159.488
20
124.940244318302
30
0
0
VERTEX
8
0
10
160.384
20
124.892181085502
30
0
0
VERTEX
8
0
10
161.28
20
124.844813095299
30
0
0
VERTEX
8
0
10
162.176
20
124.798122282169
30
0
0
VERTEX
8
0
10
163.072
20
124.752091380472
30
0
0
VERTEX
8
0
10
163.968
20
124.706703865899
30
0
0
VERTEX
8
0
10
164.864
20
124.66194390349
30
0
0
VERTEX
8
0
10
165.76
20
124.617796301214
30
0
0
VERTEX
8
0
10
166.656
20
124.57424646828
30
0
0
VERTEX
8
0
10
167.552
20
124.53128037753
30
0
0
VERTEX
8
0
10
168.448
20
124.488884531336
30
0
0
VERTEX
8
0
10
169.344
20
124.44704593058
30
0
0
VERTEX
8
0
10
170.24
20
124.405752046306
30
0
0
VERTEX
8
0
10
171.136
20
124.364990793749
30
0
0
VERTEX
8
0
10
172.032
20
124.324750508456
30
0
0
VERTEX
8
0
10
172.928
20
124.285019924266
30
0
0
VERTEX
8
0
10
173.824
20
124.245788152962
30
0
0
VERTEX
8
0
10
174.72
20
124.207044665413
30
0
0
VERTEX
8
0
10
175.616
20
124.168779274061
30
0
0
VERTEX
8
0
10
176.512
20
124.13098211662
30
0
0
VERTEX
8
0
10
177.408
20
124.093643640881
30
0
0
SEQEND
8
0
0
POLYLINE
8
0
62
4
70
0
10
0
20
0
30
0
0
VERTEX
8
0
10
1.792
20
14.7226636789753
30
0
0
VERTEX
8
0
10
2.688
20
21.0554110052566
30
0
0
VERTEX
8
0
10
3.584
20
25.7256742664309
30
0
0
VERTEX
8
0
10
4.48
20
29.7095730295139
30
0
0
VERTEX
8
0
10
5.376
20
33.5371136115502
30
0
0
VERTEX
8
0
10
6.272
20
37.9700635073322
30
0
0
VERTEX
8
0
10
7.168
20
42.1634232412056
30
0
0
VERTEX
8
0
10
8.064
20
45.7812723795538
30
0
0
VERTEX
8
0
10
8.96
20
49.1646921326188
30
0
0
VERTEX
8
0
10
9.856
20
52.4870279378466
30
0
0
VERTEX
8
0
10
10.752
20
55.7547403131398
30
0
0
VERTEX
8
0
10
11.648
20
58.8140011404185
30
0
0
VERTEX
8
0
10
12.544
20
61.7967358140411
30
0
0
VERTEX
8
0
10
13.44
20
64.7025398186353
30
0
0
VERTEX
8
0
10
14.336
20
67.5037453239524
30
0
0
VERTEX
8
0
10
15.232
20
70.2462164582009
30
0
0
VERTEX
8
0
10
16.128
20
72.8442099780251
30
0
0
VERTEX
8
0
10
17.024
20
75.3781357653814
30
0
0
VERTEX
8
0
10
17.92
20
77.7270270247827
30
0
0
VERTEX
8
0
10
18.816
20
80.0540843395079
30
0
0
VERTEX
8
0
10
19.712
20
82.1559032530546
30
0
0
VERTEX
8
0
10
20.608
20
84.1925018223813
30
0
0
VERTEX
8
0
10
21.504
20
86.2096187708554
30
0
0
VERTEX
8
0
10
22.4
20
88.0101061299313
30
0
0
VERTEX
8
0
10
23.296
20
89.7581224896807
30
0
0
VERTEX
8
0
10
24.192
20
91.4702939991636
30
0
0
VERTEX
8
0
10
25.088
20
93.0909476417094
30
0
0
VERTEX
8
0
10
25.984
20
94.6838090983328
30
0
0
VERTEX
8
0
10
26.88
20
96.2251553773649
30
0
0
VERTEX
8
0
10
27.776
20
97.6467728568608
30
0
0
VERTEX
8
0
10
28.672
20
99.0597323016238
30
0
0
VERTEX
8
0
10
29.568
20
100.444182950339
30
0
0
VERTEX
8
0
10
30.464
20
101.637464304668
30
0
0
VERTEX
8
0
10
31.36
20
102.830180253033
30
0
0
VERTEX
8
0
10
32.256
20
104.018437339416
30
0
0
VERTEX
8
0
10
33.152
20
105.240712219543
30
0
0
VERTEX
8
0
10
34.048
20
106.408618623579
30
0
0
VERTEX
8
0
10
34.944
20
107.557945468693
30
0
0
VERTEX
8
0
10
35.84
20
108.603276809568
30
0
0
VERTEX
8
0
10
36.736
20
109.638533964514
30
0
0
VERTEX
8
0
10
37.632
20
110.637178663157
30
0
0
VERTEX
8
0
10
38.528
20
111.496146269823
30
0
0
VERTEX
8
0
10
39.424
20
112.376709759437
30
0
0
VERTEX
8
0
10
40.32
20
113.22382686185
30
0
0
VERTEX
8
0
10
41.216
20
113.969230197787
30
0
0
VERTEX
8
0
10
42.112
20
114.714408289937
30
0
0
VERTEX
8
0
10
43.008
20
115.457867269199
30
0
0
VERTEX
8
0
10
43.904
20
116.225237438948
30
0
0
VERTEX
8
0
10
44.8
20
116.946531413459
30
0
0
VERTEX
8
0
10
45.696
20
117.654957381943
30
0
0
VERTEX
8
0
10
46.592
20
118.330875870872
30
0
0
VERTEX
8
0
10
47.488
20
118.998634882691
30
0
0
VERTEX
8
0
10
48.384
20
119.632622598559
30
0
0
VERTEX
8
0
10
49.28
20
120.231453629166
30
0
0
VERTEX
8
0
10
50.176
20
120.826599760475
30
0
0
VERTEX
8
0
10
51.072
20
121.390471060933
30
0
0
VERTEX
8
0
10
51.968
20
121.919088148302
30
0
0
VERTEX
8
0
10
52.8639999999999
20
122.435076811025
30
0
0
VERTEX
8
0
10
53.7599999999999
20
122.920801808086
30
0
0
VERTEX
8
0
10
54.6559999999999
20
123.399911009978
30
0
0
VERTEX
8
0
10
55.5519999999999
20
123.859535793643
30
0
0
VERTEX
8
0
10
56.4479999999999
20
124.290184026278
30
0
0
VERTEX
8
0
10
57.3439999999999
20
124.716940856903
30
0
0
VERTEX
8
0
10
58.2399999999999
20
125.135852130215
30
0
0
VERTEX
8
0
10
59.1359999999999
20
125.538068424996
30
0
0
VERTEX
8
0
10
60.0319999999999
20
125.929745430643
30
0
0
VERTEX
8
0
10
60.9279999999999
20
126.315352321888
30
0
0
VERTEX
8
0
10
61.8239999999999
20
126.70209879769
30
0
0
VERTEX
8
0
10
62.7199999999999
20
127.074400654661
30
0
0
VERTEX
8
0
10
63.6159999999999
20
127.433495452101
30
0
0
VERTEX
8
0
10
64.5119999999999
20
127.741312900139
30
0
0
VERTEX
8
0
10
65.4079999999999
20
128.045670933774
30
0
0
VERTEX
8
0
10
66.3039999999999
20
128.341283659367
30
0
0
VERTEX
8
0
10
67.1999999999999
20
128.597165953264
30
0
0
VERTEX
8
0
10
68.0959999999999
20
128.853260181526
30
0
0
VERTEX
8
0
10
68.9919999999999
20
129.1012830016
30
0
0
VERTEX
8
0
10
69.8879999999999
20
129.305883278035
30
0
0
VERTEX
8
0
10
70.7839999999999
20
129.509447989208
30
0
0
VERTEX
8
0
10
71.6799999999999
20
129.69209393173
30
0
0
VERTEX
8
0
10
72.5759999999999
20
129.860138617648
30
0
0
VERTEX
8
0
10
73.4719999999999
20
130.020590467096
30
0
0
VERTEX
8
0
10
74.3679999999999
20
130.161285092998
30
0
0
VERTEX
8
0
10
75.2639999999999
20
130.291291905485
30
0
0
VERTEX
8
0
10
76.1599999999999
20
130.414343260371
30
0
0
VERTEX
8
0
10
77.0559999999999
20
130.515278976388
30
0
0
VERTEX
8
0
10
77.9519999999999
20
130.606272639579
30
0
0
VERTEX
8
0
10
78.8479999999999
20
130.692087938876
30
0
0
VERTEX
8
0
10
79.7439999999999
20
130.75060982445
30
0
0
VERTEX
8
0
10
80.6399999999998
20
130.789091111588
30
0
0
VERTEX
8
0
10
81.5359999999998
20
130.823824508262
30
0
0
VERTEX
8
0
10
82.4319999999998
20
130.838085865056
30
0
0
VERTEX
8
0
10
83.3279999999998
20
130.829050883448
30
0
0
VERTEX
8
0
10
84.2239999999998
20
130.814439553803
30
0
0
VERTEX
8
0
10
85.1199999999998
20
130.784862769012
30
0
0
VERTEX
8
0
10
86.0159999999998
20
130.749118396713
30
0
0
VERTEX
8
0
10
86.9119999999998
20
130.706383258758
30
0
0
VERTEX
8
0
10
87.8079999999998
20
130.649456755938
30
0
0
VERTEX
8
0
10
88.7039999999998
20
130.596837414442
30
0
0
VERTEX
8
0
10
89.5999999999998
20
130.53945029402
30
0
0
VERTEX
8
0
10
90.4959999999998
20
130.474738772821
30
0
0
VERTEX
8
0
10
91.3919999999998
20
130.40458557061
30
0
0
VERTEX
8
0
10
92.2879999999998
20
130.329394374967
30
0
0
VERTEX
8
0
10
93.1839999999998
20
130.254833034667
30
0
0
VERTEX
8
0
10
94.0799999999998
20
130.190486217962
30
0
0
VERTEX
8
0
10
94.9759999999998
20
130.115346498916
30
0
0
VERTEX
8
0
10
95.8719999999998
20
130.040196376266
30
0
0
VERTEX
8
0
10
96.7679999999998
20
129.979189534981
30
0
0
VERTEX
8
0
10
97.6639999999998
20
129.908655896884
30
0
0
VERTEX
8
0
10
98.5599999999998
20
129.84590322933
30
0
0
VERTEX
8
0
10
99.4559999999998
20
129.784151412328
30
0
0
VERTEX
8
0
10
100.352
20
129.719290195968
30
0
0
VERTEX
8
0
10
101.248
20
129.65507209795
30
0
0
VERTEX
8
0
10
102.144
20
129.588187866037
30
0
0
VERTEX
8
0
10
103.04
20
129.517466517726
30
0
0
VERTEX
8
0
10
103.936
20
129.452611312022
30
0
0
VERTEX
8
0
10
104.832
20
129.386380611115
30
0
0
VERTEX
8
0
10
105.728
20
129.31634940472
30
0
0
VERTEX
8
0
10
106.624
20
129.250487453004
30
0
0
VERTEX
8
0
10
107.52
20
129.182747981651
30
0
0
VERTEX
8
0
10
108.416
20
129.112508741106
30
0
0
VERTEX
8
0
10
109.312
20
129.044829415852
30
0
0
VERTEX
8
0
10
110.208
20
128.974679896886
30
0
0
VERTEX
8
0
10
111.104
20
128.902967241054
30
0
0
VERTEX
8
0
10
112
20
128.834183595429
30
0
0
VERTEX
8
0
10
112.896
20
128.762727774985
30
0
0
VERTEX
8
0
10
113.792
20
128.689864036075
30
0
0
VERTEX
8
0
10
114.688
20
128.619764506453
30
0
0
VERTEX
8
0
10
115.584
20
128.548160827506
30
0
0
VERTEX
8
0
10
116.48
20
128.475494722834
30
0
0
VERTEX
8
0
10
117.376
20
128.408708362328
30
0
0
VERTEX
8
0
10
118.272
20
128.340210216333
30
0
0
VERTEX
8
0
10
119.168
20
128.271224747002
30
0
0
VERTEX
8
0
10
120.064
20
128.208693623118
30
0
0
VERTEX
8
0
10
120.96
20
128.145121011102
30
0
0
VERTEX
8
0
10
121.856
20
128.081327972541
30
0
0
VERTEX
8
0
10
122.752
20
128.01827542468
30
0
0
VERTEX
8
0
10
123.648
20
127.95469279307
30
0
0
VERTEX
8
0
10
124.544
20
127.890786066692
30
0
0
VERTEX
8
0
10
125.44
20
127.827901911055
30
0
0
VERTEX
8
0
10
126.336
20
127.764663586302
30
0
0
VERTEX
8
0
10
127.232
20
127.70219697278
30
0
0
VERTEX
8
0
10
128.128
20
127.645147091717
30
0
0
VERTEX
8
0
10
129.024
20
127.587499518772
30
0
0
VERTEX
8
0
10
129.92
20
127.530857123589
30
0
0
VERTEX
8
0
10
130.816
20
127.471910504947
30
0
0
VERTEX
8
0
10
131.712
20
127.413138577301
30
0
0
VERTEX
8
0
10
132.608
20
127.35295305686
30
0
0
VERTEX
8
0
10
133.504
20
127.293522733533
30
0
0
VERTEX
8
0
10
134.4
20
127.233732716226
30
0
0
VERTEX
8
0
10
135.296
20
127.173879327791
30
0
0
VERTEX
8
0
10
136.192
20
127.118188363014
30
0
0
VERTEX
8
0
10
137.088
20
127.061605318336
30
0
0
VERTEX
8
0
10
137.984
20
127.007945785211
30
0
0
VERTEX
8
0
10
138.88
20
126.953389388703
30
0
0
VERTEX
8
0
10
139.776
20
126.899197416098
30
0
0
VERTEX
8
0
10
140.672
20
126.845821839204
30
0
0
VERTEX
8
0
10
141.568
20
126.789615182105
30
0
0
VERTEX
8
0
10
142.464
20
126.734294953084
30
0
0
VERTEX
8
0
10
143.36
20
126.68154419534
30
0
0
VERTEX
8
0
10
144.256
20
126.6367352622
30
0
0
VERTEX
8
0
10
145.152
20
126.589788746956
30
0
0
VERTEX
8
0
10
146.048
20
126.545515817956
30
0
0
VERTEX
8
0
10
146.944
20
126.502923237868
30
0
0
VERTEX
8
0
10
147.84
20
126.459919101438
30
0
0
VERTEX
8
0
10
148.736
20
126.419351368881
30
0
0
VERTEX
8
0
10
149.632
20
126.37929750681
30
0
0
VERTEX
8
0
10
150.528
20
126.339323537341
30
0
0
VERTEX
8
0
10
151.424
20
126.303123703347
30
0
0
VERTEX
8
0
10
152.32
20
126.268198268551
30
0
0
VERTEX
8
0
10
153.216
20
126.233334437771
30
0
0
VERTEX
8
0
10
154.112
20
126.202813525482
30
0
0
VERTEX
8
0
10
155.008
20
126.174226921989
30
0
0
VERTEX
8
0
10
155.904
20
126.145682761684
30
0
0
VERTEX
8
0
10
156.8
20
126.121825705307
30
0
0
VERTEX
8
0
10
157.696
20
126.096256840087
30
0
0
VERTEX
8
0
10
158.592
20
126.0707230373
30
0
0
VERTEX
8
0
10
159.488
20
126.044078521755
30
0
0
VERTEX
8
0
10
160.384
20
126.019502147667
30
0
0
VERTEX
8
0
10
161.28
20
125.994957769086
30
0
0
VERTEX
8
0
10
162.176
20
125.979730840972
30
0
0
VERTEX
8
0
10
163.072
20
125.963158563413
30
0
0
VERTEX
8
0
10
163.968
20
125.946601200341
30
0
0
VERTEX
8
0
10
164.864
20
125.914625986301
30
0
0
VERTEX
8
0
10
165.76
20
125.884366940063
30
0
0
VERTEX
8
0
10
166.656
20
125.854156627165
30
0
0
VERTEX
8
0
10
167.552
20
125.834034772334
30
0
0
VERTEX
8
0
10
168.448
20
125.811764635652
30
0
0
VERTEX
8
0
10
169.344
20
125.789522063545
30
0
0
VERTEX
8
0
10
170.24
20
125.749601804822
30
0
0
VERTEX
8
0
10
171.136
20
125.712774654474
30
0
0
VERTEX
8
0
10
172.032
20
125.675163818279
30
0
0
VERTEX
8
0
10
172.928
20
125.63174709322
30
0
0
VERTEX
8
0
10
173.824
20
125.588369457088
30
0
0
VERTEX
8
0
10
174.72
20
125.54415918408
30
0
0
VERTEX
8
0
10
175.616
20
125.494037027531
30
0
0
VERTEX
8
0
10
176.512
20
125.444260113114
30
0
0
VERTEX
8
0
10
177.408
20
125.395538694387
30
0
0
SEQEND
8
0
0
POLYLINE
8
0
62
2
70
0
10
0
20
0
30
0
0
VERTEX
8
0
10
1.792
20
10.9102251618113
30
0
0
VERTEX
8
0
10
2.688
20
21.5636930627408
30
0
0
VERTEX
8
0
10
3.584
20
18.9729726249123
30
0
0
VERTEX
8
0
10
4.48
20
20.2411528269502
30
0
0
VERTEX
8
0
10
5.376
20
25.6464403651399
30
0
0
VERTEX
8
0
10
6.272
20
32.0108822419156
30
0
0
VERTEX
8
0
10
7.168
20
31.4051876009349
30
0
0
VERTEX
8
0
10
8.064
20
33.1600563879464
30
0
0
VERTEX
8
0
10
8.96
20
36.3872372996795
30
0
0
VERTEX
8
0
10
9.856
20
40.0960740841286
30
0
0
VERTEX
8
0
10
10.752
20
40.7403968803879
30
0
0
VERTEX
8
0
10
11.648
20
42.3859842899094
30
0
0
VERTEX
8
0
10
12.544
20
44.5450220177861
30
0
0
VERTEX
8
0
10
13.44
20
46.9974475371775
30
0
0
VERTEX
8
0
10
14.336
20
47.8704304589999
30
0
0
VERTEX
8
0
10
15.232
20
49.2200482797192
30
0
0
VERTEX
8
0
10
16.128
20
50.7685973855871
30
0
0
VERTEX
8
0
10
17.024
20
52.4862216773311
30
0
0
VERTEX
8
0
10
17.92
20
53.2843047212355
30
0
0
VERTEX
8
0
10
18.816
20
54.3326021315638
30
0
0
VERTEX
8
0
10
19.712
20
55.4544482408462
30
0
0
VERTEX
8
0
10
20.608
20
56.6725706944165
30
0
0
VERTEX
8
0
10
21.504
20
57.3117819108809
30
0
0
VERTEX
8
0
10
22.4
20
58.0894627649557
30
0
0
VERTEX
8
0
10
23.296
20
58.8846096077036
30
0
0
VERTEX
8
0
10
24.192
20
59.7336815623192
30
0
0
VERTEX
8
0
10
25.088
20
60.1985962623231
30
0
0
VERTEX
8
0
10
25.984
20
60.7418648104025
30
0
0
VERTEX
8
0
10
26.88
20
61.2765917415556
30
0
0
VERTEX
8
0
10
27.776
20
61.8403417920465
30
0
0
VERTEX
8
0
10
28.672
20
62.1396166148507
30
0
0
VERTEX
8
0
10
29.568
20
62.4832104294818
30
0
0
VERTEX
8
0
10
30.464
20
62.8067603954952
30
0
0
VERTEX
8
0
10
31.36
20
63.1446969710769
30
0
0
VERTEX
8
0
10
32.256
20
63.2957603462308
30
0
0
VERTEX
8
0
10
33.152
20
63.4713974667964
30
0
0
VERTEX
8
0
10
34.048
20
63.6229427593288
30
0
0
VERTEX
8
0
10
34.944
20
63.7804706064314
30
0
0
VERTEX
8
0
10
35.84
20
63.8035815860692
30
0
0
VERTEX
8
0
10
36.736
20
63.8398168200947
30
0
0
VERTEX
8
0
10
37.632
20
63.8518646502511
30
0
0
VERTEX
8
0
10
38.528
20
63.865371539657
30
0
0
VERTEX
8
0
10
39.424
20
63.7811246451326
30
0
0
VERTEX
8
0
10
40.32
20
63.7035673873821
30
0
0
VERTEX
8
0
10
41.216
20
63.6038196305754
30
0
0
VERTEX
8
0
10
42.112
20
63.5034608147749
30
0
0
VERTEX
8
0
10
43.008
20
63.3316859373097
30
0
0
VERTEX
8
0
10
43.904
20
63.1632762703039
30
0
0
VERTEX
8
0
10
44.8
20
62.9757266046656
30
0
0
VERTEX
8
0
10
45.696
20
62.787050173531
30
0
0
VERTEX
8
0
10
46.592
20
62.5463144112299
30
0
0
VERTEX
8
0
10
47.488
20
62.3075689858109
30
0
0
VERTEX
8
0
10
48.384
20
62.0531845138192
30
0
0
VERTEX
8
0
10
49.28
20
61.7981259226843
30
0
0
VERTEX
8
0
10
50.176
20
61.5055046114344
30
0
0
VERTEX
8
0
10
51.072
20
61.2147113536065
30
0
0
VERTEX
8
0
10
51.968
20
60.9118697593455
30
0
0
VERTEX
8
0
10
52.8639999999999
20
60.6093808084758
30
0
0
VERTEX
8
0
10
53.7599999999999
20
60.2803505939264
30
0
0
VERTEX
8
0
10
54.6559999999999
20
59.9537140540053
30
0
0
VERTEX
8
0
10
55.5519999999999
20
59.6184896101307
30
0
0
VERTEX
8
0
10
56.4479999999999
20
59.2849464031814
30
0
0
VERTEX
8
0
10
57.3439999999999
20
58.9333351747475
30
0
0
VERTEX
8
0
10
58.2399999999999
20
58.5850835370108
30
0
0
VERTEX
8
0
10
59.1359999999999
20
58.2314398612956
30
0
0
VERTEX
8
0
10
60.0319999999999
20
57.8809171492999
30
0
0
VERTEX
8
0
10
60.9279999999999
20
57.5188867420215
30
0
0
VERTEX
8
0
10
61.8239999999999
20
57.1613583949063
30
0
0
VERTEX
8
0
10
62.7199999999999
20
56.8012922677441
30
0
0
VERTEX
8
0
10
63.6159999999999
20
56.4457674645059
30
0
0
VERTEX
8
0
10
64.5119999999999
20
56.0838323117884
30
0
0
VERTEX
8
0
10
65.4079999999999
20
55.727571732939
30
0
0
VERTEX
8
0
10
66.3039999999999
20
55.3712564063064
30
0
0
VERTEX
8
0
10
67.1999999999999
20
55.020808401438
30
0
0
VERTEX
8
0
10
68.0959999999999
20
54.6679276821835
30
0
0
VERTEX
8
0
10
68.9919999999999
20
54.3218539910063
30
0
0
VERTEX
8
0
10
69.8879999999999
20
53.9778710241944
30
0
0
VERTEX
8
0
10
70.7839999999999
20
53.6409950374733
30
0
0
VERTEX
8
0
10
71.6799999999999
20
53.3048768361158
30
0
0
VERTEX
8
0
10
72.5759999999999
20
52.9767330919476
30
0
0
VERTEX
8
0
10
73.4719999999999
20
52.6527070183504
30
0
0
VERTEX
8
0
10
74.3679999999999
20
52.3372428054583
30
0
0
VERTEX
8
0
10
75.2639999999999
20
52.0256933490312
30
0
0
VERTEX
8
0
10
76.1599999999999
20
51.7244070724549
30
0
0
VERTEX
8
0
10
77.0559999999999
20
51.4310368152315
30
0
0
VERTEX
8
0
10
77.9519999999999
20
51.1479765932522
30
0
0
VERTEX
8
0
10
78.8479999999999
20
50.8690669758068
30
0
0
VERTEX
8
0
10
79.7439999999999
20
50.5973398720455
30
0
0
VERTEX
8
0
10
80.6399999999998
20
50.3288415097221
30
0
0
VERTEX
8
0
10
81.5359999999998
20
50.06590703159
30
0
0
VERTEX
8
0
10
82.4319999999998
20
49.804714578832
30
0
0
VERTEX
8
0
10
83.3279999999998
20
49.5482144946212
30
0
0
VERTEX
8
0
10
84.2239999999998
20
49.2933990701917
30
0
0
VERTEX
8
0
10
85.1199999999998
20
49.0425180763667
30
0
0
VERTEX
8
0
10
86.0159999999998
20
48.7927029561784
30
0
0
VERTEX
8
0
10
86.9119999999998
20
48.5463726053471
30
0
0
VERTEX
8
0
10
87.8079999999998
20
48.3010817653157
30
0
0
VERTEX
8
0
10
88.7039999999998
20
48.0588287134148
30
0
0
VERTEX
8
0
10
89.5999999999998
20
47.8174215370788
30
0
0
VERTEX
8
0
10
90.4959999999998
20
47.5787847906337
30
0
0
VERTEX
8
0
10
91.3919999999998
20
47.3409116203151
30
0
0
VERTEX
8
0
10
92.2879999999998
20
47.1055299493111
30
0
0
VERTEX
8
0
10
93.1839999999998
20
46.8709655198108
30
0
0
VERTEX
8
0
10
94.0799999999998
20
46.6387252733176
30
0
0
VERTEX
8
0
10
94.9759999999998
20
46.407165111418
30
0
0
VERTEX
8
0
10
95.8719999999998
20
46.1777544492953
30
0
0
VERTEX
8
0
10
96.7679999999998
20
45.949222137612
30
0
0
VERTEX
8
0
10
97.6639999999998
20
45.7227328402243
30
0
0
VERTEX
8
0
10
98.5599999999998
20
45.496948063677
30
0
0
VERTEX
8
0
10
99.4559999999998
20
45.2730999495051
30
0
0
VERTEX
8
0
10
100.352
20
45.0502321243787
30
0
0
VERTEX
8
0
10
101.248
20
44.8292330834679
30
0
0
VERTEX
8
0
10
102.144
20
44.6090229187735
30
0
0
VERTEX
8
0
10
103.04
20
44.3906205606683
30
0
0
VERTEX
8
0
10
103.936
20
44.1733145983872
30
0
0
VERTEX
8
0
10
104.832
20
43.9577731448583
30
0
0
VERTEX
8
0
10
105.728
20
43.7431347632526
30
0
0
VERTEX
8
0
10
106.624
20
43.5302294989499
30
0
0
VERTEX
8
0
10
107.52
20
43.3185352513654
30
0
0
VERTEX
8
0
10
108.416
20
43.1085459467158
30
0
0
VERTEX
8
0
10
109.312
20
42.8995838807615
30
0
0
VERTEX
8
0
10
110.208
20
42.6923136922844
30
0
0
VERTEX
8
0
10
111.104
20
42.486358195328
30
0
0
VERTEX
8
0
10
112
20
42.2820749816018
30
0
0
VERTEX
8
0
10
112.896
20
42.0789398730697
30
0
0
VERTEX
8
0
10
113.792
20
41.8774742709579
30
0
0
VERTEX
8
0
10
114.688
20
41.6774106611183
30
0
0
VERTEX
8
0
10
115.584
20
41.479001157663
30
0
0
VERTEX
8
0
10
116.48
20
41.2818489177486
30
0
0
VERTEX
8
0
10
117.376
20
41.0863528542595
30
0
0
VERTEX
8
0
10
118.272
20
40.8923274581419
30
0
0
VERTEX
8
0
10
119.168
20
40.6999445456977
30
0
0
VERTEX
8
0
10
120.064
20
40.5089121060749
30
0
0
VERTEX
8
0
10
120.96
20
40.3195260217683
30
0
0
VERTEX
8
0
10
121.856
20
40.1316615302333
30
0
0
VERTEX
8
0
10
122.752
20
39.9454309265916
30
0
0
VERTEX
8
0
10
123.648
20
39.7606280437165
30
0
0
VERTEX
8
0
10
124.544
20
39.5774642539272
30
0
0
VERTEX
8
0
10
125.44
20
39.3958599079564
30
0
0
VERTEX
8
0
10
126.336
20
39.2158854494021
30
0
0
VERTEX
8
0
10
127.232
20
39.0374051189814
30
0
0
VERTEX
8
0
10
128.128
20
38.8605640292334
30
0
0
VERTEX
8
0
10
129.024
20
38.685317339427
30
0
0
VERTEX
8
0
10
129.92
20
38.5117097263759
30
0
0
VERTEX
8
0
10
130.816
20
38.3396644393965
30
0
0
VERTEX
8
0
10
131.712
20
38.1692796211847
30
0
0
VERTEX
8
0
10
132.608
20
38.0005408751277
30
0
0
VERTEX
8
0
10
133.504
20
37.8334839921951
30
0
0
VERTEX
8
0
10
134.4
20
37.6680856470537
30
0
0
VERTEX
8
0
10
135.296
20
37.5044205017315
30
0
0
VERTEX
8
0
10
136.192
20
37.3425094304001
30
0
0
VERTEX
8
0
10
137.088
20
37.182402866289
30
0
0
VERTEX
8
0
10
137.984
20
37.0241381825021
30
0
0
VERTEX
8
0
10
138.88
20
36.8678055652041
30
0
0
VERTEX
8
0
10
139.776
20
36.7134915498034
30
0
0
VERTEX
8
0
10
140.672
20
36.5613192593442
30
0
0
VERTEX
8
0
10
141.568
20
36.4114542706012
30
0
0
VERTEX
8
0
10
142.464
20
36.2641449121328
30
0
0
VERTEX
8
0
10
143.36
20
36.1197257169351
30
0
0
VERTEX
8
0
10
144.256
20
35.9784134378803
30
0
0
VERTEX
8
0
10
145.152
20
35.8400167356833
30
0
0
VERTEX
8
0
10
146.048
20
35.7042181946286
30
0
0
VERTEX
8
0
10
146.944
20
35.5707783461157
30
0
0
VERTEX
8
0
10
147.84
20
35.4395230301791
30
0
0
VERTEX
8
0
10
148.736
20
35.3103172079739
30
0
0
VERTEX
8
0
10
149.632
20
35.1830506437376
30
0
0
VERTEX
8
0
10
150.528
20
35.0576301163545
30
0
0
VERTEX
8
0
10
151.424
20
34.9339748078866
30
0
0
VERTEX
8
0
10
152.32
20
34.8120133570203
30
0
0
VERTEX
8
0
10
153.216
20
34.691681861885
30
0
0
VERTEX
8
0
10
154.112
20
34.5729224631646
30
0
0
VERTEX
8
0
10
155.008
20
34.4556823019286
30
0
0
VERTEX
8
0
10
155.904
20
34.3399127302921
30
0
0
VERTEX
8
0
10
156.8
20
34.2255686988872
30
0
0
VERTEX
8
0
10
157.696
20
34.1126082717288
30
0
0
VERTEX
8
0
10
158.592
20
34.0009922352131
30
0
0
VERTEX
8
0
10
159.488
20
33.8906837781928
30
0
0
VERTEX
8
0
10
160.384
20
33.7816482267368
30
0
0
VERTEX
8
0
10
161.28
20
33.6738528216609
30
0
0
VERTEX
8
0
10
162.176
20
33.567266530001
30
0
0
VERTEX
8
0
10
163.072
20
33.4618598837728
30
0
0
VERTEX
8
0
10
163.968
20
33.3576048409236
30
0
0
VERTEX
8
0
10
164.864
20
33.2544746645247
30
0
0
VERTEX
8
0
10
165.76
20
33.1524438170946
30
0
0
VERTEX
8
0
10
166.656
20
33.0514878675873
30
0
0
VERTEX
8
0
10
167.552
20
32.951583409063
30
0
0
VERTEX
8
0
10
168.448
20
32.8527079854347
30
0
0
VERTEX
8
0
10
169.344
20
32.7548400259784
30
0
0
VERTEX
8
0
10
170.24
20
32.6579587865245
30
0
0
VERTEX
8
0
10
171.136
20
32.5620442964325
30
0
0
VERTEX
8
0
10
172.032
20
32.4670773105992
30
0
0
VERTEX
8
0
10
172.928
20
32.3730392658671
30
0
0
VERTEX
8
0
10
173.824
20
32.2799122412991
30
0
0
VERTEX
8
0
10
174.72
20
32.1876789218676
30
0
0
VERTEX
8
0
10
175.616
20
32.0963225651643
30
0
0
VERTEX
8
0
10
176.512
20
32.0058269707995
30
0
0
VERTEX
8
0
10
177.408
20
31.9161764522025
30
0
0
SEQEND
8
0
0
POLYLINE
8
0
62
3
70
0
10
0
20
0
30
0
0
VERTEX
8
0
10
1.792
20
12.6634820742027
30
0
0
VERTEX
8
0
10
2.688
20
23.5619453848946
30
0
0
VERTEX
8
0
10
3.584
20
22.7179196832872
30
0
0
VERTEX
8
0
10
4.48
20
25.448948119554
30
0
0
VERTEX
8
0
10
5.376
20
31.4555409586399
30
0
0
VERTEX
8
0
10
6.272
20
38.2446530413707
30
0
0
VERTEX
8
0
10
7.168
20
39.2820125706089
30
0
0
VERTEX
8
0
10
8.064
20
42.2588037378643
30
0
0
VERTEX
8
0
10
8.96
20
46.3182495947839
30
0
0
VERTEX
8
0
10
9.856
20
50.7148383349109
30
0
0
VERTEX
8
0
10
10.752
20
52.6909221291656
30
0
0
VERTEX
8
0
10
11.648
20
55.4226208565642
30
0
0
VERTEX
8
0
10
12.544
20
58.4713522786022
30
0
0
VERTEX
8
0
10
13.44
20
61.7023122321702
30
0
0
VERTEX
8
0
10
14.336
20
63.7213780598329
30
0
0
VERTEX
8
0
10
15.232
20
66.066989418256
30
0
0
VERTEX
8
0
10
16.128
20
68.4887845457357
30
0
0
VERTEX
8
0
10
17.024
20
70.9972935650044
30
0
0
VERTEX
8
0
10
17.92
20
72.815390349715
30
0
0
VERTEX
8
0
10
18.816
20
74.7827532015688
30
0
0
VERTEX
8
0
10
19.712
20
76.7366675576367
30
0
0
VERTEX
8
0
10
20.608
20
78.7243921230121
30
0
0
VERTEX
8
0
10
21.504
20
80.2846600923864
30
0
0
VERTEX
8
0
10
22.4
20
81.9106478262782
30
0
0
VERTEX
8
0
10
23.296
20
83.4878198734066
30
0
0
VERTEX
8
0
10
24.192
20
85.0701603648154
30
0
0
VERTEX
8
0
10
25.088
20
86.3723862943559
30
0
0
VERTEX
8
0
10
25.984
20
87.6979728746509
30
0
0
VERTEX
8
0
10
26.88
20
88.9622897072183
30
0
0
VERTEX
8
0
10
27.776
20
90.2166616161067
30
0
0
VERTEX
8
0
10
28.672
20
91.2798847429172
30
0
0
VERTEX
8
0
10
29.568
20
92.3444431292557
30
0
0
VERTEX
8
0
10
30.464
20
93.3458933474532
30
0
0
VERTEX
8
0
10
31.36
20
94.3300197121798
30
0
0
VERTEX
8
0
10
32.256
20
95.1798245518838
30
0
0
VERTEX
8
0
10
33.152
20
96.0197999764076
30
0
0
VERTEX
8
0
10
34.048
20
96.7999405017995
30
0
0
VERTEX
8
0
10
34.944
20
97.5599089655186
30
0
0
VERTEX
8
0
10
35.84
20
98.2235092171919
30
0
0
VERTEX
8
0
10
36.736
20
98.8722220221731
30
0
0
VERTEX
8
0
10
37.632
20
99.4667837322028
30
0
0
VERTEX
8
0
10
38.528
20
100.041007990718
30
0
0
VERTEX
8
0
10
39.424
20
100.545159703533
30
0
0
VERTEX
8
0
10
40.32
20
101.032897372432
30
0
0
VERTEX
8
0
10
41.216
20
101.473162001956
30
0
0
VERTEX
8
0
10
42.112
20
101.894494363171
30
0
0
VERTEX
8
0
10
43.008
20
102.264545435652
30
0
0
VERTEX
8
0
10
43.904
20
102.618705115345
30
0
0
VERTEX
8
0
10
44.8
20
102.932285743249
30
0
0
VERTEX
8
0
10
45.696
20
103.229213974709
30
0
0
VERTEX
8
0
10
46.592
20
103.488645290095
30
0
0
VERTEX
8
0
10
47.488
20
103.733861041508
30
0
0
VERTEX
8
0
10
48.384
20
103.945167053608
30
0
0
VERTEX
8
0
10
49.28
20
104.142525197592
30
0
0
VERTEX
8
0
10
50.176
20
104.312718625654
30
0
0
VERTEX
8
0
10
51.072
20
104.470962059327
30
0
0
VERTEX
8
0
10
51.968
20
104.601488851931
30
0
0
VERTEX
8
0
10
52.8639999999999
20
104.720898581165
30
0
0
VERTEX
8
0
10
53.7599999999999
20
104.821018835336
30
0
0
VERTEX
8
0
10
54.6559999999999
20
104.911679920348
30
0
0
VERTEX
8
0
10
55.5519999999999
20
104.980201625463
30
0
0
VERTEX
8
0
10
56.4479999999999
20
105.040363223452
30
0
0
VERTEX
8
0
10
57.3439999999999
20
105.087306326185
30
0
0
VERTEX
8
0
10
58.2399999999999
20
105.127267518899
30
0
0
VERTEX
8
0
10
59.1359999999999
20
105.149981804047
30
0
0
VERTEX
8
0
10
60.0319999999999
20
105.166886626219
30
0
0
VERTEX
8
0
10
60.9279999999999
20
105.175278635521
30
0
0
VERTEX
8
0
10
61.8239999999999
20
105.178998305238
30
0
0
VERTEX
8
0
10
62.7199999999999
20
105.169658491699
30
0
0
VERTEX
8
0
10
63.6159999999999
20
105.156771789655
30
0
0
VERTEX
8
0
10
64.5119999999999
20
105.139018445653
30
0
0
VERTEX
8
0
10
65.4079999999999
20
105.118643225957
30
0
0
VERTEX
8
0
10
66.3039999999999
20
105.088709386565
30
0
0
VERTEX
8
0
10
67.1999999999999
20
105.057165337126
30
0
0
VERTEX
8
0
10
68.0959999999999
20
105.023569720746
30
0
0
VERTEX
8
0
10
68.9919999999999
20
104.989108247595
30
0
0
VERTEX
8
0
10
69.8879999999999
20
104.947963211406
30
0
0
VERTEX
8
0
10
70.7839999999999
20
104.906834281587
30
0
0
VERTEX
8
0
10
71.6799999999999
20
104.865845567639
30
0
0
VERTEX
8
0
10
72.5759999999999
20
104.82550123017
30
0
0
VERTEX
8
0
10
73.4719999999999
20
104.780880224183
30
0
0
VERTEX
8
0
10
74.3679999999999
20
104.737757563118
30
0
0
VERTEX
8
0
10
75.2639999999999
20
104.696744458172
30
0
0
VERTEX
8
0
10
76.1599999999999
20
104.658186072627
30
0
0
VERTEX
8
0
10
77.0559999999999
20
104.618237446128
30
0
0
VERTEX
8
0
10
77.9519999999999
20
104.581057663738
30
0
0
VERTEX
8
0
10
78.8479999999999
20
104.546086043969
30
0
0
VERTEX
8
0
10
79.7439999999999
20
104.51217006239
30
0
0
VERTEX
8
0
10
80.6399999999998
20
104.474933503244
30
0
0
VERTEX
8
0
10
81.5359999999998
20
104.438133753578
30
0
0
VERTEX
8
0
10
82.4319999999998
20
104.402128438061
30
0
0
VERTEX
8
0
10
83.3279999999998
20
104.366026058366
30
0
0
VERTEX
8
0
10
84.2239999999998
20
104.326267848228
30
0
0
VERTEX
8
0
10
85.1199999999998
20
104.286247449519
30
0
0
VERTEX
8
0
10
86.0159999999998
20
104.246542498519
30
0
0
VERTEX
8
0
10
86.9119999999998
20
104.206283555353
30
0
0
VERTEX
8
0
10
87.8079999999998
20
104.162498710922
30
0
0
VERTEX
8
0
10
88.7039999999998
20
104.118155925007
30
0
0
VERTEX
8
0
10
89.5999999999998
20
104.073919904376
30
0
0
VERTEX
8
0
10
90.4959999999998
20
104.028946575247
30
0
0
VERTEX
8
0
10
91.3919999999998
20
103.980755655947
30
0
0
VERTEX
8
0
10
92.2879999999998
20
103.931904124316
30
0
0
VERTEX
8
0
10
93.1839999999998
20
103.883076504997
30
0
0
VERTEX
8
0
10
94.0799999999998
20
103.833474601419
30
0
0
VERTEX
8
0
10
94.9759999999998
20
103.781041619128
30
0
0
VERTEX
8
0
10
95.8719999999998
20
103.727954355727
30
0
0
VERTEX
8
0
10
96.7679999999998
20
103.674875969336
30
0
0
VERTEX
8
0
10
97.6639999999998
20
103.621071969704
30
0
0
VERTEX
8
0
10
98.5599999999998
20
103.564852361491
30
0
0
VERTEX
8
0
10
99.4559999999998
20
103.508049100984
30
0
0
VERTEX
8
0
10
100.352
20
103.451278085931
30
0
0
VERTEX
8
0
10
101.248
20
103.393880590275
30
0
0
VERTEX
8
0
10
102.144
20
103.334483795139
30
0
0
VERTEX
8
0
10
103.04
20
103.274610912014
30
0
0
VERTEX
8
0
10
103.936
20
103.214815033744
30
0
0
VERTEX
8
0
10
104.832
20
103.154519672155
30
0
0
VERTEX
8
0
10
105.728
20
103.092624960725
30
0
0
VERTEX
8
0
10
106.624
20
103.030380616119
30
0
0
VERTEX
8
0
10
107.52
20
102.968268782144
30
0
0
VERTEX
8
0
10
108.416
20
102.905797059491
30
0
0
VERTEX
8
0
10
109.312
20
102.842098928054
30
0
0
VERTEX
8
0
10
110.208
20
102.778184238411
30
0
0
VERTEX
8
0
10
111.104
20
102.714461437308
30
0
0
VERTEX
8
0
10
112
20
102.650520523532
30
0
0
VERTEX
8
0
10
112.896
20
102.585692890388
30
0
0
VERTEX
8
0
10
113.792
20
102.520780153223
30
0
0
VERTEX
8
0
10
114.688
20
102.456118268004
30
0
0
VERTEX
8
0
10
115.584
20
102.391375400889
30
0
0
VERTEX
8
0
10
116.48
20
102.326049284692
30
0
0
VERTEX
8
0
10
117.376
20
102.260762790462
30
0
0
VERTEX
8
0
10
118.272
20
102.195783495103
30
0
0
VERTEX
8
0
10
119.168
20
102.130851826579
30
0
0
VERTEX
8
0
10
120.064
20
102.065603875482
30
0
0
VERTEX
8
0
10
120.96
20
102.000511147152
30
0
0
VERTEX
8
0
10
121.856
20
101.935779118015
30
0
0
VERTEX
8
0
10
122.752
20
101.871213621306
30
0
0
VERTEX
8
0
10
123.648
20
101.806564464172
30
0
0
VERTEX
8
0
10
124.544
20
101.742177232577
30
0
0
VERTEX
8
0
10
125.44
20
101.678203286126
30
0
0
VERTEX
8
0
10
126.336
20
101.614506665413
30
0
0
VERTEX
8
0
10
127.232
20
101.550929364321
30
0
0
VERTEX
8
0
10
128.128
20
101.487714921057
30
0
0
VERTEX
8
0
10
129.024
20
101.42497010003
30
0
0
VERTEX
8
0
10
129.92
20
101.362610179947
30
0
0
VERTEX
8
0
10
130.816
20
101.300550790315
30
0
0
VERTEX
8
0
10
131.712
20
101.238956363446
30
0
0
VERTEX
8
0
10
132.608
20
101.177900390175
30
0
0
VERTEX
8
0
10
133.504
20
101.11734340049
30
0
0
VERTEX
8
0
10
134.4
20
101.057259339513
30
0
0
VERTEX
8
0
10
135.296
20
100.997756896578
30
0
0
VERTEX
8
0
10
136.192
20
100.938890695236
30
0
0
VERTEX
8
0
10
137.088
20
100.880663363876
30
0
0
VERTEX
8
0
10
137.984
20
100.82309709419
30
0
0
VERTEX
8
0
10
138.88
20
100.766272881907
30
0
0
VERTEX
8
0
10
139.776
20
100.710249956114
30
0
0
VERTEX
8
0
10
140.672
20
100.655082205931
30
0
0
VERTEX
8
0
10
141.568
20
100.600851388101
30
0
0
VERTEX
8
0
10
142.464
20
100.547674734437
30
0
0
VERTEX
8
0
10
143.36
20
100.495691404635
30
0
0
VERTEX
8
0
10
144.256
20
100.444990328413
30
0
0
VERTEX
8
0
10
145.152
20
100.395501394328
30
0
0
VERTEX
8
0
10
146.048
20
100.347103112935
30
0
0
VERTEX
8
0
10
146.944
20
100.299701789361
30
0
0
VERTEX
8
0
10
147.84
20
100.253227876019
30
0
0
VERTEX
8
0
10
148.736
20
100.207626497636
30
0
0
VERTEX
8
0
10
149.632
20
100.162852193629
30
0
0
VERTEX
8
0
10
150.528
20
100.118866036018
30
0
0
VERTEX
8
0
10
151.424
20
100.075633911762
30
0
0
VERTEX
8
0
10
152.32
20
100.033125418195
30
0
0
VERTEX
8
0
10
153.216
20
99.9913131095358
30
0
0
VERTEX
8
0
10
154.112
20
99.9501719588665
30
0
0
VERTEX
8
0
10
155.008
20
99.9096789598208
30
0
0
VERTEX
8
0
10
155.904
20
99.8698128229301
30
0
0
VERTEX
8
0
10
156.8
20
99.8305537384485
30
0
0
VERTEX
8
0
10
157.696
20
99.7918831872786
30
0
0
VERTEX
8
0
10
158.592
20
99.753783787594
30
0
0
VERTEX
8
0
10
159.488
20
99.716239168535
30
0
0
VERTEX
8
0
10
160.384
20
99.6792338648226
30
0
0
VERTEX
8
0
10
161.28
20
99.6427532278079
30
0
0
VERTEX
8
0
10
162.176
20
99.6067833496248
30
0
0
VERTEX
8
0
10
163.072
20
99.5713109979189
30
0
0
VERTEX
8
0
10
163.968
20
99.5363235592224
30
0
0
VERTEX
8
0
10
164.864
20
99.5018089894679
30
0
0
VERTEX
8
0
10
165.76
20
99.4677557704436
30
0
0
VERTEX
8
0
10
166.656
20
99.4341528712556
30
0
0
VERTEX
8
0
10
167.552
20
99.4009897140237
30
0
0
VERTEX
8
0
10
168.448
20
99.3682561431931
30
0
0
VERTEX
8
0
10
169.344
20
99.3359423979581
30
0
0
VERTEX
8
0
10
170.24
20
99.3040390873672
30
0
0
VERTEX
8
0
10
171.136
20
99.2725371677679
30
0
0
VERTEX
8
0
10
172.032
20
99.2414279222917
30
0
0
VERTEX
8
0
10
172.928
20
99.2107029421339
30
0
0
VERTEX
8
0
10
173.824
20
99.1803541094152
30
0
0
VERTEX
8
0
10
174.72
20
99.1503735814456
30
0
0
VERTEX
8
0
10
175.616
20
99.1207537762405
30
0
0
VERTEX
8
0
10
176.512
20
99.0914873591458
30
0
0
VERTEX
8
0
10
177.408
20
99.0625672304688
30
0
0
SEQEND
8
0
0
POLYLINE
8
0
62
4
70
0
10
0
20
0
30
0
0
VERTEX
8
0
10
1.792
20
14.2319337671354
30
0
0
VERTEX
8
0
10
2.688
20
20.2902389420617
30
0
0
VERTEX
8
0
10
3.584
20
24.6447749831813
30
0
0
VERTEX
8
0
10
4.48
20
28.302104844425
30
0
0
VERTEX
8
0
10
5.376
20
31.7946394480399
30
0
0
VERTEX
8
0
10
6.272
20
35.9695686021561
30
0
0
VERTEX
8
0
10
7.168
20
39.8896420415143
30
0
0
VERTEX
8
0
10
8.064
20
43.1985123740584
30
0
0
VERTEX
8
0
10
8.96
20
46.3019944954132
30
0
0
VERTEX
8
0
10
9.856
20
49.3367243390391
30
0
0
VERTEX
8
0
10
10.752
20
52.3147551876058
30
0
0
VERTEX
8
0
10
11.648
20
55.0998753511567
30
0
0
VERTEX
8
0
10
12.544
20
57.7968450147475
30
0
0
VERTEX
8
0
10
13.44
20
60.4189836490388
30
0
0
VERTEX
8
0
10
14.336
20
62.9560836659291
30
0
0
VERTEX
8
0
10
15.232
20
65.4216602533059
30
0
0
VERTEX
8
0
10
16.128
20
67.7327209807631
30
0
0
VERTEX
8
0
10
17.024
20
70.0034992988237
30
0
0
VERTEX
8
0
10
17.92
20
72.0715534878798
30
0
0
VERTEX
8
0
10
18.816
20
74.118547297627
30
0
0
VERTEX
8
0
10
19.712
20
75.9329614921903
30
0
0
VERTEX
8
0
10
20.608
20
77.6760419087777
30
0
0
VERTEX
8
0
10
21.504
20
79.4080732943563
30
0
0
VERTEX
8
0
10
22.4
20
80.9096903629867
30
0
0
VERTEX
8
0
10
23.296
20
82.3512849624027
30
0
0
VERTEX
8
0
10
24.192
20
83.7612249201321
30
0
0
VERTEX
8
0
10
25.088
20
85.0830948976489
30
0
0
VERTEX
8
0
10
25.984
20
86.3771287733062
30
0
0
VERTEX
8
0
10
26.88
20
87.6151824964403
30
0
0
VERTEX
8
0
10
27.776
20
88.7238914469641
30
0
0
VERTEX
8
0
10
28.672
20
89.8325351449214
30
0
0
VERTEX
8
0
10
29.568
20
90.9113815879878
30
0
0
VERTEX
8
0
10
30.464
20
91.7811037682808
30
0
0
VERTEX
8
0
10
31.36
20
92.6465759352577
30
0
0
VERTEX
8
0
10
32.256
20
93.5032588965677
30
0
0
VERTEX
8
0
10
33.152
20
94.4027805057789
30
0
0
VERTEX
8
0
10
34.048
20
95.2447748004376
30
0
0
VERTEX
8
0
10
34.944
20
96.0615946814691
30
0
0
VERTEX
8
0
10
35.84
20
96.764434640941
30
0
0
VERTEX
8
0
10
36.736
20
97.4646641916785
30
0
0
VERTEX
8
0
10
37.632
20
98.1251255202527
30
0
0
VERTEX
8
0
10
38.528
20
98.626144159394
30
0
0
VERTEX
8
0
10
39.424
20
99.1526133332109
30
0
0
VERTEX
8
0
10
40.32
20
99.6579047056257
30
0
0
VERTEX
8
0
10
41.216
20
100.051308121533
30
0
0
VERTEX
8
0
10
42.112
20
100.447291970132
30
0
0
VERTEX
8
0
10
43.008
20
100.836480036807
30
0
0
VERTEX
8
0
10
43.904
20
101.257886885316
30
0
0
VERTEX
8
0
10
44.8
20
101.634395848398
30
0
0
VERTEX
8
0
10
45.696
20
101.994064672143
30
0
0
VERTEX
8
0
10
46.592
20
102.314668879184
30
0
0
VERTEX
8
0
10
47.488
20
102.629323875839
30
0
0
VERTEX
8
0
10
48.384
20
102.893317184737
30
0
0
VERTEX
8
0
10
49.28
20
103.120539262202
30
0
0
VERTEX
8
0
10
50.176
20
103.342395084757
30
0
0
VERTEX
8
0
10
51.072
20
103.534520749579
30
0
0
VERTEX
8
0
10
51.968
20
103.693771798865
30
0
0
VERTEX
8
0
10
52.8639999999999
20
103.841308234472
30
0
0
VERTEX
8
0
10
53.7599999999999
20
103.981860558819
30
0
0
VERTEX
8
0
10
54.6559999999999
20
104.109517230612
30
0
0
VERTEX
8
0
10
55.5519999999999
20
104.219385119928
30
0
0
VERTEX
8
0
10
56.4479999999999
20
104.31943243948
30
0
0
VERTEX
8
0
10
57.3439999999999
20
104.415948063083
30
0
0
VERTEX
8
0
10
58.2399999999999
20
104.503005143806
30
0
0
VERTEX
8
0
10
59.1359999999999
20
104.582647362392
30
0
0
VERTEX
8
0
10
60.0319999999999
20
104.656774961129
30
0
0
VERTEX
8
0
10
60.9279999999999
20
104.728056558216
30
0
0
VERTEX
8
0
10
61.8239999999999
20
104.793070228362
30
0
0
VERTEX
8
0
10
62.7199999999999
20
104.84611249199
30
0
0
VERTEX
8
0
10
63.6159999999999
20
104.892480262842
30
0
0
VERTEX
8
0
10
64.5119999999999
20
104.9186070239
30
0
0
VERTEX
8
0
10
65.4079999999999
20
104.935156592077
30
0
0
VERTEX
8
0
10
66.3039999999999
20
104.941750035582
30
0
0
VERTEX
8
0
10
67.1999999999999
20
104.939798592986
30
0
0
VERTEX
8
0
10
68.0959999999999
20
104.936317284082
30
0
0
VERTEX
8
0
10
68.9919999999999
20
104.928106243753
30
0
0
VERTEX
8
0
10
69.8879999999999
20
104.895667498801
30
0
0
VERTEX
8
0
10
70.7839999999999
20
104.858567262404
30
0
0
VERTEX
8
0
10
71.6799999999999
20
104.821178605273
30
0
0
VERTEX
8
0
10
72.5759999999999
20
104.785954862872
30
0
0
VERTEX
8
0
10
73.4719999999999
20
104.744344814616
30
0
0
VERTEX
8
0
10
74.3679999999999
20
104.6999225649
30
0
0
VERTEX
8
0
10
75.2639999999999
20
104.663396982554
30
0
0
VERTEX
8
0
10
76.1599999999999
20
104.62384579657
30
0
0
VERTEX
8
0
10
77.0559999999999
20
104.579024254987
30
0
0
VERTEX
8
0
10
77.9519999999999
20
104.533975804239
30
0
0
VERTEX
8
0
10
78.8479999999999
20
104.48901919774
30
0
0
VERTEX
8
0
10
79.7439999999999
20
104.441748636935
30
0
0
VERTEX
8
0
10
80.6399999999998
20
104.385636339058
30
0
0
VERTEX
8
0
10
81.5359999999998
20
104.328040819297
30
0
0
VERTEX
8
0
10
82.4319999999998
20
104.270632866113
30
0
0
VERTEX
8
0
10
83.3279999999998
20
104.198471139375
30
0
0
VERTEX
8
0
10
84.2239999999998
20
104.124404489816
30
0
0
VERTEX
8
0
10
85.1199999999998
20
104.048603105374
30
0
0
VERTEX
8
0
10
86.0159999999998
20
103.97301735069
30
0
0
VERTEX
8
0
10
86.9119999999998
20
103.895652772352
30
0
0
VERTEX
8
0
10
87.8079999999998
20
103.814686667361
30
0
0
VERTEX
8
0
10
88.7039999999998
20
103.745440064796
30
0
0
VERTEX
8
0
10
89.5999999999998
20
103.673057053088
30
0
0
VERTEX
8
0
10
90.4959999999998
20
103.598979087202
30
0
0
VERTEX
8
0
10
91.3919999999998
20
103.523908822258
30
0
0
VERTEX
8
0
10
92.2879999999998
20
103.446745804285
30
0
0
VERTEX
8
0
10
93.1839999999998
20
103.36955781802
30
0
0
VERTEX
8
0
10
94.0799999999998
20
103.309319770214
30
0
0
VERTEX
8
0
10
94.9759999999998
20
103.240665801878
30
0
0
VERTEX
8
0
10
95.8719999999998
20
103.17058109053
30
0
0
VERTEX
8
0
10
96.7679999999998
20
103.121509061276
30
0
0
VERTEX
8
0
10
97.6639999999998
20
103.064057600703
30
0
0
VERTEX
8
0
10
98.5599999999998
20
103.011376252046
30
0
0
VERTEX
8
0
10
99.4559999999998
20
102.964077022449
30
0
0
VERTEX
8
0
10
100.352
20
102.916321714708
30
0
0
VERTEX
8
0
10
101.248
20
102.870665302708
30
0
0
VERTEX
8
0
10
102.144
20
102.825248664225
30
0
0
VERTEX
8
0
10
103.04
20
102.778476099198
30
0
0
VERTEX
8
0
10
103.936
20
102.736071562027
30
0
0
VERTEX
8
0
10
104.832
20
102.69518087241
30
0
0
VERTEX
8
0
10
105.728
20
102.652160819069
30
0
0
VERTEX
8
0
10
106.624
20
102.611041107109
30
0
0
VERTEX
8
0
10
107.52
20
102.570870702785
30
0
0
VERTEX
8
0
10
108.416
20
102.52946601546
30
0
0
VERTEX
8
0
10
109.312
20
102.488469573518
30
0
0
VERTEX
8
0
10
110.208
20
102.447206889387
30
0
0
VERTEX
8
0
10
111.104
20
102.405431214615
30
0
0
VERTEX
8
0
10
112
20
102.36376793102
30
0
0
VERTEX
8
0
10
112.896
20
102.320912219533
30
0
0
VERTEX
8
0
10
113.792
20
102.277132716397
30
0
0
VERTEX
8
0
10
114.688
20
102.234128012104
30
0
0
VERTEX
8
0
10
115.584
20
102.190463398766
30
0
0
VERTEX
8
0
10
116.48
20
102.145558187863
30
0
0
VERTEX
8
0
10
117.376
20
102.101192026441
30
0
0
VERTEX
8
0
10
118.272
20
102.056563401092
30
0
0
VERTEX
8
0
10
119.168
20
102.011184468415
30
0
0
VERTEX
8
0
10
120.064
20
101.970311864705
30
0
0
VERTEX
8
0
10
120.96
20
101.929128941493
30
0
0
VERTEX
8
0
10
121.856
20
101.887545367228
30
0
0
VERTEX
8
0
10
122.752
20
101.846768911412
30
0
0
VERTEX
8
0
10
123.648
20
101.805202240828
30
0
0
VERTEX
8
0
10
124.544
20
101.763104257539
30
0
0
VERTEX
8
0
10
125.44
20
101.722167188422
30
0
0
VERTEX
8
0
10
126.336
20
101.68066063075
30
0
0
VERTEX
8
0
10
127.232
20
101.638550654704
30
0
0
VERTEX
8
0
10
128.128
20
101.602293412627
30
0
0
VERTEX
8
0
10
129.024
20
101.565174687292
30
0
0
VERTEX
8
0
10
129.92
20
101.527654822946
30
0
0
VERTEX
8
0
10
130.816
20
101.48642872106
30
0
0
VERTEX
8
0
10
131.712
20
101.44532583542
30
0
0
VERTEX
8
0
10
132.608
20
101.404007786922
30
0
0
VERTEX
8
0
10
133.504
20
101.364118507007
30
0
0
VERTEX
8
0
10
134.4
20
101.323666641016
30
0
0
VERTEX
8
0
10
135.296
20
101.283024223625
30
0
0
VERTEX
8
0
10
136.192
20
101.247496755572
30
0
0
VERTEX
8
0
10
137.088
20
101.210737319028
30
0
0
VERTEX
8
0
10
137.984
20
101.173828240717
30
0
0
VERTEX
8
0
10
138.88
20
101.135013216446
30
0
0
VERTEX
8
0
10
139.776
20
101.096571276294
30
0
0
VERTEX
8
0
10
140.672
20
101.058093465819
30
0
0
VERTEX
8
0
10
141.568
20
101.015868859447
30
0
0
VERTEX
8
0
10
142.464
20
100.974678638243
30
0
0
VERTEX
8
0
10
143.36
20
100.933560830812
30
0
0
VERTEX
8
0
10
144.256
20
100.902177457642
30
0
0
VERTEX
8
0
10
145.152
20
100.868049644863
30
0
0
VERTEX
8
0
10
146.048
20
100.833995053865
30
0
0
VERTEX
8
0
10
146.944
20
100.802001379164
30
0
0
VERTEX
8
0
10
147.84
20
100.769444633956
30
0
0
VERTEX
8
0
10
148.736
20
100.737653607512
30
0
0
VERTEX
8
0
10
149.632
20
100.706580823521
30
0
0
VERTEX
8
0
10
150.528
20
100.67557050844
30
0
0
VERTEX
8
0
10
151.424
20
100.64691504275
30
0
0
VERTEX
8
0
10
152.32
20
100.620050756046
30
0
0
VERTEX
8
0
10
153.216
20
100.593233826784
30
0
0
VERTEX
8
0
10
154.112
20
100.570615752832
30
0
0
VERTEX
8
0
10
155.008
20
100.55056420589
30
0
0
VERTEX
8
0
10
155.904
20
100.530539352774
30
0
0
VERTEX
8
0
10
156.8
20
100.508747551648
30
0
0
VERTEX
8
0
10
157.696
20
100.486118018136
30
0
0
VERTEX
8
0
10
158.592
20
100.463522837371
30
0
0
VERTEX
8
0
10
159.488
20
100.444811167503
30
0
0
VERTEX
8
0
10
160.384
20
100.42757750487
30
0
0
VERTEX
8
0
10
161.28
20
100.410363966018
30
0
0
VERTEX
8
0
10
162.176
20
100.395227263937
30
0
0
VERTEX
8
0
10
163.072
20
100.380692691719
30
0
0
VERTEX
8
0
10
163.968
20
100.36617254785
30
0
0
VERTEX
8
0
10
164.864
20
100.345101886305
30
0
0
VERTEX
8
0
10
165.76
20
100.322722490773
30
0
0
VERTEX
8
0
10
166.656
20
100.300377616113
30
0
0
VERTEX
8
0
10
167.552
20
100.280382562774
30
0
0
VERTEX
8
0
10
168.448
20
100.260722514049
30
0
0
VERTEX
8
0
10
169.344
20
100.241089391327
30
0
0
VERTEX
8
0
10
170.24
20
100.212935981431
30
0
0
VERTEX
8
0
10
171.136
20
100.1842462803
30
0
0
VERTEX
8
0
10
172.032
20
100.155614632733
30
0
0
VERTEX
8
0
10
172.928
20
100.120636419182
30
0
0
VERTEX
8
0
10
173.824
20
100.085664399946
30
0
0
VERTEX
8
0
10
174.72
20
100.050780079524
30
0
0
VERTEX
8
0
10
175.616
20
100.009292987311
30
0
0
VERTEX
8
0
10
176.512
20
99.968186535341
30
0
0
VERTEX
8
0
10
177.408
20
99.9272037055278
30
0
0
SEQEND
8
0
0
POLYLINE
8
0
62
2
70
0
10
0
20
0
30
0
0
VERTEX
8
0
10
1.792
20
2.73774701977372
30
0
0
VERTEX
8
0
10
2.688
20
6.47409036021771
30
0
0
VERTEX
8
0
10
3.584
20
5.65711406722802
30
0
0
VERTEX
8
0
10
4.48
20
6.45899460761926
30
0
0
VERTEX
8
0
10
5.376
20
7.77294184054196
30
0
0
VERTEX
8
0
10
6.272
20
9.49088994853562
30
0
0
VERTEX
8
0
10
7.168
20
11.1762603234767
30
0
0
VERTEX
8
0
10
8.064
20
11.2171646936915
30
0
0
VERTEX
8
0
10
8.96
20
12.0761622880395
30
0
0
VERTEX
8
0
10
9.856
20
13.1806731583078
30
0
0
VERTEX
8
0
10
10.752
20
14.3771287223195
30
0
0
VERTEX
8
0
10
11.648
20
14.9591556411329
30
0
0
VERTEX
8
0
10
12.544
20
15.7860079030815
30
0
0
VERTEX
8
0
10
13.44
20
16.6611345691118
30
0
0
VERTEX
8
0
10
14.336
20
17.6077066833026
30
0
0
VERTEX
8
0
10
15.232
20
18.3044108984642
30
0
0
VERTEX
8
0
10
16.128
20
19.084982552007
30
0
0
VERTEX
8
0
10
17.024
20
19.8322153965266
30
0
0
VERTEX
8
0
10
17.92
20
20.62843522281
30
0
0
VERTEX
8
0
10
18.816
20
21.4528105026698
30
0
0
VERTEX
8
0
10
19.712
20
22.0305964985336
30
0
0
VERTEX
8
0
10
20.608
20
22.7110329581519
30
0
0
VERTEX
8
0
10
21.504
20
23.402319479754
30
0
0
VERTEX
8
0
10
22.4
20
24.1142563266652
30
0
0
VERTEX
8
0
10
23.296
20
24.6975662419039
30
0
0
VERTEX
8
0
10
24.192
20
25.3235929562088
30
0
0
VERTEX
8
0
10
25.088
20
25.9335931015737
30
0
0
VERTEX
8
0
10
25.984
20
26.5579785021808
30
0
0
VERTEX
8
0
10
26.88
20
27.1156818149245
30
0
0
VERTEX
8
0
10
27.776
20
27.6922586739581
30
0
0
VERTEX
8
0
10
28.672
20
28.2346766233703
30
0
0
VERTEX
8
0
10
29.568
20
28.7866353216061
30
0
0
VERTEX
8
0
10
30.464
20
29.3435827664829
30
0
0
VERTEX
8
0
10
31.36
20
29.8184971631929
30
0
0
VERTEX
8
0
10
32.256
20
30.3184335307855
30
0
0
VERTEX
8
0
10
33.152
20
30.8077449061069
30
0
0
VERTEX
8
0
10
34.048
20
31.2996195429384
30
0
0
VERTEX
8
0
10
34.944
20
31.7430963818247
30
0
0
VERTEX
8
0
10
35.84
20
32.1963481058478
30
0
0
VERTEX
8
0
10
36.736
20
32.6296721013682
30
0
0
VERTEX
8
0
10
37.632
20
33.063577808055
30
0
0
VERTEX
8
0
10
38.528
20
33.4690490118053
30
0
0
VERTEX
8
0
10
39.424
20
33.8782547768871
30
0
0
VERTEX
8
0
10
40.32
20
34.2603243260614
30
0
0
VERTEX
8
0
10
41.216
20
34.6413713480716
30
0
0
VERTEX
8
0
10
42.112
20
35.019785135548
30
0
0
VERTEX
8
0
10
43.008
20
35.3610870573425
30
0
0
VERTEX
8
0
10
43.904
20
35.7067754666807
30
0
0
VERTEX
8
0
10
44.8
20
36.0387516915542
30
0
0
VERTEX
8
0
10
45.696
20
36.3671467947803
30
0
0
VERTEX
8
0
10
46.592
20
36.6714605366754
30
0
0
VERTEX
8
0
10
47.488
20
36.9752190097023
30
0
0
VERTEX
8
0
10
48.384
20
37.2610042832136
30
0
0
VERTEX
8
0
10
49.28
20
37.5424122731161
30
0
0
VERTEX
8
0
10
50.176
20
37.8077998235723
30
0
0
VERTEX
8
0
10
51.072
20
38.0710353953592
30
0
0
VERTEX
8
0
10
51.968
20
38.3128671871384
30
0
0
VERTEX
8
0
10
52.8639999999999
20
38.5496544758223
30
0
0
VERTEX
8
0
10
53.7599999999999
20
38.7806796349014
30
0
0
VERTEX
8
0
10
54.6559999999999
20
38.9911976854725
30
0
0
VERTEX
8
0
10
55.5519999999999
20
39.1985440068357
30
0
0
VERTEX
8
0
10
56.4479999999999
20
39.3925906317361
30
0
0
VERTEX
8
0
10
57.3439999999999
20
39.5804475370647
30
0
0
VERTEX
8
0
10
58.2399999999999
20
39.7535076045444
30
0
0
VERTEX
8
0
10
59.1359999999999
20
39.9217565043133
30
0
0
VERTEX
8
0
10
60.0319999999999
20
40.0745816313199
30
0
0
VERTEX
8
0
10
60.9279999999999
20
40.2208525404388
30
0
0
VERTEX
8
0
10
61.8239999999999
20
40.3558655521243
30
0
0
VERTEX
8
0
10
62.7199999999999
20
40.4858141112042
30
0
0
VERTEX
8
0
10
63.6159999999999
20
40.598667575714
30
0
0
VERTEX
8
0
10
64.5119999999999
20
40.7046587402897
30
0
0
VERTEX
8
0
10
65.4079999999999
20
40.8034267787593
30
0
0
VERTEX
8
0
10
66.3039999999999
20
40.8887025643993
30
0
0
VERTEX
8
0
10
67.1999999999999
20
40.9676242828578
30
0
0
VERTEX
8
0
10
68.0959999999999
20
41.0344375155049
30
0
0
VERTEX
8
0
10
68.9919999999999
20
41.0938317439745
30
0
0
VERTEX
8
0
10
69.8879999999999
20
41.1423318382586
30
0
0
VERTEX
8
0
10
70.7839999999999
20
41.1840355869272
30
0
0
VERTEX
8
0
10
71.6799999999999
20
41.2126272580469
30
0
0
VERTEX
8
0
10
72.5759999999999
20
41.2336427155627
30
0
0
VERTEX
8
0
10
73.4719999999999
20
41.2453393965196
30
0
0
VERTEX
8
0
10
74.3679999999999
20
41.2503822689688
30
0
0
VERTEX
8
0
10
75.2639999999999
20
41.2416160166997
30
0
0
VERTEX
8
0
10
76.1599999999999
20
41.2251571377635
30
0
0
VERTEX
8
0
10
77.0559999999999
20
41.2008225323154
30
0
0
VERTEX
8
0
10
77.9519999999999
20
41.1661671632176
30
0
0
VERTEX
8
0
10
78.8479999999999
20
41.1238516844098
30
0
0
VERTEX
8
0
10
79.7439999999999
20
41.0707869211535
30
0
0
VERTEX
8
0
10
80.6399999999998
20
41.0098134248172
30
0
0
VERTEX
8
0
10
81.5359999999998
20
40.9397168959666
30
0
0
VERTEX
8
0
10
82.4319999999998
20
40.8619900374117
30
0
0
VERTEX
8
0
10
83.3279999999998
20
40.7732125610307
30
0
0
VERTEX
8
0
10
84.2239999999998
20
40.6765466175862
30
0
0
VERTEX
8
0
10
85.1199999999998
20
40.5714989195202
30
0
0
VERTEX
8
0
10
86.0159999999998
20
40.4590982455383
30
0
0
VERTEX
8
0
10
86.9119999999998
20
40.3356002609138
30
0
0
VERTEX
8
0
10
87.8079999999998
20
40.204304263247
30
0
0
VERTEX
8
0
10
88.7039999999998
20
40.0651564142266
30
0
0
VERTEX
8
0
10
89.5999999999998
20
39.9174196779835
30
0
0
VERTEX
8
0
10
90.4959999999998
20
39.7619138590535
30
0
0
VERTEX
8
0
10
91.3919999999998
20
39.5972740147548
30
0
0
VERTEX
8
0
10
92.2879999999998
20
39.4250135658785
30
0
0
VERTEX
8
0
10
93.1839999999998
20
39.2448893118711
30
0
0
VERTEX
8
0
10
94.0799999999998
20
39.0573742736963
30
0
0
VERTEX
8
0
10
94.9759999999998
20
38.8610549244423
30
0
0
VERTEX
8
0
10
95.8719999999998
20
38.6574951238088
30
0
0
VERTEX
8
0
10
96.7679999999998
20
38.4467285249542
30
0
0
VERTEX
8
0
10
97.6639999999998
20
38.2291563585613
30
0
0
VERTEX
8
0
10
98.5599999999998
20
38.0034329153689
30
0
0
VERTEX
8
0
10
99.4559999999998
20
37.7710722862967
30
0
0
VERTEX
8
0
10
100.352
20
37.5322261145306
30
0
0
VERTEX
8
0
10
101.248
20
37.2869542115971
30
0
0
VERTEX
8
0
10
102.144
20
37.0356140982078
30
0
0
VERTEX
8
0
10
103.04
20
36.7780574080871
30
0
0
VERTEX
8
0
10
103.936
20
36.5150920173068
30
0
0
VERTEX
8
0
10
104.832
20
36.2470265048649
30
0
0
VERTEX
8
0
10
105.728
20
35.9742903245532
30
0
0
VERTEX
8
0
10
106.624
20
35.6969785364696
30
0
0
VERTEX
8
0
10
107.52
20
35.4159891574129
30
0
0
VERTEX
8
0
10
108.416
20
35.1319002821383
30
0
0
VERTEX
8
0
10
109.312
20
34.845395604802
30
0
0
VERTEX
8
0
10
110.208
20
34.5570278502074
30
0
0
VERTEX
8
0
10
111.104
20
34.2679407422135
30
0
0
VERTEX
8
0
10
112
20
33.979196342363
30
0
0
VERTEX
8
0
10
112.896
20
33.6920799011678
30
0
0
VERTEX
8
0
10
113.792
20
33.4081931478867
30
0
0
VERTEX
8
0
10
114.688
20
33.1296011330897
30
0
0
VERTEX
8
0
10
115.584
20
32.859195363493
30
0
0
VERTEX
8
0
10
116.48
20
32.6010672296431
30
0
0
VERTEX
8
0
10
117.376
20
32.3583984878217
30
0
0
VERTEX
8
0
10
118.272
20
32.129469331089
30
0
0
VERTEX
8
0
10
119.168
20
31.9114366785655
30
0
0
VERTEX
8
0
10
120.064
20
31.702443569846
30
0
0
VERTEX
8
0
10
120.96
20
31.5012528138675
30
0
0
VERTEX
8
0
10
121.856
20
31.3069645782371
30
0
0
VERTEX
8
0
10
122.752
20
31.1188842262494
30
0
0
VERTEX
8
0
10
123.648
20
30.9364537300006
30
0
0
VERTEX
8
0
10
124.544
20
30.7592119048322
30
0
0
VERTEX
8
0
10
125.44
20
30.5867693992635
30
0
0
VERTEX
8
0
10
126.336
20
30.4187919968813
30
0
0
VERTEX
8
0
10
127.232
20
30.2549889483461
30
0
0
VERTEX
8
0
10
128.128
20
30.095104520141
30
0
0
VERTEX
8
0
10
129.024
20
29.9389116925406
30
0
0
VERTEX
8
0
10
129.92
20
29.7862073457234
30
0
0
VERTEX
8
0
10
130.816
20
29.6368085073171
30
0
0
VERTEX
8
0
10
131.712
20
29.4905493762503
30
0
0
VERTEX
8
0
10
132.608
20
29.3472789267079
30
0
0
VERTEX
8
0
10
133.504
20
29.206858953731
30
0
0
VERTEX
8
0
10
134.4
20
29.069162460581
30
0
0
VERTEX
8
0
10
135.296
20
28.9340723144146
30
0
0
VERTEX
8
0
10
136.192
20
28.8014801153229
30
0
0
VERTEX
8
0
10
137.088
20
28.671285237003
30
0
0
VERTEX
8
0
10
137.984
20
28.5433940069267
30
0
0
VERTEX
8
0
10
138.88
20
28.41771900096
30
0
0
VERTEX
8
0
10
139.776
20
28.2941784326874
30
0
0
VERTEX
8
0
10
140.672
20
28.1726956217174
30
0
0
VERTEX
8
0
10
141.568
20
28.0531985283297
30
0
0
VERTEX
8
0
10
142.464
20
27.9356193442167
30
0
0
VERTEX
8
0
10
143.36
20
27.819894130945
30
0
0
VERTEX
8
0
10
144.256
20
27.7059624992439
30
0
0
VERTEX
8
0
10
145.152
20
27.5937673234071
30
0
0
VERTEX
8
0
10
146.048
20
27.4832544860427
30
0
0
VERTEX
8
0
10
146.944
20
27.3743726491731
30
0
0
VERTEX
8
0
10
147.84
20
27.2670730483129
30
0
0
VERTEX
8
0
10
148.736
20
27.1613093066632
30
0
0
VERTEX
8
0
10
149.632
20
27.0570372669858
30
0
0
VERTEX
8
0
10
150.528
20
26.954214839072
30
0
0
VERTEX
8
0
10
151.424
20
26.8528018610099
30
0
0
VERTEX
8
0
10
152.32
20
26.7527599727042
30
0
0
VERTEX
8
0
10
153.216
20
26.6540525003054
30
0
0
VERTEX
8
0
10
154.112
20
26.556644350382
30
0
0
VERTEX
8
0
10
155.008
20
26.4605019128168
30
0
0
VERTEX
8
0
10
155.904
20
26.3655929715362
30
0
0
VERTEX
8
0
10
156.8
20
26.2718866222888
30
0
0
VERTEX
8
0
10
157.696
20
26.1793531967832
30
0
0
VERTEX
8
0
10
158.592
20
26.0879641925759
30
0
0
VERTEX
8
0
10
159.488
20
25.9976922081687
30
0
0
VERTEX
8
0
10
160.384
20
25.9085108828361
30
0
0
VERTEX
8
0
10
161.28
20
25.8203948407561
30
0
0
VERTEX
8
0
10
162.176
20
25.7333196390627
30
0
0
VERTEX
8
0
10
163.072
20
25.6472617194788
30
0
0
VERTEX
8
0
10
163.968
20
25.5621983632256
30
0
0
VERTEX
8
0
10
164.864
20
25.4781076489315
30
0
0
VERTEX
8
0
10
165.76
20
25.3949684132957
30
0
0
VERTEX
8
0
10
166.656
20
25.3127602142814
30
0
0
VERTEX
8
0
10
167.552
20
25.231463296639
30
0
0
VERTEX
8
0
10
168.448
20
25.1510585595762
30
0
0
VERTEX
8
0
10
169.344
20
25.071527526409
30
0
0
VERTEX
8
0
10
170.24
20
24.9928523160453
30
0
0
VERTEX
8
0
10
171.136
20
24.9150156161621
30
0
0
VERTEX
8
0
10
172.032
20
24.8380006579539
30
0
0
VERTEX
8
0
10
172.928
20
24.7617911923373
30
0
0
VERTEX
8
0
10
173.824
20
24.6863714675089
30
0
0
VERTEX
8
0
10
174.72
20
24.611726207761
30
0
0
VERTEX
8
0
10
175.616
20
24.537840593468
30
0
0
VERTEX
8
0
10
176.512
20
24.4647002421643
30
0
0
VERTEX
8
0
10
177.408
20
24.3922911906388
30
0
0
SEQEND
8
0
0
POLYLINE
8
0
62
3
70
0
10
0
20
0
30
0
0
VERTEX
8
0
10
1.792
20
3.80040719537716
30
0
0
VERTEX
8
0
10
2.688
20
7.57294516981059
30
0
0
VERTEX
8
0
10
3.584
20
7.6944245463443
30
0
0
VERTEX
8
0
10
4.48
20
9.16212533992235
30
0
0
VERTEX
8
0
10
5.376
20
10.9731671002442
30
0
0
VERTEX
8
0
10
6.272
20
13.0665584083123
30
0
0
VERTEX
8
0
10
7.168
20
15.1337200108069
30
0
0
VERTEX
8
0
10
8.064
20
16.0140684715377
30
0
0
VERTEX
8
0
10
8.96
20
17.4800725228634
30
0
0
VERTEX
8
0
10
9.856
20
19.0966630664853
30
0
0
VERTEX
8
0
10
10.752
20
20.7677506790623
30
0
0
VERTEX
8
0
10
11.648
20
22.0183835916362
30
0
0
VERTEX
8
0
10
12.544
20
23.4302781401342
30
0
0
VERTEX
8
0
10
13.44
20
24.8525915064242
30
0
0
VERTEX
8
0
10
14.336
20
26.3137419557649
30
0
0
VERTEX
8
0
10
15.232
20
27.6087056300397
30
0
0
VERTEX
8
0
10
16.128
20
28.9548976494984
30
0
0
VERTEX
8
0
10
17.024
20
30.2547005726033
30
0
0
VERTEX
8
0
10
17.92
20
31.5775546035184
30
0
0
VERTEX
8
0
10
18.816
20
32.9093704898555
30
0
0
VERTEX
8
0
10
19.712
20
34.0843401050214
30
0
0
VERTEX
8
0
10
20.608
20
35.3134375563549
30
0
0
VERTEX
8
0
10
21.504
20
36.5295631635428
30
0
0
VERTEX
8
0
10
22.4
20
37.7494743509212
30
0
0
VERTEX
8
0
10
23.296
20
38.8888919118204
30
0
0
VERTEX
8
0
10
24.192
20
40.0461880357365
30
0
0
VERTEX
8
0
10
25.088
20
41.1716798817906
30
0
0
VERTEX
8
0
10
25.984
20
42.2967558672249
30
0
0
VERTEX
8
0
10
26.88
20
43.3795759632233
30
0
0
VERTEX
8
0
10
27.776
20
44.4680896990618
30
0
0
VERTEX
8
0
10
28.672
20
45.5121746427054
30
0
0
VERTEX
8
0
10
29.568
20
46.5526639353463
30
0
0
VERTEX
8
0
10
30.464
20
47.586604454076
30
0
0
VERTEX
8
0
10
31.36
20
48.5720560281132
30
0
0
VERTEX
8
0
10
32.256
20
49.5599734843096
30
0
0
VERTEX
8
0
10
33.152
20
50.522499067633
30
0
0
VERTEX
8
0
10
34.048
20
51.4769510426684
30
0
0
VERTEX
8
0
10
34.944
20
52.4020784669057
30
0
0
VERTEX
8
0
10
35.84
20
53.3233445786401
30
0
0
VERTEX
8
0
10
36.736
20
54.2124760083185
30
0
0
VERTEX
8
0
10
37.632
20
55.092329102844
30
0
0
VERTEX
8
0
10
38.528
20
55.9533451038532
30
0
0
VERTEX
8
0
10
39.424
20
56.8097096067099
30
0
0
VERTEX
8
0
10
40.32
20
57.628792178495
30
0
0
VERTEX
8
0
10
41.216
20
58.437661732835
30
0
0
VERTEX
8
0
10
42.112
20
59.2353280588021
30
0
0
VERTEX
8
0
10
43.008
20
60.0113218570182
30
0
0
VERTEX
8
0
10
43.904
20
60.7773713633902
30
0
0
VERTEX
8
0
10
44.8
20
61.518064591613
30
0
0
VERTEX
8
0
10
45.696
20
62.2470716201631
30
0
0
VERTEX
8
0
10
46.592
20
62.9605166945239
30
0
0
VERTEX
8
0
10
47.488
20
63.6638461179305
30
0
0
VERTEX
8
0
10
48.384
20
64.3386487073277
30
0
0
VERTEX
8
0
10
49.28
20
65.0014009156549
30
0
0
VERTEX
8
0
10
50.176
20
65.6518052302988
30
0
0
VERTEX
8
0
10
51.072
20
66.2936251662998
30
0
0
VERTEX
8
0
10
51.968
20
66.9044861476387
30
0
0
VERTEX
8
0
10
52.8639999999999
20
67.5030372834014
30
0
0
VERTEX
8
0
10
53.7599999999999
20
68.0888808119111
30
0
0
VERTEX
8
0
10
54.6559999999999
20
68.6615435233817
30
0
0
VERTEX
8
0
10
55.5519999999999
20
69.2206470527943
30
0
0
VERTEX
8
0
10
56.4479999999999
20
69.7568277117106
30
0
0
VERTEX
8
0
10
57.3439999999999
20
70.2802233766251
30
0
0
VERTEX
8
0
10
58.2399999999999
20
70.7923379625969
30
0
0
VERTEX
8
0
10
59.1359999999999
20
71.2922700066097
30
0
0
VERTEX
8
0
10
60.0319999999999
20
71.7677804458316
30
0
0
VERTEX
8
0
10
60.9279999999999
20
72.2304951885647
30
0
0
VERTEX
8
0
10
61.8239999999999
20
72.6827318654685
30
0
0
VERTEX
8
0
10
62.7199999999999
20
73.1246503683848
30
0
0
VERTEX
8
0
10
63.6159999999999
20
73.5411321096608
30
0
0
VERTEX
8
0
10
64.5119999999999
20
73.9448728471168
30
0
0
VERTEX
8
0
10
65.4079999999999
20
74.3357223804383
30
0
0
VERTEX
8
0
10
66.3039999999999
20
74.7161456852141
30
0
0
VERTEX
8
0
10
67.1999999999999
20
75.0824362325699
30
0
0
VERTEX
8
0
10
68.0959999999999
20
75.4289105088785
30
0
0
VERTEX
8
0
10
68.9919999999999
20
75.7626606856906
30
0
0
VERTEX
8
0
10
69.8879999999999
20
76.0864150621254
30
0
0
VERTEX
8
0
10
70.7839999999999
20
76.3976700482142
30
0
0
VERTEX
8
0
10
71.6799999999999
20
76.688640298043
30
0
0
VERTEX
8
0
10
72.5759999999999
20
76.9671165500237
30
0
0
VERTEX
8
0
10
73.4719999999999
20
77.2356531225917
30
0
0
VERTEX
8
0
10
74.3679999999999
20
77.493360316641
30
0
0
VERTEX
8
0
10
75.2639999999999
20
77.7306959768001
30
0
0
VERTEX
8
0
10
76.1599999999999
20
77.9558369492647
30
0
0
VERTEX
8
0
10
77.0559999999999
20
78.1687763087729
30
0
0
VERTEX
8
0
10
77.9519999999999
20
78.3722103982063
30
0
0
VERTEX
8
0
10
78.8479999999999
20
78.5624624444186
30
0
0
VERTEX
8
0
10
79.7439999999999
20
78.7363756159678
30
0
0
VERTEX
8
0
10
80.6399999999998
20
78.8985003258558
30
0
0
VERTEX
8
0
10
81.5359999999998
20
79.0512028261197
30
0
0
VERTEX
8
0
10
82.4319999999998
20
79.1922562761002
30
0
0
VERTEX
8
0
10
83.3279999999998
20
79.3172786846468
30
0
0
VERTEX
8
0
10
84.2239999999998
20
79.4310152481318
30
0
0
VERTEX
8
0
10
85.1199999999998
20
79.5353896970732
30
0
0
VERTEX
8
0
10
86.0159999999998
20
79.629545260469
30
0
0
VERTEX
8
0
10
86.9119999999998
20
79.7083129054172
30
0
0
VERTEX
8
0
10
87.8079999999998
20
79.7764028025942
30
0
0
VERTEX
8
0
10
88.7039999999998
20
79.8339346893727
30
0
0
VERTEX
8
0
10
89.5999999999998
20
79.8828356707149
30
0
0
VERTEX
8
0
10
90.4959999999998
20
79.9207486730414
30
0
0
VERTEX
8
0
10
91.3919999999998
20
79.9463354049531
30
0
0
VERTEX
8
0
10
92.2879999999998
20
79.9621424529418
30
0
0
VERTEX
8
0
10
93.1839999999998
20
79.9696793295443
30
0
0
VERTEX
8
0
10
94.0799999999998
20
79.9677161977762
30
0
0
VERTEX
8
0
10
94.9759999999998
20
79.9544529956055
30
0
0
VERTEX
8
0
10
95.8719999999998
20
79.9323485121701
30
0
0
VERTEX
8
0
10
96.7679999999998
20
79.9025363368082
30
0
0
VERTEX
8
0
10
97.6639999999998
20
79.8646636528917
30
0
0
VERTEX
8
0
10
98.5599999999998
20
79.8168520569288
30
0
0
VERTEX
8
0
10
99.4559999999998
20
79.7613373874599
30
0
0
VERTEX
8
0
10
100.352
20
79.6984154533648
30
0
0
VERTEX
8
0
10
101.248
20
79.6291276548049
30
0
0
VERTEX
8
0
10
102.144
20
79.5527444134831
30
0
0
VERTEX
8
0
10
103.04
20
79.4692139593252
30
0
0
VERTEX
8
0
10
103.936
20
79.3797531416496
30
0
0
VERTEX
8
0
10
104.832
20
79.2851726675972
30
0
0
VERTEX
8
0
10
105.728
20
79.1854024542468
30
0
0
VERTEX
8
0
10
106.624
20
79.0804526203529
30
0
0
VERTEX
8
0
10
107.52
20
78.9714280885871
30
0
0
VERTEX
8
0
10
108.416
20
78.8590387686896
30
0
0
VERTEX
8
0
10
109.312
20
78.7436757209103
30
0
0
VERTEX
8
0
10
110.208
20
78.6256510533991
30
0
0
VERTEX
8
0
10
111.104
20
78.5059995522298
30
0
0
VERTEX
8
0
10
112
20
78.3854706455412
30
0
0
VERTEX
8
0
10
112.896
20
78.2649556168636
30
0
0
VERTEX
8
0
10
113.792
20
78.1453276399403
30
0
0
VERTEX
8
0
10
114.688
20
78.027770080016
30
0
0
VERTEX
8
0
10
115.584
20
77.9138137240993
30
0
0
VERTEX
8
0
10
116.48
20
77.805421571756
30
0
0
VERTEX
8
0
10
117.376
20
77.704067406308
30
0
0
VERTEX
8
0
10
118.272
20
77.609014202478
30
0
0
VERTEX
8
0
10
119.168
20
77.5190046792479
30
0
0
VERTEX
8
0
10
120.064
20
77.4332049220705
30
0
0
VERTEX
8
0
10
120.96
20
77.351051868025
30
0
0
VERTEX
8
0
10
121.856
20
77.272131634585
30
0
0
VERTEX
8
0
10
122.752
20
77.1961219993373
30
0
0
VERTEX
8
0
10
123.648
20
77.1227623055498
30
0
0
VERTEX
8
0
10
124.544
20
77.051835885047
30
0
0
VERTEX
8
0
10
125.44
20
76.9831589279993
30
0
0
VERTEX
8
0
10
126.336
20
76.9165730047784
30
0
0
VERTEX
8
0
10
127.232
20
76.8519398097043
30
0
0
VERTEX
8
0
10
128.128
20
76.789137332881
30
0
0
VERTEX
8
0
10
129.024
20
76.7280569908009
30
0
0
VERTEX
8
0
10
129.92
20
76.6686014238704
30
0
0
VERTEX
8
0
10
130.816
20
76.6106827717209
30
0
0
VERTEX
8
0
10
131.712
20
76.5542212994352
30
0
0
VERTEX
8
0
10
132.608
20
76.4991442870563
30
0
0
VERTEX
8
0
10
133.504
20
76.4453851203132
30
0
0
VERTEX
8
0
10
134.4
20
76.392882537639
30
0
0
VERTEX
8
0
10
135.296
20
76.3415800003225
30
0
0
VERTEX
8
0
10
136.192
20
76.2914251609132
30
0
0
VERTEX
8
0
10
137.088
20
76.2423694109216
30
0
0
VERTEX
8
0
10
137.984
20
76.1943674931719
30
0
0
VERTEX
8
0
10
138.88
20
76.1473771673548
30
0
0
VERTEX
8
0
10
139.776
20
76.1013589197368
30
0
0
VERTEX
8
0
10
140.672
20
76.0562757097912
30
0
0
VERTEX
8
0
10
141.568
20
76.012092747929
30
0
0
VERTEX
8
0
10
142.464
20
75.9687772995909
30
0
0
VERTEX
8
0
10
143.36
20
75.9262985118256
30
0
0
VERTEX
8
0
10
144.256
20
75.884627259145
30
0
0
VERTEX
8
0
10
145.152
20
75.8437360060024
30
0
0
VERTEX
8
0
10
146.048
20
75.8035986836671
30
0
0
VERTEX
8
0
10
146.944
20
75.7641905796245
30
0
0
VERTEX
8
0
10
147.84
20
75.7254882379236
30
0
0
VERTEX
8
0
10
148.736
20
75.687469369124
30
0
0
VERTEX
8
0
10
149.632
20
75.6501127686992
30
0
0
VERTEX
8
0
10
150.528
20
75.6133982429086
30
0
0
VERTEX
8
0
10
151.424
20
75.5773065412927
30
0
0
VERTEX
8
0
10
152.32
20
75.5418192950566
30
0
0
VERTEX
8
0
10
153.216
20
75.5069189607078
30
0
0
VERTEX
8
0
10
154.112
20
75.4725887683902
30
0
0
VERTEX
8
0
10
155.008
20
75.4388126744319
30
0
0
VERTEX
8
0
10
155.904
20
75.4055753176819
30
0
0
VERTEX
8
0
10
156.8
20
75.3728619792579
30
0
0
VERTEX
8
0
10
157.696
20
75.3406585453816
30
0
0
VERTEX
8
0
10
158.592
20
75.3089514730021
30
0
0
VERTEX
8
0
10
159.488
20
75.2777277579532
30
0
0
VERTEX
8
0
10
160.384
20
75.2469749054133
30
0
0
VERTEX
8
0
10
161.28
20
75.2166809024594
30
0
0
VERTEX
8
0
10
162.176
20
75.1868341925369
30
0
0
VERTEX
8
0
10
163.072
20
75.1574236516747
30
0
0
VERTEX
8
0
10
163.968
20
75.128438566303
30
0
0
VERTEX
8
0
10
164.864
20
75.0998686125374
30
0
0
VERTEX
8
0
10
165.76
20
75.0717038368129
30
0
0
VERTEX
8
0
10
166.656
20
75.0439346377545
30
0
0
VERTEX
8
0
10
167.552
20
75.0165517491941
30
0
0
VERTEX
8
0
10
168.448
20
74.9895462242378
30
0
0
VERTEX
8
0
10
169.344
20
74.9629094203082
30
0
0
VERTEX
8
0
10
170.24
20
74.9366329850862
30
0
0
VERTEX
8
0
10
171.136
20
74.9107088432853
30
0
0
VERTEX
8
0
10
172.032
20
74.8851291842005
30
0
0
VERTEX
8
0
10
172.928
20
74.8598864499724
30
0
0
VERTEX
8
0
10
173.824
20
74.8349733245207
30
0
0
VERTEX
8
0
10
174.72
20
74.8103827230931
30
0
0
VERTEX
8
0
10
175.616
20
74.7861077823971
30
0
0
VERTEX
8
0
10
176.512
20
74.7621418512659
30
0
0
VERTEX
8
0
10
177.408
20
74.7384784818288
30
0
0
SEQEND
8
0
0
POLYLINE
8
0
62
4
70
0
10
0
20
0
30
0
0
VERTEX
8
0
10
1.792
20
3.76946774121865
30
0
0
VERTEX
8
0
10
2.688
20
5.62463654597558
30
0
0
VERTEX
8
0
10
3.584
20
7.37871143837914
30
0
0
VERTEX
8
0
10
4.48
20
9.03601632198575
30
0
0
VERTEX
8
0
10
5.376
20
10.6695310001505
30
0
0
VERTEX
8
0
10
6.272
20
12.1620663263126
30
0
0
VERTEX
8
0
10
7.168
20
13.6590891796228
30
0
0
VERTEX
8
0
10
8.064
20
15.1595985883275
30
0
0
VERTEX
8
0
10
8.96
20
16.5315534128499
30
0
0
VERTEX
8
0
10
9.856
20
17.9102130987312
30
0
0
VERTEX
8
0
10
10.752
20
19.2810128636056
30
0
0
VERTEX
8
0
10
11.648
20
20.5691629978506
30
0
0
VERTEX
8
0
10
12.544
20
21.8714714551089
30
0
0
VERTEX
8
0
10
13.44
20
23.1509195022416
30
0
0
VERTEX
8
0
10
14.336
20
24.3574867794185
30
0
0
VERTEX
8
0
10
15.232
20
25.5839265241564
30
0
0
VERTEX
8
0
10
16.128
20
26.8059216566917
30
0
0
VERTEX
8
0
10
17.024
20
27.9530577465842
30
0
0
VERTEX
8
0
10
17.92
20
29.1063894695816
30
0
0
VERTEX
8
0
10
18.816
20
30.2505762908158
30
0
0
VERTEX
8
0
10
19.712
20
31.36523231782
30
0
0
VERTEX
8
0
10
20.608
20
32.4778366966997
30
0
0
VERTEX
8
0
10
21.504
20
33.562721348162
30
0
0
VERTEX
8
0
10
22.4
20
34.6323661676095
30
0
0
VERTEX
8
0
10
23.296
20
35.704151270037
30
0
0
VERTEX
8
0
10
24.192
20
36.7542090674314
30
0
0
VERTEX
8
0
10
25.088
20
37.772893660258
30
0
0
VERTEX
8
0
10
25.984
20
38.7816365081363
30
0
0
VERTEX
8
0
10
26.88
20
39.7851771833866
30
0
0
VERTEX
8
0
10
27.776
20
40.7794474688745
30
0
0
VERTEX
8
0
10
28.672
20
41.7486070798277
30
0
0
VERTEX
8
0
10
29.568
20
42.7101227617584
30
0
0
VERTEX
8
0
10
30.464
20
43.6623767259505
30
0
0
VERTEX
8
0
10
31.36
20
44.6167898704498
30
0
0
VERTEX
8
0
10
32.256
20
45.5738508605032
30
0
0
VERTEX
8
0
10
33.152
20
46.5158310820558
30
0
0
VERTEX
8
0
10
34.048
20
47.4470967562003
30
0
0
VERTEX
8
0
10
34.944
20
48.3826586774594
30
0
0
VERTEX
8
0
10
35.84
20
49.3083757833776
30
0
0
VERTEX
8
0
10
36.736
20
50.2120240967363
30
0
0
VERTEX
8
0
10
37.632
20
51.1081700335465
30
0
0
VERTEX
8
0
10
38.528
20
52.0026376376442
30
0
0
VERTEX
8
0
10
39.424
20
52.889357772159
30
0
0
VERTEX
8
0
10
40.32
20
53.7395292026886
30
0
0
VERTEX
8
0
10
41.216
20
54.5776618686277
30
0
0
VERTEX
8
0
10
42.112
20
55.4052073832187
30
0
0
VERTEX
8
0
10
43.008
20
56.236317519363
30
0
0
VERTEX
8
0
10
43.904
20
57.0538882221042
30
0
0
VERTEX
8
0
10
44.8
20
57.8527509300131
30
0
0
VERTEX
8
0
10
45.696
20
58.6506587192464
30
0
0
VERTEX
8
0
10
46.592
20
59.4466543760936
30
0
0
VERTEX
8
0
10
47.488
20
60.2320262379758
30
0
0
VERTEX
8
0
10
48.384
20
61.0322018980996
30
0
0
VERTEX
8
0
10
49.28
20
61.8203593005975
30
0
0
VERTEX
8
0
10
50.176
20
62.6052440920406
30
0
0
VERTEX
8
0
10
51.072
20
63.3738864008695
30
0
0
VERTEX
8
0
10
51.968
20
64.12383133468
30
0
0
VERTEX
8
0
10
52.8639999999999
20
64.863940196961
30
0
0
VERTEX
8
0
10
53.7599999999999
20
65.5537656574289
30
0
0
VERTEX
8
0
10
54.6559999999999
20
66.247614744075
30
0
0
VERTEX
8
0
10
55.5519999999999
20
66.9290995923362
30
0
0
VERTEX
8
0
10
56.4479999999999
20
67.5685271468212
30
0
0
VERTEX
8
0
10
57.3439999999999
20
68.2028234517582
30
0
0
VERTEX
8
0
10
58.2399999999999
20
68.8338826761113
30
0
0
VERTEX
8
0
10
59.1359999999999
20
69.4426129588504
30
0
0
VERTEX
8
0
10
60.0319999999999
20
70.0375630569926
30
0
0
VERTEX
8
0
10
60.9279999999999
20
70.6229594518788
30
0
0
VERTEX
8
0
10
61.8239999999999
20
71.2168117220444
30
0
0
VERTEX
8
0
10
62.7199999999999
20
71.7996935721739
30
0
0
VERTEX
8
0
10
63.6159999999999
20
72.366175437492
30
0
0
VERTEX
8
0
10
64.5119999999999
20
72.8692590988509
30
0
0
VERTEX
8
0
10
65.4079999999999
20
73.3778355900226
30
0
0
VERTEX
8
0
10
66.3039999999999
20
73.883111675155
30
0
0
VERTEX
8
0
10
67.1999999999999
20
74.329467659031
30
0
0
VERTEX
8
0
10
68.0959999999999
20
74.7765469533225
30
0
0
VERTEX
8
0
10
68.9919999999999
20
75.2145849736527
30
0
0
VERTEX
8
0
10
69.8879999999999
20
75.610253208766
30
0
0
VERTEX
8
0
10
70.7839999999999
20
76.009065183998
30
0
0
VERTEX
8
0
10
71.6799999999999
20
76.3711970850149
30
0
0
VERTEX
8
0
10
72.5759999999999
20
76.7043627525258
30
0
0
VERTEX
8
0
10
73.4719999999999
20
77.0323060460293
30
0
0
VERTEX
8
0
10
74.3679999999999
20
77.3297248925962
30
0
0
VERTEX
8
0
10
75.2639999999999
20
77.5976422223817
30
0
0
VERTEX
8
0
10
76.1599999999999
20
77.8572528334345
30
0
0
VERTEX
8
0
10
77.0559999999999
20
78.086271086274
30
0
0
VERTEX
8
0
10
77.9519999999999
20
78.2984441439476
30
0
0
VERTEX
8
0
10
78.8479999999999
20
78.501380350393
30
0
0
VERTEX
8
0
10
79.7439999999999
20
78.6615732815258
30
0
0
VERTEX
8
0
10
80.6399999999998
20
78.7999065982017
30
0
0
VERTEX
8
0
10
81.5359999999998
20
78.9337250975507
30
0
0
VERTEX
8
0
10
82.4319999999998
20
79.0331565517417
30
0
0
VERTEX
8
0
10
83.3279999999998
20
79.1133311603086
30
0
0
VERTEX
8
0
10
84.2239999999998
20
79.1866528236718
30
0
0
VERTEX
8
0
10
85.1199999999998
20
79.2374186942626
30
0
0
VERTEX
8
0
10
86.0159999999998
20
79.2776363453826
30
0
0
VERTEX
8
0
10
86.9119999999998
20
79.3085869221746
30
0
0
VERTEX
8
0
10
87.8079999999998
20
79.3208130491582
30
0
0
VERTEX
8
0
10
88.7039999999998
20
79.3247603741488
30
0
0
VERTEX
8
0
10
89.5999999999998
20
79.3249350729779
30
0
0
VERTEX
8
0
10
90.4959999999998
20
79.3152506768121
30
0
0
VERTEX
8
0
10
91.3919999999998
20
79.2978955584796
30
0
0
VERTEX
8
0
10
92.2879999999998
20
79.2749760053533
30
0
0
VERTEX
8
0
10
93.1839999999998
20
79.2531137899082
30
0
0
VERTEX
8
0
10
94.0799999999998
20
79.2259247360677
30
0
0
VERTEX
8
0
10
94.9759999999998
20
79.1919713059206
30
0
0
VERTEX
8
0
10
95.8719999999998
20
79.1598627526609
30
0
0
VERTEX
8
0
10
96.7679999999998
20
79.1236000261348
30
0
0
VERTEX
8
0
10
97.6639999999998
20
79.0826081247574
30
0
0
VERTEX
8
0
10
98.5599999999998
20
79.0481811814784
30
0
0
VERTEX
8
0
10
99.4559999999998
20
79.008384369845
30
0
0
VERTEX
8
0
10
100.352
20
78.9640739429043
30
0
0
VERTEX
8
0
10
101.248
20
78.9180837381578
30
0
0
VERTEX
8
0
10
102.144
20
78.8673992949147
30
0
0
VERTEX
8
0
10
103.04
20
78.8121753531574
30
0
0
VERTEX
8
0
10
103.936
20
78.7608924244996
30
0
0
VERTEX
8
0
10
104.832
20
78.705370294709
30
0
0
VERTEX
8
0
10
105.728
20
78.6463737405586
30
0
0
VERTEX
8
0
10
106.624
20
78.5917473387277
30
0
0
VERTEX
8
0
10
107.52
20
78.5327884349173
30
0
0
VERTEX
8
0
10
108.416
20
78.4713228638771
30
0
0
VERTEX
8
0
10
109.312
20
78.4135294668247
30
0
0
VERTEX
8
0
10
110.208
20
78.3520124506526
30
0
0
VERTEX
8
0
10
111.104
20
78.2885855108975
30
0
0
VERTEX
8
0
10
112
20
78.229827288989
30
0
0
VERTEX
8
0
10
112.896
20
78.1682223580508
30
0
0
VERTEX
8
0
10
113.792
20
78.105500631749
30
0
0
VERTEX
8
0
10
114.688
20
78.0463124772727
30
0
0
VERTEX
8
0
10
115.584
20
77.9855040535095
30
0
0
VERTEX
8
0
10
116.48
20
77.9245640781326
30
0
0
VERTEX
8
0
10
117.376
20
77.8726073151611
30
0
0
VERTEX
8
0
10
118.272
20
77.8181689911262
30
0
0
VERTEX
8
0
10
119.168
20
77.7639077043269
30
0
0
VERTEX
8
0
10
120.064
20
77.7143784557361
30
0
0
VERTEX
8
0
10
120.96
20
77.6635352799407
30
0
0
VERTEX
8
0
10
121.856
20
77.6128512184078
30
0
0
VERTEX
8
0
10
122.752
20
77.5623265833009
30
0
0
VERTEX
8
0
10
123.648
20
77.5119616863932
30
0
0
VERTEX
8
0
10
124.544
20
77.4617568392667
30
0
0
VERTEX
8
0
10
125.44
20
77.4117123533194
30
0
0
VERTEX
8
0
10
126.336
20
77.3618285397585
30
0
0
VERTEX
8
0
10
127.232
20
77.3140099366598
30
0
0
VERTEX
8
0
10
128.128
20
77.2674417161622
30
0
0
VERTEX
8
0
10
129.024
20
77.2210160784769
30
0
0
VERTEX
8
0
10
129.92
20
77.1767764604728
30
0
0
VERTEX
8
0
10
130.816
20
77.1336032687848
30
0
0
VERTEX
8
0
10
131.712
20
77.0905555062605
30
0
0
VERTEX
8
0
10
132.608
20
77.0454531887036
30
0
0
VERTEX
8
0
10
133.504
20
76.9997169424014
30
0
0
VERTEX
8
0
10
134.4
20
76.9541247713493
30
0
0
VERTEX
8
0
10
135.296
20
76.9086769317749
30
0
0
VERTEX
8
0
10
136.192
20
76.8633736796996
30
0
0
VERTEX
8
0
10
137.088
20
76.8182152709327
30
0
0
VERTEX
8
0
10
137.984
20
76.7780878356381
30
0
0
VERTEX
8
0
10
138.88
20
76.738987346648
30
0
0
VERTEX
8
0
10
139.776
20
76.6999972687548
30
0
0
VERTEX
8
0
10
140.672
20
76.662404496056
30
0
0
VERTEX
8
0
10
141.568
20
76.6250661115364
30
0
0
VERTEX
8
0
10
142.464
20
76.5878305683021
30
0
0
VERTEX
8
0
10
143.36
20
76.5547512420284
30
0
0
VERTEX
8
0
10
144.256
20
76.5219792097352
30
0
0
VERTEX
8
0
10
145.152
20
76.4892879810002
30
0
0
VERTEX
8
0
10
146.048
20
76.4609247597086
30
0
0
VERTEX
8
0
10
146.944
20
76.4326246159392
30
0
0
VERTEX
8
0
10
147.84
20
76.4043857858066
30
0
0
VERTEX
8
0
10
148.736
20
76.3791695829521
30
0
0
VERTEX
8
0
10
149.632
20
76.3538565964444
30
0
0
VERTEX
8
0
10
150.528
20
76.3285934278446
30
0
0
VERTEX
8
0
10
151.424
20
76.3064712170629
30
0
0
VERTEX
8
0
10
152.32
20
76.2840958512122
30
0
0
VERTEX
8
0
10
153.216
20
76.261759955747
30
0
0
VERTEX
8
0
10
154.112
20
76.2410741585133
30
0
0
VERTEX
8
0
10
155.008
20
76.2202045211034
30
0
0
VERTEX
8
0
10
155.904
20
76.1993696617739
30
0
0
VERTEX
8
0
10
156.8
20
76.1886250357547
30
0
0
VERTEX
8
0
10
157.696
20
76.1761516140485
30
0
0
VERTEX
8
0
10
158.592
20
76.1636907341854
30
0
0
VERTEX
8
0
10
159.488
20
76.1442685953647
30
0
0
VERTEX
8
0
10
160.384
20
76.1263200085831
30
0
0
VERTEX
8
0
10
161.28
20
76.1083976407704
30
0
0
VERTEX
8
0
10
162.176
20
76.1031597595416
30
0
0
VERTEX
8
0
10
163.072
20
76.0949002890612
30
0
0
VERTEX
8
0
10
163.968
20
76.086646410608
30
0
0
VERTEX
8
0
10
164.864
20
76.0615117171441
30
0
0
VERTEX
8
0
10
165.76
20
76.0409441810116
30
0
0
VERTEX
8
0
10
166.656
20
76.0204116694987
30
0
0
VERTEX
8
0
10
167.552
20
76.0134802528388
30
0
0
VERTEX
8
0
10
168.448
20
76.0025502315389
30
0
0
VERTEX
8
0
10
169.344
20
75.9916301879036
30
0
0
VERTEX
8
0
10
170.24
20
75.9626869986363
30
0
0
VERTEX
8
0
10
171.136
20
75.9395714273832
30
0
0
VERTEX
8
0
10
172.032
20
75.9150818895087
30
0
0
VERTEX
8
0
10
172.928
20
75.8893539352712
30
0
0
VERTEX
8
0
10
173.824
20
75.863682513514
30
0
0
VERTEX
8
0
10
174.72
20
75.8365170001655
30
0
0
VERTEX
8
0
10
175.616
20
75.8082755749375
30
0
0
VERTEX
8
0
10
176.512
20
75.7801034319825
30
0
0
VERTEX
8
0
10
177.408
20
75.7535153246991
30
0
0
SEQEND
8
0
0
ENDSEC
0
EOF
