0
SECTION
2
HEADER
9
$ACADVER
1
AC1009
0
ENDSEC
0
SECTION
2
ENTITIES
0
POLYLINE
8
0
62
0
70
1
10
0
20
0
30
0
0
VERTEX
8
0
10
0
20
0
30
0
0
VERTEX
8
0
10
0
20
120.326
30
0
0
VERTEX
8
0
10
179.2
20
120.326
30
0
0
VERTEX
8
0
10
179.2
20
0
30
0
0
SEQEND
8
0
0
TEXT
8
0
62
0
10
0
20
-12
30
0
40
8
1
0
50
0
0
LINE
8
0
62
0
10
8.37657177581452
20
0
30
0
11
8.37657177581452
21
3.2
31
0
0
LINE
8
0
62
0
10
8.37657177581452
20
120.326
30
0
11
8.37657177581452
21
117.126
31
0
0
LINE
8
0
62
0
10
16.753143551629
20
0
30
0
11
16.753143551629
21
3.2
31
0
0
LINE
8
0
62
0
10
16.753143551629
20
120.326
30
0
11
16.753143551629
21
117.126
31
0
0
LINE
8
0
62
0
10
25.1297153274436
20
0
30
0
11
25.1297153274436
21
3.2
31
0
0
LINE
8
0
62
0
10
25.1297153274436
20
120.326
30
0
11
25.1297153274436
21
117.126
31
0
0
LINE
8
0
62
0
10
33.5062871032581
20
0
30
0
11
33.5062871032581
21
3.2
31
0
0
LINE
8
0
62
0
10
33.5062871032581
20
120.326
30
0
11
33.5062871032581
21
117.126
31
0
0
LINE
8
0
62
0
10
41.8828588790726
20
0
30
0
11
41.8828588790726
21
6.4
31
0
0
LINE
8
0
62
0
10
41.8828588790726
20
120.326
30
0
11
41.8828588790726
21
113.926
31
0
0
TEXT
8
0
62
0
10
41.8828588790726
20
-12
30
0
40
8
1
0.2
50
0
0
LINE
8
0
62
0
10
50.2594306548871
20
0
30
0
11
50.2594306548871
21
3.2
31
0
0
LINE
8
0
62
0
10
50.2594306548871
20
120.326
30
0
11
50.2594306548871
21
117.126
31
0
0
LINE
8
0
62
0
10
58.6360024307016
20
0
30
0
11
58.6360024307016
21
3.2
31
0
0
LINE
8
0
62
0
10
58.6360024307016
20
120.326
30
0
11
58.6360024307016
21
117.126
31
0
0
LINE
8
0
62
0
10
67.0125742065161
20
0
30
0
11
67.0125742065161
21
3.2
31
0
0
LINE
8
0
62
0
10
67.0125742065161
20
120.326
30
0
11
67.0125742065161
21
117.126
31
0
0
LINE
8
0
62
0
10
75.3891459823307
20
0
30
0
11
75.3891459823307
21
3.2
31
0
0
LINE
8
0
62
0
10
75.3891459823307
20
120.326
30
0
11
75.3891459823307
21
117.126
31
0
0
LINE
8
0
62
0
10
83.7657177581452
20
0
30
0
11
83.7657177581452
21
6.4
31
0
0
LINE
8
0
62
0
10
83.7657177581452
20
120.326
30
0
11
83.7657177581452
21
113.926
31
0
0
TEXT
8
0
62
0
10
83.7657177581452
20
-12
30
0
40
8
1
0.4
50
0
0
LINE
8
0
62
0
10
92.1422895339597
20
0
30
0
11
92.1422895339597
21
3.2
31
0
0
LINE
8
0
62
0
10
92.1422895339597
20
120.326
30
0
11
92.1422895339597
21
117.126
31
0
0
LINE
8
0
62
0
10
100.518861309774
20
0
30
0
11
100.518861309774
21
3.2
31
0
0
LINE
8
0
62
0
10
100.518861309774
20
120.326
30
0
11
100.518861309774
21
117.126
31
0
0
LINE
8
0
62
0
10
108.895433085589
20
0
30
0
11
108.895433085589
21
3.2
31
0
0
LINE
8
0
62
0
10
108.895433085589
20
120.326
30
0
11
108.895433085589
21
117.126
31
0
0
LINE
8
0
62
0
10
117.272004861403
20
0
30
0
11
117.272004861403
21
3.2
31
0
0
LINE
8
0
62
0
10
117.272004861403
20
120.326
30
0
11
117.272004861403
21
117.126
31
0
0
LINE
8
0
62
0
10
125.648576637218
20
0
30
0
11
125.648576637218
21
6.4
31
0
0
LINE
8
0
62
0
10
125.648576637218
20
120.326
30
0
11
125.648576637218
21
113.926
31
0
0
TEXT
8
0
62
0
10
125.648576637218
20
-12
30
0
40
8
1
0.6
50
0
0
LINE
8
0
62
0
10
134.025148413032
20
0
30
0
11
134.025148413032
21
3.2
31
0
0
LINE
8
0
62
0
10
134.025148413032
20
120.326
30
0
11
134.025148413032
21
117.126
31
0
0
LINE
8
0
62
0
10
142.401720188847
20
0
30
0
11
142.401720188847
21
3.2
31
0
0
LINE
8
0
62
0
10
142.401720188847
20
120.326
30
0
11
142.401720188847
21
117.126
31
0
0
LINE
8
0
62
0
10
150.778291964661
20
0
30
0
11
150.778291964661
21
3.2
31
0
0
LINE
8
0
62
0
10
150.778291964661
20
120.326
30
0
11
150.778291964661
21
117.126
31
0
0
LINE
8
0
62
0
10
159.154863740476
20
0
30
0
11
159.154863740476
21
3.2
31
0
0
LINE
8
0
62
0
10
159.154863740476
20
120.326
30
0
11
159.154863740476
21
117.126
31
0
0
LINE
8
0
62
0
10
167.53143551629
20
0
30
0
11
167.53143551629
21
6.4
31
0
0
LINE
8
0
62
0
10
167.53143551629
20
120.326
30
0
11
167.53143551629
21
113.926
31
0
0
TEXT
8
0
62
0
10
167.53143551629
20
-12
30
0
40
8
1
0.8
50
0
0
LINE
8
0
62
0
10
175.908007292105
20
0
30
0
11
175.908007292105
21
3.2
31
0
0
LINE
8
0
62
0
10
175.908007292105
20
120.326
30
0
11
175.908007292105
21
117.126
31
0
0
TEXT
8
0
62
0
10
-4
20
-4
30
0
40
8
1
0
50
0
0
LINE
8
0
62
0
10
0
20
4.01086666666667
30
0
11
3.2
21
4.01086666666667
31
0
0
LINE
8
0
62
0
10
179.2
20
4.01086666666667
30
0
11
176
21
4.01086666666667
31
0
0
LINE
8
0
62
0
10
0
20
8.02173333333333
30
0
11
3.2
21
8.02173333333333
31
0
0
LINE
8
0
62
0
10
179.2
20
8.02173333333333
30
0
11
176
21
8.02173333333333
31
0
0
LINE
8
0
62
0
10
0
20
12.0326
30
0
11
3.2
21
12.0326
31
0
0
LINE
8
0
62
0
10
179.2
20
12.0326
30
0
11
176
21
12.0326
31
0
0
LINE
8
0
62
0
10
0
20
16.0434666666667
30
0
11
3.2
21
16.0434666666667
31
0
0
LINE
8
0
62
0
10
179.2
20
16.0434666666667
30
0
11
176
21
16.0434666666667
31
0
0
LINE
8
0
62
0
10
0
20
20.0543333333333
30
0
11
6.4
21
20.0543333333333
31
0
0
LINE
8
0
62
0
10
179.2
20
20.0543333333333
30
0
11
172.8
21
20.0543333333333
31
0
0
TEXT
8
0
62
0
10
-4
20
16.0543333333333
30
0
40
8
1
10
50
0
0
LINE
8
0
62
0
10
0
20
24.0652
30
0
11
3.2
21
24.0652
31
0
0
LINE
8
0
62
0
10
179.2
20
24.0652
30
0
11
176
21
24.0652
31
0
0
LINE
8
0
62
0
10
0
20
28.0760666666667
30
0
11
3.2
21
28.0760666666667
31
0
0
LINE
8
0
62
0
10
179.2
20
28.0760666666667
30
0
11
176
21
28.0760666666667
31
0
0
LINE
8
0
62
0
10
0
20
32.0869333333333
30
0
11
3.2
21
32.0869333333333
31
0
0
LINE
8
0
62
0
10
179.2
20
32.0869333333333
30
0
11
176
21
32.0869333333333
31
0
0
LINE
8
0
62
0
10
0
20
36.0978
30
0
11
3.2
21
36.0978
31
0
0
LINE
8
0
62
0
10
179.2
20
36.0978
30
0
11
176
21
36.0978
31
0
0
LINE
8
0
62
0
10
0
20
40.1086666666667
30
0
11
6.4
21
40.1086666666667
31
0
0
LINE
8
0
62
0
10
179.2
20
40.1086666666667
30
0
11
172.8
21
40.1086666666667
31
0
0
TEXT
8
0
62
0
10
-4
20
36.1086666666667
30
0
40
8
1
20
50
0
0
LINE
8
0
62
0
10
0
20
44.1195333333333
30
0
11
3.2
21
44.1195333333333
31
0
0
LINE
8
0
62
0
10
179.2
20
44.1195333333333
30
0
11
176
21
44.1195333333333
31
0
0
LINE
8
0
62
0
10
0
20
48.1304
30
0
11
3.2
21
48.1304
31
0
0
LINE
8
0
62
0
10
179.2
20
48.1304
30
0
11
176
21
48.1304
31
0
0
LINE
8
0
62
0
10
0
20
52.1412666666667
30
0
11
3.2
21
52.1412666666667
31
0
0
LINE
8
0
62
0
10
179.2
20
52.1412666666667
30
0
11
176
21
52.1412666666667
31
0
0
LINE
8
0
62
0
10
0
20
56.1521333333333
30
0
11
3.2
21
56.1521333333333
31
0
0
LINE
8
0
62
0
10
179.2
20
56.1521333333333
30
0
11
176
21
56.1521333333333
31
0
0
LINE
8
0
62
0
10
0
20
60.163
30
0
11
6.4
21
60.163
31
0
0
LINE
8
0
62
0
10
179.2
20
60.163
30
0
11
172.8
21
60.163
31
0
0
TEXT
8
0
62
0
10
-4
20
56.163
30
0
40
8
1
30
50
0
0
LINE
8
0
62
0
10
0
20
64.1738666666667
30
0
11
3.2
21
64.1738666666667
31
0
0
LINE
8
0
62
0
10
179.2
20
64.1738666666667
30
0
11
176
21
64.1738666666667
31
0
0
LINE
8
0
62
0
10
0
20
68.1847333333333
30
0
11
3.2
21
68.1847333333333
31
0
0
LINE
8
0
62
0
10
179.2
20
68.1847333333333
30
0
11
176
21
68.1847333333333
31
0
0
LINE
8
0
62
0
10
0
20
72.1956
30
0
11
3.2
21
72.1956
31
0
0
LINE
8
0
62
0
10
179.2
20
72.1956
30
0
11
176
21
72.1956
31
0
0
LINE
8
0
62
0
10
0
20
76.2064666666667
30
0
11
3.2
21
76.2064666666667
31
0
0
LINE
8
0
62
0
10
179.2
20
76.2064666666667
30
0
11
176
21
76.2064666666667
31
0
0
LINE
8
0
62
0
10
0
20
80.2173333333333
30
0
11
6.4
21
80.2173333333333
31
0
0
LINE
8
0
62
0
10
179.2
20
80.2173333333333
30
0
11
172.8
21
80.2173333333333
31
0
0
TEXT
8
0
62
0
10
-4
20
76.2173333333333
30
0
40
8
1
40
50
0
0
LINE
8
0
62
0
10
0
20
84.2282
30
0
11
3.2
21
84.2282
31
0
0
LINE
8
0
62
0
10
179.2
20
84.2282
30
0
11
176
21
84.2282
31
0
0
LINE
8
0
62
0
10
0
20
88.2390666666667
30
0
11
3.2
21
88.2390666666667
31
0
0
LINE
8
0
62
0
10
179.2
20
88.2390666666667
30
0
11
176
21
88.2390666666667
31
0
0
LINE
8
0
62
0
10
0
20
92.2499333333334
30
0
11
3.2
21
92.2499333333334
31
0
0
LINE
8
0
62
0
10
179.2
20
92.2499333333334
30
0
11
176
21
92.2499333333334
31
0
0
LINE
8
0
62
0
10
0
20
96.2608
30
0
11
3.2
21
96.2608
31
0
0
LINE
8
0
62
0
10
179.2
20
96.2608
30
0
11
176
21
96.2608
31
0
0
LINE
8
0
62
0
10
0
20
100.271666666667
30
0
11
6.4
21
100.271666666667
31
0
0
LINE
8
0
62
0
10
179.2
20
100.271666666667
30
0
11
172.8
21
100.271666666667
31
0
0
TEXT
8
0
62
0
10
-4
20
96.2716666666667
30
0
40
8
1
50
50
0
0
LINE
8
0
62
0
10
0
20
104.282533333333
30
0
11
3.2
21
104.282533333333
31
0
0
LINE
8
0
62
0
10
179.2
20
104.282533333333
30
0
11
176
21
104.282533333333
31
0
0
LINE
8
0
62
0
10
0
20
108.2934
30
0
11
3.2
21
108.2934
31
0
0
LINE
8
0
62
0
10
179.2
20
108.2934
30
0
11
176
21
108.2934
31
0
0
LINE
8
0
62
0
10
0
20
112.304266666667
30
0
11
3.2
21
112.304266666667
31
0
0
LINE
8
0
62
0
10
179.2
20
112.304266666667
30
0
11
176
21
112.304266666667
31
0
0
LINE
8
0
62
0
10
0
20
116.315133333333
30
0
11
3.2
21
116.315133333333
31
0
0
LINE
8
0
62
0
10
179.2
20
116.315133333333
30
0
11
176
21
116.315133333333
31
0
0
TEXT
8
0
62
0
10
-4
20
116.326
30
0
40
8
1
60
50
0
0
TEXT
8
0
62
0
10
89.6
20
-32
30
0
40
10
1
R (kpc)
50
0
0
TEXT
8
0
62
0
10
-24
20
60.163
30
0
40
10
1
V (km/s)
50
90
0
TEXT
8
0
62
0
10
72.6
20
135.326
30
0
40
11
1
V vs. R
50
0
0
POLYLINE
8
0
62
5
70
0
10
0
20
0
30
0
0
VERTEX
8
0
10
23.0355723834899
20
16.1274932029795
30
0
0
VERTEX
8
0
10
25.1297153274436
20
17.0648558969584
30
0
0
VERTEX
8
0
10
27.2238582713972
20
18.0592632728119
30
0
0
VERTEX
8
0
10
29.3180012153508
20
19.0434941014898
30
0
0
VERTEX
8
0
10
31.4121441593045
20
20.0277249301676
30
0
0
VERTEX
8
0
10
33.5062871032581
20
21.0032243057242
30
0
0
VERTEX
8
0
10
35.6004300472117
20
21.9863834916201
30
0
0
VERTEX
8
0
10
37.6945729911653
20
22.970614320298
30
0
0
VERTEX
8
0
10
39.788715935119
20
23.8878106455618
30
0
0
VERTEX
8
0
10
41.8828588790726
20
24.9075023700694
30
0
0
VERTEX
8
0
10
43.9770018230262
20
25.93007985441
30
0
0
VERTEX
8
0
10
46.0711447669799
20
26.7695813399357
30
0
0
VERTEX
8
0
10
48.1652877109335
20
27.7447220251397
30
0
0
VERTEX
8
0
10
50.2594306548871
20
28.7482789571695
30
0
0
VERTEX
8
0
10
52.3535735988408
20
29.7708564415101
30
0
0
VERTEX
8
0
10
54.4477165427944
20
30.7503025180148
30
0
0
VERTEX
8
0
10
56.541859486748
20
31.7284201117319
30
0
0
VERTEX
8
0
10
58.6360024307017
20
32.6508447548107
30
0
0
VERTEX
8
0
10
60.7301453746553
20
33.5882074487896
30
0
0
VERTEX
8
0
10
62.8242883186089
20
34.3324788598273
30
0
0
VERTEX
8
0
10
64.9184312625625
20
34.9715897875402
30
0
0
VERTEX
8
0
10
67.0125742065162
20
35.1836931352633
30
0
0
VERTEX
8
0
10
69.1067171504698
20
35.4949096019553
30
0
0
VERTEX
8
0
10
71.2008600944234
20
35.8464206121974
30
0
0
VERTEX
8
0
10
73.2950030383771
20
36.111040545116
30
0
0
VERTEX
8
0
10
75.3891459823307
20
36.3666849162011
30
0
0
VERTEX
8
0
10
77.4832889262843
20
36.7346091098697
30
0
0
VERTEX
8
0
10
79.577431870238
20
37.0135674682212
30
0
0
VERTEX
8
0
10
81.6715748141916
20
37.2580968666505
30
0
0
VERTEX
8
0
10
83.7657177581452
20
37.6280571816047
30
0
0
VERTEX
8
0
10
85.8598607020989
20
37.9948512792487
30
0
0
VERTEX
8
0
10
87.9540036460525
20
38.2208704841713
30
0
0
VERTEX
8
0
10
90.0481465900061
20
38.4770241069917
30
0
0
VERTEX
8
0
10
92.1422895339598
20
38.7326684780769
30
0
0
VERTEX
8
0
10
94.2364324779134
20
39.146623714679
30
0
0
VERTEX
8
0
10
96.330575421867
20
39.4130730791029
30
0
0
VERTEX
8
0
10
98.4247183658207
20
39.6576024775322
30
0
0
VERTEX
8
0
10
100.518861309774
20
40.0509440895474
30
0
0
VERTEX
8
0
10
102.613004253728
20
40.3570117628802
30
0
0
VERTEX
8
0
10
104.707147197682
20
40.6248296754456
30
0
0
VERTEX
8
0
10
106.801290141635
20
40.8541687693979
30
0
0
VERTEX
8
0
10
108.895433085589
20
41.0885094428926
30
0
0
VERTEX
8
0
10
110.989576029542
20
41.1656186431353
30
0
0
VERTEX
8
0
10
113.083718973496
20
41.2991759732198
30
0
0
VERTEX
8
0
10
115.17786191745
20
41.4330849295025
30
0
0
VERTEX
8
0
10
117.272004861403
20
41.3690647113594
30
0
0
VERTEX
8
0
10
119.366147805357
20
41.4759854343778
30
0
0
VERTEX
8
0
10
121.460290749311
20
41.5982501335924
30
0
0
VERTEX
8
0
10
123.554433693264
20
41.7275779329609
30
0
0
VERTEX
8
0
10
125.648576637218
20
41.8513039632418
30
0
0
VERTEX
8
0
10
127.742719581172
20
41.9735686624565
30
0
0
VERTEX
8
0
10
129.836862525125
20
41.9572504655494
30
0
0
VERTEX
8
0
10
131.931005469079
20
42.0338928517014
30
0
0
VERTEX
8
0
10
134.025148413032
20
42.161715037244
30
0
0
VERTEX
8
0
10
136.119291356986
20
42.2895372227865
30
0
0
VERTEX
8
0
10
138.21343430094
20
42.4144035341268
30
0
0
VERTEX
8
0
10
140.307577244893
20
42.5366682333414
30
0
0
VERTEX
8
0
10
142.401720188847
20
42.5454362197393
30
0
0
VERTEX
8
0
10
144.495863132801
20
42.5454362197393
30
0
0
VERTEX
8
0
10
146.590006076754
20
42.7937813159528
30
0
0
VERTEX
8
0
10
148.684149020708
20
42.9812538547486
30
0
0
VERTEX
8
0
10
150.778291964661
20
43.1687263935444
30
0
0
VERTEX
8
0
10
152.872434908615
20
43.3561989323402
30
0
0
SEQEND
8
0
0
POLYLINE
8
0
62
6
70
0
10
0
20
0
30
0
0
VERTEX
8
0
10
23.0355723834899
20
6.01688965990396
30
0
0
VERTEX
8
0
10
25.1297153274436
20
6.53913178150217
30
0
0
VERTEX
8
0
10
27.2238582713972
20
7.00781312849163
30
0
0
VERTEX
8
0
10
29.3180012153508
20
7.51263137802608
30
0
0
VERTEX
8
0
10
31.4121441593045
20
7.95008965500343
30
0
0
VERTEX
8
0
10
33.5062871032581
20
8.46077198556797
30
0
0
VERTEX
8
0
10
35.6004300472117
20
8.99377364547309
30
0
0
VERTEX
8
0
10
37.6945729911653
20
9.52940947060388
30
0
0
VERTEX
8
0
10
39.788715935119
20
10.0169516759777
30
0
0
VERTEX
8
0
10
41.8828588790726
20
10.5132025139665
30
0
0
VERTEX
8
0
10
43.9770018230262
20
11.0094533519553
30
0
0
VERTEX
8
0
10
46.0711447669799
20
11.4709489414878
30
0
0
VERTEX
8
0
10
48.1652877109335
20
11.914962849162
30
0
0
VERTEX
8
0
10
50.2594306548871
20
12.4705883205307
30
0
0
VERTEX
8
0
10
52.3535735988408
20
12.9598575418995
30
0
0
VERTEX
8
0
10
54.4477165427944
20
13.497062490024
30
0
0
VERTEX
8
0
10
56.541859486748
20
14.0100244878957
30
0
0
VERTEX
8
0
10
58.6360024307017
20
14.5062753258846
30
0
0
VERTEX
8
0
10
60.7301453746553
20
14.9641924891372
30
0
0
VERTEX
8
0
10
62.8242883186089
20
15.464177839851
30
0
0
VERTEX
8
0
10
64.9184312625625
20
15.8032496275605
30
0
0
VERTEX
8
0
10
67.0125742065162
20
16.1074447662452
30
0
0
VERTEX
8
0
10
69.1067171504698
20
16.403454038028
30
0
0
VERTEX
8
0
10
71.2008600944234
20
16.7231479826195
30
0
0
VERTEX
8
0
10
73.2950030383771
20
17.0573868715084
30
0
0
VERTEX
8
0
10
75.3891459823307
20
17.3882207635009
30
0
0
VERTEX
8
0
10
77.4832889262843
20
17.7040799917236
30
0
0
VERTEX
8
0
10
79.577431870238
20
18.0073289767715
30
0
0
VERTEX
8
0
10
81.6715748141916
20
18.3033382485543
30
0
0
VERTEX
8
0
10
83.7657177581452
20
18.6423580074488
30
0
0
VERTEX
8
0
10
85.8598607020989
20
18.9538969170288
30
0
0
VERTEX
8
0
10
87.9540036460525
20
19.2809596834265
30
0
0
VERTEX
8
0
10
90.0481465900061
20
19.5905658188768
30
0
0
VERTEX
8
0
10
92.1422895339598
20
19.8865750906596
30
0
0
VERTEX
8
0
10
94.2364324779134
20
20.2273291433892
30
0
0
VERTEX
8
0
10
96.330575421867
20
20.5379527312228
30
0
0
VERTEX
8
0
10
98.4247183658207
20
20.8659308193669
30
0
0
VERTEX
8
0
10
100.518861309774
20
21.184645851438
30
0
0
VERTEX
8
0
10
102.613004253728
20
21.4971000827643
30
0
0
VERTEX
8
0
10
104.707147197682
20
21.8095543140906
30
0
0
VERTEX
8
0
10
106.801290141635
20
22.122008545417
30
0
0
VERTEX
8
0
10
108.895433085589
20
22.1549967411546
30
0
0
VERTEX
8
0
10
110.989576029542
20
22.2428744937151
30
0
0
VERTEX
8
0
10
113.083718973496
20
22.4186299988361
30
0
0
VERTEX
8
0
10
115.17786191745
20
22.5943855039572
30
0
0
VERTEX
8
0
10
117.272004861403
20
22.5471205772812
30
0
0
VERTEX
8
0
10
119.366147805357
20
22.6765509261982
30
0
0
VERTEX
8
0
10
121.460290749311
20
22.7431824953445
30
0
0
VERTEX
8
0
10
123.554433693264
20
22.7431824953445
30
0
0
VERTEX
8
0
10
125.648576637218
20
22.9689008379889
30
0
0
VERTEX
8
0
10
127.742719581172
20
22.9392444134078
30
0
0
VERTEX
8
0
10
129.836862525125
20
23.0806067039106
30
0
0
VERTEX
8
0
10
131.931005469079
20
23.1353063314711
30
0
0
VERTEX
8
0
10
134.025148413032
20
23.1353063314711
30
0
0
VERTEX
8
0
10
136.119291356986
20
23.3577295158287
30
0
0
VERTEX
8
0
10
138.21343430094
20
23.3313682495345
30
0
0
VERTEX
8
0
10
140.307577244893
20
23.4585284078213
30
0
0
VERTEX
8
0
10
142.401720188847
20
23.5274301675978
30
0
0
VERTEX
8
0
10
144.495863132801
20
23.5274301675978
30
0
0
VERTEX
8
0
10
146.590006076754
20
23.7757752638113
30
0
0
VERTEX
8
0
10
148.684149020708
20
23.7234920856611
30
0
0
VERTEX
8
0
10
150.778291964661
20
23.7234920856611
30
0
0
VERTEX
8
0
10
152.872434908615
20
23.7234920856611
30
0
0
SEQEND
8
0
0
POLYLINE
8
0
62
1
70
0
10
0
20
0
30
0
0
VERTEX
8
0
10
23.0355723834899
20
17.2133377992651
30
0
0
VERTEX
8
0
10
25.1297153274436
20
18.274833822495
30
0
0
VERTEX
8
0
10
27.2238582713972
20
19.3712786052081
30
0
0
VERTEX
8
0
10
29.3180012153508
20
20.4717927357517
30
0
0
VERTEX
8
0
10
31.4121441593045
20
21.5479393771434
30
0
0
VERTEX
8
0
10
33.5062871032581
20
22.643323383027
30
0
0
VERTEX
8
0
10
35.6004300472117
20
23.7547684355498
30
0
0
VERTEX
8
0
10
37.6945729911653
20
24.8688312373202
30
0
0
VERTEX
8
0
10
39.788715935119
20
25.9030272037283
30
0
0
VERTEX
8
0
10
41.8828588790726
20
27.0353676027289
30
0
0
VERTEX
8
0
10
43.9770018230262
20
28.1705006055086
30
0
0
VERTEX
8
0
10
46.0711447669799
20
29.1237558486822
30
0
0
VERTEX
8
0
10
48.1652877109335
20
30.1949654735551
30
0
0
VERTEX
8
0
10
50.2594306548871
20
31.3365460135509
30
0
0
VERTEX
8
0
10
52.3535735988408
20
32.4693979119929
30
0
0
VERTEX
8
0
10
54.4477165427944
20
33.582016032529
30
0
0
VERTEX
8
0
10
56.541859486748
20
34.6839073481923
30
0
0
VERTEX
8
0
10
58.6360024307017
20
35.7282757355168
30
0
0
VERTEX
8
0
10
60.7301453746553
20
36.7708408453611
30
0
0
VERTEX
8
0
10
62.8242883186089
20
37.6544804893525
30
0
0
VERTEX
8
0
10
64.9184312625625
20
38.376487476826
30
0
0
VERTEX
8
0
10
67.0125742065162
20
38.6955041255959
30
0
0
VERTEX
8
0
10
69.1067171504698
20
39.1019425608074
30
0
0
VERTEX
8
0
10
71.2008600944234
20
39.5553984830789
30
0
0
VERTEX
8
0
10
73.2950030383771
20
39.9369715443637
30
0
0
VERTEX
8
0
10
75.3891459823307
20
40.3098746353111
30
0
0
VERTEX
8
0
10
77.4832889262843
20
40.7782534546082
30
0
0
VERTEX
8
0
10
79.577431870238
20
41.1614877476779
30
0
0
VERTEX
8
0
10
81.6715748141916
20
41.5111788939522
30
0
0
VERTEX
8
0
10
83.7657177581452
20
41.9929541630499
30
0
0
VERTEX
8
0
10
85.8598607020989
20
42.4600863408634
30
0
0
VERTEX
8
0
10
87.9540036460525
20
42.8087648371419
30
0
0
VERTEX
8
0
10
90.0481465900061
20
43.1772121984939
30
0
0
VERTEX
8
0
10
92.1422895339598
20
43.539585164182
30
0
0
VERTEX
8
0
10
94.2364324779134
20
44.0636243690152
30
0
0
VERTEX
8
0
10
96.330575421867
20
44.4431978139361
30
0
0
VERTEX
8
0
10
98.4247183658207
20
44.8119683033961
30
0
0
VERTEX
8
0
10
100.518861309774
20
45.3085791248733
30
0
0
VERTEX
8
0
10
102.613004253728
20
45.725416459532
30
0
0
VERTEX
8
0
10
104.707147197682
20
46.1089302146367
30
0
0
VERTEX
8
0
10
106.801290141635
20
46.459082727944
30
0
0
VERTEX
8
0
10
108.895433085589
20
46.6809328188635
30
0
0
VERTEX
8
0
10
110.989576029542
20
46.7905292128141
30
0
0
VERTEX
8
0
10
113.083718973496
20
46.9916684859316
30
0
0
VERTEX
8
0
10
115.17786191745
20
47.193291716904
30
0
0
VERTEX
8
0
10
117.272004861403
20
47.114458093234
30
0
0
VERTEX
8
0
10
119.366147805357
20
47.2703218696592
30
0
0
VERTEX
8
0
10
121.460290749311
20
47.4095640582517
30
0
0
VERTEX
8
0
10
123.554433693264
20
47.523079763078
30
0
0
VERTEX
8
0
10
125.648576637218
20
47.7399418634861
30
0
0
VERTEX
8
0
10
127.742719581172
20
47.8329321756466
30
0
0
VERTEX
8
0
10
129.836862525125
20
47.8865876049802
30
0
0
VERTEX
8
0
10
131.931005469079
20
47.9801057451869
30
0
0
VERTEX
8
0
10
134.025148413032
20
48.0921263195211
30
0
0
VERTEX
8
0
10
136.119291356986
20
48.3113701591257
30
0
0
VERTEX
8
0
10
138.21343430094
20
48.4079990451075
30
0
0
VERTEX
8
0
10
140.307577244893
20
48.5764418154924
30
0
0
VERTEX
8
0
10
142.401720188847
20
48.6174260262624
30
0
0
VERTEX
8
0
10
144.495863132801
20
48.6174260262624
30
0
0
VERTEX
8
0
10
146.590006076754
20
48.9550325167174
30
0
0
VERTEX
8
0
10
148.684149020708
20
49.0937089621956
30
0
0
VERTEX
8
0
10
150.778291964661
20
49.2579233746118
30
0
0
VERTEX
8
0
10
152.872434908615
20
49.4223032911163
30
0
0
SEQEND
8
0
0
POLYLINE
8
0
62
2
70
0
10
0
20
0
30
0
0
VERTEX
8
0
10
23.0355723834899
20
17.2234148633415
30
0
0
VERTEX
8
0
10
25.1297153274436
20
18.2673065619347
30
0
0
VERTEX
8
0
10
27.2238582713972
20
19.3692067226097
30
0
0
VERTEX
8
0
10
29.3180012153508
20
20.4954846381709
30
0
0
VERTEX
8
0
10
31.4121441593045
20
21.5441697201141
30
0
0
VERTEX
8
0
10
33.5062871032581
20
22.6235828027552
30
0
0
VERTEX
8
0
10
35.6004300472117
20
23.7523231087526
30
0
0
VERTEX
8
0
10
37.6945729911653
20
24.8718761223758
30
0
0
VERTEX
8
0
10
39.788715935119
20
25.8858037366142
30
0
0
VERTEX
8
0
10
41.8828588790726
20
27.0326544343546
30
0
0
VERTEX
8
0
10
43.9770018230262
20
28.1818939942895
30
0
0
VERTEX
8
0
10
46.0711447669799
20
29.1122926637178
30
0
0
VERTEX
8
0
10
48.1652877109335
20
30.1918672986682
30
0
0
VERTEX
8
0
10
50.2594306548871
20
31.359291374679
30
0
0
VERTEX
8
0
10
52.3535735988408
20
32.4634748943931
30
0
0
VERTEX
8
0
10
54.4477165427944
20
33.5558135712059
30
0
0
VERTEX
8
0
10
56.541859486748
20
34.7170723684304
30
0
0
VERTEX
8
0
10
58.6360024307017
20
35.7322084630524
30
0
0
VERTEX
8
0
10
60.7301453746553
20
36.7528653313022
30
0
0
VERTEX
8
0
10
62.8242883186089
20
37.6550195296716
30
0
0
VERTEX
8
0
10
64.9184312625625
20
38.3839839891729
30
0
0
VERTEX
8
0
10
67.0125742065162
20
38.6907977693604
30
0
0
VERTEX
8
0
10
69.1067171504698
20
39.1018320771593
30
0
0
VERTEX
8
0
10
71.2008600944234
20
39.567461217226
30
0
0
VERTEX
8
0
10
73.2950030383771
20
39.9340735487061
30
0
0
VERTEX
8
0
10
75.3891459823307
20
40.2950156111484
30
0
0
VERTEX
8
0
10
77.4832889262843
20
40.7951880400726
30
0
0
VERTEX
8
0
10
79.577431870238
20
41.1621599418987
30
0
0
VERTEX
8
0
10
81.6715748141916
20
41.5003479321181
30
0
0
VERTEX
8
0
10
83.7657177581452
20
41.992039633319
30
0
0
VERTEX
8
0
10
85.8598607020989
20
42.4646681238178
30
0
0
VERTEX
8
0
10
87.9540036460525
20
42.8026834067404
30
0
0
VERTEX
8
0
10
90.0481465900061
20
43.1754024383796
30
0
0
VERTEX
8
0
10
92.1422895339598
20
43.5512951686877
30
0
0
VERTEX
8
0
10
94.2364324779134
20
44.0578863602575
30
0
0
VERTEX
8
0
10
96.330575421867
20
44.429327549234
30
0
0
VERTEX
8
0
10
98.4247183658207
20
44.8277788451969
30
0
0
VERTEX
8
0
10
100.518861309774
20
45.3082838815565
30
0
0
VERTEX
8
0
10
102.613004253728
20
45.7159785667623
30
0
0
VERTEX
8
0
10
104.707147197682
20
46.1095327274762
30
0
0
VERTEX
8
0
10
106.801290141635
20
46.4663096170541
30
0
0
VERTEX
8
0
10
108.895433085589
20
46.6748500370842
30
0
0
VERTEX
8
0
10
110.989576029542
20
46.7935591053011
30
0
0
VERTEX
8
0
10
113.083718973496
20
47.0009089799649
30
0
0
VERTEX
8
0
10
115.17786191745
20
47.1882724500103
30
0
0
VERTEX
8
0
10
117.272004861403
20
47.1182770956306
30
0
0
VERTEX
8
0
10
119.366147805357
20
47.2783644047511
30
0
0
VERTEX
8
0
10
121.460290749311
20
47.4099507161053
30
0
0
VERTEX
8
0
10
123.554433693264
20
47.5158945689965
30
0
0
VERTEX
8
0
10
125.648576637218
20
47.7419246187915
30
0
0
VERTEX
8
0
10
127.742719581172
20
47.8332230132917
30
0
0
VERTEX
8
0
10
129.836862525125
20
47.8851102169107
30
0
0
VERTEX
8
0
10
131.931005469079
20
47.9798746649197
30
0
0
VERTEX
8
0
10
134.025148413032
20
48.0974917807865
30
0
0
VERTEX
8
0
10
136.119291356986
20
48.3096947777208
30
0
0
VERTEX
8
0
10
138.21343430094
20
48.4105359328666
30
0
0
VERTEX
8
0
10
140.307577244893
20
48.5833307223073
30
0
0
VERTEX
8
0
10
142.401720188847
20
48.6161306720242
30
0
0
VERTEX
8
0
10
144.495863132801
20
48.6153798198813
30
0
0
VERTEX
8
0
10
146.590006076754
20
48.9521428037449
30
0
0
VERTEX
8
0
10
148.684149020708
20
49.102344981545
30
0
0
VERTEX
8
0
10
150.778291964661
20
49.2673277149575
30
0
0
VERTEX
8
0
10
152.872434908615
20
49.4210273625875
30
0
0
SEQEND
8
0
0
POLYLINE
8
0
62
3
70
0
10
0
20
0
30
0
0
VERTEX
8
0
10
23.0355723834899
20
23.5256120010844
30
0
0
VERTEX
8
0
10
25.1297153274436
20
25.2056584192653
30
0
0
VERTEX
8
0
10
27.2238582713972
20
26.9340982304522
30
0
0
VERTEX
8
0
10
29.3180012153508
20
28.6789620494628
30
0
0
VERTEX
8
0
10
31.4121441593045
20
30.3301746414724
30
0
0
VERTEX
8
0
10
33.5062871032581
20
31.9941432836654
30
0
0
VERTEX
8
0
10
35.6004300472117
20
33.7150937895426
30
0
0
VERTEX
8
0
10
37.6945729911653
20
35.4078541409656
30
0
0
VERTEX
8
0
10
39.788715935119
20
36.9940494477223
30
0
0
VERTEX
8
0
10
41.8828588790726
20
38.6946684206813
30
0
0
VERTEX
8
0
10
43.9770018230262
20
40.3835543949931
30
0
0
VERTEX
8
0
10
46.0711447669799
20
41.8756507545228
30
0
0
VERTEX
8
0
10
48.1652877109335
20
43.4894698940796
30
0
0
VERTEX
8
0
10
50.2594306548871
20
45.1654840368465
30
0
0
VERTEX
8
0
10
52.3535735988408
20
46.741570064694
30
0
0
VERTEX
8
0
10
54.4477165427944
20
48.29389821767
30
0
0
VERTEX
8
0
10
56.541859486748
20
49.9557378742191
30
0
0
VERTEX
8
0
10
58.6360024307017
20
51.4163298057939
30
0
0
VERTEX
8
0
10
60.7301453746553
20
52.8617962096886
30
0
0
VERTEX
8
0
10
62.8242883186089
20
54.2408644231998
30
0
0
VERTEX
8
0
10
64.9184312625625
20
55.4649995702277
30
0
0
VERTEX
8
0
10
67.0125742065162
20
56.3422098502717
30
0
0
VERTEX
8
0
10
69.1067171504698
20
57.2998928311692
30
0
0
VERTEX
8
0
10
71.2008600944234
20
58.2875318101276
30
0
0
VERTEX
8
0
10
73.2950030383771
20
59.1602894316057
30
0
0
VERTEX
8
0
10
75.3891459823307
20
60.0165427546465
30
0
0
VERTEX
8
0
10
77.4832889262843
20
61.0162856809405
30
0
0
VERTEX
8
0
10
79.577431870238
20
61.8521629180461
30
0
0
VERTEX
8
0
10
81.6715748141916
20
62.6587592407363
30
0
0
VERTEX
8
0
10
83.7657177581452
20
63.5918609937444
30
0
0
VERTEX
8
0
10
85.8598607020989
20
64.4947858109432
30
0
0
VERTEX
8
0
10
87.9540036460525
20
65.2681498429374
30
0
0
VERTEX
8
0
10
90.0481465900061
20
66.0815059599845
30
0
0
VERTEX
8
0
10
92.1422895339598
20
66.89327657905
30
0
0
VERTEX
8
0
10
94.2364324779134
20
67.7457205330775
30
0
0
VERTEX
8
0
10
96.330575421867
20
68.4991341210543
30
0
0
VERTEX
8
0
10
98.4247183658207
20
69.3213566015989
30
0
0
VERTEX
8
0
10
100.518861309774
20
70.1216402069735
30
0
0
VERTEX
8
0
10
102.613004253728
20
70.8608785363895
30
0
0
VERTEX
8
0
10
104.707147197682
20
71.6145175183569
30
0
0
VERTEX
8
0
10
106.801290141635
20
72.3165389252357
30
0
0
VERTEX
8
0
10
108.895433085589
20
72.8863304221469
30
0
0
VERTEX
8
0
10
110.989576029542
20
73.4045781919725
30
0
0
VERTEX
8
0
10
113.083718973496
20
73.9719098994853
30
0
0
VERTEX
8
0
10
115.17786191745
20
74.484361879345
30
0
0
VERTEX
8
0
10
117.272004861403
20
74.8419962488229
30
0
0
VERTEX
8
0
10
119.366147805357
20
75.344411029773
30
0
0
VERTEX
8
0
10
121.460290749311
20
75.7908404119843
30
0
0
VERTEX
8
0
10
123.554433693264
20
76.2138424971604
30
0
0
VERTEX
8
0
10
125.648576637218
20
76.725504322312
30
0
0
VERTEX
8
0
10
127.742719581172
20
77.1408310456437
30
0
0
VERTEX
8
0
10
129.836862525125
20
77.4960397446889
30
0
0
VERTEX
8
0
10
131.931005469079
20
77.8923386777652
30
0
0
VERTEX
8
0
10
134.025148413032
20
78.2996686843312
30
0
0
VERTEX
8
0
10
136.119291356986
20
78.7237916706491
30
0
0
VERTEX
8
0
10
138.21343430094
20
79.0973691517069
30
0
0
VERTEX
8
0
10
140.307577244893
20
79.5075946807798
30
0
0
VERTEX
8
0
10
142.401720188847
20
79.7922438432005
30
0
0
VERTEX
8
0
10
144.495863132801
20
80.0484406142102
30
0
0
VERTEX
8
0
10
146.590006076754
20
80.5279351080159
30
0
0
VERTEX
8
0
10
148.684149020708
20
80.8788733274384
30
0
0
VERTEX
8
0
10
150.778291964661
20
81.1986369394626
30
0
0
VERTEX
8
0
10
152.872434908615
20
81.5176559964772
30
0
0
SEQEND
8
0
0
POLYLINE
8
0
62
4
70
0
10
0
20
0
30
0
0
VERTEX
8
0
10
23.0355723834899
20
23.5256120010844
30
0
0
VERTEX
8
0
10
25.1297153274436
20
25.2056584192653
30
0
0
VERTEX
8
0
10
27.2238582713972
20
26.9340982304522
30
0
0
VERTEX
8
0
10
29.3180012153508
20
28.6789620494628
30
0
0
VERTEX
8
0
10
31.4121441593045
20
30.3301746414724
30
0
0
VERTEX
8
0
10
33.5062871032581
20
31.9941432836654
30
0
0
VERTEX
8
0
10
35.6004300472117
20
33.7150937895426
30
0
0
VERTEX
8
0
10
37.6945729911653
20
35.4078541409656
30
0
0
VERTEX
8
0
10
39.788715935119
20
36.9940494477223
30
0
0
VERTEX
8
0
10
41.8828588790726
20
38.6946684206813
30
0
0
VERTEX
8
0
10
43.9770018230262
20
40.3835543949931
30
0
0
VERTEX
8
0
10
46.0711447669799
20
41.8756507545228
30
0
0
VERTEX
8
0
10
48.1652877109335
20
43.4894698940796
30
0
0
VERTEX
8
0
10
50.2594306548871
20
45.1654840368465
30
0
0
VERTEX
8
0
10
52.3535735988408
20
46.741570064694
30
0
0
VERTEX
8
0
10
54.4477165427944
20
48.29389821767
30
0
0
VERTEX
8
0
10
56.541859486748
20
49.9557378742191
30
0
0
VERTEX
8
0
10
58.6360024307017
20
51.4163298057939
30
0
0
VERTEX
8
0
10
60.7301453746553
20
52.8617962096886
30
0
0
VERTEX
8
0
10
62.8242883186089
20
54.2408644231998
30
0
0
VERTEX
8
0
10
64.9184312625625
20
55.4649995702277
30
0
0
VERTEX
8
0
10
67.0125742065162
20
56.3422098502717
30
0
0
VERTEX
8
0
10
69.1067171504698
20
57.2998928311692
30
0
0
VERTEX
8
0
10
71.2008600944234
20
58.2875318101276
30
0
0
VERTEX
8
0
10
73.2950030383771
20
59.1602894316057
30
0
0
VERTEX
8
0
10
75.3891459823307
20
60.0165427546465
30
0
0
VERTEX
8
0
10
77.4832889262843
20
61.0162856809405
30
0
0
VERTEX
8
0
10
79.577431870238
20
61.8521629180461
30
0
0
VERTEX
8
0
10
81.6715748141916
20
62.6587592407363
30
0
0
VERTEX
8
0
10
83.7657177581452
20
63.5918609937444
30
0
0
VERTEX
8
0
10
85.8598607020989
20
64.4947858109432
30
0
0
VERTEX
8
0
10
87.9540036460525
20
65.2681498429374
30
0
0
VERTEX
8
0
10
90.0481465900061
20
66.0815059599845
30
0
0
VERTEX
8
0
10
92.1422895339598
20
66.89327657905
30
0
0
VERTEX
8
0
10
94.2364324779134
20
67.7457205330775
30
0
0
VERTEX
8
0
10
96.330575421867
20
68.4991341210543
30
0
0
VERTEX
8
0
10
98.4247183658207
20
69.3213566015989
30
0
0
VERTEX
8
0
10
100.518861309774
20
70.1216402069735
30
0
0
VERTEX
8
0
10
102.613004253728
20
70.8608785363895
30
0
0
VERTEX
8
0
10
104.707147197682
20
71.6145175183569
30
0
0
VERTEX
8
0
10
106.801290141635
20
72.3165389252357
30
0
0
VERTEX
8
0
10
108.895433085589
20
72.8863304221469
30
0
0
VERTEX
8
0
10
110.989576029542
20
73.4045781919725
30
0
0
VERTEX
8
0
10
113.083718973496
20
73.9719098994853
30
0
0
VERTEX
8
0
10
115.17786191745
20
74.484361879345
30
0
0
VERTEX
8
0
10
117.272004861403
20
74.8419962488229
30
0
0
VERTEX
8
0
10
119.366147805357
20
75.344411029773
30
0
0
VERTEX
8
0
10
121.460290749311
20
75.7908404119843
30
0
0
VERTEX
8
0
10
123.554433693264
20
76.2138424971604
30
0
0
VERTEX
8
0
10
125.648576637218
20
76.725504322312
30
0
0
VERTEX
8
0
10
127.742719581172
20
77.1408310456437
30
0
0
VERTEX
8
0
10
129.836862525125
20
77.4960397446889
30
0
0
VERTEX
8
0
10
131.931005469079
20
77.8923386777652
30
0
0
VERTEX
8
0
10
134.025148413032
20
78.2996686843312
30
0
0
VERTEX
8
0
10
136.119291356986
20
78.7237916706491
30
0
0
VERTEX
8
0
10
138.21343430094
20
79.0973691517069
30
0
0
VERTEX
8
0
10
140.307577244893
20
79.5075946807798
30
0
0
VERTEX
8
0
10
142.401720188847
20
79.7922438432005
30
0
0
VERTEX
8
0
10
144.495863132801
20
80.0484406142102
30
0
0
VERTEX
8
0
10
146.590006076754
20
80.5279351080159
30
0
0
VERTEX
8
0
10
148.684149020708
20
80.8788733274384
30
0
0
VERTEX
8
0
10
150.778291964661
20
81.1986369394626
30
0
0
VERTEX
8
0
10
152.872434908615
20
81.5176559964772
30
0
0
SEQEND
8
0
0
POLYLINE
8
0
62
2
70
0
10
0
20
0
30
0
0
VERTEX
8
0
10
23.0355723834899
20
16.1382483056654
30
0
0
VERTEX
8
0
10
25.1297153274436
20
17.0567946746114
30
0
0
VERTEX
8
0
10
27.2238582713972
20
18.0570408489135
30
0
0
VERTEX
8
0
10
29.3180012153508
20
19.0689606515772
30
0
0
VERTEX
8
0
10
31.4121441593045
20
20.0236690795291
30
0
0
VERTEX
8
0
10
33.5062871032581
20
20.9819407167533
30
0
0
VERTEX
8
0
10
35.6004300472117
20
21.9837414621937
30
0
0
VERTEX
8
0
10
37.6945729911653
20
22.9739107900326
30
0
0
VERTEX
8
0
10
39.788715935119
20
23.869133084627
30
0
0
VERTEX
8
0
10
41.8828588790726
20
24.9045573875056
30
0
0
VERTEX
8
0
10
43.9770018230262
20
25.942457208146
30
0
0
VERTEX
8
0
10
46.0711447669799
20
26.7571096069762
30
0
0
VERTEX
8
0
10
48.1652877109335
20
27.7413502065685
30
0
0
VERTEX
8
0
10
50.2594306548871
20
28.7730704385517
30
0
0
VERTEX
8
0
10
52.3535735988408
20
29.7643964278223
30
0
0
VERTEX
8
0
10
54.4477165427944
20
30.7216849890418
30
0
0
VERTEX
8
0
10
56.541859486748
20
31.7646710620997
30
0
0
VERTEX
8
0
10
58.6360024307017
20
32.6551481058755
30
0
0
VERTEX
8
0
10
60.7301453746553
20
33.5685277188155
30
0
0
VERTEX
8
0
10
62.8242883186089
20
34.3330700566875
30
0
0
VERTEX
8
0
10
64.9184312625625
20
34.9798160099519
30
0
0
VERTEX
8
0
10
67.0125742065162
20
35.178516954697
30
0
0
VERTEX
8
0
10
69.1067171504698
20
35.494787890797
30
0
0
VERTEX
8
0
10
71.2008600944234
20
35.8597310186243
30
0
0
VERTEX
8
0
10
73.2950030383771
20
36.1078354835784
30
0
0
VERTEX
8
0
10
75.3891459823307
20
36.3502140541489
30
0
0
VERTEX
8
0
10
77.4832889262843
20
36.7534069015586
30
0
0
VERTEX
8
0
10
79.577431870238
20
37.014314990349
30
0
0
VERTEX
8
0
10
81.6715748141916
20
37.2460291500432
30
0
0
VERTEX
8
0
10
83.7657177581452
20
37.6270365626678
30
0
0
VERTEX
8
0
10
85.8598607020989
20
37.9999714542608
30
0
0
VERTEX
8
0
10
87.9540036460525
20
38.2140589378272
30
0
0
VERTEX
8
0
10
90.0481465900061
20
38.474993263317
30
0
0
VERTEX
8
0
10
92.1422895339598
20
38.7458312858779
30
0
0
VERTEX
8
0
10
94.2364324779134
20
39.1401648726518
30
0
0
VERTEX
8
0
10
96.330575421867
20
39.3974319478717
30
0
0
VERTEX
8
0
10
98.4247183658207
20
39.6754670701591
30
0
0
VERTEX
8
0
10
100.518861309774
20
40.0506100882479
30
0
0
VERTEX
8
0
10
102.613004253728
20
40.3463181015106
30
0
0
VERTEX
8
0
10
104.707147197682
20
40.6255135225012
30
0
0
VERTEX
8
0
10
106.801290141635
20
40.8623869511368
30
0
0
VERTEX
8
0
10
108.895433085589
20
41.0815986225431
30
0
0
VERTEX
8
0
10
110.989576029542
20
41.1690625105569
30
0
0
VERTEX
8
0
10
113.083718973496
20
41.3096898308161
30
0
0
VERTEX
8
0
10
115.17786191745
20
41.427367771981
30
0
0
VERTEX
8
0
10
117.272004861403
20
41.3734140497756
30
0
0
VERTEX
8
0
10
119.366147805357
20
41.485151305979
30
0
0
VERTEX
8
0
10
121.460290749311
20
41.5986908073678
30
0
0
VERTEX
8
0
10
123.554433693264
20
41.7193946106059
30
0
0
VERTEX
8
0
10
125.648576637218
20
41.8535656856259
30
0
0
VERTEX
8
0
10
127.742719581172
20
41.9739000997195
30
0
0
VERTEX
8
0
10
129.836862525125
20
41.9555642872919
30
0
0
VERTEX
8
0
10
131.931005469079
20
42.0336290820861
30
0
0
VERTEX
8
0
10
134.025148413032
20
42.1678350944391
30
0
0
VERTEX
8
0
10
136.119291356986
20
42.2876232647559
30
0
0
VERTEX
8
0
10
138.21343430094
20
42.4172988875056
30
0
0
VERTEX
8
0
10
140.307577244893
20
42.5445351251195
30
0
0
VERTEX
8
0
10
142.401720188847
20
42.5439559894017
30
0
0
VERTEX
8
0
10
144.495863132801
20
42.5430979682972
30
0
0
VERTEX
8
0
10
146.590006076754
20
42.7904755253195
30
0
0
VERTEX
8
0
10
148.684149020708
20
42.9911177564417
30
0
0
VERTEX
8
0
10
150.778291964661
20
43.1794569608581
30
0
0
VERTEX
8
0
10
152.872434908615
20
43.3547444789517
30
0
0
SEQEND
8
0
0
POLYLINE
8
0
62
4
70
0
10
0
20
0
30
0
0
VERTEX
8
0
10
23.0355723834899
20
21.7187393759068
30
0
0
VERTEX
8
0
10
25.1297153274436
20
23.2117890952531
30
0
0
VERTEX
8
0
10
27.2238582713972
20
24.767194492363
30
0
0
VERTEX
8
0
10
29.3180012153508
20
26.327137867461
30
0
0
VERTEX
8
0
10
31.4121441593045
20
27.815990887281
30
0
0
VERTEX
8
0
10
33.5062871032581
20
29.2972525326254
30
0
0
VERTEX
8
0
10
35.6004300472117
20
30.8247390323878
30
0
0
VERTEX
8
0
10
37.6945729911653
20
32.3250167808431
30
0
0
VERTEX
8
0
10
39.788715935119
20
33.7312899598005
30
0
0
VERTEX
8
0
10
41.8828588790726
20
35.2518253101412
30
0
0
VERTEX
8
0
10
43.9770018230262
20
36.7613221680169
30
0
0
VERTEX
8
0
10
46.0711447669799
20
38.0772937636511
30
0
0
VERTEX
8
0
10
48.1652877109335
20
39.524275784688
30
0
0
VERTEX
8
0
10
50.2594306548871
20
41.0024827498908
30
0
0
VERTEX
8
0
10
52.3535735988408
20
42.4079038558232
30
0
0
VERTEX
8
0
10
54.4477165427944
20
43.7736065298609
30
0
0
VERTEX
8
0
10
56.541859486748
20
45.243274155875
30
0
0
VERTEX
8
0
10
58.6360024307017
20
46.5270441214585
30
0
0
VERTEX
8
0
10
60.7301453746553
20
47.8076964489515
30
0
0
VERTEX
8
0
10
62.8242883186089
20
48.9910034172985
30
0
0
VERTEX
8
0
10
64.9184312625625
20
50.0599393697004
30
0
0
VERTEX
8
0
10
67.0125742065162
20
50.769717844653
30
0
0
VERTEX
8
0
10
69.1067171504698
20
51.5637353801261
30
0
0
VERTEX
8
0
10
71.2008600944234
20
52.3823529529075
30
0
0
VERTEX
8
0
10
73.2950030383771
20
53.0841973770281
30
0
0
VERTEX
8
0
10
75.3891459823307
20
53.7700407080418
30
0
0
VERTEX
8
0
10
77.4832889262843
20
54.5987290557531
30
0
0
VERTEX
8
0
10
79.577431870238
20
55.2761697699644
30
0
0
VERTEX
8
0
10
81.6715748141916
20
55.9246378752721
30
0
0
VERTEX
8
0
10
83.7657177581452
20
56.6888931181408
30
0
0
VERTEX
8
0
10
85.8598607020989
20
57.4327745932732
30
0
0
VERTEX
8
0
10
87.9540036460525
20
58.0408045424044
30
0
0
VERTEX
8
0
10
90.0481465900061
20
58.6895105998375
30
0
0
VERTEX
8
0
10
92.1422895339598
20
59.3406340228993
30
0
0
VERTEX
8
0
10
94.2364324779134
20
60.0412365853306
30
0
0
VERTEX
8
0
10
96.330575421867
20
60.6423548304132
30
0
0
VERTEX
8
0
10
98.4247183658207
20
61.2892837165475
30
0
0
VERTEX
8
0
10
100.518861309774
20
61.9481727158386
30
0
0
VERTEX
8
0
10
102.613004253728
20
62.5433036785034
30
0
0
VERTEX
8
0
10
104.707147197682
20
63.141408605001
30
0
0
VERTEX
8
0
10
106.801290141635
20
63.6935473182202
30
0
0
VERTEX
8
0
10
108.895433085589
20
64.2047931623591
30
0
0
VERTEX
8
0
10
110.989576029542
20
64.6363390937751
30
0
0
VERTEX
8
0
10
113.083718973496
20
65.0934839552135
30
0
0
VERTEX
8
0
10
115.17786191745
20
65.5065701603532
30
0
0
VERTEX
8
0
10
117.272004861403
20
65.8123642908389
30
0
0
VERTEX
8
0
10
119.366147805357
20
66.2253325230689
30
0
0
VERTEX
8
0
10
121.460290749311
20
66.6103155550891
30
0
0
VERTEX
8
0
10
123.554433693264
20
66.991421547993
30
0
0
VERTEX
8
0
10
125.648576637218
20
67.3936490227414
30
0
0
VERTEX
8
0
10
127.742719581172
20
67.7717238759539
30
0
0
VERTEX
8
0
10
129.836862525125
20
68.0408602397888
30
0
0
VERTEX
8
0
10
131.931005469079
20
68.3780153455648
30
0
0
VERTEX
8
0
10
134.025148413032
20
68.7453310590751
30
0
0
VERTEX
8
0
10
136.119291356986
20
69.0768890909078
30
0
0
VERTEX
8
0
10
138.21343430094
20
69.4205789889584
30
0
0
VERTEX
8
0
10
140.307577244893
20
69.7611114991292
30
0
0
VERTEX
8
0
10
142.401720188847
20
69.9916269099195
30
0
0
VERTEX
8
0
10
144.495863132801
20
70.2117207845392
30
0
0
VERTEX
8
0
10
146.590006076754
20
70.6030356166961
30
0
0
VERTEX
8
0
10
148.684149020708
20
70.9476645190847
30
0
0
VERTEX
8
0
10
150.778291964661
20
71.2551161863897
30
0
0
VERTEX
8
0
10
152.872434908615
20
71.5614486729888
30
0
0
SEQEND
8
0
0
POLYLINE
8
0
62
2
70
0
10
0
20
0
30
0
0
VERTEX
8
0
10
23.0355723834899
20
6.02281082153635
30
0
0
VERTEX
8
0
10
25.1297153274436
20
6.53467523625753
30
0
0
VERTEX
8
0
10
27.2238582713972
20
7.00659554716448
30
0
0
VERTEX
8
0
10
29.3180012153508
20
7.52370868282677
30
0
0
VERTEX
8
0
10
31.4121441593045
20
7.94838336286668
30
0
0
VERTEX
8
0
10
33.5062871032581
20
8.45014315899308
30
0
0
VERTEX
8
0
10
35.6004300472117
20
8.9921677529059
30
0
0
VERTEX
8
0
10
37.6945729911653
20
9.53069921025491
30
0
0
VERTEX
8
0
10
39.788715935119
20
10.0077839746761
30
0
0
VERTEX
8
0
10
41.8828588790726
20
10.5115299426609
30
0
0
VERTEX
8
0
10
43.9770018230262
20
11.0152866951472
30
0
0
VERTEX
8
0
10
46.0711447669799
20
11.4642346625298
30
0
0
VERTEX
8
0
10
48.1652877109335
20
11.9133320838356
30
0
0
VERTEX
8
0
10
50.2594306548871
20
12.4820012088036
30
0
0
VERTEX
8
0
10
52.3535735988408
20
12.95674315976
30
0
0
VERTEX
8
0
10
54.4477165427944
20
13.4821668159376
30
0
0
VERTEX
8
0
10
56.541859486748
20
14.027489319355
30
0
0
VERTEX
8
0
10
58.6360024307017
20
14.5071636343115
30
0
0
VERTEX
8
0
10
60.7301453746553
20
14.9537228976526
30
0
0
VERTEX
8
0
10
62.8242883186089
20
15.4623926003278
30
0
0
VERTEX
8
0
10
64.9184312625625
20
15.8082719448545
30
0
0
VERTEX
8
0
10
67.0125742065162
20
16.1017191699663
30
0
0
VERTEX
8
0
10
69.1067171504698
20
16.4022278179154
30
0
0
VERTEX
8
0
10
71.2008600944234
20
16.7314549995749
30
0
0
VERTEX
8
0
10
73.2950030383771
20
17.0542095748439
30
0
0
VERTEX
8
0
10
75.3891459823307
20
17.37590142153
30
0
0
VERTEX
8
0
10
77.4832889262843
20
17.7161019705268
30
0
0
VERTEX
8
0
10
79.577431870238
20
18.007314564177
30
0
0
VERTEX
8
0
10
81.6715748141916
20
18.2939006736371
30
0
0
VERTEX
8
0
10
83.7657177581452
20
18.6403656803834
30
0
0
VERTEX
8
0
10
85.8598607020989
20
18.9579457604044
30
0
0
VERTEX
8
0
10
87.9540036460525
20
19.2740534896083
30
0
0
VERTEX
8
0
10
90.0481465900061
20
19.5888680836899
30
0
0
VERTEX
8
0
10
92.1422895339598
20
19.8945511783934
30
0
0
VERTEX
8
0
10
94.2364324779134
20
20.223167163579
30
0
0
VERTEX
8
0
10
96.330575421867
20
20.5254006237561
30
0
0
VERTEX
8
0
10
98.4247183658207
20
20.8777820815028
30
0
0
VERTEX
8
0
10
100.518861309774
20
21.1852971378737
30
0
0
VERTEX
8
0
10
102.613004253728
20
21.4886759536766
30
0
0
VERTEX
8
0
10
104.707147197682
20
21.8124163837046
30
0
0
VERTEX
8
0
10
106.801290141635
20
22.1229265768222
30
0
0
VERTEX
8
0
10
108.895433085589
20
22.1552582746325
30
0
0
VERTEX
8
0
10
110.989576029542
20
22.2445706508724
30
0
0
VERTEX
8
0
10
113.083718973496
20
22.4264541196414
30
0
0
VERTEX
8
0
10
115.17786191745
20
22.5890325373059
30
0
0
VERTEX
8
0
10
117.272004861403
20
22.553060488677
30
0
0
VERTEX
8
0
10
119.366147805357
20
22.6820426638778
30
0
0
VERTEX
8
0
10
121.460290749311
20
22.7408112797164
30
0
0
VERTEX
8
0
10
123.554433693264
20
22.7438116059315
30
0
0
VERTEX
8
0
10
125.648576637218
20
22.9606060892971
30
0
0
VERTEX
8
0
10
127.742719581172
20
22.9482608204725
30
0
0
VERTEX
8
0
10
129.836862525125
20
23.0747840051555
30
0
0
VERTEX
8
0
10
131.931005469079
20
23.1328592440927
30
0
0
VERTEX
8
0
10
134.025148413032
20
23.1474635797197
30
0
0
VERTEX
8
0
10
136.119291356986
20
23.3467558289996
30
0
0
VERTEX
8
0
10
138.21343430094
20
23.3393956189489
30
0
0
VERTEX
8
0
10
140.307577244893
20
23.4634578046052
30
0
0
VERTEX
8
0
10
142.401720188847
20
23.5245152612874
30
0
0
VERTEX
8
0
10
144.495863132801
20
23.5339206230919
30
0
0
VERTEX
8
0
10
146.590006076754
20
23.7675644793022
30
0
0
VERTEX
8
0
10
148.684149020708
20
23.7348053000912
30
0
0
VERTEX
8
0
10
150.778291964661
20
23.7284556410645
30
0
0
VERTEX
8
0
10
152.872434908615
20
23.7241864220905
30
0
0
SEQEND
8
0
0
POLYLINE
8
0
62
3
70
0
10
0
20
0
30
0
0
VERTEX
8
0
10
23.0355723834899
20
9.04161379107741
30
0
0
VERTEX
8
0
10
25.1297153274436
20
9.8253785344978
30
0
0
VERTEX
8
0
10
27.2238582713972
20
10.5845039782274
30
0
0
VERTEX
8
0
10
29.3180012153508
20
11.3738593248831
30
0
0
VERTEX
8
0
10
31.4121441593045
20
12.0909116588003
30
0
0
VERTEX
8
0
10
33.5062871032581
20
12.856756919818
30
0
0
VERTEX
8
0
10
35.6004300472117
20
13.658075004291
30
0
0
VERTEX
8
0
10
37.6945729911653
20
14.4502396169097
30
0
0
VERTEX
8
0
10
39.788715935119
20
15.1907791830564
30
0
0
VERTEX
8
0
10
41.8828588790726
20
15.9557568447803
30
0
0
VERTEX
8
0
10
43.9770018230262
20
16.7163589944892
30
0
0
VERTEX
8
0
10
46.0711447669799
20
17.4266986475173
30
0
0
VERTEX
8
0
10
48.1652877109335
20
18.1429219081157
30
0
0
VERTEX
8
0
10
50.2594306548871
20
18.9398351795243
30
0
0
VERTEX
8
0
10
52.3535735988408
20
19.6556369183996
30
0
0
VERTEX
8
0
10
54.4477165427944
20
20.40029353778
30
0
0
VERTEX
8
0
10
56.541859486748
20
21.1806961692487
30
0
0
VERTEX
8
0
10
58.6360024307017
20
21.883170154665
30
0
0
VERTEX
8
0
10
60.7301453746553
20
22.5564549244681
30
0
0
VERTEX
8
0
10
62.8242883186089
20
23.2798831084304
30
0
0
VERTEX
8
0
10
64.9184312625625
20
23.8823919996989
30
0
0
VERTEX
8
0
10
67.0125742065162
20
24.4311350695454
30
0
0
VERTEX
8
0
10
69.1067171504698
20
24.9891758990129
30
0
0
VERTEX
8
0
10
71.2008600944234
20
25.5641441013318
30
0
0
VERTEX
8
0
10
73.2950030383771
20
26.1152797126141
30
0
0
VERTEX
8
0
10
75.3891459823307
20
26.6602349291194
30
0
0
VERTEX
8
0
10
77.4832889262843
20
27.2390510810235
30
0
0
VERTEX
8
0
10
79.577431870238
20
27.7531099735252
30
0
0
VERTEX
8
0
10
81.6715748141916
20
28.2587152593362
30
0
0
VERTEX
8
0
10
83.7657177581452
20
28.8148257271794
30
0
0
VERTEX
8
0
10
85.8598607020989
20
29.3437182258436
30
0
0
VERTEX
8
0
10
87.9540036460525
20
29.8529126215606
30
0
0
VERTEX
8
0
10
90.0481465900061
20
30.3695040376203
30
0
0
VERTEX
8
0
10
92.1422895339598
20
30.8771696442793
30
0
0
VERTEX
8
0
10
94.2364324779134
20
31.3772618284354
30
0
0
VERTEX
8
0
10
96.330575421867
20
31.8533542339963
30
0
0
VERTEX
8
0
10
98.4247183658207
20
32.3894146689715
30
0
0
VERTEX
8
0
10
100.518861309774
20
32.8552632387091
30
0
0
VERTEX
8
0
10
102.613004253728
20
33.310648026231
30
0
0
VERTEX
8
0
10
104.707147197682
20
33.7905554669254
30
0
0
VERTEX
8
0
10
106.801290141635
20
34.246369619958
30
0
0
VERTEX
8
0
10
108.895433085589
20
34.4987202282209
30
0
0
VERTEX
8
0
10
110.989576029542
20
34.7904551291863
30
0
0
VERTEX
8
0
10
113.083718973496
20
35.1380392274515
30
0
0
VERTEX
8
0
10
115.17786191745
20
35.4515081540962
30
0
0
VERTEX
8
0
10
117.272004861403
20
35.6378606114162
30
0
0
VERTEX
8
0
10
119.366147805357
20
35.9302881373407
30
0
0
VERTEX
8
0
10
121.460290749311
20
36.1568437782715
30
0
0
VERTEX
8
0
10
123.554433693264
20
36.3414257722652
30
0
0
VERTEX
8
0
10
125.648576637218
20
36.6728657853823
30
0
0
VERTEX
8
0
10
127.742719581172
20
36.8469979414064
30
0
0
VERTEX
8
0
10
129.836862525125
20
37.0955187851569
30
0
0
VERTEX
8
0
10
131.931005469079
20
37.3050055903144
30
0
0
VERTEX
8
0
10
134.025148413032
20
37.4822301051338
30
0
0
VERTEX
8
0
10
136.119291356986
20
37.7600154730661
30
0
0
VERTEX
8
0
10
138.21343430094
20
37.9101176410622
30
0
0
VERTEX
8
0
10
140.307577244893
20
38.1424295808387
30
0
0
VERTEX
8
0
10
142.401720188847
20
38.3141532600603
30
0
0
VERTEX
8
0
10
144.495863132801
20
38.4456383643273
30
0
0
VERTEX
8
0
10
146.590006076754
20
38.7293131164027
30
0
0
VERTEX
8
0
10
148.684149020708
20
38.8306715111036
30
0
0
VERTEX
8
0
10
150.778291964661
20
38.9349079630448
30
0
0
VERTEX
8
0
10
152.872434908615
20
39.0395607427027
30
0
0
SEQEND
8
0
0
POLYLINE
8
0
62
4
70
0
10
0
20
0
30
0
0
VERTEX
8
0
10
23.0355723834899
20
9.04161379107741
30
0
0
VERTEX
8
0
10
25.1297153274436
20
9.8253785344978
30
0
0
VERTEX
8
0
10
27.2238582713972
20
10.5845039782274
30
0
0
VERTEX
8
0
10
29.3180012153508
20
11.3738593248831
30
0
0
VERTEX
8
0
10
31.4121441593045
20
12.0909116588003
30
0
0
VERTEX
8
0
10
33.5062871032581
20
12.856756919818
30
0
0
VERTEX
8
0
10
35.6004300472117
20
13.658075004291
30
0
0
VERTEX
8
0
10
37.6945729911653
20
14.4502396169097
30
0
0
VERTEX
8
0
10
39.788715935119
20
15.1907791830564
30
0
0
VERTEX
8
0
10
41.8828588790726
20
15.9557568447803
30
0
0
VERTEX
8
0
10
43.9770018230262
20
16.7163589944892
30
0
0
VERTEX
8
0
10
46.0711447669799
20
17.4266986475173
30
0
0
VERTEX
8
0
10
48.1652877109335
20
18.1429219081157
30
0
0
VERTEX
8
0
10
50.2594306548871
20
18.9398351795243
30
0
0
VERTEX
8
0
10
52.3535735988408
20
19.6556369183996
30
0
0
VERTEX
8
0
10
54.4477165427944
20
20.40029353778
30
0
0
VERTEX
8
0
10
56.541859486748
20
21.1806961692487
30
0
0
VERTEX
8
0
10
58.6360024307017
20
21.883170154665
30
0
0
VERTEX
8
0
10
60.7301453746553
20
22.5564549244681
30
0
0
VERTEX
8
0
10
62.8242883186089
20
23.2798831084304
30
0
0
VERTEX
8
0
10
64.9184312625625
20
23.8823919996989
30
0
0
VERTEX
8
0
10
67.0125742065162
20
24.4311350695454
30
0
0
VERTEX
8
0
10
69.1067171504698
20
24.9891758990129
30
0
0
VERTEX
8
0
10
71.2008600944234
20
25.5641441013318
30
0
0
VERTEX
8
0
10
73.2950030383771
20
26.1152797126141
30
0
0
VERTEX
8
0
10
75.3891459823307
20
26.6602349291194
30
0
0
VERTEX
8
0
10
77.4832889262843
20
27.2390510810235
30
0
0
VERTEX
8
0
10
79.577431870238
20
27.7531099735252
30
0
0
VERTEX
8
0
10
81.6715748141916
20
28.2587152593362
30
0
0
VERTEX
8
0
10
83.7657177581452
20
28.8148257271794
30
0
0
VERTEX
8
0
10
85.8598607020989
20
29.3437182258436
30
0
0
VERTEX
8
0
10
87.9540036460525
20
29.8529126215606
30
0
0
VERTEX
8
0
10
90.0481465900061
20
30.3695040376203
30
0
0
VERTEX
8
0
10
92.1422895339598
20
30.8771696442793
30
0
0
VERTEX
8
0
10
94.2364324779134
20
31.3772618284354
30
0
0
VERTEX
8
0
10
96.330575421867
20
31.8533542339963
30
0
0
VERTEX
8
0
10
98.4247183658207
20
32.3894146689715
30
0
0
VERTEX
8
0
10
100.518861309774
20
32.8552632387091
30
0
0
VERTEX
8
0
10
102.613004253728
20
33.310648026231
30
0
0
VERTEX
8
0
10
104.707147197682
20
33.7905554669254
30
0
0
VERTEX
8
0
10
106.801290141635
20
34.246369619958
30
0
0
VERTEX
8
0
10
108.895433085589
20
34.4987202282209
30
0
0
VERTEX
8
0
10
110.989576029542
20
34.7904551291863
30
0
0
VERTEX
8
0
10
113.083718973496
20
35.1380392274515
30
0
0
VERTEX
8
0
10
115.17786191745
20
35.4515081540962
30
0
0
VERTEX
8
0
10
117.272004861403
20
35.6378606114162
30
0
0
VERTEX
8
0
10
119.366147805357
20
35.9302881373407
30
0
0
VERTEX
8
0
10
121.460290749311
20
36.1568437782715
30
0
0
VERTEX
8
0
10
123.554433693264
20
36.3414257722652
30
0
0
VERTEX
8
0
10
125.648576637218
20
36.6728657853823
30
0
0
VERTEX
8
0
10
127.742719581172
20
36.8469979414064
30
0
0
VERTEX
8
0
10
129.836862525125
20
37.0955187851569
30
0
0
VERTEX
8
0
10
131.931005469079
20
37.3050055903144
30
0
0
VERTEX
8
0
10
134.025148413032
20
37.4822301051338
30
0
0
VERTEX
8
0
10
136.119291356986
20
37.7600154730661
30
0
0
VERTEX
8
0
10
138.21343430094
20
37.9101176410622
30
0
0
VERTEX
8
0
10
140.307577244893
20
38.1424295808387
30
0
0
VERTEX
8
0
10
142.401720188847
20
38.3141532600603
30
0
0
VERTEX
8
0
10
144.495863132801
20
38.4456383643273
30
0
0
VERTEX
8
0
10
146.590006076754
20
38.7293131164027
30
0
0
VERTEX
8
0
10
148.684149020708
20
38.8306715111036
30
0
0
VERTEX
8
0
10
150.778291964661
20
38.9349079630448
30
0
0
VERTEX
8
0
10
152.872434908615
20
39.0395607427027
30
0
0
SEQEND
8
0
0
ENDSEC
0
EOF
