0
SECTION
2
HEADER
9
$ACADVER
1
AC1009
0
ENDSEC
0
SECTION
2
ENTITIES
0
POLYLINE
8
0
62
0
70
1
10
0
20
0
30
0
0
VERTEX
8
0
10
0
20
0
30
0
0
VERTEX
8
0
10
0
20
116.187
30
0
0
VERTEX
8
0
10
179.2
20
116.187
30
0
0
VERTEX
8
0
10
179.2
20
0
30
0
0
SEQEND
8
0
0
TEXT
8
0
62
0
10
0
20
-12
30
0
40
8
1
0
50
0
0
LINE
8
0
62
0
10
9.91918520978634
20
0
30
0
11
9.91918520978634
21
3.2
31
0
0
LINE
8
0
62
0
10
9.91918520978634
20
116.187
30
0
11
9.91918520978634
21
112.987
31
0
0
LINE
8
0
62
0
10
19.8383704195727
20
0
30
0
11
19.8383704195727
21
3.2
31
0
0
LINE
8
0
62
0
10
19.8383704195727
20
116.187
30
0
11
19.8383704195727
21
112.987
31
0
0
LINE
8
0
62
0
10
29.757555629359
20
0
30
0
11
29.757555629359
21
3.2
31
0
0
LINE
8
0
62
0
10
29.757555629359
20
116.187
30
0
11
29.757555629359
21
112.987
31
0
0
LINE
8
0
62
0
10
39.6767408391454
20
0
30
0
11
39.6767408391454
21
3.2
31
0
0
LINE
8
0
62
0
10
39.6767408391454
20
116.187
30
0
11
39.6767408391454
21
112.987
31
0
0
LINE
8
0
62
0
10
49.5959260489317
20
0
30
0
11
49.5959260489317
21
6.4
31
0
0
LINE
8
0
62
0
10
49.5959260489317
20
116.187
30
0
11
49.5959260489317
21
109.787
31
0
0
TEXT
8
0
62
0
10
49.5959260489317
20
-12
30
0
40
8
1
0.5
50
0
0
LINE
8
0
62
0
10
59.515111258718
20
0
30
0
11
59.515111258718
21
3.2
31
0
0
LINE
8
0
62
0
10
59.515111258718
20
116.187
30
0
11
59.515111258718
21
112.987
31
0
0
LINE
8
0
62
0
10
69.4342964685044
20
0
30
0
11
69.4342964685044
21
3.2
31
0
0
LINE
8
0
62
0
10
69.4342964685044
20
116.187
30
0
11
69.4342964685044
21
112.987
31
0
0
LINE
8
0
62
0
10
79.3534816782907
20
0
30
0
11
79.3534816782907
21
3.2
31
0
0
LINE
8
0
62
0
10
79.3534816782907
20
116.187
30
0
11
79.3534816782907
21
112.987
31
0
0
LINE
8
0
62
0
10
89.272666888077
20
0
30
0
11
89.272666888077
21
3.2
31
0
0
LINE
8
0
62
0
10
89.272666888077
20
116.187
30
0
11
89.272666888077
21
112.987
31
0
0
LINE
8
0
62
0
10
99.1918520978634
20
0
30
0
11
99.1918520978634
21
6.4
31
0
0
LINE
8
0
62
0
10
99.1918520978634
20
116.187
30
0
11
99.1918520978634
21
109.787
31
0
0
TEXT
8
0
62
0
10
99.1918520978634
20
-12
30
0
40
8
1
1
50
0
0
LINE
8
0
62
0
10
109.11103730765
20
0
30
0
11
109.11103730765
21
3.2
31
0
0
LINE
8
0
62
0
10
109.11103730765
20
116.187
30
0
11
109.11103730765
21
112.987
31
0
0
LINE
8
0
62
0
10
119.030222517436
20
0
30
0
11
119.030222517436
21
3.2
31
0
0
LINE
8
0
62
0
10
119.030222517436
20
116.187
30
0
11
119.030222517436
21
112.987
31
0
0
LINE
8
0
62
0
10
128.949407727222
20
0
30
0
11
128.949407727222
21
3.2
31
0
0
LINE
8
0
62
0
10
128.949407727222
20
116.187
30
0
11
128.949407727222
21
112.987
31
0
0
LINE
8
0
62
0
10
138.868592937009
20
0
30
0
11
138.868592937009
21
3.2
31
0
0
LINE
8
0
62
0
10
138.868592937009
20
116.187
30
0
11
138.868592937009
21
112.987
31
0
0
LINE
8
0
62
0
10
148.787778146795
20
0
30
0
11
148.787778146795
21
6.4
31
0
0
LINE
8
0
62
0
10
148.787778146795
20
116.187
30
0
11
148.787778146795
21
109.787
31
0
0
TEXT
8
0
62
0
10
148.787778146795
20
-12
30
0
40
8
1
1.5
50
0
0
LINE
8
0
62
0
10
158.706963356581
20
0
30
0
11
158.706963356581
21
3.2
31
0
0
LINE
8
0
62
0
10
158.706963356581
20
116.187
30
0
11
158.706963356581
21
112.987
31
0
0
LINE
8
0
62
0
10
168.626148566368
20
0
30
0
11
168.626148566368
21
3.2
31
0
0
LINE
8
0
62
0
10
168.626148566368
20
116.187
30
0
11
168.626148566368
21
112.987
31
0
0
LINE
8
0
62
0
10
178.545333776154
20
0
30
0
11
178.545333776154
21
3.2
31
0
0
LINE
8
0
62
0
10
178.545333776154
20
116.187
30
0
11
178.545333776154
21
112.987
31
0
0
TEXT
8
0
62
0
10
-4
20
-4
30
0
40
8
1
0
50
0
0
LINE
8
0
62
0
10
0
20
4.64748
30
0
11
3.2
21
4.64748
31
0
0
LINE
8
0
62
0
10
179.2
20
4.64748
30
0
11
176
21
4.64748
31
0
0
LINE
8
0
62
0
10
0
20
9.29496
30
0
11
3.2
21
9.29496
31
0
0
LINE
8
0
62
0
10
179.2
20
9.29496
30
0
11
176
21
9.29496
31
0
0
LINE
8
0
62
0
10
0
20
13.94244
30
0
11
3.2
21
13.94244
31
0
0
LINE
8
0
62
0
10
179.2
20
13.94244
30
0
11
176
21
13.94244
31
0
0
LINE
8
0
62
0
10
0
20
18.58992
30
0
11
3.2
21
18.58992
31
0
0
LINE
8
0
62
0
10
179.2
20
18.58992
30
0
11
176
21
18.58992
31
0
0
LINE
8
0
62
0
10
0
20
23.2374
30
0
11
6.4
21
23.2374
31
0
0
LINE
8
0
62
0
10
179.2
20
23.2374
30
0
11
172.8
21
23.2374
31
0
0
TEXT
8
0
62
0
10
-4
20
19.2374
30
0
40
8
1
5
50
0
0
LINE
8
0
62
0
10
0
20
27.88488
30
0
11
3.2
21
27.88488
31
0
0
LINE
8
0
62
0
10
179.2
20
27.88488
30
0
11
176
21
27.88488
31
0
0
LINE
8
0
62
0
10
0
20
32.53236
30
0
11
3.2
21
32.53236
31
0
0
LINE
8
0
62
0
10
179.2
20
32.53236
30
0
11
176
21
32.53236
31
0
0
LINE
8
0
62
0
10
0
20
37.17984
30
0
11
3.2
21
37.17984
31
0
0
LINE
8
0
62
0
10
179.2
20
37.17984
30
0
11
176
21
37.17984
31
0
0
LINE
8
0
62
0
10
0
20
41.82732
30
0
11
3.2
21
41.82732
31
0
0
LINE
8
0
62
0
10
179.2
20
41.82732
30
0
11
176
21
41.82732
31
0
0
LINE
8
0
62
0
10
0
20
46.4748
30
0
11
6.4
21
46.4748
31
0
0
LINE
8
0
62
0
10
179.2
20
46.4748
30
0
11
172.8
21
46.4748
31
0
0
TEXT
8
0
62
0
10
-4
20
42.4748
30
0
40
8
1
10
50
0
0
LINE
8
0
62
0
10
0
20
51.12228
30
0
11
3.2
21
51.12228
31
0
0
LINE
8
0
62
0
10
179.2
20
51.12228
30
0
11
176
21
51.12228
31
0
0
LINE
8
0
62
0
10
0
20
55.76976
30
0
11
3.2
21
55.76976
31
0
0
LINE
8
0
62
0
10
179.2
20
55.76976
30
0
11
176
21
55.76976
31
0
0
LINE
8
0
62
0
10
0
20
60.41724
30
0
11
3.2
21
60.41724
31
0
0
LINE
8
0
62
0
10
179.2
20
60.41724
30
0
11
176
21
60.41724
31
0
0
LINE
8
0
62
0
10
0
20
65.06472
30
0
11
3.2
21
65.06472
31
0
0
LINE
8
0
62
0
10
179.2
20
65.06472
30
0
11
176
21
65.06472
31
0
0
LINE
8
0
62
0
10
0
20
69.7122
30
0
11
6.4
21
69.7122
31
0
0
LINE
8
0
62
0
10
179.2
20
69.7122
30
0
11
172.8
21
69.7122
31
0
0
TEXT
8
0
62
0
10
-4
20
65.7122
30
0
40
8
1
15
50
0
0
LINE
8
0
62
0
10
0
20
74.35968
30
0
11
3.2
21
74.35968
31
0
0
LINE
8
0
62
0
10
179.2
20
74.35968
30
0
11
176
21
74.35968
31
0
0
LINE
8
0
62
0
10
0
20
79.00716
30
0
11
3.2
21
79.00716
31
0
0
LINE
8
0
62
0
10
179.2
20
79.00716
30
0
11
176
21
79.00716
31
0
0
LINE
8
0
62
0
10
0
20
83.65464
30
0
11
3.2
21
83.65464
31
0
0
LINE
8
0
62
0
10
179.2
20
83.65464
30
0
11
176
21
83.65464
31
0
0
LINE
8
0
62
0
10
0
20
88.30212
30
0
11
3.2
21
88.30212
31
0
0
LINE
8
0
62
0
10
179.2
20
88.30212
30
0
11
176
21
88.30212
31
0
0
LINE
8
0
62
0
10
0
20
92.9496
30
0
11
6.4
21
92.9496
31
0
0
LINE
8
0
62
0
10
179.2
20
92.9496
30
0
11
172.8
21
92.9496
31
0
0
TEXT
8
0
62
0
10
-4
20
88.9496
30
0
40
8
1
20
50
0
0
LINE
8
0
62
0
10
0
20
97.59708
30
0
11
3.2
21
97.59708
31
0
0
LINE
8
0
62
0
10
179.2
20
97.59708
30
0
11
176
21
97.59708
31
0
0
LINE
8
0
62
0
10
0
20
102.24456
30
0
11
3.2
21
102.24456
31
0
0
LINE
8
0
62
0
10
179.2
20
102.24456
30
0
11
176
21
102.24456
31
0
0
LINE
8
0
62
0
10
0
20
106.89204
30
0
11
3.2
21
106.89204
31
0
0
LINE
8
0
62
0
10
179.2
20
106.89204
30
0
11
176
21
106.89204
31
0
0
LINE
8
0
62
0
10
0
20
111.53952
30
0
11
3.2
21
111.53952
31
0
0
LINE
8
0
62
0
10
179.2
20
111.53952
30
0
11
176
21
111.53952
31
0
0
TEXT
8
0
62
0
10
-4
20
112.187
30
0
40
8
1
25
50
0
0
TEXT
8
0
62
0
10
89.6
20
-32
30
0
40
10
1
R (kpc)
50
0
0
TEXT
8
0
62
0
10
-24
20
58.0935
30
0
40
10
1
V (km/s)
50
90
0
TEXT
8
0
62
0
10
72.6
20
131.187
30
0
40
11
1
V vs. R
50
0
0
POLYLINE
8
0
62
5
70
0
10
0
20
0
30
0
0
VERTEX
8
0
10
18.846451898594
20
9.91768609971145
30
0
0
VERTEX
8
0
10
19.8383704195727
20
10.3275045599953
30
0
0
VERTEX
8
0
10
20.8302889405513
20
10.7373230202791
30
0
0
VERTEX
8
0
10
21.8222074615299
20
11.147141480563
30
0
0
VERTEX
8
0
10
22.8141259825086
20
11.569197615506
30
0
0
VERTEX
8
0
10
23.8060445034872
20
11.9872124449955
30
0
0
VERTEX
8
0
10
24.7979630244659
20
12.4086367652302
30
0
0
VERTEX
8
0
10
25.7898815454445
20
12.8307497793226
30
0
0
VERTEX
8
0
10
26.7818000664231
20
13.252862793415
30
0
0
VERTEX
8
0
10
27.7737185874018
20
13.6653791499797
30
0
0
VERTEX
8
0
10
28.7656371083804
20
14.0792957948664
30
0
0
VERTEX
8
0
10
29.757555629359
20
14.497390404112
30
0
0
VERTEX
8
0
10
30.7494741503377
20
14.9195034182044
30
0
0
VERTEX
8
0
10
31.7413926713163
20
15.3416164322967
30
0
0
VERTEX
8
0
10
32.7333111922949
20
15.7602516261911
30
0
0
VERTEX
8
0
10
33.7252297132736
20
16.1782664556806
30
0
0
VERTEX
8
0
10
34.7171482342522
20
16.5962812851701
30
0
0
VERTEX
8
0
10
35.7090667552308
20
16.9850961653603
30
0
0
VERTEX
8
0
10
36.7009852762095
20
17.3785218872328
30
0
0
VERTEX
8
0
10
37.6929037971881
20
17.7633183625763
30
0
0
VERTEX
8
0
10
38.6848223181667
20
18.1403513460374
30
0
0
VERTEX
8
0
10
39.6767408391454
20
18.5173843294986
30
0
0
VERTEX
8
0
10
40.668659360124
20
18.9015096122612
30
0
0
VERTEX
8
0
10
41.6605778811026
20
19.286738964928
30
0
0
VERTEX
8
0
10
42.6524964020813
20
19.6719683175948
30
0
0
VERTEX
8
0
10
43.6444149230599
20
20.0571976702617
30
0
0
VERTEX
8
0
10
44.6363334440385
20
20.4424270229285
30
0
0
VERTEX
8
0
10
45.6282519650172
20
20.8276563755953
30
0
0
VERTEX
8
0
10
46.6201704859958
20
21.2128857282621
30
0
0
VERTEX
8
0
10
47.6120890069745
20
21.5981150809289
30
0
0
VERTEX
8
0
10
48.6040075279531
20
21.9761154753886
30
0
0
VERTEX
8
0
10
49.5959260489317
20
22.3531484588498
30
0
0
VERTEX
8
0
10
50.5878445699104
20
22.7301814423109
30
0
0
VERTEX
8
0
10
51.579763090889
20
23.0872011572838
30
0
0
VERTEX
8
0
10
52.5716816118676
20
23.4478414023336
30
0
0
VERTEX
8
0
10
53.5636001328463
20
23.7763660598549
30
0
0
VERTEX
8
0
10
54.5555186538249
20
24.079631720465
30
0
0
VERTEX
8
0
10
55.5474371748035
20
24.382897381075
30
0
0
VERTEX
8
0
10
56.5393556957822
20
24.67143180746
30
0
0
VERTEX
8
0
10
57.5312742167608
20
24.9583047296586
30
0
0
VERTEX
8
0
10
58.5231927377394
20
25.2451776518573
30
0
0
VERTEX
8
0
10
59.5151112587181
20
25.5371222206308
30
0
0
VERTEX
8
0
10
60.5070297796967
20
25.8280933274323
30
0
0
VERTEX
8
0
10
61.4989483006753
20
26.1167021342434
30
0
0
VERTEX
8
0
10
62.490866821654
20
26.4035750564421
30
0
0
VERTEX
8
0
10
63.4827853426326
20
26.6904479786407
30
0
0
VERTEX
8
0
10
64.4747038636112
20
26.9885743148665
30
0
0
VERTEX
8
0
10
65.4666223845899
20
27.2877417908737
30
0
0
VERTEX
8
0
10
66.4585409055685
20
27.5869092668809
30
0
0
VERTEX
8
0
10
67.4504594265471
20
27.8655168387779
30
0
0
VERTEX
8
0
10
68.4423779475258
20
28.1482915763737
30
0
0
VERTEX
8
0
10
69.4342964685044
20
28.3824537251046
30
0
0
VERTEX
8
0
10
70.426214989483
20
28.5832647706437
30
0
0
VERTEX
8
0
10
71.4181335104617
20
28.7840758161828
30
0
0
VERTEX
8
0
10
72.4100520314403
20
28.9772479267983
30
0
0
VERTEX
8
0
10
73.4019705524189
20
29.1698626031317
30
0
0
VERTEX
8
0
10
74.3938890733976
20
29.3624772794651
30
0
0
VERTEX
8
0
10
75.3858075943762
20
29.5446753448379
30
0
0
VERTEX
8
0
10
76.3777261153549
20
29.7290936519656
30
0
0
VERTEX
8
0
10
77.3696446363335
20
29.9160109179893
30
0
0
VERTEX
8
0
10
78.3615631573121
20
30.1045274097199
30
0
0
VERTEX
8
0
10
79.3534816782908
20
30.2930439014505
30
0
0
VERTEX
8
0
10
80.3454001992694
20
30.4854481900956
30
0
0
VERTEX
8
0
10
81.337318720248
20
30.678062866429
30
0
0
VERTEX
8
0
10
82.3292372412267
20
30.8706775427624
30
0
0
VERTEX
8
0
10
83.3211557622053
20
31.0527389492296
30
0
0
VERTEX
8
0
10
84.3130742831839
20
31.2371572563574
30
0
0
VERTEX
8
0
10
85.3049928041626
20
31.4138736984388
30
0
0
VERTEX
8
0
10
86.2969113251412
20
31.5859974517581
30
0
0
VERTEX
8
0
10
87.2888298461198
20
31.7581212050773
30
0
0
VERTEX
8
0
10
88.2807483670985
20
31.8946398210909
30
0
0
VERTEX
8
0
10
89.2726668880771
20
32.0298799129846
30
0
0
VERTEX
8
0
10
90.2645854090557
20
32.1651200048783
30
0
0
VERTEX
8
0
10
91.2565039300344
20
32.2789802392287
30
0
0
VERTEX
8
0
10
92.248422451013
20
32.397827592711
30
0
0
VERTEX
8
0
10
93.2403409719916
20
32.5166749461933
30
0
0
VERTEX
8
0
10
94.2322594929703
20
32.6355222996756
30
0
0
VERTEX
8
0
10
95.2241780139489
20
32.7543696531579
30
0
0
VERTEX
8
0
10
96.2160965349275
20
32.8893148299204
30
0
0
VERTEX
8
0
10
97.2080150559062
20
33.0245549218141
30
0
0
VERTEX
8
0
10
98.1999335768848
20
33.1597950137077
30
0
0
VERTEX
8
0
10
99.1918520978635
20
33.2679686364086
30
0
0
VERTEX
8
0
10
100.183770618842
20
33.382717805288
30
0
0
VERTEX
8
0
10
101.175689139821
20
33.5055788159303
30
0
0
VERTEX
8
0
10
102.167607660799
20
33.6326225386183
30
0
0
VERTEX
8
0
10
103.159526181778
20
33.7596662613063
30
0
0
VERTEX
8
0
10
104.151444702757
20
33.8621532723575
30
0
0
VERTEX
8
0
10
105.143363223735
20
33.9646078874285
30
0
0
VERTEX
8
0
10
106.135281744714
20
34.0670625024995
30
0
0
VERTEX
8
0
10
107.127200265693
20
34.1421090011139
30
0
0
VERTEX
8
0
10
108.119118786671
20
34.2240726931706
30
0
0
VERTEX
8
0
10
109.11103730765
20
34.3115809386414
30
0
0
VERTEX
8
0
10
110.102955828628
20
34.4017409999038
30
0
0
VERTEX
8
0
10
111.094874349607
20
34.4919010611663
30
0
0
VERTEX
8
0
10
112.086792870586
20
34.5820611224287
30
0
0
VERTEX
8
0
10
113.078711391564
20
34.6722211836912
30
0
0
VERTEX
8
0
10
114.070629912543
20
34.7623812449536
30
0
0
VERTEX
8
0
10
115.062548433522
20
34.8580912589601
30
0
0
VERTEX
8
0
10
116.0544669545
20
34.9523495048254
30
0
0
VERTEX
8
0
10
117.046385475479
20
35.0409265383712
30
0
0
VERTEX
8
0
10
118.038303996458
20
35.1269884150308
30
0
0
VERTEX
8
0
10
119.030222517436
20
35.2130502916904
30
0
0
VERTEX
8
0
10
120.022141038415
20
35.2821943916368
30
0
0
VERTEX
8
0
10
121.014059559393
20
35.3518635298851
30
0
0
VERTEX
8
0
10
122.005978080372
20
35.4215326681333
30
0
0
VERTEX
8
0
10
122.997896601351
20
35.418164137823
30
0
0
VERTEX
8
0
10
123.989815122329
20
35.4345568762343
30
0
0
VERTEX
8
0
10
124.981733643308
20
35.401497709233
30
0
0
VERTEX
8
0
10
125.973652164287
20
35.3482213093961
30
0
0
VERTEX
8
0
10
126.965570685265
20
35.2949449095592
30
0
0
VERTEX
8
0
10
127.957489206244
20
35.2588596042465
30
0
0
VERTEX
8
0
10
128.949407727223
20
35.2219759428209
30
0
0
VERTEX
8
0
10
129.941326248201
20
35.1850922813954
30
0
0
VERTEX
8
0
10
130.93324476918
20
35.199388124816
30
0
0
VERTEX
8
0
10
131.925163290158
20
35.199388124816
30
0
0
VERTEX
8
0
10
132.917081811137
20
35.199388124816
30
0
0
VERTEX
8
0
10
133.909000332116
20
35.199388124816
30
0
0
VERTEX
8
0
10
134.900918853094
20
35.199388124816
30
0
0
VERTEX
8
0
10
135.892837374073
20
35.1338965785591
30
0
0
VERTEX
8
0
10
136.884755895052
20
35.0724238095165
30
0
0
VERTEX
8
0
10
137.87667441603
20
35.0109510404739
30
0
0
VERTEX
8
0
10
138.868592937009
20
34.9437233303291
30
0
0
VERTEX
8
0
10
139.860511457987
20
34.8781523766836
30
0
0
VERTEX
8
0
10
140.852429978966
20
34.7425327491239
30
0
0
VERTEX
8
0
10
141.844348499945
20
34.5827035496132
30
0
0
VERTEX
8
0
10
142.836267020923
20
34.4228743501025
30
0
0
VERTEX
8
0
10
143.828185541902
20
34.2541762855187
30
0
0
VERTEX
8
0
10
144.820104062881
20
34.0861507168024
30
0
0
VERTEX
8
0
10
145.812022583859
20
33.918125148086
30
0
0
VERTEX
8
0
10
146.803941104838
20
33.7442763088146
30
0
0
VERTEX
8
0
10
147.795859625817
20
33.5721525554954
30
0
0
VERTEX
8
0
10
148.787778146795
20
33.4031427261469
30
0
0
VERTEX
8
0
10
149.779696667774
20
33.2351171574305
30
0
0
VERTEX
8
0
10
150.771615188752
20
33.0670915887142
30
0
0
VERTEX
8
0
10
151.763533709731
20
32.9035687819871
30
0
0
VERTEX
8
0
10
152.75545223071
20
32.7396413978735
30
0
0
VERTEX
8
0
10
153.747370751688
20
32.57571401376
30
0
0
VERTEX
8
0
10
154.739289272667
20
32.4326960335958
30
0
0
SEQEND
8
0
0
POLYLINE
8
0
62
6
70
0
10
0
20
0
30
0
0
VERTEX
8
0
10
44.987298935581
20
0
30
0
0
VERTEX
8
0
10
45.6282519650172
20
0.539239703487592
30
0
0
VERTEX
8
0
10
46.6201704859958
20
1.37936754706946
30
0
0
VERTEX
8
0
10
47.6120890069745
20
2.21949539065133
30
0
0
VERTEX
8
0
10
48.6040075279531
20
3.06323771333673
30
0
0
VERTEX
8
0
10
49.5959260489317
20
3.90746374152143
30
0
0
VERTEX
8
0
10
50.5878445699104
20
4.75168976970613
30
0
0
VERTEX
8
0
10
51.579763090889
20
5.58590916364672
30
0
0
VERTEX
8
0
10
52.5716816118676
20
6.42193882262574
30
0
0
VERTEX
8
0
10
53.5636001328463
20
7.28595492216525
30
0
0
VERTEX
8
0
10
54.5555186538249
20
8.17198243329891
30
0
0
VERTEX
8
0
10
55.5474371748035
20
9.05800994443256
30
0
0
VERTEX
8
0
10
56.5393556957822
20
9.94256433214371
30
0
0
VERTEX
8
0
10
57.5312742167608
20
10.8269525694362
30
0
0
VERTEX
8
0
10
58.5231927377394
20
11.7113408067288
30
0
0
VERTEX
8
0
10
59.5151112587181
20
12.5815284336118
30
0
0
VERTEX
8
0
10
60.5070297796967
20
13.4544417540164
30
0
0
VERTEX
8
0
10
61.4989483006753
20
14.332079674402
30
0
0
VERTEX
8
0
10
62.490866821654
20
15.2131893640122
30
0
0
VERTEX
8
0
10
63.4827853426326
20
16.0942990536225
30
0
0
VERTEX
8
0
10
64.4747038636112
20
16.9829110192507
30
0
0
VERTEX
8
0
10
65.4666223845899
20
17.8722170780667
30
0
0
VERTEX
8
0
10
66.4585409055685
20
18.7615231368826
30
0
0
VERTEX
8
0
10
67.4504594265471
20
19.5788695313127
30
0
0
VERTEX
8
0
10
68.4423779475258
20
20.4108010056889
30
0
0
VERTEX
8
0
10
69.4342964685044
20
20.987516388524
30
0
0
VERTEX
8
0
10
70.426214989483
20
21.3891384796022
30
0
0
VERTEX
8
0
10
71.4181335104617
20
21.7907605706804
30
0
0
VERTEX
8
0
10
72.4100520314403
20
22.0816181053669
30
0
0
VERTEX
8
0
10
73.4019705524189
20
22.3643928429628
30
0
0
VERTEX
8
0
10
74.3938890733976
20
22.6471675805586
30
0
0
VERTEX
8
0
10
75.3858075943762
20
22.9299423181545
30
0
0
VERTEX
8
0
10
76.3777261153549
20
23.2127170557503
30
0
0
VERTEX
8
0
10
77.3696446363335
20
23.4929928344502
30
0
0
VERTEX
8
0
10
78.3615631573121
20
23.7716693874432
30
0
0
VERTEX
8
0
10
79.3534816782908
20
24.0503459404362
30
0
0
VERTEX
8
0
10
80.3454001992694
20
24.3290224934292
30
0
0
VERTEX
8
0
10
81.337318720248
20
24.6076990464222
30
0
0
VERTEX
8
0
10
82.3292372412267
20
24.8863755994152
30
0
0
VERTEX
8
0
10
83.3211557622053
20
25.1650521524082
30
0
0
VERTEX
8
0
10
84.3130742831839
20
25.4437287054012
30
0
0
VERTEX
8
0
10
85.3049928041626
20
25.7095688166505
30
0
0
VERTEX
8
0
10
86.2969113251412
20
25.9677544466293
30
0
0
VERTEX
8
0
10
87.2888298461198
20
26.2259400766081
30
0
0
VERTEX
8
0
10
88.2807483670985
20
26.4089593056086
30
0
0
VERTEX
8
0
10
89.2726668880771
20
26.5892794281335
30
0
0
VERTEX
8
0
10
90.2645854090557
20
26.7695995506584
30
0
0
VERTEX
8
0
10
91.2565039300344
20
26.9499196731833
30
0
0
VERTEX
8
0
10
92.248422451013
20
27.1302397957081
30
0
0
VERTEX
8
0
10
93.2403409719916
20
27.3079243004315
30
0
0
VERTEX
8
0
10
94.2322594929703
20
27.4841462383536
30
0
0
VERTEX
8
0
10
95.2241780139489
20
27.6603681762756
30
0
0
VERTEX
8
0
10
96.2160965349275
20
27.8365901141977
30
0
0
VERTEX
8
0
10
97.2080150559062
20
28.0128120521197
30
0
0
VERTEX
8
0
10
98.1999335768848
20
28.1890339900418
30
0
0
VERTEX
8
0
10
99.1918520978635
20
28.3706692218024
30
0
0
VERTEX
8
0
10
100.183770618842
20
28.5509893443273
30
0
0
VERTEX
8
0
10
101.175689139821
20
28.7286055195979
30
0
0
VERTEX
8
0
10
102.167607660799
20
28.90482745752
30
0
0
VERTEX
8
0
10
103.159526181778
20
29.081049395442
30
0
0
VERTEX
8
0
10
104.151444702757
20
29.3759621062748
30
0
0
VERTEX
8
0
10
105.143363223735
20
29.6710313976792
30
0
0
VERTEX
8
0
10
106.135281744714
20
29.9661006890835
30
0
0
VERTEX
8
0
10
107.127200265693
20
30.3598391997316
30
0
0
VERTEX
8
0
10
108.119118786671
20
30.728675813987
30
0
0
VERTEX
8
0
10
109.11103730765
20
31.1002847049495
30
0
0
VERTEX
8
0
10
110.102955828628
20
31.4732195038078
30
0
0
VERTEX
8
0
10
111.094874349607
20
31.8461543026661
30
0
0
VERTEX
8
0
10
112.086792870586
20
32.2232502162499
30
0
0
VERTEX
8
0
10
113.078711391564
20
32.600283199711
30
0
0
VERTEX
8
0
10
114.070629912543
20
32.9773161831722
30
0
0
VERTEX
8
0
10
115.062548433522
20
33.3432492611451
30
0
0
VERTEX
8
0
10
116.0544669545
20
33.7120858754006
30
0
0
VERTEX
8
0
10
117.046385475479
20
34.0269509726206
30
0
0
VERTEX
8
0
10
118.038303996458
20
34.3179220794222
30
0
0
VERTEX
8
0
10
119.030222517436
20
34.6088931862237
30
0
0
VERTEX
8
0
10
120.022141038415
20
35.1324837228311
30
0
0
VERTEX
8
0
10
121.014059559393
20
35.6488549827887
30
0
0
VERTEX
8
0
10
122.005978080372
20
36.1652262427463
30
0
0
VERTEX
8
0
10
122.997896601351
20
36.1478606940063
30
0
0
VERTEX
8
0
10
123.989815122329
20
36.2749044166942
30
0
0
VERTEX
8
0
10
124.981733643308
20
36.4368553667323
30
0
0
VERTEX
8
0
10
125.973652164287
20
36.6130773046544
30
0
0
VERTEX
8
0
10
126.965570685265
20
36.7892992425764
30
0
0
VERTEX
8
0
10
127.957489206244
20
36.9698189541295
30
0
0
VERTEX
8
0
10
128.949407727223
20
37.1501390766544
30
0
0
VERTEX
8
0
10
129.941326248201
20
37.3304591991793
30
0
0
VERTEX
8
0
10
130.93324476918
20
37.5050927100546
30
0
0
VERTEX
8
0
10
131.925163290158
20
37.6813146479767
30
0
0
VERTEX
8
0
10
132.917081811137
20
37.8575365858987
30
0
0
VERTEX
8
0
10
133.909000332116
20
38.0337585238208
30
0
0
VERTEX
8
0
10
134.900918853094
20
38.2099804617428
30
0
0
VERTEX
8
0
10
135.892837374073
20
38.3862023996649
30
0
0
VERTEX
8
0
10
136.884755895052
20
38.5624243375869
30
0
0
VERTEX
8
0
10
137.87667441603
20
38.738646275509
30
0
0
VERTEX
8
0
10
138.868592937009
20
38.8918484490218
30
0
0
VERTEX
8
0
10
139.860511457987
20
39.0516776485324
30
0
0
VERTEX
8
0
10
140.852429978966
20
39.178005308345
30
0
0
VERTEX
8
0
10
141.844348499945
20
39.2927544772245
30
0
0
VERTEX
8
0
10
142.836267020923
20
39.4075036461039
30
0
0
VERTEX
8
0
10
143.828185541902
20
39.5133839499103
30
0
0
VERTEX
8
0
10
144.820104062881
20
39.6199367495841
30
0
0
VERTEX
8
0
10
145.812022583859
20
39.7264895492579
30
0
0
VERTEX
8
0
10
146.803941104838
20
39.8621587017071
30
0
0
VERTEX
8
0
10
147.795859625817
20
39.9892024243951
30
0
0
VERTEX
8
0
10
148.787778146795
20
40.1069043751708
30
0
0
VERTEX
8
0
10
149.779696667774
20
40.2216535440502
30
0
0
VERTEX
8
0
10
150.771615188752
20
40.3364027129297
30
0
0
VERTEX
8
0
10
151.763533709731
20
40.4466491198199
30
0
0
VERTEX
8
0
10
152.75545223071
20
40.5573001040965
30
0
0
VERTEX
8
0
10
153.747370751688
20
40.6679510883732
30
0
0
VERTEX
8
0
10
154.739289272667
20
40.7720173432293
30
0
0
SEQEND
8
0
0
POLYLINE
8
0
62
6
70
0
10
0
20
0
30
0
0
VERTEX
8
0
10
18.846451898594
20
25.6271384549116
30
0
0
VERTEX
8
0
10
19.8383704195727
20
26.4180880832594
30
0
0
VERTEX
8
0
10
20.8302889405513
20
27.2090377116072
30
0
0
VERTEX
8
0
10
21.8222074615299
20
28.0600399921015
30
0
0
VERTEX
8
0
10
22.8141259825086
20
28.9124623894919
30
0
0
VERTEX
8
0
10
23.8060445034872
20
29.7648847868823
30
0
0
VERTEX
8
0
10
24.7979630244659
20
30.5903454434645
30
0
0
VERTEX
8
0
10
25.7898815454445
20
31.4222769178407
30
0
0
VERTEX
8
0
10
26.7818000664231
20
32.2542083922169
30
0
0
VERTEX
8
0
10
27.7737185874018
20
33.0861398665931
30
0
0
VERTEX
8
0
10
28.7656371083804
20
33.9180713409693
30
0
0
VERTEX
8
0
10
29.757555629359
20
34.7662901737289
30
0
0
VERTEX
8
0
10
30.7494741503377
20
35.6146143865164
30
0
0
VERTEX
8
0
10
31.7413926713163
20
36.4629385993039
30
0
0
VERTEX
8
0
10
32.7333111922949
20
37.3003414568627
30
0
0
VERTEX
8
0
10
33.7252297132736
20
38.1404693004446
30
0
0
VERTEX
8
0
10
34.7171482342522
20
38.9393271785754
30
0
0
VERTEX
8
0
10
35.7090667552308
20
39.7179822531147
30
0
0
VERTEX
8
0
10
36.7009852762095
20
40.496637327654
30
0
0
VERTEX
8
0
10
37.6929037971881
20
41.246311218853
30
0
0
VERTEX
8
0
10
38.6848223181667
20
41.9962790011724
30
0
0
VERTEX
8
0
10
39.6767408391454
20
42.7462467834919
30
0
0
VERTEX
8
0
10
40.668659360124
20
43.4906855587442
30
0
0
VERTEX
8
0
10
41.6605778811026
20
44.2365551564607
30
0
0
VERTEX
8
0
10
42.6524964020813
20
44.9796050936945
30
0
0
VERTEX
8
0
10
43.6444149230599
20
45.7213765068082
30
0
0
VERTEX
8
0
10
44.6363334440385
20
46.463147919922
30
0
0
VERTEX
8
0
10
45.6282519650172
20
47.2091278315371
30
0
0
VERTEX
8
0
10
46.6201704859958
20
47.9549974292537
30
0
0
VERTEX
8
0
10
47.6120890069745
20
48.7008670269702
30
0
0
VERTEX
8
0
10
48.6040075279531
20
49.4467366246868
30
0
0
VERTEX
8
0
10
49.5959260489317
20
50.1926062224034
30
0
0
VERTEX
8
0
10
50.5878445699104
20
50.93847582012
30
0
0
VERTEX
8
0
10
51.579763090889
20
51.6843454178366
30
0
0
VERTEX
8
0
10
52.5716816118676
20
52.4302150155532
30
0
0
VERTEX
8
0
10
53.5636001328463
20
53.1675309573615
30
0
0
VERTEX
8
0
10
54.5555186538249
20
53.9052041858724
30
0
0
VERTEX
8
0
10
55.5474371748035
20
54.6428774143833
30
0
0
VERTEX
8
0
10
56.5393556957822
20
55.3748849769216
30
0
0
VERTEX
8
0
10
57.5312742167608
20
56.1084600208297
30
0
0
VERTEX
8
0
10
58.5231927377394
20
56.8420350647377
30
0
0
VERTEX
8
0
10
59.5151112587181
20
57.5756101086458
30
0
0
VERTEX
8
0
10
60.5070297796967
20
58.3091851525539
30
0
0
VERTEX
8
0
10
61.4989483006753
20
59.0514505112756
30
0
0
VERTEX
8
0
10
62.490866821654
20
59.7932219243894
30
0
0
VERTEX
8
0
10
63.4827853426326
20
60.5349933375031
30
0
0
VERTEX
8
0
10
64.4747038636112
20
61.2824987460423
30
0
0
VERTEX
8
0
10
65.4666223845899
20
62.0283683437588
30
0
0
VERTEX
8
0
10
66.4585409055685
20
62.7681886437933
30
0
0
VERTEX
8
0
10
67.4504594265471
20
63.5058618723042
30
0
0
VERTEX
8
0
10
68.4423779475258
20
64.2435351008151
30
0
0
VERTEX
8
0
10
69.4342964685044
20
64.8267362892397
30
0
0
VERTEX
8
0
10
70.426214989483
20
65.4209730566512
30
0
0
VERTEX
8
0
10
71.4181335104617
20
66.0152098240628
30
0
0
VERTEX
8
0
10
72.4100520314403
20
66.510807068546
30
0
0
VERTEX
8
0
10
73.4019705524189
20
67.0353746977093
30
0
0
VERTEX
8
0
10
74.3938890733976
20
67.5599423268726
30
0
0
VERTEX
8
0
10
75.3858075943762
20
68.0845099560359
30
0
0
VERTEX
8
0
10
76.3777261153549
20
68.6090775851992
30
0
0
VERTEX
8
0
10
77.3696446363335
20
69.1246815817378
30
0
0
VERTEX
8
0
10
78.3615631573121
20
69.6410528416955
30
0
0
VERTEX
8
0
10
79.3534816782908
20
70.1574241016531
30
0
0
VERTEX
8
0
10
80.3454001992694
20
70.6914073246034
30
0
0
VERTEX
8
0
10
81.337318720248
20
71.2200731383695
30
0
0
VERTEX
8
0
10
82.3292372412267
20
71.7329324134028
30
0
0
VERTEX
8
0
10
83.3211557622053
20
72.2411073041548
30
0
0
VERTEX
8
0
10
84.3130742831839
20
72.7492821949067
30
0
0
VERTEX
8
0
10
85.3049928041626
20
73.271107522954
30
0
0
VERTEX
8
0
10
86.2969113251412
20
73.7915769675145
30
0
0
VERTEX
8
0
10
87.2888298461198
20
74.3120464120749
30
0
0
VERTEX
8
0
10
88.2807483670985
20
74.6840412620443
30
0
0
VERTEX
8
0
10
89.2726668880771
20
75.1020560915339
30
0
0
VERTEX
8
0
10
90.2645854090557
20
75.5233005582227
30
0
0
VERTEX
8
0
10
91.2565039300344
20
75.9454135723151
30
0
0
VERTEX
8
0
10
92.248422451013
20
76.3675265864074
30
0
0
VERTEX
8
0
10
93.2403409719916
20
76.7896396004998
30
0
0
VERTEX
8
0
10
94.2322594929703
20
77.2117526145921
30
0
0
VERTEX
8
0
10
95.2241780139489
20
77.6338656286845
30
0
0
VERTEX
8
0
10
96.2160965349275
20
78.043964016304
30
0
0
VERTEX
8
0
10
97.2080150559062
20
78.4578806611907
30
0
0
VERTEX
8
0
10
98.1999335768848
20
78.8783932393815
30
0
0
VERTEX
8
0
10
99.1918520978635
20
79.3005062534739
30
0
0
VERTEX
8
0
10
100.183770618842
20
79.7226192675662
30
0
0
VERTEX
8
0
10
101.175689139821
20
80.1353586723174
30
0
0
VERTEX
8
0
10
102.167607660799
20
80.549275317204
30
0
0
VERTEX
8
0
10
103.159526181778
20
80.9631919620907
30
0
0
VERTEX
8
0
10
104.151444702757
20
81.4074868204231
30
0
0
VERTEX
8
0
10
105.143363223735
20
81.841894388324
30
0
0
VERTEX
8
0
10
106.135281744714
20
82.2830345484345
30
0
0
VERTEX
8
0
10
107.127200265693
20
82.7256384855411
30
0
0
VERTEX
8
0
10
108.119118786671
20
83.1682424226476
30
0
0
VERTEX
8
0
10
109.11103730765
20
83.6156014938775
30
0
0
VERTEX
8
0
10
110.102955828628
20
84.0623036155869
30
0
0
VERTEX
8
0
10
111.094874349607
20
84.5090057372963
30
0
0
VERTEX
8
0
10
112.086792870586
20
84.9557078590057
30
0
0
VERTEX
8
0
10
113.078711391564
20
85.402409980715
30
0
0
VERTEX
8
0
10
114.070629912543
20
85.8491121024244
30
0
0
VERTEX
8
0
10
115.062548433522
20
86.2958142241338
30
0
0
VERTEX
8
0
10
116.0544669545
20
86.7425163458432
30
0
0
VERTEX
8
0
10
117.046385475479
20
87.1892184675526
30
0
0
VERTEX
8
0
10
118.038303996458
20
87.635920589262
30
0
0
VERTEX
8
0
10
119.030222517436
20
88.0805085939795
30
0
0
VERTEX
8
0
10
120.022141038415
20
88.5231125310861
30
0
0
VERTEX
8
0
10
121.014059559393
20
88.9657164681926
30
0
0
VERTEX
8
0
10
122.005978080372
20
89.3207465300407
30
0
0
VERTEX
8
0
10
122.997896601351
20
89.6608958520762
30
0
0
VERTEX
8
0
10
123.989815122329
20
90.0010451741118
30
0
0
VERTEX
8
0
10
124.981733643308
20
90.3020601519164
30
0
0
VERTEX
8
0
10
125.973652164287
20
90.6094239971293
30
0
0
VERTEX
8
0
10
126.965570685265
20
90.9146053958976
30
0
0
VERTEX
8
0
10
127.957489206244
20
91.2178710565077
30
0
0
VERTEX
8
0
10
128.949407727223
20
91.5211367171177
30
0
0
VERTEX
8
0
10
129.941326248201
20
91.8244023777278
30
0
0
VERTEX
8
0
10
130.93324476918
20
92.1276680383378
30
0
0
VERTEX
8
0
10
131.925163290158
20
92.4309336989478
30
0
0
VERTEX
8
0
10
132.917081811137
20
92.7341993595579
30
0
0
VERTEX
8
0
10
133.909000332116
20
93.0374650201679
30
0
0
VERTEX
8
0
10
134.900918853094
20
93.3429814566753
30
0
0
VERTEX
8
0
10
135.892837374073
20
93.6503453018881
30
0
0
VERTEX
8
0
10
136.884755895052
20
93.957709147101
30
0
0
VERTEX
8
0
10
137.87667441603
20
94.2432353088188
30
0
0
VERTEX
8
0
10
138.868592937009
20
94.5260100464147
30
0
0
VERTEX
8
0
10
139.860511457987
20
94.8087847840105
30
0
0
VERTEX
8
0
10
140.852429978966
20
95.0161327425907
30
0
0
VERTEX
8
0
10
141.844348499945
20
95.237434711144
30
0
0
VERTEX
8
0
10
142.836267020923
20
95.4517793636471
30
0
0
VERTEX
8
0
10
143.828185541902
20
95.6607867783919
30
0
0
VERTEX
8
0
10
144.820104062881
20
95.8697941931366
30
0
0
VERTEX
8
0
10
145.812022583859
20
96.0788016078814
30
0
0
VERTEX
8
0
10
146.803941104838
20
96.2878090226261
30
0
0
VERTEX
8
0
10
147.795859625817
20
96.4968164373709
30
0
0
VERTEX
8
0
10
148.787778146795
20
96.7109206335028
30
0
0
VERTEX
8
0
10
149.779696667774
20
96.9240262328504
30
0
0
VERTEX
8
0
10
150.771615188752
20
97.1347443973951
30
0
0
VERTEX
8
0
10
151.763533709731
20
97.3437518121399
30
0
0
VERTEX
8
0
10
152.75545223071
20
97.5527592268847
30
0
0
VERTEX
8
0
10
153.747370751688
20
97.7611792214128
30
0
0
VERTEX
8
0
10
154.739289272667
20
97.9695491407749
30
0
0
SEQEND
8
0
0
POLYLINE
8
0
62
1
70
0
10
0
20
0
30
0
0
VERTEX
8
0
10
18.846451898594
20
9.91768609971145
30
0
0
VERTEX
8
0
10
19.8383704195727
20
10.3275045599953
30
0
0
VERTEX
8
0
10
20.8302889405513
20
10.7373230202791
30
0
0
VERTEX
8
0
10
21.8222074615299
20
11.147141480563
30
0
0
VERTEX
8
0
10
22.8141259825086
20
11.569197615506
30
0
0
VERTEX
8
0
10
23.8060445034872
20
11.9872124449955
30
0
0
VERTEX
8
0
10
24.7979630244659
20
12.4086367652302
30
0
0
VERTEX
8
0
10
25.7898815454445
20
12.8307497793226
30
0
0
VERTEX
8
0
10
26.7818000664231
20
13.252862793415
30
0
0
VERTEX
8
0
10
27.7737185874018
20
13.6653791499797
30
0
0
VERTEX
8
0
10
28.7656371083804
20
14.0792957948664
30
0
0
VERTEX
8
0
10
29.757555629359
20
14.497390404112
30
0
0
VERTEX
8
0
10
30.7494741503377
20
14.9195034182044
30
0
0
VERTEX
8
0
10
31.7413926713163
20
15.3416164322967
30
0
0
VERTEX
8
0
10
32.7333111922949
20
15.7602516261911
30
0
0
VERTEX
8
0
10
33.7252297132736
20
16.1782664556806
30
0
0
VERTEX
8
0
10
34.7171482342522
20
16.5962812851701
30
0
0
VERTEX
8
0
10
35.7090667552308
20
16.9850961653603
30
0
0
VERTEX
8
0
10
36.7009852762095
20
17.3785218872328
30
0
0
VERTEX
8
0
10
37.6929037971881
20
17.7633183625763
30
0
0
VERTEX
8
0
10
38.6848223181667
20
18.1403513460374
30
0
0
VERTEX
8
0
10
39.6767408391454
20
18.5173843294986
30
0
0
VERTEX
8
0
10
40.668659360124
20
18.9015096122612
30
0
0
VERTEX
8
0
10
41.6605778811026
20
19.286738964928
30
0
0
VERTEX
8
0
10
42.6524964020813
20
19.6719683175948
30
0
0
VERTEX
8
0
10
43.6444149230599
20
20.0571976702617
30
0
0
VERTEX
8
0
10
44.6363334440385
20
20.4424270229285
30
0
0
VERTEX
8
0
10
45.6282519650172
20
20.8346358153362
30
0
0
VERTEX
8
0
10
46.6201704859958
20
21.2576850985758
30
0
0
VERTEX
8
0
10
47.6120890069745
20
21.7118570103566
30
0
0
VERTEX
8
0
10
48.6040075279531
20
22.1885798706457
30
0
0
VERTEX
8
0
10
49.5959260489317
20
22.6921025670757
30
0
0
VERTEX
8
0
10
50.5878445699104
20
23.2215353512188
30
0
0
VERTEX
8
0
10
51.579763090889
20
23.7533416272616
30
0
0
VERTEX
8
0
10
52.5716816118676
20
24.3113669848188
30
0
0
VERTEX
8
0
10
53.5636001328463
20
24.8676641874553
30
0
0
VERTEX
8
0
10
54.5555186538249
20
25.4285265141999
30
0
0
VERTEX
8
0
10
55.5474371748035
20
26.0110212957791
30
0
0
VERTEX
8
0
10
56.5393556957822
20
26.5995137724163
30
0
0
VERTEX
8
0
10
57.5312742167608
20
27.2055118848979
30
0
0
VERTEX
8
0
10
58.5231927377394
20
27.8293819220835
30
0
0
VERTEX
8
0
10
59.5151112587181
20
28.4682185785697
30
0
0
VERTEX
8
0
10
60.5070297796967
20
29.1223695437506
30
0
0
VERTEX
8
0
10
61.4989483006753
20
29.7907810935228
30
0
0
VERTEX
8
0
10
62.490866821654
20
30.4727731981594
30
0
0
VERTEX
8
0
10
63.4827853426326
20
31.1673944263546
30
0
0
VERTEX
8
0
10
64.4747038636112
20
31.887339340824
30
0
0
VERTEX
8
0
10
65.4666223845899
20
32.6195799379902
30
0
0
VERTEX
8
0
10
66.4585409055685
20
33.3621389199628
30
0
0
VERTEX
8
0
10
67.4504594265471
20
34.0561178177487
30
0
0
VERTEX
8
0
10
68.4423779475258
20
34.7696292238267
30
0
0
VERTEX
8
0
10
69.4342964685044
20
35.2992850298171
30
0
0
VERTEX
8
0
10
70.426214989483
20
35.7001158240183
30
0
0
VERTEX
8
0
10
71.4181335104617
20
36.1020811981868
30
0
0
VERTEX
8
0
10
72.4100520314403
20
36.4318371148424
30
0
0
VERTEX
8
0
10
73.4019705524189
20
36.7565905861785
30
0
0
VERTEX
8
0
10
74.3938890733976
20
37.0816568050702
30
0
0
VERTEX
8
0
10
75.3858075943762
20
37.3987980548274
30
0
0
VERTEX
8
0
10
76.3777261153549
20
37.7180227805974
30
0
0
VERTEX
8
0
10
77.3696446363335
20
38.0379865603423
30
0
0
VERTEX
8
0
10
78.3615631573121
20
38.3585040900773
30
0
0
VERTEX
8
0
10
79.3534816782908
20
38.6792922462376
30
0
0
VERTEX
8
0
10
80.3454001992694
20
39.0033830178458
30
0
0
VERTEX
8
0
10
81.337318720248
20
39.327883156812
30
0
0
VERTEX
8
0
10
82.3292372412267
20
39.6526218858776
30
0
0
VERTEX
8
0
10
83.3211557622053
20
39.969393866838
30
0
0
VERTEX
8
0
10
84.3130742831839
20
40.2882529267832
30
0
0
VERTEX
8
0
10
85.3049928041626
20
40.5932677851827
30
0
0
VERTEX
8
0
10
86.2969113251412
20
40.8900905602189
30
0
0
VERTEX
8
0
10
87.2888298461198
20
41.1871120057988
30
0
0
VERTEX
8
0
10
88.2807483670985
20
41.4089504928875
30
0
0
VERTEX
8
0
10
89.2726668880771
20
41.6281513851814
30
0
0
VERTEX
8
0
10
90.2645854090557
20
41.8474181405595
30
0
0
VERTEX
8
0
10
91.2565039300344
20
42.0503357379646
30
0
0
VERTEX
8
0
10
92.248422451013
20
42.2571786102628
30
0
0
VERTEX
8
0
10
93.2403409719916
20
42.4624172551975
30
0
0
VERTEX
8
0
10
94.2322594929703
20
42.6667975154432
30
0
0
VERTEX
8
0
10
95.2241780139489
20
42.871257259647
30
0
0
VERTEX
8
0
10
96.2160965349275
20
43.0880816371241
30
0
0
VERTEX
8
0
10
97.2080150559062
20
43.3051829098007
30
0
0
VERTEX
8
0
10
98.1999335768848
20
43.5223349861062
30
0
0
VERTEX
8
0
10
99.1918520978635
20
43.7224497173476
30
0
0
VERTEX
8
0
10
100.183770618842
20
43.9268123201238
30
0
0
VERTEX
8
0
10
101.175689139821
20
44.1356611697524
30
0
0
VERTEX
8
0
10
102.167607660799
20
44.3468414791197
30
0
0
VERTEX
8
0
10
103.159526181778
20
44.5580800755028
30
0
0
VERTEX
8
0
10
104.151444702757
20
44.8284794958509
30
0
0
VERTEX
8
0
10
105.143363223735
20
45.0994977039527
30
0
0
VERTEX
8
0
10
106.135281744714
20
45.3710473546456
30
0
0
VERTEX
8
0
10
107.127200265693
20
45.6881105242655
30
0
0
VERTEX
8
0
10
108.119118786671
20
45.9949852591404
30
0
0
VERTEX
8
0
10
109.11103730765
20
46.3088792267515
30
0
0
VERTEX
8
0
10
110.102955828628
20
46.6266375557935
30
0
0
VERTEX
8
0
10
111.094874349607
20
46.9453808450043
30
0
0
VERTEX
8
0
10
112.086792870586
20
47.2679257634016
30
0
0
VERTEX
8
0
10
113.078711391564
20
47.5914003419963
30
0
0
VERTEX
8
0
10
114.070629912543
20
47.9158275777891
30
0
0
VERTEX
8
0
10
115.062548433522
20
48.2375247862994
30
0
0
VERTEX
8
0
10
116.0544669545
20
48.5610077117213
30
0
0
VERTEX
8
0
10
117.046385475479
20
48.8436272727636
30
0
0
VERTEX
8
0
10
118.038303996458
20
49.1082996138025
30
0
0
VERTEX
8
0
10
119.030222517436
20
49.373417933343
30
0
0
VERTEX
8
0
10
120.022141038415
20
49.790808927193
30
0
0
VERTEX
8
0
10
121.014059559393
20
50.2055287455427
30
0
0
VERTEX
8
0
10
122.005978080372
20
50.6222141529651
30
0
0
VERTEX
8
0
10
122.997896601351
20
50.6074518588622
30
0
0
VERTEX
8
0
10
123.989815122329
20
50.7097279765469
30
0
0
VERTEX
8
0
10
124.981733643308
20
50.8026620274273
30
0
0
VERTEX
8
0
10
125.973652164287
20
50.8921819089597
30
0
0
VERTEX
8
0
10
126.965570685265
20
50.9822093963047
30
0
0
VERTEX
8
0
10
127.957489206244
20
51.0877156867782
30
0
0
VERTEX
8
0
10
128.949407727223
20
51.1929723959395
30
0
0
VERTEX
8
0
10
129.941326248201
20
51.2986735001199
30
0
0
VERTEX
8
0
10
130.93324476918
20
51.435677341231
30
0
0
VERTEX
8
0
10
131.925163290158
20
51.5643132210762
30
0
0
VERTEX
8
0
10
132.917081811137
20
51.6932297376948
30
0
0
VERTEX
8
0
10
133.909000332116
20
51.8224247967011
30
0
0
VERTEX
8
0
10
134.900918853094
20
51.9518963200402
30
0
0
VERTEX
8
0
10
135.892837374073
20
52.0374021590329
30
0
0
VERTEX
8
0
10
136.884755895052
20
52.1261497011477
30
0
0
VERTEX
8
0
10
137.87667441603
20
52.215413509973
30
0
0
VERTEX
8
0
10
138.868592937009
20
52.2842201430628
30
0
0
VERTEX
8
0
10
139.860511457987
20
52.3595171900587
30
0
0
VERTEX
8
0
10
140.852429978966
20
52.3637248652601
30
0
0
VERTEX
8
0
10
141.844348499945
20
52.3439006877389
30
0
0
VERTEX
8
0
10
142.836267020923
20
52.3248088590932
30
0
0
VERTEX
8
0
10
143.828185541902
20
52.2939394592951
30
0
0
VERTEX
8
0
10
144.820104062881
20
52.2647592430082
30
0
0
VERTEX
8
0
10
145.812022583859
20
52.2363205582909
30
0
0
VERTEX
8
0
10
146.803941104838
20
52.227079948679
30
0
0
VERTEX
8
0
10
147.795859625817
20
52.2132716629469
30
0
0
VERTEX
8
0
10
148.787778146795
20
52.1951503737889
30
0
0
VERTEX
8
0
10
149.779696667774
20
52.1761863907831
30
0
0
VERTEX
8
0
10
150.771615188752
20
52.1580092599023
30
0
0
VERTEX
8
0
10
151.763533709731
20
52.1399680054829
30
0
0
VERTEX
8
0
10
152.75545223071
20
52.1227273902192
30
0
0
VERTEX
8
0
10
153.747370751688
20
52.1062317696511
30
0
0
VERTEX
8
0
10
154.739289272667
20
52.0983413387049
30
0
0
SEQEND
8
0
0
POLYLINE
8
0
62
2
70
0
10
0
20
0
30
0
0
VERTEX
8
0
10
18.846451898594
20
9.91768609971145
30
0
0
VERTEX
8
0
10
19.8383704195727
20
10.3275045599953
30
0
0
VERTEX
8
0
10
20.8302889405513
20
10.7373230202791
30
0
0
VERTEX
8
0
10
21.8222074615299
20
11.147141480563
30
0
0
VERTEX
8
0
10
22.8141259825086
20
11.569197615506
30
0
0
VERTEX
8
0
10
23.8060445034872
20
11.9872124449955
30
0
0
VERTEX
8
0
10
24.7979630244659
20
12.4086367652302
30
0
0
VERTEX
8
0
10
25.7898815454445
20
12.8307497793226
30
0
0
VERTEX
8
0
10
26.7818000664231
20
13.252862793415
30
0
0
VERTEX
8
0
10
27.7737185874018
20
13.6653791499797
30
0
0
VERTEX
8
0
10
28.7656371083804
20
14.0792957948664
30
0
0
VERTEX
8
0
10
29.757555629359
20
14.497390404112
30
0
0
VERTEX
8
0
10
30.7494741503377
20
14.9195034182044
30
0
0
VERTEX
8
0
10
31.7413926713163
20
15.3416164322967
30
0
0
VERTEX
8
0
10
32.7333111922949
20
15.7602516261911
30
0
0
VERTEX
8
0
10
33.7252297132736
20
16.1782664556806
30
0
0
VERTEX
8
0
10
34.7171482342522
20
16.5962812851701
30
0
0
VERTEX
8
0
10
35.7090667552308
20
16.9850961653603
30
0
0
VERTEX
8
0
10
36.7009852762095
20
17.3785218872328
30
0
0
VERTEX
8
0
10
37.6929037971881
20
17.7633183625763
30
0
0
VERTEX
8
0
10
38.6848223181667
20
18.1403513460374
30
0
0
VERTEX
8
0
10
39.6767408391454
20
18.5173843294986
30
0
0
VERTEX
8
0
10
40.668659360124
20
18.9015096122612
30
0
0
VERTEX
8
0
10
41.6605778811026
20
19.286738964928
30
0
0
VERTEX
8
0
10
42.6524964020813
20
19.6719683175948
30
0
0
VERTEX
8
0
10
43.6444149230599
20
20.0571976702617
30
0
0
VERTEX
8
0
10
44.6363334440385
20
20.4424270229285
30
0
0
VERTEX
8
0
10
45.6282519650172
20
20.8346358153362
30
0
0
VERTEX
8
0
10
46.6201704859958
20
21.2576850985758
30
0
0
VERTEX
8
0
10
47.6120890069745
20
21.7118570103566
30
0
0
VERTEX
8
0
10
48.6040075279531
20
22.1885798706457
30
0
0
VERTEX
8
0
10
49.5959260489317
20
22.6921025670757
30
0
0
VERTEX
8
0
10
50.5878445699104
20
23.2215353512188
30
0
0
VERTEX
8
0
10
51.579763090889
20
23.7533416272616
30
0
0
VERTEX
8
0
10
52.5716816118676
20
24.3113669848188
30
0
0
VERTEX
8
0
10
53.5636001328463
20
24.8676641874553
30
0
0
VERTEX
8
0
10
54.5555186538249
20
25.4285265141999
30
0
0
VERTEX
8
0
10
55.5474371748035
20
26.0110212957791
30
0
0
VERTEX
8
0
10
56.5393556957822
20
26.5995137724163
30
0
0
VERTEX
8
0
10
57.5312742167608
20
27.2055118848979
30
0
0
VERTEX
8
0
10
58.5231927377394
20
27.8293819220835
30
0
0
VERTEX
8
0
10
59.5151112587181
20
28.4682185785697
30
0
0
VERTEX
8
0
10
60.5070297796967
20
29.1223695437506
30
0
0
VERTEX
8
0
10
61.4989483006753
20
29.7907810935228
30
0
0
VERTEX
8
0
10
62.490866821654
20
30.4727731981594
30
0
0
VERTEX
8
0
10
63.4827853426326
20
31.1673944263546
30
0
0
VERTEX
8
0
10
64.4747038636112
20
31.887339340824
30
0
0
VERTEX
8
0
10
65.4666223845899
20
32.6195799379902
30
0
0
VERTEX
8
0
10
66.4585409055685
20
33.3621389199628
30
0
0
VERTEX
8
0
10
67.4504594265471
20
34.0561178177487
30
0
0
VERTEX
8
0
10
68.4423779475258
20
34.7696292238267
30
0
0
VERTEX
8
0
10
69.4342964685044
20
35.2992850298171
30
0
0
VERTEX
8
0
10
70.426214989483
20
35.7001158240183
30
0
0
VERTEX
8
0
10
71.4181335104617
20
36.1020811981868
30
0
0
VERTEX
8
0
10
72.4100520314403
20
36.4318371148424
30
0
0
VERTEX
8
0
10
73.4019705524189
20
36.7565905861785
30
0
0
VERTEX
8
0
10
74.3938890733976
20
37.0816568050702
30
0
0
VERTEX
8
0
10
75.3858075943762
20
37.3987980548274
30
0
0
VERTEX
8
0
10
76.3777261153549
20
37.7180227805974
30
0
0
VERTEX
8
0
10
77.3696446363335
20
38.0379865603423
30
0
0
VERTEX
8
0
10
78.3615631573121
20
38.3585040900773
30
0
0
VERTEX
8
0
10
79.3534816782908
20
38.6792922462377
30
0
0
VERTEX
8
0
10
80.3454001992694
20
39.0033830178458
30
0
0
VERTEX
8
0
10
81.337318720248
20
39.327883156812
30
0
0
VERTEX
8
0
10
82.3292372412267
20
39.6526218858776
30
0
0
VERTEX
8
0
10
83.3211557622053
20
39.969393866838
30
0
0
VERTEX
8
0
10
84.3130742831839
20
40.2882529267832
30
0
0
VERTEX
8
0
10
85.3049928041626
20
40.5932677851827
30
0
0
VERTEX
8
0
10
86.2969113251412
20
40.8900905602189
30
0
0
VERTEX
8
0
10
87.2888298461198
20
41.1871120057988
30
0
0
VERTEX
8
0
10
88.2807483670985
20
41.4089504928875
30
0
0
VERTEX
8
0
10
89.2726668880771
20
41.6281513851814
30
0
0
VERTEX
8
0
10
90.2645854090557
20
41.8474181405595
30
0
0
VERTEX
8
0
10
91.2565039300344
20
42.0503357379647
30
0
0
VERTEX
8
0
10
92.248422451013
20
42.2571786102628
30
0
0
VERTEX
8
0
10
93.2403409719916
20
42.4624172551975
30
0
0
VERTEX
8
0
10
94.2322594929703
20
42.6667975154432
30
0
0
VERTEX
8
0
10
95.2241780139489
20
42.871257259647
30
0
0
VERTEX
8
0
10
96.2160965349275
20
43.0880816371241
30
0
0
VERTEX
8
0
10
97.2080150559062
20
43.3051829098007
30
0
0
VERTEX
8
0
10
98.1999335768848
20
43.5223349861062
30
0
0
VERTEX
8
0
10
99.1918520978635
20
43.7224497173476
30
0
0
VERTEX
8
0
10
100.183770618842
20
43.9268123201238
30
0
0
VERTEX
8
0
10
101.175689139821
20
44.1356611697524
30
0
0
VERTEX
8
0
10
102.167607660799
20
44.3468414791197
30
0
0
VERTEX
8
0
10
103.159526181778
20
44.5580800755028
30
0
0
VERTEX
8
0
10
104.151444702757
20
44.8284794958509
30
0
0
VERTEX
8
0
10
105.143363223735
20
45.0994977039527
30
0
0
VERTEX
8
0
10
106.135281744714
20
45.3710473546456
30
0
0
VERTEX
8
0
10
107.127200265693
20
45.6881105242655
30
0
0
VERTEX
8
0
10
108.119118786671
20
45.9949852591404
30
0
0
VERTEX
8
0
10
109.11103730765
20
46.3088792267515
30
0
0
VERTEX
8
0
10
110.102955828628
20
46.6266375557935
30
0
0
VERTEX
8
0
10
111.094874349607
20
46.9453808450043
30
0
0
VERTEX
8
0
10
112.086792870586
20
47.2679257634016
30
0
0
VERTEX
8
0
10
113.078711391564
20
47.5914003419963
30
0
0
VERTEX
8
0
10
114.070629912543
20
47.9158275777891
30
0
0
VERTEX
8
0
10
115.062548433522
20
48.2375247862994
30
0
0
VERTEX
8
0
10
116.0544669545
20
48.5610077117213
30
0
0
VERTEX
8
0
10
117.046385475479
20
48.8436272727636
30
0
0
VERTEX
8
0
10
118.038303996458
20
49.1082996138025
30
0
0
VERTEX
8
0
10
119.030222517436
20
49.373417933343
30
0
0
VERTEX
8
0
10
120.022141038415
20
49.790808927193
30
0
0
VERTEX
8
0
10
121.014059559393
20
50.2055287455427
30
0
0
VERTEX
8
0
10
122.005978080372
20
50.6222141529651
30
0
0
VERTEX
8
0
10
122.997896601351
20
50.6074518588622
30
0
0
VERTEX
8
0
10
123.989815122329
20
50.7097279765469
30
0
0
VERTEX
8
0
10
124.981733643308
20
50.8026620274273
30
0
0
VERTEX
8
0
10
125.973652164287
20
50.8921819089597
30
0
0
VERTEX
8
0
10
126.965570685265
20
50.9822093963047
30
0
0
VERTEX
8
0
10
127.957489206244
20
51.0877156867782
30
0
0
VERTEX
8
0
10
128.949407727223
20
51.1929723959395
30
0
0
VERTEX
8
0
10
129.941326248201
20
51.2986735001199
30
0
0
VERTEX
8
0
10
130.93324476918
20
51.435677341231
30
0
0
VERTEX
8
0
10
131.925163290158
20
51.5643132210762
30
0
0
VERTEX
8
0
10
132.917081811137
20
51.6932297376948
30
0
0
VERTEX
8
0
10
133.909000332116
20
51.8224247967011
30
0
0
VERTEX
8
0
10
134.900918853094
20
51.9518963200402
30
0
0
VERTEX
8
0
10
135.892837374073
20
52.0374021590329
30
0
0
VERTEX
8
0
10
136.884755895052
20
52.1261497011477
30
0
0
VERTEX
8
0
10
137.87667441603
20
52.215413509973
30
0
0
VERTEX
8
0
10
138.868592937009
20
52.2842201430628
30
0
0
VERTEX
8
0
10
139.860511457987
20
52.3595171900587
30
0
0
VERTEX
8
0
10
140.852429978966
20
52.3637248652601
30
0
0
VERTEX
8
0
10
141.844348499945
20
52.3439006877389
30
0
0
VERTEX
8
0
10
142.836267020923
20
52.3248088590932
30
0
0
VERTEX
8
0
10
143.828185541902
20
52.2939394592951
30
0
0
VERTEX
8
0
10
144.820104062881
20
52.2647592430082
30
0
0
VERTEX
8
0
10
145.812022583859
20
52.2363205582909
30
0
0
VERTEX
8
0
10
146.803941104838
20
52.227079948679
30
0
0
VERTEX
8
0
10
147.795859625817
20
52.2132716629469
30
0
0
VERTEX
8
0
10
148.787778146795
20
52.1951503737889
30
0
0
VERTEX
8
0
10
149.779696667774
20
52.1761863907831
30
0
0
VERTEX
8
0
10
150.771615188752
20
52.1580092599023
30
0
0
VERTEX
8
0
10
151.763533709731
20
52.1399680054829
30
0
0
VERTEX
8
0
10
152.75545223071
20
52.1227273902192
30
0
0
VERTEX
8
0
10
153.747370751688
20
52.106231769651
30
0
0
VERTEX
8
0
10
154.739289272667
20
52.0983413387049
30
0
0
SEQEND
8
0
0
POLYLINE
8
0
62
3
70
0
10
0
20
0
30
0
0
VERTEX
8
0
10
18.846451898594
20
18.0995152976462
30
0
0
VERTEX
8
0
10
19.8383704195727
20
18.9686921073774
30
0
0
VERTEX
8
0
10
20.8302889405513
20
19.8325936282174
30
0
0
VERTEX
8
0
10
21.8222074615299
20
20.691327406581
30
0
0
VERTEX
8
0
10
22.8141259825086
20
21.5449904726219
30
0
0
VERTEX
8
0
10
23.8060445034872
20
22.3936705704975
30
0
0
VERTEX
8
0
10
24.7979630244659
20
23.2374472167873
30
0
0
VERTEX
8
0
10
25.7898815454445
20
24.076392618793
30
0
0
VERTEX
8
0
10
26.7818000664231
20
24.9105724752731
30
0
0
VERTEX
8
0
10
27.7737185874018
20
25.7400466767955
30
0
0
VERTEX
8
0
10
28.7656371083804
20
26.5648699196366
30
0
0
VERTEX
8
0
10
29.757555629359
20
27.3850922451129
30
0
0
VERTEX
8
0
10
30.7494741503377
20
28.2007595142177
30
0
0
VERTEX
8
0
10
31.7413926713163
20
29.0119138263592
30
0
0
VERTEX
8
0
10
32.7333111922949
20
29.8185938897185
30
0
0
VERTEX
8
0
10
33.7252297132736
20
30.6208353496023
30
0
0
VERTEX
8
0
10
34.7171482342522
20
31.4186710806943
30
0
0
VERTEX
8
0
10
35.7090667552308
20
32.2121314475573
30
0
0
VERTEX
8
0
10
36.7009852762095
20
33.0012445382703
30
0
0
VERTEX
8
0
10
37.6929037971881
20
33.7860363739754
30
0
0
VERTEX
8
0
10
38.6848223181667
20
34.5665310981618
30
0
0
VERTEX
8
0
10
39.6767408391454
20
35.3427511478644
30
0
0
VERTEX
8
0
10
40.668659360124
20
36.1147174092395
30
0
0
VERTEX
8
0
10
41.6605778811026
20
36.8824493596663
30
0
0
VERTEX
8
0
10
42.6524964020813
20
37.6459651979123
30
0
0
VERTEX
8
0
10
43.6444149230599
20
38.4052819637458
30
0
0
VERTEX
8
0
10
44.6363334440385
20
39.1604156489965
30
0
0
VERTEX
8
0
10
45.6282519650172
20
39.911381300324
30
0
0
VERTEX
8
0
10
46.6201704859958
20
40.6581931154171
30
0
0
VERTEX
8
0
10
47.6120890069745
20
41.4008645333787
30
0
0
VERTEX
8
0
10
48.6040075279531
20
42.1394083200492
30
0
0
VERTEX
8
0
10
49.5959260489317
20
42.8738366491683
30
0
0
VERTEX
8
0
10
50.5878445699104
20
43.6041611800702
30
0
0
VERTEX
8
0
10
51.579763090889
20
44.3303931325665
30
0
0
VERTEX
8
0
10
52.5716816118676
20
45.0525433597222
30
0
0
VERTEX
8
0
10
53.5636001328463
20
45.7706224190354
30
0
0
VERTEX
8
0
10
54.5555186538249
20
46.4846406428991
30
0
0
VERTEX
8
0
10
55.5474371748035
20
47.1946082085744
30
0
0
VERTEX
8
0
10
56.5393556957822
20
47.9005352087605
30
0
0
VERTEX
8
0
10
57.5312742167608
20
48.6024317230423
30
0
0
VERTEX
8
0
10
58.5231927377394
20
49.3003078911971
30
0
0
VERTEX
8
0
10
59.5151112587181
20
49.9941739889966
30
0
0
VERTEX
8
0
10
60.5070297796967
20
50.6840405073597
30
0
0
VERTEX
8
0
10
61.4989483006753
20
51.3699182358641
30
0
0
VERTEX
8
0
10
62.490866821654
20
52.0518183516358
30
0
0
VERTEX
8
0
10
63.4827853426326
20
52.7297525148259
30
0
0
VERTEX
8
0
10
64.4747038636112
20
53.403732972196
30
0
0
VERTEX
8
0
10
65.4666223845899
20
54.0737726703664
30
0
0
VERTEX
8
0
10
66.4585409055685
20
54.7398853807967
30
0
0
VERTEX
8
0
10
67.4504594265471
20
55.4020858387361
30
0
0
VERTEX
8
0
10
68.4423779475258
20
56.0603898993133
30
0
0
VERTEX
8
0
10
69.4342964685044
20
56.7148147137228
30
0
0
VERTEX
8
0
10
70.426214989483
20
57.3653789303274
30
0
0
VERTEX
8
0
10
71.4181335104617
20
58.0121029254803
30
0
0
VERTEX
8
0
10
72.4100520314403
20
58.6550090710479
30
0
0
VERTEX
8
0
10
73.4019705524189
20
59.2941220466152
30
0
0
VERTEX
8
0
10
74.3938890733976
20
59.9294692072439
30
0
0
VERTEX
8
0
10
75.3858075943762
20
60.5610810202023
30
0
0
VERTEX
8
0
10
76.3777261153549
20
61.1889915885626
30
0
0
VERTEX
8
0
10
77.3696446363335
20
61.8132392849684
30
0
0
VERTEX
8
0
10
78.3615631573121
20
62.4338675268829
30
0
0
VERTEX
8
0
10
79.3534816782908
20
63.0509257356472
30
0
0
VERTEX
8
0
10
80.3454001992694
20
63.6644705376848
30
0
0
VERTEX
8
0
10
81.337318720248
20
64.2745672898552
30
0
0
VERTEX
8
0
10
82.3292372412267
20
64.8812920457508
30
0
0
VERTEX
8
0
10
83.3211557622053
20
65.4847341350179
30
0
0
VERTEX
8
0
10
84.3130742831839
20
66.0849996127323
30
0
0
VERTEX
8
0
10
85.3049928041626
20
66.6822159784293
30
0
0
VERTEX
8
0
10
86.2969113251412
20
67.2765388034536
30
0
0
VERTEX
8
0
10
87.2888298461198
20
67.8681613339807
30
0
0
VERTEX
8
0
10
88.2807483670985
20
68.4573289396732
30
0
0
VERTEX
8
0
10
89.2726668880771
20
69.0443618873409
30
0
0
VERTEX
8
0
10
90.2645854090557
20
69.6296934161748
30
0
0
VERTEX
8
0
10
91.2565039300344
20
70.2139385270893
30
0
0
VERTEX
8
0
10
92.248422451013
20
70.7980323141824
30
0
0
VERTEX
8
0
10
93.2403409719916
20
71.3835553627446
30
0
0
VERTEX
8
0
10
94.2322594929703
20
71.973675906234
30
0
0
VERTEX
8
0
10
95.2241780139489
20
72.5746048174703
30
0
0
VERTEX
8
0
10
96.2160965349275
20
73.1733678602905
30
0
0
VERTEX
8
0
10
97.2080150559062
20
73.7473826864105
30
0
0
VERTEX
8
0
10
98.1999335768848
20
74.3026068530503
30
0
0
VERTEX
8
0
10
99.1918520978635
20
74.8434859695114
30
0
0
VERTEX
8
0
10
100.183770618842
20
75.3722023566252
30
0
0
VERTEX
8
0
10
101.175689139821
20
75.8900497310256
30
0
0
VERTEX
8
0
10
102.167607660799
20
76.3978951925416
30
0
0
VERTEX
8
0
10
103.159526181778
20
76.8963668904447
30
0
0
VERTEX
8
0
10
104.151444702757
20
77.3859449088456
30
0
0
VERTEX
8
0
10
105.143363223735
20
77.8670108549901
30
0
0
VERTEX
8
0
10
106.135281744714
20
78.3398773114167
30
0
0
VERTEX
8
0
10
107.127200265693
20
78.8048064795111
30
0
0
VERTEX
8
0
10
108.119118786671
20
79.2620225833294
30
0
0
VERTEX
8
0
10
109.11103730765
20
79.71172045913
30
0
0
VERTEX
8
0
10
110.102955828628
20
80.1540717029337
30
0
0
VERTEX
8
0
10
111.094874349607
20
80.5892291935491
30
0
0
VERTEX
8
0
10
112.086792870586
20
81.0173304997182
30
0
0
VERTEX
8
0
10
113.078711391564
20
81.4385004992375
30
0
0
VERTEX
8
0
10
114.070629912543
20
81.8528534283104
30
0
0
VERTEX
8
0
10
115.062548433522
20
82.2604945102417
30
0
0
VERTEX
8
0
10
116.0544669545
20
82.6615212678657
30
0
0
VERTEX
8
0
10
117.046385475479
20
83.056024594342
30
0
0
VERTEX
8
0
10
118.038303996458
20
83.444089636524
30
0
0
VERTEX
8
0
10
119.030222517436
20
83.8257965312067
30
0
0
VERTEX
8
0
10
120.022141038415
20
84.2012210244021
30
0
0
VERTEX
8
0
10
121.014059559393
20
84.5704349966446
30
0
0
VERTEX
8
0
10
122.005978080372
20
84.9335069121026
30
0
0
VERTEX
8
0
10
122.997896601351
20
85.2905022053457
30
0
0
VERTEX
8
0
10
123.989815122329
20
85.6414836166495
30
0
0
VERTEX
8
0
10
124.981733643308
20
85.9865114845126
30
0
0
VERTEX
8
0
10
125.973652164287
20
86.3256440024342
30
0
0
VERTEX
8
0
10
126.965570685265
20
86.658937445513
30
0
0
VERTEX
8
0
10
127.957489206244
20
86.9864463715192
30
0
0
VERTEX
8
0
10
128.949407727223
20
87.3082238002065
30
0
0
VERTEX
8
0
10
129.941326248201
20
87.6243213740576
30
0
0
VERTEX
8
0
10
130.93324476918
20
87.9347895029549
30
0
0
VERTEX
8
0
10
131.925163290158
20
88.2396774950882
30
0
0
VERTEX
8
0
10
132.917081811137
20
88.5390336758611
30
0
0
VERTEX
8
0
10
133.909000332116
20
88.8329054964182
30
0
0
VERTEX
8
0
10
134.900918853094
20
89.1213396330158
30
0
0
VERTEX
8
0
10
135.892837374073
20
89.4043820785362
30
0
0
VERTEX
8
0
10
136.884755895052
20
89.6820782269993
30
0
0
VERTEX
8
0
10
137.87667441603
20
89.954472951932
30
0
0
VERTEX
8
0
10
138.868592937009
20
90.2216106794112
30
0
0
VERTEX
8
0
10
139.860511457987
20
90.4835354563285
30
0
0
VERTEX
8
0
10
140.852429978966
20
90.7402910144904
30
0
0
VERTEX
8
0
10
141.844348499945
20
90.9919208310497
30
0
0
VERTEX
8
0
10
142.836267020923
20
91.2384681856995
30
0
0
VERTEX
8
0
10
143.828185541902
20
91.4799762149945
30
0
0
VERTEX
8
0
10
144.820104062881
20
91.7164879642175
30
0
0
VERTEX
8
0
10
145.812022583859
20
91.9480464370273
30
0
0
VERTEX
8
0
10
146.803941104838
20
92.1746946432299
30
0
0
VERTEX
8
0
10
147.795859625817
20
92.3964756449066
30
0
0
VERTEX
8
0
10
148.787778146795
20
92.6134326011489
30
0
0
VERTEX
8
0
10
149.779696667774
20
92.8256088116183
30
0
0
VERTEX
8
0
10
150.771615188752
20
93.0330477591203
30
0
0
VERTEX
8
0
10
151.763533709731
20
93.2357931514197
30
0
0
VERTEX
8
0
10
152.75545223071
20
93.4338889624441
30
0
0
VERTEX
8
0
10
153.747370751688
20
93.6273794730866
30
0
0
VERTEX
8
0
10
154.739289272667
20
93.8163093117483
30
0
0
SEQEND
8
0
0
POLYLINE
8
0
62
4
70
0
10
0
20
0
30
0
0
VERTEX
8
0
10
18.846451898594
20
14.8712681140189
30
0
0
VERTEX
8
0
10
19.8383704195727
20
15.5486176417764
30
0
0
VERTEX
8
0
10
20.8302889405513
20
16.2230864270744
30
0
0
VERTEX
8
0
10
21.8222074615299
20
16.8946312852235
30
0
0
VERTEX
8
0
10
22.8141259825086
20
17.5712725593055
30
0
0
VERTEX
8
0
10
23.8060445034872
20
18.2422381778816
30
0
0
VERTEX
8
0
10
24.7979630244659
20
18.9124143934319
30
0
0
VERTEX
8
0
10
25.7898815454445
20
19.5799962891151
30
0
0
VERTEX
8
0
10
26.7818000664231
20
20.2445231351647
30
0
0
VERTEX
8
0
10
27.7737185874018
20
20.8997131466536
30
0
0
VERTEX
8
0
10
28.7656371083804
20
21.5527634970075
30
0
0
VERTEX
8
0
10
29.757555629359
20
22.2054802317607
30
0
0
VERTEX
8
0
10
30.7494741503377
20
22.8577530055499
30
0
0
VERTEX
8
0
10
31.7413926713163
20
23.5069582025856
30
0
0
VERTEX
8
0
10
32.7333111922949
20
24.1508284311149
30
0
0
VERTEX
8
0
10
33.7252297132736
20
24.7912313955339
30
0
0
VERTEX
8
0
10
34.7171482342522
20
25.4285751493536
30
0
0
VERTEX
8
0
10
35.7090667552308
20
26.0438108602502
30
0
0
VERTEX
8
0
10
36.7009852762095
20
26.6590065601943
30
0
0
VERTEX
8
0
10
37.6929037971881
20
27.2655304429431
30
0
0
VERTEX
8
0
10
38.6848223181667
20
27.8639550081019
30
0
0
VERTEX
8
0
10
39.6767408391454
20
28.459339730429
30
0
0
VERTEX
8
0
10
40.668659360124
20
29.0562969072269
30
0
0
VERTEX
8
0
10
41.6605778811026
20
29.6509297740139
30
0
0
VERTEX
8
0
10
42.6524964020813
20
30.2425229466097
30
0
0
VERTEX
8
0
10
43.6444149230599
20
30.8310801609885
30
0
0
VERTEX
8
0
10
44.6363334440385
20
31.4166058426491
30
0
0
VERTEX
8
0
10
45.6282519650172
20
37.6820895740805
30
0
0
VERTEX
8
0
10
46.6201704859958
20
38.4330062265877
30
0
0
VERTEX
8
0
10
47.6120890069745
20
39.1987948617228
30
0
0
VERTEX
8
0
10
48.6040075279531
20
39.9747628451489
30
0
0
VERTEX
8
0
10
49.5959260489317
20
40.7633476668276
30
0
0
VERTEX
8
0
10
50.5878445699104
20
41.5641732851369
30
0
0
VERTEX
8
0
10
51.579763090889
20
42.3641833911507
30
0
0
VERTEX
8
0
10
52.5716816118676
20
43.1768035295571
30
0
0
VERTEX
8
0
10
53.5636001328463
20
43.9863995043703
30
0
0
VERTEX
8
0
10
54.5555186538249
20
44.7965182120211
30
0
0
VERTEX
8
0
10
55.5474371748035
20
45.616907555036
30
0
0
VERTEX
8
0
10
56.5393556957822
20
46.4387599788955
30
0
0
VERTEX
8
0
10
57.5312742167608
20
47.2687278204309
30
0
0
VERTEX
8
0
10
58.5231927377394
20
48.1071488720567
30
0
0
VERTEX
8
0
10
59.5151112587181
20
48.9524690045235
30
0
0
VERTEX
8
0
10
60.5070297796967
20
49.8050048193659
30
0
0
VERTEX
8
0
10
61.4989483006753
20
50.6642563855476
30
0
0
VERTEX
8
0
10
62.490866821654
20
51.5299333101268
30
0
0
VERTEX
8
0
10
63.4827853426326
20
52.4015762513726
30
0
0
VERTEX
8
0
10
64.4747038636112
20
53.2868786229153
30
0
0
VERTEX
8
0
10
65.4666223845899
20
54.178234074628
30
0
0
VERTEX
8
0
10
66.4585409055685
20
55.0745418590457
30
0
0
VERTEX
8
0
10
67.4504594265471
20
55.9400003553579
30
0
0
VERTEX
8
0
10
68.4423779475258
20
56.8158002624012
30
0
0
VERTEX
8
0
10
69.4342964685044
20
57.5771846328952
30
0
0
VERTEX
8
0
10
70.426214989483
20
58.2572379758122
30
0
0
VERTEX
8
0
10
71.4181335104617
20
58.9355751591216
30
0
0
VERTEX
8
0
10
72.4100520314403
20
59.5673012813984
30
0
0
VERTEX
8
0
10
73.4019705524189
20
60.1936237233987
30
0
0
VERTEX
8
0
10
74.3938890733976
20
60.8177818899725
30
0
0
VERTEX
8
0
10
75.3858075943762
20
61.4347447627537
30
0
0
VERTEX
8
0
10
76.3777261153549
20
62.0506030045022
30
0
0
VERTEX
8
0
10
77.3696446363335
20
62.6645204298615
30
0
0
VERTEX
8
0
10
78.3615631573121
20
63.276369042361
30
0
0
VERTEX
8
0
10
79.3534816782908
20
63.885962963956
30
0
0
VERTEX
8
0
10
80.3454001992694
20
64.4951225922704
30
0
0
VERTEX
8
0
10
81.337318720248
20
65.102081584847
30
0
0
VERTEX
8
0
10
82.3292372412267
20
65.706725002761
30
0
0
VERTEX
8
0
10
83.3211557622053
20
66.3040951848107
30
0
0
VERTEX
8
0
10
84.3130742831839
20
66.9002510740216
30
0
0
VERTEX
8
0
10
85.3049928041626
20
67.4855946540101
30
0
0
VERTEX
8
0
10
86.2969113251412
20
68.0635394644319
30
0
0
VERTEX
8
0
10
87.2888298461198
20
68.6391269713957
30
0
0
VERTEX
8
0
10
88.2807483670985
20
69.1671900858383
30
0
0
VERTEX
8
0
10
89.2726668880771
20
69.6913281435588
30
0
0
VERTEX
8
0
10
90.2645854090557
20
70.2131447072128
30
0
0
VERTEX
8
0
10
91.2565039300344
20
70.72286056403
30
0
0
VERTEX
8
0
10
92.248422451013
20
71.2325522337183
30
0
0
VERTEX
8
0
10
93.2403409719916
20
71.7389129711207
30
0
0
VERTEX
8
0
10
94.2322594929703
20
72.2423711028522
30
0
0
VERTEX
8
0
10
95.2241780139489
20
72.7434159130606
30
0
0
VERTEX
8
0
10
96.2160965349275
20
73.2487000030817
30
0
0
VERTEX
8
0
10
97.2080150559062
20
73.750326917027
30
0
0
VERTEX
8
0
10
98.1999335768848
20
74.2480541913786
30
0
0
VERTEX
8
0
10
99.1918520978635
20
74.7318944967675
30
0
0
VERTEX
8
0
10
100.183770618842
20
75.2143474268285
30
0
0
VERTEX
8
0
10
101.175689139821
20
75.6955530351612
30
0
0
VERTEX
8
0
10
102.167607660799
20
76.1742589945246
30
0
0
VERTEX
8
0
10
103.159526181778
20
76.6491530188357
30
0
0
VERTEX
8
0
10
104.151444702757
20
77.1545753868714
30
0
0
VERTEX
8
0
10
105.143363223735
20
77.6564807498146
30
0
0
VERTEX
8
0
10
106.135281744714
20
78.1548400210371
30
0
0
VERTEX
8
0
10
107.127200265693
20
78.6757881276717
30
0
0
VERTEX
8
0
10
108.119118786671
20
79.1870092815794
30
0
0
VERTEX
8
0
10
109.11103730765
20
79.6985218938653
30
0
0
VERTEX
8
0
10
110.102955828628
20
80.2085217575057
30
0
0
VERTEX
8
0
10
111.094874349607
20
80.7153627721061
30
0
0
VERTEX
8
0
10
112.086792870586
20
81.2207105037734
30
0
0
VERTEX
8
0
10
113.078711391564
20
81.722922098411
30
0
0
VERTEX
8
0
10
114.070629912543
20
82.2220376437595
30
0
0
VERTEX
8
0
10
115.062548433522
20
82.7159362238308
30
0
0
VERTEX
8
0
10
116.0544669545
20
83.2072752223359
30
0
0
VERTEX
8
0
10
117.046385475479
20
83.6711785755549
30
0
0
VERTEX
8
0
10
118.038303996458
20
84.121027491374
30
0
0
VERTEX
8
0
10
119.030222517436
20
84.5675794022457
30
0
0
VERTEX
8
0
10
120.022141038415
20
85.0995989273564
30
0
0
VERTEX
8
0
10
121.014059559393
20
85.6267458112902
30
0
0
VERTEX
8
0
10
122.005978080372
20
86.1517633729025
30
0
0
VERTEX
8
0
10
122.997896601351
20
86.4201699685226
30
0
0
VERTEX
8
0
10
123.989815122329
20
86.7540045117904
30
0
0
VERTEX
8
0
10
124.981733643308
20
87.079106619066
30
0
0
VERTEX
8
0
10
125.973652164287
20
87.3989679267703
30
0
0
VERTEX
8
0
10
126.965570685265
20
87.7158880564453
30
0
0
VERTEX
8
0
10
127.957489206244
20
88.0385615334578
30
0
0
VERTEX
8
0
10
128.949407727223
20
88.3578425925747
30
0
0
VERTEX
8
0
10
129.941326248201
20
88.6741449910047
30
0
0
VERTEX
8
0
10
130.93324476918
20
89.0053089420249
30
0
0
VERTEX
8
0
10
131.925163290158
20
89.3283862324095
30
0
0
VERTEX
8
0
10
132.917081811137
20
89.6483945796659
30
0
0
VERTEX
8
0
10
133.909000332116
20
89.9653473594033
30
0
0
VERTEX
8
0
10
134.900918853094
20
90.2792583842645
30
0
0
VERTEX
8
0
10
135.892837374073
20
90.5647148400597
30
0
0
VERTEX
8
0
10
136.884755895052
20
90.8489222822422
30
0
0
VERTEX
8
0
10
137.87667441603
20
91.1303248162039
30
0
0
VERTEX
8
0
10
138.868592937009
20
91.3969357992947
30
0
0
VERTEX
8
0
10
139.860511457987
20
91.6642148228516
30
0
0
VERTEX
8
0
10
140.852429978966
20
91.8879273659733
30
0
0
VERTEX
8
0
10
141.844348499945
20
92.0951075159322
30
0
0
VERTEX
8
0
10
142.836267020923
20
92.299908028267
30
0
0
VERTEX
8
0
10
143.828185541902
20
92.4952612539145
30
0
0
VERTEX
8
0
10
144.820104062881
20
92.6888228011098
30
0
0
VERTEX
8
0
10
145.812022583859
20
92.8800614632428
30
0
0
VERTEX
8
0
10
146.803941104838
20
93.0793387210691
30
0
0
VERTEX
8
0
10
147.795859625817
20
93.2732854898048
30
0
0
VERTEX
8
0
10
148.787778146795
20
93.4620741175513
30
0
0
VERTEX
8
0
10
149.779696667774
20
93.6476675836362
30
0
0
VERTEX
8
0
10
150.771615188752
20
93.8309879029239
30
0
0
VERTEX
8
0
10
151.763533709731
20
94.0116845167101
30
0
0
VERTEX
8
0
10
152.75545223071
20
94.1901388522172
30
0
0
VERTEX
8
0
10
153.747370751688
20
94.3663319064659
30
0
0
VERTEX
8
0
10
154.739289272667
20
94.5446073616152
30
0
0
SEQEND
8
0
0
POLYLINE
8
0
62
2
70
0
10
0
20
0
30
0
0
VERTEX
8
0
10
18.846451898594
20
11.8285277728796
30
0
0
VERTEX
8
0
10
19.8383704195727
20
12.3045229648479
30
0
0
VERTEX
8
0
10
20.8302889405513
20
12.7719926650402
30
0
0
VERTEX
8
0
10
21.8222074615299
20
13.2312270883909
30
0
0
VERTEX
8
0
10
22.8141259825086
20
13.6824914829055
30
0
0
VERTEX
8
0
10
23.8060445034872
20
14.1260292091557
30
0
0
VERTEX
8
0
10
24.7979630244659
20
14.5620643467106
30
0
0
VERTEX
8
0
10
25.7898815454445
20
14.990803907919
30
0
0
VERTEX
8
0
10
26.7818000664231
20
15.4124397267802
30
0
0
VERTEX
8
0
10
27.7737185874018
20
15.8271500785852
30
0
0
VERTEX
8
0
10
28.7656371083804
20
16.2351010757456
30
0
0
VERTEX
8
0
10
29.757555629359
20
16.6364478769282
30
0
0
VERTEX
8
0
10
30.7494741503377
20
17.0313357394891
30
0
0
VERTEX
8
0
10
31.7413926713163
20
17.4199009397949
30
0
0
VERTEX
8
0
10
32.7333111922949
20
17.8022715817596
30
0
0
VERTEX
8
0
10
33.7252297132736
20
18.1785683098128
30
0
0
VERTEX
8
0
10
34.7171482342522
20
18.5489049404495
30
0
0
VERTEX
8
0
10
35.7090667552308
20
18.9133890233081
30
0
0
VERTEX
8
0
10
36.7009852762095
20
19.272122341977
30
0
0
VERTEX
8
0
10
37.6929037971881
20
19.625201361734
30
0
0
VERTEX
8
0
10
38.6848223181667
20
19.9727176317776
30
0
0
VERTEX
8
0
10
39.6767408391454
20
20.3147581472223
30
0
0
VERTEX
8
0
10
40.668659360124
20
20.651405675854
30
0
0
VERTEX
8
0
10
41.6605778811026
20
20.9827390541033
30
0
0
VERTEX
8
0
10
42.6524964020813
20
21.3088334554943
30
0
0
VERTEX
8
0
10
43.6444149230599
20
21.6297606347062
30
0
0
VERTEX
8
0
10
44.6363334440385
20
21.9455891506038
30
0
0
VERTEX
8
0
10
45.6282519650172
20
22.2563845693853
30
0
0
VERTEX
8
0
10
46.6201704859958
20
22.5622096509897
30
0
0
VERTEX
8
0
10
47.6120890069745
20
22.863124520054
30
0
0
VERTEX
8
0
10
48.6040075279531
20
23.1591868229428
30
0
0
VERTEX
8
0
10
49.5959260489317
20
23.4504518725098
30
0
0
VERTEX
8
0
10
50.5878445699104
20
23.7369727814612
30
0
0
VERTEX
8
0
10
51.579763090889
20
24.0188005857437
30
0
0
VERTEX
8
0
10
52.5716816118676
20
24.2959843586787
30
0
0
VERTEX
8
0
10
53.5636001328463
20
24.568571316695
30
0
0
VERTEX
8
0
10
54.5555186538249
20
24.8366069176457
30
0
0
VERTEX
8
0
10
55.5474371748035
20
25.1001349520164
30
0
0
VERTEX
8
0
10
56.5393556957822
20
25.3591976280437
30
0
0
VERTEX
8
0
10
57.5312742167608
20
25.6138356508794
30
0
0
VERTEX
8
0
10
58.5231927377394
20
25.864088296628
30
0
0
VERTEX
8
0
10
59.5151112587181
20
26.1099934814683
30
0
0
VERTEX
8
0
10
60.5070297796967
20
26.3515878263774
30
0
0
VERTEX
8
0
10
61.4989483006753
20
26.5889067177508
30
0
0
VERTEX
8
0
10
62.490866821654
20
26.821984364282
30
0
0
VERTEX
8
0
10
63.4827853426326
20
27.0508538503478
30
0
0
VERTEX
8
0
10
64.4747038636112
20
27.2755471862629
30
0
0
VERTEX
8
0
10
65.4666223845899
20
27.496095355505
30
0
0
VERTEX
8
0
10
66.4585409055685
20
27.712528359248
30
0
0
VERTEX
8
0
10
67.4504594265471
20
27.9248752583142
30
0
0
VERTEX
8
0
10
68.4423779475258
20
28.1331642129462
30
0
0
VERTEX
8
0
10
69.4342964685044
20
28.3374225201191
30
0
0
VERTEX
8
0
10
70.426214989483
20
28.5376766490928
30
0
0
VERTEX
8
0
10
71.4181335104617
20
28.7339522749277
30
0
0
VERTEX
8
0
10
72.4100520314403
20
28.9262743103328
30
0
0
VERTEX
8
0
10
73.4019705524189
20
29.1146669358454
30
0
0
VERTEX
8
0
10
74.3938890733976
20
29.2991536284789
30
0
0
VERTEX
8
0
10
75.3858075943762
20
29.4797571890149
30
0
0
VERTEX
8
0
10
76.3777261153549
20
29.656499767919
30
0
0
VERTEX
8
0
10
77.3696446363335
20
29.829402890042
30
0
0
VERTEX
8
0
10
78.3615631573121
20
29.9984874781943
30
0
0
VERTEX
8
0
10
79.3534816782908
20
30.1637738756031
30
0
0
VERTEX
8
0
10
80.3454001992694
20
30.325281867373
30
0
0
VERTEX
8
0
10
81.337318720248
20
30.4830307010869
30
0
0
VERTEX
8
0
10
82.3292372412267
20
30.6370391063824
30
0
0
VERTEX
8
0
10
83.3211557622053
20
30.7873253138647
30
0
0
VERTEX
8
0
10
84.3130742831839
20
30.9339070731056
30
0
0
VERTEX
8
0
10
85.3049928041626
20
31.0768016700736
30
0
0
VERTEX
8
0
10
86.2969113251412
20
31.2160259437362
30
0
0
VERTEX
8
0
10
87.2888298461198
20
31.3515963022156
30
0
0
VERTEX
8
0
10
88.2807483670985
20
31.483528738185
30
0
0
VERTEX
8
0
10
89.2726668880771
20
31.6118388438633
30
0
0
VERTEX
8
0
10
90.2645854090557
20
31.7365418253891
30
0
0
VERTEX
8
0
10
91.2565039300344
20
31.8576525168149
30
0
0
VERTEX
8
0
10
92.248422451013
20
31.9751853936153
30
0
0
VERTEX
8
0
10
93.2403409719916
20
32.0891545857962
30
0
0
VERTEX
8
0
10
94.2322594929703
20
32.1995738906393
30
0
0
VERTEX
8
0
10
95.2241780139489
20
32.3064567850909
30
0
0
VERTEX
8
0
10
96.2160965349275
20
32.4098164378439
30
0
0
VERTEX
8
0
10
97.2080150559062
20
32.5096657211134
30
0
0
VERTEX
8
0
10
98.1999335768848
20
32.6060172221599
30
0
0
VERTEX
8
0
10
99.1918520978635
20
32.6988832545933
30
0
0
VERTEX
8
0
10
100.183770618842
20
32.7882758694024
30
0
0
VERTEX
8
0
10
101.175689139821
20
32.8742068658594
30
0
0
VERTEX
8
0
10
102.167607660799
20
32.9566878022152
30
0
0
VERTEX
8
0
10
103.159526181778
20
33.0357300062911
30
0
0
VERTEX
8
0
10
104.151444702757
20
33.1113445858798
30
0
0
VERTEX
8
0
10
105.143363223735
20
33.1835424391433
30
0
0
VERTEX
8
0
10
106.135281744714
20
33.2523342648369
30
0
0
VERTEX
8
0
10
107.127200265693
20
33.3177305725521
30
0
0
VERTEX
8
0
10
108.119118786671
20
33.379741692896
30
0
0
VERTEX
8
0
10
109.11103730765
20
33.438377787652
30
0
0
VERTEX
8
0
10
110.102955828628
20
33.4936488599806
30
0
0
VERTEX
8
0
10
111.094874349607
20
33.5455647646378
30
0
0
VERTEX
8
0
10
112.086792870586
20
33.5941352182471
30
0
0
VERTEX
8
0
10
113.078711391564
20
33.6393698096683
30
0
0
VERTEX
8
0
10
114.070629912543
20
33.6812780104739
30
0
0
VERTEX
8
0
10
115.062548433522
20
33.7198691855378
30
0
0
VERTEX
8
0
10
116.0544669545
20
33.7551526037886
30
0
0
VERTEX
8
0
10
117.046385475479
20
33.7871374491729
30
0
0
VERTEX
8
0
10
118.038303996458
20
33.8158328317803
30
0
0
VERTEX
8
0
10
119.030222517436
20
33.8412477992425
30
0
0
VERTEX
8
0
10
120.022141038415
20
33.8633913483914
30
0
0
VERTEX
8
0
10
121.014059559393
20
33.8822724372251
30
0
0
VERTEX
8
0
10
122.005978080372
20
33.8978999971675
30
0
0
VERTEX
8
0
10
122.997896601351
20
33.9102829457659
30
0
0
VERTEX
8
0
10
123.989815122329
20
33.9194301997068
30
0
0
VERTEX
8
0
10
124.981733643308
20
33.925350688333
30
0
0
VERTEX
8
0
10
125.973652164287
20
33.928053367616
30
0
0
VERTEX
8
0
10
126.965570685265
20
33.927547234651
30
0
0
VERTEX
8
0
10
127.957489206244
20
33.9238413427117
30
0
0
VERTEX
8
0
10
128.949407727223
20
33.9169448169427
30
0
0
VERTEX
8
0
10
129.941326248201
20
33.9068668706767
30
0
0
VERTEX
8
0
10
130.93324476918
20
33.893616822524
30
0
0
VERTEX
8
0
10
131.925163290158
20
33.8772041141793
30
0
0
VERTEX
8
0
10
132.917081811137
20
33.8576383291097
30
0
0
VERTEX
8
0
10
133.909000332116
20
33.8349292121149
30
0
0
VERTEX
8
0
10
134.900918853094
20
33.8090866899013
30
0
0
VERTEX
8
0
10
135.892837374073
20
33.7801208926514
30
0
0
VERTEX
8
0
10
136.884755895052
20
33.7480421767685
30
0
0
VERTEX
8
0
10
137.87667441603
20
33.7128611488125
30
0
0
VERTEX
8
0
10
138.868592937009
20
33.6745886907583
30
0
0
VERTEX
8
0
10
139.860511457987
20
33.6332359866688
30
0
0
VERTEX
8
0
10
140.852429978966
20
33.5888145508711
30
0
0
VERTEX
8
0
10
141.844348499945
20
33.5413362577949
30
0
0
VERTEX
8
0
10
142.836267020923
20
33.4908133735675
30
0
0
VERTEX
8
0
10
143.828185541902
20
33.4372585895022
30
0
0
VERTEX
8
0
10
144.820104062881
20
33.3806850576636
30
0
0
VERTEX
8
0
10
145.812022583859
20
33.321106428629
30
0
0
VERTEX
8
0
10
146.803941104838
20
33.258536891651
30
0
0
VERTEX
8
0
10
147.795859625817
20
33.1929912174041
30
0
0
VERTEX
8
0
10
148.787778146795
20
33.1244848035248
30
0
0
VERTEX
8
0
10
149.779696667774
20
33.0530337231628
30
0
0
VERTEX
8
0
10
150.771615188752
20
32.9786547768192
30
0
0
VERTEX
8
0
10
151.763533709731
20
32.9013655477094
30
0
0
VERTEX
8
0
10
152.75545223071
20
32.8211844609712
30
0
0
VERTEX
8
0
10
153.747370751688
20
32.7381308470455
30
0
0
VERTEX
8
0
10
154.739289272667
20
32.6522250095684
30
0
0
SEQEND
8
0
0
POLYLINE
8
0
62
3
70
0
10
0
20
0
30
0
0
VERTEX
8
0
10
18.846451898594
20
16.2082752635933
30
0
0
VERTEX
8
0
10
19.8383704195727
20
16.9264126596839
30
0
0
VERTEX
8
0
10
20.8302889405513
20
17.6358221870813
30
0
0
VERTEX
8
0
10
21.8222074615299
20
18.3367165365158
30
0
0
VERTEX
8
0
10
22.8141259825086
20
19.0292895050381
30
0
0
VERTEX
8
0
10
23.8060445034872
20
19.7137183898682
30
0
0
VERTEX
8
0
10
24.7979630244659
20
20.3901660085249
30
0
0
VERTEX
8
0
10
25.7898815454445
20
21.0587824099081
30
0
0
VERTEX
8
0
10
26.7818000664231
20
21.7197063304449
30
0
0
VERTEX
8
0
10
27.7737185874018
20
22.3730664395779
30
0
0
VERTEX
8
0
10
28.7656371083804
20
23.0189824105731
30
0
0
VERTEX
8
0
10
29.757555629359
20
23.6575658459535
30
0
0
VERTEX
8
0
10
30.7494741503377
20
24.2889210811866
30
0
0
VERTEX
8
0
10
31.7413926713163
20
24.9131458859505
30
0
0
VERTEX
8
0
10
32.7333111922949
20
25.5303320789021
30
0
0
VERTEX
8
0
10
33.7252297132736
20
26.1405660686687
30
0
0
VERTEX
8
0
10
34.7171482342522
20
26.7439293320871
30
0
0
VERTEX
8
0
10
35.7090667552308
20
27.3404988382608
30
0
0
VERTEX
8
0
10
36.7009852762095
20
27.9303474263315
30
0
0
VERTEX
8
0
10
37.6929037971881
20
28.513544142625
30
0
0
VERTEX
8
0
10
38.6848223181667
20
29.0901545429818
30
0
0
VERTEX
8
0
10
39.6767408391454
20
29.6602409643913
30
0
0
VERTEX
8
0
10
40.668659360124
20
30.2238627697919
30
0
0
VERTEX
8
0
10
41.6605778811026
20
30.7810765694578
30
0
0
VERTEX
8
0
10
42.6524964020813
20
31.3319364215133
30
0
0
VERTEX
8
0
10
43.6444149230599
20
31.8764940139915
30
0
0
VERTEX
8
0
10
44.6363334440385
20
32.4147988309617
30
0
0
VERTEX
8
0
10
45.6282519650172
20
32.9468983037071
30
0
0
VERTEX
8
0
10
46.6201704859958
20
33.4728379492718
30
0
0
VERTEX
8
0
10
47.6120890069745
20
33.9926614974064
30
0
0
VERTEX
8
0
10
48.6040075279531
20
34.5064110070795
30
0
0
VERTEX
8
0
10
49.5959260489317
20
35.0141269737981
30
0
0
VERTEX
8
0
10
50.5878445699104
20
35.5158484284338
30
0
0
VERTEX
8
0
10
51.579763090889
20
36.0116130286025
30
0
0
VERTEX
8
0
10
52.5716816118676
20
36.5014571431715
30
0
0
VERTEX
8
0
10
53.5636001328463
20
36.9854159305407
30
0
0
VERTEX
8
0
10
54.5555186538249
20
37.4635234114212
30
0
0
VERTEX
8
0
10
55.5474371748035
20
37.9358125363836
30
0
0
VERTEX
8
0
10
56.5393556957822
20
38.4023152489031
30
0
0
VERTEX
8
0
10
57.5312742167608
20
38.8630625440467
30
0
0
VERTEX
8
0
10
58.5231927377394
20
39.3180845233909
30
0
0
VERTEX
8
0
10
59.5151112587181
20
39.7674104463555
30
0
0
VERTEX
8
0
10
60.5070297796967
20
40.2110687783284
30
0
0
VERTEX
8
0
10
61.4989483006753
20
40.6490872358089
30
0
0
VERTEX
8
0
10
62.490866821654
20
41.0814928288429
30
0
0
VERTEX
8
0
10
63.4827853426326
20
41.508311900935
30
0
0
VERTEX
8
0
10
64.4747038636112
20
41.929570166705
30
0
0
VERTEX
8
0
10
65.4666223845899
20
42.3452927473744
30
0
0
VERTEX
8
0
10
66.4585409055685
20
42.7555042043293
30
0
0
VERTEX
8
0
10
67.4504594265471
20
43.1602285708484
30
0
0
VERTEX
8
0
10
68.4423779475258
20
43.5594893822771
30
0
0
VERTEX
8
0
10
69.4342964685044
20
43.9533097044816
30
0
0
VERTEX
8
0
10
70.426214989483
20
44.3417121610522
30
0
0
VERTEX
8
0
10
71.4181335104617
20
44.7247189590938
30
0
0
VERTEX
8
0
10
72.4100520314403
20
45.102351913852
30
0
0
VERTEX
8
0
10
73.4019705524189
20
45.4746324721878
30
0
0
VERTEX
8
0
10
74.3938890733976
20
45.841581735003
30
0
0
VERTEX
8
0
10
75.3858075943762
20
46.2032204787356
30
0
0
VERTEX
8
0
10
76.3777261153549
20
46.5595691759277
30
0
0
VERTEX
8
0
10
77.3696446363335
20
46.9106480149736
30
0
0
VERTEX
8
0
10
78.3615631573121
20
47.2564769191187
30
0
0
VERTEX
8
0
10
79.3534816782908
20
47.5970755647184
30
0
0
VERTEX
8
0
10
80.3454001992694
20
47.9324633988473
30
0
0
VERTEX
8
0
10
81.337318720248
20
48.2626596563487
30
0
0
VERTEX
8
0
10
82.3292372412267
20
48.5876833762295
30
0
0
VERTEX
8
0
10
83.3211557622053
20
48.9075534176364
30
0
0
VERTEX
8
0
10
84.3130742831839
20
49.2222884752601
30
0
0
VERTEX
8
0
10
85.3049928041626
20
49.5319070943932
30
0
0
VERTEX
8
0
10
86.2969113251412
20
49.8364276854822
30
0
0
VERTEX
8
0
10
87.2888298461198
20
50.1358685384238
30
0
0
VERTEX
8
0
10
88.2807483670985
20
50.4302478364082
30
0
0
VERTEX
8
0
10
89.2726668880771
20
50.7195836695452
30
0
0
VERTEX
8
0
10
90.2645854090557
20
51.0038940481369
30
0
0
VERTEX
8
0
10
91.2565039300344
20
51.2831969157547
30
0
0
VERTEX
8
0
10
92.248422451013
20
51.5575101620583
30
0
0
VERTEX
8
0
10
93.2403409719916
20
51.8268516354169
30
0
0
VERTEX
8
0
10
94.2322594929703
20
52.0912391553547
30
0
0
VERTEX
8
0
10
95.2241780139489
20
52.3506905248359
30
0
0
VERTEX
8
0
10
96.2160965349275
20
52.6052235424207
30
0
0
VERTEX
8
0
10
97.2080150559062
20
52.8548560142954
30
0
0
VERTEX
8
0
10
98.1999335768848
20
53.0996057662193
30
0
0
VERTEX
8
0
10
99.1918520978635
20
53.3394906554065
30
0
0
VERTEX
8
0
10
100.183770618842
20
53.5745285823153
30
0
0
VERTEX
8
0
10
101.175689139821
20
53.8047375024448
30
0
0
VERTEX
8
0
10
102.167607660799
20
54.0301354380816
30
0
0
VERTEX
8
0
10
103.159526181778
20
54.2507404900738
30
0
0
VERTEX
8
0
10
104.151444702757
20
54.4665708495784
30
0
0
VERTEX
8
0
10
105.143363223735
20
54.6776448098995
30
0
0
VERTEX
8
0
10
106.135281744714
20
54.8839807783188
30
0
0
VERTEX
8
0
10
107.127200265693
20
55.0855972880372
30
0
0
VERTEX
8
0
10
108.119118786671
20
55.2825130101824
30
0
0
VERTEX
8
0
10
109.11103730765
20
55.4747467659099
30
0
0
VERTEX
8
0
10
110.102955828628
20
55.6623175386401
30
0
0
VERTEX
8
0
10
111.094874349607
20
55.8452444864153
30
0
0
VERTEX
8
0
10
112.086792870586
20
56.0235469544084
30
0
0
VERTEX
8
0
10
113.078711391564
20
56.1972444876022
30
0
0
VERTEX
8
0
10
114.070629912543
20
56.3663568436589
30
0
0
VERTEX
8
0
10
115.062548433522
20
56.5309040059776
30
0
0
VERTEX
8
0
10
116.0544669545
20
56.6909061969739
30
0
0
VERTEX
8
0
10
117.046385475479
20
56.8463838916152
30
0
0
VERTEX
8
0
10
118.038303996458
20
56.9973578311802
30
0
0
VERTEX
8
0
10
119.030222517436
20
57.1438490373121
30
0
0
VERTEX
8
0
10
120.022141038415
20
57.2858788263588
30
0
0
VERTEX
8
0
10
121.014059559393
20
57.4234688240309
30
0
0
VERTEX
8
0
10
122.005978080372
20
57.5566409803654
30
0
0
VERTEX
8
0
10
122.997896601351
20
57.6854175850876
30
0
0
VERTEX
8
0
10
123.989815122329
20
57.8098212832938
30
0
0
VERTEX
8
0
10
124.981733643308
20
57.9298750915673
30
0
0
VERTEX
8
0
10
125.973652164287
20
58.0456024144966
30
0
0
VERTEX
8
0
10
126.965570685265
20
58.1570270616369
30
0
0
VERTEX
8
0
10
127.957489206244
20
58.2641732649297
30
0
0
VERTEX
8
0
10
128.949407727223
20
58.3670656966325
30
0
0
VERTEX
8
0
10
129.941326248201
20
58.4657294877363
30
0
0
VERTEX
8
0
10
130.93324476918
20
58.5601902469647
30
0
0
VERTEX
8
0
10
131.925163290158
20
58.6504740803081
30
0
0
VERTEX
8
0
10
132.917081811137
20
58.7366076111903
30
0
0
VERTEX
8
0
10
133.909000332116
20
58.8186180012499
30
0
0
VERTEX
8
0
10
134.900918853094
20
58.8965329718164
30
0
0
VERTEX
8
0
10
135.892837374073
20
58.9703808260551
30
0
0
VERTEX
8
0
10
136.884755895052
20
59.0401904718809
30
0
0
VERTEX
8
0
10
137.87667441603
20
59.1059914456349
30
0
0
VERTEX
8
0
10
138.868592937009
20
59.1678139365867
30
0
0
VERTEX
8
0
10
139.860511457987
20
59.225688812302
30
0
0
VERTEX
8
0
10
140.852429978966
20
59.2796476449082
30
0
0
VERTEX
8
0
10
141.844348499945
20
59.32972273833
30
0
0
VERTEX
8
0
10
142.836267020923
20
59.3759471565292
30
0
0
VERTEX
8
0
10
143.828185541902
20
59.418354752803
30
0
0
VERTEX
8
0
10
144.820104062881
20
59.4569802002178
30
0
0
VERTEX
8
0
10
145.812022583859
20
59.491859023217
30
0
0
VERTEX
8
0
10
146.803941104838
20
59.5230276304877
30
0
0
VERTEX
8
0
10
147.795859625817
20
59.5505233491543
30
0
0
VERTEX
8
0
10
148.787778146795
20
59.5743844603722
30
0
0
VERTEX
8
0
10
149.779696667774
20
59.5946502364078
30
0
0
VERTEX
8
0
10
150.771615188752
20
59.6113609793011
30
0
0
VERTEX
8
0
10
151.763533709731
20
59.6245580611987
30
0
0
VERTEX
8
0
10
152.75545223071
20
59.6342839664697
30
0
0
VERTEX
8
0
10
153.747370751688
20
59.6405823357241
30
0
0
VERTEX
8
0
10
154.739289272667
20
59.6434980118476
30
0
0
SEQEND
8
0
0
POLYLINE
8
0
62
4
70
0
10
0
20
0
30
0
0
VERTEX
8
0
10
18.846451898594
20
14.8712681140189
30
0
0
VERTEX
8
0
10
19.8383704195727
20
15.5486176417764
30
0
0
VERTEX
8
0
10
20.8302889405513
20
16.2230864270744
30
0
0
VERTEX
8
0
10
21.8222074615299
20
16.8946312852235
30
0
0
VERTEX
8
0
10
22.8141259825086
20
17.5712725593055
30
0
0
VERTEX
8
0
10
23.8060445034872
20
18.2422381778816
30
0
0
VERTEX
8
0
10
24.7979630244659
20
18.9124143934319
30
0
0
VERTEX
8
0
10
25.7898815454445
20
19.5799962891151
30
0
0
VERTEX
8
0
10
26.7818000664231
20
20.2445231351647
30
0
0
VERTEX
8
0
10
27.7737185874018
20
20.8997131466536
30
0
0
VERTEX
8
0
10
28.7656371083804
20
21.5527634970075
30
0
0
VERTEX
8
0
10
29.757555629359
20
22.2054802317607
30
0
0
VERTEX
8
0
10
30.7494741503377
20
22.8577530055499
30
0
0
VERTEX
8
0
10
31.7413926713163
20
23.5069582025856
30
0
0
VERTEX
8
0
10
32.7333111922949
20
24.1508284311149
30
0
0
VERTEX
8
0
10
33.7252297132736
20
24.7912313955339
30
0
0
VERTEX
8
0
10
34.7171482342522
20
25.4285751493536
30
0
0
VERTEX
8
0
10
35.7090667552308
20
26.0438108602502
30
0
0
VERTEX
8
0
10
36.7009852762095
20
26.6590065601943
30
0
0
VERTEX
8
0
10
37.6929037971881
20
27.2655304429431
30
0
0
VERTEX
8
0
10
38.6848223181667
20
27.8639550081019
30
0
0
VERTEX
8
0
10
39.6767408391454
20
28.459339730429
30
0
0
VERTEX
8
0
10
40.668659360124
20
29.0562969072269
30
0
0
VERTEX
8
0
10
41.6605778811026
20
29.6509297740139
30
0
0
VERTEX
8
0
10
42.6524964020813
20
30.2425229466097
30
0
0
VERTEX
8
0
10
43.6444149230599
20
30.8310801609885
30
0
0
VERTEX
8
0
10
44.6363334440385
20
31.4166058426491
30
0
0
VERTEX
8
0
10
45.6282519650172
20
31.9991050473965
30
0
0
VERTEX
8
0
10
46.6201704859958
20
32.5785834094011
30
0
0
VERTEX
8
0
10
47.6120890069745
20
33.15504709553
30
0
0
VERTEX
8
0
10
48.6040075279531
20
33.7237915673363
30
0
0
VERTEX
8
0
10
49.5959260489317
20
34.2888996722808
30
0
0
VERTEX
8
0
10
50.5878445699104
20
34.8510080365551
30
0
0
VERTEX
8
0
10
51.579763090889
20
35.3970669494095
30
0
0
VERTEX
8
0
10
52.5716816118676
20
35.9424927355716
30
0
0
VERTEX
8
0
10
53.5636001328463
20
36.463980556486
30
0
0
VERTEX
8
0
10
54.5555186538249
20
36.9660277418291
30
0
0
VERTEX
8
0
10
55.5474371748035
20
37.46511421152
30
0
0
VERTEX
8
0
10
56.5393556957822
20
37.9516595100676
30
0
0
VERTEX
8
0
10
57.5312742167608
20
38.4341778698429
30
0
0
VERTEX
8
0
10
58.5231927377394
20
38.9137469520293
30
0
0
VERTEX
8
0
10
59.5151112587181
20
39.3936515864933
30
0
0
VERTEX
8
0
10
60.5070297796967
20
39.8699670962333
30
0
0
VERTEX
8
0
10
61.4989483006753
20
40.3417954859218
30
0
0
VERTEX
8
0
10
62.490866821654
20
40.8095452507088
30
0
0
VERTEX
8
0
10
63.4827853426326
20
41.2743416196183
30
0
0
VERTEX
8
0
10
64.4747038636112
20
41.743460848421
30
0
0
VERTEX
8
0
10
65.4666223845899
20
42.2102998106767
30
0
0
VERTEX
8
0
10
66.4585409055685
20
42.6741897943408
30
0
0
VERTEX
8
0
10
67.4504594265471
20
43.1218471402569
30
0
0
VERTEX
8
0
10
68.4423779475258
20
43.5692610137085
30
0
0
VERTEX
8
0
10
69.4342964685044
20
43.9823555343734
30
0
0
VERTEX
8
0
10
70.426214989483
20
44.3710657275003
30
0
0
VERTEX
8
0
10
71.4181335104617
20
44.7569379339545
30
0
0
VERTEX
8
0
10
72.4100520314403
20
45.135060652396
30
0
0
VERTEX
8
0
10
73.4019705524189
20
45.5099906831559
30
0
0
VERTEX
8
0
10
74.3938890733976
20
45.8820802123101
30
0
0
VERTEX
8
0
10
75.3858075943762
20
46.2446682322974
30
0
0
VERTEX
8
0
10
76.3777261153549
20
46.6058420450779
30
0
0
VERTEX
8
0
10
77.3696446363335
20
46.9657676361577
30
0
0
VERTEX
8
0
10
78.3615631573121
20
47.3238621668857
30
0
0
VERTEX
8
0
10
79.3534816782908
20
47.6791029352504
30
0
0
VERTEX
8
0
10
80.3454001992694
20
48.0339554741978
30
0
0
VERTEX
8
0
10
81.337318720248
20
48.3860795851215
30
0
0
VERTEX
8
0
10
82.3292372412267
20
48.7353418230748
30
0
0
VERTEX
8
0
10
83.3211557622053
20
49.0750647229958
30
0
0
VERTEX
8
0
10
84.3130742831839
20
49.4134300508737
30
0
0
VERTEX
8
0
10
85.3049928041626
20
49.7440818500852
30
0
0
VERTEX
8
0
10
86.2969113251412
20
50.0689972313482
30
0
0
VERTEX
8
0
10
87.2888298461198
20
50.3910804198659
30
0
0
VERTEX
8
0
10
88.2807483670985
20
50.6879212865408
30
0
0
VERTEX
8
0
10
89.2726668880771
20
50.9811829968845
30
0
0
VERTEX
8
0
10
90.2645854090557
20
51.2716692332825
30
0
0
VERTEX
8
0
10
91.2565039300344
20
51.5459874995374
30
0
0
VERTEX
8
0
10
92.248422451013
20
51.8206870456356
30
0
0
VERTEX
8
0
10
93.2403409719916
20
52.0926372721212
30
0
0
VERTEX
8
0
10
94.2322594929703
20
52.3618368067264
30
0
0
VERTEX
8
0
10
95.2241780139489
20
52.6282849786682
30
0
0
VERTEX
8
0
10
96.2160965349275
20
52.9019883595592
30
0
0
VERTEX
8
0
10
97.2080150559062
20
53.1731009701078
30
0
0
VERTEX
8
0
10
98.1999335768848
20
53.4414425215791
30
0
0
VERTEX
8
0
10
99.1918520978635
20
53.6902415199796
30
0
0
VERTEX
8
0
10
100.183770618842
20
53.9403830761033
30
0
0
VERTEX
8
0
10
101.175689139821
20
54.1928049877305
30
0
0
VERTEX
8
0
10
102.167607660799
20
54.4450692293612
30
0
0
VERTEX
8
0
10
103.159526181778
20
54.6945925366261
30
0
0
VERTEX
8
0
10
104.151444702757
20
54.926238029451
30
0
0
VERTEX
8
0
10
105.143363223735
20
55.1551624246895
30
0
0
VERTEX
8
0
10
106.135281744714
20
55.3813900111186
30
0
0
VERTEX
8
0
10
107.127200265693
20
55.5880874389341
30
0
0
VERTEX
8
0
10
108.119118786671
20
55.7963819700162
30
0
0
VERTEX
8
0
10
109.11103730765
20
56.0054194358103
30
0
0
VERTEX
8
0
10
110.102955828628
20
56.2134224508808
30
0
0
VERTEX
8
0
10
111.094874349607
20
56.4187704153704
30
0
0
VERTEX
8
0
10
112.086792870586
20
56.6214698128398
30
0
0
VERTEX
8
0
10
113.078711391564
20
56.8215276864193
30
0
0
VERTEX
8
0
10
114.070629912543
20
57.0189516321316
30
0
0
VERTEX
8
0
10
115.062548433522
20
57.2171307919338
30
0
0
VERTEX
8
0
10
116.0544669545
20
57.4118041350078
30
0
0
VERTEX
8
0
10
117.046385475479
20
57.6004100437758
30
0
0
VERTEX
8
0
10
118.038303996458
20
57.7848904536333
30
0
0
VERTEX
8
0
10
119.030222517436
20
57.966786533622
30
0
0
VERTEX
8
0
10
120.022141038415
20
58.1358398957408
30
0
0
VERTEX
8
0
10
121.014059559393
20
58.3026641013061
30
0
0
VERTEX
8
0
10
122.005978080372
20
58.4669502649518
30
0
0
VERTEX
8
0
10
122.997896601351
20
58.58452409466
30
0
0
VERTEX
8
0
10
123.989815122329
20
58.711630131931
30
0
0
VERTEX
8
0
10
124.981733643308
20
58.8065221625547
30
0
0
VERTEX
8
0
10
125.973652164287
20
58.8869756744568
30
0
0
VERTEX
8
0
10
126.965570685265
20
58.9651971204821
30
0
0
VERTEX
8
0
10
127.957489206244
20
59.0514526103486
30
0
0
VERTEX
8
0
10
128.949407727223
20
59.1349541441958
30
0
0
VERTEX
8
0
10
129.941326248201
20
59.216185476588
30
0
0
VERTEX
8
0
10
130.93324476918
20
59.3255050109988
30
0
0
VERTEX
8
0
10
131.925163290158
20
59.4239856927534
30
0
0
VERTEX
8
0
10
132.917081811137
20
59.520133776795
30
0
0
VERTEX
8
0
10
133.909000332116
20
59.6139607235551
30
0
0
VERTEX
8
0
10
134.900918853094
20
59.7054786234599
30
0
0
VERTEX
8
0
10
135.892837374073
20
59.756170694253
30
0
0
VERTEX
8
0
10
136.884755895052
20
59.8070953321207
30
0
0
VERTEX
8
0
10
137.87667441603
20
59.8558928652043
30
0
0
VERTEX
8
0
10
138.868592937009
20
59.8992160443639
30
0
0
VERTEX
8
0
10
139.860511457987
20
59.9414144441708
30
0
0
VERTEX
8
0
10
140.852429978966
20
59.9409020936089
30
0
0
VERTEX
8
0
10
141.844348499945
20
59.9246038539186
30
0
0
VERTEX
8
0
10
142.836267020923
20
59.9066173209168
30
0
0
VERTEX
8
0
10
143.828185541902
20
59.8818771628621
30
0
0
VERTEX
8
0
10
144.820104062881
20
59.8558938643367
30
0
0
VERTEX
8
0
10
145.812022583859
20
59.828290715777
30
0
0
VERTEX
8
0
10
146.803941104838
20
59.7957918731086
30
0
0
VERTEX
8
0
10
147.795859625817
20
59.7626939855371
30
0
0
VERTEX
8
0
10
148.787778146795
20
59.7297725955544
30
0
0
VERTEX
8
0
10
149.779696667774
20
59.6958316045884
30
0
0
VERTEX
8
0
10
150.771615188752
20
59.6603321567382
30
0
0
VERTEX
8
0
10
151.763533709731
20
59.6257738539317
30
0
0
VERTEX
8
0
10
152.75545223071
20
59.5894436425933
30
0
0
VERTEX
8
0
10
153.747370751688
20
59.5515826279394
30
0
0
VERTEX
8
0
10
154.739289272667
20
59.523598925312
30
0
0
SEQEND
8
0
0
POLYLINE
8
0
62
2
70
0
10
0
20
0
30
0
0
VERTEX
8
0
10
18.846451898594
20
1.50754805286417
30
0
0
VERTEX
8
0
10
19.8383704195727
20
1.91425384264386
30
0
0
VERTEX
8
0
10
20.8302889405513
20
2.28873526003053
30
0
0
VERTEX
8
0
10
21.8222074615299
20
2.64549811667314
30
0
0
VERTEX
8
0
10
22.8141259825086
20
2.99152764387061
30
0
0
VERTEX
8
0
10
23.8060445034872
20
3.33070004249811
30
0
0
VERTEX
8
0
10
24.7979630244659
20
3.6653626679749
30
0
0
VERTEX
8
0
10
25.7898815454445
20
3.99702293432163
30
0
0
VERTEX
8
0
10
26.7818000664231
20
4.32668965147967
30
0
0
VERTEX
8
0
10
27.7737185874018
20
4.6550582453838
30
0
0
VERTEX
8
0
10
28.7656371083804
20
4.98261835792667
30
0
0
VERTEX
8
0
10
29.757555629359
20
5.30971976717795
30
0
0
VERTEX
8
0
10
30.7494741503377
20
5.6366145294166
30
0
0
VERTEX
8
0
10
31.7413926713163
20
5.96348487632131
30
0
0
VERTEX
8
0
10
32.7333111922949
20
6.29046222616381
30
0
0
VERTEX
8
0
10
33.7252297132736
20
6.61764046160503
30
0
0
VERTEX
8
0
10
34.7171482342522
20
6.94508540002697
30
0
0
VERTEX
8
0
10
35.7090667552308
20
7.27284167105216
30
0
0
VERTEX
8
0
10
36.7009852762095
20
7.60093779194823
30
0
0
VERTEX
8
0
10
37.6929037971881
20
7.92938996459593
30
0
0
VERTEX
8
0
10
38.6848223181667
20
8.25820495236007
30
0
0
VERTEX
8
0
10
39.6767408391454
20
8.58738228353516
30
0
0
VERTEX
8
0
10
40.668659360124
20
8.91691595641143
30
0
0
VERTEX
8
0
10
41.6605778811026
20
9.24679577103748
30
0
0
VERTEX
8
0
10
42.6524964020813
20
9.57700837852332
30
0
0
VERTEX
8
0
10
43.6444149230599
20
9.90753811414767
30
0
0
VERTEX
8
0
10
44.6363334440385
20
10.2383676651946
30
0
0
VERTEX
8
0
10
45.6282519650172
20
10.5694786100425
30
0
0
VERTEX
8
0
10
46.6201704859958
20
10.9008518572002
30
0
0
VERTEX
8
0
10
47.6120890069745
20
11.2324680065611
30
0
0
VERTEX
8
0
10
48.6040075279531
20
11.564307649574
30
0
0
VERTEX
8
0
10
49.5959260489317
20
11.8963516215138
30
0
0
VERTEX
8
0
10
50.5878445699104
20
12.2285812169987
30
0
0
VERTEX
8
0
10
51.579763090889
20
12.5609783764057
30
0
0
VERTEX
8
0
10
52.5716816118676
20
12.8935258507147
30
0
0
VERTEX
8
0
10
53.5636001328463
20
13.2262073499684
30
0
0
VERTEX
8
0
10
54.5555186538249
20
13.5590076805514
30
0
0
VERTEX
8
0
10
55.5474371748035
20
13.8919128746253
30
0
0
VERTEX
8
0
10
56.5393556957822
20
14.2249103160274
30
0
0
VERTEX
8
0
10
57.5312742167608
20
14.5579888652268
30
0
0
VERTEX
8
0
10
58.5231927377394
20
14.8911389865927
30
0
0
VERTEX
8
0
10
59.5151112587181
20
15.2243528807674
30
0
0
VERTEX
8
0
10
60.5070297796967
20
15.5576246247977
30
0
0
VERTEX
8
0
10
61.4989483006753
20
15.8909503232438
30
0
0
VERTEX
8
0
10
62.490866821654
20
16.2243282731288
30
0
0
VERTEX
8
0
10
63.4827853426326
20
16.5577591461362
30
0
0
VERTEX
8
0
10
64.4747038636112
20
16.8912461920107
30
0
0
VERTEX
8
0
10
65.4666223845899
20
17.2247954673835
30
0
0
VERTEX
8
0
10
66.4585409055685
20
17.5584160951879
30
0
0
VERTEX
8
0
10
67.4504594265471
20
17.8921205604372
30
0
0
VERTEX
8
0
10
68.4423779475258
20
18.2259250502063
30
0
0
VERTEX
8
0
10
69.4342964685044
20
18.5598498456727
30
0
0
VERTEX
8
0
10
70.426214989483
20
18.8939197777958
30
0
0
VERTEX
8
0
10
71.4181335104617
20
19.2281647590897
30
0
0
VERTEX
8
0
10
72.4100520314403
20
19.5626204088721
30
0
0
VERTEX
8
0
10
73.4019705524189
20
19.8973287920647
30
0
0
VERTEX
8
0
10
74.3938890733976
20
20.2323392989916
30
0
0
VERTEX
8
0
10
75.3858075943762
20
20.5677096997528
30
0
0
VERTEX
8
0
10
76.3777261153549
20
20.9035074185155
30
0
0
VERTEX
8
0
10
77.3696446363335
20
21.239811086367
30
0
0
VERTEX
8
0
10
78.3615631573121
20
21.5767124518171
30
0
0
VERTEX
8
0
10
79.3534816782908
20
21.9143187560436
30
0
0
VERTEX
8
0
10
80.3454001992694
20
22.2527557204252
30
0
0
VERTEX
8
0
10
81.337318720248
20
22.5921713540443
30
0
0
VERTEX
8
0
10
82.3292372412267
20
22.9327408775298
30
0
0
VERTEX
8
0
10
83.3211557622053
20
23.2746731998158
30
0
0
VERTEX
8
0
10
84.3130742831839
20
23.6182196012448
30
0
0
VERTEX
8
0
10
85.3049928041626
20
23.9636856394627
30
0
0
VERTEX
8
0
10
86.2969113251412
20
24.3114479052402
30
0
0
VERTEX
8
0
10
87.2888298461198
20
24.6619783501035
30
0
0
VERTEX
8
0
10
88.2807483670985
20
25.0158809618692
30
0
0
VERTEX
8
0
10
89.2726668880771
20
25.3739496861269
30
0
0
VERTEX
8
0
10
90.2645854090557
20
25.7372654637327
30
0
0
VERTEX
8
0
10
91.2565039300344
20
26.1073719267196
30
0
0
VERTEX
8
0
10
92.248422451013
20
26.4866295510432
30
0
0
VERTEX
8
0
10
93.2403409719916
20
26.8790509332336
30
0
0
VERTEX
8
0
10
94.2322594929703
20
27.2927259975708
30
0
0
VERTEX
8
0
10
95.2241780139489
20
27.7435804237187
30
0
0
VERTEX
8
0
10
96.2160965349275
20
28.1985157323692
30
0
0
VERTEX
8
0
10
97.2080150559062
20
28.6011579185229
30
0
0
VERTEX
8
0
10
98.1999335768848
20
28.968001613921
30
0
0
VERTEX
8
0
10
99.1918520978635
20
29.3108679533877
30
0
0
VERTEX
8
0
10
100.183770618842
20
29.6355299490955
30
0
0
VERTEX
8
0
10
101.175689139821
20
29.9453837629526
30
0
0
VERTEX
8
0
10
102.167607660799
20
30.2426806809044
30
0
0
VERTEX
8
0
10
103.159526181778
20
30.5290292248435
30
0
0
VERTEX
8
0
10
104.151444702757
20
30.8056390930544
30
0
0
VERTEX
8
0
10
105.143363223735
20
31.0734546097344
30
0
0
VERTEX
8
0
10
106.135281744714
20
31.3332341524296
30
0
0
VERTEX
8
0
10
107.127200265693
20
31.5856005093339
30
0
0
VERTEX
8
0
10
108.119118786671
20
31.8310744170434
30
0
0
VERTEX
8
0
10
109.11103730765
20
32.0700977961665
30
0
0
VERTEX
8
0
10
110.102955828628
20
32.303050379777
30
0
0
VERTEX
8
0
10
111.094874349607
20
32.5302619399487
30
0
0
VERTEX
8
0
10
112.086792870586
20
32.7520214868545
30
0
0
VERTEX
8
0
10
113.078711391564
20
32.96858432784
30
0
0
VERTEX
8
0
10
114.070629912543
20
33.1801775780397
30
0
0
VERTEX
8
0
10
115.062548433522
20
33.3870045272667
30
0
0
VERTEX
8
0
10
116.0544669545
20
33.5892481467663
30
0
0
VERTEX
8
0
10
117.046385475479
20
33.7870739387848
30
0
0
VERTEX
8
0
10
118.038303996458
20
33.9806322765754
30
0
0
VERTEX
8
0
10
119.030222517436
20
34.1700603445027
30
0
0
VERTEX
8
0
10
120.022141038415
20
34.3554837604308
30
0
0
VERTEX
8
0
10
121.014059559393
20
34.5370179430645
30
0
0
VERTEX
8
0
10
122.005978080372
20
34.7147692727217
30
0
0
VERTEX
8
0
10
122.997896601351
20
34.8888360831499
30
0
0
VERTEX
8
0
10
123.989815122329
20
35.0593095141889
30
0
0
VERTEX
8
0
10
124.981733643308
20
35.2262742487502
30
0
0
VERTEX
8
0
10
125.973652164287
20
35.3898091533316
30
0
0
VERTEX
8
0
10
126.965570685265
20
35.5499878371804
30
0
0
VERTEX
8
0
10
127.957489206244
20
35.7068791427137
30
0
0
VERTEX
8
0
10
128.949407727223
20
35.8605475773674
30
0
0
VERTEX
8
0
10
129.941326248201
20
36.01105369556
30
0
0
VERTEX
8
0
10
130.93324476918
20
36.1584544374179
30
0
0
VERTEX
8
0
10
131.925163290158
20
36.3028034305635
30
0
0
VERTEX
8
0
10
132.917081811137
20
36.4441512596068
30
0
0
VERTEX
8
0
10
133.909000332116
20
36.5825457077331
30
0
0
VERTEX
8
0
10
134.900918853094
20
36.7180319735889
30
0
0
VERTEX
8
0
10
135.892837374073
20
36.8506528669758
30
0
0
VERTEX
8
0
10
136.884755895052
20
36.9804489855148
30
0
0
VERTEX
8
0
10
137.87667441603
20
37.1074588746171
30
0
0
VERTEX
8
0
10
138.868592937009
20
37.2317191728149
30
0
0
VERTEX
8
0
10
139.860511457987
20
37.3532647438998
30
0
0
VERTEX
8
0
10
140.852429978966
20
37.4721287974391
30
0
0
VERTEX
8
0
10
141.844348499945
20
37.5883429988914
30
0
0
VERTEX
8
0
10
142.836267020923
20
37.7019375704203
30
0
0
VERTEX
8
0
10
143.828185541902
20
37.8129413833049
30
0
0
VERTEX
8
0
10
144.820104062881
20
37.921382042927
30
0
0
VERTEX
8
0
10
145.812022583859
20
38.0272859669273
30
0
0
VERTEX
8
0
10
146.803941104838
20
38.1306784572943
30
0
0
VERTEX
8
0
10
147.795859625817
20
38.2315837669225
30
0
0
VERTEX
8
0
10
148.787778146795
20
38.3300251611762
30
0
0
VERTEX
8
0
10
149.779696667774
20
38.4260249749251
30
0
0
VERTEX
8
0
10
150.771615188752
20
38.519604665411
30
0
0
VERTEX
8
0
10
151.763533709731
20
38.6107848614045
30
0
0
VERTEX
8
0
10
152.75545223071
20
38.6995854088952
30
0
0
VERTEX
8
0
10
153.747370751688
20
38.786025413677
30
0
0
VERTEX
8
0
10
154.739289272667
20
38.8701232810544
30
0
0
SEQEND
8
0
0
POLYLINE
8
0
62
3
70
0
10
0
20
0
30
0
0
VERTEX
8
0
10
18.846451898594
20
8.05507709394013
30
0
0
VERTEX
8
0
10
19.8383704195727
20
8.56199945915519
30
0
0
VERTEX
8
0
10
20.8302889405513
20
9.07246084630082
30
0
0
VERTEX
8
0
10
21.8222074615299
20
9.58623265447901
30
0
0
VERTEX
8
0
10
22.8141259825086
20
10.1031062252566
30
0
0
VERTEX
8
0
10
23.8060445034872
20
10.6228898546929
30
0
0
VERTEX
8
0
10
24.7979630244659
20
11.1454063765199
30
0
0
VERTEX
8
0
10
25.7898815454445
20
11.6704912041617
30
0
0
VERTEX
8
0
10
26.7818000664231
20
12.1979907347509
30
0
0
VERTEX
8
0
10
27.7737185874018
20
12.7277610369556
30
0
0
VERTEX
8
0
10
28.7656371083804
20
13.2596667616098
30
0
0
VERTEX
8
0
10
29.757555629359
20
13.7935802284148
30
0
0
VERTEX
8
0
10
30.7494741503377
20
14.3293806527229
30
0
0
VERTEX
8
0
10
31.7413926713163
20
14.8669534852787
30
0
0
VERTEX
8
0
10
32.7333111922949
20
15.4061898437264
30
0
0
VERTEX
8
0
10
33.7252297132736
20
15.9469860198415
30
0
0
VERTEX
8
0
10
34.7171482342522
20
16.4892430498549
30
0
0
VERTEX
8
0
10
35.7090667552308
20
17.0328663374597
30
0
0
VERTEX
8
0
10
36.7009852762095
20
17.5777653221089
30
0
0
VERTEX
8
0
10
37.6929037971881
20
18.1238531855167
30
0
0
VERTEX
8
0
10
38.6848223181667
20
18.6710465915979
30
0
0
VERTEX
8
0
10
39.6767408391454
20
19.2192654551134
30
0
0
VERTEX
8
0
10
40.668659360124
20
19.7684327356018
30
0
0
VERTEX
8
0
10
41.6605778811026
20
20.3184742535832
30
0
0
VERTEX
8
0
10
42.6524964020813
20
20.8693185265037
30
0
0
VERTEX
8
0
10
43.6444149230599
20
21.4208966220088
30
0
0
VERTEX
8
0
10
44.6363334440385
20
21.9731420272672
30
0
0
VERTEX
8
0
10
45.6282519650172
20
22.5259905323835
30
0
0
VERTEX
8
0
10
46.6201704859958
20
23.079380126692
30
0
0
VERTEX
8
0
10
47.6120890069745
20
23.6332509070148
30
0
0
VERTEX
8
0
10
48.6040075279531
20
24.1875449968437
30
0
0
VERTEX
8
0
10
49.5959260489317
20
24.742206475622
30
0
0
VERTEX
8
0
10
50.5878445699104
20
25.2971813178081
30
0
0
VERTEX
8
0
10
51.579763090889
20
25.8524173408617
30
0
0
VERTEX
8
0
10
52.5716816118676
20
26.4078641621177
30
0
0
VERTEX
8
0
10
53.5636001328463
20
26.9634731640939
30
0
0
VERTEX
8
0
10
54.5555186538249
20
27.5191974683376
30
0
0
VERTEX
8
0
10
55.5474371748035
20
28.0749919174557
30
0
0
VERTEX
8
0
10
56.5393556957822
20
28.6308130658138
30
0
0
VERTEX
8
0
10
57.5312742167608
20
29.1866191788378
30
0
0
VERTEX
8
0
10
58.5231927377394
20
29.7423702414304
30
0
0
VERTEX
8
0
10
59.5151112587181
20
30.2980279759782
30
0
0
VERTEX
8
0
10
60.5070297796967
20
30.8535558705351
30
0
0
VERTEX
8
0
10
61.4989483006753
20
31.4089192181927
30
0
0
VERTEX
8
0
10
62.490866821654
20
31.9640851685985
30
0
0
VERTEX
8
0
10
63.4827853426326
20
32.5190227929667
30
0
0
VERTEX
8
0
10
64.4747038636112
20
33.0737031643113
30
0
0
VERTEX
8
0
10
65.4666223845899
20
33.628099454855
30
0
0
VERTEX
8
0
10
66.4585409055685
20
34.1821870531471
30
0
0
VERTEX
8
0
10
67.4504594265471
20
34.7359437038179
30
0
0
VERTEX
8
0
10
68.4423779475258
20
35.2893496740633
30
0
0
VERTEX
8
0
10
69.4342964685044
20
35.8423879510536
30
0
0
VERTEX
8
0
10
70.426214989483
20
36.3950444765005
30
0
0
VERTEX
8
0
10
71.4181335104617
20
36.9473084251964
30
0
0
VERTEX
8
0
10
72.4100520314403
20
37.4991725370543
30
0
0
VERTEX
8
0
10
73.4019705524189
20
38.0506335137582
30
0
0
VERTEX
8
0
10
74.3938890733976
20
38.6016924952136
30
0
0
VERTEX
8
0
10
75.3858075943762
20
39.1523556344807
30
0
0
VERTEX
8
0
10
76.3777261153549
20
39.7026347964111
30
0
0
VERTEX
8
0
10
77.3696446363335
20
40.2525484126907
30
0
0
VERTEX
8
0
10
78.3615631573121
20
40.802122537402
30
0
0
VERTEX
8
0
10
79.3534816782908
20
41.3513921628835
30
0
0
VERTEX
8
0
10
80.3454001992694
20
41.9004028782767
30
0
0
VERTEX
8
0
10
81.337318720248
20
42.4492129867395
30
0
0
VERTEX
8
0
10
82.3292372412267
20
42.9978962468779
30
0
0
VERTEX
8
0
10
83.3211557622053
20
43.5465454822195
30
0
0
VERTEX
8
0
10
84.3130742831839
20
44.0952774237004
30
0
0
VERTEX
8
0
10
85.3049928041626
20
44.6442393527574
30
0
0
VERTEX
8
0
10
86.2969113251412
20
45.1936184535196
30
0
0
VERTEX
8
0
10
87.2888298461198
20
45.7436553934326
30
0
0
VERTEX
8
0
10
88.2807483670985
20
46.2946647975018
30
0
0
VERTEX
8
0
10
89.2726668880771
20
46.847067579712
30
0
0
VERTEX
8
0
10
90.2645854090557
20
47.4014450956605
30
0
0
VERTEX
8
0
10
91.2565039300344
20
47.9586371531323
30
0
0
VERTEX
8
0
10
92.248422451013
20
48.5199394625474
30
0
0
VERTEX
8
0
10
93.2403409719916
20
49.0875689537231
30
0
0
VERTEX
8
0
10
94.2322594929703
20
49.6660127926054
30
0
0
VERTEX
8
0
10
95.2241780139489
20
50.2640872391495
30
0
0
VERTEX
8
0
10
96.2160965349275
20
50.8628766397393
30
0
0
VERTEX
8
0
10
97.2080150559062
20
51.429958670059
30
0
0
VERTEX
8
0
10
98.1999335768848
20
51.9741209894987
30
0
0
VERTEX
8
0
10
99.1918520978635
20
52.5018678590605
30
0
0
VERTEX
8
0
10
100.183770618842
20
53.0164010026213
30
0
0
VERTEX
8
0
10
101.175689139821
20
53.5196213595589
30
0
0
VERTEX
8
0
10
102.167607660799
20
54.0128026896691
30
0
0
VERTEX
8
0
10
103.159526181778
20
54.4968659395065
30
0
0
VERTEX
8
0
10
104.151444702757
20
54.9725124887224
30
0
0
VERTEX
8
0
10
105.143363223735
20
55.4402970548825
30
0
0
VERTEX
8
0
10
106.135281744714
20
55.9006711148708
30
0
0
VERTEX
8
0
10
107.127200265693
20
56.3540104668104
30
0
0
VERTEX
8
0
10
108.119118786671
20
56.8006336168817
30
0
0
VERTEX
8
0
10
109.11103730765
20
57.2408145453282
30
0
0
VERTEX
8
0
10
110.102955828628
20
57.6747918660019
30
0
0
VERTEX
8
0
10
111.094874349607
20
58.102775581403
30
0
0
VERTEX
8
0
10
112.086792870586
20
58.5249521823621
30
0
0
VERTEX
8
0
10
113.078711391564
20
58.9414885760868
30
0
0
VERTEX
8
0
10
114.070629912543
20
59.352535165145
30
0
0
VERTEX
8
0
10
115.062548433522
20
59.7582282981721
30
0
0
VERTEX
8
0
10
116.0544669545
20
60.1586922471202
30
0
0
VERTEX
8
0
10
117.046385475479
20
60.5540408219225
30
0
0
VERTEX
8
0
10
118.038303996458
20
60.9443787033115
30
0
0
VERTEX
8
0
10
119.030222517436
20
61.3298025538331
30
0
0
VERTEX
8
0
10
120.022141038415
20
61.7104019521179
30
0
0
VERTEX
8
0
10
121.014059559393
20
62.0862601848207
30
0
0
VERTEX
8
0
10
122.005978080372
20
62.4574549228953
30
0
0
VERTEX
8
0
10
122.997896601351
20
62.8240588029312
30
0
0
VERTEX
8
0
10
123.989815122329
20
63.1861399300074
30
0
0
VERTEX
8
0
10
124.981733643308
20
63.5437623150505
30
0
0
VERTEX
8
0
10
125.973652164287
20
63.8969862573595
30
0
0
VERTEX
8
0
10
126.965570685265
20
64.2458686806971
30
0
0
VERTEX
8
0
10
127.957489206244
20
64.5904634299789
30
0
0
VERTEX
8
0
10
128.949407727223
20
64.9308215342446
30
0
0
VERTEX
8
0
10
129.941326248201
20
65.2669914407809
30
0
0
VERTEX
8
0
10
130.93324476918
20
65.5990192241339
30
0
0
VERTEX
8
0
10
131.925163290158
20
65.9269487735652
30
0
0
VERTEX
8
0
10
132.917081811137
20
66.2508219615752
30
0
0
VERTEX
8
0
10
133.909000332116
20
66.570678795988
30
0
0
VERTEX
8
0
10
134.900918853094
20
66.8865575574278
30
0
0
VERTEX
8
0
10
135.892837374073
20
67.1984949241792
30
0
0
VERTEX
8
0
10
136.884755895052
20
67.5065260856878
30
0
0
VERTEX
8
0
10
137.87667441603
20
67.8106848460359
30
0
0
VERTEX
8
0
10
138.868592937009
20
68.111003718582
30
0
0
VERTEX
8
0
10
139.860511457987
20
68.4075140126069
30
0
0
VERTEX
8
0
10
140.852429978966
20
68.7002459128782
30
0
0
VERTEX
8
0
10
141.844348499945
20
68.9892285528466
30
0
0
VERTEX
8
0
10
142.836267020923
20
69.2744900821215
30
0
0
VERTEX
8
0
10
143.828185541902
20
69.5560577287558
30
0
0
VERTEX
8
0
10
144.820104062881
20
69.8339578569149
30
0
0
VERTEX
8
0
10
145.812022583859
20
70.1082160202882
30
0
0
VERTEX
8
0
10
146.803941104838
20
70.3788570116968
30
0
0
VERTEX
8
0
10
147.795859625817
20
70.6459049092136
30
0
0
VERTEX
8
0
10
148.787778146795
20
70.9093831191283
30
0
0
VERTEX
8
0
10
149.779696667774
20
71.1693144160304
30
0
0
VERTEX
8
0
10
150.771615188752
20
71.4257209802339
30
0
0
VERTEX
8
0
10
151.763533709731
20
71.6786244328186
30
0
0
VERTEX
8
0
10
152.75545223071
20
71.9280458684426
30
0
0
VERTEX
8
0
10
153.747370751688
20
72.1740058861435
30
0
0
VERTEX
8
0
10
154.739289272667
20
72.416524618269
30
0
0
SEQEND
8
0
0
POLYLINE
8
0
62
4
70
0
10
0
20
0
30
0
0
VERTEX
8
0
10
18.846451898594
20
0
30
0
0
VERTEX
8
0
10
19.8383704195727
20
0
30
0
0
VERTEX
8
0
10
20.8302889405513
20
0
30
0
0
VERTEX
8
0
10
21.8222074615299
20
0
30
0
0
VERTEX
8
0
10
22.8141259825086
20
0
30
0
0
VERTEX
8
0
10
23.8060445034872
20
0
30
0
0
VERTEX
8
0
10
24.7979630244659
20
0
30
0
0
VERTEX
8
0
10
25.7898815454445
20
0
30
0
0
VERTEX
8
0
10
26.7818000664231
20
0
30
0
0
VERTEX
8
0
10
27.7737185874018
20
0
30
0
0
VERTEX
8
0
10
28.7656371083804
20
0
30
0
0
VERTEX
8
0
10
29.757555629359
20
0
30
0
0
VERTEX
8
0
10
30.7494741503377
20
0
30
0
0
VERTEX
8
0
10
31.7413926713163
20
0
30
0
0
VERTEX
8
0
10
32.7333111922949
20
0
30
0
0
VERTEX
8
0
10
33.7252297132736
20
0
30
0
0
VERTEX
8
0
10
34.7171482342522
20
0
30
0
0
VERTEX
8
0
10
35.7090667552308
20
0
30
0
0
VERTEX
8
0
10
36.7009852762095
20
0
30
0
0
VERTEX
8
0
10
37.6929037971881
20
0
30
0
0
VERTEX
8
0
10
38.6848223181667
20
0
30
0
0
VERTEX
8
0
10
39.6767408391454
20
0
30
0
0
VERTEX
8
0
10
40.668659360124
20
0
30
0
0
VERTEX
8
0
10
41.6605778811026
20
0
30
0
0
VERTEX
8
0
10
42.6524964020813
20
0
30
0
0
VERTEX
8
0
10
43.6444149230599
20
0
30
0
0
VERTEX
8
0
10
44.6363334440385
20
0
30
0
0
VERTEX
8
0
10
45.6282519650172
20
19.899677154032
30
0
0
VERTEX
8
0
10
46.6201704859958
20
20.3895039333876
30
0
0
VERTEX
8
0
10
47.6120890069745
20
20.9114411436567
30
0
0
VERTEX
8
0
10
48.6040075279531
20
21.4636331232332
30
0
0
VERTEX
8
0
10
49.5959260489317
20
22.043635640949
30
0
0
VERTEX
8
0
10
50.5878445699104
20
22.6492326517447
30
0
0
VERTEX
8
0
10
51.579763090889
20
23.2759894693667
30
0
0
VERTEX
8
0
10
52.5716816118676
20
23.9243302724101
30
0
0
VERTEX
8
0
10
53.5636001328463
20
24.6004362427636
30
0
0
VERTEX
8
0
10
54.5555186538249
20
25.3029807910106
30
0
0
VERTEX
8
0
10
55.5474371748035
20
26.0243630470078
30
0
0
VERTEX
8
0
10
56.5393556957822
20
26.7624731444866
30
0
0
VERTEX
8
0
10
57.5312742167608
20
27.5162970116122
30
0
0
VERTEX
8
0
10
58.5231927377394
20
28.2845906944338
30
0
0
VERTEX
8
0
10
59.5151112587181
20
29.0600143895492
30
0
0
VERTEX
8
0
10
60.5070297796967
20
29.8483538708978
30
0
0
VERTEX
8
0
10
61.4989483006753
20
30.649737553078
30
0
0
VERTEX
8
0
10
62.490866821654
20
31.4629153667689
30
0
0
VERTEX
8
0
10
63.4827853426326
20
32.28550630694
30
0
0
VERTEX
8
0
10
64.4747038636112
20
33.120611554886
30
0
0
VERTEX
8
0
10
65.4666223845899
20
33.9642700103795
30
0
0
VERTEX
8
0
10
66.4585409055685
20
34.8154949179293
30
0
0
VERTEX
8
0
10
67.4504594265471
20
35.6341120132066
30
0
0
VERTEX
8
0
10
68.4423779475258
20
36.465801159119
30
0
0
VERTEX
8
0
10
69.4342964685044
20
37.1575643967481
30
0
0
VERTEX
8
0
10
70.426214989483
20
37.7506861232517
30
0
0
VERTEX
8
0
10
71.4181335104617
20
38.3434287213939
30
0
0
VERTEX
8
0
10
72.4100520314403
20
38.8727369997717
30
0
0
VERTEX
8
0
10
73.4019705524189
20
39.3968664359638
30
0
0
VERTEX
8
0
10
74.3938890733976
20
39.9203871399992
30
0
0
VERTEX
8
0
10
75.3858075943762
20
40.4432753884924
30
0
0
VERTEX
8
0
10
76.3777261153549
20
40.9655076923451
30
0
0
VERTEX
8
0
10
77.3696446363335
20
41.4856456024368
30
0
0
VERTEX
8
0
10
78.3615631573121
20
42.00417775406
30
0
0
VERTEX
8
0
10
79.3534816782908
20
42.5219873373971
30
0
0
VERTEX
8
0
10
80.3454001992694
20
43.0390515659298
30
0
0
VERTEX
8
0
10
81.337318720248
20
43.5553478813149
30
0
0
VERTEX
8
0
10
82.3292372412267
20
44.0708539510697
30
0
0
VERTEX
8
0
10
83.3211557622053
20
44.5855476663707
30
0
0
VERTEX
8
0
10
84.3130742831839
20
45.0994071399452
30
0
0
VERTEX
8
0
10
85.3049928041626
20
45.6051730256271
30
0
0
VERTEX
8
0
10
86.2969113251412
20
46.1057579991212
30
0
0
VERTEX
8
0
10
87.2888298461198
20
46.6054585377505
30
0
0
VERTEX
8
0
10
88.2807483670985
20
47.062031618067
30
0
0
VERTEX
8
0
10
89.2726668880771
20
47.5163150786271
30
0
0
VERTEX
8
0
10
90.2645854090557
20
47.9697990793048
30
0
0
VERTEX
8
0
10
91.2565039300344
20
48.4224553183414
30
0
0
VERTEX
8
0
10
92.248422451013
20
48.8742559211667
30
0
0
VERTEX
8
0
10
93.2403409719916
20
49.3237141374537
30
0
0
VERTEX
8
0
10
94.2322594929703
20
49.7714599824837
30
0
0
VERTEX
8
0
10
95.2241780139489
20
50.2182056519805
30
0
0
VERTEX
8
0
10
96.2160965349275
20
50.6631195224546
30
0
0
VERTEX
8
0
10
97.2080150559062
20
51.1051079011783
30
0
0
VERTEX
8
0
10
98.1999335768848
20
51.5440178140845
30
0
0
VERTEX
8
0
10
99.1918520978635
20
51.982824284587
30
0
0
VERTEX
8
0
10
100.183770618842
20
52.4178703539823
30
0
0
VERTEX
8
0
10
101.175689139821
20
52.8484307890094
30
0
0
VERTEX
8
0
10
102.167607660799
20
53.2752491310456
30
0
0
VERTEX
8
0
10
103.159526181778
20
53.6991080536477
30
0
0
VERTEX
8
0
10
104.151444702757
20
54.1842862743481
30
0
0
VERTEX
8
0
10
105.143363223735
20
54.6665991291982
30
0
0
VERTEX
8
0
10
106.135281744714
20
55.1459940444478
30
0
0
VERTEX
8
0
10
107.127200265693
20
55.6762442374816
30
0
0
VERTEX
8
0
10
108.119118786671
20
56.190267822969
30
0
0
VERTEX
8
0
10
109.11103730765
20
56.7031514634406
30
0
0
VERTEX
8
0
10
110.102955828628
20
57.2141424726709
30
0
0
VERTEX
8
0
10
111.094874349607
20
57.7225444020828
30
0
0
VERTEX
8
0
10
112.086792870586
20
58.2306875364824
30
0
0
VERTEX
8
0
10
113.078711391564
20
58.7362748877083
30
0
0
VERTEX
8
0
10
114.070629912543
20
59.2393672237004
30
0
0
VERTEX
8
0
10
115.062548433522
20
59.7337931938328
30
0
0
VERTEX
8
0
10
116.0544669545
20
60.227364178495
30
0
0
VERTEX
8
0
10
117.046385475479
20
60.6882104449561
30
0
0
VERTEX
8
0
10
118.038303996458
20
61.1330818907905
30
0
0
VERTEX
8
0
10
119.030222517436
20
61.5753777489074
30
0
0
VERTEX
8
0
10
120.022141038415
20
62.1463261763213
30
0
0
VERTEX
8
0
10
121.014059559393
20
62.7115536159134
30
0
0
VERTEX
8
0
10
122.005978080372
20
63.2751298613936
30
0
0
VERTEX
8
0
10
122.997896601351
20
63.5318763613238
30
0
0
VERTEX
8
0
10
123.989815122329
20
63.8686291232486
30
0
0
VERTEX
8
0
10
124.981733643308
20
64.2227666853401
30
0
0
VERTEX
8
0
10
125.973652164287
20
64.5825339436334
30
0
0
VERTEX
8
0
10
126.965570685265
20
64.9398378968837
30
0
0
VERTEX
8
0
10
127.957489206244
20
65.2971229189172
30
0
0
VERTEX
8
0
10
128.949407727223
20
65.6518510476138
30
0
0
VERTEX
8
0
10
129.941326248201
20
66.0041465931349
30
0
0
VERTEX
8
0
10
130.93324476918
20
66.3508061371922
30
0
0
VERTEX
8
0
10
131.925163290158
20
66.6959557340172
30
0
0
VERTEX
8
0
10
132.917081811137
20
67.038707668808
30
0
0
VERTEX
8
0
10
133.909000332116
20
67.379072510302
30
0
0
VERTEX
8
0
10
134.900918853094
20
67.7170607510129
30
0
0
VERTEX
8
0
10
135.892837374073
20
68.0526828128077
30
0
0
VERTEX
8
0
10
136.884755895052
20
68.3859490522688
30
0
0
VERTEX
8
0
10
137.87667441603
20
68.7168697658443
30
0
0
VERTEX
8
0
10
138.868592937009
20
69.0324835912124
30
0
0
VERTEX
8
0
10
139.860511457987
20
69.3495141549097
30
0
0
VERTEX
8
0
10
140.852429978966
20
69.6453835643022
30
0
0
VERTEX
8
0
10
141.844348499945
20
69.9324722952223
30
0
0
VERTEX
8
0
10
142.836267020923
20
70.2173071485356
30
0
0
VERTEX
8
0
10
143.828185541902
20
70.4949228092477
30
0
0
VERTEX
8
0
10
144.820104062881
20
70.7706849052401
30
0
0
VERTEX
8
0
10
145.812022583859
20
71.0442217737955
30
0
0
VERTEX
8
0
10
146.803941104838
20
71.3318061668102
30
0
0
VERTEX
8
0
10
147.795859625817
20
71.6123326924467
30
0
0
VERTEX
8
0
10
148.787778146795
20
71.8854196902126
30
0
0
VERTEX
8
0
10
149.779696667774
20
72.1546487268273
30
0
0
VERTEX
8
0
10
150.771615188752
20
72.4216753312592
30
0
0
VERTEX
8
0
10
151.763533709731
20
72.6840004264297
30
0
0
VERTEX
8
0
10
152.75545223071
20
72.9443655354282
30
0
0
VERTEX
8
0
10
153.747370751688
20
73.2025518953335
30
0
0
VERTEX
8
0
10
154.739289272667
20
73.4549110144488
30
0
0
SEQEND
8
0
0
ENDSEC
0
EOF
