0
SECTION
2
HEADER
9
$ACADVER
1
AC1009
0
ENDSEC
0
SECTION
2
ENTITIES
0
POLYLINE
8
0
62
0
70
1
10
0
20
0
30
0
0
VERTEX
8
0
10
0
20
0
30
0
0
VERTEX
8
0
10
0
20
126.998
30
0
0
VERTEX
8
0
10
179.2
20
126.998
30
0
0
VERTEX
8
0
10
179.2
20
0
30
0
0
SEQEND
8
0
0
TEXT
8
0
62
0
10
0
20
-12
30
0
40
8
1
0
50
0
0
LINE
8
0
62
0
10
7.79130434782609
20
0
30
0
11
7.79130434782609
21
3.2
31
0
0
LINE
8
0
62
0
10
7.79130434782609
20
126.998
30
0
11
7.79130434782609
21
123.798
31
0
0
LINE
8
0
62
0
10
15.5826086956522
20
0
30
0
11
15.5826086956522
21
3.2
31
0
0
LINE
8
0
62
0
10
15.5826086956522
20
126.998
30
0
11
15.5826086956522
21
123.798
31
0
0
LINE
8
0
62
0
10
23.3739130434783
20
0
30
0
11
23.3739130434783
21
3.2
31
0
0
LINE
8
0
62
0
10
23.3739130434783
20
126.998
30
0
11
23.3739130434783
21
123.798
31
0
0
LINE
8
0
62
0
10
31.1652173913043
20
0
30
0
11
31.1652173913043
21
3.2
31
0
0
LINE
8
0
62
0
10
31.1652173913043
20
126.998
30
0
11
31.1652173913043
21
123.798
31
0
0
LINE
8
0
62
0
10
38.9565217391304
20
0
30
0
11
38.9565217391304
21
6.4
31
0
0
LINE
8
0
62
0
10
38.9565217391304
20
126.998
30
0
11
38.9565217391304
21
120.598
31
0
0
TEXT
8
0
62
0
10
38.9565217391304
20
-12
30
0
40
8
1
5
50
0
0
LINE
8
0
62
0
10
46.7478260869565
20
0
30
0
11
46.7478260869565
21
3.2
31
0
0
LINE
8
0
62
0
10
46.7478260869565
20
126.998
30
0
11
46.7478260869565
21
123.798
31
0
0
LINE
8
0
62
0
10
54.5391304347826
20
0
30
0
11
54.5391304347826
21
3.2
31
0
0
LINE
8
0
62
0
10
54.5391304347826
20
126.998
30
0
11
54.5391304347826
21
123.798
31
0
0
LINE
8
0
62
0
10
62.3304347826087
20
0
30
0
11
62.3304347826087
21
3.2
31
0
0
LINE
8
0
62
0
10
62.3304347826087
20
126.998
30
0
11
62.3304347826087
21
123.798
31
0
0
LINE
8
0
62
0
10
70.1217391304348
20
0
30
0
11
70.1217391304348
21
3.2
31
0
0
LINE
8
0
62
0
10
70.1217391304348
20
126.998
30
0
11
70.1217391304348
21
123.798
31
0
0
LINE
8
0
62
0
10
77.9130434782609
20
0
30
0
11
77.9130434782609
21
6.4
31
0
0
LINE
8
0
62
0
10
77.9130434782609
20
126.998
30
0
11
77.9130434782609
21
120.598
31
0
0
TEXT
8
0
62
0
10
77.9130434782609
20
-12
30
0
40
8
1
10
50
0
0
LINE
8
0
62
0
10
85.7043478260869
20
0
30
0
11
85.7043478260869
21
3.2
31
0
0
LINE
8
0
62
0
10
85.7043478260869
20
126.998
30
0
11
85.7043478260869
21
123.798
31
0
0
LINE
8
0
62
0
10
93.495652173913
20
0
30
0
11
93.495652173913
21
3.2
31
0
0
LINE
8
0
62
0
10
93.495652173913
20
126.998
30
0
11
93.495652173913
21
123.798
31
0
0
LINE
8
0
62
0
10
101.286956521739
20
0
30
0
11
101.286956521739
21
3.2
31
0
0
LINE
8
0
62
0
10
101.286956521739
20
126.998
30
0
11
101.286956521739
21
123.798
31
0
0
LINE
8
0
62
0
10
109.078260869565
20
0
30
0
11
109.078260869565
21
3.2
31
0
0
LINE
8
0
62
0
10
109.078260869565
20
126.998
30
0
11
109.078260869565
21
123.798
31
0
0
LINE
8
0
62
0
10
116.869565217391
20
0
30
0
11
116.869565217391
21
6.4
31
0
0
LINE
8
0
62
0
10
116.869565217391
20
126.998
30
0
11
116.869565217391
21
120.598
31
0
0
TEXT
8
0
62
0
10
116.869565217391
20
-12
30
0
40
8
1
15
50
0
0
LINE
8
0
62
0
10
124.660869565217
20
0
30
0
11
124.660869565217
21
3.2
31
0
0
LINE
8
0
62
0
10
124.660869565217
20
126.998
30
0
11
124.660869565217
21
123.798
31
0
0
LINE
8
0
62
0
10
132.452173913043
20
0
30
0
11
132.452173913043
21
3.2
31
0
0
LINE
8
0
62
0
10
132.452173913043
20
126.998
30
0
11
132.452173913043
21
123.798
31
0
0
LINE
8
0
62
0
10
140.24347826087
20
0
30
0
11
140.24347826087
21
3.2
31
0
0
LINE
8
0
62
0
10
140.24347826087
20
126.998
30
0
11
140.24347826087
21
123.798
31
0
0
LINE
8
0
62
0
10
148.034782608696
20
0
30
0
11
148.034782608696
21
3.2
31
0
0
LINE
8
0
62
0
10
148.034782608696
20
126.998
30
0
11
148.034782608696
21
123.798
31
0
0
LINE
8
0
62
0
10
155.826086956522
20
0
30
0
11
155.826086956522
21
6.4
31
0
0
LINE
8
0
62
0
10
155.826086956522
20
126.998
30
0
11
155.826086956522
21
120.598
31
0
0
TEXT
8
0
62
0
10
155.826086956522
20
-12
30
0
40
8
1
20
50
0
0
LINE
8
0
62
0
10
163.617391304348
20
0
30
0
11
163.617391304348
21
3.2
31
0
0
LINE
8
0
62
0
10
163.617391304348
20
126.998
30
0
11
163.617391304348
21
123.798
31
0
0
LINE
8
0
62
0
10
171.408695652174
20
0
30
0
11
171.408695652174
21
3.2
31
0
0
LINE
8
0
62
0
10
171.408695652174
20
126.998
30
0
11
171.408695652174
21
123.798
31
0
0
TEXT
8
0
62
0
10
-4
20
-4
30
0
40
8
1
0
50
0
0
LINE
8
0
62
0
10
0
20
7.25702857142857
30
0
11
3.2
21
7.25702857142857
31
0
0
LINE
8
0
62
0
10
179.2
20
7.25702857142857
30
0
11
176
21
7.25702857142857
31
0
0
LINE
8
0
62
0
10
0
20
14.5140571428571
30
0
11
3.2
21
14.5140571428571
31
0
0
LINE
8
0
62
0
10
179.2
20
14.5140571428571
30
0
11
176
21
14.5140571428571
31
0
0
LINE
8
0
62
0
10
0
20
21.7710857142857
30
0
11
3.2
21
21.7710857142857
31
0
0
LINE
8
0
62
0
10
179.2
20
21.7710857142857
30
0
11
176
21
21.7710857142857
31
0
0
LINE
8
0
62
0
10
0
20
29.0281142857143
30
0
11
3.2
21
29.0281142857143
31
0
0
LINE
8
0
62
0
10
179.2
20
29.0281142857143
30
0
11
176
21
29.0281142857143
31
0
0
LINE
8
0
62
0
10
0
20
36.2851428571429
30
0
11
6.4
21
36.2851428571429
31
0
0
LINE
8
0
62
0
10
179.2
20
36.2851428571429
30
0
11
172.8
21
36.2851428571429
31
0
0
TEXT
8
0
62
0
10
-4
20
32.2851428571429
30
0
40
8
1
50
50
0
0
LINE
8
0
62
0
10
0
20
43.5421714285714
30
0
11
3.2
21
43.5421714285714
31
0
0
LINE
8
0
62
0
10
179.2
20
43.5421714285714
30
0
11
176
21
43.5421714285714
31
0
0
LINE
8
0
62
0
10
0
20
50.7992
30
0
11
3.2
21
50.7992
31
0
0
LINE
8
0
62
0
10
179.2
20
50.7992
30
0
11
176
21
50.7992
31
0
0
LINE
8
0
62
0
10
0
20
58.0562285714286
30
0
11
3.2
21
58.0562285714286
31
0
0
LINE
8
0
62
0
10
179.2
20
58.0562285714286
30
0
11
176
21
58.0562285714286
31
0
0
LINE
8
0
62
0
10
0
20
65.3132571428571
30
0
11
3.2
21
65.3132571428571
31
0
0
LINE
8
0
62
0
10
179.2
20
65.3132571428571
30
0
11
176
21
65.3132571428571
31
0
0
LINE
8
0
62
0
10
0
20
72.5702857142857
30
0
11
6.4
21
72.5702857142857
31
0
0
LINE
8
0
62
0
10
179.2
20
72.5702857142857
30
0
11
172.8
21
72.5702857142857
31
0
0
TEXT
8
0
62
0
10
-4
20
68.5702857142857
30
0
40
8
1
100
50
0
0
LINE
8
0
62
0
10
0
20
79.8273142857143
30
0
11
3.2
21
79.8273142857143
31
0
0
LINE
8
0
62
0
10
179.2
20
79.8273142857143
30
0
11
176
21
79.8273142857143
31
0
0
LINE
8
0
62
0
10
0
20
87.0843428571429
30
0
11
3.2
21
87.0843428571429
31
0
0
LINE
8
0
62
0
10
179.2
20
87.0843428571429
30
0
11
176
21
87.0843428571429
31
0
0
LINE
8
0
62
0
10
0
20
94.3413714285714
30
0
11
3.2
21
94.3413714285714
31
0
0
LINE
8
0
62
0
10
179.2
20
94.3413714285714
30
0
11
176
21
94.3413714285714
31
0
0
LINE
8
0
62
0
10
0
20
101.5984
30
0
11
3.2
21
101.5984
31
0
0
LINE
8
0
62
0
10
179.2
20
101.5984
30
0
11
176
21
101.5984
31
0
0
LINE
8
0
62
0
10
0
20
108.855428571429
30
0
11
6.4
21
108.855428571429
31
0
0
LINE
8
0
62
0
10
179.2
20
108.855428571429
30
0
11
172.8
21
108.855428571429
31
0
0
TEXT
8
0
62
0
10
-4
20
104.855428571429
30
0
40
8
1
150
50
0
0
LINE
8
0
62
0
10
0
20
116.112457142857
30
0
11
3.2
21
116.112457142857
31
0
0
LINE
8
0
62
0
10
179.2
20
116.112457142857
30
0
11
176
21
116.112457142857
31
0
0
LINE
8
0
62
0
10
0
20
123.369485714286
30
0
11
3.2
21
123.369485714286
31
0
0
LINE
8
0
62
0
10
179.2
20
123.369485714286
30
0
11
176
21
123.369485714286
31
0
0
TEXT
8
0
62
0
10
89.6
20
-32
30
0
40
10
1
R (kpc)
50
0
0
TEXT
8
0
62
0
10
-24
20
63.499
30
0
40
10
1
V (km/s)
50
90
0
TEXT
8
0
62
0
10
72.6
20
141.998
30
0
40
11
1
V vs. R
50
0
0
POLYLINE
8
0
62
5
70
0
10
0
20
0
30
0
0
VERTEX
8
0
10
3.11652173913043
20
29.9572767126566
30
0
0
VERTEX
8
0
10
3.89565217391304
20
32.8047288098153
30
0
0
VERTEX
8
0
10
4.67478260869565
20
35.4148932322108
30
0
0
VERTEX
8
0
10
5.45391304347826
20
38.9742083536591
30
0
0
VERTEX
8
0
10
6.23304347826087
20
40.9911535891465
30
0
0
VERTEX
8
0
10
7.01217391304348
20
41.4657289386729
30
0
0
VERTEX
8
0
10
7.79130434782609
20
41.8216604508178
30
0
0
VERTEX
8
0
10
8.57043478260869
20
42.4148796377259
30
0
0
VERTEX
8
0
10
9.3495652173913
20
43.3640303367788
30
0
0
VERTEX
8
0
10
10.1286956521739
20
44.7877563853581
30
0
0
VERTEX
8
0
10
10.9078260869565
20
46.9233454582271
30
0
0
VERTEX
8
0
10
11.6869565217391
20
48.3470715068065
30
0
0
VERTEX
8
0
10
12.4660869565217
20
50.1267290675307
30
0
0
VERTEX
8
0
10
13.2452173913043
20
52.0250304656364
30
0
0
VERTEX
8
0
10
14.024347826087
20
54.5165510506503
30
0
0
VERTEX
8
0
10
14.8034782608696
20
56.5334962861377
30
0
0
VERTEX
8
0
10
15.5826086956522
20
57.7199346599538
30
0
0
VERTEX
8
0
10
16.3617391304348
20
58.9063730337699
30
0
0
VERTEX
8
0
10
17.1408695652174
20
59.8555237328228
30
0
0
VERTEX
8
0
10
17.92
20
60.8046744318757
30
0
0
VERTEX
8
0
10
18.6991304347826
20
61.1606059440206
30
0
0
VERTEX
8
0
10
19.4782608695652
20
60.4487429197309
30
0
0
VERTEX
8
0
10
20.2573913043478
20
59.8555237328228
30
0
0
VERTEX
8
0
10
21.0365217391304
20
59.3809483832964
30
0
0
VERTEX
8
0
10
21.8156521739131
20
59.0250168711515
30
0
0
VERTEX
8
0
10
22.5947826086957
20
58.7877291963883
30
0
0
VERTEX
8
0
10
23.3739130434783
20
58.5504415216251
30
0
0
VERTEX
8
0
10
24.1530434782609
20
58.3131538468619
30
0
0
VERTEX
8
0
10
24.9321739130435
20
58.1945100094802
30
0
0
VERTEX
8
0
10
25.7113043478261
20
58.0758661720986
30
0
0
VERTEX
8
0
10
26.4904347826087
20
58.0758661720986
30
0
0
VERTEX
8
0
10
27.2695652173913
20
58.0758661720986
30
0
0
VERTEX
8
0
10
28.0486956521739
20
58.3131538468619
30
0
0
VERTEX
8
0
10
28.8278260869565
20
58.7877291963883
30
0
0
VERTEX
8
0
10
29.6069565217391
20
59.2623045459148
30
0
0
VERTEX
8
0
10
30.3860869565218
20
59.7368798954412
30
0
0
VERTEX
8
0
10
31.1652173913044
20
60.092811407586
30
0
0
VERTEX
8
0
10
31.944347826087
20
60.4487429197309
30
0
0
VERTEX
8
0
10
32.7234782608696
20
60.9233182692573
30
0
0
VERTEX
8
0
10
33.5026086956522
20
61.3978936187838
30
0
0
VERTEX
8
0
10
34.2817391304348
20
61.1606059440206
30
0
0
VERTEX
8
0
10
35.0608695652174
20
61.1606059440205
30
0
0
VERTEX
8
0
10
35.84
20
60.9233182692573
30
0
0
VERTEX
8
0
10
36.6191304347826
20
60.6860305944941
30
0
0
VERTEX
8
0
10
37.3982608695652
20
60.4487429197309
30
0
0
VERTEX
8
0
10
38.1773913043478
20
60.3300990823493
30
0
0
VERTEX
8
0
10
38.9565217391304
20
60.092811407586
30
0
0
VERTEX
8
0
10
39.735652173913
20
59.9741675702044
30
0
0
VERTEX
8
0
10
40.5147826086956
20
59.499592220678
30
0
0
VERTEX
8
0
10
41.2939130434782
20
59.0250168711515
30
0
0
VERTEX
8
0
10
42.0730434782608
20
58.5504415216251
30
0
0
VERTEX
8
0
10
42.8521739130434
20
58.3131538468619
30
0
0
VERTEX
8
0
10
43.6313043478261
20
57.8385784973354
30
0
0
VERTEX
8
0
10
44.4104347826087
20
57.364003147809
30
0
0
VERTEX
8
0
10
45.1895652173913
20
56.8894277982825
30
0
0
VERTEX
8
0
10
45.9686956521739
20
56.6521401235193
30
0
0
VERTEX
8
0
10
46.7478260869565
20
56.4148524487561
30
0
0
VERTEX
8
0
10
47.5269565217391
20
56.1775647739928
30
0
0
VERTEX
8
0
10
48.3060869565217
20
55.9402770992296
30
0
0
VERTEX
8
0
10
49.0852173913043
20
55.7029894244664
30
0
0
VERTEX
8
0
10
49.8643478260869
20
55.3470579123215
30
0
0
VERTEX
8
0
10
50.6434782608695
20
55.1097702375584
30
0
0
VERTEX
8
0
10
51.4226086956521
20
54.9911264001767
30
0
0
VERTEX
8
0
10
52.2017391304347
20
54.7538387254135
30
0
0
VERTEX
8
0
10
52.9808695652173
20
54.5165510506503
30
0
0
VERTEX
8
0
10
53.7599999999999
20
54.5165510506503
30
0
0
VERTEX
8
0
10
54.5391304347825
20
54.5165510506503
30
0
0
VERTEX
8
0
10
55.3182608695651
20
54.279263375887
30
0
0
VERTEX
8
0
10
56.0973913043477
20
54.2792633758871
30
0
0
VERTEX
8
0
10
56.8765217391304
20
54.2792633758871
30
0
0
VERTEX
8
0
10
57.655652173913
20
54.0419757011238
30
0
0
VERTEX
8
0
10
58.4347826086956
20
54.0419757011238
30
0
0
VERTEX
8
0
10
59.2139130434782
20
54.0419757011238
30
0
0
VERTEX
8
0
10
59.9930434782608
20
53.9233318637422
30
0
0
VERTEX
8
0
10
60.7721739130434
20
53.686044188979
30
0
0
VERTEX
8
0
10
61.551304347826
20
53.5674003515974
30
0
0
VERTEX
8
0
10
62.3304347826086
20
53.3301126768341
30
0
0
VERTEX
8
0
10
63.1095652173912
20
53.0928250020709
30
0
0
VERTEX
8
0
10
63.8886956521738
20
53.0928250020709
30
0
0
VERTEX
8
0
10
64.6678260869564
20
52.8555373273077
30
0
0
VERTEX
8
0
10
65.446956521739
20
52.4996058151629
30
0
0
VERTEX
8
0
10
66.2260869565216
20
52.143674303018
30
0
0
VERTEX
8
0
10
67.0052173913042
20
51.9063866282548
30
0
0
VERTEX
8
0
10
67.7843478260868
20
51.6690989534916
30
0
0
VERTEX
8
0
10
68.5634782608694
20
51.1945236039651
30
0
0
VERTEX
8
0
10
69.342608695652
20
50.9572359292019
30
0
0
VERTEX
8
0
10
70.1217391304346
20
50.7199482544387
30
0
0
VERTEX
8
0
10
70.9008695652173
20
50.4826605796755
30
0
0
VERTEX
8
0
10
71.6799999999999
20
50.008085230149
30
0
0
VERTEX
8
0
10
72.4591304347825
20
49.7707975553858
30
0
0
VERTEX
8
0
10
73.2382608695651
20
49.5335098806226
30
0
0
VERTEX
8
0
10
74.0173913043477
20
49.0589345310961
30
0
0
VERTEX
8
0
10
74.7965217391303
20
48.8216468563329
30
0
0
VERTEX
8
0
10
75.5756521739129
20
48.5843591815697
30
0
0
VERTEX
8
0
10
76.3547826086955
20
48.3470715068064
30
0
0
VERTEX
8
0
10
77.1339130434781
20
48.1097838320432
30
0
0
VERTEX
8
0
10
77.9130434782607
20
47.9911399946616
30
0
0
VERTEX
8
0
10
78.6921739130433
20
47.87249615728
30
0
0
VERTEX
8
0
10
79.4713043478259
20
47.6352084825168
30
0
0
VERTEX
8
0
10
80.2504347826085
20
47.5165646451352
30
0
0
VERTEX
8
0
10
81.0295652173911
20
47.3979208077536
30
0
0
VERTEX
8
0
10
81.8086956521737
20
47.1606331329903
30
0
0
VERTEX
8
0
10
82.5878260869563
20
47.1606331329903
30
0
0
VERTEX
8
0
10
83.366956521739
20
46.9233454582271
30
0
0
VERTEX
8
0
10
84.1460869565216
20
46.8047016208455
30
0
0
VERTEX
8
0
10
84.9252173913042
20
46.6860577834639
30
0
0
VERTEX
8
0
10
85.7043478260868
20
46.5674139460823
30
0
0
VERTEX
8
0
10
86.4834782608694
20
46.4487701087007
30
0
0
VERTEX
8
0
10
87.262608695652
20
46.330126271319
30
0
0
VERTEX
8
0
10
88.0417391304346
20
46.2114824339374
30
0
0
VERTEX
8
0
10
88.8208695652172
20
45.9741947591742
30
0
0
VERTEX
8
0
10
89.5999999999998
20
45.9741947591742
30
0
0
VERTEX
8
0
10
90.3791304347824
20
45.736907084411
30
0
0
VERTEX
8
0
10
91.158260869565
20
45.6182632470293
30
0
0
VERTEX
8
0
10
91.9373913043476
20
45.4996194096478
30
0
0
VERTEX
8
0
10
92.7165217391302
20
45.3809755722661
30
0
0
VERTEX
8
0
10
93.4956521739128
20
45.2623317348845
30
0
0
VERTEX
8
0
10
94.2747826086954
20
45.1436878975029
30
0
0
VERTEX
8
0
10
95.053913043478
20
45.0250440601213
30
0
0
VERTEX
8
0
10
95.8330434782606
20
44.7877563853581
30
0
0
VERTEX
8
0
10
96.6121739130433
20
44.5504687105948
30
0
0
VERTEX
8
0
10
97.3913043478259
20
44.4318248732132
30
0
0
VERTEX
8
0
10
98.1704347826085
20
44.3131810358316
30
0
0
VERTEX
8
0
10
98.9495652173911
20
44.0758933610684
30
0
0
VERTEX
8
0
10
99.7286956521737
20
43.8386056863052
30
0
0
VERTEX
8
0
10
100.507826086956
20
43.7199618489236
30
0
0
VERTEX
8
0
10
101.286956521739
20
43.601318011542
30
0
0
VERTEX
8
0
10
102.066086956521
20
43.2453864993971
30
0
0
VERTEX
8
0
10
102.845217391304
20
43.1267426620155
30
0
0
VERTEX
8
0
10
103.624347826087
20
42.8894549872523
30
0
0
VERTEX
8
0
10
104.403478260869
20
42.6521673124891
30
0
0
VERTEX
8
0
10
105.182608695652
20
42.4148796377258
30
0
0
VERTEX
8
0
10
105.961739130435
20
42.1775919629626
30
0
0
VERTEX
8
0
10
106.740869565217
20
41.9403042881994
30
0
0
VERTEX
8
0
10
107.52
20
41.7030166134362
30
0
0
VERTEX
8
0
10
108.299130434782
20
41.5843727760545
30
0
0
VERTEX
8
0
10
109.078260869565
20
41.465728938673
30
0
0
VERTEX
8
0
10
109.857391304348
20
41.2284412639097
30
0
0
VERTEX
8
0
10
110.63652173913
20
40.9911535891465
30
0
0
VERTEX
8
0
10
111.415652173913
20
40.7538659143833
30
0
0
VERTEX
8
0
10
112.194782608695
20
40.7538659143833
30
0
0
VERTEX
8
0
10
112.973913043478
20
40.51657823962
30
0
0
VERTEX
8
0
10
113.753043478261
20
40.2792905648568
30
0
0
VERTEX
8
0
10
114.532173913043
20
40.1606467274752
30
0
0
VERTEX
8
0
10
115.311304347826
20
39.923359052712
30
0
0
VERTEX
8
0
10
116.090434782608
20
39.8047152153304
30
0
0
VERTEX
8
0
10
116.869565217391
20
39.5674275405672
30
0
0
VERTEX
8
0
10
117.648695652174
20
39.4487837031855
30
0
0
VERTEX
8
0
10
118.427826086956
20
39.3301398658039
30
0
0
VERTEX
8
0
10
119.206956521739
20
39.0928521910407
30
0
0
VERTEX
8
0
10
119.986086956521
20
38.9742083536591
30
0
0
VERTEX
8
0
10
120.765217391304
20
38.8555645162775
30
0
0
VERTEX
8
0
10
121.544347826087
20
38.6182768415142
30
0
0
VERTEX
8
0
10
122.323478260869
20
38.6182768415143
30
0
0
VERTEX
8
0
10
123.102608695652
20
38.380989166751
30
0
0
VERTEX
8
0
10
123.881739130434
20
38.2623453293694
30
0
0
VERTEX
8
0
10
124.660869565217
20
38.1437014919878
30
0
0
VERTEX
8
0
10
125.44
20
37.9064138172246
30
0
0
VERTEX
8
0
10
126.219130434782
20
37.9064138172246
30
0
0
VERTEX
8
0
10
126.998260869565
20
37.6691261424614
30
0
0
VERTEX
8
0
10
127.777391304348
20
37.6691261424614
30
0
0
VERTEX
8
0
10
128.55652173913
20
37.4318384676982
30
0
0
VERTEX
8
0
10
129.335652173913
20
37.3131946303165
30
0
0
VERTEX
8
0
10
130.114782608695
20
37.1945507929349
30
0
0
VERTEX
8
0
10
130.893913043478
20
37.0759069555533
30
0
0
VERTEX
8
0
10
131.673043478261
20
36.9572631181717
30
0
0
VERTEX
8
0
10
132.452173913043
20
36.7199754434085
30
0
0
VERTEX
8
0
10
133.231304347826
20
36.7199754434085
30
0
0
VERTEX
8
0
10
134.010434782608
20
36.4826877686452
30
0
0
VERTEX
8
0
10
134.789565217391
20
36.3640439312636
30
0
0
VERTEX
8
0
10
135.568695652174
20
36.245400093882
30
0
0
VERTEX
8
0
10
136.347826086956
20
36.1267562565004
30
0
0
VERTEX
8
0
10
137.126956521739
20
36.0081124191188
30
0
0
VERTEX
8
0
10
137.906086956522
20
35.8894685817372
30
0
0
VERTEX
8
0
10
138.685217391304
20
35.7708247443556
30
0
0
VERTEX
8
0
10
139.464347826087
20
35.652180906974
30
0
0
VERTEX
8
0
10
140.243478260869
20
35.5335370695924
30
0
0
VERTEX
8
0
10
141.022608695652
20
35.4148932322107
30
0
0
VERTEX
8
0
10
141.801739130435
20
35.2962493948291
30
0
0
VERTEX
8
0
10
142.580869565217
20
35.1776055574475
30
0
0
VERTEX
8
0
10
143.36
20
35.0589617200659
30
0
0
VERTEX
8
0
10
144.139130434783
20
34.9403178826843
30
0
0
VERTEX
8
0
10
144.918260869565
20
34.8216740453027
30
0
0
VERTEX
8
0
10
145.697391304348
20
34.5843863705395
30
0
0
VERTEX
8
0
10
146.47652173913
20
34.5843863705394
30
0
0
VERTEX
8
0
10
147.255652173913
20
34.4657425331579
30
0
0
VERTEX
8
0
10
148.034782608696
20
34.3470986957762
30
0
0
VERTEX
8
0
10
148.813913043478
20
34.109811021013
30
0
0
VERTEX
8
0
10
149.593043478261
20
34.109811021013
30
0
0
VERTEX
8
0
10
150.372173913043
20
33.9911671836314
30
0
0
VERTEX
8
0
10
151.151304347826
20
33.8725233462498
30
0
0
VERTEX
8
0
10
151.930434782609
20
33.8725233462498
30
0
0
VERTEX
8
0
10
152.709565217391
20
33.7538795088681
30
0
0
VERTEX
8
0
10
153.488695652174
20
33.6352356714866
30
0
0
VERTEX
8
0
10
154.267826086957
20
33.6352356714865
30
0
0
VERTEX
8
0
10
155.046956521739
20
33.6352356714866
30
0
0
VERTEX
8
0
10
155.826086956522
20
33.6352356714866
30
0
0
VERTEX
8
0
10
156.605217391304
20
33.5165918341049
30
0
0
VERTEX
8
0
10
157.384347826087
20
33.3979479967233
30
0
0
VERTEX
8
0
10
158.16347826087
20
33.3979479967233
30
0
0
VERTEX
8
0
10
158.942608695652
20
33.2793041593417
30
0
0
VERTEX
8
0
10
159.721739130435
20
33.1606603219601
30
0
0
VERTEX
8
0
10
160.500869565218
20
33.0420164845785
30
0
0
VERTEX
8
0
10
161.28
20
32.9233726471969
30
0
0
VERTEX
8
0
10
162.059130434783
20
32.9233726471969
30
0
0
VERTEX
8
0
10
162.838260869565
20
32.6860849724336
30
0
0
VERTEX
8
0
10
163.617391304348
20
32.6860849724337
30
0
0
VERTEX
8
0
10
164.396521739131
20
32.567441135052
30
0
0
VERTEX
8
0
10
165.175652173913
20
32.4487972976704
30
0
0
VERTEX
8
0
10
165.954782608696
20
32.3301534602888
30
0
0
VERTEX
8
0
10
166.733913043479
20
32.2115096229072
30
0
0
VERTEX
8
0
10
167.513043478261
20
32.2115096229072
30
0
0
SEQEND
8
0
0
POLYLINE
8
0
62
6
70
0
10
0
20
0
30
0
0
VERTEX
8
0
10
3.11652173913043
20
1.60139957845128
30
0
0
VERTEX
8
0
10
3.89565217391304
20
1.83868725321453
30
0
0
VERTEX
8
0
10
4.67478260869565
20
1.95733109059614
30
0
0
VERTEX
8
0
10
5.45391304347826
20
2.19461876535937
30
0
0
VERTEX
8
0
10
6.23304347826087
20
2.31326260274097
30
0
0
VERTEX
8
0
10
7.01217391304348
20
2.43190644012258
30
0
0
VERTEX
8
0
10
7.79130434782609
20
2.5505502775042
30
0
0
VERTEX
8
0
10
8.57043478260869
20
2.66919411488581
30
0
0
VERTEX
8
0
10
9.3495652173913
20
2.78783795226745
30
0
0
VERTEX
8
0
10
10.1286956521739
20
3.02512562703066
30
0
0
VERTEX
8
0
10
10.9078260869565
20
3.38105713917552
30
0
0
VERTEX
8
0
10
11.6869565217391
20
3.61834481393871
30
0
0
VERTEX
8
0
10
12.4660869565217
20
3.73698865132033
30
0
0
VERTEX
8
0
10
13.2452173913043
20
3.85563248870194
30
0
0
VERTEX
8
0
10
14.024347826087
20
3.97427632608354
30
0
0
VERTEX
8
0
10
14.8034782608696
20
4.09292016346519
30
0
0
VERTEX
8
0
10
15.5826086956522
20
4.09292016346514
30
0
0
VERTEX
8
0
10
16.3617391304348
20
3.85563248870193
30
0
0
VERTEX
8
0
10
17.1408695652174
20
3.73698865132035
30
0
0
VERTEX
8
0
10
17.92
20
3.61834481393868
30
0
0
VERTEX
8
0
10
18.6991304347826
20
3.4997009765571
30
0
0
VERTEX
8
0
10
19.4782608695652
20
3.49970097655712
30
0
0
VERTEX
8
0
10
20.2573913043478
20
3.49970097655712
30
0
0
VERTEX
8
0
10
21.0365217391304
20
3.4997009765571
30
0
0
VERTEX
8
0
10
21.8156521739131
20
3.4997009765571
30
0
0
VERTEX
8
0
10
22.5947826086957
20
3.61834481393871
30
0
0
VERTEX
8
0
10
23.3739130434783
20
3.73698865132033
30
0
0
VERTEX
8
0
10
24.1530434782609
20
3.85563248870194
30
0
0
VERTEX
8
0
10
24.9321739130435
20
4.68613935037324
30
0
0
VERTEX
8
0
10
25.7113043478261
20
5.51664621204453
30
0
0
VERTEX
8
0
10
26.4904347826087
20
6.34715307371579
30
0
0
VERTEX
8
0
10
27.2695652173913
20
7.53359144753193
30
0
0
VERTEX
8
0
10
28.0486956521739
20
8.24545447182157
30
0
0
VERTEX
8
0
10
28.8278260869565
20
8.95731749611125
30
0
0
VERTEX
8
0
10
29.6069565217391
20
9.6691805204009
30
0
0
VERTEX
8
0
10
30.3860869565218
20
10.7369750568355
30
0
0
VERTEX
8
0
10
31.1652173913044
20
11.4488380811251
30
0
0
VERTEX
8
0
10
31.944347826087
20
12.1607011054148
30
0
0
VERTEX
8
0
10
32.7234782608696
20
12.8725641297045
30
0
0
VERTEX
8
0
10
33.5026086956522
20
13.8217148287574
30
0
0
VERTEX
8
0
10
34.2817391304348
20
14.4149340156654
30
0
0
VERTEX
8
0
10
35.0608695652174
20
15.0081532025735
30
0
0
VERTEX
8
0
10
35.84
20
15.7200162268631
30
0
0
VERTEX
8
0
10
36.6191304347826
20
16.1945915763896
30
0
0
VERTEX
8
0
10
37.3982608695652
20
16.669166925916
30
0
0
VERTEX
8
0
10
38.1773913043478
20
17.1437422754425
30
0
0
VERTEX
8
0
10
38.9565217391304
20
17.8556052997322
30
0
0
VERTEX
8
0
10
39.735652173913
20
18.4488244866402
30
0
0
VERTEX
8
0
10
40.5147826086956
20
18.5674683240218
30
0
0
VERTEX
8
0
10
41.2939130434782
20
18.804755998785
30
0
0
VERTEX
8
0
10
42.0730434782608
20
19.0420436735483
30
0
0
VERTEX
8
0
10
42.8521739130434
20
19.1606875109299
30
0
0
VERTEX
8
0
10
43.6313043478261
20
19.3979751856931
30
0
0
VERTEX
8
0
10
44.4104347826087
20
19.6352628604564
30
0
0
VERTEX
8
0
10
45.1895652173913
20
19.8725505352196
30
0
0
VERTEX
8
0
10
45.9686956521739
20
19.9911943726012
30
0
0
VERTEX
8
0
10
46.7478260869565
20
20.1098382099828
30
0
0
VERTEX
8
0
10
47.5269565217391
20
20.2284820473644
30
0
0
VERTEX
8
0
10
48.3060869565217
20
20.347125884746
30
0
0
VERTEX
8
0
10
49.0852173913043
20
20.4657697221276
30
0
0
VERTEX
8
0
10
49.8643478260869
20
20.5844135595092
30
0
0
VERTEX
8
0
10
50.6434782608695
20
20.7030573968908
30
0
0
VERTEX
8
0
10
51.4226086956521
20
20.8217012342724
30
0
0
VERTEX
8
0
10
52.2017391304347
20
20.9403450716541
30
0
0
VERTEX
8
0
10
52.9808695652173
20
21.0589889090357
30
0
0
VERTEX
8
0
10
53.7599999999999
20
21.0589889090357
30
0
0
VERTEX
8
0
10
54.5391304347825
20
21.0589889090357
30
0
0
VERTEX
8
0
10
55.3182608695651
20
21.1776327464173
30
0
0
VERTEX
8
0
10
56.0973913043477
20
21.2962765837989
30
0
0
VERTEX
8
0
10
56.8765217391304
20
21.2962765837989
30
0
0
VERTEX
8
0
10
57.655652173913
20
21.4149204211805
30
0
0
VERTEX
8
0
10
58.4347826086956
20
21.5335642585621
30
0
0
VERTEX
8
0
10
59.2139130434782
20
22.0081396080886
30
0
0
VERTEX
8
0
10
59.9930434782608
20
22.2454272828518
30
0
0
VERTEX
8
0
10
60.7721739130434
20
22.6013587949966
30
0
0
VERTEX
8
0
10
61.551304347826
20
22.7200026323782
30
0
0
VERTEX
8
0
10
62.3304347826086
20
22.9572903071415
30
0
0
VERTEX
8
0
10
63.1095652173912
20
23.3132218192863
30
0
0
VERTEX
8
0
10
63.8886956521738
20
23.4318656566679
30
0
0
VERTEX
8
0
10
64.6678260869564
20
23.6691533314312
30
0
0
VERTEX
8
0
10
65.446956521739
20
23.7877971688128
30
0
0
VERTEX
8
0
10
66.2260869565216
20
24.025084843576
30
0
0
VERTEX
8
0
10
67.0052173913042
20
24.1437286809576
30
0
0
VERTEX
8
0
10
67.7843478260868
20
24.3810163557208
30
0
0
VERTEX
8
0
10
68.5634782608694
20
24.6183040304841
30
0
0
VERTEX
8
0
10
69.342608695652
20
24.7369478678657
30
0
0
VERTEX
8
0
10
70.1217391304346
20
24.8555917052473
30
0
0
VERTEX
8
0
10
70.9008695652173
20
25.0928793800105
30
0
0
VERTEX
8
0
10
71.6799999999999
20
25.4488108921553
30
0
0
VERTEX
8
0
10
72.4591304347825
20
25.6860985669186
30
0
0
VERTEX
8
0
10
73.2382608695651
20
25.9233862416818
30
0
0
VERTEX
8
0
10
74.0173913043477
20
26.160673916445
30
0
0
VERTEX
8
0
10
74.7965217391303
20
26.3979615912082
30
0
0
VERTEX
8
0
10
75.5756521739129
20
26.6352492659714
30
0
0
VERTEX
8
0
10
76.3547826086955
20
26.8725369407347
30
0
0
VERTEX
8
0
10
77.1339130434781
20
27.1098246154979
30
0
0
VERTEX
8
0
10
77.9130434782607
20
27.2284684528796
30
0
0
VERTEX
8
0
10
78.6921739130433
20
27.4657561276427
30
0
0
VERTEX
8
0
10
79.4713043478259
20
27.5843999650244
30
0
0
VERTEX
8
0
10
80.2504347826085
20
27.8216876397876
30
0
0
VERTEX
8
0
10
81.0295652173911
20
27.9403314771692
30
0
0
VERTEX
8
0
10
81.8086956521737
20
28.0589753145508
30
0
0
VERTEX
8
0
10
82.5878260869563
20
28.296262989314
30
0
0
VERTEX
8
0
10
83.366956521739
20
28.4149068266956
30
0
0
VERTEX
8
0
10
84.1460869565216
20
28.5335506640772
30
0
0
VERTEX
8
0
10
84.9252173913042
20
28.6521945014588
30
0
0
VERTEX
8
0
10
85.7043478260868
20
28.7708383388405
30
0
0
VERTEX
8
0
10
86.4834782608694
20
28.8894821762221
30
0
0
VERTEX
8
0
10
87.262608695652
20
29.0081260136037
30
0
0
VERTEX
8
0
10
88.0417391304346
20
29.1267698509853
30
0
0
VERTEX
8
0
10
88.8208695652172
20
29.2454136883669
30
0
0
VERTEX
8
0
10
89.5999999999998
20
29.4827013631301
30
0
0
VERTEX
8
0
10
90.3791304347824
20
29.6013452005118
30
0
0
VERTEX
8
0
10
91.158260869565
20
29.838632875275
30
0
0
VERTEX
8
0
10
91.9373913043476
20
30.0759205500382
30
0
0
VERTEX
8
0
10
92.7165217391302
20
30.1945643874198
30
0
0
VERTEX
8
0
10
93.4956521739128
20
30.431852062183
30
0
0
VERTEX
8
0
10
94.2747826086954
20
30.6691397369463
30
0
0
VERTEX
8
0
10
95.053913043478
20
30.7877835743279
30
0
0
VERTEX
8
0
10
95.8330434782606
20
30.7877835743279
30
0
0
VERTEX
8
0
10
96.6121739130433
20
30.9064274117095
30
0
0
VERTEX
8
0
10
97.3913043478259
20
31.0250712490911
30
0
0
VERTEX
8
0
10
98.1704347826085
20
31.0250712490911
30
0
0
VERTEX
8
0
10
98.9495652173911
20
31.1437150864727
30
0
0
VERTEX
8
0
10
99.7286956521737
20
31.2623589238543
30
0
0
VERTEX
8
0
10
100.507826086956
20
31.2623589238543
30
0
0
VERTEX
8
0
10
101.286956521739
20
31.2623589238543
30
0
0
VERTEX
8
0
10
102.066086956521
20
31.3810027612359
30
0
0
VERTEX
8
0
10
102.845217391304
20
31.4996465986176
30
0
0
VERTEX
8
0
10
103.624347826087
20
31.4996465986175
30
0
0
VERTEX
8
0
10
104.403478260869
20
31.4996465986175
30
0
0
VERTEX
8
0
10
105.182608695652
20
31.6182904359992
30
0
0
VERTEX
8
0
10
105.961739130435
20
31.7369342733808
30
0
0
VERTEX
8
0
10
106.740869565217
20
31.7369342733808
30
0
0
VERTEX
8
0
10
107.52
20
31.8555781107624
30
0
0
VERTEX
8
0
10
108.299130434782
20
31.974221948144
30
0
0
VERTEX
8
0
10
109.078260869565
20
31.974221948144
30
0
0
VERTEX
8
0
10
109.857391304348
20
32.0928657855256
30
0
0
VERTEX
8
0
10
110.63652173913
20
32.2115096229072
30
0
0
VERTEX
8
0
10
111.415652173913
20
32.2115096229072
30
0
0
VERTEX
8
0
10
112.194782608695
20
32.2115096229072
30
0
0
VERTEX
8
0
10
112.973913043478
20
32.3301534602888
30
0
0
VERTEX
8
0
10
113.753043478261
20
32.3301534602888
30
0
0
VERTEX
8
0
10
114.532173913043
20
32.2115096229072
30
0
0
VERTEX
8
0
10
115.311304347826
20
32.2115096229072
30
0
0
VERTEX
8
0
10
116.090434782608
20
32.2115096229072
30
0
0
VERTEX
8
0
10
116.869565217391
20
32.2115096229072
30
0
0
VERTEX
8
0
10
117.648695652174
20
32.0928657855256
30
0
0
VERTEX
8
0
10
118.427826086956
20
31.974221948144
30
0
0
VERTEX
8
0
10
119.206956521739
20
31.974221948144
30
0
0
VERTEX
8
0
10
119.986086956521
20
31.974221948144
30
0
0
VERTEX
8
0
10
120.765217391304
20
31.7369342733807
30
0
0
VERTEX
8
0
10
121.544347826087
20
31.7369342733808
30
0
0
VERTEX
8
0
10
122.323478260869
20
31.6182904359992
30
0
0
VERTEX
8
0
10
123.102608695652
20
31.4996465986175
30
0
0
VERTEX
8
0
10
123.881739130434
20
31.4996465986175
30
0
0
VERTEX
8
0
10
124.660869565217
20
31.3810027612359
30
0
0
VERTEX
8
0
10
125.44
20
31.2623589238543
30
0
0
VERTEX
8
0
10
126.219130434782
20
31.2623589238543
30
0
0
VERTEX
8
0
10
126.998260869565
20
31.2623589238543
30
0
0
VERTEX
8
0
10
127.777391304348
20
31.2623589238543
30
0
0
VERTEX
8
0
10
128.55652173913
20
31.2623589238543
30
0
0
VERTEX
8
0
10
129.335652173913
20
31.1437150864727
30
0
0
VERTEX
8
0
10
130.114782608695
20
31.1437150864727
30
0
0
VERTEX
8
0
10
130.893913043478
20
31.0250712490911
30
0
0
VERTEX
8
0
10
131.673043478261
20
31.0250712490911
30
0
0
VERTEX
8
0
10
132.452173913043
20
31.0250712490911
30
0
0
VERTEX
8
0
10
133.231304347826
20
31.0250712490911
30
0
0
VERTEX
8
0
10
134.010434782608
20
31.0250712490911
30
0
0
VERTEX
8
0
10
134.789565217391
20
30.9064274117094
30
0
0
VERTEX
8
0
10
135.568695652174
20
30.9064274117094
30
0
0
VERTEX
8
0
10
136.347826086956
20
30.7877835743279
30
0
0
VERTEX
8
0
10
137.126956521739
20
30.7877835743279
30
0
0
VERTEX
8
0
10
137.906086956522
20
30.7877835743279
30
0
0
VERTEX
8
0
10
138.685217391304
20
30.6691397369463
30
0
0
VERTEX
8
0
10
139.464347826087
20
30.5504958995647
30
0
0
VERTEX
8
0
10
140.243478260869
20
30.5504958995646
30
0
0
VERTEX
8
0
10
141.022608695652
20
30.431852062183
30
0
0
VERTEX
8
0
10
141.801739130435
20
30.3132082248014
30
0
0
VERTEX
8
0
10
142.580869565217
20
30.3132082248014
30
0
0
VERTEX
8
0
10
143.36
20
30.1945643874198
30
0
0
VERTEX
8
0
10
144.139130434783
20
30.0759205500382
30
0
0
VERTEX
8
0
10
144.918260869565
20
30.0759205500382
30
0
0
VERTEX
8
0
10
145.697391304348
20
29.838632875275
30
0
0
VERTEX
8
0
10
146.47652173913
20
29.8386328752749
30
0
0
VERTEX
8
0
10
147.255652173913
20
29.7199890378934
30
0
0
VERTEX
8
0
10
148.034782608696
20
29.6013452005117
30
0
0
VERTEX
8
0
10
148.813913043478
20
29.4827013631301
30
0
0
VERTEX
8
0
10
149.593043478261
20
29.3640575257485
30
0
0
VERTEX
8
0
10
150.372173913043
20
29.3640575257485
30
0
0
VERTEX
8
0
10
151.151304347826
20
29.1267698509853
30
0
0
VERTEX
8
0
10
151.930434782609
20
29.1267698509853
30
0
0
VERTEX
8
0
10
152.709565217391
20
29.0081260136037
30
0
0
VERTEX
8
0
10
153.488695652174
20
28.8894821762221
30
0
0
VERTEX
8
0
10
154.267826086957
20
28.8894821762221
30
0
0
VERTEX
8
0
10
155.046956521739
20
29.0081260136037
30
0
0
VERTEX
8
0
10
155.826086956522
20
28.8894821762221
30
0
0
VERTEX
8
0
10
156.605217391304
20
28.8894821762221
30
0
0
VERTEX
8
0
10
157.384347826087
20
28.7708383388405
30
0
0
VERTEX
8
0
10
158.16347826087
20
28.6521945014589
30
0
0
VERTEX
8
0
10
158.942608695652
20
28.6521945014589
30
0
0
VERTEX
8
0
10
159.721739130435
20
28.5335506640772
30
0
0
VERTEX
8
0
10
160.500869565218
20
28.4149068266956
30
0
0
VERTEX
8
0
10
161.28
20
28.4149068266956
30
0
0
VERTEX
8
0
10
162.059130434783
20
28.296262989314
30
0
0
VERTEX
8
0
10
162.838260869565
20
28.1776191519324
30
0
0
VERTEX
8
0
10
163.617391304348
20
28.0589753145508
30
0
0
VERTEX
8
0
10
164.396521739131
20
27.9403314771692
30
0
0
VERTEX
8
0
10
165.175652173913
20
27.8216876397876
30
0
0
VERTEX
8
0
10
165.954782608696
20
27.703043802406
30
0
0
VERTEX
8
0
10
166.733913043479
20
27.703043802406
30
0
0
VERTEX
8
0
10
167.513043478261
20
27.4657561276427
30
0
0
SEQEND
8
0
0
POLYLINE
8
0
62
1
70
0
10
0
20
0
30
0
0
VERTEX
8
0
10
3.11652173913043
20
30.0000484774365
30
0
0
VERTEX
8
0
10
3.89565217391304
20
32.856217114888
30
0
0
VERTEX
8
0
10
4.67478260869565
20
35.4689414508962
30
0
0
VERTEX
8
0
10
5.45391304347826
20
39.0359484106599
30
0
0
VERTEX
8
0
10
6.23304347826087
20
41.0563741267813
30
0
0
VERTEX
8
0
10
7.01217391304348
20
41.5369816591072
30
0
0
VERTEX
8
0
10
7.79130434782609
20
41.8993626393239
30
0
0
VERTEX
8
0
10
8.57043478260869
20
42.4987836520731
30
0
0
VERTEX
8
0
10
9.3495652173913
20
43.4535518398344
30
0
0
VERTEX
8
0
10
10.1286956521739
20
44.8898040438305
30
0
0
VERTEX
8
0
10
10.9078260869565
20
47.0449986329099
30
0
0
VERTEX
8
0
10
11.6869565217391
20
48.4822827688303
30
0
0
VERTEX
8
0
10
12.4660869565217
20
50.2658338356156
30
0
0
VERTEX
8
0
10
13.2452173913043
20
52.1677074140539
30
0
0
VERTEX
8
0
10
14.024347826087
20
54.661222185149
30
0
0
VERTEX
8
0
10
14.8034782608696
20
56.6814625587524
30
0
0
VERTEX
8
0
10
15.5826086956522
20
57.8648671701045
30
0
0
VERTEX
8
0
10
16.3617391304348
20
59.0324206337635
30
0
0
VERTEX
8
0
10
17.1408695652174
20
59.9720668770938
30
0
0
VERTEX
8
0
10
17.92
20
60.9122389340513
30
0
0
VERTEX
8
0
10
18.6991304347826
20
61.2606531663276
30
0
0
VERTEX
8
0
10
19.4782608695652
20
60.5499663707671
30
0
0
VERTEX
8
0
10
20.2573913043478
20
59.9577486923569
30
0
0
VERTEX
8
0
10
21.0365217391304
20
59.4839889199188
30
0
0
VERTEX
8
0
10
21.8156521739131
20
59.1286776747547
30
0
0
VERTEX
8
0
10
22.5947826086957
20
58.898977268374
30
0
0
VERTEX
8
0
10
23.3739130434783
20
58.6695771806593
30
0
0
VERTEX
8
0
10
24.1530434782609
20
58.4404809481896
30
0
0
VERTEX
8
0
10
24.9321739130435
20
58.382881885486
30
0
0
VERTEX
8
0
10
25.7113043478261
20
58.3372918215131
30
0
0
VERTEX
8
0
10
26.4904347826087
20
58.4216790565
30
0
0
VERTEX
8
0
10
27.2695652173913
20
58.5624558205838
30
0
0
VERTEX
8
0
10
28.0486956521739
20
58.8932205861987
30
0
0
VERTEX
8
0
10
28.8278260869565
20
59.4662142799929
30
0
0
VERTEX
8
0
10
29.6069565217391
20
60.0459306866739
30
0
0
VERTEX
8
0
10
30.3860869565218
20
60.6941303011541
30
0
0
VERTEX
8
0
10
31.1652173913044
20
61.1737024895136
30
0
0
VERTEX
8
0
10
31.944347826087
20
61.659818131024
30
0
0
VERTEX
8
0
10
32.7234782608696
20
62.2683998205396
30
0
0
VERTEX
8
0
10
33.5026086956522
20
62.934419371525
30
0
0
VERTEX
8
0
10
34.2817391304348
20
62.8363751509884
30
0
0
VERTEX
8
0
10
35.0608695652174
20
62.9751092257225
30
0
0
VERTEX
8
0
10
35.84
20
62.9187541128245
30
0
0
VERTEX
8
0
10
36.6191304347826
20
62.8097055051362
30
0
0
VERTEX
8
0
10
37.3982608695652
20
62.7049571132918
30
0
0
VERTEX
8
0
10
38.1773913043478
20
62.7186475818227
30
0
0
VERTEX
8
0
10
38.9565217391304
20
62.6894618216453
30
0
0
VERTEX
8
0
10
39.735652173913
20
62.7475888036968
30
0
0
VERTEX
8
0
10
40.5147826086956
20
62.3293859619242
30
0
0
VERTEX
8
0
10
41.2939130434782
20
61.9481352811654
30
0
0
VERTEX
8
0
10
42.0730434782608
20
61.5690963848143
30
0
0
VERTEX
8
0
10
42.8521739130434
20
61.3804191697913
30
0
0
VERTEX
8
0
10
43.6313043478261
20
61.00477525487
30
0
0
VERTEX
8
0
10
44.4104347826087
20
60.6314473251386
30
0
0
VERTEX
8
0
10
45.1895652173913
20
60.2604784248421
30
0
0
VERTEX
8
0
10
45.9686956521739
20
60.0758922781675
30
0
0
VERTEX
8
0
10
46.7478260869565
20
59.8919123892918
30
0
0
VERTEX
8
0
10
47.5269565217391
20
59.7085443624001
30
0
0
VERTEX
8
0
10
48.3060869565217
20
59.525793851979
30
0
0
VERTEX
8
0
10
49.0852173913043
20
59.3436665630071
30
0
0
VERTEX
8
0
10
49.8643478260869
20
59.0509517377898
30
0
0
VERTEX
8
0
10
50.6434782608695
20
58.8702247423554
30
0
0
VERTEX
8
0
10
51.4226086956521
20
58.801081835707
30
0
0
VERTEX
8
0
10
52.2017391304347
20
58.6215054983113
30
0
0
VERTEX
8
0
10
52.9808695652173
20
58.4425816706367
30
0
0
VERTEX
8
0
10
53.7599999999999
20
58.4425816706367
30
0
0
VERTEX
8
0
10
54.5391304347825
20
58.4425816706367
30
0
0
VERTEX
8
0
10
55.3182608695651
20
58.264316364058
30
0
0
VERTEX
8
0
10
56.0973913043477
20
58.3075452146854
30
0
0
VERTEX
8
0
10
56.8765217391304
20
58.3075452146854
30
0
0
VERTEX
8
0
10
57.655652173913
20
58.1303187186029
30
0
0
VERTEX
8
0
10
58.4347826086956
20
58.1741310838287
30
0
0
VERTEX
8
0
10
59.2139130434782
20
58.3514639635543
30
0
0
VERTEX
8
0
10
59.9930434782608
20
58.3316788227797
30
0
0
VERTEX
8
0
10
60.7721739130434
20
58.249573045999
30
0
0
VERTEX
8
0
10
61.551304347826
20
58.1864666399635
30
0
0
VERTEX
8
0
10
62.3304347826086
20
58.0615027050644
30
0
0
VERTEX
8
0
10
63.1095652173912
20
57.9858118706273
30
0
0
VERTEX
8
0
10
63.8886956521738
20
58.0336143528271
30
0
0
VERTEX
8
0
10
64.6678260869564
20
57.9131819673658
30
0
0
VERTEX
8
0
10
65.446956521739
20
57.6373828768453
30
0
0
VERTEX
8
0
10
66.2260869565216
20
57.4122588961647
30
0
0
VERTEX
8
0
10
67.0052173913042
20
57.246769405981
30
0
0
VERTEX
8
0
10
67.7843478260868
20
57.1325629147129
30
0
0
VERTEX
8
0
10
68.5634782608694
20
56.8061628731803
30
0
0
VERTEX
8
0
10
69.342608695652
20
56.6441213486612
30
0
0
VERTEX
8
0
10
70.1217391304346
20
56.4828610283765
30
0
0
VERTEX
8
0
10
70.9008695652173
20
56.3750974702703
30
0
0
VERTEX
8
0
10
71.6799999999999
20
56.1110556326517
30
0
0
VERTEX
8
0
10
72.4591304347825
20
56.0081060998196
30
0
0
VERTEX
8
0
10
73.2382608695651
20
55.9069812754109
30
0
0
VERTEX
8
0
10
74.0173913043477
20
55.5982006641307
30
0
0
VERTEX
8
0
10
74.7965217391303
20
55.5014015853238
30
0
0
VERTEX
8
0
10
75.5756521739129
20
55.4064658730748
30
0
0
VERTEX
8
0
10
76.3547826086955
20
55.3134031218059
30
0
0
VERTEX
8
0
10
77.1339130434781
20
55.2222228006894
30
0
0
VERTEX
8
0
10
77.9130434782607
20
55.1773414752529
30
0
0
VERTEX
8
0
10
78.6921739130433
20
55.1918802723003
30
0
0
VERTEX
8
0
10
79.4713043478259
20
55.0455466736708
30
0
0
VERTEX
8
0
10
80.2504347826085
20
55.0624211127809
30
0
0
VERTEX
8
0
10
81.0295652173911
20
55.0202237359334
30
0
0
VERTEX
8
0
10
81.8086956521737
20
54.8765105779064
30
0
0
VERTEX
8
0
10
82.5878260869563
20
54.9982164862182
30
0
0
VERTEX
8
0
10
83.366956521739
20
54.8562419325451
30
0
0
VERTEX
8
0
10
84.1460869565216
20
54.8164538009879
30
0
0
VERTEX
8
0
10
84.9252173913042
20
54.7771507209927
30
0
0
VERTEX
8
0
10
85.7043478260868
20
54.7383337373862
30
0
0
VERTEX
8
0
10
86.4834782608694
20
54.7000038850198
30
0
0
VERTEX
8
0
10
87.262608695652
20
54.6621621886427
30
0
0
VERTEX
8
0
10
88.0417391304346
20
54.6248096627748
30
0
0
VERTEX
8
0
10
88.8208695652172
20
54.4878041910132
30
0
0
VERTEX
8
0
10
89.5999999999998
20
54.6155313388234
30
0
0
VERTEX
8
0
10
90.3791304347824
20
54.4803111897124
30
0
0
VERTEX
8
0
10
91.158260869565
20
54.5102738347617
30
0
0
VERTEX
8
0
10
91.9373913043476
20
54.5415104608866
30
0
0
VERTEX
8
0
10
92.7165217391302
20
54.5082072942842
30
0
0
VERTEX
8
0
10
93.4956521739128
20
54.5415098252086
30
0
0
VERTEX
8
0
10
94.2747826086954
20
54.5760816584655
30
0
0
VERTEX
8
0
10
95.053913043478
20
54.5448641948582
30
0
0
VERTEX
8
0
10
95.8330434782606
20
54.349155830186
30
0
0
VERTEX
8
0
10
96.6121739130433
20
54.2213197708149
30
0
0
VERTEX
8
0
10
97.3913043478259
20
54.1917162265144
30
0
0
VERTEX
8
0
10
98.1704347826085
20
54.0944827087344
30
0
0
VERTEX
8
0
10
98.9495652173911
20
53.9686516874719
30
0
0
VERTEX
8
0
10
99.7286956521737
20
53.8438337602668
30
0
0
VERTEX
8
0
10
100.507826086956
20
53.7472803921764
30
0
0
VERTEX
8
0
10
101.286956521739
20
53.6508156305895
30
0
0
VERTEX
8
0
10
102.066086956521
20
53.4315523617173
30
0
0
VERTEX
8
0
10
102.845217391304
20
53.4054647809895
30
0
0
VERTEX
8
0
10
103.624347826087
20
53.2140309029615
30
0
0
VERTEX
8
0
10
104.403478260869
20
53.0229677808623
30
0
0
VERTEX
8
0
10
105.182608695652
20
52.9031029787286
30
0
0
VERTEX
8
0
10
105.961739130435
20
52.7842993783858
30
0
0
VERTEX
8
0
10
106.740869565217
20
52.5948868318932
30
0
0
VERTEX
8
0
10
107.52
20
52.4777996054657
30
0
0
VERTEX
8
0
10
108.299130434782
20
52.4557997591023
30
0
0
VERTEX
8
0
10
109.078260869565
20
52.3617947133659
30
0
0
VERTEX
8
0
10
109.857391304348
20
52.2468793649861
30
0
0
VERTEX
8
0
10
110.63652173913
20
52.1330607652729
30
0
0
VERTEX
8
0
10
111.415652173913
20
51.9466932456165
30
0
0
VERTEX
8
0
10
112.194782608695
20
51.9466932456165
30
0
0
VERTEX
8
0
10
112.973913043478
20
51.8346595919475
30
0
0
VERTEX
8
0
10
113.753043478261
20
51.6493956515852
30
0
0
VERTEX
8
0
10
114.532173913043
20
51.482607721013
30
0
0
VERTEX
8
0
10
115.311304347826
20
51.2977187625181
30
0
0
VERTEX
8
0
10
116.090434782608
20
51.2054362891305
30
0
0
VERTEX
8
0
10
116.869565217391
20
51.0211982842884
30
0
0
VERTEX
8
0
10
117.648695652174
20
50.8542876263986
30
0
0
VERTEX
8
0
10
118.427826086956
20
50.687382759942
30
0
0
VERTEX
8
0
10
119.206956521739
20
50.5034846482867
30
0
0
VERTEX
8
0
10
119.986086956521
20
50.4117028673264
30
0
0
VERTEX
8
0
10
120.765217391304
20
50.1695912974332
30
0
0
VERTEX
8
0
10
121.544347826087
20
49.986041084294
30
0
0
VERTEX
8
0
10
122.323478260869
20
49.9107963901903
30
0
0
VERTEX
8
0
10
123.102608695652
20
49.6520701004103
30
0
0
VERTEX
8
0
10
123.881739130434
20
49.5604157159897
30
0
0
VERTEX
8
0
10
124.660869565217
20
49.3934135063631
30
0
0
VERTEX
8
0
10
125.44
20
49.1348277087299
30
0
0
VERTEX
8
0
10
126.219130434782
20
49.1348277087299
30
0
0
VERTEX
8
0
10
126.998260869565
20
48.9519984251977
30
0
0
VERTEX
8
0
10
127.777391304348
20
48.9519984251977
30
0
0
VERTEX
8
0
10
128.55652173913
20
48.7696382655822
30
0
0
VERTEX
8
0
10
129.335652173913
20
48.6025254786957
30
0
0
VERTEX
8
0
10
130.114782608695
20
48.5114996477701
30
0
0
VERTEX
8
0
10
130.893913043478
20
48.3443680544903
30
0
0
VERTEX
8
0
10
131.673043478261
20
48.2534386670727
30
0
0
VERTEX
8
0
10
132.452173913043
20
48.0719423632507
30
0
0
VERTEX
8
0
10
133.231304347826
20
48.0719423632507
30
0
0
VERTEX
8
0
10
134.010434782608
20
47.8909339315453
30
0
0
VERTEX
8
0
10
134.789565217391
20
47.723693763058
30
0
0
VERTEX
8
0
10
135.568695652174
20
47.6333526357409
30
0
0
VERTEX
8
0
10
136.347826086956
20
47.4660945837789
30
0
0
VERTEX
8
0
10
137.126956521739
20
47.3758564820474
30
0
0
VERTEX
8
0
10
137.906086956522
20
47.2857438611169
30
0
0
VERTEX
8
0
10
138.685217391304
20
47.1184468663361
30
0
0
VERTEX
8
0
10
139.464347826087
20
46.9511533738301
30
0
0
VERTEX
8
0
10
140.243478260869
20
46.8611252146746
30
0
0
VERTEX
8
0
10
141.022608695652
20
46.6938141790053
30
0
0
VERTEX
8
0
10
141.801739130435
20
46.5265065765972
30
0
0
VERTEX
8
0
10
142.580869565217
20
46.4365645330868
30
0
0
VERTEX
8
0
10
143.36
20
46.2692394084351
30
0
0
VERTEX
8
0
10
144.139130434783
20
46.1019176463977
30
0
0
VERTEX
8
0
10
144.918260869565
20
46.0120634209064
30
0
0
VERTEX
8
0
10
145.697391304348
20
45.6773881969208
30
0
0
VERTEX
8
0
10
146.47652173913
20
45.6773881969207
30
0
0
VERTEX
8
0
10
147.255652173913
20
45.5100555567056
30
0
0
VERTEX
8
0
10
148.034782608696
20
45.3427262799366
30
0
0
VERTEX
8
0
10
148.813913043478
20
45.085572942536
30
0
0
VERTEX
8
0
10
149.593043478261
20
45.0080779667905
30
0
0
VERTEX
8
0
10
150.372173913043
20
44.9182292714333
30
0
0
VERTEX
8
0
10
151.151304347826
20
44.6734435632009
30
0
0
VERTEX
8
0
10
151.930434782609
20
44.673443563201
30
0
0
VERTEX
8
0
10
152.709565217391
20
44.5061316755377
30
0
0
VERTEX
8
0
10
153.488695652174
20
44.3388233841032
30
0
0
VERTEX
8
0
10
154.267826086957
20
44.3388233841032
30
0
0
VERTEX
8
0
10
155.046956521739
20
44.4162183610621
30
0
0
VERTEX
8
0
10
155.826086956522
20
44.3388233841032
30
0
0
VERTEX
8
0
10
156.605217391304
20
44.2488882186236
30
0
0
VERTEX
8
0
10
157.384347826087
20
44.0815615548216
30
0
0
VERTEX
8
0
10
158.16347826087
20
44.0042177539979
30
0
0
VERTEX
8
0
10
158.942608695652
20
43.9142384094203
30
0
0
VERTEX
8
0
10
159.721739130435
20
43.7469188227912
30
0
0
VERTEX
8
0
10
160.500869565218
20
43.5796028359249
30
0
0
VERTEX
8
0
10
161.28
20
43.4897159847703
30
0
0
VERTEX
8
0
10
162.059130434783
20
43.4122904904431
30
0
0
VERTEX
8
0
10
162.838260869565
20
43.1550503637349
30
0
0
VERTEX
8
0
10
163.617391304348
20
43.0776768933484
30
0
0
VERTEX
8
0
10
164.396521739131
20
42.9103757282452
30
0
0
VERTEX
8
0
10
165.175652173913
20
42.7430783775714
30
0
0
VERTEX
8
0
10
165.954782608696
20
42.5757848862925
30
0
0
VERTEX
8
0
10
166.733913043479
20
42.4857621810492
30
0
0
VERTEX
8
0
10
167.513043478261
20
42.3314199129888
30
0
0
SEQEND
8
0
0
POLYLINE
8
0
62
2
70
0
10
0
20
0
30
0
0
VERTEX
8
0
10
3.11652173913043
20
30.0000484774365
30
0
0
VERTEX
8
0
10
3.89565217391304
20
32.856217114888
30
0
0
VERTEX
8
0
10
4.67478260869565
20
35.4689414508962
30
0
0
VERTEX
8
0
10
5.45391304347826
20
39.0359484106599
30
0
0
VERTEX
8
0
10
6.23304347826087
20
41.0563741267813
30
0
0
VERTEX
8
0
10
7.01217391304348
20
41.5369816591072
30
0
0
VERTEX
8
0
10
7.79130434782609
20
41.8993626393239
30
0
0
VERTEX
8
0
10
8.57043478260869
20
42.4987836520731
30
0
0
VERTEX
8
0
10
9.3495652173913
20
43.4535518398343
30
0
0
VERTEX
8
0
10
10.1286956521739
20
44.8898040438305
30
0
0
VERTEX
8
0
10
10.9078260869565
20
47.0449986329099
30
0
0
VERTEX
8
0
10
11.6869565217391
20
48.4822827688303
30
0
0
VERTEX
8
0
10
12.4660869565217
20
50.2658338356156
30
0
0
VERTEX
8
0
10
13.2452173913043
20
52.1677074140539
30
0
0
VERTEX
8
0
10
14.024347826087
20
54.661222185149
30
0
0
VERTEX
8
0
10
14.8034782608696
20
56.6814625587524
30
0
0
VERTEX
8
0
10
15.5826086956522
20
57.8648671701045
30
0
0
VERTEX
8
0
10
16.3617391304348
20
59.0324206337635
30
0
0
VERTEX
8
0
10
17.1408695652174
20
59.9720668770938
30
0
0
VERTEX
8
0
10
17.92
20
60.9122389340513
30
0
0
VERTEX
8
0
10
18.6991304347826
20
61.2606531663276
30
0
0
VERTEX
8
0
10
19.4782608695652
20
60.5499663707671
30
0
0
VERTEX
8
0
10
20.2573913043478
20
59.9577486923569
30
0
0
VERTEX
8
0
10
21.0365217391304
20
59.4839889199188
30
0
0
VERTEX
8
0
10
21.8156521739131
20
59.1286776747547
30
0
0
VERTEX
8
0
10
22.5947826086957
20
58.898977268374
30
0
0
VERTEX
8
0
10
23.3739130434783
20
58.6695771806593
30
0
0
VERTEX
8
0
10
24.1530434782609
20
58.4404809481896
30
0
0
VERTEX
8
0
10
24.9321739130435
20
58.382881885486
30
0
0
VERTEX
8
0
10
25.7113043478261
20
58.3372918215131
30
0
0
VERTEX
8
0
10
26.4904347826087
20
58.4216790565
30
0
0
VERTEX
8
0
10
27.2695652173913
20
58.5624558205839
30
0
0
VERTEX
8
0
10
28.0486956521739
20
58.8932205861987
30
0
0
VERTEX
8
0
10
28.8278260869565
20
59.4662142799929
30
0
0
VERTEX
8
0
10
29.6069565217391
20
60.0459306866739
30
0
0
VERTEX
8
0
10
30.3860869565218
20
60.6941303011541
30
0
0
VERTEX
8
0
10
31.1652173913044
20
61.1737024895136
30
0
0
VERTEX
8
0
10
31.944347826087
20
61.659818131024
30
0
0
VERTEX
8
0
10
32.7234782608696
20
62.2683998205396
30
0
0
VERTEX
8
0
10
33.5026086956522
20
62.934419371525
30
0
0
VERTEX
8
0
10
34.2817391304348
20
62.8363751509884
30
0
0
VERTEX
8
0
10
35.0608695652174
20
62.9751092257225
30
0
0
VERTEX
8
0
10
35.84
20
62.9187541128245
30
0
0
VERTEX
8
0
10
36.6191304347826
20
62.8097055051363
30
0
0
VERTEX
8
0
10
37.3982608695652
20
62.7049571132918
30
0
0
VERTEX
8
0
10
38.1773913043478
20
62.7186475818227
30
0
0
VERTEX
8
0
10
38.9565217391304
20
62.6894618216453
30
0
0
VERTEX
8
0
10
39.735652173913
20
62.7475888036968
30
0
0
VERTEX
8
0
10
40.5147826086956
20
62.3293859619242
30
0
0
VERTEX
8
0
10
41.2939130434782
20
61.9481352811654
30
0
0
VERTEX
8
0
10
42.0730434782608
20
61.5690963848143
30
0
0
VERTEX
8
0
10
42.8521739130434
20
61.3804191697913
30
0
0
VERTEX
8
0
10
43.6313043478261
20
61.00477525487
30
0
0
VERTEX
8
0
10
44.4104347826087
20
60.6314473251386
30
0
0
VERTEX
8
0
10
45.1895652173913
20
60.260478424842
30
0
0
VERTEX
8
0
10
45.9686956521739
20
60.0758922781675
30
0
0
VERTEX
8
0
10
46.7478260869565
20
59.8919123892918
30
0
0
VERTEX
8
0
10
47.5269565217391
20
59.7085443624001
30
0
0
VERTEX
8
0
10
48.3060869565217
20
59.525793851979
30
0
0
VERTEX
8
0
10
49.0852173913043
20
59.3436665630071
30
0
0
VERTEX
8
0
10
49.8643478260869
20
59.0509517377898
30
0
0
VERTEX
8
0
10
50.6434782608695
20
58.8702247423554
30
0
0
VERTEX
8
0
10
51.4226086956521
20
58.801081835707
30
0
0
VERTEX
8
0
10
52.2017391304347
20
58.6215054983113
30
0
0
VERTEX
8
0
10
52.9808695652173
20
58.4425816706367
30
0
0
VERTEX
8
0
10
53.7599999999999
20
58.4425816706367
30
0
0
VERTEX
8
0
10
54.5391304347825
20
58.4425816706367
30
0
0
VERTEX
8
0
10
55.3182608695651
20
58.264316364058
30
0
0
VERTEX
8
0
10
56.0973913043477
20
58.3075452146854
30
0
0
VERTEX
8
0
10
56.8765217391304
20
58.3075452146853
30
0
0
VERTEX
8
0
10
57.655652173913
20
58.1303187186029
30
0
0
VERTEX
8
0
10
58.4347826086956
20
58.1741310838287
30
0
0
VERTEX
8
0
10
59.2139130434782
20
58.3514639635543
30
0
0
VERTEX
8
0
10
59.9930434782608
20
58.3316788227797
30
0
0
VERTEX
8
0
10
60.7721739130434
20
58.249573045999
30
0
0
VERTEX
8
0
10
61.551304347826
20
58.1864666399635
30
0
0
VERTEX
8
0
10
62.3304347826086
20
58.0615027050643
30
0
0
VERTEX
8
0
10
63.1095652173912
20
57.9858118706273
30
0
0
VERTEX
8
0
10
63.8886956521738
20
58.0336143528271
30
0
0
VERTEX
8
0
10
64.6678260869564
20
57.9131819673658
30
0
0
VERTEX
8
0
10
65.446956521739
20
57.6373828768453
30
0
0
VERTEX
8
0
10
66.2260869565216
20
57.4122588961647
30
0
0
VERTEX
8
0
10
67.0052173913042
20
57.246769405981
30
0
0
VERTEX
8
0
10
67.7843478260868
20
57.1325629147129
30
0
0
VERTEX
8
0
10
68.5634782608694
20
56.8061628731803
30
0
0
VERTEX
8
0
10
69.342608695652
20
56.6441213486612
30
0
0
VERTEX
8
0
10
70.1217391304346
20
56.4828610283765
30
0
0
VERTEX
8
0
10
70.9008695652173
20
56.3750974702703
30
0
0
VERTEX
8
0
10
71.6799999999999
20
56.1110556326517
30
0
0
VERTEX
8
0
10
72.4591304347825
20
56.0081060998196
30
0
0
VERTEX
8
0
10
73.2382608695651
20
55.9069812754109
30
0
0
VERTEX
8
0
10
74.0173913043477
20
55.5982006641307
30
0
0
VERTEX
8
0
10
74.7965217391303
20
55.5014015853238
30
0
0
VERTEX
8
0
10
75.5756521739129
20
55.4064658730748
30
0
0
VERTEX
8
0
10
76.3547826086955
20
55.3134031218059
30
0
0
VERTEX
8
0
10
77.1339130434781
20
55.2222228006894
30
0
0
VERTEX
8
0
10
77.9130434782607
20
55.1773414752529
30
0
0
VERTEX
8
0
10
78.6921739130433
20
55.1918802723003
30
0
0
VERTEX
8
0
10
79.4713043478259
20
55.0455466736708
30
0
0
VERTEX
8
0
10
80.2504347826085
20
55.0624211127809
30
0
0
VERTEX
8
0
10
81.0295652173911
20
55.0202237359334
30
0
0
VERTEX
8
0
10
81.8086956521737
20
54.8765105779064
30
0
0
VERTEX
8
0
10
82.5878260869563
20
54.9982164862182
30
0
0
VERTEX
8
0
10
83.366956521739
20
54.8562419325451
30
0
0
VERTEX
8
0
10
84.1460869565216
20
54.8164538009879
30
0
0
VERTEX
8
0
10
84.9252173913042
20
54.7771507209927
30
0
0
VERTEX
8
0
10
85.7043478260868
20
54.7383337373862
30
0
0
VERTEX
8
0
10
86.4834782608694
20
54.7000038850198
30
0
0
VERTEX
8
0
10
87.262608695652
20
54.6621621886427
30
0
0
VERTEX
8
0
10
88.0417391304346
20
54.6248096627748
30
0
0
VERTEX
8
0
10
88.8208695652172
20
54.4878041910132
30
0
0
VERTEX
8
0
10
89.5999999999998
20
54.6155313388234
30
0
0
VERTEX
8
0
10
90.3791304347824
20
54.4803111897124
30
0
0
VERTEX
8
0
10
91.158260869565
20
54.5102738347617
30
0
0
VERTEX
8
0
10
91.9373913043476
20
54.5415104608866
30
0
0
VERTEX
8
0
10
92.7165217391302
20
54.5082072942842
30
0
0
VERTEX
8
0
10
93.4956521739128
20
54.5415098252086
30
0
0
VERTEX
8
0
10
94.2747826086954
20
54.5760816584654
30
0
0
VERTEX
8
0
10
95.053913043478
20
54.5448641948582
30
0
0
VERTEX
8
0
10
95.8330434782606
20
54.349155830186
30
0
0
VERTEX
8
0
10
96.6121739130433
20
54.2213197708149
30
0
0
VERTEX
8
0
10
97.3913043478259
20
54.1917162265144
30
0
0
VERTEX
8
0
10
98.1704347826085
20
54.0944827087344
30
0
0
VERTEX
8
0
10
98.9495652173911
20
53.9686516874719
30
0
0
VERTEX
8
0
10
99.7286956521737
20
53.8438337602668
30
0
0
VERTEX
8
0
10
100.507826086956
20
53.7472803921764
30
0
0
VERTEX
8
0
10
101.286956521739
20
53.6508156305895
30
0
0
VERTEX
8
0
10
102.066086956521
20
53.4315523617173
30
0
0
VERTEX
8
0
10
102.845217391304
20
53.4054647809895
30
0
0
VERTEX
8
0
10
103.624347826087
20
53.2140309029615
30
0
0
VERTEX
8
0
10
104.403478260869
20
53.0229677808623
30
0
0
VERTEX
8
0
10
105.182608695652
20
52.9031029787286
30
0
0
VERTEX
8
0
10
105.961739130435
20
52.7842993783858
30
0
0
VERTEX
8
0
10
106.740869565217
20
52.5948868318932
30
0
0
VERTEX
8
0
10
107.52
20
52.4777996054657
30
0
0
VERTEX
8
0
10
108.299130434782
20
52.4557997591023
30
0
0
VERTEX
8
0
10
109.078260869565
20
52.3617947133659
30
0
0
VERTEX
8
0
10
109.857391304348
20
52.2468793649861
30
0
0
VERTEX
8
0
10
110.63652173913
20
52.133060765273
30
0
0
VERTEX
8
0
10
111.415652173913
20
51.9466932456165
30
0
0
VERTEX
8
0
10
112.194782608695
20
51.9466932456165
30
0
0
VERTEX
8
0
10
112.973913043478
20
51.8346595919475
30
0
0
VERTEX
8
0
10
113.753043478261
20
51.6493956515852
30
0
0
VERTEX
8
0
10
114.532173913043
20
51.482607721013
30
0
0
VERTEX
8
0
10
115.311304347826
20
51.2977187625181
30
0
0
VERTEX
8
0
10
116.090434782608
20
51.2054362891305
30
0
0
VERTEX
8
0
10
116.869565217391
20
51.0211982842884
30
0
0
VERTEX
8
0
10
117.648695652174
20
50.8542876263986
30
0
0
VERTEX
8
0
10
118.427826086956
20
50.687382759942
30
0
0
VERTEX
8
0
10
119.206956521739
20
50.5034846482867
30
0
0
VERTEX
8
0
10
119.986086956521
20
50.4117028673264
30
0
0
VERTEX
8
0
10
120.765217391304
20
50.1695912974333
30
0
0
VERTEX
8
0
10
121.544347826087
20
49.986041084294
30
0
0
VERTEX
8
0
10
122.323478260869
20
49.9107963901903
30
0
0
VERTEX
8
0
10
123.102608695652
20
49.6520701004103
30
0
0
VERTEX
8
0
10
123.881739130434
20
49.5604157159897
30
0
0
VERTEX
8
0
10
124.660869565217
20
49.3934135063631
30
0
0
VERTEX
8
0
10
125.44
20
49.1348277087299
30
0
0
VERTEX
8
0
10
126.219130434782
20
49.1348277087299
30
0
0
VERTEX
8
0
10
126.998260869565
20
48.9519984251977
30
0
0
VERTEX
8
0
10
127.777391304348
20
48.9519984251977
30
0
0
VERTEX
8
0
10
128.55652173913
20
48.7696382655822
30
0
0
VERTEX
8
0
10
129.335652173913
20
48.6025254786957
30
0
0
VERTEX
8
0
10
130.114782608695
20
48.5114996477701
30
0
0
VERTEX
8
0
10
130.893913043478
20
48.3443680544903
30
0
0
VERTEX
8
0
10
131.673043478261
20
48.2534386670727
30
0
0
VERTEX
8
0
10
132.452173913043
20
48.0719423632507
30
0
0
VERTEX
8
0
10
133.231304347826
20
48.0719423632507
30
0
0
VERTEX
8
0
10
134.010434782608
20
47.8909339315453
30
0
0
VERTEX
8
0
10
134.789565217391
20
47.723693763058
30
0
0
VERTEX
8
0
10
135.568695652174
20
47.6333526357409
30
0
0
VERTEX
8
0
10
136.347826086956
20
47.4660945837789
30
0
0
VERTEX
8
0
10
137.126956521739
20
47.3758564820474
30
0
0
VERTEX
8
0
10
137.906086956522
20
47.2857438611169
30
0
0
VERTEX
8
0
10
138.685217391304
20
47.1184468663361
30
0
0
VERTEX
8
0
10
139.464347826087
20
46.9511533738301
30
0
0
VERTEX
8
0
10
140.243478260869
20
46.8611252146746
30
0
0
VERTEX
8
0
10
141.022608695652
20
46.6938141790053
30
0
0
VERTEX
8
0
10
141.801739130435
20
46.5265065765972
30
0
0
VERTEX
8
0
10
142.580869565217
20
46.4365645330868
30
0
0
VERTEX
8
0
10
143.36
20
46.2692394084351
30
0
0
VERTEX
8
0
10
144.139130434783
20
46.1019176463977
30
0
0
VERTEX
8
0
10
144.918260869565
20
46.0120634209064
30
0
0
VERTEX
8
0
10
145.697391304348
20
45.6773881969208
30
0
0
VERTEX
8
0
10
146.47652173913
20
45.6773881969207
30
0
0
VERTEX
8
0
10
147.255652173913
20
45.5100555567056
30
0
0
VERTEX
8
0
10
148.034782608696
20
45.3427262799366
30
0
0
VERTEX
8
0
10
148.813913043478
20
45.085572942536
30
0
0
VERTEX
8
0
10
149.593043478261
20
45.0080779667905
30
0
0
VERTEX
8
0
10
150.372173913043
20
44.9182292714333
30
0
0
VERTEX
8
0
10
151.151304347826
20
44.6734435632009
30
0
0
VERTEX
8
0
10
151.930434782609
20
44.673443563201
30
0
0
VERTEX
8
0
10
152.709565217391
20
44.5061316755377
30
0
0
VERTEX
8
0
10
153.488695652174
20
44.3388233841032
30
0
0
VERTEX
8
0
10
154.267826086957
20
44.3388233841032
30
0
0
VERTEX
8
0
10
155.046956521739
20
44.4162183610621
30
0
0
VERTEX
8
0
10
155.826086956522
20
44.3388233841032
30
0
0
VERTEX
8
0
10
156.605217391304
20
44.2488882186236
30
0
0
VERTEX
8
0
10
157.384347826087
20
44.0815615548216
30
0
0
VERTEX
8
0
10
158.16347826087
20
44.0042177539979
30
0
0
VERTEX
8
0
10
158.942608695652
20
43.9142384094203
30
0
0
VERTEX
8
0
10
159.721739130435
20
43.7469188227912
30
0
0
VERTEX
8
0
10
160.500869565218
20
43.5796028359249
30
0
0
VERTEX
8
0
10
161.28
20
43.4897159847703
30
0
0
VERTEX
8
0
10
162.059130434783
20
43.4122904904431
30
0
0
VERTEX
8
0
10
162.838260869565
20
43.1550503637349
30
0
0
VERTEX
8
0
10
163.617391304348
20
43.0776768933484
30
0
0
VERTEX
8
0
10
164.396521739131
20
42.9103757282452
30
0
0
VERTEX
8
0
10
165.175652173913
20
42.7430783775714
30
0
0
VERTEX
8
0
10
165.954782608696
20
42.5757848862925
30
0
0
VERTEX
8
0
10
166.733913043479
20
42.4857621810492
30
0
0
VERTEX
8
0
10
167.513043478261
20
42.3314199129888
30
0
0
SEQEND
8
0
0
POLYLINE
8
0
62
3
70
0
10
0
20
0
30
0
0
VERTEX
8
0
10
3.11652173913043
20
25.203437436225
30
0
0
VERTEX
8
0
10
3.89565217391304
20
24.2153059673258
30
0
0
VERTEX
8
0
10
4.67478260869565
20
29.839516649586
30
0
0
VERTEX
8
0
10
5.45391304347826
20
35.0223661022598
30
0
0
VERTEX
8
0
10
6.23304347826087
20
35.820865946793
30
0
0
VERTEX
8
0
10
7.01217391304348
20
39.7907354298767
30
0
0
VERTEX
8
0
10
7.79130434782609
20
43.37638124378
30
0
0
VERTEX
8
0
10
8.57043478260869
20
44.9358606950223
30
0
0
VERTEX
8
0
10
9.3495652173913
20
47.8747914264791
30
0
0
VERTEX
8
0
10
10.1286956521739
20
50.5796134944561
30
0
0
VERTEX
8
0
10
10.9078260869565
20
52.225666394661
30
0
0
VERTEX
8
0
10
11.6869565217391
20
54.5122820900812
30
0
0
VERTEX
8
0
10
12.4660869565217
20
56.6307504002128
30
0
0
VERTEX
8
0
10
13.2452173913043
20
58.1374473226401
30
0
0
VERTEX
8
0
10
14.024347826087
20
59.9499402557049
30
0
0
VERTEX
8
0
10
14.8034782608696
20
61.6294753731814
30
0
0
VERTEX
8
0
10
15.5826086956522
20
62.9298241185212
30
0
0
VERTEX
8
0
10
16.3617391304348
20
64.3683334481372
30
0
0
VERTEX
8
0
10
17.1408695652174
20
65.697785307456
30
0
0
VERTEX
8
0
10
17.92
20
66.7798886759701
30
0
0
VERTEX
8
0
10
18.6991304347826
20
67.9269087301797
30
0
0
VERTEX
8
0
10
19.4782608695652
20
69.1217081265347
30
0
0
VERTEX
8
0
10
20.2573913043478
20
70.1890661777239
30
0
0
VERTEX
8
0
10
21.0365217391304
20
71.2573786310327
30
0
0
VERTEX
8
0
10
21.8156521739131
20
72.1832718376567
30
0
0
VERTEX
8
0
10
22.5947826086957
20
73.0292639111286
30
0
0
VERTEX
8
0
10
23.3739130434783
20
73.8545670486114
30
0
0
VERTEX
8
0
10
24.1530434782609
20
74.5657996593569
30
0
0
VERTEX
8
0
10
24.9321739130435
20
75.2255831775549
30
0
0
VERTEX
8
0
10
25.7113043478261
20
75.8532634252791
30
0
0
VERTEX
8
0
10
26.4904347826087
20
76.3883385027555
30
0
0
VERTEX
8
0
10
27.2695652173913
20
76.8901982923997
30
0
0
VERTEX
8
0
10
28.0486956521739
20
77.433413294086
30
0
0
VERTEX
8
0
10
28.8278260869565
20
77.744944976781
30
0
0
VERTEX
8
0
10
29.6069565217391
20
78.113661400247
30
0
0
VERTEX
8
0
10
30.3860869565218
20
78.4998276843442
30
0
0
VERTEX
8
0
10
31.1652173913044
20
78.7154611427969
30
0
0
VERTEX
8
0
10
31.944347826087
20
78.9734336492492
30
0
0
VERTEX
8
0
10
32.7234782608696
20
79.2347659777633
30
0
0
VERTEX
8
0
10
33.5026086956522
20
79.3700536744987
30
0
0
VERTEX
8
0
10
34.2817391304348
20
79.5377702803197
30
0
0
VERTEX
8
0
10
35.0608695652174
20
79.7011929907891
30
0
0
VERTEX
8
0
10
35.84
20
79.7714903549374
30
0
0
VERTEX
8
0
10
36.6191304347826
20
79.8677594368243
30
0
0
VERTEX
8
0
10
37.3982608695652
20
79.9562740050848
30
0
0
VERTEX
8
0
10
38.1773913043478
20
79.9764153690191
30
0
0
VERTEX
8
0
10
38.9565217391304
20
80.0184967217855
30
0
0
VERTEX
8
0
10
39.735652173913
20
80.0520451014387
30
0
0
VERTEX
8
0
10
40.5147826086956
20
80.0361282353382
30
0
0
VERTEX
8
0
10
41.2939130434782
20
80.0398225315872
30
0
0
VERTEX
8
0
10
42.0730434782608
20
80.0358636685754
30
0
0
VERTEX
8
0
10
42.8521739130434
20
79.9971233803601
30
0
0
VERTEX
8
0
10
43.6313043478261
20
79.9768613127011
30
0
0
VERTEX
8
0
10
44.4104347826087
20
79.9508004839514
30
0
0
VERTEX
8
0
10
45.1895652173913
20
79.9015811823713
30
0
0
VERTEX
8
0
10
45.9686956521739
20
79.864777974848
30
0
0
VERTEX
8
0
10
46.7478260869565
20
79.8361681759605
30
0
0
VERTEX
8
0
10
47.5269565217391
20
79.7880675297921
30
0
0
VERTEX
8
0
10
48.3060869565217
20
79.753034315403
30
0
0
VERTEX
8
0
10
49.0852173913043
20
79.7286262638634
30
0
0
VERTEX
8
0
10
49.8643478260869
20
79.6931091554667
30
0
0
VERTEX
8
0
10
50.6434782608695
20
79.6722865423192
30
0
0
VERTEX
8
0
10
51.4226086956521
20
79.6657101012617
30
0
0
VERTEX
8
0
10
52.2017391304347
20
79.6573842809591
30
0
0
VERTEX
8
0
10
52.9808695652173
20
79.6699048019571
30
0
0
VERTEX
8
0
10
53.7599999999999
20
79.7006415050258
30
0
0
VERTEX
8
0
10
54.5391304347825
20
79.7303127114589
30
0
0
VERTEX
8
0
10
55.3182608695651
20
79.7708544133706
30
0
0
VERTEX
8
0
10
56.0973913043477
20
79.8208026927077
30
0
0
VERTEX
8
0
10
56.8765217391304
20
79.8668828878354
30
0
0
VERTEX
8
0
10
57.655652173913
20
79.9188090024813
30
0
0
VERTEX
8
0
10
58.4347826086956
20
79.9769018994807
30
0
0
VERTEX
8
0
10
59.2139130434782
20
80.0308175783838
30
0
0
VERTEX
8
0
10
59.9930434782608
20
80.0875758456047
30
0
0
VERTEX
8
0
10
60.7721739130434
20
80.1486108235206
30
0
0
VERTEX
8
0
10
61.551304347826
20
80.2057536081966
30
0
0
VERTEX
8
0
10
62.3304347826086
20
80.2636517885226
30
0
0
VERTEX
8
0
10
63.1095652173912
20
80.3245892562797
30
0
0
VERTEX
8
0
10
63.8886956521738
20
80.3821117396783
30
0
0
VERTEX
8
0
10
64.6678260869564
20
80.438862564942
30
0
0
VERTEX
8
0
10
65.446956521739
20
80.4978043613218
30
0
0
VERTEX
8
0
10
66.2260869565216
20
80.5538591315796
30
0
0
VERTEX
8
0
10
67.0052173913042
20
80.6080027733043
30
0
0
VERTEX
8
0
10
67.7843478260868
20
80.6637441680814
30
0
0
VERTEX
8
0
10
68.5634782608694
20
80.7171189202329
30
0
0
VERTEX
8
0
10
69.342608695652
20
80.7677289043947
30
0
0
VERTEX
8
0
10
70.1217391304346
20
80.8195191744552
30
0
0
VERTEX
8
0
10
70.9008695652173
20
80.8694307105098
30
0
0
VERTEX
8
0
10
71.6799999999999
20
80.9159423494858
30
0
0
VERTEX
8
0
10
72.4591304347825
20
80.9633411234501
30
0
0
VERTEX
8
0
10
73.2382608695651
20
81.0093067613396
30
0
0
VERTEX
8
0
10
74.0173913043477
20
81.0514079441871
30
0
0
VERTEX
8
0
10
74.7965217391303
20
81.0941921023101
30
0
0
VERTEX
8
0
10
75.5756521739129
20
81.1359437200033
30
0
0
VERTEX
8
0
10
76.3547826086955
20
81.1735010328083
30
0
0
VERTEX
8
0
10
77.1339130434781
20
81.211600940579
30
0
0
VERTEX
8
0
10
77.9130434782607
20
81.2490246026476
30
0
0
VERTEX
8
0
10
78.6921739130433
20
81.2820310591541
30
0
0
VERTEX
8
0
10
79.4713043478259
20
81.3154850394473
30
0
0
VERTEX
8
0
10
80.2504347826085
20
81.3485769854935
30
0
0
VERTEX
8
0
10
81.0295652173911
20
81.3771137672788
30
0
0
VERTEX
8
0
10
81.8086956521737
20
81.4060345361526
30
0
0
VERTEX
8
0
10
82.5878260869563
20
81.4348681709504
30
0
0
VERTEX
8
0
10
83.366956521739
20
81.4590758808136
30
0
0
VERTEX
8
0
10
84.1460869565216
20
81.4836251806309
30
0
0
VERTEX
8
0
10
84.9252173913042
20
81.508325772227
30
0
0
VERTEX
8
0
10
85.7043478260868
20
81.5283824028255
30
0
0
VERTEX
8
0
10
86.4834782608694
20
81.5487514655584
30
0
0
VERTEX
8
0
10
87.262608695652
20
81.5694764377104
30
0
0
VERTEX
8
0
10
88.0417391304346
20
81.5855802441053
30
0
0
VERTEX
8
0
10
88.8208695652172
20
81.601974542298
30
0
0
VERTEX
8
0
10
89.5999999999998
20
81.6188979580749
30
0
0
VERTEX
8
0
10
90.3791304347824
20
81.6312540245001
30
0
0
VERTEX
8
0
10
91.158260869565
20
81.6438812762814
30
0
0
VERTEX
8
0
10
91.9373913043476
20
81.6571815562885
30
0
0
VERTEX
8
0
10
92.7165217391302
20
81.6659912298603
30
0
0
VERTEX
8
0
10
93.4956521739128
20
81.6750519505811
30
0
0
VERTEX
8
0
10
94.2747826086954
20
81.6849021608632
30
0
0
VERTEX
8
0
10
95.053913043478
20
81.6903547765841
30
0
0
VERTEX
8
0
10
95.8330434782606
20
81.6960348862108
30
0
0
VERTEX
8
0
10
96.6121739130433
20
81.7025951276084
30
0
0
VERTEX
8
0
10
97.3913043478259
20
81.704719196371
30
0
0
VERTEX
8
0
10
98.1704347826085
20
81.7073267640995
30
0
0
VERTEX
8
0
10
98.9495652173911
20
81.7107383322333
30
0
0
VERTEX
8
0
10
99.7286956521737
20
81.7098240205153
30
0
0
VERTEX
8
0
10
100.507826086956
20
81.7093577973558
30
0
0
VERTEX
8
0
10
101.286956521739
20
81.7097388821855
30
0
0
VERTEX
8
0
10
102.066086956521
20
81.7059122627448
30
0
0
VERTEX
8
0
10
102.845217391304
20
81.7024811707142
30
0
0
VERTEX
8
0
10
103.624347826087
20
81.6999239419535
30
0
0
VERTEX
8
0
10
104.403478260869
20
81.6932808923918
30
0
0
VERTEX
8
0
10
105.182608695652
20
81.6869663785462
30
0
0
VERTEX
8
0
10
105.961739130435
20
81.6815353708094
30
0
0
VERTEX
8
0
10
106.740869565217
20
81.6721410655802
30
0
0
VERTEX
8
0
10
107.52
20
81.6629962939996
30
0
0
VERTEX
8
0
10
108.299130434782
20
81.6547280804663
30
0
0
VERTEX
8
0
10
109.078260869565
20
81.6426176648963
30
0
0
VERTEX
8
0
10
109.857391304348
20
81.6306680552976
30
0
0
VERTEX
8
0
10
110.63652173913
20
81.6195723189801
30
0
0
VERTEX
8
0
10
111.415652173913
20
81.6047529557556
30
0
0
VERTEX
8
0
10
112.194782608695
20
81.5899983364084
30
0
0
VERTEX
8
0
10
112.973913043478
20
81.5760607424729
30
0
0
VERTEX
8
0
10
113.753043478261
20
81.5585156526432
30
0
0
VERTEX
8
0
10
114.532173913043
20
81.5409349655239
30
0
0
VERTEX
8
0
10
115.311304347826
20
81.5239156884464
30
0
0
VERTEX
8
0
10
116.090434782608
20
81.5038203171126
30
0
0
VERTEX
8
0
10
116.869565217391
20
81.4833832658512
30
0
0
VERTEX
8
0
10
117.648695652174
20
81.4634857257935
30
0
0
VERTEX
8
0
10
118.427826086956
20
81.4405856997248
30
0
0
VERTEX
8
0
10
119.206956521739
20
81.4172890845589
30
0
0
VERTEX
8
0
10
119.986086956521
20
81.3944805192696
30
0
0
VERTEX
8
0
10
120.765217391304
20
81.3686632240687
30
0
0
VERTEX
8
0
10
121.544347826087
20
81.3422731054942
30
0
0
VERTEX
8
0
10
122.323478260869
20
81.3162285583453
30
0
0
VERTEX
8
0
10
123.102608695652
20
81.2871723184043
30
0
0
VERTEX
8
0
10
123.881739130434
20
81.2574340686604
30
0
0
VERTEX
8
0
10
124.660869565217
20
81.2279715407471
30
0
0
VERTEX
8
0
10
125.44
20
81.1955580220877
30
0
0
VERTEX
8
0
10
126.219130434782
20
81.1624039279422
30
0
0
VERTEX
8
0
10
126.998260869565
20
81.1294903224929
30
0
0
VERTEX
8
0
10
127.777391304348
20
81.09372309347
30
0
0
VERTEX
8
0
10
128.55652173913
20
81.0571921184296
30
0
0
VERTEX
8
0
10
129.335652173913
20
81.0208915294329
30
0
0
VERTEX
8
0
10
130.114782608695
20
80.9818649521086
30
0
0
VERTEX
8
0
10
130.893913043478
20
80.9420839018928
30
0
0
VERTEX
8
0
10
131.673043478261
20
80.9025469059746
30
0
0
VERTEX
8
0
10
132.452173913043
20
80.8604416688855
30
0
0
VERTEX
8
0
10
133.231304347826
20
80.8176258463643
30
0
0
VERTEX
8
0
10
134.010434782608
20
80.7750950065086
30
0
0
VERTEX
8
0
10
134.789565217391
20
80.7301888747561
30
0
0
VERTEX
8
0
10
135.568695652174
20
80.6846587077298
30
0
0
VERTEX
8
0
10
136.347826086956
20
80.639492550581
30
0
0
VERTEX
8
0
10
137.126956521739
20
80.5921943314167
30
0
0
VERTEX
8
0
10
137.906086956522
20
80.5444234237187
30
0
0
VERTEX
8
0
10
138.685217391304
20
80.4971660295195
30
0
0
VERTEX
8
0
10
139.464347826087
20
80.4481205254225
30
0
0
VERTEX
8
0
10
140.243478260869
20
80.3989001566066
30
0
0
VERTEX
8
0
10
141.022608695652
20
80.3505273702637
30
0
0
VERTEX
8
0
10
141.801739130435
20
80.3008548913715
30
0
0
VERTEX
8
0
10
142.580869565217
20
80.2511944646851
30
0
0
VERTEX
8
0
10
143.36
20
80.20223249987
30
0
0
VERTEX
8
0
10
144.139130434783
20
80.1517858551671
30
0
0
VERTEX
8
0
10
144.918260869565
20
80.1010541364804
30
0
0
VERTEX
8
0
10
145.697391304348
20
80.050739581975
30
0
0
VERTEX
8
0
10
146.47652173913
20
79.9988779434153
30
0
0
VERTEX
8
0
10
147.255652173913
20
79.9466022539487
30
0
0
VERTEX
8
0
10
148.034782608696
20
79.8945835424741
30
0
0
VERTEX
8
0
10
148.813913043478
20
79.8410374009086
30
0
0
VERTEX
8
0
10
149.593043478261
20
79.7870092480616
30
0
0
VERTEX
8
0
10
150.372173913043
20
79.7331239476957
30
0
0
VERTEX
8
0
10
151.151304347826
20
79.6777660022643
30
0
0
VERTEX
8
0
10
151.930434782609
20
79.6218893461001
30
0
0
VERTEX
8
0
10
152.709565217391
20
79.5660678894884
30
0
0
VERTEX
8
0
10
153.488695652174
20
79.5088490622899
30
0
0
VERTEX
8
0
10
154.267826086957
20
79.4510956308482
30
0
0
VERTEX
8
0
10
155.046956521739
20
79.393328852909
30
0
0
VERTEX
8
0
10
155.826086956522
20
79.3342540145573
30
0
0
VERTEX
8
0
10
156.605217391304
20
79.2746447309795
30
0
0
VERTEX
8
0
10
157.384347826087
20
79.2149693972453
30
0
0
VERTEX
8
0
10
158.16347826087
20
79.1540859614672
30
0
0
VERTEX
8
0
10
158.942608695652
20
79.0926818712559
30
0
0
VERTEX
8
0
10
159.721739130435
20
79.031173411956
30
0
0
VERTEX
8
0
10
160.500869565218
20
78.9685655231467
30
0
0
VERTEX
8
0
10
161.28
20
78.9054631582279
30
0
0
VERTEX
8
0
10
162.059130434783
20
78.8422319955315
30
0
0
VERTEX
8
0
10
162.838260869565
20
78.7780176804142
30
0
0
VERTEX
8
0
10
163.617391304348
20
78.7133469167551
30
0
0
VERTEX
8
0
10
164.396521739131
20
78.6485369322166
30
0
0
VERTEX
8
0
10
165.175652173913
20
78.582867122452
30
0
0
VERTEX
8
0
10
165.954782608696
20
78.5167907078765
30
0
0
VERTEX
8
0
10
166.733913043479
20
78.4505792340054
30
0
0
VERTEX
8
0
10
167.513043478261
20
78.3836382077368
30
0
0
SEQEND
8
0
0
POLYLINE
8
0
62
4
70
0
10
0
20
0
30
0
0
VERTEX
8
0
10
3.11652173913043
20
30.8549166309982
30
0
0
VERTEX
8
0
10
3.89565217391304
20
34.0381765783302
30
0
0
VERTEX
8
0
10
4.67478260869565
20
36.9875978280081
30
0
0
VERTEX
8
0
10
5.45391304347826
20
40.8503997323103
30
0
0
VERTEX
8
0
10
6.23304347826087
20
43.2384135639567
30
0
0
VERTEX
8
0
10
7.01217391304348
20
44.1637705785942
30
0
0
VERTEX
8
0
10
7.79130434782609
20
44.99527810327
30
0
0
VERTEX
8
0
10
8.57043478260869
20
46.0669181889063
30
0
0
VERTEX
8
0
10
9.3495652173913
20
47.4553436428948
30
0
0
VERTEX
8
0
10
10.1286956521739
20
49.2791391406432
30
0
0
VERTEX
8
0
10
10.9078260869565
20
51.7530200257429
30
0
0
VERTEX
8
0
10
11.6869565217391
20
53.5459689904939
30
0
0
VERTEX
8
0
10
12.4660869565217
20
55.6398926102325
30
0
0
VERTEX
8
0
10
13.2452173913043
20
57.8332127619625
30
0
0
VERTEX
8
0
10
14.024347826087
20
60.5309246209365
30
0
0
VERTEX
8
0
10
14.8034782608696
20
62.7877576346067
30
0
0
VERTEX
8
0
10
15.5826086956522
20
64.2822708040939
30
0
0
VERTEX
8
0
10
16.3617391304348
20
65.7367080576391
30
0
0
VERTEX
8
0
10
17.1408695652174
20
66.975898146609
30
0
0
VERTEX
8
0
10
17.92
20
68.2097454137443
30
0
0
VERTEX
8
0
10
18.6991304347826
20
68.9079705894917
30
0
0
VERTEX
8
0
10
19.4782608695652
20
68.8025482290824
30
0
0
VERTEX
8
0
10
20.2573913043478
20
68.8539002574609
30
0
0
VERTEX
8
0
10
21.0365217391304
20
68.8796900360737
30
0
0
VERTEX
8
0
10
21.8156521739131
20
68.97744233707
30
0
0
VERTEX
8
0
10
22.5947826086957
20
69.1823941814248
30
0
0
VERTEX
8
0
10
23.3739130434783
20
69.3710342629973
30
0
0
VERTEX
8
0
10
24.1530434782609
20
69.558945205025
30
0
0
VERTEX
8
0
10
24.9321739130435
20
69.8871742344833
30
0
0
VERTEX
8
0
10
25.7113043478261
20
70.2070943887122
30
0
0
VERTEX
8
0
10
26.4904347826087
20
70.6314392620968
30
0
0
VERTEX
8
0
10
27.2695652173913
20
71.0954826905983
30
0
0
VERTEX
8
0
10
28.0486956521739
20
71.6920803228429
30
0
0
VERTEX
8
0
10
28.8278260869565
20
72.4910683508967
30
0
0
VERTEX
8
0
10
29.6069565217391
20
73.2819702993052
30
0
0
VERTEX
8
0
10
30.3860869565218
20
74.1061918366551
30
0
0
VERTEX
8
0
10
31.1652173913044
20
74.7951390523598
30
0
0
VERTEX
8
0
10
31.944347826087
20
75.4771243632883
30
0
0
VERTEX
8
0
10
32.7234782608696
20
76.2391234701671
30
0
0
VERTEX
8
0
10
33.5026086956522
20
77.050735337213
30
0
0
VERTEX
8
0
10
34.2817391304348
20
77.2281034637996
30
0
0
VERTEX
8
0
10
35.0608695652174
20
77.5820385536323
30
0
0
VERTEX
8
0
10
35.84
20
77.7817254661437
30
0
0
VERTEX
8
0
10
36.6191304347826
20
77.9303612845917
30
0
0
VERTEX
8
0
10
37.3982608695652
20
78.0687375427746
30
0
0
VERTEX
8
0
10
38.1773913043478
20
78.3066318701572
30
0
0
VERTEX
8
0
10
38.9565217391304
20
78.5020416799708
30
0
0
VERTEX
8
0
10
39.735652173913
20
78.7545332760804
30
0
0
VERTEX
8
0
10
40.5147826086956
20
78.6328444067606
30
0
0
VERTEX
8
0
10
41.2939130434782
20
78.5354025425326
30
0
0
VERTEX
8
0
10
42.0730434782608
20
78.4308192572176
30
0
0
VERTEX
8
0
10
42.8521739130434
20
78.4815042539532
30
0
0
VERTEX
8
0
10
43.6313043478261
20
78.3806852001292
30
0
0
VERTEX
8
0
10
44.4104347826087
20
78.2740229145703
30
0
0
VERTEX
8
0
10
45.1895652173913
20
78.1757500631743
30
0
0
VERTEX
8
0
10
45.9686956521739
20
78.2143661808645
30
0
0
VERTEX
8
0
10
46.7478260869565
20
78.249893726116
30
0
0
VERTEX
8
0
10
47.5269565217391
20
78.2893619390362
30
0
0
VERTEX
8
0
10
48.3060869565217
20
78.3226234698844
30
0
0
VERTEX
8
0
10
49.0852173913043
20
78.3536149884277
30
0
0
VERTEX
8
0
10
49.8643478260869
20
78.3050089979539
30
0
0
VERTEX
8
0
10
50.6434782608695
20
78.3351355895661
30
0
0
VERTEX
8
0
10
51.4226086956521
20
78.4468359406894
30
0
0
VERTEX
8
0
10
52.2017391304347
20
78.479686683008
30
0
0
VERTEX
8
0
10
52.9808695652173
20
78.507513670104
30
0
0
VERTEX
8
0
10
53.7599999999999
20
78.6666426101752
30
0
0
VERTEX
8
0
10
54.5391304347825
20
78.8292432486973
30
0
0
VERTEX
8
0
10
55.3182608695651
20
78.853844598327
30
0
0
VERTEX
8
0
10
56.0973913043477
20
79.0402250402709
30
0
0
VERTEX
8
0
10
56.8765217391304
20
79.1979200379501
30
0
0
VERTEX
8
0
10
57.655652173913
20
79.2192977426293
30
0
0
VERTEX
8
0
10
58.4347826086956
20
79.4010626531077
30
0
0
VERTEX
8
0
10
59.2139130434782
20
79.6835062644575
30
0
0
VERTEX
8
0
10
59.9930434782608
20
79.8153420108752
30
0
0
VERTEX
8
0
10
60.7721739130434
20
79.8997868052508
30
0
0
VERTEX
8
0
10
61.551304347826
20
80.0011875966063
30
0
0
VERTEX
8
0
10
62.3304347826086
20
80.0518293153665
30
0
0
VERTEX
8
0
10
63.1095652173912
20
80.1366114888059
30
0
0
VERTEX
8
0
10
63.8886956521738
20
80.3135257816871
30
0
0
VERTEX
8
0
10
64.6678260869564
20
80.3630199609329
30
0
0
VERTEX
8
0
10
65.446956521739
20
80.2994726814125
30
0
0
VERTEX
8
0
10
66.2260869565216
20
80.2758563809188
30
0
0
VERTEX
8
0
10
67.0052173913042
20
80.2896771005607
30
0
0
VERTEX
8
0
10
67.7843478260868
20
80.3387597892624
30
0
0
VERTEX
8
0
10
68.5634782608694
20
80.2402561336502
30
0
0
VERTEX
8
0
10
69.342608695652
20
80.2532549630601
30
0
0
VERTEX
8
0
10
70.1217391304346
20
80.2656523039651
30
0
0
VERTEX
8
0
10
70.9008695652173
20
80.3184193245445
30
0
0
VERTEX
8
0
10
71.6799999999999
20
80.2564352515586
30
0
0
VERTEX
8
0
10
72.4591304347825
20
80.3061243448241
30
0
0
VERTEX
8
0
10
73.2382608695651
20
80.3595594481283
30
0
0
VERTEX
8
0
10
74.0173913043477
20
80.2636891000855
30
0
0
VERTEX
8
0
10
74.7965217391303
20
80.3138806911519
30
0
0
VERTEX
8
0
10
75.5756521739129
20
80.3676965047031
30
0
0
VERTEX
8
0
10
76.3547826086955
20
80.4175754954683
30
0
0
VERTEX
8
0
10
77.1339130434781
20
80.4675269409104
30
0
0
VERTEX
8
0
10
77.9130434782607
20
80.5513958715477
30
0
0
VERTEX
8
0
10
78.6921739130433
20
80.6706792770015
30
0
0
VERTEX
8
0
10
79.4713043478259
20
80.6787054789077
30
0
0
VERTEX
8
0
10
80.2504347826085
20
80.8001566768392
30
0
0
VERTEX
8
0
10
81.0295652173911
20
80.8762135061522
30
0
0
VERTEX
8
0
10
81.8086956521737
20
80.882124687673
30
0
0
VERTEX
8
0
10
82.5878260869563
20
81.0700422026542
30
0
0
VERTEX
8
0
10
83.366956521739
20
81.0742018989882
30
0
0
VERTEX
8
0
10
84.1460869565216
20
81.1464662785484
30
0
0
VERTEX
8
0
10
84.9252173913042
20
81.2208382243053
30
0
0
VERTEX
8
0
10
85.7043478260868
20
81.2907658831183
30
0
0
VERTEX
8
0
10
86.4834782608694
20
81.3598872954824
30
0
0
VERTEX
8
0
10
87.262608695652
20
81.4310291688681
30
0
0
VERTEX
8
0
10
88.0417391304346
20
81.4978840629804
30
0
0
VERTEX
8
0
10
88.8208695652172
20
81.4969897539371
30
0
0
VERTEX
8
0
10
89.5999999999998
20
81.6747624231431
30
0
0
VERTEX
8
0
10
90.3791304347824
20
81.6723028048491
30
0
0
VERTEX
8
0
10
91.158260869565
20
81.7790622681775
30
0
0
VERTEX
8
0
10
91.9373913043476
20
81.8881036571171
30
0
0
VERTEX
8
0
10
92.7165217391302
20
81.9498096580856
30
0
0
VERTEX
8
0
10
93.4956521739128
20
82.0547597839005
30
0
0
VERTEX
8
0
10
94.2747826086954
20
82.1619122486209
30
0
0
VERTEX
8
0
10
95.053913043478
20
82.2211759680002
30
0
0
VERTEX
8
0
10
95.8330434782606
20
82.1705688290062
30
0
0
VERTEX
8
0
10
96.6121739130433
20
82.1665754069496
30
0
0
VERTEX
8
0
10
97.3913043478259
20
82.2232360787082
30
0
0
VERTEX
8
0
10
98.1704347826085
20
82.2350075470187
30
0
0
VERTEX
8
0
10
98.9495652173911
20
82.2291662199915
30
0
0
VERTEX
8
0
10
99.7286956521737
20
82.2201075868028
30
0
0
VERTEX
8
0
10
100.507826086956
20
82.2292925144249
30
0
0
VERTEX
8
0
10
101.286956521739
20
82.2396607248869
30
0
0
VERTEX
8
0
10
102.066086956521
20
82.1663344403406
30
0
0
VERTEX
8
0
10
102.845217391304
20
82.2184053673864
30
0
0
VERTEX
8
0
10
103.624347826087
20
82.1642439444616
30
0
0
VERTEX
8
0
10
104.403478260869
20
82.1069929781403
30
0
0
VERTEX
8
0
10
105.182608695652
20
82.095492072978
30
0
0
VERTEX
8
0
10
105.961739130435
20
82.0857846928236
30
0
0
VERTEX
8
0
10
106.740869565217
20
82.0273762423751
30
0
0
VERTEX
8
0
10
107.52
20
82.0150618287376
30
0
0
VERTEX
8
0
10
108.299130434782
20
82.0645546609824
30
0
0
VERTEX
8
0
10
109.078260869565
20
82.064637745086
30
0
0
VERTEX
8
0
10
109.857391304348
20
82.0509134122676
30
0
0
VERTEX
8
0
10
110.63652173913
20
82.0388914639593
30
0
0
VERTEX
8
0
10
111.415652173913
20
81.9777571767084
30
0
0
VERTEX
8
0
10
112.194782608695
20
82.0342540023864
30
0
0
VERTEX
8
0
10
112.973913043478
20
82.0206600579686
30
0
0
VERTEX
8
0
10
113.753043478261
20
81.9579151099564
30
0
0
VERTEX
8
0
10
114.532173913043
20
81.9064882208757
30
0
0
VERTEX
8
0
10
115.311304347826
20
81.8446645109532
30
0
0
VERTEX
8
0
10
116.090434782608
20
81.8383305544205
30
0
0
VERTEX
8
0
10
116.869565217391
20
81.7738988650492
30
0
0
VERTEX
8
0
10
117.648695652174
20
81.7212158502299
30
0
0
VERTEX
8
0
10
118.427826086956
20
81.6661569420568
30
0
0
VERTEX
8
0
10
119.206956521739
20
81.6000760614921
30
0
0
VERTEX
8
0
10
119.986086956521
20
81.5917984982851
30
0
0
VERTEX
8
0
10
120.765217391304
20
81.488400456599
30
0
0
VERTEX
8
0
10
121.544347826087
20
81.4207103548456
30
0
0
VERTEX
8
0
10
122.323478260869
20
81.4202385139951
30
0
0
VERTEX
8
0
10
123.102608695652
20
81.3051716688992
30
0
0
VERTEX
8
0
10
123.881739130434
20
81.2916885805797
30
0
0
VERTEX
8
0
10
124.660869565217
20
81.2329392156355
30
0
0
VERTEX
8
0
10
125.44
20
81.1165973541003
30
0
0
VERTEX
8
0
10
126.219130434782
20
81.1563816136486
30
0
0
VERTEX
8
0
10
126.998260869565
20
81.0860688070307
30
0
0
VERTEX
8
0
10
127.777391304348
20
81.1240178649245
30
0
0
VERTEX
8
0
10
128.55652173913
20
81.0512720652947
30
0
0
VERTEX
8
0
10
129.335652173913
20
80.9884107035335
30
0
0
VERTEX
8
0
10
130.114782608695
20
80.96923570567
30
0
0
VERTEX
8
0
10
130.893913043478
20
80.9038527790159
30
0
0
VERTEX
8
0
10
131.673043478261
20
80.8845532871048
30
0
0
VERTEX
8
0
10
132.452173913043
20
80.8093801853675
30
0
0
VERTEX
8
0
10
133.231304347826
20
80.8415524335083
30
0
0
VERTEX
8
0
10
134.010434782608
20
80.7665704193508
30
0
0
VERTEX
8
0
10
134.789565217391
20
80.6981151998637
30
0
0
VERTEX
8
0
10
135.568695652174
20
80.6745693033004
30
0
0
VERTEX
8
0
10
136.347826086956
20
80.6060892897149
30
0
0
VERTEX
8
0
10
137.126956521739
20
80.5813189974652
30
0
0
VERTEX
8
0
10
137.906086956522
20
80.5559899186079
30
0
0
VERTEX
8
0
10
138.685217391304
20
80.4858044500867
30
0
0
VERTEX
8
0
10
139.464347826087
20
80.4141875489483
30
0
0
VERTEX
8
0
10
140.243478260869
20
80.3871851100427
30
0
0
VERTEX
8
0
10
141.022608695652
20
80.3155530392966
30
0
0
VERTEX
8
0
10
141.801739130435
20
80.2426015986313
30
0
0
VERTEX
8
0
10
142.580869565217
20
80.2140417625226
30
0
0
VERTEX
8
0
10
143.36
20
80.1410576213919
30
0
0
VERTEX
8
0
10
144.139130434783
20
80.0668416442831
30
0
0
VERTEX
8
0
10
144.918260869565
20
80.0367764068139
30
0
0
VERTEX
8
0
10
145.697391304348
20
79.8666608164999
30
0
0
VERTEX
8
0
10
146.47652173913
20
79.8870385976649
30
0
0
VERTEX
8
0
10
147.255652173913
20
79.8112513896279
30
0
0
VERTEX
8
0
10
148.034782608696
20
79.7358224081539
30
0
0
VERTEX
8
0
10
148.813913043478
20
79.6084219256008
30
0
0
VERTEX
8
0
10
149.593043478261
20
79.5825071360907
30
0
0
VERTEX
8
0
10
150.372173913043
20
79.5497108830878
30
0
0
VERTEX
8
0
10
151.151304347826
20
79.4284983136796
30
0
0
VERTEX
8
0
10
151.930434782609
20
79.4446545824761
30
0
0
VERTEX
8
0
10
152.709565217391
20
79.366846565212
30
0
0
VERTEX
8
0
10
153.488695652174
20
79.2881441636201
30
0
0
VERTEX
8
0
10
154.267826086957
20
79.3025691565849
30
0
0
VERTEX
8
0
10
155.046956521739
20
79.3602232351395
30
0
0
VERTEX
8
0
10
155.826086956522
20
79.3302104183015
30
0
0
VERTEX
8
0
10
156.605217391304
20
79.2927178581466
30
0
0
VERTEX
8
0
10
157.384347826087
20
79.2121201136054
30
0
0
VERTEX
8
0
10
158.16347826087
20
79.1807683153914
30
0
0
VERTEX
8
0
10
158.942608695652
20
79.1419476211961
30
0
0
VERTEX
8
0
10
159.721739130435
20
79.0602621802491
30
0
0
VERTEX
8
0
10
160.500869565218
20
78.9779365884448
30
0
0
VERTEX
8
0
10
161.28
20
78.938018264694
30
0
0
VERTEX
8
0
10
162.059130434783
20
78.9048842311964
30
0
0
VERTEX
8
0
10
162.838260869565
20
78.7723314369506
30
0
0
VERTEX
8
0
10
163.617391304348
20
78.7381927074364
30
0
0
VERTEX
8
0
10
164.396521739131
20
78.6548442380067
30
0
0
VERTEX
8
0
10
165.175652173913
20
78.5710211872039
30
0
0
VERTEX
8
0
10
165.954782608696
20
78.487033852599
30
0
0
VERTEX
8
0
10
166.733913043479
20
78.4449458446089
30
0
0
VERTEX
8
0
10
167.513043478261
20
78.3675146511539
30
0
0
SEQEND
8
0
0
POLYLINE
8
0
62
2
70
0
10
0
20
0
30
0
0
VERTEX
8
0
10
3.11652173913043
20
24.1493330538216
30
0
0
VERTEX
8
0
10
3.89565217391304
20
22.5236449406902
30
0
0
VERTEX
8
0
10
4.67478260869565
20
27.9349273928097
30
0
0
VERTEX
8
0
10
5.45391304347826
20
32.8879345266753
30
0
0
VERTEX
8
0
10
6.23304347826087
20
33.1541835382594
30
0
0
VERTEX
8
0
10
7.01217391304348
20
36.8535593895725
30
0
0
VERTEX
8
0
10
7.79130434782609
20
40.1558462468009
30
0
0
VERTEX
8
0
10
8.57043478260869
20
41.2700525427916
30
0
0
VERTEX
8
0
10
9.3495652173913
20
43.9112420840131
30
0
0
VERTEX
8
0
10
10.1286956521739
20
46.3136940213064
30
0
0
VERTEX
8
0
10
10.9078260869565
20
47.5644514837706
30
0
0
VERTEX
8
0
10
11.6869565217391
20
49.5474504491852
30
0
0
VERTEX
8
0
10
12.4660869565217
20
51.3604740282128
30
0
0
VERTEX
8
0
10
13.2452173913043
20
52.5047805410199
30
0
0
VERTEX
8
0
10
14.024347826087
20
54.0171427601583
30
0
0
VERTEX
8
0
10
14.8034782608696
20
55.3956489608227
30
0
0
VERTEX
8
0
10
15.5826086956522
20
56.3586308959949
30
0
0
VERTEX
8
0
10
16.3617391304348
20
57.5047324184444
30
0
0
VERTEX
8
0
10
17.1408695652174
20
58.5412407390743
30
0
0
VERTEX
8
0
10
17.92
20
59.3067029443225
30
0
0
VERTEX
8
0
10
18.6991304347826
20
60.1550009994264
30
0
0
VERTEX
8
0
10
19.4782608695652
20
60.9123823127587
30
0
0
VERTEX
8
0
10
20.2573913043478
20
61.4863973452045
30
0
0
VERTEX
8
0
10
21.0365217391304
20
62.0870419415693
30
0
0
VERTEX
8
0
10
21.8156521739131
20
62.6120807292957
30
0
0
VERTEX
8
0
10
22.5947826086957
20
63.0095573527648
30
0
0
VERTEX
8
0
10
23.3739130434783
20
63.402048844795
30
0
0
VERTEX
8
0
10
24.1530434782609
20
63.7318731461658
30
0
0
VERTEX
8
0
10
24.9321739130435
20
63.9710837448508
30
0
0
VERTEX
8
0
10
25.7113043478261
20
64.1880935332561
30
0
0
VERTEX
8
0
10
26.4904347826087
20
64.3535575991225
30
0
0
VERTEX
8
0
10
27.2695652173913
20
64.4537533542208
30
0
0
VERTEX
8
0
10
28.0486956521739
20
64.621861441877
30
0
0
VERTEX
8
0
10
28.8278260869565
20
64.5508590320724
30
0
0
VERTEX
8
0
10
29.6069565217391
20
64.5311946252878
30
0
0
VERTEX
8
0
10
30.3860869565218
20
64.5485860992515
30
0
0
VERTEX
8
0
10
31.1652173913044
20
64.3908075120858
30
0
0
VERTEX
8
0
10
31.944347826087
20
64.2698581787951
30
0
0
VERTEX
8
0
10
32.7234782608696
20
64.1666023395259
30
0
0
VERTEX
8
0
10
33.5026086956522
20
63.9348322068169
30
0
0
VERTEX
8
0
10
34.2817391304348
20
63.7303909665786
30
0
0
VERTEX
8
0
10
35.0608695652174
20
63.5319829430782
30
0
0
VERTEX
8
0
10
35.84
20
63.2396237041661
30
0
0
VERTEX
8
0
10
36.6191304347826
20
62.9686356310561
30
0
0
VERTEX
8
0
10
37.3982608695652
20
62.6972086894064
30
0
0
VERTEX
8
0
10
38.1773913043478
20
62.3578224563906
30
0
0
VERTEX
8
0
10
38.9565217391304
20
62.036389923286
30
0
0
VERTEX
8
0
10
39.735652173913
20
61.7115399139339
30
0
0
VERTEX
8
0
10
40.5147826086956
20
61.3385916888542
30
0
0
VERTEX
8
0
10
41.2939130434782
20
60.9820251292606
30
0
0
VERTEX
8
0
10
42.0730434782608
20
60.6214050195736
30
0
0
VERTEX
8
0
10
42.8521739130434
20
60.2281463789079
30
0
0
VERTEX
8
0
10
43.6313043478261
20
59.8510658058758
30
0
0
VERTEX
8
0
10
44.4104347826087
20
59.4708686663959
30
0
0
VERTEX
8
0
10
45.1895652173913
20
59.0703599120522
30
0
0
VERTEX
8
0
10
45.9686956521739
20
58.6817855967039
30
0
0
VERTEX
8
0
10
46.7478260869565
20
58.3023667110703
30
0
0
VERTEX
8
0
10
47.5269565217391
20
57.9077331182206
30
0
0
VERTEX
8
0
10
48.3060869565217
20
57.5269376640912
30
0
0
VERTEX
8
0
10
49.0852173913043
20
57.1582941654335
30
0
0
VERTEX
8
0
10
49.8643478260869
20
56.7836502867328
30
0
0
VERTEX
8
0
10
50.6434782608695
20
56.4262741023714
30
0
0
VERTEX
8
0
10
51.4226086956521
20
56.0861244307197
30
0
0
VERTEX
8
0
10
52.2017391304347
20
55.7513707773613
30
0
0
VERTEX
8
0
10
52.9808695652173
20
55.4441290139977
30
0
0
VERTEX
8
0
10
53.7599999999999
20
55.1604285005641
30
0
0
VERTEX
8
0
10
54.5391304347825
20
54.8822627327642
30
0
0
VERTEX
8
0
10
55.3182608695651
20
54.6193451559653
30
0
0
VERTEX
8
0
10
56.0973913043477
20
54.3682040945092
30
0
0
VERTEX
8
0
10
56.8765217391304
20
54.1178031023758
30
0
0
VERTEX
8
0
10
57.655652173913
20
53.8768955710502
30
0
0
VERTEX
8
0
10
58.4347826086956
20
53.6436157869483
30
0
0
VERTEX
8
0
10
59.2139130434782
20
53.4098259308813
30
0
0
VERTEX
8
0
10
59.9930434782608
20
53.182330741542
30
0
0
VERTEX
8
0
10
60.7721739130434
20
52.9600890662379
30
0
0
VERTEX
8
0
10
61.551304347826
20
52.7369944177465
30
0
0
VERTEX
8
0
10
62.3304347826086
20
52.5180754351425
30
0
0
VERTEX
8
0
10
63.1095652173912
20
52.3028792921096
30
0
0
VERTEX
8
0
10
63.8886956521738
20
52.0868358027921
30
0
0
VERTEX
8
0
10
64.6678260869564
20
51.873476171987
30
0
0
VERTEX
8
0
10
65.446956521739
20
51.6628094825422
30
0
0
VERTEX
8
0
10
66.2260869565216
20
51.4514479184014
30
0
0
VERTEX
8
0
10
67.0052173913042
20
51.2416962983909
30
0
0
VERTEX
8
0
10
67.7843478260868
20
51.0339373456089
30
0
0
VERTEX
8
0
10
68.5634782608694
20
50.825695064539
30
0
0
VERTEX
8
0
10
69.342608695652
20
50.6182884110069
30
0
0
VERTEX
8
0
10
70.1217391304346
20
50.4124035300428
30
0
0
VERTEX
8
0
10
70.9008695652173
20
50.2062645385132
30
0
0
VERTEX
8
0
10
71.6799999999999
20
50.0004109515354
30
0
0
VERTEX
8
0
10
72.4591304347825
20
49.7957729174853
30
0
0
VERTEX
8
0
10
73.2382608695651
20
49.5911076893954
30
0
0
VERTEX
8
0
10
74.0173913043477
20
49.3863494864586
30
0
0
VERTEX
8
0
10
74.7965217391303
20
49.182620775527
30
0
0
VERTEX
8
0
10
75.5756521739129
20
48.9790801156848
30
0
0
VERTEX
8
0
10
76.3547826086955
20
48.7752016773745
30
0
0
VERTEX
8
0
10
77.1339130434781
20
48.5722548189934
30
0
0
VERTEX
8
0
10
77.9130434782607
20
48.3696956074309
30
0
0
VERTEX
8
0
10
78.6921739130433
20
48.1666581808867
30
0
0
VERTEX
8
0
10
79.4713043478259
20
47.9645188061191
30
0
0
VERTEX
8
0
10
80.2504347826085
20
47.7629497605578
30
0
0
VERTEX
8
0
10
81.0295652173911
20
47.5608434368892
30
0
0
VERTEX
8
0
10
81.8086956521737
20
47.3596479449738
30
0
0
VERTEX
8
0
10
82.5878260869563
20
47.1591885684462
30
0
0
VERTEX
8
0
10
83.366956521739
20
46.9581956911601
30
0
0
VERTEX
8
0
10
84.1460869565216
20
46.7581587196164
30
0
0
VERTEX
8
0
10
84.9252173913042
20
46.5590072716762
30
0
0
VERTEX
8
0
10
85.7043478260868
20
46.3593737300601
30
0
0
VERTEX
8
0
10
86.4834782608694
20
46.1607624248322
30
0
0
VERTEX
8
0
10
87.262608695652
20
45.9631702722216
30
0
0
VERTEX
8
0
10
88.0417391304346
20
45.7651824052609
30
0
0
VERTEX
8
0
10
88.8208695652172
20
45.5682955531076
30
0
0
VERTEX
8
0
10
89.5999999999998
20
45.3725461675779
30
0
0
VERTEX
8
0
10
90.3791304347824
20
45.1765117802116
30
0
0
VERTEX
8
0
10
91.158260869565
20
44.9816625250011
30
0
0
VERTEX
8
0
10
91.9373913043476
20
44.7880539712135
30
0
0
VERTEX
8
0
10
92.7165217391302
20
44.5942864610954
30
0
0
VERTEX
8
0
10
93.4956521739128
20
44.4017877525943
30
0
0
VERTEX
8
0
10
94.2747826086954
20
44.2106178883709
30
0
0
VERTEX
8
0
10
95.053913043478
20
44.0194228128471
30
0
0
VERTEX
8
0
10
95.8330434782606
20
43.8295750250063
30
0
0
VERTEX
8
0
10
96.6121739130433
20
43.6411288973291
30
0
0
VERTEX
8
0
10
97.3913043478259
20
43.4530630999774
30
0
0
VERTEX
8
0
10
98.1704347826085
20
43.2658729007377
30
0
0
VERTEX
8
0
10
98.9495652173911
20
43.0804120088175
30
0
0
VERTEX
8
0
10
99.7286956521737
20
42.8953900085349
30
0
0
VERTEX
8
0
10
100.507826086956
20
42.7114452995249
30
0
0
VERTEX
8
0
10
101.286956521739
20
42.5291985391395
30
0
0
VERTEX
8
0
10
102.066086956521
20
42.3474566921669
30
0
0
VERTEX
8
0
10
102.845217391304
20
42.1669468810742
30
0
0
VERTEX
8
0
10
103.624347826087
20
41.9881031022398
30
0
0
VERTEX
8
0
10
104.403478260869
20
41.8098310005468
30
0
0
VERTEX
8
0
10
105.182608695652
20
41.6329031370636
30
0
0
VERTEX
8
0
10
105.961739130435
20
41.4576053594793
30
0
0
VERTEX
8
0
10
106.740869565217
20
41.282941489216
30
0
0
VERTEX
8
0
10
107.52
20
41.1096954723658
30
0
0
VERTEX
8
0
10
108.299130434782
20
40.9380369410659
30
0
0
VERTEX
8
0
10
109.078260869565
20
40.7670661515469
30
0
0
VERTEX
8
0
10
109.857391304348
20
40.5975520384139
30
0
0
VERTEX
8
0
10
110.63652173913
20
40.4295745441572
30
0
0
VERTEX
8
0
10
111.415652173913
20
40.2623279033078
30
0
0
VERTEX
8
0
10
112.194782608695
20
40.0965460741925
30
0
0
VERTEX
8
0
10
112.973913043478
20
39.9322415829552
30
0
0
VERTEX
8
0
10
113.753043478261
20
39.7687001131769
30
0
0
VERTEX
8
0
10
114.532173913043
20
39.6066064757995
30
0
0
VERTEX
8
0
10
115.311304347826
20
39.445711187201
30
0
0
VERTEX
8
0
10
116.090434782608
20
39.2860332192396
30
0
0
VERTEX
8
0
10
116.869565217391
20
39.1275590070076
30
0
0
VERTEX
8
0
10
117.648695652174
20
38.9702558734448
30
0
0
VERTEX
8
0
10
118.427826086956
20
38.8141641835829
30
0
0
VERTEX
8
0
10
119.206956521739
20
38.6592898184749
30
0
0
VERTEX
8
0
10
119.986086956521
20
38.5055143796575
30
0
0
VERTEX
8
0
10
120.765217391304
20
38.3527704766189
30
0
0
VERTEX
8
0
10
121.544347826087
20
38.2009906421927
30
0
0
VERTEX
8
0
10
122.323478260869
20
38.0500551508606
30
0
0
VERTEX
8
0
10
123.102608695652
20
37.8999595435954
30
0
0
VERTEX
8
0
10
123.881739130434
20
37.7506901004565
30
0
0
VERTEX
8
0
10
124.660869565217
20
37.6021615216156
30
0
0
VERTEX
8
0
10
125.44
20
37.4543961454455
30
0
0
VERTEX
8
0
10
126.219130434782
20
37.3074028516854
30
0
0
VERTEX
8
0
10
126.998260869565
20
37.1611210472415
30
0
0
VERTEX
8
0
10
127.777391304348
20
37.0155883697373
30
0
0
VERTEX
8
0
10
128.55652173913
20
36.8708284502585
30
0
0
VERTEX
8
0
10
129.335652173913
20
36.7268064618273
30
0
0
VERTEX
8
0
10
130.114782608695
20
36.5835719476958
30
0
0
VERTEX
8
0
10
130.893913043478
20
36.4411618638058
30
0
0
VERTEX
8
0
10
131.673043478261
20
36.299570617282
30
0
0
VERTEX
8
0
10
132.452173913043
20
36.1588604420933
30
0
0
VERTEX
8
0
10
133.231304347826
20
36.0190846635551
30
0
0
VERTEX
8
0
10
134.010434782608
20
35.8802725016524
30
0
0
VERTEX
8
0
10
134.789565217391
20
35.74250477805
30
0
0
VERTEX
8
0
10
135.568695652174
20
35.6058605491473
30
0
0
VERTEX
8
0
10
136.347826086956
20
35.4704151707075
30
0
0
VERTEX
8
0
10
137.126956521739
20
35.3362851835066
30
0
0
VERTEX
8
0
10
137.906086956522
20
35.2036009717796
30
0
0
VERTEX
8
0
10
138.685217391304
20
35.072518755879
30
0
0
VERTEX
8
0
10
139.464347826087
20
34.9432516027924
30
0
0
VERTEX
8
0
10
140.243478260869
20
34.8160805476715
30
0
0
VERTEX
8
0
10
141.022608695652
20
34.6913561221399
30
0
0
VERTEX
8
0
10
141.801739130435
20
34.5692982007519
30
0
0
VERTEX
8
0
10
142.580869565217
20
34.4497590475921
30
0
0
VERTEX
8
0
10
143.36
20
34.3324539966126
30
0
0
VERTEX
8
0
10
144.139130434783
20
34.2171562708749
30
0
0
VERTEX
8
0
10
144.918260869565
20
34.1037005735857
30
0
0
VERTEX
8
0
10
145.697391304348
20
33.9919606253068
30
0
0
VERTEX
8
0
10
146.47652173913
20
33.8818350673031
30
0
0
VERTEX
8
0
10
147.255652173913
20
33.7732395127277
30
0
0
VERTEX
8
0
10
148.034782608696
20
33.6661018141146
30
0
0
VERTEX
8
0
10
148.813913043478
20
33.5603590499603
30
0
0
VERTEX
8
0
10
149.593043478261
20
33.4559554943939
30
0
0
VERTEX
8
0
10
150.372173913043
20
33.3528411864328
30
0
0
VERTEX
8
0
10
151.151304347826
20
33.2509708849812
30
0
0
VERTEX
8
0
10
151.930434782609
20
33.1503032829957
30
0
0
VERTEX
8
0
10
152.709565217391
20
33.050800402081
30
0
0
VERTEX
8
0
10
153.488695652174
20
32.9524271164774
30
0
0
VERTEX
8
0
10
154.267826086957
20
32.8551507721986
30
0
0
VERTEX
8
0
10
155.046956521739
20
32.7589408776576
30
0
0
VERTEX
8
0
10
155.826086956522
20
32.66376884902
30
0
0
VERTEX
8
0
10
156.605217391304
20
32.5696077981405
30
0
0
VERTEX
8
0
10
157.384347826087
20
32.4764323541207
30
0
0
VERTEX
8
0
10
158.16347826087
20
32.3842185117529
30
0
0
VERTEX
8
0
10
158.942608695652
20
32.2929435017181
30
0
0
VERTEX
8
0
10
159.721739130435
20
32.2025856785666
30
0
0
VERTEX
8
0
10
160.500869565218
20
32.1131244233772
30
0
0
VERTEX
8
0
10
161.28
20
32.0245400586339
30
0
0
VERTEX
8
0
10
162.059130434783
20
31.9368137733561
30
0
0
VERTEX
8
0
10
162.838260869565
20
31.8499275568933
30
0
0
VERTEX
8
0
10
163.617391304348
20
31.7638641400935
30
0
0
VERTEX
8
0
10
164.396521739131
20
31.6786069427847
30
0
0
VERTEX
8
0
10
165.175652173913
20
31.594140026693
30
0
0
VERTEX
8
0
10
165.954782608696
20
31.5104480530661
30
0
0
VERTEX
8
0
10
166.733913043479
20
31.4275162443935
30
0
0
VERTEX
8
0
10
167.513043478261
20
31.3453303497059
30
0
0
SEQEND
8
0
0
POLYLINE
8
0
62
3
70
0
10
0
20
0
30
0
0
VERTEX
8
0
10
3.11652173913043
20
25.203437436225
30
0
0
VERTEX
8
0
10
3.89565217391304
20
24.2153059673258
30
0
0
VERTEX
8
0
10
4.67478260869565
20
29.839516649586
30
0
0
VERTEX
8
0
10
5.45391304347826
20
35.0223661022598
30
0
0
VERTEX
8
0
10
6.23304347826087
20
35.820865946793
30
0
0
VERTEX
8
0
10
7.01217391304348
20
39.7907354298767
30
0
0
VERTEX
8
0
10
7.79130434782609
20
43.37638124378
30
0
0
VERTEX
8
0
10
8.57043478260869
20
44.9358606950223
30
0
0
VERTEX
8
0
10
9.3495652173913
20
47.8747914264791
30
0
0
VERTEX
8
0
10
10.1286956521739
20
50.5796134944561
30
0
0
VERTEX
8
0
10
10.9078260869565
20
52.225666394661
30
0
0
VERTEX
8
0
10
11.6869565217391
20
54.5122820900812
30
0
0
VERTEX
8
0
10
12.4660869565217
20
56.6307504002128
30
0
0
VERTEX
8
0
10
13.2452173913043
20
58.1374473226401
30
0
0
VERTEX
8
0
10
14.024347826087
20
59.9499402557049
30
0
0
VERTEX
8
0
10
14.8034782608696
20
61.6294753731814
30
0
0
VERTEX
8
0
10
15.5826086956522
20
62.9298241185212
30
0
0
VERTEX
8
0
10
16.3617391304348
20
64.3683334481372
30
0
0
VERTEX
8
0
10
17.1408695652174
20
65.697785307456
30
0
0
VERTEX
8
0
10
17.92
20
66.7798886759701
30
0
0
VERTEX
8
0
10
18.6991304347826
20
67.9109587624465
30
0
0
VERTEX
8
0
10
19.4782608695652
20
68.9514843686179
30
0
0
VERTEX
8
0
10
20.2573913043478
20
69.8242207555097
30
0
0
VERTEX
8
0
10
21.0365217391304
20
70.6973042545168
30
0
0
VERTEX
8
0
10
21.8156521739131
20
71.4950788719406
30
0
0
VERTEX
8
0
10
22.5947826086957
20
72.175489457724
30
0
0
VERTEX
8
0
10
23.3739130434783
20
72.8300913874436
30
0
0
VERTEX
8
0
10
24.1530434782609
20
73.4222962045596
30
0
0
VERTEX
8
0
10
24.9321739130435
20
73.9304537728426
30
0
0
VERTEX
8
0
10
25.7113043478261
20
74.3996736882496
30
0
0
VERTEX
8
0
10
26.4904347826087
20
74.8176204374772
30
0
0
VERTEX
8
0
10
27.2695652173913
20
75.1743873855469
30
0
0
VERTEX
8
0
10
28.0486956521739
20
75.566928388751
30
0
0
VERTEX
8
0
10
28.8278260869565
20
75.7577603816122
30
0
0
VERTEX
8
0
10
29.6069565217391
20
75.9837650814022
30
0
0
VERTEX
8
0
10
30.3860869565218
20
76.2211292777987
30
0
0
VERTEX
8
0
10
31.1652173913044
20
76.3128373765059
30
0
0
VERTEX
8
0
10
31.944347826087
20
76.4279970263739
30
0
0
VERTEX
8
0
10
32.7234782608696
20
76.5401754510238
30
0
0
VERTEX
8
0
10
33.5026086956522
20
76.5472949880974
30
0
0
VERTEX
8
0
10
34.2817391304348
20
76.5705934132247
30
0
0
VERTEX
8
0
10
35.0608695652174
20
76.5831870952585
30
0
0
VERTEX
8
0
10
35.84
20
76.520579535398
30
0
0
VERTEX
8
0
10
36.6191304347826
20
76.4699668281942
30
0
0
VERTEX
8
0
10
37.3982608695652
20
76.4052602239811
30
0
0
VERTEX
8
0
10
38.1773913043478
20
76.2876458057593
30
0
0
VERTEX
8
0
10
38.9565217391304
20
76.1799987801374
30
0
0
VERTEX
8
0
10
39.735652173913
20
76.0576697713602
30
0
0
VERTEX
8
0
10
40.5147826086956
20
75.899342858612
30
0
0
VERTEX
8
0
10
41.2939130434782
20
75.7504628134903
30
0
0
VERTEX
8
0
10
42.0730434782608
20
75.5880759006972
30
0
0
VERTEX
8
0
10
42.8521739130434
20
75.4027451703561
30
0
0
VERTEX
8
0
10
43.6313043478261
20
75.2273963044077
30
0
0
VERTEX
8
0
10
44.4104347826087
20
75.0407858726419
30
0
0
VERTEX
8
0
10
45.1895652173913
20
74.8415325277383
30
0
0
VERTEX
8
0
10
45.9686956521739
20
74.6473654657261
30
0
0
VERTEX
8
0
10
46.7478260869565
20
74.4572203691264
30
0
0
VERTEX
8
0
10
47.5269565217391
20
74.2566443634515
30
0
0
VERTEX
8
0
10
48.3060869565217
20
74.0632965315878
30
0
0
VERTEX
8
0
10
49.0852173913043
20
73.8770326671443
30
0
0
VERTEX
8
0
10
49.8643478260869
20
73.6879115276325
30
0
0
VERTEX
8
0
10
50.6434782608695
20
73.5091461269848
30
0
0
VERTEX
8
0
10
51.4226086956521
20
73.3418942318788
30
0
0
VERTEX
8
0
10
52.2017391304347
20
73.1807598089118
30
0
0
VERTEX
8
0
10
52.9808695652173
20
73.0380200290267
30
0
0
VERTEX
8
0
10
53.7599999999999
20
72.9117301529841
30
0
0
VERTEX
8
0
10
54.5391304347825
20
72.7913800136168
30
0
0
VERTEX
8
0
10
55.3182608695651
20
72.6797893224169
30
0
0
VERTEX
8
0
10
56.0973913043477
20
72.5755399622292
30
0
0
VERTEX
8
0
10
56.8765217391304
20
72.4732526149133
30
0
0
VERTEX
8
0
10
57.655652173913
20
72.3752267258721
30
0
0
VERTEX
8
0
10
58.4347826086956
20
72.2813848357878
30
0
0
VERTEX
8
0
10
59.2139130434782
20
72.1883126557197
30
0
0
VERTEX
8
0
10
59.9930434782608
20
72.0970548234961
30
0
0
VERTEX
8
0
10
60.7721739130434
20
72.0082364988932
30
0
0
VERTEX
8
0
10
61.551304347826
20
71.9197286151553
30
0
0
VERTEX
8
0
10
62.3304347826086
20
71.8314707430812
30
0
0
VERTEX
8
0
10
63.1095652173912
20
71.7445810186907
30
0
0
VERTEX
8
0
10
63.8886956521738
20
71.6578358959316
30
0
0
VERTEX
8
0
10
64.6678260869564
20
71.5702930111446
30
0
0
VERTEX
8
0
10
65.446956521739
20
71.4834434815928
30
0
0
VERTEX
8
0
10
66.2260869565216
20
71.396706255458
30
0
0
VERTEX
8
0
10
67.0052173913042
20
71.3084675784635
30
0
0
VERTEX
8
0
10
67.7843478260868
20
71.2205046098616
30
0
0
VERTEX
8
0
10
68.5634782608694
20
71.1326849144852
30
0
0
VERTEX
8
0
10
69.342608695652
20
71.0429052272598
30
0
0
VERTEX
8
0
10
70.1217391304346
20
70.9531587080999
30
0
0
VERTEX
8
0
10
70.9008695652173
20
70.8636159371864
30
0
0
VERTEX
8
0
10
71.6799999999999
20
70.7718359046383
30
0
0
VERTEX
8
0
10
72.4591304347825
20
70.6799686379002
30
0
0
VERTEX
8
0
10
73.2382608695651
20
70.5883781954217
30
0
0
VERTEX
8
0
10
74.0173913043477
20
70.4944099197443
30
0
0
VERTEX
8
0
10
74.7965217391303
20
70.4003198342997
30
0
0
VERTEX
8
0
10
75.5756521739129
20
70.3065836737118
30
0
0
VERTEX
8
0
10
76.3547826086955
20
70.2104329872267
30
0
0
VERTEX
8
0
10
77.1339130434781
20
70.114185820449
30
0
0
VERTEX
8
0
10
77.9130434782607
20
70.018369364006
30
0
0
VERTEX
8
0
10
78.6921739130433
20
69.9201804594414
30
0
0
VERTEX
8
0
10
79.4713043478259
20
69.8219612740976
30
0
0
VERTEX
8
0
10
80.2504347826085
20
69.7242470772791
30
0
0
VERTEX
8
0
10
81.0295652173911
20
69.6242615311767
30
0
0
VERTEX
8
0
10
81.8086956521737
20
69.5243385118749
30
0
0
VERTEX
8
0
10
82.5878260869563
20
69.4249911016038
30
0
0
VERTEX
8
0
10
83.366956521739
20
69.3235166127673
30
0
0
VERTEX
8
0
10
84.1460869565216
20
69.2222132256265
30
0
0
VERTEX
8
0
10
84.9252173913042
20
69.1215517100671
30
0
0
VERTEX
8
0
10
85.7043478260868
20
69.0189376582757
30
0
0
VERTEX
8
0
10
86.4834782608694
20
68.9166107268013
30
0
0
VERTEX
8
0
10
87.262608695652
20
68.8149870109775
30
0
0
VERTEX
8
0
10
88.0417391304346
20
68.711604976084
30
0
0
VERTEX
8
0
10
88.8208695652172
20
68.6086270921885
30
0
0
VERTEX
8
0
10
89.5999999999998
20
68.5064082774811
30
0
0
VERTEX
8
0
10
90.3791304347824
20
68.4026362905752
30
0
0
VERTEX
8
0
10
91.158260869565
20
68.2993815146688
30
0
0
VERTEX
8
0
10
91.9373913043476
20
68.1969355282756
30
0
0
VERTEX
8
0
10
92.7165217391302
20
68.0931452286583
30
0
0
VERTEX
8
0
10
93.4956521739128
20
67.9899773768229
30
0
0
VERTEX
8
0
10
94.2747826086954
20
67.8876611834051
30
0
0
VERTEX
8
0
10
95.053913043478
20
67.7842073207804
30
0
0
VERTEX
8
0
10
95.8330434782606
20
67.6814703663539
30
0
0
VERTEX
8
0
10
96.6121739130433
20
67.5796203214506
30
0
0
VERTEX
8
0
10
97.3913043478259
20
67.4766597690634
30
0
0
VERTEX
8
0
10
98.1704347826085
20
67.3748424993564
30
0
0
VERTEX
8
0
10
98.9495652173911
20
67.2737665494908
30
0
0
VERTEX
8
0
10
99.7286956521737
20
67.1717680515302
30
0
0
VERTEX
8
0
10
100.507826086956
20
67.0709813046991
30
0
0
VERTEX
8
0
10
101.286956521739
20
66.9709528452851
30
0
0
VERTEX
8
0
10
102.066086956521
20
66.8701819894979
30
0
0
VERTEX
8
0
10
102.845217391304
20
66.7706637104082
30
0
0
VERTEX
8
0
10
103.624347826087
20
66.6719169954641
30
0
0
VERTEX
8
0
10
104.403478260869
20
66.5725962918299
30
0
0
VERTEX
8
0
10
105.182608695652
20
66.4745444053992
30
0
0
VERTEX
8
0
10
105.961739130435
20
66.3772714768878
30
0
0
VERTEX
8
0
10
106.740869565217
20
66.2795784667209
30
0
0
VERTEX
8
0
10
107.52
20
66.1831486733105
30
0
0
VERTEX
8
0
10
108.299130434782
20
66.087497862799
30
0
0
VERTEX
8
0
10
109.078260869565
20
65.9915647215554
30
0
0
VERTEX
8
0
10
109.857391304348
20
65.8968699889659
30
0
0
VERTEX
8
0
10
110.63652173913
20
65.8029461876239
30
0
0
VERTEX
8
0
10
111.415652173913
20
65.7088611106378
30
0
0
VERTEX
8
0
10
112.194782608695
20
65.6159732518703
30
0
0
VERTEX
8
0
10
112.973913043478
20
65.5238405084277
30
0
0
VERTEX
8
0
10
113.753043478261
20
65.4316517068579
30
0
0
VERTEX
8
0
10
114.532173913043
20
65.3406062713631
30
0
0
VERTEX
8
0
10
115.311304347826
20
65.2500352192841
30
0
0
VERTEX
8
0
10
116.090434782608
20
65.1600201307483
30
0
0
VERTEX
8
0
10
116.869565217391
20
65.0708301843674
30
0
0
VERTEX
8
0
10
117.648695652174
20
64.9821322294474
30
0
0
VERTEX
8
0
10
118.427826086956
20
64.8940206275319
30
0
0
VERTEX
8
0
10
119.206956521739
20
64.8067219178071
30
0
0
VERTEX
8
0
10
119.986086956521
20
64.7199019197549
30
0
0
VERTEX
8
0
10
120.765217391304
20
64.6335871884272
30
0
0
VERTEX
8
0
10
121.544347826087
20
64.5479132265689
30
0
0
VERTEX
8
0
10
122.323478260869
20
64.4625942528306
30
0
0
VERTEX
8
0
10
123.102608695652
20
64.3776920871909
30
0
0
VERTEX
8
0
10
123.881739130434
20
64.2933350136722
30
0
0
VERTEX
8
0
10
124.660869565217
20
64.2093037912989
30
0
0
VERTEX
8
0
10
125.44
20
64.125671261853
30
0
0
VERTEX
8
0
10
126.219130434782
20
64.0425451585799
30
0
0
VERTEX
8
0
10
126.998260869565
20
63.9597624456157
30
0
0
VERTEX
8
0
10
127.777391304348
20
63.8773981027816
30
0
0
VERTEX
8
0
10
128.55652173913
20
63.7955400226188
30
0
0
VERTEX
8
0
10
129.335652173913
20
63.7140770965252
30
0
0
VERTEX
8
0
10
130.114782608695
20
63.6330830220428
30
0
0
VERTEX
8
0
10
130.893913043478
20
63.5526302751974
30
0
0
VERTEX
8
0
10
131.673043478261
20
63.4726563473338
30
0
0
VERTEX
8
0
10
132.452173913043
20
63.393233285543
30
0
0
VERTEX
8
0
10
133.231304347826
20
63.3144249491655
30
0
0
VERTEX
8
0
10
134.010434782608
20
63.2362147868561
30
0
0
VERTEX
8
0
10
134.789565217391
20
63.1586763440833
30
0
0
VERTEX
8
0
10
135.568695652174
20
63.08187490159
30
0
0
VERTEX
8
0
10
136.347826086956
20
63.005839859236
30
0
0
VERTEX
8
0
10
137.126956521739
20
62.9306562684612
30
0
0
VERTEX
8
0
10
137.906086956522
20
62.8564094127591
30
0
0
VERTEX
8
0
10
138.685217391304
20
62.7831869136504
30
0
0
VERTEX
8
0
10
139.464347826087
20
62.7111199298193
30
0
0
VERTEX
8
0
10
140.243478260869
20
62.6403720227612
30
0
0
VERTEX
8
0
10
141.022608695652
20
62.5711422414841
30
0
0
VERTEX
8
0
10
141.801739130435
20
62.5035536112447
30
0
0
VERTEX
8
0
10
142.580869565217
20
62.4375188675958
30
0
0
VERTEX
8
0
10
143.36
20
62.3728728317126
30
0
0
VERTEX
8
0
10
144.139130434783
20
62.309482839069
30
0
0
VERTEX
8
0
10
144.918260869565
20
62.2472510340687
30
0
0
VERTEX
8
0
10
145.697391304348
20
62.1861017884968
30
0
0
VERTEX
8
0
10
146.47652173913
20
62.125973763205
30
0
0
VERTEX
8
0
10
147.255652173913
20
62.0668154143808
30
0
0
VERTEX
8
0
10
148.034782608696
20
62.0085823080733
30
0
0
VERTEX
8
0
10
148.813913043478
20
61.9512354038322
30
0
0
VERTEX
8
0
10
149.593043478261
20
61.8947398939654
30
0
0
VERTEX
8
0
10
150.372173913043
20
61.8390643825259
30
0
0
VERTEX
8
0
10
151.151304347826
20
61.784180283408
30
0
0
VERTEX
8
0
10
151.930434782609
20
61.7300613660263
30
0
0
VERTEX
8
0
10
152.709565217391
20
61.6766834039979
30
0
0
VERTEX
8
0
10
153.488695652174
20
61.6240238978724
30
0
0
VERTEX
8
0
10
154.267826086957
20
61.5720618524562
30
0
0
VERTEX
8
0
10
155.046956521739
20
61.5207775952536
30
0
0
VERTEX
8
0
10
155.826086956522
20
61.4701526264657
30
0
0
VERTEX
8
0
10
156.605217391304
20
61.4201694936076
30
0
0
VERTEX
8
0
10
157.384347826087
20
61.3708116856096
30
0
0
VERTEX
8
0
10
158.16347826087
20
61.3220635425437
30
0
0
VERTEX
8
0
10
158.942608695652
20
61.273910178019
30
0
0
VERTEX
8
0
10
159.721739130435
20
61.2263374119684
30
0
0
VERTEX
8
0
10
160.500869565218
20
61.1793317120257
30
0
0
VERTEX
8
0
10
161.28
20
61.1328801420792
30
0
0
VERTEX
8
0
10
162.059130434783
20
61.0869703168588
30
0
0
VERTEX
8
0
10
162.838260869565
20
61.0415903616391
30
0
0
VERTEX
8
0
10
163.617391304348
20
60.996728876302
30
0
0
VERTEX
8
0
10
164.396521739131
20
60.9523749031506
30
0
0
VERTEX
8
0
10
165.175652173913
20
60.9085178979515
30
0
0
VERTEX
8
0
10
165.954782608696
20
60.8651477037866
30
0
0
VERTEX
8
0
10
166.733913043479
20
60.8222545273554
30
0
0
VERTEX
8
0
10
167.513043478261
20
60.7798289174211
30
0
0
SEQEND
8
0
0
POLYLINE
8
0
62
4
70
0
10
0
20
0
30
0
0
VERTEX
8
0
10
3.11652173913043
20
30.8133315254288
30
0
0
VERTEX
8
0
10
3.89565217391304
20
33.9884788415494
30
0
0
VERTEX
8
0
10
4.67478260869565
20
36.9357719303152
30
0
0
VERTEX
8
0
10
5.45391304347826
20
40.7914060405408
30
0
0
VERTEX
8
0
10
6.23304347826087
20
43.1764892465624
30
0
0
VERTEX
8
0
10
7.01217391304348
20
44.0967624977752
30
0
0
VERTEX
8
0
10
7.79130434782609
20
44.9229311696435
30
0
0
VERTEX
8
0
10
8.57043478260869
20
45.9895243963279
30
0
0
VERTEX
8
0
10
9.3495652173913
20
47.3733849309624
30
0
0
VERTEX
8
0
10
10.1286956521739
20
49.1861989727155
30
0
0
VERTEX
8
0
10
10.9078260869565
20
51.6424586402175
30
0
0
VERTEX
8
0
10
11.6869565217391
20
53.4235750950681
30
0
0
VERTEX
8
0
10
12.4660869565217
20
55.5142555160213
30
0
0
VERTEX
8
0
10
13.2452173913043
20
57.7045457176684
30
0
0
VERTEX
8
0
10
14.024347826087
20
60.4003142636644
30
0
0
VERTEX
8
0
10
14.8034782608696
20
62.6542138512456
30
0
0
VERTEX
8
0
10
15.5826086956522
20
64.1518381986547
30
0
0
VERTEX
8
0
10
16.3617391304348
20
65.6235391027285
30
0
0
VERTEX
8
0
10
17.1408695652174
20
66.8715623293253
30
0
0
VERTEX
8
0
10
17.92
20
68.1137060378839
30
0
0
VERTEX
8
0
10
18.6991304347826
20
68.8032985708788
30
0
0
VERTEX
8
0
10
19.4782608695652
20
68.5422453542033
30
0
0
VERTEX
8
0
10
20.2573913043478
20
68.392459138068
30
0
0
VERTEX
8
0
10
21.0365217391304
20
68.3330453199713
30
0
0
VERTEX
8
0
10
21.8156521739131
20
68.3756262588715
30
0
0
VERTEX
8
0
10
22.5947826086957
20
68.5207564518852
30
0
0
VERTEX
8
0
10
23.3739130434783
20
68.6480634552996
30
0
0
VERTEX
8
0
10
24.1530434782609
20
68.7714027543346
30
0
0
VERTEX
8
0
10
24.9321739130435
20
68.9928506065027
30
0
0
VERTEX
8
0
10
25.7113043478261
20
69.1954212728234
30
0
0
VERTEX
8
0
10
26.4904347826087
20
69.4917418396053
30
0
0
VERTEX
8
0
10
27.2695652173913
20
69.7832962032108
30
0
0
VERTEX
8
0
10
28.0486956521739
20
70.2481288111311
30
0
0
VERTEX
8
0
10
28.8278260869565
20
70.9113669331452
30
0
0
VERTEX
8
0
10
29.6069565217391
20
71.5631065303323
30
0
0
VERTEX
8
0
10
30.3860869565218
20
72.1916574169951
30
0
0
VERTEX
8
0
10
31.1652173913044
20
72.7228921266355
30
0
0
VERTEX
8
0
10
31.944347826087
20
73.2439388599268
30
0
0
VERTEX
8
0
10
32.7234782608696
20
73.8423747668767
30
0
0
VERTEX
8
0
10
33.5026086956522
20
74.4414329624602
30
0
0
VERTEX
8
0
10
34.2817391304348
20
74.4453676352006
30
0
0
VERTEX
8
0
10
35.0608695652174
20
74.6276852677849
30
0
0
VERTEX
8
0
10
35.84
20
74.617690899182
30
0
0
VERTEX
8
0
10
36.6191304347826
20
74.6016156848113
30
0
0
VERTEX
8
0
10
37.3982608695652
20
74.5712701583325
30
0
0
VERTEX
8
0
10
38.1773913043478
20
74.6393176306452
30
0
0
VERTEX
8
0
10
38.9565217391304
20
74.6057941603429
30
0
0
VERTEX
8
0
10
39.735652173913
20
74.6549110791727
30
0
0
VERTEX
8
0
10
40.5147826086956
20
74.4210245187752
30
0
0
VERTEX
8
0
10
41.2939130434782
20
74.1840808006134
30
0
0
VERTEX
8
0
10
42.0730434782608
20
73.9375187181692
30
0
0
VERTEX
8
0
10
42.8521739130434
20
73.8821241881572
30
0
0
VERTEX
8
0
10
43.6313043478261
20
73.6363513438408
30
0
0
VERTEX
8
0
10
44.4104347826087
20
73.3823151828137
30
0
0
VERTEX
8
0
10
45.1895652173913
20
73.1324453726055
30
0
0
VERTEX
8
0
10
45.9686956521739
20
73.062590911704
30
0
0
VERTEX
8
0
10
46.7478260869565
20
72.9886791071017
30
0
0
VERTEX
8
0
10
47.5269565217391
20
72.9154473425571
30
0
0
VERTEX
8
0
10
48.3060869565217
20
72.8377507756539
30
0
0
VERTEX
8
0
10
49.0852173913043
20
72.7569130366476
30
0
0
VERTEX
8
0
10
49.8643478260869
20
72.5866529395597
30
0
0
VERTEX
8
0
10
50.6434782608695
20
72.5034959907378
30
0
0
VERTEX
8
0
10
51.4226086956521
20
72.5079587260745
30
0
0
VERTEX
8
0
10
52.2017391304347
20
72.4236916887244
30
0
0
VERTEX
8
0
10
52.9808695652173
20
72.3364034639396
30
0
0
VERTEX
8
0
10
53.7599999999999
20
72.4258369644003
30
0
0
VERTEX
8
0
10
54.5391304347825
20
72.5160436046864
30
0
0
VERTEX
8
0
10
55.3182608695651
20
72.424563121315
30
0
0
VERTEX
8
0
10
56.0973913043477
20
72.5089361180802
30
0
0
VERTEX
8
0
10
56.8765217391304
20
72.5938989487853
30
0
0
VERTEX
8
0
10
57.655652173913
20
72.4981979426275
30
0
0
VERTEX
8
0
10
58.4347826086956
20
72.5775186732253
30
0
0
VERTEX
8
0
10
59.2139130434782
20
72.6572647145057
30
0
0
VERTEX
8
0
10
59.9930434782608
20
72.64537652464
30
0
0
VERTEX
8
0
10
60.7721739130434
20
72.5438242060458
30
0
0
VERTEX
8
0
10
61.551304347826
20
72.5308428483254
30
0
0
VERTEX
8
0
10
62.3304347826086
20
72.4272936110872
30
0
0
VERTEX
8
0
10
63.1095652173912
20
72.3224846780241
30
0
0
VERTEX
8
0
10
63.8886956521738
20
72.3923687141246
30
0
0
VERTEX
8
0
10
64.6678260869564
20
72.285248409989
30
0
0
VERTEX
8
0
10
65.446956521739
20
72.0905362658935
30
0
0
VERTEX
8
0
10
66.2260869565216
20
71.8971553056684
30
0
0
VERTEX
8
0
10
67.0052173913042
20
71.7875969903863
30
0
0
VERTEX
8
0
10
67.7843478260868
20
71.6770067912541
30
0
0
VERTEX
8
0
10
68.5634782608694
20
71.3966864174162
30
0
0
VERTEX
8
0
10
69.342608695652
20
71.2848031140852
30
0
0
VERTEX
8
0
10
70.1217391304346
20
71.171999072064
30
0
0
VERTEX
8
0
10
70.9008695652173
20
71.0597078799555
30
0
0
VERTEX
8
0
10
71.6799999999999
20
70.7772580026697
30
0
0
VERTEX
8
0
10
72.4591304347825
20
70.6623751051718
30
0
0
VERTEX
8
0
10
73.2382608695651
20
70.5479253804986
30
0
0
VERTEX
8
0
10
74.0173913043477
20
70.2654208815453
30
0
0
VERTEX
8
0
10
74.7965217391303
20
70.148614014725
30
0
0
VERTEX
8
0
10
75.5756521739129
20
70.0321738629735
30
0
0
VERTEX
8
0
10
76.3547826086955
20
69.9136891092835
30
0
0
VERTEX
8
0
10
77.1339130434781
20
69.7946016209646
30
0
0
VERTEX
8
0
10
77.9130434782607
20
69.7573946849082
30
0
0
VERTEX
8
0
10
78.6921739130433
20
69.7178640198856
30
0
0
VERTEX
8
0
10
79.4713043478259
20
69.5961514671025
30
0
0
VERTEX
8
0
10
80.2504347826085
20
69.5556983743188
30
0
0
VERTEX
8
0
10
81.0295652173911
20
69.5130697224018
30
0
0
VERTEX
8
0
10
81.8086956521737
20
69.3889235364436
30
0
0
VERTEX
8
0
10
82.5878260869563
20
69.4259723772595
30
0
0
VERTEX
8
0
10
83.366956521739
20
69.2999145885726
30
0
0
VERTEX
8
0
10
84.1460869565216
20
69.2536604868048
30
0
0
VERTEX
8
0
10
84.9252173913042
20
69.2071943084272
30
0
0
VERTEX
8
0
10
85.7043478260868
20
69.1588480561912
30
0
0
VERTEX
8
0
10
86.4834782608694
20
69.1098508972388
30
0
0
VERTEX
8
0
10
87.262608695652
20
69.0606256572016
30
0
0
VERTEX
8
0
10
88.0417391304346
20
69.0096648777888
30
0
0
VERTEX
8
0
10
88.8208695652172
20
68.8788845410122
30
0
0
VERTEX
8
0
10
89.5999999999998
20
68.9063611947868
30
0
0
VERTEX
8
0
10
90.3791304347824
20
68.7740365582911
30
0
0
VERTEX
8
0
10
91.158260869565
20
68.7203135430017
30
0
0
VERTEX
8
0
10
91.9373913043476
20
68.6663498617936
30
0
0
VERTEX
8
0
10
92.7165217391302
20
68.6109246843936
30
0
0
VERTEX
8
0
10
93.4956521739128
20
68.5550650364595
30
0
0
VERTEX
8
0
10
94.2747826086954
20
68.4989661518217
30
0
0
VERTEX
8
0
10
95.053913043478
20
68.4415354148795
30
0
0
VERTEX
8
0
10
95.8330434782606
20
68.3058775370991
30
0
0
VERTEX
8
0
10
96.6121739130433
20
68.1703836991682
30
0
0
VERTEX
8
0
10
97.3913043478259
20
68.1110709237729
30
0
0
VERTEX
8
0
10
98.1704347826085
20
68.0521245624608
30
0
0
VERTEX
8
0
10
98.9495652173911
20
67.9155515510416
30
0
0
VERTEX
8
0
10
99.7286956521737
20
67.77798527327
30
0
0
VERTEX
8
0
10
100.507826086956
20
67.7176789152753
30
0
0
VERTEX
8
0
10
101.286956521739
20
67.6568601766847
30
0
0
VERTEX
8
0
10
102.066086956521
20
67.4424021257832
30
0
0
VERTEX
8
0
10
102.845217391304
20
67.3809027521359
30
0
0
VERTEX
8
0
10
103.624347826087
20
67.243208302618
30
0
0
VERTEX
8
0
10
104.403478260869
20
67.1048134278997
30
0
0
VERTEX
8
0
10
105.182608695652
20
66.9670698550268
30
0
0
VERTEX
8
0
10
105.961739130435
20
66.8293228333814
30
0
0
VERTEX
8
0
10
106.740869565217
20
66.691006796351
30
0
0
VERTEX
8
0
10
107.52
20
66.553314726942
30
0
0
VERTEX
8
0
10
108.299130434782
20
66.4898079735176
30
0
0
VERTEX
8
0
10
109.078260869565
20
66.4254439820325
30
0
0
VERTEX
8
0
10
109.857391304348
20
66.287409150476
30
0
0
VERTEX
8
0
10
110.63652173913
20
66.1494663751625
30
0
0
VERTEX
8
0
10
111.415652173913
20
66.0111881973893
30
0
0
VERTEX
8
0
10
112.194782608695
20
66.0196980126224
30
0
0
VERTEX
8
0
10
112.973913043478
20
65.881582171208
30
0
0
VERTEX
8
0
10
113.753043478261
20
65.7432337568204
30
0
0
VERTEX
8
0
10
114.532173913043
20
65.6779194018014
30
0
0
VERTEX
8
0
10
115.311304347826
20
65.5398929134424
30
0
0
VERTEX
8
0
10
116.090434782608
20
65.4740495976069
30
0
0
VERTEX
8
0
10
116.869565217391
20
65.3362716200882
30
0
0
VERTEX
8
0
10
117.648695652174
20
65.2702321269378
30
0
0
VERTEX
8
0
10
118.427826086956
20
65.2039452318655
30
0
0
VERTEX
8
0
10
119.206956521739
20
65.0662862694168
30
0
0
VERTEX
8
0
10
119.986086956521
20
64.9998460279339
30
0
0
VERTEX
8
0
10
120.765217391304
20
64.9332001636329
30
0
0
VERTEX
8
0
10
121.544347826087
20
64.7957461726278
30
0
0
VERTEX
8
0
10
122.323478260869
20
64.7996193432444
30
0
0
VERTEX
8
0
10
123.102608695652
20
64.6620494145156
30
0
0
VERTEX
8
0
10
123.881739130434
20
64.5950880038374
30
0
0
VERTEX
8
0
10
124.660869565217
20
64.5279327560981
30
0
0
VERTEX
8
0
10
125.44
20
64.3907301763689
30
0
0
VERTEX
8
0
10
126.219130434782
20
64.3933342150682
30
0
0
VERTEX
8
0
10
126.998260869565
20
64.2562476258031
30
0
0
VERTEX
8
0
10
127.777391304348
20
64.2583167407931
30
0
0
VERTEX
8
0
10
128.55652173913
20
64.1214119248868
30
0
0
VERTEX
8
0
10
129.335652173913
20
64.0538820127033
30
0
0
VERTEX
8
0
10
130.114782608695
20
63.9862964010746
30
0
0
VERTEX
8
0
10
130.893913043478
20
63.9187094166386
30
0
0
VERTEX
8
0
10
131.673043478261
20
63.8510655664685
30
0
0
VERTEX
8
0
10
132.452173913043
20
63.7149545592636
30
0
0
VERTEX
8
0
10
133.231304347826
20
63.7157636947693
30
0
0
VERTEX
8
0
10
134.010434782608
20
63.5799607785426
30
0
0
VERTEX
8
0
10
134.789565217391
20
63.5124825586483
30
0
0
VERTEX
8
0
10
135.568695652174
20
63.4450523178924
30
0
0
VERTEX
8
0
10
136.347826086956
20
63.3776618502286
30
0
0
VERTEX
8
0
10
137.126956521739
20
63.3103357106642
30
0
0
VERTEX
8
0
10
137.906086956522
20
63.2430916224343
30
0
0
VERTEX
8
0
10
138.685217391304
20
63.1759360044968
30
0
0
VERTEX
8
0
10
139.464347826087
20
63.1088879136666
30
0
0
VERTEX
8
0
10
140.243478260869
20
63.0419622087073
30
0
0
VERTEX
8
0
10
141.022608695652
20
62.9751722066703
30
0
0
VERTEX
8
0
10
141.801739130435
20
62.908529288827
30
0
0
VERTEX
8
0
10
142.580869565217
20
62.8420384508618
30
0
0
VERTEX
8
0
10
143.36
20
62.7757012285845
30
0
0
VERTEX
8
0
10
144.139130434783
20
62.7095182739414
30
0
0
VERTEX
8
0
10
144.918260869565
20
62.6434900991546
30
0
0
VERTEX
8
0
10
145.697391304348
20
62.5119000600976
30
0
0
VERTEX
8
0
10
146.47652173913
20
62.5119000601107
30
0
0
VERTEX
8
0
10
147.255652173913
20
62.4463391790157
30
0
0
VERTEX
8
0
10
148.034782608696
20
62.3809350468248
30
0
0
VERTEX
8
0
10
148.813913043478
20
62.2505990042505
30
0
0
VERTEX
8
0
10
149.593043478261
20
62.2505990042504
30
0
0
VERTEX
8
0
10
150.372173913043
20
62.1856680836055
30
0
0
VERTEX
8
0
10
151.151304347826
20
62.1208958913265
30
0
0
VERTEX
8
0
10
151.930434782609
20
62.1208958913264
30
0
0
VERTEX
8
0
10
152.709565217391
20
62.0562829244386
30
0
0
VERTEX
8
0
10
153.488695652174
20
61.9918296808155
30
0
0
VERTEX
8
0
10
154.267826086957
20
61.9918296808155
30
0
0
VERTEX
8
0
10
155.046956521739
20
61.9918296808154
30
0
0
VERTEX
8
0
10
155.826086956522
20
61.9918296808154
30
0
0
VERTEX
8
0
10
156.605217391304
20
61.9275366591695
30
0
0
VERTEX
8
0
10
157.384347826087
20
61.8634043590442
30
0
0
VERTEX
8
0
10
158.16347826087
20
61.8634043590445
30
0
0
VERTEX
8
0
10
158.942608695652
20
61.7994332808057
30
0
0
VERTEX
8
0
10
159.721739130435
20
61.7356239256331
30
0
0
VERTEX
8
0
10
160.500869565218
20
61.67197679551
30
0
0
VERTEX
8
0
10
161.28
20
61.6084923932161
30
0
0
VERTEX
8
0
10
162.059130434783
20
61.608492393216
30
0
0
VERTEX
8
0
10
162.838260869565
20
61.4820137871553
30
0
0
VERTEX
8
0
10
163.617391304348
20
61.4820137871551
30
0
0
VERTEX
8
0
10
164.396521739131
20
61.4190205928412
30
0
0
VERTEX
8
0
10
165.175652173913
20
61.356192145244
30
0
0
VERTEX
8
0
10
165.954782608696
20
61.2935289509799
30
0
0
VERTEX
8
0
10
166.733913043479
20
61.2310315174049
30
0
0
VERTEX
8
0
10
167.513043478261
20
61.2310315174048
30
0
0
SEQEND
8
0
0
POLYLINE
8
0
62
2
70
0
10
0
20
0
30
0
0
VERTEX
8
0
10
3.11652173913043
20
0
30
0
0
VERTEX
8
0
10
3.89565217391304
20
0
30
0
0
VERTEX
8
0
10
4.67478260869565
20
0
30
0
0
VERTEX
8
0
10
5.45391304347826
20
0
30
0
0
VERTEX
8
0
10
6.23304347826087
20
0
30
0
0
VERTEX
8
0
10
7.01217391304348
20
0
30
0
0
VERTEX
8
0
10
7.79130434782609
20
0
30
0
0
VERTEX
8
0
10
8.57043478260869
20
0
30
0
0
VERTEX
8
0
10
9.3495652173913
20
0
30
0
0
VERTEX
8
0
10
10.1286956521739
20
0
30
0
0
VERTEX
8
0
10
10.9078260869565
20
0
30
0
0
VERTEX
8
0
10
11.6869565217391
20
0
30
0
0
VERTEX
8
0
10
12.4660869565217
20
0
30
0
0
VERTEX
8
0
10
13.2452173913043
20
0
30
0
0
VERTEX
8
0
10
14.024347826087
20
0
30
0
0
VERTEX
8
0
10
14.8034782608696
20
0
30
0
0
VERTEX
8
0
10
15.5826086956522
20
0
30
0
0
VERTEX
8
0
10
16.3617391304348
20
0
30
0
0
VERTEX
8
0
10
17.1408695652174
20
0
30
0
0
VERTEX
8
0
10
17.92
20
0
30
0
0
VERTEX
8
0
10
18.6991304347826
20
0
30
0
0
VERTEX
8
0
10
19.4782608695652
20
0
30
0
0
VERTEX
8
0
10
20.2573913043478
20
0
30
0
0
VERTEX
8
0
10
21.0365217391304
20
4.09224518713199
30
0
0
VERTEX
8
0
10
21.8156521739131
20
5.33526495484681
30
0
0
VERTEX
8
0
10
22.5947826086957
20
6.77900643135168
30
0
0
VERTEX
8
0
10
23.3739130434783
20
8.0284598809147
30
0
0
VERTEX
8
0
10
24.1530434782609
20
8.66889725054001
30
0
0
VERTEX
8
0
10
24.9321739130435
20
9.53585778449398
30
0
0
VERTEX
8
0
10
25.7113043478261
20
10.3831466999932
30
0
0
VERTEX
8
0
10
26.4904347826087
20
10.8669340245258
30
0
0
VERTEX
8
0
10
27.2695652173913
20
11.5243153691005
30
0
0
VERTEX
8
0
10
28.0486956521739
20
12.1903883513735
30
0
0
VERTEX
8
0
10
28.8278260869565
20
12.599155440103
30
0
0
VERTEX
8
0
10
29.6069565217391
20
13.1428930858567
30
0
0
VERTEX
8
0
10
30.3860869565218
20
13.7022904487389
30
0
0
VERTEX
8
0
10
31.1652173913044
20
14.0661573031998
30
0
0
VERTEX
8
0
10
31.944347826087
20
14.5370362120204
30
0
0
VERTEX
8
0
10
32.7234782608696
20
15.0248112288724
30
0
0
VERTEX
8
0
10
33.5026086956522
20
15.357993899097
30
0
0
VERTEX
8
0
10
34.2817391304348
20
15.7773332953436
30
0
0
VERTEX
8
0
10
35.0608695652174
20
16.2129264270777
30
0
0
VERTEX
8
0
10
35.84
20
16.5231192522132
30
0
0
VERTEX
8
0
10
36.6191304347826
20
16.9034854369351
30
0
0
VERTEX
8
0
10
37.3982608695652
20
17.2988334979664
30
0
0
VERTEX
8
0
10
38.1773913043478
20
17.5905984383618
30
0
0
VERTEX
8
0
10
38.9565217391304
20
17.9400172370061
30
0
0
VERTEX
8
0
10
39.735652173913
20
18.3029821482259
30
0
0
VERTEX
8
0
10
40.5147826086956
20
18.5792122390655
30
0
0
VERTEX
8
0
10
41.2939130434782
20
18.9031165239526
30
0
0
VERTEX
8
0
10
42.0730434782608
20
19.2391514083088
30
0
0
VERTEX
8
0
10
42.8521739130434
20
19.5017814670715
30
0
0
VERTEX
8
0
10
43.6313043478261
20
19.8040162287148
30
0
0
VERTEX
8
0
10
44.4104347826087
20
20.1170579260305
30
0
0
VERTEX
8
0
10
45.1895652173913
20
20.3674401276807
30
0
0
VERTEX
8
0
10
45.9686956521739
20
20.6508245863905
30
0
0
VERTEX
8
0
10
46.7478260869565
20
20.9438078296736
30
0
0
VERTEX
8
0
10
47.5269565217391
20
21.1829233653643
30
0
0
VERTEX
8
0
10
48.3060869565217
20
21.4495853574987
30
0
0
VERTEX
8
0
10
49.0852173913043
20
21.7247562335506
30
0
0
VERTEX
8
0
10
49.8643478260869
20
21.9533408379748
30
0
0
VERTEX
8
0
10
50.6434782608695
20
22.2049257414924
30
0
0
VERTEX
8
0
10
51.4226086956521
20
22.4640416716175
30
0
0
VERTEX
8
0
10
52.2017391304347
20
22.6826632465194
30
0
0
VERTEX
8
0
10
52.9808695652173
20
22.9204698621029
30
0
0
VERTEX
8
0
10
53.7599999999999
20
23.1649320464967
30
0
0
VERTEX
8
0
10
54.5391304347825
20
23.374040377428
30
0
0
VERTEX
8
0
10
55.3182608695651
20
23.5991123139542
30
0
0
VERTEX
8
0
10
56.0973913043477
20
23.8300562439933
30
0
0
VERTEX
8
0
10
56.8765217391304
20
24.0300158180709
30
0
0
VERTEX
8
0
10
57.655652173913
20
24.2432047281756
30
0
0
VERTEX
8
0
10
58.4347826086956
20
24.4615637206039
30
0
0
VERTEX
8
0
10
59.2139130434782
20
24.6526759681302
30
0
0
VERTEX
8
0
10
59.9930434782608
20
24.8546863929854
30
0
0
VERTEX
8
0
10
60.7721739130434
20
25.0612372310898
30
0
0
VERTEX
8
0
10
61.551304347826
20
25.2437559570185
30
0
0
VERTEX
8
0
10
62.3304347826086
20
25.4351778183584
30
0
0
VERTEX
8
0
10
63.1095652173912
20
25.630574209975
30
0
0
VERTEX
8
0
10
63.8886956521738
20
25.8047165291549
30
0
0
VERTEX
8
0
10
64.6678260869564
20
25.9860491210161
30
0
0
VERTEX
8
0
10
65.446956521739
20
26.1708466684467
30
0
0
VERTEX
8
0
10
66.2260869565216
20
26.3368009059707
30
0
0
VERTEX
8
0
10
67.0052173913042
20
26.5084709116496
30
0
0
VERTEX
8
0
10
67.7843478260868
20
26.6831460466147
30
0
0
VERTEX
8
0
10
68.5634782608694
20
26.841077548601
30
0
0
VERTEX
8
0
10
69.342608695652
20
27.0034527775586
30
0
0
VERTEX
8
0
10
70.1217391304346
20
27.168417327554
30
0
0
VERTEX
8
0
10
70.9008695652173
20
27.3184728072397
30
0
0
VERTEX
8
0
10
71.6799999999999
20
27.4718728139491
30
0
0
VERTEX
8
0
10
72.4591304347825
20
27.6274853547095
30
0
0
VERTEX
8
0
10
73.2382608695651
20
27.76979619521
30
0
0
VERTEX
8
0
10
74.0173913043477
20
27.9145005914518
30
0
0
VERTEX
8
0
10
74.7965217391303
20
28.0610754006307
30
0
0
VERTEX
8
0
10
75.5756521739129
20
28.1957602030697
30
0
0
VERTEX
8
0
10
76.3547826086955
20
28.3320152407278
30
0
0
VERTEX
8
0
10
77.1339130434781
20
28.4698294373794
30
0
0
VERTEX
8
0
10
77.9130434782607
20
28.596996016155
30
0
0
VERTEX
8
0
10
78.6921739130433
20
28.7250198566686
30
0
0
VERTEX
8
0
10
79.4713043478259
20
28.8543191524072
30
0
0
VERTEX
8
0
10
80.2504347826085
20
28.9740661201471
30
0
0
VERTEX
8
0
10
81.0295652173911
20
29.0940530955007
30
0
0
VERTEX
8
0
10
81.8086956521737
20
29.2150564716927
30
0
0
VERTEX
8
0
10
82.5878260869563
20
29.3274745164086
30
0
0
VERTEX
8
0
10
83.366956521739
20
29.4395986078422
30
0
0
VERTEX
8
0
10
84.1460869565216
20
29.5525021537761
30
0
0
VERTEX
8
0
10
84.9252173913042
20
29.657675082836
30
0
0
VERTEX
8
0
10
85.7043478260868
20
29.7620927869577
30
0
0
VERTEX
8
0
10
86.4834782608694
20
29.8670728769524
30
0
0
VERTEX
8
0
10
87.262608695652
20
29.9650784828841
30
0
0
VERTEX
8
0
10
88.0417391304346
20
30.0619311943183
30
0
0
VERTEX
8
0
10
88.8208695652172
20
30.159147139655
30
0
0
VERTEX
8
0
10
89.5999999999998
20
30.2500579289822
30
0
0
VERTEX
8
0
10
90.3791304347824
20
30.3394739385145
30
0
0
VERTEX
8
0
10
91.158260869565
20
30.4290702194579
30
0
0
VERTEX
8
0
10
91.9373913043476
20
30.5129540356974
30
0
0
VERTEX
8
0
10
92.7165217391302
20
30.595050220936
30
0
0
VERTEX
8
0
10
93.4956521739128
20
30.6771583808441
30
0
0
VERTEX
8
0
10
94.2747826086954
20
30.7540789457215
30
0
0
VERTEX
8
0
10
95.053913043478
20
30.8289622144931
30
0
0
VERTEX
8
0
10
95.8330434782606
20
30.9037024808955
30
0
0
VERTEX
8
0
10
96.6121739130433
20
30.9737198724276
30
0
0
VERTEX
8
0
10
97.3913043478259
20
31.0414884067646
30
0
0
VERTEX
8
0
10
98.1704347826085
20
31.1089710909873
30
0
0
VERTEX
8
0
10
98.9495652173911
20
31.1721421733879
30
0
0
VERTEX
8
0
10
99.7286956521737
20
31.2328865124101
30
0
0
VERTEX
8
0
10
100.507826086956
20
31.293213229299
30
0
0
VERTEX
8
0
10
101.286956521739
20
31.34959204673
30
0
0
VERTEX
8
0
10
102.066086956521
20
31.4033960394959
30
0
0
VERTEX
8
0
10
102.845217391304
20
31.4566607811004
30
0
0
VERTEX
8
0
10
103.624347826087
20
31.5062989253419
30
0
0
VERTEX
8
0
10
104.403478260869
20
31.5532405791691
30
0
0
VERTEX
8
0
10
105.182608695652
20
31.5995306702992
30
0
0
VERTEX
8
0
10
105.961739130435
20
31.642477630883
30
0
0
VERTEX
8
0
10
106.740869565217
20
31.6826298764084
30
0
0
VERTEX
8
0
10
107.52
20
31.7220268353538
30
0
0
VERTEX
8
0
10
108.299130434782
20
31.7583303397468
30
0
0
VERTEX
8
0
10
109.078260869565
20
31.7917617307428
30
0
0
VERTEX
8
0
10
109.857391304348
20
31.8243420550123
30
0
0
VERTEX
8
0
10
110.63652173913
20
31.8540484056893
30
0
0
VERTEX
8
0
10
111.415652173913
20
31.8808237692698
30
0
0
VERTEX
8
0
10
112.194782608695
20
31.906659663484
30
0
0
VERTEX
8
0
10
112.973913043478
20
31.9298140785126
30
0
0
VERTEX
8
0
10
113.753043478261
20
31.9499951294805
30
0
0
VERTEX
8
0
10
114.532173913043
20
31.9691551906242
30
0
0
VERTEX
8
0
10
115.311304347826
20
31.9858021540926
30
0
0
VERTEX
8
0
10
116.090434782608
20
31.9994480859684
30
0
0
VERTEX
8
0
10
116.869565217391
20
32.011997959767
30
0
0
VERTEX
8
0
10
117.648695652174
20
32.0221815887584
30
0
0
VERTEX
8
0
10
118.427826086956
20
32.0293496532838
30
0
0
VERTEX
8
0
10
119.206956521739
20
32.0353526746348
30
0
0
VERTEX
8
0
10
119.986086956521
20
32.0391171095364
30
0
0
VERTEX
8
0
10
120.765217391304
20
32.0398631959651
30
0
0
VERTEX
8
0
10
121.544347826087
20
32.0393810258092
30
0
0
VERTEX
8
0
10
122.323478260869
20
32.0367708515808
30
0
0
VERTEX
8
0
10
123.102608695652
20
32.0311500771152
30
0
0
VERTEX
8
0
10
123.881739130434
20
32.0242433481534
30
0
0
VERTEX
8
0
10
124.660869565217
20
32.0153040548767
30
0
0
VERTEX
8
0
10
125.44
20
32.0033713779905
30
0
0
VERTEX
8
0
10
126.219130434782
20
31.9901003620012
30
0
0
VERTEX
8
0
10
126.998260869565
20
31.9748788542158
30
0
0
VERTEX
8
0
10
127.777391304348
20
31.956689723351
30
0
0
VERTEX
8
0
10
128.55652173913
20
31.9371150335926
30
0
0
VERTEX
8
0
10
129.335652173913
20
31.9156601993858
30
0
0
VERTEX
8
0
10
130.114782608695
20
31.8912712506821
30
0
0
VERTEX
8
0
10
130.893913043478
20
31.8654545942199
30
0
0
VERTEX
8
0
10
131.673043478261
20
31.8378179468513
30
0
0
VERTEX
8
0
10
132.452173913043
20
31.8072877663106
30
0
0
VERTEX
8
0
10
133.231304347826
20
31.7752927627522
30
0
0
VERTEX
8
0
10
134.010434782608
20
31.7415291699901
30
0
0
VERTEX
8
0
10
134.789565217391
20
31.7049191376438
30
0
0
VERTEX
8
0
10
135.568695652174
20
31.6668122232936
30
0
0
VERTEX
8
0
10
136.347826086956
20
31.626980742518
30
0
0
VERTEX
8
0
10
137.126956521739
20
31.5843559791714
30
0
0
VERTEX
8
0
10
137.906086956522
20
31.5402074186475
30
0
0
VERTEX
8
0
10
138.685217391304
20
31.4943722595114
30
0
0
VERTEX
8
0
10
139.464347826087
20
31.4458027003976
30
0
0
VERTEX
8
0
10
140.243478260869
20
31.3956877319035
30
0
0
VERTEX
8
0
10
141.022608695652
20
31.3439193730103
30
0
0
VERTEX
8
0
10
141.801739130435
20
31.2894809975824
30
0
0
VERTEX
8
0
10
142.580869565217
20
31.2334811432758
30
0
0
VERTEX
8
0
10
143.36
20
31.1758576352522
30
0
0
VERTEX
8
0
10
144.139130434783
20
31.1156338886358
30
0
0
VERTEX
8
0
10
144.918260869565
20
31.0538384683402
30
0
0
VERTEX
8
0
10
145.697391304348
20
30.990446963268
30
0
0
VERTEX
8
0
10
146.47652173913
20
30.9245304130059
30
0
0
VERTEX
8
0
10
147.255652173913
20
30.857038308351
30
0
0
VERTEX
8
0
10
148.034782608696
20
30.7879768653226
30
0
0
VERTEX
8
0
10
148.813913043478
20
30.7164711476317
30
0
0
VERTEX
8
0
10
149.593043478261
20
30.6433928752374
30
0
0
VERTEX
8
0
10
150.372173913043
20
30.5687726045615
30
0
0
VERTEX
8
0
10
151.151304347826
20
30.4917947281893
30
0
0
VERTEX
8
0
10
151.930434782609
20
30.4132548957455
30
0
0
VERTEX
8
0
10
152.709565217391
20
30.3332025211792
30
0
0
VERTEX
8
0
10
153.488695652174
20
30.2508856154484
30
0
0
VERTEX
8
0
10
154.267826086957
20
30.1670258548974
30
0
0
VERTEX
8
0
10
155.046956521739
20
30.0816867959004
30
0
0
VERTEX
8
0
10
155.826086956522
20
29.9941834144354
30
0
0
VERTEX
8
0
10
156.605217391304
20
29.9051659141178
30
0
0
VERTEX
8
0
10
157.384347826087
20
29.8147080209417
30
0
0
VERTEX
8
0
10
158.16347826087
20
29.7221941468651
30
0
0
VERTEX
8
0
10
158.942608695652
20
29.6282059427464
30
0
0
VERTEX
8
0
10
159.721739130435
20
29.5328240600759
30
0
0
VERTEX
8
0
10
160.500869565218
20
29.4355040065693
30
0
0
VERTEX
8
0
10
161.28
20
29.3367622468165
30
0
0
VERTEX
8
0
10
162.059130434783
20
29.2366838429273
30
0
0
VERTEX
8
0
10
162.838260869565
20
29.1347963123135
30
0
0
VERTEX
8
0
10
163.617391304348
20
29.0315547882206
30
0
0
VERTEX
8
0
10
164.396521739131
20
28.9270469764346
30
0
0
VERTEX
8
0
10
165.175652173913
20
28.8208726437946
30
0
0
VERTEX
8
0
10
165.954782608696
20
28.7134299982488
30
0
0
VERTEX
8
0
10
166.733913043479
20
28.604808413978
30
0
0
VERTEX
8
0
10
167.513043478261
20
28.4946795595274
30
0
0
SEQEND
8
0
0
POLYLINE
8
0
62
3
70
0
10
0
20
0
30
0
0
VERTEX
8
0
10
3.11652173913043
20
0
30
0
0
VERTEX
8
0
10
3.89565217391304
20
0
30
0
0
VERTEX
8
0
10
4.67478260869565
20
0
30
0
0
VERTEX
8
0
10
5.45391304347826
20
0
30
0
0
VERTEX
8
0
10
6.23304347826087
20
0
30
0
0
VERTEX
8
0
10
7.01217391304348
20
0
30
0
0
VERTEX
8
0
10
7.79130434782609
20
0
30
0
0
VERTEX
8
0
10
8.57043478260869
20
0
30
0
0
VERTEX
8
0
10
9.3495652173913
20
0
30
0
0
VERTEX
8
0
10
10.1286956521739
20
0
30
0
0
VERTEX
8
0
10
10.9078260869565
20
0
30
0
0
VERTEX
8
0
10
11.6869565217391
20
0
30
0
0
VERTEX
8
0
10
12.4660869565217
20
0
30
0
0
VERTEX
8
0
10
13.2452173913043
20
0
30
0
0
VERTEX
8
0
10
14.024347826087
20
0
30
0
0
VERTEX
8
0
10
14.8034782608696
20
0
30
0
0
VERTEX
8
0
10
15.5826086956522
20
0
30
0
0
VERTEX
8
0
10
16.3617391304348
20
0
30
0
0
VERTEX
8
0
10
17.1408695652174
20
0
30
0
0
VERTEX
8
0
10
17.92
20
0
30
0
0
VERTEX
8
0
10
18.6991304347826
20
1.47194076084896
30
0
0
VERTEX
8
0
10
19.4782608695652
20
4.84802410205327
30
0
0
VERTEX
8
0
10
20.2573913043478
20
7.1472516946551
30
0
0
VERTEX
8
0
10
21.0365217391304
20
8.91656775394167
30
0
0
VERTEX
8
0
10
21.8156521739131
20
9.94376338636654
30
0
0
VERTEX
8
0
10
22.5947826086957
20
11.1342763096318
30
0
0
VERTEX
8
0
10
23.3739130434783
20
12.2586647900355
30
0
0
VERTEX
8
0
10
24.1530434782609
20
13.0086470814322
30
0
0
VERTEX
8
0
10
24.9321739130435
20
13.8987902115547
30
0
0
VERTEX
8
0
10
25.7113043478261
20
14.7785698681151
30
0
0
VERTEX
8
0
10
26.4904347826087
20
15.4110976664594
30
0
0
VERTEX
8
0
10
27.2695652173913
20
16.1528348797436
30
0
0
VERTEX
8
0
10
28.0486956521739
20
16.8989002086559
30
0
0
VERTEX
8
0
10
28.8278260869565
20
17.4653431516516
30
0
0
VERTEX
8
0
10
29.6069565217391
20
18.1166095450203
30
0
0
VERTEX
8
0
10
30.3860869565218
20
18.776645016851
30
0
0
VERTEX
8
0
10
31.1652173913044
20
19.2996029614633
30
0
0
VERTEX
8
0
10
31.944347826087
20
19.888803204038
30
0
0
VERTEX
8
0
10
32.7234782608696
20
20.487793475077
30
0
0
VERTEX
8
0
10
33.5026086956522
20
20.9789668548763
30
0
0
VERTEX
8
0
10
34.2817391304348
20
21.5221078315189
30
0
0
VERTEX
8
0
10
35.0608695652174
20
22.0747733507651
30
0
0
VERTEX
8
0
10
35.84
20
22.5408868728517
30
0
0
VERTEX
8
0
10
36.6191304347826
20
23.047845251852
30
0
0
VERTEX
8
0
10
37.3982608695652
20
23.5635727953536
30
0
0
VERTEX
8
0
10
38.1773913043478
20
24.008792403886
30
0
0
VERTEX
8
0
10
38.9565217391304
20
24.4860695799196
30
0
0
VERTEX
8
0
10
39.735652173913
20
24.9711992878493
30
0
0
VERTEX
8
0
10
40.5147826086956
20
25.3982593209528
30
0
0
VERTEX
8
0
10
41.2939130434782
20
25.8503495997635
30
0
0
VERTEX
8
0
10
42.0730434782608
20
26.3093567919329
30
0
0
VERTEX
8
0
10
42.8521739130434
20
26.7201379095785
30
0
0
VERTEX
8
0
10
43.6313043478261
20
27.1502705454408
30
0
0
VERTEX
8
0
10
44.4104347826087
20
27.5864269821395
30
0
0
VERTEX
8
0
10
45.1895652173913
20
27.9822744669295
30
0
0
VERTEX
8
0
10
45.9686956521739
20
28.3928439927757
30
0
0
VERTEX
8
0
10
46.7478260869565
20
28.8086112807194
30
0
0
VERTEX
8
0
10
47.5269565217391
20
29.1905205164031
30
0
0
VERTEX
8
0
10
48.3060869565217
20
29.583349867585
30
0
0
VERTEX
8
0
10
49.0852173913043
20
29.9806252473243
30
0
0
VERTEX
8
0
10
49.8643478260869
20
30.3493548788263
30
0
0
VERTEX
8
0
10
50.6434782608695
20
30.7258633493512
30
0
0
VERTEX
8
0
10
51.4226086956521
20
31.1061395293306
30
0
0
VERTEX
8
0
10
52.2017391304347
20
31.4622832018711
30
0
0
VERTEX
8
0
10
52.9808695652173
20
31.8235975557825
30
0
0
VERTEX
8
0
10
53.7599999999999
20
32.188070187743
30
0
0
VERTEX
8
0
10
54.5391304347825
20
32.5321035406605
30
0
0
VERTEX
8
0
10
55.3182608695651
20
32.8791337764282
30
0
0
VERTEX
8
0
10
56.0973913043477
20
33.228775808011
30
0
0
VERTEX
8
0
10
56.8765217391304
20
33.5610881473496
30
0
0
VERTEX
8
0
10
57.655652173913
20
33.8945805218724
30
0
0
VERTEX
8
0
10
58.4347826086956
20
34.230194911217
30
0
0
VERTEX
8
0
10
59.2139130434782
20
34.5511110991325
30
0
0
VERTEX
8
0
10
59.9930434782608
20
34.8716860877601
30
0
0
VERTEX
8
0
10
60.7721739130434
20
35.1939439855727
30
0
0
VERTEX
8
0
10
61.551304347826
20
35.5037399125945
30
0
0
VERTEX
8
0
10
62.3304347826086
20
35.8119199333836
30
0
0
VERTEX
8
0
10
63.1095652173912
20
36.1213888664676
30
0
0
VERTEX
8
0
10
63.8886956521738
20
36.4203026132659
30
0
0
VERTEX
8
0
10
64.6678260869564
20
36.7165326391333
30
0
0
VERTEX
8
0
10
65.446956521739
20
37.0136976673172
30
0
0
VERTEX
8
0
10
66.2260869565216
20
37.3019377092158
30
0
0
VERTEX
8
0
10
67.0052173913042
20
37.58660084009
30
0
0
VERTEX
8
0
10
67.7843478260868
20
37.8718806811909
30
0
0
VERTEX
8
0
10
68.5634782608694
20
38.1496320249564
30
0
0
VERTEX
8
0
10
69.342608695652
20
38.4230614246754
30
0
0
VERTEX
8
0
10
70.1217391304346
20
38.6968209150742
30
0
0
VERTEX
8
0
10
70.9008695652173
20
38.9642497649948
30
0
0
VERTEX
8
0
10
71.6799999999999
20
39.2267379346315
30
0
0
VERTEX
8
0
10
72.4591304347825
20
39.4892977807606
30
0
0
VERTEX
8
0
10
73.2382608695651
20
39.7465551424641
30
0
0
VERTEX
8
0
10
74.0173913043477
20
39.9983612139557
30
0
0
VERTEX
8
0
10
74.7965217391303
20
40.2500057137223
30
0
0
VERTEX
8
0
10
75.5756521739129
20
40.4972302196942
30
0
0
VERTEX
8
0
10
76.3547826086955
20
40.7385857593203
30
0
0
VERTEX
8
0
10
77.1339130434781
20
40.9795689834265
30
0
0
VERTEX
8
0
10
77.9130434782607
20
41.2168891413126
30
0
0
VERTEX
8
0
10
78.6921739130433
20
41.4480028182353
30
0
0
VERTEX
8
0
10
79.4713043478259
20
41.6785536102082
30
0
0
VERTEX
8
0
10
80.2504347826085
20
41.9060896179935
30
0
0
VERTEX
8
0
10
81.0295652173911
20
42.1271509994557
30
0
0
VERTEX
8
0
10
81.8086956521737
20
42.3474770604754
30
0
0
VERTEX
8
0
10
82.5878260869563
20
42.565342293494
30
0
0
VERTEX
8
0
10
83.366956521739
20
42.7765249616599
30
0
0
VERTEX
8
0
10
84.1460869565216
20
42.9868162198998
30
0
0
VERTEX
8
0
10
84.9252173913042
20
43.1951184670677
30
0
0
VERTEX
8
0
10
85.7043478260868
20
43.3965826044447
30
0
0
VERTEX
8
0
10
86.4834782608694
20
43.5970140207096
30
0
0
VERTEX
8
0
10
87.262608695652
20
43.795856527772
30
0
0
VERTEX
8
0
10
88.0417391304346
20
43.9877510834315
30
0
0
VERTEX
8
0
10
88.8208695652172
20
44.1784850094124
30
0
0
VERTEX
8
0
10
89.5999999999998
20
44.3679673729788
30
0
0
VERTEX
8
0
10
90.3791304347824
20
44.5504318959058
30
0
0
VERTEX
8
0
10
91.158260869565
20
44.7316200753924
30
0
0
VERTEX
8
0
10
91.9373913043476
20
44.9118390212301
30
0
0
VERTEX
8
0
10
92.7165217391302
20
45.085005228174
30
0
0
VERTEX
8
0
10
93.4956521739128
20
45.256790511803
30
0
0
VERTEX
8
0
10
94.2747826086954
20
45.427840583468
30
0
0
VERTEX
8
0
10
95.053913043478
20
45.5918337141384
30
0
0
VERTEX
8
0
10
95.8330434782606
20
45.7543515436219
30
0
0
VERTEX
8
0
10
96.6121739130433
20
45.916325721844
30
0
0
VERTEX
8
0
10
97.3913043478259
20
46.0712657235276
30
0
0
VERTEX
8
0
10
98.1704347826085
20
46.2246454299245
30
0
0
VERTEX
8
0
10
98.9495652173911
20
46.3776356991526
30
0
0
VERTEX
8
0
10
99.7286956521737
20
46.5236382744838
30
0
0
VERTEX
8
0
10
100.507826086956
20
46.6680042264613
30
0
0
VERTEX
8
0
10
101.286956521739
20
46.812102101802
30
0
0
VERTEX
8
0
10
102.066086956521
20
46.9492796470701
30
0
0
VERTEX
8
0
10
102.845217391304
20
47.0847522784446
30
0
0
VERTEX
8
0
10
103.624347826087
20
47.2200493039866
30
0
0
VERTEX
8
0
10
104.403478260869
20
47.3485117604372
30
0
0
VERTEX
8
0
10
105.182608695652
20
47.4752085011151
30
0
0
VERTEX
8
0
10
105.961739130435
20
47.6017967288664
30
0
0
VERTEX
8
0
10
106.740869565217
20
47.7216523656696
30
0
0
VERTEX
8
0
10
107.52
20
47.8396884960623
30
0
0
VERTEX
8
0
10
108.299130434782
20
47.9576609534851
30
0
0
VERTEX
8
0
10
109.078260869565
20
48.0690170980976
30
0
0
VERTEX
8
0
10
109.857391304348
20
48.178506544013
30
0
0
VERTEX
8
0
10
110.63652173913
20
48.2879576971515
30
0
0
VERTEX
8
0
10
111.415652173913
20
48.3909214265735
30
0
0
VERTEX
8
0
10
112.194782608695
20
48.4919775091195
30
0
0
VERTEX
8
0
10
112.973913043478
20
48.5930037277565
30
0
0
VERTEX
8
0
10
113.753043478261
20
48.687682532391
30
0
0
VERTEX
8
0
10
114.532173913043
20
48.7804186856007
30
0
0
VERTEX
8
0
10
115.311304347826
20
48.8731187163158
30
0
0
VERTEX
8
0
10
116.090434782608
20
48.9596211468661
30
0
0
VERTEX
8
0
10
116.869565217391
20
49.0441516143039
30
0
0
VERTEX
8
0
10
117.648695652174
20
49.1286270672322
30
0
0
VERTEX
8
0
10
118.427826086956
20
49.2070633741506
30
0
0
VERTEX
8
0
10
119.206956521739
20
49.2835038947787
30
0
0
VERTEX
8
0
10
119.986086956521
20
49.3598597495887
30
0
0
VERTEX
8
0
10
120.765217391304
20
49.4303425238779
30
0
0
VERTEX
8
0
10
121.544347826087
20
49.4988110166712
30
0
0
VERTEX
8
0
10
122.323478260869
20
49.5671561535255
30
0
0
VERTEX
8
0
10
123.102608695652
20
49.629800977324
30
0
0
VERTEX
8
0
10
123.881739130434
20
49.690418233724
30
0
0
VERTEX
8
0
10
124.660869565217
20
49.7508659950872
30
0
0
VERTEX
8
0
10
125.44
20
49.8057921103054
30
0
0
VERTEX
8
0
10
126.219130434782
20
49.8586825033885
30
0
0
VERTEX
8
0
10
126.998260869565
20
49.9113512929462
30
0
0
VERTEX
8
0
10
127.777391304348
20
49.9586822962649
30
0
0
VERTEX
8
0
10
128.55652173913
20
50.0039745154967
30
0
0
VERTEX
8
0
10
129.335652173913
20
50.0489884409483
30
0
0
VERTEX
8
0
10
130.114782608695
20
50.0888530137332
30
0
0
VERTEX
8
0
10
130.893913043478
20
50.1266808345128
30
0
0
VERTEX
8
0
10
131.673043478261
20
50.1641704016591
30
0
0
VERTEX
8
0
10
132.452173913043
20
50.1967030838874
30
0
0
VERTEX
8
0
10
133.231304347826
20
50.2272061815051
30
0
0
VERTEX
8
0
10
134.010434782608
20
50.2573090479493
30
0
0
VERTEX
8
0
10
134.789565217391
20
50.2826510659206
30
0
0
VERTEX
8
0
10
135.568695652174
20
50.3059758844115
30
0
0
VERTEX
8
0
10
136.347826086956
20
50.3288376822623
30
0
0
VERTEX
8
0
10
137.126956521739
20
50.3471378409301
30
0
0
VERTEX
8
0
10
137.906086956522
20
50.3634385283103
30
0
0
VERTEX
8
0
10
138.685217391304
20
50.3792137666882
30
0
0
VERTEX
8
0
10
139.464347826087
20
50.3906294187791
30
0
0
VERTEX
8
0
10
140.243478260869
20
50.4000688416402
30
0
0
VERTEX
8
0
10
141.022608695652
20
50.408921901539
30
0
0
VERTEX
8
0
10
141.801739130435
20
50.4136200074084
30
0
0
VERTEX
8
0
10
142.580869565217
20
50.4163708597448
30
0
0
VERTEX
8
0
10
143.36
20
50.4184770960232
30
0
0
VERTEX
8
0
10
144.139130434783
20
50.4166353905169
30
0
0
VERTEX
8
0
10
144.918260869565
20
50.4128814141485
30
0
0
VERTEX
8
0
10
145.697391304348
20
50.4084283822844
30
0
0
VERTEX
8
0
10
146.47652173913
20
50.400236667887
30
0
0
VERTEX
8
0
10
147.255652173913
20
50.3901740051396
30
0
0
VERTEX
8
0
10
148.034782608696
20
50.3793628340838
30
0
0
VERTEX
8
0
10
148.813913043478
20
50.3650244236241
30
0
0
VERTEX
8
0
10
149.593043478261
20
50.3488631272706
30
0
0
VERTEX
8
0
10
150.372173913043
20
50.3319100646143
30
0
0
VERTEX
8
0
10
151.151304347826
20
50.3116434020886
30
0
0
VERTEX
8
0
10
151.930434782609
20
50.289609133391
30
0
0
VERTEX
8
0
10
152.709565217391
20
50.2667472955799
30
0
0
VERTEX
8
0
10
153.488695652174
20
50.2407877908424
30
0
0
VERTEX
8
0
10
154.267826086957
20
50.2131237444903
30
0
0
VERTEX
8
0
10
155.046956521739
20
50.1846051137348
30
0
0
VERTEX
8
0
10
155.826086956522
20
50.1532072366794
30
0
0
VERTEX
8
0
10
156.605217391304
20
50.1201763424624
30
0
0
VERTEX
8
0
10
157.384347826087
20
50.0862740644177
30
0
0
VERTEX
8
0
10
158.16347826087
20
50.0497137582181
30
0
0
VERTEX
8
0
10
158.942608695652
20
50.0116012249533
30
0
0
VERTEX
8
0
10
159.721739130435
20
49.972612278992
30
0
0
VERTEX
8
0
10
160.500869565218
20
49.9311897720597
30
0
0
VERTEX
8
0
10
161.28
20
49.8883060621288
30
0
0
VERTEX
8
0
10
162.059130434783
20
49.8445544021051
30
0
0
VERTEX
8
0
10
162.838260869565
20
49.7985975282186
30
0
0
VERTEX
8
0
10
163.617391304348
20
49.7512818852775
30
0
0
VERTEX
8
0
10
164.396521739131
20
49.7031221880881
30
0
0
VERTEX
8
0
10
165.175652173913
20
49.6529903697639
30
0
0
VERTEX
8
0
10
165.954782608696
20
49.6016150751236
30
0
0
VERTEX
8
0
10
166.733913043479
20
49.5494372961042
30
0
0
VERTEX
8
0
10
167.513043478261
20
49.4955264185604
30
0
0
SEQEND
8
0
0
POLYLINE
8
0
62
4
70
0
10
0
20
0
30
0
0
VERTEX
8
0
10
3.11652173913043
20
1.60139957845128
30
0
0
VERTEX
8
0
10
3.89565217391304
20
1.83868725321453
30
0
0
VERTEX
8
0
10
4.67478260869565
20
1.95733109059614
30
0
0
VERTEX
8
0
10
5.45391304347826
20
2.19461876535937
30
0
0
VERTEX
8
0
10
6.23304347826087
20
2.31326260274097
30
0
0
VERTEX
8
0
10
7.01217391304348
20
2.43190644012258
30
0
0
VERTEX
8
0
10
7.79130434782609
20
2.5505502775042
30
0
0
VERTEX
8
0
10
8.57043478260869
20
2.66919411488581
30
0
0
VERTEX
8
0
10
9.3495652173913
20
2.78783795226745
30
0
0
VERTEX
8
0
10
10.1286956521739
20
3.02512562703066
30
0
0
VERTEX
8
0
10
10.9078260869565
20
3.38105713917552
30
0
0
VERTEX
8
0
10
11.6869565217391
20
3.61834481393871
30
0
0
VERTEX
8
0
10
12.4660869565217
20
3.73698865132033
30
0
0
VERTEX
8
0
10
13.2452173913043
20
3.85563248870194
30
0
0
VERTEX
8
0
10
14.024347826087
20
3.97427632608354
30
0
0
VERTEX
8
0
10
14.8034782608696
20
4.09292016346519
30
0
0
VERTEX
8
0
10
15.5826086956522
20
4.09292016346514
30
0
0
VERTEX
8
0
10
16.3617391304348
20
3.85563248870193
30
0
0
VERTEX
8
0
10
17.1408695652174
20
3.73698865132035
30
0
0
VERTEX
8
0
10
17.92
20
3.61834481393868
30
0
0
VERTEX
8
0
10
18.6991304347826
20
3.79664543100397
30
0
0
VERTEX
8
0
10
19.4782608695652
20
5.97923445094807
30
0
0
VERTEX
8
0
10
20.2573913043478
20
7.95808480176387
30
0
0
VERTEX
8
0
10
21.0365217391304
20
8.6606360484864
30
0
0
VERTEX
8
0
10
21.8156521739131
20
9.09182517819947
30
0
0
VERTEX
8
0
10
22.5947826086957
20
9.54513488304262
30
0
0
VERTEX
8
0
10
23.3739130434783
20
9.98918307746418
30
0
0
VERTEX
8
0
10
24.1530434782609
20
10.4374815562361
30
0
0
VERTEX
8
0
10
24.9321739130435
20
11.1446708192674
30
0
0
VERTEX
8
0
10
25.7113043478261
20
11.8755958748201
30
0
0
VERTEX
8
0
10
26.4904347826087
20
12.6371685251457
30
0
0
VERTEX
8
0
10
27.2695652173913
20
13.5962947167272
30
0
0
VERTEX
8
0
10
28.0486956521739
20
14.3162418096263
30
0
0
VERTEX
8
0
10
28.8278260869565
20
15.0510142624079
30
0
0
VERTEX
8
0
10
29.6069565217391
20
15.7787500986789
30
0
0
VERTEX
8
0
10
30.3860869565218
20
16.735957334982
30
0
0
VERTEX
8
0
10
31.1652173913044
20
17.4841009662946
30
0
0
VERTEX
8
0
10
31.944347826087
20
18.2242070454271
30
0
0
VERTEX
8
0
10
32.7234782608696
20
18.9659599358301
30
0
0
VERTEX
8
0
10
33.5026086956522
20
19.8818730128927
30
0
0
VERTEX
8
0
10
34.2817391304348
20
20.5442741968452
30
0
0
VERTEX
8
0
10
35.0608695652174
20
21.2056902200737
30
0
0
VERTEX
8
0
10
35.84
20
21.9589849802918
30
0
0
VERTEX
8
0
10
36.6191304347826
20
22.5330900491413
30
0
0
VERTEX
8
0
10
37.3982608695652
20
23.105268847075
30
0
0
VERTEX
8
0
10
38.1773913043478
20
23.6833455930531
30
0
0
VERTEX
8
0
10
38.9565217391304
20
24.4242917119087
30
0
0
VERTEX
8
0
10
39.735652173913
20
25.0782926710345
30
0
0
VERTEX
8
0
10
40.5147826086956
20
25.3896697314809
30
0
0
VERTEX
8
0
10
41.2939130434782
20
25.778510590911
30
0
0
VERTEX
8
0
10
42.0730434782608
20
26.1655639182249
30
0
0
VERTEX
8
0
10
42.8521739130434
20
26.4722162919727
30
0
0
VERTEX
8
0
10
43.6313043478261
20
26.8555315197483
30
0
0
VERTEX
8
0
10
44.4104347826087
20
27.2370791686786
30
0
0
VERTEX
8
0
10
45.1895652173913
20
27.6241440005436
30
0
0
VERTEX
8
0
10
45.9686956521739
20
27.9167492080175
30
0
0
VERTEX
8
0
10
46.7478260869565
20
28.2081298626651
30
0
0
VERTEX
8
0
10
47.5269565217391
20
28.5054684517935
30
0
0
VERTEX
8
0
10
48.3060869565217
20
28.7940168984639
30
0
0
VERTEX
8
0
10
49.0852173913043
20
29.0812755417031
30
0
0
VERTEX
8
0
10
49.8643478260869
20
29.3743467876573
30
0
0
VERTEX
8
0
10
50.6434782608695
20
29.6586671473411
30
0
0
VERTEX
8
0
10
51.4226086956521
20
29.9416430825585
30
0
0
VERTEX
8
0
10
52.2017391304347
20
30.2302845510869
30
0
0
VERTEX
8
0
10
52.9808695652173
20
30.5102349476979
30
0
0
VERTEX
8
0
10
53.7599999999999
20
30.7073085691851
30
0
0
VERTEX
8
0
10
54.5391304347825
20
30.9107264729496
30
0
0
VERTEX
8
0
10
55.3182608695651
20
31.1867193629558
30
0
0
VERTEX
8
0
10
56.0973913043477
20
31.4612675752399
30
0
0
VERTEX
8
0
10
56.8765217391304
20
31.6612756178758
30
0
0
VERTEX
8
0
10
57.655652173913
20
31.9328738122166
30
0
0
VERTEX
8
0
10
58.4347826086956
20
32.2029895146455
30
0
0
VERTEX
8
0
10
59.2139130434782
20
32.7167091071839
30
0
0
VERTEX
8
0
10
59.9930434782608
20
33.062638882979
30
0
0
VERTEX
8
0
10
60.7721739130434
20
33.4868556464599
30
0
0
VERTEX
8
0
10
61.551304347826
20
33.7559898770414
30
0
0
VERTEX
8
0
10
62.3304347826086
20
34.09666430767
30
0
0
VERTEX
8
0
10
63.1095652173912
20
34.5157168678963
30
0
0
VERTEX
8
0
10
63.8886956521738
20
34.7794102227734
30
0
0
VERTEX
8
0
10
64.6678260869564
20
35.1149233168389
30
0
0
VERTEX
8
0
10
65.446956521739
20
35.3689114026541
30
0
0
VERTEX
8
0
10
66.2260869565216
20
35.707312649407
30
0
0
VERTEX
8
0
10
67.0052173913042
20
35.9579360817355
30
0
0
VERTEX
8
0
10
67.7843478260868
20
36.2866782982862
30
0
0
VERTEX
8
0
10
68.5634782608694
20
36.6198289592799
30
0
0
VERTEX
8
0
10
69.342608695652
20
36.8654550650341
30
0
0
VERTEX
8
0
10
70.1217391304346
20
37.1095875464433
30
0
0
VERTEX
8
0
10
70.9008695652173
20
37.4374999006179
30
0
0
VERTEX
8
0
10
71.6799999999999
20
37.8374833850132
30
0
0
VERTEX
8
0
10
72.4591304347825
20
38.1562884959001
30
0
0
VERTEX
8
0
10
73.2382608695651
20
38.4792024242299
30
0
0
VERTEX
8
0
10
74.0173913043477
20
38.7947215004114
30
0
0
VERTEX
8
0
10
74.7965217391303
20
39.1087123731491
30
0
0
VERTEX
8
0
10
75.5756521739129
20
39.4266567882484
30
0
0
VERTEX
8
0
10
76.3547826086955
20
39.7374196910142
30
0
0
VERTEX
8
0
10
77.1339130434781
20
40.0466787206753
30
0
0
VERTEX
8
0
10
77.9130434782607
20
40.2794397134409
30
0
0
VERTEX
8
0
10
78.6921739130433
20
40.5854398955781
30
0
0
VERTEX
8
0
10
79.4713043478259
20
40.8096706519479
30
0
0
VERTEX
8
0
10
80.2504347826085
20
41.1177594557699
30
0
0
VERTEX
8
0
10
81.0295652173911
20
41.3387838338433
30
0
0
VERTEX
8
0
10
81.8086956521737
20
41.5583371232039
30
0
0
VERTEX
8
0
10
82.5878260869563
20
41.8615109881635
30
0
0
VERTEX
8
0
10
83.366956521739
20
42.0778807875877
30
0
0
VERTEX
8
0
10
84.1460869565216
20
42.2927830566158
30
0
0
VERTEX
8
0
10
84.9252173913042
20
42.5110434806576
30
0
0
VERTEX
8
0
10
85.7043478260868
20
42.7228551644739
30
0
0
VERTEX
8
0
10
86.4834782608694
20
42.9332012514209
30
0
0
VERTEX
8
0
10
87.262608695652
20
43.1467553280302
30
0
0
VERTEX
8
0
10
88.0417391304346
20
43.3540224223574
30
0
0
VERTEX
8
0
10
88.8208695652172
20
43.5598278616804
30
0
0
VERTEX
8
0
10
89.5999999999998
20
43.8483774360061
30
0
0
VERTEX
8
0
10
90.3791304347824
20
44.051071961143
30
0
0
VERTEX
8
0
10
91.158260869565
20
44.3320824236127
30
0
0
VERTEX
8
0
10
91.9373913043476
20
44.6160724091275
30
0
0
VERTEX
8
0
10
92.7165217391302
20
44.8141977162253
30
0
0
VERTEX
8
0
10
93.4956521739128
20
45.0908711497174
30
0
0
VERTEX
8
0
10
94.2747826086954
20
45.3703808721246
30
0
0
VERTEX
8
0
10
95.053913043478
20
45.5639990300967
30
0
0
VERTEX
8
0
10
95.8330434782606
20
45.676136828428
30
0
0
VERTEX
8
0
10
96.6121739130433
20
45.8709592270983
30
0
0
VERTEX
8
0
10
97.3913043478259
20
46.0602059143439
30
0
0
VERTEX
8
0
10
98.1704347826085
20
46.1682229330254
30
0
0
VERTEX
8
0
10
98.9495652173911
20
46.3585335699135
30
0
0
VERTEX
8
0
10
99.7286956521737
20
46.5434292234878
30
0
0
VERTEX
8
0
10
100.507826086956
20
46.6473204991512
30
0
0
VERTEX
8
0
10
101.286956521739
20
46.7537278425692
30
0
0
VERTEX
8
0
10
102.066086956521
20
46.9343042013628
30
0
0
VERTEX
8
0
10
102.845217391304
20
47.1134813557974
30
0
0
VERTEX
8
0
10
103.624347826087
20
47.2156109791636
30
0
0
VERTEX
8
0
10
104.403478260869
20
47.3128133883321
30
0
0
VERTEX
8
0
10
105.182608695652
20
47.4876970776259
30
0
0
VERTEX
8
0
10
105.961739130435
20
47.6646373978475
30
0
0
VERTEX
8
0
10
106.740869565217
20
47.7577225765344
30
0
0
VERTEX
8
0
10
107.52
20
47.9283492896245
30
0
0
VERTEX
8
0
10
108.299130434782
20
48.100899860087
30
0
0
VERTEX
8
0
10
109.078260869565
20
48.1898864910684
30
0
0
VERTEX
8
0
10
109.857391304348
20
48.3563003124188
30
0
0
VERTEX
8
0
10
110.63652173913
20
48.5245073227595
30
0
0
VERTEX
8
0
10
111.415652173913
20
48.6094199151998
30
0
0
VERTEX
8
0
10
112.194782608695
20
48.693103249333
30
0
0
VERTEX
8
0
10
112.973913043478
20
48.8569934294283
30
0
0
VERTEX
8
0
10
113.753043478261
20
48.9379920344806
30
0
0
VERTEX
8
0
10
114.532173913043
20
48.9395925169686
30
0
0
VERTEX
8
0
10
115.311304347826
20
49.0211336650325
30
0
0
VERTEX
8
0
10
116.090434782608
20
49.0984844697341
30
0
0
VERTEX
8
0
10
116.869565217391
20
49.1746087567288
30
0
0
VERTEX
8
0
10
117.648695652174
20
49.1747284500435
30
0
0
VERTEX
8
0
10
118.427826086956
20
49.1711980318208
30
0
0
VERTEX
8
0
10
119.206956521739
20
49.2437895002772
30
0
0
VERTEX
8
0
10
119.986086956521
20
49.3177614914713
30
0
0
VERTEX
8
0
10
120.765217391304
20
49.2345298087087
30
0
0
VERTEX
8
0
10
121.544347826087
20
49.3035835677291
30
0
0
VERTEX
8
0
10
122.323478260869
20
49.2977136655087
30
0
0
VERTEX
8
0
10
123.102608695652
20
49.2884398781693
30
0
0
VERTEX
8
0
10
123.881739130434
20
49.353958686801
30
0
0
VERTEX
8
0
10
124.660869565217
20
49.3450737950164
30
0
0
VERTEX
8
0
10
125.44
20
49.3329122763017
30
0
0
VERTEX
8
0
10
126.219130434782
20
49.3949064710795
30
0
0
VERTEX
8
0
10
126.998260869565
20
49.4579133772342
30
0
0
VERTEX
8
0
10
127.777391304348
20
49.5174212190871
30
0
0
VERTEX
8
0
10
128.55652173913
20
49.5757323310651
30
0
0
VERTEX
8
0
10
129.335652173913
20
49.5602952713853
30
0
0
VERTEX
8
0
10
130.114782608695
20
49.616237298229
30
0
0
VERTEX
8
0
10
130.893913043478
20
49.5966932466268
30
0
0
VERTEX
8
0
10
131.673043478261
20
49.6523150163316
30
0
0
VERTEX
8
0
10
132.452173913043
20
49.7047330890554
30
0
0
VERTEX
8
0
10
133.231304347826
20
49.7559851339714
30
0
0
VERTEX
8
0
10
134.010434782608
20
49.807905845387
30
0
0
VERTEX
8
0
10
134.789565217391
20
49.7830328128757
30
0
0
VERTEX
8
0
10
135.568695652174
20
49.8308284965534
30
0
0
VERTEX
8
0
10
136.347826086956
20
49.8057587933319
30
0
0
VERTEX
8
0
10
137.126956521739
20
49.8512824666954
30
0
0
VERTEX
8
0
10
137.906086956522
20
49.8956799112231
30
0
0
VERTEX
8
0
10
138.685217391304
20
49.8674826709082
30
0
0
VERTEX
8
0
10
139.464347826087
20
49.8368320166692
30
0
0
VERTEX
8
0
10
140.243478260869
20
49.8779563614248
30
0
0
VERTEX
8
0
10
141.022608695652
20
49.8469231302022
30
0
0
VERTEX
8
0
10
141.801739130435
20
49.8135729900342
30
0
0
VERTEX
8
0
10
142.580869565217
20
49.8514864293947
30
0
0
VERTEX
8
0
10
143.36
20
49.8176720846603
30
0
0
VERTEX
8
0
10
144.139130434783
20
49.7816778417613
30
0
0
VERTEX
8
0
10
144.918260869565
20
49.816450353186
30
0
0
VERTEX
8
0
10
145.697391304348
20
49.7086095244496
30
0
0
VERTEX
8
0
10
146.47652173913
20
49.7413438376924
30
0
0
VERTEX
8
0
10
147.255652173913
20
49.7020177811496
30
0
0
VERTEX
8
0
10
148.034782608696
20
49.6630679457933
30
0
0
VERTEX
8
0
10
148.813913043478
20
49.6222104011548
30
0
0
VERTEX
8
0
10
149.593043478261
20
49.5806249020517
30
0
0
VERTEX
8
0
10
150.372173913043
20
49.6094667032262
30
0
0
VERTEX
8
0
10
151.151304347826
20
49.4962689303463
30
0
0
VERTEX
8
0
10
151.930434782609
20
49.5221913427498
30
0
0
VERTEX
8
0
10
152.709565217391
20
49.4784203800802
30
0
0
VERTEX
8
0
10
153.488695652174
20
49.4330138443507
30
0
0
VERTEX
8
0
10
154.267826086957
20
49.4561475214123
30
0
0
VERTEX
8
0
10
155.046956521739
20
49.5485427107191
30
0
0
VERTEX
8
0
10
155.826086956522
20
49.5004579558288
30
0
0
VERTEX
8
0
10
156.605217391304
20
49.5208573094092
30
0
0
VERTEX
8
0
10
157.384347826087
20
49.47200394164
30
0
0
VERTEX
8
0
10
158.16347826087
20
49.4217894468124
30
0
0
VERTEX
8
0
10
158.942608695652
20
49.4396391516704
30
0
0
VERTEX
8
0
10
159.721739130435
20
49.3886403388727
30
0
0
VERTEX
8
0
10
160.500869565218
20
49.3364139951667
30
0
0
VERTEX
8
0
10
161.28
20
49.351842848998
30
0
0
VERTEX
8
0
10
162.059130434783
20
49.2988277809276
30
0
0
VERTEX
8
0
10
162.838260869565
20
49.2447172871248
30
0
0
VERTEX
8
0
10
163.617391304348
20
49.1900901758622
30
0
0
VERTEX
8
0
10
164.396521739131
20
49.1354091416897
30
0
0
VERTEX
8
0
10
165.175652173913
20
49.0797621819417
30
0
0
VERTEX
8
0
10
165.954782608696
20
49.0236452307906
30
0
0
VERTEX
8
0
10
166.733913043479
20
49.0343788364674
30
0
0
VERTEX
8
0
10
167.513043478261
20
48.9104092388665
30
0
0
SEQEND
8
0
0
ENDSEC
0
EOF
