0
SECTION
2
HEADER
9
$ACADVER
1
AC1009
0
ENDSEC
0
SECTION
2
ENTITIES
0
POLYLINE
8
0
62
0
70
1
10
0
20
0
30
0
0
VERTEX
8
0
10
0
20
0
30
0
0
VERTEX
8
0
10
0
20
107.54
30
0
0
VERTEX
8
0
10
179.2
20
107.54
30
0
0
VERTEX
8
0
10
179.2
20
0
30
0
0
SEQEND
8
0
0
TEXT
8
0
62
0
10
0
20
-12
30
0
40
8
1
0
50
0
0
LINE
8
0
62
0
10
9.18974358974359
20
0
30
0
11
9.18974358974359
21
3.2
31
0
0
LINE
8
0
62
0
10
9.18974358974359
20
107.54
30
0
11
9.18974358974359
21
104.34
31
0
0
LINE
8
0
62
0
10
18.3794871794872
20
0
30
0
11
18.3794871794872
21
3.2
31
0
0
LINE
8
0
62
0
10
18.3794871794872
20
107.54
30
0
11
18.3794871794872
21
104.34
31
0
0
LINE
8
0
62
0
10
27.5692307692308
20
0
30
0
11
27.5692307692308
21
3.2
31
0
0
LINE
8
0
62
0
10
27.5692307692308
20
107.54
30
0
11
27.5692307692308
21
104.34
31
0
0
LINE
8
0
62
0
10
36.7589743589744
20
0
30
0
11
36.7589743589744
21
3.2
31
0
0
LINE
8
0
62
0
10
36.7589743589744
20
107.54
30
0
11
36.7589743589744
21
104.34
31
0
0
LINE
8
0
62
0
10
45.9487179487179
20
0
30
0
11
45.9487179487179
21
6.4
31
0
0
LINE
8
0
62
0
10
45.9487179487179
20
107.54
30
0
11
45.9487179487179
21
101.14
31
0
0
TEXT
8
0
62
0
10
45.9487179487179
20
-12
30
0
40
8
1
5
50
0
0
LINE
8
0
62
0
10
55.1384615384615
20
0
30
0
11
55.1384615384615
21
3.2
31
0
0
LINE
8
0
62
0
10
55.1384615384615
20
107.54
30
0
11
55.1384615384615
21
104.34
31
0
0
LINE
8
0
62
0
10
64.3282051282051
20
0
30
0
11
64.3282051282051
21
3.2
31
0
0
LINE
8
0
62
0
10
64.3282051282051
20
107.54
30
0
11
64.3282051282051
21
104.34
31
0
0
LINE
8
0
62
0
10
73.5179487179487
20
0
30
0
11
73.5179487179487
21
3.2
31
0
0
LINE
8
0
62
0
10
73.5179487179487
20
107.54
30
0
11
73.5179487179487
21
104.34
31
0
0
LINE
8
0
62
0
10
82.7076923076923
20
0
30
0
11
82.7076923076923
21
3.2
31
0
0
LINE
8
0
62
0
10
82.7076923076923
20
107.54
30
0
11
82.7076923076923
21
104.34
31
0
0
LINE
8
0
62
0
10
91.8974358974359
20
0
30
0
11
91.8974358974359
21
6.4
31
0
0
LINE
8
0
62
0
10
91.8974358974359
20
107.54
30
0
11
91.8974358974359
21
101.14
31
0
0
TEXT
8
0
62
0
10
91.8974358974359
20
-12
30
0
40
8
1
10
50
0
0
LINE
8
0
62
0
10
101.087179487179
20
0
30
0
11
101.087179487179
21
3.2
31
0
0
LINE
8
0
62
0
10
101.087179487179
20
107.54
30
0
11
101.087179487179
21
104.34
31
0
0
LINE
8
0
62
0
10
110.276923076923
20
0
30
0
11
110.276923076923
21
3.2
31
0
0
LINE
8
0
62
0
10
110.276923076923
20
107.54
30
0
11
110.276923076923
21
104.34
31
0
0
LINE
8
0
62
0
10
119.466666666667
20
0
30
0
11
119.466666666667
21
3.2
31
0
0
LINE
8
0
62
0
10
119.466666666667
20
107.54
30
0
11
119.466666666667
21
104.34
31
0
0
LINE
8
0
62
0
10
128.65641025641
20
0
30
0
11
128.65641025641
21
3.2
31
0
0
LINE
8
0
62
0
10
128.65641025641
20
107.54
30
0
11
128.65641025641
21
104.34
31
0
0
LINE
8
0
62
0
10
137.846153846154
20
0
30
0
11
137.846153846154
21
6.4
31
0
0
LINE
8
0
62
0
10
137.846153846154
20
107.54
30
0
11
137.846153846154
21
101.14
31
0
0
TEXT
8
0
62
0
10
137.846153846154
20
-12
30
0
40
8
1
15
50
0
0
LINE
8
0
62
0
10
147.035897435897
20
0
30
0
11
147.035897435897
21
3.2
31
0
0
LINE
8
0
62
0
10
147.035897435897
20
107.54
30
0
11
147.035897435897
21
104.34
31
0
0
LINE
8
0
62
0
10
156.225641025641
20
0
30
0
11
156.225641025641
21
3.2
31
0
0
LINE
8
0
62
0
10
156.225641025641
20
107.54
30
0
11
156.225641025641
21
104.34
31
0
0
LINE
8
0
62
0
10
165.415384615385
20
0
30
0
11
165.415384615385
21
3.2
31
0
0
LINE
8
0
62
0
10
165.415384615385
20
107.54
30
0
11
165.415384615385
21
104.34
31
0
0
LINE
8
0
62
0
10
174.605128205128
20
0
30
0
11
174.605128205128
21
3.2
31
0
0
LINE
8
0
62
0
10
174.605128205128
20
107.54
30
0
11
174.605128205128
21
104.34
31
0
0
TEXT
8
0
62
0
10
-4
20
-4
30
0
40
8
1
0
50
0
0
LINE
8
0
62
0
10
0
20
6.72125
30
0
11
3.2
21
6.72125
31
0
0
LINE
8
0
62
0
10
179.2
20
6.72125
30
0
11
176
21
6.72125
31
0
0
LINE
8
0
62
0
10
0
20
13.4425
30
0
11
3.2
21
13.4425
31
0
0
LINE
8
0
62
0
10
179.2
20
13.4425
30
0
11
176
21
13.4425
31
0
0
LINE
8
0
62
0
10
0
20
20.16375
30
0
11
3.2
21
20.16375
31
0
0
LINE
8
0
62
0
10
179.2
20
20.16375
30
0
11
176
21
20.16375
31
0
0
LINE
8
0
62
0
10
0
20
26.885
30
0
11
3.2
21
26.885
31
0
0
LINE
8
0
62
0
10
179.2
20
26.885
30
0
11
176
21
26.885
31
0
0
LINE
8
0
62
0
10
0
20
33.60625
30
0
11
6.4
21
33.60625
31
0
0
LINE
8
0
62
0
10
179.2
20
33.60625
30
0
11
172.8
21
33.60625
31
0
0
TEXT
8
0
62
0
10
-4
20
29.60625
30
0
40
8
1
50
50
0
0
LINE
8
0
62
0
10
0
20
40.3275
30
0
11
3.2
21
40.3275
31
0
0
LINE
8
0
62
0
10
179.2
20
40.3275
30
0
11
176
21
40.3275
31
0
0
LINE
8
0
62
0
10
0
20
47.04875
30
0
11
3.2
21
47.04875
31
0
0
LINE
8
0
62
0
10
179.2
20
47.04875
30
0
11
176
21
47.04875
31
0
0
LINE
8
0
62
0
10
0
20
53.77
30
0
11
3.2
21
53.77
31
0
0
LINE
8
0
62
0
10
179.2
20
53.77
30
0
11
176
21
53.77
31
0
0
LINE
8
0
62
0
10
0
20
60.49125
30
0
11
3.2
21
60.49125
31
0
0
LINE
8
0
62
0
10
179.2
20
60.49125
30
0
11
176
21
60.49125
31
0
0
LINE
8
0
62
0
10
0
20
67.2125
30
0
11
6.4
21
67.2125
31
0
0
LINE
8
0
62
0
10
179.2
20
67.2125
30
0
11
172.8
21
67.2125
31
0
0
TEXT
8
0
62
0
10
-4
20
63.2125
30
0
40
8
1
100
50
0
0
LINE
8
0
62
0
10
0
20
73.93375
30
0
11
3.2
21
73.93375
31
0
0
LINE
8
0
62
0
10
179.2
20
73.93375
30
0
11
176
21
73.93375
31
0
0
LINE
8
0
62
0
10
0
20
80.655
30
0
11
3.2
21
80.655
31
0
0
LINE
8
0
62
0
10
179.2
20
80.655
30
0
11
176
21
80.655
31
0
0
LINE
8
0
62
0
10
0
20
87.37625
30
0
11
3.2
21
87.37625
31
0
0
LINE
8
0
62
0
10
179.2
20
87.37625
30
0
11
176
21
87.37625
31
0
0
LINE
8
0
62
0
10
0
20
94.0975
30
0
11
3.2
21
94.0975
31
0
0
LINE
8
0
62
0
10
179.2
20
94.0975
30
0
11
176
21
94.0975
31
0
0
LINE
8
0
62
0
10
0
20
100.81875
30
0
11
6.4
21
100.81875
31
0
0
LINE
8
0
62
0
10
179.2
20
100.81875
30
0
11
172.8
21
100.81875
31
0
0
TEXT
8
0
62
0
10
-4
20
96.81875
30
0
40
8
1
150
50
0
0
TEXT
8
0
62
0
10
89.6
20
-32
30
0
40
10
1
R (kpc)
50
0
0
TEXT
8
0
62
0
10
-24
20
53.77
30
0
40
10
1
V (km/s)
50
90
0
TEXT
8
0
62
0
10
72.6
20
122.54
30
0
40
11
1
V vs. R
50
0
0
POLYLINE
8
0
62
5
70
0
10
0
20
0
30
0
0
VERTEX
8
0
10
1.83794871794872
20
8.26117186129813
30
0
0
VERTEX
8
0
10
2.75692307692308
20
12.3772789447102
30
0
0
VERTEX
8
0
10
3.67589743589744
20
15.0785991297865
30
0
0
VERTEX
8
0
10
4.59487179487179
20
18.0776184989691
30
0
0
VERTEX
8
0
10
5.51384615384615
20
20.7706569547374
30
0
0
VERTEX
8
0
10
6.43282051282051
20
23.477678043967
30
0
0
VERTEX
8
0
10
7.35179487179487
20
25.452365633202
30
0
0
VERTEX
8
0
10
8.27076923076923
20
27.2712415698147
30
0
0
VERTEX
8
0
10
9.18974358974359
20
29.0863800675069
30
0
0
VERTEX
8
0
10
10.1087179487179
20
30.8788035992868
30
0
0
VERTEX
8
0
10
11.0276923076923
20
32.2878941462362
30
0
0
VERTEX
8
0
10
11.9466666666667
20
33.7501484411851
30
0
0
VERTEX
8
0
10
12.865641025641
20
34.9730737868515
30
0
0
VERTEX
8
0
10
13.7846153846154
20
36.2712522261774
30
0
0
VERTEX
8
0
10
14.7035897435897
20
37.1036095678242
30
0
0
VERTEX
8
0
10
15.6225641025641
20
38.0602458731417
30
0
0
VERTEX
8
0
10
16.5415384615385
20
38.8565276199901
30
0
0
VERTEX
8
0
10
17.4605128205128
20
39.598381792904
30
0
0
VERTEX
8
0
10
18.3794871794872
20
40.3402359658179
30
0
0
VERTEX
8
0
10
19.2984615384615
20
40.914398513775
30
0
0
VERTEX
8
0
10
20.2174358974359
20
41.4631475489535
30
0
0
VERTEX
8
0
10
21.1364102564103
20
42.011896584132
30
0
0
VERTEX
8
0
10
22.0553846153846
20
42.3804583753892
30
0
0
VERTEX
8
0
10
22.974358974359
20
42.7473714293572
30
0
0
VERTEX
8
0
10
23.8933333333333
20
43.1142844833252
30
0
0
VERTEX
8
0
10
24.8123076923077
20
43.2954004629845
30
0
0
VERTEX
8
0
10
25.7312820512821
20
43.4955538389129
30
0
0
VERTEX
8
0
10
26.6502564102564
20
43.6957072148412
30
0
0
VERTEX
8
0
10
27.5692307692308
20
43.811376740546
30
0
0
VERTEX
8
0
10
28.4882051282051
20
43.9432890923044
30
0
0
VERTEX
8
0
10
29.4071794871795
20
44.0752014440628
30
0
0
VERTEX
8
0
10
30.3261538461539
20
44.036654825093
30
0
0
VERTEX
8
0
10
31.2451282051282
20
44.0434267129436
30
0
0
VERTEX
8
0
10
32.1641025641026
20
44.0501986007942
30
0
0
VERTEX
8
0
10
33.0830769230769
20
43.9441825471476
30
0
0
VERTEX
8
0
10
34.0020512820513
20
43.8750916186126
30
0
0
VERTEX
8
0
10
34.9210256410257
20
43.7781568142733
30
0
0
VERTEX
8
0
10
35.84
20
43.663540908048
30
0
0
VERTEX
8
0
10
36.7589743589744
20
43.5489250018227
30
0
0
VERTEX
8
0
10
37.6779487179487
20
43.4007680805247
30
0
0
VERTEX
8
0
10
38.5969230769231
20
43.2406217295114
30
0
0
VERTEX
8
0
10
39.5158974358974
20
43.0804753784982
30
0
0
VERTEX
8
0
10
40.4348717948718
20
42.8745399559782
30
0
0
VERTEX
8
0
10
41.3538461538461
20
42.6612678415944
30
0
0
VERTEX
8
0
10
42.2728205128205
20
42.4479957272106
30
0
0
VERTEX
8
0
10
43.1917948717949
20
42.2197358154064
30
0
0
VERTEX
8
0
10
44.1107692307692
20
41.9912835442486
30
0
0
VERTEX
8
0
10
45.0297435897436
20
41.7628312730908
30
0
0
VERTEX
8
0
10
45.9487179487179
20
41.5343790019331
30
0
0
VERTEX
8
0
10
46.8676923076923
20
41.3059267307753
30
0
0
VERTEX
8
0
10
47.7866666666666
20
41.0774744596175
30
0
0
VERTEX
8
0
10
48.705641025641
20
40.811424733587
30
0
0
VERTEX
8
0
10
49.6246153846154
20
40.552610325658
30
0
0
VERTEX
8
0
10
50.5435897435897
20
40.293795917729
30
0
0
VERTEX
8
0
10
51.4625641025641
20
40.0349815098001
30
0
0
VERTEX
8
0
10
52.3815384615384
20
39.7761671018711
30
0
0
VERTEX
8
0
10
53.3005128205128
20
39.5173526939421
30
0
0
VERTEX
8
0
10
54.2194871794871
20
39.2415781638853
30
0
0
VERTEX
8
0
10
55.1384615384615
20
38.9713773278871
30
0
0
VERTEX
8
0
10
56.0574358974358
20
38.6988416666071
30
0
0
VERTEX
8
0
10
56.9764102564102
20
38.4248452786079
30
0
0
VERTEX
8
0
10
57.8953846153846
20
38.1508488906087
30
0
0
VERTEX
8
0
10
58.8143589743589
20
37.8796642725597
30
0
0
VERTEX
8
0
10
59.7333333333333
20
37.6094634365615
30
0
0
VERTEX
8
0
10
60.6523076923076
20
37.3392626005633
30
0
0
VERTEX
8
0
10
61.571282051282
20
37.07235039167
30
0
0
VERTEX
8
0
10
62.4902564102563
20
36.8059450696835
30
0
0
VERTEX
8
0
10
63.4092307692307
20
36.5395397476969
30
0
0
VERTEX
8
0
10
64.328205128205
20
36.2957263811164
30
0
0
VERTEX
8
0
10
65.2471794871794
20
36.0520933454557
30
0
0
VERTEX
8
0
10
66.1661538461537
20
35.808460309795
30
0
0
VERTEX
8
0
10
67.0851282051281
20
35.5605855679449
30
0
0
VERTEX
8
0
10
68.0041025641025
20
35.3131572461966
30
0
0
VERTEX
8
0
10
68.9230769230768
20
35.0657289244483
30
0
0
VERTEX
8
0
10
69.8420512820512
20
34.8230188379864
30
0
0
VERTEX
8
0
10
70.7610256410255
20
34.5793858023258
30
0
0
VERTEX
8
0
10
71.6799999999999
20
34.3357527666651
30
0
0
VERTEX
8
0
10
72.5989743589742
20
34.0921197310044
30
0
0
VERTEX
8
0
10
73.5179487179486
20
33.8484866953438
30
0
0
VERTEX
8
0
10
74.436923076923
20
33.6048536596831
30
0
0
VERTEX
8
0
10
75.3558974358973
20
33.3725628223276
30
0
0
VERTEX
8
0
10
76.2748717948717
20
33.1365202448868
30
0
0
VERTEX
8
0
10
77.193846153846
20
32.9216465560133
30
0
0
VERTEX
8
0
10
78.1128205128204
20
32.7197591604099
30
0
0
VERTEX
8
0
10
79.0317948717947
20
32.5178717648064
30
0
0
VERTEX
8
0
10
79.9507692307691
20
32.3188121670551
30
0
0
VERTEX
8
0
10
80.8697435897435
20
32.1207196017529
30
0
0
VERTEX
8
0
10
81.7887179487178
20
31.9226270364506
30
0
0
VERTEX
8
0
10
82.7076923076922
20
31.7245344711484
30
0
0
VERTEX
8
0
10
83.6266666666665
20
31.5264419058462
30
0
0
VERTEX
8
0
10
84.5456410256409
20
31.3283493405439
30
0
0
VERTEX
8
0
10
85.4646153846152
20
31.1302567752417
30
0
0
VERTEX
8
0
10
86.3835897435896
20
30.9321642099394
30
0
0
VERTEX
8
0
10
87.3025641025639
20
30.7340716446372
30
0
0
VERTEX
8
0
10
88.2215384615383
20
30.5359790793349
30
0
0
VERTEX
8
0
10
89.1405128205126
20
30.3378865140327
30
0
0
VERTEX
8
0
10
90.059487179487
20
30.1397939487305
30
0
0
VERTEX
8
0
10
90.9784615384614
20
29.970085469919
30
0
0
VERTEX
8
0
10
91.8974358974357
20
29.7947610888957
30
0
0
VERTEX
8
0
10
92.8164102564101
20
29.6194367078723
30
0
0
VERTEX
8
0
10
93.7353846153844
20
29.4545241083224
30
0
0
VERTEX
8
0
10
94.6543589743588
20
29.2867888182519
30
0
0
VERTEX
8
0
10
95.5733333333331
20
29.1190535281815
30
0
0
VERTEX
8
0
10
96.4923076923075
20
28.9569993334254
30
0
0
VERTEX
8
0
10
97.4112820512818
20
28.7930585318702
30
0
0
VERTEX
8
0
10
98.3302564102562
20
28.6267558953734
30
0
0
VERTEX
8
0
10
99.2492307692306
20
28.459020605303
30
0
0
VERTEX
8
0
10
100.168205128205
20
28.2912853152325
30
0
0
VERTEX
8
0
10
101.087179487179
20
28.1263871428286
30
0
0
VERTEX
8
0
10
102.006153846154
20
27.9624463412734
30
0
0
VERTEX
8
0
10
102.925128205128
20
27.7985055397183
30
0
0
VERTEX
8
0
10
103.844102564102
20
27.6445015767025
30
0
0
VERTEX
8
0
10
104.763076923077
20
27.4919440128553
30
0
0
VERTEX
8
0
10
105.682051282051
20
27.339386449008
30
0
0
VERTEX
8
0
10
106.601025641025
20
27.2284866453164
30
0
0
VERTEX
8
0
10
107.52
20
27.1176646960311
30
0
0
VERTEX
8
0
10
108.438974358974
20
27.0068427467458
30
0
0
VERTEX
8
0
10
109.357948717948
20
26.8661909619569
30
0
0
VERTEX
8
0
10
110.276923076923
20
26.7288105167864
30
0
0
VERTEX
8
0
10
111.195897435897
20
26.5914300716159
30
0
0
VERTEX
8
0
10
112.114871794872
20
26.4824669618466
30
0
0
VERTEX
8
0
10
113.033846153846
20
26.3678510556213
30
0
0
VERTEX
8
0
10
113.95282051282
20
26.253235149396
30
0
0
VERTEX
8
0
10
114.871794871795
20
26.1073550954902
30
0
0
VERTEX
8
0
10
115.790769230769
20
25.9699746503197
30
0
0
VERTEX
8
0
10
116.709743589743
20
25.8325942051492
30
0
0
VERTEX
8
0
10
117.628717948718
20
25.7406972044562
30
0
0
VERTEX
8
0
10
118.547692307692
20
25.6336691741456
30
0
0
VERTEX
8
0
10
119.466666666666
20
25.5242754931772
30
0
0
VERTEX
8
0
10
120.385641025641
20
25.4134535438919
30
0
0
VERTEX
8
0
10
121.304615384615
20
25.3026315946066
30
0
0
VERTEX
8
0
10
122.223589743589
20
25.1918096453214
30
0
0
VERTEX
8
0
10
123.142564102564
20
25.0809876960361
30
0
0
VERTEX
8
0
10
124.061538461538
20
24.9701657467509
30
0
0
VERTEX
8
0
10
124.980512820513
20
24.8692870065802
30
0
0
VERTEX
8
0
10
125.899487179487
20
24.769846700325
30
0
0
VERTEX
8
0
10
126.818461538461
20
24.6704063940698
30
0
0
VERTEX
8
0
10
127.737435897436
20
24.5633888710395
30
0
0
VERTEX
8
0
10
128.65641025641
20
24.4563608407289
30
0
0
VERTEX
8
0
10
129.575384615384
20
24.3493328104183
30
0
0
VERTEX
8
0
10
130.494358974359
20
24.2508306590416
30
0
0
VERTEX
8
0
10
131.413333333333
20
24.1513903527864
30
0
0
VERTEX
8
0
10
132.332307692307
20
24.0519500465312
30
0
0
VERTEX
8
0
10
133.251282051282
20
23.9667208689549
30
0
0
VERTEX
8
0
10
134.170256410256
20
23.8786618640567
30
0
0
VERTEX
8
0
10
135.08923076923
20
23.7906028591585
30
0
0
VERTEX
8
0
10
136.008205128205
20
23.6973328171594
30
0
0
VERTEX
8
0
10
136.927179487179
20
23.6054800831049
30
0
0
VERTEX
8
0
10
137.846153846153
20
23.5136273490504
30
0
0
VERTEX
8
0
10
138.765128205128
20
23.4331448246718
30
0
0
VERTEX
8
0
10
139.684102564102
20
23.3488795109679
30
0
0
VERTEX
8
0
10
140.603076923077
20
23.264614197264
30
0
0
VERTEX
8
0
10
141.522051282051
20
23.1803488835601
30
0
0
VERTEX
8
0
10
142.441025641025
20
23.0960835698562
30
0
0
VERTEX
8
0
10
143.36
20
23.0089789063623
30
0
0
VERTEX
8
0
10
144.278974358974
20
22.9209199014641
30
0
0
VERTEX
8
0
10
145.197948717948
20
22.8328608965659
30
0
0
VERTEX
8
0
10
146.116923076923
20
22.7547419521709
30
0
0
VERTEX
8
0
10
147.035897435897
20
22.6780639069719
30
0
0
VERTEX
8
0
10
147.954871794871
20
22.601385861773
30
0
0
VERTEX
8
0
10
148.873846153846
20
22.5284949626942
30
0
0
VERTEX
8
0
10
149.79282051282
20
22.4556104948071
30
0
0
VERTEX
8
0
10
150.711794871795
20
22.38272602692
30
0
0
VERTEX
8
0
10
151.630769230769
20
22.3055806085538
30
0
0
VERTEX
8
0
10
152.549743589743
20
22.2289025633549
30
0
0
VERTEX
8
0
10
153.468717948718
20
22.152224518156
30
0
0
VERTEX
8
0
10
154.387692307692
20
22.0850160443937
30
0
0
VERTEX
8
0
10
155.306666666666
20
22.0159251158587
30
0
0
VERTEX
8
0
10
156.225641025641
20
21.9468341873238
30
0
0
VERTEX
8
0
10
157.144615384615
20
21.8777432587888
30
0
0
VERTEX
8
0
10
158.063589743589
20
21.8086523302538
30
0
0
VERTEX
8
0
10
158.982564102564
20
21.7395614017188
30
0
0
VERTEX
8
0
10
159.901538461538
20
21.6761526684535
30
0
0
VERTEX
8
0
10
160.820512820513
20
21.6108552413116
30
0
0
VERTEX
8
0
10
161.739487179487
20
21.5408330312963
30
0
0
VERTEX
8
0
10
162.658461538461
20
21.4679485634092
30
0
0
VERTEX
8
0
10
163.577435897436
20
21.3950640955221
30
0
0
VERTEX
8
0
10
164.49641025641
20
21.322179627635
30
0
0
VERTEX
8
0
10
165.415384615384
20
21.2492951597479
30
0
0
VERTEX
8
0
10
166.334358974359
20
21.1764106918608
30
0
0
VERTEX
8
0
10
167.253333333333
20
21.1134561320876
30
0
0
VERTEX
8
0
10
168.172307692308
20
21.0519521683801
30
0
0
VERTEX
8
0
10
169.091282051282
20
20.9904482046726
30
0
0
VERTEX
8
0
10
170.010256410256
20
20.9289442409651
30
0
0
VERTEX
8
0
10
170.929230769231
20
20.8674402772576
30
0
0
VERTEX
8
0
10
171.848205128205
20
20.8059363135501
30
0
0
SEQEND
8
0
0
POLYLINE
8
0
62
6
70
0
10
0
20
0
30
0
0
VERTEX
8
0
10
1.83794871794872
20
1.31539015136093
30
0
0
VERTEX
8
0
10
2.75692307692308
20
1.70503747629405
30
0
0
VERTEX
8
0
10
3.67589743589744
20
2.09468480122717
30
0
0
VERTEX
8
0
10
4.59487179487179
20
2.4843321261603
30
0
0
VERTEX
8
0
10
5.51384615384615
20
2.87397945109342
30
0
0
VERTEX
8
0
10
6.43282051282051
20
3.18416824318485
30
0
0
VERTEX
8
0
10
7.35179487179487
20
3.51245729997406
30
0
0
VERTEX
8
0
10
8.27076923076923
20
3.84074635676328
30
0
0
VERTEX
8
0
10
9.18974358974359
20
4.21018953551738
30
0
0
VERTEX
8
0
10
10.1087179487179
20
4.57293982873934
30
0
0
VERTEX
8
0
10
11.0276923076923
20
4.98529539726254
30
0
0
VERTEX
8
0
10
11.9466666666667
20
5.43963231912922
30
0
0
VERTEX
8
0
10
12.865641025641
20
5.89396924099591
30
0
0
VERTEX
8
0
10
13.7846153846154
20
6.47116554956597
30
0
0
VERTEX
8
0
10
14.7035897435897
20
7.09086192283991
30
0
0
VERTEX
8
0
10
15.6225641025641
20
7.71055829611385
30
0
0
VERTEX
8
0
10
16.5415384615385
20
8.40551611436655
30
0
0
VERTEX
8
0
10
17.4605128205128
20
9.12087148918975
30
0
0
VERTEX
8
0
10
18.3794871794872
20
9.83622686401294
30
0
0
VERTEX
8
0
10
19.2984615384615
20
10.6685202844079
30
0
0
VERTEX
8
0
10
20.2174358974359
20
11.5125667414451
30
0
0
VERTEX
8
0
10
21.1364102564103
20
12.3566131984823
30
0
0
VERTEX
8
0
10
22.0553846153846
20
13.1557922050274
30
0
0
VERTEX
8
0
10
22.974358974359
20
13.9562817457647
30
0
0
VERTEX
8
0
10
23.8933333333333
20
14.756771286502
30
0
0
VERTEX
8
0
10
24.8123076923077
20
15.5237801772258
30
0
0
VERTEX
8
0
10
25.7312820512821
20
16.2988280305145
30
0
0
VERTEX
8
0
10
26.6502564102564
20
17.0738758838032
30
0
0
VERTEX
8
0
10
27.5692307692308
20
17.707675306509
30
0
0
VERTEX
8
0
10
28.4882051282051
20
18.3175185967959
30
0
0
VERTEX
8
0
10
29.4071794871795
20
18.9273618870827
30
0
0
VERTEX
8
0
10
30.3261538461539
20
19.3884679153786
30
0
0
VERTEX
8
0
10
31.2451282051282
20
19.8671446690288
30
0
0
VERTEX
8
0
10
32.1641025641026
20
20.3458214226791
30
0
0
VERTEX
8
0
10
33.0830769230769
20
20.6595945378151
30
0
0
VERTEX
8
0
10
34.0020512820513
20
21.0247742492007
30
0
0
VERTEX
8
0
10
34.9210256410257
20
21.3899539605863
30
0
0
VERTEX
8
0
10
35.84
20
21.6058588876704
30
0
0
VERTEX
8
0
10
36.7589743589744
20
21.8628703987226
30
0
0
VERTEX
8
0
10
37.6779487179487
20
22.100601750751
30
0
0
VERTEX
8
0
10
38.5969230769231
20
22.3193338878973
30
0
0
VERTEX
8
0
10
39.5158974358974
20
22.5380660250436
30
0
0
VERTEX
8
0
10
40.4348717948718
20
22.7447430321798
30
0
0
VERTEX
8
0
10
41.3538461538461
20
22.940704176559
30
0
0
VERTEX
8
0
10
42.2728205128205
20
23.1366653209383
30
0
0
VERTEX
8
0
10
43.1917948717949
20
23.3355547050354
30
0
0
VERTEX
8
0
10
44.1107692307692
20
23.5354132387716
30
0
0
VERTEX
8
0
10
45.0297435897436
20
23.7352717725078
30
0
0
VERTEX
8
0
10
45.9487179487179
20
23.9483134375964
30
0
0
VERTEX
8
0
10
46.8676923076923
20
24.1597700754234
30
0
0
VERTEX
8
0
10
47.7866666666666
20
24.3712267132505
30
0
0
VERTEX
8
0
10
48.705641025641
20
24.5820841400893
30
0
0
VERTEX
8
0
10
49.6246153846154
20
24.7929078409864
30
0
0
VERTEX
8
0
10
50.5435897435897
20
25.0037315418835
30
0
0
VERTEX
8
0
10
51.4625641025641
20
25.2687412126349
30
0
0
VERTEX
8
0
10
52.3815384615384
20
25.5278233219343
30
0
0
VERTEX
8
0
10
53.3005128205128
20
25.7869054312338
30
0
0
VERTEX
8
0
10
54.2194871794871
20
26.0667408826266
30
0
0
VERTEX
8
0
10
55.1384615384615
20
26.3418022908026
30
0
0
VERTEX
8
0
10
56.0574358974358
20
26.6168636989786
30
0
0
VERTEX
8
0
10
56.9764102564102
20
26.8971252759398
30
0
0
VERTEX
8
0
10
57.8953846153846
20
27.1768776525938
30
0
0
VERTEX
8
0
10
58.8143589743589
20
27.4566300292478
30
0
0
VERTEX
8
0
10
59.7333333333333
20
27.8001976337832
30
0
0
VERTEX
8
0
10
60.6523076923076
20
28.1317435547019
30
0
0
VERTEX
8
0
10
61.571282051282
20
28.4632894756205
30
0
0
VERTEX
8
0
10
62.4902564102563
20
28.7417547637066
30
0
0
VERTEX
8
0
10
63.4092307692307
20
29.0341403649155
30
0
0
VERTEX
8
0
10
64.328205128205
20
29.3265259661243
30
0
0
VERTEX
8
0
10
65.2471794871794
20
29.6464030385989
30
0
0
VERTEX
8
0
10
66.1661538461537
20
29.9573767615832
30
0
0
VERTEX
8
0
10
67.0851282051281
20
30.2648666329073
30
0
0
VERTEX
8
0
10
68.0041025641025
20
30.5710886133351
30
0
0
VERTEX
8
0
10
68.9230769230768
20
30.8773105937628
30
0
0
VERTEX
8
0
10
69.8420512820512
20
31.1835325741905
30
0
0
VERTEX
8
0
10
70.7610256410255
20
31.5305676350588
30
0
0
VERTEX
8
0
10
71.6799999999999
20
31.8656925231382
30
0
0
VERTEX
8
0
10
72.5989743589742
20
32.1760867709847
30
0
0
VERTEX
8
0
10
73.5179487179486
20
32.469133175425
30
0
0
VERTEX
8
0
10
74.436923076923
20
32.7621795798653
30
0
0
VERTEX
8
0
10
75.3558974358973
20
33.0197604247555
30
0
0
VERTEX
8
0
10
76.2748717948717
20
33.2822203925056
30
0
0
VERTEX
8
0
10
77.193846153846
20
33.5446803602556
30
0
0
VERTEX
8
0
10
78.1128205128204
20
33.7018475962044
30
0
0
VERTEX
8
0
10
79.0317948717947
20
33.7806750999185
30
0
0
VERTEX
8
0
10
79.9507692307691
20
33.8595026036326
30
0
0
VERTEX
8
0
10
80.8697435897435
20
33.9448561920029
30
0
0
VERTEX
8
0
10
81.7887179487178
20
34.0330372799594
30
0
0
VERTEX
8
0
10
82.7076923076922
20
34.1212183679159
30
0
0
VERTEX
8
0
10
83.6266666666665
20
34.2228765936404
30
0
0
VERTEX
8
0
10
84.5456410256409
20
34.326087572826
30
0
0
VERTEX
8
0
10
85.4646153846152
20
34.4292985520116
30
0
0
VERTEX
8
0
10
86.3835897435896
20
34.5237895096108
30
0
0
VERTEX
8
0
10
87.3025641025639
20
34.6177848714359
30
0
0
VERTEX
8
0
10
88.2215384615383
20
34.7117802332611
30
0
0
VERTEX
8
0
10
89.1405128205126
20
34.758627882675
30
0
0
VERTEX
8
0
10
90.059487179487
20
34.808579954836
30
0
0
VERTEX
8
0
10
90.9784615384614
20
34.8585320269971
30
0
0
VERTEX
8
0
10
91.8974358974357
20
34.7496477501457
30
0
0
VERTEX
8
0
10
92.8164102564101
20
34.6359936957512
30
0
0
VERTEX
8
0
10
93.7353846153844
20
34.5223396413567
30
0
0
VERTEX
8
0
10
94.6543589743588
20
34.427017365377
30
0
0
VERTEX
8
0
10
95.5733333333331
20
34.3272518740626
30
0
0
VERTEX
8
0
10
96.4923076923075
20
34.2241142344349
30
0
0
VERTEX
8
0
10
97.4112820512818
20
34.1184902432539
30
0
0
VERTEX
8
0
10
98.3302564102562
20
34.0128662520728
30
0
0
VERTEX
8
0
10
99.2492307692306
20
33.9072422608918
30
0
0
VERTEX
8
0
10
100.168205128205
20
33.8061211226353
30
0
0
VERTEX
8
0
10
101.087179487179
20
33.7040813354249
30
0
0
VERTEX
8
0
10
102.006153846154
20
33.6020415482145
30
0
0
VERTEX
8
0
10
102.925128205128
20
33.5025711507939
30
0
0
VERTEX
8
0
10
103.844102564102
20
33.4023236470701
30
0
0
VERTEX
8
0
10
104.763076923077
20
33.3003042182015
30
0
0
VERTEX
8
0
10
105.682051282051
20
33.197539012523
30
0
0
VERTEX
8
0
10
106.601025641025
20
33.0947738068446
30
0
0
VERTEX
8
0
10
107.52
20
33.0034048454658
30
0
0
VERTEX
8
0
10
108.438974358974
20
32.920320578819
30
0
0
VERTEX
8
0
10
109.357948717948
20
32.8372363121721
30
0
0
VERTEX
8
0
10
110.276923076923
20
32.7482594722698
30
0
0
VERTEX
8
0
10
111.195897435897
20
32.6578872224027
30
0
0
VERTEX
8
0
10
112.114871794872
20
32.5675149725356
30
0
0
VERTEX
8
0
10
113.033846153846
20
32.4526159154882
30
0
0
VERTEX
8
0
10
113.95282051282
20
32.340529318108
30
0
0
VERTEX
8
0
10
114.871794871795
20
32.2284427207278
30
0
0
VERTEX
8
0
10
115.790769230769
20
32.1203887457757
30
0
0
VERTEX
8
0
10
116.709743589743
20
32.0133607154651
30
0
0
VERTEX
8
0
10
117.628717948718
20
31.9063326851545
30
0
0
VERTEX
8
0
10
118.547692307692
20
31.8130525415553
30
0
0
VERTEX
8
0
10
119.466666666666
20
31.72093201342
30
0
0
VERTEX
8
0
10
120.385641025641
20
31.6288114852848
30
0
0
VERTEX
8
0
10
121.304615384615
20
31.5120752659316
30
0
0
VERTEX
8
0
10
122.223589743589
20
31.3984599674206
30
0
0
VERTEX
8
0
10
123.142564102564
20
31.2848446689095
30
0
0
VERTEX
8
0
10
124.061538461538
20
31.1878458022233
30
0
0
VERTEX
8
0
10
124.980512820513
20
31.0884054959681
30
0
0
VERTEX
8
0
10
125.899487179487
20
30.9889651897129
30
0
0
VERTEX
8
0
10
126.818461538461
20
30.8909479579739
30
0
0
VERTEX
8
0
10
127.737435897436
20
30.7926046594994
30
0
0
VERTEX
8
0
10
128.65641025641
20
30.6942613610249
30
0
0
VERTEX
8
0
10
129.575384615384
20
30.6029267700395
30
0
0
VERTEX
8
0
10
130.494358974359
20
30.5104328385745
30
0
0
VERTEX
8
0
10
131.413333333333
20
30.4048254255177
30
0
0
VERTEX
8
0
10
132.332307692307
20
30.2883667265085
30
0
0
VERTEX
8
0
10
133.251282051282
20
30.1719080274994
30
0
0
VERTEX
8
0
10
134.170256410256
20
30.0256577528221
30
0
0
VERTEX
8
0
10
135.08923076923
20
29.8720958943724
30
0
0
VERTEX
8
0
10
136.008205128205
20
29.7185340359227
30
0
0
VERTEX
8
0
10
136.927179487179
20
29.5649721774731
30
0
0
VERTEX
8
0
10
137.846153846153
20
29.4287523432945
30
0
0
VERTEX
8
0
10
138.765128205128
20
29.2876584039484
30
0
0
VERTEX
8
0
10
139.684102564102
20
29.148032526958
30
0
0
VERTEX
8
0
10
140.603076923077
20
29.0091586156762
30
0
0
VERTEX
8
0
10
141.522051282051
20
28.8702847043944
30
0
0
VERTEX
8
0
10
142.441025641025
20
28.7440436710269
30
0
0
VERTEX
8
0
10
143.36
20
28.6187298456982
30
0
0
VERTEX
8
0
10
144.278974358974
20
28.4934160203696
30
0
0
VERTEX
8
0
10
145.197948717948
20
28.3681021950409
30
0
0
VERTEX
8
0
10
146.116923076923
20
28.2154911590819
30
0
0
VERTEX
8
0
10
147.035897435897
20
28.0705222305141
30
0
0
VERTEX
8
0
10
147.954871794871
20
27.931585778556
30
0
0
VERTEX
8
0
10
148.873846153846
20
27.798353640102
30
0
0
VERTEX
8
0
10
149.79282051282
20
27.665121501648
30
0
0
VERTEX
8
0
10
150.711794871795
20
27.5393154082673
30
0
0
VERTEX
8
0
10
151.630769230769
20
27.4164871361023
30
0
0
VERTEX
8
0
10
152.549743589743
20
27.2936588639373
30
0
0
VERTEX
8
0
10
153.468717948718
20
27.1510113540596
30
0
0
VERTEX
8
0
10
154.387692307692
20
27.0022481268376
30
0
0
VERTEX
8
0
10
155.306666666666
20
26.8534848996156
30
0
0
VERTEX
8
0
10
156.225641025641
20
26.7336555623271
30
0
0
VERTEX
8
0
10
157.144615384615
20
26.6174251948249
30
0
0
VERTEX
8
0
10
158.063589743589
20
26.5011948273226
30
0
0
VERTEX
8
0
10
158.982564102564
20
26.367806361381
30
0
0
VERTEX
8
0
10
159.901538461538
20
26.230610999274
30
0
0
VERTEX
8
0
10
160.820512820513
20
26.093415637167
30
0
0
VERTEX
8
0
10
161.739487179487
20
25.984380534624
30
0
0
VERTEX
8
0
10
162.658461538461
20
25.8718964755427
30
0
0
VERTEX
8
0
10
163.577435897436
20
25.7594124164614
30
0
0
VERTEX
8
0
10
164.49641025641
20
25.621194479173
30
0
0
VERTEX
8
0
10
165.415384615384
20
25.4902671129874
30
0
0
VERTEX
8
0
10
166.334358974359
20
25.3593397468019
30
0
0
VERTEX
8
0
10
167.253333333333
20
25.267399200103
30
0
0
VERTEX
8
0
10
168.172307692308
20
25.1727011442685
30
0
0
VERTEX
8
0
10
169.091282051282
20
25.0780030884339
30
0
0
VERTEX
8
0
10
170.010256410256
20
24.9735673273669
30
0
0
VERTEX
8
0
10
170.929230769231
20
24.871100021743
30
0
0
VERTEX
8
0
10
171.848205128205
20
24.7933454473365
30
0
0
SEQEND
8
0
0
POLYLINE
8
0
62
6
70
0
10
0
20
0
30
0
0
VERTEX
8
0
10
1.83794871794872
20
17.2813898783069
30
0
0
VERTEX
8
0
10
2.75692307692308
20
17.5580278652689
30
0
0
VERTEX
8
0
10
3.67589743589744
20
18.3455000093765
30
0
0
VERTEX
8
0
10
4.59487179487179
20
19.132972153484
30
0
0
VERTEX
8
0
10
5.51384615384615
20
19.46277362131
30
0
0
VERTEX
8
0
10
6.43282051282051
20
19.393682692775
30
0
0
VERTEX
8
0
10
7.35179487179487
20
19.32459176424
30
0
0
VERTEX
8
0
10
8.27076923076923
20
19.1504510165325
30
0
0
VERTEX
8
0
10
9.18974358974359
20
18.9219987453747
30
0
0
VERTEX
8
0
10
10.1087179487179
20
18.6935464742169
30
0
0
VERTEX
8
0
10
11.0276923076923
20
18.4442478470448
30
0
0
VERTEX
8
0
10
11.9466666666667
20
18.1892288391629
30
0
0
VERTEX
8
0
10
12.865641025641
20
17.934209831281
30
0
0
VERTEX
8
0
10
13.7846153846154
20
17.6757360007164
30
0
0
VERTEX
8
0
10
14.7035897435897
20
17.4169215927874
30
0
0
VERTEX
8
0
10
15.6225641025641
20
17.1581071848584
30
0
0
VERTEX
8
0
10
16.5415384615385
20
16.9228813659468
30
0
0
VERTEX
8
0
10
17.4605128205128
20
16.686838788506
30
0
0
VERTEX
8
0
10
18.3794871794872
20
16.4507962110651
30
0
0
VERTEX
8
0
10
19.2984615384615
20
16.2676424598647
30
0
0
VERTEX
8
0
10
20.2174358974359
20
16.07713944123
30
0
0
VERTEX
8
0
10
21.1364102564103
20
15.8866364225953
30
0
0
VERTEX
8
0
10
22.0553846153846
20
15.6766018982519
30
0
0
VERTEX
8
0
10
22.974358974359
20
15.4709196343681
30
0
0
VERTEX
8
0
10
23.8933333333333
20
15.2652373704844
30
0
0
VERTEX
8
0
10
24.8123076923077
20
15.0970657616796
30
0
0
VERTEX
8
0
10
25.7312820512821
20
14.9179467782174
30
0
0
VERTEX
8
0
10
26.6502564102564
20
14.7449456599516
30
0
0
VERTEX
8
0
10
27.5692307692308
20
14.5772103698811
30
0
0
VERTEX
8
0
10
28.4882051282051
20
14.4094750798107
30
0
0
VERTEX
8
0
10
29.4071794871795
20
14.2492833051695
30
0
0
VERTEX
8
0
10
30.3261538461539
20
14.0929313667254
30
0
0
VERTEX
8
0
10
31.2451282051282
20
13.9365794282812
30
0
0
VERTEX
8
0
10
32.1641025641026
20
13.7891960786732
30
0
0
VERTEX
8
0
10
33.0830769230769
20
13.6442271501053
30
0
0
VERTEX
8
0
10
34.0020512820513
20
13.4992582215374
30
0
0
VERTEX
8
0
10
34.9210256410257
20
13.3820034941967
30
0
0
VERTEX
8
0
10
35.84
20
13.2673875879714
30
0
0
VERTEX
8
0
10
36.7589743589744
20
13.1527716817461
30
0
0
VERTEX
8
0
10
37.6779487179487
20
13.0184623280646
30
0
0
VERTEX
8
0
10
38.5969230769231
20
12.8848760676384
30
0
0
VERTEX
8
0
10
39.5158974358974
20
12.7512898072122
30
0
0
VERTEX
8
0
10
40.4348717948718
20
12.6574236102475
30
0
0
VERTEX
8
0
10
41.3538461538461
20
12.5579833039923
30
0
0
VERTEX
8
0
10
42.2728205128205
20
12.4585429977371
30
0
0
VERTEX
8
0
10
43.1917948717949
20
12.3591026914819
30
0
0
VERTEX
8
0
10
44.1107692307692
20
12.2596623852267
30
0
0
VERTEX
8
0
10
45.0297435897436
20
12.1602220789715
30
0
0
VERTEX
8
0
10
45.9487179487179
20
12.0768662593642
30
0
0
VERTEX
8
0
10
46.8676923076923
20
11.988807254466
30
0
0
VERTEX
8
0
10
47.7866666666666
20
11.9048316969803
30
0
0
VERTEX
8
0
10
48.705641025641
20
11.8243600365093
30
0
0
VERTEX
8
0
10
49.6246153846154
20
11.7438883760383
30
0
0
VERTEX
8
0
10
50.5435897435897
20
11.6583854174484
30
0
0
VERTEX
8
0
10
51.4625641025641
20
11.5703264125502
30
0
0
VERTEX
8
0
10
52.3815384615384
20
11.482267407652
30
0
0
VERTEX
8
0
10
53.3005128205128
20
11.3971981012658
30
0
0
VERTEX
8
0
10
54.2194871794871
20
11.3129327875619
30
0
0
VERTEX
8
0
10
55.1384615384615
20
11.228667473858
30
0
0
VERTEX
8
0
10
56.0574358974358
20
11.1582565367968
30
0
0
VERTEX
8
0
10
56.9764102564102
20
11.0891656082618
30
0
0
VERTEX
8
0
10
57.8953846153846
20
11.0200746797268
30
0
0
VERTEX
8
0
10
58.8143589743589
20
10.9431091373479
30
0
0
VERTEX
8
0
10
59.7333333333333
20
10.866431092149
30
0
0
VERTEX
8
0
10
60.6523076923076
20
10.7897530469501
30
0
0
VERTEX
8
0
10
61.571282051282
20
10.7174861873004
30
0
0
VERTEX
8
0
10
62.4902564102563
20
10.6446017194133
30
0
0
VERTEX
8
0
10
63.4092307692307
20
10.5717172515262
30
0
0
VERTEX
8
0
10
64.328205128205
20
10.5183722544722
30
0
0
VERTEX
8
0
10
65.2471794871794
20
10.4606617162412
30
0
0
VERTEX
8
0
10
66.1661538461537
20
10.4029511780102
30
0
0
VERTEX
8
0
10
67.0851282051281
20
10.3238068720066
30
0
0
VERTEX
8
0
10
68.0041025641025
20
10.2509224041195
30
0
0
VERTEX
8
0
10
68.9230769230768
20
10.1882316454109
30
0
0
VERTEX
8
0
10
69.8420512820512
20
10.1343144946989
30
0
0
VERTEX
8
0
10
70.7610256410255
20
10.080397343987
30
0
0
VERTEX
8
0
10
71.6799999999999
20
10.0289923769952
30
0
0
VERTEX
8
0
10
72.5989743589742
20
9.97886857584556
30
0
0
VERTEX
8
0
10
73.5179487179486
20
9.92874477469587
30
0
0
VERTEX
8
0
10
74.436923076923
20
9.86070673198914
30
0
0
VERTEX
8
0
10
75.3558974358973
20
9.78782226410202
30
0
0
VERTEX
8
0
10
76.2748717948717
20
9.71493779621491
30
0
0
VERTEX
8
0
10
77.193846153846
20
9.68010681802591
30
0
0
VERTEX
8
0
10
78.1128205128204
20
9.64894919535476
30
0
0
VERTEX
8
0
10
79.0317948717947
20
9.61779157268361
30
0
0
VERTEX
8
0
10
79.9507692307691
20
9.55910641401608
30
0
0
VERTEX
8
0
10
80.8697435897435
20
9.50139587578507
30
0
0
VERTEX
8
0
10
81.7887179487178
20
9.44368533755406
30
0
0
VERTEX
8
0
10
82.7076923076922
20
9.43444041591865
30
0
0
VERTEX
8
0
10
83.6266666666665
20
9.41845505286534
30
0
0
VERTEX
8
0
10
84.5456410256409
20
9.40246968981202
30
0
0
VERTEX
8
0
10
85.4646153846152
20
9.32305794478694
30
0
0
VERTEX
8
0
10
86.3835897435896
20
9.25776051764498
30
0
0
VERTEX
8
0
10
87.3025641025639
20
9.19246309050301
30
0
0
VERTEX
8
0
10
88.2215384615383
20
9.19674952866464
30
0
0
VERTEX
8
0
10
89.1405128205126
20
9.18076416561133
30
0
0
VERTEX
8
0
10
90.059487179487
20
9.13835873939071
30
0
0
VERTEX
8
0
10
90.9784615384614
20
9.07306131224875
30
0
0
VERTEX
8
0
10
91.8974358974357
20
9.00776388510679
30
0
0
VERTEX
8
0
10
92.8164102564101
20
8.97504400446395
30
0
0
VERTEX
8
0
10
93.7353846153844
20
8.95905864141064
30
0
0
VERTEX
8
0
10
94.6543589743588
20
8.94307327835734
30
0
0
VERTEX
8
0
10
95.5733333333331
20
8.88836210685254
30
0
0
VERTEX
8
0
10
96.4923076923075
20
8.82306467971057
30
0
0
VERTEX
8
0
10
97.4112820512818
20
8.75776725256859
30
0
0
VERTEX
8
0
10
98.3302564102562
20
8.73735311720994
30
0
0
VERTEX
8
0
10
99.2492307692306
20
8.72136775415663
30
0
0
VERTEX
8
0
10
100.168205128205
20
8.70538239110332
30
0
0
VERTEX
8
0
10
101.087179487179
20
8.63836547431434
30
0
0
VERTEX
8
0
10
102.006153846154
20
8.57306804717238
30
0
0
VERTEX
8
0
10
102.925128205128
20
8.50777062003042
30
0
0
VERTEX
8
0
10
103.844102564102
20
8.49966222995594
30
0
0
VERTEX
8
0
10
104.763076923077
20
8.48367686690263
30
0
0
VERTEX
8
0
10
105.682051282051
20
8.46769150384931
30
0
0
VERTEX
8
0
10
106.601025641025
20
8.42247456499337
30
0
0
VERTEX
8
0
10
107.52
20
8.38373058479506
30
0
0
VERTEX
8
0
10
108.438974358974
20
8.34498660459674
30
0
0
VERTEX
8
0
10
109.357948717948
20
8.29555182984794
30
0
0
VERTEX
8
0
10
110.276923076923
20
8.24922134030421
30
0
0
VERTEX
8
0
10
111.195897435897
20
8.22314528722942
30
0
0
VERTEX
8
0
10
112.114871794872
20
8.2147458262759
30
0
0
VERTEX
8
0
10
113.033846153846
20
8.20634636532238
30
0
0
VERTEX
8
0
10
113.95282051282
20
8.16297054781112
30
0
0
VERTEX
8
0
10
114.871794871795
20
8.10146658410362
30
0
0
VERTEX
8
0
10
115.790769230769
20
8.03996262039612
30
0
0
VERTEX
8
0
10
116.709743589743
20
8.01412183840811
30
0
0
VERTEX
8
0
10
117.628717948718
20
7.9981364753548
30
0
0
VERTEX
8
0
10
118.547692307692
20
7.98215111230149
30
0
0
VERTEX
8
0
10
119.466666666666
20
7.96616574924818
30
0
0
VERTEX
8
0
10
120.385641025641
20
7.95018038619487
30
0
0
VERTEX
8
0
10
121.304615384615
20
7.93419502314156
30
0
0
VERTEX
8
0
10
122.223589743589
20
7.87511392685077
30
0
0
VERTEX
8
0
10
123.142564102564
20
7.81740338861975
30
0
0
VERTEX
8
0
10
124.061538461538
20
7.75969285038874
30
0
0
VERTEX
8
0
10
124.980512820513
20
7.75467804006225
30
0
0
VERTEX
8
0
10
125.899487179487
20
7.74248564703412
30
0
0
VERTEX
8
0
10
126.818461538461
20
7.73029325400599
30
0
0
VERTEX
8
0
10
127.737435897436
20
7.72296473685529
30
0
0
VERTEX
8
0
10
128.65641025641
20
7.71456527590177
30
0
0
VERTEX
8
0
10
129.575384615384
20
7.70616581494825
30
0
0
VERTEX
8
0
10
130.494358974359
20
7.63372276410042
30
0
0
VERTEX
8
0
10
131.413333333333
20
7.57980561338848
30
0
0
VERTEX
8
0
10
132.332307692307
20
7.54202720193369
30
0
0
VERTEX
8
0
10
133.251282051282
20
7.51845578497603
30
0
0
VERTEX
8
0
10
134.170256410256
20
7.49488436801837
30
0
0
VERTEX
8
0
10
135.08923076923
20
7.48625425890697
30
0
0
VERTEX
8
0
10
136.008205128205
20
7.48544054825322
30
0
0
VERTEX
8
0
10
136.927179487179
20
7.48462683759947
30
0
0
VERTEX
8
0
10
137.846153846153
20
7.47492453794001
30
0
0
VERTEX
8
0
10
138.765128205128
20
7.46273214491188
30
0
0
VERTEX
8
0
10
139.684102564102
20
7.45053975188375
30
0
0
VERTEX
8
0
10
140.603076923077
20
7.41086017358904
30
0
0
VERTEX
8
0
10
141.522051282051
20
7.36832295769559
30
0
0
VERTEX
8
0
10
142.441025641025
20
7.32578574180213
30
0
0
VERTEX
8
0
10
143.36
20
7.29497643954926
30
0
0
VERTEX
8
0
10
144.278974358974
20
7.2638188168781
30
0
0
VERTEX
8
0
10
145.197948717948
20
7.23266119420695
30
0
0
VERTEX
8
0
10
146.116923076923
20
7.23656133258389
30
0
0
VERTEX
8
0
10
147.035897435897
20
7.23574762193014
30
0
0
VERTEX
8
0
10
147.954871794871
20
7.23493391127639
30
0
0
VERTEX
8
0
10
148.873846153846
20
7.22926545628083
30
0
0
VERTEX
8
0
10
149.79282051282
20
7.22465888945191
30
0
0
VERTEX
8
0
10
150.711794871795
20
7.22005232262299
30
0
0
VERTEX
8
0
10
151.630769230769
20
7.16749606785864
30
0
0
VERTEX
8
0
10
152.549743589743
20
7.12875208766032
30
0
0
VERTEX
8
0
10
153.468717948718
20
7.08800006289459
30
0
0
VERTEX
8
0
10
154.387692307692
20
7.04546284700114
30
0
0
VERTEX
8
0
10
155.306666666666
20
7.00292563110768
30
0
0
VERTEX
8
0
10
156.225641025641
20
6.98768211691458
30
0
0
VERTEX
8
0
10
157.144615384615
20
6.98686840626083
30
0
0
VERTEX
8
0
10
158.063589743589
20
6.98605469560708
30
0
0
VERTEX
8
0
10
158.982564102564
20
6.98524098495333
30
0
0
VERTEX
8
0
10
159.901538461538
20
6.98442727429957
30
0
0
VERTEX
8
0
10
160.820512820513
20
6.98361356364582
30
0
0
VERTEX
8
0
10
161.739487179487
20
6.95538707843409
30
0
0
VERTEX
8
0
10
162.658461538461
20
6.92422945576294
30
0
0
VERTEX
8
0
10
163.577435897436
20
6.89307183309179
30
0
0
VERTEX
8
0
10
164.49641025641
20
6.84631436379687
30
0
0
VERTEX
8
0
10
165.415384615384
20
6.79998387425314
30
0
0
VERTEX
8
0
10
166.334358974359
20
6.7536533847094
30
0
0
VERTEX
8
0
10
167.253333333333
20
6.75105497273501
30
0
0
VERTEX
8
0
10
168.172307692308
20
6.74265551178149
30
0
0
VERTEX
8
0
10
169.091282051282
20
6.73425605082797
30
0
0
VERTEX
8
0
10
170.010256410256
20
6.73554805863025
30
0
0
VERTEX
8
0
10
170.929230769231
20
6.73473434797649
30
0
0
VERTEX
8
0
10
171.848205128205
20
6.73392063732274
30
0
0
SEQEND
8
0
0
POLYLINE
8
0
62
3
70
0
10
0
20
0
30
0
0
VERTEX
8
0
10
1.83794871794872
20
21.2541506318978
30
0
0
VERTEX
8
0
10
2.75692307692308
20
24.8525347944025
30
0
0
VERTEX
8
0
10
3.67589743589744
20
28.2552549686064
30
0
0
VERTEX
8
0
10
4.59487179487179
20
31.0150380590747
30
0
0
VERTEX
8
0
10
5.51384615384615
20
33.3989632406021
30
0
0
VERTEX
8
0
10
6.43282051282051
20
35.6418419639385
30
0
0
VERTEX
8
0
10
7.35179487179487
20
37.7380272544136
30
0
0
VERTEX
8
0
10
8.27076923076923
20
39.6744055441205
30
0
0
VERTEX
8
0
10
9.18974358974359
20
41.5242663577799
30
0
0
VERTEX
8
0
10
10.1087179487179
20
43.1494508155892
30
0
0
VERTEX
8
0
10
11.0276923076923
20
44.8109291473775
30
0
0
VERTEX
8
0
10
11.9466666666667
20
46.2657601311783
30
0
0
VERTEX
8
0
10
12.865641025641
20
47.6769706672933
30
0
0
VERTEX
8
0
10
13.7846153846154
20
49.0297745160533
30
0
0
VERTEX
8
0
10
14.7035897435897
20
50.2918625280891
30
0
0
VERTEX
8
0
10
15.6225641025641
20
51.5136461132517
30
0
0
VERTEX
8
0
10
16.5415384615385
20
52.7354296984143
30
0
0
VERTEX
8
0
10
17.4605128205128
20
53.7520187134646
30
0
0
VERTEX
8
0
10
18.3794871794872
20
54.8339200526494
30
0
0
VERTEX
8
0
10
19.2984615384615
20
55.7842470217376
30
0
0
VERTEX
8
0
10
20.2174358974359
20
56.7318994707679
30
0
0
VERTEX
8
0
10
21.1364102564103
20
57.6795519197983
30
0
0
VERTEX
8
0
10
22.0553846153846
20
58.4995657173911
30
0
0
VERTEX
8
0
10
22.974358974359
20
59.3436121744283
30
0
0
VERTEX
8
0
10
23.8933333333333
20
60.1876586314655
30
0
0
VERTEX
8
0
10
24.8123076923077
20
60.8575374823197
30
0
0
VERTEX
8
0
10
25.7312820512821
20
61.5728928571429
30
0
0
VERTEX
8
0
10
26.6502564102564
20
62.2882482319661
30
0
0
VERTEX
8
0
10
27.5692307692308
20
62.8639627147256
30
0
0
VERTEX
8
0
10
28.4882051282051
20
63.4846643870074
30
0
0
VERTEX
8
0
10
29.4071794871795
20
64.0306852952982
30
0
0
VERTEX
8
0
10
30.3261538461539
20
64.5264078509543
30
0
0
VERTEX
8
0
10
31.2451282051282
20
65.0221304066104
30
0
0
VERTEX
8
0
10
32.1641025641026
20
65.4550938023214
30
0
0
VERTEX
8
0
10
33.0830769230769
20
65.8636853110715
30
0
0
VERTEX
8
0
10
34.0020512820513
20
66.2722768198214
30
0
0
VERTEX
8
0
10
34.9210256410257
20
66.623348617447
30
0
0
VERTEX
8
0
10
35.84
20
66.9637366311183
30
0
0
VERTEX
8
0
10
36.7589743589744
20
67.3041246447895
30
0
0
VERTEX
8
0
10
37.6779487179487
20
67.5895609682741
30
0
0
VERTEX
8
0
10
38.5969230769231
20
67.8731033565181
30
0
0
VERTEX
8
0
10
39.5158974358974
20
68.1566457447622
30
0
0
VERTEX
8
0
10
40.4348717948718
20
68.3947341518706
30
0
0
VERTEX
8
0
10
41.3538461538461
20
68.6365843276592
30
0
0
VERTEX
8
0
10
42.2728205128205
20
68.8784345034479
30
0
0
VERTEX
8
0
10
43.1917948717949
20
69.0926761067053
30
0
0
VERTEX
8
0
10
44.1107692307692
20
69.3117831422141
30
0
0
VERTEX
8
0
10
45.0297435897436
20
69.530890177723
30
0
0
VERTEX
8
0
10
45.9487179487179
20
69.7246425522376
30
0
0
VERTEX
8
0
10
46.8676923076923
20
69.924795928166
30
0
0
VERTEX
8
0
10
47.7866666666666
20
70.1249493040944
30
0
0
VERTEX
8
0
10
48.705641025641
20
70.3140213818081
30
0
0
VERTEX
8
0
10
49.6246153846154
20
70.5065930284774
30
0
0
VERTEX
8
0
10
50.5435897435897
20
70.6902866770794
30
0
0
VERTEX
8
0
10
51.4625641025641
20
70.867694410188
30
0
0
VERTEX
8
0
10
52.3815384615384
20
71.0451021432966
30
0
0
VERTEX
8
0
10
53.3005128205128
20
71.2305780572795
30
0
0
VERTEX
8
0
10
54.2194871794871
20
71.4193587824398
30
0
0
VERTEX
8
0
10
55.1384615384615
20
71.6081395076001
30
0
0
VERTEX
8
0
10
56.0574358974358
20
71.819032918037
30
0
0
VERTEX
8
0
10
56.9764102564102
20
72.0343492974637
30
0
0
VERTEX
8
0
10
57.8953846153846
20
72.2496656768905
30
0
0
VERTEX
8
0
10
58.8143589743589
20
72.4504691970649
30
0
0
VERTEX
8
0
10
59.7333333333333
20
72.6506225729933
30
0
0
VERTEX
8
0
10
60.6523076923076
20
72.8507759489217
30
0
0
VERTEX
8
0
10
61.571282051282
20
73.0632226066277
30
0
0
VERTEX
8
0
10
62.4902564102563
20
73.2747482920559
30
0
0
VERTEX
8
0
10
63.4092307692307
20
73.4862739774841
30
0
0
VERTEX
8
0
10
64.328205128205
20
73.7160675219195
30
0
0
VERTEX
8
0
10
65.2471794871794
20
73.9427557558457
30
0
0
VERTEX
8
0
10
66.1661538461537
20
74.1694439897718
30
0
0
VERTEX
8
0
10
67.0851282051281
20
74.406204109981
30
0
0
VERTEX
8
0
10
68.0041025641025
20
74.6404733906656
30
0
0
VERTEX
8
0
10
68.9230769230768
20
74.8747426713501
30
0
0
VERTEX
8
0
10
69.8420512820512
20
75.1200216308302
30
0
0
VERTEX
8
0
10
70.7610256410255
20
75.3618718066189
30
0
0
VERTEX
8
0
10
71.6799999999999
20
75.5993554228187
30
0
0
VERTEX
8
0
10
72.5989743589742
20
75.8336247035032
30
0
0
VERTEX
8
0
10
73.5179487179486
20
76.0678939841878
30
0
0
VERTEX
8
0
10
74.436923076923
20
76.2942062355277
30
0
0
VERTEX
8
0
10
75.3558974358973
20
76.5171038892028
30
0
0
VERTEX
8
0
10
76.2748717948717
20
76.740001542878
30
0
0
VERTEX
8
0
10
77.193846153846
20
76.9098281261388
30
0
0
VERTEX
8
0
10
78.1128205128204
20
77.0682801140448
30
0
0
VERTEX
8
0
10
79.0317948717947
20
77.2267321019508
30
0
0
VERTEX
8
0
10
79.9507692307691
20
77.3600372539548
30
0
0
VERTEX
8
0
10
80.8697435897435
20
77.4919496057132
30
0
0
VERTEX
8
0
10
81.7887179487178
20
77.6238619574716
30
0
0
VERTEX
8
0
10
82.7076923076922
20
77.7476479642366
30
0
0
VERTEX
8
0
10
83.6266666666665
20
77.871977221458
30
0
0
VERTEX
8
0
10
84.5456410256409
20
77.9963064786795
30
0
0
VERTEX
8
0
10
85.4646153846152
20
78.1387711033845
30
0
0
VERTEX
8
0
10
86.3835897435896
20
78.2782663979641
30
0
0
VERTEX
8
0
10
87.3025641025639
20
78.4177616925437
30
0
0
VERTEX
8
0
10
88.2215384615383
20
78.5272306843492
30
0
0
VERTEX
8
0
10
89.1405128205126
20
78.6439766953134
30
0
0
VERTEX
8
0
10
90.059487179487
20
78.7607227062776
30
0
0
VERTEX
8
0
10
90.9784615384614
20
78.7460440140128
30
0
0
VERTEX
8
0
10
91.8974358974357
20
78.7717792340489
30
0
0
VERTEX
8
0
10
92.8164102564101
20
78.7824192969561
30
0
0
VERTEX
8
0
10
93.7353846153844
20
78.7816055863023
30
0
0
VERTEX
8
0
10
94.6543589743588
20
78.7807918756486
30
0
0
VERTEX
8
0
10
95.5733333333331
20
78.7799781649948
30
0
0
VERTEX
8
0
10
96.4923076923075
20
78.7791644543411
30
0
0
VERTEX
8
0
10
97.4112820512818
20
78.7783507436873
30
0
0
VERTEX
8
0
10
98.3302564102562
20
78.7775370330336
30
0
0
VERTEX
8
0
10
99.2492307692306
20
78.7767233223798
30
0
0
VERTEX
8
0
10
100.168205128205
20
78.7759096117261
30
0
0
VERTEX
8
0
10
101.087179487179
20
78.7750959010723
30
0
0
VERTEX
8
0
10
102.006153846154
20
78.7742821904185
30
0
0
VERTEX
8
0
10
102.925128205128
20
78.7734684797648
30
0
0
VERTEX
8
0
10
103.844102564102
20
78.772654769111
30
0
0
VERTEX
8
0
10
104.763076923077
20
78.7718410584573
30
0
0
VERTEX
8
0
10
105.682051282051
20
78.7710273478035
30
0
0
VERTEX
8
0
10
106.601025641025
20
78.7702136371498
30
0
0
VERTEX
8
0
10
107.52
20
78.769399926496
30
0
0
VERTEX
8
0
10
108.438974358974
20
78.7685862158423
30
0
0
VERTEX
8
0
10
109.357948717948
20
78.7677725051885
30
0
0
VERTEX
8
0
10
110.276923076923
20
78.7669587945348
30
0
0
VERTEX
8
0
10
111.195897435897
20
78.766145083881
30
0
0
VERTEX
8
0
10
112.114871794872
20
78.7653313732273
30
0
0
VERTEX
8
0
10
113.033846153846
20
78.7645176625735
30
0
0
VERTEX
8
0
10
113.95282051282
20
78.7637039519198
30
0
0
VERTEX
8
0
10
114.871794871795
20
78.762890241266
30
0
0
VERTEX
8
0
10
115.790769230769
20
78.7620765306123
30
0
0
VERTEX
8
0
10
116.709743589743
20
78.7612628199585
30
0
0
VERTEX
8
0
10
117.628717948718
20
78.7604491093048
30
0
0
VERTEX
8
0
10
118.547692307692
20
78.759635398651
30
0
0
VERTEX
8
0
10
119.466666666666
20
78.7588216879973
30
0
0
VERTEX
8
0
10
120.385641025641
20
78.7580079773435
30
0
0
VERTEX
8
0
10
121.304615384615
20
78.7571942666898
30
0
0
VERTEX
8
0
10
122.223589743589
20
78.756380556036
30
0
0
VERTEX
8
0
10
123.142564102564
20
78.7555668453822
30
0
0
VERTEX
8
0
10
124.061538461538
20
78.7547531347285
30
0
0
VERTEX
8
0
10
124.980512820513
20
78.7539394240747
30
0
0
VERTEX
8
0
10
125.899487179487
20
78.753125713421
30
0
0
VERTEX
8
0
10
126.818461538461
20
78.7523120027672
30
0
0
VERTEX
8
0
10
127.737435897436
20
78.7469898012274
30
0
0
VERTEX
8
0
10
128.65641025641
20
78.7423832343985
30
0
0
VERTEX
8
0
10
129.575384615384
20
78.7377766675696
30
0
0
VERTEX
8
0
10
130.494358974359
20
78.743132497136
30
0
0
VERTEX
8
0
10
131.413333333333
20
78.7461116047085
30
0
0
VERTEX
8
0
10
132.332307692307
20
78.7490907122811
30
0
0
VERTEX
8
0
10
133.251282051282
20
78.7357082811618
30
0
0
VERTEX
8
0
10
134.170256410256
20
78.7273088202083
30
0
0
VERTEX
8
0
10
135.08923076923
20
78.6847656843455
30
0
0
VERTEX
8
0
10
136.008205128205
20
78.6156747558105
30
0
0
VERTEX
8
0
10
136.927179487179
20
78.5465838272755
30
0
0
VERTEX
8
0
10
137.846153846153
20
78.508785738228
30
0
0
VERTEX
8
0
10
138.765128205128
20
78.4852143212703
30
0
0
VERTEX
8
0
10
139.684102564102
20
78.4616429043126
30
0
0
VERTEX
8
0
10
140.603076923077
20
78.4011019343973
30
0
0
VERTEX
8
0
10
141.522051282051
20
78.3320110058623
30
0
0
VERTEX
8
0
10
142.441025641025
20
78.2629200773273
30
0
0
VERTEX
8
0
10
143.36
20
78.2258202217941
30
0
0
VERTEX
8
0
10
144.278974358974
20
78.1908694393363
30
0
0
VERTEX
8
0
10
145.197948717948
20
78.1559186568786
30
0
0
VERTEX
8
0
10
146.116923076923
20
78.1048571017609
30
0
0
VERTEX
8
0
10
147.035897435897
20
78.0547333006112
30
0
0
VERTEX
8
0
10
147.954871794871
20
78.0046094994615
30
0
0
VERTEX
8
0
10
148.873846153846
20
77.9319790357211
30
0
0
VERTEX
8
0
10
149.79282051282
20
77.8628881071862
30
0
0
VERTEX
8
0
10
150.711794871795
20
77.7937971786512
30
0
0
VERTEX
8
0
10
151.630769230769
20
77.7694809241978
30
0
0
VERTEX
8
0
10
152.549743589743
20
77.7345301417401
30
0
0
VERTEX
8
0
10
153.468717948718
20
77.6995793592824
30
0
0
VERTEX
8
0
10
154.387692307692
20
77.6210432425624
30
0
0
VERTEX
8
0
10
155.306666666666
20
77.5557458154204
30
0
0
VERTEX
8
0
10
156.225641025641
20
77.4968340498419
30
0
0
VERTEX
8
0
10
157.144615384615
20
77.4429168991299
30
0
0
VERTEX
8
0
10
158.063589743589
20
77.388999748418
30
0
0
VERTEX
8
0
10
158.982564102564
20
77.3506942932258
30
0
0
VERTEX
8
0
10
159.901538461538
20
77.3195366705547
30
0
0
VERTEX
8
0
10
160.820512820513
20
77.2883790478835
30
0
0
VERTEX
8
0
10
161.739487179487
20
77.2356955257841
30
0
0
VERTEX
8
0
10
162.658461538461
20
77.1779849875531
30
0
0
VERTEX
8
0
10
163.577435897436
20
77.1202744493221
30
0
0
VERTEX
8
0
10
164.49641025641
20
77.0909531823656
30
0
0
VERTEX
8
0
10
165.415384615384
20
77.0635886815276
30
0
0
VERTEX
8
0
10
166.334358974359
20
77.0362241806896
30
0
0
VERTEX
8
0
10
167.253333333333
20
76.9887511406844
30
0
0
VERTEX
8
0
10
168.172307692308
20
76.9424206511407
30
0
0
VERTEX
8
0
10
169.091282051282
20
76.896090161597
30
0
0
VERTEX
8
0
10
170.010256410256
20
76.8587499726625
30
0
0
VERTEX
8
0
10
170.929230769231
20
76.8200059924641
30
0
0
VERTEX
8
0
10
171.848205128205
20
76.7812620122658
30
0
0
SEQEND
8
0
0
POLYLINE
8
0
62
1
70
0
10
0
20
0
30
0
0
VERTEX
8
0
10
1.83794871794872
20
19.1995741592945
30
0
0
VERTEX
8
0
10
2.75692307692308
20
21.549675853439
30
0
0
VERTEX
8
0
10
3.67589743589744
20
23.8392371255315
30
0
0
VERTEX
8
0
10
4.59487179487179
20
26.4394179234971
30
0
0
VERTEX
8
0
10
5.51384615384615
20
28.6090808180034
30
0
0
VERTEX
8
0
10
6.43282051282051
20
30.6178905564234
30
0
0
VERTEX
8
0
10
7.35179487179487
20
32.149651933806
30
0
0
VERTEX
8
0
10
8.27076923076923
20
33.5441757011972
30
0
0
VERTEX
8
0
10
9.18974358974359
20
34.9540446568978
30
0
0
VERTEX
8
0
10
10.1087179487179
20
36.3849003047186
30
0
0
VERTEX
8
0
10
11.0276923076923
20
37.5173500828581
30
0
0
VERTEX
8
0
10
11.9466666666667
20
38.7235092073637
30
0
0
VERTEX
8
0
10
12.865641025641
20
39.7428062142922
30
0
0
VERTEX
8
0
10
13.7846153846154
20
40.8645489977791
30
0
0
VERTEX
8
0
10
14.7035897435897
20
41.5969629124486
30
0
0
VERTEX
8
0
10
15.6225641025641
20
42.4551017821046
30
0
0
VERTEX
8
0
10
16.5415384615385
20
43.207248854305
30
0
0
VERTEX
8
0
10
17.4605128205128
20
43.9280403170059
30
0
0
VERTEX
8
0
10
18.3794871794872
20
44.6622289264228
30
0
0
VERTEX
8
0
10
19.2984615384615
20
45.3038797676845
30
0
0
VERTEX
8
0
10
20.2174358974359
20
45.9369808569878
30
0
0
VERTEX
8
0
10
21.1364102564103
20
46.5840161552913
30
0
0
VERTEX
8
0
10
22.0553846153846
20
47.0630849788476
30
0
0
VERTEX
8
0
10
22.974358974359
20
47.5548621974627
30
0
0
VERTEX
8
0
10
23.8933333333333
20
48.0586235475846
30
0
0
VERTEX
8
0
10
24.8123076923077
20
48.4086856550919
30
0
0
VERTEX
8
0
10
25.7312820512821
20
48.7858599903679
30
0
0
VERTEX
8
0
10
26.6502564102564
20
49.1756595198841
30
0
0
VERTEX
8
0
10
27.5692307692308
20
49.451931800796
30
0
0
VERTEX
8
0
10
28.4882051282051
20
49.7411008711055
30
0
0
VERTEX
8
0
10
29.4071794871795
20
50.0390895705576
30
0
0
VERTEX
8
0
10
30.3261538461539
20
50.1373151534592
30
0
0
VERTEX
8
0
10
31.2451282051282
20
50.286729065225
30
0
0
VERTEX
8
0
10
32.1641025641026
20
50.4431796641434
30
0
0
VERTEX
8
0
10
33.0830769230769
20
50.4388239427489
30
0
0
VERTEX
8
0
10
34.0020512820513
20
50.4905413845331
30
0
0
VERTEX
8
0
10
34.9210256410257
20
50.5285578857125
30
0
0
VERTEX
8
0
10
35.84
20
50.4910043107895
30
0
0
VERTEX
8
0
10
36.7589743589744
20
50.4726596663764
30
0
0
VERTEX
8
0
10
37.6779487179487
20
50.4137246105862
30
0
0
VERTEX
8
0
10
38.5969230769231
20
50.3380975408541
30
0
0
VERTEX
8
0
10
39.5158974358974
20
50.2641738292208
30
0
0
VERTEX
8
0
10
40.4348717948718
20
50.1573512506982
30
0
0
VERTEX
8
0
10
41.3538461538461
20
50.0396105763424
30
0
0
VERTEX
8
0
10
42.2728205128205
20
49.9234706030827
30
0
0
VERTEX
8
0
10
43.1917948717949
20
49.7976066197262
30
0
0
VERTEX
8
0
10
44.1107692307692
20
49.6737646229171
30
0
0
VERTEX
8
0
10
45.0297435897436
20
49.5516720511969
30
0
0
VERTEX
8
0
10
45.9487179487179
20
49.4416530288799
30
0
0
VERTEX
8
0
10
46.8676923076923
20
49.3315879794097
30
0
0
VERTEX
8
0
10
47.7866666666666
20
49.2243904708084
30
0
0
VERTEX
8
0
10
48.705641025641
20
49.0883564578064
30
0
0
VERTEX
8
0
10
49.6246153846154
20
48.9604064283086
30
0
0
VERTEX
8
0
10
50.5435897435897
20
48.833334219772
30
0
0
VERTEX
8
0
10
51.4625641025641
20
48.7358336365975
30
0
0
VERTEX
8
0
10
52.3815384615384
20
48.6380067199787
30
0
0
VERTEX
8
0
10
53.3005128205128
20
48.5436069963523
30
0
0
VERTEX
8
0
10
54.2194871794871
20
48.449549897705
30
0
0
VERTEX
8
0
10
55.1384615384615
20
48.3605394097167
30
0
0
VERTEX
8
0
10
56.0574358974358
20
48.275920171946
30
0
0
VERTEX
8
0
10
56.9764102564102
20
48.1964073005656
30
0
0
VERTEX
8
0
10
57.8953846153846
20
48.1197672060544
30
0
0
VERTEX
8
0
10
58.8143589743589
20
48.0467182600096
30
0
0
VERTEX
8
0
10
59.7333333333333
20
48.0146024990719
30
0
0
VERTEX
8
0
10
60.6523076923076
20
47.979519566118
30
0
0
VERTEX
8
0
10
61.571282051282
20
47.951877142722
30
0
0
VERTEX
8
0
10
62.4902564102563
20
47.8964884426254
30
0
0
VERTEX
8
0
10
63.4092307692307
20
47.8526956121528
30
0
0
VERTEX
8
0
10
64.328205128205
20
47.8336809545145
30
0
0
VERTEX
8
0
10
65.2471794871794
20
47.8339637836771
30
0
0
VERTEX
8
0
10
66.1661538461537
20
47.8321193906947
30
0
0
VERTEX
8
0
10
67.0851282051281
20
47.8236174559525
30
0
0
VERTEX
8
0
10
68.0041025641025
20
47.8193678736374
30
0
0
VERTEX
8
0
10
68.9230769230768
20
47.8206411350489
30
0
0
VERTEX
8
0
10
69.8420512820512
20
47.8305307839441
30
0
0
VERTEX
8
0
10
70.7610256410255
20
47.8698760022184
30
0
0
VERTEX
8
0
10
71.6799999999999
20
47.905604746528
30
0
0
VERTEX
8
0
10
72.5989743589742
20
47.9286032104116
30
0
0
VERTEX
8
0
10
73.5179487179486
20
47.9431395877387
30
0
0
VERTEX
8
0
10
74.436923076923
20
47.9570655645897
30
0
0
VERTEX
8
0
10
75.3558974358973
20
47.9565844541926
30
0
0
VERTEX
8
0
10
76.2748717948717
20
47.9595161003469
30
0
0
VERTEX
8
0
10
77.193846153846
20
47.9873406268692
30
0
0
VERTEX
8
0
10
78.1128205128204
20
47.9530957445664
30
0
0
VERTEX
8
0
10
79.0317948717947
20
47.8648922390329
30
0
0
VERTEX
8
0
10
79.9507692307691
20
47.7739264859952
30
0
0
VERTEX
8
0
10
80.8697435897435
20
47.6893113099631
30
0
0
VERTEX
8
0
10
81.7887179487178
20
47.6076142666503
30
0
0
VERTEX
8
0
10
82.7076923076922
20
47.5364312531305
30
0
0
VERTEX
8
0
10
83.6266666666665
20
47.4745101835614
30
0
0
VERTEX
8
0
10
84.5456410256409
20
47.4146833452287
30
0
0
VERTEX
8
0
10
85.4646153846152
20
47.3433088737773
30
0
0
VERTEX
8
0
10
86.3835897435896
20
47.2694082321393
30
0
0
VERTEX
8
0
10
87.3025641025639
20
47.196139322332
30
0
0
VERTEX
8
0
10
88.2215384615383
20
47.1373939371789
30
0
0
VERTEX
8
0
10
89.1405128205126
20
47.0407908212561
30
0
0
VERTEX
8
0
10
90.059487179487
20
46.9420282709849
30
0
0
VERTEX
8
0
10
90.9784615384614
20
46.8576964833661
30
0
0
VERTEX
8
0
10
91.8974358974357
20
46.6519626308841
30
0
0
VERTEX
8
0
10
92.8164102564101
20
46.4490527897591
30
0
0
VERTEX
8
0
10
93.7353846153844
20
46.2560877777311
30
0
0
VERTEX
8
0
10
94.6543589743588
20
46.0750917918014
30
0
0
VERTEX
8
0
10
95.5733333333331
20
45.8833573373283
30
0
0
VERTEX
8
0
10
96.4923076923075
20
45.6907460638366
30
0
0
VERTEX
8
0
10
97.4112820512818
20
45.4951654942465
30
0
0
VERTEX
8
0
10
98.3302564102562
20
45.3068158588695
30
0
0
VERTEX
8
0
10
99.2492307692306
20
45.1185016047199
30
0
0
VERTEX
8
0
10
100.168205128205
20
44.9336659167879
30
0
0
VERTEX
8
0
10
101.087179487179
20
44.7401398124887
30
0
0
VERTEX
8
0
10
102.006153846154
20
44.5476497397784
30
0
0
VERTEX
8
0
10
102.925128205128
20
44.3572017250728
30
0
0
VERTEX
8
0
10
103.844102564102
20
44.183457882688
30
0
0
VERTEX
8
0
10
104.763076923077
20
44.0078404356855
30
0
0
VERTEX
8
0
10
105.682051282051
20
43.8317287738067
30
0
0
VERTEX
8
0
10
106.601025641025
20
43.675995880098
30
0
0
VERTEX
8
0
10
107.52
20
43.5302125939963
30
0
0
VERTEX
8
0
10
108.438974358974
20
43.3907347666592
30
0
0
VERTEX
8
0
10
109.357948717948
20
43.2306891639199
30
0
0
VERTEX
8
0
10
110.276923076923
20
43.0688688361642
30
0
0
VERTEX
8
0
10
111.195897435897
20
42.9099274003079
30
0
0
VERTEX
8
0
10
112.114871794872
20
42.7720251667132
30
0
0
VERTEX
8
0
10
113.033846153846
20
42.611969793912
30
0
0
VERTEX
8
0
10
113.95282051282
20
42.4473353763144
30
0
0
VERTEX
8
0
10
114.871794871795
20
42.2599132878737
30
0
0
VERTEX
8
0
10
115.790769230769
20
42.0808739863536
30
0
0
VERTEX
8
0
10
116.709743589743
20
41.9094778839733
30
0
0
VERTEX
8
0
10
117.628717948718
20
41.7680229968532
30
0
0
VERTEX
8
0
10
118.547692307692
20
41.6277556892143
30
0
0
VERTEX
8
0
10
119.466666666666
20
41.4869372694119
30
0
0
VERTEX
8
0
10
120.385641025641
20
41.345262185313
30
0
0
VERTEX
8
0
10
121.304615384615
20
41.184772718122
30
0
0
VERTEX
8
0
10
122.223589743589
20
41.0183858884366
30
0
0
VERTEX
8
0
10
123.142564102564
20
40.8522856827732
30
0
0
VERTEX
8
0
10
124.061538461538
20
40.6989402360287
30
0
0
VERTEX
8
0
10
124.980512820513
20
40.5598992109499
30
0
0
VERTEX
8
0
10
125.899487179487
20
40.4203828913256
30
0
0
VERTEX
8
0
10
126.818461538461
20
40.2819693061765
30
0
0
VERTEX
8
0
10
127.737435897436
20
40.1396158286654
30
0
0
VERTEX
8
0
10
128.65641025641
20
39.9970721861863
30
0
0
VERTEX
8
0
10
129.575384615384
20
39.859931344301
30
0
0
VERTEX
8
0
10
130.494358974359
20
39.7147708402028
30
0
0
VERTEX
8
0
10
131.413333333333
20
39.5625646067798
30
0
0
VERTEX
8
0
10
132.332307692307
20
39.4051219299599
30
0
0
VERTEX
8
0
10
133.251282051282
20
39.2590743729513
30
0
0
VERTEX
8
0
10
134.170256410256
20
39.0884114233046
30
0
0
VERTEX
8
0
10
135.08923076923
20
38.915021525804
30
0
0
VERTEX
8
0
10
136.008205128205
20
38.7399879722871
30
0
0
VERTEX
8
0
10
136.927179487179
20
38.5658645528236
30
0
0
VERTEX
8
0
10
137.846153846153
20
38.4033414228615
30
0
0
VERTEX
8
0
10
138.765128205128
20
38.2435822358094
30
0
0
VERTEX
8
0
10
139.684102564102
20
38.0826537573828
30
0
0
VERTEX
8
0
10
140.603076923077
20
37.9169408820053
30
0
0
VERTEX
8
0
10
141.522051282051
20
37.75068339097
30
0
0
VERTEX
8
0
10
142.441025641025
20
37.5940987332117
30
0
0
VERTEX
8
0
10
143.36
20
37.4387698722602
30
0
0
VERTEX
8
0
10
144.278974358974
20
37.2827894536288
30
0
0
VERTEX
8
0
10
145.197948717948
20
37.1268116974835
30
0
0
VERTEX
8
0
10
146.116923076923
20
36.9629550033322
30
0
0
VERTEX
8
0
10
147.035897435897
20
36.8049567926761
30
0
0
VERTEX
8
0
10
147.954871794871
20
36.6516083641376
30
0
0
VERTEX
8
0
10
148.873846153846
20
36.5040248386625
30
0
0
VERTEX
8
0
10
149.79282051282
20
36.3566924577082
30
0
0
VERTEX
8
0
10
150.711794871795
20
36.2150448445616
30
0
0
VERTEX
8
0
10
151.630769230769
20
36.0634952972049
30
0
0
VERTEX
8
0
10
152.549743589743
20
35.9149972807938
30
0
0
VERTEX
8
0
10
153.468717948718
20
35.751058914984
30
0
0
VERTEX
8
0
10
154.387692307692
20
35.588030070698
30
0
0
VERTEX
8
0
10
155.306666666666
20
35.4238842782071
30
0
0
VERTEX
8
0
10
156.225641025641
20
35.2871020620577
30
0
0
VERTEX
8
0
10
157.144615384615
20
35.15592843641
30
0
0
VERTEX
8
0
10
158.063589743589
20
35.0247855660475
30
0
0
VERTEX
8
0
10
158.982564102564
20
34.8807014532142
30
0
0
VERTEX
8
0
10
159.901538461538
20
34.7373397405633
30
0
0
VERTEX
8
0
10
160.820512820513
20
34.5928643260603
30
0
0
VERTEX
8
0
10
161.739487179487
20
34.4611800271143
30
0
0
VERTEX
8
0
10
162.658461538461
20
34.3245217930045
30
0
0
VERTEX
8
0
10
163.577435897436
20
34.1878711678427
30
0
0
VERTEX
8
0
10
164.49641025641
20
34.0287080416032
30
0
0
VERTEX
8
0
10
165.415384615384
20
33.875153770391
30
0
0
VERTEX
8
0
10
166.334358974359
20
33.7216297978743
30
0
0
VERTEX
8
0
10
167.253333333333
20
33.61244167602
30
0
0
VERTEX
8
0
10
168.172307692308
20
33.500939932321
30
0
0
VERTEX
8
0
10
169.091282051282
20
33.3894498201851
30
0
0
VERTEX
8
0
10
170.010256410256
20
33.2726220750045
30
0
0
VERTEX
8
0
10
170.929230769231
20
33.1568745021945
30
0
0
VERTEX
8
0
10
171.848205128205
20
33.0596831730769
30
0
0
SEQEND
8
0
0
POLYLINE
8
0
62
2
70
0
10
0
20
0
30
0
0
VERTEX
8
0
10
1.83794871794872
20
18.7310893123226
30
0
0
VERTEX
8
0
10
2.75692307692308
20
21.5263096996184
30
0
0
VERTEX
8
0
10
3.67589743589744
20
23.840171848513
30
0
0
VERTEX
8
0
10
4.59487179487179
20
26.4352835020397
30
0
0
VERTEX
8
0
10
5.51384615384615
20
28.5841395918098
30
0
0
VERTEX
8
0
10
6.43282051282051
20
30.6153886965613
30
0
0
VERTEX
8
0
10
7.35179487179487
20
32.1680225013422
30
0
0
VERTEX
8
0
10
8.27076923076923
20
33.5433532709062
30
0
0
VERTEX
8
0
10
9.18974358974359
20
34.9532214447337
30
0
0
VERTEX
8
0
10
10.1087179487179
20
36.3991848463004
30
0
0
VERTEX
8
0
10
11.0276923076923
20
37.5169069902378
30
0
0
VERTEX
8
0
10
11.9466666666667
20
38.7237890487118
30
0
0
VERTEX
8
0
10
12.865641025641
20
39.7526591143367
30
0
0
VERTEX
8
0
10
13.7846153846154
20
40.8640943055105
30
0
0
VERTEX
8
0
10
14.7035897435897
20
41.5976378078692
30
0
0
VERTEX
8
0
10
15.6225641025641
20
42.4558433446482
30
0
0
VERTEX
8
0
10
16.5415384615385
20
43.2067680422829
30
0
0
VERTEX
8
0
10
17.4605128205128
20
43.928864179178
30
0
0
VERTEX
8
0
10
18.3794871794872
20
44.6623631468677
30
0
0
VERTEX
8
0
10
19.2984615384615
20
45.3033359475565
30
0
0
VERTEX
8
0
10
20.2174358974359
20
45.9380585552016
30
0
0
VERTEX
8
0
10
21.1364102564103
20
46.5842192619806
30
0
0
VERTEX
8
0
10
22.0553846153846
20
47.0628860204648
30
0
0
VERTEX
8
0
10
22.974358974359
20
47.5557294199738
30
0
0
VERTEX
8
0
10
23.8933333333333
20
48.058688111114
30
0
0
VERTEX
8
0
10
24.8123076923077
20
48.4084260280671
30
0
0
VERTEX
8
0
10
25.7312820512821
20
48.786841472493
30
0
0
VERTEX
8
0
10
26.6502564102564
20
49.1757571037435
30
0
0
VERTEX
8
0
10
27.5692307692308
20
49.4518822529009
30
0
0
VERTEX
8
0
10
28.4882051282051
20
49.7419990469368
30
0
0
VERTEX
8
0
10
29.4071794871795
20
50.0391810775924
30
0
0
VERTEX
8
0
10
30.3261538461539
20
50.1373458813593
30
0
0
VERTEX
8
0
10
31.2451282051282
20
50.287534646222
30
0
0
VERTEX
8
0
10
32.1641025641026
20
50.4429041404121
30
0
0
VERTEX
8
0
10
33.0830769230769
20
50.4388819862154
30
0
0
VERTEX
8
0
10
34.0020512820513
20
50.4913292974705
30
0
0
VERTEX
8
0
10
34.9210256410257
20
50.5282054990683
30
0
0
VERTEX
8
0
10
35.84
20
50.4912084945261
30
0
0
VERTEX
8
0
10
36.7589743589744
20
50.4727153680643
30
0
0
VERTEX
8
0
10
37.6779487179487
20
50.4136711563879
30
0
0
VERTEX
8
0
10
38.5969230769231
20
50.3381748380095
30
0
0
VERTEX
8
0
10
39.5158974358974
20
50.2642817807409
30
0
0
VERTEX
8
0
10
40.4348717948718
20
50.1570620761931
30
0
0
VERTEX
8
0
10
41.3538461538461
20
50.0398740657266
30
0
0
VERTEX
8
0
10
42.2728205128205
20
49.9235319185346
30
0
0
VERTEX
8
0
10
43.1917948717949
20
49.7975132968393
30
0
0
VERTEX
8
0
10
44.1107692307692
20
49.6739881834145
30
0
0
VERTEX
8
0
10
45.0297435897436
20
49.551759762228
30
0
0
VERTEX
8
0
10
45.9487179487179
20
49.4415197490601
30
0
0
VERTEX
8
0
10
46.8676923076923
20
49.3319305527615
30
0
0
VERTEX
8
0
10
47.7866666666666
20
49.2244581800656
30
0
0
VERTEX
8
0
10
48.705641025641
20
49.0883574193581
30
0
0
VERTEX
8
0
10
49.6246153846154
20
48.9607622665993
30
0
0
VERTEX
8
0
10
50.5435897435897
20
48.8334176858535
30
0
0
VERTEX
8
0
10
51.4625641025641
20
48.7358897616002
30
0
0
VERTEX
8
0
10
52.3815384615384
20
48.6382477843365
30
0
0
VERTEX
8
0
10
53.3005128205128
20
48.5435230167005
30
0
0
VERTEX
8
0
10
54.2194871794871
20
48.4495525528165
30
0
0
VERTEX
8
0
10
55.1384615384615
20
48.3607913597164
30
0
0
VERTEX
8
0
10
56.0574358974358
20
48.2757469465259
30
0
0
VERTEX
8
0
10
56.9764102564102
20
48.1965170278317
30
0
0
VERTEX
8
0
10
57.8953846153846
20
48.1198022197031
30
0
0
VERTEX
8
0
10
58.8143589743589
20
48.0467437200816
30
0
0
VERTEX
8
0
10
59.7333333333333
20
48.0146667201138
30
0
0
VERTEX
8
0
10
60.6523076923076
20
47.9795794491812
30
0
0
VERTEX
8
0
10
61.571282051282
20
47.9518327041748
30
0
0
VERTEX
8
0
10
62.4902564102563
20
47.8964603667488
30
0
0
VERTEX
8
0
10
63.4092307692307
20
47.8528034250633
30
0
0
VERTEX
8
0
10
64.328205128205
20
47.8335217665314
30
0
0
VERTEX
8
0
10
65.2471794871794
20
47.834182478677
30
0
0
VERTEX
8
0
10
66.1661538461537
20
47.8320924220632
30
0
0
VERTEX
8
0
10
67.0851282051281
20
47.8253001637327
30
0
0
VERTEX
8
0
10
68.0041025641025
20
47.8215658226366
30
0
0
VERTEX
8
0
10
68.9230769230768
20
47.8227796572951
30
0
0
VERTEX
8
0
10
69.8420512820512
20
47.8325467014183
30
0
0
VERTEX
8
0
10
70.7610256410255
20
47.8720835138265
30
0
0
VERTEX
8
0
10
71.6799999999999
20
47.907679604455
30
0
0
VERTEX
8
0
10
72.5989743589742
20
47.9306947377825
30
0
0
VERTEX
8
0
10
73.5179487179486
20
47.9451495221744
30
0
0
VERTEX
8
0
10
74.436923076923
20
47.9603680463968
30
0
0
VERTEX
8
0
10
75.3558974358973
20
47.9622215378741
30
0
0
VERTEX
8
0
10
76.2748717948717
20
47.9680142402845
30
0
0
VERTEX
8
0
10
77.193846153846
20
47.9952744986935
30
0
0
VERTEX
8
0
10
78.1128205128204
20
47.9614286564875
30
0
0
VERTEX
8
0
10
79.0317948717947
20
47.8728468994775
30
0
0
VERTEX
8
0
10
79.9507692307691
20
47.782677257715
30
0
0
VERTEX
8
0
10
80.8697435897435
20
47.698231766554
30
0
0
VERTEX
8
0
10
81.7887179487178
20
47.6177514034737
30
0
0
VERTEX
8
0
10
82.7076923076922
20
47.5456373179296
30
0
0
VERTEX
8
0
10
83.6266666666665
20
47.4846126161247
30
0
0
VERTEX
8
0
10
84.5456410256409
20
47.4240934780186
30
0
0
VERTEX
8
0
10
85.4646153846152
20
47.3586552431211
30
0
0
VERTEX
8
0
10
86.3835897435896
20
47.2871362582354
30
0
0
VERTEX
8
0
10
87.3025641025639
20
47.2177259912031
30
0
0
VERTEX
8
0
10
88.2215384615383
20
47.1578302888598
30
0
0
VERTEX
8
0
10
89.1405128205126
20
47.0616750706974
30
0
0
VERTEX
8
0
10
90.059487179487
20
46.9628094662521
30
0
0
VERTEX
8
0
10
90.9784615384614
20
46.8817302629067
30
0
0
VERTEX
8
0
10
91.8974358974357
20
46.6796149785316
30
0
0
VERTEX
8
0
10
92.8164102564101
20
46.476595067682
30
0
0
VERTEX
8
0
10
93.7353846153844
20
46.2834830820859
30
0
0
VERTEX
8
0
10
94.6543589743588
20
46.1022187800219
30
0
0
VERTEX
8
0
10
95.5733333333331
20
45.9127648036348
30
0
0
VERTEX
8
0
10
96.4923076923075
20
45.7240504120258
30
0
0
VERTEX
8
0
10
97.4112820512818
20
45.5330318859323
30
0
0
VERTEX
8
0
10
98.3302564102562
20
45.3439931675402
30
0
0
VERTEX
8
0
10
99.2492307692306
20
45.1560250881035
30
0
0
VERTEX
8
0
10
100.168205128205
20
44.970548361603
30
0
0
VERTEX
8
0
10
101.087179487179
20
44.782445043982
30
0
0
VERTEX
8
0
10
102.006153846154
20
44.594403242015
30
0
0
VERTEX
8
0
10
102.925128205128
20
44.4094174892783
30
0
0
VERTEX
8
0
10
103.844102564102
20
44.234600565447
30
0
0
VERTEX
8
0
10
104.763076923077
20
44.0595762925164
30
0
0
VERTEX
8
0
10
105.682051282051
20
43.8827568921159
30
0
0
VERTEX
8
0
10
106.601025641025
20
43.728803305488
30
0
0
VERTEX
8
0
10
107.52
20
43.5830506313705
30
0
0
VERTEX
8
0
10
108.438974358974
20
43.4437870838697
30
0
0
VERTEX
8
0
10
109.357948717948
20
43.2860831513455
30
0
0
VERTEX
8
0
10
110.276923076923
20
43.1262107322903
30
0
0
VERTEX
8
0
10
111.195897435897
20
42.9672296358913
30
0
0
VERTEX
8
0
10
112.114871794872
20
42.8289374739499
30
0
0
VERTEX
8
0
10
113.033846153846
20
42.6684493354997
30
0
0
VERTEX
8
0
10
113.95282051282
20
42.5059160016098
30
0
0
VERTEX
8
0
10
114.871794871795
20
42.3234931024394
30
0
0
VERTEX
8
0
10
115.790769230769
20
42.1497441123082
30
0
0
VERTEX
8
0
10
116.709743589743
20
41.9779755972081
30
0
0
VERTEX
8
0
10
117.628717948718
20
41.8362045493109
30
0
0
VERTEX
8
0
10
118.547692307692
20
41.6959551301226
30
0
0
VERTEX
8
0
10
119.466666666666
20
41.5546312079071
30
0
0
VERTEX
8
0
10
120.385641025641
20
41.4129743844725
30
0
0
VERTEX
8
0
10
121.304615384615
20
41.2517834913775
30
0
0
VERTEX
8
0
10
122.223589743589
20
41.090942626368
30
0
0
VERTEX
8
0
10
123.142564102564
20
40.9296373603084
30
0
0
VERTEX
8
0
10
124.061538461538
20
40.7820154313053
30
0
0
VERTEX
8
0
10
124.980512820513
20
40.641721589327
30
0
0
VERTEX
8
0
10
125.899487179487
20
40.5024695761665
30
0
0
VERTEX
8
0
10
126.818461538461
20
40.3638777912514
30
0
0
VERTEX
8
0
10
127.737435897436
20
40.2210680975403
30
0
0
VERTEX
8
0
10
128.65641025641
20
40.0787420550473
30
0
0
VERTEX
8
0
10
129.575384615384
20
39.9407148379049
30
0
0
VERTEX
8
0
10
130.494358974359
20
39.8044342346735
30
0
0
VERTEX
8
0
10
131.413333333333
20
39.6568740104522
30
0
0
VERTEX
8
0
10
132.332307692307
20
39.501200912248
30
0
0
VERTEX
8
0
10
133.251282051282
20
39.3545186595139
30
0
0
VERTEX
8
0
10
134.170256410256
20
39.1840237674239
30
0
0
VERTEX
8
0
10
135.08923076923
20
39.0102342169762
30
0
0
VERTEX
8
0
10
136.008205128205
20
38.8350291000146
30
0
0
VERTEX
8
0
10
136.927179487179
20
38.6609520811997
30
0
0
VERTEX
8
0
10
137.846153846153
20
38.4981573579226
30
0
0
VERTEX
8
0
10
138.765128205128
20
38.3384469188452
30
0
0
VERTEX
8
0
10
139.684102564102
20
38.1769068382127
30
0
0
VERTEX
8
0
10
140.603076923077
20
38.0141416143038
30
0
0
VERTEX
8
0
10
141.522051282051
20
37.8510819406948
30
0
0
VERTEX
8
0
10
142.441025641025
20
37.6977595994574
30
0
0
VERTEX
8
0
10
143.36
20
37.5434176131523
30
0
0
VERTEX
8
0
10
144.278974358974
20
37.3884439800881
30
0
0
VERTEX
8
0
10
145.197948717948
20
37.2346429605828
30
0
0
VERTEX
8
0
10
146.116923076923
20
37.0694626332259
30
0
0
VERTEX
8
0
10
147.035897435897
20
36.912046372539
30
0
0
VERTEX
8
0
10
147.954871794871
20
36.7584113572706
30
0
0
VERTEX
8
0
10
148.873846153846
20
36.6108485530222
30
0
0
VERTEX
8
0
10
149.79282051282
20
36.463636977495
30
0
0
VERTEX
8
0
10
150.711794871795
20
36.321079622223
30
0
0
VERTEX
8
0
10
151.630769230769
20
36.1759510129748
30
0
0
VERTEX
8
0
10
152.549743589743
20
36.030380514962
30
0
0
VERTEX
8
0
10
153.468717948718
20
35.8698968763314
30
0
0
VERTEX
8
0
10
154.387692307692
20
35.7107040401174
30
0
0
VERTEX
8
0
10
155.306666666666
20
35.5506337097529
30
0
0
VERTEX
8
0
10
156.225641025641
20
35.4138718247273
30
0
0
VERTEX
8
0
10
157.144615384615
20
35.2819953970473
30
0
0
VERTEX
8
0
10
158.063589743589
20
35.1511106800614
30
0
0
VERTEX
8
0
10
158.982564102564
20
35.0066722851782
30
0
0
VERTEX
8
0
10
159.901538461538
20
34.8636051577402
30
0
0
VERTEX
8
0
10
160.820512820513
20
34.7184346205778
30
0
0
VERTEX
8
0
10
161.739487179487
20
34.588677592335
30
0
0
VERTEX
8
0
10
162.658461538461
20
34.4538688615515
30
0
0
VERTEX
8
0
10
163.577435897436
20
34.3191454688057
30
0
0
VERTEX
8
0
10
164.49641025641
20
34.1651862139077
30
0
0
VERTEX
8
0
10
165.415384615384
20
34.0167681518824
30
0
0
VERTEX
8
0
10
166.334358974359
20
33.8691812765666
30
0
0
VERTEX
8
0
10
167.253333333333
20
33.7586785076008
30
0
0
VERTEX
8
0
10
168.172307692308
20
33.6473319977563
30
0
0
VERTEX
8
0
10
169.091282051282
20
33.5360324409279
30
0
0
VERTEX
8
0
10
170.010256410256
20
33.4185429198561
30
0
0
VERTEX
8
0
10
170.929230769231
20
33.3031355313758
30
0
0
VERTEX
8
0
10
171.848205128205
20
33.2049106834898
30
0
0
SEQEND
8
0
0
POLYLINE
8
0
62
3
70
0
10
0
20
0
30
0
0
VERTEX
8
0
10
1.83794871794872
20
18.4685587374277
30
0
0
VERTEX
8
0
10
2.75692307692308
20
25.2497969187152
30
0
0
VERTEX
8
0
10
3.67589743589744
20
24.9125432455871
30
0
0
VERTEX
8
0
10
4.59487179487179
20
31.5546149596535
30
0
0
VERTEX
8
0
10
5.51384615384615
20
30.9909751746024
30
0
0
VERTEX
8
0
10
6.43282051282051
20
33.8811524600729
30
0
0
VERTEX
8
0
10
7.35179487179487
20
36.0010667511331
30
0
0
VERTEX
8
0
10
8.27076923076923
20
37.5228466004785
30
0
0
VERTEX
8
0
10
9.18974358974359
20
40.2768040002149
30
0
0
VERTEX
8
0
10
10.1087179487179
20
41.6352089935739
30
0
0
VERTEX
8
0
10
11.0276923076923
20
44.0993781130174
30
0
0
VERTEX
8
0
10
11.9466666666667
20
45.015909908994
30
0
0
VERTEX
8
0
10
12.865641025641
20
46.7527733434547
30
0
0
VERTEX
8
0
10
13.7846153846154
20
48.4425086512546
30
0
0
VERTEX
8
0
10
14.7035897435897
20
49.7551117243545
30
0
0
VERTEX
8
0
10
15.6225641025641
20
51.3207000919575
30
0
0
VERTEX
8
0
10
16.5415384615385
20
52.4959102261316
30
0
0
VERTEX
8
0
10
17.4605128205128
20
54.1125985511531
30
0
0
VERTEX
8
0
10
18.3794871794872
20
55.0222075837325
30
0
0
VERTEX
8
0
10
19.2984615384615
20
56.1999283632577
30
0
0
VERTEX
8
0
10
20.2174358974359
20
57.3433045761055
30
0
0
VERTEX
8
0
10
21.1364102564103
20
58.4220372983884
30
0
0
VERTEX
8
0
10
22.0553846153846
20
59.4242846822692
30
0
0
VERTEX
8
0
10
22.974358974359
20
60.2950543663068
30
0
0
VERTEX
8
0
10
23.8933333333333
20
61.2913637286211
30
0
0
VERTEX
8
0
10
24.8123076923077
20
62.0766726018894
30
0
0
VERTEX
8
0
10
25.7312820512821
20
62.8571827223642
30
0
0
VERTEX
8
0
10
26.6502564102564
20
63.6202348211209
30
0
0
VERTEX
8
0
10
27.5692307692308
20
64.3426716725801
30
0
0
VERTEX
8
0
10
28.4882051282051
20
65.0614299390847
30
0
0
VERTEX
8
0
10
29.4071794871795
20
65.6557368156403
30
0
0
VERTEX
8
0
10
30.3261538461539
20
66.3019811193964
30
0
0
VERTEX
8
0
10
31.2451282051282
20
66.8357922456753
30
0
0
VERTEX
8
0
10
32.1641025641026
20
67.3934944363902
30
0
0
VERTEX
8
0
10
33.0830769230769
20
67.8899149231475
30
0
0
VERTEX
8
0
10
34.0020512820513
20
68.3744732934651
30
0
0
VERTEX
8
0
10
34.9210256410257
20
68.8313146891689
30
0
0
VERTEX
8
0
10
35.84
20
69.2648118845543
30
0
0
VERTEX
8
0
10
36.7589743589744
20
69.6691893919583
30
0
0
VERTEX
8
0
10
37.6779487179487
20
70.0223029827432
30
0
0
VERTEX
8
0
10
38.5969230769231
20
70.3627955801384
30
0
0
VERTEX
8
0
10
39.5158974358974
20
70.6775809942162
30
0
0
VERTEX
8
0
10
40.4348717948718
20
70.9790150718345
30
0
0
VERTEX
8
0
10
41.3538461538461
20
71.2852656194194
30
0
0
VERTEX
8
0
10
42.2728205128205
20
71.5773228438474
30
0
0
VERTEX
8
0
10
43.1917948717949
20
71.8792670328621
30
0
0
VERTEX
8
0
10
44.1107692307692
20
72.1438271855847
30
0
0
VERTEX
8
0
10
45.0297435897436
20
72.4162244446889
30
0
0
VERTEX
8
0
10
45.9487179487179
20
72.6787209892053
30
0
0
VERTEX
8
0
10
46.8676923076923
20
72.9446366657512
30
0
0
VERTEX
8
0
10
47.7866666666666
20
73.1852381064241
30
0
0
VERTEX
8
0
10
48.705641025641
20
73.4297872846812
30
0
0
VERTEX
8
0
10
49.6246153846154
20
73.6659565989465
30
0
0
VERTEX
8
0
10
50.5435897435897
20
73.8959983002049
30
0
0
VERTEX
8
0
10
51.4625641025641
20
74.1143092456149
30
0
0
VERTEX
8
0
10
52.3815384615384
20
74.3354315175114
30
0
0
VERTEX
8
0
10
53.3005128205128
20
74.5479754264844
30
0
0
VERTEX
8
0
10
54.2194871794871
20
74.7591144928128
30
0
0
VERTEX
8
0
10
55.1384615384615
20
74.9617476178611
30
0
0
VERTEX
8
0
10
56.0574358974358
20
75.16831681655
30
0
0
VERTEX
8
0
10
56.9764102564102
20
75.3652140699485
30
0
0
VERTEX
8
0
10
57.8953846153846
20
75.5648507440902
30
0
0
VERTEX
8
0
10
58.8143589743589
20
75.7555800428918
30
0
0
VERTEX
8
0
10
59.7333333333333
20
75.9512209061778
30
0
0
VERTEX
8
0
10
60.6523076923076
20
76.1346453797201
30
0
0
VERTEX
8
0
10
61.571282051282
20
76.3231342291174
30
0
0
VERTEX
8
0
10
62.4902564102563
20
76.5055663614197
30
0
0
VERTEX
8
0
10
63.4092307692307
20
76.6904609334879
30
0
0
VERTEX
8
0
10
64.328205128205
20
76.8697573222166
30
0
0
VERTEX
8
0
10
65.2471794871794
20
77.0516192548555
30
0
0
VERTEX
8
0
10
66.1661538461537
20
77.230155498457
30
0
0
VERTEX
8
0
10
67.0851282051281
20
77.4070609588885
30
0
0
VERTEX
8
0
10
68.0041025641025
20
77.5783095089312
30
0
0
VERTEX
8
0
10
68.9230769230768
20
77.7523296500707
30
0
0
VERTEX
8
0
10
69.8420512820512
20
77.9256274222401
30
0
0
VERTEX
8
0
10
70.7610256410255
20
78.1006936134915
30
0
0
VERTEX
8
0
10
71.6799999999999
20
78.2667295534761
30
0
0
VERTEX
8
0
10
72.5989743589742
20
78.4340217481174
30
0
0
VERTEX
8
0
10
73.5179487179486
20
78.5955184313713
30
0
0
VERTEX
8
0
10
74.436923076923
20
78.7558433501996
30
0
0
VERTEX
8
0
10
75.3558974358973
20
78.9054833492184
30
0
0
VERTEX
8
0
10
76.2748717948717
20
79.0543857585076
30
0
0
VERTEX
8
0
10
77.193846153846
20
79.2011931843135
30
0
0
VERTEX
8
0
10
78.1128205128204
20
79.3477598190432
30
0
0
VERTEX
8
0
10
79.0317948717947
20
79.4837771369319
30
0
0
VERTEX
8
0
10
79.9507692307691
20
79.6130441819972
30
0
0
VERTEX
8
0
10
80.8697435897435
20
79.7389942195258
30
0
0
VERTEX
8
0
10
81.7887179487178
20
79.8618826921393
30
0
0
VERTEX
8
0
10
82.7076923076922
20
79.9791586114504
30
0
0
VERTEX
8
0
10
83.6266666666665
20
80.0943231906198
30
0
0
VERTEX
8
0
10
84.5456410256409
20
80.2033754576188
30
0
0
VERTEX
8
0
10
85.4646153846152
20
80.3060478792144
30
0
0
VERTEX
8
0
10
86.3835897435896
20
80.397057516672
30
0
0
VERTEX
8
0
10
87.3025641025639
20
80.4861683108123
30
0
0
VERTEX
8
0
10
88.2215384615383
20
80.5754153222325
30
0
0
VERTEX
8
0
10
89.1405128205126
20
80.6605491690772
30
0
0
VERTEX
8
0
10
90.059487179487
20
80.7313926957421
30
0
0
VERTEX
8
0
10
90.9784615384614
20
80.7978452057064
30
0
0
VERTEX
8
0
10
91.8974358974357
20
80.8608696701663
30
0
0
VERTEX
8
0
10
92.8164102564101
20
80.9205008793901
30
0
0
VERTEX
8
0
10
93.7353846153844
20
80.9732261896044
30
0
0
VERTEX
8
0
10
94.6543589743588
20
81.0217014183555
30
0
0
VERTEX
8
0
10
95.5733333333331
20
81.0629864801582
30
0
0
VERTEX
8
0
10
96.4923076923075
20
81.0998609402861
30
0
0
VERTEX
8
0
10
97.4112820512818
20
81.1283665932166
30
0
0
VERTEX
8
0
10
98.3302564102562
20
81.154457807562
30
0
0
VERTEX
8
0
10
99.2492307692306
20
81.1782647510231
30
0
0
VERTEX
8
0
10
100.168205128205
20
81.197022382507
30
0
0
VERTEX
8
0
10
101.087179487179
20
81.2051615953219
30
0
0
VERTEX
8
0
10
102.006153846154
20
81.2089880940168
30
0
0
VERTEX
8
0
10
102.925128205128
20
81.2096849670403
30
0
0
VERTEX
8
0
10
103.844102564102
20
81.20831259448
30
0
0
VERTEX
8
0
10
104.763076923077
20
81.2004138311774
30
0
0
VERTEX
8
0
10
105.682051282051
20
81.1867663935038
30
0
0
VERTEX
8
0
10
106.601025641025
20
81.168291746174
30
0
0
VERTEX
8
0
10
107.52
20
81.145194249924
30
0
0
VERTEX
8
0
10
108.438974358974
20
81.11552625658
30
0
0
VERTEX
8
0
10
109.357948717948
20
81.0819099088909
30
0
0
VERTEX
8
0
10
110.276923076923
20
81.0451487419114
30
0
0
VERTEX
8
0
10
111.195897435897
20
81.005583804854
30
0
0
VERTEX
8
0
10
112.114871794872
20
80.9612706101163
30
0
0
VERTEX
8
0
10
113.033846153846
20
80.9138389799474
30
0
0
VERTEX
8
0
10
113.95282051282
20
80.8601982161276
30
0
0
VERTEX
8
0
10
114.871794871795
20
80.8026852336965
30
0
0
VERTEX
8
0
10
115.790769230769
20
80.7395685098724
30
0
0
VERTEX
8
0
10
116.709743589743
20
80.6726569271385
30
0
0
VERTEX
8
0
10
117.628717948718
20
80.6036824098988
30
0
0
VERTEX
8
0
10
118.547692307692
20
80.5329615082036
30
0
0
VERTEX
8
0
10
119.466666666666
20
80.459512591344
30
0
0
VERTEX
8
0
10
120.385641025641
20
80.3865463034076
30
0
0
VERTEX
8
0
10
121.304615384615
20
80.3121297863492
30
0
0
VERTEX
8
0
10
122.223589743589
20
80.2351989985425
30
0
0
VERTEX
8
0
10
123.142564102564
20
80.1554044123157
30
0
0
VERTEX
8
0
10
124.061538461538
20
80.0746734231308
30
0
0
VERTEX
8
0
10
124.980512820513
20
79.9941791346811
30
0
0
VERTEX
8
0
10
125.899487179487
20
79.9129479873097
30
0
0
VERTEX
8
0
10
126.818461538461
20
79.8287804953266
30
0
0
VERTEX
8
0
10
127.737435897436
20
79.7436452858574
30
0
0
VERTEX
8
0
10
128.65641025641
20
79.6586489841914
30
0
0
VERTEX
8
0
10
129.575384615384
20
79.5714609374257
30
0
0
VERTEX
8
0
10
130.494358974359
20
79.4816418218875
30
0
0
VERTEX
8
0
10
131.413333333333
20
79.3905934906951
30
0
0
VERTEX
8
0
10
132.332307692307
20
79.2989764377736
30
0
0
VERTEX
8
0
10
133.251282051282
20
79.2066743718641
30
0
0
VERTEX
8
0
10
134.170256410256
20
79.1137950206064
30
0
0
VERTEX
8
0
10
135.08923076923
20
79.0212847380083
30
0
0
VERTEX
8
0
10
136.008205128205
20
78.9292752915189
30
0
0
VERTEX
8
0
10
136.927179487179
20
78.8375858048446
30
0
0
VERTEX
8
0
10
137.846153846153
20
78.7430881813747
30
0
0
VERTEX
8
0
10
138.765128205128
20
78.6494977028473
30
0
0
VERTEX
8
0
10
139.684102564102
20
78.5555690011782
30
0
0
VERTEX
8
0
10
140.603076923077
20
78.460588530515
30
0
0
VERTEX
8
0
10
141.522051282051
20
78.3660323095248
30
0
0
VERTEX
8
0
10
142.441025641025
20
78.2722822873779
30
0
0
VERTEX
8
0
10
143.36
20
78.1796035509142
30
0
0
VERTEX
8
0
10
144.278974358974
20
78.0882886595186
30
0
0
VERTEX
8
0
10
145.197948717948
20
77.9993624707721
30
0
0
VERTEX
8
0
10
146.116923076923
20
77.9140396157655
30
0
0
VERTEX
8
0
10
147.035897435897
20
77.8332019151561
30
0
0
VERTEX
8
0
10
147.954871794871
20
77.754670362929
30
0
0
VERTEX
8
0
10
148.873846153846
20
77.6789674190939
30
0
0
VERTEX
8
0
10
149.79282051282
20
77.6067941703916
30
0
0
VERTEX
8
0
10
150.711794871795
20
77.5358010970883
30
0
0
VERTEX
8
0
10
151.630769230769
20
77.4660000509909
30
0
0
VERTEX
8
0
10
152.549743589743
20
77.3977150048015
30
0
0
VERTEX
8
0
10
153.468717948718
20
77.3312011498603
30
0
0
VERTEX
8
0
10
154.387692307692
20
77.2663212852888
30
0
0
VERTEX
8
0
10
155.306666666666
20
77.2030783799358
30
0
0
VERTEX
8
0
10
156.225641025641
20
77.1419498530307
30
0
0
VERTEX
8
0
10
157.144615384615
20
77.0831057027541
30
0
0
VERTEX
8
0
10
158.063589743589
20
77.026599332159
30
0
0
VERTEX
8
0
10
158.982564102564
20
76.969509317669
30
0
0
VERTEX
8
0
10
159.901538461538
20
76.9153266393448
30
0
0
VERTEX
8
0
10
160.820512820513
20
76.8616228488329
30
0
0
VERTEX
8
0
10
161.739487179487
20
76.8068424198702
30
0
0
VERTEX
8
0
10
162.658461538461
20
76.7530791954216
30
0
0
VERTEX
8
0
10
163.577435897436
20
76.700292510341
30
0
0
VERTEX
8
0
10
164.49641025641
20
76.6484469479964
30
0
0
VERTEX
8
0
10
165.415384615384
20
76.597510928192
30
0
0
VERTEX
8
0
10
166.334358974359
20
76.5478083759536
30
0
0
VERTEX
8
0
10
167.253333333333
20
76.4994847852814
30
0
0
VERTEX
8
0
10
168.172307692308
20
76.4526216828616
30
0
0
VERTEX
8
0
10
169.091282051282
20
76.4061574557323
30
0
0
VERTEX
8
0
10
170.010256410256
20
76.3607241695773
30
0
0
VERTEX
8
0
10
170.929230769231
20
76.317023934209
30
0
0
VERTEX
8
0
10
171.848205128205
20
76.2727091343243
30
0
0
SEQEND
8
0
0
POLYLINE
8
0
62
4
70
0
10
0
20
0
30
0
0
VERTEX
8
0
10
1.83794871794872
20
19.6123163959788
30
0
0
VERTEX
8
0
10
2.75692307692308
20
22.9351968342315
30
0
0
VERTEX
8
0
10
3.67589743589744
20
25.816029698042
30
0
0
VERTEX
8
0
10
4.59487179487179
20
28.9497349953353
30
0
0
VERTEX
8
0
10
5.51384615384615
20
31.6320607302923
30
0
0
VERTEX
8
0
10
6.43282051282051
20
34.1844256544292
30
0
0
VERTEX
8
0
10
7.35179487179487
20
36.2998884848168
30
0
0
VERTEX
8
0
10
8.27076923076923
20
38.2321825936049
30
0
0
VERTEX
8
0
10
9.18974358974359
20
40.1744303351104
30
0
0
VERTEX
8
0
10
10.1087179487179
20
42.1492350391576
30
0
0
VERTEX
8
0
10
11.0276923076923
20
43.7932834626671
30
0
0
VERTEX
8
0
10
11.9466666666667
20
45.5286673762232
30
0
0
VERTEX
8
0
10
12.865641025641
20
47.0831453078463
30
0
0
VERTEX
8
0
10
13.7846153846154
20
48.6809656911135
30
0
0
VERTEX
8
0
10
14.7035897435897
20
49.9677872039928
30
0
0
VERTEX
8
0
10
15.6225641025641
20
51.3197067577069
30
0
0
VERTEX
8
0
10
16.5415384615385
20
52.5820270873374
30
0
0
VERTEX
8
0
10
17.4605128205128
20
53.7904795207237
30
0
0
VERTEX
8
0
10
18.3794871794872
20
55.0101958815227
30
0
0
VERTEX
8
0
10
19.2984615384615
20
56.1302319379524
30
0
0
VERTEX
8
0
10
20.2174358974359
20
57.2288147083436
30
0
0
VERTEX
8
0
10
21.1364102564103
20
58.3266709823525
30
0
0
VERTEX
8
0
10
22.0553846153846
20
59.2615197836399
30
0
0
VERTEX
8
0
10
22.974358974359
20
60.2112252385808
30
0
0
VERTEX
8
0
10
23.8933333333333
20
61.1328081219041
30
0
0
VERTEX
8
0
10
24.8123076923077
20
61.9348646533969
30
0
0
VERTEX
8
0
10
25.7312820512821
20
62.7434509810483
30
0
0
VERTEX
8
0
10
26.6502564102564
20
63.5448853013614
30
0
0
VERTEX
8
0
10
27.5692307692308
20
64.2488518260504
30
0
0
VERTEX
8
0
10
28.4882051282051
20
64.9382635258091
30
0
0
VERTEX
8
0
10
29.4071794871795
20
65.6356326491657
30
0
0
VERTEX
8
0
10
30.3261538461539
20
66.15813482399
30
0
0
VERTEX
8
0
10
31.2451282051282
20
66.7166796667753
30
0
0
VERTEX
8
0
10
32.1641025641026
20
67.260607160516
30
0
0
VERTEX
8
0
10
33.0830769230769
20
67.6804177499232
30
0
0
VERTEX
8
0
10
34.0020512820513
20
68.1376804813635
30
0
0
VERTEX
8
0
10
34.9210256410257
20
68.5573731585494
30
0
0
VERTEX
8
0
10
35.84
20
68.9249457800203
30
0
0
VERTEX
8
0
10
36.7589743589744
20
69.2913603283415
30
0
0
VERTEX
8
0
10
37.6779487179487
20
69.6279777118526
30
0
0
VERTEX
8
0
10
38.5969230769231
20
69.9361981001827
30
0
0
VERTEX
8
0
10
39.5158974358974
20
70.2374431707322
30
0
0
VERTEX
8
0
10
40.4348717948718
20
70.5159235012035
30
0
0
VERTEX
8
0
10
41.3538461538461
20
70.7749563126277
30
0
0
VERTEX
8
0
10
42.2728205128205
20
71.0302102192989
30
0
0
VERTEX
8
0
10
43.1917948717949
20
71.2665017001615
30
0
0
VERTEX
8
0
10
44.1107692307692
20
71.5101858131843
30
0
0
VERTEX
8
0
10
45.0297435897436
20
71.7458561440636
30
0
0
VERTEX
8
0
10
45.9487179487179
20
71.9798872482653
30
0
0
VERTEX
8
0
10
46.8676923076923
20
72.2125169346892
30
0
0
VERTEX
8
0
10
47.7866666666666
20
72.4401566730994
30
0
0
VERTEX
8
0
10
48.705641025641
20
72.6487873789664
30
0
0
VERTEX
8
0
10
49.6246153846154
20
72.8496767916393
30
0
0
VERTEX
8
0
10
50.5435897435897
20
73.0499277501589
30
0
0
VERTEX
8
0
10
51.4625641025641
20
73.2684077161829
30
0
0
VERTEX
8
0
10
52.3815384615384
20
73.4827539348126
30
0
0
VERTEX
8
0
10
53.3005128205128
20
73.6911734610555
30
0
0
VERTEX
8
0
10
54.2194871794871
20
73.8930171640358
30
0
0
VERTEX
8
0
10
55.1384615384615
20
74.1023001926528
30
0
0
VERTEX
8
0
10
56.0574358974358
20
74.3063539433681
30
0
0
VERTEX
8
0
10
56.9764102564102
20
74.5093687738893
30
0
0
VERTEX
8
0
10
57.8953846153846
20
74.7084326695247
30
0
0
VERTEX
8
0
10
58.8143589743589
20
74.9106574158274
30
0
0
VERTEX
8
0
10
59.7333333333333
20
75.1370100708339
30
0
0
VERTEX
8
0
10
60.6523076923076
20
75.3502445629152
30
0
0
VERTEX
8
0
10
61.571282051282
20
75.5670125289798
30
0
0
VERTEX
8
0
10
62.4902564102563
20
75.7651324929258
30
0
0
VERTEX
8
0
10
63.4092307692307
20
75.9693432941331
30
0
0
VERTEX
8
0
10
64.328205128205
20
76.1797182332549
30
0
0
VERTEX
8
0
10
65.2471794871794
20
76.3996894259805
30
0
0
VERTEX
8
0
10
66.1661538461537
20
76.6193569747902
30
0
0
VERTEX
8
0
10
67.0851282051281
20
76.8309325464524
30
0
0
VERTEX
8
0
10
68.0041025641025
20
77.0383720239012
30
0
0
VERTEX
8
0
10
68.9230769230768
20
77.2440056034304
30
0
0
VERTEX
8
0
10
69.8420512820512
20
77.4574224926394
30
0
0
VERTEX
8
0
10
70.7610256410255
20
77.6852798461696
30
0
0
VERTEX
8
0
10
71.6799999999999
20
77.9025931447413
30
0
0
VERTEX
8
0
10
72.5989743589742
20
78.1096282679629
30
0
0
VERTEX
8
0
10
73.5179487179486
20
78.3106899645544
30
0
0
VERTEX
8
0
10
74.436923076923
20
78.5097419025535
30
0
0
VERTEX
8
0
10
75.3558974358973
20
78.6919339198383
30
0
0
VERTEX
8
0
10
76.2748717948717
20
78.874395323639
30
0
0
VERTEX
8
0
10
77.193846153846
20
79.0692640883824
30
0
0
VERTEX
8
0
10
78.1128205128204
20
79.224406592385
30
0
0
VERTEX
8
0
10
79.0317948717947
20
79.339273436085
30
0
0
VERTEX
8
0
10
79.9507692307691
20
79.4489749164205
30
0
0
VERTEX
8
0
10
80.8697435897435
20
79.5633832242726
30
0
0
VERTEX
8
0
10
81.7887179487178
20
79.6759633130798
30
0
0
VERTEX
8
0
10
82.7076923076922
20
79.7872684443941
30
0
0
VERTEX
8
0
10
83.6266666666665
20
79.9025918978383
30
0
0
VERTEX
8
0
10
84.5456410256409
20
80.0171431853576
30
0
0
VERTEX
8
0
10
85.4646153846152
20
80.1258355617026
30
0
0
VERTEX
8
0
10
86.3835897435896
20
80.2234863401129
30
0
0
VERTEX
8
0
10
87.3025641025639
20
80.3198555010428
30
0
0
VERTEX
8
0
10
88.2215384615383
20
80.4206546536832
30
0
0
VERTEX
8
0
10
89.1405128205126
20
80.49821774195
30
0
0
VERTEX
8
0
10
90.059487179487
20
80.5666620519561
30
0
0
VERTEX
8
0
10
90.9784615384614
20
80.6425009012673
30
0
0
VERTEX
8
0
10
91.8974358974357
20
80.6479275984457
30
0
0
VERTEX
8
0
10
92.8164102564101
20
80.6495216095472
30
0
0
VERTEX
8
0
10
93.7353846153844
20
80.6517703309281
30
0
0
VERTEX
8
0
10
94.6543589743588
20
80.6580533634033
30
0
0
VERTEX
8
0
10
95.5733333333331
20
80.6588822693853
30
0
0
VERTEX
8
0
10
96.4923076923075
20
80.6573495694701
30
0
0
VERTEX
8
0
10
97.4112820512818
20
80.6493049048694
30
0
0
VERTEX
8
0
10
98.3302564102562
20
80.6395079203818
30
0
0
VERTEX
8
0
10
99.2492307692306
20
80.630338420335
30
0
0
VERTEX
8
0
10
100.168205128205
20
80.6195193176258
30
0
0
VERTEX
8
0
10
101.087179487179
20
80.6020570963259
30
0
0
VERTEX
8
0
10
102.006153846154
20
80.5822647667285
30
0
0
VERTEX
8
0
10
102.925128205128
20
80.5633196085918
30
0
0
VERTEX
8
0
10
103.844102564102
20
80.5470285552277
30
0
0
VERTEX
8
0
10
104.763076923077
20
80.5269860664112
30
0
0
VERTEX
8
0
10
105.682051282051
20
80.5025600331406
30
0
0
VERTEX
8
0
10
106.601025641025
20
80.4899099973491
30
0
0
VERTEX
8
0
10
107.52
20
80.4788121640149
30
0
0
VERTEX
8
0
10
108.438974358974
20
80.4671747072803
30
0
0
VERTEX
8
0
10
109.357948717948
20
80.4430288492063
30
0
0
VERTEX
8
0
10
110.276923076923
20
80.4166722947471
30
0
0
VERTEX
8
0
10
111.195897435897
20
80.3884297027657
30
0
0
VERTEX
8
0
10
112.114871794872
20
80.3673317873261
30
0
0
VERTEX
8
0
10
113.033846153846
20
80.332757632766
30
0
0
VERTEX
8
0
10
113.95282051282
20
80.2951876198621
30
0
0
VERTEX
8
0
10
114.871794871795
20
80.2451784794007
30
0
0
VERTEX
8
0
10
115.790769230769
20
80.1965537168407
30
0
0
VERTEX
8
0
10
116.709743589743
20
80.1467122538816
30
0
0
VERTEX
8
0
10
117.628717948718
20
80.1121770917139
30
0
0
VERTEX
8
0
10
118.547692307692
20
80.0764820366126
30
0
0
VERTEX
8
0
10
119.466666666666
20
80.0367121956897
30
0
0
VERTEX
8
0
10
120.385641025641
20
79.9960087218854
30
0
0
VERTEX
8
0
10
121.304615384615
20
79.9439577899371
30
0
0
VERTEX
8
0
10
122.223589743589
20
79.8904785499923
30
0
0
VERTEX
8
0
10
123.142564102564
20
79.8345847098962
30
0
0
VERTEX
8
0
10
124.061538461538
20
79.7843219576628
30
0
0
VERTEX
8
0
10
124.980512820513
20
79.7367185171172
30
0
0
VERTEX
8
0
10
125.899487179487
20
79.68889128124
30
0
0
VERTEX
8
0
10
126.818461538461
20
79.6390326159202
30
0
0
VERTEX
8
0
10
127.737435897436
20
79.5856885761183
30
0
0
VERTEX
8
0
10
128.65641025641
20
79.5324584664141
30
0
0
VERTEX
8
0
10
129.575384615384
20
79.4795035426367
30
0
0
VERTEX
8
0
10
130.494358974359
20
79.4260913303427
30
0
0
VERTEX
8
0
10
131.413333333333
20
79.365972845207
30
0
0
VERTEX
8
0
10
132.332307692307
20
79.3011043862484
30
0
0
VERTEX
8
0
10
133.251282051282
20
79.2397666042205
30
0
0
VERTEX
8
0
10
134.170256410256
20
79.1657006245947
30
0
0
VERTEX
8
0
10
135.08923076923
20
79.0891461326868
30
0
0
VERTEX
8
0
10
136.008205128205
20
79.0114462298717
30
0
0
VERTEX
8
0
10
136.927179487179
20
78.934316148505
30
0
0
VERTEX
8
0
10
137.846153846153
20
78.8606684699558
30
0
0
VERTEX
8
0
10
138.765128205128
20
78.7890869772968
30
0
0
VERTEX
8
0
10
139.684102564102
20
78.7160865705668
30
0
0
VERTEX
8
0
10
140.603076923077
20
78.641671862964
30
0
0
VERTEX
8
0
10
141.522051282051
20
78.5669149540437
30
0
0
VERTEX
8
0
10
142.441025641025
20
78.4966110086162
30
0
0
VERTEX
8
0
10
143.36
20
78.4256656618947
30
0
0
VERTEX
8
0
10
144.278974358974
20
78.3543240093883
30
0
0
VERTEX
8
0
10
145.197948717948
20
78.2835560761253
30
0
0
VERTEX
8
0
10
146.116923076923
20
78.2071462549996
30
0
0
VERTEX
8
0
10
147.035897435897
20
78.1355617855998
30
0
0
VERTEX
8
0
10
147.954871794871
20
78.0652076253475
30
0
0
VERTEX
8
0
10
148.873846153846
20
77.9978405385156
30
0
0
VERTEX
8
0
10
149.79282051282
20
77.9315055768449
30
0
0
VERTEX
8
0
10
150.711794871795
20
77.866851653928
30
0
0
VERTEX
8
0
10
151.630769230769
20
77.8013293513284
30
0
0
VERTEX
8
0
10
152.549743589743
20
77.7357594131564
30
0
0
VERTEX
8
0
10
153.468717948718
20
77.6634841727957
30
0
0
VERTEX
8
0
10
154.387692307692
20
77.5920462181624
30
0
0
VERTEX
8
0
10
155.306666666666
20
77.5204612240366
30
0
0
VERTEX
8
0
10
156.225641025641
20
77.4598153130603
30
0
0
VERTEX
8
0
10
157.144615384615
20
77.4015316724967
30
0
0
VERTEX
8
0
10
158.063589743589
20
77.3444883264993
30
0
0
VERTEX
8
0
10
158.982564102564
20
77.2799838602408
30
0
0
VERTEX
8
0
10
159.901538461538
20
77.2177567094961
30
0
0
VERTEX
8
0
10
160.820512820513
20
77.1546143579219
30
0
0
VERTEX
8
0
10
161.739487179487
20
77.0977522556009
30
0
0
VERTEX
8
0
10
162.658461538461
20
77.0391095416642
30
0
0
VERTEX
8
0
10
163.577435897436
20
76.9806546473855
30
0
0
VERTEX
8
0
10
164.49641025641
20
76.9138138444652
30
0
0
VERTEX
8
0
10
165.415384615384
20
76.8496549135987
30
0
0
VERTEX
8
0
10
166.334358974359
20
76.7860944768811
30
0
0
VERTEX
8
0
10
167.253333333333
20
76.7388687690175
30
0
0
VERTEX
8
0
10
168.172307692308
20
76.6919124745884
30
0
0
VERTEX
8
0
10
169.091282051282
20
76.6447050019628
30
0
0
VERTEX
8
0
10
170.010256410256
20
76.5947264008865
30
0
0
VERTEX
8
0
10
170.929230769231
20
76.5465371853867
30
0
0
VERTEX
8
0
10
171.848205128205
20
76.5051807807645
30
0
0
SEQEND
8
0
0
POLYLINE
8
0
62
2
70
0
10
0
20
0
30
0
0
VERTEX
8
0
10
1.83794871794872
20
16.7593703656792
30
0
0
VERTEX
8
0
10
2.75692307692308
20
17.5293417564137
30
0
0
VERTEX
8
0
10
3.67589743589744
20
18.346714627784
30
0
0
VERTEX
8
0
10
4.59487179487179
20
19.1272584843168
30
0
0
VERTEX
8
0
10
5.51384615384615
20
19.4260929676396
30
0
0
VERTEX
8
0
10
6.43282051282051
20
19.3897326259145
30
0
0
VERTEX
8
0
10
7.35179487179487
20
19.355138827622
30
0
0
VERTEX
8
0
10
8.27076923076923
20
19.1490104005568
30
0
0
VERTEX
8
0
10
9.18974358974359
20
18.9204780068622
30
0
0
VERTEX
8
0
10
10.1087179487179
20
18.7213345430967
30
0
0
VERTEX
8
0
10
11.0276923076923
20
18.4433465379154
30
0
0
VERTEX
8
0
10
11.9466666666667
20
18.1898245928811
30
0
0
VERTEX
8
0
10
12.865641025641
20
17.9560336139775
30
0
0
VERTEX
8
0
10
13.7846153846154
20
17.6746847718649
30
0
0
VERTEX
8
0
10
14.7035897435897
20
17.4185333890185
30
0
0
VERTEX
8
0
10
15.6225641025641
20
17.1599419854362
30
0
0
VERTEX
8
0
10
16.5415384615385
20
16.9216537261497
30
0
0
VERTEX
8
0
10
17.4605128205128
20
16.6890074819853
30
0
0
VERTEX
8
0
10
18.3794871794872
20
16.4511606023553
30
0
0
VERTEX
8
0
10
19.2984615384615
20
16.2661279096885
30
0
0
VERTEX
8
0
10
20.2174358974359
20
16.080218474219
30
0
0
VERTEX
8
0
10
21.1364102564103
20
15.8872319777733
30
0
0
VERTEX
8
0
10
22.0553846153846
20
15.6760045906252
30
0
0
VERTEX
8
0
10
22.974358974359
20
15.4735851171979
30
0
0
VERTEX
8
0
10
23.8933333333333
20
15.2654406307222
30
0
0
VERTEX
8
0
10
24.8123076923077
20
15.0962332478607
30
0
0
VERTEX
8
0
10
25.7312820512821
20
14.9211561864391
30
0
0
VERTEX
8
0
10
26.6502564102564
20
14.7452711072309
30
0
0
VERTEX
8
0
10
27.5692307692308
20
14.5770422820257
30
0
0
VERTEX
8
0
10
28.4882051282051
20
14.4125752518992
30
0
0
VERTEX
8
0
10
29.4071794871795
20
14.2496046463324
30
0
0
VERTEX
8
0
10
30.3261538461539
20
14.0930406845721
30
0
0
VERTEX
8
0
10
31.2451282051282
20
13.9394858899612
30
0
0
VERTEX
8
0
10
32.1641025641026
20
13.7881881328133
30
0
0
VERTEX
8
0
10
33.0830769230769
20
13.6444417187153
30
0
0
VERTEX
8
0
10
34.0020512820513
20
13.5022049108321
30
0
0
VERTEX
8
0
10
34.9210256410257
20
13.3806728704115
30
0
0
VERTEX
8
0
10
35.84
20
13.2681646181753
30
0
0
VERTEX
8
0
10
36.7589743589744
20
13.1529854306889
30
0
0
VERTEX
8
0
10
37.6779487179487
20
13.0182553262575
30
0
0
VERTEX
8
0
10
38.5969230769231
20
12.8851780456412
30
0
0
VERTEX
8
0
10
39.5158974358974
20
12.7517153335193
30
0
0
VERTEX
8
0
10
40.4348717948718
20
12.6562776549199
30
0
0
VERTEX
8
0
10
41.3538461538461
20
12.5590331851273
30
0
0
VERTEX
8
0
10
42.2728205128205
20
12.4587886967611
30
0
0
VERTEX
8
0
10
43.1917948717949
20
12.3587266671966
30
0
0
VERTEX
8
0
10
44.1107692307692
20
12.260568177404
30
0
0
VERTEX
8
0
10
45.0297435897436
20
12.160579487594
30
0
0
VERTEX
8
0
10
45.9487179487179
20
12.0763206116401
30
0
0
VERTEX
8
0
10
46.8676923076923
20
11.9902167985814
30
0
0
VERTEX
8
0
10
47.7866666666666
20
11.9051116597805
30
0
0
VERTEX
8
0
10
48.705641025641
20
11.824364028352
30
0
0
VERTEX
8
0
10
49.6246153846154
20
11.7453717816909
30
0
0
VERTEX
8
0
10
50.5435897435897
20
11.6587350258442
30
0
0
VERTEX
8
0
10
51.4625641025641
20
11.5705628166349
30
0
0
VERTEX
8
0
10
52.3815384615384
20
11.483288494967
30
0
0
VERTEX
8
0
10
53.3005128205128
20
11.3968404049595
30
0
0
VERTEX
8
0
10
54.2194871794871
20
11.3129441585207
30
0
0
VERTEX
8
0
10
55.1384615384615
20
11.2297525430322
30
0
0
VERTEX
8
0
10
56.0574358974358
20
11.157507057487
30
0
0
VERTEX
8
0
10
56.9764102564102
20
11.0896425018805
30
0
0
VERTEX
8
0
10
57.8953846153846
20
11.0202275677605
30
0
0
VERTEX
8
0
10
58.8143589743589
20
10.9432209215741
30
0
0
VERTEX
8
0
10
59.7333333333333
20
10.8667148568526
30
0
0
VERTEX
8
0
10
60.6523076923076
20
10.7900193298698
30
0
0
VERTEX
8
0
10
61.571282051282
20
10.7172873598425
30
0
0
VERTEX
8
0
10
62.4902564102563
20
10.6444753883848
30
0
0
VERTEX
8
0
10
63.4092307692307
20
10.5722052540901
30
0
0
VERTEX
8
0
10
64.328205128205
20
10.5176483024771
30
0
0
VERTEX
8
0
10
65.2471794871794
20
10.4616617077248
30
0
0
VERTEX
8
0
10
66.1661538461537
20
10.4028271772236
30
0
0
VERTEX
8
0
10
67.0851282051281
20
10.3315989811999
30
0
0
VERTEX
8
0
10
68.0041025641025
20
10.2611706948951
30
0
0
VERTEX
8
0
10
68.9230769230768
20
10.1982645407745
30
0
0
VERTEX
8
0
10
69.8420512820512
20
10.1438246804153
30
0
0
VERTEX
8
0
10
70.7610256410255
20
10.0908751899762
30
0
0
VERTEX
8
0
10
71.6799999999999
20
10.0388986970872
30
0
0
VERTEX
8
0
10
72.5989743589742
20
9.98890936986667
30
0
0
VERTEX
8
0
10
73.5179487179486
20
9.93844565187712
30
0
0
VERTEX
8
0
10
74.436923076923
20
9.87675568361288
30
0
0
VERTEX
8
0
10
75.3558974358973
20
9.81540457697279
30
0
0
VERTEX
8
0
10
76.2748717948717
20
9.75680388042253
30
0
0
VERTEX
8
0
10
77.193846153846
20
9.71936118138205
30
0
0
VERTEX
8
0
10
78.1128205128204
20
9.69027697531524
30
0
0
VERTEX
8
0
10
79.0317948717947
20
9.65730169054292
30
0
0
VERTEX
8
0
10
79.9507692307691
20
9.60274489196538
30
0
0
VERTEX
8
0
10
80.8697435897435
20
9.54606851147192
30
0
0
VERTEX
8
0
10
81.7887179487178
20
9.4946566718123
30
0
0
VERTEX
8
0
10
82.7076923076922
20
9.48071714829745
30
0
0
VERTEX
8
0
10
83.6266666666665
20
9.4692456783629
30
0
0
VERTEX
8
0
10
84.5456410256409
20
9.44980855633428
30
0
0
VERTEX
8
0
10
85.4646153846152
20
9.40067767561315
30
0
0
VERTEX
8
0
10
86.3835897435896
20
9.34785701058546
30
0
0
VERTEX
8
0
10
87.3025641025639
20
9.30265868005649
30
0
0
VERTEX
8
0
10
88.2215384615383
20
9.30092749445476
30
0
0
VERTEX
8
0
10
89.1405128205126
20
9.28717879849937
30
0
0
VERTEX
8
0
10
90.059487179487
20
9.24451487203921
30
0
0
VERTEX
8
0
10
90.9784615384614
20
9.19637723739657
30
0
0
VERTEX
8
0
10
91.8974358974357
20
9.14989876667374
30
0
0
VERTEX
8
0
10
92.8164102564101
20
9.11651243083225
30
0
0
VERTEX
8
0
10
93.7353846153844
20
9.09944401866409
30
0
0
VERTEX
8
0
10
94.6543589743588
20
9.08179786607005
30
0
0
VERTEX
8
0
10
95.5733333333331
20
9.0389419907117
30
0
0
VERTEX
8
0
10
96.4923076923075
20
8.9939413247936
30
0
0
VERTEX
8
0
10
97.4112820512818
20
8.95239613883449
30
0
0
VERTEX
8
0
10
98.3302564102562
20
8.92812928911975
30
0
0
VERTEX
8
0
10
99.2492307692306
20
8.91345444850467
30
0
0
VERTEX
8
0
10
100.168205128205
20
8.89379389220926
30
0
0
VERTEX
8
0
10
101.087179487179
20
8.85486486311668
30
0
0
VERTEX
8
0
10
102.006153846154
20
8.81278610400304
30
0
0
VERTEX
8
0
10
102.925128205128
20
8.77594312773646
30
0
0
VERTEX
8
0
10
103.844102564102
20
8.76163196765969
30
0
0
VERTEX
8
0
10
104.763076923077
20
8.74808644477937
30
0
0
VERTEX
8
0
10
105.682051282051
20
8.72798399152721
30
0
0
VERTEX
8
0
10
106.601025641025
20
8.69216314904879
30
0
0
VERTEX
8
0
10
107.52
20
8.65389116967149
30
0
0
VERTEX
8
0
10
108.438974358974
20
8.61658714509034
30
0
0
VERTEX
8
0
10
109.357948717948
20
8.57955063854915
30
0
0
VERTEX
8
0
10
110.276923076923
20
8.54354973184622
30
0
0
VERTEX
8
0
10
111.195897435897
20
8.51710464292911
30
0
0
VERTEX
8
0
10
112.114871794872
20
8.50610353075281
30
0
0
VERTEX
8
0
10
113.033846153846
20
8.4947465910692
30
0
0
VERTEX
8
0
10
113.95282051282
20
8.46231072172492
30
0
0
VERTEX
8
0
10
114.871794871795
20
8.42683559273484
30
0
0
VERTEX
8
0
10
115.790769230769
20
8.39297159622604
30
0
0
VERTEX
8
0
10
116.709743589743
20
8.36494157620972
30
0
0
VERTEX
8
0
10
117.628717948718
20
8.34688283759404
30
0
0
VERTEX
8
0
10
118.547692307692
20
8.330508200098
30
0
0
VERTEX
8
0
10
119.466666666666
20
8.31151054703927
30
0
0
VERTEX
8
0
10
120.385641025641
20
8.29512569945392
30
0
0
VERTEX
8
0
10
121.304615384615
20
8.27499776684943
30
0
0
VERTEX
8
0
10
122.223589743589
20
8.24469553056066
30
0
0
VERTEX
8
0
10
123.142564102564
20
8.21204996817747
30
0
0
VERTEX
8
0
10
124.061538461538
20
8.18424580738889
30
0
0
VERTEX
8
0
10
124.980512820513
20
8.17185053993137
30
0
0
VERTEX
8
0
10
125.899487179487
20
8.1601944021855
30
0
0
VERTEX
8
0
10
126.818461538461
20
8.14634967063554
30
0
0
VERTEX
8
0
10
127.737435897436
20
8.13570798153677
30
0
0
VERTEX
8
0
10
128.65641025641
20
8.1273795681126
30
0
0
VERTEX
8
0
10
129.575384615384
20
8.11366542062977
30
0
0
VERTEX
8
0
10
130.494358974359
20
8.08725448417248
30
0
0
VERTEX
8
0
10
131.413333333333
20
8.05757973289825
30
0
0
VERTEX
8
0
10
132.332307692307
20
8.02891110359817
30
0
0
VERTEX
8
0
10
133.251282051282
20
8.00189950522678
30
0
0
VERTEX
8
0
10
134.170256410256
20
7.97854013579434
30
0
0
VERTEX
8
0
10
135.08923076923
20
7.96639668473518
30
0
0
VERTEX
8
0
10
136.008205128205
20
7.96270288956347
30
0
0
VERTEX
8
0
10
136.927179487179
20
7.96008454830725
30
0
0
VERTEX
8
0
10
137.846153846153
20
7.94770308720716
30
0
0
VERTEX
8
0
10
138.765128205128
20
7.93456369239674
30
0
0
VERTEX
8
0
10
139.684102564102
20
7.91822209358104
30
0
0
VERTEX
8
0
10
140.603076923077
20
7.89312392753001
30
0
0
VERTEX
8
0
10
141.522051282051
20
7.86654249367777
30
0
0
VERTEX
8
0
10
142.441025641025
20
7.8404053460778
30
0
0
VERTEX
8
0
10
143.36
20
7.81430724895502
30
0
0
VERTEX
8
0
10
144.278974358974
20
7.78796620517855
30
0
0
VERTEX
8
0
10
145.197948717948
20
7.76723100801463
30
0
0
VERTEX
8
0
10
146.116923076923
20
7.76227010983371
30
0
0
VERTEX
8
0
10
147.035897435897
20
7.76211095939658
30
0
0
VERTEX
8
0
10
147.954871794871
20
7.75787848143646
30
0
0
VERTEX
8
0
10
148.873846153846
20
7.75065683590857
30
0
0
VERTEX
8
0
10
149.79282051282
20
7.7448971091361
30
0
0
VERTEX
8
0
10
150.711794871795
20
7.73437181493553
30
0
0
VERTEX
8
0
10
151.630769230769
20
7.71341289731084
30
0
0
VERTEX
8
0
10
152.549743589743
20
7.68897891145803
30
0
0
VERTEX
8
0
10
153.468717948718
20
7.66492226102708
30
0
0
VERTEX
8
0
10
154.387692307692
20
7.64101076143892
30
0
0
VERTEX
8
0
10
155.306666666666
20
7.61819842246436
30
0
0
VERTEX
8
0
10
156.225641025641
20
7.60200283130624
30
0
0
VERTEX
8
0
10
157.144615384615
20
7.59580312394214
30
0
0
VERTEX
8
0
10
158.063589743589
20
7.59407257697293
30
0
0
VERTEX
8
0
10
158.982564102564
20
7.5892926041548
30
0
0
VERTEX
8
0
10
159.901538461538
20
7.58751716264727
30
0
0
VERTEX
8
0
10
160.820512820513
20
7.58118055638154
30
0
0
VERTEX
8
0
10
161.739487179487
20
7.56181844110034
30
0
0
VERTEX
8
0
10
162.658461538461
20
7.53931275161084
30
0
0
VERTEX
8
0
10
163.577435897436
20
7.51715704347058
30
0
0
VERTEX
8
0
10
164.49641025641
20
7.49526506657709
30
0
0
VERTEX
8
0
10
165.415384615384
20
7.47357031286851
30
0
0
VERTEX
8
0
10
166.334358974359
20
7.45553205082254
30
0
0
VERTEX
8
0
10
167.253333333333
20
7.44505758208725
30
0
0
VERTEX
8
0
10
168.172307692308
20
7.43595169220559
30
0
0
VERTEX
8
0
10
169.091282051282
20
7.42699920172494
30
0
0
VERTEX
8
0
10
170.010256410256
20
7.42288614962583
30
0
0
VERTEX
8
0
10
170.929230769231
20
7.42139853428759
30
0
0
VERTEX
8
0
10
171.848205128205
20
7.41411688227759
30
0
0
SEQEND
8
0
0
POLYLINE
8
0
62
4
70
0
10
0
20
0
30
0
0
VERTEX
8
0
10
1.83794871794872
20
17.3031287131893
30
0
0
VERTEX
8
0
10
2.75692307692308
20
18.357688949806
30
0
0
VERTEX
8
0
10
3.67589743589744
20
19.4329897236105
30
0
0
VERTEX
8
0
10
4.59487179487179
20
20.4672725728612
30
0
0
VERTEX
8
0
10
5.51384615384615
20
20.980154531598
30
0
0
VERTEX
8
0
10
6.43282051282051
20
21.1619348321676
30
0
0
VERTEX
8
0
10
7.35179487179487
20
21.3403016832955
30
0
0
VERTEX
8
0
10
8.27076923076923
20
21.308630788132
30
0
0
VERTEX
8
0
10
9.18974358974359
20
21.2763601606734
30
0
0
VERTEX
8
0
10
10.1087179487179
20
21.2577477560561
30
0
0
VERTEX
8
0
10
11.0276923076923
20
21.1319101322661
30
0
0
VERTEX
8
0
10
11.9466666666667
20
21.0457212692683
30
0
0
VERTEX
8
0
10
12.865641025641
20
20.9683114656103
30
0
0
VERTEX
8
0
10
13.7846153846154
20
20.8221763528476
30
0
0
VERTEX
8
0
10
14.7035897435897
20
20.7130070240445
30
0
0
VERTEX
8
0
10
15.6225641025641
20
20.589393001492
30
0
0
VERTEX
8
0
10
16.5415384615385
20
20.4762522455068
30
0
0
VERTEX
8
0
10
17.4605128205128
20
20.3739850652476
30
0
0
VERTEX
8
0
10
18.3794871794872
20
20.2574615830141
30
0
0
VERTEX
8
0
10
19.2984615384615
20
20.1801365637206
30
0
0
VERTEX
8
0
10
20.2174358974359
20
20.1077406528078
30
0
0
VERTEX
8
0
10
21.1364102564103
20
20.0190373188968
30
0
0
VERTEX
8
0
10
22.0553846153846
20
19.9134542384706
30
0
0
VERTEX
8
0
10
22.974358974359
20
19.8179230341387
30
0
0
VERTEX
8
0
10
23.8933333333333
20
19.7108446625026
30
0
0
VERTEX
8
0
10
24.8123076923077
20
19.6335182874704
30
0
0
VERTEX
8
0
10
25.7312820512821
20
19.5545811225453
30
0
0
VERTEX
8
0
10
26.6502564102564
20
19.4681377994661
30
0
0
VERTEX
8
0
10
27.5692307692308
20
19.3878378148232
30
0
0
VERTEX
8
0
10
28.4882051282051
20
19.3124514205667
30
0
0
VERTEX
8
0
10
29.4071794871795
20
19.2325082994583
30
0
0
VERTEX
8
0
10
30.3261538461539
20
19.1583249230876
30
0
0
VERTEX
8
0
10
31.2451282051282
20
19.0879083968216
30
0
0
VERTEX
8
0
10
32.1641025641026
20
19.0123918344894
30
0
0
VERTEX
8
0
10
33.0830769230769
20
18.9480399500462
30
0
0
VERTEX
8
0
10
34.0020512820513
20
18.8840945547298
30
0
0
VERTEX
8
0
10
34.9210256410257
20
18.8287683811284
30
0
0
VERTEX
8
0
10
35.84
20
18.7863017039678
30
0
0
VERTEX
8
0
10
36.7589743589744
20
18.7380251048723
30
0
0
VERTEX
8
0
10
37.6779487179487
20
18.6746855036914
30
0
0
VERTEX
8
0
10
38.5969230769231
20
18.6140548803858
30
0
0
VERTEX
8
0
10
39.5158974358974
20
18.5517242837028
30
0
0
VERTEX
8
0
10
40.4348717948718
20
18.5148320393401
30
0
0
VERTEX
8
0
10
41.3538461538461
20
18.480033197355
30
0
0
VERTEX
8
0
10
42.2728205128205
20
18.4397680079401
30
0
0
VERTEX
8
0
10
43.1917948717949
20
18.3993260271875
30
0
0
VERTEX
8
0
10
44.1107692307692
20
18.3622519302606
30
0
0
VERTEX
8
0
10
45.0297435897436
20
18.3213061775975
30
0
0
VERTEX
8
0
10
45.9487179487179
20
18.2908882085159
30
0
0
VERTEX
8
0
10
46.8676923076923
20
18.2613815158395
30
0
0
VERTEX
8
0
10
47.7866666666666
20
18.2292985784984
30
0
0
VERTEX
8
0
10
48.705641025641
20
18.2004718156613
30
0
0
VERTEX
8
0
10
49.6246153846154
20
18.174403651758
30
0
0
VERTEX
8
0
10
50.5435897435897
20
18.1399901006803
30
0
0
VERTEX
8
0
10
51.4625641025641
20
18.1053372936918
30
0
0
VERTEX
8
0
10
52.3815384615384
20
18.0718865210967
30
0
0
VERTEX
8
0
10
53.3005128205128
20
18.0363801771633
30
0
0
VERTEX
8
0
10
54.2194871794871
20
18.0047510374826
30
0
0
VERTEX
8
0
10
55.1384615384615
20
17.9733840969217
30
0
0
VERTEX
8
0
10
56.0574358974358
20
17.9462633839954
30
0
0
VERTEX
8
0
10
56.9764102564102
20
17.9250928890381
30
0
0
VERTEX
8
0
10
57.8953846153846
20
17.9011402677481
30
0
0
VERTEX
8
0
10
58.8143589743589
20
17.8719818268706
30
0
0
VERTEX
8
0
10
59.7333333333333
20
17.8439253684615
30
0
0
VERTEX
8
0
10
60.6523076923076
20
17.8150115223196
30
0
0
VERTEX
8
0
10
61.571282051282
20
17.7883468177358
30
0
0
VERTEX
8
0
10
62.4902564102563
20
17.7623975640265
30
0
0
VERTEX
8
0
10
63.4092307692307
20
17.736302814445
30
0
0
VERTEX
8
0
10
64.328205128205
20
17.7205486783262
30
0
0
VERTEX
8
0
10
65.2471794871794
20
17.7057582348796
30
0
0
VERTEX
8
0
10
66.1661538461537
20
17.6873236902261
30
0
0
VERTEX
8
0
10
67.0851282051281
20
17.6619601398819
30
0
0
VERTEX
8
0
10
68.0041025641025
20
17.6371153083682
30
0
0
VERTEX
8
0
10
68.9230769230768
20
17.6168796014987
30
0
0
VERTEX
8
0
10
69.8420512820512
20
17.6015660322942
30
0
0
VERTEX
8
0
10
70.7610256410255
20
17.5883723001126
30
0
0
VERTEX
8
0
10
71.6799999999999
20
17.5742141812321
30
0
0
VERTEX
8
0
10
72.5989743589742
20
17.5618164199375
30
0
0
VERTEX
8
0
10
73.5179487179486
20
17.5499230328393
30
0
0
VERTEX
8
0
10
74.436923076923
20
17.5303067657579
30
0
0
VERTEX
8
0
10
75.3558974358973
20
17.5115979591758
30
0
0
VERTEX
8
0
10
76.2748717948717
20
17.4947528507483
30
0
0
VERTEX
8
0
10
77.193846153846
20
17.4884950602425
30
0
0
VERTEX
8
0
10
78.1128205128204
20
17.4908894546978
30
0
0
VERTEX
8
0
10
79.0317948717947
20
17.4887832245059
30
0
0
VERTEX
8
0
10
79.9507692307691
20
17.4747476970181
30
0
0
VERTEX
8
0
10
80.8697435897435
20
17.4596322380605
30
0
0
VERTEX
8
0
10
81.7887179487178
20
17.4477905914177
30
0
0
VERTEX
8
0
10
82.7076923076922
20
17.4550999023365
30
0
0
VERTEX
8
0
10
83.6266666666665
20
17.4688711757448
30
0
0
VERTEX
8
0
10
84.5456410256409
20
17.4738409524285
30
0
0
VERTEX
8
0
10
85.4646153846152
20
17.4632921959554
30
0
0
VERTEX
8
0
10
86.3835897435896
20
17.450634025883
30
0
0
VERTEX
8
0
10
87.3025641025639
20
17.4423140366588
30
0
0
VERTEX
8
0
10
88.2215384615383
20
17.456485808152
30
0
0
VERTEX
8
0
10
89.1405128205126
20
17.4677538029911
30
0
0
VERTEX
8
0
10
90.059487179487
20
17.459192177179
30
0
0
VERTEX
8
0
10
90.9784615384614
20
17.4487417010846
30
0
0
VERTEX
8
0
10
91.8974358974357
20
17.4391635874644
30
0
0
VERTEX
8
0
10
92.8164102564101
20
17.4366766184267
30
0
0
VERTEX
8
0
10
93.7353846153844
20
17.4425964088603
30
0
0
VERTEX
8
0
10
94.6543589743588
20
17.4502228139098
30
0
0
VERTEX
8
0
10
95.5733333333331
20
17.4408560698725
30
0
0
VERTEX
8
0
10
96.4923076923075
20
17.4317701592516
30
0
0
VERTEX
8
0
10
97.4112820512818
20
17.4245531821338
30
0
0
VERTEX
8
0
10
98.3302564102562
20
17.4245747795866
30
0
0
VERTEX
8
0
10
99.2492307692306
20
17.4336901700163
30
0
0
VERTEX
8
0
10
100.168205128205
20
17.4376093676937
30
0
0
VERTEX
8
0
10
101.087179487179
20
17.431549035559
30
0
0
VERTEX
8
0
10
102.006153846154
20
17.4237593471966
30
0
0
VERTEX
8
0
10
102.925128205128
20
17.4187328627449
30
0
0
VERTEX
8
0
10
103.844102564102
20
17.4239462308382
30
0
0
VERTEX
8
0
10
104.763076923077
20
17.4330177440161
30
0
0
VERTEX
8
0
10
105.682051282051
20
17.4356588947179
30
0
0
VERTEX
8
0
10
106.601025641025
20
17.4307341336558
30
0
0
VERTEX
8
0
10
107.52
20
17.4243884491198
30
0
0
VERTEX
8
0
10
108.438974358974
20
17.4184594813743
30
0
0
VERTEX
8
0
10
109.357948717948
20
17.4126637881187
30
0
0
VERTEX
8
0
10
110.276923076923
20
17.4074637844164
30
0
0
VERTEX
8
0
10
111.195897435897
20
17.4071831246533
30
0
0
VERTEX
8
0
10
112.114871794872
20
17.4140378720978
30
0
0
VERTEX
8
0
10
113.033846153846
20
17.4231180390276
30
0
0
VERTEX
8
0
10
113.95282051282
20
17.4185377464764
30
0
0
VERTEX
8
0
10
114.871794871795
20
17.4135187272318
30
0
0
VERTEX
8
0
10
115.790769230769
20
17.4093088248483
30
0
0
VERTEX
8
0
10
116.709743589743
20
17.4066309484267
30
0
0
VERTEX
8
0
10
117.628717948718
20
17.4117383173476
30
0
0
VERTEX
8
0
10
118.547692307692
20
17.4178026666522
30
0
0
VERTEX
8
0
10
119.466666666666
20
17.4182878310747
30
0
0
VERTEX
8
0
10
120.385641025641
20
17.4242184845796
30
0
0
VERTEX
8
0
10
121.304615384615
20
17.4266026428042
30
0
0
VERTEX
8
0
10
122.223589743589
20
17.4240875819917
30
0
0
VERTEX
8
0
10
123.142564102564
20
17.4204181681596
30
0
0
VERTEX
8
0
10
124.061538461538
20
17.4191695744097
30
0
0
VERTEX
8
0
10
124.980512820513
20
17.4242089155371
30
0
0
VERTEX
8
0
10
125.899487179487
20
17.4326466612366
30
0
0
VERTEX
8
0
10
126.818461538461
20
17.4376534146452
30
0
0
VERTEX
8
0
10
127.737435897436
20
17.4436141328409
30
0
0
VERTEX
8
0
10
128.65641025641
20
17.4536614698743
30
0
0
VERTEX
8
0
10
129.575384615384
20
17.4579783929344
30
0
0
VERTEX
8
0
10
130.494358974359
20
17.4569801755464
30
0
0
VERTEX
8
0
10
131.413333333333
20
17.454285838863
30
0
0
VERTEX
8
0
10
132.332307692307
20
17.4520095838072
30
0
0
VERTEX
8
0
10
133.251282051282
20
17.4504547190398
30
0
0
VERTEX
8
0
10
134.170256410256
20
17.451271927017
30
0
0
VERTEX
8
0
10
135.08923076923
20
17.456472863609
30
0
0
VERTEX
8
0
10
136.008205128205
20
17.4656791454824
30
0
0
VERTEX
8
0
10
136.927179487179
20
17.4781866948518
30
0
0
VERTEX
8
0
10
137.846153846153
20
17.4800379379489
30
0
0
VERTEX
8
0
10
138.765128205128
20
17.4862437388106
30
0
0
VERTEX
8
0
10
139.684102564102
20
17.4902013625974
30
0
0
VERTEX
8
0
10
140.603076923077
20
17.4882155976507
30
0
0
VERTEX
8
0
10
141.522051282051
20
17.486219161971
30
0
0
VERTEX
8
0
10
142.441025641025
20
17.4843504461999
30
0
0
VERTEX
8
0
10
143.36
20
17.4824766125832
30
0
0
VERTEX
8
0
10
144.278974358974
20
17.4805294873807
30
0
0
VERTEX
8
0
10
145.197948717948
20
17.4812492190909
30
0
0
VERTEX
8
0
10
146.116923076923
20
17.4875385341175
30
0
0
VERTEX
8
0
10
147.035897435897
20
17.5002903996097
30
0
0
VERTEX
8
0
10
147.954871794871
20
17.5077856225956
30
0
0
VERTEX
8
0
10
148.873846153846
20
17.5135237664211
30
0
0
VERTEX
8
0
10
149.79282051282
20
17.522787904062
30
0
0
VERTEX
8
0
10
150.711794871795
20
17.5267850027354
30
0
0
VERTEX
8
0
10
151.630769230769
20
17.5267247115694
30
0
0
VERTEX
8
0
10
152.549743589743
20
17.5249048962452
30
0
0
VERTEX
8
0
10
153.468717948718
20
17.5231340986609
30
0
0
VERTEX
8
0
10
154.387692307692
20
17.521364734787
30
0
0
VERTEX
8
0
10
155.306666666666
20
17.5200805323146
30
0
0
VERTEX
8
0
10
156.225641025641
20
17.5217876141333
30
0
0
VERTEX
8
0
10
157.144615384615
20
17.5275798266995
30
0
0
VERTEX
8
0
10
158.063589743589
20
17.5379917374482
30
0
0
VERTEX
8
0
10
158.982564102564
20
17.5404699657989
30
0
0
VERTEX
8
0
10
159.901538461538
20
17.5505933454679
30
0
0
VERTEX
8
0
10
160.820512820513
20
17.5579337132015
30
0
0
VERTEX
8
0
10
161.739487179487
20
17.5559051845266
30
0
0
VERTEX
8
0
10
162.658461538461
20
17.553873636396
30
0
0
VERTEX
8
0
10
163.577435897436
20
17.5518380142823
30
0
0
VERTEX
8
0
10
164.49641025641
20
17.5498072046599
30
0
0
VERTEX
8
0
10
165.415384615384
20
17.5477953456858
30
0
0
VERTEX
8
0
10
166.334358974359
20
17.5473572443496
30
0
0
VERTEX
8
0
10
167.253333333333
20
17.5492567136599
30
0
0
VERTEX
8
0
10
168.172307692308
20
17.5539679116691
30
0
0
VERTEX
8
0
10
169.091282051282
20
17.5569807636099
30
0
0
VERTEX
8
0
10
170.010256410256
20
17.5611578138543
30
0
0
VERTEX
8
0
10
170.929230769231
20
17.5696499250766
30
0
0
VERTEX
8
0
10
171.848205128205
20
17.5723545768743
30
0
0
SEQEND
8
0
0
POLYLINE
8
0
62
2
70
0
10
0
20
0
30
0
0
VERTEX
8
0
10
1.83794871794872
20
4.67592162292924
30
0
0
VERTEX
8
0
10
2.75692307692308
20
15.3796746452032
30
0
0
VERTEX
8
0
10
3.67589743589744
20
13.0735595135687
30
0
0
VERTEX
8
0
10
4.59487179487179
20
21.8652618887737
30
0
0
VERTEX
8
0
10
5.51384615384615
20
19.2367362660758
30
0
0
VERTEX
8
0
10
6.43282051282051
20
21.9317642977115
30
0
0
VERTEX
8
0
10
7.35179487179487
20
24.3128797329556
30
0
0
VERTEX
8
0
10
8.27076923076923
20
25.5638805961659
30
0
0
VERTEX
8
0
10
9.18974358974359
20
28.3541452051368
30
0
0
VERTEX
8
0
10
10.1087179487179
20
28.954475106297
30
0
0
VERTEX
8
0
10
11.0276923076923
20
31.6757166857994
30
0
0
VERTEX
8
0
10
11.9466666666667
20
31.9787435132005
30
0
0
VERTEX
8
0
10
12.865641025641
20
33.3341962223721
30
0
0
VERTEX
8
0
10
13.7846153846154
20
34.5872200061016
30
0
0
VERTEX
8
0
10
14.7035897435897
20
35.5486106376506
30
0
0
VERTEX
8
0
10
15.6225641025641
20
36.8044800039221
30
0
0
VERTEX
8
0
10
16.5415384615385
20
37.4396703540353
30
0
0
VERTEX
8
0
10
17.4605128205128
20
38.6683623593551
30
0
0
VERTEX
8
0
10
18.3794871794872
20
39.076601766117
30
0
0
VERTEX
8
0
10
19.2984615384615
20
39.7987512049741
30
0
0
VERTEX
8
0
10
20.2174358974359
20
40.4582030642979
30
0
0
VERTEX
8
0
10
21.1364102564103
20
40.9959794389716
30
0
0
VERTEX
8
0
10
22.0553846153846
20
41.5971393798136
30
0
0
VERTEX
8
0
10
22.974358974359
20
41.9491306252914
30
0
0
VERTEX
8
0
10
23.8933333333333
20
42.5113235844186
30
0
0
VERTEX
8
0
10
24.8123076923077
20
42.7182128821141
30
0
0
VERTEX
8
0
10
25.7312820512821
20
43.0361932464241
30
0
0
VERTEX
8
0
10
26.6502564102564
20
43.3116241704961
30
0
0
VERTEX
8
0
10
27.5692307692308
20
43.5250029694958
30
0
0
VERTEX
8
0
10
28.4882051282051
20
43.7413730717449
30
0
0
VERTEX
8
0
10
29.4071794871795
20
43.8410787815067
30
0
0
VERTEX
8
0
10
30.3261538461539
20
44.0210392076674
30
0
0
VERTEX
8
0
10
31.2451282051282
20
44.028045441407
30
0
0
VERTEX
8
0
10
32.1641025641026
20
44.0761269437817
30
0
0
VERTEX
8
0
10
33.0830769230769
20
44.0956870864248
30
0
0
VERTEX
8
0
10
34.0020512820513
20
44.0811241533712
30
0
0
VERTEX
8
0
10
34.9210256410257
20
44.0547867101455
30
0
0
VERTEX
8
0
10
35.84
20
43.9700690434811
30
0
0
VERTEX
8
0
10
36.7589743589744
20
43.9164804481356
30
0
0
VERTEX
8
0
10
37.6779487179487
20
43.7740823550044
30
0
0
VERTEX
8
0
10
38.5969230769231
20
43.6470725732304
30
0
0
VERTEX
8
0
10
39.5158974358974
20
43.5022516854534
30
0
0
VERTEX
8
0
10
40.4348717948718
20
43.339065476541
30
0
0
VERTEX
8
0
10
41.3538461538461
20
43.1638086257428
30
0
0
VERTEX
8
0
10
42.2728205128205
20
42.9594879814668
30
0
0
VERTEX
8
0
10
43.1917948717949
20
42.767879741114
30
0
0
VERTEX
8
0
10
44.1107692307692
20
42.5305029766525
30
0
0
VERTEX
8
0
10
45.0297435897436
20
42.2999126223059
30
0
0
VERTEX
8
0
10
45.9487179487179
20
42.0598636824944
30
0
0
VERTEX
8
0
10
46.8676923076923
20
41.8114700824157
30
0
0
VERTEX
8
0
10
47.7866666666666
20
41.5551287241794
30
0
0
VERTEX
8
0
10
48.705641025641
20
41.2859269168338
30
0
0
VERTEX
8
0
10
49.6246153846154
20
41.0235509965105
30
0
0
VERTEX
8
0
10
50.5435897435897
20
40.7389714012433
30
0
0
VERTEX
8
0
10
51.4625641025641
20
40.459407687472
30
0
0
VERTEX
8
0
10
52.3815384615384
20
40.1767807455864
30
0
0
VERTEX
8
0
10
53.3005128205128
20
39.8925558961146
30
0
0
VERTEX
8
0
10
54.2194871794871
20
39.6051868821195
30
0
0
VERTEX
8
0
10
55.1384615384615
20
39.3144530869373
30
0
0
VERTEX
8
0
10
56.0574358974358
20
39.0296276023444
30
0
0
VERTEX
8
0
10
56.9764102564102
20
38.7360088589739
30
0
0
VERTEX
8
0
10
57.8953846153846
20
38.4480930078439
30
0
0
VERTEX
8
0
10
58.8143589743589
20
38.1617657711976
30
0
0
VERTEX
8
0
10
59.7333333333333
20
37.8783739931693
30
0
0
VERTEX
8
0
10
60.6523076923076
20
37.5958971016411
30
0
0
VERTEX
8
0
10
61.571282051282
20
37.3157408702472
30
0
0
VERTEX
8
0
10
62.4902564102563
20
37.0422288101614
30
0
0
VERTEX
8
0
10
63.4092307692307
20
36.7676987213728
30
0
0
VERTEX
8
0
10
64.328205128205
20
36.5001958293432
30
0
0
VERTEX
8
0
10
65.2471794871794
20
36.2375993444913
30
0
0
VERTEX
8
0
10
66.1661538461537
20
35.981143492367
30
0
0
VERTEX
8
0
10
67.0851282051281
20
35.7290230288585
30
0
0
VERTEX
8
0
10
68.0041025641025
20
35.4835223253707
30
0
0
VERTEX
8
0
10
68.9230769230768
20
35.2475038313612
30
0
0
VERTEX
8
0
10
69.8420512820512
20
35.016527381066
30
0
0
VERTEX
8
0
10
70.7610256410255
20
34.7931217962851
30
0
0
VERTEX
8
0
10
71.6799999999999
20
34.574626633799
30
0
0
VERTEX
8
0
10
72.5989743589742
20
34.3609765173533
30
0
0
VERTEX
8
0
10
73.5179487179486
20
34.1495714376739
30
0
0
VERTEX
8
0
10
74.436923076923
20
33.9416731721848
30
0
0
VERTEX
8
0
10
75.3558974358973
20
33.7374372059254
30
0
0
VERTEX
8
0
10
76.2748717948717
20
33.5342045907731
30
0
0
VERTEX
8
0
10
77.193846153846
20
33.3342678700013
30
0
0
VERTEX
8
0
10
78.1128205128204
20
33.1366096373759
30
0
0
VERTEX
8
0
10
79.0317948717947
20
32.9416416584489
30
0
0
VERTEX
8
0
10
79.9507692307691
20
32.7475535356454
30
0
0
VERTEX
8
0
10
80.8697435897435
20
32.5557672285349
30
0
0
VERTEX
8
0
10
81.7887179487178
20
32.3661094292639
30
0
0
VERTEX
8
0
10
82.7076923076922
20
32.1773161067655
30
0
0
VERTEX
8
0
10
83.6266666666665
20
31.9906919013761
30
0
0
VERTEX
8
0
10
84.5456410256409
20
31.8057285310464
30
0
0
VERTEX
8
0
10
85.4646153846152
20
31.6228141761581
30
0
0
VERTEX
8
0
10
86.3835897435896
20
31.4406206190676
30
0
0
VERTEX
8
0
10
87.3025641025639
20
31.2603730407313
30
0
0
VERTEX
8
0
10
88.2215384615383
20
31.081737566601
30
0
0
VERTEX
8
0
10
89.1405128205126
20
30.9041784295343
30
0
0
VERTEX
8
0
10
90.059487179487
20
30.7283768960527
30
0
0
VERTEX
8
0
10
90.9784615384614
20
30.5540890983252
30
0
0
VERTEX
8
0
10
91.8974358974357
20
30.3816183977547
30
0
0
VERTEX
8
0
10
92.8164102564101
20
30.2100230485603
30
0
0
VERTEX
8
0
10
93.7353846153844
20
30.0402478187844
30
0
0
VERTEX
8
0
10
94.6543589743588
20
29.8719388106068
30
0
0
VERTEX
8
0
10
95.5733333333331
20
29.7049242032516
30
0
0
VERTEX
8
0
10
96.4923076923075
20
29.5395231599647
30
0
0
VERTEX
8
0
10
97.4112820512818
20
29.3756272216193
30
0
0
VERTEX
8
0
10
98.3302564102562
20
29.2134468855339
30
0
0
VERTEX
8
0
10
99.2492307692306
20
29.0523465721016
30
0
0
VERTEX
8
0
10
100.168205128205
20
28.8929894819268
30
0
0
VERTEX
8
0
10
101.087179487179
20
28.7350732529572
30
0
0
VERTEX
8
0
10
102.006153846154
20
28.578583218104
30
0
0
VERTEX
8
0
10
102.925128205128
20
28.4236409949684
30
0
0
VERTEX
8
0
10
103.844102564102
20
28.2702003753604
30
0
0
VERTEX
8
0
10
104.763076923077
20
28.1183880230158
30
0
0
VERTEX
8
0
10
105.682051282051
20
27.9678024033412
30
0
0
VERTEX
8
0
10
106.601025641025
20
27.8188601534515
30
0
0
VERTEX
8
0
10
107.52
20
27.6713377048357
30
0
0
VERTEX
8
0
10
108.438974358974
20
27.5252669919169
30
0
0
VERTEX
8
0
10
109.357948717948
20
27.380672277342
30
0
0
VERTEX
8
0
10
110.276923076923
20
27.237531598037
30
0
0
VERTEX
8
0
10
111.195897435897
20
27.0959058802617
30
0
0
VERTEX
8
0
10
112.114871794872
20
26.955568368566
30
0
0
VERTEX
8
0
10
113.033846153846
20
26.8167421721697
30
0
0
VERTEX
8
0
10
113.95282051282
20
26.6792889052974
30
0
0
VERTEX
8
0
10
114.871794871795
20
26.5432397234986
30
0
0
VERTEX
8
0
10
115.790769230769
20
26.4085862623868
30
0
0
VERTEX
8
0
10
116.709743589743
20
26.2753209671704
30
0
0
VERTEX
8
0
10
117.628717948718
20
26.1434692015631
30
0
0
VERTEX
8
0
10
118.547692307692
20
26.0129401387029
30
0
0
VERTEX
8
0
10
119.466666666666
20
25.8838359497416
30
0
0
VERTEX
8
0
10
120.385641025641
20
25.756112259078
30
0
0
VERTEX
8
0
10
121.304615384615
20
25.6297986780596
30
0
0
VERTEX
8
0
10
122.223589743589
20
25.5049036340083
30
0
0
VERTEX
8
0
10
123.142564102564
20
25.3814628176032
30
0
0
VERTEX
8
0
10
124.061538461538
20
25.2595404939711
30
0
0
VERTEX
8
0
10
124.980512820513
20
25.1392051703761
30
0
0
VERTEX
8
0
10
125.899487179487
20
25.0205928300541
30
0
0
VERTEX
8
0
10
126.818461538461
20
24.9038612159525
30
0
0
VERTEX
8
0
10
127.737435897436
20
24.7892562550141
30
0
0
VERTEX
8
0
10
128.65641025641
20
24.6771290515939
30
0
0
VERTEX
8
0
10
129.575384615384
20
24.567730007925
30
0
0
VERTEX
8
0
10
130.494358974359
20
24.4608617627427
30
0
0
VERTEX
8
0
10
131.413333333333
20
24.3562145704906
30
0
0
VERTEX
8
0
10
132.332307692307
20
24.2535701112055
30
0
0
VERTEX
8
0
10
133.251282051282
20
24.1527732332578
30
0
0
VERTEX
8
0
10
134.170256410256
20
24.0537045519583
30
0
0
VERTEX
8
0
10
135.08923076923
20
23.956266992454
30
0
0
VERTEX
8
0
10
136.008205128205
20
23.8603786848248
30
0
0
VERTEX
8
0
10
136.927179487179
20
23.7659687982981
30
0
0
VERTEX
8
0
10
137.846153846153
20
23.6729748928699
30
0
0
VERTEX
8
0
10
138.765128205128
20
23.5813411310534
30
0
0
VERTEX
8
0
10
139.684102564102
20
23.4910170133702
30
0
0
VERTEX
8
0
10
140.603076923077
20
23.4019564509357
30
0
0
VERTEX
8
0
10
141.522051282051
20
23.3141170648091
30
0
0
VERTEX
8
0
10
142.441025641025
20
23.2274596434821
30
0
0
VERTEX
8
0
10
143.36
20
23.1419477140124
30
0
0
VERTEX
8
0
10
144.278974358974
20
23.0575471969287
30
0
0
VERTEX
8
0
10
145.197948717948
20
22.9742261242502
30
0
0
VERTEX
8
0
10
146.116923076923
20
22.8919544059667
30
0
0
VERTEX
8
0
10
147.035897435897
20
22.8107036343531
30
0
0
VERTEX
8
0
10
147.954871794871
20
22.7304469182572
30
0
0
VERTEX
8
0
10
148.873846153846
20
22.6511587414513
30
0
0
VERTEX
8
0
10
149.79282051282
20
22.5728148405263
30
0
0
VERTEX
8
0
10
150.711794871795
20
22.4953920988315
30
0
0
VERTEX
8
0
10
151.630769230769
20
22.4188684537105
30
0
0
VERTEX
8
0
10
152.549743589743
20
22.3432228148585
30
0
0
VERTEX
8
0
10
153.468717948718
20
22.2684349920508
30
0
0
VERTEX
8
0
10
154.387692307692
20
22.1944856308305
30
0
0
VERTEX
8
0
10
155.306666666666
20
22.1213561550005
30
0
0
VERTEX
8
0
10
156.225641025641
20
22.0490287149689
30
0
0
VERTEX
8
0
10
157.144615384615
20
21.9774861411604
30
0
0
VERTEX
8
0
10
158.063589743589
20
21.9067119018351
30
0
0
VERTEX
8
0
10
158.982564102564
20
21.8366900647601
30
0
0
VERTEX
8
0
10
159.901538461538
20
21.7674052622691
30
0
0
VERTEX
8
0
10
160.820512820513
20
21.6988426593086
30
0
0
VERTEX
8
0
10
161.739487179487
20
21.6309879241321
30
0
0
VERTEX
8
0
10
162.658461538461
20
21.5638272013503
30
0
0
VERTEX
8
0
10
163.577435897436
20
21.497347087084
30
0
0
VERTEX
8
0
10
164.49641025641
20
21.4315346060003
30
0
0
VERTEX
8
0
10
165.415384615384
20
21.3663771900435
30
0
0
VERTEX
8
0
10
166.334358974359
20
21.3018626586915
30
0
0
VERTEX
8
0
10
167.253333333333
20
21.2379792005934
30
0
0
VERTEX
8
0
10
168.172307692308
20
21.1747153564586
30
0
0
VERTEX
8
0
10
169.091282051282
20
21.1120600030835
30
0
0
VERTEX
8
0
10
170.010256410256
20
21.0500023384151
30
0
0
VERTEX
8
0
10
170.929230769231
20
20.9885318675625
30
0
0
VERTEX
8
0
10
171.848205128205
20
20.9276383896743
30
0
0
SEQEND
8
0
0
POLYLINE
8
0
62
3
70
0
10
0
20
0
30
0
0
VERTEX
8
0
10
1.83794871794872
20
5.91928789153223
30
0
0
VERTEX
8
0
10
2.75692307692308
20
16.2723056072012
30
0
0
VERTEX
8
0
10
3.67589743589744
20
14.824213378989
30
0
0
VERTEX
8
0
10
4.59487179487179
20
23.4837498266806
30
0
0
VERTEX
8
0
10
5.51384615384615
20
21.7388050372622
30
0
0
VERTEX
8
0
10
6.43282051282051
20
24.8167504063565
30
0
0
VERTEX
8
0
10
7.35179487179487
20
27.5933487288239
30
0
0
VERTEX
8
0
10
8.27076923076923
20
29.370689163884
30
0
0
VERTEX
8
0
10
9.18974358974359
20
32.44412450033
30
0
0
VERTEX
8
0
10
10.1087179487179
20
33.6162899941124
30
0
0
VERTEX
8
0
10
11.0276923076923
20
36.5798765073589
30
0
0
VERTEX
8
0
10
11.9466666666667
20
37.4602561241584
30
0
0
VERTEX
8
0
10
12.865641025641
20
39.2162627412896
30
0
0
VERTEX
8
0
10
13.7846153846154
20
40.8642618385302
30
0
0
VERTEX
8
0
10
14.7035897435897
20
42.2578396810482
30
0
0
VERTEX
8
0
10
15.6225641025641
20
43.8548307695004
30
0
0
VERTEX
8
0
10
16.5415384615385
20
44.9351106537979
30
0
0
VERTEX
8
0
10
17.4605128205128
20
46.4696653400603
30
0
0
VERTEX
8
0
10
18.3794871794872
20
47.3240900019029
30
0
0
VERTEX
8
0
10
19.2984615384615
20
48.4109355835299
30
0
0
VERTEX
8
0
10
20.2174358974359
20
49.4280497149066
30
0
0
VERTEX
8
0
10
21.1364102564103
20
50.3380531179223
30
0
0
VERTEX
8
0
10
22.0553846153846
20
51.2622049994225
30
0
0
VERTEX
8
0
10
22.974358974359
20
51.986529512375
30
0
0
VERTEX
8
0
10
23.8933333333333
20
52.8461399668276
30
0
0
VERTEX
8
0
10
24.8123076923077
20
53.4210934524859
30
0
0
VERTEX
8
0
10
25.7312820512821
20
54.0615211590733
30
0
0
VERTEX
8
0
10
26.6502564102564
20
54.652929386523
30
0
0
VERTEX
8
0
10
27.5692307692308
20
55.1884288833744
30
0
0
VERTEX
8
0
10
28.4882051282051
20
55.6961787776333
30
0
0
VERTEX
8
0
10
29.4071794871795
20
56.1135623087476
30
0
0
VERTEX
8
0
10
30.3261538461539
20
56.5661614026312
30
0
0
VERTEX
8
0
10
31.2451282051282
20
56.8846556675779
30
0
0
VERTEX
8
0
10
32.1641025641026
20
57.2161152429009
30
0
0
VERTEX
8
0
10
33.0830769230769
20
57.513576155972
30
0
0
VERTEX
8
0
10
34.0020512820513
20
57.7793055625332
30
0
0
VERTEX
8
0
10
34.9210256410257
20
58.0128649674864
30
0
0
VERTEX
8
0
10
35.84
20
58.2027663291109
30
0
0
VERTEX
8
0
10
36.7589743589744
20
58.3951759800261
30
0
0
VERTEX
8
0
10
37.6779487179487
20
58.5210426415548
30
0
0
VERTEX
8
0
10
38.5969230769231
20
58.6440714137836
30
0
0
VERTEX
8
0
10
39.5158974358974
20
58.7448003233059
30
0
0
VERTEX
8
0
10
40.4348717948718
20
58.8277173180538
30
0
0
VERTEX
8
0
10
41.3538461538461
20
58.8846256095409
30
0
0
VERTEX
8
0
10
42.2728205128205
20
58.9207624942834
30
0
0
VERTEX
8
0
10
43.1917948717949
20
58.9508091081637
30
0
0
VERTEX
8
0
10
44.1107692307692
20
58.9479850221013
30
0
0
VERTEX
8
0
10
45.0297435897436
20
58.9396921604258
30
0
0
VERTEX
8
0
10
45.9487179487179
20
58.918233426157
30
0
0
VERTEX
8
0
10
46.8676923076923
20
58.8879805972957
30
0
0
VERTEX
8
0
10
47.7866666666666
20
58.8399787294996
30
0
0
VERTEX
8
0
10
48.705641025641
20
58.7835792388264
30
0
0
VERTEX
8
0
10
49.6246153846154
20
58.7212216837731
30
0
0
VERTEX
8
0
10
50.5435897435897
20
58.6439720336445
30
0
0
VERTEX
8
0
10
51.4625641025641
20
58.5631126680721
30
0
0
VERTEX
8
0
10
52.3815384615384
20
58.4759662150234
30
0
0
VERTEX
8
0
10
53.3005128205128
20
58.3861136977779
30
0
0
VERTEX
8
0
10
54.2194871794871
20
58.2858746890369
30
0
0
VERTEX
8
0
10
55.1384615384615
20
58.1843116061238
30
0
0
VERTEX
8
0
10
56.0574358974358
20
58.0794827126698
30
0
0
VERTEX
8
0
10
56.9764102564102
20
57.9696982333854
30
0
0
VERTEX
8
0
10
57.8953846153846
20
57.8590983177798
30
0
0
VERTEX
8
0
10
58.8143589743589
20
57.7470469690749
30
0
0
VERTEX
8
0
10
59.7333333333333
20
57.6362857200988
30
0
0
VERTEX
8
0
10
60.6523076923076
20
57.5206449258223
30
0
0
VERTEX
8
0
10
61.571282051282
20
57.4077345480239
30
0
0
VERTEX
8
0
10
62.4902564102563
20
57.2943170570837
30
0
0
VERTEX
8
0
10
63.4092307692307
20
57.181447264983
30
0
0
VERTEX
8
0
10
64.328205128205
20
57.0701501795314
30
0
0
VERTEX
8
0
10
65.2471794871794
20
56.9605915051657
30
0
0
VERTEX
8
0
10
66.1661538461537
20
56.8549107480458
30
0
0
VERTEX
8
0
10
67.0851282051281
20
56.7482687926169
30
0
0
VERTEX
8
0
10
68.0041025641025
20
56.6471204957815
30
0
0
VERTEX
8
0
10
68.9230769230768
20
56.5485864783252
30
0
0
VERTEX
8
0
10
69.8420512820512
20
56.4544261890699
30
0
0
VERTEX
8
0
10
70.7610256410255
20
56.362872696012
30
0
0
VERTEX
8
0
10
71.6799999999999
20
56.2733577486813
30
0
0
VERTEX
8
0
10
72.5989743589742
20
56.1868105752884
30
0
0
VERTEX
8
0
10
73.5179487179486
20
56.0986877179189
30
0
0
VERTEX
8
0
10
74.436923076923
20
56.0136117160153
30
0
0
VERTEX
8
0
10
75.3558974358973
20
55.9280036735199
30
0
0
VERTEX
8
0
10
76.2748717948717
20
55.8437774444724
30
0
0
VERTEX
8
0
10
77.193846153846
20
55.7597584845865
30
0
0
VERTEX
8
0
10
78.1128205128204
20
55.67620408902
30
0
0
VERTEX
8
0
10
79.0317948717947
20
55.5941182919643
30
0
0
VERTEX
8
0
10
79.9507692307691
20
55.5102109008328
30
0
0
VERTEX
8
0
10
80.8697435897435
20
55.4282523942232
30
0
0
VERTEX
8
0
10
81.7887179487178
20
55.3453917056838
30
0
0
VERTEX
8
0
10
82.7076923076922
20
55.2635394081636
30
0
0
VERTEX
8
0
10
83.6266666666665
20
55.1815593030713
30
0
0
VERTEX
8
0
10
84.5456410256409
20
55.0998158264975
30
0
0
VERTEX
8
0
10
85.4646153846152
20
55.0190975302091
30
0
0
VERTEX
8
0
10
86.3835897435896
20
54.9370317799515
30
0
0
VERTEX
8
0
10
87.3025641025639
20
54.8564631737971
30
0
0
VERTEX
8
0
10
88.2215384615383
20
54.7752179667339
30
0
0
VERTEX
8
0
10
89.1405128205126
20
54.6949090303383
30
0
0
VERTEX
8
0
10
90.059487179487
20
54.614565537258
30
0
0
VERTEX
8
0
10
90.9784615384614
20
54.5345307240943
30
0
0
VERTEX
8
0
10
91.8974358974357
20
54.4553756160085
30
0
0
VERTEX
8
0
10
92.8164102564101
20
54.3754553063344
30
0
0
VERTEX
8
0
10
93.7353846153844
20
54.2967943536729
30
0
0
VERTEX
8
0
10
94.6543589743588
20
54.217828300113
30
0
0
VERTEX
8
0
10
95.5733333333331
20
54.1397859682599
30
0
0
VERTEX
8
0
10
96.4923076923075
20
54.0619174687221
30
0
0
VERTEX
8
0
10
97.4112820512818
20
53.9844972171285
30
0
0
VERTEX
8
0
10
98.3302564102562
20
53.9079097341066
30
0
0
VERTEX
8
0
10
99.2492307692306
20
53.8310731204976
30
0
0
VERTEX
8
0
10
100.168205128205
20
53.7553382021573
30
0
0
VERTEX
8
0
10
101.087179487179
20
53.6796515461417
30
0
0
VERTEX
8
0
10
102.006153846154
20
53.6048655826408
30
0
0
VERTEX
8
0
10
102.925128205128
20
53.5304527442629
30
0
0
VERTEX
8
0
10
103.844102564102
20
53.4566066259587
30
0
0
VERTEX
8
0
10
104.763076923077
20
53.383563273411
30
0
0
VERTEX
8
0
10
105.682051282051
20
53.3106624808087
30
0
0
VERTEX
8
0
10
106.601025641025
20
53.2387308235686
30
0
0
VERTEX
8
0
10
107.52
20
53.167119965911
30
0
0
VERTEX
8
0
10
108.438974358974
20
53.096358302349
30
0
0
VERTEX
8
0
10
109.357948717948
20
53.0261146600827
30
0
0
VERTEX
8
0
10
110.276923076923
20
52.956508807725
30
0
0
VERTEX
8
0
10
111.195897435897
20
52.8876671278087
30
0
0
VERTEX
8
0
10
112.114871794872
20
52.8192355602054
30
0
0
VERTEX
8
0
10
113.033846153846
20
52.7516557215307
30
0
0
VERTEX
8
0
10
113.95282051282
20
52.6845859972197
30
0
0
VERTEX
8
0
10
114.871794871795
20
52.6183038974073
30
0
0
VERTEX
8
0
10
115.790769230769
20
52.552639992101
30
0
0
VERTEX
8
0
10
116.709743589743
20
52.4876599409934
30
0
0
VERTEX
8
0
10
117.628717948718
20
52.423421516676
30
0
0
VERTEX
8
0
10
118.547692307692
20
52.3597868725872
30
0
0
VERTEX
8
0
10
119.466666666666
20
52.2969449059514
30
0
0
VERTEX
8
0
10
120.385641025641
20
52.2347778762809
30
0
0
VERTEX
8
0
10
121.304615384615
20
52.1733986111973
30
0
0
VERTEX
8
0
10
122.223589743589
20
52.1127636189158
30
0
0
VERTEX
8
0
10
123.142564102564
20
52.052921119022
30
0
0
VERTEX
8
0
10
124.061538461538
20
51.993920426761
30
0
0
VERTEX
8
0
10
124.980512820513
20
51.93578764881
30
0
0
VERTEX
8
0
10
125.899487179487
20
51.878622015321
30
0
0
VERTEX
8
0
10
126.818461538461
20
51.822498303828
30
0
0
VERTEX
8
0
10
127.737435897436
20
51.7675533855833
30
0
0
VERTEX
8
0
10
128.65641025641
20
51.7139623030827
30
0
0
VERTEX
8
0
10
129.575384615384
20
51.6618492531226
30
0
0
VERTEX
8
0
10
130.494358974359
20
51.6111139021147
30
0
0
VERTEX
8
0
10
131.413333333333
20
51.5615991703067
30
0
0
VERTEX
8
0
10
132.332307692307
20
51.5131923296843
30
0
0
VERTEX
8
0
10
133.251282051282
20
51.4658117172745
30
0
0
VERTEX
8
0
10
134.170256410256
20
51.4193934574697
30
0
0
VERTEX
8
0
10
135.08923076923
20
51.3738848937371
30
0
0
VERTEX
8
0
10
136.008205128205
20
51.3292410994401
30
0
0
VERTEX
8
0
10
136.927179487179
20
51.285422819578
30
0
0
VERTEX
8
0
10
137.846153846153
20
51.2423951542047
30
0
0
VERTEX
8
0
10
138.765128205128
20
51.200126663909
30
0
0
VERTEX
8
0
10
139.684102564102
20
51.1585887333071
30
0
0
VERTEX
8
0
10
140.603076923077
20
51.1177551012631
30
0
0
VERTEX
8
0
10
141.522051282051
20
51.0776015037202
30
0
0
VERTEX
8
0
10
142.441025641025
20
51.0381053953886
30
0
0
VERTEX
8
0
10
143.36
20
50.999245728337
30
0
0
VERTEX
8
0
10
144.278974358974
20
50.9610027727066
30
0
0
VERTEX
8
0
10
145.197948717948
20
50.9233579692992
30
0
0
VERTEX
8
0
10
146.116923076923
20
50.8862938067421
30
0
0
VERTEX
8
0
10
147.035897435897
20
50.8497937179248
30
0
0
VERTEX
8
0
10
147.954871794871
20
50.8138419917735
30
0
0
VERTEX
8
0
10
148.873846153846
20
50.7784236973898
30
0
0
VERTEX
8
0
10
149.79282051282
20
50.743524618279
30
0
0
VERTEX
8
0
10
150.711794871795
20
50.709131194898
30
0
0
VERTEX
8
0
10
151.630769230769
20
50.6752304741279
30
0
0
VERTEX
8
0
10
152.549743589743
20
50.6418100645665
30
0
0
VERTEX
8
0
10
153.468717948718
20
50.6088580967444
30
0
0
VERTEX
8
0
10
154.387692307692
20
50.576363187544
30
0
0
VERTEX
8
0
10
155.306666666666
20
50.5443144082258
30
0
0
VERTEX
8
0
10
156.225641025641
20
50.5127012555727
30
0
0
VERTEX
8
0
10
157.144615384615
20
50.4815136257434
30
0
0
VERTEX
8
0
10
158.063589743589
20
50.4507417904951
30
0
0
VERTEX
8
0
10
158.982564102564
20
50.4203763754853
30
0
0
VERTEX
8
0
10
159.901538461538
20
50.3904083404082
30
0
0
VERTEX
8
0
10
160.820512820513
20
50.3608289607572
30
0
0
VERTEX
8
0
10
161.739487179487
20
50.3316298110358
30
0
0
VERTEX
8
0
10
162.658461538461
20
50.3028027492594
30
0
0
VERTEX
8
0
10
163.577435897436
20
50.2743399026159
30
0
0
VERTEX
8
0
10
164.49641025641
20
50.2462336541695
30
0
0
VERTEX
8
0
10
165.415384615384
20
50.2184766305035
30
0
0
VERTEX
8
0
10
166.334358974359
20
50.1910616902149
30
0
0
VERTEX
8
0
10
167.253333333333
20
50.163981913182
30
0
0
VERTEX
8
0
10
168.172307692308
20
50.1372305905328
30
0
0
VERTEX
8
0
10
169.091282051282
20
50.1108012152571
30
0
0
VERTEX
8
0
10
170.010256410256
20
50.0846874734035
30
0
0
VERTEX
8
0
10
170.929230769231
20
50.0588832358144
30
0
0
VERTEX
8
0
10
171.848205128205
20
50.0333825503552
30
0
0
SEQEND
8
0
0
POLYLINE
8
0
62
4
70
0
10
0
20
0
30
0
0
VERTEX
8
0
10
1.83794871794872
20
9.02334121270868
30
0
0
VERTEX
8
0
10
2.75692307692308
20
13.4703590025289
30
0
0
VERTEX
8
0
10
3.67589743589744
20
16.6193710972398
30
0
0
VERTEX
8
0
10
4.59487179487179
20
20.0049273693191
30
0
0
VERTEX
8
0
10
5.51384615384615
20
23.1072242514959
30
0
0
VERTEX
8
0
10
6.43282051282051
20
26.1929414510321
30
0
0
VERTEX
8
0
10
7.35179487179487
20
28.6024420196514
30
0
0
VERTEX
8
0
10
8.27076923076923
20
30.8682038283029
30
0
0
VERTEX
8
0
10
9.18974358974359
20
33.0859663560005
30
0
0
VERTEX
8
0
10
10.1087179487179
20
35.2873041760123
30
0
0
VERTEX
8
0
10
11.0276923076923
20
37.1112442008235
30
0
0
VERTEX
8
0
10
11.9466666666667
20
38.9833717372743
30
0
0
VERTEX
8
0
10
12.865641025641
20
40.6184996732131
30
0
0
VERTEX
8
0
10
13.7846153846154
20
42.2991234650608
30
0
0
VERTEX
8
0
10
14.7035897435897
20
43.5740649836968
30
0
0
VERTEX
8
0
10
15.6225641025641
20
44.9139037424539
30
0
0
VERTEX
8
0
10
16.5415384615385
20
46.1222830303671
30
0
0
VERTEX
8
0
10
17.4605128205128
20
47.2463690655631
30
0
0
VERTEX
8
0
10
18.3794871794872
20
48.3727539705811
30
0
0
VERTEX
8
0
10
19.2984615384615
20
49.332201373355
30
0
0
VERTEX
8
0
10
20.2174358974359
20
50.2539402245595
30
0
0
VERTEX
8
0
10
21.1364102564103
20
51.1688256278955
30
0
0
VERTEX
8
0
10
22.0553846153846
20
51.8998546137393
30
0
0
VERTEX
8
0
10
22.974358974359
20
52.6327602795322
30
0
0
VERTEX
8
0
10
23.8933333333333
20
53.3323860614119
30
0
0
VERTEX
8
0
10
24.8123076923077
20
53.8837565047929
30
0
0
VERTEX
8
0
10
25.7312820512821
20
54.4279096111833
30
0
0
VERTEX
8
0
10
26.6502564102564
20
54.9578086466982
30
0
0
VERTEX
8
0
10
27.5692307692308
20
55.4145606408885
30
0
0
VERTEX
8
0
10
28.4882051282051
20
55.8548947584575
30
0
0
VERTEX
8
0
10
29.4071794871795
20
56.2966701376391
30
0
0
VERTEX
8
0
10
30.3261538461539
20
56.5783146717001
30
0
0
VERTEX
8
0
10
31.2451282051282
20
56.8965614219939
30
0
0
VERTEX
8
0
10
32.1641025641026
20
57.1961438725896
30
0
0
VERTEX
8
0
10
33.0830769230769
20
57.3974999661303
30
0
0
VERTEX
8
0
10
34.0020512820513
20
57.6222726834451
30
0
0
VERTEX
8
0
10
34.9210256410257
20
57.8030733068277
30
0
0
VERTEX
8
0
10
35.84
20
57.9715433751886
30
0
0
VERTEX
8
0
10
36.7589743589744
20
58.1192583538462
30
0
0
VERTEX
8
0
10
37.6779487179487
20
58.2423283859038
30
0
0
VERTEX
8
0
10
38.5969230769231
20
58.3421934394553
30
0
0
VERTEX
8
0
10
39.5158974358974
20
58.433150027685
30
0
0
VERTEX
8
0
10
40.4348717948718
20
58.486339472647
30
0
0
VERTEX
8
0
10
41.3538461538461
20
58.5172498665846
30
0
0
VERTEX
8
0
10
42.2728205128205
20
58.5488769024244
30
0
0
VERTEX
8
0
10
43.1917948717949
20
58.554354656844
30
0
0
VERTEX
8
0
10
44.1107692307692
20
58.5601327561022
30
0
0
VERTEX
8
0
10
45.0297435897436
20
58.5554333948243
30
0
0
VERTEX
8
0
10
45.9487179487179
20
58.5442630506639
30
0
0
VERTEX
8
0
10
46.8676923076923
20
58.5301188403279
30
0
0
VERTEX
8
0
10
47.7866666666666
20
58.5036176794682
30
0
0
VERTEX
8
0
10
48.705641025641
20
58.4512943871261
30
0
0
VERTEX
8
0
10
49.6246153846154
20
58.3931874784739
30
0
0
VERTEX
8
0
10
50.5435897435897
20
58.3355950900577
30
0
0
VERTEX
8
0
10
51.4625641025641
20
58.2706979488171
30
0
0
VERTEX
8
0
10
52.3815384615384
20
58.201446571521
30
0
0
VERTEX
8
0
10
53.3005128205128
20
58.1304001426331
30
0
0
VERTEX
8
0
10
54.2194871794871
20
58.0394160643508
30
0
0
VERTEX
8
0
10
55.1384615384615
20
57.9530512258506
30
0
0
VERTEX
8
0
10
56.0574358974358
20
57.857711912335
30
0
0
VERTEX
8
0
10
56.9764102564102
20
57.7622390981533
30
0
0
VERTEX
8
0
10
57.8953846153846
20
57.6620037223886
30
0
0
VERTEX
8
0
10
58.8143589743589
20
57.5610113903034
30
0
0
VERTEX
8
0
10
59.7333333333333
20
57.4599160739772
30
0
0
VERTEX
8
0
10
60.6523076923076
20
57.3532357008667
30
0
0
VERTEX
8
0
10
61.571282051282
20
57.2498264871056
30
0
0
VERTEX
8
0
10
62.4902564102563
20
57.1418379498406
30
0
0
VERTEX
8
0
10
63.4092307692307
20
57.0350086089755
30
0
0
VERTEX
8
0
10
64.328205128205
20
56.9395951817953
30
0
0
VERTEX
8
0
10
65.2471794871794
20
56.8427551492354
30
0
0
VERTEX
8
0
10
66.1661538461537
20
56.7457841509668
30
0
0
VERTEX
8
0
10
67.0851282051281
20
56.6423708039973
30
0
0
VERTEX
8
0
10
68.0041025641025
20
56.5405604724883
30
0
0
VERTEX
8
0
10
68.9230769230768
20
56.4354627105838
30
0
0
VERTEX
8
0
10
69.8420512820512
20
56.3346047070444
30
0
0
VERTEX
8
0
10
70.7610256410255
20
56.2311836677996
30
0
0
VERTEX
8
0
10
71.6799999999999
20
56.1269089073861
30
0
0
VERTEX
8
0
10
72.5989743589742
20
56.0227953885771
30
0
0
VERTEX
8
0
10
73.5179487179486
20
55.9159153180975
30
0
0
VERTEX
8
0
10
74.436923076923
20
55.8101577603382
30
0
0
VERTEX
8
0
10
75.3558974358973
20
55.7086606822646
30
0
0
VERTEX
8
0
10
76.2748717948717
20
55.6058771684408
30
0
0
VERTEX
8
0
10
77.193846153846
20
55.5140708630658
30
0
0
VERTEX
8
0
10
78.1128205128204
20
55.4291208934221
30
0
0
VERTEX
8
0
10
79.0317948717947
20
55.3440712056826
30
0
0
VERTEX
8
0
10
79.9507692307691
20
55.2583647204146
30
0
0
VERTEX
8
0
10
80.8697435897435
20
55.1738507934111
30
0
0
VERTEX
8
0
10
81.7887179487178
20
55.0872168508886
30
0
0
VERTEX
8
0
10
82.7076923076922
20
55.0011382018047
30
0
0
VERTEX
8
0
10
83.6266666666665
20
54.9137201255961
30
0
0
VERTEX
8
0
10
84.5456410256409
20
54.8256400703766
30
0
0
VERTEX
8
0
10
85.4646153846152
20
54.7374789656165
30
0
0
VERTEX
8
0
10
86.3835897435896
20
54.6476314087804
30
0
0
VERTEX
8
0
10
87.3025641025639
20
54.5582605033387
30
0
0
VERTEX
8
0
10
88.2215384615383
20
54.4673857595326
30
0
0
VERTEX
8
0
10
89.1405128205126
20
54.3769453681504
30
0
0
VERTEX
8
0
10
90.059487179487
20
54.2855855769237
30
0
0
VERTEX
8
0
10
90.9784615384614
20
54.2094890562809
30
0
0
VERTEX
8
0
10
91.8974358974357
20
54.1301485806029
30
0
0
VERTEX
8
0
10
92.8164102564101
20
54.0495668629109
30
0
0
VERTEX
8
0
10
93.7353846153844
20
53.974942135391
30
0
0
VERTEX
8
0
10
94.6543589743588
20
53.8976453712106
30
0
0
VERTEX
8
0
10
95.5733333333331
20
53.8205646676543
30
0
0
VERTEX
8
0
10
96.4923076923075
20
53.7458398601495
30
0
0
VERTEX
8
0
10
97.4112820512818
20
53.6697185081338
30
0
0
VERTEX
8
0
10
98.3302564102562
20
53.5922420324058
30
0
0
VERTEX
8
0
10
99.2492307692306
20
53.5131894561697
30
0
0
VERTEX
8
0
10
100.168205128205
20
53.4343369830062
30
0
0
VERTEX
8
0
10
101.087179487179
20
53.3562949329379
30
0
0
VERTEX
8
0
10
102.006153846154
20
53.2789320535565
30
0
0
VERTEX
8
0
10
102.925128205128
20
53.2011551926898
30
0
0
VERTEX
8
0
10
103.844102564102
20
53.12836370644
30
0
0
VERTEX
8
0
10
104.763076923077
20
53.0562726579936
30
0
0
VERTEX
8
0
10
105.682051282051
20
52.9836844158517
30
0
0
VERTEX
8
0
10
106.601025641025
20
52.9326360996812
30
0
0
VERTEX
8
0
10
107.52
20
52.8810689534627
30
0
0
VERTEX
8
0
10
108.438974358974
20
52.8294661826388
30
0
0
VERTEX
8
0
10
109.357948717948
20
52.7622956133389
30
0
0
VERTEX
8
0
10
110.276923076923
20
52.6966603229356
30
0
0
VERTEX
8
0
10
111.195897435897
20
52.6309925044506
30
0
0
VERTEX
8
0
10
112.114871794872
20
52.5793689147876
30
0
0
VERTEX
8
0
10
113.033846153846
20
52.5248806750259
30
0
0
VERTEX
8
0
10
113.95282051282
20
52.4701200781511
30
0
0
VERTEX
8
0
10
114.871794871795
20
52.3997740462954
30
0
0
VERTEX
8
0
10
115.790769230769
20
52.3336041669184
30
0
0
VERTEX
8
0
10
116.709743589743
20
52.2674361100815
30
0
0
VERTEX
8
0
10
117.628717948718
20
52.2237267359723
30
0
0
VERTEX
8
0
10
118.547692307692
20
52.1723990440593
30
0
0
VERTEX
8
0
10
119.466666666666
20
52.119920591599
30
0
0
VERTEX
8
0
10
120.385641025641
20
52.0666718939259
30
0
0
VERTEX
8
0
10
121.304615384615
20
52.0134608344552
30
0
0
VERTEX
8
0
10
122.223589743589
20
51.9602472648759
30
0
0
VERTEX
8
0
10
123.142564102564
20
51.9070697118463
30
0
0
VERTEX
8
0
10
124.061538461538
20
51.853954071006
30
0
0
VERTEX
8
0
10
124.980512820513
20
51.8056738043207
30
0
0
VERTEX
8
0
10
125.899487179487
20
51.7581555138782
30
0
0
VERTEX
8
0
10
126.818461538461
20
51.7107143504651
30
0
0
VERTEX
8
0
10
127.737435897436
20
51.6597757513751
30
0
0
VERTEX
8
0
10
128.65641025641
20
51.6089796879145
30
0
0
VERTEX
8
0
10
129.575384615384
20
51.5583486820764
30
0
0
VERTEX
8
0
10
130.494358974359
20
51.5119025827484
30
0
0
VERTEX
8
0
10
131.413333333333
20
51.4651627488756
30
0
0
VERTEX
8
0
10
132.332307692307
20
51.4185727329796
30
0
0
VERTEX
8
0
10
133.251282051282
20
51.3787604956676
30
0
0
VERTEX
8
0
10
134.170256410256
20
51.3377425806699
30
0
0
VERTEX
8
0
10
135.08923076923
20
51.2968430340835
30
0
0
VERTEX
8
0
10
136.008205128205
20
51.2536525869955
30
0
0
VERTEX
8
0
10
136.927179487179
20
51.2112488699023
30
0
0
VERTEX
8
0
10
137.846153846153
20
51.1689748966229
30
0
0
VERTEX
8
0
10
138.765128205128
20
51.132040808433
30
0
0
VERTEX
8
0
10
139.684102564102
20
51.0934780111797
30
0
0
VERTEX
8
0
10
140.603076923077
20
51.0550251650977
30
0
0
VERTEX
8
0
10
141.522051282051
20
51.0166825188073
30
0
0
VERTEX
8
0
10
142.441025641025
20
50.9784503209639
30
0
0
VERTEX
8
0
10
143.36
20
50.9390462334606
30
0
0
VERTEX
8
0
10
144.278974358974
20
50.8993309385354
30
0
0
VERTEX
8
0
10
145.197948717948
20
50.8597370970706
30
0
0
VERTEX
8
0
10
146.116923076923
20
50.8247144819438
30
0
0
VERTEX
8
0
10
147.035897435897
20
50.7904312191767
30
0
0
VERTEX
8
0
10
147.954871794871
20
50.7562406383093
30
0
0
VERTEX
8
0
10
148.873846153846
20
50.7238248374997
30
0
0
VERTEX
8
0
10
149.79282051282
20
50.6914959688082
30
0
0
VERTEX
8
0
10
150.711794871795
20
50.6592513294203
30
0
0
VERTEX
8
0
10
151.630769230769
20
50.6252135516078
30
0
0
VERTEX
8
0
10
152.549743589743
20
50.5914758633541
30
0
0
VERTEX
8
0
10
153.468717948718
20
50.5578319547428
30
0
0
VERTEX
8
0
10
154.387692307692
20
50.5284202656519
30
0
0
VERTEX
8
0
10
155.306666666666
20
50.498260163775
30
0
0
VERTEX
8
0
10
156.225641025641
20
50.4681766235625
30
0
0
VERTEX
8
0
10
157.144615384615
20
50.4381697820083
30
0
0
VERTEX
8
0
10
158.063589743589
20
50.4082397760831
30
0
0
VERTEX
8
0
10
158.982564102564
20
50.3783867427324
30
0
0
VERTEX
8
0
10
159.901538461538
20
50.3510567452891
30
0
0
VERTEX
8
0
10
160.820512820513
20
50.3229806859862
30
0
0
VERTEX
8
0
10
161.739487179487
20
50.2929498890589
30
0
0
VERTEX
8
0
10
162.658461538461
20
50.2617760965765
30
0
0
VERTEX
8
0
10
163.577435897436
20
50.2306887123072
30
0
0
VERTEX
8
0
10
164.49641025641
20
50.1996878967821
30
0
0
VERTEX
8
0
10
165.415384615384
20
50.168773810482
30
0
0
VERTEX
8
0
10
166.334358974359
20
50.137946613833
30
0
0
VERTEX
8
0
10
167.253333333333
20
50.1113894309747
30
0
0
VERTEX
8
0
10
168.172307692308
20
50.0855069951476
30
0
0
VERTEX
8
0
10
169.091282051282
20
50.059686741871
30
0
0
VERTEX
8
0
10
170.010256410256
20
50.0339287674139
30
0
0
VERTEX
8
0
10
170.929230769231
20
50.0082331680107
30
0
0
VERTEX
8
0
10
171.848205128205
20
49.9826000398611
30
0
0
SEQEND
8
0
0
POLYLINE
8
0
62
2
70
0
10
0
20
0
30
0
0
VERTEX
8
0
10
1.83794871794872
20
2.1348714645766
30
0
0
VERTEX
8
0
10
2.75692307692308
20
5.57662848770155
30
0
0
VERTEX
8
0
10
3.67589743589744
20
3.87315367259401
30
0
0
VERTEX
8
0
10
4.59487179487179
20
3.53399040668334
30
0
0
VERTEX
8
0
10
5.51384615384615
20
5.42965949890571
30
0
0
VERTEX
8
0
10
6.43282051282051
20
7.72628909802183
30
0
0
VERTEX
8
0
10
7.35179487179487
20
6.88760153541017
30
0
0
VERTEX
8
0
10
8.27076923076923
20
7.15710760946422
30
0
0
VERTEX
8
0
10
9.18974358974359
20
8.24752925205763
30
0
0
VERTEX
8
0
10
10.1087179487179
20
9.64278358524411
30
0
0
VERTEX
8
0
10
11.0276923076923
20
9.53486887958389
30
0
0
VERTEX
8
0
10
11.9466666666667
20
9.9797131605159
30
0
0
VERTEX
8
0
10
12.865641025641
20
10.7557133165326
30
0
0
VERTEX
8
0
10
13.7846153846154
20
11.7492194498996
30
0
0
VERTEX
8
0
10
14.7035897435897
20
11.9182982066451
30
0
0
VERTEX
8
0
10
15.6225641025641
20
12.3922247007664
30
0
0
VERTEX
8
0
10
16.5415384615385
20
13.0270695657035
30
0
0
VERTEX
8
0
10
17.4605128205128
20
13.8107756724007
30
0
0
VERTEX
8
0
10
18.3794871794872
20
14.0864071918411
30
0
0
VERTEX
8
0
10
19.2984615384615
20
14.5496991018494
30
0
0
VERTEX
8
0
10
20.2174358974359
20
15.0991042527902
30
0
0
VERTEX
8
0
10
21.1364102564103
20
15.752742884425
30
0
0
VERTEX
8
0
10
22.0553846153846
20
16.0677938435537
30
0
0
VERTEX
8
0
10
22.974358974359
20
16.5072087396268
30
0
0
VERTEX
8
0
10
23.8933333333333
20
16.9941822767868
30
0
0
VERTEX
8
0
10
24.8123076923077
20
17.5561830158772
30
0
0
VERTEX
8
0
10
25.7312820512821
20
17.8797608641715
30
0
0
VERTEX
8
0
10
26.6502564102564
20
18.2898088876217
30
0
0
VERTEX
8
0
10
27.5692307692308
20
18.7253050754281
30
0
0
VERTEX
8
0
10
28.4882051282051
20
19.2158273712902
30
0
0
VERTEX
8
0
10
29.4071794871795
20
19.5311987640655
30
0
0
VERTEX
8
0
10
30.3261538461539
20
19.9083314301983
30
0
0
VERTEX
8
0
10
31.2451282051282
20
20.2969423282401
30
0
0
VERTEX
8
0
10
32.1641025641026
20
20.725860573571
30
0
0
VERTEX
8
0
10
33.0830769230769
20
21.0209897019182
30
0
0
VERTEX
8
0
10
34.0020512820513
20
21.3598779707414
30
0
0
VERTEX
8
0
10
34.9210256410257
20
21.6995248762157
30
0
0
VERTEX
8
0
10
35.84
20
22.066195545181
30
0
0
VERTEX
8
0
10
36.7589743589744
20
22.3235313137224
30
0
0
VERTEX
8
0
10
37.6779487179487
20
22.604437981665
30
0
0
VERTEX
8
0
10
38.5969230769231
20
22.8623770786341
30
0
0
VERTEX
8
0
10
39.5158974358974
20
23.0969242392626
30
0
0
VERTEX
8
0
10
40.4348717948718
20
23.2980692117799
30
0
0
VERTEX
8
0
10
41.3538461538461
20
23.5720164658374
30
0
0
VERTEX
8
0
10
42.2728205128205
20
23.867182437296
30
0
0
VERTEX
8
0
10
43.1917948717949
20
24.2007733919062
30
0
0
VERTEX
8
0
10
44.1107692307692
20
24.4819323688622
30
0
0
VERTEX
8
0
10
45.0297435897436
20
24.7962957552865
30
0
0
VERTEX
8
0
10
45.9487179487179
20
25.1134732553132
30
0
0
VERTEX
8
0
10
46.8676923076923
20
25.4548120988633
30
0
0
VERTEX
8
0
10
47.7866666666666
20
25.7485854772039
30
0
0
VERTEX
8
0
10
48.705641025641
20
26.0655105668926
30
0
0
VERTEX
8
0
10
49.6246153846154
20
26.3793195527213
30
0
0
VERTEX
8
0
10
50.5435897435897
20
26.7102865976261
30
0
0
VERTEX
8
0
10
51.4625641025641
20
27.0003078173175
30
0
0
VERTEX
8
0
10
52.3815384615384
20
27.3071561105027
30
0
0
VERTEX
8
0
10
53.3005128205128
20
27.607629993401
30
0
0
VERTEX
8
0
10
54.2194871794871
20
27.9204731910423
30
0
0
VERTEX
8
0
10
55.1384615384615
20
28.1983206825718
30
0
0
VERTEX
8
0
10
56.0574358974358
20
28.4883759699563
30
0
0
VERTEX
8
0
10
56.9764102564102
20
28.7700392282975
30
0
0
VERTEX
8
0
10
57.8953846153846
20
29.0604688557845
30
0
0
VERTEX
8
0
10
58.8143589743589
20
29.3209216149936
30
0
0
VERTEX
8
0
10
59.7333333333333
20
29.5900183651764
30
0
0
VERTEX
8
0
10
60.6523076923076
20
29.8494375074096
30
0
0
VERTEX
8
0
10
61.571282051282
20
30.1147958758012
30
0
0
VERTEX
8
0
10
62.4902564102563
20
30.3543362101076
30
0
0
VERTEX
8
0
10
63.4092307692307
20
30.5996941175314
30
0
0
VERTEX
8
0
10
64.328205128205
20
30.8345699479107
30
0
0
VERTEX
8
0
10
65.2471794871794
20
31.073115821777
30
0
0
VERTEX
8
0
10
66.1661538461537
20
31.2892732459676
30
0
0
VERTEX
8
0
10
67.0851282051281
20
31.5089701828172
30
0
0
VERTEX
8
0
10
68.0041025641025
20
31.7177161733696
30
0
0
VERTEX
8
0
10
68.9230769230768
20
31.9282867143734
30
0
0
VERTEX
8
0
10
69.8420512820512
20
32.1192973913494
30
0
0
VERTEX
8
0
10
70.7610256410255
20
32.3119936193168
30
0
0
VERTEX
8
0
10
71.6799999999999
20
32.493513314014
30
0
0
VERTEX
8
0
10
72.5989743589742
20
32.6753457494449
30
0
0
VERTEX
8
0
10
73.5179487179486
20
32.8399571577524
30
0
0
VERTEX
8
0
10
74.436923076923
20
33.0047377020368
30
0
0
VERTEX
8
0
10
75.3558974358973
20
33.158297561007
30
0
0
VERTEX
8
0
10
76.2748717948717
20
33.3109285467175
30
0
0
VERTEX
8
0
10
77.193846153846
20
33.4482803196574
30
0
0
VERTEX
8
0
10
78.1128205128204
20
33.5845598607188
30
0
0
VERTEX
8
0
10
79.0317948717947
20
33.7097131069458
30
0
0
VERTEX
8
0
10
79.9507692307691
20
33.8329198051167
30
0
0
VERTEX
8
0
10
80.8697435897435
20
33.9424683669403
30
0
0
VERTEX
8
0
10
81.7887179487178
20
34.049932174472
30
0
0
VERTEX
8
0
10
82.7076923076922
20
34.1464722169815
30
0
0
VERTEX
8
0
10
83.6266666666665
20
34.2402375667638
30
0
0
VERTEX
8
0
10
84.5456410256409
20
34.3217077710246
30
0
0
VERTEX
8
0
10
85.4646153846152
20
34.4002748648011
30
0
0
VERTEX
8
0
10
86.3835897435896
20
34.4682070418411
30
0
0
VERTEX
8
0
10
87.3025641025639
20
34.5326999851597
30
0
0
VERTEX
8
0
10
88.2215384615383
20
34.5860543363943
30
0
0
VERTEX
8
0
10
89.1405128205126
20
34.6358551020014
30
0
0
VERTEX
8
0
10
90.059487179487
20
34.675380365301
30
0
0
VERTEX
8
0
10
90.9784615384614
20
34.7109457635114
30
0
0
VERTEX
8
0
10
91.8974358974357
20
34.7363655054506
30
0
0
VERTEX
8
0
10
92.8164102564101
20
34.7577289866841
30
0
0
VERTEX
8
0
10
93.7353846153844
20
34.7692355076586
30
0
0
VERTEX
8
0
10
94.6543589743588
20
34.7763903245831
30
0
0
VERTEX
8
0
10
95.5733333333331
20
34.7742644180615
30
0
0
VERTEX
8
0
10
96.4923076923075
20
34.7677117735925
30
0
0
VERTEX
8
0
10
97.4112820512818
20
34.7517712624829
30
0
0
VERTEX
8
0
10
98.3302564102562
20
34.7312039704764
30
0
0
VERTEX
8
0
10
99.2492307692306
20
34.7021221889354
30
0
0
VERTEX
8
0
10
100.168205128205
20
34.6683624897939
30
0
0
VERTEX
8
0
10
101.087179487179
20
34.6257271271428
30
0
0
VERTEX
8
0
10
102.006153846154
20
34.5782957237839
30
0
0
VERTEX
8
0
10
102.925128205128
20
34.523039881139
30
0
0
VERTEX
8
0
10
103.844102564102
20
34.4629611111843
30
0
0
VERTEX
8
0
10
104.763076923077
20
34.3945522289845
30
0
0
VERTEX
8
0
10
105.682051282051
20
34.3212695302463
30
0
0
VERTEX
8
0
10
106.601025641025
20
34.2407875448821
30
0
0
VERTEX
8
0
10
107.52
20
34.1554224408385
30
0
0
VERTEX
8
0
10
108.438974358974
20
34.0622831544409
30
0
0
VERTEX
8
0
10
109.357948717948
20
33.9642505453281
30
0
0
VERTEX
8
0
10
110.276923076923
20
33.8595575013779
30
0
0
VERTEX
8
0
10
111.195897435897
20
33.74994241627
30
0
0
VERTEX
8
0
10
112.114871794872
20
33.63303052045
30
0
0
VERTEX
8
0
10
113.033846153846
20
33.511126180854
30
0
0
VERTEX
8
0
10
113.95282051282
20
33.3828134904048
30
0
0
VERTEX
8
0
10
114.871794871795
20
33.2491835546545
30
0
0
VERTEX
8
0
10
115.790769230769
20
33.1079480373268
30
0
0
VERTEX
8
0
10
116.709743589743
20
32.9600938456773
30
0
0
VERTEX
8
0
10
117.628717948718
20
32.8041045565319
30
0
0
VERTEX
8
0
10
118.547692307692
20
32.6465490764861
30
0
0
VERTEX
8
0
10
119.466666666666
20
32.4898610510952
30
0
0
VERTEX
8
0
10
120.385641025641
20
32.3339362505548
30
0
0
VERTEX
8
0
10
121.304615384615
20
32.1768437948848
30
0
0
VERTEX
8
0
10
122.223589743589
20
32.0185734776037
30
0
0
VERTEX
8
0
10
123.142564102564
20
31.8576009094443
30
0
0
VERTEX
8
0
10
124.061538461538
20
31.6948230916969
30
0
0
VERTEX
8
0
10
124.980512820513
20
31.5295919962915
30
0
0
VERTEX
8
0
10
125.899487179487
20
31.3622554340192
30
0
0
VERTEX
8
0
10
126.818461538461
20
31.191921923774
30
0
0
VERTEX
8
0
10
127.737435897436
20
31.0194211134111
30
0
0
VERTEX
8
0
10
128.65641025641
20
30.8444318494693
30
0
0
VERTEX
8
0
10
129.575384615384
20
30.6672739218027
30
0
0
VERTEX
8
0
10
130.494358974359
20
30.4874227208785
30
0
0
VERTEX
8
0
10
131.413333333333
20
30.3055533865289
30
0
0
VERTEX
8
0
10
132.332307692307
20
30.1215587920189
30
0
0
VERTEX
8
0
10
133.251282051282
20
29.9357301887273
30
0
0
VERTEX
8
0
10
134.170256410256
20
29.7478456432433
30
0
0
VERTEX
8
0
10
135.08923076923
20
29.5584602941177
30
0
0
VERTEX
8
0
10
136.008205128205
20
29.3676529470222
30
0
0
VERTEX
8
0
10
136.927179487179
20
29.1757376357655
30
0
0
VERTEX
8
0
10
137.846153846153
20
28.9827759216745
30
0
0
VERTEX
8
0
10
138.765128205128
20
28.789283141743
30
0
0
VERTEX
8
0
10
139.684102564102
20
28.5955456391684
30
0
0
VERTEX
8
0
10
140.603076923077
20
28.4019962460069
30
0
0
VERTEX
8
0
10
141.522051282051
20
28.2090190064504
30
0
0
VERTEX
8
0
10
142.441025641025
20
28.0172531839768
30
0
0
VERTEX
8
0
10
143.36
20
27.8273326275304
30
0
0
VERTEX
8
0
10
144.278974358974
20
27.6400719554906
30
0
0
VERTEX
8
0
10
145.197948717948
20
27.4564944372925
30
0
0
VERTEX
8
0
10
146.116923076923
20
27.2780221062568
30
0
0
VERTEX
8
0
10
147.035897435897
20
27.1064919416432
30
0
0
VERTEX
8
0
10
147.954871794871
20
26.943181540661
30
0
0
VERTEX
8
0
10
148.873846153846
20
26.7874113844326
30
0
0
VERTEX
8
0
10
149.79282051282
20
26.6378745492666
30
0
0
VERTEX
8
0
10
150.711794871795
20
26.4936127612759
30
0
0
VERTEX
8
0
10
151.630769230769
20
26.3539626145713
30
0
0
VERTEX
8
0
10
152.549743589743
20
26.2184346218844
30
0
0
VERTEX
8
0
10
153.468717948718
20
26.0866473330312
30
0
0
VERTEX
8
0
10
154.387692307692
20
25.9582918121998
30
0
0
VERTEX
8
0
10
155.306666666666
20
25.8331108226585
30
0
0
VERTEX
8
0
10
156.225641025641
20
25.7108856730295
30
0
0
VERTEX
8
0
10
157.144615384615
20
25.5914274034905
30
0
0
VERTEX
8
0
10
158.063589743589
20
25.4745706063235
30
0
0
VERTEX
8
0
10
158.982564102564
20
25.3601689353533
30
0
0
VERTEX
8
0
10
159.901538461538
20
25.2480917464995
30
0
0
VERTEX
8
0
10
160.820512820513
20
25.1382215233701
30
0
0
VERTEX
8
0
10
161.739487179487
20
25.0304518641025
30
0
0
VERTEX
8
0
10
162.658461538461
20
24.9246858796418
30
0
0
VERTEX
8
0
10
163.577435897436
20
24.8208349001826
30
0
0
VERTEX
8
0
10
164.49641025641
20
24.718817416764
30
0
0
VERTEX
8
0
10
165.415384615384
20
24.6185582052567
30
0
0
VERTEX
8
0
10
166.334358974359
20
24.5199875938699
30
0
0
VERTEX
8
0
10
167.253333333333
20
24.4230408450529
30
0
0
VERTEX
8
0
10
168.172307692308
20
24.327657629624
30
0
0
VERTEX
8
0
10
169.091282051282
20
24.2337815760355
30
0
0
VERTEX
8
0
10
170.010256410256
20
24.141359881421
30
0
0
VERTEX
8
0
10
170.929230769231
20
24.0503429738873
30
0
0
VERTEX
8
0
10
171.848205128205
20
23.9606842176362
30
0
0
SEQEND
8
0
0
POLYLINE
8
0
62
3
70
0
10
0
20
0
30
0
0
VERTEX
8
0
10
1.83794871794872
20
2.5790365313005
30
0
0
VERTEX
8
0
10
2.75692307692308
20
5.97993069227209
30
0
0
VERTEX
8
0
10
3.67589743589744
20
4.82041689685651
30
0
0
VERTEX
8
0
10
4.59487179487179
20
5.02970901326026
30
0
0
VERTEX
8
0
10
5.51384615384615
20
6.90637485624657
30
0
0
VERTEX
8
0
10
6.43282051282051
20
9.17790310748577
30
0
0
VERTEX
8
0
10
7.35179487179487
20
8.90367548908833
30
0
0
VERTEX
8
0
10
8.27076923076923
20
9.5534752303351
30
0
0
VERTEX
8
0
10
9.18974358974359
20
10.8127805948386
30
0
0
VERTEX
8
0
10
10.1087179487179
20
12.3103141840575
30
0
0
VERTEX
8
0
10
11.0276923076923
20
12.6534643012528
30
0
0
VERTEX
8
0
10
11.9466666666667
20
13.4253108829325
30
0
0
VERTEX
8
0
10
12.865641025641
20
14.4304007633794
30
0
0
VERTEX
8
0
10
13.7846153846154
20
15.5956955840331
30
0
0
VERTEX
8
0
10
14.7035897435897
20
16.1498442164532
30
0
0
VERTEX
8
0
10
15.6225641025641
20
16.9305927816259
30
0
0
VERTEX
8
0
10
16.5415384615385
20
17.8151484691929
30
0
0
VERTEX
8
0
10
17.4605128205128
20
18.8054316010594
30
0
0
VERTEX
8
0
10
18.3794871794872
20
19.4295929728818
30
0
0
VERTEX
8
0
10
19.2984615384615
20
20.1884955415752
30
0
0
VERTEX
8
0
10
20.2174358974359
20
20.995267250696
30
0
0
VERTEX
8
0
10
21.1364102564103
20
21.873568415239
30
0
0
VERTEX
8
0
10
22.0553846153846
20
22.5141353129294
30
0
0
VERTEX
8
0
10
22.974358974359
20
23.2410037844284
30
0
0
VERTEX
8
0
10
23.8933333333333
20
23.9874834238877
30
0
0
VERTEX
8
0
10
24.8123076923077
20
24.7835634104237
30
0
0
VERTEX
8
0
10
25.7312820512821
20
25.4164455988941
30
0
0
VERTEX
8
0
10
26.6502564102564
20
26.1071484231291
30
0
0
VERTEX
8
0
10
27.5692307692308
20
26.8016503263566
30
0
0
VERTEX
8
0
10
28.4882051282051
20
27.5309744727023
30
0
0
VERTEX
8
0
10
29.4071794871795
20
28.1434632967975
30
0
0
VERTEX
8
0
10
30.3261538461539
20
28.7954974027135
30
0
0
VERTEX
8
0
10
31.2451282051282
20
29.4416512397439
30
0
0
VERTEX
8
0
10
32.1641025641026
20
30.1119279620334
30
0
0
VERTEX
8
0
10
33.0830769230769
20
30.6952909755693
30
0
0
VERTEX
8
0
10
34.0020512820513
20
31.3051340792243
30
0
0
VERTEX
8
0
10
34.9210256410257
20
31.901957014475
30
0
0
VERTEX
8
0
10
35.84
20
32.5134898977194
30
0
0
VERTEX
8
0
10
36.7589743589744
20
33.0557980990252
30
0
0
VERTEX
8
0
10
37.6779487179487
20
33.6105133029925
30
0
0
VERTEX
8
0
10
38.5969230769231
20
34.1366789652623
30
0
0
VERTEX
8
0
10
39.5158974358974
20
34.6439376553876
30
0
0
VERTEX
8
0
10
40.4348717948718
20
35.1357545851786
30
0
0
VERTEX
8
0
10
41.3538461538461
20
35.6746175071301
30
0
0
VERTEX
8
0
10
42.2728205128205
20
36.2164582530921
30
0
0
VERTEX
8
0
10
43.1917948717949
20
36.7817337331943
30
0
0
VERTEX
8
0
10
44.1107692307692
20
37.3188232245775
30
0
0
VERTEX
8
0
10
45.0297435897436
20
37.8754800735848
30
0
0
VERTEX
8
0
10
45.9487179487179
20
38.4224109487055
30
0
0
VERTEX
8
0
10
46.8676923076923
20
38.9826590242884
30
0
0
VERTEX
8
0
10
47.7866666666666
20
39.5174474522581
30
0
0
VERTEX
8
0
10
48.705641025641
20
40.064539161626
30
0
0
VERTEX
8
0
10
49.6246153846154
20
40.5978119792928
30
0
0
VERTEX
8
0
10
50.5435897435897
20
41.139322649361
30
0
0
VERTEX
8
0
10
51.4625641025641
20
41.6592058381215
30
0
0
VERTEX
8
0
10
52.3815384615384
20
42.1867831397782
30
0
0
VERTEX
8
0
10
53.3005128205128
20
42.6983765213937
30
0
0
VERTEX
8
0
10
54.2194871794871
20
43.2147075838961
30
0
0
VERTEX
8
0
10
55.1384615384615
20
43.7127779138996
30
0
0
VERTEX
8
0
10
56.0574358974358
20
44.2151690194009
30
0
0
VERTEX
8
0
10
56.9764102564102
20
44.7003425429688
30
0
0
VERTEX
8
0
10
57.8953846153846
20
45.1876154155597
30
0
0
VERTEX
8
0
10
58.8143589743589
20
45.6593773453651
30
0
0
VERTEX
8
0
10
59.7333333333333
20
46.1328608800162
30
0
0
VERTEX
8
0
10
60.6523076923076
20
46.5884642253082
30
0
0
VERTEX
8
0
10
61.571282051282
20
47.0441021820105
30
0
0
VERTEX
8
0
10
62.4902564102563
20
47.4864206907767
30
0
0
VERTEX
8
0
10
63.4092307692307
20
47.9284096267247
30
0
0
VERTEX
8
0
10
64.328205128205
20
48.3522461091652
30
0
0
VERTEX
8
0
10
65.2471794871794
20
48.7744725292325
30
0
0
VERTEX
8
0
10
66.1661538461537
20
49.1851057010632
30
0
0
VERTEX
8
0
10
67.0851282051281
20
49.59377218312
30
0
0
VERTEX
8
0
10
68.0041025641025
20
49.9842976283479
30
0
0
VERTEX
8
0
10
68.9230769230768
20
50.3718938141393
30
0
0
VERTEX
8
0
10
69.8420512820512
20
50.7492467532615
30
0
0
VERTEX
8
0
10
70.7610256410255
20
51.1233223117811
30
0
0
VERTEX
8
0
10
71.6799999999999
20
51.4794828897695
30
0
0
VERTEX
8
0
10
72.5989743589742
20
51.8316572086329
30
0
0
VERTEX
8
0
10
73.5179487179486
20
52.1746390056017
30
0
0
VERTEX
8
0
10
74.436923076923
20
52.5132984017103
30
0
0
VERTEX
8
0
10
75.3558974358973
20
52.8344361622675
30
0
0
VERTEX
8
0
10
76.2748717948717
20
53.1507483585923
30
0
0
VERTEX
8
0
10
77.193846153846
20
53.4586838229993
30
0
0
VERTEX
8
0
10
78.1128205128204
20
53.7614738695091
30
0
0
VERTEX
8
0
10
79.0317948717947
20
54.0472691319255
30
0
0
VERTEX
8
0
10
79.9507692307691
20
54.3275849140679
30
0
0
VERTEX
8
0
10
80.8697435897435
20
54.6001582211585
30
0
0
VERTEX
8
0
10
81.7887179487178
20
54.8669529640155
30
0
0
VERTEX
8
0
10
82.7076923076922
20
55.1173884693146
30
0
0
VERTEX
8
0
10
83.6266666666665
20
55.3618520290852
30
0
0
VERTEX
8
0
10
84.5456410256409
20
55.5990702534769
30
0
0
VERTEX
8
0
10
85.4646153846152
20
55.8300426170239
30
0
0
VERTEX
8
0
10
86.3835897435896
20
56.0453813319381
30
0
0
VERTEX
8
0
10
87.3025641025639
20
56.2543991032242
30
0
0
VERTEX
8
0
10
88.2215384615383
20
56.4565687433875
30
0
0
VERTEX
8
0
10
89.1405128205126
20
56.6521729106504
30
0
0
VERTEX
8
0
10
90.059487179487
20
56.8329447265493
30
0
0
VERTEX
8
0
10
90.9784615384614
20
57.0071764047032
30
0
0
VERTEX
8
0
10
91.8974358974357
20
57.1748885762334
30
0
0
VERTEX
8
0
10
92.8164102564101
20
57.3358494426011
30
0
0
VERTEX
8
0
10
93.7353846153844
20
57.482843640389
30
0
0
VERTEX
8
0
10
94.6543589743588
20
57.6231977496001
30
0
0
VERTEX
8
0
10
95.5733333333331
20
57.7573189469812
30
0
0
VERTEX
8
0
10
96.4923076923075
20
57.8846258798815
30
0
0
VERTEX
8
0
10
97.4112820512818
20
57.9988868229398
30
0
0
VERTEX
8
0
10
98.3302564102562
20
58.1065184285669
30
0
0
VERTEX
8
0
10
99.2492307692306
20
58.2081839756121
30
0
0
VERTEX
8
0
10
100.168205128205
20
58.3030860083474
30
0
0
VERTEX
8
0
10
101.087179487179
20
58.3859090691242
30
0
0
VERTEX
8
0
10
102.006153846154
20
58.4622163737584
30
0
0
VERTEX
8
0
10
102.925128205128
20
58.5328224750566
30
0
0
VERTEX
8
0
10
103.844102564102
20
58.5968202228171
30
0
0
VERTEX
8
0
10
104.763076923077
20
58.6497422920597
30
0
0
VERTEX
8
0
10
105.682051282051
20
58.6963551014686
30
0
0
VERTEX
8
0
10
106.601025641025
20
58.737540234925
30
0
0
VERTEX
8
0
10
107.52
20
58.7723624806975
30
0
0
VERTEX
8
0
10
108.438974358974
20
58.7971309181513
30
0
0
VERTEX
8
0
10
109.357948717948
20
58.8158687628705
30
0
0
VERTEX
8
0
10
110.276923076923
20
58.8294527774153
30
0
0
VERTEX
8
0
10
111.195897435897
20
58.8369717865231
30
0
0
VERTEX
8
0
10
112.114871794872
20
58.8354228218779
30
0
0
VERTEX
8
0
10
113.033846153846
20
58.8281150038658
30
0
0
VERTEX
8
0
10
113.95282051282
20
58.8158192719236
30
0
0
VERTEX
8
0
10
114.871794871795
20
58.7975969021887
30
0
0
VERTEX
8
0
10
115.790769230769
20
58.770859439539
30
0
0
VERTEX
8
0
10
116.709743589743
20
58.7378270676376
30
0
0
VERTEX
8
0
10
117.628717948718
20
58.6989766800832
30
0
0
VERTEX
8
0
10
118.547692307692
20
58.6568901170579
30
0
0
VERTEX
8
0
10
119.466666666666
20
58.6119950946422
30
0
0
VERTEX
8
0
10
120.385641025641
20
58.5655309632477
30
0
0
VERTEX
8
0
10
121.304615384615
20
58.5174178215882
30
0
0
VERTEX
8
0
10
122.223589743589
20
58.4666417563879
30
0
0
VERTEX
8
0
10
123.142564102564
20
58.4115681207517
30
0
0
VERTEX
8
0
10
124.061538461538
20
58.3537324754352
30
0
0
VERTEX
8
0
10
124.980512820513
20
58.2935639706211
30
0
0
VERTEX
8
0
10
125.899487179487
20
58.2304959982172
30
0
0
VERTEX
8
0
10
126.818461538461
20
58.1634860398814
30
0
0
VERTEX
8
0
10
127.737435897436
20
58.0938009251589
30
0
0
VERTEX
8
0
10
128.65641025641
20
58.0218593479819
30
0
0
VERTEX
8
0
10
129.575384615384
20
57.9473012132208
30
0
0
VERTEX
8
0
10
130.494358974359
20
57.8694924086632
30
0
0
VERTEX
8
0
10
131.413333333333
20
57.7894084730126
30
0
0
VERTEX
8
0
10
132.332307692307
20
57.7074175610921
30
0
0
VERTEX
8
0
10
133.251282051282
20
57.6233383225174
30
0
0
VERTEX
8
0
10
134.170256410256
20
57.5368720661608
30
0
0
VERTEX
8
0
10
135.08923076923
20
57.4487506194218
30
0
0
VERTEX
8
0
10
136.008205128205
20
57.359302281208
30
0
0
VERTEX
8
0
10
136.927179487179
20
57.2685195514363
30
0
0
VERTEX
8
0
10
137.846153846153
20
57.1763862874172
30
0
0
VERTEX
8
0
10
138.765128205128
20
57.0834634409718
30
0
0
VERTEX
8
0
10
139.684102564102
20
56.9900787524549
30
0
0
VERTEX
8
0
10
140.603076923077
20
56.8964092115853
30
0
0
VERTEX
8
0
10
141.522051282051
20
56.8026916966455
30
0
0
VERTEX
8
0
10
142.441025641025
20
56.7094300941091
30
0
0
VERTEX
8
0
10
143.36
20
56.6170500645282
30
0
0
VERTEX
8
0
10
144.278974358974
20
56.5259950024174
30
0
0
VERTEX
8
0
10
145.197948717948
20
56.4368504145788
30
0
0
VERTEX
8
0
10
146.116923076923
20
56.3504096513836
30
0
0
VERTEX
8
0
10
147.035897435897
20
56.2676251066213
30
0
0
VERTEX
8
0
10
147.954871794871
20
56.1891419037171
30
0
0
VERTEX
8
0
10
148.873846153846
20
56.1146162010221
30
0
0
VERTEX
8
0
10
149.79282051282
20
56.0433860039603
30
0
0
VERTEX
8
0
10
150.711794871795
20
55.9749611227534
30
0
0
VERTEX
8
0
10
151.630769230769
20
55.9089983918421
30
0
0
VERTEX
8
0
10
152.549743589743
20
55.8452421404582
30
0
0
VERTEX
8
0
10
153.468717948718
20
55.7834915076503
30
0
0
VERTEX
8
0
10
154.387692307692
20
55.7235827052935
30
0
0
VERTEX
8
0
10
155.306666666666
20
55.6653785622818
30
0
0
VERTEX
8
0
10
156.225641025641
20
55.6087618797431
30
0
0
VERTEX
8
0
10
157.144615384615
20
55.5536309547316
30
0
0
VERTEX
8
0
10
158.063589743589
20
55.4998964258758
30
0
0
VERTEX
8
0
10
158.982564102564
20
55.4474789700672
30
0
0
VERTEX
8
0
10
159.901538461538
20
55.3963075714081
30
0
0
VERTEX
8
0
10
160.820512820513
20
55.3463181888769
30
0
0
VERTEX
8
0
10
161.739487179487
20
55.2974527101162
30
0
0
VERTEX
8
0
10
162.658461538461
20
55.2496581157314
30
0
0
VERTEX
8
0
10
163.577435897436
20
55.2028858018175
30
0
0
VERTEX
8
0
10
164.49641025641
20
55.1570910236363
30
0
0
VERTEX
8
0
10
165.415384615384
20
55.1122324335714
30
0
0
VERTEX
8
0
10
166.334358974359
20
55.0682716935071
30
0
0
VERTEX
8
0
10
167.253333333333
20
55.0251731467108
30
0
0
VERTEX
8
0
10
168.172307692308
20
54.9829035378325
30
0
0
VERTEX
8
0
10
169.091282051282
20
54.9414317722189
30
0
0
VERTEX
8
0
10
170.010256410256
20
54.9007287076471
30
0
0
VERTEX
8
0
10
170.929230769231
20
54.8607669730199
30
0
0
VERTEX
8
0
10
171.848205128205
20
54.821520809657
30
0
0
SEQEND
8
0
0
POLYLINE
8
0
62
4
70
0
10
0
20
0
30
0
0
VERTEX
8
0
10
1.83794871794872
20
1.95550620296036
30
0
0
VERTEX
8
0
10
2.75692307692308
20
2.75098865684694
30
0
0
VERTEX
8
0
10
3.67589743589744
20
3.55285858210869
30
0
0
VERTEX
8
0
10
4.59487179487179
20
4.35669492581404
30
0
0
VERTEX
8
0
10
5.51384615384615
20
5.14553877317478
30
0
0
VERTEX
8
0
10
6.43282051282051
20
5.88874261834331
30
0
0
VERTEX
8
0
10
7.35179487179487
20
6.64633271726212
30
0
0
VERTEX
8
0
10
8.27076923076923
20
7.40243420910756
30
0
0
VERTEX
8
0
10
9.18974358974359
20
8.16211868043784
30
0
0
VERTEX
8
0
10
10.1087179487179
20
8.91472594730905
30
0
0
VERTEX
8
0
10
11.0276923076923
20
9.69791753265553
30
0
0
VERTEX
8
0
10
11.9466666666667
20
10.4992331769767
30
0
0
VERTEX
8
0
10
12.865641025641
20
11.2822857018474
30
0
0
VERTEX
8
0
10
13.7846153846154
20
12.1267286041133
30
0
0
VERTEX
8
0
10
14.7035897435897
20
13.0019982649579
30
0
0
VERTEX
8
0
10
15.6225641025641
20
13.8755341569515
30
0
0
VERTEX
8
0
10
16.5415384615385
20
14.7759153577225
30
0
0
VERTEX
8
0
10
17.4605128205128
20
15.6874800318937
30
0
0
VERTEX
8
0
10
18.3794871794872
20
16.6082381497206
30
0
0
VERTEX
8
0
10
19.2984615384615
20
17.5982650660987
30
0
0
VERTEX
8
0
10
20.2174358974359
20
18.5837964546469
30
0
0
VERTEX
8
0
10
21.1364102564103
20
19.5701297024379
30
0
0
VERTEX
8
0
10
22.0553846153846
20
20.5374574480828
30
0
0
VERTEX
8
0
10
22.974358974359
20
21.5042813574732
30
0
0
VERTEX
8
0
10
23.8933333333333
20
22.4579480041423
30
0
0
VERTEX
8
0
10
24.8123076923077
20
23.3878858433666
30
0
0
VERTEX
8
0
10
25.7312820512821
20
24.3302620925026
30
0
0
VERTEX
8
0
10
26.6502564102564
20
25.2702063176596
30
0
0
VERTEX
8
0
10
27.5692307692308
20
26.1008270905193
30
0
0
VERTEX
8
0
10
28.4882051282051
20
26.911670728465
30
0
0
VERTEX
8
0
10
29.4071794871795
20
27.7278168845178
30
0
0
VERTEX
8
0
10
30.3261538461539
20
28.4385600627163
30
0
0
VERTEX
8
0
10
31.2451282051282
20
29.1470135202036
30
0
0
VERTEX
8
0
10
32.1641025641026
20
29.8516223753271
30
0
0
VERTEX
8
0
10
33.0830769230769
20
30.44893637705
30
0
0
VERTEX
8
0
10
34.0020512820513
20
31.0774542880059
30
0
0
VERTEX
8
0
10
34.9210256410257
20
31.6922011216626
30
0
0
VERTEX
8
0
10
35.84
20
32.2028442496134
30
0
0
VERTEX
8
0
10
36.7589743589744
20
32.746463010837
30
0
0
VERTEX
8
0
10
37.6779487179487
20
33.273752204538
30
0
0
VERTEX
8
0
10
38.5969230769231
20
33.7753938584166
30
0
0
VERTEX
8
0
10
39.5158974358974
20
34.2738811211303
30
0
0
VERTEX
8
0
10
40.4348717948718
20
34.7713180203584
30
0
0
VERTEX
8
0
10
41.3538461538461
20
35.2606619638758
30
0
0
VERTEX
8
0
10
42.2728205128205
20
35.7392603879249
30
0
0
VERTEX
8
0
10
43.1917948717949
20
36.2183188047831
30
0
0
VERTEX
8
0
10
44.1107692307692
20
36.7048393358897
30
0
0
VERTEX
8
0
10
45.0297435897436
20
37.1894989712914
30
0
0
VERTEX
8
0
10
45.9487179487179
20
37.6711672326625
30
0
0
VERTEX
8
0
10
46.8676923076923
20
38.1496361150775
30
0
0
VERTEX
8
0
10
47.7866666666666
20
38.6341259843388
30
0
0
VERTEX
8
0
10
48.705641025641
20
39.1156658870982
30
0
0
VERTEX
8
0
10
49.6246153846154
20
39.5853775610777
30
0
0
VERTEX
8
0
10
50.5435897435897
20
40.0523538501733
30
0
0
VERTEX
8
0
10
51.4625641025641
20
40.5583788051765
30
0
0
VERTEX
8
0
10
52.3815384615384
20
41.0574434225416
30
0
0
VERTEX
8
0
10
53.3005128205128
20
41.5443692385571
30
0
0
VERTEX
8
0
10
54.2194871794871
20
42.0408504741749
30
0
0
VERTEX
8
0
10
55.1384615384615
20
42.5388318076612
30
0
0
VERTEX
8
0
10
56.0574358974358
20
43.0331388487827
30
0
0
VERTEX
8
0
10
56.9764102564102
20
43.5185111690482
30
0
0
VERTEX
8
0
10
57.8953846153846
20
43.9999138154901
30
0
0
VERTEX
8
0
10
58.8143589743589
20
44.4851528914629
30
0
0
VERTEX
8
0
10
59.7333333333333
20
45.0058068986754
30
0
0
VERTEX
8
0
10
60.6523076923076
20
45.5070442326414
30
0
0
VERTEX
8
0
10
61.571282051282
20
46.0044070415351
30
0
0
VERTEX
8
0
10
62.4902564102563
20
46.472173288563
30
0
0
VERTEX
8
0
10
63.4092307692307
20
46.9443551025067
30
0
0
VERTEX
8
0
10
64.328205128205
20
47.4047901078619
30
0
0
VERTEX
8
0
10
65.2471794871794
20
47.8781772497485
30
0
0
VERTEX
8
0
10
66.1661538461537
20
48.3487375739986
30
0
0
VERTEX
8
0
10
67.0851282051281
20
48.8127973965559
30
0
0
VERTEX
8
0
10
68.0041025641025
20
49.2646724250676
30
0
0
VERTEX
8
0
10
68.9230769230768
20
49.7123777686342
30
0
0
VERTEX
8
0
10
69.8420512820512
20
50.1622316580421
30
0
0
VERTEX
8
0
10
70.7610256410255
20
50.6330509443041
30
0
0
VERTEX
8
0
10
71.6799999999999
20
51.0855274132435
30
0
0
VERTEX
8
0
10
72.5989743589742
20
51.5183756444378
30
0
0
VERTEX
8
0
10
73.5179487179486
20
51.9420328674699
30
0
0
VERTEX
8
0
10
74.436923076923
20
52.3611899126648
30
0
0
VERTEX
8
0
10
75.3558974358973
20
52.7476020871915
30
0
0
VERTEX
8
0
10
76.2748717948717
20
53.1327609360665
30
0
0
VERTEX
8
0
10
77.193846153846
20
53.5190526842239
30
0
0
VERTEX
8
0
10
78.1128205128204
20
53.8348209152913
30
0
0
VERTEX
8
0
10
79.0317948717947
20
54.0915571329985
30
0
0
VERTEX
8
0
10
79.9507692307691
20
54.3441435356305
30
0
0
VERTEX
8
0
10
80.8697435897435
20
54.6016426568885
30
0
0
VERTEX
8
0
10
81.7887179487178
20
54.8564697457688
30
0
0
VERTEX
8
0
10
82.7076923076922
20
55.1017467030152
30
0
0
VERTEX
8
0
10
83.6266666666665
20
55.3511162832823
30
0
0
VERTEX
8
0
10
84.5456410256409
20
55.601774043539
30
0
0
VERTEX
8
0
10
85.4646153846152
20
55.847930549201
30
0
0
VERTEX
8
0
10
86.3835897435896
20
56.0795819712224
30
0
0
VERTEX
8
0
10
87.3025641025639
20
56.3066699388696
30
0
0
VERTEX
8
0
10
88.2215384615383
20
56.533677455823
30
0
0
VERTEX
8
0
10
89.1405128205126
20
56.7273166044162
30
0
0
VERTEX
8
0
10
90.059487179487
20
56.9143113925216
30
0
0
VERTEX
8
0
10
90.9784615384614
20
57.097159832313
30
0
0
VERTEX
8
0
10
91.8974358974357
20
57.1829591218892
30
0
0
VERTEX
8
0
10
92.8164102564101
20
57.2621337908828
30
0
0
VERTEX
8
0
10
93.7353846153844
20
57.3338426194475
30
0
0
VERTEX
8
0
10
94.6543589743588
20
57.4130222123668
30
0
0
VERTEX
8
0
10
95.5733333333331
20
57.4892915885332
30
0
0
VERTEX
8
0
10
96.4923076923075
20
57.5597613477844
30
0
0
VERTEX
8
0
10
97.4112820512818
20
57.6216681752555
30
0
0
VERTEX
8
0
10
98.3302564102562
20
57.6800314262392
30
0
0
VERTEX
8
0
10
99.2492307692306
20
57.7378253406007
30
0
0
VERTEX
8
0
10
100.168205128205
20
57.7945352583727
30
0
0
VERTEX
8
0
10
101.087179487179
20
57.844087834537
30
0
0
VERTEX
8
0
10
102.006153846154
20
57.8901494589419
30
0
0
VERTEX
8
0
10
102.925128205128
20
57.9368043472867
30
0
0
VERTEX
8
0
10
103.844102564102
20
57.9793659563276
30
0
0
VERTEX
8
0
10
104.763076923077
20
58.0148024983059
30
0
0
VERTEX
8
0
10
105.682051282051
20
58.046439654107
30
0
0
VERTEX
8
0
10
106.601025641025
20
58.0769416763821
30
0
0
VERTEX
8
0
10
107.52
20
58.1104331496857
30
0
0
VERTEX
8
0
10
108.438974358974
20
58.143021744016
30
0
0
VERTEX
8
0
10
109.357948717948
20
58.1723318412355
30
0
0
VERTEX
8
0
10
110.276923076923
20
58.1969361595963
30
0
0
VERTEX
8
0
10
111.195897435897
20
58.217422080832
30
0
0
VERTEX
8
0
10
112.114871794872
20
58.2328882001053
30
0
0
VERTEX
8
0
10
113.033846153846
20
58.2316393102335
30
0
0
VERTEX
8
0
10
113.95282051282
20
58.2305606762277
30
0
0
VERTEX
8
0
10
114.871794871795
20
58.2264691924935
30
0
0
VERTEX
8
0
10
115.790769230769
20
58.2202462138342
30
0
0
VERTEX
8
0
10
116.709743589743
20
58.2118528017304
30
0
0
VERTEX
8
0
10
117.628717948718
20
58.2020158838921
30
0
0
VERTEX
8
0
10
118.547692307692
20
58.1971125023652
30
0
0
VERTEX
8
0
10
119.466666666666
20
58.189281020261
30
0
0
VERTEX
8
0
10
120.385641025641
20
58.1792033249328
30
0
0
VERTEX
8
0
10
121.304615384615
20
58.1545337826007
30
0
0
VERTEX
8
0
10
122.223589743589
20
58.129359527306
30
0
0
VERTEX
8
0
10
123.142564102564
20
58.1011709053921
30
0
0
VERTEX
8
0
10
124.061538461538
20
58.0799277615249
30
0
0
VERTEX
8
0
10
124.980512820513
20
58.0561227195377
30
0
0
VERTEX
8
0
10
125.899487179487
20
58.0302986535393
30
0
0
VERTEX
8
0
10
126.818461538461
20
58.0026359810908
30
0
0
VERTEX
8
0
10
127.737435897436
20
57.973008559476
30
0
0
VERTEX
8
0
10
128.65641025641
20
57.9421682937335
30
0
0
VERTEX
8
0
10
129.575384615384
20
57.9132727014564
30
0
0
VERTEX
8
0
10
130.494358974359
20
57.8816181483548
30
0
0
VERTEX
8
0
10
131.413333333333
20
57.8415298445083
30
0
0
VERTEX
8
0
10
132.332307692307
20
57.7946614876206
30
0
0
VERTEX
8
0
10
133.251282051282
20
57.7463869996981
30
0
0
VERTEX
8
0
10
134.170256410256
20
57.6809973061591
30
0
0
VERTEX
8
0
10
135.08923076923
20
57.6107497425278
30
0
0
VERTEX
8
0
10
136.008205128205
20
57.539740908476
30
0
0
VERTEX
8
0
10
136.927179487179
20
57.4677931095059
30
0
0
VERTEX
8
0
10
137.846153846153
20
57.4037395405989
30
0
0
VERTEX
8
0
10
138.765128205128
20
57.3364274208612
30
0
0
VERTEX
8
0
10
139.684102564102
20
57.2692906015244
30
0
0
VERTEX
8
0
10
140.603076923077
20
57.2019166986862
30
0
0
VERTEX
8
0
10
141.522051282051
20
57.1339686140449
30
0
0
VERTEX
8
0
10
142.441025641025
20
57.0719986699738
30
0
0
VERTEX
8
0
10
143.36
20
57.0101886931374
30
0
0
VERTEX
8
0
10
144.278974358974
20
56.9481280624611
30
0
0
VERTEX
8
0
10
145.197948717948
20
56.8859228639279
30
0
0
VERTEX
8
0
10
146.116923076923
20
56.8101409890659
30
0
0
VERTEX
8
0
10
147.035897435897
20
56.7383287386111
30
0
0
VERTEX
8
0
10
147.954871794871
20
56.6697284310405
30
0
0
VERTEX
8
0
10
148.873846153846
20
56.6041801266422
30
0
0
VERTEX
8
0
10
149.79282051282
20
56.5388689486037
30
0
0
VERTEX
8
0
10
150.711794871795
20
56.477417156819
30
0
0
VERTEX
8
0
10
151.630769230769
20
56.4176259919969
30
0
0
VERTEX
8
0
10
152.549743589743
20
56.3580390883622
30
0
0
VERTEX
8
0
10
153.468717948718
20
56.2890946210225
30
0
0
VERTEX
8
0
10
154.387692307692
20
56.2174898017482
30
0
0
VERTEX
8
0
10
155.306666666666
20
56.1461878221511
30
0
0
VERTEX
8
0
10
156.225641025641
20
56.0889748117357
30
0
0
VERTEX
8
0
10
157.144615384615
20
56.0336691615719
30
0
0
VERTEX
8
0
10
158.063589743589
20
55.9785502043604
30
0
0
VERTEX
8
0
10
158.982564102564
20
55.9155252860748
30
0
0
VERTEX
8
0
10
159.901538461538
20
55.8509597867541
30
0
0
VERTEX
8
0
10
160.820512820513
20
55.7866569649081
30
0
0
VERTEX
8
0
10
161.739487179487
20
55.7357406649856
30
0
0
VERTEX
8
0
10
162.658461538461
20
55.6833887523702
30
0
0
VERTEX
8
0
10
163.577435897436
20
55.6312150123267
30
0
0
VERTEX
8
0
10
164.49641025641
20
55.5673497860568
30
0
0
VERTEX
8
0
10
165.415384615384
20
55.5071029076265
30
0
0
VERTEX
8
0
10
166.334358974359
20
55.4470997266774
30
0
0
VERTEX
8
0
10
167.253333333333
20
55.405110035481
30
0
0
VERTEX
8
0
10
168.172307692308
20
55.3619873072223
30
0
0
VERTEX
8
0
10
169.091282051282
20
55.3189930729933
30
0
0
VERTEX
8
0
10
170.010256410256
20
55.2717271374878
30
0
0
VERTEX
8
0
10
170.929230769231
20
55.2255047237952
30
0
0
VERTEX
8
0
10
171.848205128205
20
55.1905312003548
30
0
0
SEQEND
8
0
0
ENDSEC
0
EOF
