0
SECTION
2
HEADER
9
$ACADVER
1
AC1009
0
ENDSEC
0
SECTION
2
ENTITIES
0
POLYLINE
8
0
62
0
70
1
10
0
20
0
30
0
0
VERTEX
8
0
10
0
20
0
30
0
0
VERTEX
8
0
10
0
20
122.681
30
0
0
VERTEX
8
0
10
179.2
20
122.681
30
0
0
VERTEX
8
0
10
179.2
20
0
30
0
0
SEQEND
8
0
0
TEXT
8
0
62
0
10
0
20
-12
30
0
40
8
1
0
50
0
0
LINE
8
0
62
0
10
6.68644241711908
20
0
30
0
11
6.68644241711908
21
3.2
31
0
0
LINE
8
0
62
0
10
6.68644241711908
20
122.681
30
0
11
6.68644241711908
21
119.481
31
0
0
LINE
8
0
62
0
10
13.3728848342382
20
0
30
0
11
13.3728848342382
21
3.2
31
0
0
LINE
8
0
62
0
10
13.3728848342382
20
122.681
30
0
11
13.3728848342382
21
119.481
31
0
0
LINE
8
0
62
0
10
20.0593272513573
20
0
30
0
11
20.0593272513573
21
3.2
31
0
0
LINE
8
0
62
0
10
20.0593272513573
20
122.681
30
0
11
20.0593272513573
21
119.481
31
0
0
LINE
8
0
62
0
10
26.7457696684763
20
0
30
0
11
26.7457696684763
21
3.2
31
0
0
LINE
8
0
62
0
10
26.7457696684763
20
122.681
30
0
11
26.7457696684763
21
119.481
31
0
0
LINE
8
0
62
0
10
33.4322120855954
20
0
30
0
11
33.4322120855954
21
6.4
31
0
0
LINE
8
0
62
0
10
33.4322120855954
20
122.681
30
0
11
33.4322120855954
21
116.281
31
0
0
TEXT
8
0
62
0
10
33.4322120855954
20
-12
30
0
40
8
1
0.5
50
0
0
LINE
8
0
62
0
10
40.1186545027145
20
0
30
0
11
40.1186545027145
21
3.2
31
0
0
LINE
8
0
62
0
10
40.1186545027145
20
122.681
30
0
11
40.1186545027145
21
119.481
31
0
0
LINE
8
0
62
0
10
46.8050969198336
20
0
30
0
11
46.8050969198336
21
3.2
31
0
0
LINE
8
0
62
0
10
46.8050969198336
20
122.681
30
0
11
46.8050969198336
21
119.481
31
0
0
LINE
8
0
62
0
10
53.4915393369527
20
0
30
0
11
53.4915393369527
21
3.2
31
0
0
LINE
8
0
62
0
10
53.4915393369527
20
122.681
30
0
11
53.4915393369527
21
119.481
31
0
0
LINE
8
0
62
0
10
60.1779817540717
20
0
30
0
11
60.1779817540717
21
3.2
31
0
0
LINE
8
0
62
0
10
60.1779817540717
20
122.681
30
0
11
60.1779817540717
21
119.481
31
0
0
LINE
8
0
62
0
10
66.8644241711908
20
0
30
0
11
66.8644241711908
21
6.4
31
0
0
LINE
8
0
62
0
10
66.8644241711908
20
122.681
30
0
11
66.8644241711908
21
116.281
31
0
0
TEXT
8
0
62
0
10
66.8644241711908
20
-12
30
0
40
8
1
1
50
0
0
LINE
8
0
62
0
10
73.5508665883099
20
0
30
0
11
73.5508665883099
21
3.2
31
0
0
LINE
8
0
62
0
10
73.5508665883099
20
122.681
30
0
11
73.5508665883099
21
119.481
31
0
0
LINE
8
0
62
0
10
80.237309005429
20
0
30
0
11
80.237309005429
21
3.2
31
0
0
LINE
8
0
62
0
10
80.237309005429
20
122.681
30
0
11
80.237309005429
21
119.481
31
0
0
LINE
8
0
62
0
10
86.9237514225481
20
0
30
0
11
86.9237514225481
21
3.2
31
0
0
LINE
8
0
62
0
10
86.9237514225481
20
122.681
30
0
11
86.9237514225481
21
119.481
31
0
0
LINE
8
0
62
0
10
93.6101938396672
20
0
30
0
11
93.6101938396672
21
3.2
31
0
0
LINE
8
0
62
0
10
93.6101938396672
20
122.681
30
0
11
93.6101938396672
21
119.481
31
0
0
LINE
8
0
62
0
10
100.296636256786
20
0
30
0
11
100.296636256786
21
6.4
31
0
0
LINE
8
0
62
0
10
100.296636256786
20
122.681
30
0
11
100.296636256786
21
116.281
31
0
0
TEXT
8
0
62
0
10
100.296636256786
20
-12
30
0
40
8
1
1.5
50
0
0
LINE
8
0
62
0
10
106.983078673905
20
0
30
0
11
106.983078673905
21
3.2
31
0
0
LINE
8
0
62
0
10
106.983078673905
20
122.681
30
0
11
106.983078673905
21
119.481
31
0
0
LINE
8
0
62
0
10
113.669521091024
20
0
30
0
11
113.669521091024
21
3.2
31
0
0
LINE
8
0
62
0
10
113.669521091024
20
122.681
30
0
11
113.669521091024
21
119.481
31
0
0
LINE
8
0
62
0
10
120.355963508143
20
0
30
0
11
120.355963508143
21
3.2
31
0
0
LINE
8
0
62
0
10
120.355963508143
20
122.681
30
0
11
120.355963508143
21
119.481
31
0
0
LINE
8
0
62
0
10
127.042405925263
20
0
30
0
11
127.042405925263
21
3.2
31
0
0
LINE
8
0
62
0
10
127.042405925263
20
122.681
30
0
11
127.042405925263
21
119.481
31
0
0
LINE
8
0
62
0
10
133.728848342382
20
0
30
0
11
133.728848342382
21
6.4
31
0
0
LINE
8
0
62
0
10
133.728848342382
20
122.681
30
0
11
133.728848342382
21
116.281
31
0
0
TEXT
8
0
62
0
10
133.728848342382
20
-12
30
0
40
8
1
2
50
0
0
LINE
8
0
62
0
10
140.415290759501
20
0
30
0
11
140.415290759501
21
3.2
31
0
0
LINE
8
0
62
0
10
140.415290759501
20
122.681
30
0
11
140.415290759501
21
119.481
31
0
0
LINE
8
0
62
0
10
147.10173317662
20
0
30
0
11
147.10173317662
21
3.2
31
0
0
LINE
8
0
62
0
10
147.10173317662
20
122.681
30
0
11
147.10173317662
21
119.481
31
0
0
LINE
8
0
62
0
10
153.788175593739
20
0
30
0
11
153.788175593739
21
3.2
31
0
0
LINE
8
0
62
0
10
153.788175593739
20
122.681
30
0
11
153.788175593739
21
119.481
31
0
0
LINE
8
0
62
0
10
160.474618010858
20
0
30
0
11
160.474618010858
21
3.2
31
0
0
LINE
8
0
62
0
10
160.474618010858
20
122.681
30
0
11
160.474618010858
21
119.481
31
0
0
LINE
8
0
62
0
10
167.161060427977
20
0
30
0
11
167.161060427977
21
6.4
31
0
0
LINE
8
0
62
0
10
167.161060427977
20
122.681
30
0
11
167.161060427977
21
116.281
31
0
0
TEXT
8
0
62
0
10
167.161060427977
20
-12
30
0
40
8
1
2.5
50
0
0
LINE
8
0
62
0
10
173.847502845096
20
0
30
0
11
173.847502845096
21
3.2
31
0
0
LINE
8
0
62
0
10
173.847502845096
20
122.681
30
0
11
173.847502845096
21
119.481
31
0
0
TEXT
8
0
62
0
10
-4
20
-4
30
0
40
8
1
0
50
0
0
LINE
8
0
62
0
10
0
20
5.45248888888889
30
0
11
3.2
21
5.45248888888889
31
0
0
LINE
8
0
62
0
10
179.2
20
5.45248888888889
30
0
11
176
21
5.45248888888889
31
0
0
LINE
8
0
62
0
10
0
20
10.9049777777778
30
0
11
3.2
21
10.9049777777778
31
0
0
LINE
8
0
62
0
10
179.2
20
10.9049777777778
30
0
11
176
21
10.9049777777778
31
0
0
LINE
8
0
62
0
10
0
20
16.3574666666667
30
0
11
3.2
21
16.3574666666667
31
0
0
LINE
8
0
62
0
10
179.2
20
16.3574666666667
30
0
11
176
21
16.3574666666667
31
0
0
LINE
8
0
62
0
10
0
20
21.8099555555556
30
0
11
3.2
21
21.8099555555556
31
0
0
LINE
8
0
62
0
10
179.2
20
21.8099555555556
30
0
11
176
21
21.8099555555556
31
0
0
LINE
8
0
62
0
10
0
20
27.2624444444444
30
0
11
6.4
21
27.2624444444444
31
0
0
LINE
8
0
62
0
10
179.2
20
27.2624444444444
30
0
11
172.8
21
27.2624444444444
31
0
0
TEXT
8
0
62
0
10
-4
20
23.2624444444444
30
0
40
8
1
20
50
0
0
LINE
8
0
62
0
10
0
20
32.7149333333333
30
0
11
3.2
21
32.7149333333333
31
0
0
LINE
8
0
62
0
10
179.2
20
32.7149333333333
30
0
11
176
21
32.7149333333333
31
0
0
LINE
8
0
62
0
10
0
20
38.1674222222222
30
0
11
3.2
21
38.1674222222222
31
0
0
LINE
8
0
62
0
10
179.2
20
38.1674222222222
30
0
11
176
21
38.1674222222222
31
0
0
LINE
8
0
62
0
10
0
20
43.6199111111111
30
0
11
3.2
21
43.6199111111111
31
0
0
LINE
8
0
62
0
10
179.2
20
43.6199111111111
30
0
11
176
21
43.6199111111111
31
0
0
LINE
8
0
62
0
10
0
20
49.0724
30
0
11
3.2
21
49.0724
31
0
0
LINE
8
0
62
0
10
179.2
20
49.0724
30
0
11
176
21
49.0724
31
0
0
LINE
8
0
62
0
10
0
20
54.5248888888889
30
0
11
6.4
21
54.5248888888889
31
0
0
LINE
8
0
62
0
10
179.2
20
54.5248888888889
30
0
11
172.8
21
54.5248888888889
31
0
0
TEXT
8
0
62
0
10
-4
20
50.5248888888889
30
0
40
8
1
40
50
0
0
LINE
8
0
62
0
10
0
20
59.9773777777778
30
0
11
3.2
21
59.9773777777778
31
0
0
LINE
8
0
62
0
10
179.2
20
59.9773777777778
30
0
11
176
21
59.9773777777778
31
0
0
LINE
8
0
62
0
10
0
20
65.4298666666667
30
0
11
3.2
21
65.4298666666667
31
0
0
LINE
8
0
62
0
10
179.2
20
65.4298666666667
30
0
11
176
21
65.4298666666667
31
0
0
LINE
8
0
62
0
10
0
20
70.8823555555555
30
0
11
3.2
21
70.8823555555555
31
0
0
LINE
8
0
62
0
10
179.2
20
70.8823555555555
30
0
11
176
21
70.8823555555555
31
0
0
LINE
8
0
62
0
10
0
20
76.3348444444444
30
0
11
3.2
21
76.3348444444444
31
0
0
LINE
8
0
62
0
10
179.2
20
76.3348444444444
30
0
11
176
21
76.3348444444444
31
0
0
LINE
8
0
62
0
10
0
20
81.7873333333333
30
0
11
6.4
21
81.7873333333333
31
0
0
LINE
8
0
62
0
10
179.2
20
81.7873333333333
30
0
11
172.8
21
81.7873333333333
31
0
0
TEXT
8
0
62
0
10
-4
20
77.7873333333333
30
0
40
8
1
60
50
0
0
LINE
8
0
62
0
10
0
20
87.2398222222222
30
0
11
3.2
21
87.2398222222222
31
0
0
LINE
8
0
62
0
10
179.2
20
87.2398222222222
30
0
11
176
21
87.2398222222222
31
0
0
LINE
8
0
62
0
10
0
20
92.6923111111111
30
0
11
3.2
21
92.6923111111111
31
0
0
LINE
8
0
62
0
10
179.2
20
92.6923111111111
30
0
11
176
21
92.6923111111111
31
0
0
LINE
8
0
62
0
10
0
20
98.1448
30
0
11
3.2
21
98.1448
31
0
0
LINE
8
0
62
0
10
179.2
20
98.1448
30
0
11
176
21
98.1448
31
0
0
LINE
8
0
62
0
10
0
20
103.597288888889
30
0
11
3.2
21
103.597288888889
31
0
0
LINE
8
0
62
0
10
179.2
20
103.597288888889
30
0
11
176
21
103.597288888889
31
0
0
LINE
8
0
62
0
10
0
20
109.049777777778
30
0
11
6.4
21
109.049777777778
31
0
0
LINE
8
0
62
0
10
179.2
20
109.049777777778
30
0
11
172.8
21
109.049777777778
31
0
0
TEXT
8
0
62
0
10
-4
20
105.049777777778
30
0
40
8
1
80
50
0
0
LINE
8
0
62
0
10
0
20
114.502266666667
30
0
11
3.2
21
114.502266666667
31
0
0
LINE
8
0
62
0
10
179.2
20
114.502266666667
30
0
11
176
21
114.502266666667
31
0
0
LINE
8
0
62
0
10
0
20
119.954755555556
30
0
11
3.2
21
119.954755555556
31
0
0
LINE
8
0
62
0
10
179.2
20
119.954755555556
30
0
11
176
21
119.954755555556
31
0
0
TEXT
8
0
62
0
10
89.6
20
-32
30
0
40
10
1
R (kpc)
50
0
0
TEXT
8
0
62
0
10
-24
20
61.3405
30
0
40
10
1
V (km/s)
50
90
0
TEXT
8
0
62
0
10
72.6
20
137.681
30
0
40
11
1
V vs. R
50
0
0
POLYLINE
8
0
62
5
70
0
10
0
20
0
30
0
0
VERTEX
8
0
10
8.69237514225481
20
13.867176958343
30
0
0
VERTEX
8
0
10
9.36101938396672
20
14.4395199138095
30
0
0
VERTEX
8
0
10
10.0296636256786
20
15.011862869276
30
0
0
VERTEX
8
0
10
10.6983078673905
20
15.5842058247424
30
0
0
VERTEX
8
0
10
11.3669521091024
20
16.1565487802089
30
0
0
VERTEX
8
0
10
12.0355963508144
20
16.7856391180461
30
0
0
VERTEX
8
0
10
12.7042405925263
20
17.4077510261619
30
0
0
VERTEX
8
0
10
13.3728848342382
20
18.0298629342776
30
0
0
VERTEX
8
0
10
14.0415290759501
20
18.6519748423933
30
0
0
VERTEX
8
0
10
14.710173317662
20
19.2510113028763
30
0
0
VERTEX
8
0
10
15.3788175593739
20
19.8537686182951
30
0
0
VERTEX
8
0
10
16.0474618010858
20
20.4565259337139
30
0
0
VERTEX
8
0
10
16.7161060427977
20
21.0592832491327
30
0
0
VERTEX
8
0
10
17.3847502845096
20
21.5691510420841
30
0
0
VERTEX
8
0
10
18.0533945262215
20
22.097254928529
30
0
0
VERTEX
8
0
10
18.7220387679334
20
22.6253588149739
30
0
0
VERTEX
8
0
10
19.3906830096454
20
23.1534627014188
30
0
0
VERTEX
8
0
10
20.0593272513573
20
23.6743981621657
30
0
0
VERTEX
8
0
10
20.7279714930692
20
24.1969721649829
30
0
0
VERTEX
8
0
10
21.3966157347811
20
24.7195461678002
30
0
0
VERTEX
8
0
10
22.065259976493
20
25.2421201706174
30
0
0
VERTEX
8
0
10
22.7339042182049
20
25.6975888591822
30
0
0
VERTEX
8
0
10
23.4025484599168
20
26.1703939093501
30
0
0
VERTEX
8
0
10
24.0711927016287
20
26.6431989595181
30
0
0
VERTEX
8
0
10
24.7398369433406
20
27.116004009686
30
0
0
VERTEX
8
0
10
25.4084811850525
20
27.5694493939587
30
0
0
VERTEX
8
0
10
26.0771254267644
20
28.0284297350575
30
0
0
VERTEX
8
0
10
26.7457696684763
20
28.4874100761562
30
0
0
VERTEX
8
0
10
27.4144139101883
20
28.9463904172549
30
0
0
VERTEX
8
0
10
28.0830581519002
20
29.3571812382248
30
0
0
VERTEX
8
0
10
28.7517023936121
20
29.7829822775573
30
0
0
VERTEX
8
0
10
29.420346635324
20
30.2087833168899
30
0
0
VERTEX
8
0
10
30.0889908770359
20
30.6513208965653
30
0
0
VERTEX
8
0
10
30.7576351187478
20
31.110301237664
30
0
0
VERTEX
8
0
10
31.4262793604597
20
31.5692815787627
30
0
0
VERTEX
8
0
10
32.0949236021716
20
32.0282619198614
30
0
0
VERTEX
8
0
10
32.7635678438835
20
32.4733951142178
30
0
0
VERTEX
8
0
10
33.4322120855954
20
32.9074909789919
30
0
0
VERTEX
8
0
10
34.1008563273073
20
33.3415868437659
30
0
0
VERTEX
8
0
10
34.7695005690193
20
33.77568270854
30
0
0
VERTEX
8
0
10
35.4381448107312
20
34.2249204615417
30
0
0
VERTEX
8
0
10
36.1067890524431
20
34.6839008026404
30
0
0
VERTEX
8
0
10
36.775433294155
20
35.1428811437391
30
0
0
VERTEX
8
0
10
37.4440775358669
20
35.6018614848378
30
0
0
VERTEX
8
0
10
38.1127217775788
20
36.0553629493656
30
0
0
VERTEX
8
0
10
38.7813660192907
20
36.5060484650228
30
0
0
VERTEX
8
0
10
39.4500102610026
20
36.9567339806799
30
0
0
VERTEX
8
0
10
40.1186545027145
20
37.4074194963371
30
0
0
VERTEX
8
0
10
40.7872987444264
20
37.8403736407963
30
0
0
VERTEX
8
0
10
41.4559429861383
20
38.2661746801288
30
0
0
VERTEX
8
0
10
42.1245872278503
20
38.6919757194614
30
0
0
VERTEX
8
0
10
42.7932314695622
20
39.1177767587939
30
0
0
VERTEX
8
0
10
43.4618757112741
20
39.5224376729229
30
0
0
VERTEX
8
0
10
44.130519952986
20
39.920589294117
30
0
0
VERTEX
8
0
10
44.7991641946979
20
40.318740915311
30
0
0
VERTEX
8
0
10
45.4678084364098
20
40.7168925365051
30
0
0
VERTEX
8
0
10
46.1364526781217
20
41.1263335211261
30
0
0
VERTEX
8
0
10
46.8050969198336
20
41.5383098513894
30
0
0
VERTEX
8
0
10
47.4737411615455
20
41.9502861816526
30
0
0
VERTEX
8
0
10
48.1423854032574
20
42.362262511916
30
0
0
VERTEX
8
0
10
48.8110296449693
20
42.7598284450768
30
0
0
VERTEX
8
0
10
49.4796738866813
20
43.1552151244571
30
0
0
VERTEX
8
0
10
50.1483181283932
20
43.5506018038373
30
0
0
VERTEX
8
0
10
50.8169623701051
20
43.9459884832175
30
0
0
VERTEX
8
0
10
51.485606611817
20
44.3464663486286
30
0
0
VERTEX
8
0
10
52.1542508535289
20
44.7473829116365
30
0
0
VERTEX
8
0
10
52.8228950952408
20
45.1482994746444
30
0
0
VERTEX
8
0
10
53.4915393369527
20
45.5492160376523
30
0
0
VERTEX
8
0
10
54.1601835786646
20
45.9420642411189
30
0
0
VERTEX
8
0
10
54.8288278203765
20
46.3346859786852
30
0
0
VERTEX
8
0
10
55.4974720620884
20
46.7273077162516
30
0
0
VERTEX
8
0
10
56.1661163038003
20
47.119929453818
30
0
0
VERTEX
8
0
10
56.8347605455123
20
47.5068845646934
30
0
0
VERTEX
8
0
10
57.5034047872242
20
47.8939764186321
30
0
0
VERTEX
8
0
10
58.1720490289361
20
48.2810682725707
30
0
0
VERTEX
8
0
10
58.840693270648
20
48.6681601265094
30
0
0
VERTEX
8
0
10
59.5093375123599
20
49.079069368532
30
0
0
VERTEX
8
0
10
60.1779817540718
20
49.4882807569815
30
0
0
VERTEX
8
0
10
60.8466259957837
20
49.8974921454309
30
0
0
VERTEX
8
0
10
61.5152702374956
20
50.3067035338804
30
0
0
VERTEX
8
0
10
62.1839144792075
20
50.7346411243829
30
0
0
VERTEX
8
0
10
62.8525587209194
20
51.1604421637154
30
0
0
VERTEX
8
0
10
63.5212029626313
20
51.586243203048
30
0
0
VERTEX
8
0
10
64.1898472043433
20
52.0120442423805
30
0
0
VERTEX
8
0
10
64.8584914460552
20
52.5227325215669
30
0
0
VERTEX
8
0
10
65.5271356877671
20
53.0204220480595
30
0
0
VERTEX
8
0
10
66.195779929479
20
53.5181115745521
30
0
0
VERTEX
8
0
10
66.8644241711909
20
54.0158011010447
30
0
0
VERTEX
8
0
10
67.5330684129028
20
54.5373519055762
30
0
0
VERTEX
8
0
10
68.2017126546147
20
55.0543960247657
30
0
0
VERTEX
8
0
10
68.8703568963266
20
55.5714401439552
30
0
0
VERTEX
8
0
10
69.5390011380385
20
56.0884842631447
30
0
0
VERTEX
8
0
10
70.2076453797504
20
56.6303966815283
30
0
0
VERTEX
8
0
10
70.8762896214623
20
57.1667953934147
30
0
0
VERTEX
8
0
10
71.5449338631742
20
57.7031941053011
30
0
0
VERTEX
8
0
10
72.2135781048862
20
58.2395928171876
30
0
0
VERTEX
8
0
10
72.8822223465981
20
58.7464197343892
30
0
0
VERTEX
8
0
10
73.55086658831
20
59.2606989117649
30
0
0
VERTEX
8
0
10
74.2195108300219
20
59.7749780891405
30
0
0
VERTEX
8
0
10
74.8881550717338
20
60.2892572665162
30
0
0
VERTEX
8
0
10
75.5567993134457
20
60.761292764385
30
0
0
VERTEX
8
0
10
76.2254435551576
20
61.2451575818083
30
0
0
VERTEX
8
0
10
76.8940877968695
20
61.7290223992317
30
0
0
VERTEX
8
0
10
77.5627320385814
20
62.212887216655
30
0
0
VERTEX
8
0
10
78.2313762802933
20
62.7087046180753
30
0
0
VERTEX
8
0
10
78.9000205220052
20
63.2008642609402
30
0
0
VERTEX
8
0
10
79.5686647637172
20
63.6930239038051
30
0
0
VERTEX
8
0
10
80.2373090054291
20
64.18518354667
30
0
0
VERTEX
8
0
10
80.905953247141
20
64.7186237378415
30
0
0
VERTEX
8
0
10
81.5745974888529
20
65.2384327988449
30
0
0
VERTEX
8
0
10
82.2432417305648
20
65.7582418598483
30
0
0
VERTEX
8
0
10
82.9118859722767
20
66.2810648672153
30
0
0
VERTEX
8
0
10
83.5805302139886
20
66.8064038118464
30
0
0
VERTEX
8
0
10
84.2491744557005
20
67.3317427564774
30
0
0
VERTEX
8
0
10
84.9178186974124
20
67.8570817011085
30
0
0
VERTEX
8
0
10
85.5864629391243
20
68.3906748124739
30
0
0
VERTEX
8
0
10
86.2551071808362
20
68.9298384661742
30
0
0
VERTEX
8
0
10
86.9237514225482
20
69.4690021198744
30
0
0
VERTEX
8
0
10
87.5923956642601
20
70.0081657735747
30
0
0
VERTEX
8
0
10
88.261039905972
20
70.5239984116205
30
0
0
VERTEX
8
0
10
88.9296841476839
20
71.0272178217407
30
0
0
VERTEX
8
0
10
89.5983283893958
20
71.530437231861
30
0
0
VERTEX
8
0
10
90.2669726311077
20
72.0336566419813
30
0
0
VERTEX
8
0
10
90.9356168728196
20
72.5194290690093
30
0
0
VERTEX
8
0
10
91.6042611145315
20
72.997764002805
30
0
0
VERTEX
8
0
10
92.2729053562434
20
73.4760989366006
30
0
0
VERTEX
8
0
10
92.9415495979553
20
73.9544338703963
30
0
0
VERTEX
8
0
10
93.6101938396672
20
74.4098622519306
30
0
0
VERTEX
8
0
10
94.2788380813791
20
74.857782825774
30
0
0
VERTEX
8
0
10
94.9474823230911
20
75.3057033996173
30
0
0
VERTEX
8
0
10
95.616126564803
20
75.7536239734606
30
0
0
VERTEX
8
0
10
96.2847708065149
20
76.1859606292552
30
0
0
VERTEX
8
0
10
96.9534150482268
20
76.6145266104016
30
0
0
VERTEX
8
0
10
97.6220592899387
20
77.043092591548
30
0
0
VERTEX
8
0
10
98.2907035316506
20
77.4716585726944
30
0
0
VERTEX
8
0
10
98.9593477733625
20
77.8836336146369
30
0
0
VERTEX
8
0
10
99.6279920150744
20
78.2928450030864
30
0
0
VERTEX
8
0
10
100.296636256786
20
78.7020563915358
30
0
0
VERTEX
8
0
10
100.965280498498
20
79.1112677799853
30
0
0
VERTEX
8
0
10
101.63392474021
20
79.4978532194017
30
0
0
VERTEX
8
0
10
102.302568981922
20
79.8821801315265
30
0
0
VERTEX
8
0
10
102.971213223634
20
80.2665070436513
30
0
0
VERTEX
8
0
10
103.639857465346
20
80.6508339557762
30
0
0
VERTEX
8
0
10
104.308501707058
20
80.9952930503706
30
0
0
VERTEX
8
0
10
104.97714594877
20
81.3381458352877
30
0
0
VERTEX
8
0
10
105.645790190482
20
81.6809986202048
30
0
0
VERTEX
8
0
10
106.314434432194
20
82.0238514051219
30
0
0
VERTEX
8
0
10
106.983078673905
20
82.3218767553663
30
0
0
VERTEX
8
0
10
107.651722915617
20
82.6204904712618
30
0
0
VERTEX
8
0
10
108.320367157329
20
82.9191041871574
30
0
0
VERTEX
8
0
10
108.989011399041
20
83.2177179030529
30
0
0
VERTEX
8
0
10
109.657655640753
20
83.4721479964674
30
0
0
VERTEX
8
0
10
110.326299882465
20
83.7292875851552
30
0
0
VERTEX
8
0
10
110.994944124177
20
83.9864271738431
30
0
0
VERTEX
8
0
10
111.663588365889
20
84.2435667625309
30
0
0
VERTEX
8
0
10
112.332232607601
20
84.3987549963147
30
0
0
VERTEX
8
0
10
113.000876849313
20
84.5646515051455
30
0
0
VERTEX
8
0
10
113.669521091025
20
84.7305480139764
30
0
0
VERTEX
8
0
10
114.338165332736
20
84.8964445228072
30
0
0
VERTEX
8
0
10
115.006809574448
20
85.0267747848548
30
0
0
VERTEX
8
0
10
115.67545381616
20
85.1622569337334
30
0
0
VERTEX
8
0
10
116.344098057872
20
85.2977390826119
30
0
0
VERTEX
8
0
10
117.012742299584
20
85.4332212314904
30
0
0
VERTEX
8
0
10
117.681386541296
20
85.5315546717705
30
0
0
VERTEX
8
0
10
118.350030783008
20
85.6366224606967
30
0
0
VERTEX
8
0
10
119.01867502472
20
85.7416902496229
30
0
0
VERTEX
8
0
10
119.687319266432
20
85.8467580385491
30
0
0
VERTEX
8
0
10
120.355963508144
20
85.7440859134378
30
0
0
VERTEX
8
0
10
121.024607749856
20
85.686022135347
30
0
0
VERTEX
8
0
10
121.693251991567
20
85.6279583572562
30
0
0
VERTEX
8
0
10
122.361896233279
20
85.5698945791654
30
0
0
VERTEX
8
0
10
123.030540474991
20
85.4605225418741
30
0
0
VERTEX
8
0
10
123.699184716703
20
85.3637495783894
30
0
0
VERTEX
8
0
10
124.367828958415
20
85.2669766149047
30
0
0
VERTEX
8
0
10
125.036473200127
20
85.1702036514201
30
0
0
VERTEX
8
0
10
125.705117441839
20
85.0886656312242
30
0
0
VERTEX
8
0
10
126.373761683551
20
85.0029524349949
30
0
0
VERTEX
8
0
10
127.042405925263
20
84.9172392387657
30
0
0
VERTEX
8
0
10
127.711050166975
20
84.8315260425364
30
0
0
VERTEX
8
0
10
128.379694408687
20
84.7339550583454
30
0
0
VERTEX
8
0
10
129.048338650398
20
84.6399470366746
30
0
0
VERTEX
8
0
10
129.71698289211
20
84.5459390150038
30
0
0
VERTEX
8
0
10
130.385627133822
20
84.451930993333
30
0
0
VERTEX
8
0
10
131.054271375534
20
84.3456336032054
30
0
0
VERTEX
8
0
10
131.722915617246
20
84.243330756093
30
0
0
VERTEX
8
0
10
132.391559858958
20
84.1410279089806
30
0
0
VERTEX
8
0
10
133.06020410067
20
84.0003653247792
30
0
0
VERTEX
8
0
10
133.728848342382
20
83.8261739905068
30
0
0
VERTEX
8
0
10
134.397492584094
20
83.6519826562344
30
0
0
VERTEX
8
0
10
135.066136825806
20
83.477791321962
30
0
0
VERTEX
8
0
10
135.734781067517
20
83.2987422836843
30
0
0
VERTEX
8
0
10
136.403425309229
20
83.1162561239704
30
0
0
VERTEX
8
0
10
137.072069550941
20
82.9337699642564
30
0
0
VERTEX
8
0
10
137.740713792653
20
82.7512838045425
30
0
0
VERTEX
8
0
10
138.409358034365
20
82.5687976448285
30
0
0
VERTEX
8
0
10
139.078002276077
20
82.3863114851146
30
0
0
VERTEX
8
0
10
139.746646517789
20
82.2038253254006
30
0
0
VERTEX
8
0
10
140.415290759501
20
82.0213391656867
30
0
0
VERTEX
8
0
10
141.083935001213
20
81.8388530059728
30
0
0
VERTEX
8
0
10
141.752579242924
20
81.6563668462588
30
0
0
VERTEX
8
0
10
142.421223484636
20
81.4738806865449
30
0
0
VERTEX
8
0
10
143.089867726348
20
81.2913945268309
30
0
0
VERTEX
8
0
10
143.75851196806
20
81.1396705945697
30
0
0
VERTEX
8
0
10
144.427156209772
20
80.9986585620635
30
0
0
VERTEX
8
0
10
145.095800451484
20
80.8576465295573
30
0
0
VERTEX
8
0
10
145.764444693196
20
80.716634497051
30
0
0
VERTEX
8
0
10
146.433088934908
20
80.5975692178302
30
0
0
VERTEX
8
0
10
147.10173317662
20
80.4842066034624
30
0
0
VERTEX
8
0
10
147.770377418332
20
80.3708439890947
30
0
0
VERTEX
8
0
10
148.439021660043
20
80.2574813747269
30
0
0
VERTEX
8
0
10
149.107665901755
20
80.1394416893721
30
0
0
VERTEX
8
0
10
149.776310143467
20
80.0205491913766
30
0
0
VERTEX
8
0
10
150.444954385179
20
79.9016566933812
30
0
0
VERTEX
8
0
10
151.113598626891
20
79.7827641953857
30
0
0
VERTEX
8
0
10
151.782242868603
20
79.6663540930489
30
0
0
VERTEX
8
0
10
152.450887110315
20
79.5502265368672
30
0
0
VERTEX
8
0
10
153.119531352027
20
79.4340989806856
30
0
0
VERTEX
8
0
10
153.788175593739
20
79.3179714245041
30
0
0
SEQEND
8
0
0
POLYLINE
8
0
62
6
70
0
10
0
20
0
30
0
0
VERTEX
8
0
10
8.69237514225481
20
1.69065073534417
30
0
0
VERTEX
8
0
10
9.36101938396672
20
1.8316627678504
30
0
0
VERTEX
8
0
10
10.0296636256786
20
1.97267480035663
30
0
0
VERTEX
8
0
10
10.6983078673905
20
2.11368683286285
30
0
0
VERTEX
8
0
10
11.3669521091024
20
2.25469886536908
30
0
0
VERTEX
8
0
10
12.0355963508144
20
2.39886353022924
30
0
0
VERTEX
8
0
10
12.7042405925263
20
2.54264050454932
30
0
0
VERTEX
8
0
10
13.3728848342382
20
2.6864174788694
30
0
0
VERTEX
8
0
10
14.0415290759501
20
2.83019445318948
30
0
0
VERTEX
8
0
10
14.710173317662
20
2.95748896491479
30
0
0
VERTEX
8
0
10
15.3788175593739
20
3.08744123016562
30
0
0
VERTEX
8
0
10
16.0474618010858
20
3.21739349541646
30
0
0
VERTEX
8
0
10
16.7161060427977
20
3.3473457606673
30
0
0
VERTEX
8
0
10
17.3847502845096
20
3.4394541463944
30
0
0
VERTEX
8
0
10
18.0533945262215
20
3.53899205169292
30
0
0
VERTEX
8
0
10
18.7220387679334
20
3.63852995699144
30
0
0
VERTEX
8
0
10
19.3906830096454
20
3.73806786228996
30
0
0
VERTEX
8
0
10
20.0593272513573
20
3.80893206479648
30
0
0
VERTEX
8
0
10
20.7279714930692
20
3.88635043558422
30
0
0
VERTEX
8
0
10
21.3966157347811
20
3.96376880637195
30
0
0
VERTEX
8
0
10
22.065259976493
20
4.04118717715969
30
0
0
VERTEX
8
0
10
22.7339042182049
20
4.11114940191937
30
0
0
VERTEX
8
0
10
23.4025484599168
20
4.18303788907941
30
0
0
VERTEX
8
0
10
24.0711927016287
20
4.25492637623945
30
0
0
VERTEX
8
0
10
24.7398369433406
20
4.32681486339949
30
0
0
VERTEX
8
0
10
25.4084811850525
20
4.42580688281283
30
0
0
VERTEX
8
0
10
26.0771254267644
20
4.5170499626698
30
0
0
VERTEX
8
0
10
26.7457696684763
20
4.60829304252677
30
0
0
VERTEX
8
0
10
27.4144139101883
20
4.69953612238374
30
0
0
VERTEX
8
0
10
28.0830581519002
20
4.85503189574579
30
0
0
VERTEX
8
0
10
28.7517023936121
20
4.99051404462433
30
0
0
VERTEX
8
0
10
29.420346635324
20
5.12599619350287
30
0
0
VERTEX
8
0
10
30.0889908770359
20
5.25171536051471
30
0
0
VERTEX
8
0
10
30.7576351187478
20
5.36784291669631
30
0
0
VERTEX
8
0
10
31.4262793604597
20
5.48397047287791
30
0
0
VERTEX
8
0
10
32.0949236021716
20
5.6000980290595
30
0
0
VERTEX
8
0
10
32.7635678438835
20
5.69776272291793
30
0
0
VERTEX
8
0
10
33.4322120855954
20
5.78071097733336
30
0
0
VERTEX
8
0
10
34.1008563273073
20
5.86365923174879
30
0
0
VERTEX
8
0
10
34.7695005690193
20
5.94660748616422
30
0
0
VERTEX
8
0
10
35.4381448107312
20
6.03965033273137
30
0
0
VERTEX
8
0
10
36.1067890524431
20
6.13918823802989
30
0
0
VERTEX
8
0
10
36.775433294155
20
6.2387261433284
30
0
0
VERTEX
8
0
10
37.4440775358669
20
6.33826404862692
30
0
0
VERTEX
8
0
10
38.1127217775788
20
6.43232307735451
30
0
0
VERTEX
8
0
10
38.7813660192907
20
6.52356615721149
30
0
0
VERTEX
8
0
10
39.4500102610026
20
6.61480923706846
30
0
0
VERTEX
8
0
10
40.1186545027145
20
6.70605231692544
30
0
0
VERTEX
8
0
10
40.7872987444264
20
6.85048951037637
30
0
0
VERTEX
8
0
10
41.4559429861383
20
7.01638601920722
30
0
0
VERTEX
8
0
10
42.1245872278503
20
7.18228252803808
30
0
0
VERTEX
8
0
10
42.7932314695622
20
7.34817903686894
30
0
0
VERTEX
8
0
10
43.4618757112741
20
7.53098764586263
30
0
0
VERTEX
8
0
10
44.130519952986
20
7.71900368920428
30
0
0
VERTEX
8
0
10
44.7991641946979
20
7.90701973254592
30
0
0
VERTEX
8
0
10
45.4678084364098
20
8.09503577588756
30
0
0
VERTEX
8
0
10
46.1364526781217
20
8.29434118265608
30
0
0
VERTEX
8
0
10
46.8050969198336
20
8.49618193506696
30
0
0
VERTEX
8
0
10
47.4737411615455
20
8.69802268747783
30
0
0
VERTEX
8
0
10
48.1423854032574
20
8.89986343988871
30
0
0
VERTEX
8
0
10
48.8110296449693
20
9.0824903294964
30
0
0
VERTEX
8
0
10
49.4796738866813
20
9.2622115473965
30
0
0
VERTEX
8
0
10
50.1483181283932
20
9.4419327652966
30
0
0
VERTEX
8
0
10
50.8169623701051
20
9.62165398319671
30
0
0
VERTEX
8
0
10
51.485606611817
20
9.73773537571125
30
0
0
VERTEX
8
0
10
52.1542508535289
20
9.84833304826516
30
0
0
VERTEX
8
0
10
52.8228950952408
20
9.95893072081907
30
0
0
VERTEX
8
0
10
53.4915393369527
20
10.069528393373
30
0
0
VERTEX
8
0
10
54.1601835786646
20
10.2123995040922
30
0
0
VERTEX
8
0
10
54.8288278203765
20
10.3561764784123
30
0
0
VERTEX
8
0
10
55.4974720620884
20
10.4999534527324
30
0
0
VERTEX
8
0
10
56.1661163038003
20
10.6437304270524
30
0
0
VERTEX
8
0
10
56.8347605455123
20
10.8215071615181
30
0
0
VERTEX
8
0
10
57.5034047872242
20
10.9984634376044
30
0
0
VERTEX
8
0
10
58.1720490289361
20
11.1754197136906
30
0
0
VERTEX
8
0
10
58.840693270648
20
11.3523759897769
30
0
0
VERTEX
8
0
10
59.5093375123599
20
11.5174235718212
30
0
0
VERTEX
8
0
10
60.1779817540718
20
11.683320080652
30
0
0
VERTEX
8
0
10
60.8466259957837
20
11.8492165894829
30
0
0
VERTEX
8
0
10
61.5152702374956
20
12.0151130983138
30
0
0
VERTEX
8
0
10
62.1839144792075
20
12.1778885734691
30
0
0
VERTEX
8
0
10
62.8525587209194
20
12.3410201404861
30
0
0
VERTEX
8
0
10
63.5212029626313
20
12.5041517075031
30
0
0
VERTEX
8
0
10
64.1898472043433
20
12.6672832745201
30
0
0
VERTEX
8
0
10
64.8584914460552
20
12.8206201600155
30
0
0
VERTEX
8
0
10
65.5271356877671
20
12.975456901591
30
0
0
VERTEX
8
0
10
66.195779929479
20
13.1302936431665
30
0
0
VERTEX
8
0
10
66.8644241711909
20
13.2851303847419
30
0
0
VERTEX
8
0
10
67.5330684129028
20
13.4604196503508
30
0
0
VERTEX
8
0
10
68.2017126546147
20
13.6318460428093
30
0
0
VERTEX
8
0
10
68.8703568963266
20
13.8032724352679
30
0
0
VERTEX
8
0
10
69.5390011380385
20
13.9746988277264
30
0
0
VERTEX
8
0
10
70.2076453797504
20
14.2100722752554
30
0
0
VERTEX
8
0
10
70.8762896214623
20
14.4312676203632
30
0
0
VERTEX
8
0
10
71.5449338631742
20
14.652462965471
30
0
0
VERTEX
8
0
10
72.2135781048862
20
14.8736583105788
30
0
0
VERTEX
8
0
10
72.8822223465981
20
15.1576937193919
30
0
0
VERTEX
8
0
10
73.55086658831
20
15.4258930753351
30
0
0
VERTEX
8
0
10
74.2195108300219
20
15.6940924312784
30
0
0
VERTEX
8
0
10
74.8881550717338
20
15.9622917872216
30
0
0
VERTEX
8
0
10
75.5567993134457
20
16.3802641886892
30
0
0
VERTEX
8
0
10
76.2254435551576
20
16.7562962753724
30
0
0
VERTEX
8
0
10
76.8940877968695
20
17.1323283620557
30
0
0
VERTEX
8
0
10
77.5627320385814
20
17.508360448739
30
0
0
VERTEX
8
0
10
78.2313762802933
20
17.9760290127322
30
0
0
VERTEX
8
0
10
78.9000205220052
20
18.415654761134
30
0
0
VERTEX
8
0
10
79.5686647637172
20
18.8552805095357
30
0
0
VERTEX
8
0
10
80.2373090054291
20
19.2949062579375
30
0
0
VERTEX
8
0
10
80.905953247141
20
19.7716844998153
30
0
0
VERTEX
8
0
10
81.5745974888529
20
20.2361947245417
30
0
0
VERTEX
8
0
10
82.2432417305648
20
20.7007049492681
30
0
0
VERTEX
8
0
10
82.9118859722767
20
21.121512951721
30
0
0
VERTEX
8
0
10
83.5805302139886
20
21.5058398638459
30
0
0
VERTEX
8
0
10
84.2491744557005
20
21.8901667759707
30
0
0
VERTEX
8
0
10
84.9178186974124
20
22.2744936880955
30
0
0
VERTEX
8
0
10
85.5864629391243
20
22.6489156001391
30
0
0
VERTEX
8
0
10
86.2551071808362
20
23.0166528613809
30
0
0
VERTEX
8
0
10
86.9237514225482
20
23.3843901226226
30
0
0
VERTEX
8
0
10
87.5923956642601
20
23.7521273838643
30
0
0
VERTEX
8
0
10
88.261039905972
20
24.1575532088558
30
0
0
VERTEX
8
0
10
88.9296841476839
20
24.5833542481883
30
0
0
VERTEX
8
0
10
89.5983283893958
20
25.0091552875209
30
0
0
VERTEX
8
0
10
90.2669726311077
20
25.4349563268534
30
0
0
VERTEX
8
0
10
90.9356168728196
20
25.8704501345705
30
0
0
VERTEX
8
0
10
91.6042611145315
20
26.3100758829723
30
0
0
VERTEX
8
0
10
92.2729053562434
20
26.7497016313741
30
0
0
VERTEX
8
0
10
92.9415495979553
20
27.1893273797758
30
0
0
VERTEX
8
0
10
93.6101938396672
20
27.5997993343905
30
0
0
VERTEX
8
0
10
94.2788380813791
20
28.0007158973984
30
0
0
VERTEX
8
0
10
94.9474823230911
20
28.4016324604063
30
0
0
VERTEX
8
0
10
95.616126564803
20
28.8025490234142
30
0
0
VERTEX
8
0
10
96.2847708065149
20
29.1945604903943
30
0
0
VERTEX
8
0
10
96.9534150482268
20
29.5844172861468
30
0
0
VERTEX
8
0
10
97.6220592899387
20
29.9742740818994
30
0
0
VERTEX
8
0
10
98.2907035316506
20
30.3641308776519
30
0
0
VERTEX
8
0
10
98.9593477733625
20
30.7563578075764
30
0
0
VERTEX
8
0
10
99.6279920150744
20
31.1489795451428
30
0
0
VERTEX
8
0
10
100.296636256786
20
31.5416012827091
30
0
0
VERTEX
8
0
10
100.965280498498
20
31.9342230202755
30
0
0
VERTEX
8
0
10
101.63392474021
20
32.3419287238639
30
0
0
VERTEX
8
0
10
102.302568981922
20
32.7511401123133
30
0
0
VERTEX
8
0
10
102.971213223634
20
33.1603515007628
30
0
0
VERTEX
8
0
10
103.639857465346
20
33.5695628892122
30
0
0
VERTEX
8
0
10
104.308501707058
20
34.0000371136779
30
0
0
VERTEX
8
0
10
104.97714594877
20
34.4313680366381
30
0
0
VERTEX
8
0
10
105.645790190482
20
34.8626989595983
30
0
0
VERTEX
8
0
10
106.314434432194
20
35.2940298825586
30
0
0
VERTEX
8
0
10
106.983078673905
20
35.6553179388426
30
0
0
VERTEX
8
0
10
107.651722915617
20
36.0175253164567
30
0
0
VERTEX
8
0
10
108.320367157329
20
36.3797326940707
30
0
0
VERTEX
8
0
10
108.989011399041
20
36.7419400716848
30
0
0
VERTEX
8
0
10
109.657655640753
20
37.071746126146
30
0
0
VERTEX
8
0
10
110.326299882465
20
37.4035391438077
30
0
0
VERTEX
8
0
10
110.994944124177
20
37.7353321614695
30
0
0
VERTEX
8
0
10
111.663588365889
20
38.0671251791312
30
0
0
VERTEX
8
0
10
112.332232607601
20
38.3711132818191
30
0
0
VERTEX
8
0
10
113.000876849313
20
38.6780218231562
30
0
0
VERTEX
8
0
10
113.669521091025
20
38.9849303644932
30
0
0
VERTEX
8
0
10
114.338165332736
20
39.2918389058303
30
0
0
VERTEX
8
0
10
115.006809574448
20
39.5922808568432
30
0
0
VERTEX
8
0
10
115.67545381616
20
39.8936595145526
30
0
0
VERTEX
8
0
10
116.344098057872
20
40.195038172262
30
0
0
VERTEX
8
0
10
117.012742299584
20
40.4964168299714
30
0
0
VERTEX
8
0
10
117.681386541296
20
40.7437610024466
30
0
0
VERTEX
8
0
10
118.350030783008
20
41.0009005911344
30
0
0
VERTEX
8
0
10
119.01867502472
20
41.2580401798222
30
0
0
VERTEX
8
0
10
119.687319266432
20
41.5151797685101
30
0
0
VERTEX
8
0
10
120.355963508144
20
41.4272598389662
30
0
0
VERTEX
8
0
10
121.024607749856
20
41.4134351298969
30
0
0
VERTEX
8
0
10
121.693251991567
20
41.3996104208277
30
0
0
VERTEX
8
0
10
122.361896233279
20
41.3857857117584
30
0
0
VERTEX
8
0
10
123.030540474991
20
41.3243176191458
30
0
0
VERTEX
8
0
10
123.699184716703
20
41.2745486664966
30
0
0
VERTEX
8
0
10
124.367828958415
20
41.2247797138473
30
0
0
VERTEX
8
0
10
125.036473200127
20
41.1750107611981
30
0
0
VERTEX
8
0
10
125.705117441839
20
41.1252418085488
30
0
0
VERTEX
8
0
10
126.373761683551
20
41.0754728558995
30
0
0
VERTEX
8
0
10
127.042405925263
20
41.0257039032503
30
0
0
VERTEX
8
0
10
127.711050166975
20
40.975934950601
30
0
0
VERTEX
8
0
10
128.379694408687
20
40.930118593939
30
0
0
VERTEX
8
0
10
129.048338650398
20
40.8831145831036
30
0
0
VERTEX
8
0
10
129.71698289211
20
40.8361105722682
30
0
0
VERTEX
8
0
10
130.385627133822
20
40.7891065614328
30
0
0
VERTEX
8
0
10
131.054271375534
20
40.7380060944451
30
0
0
VERTEX
8
0
10
131.722915617246
20
40.6882371417958
30
0
0
VERTEX
8
0
10
132.391559858958
20
40.6384681891466
30
0
0
VERTEX
8
0
10
133.06020410067
20
40.625583599083
30
0
0
VERTEX
8
0
10
133.728848342382
20
40.6449381917799
30
0
0
VERTEX
8
0
10
134.397492584094
20
40.6642927844768
30
0
0
VERTEX
8
0
10
135.066136825806
20
40.6836473771738
30
0
0
VERTEX
8
0
10
135.734781067517
20
40.7159558472183
30
0
0
VERTEX
8
0
10
136.403425309229
20
40.757429974426
30
0
0
VERTEX
8
0
10
137.072069550941
20
40.7989041016337
30
0
0
VERTEX
8
0
10
137.740713792653
20
40.8403782288414
30
0
0
VERTEX
8
0
10
138.409358034365
20
40.8554059335471
30
0
0
VERTEX
8
0
10
139.078002276077
20
40.8554059335471
30
0
0
VERTEX
8
0
10
139.746646517789
20
40.8554059335471
30
0
0
VERTEX
8
0
10
140.415290759501
20
40.8554059335471
30
0
0
VERTEX
8
0
10
141.083935001213
20
40.8916380785184
30
0
0
VERTEX
8
0
10
141.752579242924
20
40.9441719729815
30
0
0
VERTEX
8
0
10
142.421223484636
20
40.9967058674446
30
0
0
VERTEX
8
0
10
143.089867726348
20
41.0492397619077
30
0
0
VERTEX
8
0
10
143.75851196806
20
41.0689606137546
30
0
0
VERTEX
8
0
10
144.427156209772
20
41.0772554391962
30
0
0
VERTEX
8
0
10
145.095800451484
20
41.0855502646377
30
0
0
VERTEX
8
0
10
145.764444693196
20
41.0938450900792
30
0
0
VERTEX
8
0
10
146.433088934908
20
41.0955558895352
30
0
0
VERTEX
8
0
10
147.10173317662
20
41.0955558895352
30
0
0
VERTEX
8
0
10
147.770377418332
20
41.0955558895352
30
0
0
VERTEX
8
0
10
148.439021660043
20
41.0955558895352
30
0
0
VERTEX
8
0
10
149.107665901755
20
41.0955558895352
30
0
0
VERTEX
8
0
10
149.776310143467
20
41.0955558895352
30
0
0
VERTEX
8
0
10
150.444954385179
20
41.0955558895352
30
0
0
VERTEX
8
0
10
151.113598626891
20
41.0955558895352
30
0
0
VERTEX
8
0
10
151.782242868603
20
41.0955558895352
30
0
0
VERTEX
8
0
10
152.450887110315
20
41.0955558895352
30
0
0
VERTEX
8
0
10
153.119531352027
20
41.0955558895352
30
0
0
VERTEX
8
0
10
153.788175593739
20
41.0955558895352
30
0
0
SEQEND
8
0
0
POLYLINE
8
0
62
6
70
0
10
0
20
0
30
0
0
VERTEX
8
0
10
8.69237514225481
20
15.5112465387457
30
0
0
VERTEX
8
0
10
9.36101938396672
20
16.2006386976651
30
0
0
VERTEX
8
0
10
10.0296636256786
20
16.8900308565844
30
0
0
VERTEX
8
0
10
10.6983078673905
20
17.5794230155038
30
0
0
VERTEX
8
0
10
11.3669521091024
20
18.2766774435951
30
0
0
VERTEX
8
0
10
12.0355963508144
20
18.9776560253534
30
0
0
VERTEX
8
0
10
12.7042405925263
20
19.6786346071118
30
0
0
VERTEX
8
0
10
13.3728848342382
20
20.3796131888701
30
0
0
VERTEX
8
0
10
14.0415290759501
20
21.0515948571707
30
0
0
VERTEX
8
0
10
14.710173317662
20
21.7207107761218
30
0
0
VERTEX
8
0
10
15.3788175593739
20
22.389826695073
30
0
0
VERTEX
8
0
10
16.0474618010858
20
23.0589426140241
30
0
0
VERTEX
8
0
10
16.7161060427977
20
23.6987971992231
30
0
0
VERTEX
8
0
10
17.3847502845096
20
24.3374987582219
30
0
0
VERTEX
8
0
10
18.0533945262215
20
24.9762003172207
30
0
0
VERTEX
8
0
10
18.7220387679334
20
25.6149018762195
30
0
0
VERTEX
8
0
10
19.3906830096454
20
26.2059357511596
30
0
0
VERTEX
8
0
10
20.0593272513573
20
26.797633299323
30
0
0
VERTEX
8
0
10
20.7279714930692
20
27.3893308474864
30
0
0
VERTEX
8
0
10
21.3966157347811
20
27.9810283956498
30
0
0
VERTEX
8
0
10
22.065259976493
20
28.5137691122084
30
0
0
VERTEX
8
0
10
22.7339042182049
20
29.0501678240948
30
0
0
VERTEX
8
0
10
23.4025484599168
20
29.5865665359813
30
0
0
VERTEX
8
0
10
24.0711927016287
20
30.1229652478677
30
0
0
VERTEX
8
0
10
24.7398369433406
20
30.6562722580089
30
0
0
VERTEX
8
0
10
25.4084811850525
20
31.1899060280815
30
0
0
VERTEX
8
0
10
26.0771254267644
20
31.7235397981541
30
0
0
VERTEX
8
0
10
26.7457696684763
20
32.2571735682267
30
0
0
VERTEX
8
0
10
27.4144139101883
20
32.764922843017
30
0
0
VERTEX
8
0
10
28.0830581519002
20
33.2764370785788
30
0
0
VERTEX
8
0
10
28.7517023936121
20
33.7879513141406
30
0
0
VERTEX
8
0
10
29.420346635324
20
34.2994655497025
30
0
0
VERTEX
8
0
10
30.0889908770359
20
34.8008415190384
30
0
0
VERTEX
8
0
10
30.7576351187478
20
35.3040609291586
30
0
0
VERTEX
8
0
10
31.4262793604597
20
35.8072803392789
30
0
0
VERTEX
8
0
10
32.0949236021716
20
36.3104997493992
30
0
0
VERTEX
8
0
10
32.7635678438835
20
36.8383821352018
30
0
0
VERTEX
8
0
10
33.4322120855954
20
37.360956138019
30
0
0
VERTEX
8
0
10
34.1008563273073
20
37.8835301408362
30
0
0
VERTEX
8
0
10
34.7695005690193
20
38.4061041436534
30
0
0
VERTEX
8
0
10
35.4381448107312
20
38.8993410072278
30
0
0
VERTEX
8
0
10
36.1067890524431
20
39.3997954755342
30
0
0
VERTEX
8
0
10
36.775433294155
20
39.9002499438406
30
0
0
VERTEX
8
0
10
37.4440775358669
20
40.400704412147
30
0
0
VERTEX
8
0
10
38.1127217775788
20
40.9011588804535
30
0
0
VERTEX
8
0
10
38.7813660192907
20
41.4016133487599
30
0
0
VERTEX
8
0
10
39.4500102610026
20
41.9020678170663
30
0
0
VERTEX
8
0
10
40.1186545027145
20
42.4025222853727
30
0
0
VERTEX
8
0
10
40.7872987444264
20
42.8871573027376
30
0
0
VERTEX
8
0
10
41.4559429861383
20
43.3765520037886
30
0
0
VERTEX
8
0
10
42.1245872278503
20
43.8659467048397
30
0
0
VERTEX
8
0
10
42.7932314695622
20
44.3553414058907
30
0
0
VERTEX
8
0
10
43.4618757112741
20
44.8406373840413
30
0
0
VERTEX
8
0
10
44.130519952986
20
45.3272671432785
30
0
0
VERTEX
8
0
10
44.7991641946979
20
45.8138969025157
30
0
0
VERTEX
8
0
10
45.4678084364098
20
46.2931384554949
30
0
0
VERTEX
8
0
10
46.1364526781217
20
46.7659435056628
30
0
0
VERTEX
8
0
10
46.8050969198336
20
47.2387485558308
30
0
0
VERTEX
8
0
10
47.4737411615455
20
47.7115536059987
30
0
0
VERTEX
8
0
10
48.1423854032574
20
48.1794941519168
30
0
0
VERTEX
8
0
10
48.8110296449693
20
48.6440043766432
30
0
0
VERTEX
8
0
10
49.4796738866813
20
49.1085146013696
30
0
0
VERTEX
8
0
10
50.1483181283932
20
49.573024826096
30
0
0
VERTEX
8
0
10
50.8169623701051
20
50.0340043276592
30
0
0
VERTEX
8
0
10
51.485606611817
20
50.4929846687579
30
0
0
VERTEX
8
0
10
52.1542508535289
20
50.9519650098566
30
0
0
VERTEX
8
0
10
52.8228950952408
20
51.4109453509553
30
0
0
VERTEX
8
0
10
53.4915393369527
20
51.8661072485607
30
0
0
VERTEX
8
0
10
54.1601835786646
20
52.3195577060317
30
0
0
VERTEX
8
0
10
54.8288278203765
20
52.7730081635027
30
0
0
VERTEX
8
0
10
55.4974720620884
20
53.2264586209737
30
0
0
VERTEX
8
0
10
56.1661163038003
20
53.677855996533
30
0
0
VERTEX
8
0
10
56.8347605455123
20
54.1285415121902
30
0
0
VERTEX
8
0
10
57.5034047872242
20
54.5792270278474
30
0
0
VERTEX
8
0
10
58.1720490289361
20
55.0299125435046
30
0
0
VERTEX
8
0
10
58.840693270648
20
55.4915827695453
30
0
0
VERTEX
8
0
10
59.5093375123599
20
55.9560929942717
30
0
0
VERTEX
8
0
10
60.1779817540718
20
56.4206032189981
30
0
0
VERTEX
8
0
10
60.8466259957837
20
56.8851134437245
30
0
0
VERTEX
8
0
10
61.5152702374956
20
57.3589868774178
30
0
0
VERTEX
8
0
10
62.1839144792075
20
57.8345568693996
30
0
0
VERTEX
8
0
10
62.8525587209194
20
58.3101268613814
30
0
0
VERTEX
8
0
10
63.5212029626313
20
58.7856968533632
30
0
0
VERTEX
8
0
10
64.1898472043433
20
59.3184140807004
30
0
0
VERTEX
8
0
10
64.8584914460552
20
59.8575777344006
30
0
0
VERTEX
8
0
10
65.5271356877671
20
60.3967413881009
30
0
0
VERTEX
8
0
10
66.195779929479
20
60.9359050418012
30
0
0
VERTEX
8
0
10
66.8644241711909
20
61.4987253986475
30
0
0
VERTEX
8
0
10
67.5330684129028
20
62.0627735286724
30
0
0
VERTEX
8
0
10
68.2017126546147
20
62.6268216586974
30
0
0
VERTEX
8
0
10
68.8703568963266
20
63.1908697887223
30
0
0
VERTEX
8
0
10
69.5390011380385
20
63.785414128852
30
0
0
VERTEX
8
0
10
70.2076453797504
20
64.3798766188292
30
0
0
VERTEX
8
0
10
70.8762896214623
20
64.9743391088065
30
0
0
VERTEX
8
0
10
71.5449338631742
20
65.5688015987837
30
0
0
VERTEX
8
0
10
72.2135781048862
20
66.1545153600555
30
0
0
VERTEX
8
0
10
72.8822223465981
20
66.7406830245912
30
0
0
VERTEX
8
0
10
73.55086658831
20
67.3268506891269
30
0
0
VERTEX
8
0
10
74.2195108300219
20
67.9130183536626
30
0
0
VERTEX
8
0
10
74.8881550717338
20
68.4777652967304
30
0
0
VERTEX
8
0
10
75.5567993134457
20
69.0445783685692
30
0
0
VERTEX
8
0
10
76.2254435551576
20
69.611391440408
30
0
0
VERTEX
8
0
10
76.8940877968695
20
70.1782045122467
30
0
0
VERTEX
8
0
10
77.5627320385814
20
70.7930770325635
30
0
0
VERTEX
8
0
10
78.2313762802933
20
71.40136423161
30
0
0
VERTEX
8
0
10
78.9000205220052
20
72.0096514306565
30
0
0
VERTEX
8
0
10
79.5686647637172
20
72.6179386297029
30
0
0
VERTEX
8
0
10
80.2373090054291
20
73.239617122337
30
0
0
VERTEX
8
0
10
80.905953247141
20
73.8589640886389
30
0
0
VERTEX
8
0
10
81.5745974888529
20
74.4783110549407
30
0
0
VERTEX
8
0
10
82.2432417305648
20
75.0976580212426
30
0
0
VERTEX
8
0
10
82.9118859722767
20
75.7309717217921
30
0
0
VERTEX
8
0
10
83.5805302139886
20
76.3613784553494
30
0
0
VERTEX
8
0
10
84.2491744557005
20
76.9917851889067
30
0
0
VERTEX
8
0
10
84.9178186974124
20
77.6221919224639
30
0
0
VERTEX
8
0
10
85.5864629391243
20
78.2707763746559
30
0
0
VERTEX
8
0
10
86.2551071808362
20
78.9150078172824
30
0
0
VERTEX
8
0
10
86.9237514225482
20
79.5592392599089
30
0
0
VERTEX
8
0
10
87.5923956642601
20
80.2034707025354
30
0
0
VERTEX
8
0
10
88.261039905972
20
80.8288051257021
30
0
0
VERTEX
8
0
10
88.9296841476839
20
81.4592118592594
30
0
0
VERTEX
8
0
10
89.5983283893958
20
82.0896185928166
30
0
0
VERTEX
8
0
10
90.2669726311077
20
82.7200253263739
30
0
0
VERTEX
8
0
10
90.9356168728196
20
83.3425855318172
30
0
0
VERTEX
8
0
10
91.6042611145315
20
83.9674623817468
30
0
0
VERTEX
8
0
10
92.2729053562434
20
84.5923392316763
30
0
0
VERTEX
8
0
10
92.9415495979553
20
85.2172160816059
30
0
0
VERTEX
8
0
10
93.6101938396672
20
85.7688846955394
30
0
0
VERTEX
8
0
10
94.2788380813791
20
86.3439925928197
30
0
0
VERTEX
8
0
10
94.9474823230911
20
86.9191004901001
30
0
0
VERTEX
8
0
10
95.616126564803
20
87.4898702596608
30
0
0
VERTEX
8
0
10
96.2847708065149
20
88.0566833314996
30
0
0
VERTEX
8
0
10
96.9534150482268
20
88.6234964033384
30
0
0
VERTEX
8
0
10
97.6220592899387
20
89.1903094751772
30
0
0
VERTEX
8
0
10
98.2907035316506
20
89.7459932278485
30
0
0
VERTEX
8
0
10
98.9593477733625
20
90.2934517069904
30
0
0
VERTEX
8
0
10
99.6279920150744
20
90.8409101861322
30
0
0
VERTEX
8
0
10
100.296636256786
20
91.388368665274
30
0
0
VERTEX
8
0
10
100.965280498498
20
91.9254245669965
30
0
0
VERTEX
8
0
10
101.63392474021
20
92.4562933952553
30
0
0
VERTEX
8
0
10
102.302568981922
20
92.987162223514
30
0
0
VERTEX
8
0
10
102.971213223634
20
93.5180310517728
30
0
0
VERTEX
8
0
10
103.639857465346
20
94.0338788954856
30
0
0
VERTEX
8
0
10
104.308501707058
20
94.5426281892336
30
0
0
VERTEX
8
0
10
104.97714594877
20
95.0513774829815
30
0
0
VERTEX
8
0
10
105.645790190482
20
95.5601267767295
30
0
0
VERTEX
8
0
10
106.314434432194
20
96.0345108555119
30
0
0
VERTEX
8
0
10
106.983078673905
20
96.4962561384245
30
0
0
VERTEX
8
0
10
107.651722915617
20
96.958001421337
30
0
0
VERTEX
8
0
10
108.320367157329
20
97.4197467042496
30
0
0
VERTEX
8
0
10
108.989011399041
20
97.8295237456032
30
0
0
VERTEX
8
0
10
109.657655640753
20
98.2249104249834
30
0
0
VERTEX
8
0
10
110.326299882465
20
98.6202971043636
30
0
0
VERTEX
8
0
10
110.994944124177
20
99.0156837837439
30
0
0
VERTEX
8
0
10
111.663588365889
20
99.3556495776046
30
0
0
VERTEX
8
0
10
112.332232607601
20
99.6846776534524
30
0
0
VERTEX
8
0
10
113.000876849313
20
100.0137057293
30
0
0
VERTEX
8
0
10
113.669521091025
20
100.342733805148
30
0
0
VERTEX
8
0
10
114.338165332736
20
100.627606733886
30
0
0
VERTEX
8
0
10
115.006809574448
20
100.906865857085
30
0
0
VERTEX
8
0
10
115.67545381616
20
101.186124980283
30
0
0
VERTEX
8
0
10
116.344098057872
20
101.465384103482
30
0
0
VERTEX
8
0
10
117.012742299584
20
101.734255531107
30
0
0
VERTEX
8
0
10
117.681386541296
20
102.00245488705
30
0
0
VERTEX
8
0
10
118.350030783008
20
102.270654242993
30
0
0
VERTEX
8
0
10
119.01867502472
20
102.538853598937
30
0
0
VERTEX
8
0
10
119.687319266432
20
102.563123173684
30
0
0
VERTEX
8
0
10
120.355963508144
20
102.585242708195
30
0
0
VERTEX
8
0
10
121.024607749856
20
102.607362242706
30
0
0
VERTEX
8
0
10
121.693251991567
20
102.629481777216
30
0
0
VERTEX
8
0
10
122.361896233279
20
102.588139138812
30
0
0
VERTEX
8
0
10
123.030540474991
20
102.549429953419
30
0
0
VERTEX
8
0
10
123.699184716703
20
102.510720768025
30
0
0
VERTEX
8
0
10
124.367828958415
20
102.472011582631
30
0
0
VERTEX
8
0
10
125.036473200127
20
102.433302397237
30
0
0
VERTEX
8
0
10
125.705117441839
20
102.394593211843
30
0
0
VERTEX
8
0
10
126.373761683551
20
102.355884026449
30
0
0
VERTEX
8
0
10
127.042405925263
20
102.317174841055
30
0
0
VERTEX
8
0
10
127.711050166975
20
102.256259103787
30
0
0
VERTEX
8
0
10
128.379694408687
20
102.198195325697
30
0
0
VERTEX
8
0
10
129.048338650398
20
102.140131547606
30
0
0
VERTEX
8
0
10
129.71698289211
20
102.082067769515
30
0
0
VERTEX
8
0
10
130.385627133822
20
102.03395266558
30
0
0
VERTEX
8
0
10
131.054271375534
20
101.98418371293
30
0
0
VERTEX
8
0
10
131.722915617246
20
101.934414760281
30
0
0
VERTEX
8
0
10
132.391559858958
20
101.884645807632
30
0
0
VERTEX
8
0
10
133.06020410067
20
101.800276006148
30
0
0
VERTEX
8
0
10
133.728848342382
20
101.72285763536
30
0
0
VERTEX
8
0
10
134.397492584094
20
101.645439264572
30
0
0
VERTEX
8
0
10
135.066136825806
20
101.568020893784
30
0
0
VERTEX
8
0
10
135.734781067517
20
101.486998577948
30
0
0
VERTEX
8
0
10
136.403425309229
20
101.406815265347
30
0
0
VERTEX
8
0
10
137.072069550941
20
101.326631952745
30
0
0
VERTEX
8
0
10
137.740713792653
20
101.246448640143
30
0
0
VERTEX
8
0
10
138.409358034365
20
101.158769717115
30
0
0
VERTEX
8
0
10
139.078002276077
20
101.073056520885
30
0
0
VERTEX
8
0
10
139.746646517789
20
100.987343324656
30
0
0
VERTEX
8
0
10
140.415290759501
20
100.901630128427
30
0
0
VERTEX
8
0
10
141.083935001213
20
100.808133601441
30
0
0
VERTEX
8
0
10
141.752579242924
20
100.716890521584
30
0
0
VERTEX
8
0
10
142.421223484636
20
100.625647441727
30
0
0
VERTEX
8
0
10
143.089867726348
20
100.53440436187
30
0
0
VERTEX
8
0
10
143.75851196806
20
100.503694165166
30
0
0
VERTEX
8
0
10
144.427156209772
20
100.453925212517
30
0
0
VERTEX
8
0
10
145.095800451484
20
100.404156259868
30
0
0
VERTEX
8
0
10
145.764444693196
20
100.352972863324
30
0
0
VERTEX
8
0
10
146.433088934908
20
100.300438968861
30
0
0
VERTEX
8
0
10
147.10173317662
20
100.247905074398
30
0
0
VERTEX
8
0
10
147.770377418332
20
100.195371179935
30
0
0
VERTEX
8
0
10
148.439021660043
20
100.15530371795
30
0
0
VERTEX
8
0
10
149.107665901755
20
100.124889357997
30
0
0
VERTEX
8
0
10
149.776310143467
20
100.094474998045
30
0
0
VERTEX
8
0
10
150.444954385179
20
100.064060638093
30
0
0
VERTEX
8
0
10
151.113598626891
20
100.03364627814
30
0
0
VERTEX
8
0
10
151.782242868603
20
100.003231918188
30
0
0
VERTEX
8
0
10
152.450887110315
20
99.9728175582357
30
0
0
VERTEX
8
0
10
153.119531352027
20
99.9424031982834
30
0
0
VERTEX
8
0
10
153.788175593739
20
99.914567412082
30
0
0
SEQEND
8
0
0
POLYLINE
8
0
62
1
70
0
10
0
20
0
30
0
0
VERTEX
8
0
10
8.69237514225481
20
13.9698567173368
30
0
0
VERTEX
8
0
10
9.36101938396672
20
14.5552301196659
30
0
0
VERTEX
8
0
10
10.0296636256786
20
15.1409204698363
30
0
0
VERTEX
8
0
10
10.6983078673905
20
15.7268923572127
30
0
0
VERTEX
8
0
10
11.3669521091024
20
16.3131154431263
30
0
0
VERTEX
8
0
10
12.0355963508144
20
16.9561855037607
30
0
0
VERTEX
8
0
10
12.7042405925263
20
17.5924647654675
30
0
0
VERTEX
8
0
10
13.3728848342382
20
18.2289000298869
30
0
0
VERTEX
8
0
10
14.0415290759501
20
18.8654755085616
30
0
0
VERTEX
8
0
10
14.710173317662
20
19.4768626108279
30
0
0
VERTEX
8
0
10
15.3788175593739
20
20.0923971118064
30
0
0
VERTEX
8
0
10
16.0474618010858
20
20.7079954167722
30
0
0
VERTEX
8
0
10
16.7161060427977
20
21.323651999802
30
0
0
VERTEX
8
0
10
17.3847502845096
20
21.8416602276793
30
0
0
VERTEX
8
0
10
18.0533945262215
20
22.3788547543959
30
0
0
VERTEX
8
0
10
18.7220387679334
20
22.9160590362794
30
0
0
VERTEX
8
0
10
19.3906830096454
20
23.4532724029948
30
0
0
VERTEX
8
0
10
20.0593272513573
20
23.9788467574025
30
0
0
VERTEX
8
0
10
20.7279714930692
20
24.5070843157877
30
0
0
VERTEX
8
0
10
21.3966157347811
20
25.0353235627657
30
0
0
VERTEX
8
0
10
22.065259976493
20
25.5635643936586
30
0
0
VERTEX
8
0
10
22.7339042182049
20
26.0243659400275
30
0
0
VERTEX
8
0
10
23.4025484599168
20
26.502590879988
30
0
0
VERTEX
8
0
10
24.0711927016287
20
26.980816319446
30
0
0
VERTEX
8
0
10
24.7398369433406
20
27.4590422323038
30
0
0
VERTEX
8
0
10
25.4084811850525
20
27.9224337486904
30
0
0
VERTEX
8
0
10
26.0771254267644
20
28.3900794958082
30
0
0
VERTEX
8
0
10
26.7457696684763
20
28.857735490036
30
0
0
VERTEX
8
0
10
27.4144139101883
20
29.3254012411379
30
0
0
VERTEX
8
0
10
28.0830581519002
20
29.7559309207877
30
0
0
VERTEX
8
0
10
28.7517023936121
20
30.1981996777107
30
0
0
VERTEX
8
0
10
29.420346635324
20
30.6406009481311
30
0
0
VERTEX
8
0
10
30.0889908770359
20
31.0979740004407
30
0
0
VERTEX
8
0
10
30.7576351187478
20
31.5699949426117
30
0
0
VERTEX
8
0
10
31.4262793604597
20
32.0420578544295
30
0
0
VERTEX
8
0
10
32.0949236021716
20
32.5141609078617
30
0
0
VERTEX
8
0
10
32.7635678438835
20
32.969469062919
30
0
0
VERTEX
8
0
10
33.4322120855954
20
33.411369052104
30
0
0
VERTEX
8
0
10
34.1008563273073
20
33.8532703419693
30
0
0
VERTEX
8
0
10
34.7695005690193
20
34.2951728822363
30
0
0
VERTEX
8
0
10
35.4381448107312
20
34.7537416221695
30
0
0
VERTEX
8
0
10
36.1067890524431
20
35.2230408555162
30
0
0
VERTEX
8
0
10
36.775433294155
20
35.6923493059006
30
0
0
VERTEX
8
0
10
37.4440775358669
20
36.1616666144648
30
0
0
VERTEX
8
0
10
38.1127217775788
20
36.6246362109162
30
0
0
VERTEX
8
0
10
38.7813660192907
20
37.0843429217521
30
0
0
VERTEX
8
0
10
39.4500102610026
20
37.5440526283664
30
0
0
VERTEX
8
0
10
40.1186545027145
20
38.0037652220445
30
0
0
VERTEX
8
0
10
40.7872987444264
20
38.4554688413345
30
0
0
VERTEX
8
0
10
41.4559429861383
20
38.9041102895396
30
0
0
VERTEX
8
0
10
42.1245872278503
20
39.3529435670059
30
0
0
VERTEX
8
0
10
42.7932314695622
20
39.8019621841526
30
0
0
VERTEX
8
0
10
43.4618757112741
20
40.233553839205
30
0
0
VERTEX
8
0
10
44.130519952986
20
40.6600106682661
30
0
0
VERTEX
8
0
10
44.7991641946979
20
41.0867597900692
30
0
0
VERTEX
8
0
10
45.4678084364098
20
41.5137921905745
30
0
0
VERTEX
8
0
10
46.1364526781217
20
41.9543967248392
30
0
0
VERTEX
8
0
10
46.8050969198336
20
42.3983053055637
30
0
0
VERTEX
8
0
10
47.4737411615455
20
42.8425268791937
30
0
0
VERTEX
8
0
10
48.1423854032574
20
43.2870518097173
30
0
0
VERTEX
8
0
10
48.8110296449693
20
43.7137799696823
30
0
0
VERTEX
8
0
10
49.4796738866813
20
44.1379786033173
30
0
0
VERTEX
8
0
10
50.1483181283932
20
44.5623721520834
30
0
0
VERTEX
8
0
10
50.8169623701051
20
44.9869550996669
30
0
0
VERTEX
8
0
10
51.485606611817
20
45.4030017494155
30
0
0
VERTEX
8
0
10
52.1542508535289
20
45.8183144743471
30
0
0
VERTEX
8
0
10
52.8228950952408
20
46.2336376089341
30
0
0
VERTEX
8
0
10
53.4915393369527
20
46.64897087514
30
0
0
VERTEX
8
0
10
54.1601835786646
20
47.0634292244655
30
0
0
VERTEX
8
0
10
54.8288278203765
20
47.4779266185392
30
0
0
VERTEX
8
0
10
55.4974720620884
20
47.8924869778007
30
0
0
VERTEX
8
0
10
56.1661163038003
20
48.3071086811925
30
0
0
VERTEX
8
0
10
56.8347605455123
20
48.7238042263727
30
0
0
VERTEX
8
0
10
57.5034047872242
20
49.1406061742914
30
0
0
VERTEX
8
0
10
58.1720490289361
20
49.5575580443365
30
0
0
VERTEX
8
0
10
58.840693270648
20
49.9746560839875
30
0
0
VERTEX
8
0
10
59.5093375123599
20
50.4123605459407
30
0
0
VERTEX
8
0
10
60.1779817540718
20
50.8486961522986
30
0
0
VERTEX
8
0
10
60.8466259957837
20
51.2851211969692
30
0
0
VERTEX
8
0
10
61.5152702374956
20
51.7216334159218
30
0
0
VERTEX
8
0
10
62.1839144792075
20
52.1757106336632
30
0
0
VERTEX
8
0
10
62.8525587209194
20
52.6278597369754
30
0
0
VERTEX
8
0
10
63.5212029626313
20
53.0800743945246
30
0
0
VERTEX
8
0
10
64.1898472043433
20
53.5323529450022
30
0
0
VERTEX
8
0
10
64.8584914460552
20
54.0648289816907
30
0
0
VERTEX
8
0
10
65.5271356877671
20
54.5850495645044
30
0
0
VERTEX
8
0
10
66.195779929479
20
55.1052890171351
30
0
0
VERTEX
8
0
10
66.8644241711909
20
55.6255468101412
30
0
0
VERTEX
8
0
10
67.5330684129028
20
56.1738876172568
30
0
0
VERTEX
8
0
10
68.2017126546147
20
56.7169617326827
30
0
0
VERTEX
8
0
10
68.8703568963266
20
57.2600671462706
30
0
0
VERTEX
8
0
10
69.5390011380385
20
57.80320297581
30
0
0
VERTEX
8
0
10
70.2076453797504
20
58.3860255744063
30
0
0
VERTEX
8
0
10
70.8762896214623
20
58.9601897951752
30
0
0
VERTEX
8
0
10
71.5449338631742
20
59.5344713666676
30
0
0
VERTEX
8
0
10
72.2135781048862
20
60.1088669253685
30
0
0
VERTEX
8
0
10
72.8822223465981
20
60.670400612654
30
0
0
VERTEX
8
0
10
73.55086658831
20
61.2355175750358
30
0
0
VERTEX
8
0
10
74.2195108300219
20
61.8009105337352
30
0
0
VERTEX
8
0
10
74.8881550717338
20
62.3665719825018
30
0
0
VERTEX
8
0
10
75.5567993134457
20
62.9304993885362
30
0
0
VERTEX
8
0
10
76.2254435551576
20
63.4960061113185
30
0
0
VERTEX
8
0
10
76.8940877968695
20
64.0623827333182
30
0
0
VERTEX
8
0
10
77.5627320385814
20
64.6296063846532
30
0
0
VERTEX
8
0
10
78.2313762802933
20
65.2343410631518
30
0
0
VERTEX
8
0
10
78.9000205220052
20
65.8292152741552
30
0
0
VERTEX
8
0
10
79.5686647637172
20
66.4253181934717
30
0
0
VERTEX
8
0
10
80.2373090054291
20
67.0226170365072
30
0
0
VERTEX
8
0
10
80.905953247141
20
67.6714102592856
30
0
0
VERTEX
8
0
10
81.5745974888529
20
68.3048804330918
30
0
0
VERTEX
8
0
10
82.2432417305648
20
68.9395790376976
30
0
0
VERTEX
8
0
10
82.9118859722767
20
69.565062131085
30
0
0
VERTEX
8
0
10
83.5805302139886
20
70.1825956952353
30
0
0
VERTEX
8
0
10
84.2491744557005
20
70.8007272851364
30
0
0
VERTEX
8
0
10
84.9178186974124
20
71.4194413731437
30
0
0
VERTEX
8
0
10
85.5864629391243
20
72.0434436931479
30
0
0
VERTEX
8
0
10
86.2551071808362
20
72.6711011332165
30
0
0
VERTEX
8
0
10
86.9237514225482
20
73.2991947905168
30
0
0
VERTEX
8
0
10
87.5923956642601
20
73.9277135466777
30
0
0
VERTEX
8
0
10
88.261039905972
20
74.5467754433479
30
0
0
VERTEX
8
0
10
88.9296841476839
20
75.16120660014
30
0
0
VERTEX
8
0
10
89.5983283893958
20
75.7763901144449
30
0
0
VERTEX
8
0
10
90.2669726311077
20
76.3923078101702
30
0
0
VERTEX
8
0
10
90.9356168728196
20
76.9957647059913
30
0
0
VERTEX
8
0
10
91.6042611145315
20
77.5944175980268
30
0
0
VERTEX
8
0
10
92.2729053562434
20
78.1938850058536
30
0
0
VERTEX
8
0
10
92.9415495979553
20
78.7941483389182
30
0
0
VERTEX
8
0
10
93.6101938396672
20
79.3635717672152
30
0
0
VERTEX
8
0
10
94.2788380813791
20
79.9232615723205
30
0
0
VERTEX
8
0
10
94.9474823230911
20
80.4835491943983
30
0
0
VERTEX
8
0
10
95.616126564803
20
81.0444222347142
30
0
0
VERTEX
8
0
10
96.2847708065149
20
81.5881300142963
30
0
0
VERTEX
8
0
10
96.9534150482268
20
82.1280916245885
30
0
0
VERTEX
8
0
10
97.6220592899387
20
82.6685866747863
30
0
0
VERTEX
8
0
10
98.2907035316506
20
83.209604769878
30
0
0
VERTEX
8
0
10
98.9593477733625
20
83.7365746290512
30
0
0
VERTEX
8
0
10
99.6279920150744
20
84.2616668799106
30
0
0
VERTEX
8
0
10
100.296636256786
20
84.7873002974731
30
0
0
VERTEX
8
0
10
100.965280498498
20
85.3134648790285
30
0
0
VERTEX
8
0
10
101.63392474021
20
85.8248741337442
30
0
0
VERTEX
8
0
10
102.302568981922
20
86.3353918229484
30
0
0
VERTEX
8
0
10
102.971213223634
20
86.8465374361158
30
0
0
VERTEX
8
0
10
103.639857465346
20
87.3582999510347
30
0
0
VERTEX
8
0
10
104.308501707058
20
87.8421312357964
30
0
0
VERTEX
8
0
10
104.97714594877
20
88.3256082503651
30
0
0
VERTEX
8
0
10
105.645790190482
20
88.8098717167268
30
0
0
VERTEX
8
0
10
106.314434432194
20
89.2949088396447
30
0
0
VERTEX
8
0
10
106.983078673905
20
89.7117221429043
30
0
0
VERTEX
8
0
10
107.651722915617
20
90.1299482726661
30
0
0
VERTEX
8
0
10
108.320367157329
20
90.5486763574857
30
0
0
VERTEX
8
0
10
108.989011399041
20
90.9678994658191
30
0
0
VERTEX
8
0
10
109.657655640753
20
91.33407826209
30
0
0
VERTEX
8
0
10
110.326299882465
20
91.7039712335294
30
0
0
VERTEX
8
0
10
110.994944124177
20
92.0742919753591
30
0
0
VERTEX
8
0
10
111.663588365889
20
92.44503534683
30
0
0
VERTEX
8
0
10
112.332232607601
20
92.7118772294798
30
0
0
VERTEX
8
0
10
113.000876849313
20
92.9901589220024
30
0
0
VERTEX
8
0
10
113.669521091025
20
93.2689153055462
30
0
0
VERTEX
8
0
10
114.338165332736
20
93.5481421366336
30
0
0
VERTEX
8
0
10
115.006809574448
20
93.7928629148379
30
0
0
VERTEX
8
0
10
115.67545381616
20
94.0431500722422
30
0
0
VERTEX
8
0
10
116.344098057872
20
94.2939308029681
30
0
0
VERTEX
8
0
10
117.012742299584
20
94.5452011794125
30
0
0
VERTEX
8
0
10
117.681386541296
20
94.7401757713935
30
0
0
VERTEX
8
0
10
118.350030783008
20
94.9458000954228
30
0
0
VERTEX
8
0
10
119.01867502472
20
95.1517909781109
30
0
0
VERTEX
8
0
10
119.687319266432
20
95.3581460439584
30
0
0
VERTEX
8
0
10
120.355963508144
20
95.2274441896674
30
0
0
VERTEX
8
0
10
121.024607749856
20
95.1691494058729
30
0
0
VERTEX
8
0
10
121.693251991567
20
95.1108563489379
30
0
0
VERTEX
8
0
10
122.361896233279
20
95.0525650220397
30
0
0
VERTEX
8
0
10
123.030540474991
20
94.9273413712731
30
0
0
VERTEX
8
0
10
123.699184716703
20
94.8185536153393
30
0
0
VERTEX
8
0
10
124.367828958415
20
94.7097659352083
30
0
0
VERTEX
8
0
10
125.036473200127
20
94.6009783311417
30
0
0
VERTEX
8
0
10
125.705117441839
20
94.5059073958548
30
0
0
VERTEX
8
0
10
126.373761683551
20
94.4070780874069
30
0
0
VERTEX
8
0
10
127.042405925263
20
94.3082493777237
30
0
0
VERTEX
8
0
10
127.711050166975
20
94.2094212686895
30
0
0
VERTEX
8
0
10
128.379694408687
20
94.101635203346
30
0
0
VERTEX
8
0
10
129.048338650398
20
93.9965408533009
30
0
0
VERTEX
8
0
10
129.71698289211
20
93.8914465252253
30
0
0
VERTEX
8
0
10
130.385627133822
20
93.7863522191933
30
0
0
VERTEX
8
0
10
131.054271375534
20
93.6684100883388
30
0
0
VERTEX
8
0
10
131.722915617246
20
93.5546440246955
30
0
0
VERTEX
8
0
10
132.391559858958
20
93.4408779621646
30
0
0
VERTEX
8
0
10
133.06020410067
20
93.3086245609828
30
0
0
VERTEX
8
0
10
133.728848342382
20
93.160283632567
30
0
0
VERTEX
8
0
10
134.397492584094
20
93.0120363715396
30
0
0
VERTEX
8
0
10
135.066136825806
20
92.8638832264905
30
0
0
VERTEX
8
0
10
135.734781067517
20
92.7171479640972
30
0
0
VERTEX
8
0
10
136.403425309229
20
92.5714865937978
30
0
0
VERTEX
8
0
10
137.072069550941
20
92.4259745762981
30
0
0
VERTEX
8
0
10
137.740713792653
20
92.2806126181158
30
0
0
VERTEX
8
0
10
138.409358034365
20
92.1236698059058
30
0
0
VERTEX
8
0
10
139.078002276077
20
91.9601463358842
30
0
0
VERTEX
8
0
10
139.746646517789
20
91.796694342029
30
0
0
VERTEX
8
0
10
140.415290759501
20
91.6333142068294
30
0
0
VERTEX
8
0
10
141.083935001213
20
91.4861952759965
30
0
0
VERTEX
8
0
10
141.752579242924
20
91.3465240996278
30
0
0
VERTEX
8
0
10
142.421223484636
20
91.2070344113168
30
0
0
VERTEX
8
0
10
143.089867726348
20
91.0677270450266
30
0
0
VERTEX
8
0
10
143.75851196806
20
90.9412209621655
30
0
0
VERTEX
8
0
10
144.427156209772
20
90.8191808114933
30
0
0
VERTEX
8
0
10
145.095800451484
20
90.6971964442501
30
0
0
VERTEX
8
0
10
145.764444693196
20
90.5752680858189
30
0
0
VERTEX
8
0
10
146.433088934908
20
90.4699556631528
30
0
0
VERTEX
8
0
10
147.10173317662
20
90.368978230689
30
0
0
VERTEX
8
0
10
147.770377418332
20
90.2680302066535
30
0
0
VERTEX
8
0
10
148.439021660043
20
90.1671116898204
30
0
0
VERTEX
8
0
10
149.107665901755
20
90.0620609810489
30
0
0
VERTEX
8
0
10
149.776310143467
20
89.956283864772
30
0
0
VERTEX
8
0
10
150.444954385179
20
89.8505395432707
30
0
0
VERTEX
8
0
10
151.113598626891
20
89.7448281324692
30
0
0
VERTEX
8
0
10
151.782242868603
20
89.6413559042307
30
0
0
VERTEX
8
0
10
152.450887110315
20
89.5381664762955
30
0
0
VERTEX
8
0
10
153.119531352027
20
89.4350087758886
30
0
0
VERTEX
8
0
10
153.788175593739
20
89.3318829129239
30
0
0
SEQEND
8
0
0
POLYLINE
8
0
62
2
70
0
10
0
20
0
30
0
0
VERTEX
8
0
10
8.69237514225481
20
13.9698567173368
30
0
0
VERTEX
8
0
10
9.36101938396672
20
14.5552301196659
30
0
0
VERTEX
8
0
10
10.0296636256786
20
15.1409204698363
30
0
0
VERTEX
8
0
10
10.6983078673905
20
15.7268923572127
30
0
0
VERTEX
8
0
10
11.3669521091024
20
16.3131154431263
30
0
0
VERTEX
8
0
10
12.0355963508144
20
16.9561855037607
30
0
0
VERTEX
8
0
10
12.7042405925263
20
17.5924647654675
30
0
0
VERTEX
8
0
10
13.3728848342382
20
18.2289000298869
30
0
0
VERTEX
8
0
10
14.0415290759501
20
18.8654755085616
30
0
0
VERTEX
8
0
10
14.710173317662
20
19.4768626108279
30
0
0
VERTEX
8
0
10
15.3788175593739
20
20.0923971118064
30
0
0
VERTEX
8
0
10
16.0474618010858
20
20.7079954167722
30
0
0
VERTEX
8
0
10
16.7161060427977
20
21.323651999802
30
0
0
VERTEX
8
0
10
17.3847502845096
20
21.8416602276793
30
0
0
VERTEX
8
0
10
18.0533945262215
20
22.3788547543959
30
0
0
VERTEX
8
0
10
18.7220387679334
20
22.9160590362794
30
0
0
VERTEX
8
0
10
19.3906830096454
20
23.4532724029948
30
0
0
VERTEX
8
0
10
20.0593272513573
20
23.9788467574025
30
0
0
VERTEX
8
0
10
20.7279714930692
20
24.5070843157877
30
0
0
VERTEX
8
0
10
21.3966157347811
20
25.0353235627657
30
0
0
VERTEX
8
0
10
22.065259976493
20
25.5635643936586
30
0
0
VERTEX
8
0
10
22.7339042182049
20
26.0243659400275
30
0
0
VERTEX
8
0
10
23.4025484599168
20
26.502590879988
30
0
0
VERTEX
8
0
10
24.0711927016287
20
26.980816319446
30
0
0
VERTEX
8
0
10
24.7398369433406
20
27.4590422323038
30
0
0
VERTEX
8
0
10
25.4084811850525
20
27.9224337486904
30
0
0
VERTEX
8
0
10
26.0771254267644
20
28.3900794958082
30
0
0
VERTEX
8
0
10
26.7457696684763
20
28.857735490036
30
0
0
VERTEX
8
0
10
27.4144139101883
20
29.325401241138
30
0
0
VERTEX
8
0
10
28.0830581519002
20
29.7559309207877
30
0
0
VERTEX
8
0
10
28.7517023936121
20
30.1981996777107
30
0
0
VERTEX
8
0
10
29.420346635324
20
30.6406009481311
30
0
0
VERTEX
8
0
10
30.0889908770359
20
31.0979740004407
30
0
0
VERTEX
8
0
10
30.7576351187478
20
31.5699949426117
30
0
0
VERTEX
8
0
10
31.4262793604597
20
32.0420578544295
30
0
0
VERTEX
8
0
10
32.0949236021716
20
32.5141609078617
30
0
0
VERTEX
8
0
10
32.7635678438835
20
32.969469062919
30
0
0
VERTEX
8
0
10
33.4322120855954
20
33.411369052104
30
0
0
VERTEX
8
0
10
34.1008563273073
20
33.8532703419693
30
0
0
VERTEX
8
0
10
34.7695005690193
20
34.2951728822363
30
0
0
VERTEX
8
0
10
35.4381448107312
20
34.7537416221695
30
0
0
VERTEX
8
0
10
36.1067890524431
20
35.2230408555162
30
0
0
VERTEX
8
0
10
36.775433294155
20
35.6923493059006
30
0
0
VERTEX
8
0
10
37.4440775358669
20
36.1616666144648
30
0
0
VERTEX
8
0
10
38.1127217775788
20
36.6246362109162
30
0
0
VERTEX
8
0
10
38.7813660192907
20
37.0843429217521
30
0
0
VERTEX
8
0
10
39.4500102610026
20
37.5440526283664
30
0
0
VERTEX
8
0
10
40.1186545027145
20
38.0037652220446
30
0
0
VERTEX
8
0
10
40.7872987444264
20
38.4554688413345
30
0
0
VERTEX
8
0
10
41.4559429861383
20
38.9041102895396
30
0
0
VERTEX
8
0
10
42.1245872278503
20
39.3529435670059
30
0
0
VERTEX
8
0
10
42.7932314695622
20
39.8019621841526
30
0
0
VERTEX
8
0
10
43.4618757112741
20
40.233553839205
30
0
0
VERTEX
8
0
10
44.130519952986
20
40.6600106682661
30
0
0
VERTEX
8
0
10
44.7991641946979
20
41.0867597900692
30
0
0
VERTEX
8
0
10
45.4678084364098
20
41.5137921905745
30
0
0
VERTEX
8
0
10
46.1364526781217
20
41.9543967248392
30
0
0
VERTEX
8
0
10
46.8050969198336
20
42.3983053055637
30
0
0
VERTEX
8
0
10
47.4737411615455
20
42.8425268791937
30
0
0
VERTEX
8
0
10
48.1423854032574
20
43.2870518097173
30
0
0
VERTEX
8
0
10
48.8110296449693
20
43.7137799696823
30
0
0
VERTEX
8
0
10
49.4796738866813
20
44.1379786033173
30
0
0
VERTEX
8
0
10
50.1483181283932
20
44.5623721520834
30
0
0
VERTEX
8
0
10
50.8169623701051
20
44.986955099667
30
0
0
VERTEX
8
0
10
51.485606611817
20
45.4030017494155
30
0
0
VERTEX
8
0
10
52.1542508535289
20
45.8183144743471
30
0
0
VERTEX
8
0
10
52.8228950952408
20
46.2336376089341
30
0
0
VERTEX
8
0
10
53.4915393369527
20
46.64897087514
30
0
0
VERTEX
8
0
10
54.1601835786646
20
47.0634292244655
30
0
0
VERTEX
8
0
10
54.8288278203765
20
47.4779266185392
30
0
0
VERTEX
8
0
10
55.4974720620884
20
47.8924869778007
30
0
0
VERTEX
8
0
10
56.1661163038003
20
48.3071086811925
30
0
0
VERTEX
8
0
10
56.8347605455123
20
48.7238042263727
30
0
0
VERTEX
8
0
10
57.5034047872242
20
49.1406061742914
30
0
0
VERTEX
8
0
10
58.1720490289361
20
49.5575580443365
30
0
0
VERTEX
8
0
10
58.840693270648
20
49.9746560839874
30
0
0
VERTEX
8
0
10
59.5093375123599
20
50.4123605459407
30
0
0
VERTEX
8
0
10
60.1779817540718
20
50.8486961522986
30
0
0
VERTEX
8
0
10
60.8466259957837
20
51.2851211969692
30
0
0
VERTEX
8
0
10
61.5152702374956
20
51.7216334159218
30
0
0
VERTEX
8
0
10
62.1839144792075
20
52.1757106336632
30
0
0
VERTEX
8
0
10
62.8525587209194
20
52.6278597369754
30
0
0
VERTEX
8
0
10
63.5212029626313
20
53.0800743945246
30
0
0
VERTEX
8
0
10
64.1898472043433
20
53.5323529450022
30
0
0
VERTEX
8
0
10
64.8584914460552
20
54.0648289816907
30
0
0
VERTEX
8
0
10
65.5271356877671
20
54.5850495645044
30
0
0
VERTEX
8
0
10
66.195779929479
20
55.1052890171351
30
0
0
VERTEX
8
0
10
66.8644241711909
20
55.6255468101412
30
0
0
VERTEX
8
0
10
67.5330684129028
20
56.1738876172568
30
0
0
VERTEX
8
0
10
68.2017126546147
20
56.7169617326827
30
0
0
VERTEX
8
0
10
68.8703568963266
20
57.2600671462706
30
0
0
VERTEX
8
0
10
69.5390011380385
20
57.80320297581
30
0
0
VERTEX
8
0
10
70.2076453797504
20
58.3860255744063
30
0
0
VERTEX
8
0
10
70.8762896214623
20
58.9601897951752
30
0
0
VERTEX
8
0
10
71.5449338631742
20
59.5344713666676
30
0
0
VERTEX
8
0
10
72.2135781048862
20
60.1088669253685
30
0
0
VERTEX
8
0
10
72.8822223465981
20
60.670400612654
30
0
0
VERTEX
8
0
10
73.55086658831
20
61.2355175750358
30
0
0
VERTEX
8
0
10
74.2195108300219
20
61.8009105337352
30
0
0
VERTEX
8
0
10
74.8881550717338
20
62.3665719825018
30
0
0
VERTEX
8
0
10
75.5567993134457
20
62.9304993885362
30
0
0
VERTEX
8
0
10
76.2254435551576
20
63.4960061113185
30
0
0
VERTEX
8
0
10
76.8940877968695
20
64.0623827333182
30
0
0
VERTEX
8
0
10
77.5627320385814
20
64.6296063846532
30
0
0
VERTEX
8
0
10
78.2313762802933
20
65.2343410631518
30
0
0
VERTEX
8
0
10
78.9000205220052
20
65.8292152741552
30
0
0
VERTEX
8
0
10
79.5686647637172
20
66.4253181934717
30
0
0
VERTEX
8
0
10
80.2373090054291
20
67.0226170365072
30
0
0
VERTEX
8
0
10
80.905953247141
20
67.6714102592856
30
0
0
VERTEX
8
0
10
81.5745974888529
20
68.3048804330918
30
0
0
VERTEX
8
0
10
82.2432417305648
20
68.9395790376976
30
0
0
VERTEX
8
0
10
82.9118859722767
20
69.565062131085
30
0
0
VERTEX
8
0
10
83.5805302139886
20
70.1825956952353
30
0
0
VERTEX
8
0
10
84.2491744557005
20
70.8007272851364
30
0
0
VERTEX
8
0
10
84.9178186974124
20
71.4194413731437
30
0
0
VERTEX
8
0
10
85.5864629391243
20
72.0434436931479
30
0
0
VERTEX
8
0
10
86.2551071808362
20
72.6711011332165
30
0
0
VERTEX
8
0
10
86.9237514225482
20
73.2991947905168
30
0
0
VERTEX
8
0
10
87.5923956642601
20
73.9277135466777
30
0
0
VERTEX
8
0
10
88.261039905972
20
74.5467754433479
30
0
0
VERTEX
8
0
10
88.9296841476839
20
75.16120660014
30
0
0
VERTEX
8
0
10
89.5983283893958
20
75.7763901144449
30
0
0
VERTEX
8
0
10
90.2669726311077
20
76.3923078101702
30
0
0
VERTEX
8
0
10
90.9356168728196
20
76.9957647059913
30
0
0
VERTEX
8
0
10
91.6042611145315
20
77.5944175980268
30
0
0
VERTEX
8
0
10
92.2729053562434
20
78.1938850058536
30
0
0
VERTEX
8
0
10
92.9415495979553
20
78.7941483389182
30
0
0
VERTEX
8
0
10
93.6101938396672
20
79.3635717672152
30
0
0
VERTEX
8
0
10
94.2788380813791
20
79.9232615723205
30
0
0
VERTEX
8
0
10
94.9474823230911
20
80.4835491943983
30
0
0
VERTEX
8
0
10
95.616126564803
20
81.0444222347142
30
0
0
VERTEX
8
0
10
96.2847708065149
20
81.5881300142963
30
0
0
VERTEX
8
0
10
96.9534150482268
20
82.1280916245885
30
0
0
VERTEX
8
0
10
97.6220592899387
20
82.6685866747863
30
0
0
VERTEX
8
0
10
98.2907035316506
20
83.209604769878
30
0
0
VERTEX
8
0
10
98.9593477733625
20
83.7365746290512
30
0
0
VERTEX
8
0
10
99.6279920150744
20
84.2616668799106
30
0
0
VERTEX
8
0
10
100.296636256786
20
84.7873002974731
30
0
0
VERTEX
8
0
10
100.965280498498
20
85.3134648790285
30
0
0
VERTEX
8
0
10
101.63392474021
20
85.8248741337442
30
0
0
VERTEX
8
0
10
102.302568981922
20
86.3353918229484
30
0
0
VERTEX
8
0
10
102.971213223634
20
86.8465374361158
30
0
0
VERTEX
8
0
10
103.639857465346
20
87.3582999510347
30
0
0
VERTEX
8
0
10
104.308501707058
20
87.8421312357964
30
0
0
VERTEX
8
0
10
104.97714594877
20
88.3256082503651
30
0
0
VERTEX
8
0
10
105.645790190482
20
88.8098717167269
30
0
0
VERTEX
8
0
10
106.314434432194
20
89.2949088396447
30
0
0
VERTEX
8
0
10
106.983078673905
20
89.7117221429043
30
0
0
VERTEX
8
0
10
107.651722915617
20
90.1299482726661
30
0
0
VERTEX
8
0
10
108.320367157329
20
90.5486763574857
30
0
0
VERTEX
8
0
10
108.989011399041
20
90.9678994658191
30
0
0
VERTEX
8
0
10
109.657655640753
20
91.33407826209
30
0
0
VERTEX
8
0
10
110.326299882465
20
91.7039712335294
30
0
0
VERTEX
8
0
10
110.994944124177
20
92.0742919753591
30
0
0
VERTEX
8
0
10
111.663588365889
20
92.44503534683
30
0
0
VERTEX
8
0
10
112.332232607601
20
92.7118772294798
30
0
0
VERTEX
8
0
10
113.000876849313
20
92.9901589220024
30
0
0
VERTEX
8
0
10
113.669521091025
20
93.2689153055462
30
0
0
VERTEX
8
0
10
114.338165332736
20
93.5481421366336
30
0
0
VERTEX
8
0
10
115.006809574448
20
93.7928629148379
30
0
0
VERTEX
8
0
10
115.67545381616
20
94.0431500722422
30
0
0
VERTEX
8
0
10
116.344098057872
20
94.2939308029681
30
0
0
VERTEX
8
0
10
117.012742299584
20
94.5452011794125
30
0
0
VERTEX
8
0
10
117.681386541296
20
94.7401757713936
30
0
0
VERTEX
8
0
10
118.350030783008
20
94.9458000954228
30
0
0
VERTEX
8
0
10
119.01867502472
20
95.1517909781109
30
0
0
VERTEX
8
0
10
119.687319266432
20
95.3581460439584
30
0
0
VERTEX
8
0
10
120.355963508144
20
95.2274441896674
30
0
0
VERTEX
8
0
10
121.024607749856
20
95.1691494058729
30
0
0
VERTEX
8
0
10
121.693251991567
20
95.110856348938
30
0
0
VERTEX
8
0
10
122.361896233279
20
95.0525650220396
30
0
0
VERTEX
8
0
10
123.030540474991
20
94.9273413712731
30
0
0
VERTEX
8
0
10
123.699184716703
20
94.8185536153393
30
0
0
VERTEX
8
0
10
124.367828958415
20
94.7097659352083
30
0
0
VERTEX
8
0
10
125.036473200127
20
94.6009783311417
30
0
0
VERTEX
8
0
10
125.705117441839
20
94.5059073958548
30
0
0
VERTEX
8
0
10
126.373761683551
20
94.4070780874069
30
0
0
VERTEX
8
0
10
127.042405925263
20
94.3082493777237
30
0
0
VERTEX
8
0
10
127.711050166975
20
94.2094212686895
30
0
0
VERTEX
8
0
10
128.379694408687
20
94.101635203346
30
0
0
VERTEX
8
0
10
129.048338650398
20
93.9965408533009
30
0
0
VERTEX
8
0
10
129.71698289211
20
93.8914465252253
30
0
0
VERTEX
8
0
10
130.385627133822
20
93.7863522191933
30
0
0
VERTEX
8
0
10
131.054271375534
20
93.6684100883388
30
0
0
VERTEX
8
0
10
131.722915617246
20
93.5546440246955
30
0
0
VERTEX
8
0
10
132.391559858958
20
93.4408779621646
30
0
0
VERTEX
8
0
10
133.06020410067
20
93.3086245609828
30
0
0
VERTEX
8
0
10
133.728848342382
20
93.160283632567
30
0
0
VERTEX
8
0
10
134.397492584094
20
93.0120363715396
30
0
0
VERTEX
8
0
10
135.066136825806
20
92.8638832264905
30
0
0
VERTEX
8
0
10
135.734781067517
20
92.7171479640972
30
0
0
VERTEX
8
0
10
136.403425309229
20
92.5714865937978
30
0
0
VERTEX
8
0
10
137.072069550941
20
92.4259745762981
30
0
0
VERTEX
8
0
10
137.740713792653
20
92.2806126181158
30
0
0
VERTEX
8
0
10
138.409358034365
20
92.1236698059058
30
0
0
VERTEX
8
0
10
139.078002276077
20
91.9601463358842
30
0
0
VERTEX
8
0
10
139.746646517789
20
91.796694342029
30
0
0
VERTEX
8
0
10
140.415290759501
20
91.6333142068294
30
0
0
VERTEX
8
0
10
141.083935001213
20
91.4861952759965
30
0
0
VERTEX
8
0
10
141.752579242924
20
91.3465240996278
30
0
0
VERTEX
8
0
10
142.421223484636
20
91.2070344113168
30
0
0
VERTEX
8
0
10
143.089867726348
20
91.0677270450266
30
0
0
VERTEX
8
0
10
143.75851196806
20
90.9412209621655
30
0
0
VERTEX
8
0
10
144.427156209772
20
90.8191808114933
30
0
0
VERTEX
8
0
10
145.095800451484
20
90.6971964442501
30
0
0
VERTEX
8
0
10
145.764444693196
20
90.5752680858189
30
0
0
VERTEX
8
0
10
146.433088934908
20
90.4699556631528
30
0
0
VERTEX
8
0
10
147.10173317662
20
90.368978230689
30
0
0
VERTEX
8
0
10
147.770377418332
20
90.2680302066535
30
0
0
VERTEX
8
0
10
148.439021660043
20
90.1671116898204
30
0
0
VERTEX
8
0
10
149.107665901755
20
90.0620609810489
30
0
0
VERTEX
8
0
10
149.776310143467
20
89.956283864772
30
0
0
VERTEX
8
0
10
150.444954385179
20
89.8505395432707
30
0
0
VERTEX
8
0
10
151.113598626891
20
89.7448281324692
30
0
0
VERTEX
8
0
10
151.782242868603
20
89.6413559042307
30
0
0
VERTEX
8
0
10
152.450887110315
20
89.5381664762955
30
0
0
VERTEX
8
0
10
153.119531352027
20
89.4350087758886
30
0
0
VERTEX
8
0
10
153.788175593739
20
89.3318829129239
30
0
0
SEQEND
8
0
0
POLYLINE
8
0
62
3
70
0
10
0
20
0
30
0
0
VERTEX
8
0
10
8.69237514225481
20
12.6741685930109
30
0
0
VERTEX
8
0
10
9.36101938396672
20
12.8670396509385
30
0
0
VERTEX
8
0
10
10.0296636256786
20
13.8196236566325
30
0
0
VERTEX
8
0
10
10.6983078673905
20
14.3151452103403
30
0
0
VERTEX
8
0
10
11.3669521091024
20
18.4438598526577
30
0
0
VERTEX
8
0
10
12.0355963508144
20
15.7641641713281
30
0
0
VERTEX
8
0
10
12.7042405925263
20
18.6087713174765
30
0
0
VERTEX
8
0
10
13.3728848342382
20
17.6720977405228
30
0
0
VERTEX
8
0
10
14.0415290759501
20
19.4872645925804
30
0
0
VERTEX
8
0
10
14.710173317662
20
19.1425063060359
30
0
0
VERTEX
8
0
10
15.3788175593739
20
20.5681731243628
30
0
0
VERTEX
8
0
10
16.0474618010858
20
21.1358566963502
30
0
0
VERTEX
8
0
10
16.7161060427977
20
21.6994010822551
30
0
0
VERTEX
8
0
10
17.3847502845096
20
22.3357690732954
30
0
0
VERTEX
8
0
10
18.0533945262215
20
23.1002260061001
30
0
0
VERTEX
8
0
10
18.7220387679334
20
23.7767195313215
30
0
0
VERTEX
8
0
10
19.3906830096454
20
24.3166604847309
30
0
0
VERTEX
8
0
10
20.0593272513573
20
26.0435676041672
30
0
0
VERTEX
8
0
10
20.7279714930692
20
25.8589789973932
30
0
0
VERTEX
8
0
10
21.3966157347811
20
27.051559822379
30
0
0
VERTEX
8
0
10
22.065259976493
20
27.0860586256446
30
0
0
VERTEX
8
0
10
22.7339042182049
20
28.2233653582453
30
0
0
VERTEX
8
0
10
23.4025484599168
20
28.4807087017475
30
0
0
VERTEX
8
0
10
24.0711927016287
20
29.2968336506411
30
0
0
VERTEX
8
0
10
24.7398369433406
20
29.8327005402206
30
0
0
VERTEX
8
0
10
25.4084811850525
20
30.5887937622755
30
0
0
VERTEX
8
0
10
26.0771254267644
20
31.086289073516
30
0
0
VERTEX
8
0
10
26.7457696684763
20
31.6837479785741
30
0
0
VERTEX
8
0
10
27.4144139101883
20
32.3775907601226
30
0
0
VERTEX
8
0
10
28.0830581519002
20
32.8997089394077
30
0
0
VERTEX
8
0
10
28.7517023936121
20
33.9516669548703
30
0
0
VERTEX
8
0
10
29.420346635324
20
34.1199449433258
30
0
0
VERTEX
8
0
10
30.0889908770359
20
35.0834180723292
30
0
0
VERTEX
8
0
10
30.7576351187478
20
35.3193315823998
30
0
0
VERTEX
8
0
10
31.4262793604597
20
36.0821378417351
30
0
0
VERTEX
8
0
10
32.0949236021716
20
36.5527944369522
30
0
0
VERTEX
8
0
10
32.7635678438835
20
37.1710322630312
30
0
0
VERTEX
8
0
10
33.4322120855954
20
37.6695427099244
30
0
0
VERTEX
8
0
10
34.1008563273073
20
38.2682680154296
30
0
0
VERTEX
8
0
10
34.7695005690193
20
38.8595222534083
30
0
0
VERTEX
8
0
10
35.4381448107312
20
39.356951347174
30
0
0
VERTEX
8
0
10
36.1067890524431
20
39.9202916972473
30
0
0
VERTEX
8
0
10
36.775433294155
20
40.472459384564
30
0
0
VERTEX
8
0
10
37.4440775358669
20
41.2453895910953
30
0
0
VERTEX
8
0
10
38.1127217775788
20
41.5393395795926
30
0
0
VERTEX
8
0
10
38.7813660192907
20
42.253171840441
30
0
0
VERTEX
8
0
10
39.4500102610026
20
42.6724628701792
30
0
0
VERTEX
8
0
10
40.1186545027145
20
43.2599220688613
30
0
0
VERTEX
8
0
10
40.7872987444264
20
43.7161018762998
30
0
0
VERTEX
8
0
10
41.4559429861383
20
44.2886360380651
30
0
0
VERTEX
8
0
10
42.1245872278503
20
44.7580516772341
30
0
0
VERTEX
8
0
10
42.7932314695622
20
45.2859463060918
30
0
0
VERTEX
8
0
10
43.4618757112741
20
45.8016231896363
30
0
0
VERTEX
8
0
10
44.130519952986
20
46.3381951789575
30
0
0
VERTEX
8
0
10
44.7991641946979
20
46.8305084766201
30
0
0
VERTEX
8
0
10
45.4678084364098
20
47.3248316974963
30
0
0
VERTEX
8
0
10
46.1364526781217
20
47.997740821026
30
0
0
VERTEX
8
0
10
46.8050969198336
20
48.3466617471442
30
0
0
VERTEX
8
0
10
47.4737411615455
20
48.9466088073215
30
0
0
VERTEX
8
0
10
48.1423854032574
20
49.369392136106
30
0
0
VERTEX
8
0
10
48.8110296449693
20
49.9427751912187
30
0
0
VERTEX
8
0
10
49.4796738866813
20
50.3894802265008
30
0
0
VERTEX
8
0
10
50.1483181283932
20
50.890991789348
30
0
0
VERTEX
8
0
10
50.8169623701051
20
51.3791139074087
30
0
0
VERTEX
8
0
10
51.485606611817
20
51.8718941096553
30
0
0
VERTEX
8
0
10
52.1542508535289
20
52.3622690664674
30
0
0
VERTEX
8
0
10
52.8228950952408
20
52.8581520358854
30
0
0
VERTEX
8
0
10
53.4915393369527
20
53.375895449858
30
0
0
VERTEX
8
0
10
54.1601835786646
20
53.8478538796424
30
0
0
VERTEX
8
0
10
54.8288278203765
20
54.4324759978456
30
0
0
VERTEX
8
0
10
55.4974720620884
20
54.8464124366687
30
0
0
VERTEX
8
0
10
56.1661163038003
20
55.3910869045628
30
0
0
VERTEX
8
0
10
56.8347605455123
20
55.8353586947777
30
0
0
VERTEX
8
0
10
57.5034047872242
20
56.3588561735947
30
0
0
VERTEX
8
0
10
58.1720490289361
20
56.8563640783277
30
0
0
VERTEX
8
0
10
58.840693270648
20
57.3351177873089
30
0
0
VERTEX
8
0
10
59.5093375123599
20
57.8129836599564
30
0
0
VERTEX
8
0
10
60.1779817540718
20
58.3218514638713
30
0
0
VERTEX
8
0
10
60.8466259957837
20
58.809479792463
30
0
0
VERTEX
8
0
10
61.5152702374956
20
59.3065464759202
30
0
0
VERTEX
8
0
10
62.1839144792075
20
59.8105061962545
30
0
0
VERTEX
8
0
10
62.8525587209194
20
60.3223298141679
30
0
0
VERTEX
8
0
10
63.5212029626313
20
60.87609788027
30
0
0
VERTEX
8
0
10
64.1898472043433
20
61.3177539800446
30
0
0
VERTEX
8
0
10
64.8584914460552
20
61.8665779221607
30
0
0
VERTEX
8
0
10
65.5271356877671
20
62.3389661708746
30
0
0
VERTEX
8
0
10
66.195779929479
20
62.8613393033796
30
0
0
VERTEX
8
0
10
66.8644241711909
20
63.371066810047
30
0
0
VERTEX
8
0
10
67.5330684129028
20
63.8867669171994
30
0
0
VERTEX
8
0
10
68.2017126546147
20
64.3847156212044
30
0
0
VERTEX
8
0
10
68.8703568963266
20
64.9000392677955
30
0
0
VERTEX
8
0
10
69.5390011380385
20
65.4238276202126
30
0
0
VERTEX
8
0
10
70.2076453797504
20
65.9402129482482
30
0
0
VERTEX
8
0
10
70.8762896214623
20
66.4671214681785
30
0
0
VERTEX
8
0
10
71.5449338631742
20
66.9948202738267
30
0
0
VERTEX
8
0
10
72.2135781048862
20
67.5762919538859
30
0
0
VERTEX
8
0
10
72.8822223465981
20
68.0659500513035
30
0
0
VERTEX
8
0
10
73.55086658831
20
68.6205551855793
30
0
0
VERTEX
8
0
10
74.2195108300219
20
69.1495008117974
30
0
0
VERTEX
8
0
10
74.8881550717338
20
69.6933797950342
30
0
0
VERTEX
8
0
10
75.5567993134457
20
70.2450208703182
30
0
0
VERTEX
8
0
10
76.2254435551576
20
70.7845143998454
30
0
0
VERTEX
8
0
10
76.8940877968695
20
71.3421776128148
30
0
0
VERTEX
8
0
10
77.5627320385814
20
71.8969079687934
30
0
0
VERTEX
8
0
10
78.2313762802933
20
72.4544847288748
30
0
0
VERTEX
8
0
10
78.9000205220052
20
73.0255410882148
30
0
0
VERTEX
8
0
10
79.5686647637172
20
73.5945531197278
30
0
0
VERTEX
8
0
10
80.2373090054291
20
74.1732916348242
30
0
0
VERTEX
8
0
10
80.905953247141
20
74.7824709165768
30
0
0
VERTEX
8
0
10
81.5745974888529
20
75.3544714131896
30
0
0
VERTEX
8
0
10
82.2432417305648
20
75.9576605118959
30
0
0
VERTEX
8
0
10
82.9118859722767
20
76.5465669434862
30
0
0
VERTEX
8
0
10
83.5805302139886
20
77.1576225807085
30
0
0
VERTEX
8
0
10
84.2491744557005
20
77.7773593421868
30
0
0
VERTEX
8
0
10
84.9178186974124
20
78.3906844843429
30
0
0
VERTEX
8
0
10
85.5864629391243
20
79.0209669033138
30
0
0
VERTEX
8
0
10
86.2551071808362
20
79.6734926684886
30
0
0
VERTEX
8
0
10
86.9237514225482
20
80.3286121375324
30
0
0
VERTEX
8
0
10
87.5923956642601
20
80.9986977849827
30
0
0
VERTEX
8
0
10
88.261039905972
20
81.6960873154644
30
0
0
VERTEX
8
0
10
88.9296841476839
20
82.4165634983688
30
0
0
VERTEX
8
0
10
89.5983283893958
20
83.1925128148415
30
0
0
VERTEX
8
0
10
90.2669726311077
20
83.9674656336103
30
0
0
VERTEX
8
0
10
90.9356168728196
20
84.7882408923814
30
0
0
VERTEX
8
0
10
91.6042611145315
20
85.5529536366433
30
0
0
VERTEX
8
0
10
92.2729053562434
20
86.2637515605801
30
0
0
VERTEX
8
0
10
92.9415495979553
20
86.9568359426025
30
0
0
VERTEX
8
0
10
93.6101938396672
20
87.6001285105015
30
0
0
VERTEX
8
0
10
94.2788380813791
20
88.2377345413992
30
0
0
VERTEX
8
0
10
94.9474823230911
20
88.8604350380406
30
0
0
VERTEX
8
0
10
95.616126564803
20
89.4776535553366
30
0
0
VERTEX
8
0
10
96.2847708065149
20
90.0831291629875
30
0
0
VERTEX
8
0
10
96.9534150482268
20
90.684913752879
30
0
0
VERTEX
8
0
10
97.6220592899387
20
91.2972045334911
30
0
0
VERTEX
8
0
10
98.2907035316506
20
91.9000154590215
30
0
0
VERTEX
8
0
10
98.9593477733625
20
92.4555628884616
30
0
0
VERTEX
8
0
10
99.6279920150744
20
92.9902733852653
30
0
0
VERTEX
8
0
10
100.296636256786
20
93.5050834078097
30
0
0
VERTEX
8
0
10
100.965280498498
20
93.9911484896698
30
0
0
VERTEX
8
0
10
101.63392474021
20
94.4691680358028
30
0
0
VERTEX
8
0
10
102.302568981922
20
94.9173327105725
30
0
0
VERTEX
8
0
10
102.971213223634
20
95.3577922583503
30
0
0
VERTEX
8
0
10
103.639857465346
20
95.7877186999369
30
0
0
VERTEX
8
0
10
104.308501707058
20
96.2023743045232
30
0
0
VERTEX
8
0
10
104.97714594877
20
96.608938328925
30
0
0
VERTEX
8
0
10
105.645790190482
20
97.000476016108
30
0
0
VERTEX
8
0
10
106.314434432194
20
97.3793606250788
30
0
0
VERTEX
8
0
10
106.983078673905
20
97.7554139906105
30
0
0
VERTEX
8
0
10
107.651722915617
20
98.1106673043618
30
0
0
VERTEX
8
0
10
108.320367157329
20
98.4620913312241
30
0
0
VERTEX
8
0
10
108.989011399041
20
98.8043927033763
30
0
0
VERTEX
8
0
10
109.657655640753
20
99.1348334359729
30
0
0
VERTEX
8
0
10
110.326299882465
20
99.4678512753065
30
0
0
VERTEX
8
0
10
110.994944124177
20
99.774981501414
30
0
0
VERTEX
8
0
10
111.663588365889
20
100.088792559089
30
0
0
VERTEX
8
0
10
112.332232607601
20
100.399032852869
30
0
0
VERTEX
8
0
10
113.000876849313
20
100.711783842591
30
0
0
VERTEX
8
0
10
113.669521091025
20
101.018786455861
30
0
0
VERTEX
8
0
10
114.338165332736
20
101.306901017519
30
0
0
VERTEX
8
0
10
115.006809574448
20
101.569327013199
30
0
0
VERTEX
8
0
10
115.67545381616
20
101.807849609705
30
0
0
VERTEX
8
0
10
116.344098057872
20
102.026320544633
30
0
0
VERTEX
8
0
10
117.012742299584
20
102.227393625306
30
0
0
VERTEX
8
0
10
117.681386541296
20
102.418251779161
30
0
0
VERTEX
8
0
10
118.350030783008
20
102.586011399833
30
0
0
VERTEX
8
0
10
119.01867502472
20
102.752922951076
30
0
0
VERTEX
8
0
10
119.687319266432
20
102.893263464571
30
0
0
VERTEX
8
0
10
120.355963508144
20
103.025406039324
30
0
0
VERTEX
8
0
10
121.024607749856
20
103.147610942022
30
0
0
VERTEX
8
0
10
121.693251991567
20
103.258141761498
30
0
0
VERTEX
8
0
10
122.361896233279
20
103.35879519309
30
0
0
VERTEX
8
0
10
123.030540474991
20
103.446399361341
30
0
0
VERTEX
8
0
10
123.699184716703
20
103.526653829228
30
0
0
VERTEX
8
0
10
124.367828958415
20
103.596378218813
30
0
0
VERTEX
8
0
10
125.036473200127
20
103.65253951743
30
0
0
VERTEX
8
0
10
125.705117441839
20
103.699173654635
30
0
0
VERTEX
8
0
10
126.373761683551
20
103.739896822776
30
0
0
VERTEX
8
0
10
127.042405925263
20
103.766039643561
30
0
0
VERTEX
8
0
10
127.711050166975
20
103.789577299459
30
0
0
VERTEX
8
0
10
128.379694408687
20
103.795523328986
30
0
0
VERTEX
8
0
10
129.048338650398
20
103.797967548453
30
0
0
VERTEX
8
0
10
129.71698289211
20
103.788754277304
30
0
0
VERTEX
8
0
10
130.385627133822
20
103.772614934544
30
0
0
VERTEX
8
0
10
131.054271375534
20
103.747850925412
30
0
0
VERTEX
8
0
10
131.722915617246
20
103.714985694837
30
0
0
VERTEX
8
0
10
132.391559858958
20
103.673407078909
30
0
0
VERTEX
8
0
10
133.06020410067
20
103.624218040067
30
0
0
VERTEX
8
0
10
133.728848342382
20
103.567763428175
30
0
0
VERTEX
8
0
10
134.397492584094
20
103.49914041709
30
0
0
VERTEX
8
0
10
135.066136825806
20
103.427370212007
30
0
0
VERTEX
8
0
10
135.734781067517
20
103.34307037764
30
0
0
VERTEX
8
0
10
136.403425309229
20
103.257772392881
30
0
0
VERTEX
8
0
10
137.072069550941
20
103.156569045774
30
0
0
VERTEX
8
0
10
137.740713792653
20
103.05276369474
30
0
0
VERTEX
8
0
10
138.409358034365
20
102.941626327933
30
0
0
VERTEX
8
0
10
139.078002276077
20
102.821480455565
30
0
0
VERTEX
8
0
10
139.746646517789
20
102.695160336795
30
0
0
VERTEX
8
0
10
140.415290759501
20
102.561507845927
30
0
0
VERTEX
8
0
10
141.083935001213
20
102.422045106546
30
0
0
VERTEX
8
0
10
141.752579242924
20
102.273825454195
30
0
0
VERTEX
8
0
10
142.421223484636
20
102.12057516977
30
0
0
VERTEX
8
0
10
143.089867726348
20
101.959290344516
30
0
0
VERTEX
8
0
10
143.75851196806
20
101.79229208723
30
0
0
VERTEX
8
0
10
144.427156209772
20
101.616250501384
30
0
0
VERTEX
8
0
10
145.095800451484
20
101.437869119995
30
0
0
VERTEX
8
0
10
145.764444693196
20
101.249005743649
30
0
0
VERTEX
8
0
10
146.433088934908
20
101.055449148542
30
0
0
VERTEX
8
0
10
147.10173317662
20
100.856137397703
30
0
0
VERTEX
8
0
10
147.770377418332
20
100.651404342976
30
0
0
VERTEX
8
0
10
148.439021660043
20
100.439299718743
30
0
0
VERTEX
8
0
10
149.107665901755
20
100.221779180237
30
0
0
VERTEX
8
0
10
149.776310143467
20
99.9990949469866
30
0
0
VERTEX
8
0
10
150.444954385179
20
99.7704777033998
30
0
0
VERTEX
8
0
10
151.113598626891
20
99.5364320859051
30
0
0
VERTEX
8
0
10
151.782242868603
20
99.2963019861369
30
0
0
VERTEX
8
0
10
152.450887110315
20
99.0529341572445
30
0
0
VERTEX
8
0
10
153.119531352027
20
98.8013403453661
30
0
0
VERTEX
8
0
10
153.788175593739
20
98.5473797941552
30
0
0
SEQEND
8
0
0
POLYLINE
8
0
62
4
70
0
10
0
20
0
30
0
0
VERTEX
8
0
10
8.69237514225481
20
14.5564272764535
30
0
0
VERTEX
8
0
10
9.36101938396672
20
15.2058576801597
30
0
0
VERTEX
8
0
10
10.0296636256786
20
15.8560511711217
30
0
0
VERTEX
8
0
10
10.6983078673905
20
16.5075929858403
30
0
0
VERTEX
8
0
10
11.3669521091024
20
17.1570522131749
30
0
0
VERTEX
8
0
10
12.0355963508144
20
17.8665877407345
30
0
0
VERTEX
8
0
10
12.7042405925263
20
18.5636002545575
30
0
0
VERTEX
8
0
10
13.3728848342382
20
19.2666638327285
30
0
0
VERTEX
8
0
10
14.0415290759501
20
19.9641979867536
30
0
0
VERTEX
8
0
10
14.710173317662
20
20.6444216452346
30
0
0
VERTEX
8
0
10
15.3788175593739
20
21.3213502115854
30
0
0
VERTEX
8
0
10
16.0474618010858
20
22.002193603674
30
0
0
VERTEX
8
0
10
16.7161060427977
20
22.6829727940773
30
0
0
VERTEX
8
0
10
17.3847502845096
20
23.2714410613252
30
0
0
VERTEX
8
0
10
18.0533945262215
20
23.8780395820239
30
0
0
VERTEX
8
0
10
18.7220387679334
20
24.4845900798196
30
0
0
VERTEX
8
0
10
19.3906830096454
20
25.0922207225272
30
0
0
VERTEX
8
0
10
20.0593272513573
20
25.6845725723338
30
0
0
VERTEX
8
0
10
20.7279714930692
20
26.2859144211268
30
0
0
VERTEX
8
0
10
21.3966157347811
20
26.8814511632289
30
0
0
VERTEX
8
0
10
22.065259976493
20
27.4827025426062
30
0
0
VERTEX
8
0
10
22.7339042182049
20
28.0140363769538
30
0
0
VERTEX
8
0
10
23.4025484599168
20
28.5694051680305
30
0
0
VERTEX
8
0
10
24.0711927016287
20
29.1171747354538
30
0
0
VERTEX
8
0
10
24.7398369433406
20
29.6685684443298
30
0
0
VERTEX
8
0
10
25.4084811850525
20
30.2050573413419
30
0
0
VERTEX
8
0
10
26.0771254267644
20
30.7470481150857
30
0
0
VERTEX
8
0
10
26.7457696684763
20
31.2876984563369
30
0
0
VERTEX
8
0
10
27.4144139101883
20
31.8276544665438
30
0
0
VERTEX
8
0
10
28.0830581519002
20
32.3349996783706
30
0
0
VERTEX
8
0
10
28.7517023936121
20
32.8488344713116
30
0
0
VERTEX
8
0
10
29.420346635324
20
33.3692650427406
30
0
0
VERTEX
8
0
10
30.0889908770359
20
33.8958898687023
30
0
0
VERTEX
8
0
10
30.7576351187478
20
34.4444896318631
30
0
0
VERTEX
8
0
10
31.4262793604597
20
34.9839397907096
30
0
0
VERTEX
8
0
10
32.0949236021716
20
35.531013819169
30
0
0
VERTEX
8
0
10
32.7635678438835
20
36.0551665093944
30
0
0
VERTEX
8
0
10
33.4322120855954
20
36.5714006961797
30
0
0
VERTEX
8
0
10
34.1008563273073
20
37.0855875159481
30
0
0
VERTEX
8
0
10
34.7695005690193
20
37.6001626821143
30
0
0
VERTEX
8
0
10
35.4381448107312
20
38.1309541254014
30
0
0
VERTEX
8
0
10
36.1067890524431
20
38.6693357350658
30
0
0
VERTEX
8
0
10
36.775433294155
20
39.2086844714999
30
0
0
VERTEX
8
0
10
37.4440775358669
20
39.7440210151978
30
0
0
VERTEX
8
0
10
38.1127217775788
20
40.280861447796
30
0
0
VERTEX
8
0
10
38.7813660192907
20
40.8061523985612
30
0
0
VERTEX
8
0
10
39.4500102610026
20
41.3389222124087
30
0
0
VERTEX
8
0
10
40.1186545027145
20
41.8649113700858
30
0
0
VERTEX
8
0
10
40.7872987444264
20
42.3898973108421
30
0
0
VERTEX
8
0
10
41.4559429861383
20
42.9038924891075
30
0
0
VERTEX
8
0
10
42.1245872278503
20
43.4230262328208
30
0
0
VERTEX
8
0
10
42.7932314695622
20
43.9408958457664
30
0
0
VERTEX
8
0
10
43.4618757112741
20
44.4426207310977
30
0
0
VERTEX
8
0
10
44.130519952986
20
44.9394751032723
30
0
0
VERTEX
8
0
10
44.7991641946979
20
45.4370850585554
30
0
0
VERTEX
8
0
10
45.4678084364098
20
45.9345248756589
30
0
0
VERTEX
8
0
10
46.1364526781217
20
46.4396013894528
30
0
0
VERTEX
8
0
10
46.8050969198336
20
46.9556722698205
30
0
0
VERTEX
8
0
10
47.4737411615455
20
47.4641199576824
30
0
0
VERTEX
8
0
10
48.1423854032574
20
47.9796026583378
30
0
0
VERTEX
8
0
10
48.8110296449693
20
48.4710097859252
30
0
0
VERTEX
8
0
10
49.4796738866813
20
48.9691293781556
30
0
0
VERTEX
8
0
10
50.1483181283932
20
49.4578476970374
30
0
0
VERTEX
8
0
10
50.8169623701051
20
49.9510708508549
30
0
0
VERTEX
8
0
10
51.485606611817
20
50.4358845860743
30
0
0
VERTEX
8
0
10
52.1542508535289
20
50.9204169193861
30
0
0
VERTEX
8
0
10
52.8228950952408
20
51.404002519313
30
0
0
VERTEX
8
0
10
53.4915393369527
20
51.8867944166009
30
0
0
VERTEX
8
0
10
54.1601835786646
20
52.3711963421255
30
0
0
VERTEX
8
0
10
54.8288278203765
20
52.8495664172266
30
0
0
VERTEX
8
0
10
55.4974720620884
20
53.3353549432562
30
0
0
VERTEX
8
0
10
56.1661163038003
20
53.8140800204581
30
0
0
VERTEX
8
0
10
56.8347605455123
20
54.3021284816625
30
0
0
VERTEX
8
0
10
57.5034047872242
20
54.7815889992436
30
0
0
VERTEX
8
0
10
58.1720490289361
20
55.2687461382321
30
0
0
VERTEX
8
0
10
58.840693270648
20
55.7494852236044
30
0
0
VERTEX
8
0
10
59.5093375123599
20
56.2514524893181
30
0
0
VERTEX
8
0
10
60.1779817540718
20
56.7508212151412
30
0
0
VERTEX
8
0
10
60.8466259957837
20
57.2513730149878
30
0
0
VERTEX
8
0
10
61.5152702374956
20
57.7517984314004
30
0
0
VERTEX
8
0
10
62.1839144792075
20
58.2663710739705
30
0
0
VERTEX
8
0
10
62.8525587209194
20
58.780188832025
30
0
0
VERTEX
8
0
10
63.5212029626313
20
59.2910592654037
30
0
0
VERTEX
8
0
10
64.1898472043433
20
59.8076460526881
30
0
0
VERTEX
8
0
10
64.8584914460552
20
60.3883528797011
30
0
0
VERTEX
8
0
10
65.5271356877671
20
60.9661303307328
30
0
0
VERTEX
8
0
10
66.195779929479
20
61.5362075950656
30
0
0
VERTEX
8
0
10
66.8644241711909
20
62.1128297427328
30
0
0
VERTEX
8
0
10
67.5330684129028
20
62.7068543742301
30
0
0
VERTEX
8
0
10
68.2017126546147
20
63.3018650427635
30
0
0
VERTEX
8
0
10
68.8703568963266
20
63.8939726291185
30
0
0
VERTEX
8
0
10
69.5390011380385
20
64.4864875694417
30
0
0
VERTEX
8
0
10
70.2076453797504
20
65.1151681511953
30
0
0
VERTEX
8
0
10
70.8762896214623
20
65.7353507518931
30
0
0
VERTEX
8
0
10
71.5449338631742
20
66.3557613370756
30
0
0
VERTEX
8
0
10
72.2135781048862
20
66.9719867513801
30
0
0
VERTEX
8
0
10
72.8822223465981
20
67.5851878458658
30
0
0
VERTEX
8
0
10
73.55086658831
20
68.1926559267609
30
0
0
VERTEX
8
0
10
74.2195108300219
20
68.8073263674464
30
0
0
VERTEX
8
0
10
74.8881550717338
20
69.41570690422
30
0
0
VERTEX
8
0
10
75.5567993134457
20
70.0294968820447
30
0
0
VERTEX
8
0
10
76.2254435551576
20
70.636516949432
30
0
0
VERTEX
8
0
10
76.8940877968695
20
71.2482516053253
30
0
0
VERTEX
8
0
10
77.5627320385814
20
71.8611218462242
30
0
0
VERTEX
8
0
10
78.2313762802933
20
72.5063972066654
30
0
0
VERTEX
8
0
10
78.9000205220052
20
73.1426322174293
30
0
0
VERTEX
8
0
10
79.5686647637172
20
73.7800774749054
30
0
0
VERTEX
8
0
10
80.2373090054291
20
74.4194819561341
30
0
0
VERTEX
8
0
10
80.905953247141
20
75.1003477396421
30
0
0
VERTEX
8
0
10
81.5745974888529
20
75.7739640745709
30
0
0
VERTEX
8
0
10
82.2432417305648
20
76.4434878511475
30
0
0
VERTEX
8
0
10
82.9118859722767
20
77.1095081043282
30
0
0
VERTEX
8
0
10
83.5805302139886
20
77.7614804546231
30
0
0
VERTEX
8
0
10
84.2491744557005
20
78.4213322327129
30
0
0
VERTEX
8
0
10
84.9178186974124
20
79.0748293099281
30
0
0
VERTEX
8
0
10
85.5864629391243
20
79.7358723218251
30
0
0
VERTEX
8
0
10
86.2551071808362
20
80.399026354431
30
0
0
VERTEX
8
0
10
86.9237514225482
20
81.0645822262327
30
0
0
VERTEX
8
0
10
87.5923956642601
20
81.7285616168081
30
0
0
VERTEX
8
0
10
88.261039905972
20
82.3832866879125
30
0
0
VERTEX
8
0
10
88.9296841476839
20
83.0354357004937
30
0
0
VERTEX
8
0
10
89.5983283893958
20
83.6844108619953
30
0
0
VERTEX
8
0
10
90.2669726311077
20
84.3390749305595
30
0
0
VERTEX
8
0
10
90.9356168728196
20
84.9757976853902
30
0
0
VERTEX
8
0
10
91.6042611145315
20
85.6154021429864
30
0
0
VERTEX
8
0
10
92.2729053562434
20
86.2470489062656
30
0
0
VERTEX
8
0
10
92.9415495979553
20
86.8847385382281
30
0
0
VERTEX
8
0
10
93.6101938396672
20
87.4884439589963
30
0
0
VERTEX
8
0
10
94.2788380813791
20
88.0859857798091
30
0
0
VERTEX
8
0
10
94.9474823230911
20
88.6814934356485
30
0
0
VERTEX
8
0
10
95.616126564803
20
89.2771857094845
30
0
0
VERTEX
8
0
10
96.2847708065149
20
89.858166204381
30
0
0
VERTEX
8
0
10
96.9534150482268
20
90.4327863506911
30
0
0
VERTEX
8
0
10
97.6220592899387
20
91.0079319338396
30
0
0
VERTEX
8
0
10
98.2907035316506
20
91.5803650975349
30
0
0
VERTEX
8
0
10
98.9593477733625
20
92.1444016009623
30
0
0
VERTEX
8
0
10
99.6279920150744
20
92.699586188316
30
0
0
VERTEX
8
0
10
100.296636256786
20
93.2595512194298
30
0
0
VERTEX
8
0
10
100.965280498498
20
93.815355145588
30
0
0
VERTEX
8
0
10
101.63392474021
20
94.3603234003013
30
0
0
VERTEX
8
0
10
102.302568981922
20
94.898399006952
30
0
0
VERTEX
8
0
10
102.971213223634
20
95.4397513615656
30
0
0
VERTEX
8
0
10
103.639857465346
20
95.9799283646738
30
0
0
VERTEX
8
0
10
104.308501707058
20
96.4933358497294
30
0
0
VERTEX
8
0
10
104.97714594877
20
97.0054670092694
30
0
0
VERTEX
8
0
10
105.645790190482
20
97.5183973763599
30
0
0
VERTEX
8
0
10
106.314434432194
20
98.0303500527756
30
0
0
VERTEX
8
0
10
106.983078673905
20
98.4766147028942
30
0
0
VERTEX
8
0
10
107.651722915617
20
98.9283448942055
30
0
0
VERTEX
8
0
10
108.320367157329
20
99.3751318207634
30
0
0
VERTEX
8
0
10
108.989011399041
20
99.8251098041425
30
0
0
VERTEX
8
0
10
109.657655640753
20
100.22147503871
30
0
0
VERTEX
8
0
10
110.326299882465
20
100.625815557751
30
0
0
VERTEX
8
0
10
110.994944124177
20
101.024059521167
30
0
0
VERTEX
8
0
10
111.663588365889
20
101.424179580491
30
0
0
VERTEX
8
0
10
112.332232607601
20
101.728631743836
30
0
0
VERTEX
8
0
10
113.000876849313
20
102.042861191137
30
0
0
VERTEX
8
0
10
113.669521091025
20
102.355927213281
30
0
0
VERTEX
8
0
10
114.338165332736
20
102.668090269806
30
0
0
VERTEX
8
0
10
115.006809574448
20
102.94945948841
30
0
0
VERTEX
8
0
10
115.67545381616
20
103.231548009447
30
0
0
VERTEX
8
0
10
116.344098057872
20
103.516650120608
30
0
0
VERTEX
8
0
10
117.012742299584
20
103.798112128995
30
0
0
VERTEX
8
0
10
117.681386541296
20
104.030744834096
30
0
0
VERTEX
8
0
10
118.350030783008
20
104.268038997333
30
0
0
VERTEX
8
0
10
119.01867502472
20
104.508037281274
30
0
0
VERTEX
8
0
10
119.687319266432
20
104.745028969623
30
0
0
VERTEX
8
0
10
120.355963508144
20
104.675138677215
30
0
0
VERTEX
8
0
10
121.024607749856
20
104.669831099676
30
0
0
VERTEX
8
0
10
121.693251991567
20
104.664404364852
30
0
0
VERTEX
8
0
10
122.361896233279
20
104.658118994516
30
0
0
VERTEX
8
0
10
123.030540474991
20
104.589510403514
30
0
0
VERTEX
8
0
10
123.699184716703
20
104.535495513843
30
0
0
VERTEX
8
0
10
124.367828958415
20
104.479985900803
30
0
0
VERTEX
8
0
10
125.036473200127
20
104.425530449757
30
0
0
VERTEX
8
0
10
125.705117441839
20
104.379968044907
30
0
0
VERTEX
8
0
10
126.373761683551
20
104.333332075121
30
0
0
VERTEX
8
0
10
127.042405925263
20
104.283245519646
30
0
0
VERTEX
8
0
10
127.711050166975
20
104.234511408264
30
0
0
VERTEX
8
0
10
128.379694408687
20
104.174356137513
30
0
0
VERTEX
8
0
10
129.048338650398
20
104.118126991578
30
0
0
VERTEX
8
0
10
129.71698289211
20
104.059901944647
30
0
0
VERTEX
8
0
10
130.385627133822
20
104.001088799196
30
0
0
VERTEX
8
0
10
131.054271375534
20
103.930309666986
30
0
0
VERTEX
8
0
10
131.722915617246
20
103.862353983322
30
0
0
VERTEX
8
0
10
132.391559858958
20
103.793578901182
30
0
0
VERTEX
8
0
10
133.06020410067
20
103.70622659632
30
0
0
VERTEX
8
0
10
133.728848342382
20
103.606447200184
30
0
0
VERTEX
8
0
10
134.397492584094
20
103.503292029967
30
0
0
VERTEX
8
0
10
135.066136825806
20
103.401469605222
30
0
0
VERTEX
8
0
10
135.734781067517
20
103.29865067117
30
0
0
VERTEX
8
0
10
136.403425309229
20
103.197937652213
30
0
0
VERTEX
8
0
10
137.072069550941
20
103.094504449001
30
0
0
VERTEX
8
0
10
137.740713792653
20
102.99154907161
30
0
0
VERTEX
8
0
10
138.409358034365
20
102.877903530099
30
0
0
VERTEX
8
0
10
139.078002276077
20
102.757175724744
30
0
0
VERTEX
8
0
10
139.746646517789
20
102.635855705524
30
0
0
VERTEX
8
0
10
140.415290759501
20
102.514124318341
30
0
0
VERTEX
8
0
10
141.083935001213
20
102.406488165702
30
0
0
VERTEX
8
0
10
141.752579242924
20
102.303743266642
30
0
0
VERTEX
8
0
10
142.421223484636
20
102.201875530292
30
0
0
VERTEX
8
0
10
143.089867726348
20
102.09872545985
30
0
0
VERTEX
8
0
10
143.75851196806
20
102.007068333473
30
0
0
VERTEX
8
0
10
144.427156209772
20
101.917505122015
30
0
0
VERTEX
8
0
10
145.095800451484
20
101.828786829999
30
0
0
VERTEX
8
0
10
145.764444693196
20
101.738317819678
30
0
0
VERTEX
8
0
10
146.433088934908
20
101.662408582714
30
0
0
VERTEX
8
0
10
147.10173317662
20
101.589562953507
30
0
0
VERTEX
8
0
10
147.770377418332
20
101.516640532809
30
0
0
VERTEX
8
0
10
148.439021660043
20
101.442662169334
30
0
0
VERTEX
8
0
10
149.107665901755
20
101.364338297222
30
0
0
VERTEX
8
0
10
149.776310143467
20
101.285110511298
30
0
0
VERTEX
8
0
10
150.444954385179
20
101.2048555537
30
0
0
VERTEX
8
0
10
151.113598626891
20
101.124631081807
30
0
0
VERTEX
8
0
10
151.782242868603
20
101.045084457557
30
0
0
VERTEX
8
0
10
152.450887110315
20
100.966300232417
30
0
0
VERTEX
8
0
10
153.119531352027
20
100.88595275448
30
0
0
VERTEX
8
0
10
153.788175593739
20
100.805738165738
30
0
0
SEQEND
8
0
0
POLYLINE
8
0
62
2
70
0
10
0
20
0
30
0
0
VERTEX
8
0
10
8.69237514225481
20
11.5262204402987
30
0
0
VERTEX
8
0
10
9.36101938396672
20
11.9638047177856
30
0
0
VERTEX
8
0
10
10.0296636256786
20
12.9687263676496
30
0
0
VERTEX
8
0
10
10.6983078673905
20
13.1288781150464
30
0
0
VERTEX
8
0
10
11.3669521091024
20
17.082885675838
30
0
0
VERTEX
8
0
10
12.0355963508144
20
14.5172820474053
30
0
0
VERTEX
8
0
10
12.7042405925263
20
17.4055838492813
30
0
0
VERTEX
8
0
10
13.3728848342382
20
16.0039126005283
30
0
0
VERTEX
8
0
10
14.0415290759501
20
18.0030681566388
30
0
0
VERTEX
8
0
10
14.710173317662
20
17.5173469211318
30
0
0
VERTEX
8
0
10
15.3788175593739
20
18.8128727541625
30
0
0
VERTEX
8
0
10
16.0474618010858
20
19.0473722460265
30
0
0
VERTEX
8
0
10
16.7161060427977
20
19.7748750364735
30
0
0
VERTEX
8
0
10
17.3847502845096
20
20.2972148259073
30
0
0
VERTEX
8
0
10
18.0533945262215
20
20.8393576903732
30
0
0
VERTEX
8
0
10
18.7220387679334
20
21.516072368721
30
0
0
VERTEX
8
0
10
19.3906830096454
20
21.9685148371096
30
0
0
VERTEX
8
0
10
20.0593272513573
20
23.6530800777645
30
0
0
VERTEX
8
0
10
20.7279714930692
20
23.1349482236522
30
0
0
VERTEX
8
0
10
21.3966157347811
20
24.4575495188598
30
0
0
VERTEX
8
0
10
22.065259976493
20
24.3193588076884
30
0
0
VERTEX
8
0
10
22.7339042182049
20
25.335297749962
30
0
0
VERTEX
8
0
10
23.4025484599168
20
25.5084019275405
30
0
0
VERTEX
8
0
10
24.0711927016287
20
26.2667788521127
30
0
0
VERTEX
8
0
10
24.7398369433406
20
26.6570994056254
30
0
0
VERTEX
8
0
10
25.4084811850525
20
27.2361431506565
30
0
0
VERTEX
8
0
10
26.0771254267644
20
27.7310772843594
30
0
0
VERTEX
8
0
10
26.7457696684763
20
28.2308499170046
30
0
0
VERTEX
8
0
10
27.4144139101883
20
28.782794087313
30
0
0
VERTEX
8
0
10
28.0830581519002
20
29.2411545984218
30
0
0
VERTEX
8
0
10
28.7517023936121
20
30.2669801622918
30
0
0
VERTEX
8
0
10
29.420346635324
20
30.2595955251571
30
0
0
VERTEX
8
0
10
30.0889908770359
20
31.1115939575195
30
0
0
VERTEX
8
0
10
30.7576351187478
20
31.280535983895
30
0
0
VERTEX
8
0
10
31.4262793604597
20
31.9805152712748
30
0
0
VERTEX
8
0
10
32.0949236021716
20
32.2997795353561
30
0
0
VERTEX
8
0
10
32.7635678438835
20
32.8671414921495
30
0
0
VERTEX
8
0
10
33.4322120855954
20
33.2699472626582
30
0
0
VERTEX
8
0
10
34.1008563273073
20
33.7661240678637
30
0
0
VERTEX
8
0
10
34.7695005690193
20
34.2189087332815
30
0
0
VERTEX
8
0
10
35.4381448107312
20
34.6731844974138
30
0
0
VERTEX
8
0
10
36.1067890524431
20
35.1525987617499
30
0
0
VERTEX
8
0
10
36.775433294155
20
35.5849441776698
30
0
0
VERTEX
8
0
10
37.4440775358669
20
36.3275026303353
30
0
0
VERTEX
8
0
10
38.1127217775788
20
36.4987736553132
30
0
0
VERTEX
8
0
10
38.7813660192907
20
37.1414094239131
30
0
0
VERTEX
8
0
10
39.4500102610026
20
37.4126626400944
30
0
0
VERTEX
8
0
10
40.1186545027145
20
37.9660728631555
30
0
0
VERTEX
8
0
10
40.7872987444264
20
38.3251098810813
30
0
0
VERTEX
8
0
10
41.4559429861383
20
38.7989620097727
30
0
0
VERTEX
8
0
10
42.1245872278503
20
39.1919960111912
30
0
0
VERTEX
8
0
10
42.7932314695622
20
39.6380381950456
30
0
0
VERTEX
8
0
10
43.4618757112741
20
40.0593935584798
30
0
0
VERTEX
8
0
10
44.130519952986
20
40.4816841123015
30
0
0
VERTEX
8
0
10
44.7991641946979
20
40.9178449567623
30
0
0
VERTEX
8
0
10
45.4678084364098
20
41.3286407525972
30
0
0
VERTEX
8
0
10
46.1364526781217
20
41.9265739289599
30
0
0
VERTEX
8
0
10
46.8050969198336
20
42.1779520838277
30
0
0
VERTEX
8
0
10
47.4737411615455
20
42.7128250788712
30
0
0
VERTEX
8
0
10
48.1423854032574
20
43.02891699904
30
0
0
VERTEX
8
0
10
48.8110296449693
20
43.5068124121844
30
0
0
VERTEX
8
0
10
49.4796738866813
20
43.8810478717857
30
0
0
VERTEX
8
0
10
50.1483181283932
20
44.307543717361
30
0
0
VERTEX
8
0
10
50.8169623701051
20
44.6944241507912
30
0
0
VERTEX
8
0
10
51.485606611817
20
45.1142417386191
30
0
0
VERTEX
8
0
10
52.1542508535289
20
45.5196464439027
30
0
0
VERTEX
8
0
10
52.8228950952408
20
45.9263136891449
30
0
0
VERTEX
8
0
10
53.4915393369527
20
46.3415826481756
30
0
0
VERTEX
8
0
10
54.1601835786646
20
46.7433242763914
30
0
0
VERTEX
8
0
10
54.8288278203765
20
47.2651478520184
30
0
0
VERTEX
8
0
10
55.4974720620884
20
47.5649720290207
30
0
0
VERTEX
8
0
10
56.1661163038003
20
48.0451300141425
30
0
0
VERTEX
8
0
10
56.8347605455123
20
48.3910686828256
30
0
0
VERTEX
8
0
10
57.5034047872242
20
48.8333857830672
30
0
0
VERTEX
8
0
10
58.1720490289361
20
49.2215213784972
30
0
0
VERTEX
8
0
10
58.840693270648
20
49.6295462467326
30
0
0
VERTEX
8
0
10
59.5093375123599
20
50.0205090673577
30
0
0
VERTEX
8
0
10
60.1779817540718
20
50.4333420655834
30
0
0
VERTEX
8
0
10
60.8466259957837
20
50.8380491130654
30
0
0
VERTEX
8
0
10
61.5152702374956
20
51.2445902809236
30
0
0
VERTEX
8
0
10
62.1839144792075
20
51.6571024920091
30
0
0
VERTEX
8
0
10
62.8525587209194
20
52.0631831612207
30
0
0
VERTEX
8
0
10
63.5212029626313
20
52.5494106552242
30
0
0
VERTEX
8
0
10
64.1898472043433
20
52.8890790716209
30
0
0
VERTEX
8
0
10
64.8584914460552
20
53.347349155471
30
0
0
VERTEX
8
0
10
65.5271356877671
20
53.7222953850527
30
0
0
VERTEX
8
0
10
66.195779929479
20
54.1552017548294
30
0
0
VERTEX
8
0
10
66.8644241711909
20
54.5629035012928
30
0
0
VERTEX
8
0
10
67.5330684129028
20
54.9728825238551
30
0
0
VERTEX
8
0
10
68.2017126546147
20
55.3789603098406
30
0
0
VERTEX
8
0
10
68.8703568963266
20
55.8003702791897
30
0
0
VERTEX
8
0
10
69.5390011380385
20
56.2178068720515
30
0
0
VERTEX
8
0
10
70.2076453797504
20
56.6377089311923
30
0
0
VERTEX
8
0
10
70.8762896214623
20
57.0622857031652
30
0
0
VERTEX
8
0
10
71.5449338631742
20
57.4850109800937
30
0
0
VERTEX
8
0
10
72.2135781048862
20
57.9626203347402
30
0
0
VERTEX
8
0
10
72.8822223465981
20
58.3424649260487
30
0
0
VERTEX
8
0
10
73.55086658831
20
58.8017817999011
30
0
0
VERTEX
8
0
10
74.2195108300219
20
59.2103477440592
30
0
0
VERTEX
8
0
10
74.8881550717338
20
59.653352724259
30
0
0
VERTEX
8
0
10
75.5567993134457
20
60.0890441826777
30
0
0
VERTEX
8
0
10
76.2254435551576
20
60.5176698607978
30
0
0
VERTEX
8
0
10
76.8940877968695
20
60.9506226536949
30
0
0
VERTEX
8
0
10
77.5627320385814
20
61.3952340620692
30
0
0
VERTEX
8
0
10
78.2313762802933
20
61.8392002210708
30
0
0
VERTEX
8
0
10
78.9000205220052
20
62.2867623820367
30
0
0
VERTEX
8
0
10
79.5686647637172
20
62.7390330154208
30
0
0
VERTEX
8
0
10
80.2373090054291
20
63.1932672330583
30
0
0
VERTEX
8
0
10
80.905953247141
20
63.6865465254632
30
0
0
VERTEX
8
0
10
81.5745974888529
20
64.1161801500349
30
0
0
VERTEX
8
0
10
82.2432417305648
20
64.6006633545766
30
0
0
VERTEX
8
0
10
82.9118859722767
20
65.05755373093
30
0
0
VERTEX
8
0
10
83.5805302139886
20
65.5359402772078
30
0
0
VERTEX
8
0
10
84.2491744557005
20
66.0204113920834
30
0
0
VERTEX
8
0
10
84.9178186974124
20
66.4960339757031
30
0
0
VERTEX
8
0
10
85.5864629391243
20
66.9844976257535
30
0
0
VERTEX
8
0
10
86.2551071808362
20
67.4867952744339
30
0
0
VERTEX
8
0
10
86.9237514225482
20
67.9965858396801
30
0
0
VERTEX
8
0
10
87.5923956642601
20
68.5184446684351
30
0
0
VERTEX
8
0
10
88.261039905972
20
69.055544007486
30
0
0
VERTEX
8
0
10
88.9296841476839
20
69.6119994762307
30
0
0
VERTEX
8
0
10
89.5983283893958
20
70.2195547233758
30
0
0
VERTEX
8
0
10
90.2669726311077
20
70.8245591228009
30
0
0
VERTEX
8
0
10
90.9356168728196
20
71.4961699537819
30
0
0
VERTEX
8
0
10
91.6042611145315
20
72.1109648690504
30
0
0
VERTEX
8
0
10
92.2729053562434
20
72.6765065379092
30
0
0
VERTEX
8
0
10
92.9415495979553
20
73.2090616151786
30
0
0
VERTEX
8
0
10
93.6101938396672
20
73.6957050920211
30
0
0
VERTEX
8
0
10
94.2788380813791
20
74.1667600803219
30
0
0
VERTEX
8
0
10
94.9474823230911
20
74.6215567247526
30
0
0
VERTEX
8
0
10
95.616126564803
20
75.0581055721841
30
0
0
VERTEX
8
0
10
96.2847708065149
20
75.4796473733271
30
0
0
VERTEX
8
0
10
96.9534150482268
20
75.8872941414747
30
0
0
VERTEX
8
0
10
97.6220592899387
20
76.2827721475472
30
0
0
VERTEX
8
0
10
98.2907035316506
20
76.6800484644869
30
0
0
VERTEX
8
0
10
98.9593477733625
20
77.0386047914824
30
0
0
VERTEX
8
0
10
99.6279920150744
20
77.4047650112898
30
0
0
VERTEX
8
0
10
100.296636256786
20
77.7522685976768
30
0
0
VERTEX
8
0
10
100.965280498498
20
78.0901930904551
30
0
0
VERTEX
8
0
10
101.63392474021
20
78.427461159397
30
0
0
VERTEX
8
0
10
102.302568981922
20
78.7394915133019
30
0
0
VERTEX
8
0
10
102.971213223634
20
79.0506387236828
30
0
0
VERTEX
8
0
10
103.639857465346
20
79.3551818491305
30
0
0
VERTEX
8
0
10
104.308501707058
20
79.6511123943044
30
0
0
VERTEX
8
0
10
104.97714594877
20
79.9394427935921
30
0
0
VERTEX
8
0
10
105.645790190482
20
80.2199982550402
30
0
0
VERTEX
8
0
10
106.314434432194
20
80.4943511096758
30
0
0
VERTEX
8
0
10
106.983078673905
20
80.769714969906
30
0
0
VERTEX
8
0
10
107.651722915617
20
81.0221461220797
30
0
0
VERTEX
8
0
10
108.320367157329
20
81.2782135462592
30
0
0
VERTEX
8
0
10
108.989011399041
20
81.5256330328716
30
0
0
VERTEX
8
0
10
109.657655640753
20
81.7648986080668
30
0
0
VERTEX
8
0
10
110.326299882465
20
82.0090208632321
30
0
0
VERTEX
8
0
10
110.994944124177
20
82.2353331199413
30
0
0
VERTEX
8
0
10
111.663588365889
20
82.4674161068276
30
0
0
VERTEX
8
0
10
112.332232607601
20
82.7017538984649
30
0
0
VERTEX
8
0
10
113.000876849313
20
82.9409579934292
30
0
0
VERTEX
8
0
10
113.669521091025
20
83.1798310343089
30
0
0
VERTEX
8
0
10
114.338165332736
20
83.396947464378
30
0
0
VERTEX
8
0
10
115.006809574448
20
83.5875607172909
30
0
0
VERTEX
8
0
10
115.67545381616
20
83.759395664703
30
0
0
VERTEX
8
0
10
116.344098057872
20
83.9031247957084
30
0
0
VERTEX
8
0
10
117.012742299584
20
84.0349014364888
30
0
0
VERTEX
8
0
10
117.681386541296
20
84.1519729245437
30
0
0
VERTEX
8
0
10
118.350030783008
20
84.2511457347206
30
0
0
VERTEX
8
0
10
119.01867502472
20
84.3458993362409
30
0
0
VERTEX
8
0
10
119.687319266432
20
84.416604206802
30
0
0
VERTEX
8
0
10
120.355963508144
20
84.4818916378974
30
0
0
VERTEX
8
0
10
121.024607749856
20
84.5364123824523
30
0
0
VERTEX
8
0
10
121.693251991567
20
84.5803415894808
30
0
0
VERTEX
8
0
10
122.361896233279
20
84.614100213742
30
0
0
VERTEX
8
0
10
123.030540474991
20
84.6375316000065
30
0
0
VERTEX
8
0
10
123.699184716703
20
84.6522876048879
30
0
0
VERTEX
8
0
10
124.367828958415
20
84.6594974365698
30
0
0
VERTEX
8
0
10
125.036473200127
20
84.6530227618273
30
0
0
VERTEX
8
0
10
125.705117441839
20
84.6391053304429
30
0
0
VERTEX
8
0
10
126.373761683551
20
84.6179689794245
30
0
0
VERTEX
8
0
10
127.042405925263
20
84.5840241080406
30
0
0
VERTEX
8
0
10
127.711050166975
20
84.5485174131545
30
0
0
VERTEX
8
0
10
128.379694408687
20
84.495511164616
30
0
0
VERTEX
8
0
10
129.048338650398
20
84.4391084787584
30
0
0
VERTEX
8
0
10
129.71698289211
20
84.3746534251218
30
0
0
VERTEX
8
0
10
130.385627133822
20
84.3023989734182
30
0
0
VERTEX
8
0
10
131.054271375534
20
84.2224088467364
30
0
0
VERTEX
8
0
10
131.722915617246
20
84.1344078239718
30
0
0
VERTEX
8
0
10
132.391559858958
20
84.0396365522613
30
0
0
VERTEX
8
0
10
133.06020410067
20
83.9380063908248
30
0
0
VERTEX
8
0
10
133.728848342382
20
83.8271195132753
30
0
0
VERTEX
8
0
10
134.397492584094
20
83.7089812131372
30
0
0
VERTEX
8
0
10
135.066136825806
20
83.5855822001478
30
0
0
VERTEX
8
0
10
135.734781067517
20
83.4515505723702
30
0
0
VERTEX
8
0
10
136.403425309229
20
83.3157047543827
30
0
0
VERTEX
8
0
10
137.072069550941
20
83.1663575294266
30
0
0
VERTEX
8
0
10
137.740713792653
20
83.0136305606416
30
0
0
VERTEX
8
0
10
138.409358034365
20
82.8540187707948
30
0
0
VERTEX
8
0
10
139.078002276077
20
82.6878576736295
30
0
0
VERTEX
8
0
10
139.746646517789
20
82.5151339020887
30
0
0
VERTEX
8
0
10
140.415290759501
20
82.3356419084845
30
0
0
VERTEX
8
0
10
141.083935001213
20
82.1502937717033
30
0
0
VERTEX
8
0
10
141.752579242924
20
81.9585971769592
30
0
0
VERTEX
8
0
10
142.421223484636
20
81.7600881671461
30
0
0
VERTEX
8
0
10
143.089867726348
20
81.5548284111802
30
0
0
VERTEX
8
0
10
143.75851196806
20
81.3451131582133
30
0
0
VERTEX
8
0
10
144.427156209772
20
81.1267843510029
30
0
0
VERTEX
8
0
10
145.095800451484
20
80.9059783170068
30
0
0
VERTEX
8
0
10
145.764444693196
20
80.6750688626463
30
0
0
VERTEX
8
0
10
146.433088934908
20
80.4406112480087
30
0
0
VERTEX
8
0
10
147.10173317662
20
80.2003109666145
30
0
0
VERTEX
8
0
10
147.770377418332
20
79.9544965152302
30
0
0
VERTEX
8
0
10
148.439021660043
20
79.703172577186
30
0
0
VERTEX
8
0
10
149.107665901755
20
79.446252514792
30
0
0
VERTEX
8
0
10
149.776310143467
20
79.1843568233049
30
0
0
VERTEX
8
0
10
150.444954385179
20
78.9170403796082
30
0
0
VERTEX
8
0
10
151.113598626891
20
78.6446171706467
30
0
0
VERTEX
8
0
10
151.782242868603
20
78.3665957911251
30
0
0
VERTEX
8
0
10
152.450887110315
20
78.0847675961736
30
0
0
VERTEX
8
0
10
153.119531352027
20
77.7966031641347
30
0
0
VERTEX
8
0
10
153.788175593739
20
77.5056941143323
30
0
0
SEQEND
8
0
0
POLYLINE
8
0
62
3
70
0
10
0
20
0
30
0
0
VERTEX
8
0
10
8.69237514225481
20
12.1553915870968
30
0
0
VERTEX
8
0
10
9.36101938396672
20
12.663304662946
30
0
0
VERTEX
8
0
10
10.0296636256786
20
13.7072432104565
30
0
0
VERTEX
8
0
10
10.6983078673905
20
13.9544442281153
30
0
0
VERTEX
8
0
10
11.3669521091024
20
17.8016993765262
30
0
0
VERTEX
8
0
10
12.0355963508144
20
15.4553856164364
30
0
0
VERTEX
8
0
10
12.7042405925263
20
18.2777035844958
30
0
0
VERTEX
8
0
10
13.3728848342382
20
17.0473610902981
30
0
0
VERTEX
8
0
10
14.0415290759501
20
19.0231242290376
30
0
0
VERTEX
8
0
10
14.710173317662
20
18.6631086233518
30
0
0
VERTEX
8
0
10
15.3788175593739
20
19.9732761189434
30
0
0
VERTEX
8
0
10
16.0474618010858
20
20.2895869962576
30
0
0
VERTEX
8
0
10
16.7161060427977
20
21.0681803894306
30
0
0
VERTEX
8
0
10
17.3847502845096
20
21.6545314890211
30
0
0
VERTEX
8
0
10
18.0533945262215
20
22.2593527991878
30
0
0
VERTEX
8
0
10
18.7220387679334
20
22.9893598566226
30
0
0
VERTEX
8
0
10
19.3906830096454
20
23.5104653501195
30
0
0
VERTEX
8
0
10
20.0593272513573
20
25.1811775427501
30
0
0
VERTEX
8
0
10
20.7279714930692
20
24.7954491280171
30
0
0
VERTEX
8
0
10
21.3966157347811
20
26.124719909778
30
0
0
VERTEX
8
0
10
22.065259976493
20
26.0960660048018
30
0
0
VERTEX
8
0
10
22.7339042182049
20
27.1372276714847
30
0
0
VERTEX
8
0
10
23.4025484599168
20
27.3997676817838
30
0
0
VERTEX
8
0
10
24.0711927016287
20
28.1996893063176
30
0
0
VERTEX
8
0
10
24.7398369433406
20
28.6611476442906
30
0
0
VERTEX
8
0
10
25.4084811850525
20
29.2968548954487
30
0
0
VERTEX
8
0
10
26.0771254267644
20
29.8546740574369
30
0
0
VERTEX
8
0
10
26.7457696684763
20
30.4167592435447
30
0
0
VERTEX
8
0
10
27.4144139101883
20
31.0263960924094
30
0
0
VERTEX
8
0
10
28.0830581519002
20
31.5501669201452
30
0
0
VERTEX
8
0
10
28.7517023936121
20
32.5956562268256
30
0
0
VERTEX
8
0
10
29.420346635324
20
32.6900449251116
30
0
0
VERTEX
8
0
10
30.0889908770359
20
33.573112719732
30
0
0
VERTEX
8
0
10
30.7576351187478
20
33.8311056324728
30
0
0
VERTEX
8
0
10
31.4262793604597
20
34.5724584227019
30
0
0
VERTEX
8
0
10
32.0949236021716
20
34.9694298207405
30
0
0
VERTEX
8
0
10
32.7635678438835
20
35.5873908282619
30
0
0
VERTEX
8
0
10
33.4322120855954
20
36.0577424621989
30
0
0
VERTEX
8
0
10
34.1008563273073
20
36.6128350084925
30
0
0
VERTEX
8
0
10
34.7695005690193
20
37.1282325620956
30
0
0
VERTEX
8
0
10
35.4381448107312
20
37.6447524353613
30
0
0
VERTEX
8
0
10
36.1067890524431
20
38.1835462976766
30
0
0
VERTEX
8
0
10
36.775433294155
20
38.6799688261626
30
0
0
VERTEX
8
0
10
37.4440775358669
20
39.4571383604347
30
0
0
VERTEX
8
0
10
38.1127217775788
20
39.7160244006241
30
0
0
VERTEX
8
0
10
38.7813660192907
20
40.4004014260474
30
0
0
VERTEX
8
0
10
39.4500102610026
20
40.7510464859324
30
0
0
VERTEX
8
0
10
40.1186545027145
20
41.3526884750496
30
0
0
VERTEX
8
0
10
40.7872987444264
20
41.7836426847113
30
0
0
VERTEX
8
0
10
41.4559429861383
20
42.3116051610894
30
0
0
VERTEX
8
0
10
42.1245872278503
20
42.7698530167274
30
0
0
VERTEX
8
0
10
42.7932314695622
20
43.2752305270951
30
0
0
VERTEX
8
0
10
43.4618757112741
20
43.7583362841399
30
0
0
VERTEX
8
0
10
44.130519952986
20
44.2420460876249
30
0
0
VERTEX
8
0
10
44.7991641946979
20
44.73757416943
30
0
0
VERTEX
8
0
10
45.4678084364098
20
45.2108735689266
30
0
0
VERTEX
8
0
10
46.1364526781217
20
45.8505109223128
30
0
0
VERTEX
8
0
10
46.8050969198336
20
46.1808208563523
30
0
0
VERTEX
8
0
10
47.4737411615455
20
46.7621244088216
30
0
0
VERTEX
8
0
10
48.1423854032574
20
47.1512354391552
30
0
0
VERTEX
8
0
10
48.8110296449693
20
47.6798736837411
30
0
0
VERTEX
8
0
10
49.4796738866813
20
48.1216645373418
30
0
0
VERTEX
8
0
10
50.1483181283932
20
48.6028196743142
30
0
0
VERTEX
8
0
10
50.8169623701051
20
49.0522421821296
30
0
0
VERTEX
8
0
10
51.485606611817
20
49.5302275236965
30
0
0
VERTEX
8
0
10
52.1542508535289
20
49.9954324213038
30
0
0
VERTEX
8
0
10
52.8228950952408
20
50.4615366920942
30
0
0
VERTEX
8
0
10
53.4915393369527
20
50.9346059736127
30
0
0
VERTEX
8
0
10
54.1601835786646
20
51.3963347174147
30
0
0
VERTEX
8
0
10
54.8288278203765
20
51.9625536299361
30
0
0
VERTEX
8
0
10
55.4974720620884
20
52.3343343453212
30
0
0
VERTEX
8
0
10
56.1661163038003
20
52.8620531949616
30
0
0
VERTEX
8
0
10
56.8347605455123
20
53.275353729665
30
0
0
VERTEX
8
0
10
57.5034047872242
20
53.7681038276311
30
0
0
VERTEX
8
0
10
58.1720490289361
20
54.219299416667
30
0
0
VERTEX
8
0
10
58.840693270648
20
54.6803479686027
30
0
0
VERTEX
8
0
10
59.5093375123599
20
55.130234775168
30
0
0
VERTEX
8
0
10
60.1779817540718
20
55.5985216873056
30
0
0
VERTEX
8
0
10
60.8466259957837
20
56.0597776200624
30
0
0
VERTEX
8
0
10
61.5152702374956
20
56.5224418354184
30
0
0
VERTEX
8
0
10
62.1839144792075
20
56.9896613224712
30
0
0
VERTEX
8
0
10
62.8525587209194
20
57.4519952190463
30
0
0
VERTEX
8
0
10
63.5212029626313
20
57.9822915955955
30
0
0
VERTEX
8
0
10
64.1898472043433
20
58.3871297431592
30
0
0
VERTEX
8
0
10
64.8584914460552
20
58.891513102382
30
0
0
VERTEX
8
0
10
65.5271356877671
20
59.3278475182359
30
0
0
VERTEX
8
0
10
66.195779929479
20
59.8086886881655
30
0
0
VERTEX
8
0
10
66.8644241711909
20
60.2741999679172
30
0
0
VERTEX
8
0
10
67.5330684129028
20
60.7337200702771
30
0
0
VERTEX
8
0
10
68.2017126546147
20
61.1939244730475
30
0
0
VERTEX
8
0
10
68.8703568963266
20
61.6665687475933
30
0
0
VERTEX
8
0
10
69.5390011380385
20
62.1359324318823
30
0
0
VERTEX
8
0
10
70.2076453797504
20
62.6072559173185
30
0
0
VERTEX
8
0
10
70.8762896214623
20
63.0819490847346
30
0
0
VERTEX
8
0
10
71.5449338631742
20
63.5558653184114
30
0
0
VERTEX
8
0
10
72.2135781048862
20
64.0748455066201
30
0
0
VERTEX
8
0
10
72.8822223465981
20
64.5125496859582
30
0
0
VERTEX
8
0
10
73.55086658831
20
65.0143955314759
30
0
0
VERTEX
8
0
10
74.2195108300219
20
65.4775418540091
30
0
0
VERTEX
8
0
10
74.8881550717338
20
65.9640452401464
30
0
0
VERTEX
8
0
10
75.5567993134457
20
66.4511720996005
30
0
0
VERTEX
8
0
10
76.2254435551576
20
66.9240777052613
30
0
0
VERTEX
8
0
10
76.8940877968695
20
67.4049430260878
30
0
0
VERTEX
8
0
10
77.5627320385814
20
67.8949249734354
30
0
0
VERTEX
8
0
10
78.2313762802933
20
68.3845935080807
30
0
0
VERTEX
8
0
10
78.9000205220052
20
68.8772152102007
30
0
0
VERTEX
8
0
10
79.5686647637172
20
69.3732290979782
30
0
0
VERTEX
8
0
10
80.2373090054291
20
69.8718444845111
30
0
0
VERTEX
8
0
10
80.905953247141
20
70.4013281058713
30
0
0
VERTEX
8
0
10
81.5745974888529
20
70.8800891561931
30
0
0
VERTEX
8
0
10
82.2432417305648
20
71.4009894312156
30
0
0
VERTEX
8
0
10
82.9118859722767
20
71.9037894010307
30
0
0
VERTEX
8
0
10
83.5805302139886
20
72.4185392909575
30
0
0
VERTEX
8
0
10
84.2491744557005
20
72.9456672181889
30
0
0
VERTEX
8
0
10
84.9178186974124
20
73.4572731890119
30
0
0
VERTEX
8
0
10
85.5864629391243
20
73.9843151755033
30
0
0
VERTEX
8
0
10
86.2551071808362
20
74.522481004904
30
0
0
VERTEX
8
0
10
86.9237514225482
20
75.0676486558589
30
0
0
VERTEX
8
0
10
87.5923956642601
20
75.6234252879341
30
0
0
VERTEX
8
0
10
88.261039905972
20
76.1921575125432
30
0
0
VERTEX
8
0
10
88.9296841476839
20
76.7791852261646
30
0
0
VERTEX
8
0
10
89.5983283893958
20
77.4083460917542
30
0
0
VERTEX
8
0
10
90.2669726311077
20
78.0416411833121
30
0
0
VERTEX
8
0
10
90.9356168728196
20
78.7283083153578
30
0
0
VERTEX
8
0
10
91.6042611145315
20
79.3694817132655
30
0
0
VERTEX
8
0
10
92.2729053562434
20
79.9585156015026
30
0
0
VERTEX
8
0
10
92.9415495979553
20
80.5233601112677
30
0
0
VERTEX
8
0
10
93.6101938396672
20
81.0391138785734
30
0
0
VERTEX
8
0
10
94.2788380813791
20
81.5436199946435
30
0
0
VERTEX
8
0
10
94.9474823230911
20
82.0315454165147
30
0
0
VERTEX
8
0
10
95.616126564803
20
82.5025263468351
30
0
0
VERTEX
8
0
10
96.2847708065149
20
82.9590237835822
30
0
0
VERTEX
8
0
10
96.9534150482268
20
83.4015817064367
30
0
0
VERTEX
8
0
10
97.6220592899387
20
83.8331662865628
30
0
0
VERTEX
8
0
10
98.2907035316506
20
84.2621774845769
30
0
0
VERTEX
8
0
10
98.9593477733625
20
84.6609465592096
30
0
0
VERTEX
8
0
10
99.6279920150744
20
85.0600217557258
30
0
0
VERTEX
8
0
10
100.296636256786
20
85.4470252708611
30
0
0
VERTEX
8
0
10
100.965280498498
20
85.8187879695727
30
0
0
VERTEX
8
0
10
101.63392474021
20
86.1947699614962
30
0
0
VERTEX
8
0
10
102.302568981922
20
86.5413557690921
30
0
0
VERTEX
8
0
10
102.971213223634
20
86.8895244319342
30
0
0
VERTEX
8
0
10
103.639857465346
20
87.2300264419956
30
0
0
VERTEX
8
0
10
104.308501707058
20
87.5622791562998
30
0
0
VERTEX
8
0
10
104.97714594877
20
87.8867901706037
30
0
0
VERTEX
8
0
10
105.645790190482
20
88.2030044887089
30
0
0
VERTEX
8
0
10
106.314434432194
20
88.5135448148713
30
0
0
VERTEX
8
0
10
106.983078673905
20
88.8212997879497
30
0
0
VERTEX
8
0
10
107.651722915617
20
89.1123360694949
30
0
0
VERTEX
8
0
10
108.320367157329
20
89.4009398340158
30
0
0
VERTEX
8
0
10
108.989011399041
20
89.6857236182273
30
0
0
VERTEX
8
0
10
109.657655640753
20
89.9574523575283
30
0
0
VERTEX
8
0
10
110.326299882465
20
90.237541855024
30
0
0
VERTEX
8
0
10
110.994944124177
20
90.4959007392436
30
0
0
VERTEX
8
0
10
111.663588365889
20
90.7613899298225
30
0
0
VERTEX
8
0
10
112.332232607601
20
91.0274067959318
30
0
0
VERTEX
8
0
10
113.000876849313
20
91.29736021965
30
0
0
VERTEX
8
0
10
113.669521091025
20
91.5661408684349
30
0
0
VERTEX
8
0
10
114.338165332736
20
91.8138836718678
30
0
0
VERTEX
8
0
10
115.006809574448
20
92.0372298202547
30
0
0
VERTEX
8
0
10
115.67545381616
20
92.2401878827896
30
0
0
VERTEX
8
0
10
116.344098057872
20
92.420716399257
30
0
0
VERTEX
8
0
10
117.012742299584
20
92.5854480749564
30
0
0
VERTEX
8
0
10
117.681386541296
20
92.7398241713845
30
0
0
VERTEX
8
0
10
118.350030783008
20
92.8731606427287
30
0
0
VERTEX
8
0
10
119.01867502472
20
93.0053787604896
30
0
0
VERTEX
8
0
10
119.687319266432
20
93.1111346656918
30
0
0
VERTEX
8
0
10
120.355963508144
20
93.2132326334058
30
0
0
VERTEX
8
0
10
121.024607749856
20
93.3041414079003
30
0
0
VERTEX
8
0
10
121.693251991567
20
93.3848537705798
30
0
0
VERTEX
8
0
10
122.361896233279
20
93.4554913779456
30
0
0
VERTEX
8
0
10
123.030540474991
20
93.5156729398596
30
0
0
VERTEX
8
0
10
123.699184716703
20
93.5676670960838
30
0
0
VERTEX
8
0
10
124.367828958415
20
93.6101899822645
30
0
0
VERTEX
8
0
10
125.036473200127
20
93.642631157747
30
0
0
VERTEX
8
0
10
125.705117441839
20
93.6644754755649
30
0
0
VERTEX
8
0
10
126.373761683551
20
93.681996477122
30
0
0
VERTEX
8
0
10
127.042405925263
20
93.6842149726102
30
0
0
VERTEX
8
0
10
127.711050166975
20
93.6871292044906
30
0
0
VERTEX
8
0
10
128.379694408687
20
93.6706530497509
30
0
0
VERTEX
8
0
10
129.048338650398
20
93.6519759194099
30
0
0
VERTEX
8
0
10
129.71698289211
20
93.6248804642033
30
0
0
VERTEX
8
0
10
130.385627133822
20
93.5902237515756
30
0
0
VERTEX
8
0
10
131.054271375534
20
93.5478722114846
30
0
0
VERTEX
8
0
10
131.722915617246
20
93.4974058141478
30
0
0
VERTEX
8
0
10
132.391559858958
20
93.440515220357
30
0
0
VERTEX
8
0
10
133.06020410067
20
93.3754367754967
30
0
0
VERTEX
8
0
10
133.728848342382
20
93.3036292512964
30
0
0
VERTEX
8
0
10
134.397492584094
20
93.2224144390138
30
0
0
VERTEX
8
0
10
135.066136825806
20
93.1379831978208
30
0
0
VERTEX
8
0
10
135.734781067517
20
93.0412473532003
30
0
0
VERTEX
8
0
10
136.403425309229
20
92.9443082054868
30
0
0
VERTEX
8
0
10
137.072069550941
20
92.8326338683357
30
0
0
VERTEX
8
0
10
137.740713792653
20
92.7184686022684
30
0
0
VERTEX
8
0
10
138.409358034365
20
92.5972512327799
30
0
0
VERTEX
8
0
10
139.078002276077
20
92.4697296000712
30
0
0
VERTEX
8
0
10
139.746646517789
20
92.335764221605
30
0
0
VERTEX
8
0
10
140.415290759501
20
92.1950609486396
30
0
0
VERTEX
8
0
10
141.083935001213
20
92.0488328559176
30
0
0
VERTEX
8
0
10
141.752579242924
20
91.895511699194
30
0
0
VERTEX
8
0
10
142.421223484636
20
91.7371195197476
30
0
0
VERTEX
8
0
10
143.089867726348
20
91.5707240058658
30
0
0
VERTEX
8
0
10
143.75851196806
20
91.4012957176343
30
0
0
VERTEX
8
0
10
144.427156209772
20
91.2223395680923
30
0
0
VERTEX
8
0
10
145.095800451484
20
91.0420486740899
30
0
0
VERTEX
8
0
10
145.764444693196
20
90.851041761746
30
0
0
VERTEX
8
0
10
146.433088934908
20
90.6571834833215
30
0
0
VERTEX
8
0
10
147.10173317662
20
90.4575402379819
30
0
0
VERTEX
8
0
10
147.770377418332
20
90.2526937770704
30
0
0
VERTEX
8
0
10
148.439021660043
20
90.0425778309052
30
0
0
VERTEX
8
0
10
149.107665901755
20
89.8270600771378
30
0
0
VERTEX
8
0
10
149.776310143467
20
89.6069378999093
30
0
0
VERTEX
8
0
10
150.444954385179
20
89.3811668223028
30
0
0
VERTEX
8
0
10
151.113598626891
20
89.1514522844627
30
0
0
VERTEX
8
0
10
151.782242868603
20
88.9156495038818
30
0
0
VERTEX
8
0
10
152.450887110315
20
88.6770100723346
30
0
0
VERTEX
8
0
10
153.119531352027
20
88.4317583939323
30
0
0
VERTEX
8
0
10
153.788175593739
20
88.1845674188492
30
0
0
SEQEND
8
0
0
POLYLINE
8
0
62
4
70
0
10
0
20
0
30
0
0
VERTEX
8
0
10
8.69237514225481
20
14.3943872322271
30
0
0
VERTEX
8
0
10
9.36101938396672
20
15.024193722213
30
0
0
VERTEX
8
0
10
10.0296636256786
20
15.6542863024023
30
0
0
VERTEX
8
0
10
10.6983078673905
20
16.2857773638157
30
0
0
VERTEX
8
0
10
11.3669521091024
20
16.9147741978938
30
0
0
VERTEX
8
0
10
12.0355963508144
20
17.6032709207724
30
0
0
VERTEX
8
0
10
12.7042405925263
20
18.2797673666043
30
0
0
VERTEX
8
0
10
13.3728848342382
20
18.9621533335879
30
0
0
VERTEX
8
0
10
14.0415290759501
20
19.6383542564566
30
0
0
VERTEX
8
0
10
14.710173317662
20
20.2991530984723
30
0
0
VERTEX
8
0
10
15.3788175593739
20
20.9566148508782
30
0
0
VERTEX
8
0
10
16.0474618010858
20
21.61791859261
30
0
0
VERTEX
8
0
10
16.7161060427977
20
22.2781496803627
30
0
0
VERTEX
8
0
10
17.3847502845096
20
22.8510411359355
30
0
0
VERTEX
8
0
10
18.0533945262215
20
23.4411738926999
30
0
0
VERTEX
8
0
10
18.7220387679334
20
24.0307336123467
30
0
0
VERTEX
8
0
10
19.3906830096454
20
24.6213153973717
30
0
0
VERTEX
8
0
10
20.0593272513573
20
25.2012030192036
30
0
0
VERTEX
8
0
10
20.7279714930692
20
25.7891824240703
30
0
0
VERTEX
8
0
10
21.3966157347811
20
26.3701578425097
30
0
0
VERTEX
8
0
10
22.065259976493
20
26.9580800284028
30
0
0
VERTEX
8
0
10
22.7339042182049
20
27.4757690846013
30
0
0
VERTEX
8
0
10
23.4025484599168
20
28.0171058014442
30
0
0
VERTEX
8
0
10
24.0711927016287
20
28.550636709249
30
0
0
VERTEX
8
0
10
24.7398369433406
20
29.0884531905658
30
0
0
VERTEX
8
0
10
25.4084811850525
20
29.6069713568946
30
0
0
VERTEX
8
0
10
26.0771254267644
20
30.1310768001699
30
0
0
VERTEX
8
0
10
26.7457696684763
20
30.655030397806
30
0
0
VERTEX
8
0
10
27.4144139101883
20
31.1782221622492
30
0
0
VERTEX
8
0
10
28.0830581519002
20
31.6577320838717
30
0
0
VERTEX
8
0
10
28.7517023936121
20
32.1467377825204
30
0
0
VERTEX
8
0
10
29.420346635324
20
32.6430161802874
30
0
0
VERTEX
8
0
10
30.0889908770359
20
33.1470374516108
30
0
0
VERTEX
8
0
10
30.7576351187478
20
33.6737675345956
30
0
0
VERTEX
8
0
10
31.4262793604597
20
34.1924123713495
30
0
0
VERTEX
8
0
10
32.0949236021716
20
34.7187964302096
30
0
0
VERTEX
8
0
10
32.7635678438835
20
35.2240654431397
30
0
0
VERTEX
8
0
10
33.4322120855954
20
35.7235827310564
30
0
0
VERTEX
8
0
10
34.1008563273073
20
36.2216781230953
30
0
0
VERTEX
8
0
10
34.7695005690193
20
36.7201399877013
30
0
0
VERTEX
8
0
10
35.4381448107312
20
37.2322822739461
30
0
0
VERTEX
8
0
10
36.1067890524431
20
37.7524963816916
30
0
0
VERTEX
8
0
10
36.775433294155
20
38.2736702100544
30
0
0
VERTEX
8
0
10
37.4440775358669
20
38.7900871541048
30
0
0
VERTEX
8
0
10
38.1127217775788
20
39.3089215479091
30
0
0
VERTEX
8
0
10
38.7813660192907
20
39.8170781941822
30
0
0
VERTEX
8
0
10
39.4500102610026
20
40.3328730739064
30
0
0
VERTEX
8
0
10
40.1186545027145
20
40.8403867371381
30
0
0
VERTEX
8
0
10
40.7872987444264
20
41.3394802323607
30
0
0
VERTEX
8
0
10
41.4559429861383
20
41.8235890727024
30
0
0
VERTEX
8
0
10
42.1245872278503
20
42.3121349119449
30
0
0
VERTEX
8
0
10
42.7932314695622
20
42.7992051768741
30
0
0
VERTEX
8
0
10
43.4618757112741
20
43.2673093881832
30
0
0
VERTEX
8
0
10
44.130519952986
20
43.7292275605336
30
0
0
VERTEX
8
0
10
44.7991641946979
20
44.1902859874836
30
0
0
VERTEX
8
0
10
45.4678084364098
20
44.6523446219516
30
0
0
VERTEX
8
0
10
46.1364526781217
20
45.1199186536
30
0
0
VERTEX
8
0
10
46.8050969198336
20
45.5973656946415
30
0
0
VERTEX
8
0
10
47.4737411615455
20
46.0666621726647
30
0
0
VERTEX
8
0
10
48.1423854032574
20
46.5436632685573
30
0
0
VERTEX
8
0
10
48.8110296449693
20
46.9992612376079
30
0
0
VERTEX
8
0
10
49.4796738866813
20
47.4607293239019
30
0
0
VERTEX
8
0
10
50.1483181283932
20
47.9137826465876
30
0
0
VERTEX
8
0
10
50.8169623701051
20
48.3712809081025
30
0
0
VERTEX
8
0
10
51.485606611817
20
48.8319332866171
30
0
0
VERTEX
8
0
10
52.1542508535289
20
49.2933395912253
30
0
0
VERTEX
8
0
10
52.8228950952408
20
49.7544906687427
30
0
0
VERTEX
8
0
10
53.4915393369527
20
50.2147675987274
30
0
0
VERTEX
8
0
10
54.1601835786646
20
50.6687095228578
30
0
0
VERTEX
8
0
10
54.8288278203765
20
51.1176672297768
30
0
0
VERTEX
8
0
10
55.4974720620884
20
51.5741919341022
30
0
0
VERTEX
8
0
10
56.1661163038003
20
52.0225903011747
30
0
0
VERTEX
8
0
10
56.8347605455123
20
52.4735349276003
30
0
0
VERTEX
8
0
10
57.5034047872242
20
52.9163717517513
30
0
0
VERTEX
8
0
10
58.1720490289361
20
53.3669918204218
30
0
0
VERTEX
8
0
10
58.840693270648
20
53.8092780420855
30
0
0
VERTEX
8
0
10
59.5093375123599
20
54.2774954201897
30
0
0
VERTEX
8
0
10
60.1779817540718
20
54.7427032050069
30
0
0
VERTEX
8
0
10
60.8466259957837
20
55.2082525678158
30
0
0
VERTEX
8
0
10
61.5152702374956
20
55.6735378651676
30
0
0
VERTEX
8
0
10
62.1839144792075
20
56.1548668398382
30
0
0
VERTEX
8
0
10
62.8525587209194
20
56.6352148063145
30
0
0
VERTEX
8
0
10
63.5212029626313
20
57.1108226719708
30
0
0
VERTEX
8
0
10
64.1898472043433
20
57.5938797171339
30
0
0
VERTEX
8
0
10
64.8584914460552
20
58.1455766598317
30
0
0
VERTEX
8
0
10
65.5271356877671
20
58.6930457879173
30
0
0
VERTEX
8
0
10
66.195779929479
20
59.2324373295395
30
0
0
VERTEX
8
0
10
66.8644241711909
20
59.7793903604636
30
0
0
VERTEX
8
0
10
67.5330684129028
20
60.3397853283043
30
0
0
VERTEX
8
0
10
68.2017126546147
20
60.9003585298632
30
0
0
VERTEX
8
0
10
68.8703568963266
20
61.4594934691149
30
0
0
VERTEX
8
0
10
69.5390011380385
20
62.0189515923415
30
0
0
VERTEX
8
0
10
70.2076453797504
20
62.6006409618097
30
0
0
VERTEX
8
0
10
70.8762896214623
20
63.1765015350798
30
0
0
VERTEX
8
0
10
71.5449338631742
20
63.7532755154166
30
0
0
VERTEX
8
0
10
72.2135781048862
20
64.3255053780365
30
0
0
VERTEX
8
0
10
72.8822223465981
20
64.8780986538989
30
0
0
VERTEX
8
0
10
73.55086658831
20
65.4297525518083
30
0
0
VERTEX
8
0
10
74.2195108300219
20
65.9885688042128
30
0
0
VERTEX
8
0
10
74.8881550717338
20
66.5396672290101
30
0
0
VERTEX
8
0
10
75.5567993134457
20
67.0596729862459
30
0
0
VERTEX
8
0
10
76.2254435551576
20
67.5826393280099
30
0
0
VERTEX
8
0
10
76.8940877968695
20
68.1096186220558
30
0
0
VERTEX
8
0
10
77.5627320385814
20
68.6351907365631
30
0
0
VERTEX
8
0
10
78.2313762802933
20
69.1718698616769
30
0
0
VERTEX
8
0
10
78.9000205220052
20
69.7049442321403
30
0
0
VERTEX
8
0
10
79.5686647637172
20
70.2371692608778
30
0
0
VERTEX
8
0
10
80.2373090054291
20
70.7702155924277
30
0
0
VERTEX
8
0
10
80.905953247141
20
71.3363234912682
30
0
0
VERTEX
8
0
10
81.5745974888529
20
71.8968399570354
30
0
0
VERTEX
8
0
10
82.2432417305648
20
72.4499962622741
30
0
0
VERTEX
8
0
10
82.9118859722767
20
73.0126646048954
30
0
0
VERTEX
8
0
10
83.5805302139886
20
73.5702450402992
30
0
0
VERTEX
8
0
10
84.2491744557005
20
74.1346020974772
30
0
0
VERTEX
8
0
10
84.9178186974124
20
74.6915790893336
30
0
0
VERTEX
8
0
10
85.5864629391243
20
75.2598191010261
30
0
0
VERTEX
8
0
10
86.2551071808362
20
75.8317563405055
30
0
0
VERTEX
8
0
10
86.9237514225482
20
76.4039164205449
30
0
0
VERTEX
8
0
10
87.5923956642601
20
76.9757654556202
30
0
0
VERTEX
8
0
10
88.261039905972
20
77.5255510151885
30
0
0
VERTEX
8
0
10
88.9296841476839
20
78.0645789357245
30
0
0
VERTEX
8
0
10
89.5983283893958
20
78.5994251231702
30
0
0
VERTEX
8
0
10
90.2669726311077
20
79.1405539079717
30
0
0
VERTEX
8
0
10
90.9356168728196
20
79.658720832267
30
0
0
VERTEX
8
0
10
91.6042611145315
20
80.1760370840077
30
0
0
VERTEX
8
0
10
92.2729053562434
20
80.6859760403386
30
0
0
VERTEX
8
0
10
92.9415495979553
20
81.2016201200734
30
0
0
VERTEX
8
0
10
93.6101938396672
20
81.6890973726944
30
0
0
VERTEX
8
0
10
94.2788380813791
20
82.1726311530155
30
0
0
VERTEX
8
0
10
94.9474823230911
20
82.6543808875693
30
0
0
VERTEX
8
0
10
95.616126564803
20
83.1357876406878
30
0
0
VERTEX
8
0
10
96.2847708065149
20
83.6021713625045
30
0
0
VERTEX
8
0
10
96.9534150482268
20
84.063833524035
30
0
0
VERTEX
8
0
10
97.6220592899387
20
84.5255970649468
30
0
0
VERTEX
8
0
10
98.2907035316506
20
84.9831901256384
30
0
0
VERTEX
8
0
10
98.9593477733625
20
85.4306129505234
30
0
0
VERTEX
8
0
10
99.6279920150744
20
85.8689654840959
30
0
0
VERTEX
8
0
10
100.296636256786
20
86.3121806920112
30
0
0
VERTEX
8
0
10
100.965280498498
20
86.7489412120889
30
0
0
VERTEX
8
0
10
101.63392474021
20
87.1698363615537
30
0
0
VERTEX
8
0
10
102.302568981922
20
87.582312353265
30
0
0
VERTEX
8
0
10
102.971213223634
20
87.9971483991044
30
0
0
VERTEX
8
0
10
103.639857465346
20
88.4103480624573
30
0
0
VERTEX
8
0
10
104.308501707058
20
88.7867699700302
30
0
0
VERTEX
8
0
10
104.97714594877
20
89.1609070179542
30
0
0
VERTEX
8
0
10
105.645790190482
20
89.5338339198677
30
0
0
VERTEX
8
0
10
106.314434432194
20
89.9067253015923
30
0
0
VERTEX
8
0
10
106.983078673905
20
90.2350698577149
30
0
0
VERTEX
8
0
10
107.651722915617
20
90.5680171100528
30
0
0
VERTEX
8
0
10
108.320367157329
20
90.8953127786833
30
0
0
VERTEX
8
0
10
108.989011399041
20
91.2265791998511
30
0
0
VERTEX
8
0
10
109.657655640753
20
91.5119887305139
30
0
0
VERTEX
8
0
10
110.326299882465
20
91.8037475085238
30
0
0
VERTEX
8
0
10
110.994944124177
20
92.090053679464
30
0
0
VERTEX
8
0
10
111.663588365889
20
92.3782102204282
30
0
0
VERTEX
8
0
10
112.332232607601
20
92.5719100755609
30
0
0
VERTEX
8
0
10
113.000876849313
20
92.7749198565833
30
0
0
VERTEX
8
0
10
113.669521091025
20
92.9770919602815
30
0
0
VERTEX
8
0
10
114.338165332736
20
93.1780268150659
30
0
0
VERTEX
8
0
10
115.006809574448
20
93.3462575395179
30
0
0
VERTEX
8
0
10
115.67545381616
20
93.5159125741885
30
0
0
VERTEX
8
0
10
116.344098057872
20
93.6886266409803
30
0
0
VERTEX
8
0
10
117.012742299584
20
93.8564639531495
30
0
0
VERTEX
8
0
10
117.681386541296
20
93.9934427756332
30
0
0
VERTEX
8
0
10
118.350030783008
20
94.1318198944059
30
0
0
VERTEX
8
0
10
119.01867502472
20
94.2730459378773
30
0
0
VERTEX
8
0
10
119.687319266432
20
94.4096721668598
30
0
0
VERTEX
8
0
10
120.355963508144
20
94.3587038506941
30
0
0
VERTEX
8
0
10
121.024607749856
20
94.3469775602198
30
0
0
VERTEX
8
0
10
121.693251991567
20
94.3347443034184
30
0
0
VERTEX
8
0
10
122.361896233279
20
94.3217354166132
30
0
0
VERTEX
8
0
10
123.030540474991
20
94.2611809982394
30
0
0
VERTEX
8
0
10
123.699184716703
20
94.2118265991319
30
0
0
VERTEX
8
0
10
124.367828958415
20
94.1599408631388
30
0
0
VERTEX
8
0
10
125.036473200127
20
94.1104228948939
30
0
0
VERTEX
8
0
10
125.705117441839
20
94.0709138569259
30
0
0
VERTEX
8
0
10
126.373761683551
20
94.0298767009862
30
0
0
VERTEX
8
0
10
127.042405925263
20
93.985171812677
30
0
0
VERTEX
8
0
10
127.711050166975
20
93.9426111651255
30
0
0
VERTEX
8
0
10
128.379694408687
20
93.885797518191
30
0
0
VERTEX
8
0
10
129.048338650398
20
93.8330975045228
30
0
0
VERTEX
8
0
10
129.71698289211
20
93.779272258083
30
0
0
VERTEX
8
0
10
130.385627133822
20
93.7249388247294
30
0
0
VERTEX
8
0
10
131.054271375534
20
93.6588284748192
30
0
0
VERTEX
8
0
10
131.722915617246
20
93.5954330668197
30
0
0
VERTEX
8
0
10
132.391559858958
20
93.5317162805722
30
0
0
VERTEX
8
0
10
133.06020410067
20
93.4314971026635
30
0
0
VERTEX
8
0
10
133.728848342382
20
93.302779762755
30
0
0
VERTEX
8
0
10
134.397492584094
20
93.1712360142165
30
0
0
VERTEX
8
0
10
135.066136825806
20
93.0412596991943
30
0
0
VERTEX
8
0
10
135.734781067517
20
92.9042134789924
30
0
0
VERTEX
8
0
10
136.403425309229
20
92.7655636599191
30
0
0
VERTEX
8
0
10
137.072069550941
20
92.6243223279083
30
0
0
VERTEX
8
0
10
137.740713792653
20
92.483655487827
30
0
0
VERTEX
8
0
10
138.409358034365
20
92.3421293555004
30
0
0
VERTEX
8
0
10
139.078002276077
20
92.2001811591398
30
0
0
VERTEX
8
0
10
139.746646517789
20
92.0576717587252
30
0
0
VERTEX
8
0
10
140.415290759501
20
91.9144788016219
30
0
0
VERTEX
8
0
10
141.083935001213
20
91.7709906489666
30
0
0
VERTEX
8
0
10
141.752579242924
20
91.626064336369
30
0
0
VERTEX
8
0
10
142.421223484636
20
91.4821311230029
30
0
0
VERTEX
8
0
10
143.089867726348
20
91.3361827639971
30
0
0
VERTEX
8
0
10
143.75851196806
20
91.2185045280571
30
0
0
VERTEX
8
0
10
144.427156209772
20
91.1084122680006
30
0
0
VERTEX
8
0
10
145.095800451484
20
90.9991005540285
30
0
0
VERTEX
8
0
10
145.764444693196
20
90.8879537547872
30
0
0
VERTEX
8
0
10
146.433088934908
20
90.7964819968168
30
0
0
VERTEX
8
0
10
147.10173317662
20
90.7093392069046
30
0
0
VERTEX
8
0
10
147.770377418332
20
90.621740131897
30
0
0
VERTEX
8
0
10
148.439021660043
20
90.5336038174808
30
0
0
VERTEX
8
0
10
149.107665901755
20
90.4407197988931
30
0
0
VERTEX
8
0
10
149.776310143467
20
90.3467168588171
30
0
0
VERTEX
8
0
10
150.444954385179
20
90.2516950676637
30
0
0
VERTEX
8
0
10
151.113598626891
20
90.1570579442773
30
0
0
VERTEX
8
0
10
151.782242868603
20
90.0632964380419
30
0
0
VERTEX
8
0
10
152.450887110315
20
89.9701046286342
30
0
0
VERTEX
8
0
10
153.119531352027
20
89.8756947658172
30
0
0
VERTEX
8
0
10
153.788175593739
20
89.7815454400488
30
0
0
SEQEND
8
0
0
POLYLINE
8
0
62
2
70
0
10
0
20
0
30
0
0
VERTEX
8
0
10
8.69237514225481
20
3.32387026430699
30
0
0
VERTEX
8
0
10
9.36101938396672
20
1.75062905855931
30
0
0
VERTEX
8
0
10
10.0296636256786
20
0.791990116518602
30
0
0
VERTEX
8
0
10
10.6983078673905
20
2.71853984016684
30
0
0
VERTEX
8
0
10
11.3669521091024
20
4.48377943992417
30
0
0
VERTEX
8
0
10
12.0355963508144
20
2.46062254668348
30
0
0
VERTEX
8
0
10
12.7042405925263
20
2.86698150063468
30
0
0
VERTEX
8
0
10
13.3728848342382
20
4.15527148108098
30
0
0
VERTEX
8
0
10
14.0415290759501
20
3.60277436963493
30
0
0
VERTEX
8
0
10
14.710173317662
20
3.56849220486369
30
0
0
VERTEX
8
0
10
15.3788175593739
20
4.2696617269879
30
0
0
VERTEX
8
0
10
16.0474618010858
20
5.35225182679737
30
0
0
VERTEX
8
0
10
16.7161060427977
20
4.47204700917156
30
0
0
VERTEX
8
0
10
17.3847502845096
20
4.73368807983846
30
0
0
VERTEX
8
0
10
18.0533945262215
20
5.47667585522745
30
0
0
VERTEX
8
0
10
18.7220387679334
20
5.29543500314447
30
0
0
VERTEX
8
0
10
19.3906830096454
20
5.39636716712461
30
0
0
VERTEX
8
0
10
20.0593272513573
20
5.83841074087792
30
0
0
VERTEX
8
0
10
20.7279714930692
20
6.56573302707909
30
0
0
VERTEX
8
0
10
21.3966157347811
20
6.14574402392283
30
0
0
VERTEX
8
0
10
22.065259976493
20
6.35769176023213
30
0
0
VERTEX
8
0
10
22.7339042182049
20
6.8674907001718
30
0
0
VERTEX
8
0
10
23.4025484599168
20
6.82997883992158
30
0
0
VERTEX
8
0
10
24.0711927016287
20
6.96529793880176
30
0
0
VERTEX
8
0
10
24.7398369433406
20
7.29137295580491
30
0
0
VERTEX
8
0
10
25.4084811850525
20
7.82199639249645
30
0
0
VERTEX
8
0
10
26.0771254267644
20
7.61317062714326
30
0
0
VERTEX
8
0
10
26.7457696684763
20
7.79280577530155
30
0
0
VERTEX
8
0
10
27.4144139101883
20
8.17549491280775
30
0
0
VERTEX
8
0
10
28.0830581519002
20
8.19810629422438
30
0
0
VERTEX
8
0
10
28.7517023936121
20
8.33732202335549
30
0
0
VERTEX
8
0
10
29.420346635324
20
8.59453887997597
30
0
0
VERTEX
8
0
10
30.0889908770359
20
9.00375377279769
30
0
0
VERTEX
8
0
10
30.7576351187478
20
8.90084078414826
30
0
0
VERTEX
8
0
10
31.4262793604597
20
9.05454264335525
30
0
0
VERTEX
8
0
10
32.0949236021716
20
9.35674834768018
30
0
0
VERTEX
8
0
10
32.7635678438835
20
9.40465352391831
30
0
0
VERTEX
8
0
10
33.4322120855954
20
9.53715314808958
30
0
0
VERTEX
8
0
10
34.1008563273073
20
9.74742600781347
30
0
0
VERTEX
8
0
10
34.7695005690193
20
10.0754853067979
30
0
0
VERTEX
8
0
10
35.4381448107312
20
10.0295957236157
30
0
0
VERTEX
8
0
10
36.1067890524431
20
10.1621636675888
30
0
0
VERTEX
8
0
10
36.775433294155
20
10.4093504838725
30
0
0
VERTEX
8
0
10
37.4440775358669
20
10.4677428819889
30
0
0
VERTEX
8
0
10
38.1127217775788
20
10.5911488032383
30
0
0
VERTEX
8
0
10
38.7813660192907
20
10.7681313581603
30
0
0
VERTEX
8
0
10
39.4500102610026
20
11.0399800571954
30
0
0
VERTEX
8
0
10
40.1186545027145
20
11.027852727556
30
0
0
VERTEX
8
0
10
40.7872987444264
20
11.1446491934547
30
0
0
VERTEX
8
0
10
41.4559429861383
20
11.353837931738
30
0
0
VERTEX
8
0
10
42.1245872278503
20
11.4177755614846
30
0
0
VERTEX
8
0
10
42.7932314695622
20
11.5341547963671
30
0
0
VERTEX
8
0
10
43.4618757112741
20
11.6887121453249
30
0
0
VERTEX
8
0
10
44.130519952986
20
11.9223164217734
30
0
0
VERTEX
8
0
10
44.7991641946979
20
11.9339691511918
30
0
0
VERTEX
8
0
10
45.4678084364098
20
12.0414914038416
30
0
0
VERTEX
8
0
10
46.1364526781217
20
12.2262156792603
30
0
0
VERTEX
8
0
10
46.8050969198336
20
12.2963894936729
30
0
0
VERTEX
8
0
10
47.4737411615455
20
12.4106612860025
30
0
0
VERTEX
8
0
10
48.1423854032574
20
12.5529185810912
30
0
0
VERTEX
8
0
10
48.8110296449693
20
12.7629869976489
30
0
0
VERTEX
8
0
10
49.4796738866813
20
12.796049324042
30
0
0
VERTEX
8
0
10
50.1483181283932
20
12.9019738038432
30
0
0
VERTEX
8
0
10
50.8169623701051
20
13.0743430325191
30
0
0
VERTEX
8
0
10
51.485606611817
20
13.154949819378
30
0
0
VERTEX
8
0
10
52.1542508535289
20
13.2739629138128
30
0
0
VERTEX
8
0
10
52.8228950952408
20
13.4140120442675
30
0
0
VERTEX
8
0
10
53.4915393369527
20
13.6136321977474
30
0
0
VERTEX
8
0
10
54.1601835786646
20
13.6703023776455
30
0
0
VERTEX
8
0
10
54.8288278203765
20
13.7832175956641
30
0
0
VERTEX
8
0
10
55.4974720620884
20
13.9546628424815
30
0
0
VERTEX
8
0
10
56.1661163038003
20
14.0520294292763
30
0
0
VERTEX
8
0
10
56.8347605455123
20
14.1837827450741
30
0
0
VERTEX
8
0
10
57.5034047872242
20
14.3317055528234
30
0
0
VERTEX
8
0
10
58.1720490289361
20
14.5329016035659
30
0
0
VERTEX
8
0
10
58.840693270648
20
14.6179690464837
30
0
0
VERTEX
8
0
10
59.5093375123599
20
14.7468620717998
30
0
0
VERTEX
8
0
10
60.1779817540718
20
14.9281799984321
30
0
0
VERTEX
8
0
10
60.8466259957837
20
15.0496385313471
30
0
0
VERTEX
8
0
10
61.5152702374956
20
15.2024854214911
30
0
0
VERTEX
8
0
10
62.1839144792075
20
15.3679925683349
30
0
0
VERTEX
8
0
10
62.8525587209194
20
15.5817025609102
30
0
0
VERTEX
8
0
10
63.5212029626313
20
15.7010611689616
30
0
0
VERTEX
8
0
10
64.1898472043433
20
15.8546697719557
30
0
0
VERTEX
8
0
10
64.8584914460552
20
16.055727052339
30
0
0
VERTEX
8
0
10
65.5271356877671
20
16.2086480087046
30
0
0
VERTEX
8
0
10
66.195779929479
20
16.3905501551142
30
0
0
VERTEX
8
0
10
66.8644241711909
20
16.5825061263232
30
0
0
VERTEX
8
0
10
67.5330684129028
20
16.8183601660887
30
0
0
VERTEX
8
0
10
68.2017126546147
20
16.9779265789084
30
0
0
VERTEX
8
0
10
68.8703568963266
20
17.1641872785049
30
0
0
VERTEX
8
0
10
69.5390011380385
20
17.3936369455883
30
0
0
VERTEX
8
0
10
70.2076453797504
20
17.5847794897366
30
0
0
VERTEX
8
0
10
70.8762896214623
20
17.8028488957414
30
0
0
VERTEX
8
0
10
71.5449338631742
20
18.0290231134823
30
0
0
VERTEX
8
0
10
72.2135781048862
20
18.295320488918
30
0
0
VERTEX
8
0
10
72.8822223465981
20
18.5005469399764
30
0
0
VERTEX
8
0
10
73.55086658831
20
18.726487697133
30
0
0
VERTEX
8
0
10
74.2195108300219
20
18.9919078428368
30
0
0
VERTEX
8
0
10
74.8881550717338
20
19.227418751513
30
0
0
VERTEX
8
0
10
75.5567993134457
20
19.4881257698604
30
0
0
VERTEX
8
0
10
76.2254435551576
20
19.7556163857931
30
0
0
VERTEX
8
0
10
76.8940877968695
20
20.0599957457552
30
0
0
VERTEX
8
0
10
77.5627320385814
20
20.3163923562776
30
0
0
VERTEX
8
0
10
78.2313762802933
20
20.5890089950424
30
0
0
VERTEX
8
0
10
78.9000205220052
20
20.8980817087879
30
0
0
VERTEX
8
0
10
79.5686647637172
20
21.1847834561344
30
0
0
VERTEX
8
0
10
80.2373090054291
20
21.495582526624
30
0
0
VERTEX
8
0
10
80.905953247141
20
21.8128238408983
30
0
0
VERTEX
8
0
10
81.5745974888529
20
22.1647211652683
30
0
0
VERTEX
8
0
10
82.2432417305648
20
22.4806407300932
30
0
0
VERTEX
8
0
10
82.9118859722767
20
22.8103757661077
30
0
0
VERTEX
8
0
10
83.5805302139886
20
23.1751623579088
30
0
0
VERTEX
8
0
10
84.2491744557005
20
23.5257420884962
30
0
0
VERTEX
8
0
10
84.9178186974124
20
23.9015659546313
30
0
0
VERTEX
8
0
10
85.5864629391243
20
24.2865957352079
30
0
0
VERTEX
8
0
10
86.2551071808362
20
24.7079622542217
30
0
0
VERTEX
8
0
10
86.9237514225482
20
25.1088770659624
30
0
0
VERTEX
8
0
10
87.5923956642601
20
25.5296069176318
30
0
0
VERTEX
8
0
10
88.261039905972
20
25.9961214027077
30
0
0
VERTEX
8
0
10
88.9296841476839
20
26.4760809679232
30
0
0
VERTEX
8
0
10
89.5983283893958
20
27.0034997797636
30
0
0
VERTEX
8
0
10
90.2669726311077
20
27.5158543827677
30
0
0
VERTEX
8
0
10
90.9356168728196
20
28.0143724890716
30
0
0
VERTEX
8
0
10
91.6042611145315
20
28.4642438838608
30
0
0
VERTEX
8
0
10
92.2729053562434
20
28.9013916277335
30
0
0
VERTEX
8
0
10
92.9415495979553
20
29.3510585187802
30
0
0
VERTEX
8
0
10
93.6101938396672
20
29.7837919568632
30
0
0
VERTEX
8
0
10
94.2788380813791
20
30.2287337767105
30
0
0
VERTEX
8
0
10
94.9474823230911
20
30.6756352839602
30
0
0
VERTEX
8
0
10
95.616126564803
20
31.1498597241877
30
0
0
VERTEX
8
0
10
96.2847708065149
20
31.6216052377049
30
0
0
VERTEX
8
0
10
96.9534150482268
20
32.1217489716777
30
0
0
VERTEX
8
0
10
97.6220592899387
20
32.676746732926
30
0
0
VERTEX
8
0
10
98.2907035316506
20
33.2062955388558
30
0
0
VERTEX
8
0
10
98.9593477733625
20
33.6794843341062
30
0
0
VERTEX
8
0
10
99.6279920150744
20
34.0955792399747
30
0
0
VERTEX
8
0
10
100.296636256786
20
34.4866314548201
30
0
0
VERTEX
8
0
10
100.965280498498
20
34.8328030177737
30
0
0
VERTEX
8
0
10
101.63392474021
20
35.1510374431766
30
0
0
VERTEX
8
0
10
102.302568981922
20
35.461052892653
30
0
0
VERTEX
8
0
10
102.971213223634
20
35.7446497597846
30
0
0
VERTEX
8
0
10
103.639857465346
20
36.0189962225033
30
0
0
VERTEX
8
0
10
104.308501707058
20
36.2749675784235
30
0
0
VERTEX
8
0
10
104.97714594877
20
36.5284121472939
30
0
0
VERTEX
8
0
10
105.645790190482
20
36.7586685667577
30
0
0
VERTEX
8
0
10
106.314434432194
20
36.9733759398857
30
0
0
VERTEX
8
0
10
106.983078673905
20
37.1876801462416
30
0
0
VERTEX
8
0
10
107.651722915617
20
37.3858934466746
30
0
0
VERTEX
8
0
10
108.320367157329
20
37.5803325922693
30
0
0
VERTEX
8
0
10
108.989011399041
20
37.7622213579499
30
0
0
VERTEX
8
0
10
109.657655640753
20
37.9445167190402
30
0
0
VERTEX
8
0
10
110.326299882465
20
38.1108582653029
30
0
0
VERTEX
8
0
10
110.994944124177
20
38.2650174557268
30
0
0
VERTEX
8
0
10
111.663588365889
20
38.4202034521
30
0
0
VERTEX
8
0
10
112.332232607601
20
38.5637571153317
30
0
0
VERTEX
8
0
10
113.000876849313
20
38.7051033864349
30
0
0
VERTEX
8
0
10
113.669521091025
20
38.8363959798192
30
0
0
VERTEX
8
0
10
114.338165332736
20
38.9686474613112
30
0
0
VERTEX
8
0
10
115.006809574448
20
39.0891008857085
30
0
0
VERTEX
8
0
10
115.67545381616
20
39.19902359906
30
0
0
VERTEX
8
0
10
116.344098057872
20
39.310103885317
30
0
0
VERTEX
8
0
10
117.012742299584
20
39.4122104492381
30
0
0
VERTEX
8
0
10
117.681386541296
20
39.5126408237208
30
0
0
VERTEX
8
0
10
118.350030783008
20
39.6044843006968
30
0
0
VERTEX
8
0
10
119.01867502472
20
39.6971776088496
30
0
0
VERTEX
8
0
10
119.687319266432
20
39.7808436772715
30
0
0
VERTEX
8
0
10
120.355963508144
20
39.8550592102452
30
0
0
VERTEX
8
0
10
121.024607749856
20
39.9301650479119
30
0
0
VERTEX
8
0
10
121.693251991567
20
39.9980888421353
30
0
0
VERTEX
8
0
10
122.361896233279
20
40.0644834558589
30
0
0
VERTEX
8
0
10
123.030540474991
20
40.1233129097699
30
0
0
VERTEX
8
0
10
123.699184716703
20
40.1826647164725
30
0
0
VERTEX
8
0
10
124.367828958415
20
40.234952261842
30
0
0
VERTEX
8
0
10
125.036473200127
20
40.2786342518452
30
0
0
VERTEX
8
0
10
125.705117441839
20
40.3228132596727
30
0
0
VERTEX
8
0
10
126.373761683551
20
40.3610917803483
30
0
0
VERTEX
8
0
10
127.042405925263
20
40.3978273373664
30
0
0
VERTEX
8
0
10
127.711050166975
20
40.4277905221107
30
0
0
VERTEX
8
0
10
128.379694408687
20
40.4578858499358
30
0
0
VERTEX
8
0
10
129.048338650398
20
40.4823461604439
30
0
0
VERTEX
8
0
10
129.71698289211
20
40.4989371674705
30
0
0
VERTEX
8
0
10
130.385627133822
20
40.5156084595061
30
0
0
VERTEX
8
0
10
131.054271375534
20
40.527326592021
30
0
0
VERTEX
8
0
10
131.722915617246
20
40.5374212477859
30
0
0
VERTEX
8
0
10
132.391559858958
20
40.5414044741599
30
0
0
VERTEX
8
0
10
133.06020410067
20
40.54513078243
30
0
0
VERTEX
8
0
10
133.728848342382
20
40.5442745733272
30
0
0
VERTEX
8
0
10
134.397492584094
20
40.5362304645503
30
0
0
VERTEX
8
0
10
135.066136825806
20
40.527870023201
30
0
0
VERTEX
8
0
10
135.734781067517
20
40.5152711734347
30
0
0
VERTEX
8
0
10
136.403425309229
20
40.5009468449339
30
0
0
VERTEX
8
0
10
137.072069550941
20
40.4810899232786
30
0
0
VERTEX
8
0
10
137.740713792653
20
40.4606170401568
30
0
0
VERTEX
8
0
10
138.409358034365
20
40.4363389580188
30
0
0
VERTEX
8
0
10
139.078002276077
20
40.4055242214617
30
0
0
VERTEX
8
0
10
139.746646517789
20
40.3740368236703
30
0
0
VERTEX
8
0
10
140.415290759501
20
40.338859068139
30
0
0
VERTEX
8
0
10
141.083935001213
20
40.3018568390563
30
0
0
VERTEX
8
0
10
141.752579242924
20
40.2598472492998
30
0
0
VERTEX
8
0
10
142.421223484636
20
40.2169071424322
30
0
0
VERTEX
8
0
10
143.089867726348
20
40.1707358533774
30
0
0
VERTEX
8
0
10
143.75851196806
20
40.1186611659568
30
0
0
VERTEX
8
0
10
144.427156209772
20
40.065608441663
30
0
0
VERTEX
8
0
10
145.095800451484
20
40.0092936672326
30
0
0
VERTEX
8
0
10
145.764444693196
20
39.9510738794966
30
0
0
VERTEX
8
0
10
146.433088934908
20
39.888336935932
30
0
0
VERTEX
8
0
10
147.10173317662
20
39.8244083071793
30
0
0
VERTEX
8
0
10
147.770377418332
20
39.757674171547
30
0
0
VERTEX
8
0
10
148.439021660043
20
39.6856590169004
30
0
0
VERTEX
8
0
10
149.107665901755
20
39.6124189254909
30
0
0
VERTEX
8
0
10
149.776310143467
20
39.5362620915231
30
0
0
VERTEX
8
0
10
150.444954385179
20
39.4581503299317
30
0
0
VERTEX
8
0
10
151.113598626891
20
39.3759910042824
30
0
0
VERTEX
8
0
10
151.782242868603
20
39.2924400813532
30
0
0
VERTEX
8
0
10
152.450887110315
20
39.2064064653377
30
0
0
VERTEX
8
0
10
153.119531352027
20
39.1157093982332
30
0
0
VERTEX
8
0
10
153.788175593739
20
39.0236069806224
30
0
0
SEQEND
8
0
0
POLYLINE
8
0
62
3
70
0
10
0
20
0
30
0
0
VERTEX
8
0
10
8.69237514225481
20
3.58901168685758
30
0
0
VERTEX
8
0
10
9.36101938396672
20
2.28066314747081
30
0
0
VERTEX
8
0
10
10.0296636256786
20
1.75882960526351
30
0
0
VERTEX
8
0
10
10.6983078673905
20
3.19325361935898
30
0
0
VERTEX
8
0
10
11.3669521091024
20
4.82446531465047
30
0
0
VERTEX
8
0
10
12.0355963508144
20
3.10482325871155
30
0
0
VERTEX
8
0
10
12.7042405925263
20
3.49455599804123
30
0
0
VERTEX
8
0
10
13.3728848342382
20
4.65730806449173
30
0
0
VERTEX
8
0
10
14.0415290759501
20
4.22779207954262
30
0
0
VERTEX
8
0
10
14.710173317662
20
4.25722024208208
30
0
0
VERTEX
8
0
10
15.3788175593739
20
4.91100669417237
30
0
0
VERTEX
8
0
10
16.0474618010858
20
5.92090346230591
30
0
0
VERTEX
8
0
10
16.7161060427977
20
5.19574656877973
30
0
0
VERTEX
8
0
10
17.3847502845096
20
5.47428955085235
30
0
0
VERTEX
8
0
10
18.0533945262215
20
6.17589301188038
30
0
0
VERTEX
8
0
10
18.7220387679334
20
6.06809072557713
30
0
0
VERTEX
8
0
10
19.3906830096454
20
6.20950852729155
30
0
0
VERTEX
8
0
10
20.0593272513573
20
6.64648110757317
30
0
0
VERTEX
8
0
10
20.7279714930692
20
7.33978864324727
30
0
0
VERTEX
8
0
10
21.3966157347811
20
7.02039161723904
30
0
0
VERTEX
8
0
10
22.065259976493
20
7.25602583683955
30
0
0
VERTEX
8
0
10
22.7339042182049
20
7.75430373734525
30
0
0
VERTEX
8
0
10
23.4025484599168
20
7.77196880707015
30
0
0
VERTEX
8
0
10
24.0711927016287
20
7.94241682238416
30
0
0
VERTEX
8
0
10
24.7398369433406
20
8.27820253646022
30
0
0
VERTEX
8
0
10
25.4084811850525
20
8.7959420795075
30
0
0
VERTEX
8
0
10
26.0771254267644
20
8.66347535844603
30
0
0
VERTEX
8
0
10
26.7457696684763
20
8.87021099467377
30
0
0
VERTEX
8
0
10
27.4144139101883
20
9.25586997244986
30
0
0
VERTEX
8
0
10
28.0830581519002
20
9.32618976907069
30
0
0
VERTEX
8
0
10
28.7517023936121
20
9.49941493761813
30
0
0
VERTEX
8
0
10
29.420346635324
20
9.77402709888678
30
0
0
VERTEX
8
0
10
30.0889908770359
20
10.1829428922099
30
0
0
VERTEX
8
0
10
30.7576351187478
20
10.1445293193904
30
0
0
VERTEX
8
0
10
31.4262793604597
20
10.327913140636
30
0
0
VERTEX
8
0
10
32.0949236021716
20
10.6416990730984
30
0
0
VERTEX
8
0
10
32.7635678438835
20
10.7342094974824
30
0
0
VERTEX
8
0
10
33.4322120855954
20
10.9010851067476
30
0
0
VERTEX
8
0
10
34.1008563273073
20
11.1337616977215
30
0
0
VERTEX
8
0
10
34.7695005690193
20
11.4698219941757
30
0
0
VERTEX
8
0
10
35.4381448107312
20
11.4822573313864
30
0
0
VERTEX
8
0
10
36.1067890524431
20
11.6467369390099
30
0
0
VERTEX
8
0
10
36.775433294155
20
11.9113383060963
30
0
0
VERTEX
8
0
10
37.4440775358669
20
12.0131758884463
30
0
0
VERTEX
8
0
10
38.1127217775788
20
12.1718584660577
30
0
0
VERTEX
8
0
10
38.7813660192907
20
12.3748977851158
30
0
0
VERTEX
8
0
10
39.4500102610026
20
12.660619957498
30
0
0
VERTEX
8
0
10
40.1186545027145
20
12.7033858986276
30
0
0
VERTEX
8
0
10
40.7872987444264
20
12.8539786546966
30
0
0
VERTEX
8
0
10
41.4559429861383
20
13.0847755351121
30
0
0
VERTEX
8
0
10
42.1245872278503
20
13.1917725446388
30
0
0
VERTEX
8
0
10
42.7932314695622
20
13.3443379627843
30
0
0
VERTEX
8
0
10
43.4618757112741
20
13.5276270073343
30
0
0
VERTEX
8
0
10
44.130519952986
20
13.7793211162102
30
0
0
VERTEX
8
0
10
44.7991641946979
20
13.8436260283764
30
0
0
VERTEX
8
0
10
45.4678084364098
20
13.9863006663978
30
0
0
VERTEX
8
0
10
46.1364526781217
20
14.1955546593032
30
0
0
VERTEX
8
0
10
46.8050969198336
20
14.3084411144705
30
0
0
VERTEX
8
0
10
47.4737411615455
20
14.4593995211021
30
0
0
VERTEX
8
0
10
48.1423854032574
20
14.6320838040917
30
0
0
VERTEX
8
0
10
48.8110296449693
20
14.8630561898656
30
0
0
VERTEX
8
0
10
49.4796738866813
20
14.9467427773564
30
0
0
VERTEX
8
0
10
50.1483181283932
20
15.0883718475383
30
0
0
VERTEX
8
0
10
50.8169623701051
20
15.286951390522
30
0
0
VERTEX
8
0
10
51.485606611817
20
15.4094114090757
30
0
0
VERTEX
8
0
10
52.1542508535289
20
15.564830830946
30
0
0
VERTEX
8
0
10
52.8228950952408
20
15.735868305283
30
0
0
VERTEX
8
0
10
53.4915393369527
20
15.9578234539362
30
0
0
VERTEX
8
0
10
54.1601835786646
20
16.0626319468134
30
0
0
VERTEX
8
0
10
54.8288278203765
20
16.2107206351863
30
0
0
VERTEX
8
0
10
55.4974720620884
20
16.4087295609777
30
0
0
VERTEX
8
0
10
56.1661163038003
20
16.5461729859769
30
0
0
VERTEX
8
0
10
56.8347605455123
20
16.7129879301566
30
0
0
VERTEX
8
0
10
57.5034047872242
20
16.8911716579109
30
0
0
VERTEX
8
0
10
58.1720490289361
20
17.1147219367761
30
0
0
VERTEX
8
0
10
58.840693270648
20
17.2445724132872
30
0
0
VERTEX
8
0
10
59.5093375123599
20
17.4068461618193
30
0
0
VERTEX
8
0
10
60.1779817540718
20
17.6137089893091
30
0
0
VERTEX
8
0
10
60.8466259957837
20
17.7723449957867
30
0
0
VERTEX
8
0
10
61.5152702374956
20
17.9577288057878
30
0
0
VERTEX
8
0
10
62.1839144792075
20
18.151450460011
30
0
0
VERTEX
8
0
10
62.8525587209194
20
18.3861828436446
30
0
0
VERTEX
8
0
10
63.5212029626313
20
18.5459740766437
30
0
0
VERTEX
8
0
10
64.1898472043433
20
18.7299234785614
30
0
0
VERTEX
8
0
10
64.8584914460552
20
18.9542382677529
30
0
0
VERTEX
8
0
10
65.5271356877671
20
19.1403555898627
30
0
0
VERTEX
8
0
10
66.195779929479
20
19.3511947025686
30
0
0
VERTEX
8
0
10
66.8644241711909
20
19.5681610498016
30
0
0
VERTEX
8
0
10
67.5330684129028
20
19.8225687931152
30
0
0
VERTEX
8
0
10
68.2017126546147
20
20.0173727849164
30
0
0
VERTEX
8
0
10
68.8703568963266
20
20.2299133922946
30
0
0
VERTEX
8
0
10
69.5390011380385
20
20.4793340052807
30
0
0
VERTEX
8
0
10
70.2076453797504
20
20.6988692967444
30
0
0
VERTEX
8
0
10
70.8762896214623
20
20.9414883887593
30
0
0
VERTEX
8
0
10
71.5449338631742
20
21.1886273068905
30
0
0
VERTEX
8
0
10
72.2135781048862
20
21.4701981252991
30
0
0
VERTEX
8
0
10
72.8822223465981
20
21.7049415894932
30
0
0
VERTEX
8
0
10
73.55086658831
20
21.9524250973312
30
0
0
VERTEX
8
0
10
74.2195108300219
20
22.2338700022565
30
0
0
VERTEX
8
0
10
74.8881550717338
20
22.4924859188753
30
0
0
VERTEX
8
0
10
75.5567993134457
20
22.7728936163308
30
0
0
VERTEX
8
0
10
76.2254435551576
20
23.0567842970798
30
0
0
VERTEX
8
0
10
76.8940877968695
20
23.3726327611648
30
0
0
VERTEX
8
0
10
77.5627320385814
20
23.65257995071
30
0
0
VERTEX
8
0
10
78.2313762802933
20
23.9415899234223
30
0
0
VERTEX
8
0
10
78.9000205220052
20
24.2622932987432
30
0
0
VERTEX
8
0
10
79.5686647637172
20
24.5665083683431
30
0
0
VERTEX
8
0
10
80.2373090054291
20
24.8918167331551
30
0
0
VERTEX
8
0
10
80.905953247141
20
25.2204472069414
30
0
0
VERTEX
8
0
10
81.5745974888529
20
25.5794707367318
30
0
0
VERTEX
8
0
10
82.2432417305648
20
25.9126397475029
30
0
0
VERTEX
8
0
10
82.9118859722767
20
26.2530375500785
30
0
0
VERTEX
8
0
10
83.5805302139886
20
26.6243101182192
30
0
0
VERTEX
8
0
10
84.2491744557005
20
26.9860567763595
30
0
0
VERTEX
8
0
10
84.9178186974124
20
27.3702106232063
30
0
0
VERTEX
8
0
10
85.5864629391243
20
27.760301121321
30
0
0
VERTEX
8
0
10
86.2551071808362
20
28.1827120566746
30
0
0
VERTEX
8
0
10
86.9237514225482
20
28.5925524083221
30
0
0
VERTEX
8
0
10
87.5923956642601
20
29.015282017985
30
0
0
VERTEX
8
0
10
88.261039905972
20
29.4789045970131
30
0
0
VERTEX
8
0
10
88.9296841476839
20
29.957414022024
30
0
0
VERTEX
8
0
10
89.5983283893958
20
30.4785521930876
30
0
0
VERTEX
8
0
10
90.2669726311077
20
30.9844723425572
30
0
0
VERTEX
8
0
10
90.9356168728196
20
31.478552435372
30
0
0
VERTEX
8
0
10
91.6042611145315
20
31.9342018613471
30
0
0
VERTEX
8
0
10
92.2729053562434
20
32.3739187635628
30
0
0
VERTEX
8
0
10
92.9415495979553
20
32.8249873349523
30
0
0
VERTEX
8
0
10
93.6101938396672
20
33.2632610673095
30
0
0
VERTEX
8
0
10
94.2788380813791
20
33.7125471474288
30
0
0
VERTEX
8
0
10
94.9474823230911
20
34.1614178822852
30
0
0
VERTEX
8
0
10
95.616126564803
20
34.635005877849
30
0
0
VERTEX
8
0
10
96.2847708065149
20
35.1108321272871
30
0
0
VERTEX
8
0
10
96.9534150482268
20
35.6080012248887
30
0
0
VERTEX
8
0
10
97.6220592899387
20
36.1549413773499
30
0
0
VERTEX
8
0
10
98.2907035316506
20
36.6810344309705
30
0
0
VERTEX
8
0
10
98.9593477733625
20
37.1558237255068
30
0
0
VERTEX
8
0
10
99.6279920150744
20
37.5763708090847
30
0
0
VERTEX
8
0
10
100.296636256786
20
37.9737606178565
30
0
0
VERTEX
8
0
10
100.965280498498
20
38.3336878716448
30
0
0
VERTEX
8
0
10
101.63392474021
20
38.6637471109759
30
0
0
VERTEX
8
0
10
102.302568981922
20
38.9858152478174
30
0
0
VERTEX
8
0
10
102.971213223634
20
39.2851000810612
30
0
0
VERTEX
8
0
10
103.639857465346
20
39.5753653257554
30
0
0
VERTEX
8
0
10
104.308501707058
20
39.8465066320978
30
0
0
VERTEX
8
0
10
104.97714594877
20
40.114823675922
30
0
0
VERTEX
8
0
10
105.645790190482
20
40.3648652483363
30
0
0
VERTEX
8
0
10
106.314434432194
20
40.5967025761321
30
0
0
VERTEX
8
0
10
106.983078673905
20
40.8276581309143
30
0
0
VERTEX
8
0
10
107.651722915617
20
41.0450313575781
30
0
0
VERTEX
8
0
10
108.320367157329
20
41.2583977647338
30
0
0
VERTEX
8
0
10
108.989011399041
20
41.4581595896145
30
0
0
VERTEX
8
0
10
109.657655640753
20
41.6577959777172
30
0
0
VERTEX
8
0
10
110.326299882465
20
41.8454236122577
30
0
0
VERTEX
8
0
10
110.994944124177
20
42.0183160419415
30
0
0
VERTEX
8
0
10
111.663588365889
20
42.1916637968102
30
0
0
VERTEX
8
0
10
112.332232607601
20
42.3553657734113
30
0
0
VERTEX
8
0
10
113.000876849313
20
42.5165311576596
30
0
0
VERTEX
8
0
10
113.669521091025
20
42.6665801708646
30
0
0
VERTEX
8
0
10
114.338165332736
20
42.8170405196594
30
0
0
VERTEX
8
0
10
115.006809574448
20
42.9590097293667
30
0
0
VERTEX
8
0
10
115.67545381616
20
43.0881187974138
30
0
0
VERTEX
8
0
10
116.344098057872
20
43.2178350235666
30
0
0
VERTEX
8
0
10
117.012742299584
20
43.3402216443666
30
0
0
VERTEX
8
0
10
117.681386541296
20
43.4605949126377
30
0
0
VERTEX
8
0
10
118.350030783008
20
43.5713870235558
30
0
0
VERTEX
8
0
10
119.01867502472
20
43.6825216374665
30
0
0
VERTEX
8
0
10
119.687319266432
20
43.7874441781784
30
0
0
VERTEX
8
0
10
120.355963508144
20
43.8808335335381
30
0
0
VERTEX
8
0
10
121.024607749856
20
43.9746158502982
30
0
0
VERTEX
8
0
10
121.693251991567
20
44.0626023548886
30
0
0
VERTEX
8
0
10
122.361896233279
20
44.1487448867339
30
0
0
VERTEX
8
0
10
123.030540474991
20
44.2264225936404
30
0
0
VERTEX
8
0
10
123.699184716703
20
44.3041727975289
30
0
0
VERTEX
8
0
10
124.367828958415
20
44.3772679593918
30
0
0
VERTEX
8
0
10
125.036473200127
20
44.4399209975277
30
0
0
VERTEX
8
0
10
125.705117441839
20
44.5026364448384
30
0
0
VERTEX
8
0
10
126.373761683551
20
44.5606298077206
30
0
0
VERTEX
8
0
10
127.042405925263
20
44.6168000676297
30
0
0
VERTEX
8
0
10
127.711050166975
20
44.6654024656824
30
0
0
VERTEX
8
0
10
128.379694408687
20
44.7137497909896
30
0
0
VERTEX
8
0
10
129.048338650398
20
44.758524032635
30
0
0
VERTEX
8
0
10
129.71698289211
20
44.7938307414999
30
0
0
VERTEX
8
0
10
130.385627133822
20
44.8288481726119
30
0
0
VERTEX
8
0
10
131.054271375534
20
44.8599172574504
30
0
0
VERTEX
8
0
10
131.722915617246
20
44.8891229999526
30
0
0
VERTEX
8
0
10
132.391559858958
20
44.9115291512493
30
0
0
VERTEX
8
0
10
133.06020410067
20
44.9333547757174
30
0
0
VERTEX
8
0
10
133.728848342382
20
44.9523568909462
30
0
0
VERTEX
8
0
10
134.397492584094
20
44.9628014389361
30
0
0
VERTEX
8
0
10
135.066136825806
20
44.9726249491183
30
0
0
VERTEX
8
0
10
135.734781067517
20
44.979067198403
30
0
0
VERTEX
8
0
10
136.403425309229
20
44.9835873596531
30
0
0
VERTEX
8
0
10
137.072069550941
20
44.981994468488
30
0
0
VERTEX
8
0
10
137.740713792653
20
44.9795251772862
30
0
0
VERTEX
8
0
10
138.409358034365
20
44.9747428583333
30
0
0
VERTEX
8
0
10
139.078002276077
20
44.9622725266852
30
0
0
VERTEX
8
0
10
139.746646517789
20
44.9488887761663
30
0
0
VERTEX
8
0
10
140.415290759501
20
44.932545313022
30
0
0
VERTEX
8
0
10
141.083935001213
20
44.9142259609426
30
0
0
VERTEX
8
0
10
141.752579242924
20
44.8904255112207
30
0
0
VERTEX
8
0
10
142.421223484636
20
44.86549648922
30
0
0
VERTEX
8
0
10
143.089867726348
20
44.838592669695
30
0
0
VERTEX
8
0
10
143.75851196806
20
44.804842031966
30
0
0
VERTEX
8
0
10
144.427156209772
20
44.7699355559476
30
0
0
VERTEX
8
0
10
145.095800451484
20
44.7323894379666
30
0
0
VERTEX
8
0
10
145.764444693196
20
44.6928335964842
30
0
0
VERTEX
8
0
10
146.433088934908
20
44.6483917457832
30
0
0
VERTEX
8
0
10
147.10173317662
20
44.6026217265121
30
0
0
VERTEX
8
0
10
147.770377418332
20
44.5550946828256
30
0
0
VERTEX
8
0
10
148.439021660043
20
44.5015404852107
30
0
0
VERTEX
8
0
10
149.107665901755
20
44.4466455421603
30
0
0
VERTEX
8
0
10
149.776310143467
20
44.3893643840304
30
0
0
VERTEX
8
0
10
150.444954385179
20
44.3300714938322
30
0
0
VERTEX
8
0
10
151.113598626891
20
44.2664643716117
30
0
0
VERTEX
8
0
10
151.782242868603
20
44.2013898132732
30
0
0
VERTEX
8
0
10
152.450887110315
20
44.134698931685
30
0
0
VERTEX
8
0
10
153.119531352027
20
44.0627843128195
30
0
0
VERTEX
8
0
10
153.788175593739
20
43.9894093327462
30
0
0
SEQEND
8
0
0
POLYLINE
8
0
62
4
70
0
10
0
20
0
30
0
0
VERTEX
8
0
10
8.69237514225481
20
2.16591580246691
30
0
0
VERTEX
8
0
10
9.36101938396672
20
2.34343994731859
30
0
0
VERTEX
8
0
10
10.0296636256786
20
2.52144385296407
30
0
0
VERTEX
8
0
10
10.6983078673905
20
2.69705058209753
30
0
0
VERTEX
8
0
10
11.3669521091024
20
2.87312625547075
30
0
0
VERTEX
8
0
10
12.0355963508144
20
3.05611033623673
30
0
0
VERTEX
8
0
10
12.7042405925263
20
3.23378407347171
30
0
0
VERTEX
8
0
10
13.3728848342382
20
3.41190213764548
30
0
0
VERTEX
8
0
10
14.0415290759501
20
3.59224767411846
30
0
0
VERTEX
8
0
10
14.710173317662
20
3.75985751738191
30
0
0
VERTEX
8
0
10
15.3788175593739
20
3.92686501385356
30
0
0
VERTEX
8
0
10
16.0474618010858
20
4.09415670154898
30
0
0
VERTEX
8
0
10
16.7161060427977
20
4.26629834824093
30
0
0
VERTEX
8
0
10
17.3847502845096
20
4.40339506228047
30
0
0
VERTEX
8
0
10
18.0533945262215
20
4.54666260161311
30
0
0
VERTEX
8
0
10
18.7220387679334
20
4.69244002936975
30
0
0
VERTEX
8
0
10
19.3906830096454
20
4.83842628249838
30
0
0
VERTEX
8
0
10
20.0593272513573
20
4.95949943122925
30
0
0
VERTEX
8
0
10
20.7279714930692
20
5.08599713456762
30
0
0
VERTEX
8
0
10
21.3966157347811
20
5.21796818715718
30
0
0
VERTEX
8
0
10
22.065259976493
20
5.34423616877094
30
0
0
VERTEX
8
0
10
22.7339042182049
20
5.4651941721189
30
0
0
VERTEX
8
0
10
23.4025484599168
20
5.59041091206799
30
0
0
VERTEX
8
0
10
24.0711927016287
20
5.71585584767784
30
0
0
VERTEX
8
0
10
24.7398369433406
20
5.83830836083088
30
0
0
VERTEX
8
0
10
25.4084811850525
20
5.98103135468931
30
0
0
VERTEX
8
0
10
26.0771254267644
20
6.12365729394289
30
0
0
VERTEX
8
0
10
26.7457696684763
20
6.26012667637476
30
0
0
VERTEX
8
0
10
27.4144139101883
20
6.39672194511714
30
0
0
VERTEX
8
0
10
28.0830581519002
20
6.5833276924384
30
0
0
VERTEX
8
0
10
28.7517023936121
20
6.75523323546321
30
0
0
VERTEX
8
0
10
29.420346635324
20
6.92396881464384
30
0
0
VERTEX
8
0
10
30.0889908770359
20
7.08556689141423
30
0
0
VERTEX
8
0
10
30.7576351187478
20
7.24570535045012
30
0
0
VERTEX
8
0
10
31.4262793604597
20
7.39966076976363
30
0
0
VERTEX
8
0
10
32.0949236021716
20
7.55368237720145
30
0
0
VERTEX
8
0
10
32.7635678438835
20
7.69676852176066
30
0
0
VERTEX
8
0
10
33.4322120855954
20
7.82898369763935
30
0
0
VERTEX
8
0
10
34.1008563273073
20
7.95806731247766
30
0
0
VERTEX
8
0
10
34.7695005690193
20
8.08724631781923
30
0
0
VERTEX
8
0
10
35.4381448107312
20
8.2296305619796
30
0
0
VERTEX
8
0
10
36.1067890524431
20
8.37057603403727
30
0
0
VERTEX
8
0
10
36.775433294155
20
8.51158661106316
30
0
0
VERTEX
8
0
10
37.4440775358669
20
8.65542286855093
30
0
0
VERTEX
8
0
10
38.1127217775788
20
8.79525359025373
30
0
0
VERTEX
8
0
10
38.7813660192907
20
8.92985765020827
30
0
0
VERTEX
8
0
10
39.4500102610026
20
9.0645374558072
30
0
0
VERTEX
8
0
10
40.1186545027145
20
9.2050863758103
30
0
0
VERTEX
8
0
10
40.7872987444264
20
9.37820708568557
30
0
0
VERTEX
8
0
10
41.4559429861383
20
9.56720376048415
30
0
0
VERTEX
8
0
10
42.1245872278503
20
9.7592236581407
30
0
0
VERTEX
8
0
10
42.7932314695622
20
9.95140010030391
30
0
0
VERTEX
8
0
10
43.4618757112741
20
10.1531510259342
30
0
0
VERTEX
8
0
10
44.130519952986
20
10.3591061157176
30
0
0
VERTEX
8
0
10
44.7991641946979
20
10.5710606356606
30
0
0
VERTEX
8
0
10
45.4678084364098
20
10.7772304102208
30
0
0
VERTEX
8
0
10
46.1364526781217
20
10.9922480823432
30
0
0
VERTEX
8
0
10
46.8050969198336
20
11.2122879030071
30
0
0
VERTEX
8
0
10
47.4737411615455
20
11.4326427227848
30
0
0
VERTEX
8
0
10
48.1423854032574
20
11.6503081845557
30
0
0
VERTEX
8
0
10
48.8110296449693
20
11.8536168651742
30
0
0
VERTEX
8
0
10
49.4796738866813
20
12.0604645058914
30
0
0
VERTEX
8
0
10
50.1483181283932
20
12.2616528787481
30
0
0
VERTEX
8
0
10
50.8169623701051
20
12.4630920102745
30
0
0
VERTEX
8
0
10
51.485606611817
20
12.6182703042523
30
0
0
VERTEX
8
0
10
52.1542508535289
20
12.7693199187835
30
0
0
VERTEX
8
0
10
52.8228950952408
20
12.9175126591589
30
0
0
VERTEX
8
0
10
53.4915393369527
20
13.0658543477415
30
0
0
VERTEX
8
0
10
54.1601835786646
20
13.2447756339514
30
0
0
VERTEX
8
0
10
54.8288278203765
20
13.4186723439635
30
0
0
VERTEX
8
0
10
55.4974720620884
20
13.5927485545608
30
0
0
VERTEX
8
0
10
56.1661163038003
20
13.7697242820757
30
0
0
VERTEX
8
0
10
56.8347605455123
20
13.973163200968
30
0
0
VERTEX
8
0
10
57.5034047872242
20
14.1732174862486
30
0
0
VERTEX
8
0
10
58.1720490289361
20
14.3735341420049
30
0
0
VERTEX
8
0
10
58.840693270648
20
14.579667324271
30
0
0
VERTEX
8
0
10
59.5093375123599
20
14.7708969960967
30
0
0
VERTEX
8
0
10
60.1779817540718
20
14.9630262447624
30
0
0
VERTEX
8
0
10
60.8466259957837
20
15.158118633575
30
0
0
VERTEX
8
0
10
61.5152702374956
20
15.3534166763247
30
0
0
VERTEX
8
0
10
62.1839144792075
20
15.5435172444871
30
0
0
VERTEX
8
0
10
62.8525587209194
20
15.7341362321272
30
0
0
VERTEX
8
0
10
63.5212029626313
20
15.9305882673654
30
0
0
VERTEX
8
0
10
64.1898472043433
20
16.1214002336006
30
0
0
VERTEX
8
0
10
64.8584914460552
20
16.3047563127737
30
0
0
VERTEX
8
0
10
65.5271356877671
20
16.4922837606364
30
0
0
VERTEX
8
0
10
66.195779929479
20
16.6800243760368
30
0
0
VERTEX
8
0
10
66.8644241711909
20
16.8649964951381
30
0
0
VERTEX
8
0
10
67.5330684129028
20
17.0663379799256
30
0
0
VERTEX
8
0
10
68.2017126546147
20
17.2705659671698
30
0
0
VERTEX
8
0
10
68.8703568963266
20
17.4691270775153
30
0
0
VERTEX
8
0
10
69.5390011380385
20
17.667957505908
30
0
0
VERTEX
8
0
10
70.2076453797504
20
17.9205154649366
30
0
0
VERTEX
8
0
10
70.8762896214623
20
18.1622133084732
30
0
0
VERTEX
8
0
10
71.5449338631742
20
18.4012750557761
30
0
0
VERTEX
8
0
10
72.2135781048862
20
18.6407179928033
30
0
0
VERTEX
8
0
10
72.8822223465981
20
18.9364709282363
30
0
0
VERTEX
8
0
10
73.55086658831
20
19.2142083717944
30
0
0
VERTEX
8
0
10
74.2195108300219
20
19.4924844236938
30
0
0
VERTEX
8
0
10
74.8881550717338
20
19.7740499156135
30
0
0
VERTEX
8
0
10
75.5567993134457
20
20.1774798359477
30
0
0
VERTEX
8
0
10
76.2254435551576
20
20.5451791962862
30
0
0
VERTEX
8
0
10
76.8940877968695
20
20.9139476898518
30
0
0
VERTEX
8
0
10
77.5627320385814
20
21.2892326201176
30
0
0
VERTEX
8
0
10
78.2313762802933
20
21.7354561886786
30
0
0
VERTEX
8
0
10
78.9000205220052
20
22.1599954261804
30
0
0
VERTEX
8
0
10
79.5686647637172
20
22.5884901315215
30
0
0
VERTEX
8
0
10
80.2373090054291
20
23.0181641235931
30
0
0
VERTEX
8
0
10
80.905953247141
20
23.4774611354016
30
0
0
VERTEX
8
0
10
81.5745974888529
20
23.9277670451464
30
0
0
VERTEX
8
0
10
82.2432417305648
20
24.3845212469918
30
0
0
VERTEX
8
0
10
82.9118859722767
20
24.7997388571839
30
0
0
VERTEX
8
0
10
83.5805302139886
20
25.1846557888937
30
0
0
VERTEX
8
0
10
84.2491744557005
20
25.5727613096878
30
0
0
VERTEX
8
0
10
84.9178186974124
20
25.9614453283343
30
0
0
VERTEX
8
0
10
85.5864629391243
20
26.339494372581
30
0
0
VERTEX
8
0
10
86.2551071808362
20
26.7123224197129
30
0
0
VERTEX
8
0
10
86.9237514225482
20
27.0907372936959
30
0
0
VERTEX
8
0
10
87.5923956642601
20
27.4643280724967
30
0
0
VERTEX
8
0
10
88.261039905972
20
27.8710399033509
30
0
0
VERTEX
8
0
10
88.9296841476839
20
28.2984999171131
30
0
0
VERTEX
8
0
10
89.5983283893958
20
28.726485890662
30
0
0
VERTEX
8
0
10
90.2669726311077
20
29.1522261119447
30
0
0
VERTEX
8
0
10
90.9356168728196
20
29.5867265447753
30
0
0
VERTEX
8
0
10
91.6042611145315
20
30.029987705777
30
0
0
VERTEX
8
0
10
92.2729053562434
20
30.468454431718
30
0
0
VERTEX
8
0
10
92.9415495979553
20
30.9071946435057
30
0
0
VERTEX
8
0
10
93.6101938396672
20
31.3228222994177
30
0
0
VERTEX
8
0
10
94.2788380813791
20
31.7301052659961
30
0
0
VERTEX
8
0
10
94.9474823230911
20
32.1350369234202
30
0
0
VERTEX
8
0
10
95.616126564803
20
32.5400783890919
30
0
0
VERTEX
8
0
10
96.2847708065149
20
32.9418727016025
30
0
0
VERTEX
8
0
10
96.9534150482268
20
33.3370775622738
30
0
0
VERTEX
8
0
10
97.6220592899387
20
33.7322859540922
30
0
0
VERTEX
8
0
10
98.2907035316506
20
34.1294691940467
30
0
0
VERTEX
8
0
10
98.9593477733625
20
34.5282654834744
30
0
0
VERTEX
8
0
10
99.6279920150744
20
34.9246910677269
30
0
0
VERTEX
8
0
10
100.296636256786
20
35.3206930543425
30
0
0
VERTEX
8
0
10
100.965280498498
20
35.7203311809165
30
0
0
VERTEX
8
0
10
101.63392474021
20
36.1288009890916
30
0
0
VERTEX
8
0
10
102.302568981922
20
36.5382634636322
30
0
0
VERTEX
8
0
10
102.971213223634
20
36.9492626933674
30
0
0
VERTEX
8
0
10
103.639857465346
20
37.3598314284616
30
0
0
VERTEX
8
0
10
104.308501707058
20
37.787211351165
30
0
0
VERTEX
8
0
10
104.97714594877
20
38.2150924298524
30
0
0
VERTEX
8
0
10
105.645790190482
20
38.6462211666701
30
0
0
VERTEX
8
0
10
106.314434432194
20
39.0733960261166
30
0
0
VERTEX
8
0
10
106.983078673905
20
39.4369853198187
30
0
0
VERTEX
8
0
10
107.651722915617
20
39.8026594621523
30
0
0
VERTEX
8
0
10
108.320367157329
20
40.167884425987
30
0
0
VERTEX
8
0
10
108.989011399041
20
40.5310226234475
30
0
0
VERTEX
8
0
10
109.657655640753
20
40.8644096680842
30
0
0
VERTEX
8
0
10
110.326299882465
20
41.2022657150507
30
0
0
VERTEX
8
0
10
110.994944124177
20
41.5365214654505
30
0
0
VERTEX
8
0
10
111.663588365889
20
41.8704010017334
30
0
0
VERTEX
8
0
10
112.332232607601
20
42.1800424541673
30
0
0
VERTEX
8
0
10
113.000876849313
20
42.4918788202895
30
0
0
VERTEX
8
0
10
113.669521091025
20
42.8018248010512
30
0
0
VERTEX
8
0
10
114.338165332736
20
43.1113915166273
30
0
0
VERTEX
8
0
10
115.006809574448
20
43.4173630281927
30
0
0
VERTEX
8
0
10
115.67545381616
20
43.7210086782479
30
0
0
VERTEX
8
0
10
116.344098057872
20
44.0242897764337
30
0
0
VERTEX
8
0
10
117.012742299584
20
44.3284587568142
30
0
0
VERTEX
8
0
10
117.681386541296
20
44.5828283750651
30
0
0
VERTEX
8
0
10
118.350030783008
20
44.8444471447294
30
0
0
VERTEX
8
0
10
119.01867502472
20
45.1056833002117
30
0
0
VERTEX
8
0
10
119.687319266432
20
45.3688758422917
30
0
0
VERTEX
8
0
10
120.355963508144
20
45.3135704255485
30
0
0
VERTEX
8
0
10
121.024607749856
20
45.3257252306677
30
0
0
VERTEX
8
0
10
121.693251991567
20
45.3386541293187
30
0
0
VERTEX
8
0
10
122.361896233279
20
45.3512083573162
30
0
0
VERTEX
8
0
10
123.030540474991
20
45.3188199676911
30
0
0
VERTEX
8
0
10
123.699184716703
20
45.2968161263002
30
0
0
VERTEX
8
0
10
124.367828958415
20
45.2766274194777
30
0
0
VERTEX
8
0
10
125.036473200127
20
45.2539469246315
30
0
0
VERTEX
8
0
10
125.705117441839
20
45.2309727419015
30
0
0
VERTEX
8
0
10
126.373761683551
20
45.2086990466964
30
0
0
VERTEX
8
0
10
127.042405925263
20
45.1860905086104
30
0
0
VERTEX
8
0
10
127.711050166975
20
45.162143173211
30
0
0
VERTEX
8
0
10
128.379694408687
20
45.1414831506309
30
0
0
VERTEX
8
0
10
129.048338650398
20
45.1213273401961
30
0
0
VERTEX
8
0
10
129.71698289211
20
45.0989056128187
30
0
0
VERTEX
8
0
10
130.385627133822
20
45.0761834422459
30
0
0
VERTEX
8
0
10
131.054271375534
20
45.0503398011603
30
0
0
VERTEX
8
0
10
131.722915617246
20
45.0253648957057
30
0
0
VERTEX
8
0
10
132.391559858958
20
44.9991674448134
30
0
0
VERTEX
8
0
10
133.06020410067
20
45.0059638714938
30
0
0
VERTEX
8
0
10
133.728848342382
20
45.043170292368
30
0
0
VERTEX
8
0
10
134.397492584094
20
45.0782901253332
30
0
0
VERTEX
8
0
10
135.066136825806
20
45.113056980289
30
0
0
VERTEX
8
0
10
135.734781067517
20
45.159919711334
30
0
0
VERTEX
8
0
10
136.403425309229
20
45.2146495566162
30
0
0
VERTEX
8
0
10
137.072069550941
20
45.268220208893
30
0
0
VERTEX
8
0
10
137.740713792653
20
45.3214369562431
30
0
0
VERTEX
8
0
10
138.409358034365
20
45.3518928032814
30
0
0
VERTEX
8
0
10
139.078002276077
20
45.3669897298432
30
0
0
VERTEX
8
0
10
139.746646517789
20
45.381757863353
30
0
0
VERTEX
8
0
10
140.415290759501
20
45.3968530999948
30
0
0
VERTEX
8
0
10
141.083935001213
20
45.4441865780362
30
0
0
VERTEX
8
0
10
141.752579242924
20
45.5051669659017
30
0
0
VERTEX
8
0
10
142.421223484636
20
45.5658100674504
30
0
0
VERTEX
8
0
10
143.089867726348
20
45.6273104470074
30
0
0
VERTEX
8
0
10
143.75851196806
20
45.6577093342921
30
0
0
VERTEX
8
0
10
144.427156209772
20
45.6775115817402
30
0
0
VERTEX
8
0
10
145.095800451484
20
45.6975439780643
30
0
0
VERTEX
8
0
10
145.764444693196
20
45.7172306143478
30
0
0
VERTEX
8
0
10
146.433088934908
20
45.7301232869582
30
0
0
VERTEX
8
0
10
147.10173317662
20
45.7411749054537
30
0
0
VERTEX
8
0
10
147.770377418332
20
45.7529072358748
30
0
0
VERTEX
8
0
10
148.439021660043
20
45.7633072211905
30
0
0
VERTEX
8
0
10
149.107665901755
20
45.773412377621
30
0
0
VERTEX
8
0
10
149.776310143467
20
45.783669185841
30
0
0
VERTEX
8
0
10
150.444954385179
20
45.7936057224007
30
0
0
VERTEX
8
0
10
151.113598626891
20
45.8027937386329
30
0
0
VERTEX
8
0
10
151.782242868603
20
45.8116985905141
30
0
0
VERTEX
8
0
10
152.450887110315
20
45.821109280932
30
0
0
VERTEX
8
0
10
153.119531352027
20
45.8294114465911
30
0
0
VERTEX
8
0
10
153.788175593739
20
45.8374404339479
30
0
0
SEQEND
8
0
0
ENDSEC
0
EOF
