0
SECTION
2
HEADER
9
$ACADVER
1
AC1009
0
ENDSEC
0
SECTION
2
ENTITIES
0
POLYLINE
8
0
62
0
70
1
10
0
20
0
30
0
0
VERTEX
8
0
10
0
20
0
30
0
0
VERTEX
8
0
10
0
20
139.825
30
0
0
VERTEX
8
0
10
179.2
20
139.825
30
0
0
VERTEX
8
0
10
179.2
20
0
30
0
0
SEQEND
8
0
0
TEXT
8
0
62
0
10
0
20
-12
30
0
40
8
1
0
50
0
0
LINE
8
0
62
0
10
17.92
20
0
30
0
11
17.92
21
3.2
31
0
0
LINE
8
0
62
0
10
17.92
20
139.825
30
0
11
17.92
21
136.625
31
0
0
LINE
8
0
62
0
10
35.84
20
0
30
0
11
35.84
21
3.2
31
0
0
LINE
8
0
62
0
10
35.84
20
139.825
30
0
11
35.84
21
136.625
31
0
0
LINE
8
0
62
0
10
53.76
20
0
30
0
11
53.76
21
3.2
31
0
0
LINE
8
0
62
0
10
53.76
20
139.825
30
0
11
53.76
21
136.625
31
0
0
LINE
8
0
62
0
10
71.68
20
0
30
0
11
71.68
21
3.2
31
0
0
LINE
8
0
62
0
10
71.68
20
139.825
30
0
11
71.68
21
136.625
31
0
0
LINE
8
0
62
0
10
89.6
20
0
30
0
11
89.6
21
6.4
31
0
0
LINE
8
0
62
0
10
89.6
20
139.825
30
0
11
89.6
21
133.425
31
0
0
TEXT
8
0
62
0
10
89.6
20
-12
30
0
40
8
1
1
50
0
0
LINE
8
0
62
0
10
107.52
20
0
30
0
11
107.52
21
3.2
31
0
0
LINE
8
0
62
0
10
107.52
20
139.825
30
0
11
107.52
21
136.625
31
0
0
LINE
8
0
62
0
10
125.44
20
0
30
0
11
125.44
21
3.2
31
0
0
LINE
8
0
62
0
10
125.44
20
139.825
30
0
11
125.44
21
136.625
31
0
0
LINE
8
0
62
0
10
143.36
20
0
30
0
11
143.36
21
3.2
31
0
0
LINE
8
0
62
0
10
143.36
20
139.825
30
0
11
143.36
21
136.625
31
0
0
LINE
8
0
62
0
10
161.28
20
0
30
0
11
161.28
21
3.2
31
0
0
LINE
8
0
62
0
10
161.28
20
139.825
30
0
11
161.28
21
136.625
31
0
0
LINE
8
0
62
0
10
179.2
20
0
30
0
11
179.2
21
6.4
31
0
0
LINE
8
0
62
0
10
179.2
20
139.825
30
0
11
179.2
21
133.425
31
0
0
TEXT
8
0
62
0
10
179.2
20
-12
30
0
40
8
1
2
50
0
0
TEXT
8
0
62
0
10
-4
20
-4
30
0
40
8
1
0
50
0
0
LINE
8
0
62
0
10
0
20
10.1690909090909
30
0
11
3.2
21
10.1690909090909
31
0
0
LINE
8
0
62
0
10
179.2
20
10.1690909090909
30
0
11
176
21
10.1690909090909
31
0
0
LINE
8
0
62
0
10
0
20
20.3381818181818
30
0
11
3.2
21
20.3381818181818
31
0
0
LINE
8
0
62
0
10
179.2
20
20.3381818181818
30
0
11
176
21
20.3381818181818
31
0
0
LINE
8
0
62
0
10
0
20
30.5072727272727
30
0
11
3.2
21
30.5072727272727
31
0
0
LINE
8
0
62
0
10
179.2
20
30.5072727272727
30
0
11
176
21
30.5072727272727
31
0
0
LINE
8
0
62
0
10
0
20
40.6763636363636
30
0
11
3.2
21
40.6763636363636
31
0
0
LINE
8
0
62
0
10
179.2
20
40.6763636363636
30
0
11
176
21
40.6763636363636
31
0
0
LINE
8
0
62
0
10
0
20
50.8454545454545
30
0
11
6.4
21
50.8454545454545
31
0
0
LINE
8
0
62
0
10
179.2
20
50.8454545454545
30
0
11
172.8
21
50.8454545454545
31
0
0
TEXT
8
0
62
0
10
-4
20
46.8454545454545
30
0
40
8
1
20
50
0
0
LINE
8
0
62
0
10
0
20
61.0145454545455
30
0
11
3.2
21
61.0145454545455
31
0
0
LINE
8
0
62
0
10
179.2
20
61.0145454545455
30
0
11
176
21
61.0145454545455
31
0
0
LINE
8
0
62
0
10
0
20
71.1836363636364
30
0
11
3.2
21
71.1836363636364
31
0
0
LINE
8
0
62
0
10
179.2
20
71.1836363636364
30
0
11
176
21
71.1836363636364
31
0
0
LINE
8
0
62
0
10
0
20
81.3527272727273
30
0
11
3.2
21
81.3527272727273
31
0
0
LINE
8
0
62
0
10
179.2
20
81.3527272727273
30
0
11
176
21
81.3527272727273
31
0
0
LINE
8
0
62
0
10
0
20
91.5218181818182
30
0
11
3.2
21
91.5218181818182
31
0
0
LINE
8
0
62
0
10
179.2
20
91.5218181818182
30
0
11
176
21
91.5218181818182
31
0
0
LINE
8
0
62
0
10
0
20
101.690909090909
30
0
11
6.4
21
101.690909090909
31
0
0
LINE
8
0
62
0
10
179.2
20
101.690909090909
30
0
11
172.8
21
101.690909090909
31
0
0
TEXT
8
0
62
0
10
-4
20
97.6909090909091
30
0
40
8
1
40
50
0
0
LINE
8
0
62
0
10
0
20
111.86
30
0
11
3.2
21
111.86
31
0
0
LINE
8
0
62
0
10
179.2
20
111.86
30
0
11
176
21
111.86
31
0
0
LINE
8
0
62
0
10
0
20
122.029090909091
30
0
11
3.2
21
122.029090909091
31
0
0
LINE
8
0
62
0
10
179.2
20
122.029090909091
30
0
11
176
21
122.029090909091
31
0
0
LINE
8
0
62
0
10
0
20
132.198181818182
30
0
11
3.2
21
132.198181818182
31
0
0
LINE
8
0
62
0
10
179.2
20
132.198181818182
30
0
11
176
21
132.198181818182
31
0
0
TEXT
8
0
62
0
10
89.6
20
-32
30
0
40
10
1
R (kpc)
50
0
0
TEXT
8
0
62
0
10
-24
20
69.9125
30
0
40
10
1
V (km/s)
50
90
0
TEXT
8
0
62
0
10
72.6
20
154.825
30
0
40
11
1
V vs. R
50
0
0
POLYLINE
8
0
62
5
70
0
10
0
20
0
30
0
0
VERTEX
8
0
10
7.5264
20
1.60308609996823
30
0
0
VERTEX
8
0
10
8.4224
20
1.80272928178641
30
0
0
VERTEX
8
0
10
9.3184
20
2.00237246360459
30
0
0
VERTEX
8
0
10
10.2144
20
2.20201564542278
30
0
0
VERTEX
8
0
10
11.1104
20
2.40907006641373
30
0
0
VERTEX
8
0
10
12.0064
20
2.6161074401511
30
0
0
VERTEX
8
0
10
12.9024
20
2.82314481388847
30
0
0
VERTEX
8
0
10
13.7984
20
3.04577390438545
30
0
0
VERTEX
8
0
10
14.6944
20
3.26759966196121
30
0
0
VERTEX
8
0
10
15.5904
20
3.48942541953696
30
0
0
VERTEX
8
0
10
16.4864
20
3.71125117711272
30
0
0
VERTEX
8
0
10
17.3824
20
3.93307693468848
30
0
0
VERTEX
8
0
10
18.2784
20
4.15490269226424
30
0
0
VERTEX
8
0
10
19.1744
20
4.35531570785535
30
0
0
VERTEX
8
0
10
20.0704
20
4.55865598563313
30
0
0
VERTEX
8
0
10
20.9664
20
4.76199626341091
30
0
0
VERTEX
8
0
10
21.8624
20
4.95638682518779
30
0
0
VERTEX
8
0
10
22.7584
20
5.15233291104637
30
0
0
VERTEX
8
0
10
23.6544
20
5.34827899690495
30
0
0
VERTEX
8
0
10
24.5504
20
5.48821907151601
30
0
0
VERTEX
8
0
10
25.4464
20
5.63980000585944
30
0
0
VERTEX
8
0
10
26.3424
20
5.79138094020287
30
0
0
VERTEX
8
0
10
27.2384
20
5.82633442156688
30
0
0
VERTEX
8
0
10
28.1344
20
5.88918505288001
30
0
0
VERTEX
8
0
10
29.0304
20
5.95203568419314
30
0
0
VERTEX
8
0
10
29.9264
20
6.14623277259204
30
0
0
VERTEX
8
0
10
30.8224
20
6.30520789885467
30
0
0
VERTEX
8
0
10
31.7184
20
6.4641830251173
30
0
0
VERTEX
8
0
10
32.6144
20
6.59169357289289
30
0
0
VERTEX
8
0
10
33.5104
20
6.72848612339794
30
0
0
VERTEX
8
0
10
34.4064
20
6.86527867390299
30
0
0
VERTEX
8
0
10
35.3024
20
6.98576200635398
30
0
0
VERTEX
8
0
10
36.1984
20
7.11146326898024
30
0
0
VERTEX
8
0
10
37.0944
20
7.24102777093039
30
0
0
VERTEX
8
0
10
37.9904
20
7.37412322547584
30
0
0
VERTEX
8
0
10
38.8864
20
7.50721868002129
30
0
0
VERTEX
8
0
10
39.7824
20
7.6190748419122
30
0
0
VERTEX
8
0
10
40.6784
20
7.71519933686169
30
0
0
VERTEX
8
0
10
41.5744
20
7.81132383181119
30
0
0
VERTEX
8
0
10
42.4704
20
7.85880731051231
30
0
0
VERTEX
8
0
10
43.3664
20
7.87729279031029
30
0
0
VERTEX
8
0
10
44.2624
20
7.89577827010827
30
0
0
VERTEX
8
0
10
45.1584
20
7.9393492346311
30
0
0
VERTEX
8
0
10
46.0544
20
7.99480567402503
30
0
0
VERTEX
8
0
10
46.9504
20
8.05026211341897
30
0
0
VERTEX
8
0
10
47.8464
20
8.12462455934491
30
0
0
VERTEX
8
0
10
48.7424
20
8.20596067045602
30
0
0
VERTEX
8
0
10
49.6384
20
8.28729678156712
30
0
0
VERTEX
8
0
10
50.5344
20
8.36284655731921
30
0
0
VERTEX
8
0
10
51.4304
20
8.43678847651114
30
0
0
VERTEX
8
0
10
52.3264
20
8.51073039570306
30
0
0
VERTEX
8
0
10
53.2224
20
8.55073206478165
30
0
0
VERTEX
8
0
10
54.1184
20
8.58400592841801
30
0
0
VERTEX
8
0
10
55.0144
20
8.61727979205437
30
0
0
VERTEX
8
0
10
55.9104
20
8.65055365569074
30
0
0
VERTEX
8
0
10
56.8064
20
8.6838275193271
30
0
0
VERTEX
8
0
10
57.7024
20
8.71710138296346
30
0
0
VERTEX
8
0
10
58.5984
20
8.76425563256007
30
0
0
VERTEX
8
0
10
59.4944
20
8.81231788003482
30
0
0
VERTEX
8
0
10
60.3904
20
8.86038012750957
30
0
0
VERTEX
8
0
10
61.2864
20
8.86083109576784
30
0
0
VERTEX
8
0
10
62.1824
20
8.86083109576784
30
0
0
VERTEX
8
0
10
63.0784
20
8.86083109576784
30
0
0
VERTEX
8
0
10
63.9744
20
8.86083109576784
30
0
0
VERTEX
8
0
10
64.8704
20
8.86083109576784
30
0
0
VERTEX
8
0
10
65.7664
20
8.86083109576784
30
0
0
VERTEX
8
0
10
66.6624
20
8.86083109576784
30
0
0
VERTEX
8
0
10
67.5584
20
8.86083109576784
30
0
0
VERTEX
8
0
10
68.4544
20
8.86083109576784
30
0
0
VERTEX
8
0
10
69.3504
20
8.86083109576784
30
0
0
VERTEX
8
0
10
70.2464
20
8.86083109576784
30
0
0
VERTEX
8
0
10
71.1424
20
8.86083109576784
30
0
0
VERTEX
8
0
10
72.0384
20
8.86083109576784
30
0
0
VERTEX
8
0
10
72.9344
20
8.86083109576784
30
0
0
VERTEX
8
0
10
73.8304
20
8.86083109576784
30
0
0
VERTEX
8
0
10
74.7264
20
8.87470295810128
30
0
0
VERTEX
8
0
10
75.6224
20
8.88579424598006
30
0
0
VERTEX
8
0
10
76.5184
20
8.89688553385884
30
0
0
VERTEX
8
0
10
77.4144
20
8.98503704117229
30
0
0
VERTEX
8
0
10
78.3104
20
9.05528186440461
30
0
0
VERTEX
8
0
10
79.2064
20
9.12552668763694
30
0
0
VERTEX
8
0
10
80.1024
20
9.09059147118747
30
0
0
VERTEX
8
0
10
80.9984
20
9.08319727926828
30
0
0
VERTEX
8
0
10
81.8944
20
9.07580308734909
30
0
0
VERTEX
8
0
10
82.7904
20
8.97479300283938
30
0
0
VERTEX
8
0
10
83.6864
20
8.90085108364746
30
0
0
VERTEX
8
0
10
84.5824000000001
20
8.82690916445555
30
0
0
VERTEX
8
0
10
85.4784000000001
20
8.86083109576784
30
0
0
VERTEX
8
0
10
86.3744000000001
20
8.86083109576784
30
0
0
VERTEX
8
0
10
87.2704000000001
20
8.82872819089263
30
0
0
VERTEX
8
0
10
88.1664000000001
20
8.7658775595795
30
0
0
VERTEX
8
0
10
89.0624000000001
20
8.70302692826636
30
0
0
VERTEX
8
0
10
89.9584000000001
20
8.66514488622497
30
0
0
VERTEX
8
0
10
90.8544000000001
20
8.64665940642699
30
0
0
VERTEX
8
0
10
91.7504000000001
20
8.62817392662901
30
0
0
VERTEX
8
0
10
92.6464000000001
20
8.59150424382175
30
0
0
VERTEX
8
0
10
93.5424000000001
20
8.543441996347
30
0
0
VERTEX
8
0
10
94.4384000000001
20
8.49537974887225
30
0
0
VERTEX
8
0
10
95.3344000000001
20
8.4571788413162
30
0
0
VERTEX
8
0
10
96.2304000000001
20
8.42390497767984
30
0
0
VERTEX
8
0
10
97.1264000000001
20
8.39063111404347
30
0
0
VERTEX
8
0
10
98.0224000000001
20
8.36798782873987
30
0
0
VERTEX
8
0
10
98.9184000000001
20
8.34950234894189
30
0
0
VERTEX
8
0
10
99.8144000000001
20
8.33101686914391
30
0
0
VERTEX
8
0
10
100.7104
20
8.27833193910548
30
0
0
VERTEX
8
0
10
101.6064
20
8.21548130779235
30
0
0
VERTEX
8
0
10
102.5024
20
8.15263067647922
30
0
0
VERTEX
8
0
10
103.3984
20
8.13845626580961
30
0
0
VERTEX
8
0
10
104.2944
20
8.13475916985001
30
0
0
VERTEX
8
0
10
105.1904
20
8.13106207389042
30
0
0
VERTEX
8
0
10
106.0864
20
8.06267351005612
30
0
0
VERTEX
8
0
10
106.9824
20
7.98503449490461
30
0
0
VERTEX
8
0
10
107.8784
20
7.90739547975309
30
0
0
VERTEX
8
0
10
108.7744
20
7.90172100754382
30
0
0
VERTEX
8
0
10
109.6704
20
7.90172100754382
30
0
0
VERTEX
8
0
10
110.5664
20
7.90172100754382
30
0
0
VERTEX
8
0
10
111.4624
20
7.82571796292775
30
0
0
VERTEX
8
0
10
112.3584
20
7.74807894777624
30
0
0
VERTEX
8
0
10
113.2544
20
7.67043993262472
30
0
0
VERTEX
8
0
10
114.1504
20
7.6690309615588
30
0
0
VERTEX
8
0
10
115.0464
20
7.66533386559921
30
0
0
VERTEX
8
0
10
115.9424
20
7.66163676963961
30
0
0
VERTEX
8
0
10
116.8384
20
7.66194348548781
30
0
0
VERTEX
8
0
10
117.7344
20
7.66194348548781
30
0
0
VERTEX
8
0
10
118.6304
20
7.66194348548781
30
0
0
VERTEX
8
0
10
119.5264
20
7.66194348548781
30
0
0
VERTEX
8
0
10
120.4224
20
7.66194348548781
30
0
0
VERTEX
8
0
10
121.3184
20
7.66194348548781
30
0
0
VERTEX
8
0
10
122.2144
20
7.64877819244334
30
0
0
VERTEX
8
0
10
123.1104
20
7.63768690456455
30
0
0
VERTEX
8
0
10
124.0064
20
7.62659561668576
30
0
0
VERTEX
8
0
10
124.9024
20
7.54221247891354
30
0
0
VERTEX
8
0
10
125.7984
20
7.47196765568122
30
0
0
VERTEX
8
0
10
126.6944
20
7.4017228324489
30
0
0
VERTEX
8
0
10
127.5904
20
7.42216596343182
30
0
0
VERTEX
8
0
10
128.4864
20
7.42216596343182
30
0
0
VERTEX
8
0
10
129.3824
20
7.42216596343182
30
0
0
VERTEX
8
0
10
130.2784
20
7.42216596343182
30
0
0
VERTEX
8
0
10
131.1744
20
7.42216596343182
30
0
0
VERTEX
8
0
10
132.0704
20
7.42216596343182
30
0
0
VERTEX
8
0
10
132.9664
20
7.42216596343182
30
0
0
VERTEX
8
0
10
133.8624
20
7.42216596343182
30
0
0
VERTEX
8
0
10
134.7584
20
7.42216596343182
30
0
0
VERTEX
8
0
10
135.6544
20
7.42216596343182
30
0
0
VERTEX
8
0
10
136.5504
20
7.42216596343182
30
0
0
VERTEX
8
0
10
137.4464
20
7.42216596343182
30
0
0
VERTEX
8
0
10
138.3424
20
7.42216596343182
30
0
0
VERTEX
8
0
10
139.2384
20
7.42216596343182
30
0
0
VERTEX
8
0
10
140.1344
20
7.42216596343182
30
0
0
VERTEX
8
0
10
141.0304
20
7.42216596343182
30
0
0
VERTEX
8
0
10
141.9264
20
7.42216596343182
30
0
0
VERTEX
8
0
10
142.8224
20
7.42216596343182
30
0
0
VERTEX
8
0
10
143.7184
20
7.42216596343182
30
0
0
VERTEX
8
0
10
144.6144
20
7.42216596343182
30
0
0
VERTEX
8
0
10
145.5104
20
7.42216596343182
30
0
0
VERTEX
8
0
10
146.4064
20
7.42216596343182
30
0
0
VERTEX
8
0
10
147.3024
20
7.42216596343182
30
0
0
VERTEX
8
0
10
148.1984
20
7.42216596343182
30
0
0
VERTEX
8
0
10
149.0944
20
7.42216596343182
30
0
0
VERTEX
8
0
10
149.9904
20
7.42216596343182
30
0
0
VERTEX
8
0
10
150.8864
20
7.42216596343182
30
0
0
VERTEX
8
0
10
151.7824
20
7.42216596343182
30
0
0
VERTEX
8
0
10
152.6784
20
7.42216596343182
30
0
0
VERTEX
8
0
10
153.5744
20
7.42216596343182
30
0
0
VERTEX
8
0
10
154.4704
20
7.42216596343182
30
0
0
VERTEX
8
0
10
155.3664
20
7.42216596343182
30
0
0
VERTEX
8
0
10
156.2624
20
7.42216596343182
30
0
0
VERTEX
8
0
10
157.1584
20
7.42216596343182
30
0
0
VERTEX
8
0
10
158.0544
20
7.42216596343182
30
0
0
VERTEX
8
0
10
158.9504
20
7.42216596343182
30
0
0
VERTEX
8
0
10
159.8464
20
7.42216596343182
30
0
0
VERTEX
8
0
10
160.7424
20
7.42216596343182
30
0
0
VERTEX
8
0
10
161.6384
20
7.42216596343182
30
0
0
VERTEX
8
0
10
162.5344
20
7.42216596343182
30
0
0
VERTEX
8
0
10
163.4304
20
7.42216596343182
30
0
0
VERTEX
8
0
10
164.3264
20
7.42216596343182
30
0
0
VERTEX
8
0
10
165.2224
20
7.42216596343182
30
0
0
VERTEX
8
0
10
166.1184
20
7.42216596343182
30
0
0
SEQEND
8
0
0
POLYLINE
8
0
62
6
70
0
10
0
20
0
30
0
0
VERTEX
8
0
10
16.6137173928849
20
0
30
0
0
VERTEX
8
0
10
17.3824
20
0.621664172713669
30
0
0
VERTEX
8
0
10
18.2784
20
1.34629498079447
30
0
0
VERTEX
8
0
10
19.1744
20
1.89105875620418
30
0
0
VERTEX
8
0
10
20.0704
20
2.46041153398197
30
0
0
VERTEX
8
0
10
20.9664
20
3.02976431175975
30
0
0
VERTEX
8
0
10
21.8624
20
3.47829592352549
30
0
0
VERTEX
8
0
10
22.7584
20
3.94782711039419
30
0
0
VERTEX
8
0
10
23.6544
20
4.41735829726288
30
0
0
VERTEX
8
0
10
24.5504
20
4.91022532215137
30
0
0
VERTEX
8
0
10
25.4464
20
5.39824198881804
30
0
0
VERTEX
8
0
10
26.3424
20
5.88625865548471
30
0
0
VERTEX
8
0
10
27.2384
20
6.14102041619251
30
0
0
VERTEX
8
0
10
28.1344
20
6.45157647679856
30
0
0
VERTEX
8
0
10
29.0304
20
6.76213253740461
30
0
0
VERTEX
8
0
10
29.9264
20
6.9514457145469
30
0
0
VERTEX
8
0
10
30.8224
20
7.17327147212265
30
0
0
VERTEX
8
0
10
31.7184
20
7.39509722969841
30
0
0
VERTEX
8
0
10
32.6144
20
7.59594660161614
30
0
0
VERTEX
8
0
10
33.5104
20
7.80298397535351
30
0
0
VERTEX
8
0
10
34.4064
20
8.01002134909088
30
0
0
VERTEX
8
0
10
35.3024
20
8.20618591079223
30
0
0
VERTEX
8
0
10
36.1984
20
8.40582909261042
30
0
0
VERTEX
8
0
10
37.0944
20
8.60547227442861
30
0
0
VERTEX
8
0
10
37.9904
20
8.80511545624679
30
0
0
VERTEX
8
0
10
38.8864
20
9.00475863806498
30
0
0
VERTEX
8
0
10
39.7824
20
9.27661541490863
30
0
0
VERTEX
8
0
10
40.6784
20
9.60195985935307
30
0
0
VERTEX
8
0
10
41.5744
20
9.92730430379751
30
0
0
VERTEX
8
0
10
42.4704
20
10.3175034365731
30
0
0
VERTEX
8
0
10
43.3664
20
10.7463665678863
30
0
0
VERTEX
8
0
10
44.2624
20
11.1752296991994
30
0
0
VERTEX
8
0
10
45.1584
20
11.5940586366226
30
0
0
VERTEX
8
0
10
46.0544
20
12.0081333840973
30
0
0
VERTEX
8
0
10
46.9504
20
12.4222081315721
30
0
0
VERTEX
8
0
10
47.8464
20
12.8227785886668
30
0
0
VERTEX
8
0
10
48.7424
20
13.2183678563436
30
0
0
VERTEX
8
0
10
49.6384
20
13.6139571240203
30
0
0
VERTEX
8
0
10
50.5344
20
13.9892942179405
30
0
0
VERTEX
8
0
10
51.4304
20
14.3590038139001
30
0
0
VERTEX
8
0
10
52.3264
20
14.7287134098597
30
0
0
VERTEX
8
0
10
53.2224
20
14.9904313009132
30
0
0
VERTEX
8
0
10
54.1184
20
15.230742538287
30
0
0
VERTEX
8
0
10
55.0144
20
15.4710537756607
30
0
0
VERTEX
8
0
10
55.9104
20
15.6720315703959
30
0
0
VERTEX
8
0
10
56.8064
20
15.8679776562545
30
0
0
VERTEX
8
0
10
57.7024
20
16.0639237421131
30
0
0
VERTEX
8
0
10
58.5984
20
16.218228670091
30
0
0
VERTEX
8
0
10
59.4944
20
16.3698096044344
30
0
0
VERTEX
8
0
10
60.3904
20
16.5213905387778
30
0
0
VERTEX
8
0
10
61.2864
20
16.5081631989104
30
0
0
VERTEX
8
0
10
62.1824
20
16.493374815072
30
0
0
VERTEX
8
0
10
63.0784
20
16.4785864312336
30
0
0
VERTEX
8
0
10
63.9744
20
16.413686743333
30
0
0
VERTEX
8
0
10
64.8704
20
16.3508361120199
30
0
0
VERTEX
8
0
10
65.7664
20
16.2879854807068
30
0
0
VERTEX
8
0
10
66.6624
20
16.2939342795039
30
0
0
VERTEX
8
0
10
67.5584
20
16.2939342795039
30
0
0
VERTEX
8
0
10
68.4544
20
16.2939342795039
30
0
0
VERTEX
8
0
10
69.3504
20
16.2133869163256
30
0
0
VERTEX
8
0
10
70.2464
20
16.1431420930933
30
0
0
VERTEX
8
0
10
71.1424
20
16.072897269861
30
0
0
VERTEX
8
0
10
72.0384
20
16.1001486257966
30
0
0
VERTEX
8
0
10
72.9344
20
16.1112399136754
30
0
0
VERTEX
8
0
10
73.8304
20
16.1223312015542
30
0
0
VERTEX
8
0
10
74.7264
20
16.286012975101
30
0
0
VERTEX
8
0
10
75.6224
20
16.4191084296464
30
0
0
VERTEX
8
0
10
76.5184
20
16.5522038841919
30
0
0
VERTEX
8
0
10
77.4144
20
16.6949318661667
30
0
0
VERTEX
8
0
10
78.3104
20
16.8354215126313
30
0
0
VERTEX
8
0
10
79.2064
20
16.975911159096
30
0
0
VERTEX
8
0
10
80.1024
20
16.9661436060152
30
0
0
VERTEX
8
0
10
80.9984
20
16.995720373692
30
0
0
VERTEX
8
0
10
81.8944
20
17.0252971413687
30
0
0
VERTEX
8
0
10
82.7904
20
17.0132668456719
30
0
0
VERTEX
8
0
10
83.6864
20
17.0132668456719
30
0
0
VERTEX
8
0
10
84.5824000000001
20
17.0132668456719
30
0
0
VERTEX
8
0
10
85.4784000000001
20
17.0132668456719
30
0
0
VERTEX
8
0
10
86.3744000000001
20
17.0132668456719
30
0
0
VERTEX
8
0
10
87.2704000000001
20
17.0132668456719
30
0
0
VERTEX
8
0
10
88.1664000000001
20
17.0132668456719
30
0
0
VERTEX
8
0
10
89.0624000000001
20
17.0132668456719
30
0
0
VERTEX
8
0
10
89.9584000000001
20
16.9903789721728
30
0
0
VERTEX
8
0
10
90.8544000000001
20
16.9497109166173
30
0
0
VERTEX
8
0
10
91.7504000000001
20
16.9090428610617
30
0
0
VERTEX
8
0
10
92.6464000000001
20
16.8615557293777
30
0
0
VERTEX
8
0
10
93.5424000000001
20
16.8097963859433
30
0
0
VERTEX
8
0
10
94.4384000000001
20
16.758037042509
30
0
0
VERTEX
8
0
10
95.3344000000001
20
16.6939510241763
30
0
0
VERTEX
8
0
10
96.2304000000001
20
16.623706200944
30
0
0
VERTEX
8
0
10
97.1264000000001
20
16.5534613777116
30
0
0
VERTEX
8
0
10
98.0224000000001
20
16.4779012653129
30
0
0
VERTEX
8
0
10
98.9184000000001
20
16.4002622501614
30
0
0
VERTEX
8
0
10
99.8144000000001
20
16.3226232350099
30
0
0
VERTEX
8
0
10
100.7104
20
16.2934334410324
30
0
0
VERTEX
8
0
10
101.6064
20
16.278645057194
30
0
0
VERTEX
8
0
10
102.5024
20
16.2638566733556
30
0
0
VERTEX
8
0
10
103.3984
20
16.2034343326639
30
0
0
VERTEX
8
0
10
104.2944
20
16.1331895094316
30
0
0
VERTEX
8
0
10
105.1904
20
16.0629446861993
30
0
0
VERTEX
8
0
10
106.0864
20
16.0541567574479
30
0
0
VERTEX
8
0
10
106.9824
20
16.0541567574479
30
0
0
VERTEX
8
0
10
107.8784
20
16.0541567574479
30
0
0
VERTEX
8
0
10
108.7744
20
16.0541567574479
30
0
0
VERTEX
8
0
10
109.6704
20
16.0541567574479
30
0
0
VERTEX
8
0
10
110.5664
20
16.0541567574479
30
0
0
VERTEX
8
0
10
111.4624
20
16.0541567574479
30
0
0
VERTEX
8
0
10
112.3584
20
16.0541567574479
30
0
0
VERTEX
8
0
10
113.2544
20
16.0541567574479
30
0
0
VERTEX
8
0
10
114.1504
20
16.0122302332008
30
0
0
VERTEX
8
0
10
115.0464
20
15.9715621776453
30
0
0
VERTEX
8
0
10
115.9424
20
15.9308941220897
30
0
0
VERTEX
8
0
10
116.8384
20
15.8902260665342
30
0
0
VERTEX
8
0
10
117.7344
20
15.8495580109786
30
0
0
VERTEX
8
0
10
118.6304
20
15.8088899554231
30
0
0
VERTEX
8
0
10
119.5264
20
15.7933986283354
30
0
0
VERTEX
8
0
10
120.4224
20
15.7749131485374
30
0
0
VERTEX
8
0
10
121.3184
20
15.7564276687394
30
0
0
VERTEX
8
0
10
122.2144
20
15.6852810167635
30
0
0
VERTEX
8
0
10
123.1104
20
15.6224303854504
30
0
0
VERTEX
8
0
10
124.0064
20
15.5595797541373
30
0
0
VERTEX
8
0
10
124.9024
20
15.5425365290075
30
0
0
VERTEX
8
0
10
125.7984
20
15.5166568572904
30
0
0
VERTEX
8
0
10
126.6944
20
15.4907771855732
30
0
0
VERTEX
8
0
10
127.5904
20
15.4219400618593
30
0
0
VERTEX
8
0
10
128.4864
20
15.3627865265058
30
0
0
VERTEX
8
0
10
129.3824
20
15.3036329911523
30
0
0
VERTEX
8
0
10
130.2784
20
15.2196526566719
30
0
0
VERTEX
8
0
10
131.1744
20
15.1420136415204
30
0
0
VERTEX
8
0
10
132.0704
20
15.0643746263688
30
0
0
VERTEX
8
0
10
132.9664
20
15.002208619504
30
0
0
VERTEX
8
0
10
133.8624
20
14.9356608922312
30
0
0
VERTEX
8
0
10
134.7584
20
14.8691131649585
30
0
0
VERTEX
8
0
10
135.6544
20
14.8774651441394
30
0
0
VERTEX
8
0
10
136.5504
20
14.862676760301
30
0
0
VERTEX
8
0
10
137.4464
20
14.8478883764626
30
0
0
VERTEX
8
0
10
138.3424
20
14.7887616835369
30
0
0
VERTEX
8
0
10
139.2384
20
14.7443965320218
30
0
0
VERTEX
8
0
10
140.1344
20
14.7041063850663
30
0
0
VERTEX
8
0
10
141.0304
20
14.6671354254703
30
0
0
VERTEX
8
0
10
141.9264
20
14.6301644658744
30
0
0
VERTEX
8
0
10
142.8224
20
14.6154916251119
30
0
0
VERTEX
8
0
10
143.7184
20
14.6154916251119
30
0
0
VERTEX
8
0
10
144.6144
20
14.6154916251119
30
0
0
VERTEX
8
0
10
145.5104
20
14.6154916251119
30
0
0
VERTEX
8
0
10
146.4064
20
14.6154916251119
30
0
0
VERTEX
8
0
10
147.3024
20
14.6154916251119
30
0
0
VERTEX
8
0
10
148.1984
20
14.6154916251119
30
0
0
VERTEX
8
0
10
149.0944
20
14.6154916251119
30
0
0
VERTEX
8
0
10
149.9904
20
14.6154916251119
30
0
0
VERTEX
8
0
10
150.8864
20
14.5621635519279
30
0
0
VERTEX
8
0
10
151.7824
20
14.4919187286956
30
0
0
VERTEX
8
0
10
152.6784
20
14.4216739054633
30
0
0
VERTEX
8
0
10
153.5744
20
14.4563958426403
30
0
0
VERTEX
8
0
10
154.4704
20
14.5155493779938
30
0
0
VERTEX
8
0
10
155.3664
20
14.5747029133473
30
0
0
VERTEX
8
0
10
156.2624
20
14.5923687699889
30
0
0
VERTEX
8
0
10
157.1584
20
14.6034600578676
30
0
0
VERTEX
8
0
10
158.0544
20
14.6145513457464
30
0
0
VERTEX
8
0
10
158.9504
20
14.6831650152007
30
0
0
VERTEX
8
0
10
159.8464
20
14.7571069343926
30
0
0
VERTEX
8
0
10
160.7424
20
14.8310488535845
30
0
0
VERTEX
8
0
10
161.6384
20
14.937174584748
30
0
0
VERTEX
8
0
10
162.5344
20
15.0443903675763
30
0
0
VERTEX
8
0
10
163.4304
20
15.1516061504046
30
0
0
VERTEX
8
0
10
164.3264
20
15.2402735787975
30
0
0
VERTEX
8
0
10
165.2224
20
15.3292914337358
30
0
0
VERTEX
8
0
10
166.1184
20
15.4183092886741
30
0
0
SEQEND
8
0
0
POLYLINE
8
0
62
1
70
0
10
0
20
0
30
0
0
VERTEX
8
0
10
7.5264
20
1.60308609996823
30
0
0
VERTEX
8
0
10
8.4224
20
1.80272928178641
30
0
0
VERTEX
8
0
10
9.3184
20
2.00237246360459
30
0
0
VERTEX
8
0
10
10.2144
20
2.20201564542278
30
0
0
VERTEX
8
0
10
11.1104
20
2.40907006641373
30
0
0
VERTEX
8
0
10
12.0064
20
2.6161074401511
30
0
0
VERTEX
8
0
10
12.9024
20
2.82314481388847
30
0
0
VERTEX
8
0
10
13.7984
20
3.04577390438545
30
0
0
VERTEX
8
0
10
14.6944
20
3.26759966196121
30
0
0
VERTEX
8
0
10
15.5904
20
3.48942541953696
30
0
0
VERTEX
8
0
10
16.4864
20
3.71125117711272
30
0
0
VERTEX
8
0
10
17.3824
20
3.98190413217274
30
0
0
VERTEX
8
0
10
18.2784
20
4.36757673744801
30
0
0
VERTEX
8
0
10
19.1744
20
4.74814470446174
30
0
0
VERTEX
8
0
10
20.0704
20
5.18024799714263
30
0
0
VERTEX
8
0
10
20.9664
20
5.64411908073815
30
0
0
VERTEX
8
0
10
21.8624
20
6.05510634857136
30
0
0
VERTEX
8
0
10
22.7584
20
6.49090697205058
30
0
0
VERTEX
8
0
10
23.6544
20
6.93665211432229
30
0
0
VERTEX
8
0
10
24.5504
20
7.36416059651394
30
0
0
VERTEX
8
0
10
25.4464
20
7.80694310699971
30
0
0
VERTEX
8
0
10
26.3424
20
8.25761068068807
30
0
0
VERTEX
8
0
10
27.2384
20
8.46512283100655
30
0
0
VERTEX
8
0
10
28.1344
20
8.73529276115265
30
0
0
VERTEX
8
0
10
29.0304
20
9.0085051611982
30
0
0
VERTEX
8
0
10
29.9264
20
9.27894254843605
30
0
0
VERTEX
8
0
10
30.8224
20
9.5504696356016
30
0
0
VERTEX
8
0
10
31.7184
20
9.82207336660177
30
0
0
VERTEX
8
0
10
32.6144
20
10.0572774115822
30
0
0
VERTEX
8
0
10
33.5104
20
10.3033530674428
30
0
0
VERTEX
8
0
10
34.4064
20
10.5495257373608
30
0
0
VERTEX
8
0
10
35.3024
20
10.7769363926815
30
0
0
VERTEX
8
0
10
36.1984
20
11.0104892062174
30
0
0
VERTEX
8
0
10
37.0944
20
11.2466277721522
30
0
0
VERTEX
8
0
10
37.9904
20
11.4851099926095
30
0
0
VERTEX
8
0
10
38.8864
20
11.7236517535905
30
0
0
VERTEX
8
0
10
39.7824
20
12.0044114809007
30
0
0
VERTEX
8
0
10
40.6784
20
12.3175457761739
30
0
0
VERTEX
8
0
10
41.5744
20
12.6320287660224
30
0
0
VERTEX
8
0
10
42.4704
20
12.9696464680985
30
0
0
VERTEX
8
0
10
43.3664
20
13.3242686897127
30
0
0
VERTEX
8
0
10
44.2624
20
13.6831675178148
30
0
0
VERTEX
8
0
10
45.1584
20
14.0518846401072
30
0
0
VERTEX
8
0
10
46.0544
20
14.4260938973686
30
0
0
VERTEX
8
0
10
46.9504
20
14.80263405475
30
0
0
VERTEX
8
0
10
47.8464
20
15.1800255258113
30
0
0
VERTEX
8
0
10
48.7424
20
15.558375214356
30
0
0
VERTEX
8
0
10
49.6384
20
15.9379771778114
30
0
0
VERTEX
8
0
10
50.5344
20
16.2983911861683
30
0
0
VERTEX
8
0
10
51.4304
20
16.6541403358141
30
0
0
VERTEX
8
0
10
52.3264
20
17.0108062883017
30
0
0
VERTEX
8
0
10
53.2224
20
17.257695368475
30
0
0
VERTEX
8
0
10
54.1184
20
17.4831540646046
30
0
0
VERTEX
8
0
10
55.0144
20
17.7090659252241
30
0
0
VERTEX
8
0
10
55.9104
20
17.9009679094028
30
0
0
VERTEX
8
0
10
56.8064
20
18.0887140307103
30
0
0
VERTEX
8
0
10
57.7024
20
18.2766928768114
30
0
0
VERTEX
8
0
10
58.5984
20
18.434834362918
30
0
0
VERTEX
8
0
10
59.4944
20
18.5910627158378
30
0
0
VERTEX
8
0
10
60.3904
20
18.7473379800649
30
0
0
VERTEX
8
0
10
61.2864
20
18.7358954925988
30
0
0
VERTEX
8
0
10
62.1824
20
18.7228667809761
30
0
0
VERTEX
8
0
10
63.0784
20
18.7098406855687
30
0
0
VERTEX
8
0
10
63.9744
20
18.6527059757021
30
0
0
VERTEX
8
0
10
64.8704
20
18.5974237266848
30
0
0
VERTEX
8
0
10
65.7664
20
18.5421896961346
30
0
0
VERTEX
8
0
10
66.6624
20
18.5474155076258
30
0
0
VERTEX
8
0
10
67.5584
20
18.5474155076258
30
0
0
VERTEX
8
0
10
68.4544
20
18.5474155076258
30
0
0
VERTEX
8
0
10
69.3504
20
18.476694590922
30
0
0
VERTEX
8
0
10
70.2464
20
18.4150852386169
30
0
0
VERTEX
8
0
10
71.1424
20
18.3535379247498
30
0
0
VERTEX
8
0
10
72.0384
20
18.3774076920677
30
0
0
VERTEX
8
0
10
72.9344
20
18.3871253670533
30
0
0
VERTEX
8
0
10
73.8304
20
18.3968445957543
30
0
0
VERTEX
8
0
10
74.7264
20
18.547090640305
30
0
0
VERTEX
8
0
10
75.6224
20
18.6693454895017
30
0
0
VERTEX
8
0
10
76.5184
20
18.7917541923697
30
0
0
VERTEX
8
0
10
77.4144
20
18.9592099162171
30
0
0
VERTEX
8
0
10
78.3104
20
19.1162116318005
30
0
0
VERTEX
8
0
10
79.2064
20
19.2732144959862
30
0
0
VERTEX
8
0
10
80.1024
20
19.2480877532278
30
0
0
VERTEX
8
0
10
80.9984
20
19.2706767871509
30
0
0
VERTEX
8
0
10
81.8944
20
19.2932875485811
30
0
0
VERTEX
8
0
10
82.7904
20
19.2353361864526
30
0
0
VERTEX
8
0
10
83.6864
20
19.2009478613767
30
0
0
VERTEX
8
0
10
84.5824000000001
20
19.1667830936647
30
0
0
VERTEX
8
0
10
85.4784000000001
20
19.1824288469882
30
0
0
VERTEX
8
0
10
86.3744000000001
20
19.1824288469882
30
0
0
VERTEX
8
0
10
87.2704000000001
20
19.1676208808162
30
0
0
VERTEX
8
0
10
88.1664000000001
20
19.1387527846404
30
0
0
VERTEX
8
0
10
89.0624000000001
20
19.1100477884324
30
0
0
VERTEX
8
0
10
89.9584000000001
20
19.0724333402249
30
0
0
VERTEX
8
0
10
90.8544000000001
20
19.0278064696814
30
0
0
VERTEX
8
0
10
91.7504000000001
20
18.9831798122807
30
0
0
VERTEX
8
0
10
92.6464000000001
20
18.9242174682737
30
0
0
VERTEX
8
0
10
93.5424000000001
20
18.8562895523435
30
0
0
VERTEX
8
0
10
94.4384000000001
20
18.7883815853216
30
0
0
VERTEX
8
0
10
95.3344000000001
20
18.7139486680819
30
0
0
VERTEX
8
0
10
96.2304000000001
20
18.6362491646866
30
0
0
VERTEX
8
0
10
97.1264000000001
20
18.5585498915014
30
0
0
VERTEX
8
0
10
98.0224000000001
20
18.4809212544002
30
0
0
VERTEX
8
0
10
98.9184000000001
20
18.4033364189501
30
0
0
VERTEX
8
0
10
99.8144000000001
20
18.3257706890064
30
0
0
VERTEX
8
0
10
100.7104
20
18.275851635187
30
0
0
VERTEX
8
0
10
101.6064
20
18.2342649431446
30
0
0
VERTEX
8
0
10
102.5024
20
18.1928123400019
30
0
0
VERTEX
8
0
10
103.3984
20
18.1324503187917
30
0
0
VERTEX
8
0
10
104.2944
20
18.06804113618
30
0
0
VERTEX
8
0
10
105.1904
20
18.0036763590484
30
0
0
VERTEX
8
0
10
106.0864
20
17.9650397528776
30
0
0
VERTEX
8
0
10
106.9824
20
17.9303297537309
30
0
0
VERTEX
8
0
10
107.8784
20
17.8958892616693
30
0
0
VERTEX
8
0
10
108.7744
20
17.8933826895244
30
0
0
VERTEX
8
0
10
109.6704
20
17.8933826895244
30
0
0
VERTEX
8
0
10
110.5664
20
17.8933826895244
30
0
0
VERTEX
8
0
10
111.4624
20
17.859949911128
30
0
0
VERTEX
8
0
10
112.3584
20
17.8260673333656
30
0
0
VERTEX
8
0
10
113.2544
20
17.7924590192788
30
0
0
VERTEX
8
0
10
114.1504
20
17.7540292027015
30
0
0
VERTEX
8
0
10
115.0464
20
17.7157596976673
30
0
0
VERTEX
8
0
10
115.9424
20
17.6775016764001
30
0
0
VERTEX
8
0
10
116.8384
20
17.6409938047824
30
0
0
VERTEX
8
0
10
117.7344
20
17.6043706822535
30
0
0
VERTEX
8
0
10
118.6304
20
17.5677653558296
30
0
0
VERTEX
8
0
10
119.5264
20
17.5538263124686
30
0
0
VERTEX
8
0
10
120.4224
20
17.537196549583
30
0
0
VERTEX
8
0
10
121.3184
20
17.5205705059803
30
0
0
VERTEX
8
0
10
122.2144
20
17.4508409084502
30
0
0
VERTEX
8
0
10
123.1104
20
17.3894966114721
30
0
0
VERTEX
8
0
10
124.0064
20
17.3281702099734
30
0
0
VERTEX
8
0
10
124.9024
20
17.2758620865244
30
0
0
VERTEX
8
0
10
125.7984
20
17.2219900323523
30
0
0
VERTEX
8
0
10
126.6944
20
17.1682753560592
30
0
0
VERTEX
8
0
10
127.5904
20
17.1150455114881
30
0
0
VERTEX
8
0
10
128.4864
20
17.0617630228448
30
0
0
VERTEX
8
0
10
129.3824
20
17.0085193452167
30
0
0
VERTEX
8
0
10
130.2784
20
16.9329966213445
30
0
0
VERTEX
8
0
10
131.1744
20
16.8632477509143
30
0
0
VERTEX
8
0
10
132.0704
20
16.7935681280754
30
0
0
VERTEX
8
0
10
132.9664
20
16.7378257564071
30
0
0
VERTEX
8
0
10
133.8624
20
16.6782047558019
30
0
0
VERTEX
8
0
10
134.7584
20
16.6186363430056
30
0
0
VERTEX
8
0
10
135.6544
20
16.6261094879051
30
0
0
VERTEX
8
0
10
136.5504
20
16.6128777780948
30
0
0
VERTEX
8
0
10
137.4464
20
16.5996486959399
30
0
0
VERTEX
8
0
10
138.3424
20
16.5467827604394
30
0
0
VERTEX
8
0
10
139.2384
20
16.507143201724
30
0
0
VERTEX
8
0
10
140.1344
20
16.4711654770412
30
0
0
VERTEX
8
0
10
141.0304
20
16.4381692769546
30
0
0
VERTEX
8
0
10
141.9264
20
16.4051900289896
30
0
0
VERTEX
8
0
10
142.8224
20
16.3921061194845
30
0
0
VERTEX
8
0
10
143.7184
20
16.3921061194845
30
0
0
VERTEX
8
0
10
144.6144
20
16.3921061194845
30
0
0
VERTEX
8
0
10
145.5104
20
16.3921061194845
30
0
0
VERTEX
8
0
10
146.4064
20
16.3921061194845
30
0
0
VERTEX
8
0
10
147.3024
20
16.3921061194845
30
0
0
VERTEX
8
0
10
148.1984
20
16.3921061194845
30
0
0
VERTEX
8
0
10
149.0944
20
16.3921061194845
30
0
0
VERTEX
8
0
10
149.9904
20
16.3921061194845
30
0
0
VERTEX
8
0
10
150.8864
20
16.3445757027163
30
0
0
VERTEX
8
0
10
151.7824
20
16.2820224796505
30
0
0
VERTEX
8
0
10
152.6784
20
16.2195322319802
30
0
0
VERTEX
8
0
10
153.5744
20
16.2504131746806
30
0
0
VERTEX
8
0
10
154.4704
20
16.3030586496431
30
0
0
VERTEX
8
0
10
155.3664
20
16.3557486102306
30
0
0
VERTEX
8
0
10
156.2624
20
16.3714927208264
30
0
0
VERTEX
8
0
10
157.1584
20
16.3813794672629
30
0
0
VERTEX
8
0
10
158.0544
20
16.3912677553075
30
0
0
VERTEX
8
0
10
158.9504
20
16.4524734448149
30
0
0
VERTEX
8
0
10
159.8464
20
16.518497288247
30
0
0
VERTEX
8
0
10
160.7424
20
16.5845879564774
30
0
0
VERTEX
8
0
10
161.6384
20
16.6795603108706
30
0
0
VERTEX
8
0
10
162.5344
20
16.7756439256664
30
0
0
VERTEX
8
0
10
163.4304
20
16.8718616793081
30
0
0
VERTEX
8
0
10
164.3264
20
16.951533451146
30
0
0
VERTEX
8
0
10
165.2224
20
17.0316095378309
30
0
0
VERTEX
8
0
10
166.1184
20
17.1117739848894
30
0
0
SEQEND
8
0
0
POLYLINE
8
0
62
2
70
0
10
0
20
0
30
0
0
VERTEX
8
0
10
7.5264
20
1.60308609996823
30
0
0
VERTEX
8
0
10
8.4224
20
1.80272928178641
30
0
0
VERTEX
8
0
10
9.3184
20
2.00237246360459
30
0
0
VERTEX
8
0
10
10.2144
20
2.20201564542278
30
0
0
VERTEX
8
0
10
11.1104
20
2.40907006641373
30
0
0
VERTEX
8
0
10
12.0064
20
2.6161074401511
30
0
0
VERTEX
8
0
10
12.9024
20
2.82314481388847
30
0
0
VERTEX
8
0
10
13.7984
20
3.04577390438545
30
0
0
VERTEX
8
0
10
14.6944
20
3.26759966196121
30
0
0
VERTEX
8
0
10
15.5904
20
3.48942541953696
30
0
0
VERTEX
8
0
10
16.4864
20
3.71125117711272
30
0
0
VERTEX
8
0
10
17.3824
20
3.98190413217274
30
0
0
VERTEX
8
0
10
18.2784
20
4.36757673744801
30
0
0
VERTEX
8
0
10
19.1744
20
4.74814470446174
30
0
0
VERTEX
8
0
10
20.0704
20
5.18024799714263
30
0
0
VERTEX
8
0
10
20.9664
20
5.64411908073815
30
0
0
VERTEX
8
0
10
21.8624
20
6.05510634857136
30
0
0
VERTEX
8
0
10
22.7584
20
6.49090697205058
30
0
0
VERTEX
8
0
10
23.6544
20
6.93665211432229
30
0
0
VERTEX
8
0
10
24.5504
20
7.36416059651394
30
0
0
VERTEX
8
0
10
25.4464
20
7.80694310699971
30
0
0
VERTEX
8
0
10
26.3424
20
8.25761068068807
30
0
0
VERTEX
8
0
10
27.2384
20
8.46512283100655
30
0
0
VERTEX
8
0
10
28.1344
20
8.73529276115265
30
0
0
VERTEX
8
0
10
29.0304
20
9.0085051611982
30
0
0
VERTEX
8
0
10
29.9264
20
9.27894254843605
30
0
0
VERTEX
8
0
10
30.8224
20
9.55046963560159
30
0
0
VERTEX
8
0
10
31.7184
20
9.82207336660177
30
0
0
VERTEX
8
0
10
32.6144
20
10.0572774115822
30
0
0
VERTEX
8
0
10
33.5104
20
10.3033530674428
30
0
0
VERTEX
8
0
10
34.4064
20
10.5495257373608
30
0
0
VERTEX
8
0
10
35.3024
20
10.7769363926815
30
0
0
VERTEX
8
0
10
36.1984
20
11.0104892062174
30
0
0
VERTEX
8
0
10
37.0944
20
11.2466277721522
30
0
0
VERTEX
8
0
10
37.9904
20
11.4851099926095
30
0
0
VERTEX
8
0
10
38.8864
20
11.7236517535905
30
0
0
VERTEX
8
0
10
39.7824
20
12.0044114809007
30
0
0
VERTEX
8
0
10
40.6784
20
12.3175457761739
30
0
0
VERTEX
8
0
10
41.5744
20
12.6320287660224
30
0
0
VERTEX
8
0
10
42.4704
20
12.9696464680985
30
0
0
VERTEX
8
0
10
43.3664
20
13.3242686897127
30
0
0
VERTEX
8
0
10
44.2624
20
13.6831675178148
30
0
0
VERTEX
8
0
10
45.1584
20
14.0518846401072
30
0
0
VERTEX
8
0
10
46.0544
20
14.4260938973686
30
0
0
VERTEX
8
0
10
46.9504
20
14.80263405475
30
0
0
VERTEX
8
0
10
47.8464
20
15.1800255258113
30
0
0
VERTEX
8
0
10
48.7424
20
15.558375214356
30
0
0
VERTEX
8
0
10
49.6384
20
15.9379771778114
30
0
0
VERTEX
8
0
10
50.5344
20
16.2983911861683
30
0
0
VERTEX
8
0
10
51.4304
20
16.6541403358141
30
0
0
VERTEX
8
0
10
52.3264
20
17.0108062883017
30
0
0
VERTEX
8
0
10
53.2224
20
17.257695368475
30
0
0
VERTEX
8
0
10
54.1184
20
17.4831540646046
30
0
0
VERTEX
8
0
10
55.0144
20
17.7090659252241
30
0
0
VERTEX
8
0
10
55.9104
20
17.9009679094028
30
0
0
VERTEX
8
0
10
56.8064
20
18.0887140307103
30
0
0
VERTEX
8
0
10
57.7024
20
18.2766928768114
30
0
0
VERTEX
8
0
10
58.5984
20
18.434834362918
30
0
0
VERTEX
8
0
10
59.4944
20
18.5910627158378
30
0
0
VERTEX
8
0
10
60.3904
20
18.7473379800649
30
0
0
VERTEX
8
0
10
61.2864
20
18.7358954925988
30
0
0
VERTEX
8
0
10
62.1824
20
18.7228667809761
30
0
0
VERTEX
8
0
10
63.0784
20
18.7098406855687
30
0
0
VERTEX
8
0
10
63.9744
20
18.6527059757021
30
0
0
VERTEX
8
0
10
64.8704
20
18.5974237266848
30
0
0
VERTEX
8
0
10
65.7664
20
18.5421896961346
30
0
0
VERTEX
8
0
10
66.6624
20
18.5474155076258
30
0
0
VERTEX
8
0
10
67.5584
20
18.5474155076258
30
0
0
VERTEX
8
0
10
68.4544
20
18.5474155076258
30
0
0
VERTEX
8
0
10
69.3504
20
18.476694590922
30
0
0
VERTEX
8
0
10
70.2464
20
18.4150852386169
30
0
0
VERTEX
8
0
10
71.1424
20
18.3535379247498
30
0
0
VERTEX
8
0
10
72.0384
20
18.3774076920677
30
0
0
VERTEX
8
0
10
72.9344
20
18.3871253670533
30
0
0
VERTEX
8
0
10
73.8304
20
18.3968445957543
30
0
0
VERTEX
8
0
10
74.7264
20
18.547090640305
30
0
0
VERTEX
8
0
10
75.6224
20
18.6693454895017
30
0
0
VERTEX
8
0
10
76.5184
20
18.7917541923697
30
0
0
VERTEX
8
0
10
77.4144
20
18.9592099162171
30
0
0
VERTEX
8
0
10
78.3104
20
19.1162116318005
30
0
0
VERTEX
8
0
10
79.2064
20
19.2732144959862
30
0
0
VERTEX
8
0
10
80.1024
20
19.2480877532278
30
0
0
VERTEX
8
0
10
80.9984
20
19.2706767871509
30
0
0
VERTEX
8
0
10
81.8944
20
19.2932875485811
30
0
0
VERTEX
8
0
10
82.7904
20
19.2353361864526
30
0
0
VERTEX
8
0
10
83.6864
20
19.2009478613767
30
0
0
VERTEX
8
0
10
84.5824000000001
20
19.1667830936647
30
0
0
VERTEX
8
0
10
85.4784000000001
20
19.1824288469882
30
0
0
VERTEX
8
0
10
86.3744000000001
20
19.1824288469882
30
0
0
VERTEX
8
0
10
87.2704000000001
20
19.1676208808162
30
0
0
VERTEX
8
0
10
88.1664000000001
20
19.1387527846404
30
0
0
VERTEX
8
0
10
89.0624000000001
20
19.1100477884324
30
0
0
VERTEX
8
0
10
89.9584000000001
20
19.0724333402249
30
0
0
VERTEX
8
0
10
90.8544000000001
20
19.0278064696814
30
0
0
VERTEX
8
0
10
91.7504000000001
20
18.9831798122807
30
0
0
VERTEX
8
0
10
92.6464000000001
20
18.9242174682737
30
0
0
VERTEX
8
0
10
93.5424000000001
20
18.8562895523435
30
0
0
VERTEX
8
0
10
94.4384000000001
20
18.7883815853216
30
0
0
VERTEX
8
0
10
95.3344000000001
20
18.7139486680819
30
0
0
VERTEX
8
0
10
96.2304000000001
20
18.6362491646866
30
0
0
VERTEX
8
0
10
97.1264000000001
20
18.5585498915014
30
0
0
VERTEX
8
0
10
98.0224000000001
20
18.4809212544002
30
0
0
VERTEX
8
0
10
98.9184000000001
20
18.4033364189501
30
0
0
VERTEX
8
0
10
99.8144000000001
20
18.3257706890064
30
0
0
VERTEX
8
0
10
100.7104
20
18.275851635187
30
0
0
VERTEX
8
0
10
101.6064
20
18.2342649431446
30
0
0
VERTEX
8
0
10
102.5024
20
18.1928123400019
30
0
0
VERTEX
8
0
10
103.3984
20
18.1324503187917
30
0
0
VERTEX
8
0
10
104.2944
20
18.06804113618
30
0
0
VERTEX
8
0
10
105.1904
20
18.0036763590484
30
0
0
VERTEX
8
0
10
106.0864
20
17.9650397528776
30
0
0
VERTEX
8
0
10
106.9824
20
17.9303297537309
30
0
0
VERTEX
8
0
10
107.8784
20
17.8958892616693
30
0
0
VERTEX
8
0
10
108.7744
20
17.8933826895244
30
0
0
VERTEX
8
0
10
109.6704
20
17.8933826895244
30
0
0
VERTEX
8
0
10
110.5664
20
17.8933826895244
30
0
0
VERTEX
8
0
10
111.4624
20
17.859949911128
30
0
0
VERTEX
8
0
10
112.3584
20
17.8260673333656
30
0
0
VERTEX
8
0
10
113.2544
20
17.7924590192788
30
0
0
VERTEX
8
0
10
114.1504
20
17.7540292027015
30
0
0
VERTEX
8
0
10
115.0464
20
17.7157596976673
30
0
0
VERTEX
8
0
10
115.9424
20
17.6775016764001
30
0
0
VERTEX
8
0
10
116.8384
20
17.6409938047824
30
0
0
VERTEX
8
0
10
117.7344
20
17.6043706822535
30
0
0
VERTEX
8
0
10
118.6304
20
17.5677653558296
30
0
0
VERTEX
8
0
10
119.5264
20
17.5538263124686
30
0
0
VERTEX
8
0
10
120.4224
20
17.537196549583
30
0
0
VERTEX
8
0
10
121.3184
20
17.5205705059803
30
0
0
VERTEX
8
0
10
122.2144
20
17.4508409084502
30
0
0
VERTEX
8
0
10
123.1104
20
17.3894966114721
30
0
0
VERTEX
8
0
10
124.0064
20
17.3281702099734
30
0
0
VERTEX
8
0
10
124.9024
20
17.2758620865244
30
0
0
VERTEX
8
0
10
125.7984
20
17.2219900323523
30
0
0
VERTEX
8
0
10
126.6944
20
17.1682753560592
30
0
0
VERTEX
8
0
10
127.5904
20
17.1150455114881
30
0
0
VERTEX
8
0
10
128.4864
20
17.0617630228448
30
0
0
VERTEX
8
0
10
129.3824
20
17.0085193452167
30
0
0
VERTEX
8
0
10
130.2784
20
16.9329966213445
30
0
0
VERTEX
8
0
10
131.1744
20
16.8632477509143
30
0
0
VERTEX
8
0
10
132.0704
20
16.7935681280754
30
0
0
VERTEX
8
0
10
132.9664
20
16.7378257564071
30
0
0
VERTEX
8
0
10
133.8624
20
16.6782047558019
30
0
0
VERTEX
8
0
10
134.7584
20
16.6186363430056
30
0
0
VERTEX
8
0
10
135.6544
20
16.6261094879051
30
0
0
VERTEX
8
0
10
136.5504
20
16.6128777780948
30
0
0
VERTEX
8
0
10
137.4464
20
16.5996486959399
30
0
0
VERTEX
8
0
10
138.3424
20
16.5467827604394
30
0
0
VERTEX
8
0
10
139.2384
20
16.507143201724
30
0
0
VERTEX
8
0
10
140.1344
20
16.4711654770412
30
0
0
VERTEX
8
0
10
141.0304
20
16.4381692769546
30
0
0
VERTEX
8
0
10
141.9264
20
16.4051900289896
30
0
0
VERTEX
8
0
10
142.8224
20
16.3921061194845
30
0
0
VERTEX
8
0
10
143.7184
20
16.3921061194845
30
0
0
VERTEX
8
0
10
144.6144
20
16.3921061194845
30
0
0
VERTEX
8
0
10
145.5104
20
16.3921061194845
30
0
0
VERTEX
8
0
10
146.4064
20
16.3921061194845
30
0
0
VERTEX
8
0
10
147.3024
20
16.3921061194845
30
0
0
VERTEX
8
0
10
148.1984
20
16.3921061194845
30
0
0
VERTEX
8
0
10
149.0944
20
16.3921061194845
30
0
0
VERTEX
8
0
10
149.9904
20
16.3921061194845
30
0
0
VERTEX
8
0
10
150.8864
20
16.3445757027163
30
0
0
VERTEX
8
0
10
151.7824
20
16.2820224796505
30
0
0
VERTEX
8
0
10
152.6784
20
16.2195322319802
30
0
0
VERTEX
8
0
10
153.5744
20
16.2504131746806
30
0
0
VERTEX
8
0
10
154.4704
20
16.3030586496431
30
0
0
VERTEX
8
0
10
155.3664
20
16.3557486102306
30
0
0
VERTEX
8
0
10
156.2624
20
16.3714927208264
30
0
0
VERTEX
8
0
10
157.1584
20
16.3813794672629
30
0
0
VERTEX
8
0
10
158.0544
20
16.3912677553075
30
0
0
VERTEX
8
0
10
158.9504
20
16.4524734448149
30
0
0
VERTEX
8
0
10
159.8464
20
16.518497288247
30
0
0
VERTEX
8
0
10
160.7424
20
16.5845879564774
30
0
0
VERTEX
8
0
10
161.6384
20
16.6795603108706
30
0
0
VERTEX
8
0
10
162.5344
20
16.7756439256664
30
0
0
VERTEX
8
0
10
163.4304
20
16.8718616793081
30
0
0
VERTEX
8
0
10
164.3264
20
16.951533451146
30
0
0
VERTEX
8
0
10
165.2224
20
17.0316095378309
30
0
0
VERTEX
8
0
10
166.1184
20
17.1117739848894
30
0
0
SEQEND
8
0
0
POLYLINE
8
0
62
3
70
0
10
0
20
0
30
0
0
VERTEX
8
0
10
7.5264
20
6.41117744984509
30
0
0
VERTEX
8
0
10
8.4224
20
7.17211419369519
30
0
0
VERTEX
8
0
10
9.3184
20
8.24799578264152
30
0
0
VERTEX
8
0
10
10.2144
20
8.98266380940168
30
0
0
VERTEX
8
0
10
11.1104
20
9.81646582976596
30
0
0
VERTEX
8
0
10
12.0064
20
10.8215805024925
30
0
0
VERTEX
8
0
10
12.9024
20
11.6378035905842
30
0
0
VERTEX
8
0
10
13.7984
20
12.5158127032159
30
0
0
VERTEX
8
0
10
14.6944
20
13.4939594513524
30
0
0
VERTEX
8
0
10
15.5904
20
14.3599737932526
30
0
0
VERTEX
8
0
10
16.4864
20
15.2680355172604
30
0
0
VERTEX
8
0
10
17.3824
20
16.2370107389363
30
0
0
VERTEX
8
0
10
18.2784
20
17.1366157718561
30
0
0
VERTEX
8
0
10
19.1744
20
18.0667430541826
30
0
0
VERTEX
8
0
10
20.0704
20
19.0339236426996
30
0
0
VERTEX
8
0
10
20.9664
20
19.9578350054877
30
0
0
VERTEX
8
0
10
21.8624
20
20.9049488335336
30
0
0
VERTEX
8
0
10
22.7584
20
21.8735521193214
30
0
0
VERTEX
8
0
10
23.6544
20
22.8160191983141
30
0
0
VERTEX
8
0
10
24.5504
20
23.7768336398789
30
0
0
VERTEX
8
0
10
25.4464
20
24.7485984585223
30
0
0
VERTEX
8
0
10
26.3424
20
25.7062905152858
30
0
0
VERTEX
8
0
10
27.2384
20
26.6792874378473
30
0
0
VERTEX
8
0
10
28.1344
20
27.6563394452916
30
0
0
VERTEX
8
0
10
29.0304
20
28.6289636499734
30
0
0
VERTEX
8
0
10
29.9264
20
29.6163572755967
30
0
0
VERTEX
8
0
10
30.8224
20
30.6059904038965
30
0
0
VERTEX
8
0
10
31.7184
20
31.6061132707987
30
0
0
VERTEX
8
0
10
32.6144
20
32.6390298714078
30
0
0
VERTEX
8
0
10
33.5104
20
33.6254168659311
30
0
0
VERTEX
8
0
10
34.4064
20
34.5813929194158
30
0
0
VERTEX
8
0
10
35.3024
20
35.5201458173921
30
0
0
VERTEX
8
0
10
36.1984
20
36.4279146155409
30
0
0
VERTEX
8
0
10
37.0944
20
37.3243797766779
30
0
0
VERTEX
8
0
10
37.9904
20
38.2099529354861
30
0
0
VERTEX
8
0
10
38.8864
20
39.0676589508627
30
0
0
VERTEX
8
0
10
39.7824
20
39.9199202629464
30
0
0
VERTEX
8
0
10
40.6784
20
40.7630016812038
30
0
0
VERTEX
8
0
10
41.5744
20
41.5791788251204
30
0
0
VERTEX
8
0
10
42.4704
20
42.3933620233181
30
0
0
VERTEX
8
0
10
43.3664
20
43.1990988266439
30
0
0
VERTEX
8
0
10
44.2624
20
43.9784296078758
30
0
0
VERTEX
8
0
10
45.1584
20
44.7580578224019
30
0
0
VERTEX
8
0
10
46.0544
20
45.5296086591924
30
0
0
VERTEX
8
0
10
46.9504
20
46.2751354243962
30
0
0
VERTEX
8
0
10
47.8464
20
47.0225402373854
30
0
0
VERTEX
8
0
10
48.7424
20
47.7620694480741
30
0
0
VERTEX
8
0
10
49.6384
20
48.4759452193943
30
0
0
VERTEX
8
0
10
50.5344
20
49.1927969974737
30
0
0
VERTEX
8
0
10
51.4304
20
49.9018901042854
30
0
0
VERTEX
8
0
10
52.3264
20
50.5857241940009
30
0
0
VERTEX
8
0
10
53.2224
20
51.2732859815323
30
0
0
VERTEX
8
0
10
54.1184
20
51.9531609469338
30
0
0
VERTEX
8
0
10
55.0144
20
52.6082056873443
30
0
0
VERTEX
8
0
10
55.9104
20
53.2674727392091
30
0
0
VERTEX
8
0
10
56.8064
20
53.9191007337493
30
0
0
VERTEX
8
0
10
57.7024
20
54.5463628387376
30
0
0
VERTEX
8
0
10
58.5984
20
55.1781464943849
30
0
0
VERTEX
8
0
10
59.4944
20
55.802326559517
30
0
0
VERTEX
8
0
10
60.3904
20
56.4026381645077
30
0
0
VERTEX
8
0
10
61.2864
20
57.0076195733288
30
0
0
VERTEX
8
0
10
62.1824
20
57.6050274742727
30
0
0
VERTEX
8
0
10
63.0784
20
58.1790937537069
30
0
0
VERTEX
8
0
10
63.9744
20
58.7578599880621
30
0
0
VERTEX
8
0
10
64.8704
20
59.3290816087636
30
0
0
VERTEX
8
0
10
65.7664
20
59.8775139517671
30
0
0
VERTEX
8
0
10
66.6624
20
60.4305832381883
30
0
0
VERTEX
8
0
10
67.5584
20
60.976138237311
30
0
0
VERTEX
8
0
10
68.4544
20
61.4994781083841
30
0
0
VERTEX
8
0
10
69.3504
20
62.0273180396297
30
0
0
VERTEX
8
0
10
70.2464
20
62.5476771252133
30
0
0
VERTEX
8
0
10
71.1424
20
63.0464137020295
30
0
0
VERTEX
8
0
10
72.0384
20
63.54945476554
30
0
0
VERTEX
8
0
10
72.9344
20
64.0450526565311
30
0
0
VERTEX
8
0
10
73.8304
20
64.5196361927448
30
0
0
VERTEX
8
0
10
74.7264
20
64.9982820884703
30
0
0
VERTEX
8
0
10
75.6224
20
65.4695274879181
30
0
0
VERTEX
8
0
10
76.5184
20
65.9203796726508
30
0
0
VERTEX
8
0
10
77.4144
20
66.3750153822907
30
0
0
VERTEX
8
0
10
78.3104
20
66.8222988389978
30
0
0
VERTEX
8
0
10
79.2064
20
67.2498210084512
30
0
0
VERTEX
8
0
10
80.1024
20
67.6808192634798
30
0
0
VERTEX
8
0
10
80.9984
20
68.1045195189517
30
0
0
VERTEX
8
0
10
81.8944
20
68.5090993106517
30
0
0
VERTEX
8
0
10
82.7904
20
68.9168259063177
30
0
0
VERTEX
8
0
10
83.6864
20
69.3173151434482
30
0
0
VERTEX
8
0
10
84.5824000000001
20
69.6993320101992
30
0
0
VERTEX
8
0
10
85.4784000000001
20
70.0841502817081
30
0
0
VERTEX
8
0
10
86.3744000000001
20
70.4617985724092
30
0
0
VERTEX
8
0
10
87.2704000000001
20
70.8216284567085
30
0
0
VERTEX
8
0
10
88.1664000000001
20
71.1839031461516
30
0
0
VERTEX
8
0
10
89.0624000000001
20
71.5390823144713
30
0
0
VERTEX
8
0
10
89.9584000000001
20
71.8771017045415
30
0
0
VERTEX
8
0
10
90.8544000000001
20
72.2172023871919
30
0
0
VERTEX
8
0
10
91.7504000000001
20
72.5502894489178
30
0
0
VERTEX
8
0
10
92.6464000000001
20
72.8668789820443
30
0
0
VERTEX
8
0
10
93.5424000000001
20
73.1851831790138
30
0
0
VERTEX
8
0
10
94.4384000000001
20
73.4965634798887
30
0
0
VERTEX
8
0
10
95.3344000000001
20
73.7921112195283
30
0
0
VERTEX
8
0
10
96.2304000000001
20
74.0890072943853
30
0
0
VERTEX
8
0
10
97.1264000000001
20
74.3790774414212
30
0
0
VERTEX
8
0
10
98.0224000000001
20
74.6539819264364
30
0
0
VERTEX
8
0
10
98.9184000000001
20
74.9298718424599
30
0
0
VERTEX
8
0
10
99.8144000000001
20
75.1990425030128
30
0
0
VERTEX
8
0
10
100.7104
20
75.4537156470867
30
0
0
VERTEX
8
0
10
101.6064
20
75.7090176466683
30
0
0
VERTEX
8
0
10
102.5024
20
75.9577162756157
30
0
0
VERTEX
8
0
10
103.3984
20
76.1925861800349
30
0
0
VERTEX
8
0
10
104.2944
20
76.4277374368485
30
0
0
VERTEX
8
0
10
105.1904
20
76.6564109817401
30
0
0
VERTEX
8
0
10
106.0864
20
76.8719247138871
30
0
0
VERTEX
8
0
10
106.9824
20
77.0873840004559
30
0
0
VERTEX
8
0
10
107.8784
20
77.2965016269304
30
0
0
VERTEX
8
0
10
108.7744
20
77.4931280088705
30
0
0
VERTEX
8
0
10
109.6704
20
77.6893784164388
30
0
0
VERTEX
8
0
10
110.5664
20
77.8794342906869
30
0
0
VERTEX
8
0
10
111.4624
20
78.057666736445
30
0
0
VERTEX
8
0
10
112.3584
20
78.2352184799731
30
0
0
VERTEX
8
0
10
113.2544
20
78.4067346411587
30
0
0
VERTEX
8
0
10
114.1504
20
78.5670940771683
30
0
0
VERTEX
8
0
10
115.0464
20
78.726487415507
30
0
0
VERTEX
8
0
10
115.9424
20
78.8800167684211
30
0
0
VERTEX
8
0
10
116.8384
20
79.0230546689235
30
0
0
VERTEX
8
0
10
117.7344
20
79.1648629685416
30
0
0
VERTEX
8
0
10
118.6304
20
79.300992425305
30
0
0
VERTEX
8
0
10
119.5264
20
79.4272939928841
30
0
0
VERTEX
8
0
10
120.4224
20
79.5521269628916
30
0
0
VERTEX
8
0
10
121.3184
20
79.6714807620456
30
0
0
VERTEX
8
0
10
122.2144
20
79.7816682831764
30
0
0
VERTEX
8
0
10
123.1104
20
79.8901754098274
30
0
0
VERTEX
8
0
10
124.0064
20
79.9934186419481
30
0
0
VERTEX
8
0
10
124.9024
20
80.0881550484197
30
0
0
VERTEX
8
0
10
125.7984
20
80.181029259133
30
0
0
VERTEX
8
0
10
126.6944
20
80.2688716304031
30
0
0
VERTEX
8
0
10
127.5904
20
80.3488643003329
30
0
0
VERTEX
8
0
10
128.4864
20
80.4268458910598
30
0
0
VERTEX
8
0
10
129.3824
20
80.5000457608429
30
0
0
VERTEX
8
0
10
130.2784
20
80.5660505985273
30
0
0
VERTEX
8
0
10
131.1744
20
80.629931465191
30
0
0
VERTEX
8
0
10
132.0704
20
80.6893002018819
30
0
0
VERTEX
8
0
10
132.9664
20
80.7421260456263
30
0
0
VERTEX
8
0
10
133.8624
20
80.7927542723248
30
0
0
VERTEX
8
0
10
134.7584
20
80.8391609860791
30
0
0
VERTEX
8
0
10
135.6544
20
80.8796744104363
30
0
0
VERTEX
8
0
10
136.5504
20
80.9179592879147
30
0
0
VERTEX
8
0
10
137.4464
20
80.9523360239128
30
0
0
VERTEX
8
0
10
138.3424
20
80.9814666331333
30
0
0
VERTEX
8
0
10
139.2384
20
81.0083842177847
30
0
0
VERTEX
8
0
10
140.1344
20
81.0317317383495
30
0
0
VERTEX
8
0
10
141.0304
20
81.0504781025415
30
0
0
VERTEX
8
0
10
141.9264
20
81.0670774930964
30
0
0
VERTEX
8
0
10
142.8224
20
81.0804718593301
30
0
0
VERTEX
8
0
10
143.7184
20
81.089908347002
30
0
0
VERTEX
8
0
10
144.6144
20
81.0973189830586
30
0
0
VERTEX
8
0
10
145.5104
20
81.1019193058173
30
0
0
VERTEX
8
0
10
146.4064
20
81.1032042676899
30
0
0
VERTEX
8
0
10
147.3024
20
81.1026448099641
30
0
0
VERTEX
8
0
10
148.1984
20
81.0997028682749
30
0
0
VERTEX
8
0
10
149.0944
20
81.0940890533224
30
0
0
VERTEX
8
0
10
149.9904
20
81.0868789637656
30
0
0
VERTEX
8
0
10
150.8864
20
81.07775213009
30
0
0
VERTEX
8
0
10
151.7824
20
81.0666012136571
30
0
0
VERTEX
8
0
10
152.6784
20
81.0541775203651
30
0
0
VERTEX
8
0
10
153.5744
20
81.0403483380928
30
0
0
VERTEX
8
0
10
154.4704
20
81.0251541583402
30
0
0
VERTEX
8
0
10
155.3664
20
81.0090998590987
30
0
0
VERTEX
8
0
10
156.2624
20
80.9922115949845
30
0
0
VERTEX
8
0
10
157.1584
20
80.974646030508
30
0
0
VERTEX
8
0
10
158.0544
20
80.9567518310315
30
0
0
VERTEX
8
0
10
158.9504
20
80.9386955219876
30
0
0
VERTEX
8
0
10
159.8464
20
80.92073794189
30
0
0
VERTEX
8
0
10
160.7424
20
80.9031989260813
30
0
0
VERTEX
8
0
10
161.6384
20
80.886355472753
30
0
0
VERTEX
8
0
10
162.5344
20
80.8703296829301
30
0
0
VERTEX
8
0
10
163.4304
20
80.8550440317182
30
0
0
VERTEX
8
0
10
164.3264
20
80.8403878329496
30
0
0
VERTEX
8
0
10
165.2224
20
80.8262772361254
30
0
0
VERTEX
8
0
10
166.1184
20
80.8126507925082
30
0
0
SEQEND
8
0
0
POLYLINE
8
0
62
4
70
0
10
0
20
0
30
0
0
VERTEX
8
0
10
7.5264
20
4.47901555959554
30
0
0
VERTEX
8
0
10
8.4224
20
5.00228198259574
30
0
0
VERTEX
8
0
10
9.3184
20
5.51215132832045
30
0
0
VERTEX
8
0
10
10.2144
20
6.02781082057775
30
0
0
VERTEX
8
0
10
11.1104
20
6.5434971192007
30
0
0
VERTEX
8
0
10
12.0064
20
7.04527812183564
30
0
0
VERTEX
8
0
10
12.9024
20
7.55355497614599
30
0
0
VERTEX
8
0
10
13.7984
20
8.06483383229388
30
0
0
VERTEX
8
0
10
14.6944
20
8.56181730672138
30
0
0
VERTEX
8
0
10
15.5904
20
9.06566195002919
30
0
0
VERTEX
8
0
10
16.4864
20
9.56657845124529
30
0
0
VERTEX
8
0
10
17.3824
20
16.3198601901116
30
0
0
VERTEX
8
0
10
18.2784
20
17.2896921744748
30
0
0
VERTEX
8
0
10
19.1744
20
18.2826645440402
30
0
0
VERTEX
8
0
10
20.0704
20
19.2657646711864
30
0
0
VERTEX
8
0
10
20.9664
20
20.2549592906622
30
0
0
VERTEX
8
0
10
21.8624
20
21.2342408651026
30
0
0
VERTEX
8
0
10
22.7584
20
22.2008290506103
30
0
0
VERTEX
8
0
10
23.6544
20
23.1961494570106
30
0
0
VERTEX
8
0
10
24.5504
20
24.1894378630683
30
0
0
VERTEX
8
0
10
25.4464
20
25.1663343713714
30
0
0
VERTEX
8
0
10
26.3424
20
26.1708169510411
30
0
0
VERTEX
8
0
10
27.2384
20
27.100839476692
30
0
0
VERTEX
8
0
10
28.1344
20
28.0277806078055
30
0
0
VERTEX
8
0
10
29.0304
20
28.9796578154505
30
0
0
VERTEX
8
0
10
29.9264
20
29.9317022781774
30
0
0
VERTEX
8
0
10
30.8224
20
30.8604166899995
30
0
0
VERTEX
8
0
10
31.7184
20
31.8127915915929
30
0
0
VERTEX
8
0
10
32.6144
20
32.7531805516633
30
0
0
VERTEX
8
0
10
33.5104
20
33.6627816988239
30
0
0
VERTEX
8
0
10
34.4064
20
34.5832349416715
30
0
0
VERTEX
8
0
10
35.3024
20
35.4860653763849
30
0
0
VERTEX
8
0
10
36.1984
20
36.3560659395862
30
0
0
VERTEX
8
0
10
37.0944
20
37.2380613106529
30
0
0
VERTEX
8
0
10
37.9904
20
38.1098968125699
30
0
0
VERTEX
8
0
10
38.8864
20
38.9488159997179
30
0
0
VERTEX
8
0
10
39.7824
20
39.8117287830353
30
0
0
VERTEX
8
0
10
40.6784
20
40.674322761747
30
0
0
VERTEX
8
0
10
41.5744
20
41.5059920231258
30
0
0
VERTEX
8
0
10
42.4704
20
42.3559922425419
30
0
0
VERTEX
8
0
10
43.3664
20
43.2018523879076
30
0
0
VERTEX
8
0
10
44.2624
20
44.0192183090556
30
0
0
VERTEX
8
0
10
45.1584
20
44.8508272046454
30
0
0
VERTEX
8
0
10
46.0544
20
45.6753765180519
30
0
0
VERTEX
8
0
10
46.9504
20
46.4721567246813
30
0
0
VERTEX
8
0
10
47.8464
20
47.2801141025826
30
0
0
VERTEX
8
0
10
48.7424
20
48.0799866876365
30
0
0
VERTEX
8
0
10
49.6384
20
48.8528865556512
30
0
0
VERTEX
8
0
10
50.5344
20
49.6299913065069
30
0
0
VERTEX
8
0
10
51.4304
20
50.3973716867795
30
0
0
VERTEX
8
0
10
52.3264
20
51.1385962785691
30
0
0
VERTEX
8
0
10
53.2224
20
51.8531465744605
30
0
0
VERTEX
8
0
10
54.1184
20
52.552361153146
30
0
0
VERTEX
8
0
10
55.0144
20
53.2259323129269
30
0
0
VERTEX
8
0
10
55.9104
20
53.8974575954798
30
0
0
VERTEX
8
0
10
56.8064
20
54.559602523808
30
0
0
VERTEX
8
0
10
57.7024
20
55.1968884976616
30
0
0
VERTEX
8
0
10
58.5984
20
55.8331256129616
30
0
0
VERTEX
8
0
10
59.4944
20
56.4609180338496
30
0
0
VERTEX
8
0
10
60.3904
20
57.0646163865949
30
0
0
VERTEX
8
0
10
61.2864
20
57.6219241675559
30
0
0
VERTEX
8
0
10
62.1824
20
58.1716942694261
30
0
0
VERTEX
8
0
10
63.0784
20
58.69870898295
30
0
0
VERTEX
8
0
10
63.9744
20
59.2203073238461
30
0
0
VERTEX
8
0
10
64.8704
20
59.7357538344209
30
0
0
VERTEX
8
0
10
65.7664
20
60.2293189919105
30
0
0
VERTEX
8
0
10
66.6624
20
60.7495028098026
30
0
0
VERTEX
8
0
10
67.5584
20
61.2609803897333
30
0
0
VERTEX
8
0
10
68.4544
20
61.7508337583552
30
0
0
VERTEX
8
0
10
69.3504
20
62.226947065936
30
0
0
VERTEX
8
0
10
70.2464
20
62.699065418254
30
0
0
VERTEX
8
0
10
71.1424
20
63.1505271842309
30
0
0
VERTEX
8
0
10
72.0384
20
63.6336740609025
30
0
0
VERTEX
8
0
10
72.9344
20
64.1056165173376
30
0
0
VERTEX
8
0
10
73.8304
20
64.5571530292287
30
0
0
VERTEX
8
0
10
74.7264
20
65.0547819872002
30
0
0
VERTEX
8
0
10
75.6224
20
65.5371586387818
30
0
0
VERTEX
8
0
10
76.5184
20
65.9996344852025
30
0
0
VERTEX
8
0
10
77.4144
20
66.4803690126996
30
0
0
VERTEX
8
0
10
78.3104
20
66.9509610945054
30
0
0
VERTEX
8
0
10
79.2064
20
67.402339643387
30
0
0
VERTEX
8
0
10
80.1024
20
67.8067305392966
30
0
0
VERTEX
8
0
10
80.9984
20
68.2178201465013
30
0
0
VERTEX
8
0
10
81.8944
20
68.6105167145446
30
0
0
VERTEX
8
0
10
82.7904
20
68.9852724885282
30
0
0
VERTEX
8
0
10
83.6864
20
69.3599738277333
30
0
0
VERTEX
8
0
10
84.5824000000001
20
69.7171669051115
30
0
0
VERTEX
8
0
10
85.4784000000001
20
70.0922163907386
30
0
0
VERTEX
8
0
10
86.3744000000001
20
70.4562278179331
30
0
0
VERTEX
8
0
10
87.2704000000001
20
70.7991909494305
30
0
0
VERTEX
8
0
10
88.1664000000001
20
71.1420449618243
30
0
0
VERTEX
8
0
10
89.0624000000001
20
71.4783675426979
30
0
0
VERTEX
8
0
10
89.9584000000001
20
71.7960162216935
30
0
0
VERTEX
8
0
10
90.8544000000001
20
72.1150749652051
30
0
0
VERTEX
8
0
10
91.7504000000001
20
72.4276835160911
30
0
0
VERTEX
8
0
10
92.6464000000001
20
72.72094501327
30
0
0
VERTEX
8
0
10
93.5424000000001
20
73.0147481631346
30
0
0
VERTEX
8
0
10
94.4384000000001
20
73.3022657737586
30
0
0
VERTEX
8
0
10
95.3344000000001
20
73.5732244332769
30
0
0
VERTEX
8
0
10
96.2304000000001
20
73.8458066031459
30
0
0
VERTEX
8
0
10
97.1264000000001
20
74.1122137298441
30
0
0
VERTEX
8
0
10
98.0224000000001
20
74.3644057094346
30
0
0
VERTEX
8
0
10
98.9184000000001
20
74.618614250137
30
0
0
VERTEX
8
0
10
99.8144000000001
20
74.8667380721545
30
0
0
VERTEX
8
0
10
100.7104
20
75.1079812951396
30
0
0
VERTEX
8
0
10
101.6064
20
75.3527190856979
30
0
0
VERTEX
8
0
10
102.5024
20
75.5913867084058
30
0
0
VERTEX
8
0
10
103.3984
20
75.8124543520661
30
0
0
VERTEX
8
0
10
104.2944
20
76.0336552141003
30
0
0
VERTEX
8
0
10
105.1904
20
76.2489429176312
30
0
0
VERTEX
8
0
10
106.0864
20
76.4578991775039
30
0
0
VERTEX
8
0
10
106.9824
20
76.6684172218961
30
0
0
VERTEX
8
0
10
107.8784
20
76.8731221024012
30
0
0
VERTEX
8
0
10
108.7744
20
77.0734284177473
30
0
0
VERTEX
8
0
10
109.6704
20
77.2745254764173
30
0
0
VERTEX
8
0
10
110.5664
20
77.4698312237222
30
0
0
VERTEX
8
0
10
111.4624
20
77.6462277303464
30
0
0
VERTEX
8
0
10
112.3584
20
77.8224345698917
30
0
0
VERTEX
8
0
10
113.2544
20
77.9931179640689
30
0
0
VERTEX
8
0
10
114.1504
20
78.1521867603261
30
0
0
VERTEX
8
0
10
115.0464
20
78.3108897902396
30
0
0
VERTEX
8
0
10
115.9424
20
78.4641791876649
30
0
0
VERTEX
8
0
10
116.8384
20
78.6079889660688
30
0
0
VERTEX
8
0
10
117.7344
20
78.7510677911151
30
0
0
VERTEX
8
0
10
118.6304
20
78.8889051552916
30
0
0
VERTEX
8
0
10
119.5264
20
79.0225347622628
30
0
0
VERTEX
8
0
10
120.4224
20
79.1545598963508
30
0
0
VERTEX
8
0
10
121.3184
20
79.2815004504857
30
0
0
VERTEX
8
0
10
122.2144
20
79.3881186904961
30
0
0
VERTEX
8
0
10
123.1104
20
79.4954151144325
30
0
0
VERTEX
8
0
10
124.0064
20
79.5979030779464
30
0
0
VERTEX
8
0
10
124.9024
20
79.6944108490115
30
0
0
VERTEX
8
0
10
125.7984
20
79.7891745211034
30
0
0
VERTEX
8
0
10
126.6944
20
79.8793576577261
30
0
0
VERTEX
8
0
10
127.5904
20
79.9623170756176
30
0
0
VERTEX
8
0
10
128.4864
20
80.0436802492162
30
0
0
VERTEX
8
0
10
129.3824
20
80.1206653328174
30
0
0
VERTEX
8
0
10
130.2784
20
80.1862325345739
30
0
0
VERTEX
8
0
10
131.1744
20
80.2513268255685
30
0
0
VERTEX
8
0
10
132.0704
20
80.312325413609
30
0
0
VERTEX
8
0
10
132.9664
20
80.3701577800991
30
0
0
VERTEX
8
0
10
133.8624
20
80.4253536148792
30
0
0
VERTEX
8
0
10
134.7584
20
80.4766931086102
30
0
0
VERTEX
8
0
10
135.6544
20
80.5363664368888
30
0
0
VERTEX
8
0
10
136.5504
20
80.589816470988
30
0
0
VERTEX
8
0
10
137.4464
20
80.6396293624899
30
0
0
VERTEX
8
0
10
138.3424
20
80.67637525112
30
0
0
VERTEX
8
0
10
139.2384
20
80.7139004889196
30
0
0
VERTEX
8
0
10
140.1344
20
80.7488615596594
30
0
0
VERTEX
8
0
10
141.0304
20
80.7801164550456
30
0
0
VERTEX
8
0
10
141.9264
20
80.8094496900526
30
0
0
VERTEX
8
0
10
142.8224
20
80.8398199889197
30
0
0
VERTEX
8
0
10
143.7184
20
80.8691004804875
30
0
0
VERTEX
8
0
10
144.6144
20
80.8965115084304
30
0
0
VERTEX
8
0
10
145.5104
20
80.9212558589136
30
0
0
VERTEX
8
0
10
146.4064
20
80.9428373392092
30
0
0
VERTEX
8
0
10
147.3024
20
80.9626753310662
30
0
0
VERTEX
8
0
10
148.1984
20
80.980215387059
30
0
0
VERTEX
8
0
10
149.0944
20
80.9951643690017
30
0
0
VERTEX
8
0
10
149.9904
20
81.0085497116683
30
0
0
VERTEX
8
0
10
150.8864
20
81.0104255810954
30
0
0
VERTEX
8
0
10
151.7824
20
81.0072788955549
30
0
0
VERTEX
8
0
10
152.6784
20
81.0028664686918
30
0
0
VERTEX
8
0
10
153.5744
20
81.0156877490333
30
0
0
VERTEX
8
0
10
154.4704
20
81.0314119521886
30
0
0
VERTEX
8
0
10
155.3664
20
81.0461455670325
30
0
0
VERTEX
8
0
10
156.2624
20
81.0523885531004
30
0
0
VERTEX
8
0
10
157.1584
20
81.0565006899177
30
0
0
VERTEX
8
0
10
158.0544
20
81.059941663627
30
0
0
VERTEX
8
0
10
158.9504
20
81.0731946770306
30
0
0
VERTEX
8
0
10
159.8464
20
81.0870406874776
30
0
0
VERTEX
8
0
10
160.7424
20
81.1006981577763
30
0
0
VERTEX
8
0
10
161.6384
20
81.1202155697541
30
0
0
VERTEX
8
0
10
162.5344
20
81.1400337148638
30
0
0
VERTEX
8
0
10
163.4304
20
81.1599823241761
30
0
0
VERTEX
8
0
10
164.3264
20
81.1765823659461
30
0
0
VERTEX
8
0
10
165.2224
20
81.1933418764145
30
0
0
VERTEX
8
0
10
166.1184
20
81.2101954867253
30
0
0
SEQEND
8
0
0
POLYLINE
8
0
62
2
70
0
10
0
20
0
30
0
0
VERTEX
8
0
10
7.5264
20
1.84101889492509
30
0
0
VERTEX
8
0
10
8.4224
20
1.8933430092603
30
0
0
VERTEX
8
0
10
9.3184
20
2.36804702172361
30
0
0
VERTEX
8
0
10
10.2144
20
2.35905919481708
30
0
0
VERTEX
8
0
10
11.1104
20
2.45597398140057
30
0
0
VERTEX
8
0
10
12.0064
20
2.79263231981635
30
0
0
VERTEX
8
0
10
12.9024
20
2.84062256790633
30
0
0
VERTEX
8
0
10
13.7984
20
2.95378363564276
30
0
0
VERTEX
8
0
10
14.6944
20
3.21629094040461
30
0
0
VERTEX
8
0
10
15.5904
20
3.29148778710889
30
0
0
VERTEX
8
0
10
16.4864
20
3.40947587988678
30
0
0
VERTEX
8
0
10
17.3824
20
3.62742906606861
30
0
0
VERTEX
8
0
10
18.2784
20
3.7156252746516
30
0
0
VERTEX
8
0
10
19.1744
20
3.83357012332598
30
0
0
VERTEX
8
0
10
20.0704
20
4.02184737249612
30
0
0
VERTEX
8
0
10
20.9664
20
4.11589863942129
30
0
0
VERTEX
8
0
10
21.8624
20
4.23153479315845
30
0
0
VERTEX
8
0
10
22.7584
20
4.39842250441163
30
0
0
VERTEX
8
0
10
23.6544
20
4.49446574138426
30
0
0
VERTEX
8
0
10
24.5504
20
4.60667535249149
30
0
0
VERTEX
8
0
10
25.4464
20
4.75719245887194
30
0
0
VERTEX
8
0
10
26.3424
20
4.85301174517873
30
0
0
VERTEX
8
0
10
27.2384
20
4.96123123098173
30
0
0
VERTEX
8
0
10
28.1344
20
5.09862196839752
30
0
0
VERTEX
8
0
10
29.0304
20
5.19288976268973
30
0
0
VERTEX
8
0
10
29.9264
20
5.29684215389863
30
0
0
VERTEX
8
0
10
30.8224
20
5.42331387641984
30
0
0
VERTEX
8
0
10
31.7184
20
5.51521031690484
30
0
0
VERTEX
8
0
10
32.6144
20
5.61477405098016
30
0
0
VERTEX
8
0
10
33.5104
20
5.73189205538756
30
0
0
VERTEX
8
0
10
34.4064
20
5.82090100384988
30
0
0
VERTEX
8
0
10
35.3024
20
5.91604134277109
30
0
0
VERTEX
8
0
10
36.1984
20
6.02495411498035
30
0
0
VERTEX
8
0
10
37.0944
20
6.11074786450798
30
0
0
VERTEX
8
0
10
37.9904
20
6.20147923528535
30
0
0
VERTEX
8
0
10
38.8864
20
6.30305384849942
30
0
0
VERTEX
8
0
10
39.7824
20
6.38542501408205
30
0
0
VERTEX
8
0
10
40.6784
20
6.47178953482604
30
0
0
VERTEX
8
0
10
41.5744
20
6.56669665822249
30
0
0
VERTEX
8
0
10
42.4704
20
6.64551644295522
30
0
0
VERTEX
8
0
10
43.3664
20
6.72757132795146
30
0
0
VERTEX
8
0
10
44.2624
20
6.81634060171883
30
0
0
VERTEX
8
0
10
45.1584
20
6.89153243100826
30
0
0
VERTEX
8
0
10
46.0544
20
6.96934245608592
30
0
0
VERTEX
8
0
10
46.9504
20
7.05239972296927
30
0
0
VERTEX
8
0
10
47.8464
20
7.12392215457082
30
0
0
VERTEX
8
0
10
48.7424
20
7.19755509738834
30
0
0
VERTEX
8
0
10
49.6384
20
7.27524813419963
30
0
0
VERTEX
8
0
10
50.5344
20
7.34308353894565
30
0
0
VERTEX
8
0
10
51.4304
20
7.41260741315554
30
0
0
VERTEX
8
0
10
52.3264
20
7.48522415017974
30
0
0
VERTEX
8
0
10
53.2224
20
7.54937107831583
30
0
0
VERTEX
8
0
10
54.1184
20
7.61485247157386
30
0
0
VERTEX
8
0
10
55.0144
20
7.68263417333082
30
0
0
VERTEX
8
0
10
55.9104
20
7.74310212922652
30
0
0
VERTEX
8
0
10
56.8064
20
7.80460523120802
30
0
0
VERTEX
8
0
10
57.7024
20
7.86775621771893
30
0
0
VERTEX
8
0
10
58.5984
20
7.92456204033481
30
0
0
VERTEX
8
0
10
59.4944
20
7.98214810743962
30
0
0
VERTEX
8
0
10
60.3904
20
8.04084305012963
30
0
0
VERTEX
8
0
10
61.2864
20
8.09400838341291
30
0
0
VERTEX
8
0
10
62.1824
20
8.14773548188115
30
0
0
VERTEX
8
0
10
63.0784
20
8.20212496733821
30
0
0
VERTEX
8
0
10
63.9744
20
8.25167448239676
30
0
0
VERTEX
8
0
10
64.8704
20
8.30159740990336
30
0
0
VERTEX
8
0
10
65.7664
20
8.3518122458784
30
0
0
VERTEX
8
0
10
66.6624
20
8.3977723893802
30
0
0
VERTEX
8
0
10
67.5584
20
8.44394271117119
30
0
0
VERTEX
8
0
10
68.4544
20
8.49009730561577
30
0
0
VERTEX
8
0
10
69.3504
20
8.5324954216673
30
0
0
VERTEX
8
0
10
70.2464
20
8.57496158029023
30
0
0
VERTEX
8
0
10
71.1424
20
8.61715662834285
30
0
0
VERTEX
8
0
10
72.0384
20
8.65602034909698
30
0
0
VERTEX
8
0
10
72.9344
20
8.69482782146189
30
0
0
VERTEX
8
0
10
73.8304
20
8.73315246986547
30
0
0
VERTEX
8
0
10
74.7264
20
8.768509302324
30
0
0
VERTEX
8
0
10
75.6224
20
8.80370078753811
30
0
0
VERTEX
8
0
10
76.5184
20
8.8382344007884
30
0
0
VERTEX
8
0
10
77.4144
20
8.87011145920524
30
0
0
VERTEX
8
0
10
78.3104
20
8.90172708708466
30
0
0
VERTEX
8
0
10
79.2064
20
8.93254070788882
30
0
0
VERTEX
8
0
10
80.1024
20
8.96096455641485
30
0
0
VERTEX
8
0
10
80.9984
20
8.98904211100651
30
0
0
VERTEX
8
0
10
81.8944
20
9.01619968512391
30
0
0
VERTEX
8
0
10
82.7904
20
9.04119626613646
30
0
0
VERTEX
8
0
10
83.6864
20
9.06577142167371
30
0
0
VERTEX
8
0
10
84.5824000000001
20
9.08933084111067
30
0
0
VERTEX
8
0
10
85.4784000000001
20
9.11092547240585
30
0
0
VERTEX
8
0
10
86.3744000000001
20
9.13203204147671
30
0
0
VERTEX
8
0
10
87.2704000000001
20
9.15204604839835
30
0
0
VERTEX
8
0
10
88.1664000000001
20
9.17026347825112
30
0
0
VERTEX
8
0
10
89.0624000000001
20
9.18793367372834
30
0
0
VERTEX
8
0
10
89.9584000000001
20
9.20445065914098
30
0
0
VERTEX
8
0
10
90.8544000000001
20
9.21931517262126
30
0
0
VERTEX
8
0
10
91.7504000000001
20
9.23357988645237
30
0
0
VERTEX
8
0
10
92.6464000000001
20
9.24664461177844
30
0
0
VERTEX
8
0
10
93.5424000000001
20
9.25818018531619
30
0
0
VERTEX
8
0
10
94.4384000000001
20
9.26906928877677
30
0
0
VERTEX
8
0
10
95.3344000000001
20
9.27872355435797
30
0
0
VERTEX
8
0
10
96.2304000000001
20
9.2869540585583
30
0
0
VERTEX
8
0
10
97.1264000000001
20
9.2944967300334
30
0
0
VERTEX
8
0
10
98.0224000000001
20
9.30078001194859
30
0
0
VERTEX
8
0
10
98.9184000000001
20
9.30572946551788
30
0
0
VERTEX
8
0
10
99.8144000000001
20
9.30995455355322
30
0
0
VERTEX
8
0
10
100.7104
20
9.31290462875967
30
0
0
VERTEX
8
0
10
101.6064
20
9.31459750909539
30
0
0
VERTEX
8
0
10
102.5024
20
9.31553394047077
30
0
0
VERTEX
8
0
10
103.3984
20
9.31518751989802
30
0
0
VERTEX
8
0
10
104.2944
20
9.31364913893007
30
0
0
VERTEX
8
0
10
105.1904
20
9.31132638388449
30
0
0
VERTEX
8
0
10
106.0864
20
9.30771977385819
30
0
0
VERTEX
8
0
10
106.9824
20
9.30297673101889
30
0
0
VERTEX
8
0
10
107.8784
20
9.29742534083753
30
0
0
VERTEX
8
0
10
108.7744
20
9.29059515503914
30
0
0
VERTEX
8
0
10
109.6704
20
9.28267588328399
30
0
0
VERTEX
8
0
10
110.5664
20
9.27392811930998
30
0
0
VERTEX
8
0
10
111.4624
20
9.26391206655967
30
0
0
VERTEX
8
0
10
112.3584
20
9.25284749228823
30
0
0
VERTEX
8
0
10
113.2544
20
9.24093807050429
30
0
0
VERTEX
8
0
10
114.1504
20
9.22777584823687
30
0
0
VERTEX
8
0
10
115.0464
20
9.21360019227527
30
0
0
VERTEX
8
0
10
115.9424
20
9.19856717416056
30
0
0
VERTEX
8
0
10
116.8384
20
9.18230150406007
30
0
0
VERTEX
8
0
10
117.7344
20
9.16505325903516
30
0
0
VERTEX
8
0
10
118.6304
20
9.14693912824833
30
0
0
VERTEX
8
0
10
119.5264
20
9.12761697950947
30
0
0
VERTEX
8
0
10
120.4224
20
9.10734010979744
30
0
0
VERTEX
8
0
10
121.3184
20
9.0861930859497
30
0
0
VERTEX
8
0
10
122.2144
20
9.0638671442789
30
0
0
VERTEX
8
0
10
123.1104
20
9.04061256926613
30
0
0
VERTEX
8
0
10
124.0064
20
9.01648822613539
30
0
0
VERTEX
8
0
10
124.9024
20
8.99121868399864
30
0
0
VERTEX
8
0
10
125.7984
20
8.96504612537886
30
0
0
VERTEX
8
0
10
126.6944
20
8.93800940304006
30
0
0
VERTEX
8
0
10
127.5904
20
8.90986617114074
30
0
0
VERTEX
8
0
10
128.4864
20
8.88084647279179
30
0
0
VERTEX
8
0
10
129.3824
20
8.85097420431803
30
0
0
VERTEX
8
0
10
130.2784
20
8.8200396791012
30
0
0
VERTEX
8
0
10
131.1744
20
8.78825774776386
30
0
0
VERTEX
8
0
10
132.0704
20
8.75564186596116
30
0
0
VERTEX
8
0
10
132.9664
20
8.72201443857343
30
0
0
VERTEX
8
0
10
133.8624
20
8.68757301149816
30
0
0
VERTEX
8
0
10
134.7584
20
8.65232466725944
30
0
0
VERTEX
8
0
10
135.6544
20
8.61612323500978
30
0
0
VERTEX
8
0
10
136.5504
20
8.57914776801799
30
0
0
VERTEX
8
0
10
137.4464
20
8.54140269268077
30
0
0
VERTEX
8
0
10
138.3424
20
8.50277255087595
30
0
0
VERTEX
8
0
10
139.2384
20
8.46341765675851
30
0
0
VERTEX
8
0
10
140.1344
20
8.42334326079428
30
0
0
VERTEX
8
0
10
141.0304
20
8.38246394123714
30
0
0
VERTEX
8
0
10
141.9264
20
8.3409220320591
30
0
0
VERTEX
8
0
10
142.8224
20
8.29872699934047
30
0
0
VERTEX
8
0
10
143.7184
20
8.25582294257194
30
0
0
VERTEX
8
0
10
144.6144
20
8.21233611822472
30
0
0
VERTEX
8
0
10
145.5104
20
8.16828372998677
30
0
0
VERTEX
8
0
10
146.4064
20
8.12363926363198
30
0
0
VERTEX
8
0
10
147.3024
20
8.0785162176906
30
0
0
VERTEX
8
0
10
148.1984
20
8.03294355718835
30
0
0
VERTEX
8
0
10
149.0944
20
7.98692482019956
30
0
0
VERTEX
8
0
10
149.9904
20
7.94056603997117
30
0
0
VERTEX
8
0
10
150.8864
20
7.89391319900376
30
0
0
VERTEX
8
0
10
151.7824
20
7.84700227075277
30
0
0
VERTEX
8
0
10
152.6784
20
7.79994035255502
30
0
0
VERTEX
8
0
10
153.5744
20
7.7527986538883
30
0
0
VERTEX
8
0
10
154.4704
20
7.70565205871288
30
0
0
VERTEX
8
0
10
155.3664
20
7.65862398394078
30
0
0
VERTEX
8
0
10
156.2624
20
7.61182723338425
30
0
0
VERTEX
8
0
10
157.1584
20
7.56539429156952
30
0
0
VERTEX
8
0
10
158.0544
20
7.51950038828048
30
0
0
VERTEX
8
0
10
158.9504
20
7.47434818705566
30
0
0
VERTEX
8
0
10
159.8464
20
7.43020234645084
30
0
0
VERTEX
8
0
10
160.7424
20
7.38741667417347
30
0
0
VERTEX
8
0
10
161.6384
20
7.34637037208216
30
0
0
VERTEX
8
0
10
162.5344
20
7.30716913908675
30
0
0
VERTEX
8
0
10
163.4304
20
7.26958244625119
30
0
0
VERTEX
8
0
10
164.3264
20
7.23335118551032
30
0
0
VERTEX
8
0
10
165.2224
20
7.19828753489562
30
0
0
VERTEX
8
0
10
166.1184
20
7.16425633794605
30
0
0
SEQEND
8
0
0
POLYLINE
8
0
62
3
70
0
10
0
20
0
30
0
0
VERTEX
8
0
10
7.5264
20
4.56957830774994
30
0
0
VERTEX
8
0
10
8.4224
20
5.03564692176751
30
0
0
VERTEX
8
0
10
9.3184
20
5.65525980662224
30
0
0
VERTEX
8
0
10
10.2144
20
6.08693606592336
30
0
0
VERTEX
8
0
10
11.1104
20
6.56091031499545
30
0
0
VERTEX
8
0
10
12.0064
20
7.11271544132653
30
0
0
VERTEX
8
0
10
12.9024
20
7.56010467591377
30
0
0
VERTEX
8
0
10
13.7984
20
8.03054442936888
30
0
0
VERTEX
8
0
10
14.6944
20
8.54236708741515
30
0
0
VERTEX
8
0
10
15.5904
20
8.9913307516954
30
0
0
VERTEX
8
0
10
16.4864
20
9.4536005701394
30
0
0
VERTEX
8
0
10
17.3824
20
9.9378977229118
30
0
0
VERTEX
8
0
10
18.2784
20
10.3821430175395
30
0
0
VERTEX
8
0
10
19.1744
20
10.8342748783931
30
0
0
VERTEX
8
0
10
20.0704
20
11.2971562319827
30
0
0
VERTEX
8
0
10
20.9664
20
11.7336425697028
30
0
0
VERTEX
8
0
10
21.8624
20
12.1747306697751
30
0
0
VERTEX
8
0
10
22.7584
20
12.6195349211668
30
0
0
VERTEX
8
0
10
23.6544
20
13.0466661139744
30
0
0
VERTEX
8
0
10
24.5504
20
13.4762726113406
30
0
0
VERTEX
8
0
10
25.4464
20
13.9049934620444
30
0
0
VERTEX
8
0
10
26.3424
20
14.3218789930751
30
0
0
VERTEX
8
0
10
27.2384
20
14.7397925873236
30
0
0
VERTEX
8
0
10
28.1344
20
15.1537070202225
30
0
0
VERTEX
8
0
10
29.0304
20
15.5598304181316
30
0
0
VERTEX
8
0
10
29.9264
20
15.9659579028238
30
0
0
VERTEX
8
0
10
30.8224
20
16.3659317365986
30
0
0
VERTEX
8
0
10
31.7184
20
16.7609881361136
30
0
0
VERTEX
8
0
10
32.6144
20
17.1553015117461
30
0
0
VERTEX
8
0
10
33.5104
20
17.5419505900342
30
0
0
VERTEX
8
0
10
34.4064
20
17.9257613113018
30
0
0
VERTEX
8
0
10
35.3024
20
18.3082703014502
30
0
0
VERTEX
8
0
10
36.1984
20
18.6820512835394
30
0
0
VERTEX
8
0
10
37.0944
20
19.0545162833979
30
0
0
VERTEX
8
0
10
37.9904
20
19.4252533425707
30
0
0
VERTEX
8
0
10
38.8864
20
19.7865176612451
30
0
0
VERTEX
8
0
10
39.7824
20
20.147587822133
30
0
0
VERTEX
8
0
10
40.6784
20
20.506599657459
30
0
0
VERTEX
8
0
10
41.5744
20
20.855627060093
30
0
0
VERTEX
8
0
10
42.4704
20
21.2052874273371
30
0
0
VERTEX
8
0
10
43.3664
20
21.5526300838122
30
0
0
VERTEX
8
0
10
44.2624
20
21.8896502984912
30
0
0
VERTEX
8
0
10
45.1584
20
22.22790963089
30
0
0
VERTEX
8
0
10
46.0544
20
22.5636456055762
30
0
0
VERTEX
8
0
10
46.9504
20
22.8888528136996
30
0
0
VERTEX
8
0
10
47.8464
20
23.215736913525
30
0
0
VERTEX
8
0
10
48.7424
20
23.5399334647247
30
0
0
VERTEX
8
0
10
49.6384
20
23.8534962617917
30
0
0
VERTEX
8
0
10
50.5344
20
24.1690436419911
30
0
0
VERTEX
8
0
10
51.4304
20
24.4817718233768
30
0
0
VERTEX
8
0
10
52.3264
20
24.7838402638736
30
0
0
VERTEX
8
0
10
53.2224
20
25.0880993027846
30
0
0
VERTEX
8
0
10
54.1184
20
25.3894334492873
30
0
0
VERTEX
8
0
10
55.0144
20
25.6801441576263
30
0
0
VERTEX
8
0
10
55.9104
20
25.9731712253513
30
0
0
VERTEX
8
0
10
56.8064
20
26.2631887279001
30
0
0
VERTEX
8
0
10
57.7024
20
26.5426686977097
30
0
0
VERTEX
8
0
10
58.5984
20
26.8245269327521
30
0
0
VERTEX
8
0
10
59.4944
20
27.1033082028157
30
0
0
VERTEX
8
0
10
60.3904
20
27.3716776894232
30
0
0
VERTEX
8
0
10
61.2864
20
27.6424362207946
30
0
0
VERTEX
8
0
10
62.1824
20
27.9100647834294
30
0
0
VERTEX
8
0
10
63.0784
20
28.1674395593371
30
0
0
VERTEX
8
0
10
63.9744
20
28.4271730411218
30
0
0
VERTEX
8
0
10
64.8704
20
28.6837357183242
30
0
0
VERTEX
8
0
10
65.7664
20
28.9302288754536
30
0
0
VERTEX
8
0
10
66.6624
20
29.1790172460329
30
0
0
VERTEX
8
0
10
67.5584
20
29.424604406474
30
0
0
VERTEX
8
0
10
68.4544
20
29.6603278328976
30
0
0
VERTEX
8
0
10
69.3504
20
29.8982562401494
30
0
0
VERTEX
8
0
10
70.2464
20
30.132962100472
30
0
0
VERTEX
8
0
10
71.1424
20
30.3580277221977
30
0
0
VERTEX
8
0
10
72.0384
20
30.5851865750946
30
0
0
VERTEX
8
0
10
72.9344
20
30.8091095438131
30
0
0
VERTEX
8
0
10
73.8304
20
31.0236303970133
30
0
0
VERTEX
8
0
10
74.7264
20
31.2401155168383
30
0
0
VERTEX
8
0
10
75.6224
20
31.4533585757638
30
0
0
VERTEX
8
0
10
76.5184
20
31.6574497575896
30
0
0
VERTEX
8
0
10
77.4144
20
31.8633626106869
30
0
0
VERTEX
8
0
10
78.3104
20
32.0660337314134
30
0
0
VERTEX
8
0
10
79.2064
20
32.2598132655116
30
0
0
VERTEX
8
0
10
80.1024
20
32.4552612655261
30
0
0
VERTEX
8
0
10
80.9984
20
32.6474738603199
30
0
0
VERTEX
8
0
10
81.8944
20
32.8310635047002
30
0
0
VERTEX
8
0
10
82.7904
20
33.0161603765283
30
0
0
VERTEX
8
0
10
83.6864
20
33.1980337842371
30
0
0
VERTEX
8
0
10
84.5824000000001
20
33.3715598031174
30
0
0
VERTEX
8
0
10
85.4784000000001
20
33.5464260038467
30
0
0
VERTEX
8
0
10
86.3744000000001
20
33.7180860124018
30
0
0
VERTEX
8
0
10
87.2704000000001
20
33.8816799293411
30
0
0
VERTEX
8
0
10
88.1664000000001
20
34.046443123727
30
0
0
VERTEX
8
0
10
89.0624000000001
20
34.2080225315227
30
0
0
VERTEX
8
0
10
89.9584000000001
20
34.3618218780474
30
0
0
VERTEX
8
0
10
90.8544000000001
20
34.5166174677588
30
0
0
VERTEX
8
0
10
91.7504000000001
20
34.6682566867719
30
0
0
VERTEX
8
0
10
92.6464000000001
20
34.8124057584645
30
0
0
VERTEX
8
0
10
93.5424000000001
20
34.9573774656527
30
0
0
VERTEX
8
0
10
94.4384000000001
20
35.0992251696676
30
0
0
VERTEX
8
0
10
95.3344000000001
20
35.2338758000853
30
0
0
VERTEX
8
0
10
96.2304000000001
20
35.3691763068609
30
0
0
VERTEX
8
0
10
97.1264000000001
20
35.501390128583
30
0
0
VERTEX
8
0
10
98.0224000000001
20
35.6267024902336
30
0
0
VERTEX
8
0
10
98.9184000000001
20
35.7524941365152
30
0
0
VERTEX
8
0
10
99.8144000000001
20
35.8752414177579
30
0
0
VERTEX
8
0
10
100.7104
20
35.9913848585878
30
0
0
VERTEX
8
0
10
101.6064
20
36.10784040149
30
0
0
VERTEX
8
0
10
102.5024
20
36.2212990010112
30
0
0
VERTEX
8
0
10
103.3984
20
36.3284529243351
30
0
0
VERTEX
8
0
10
104.2944
20
36.4357563629319
30
0
0
VERTEX
8
0
10
105.1904
20
36.5401155268693
30
0
0
VERTEX
8
0
10
106.0864
20
36.6384703223698
30
0
0
VERTEX
8
0
10
106.9824
20
36.7368177922426
30
0
0
VERTEX
8
0
10
107.8784
20
36.8322790924987
30
0
0
VERTEX
8
0
10
108.7744
20
36.9220371257949
30
0
0
VERTEX
8
0
10
109.6704
20
37.0116378683514
30
0
0
VERTEX
8
0
10
110.5664
20
37.0984162146909
30
0
0
VERTEX
8
0
10
111.4624
20
37.1797928829933
30
0
0
VERTEX
8
0
10
112.3584
20
37.2608702951085
30
0
0
VERTEX
8
0
10
113.2544
20
37.339195027202
30
0
0
VERTEX
8
0
10
114.1504
20
37.4124198887245
30
0
0
VERTEX
8
0
10
115.0464
20
37.4852126588658
30
0
0
VERTEX
8
0
10
115.9424
20
37.5553287250378
30
0
0
VERTEX
8
0
10
116.8384
20
37.6206467101849
30
0
0
VERTEX
8
0
10
117.7344
20
37.6854100478654
30
0
0
VERTEX
8
0
10
118.6304
20
37.7475792779841
30
0
0
VERTEX
8
0
10
119.5264
20
37.8052519908252
30
0
0
VERTEX
8
0
10
120.4224
20
37.8622589570841
30
0
0
VERTEX
8
0
10
121.3184
20
37.9167614378683
30
0
0
VERTEX
8
0
10
122.2144
20
37.9670685572446
30
0
0
VERTEX
8
0
10
123.1104
20
38.016611504952
30
0
0
VERTEX
8
0
10
124.0064
20
38.0637470671753
30
0
0
VERTEX
8
0
10
124.9024
20
38.106987858006
30
0
0
VERTEX
8
0
10
125.7984
20
38.1493799923638
30
0
0
VERTEX
8
0
10
126.6944
20
38.1894698211661
30
0
0
VERTEX
8
0
10
127.5904
20
38.2259647684494
30
0
0
VERTEX
8
0
10
128.4864
20
38.2615418403844
30
0
0
VERTEX
8
0
10
129.3824
20
38.2949302225648
30
0
0
VERTEX
8
0
10
130.2784
20
38.3250228036206
30
0
0
VERTEX
8
0
10
131.1744
20
38.3541449524146
30
0
0
VERTEX
8
0
10
132.0704
20
38.3812011788184
30
0
0
VERTEX
8
0
10
132.9664
20
38.4052597942909
30
0
0
VERTEX
8
0
10
133.8624
20
38.4283135616967
30
0
0
VERTEX
8
0
10
134.7584
20
38.4494340097799
30
0
0
VERTEX
8
0
10
135.6544
20
38.4678541022211
30
0
0
VERTEX
8
0
10
136.5504
20
38.4852546502308
30
0
0
VERTEX
8
0
10
137.4464
20
38.5008650837353
30
0
0
VERTEX
8
0
10
138.3424
20
38.5140714868728
30
0
0
VERTEX
8
0
10
139.2384
20
38.5262650685065
30
0
0
VERTEX
8
0
10
140.1344
20
38.5368232120061
30
0
0
VERTEX
8
0
10
141.0304
20
38.5452727992123
30
0
0
VERTEX
8
0
10
141.9264
20
38.5527395627138
30
0
0
VERTEX
8
0
10
142.8224
20
38.5587380469024
30
0
0
VERTEX
8
0
10
143.7184
20
38.5629227945874
30
0
0
VERTEX
8
0
10
144.6144
20
38.5661800600177
30
0
0
VERTEX
8
0
10
145.5104
20
38.5681499069649
30
0
0
VERTEX
8
0
10
146.4064
20
38.5686005812643
30
0
0
VERTEX
8
0
10
147.3024
20
38.5682068461543
30
0
0
VERTEX
8
0
10
148.1984
20
38.5667218147342
30
0
0
VERTEX
8
0
10
149.0944
20
38.5640126857046
30
0
0
VERTEX
8
0
10
149.9904
20
38.5605728729358
30
0
0
VERTEX
8
0
10
150.8864
20
38.5562553251134
30
0
0
VERTEX
8
0
10
151.7824
20
38.551010771302
30
0
0
VERTEX
8
0
10
152.6784
20
38.5451838598361
30
0
0
VERTEX
8
0
10
153.5744
20
38.5387136833287
30
0
0
VERTEX
8
0
10
154.4704
20
38.5316187962008
30
0
0
VERTEX
8
0
10
155.3664
20
38.5241307965103
30
0
0
VERTEX
8
0
10
156.2624
20
38.5162616619382
30
0
0
VERTEX
8
0
10
157.1584
20
38.5080832432893
30
0
0
VERTEX
8
0
10
158.0544
20
38.499755472181
30
0
0
VERTEX
8
0
10
158.9504
20
38.4913547209646
30
0
0
VERTEX
8
0
10
159.8464
20
38.4830006271942
30
0
0
VERTEX
8
0
10
160.7424
20
38.4748398912927
30
0
0
VERTEX
8
0
10
161.6384
20
38.4669995601569
30
0
0
VERTEX
8
0
10
162.5344
20
38.4595356210638
30
0
0
VERTEX
8
0
10
163.4304
20
38.4524124844314
30
0
0
VERTEX
8
0
10
164.3264
20
38.4455793495783
30
0
0
VERTEX
8
0
10
165.2224
20
38.4389977277736
30
0
0
VERTEX
8
0
10
166.1184
20
38.4326394079214
30
0
0
SEQEND
8
0
0
POLYLINE
8
0
62
4
70
0
10
0
20
0
30
0
0
VERTEX
8
0
10
7.5264
20
4.47901555959554
30
0
0
VERTEX
8
0
10
8.4224
20
5.00228198259574
30
0
0
VERTEX
8
0
10
9.3184
20
5.51215132832045
30
0
0
VERTEX
8
0
10
10.2144
20
6.02781082057775
30
0
0
VERTEX
8
0
10
11.1104
20
6.5434971192007
30
0
0
VERTEX
8
0
10
12.0064
20
7.04527812183564
30
0
0
VERTEX
8
0
10
12.9024
20
7.55355497614599
30
0
0
VERTEX
8
0
10
13.7984
20
8.06483383229388
30
0
0
VERTEX
8
0
10
14.6944
20
8.56181730672138
30
0
0
VERTEX
8
0
10
15.5904
20
9.06566195002919
30
0
0
VERTEX
8
0
10
16.4864
20
9.56657845124529
30
0
0
VERTEX
8
0
10
17.3824
20
10.0534901251195
30
0
0
VERTEX
8
0
10
18.2784
20
10.5473332571413
30
0
0
VERTEX
8
0
10
19.1744
20
11.0296884437056
30
0
0
VERTEX
8
0
10
20.0704
20
11.4992098440511
30
0
0
VERTEX
8
0
10
20.9664
20
11.975573253765
30
0
0
VERTEX
8
0
10
21.8624
20
12.4452380666964
30
0
0
VERTEX
8
0
10
22.7584
20
12.9016694859807
30
0
0
VERTEX
8
0
10
23.6544
20
13.3648555030642
30
0
0
VERTEX
8
0
10
24.5504
20
13.802500290486
30
0
0
VERTEX
8
0
10
25.4464
20
14.2311386471653
30
0
0
VERTEX
8
0
10
26.3424
20
14.6664442891925
30
0
0
VERTEX
8
0
10
27.2384
20
15.0530343446757
30
0
0
VERTEX
8
0
10
28.1344
20
15.4376614506595
30
0
0
VERTEX
8
0
10
29.0304
20
15.8293697707607
30
0
0
VERTEX
8
0
10
29.9264
20
16.2674968033287
30
0
0
VERTEX
8
0
10
30.8224
20
16.6789398599737
30
0
0
VERTEX
8
0
10
31.7184
20
17.0967494174028
30
0
0
VERTEX
8
0
10
32.6144
20
17.4994030319401
30
0
0
VERTEX
8
0
10
33.5104
20
17.8923997686544
30
0
0
VERTEX
8
0
10
34.4064
20
18.2915849877339
30
0
0
VERTEX
8
0
10
35.3024
20
18.6813834356828
30
0
0
VERTEX
8
0
10
36.1984
20
19.060217152468
30
0
0
VERTEX
8
0
10
37.0944
20
19.4464864309744
30
0
0
VERTEX
8
0
10
37.9904
20
19.8307795122098
30
0
0
VERTEX
8
0
10
38.8864
20
20.2023792076909
30
0
0
VERTEX
8
0
10
39.7824
20
20.57187263928
30
0
0
VERTEX
8
0
10
40.6784
20
20.9322925293845
30
0
0
VERTEX
8
0
10
41.5744
20
21.2803302388378
30
0
0
VERTEX
8
0
10
42.4704
20
21.6162480191673
30
0
0
VERTEX
8
0
10
43.3664
20
21.9387189521459
30
0
0
VERTEX
8
0
10
44.2624
20
22.2494405656032
30
0
0
VERTEX
8
0
10
45.1584
20
22.5747649728809
30
0
0
VERTEX
8
0
10
46.0544
20
22.9011634313469
30
0
0
VERTEX
8
0
10
46.9504
20
23.2157265957673
30
0
0
VERTEX
8
0
10
47.8464
20
23.5420835484868
30
0
0
VERTEX
8
0
10
48.7424
20
23.8675817515893
30
0
0
VERTEX
8
0
10
49.6384
20
24.1813840886519
30
0
0
VERTEX
8
0
10
50.5344
20
24.4981427306194
30
0
0
VERTEX
8
0
10
51.4304
20
24.8110822566794
30
0
0
VERTEX
8
0
10
52.3264
20
25.1126002141378
30
0
0
VERTEX
8
0
10
53.2224
20
25.4073757360329
30
0
0
VERTEX
8
0
10
54.1184
20
25.6967412426376
30
0
0
VERTEX
8
0
10
55.0144
20
25.9750735731352
30
0
0
VERTEX
8
0
10
55.9104
20
26.2579906212903
30
0
0
VERTEX
8
0
10
56.8064
20
26.5377482037892
30
0
0
VERTEX
8
0
10
57.7024
20
26.8067068140753
30
0
0
VERTEX
8
0
10
58.5984
20
27.0844741213059
30
0
0
VERTEX
8
0
10
59.4944
20
27.3593050632961
30
0
0
VERTEX
8
0
10
60.3904
20
27.6235392117088
30
0
0
VERTEX
8
0
10
61.2864
20
27.876614504234
30
0
0
VERTEX
8
0
10
62.1824
20
28.1265079674006
30
0
0
VERTEX
8
0
10
63.0784
20
28.3662497531274
30
0
0
VERTEX
8
0
10
63.9744
20
28.6099346915397
30
0
0
VERTEX
8
0
10
64.8704
20
28.8505546378277
30
0
0
VERTEX
8
0
10
65.7664
20
29.08126033554
30
0
0
VERTEX
8
0
10
66.6624
20
29.3156407749886
30
0
0
VERTEX
8
0
10
67.5584
20
29.5469372977247
30
0
0
VERTEX
8
0
10
68.4544
20
29.7685676948667
30
0
0
VERTEX
8
0
10
69.3504
20
29.9936089157104
30
0
0
VERTEX
8
0
10
70.2464
20
30.215555042937
30
0
0
VERTEX
8
0
10
71.1424
20
30.4280920619755
30
0
0
VERTEX
8
0
10
72.0384
20
30.6437804008757
30
0
0
VERTEX
8
0
10
72.9344
20
30.8563693221599
30
0
0
VERTEX
8
0
10
73.8304
20
31.0598135644163
30
0
0
VERTEX
8
0
10
74.7264
20
31.270088178881
30
0
0
VERTEX
8
0
10
75.6224
20
31.4764349557088
30
0
0
VERTEX
8
0
10
76.5184
20
31.6738742504547
30
0
0
VERTEX
8
0
10
77.4144
20
31.8955465573587
30
0
0
VERTEX
8
0
10
78.3104
20
32.1090003546516
30
0
0
VERTEX
8
0
10
79.2064
20
32.3137819785051
30
0
0
VERTEX
8
0
10
80.1024
20
32.4912903918614
30
0
0
VERTEX
8
0
10
80.9984
20
32.6735235963453
30
0
0
VERTEX
8
0
10
81.8944
20
32.8474820308644
30
0
0
VERTEX
8
0
10
82.7904
20
32.9980382072882
30
0
0
VERTEX
8
0
10
83.6864
20
33.1533766859815
30
0
0
VERTEX
8
0
10
84.5824000000001
20
33.3010419349218
30
0
0
VERTEX
8
0
10
85.4784000000001
20
33.479367711705
30
0
0
VERTEX
8
0
10
86.3744000000001
20
33.6456482006351
30
0
0
VERTEX
8
0
10
87.2704000000001
20
33.7957797577001
30
0
0
VERTEX
8
0
10
88.1664000000001
20
33.939757902881
30
0
0
VERTEX
8
0
10
89.0624000000001
20
34.0809823514297
30
0
0
VERTEX
8
0
10
89.9584000000001
20
34.2213036972785
30
0
0
VERTEX
8
0
10
90.8544000000001
20
34.3680931687258
30
0
0
VERTEX
8
0
10
91.7504000000001
20
34.5119458954225
30
0
0
VERTEX
8
0
10
92.6464000000001
20
34.6441496256878
30
0
0
VERTEX
8
0
10
93.5424000000001
20
34.7749153856237
30
0
0
VERTEX
8
0
10
94.4384000000001
20
34.9028858277998
30
0
0
VERTEX
8
0
10
95.3344000000001
20
35.0264923600929
30
0
0
VERTEX
8
0
10
96.2304000000001
20
35.1524293899158
30
0
0
VERTEX
8
0
10
97.1264000000001
20
35.2755399971312
30
0
0
VERTEX
8
0
10
98.0224000000001
20
35.3946414277486
30
0
0
VERTEX
8
0
10
98.9184000000001
20
35.5156081965539
30
0
0
VERTEX
8
0
10
99.8144000000001
20
35.6337415249528
30
0
0
VERTEX
8
0
10
100.7104
20
35.7376604033984
30
0
0
VERTEX
8
0
10
101.6064
20
35.8400410828687
30
0
0
VERTEX
8
0
10
102.5024
20
35.9397929275011
30
0
0
VERTEX
8
0
10
103.3984
20
36.0446701155006
30
0
0
VERTEX
8
0
10
104.2944
20
36.1523801181513
30
0
0
VERTEX
8
0
10
105.1904
20
36.2573222141293
30
0
0
VERTEX
8
0
10
106.0864
20
36.3421320825328
30
0
0
VERTEX
8
0
10
106.9824
20
36.4253919859124
30
0
0
VERTEX
8
0
10
107.8784
20
36.5061853451232
30
0
0
VERTEX
8
0
10
108.7744
20
36.5972521108457
30
0
0
VERTEX
8
0
10
109.6704
20
36.6896505982946
30
0
0
VERTEX
8
0
10
110.5664
20
36.7793955599786
30
0
0
VERTEX
8
0
10
111.4624
20
36.8477786804119
30
0
0
VERTEX
8
0
10
112.3584
20
36.915985640564
30
0
0
VERTEX
8
0
10
113.2544
20
36.9818360498304
30
0
0
VERTEX
8
0
10
114.1504
20
37.0587553853914
30
0
0
VERTEX
8
0
10
115.0464
20
37.1349980860158
30
0
0
VERTEX
8
0
10
115.9424
20
37.208732249003
30
0
0
VERTEX
8
0
10
116.8384
20
37.2787308790937
30
0
0
VERTEX
8
0
10
117.7344
20
37.3483240214285
30
0
0
VERTEX
8
0
10
118.6304
20
37.415486418148
30
0
0
VERTEX
8
0
10
119.5264
20
37.4783812929531
30
0
0
VERTEX
8
0
10
120.4224
20
37.5408096267593
30
0
0
VERTEX
8
0
10
121.3184
20
37.6008945520697
30
0
0
VERTEX
8
0
10
122.2144
20
37.6543279724731
30
0
0
VERTEX
8
0
10
123.1104
20
37.7076164182122
30
0
0
VERTEX
8
0
10
124.0064
20
37.7586644568145
30
0
0
VERTEX
8
0
10
124.9024
20
37.791341326603
30
0
0
VERTEX
8
0
10
125.7984
20
37.826359095466
30
0
0
VERTEX
8
0
10
126.6944
20
37.8593858114645
30
0
0
VERTEX
8
0
10
127.5904
20
37.9068228011768
30
0
0
VERTEX
8
0
10
128.4864
20
37.9495019403274
30
0
0
VERTEX
8
0
10
129.3824
20
37.9901366669604
30
0
0
VERTEX
8
0
10
130.2784
20
38.0276586256089
30
0
0
VERTEX
8
0
10
131.1744
20
38.0643600810315
30
0
0
VERTEX
8
0
10
132.0704
20
38.0991323658779
30
0
0
VERTEX
8
0
10
132.9664
20
38.1310764546324
30
0
0
VERTEX
8
0
10
133.8624
20
38.1621527950756
30
0
0
VERTEX
8
0
10
134.7584
20
38.1914231354826
30
0
0
VERTEX
8
0
10
135.6544
20
38.2181470929402
30
0
0
VERTEX
8
0
10
136.5504
20
38.243974645117
30
0
0
VERTEX
8
0
10
137.4464
20
38.2681277282568
30
0
0
VERTEX
8
0
10
138.3424
20
38.2900131761892
30
0
0
VERTEX
8
0
10
139.2384
20
38.3109933215627
30
0
0
VERTEX
8
0
10
140.1344
20
38.3304393292455
30
0
0
VERTEX
8
0
10
141.0304
20
38.3478930454892
30
0
0
VERTEX
8
0
10
141.9264
20
38.3644535349361
30
0
0
VERTEX
8
0
10
142.8224
20
38.3796294608062
30
0
0
VERTEX
8
0
10
143.7184
20
38.3930846584504
30
0
0
VERTEX
8
0
10
144.6144
20
38.4056809273281
30
0
0
VERTEX
8
0
10
145.5104
20
38.4170518876875
30
0
0
VERTEX
8
0
10
146.4064
20
38.4269694810846
30
0
0
VERTEX
8
0
10
147.3024
20
38.436085943251
30
0
0
VERTEX
8
0
10
148.1984
20
38.4441464586073
30
0
0
VERTEX
8
0
10
149.0944
20
38.4510162925297
30
0
0
VERTEX
8
0
10
149.9904
20
38.4571675873636
30
0
0
VERTEX
8
0
10
150.8864
20
38.4624428071158
30
0
0
VERTEX
8
0
10
151.7824
20
38.466784820681
30
0
0
VERTEX
8
0
10
152.6784
20
38.4705169821499
30
0
0
VERTEX
8
0
10
153.5744
20
38.4735638196747
30
0
0
VERTEX
8
0
10
154.4704
20
38.4759291115174
30
0
0
VERTEX
8
0
10
155.3664
20
38.4778206228987
30
0
0
VERTEX
8
0
10
156.2624
20
38.4792287626549
30
0
0
VERTEX
8
0
10
157.1584
20
38.4802005175897
30
0
0
VERTEX
8
0
10
158.0544
20
38.4808632038979
30
0
0
VERTEX
8
0
10
158.9504
20
38.48125589196
30
0
0
VERTEX
8
0
10
159.8464
20
38.4814497901541
30
0
0
VERTEX
8
0
10
160.7424
20
38.4815270893903
30
0
0
VERTEX
8
0
10
161.6384
20
38.4815468128041
30
0
0
VERTEX
8
0
10
162.5344
20
38.4815502149976
30
0
0
VERTEX
8
0
10
163.4304
20
38.4815507031453
30
0
0
VERTEX
8
0
10
164.3264
20
38.4815507709932
30
0
0
VERTEX
8
0
10
165.2224
20
38.4815507804646
30
0
0
VERTEX
8
0
10
166.1184
20
38.4815507817998
30
0
0
SEQEND
8
0
0
POLYLINE
8
0
62
2
70
0
10
0
20
0
30
0
0
VERTEX
8
0
10
7.5264
20
0
30
0
0
VERTEX
8
0
10
8.4224
20
0
30
0
0
VERTEX
8
0
10
9.3184
20
0
30
0
0
VERTEX
8
0
10
10.2144
20
0
30
0
0
VERTEX
8
0
10
11.1104
20
0
30
0
0
VERTEX
8
0
10
12.0064
20
0
30
0
0
VERTEX
8
0
10
12.9024
20
0
30
0
0
VERTEX
8
0
10
13.7984
20
0
30
0
0
VERTEX
8
0
10
14.6944
20
0
30
0
0
VERTEX
8
0
10
15.5904
20
0
30
0
0
VERTEX
8
0
10
16.4864
20
0
30
0
0
VERTEX
8
0
10
17.3824
20
0
30
0
0
VERTEX
8
0
10
18.2784
20
0
30
0
0
VERTEX
8
0
10
19.1744
20
0
30
0
0
VERTEX
8
0
10
20.0704
20
1.33426904889168
30
0
0
VERTEX
8
0
10
20.9664
20
1.72257389607772
30
0
0
VERTEX
8
0
10
21.8624
20
2.2095987876228
30
0
0
VERTEX
8
0
10
22.7584
20
2.89157821522217
30
0
0
VERTEX
8
0
10
23.6544
20
3.22897858161365
30
0
0
VERTEX
8
0
10
24.5504
20
3.63570038578942
30
0
0
VERTEX
8
0
10
25.4464
20
4.17926076653365
30
0
0
VERTEX
8
0
10
26.3424
20
4.53190063067791
30
0
0
VERTEX
8
0
10
27.2384
20
4.9369390381704
30
0
0
VERTEX
8
0
10
28.1344
20
5.4429789050058
30
0
0
VERTEX
8
0
10
29.0304
20
5.82958435248879
30
0
0
VERTEX
8
0
10
29.9264
20
6.26610365539848
30
0
0
VERTEX
8
0
10
30.8224
20
6.79414948182487
30
0
0
VERTEX
8
0
10
31.7184
20
7.27655602710841
30
0
0
VERTEX
8
0
10
32.6144
20
7.88407102877415
30
0
0
VERTEX
8
0
10
33.5104
20
8.41369631034635
30
0
0
VERTEX
8
0
10
34.4064
20
8.79102963268755
30
0
0
VERTEX
8
0
10
35.3024
20
9.14126554883214
30
0
0
VERTEX
8
0
10
36.1984
20
9.49527425123715
30
0
0
VERTEX
8
0
10
37.0944
20
9.77657978638193
30
0
0
VERTEX
8
0
10
37.9904
20
10.0541372133068
30
0
0
VERTEX
8
0
10
38.8864
20
10.3434631890593
30
0
0
VERTEX
8
0
10
39.7824
20
10.5810456713101
30
0
0
VERTEX
8
0
10
40.6784
20
10.819410709466
30
0
0
VERTEX
8
0
10
41.5744
20
11.0692088105729
30
0
0
VERTEX
8
0
10
42.4704
20
11.2790028594601
30
0
0
VERTEX
8
0
10
43.3664
20
11.4907793395647
30
0
0
VERTEX
8
0
10
44.2624
20
11.7122698208558
30
0
0
VERTEX
8
0
10
45.1584
20
11.9016503806722
30
0
0
VERTEX
8
0
10
46.0544
20
12.093208650267
30
0
0
VERTEX
8
0
10
46.9504
20
12.2926173376206
30
0
0
VERTEX
8
0
10
47.8464
20
12.4656732238257
30
0
0
VERTEX
8
0
10
48.7424
20
12.6407435703004
30
0
0
VERTEX
8
0
10
49.6384
20
12.821958555566
30
0
0
VERTEX
8
0
10
50.5344
20
12.9812140706538
30
0
0
VERTEX
8
0
10
51.4304
20
13.1421917771805
30
0
0
VERTEX
8
0
10
52.3264
20
13.3078327645316
30
0
0
VERTEX
8
0
10
53.2224
20
13.4549653074426
30
0
0
VERTEX
8
0
10
54.1184
20
13.6034910037893
30
0
0
VERTEX
8
0
10
55.0144
20
13.7554201376896
30
0
0
VERTEX
8
0
10
55.9104
20
13.891606756444
30
0
0
VERTEX
8
0
10
56.8064
20
14.0288598556726
30
0
0
VERTEX
8
0
10
57.7024
20
14.1684548813114
30
0
0
VERTEX
8
0
10
58.5984
20
14.2945573313815
30
0
0
VERTEX
8
0
10
59.4944
20
14.4214184019812
30
0
0
VERTEX
8
0
10
60.3904
20
14.5497310266927
30
0
0
VERTEX
8
0
10
61.2864
20
14.6664021779251
30
0
0
VERTEX
8
0
10
62.1824
20
14.7835490715729
30
0
0
VERTEX
8
0
10
63.0784
20
14.9014025593932
30
0
0
VERTEX
8
0
10
63.9744
20
15.009151185143
30
0
0
VERTEX
8
0
10
64.8704
20
15.1171190405628
30
0
0
VERTEX
8
0
10
65.7664
20
15.2251713209339
30
0
0
VERTEX
8
0
10
66.6624
20
15.3244034069218
30
0
0
VERTEX
8
0
10
67.5584
20
15.4236237482425
30
0
0
VERTEX
8
0
10
68.4544
20
15.5224098485154
30
0
0
VERTEX
8
0
10
69.3504
20
15.6134559572187
30
0
0
VERTEX
8
0
10
70.2464
20
15.7042830998269
30
0
0
VERTEX
8
0
10
71.1424
20
15.7942446175502
30
0
0
VERTEX
8
0
10
72.0384
20
15.8773786156511
30
0
0
VERTEX
8
0
10
72.9344
20
15.9601080550465
30
0
0
VERTEX
8
0
10
73.8304
20
16.0416142025454
30
0
0
VERTEX
8
0
10
74.7264
20
16.1170664478667
30
0
0
VERTEX
8
0
10
75.6224
20
16.1919480142537
30
0
0
VERTEX
8
0
10
76.5184
20
16.2653110117592
30
0
0
VERTEX
8
0
10
77.4144
20
16.3332778793198
30
0
0
VERTEX
8
0
10
78.3104
20
16.4005253778408
30
0
0
VERTEX
8
0
10
79.2064
20
16.4660119572538
30
0
0
VERTEX
8
0
10
80.1024
20
16.5266628852189
30
0
0
VERTEX
8
0
10
80.9984
20
16.5864613202532
30
0
0
VERTEX
8
0
10
81.8944
20
16.6443014930077
30
0
0
VERTEX
8
0
10
82.7904
20
16.6977843131437
30
0
0
VERTEX
8
0
10
83.6864
20
16.750295418814
30
0
0
VERTEX
8
0
10
84.5824000000001
20
16.8006892838725
30
0
0
VERTEX
8
0
10
85.4784000000001
20
16.8471343453108
30
0
0
VERTEX
8
0
10
86.3744000000001
20
16.8925009098556
30
0
0
VERTEX
8
0
10
87.2704000000001
20
16.9356240370657
30
0
0
VERTEX
8
0
10
88.1664000000001
20
16.9751474709794
30
0
0
VERTEX
8
0
10
89.0624000000001
20
17.0134967925772
30
0
0
VERTEX
8
0
10
89.9584000000001
20
17.0495045593729
30
0
0
VERTEX
8
0
10
90.8544000000001
20
17.082210928068
30
0
0
VERTEX
8
0
10
91.7504000000001
20
17.1136576417953
30
0
0
VERTEX
8
0
10
92.6464000000001
20
17.142688796418
30
0
0
VERTEX
8
0
10
93.5424000000001
20
17.1686733022059
30
0
0
VERTEX
8
0
10
94.4384000000001
20
17.1933217529968
30
0
0
VERTEX
8
0
10
95.3344000000001
20
17.2155014065609
30
0
0
VERTEX
8
0
10
96.2304000000001
20
17.2348517905074
30
0
0
VERTEX
8
0
10
97.1264000000001
20
17.2527980834874
30
0
0
VERTEX
8
0
10
98.0224000000001
20
17.2682402848689
30
0
0
VERTEX
8
0
10
98.9184000000001
20
17.281038515679
30
0
0
VERTEX
8
0
10
99.8144000000001
20
17.2923723462733
30
0
0
VERTEX
8
0
10
100.7104
20
17.3011823609651
30
0
0
VERTEX
8
0
10
101.6064
20
17.3075061945905
30
0
0
VERTEX
8
0
10
102.5024
20
17.312312541935
30
0
0
VERTEX
8
0
10
103.3984
20
17.3145889339166
30
0
0
VERTEX
8
0
10
104.2944
20
17.3145134125904
30
0
0
VERTEX
8
0
10
105.1904
20
17.3128741680693
30
0
0
VERTEX
8
0
10
106.0864
20
17.3087107698402
30
0
0
VERTEX
8
0
10
106.9824
20
17.3023097227698
30
0
0
VERTEX
8
0
10
107.8784
20
17.2943053196379
30
0
0
VERTEX
8
0
10
108.7744
20
17.283793167951
30
0
0
VERTEX
8
0
10
109.6704
20
17.2711407743331
30
0
0
VERTEX
8
0
10
110.5664
20
17.2568518831526
30
0
0
VERTEX
8
0
10
111.4624
20
17.2400811957528
30
0
0
VERTEX
8
0
10
112.3584
20
17.2212536733593
30
0
0
VERTEX
8
0
10
113.2544
20
17.2007630313807
30
0
0
VERTEX
8
0
10
114.1504
20
17.1778253028371
30
0
0
VERTEX
8
0
10
115.0464
20
17.1529027924529
30
0
0
VERTEX
8
0
10
115.9424
20
17.1262972429535
30
0
0
VERTEX
8
0
10
116.8384
20
17.0972875458939
30
0
0
VERTEX
8
0
10
117.7344
20
17.0663562738039
30
0
0
VERTEX
8
0
10
118.6304
20
17.033729104905
30
0
0
VERTEX
8
0
10
119.5264
20
16.998748696969
30
0
0
VERTEX
8
0
10
120.4224
20
16.9619035157679
30
0
0
VERTEX
8
0
10
121.3184
20
16.9233572082048
30
0
0
VERTEX
8
0
10
122.2144
20
16.8825165669518
30
0
0
VERTEX
8
0
10
123.1104
20
16.8398640009317
30
0
0
VERTEX
8
0
10
124.0064
20
16.7955135233666
30
0
0
VERTEX
8
0
10
124.9024
20
16.7489359631527
30
0
0
VERTEX
8
0
10
125.7984
20
16.7005979216048
30
0
0
VERTEX
8
0
10
126.6944
20
16.6505747534386
30
0
0
VERTEX
8
0
10
127.5904
20
16.5984008243075
30
0
0
VERTEX
8
0
10
128.4864
20
16.5445191988141
30
0
0
VERTEX
8
0
10
129.3824
20
16.4889763198199
30
0
0
VERTEX
8
0
10
130.2784
20
16.4313692549721
30
0
0
VERTEX
8
0
10
131.1744
20
16.372111692899
30
0
0
VERTEX
8
0
10
132.0704
20
16.3112298651978
30
0
0
VERTEX
8
0
10
132.9664
20
16.2483824411829
30
0
0
VERTEX
8
0
10
133.8624
20
16.1839496995087
30
0
0
VERTEX
8
0
10
134.7584
20
16.1179454952916
30
0
0
VERTEX
8
0
10
135.6544
20
16.0500888154643
30
0
0
VERTEX
8
0
10
136.5504
20
15.9807242682405
30
0
0
VERTEX
8
0
10
137.4464
20
15.9098604921232
30
0
0
VERTEX
8
0
10
138.3424
20
15.8372754305468
30
0
0
VERTEX
8
0
10
139.2384
20
15.7632775681487
30
0
0
VERTEX
8
0
10
140.1344
20
15.6878770334839
30
0
0
VERTEX
8
0
10
141.0304
20
15.6109094421657
30
0
0
VERTEX
8
0
10
141.9264
20
15.5326486345673
30
0
0
VERTEX
8
0
10
142.8224
20
15.4531127710099
30
0
0
VERTEX
8
0
10
143.7184
20
15.3721941756975
30
0
0
VERTEX
8
0
10
144.6144
20
15.2901357260191
30
0
0
VERTEX
8
0
10
145.5104
20
15.2069704163066
30
0
0
VERTEX
8
0
10
146.4064
20
15.1226470603451
30
0
0
VERTEX
8
0
10
147.3024
20
15.0373839866023
30
0
0
VERTEX
8
0
10
148.1984
20
14.951236805946
30
0
0
VERTEX
8
0
10
149.0944
20
14.8642121612786
30
0
0
VERTEX
8
0
10
149.9904
20
14.7765140575796
30
0
0
VERTEX
8
0
10
150.8864
20
14.6882308991426
30
0
0
VERTEX
8
0
10
151.7824
20
14.5994318267028
30
0
0
VERTEX
8
0
10
152.6784
20
14.5103230039505
30
0
0
VERTEX
8
0
10
153.5744
20
14.4210415258626
30
0
0
VERTEX
8
0
10
154.4704
20
14.3317316155884
30
0
0
VERTEX
8
0
10
155.3664
20
14.2426310765421
30
0
0
VERTEX
8
0
10
156.2624
20
14.1539573604405
30
0
0
VERTEX
8
0
10
157.1584
20
14.0659659510109
30
0
0
VERTEX
8
0
10
158.0544
20
13.9789948514709
30
0
0
VERTEX
8
0
10
158.9504
20
13.8934351149132
30
0
0
VERTEX
8
0
10
159.8464
20
13.8097975133603
30
0
0
VERTEX
8
0
10
160.7424
20
13.7287649613002
30
0
0
VERTEX
8
0
10
161.6384
20
13.6510696321327
30
0
0
VERTEX
8
0
10
162.5344
20
13.5769164418914
30
0
0
VERTEX
8
0
10
163.4304
20
13.5058617678904
30
0
0
VERTEX
8
0
10
164.3264
20
13.4374066448429
30
0
0
VERTEX
8
0
10
165.2224
20
13.3711894311904
30
0
0
VERTEX
8
0
10
166.1184
20
13.306949956841
30
0
0
SEQEND
8
0
0
POLYLINE
8
0
62
3
70
0
10
0
20
0
30
0
0
VERTEX
8
0
10
7.5264
20
4.49690453342557
30
0
0
VERTEX
8
0
10
8.4224
20
5.10700323934667
30
0
0
VERTEX
8
0
10
9.3184
20
6.00395460926174
30
0
0
VERTEX
8
0
10
10.2144
20
6.60586545746249
30
0
0
VERTEX
8
0
10
11.1104
20
7.30188038970434
30
0
0
VERTEX
8
0
10
12.0064
20
8.15572704439287
30
0
0
VERTEX
8
0
10
12.9024
20
8.84778445161506
30
0
0
VERTEX
8
0
10
13.7984
20
9.59978769504369
30
0
0
VERTEX
8
0
10
14.6944
20
10.4458080692012
30
0
0
VERTEX
8
0
10
15.5904
20
11.1966431869788
30
0
0
VERTEX
8
0
10
16.4864
20
11.9892595608147
30
0
0
VERTEX
8
0
10
17.3824
20
12.8405103709034
30
0
0
VERTEX
8
0
10
18.2784
20
13.6335874396868
30
0
0
VERTEX
8
0
10
19.1744
20
14.4577208592943
30
0
0
VERTEX
8
0
10
20.0704
20
15.3187633412848
30
0
0
VERTEX
8
0
10
20.9664
20
16.144250064736
30
0
0
VERTEX
8
0
10
21.8624
20
16.9939053443019
30
0
0
VERTEX
8
0
10
22.7584
20
17.8661585319877
30
0
0
VERTEX
8
0
10
23.6544
20
18.7177785906424
30
0
0
VERTEX
8
0
10
24.5504
20
19.5889737976064
30
0
0
VERTEX
8
0
10
25.4464
20
20.473013517352
30
0
0
VERTEX
8
0
10
26.3424
20
21.3470642984928
30
0
0
VERTEX
8
0
10
27.2384
20
22.2378706866003
30
0
0
VERTEX
8
0
10
28.1344
20
23.1352172036152
30
0
0
VERTEX
8
0
10
29.0304
20
24.0314218686803
30
0
0
VERTEX
8
0
10
29.9264
20
24.9442740227301
30
0
0
VERTEX
8
0
10
30.8224
20
25.8627710618255
30
0
0
VERTEX
8
0
10
31.7184
20
26.7958144639721
30
0
0
VERTEX
8
0
10
32.6144
20
27.766920985009
30
0
0
VERTEX
8
0
10
33.5104
20
28.6870812196787
30
0
0
VERTEX
8
0
10
34.4064
20
29.572619391208
30
0
0
VERTEX
8
0
10
35.3024
20
30.438265349028
30
0
0
VERTEX
8
0
10
36.1984
20
31.2725746154093
30
0
0
VERTEX
8
0
10
37.0944
20
32.094154217231
30
0
0
VERTEX
8
0
10
37.9904
20
32.9037997184065
30
0
0
VERTEX
8
0
10
38.8864
20
33.6864319087397
30
0
0
VERTEX
8
0
10
39.7824
20
34.462657163217
30
0
0
VERTEX
8
0
10
40.6784
20
35.2292730062732
30
0
0
VERTEX
8
0
10
41.5744
20
35.9704174524241
30
0
0
VERTEX
8
0
10
42.4704
20
36.7087582024253
30
0
0
VERTEX
8
0
10
43.3664
20
37.4385666913745
30
0
0
VERTEX
8
0
10
44.2624
20
38.1437475949159
30
0
0
VERTEX
8
0
10
45.1584
20
38.848471958038
30
0
0
VERTEX
8
0
10
46.0544
20
39.5452546033677
30
0
0
VERTEX
8
0
10
46.9504
20
40.2180130714957
30
0
0
VERTEX
8
0
10
47.8464
20
40.8919166821332
30
0
0
VERTEX
8
0
10
48.7424
20
41.5582339667963
30
0
0
VERTEX
8
0
10
49.6384
20
42.2010424160638
30
0
0
VERTEX
8
0
10
50.5344
20
42.8461037419529
30
0
0
VERTEX
8
0
10
51.4304
20
43.4838071512636
30
0
0
VERTEX
8
0
10
52.3264
20
44.0984892485709
30
0
0
VERTEX
8
0
10
53.2224
20
44.7161841922767
30
0
0
VERTEX
8
0
10
54.1184
20
45.3266764886001
30
0
0
VERTEX
8
0
10
55.0144
20
45.9146327621757
30
0
0
VERTEX
8
0
10
55.9104
20
46.5061074324756
30
0
0
VERTEX
8
0
10
56.8064
20
47.090490991058
30
0
0
VERTEX
8
0
10
57.7024
20
47.6528324167497
30
0
0
VERTEX
8
0
10
58.5984
20
48.2190066819076
30
0
0
VERTEX
8
0
10
59.4944
20
48.7781747702613
30
0
0
VERTEX
8
0
10
60.3904
20
49.3158073276988
30
0
0
VERTEX
8
0
10
61.2864
20
49.8574408608854
30
0
0
VERTEX
8
0
10
62.1824
20
50.3921370264895
30
0
0
VERTEX
8
0
10
63.0784
20
50.9058179255938
30
0
0
VERTEX
8
0
10
63.9744
20
51.4235543624401
30
0
0
VERTEX
8
0
10
64.8704
20
51.9344127701534
30
0
0
VERTEX
8
0
10
65.7664
20
52.4247893105727
30
0
0
VERTEX
8
0
10
66.6624
20
52.919186908562
30
0
0
VERTEX
8
0
10
67.5584
20
53.4067607130237
30
0
0
VERTEX
8
0
10
68.4544
20
53.8743980054409
30
0
0
VERTEX
8
0
10
69.3504
20
54.34595161544
30
0
0
VERTEX
8
0
10
70.2464
20
54.8107335182759
30
0
0
VERTEX
8
0
10
71.1424
20
55.2561348042526
30
0
0
VERTEX
8
0
10
72.0384
20
55.7052920570754
30
0
0
VERTEX
8
0
10
72.9344
20
56.1477295969763
30
0
0
VERTEX
8
0
10
73.8304
20
56.5713515079289
30
0
0
VERTEX
8
0
10
74.7264
20
56.9985250418549
30
0
0
VERTEX
8
0
10
75.6224
20
57.4190322436358
30
0
0
VERTEX
8
0
10
76.5184
20
57.8212965180833
30
0
0
VERTEX
8
0
10
77.4144
20
58.2268734360622
30
0
0
VERTEX
8
0
10
78.3104
20
58.62583989048
30
0
0
VERTEX
8
0
10
79.2064
20
59.0071425654814
30
0
0
VERTEX
8
0
10
80.1024
20
59.39149191898
30
0
0
VERTEX
8
0
10
80.9984
20
59.7692900195995
30
0
0
VERTEX
8
0
10
81.8944
20
60.1300087935058
30
0
0
VERTEX
8
0
10
82.7904
20
60.4934876411755
30
0
0
VERTEX
8
0
10
83.6864
20
60.8504784825622
30
0
0
VERTEX
8
0
10
84.5824000000001
20
61.1909787384949
30
0
0
VERTEX
8
0
10
85.4784000000001
20
61.533937165417
30
0
0
VERTEX
8
0
10
86.3744000000001
20
61.8704754605865
30
0
0
VERTEX
8
0
10
87.2704000000001
20
62.1911153013495
30
0
0
VERTEX
8
0
10
88.1664000000001
20
62.5139006761177
30
0
0
VERTEX
8
0
10
89.0624000000001
20
62.8303389524482
30
0
0
VERTEX
8
0
10
89.9584000000001
20
63.1314735030503
30
0
0
VERTEX
8
0
10
90.8544000000001
20
63.4344341759036
30
0
0
VERTEX
8
0
10
91.7504000000001
20
63.7311264408675
30
0
0
VERTEX
8
0
10
92.6464000000001
20
64.0131116092001
30
0
0
VERTEX
8
0
10
93.5424000000001
20
64.2966002030409
30
0
0
VERTEX
8
0
10
94.4384000000001
20
64.5739052237224
30
0
0
VERTEX
8
0
10
95.3344000000001
20
64.8371010636611
30
0
0
VERTEX
8
0
10
96.2304000000001
20
65.1014774735694
30
0
0
VERTEX
8
0
10
97.1264000000001
20
65.3597617802809
30
0
0
VERTEX
8
0
10
98.0224000000001
20
65.604535568397
30
0
0
VERTEX
8
0
10
98.9184000000001
20
65.8501697594313
30
0
0
VERTEX
8
0
10
99.8144000000001
20
66.0898104596126
30
0
0
VERTEX
8
0
10
100.7104
20
66.3165395728127
30
0
0
VERTEX
8
0
10
101.6064
20
66.5438142471865
30
0
0
VERTEX
8
0
10
102.5024
20
66.7652017183074
30
0
0
VERTEX
8
0
10
103.3984
20
66.974276382253
30
0
0
VERTEX
8
0
10
104.2944
20
67.1835895734733
30
0
0
VERTEX
8
0
10
105.1904
20
67.3871300908748
30
0
0
VERTEX
8
0
10
106.0864
20
67.5789560562633
30
0
0
VERTEX
8
0
10
106.9824
20
67.770723697872
30
0
0
VERTEX
8
0
10
107.8784
20
67.9568420441558
30
0
0
VERTEX
8
0
10
108.7744
20
68.1318432385373
30
0
0
VERTEX
8
0
10
109.6704
20
68.3065017478911
30
0
0
VERTEX
8
0
10
110.5664
20
68.475643843625
30
0
0
VERTEX
8
0
10
111.4624
20
68.634265039524
30
0
0
VERTEX
8
0
10
112.3584
20
68.7922739518053
30
0
0
VERTEX
8
0
10
113.2544
20
68.9449095423994
30
0
0
VERTEX
8
0
10
114.1504
20
69.0876190775191
30
0
0
VERTEX
8
0
10
115.0464
20
69.229463761491
30
0
0
VERTEX
8
0
10
115.9424
20
69.3660891916269
30
0
0
VERTEX
8
0
10
116.8384
20
69.4933817734834
30
0
0
VERTEX
8
0
10
117.7344
20
69.6195762580628
30
0
0
VERTEX
8
0
10
118.6304
20
69.7407173628905
30
0
0
VERTEX
8
0
10
119.5264
20
69.8531169880218
30
0
0
VERTEX
8
0
10
120.4224
20
69.9642069274477
30
0
0
VERTEX
8
0
10
121.3184
20
70.0704220686645
30
0
0
VERTEX
8
0
10
122.2144
20
70.1684850856585
30
0
0
VERTEX
8
0
10
123.1104
20
70.2650508908557
30
0
0
VERTEX
8
0
10
124.0064
20
70.3569341659518
30
0
0
VERTEX
8
0
10
124.9024
20
70.44125251193
30
0
0
VERTEX
8
0
10
125.7984
20
70.5239126768515
30
0
0
VERTEX
8
0
10
126.6944
20
70.6020973314276
30
0
0
VERTEX
8
0
10
127.5904
20
70.6733019737622
30
0
0
VERTEX
8
0
10
128.4864
20
70.7427166285038
30
0
0
VERTEX
8
0
10
129.3824
20
70.8078787053157
30
0
0
VERTEX
8
0
10
130.2784
20
70.8666433249552
30
0
0
VERTEX
8
0
10
131.1744
20
70.9235180532562
30
0
0
VERTEX
8
0
10
132.0704
20
70.97638031867
30
0
0
VERTEX
8
0
10
132.9664
20
71.0234252799794
30
0
0
VERTEX
8
0
10
133.8624
20
71.0685152491043
30
0
0
VERTEX
8
0
10
134.7584
20
71.1098514501388
30
0
0
VERTEX
8
0
10
135.6544
20
71.1459481172921
30
0
0
VERTEX
8
0
10
136.5504
20
71.1800625865664
30
0
0
VERTEX
8
0
10
137.4464
20
71.2107021137448
30
0
0
VERTEX
8
0
10
138.3424
20
71.2366776004983
30
0
0
VERTEX
8
0
10
139.2384
20
71.2606849072292
30
0
0
VERTEX
8
0
10
140.1344
20
71.2815179779614
30
0
0
VERTEX
8
0
10
141.0304
20
71.2982604660511
30
0
0
VERTEX
8
0
10
141.9264
20
71.313093646828
30
0
0
VERTEX
8
0
10
142.8224
20
71.3250771970279
30
0
0
VERTEX
8
0
10
143.7184
20
71.3335420490521
30
0
0
VERTEX
8
0
10
144.6144
20
71.3402053670877
30
0
0
VERTEX
8
0
10
145.5104
20
71.3443699799864
30
0
0
VERTEX
8
0
10
146.4064
20
71.3455870512643
30
0
0
VERTEX
8
0
10
147.3024
20
71.3451639275113
30
0
0
VERTEX
8
0
10
148.1984
20
71.3426224201731
30
0
0
VERTEX
8
0
10
149.0944
20
71.3377053525343
30
0
0
VERTEX
8
0
10
149.9904
20
71.3313686942525
30
0
0
VERTEX
8
0
10
150.8864
20
71.3233276409127
30
0
0
VERTEX
8
0
10
151.7824
20
71.3134868089134
30
0
0
VERTEX
8
0
10
152.6784
20
71.3025139438596
30
0
0
VERTEX
8
0
10
153.5744
20
71.2902911089149
30
0
0
VERTEX
8
0
10
154.4704
20
71.2768543029717
30
0
0
VERTEX
8
0
10
155.3664
20
71.2626522545632
30
0
0
VERTEX
8
0
10
156.2624
20
71.2477082202358
30
0
0
VERTEX
8
0
10
157.1584
20
71.232161448983
30
0
0
VERTEX
8
0
10
158.0544
20
71.2163218343485
30
0
0
VERTEX
8
0
10
158.9504
20
71.2003373906745
30
0
0
VERTEX
8
0
10
159.8464
20
71.1844399555648
30
0
0
VERTEX
8
0
10
160.7424
20
71.1689138023932
30
0
0
VERTEX
8
0
10
161.6384
20
71.1540051332561
30
0
0
VERTEX
8
0
10
162.5344
20
71.1398224824741
30
0
0
VERTEX
8
0
10
163.4304
20
71.1262969618004
30
0
0
VERTEX
8
0
10
164.3264
20
71.1133302093003
30
0
0
VERTEX
8
0
10
165.2224
20
71.1008477131969
30
0
0
VERTEX
8
0
10
166.1184
20
71.0887948712916
30
0
0
SEQEND
8
0
0
POLYLINE
8
0
62
4
70
0
10
0
20
0
30
0
0
VERTEX
8
0
10
7.5264
20
0
30
0
0
VERTEX
8
0
10
8.4224
20
0
30
0
0
VERTEX
8
0
10
9.3184
20
0
30
0
0
VERTEX
8
0
10
10.2144
20
0
30
0
0
VERTEX
8
0
10
11.1104
20
0
30
0
0
VERTEX
8
0
10
12.0064
20
0
30
0
0
VERTEX
8
0
10
12.9024
20
0
30
0
0
VERTEX
8
0
10
13.7984
20
0
30
0
0
VERTEX
8
0
10
14.6944
20
0
30
0
0
VERTEX
8
0
10
15.5904
20
0
30
0
0
VERTEX
8
0
10
16.4864
20
0
30
0
0
VERTEX
8
0
10
17.3824
20
12.8555502771727
30
0
0
VERTEX
8
0
10
18.2784
20
13.6998984175394
30
0
0
VERTEX
8
0
10
19.1744
20
14.5808708815589
30
0
0
VERTEX
8
0
10
20.0704
20
15.4576149948177
30
0
0
VERTEX
8
0
10
20.9664
20
16.3355141060847
30
0
0
VERTEX
8
0
10
21.8624
20
17.2049130942427
30
0
0
VERTEX
8
0
10
22.7584
20
18.0672005304899
30
0
0
VERTEX
8
0
10
23.6544
20
18.9589553249695
30
0
0
VERTEX
8
0
10
24.5504
20
19.86504190437
30
0
0
VERTEX
8
0
10
25.4464
20
20.7561816935781
30
0
0
VERTEX
8
0
10
26.3424
20
21.675033374759
30
0
0
VERTEX
8
0
10
27.2384
20
22.5357861491327
30
0
0
VERTEX
8
0
10
28.1344
20
23.393056549628
30
0
0
VERTEX
8
0
10
29.0304
20
24.2745055513213
30
0
0
VERTEX
8
0
10
29.9264
20
25.1251935121531
30
0
0
VERTEX
8
0
10
30.8224
20
25.9649433549889
30
0
0
VERTEX
8
0
10
31.7184
20
26.8282475799047
30
0
0
VERTEX
8
0
10
32.6144
20
27.6864900226732
30
0
0
VERTEX
8
0
10
33.5104
20
28.5139422427228
30
0
0
VERTEX
8
0
10
34.4064
20
29.3499243213224
30
0
0
VERTEX
8
0
10
35.3024
20
30.1706272527778
30
0
0
VERTEX
8
0
10
36.1984
20
30.9591933471192
30
0
0
VERTEX
8
0
10
37.0944
20
31.7570051432101
30
0
0
VERTEX
8
0
10
37.9904
20
32.5438845100403
30
0
0
VERTEX
8
0
10
38.8864
20
33.2997618929707
30
0
0
VERTEX
8
0
10
39.7824
20
34.0847737972134
30
0
0
VERTEX
8
0
10
40.6784
20
34.8746277627597
30
0
0
VERTEX
8
0
10
41.5744
20
35.63558500642
30
0
0
VERTEX
8
0
10
42.4704
20
36.4248253314153
30
0
0
VERTEX
8
0
10
43.3664
20
37.216833026002
30
0
0
VERTEX
8
0
10
44.2624
20
37.9822850162808
30
0
0
VERTEX
8
0
10
45.1584
20
38.7553439845417
30
0
0
VERTEX
8
0
10
46.0544
20
39.5193210158848
30
0
0
VERTEX
8
0
10
46.9504
20
40.2578115311044
30
0
0
VERTEX
8
0
10
47.8464
20
41.0021888653434
30
0
0
VERTEX
8
0
10
48.7424
20
41.7375569626986
30
0
0
VERTEX
8
0
10
49.6384
20
42.4483826355778
30
0
0
VERTEX
8
0
10
50.5344
20
43.1622177353545
30
0
0
VERTEX
8
0
10
51.4304
20
43.8669040415174
30
0
0
VERTEX
8
0
10
52.3264
20
44.5478769396182
30
0
0
VERTEX
8
0
10
53.2224
20
45.2019254886397
30
0
0
VERTEX
8
0
10
54.1184
20
45.8413367200349
30
0
0
VERTEX
8
0
10
55.0144
20
46.4574582112548
30
0
0
VERTEX
8
0
10
55.9104
20
47.0686080502576
30
0
0
VERTEX
8
0
10
56.8064
20
47.6707263194951
30
0
0
VERTEX
8
0
10
57.7024
20
48.250357196683
30
0
0
VERTEX
8
0
10
58.5984
20
48.8238586890166
30
0
0
VERTEX
8
0
10
59.4944
20
49.3893074630388
30
0
0
VERTEX
8
0
10
60.3904
20
49.9330604386355
30
0
0
VERTEX
8
0
10
61.2864
20
50.4299564599643
30
0
0
VERTEX
8
0
10
62.1824
20
50.9199917884453
30
0
0
VERTEX
8
0
10
63.0784
20
51.3896323319038
30
0
0
VERTEX
8
0
10
63.9744
20
51.8509058404636
30
0
0
VERTEX
8
0
10
64.8704
20
52.3068426045413
30
0
0
VERTEX
8
0
10
65.7664
20
52.7432570432075
30
0
0
VERTEX
8
0
10
66.6624
20
53.2080379039675
30
0
0
VERTEX
8
0
10
67.5584
20
53.6645713169836
30
0
0
VERTEX
8
0
10
68.4544
20
54.1017360834951
30
0
0
VERTEX
8
0
10
69.3504
20
54.521338624049
30
0
0
VERTEX
8
0
10
70.2464
20
54.9380836739847
30
0
0
VERTEX
8
0
10
71.1424
20
55.3364283010227
30
0
0
VERTEX
8
0
10
72.0384
20
55.7691957735816
30
0
0
VERTEX
8
0
10
72.9344
20
56.1908759615154
30
0
0
VERTEX
8
0
10
73.8304
20
56.5942928976319
30
0
0
VERTEX
8
0
10
74.7264
20
57.046527016876
30
0
0
VERTEX
8
0
10
75.6224
20
57.4835037634614
30
0
0
VERTEX
8
0
10
76.5184
20
57.902654879951
30
0
0
VERTEX
8
0
10
77.4144
20
58.3293543070046
30
0
0
VERTEX
8
0
10
78.3104
20
58.7489854184986
30
0
0
VERTEX
8
0
10
79.2064
20
59.1514571557467
30
0
0
VERTEX
8
0
10
80.1024
20
59.5152816938685
30
0
0
VERTEX
8
0
10
80.9984
20
59.8841535077475
30
0
0
VERTEX
8
0
10
81.8944
20
60.2365829713875
30
0
0
VERTEX
8
0
10
82.7904
20
60.5813279384567
30
0
0
VERTEX
8
0
10
83.6864
20
60.9233911047412
30
0
0
VERTEX
8
0
10
84.5824000000001
20
61.2496854467331
30
0
0
VERTEX
8
0
10
85.4784000000001
20
61.5796292307008
30
0
0
VERTEX
8
0
10
86.3744000000001
20
61.9035572119373
30
0
0
VERTEX
8
0
10
87.2704000000001
20
62.2123035232015
30
0
0
VERTEX
8
0
10
88.1664000000001
20
62.5242624494208
30
0
0
VERTEX
8
0
10
89.0624000000001
20
62.830276686726
30
0
0
VERTEX
8
0
10
89.9584000000001
20
63.1155315161357
30
0
0
VERTEX
8
0
10
90.8544000000001
20
63.398881766029
30
0
0
VERTEX
8
0
10
91.7504000000001
20
63.6764864767088
30
0
0
VERTEX
8
0
10
92.6464000000001
20
63.9383980119614
30
0
0
VERTEX
8
0
10
93.5424000000001
20
64.2017033204624
30
0
0
VERTEX
8
0
10
94.4384000000001
20
64.4593726967484
30
0
0
VERTEX
8
0
10
95.3344000000001
20
64.7005733085704
30
0
0
VERTEX
8
0
10
96.2304000000001
20
64.9423579865731
30
0
0
VERTEX
8
0
10
97.1264000000001
20
65.1786506599276
30
0
0
VERTEX
8
0
10
98.0224000000001
20
65.4009494940135
30
0
0
VERTEX
8
0
10
98.9184000000001
20
65.6245317472027
30
0
0
VERTEX
8
0
10
99.8144000000001
20
65.8427287898781
30
0
0
VERTEX
8
0
10
100.7104
20
66.0607938426599
30
0
0
VERTEX
8
0
10
101.6064
20
66.283661099749
30
0
0
VERTEX
8
0
10
102.5024
20
66.5010453213188
30
0
0
VERTEX
8
0
10
103.3984
20
66.6956519658429
30
0
0
VERTEX
8
0
10
104.2944
20
66.8888790234174
30
0
0
VERTEX
8
0
10
105.1904
20
67.0768803830126
30
0
0
VERTEX
8
0
10
106.0864
20
67.2685645924832
30
0
0
VERTEX
8
0
10
106.9824
20
67.4628565803685
30
0
0
VERTEX
8
0
10
107.8784
20
67.6518686609483
30
0
0
VERTEX
8
0
10
108.7744
20
67.8303361778549
30
0
0
VERTEX
8
0
10
109.6704
20
68.0089834255779
30
0
0
VERTEX
8
0
10
110.5664
20
68.182481709561
30
0
0
VERTEX
8
0
10
111.4624
20
68.3460158829481
30
0
0
VERTEX
8
0
10
112.3584
20
68.5094250929808
30
0
0
VERTEX
8
0
10
113.2544
20
68.6678254507934
30
0
0
VERTEX
8
0
10
114.1504
20
68.8070704557796
30
0
0
VERTEX
8
0
10
115.0464
20
68.94626441578
30
0
0
VERTEX
8
0
10
115.9424
20
69.0806605354638
30
0
0
VERTEX
8
0
10
116.8384
20
69.2063013990323
30
0
0
VERTEX
8
0
10
117.7344
20
69.331330371133
30
0
0
VERTEX
8
0
10
118.6304
20
69.4517151170075
30
0
0
VERTEX
8
0
10
119.5264
20
69.5696193457536
30
0
0
VERTEX
8
0
10
120.4224
20
69.6859524219366
30
0
0
VERTEX
8
0
10
121.3184
20
69.7977724756636
30
0
0
VERTEX
8
0
10
122.2144
20
69.890092102942
30
0
0
VERTEX
8
0
10
123.1104
20
69.9832600574802
30
0
0
VERTEX
8
0
10
124.0064
20
70.0721730278421
30
0
0
VERTEX
8
0
10
124.9024
20
70.1641905911216
30
0
0
VERTEX
8
0
10
125.7984
20
70.2529638402534
30
0
0
VERTEX
8
0
10
126.6944
20
70.3376050615146
30
0
0
VERTEX
8
0
10
127.5904
20
70.4062847849664
30
0
0
VERTEX
8
0
10
128.4864
20
70.4757124853652
30
0
0
VERTEX
8
0
10
129.3824
20
70.5412682718351
30
0
0
VERTEX
8
0
10
130.2784
20
70.5955314984094
30
0
0
VERTEX
8
0
10
131.1744
20
70.6496988591302
30
0
0
VERTEX
8
0
10
132.0704
20
70.7002526608551
30
0
0
VERTEX
8
0
10
132.9664
20
70.7487333456155
30
0
0
VERTEX
8
0
10
133.8624
20
70.794686228019
30
0
0
VERTEX
8
0
10
134.7584
20
70.8372312600087
30
0
0
VERTEX
8
0
10
135.6544
20
70.8906168095553
30
0
0
VERTEX
8
0
10
136.5504
20
70.9374155306716
30
0
0
VERTEX
8
0
10
137.4464
20
70.9809849459246
30
0
0
VERTEX
8
0
10
138.3424
20
71.0109316558147
30
0
0
VERTEX
8
0
10
139.2384
20
71.0422516735667
30
0
0
VERTEX
8
0
10
140.1344
20
71.0714855902708
30
0
0
VERTEX
8
0
10
141.0304
20
71.0975830353075
30
0
0
VERTEX
8
0
10
141.9264
20
71.1219787701021
30
0
0
VERTEX
8
0
10
142.8224
20
71.1482996163095
30
0
0
VERTEX
8
0
10
143.7184
20
71.1743104141673
30
0
0
VERTEX
8
0
10
144.6144
20
71.1986604280016
30
0
0
VERTEX
8
0
10
145.5104
20
71.2206414885634
30
0
0
VERTEX
8
0
10
146.4064
20
71.2398128367943
30
0
0
VERTEX
8
0
10
147.3024
20
71.2574353602952
30
0
0
VERTEX
8
0
10
148.1984
20
71.2730165434551
30
0
0
VERTEX
8
0
10
149.0944
20
71.2862959988329
30
0
0
VERTEX
8
0
10
149.9904
20
71.2981864253591
30
0
0
VERTEX
8
0
10
150.8864
20
71.2974722282603
30
0
0
VERTEX
8
0
10
151.7824
20
71.2915541955823
30
0
0
VERTEX
8
0
10
152.6784
20
71.2845263663219
30
0
0
VERTEX
8
0
10
153.5744
20
71.2974512059322
30
0
0
VERTEX
8
0
10
154.4704
20
71.3140421093264
30
0
0
VERTEX
8
0
10
155.3664
20
71.3297625916745
30
0
0
VERTEX
8
0
10
156.2624
20
71.3360963607768
30
0
0
VERTEX
8
0
10
157.1584
20
71.340244408193
30
0
0
VERTEX
8
0
10
158.0544
20
71.3437965740085
30
0
0
VERTEX
8
0
10
158.9504
20
71.3586423645882
30
0
0
VERTEX
8
0
10
159.8464
20
71.3742683990561
30
0
0
VERTEX
8
0
10
160.7424
20
71.3897423622418
30
0
0
VERTEX
8
0
10
161.6384
20
71.4119032723351
30
0
0
VERTEX
8
0
10
162.5344
20
71.4344130255149
30
0
0
VERTEX
8
0
10
163.4304
20
71.4570709331263
30
0
0
VERTEX
8
0
10
164.3264
20
71.4759244422533
30
0
0
VERTEX
8
0
10
165.2224
20
71.494957966215
30
0
0
VERTEX
8
0
10
166.1184
20
71.5140972146045
30
0
0
SEQEND
8
0
0
ENDSEC
0
EOF
