0
SECTION
2
HEADER
9
$ACADVER
1
AC1009
0
ENDSEC
0
SECTION
2
ENTITIES
0
POLYLINE
8
0
62
0
70
1
10
0
20
0
30
0
0
VERTEX
8
0
10
0
20
0
30
0
0
VERTEX
8
0
10
0
20
110.373
30
0
0
VERTEX
8
0
10
179.2
20
110.373
30
0
0
VERTEX
8
0
10
179.2
20
0
30
0
0
SEQEND
8
0
0
TEXT
8
0
62
0
10
0
20
-12
30
0
40
8
1
0
50
0
0
LINE
8
0
62
0
10
17.92
20
0
30
0
11
17.92
21
3.2
31
0
0
LINE
8
0
62
0
10
17.92
20
110.373
30
0
11
17.92
21
107.173
31
0
0
LINE
8
0
62
0
10
35.84
20
0
30
0
11
35.84
21
3.2
31
0
0
LINE
8
0
62
0
10
35.84
20
110.373
30
0
11
35.84
21
107.173
31
0
0
LINE
8
0
62
0
10
53.76
20
0
30
0
11
53.76
21
3.2
31
0
0
LINE
8
0
62
0
10
53.76
20
110.373
30
0
11
53.76
21
107.173
31
0
0
LINE
8
0
62
0
10
71.68
20
0
30
0
11
71.68
21
3.2
31
0
0
LINE
8
0
62
0
10
71.68
20
110.373
30
0
11
71.68
21
107.173
31
0
0
LINE
8
0
62
0
10
89.6
20
0
30
0
11
89.6
21
6.4
31
0
0
LINE
8
0
62
0
10
89.6
20
110.373
30
0
11
89.6
21
103.973
31
0
0
TEXT
8
0
62
0
10
89.6
20
-12
30
0
40
8
1
0.2
50
0
0
LINE
8
0
62
0
10
107.52
20
0
30
0
11
107.52
21
3.2
31
0
0
LINE
8
0
62
0
10
107.52
20
110.373
30
0
11
107.52
21
107.173
31
0
0
LINE
8
0
62
0
10
125.44
20
0
30
0
11
125.44
21
3.2
31
0
0
LINE
8
0
62
0
10
125.44
20
110.373
30
0
11
125.44
21
107.173
31
0
0
LINE
8
0
62
0
10
143.36
20
0
30
0
11
143.36
21
3.2
31
0
0
LINE
8
0
62
0
10
143.36
20
110.373
30
0
11
143.36
21
107.173
31
0
0
LINE
8
0
62
0
10
161.28
20
0
30
0
11
161.28
21
3.2
31
0
0
LINE
8
0
62
0
10
161.28
20
110.373
30
0
11
161.28
21
107.173
31
0
0
LINE
8
0
62
0
10
179.2
20
0
30
0
11
179.2
21
6.4
31
0
0
LINE
8
0
62
0
10
179.2
20
110.373
30
0
11
179.2
21
103.973
31
0
0
TEXT
8
0
62
0
10
179.2
20
-12
30
0
40
8
1
0.4
50
0
0
TEXT
8
0
62
0
10
-4
20
-4
30
0
40
8
1
0
50
0
0
LINE
8
0
62
0
10
0
20
7.3582
30
0
11
3.2
21
7.3582
31
0
0
LINE
8
0
62
0
10
179.2
20
7.3582
30
0
11
176
21
7.3582
31
0
0
LINE
8
0
62
0
10
0
20
14.7164
30
0
11
3.2
21
14.7164
31
0
0
LINE
8
0
62
0
10
179.2
20
14.7164
30
0
11
176
21
14.7164
31
0
0
LINE
8
0
62
0
10
0
20
22.0746
30
0
11
3.2
21
22.0746
31
0
0
LINE
8
0
62
0
10
179.2
20
22.0746
30
0
11
176
21
22.0746
31
0
0
LINE
8
0
62
0
10
0
20
29.4328
30
0
11
3.2
21
29.4328
31
0
0
LINE
8
0
62
0
10
179.2
20
29.4328
30
0
11
176
21
29.4328
31
0
0
LINE
8
0
62
0
10
0
20
36.791
30
0
11
6.4
21
36.791
31
0
0
LINE
8
0
62
0
10
179.2
20
36.791
30
0
11
172.8
21
36.791
31
0
0
TEXT
8
0
62
0
10
-4
20
32.791
30
0
40
8
1
5
50
0
0
LINE
8
0
62
0
10
0
20
44.1492
30
0
11
3.2
21
44.1492
31
0
0
LINE
8
0
62
0
10
179.2
20
44.1492
30
0
11
176
21
44.1492
31
0
0
LINE
8
0
62
0
10
0
20
51.5074
30
0
11
3.2
21
51.5074
31
0
0
LINE
8
0
62
0
10
179.2
20
51.5074
30
0
11
176
21
51.5074
31
0
0
LINE
8
0
62
0
10
0
20
58.8656
30
0
11
3.2
21
58.8656
31
0
0
LINE
8
0
62
0
10
179.2
20
58.8656
30
0
11
176
21
58.8656
31
0
0
LINE
8
0
62
0
10
0
20
66.2238
30
0
11
3.2
21
66.2238
31
0
0
LINE
8
0
62
0
10
179.2
20
66.2238
30
0
11
176
21
66.2238
31
0
0
LINE
8
0
62
0
10
0
20
73.582
30
0
11
6.4
21
73.582
31
0
0
LINE
8
0
62
0
10
179.2
20
73.582
30
0
11
172.8
21
73.582
31
0
0
TEXT
8
0
62
0
10
-4
20
69.582
30
0
40
8
1
10
50
0
0
LINE
8
0
62
0
10
0
20
80.9402
30
0
11
3.2
21
80.9402
31
0
0
LINE
8
0
62
0
10
179.2
20
80.9402
30
0
11
176
21
80.9402
31
0
0
LINE
8
0
62
0
10
0
20
88.2984
30
0
11
3.2
21
88.2984
31
0
0
LINE
8
0
62
0
10
179.2
20
88.2984
30
0
11
176
21
88.2984
31
0
0
LINE
8
0
62
0
10
0
20
95.6566
30
0
11
3.2
21
95.6566
31
0
0
LINE
8
0
62
0
10
179.2
20
95.6566
30
0
11
176
21
95.6566
31
0
0
LINE
8
0
62
0
10
0
20
103.0148
30
0
11
3.2
21
103.0148
31
0
0
LINE
8
0
62
0
10
179.2
20
103.0148
30
0
11
176
21
103.0148
31
0
0
TEXT
8
0
62
0
10
-4
20
106.373
30
0
40
8
1
15
50
0
0
TEXT
8
0
62
0
10
89.6
20
-32
30
0
40
10
1
R (kpc)
50
0
0
TEXT
8
0
62
0
10
-24
20
55.1865
30
0
40
10
1
V (km/s)
50
90
0
TEXT
8
0
62
0
10
72.6
20
125.373
30
0
40
11
1
V vs. R
50
0
0
POLYLINE
8
0
62
5
70
0
10
0
20
0
30
0
0
VERTEX
8
0
10
18.816
20
3.07863534001487
30
0
0
VERTEX
8
0
10
19.264
20
3.13423269504526
30
0
0
VERTEX
8
0
10
19.712
20
3.18983005007566
30
0
0
VERTEX
8
0
10
20.16
20
3.24542740510605
30
0
0
VERTEX
8
0
10
20.608
20
3.30102476013645
30
0
0
VERTEX
8
0
10
21.056
20
3.35662211516685
30
0
0
VERTEX
8
0
10
21.504
20
3.41221947019724
30
0
0
VERTEX
8
0
10
21.952
20
3.47367744442427
30
0
0
VERTEX
8
0
10
22.4
20
3.53854102529307
30
0
0
VERTEX
8
0
10
22.848
20
3.60340460616186
30
0
0
VERTEX
8
0
10
23.296
20
3.66826818703066
30
0
0
VERTEX
8
0
10
23.744
20
3.73313176789946
30
0
0
VERTEX
8
0
10
24.192
20
3.79799534876825
30
0
0
VERTEX
8
0
10
24.64
20
3.85733721789748
30
0
0
VERTEX
8
0
10
25.088
20
3.91478781809555
30
0
0
VERTEX
8
0
10
25.536
20
3.97223841829363
30
0
0
VERTEX
8
0
10
25.984
20
4.0296890184917
30
0
0
VERTEX
8
0
10
26.432
20
4.08713961868977
30
0
0
VERTEX
8
0
10
26.88
20
4.14459021888785
30
0
0
VERTEX
8
0
10
27.328
20
4.21157321126865
30
0
0
VERTEX
8
0
10
27.776
20
4.28014328247279
30
0
0
VERTEX
8
0
10
28.224
20
4.34871335367694
30
0
0
VERTEX
8
0
10
28.672
20
4.41728342488109
30
0
0
VERTEX
8
0
10
29.12
20
4.48585349608524
30
0
0
VERTEX
8
0
10
29.568
20
4.55442356728938
30
0
0
VERTEX
8
0
10
30.016
20
4.60682031335937
30
0
0
VERTEX
8
0
10
30.464
20
4.6587111780544
30
0
0
VERTEX
8
0
10
30.912
20
4.71060204274944
30
0
0
VERTEX
8
0
10
31.36
20
4.76249290744448
30
0
0
VERTEX
8
0
10
31.808
20
4.81438377213953
30
0
0
VERTEX
8
0
10
32.256
20
4.86627463683456
30
0
0
VERTEX
8
0
10
32.704
20
4.93420822330227
30
0
0
VERTEX
8
0
10
33.152
20
5.00092504933875
30
0
0
VERTEX
8
0
10
33.6
20
5.06764187537522
30
0
0
VERTEX
8
0
10
34.048
20
5.13435870141169
30
0
0
VERTEX
8
0
10
34.496
20
5.20107552744817
30
0
0
VERTEX
8
0
10
34.944
20
5.26779235348464
30
0
0
VERTEX
8
0
10
35.392
20
5.31458638066678
30
0
0
VERTEX
8
0
10
35.84
20
5.36462400019413
30
0
0
VERTEX
8
0
10
36.288
20
5.41466161972149
30
0
0
VERTEX
8
0
10
36.736
20
5.46469923924884
30
0
0
VERTEX
8
0
10
37.184
20
5.51473685877619
30
0
0
VERTEX
8
0
10
37.632
20
5.56477447830355
30
0
0
VERTEX
8
0
10
38.08
20
5.60512430418005
30
0
0
VERTEX
8
0
10
38.528
20
5.64774894303668
30
0
0
VERTEX
8
0
10
38.976
20
5.69037358189332
30
0
0
VERTEX
8
0
10
39.424
20
5.73299822074995
30
0
0
VERTEX
8
0
10
39.872
20
5.77562285960658
30
0
0
VERTEX
8
0
10
40.32
20
5.81824749846322
30
0
0
VERTEX
8
0
10
40.768
20
5.86087213731985
30
0
0
VERTEX
8
0
10
41.216
20
5.90349677617649
30
0
0
VERTEX
8
0
10
41.664
20
5.94612141503312
30
0
0
VERTEX
8
0
10
42.112
20
5.98874605388976
30
0
0
VERTEX
8
0
10
42.56
20
6.03137069274639
30
0
0
VERTEX
8
0
10
43.008
20
6.07498064303919
30
0
0
VERTEX
8
0
10
43.456
20
6.1194585270635
30
0
0
VERTEX
8
0
10
43.904
20
6.16393641108782
30
0
0
VERTEX
8
0
10
44.352
20
6.20841429511214
30
0
0
VERTEX
8
0
10
44.8
20
6.25289217913645
30
0
0
VERTEX
8
0
10
45.248
20
6.29737006316077
30
0
0
VERTEX
8
0
10
45.696
20
6.33946071612163
30
0
0
VERTEX
8
0
10
46.144
20
6.38023210981059
30
0
0
VERTEX
8
0
10
46.592
20
6.42100350349954
30
0
0
VERTEX
8
0
10
47.04
20
6.4617748971885
30
0
0
VERTEX
8
0
10
47.488
20
6.50254629087746
30
0
0
VERTEX
8
0
10
47.936
20
6.54331768456641
30
0
0
VERTEX
8
0
10
48.384
20
6.58689291750995
30
0
0
VERTEX
8
0
10
48.832
20
6.63137080153427
30
0
0
VERTEX
8
0
10
49.28
20
6.67584868555858
30
0
0
VERTEX
8
0
10
49.728
20
6.7203265695829
30
0
0
VERTEX
8
0
10
50.176
20
6.76480445360721
30
0
0
VERTEX
8
0
10
50.624
20
6.80928233763153
30
0
0
VERTEX
8
0
10
51.072
20
6.85053977421014
30
0
0
VERTEX
8
0
10
51.52
20
6.89131116789909
30
0
0
VERTEX
8
0
10
51.968
20
6.93208256158805
30
0
0
VERTEX
8
0
10
52.416
20
6.97285395527701
30
0
0
VERTEX
8
0
10
52.864
20
7.01362534896596
30
0
0
VERTEX
8
0
10
53.312
20
7.05439674265492
30
0
0
VERTEX
8
0
10
53.76
20
7.0878940250702
30
0
0
VERTEX
8
0
10
54.208
20
7.12125243808843
30
0
0
VERTEX
8
0
10
54.656
20
7.15461085110666
30
0
0
VERTEX
8
0
10
55.104
20
7.18796926412489
30
0
0
VERTEX
8
0
10
55.552
20
7.22132767714313
30
0
0
VERTEX
8
0
10
56
20
7.25468609016136
30
0
0
VERTEX
8
0
10
56.448
20
7.28399083935163
30
0
0
VERTEX
8
0
10
56.896
20
7.31364276203451
30
0
0
VERTEX
8
0
10
57.344
20
7.34329468471738
30
0
0
VERTEX
8
0
10
57.792
20
7.37294660740026
30
0
0
VERTEX
8
0
10
58.24
20
7.40259853008314
30
0
0
VERTEX
8
0
10
58.688
20
7.43225045276601
30
0
0
VERTEX
8
0
10
59.136
20
7.46860778347754
30
0
0
VERTEX
8
0
10
59.584
20
7.50381944166346
30
0
0
VERTEX
8
0
10
60.032
20
7.53903109984938
30
0
0
VERTEX
8
0
10
60.48
20
7.5742427580353
30
0
0
VERTEX
8
0
10
60.928
20
7.60945441622122
30
0
0
VERTEX
8
0
10
61.376
20
7.64466607440714
30
0
0
VERTEX
8
0
10
61.824
20
7.67743429248794
30
0
0
VERTEX
8
0
10
62.272
20
7.71079270550618
30
0
0
VERTEX
8
0
10
62.72
20
7.74415111852441
30
0
0
VERTEX
8
0
10
63.168
20
7.77750953154265
30
0
0
VERTEX
8
0
10
63.616
20
7.81086794456089
30
0
0
VERTEX
8
0
10
64.064
20
7.84422635757912
30
0
0
VERTEX
8
0
10
64.512
20
7.86962953799533
30
0
0
VERTEX
8
0
10
64.96
20
7.89742821551052
30
0
0
VERTEX
8
0
10
65.408
20
7.92522689302572
30
0
0
VERTEX
8
0
10
65.856
20
7.95302557054092
30
0
0
VERTEX
8
0
10
66.304
20
7.98082424805611
30
0
0
VERTEX
8
0
10
66.752
20
8.00962972869987
30
0
0
VERTEX
8
0
10
67.2
20
8.03928165138275
30
0
0
VERTEX
8
0
10
67.648
20
8.06893357406562
30
0
0
VERTEX
8
0
10
68.096
20
8.0985854967485
30
0
0
VERTEX
8
0
10
68.544
20
8.12823741943138
30
0
0
VERTEX
8
0
10
68.992
20
8.15788934211426
30
0
0
VERTEX
8
0
10
69.44
20
8.19483190814189
30
0
0
VERTEX
8
0
10
69.888
20
8.23560330183084
30
0
0
VERTEX
8
0
10
70.336
20
8.2763746955198
30
0
0
VERTEX
8
0
10
70.784
20
8.31714608920876
30
0
0
VERTEX
8
0
10
71.232
20
8.35791748289771
30
0
0
VERTEX
8
0
10
71.68
20
8.39868887658667
30
0
0
VERTEX
8
0
10
72.128
20
8.44800073819376
30
0
0
VERTEX
8
0
10
72.576
20
8.49989160288879
30
0
0
VERTEX
8
0
10
73.024
20
8.55178246758382
30
0
0
VERTEX
8
0
10
73.472
20
8.60367333227886
30
0
0
VERTEX
8
0
10
73.92
20
8.65556419697389
30
0
0
VERTEX
8
0
10
74.368
20
8.70745506166892
30
0
0
VERTEX
8
0
10
74.816
20
8.75934592636395
30
0
0
VERTEX
8
0
10
75.264
20
8.81123679105899
30
0
0
VERTEX
8
0
10
75.712
20
8.86312765575402
30
0
0
VERTEX
8
0
10
76.16
20
8.91501852044906
30
0
0
VERTEX
8
0
10
76.608
20
8.96690938514409
30
0
0
VERTEX
8
0
10
77.056
20
9.01880024983913
30
0
0
VERTEX
8
0
10
77.504
20
9.07621117306662
30
0
0
VERTEX
8
0
10
77.952
20
9.13366177326469
30
0
0
VERTEX
8
0
10
78.4
20
9.19111237346276
30
0
0
VERTEX
8
0
10
78.848
20
9.24856297366084
30
0
0
VERTEX
8
0
10
79.296
20
9.30601357385891
30
0
0
VERTEX
8
0
10
79.744
20
9.36346417405698
30
0
0
VERTEX
8
0
10
80.192
20
9.4168181270423
30
0
0
VERTEX
8
0
10
80.64
20
9.47056223690501
30
0
0
VERTEX
8
0
10
81.088
20
9.52430634676773
30
0
0
VERTEX
8
0
10
81.536
20
9.57805045663045
30
0
0
VERTEX
8
0
10
81.984
20
9.63179456649316
30
0
0
VERTEX
8
0
10
82.432
20
9.68553867635588
30
0
0
VERTEX
8
0
10
82.88
20
9.73928278621859
30
0
0
VERTEX
8
0
10
83.328
20
9.79302689608131
30
0
0
VERTEX
8
0
10
83.776
20
9.84677100594402
30
0
0
VERTEX
8
0
10
84.224
20
9.90051511580673
30
0
0
VERTEX
8
0
10
84.672
20
9.95425922566945
30
0
0
VERTEX
8
0
10
85.12
20
10.0080033355322
30
0
0
VERTEX
8
0
10
85.568
20
10.0716071725849
30
0
0
VERTEX
8
0
10
86.016
20
10.1327642631184
30
0
0
VERTEX
8
0
10
86.464
20
10.1939213536518
30
0
0
VERTEX
8
0
10
86.912
20
10.2550784441852
30
0
0
VERTEX
8
0
10
87.36
20
10.3162355347187
30
0
0
VERTEX
8
0
10
87.808
20
10.3773926252521
30
0
0
VERTEX
8
0
10
88.256
20
10.4278567722132
30
0
0
VERTEX
8
0
10
88.704
20
10.4816008820759
30
0
0
VERTEX
8
0
10
89.152
20
10.5353449919386
30
0
0
VERTEX
8
0
10
89.6
20
10.5890891018014
30
0
0
VERTEX
8
0
10
90.048
20
10.6428332116641
30
0
0
VERTEX
8
0
10
90.496
20
10.7068602697364
30
0
0
VERTEX
8
0
10
90.944
20
10.7791368312759
30
0
0
VERTEX
8
0
10
91.392
20
10.8514133928154
30
0
0
VERTEX
8
0
10
91.84
20
10.9236899543549
30
0
0
VERTEX
8
0
10
92.288
20
10.9959665158944
30
0
0
VERTEX
8
0
10
92.736
20
11.0682430774339
30
0
0
VERTEX
8
0
10
93.184
20
11.1355732433074
30
0
0
VERTEX
8
0
10
93.632
20
11.2004368241762
30
0
0
VERTEX
8
0
10
94.08
20
11.265300405045
30
0
0
VERTEX
8
0
10
94.528
20
11.3301639859137
30
0
0
VERTEX
8
0
10
94.976
20
11.3950275667825
30
0
0
VERTEX
8
0
10
95.424
20
11.4598911476513
30
0
0
VERTEX
8
0
10
95.872
20
11.5261996315322
30
0
0
VERTEX
8
0
10
96.3200000000001
20
11.5929164575687
30
0
0
VERTEX
8
0
10
96.768
20
11.6596332836052
30
0
0
VERTEX
8
0
10
97.2160000000001
20
11.7263501096416
30
0
0
VERTEX
8
0
10
97.664
20
11.7930669356781
30
0
0
VERTEX
8
0
10
98.1120000000001
20
11.8597837617146
30
0
0
VERTEX
8
0
10
98.56
20
11.9298070019664
30
0
0
VERTEX
8
0
10
99.0080000000001
20
12.0002303183382
30
0
0
VERTEX
8
0
10
99.456
20
12.07065363471
30
0
0
VERTEX
8
0
10
99.9040000000001
20
12.1410769510819
30
0
0
VERTEX
8
0
10
100.352
20
12.2115002674537
30
0
0
VERTEX
8
0
10
100.8
20
12.2819235838255
30
0
0
VERTEX
8
0
10
101.248
20
12.3467623665877
30
0
0
VERTEX
8
0
10
101.696
20
12.4116259474565
30
0
0
VERTEX
8
0
10
102.144
20
12.4764895283253
30
0
0
VERTEX
8
0
10
102.592
20
12.5413531091941
30
0
0
VERTEX
8
0
10
103.04
20
12.6062166900629
30
0
0
VERTEX
8
0
10
103.488
20
12.6710802709317
30
0
0
VERTEX
8
0
10
103.936
20
12.7380136670993
30
0
0
VERTEX
8
0
10
104.384
20
12.8047304931357
30
0
0
VERTEX
8
0
10
104.832
20
12.8714473191722
30
0
0
VERTEX
8
0
10
105.28
20
12.9381641452087
30
0
0
VERTEX
8
0
10
105.728
20
13.0048809712452
30
0
0
VERTEX
8
0
10
106.176
20
13.0715977972816
30
0
0
VERTEX
8
0
10
106.624
20
13.1360365039238
30
0
0
VERTEX
8
0
10
107.072
20
13.2009000847925
30
0
0
VERTEX
8
0
10
107.52
20
13.2657636656613
30
0
0
VERTEX
8
0
10
107.968
20
13.3306272465301
30
0
0
VERTEX
8
0
10
108.416
20
13.3954908273989
30
0
0
VERTEX
8
0
10
108.864
20
13.4603544082677
30
0
0
VERTEX
8
0
10
109.312
20
13.5127858716869
30
0
0
VERTEX
8
0
10
109.76
20
13.5683832267173
30
0
0
VERTEX
8
0
10
110.208
20
13.6239805817477
30
0
0
VERTEX
8
0
10
110.656
20
13.6795779367781
30
0
0
VERTEX
8
0
10
111.104
20
13.7351752918085
30
0
0
VERTEX
8
0
10
111.552
20
13.7907726468389
30
0
0
VERTEX
8
0
10
112
20
13.8517594570403
30
0
0
VERTEX
8
0
10
112.448
20
13.911063302406
30
0
0
VERTEX
8
0
10
112.896
20
13.9703671477718
30
0
0
VERTEX
8
0
10
113.344
20
14.0296709931375
30
0
0
VERTEX
8
0
10
113.792
20
14.0889748385033
30
0
0
VERTEX
8
0
10
114.24
20
14.1472288973557
30
0
0
VERTEX
8
0
10
114.688
20
14.2046794975537
30
0
0
VERTEX
8
0
10
115.136
20
14.2621300977518
30
0
0
VERTEX
8
0
10
115.584
20
14.3195806979499
30
0
0
VERTEX
8
0
10
116.032
20
14.377031298148
30
0
0
VERTEX
8
0
10
116.48
20
14.434481898346
30
0
0
VERTEX
8
0
10
116.928
20
14.4881582267173
30
0
0
VERTEX
8
0
10
117.376
20
14.5400490914124
30
0
0
VERTEX
8
0
10
117.824
20
14.5919399561074
30
0
0
VERTEX
8
0
10
118.272
20
14.6438308208024
30
0
0
VERTEX
8
0
10
118.72
20
14.6957216854975
30
0
0
VERTEX
8
0
10
119.168
20
14.7476125501925
30
0
0
VERTEX
8
0
10
119.616
20
14.7995034148875
30
0
0
VERTEX
8
0
10
120.064
20
14.8513942795826
30
0
0
VERTEX
8
0
10
120.512
20
14.9032851442776
30
0
0
VERTEX
8
0
10
120.96
20
14.9551760089726
30
0
0
VERTEX
8
0
10
121.408
20
15.0070668736677
30
0
0
VERTEX
8
0
10
121.856
20
15.0589577383627
30
0
0
VERTEX
8
0
10
122.304
20
15.0907522174571
30
0
0
VERTEX
8
0
10
122.752
20
15.12040414014
30
0
0
VERTEX
8
0
10
123.2
20
15.1500560628229
30
0
0
VERTEX
8
0
10
123.648
20
15.1797079855057
30
0
0
VERTEX
8
0
10
124.096
20
15.2093599081886
30
0
0
VERTEX
8
0
10
124.544
20
15.2390118308715
30
0
0
VERTEX
8
0
10
124.992
20
15.2686637535543
30
0
0
VERTEX
8
0
10
125.44
20
15.2983156762372
30
0
0
VERTEX
8
0
10
125.888
20
15.3279675989201
30
0
0
VERTEX
8
0
10
126.336
20
15.357619521603
30
0
0
VERTEX
8
0
10
126.784
20
15.3872714442859
30
0
0
VERTEX
8
0
10
127.232
20
15.4169233669687
30
0
0
VERTEX
8
0
10
127.68
20
15.4423926756692
30
0
0
VERTEX
8
0
10
128.128
20
15.4683381080168
30
0
0
VERTEX
8
0
10
128.576
20
15.4942835403643
30
0
0
VERTEX
8
0
10
129.024
20
15.5202289727118
30
0
0
VERTEX
8
0
10
129.472
20
15.5461744050593
30
0
0
VERTEX
8
0
10
129.92
20
15.5721198374068
30
0
0
VERTEX
8
0
10
130.368
20
15.6141625473616
30
0
0
VERTEX
8
0
10
130.816
20
15.6530806958829
30
0
0
VERTEX
8
0
10
131.264
20
15.6919988444041
30
0
0
VERTEX
8
0
10
131.712
20
15.7309169929254
30
0
0
VERTEX
8
0
10
132.16
20
15.7698351414467
30
0
0
VERTEX
8
0
10
132.608
20
15.808753289968
30
0
0
VERTEX
8
0
10
133.056
20
15.8351318625777
30
0
0
VERTEX
8
0
10
133.504
20
15.8647837852606
30
0
0
VERTEX
8
0
10
133.952
20
15.8944357079435
30
0
0
VERTEX
8
0
10
134.4
20
15.9240876306263
30
0
0
VERTEX
8
0
10
134.848
20
15.9537395533092
30
0
0
VERTEX
8
0
10
135.296
20
15.9833914759921
30
0
0
VERTEX
8
0
10
135.744
20
16.0048947408413
30
0
0
VERTEX
8
0
10
136.192
20
16.0289869280212
30
0
0
VERTEX
8
0
10
136.64
20
16.053079115201
30
0
0
VERTEX
8
0
10
137.088
20
16.0771713023809
30
0
0
VERTEX
8
0
10
137.536
20
16.1012634895607
30
0
0
SEQEND
8
0
0
POLYLINE
8
0
62
6
70
0
10
0
20
0
30
0
0
VERTEX
8
0
10
23.8140733418522
20
0
30
0
0
VERTEX
8
0
10
24.192
20
0.242948042429484
30
0
0
VERTEX
8
0
10
24.64
20
0.524316287399453
30
0
0
VERTEX
8
0
10
25.088
20
0.803415009652039
30
0
0
VERTEX
8
0
10
25.536
20
1.08251373190462
30
0
0
VERTEX
8
0
10
25.984
20
1.36161245415721
30
0
0
VERTEX
8
0
10
26.432
20
1.6407111764098
30
0
0
VERTEX
8
0
10
26.88
20
1.91980989866238
30
0
0
VERTEX
8
0
10
27.328
20
2.1868342574835
30
0
0
VERTEX
8
0
10
27.776
20
2.45184831646171
30
0
0
VERTEX
8
0
10
28.224
20
2.71686237543992
30
0
0
VERTEX
8
0
10
28.672
20
2.98187643441813
30
0
0
VERTEX
8
0
10
29.12
20
3.24689049339634
30
0
0
VERTEX
8
0
10
29.568
20
3.51190455237455
30
0
0
VERTEX
8
0
10
30.016
20
3.82903265900733
30
0
0
VERTEX
8
0
10
30.464
20
4.14779082784825
30
0
0
VERTEX
8
0
10
30.912
20
4.46654899668918
30
0
0
VERTEX
8
0
10
31.36
20
4.7853071655301
30
0
0
VERTEX
8
0
10
31.808
20
5.10406533437102
30
0
0
VERTEX
8
0
10
32.256
20
5.42282350321195
30
0
0
VERTEX
8
0
10
32.704
20
5.68142146540536
30
0
0
VERTEX
8
0
10
33.152
20
5.94458227921589
30
0
0
VERTEX
8
0
10
33.6
20
6.20774309302642
30
0
0
VERTEX
8
0
10
34.048
20
6.47090390683695
30
0
0
VERTEX
8
0
10
34.496
20
6.73406472064749
30
0
0
VERTEX
8
0
10
34.944
20
6.99722553445802
30
0
0
VERTEX
8
0
10
35.392
20
7.25374541531711
30
0
0
VERTEX
8
0
10
35.84
20
7.5113464936246
30
0
0
VERTEX
8
0
10
36.288
20
7.7689475719321
30
0
0
VERTEX
8
0
10
36.736
20
8.02654865023959
30
0
0
VERTEX
8
0
10
37.184
20
8.28414972854709
30
0
0
VERTEX
8
0
10
37.632
20
8.54175080685458
30
0
0
VERTEX
8
0
10
38.08
20
8.77271045262223
30
0
0
VERTEX
8
0
10
38.528
20
9.00992583408525
30
0
0
VERTEX
8
0
10
38.976
20
9.24714121554827
30
0
0
VERTEX
8
0
10
39.424
20
9.48435659701128
30
0
0
VERTEX
8
0
10
39.872
20
9.72157197847429
30
0
0
VERTEX
8
0
10
40.32
20
9.95878735993731
30
0
0
VERTEX
8
0
10
40.768
20
10.2038934989252
30
0
0
VERTEX
8
0
10
41.216
20
10.4466686158912
30
0
0
VERTEX
8
0
10
41.664
20
10.6894437328573
30
0
0
VERTEX
8
0
10
42.112
20
10.9322188498233
30
0
0
VERTEX
8
0
10
42.56
20
11.1749939667894
30
0
0
VERTEX
8
0
10
43.008
20
11.4157984608831
30
0
0
VERTEX
8
0
10
43.456
20
11.6548670875138
30
0
0
VERTEX
8
0
10
43.904
20
11.8939357141445
30
0
0
VERTEX
8
0
10
44.352
20
12.1330043407752
30
0
0
VERTEX
8
0
10
44.8
20
12.3720729674059
30
0
0
VERTEX
8
0
10
45.248
20
12.6111415940366
30
0
0
VERTEX
8
0
10
45.696
20
12.8502102206673
30
0
0
VERTEX
8
0
10
46.144
20
13.089278847298
30
0
0
VERTEX
8
0
10
46.592
20
13.3283474739287
30
0
0
VERTEX
8
0
10
47.04
20
13.5674161005594
30
0
0
VERTEX
8
0
10
47.488
20
13.8064847271901
30
0
0
VERTEX
8
0
10
47.936
20
14.0455533538208
30
0
0
VERTEX
8
0
10
48.384
20
14.2846219804515
30
0
0
VERTEX
8
0
10
48.832
20
14.5236906070821
30
0
0
VERTEX
8
0
10
49.28
20
14.7627592337128
30
0
0
VERTEX
8
0
10
49.728
20
15.0018278603435
30
0
0
VERTEX
8
0
10
50.176
20
15.2408964869742
30
0
0
VERTEX
8
0
10
50.624
20
15.4799651136049
30
0
0
VERTEX
8
0
10
51.072
20
15.7190337402356
30
0
0
VERTEX
8
0
10
51.52
20
15.9581023668663
30
0
0
VERTEX
8
0
10
51.968
20
16.197170993497
30
0
0
VERTEX
8
0
10
52.416
20
16.4362396201277
30
0
0
VERTEX
8
0
10
52.864
20
16.6753082467584
30
0
0
VERTEX
8
0
10
53.312
20
16.9143768733891
30
0
0
VERTEX
8
0
10
53.76
20
17.0988896654672
30
0
0
VERTEX
8
0
10
54.208
20
17.2823609370675
30
0
0
VERTEX
8
0
10
54.656
20
17.4658322086678
30
0
0
VERTEX
8
0
10
55.104
20
17.6493034802681
30
0
0
VERTEX
8
0
10
55.552
20
17.8327747518684
30
0
0
VERTEX
8
0
10
56
20
18.0162460234687
30
0
0
VERTEX
8
0
10
56.448
20
18.1835026397571
30
0
0
VERTEX
8
0
10
56.896
20
18.352147950016
30
0
0
VERTEX
8
0
10
57.344
20
18.5207932602749
30
0
0
VERTEX
8
0
10
57.792
20
18.6894385705337
30
0
0
VERTEX
8
0
10
58.24
20
18.8580838807926
30
0
0
VERTEX
8
0
10
58.688
20
19.0267291910514
30
0
0
VERTEX
8
0
10
59.136
20
19.1953745013103
30
0
0
VERTEX
8
0
10
59.584
20
19.3640198115692
30
0
0
VERTEX
8
0
10
60.032
20
19.532665121828
30
0
0
VERTEX
8
0
10
60.48
20
19.7013104320869
30
0
0
VERTEX
8
0
10
60.928
20
19.8699557423458
30
0
0
VERTEX
8
0
10
61.376
20
20.0386010526046
30
0
0
VERTEX
8
0
10
61.824
20
20.2048029227584
30
0
0
VERTEX
8
0
10
62.272
20
20.3715949878496
30
0
0
VERTEX
8
0
10
62.72
20
20.5383870529407
30
0
0
VERTEX
8
0
10
63.168
20
20.7051791180319
30
0
0
VERTEX
8
0
10
63.616
20
20.8719711831231
30
0
0
VERTEX
8
0
10
64.064
20
21.0387632482143
30
0
0
VERTEX
8
0
10
64.512
20
21.2082070575061
30
0
0
VERTEX
8
0
10
64.96
20
21.376852367765
30
0
0
VERTEX
8
0
10
65.408
20
21.5454976780239
30
0
0
VERTEX
8
0
10
65.856
20
21.7141429882827
30
0
0
VERTEX
8
0
10
66.304
20
21.8827882985416
30
0
0
VERTEX
8
0
10
66.752
20
22.0514336088004
30
0
0
VERTEX
8
0
10
67.2
20
22.2200789190593
30
0
0
VERTEX
8
0
10
67.648
20
22.3887242293182
30
0
0
VERTEX
8
0
10
68.096
20
22.557369539577
30
0
0
VERTEX
8
0
10
68.544
20
22.7260148498359
30
0
0
VERTEX
8
0
10
68.992
20
22.8946601600948
30
0
0
VERTEX
8
0
10
69.44
20
23.0535846125606
30
0
0
VERTEX
8
0
10
69.888
20
23.2074039614781
30
0
0
VERTEX
8
0
10
70.336
20
23.3612233103955
30
0
0
VERTEX
8
0
10
70.784
20
23.5150426593129
30
0
0
VERTEX
8
0
10
71.232
20
23.6688620082303
30
0
0
VERTEX
8
0
10
71.68
20
23.8226813571478
30
0
0
VERTEX
8
0
10
72.128
20
23.9337983664745
30
0
0
VERTEX
8
0
10
72.576
20
24.0320203603615
30
0
0
VERTEX
8
0
10
73.024
20
24.1302423542485
30
0
0
VERTEX
8
0
10
73.472
20
24.2284643481356
30
0
0
VERTEX
8
0
10
73.92
20
24.3266863420226
30
0
0
VERTEX
8
0
10
74.368
20
24.4249083359096
30
0
0
VERTEX
8
0
10
74.816
20
24.5166034681356
30
0
0
VERTEX
8
0
10
75.264
20
24.6074124813519
30
0
0
VERTEX
8
0
10
75.712
20
24.6982214945683
30
0
0
VERTEX
8
0
10
76.16
20
24.7890305077846
30
0
0
VERTEX
8
0
10
76.608
20
24.8798395210009
30
0
0
VERTEX
8
0
10
77.056
20
24.9706485342172
30
0
0
VERTEX
8
0
10
77.504
20
25.0632975669443
30
0
0
VERTEX
8
0
10
77.952
20
25.1559598253283
30
0
0
VERTEX
8
0
10
78.4
20
25.2486220837123
30
0
0
VERTEX
8
0
10
78.848
20
25.3412843420963
30
0
0
VERTEX
8
0
10
79.296
20
25.4339466004803
30
0
0
VERTEX
8
0
10
79.744
20
25.5266088588643
30
0
0
VERTEX
8
0
10
80.192
20
25.6192711172482
30
0
0
VERTEX
8
0
10
80.64
20
25.7119333756322
30
0
0
VERTEX
8
0
10
81.088
20
25.8045956340162
30
0
0
VERTEX
8
0
10
81.536
20
25.8972578924002
30
0
0
VERTEX
8
0
10
81.984
20
25.9899201507842
30
0
0
VERTEX
8
0
10
82.432
20
26.0825824091682
30
0
0
VERTEX
8
0
10
82.88
20
26.1752446675522
30
0
0
VERTEX
8
0
10
83.328
20
26.2679069259362
30
0
0
VERTEX
8
0
10
83.776
20
26.3605691843202
30
0
0
VERTEX
8
0
10
84.224
20
26.4532314427042
30
0
0
VERTEX
8
0
10
84.672
20
26.5458937010882
30
0
0
VERTEX
8
0
10
85.12
20
26.6385559594722
30
0
0
VERTEX
8
0
10
85.568
20
26.7287532860586
30
0
0
VERTEX
8
0
10
86.016
20
26.8195622992749
30
0
0
VERTEX
8
0
10
86.464
20
26.9103713124913
30
0
0
VERTEX
8
0
10
86.912
20
27.0011803257076
30
0
0
VERTEX
8
0
10
87.36
20
27.0919893389239
30
0
0
VERTEX
8
0
10
87.808
20
27.1827983521402
30
0
0
VERTEX
8
0
10
88.256
20
27.2736073653565
30
0
0
VERTEX
8
0
10
88.704
20
27.3644163785728
30
0
0
VERTEX
8
0
10
89.152
20
27.4552253917891
30
0
0
VERTEX
8
0
10
89.6
20
27.5460344050054
30
0
0
VERTEX
8
0
10
90.048
20
27.6368434182217
30
0
0
VERTEX
8
0
10
90.496
20
27.7245675469752
30
0
0
VERTEX
8
0
10
90.944
20
27.8098168246884
30
0
0
VERTEX
8
0
10
91.392
20
27.8950661024017
30
0
0
VERTEX
8
0
10
91.84
20
27.980315380115
30
0
0
VERTEX
8
0
10
92.288
20
28.0655646578282
30
0
0
VERTEX
8
0
10
92.736
20
28.1508139355415
30
0
0
VERTEX
8
0
10
93.184
20
28.2372998121713
30
0
0
VERTEX
8
0
10
93.632
20
28.3244023350523
30
0
0
VERTEX
8
0
10
94.08
20
28.4115048579332
30
0
0
VERTEX
8
0
10
94.528
20
28.4986073808142
30
0
0
VERTEX
8
0
10
94.976
20
28.5857099036951
30
0
0
VERTEX
8
0
10
95.424
20
28.6728124265761
30
0
0
VERTEX
8
0
10
95.872
20
28.759914949457
30
0
0
VERTEX
8
0
10
96.3200000000001
20
28.847017472338
30
0
0
VERTEX
8
0
10
96.768
20
28.9341199952189
30
0
0
VERTEX
8
0
10
97.2160000000001
20
29.0212225180999
30
0
0
VERTEX
8
0
10
97.664
20
29.1083250409808
30
0
0
VERTEX
8
0
10
98.1120000000001
20
29.1954275638618
30
0
0
VERTEX
8
0
10
98.56
20
29.2792236725274
30
0
0
VERTEX
8
0
10
99.0080000000001
20
29.362619705073
30
0
0
VERTEX
8
0
10
99.456
20
29.4460157376186
30
0
0
VERTEX
8
0
10
99.9040000000001
20
29.5294117701642
30
0
0
VERTEX
8
0
10
100.352
20
29.6128078027098
30
0
0
VERTEX
8
0
10
100.8
20
29.6962038352554
30
0
0
VERTEX
8
0
10
101.248
20
29.7851844014106
30
0
0
VERTEX
8
0
10
101.696
20
29.8741401694592
30
0
0
VERTEX
8
0
10
102.144
20
29.9630959375079
30
0
0
VERTEX
8
0
10
102.592
20
30.0520517055565
30
0
0
VERTEX
8
0
10
103.04
20
30.1410074736051
30
0
0
VERTEX
8
0
10
103.488
20
30.2299632416538
30
0
0
VERTEX
8
0
10
103.936
20
30.312709563806
30
0
0
VERTEX
8
0
10
104.384
20
30.3961055963516
30
0
0
VERTEX
8
0
10
104.832
20
30.4795016288972
30
0
0
VERTEX
8
0
10
105.28
20
30.5628976614428
30
0
0
VERTEX
8
0
10
105.728
20
30.6462936939884
30
0
0
VERTEX
8
0
10
106.176
20
30.729689726534
30
0
0
VERTEX
8
0
10
106.624
20
30.8495356693891
30
0
0
VERTEX
8
0
10
107.072
20
30.9625836246176
30
0
0
VERTEX
8
0
10
107.52
20
31.0756315798461
30
0
0
VERTEX
8
0
10
107.968
20
31.1886795350746
30
0
0
VERTEX
8
0
10
108.416
20
31.301727490303
30
0
0
VERTEX
8
0
10
108.864
20
31.4147754455315
30
0
0
VERTEX
8
0
10
109.312
20
31.5626333296187
30
0
0
VERTEX
8
0
10
109.76
20
31.7016267171947
30
0
0
VERTEX
8
0
10
110.208
20
31.8406201047707
30
0
0
VERTEX
8
0
10
110.656
20
31.9796134923467
30
0
0
VERTEX
8
0
10
111.104
20
32.1186068799227
30
0
0
VERTEX
8
0
10
111.552
20
32.2576002674986
30
0
0
VERTEX
8
0
10
112
20
32.3965936550746
30
0
0
VERTEX
8
0
10
112.448
20
32.5355870426506
30
0
0
VERTEX
8
0
10
112.896
20
32.6745804302266
30
0
0
VERTEX
8
0
10
113.344
20
32.8135738178026
30
0
0
VERTEX
8
0
10
113.792
20
32.9525672053786
30
0
0
VERTEX
8
0
10
114.24
20
33.0915605929546
30
0
0
VERTEX
8
0
10
114.688
20
33.2305539805306
30
0
0
VERTEX
8
0
10
115.136
20
33.3695473681065
30
0
0
VERTEX
8
0
10
115.584
20
33.5085407556825
30
0
0
VERTEX
8
0
10
116.032
20
33.6475341432585
30
0
0
VERTEX
8
0
10
116.48
20
33.7865275308345
30
0
0
VERTEX
8
0
10
116.928
20
33.9255209184105
30
0
0
VERTEX
8
0
10
117.376
20
34.0645143059864
30
0
0
VERTEX
8
0
10
117.824
20
34.2035076935624
30
0
0
VERTEX
8
0
10
118.272
20
34.3425010811384
30
0
0
VERTEX
8
0
10
118.72
20
34.4814944687144
30
0
0
VERTEX
8
0
10
119.168
20
34.6204878562904
30
0
0
VERTEX
8
0
10
119.616
20
34.7360189285946
30
0
0
VERTEX
8
0
10
120.064
20
34.8453603934877
30
0
0
VERTEX
8
0
10
120.512
20
34.9547018583808
30
0
0
VERTEX
8
0
10
120.96
20
35.0640433232739
30
0
0
VERTEX
8
0
10
121.408
20
35.173384788167
30
0
0
VERTEX
8
0
10
121.856
20
35.2827262530601
30
0
0
VERTEX
8
0
10
122.304
20
35.355224344352
30
0
0
VERTEX
8
0
10
122.752
20
35.4237944155562
30
0
0
VERTEX
8
0
10
123.2
20
35.4923644867603
30
0
0
VERTEX
8
0
10
123.648
20
35.5609345579645
30
0
0
VERTEX
8
0
10
124.096
20
35.6295046291686
30
0
0
VERTEX
8
0
10
124.544
20
35.6980747003728
30
0
0
VERTEX
8
0
10
124.992
20
35.7647617686813
30
0
0
VERTEX
8
0
10
125.44
20
35.8314785947178
30
0
0
VERTEX
8
0
10
125.888
20
35.8981954207543
30
0
0
VERTEX
8
0
10
126.336
20
35.9649122467907
30
0
0
VERTEX
8
0
10
126.784
20
36.0316290728272
30
0
0
VERTEX
8
0
10
127.232
20
36.0983458988637
30
0
0
VERTEX
8
0
10
127.68
20
36.1692453388825
30
0
0
VERTEX
8
0
10
128.128
20
36.2396686552544
30
0
0
VERTEX
8
0
10
128.576
20
36.3100919716262
30
0
0
VERTEX
8
0
10
129.024
20
36.380515287998
30
0
0
VERTEX
8
0
10
129.472
20
36.4509386043699
30
0
0
VERTEX
8
0
10
129.92
20
36.5213619207417
30
0
0
VERTEX
8
0
10
130.368
20
36.5848864038533
30
0
0
VERTEX
8
0
10
130.816
20
36.6497499847221
30
0
0
VERTEX
8
0
10
131.264
20
36.7146135655909
30
0
0
VERTEX
8
0
10
131.712
20
36.7794771464597
30
0
0
VERTEX
8
0
10
132.16
20
36.8443407273285
30
0
0
VERTEX
8
0
10
132.608
20
36.9092043081973
30
0
0
VERTEX
8
0
10
133.056
20
36.9765758042484
30
0
0
VERTEX
8
0
10
133.504
20
37.0432926302848
30
0
0
VERTEX
8
0
10
133.952
20
37.1100094563213
30
0
0
VERTEX
8
0
10
134.4
20
37.1767262823578
30
0
0
VERTEX
8
0
10
134.848
20
37.2434431083942
30
0
0
VERTEX
8
0
10
135.296
20
37.3101599344307
30
0
0
VERTEX
8
0
10
135.744
20
37.3768767604672
30
0
0
VERTEX
8
0
10
136.192
20
37.4435935865037
30
0
0
VERTEX
8
0
10
136.64
20
37.5103104125401
30
0
0
VERTEX
8
0
10
137.088
20
37.5770272385766
30
0
0
VERTEX
8
0
10
137.536
20
37.6437440646131
30
0
0
SEQEND
8
0
0
POLYLINE
8
0
62
1
70
0
10
0
20
0
30
0
0
VERTEX
8
0
10
18.816
20
3.07863534001487
30
0
0
VERTEX
8
0
10
19.264
20
3.13423269504526
30
0
0
VERTEX
8
0
10
19.712
20
3.18983005007566
30
0
0
VERTEX
8
0
10
20.16
20
3.24542740510605
30
0
0
VERTEX
8
0
10
20.608
20
3.30102476013645
30
0
0
VERTEX
8
0
10
21.056
20
3.35662211516685
30
0
0
VERTEX
8
0
10
21.504
20
3.41221947019724
30
0
0
VERTEX
8
0
10
21.952
20
3.47367744442427
30
0
0
VERTEX
8
0
10
22.4
20
3.53854102529307
30
0
0
VERTEX
8
0
10
22.848
20
3.60340460616186
30
0
0
VERTEX
8
0
10
23.296
20
3.66826818703066
30
0
0
VERTEX
8
0
10
23.744
20
3.73313176789946
30
0
0
VERTEX
8
0
10
24.192
20
3.80575779846611
30
0
0
VERTEX
8
0
10
24.64
20
3.89280849539371
30
0
0
VERTEX
8
0
10
25.088
20
3.99637827769639
30
0
0
VERTEX
8
0
10
25.536
20
4.11710019692622
30
0
0
VERTEX
8
0
10
25.984
20
4.25351408379808
30
0
0
VERTEX
8
0
10
26.432
20
4.4041620573112
30
0
0
VERTEX
8
0
10
26.88
20
4.56763594537731
30
0
0
VERTEX
8
0
10
27.328
20
4.74548132264569
30
0
0
VERTEX
8
0
10
27.776
20
4.93266527198361
30
0
0
VERTEX
8
0
10
28.224
20
5.12763580995464
30
0
0
VERTEX
8
0
10
28.672
20
5.32953843459895
30
0
0
VERTEX
8
0
10
29.12
20
5.53761496173647
30
0
0
VERTEX
8
0
10
29.568
20
5.75119532056337
30
0
0
VERTEX
8
0
10
30.016
20
5.99034928057832
30
0
0
VERTEX
8
0
10
30.464
20
6.23760840323526
30
0
0
VERTEX
8
0
10
30.912
20
6.49151997185407
30
0
0
VERTEX
8
0
10
31.36
20
6.75133345065497
30
0
0
VERTEX
8
0
10
31.808
20
7.01639323605572
30
0
0
VERTEX
8
0
10
32.256
20
7.28612678918555
30
0
0
VERTEX
8
0
10
32.704
20
7.52495585757634
30
0
0
VERTEX
8
0
10
33.152
20
7.76835309595742
30
0
0
VERTEX
8
0
10
33.6
20
8.01355529625108
30
0
0
VERTEX
8
0
10
34.048
20
8.26040172426739
30
0
0
VERTEX
8
0
10
34.496
20
8.50874927965852
30
0
0
VERTEX
8
0
10
34.944
20
8.75847026937368
30
0
0
VERTEX
8
0
10
35.392
20
8.99231065676686
30
0
0
VERTEX
8
0
10
35.84
20
9.23035843349247
30
0
0
VERTEX
8
0
10
36.288
20
9.46969412555203
30
0
0
VERTEX
8
0
10
36.736
20
9.710222500546
30
0
0
VERTEX
8
0
10
37.184
20
9.95185708029067
30
0
0
VERTEX
8
0
10
37.632
20
10.1945192059645
30
0
0
VERTEX
8
0
10
38.08
20
10.4104691129102
30
0
0
VERTEX
8
0
10
38.528
20
10.6337120357516
30
0
0
VERTEX
8
0
10
38.976
20
10.8577148683229
30
0
0
VERTEX
8
0
10
39.424
20
11.0824315318613
30
0
0
VERTEX
8
0
10
39.872
20
11.3078194692463
30
0
0
VERTEX
8
0
10
40.32
20
11.5338393275535
30
0
0
VERTEX
8
0
10
40.768
20
11.7672964077319
30
0
0
VERTEX
8
0
10
41.216
20
11.9993399550381
30
0
0
VERTEX
8
0
10
41.664
20
12.2319486264551
30
0
0
VERTEX
8
0
10
42.112
20
12.4650907850048
30
0
0
VERTEX
8
0
10
42.56
20
12.6987370470886
30
0
0
VERTEX
8
0
10
43.008
20
12.9315832098317
30
0
0
VERTEX
8
0
10
43.456
20
13.1637266566905
30
0
0
VERTEX
8
0
10
43.904
20
13.3962613759264
30
0
0
VERTEX
8
0
10
44.352
20
13.6291673404145
30
0
0
VERTEX
8
0
10
44.8
20
13.8624258380242
30
0
0
VERTEX
8
0
10
45.248
20
14.0960193677943
30
0
0
VERTEX
8
0
10
45.696
20
14.3288752135885
30
0
0
VERTEX
8
0
10
46.144
20
14.5614759731759
30
0
0
VERTEX
8
0
10
46.592
20
14.7943953028751
30
0
0
VERTEX
8
0
10
47.04
20
15.02761838974
30
0
0
VERTEX
8
0
10
47.488
20
15.261131307578
30
0
0
VERTEX
8
0
10
47.936
20
15.494920952886
30
0
0
VERTEX
8
0
10
48.384
20
15.7301488686897
30
0
0
VERTEX
8
0
10
48.832
20
15.9659847036657
30
0
0
VERTEX
8
0
10
49.28
20
16.2020373985819
30
0
0
VERTEX
8
0
10
49.728
20
16.4382976111646
30
0
0
VERTEX
8
0
10
50.176
20
16.6747565206274
30
0
0
VERTEX
8
0
10
50.624
20
16.911405792305
30
0
0
VERTEX
8
0
10
51.072
20
17.1469506596567
30
0
0
VERTEX
8
0
10
51.52
20
17.3824969657467
30
0
0
VERTEX
8
0
10
51.968
20
17.6182325116129
30
0
0
VERTEX
8
0
10
52.416
20
17.8541498014293
30
0
0
VERTEX
8
0
10
52.864
20
18.090241724755
30
0
0
VERTEX
8
0
10
53.312
20
18.3265015324207
30
0
0
VERTEX
8
0
10
53.76
20
18.5097344525103
30
0
0
VERTEX
8
0
10
54.208
20
18.6920366960387
30
0
0
VERTEX
8
0
10
54.656
20
18.8744205519563
30
0
0
VERTEX
8
0
10
55.104
20
19.0568836770498
30
0
0
VERTEX
8
0
10
55.552
20
19.2394238159969
30
0
0
VERTEX
8
0
10
56
20
19.4220387973285
30
0
0
VERTEX
8
0
10
56.448
20
19.5881671117492
30
0
0
VERTEX
8
0
10
56.896
20
19.7557764927106
30
0
0
VERTEX
8
0
10
57.344
20
19.9234474882346
30
0
0
VERTEX
8
0
10
57.792
20
20.0911785557077
30
0
0
VERTEX
8
0
10
58.24
20
20.2589682030601
30
0
0
VERTEX
8
0
10
58.688
20
20.4268149867337
30
0
0
VERTEX
8
0
10
59.136
20
20.5971479692936
30
0
0
VERTEX
8
0
10
59.584
20
20.7671030593082
30
0
0
VERTEX
8
0
10
60.032
20
20.9370961856217
30
0
0
VERTEX
8
0
10
60.48
20
21.1071264292207
30
0
0
VERTEX
8
0
10
60.928
20
21.2771929002707
30
0
0
VERTEX
8
0
10
61.376
20
21.4472947369741
30
0
0
VERTEX
8
0
10
61.824
20
21.6142790410177
30
0
0
VERTEX
8
0
10
62.272
20
21.7820615758992
30
0
0
VERTEX
8
0
10
62.72
20
21.9498797099881
30
0
0
VERTEX
8
0
10
63.168
20
22.1177326329582
30
0
0
VERTEX
8
0
10
63.616
20
22.2856195587309
30
0
0
VERTEX
8
0
10
64.064
20
22.4535397245813
30
0
0
VERTEX
8
0
10
64.512
20
22.6212094207923
30
0
0
VERTEX
8
0
10
64.96
20
22.7890146687469
30
0
0
VERTEX
8
0
10
65.408
20
22.9568658901791
30
0
0
VERTEX
8
0
10
65.856
20
23.1247620839927
30
0
0
VERTEX
8
0
10
66.304
20
23.2927022776909
30
0
0
VERTEX
8
0
10
66.752
20
23.4610292313489
30
0
0
VERTEX
8
0
10
67.2
20
23.6296838032057
30
0
0
VERTEX
8
0
10
67.648
20
23.7983751890574
30
0
0
VERTEX
8
0
10
68.096
20
23.9671026115629
30
0
0
VERTEX
8
0
10
68.544
20
24.1358653149541
30
0
0
VERTEX
8
0
10
68.992
20
24.3046625642985
30
0
0
VERTEX
8
0
10
69.44
20
24.4667740720184
30
0
0
VERTEX
8
0
10
69.888
20
24.6253682282388
30
0
0
VERTEX
8
0
10
70.336
20
24.7839692676295
30
0
0
VERTEX
8
0
10
70.784
20
24.9425770588876
30
0
0
VERTEX
8
0
10
71.232
20
25.1011914740232
30
0
0
VERTEX
8
0
10
71.68
20
25.2598123882561
30
0
0
VERTEX
8
0
10
72.128
20
25.3810051164169
30
0
0
VERTEX
8
0
10
72.576
20
25.4909034728408
30
0
0
VERTEX
8
0
10
73.024
20
25.6008120857063
30
0
0
VERTEX
8
0
10
73.472
20
25.71073082348
30
0
0
VERTEX
8
0
10
73.92
20
25.8206595568565
30
0
0
VERTEX
8
0
10
74.368
20
25.9305981587115
30
0
0
VERTEX
8
0
10
74.816
20
26.0344000635987
30
0
0
VERTEX
8
0
10
75.264
20
26.1373801827097
30
0
0
VERTEX
8
0
10
75.712
20
26.240373031589
30
0
0
VERTEX
8
0
10
76.16
20
26.3433784609306
30
0
0
VERTEX
8
0
10
76.608
20
26.4463963237365
30
0
0
VERTEX
8
0
10
77.056
20
26.5494264752725
30
0
0
VERTEX
8
0
10
77.504
20
26.6560779970966
30
0
0
VERTEX
8
0
10
77.952
20
26.7627743726604
30
0
0
VERTEX
8
0
10
78.4
20
26.869489459008
30
0
0
VERTEX
8
0
10
78.848
20
26.9762230340858
30
0
0
VERTEX
8
0
10
79.296
20
27.0829748793025
30
0
0
VERTEX
8
0
10
79.744
20
27.1897447794623
30
0
0
VERTEX
8
0
10
80.192
20
27.2951189082748
30
0
0
VERTEX
8
0
10
80.64
20
27.4006399012148
30
0
0
VERTEX
8
0
10
81.088
20
27.5061732566013
30
0
0
VERTEX
8
0
10
81.536
20
27.6117188326849
30
0
0
VERTEX
8
0
10
81.984
20
27.7172764898586
30
0
0
VERTEX
8
0
10
82.432
20
27.8228460906183
30
0
0
VERTEX
8
0
10
82.88
20
27.9284274995237
30
0
0
VERTEX
8
0
10
83.328
20
28.0340205831596
30
0
0
VERTEX
8
0
10
83.776
20
28.1396252100988
30
0
0
VERTEX
8
0
10
84.224
20
28.2452412508654
30
0
0
VERTEX
8
0
10
84.672
20
28.3508685778989
30
0
0
VERTEX
8
0
10
85.12
20
28.4565070655193
30
0
0
VERTEX
8
0
10
85.568
20
28.5633247936205
30
0
0
VERTEX
8
0
10
86.016
20
28.6698767617968
30
0
0
VERTEX
8
0
10
86.464
20
28.7764507321628
30
0
0
VERTEX
8
0
10
86.912
20
28.8830464611642
30
0
0
VERTEX
8
0
10
87.36
20
28.98966370878
30
0
0
VERTEX
8
0
10
87.808
20
29.096302238459
30
0
0
VERTEX
8
0
10
88.256
20
29.1991413500709
30
0
0
VERTEX
8
0
10
88.704
20
29.3031609351455
30
0
0
VERTEX
8
0
10
89.152
20
29.4071912193788
30
0
0
VERTEX
8
0
10
89.6
20
29.5112320896236
30
0
0
VERTEX
8
0
10
90.048
20
29.6152834343115
30
0
0
VERTEX
8
0
10
90.496
20
29.7201699608607
30
0
0
VERTEX
8
0
10
90.944
20
29.8257556928587
30
0
0
VERTEX
8
0
10
91.392
20
29.9313862939747
30
0
0
VERTEX
8
0
10
91.84
20
30.0370612908382
30
0
0
VERTEX
8
0
10
92.288
20
30.1427802165197
30
0
0
VERTEX
8
0
10
92.736
20
30.2485426104241
30
0
0
VERTEX
8
0
10
93.184
20
30.3536833372741
30
0
0
VERTEX
8
0
10
93.632
20
30.4585218402055
30
0
0
VERTEX
8
0
10
94.08
20
30.5633866171317
30
0
0
VERTEX
8
0
10
94.528
20
30.668277398535
30
0
0
VERTEX
8
0
10
94.976
20
30.7731939185055
30
0
0
VERTEX
8
0
10
95.424
20
30.8781359146829
30
0
0
VERTEX
8
0
10
95.872
20
30.9836406163952
30
0
0
VERTEX
8
0
10
96.3200000000001
20
31.0893250013817
30
0
0
VERTEX
8
0
10
96.768
20
31.1950372368087
30
0
0
VERTEX
8
0
10
97.2160000000001
20
31.3007770404979
30
0
0
VERTEX
8
0
10
97.664
20
31.4065441339982
30
0
0
VERTEX
8
0
10
98.1120000000001
20
31.5123382425254
30
0
0
VERTEX
8
0
10
98.56
20
31.6163444118711
30
0
0
VERTEX
8
0
10
99.0080000000001
20
31.7201665134013
30
0
0
VERTEX
8
0
10
99.456
20
31.8240242896655
30
0
0
VERTEX
8
0
10
99.9040000000001
20
31.9279173925266
30
0
0
VERTEX
8
0
10
100.352
20
32.0318454782463
30
0
0
VERTEX
8
0
10
100.8
20
32.1358082074182
30
0
0
VERTEX
8
0
10
101.248
20
32.2428247950303
30
0
0
VERTEX
8
0
10
101.696
20
32.3498486785344
30
0
0
VERTEX
8
0
10
102.144
20
32.4568930908476
30
0
0
VERTEX
8
0
10
102.592
20
32.5639578295227
30
0
0
VERTEX
8
0
10
103.04
20
32.671042694728
30
0
0
VERTEX
8
0
10
103.488
20
32.7781474892059
30
0
0
VERTEX
8
0
10
103.936
20
32.8803490444196
30
0
0
VERTEX
8
0
10
104.384
20
32.983092008276
30
0
0
VERTEX
8
0
10
104.832
20
33.0858606603512
30
0
0
VERTEX
8
0
10
105.28
20
33.1886547620145
30
0
0
VERTEX
8
0
10
105.728
20
33.2914740775239
30
0
0
VERTEX
8
0
10
106.176
20
33.3943183739831
30
0
0
VERTEX
8
0
10
106.624
20
33.5298271103406
30
0
0
VERTEX
8
0
10
107.072
20
33.6592535235129
30
0
0
VERTEX
8
0
10
107.52
20
33.7886869191377
30
0
0
VERTEX
8
0
10
107.968
20
33.9181272172788
30
0
0
VERTEX
8
0
10
108.416
20
34.0475743392113
30
0
0
VERTEX
8
0
10
108.864
20
34.1770282073989
30
0
0
VERTEX
8
0
10
109.312
20
34.333587122729
30
0
0
VERTEX
8
0
10
109.76
20
34.4832446255195
30
0
0
VERTEX
8
0
10
110.208
20
34.6329024996197
30
0
0
VERTEX
8
0
10
110.656
20
34.7825607402369
30
0
0
VERTEX
8
0
10
111.104
20
34.9322193426602
30
0
0
VERTEX
8
0
10
111.552
20
35.0818783022592
30
0
0
VERTEX
8
0
10
112
20
35.2336560763672
30
0
0
VERTEX
8
0
10
112.448
20
35.3847722391065
30
0
0
VERTEX
8
0
10
112.896
20
35.535888402218
30
0
0
VERTEX
8
0
10
113.344
20
35.6870045656968
30
0
0
VERTEX
8
0
10
113.792
20
35.8381207295384
30
0
0
VERTEX
8
0
10
114.24
20
35.9888242090702
30
0
0
VERTEX
8
0
10
114.688
20
36.1392119100732
30
0
0
VERTEX
8
0
10
115.136
20
36.2895997012574
30
0
0
VERTEX
8
0
10
115.584
20
36.4399875815063
30
0
0
VERTEX
8
0
10
116.032
20
36.5903755497217
30
0
0
VERTEX
8
0
10
116.48
20
36.7407636048234
30
0
0
VERTEX
8
0
10
116.928
20
36.889669263737
30
0
0
VERTEX
8
0
10
117.376
20
37.0378747025722
30
0
0
VERTEX
8
0
10
117.824
20
37.1860814045555
30
0
0
VERTEX
8
0
10
118.272
20
37.3342893546439
30
0
0
VERTEX
8
0
10
118.72
20
37.4824985380322
30
0
0
VERTEX
8
0
10
119.168
20
37.6307089401482
30
0
0
VERTEX
8
0
10
119.616
20
37.7573345501897
30
0
0
VERTEX
8
0
10
120.064
20
37.8782662353975
30
0
0
VERTEX
8
0
10
120.512
20
37.9991985454948
30
0
0
VERTEX
8
0
10
120.96
20
38.1201314745343
30
0
0
VERTEX
8
0
10
121.408
20
38.241065016644
30
0
0
VERTEX
8
0
10
121.856
20
38.3619991660259
30
0
0
VERTEX
8
0
10
122.304
20
38.4411588135445
30
0
0
VERTEX
8
0
10
122.752
20
38.5158646814108
30
0
0
VERTEX
8
0
10
123.2
20
38.5905705525031
30
0
0
VERTEX
8
0
10
123.648
20
38.6652764268026
30
0
0
VERTEX
8
0
10
124.096
20
38.7399823042908
30
0
0
VERTEX
8
0
10
124.544
20
38.8146881849492
30
0
0
VERTEX
8
0
10
124.992
20
38.8876622746808
30
0
0
VERTEX
8
0
10
125.44
20
38.9606637624865
30
0
0
VERTEX
8
0
10
125.888
20
39.0336652798608
30
0
0
VERTEX
8
0
10
126.336
20
39.1066668266381
30
0
0
VERTEX
8
0
10
126.784
20
39.1796684026542
30
0
0
VERTEX
8
0
10
127.232
20
39.2526700077459
30
0
0
VERTEX
8
0
10
127.68
20
39.3278756092144
30
0
0
VERTEX
8
0
10
128.128
20
39.4028307113404
30
0
0
VERTEX
8
0
10
128.576
20
39.4777861767495
30
0
0
VERTEX
8
0
10
129.024
20
39.5527420033765
30
0
0
VERTEX
8
0
10
129.472
20
39.6276981891715
30
0
0
VERTEX
8
0
10
129.92
20
39.7026547321002
30
0
0
VERTEX
8
0
10
130.368
20
39.7775814402821
30
0
0
VERTEX
8
0
10
130.816
20
39.8525169746461
30
0
0
VERTEX
8
0
10
131.264
20
39.9274551781534
30
0
0
VERTEX
8
0
10
131.712
20
40.0023960358034
30
0
0
VERTEX
8
0
10
132.16
20
40.077339532707
30
0
0
VERTEX
8
0
10
132.608
20
40.152285654086
30
0
0
VERTEX
8
0
10
133.056
20
40.2246014189395
30
0
0
VERTEX
8
0
10
133.504
20
40.2976040658248
30
0
0
VERTEX
8
0
10
133.952
20
40.3706067371077
30
0
0
VERTEX
8
0
10
134.4
20
40.443609432656
30
0
0
VERTEX
8
0
10
134.848
20
40.5166121523385
30
0
0
VERTEX
8
0
10
135.296
20
40.589614896025
30
0
0
VERTEX
8
0
10
135.744
20
40.6594093910937
30
0
0
VERTEX
8
0
10
136.192
20
40.7302236994831
30
0
0
VERTEX
8
0
10
136.64
20
40.8010384221287
30
0
0
VERTEX
8
0
10
137.088
20
40.8718535568773
30
0
0
VERTEX
8
0
10
137.536
20
40.9426691015907
30
0
0
SEQEND
8
0
0
POLYLINE
8
0
62
2
70
0
10
0
20
0
30
0
0
VERTEX
8
0
10
18.816
20
3.07863534001487
30
0
0
VERTEX
8
0
10
19.264
20
3.13423269504526
30
0
0
VERTEX
8
0
10
19.712
20
3.18983005007566
30
0
0
VERTEX
8
0
10
20.16
20
3.24542740510605
30
0
0
VERTEX
8
0
10
20.608
20
3.30102476013645
30
0
0
VERTEX
8
0
10
21.056
20
3.35662211516685
30
0
0
VERTEX
8
0
10
21.504
20
3.41221947019724
30
0
0
VERTEX
8
0
10
21.952
20
3.47367744442427
30
0
0
VERTEX
8
0
10
22.4
20
3.53854102529307
30
0
0
VERTEX
8
0
10
22.848
20
3.60340460616186
30
0
0
VERTEX
8
0
10
23.296
20
3.66826818703066
30
0
0
VERTEX
8
0
10
23.744
20
3.73313176789946
30
0
0
VERTEX
8
0
10
24.192
20
3.80575779846611
30
0
0
VERTEX
8
0
10
24.64
20
3.89280849539371
30
0
0
VERTEX
8
0
10
25.088
20
3.99637827769639
30
0
0
VERTEX
8
0
10
25.536
20
4.11710019692622
30
0
0
VERTEX
8
0
10
25.984
20
4.25351408379808
30
0
0
VERTEX
8
0
10
26.432
20
4.4041620573112
30
0
0
VERTEX
8
0
10
26.88
20
4.56763594537731
30
0
0
VERTEX
8
0
10
27.328
20
4.74548132264569
30
0
0
VERTEX
8
0
10
27.776
20
4.93266527198361
30
0
0
VERTEX
8
0
10
28.224
20
5.12763580995464
30
0
0
VERTEX
8
0
10
28.672
20
5.32953843459895
30
0
0
VERTEX
8
0
10
29.12
20
5.53761496173647
30
0
0
VERTEX
8
0
10
29.568
20
5.75119532056337
30
0
0
VERTEX
8
0
10
30.016
20
5.99034928057832
30
0
0
VERTEX
8
0
10
30.464
20
6.23760840323526
30
0
0
VERTEX
8
0
10
30.912
20
6.49151997185407
30
0
0
VERTEX
8
0
10
31.36
20
6.75133345065497
30
0
0
VERTEX
8
0
10
31.808
20
7.01639323605571
30
0
0
VERTEX
8
0
10
32.256
20
7.28612678918555
30
0
0
VERTEX
8
0
10
32.704
20
7.52495585757634
30
0
0
VERTEX
8
0
10
33.152
20
7.76835309595742
30
0
0
VERTEX
8
0
10
33.6
20
8.01355529625108
30
0
0
VERTEX
8
0
10
34.048
20
8.26040172426739
30
0
0
VERTEX
8
0
10
34.496
20
8.50874927965852
30
0
0
VERTEX
8
0
10
34.944
20
8.75847026937368
30
0
0
VERTEX
8
0
10
35.392
20
8.99231065676686
30
0
0
VERTEX
8
0
10
35.84
20
9.23035843349247
30
0
0
VERTEX
8
0
10
36.288
20
9.46969412555202
30
0
0
VERTEX
8
0
10
36.736
20
9.710222500546
30
0
0
VERTEX
8
0
10
37.184
20
9.95185708029067
30
0
0
VERTEX
8
0
10
37.632
20
10.1945192059645
30
0
0
VERTEX
8
0
10
38.08
20
10.4104691129102
30
0
0
VERTEX
8
0
10
38.528
20
10.6337120357516
30
0
0
VERTEX
8
0
10
38.976
20
10.8577148683229
30
0
0
VERTEX
8
0
10
39.424
20
11.0824315318613
30
0
0
VERTEX
8
0
10
39.872
20
11.3078194692463
30
0
0
VERTEX
8
0
10
40.32
20
11.5338393275535
30
0
0
VERTEX
8
0
10
40.768
20
11.7672964077319
30
0
0
VERTEX
8
0
10
41.216
20
11.9993399550381
30
0
0
VERTEX
8
0
10
41.664
20
12.2319486264551
30
0
0
VERTEX
8
0
10
42.112
20
12.4650907850048
30
0
0
VERTEX
8
0
10
42.56
20
12.6987370470886
30
0
0
VERTEX
8
0
10
43.008
20
12.9315832098317
30
0
0
VERTEX
8
0
10
43.456
20
13.1637266566905
30
0
0
VERTEX
8
0
10
43.904
20
13.3962613759264
30
0
0
VERTEX
8
0
10
44.352
20
13.6291673404145
30
0
0
VERTEX
8
0
10
44.8
20
13.8624258380242
30
0
0
VERTEX
8
0
10
45.248
20
14.0960193677943
30
0
0
VERTEX
8
0
10
45.696
20
14.3288752135885
30
0
0
VERTEX
8
0
10
46.144
20
14.5614759731759
30
0
0
VERTEX
8
0
10
46.592
20
14.7943953028751
30
0
0
VERTEX
8
0
10
47.04
20
15.02761838974
30
0
0
VERTEX
8
0
10
47.488
20
15.261131307578
30
0
0
VERTEX
8
0
10
47.936
20
15.494920952886
30
0
0
VERTEX
8
0
10
48.384
20
15.7301488686897
30
0
0
VERTEX
8
0
10
48.832
20
15.9659847036657
30
0
0
VERTEX
8
0
10
49.28
20
16.2020373985819
30
0
0
VERTEX
8
0
10
49.728
20
16.4382976111646
30
0
0
VERTEX
8
0
10
50.176
20
16.6747565206274
30
0
0
VERTEX
8
0
10
50.624
20
16.911405792305
30
0
0
VERTEX
8
0
10
51.072
20
17.1469506596567
30
0
0
VERTEX
8
0
10
51.52
20
17.3824969657467
30
0
0
VERTEX
8
0
10
51.968
20
17.6182325116129
30
0
0
VERTEX
8
0
10
52.416
20
17.8541498014293
30
0
0
VERTEX
8
0
10
52.864
20
18.090241724755
30
0
0
VERTEX
8
0
10
53.312
20
18.3265015324207
30
0
0
VERTEX
8
0
10
53.76
20
18.5097344525103
30
0
0
VERTEX
8
0
10
54.208
20
18.6920366960387
30
0
0
VERTEX
8
0
10
54.656
20
18.8744205519563
30
0
0
VERTEX
8
0
10
55.104
20
19.0568836770498
30
0
0
VERTEX
8
0
10
55.552
20
19.2394238159969
30
0
0
VERTEX
8
0
10
56
20
19.4220387973285
30
0
0
VERTEX
8
0
10
56.448
20
19.5881671117492
30
0
0
VERTEX
8
0
10
56.896
20
19.7557764927106
30
0
0
VERTEX
8
0
10
57.344
20
19.9234474882346
30
0
0
VERTEX
8
0
10
57.792
20
20.0911785557077
30
0
0
VERTEX
8
0
10
58.24
20
20.2589682030601
30
0
0
VERTEX
8
0
10
58.688
20
20.4268149867337
30
0
0
VERTEX
8
0
10
59.136
20
20.5971479692936
30
0
0
VERTEX
8
0
10
59.584
20
20.7671030593082
30
0
0
VERTEX
8
0
10
60.032
20
20.9370961856217
30
0
0
VERTEX
8
0
10
60.48
20
21.1071264292207
30
0
0
VERTEX
8
0
10
60.928
20
21.2771929002707
30
0
0
VERTEX
8
0
10
61.376
20
21.4472947369741
30
0
0
VERTEX
8
0
10
61.824
20
21.6142790410177
30
0
0
VERTEX
8
0
10
62.272
20
21.7820615758992
30
0
0
VERTEX
8
0
10
62.72
20
21.9498797099881
30
0
0
VERTEX
8
0
10
63.168
20
22.1177326329582
30
0
0
VERTEX
8
0
10
63.616
20
22.2856195587309
30
0
0
VERTEX
8
0
10
64.064
20
22.4535397245813
30
0
0
VERTEX
8
0
10
64.512
20
22.6212094207923
30
0
0
VERTEX
8
0
10
64.96
20
22.7890146687469
30
0
0
VERTEX
8
0
10
65.408
20
22.9568658901791
30
0
0
VERTEX
8
0
10
65.856
20
23.1247620839927
30
0
0
VERTEX
8
0
10
66.304
20
23.2927022776909
30
0
0
VERTEX
8
0
10
66.752
20
23.4610292313489
30
0
0
VERTEX
8
0
10
67.2
20
23.6296838032057
30
0
0
VERTEX
8
0
10
67.648
20
23.7983751890574
30
0
0
VERTEX
8
0
10
68.096
20
23.9671026115629
30
0
0
VERTEX
8
0
10
68.544
20
24.1358653149541
30
0
0
VERTEX
8
0
10
68.992
20
24.3046625642985
30
0
0
VERTEX
8
0
10
69.44
20
24.4667740720184
30
0
0
VERTEX
8
0
10
69.888
20
24.6253682282388
30
0
0
VERTEX
8
0
10
70.336
20
24.7839692676295
30
0
0
VERTEX
8
0
10
70.784
20
24.9425770588876
30
0
0
VERTEX
8
0
10
71.232
20
25.1011914740232
30
0
0
VERTEX
8
0
10
71.68
20
25.2598123882561
30
0
0
VERTEX
8
0
10
72.128
20
25.3810051164169
30
0
0
VERTEX
8
0
10
72.576
20
25.4909034728408
30
0
0
VERTEX
8
0
10
73.024
20
25.6008120857063
30
0
0
VERTEX
8
0
10
73.472
20
25.71073082348
30
0
0
VERTEX
8
0
10
73.92
20
25.8206595568565
30
0
0
VERTEX
8
0
10
74.368
20
25.9305981587115
30
0
0
VERTEX
8
0
10
74.816
20
26.0344000635987
30
0
0
VERTEX
8
0
10
75.264
20
26.1373801827097
30
0
0
VERTEX
8
0
10
75.712
20
26.240373031589
30
0
0
VERTEX
8
0
10
76.16
20
26.3433784609306
30
0
0
VERTEX
8
0
10
76.608
20
26.4463963237365
30
0
0
VERTEX
8
0
10
77.056
20
26.5494264752725
30
0
0
VERTEX
8
0
10
77.504
20
26.6560779970966
30
0
0
VERTEX
8
0
10
77.952
20
26.7627743726604
30
0
0
VERTEX
8
0
10
78.4
20
26.869489459008
30
0
0
VERTEX
8
0
10
78.848
20
26.9762230340859
30
0
0
VERTEX
8
0
10
79.296
20
27.0829748793025
30
0
0
VERTEX
8
0
10
79.744
20
27.1897447794623
30
0
0
VERTEX
8
0
10
80.192
20
27.2951189082748
30
0
0
VERTEX
8
0
10
80.64
20
27.4006399012148
30
0
0
VERTEX
8
0
10
81.088
20
27.5061732566013
30
0
0
VERTEX
8
0
10
81.536
20
27.6117188326849
30
0
0
VERTEX
8
0
10
81.984
20
27.7172764898586
30
0
0
VERTEX
8
0
10
82.432
20
27.8228460906183
30
0
0
VERTEX
8
0
10
82.88
20
27.9284274995237
30
0
0
VERTEX
8
0
10
83.328
20
28.0340205831596
30
0
0
VERTEX
8
0
10
83.776
20
28.1396252100988
30
0
0
VERTEX
8
0
10
84.224
20
28.2452412508654
30
0
0
VERTEX
8
0
10
84.672
20
28.3508685778989
30
0
0
VERTEX
8
0
10
85.12
20
28.4565070655193
30
0
0
VERTEX
8
0
10
85.568
20
28.5633247936205
30
0
0
VERTEX
8
0
10
86.016
20
28.6698767617968
30
0
0
VERTEX
8
0
10
86.464
20
28.7764507321628
30
0
0
VERTEX
8
0
10
86.912
20
28.8830464611642
30
0
0
VERTEX
8
0
10
87.36
20
28.98966370878
30
0
0
VERTEX
8
0
10
87.808
20
29.096302238459
30
0
0
VERTEX
8
0
10
88.256
20
29.1991413500709
30
0
0
VERTEX
8
0
10
88.704
20
29.3031609351455
30
0
0
VERTEX
8
0
10
89.152
20
29.4071912193788
30
0
0
VERTEX
8
0
10
89.6
20
29.5112320896236
30
0
0
VERTEX
8
0
10
90.048
20
29.6152834343115
30
0
0
VERTEX
8
0
10
90.496
20
29.7201699608607
30
0
0
VERTEX
8
0
10
90.944
20
29.8257556928587
30
0
0
VERTEX
8
0
10
91.392
20
29.9313862939747
30
0
0
VERTEX
8
0
10
91.84
20
30.0370612908382
30
0
0
VERTEX
8
0
10
92.288
20
30.1427802165197
30
0
0
VERTEX
8
0
10
92.736
20
30.2485426104241
30
0
0
VERTEX
8
0
10
93.184
20
30.3536833372741
30
0
0
VERTEX
8
0
10
93.632
20
30.4585218402055
30
0
0
VERTEX
8
0
10
94.08
20
30.5633866171317
30
0
0
VERTEX
8
0
10
94.528
20
30.668277398535
30
0
0
VERTEX
8
0
10
94.976
20
30.7731939185056
30
0
0
VERTEX
8
0
10
95.424
20
30.8781359146829
30
0
0
VERTEX
8
0
10
95.872
20
30.9836406163952
30
0
0
VERTEX
8
0
10
96.3200000000001
20
31.0893250013817
30
0
0
VERTEX
8
0
10
96.768
20
31.1950372368087
30
0
0
VERTEX
8
0
10
97.2160000000001
20
31.3007770404979
30
0
0
VERTEX
8
0
10
97.664
20
31.4065441339982
30
0
0
VERTEX
8
0
10
98.1120000000001
20
31.5123382425254
30
0
0
VERTEX
8
0
10
98.56
20
31.6163444118711
30
0
0
VERTEX
8
0
10
99.0080000000001
20
31.7201665134013
30
0
0
VERTEX
8
0
10
99.456
20
31.8240242896655
30
0
0
VERTEX
8
0
10
99.9040000000001
20
31.9279173925266
30
0
0
VERTEX
8
0
10
100.352
20
32.0318454782463
30
0
0
VERTEX
8
0
10
100.8
20
32.1358082074182
30
0
0
VERTEX
8
0
10
101.248
20
32.2428247950303
30
0
0
VERTEX
8
0
10
101.696
20
32.3498486785344
30
0
0
VERTEX
8
0
10
102.144
20
32.4568930908476
30
0
0
VERTEX
8
0
10
102.592
20
32.5639578295227
30
0
0
VERTEX
8
0
10
103.04
20
32.671042694728
30
0
0
VERTEX
8
0
10
103.488
20
32.7781474892059
30
0
0
VERTEX
8
0
10
103.936
20
32.8803490444196
30
0
0
VERTEX
8
0
10
104.384
20
32.983092008276
30
0
0
VERTEX
8
0
10
104.832
20
33.0858606603512
30
0
0
VERTEX
8
0
10
105.28
20
33.1886547620145
30
0
0
VERTEX
8
0
10
105.728
20
33.2914740775239
30
0
0
VERTEX
8
0
10
106.176
20
33.3943183739831
30
0
0
VERTEX
8
0
10
106.624
20
33.5298271103406
30
0
0
VERTEX
8
0
10
107.072
20
33.6592535235129
30
0
0
VERTEX
8
0
10
107.52
20
33.7886869191377
30
0
0
VERTEX
8
0
10
107.968
20
33.9181272172788
30
0
0
VERTEX
8
0
10
108.416
20
34.0475743392113
30
0
0
VERTEX
8
0
10
108.864
20
34.1770282073989
30
0
0
VERTEX
8
0
10
109.312
20
34.333587122729
30
0
0
VERTEX
8
0
10
109.76
20
34.4832446255195
30
0
0
VERTEX
8
0
10
110.208
20
34.6329024996197
30
0
0
VERTEX
8
0
10
110.656
20
34.7825607402369
30
0
0
VERTEX
8
0
10
111.104
20
34.9322193426602
30
0
0
VERTEX
8
0
10
111.552
20
35.0818783022592
30
0
0
VERTEX
8
0
10
112
20
35.2336560763672
30
0
0
VERTEX
8
0
10
112.448
20
35.3847722391065
30
0
0
VERTEX
8
0
10
112.896
20
35.535888402218
30
0
0
VERTEX
8
0
10
113.344
20
35.6870045656968
30
0
0
VERTEX
8
0
10
113.792
20
35.8381207295384
30
0
0
VERTEX
8
0
10
114.24
20
35.9888242090702
30
0
0
VERTEX
8
0
10
114.688
20
36.1392119100732
30
0
0
VERTEX
8
0
10
115.136
20
36.2895997012574
30
0
0
VERTEX
8
0
10
115.584
20
36.4399875815063
30
0
0
VERTEX
8
0
10
116.032
20
36.5903755497217
30
0
0
VERTEX
8
0
10
116.48
20
36.7407636048234
30
0
0
VERTEX
8
0
10
116.928
20
36.889669263737
30
0
0
VERTEX
8
0
10
117.376
20
37.0378747025722
30
0
0
VERTEX
8
0
10
117.824
20
37.1860814045555
30
0
0
VERTEX
8
0
10
118.272
20
37.3342893546439
30
0
0
VERTEX
8
0
10
118.72
20
37.4824985380322
30
0
0
VERTEX
8
0
10
119.168
20
37.6307089401482
30
0
0
VERTEX
8
0
10
119.616
20
37.7573345501897
30
0
0
VERTEX
8
0
10
120.064
20
37.8782662353975
30
0
0
VERTEX
8
0
10
120.512
20
37.9991985454948
30
0
0
VERTEX
8
0
10
120.96
20
38.1201314745343
30
0
0
VERTEX
8
0
10
121.408
20
38.241065016644
30
0
0
VERTEX
8
0
10
121.856
20
38.3619991660259
30
0
0
VERTEX
8
0
10
122.304
20
38.4411588135445
30
0
0
VERTEX
8
0
10
122.752
20
38.5158646814108
30
0
0
VERTEX
8
0
10
123.2
20
38.5905705525031
30
0
0
VERTEX
8
0
10
123.648
20
38.6652764268026
30
0
0
VERTEX
8
0
10
124.096
20
38.7399823042908
30
0
0
VERTEX
8
0
10
124.544
20
38.8146881849492
30
0
0
VERTEX
8
0
10
124.992
20
38.8876622746808
30
0
0
VERTEX
8
0
10
125.44
20
38.9606637624865
30
0
0
VERTEX
8
0
10
125.888
20
39.0336652798608
30
0
0
VERTEX
8
0
10
126.336
20
39.1066668266381
30
0
0
VERTEX
8
0
10
126.784
20
39.1796684026542
30
0
0
VERTEX
8
0
10
127.232
20
39.2526700077459
30
0
0
VERTEX
8
0
10
127.68
20
39.3278756092144
30
0
0
VERTEX
8
0
10
128.128
20
39.4028307113404
30
0
0
VERTEX
8
0
10
128.576
20
39.4777861767495
30
0
0
VERTEX
8
0
10
129.024
20
39.5527420033765
30
0
0
VERTEX
8
0
10
129.472
20
39.6276981891715
30
0
0
VERTEX
8
0
10
129.92
20
39.7026547321002
30
0
0
VERTEX
8
0
10
130.368
20
39.7775814402821
30
0
0
VERTEX
8
0
10
130.816
20
39.8525169746461
30
0
0
VERTEX
8
0
10
131.264
20
39.9274551781534
30
0
0
VERTEX
8
0
10
131.712
20
40.0023960358034
30
0
0
VERTEX
8
0
10
132.16
20
40.077339532707
30
0
0
VERTEX
8
0
10
132.608
20
40.152285654086
30
0
0
VERTEX
8
0
10
133.056
20
40.2246014189395
30
0
0
VERTEX
8
0
10
133.504
20
40.2976040658248
30
0
0
VERTEX
8
0
10
133.952
20
40.3706067371077
30
0
0
VERTEX
8
0
10
134.4
20
40.4436094326559
30
0
0
VERTEX
8
0
10
134.848
20
40.5166121523385
30
0
0
VERTEX
8
0
10
135.296
20
40.589614896025
30
0
0
VERTEX
8
0
10
135.744
20
40.6594093910937
30
0
0
VERTEX
8
0
10
136.192
20
40.7302236994831
30
0
0
VERTEX
8
0
10
136.64
20
40.8010384221287
30
0
0
VERTEX
8
0
10
137.088
20
40.8718535568773
30
0
0
VERTEX
8
0
10
137.536
20
40.9426691015907
30
0
0
SEQEND
8
0
0
POLYLINE
8
0
62
3
70
0
10
0
20
0
30
0
0
VERTEX
8
0
10
18.816
20
13.6658861799974
30
0
0
VERTEX
8
0
10
19.264
20
13.980720876847
30
0
0
VERTEX
8
0
10
19.712
20
14.2952779554567
30
0
0
VERTEX
8
0
10
20.16
20
14.6095596566079
30
0
0
VERTEX
8
0
10
20.608
20
14.9235677612409
30
0
0
VERTEX
8
0
10
21.056
20
15.2373036849523
30
0
0
VERTEX
8
0
10
21.504
20
15.5507685550904
30
0
0
VERTEX
8
0
10
21.952
20
15.8639632725738
30
0
0
VERTEX
8
0
10
22.4
20
16.1768885619639
30
0
0
VERTEX
8
0
10
22.848
20
16.4895450111843
30
0
0
VERTEX
8
0
10
23.296
20
16.8019331031468
30
0
0
VERTEX
8
0
10
23.744
20
17.114053240752
30
0
0
VERTEX
8
0
10
24.192
20
17.4259057661692
30
0
0
VERTEX
8
0
10
24.64
20
17.7374909759908
30
0
0
VERTEX
8
0
10
25.088
20
18.0488091328273
30
0
0
VERTEX
8
0
10
25.536
20
18.3598604739513
30
0
0
VERTEX
8
0
10
25.984
20
18.6706452177495
30
0
0
VERTEX
8
0
10
26.432
20
18.9811635686176
30
0
0
VERTEX
8
0
10
26.88
20
19.2914157201142
30
0
0
VERTEX
8
0
10
27.328
20
19.6014018574103
30
0
0
VERTEX
8
0
10
27.776
20
19.9111221586533
30
0
0
VERTEX
8
0
10
28.224
20
20.2205767960347
30
0
0
VERTEX
8
0
10
28.672
20
20.5297659360782
30
0
0
VERTEX
8
0
10
29.12
20
20.8386897397925
30
0
0
VERTEX
8
0
10
29.568
20
21.1473483627279
30
0
0
VERTEX
8
0
10
30.016
20
21.4557419545183
30
0
0
VERTEX
8
0
10
30.464
20
21.7638706588317
30
0
0
VERTEX
8
0
10
30.912
20
22.0717346128047
30
0
0
VERTEX
8
0
10
31.36
20
22.3793339468603
30
0
0
VERTEX
8
0
10
31.808
20
22.6866687842704
30
0
0
VERTEX
8
0
10
32.256
20
22.9937392409873
30
0
0
VERTEX
8
0
10
32.704
20
23.3005454253028
30
0
0
VERTEX
8
0
10
33.152
20
23.6070874377403
30
0
0
VERTEX
8
0
10
33.6
20
23.9133653708881
30
0
0
VERTEX
8
0
10
34.048
20
24.2193793093839
30
0
0
VERTEX
8
0
10
34.496
20
24.5251293299096
30
0
0
VERTEX
8
0
10
34.944
20
24.8306155012258
30
0
0
VERTEX
8
0
10
35.392
20
25.1358378842607
30
0
0
VERTEX
8
0
10
35.84
20
25.4407965323477
30
0
0
VERTEX
8
0
10
36.288
20
25.7454914914055
30
0
0
VERTEX
8
0
10
36.736
20
26.0499228001418
30
0
0
VERTEX
8
0
10
37.184
20
26.3540904904403
30
0
0
VERTEX
8
0
10
37.632
20
26.6579945876033
30
0
0
VERTEX
8
0
10
38.08
20
26.9616351107553
30
0
0
VERTEX
8
0
10
38.528
20
27.2650120731685
30
0
0
VERTEX
8
0
10
38.976
20
27.5681254828262
30
0
0
VERTEX
8
0
10
39.424
20
27.8709753426145
30
0
0
VERTEX
8
0
10
39.872
20
28.173561651029
30
0
0
VERTEX
8
0
10
40.32
20
28.4758844024549
30
0
0
VERTEX
8
0
10
40.768
20
28.7779435877197
30
0
0
VERTEX
8
0
10
41.216
20
29.0797391945886
30
0
0
VERTEX
8
0
10
41.664
20
29.3812712082748
30
0
0
VERTEX
8
0
10
42.112
20
29.6825396119651
30
0
0
VERTEX
8
0
10
42.56
20
29.9835443872765
30
0
0
VERTEX
8
0
10
43.008
20
30.2842855148919
30
0
0
VERTEX
8
0
10
43.456
20
30.5847629750149
30
0
0
VERTEX
8
0
10
43.904
20
30.8849767479822
30
0
0
VERTEX
8
0
10
44.352
20
31.1849268147849
30
0
0
VERTEX
8
0
10
44.8
20
31.4846131576307
30
0
0
VERTEX
8
0
10
45.248
20
31.7840357605178
30
0
0
VERTEX
8
0
10
45.696
20
32.0831946098349
30
0
0
VERTEX
8
0
10
46.144
20
32.3820896949386
30
0
0
VERTEX
8
0
10
46.592
20
32.6807210086822
30
0
0
VERTEX
8
0
10
47.04
20
32.9790885481448
30
0
0
VERTEX
8
0
10
47.488
20
33.2771923151106
30
0
0
VERTEX
8
0
10
47.936
20
33.5750323167247
30
0
0
VERTEX
8
0
10
48.384
20
33.8726085662331
30
0
0
VERTEX
8
0
10
48.832
20
34.1699210834876
30
0
0
VERTEX
8
0
10
49.28
20
34.4669698956499
30
0
0
VERTEX
8
0
10
49.728
20
34.763755037899
30
0
0
VERTEX
8
0
10
50.176
20
35.0602765540432
30
0
0
VERTEX
8
0
10
50.624
20
35.3565344972659
30
0
0
VERTEX
8
0
10
51.072
20
35.6525289309047
30
0
0
VERTEX
8
0
10
51.52
20
35.948259929095
30
0
0
VERTEX
8
0
10
51.968
20
36.2437275775459
30
0
0
VERTEX
8
0
10
52.416
20
36.5389319744144
30
0
0
VERTEX
8
0
10
52.864
20
36.8338732309525
30
0
0
VERTEX
8
0
10
53.312
20
37.1285514725571
30
0
0
VERTEX
8
0
10
53.76
20
37.4229668394466
30
0
0
VERTEX
8
0
10
54.208
20
37.7171194876691
30
0
0
VERTEX
8
0
10
54.656
20
38.0110095900031
30
0
0
VERTEX
8
0
10
55.104
20
38.304637336939
30
0
0
VERTEX
8
0
10
55.552
20
38.5980029376441
30
0
0
VERTEX
8
0
10
56
20
38.8911066211126
30
0
0
VERTEX
8
0
10
56.448
20
39.1839486371382
30
0
0
VERTEX
8
0
10
56.896
20
39.4765292576152
30
0
0
VERTEX
8
0
10
57.344
20
39.7688487775894
30
0
0
VERTEX
8
0
10
57.792
20
40.0609075166273
30
0
0
VERTEX
8
0
10
58.24
20
40.3527058201287
30
0
0
VERTEX
8
0
10
58.688
20
40.644244060659
30
0
0
VERTEX
8
0
10
59.136
20
40.9355226395062
30
0
0
VERTEX
8
0
10
59.584
20
41.2265419881442
30
0
0
VERTEX
8
0
10
60.032
20
41.517302569938
30
0
0
VERTEX
8
0
10
60.48
20
41.8078048818298
30
0
0
VERTEX
8
0
10
60.928
20
42.098049456169
30
0
0
VERTEX
8
0
10
61.376
20
42.3880368626506
30
0
0
VERTEX
8
0
10
61.824
20
42.6777677103552
30
0
0
VERTEX
8
0
10
62.272
20
42.967242649997
30
0
0
VERTEX
8
0
10
62.72
20
43.2564623761457
30
0
0
VERTEX
8
0
10
63.168
20
43.5454276297581
30
0
0
VERTEX
8
0
10
63.616
20
43.8341392008192
30
0
0
VERTEX
8
0
10
64.064
20
44.1225979311078
30
0
0
VERTEX
8
0
10
64.512
20
44.4108047172607
30
0
0
VERTEX
8
0
10
64.96
20
44.6987605139626
30
0
0
VERTEX
8
0
10
65.408
20
44.9864663374226
30
0
0
VERTEX
8
0
10
65.856
20
45.2739232690673
30
0
0
VERTEX
8
0
10
66.304
20
45.5611324595556
30
0
0
VERTEX
8
0
10
66.752
20
45.8480951330518
30
0
0
VERTEX
8
0
10
67.2
20
46.1348125918964
30
0
0
VERTEX
8
0
10
67.648
20
46.4212862216208
30
0
0
VERTEX
8
0
10
68.096
20
46.7075174962814
30
0
0
VERTEX
8
0
10
68.544
20
46.9935079845222
30
0
0
VERTEX
8
0
10
68.992
20
47.2792593557884
30
0
0
VERTEX
8
0
10
69.44
20
47.5647733873479
30
0
0
VERTEX
8
0
10
69.888
20
47.8500519718679
30
0
0
VERTEX
8
0
10
70.336
20
48.1350971256885
30
0
0
VERTEX
8
0
10
70.784
20
48.419910997876
30
0
0
VERTEX
8
0
10
71.232
20
48.7044958800638
30
0
0
VERTEX
8
0
10
71.68
20
48.988854217513
30
0
0
VERTEX
8
0
10
72.128
20
49.2729886209711
30
0
0
VERTEX
8
0
10
72.576
20
49.5569018800495
30
0
0
VERTEX
8
0
10
73.024
20
49.8405969778185
30
0
0
VERTEX
8
0
10
73.472
20
50.1240771070918
30
0
0
VERTEX
8
0
10
73.92
20
50.4073456886264
30
0
0
VERTEX
8
0
10
74.368
20
50.6904063912554
30
0
0
VERTEX
8
0
10
74.816
20
50.9732631545676
30
0
0
VERTEX
8
0
10
75.264
20
51.2559202142862
30
0
0
VERTEX
8
0
10
75.712
20
51.5383821308937
30
0
0
VERTEX
8
0
10
76.16
20
51.820653822004
30
0
0
VERTEX
8
0
10
76.608
20
52.1027405991308
30
0
0
VERTEX
8
0
10
77.056
20
52.3846482095089
30
0
0
VERTEX
8
0
10
77.504
20
52.6663828839851
30
0
0
VERTEX
8
0
10
77.952
20
52.9479513921593
30
0
0
VERTEX
8
0
10
78.4
20
53.2293611060024
30
0
0
VERTEX
8
0
10
78.848
20
53.5106200737678
30
0
0
VERTEX
8
0
10
79.296
20
53.7917371063932
30
0
0
VERTEX
8
0
10
79.744
20
54.0727218790227
30
0
0
VERTEX
8
0
10
80.192
20
54.3535850510696
30
0
0
VERTEX
8
0
10
80.64
20
54.6343384094277
30
0
0
VERTEX
8
0
10
81.088
20
54.9149950404942
30
0
0
VERTEX
8
0
10
81.536
20
55.1955695385208
30
0
0
VERTEX
8
0
10
81.984
20
55.4760782606244
30
0
0
VERTEX
8
0
10
82.432
20
55.7565396420116
30
0
0
VERTEX
8
0
10
82.88
20
56.0369745902776
30
0
0
VERTEX
8
0
10
83.328
20
56.3174069851462
30
0
0
VERTEX
8
0
10
83.776
20
56.5978643213012
30
0
0
VERTEX
8
0
10
84.224
20
56.8783785490426
30
0
0
VERTEX
8
0
10
84.672
20
57.1589871953919
30
0
0
VERTEX
8
0
10
85.12
20
57.439734892175
30
0
0
VERTEX
8
0
10
85.568
20
57.7206755141467
30
0
0
VERTEX
8
0
10
86.016
20
58.0018752642039
30
0
0
VERTEX
8
0
10
86.464
20
58.2834172927806
30
0
0
VERTEX
8
0
10
86.912
20
58.5654089314047
30
0
0
VERTEX
8
0
10
87.36
20
58.8479936379685
30
0
0
VERTEX
8
0
10
87.808
20
59.1313718854722
30
0
0
VERTEX
8
0
10
88.256
20
59.4158390584931
30
0
0
VERTEX
8
0
10
88.704
20
59.7018479167116
30
0
0
VERTEX
8
0
10
89.152
20
59.9900251053382
30
0
0
VERTEX
8
0
10
89.6
20
60.2805084135957
30
0
0
VERTEX
8
0
10
90.048
20
60.5708466573624
30
0
0
VERTEX
8
0
10
90.496
20
60.8578347037875
30
0
0
VERTEX
8
0
10
90.944
20
61.1411125234225
30
0
0
VERTEX
8
0
10
91.392
20
61.4213590877741
30
0
0
VERTEX
8
0
10
91.84
20
61.6991286432868
30
0
0
VERTEX
8
0
10
92.288
20
61.9747869094691
30
0
0
VERTEX
8
0
10
92.736
20
62.2485816741693
30
0
0
VERTEX
8
0
10
93.184
20
62.5206903436815
30
0
0
VERTEX
8
0
10
93.632
20
62.7912462391843
30
0
0
VERTEX
8
0
10
94.08
20
63.0603534444367
30
0
0
VERTEX
8
0
10
94.528
20
63.3280956742416
30
0
0
VERTEX
8
0
10
94.976
20
63.5945418744856
30
0
0
VERTEX
8
0
10
95.424
20
63.8597499302102
30
0
0
VERTEX
8
0
10
95.872
20
64.1237692195859
30
0
0
VERTEX
8
0
10
96.3200000000001
20
64.3866424314476
30
0
0
VERTEX
8
0
10
96.768
20
64.6484068947741
30
0
0
VERTEX
8
0
10
97.2160000000001
20
64.9090955740601
30
0
0
VERTEX
8
0
10
97.664
20
65.1687378300074
30
0
0
VERTEX
8
0
10
98.1120000000001
20
65.4273600107938
30
0
0
VERTEX
8
0
10
98.56
20
65.6849859190394
30
0
0
VERTEX
8
0
10
99.0080000000001
20
65.9416371855533
30
0
0
VERTEX
8
0
10
99.456
20
66.197333572228
30
0
0
VERTEX
8
0
10
99.9040000000001
20
66.4520932200898
30
0
0
VERTEX
8
0
10
100.352
20
66.7059328545774
30
0
0
VERTEX
8
0
10
100.8
20
66.9588679568841
30
0
0
VERTEX
8
0
10
101.248
20
67.2109129081181
30
0
0
VERTEX
8
0
10
101.696
20
67.4620811116064
30
0
0
VERTEX
8
0
10
102.144
20
67.7123850972668
30
0
0
VERTEX
8
0
10
102.592
20
67.9618366113153
30
0
0
VERTEX
8
0
10
103.04
20
68.2104466937614
30
0
0
VERTEX
8
0
10
103.488
20
68.4582257458102
30
0
0
VERTEX
8
0
10
103.936
20
68.7051835886296
30
0
0
VERTEX
8
0
10
104.384
20
68.9513295150799
30
0
0
VERTEX
8
0
10
104.832
20
69.1966723351042
30
0
0
VERTEX
8
0
10
105.28
20
69.4412204160524
30
0
0
VERTEX
8
0
10
105.728
20
69.6849817185256
30
0
0
VERTEX
8
0
10
106.176
20
69.9279638281938
30
0
0
VERTEX
8
0
10
106.624
20
70.1701739843811
30
0
0
VERTEX
8
0
10
107.072
20
70.4116191057465
30
0
0
VERTEX
8
0
10
107.52
20
70.6523058132984
30
0
0
VERTEX
8
0
10
107.968
20
70.8922404512923
30
0
0
VERTEX
8
0
10
108.416
20
71.1314291061028
30
0
0
VERTEX
8
0
10
108.864
20
71.3698776233705
30
0
0
VERTEX
8
0
10
109.312
20
71.6075916236
30
0
0
VERTEX
8
0
10
109.76
20
71.844576516409
30
0
0
VERTEX
8
0
10
110.208
20
72.0808375135445
30
0
0
VERTEX
8
0
10
110.656
20
72.3163796408256
30
0
0
VERTEX
8
0
10
111.104
20
72.5512077491048
30
0
0
VERTEX
8
0
10
111.552
20
72.7853265243354
30
0
0
VERTEX
8
0
10
112
20
73.0187404969076
30
0
0
VERTEX
8
0
10
112.448
20
73.2514540502027
30
0
0
VERTEX
8
0
10
112.896
20
73.4834714285464
30
0
0
VERTEX
8
0
10
113.344
20
73.7147967445961
30
0
0
VERTEX
8
0
10
113.792
20
73.94543398613
30
0
0
VERTEX
8
0
10
114.24
20
74.1753870224429
30
0
0
VERTEX
8
0
10
114.688
20
74.4046596102255
30
0
0
VERTEX
8
0
10
115.136
20
74.6332553991198
30
0
0
VERTEX
8
0
10
115.584
20
74.8611779368221
30
0
0
VERTEX
8
0
10
116.032
20
75.0884306739296
30
0
0
VERTEX
8
0
10
116.48
20
75.3150169684179
30
0
0
VERTEX
8
0
10
116.928
20
75.540940089877
30
0
0
VERTEX
8
0
10
117.376
20
75.7662032234712
30
0
0
VERTEX
8
0
10
117.824
20
75.9908094736511
30
0
0
VERTEX
8
0
10
118.272
20
76.214761867644
30
0
0
VERTEX
8
0
10
118.72
20
76.4380633587755
30
0
0
VERTEX
8
0
10
119.168
20
76.6607168295202
30
0
0
VERTEX
8
0
10
119.616
20
76.8827250944879
30
0
0
VERTEX
8
0
10
120.064
20
77.1040909031502
30
0
0
VERTEX
8
0
10
120.512
20
77.3248169424211
30
0
0
VERTEX
8
0
10
120.96
20
77.5449058391929
30
0
0
VERTEX
8
0
10
121.408
20
77.7643601626289
30
0
0
VERTEX
8
0
10
121.856
20
77.9831824263659
30
0
0
VERTEX
8
0
10
122.304
20
78.2013750906736
30
0
0
VERTEX
8
0
10
122.752
20
78.4189405643681
30
0
0
VERTEX
8
0
10
123.2
20
78.6358812067716
30
0
0
VERTEX
8
0
10
123.648
20
78.8521993294504
30
0
0
VERTEX
8
0
10
124.096
20
79.0678971979816
30
0
0
VERTEX
8
0
10
124.544
20
79.2829770335509
30
0
0
VERTEX
8
0
10
124.992
20
79.4974410144865
30
0
0
VERTEX
8
0
10
125.44
20
79.711291277788
30
0
0
VERTEX
8
0
10
125.888
20
79.9245299204677
30
0
0
VERTEX
8
0
10
126.336
20
80.1371590009581
30
0
0
VERTEX
8
0
10
126.784
20
80.3491805403621
30
0
0
VERTEX
8
0
10
127.232
20
80.5605965236699
30
0
0
VERTEX
8
0
10
127.68
20
80.7714089009708
30
0
0
VERTEX
8
0
10
128.128
20
80.9816195885423
30
0
0
VERTEX
8
0
10
128.576
20
81.1912304699379
30
0
0
VERTEX
8
0
10
129.024
20
81.4002433969978
30
0
0
VERTEX
8
0
10
129.472
20
81.6086601908653
30
0
0
VERTEX
8
0
10
129.92
20
81.8164826429016
30
0
0
VERTEX
8
0
10
130.368
20
82.0237125156081
30
0
0
VERTEX
8
0
10
130.816
20
82.2303515434848
30
0
0
VERTEX
8
0
10
131.264
20
82.4364014338716
30
0
0
VERTEX
8
0
10
131.712
20
82.6418638677551
30
0
0
VERTEX
8
0
10
132.16
20
82.8467405005195
30
0
0
VERTEX
8
0
10
132.608
20
83.0510329627032
30
0
0
VERTEX
8
0
10
133.056
20
83.2547428607118
30
0
0
VERTEX
8
0
10
133.504
20
83.4578717774882
30
0
0
VERTEX
8
0
10
133.952
20
83.6604212731812
30
0
0
VERTEX
8
0
10
134.4
20
83.8623928857916
30
0
0
VERTEX
8
0
10
134.848
20
84.0637881317644
30
0
0
VERTEX
8
0
10
135.296
20
84.264608506576
30
0
0
VERTEX
8
0
10
135.744
20
84.4648554853285
30
0
0
VERTEX
8
0
10
136.192
20
84.6645305232759
30
0
0
VERTEX
8
0
10
136.64
20
84.863635056348
30
0
0
VERTEX
8
0
10
137.088
20
85.0621705016931
30
0
0
VERTEX
8
0
10
137.536
20
85.2601382581269
30
0
0
SEQEND
8
0
0
POLYLINE
8
0
62
4
70
0
10
0
20
0
30
0
0
VERTEX
8
0
10
18.816
20
5.85128993421224
30
0
0
VERTEX
8
0
10
19.264
20
5.97834521627604
30
0
0
VERTEX
8
0
10
19.712
20
6.10529076548956
30
0
0
VERTEX
8
0
10
20.16
20
6.23212437600232
30
0
0
VERTEX
8
0
10
20.608
20
6.35884402587157
30
0
0
VERTEX
8
0
10
21.056
20
6.48544785876375
30
0
0
VERTEX
8
0
10
21.504
20
6.6119341677958
30
0
0
VERTEX
8
0
10
21.952
20
6.74131937819526
30
0
0
VERTEX
8
0
10
22.4
20
6.87232457248823
30
0
0
VERTEX
8
0
10
22.848
20
7.00319269161643
30
0
0
VERTEX
8
0
10
23.296
20
7.13392358071399
30
0
0
VERTEX
8
0
10
23.744
20
7.26451710049715
30
0
0
VERTEX
8
0
10
24.192
20
15.497334465939
30
0
0
VERTEX
8
0
10
24.64
20
15.7844022786419
30
0
0
VERTEX
8
0
10
25.088
20
16.0754234734561
30
0
0
VERTEX
8
0
10
25.536
20
16.3706505626594
30
0
0
VERTEX
8
0
10
25.984
20
16.6698508251175
30
0
0
VERTEX
8
0
10
26.432
20
16.972804993625
30
0
0
VERTEX
8
0
10
26.88
20
17.2793065815196
30
0
0
VERTEX
8
0
10
27.328
20
17.5899357288276
30
0
0
VERTEX
8
0
10
27.776
20
17.9035097430245
30
0
0
VERTEX
8
0
10
28.224
20
18.2197188370926
30
0
0
VERTEX
8
0
10
28.672
20
18.5384195553157
30
0
0
VERTEX
8
0
10
29.12
20
18.8594770657766
30
0
0
VERTEX
8
0
10
29.568
20
19.1827646149413
30
0
0
VERTEX
8
0
10
30.016
20
19.5144952341804
30
0
0
VERTEX
8
0
10
30.464
20
19.8496653656697
30
0
0
VERTEX
8
0
10
30.912
20
20.1879262042117
30
0
0
VERTEX
8
0
10
31.36
20
20.5291169384228
30
0
0
VERTEX
8
0
10
31.808
20
20.8730859506237
30
0
0
VERTEX
8
0
10
32.256
20
21.2196902822037
30
0
0
VERTEX
8
0
10
32.704
20
21.5565250382113
30
0
0
VERTEX
8
0
10
33.152
20
21.8955820483554
30
0
0
VERTEX
8
0
10
33.6
20
22.2359060839356
30
0
0
VERTEX
8
0
10
34.048
20
22.5774323218522
30
0
0
VERTEX
8
0
10
34.496
20
22.9200995708123
30
0
0
VERTEX
8
0
10
34.944
20
23.2638500358208
30
0
0
VERTEX
8
0
10
35.392
20
23.6020935676843
30
0
0
VERTEX
8
0
10
35.84
20
23.9423281840357
30
0
0
VERTEX
8
0
10
36.288
20
24.2834481198091
30
0
0
VERTEX
8
0
10
36.736
20
24.6254094863238
30
0
0
VERTEX
8
0
10
37.184
20
24.9681706795916
30
0
0
VERTEX
8
0
10
37.632
20
25.3116922396841
30
0
0
VERTEX
8
0
10
38.08
20
25.6446923870029
30
0
0
VERTEX
8
0
10
38.528
20
25.9808021128183
30
0
0
VERTEX
8
0
10
38.976
20
26.3173850504438
30
0
0
VERTEX
8
0
10
39.424
20
26.6544165412772
30
0
0
VERTEX
8
0
10
39.872
20
26.9918731069652
30
0
0
VERTEX
8
0
10
40.32
20
27.3297323805618
30
0
0
VERTEX
8
0
10
40.768
20
27.6708818598701
30
0
0
VERTEX
8
0
10
41.216
20
28.0115882186076
30
0
0
VERTEX
8
0
10
41.664
20
28.3526798422987
30
0
0
VERTEX
8
0
10
42.112
20
28.6941365821518
30
0
0
VERTEX
8
0
10
42.56
20
29.0359391977021
30
0
0
VERTEX
8
0
10
43.008
20
29.3775072181612
30
0
0
VERTEX
8
0
10
43.456
20
29.7188667992126
30
0
0
VERTEX
8
0
10
43.904
20
30.0604900594835
30
0
0
VERTEX
8
0
10
44.352
20
30.4023619421712
30
0
0
VERTEX
8
0
10
44.8
20
30.7444680309165
30
0
0
VERTEX
8
0
10
45.248
20
31.0867945158627
30
0
0
VERTEX
8
0
10
45.696
20
31.4288465503912
30
0
0
VERTEX
8
0
10
46.144
20
31.7708319736881
30
0
0
VERTEX
8
0
10
46.592
20
32.1130057010079
30
0
0
VERTEX
8
0
10
47.04
20
32.4553558701256
30
0
0
VERTEX
8
0
10
47.488
20
32.7978710904358
30
0
0
VERTEX
8
0
10
47.936
20
33.1405404193233
30
0
0
VERTEX
8
0
10
48.384
20
33.4839047932263
30
0
0
VERTEX
8
0
10
48.832
20
33.8275753866938
30
0
0
VERTEX
8
0
10
49.28
20
34.17136442078
30
0
0
VERTEX
8
0
10
49.728
20
34.515262686529
30
0
0
VERTEX
8
0
10
50.176
20
34.8592613186469
30
0
0
VERTEX
8
0
10
50.624
20
35.2033517791127
30
0
0
VERTEX
8
0
10
51.072
20
35.5469050620286
30
0
0
VERTEX
8
0
10
51.52
20
35.8904448948207
30
0
0
VERTEX
8
0
10
51.968
20
36.2340575137467
30
0
0
VERTEX
8
0
10
52.416
20
36.5777354127394
30
0
0
VERTEX
8
0
10
52.864
20
36.9214713479821
30
0
0
VERTEX
8
0
10
53.312
20
37.2652583260633
30
0
0
VERTEX
8
0
10
53.76
20
37.5828655918256
30
0
0
VERTEX
8
0
10
54.208
20
37.8998433165227
30
0
0
VERTEX
8
0
10
54.656
20
38.2166884832485
30
0
0
VERTEX
8
0
10
55.104
20
38.5333990888946
30
0
0
VERTEX
8
0
10
55.552
20
38.8499731789859
30
0
0
VERTEX
8
0
10
56
20
39.1664088457651
30
0
0
VERTEX
8
0
10
56.448
20
39.4744844364551
30
0
0
VERTEX
8
0
10
56.896
20
39.7831019489823
30
0
0
VERTEX
8
0
10
57.344
20
40.0915568891829
30
0
0
VERTEX
8
0
10
57.792
20
40.399847864808
30
0
0
VERTEX
8
0
10
58.24
20
40.7079735098869
30
0
0
VERTEX
8
0
10
58.688
20
41.0159324837946
30
0
0
VERTEX
8
0
10
59.136
20
41.3249348047623
30
0
0
VERTEX
8
0
10
59.584
20
41.6335540359094
30
0
0
VERTEX
8
0
10
60.032
20
41.9419966722874
30
0
0
VERTEX
8
0
10
60.48
20
42.2502616106874
30
0
0
VERTEX
8
0
10
60.928
20
42.5583477649653
30
0
0
VERTEX
8
0
10
61.376
20
42.8662540654884
30
0
0
VERTEX
8
0
10
61.824
20
43.1724012906167
30
0
0
VERTEX
8
0
10
62.272
20
43.4787473939981
30
0
0
VERTEX
8
0
10
62.72
20
43.784910199399
30
0
0
VERTEX
8
0
10
63.168
20
44.0908886899935
30
0
0
VERTEX
8
0
10
63.616
20
44.3966818631502
30
0
0
VERTEX
8
0
10
64.064
20
44.7022887300048
30
0
0
VERTEX
8
0
10
64.512
20
45.0075660913635
30
0
0
VERTEX
8
0
10
64.96
20
45.3127072166362
30
0
0
VERTEX
8
0
10
65.408
20
45.6176665270838
30
0
0
VERTEX
8
0
10
65.856
20
45.9224429369364
30
0
0
VERTEX
8
0
10
66.304
20
46.2270353763812
30
0
0
VERTEX
8
0
10
66.752
20
46.5316160846319
30
0
0
VERTEX
8
0
10
67.2
20
46.836154975504
30
0
0
VERTEX
8
0
10
67.648
20
47.1405049388143
30
0
0
VERTEX
8
0
10
68.096
20
47.4446650032118
30
0
0
VERTEX
8
0
10
68.544
20
47.748634210122
30
0
0
VERTEX
8
0
10
68.992
20
48.0524116133935
30
0
0
VERTEX
8
0
10
69.44
20
48.3525957776883
30
0
0
VERTEX
8
0
10
69.888
20
48.65078550577
30
0
0
VERTEX
8
0
10
70.336
20
48.948762859159
30
0
0
VERTEX
8
0
10
70.784
20
49.2465271991245
30
0
0
VERTEX
8
0
10
71.232
20
49.5440778907133
30
0
0
VERTEX
8
0
10
71.68
20
49.8414143026981
30
0
0
VERTEX
8
0
10
72.128
20
50.1195682132299
30
0
0
VERTEX
8
0
10
72.576
20
50.3917976708815
30
0
0
VERTEX
8
0
10
73.024
20
50.6638316434311
30
0
0
VERTEX
8
0
10
73.472
20
50.9356688679264
30
0
0
VERTEX
8
0
10
73.92
20
51.2073080979355
30
0
0
VERTEX
8
0
10
74.368
20
51.4787481031448
30
0
0
VERTEX
8
0
10
74.816
20
51.7468950583564
30
0
0
VERTEX
8
0
10
75.264
20
52.0144293716734
30
0
0
VERTEX
8
0
10
75.712
20
52.2817701123718
30
0
0
VERTEX
8
0
10
76.16
20
52.5489159289243
30
0
0
VERTEX
8
0
10
76.608
20
52.8158654876916
30
0
0
VERTEX
8
0
10
77.056
20
53.0826174725041
30
0
0
VERTEX
8
0
10
77.504
20
53.3509737916592
30
0
0
VERTEX
8
0
10
77.952
20
53.6191424916477
30
0
0
VERTEX
8
0
10
78.4
20
53.8871093704054
30
0
0
VERTEX
8
0
10
78.848
20
54.1548732040626
30
0
0
VERTEX
8
0
10
79.296
20
54.4224327839497
30
0
0
VERTEX
8
0
10
79.744
20
54.6897869162567
30
0
0
VERTEX
8
0
10
80.192
20
54.9562323079507
30
0
0
VERTEX
8
0
10
80.64
20
55.2225353765491
30
0
0
VERTEX
8
0
10
81.088
20
55.4886281852308
30
0
0
VERTEX
8
0
10
81.536
20
55.7545096080569
30
0
0
VERTEX
8
0
10
81.984
20
56.0201785320965
30
0
0
VERTEX
8
0
10
82.432
20
56.2856338571515
30
0
0
VERTEX
8
0
10
82.88
20
56.5508744954911
30
0
0
VERTEX
8
0
10
83.328
20
56.8158993715912
30
0
0
VERTEX
8
0
10
83.776
20
57.0807074218848
30
0
0
VERTEX
8
0
10
84.224
20
57.3452975945169
30
0
0
VERTEX
8
0
10
84.672
20
57.6096688491091
30
0
0
VERTEX
8
0
10
85.12
20
57.8738201565278
30
0
0
VERTEX
8
0
10
85.568
20
58.1383244275642
30
0
0
VERTEX
8
0
10
86.016
20
58.4024699671234
30
0
0
VERTEX
8
0
10
86.464
20
58.6663973322428
30
0
0
VERTEX
8
0
10
86.912
20
58.930105476583
30
0
0
VERTEX
8
0
10
87.36
20
59.1935933617825
30
0
0
VERTEX
8
0
10
87.808
20
59.4568599394154
30
0
0
VERTEX
8
0
10
88.256
20
59.7180359302498
30
0
0
VERTEX
8
0
10
88.704
20
59.9795570016908
30
0
0
VERTEX
8
0
10
89.152
20
60.2408442212349
30
0
0
VERTEX
8
0
10
89.6
20
60.5018688233664
30
0
0
VERTEX
8
0
10
90.048
20
60.7625477814233
30
0
0
VERTEX
8
0
10
90.496
20
61.0231863572468
30
0
0
VERTEX
8
0
10
90.944
20
61.2836764434902
30
0
0
VERTEX
8
0
10
91.392
20
61.5436910334712
30
0
0
VERTEX
8
0
10
91.84
20
61.8032296217194
30
0
0
VERTEX
8
0
10
92.288
20
62.0622930858494
30
0
0
VERTEX
8
0
10
92.736
20
62.3208825248163
30
0
0
VERTEX
8
0
10
93.184
20
62.5786766573716
30
0
0
VERTEX
8
0
10
93.632
20
62.8358322832445
30
0
0
VERTEX
8
0
10
94.08
20
63.0925101570224
30
0
0
VERTEX
8
0
10
94.528
20
63.3487114424002
30
0
0
VERTEX
8
0
10
94.976
20
63.6044372879328
30
0
0
VERTEX
8
0
10
95.424
20
63.8596888273809
30
0
0
VERTEX
8
0
10
95.872
20
64.114726921182
30
0
0
VERTEX
8
0
10
96.3200000000001
20
64.3693673656412
30
0
0
VERTEX
8
0
10
96.768
20
64.6235379684633
30
0
0
VERTEX
8
0
10
97.2160000000001
20
64.8772398015379
30
0
0
VERTEX
8
0
10
97.664
20
65.1304739238032
30
0
0
VERTEX
8
0
10
98.1120000000001
20
65.3832413815572
30
0
0
VERTEX
8
0
10
98.56
20
65.6346690532416
30
0
0
VERTEX
8
0
10
99.0080000000001
20
65.885531641292
30
0
0
VERTEX
8
0
10
99.456
20
66.1359361497428
30
0
0
VERTEX
8
0
10
99.9040000000001
20
66.3858834945926
30
0
0
VERTEX
8
0
10
100.352
20
66.6353745821625
30
0
0
VERTEX
8
0
10
100.8
20
66.8844103093273
30
0
0
VERTEX
8
0
10
101.248
20
67.1344417183188
30
0
0
VERTEX
8
0
10
101.696
20
67.3840054716883
30
0
0
VERTEX
8
0
10
102.144
20
67.6331090088414
30
0
0
VERTEX
8
0
10
102.592
20
67.8817533020174
30
0
0
VERTEX
8
0
10
103.04
20
68.1299393130737
30
0
0
VERTEX
8
0
10
103.488
20
68.3776679937265
30
0
0
VERTEX
8
0
10
103.936
20
68.6225813183749
30
0
0
VERTEX
8
0
10
104.384
20
68.8672909876936
30
0
0
VERTEX
8
0
10
104.832
20
69.1115507296842
30
0
0
VERTEX
8
0
10
105.28
20
69.3553613678749
30
0
0
VERTEX
8
0
10
105.728
20
69.598723718305
30
0
0
VERTEX
8
0
10
106.176
20
69.8416385896952
30
0
0
VERTEX
8
0
10
106.624
20
70.099713013452
30
0
0
VERTEX
8
0
10
107.072
20
70.3544194668397
30
0
0
VERTEX
8
0
10
107.52
20
70.6086708935757
30
0
0
VERTEX
8
0
10
107.968
20
70.8624684198536
30
0
0
VERTEX
8
0
10
108.416
20
71.1158131594903
30
0
0
VERTEX
8
0
10
108.864
20
71.3687062142039
30
0
0
VERTEX
8
0
10
109.312
20
71.6341327304058
30
0
0
VERTEX
8
0
10
109.76
20
71.8958106466178
30
0
0
VERTEX
8
0
10
110.208
20
72.1570465258738
30
0
0
VERTEX
8
0
10
110.656
20
72.4178415341642
30
0
0
VERTEX
8
0
10
111.104
20
72.6781968247694
30
0
0
VERTEX
8
0
10
111.552
20
72.9381135385419
30
0
0
VERTEX
8
0
10
112
20
73.1986124879051
30
0
0
VERTEX
8
0
10
112.448
20
73.4583577262234
30
0
0
VERTEX
8
0
10
112.896
20
73.7176685874709
30
0
0
VERTEX
8
0
10
113.344
20
73.97654616893
30
0
0
VERTEX
8
0
10
113.792
20
74.2349915567114
30
0
0
VERTEX
8
0
10
114.24
20
74.4928064496854
30
0
0
VERTEX
8
0
10
114.688
20
74.7500383265786
30
0
0
VERTEX
8
0
10
115.136
20
75.006840731925
30
0
0
VERTEX
8
0
10
115.584
20
75.2632147083519
30
0
0
VERTEX
8
0
10
116.032
20
75.5191612885002
30
0
0
VERTEX
8
0
10
116.48
20
75.7746814952384
30
0
0
VERTEX
8
0
10
116.928
20
76.0290570233196
30
0
0
VERTEX
8
0
10
117.376
20
76.2826671501756
30
0
0
VERTEX
8
0
10
117.824
20
76.5358529991064
30
0
0
VERTEX
8
0
10
118.272
20
76.7886155475016
30
0
0
VERTEX
8
0
10
118.72
20
77.040955764112
30
0
0
VERTEX
8
0
10
119.168
20
77.2928746092313
30
0
0
VERTEX
8
0
10
119.616
20
77.5338588233352
30
0
0
VERTEX
8
0
10
120.064
20
77.7716398110116
30
0
0
VERTEX
8
0
10
120.512
20
78.008991000179
30
0
0
VERTEX
8
0
10
120.96
20
78.2459132085244
30
0
0
VERTEX
8
0
10
121.408
20
78.4824072477175
30
0
0
VERTEX
8
0
10
121.856
20
78.7184739235339
30
0
0
VERTEX
8
0
10
122.304
20
78.9337609092422
30
0
0
VERTEX
8
0
10
122.752
20
79.1464644769493
30
0
0
VERTEX
8
0
10
123.2
20
79.35875551511
30
0
0
VERTEX
8
0
10
123.648
20
79.5706343478265
30
0
0
VERTEX
8
0
10
124.096
20
79.7821013000191
30
0
0
VERTEX
8
0
10
124.544
20
79.9931566974204
30
0
0
VERTEX
8
0
10
124.992
20
80.2029611647763
30
0
0
VERTEX
8
0
10
125.44
20
80.4123692057959
30
0
0
VERTEX
8
0
10
125.888
20
80.6213678468953
30
0
0
VERTEX
8
0
10
126.336
20
80.8299573953616
30
0
0
VERTEX
8
0
10
126.784
20
81.0381381595375
30
0
0
VERTEX
8
0
10
127.232
20
81.2459104488144
30
0
0
VERTEX
8
0
10
127.68
20
81.4543386728108
30
0
0
VERTEX
8
0
10
128.128
20
81.6622367538313
30
0
0
VERTEX
8
0
10
128.576
20
81.869726228304
30
0
0
VERTEX
8
0
10
129.024
20
82.0768074318057
30
0
0
VERTEX
8
0
10
129.472
20
82.2834807006493
30
0
0
VERTEX
8
0
10
129.92
20
82.4897463718802
30
0
0
VERTEX
8
0
10
130.368
20
82.6955902615787
30
0
0
VERTEX
8
0
10
130.816
20
82.9010313205377
30
0
0
VERTEX
8
0
10
131.264
20
83.1060669232774
30
0
0
VERTEX
8
0
10
131.712
20
83.3106974012879
30
0
0
VERTEX
8
0
10
132.16
20
83.5149230868888
30
0
0
VERTEX
8
0
10
132.608
20
83.7187443132264
30
0
0
VERTEX
8
0
10
133.056
20
83.9208993604524
30
0
0
VERTEX
8
0
10
133.504
20
84.1229798734085
30
0
0
VERTEX
8
0
10
133.952
20
84.3246567544303
30
0
0
VERTEX
8
0
10
134.4
20
84.5259303278399
30
0
0
VERTEX
8
0
10
134.848
20
84.7268009188856
30
0
0
VERTEX
8
0
10
135.296
20
84.9272688537348
30
0
0
VERTEX
8
0
10
135.744
20
85.1258020164962
30
0
0
VERTEX
8
0
10
136.192
20
85.3244217524579
30
0
0
VERTEX
8
0
10
136.64
20
85.5226411666817
30
0
0
VERTEX
8
0
10
137.088
20
85.7204605649469
30
0
0
VERTEX
8
0
10
137.536
20
85.9178802541964
30
0
0
SEQEND
8
0
0
POLYLINE
8
0
62
2
70
0
10
0
20
0
30
0
0
VERTEX
8
0
10
18.816
20
3.55781276476183
30
0
0
VERTEX
8
0
10
19.264
20
3.62743763692884
30
0
0
VERTEX
8
0
10
19.712
20
3.69669584577679
30
0
0
VERTEX
8
0
10
20.16
20
3.76559446671053
30
0
0
VERTEX
8
0
10
20.608
20
3.83414006079771
30
0
0
VERTEX
8
0
10
21.056
20
3.90233874962782
30
0
0
VERTEX
8
0
10
21.504
20
3.97019627794941
30
0
0
VERTEX
8
0
10
21.952
20
4.03771806546019
30
0
0
VERTEX
8
0
10
22.4
20
4.10490925011357
30
0
0
VERTEX
8
0
10
22.848
20
4.17177472386714
30
0
0
VERTEX
8
0
10
23.296
20
4.23831916240813
30
0
0
VERTEX
8
0
10
23.744
20
4.30454704986269
30
0
0
VERTEX
8
0
10
24.192
20
4.3704626991162
30
0
0
VERTEX
8
0
10
24.64
20
4.43607026885411
30
0
0
VERTEX
8
0
10
25.088
20
4.50137377773299
30
0
0
VERTEX
8
0
10
25.536
20
4.56637711611705
30
0
0
VERTEX
8
0
10
25.984
20
4.6310840559266
30
0
0
VERTEX
8
0
10
26.432
20
4.6954982590601
30
0
0
VERTEX
8
0
10
26.88
20
4.7596232842808
30
0
0
VERTEX
8
0
10
27.328
20
4.82346259331015
30
0
0
VERTEX
8
0
10
27.776
20
4.88701955588224
30
0
0
VERTEX
8
0
10
28.224
20
4.95029745432819
30
0
0
VERTEX
8
0
10
28.672
20
5.01329948737145
30
0
0
VERTEX
8
0
10
29.12
20
5.07602877360069
30
0
0
VERTEX
8
0
10
29.568
20
5.13848835466424
30
0
0
VERTEX
8
0
10
30.016
20
5.20068119790765
30
0
0
VERTEX
8
0
10
30.464
20
5.26261019911534
30
0
0
VERTEX
8
0
10
30.912
20
5.32427818472118
30
0
0
VERTEX
8
0
10
31.36
20
5.38568791412985
30
0
0
VERTEX
8
0
10
31.808
20
5.44684208171347
30
0
0
VERTEX
8
0
10
32.256
20
5.50774331886069
30
0
0
VERTEX
8
0
10
32.704
20
5.56839419577725
30
0
0
VERTEX
8
0
10
33.152
20
5.62879722333295
30
0
0
VERTEX
8
0
10
33.6
20
5.68895485475633
30
0
0
VERTEX
8
0
10
34.048
20
5.74886948733304
30
0
0
VERTEX
8
0
10
34.496
20
5.8085434640153
30
0
0
VERTEX
8
0
10
34.944
20
5.86797907496809
30
0
0
VERTEX
8
0
10
35.392
20
5.92717855907012
30
0
0
VERTEX
8
0
10
35.84
20
5.9861441054399
30
0
0
VERTEX
8
0
10
36.288
20
6.04487785484639
30
0
0
VERTEX
8
0
10
36.736
20
6.10338190106544
30
0
0
VERTEX
8
0
10
37.184
20
6.16165829230063
30
0
0
VERTEX
8
0
10
37.632
20
6.21970903243771
30
0
0
VERTEX
8
0
10
38.08
20
6.27753608235561
30
0
0
VERTEX
8
0
10
38.528
20
6.33514136112265
30
0
0
VERTEX
8
0
10
38.976
20
6.39252674731332
30
0
0
VERTEX
8
0
10
39.424
20
6.44969408000371
30
0
0
VERTEX
8
0
10
39.872
20
6.50664516009115
30
0
0
VERTEX
8
0
10
40.32
20
6.56338175125941
30
0
0
VERTEX
8
0
10
40.768
20
6.61990558109639
30
0
0
VERTEX
8
0
10
41.216
20
6.6762183421283
30
0
0
VERTEX
8
0
10
41.664
20
6.73232169282307
30
0
0
VERTEX
8
0
10
42.112
20
6.78821725856772
30
0
0
VERTEX
8
0
10
42.56
20
6.8439066325561
30
0
0
VERTEX
8
0
10
43.008
20
6.89939137677128
30
0
0
VERTEX
8
0
10
43.456
20
6.9546730228015
30
0
0
VERTEX
8
0
10
43.904
20
7.0097530727365
30
0
0
VERTEX
8
0
10
44.352
20
7.06463299996386
30
0
0
VERTEX
8
0
10
44.8
20
7.11931424996434
30
0
0
VERTEX
8
0
10
45.248
20
7.17379824108261
30
0
0
VERTEX
8
0
10
45.696
20
7.22808636528703
30
0
0
VERTEX
8
0
10
46.144
20
7.28217998888303
30
0
0
VERTEX
8
0
10
46.592
20
7.33608045316038
30
0
0
VERTEX
8
0
10
47.04
20
7.3897890751573
30
0
0
VERTEX
8
0
10
47.488
20
7.44330714821399
30
0
0
VERTEX
8
0
10
47.936
20
7.49663594262499
30
0
0
VERTEX
8
0
10
48.384
20
7.549776706324
30
0
0
VERTEX
8
0
10
48.832
20
7.60273066537003
30
0
0
VERTEX
8
0
10
49.28
20
7.65549902454762
30
0
0
VERTEX
8
0
10
49.728
20
7.70808296794211
30
0
0
VERTEX
8
0
10
50.176
20
7.76048365941576
30
0
0
VERTEX
8
0
10
50.624
20
7.81270224315124
30
0
0
VERTEX
8
0
10
51.072
20
7.8647398441899
30
0
0
VERTEX
8
0
10
51.52
20
7.91659756884042
30
0
0
VERTEX
8
0
10
51.968
20
7.96827650515309
30
0
0
VERTEX
8
0
10
52.416
20
8.01977772343321
30
0
0
VERTEX
8
0
10
52.864
20
8.07110227655645
30
0
0
VERTEX
8
0
10
53.312
20
8.12225120054485
30
0
0
VERTEX
8
0
10
53.76
20
8.17322551483392
30
0
0
VERTEX
8
0
10
54.208
20
8.22402622274756
30
0
0
VERTEX
8
0
10
54.656
20
8.27465431185583
30
0
0
VERTEX
8
0
10
55.104
20
8.3251107543531
30
0
0
VERTEX
8
0
10
55.552
20
8.37539650738277
30
0
0
VERTEX
8
0
10
56
20
8.42551251345618
30
0
0
VERTEX
8
0
10
56.448
20
8.4754597006945
30
0
0
VERTEX
8
0
10
56.896
20
8.52523898326706
30
0
0
VERTEX
8
0
10
57.344
20
8.57485126159391
30
0
0
VERTEX
8
0
10
57.792
20
8.62429742273179
30
0
0
VERTEX
8
0
10
58.24
20
8.67357834066092
30
0
0
VERTEX
8
0
10
58.688
20
8.72269487652948
30
0
0
VERTEX
8
0
10
59.136
20
8.77164787899911
30
0
0
VERTEX
8
0
10
59.584
20
8.8204381844558
30
0
0
VERTEX
8
0
10
60.032
20
8.86906661732708
30
0
0
VERTEX
8
0
10
60.48
20
8.91753399031018
30
0
0
VERTEX
8
0
10
60.928
20
8.96584110462345
30
0
0
VERTEX
8
0
10
61.376
20
9.01398875025129
30
0
0
VERTEX
8
0
10
61.824
20
9.06197770617019
30
0
0
VERTEX
8
0
10
62.272
20
9.10980874062689
30
0
0
VERTEX
8
0
10
62.72
20
9.15748261128864
30
0
0
VERTEX
8
0
10
63.168
20
9.20500006550355
30
0
0
VERTEX
8
0
10
63.616
20
9.25236184051644
30
0
0
VERTEX
8
0
10
64.064
20
9.29956866363634
30
0
0
VERTEX
8
0
10
64.512
20
9.34662125247582
30
0
0
VERTEX
8
0
10
64.96
20
9.39352031512065
30
0
0
VERTEX
8
0
10
65.408
20
9.4402665503325
30
0
0
VERTEX
8
0
10
65.856
20
9.48686064771864
30
0
0
VERTEX
8
0
10
66.304
20
9.53330328792693
30
0
0
VERTEX
8
0
10
66.752
20
9.57959514280018
30
0
0
VERTEX
8
0
10
67.2
20
9.62573687556757
30
0
0
VERTEX
8
0
10
67.648
20
9.6717291410122
30
0
0
VERTEX
8
0
10
68.096
20
9.7175725855644
30
0
0
VERTEX
8
0
10
68.544
20
9.76326784759202
30
0
0
VERTEX
8
0
10
68.992
20
9.80881555742515
30
0
0
VERTEX
8
0
10
69.44
20
9.85421633755881
30
0
0
VERTEX
8
0
10
69.888
20
9.89947080280041
30
0
0
VERTEX
8
0
10
70.336
20
9.94457956041376
30
0
0
VERTEX
8
0
10
70.784
20
9.98954321025909
30
0
0
VERTEX
8
0
10
71.232
20
10.0343623448667
30
0
0
VERTEX
8
0
10
71.68
20
10.0790375496838
30
0
0
VERTEX
8
0
10
72.128
20
10.123569403091
30
0
0
VERTEX
8
0
10
72.576
20
10.1679584766126
30
0
0
VERTEX
8
0
10
73.024
20
10.2122053349815
30
0
0
VERTEX
8
0
10
73.472
20
10.2563105362578
30
0
0
VERTEX
8
0
10
73.92
20
10.3002746320059
30
0
0
VERTEX
8
0
10
74.368
20
10.3440981673457
30
0
0
VERTEX
8
0
10
74.816
20
10.3877816810999
30
0
0
VERTEX
8
0
10
75.264
20
10.4313257058831
30
0
0
VERTEX
8
0
10
75.712
20
10.4747307682053
30
0
0
VERTEX
8
0
10
76.16
20
10.5179973885806
30
0
0
VERTEX
8
0
10
76.608
20
10.5611260816552
30
0
0
VERTEX
8
0
10
77.056
20
10.6041173562748
30
0
0
VERTEX
8
0
10
77.504
20
10.6469717155683
30
0
0
VERTEX
8
0
10
77.952
20
10.6896896570844
30
0
0
VERTEX
8
0
10
78.4
20
10.7322716728619
30
0
0
VERTEX
8
0
10
78.848
20
10.7747182495062
30
0
0
VERTEX
8
0
10
79.296
20
10.817029868303
30
0
0
VERTEX
8
0
10
79.744
20
10.8592070053103
30
0
0
VERTEX
8
0
10
80.192
20
10.9012501313981
30
0
0
VERTEX
8
0
10
80.64
20
10.9431597123625
30
0
0
VERTEX
8
0
10
81.088
20
10.9849362090287
30
0
0
VERTEX
8
0
10
81.536
20
11.0265800772817
30
0
0
VERTEX
8
0
10
81.984
20
11.0680917681737
30
0
0
VERTEX
8
0
10
82.432
20
11.1094717280002
30
0
0
VERTEX
8
0
10
82.88
20
11.1507203983635
30
0
0
VERTEX
8
0
10
83.328
20
11.1918382162424
30
0
0
VERTEX
8
0
10
83.776
20
11.2328256140939
30
0
0
VERTEX
8
0
10
84.224
20
11.2736830198524
30
0
0
VERTEX
8
0
10
84.672
20
11.3144108570948
30
0
0
VERTEX
8
0
10
85.12
20
11.3550095450401
30
0
0
VERTEX
8
0
10
85.568
20
11.3954794986184
30
0
0
VERTEX
8
0
10
86.016
20
11.4358211285797
30
0
0
VERTEX
8
0
10
86.464
20
11.4760348414886
30
0
0
VERTEX
8
0
10
86.912
20
11.516121039853
30
0
0
VERTEX
8
0
10
87.36
20
11.5560801221347
30
0
0
VERTEX
8
0
10
87.808
20
11.5959124828505
30
0
0
VERTEX
8
0
10
88.256
20
11.6356185125847
30
0
0
VERTEX
8
0
10
88.704
20
11.6751985980855
30
0
0
VERTEX
8
0
10
89.152
20
11.714653122303
30
0
0
VERTEX
8
0
10
89.6
20
11.7539824644382
30
0
0
VERTEX
8
0
10
90.048
20
11.7931870000017
30
0
0
VERTEX
8
0
10
90.496
20
11.8322671008934
30
0
0
VERTEX
8
0
10
90.944
20
11.8712231353952
30
0
0
VERTEX
8
0
10
91.392
20
11.9100554682864
30
0
0
VERTEX
8
0
10
91.84
20
11.948764460835
30
0
0
VERTEX
8
0
10
92.288
20
11.987350470894
30
0
0
VERTEX
8
0
10
92.736
20
12.0258138529158
30
0
0
VERTEX
8
0
10
93.184
20
12.0641549580305
30
0
0
VERTEX
8
0
10
93.632
20
12.1023741340471
30
0
0
VERTEX
8
0
10
94.08
20
12.1404717255536
30
0
0
VERTEX
8
0
10
94.528
20
12.1784480739088
30
0
0
VERTEX
8
0
10
94.976
20
12.2163035173273
30
0
0
VERTEX
8
0
10
95.424
20
12.254038390895
30
0
0
VERTEX
8
0
10
95.872
20
12.2916530266168
30
0
0
VERTEX
8
0
10
96.3200000000001
20
12.3291477534684
30
0
0
VERTEX
8
0
10
96.768
20
12.366522897451
30
0
0
VERTEX
8
0
10
97.2160000000001
20
12.4037787815553
30
0
0
VERTEX
8
0
10
97.664
20
12.4409157259051
30
0
0
VERTEX
8
0
10
98.1120000000001
20
12.4779340477291
30
0
0
VERTEX
8
0
10
98.56
20
12.5148340614183
30
0
0
VERTEX
8
0
10
99.0080000000001
20
12.5516160785469
30
0
0
VERTEX
8
0
10
99.456
20
12.5882804079387
30
0
0
VERTEX
8
0
10
99.9040000000001
20
12.6248273556695
30
0
0
VERTEX
8
0
10
100.352
20
12.6612572251248
30
0
0
VERTEX
8
0
10
100.8
20
12.6975703170373
30
0
0
VERTEX
8
0
10
101.248
20
12.7337669294947
30
0
0
VERTEX
8
0
10
101.696
20
12.7698473579977
30
0
0
VERTEX
8
0
10
102.144
20
12.8058118954802
30
0
0
VERTEX
8
0
10
102.592
20
12.841660832351
30
0
0
VERTEX
8
0
10
103.04
20
12.8773944565083
30
0
0
VERTEX
8
0
10
103.488
20
12.9130130534018
30
0
0
VERTEX
8
0
10
103.936
20
12.9485169060116
30
0
0
VERTEX
8
0
10
104.384
20
12.983906294958
30
0
0
VERTEX
8
0
10
104.832
20
13.0191814984417
30
0
0
VERTEX
8
0
10
105.28
20
13.05434279231
30
0
0
VERTEX
8
0
10
105.728
20
13.089390450134
30
0
0
VERTEX
8
0
10
106.176
20
13.1243247431618
30
0
0
VERTEX
8
0
10
106.624
20
13.1591459403697
30
0
0
VERTEX
8
0
10
107.072
20
13.1938543085243
30
0
0
VERTEX
8
0
10
107.52
20
13.2284501121542
30
0
0
VERTEX
8
0
10
107.968
20
13.2629336136126
30
0
0
VERTEX
8
0
10
108.416
20
13.2973050730967
30
0
0
VERTEX
8
0
10
108.864
20
13.3315647486725
30
0
0
VERTEX
8
0
10
109.312
20
13.3657128962951
30
0
0
VERTEX
8
0
10
109.76
20
13.3997497698368
30
0
0
VERTEX
8
0
10
110.208
20
13.4336756211083
30
0
0
VERTEX
8
0
10
110.656
20
13.4674906998875
30
0
0
VERTEX
8
0
10
111.104
20
13.5011952539428
30
0
0
VERTEX
8
0
10
111.552
20
13.5347895290423
30
0
0
VERTEX
8
0
10
112
20
13.5682737690047
30
0
0
VERTEX
8
0
10
112.448
20
13.601648215696
30
0
0
VERTEX
8
0
10
112.896
20
13.634913109058
30
0
0
VERTEX
8
0
10
113.344
20
13.6680686871486
30
0
0
VERTEX
8
0
10
113.792
20
13.7011151861279
30
0
0
VERTEX
8
0
10
114.24
20
13.7340528403136
30
0
0
VERTEX
8
0
10
114.688
20
13.7668818821728
30
0
0
VERTEX
8
0
10
115.136
20
13.7996025423763
30
0
0
VERTEX
8
0
10
115.584
20
13.832215049783
30
0
0
VERTEX
8
0
10
116.032
20
13.8647196314872
30
0
0
VERTEX
8
0
10
116.48
20
13.8971165128181
30
0
0
VERTEX
8
0
10
116.928
20
13.9294059173712
30
0
0
VERTEX
8
0
10
117.376
20
13.9615880670272
30
0
0
VERTEX
8
0
10
117.824
20
13.9936631819658
30
0
0
VERTEX
8
0
10
118.272
20
14.0256314806787
30
0
0
VERTEX
8
0
10
118.72
20
14.0574931800122
30
0
0
VERTEX
8
0
10
119.168
20
14.0892484951432
30
0
0
VERTEX
8
0
10
119.616
20
14.1208976396474
30
0
0
VERTEX
8
0
10
120.064
20
14.1524408254881
30
0
0
VERTEX
8
0
10
120.512
20
14.1838782630081
30
0
0
VERTEX
8
0
10
120.96
20
14.215210161004
30
0
0
VERTEX
8
0
10
121.408
20
14.2464367267052
30
0
0
VERTEX
8
0
10
121.856
20
14.2775581657827
30
0
0
VERTEX
8
0
10
122.304
20
14.308574682413
30
0
0
VERTEX
8
0
10
122.752
20
14.3394864792312
30
0
0
VERTEX
8
0
10
123.2
20
14.3702937574016
30
0
0
VERTEX
8
0
10
123.648
20
14.4009967165845
30
0
0
VERTEX
8
0
10
124.096
20
14.4315955549977
30
0
0
VERTEX
8
0
10
124.544
20
14.4620904694073
30
0
0
VERTEX
8
0
10
124.992
20
14.4924816551292
30
0
0
VERTEX
8
0
10
125.44
20
14.5227693060857
30
0
0
VERTEX
8
0
10
125.888
20
14.5529536147656
30
0
0
VERTEX
8
0
10
126.336
20
14.5830347722882
30
0
0
VERTEX
8
0
10
126.784
20
14.6130129683922
30
0
0
VERTEX
8
0
10
127.232
20
14.6428883914385
30
0
0
VERTEX
8
0
10
127.68
20
14.672661228459
30
0
0
VERTEX
8
0
10
128.128
20
14.7023316651411
30
0
0
VERTEX
8
0
10
128.576
20
14.7318998858536
30
0
0
VERTEX
8
0
10
129.024
20
14.7613660736455
30
0
0
VERTEX
8
0
10
129.472
20
14.7907304102844
30
0
0
VERTEX
8
0
10
129.92
20
14.8199930762453
30
0
0
VERTEX
8
0
10
130.368
20
14.8491542507366
30
0
0
VERTEX
8
0
10
130.816
20
14.8782141117045
30
0
0
VERTEX
8
0
10
131.264
20
14.9071728358505
30
0
0
VERTEX
8
0
10
131.712
20
14.936030598648
30
0
0
VERTEX
8
0
10
132.16
20
14.9647875743394
30
0
0
VERTEX
8
0
10
132.608
20
14.9934439359601
30
0
0
VERTEX
8
0
10
133.056
20
15.0219998553525
30
0
0
VERTEX
8
0
10
133.504
20
15.0504555031644
30
0
0
VERTEX
8
0
10
133.952
20
15.0788110488686
30
0
0
VERTEX
8
0
10
134.4
20
15.1070666607829
30
0
0
VERTEX
8
0
10
134.848
20
15.1352225060656
30
0
0
VERTEX
8
0
10
135.296
20
15.1632787507239
30
0
0
VERTEX
8
0
10
135.744
20
15.1912355596483
30
0
0
VERTEX
8
0
10
136.192
20
15.219093096602
30
0
0
VERTEX
8
0
10
136.64
20
15.2468515242301
30
0
0
VERTEX
8
0
10
137.088
20
15.2745110040964
30
0
0
VERTEX
8
0
10
137.536
20
15.302071696656
30
0
0
SEQEND
8
0
0
POLYLINE
8
0
62
3
70
0
10
0
20
0
30
0
0
VERTEX
8
0
10
18.816
20
6.11699517790616
30
0
0
VERTEX
8
0
10
19.264
20
6.25103997332346
30
0
0
VERTEX
8
0
10
19.712
20
6.38475682849314
30
0
0
VERTEX
8
0
10
20.16
20
6.51814980526451
30
0
0
VERTEX
8
0
10
20.608
20
6.65122266084533
30
0
0
VERTEX
8
0
10
21.056
20
6.78397889306585
30
0
0
VERTEX
8
0
10
21.504
20
6.91642177805227
30
0
0
VERTEX
8
0
10
21.952
20
7.04855440122814
30
0
0
VERTEX
8
0
10
22.4
20
7.18037968310948
30
0
0
VERTEX
8
0
10
22.848
20
7.31190040050451
30
0
0
VERTEX
8
0
10
23.296
20
7.44311920406505
30
0
0
VERTEX
8
0
10
23.744
20
7.5740386328165
30
0
0
VERTEX
8
0
10
24.192
20
7.70466112606544
30
0
0
VERTEX
8
0
10
24.64
20
7.83498903335035
30
0
0
VERTEX
8
0
10
25.088
20
7.96502462269245
30
0
0
VERTEX
8
0
10
25.536
20
8.09477008741422
30
0
0
VERTEX
8
0
10
25.984
20
8.22422755185064
30
0
0
VERTEX
8
0
10
26.432
20
8.35339907622558
30
0
0
VERTEX
8
0
10
26.88
20
8.48228666064093
30
0
0
VERTEX
8
0
10
27.328
20
8.61089224860465
30
0
0
VERTEX
8
0
10
27.776
20
8.73921772996293
30
0
0
VERTEX
8
0
10
28.224
20
8.86726494356133
30
0
0
VERTEX
8
0
10
28.672
20
8.99503567945783
30
0
0
VERTEX
8
0
10
29.12
20
9.12253168095169
30
0
0
VERTEX
8
0
10
29.568
20
9.24975464645412
30
0
0
VERTEX
8
0
10
30.016
20
9.37670623104536
30
0
0
VERTEX
8
0
10
30.464
20
9.50338804808888
30
0
0
VERTEX
8
0
10
30.912
20
9.62980167054762
30
0
0
VERTEX
8
0
10
31.36
20
9.75594863236094
30
0
0
VERTEX
8
0
10
31.808
20
9.88183042963945
30
0
0
VERTEX
8
0
10
32.256
20
10.0074485218874
30
0
0
VERTEX
8
0
10
32.704
20
10.1328043330852
30
0
0
VERTEX
8
0
10
33.152
20
10.2578992527968
30
0
0
VERTEX
8
0
10
33.6
20
10.3827346371892
30
0
0
VERTEX
8
0
10
34.048
20
10.5073118100531
30
0
0
VERTEX
8
0
10
34.496
20
10.6316320637717
30
0
0
VERTEX
8
0
10
34.944
20
10.7556966602518
30
0
0
VERTEX
8
0
10
35.392
20
10.8795068318276
30
0
0
VERTEX
8
0
10
35.84
20
11.0030637821763
30
0
0
VERTEX
8
0
10
36.288
20
11.1263686871664
30
0
0
VERTEX
8
0
10
36.736
20
11.249422695674
30
0
0
VERTEX
8
0
10
37.184
20
11.3722269304323
30
0
0
VERTEX
8
0
10
37.632
20
11.4947824887857
30
0
0
VERTEX
8
0
10
38.08
20
11.6170904434732
30
0
0
VERTEX
8
0
10
38.528
20
11.7391518433466
30
0
0
VERTEX
8
0
10
38.976
20
11.8609677141495
30
0
0
VERTEX
8
0
10
39.424
20
11.9825390591218
30
0
0
VERTEX
8
0
10
39.872
20
12.1038668597749
30
0
0
VERTEX
8
0
10
40.32
20
12.2249520764736
30
0
0
VERTEX
8
0
10
40.768
20
12.3457956490976
30
0
0
VERTEX
8
0
10
41.216
20
12.4663984976545
30
0
0
VERTEX
8
0
10
41.664
20
12.5867615228755
30
0
0
VERTEX
8
0
10
42.112
20
12.7068856067924
30
0
0
VERTEX
8
0
10
42.56
20
12.8267716132658
30
0
0
VERTEX
8
0
10
43.008
20
12.9464203885608
30
0
0
VERTEX
8
0
10
43.456
20
13.065832761832
30
0
0
VERTEX
8
0
10
43.904
20
13.1850095456486
30
0
0
VERTEX
8
0
10
44.352
20
13.3039515364645
30
0
0
VERTEX
8
0
10
44.8
20
13.4226595150854
30
0
0
VERTEX
8
0
10
45.248
20
13.5411342471215
30
0
0
VERTEX
8
0
10
45.696
20
13.6593764834319
30
0
0
VERTEX
8
0
10
46.144
20
13.7773869605426
30
0
0
VERTEX
8
0
10
46.592
20
13.8951664010273
30
0
0
VERTEX
8
0
10
47.04
20
14.01271551395
30
0
0
VERTEX
8
0
10
47.488
20
14.1300349951921
30
0
0
VERTEX
8
0
10
47.936
20
14.2471255278324
30
0
0
VERTEX
8
0
10
48.384
20
14.3639877825412
30
0
0
VERTEX
8
0
10
48.832
20
14.4806224178689
30
0
0
VERTEX
8
0
10
49.28
20
14.5970300805931
30
0
0
VERTEX
8
0
10
49.728
20
14.7132114060513
30
0
0
VERTEX
8
0
10
50.176
20
14.82916701842
30
0
0
VERTEX
8
0
10
50.624
20
14.9448975310279
30
0
0
VERTEX
8
0
10
51.072
20
15.060403546666
30
0
0
VERTEX
8
0
10
51.52
20
15.1756856578273
30
0
0
VERTEX
8
0
10
51.968
20
15.2907444469804
30
0
0
VERTEX
8
0
10
52.416
20
15.4055804868628
30
0
0
VERTEX
8
0
10
52.864
20
15.5201943406692
30
0
0
VERTEX
8
0
10
53.312
20
15.6345865623754
30
0
0
VERTEX
8
0
10
53.76
20
15.7487576968994
30
0
0
VERTEX
8
0
10
54.208
20
15.8627082803706
30
0
0
VERTEX
8
0
10
54.656
20
15.9764388403366
30
0
0
VERTEX
8
0
10
55.104
20
16.0899498959805
30
0
0
VERTEX
8
0
10
55.552
20
16.2032419583086
30
0
0
VERTEX
8
0
10
56
20
16.3163155303872
30
0
0
VERTEX
8
0
10
56.448
20
16.429171107486
30
0
0
VERTEX
8
0
10
56.896
20
16.5418091773237
30
0
0
VERTEX
8
0
10
57.344
20
16.6542302201894
30
0
0
VERTEX
8
0
10
57.792
20
16.766434709159
30
0
0
VERTEX
8
0
10
58.24
20
16.8784231102604
30
0
0
VERTEX
8
0
10
58.688
20
16.9901958826148
30
0
0
VERTEX
8
0
10
59.136
20
17.1017534786303
30
0
0
VERTEX
8
0
10
59.584
20
17.2130963441254
30
0
0
VERTEX
8
0
10
60.032
20
17.3242249185073
30
0
0
VERTEX
8
0
10
60.48
20
17.4351396349028
30
0
0
VERTEX
8
0
10
60.928
20
17.5458409203009
30
0
0
VERTEX
8
0
10
61.376
20
17.6563291956925
30
0
0
VERTEX
8
0
10
61.824
20
17.7666048761989
30
0
0
VERTEX
8
0
10
62.272
20
17.8766683712269
30
0
0
VERTEX
8
0
10
62.72
20
17.9865200845578
30
0
0
VERTEX
8
0
10
63.168
20
18.096160414493
30
0
0
VERTEX
8
0
10
63.616
20
18.2055897539751
30
0
0
VERTEX
8
0
10
64.064
20
18.3148084906856
30
0
0
VERTEX
8
0
10
64.512
20
18.423817007177
30
0
0
VERTEX
8
0
10
64.96
20
18.5326156809709
30
0
0
VERTEX
8
0
10
65.408
20
18.6412048846708
30
0
0
VERTEX
8
0
10
65.856
20
18.7495849860591
30
0
0
VERTEX
8
0
10
66.304
20
18.8577563482063
30
0
0
VERTEX
8
0
10
66.752
20
18.965719329558
30
0
0
VERTEX
8
0
10
67.2
20
19.0734742840427
30
0
0
VERTEX
8
0
10
67.648
20
19.1810215611653
30
0
0
VERTEX
8
0
10
68.096
20
19.288361506063
30
0
0
VERTEX
8
0
10
68.544
20
19.3954944596616
30
0
0
VERTEX
8
0
10
68.992
20
19.5024207586959
30
0
0
VERTEX
8
0
10
69.44
20
19.609140735821
30
0
0
VERTEX
8
0
10
69.888
20
19.7156547196942
30
0
0
VERTEX
8
0
10
70.336
20
19.8219630350561
30
0
0
VERTEX
8
0
10
70.784
20
19.9280660028086
30
0
0
VERTEX
8
0
10
71.232
20
20.0339639400593
30
0
0
VERTEX
8
0
10
71.68
20
20.1396571602539
30
0
0
VERTEX
8
0
10
72.128
20
20.2451459731904
30
0
0
VERTEX
8
0
10
72.576
20
20.350430685133
30
0
0
VERTEX
8
0
10
73.024
20
20.4555115988507
30
0
0
VERTEX
8
0
10
73.472
20
20.5603890136838
30
0
0
VERTEX
8
0
10
73.92
20
20.6650632256394
30
0
0
VERTEX
8
0
10
74.368
20
20.769534527423
30
0
0
VERTEX
8
0
10
74.816
20
20.8738032085187
30
0
0
VERTEX
8
0
10
75.264
20
20.9778695552398
30
0
0
VERTEX
8
0
10
75.712
20
21.0817338507868
30
0
0
VERTEX
8
0
10
76.16
20
21.1853963753068
30
0
0
VERTEX
8
0
10
76.608
20
21.2888574059638
30
0
0
VERTEX
8
0
10
77.056
20
21.3921172169779
30
0
0
VERTEX
8
0
10
77.504
20
21.4951760796713
30
0
0
VERTEX
8
0
10
77.952
20
21.5980342625434
30
0
0
VERTEX
8
0
10
78.4
20
21.7006920313097
30
0
0
VERTEX
8
0
10
78.848
20
21.8031496489455
30
0
0
VERTEX
8
0
10
79.296
20
21.9054073757472
30
0
0
VERTEX
8
0
10
79.744
20
22.0074654693831
30
0
0
VERTEX
8
0
10
80.192
20
22.1093241849176
30
0
0
VERTEX
8
0
10
80.64
20
22.2109837748728
30
0
0
VERTEX
8
0
10
81.088
20
22.3124444892838
30
0
0
VERTEX
8
0
10
81.536
20
22.4137065757186
30
0
0
VERTEX
8
0
10
81.984
20
22.5147702793359
30
0
0
VERTEX
8
0
10
82.432
20
22.6156358429263
30
0
0
VERTEX
8
0
10
82.88
20
22.7163035069488
30
0
0
VERTEX
8
0
10
83.328
20
22.8167735095689
30
0
0
VERTEX
8
0
10
83.776
20
22.9170460867129
30
0
0
VERTEX
8
0
10
84.224
20
23.0171214720714
30
0
0
VERTEX
8
0
10
84.672
20
23.1169998971849
30
0
0
VERTEX
8
0
10
85.12
20
23.2166815914472
30
0
0
VERTEX
8
0
10
85.568
20
23.3161667821434
30
0
0
VERTEX
8
0
10
86.016
20
23.4154556945065
30
0
0
VERTEX
8
0
10
86.464
20
23.5145485517191
30
0
0
VERTEX
8
0
10
86.912
20
23.6134455749799
30
0
0
VERTEX
8
0
10
87.36
20
23.7121469835121
30
0
0
VERTEX
8
0
10
87.808
20
23.8106529946173
30
0
0
VERTEX
8
0
10
88.256
20
23.9089638236838
30
0
0
VERTEX
8
0
10
88.704
20
24.0070796842382
30
0
0
VERTEX
8
0
10
89.152
20
24.1050007879664
30
0
0
VERTEX
8
0
10
89.6
20
24.2027273447415
30
0
0
VERTEX
8
0
10
90.048
20
24.3002595626551
30
0
0
VERTEX
8
0
10
90.496
20
24.3975976480598
30
0
0
VERTEX
8
0
10
90.944
20
24.4947418055679
30
0
0
VERTEX
8
0
10
91.392
20
24.5916922381118
30
0
0
VERTEX
8
0
10
91.84
20
24.6884491469415
30
0
0
VERTEX
8
0
10
92.288
20
24.7850127316754
30
0
0
VERTEX
8
0
10
92.736
20
24.8813831903094
30
0
0
VERTEX
8
0
10
93.184
20
24.9775607192583
30
0
0
VERTEX
8
0
10
93.632
20
25.0735455133588
30
0
0
VERTEX
8
0
10
94.08
20
25.1693377659212
30
0
0
VERTEX
8
0
10
94.528
20
25.2649376687275
30
0
0
VERTEX
8
0
10
94.976
20
25.360345412076
30
0
0
VERTEX
8
0
10
95.424
20
25.4555611847908
30
0
0
VERTEX
8
0
10
95.872
20
25.5505851742474
30
0
0
VERTEX
8
0
10
96.3200000000001
20
25.6454175664013
30
0
0
VERTEX
8
0
10
96.768
20
25.7400585458157
30
0
0
VERTEX
8
0
10
97.2160000000001
20
25.8345082956467
30
0
0
VERTEX
8
0
10
97.664
20
25.9287669977159
30
0
0
VERTEX
8
0
10
98.1120000000001
20
26.0228348324985
30
0
0
VERTEX
8
0
10
98.56
20
26.1167119791537
30
0
0
VERTEX
8
0
10
99.0080000000001
20
26.210398615536
30
0
0
VERTEX
8
0
10
99.456
20
26.3038949182313
30
0
0
VERTEX
8
0
10
99.9040000000001
20
26.3972010625586
30
0
0
VERTEX
8
0
10
100.352
20
26.490317222601
30
0
0
VERTEX
8
0
10
100.8
20
26.5832435712252
30
0
0
VERTEX
8
0
10
101.248
20
26.675980280088
30
0
0
VERTEX
8
0
10
101.696
20
26.7685275196661
30
0
0
VERTEX
8
0
10
102.144
20
26.8608854592673
30
0
0
VERTEX
8
0
10
102.592
20
26.9530542670537
30
0
0
VERTEX
8
0
10
103.04
20
27.0450341100493
30
0
0
VERTEX
8
0
10
103.488
20
27.136825154173
30
0
0
VERTEX
8
0
10
103.936
20
27.2284275642295
30
0
0
VERTEX
8
0
10
104.384
20
27.319841503965
30
0
0
VERTEX
8
0
10
104.832
20
27.4110671360387
30
0
0
VERTEX
8
0
10
105.28
20
27.5021046220582
30
0
0
VERTEX
8
0
10
105.728
20
27.592954122617
30
0
0
VERTEX
8
0
10
106.176
20
27.6836157972749
30
0
0
VERTEX
8
0
10
106.624
20
27.7740898045831
30
0
0
VERTEX
8
0
10
107.072
20
27.8643763021171
30
0
0
VERTEX
8
0
10
107.52
20
27.9544754464638
30
0
0
VERTEX
8
0
10
107.968
20
28.0443873932536
30
0
0
VERTEX
8
0
10
108.416
20
28.1341122971711
30
0
0
VERTEX
8
0
10
108.864
20
28.2236503119694
30
0
0
VERTEX
8
0
10
109.312
20
28.3130015904799
30
0
0
VERTEX
8
0
10
109.76
20
28.4021662846294
30
0
0
VERTEX
8
0
10
110.208
20
28.4911445454497
30
0
0
VERTEX
8
0
10
110.656
20
28.5799365230949
30
0
0
VERTEX
8
0
10
111.104
20
28.6685423668525
30
0
0
VERTEX
8
0
10
111.552
20
28.7569622251499
30
0
0
VERTEX
8
0
10
112
20
28.8451962455806
30
0
0
VERTEX
8
0
10
112.448
20
28.9332445749041
30
0
0
VERTEX
8
0
10
112.896
20
29.0211073590598
30
0
0
VERTEX
8
0
10
113.344
20
29.1087847431893
30
0
0
VERTEX
8
0
10
113.792
20
29.1962768716301
30
0
0
VERTEX
8
0
10
114.24
20
29.2835838879441
30
0
0
VERTEX
8
0
10
114.688
20
29.3707059349141
30
0
0
VERTEX
8
0
10
115.136
20
29.4576431545728
30
0
0
VERTEX
8
0
10
115.584
20
29.5443956881948
30
0
0
VERTEX
8
0
10
116.032
20
29.630963676322
30
0
0
VERTEX
8
0
10
116.48
20
29.7173472587637
30
0
0
VERTEX
8
0
10
116.928
20
29.8035465746135
30
0
0
VERTEX
8
0
10
117.376
20
29.8895617622594
30
0
0
VERTEX
8
0
10
117.824
20
29.9753929593915
30
0
0
VERTEX
8
0
10
118.272
20
30.0610403030099
30
0
0
VERTEX
8
0
10
118.72
20
30.1465039294456
30
0
0
VERTEX
8
0
10
119.168
20
30.2317839743513
30
0
0
VERTEX
8
0
10
119.616
20
30.3168805727336
30
0
0
VERTEX
8
0
10
120.064
20
30.4017938589509
30
0
0
VERTEX
8
0
10
120.512
20
30.4865239667089
30
0
0
VERTEX
8
0
10
120.96
20
30.571071029098
30
0
0
VERTEX
8
0
10
121.408
20
30.6554351785848
30
0
0
VERTEX
8
0
10
121.856
20
30.7396165470166
30
0
0
VERTEX
8
0
10
122.304
20
30.8236152656537
30
0
0
VERTEX
8
0
10
122.752
20
30.9074314651483
30
0
0
VERTEX
8
0
10
123.2
20
30.9910652755783
30
0
0
VERTEX
8
0
10
123.648
20
31.0745168264338
30
0
0
VERTEX
8
0
10
124.096
20
31.1577862466463
30
0
0
VERTEX
8
0
10
124.544
20
31.2408736645869
30
0
0
VERTEX
8
0
10
124.992
20
31.3237792080663
30
0
0
VERTEX
8
0
10
125.44
20
31.4065030043647
30
0
0
VERTEX
8
0
10
125.888
20
31.4890451802124
30
0
0
VERTEX
8
0
10
126.336
20
31.5714058618223
30
0
0
VERTEX
8
0
10
126.784
20
31.6535851748848
30
0
0
VERTEX
8
0
10
127.232
20
31.7355832445711
30
0
0
VERTEX
8
0
10
127.68
20
31.8174001955567
30
0
0
VERTEX
8
0
10
128.128
20
31.8990361520156
30
0
0
VERTEX
8
0
10
128.576
20
31.9804912376334
30
0
0
VERTEX
8
0
10
129.024
20
32.0617655756077
30
0
0
VERTEX
8
0
10
129.472
20
32.1428592886674
30
0
0
VERTEX
8
0
10
129.92
20
32.2237724990684
30
0
0
VERTEX
8
0
10
130.368
20
32.3045053286074
30
0
0
VERTEX
8
0
10
130.816
20
32.3850578986239
30
0
0
VERTEX
8
0
10
131.264
20
32.4654303300106
30
0
0
VERTEX
8
0
10
131.712
20
32.545622743222
30
0
0
VERTEX
8
0
10
132.16
20
32.6256352582731
30
0
0
VERTEX
8
0
10
132.608
20
32.7054679947533
30
0
0
VERTEX
8
0
10
133.056
20
32.7851210718327
30
0
0
VERTEX
8
0
10
133.504
20
32.8645946082633
30
0
0
VERTEX
8
0
10
133.952
20
32.9438887223882
30
0
0
VERTEX
8
0
10
134.4
20
33.023003532153
30
0
0
VERTEX
8
0
10
134.848
20
33.1019391551041
30
0
0
VERTEX
8
0
10
135.296
20
33.180695708394
30
0
0
VERTEX
8
0
10
135.744
20
33.2592733087976
30
0
0
VERTEX
8
0
10
136.192
20
33.3376720727098
30
0
0
VERTEX
8
0
10
136.64
20
33.4158921161491
30
0
0
VERTEX
8
0
10
137.088
20
33.4939335547768
30
0
0
VERTEX
8
0
10
137.536
20
33.571796503885
30
0
0
SEQEND
8
0
0
POLYLINE
8
0
62
4
70
0
10
0
20
0
30
0
0
VERTEX
8
0
10
18.816
20
5.85128993421224
30
0
0
VERTEX
8
0
10
19.264
20
5.97834521627604
30
0
0
VERTEX
8
0
10
19.712
20
6.10529076548956
30
0
0
VERTEX
8
0
10
20.16
20
6.23212437600232
30
0
0
VERTEX
8
0
10
20.608
20
6.35884402587157
30
0
0
VERTEX
8
0
10
21.056
20
6.48544785876375
30
0
0
VERTEX
8
0
10
21.504
20
6.6119341677958
30
0
0
VERTEX
8
0
10
21.952
20
6.74131937819526
30
0
0
VERTEX
8
0
10
22.4
20
6.87232457248823
30
0
0
VERTEX
8
0
10
22.848
20
7.00319269161643
30
0
0
VERTEX
8
0
10
23.296
20
7.13392358071399
30
0
0
VERTEX
8
0
10
23.744
20
7.26451710049715
30
0
0
VERTEX
8
0
10
24.192
20
7.39497312587431
30
0
0
VERTEX
8
0
10
24.64
20
7.52245864960958
30
0
0
VERTEX
8
0
10
25.088
20
7.64884403122094
30
0
0
VERTEX
8
0
10
25.536
20
7.77510005422864
30
0
0
VERTEX
8
0
10
25.984
20
7.90122603633855
30
0
0
VERTEX
8
0
10
26.432
20
8.02722134293764
30
0
0
VERTEX
8
0
10
26.88
20
8.15308538330857
30
0
0
VERTEX
8
0
10
27.328
20
8.28365999072227
30
0
0
VERTEX
8
0
10
27.776
20
8.41490302443349
30
0
0
VERTEX
8
0
10
28.224
20
8.54600787066287
30
0
0
VERTEX
8
0
10
28.672
20
8.67697458682286
30
0
0
VERTEX
8
0
10
29.12
20
8.80780323053855
30
0
0
VERTEX
8
0
10
29.568
20
8.93849385964216
30
0
0
VERTEX
8
0
10
30.016
20
9.06081277925083
30
0
0
VERTEX
8
0
10
30.464
20
9.18275057514114
30
0
0
VERTEX
8
0
10
30.912
20
9.30456412901427
30
0
0
VERTEX
8
0
10
31.36
20
9.4262526012366
30
0
0
VERTEX
8
0
10
31.808
20
9.54781519942986
30
0
0
VERTEX
8
0
10
32.256
20
9.66925117539468
30
0
0
VERTEX
8
0
10
32.704
20
9.79862850218994
30
0
0
VERTEX
8
0
10
33.152
20
9.92725492007896
30
0
0
VERTEX
8
0
10
33.6
20
10.0557429056181
30
0
0
VERTEX
8
0
10
34.048
20
10.184092515588
30
0
0
VERTEX
8
0
10
34.496
20
10.3123038070203
30
0
0
VERTEX
8
0
10
34.944
20
10.4403768371893
30
0
0
VERTEX
8
0
10
35.392
20
10.5582693482527
30
0
0
VERTEX
8
0
10
35.84
20
10.6776721249065
30
0
0
VERTEX
8
0
10
36.288
20
10.7969482882354
30
0
0
VERTEX
8
0
10
36.736
20
10.9160972023493
30
0
0
VERTEX
8
0
10
37.184
20
11.0351182625161
30
0
0
VERTEX
8
0
10
37.632
20
11.1540108934268
30
0
0
VERTEX
8
0
10
38.08
20
11.2679523238196
30
0
0
VERTEX
8
0
10
38.528
20
11.3829143043121
30
0
0
VERTEX
8
0
10
38.976
20
11.4977610169324
30
0
0
VERTEX
8
0
10
39.424
20
11.6124914284948
30
0
0
VERTEX
8
0
10
39.872
20
11.7271045504092
30
0
0
VERTEX
8
0
10
40.32
20
11.8415994364226
30
0
0
VERTEX
8
0
10
40.768
20
11.9559751804969
30
0
0
VERTEX
8
0
10
41.216
20
12.0702309148118
30
0
0
VERTEX
8
0
10
41.664
20
12.1843658078867
30
0
0
VERTEX
8
0
10
42.112
20
12.2983790628104
30
0
0
VERTEX
8
0
10
42.56
20
12.4122699155737
30
0
0
VERTEX
8
0
10
43.008
20
12.5265154500674
30
0
0
VERTEX
8
0
10
43.456
20
12.6410553978111
30
0
0
VERTEX
8
0
10
43.904
20
12.7554674809683
30
0
0
VERTEX
8
0
10
44.352
20
12.8697511677643
30
0
0
VERTEX
8
0
10
44.8
20
12.9839059482142
30
0
0
VERTEX
8
0
10
45.248
20
13.0979313331228
30
0
0
VERTEX
8
0
10
45.696
20
13.2106811173131
30
0
0
VERTEX
8
0
10
46.144
20
13.3226726990157
30
0
0
VERTEX
8
0
10
46.592
20
13.4345397721303
30
0
0
VERTEX
8
0
10
47.04
20
13.546281715715
30
0
0
VERTEX
8
0
10
47.488
20
13.657897932248
30
0
0
VERTEX
8
0
10
47.936
20
13.7693878466225
30
0
0
VERTEX
8
0
10
48.384
20
13.882081076279
30
0
0
VERTEX
8
0
10
48.832
20
13.9950702301265
30
0
0
VERTEX
8
0
10
49.28
20
14.1079260535121
30
0
0
VERTEX
8
0
10
49.728
20
14.2206482285556
30
0
0
VERTEX
8
0
10
50.176
20
14.333236449863
30
0
0
VERTEX
8
0
10
50.624
20
14.445690424011
30
0
0
VERTEX
8
0
10
51.072
20
14.5564939930492
30
0
0
VERTEX
8
0
10
51.52
20
14.6669385943702
30
0
0
VERTEX
8
0
10
51.968
20
14.7772529220069
30
0
0
VERTEX
8
0
10
52.416
20
14.8874365720078
30
0
0
VERTEX
8
0
10
52.864
20
14.9974891548273
30
0
0
VERTEX
8
0
10
53.312
20
15.1074102947672
30
0
0
VERTEX
8
0
10
53.76
20
15.2138093648482
30
0
0
VERTEX
8
0
10
54.208
20
15.32002424811
30
0
0
VERTEX
8
0
10
54.656
20
15.4261190994065
30
0
0
VERTEX
8
0
10
55.104
20
15.5320932499429
30
0
0
VERTEX
8
0
10
55.552
20
15.6379460519688
30
0
0
VERTEX
8
0
10
56
20
15.7436768780208
30
0
0
VERTEX
8
0
10
56.448
20
15.8474215154616
30
0
0
VERTEX
8
0
10
56.896
20
15.9512106621358
30
0
0
VERTEX
8
0
10
57.344
20
16.0548835839818
30
0
0
VERTEX
8
0
10
57.792
20
16.1584395439761
30
0
0
VERTEX
8
0
10
58.24
20
16.2618778268372
30
0
0
VERTEX
8
0
10
58.688
20
16.3651977382868
30
0
0
VERTEX
8
0
10
59.136
20
16.4714379382649
30
0
0
VERTEX
8
0
10
59.584
20
16.577028147392
30
0
0
VERTEX
8
0
10
60.032
20
16.6824883122675
30
0
0
VERTEX
8
0
10
60.48
20
16.7878180529177
30
0
0
VERTEX
8
0
10
60.928
20
16.8930170011073
30
0
0
VERTEX
8
0
10
61.376
20
16.9980847999473
30
0
0
VERTEX
8
0
10
61.824
20
17.1019240495133
30
0
0
VERTEX
8
0
10
62.272
20
17.2058995961068
30
0
0
VERTEX
8
0
10
62.72
20
17.3097456227032
30
0
0
VERTEX
8
0
10
63.168
20
17.4134617481527
30
0
0
VERTEX
8
0
10
63.616
20
17.5170476025376
30
0
0
VERTEX
8
0
10
64.064
20
17.6205028268135
30
0
0
VERTEX
8
0
10
64.512
20
17.7202926991064
30
0
0
VERTEX
8
0
10
64.96
20
17.8210266956516
30
0
0
VERTEX
8
0
10
65.408
20
17.9216379920164
30
0
0
VERTEX
8
0
10
65.856
20
18.0221260656422
30
0
0
VERTEX
8
0
10
66.304
20
18.1224904079731
30
0
0
VERTEX
8
0
10
66.752
20
18.2231730216908
30
0
0
VERTEX
8
0
10
67.2
20
18.3241005328129
30
0
0
VERTEX
8
0
10
67.648
20
18.4248997982477
30
0
0
VERTEX
8
0
10
68.096
20
18.5255704279519
30
0
0
VERTEX
8
0
10
68.544
20
18.6261120424415
30
0
0
VERTEX
8
0
10
68.992
20
18.7265242724807
30
0
0
VERTEX
8
0
10
69.44
20
18.8299785122693
30
0
0
VERTEX
8
0
10
69.888
20
18.9349592182246
30
0
0
VERTEX
8
0
10
70.336
20
19.0397986867081
30
0
0
VERTEX
8
0
10
70.784
20
19.144496862856
30
0
0
VERTEX
8
0
10
71.232
20
19.2490536945182
30
0
0
VERTEX
8
0
10
71.68
20
19.3534691321822
30
0
0
VERTEX
8
0
10
72.128
20
19.4614489308764
30
0
0
VERTEX
8
0
10
72.576
20
19.5704064022478
30
0
0
VERTEX
8
0
10
73.024
20
19.6792225542516
30
0
0
VERTEX
8
0
10
73.472
20
19.7878974473395
30
0
0
VERTEX
8
0
10
73.92
20
19.8964311421136
30
0
0
VERTEX
8
0
10
74.368
20
20.0048236993259
30
0
0
VERTEX
8
0
10
74.816
20
20.1130751798793
30
0
0
VERTEX
8
0
10
75.264
20
20.2211856448269
30
0
0
VERTEX
8
0
10
75.712
20
20.3291551553726
30
0
0
VERTEX
8
0
10
76.16
20
20.4369837728717
30
0
0
VERTEX
8
0
10
76.608
20
20.5446715588308
30
0
0
VERTEX
8
0
10
77.056
20
20.6522185749079
30
0
0
VERTEX
8
0
10
77.504
20
20.7620374058535
30
0
0
VERTEX
8
0
10
77.952
20
20.8717367851748
30
0
0
VERTEX
8
0
10
78.4
20
20.9812994363851
30
0
0
VERTEX
8
0
10
78.848
20
21.090725410375
30
0
0
VERTEX
8
0
10
79.296
20
21.200014758545
30
0
0
VERTEX
8
0
10
79.744
20
21.3091675327958
30
0
0
VERTEX
8
0
10
80.192
20
21.4163821670297
30
0
0
VERTEX
8
0
10
80.64
20
21.5236289886367
30
0
0
VERTEX
8
0
10
81.088
20
21.6307366254139
30
0
0
VERTEX
8
0
10
81.536
20
21.7377051413314
30
0
0
VERTEX
8
0
10
81.984
20
21.8445346005283
30
0
0
VERTEX
8
0
10
82.432
20
21.9512250673124
30
0
0
VERTEX
8
0
10
82.88
20
22.0577766061603
30
0
0
VERTEX
8
0
10
83.328
20
22.1641892817173
30
0
0
VERTEX
8
0
10
83.776
20
22.270463158798
30
0
0
VERTEX
8
0
10
84.224
20
22.376598302385
30
0
0
VERTEX
8
0
10
84.672
20
22.4825947776302
30
0
0
VERTEX
8
0
10
85.12
20
22.5884526498544
30
0
0
VERTEX
8
0
10
85.568
20
22.6985451394612
30
0
0
VERTEX
8
0
10
86.016
20
22.807421426116
30
0
0
VERTEX
8
0
10
86.464
20
22.9161657018039
30
0
0
VERTEX
8
0
10
86.912
20
23.0247780014137
30
0
0
VERTEX
8
0
10
87.36
20
23.1332583607731
30
0
0
VERTEX
8
0
10
87.808
20
23.2416068166293
30
0
0
VERTEX
8
0
10
88.256
20
23.345045080565
30
0
0
VERTEX
8
0
10
88.704
20
23.4498095879638
30
0
0
VERTEX
8
0
10
89.152
20
23.5544360856112
30
0
0
VERTEX
8
0
10
89.6
20
23.6589246407241
30
0
0
VERTEX
8
0
10
90.048
20
23.7632753206855
30
0
0
VERTEX
8
0
10
90.496
20
23.8720984223295
30
0
0
VERTEX
8
0
10
90.944
20
23.984499749181
30
0
0
VERTEX
8
0
10
91.392
20
24.0967856465986
30
0
0
VERTEX
8
0
10
91.84
20
24.2089560154807
30
0
0
VERTEX
8
0
10
92.288
20
24.3210107605737
30
0
0
VERTEX
8
0
10
92.736
20
24.4329497903793
30
0
0
VERTEX
8
0
10
93.184
20
24.542528314946
30
0
0
VERTEX
8
0
10
93.632
20
24.6508622563671
30
0
0
VERTEX
8
0
10
94.08
20
24.7590691075405
30
0
0
VERTEX
8
0
10
94.528
20
24.8671488889154
30
0
0
VERTEX
8
0
10
94.976
20
24.9751016222172
30
0
0
VERTEX
8
0
10
95.424
20
25.0829273304197
30
0
0
VERTEX
8
0
10
95.872
20
25.1912871160977
30
0
0
VERTEX
8
0
10
96.3200000000001
20
25.2997088880563
30
0
0
VERTEX
8
0
10
96.768
20
25.4080060940836
30
0
0
VERTEX
8
0
10
97.2160000000001
20
25.5161787442784
30
0
0
VERTEX
8
0
10
97.664
20
25.624226850232
30
0
0
VERTEX
8
0
10
98.1120000000001
20
25.7321504249965
30
0
0
VERTEX
8
0
10
98.56
20
25.8414757342029
30
0
0
VERTEX
8
0
10
99.0080000000001
20
25.9508662108844
30
0
0
VERTEX
8
0
10
99.456
20
26.0601374403436
30
0
0
VERTEX
8
0
10
99.9040000000001
20
26.1692894001495
30
0
0
VERTEX
8
0
10
100.352
20
26.2783220700119
30
0
0
VERTEX
8
0
10
100.8
20
26.3872354317368
30
0
0
VERTEX
8
0
10
101.248
20
26.4934264417787
30
0
0
VERTEX
8
0
10
101.696
20
26.5995023014367
30
0
0
VERTEX
8
0
10
102.144
20
26.7054515090808
30
0
0
VERTEX
8
0
10
102.592
20
26.8112741062244
30
0
0
VERTEX
8
0
10
103.04
20
26.9169701352518
30
0
0
VERTEX
8
0
10
103.488
20
27.0225396394053
30
0
0
VERTEX
8
0
10
103.936
20
27.1289544534697
30
0
0
VERTEX
8
0
10
104.384
20
27.2351434754319
30
0
0
VERTEX
8
0
10
104.832
20
27.3412082896364
30
0
0
VERTEX
8
0
10
105.28
20
27.4471489293854
30
0
0
VERTEX
8
0
10
105.728
20
27.5529654290249
30
0
0
VERTEX
8
0
10
106.176
20
27.6586578239266
30
0
0
VERTEX
8
0
10
106.624
20
27.763148193703
30
0
0
VERTEX
8
0
10
107.072
20
27.8677131864116
30
0
0
VERTEX
8
0
10
107.52
20
27.9721520579017
30
0
0
VERTEX
8
0
10
107.968
20
28.0764648595531
30
0
0
VERTEX
8
0
10
108.416
20
28.180651643455
30
0
0
VERTEX
8
0
10
108.864
20
28.2847124623966
30
0
0
VERTEX
8
0
10
109.312
20
28.3827264344071
30
0
0
VERTEX
8
0
10
109.76
20
28.4821133196356
30
0
0
VERTEX
8
0
10
110.208
20
28.5813667221914
30
0
0
VERTEX
8
0
10
110.656
20
28.6804867190389
30
0
0
VERTEX
8
0
10
111.104
20
28.779473387323
30
0
0
VERTEX
8
0
10
111.552
20
28.8783268043705
30
0
0
VERTEX
8
0
10
112
20
28.9796227275495
30
0
0
VERTEX
8
0
10
112.448
20
29.0799843475064
30
0
0
VERTEX
8
0
10
112.896
20
29.1802154738112
30
0
0
VERTEX
8
0
10
113.344
20
29.2803161827943
30
0
0
VERTEX
8
0
10
113.792
20
29.3802865510416
30
0
0
VERTEX
8
0
10
114.24
20
29.4796228499604
30
0
0
VERTEX
8
0
10
114.688
20
29.5784423184475
30
0
0
VERTEX
8
0
10
115.136
20
29.6771303333019
30
0
0
VERTEX
8
0
10
115.584
20
29.7756869738094
30
0
0
VERTEX
8
0
10
116.032
20
29.8741123194596
30
0
0
VERTEX
8
0
10
116.48
20
29.9724064499464
30
0
0
VERTEX
8
0
10
116.928
20
30.0687506893229
30
0
0
VERTEX
8
0
10
117.376
20
30.1641009905359
30
0
0
VERTEX
8
0
10
117.824
20
30.2593173337119
30
0
0
VERTEX
8
0
10
118.272
20
30.3543997927099
30
0
0
VERTEX
8
0
10
118.72
20
30.4493484416266
30
0
0
VERTEX
8
0
10
119.168
20
30.5441633547973
30
0
0
VERTEX
8
0
10
119.616
20
30.6388446067939
30
0
0
VERTEX
8
0
10
120.064
20
30.7333922724261
30
0
0
VERTEX
8
0
10
120.512
20
30.8278064267396
30
0
0
VERTEX
8
0
10
120.96
20
30.9220871450165
30
0
0
VERTEX
8
0
10
121.408
20
31.016234502775
30
0
0
VERTEX
8
0
10
121.856
20
31.1102485757684
30
0
0
VERTEX
8
0
10
122.304
20
31.1944025602597
30
0
0
VERTEX
8
0
10
122.752
20
31.2773890957341
30
0
0
VERTEX
8
0
10
123.2
20
31.3602452628772
30
0
0
VERTEX
8
0
10
123.648
20
31.4429709806574
30
0
0
VERTEX
8
0
10
124.096
20
31.5255661701022
30
0
0
VERTEX
8
0
10
124.544
20
31.6080307542687
30
0
0
VERTEX
8
0
10
124.992
20
31.6903646582133
30
0
0
VERTEX
8
0
10
125.44
20
31.7725678089636
30
0
0
VERTEX
8
0
10
125.888
20
31.8546401354887
30
0
0
VERTEX
8
0
10
126.336
20
31.9365815686723
30
0
0
VERTEX
8
0
10
126.784
20
32.018392041285
30
0
0
VERTEX
8
0
10
127.232
20
32.1000714879572
30
0
0
VERTEX
8
0
10
127.68
20
32.1796124779129
30
0
0
VERTEX
8
0
10
128.128
20
32.2592534764788
30
0
0
VERTEX
8
0
10
128.576
20
32.3387657152022
30
0
0
VERTEX
8
0
10
129.024
20
32.418149096308
30
0
0
VERTEX
8
0
10
129.472
20
32.4974035241876
30
0
0
VERTEX
8
0
10
129.92
20
32.5765289053687
30
0
0
VERTEX
8
0
10
130.368
20
32.6632171504781
30
0
0
VERTEX
8
0
10
130.816
20
32.7482771335428
30
0
0
VERTEX
8
0
10
131.264
20
32.8332025895683
30
0
0
VERTEX
8
0
10
131.712
20
32.9179935466712
30
0
0
VERTEX
8
0
10
132.16
20
33.0026500337348
30
0
0
VERTEX
8
0
10
132.608
20
33.0871720804019
30
0
0
VERTEX
8
0
10
133.056
20
33.165570779737
30
0
0
VERTEX
8
0
10
133.504
20
33.2454016740033
30
0
0
VERTEX
8
0
10
133.952
20
33.3251008697583
30
0
0
VERTEX
8
0
10
134.4
20
33.4046683273329
30
0
0
VERTEX
8
0
10
134.848
20
33.484104008543
30
0
0
VERTEX
8
0
10
135.296
20
33.5634078766697
30
0
0
VERTEX
8
0
10
135.744
20
33.6387020984161
30
0
0
VERTEX
8
0
10
136.192
20
33.7151005705629
30
0
0
VERTEX
8
0
10
136.64
20
33.7913704012592
30
0
0
VERTEX
8
0
10
137.088
20
33.8675115065107
30
0
0
VERTEX
8
0
10
137.536
20
33.9435238042388
30
0
0
SEQEND
8
0
0
POLYLINE
8
0
62
2
70
0
10
0
20
0
30
0
0
VERTEX
8
0
10
18.816
20
6.05923111503804
30
0
0
VERTEX
8
0
10
19.264
20
6.19446801943375
30
0
0
VERTEX
8
0
10
19.712
20
6.32956405705155
30
0
0
VERTEX
8
0
10
20.16
20
6.46452223550715
30
0
0
VERTEX
8
0
10
20.608
20
6.59934482208741
30
0
0
VERTEX
8
0
10
21.056
20
6.73403350964111
30
0
0
VERTEX
8
0
10
21.504
20
6.86858955168911
30
0
0
VERTEX
8
0
10
21.952
20
7.00301387037777
30
0
0
VERTEX
8
0
10
22.4
20
7.1373071435775
30
0
0
VERTEX
8
0
10
22.848
20
7.27146987351753
30
0
0
VERTEX
8
0
10
23.296
20
7.40550244099961
30
0
0
VERTEX
8
0
10
23.744
20
7.53940514779904
30
0
0
VERTEX
8
0
10
24.192
20
7.67317824883852
30
0
0
VERTEX
8
0
10
24.64
20
7.80682197702474
30
0
0
VERTEX
8
0
10
25.088
20
7.94033656175014
30
0
0
VERTEX
8
0
10
25.536
20
8.07372224213783
30
0
0
VERTEX
8
0
10
25.984
20
8.20697927640934
30
0
0
VERTEX
8
0
10
26.432
20
8.34010794853507
30
0
0
VERTEX
8
0
10
26.88
20
8.47310857179093
30
0
0
VERTEX
8
0
10
27.328
20
8.60598149114443
30
0
0
VERTEX
8
0
10
27.776
20
8.73872708374053
30
0
0
VERTEX
8
0
10
28.224
20
8.87134575894948
30
0
0
VERTEX
8
0
10
28.672
20
9.00383795706211
30
0
0
VERTEX
8
0
10
29.12
20
9.13620414782889
30
0
0
VERTEX
8
0
10
29.568
20
9.26844482891146
30
0
0
VERTEX
8
0
10
30.016
20
9.40056052345202
30
0
0
VERTEX
8
0
10
30.464
20
9.5325517784885
30
0
0
VERTEX
8
0
10
30.912
20
9.66441916247768
30
0
0
VERTEX
8
0
10
31.36
20
9.7961632636039
30
0
0
VERTEX
8
0
10
31.808
20
9.9277846876788
30
0
0
VERTEX
8
0
10
32.256
20
10.0592840566068
30
0
0
VERTEX
8
0
10
32.704
20
10.1906620065859
30
0
0
VERTEX
8
0
10
33.152
20
10.3219191868045
30
0
0
VERTEX
8
0
10
33.6
20
10.453056258081
30
0
0
VERTEX
8
0
10
34.048
20
10.584073891838
30
0
0
VERTEX
8
0
10
34.496
20
10.7149727691477
30
0
0
VERTEX
8
0
10
34.944
20
10.8457535798946
30
0
0
VERTEX
8
0
10
35.392
20
10.9764170220894
30
0
0
VERTEX
8
0
10
35.84
20
11.106963801503
30
0
0
VERTEX
8
0
10
36.288
20
11.2373946312334
30
0
0
VERTEX
8
0
10
36.736
20
11.367710231356
30
0
0
VERTEX
8
0
10
37.184
20
11.4979113289568
30
0
0
VERTEX
8
0
10
37.632
20
11.6279986579288
30
0
0
VERTEX
8
0
10
38.08
20
11.7579729591071
30
0
0
VERTEX
8
0
10
38.528
20
11.8878349802847
30
0
0
VERTEX
8
0
10
38.976
20
12.0175854767178
30
0
0
VERTEX
8
0
10
39.424
20
12.1472252109473
30
0
0
VERTEX
8
0
10
39.872
20
12.2767549536329
30
0
0
VERTEX
8
0
10
40.32
20
12.406175483601
30
0
0
VERTEX
8
0
10
40.768
20
12.5354875884378
30
0
0
VERTEX
8
0
10
41.216
20
12.6646920649995
30
0
0
VERTEX
8
0
10
41.664
20
12.793789719973
30
0
0
VERTEX
8
0
10
42.112
20
12.9227813704941
30
0
0
VERTEX
8
0
10
42.56
20
13.0516678446504
30
0
0
VERTEX
8
0
10
43.008
20
13.1804499823531
30
0
0
VERTEX
8
0
10
43.456
20
13.309128635883
30
0
0
VERTEX
8
0
10
43.904
20
13.4377046707572
30
0
0
VERTEX
8
0
10
44.352
20
13.5661789664427
30
0
0
VERTEX
8
0
10
44.8
20
13.6945524171688
30
0
0
VERTEX
8
0
10
45.248
20
13.822825932778
30
0
0
VERTEX
8
0
10
45.696
20
13.9510004396475
30
0
0
VERTEX
8
0
10
46.144
20
14.0790768815864
30
0
0
VERTEX
8
0
10
46.592
20
14.207056220655
30
0
0
VERTEX
8
0
10
47.04
20
14.3349394383869
30
0
0
VERTEX
8
0
10
47.488
20
14.4627275365505
30
0
0
VERTEX
8
0
10
47.936
20
14.5904215382641
30
0
0
VERTEX
8
0
10
48.384
20
14.7180224892881
30
0
0
VERTEX
8
0
10
48.832
20
14.8455314588884
30
0
0
VERTEX
8
0
10
49.28
20
14.9729495410921
30
0
0
VERTEX
8
0
10
49.728
20
15.1002778559696
30
0
0
VERTEX
8
0
10
50.176
20
15.227517550751
30
0
0
VERTEX
8
0
10
50.624
20
15.3546698012123
30
0
0
VERTEX
8
0
10
51.072
20
15.4817358131455
30
0
0
VERTEX
8
0
10
51.52
20
15.6087168235841
30
0
0
VERTEX
8
0
10
51.968
20
15.735614102301
30
0
0
VERTEX
8
0
10
52.416
20
15.862428953509
30
0
0
VERTEX
8
0
10
52.864
20
15.9891627171483
30
0
0
VERTEX
8
0
10
53.312
20
16.1158167709602
30
0
0
VERTEX
8
0
10
53.76
20
16.2423925318657
30
0
0
VERTEX
8
0
10
54.208
20
16.3688914579991
30
0
0
VERTEX
8
0
10
54.656
20
16.4953150505542
30
0
0
VERTEX
8
0
10
55.104
20
16.6216648558068
30
0
0
VERTEX
8
0
10
55.552
20
16.747942467125
30
0
0
VERTEX
8
0
10
56
20
16.8741495273584
30
0
0
VERTEX
8
0
10
56.448
20
17.0002877309079
30
0
0
VERTEX
8
0
10
56.896
20
17.1263588264508
30
0
0
VERTEX
8
0
10
57.344
20
17.2523646192098
30
0
0
VERTEX
8
0
10
57.792
20
17.3783069738605
30
0
0
VERTEX
8
0
10
58.24
20
17.5041878173544
30
0
0
VERTEX
8
0
10
58.688
20
17.6300091418138
30
0
0
VERTEX
8
0
10
59.136
20
17.755773007884
30
0
0
VERTEX
8
0
10
59.584
20
17.8814815479409
30
0
0
VERTEX
8
0
10
60.032
20
18.0071369697962
30
0
0
VERTEX
8
0
10
60.48
20
18.1327415604038
30
0
0
VERTEX
8
0
10
60.928
20
18.2582976898804
30
0
0
VERTEX
8
0
10
61.376
20
18.3838078157765
30
0
0
VERTEX
8
0
10
61.824
20
18.5092744875873
30
0
0
VERTEX
8
0
10
62.272
20
18.6347003517118
30
0
0
VERTEX
8
0
10
62.72
20
18.7600881564126
30
0
0
VERTEX
8
0
10
63.168
20
18.8854407574248
30
0
0
VERTEX
8
0
10
63.616
20
19.0107611238388
30
0
0
VERTEX
8
0
10
64.064
20
19.1360523442833
30
0
0
VERTEX
8
0
10
64.512
20
19.2613176337529
30
0
0
VERTEX
8
0
10
64.96
20
19.3865603407559
30
0
0
VERTEX
8
0
10
65.408
20
19.5117839550919
30
0
0
VERTEX
8
0
10
65.856
20
19.6369921161376
30
0
0
VERTEX
8
0
10
66.304
20
19.7621886218484
30
0
0
VERTEX
8
0
10
66.752
20
19.8873774383661
30
0
0
VERTEX
8
0
10
67.2
20
20.0125627105026
30
0
0
VERTEX
8
0
10
67.648
20
20.1377487730208
30
0
0
VERTEX
8
0
10
68.096
20
20.2629401626692
30
0
0
VERTEX
8
0
10
68.544
20
20.3881416317695
30
0
0
VERTEX
8
0
10
68.992
20
20.513358162274
30
0
0
VERTEX
8
0
10
69.44
20
20.6385949815637
30
0
0
VERTEX
8
0
10
69.888
20
20.7638575795269
30
0
0
VERTEX
8
0
10
70.336
20
20.889151727217
30
0
0
VERTEX
8
0
10
70.784
20
21.0144834972701
30
0
0
VERTEX
8
0
10
71.232
20
21.1398592861351
30
0
0
VERTEX
8
0
10
71.68
20
21.2652858389793
30
0
0
VERTEX
8
0
10
72.128
20
21.3907702765031
30
0
0
VERTEX
8
0
10
72.576
20
21.5163201250904
30
0
0
VERTEX
8
0
10
73.024
20
21.6419433497832
30
0
0
VERTEX
8
0
10
73.472
20
21.7676483910395
30
0
0
VERTEX
8
0
10
73.92
20
21.893444205792
30
0
0
VERTEX
8
0
10
74.368
20
22.0193403129267
30
0
0
VERTEX
8
0
10
74.816
20
22.1453468444629
30
0
0
VERTEX
8
0
10
75.264
20
22.2714746028584
30
0
0
VERTEX
8
0
10
75.712
20
22.3977351256258
30
0
0
VERTEX
8
0
10
76.16
20
22.5241407584054
30
0
0
VERTEX
8
0
10
76.608
20
22.6507047379525
30
0
0
VERTEX
8
0
10
77.056
20
22.7774412865461
30
0
0
VERTEX
8
0
10
77.504
20
22.9043657200848
30
0
0
VERTEX
8
0
10
77.952
20
23.0314945725196
30
0
0
VERTEX
8
0
10
78.4
20
23.1588457394317
30
0
0
VERTEX
8
0
10
78.848
20
23.2864386448319
30
0
0
VERTEX
8
0
10
79.296
20
23.4142944361123
30
0
0
VERTEX
8
0
10
79.744
20
23.5424362131173
30
0
0
VERTEX
8
0
10
80.192
20
23.6708892990519
30
0
0
VERTEX
8
0
10
80.64
20
23.7996815635718
30
0
0
VERTEX
8
0
10
81.088
20
23.9288438108584
30
0
0
VERTEX
8
0
10
81.536
20
24.0584102496675
30
0
0
VERTEX
8
0
10
81.984
20
24.1884190685854
30
0
0
VERTEX
8
0
10
82.432
20
24.3189131471143
30
0
0
VERTEX
8
0
10
82.88
20
24.4499409451291
30
0
0
VERTEX
8
0
10
83.328
20
24.5815576301887
30
0
0
VERTEX
8
0
10
83.776
20
24.7138265276303
30
0
0
VERTEX
8
0
10
84.224
20
24.8468210170226
30
0
0
VERTEX
8
0
10
84.672
20
24.9806270613272
30
0
0
VERTEX
8
0
10
85.12
20
25.1153466544904
30
0
0
VERTEX
8
0
10
85.568
20
25.2511026457685
30
0
0
VERTEX
8
0
10
86.016
20
25.388045701772
30
0
0
VERTEX
8
0
10
86.464
20
25.5263647321226
30
0
0
VERTEX
8
0
10
86.912
20
25.6663032183189
30
0
0
VERTEX
8
0
10
87.36
20
25.8081861875893
30
0
0
VERTEX
8
0
10
87.808
20
25.9524674134188
30
0
0
VERTEX
8
0
10
88.256
20
26.0998151922416
30
0
0
VERTEX
8
0
10
88.704
20
26.2512545421621
30
0
0
VERTEX
8
0
10
89.152
20
26.4082107930326
30
0
0
VERTEX
8
0
10
89.6
20
26.5710421164669
30
0
0
VERTEX
8
0
10
90.048
20
26.7343600106223
30
0
0
VERTEX
8
0
10
90.496
20
26.8911273359414
30
0
0
VERTEX
8
0
10
90.944
20
27.0406435960975
30
0
0
VERTEX
8
0
10
91.392
20
27.1844792186167
30
0
0
VERTEX
8
0
10
91.84
20
27.3238972790291
30
0
0
VERTEX
8
0
10
92.288
20
27.45972718855
30
0
0
VERTEX
8
0
10
92.736
20
27.5925289345401
30
0
0
VERTEX
8
0
10
93.184
20
27.7227019994586
30
0
0
VERTEX
8
0
10
93.632
20
27.8505453905605
30
0
0
VERTEX
8
0
10
94.08
20
27.9762915057126
30
0
0
VERTEX
8
0
10
94.528
20
28.1001263594669
30
0
0
VERTEX
8
0
10
94.976
20
28.2222023561169
30
0
0
VERTEX
8
0
10
95.424
20
28.3426467483044
30
0
0
VERTEX
8
0
10
95.872
20
28.4615674633036
30
0
0
VERTEX
8
0
10
96.3200000000001
20
28.5790572492674
30
0
0
VERTEX
8
0
10
96.768
20
28.6951967078736
30
0
0
VERTEX
8
0
10
97.2160000000001
20
28.8100565645647
30
0
0
VERTEX
8
0
10
97.664
20
28.9236994030626
30
0
0
VERTEX
8
0
10
98.1120000000001
20
29.0361810132619
30
0
0
VERTEX
8
0
10
98.56
20
29.1475514553293
30
0
0
VERTEX
8
0
10
99.0080000000001
20
29.257855911022
30
0
0
VERTEX
8
0
10
99.456
20
29.3671353732416
30
0
0
VERTEX
8
0
10
99.9040000000001
20
29.4754272104311
30
0
0
VERTEX
8
0
10
100.352
20
29.582765633317
30
0
0
VERTEX
8
0
10
100.8
20
29.6891820842011
30
0
0
VERTEX
8
0
10
101.248
20
29.7947055642547
30
0
0
VERTEX
8
0
10
101.696
20
29.8993629109041
30
0
0
VERTEX
8
0
10
102.144
20
30.0031790343461
30
0
0
VERTEX
8
0
10
102.592
20
30.1061771206003
30
0
0
VERTEX
8
0
10
103.04
20
30.2083788067416
30
0
0
VERTEX
8
0
10
103.488
20
30.3098043331004
30
0
0
VERTEX
8
0
10
103.936
20
30.4104726758384
30
0
0
VERTEX
8
0
10
104.384
20
30.5104016634263
30
0
0
VERTEX
8
0
10
104.832
20
30.6096080787859
30
0
0
VERTEX
8
0
10
105.28
20
30.7081077498325
30
0
0
VERTEX
8
0
10
105.728
20
30.8059156298377
30
0
0
VERTEX
8
0
10
106.176
20
30.9030458686933
30
0
0
VERTEX
8
0
10
106.624
20
30.9995118767921
30
0
0
VERTEX
8
0
10
107.072
20
31.0953263823076
30
0
0
VERTEX
8
0
10
107.52
20
31.1905014824755
30
0
0
VERTEX
8
0
10
107.968
20
31.2850486900293
30
0
0
VERTEX
8
0
10
108.416
20
31.3789789750738
30
0
0
VERTEX
8
0
10
108.864
20
31.4723028030493
30
0
0
VERTEX
8
0
10
109.312
20
31.5650301692032
30
0
0
VERTEX
8
0
10
109.76
20
31.6571706300012
30
0
0
VERTEX
8
0
10
110.208
20
31.7487333317709
30
0
0
VERTEX
8
0
10
110.656
20
31.8397270369175
30
0
0
VERTEX
8
0
10
111.104
20
31.9301601479304
30
0
0
VERTEX
8
0
10
111.552
20
32.0200407293923
30
0
0
VERTEX
8
0
10
112
20
32.1093765283181
30
0
0
VERTEX
8
0
10
112.448
20
32.1981749927701
30
0
0
VERTEX
8
0
10
112.896
20
32.2864432891134
30
0
0
VERTEX
8
0
10
113.344
20
32.3741883179908
30
0
0
VERTEX
8
0
10
113.792
20
32.4614167289957
30
0
0
VERTEX
8
0
10
114.24
20
32.5481349344279
30
0
0
VERTEX
8
0
10
114.688
20
32.6343491219302
30
0
0
VERTEX
8
0
10
115.136
20
32.7200652663749
30
0
0
VERTEX
8
0
10
115.584
20
32.8052891407767
30
0
0
VERTEX
8
0
10
116.032
20
32.8900263266076
30
0
0
VERTEX
8
0
10
116.48
20
32.9742822233164
30
0
0
VERTEX
8
0
10
116.928
20
33.0580620572987
30
0
0
VERTEX
8
0
10
117.376
20
33.1413708902626
30
0
0
VERTEX
8
0
10
117.824
20
33.2242136270498
30
0
0
VERTEX
8
0
10
118.272
20
33.3065950229704
30
0
0
VERTEX
8
0
10
118.72
20
33.3885196907531
30
0
0
VERTEX
8
0
10
119.168
20
33.4699921069273
30
0
0
VERTEX
8
0
10
119.616
20
33.5510166180293
30
0
0
VERTEX
8
0
10
120.064
20
33.6315974462743
30
0
0
VERTEX
8
0
10
120.512
20
33.711738694897
30
0
0
VERTEX
8
0
10
120.96
20
33.7914443533809
30
0
0
VERTEX
8
0
10
121.408
20
33.8707183021803
30
0
0
VERTEX
8
0
10
121.856
20
33.9495643172434
30
0
0
VERTEX
8
0
10
122.304
20
34.0279860744177
30
0
0
VERTEX
8
0
10
122.752
20
34.1059871533665
30
0
0
VERTEX
8
0
10
123.2
20
34.1835710415427
30
0
0
VERTEX
8
0
10
123.648
20
34.26074113772
30
0
0
VERTEX
8
0
10
124.096
20
34.3375007555561
30
0
0
VERTEX
8
0
10
124.544
20
34.4138531268155
30
0
0
VERTEX
8
0
10
124.992
20
34.4898014044517
30
0
0
VERTEX
8
0
10
125.44
20
34.5653486656634
30
0
0
VERTEX
8
0
10
125.888
20
34.64049791458
30
0
0
VERTEX
8
0
10
126.336
20
34.715252085053
30
0
0
VERTEX
8
0
10
126.784
20
34.7896140431446
30
0
0
VERTEX
8
0
10
127.232
20
34.8635865895297
30
0
0
VERTEX
8
0
10
127.68
20
34.937172461886
30
0
0
VERTEX
8
0
10
128.128
20
35.0103743370351
30
0
0
VERTEX
8
0
10
128.576
20
35.0831948330744
30
0
0
VERTEX
8
0
10
129.024
20
35.1556365113514
30
0
0
VERTEX
8
0
10
129.472
20
35.2277018784414
30
0
0
VERTEX
8
0
10
129.92
20
35.2993933879252
30
0
0
VERTEX
8
0
10
130.368
20
35.3707134421731
30
0
0
VERTEX
8
0
10
130.816
20
35.4416643940017
30
0
0
VERTEX
8
0
10
131.264
20
35.5122485482925
30
0
0
VERTEX
8
0
10
131.712
20
35.582468163537
30
0
0
VERTEX
8
0
10
132.16
20
35.652325453275
30
0
0
VERTEX
8
0
10
132.608
20
35.7218225875328
30
0
0
VERTEX
8
0
10
133.056
20
35.7909616941819
30
0
0
VERTEX
8
0
10
133.504
20
35.8597448602051
30
0
0
VERTEX
8
0
10
133.952
20
35.9281741329613
30
0
0
VERTEX
8
0
10
134.4
20
35.9962515214001
30
0
0
VERTEX
8
0
10
134.848
20
36.0639789971741
30
0
0
VERTEX
8
0
10
135.296
20
36.1313584957364
30
0
0
VERTEX
8
0
10
135.744
20
36.1983919174535
30
0
0
VERTEX
8
0
10
136.192
20
36.2650811285772
30
0
0
VERTEX
8
0
10
136.64
20
36.3314279622218
30
0
0
VERTEX
8
0
10
137.088
20
36.3974342193659
30
0
0
VERTEX
8
0
10
137.536
20
36.4631016696772
30
0
0
SEQEND
8
0
0
POLYLINE
8
0
62
3
70
0
10
0
20
0
30
0
0
VERTEX
8
0
10
18.816
20
12.2204261414288
30
0
0
VERTEX
8
0
10
19.264
20
12.5054010526739
30
0
0
VERTEX
8
0
10
19.712
20
12.79022486373
30
0
0
VERTEX
8
0
10
20.16
20
13.0748979527993
30
0
0
VERTEX
8
0
10
20.608
20
13.3594203407261
30
0
0
VERTEX
8
0
10
21.056
20
13.6437917737665
30
0
0
VERTEX
8
0
10
21.504
20
13.928011790707
30
0
0
VERTEX
8
0
10
21.952
20
14.2120797762501
30
0
0
VERTEX
8
0
10
22.4
20
14.4959950038825
30
0
0
VERTEX
8
0
10
22.848
20
14.7797566694779
30
0
0
VERTEX
8
0
10
23.296
20
15.0633639176878
30
0
0
VERTEX
8
0
10
23.744
20
15.3468158624483
30
0
0
VERTEX
8
0
10
24.192
20
15.6301116024136
30
0
0
VERTEX
8
0
10
24.64
20
15.9132502327663
30
0
0
VERTEX
8
0
10
25.088
20
16.1962308539095
30
0
0
VERTEX
8
0
10
25.536
20
16.4790525775866
30
0
0
VERTEX
8
0
10
25.984
20
16.7617145311108
30
0
0
VERTEX
8
0
10
26.432
20
17.0442158602832
30
0
0
VERTEX
8
0
10
26.88
20
17.3265557308134
30
0
0
VERTEX
8
0
10
27.328
20
17.6087333291923
30
0
0
VERTEX
8
0
10
27.776
20
17.8907478626556
30
0
0
VERTEX
8
0
10
28.224
20
18.1725985589575
30
0
0
VERTEX
8
0
10
28.672
20
18.4542846655035
30
0
0
VERTEX
8
0
10
29.12
20
18.7358054484286
30
0
0
VERTEX
8
0
10
29.568
20
19.0171601916524
30
0
0
VERTEX
8
0
10
30.016
20
19.2983481955206
30
0
0
VERTEX
8
0
10
30.464
20
19.5793687758772
30
0
0
VERTEX
8
0
10
30.912
20
19.8602212627151
30
0
0
VERTEX
8
0
10
31.36
20
20.1409049992256
30
0
0
VERTEX
8
0
10
31.808
20
20.421419340659
30
0
0
VERTEX
8
0
10
32.256
20
20.7017636534739
30
0
0
VERTEX
8
0
10
32.704
20
20.9819373143665
30
0
0
VERTEX
8
0
10
33.152
20
21.2619397095511
30
0
0
VERTEX
8
0
10
33.6
20
21.5417702340199
30
0
0
VERTEX
8
0
10
34.048
20
21.8214282909742
30
0
0
VERTEX
8
0
10
34.496
20
22.1009132912958
30
0
0
VERTEX
8
0
10
34.944
20
22.3802246530808
30
0
0
VERTEX
8
0
10
35.392
20
22.6593618012523
30
0
0
VERTEX
8
0
10
35.84
20
22.9383241673334
30
0
0
VERTEX
8
0
10
36.288
20
23.2171111891914
30
0
0
VERTEX
8
0
10
36.736
20
23.495722310825
30
0
0
VERTEX
8
0
10
37.184
20
23.7741569823426
30
0
0
VERTEX
8
0
10
37.632
20
24.0524146598256
30
0
0
VERTEX
8
0
10
38.08
20
24.3304948053606
30
0
0
VERTEX
8
0
10
38.528
20
24.6083968870155
30
0
0
VERTEX
8
0
10
38.976
20
24.8861203790538
30
0
0
VERTEX
8
0
10
39.424
20
25.1636647618197
30
0
0
VERTEX
8
0
10
39.872
20
25.4410295221159
30
0
0
VERTEX
8
0
10
40.32
20
25.7182141532008
30
0
0
VERTEX
8
0
10
40.768
20
25.9952181550512
30
0
0
VERTEX
8
0
10
41.216
20
26.272041034586
30
0
0
VERTEX
8
0
10
41.664
20
26.548682305916
30
0
0
VERTEX
8
0
10
42.112
20
26.8251414906197
30
0
0
VERTEX
8
0
10
42.56
20
27.1014181179676
30
0
0
VERTEX
8
0
10
43.008
20
27.3775117253221
30
0
0
VERTEX
8
0
10
43.456
20
27.6534218583827
30
0
0
VERTEX
8
0
10
43.904
20
27.9291480715857
30
0
0
VERTEX
8
0
10
44.352
20
28.2046899284302
30
0
0
VERTEX
8
0
10
44.8
20
28.4800470018527
30
0
0
VERTEX
8
0
10
45.248
20
28.7552188746201
30
0
0
VERTEX
8
0
10
45.696
20
29.0302051397575
30
0
0
VERTEX
8
0
10
46.144
20
29.3050054009638
30
0
0
VERTEX
8
0
10
46.592
20
29.5796192729907
30
0
0
VERTEX
8
0
10
47.04
20
29.8540463822156
30
0
0
VERTEX
8
0
10
47.488
20
30.1282863669925
30
0
0
VERTEX
8
0
10
47.936
20
30.4023388781735
30
0
0
VERTEX
8
0
10
48.384
20
30.6762035797172
30
0
0
VERTEX
8
0
10
48.832
20
30.9498801490875
30
0
0
VERTEX
8
0
10
49.28
20
31.2233682778444
30
0
0
VERTEX
8
0
10
49.728
20
31.4966676722457
30
0
0
VERTEX
8
0
10
50.176
20
31.7697780537699
30
0
0
VERTEX
8
0
10
50.624
20
32.0426991597686
30
0
0
VERTEX
8
0
10
51.072
20
32.3154307441595
30
0
0
VERTEX
8
0
10
51.52
20
32.5879725780017
30
0
0
VERTEX
8
0
10
51.968
20
32.8603244502013
30
0
0
VERTEX
8
0
10
52.416
20
33.1324861683164
30
0
0
VERTEX
8
0
10
52.864
20
33.4044575591603
30
0
0
VERTEX
8
0
10
53.312
20
33.6762384697863
30
0
0
VERTEX
8
0
10
53.76
20
33.9478287681358
30
0
0
VERTEX
8
0
10
54.208
20
34.2192283440023
30
0
0
VERTEX
8
0
10
54.656
20
34.4904371099046
30
0
0
VERTEX
8
0
10
55.104
20
34.7614550020459
30
0
0
VERTEX
8
0
10
55.552
20
35.0322819812653
30
0
0
VERTEX
8
0
10
56
20
35.3029180341738
30
0
0
VERTEX
8
0
10
56.448
20
35.5733631741339
30
0
0
VERTEX
8
0
10
56.896
20
35.8436174425568
30
0
0
VERTEX
8
0
10
57.344
20
36.1136809099779
30
0
0
VERTEX
8
0
10
57.792
20
36.3835536774416
30
0
0
VERTEX
8
0
10
58.24
20
36.6532358778441
30
0
0
VERTEX
8
0
10
58.688
20
36.92272767731
30
0
0
VERTEX
8
0
10
59.136
20
37.1920292767911
30
0
0
VERTEX
8
0
10
59.584
20
37.461140913593
30
0
0
VERTEX
8
0
10
60.032
20
37.7300628631433
30
0
0
VERTEX
8
0
10
60.48
20
37.9987954407583
30
0
0
VERTEX
8
0
10
60.928
20
38.2673390035621
30
0
0
VERTEX
8
0
10
61.376
20
38.5356939525262
30
0
0
VERTEX
8
0
10
61.824
20
38.8038607346236
30
0
0
VERTEX
8
0
10
62.272
20
39.0718398451992
30
0
0
VERTEX
8
0
10
62.72
20
39.3396318303401
30
0
0
VERTEX
8
0
10
63.168
20
39.607237289559
30
0
0
VERTEX
8
0
10
63.616
20
39.8746568786083
30
0
0
VERTEX
8
0
10
64.064
20
40.1418913124395
30
0
0
VERTEX
8
0
10
64.512
20
40.4089413684734
30
0
0
VERTEX
8
0
10
64.96
20
40.6758078900225
30
0
0
VERTEX
8
0
10
65.408
20
40.9424917900192
30
0
0
VERTEX
8
0
10
65.856
20
41.2089940549868
30
0
0
VERTEX
8
0
10
66.304
20
41.4753157493569
30
0
0
VERTEX
8
0
10
66.752
20
41.7414580200764
30
0
0
VERTEX
8
0
10
67.2
20
42.0074221016402
30
0
0
VERTEX
8
0
10
67.648
20
42.2732093215047
30
0
0
VERTEX
8
0
10
68.096
20
42.5388211058659
30
0
0
VERTEX
8
0
10
68.544
20
42.8042589861872
30
0
0
VERTEX
8
0
10
68.992
20
43.0695246059518
30
0
0
VERTEX
8
0
10
69.44
20
43.3346197282557
30
0
0
VERTEX
8
0
10
69.888
20
43.5995462440179
30
0
0
VERTEX
8
0
10
70.336
20
43.8643061809524
30
0
0
VERTEX
8
0
10
70.784
20
44.1289017133889
30
0
0
VERTEX
8
0
10
71.232
20
44.3933351729689
30
0
0
VERTEX
8
0
10
71.68
20
44.6576090606312
30
0
0
VERTEX
8
0
10
72.128
20
44.9217260595201
30
0
0
VERTEX
8
0
10
72.576
20
45.1856890495038
30
0
0
VERTEX
8
0
10
73.024
20
45.4495011230555
30
0
0
VERTEX
8
0
10
73.472
20
45.7131656029603
30
0
0
VERTEX
8
0
10
73.92
20
45.9766860621011
30
0
0
VERTEX
8
0
10
74.368
20
46.2400663453764
30
0
0
VERTEX
8
0
10
74.816
20
46.5033105943741
30
0
0
VERTEX
8
0
10
75.264
20
46.7664232750016
30
0
0
VERTEX
8
0
10
75.712
20
47.0294092086496
30
0
0
VERTEX
8
0
10
76.16
20
47.2922736074415
30
0
0
VERTEX
8
0
10
76.608
20
47.5550221142715
30
0
0
VERTEX
8
0
10
77.056
20
47.8176608483631
30
0
0
VERTEX
8
0
10
77.504
20
48.0801964574444
30
0
0
VERTEX
8
0
10
77.952
20
48.3426361778138
30
0
0
VERTEX
8
0
10
78.4
20
48.6049879036653
30
0
0
VERTEX
8
0
10
78.848
20
48.8672602676353
30
0
0
VERTEX
8
0
10
79.296
20
49.1294627349606
30
0
0
VERTEX
8
0
10
79.744
20
49.3916057141297
30
0
0
VERTEX
8
0
10
80.192
20
49.6537006877642
30
0
0
VERTEX
8
0
10
80.64
20
49.9157603687272
30
0
0
VERTEX
8
0
10
81.088
20
50.1777988876568
30
0
0
VERTEX
8
0
10
81.536
20
50.4398320201334
30
0
0
VERTEX
8
0
10
81.984
20
50.7018774647217
30
0
0
VERTEX
8
0
10
82.432
20
50.963955186694
30
0
0
VERTEX
8
0
10
82.88
20
51.2260878480057
30
0
0
VERTEX
8
0
10
83.328
20
51.4883013522842
30
0
0
VERTEX
8
0
10
83.776
20
51.7506255458995
30
0
0
VERTEX
8
0
10
84.224
20
52.0130951348609
30
0
0
VERTEX
8
0
10
84.672
20
52.2757509076296
30
0
0
VERTEX
8
0
10
85.12
20
52.538641401969
30
0
0
VERTEX
8
0
10
85.568
20
52.8018252373599
30
0
0
VERTEX
8
0
10
86.016
20
53.065374480756
30
0
0
VERTEX
8
0
10
86.464
20
53.3293796863722
30
0
0
VERTEX
8
0
10
86.912
20
53.5939577879832
30
0
0
VERTEX
8
0
10
87.36
20
53.8592651328134
30
0
0
VERTEX
8
0
10
87.808
20
54.1255202748937
30
0
0
VERTEX
8
0
10
88.256
20
54.3930453266089
30
0
0
VERTEX
8
0
10
88.704
20
54.6623341040684
30
0
0
VERTEX
8
0
10
89.152
20
54.9340700217201
30
0
0
VERTEX
8
0
10
89.6
20
55.2084022923838
30
0
0
VERTEX
8
0
10
90.048
20
55.4826535953112
30
0
0
VERTEX
8
0
10
90.496
20
55.7533252267245
30
0
0
VERTEX
8
0
10
90.944
20
56.0200255665809
30
0
0
VERTEX
8
0
10
91.392
20
56.2834969156615
30
0
0
VERTEX
8
0
10
91.84
20
56.5443450228202
30
0
0
VERTEX
8
0
10
92.288
20
56.8029696086814
30
0
0
VERTEX
8
0
10
92.736
20
57.0596415251858
30
0
0
VERTEX
8
0
10
93.184
20
57.3145547096571
30
0
0
VERTEX
8
0
10
93.632
20
57.5678549162586
30
0
0
VERTEX
8
0
10
94.08
20
57.8196559395008
30
0
0
VERTEX
8
0
10
94.528
20
58.0700493053107
30
0
0
VERTEX
8
0
10
94.976
20
58.3191103910708
30
0
0
VERTEX
8
0
10
95.424
20
58.5669024784165
30
0
0
VERTEX
8
0
10
95.872
20
58.8134795449159
30
0
0
VERTEX
8
0
10
96.3200000000001
20
59.0588882509654
30
0
0
VERTEX
8
0
10
96.768
20
59.3031693932985
30
0
0
VERTEX
8
0
10
97.2160000000001
20
59.5463589933476
30
0
0
VERTEX
8
0
10
97.664
20
59.7884891290489
30
0
0
VERTEX
8
0
10
98.1120000000001
20
60.0295885814865
30
0
0
VERTEX
8
0
10
98.56
20
60.2696833456285
30
0
0
VERTEX
8
0
10
99.0080000000001
20
60.5087970391566
30
0
0
VERTEX
8
0
10
99.456
20
60.7469512338148
30
0
0
VERTEX
8
0
10
99.9040000000001
20
60.9841657268045
30
0
0
VERTEX
8
0
10
100.352
20
61.2204587653945
30
0
0
VERTEX
8
0
10
100.8
20
61.4558472344199
30
0
0
VERTEX
8
0
10
101.248
20
61.69034681406
30
0
0
VERTEX
8
0
10
101.696
20
61.9239721136963
30
0
0
VERTEX
8
0
10
102.144
20
62.1567367861657
30
0
0
VERTEX
8
0
10
102.592
20
62.3886536259629
30
0
0
VERTEX
8
0
10
103.04
20
62.6197346540908
30
0
0
VERTEX
8
0
10
103.488
20
62.8499911918542
30
0
0
VERTEX
8
0
10
103.936
20
63.0794339252248
30
0
0
VERTEX
8
0
10
104.384
20
63.3080729614743
30
0
0
VERTEX
8
0
10
104.832
20
63.5359178789081
30
0
0
VERTEX
8
0
10
105.28
20
63.7629777710243
30
0
0
VERTEX
8
0
10
105.728
20
63.9892612857689
30
0
0
VERTEX
8
0
10
106.176
20
64.2147766604078
30
0
0
VERTEX
8
0
10
106.624
20
64.43953175284
30
0
0
VERTEX
8
0
10
107.072
20
64.6635340697269
30
0
0
VERTEX
8
0
10
107.52
20
64.8867907917235
30
0
0
VERTEX
8
0
10
107.968
20
65.1093087963692
30
0
0
VERTEX
8
0
10
108.416
20
65.3310946787722
30
0
0
VERTEX
8
0
10
108.864
20
65.5521547704006
30
0
0
VERTEX
8
0
10
109.312
20
65.7724951561802
30
0
0
VERTEX
8
0
10
109.76
20
65.992121690111
30
0
0
VERTEX
8
0
10
110.208
20
66.2110400095354
30
0
0
VERTEX
8
0
10
110.656
20
66.4292555482288
30
0
0
VERTEX
8
0
10
111.104
20
66.6467735484153
30
0
0
VERTEX
8
0
10
111.552
20
66.8635990718076
30
0
0
VERTEX
8
0
10
112
20
67.0797370098354
30
0
0
VERTEX
8
0
10
112.448
20
67.2951920930295
30
0
0
VERTEX
8
0
10
112.896
20
67.5099688997405
30
0
0
VERTEX
8
0
10
113.344
20
67.7240718642329
30
0
0
VERTEX
8
0
10
113.792
20
67.9375052841376
30
0
0
VERTEX
8
0
10
114.24
20
68.1502733274558
30
0
0
VERTEX
8
0
10
114.688
20
68.3623800390121
30
0
0
VERTEX
8
0
10
115.136
20
68.5738293465379
30
0
0
VERTEX
8
0
10
115.584
20
68.7846250662742
30
0
0
VERTEX
8
0
10
116.032
20
68.9947709082798
30
0
0
VERTEX
8
0
10
116.48
20
69.2042704813448
30
0
0
VERTEX
8
0
10
116.928
20
69.4131272976318
30
0
0
VERTEX
8
0
10
117.376
20
69.6213447770181
30
0
0
VERTEX
8
0
10
117.824
20
69.8289262511662
30
0
0
VERTEX
8
0
10
118.272
20
70.0358749673515
30
0
0
VERTEX
8
0
10
118.72
20
70.2421940920989
30
0
0
VERTEX
8
0
10
119.168
20
70.4478867145356
30
0
0
VERTEX
8
0
10
119.616
20
70.6529558496543
30
0
0
VERTEX
8
0
10
120.064
20
70.8574044413081
30
0
0
VERTEX
8
0
10
120.512
20
71.0612353650442
30
0
0
VERTEX
8
0
10
120.96
20
71.2644514308722
30
0
0
VERTEX
8
0
10
121.408
20
71.4670553857835
30
0
0
VERTEX
8
0
10
121.856
20
71.6690499161685
30
0
0
VERTEX
8
0
10
122.304
20
71.8704376501714
30
0
0
VERTEX
8
0
10
122.752
20
72.0712211598018
30
0
0
VERTEX
8
0
10
123.2
20
72.2714029630693
30
0
0
VERTEX
8
0
10
123.648
20
72.470985525899
30
0
0
VERTEX
8
0
10
124.096
20
72.6699712640571
30
0
0
VERTEX
8
0
10
124.544
20
72.8683625449062
30
0
0
VERTEX
8
0
10
124.992
20
73.0661616890888
30
0
0
VERTEX
8
0
10
125.44
20
73.2633709721932
30
0
0
VERTEX
8
0
10
125.888
20
73.4599926262335
30
0
0
VERTEX
8
0
10
126.336
20
73.6560288411813
30
0
0
VERTEX
8
0
10
126.784
20
73.8514817663398
30
0
0
VERTEX
8
0
10
127.232
20
74.0463535116783
30
0
0
VERTEX
8
0
10
127.68
20
74.2406461491521
30
0
0
VERTEX
8
0
10
128.128
20
74.4343617139006
30
0
0
VERTEX
8
0
10
128.576
20
74.6275022054351
30
0
0
VERTEX
8
0
10
129.024
20
74.8200695887491
30
0
0
VERTEX
8
0
10
129.472
20
75.0120657954242
30
0
0
VERTEX
8
0
10
129.92
20
75.2034927246369
30
0
0
VERTEX
8
0
10
130.368
20
75.3943522441641
30
0
0
VERTEX
8
0
10
130.816
20
75.5846461913256
30
0
0
VERTEX
8
0
10
131.264
20
75.7743763739014
30
0
0
VERTEX
8
0
10
131.712
20
75.9635445710141
30
0
0
VERTEX
8
0
10
132.16
20
76.1521525339537
30
0
0
VERTEX
8
0
10
132.608
20
76.3402019870014
30
0
0
VERTEX
8
0
10
133.056
20
76.5276946282096
30
0
0
VERTEX
8
0
10
133.504
20
76.7146321301364
30
0
0
VERTEX
8
0
10
133.952
20
76.9010161405755
30
0
0
VERTEX
8
0
10
134.4
20
77.0868482832595
30
0
0
VERTEX
8
0
10
134.848
20
77.2721301585116
30
0
0
VERTEX
8
0
10
135.296
20
77.4568633438863
30
0
0
VERTEX
8
0
10
135.744
20
77.6410493948152
30
0
0
VERTEX
8
0
10
136.192
20
77.8246898451846
30
0
0
VERTEX
8
0
10
136.64
20
78.0077862079094
30
0
0
VERTEX
8
0
10
137.088
20
78.1903399755194
30
0
0
VERTEX
8
0
10
137.536
20
78.3723526206572
30
0
0
SEQEND
8
0
0
POLYLINE
8
0
62
4
70
0
10
0
20
0
30
0
0
VERTEX
8
0
10
18.816
20
0
30
0
0
VERTEX
8
0
10
19.264
20
0
30
0
0
VERTEX
8
0
10
19.712
20
0
30
0
0
VERTEX
8
0
10
20.16
20
0
30
0
0
VERTEX
8
0
10
20.608
20
0
30
0
0
VERTEX
8
0
10
21.056
20
0
30
0
0
VERTEX
8
0
10
21.504
20
0
30
0
0
VERTEX
8
0
10
21.952
20
0
30
0
0
VERTEX
8
0
10
22.4
20
0
30
0
0
VERTEX
8
0
10
22.848
20
0
30
0
0
VERTEX
8
0
10
23.296
20
0
30
0
0
VERTEX
8
0
10
23.744
20
0
30
0
0
VERTEX
8
0
10
24.192
20
13.6191684040097
30
0
0
VERTEX
8
0
10
24.64
20
13.8765979677625
30
0
0
VERTEX
8
0
10
25.088
20
14.13910976112
30
0
0
VERTEX
8
0
10
25.536
20
14.4064575448454
30
0
0
VERTEX
8
0
10
25.984
20
14.6783702656104
30
0
0
VERTEX
8
0
10
26.432
20
14.9545921663918
30
0
0
VERTEX
8
0
10
26.88
20
15.2348821679273
30
0
0
VERTEX
8
0
10
27.328
20
15.5173069861491
30
0
0
VERTEX
8
0
10
27.776
20
15.8026918025997
30
0
0
VERTEX
8
0
10
28.224
20
16.09111257736
30
0
0
VERTEX
8
0
10
28.672
20
16.3824024986735
30
0
0
VERTEX
8
0
10
29.12
20
16.6764048117892
30
0
0
VERTEX
8
0
10
29.568
20
16.9729722144763
30
0
0
VERTEX
8
0
10
30.016
20
17.2834370431408
30
0
0
VERTEX
8
0
10
30.464
20
17.5979063244413
30
0
0
VERTEX
8
0
10
30.912
20
17.915843569192
30
0
0
VERTEX
8
0
10
31.36
20
18.2370612810595
30
0
0
VERTEX
8
0
10
31.808
20
18.561383084772
30
0
0
VERTEX
8
0
10
32.256
20
18.8886430793686
30
0
0
VERTEX
8
0
10
32.704
20
19.2007981917186
30
0
0
VERTEX
8
0
10
33.152
20
19.5157916310877
30
0
0
VERTEX
8
0
10
33.6
20
19.8322352242433
30
0
0
VERTEX
8
0
10
34.048
20
20.1500548357011
30
0
0
VERTEX
8
0
10
34.496
20
20.4691806022534
30
0
0
VERTEX
8
0
10
34.944
20
20.7895466517825
30
0
0
VERTEX
8
0
10
35.392
20
21.1088078570883
30
0
0
VERTEX
8
0
10
35.84
20
21.4294749554221
30
0
0
VERTEX
8
0
10
36.288
20
21.7511323900304
30
0
0
VERTEX
8
0
10
36.736
20
22.0737313166122
30
0
0
VERTEX
8
0
10
37.184
20
22.3972255428546
30
0
0
VERTEX
8
0
10
37.632
20
22.7215713590808
30
0
0
VERTEX
8
0
10
38.08
20
23.0365687126389
30
0
0
VERTEX
8
0
10
38.528
20
23.3544715282986
30
0
0
VERTEX
8
0
10
38.976
20
23.6729011211307
30
0
0
VERTEX
8
0
10
39.424
20
23.9918311927007
30
0
0
VERTEX
8
0
10
39.872
20
24.3112367576452
30
0
0
VERTEX
8
0
10
40.32
20
24.6310940638138
30
0
0
VERTEX
8
0
10
40.768
20
24.9546059954116
30
0
0
VERTEX
8
0
10
41.216
20
25.2776304307179
30
0
0
VERTEX
8
0
10
41.664
20
25.601087556967
30
0
0
VERTEX
8
0
10
42.112
20
25.9249560582581
30
0
0
VERTEX
8
0
10
42.56
20
26.2492156194352
30
0
0
VERTEX
8
0
10
43.008
20
26.5730002264015
30
0
0
VERTEX
8
0
10
43.456
20
26.8963708008871
30
0
0
VERTEX
8
0
10
43.904
20
27.2200498154994
30
0
0
VERTEX
8
0
10
44.352
20
27.5440214301146
30
0
0
VERTEX
8
0
10
44.8
20
27.8682705030645
30
0
0
VERTEX
8
0
10
45.248
20
28.1927825527079
30
0
0
VERTEX
8
0
10
45.696
20
28.517543721448
30
0
0
VERTEX
8
0
10
46.144
20
28.8425407420224
30
0
0
VERTEX
8
0
10
46.592
20
29.1677609059045
30
0
0
VERTEX
8
0
10
47.04
20
29.4931920336707
30
0
0
VERTEX
8
0
10
47.488
20
29.8188224471917
30
0
0
VERTEX
8
0
10
47.936
20
30.1446409435256
30
0
0
VERTEX
8
0
10
48.384
20
30.4706367703968
30
0
0
VERTEX
8
0
10
48.832
20
30.7967996031451
30
0
0
VERTEX
8
0
10
49.28
20
31.1231195230552
30
0
0
VERTEX
8
0
10
49.728
20
31.4495869969668
30
0
0
VERTEX
8
0
10
50.176
20
31.7761928580822
30
0
0
VERTEX
8
0
10
50.624
20
32.1029282878929
30
0
0
VERTEX
8
0
10
51.072
20
32.4297847991503
30
0
0
VERTEX
8
0
10
51.52
20
32.7567542198115
30
0
0
VERTEX
8
0
10
51.968
20
33.0838286778986
30
0
0
VERTEX
8
0
10
52.416
20
33.411000587214
30
0
0
VERTEX
8
0
10
52.864
20
33.7382626338509
30
0
0
VERTEX
8
0
10
53.312
20
34.0656077634583
30
0
0
VERTEX
8
0
10
53.76
20
34.3658521020982
30
0
0
VERTEX
8
0
10
54.208
20
34.6654724539316
30
0
0
VERTEX
8
0
10
54.656
20
34.9649843151199
30
0
0
VERTEX
8
0
10
55.104
20
35.2643860661022
30
0
0
VERTEX
8
0
10
55.552
20
35.5636761216221
30
0
0
VERTEX
8
0
10
56
20
35.8628529293767
30
0
0
VERTEX
8
0
10
56.448
20
36.1537571053857
30
0
0
VERTEX
8
0
10
56.896
20
36.445220250333
30
0
0
VERTEX
8
0
10
57.344
20
36.7365437528272
30
0
0
VERTEX
8
0
10
57.792
20
37.0277266248321
30
0
0
VERTEX
8
0
10
58.24
20
37.3187678899862
30
0
0
VERTEX
8
0
10
58.688
20
37.6096665832332
30
0
0
VERTEX
8
0
10
59.136
20
37.9004217504731
30
0
0
VERTEX
8
0
10
59.584
20
38.1910324482275
30
0
0
VERTEX
8
0
10
60.032
20
38.4814977433211
30
0
0
VERTEX
8
0
10
60.48
20
38.7718167125768
30
0
0
VERTEX
8
0
10
60.928
20
39.0619884425259
30
0
0
VERTEX
8
0
10
61.376
20
39.3520120291302
30
0
0
VERTEX
8
0
10
61.824
20
39.6406411023172
30
0
0
VERTEX
8
0
10
62.272
20
39.929418904359
30
0
0
VERTEX
8
0
10
62.72
20
40.2180440554578
30
0
0
VERTEX
8
0
10
63.168
20
40.5065157156107
30
0
0
VERTEX
8
0
10
63.616
20
40.7948330520938
30
0
0
VERTEX
8
0
10
64.064
20
41.0829952392832
30
0
0
VERTEX
8
0
10
64.512
20
41.3723607270174
30
0
0
VERTEX
8
0
10
64.96
20
41.6611622835161
30
0
0
VERTEX
8
0
10
65.408
20
41.949807997884
30
0
0
VERTEX
8
0
10
65.856
20
42.2382970462858
30
0
0
VERTEX
8
0
10
66.304
20
42.52662861199
30
0
0
VERTEX
8
0
10
66.752
20
42.814801885202
30
0
0
VERTEX
8
0
10
67.2
20
43.102816062907
30
0
0
VERTEX
8
0
10
67.648
20
43.3906703487156
30
0
0
VERTEX
8
0
10
68.096
20
43.6783639527167
30
0
0
VERTEX
8
0
10
68.544
20
43.9658960913394
30
0
0
VERTEX
8
0
10
68.992
20
44.2532659872148
30
0
0
VERTEX
8
0
10
69.44
20
44.5354401310686
30
0
0
VERTEX
8
0
10
69.888
20
44.814799449876
30
0
0
VERTEX
8
0
10
70.336
20
45.0939846477533
30
0
0
VERTEX
8
0
10
70.784
20
45.3729950636082
30
0
0
VERTEX
8
0
10
71.232
20
45.6518300389658
30
0
0
VERTEX
8
0
10
71.68
20
45.9304889179603
30
0
0
VERTEX
8
0
10
72.128
20
46.1868284621438
30
0
0
VERTEX
8
0
10
72.576
20
46.4363270054158
30
0
0
VERTEX
8
0
10
73.024
20
46.6856727107382
30
0
0
VERTEX
8
0
10
73.472
20
46.9348642017491
30
0
0
VERTEX
8
0
10
73.92
20
47.1839001190451
30
0
0
VERTEX
8
0
10
74.368
20
47.4327791197809
30
0
0
VERTEX
8
0
10
74.816
20
47.6781433676802
30
0
0
VERTEX
8
0
10
75.264
20
47.9229017691776
30
0
0
VERTEX
8
0
10
75.712
20
48.1675091399969
30
0
0
VERTEX
8
0
10
76.16
20
48.4119640127575
30
0
0
VERTEX
8
0
10
76.608
20
48.6562649383787
30
0
0
VERTEX
8
0
10
77.056
20
48.9004104856639
30
0
0
VERTEX
8
0
10
77.504
20
49.1453375944885
30
0
0
VERTEX
8
0
10
77.952
20
49.3901108027711
30
0
0
VERTEX
8
0
10
78.4
20
49.6347220225799
30
0
0
VERTEX
8
0
10
78.848
20
49.8791699350767
30
0
0
VERTEX
8
0
10
79.296
20
50.1234532365937
30
0
0
VERTEX
8
0
10
79.744
20
50.3675706383066
30
0
0
VERTEX
8
0
10
80.192
20
50.6115208659172
30
0
0
VERTEX
8
0
10
80.64
20
50.8553026593465
30
0
0
VERTEX
8
0
10
81.088
20
51.0989147724369
30
0
0
VERTEX
8
0
10
81.536
20
51.3423559726611
30
0
0
VERTEX
8
0
10
81.984
20
51.5856250408415
30
0
0
VERTEX
8
0
10
82.432
20
51.8287207708768
30
0
0
VERTEX
8
0
10
82.88
20
52.0716419694781
30
0
0
VERTEX
8
0
10
83.328
20
52.3143874559092
30
0
0
VERTEX
8
0
10
83.776
20
52.5569560617377
30
0
0
VERTEX
8
0
10
84.224
20
52.799346630592
30
0
0
VERTEX
8
0
10
84.672
20
53.0415580179249
30
0
0
VERTEX
8
0
10
85.12
20
53.283589090783
30
0
0
VERTEX
8
0
10
85.568
20
53.524207754964
30
0
0
VERTEX
8
0
10
86.016
20
53.7649516520967
30
0
0
VERTEX
8
0
10
86.464
20
54.0055138432368
30
0
0
VERTEX
8
0
10
86.912
20
54.2458932036961
30
0
0
VERTEX
8
0
10
87.36
20
54.4860886162127
30
0
0
VERTEX
8
0
10
87.808
20
54.7260989513822
30
0
0
VERTEX
8
0
10
88.256
20
54.9659229482503
30
0
0
VERTEX
8
0
10
88.704
20
55.2055584919427
30
0
0
VERTEX
8
0
10
89.152
20
55.4449984505
30
0
0
VERTEX
8
0
10
89.6
20
55.6842115501726
30
0
0
VERTEX
8
0
10
90.048
20
55.9231075578159
30
0
0
VERTEX
8
0
10
90.496
20
56.1600586725645
30
0
0
VERTEX
8
0
10
90.944
20
56.3953257833656
30
0
0
VERTEX
8
0
10
91.392
20
56.6301229693636
30
0
0
VERTEX
8
0
10
91.84
20
56.8644497055541
30
0
0
VERTEX
8
0
10
92.288
20
57.0983069684026
30
0
0
VERTEX
8
0
10
92.736
20
57.3316959736301
30
0
0
VERTEX
8
0
10
93.184
20
57.5652245378922
30
0
0
VERTEX
8
0
10
93.632
20
57.7985882937087
30
0
0
VERTEX
8
0
10
94.08
20
58.031485719754
30
0
0
VERTEX
8
0
10
94.528
20
58.2639180586837
30
0
0
VERTEX
8
0
10
94.976
20
58.4958865363583
30
0
0
VERTEX
8
0
10
95.424
20
58.7273923622256
30
0
0
VERTEX
8
0
10
95.872
20
58.9584367297172
30
0
0
VERTEX
8
0
10
96.3200000000001
20
59.1890208166387
30
0
0
VERTEX
8
0
10
96.768
20
59.4191457855498
30
0
0
VERTEX
8
0
10
97.2160000000001
20
59.6488127841308
30
0
0
VERTEX
8
0
10
97.664
20
59.8780229455437
30
0
0
VERTEX
8
0
10
98.1120000000001
20
60.1067773887797
30
0
0
VERTEX
8
0
10
98.56
20
60.3334725803774
30
0
0
VERTEX
8
0
10
99.0080000000001
20
60.559522971705
30
0
0
VERTEX
8
0
10
99.456
20
60.7851238955163
30
0
0
VERTEX
8
0
10
99.9040000000001
20
61.0102763446359
30
0
0
VERTEX
8
0
10
100.352
20
61.2349813006408
30
0
0
VERTEX
8
0
10
100.8
20
61.4592397341241
30
0
0
VERTEX
8
0
10
101.248
20
61.6857489231054
30
0
0
VERTEX
8
0
10
101.696
20
61.9117975084263
30
0
0
VERTEX
8
0
10
102.144
20
62.1373985124736
30
0
0
VERTEX
8
0
10
102.592
20
62.3625529637526
30
0
0
VERTEX
8
0
10
103.04
20
62.587261879244
30
0
0
VERTEX
8
0
10
103.488
20
62.8115262646678
30
0
0
VERTEX
8
0
10
103.936
20
63.0323607130381
30
0
0
VERTEX
8
0
10
104.384
20
63.2530689204587
30
0
0
VERTEX
8
0
10
104.832
20
63.4733390765322
30
0
0
VERTEX
8
0
10
105.28
20
63.6931720525571
30
0
0
VERTEX
8
0
10
105.728
20
63.9125687113569
30
0
0
VERTEX
8
0
10
106.176
20
64.1315299074686
30
0
0
VERTEX
8
0
10
106.624
20
64.3675179492173
30
0
0
VERTEX
8
0
10
107.072
20
64.5998057293978
30
0
0
VERTEX
8
0
10
107.52
20
64.8316521045616
30
0
0
VERTEX
8
0
10
107.968
20
65.0630582707656
30
0
0
VERTEX
8
0
10
108.416
20
65.2940254103373
30
0
0
VERTEX
8
0
10
108.864
20
65.5245546921831
30
0
0
VERTEX
8
0
10
109.312
20
65.7713449169697
30
0
0
VERTEX
8
0
10
109.76
20
66.0134593047642
30
0
0
VERTEX
8
0
10
110.208
20
66.2551495329134
30
0
0
VERTEX
8
0
10
110.656
20
66.496416851033
30
0
0
VERTEX
8
0
10
111.104
20
66.7372624944137
30
0
0
VERTEX
8
0
10
111.552
20
66.9776876843416
30
0
0
VERTEX
8
0
10
112
20
67.2176936284145
30
0
0
VERTEX
8
0
10
112.448
20
67.4572815208454
30
0
0
VERTEX
8
0
10
112.896
20
67.6964525427599
30
0
0
VERTEX
8
0
10
113.344
20
67.9352078624878
30
0
0
VERTEX
8
0
10
113.792
20
68.1735486358433
30
0
0
VERTEX
8
0
10
114.24
20
68.411476006401
30
0
0
VERTEX
8
0
10
114.688
20
68.6489911057639
30
0
0
VERTEX
8
0
10
115.136
20
68.8860950538247
30
0
0
VERTEX
8
0
10
115.584
20
69.1227889590198
30
0
0
VERTEX
8
0
10
116.032
20
69.3590739185784
30
0
0
VERTEX
8
0
10
116.48
20
69.5949510187631
30
0
0
VERTEX
8
0
10
116.928
20
69.8304213351067
30
0
0
VERTEX
8
0
10
117.376
20
70.0654859326419
30
0
0
VERTEX
8
0
10
117.824
20
70.3001458661257
30
0
0
VERTEX
8
0
10
118.272
20
70.5344021802576
30
0
0
VERTEX
8
0
10
118.72
20
70.7682559098942
30
0
0
VERTEX
8
0
10
119.168
20
71.0017080802555
30
0
0
VERTEX
8
0
10
119.616
20
71.2233140565476
30
0
0
VERTEX
8
0
10
120.064
20
71.4414904542375
30
0
0
VERTEX
8
0
10
120.512
20
71.6592563998643
30
0
0
VERTEX
8
0
10
120.96
20
71.8766127501285
30
0
0
VERTEX
8
0
10
121.408
20
72.0935603550377
30
0
0
VERTEX
8
0
10
121.856
20
72.3101000580416
30
0
0
VERTEX
8
0
10
122.304
20
72.5082606341227
30
0
0
VERTEX
8
0
10
122.752
20
72.7041110980325
30
0
0
VERTEX
8
0
10
123.2
20
72.8995685443966
30
0
0
VERTEX
8
0
10
123.648
20
73.0946333626829
30
0
0
VERTEX
8
0
10
124.096
20
73.2893059422794
30
0
0
VERTEX
8
0
10
124.544
20
73.483586672503
30
0
0
VERTEX
8
0
10
124.992
20
73.6765618594413
30
0
0
VERTEX
8
0
10
125.44
20
73.8691617396193
30
0
0
VERTEX
8
0
10
125.888
20
74.0613722215766
30
0
0
VERTEX
8
0
10
126.336
20
74.2531936703298
30
0
0
VERTEX
8
0
10
126.784
20
74.4446264511742
30
0
0
VERTEX
8
0
10
127.232
20
74.6356709296888
30
0
0
VERTEX
8
0
10
127.68
20
74.8283491024379
30
0
0
VERTEX
8
0
10
128.128
20
75.0204070688709
30
0
0
VERTEX
8
0
10
128.576
20
75.2120755245773
30
0
0
VERTEX
8
0
10
129.024
20
75.4033548813795
30
0
0
VERTEX
8
0
10
129.472
20
75.594245550837
30
0
0
VERTEX
8
0
10
129.92
20
75.7847479442586
30
0
0
VERTEX
8
0
10
130.368
20
75.9715400271156
30
0
0
VERTEX
8
0
10
130.816
20
76.1585933351809
30
0
0
VERTEX
8
0
10
131.264
20
76.3452628993353
30
0
0
VERTEX
8
0
10
131.712
20
76.5315490654035
30
0
0
VERTEX
8
0
10
132.16
20
76.7174521797992
30
0
0
VERTEX
8
0
10
132.608
20
76.9029725895251
30
0
0
VERTEX
8
0
10
133.056
20
77.089313554613
30
0
0
VERTEX
8
0
10
133.504
20
77.2749572003509
30
0
0
VERTEX
8
0
10
133.952
20
77.4602181043465
30
0
0
VERTEX
8
0
10
134.4
20
77.6450966367338
30
0
0
VERTEX
8
0
10
134.848
20
77.8295931679818
30
0
0
VERTEX
8
0
10
135.296
20
78.0137080688956
30
0
0
VERTEX
8
0
10
135.744
20
78.1974417106194
30
0
0
VERTEX
8
0
10
136.192
20
78.38079446464
30
0
0
VERTEX
8
0
10
136.64
20
78.5637667027868
30
0
0
VERTEX
8
0
10
137.088
20
78.7463587972357
30
0
0
VERTEX
8
0
10
137.536
20
78.9285711205107
30
0
0
SEQEND
8
0
0
ENDSEC
0
EOF
