0
SECTION
2
HEADER
9
$ACADVER
1
AC1009
0
ENDSEC
0
SECTION
2
ENTITIES
0
POLYLINE
8
0
62
0
70
1
10
0
20
0
30
0
0
VERTEX
8
0
10
0
20
0
30
0
0
VERTEX
8
0
10
0
20
120.958
30
0
0
VERTEX
8
0
10
179.2
20
120.958
30
0
0
VERTEX
8
0
10
179.2
20
0
30
0
0
SEQEND
8
0
0
TEXT
8
0
62
0
10
0
20
-12
30
0
40
8
1
0
50
0
0
LINE
8
0
62
0
10
14.7760058114559
20
0
30
0
11
14.7760058114559
21
3.2
31
0
0
LINE
8
0
62
0
10
14.7760058114559
20
120.958
30
0
11
14.7760058114559
21
117.758
31
0
0
LINE
8
0
62
0
10
29.5520116229117
20
0
30
0
11
29.5520116229117
21
3.2
31
0
0
LINE
8
0
62
0
10
29.5520116229117
20
120.958
30
0
11
29.5520116229117
21
117.758
31
0
0
LINE
8
0
62
0
10
44.3280174343676
20
0
30
0
11
44.3280174343676
21
3.2
31
0
0
LINE
8
0
62
0
10
44.3280174343676
20
120.958
30
0
11
44.3280174343676
21
117.758
31
0
0
LINE
8
0
62
0
10
59.1040232458234
20
0
30
0
11
59.1040232458234
21
3.2
31
0
0
LINE
8
0
62
0
10
59.1040232458234
20
120.958
30
0
11
59.1040232458234
21
117.758
31
0
0
LINE
8
0
62
0
10
73.8800290572793
20
0
30
0
11
73.8800290572793
21
6.4
31
0
0
LINE
8
0
62
0
10
73.8800290572793
20
120.958
30
0
11
73.8800290572793
21
114.558
31
0
0
TEXT
8
0
62
0
10
73.8800290572793
20
-12
30
0
40
8
1
5
50
0
0
LINE
8
0
62
0
10
88.6560348687351
20
0
30
0
11
88.6560348687351
21
3.2
31
0
0
LINE
8
0
62
0
10
88.6560348687351
20
120.958
30
0
11
88.6560348687351
21
117.758
31
0
0
LINE
8
0
62
0
10
103.432040680191
20
0
30
0
11
103.432040680191
21
3.2
31
0
0
LINE
8
0
62
0
10
103.432040680191
20
120.958
30
0
11
103.432040680191
21
117.758
31
0
0
LINE
8
0
62
0
10
118.208046491647
20
0
30
0
11
118.208046491647
21
3.2
31
0
0
LINE
8
0
62
0
10
118.208046491647
20
120.958
30
0
11
118.208046491647
21
117.758
31
0
0
LINE
8
0
62
0
10
132.984052303103
20
0
30
0
11
132.984052303103
21
3.2
31
0
0
LINE
8
0
62
0
10
132.984052303103
20
120.958
30
0
11
132.984052303103
21
117.758
31
0
0
LINE
8
0
62
0
10
147.760058114559
20
0
30
0
11
147.760058114559
21
6.4
31
0
0
LINE
8
0
62
0
10
147.760058114559
20
120.958
30
0
11
147.760058114559
21
114.558
31
0
0
TEXT
8
0
62
0
10
147.760058114559
20
-12
30
0
40
8
1
10
50
0
0
LINE
8
0
62
0
10
162.536063926014
20
0
30
0
11
162.536063926014
21
3.2
31
0
0
LINE
8
0
62
0
10
162.536063926014
20
120.958
30
0
11
162.536063926014
21
117.758
31
0
0
LINE
8
0
62
0
10
177.31206973747
20
0
30
0
11
177.31206973747
21
3.2
31
0
0
LINE
8
0
62
0
10
177.31206973747
20
120.958
30
0
11
177.31206973747
21
117.758
31
0
0
TEXT
8
0
62
0
10
-4
20
-4
30
0
40
8
1
0
50
0
0
LINE
8
0
62
0
10
0
20
4.83832
30
0
11
3.2
21
4.83832
31
0
0
LINE
8
0
62
0
10
179.2
20
4.83832
30
0
11
176
21
4.83832
31
0
0
LINE
8
0
62
0
10
0
20
9.67664
30
0
11
3.2
21
9.67664
31
0
0
LINE
8
0
62
0
10
179.2
20
9.67664
30
0
11
176
21
9.67664
31
0
0
LINE
8
0
62
0
10
0
20
14.51496
30
0
11
3.2
21
14.51496
31
0
0
LINE
8
0
62
0
10
179.2
20
14.51496
30
0
11
176
21
14.51496
31
0
0
LINE
8
0
62
0
10
0
20
19.35328
30
0
11
3.2
21
19.35328
31
0
0
LINE
8
0
62
0
10
179.2
20
19.35328
30
0
11
176
21
19.35328
31
0
0
LINE
8
0
62
0
10
0
20
24.1916
30
0
11
6.4
21
24.1916
31
0
0
LINE
8
0
62
0
10
179.2
20
24.1916
30
0
11
172.8
21
24.1916
31
0
0
TEXT
8
0
62
0
10
-4
20
20.1916
30
0
40
8
1
20
50
0
0
LINE
8
0
62
0
10
0
20
29.02992
30
0
11
3.2
21
29.02992
31
0
0
LINE
8
0
62
0
10
179.2
20
29.02992
30
0
11
176
21
29.02992
31
0
0
LINE
8
0
62
0
10
0
20
33.86824
30
0
11
3.2
21
33.86824
31
0
0
LINE
8
0
62
0
10
179.2
20
33.86824
30
0
11
176
21
33.86824
31
0
0
LINE
8
0
62
0
10
0
20
38.70656
30
0
11
3.2
21
38.70656
31
0
0
LINE
8
0
62
0
10
179.2
20
38.70656
30
0
11
176
21
38.70656
31
0
0
LINE
8
0
62
0
10
0
20
43.54488
30
0
11
3.2
21
43.54488
31
0
0
LINE
8
0
62
0
10
179.2
20
43.54488
30
0
11
176
21
43.54488
31
0
0
LINE
8
0
62
0
10
0
20
48.3832
30
0
11
6.4
21
48.3832
31
0
0
LINE
8
0
62
0
10
179.2
20
48.3832
30
0
11
172.8
21
48.3832
31
0
0
TEXT
8
0
62
0
10
-4
20
44.3832
30
0
40
8
1
40
50
0
0
LINE
8
0
62
0
10
0
20
53.22152
30
0
11
3.2
21
53.22152
31
0
0
LINE
8
0
62
0
10
179.2
20
53.22152
30
0
11
176
21
53.22152
31
0
0
LINE
8
0
62
0
10
0
20
58.05984
30
0
11
3.2
21
58.05984
31
0
0
LINE
8
0
62
0
10
179.2
20
58.05984
30
0
11
176
21
58.05984
31
0
0
LINE
8
0
62
0
10
0
20
62.89816
30
0
11
3.2
21
62.89816
31
0
0
LINE
8
0
62
0
10
179.2
20
62.89816
30
0
11
176
21
62.89816
31
0
0
LINE
8
0
62
0
10
0
20
67.73648
30
0
11
3.2
21
67.73648
31
0
0
LINE
8
0
62
0
10
179.2
20
67.73648
30
0
11
176
21
67.73648
31
0
0
LINE
8
0
62
0
10
0
20
72.5748
30
0
11
6.4
21
72.5748
31
0
0
LINE
8
0
62
0
10
179.2
20
72.5748
30
0
11
172.8
21
72.5748
31
0
0
TEXT
8
0
62
0
10
-4
20
68.5748
30
0
40
8
1
60
50
0
0
LINE
8
0
62
0
10
0
20
77.41312
30
0
11
3.2
21
77.41312
31
0
0
LINE
8
0
62
0
10
179.2
20
77.41312
30
0
11
176
21
77.41312
31
0
0
LINE
8
0
62
0
10
0
20
82.25144
30
0
11
3.2
21
82.25144
31
0
0
LINE
8
0
62
0
10
179.2
20
82.25144
30
0
11
176
21
82.25144
31
0
0
LINE
8
0
62
0
10
0
20
87.08976
30
0
11
3.2
21
87.08976
31
0
0
LINE
8
0
62
0
10
179.2
20
87.08976
30
0
11
176
21
87.08976
31
0
0
LINE
8
0
62
0
10
0
20
91.92808
30
0
11
3.2
21
91.92808
31
0
0
LINE
8
0
62
0
10
179.2
20
91.92808
30
0
11
176
21
91.92808
31
0
0
LINE
8
0
62
0
10
0
20
96.7664
30
0
11
6.4
21
96.7664
31
0
0
LINE
8
0
62
0
10
179.2
20
96.7664
30
0
11
172.8
21
96.7664
31
0
0
TEXT
8
0
62
0
10
-4
20
92.7664
30
0
40
8
1
80
50
0
0
LINE
8
0
62
0
10
0
20
101.60472
30
0
11
3.2
21
101.60472
31
0
0
LINE
8
0
62
0
10
179.2
20
101.60472
30
0
11
176
21
101.60472
31
0
0
LINE
8
0
62
0
10
0
20
106.44304
30
0
11
3.2
21
106.44304
31
0
0
LINE
8
0
62
0
10
179.2
20
106.44304
30
0
11
176
21
106.44304
31
0
0
LINE
8
0
62
0
10
0
20
111.28136
30
0
11
3.2
21
111.28136
31
0
0
LINE
8
0
62
0
10
179.2
20
111.28136
30
0
11
176
21
111.28136
31
0
0
LINE
8
0
62
0
10
0
20
116.11968
30
0
11
3.2
21
116.11968
31
0
0
LINE
8
0
62
0
10
179.2
20
116.11968
30
0
11
176
21
116.11968
31
0
0
TEXT
8
0
62
0
10
-4
20
116.958
30
0
40
8
1
100
50
0
0
TEXT
8
0
62
0
10
89.6
20
-32
30
0
40
10
1
R (kpc)
50
0
0
TEXT
8
0
62
0
10
-24
20
60.479
30
0
40
10
1
V (km/s)
50
90
0
TEXT
8
0
62
0
10
72.6
20
135.958
30
0
40
11
1
V vs. R
50
0
0
POLYLINE
8
0
62
5
70
0
10
0
20
0
30
0
0
VERTEX
8
0
10
6.64920261515514
20
12.7084171284985
30
0
0
VERTEX
8
0
10
7.38800290572793
20
12.9954844697177
30
0
0
VERTEX
8
0
10
8.12680319630072
20
13.2825518109369
30
0
0
VERTEX
8
0
10
8.86560348687352
20
13.5696191521561
30
0
0
VERTEX
8
0
10
9.60440377744631
20
13.850577772346
30
0
0
VERTEX
8
0
10
10.3432040680191
20
14.1315372977946
30
0
0
VERTEX
8
0
10
11.0820043585919
20
14.4124968232432
30
0
0
VERTEX
8
0
10
11.8208046491647
20
14.6934563486918
30
0
0
VERTEX
8
0
10
12.5596049397375
20
14.943933252099
30
0
0
VERTEX
8
0
10
13.2984052303103
20
15.2035154223504
30
0
0
VERTEX
8
0
10
14.0372055208831
20
15.4630975926018
30
0
0
VERTEX
8
0
10
14.7760058114559
20
15.6524513539052
30
0
0
VERTEX
8
0
10
15.5148061020287
20
15.8295780112532
30
0
0
VERTEX
8
0
10
16.2536063926015
20
16.0067046686013
30
0
0
VERTEX
8
0
10
16.9924066831742
20
16.1838313259493
30
0
0
VERTEX
8
0
10
17.731206973747
20
16.3180431117351
30
0
0
VERTEX
8
0
10
18.4700072643198
20
16.4615767823448
30
0
0
VERTEX
8
0
10
19.2088075548926
20
16.6051104529544
30
0
0
VERTEX
8
0
10
19.9476078454654
20
16.7550873551195
30
0
0
VERTEX
8
0
10
20.6864081360382
20
16.907782749385
30
0
0
VERTEX
8
0
10
21.425208426611
20
17.0604781436505
30
0
0
VERTEX
8
0
10
22.1640087171838
20
17.2131735379161
30
0
0
VERTEX
8
0
10
22.9028090077566
20
17.3934532812117
30
0
0
VERTEX
8
0
10
23.6416092983294
20
17.5705799385598
30
0
0
VERTEX
8
0
10
24.3804095889022
20
17.7477065959078
30
0
0
VERTEX
8
0
10
25.119209879475
20
17.9587219636636
30
0
0
VERTEX
8
0
10
25.8580101700478
20
18.1969267787178
30
0
0
VERTEX
8
0
10
26.5968104606206
20
18.4351315937721
30
0
0
VERTEX
8
0
10
27.3356107511934
20
18.6733364088263
30
0
0
VERTEX
8
0
10
28.0744110417661
20
18.9354991062592
30
0
0
VERTEX
8
0
10
28.8132113323389
20
19.1981351843959
30
0
0
VERTEX
8
0
10
29.5520116229117
20
19.4607712625327
30
0
0
VERTEX
8
0
10
30.2908119134845
20
19.7234073406694
30
0
0
VERTEX
8
0
10
31.0296122040573
20
19.9001427173209
30
0
0
VERTEX
8
0
10
31.7684124946301
20
20.1017006377514
30
0
0
VERTEX
8
0
10
32.5072127852029
20
20.3032585581819
30
0
0
VERTEX
8
0
10
33.2460130757757
20
20.5098993325442
30
0
0
VERTEX
8
0
10
33.9848133663485
20
20.7175650687454
30
0
0
VERTEX
8
0
10
34.7236136569213
20
20.9252308049465
30
0
0
VERTEX
8
0
10
35.4624139474941
20
21.1328965411477
30
0
0
VERTEX
8
0
10
36.2012142380668
20
21.3712960912914
30
0
0
VERTEX
8
0
10
36.9400145286396
20
21.6033930905751
30
0
0
VERTEX
8
0
10
37.6788148192124
20
21.8354900898587
30
0
0
VERTEX
8
0
10
38.4176151097852
20
22.0634108518734
30
0
0
VERTEX
8
0
10
39.156415400358
20
22.2894000353864
30
0
0
VERTEX
8
0
10
39.8952156909308
20
22.5153892188994
30
0
0
VERTEX
8
0
10
40.6340159815036
20
22.7413784024124
30
0
0
VERTEX
8
0
10
41.3728162720764
20
22.8657150335838
30
0
0
VERTEX
8
0
10
42.1116165626492
20
23.0000869805374
30
0
0
VERTEX
8
0
10
42.850416853222
20
23.1344589274911
30
0
0
VERTEX
8
0
10
43.5892171437947
20
23.2606568229297
30
0
0
VERTEX
8
0
10
44.3280174343675
20
23.3797592304569
30
0
0
VERTEX
8
0
10
45.0668177249403
20
23.498861637984
30
0
0
VERTEX
8
0
10
45.8056180155131
20
23.6179640455111
30
0
0
VERTEX
8
0
10
46.5444183060859
20
23.7165206824786
30
0
0
VERTEX
8
0
10
47.2832185966587
20
23.8142457348085
30
0
0
VERTEX
8
0
10
48.0220188872315
20
23.9119707871385
30
0
0
VERTEX
8
0
10
48.7608191778043
20
24.0096958394684
30
0
0
VERTEX
8
0
10
49.4996194683771
20
24.0650667932295
30
0
0
VERTEX
8
0
10
50.2384197589499
20
24.1322527667063
30
0
0
VERTEX
8
0
10
50.9772200495227
20
24.1994387401832
30
0
0
VERTEX
8
0
10
51.7160203400954
20
24.2442884979233
30
0
0
VERTEX
8
0
10
52.4548206306682
20
24.2839893004324
30
0
0
VERTEX
8
0
10
53.193620921241
20
24.3236901029414
30
0
0
VERTEX
8
0
10
53.9324212118138
20
24.3633909054505
30
0
0
VERTEX
8
0
10
54.6712215023866
20
24.4182201140613
30
0
0
VERTEX
8
0
10
55.4100217929594
20
24.4701365481116
30
0
0
VERTEX
8
0
10
56.1488220835322
20
24.5220529821619
30
0
0
VERTEX
8
0
10
56.887622374105
20
24.6145392845537
30
0
0
VERTEX
8
0
10
57.6264226646778
20
24.7275338763102
30
0
0
VERTEX
8
0
10
58.3652229552506
20
24.8405284680668
30
0
0
VERTEX
8
0
10
59.1040232458233
20
24.9535230598233
30
0
0
VERTEX
8
0
10
59.8428235363961
20
25.0398873060276
30
0
0
VERTEX
8
0
10
60.5816238269689
20
25.1284506347017
30
0
0
VERTEX
8
0
10
61.3204241175417
20
25.2170139633757
30
0
0
VERTEX
8
0
10
62.0592244081145
20
25.3024269218784
30
0
0
VERTEX
8
0
10
62.7980246986873
20
25.3848824347818
30
0
0
VERTEX
8
0
10
63.5368249892601
20
25.4673379476852
30
0
0
VERTEX
8
0
10
64.2756252798329
20
25.5497934605886
30
0
0
VERTEX
8
0
10
65.0144255704057
20
25.6178715491791
30
0
0
VERTEX
8
0
10
65.7532258609785
20
25.6850575226559
30
0
0
VERTEX
8
0
10
66.4920261515512
20
25.7522434961328
30
0
0
VERTEX
8
0
10
67.230826442124
20
25.8194294696096
30
0
0
VERTEX
8
0
10
67.9696267326968
20
25.8030997502961
30
0
0
VERTEX
8
0
10
68.7084270232696
20
25.8092075660667
30
0
0
VERTEX
8
0
10
69.4472273138424
20
25.8153153818374
30
0
0
VERTEX
8
0
10
70.1860276044152
20
25.8868219639488
30
0
0
VERTEX
8
0
10
70.924827894988
20
25.9753852926229
30
0
0
VERTEX
8
0
10
71.6636281855608
20
26.0639486212969
30
0
0
VERTEX
8
0
10
72.4024284761336
20
26.1525119499709
30
0
0
VERTEX
8
0
10
73.1412287667064
20
26.2373528023368
30
0
0
VERTEX
8
0
10
73.8800290572792
20
26.3228622231255
30
0
0
VERTEX
8
0
10
74.6188293478519
20
26.4083716439142
30
0
0
VERTEX
8
0
10
75.3576296384247
20
26.4860055919041
30
0
0
VERTEX
8
0
10
76.0964299289975
20
26.5592993811516
30
0
0
VERTEX
8
0
10
76.8352302195703
20
26.632593170399
30
0
0
VERTEX
8
0
10
77.5740305101431
20
26.7058869596465
30
0
0
VERTEX
8
0
10
78.3128308007159
20
26.7661040769874
30
0
0
VERTEX
8
0
10
79.0516310912887
20
26.8271822346936
30
0
0
VERTEX
8
0
10
79.7904313818615
20
26.8882603923998
30
0
0
VERTEX
8
0
10
80.5292316724343
20
26.9493385501061
30
0
0
VERTEX
8
0
10
81.2680319630071
20
26.8550548041905
30
0
0
VERTEX
8
0
10
82.0068322535798
20
26.8123000937962
30
0
0
VERTEX
8
0
10
82.7456325441526
20
26.7695453834018
30
0
0
VERTEX
8
0
10
83.4844328347254
20
26.7633968483952
30
0
0
VERTEX
8
0
10
84.2232331252982
20
26.7603429405099
30
0
0
VERTEX
8
0
10
84.962033415871
20
26.7572890326245
30
0
0
VERTEX
8
0
10
85.7008337064438
20
26.7542351247392
30
0
0
VERTEX
8
0
10
86.4396339970166
20
26.7594135356982
30
0
0
VERTEX
8
0
10
87.1784342875894
20
26.7624674435835
30
0
0
VERTEX
8
0
10
87.9172345781622
20
26.7655213514688
30
0
0
VERTEX
8
0
10
88.656034868735
20
26.8158262856295
30
0
0
VERTEX
8
0
10
89.3948351593077
20
26.8799583512211
30
0
0
VERTEX
8
0
10
90.1336354498805
20
26.9440904168126
30
0
0
VERTEX
8
0
10
90.8724357404533
20
27.0082224824041
30
0
0
VERTEX
8
0
10
91.6112360310261
20
27.0284003349072
30
0
0
VERTEX
8
0
10
92.3500363215989
20
27.055885505875
30
0
0
VERTEX
8
0
10
93.0888366121717
20
27.0833706768428
30
0
0
VERTEX
8
0
10
93.8276369027445
20
27.1184928197399
30
0
0
VERTEX
8
0
10
94.5664371933173
20
27.1581936222489
30
0
0
VERTEX
8
0
10
95.3052374838901
20
27.197894424758
30
0
0
VERTEX
8
0
10
96.0440377744629
20
27.237595227267
30
0
0
VERTEX
8
0
10
96.7828380650356
20
27.3029723718502
30
0
0
VERTEX
8
0
10
97.5216383556084
20
27.3671044374417
30
0
0
VERTEX
8
0
10
98.2604386461812
20
27.4312365030333
30
0
0
VERTEX
8
0
10
98.999238936754
20
27.4953685686248
30
0
0
VERTEX
8
0
10
99.7380392273268
20
27.4963628387094
30
0
0
VERTEX
8
0
10
100.4768395179
20
27.5177401939066
30
0
0
VERTEX
8
0
10
101.215639808472
20
27.5391175491038
30
0
0
VERTEX
8
0
10
101.954440099045
20
27.5853010141515
30
0
0
VERTEX
8
0
10
102.693240389618
20
27.6341635403164
30
0
0
VERTEX
8
0
10
103.432040680191
20
27.6830260664814
30
0
0
VERTEX
8
0
10
104.170840970764
20
27.7318885926464
30
0
0
VERTEX
8
0
10
104.909641261336
20
27.80509032404
30
0
0
VERTEX
8
0
10
105.648441551909
20
27.8722762975168
30
0
0
VERTEX
8
0
10
106.387241842482
20
27.9394622709937
30
0
0
VERTEX
8
0
10
107.126042133055
20
28.0020423922777
30
0
0
VERTEX
8
0
10
107.864842423628
20
28.0631205499839
30
0
0
VERTEX
8
0
10
108.6036427142
20
28.1241987076902
30
0
0
VERTEX
8
0
10
109.342443004773
20
28.1852768653964
30
0
0
VERTEX
8
0
10
110.081243295346
20
28.2499582489759
30
0
0
VERTEX
8
0
10
110.820043585919
20
28.3140903145675
30
0
0
VERTEX
8
0
10
111.558843876491
20
28.378222380159
30
0
0
VERTEX
8
0
10
112.297644167064
20
28.4405048279856
30
0
0
VERTEX
8
0
10
113.036444457637
20
28.5015829856918
30
0
0
VERTEX
8
0
10
113.77524474821
20
28.562661143398
30
0
0
VERTEX
8
0
10
114.514045038783
20
28.6237393011042
30
0
0
VERTEX
8
0
10
115.252845329355
20
28.6848174588104
30
0
0
VERTEX
8
0
10
115.991645619928
20
28.7458956165166
30
0
0
VERTEX
8
0
10
116.730445910501
20
28.8069737742229
30
0
0
VERTEX
8
0
10
117.469246201074
20
28.8680519319291
30
0
0
VERTEX
8
0
10
118.208046491647
20
28.91132922036
30
0
0
VERTEX
8
0
10
118.946846782219
20
28.9601917465249
30
0
0
VERTEX
8
0
10
119.685647072792
20
29.0090542726899
30
0
0
VERTEX
8
0
10
120.424447363365
20
29.0498269712235
30
0
0
VERTEX
8
0
10
121.163247653938
20
29.0895277737325
30
0
0
VERTEX
8
0
10
121.902047944511
20
29.1292285762416
30
0
0
VERTEX
8
0
10
122.640848235083
20
29.1689293787506
30
0
0
VERTEX
8
0
10
123.379648525656
20
29.2246178172093
30
0
0
VERTEX
8
0
10
124.118448816229
20
29.2765342512595
30
0
0
VERTEX
8
0
10
124.857249106802
20
29.3284506853098
30
0
0
VERTEX
8
0
10
125.596049397375
20
29.3534475088118
30
0
0
VERTEX
8
0
10
126.334849687947
20
29.3687170482384
30
0
0
VERTEX
8
0
10
127.07364997852
20
29.3839865876649
30
0
0
VERTEX
8
0
10
127.812450269093
20
29.3992561270915
30
0
0
VERTEX
8
0
10
128.551250559666
20
29.4641360757015
30
0
0
VERTEX
8
0
10
129.290050850239
20
29.5221603255224
30
0
0
VERTEX
8
0
10
130.028851140811
20
29.5801845753433
30
0
0
VERTEX
8
0
10
130.767651431384
20
29.6095689444028
30
0
0
VERTEX
8
0
10
131.506451721957
20
29.6187306680588
30
0
0
VERTEX
8
0
10
132.24525201253
20
29.6278923917147
30
0
0
VERTEX
8
0
10
132.984052303103
20
29.6370541153706
30
0
0
VERTEX
8
0
10
133.722852593675
20
29.6647575929737
30
0
0
VERTEX
8
0
10
134.461652884248
20
29.6922427639415
30
0
0
VERTEX
8
0
10
135.200453174821
20
29.7197279349093
30
0
0
VERTEX
8
0
10
135.939253465394
20
29.7472131058771
30
0
0
VERTEX
8
0
10
136.678053755967
20
29.7922606452508
30
0
0
VERTEX
8
0
10
137.416854046539
20
29.8319614477598
30
0
0
VERTEX
8
0
10
138.155654337112
20
29.8716622502688
30
0
0
VERTEX
8
0
10
138.894454627685
20
29.8770822608677
30
0
0
VERTEX
8
0
10
139.633254918258
20
29.8770822608677
30
0
0
VERTEX
8
0
10
140.372055208831
20
29.8770822608677
30
0
0
VERTEX
8
0
10
141.110855499403
20
29.8770822608677
30
0
0
VERTEX
8
0
10
141.849655789976
20
29.8810195446378
30
0
0
VERTEX
8
0
10
142.588456080549
20
29.8840734525231
30
0
0
VERTEX
8
0
10
143.327256371122
20
29.8871273604084
30
0
0
VERTEX
8
0
10
144.066056661695
20
29.9338547815267
30
0
0
VERTEX
8
0
10
144.804856952268
20
29.9979868471183
30
0
0
VERTEX
8
0
10
145.54365724284
20
30.0621189127098
30
0
0
VERTEX
8
0
10
146.282457533413
20
30.1262509783013
30
0
0
VERTEX
8
0
10
147.021257823986
20
30.1834150930157
30
0
0
VERTEX
8
0
10
147.760058114559
20
30.2414393428366
30
0
0
VERTEX
8
0
10
148.498858405132
20
30.2994635926575
30
0
0
VERTEX
8
0
10
149.237658695704
20
30.3401841691763
30
0
0
VERTEX
8
0
10
149.976458986277
20
30.3676693401441
30
0
0
VERTEX
8
0
10
150.71525927685
20
30.3951545111118
30
0
0
VERTEX
8
0
10
151.454059567423
20
30.4226396820796
30
0
0
VERTEX
8
0
10
152.192859857996
20
30.3592048398328
30
0
0
VERTEX
8
0
10
152.931660148568
20
30.2950727742413
30
0
0
VERTEX
8
0
10
153.670460439141
20
30.2309407086498
30
0
0
VERTEX
8
0
10
154.409260729714
20
30.1668086430583
30
0
0
VERTEX
8
0
10
155.148061020287
20
30.1423215820211
30
0
0
SEQEND
8
0
0
POLYLINE
8
0
62
6
70
0
10
0
20
0
30
0
0
VERTEX
8
0
10
21.705202083927
20
0
30
0
0
VERTEX
8
0
10
22.1640087171838
20
0.510773906994549
30
0
0
VERTEX
8
0
10
22.9028090077566
20
1.44484556602673
30
0
0
VERTEX
8
0
10
23.6416092983294
20
2.37891722505891
30
0
0
VERTEX
8
0
10
24.3804095889022
20
2.94474018643294
30
0
0
VERTEX
8
0
10
25.119209879475
20
3.44788847669284
30
0
0
VERTEX
8
0
10
25.8580101700478
20
3.95103676695273
30
0
0
VERTEX
8
0
10
26.5968104606206
20
4.15519059429227
30
0
0
VERTEX
8
0
10
27.3356107511934
20
4.1643523179482
30
0
0
VERTEX
8
0
10
28.0744110417661
20
4.17351404160414
30
0
0
VERTEX
8
0
10
28.8132113323389
20
4.18267576526007
30
0
0
VERTEX
8
0
10
29.5520116229117
20
4.24221722878739
30
0
0
VERTEX
8
0
10
30.2908119134845
20
4.3002414786083
30
0
0
VERTEX
8
0
10
31.0296122040573
20
4.3582657284292
30
0
0
VERTEX
8
0
10
31.7684124946301
20
4.41628997825011
30
0
0
VERTEX
8
0
10
32.5072127852029
20
4.55884586493011
30
0
0
VERTEX
8
0
10
33.2460130757757
20
4.67489436457193
30
0
0
VERTEX
8
0
10
33.9848133663485
20
4.79094286421374
30
0
0
VERTEX
8
0
10
34.7236136569213
20
5.09028029177128
30
0
0
VERTEX
8
0
10
35.4624139474941
20
5.41399452761423
30
0
0
VERTEX
8
0
10
36.2012142380668
20
5.73770876345718
30
0
0
VERTEX
8
0
10
36.9400145286396
20
6.06142299930013
30
0
0
VERTEX
8
0
10
37.6788148192124
20
6.59291494489114
30
0
0
VERTEX
8
0
10
38.4176151097852
20
7.07543239077026
30
0
0
VERTEX
8
0
10
39.156415400358
20
7.55794983664939
30
0
0
VERTEX
8
0
10
39.8952156909308
20
8.0225303458958
30
0
0
VERTEX
8
0
10
40.6340159815036
20
8.48061652869243
30
0
0
VERTEX
8
0
10
41.3728162720764
20
8.93870271148906
30
0
0
VERTEX
8
0
10
42.1116165626492
20
9.39678889428569
30
0
0
VERTEX
8
0
10
42.850416853222
20
9.84424782651426
30
0
0
VERTEX
8
0
10
43.5892171437947
20
10.293172285655
30
0
0
VERTEX
8
0
10
44.3280174343675
20
10.7420967447957
30
0
0
VERTEX
8
0
10
45.0668177249403
20
11.1910212039364
30
0
0
VERTEX
8
0
10
45.8056180155131
20
11.6399456630771
30
0
0
VERTEX
8
0
10
46.5444183060859
20
12.0888701222178
30
0
0
VERTEX
8
0
10
47.2832185966587
20
12.5377945813585
30
0
0
VERTEX
8
0
10
48.0220188872315
20
12.9990754745976
30
0
0
VERTEX
8
0
10
48.7608191778043
20
13.4602155652795
30
0
0
VERTEX
8
0
10
49.4996194683771
20
13.9213556559614
30
0
0
VERTEX
8
0
10
50.2384197589499
20
14.3824957466434
30
0
0
VERTEX
8
0
10
50.9772200495227
20
14.8919193286421
30
0
0
VERTEX
8
0
10
51.7160203400954
20
15.3866524060625
30
0
0
VERTEX
8
0
10
52.4548206306682
20
15.8813854834829
30
0
0
VERTEX
8
0
10
53.193620921241
20
16.3576679595512
30
0
0
VERTEX
8
0
10
53.9324212118138
20
16.8310236817744
30
0
0
VERTEX
8
0
10
54.6712215023866
20
17.3043794039976
30
0
0
VERTEX
8
0
10
55.4100217929594
20
17.7777351262207
30
0
0
VERTEX
8
0
10
56.1488220835322
20
18.1369439493113
30
0
0
VERTEX
8
0
10
56.887622374105
20
18.5217363428605
30
0
0
VERTEX
8
0
10
57.6264226646778
20
18.9065287364097
30
0
0
VERTEX
8
0
10
58.3652229552506
20
19.2651312276183
30
0
0
VERTEX
8
0
10
59.1040232458233
20
19.6132767265437
30
0
0
VERTEX
8
0
10
59.8428235363961
20
19.9614222254692
30
0
0
VERTEX
8
0
10
60.5816238269689
20
20.3095677243946
30
0
0
VERTEX
8
0
10
61.3204241175417
20
20.5567122657991
30
0
0
VERTEX
8
0
10
62.0592244081145
20
20.8162944360506
30
0
0
VERTEX
8
0
10
62.7980246986873
20
21.075876606302
30
0
0
VERTEX
8
0
10
63.5368249892601
20
21.3216253083112
30
0
0
VERTEX
8
0
10
64.2756252798329
20
21.5567762154801
30
0
0
VERTEX
8
0
10
65.0144255704057
20
21.7919271226491
30
0
0
VERTEX
8
0
10
65.7532258609785
20
22.027078029818
30
0
0
VERTEX
8
0
10
66.4920261515512
20
22.2198161706859
30
0
0
VERTEX
8
0
10
67.230826442124
20
22.4122123674605
30
0
0
VERTEX
8
0
10
67.9696267326968
20
22.6046085642351
30
0
0
VERTEX
8
0
10
68.7084270232696
20
22.7970047610097
30
0
0
VERTEX
8
0
10
69.4472273138424
20
22.9374435607744
30
0
0
VERTEX
8
0
10
70.1860276044152
20
23.0931928629253
30
0
0
VERTEX
8
0
10
70.924827894988
20
23.2489421650761
30
0
0
VERTEX
8
0
10
71.6636281855608
20
23.3402870928325
30
0
0
VERTEX
8
0
10
72.4024284761336
20
23.4196886978506
30
0
0
VERTEX
8
0
10
73.1412287667064
20
23.4990903028687
30
0
0
VERTEX
8
0
10
73.8800290572792
20
23.5784919078868
30
0
0
VERTEX
8
0
10
74.6188293478519
20
23.5842404926033
30
0
0
VERTEX
8
0
10
75.3576296384247
20
23.6056178478004
30
0
0
VERTEX
8
0
10
76.0964299289975
20
23.6269952029976
30
0
0
VERTEX
8
0
10
76.8352302195703
20
23.6165295585297
30
0
0
VERTEX
8
0
10
77.5740305101431
20
23.5920982954472
30
0
0
VERTEX
8
0
10
78.3128308007159
20
23.5676670323647
30
0
0
VERTEX
8
0
10
79.0516310912887
20
23.5432357692822
30
0
0
VERTEX
8
0
10
79.7904313818615
20
23.5427666711487
30
0
0
VERTEX
8
0
10
80.5292316724343
20
23.5397127632633
30
0
0
VERTEX
8
0
10
81.2680319630071
20
23.536658855378
30
0
0
VERTEX
8
0
10
82.0068322535798
20
23.5519700889347
30
0
0
VERTEX
8
0
10
82.7456325441526
20
23.5825091677878
30
0
0
VERTEX
8
0
10
83.4844328347254
20
23.6130482466409
30
0
0
VERTEX
8
0
10
84.2232331252982
20
23.643587325494
30
0
0
VERTEX
8
0
10
84.962033415871
20
23.7394632823237
30
0
0
VERTEX
8
0
10
85.7008337064438
20
23.8371883346536
30
0
0
VERTEX
8
0
10
86.4396339970166
20
23.9349133869836
30
0
0
VERTEX
8
0
10
87.1784342875894
20
24.0326384393135
30
0
0
VERTEX
8
0
10
87.9172345781622
20
24.1687949124445
30
0
0
VERTEX
8
0
10
88.656034868735
20
24.2940051357422
30
0
0
VERTEX
8
0
10
89.3948351593077
20
24.41921535904
30
0
0
VERTEX
8
0
10
90.1336354498805
20
24.5746241794386
30
0
0
VERTEX
8
0
10
90.8724357404533
20
24.7364812973601
30
0
0
VERTEX
8
0
10
91.6112360310261
20
24.8983384152815
30
0
0
VERTEX
8
0
10
92.3500363215989
20
25.060195533203
30
0
0
VERTEX
8
0
10
93.0888366121717
20
25.2525874474073
30
0
0
VERTEX
8
0
10
93.8276369027445
20
25.4388758284112
30
0
0
VERTEX
8
0
10
94.5664371933173
20
25.6251642094152
30
0
0
VERTEX
8
0
10
95.3052374838901
20
25.821768797554
30
0
0
VERTEX
8
0
10
96.0440377744629
20
26.0233267179845
30
0
0
VERTEX
8
0
10
96.7828380650356
20
26.224884638415
30
0
0
VERTEX
8
0
10
97.5216383556084
20
26.4264425588456
30
0
0
VERTEX
8
0
10
98.2604386461812
20
26.6145463144604
30
0
0
VERTEX
8
0
10
98.999238936754
20
26.8038886033497
30
0
0
VERTEX
8
0
10
99.7380392273268
20
26.993230892239
30
0
0
VERTEX
8
0
10
100.4768395179
20
27.2630698359049
30
0
0
VERTEX
8
0
10
101.215639808472
20
27.6051075190597
30
0
0
VERTEX
8
0
10
101.954440099045
20
27.9471452022146
30
0
0
VERTEX
8
0
10
102.693240389618
20
28.2891828853694
30
0
0
VERTEX
8
0
10
103.432040680191
20
28.4536963633035
30
0
0
VERTEX
8
0
10
104.170840970764
20
28.6094456654544
30
0
0
VERTEX
8
0
10
104.909641261336
20
28.7651949676053
30
0
0
VERTEX
8
0
10
105.648441551909
20
28.9209442697561
30
0
0
VERTEX
8
0
10
106.387241842482
20
29.1735358228433
30
0
0
VERTEX
8
0
10
107.126042133055
20
29.3995250063563
30
0
0
VERTEX
8
0
10
107.864842423628
20
29.6255141898693
30
0
0
VERTEX
8
0
10
108.6036427142
20
29.8588741470055
30
0
0
VERTEX
8
0
10
109.342443004773
20
30.0940250541744
30
0
0
VERTEX
8
0
10
110.081243295346
20
30.3291759613433
30
0
0
VERTEX
8
0
10
110.820043585919
20
30.5643268685123
30
0
0
VERTEX
8
0
10
111.558843876491
20
30.8032349999992
30
0
0
VERTEX
8
0
10
112.297644167064
20
31.0414398150534
30
0
0
VERTEX
8
0
10
113.036444457637
20
31.2796446301077
30
0
0
VERTEX
8
0
10
113.77524474821
20
31.5198530613715
30
0
0
VERTEX
8
0
10
114.514045038783
20
31.7611117843111
30
0
0
VERTEX
8
0
10
115.252845329355
20
32.0023705072507
30
0
0
VERTEX
8
0
10
115.991645619928
20
32.2436292301902
30
0
0
VERTEX
8
0
10
116.730445910501
20
32.5212310289817
30
0
0
VERTEX
8
0
10
117.469246201074
20
32.7960827386596
30
0
0
VERTEX
8
0
10
118.208046491647
20
33.0709344483376
30
0
0
VERTEX
8
0
10
118.946846782219
20
33.3473364658938
30
0
0
VERTEX
8
0
10
119.685647072792
20
33.6252420834571
30
0
0
VERTEX
8
0
10
120.424447363365
20
33.9031477010204
30
0
0
VERTEX
8
0
10
121.163247653938
20
34.1810533185837
30
0
0
VERTEX
8
0
10
121.902047944511
20
34.4589589361469
30
0
0
VERTEX
8
0
10
122.640848235083
20
34.7368645537102
30
0
0
VERTEX
8
0
10
123.379648525656
20
35.0147701712735
30
0
0
VERTEX
8
0
10
124.118448816229
20
35.2926757888368
30
0
0
VERTEX
8
0
10
124.857249106802
20
35.5373741469439
30
0
0
VERTEX
8
0
10
125.596049397375
20
35.7908485014247
30
0
0
VERTEX
8
0
10
126.334849687947
20
36.0443228559055
30
0
0
VERTEX
8
0
10
127.07364997852
20
36.264235019855
30
0
0
VERTEX
8
0
10
127.812450269093
20
36.4749546639415
30
0
0
VERTEX
8
0
10
128.551250559666
20
36.685674308028
30
0
0
VERTEX
8
0
10
129.290050850239
20
36.8963939521144
30
0
0
VERTEX
8
0
10
130.028851140811
20
37.0997183979997
30
0
0
VERTEX
8
0
10
130.767651431384
20
37.3043302263155
30
0
0
VERTEX
8
0
10
131.506451721957
20
37.5089420546313
30
0
0
VERTEX
8
0
10
132.24525201253
20
37.7057779189783
30
0
0
VERTEX
8
0
10
132.984052303103
20
37.8981741157529
30
0
0
VERTEX
8
0
10
133.722852593675
20
38.0905703125275
30
0
0
VERTEX
8
0
10
134.461652884248
20
38.282966509302
30
0
0
VERTEX
8
0
10
135.200453174821
20
38.4526526706925
30
0
0
VERTEX
8
0
10
135.939253465394
20
38.6236715122699
30
0
0
VERTEX
8
0
10
136.678053755967
20
38.7946903538474
30
0
0
VERTEX
8
0
10
137.416854046539
20
38.9657091954248
30
0
0
VERTEX
8
0
10
138.155654337112
20
39.1230942653639
30
0
0
VERTEX
8
0
10
138.894454627685
20
39.2849513832854
30
0
0
VERTEX
8
0
10
139.633254918258
20
39.4468085012068
30
0
0
VERTEX
8
0
10
140.372055208831
20
39.5891287420643
30
0
0
VERTEX
8
0
10
141.110855499403
20
39.7296085047886
30
0
0
VERTEX
8
0
10
141.849655789976
20
39.8700882675129
30
0
0
VERTEX
8
0
10
142.588456080549
20
40.0105680302372
30
0
0
VERTEX
8
0
10
143.327256371122
20
40.1265000996735
30
0
0
VERTEX
8
0
10
144.066056661695
20
40.2486564150859
30
0
0
VERTEX
8
0
10
144.804856952268
20
40.3708127304984
30
0
0
VERTEX
8
0
10
145.54365724284
20
40.4742676530605
30
0
0
VERTEX
8
0
10
146.282457533413
20
40.5719927053904
30
0
0
VERTEX
8
0
10
147.021257823986
20
40.6697177577204
30
0
0
VERTEX
8
0
10
147.760058114559
20
40.7674428100503
30
0
0
VERTEX
8
0
10
148.498858405132
20
40.8397020451977
30
0
0
VERTEX
8
0
10
149.237658695704
20
40.9160497423305
30
0
0
VERTEX
8
0
10
149.976458986277
20
40.9923974394633
30
0
0
VERTEX
8
0
10
150.71525927685
20
41.0630920392715
30
0
0
VERTEX
8
0
10
151.454059567423
20
41.1302780127483
30
0
0
VERTEX
8
0
10
152.192859857996
20
41.1974639862252
30
0
0
VERTEX
8
0
10
152.931660148568
20
41.264649959702
30
0
0
VERTEX
8
0
10
153.670460439141
20
41.3123740881401
30
0
0
VERTEX
8
0
10
154.409260729714
20
41.3608972912067
30
0
0
VERTEX
8
0
10
155.148061020287
20
41.4094204942733
30
0
0
SEQEND
8
0
0
POLYLINE
8
0
62
6
70
0
10
0
20
0
30
0
0
VERTEX
8
0
10
6.64920261515514
20
22.8149597211622
30
0
0
VERTEX
8
0
10
7.38800290572793
20
24.0203080786575
30
0
0
VERTEX
8
0
10
8.12680319630072
20
25.3668474463409
30
0
0
VERTEX
8
0
10
8.86560348687352
20
26.6704419594957
30
0
0
VERTEX
8
0
10
9.60440377744631
20
27.8711810985398
30
0
0
VERTEX
8
0
10
10.3432040680191
20
29.1056310727516
30
0
0
VERTEX
8
0
10
11.0820043585919
20
30.1980498776374
30
0
0
VERTEX
8
0
10
11.8208046491647
20
31.3292422882169
30
0
0
VERTEX
8
0
10
12.5596049397375
20
32.4106169135865
30
0
0
VERTEX
8
0
10
13.2984052303103
20
33.4965616277428
30
0
0
VERTEX
8
0
10
14.0372055208831
20
34.5721182327741
30
0
0
VERTEX
8
0
10
14.7760058114559
20
35.6454941423684
30
0
0
VERTEX
8
0
10
15.5148061020287
20
36.7188700519626
30
0
0
VERTEX
8
0
10
16.2536063926015
20
37.6129410377171
30
0
0
VERTEX
8
0
10
16.9924066831742
20
38.5572772204749
30
0
0
VERTEX
8
0
10
17.731206973747
20
39.4958868282113
30
0
0
VERTEX
8
0
10
18.4700072643198
20
40.4310989898796
30
0
0
VERTEX
8
0
10
19.2088075548926
20
41.366311151548
30
0
0
VERTEX
8
0
10
19.9476078454654
20
42.2822731646185
30
0
0
VERTEX
8
0
10
20.6864081360382
20
43.1901132630185
30
0
0
VERTEX
8
0
10
21.425208426611
20
44.0979533614186
30
0
0
VERTEX
8
0
10
22.1640087171838
20
44.9667057442446
30
0
0
VERTEX
8
0
10
22.9028090077566
20
45.8243637266526
30
0
0
VERTEX
8
0
10
23.6416092983294
20
46.6820217090607
30
0
0
VERTEX
8
0
10
24.3804095889022
20
47.5247422837109
30
0
0
VERTEX
8
0
10
25.119209879475
20
48.3649205625581
30
0
0
VERTEX
8
0
10
25.8580101700478
20
49.2050988414054
30
0
0
VERTEX
8
0
10
26.5968104606206
20
50.0045146519311
30
0
0
VERTEX
8
0
10
27.3356107511934
20
50.7915983312123
30
0
0
VERTEX
8
0
10
28.0744110417661
20
51.5786820104935
30
0
0
VERTEX
8
0
10
28.8132113323389
20
52.3576133046916
30
0
0
VERTEX
8
0
10
29.5520116229117
20
53.1289722668472
30
0
0
VERTEX
8
0
10
30.2908119134845
20
53.9003312290027
30
0
0
VERTEX
8
0
10
31.0296122040573
20
54.6716901911582
30
0
0
VERTEX
8
0
10
31.7684124946301
20
55.3701113307175
30
0
0
VERTEX
8
0
10
32.5072127852029
20
56.0755640522243
30
0
0
VERTEX
8
0
10
33.2460130757757
20
56.7810167737312
30
0
0
VERTEX
8
0
10
33.9848133663485
20
57.4702082622325
30
0
0
VERTEX
8
0
10
34.7236136569213
20
58.1451219048863
30
0
0
VERTEX
8
0
10
35.4624139474941
20
58.82003554754
30
0
0
VERTEX
8
0
10
36.2012142380668
20
59.4949491901937
30
0
0
VERTEX
8
0
10
36.9400145286396
20
60.2020534866997
30
0
0
VERTEX
8
0
10
37.6788148192124
20
60.9105601160918
30
0
0
VERTEX
8
0
10
38.4176151097852
20
61.6190667454839
30
0
0
VERTEX
8
0
10
39.156415400358
20
62.3275733748761
30
0
0
VERTEX
8
0
10
39.8952156909308
20
62.9557722700343
30
0
0
VERTEX
8
0
10
40.6340159815036
20
63.6062546496055
30
0
0
VERTEX
8
0
10
41.3728162720764
20
64.2567370291767
30
0
0
VERTEX
8
0
10
42.1116165626492
20
64.8627033433192
30
0
0
VERTEX
8
0
10
42.850416853222
20
65.4582153809548
30
0
0
VERTEX
8
0
10
43.5892171437947
20
66.0537274185904
30
0
0
VERTEX
8
0
10
44.3280174343675
20
66.649239456226
30
0
0
VERTEX
8
0
10
45.0668177249403
20
67.2221110067238
30
0
0
VERTEX
8
0
10
45.8056180155131
20
67.7992995970476
30
0
0
VERTEX
8
0
10
46.5444183060859
20
68.3764881873713
30
0
0
VERTEX
8
0
10
47.2832185966587
20
68.9314589071344
30
0
0
VERTEX
8
0
10
48.0220188872315
20
69.4750545107197
30
0
0
VERTEX
8
0
10
48.7608191778043
20
70.0186501143051
30
0
0
VERTEX
8
0
10
49.4996194683771
20
70.5622457178904
30
0
0
VERTEX
8
0
10
50.2384197589499
20
71.0958810029012
30
0
0
VERTEX
8
0
10
50.9772200495227
20
71.6303148828305
30
0
0
VERTEX
8
0
10
51.7160203400954
20
72.16474876276
30
0
0
VERTEX
8
0
10
52.4548206306682
20
72.6819511637745
30
0
0
VERTEX
8
0
10
53.193620921241
20
73.1827920569655
30
0
0
VERTEX
8
0
10
53.9324212118138
20
73.6836329501565
30
0
0
VERTEX
8
0
10
54.6712215023866
20
74.1844738433475
30
0
0
VERTEX
8
0
10
55.4100217929594
20
74.6623803536576
30
0
0
VERTEX
8
0
10
56.1488220835322
20
75.1387899837661
30
0
0
VERTEX
8
0
10
56.887622374105
20
75.6151996138746
30
0
0
VERTEX
8
0
10
57.6264226646778
20
76.0916092439831
30
0
0
VERTEX
8
0
10
58.3652229552506
20
76.5721859717287
30
0
0
VERTEX
8
0
10
59.1040232458233
20
77.0516495097225
30
0
0
VERTEX
8
0
10
59.8428235363961
20
77.5311130477163
30
0
0
VERTEX
8
0
10
60.5816238269689
20
77.9550663265507
30
0
0
VERTEX
8
0
10
61.3204241175417
20
78.3642899831824
30
0
0
VERTEX
8
0
10
62.0592244081145
20
78.773513639814
30
0
0
VERTEX
8
0
10
62.7980246986873
20
79.1827372964457
30
0
0
VERTEX
8
0
10
63.5368249892601
20
79.5733920065493
30
0
0
VERTEX
8
0
10
64.2756252798329
20
79.9673461237544
30
0
0
VERTEX
8
0
10
65.0144255704057
20
80.3613002409595
30
0
0
VERTEX
8
0
10
65.7532258609785
20
80.7219312778117
30
0
0
VERTEX
8
0
10
66.4920261515512
20
81.0639689609665
30
0
0
VERTEX
8
0
10
67.230826442124
20
81.4060066441213
30
0
0
VERTEX
8
0
10
67.9696267326968
20
81.7480443272761
30
0
0
VERTEX
8
0
10
68.7084270232696
20
82.0933424914051
30
0
0
VERTEX
8
0
10
69.4472273138424
20
82.4384340824452
30
0
0
VERTEX
8
0
10
70.1860276044152
20
82.7835256734854
30
0
0
VERTEX
8
0
10
70.924827894988
20
83.1286172645255
30
0
0
VERTEX
8
0
10
71.6636281855608
20
83.405297144299
30
0
0
VERTEX
8
0
10
72.4024284761336
20
83.7045801170595
30
0
0
VERTEX
8
0
10
73.1412287667064
20
84.00386308982
30
0
0
VERTEX
8
0
10
73.8800290572792
20
84.286303026724
30
0
0
VERTEX
8
0
10
74.6188293478519
20
84.5672625521727
30
0
0
VERTEX
8
0
10
75.3576296384247
20
84.8482220776213
30
0
0
VERTEX
8
0
10
76.0964299289975
20
85.1291816030699
30
0
0
VERTEX
8
0
10
76.8352302195703
20
85.3485290422234
30
0
0
VERTEX
8
0
10
77.5740305101431
20
85.5836799493923
30
0
0
VERTEX
8
0
10
78.3128308007159
20
85.8188308565613
30
0
0
VERTEX
8
0
10
79.0516310912887
20
86.0492740351076
30
0
0
VERTEX
8
0
10
79.7904313818615
20
86.2783171265059
30
0
0
VERTEX
8
0
10
80.5292316724343
20
86.5073602179042
30
0
0
VERTEX
8
0
10
81.2680319630071
20
86.7364033093026
30
0
0
VERTEX
8
0
10
82.0068322535798
20
86.9325589239068
30
0
0
VERTEX
8
0
10
82.7456325441526
20
87.1341168443373
30
0
0
VERTEX
8
0
10
83.4844328347254
20
87.3356747647678
30
0
0
VERTEX
8
0
10
84.2232331252982
20
87.5467354650977
30
0
0
VERTEX
8
0
10
84.962033415871
20
87.7635629249547
30
0
0
VERTEX
8
0
10
85.7008337064438
20
87.9803903848118
30
0
0
VERTEX
8
0
10
86.4396339970166
20
88.1972178446689
30
0
0
VERTEX
8
0
10
87.1784342875894
20
88.4172461602827
30
0
0
VERTEX
8
0
10
87.9172345781622
20
88.6371275280251
30
0
0
VERTEX
8
0
10
88.656034868735
20
88.8570088957675
30
0
0
VERTEX
8
0
10
89.3948351593077
20
89.0768902635099
30
0
0
VERTEX
8
0
10
90.1336354498805
20
89.3102750978535
30
0
0
VERTEX
8
0
10
90.8724357404533
20
89.5393181892518
30
0
0
VERTEX
8
0
10
91.6112360310261
20
89.7683612806501
30
0
0
VERTEX
8
0
10
92.3500363215989
20
89.9891617297723
30
0
0
VERTEX
8
0
10
93.0888366121717
20
90.2090430975148
30
0
0
VERTEX
8
0
10
93.8276369027445
20
90.4289244652571
30
0
0
VERTEX
8
0
10
94.5664371933173
20
90.6488058329995
30
0
0
VERTEX
8
0
10
95.3052374838901
20
90.8889264367534
30
0
0
VERTEX
8
0
10
96.0440377744629
20
91.1240773439223
30
0
0
VERTEX
8
0
10
96.7828380650356
20
91.3592282510913
30
0
0
VERTEX
8
0
10
97.5216383556084
20
91.5806137236967
30
0
0
VERTEX
8
0
10
98.2604386461812
20
91.7974411835538
30
0
0
VERTEX
8
0
10
98.999238936754
20
92.0142686434108
30
0
0
VERTEX
8
0
10
99.7380392273268
20
92.2310961032679
30
0
0
VERTEX
8
0
10
100.4768395179
20
92.4515181019958
30
0
0
VERTEX
8
0
10
101.215639808472
20
92.6713994697382
30
0
0
VERTEX
8
0
10
101.954440099045
20
92.8912808374806
30
0
0
VERTEX
8
0
10
102.693240389618
20
93.103798482173
30
0
0
VERTEX
8
0
10
103.432040680191
20
93.3114642183742
30
0
0
VERTEX
8
0
10
104.170840970764
20
93.5191299545753
30
0
0
VERTEX
8
0
10
104.909641261336
20
93.7267956907765
30
0
0
VERTEX
8
0
10
105.648441551909
20
93.9407438880564
30
0
0
VERTEX
8
0
10
106.387241842482
20
94.1545174400282
30
0
0
VERTEX
8
0
10
107.126042133055
20
94.368290992
30
0
0
VERTEX
8
0
10
107.864842423628
20
94.5820645439717
30
0
0
VERTEX
8
0
10
108.6036427142
20
94.7869550353108
30
0
0
VERTEX
8
0
10
109.342443004773
20
94.9946207715119
30
0
0
VERTEX
8
0
10
110.081243295346
20
95.2022865077131
30
0
0
VERTEX
8
0
10
110.820043585919
20
95.4072643217062
30
0
0
VERTEX
8
0
10
111.558843876491
20
95.611876150022
30
0
0
VERTEX
8
0
10
112.297644167064
20
95.8164879783379
30
0
0
VERTEX
8
0
10
113.036444457637
20
96.0210998066537
30
0
0
VERTEX
8
0
10
113.77524474821
20
96.2177351909997
30
0
0
VERTEX
8
0
10
114.514045038783
20
96.4162392035449
30
0
0
VERTEX
8
0
10
115.252845329355
20
96.6147432160901
30
0
0
VERTEX
8
0
10
115.991645619928
20
96.8177164563884
30
0
0
VERTEX
8
0
10
116.730445910501
20
97.0223282847042
30
0
0
VERTEX
8
0
10
117.469246201074
20
97.2269401130201
30
0
0
VERTEX
8
0
10
118.208046491647
20
97.4315519413359
30
0
0
VERTEX
8
0
10
118.946846782219
20
97.6396986833052
30
0
0
VERTEX
8
0
10
119.685647072792
20
97.8473644195064
30
0
0
VERTEX
8
0
10
120.424447363365
20
98.0550301557075
30
0
0
VERTEX
8
0
10
121.163247653938
20
98.2502267530929
30
0
0
VERTEX
8
0
10
121.902047944511
20
98.4365151340968
30
0
0
VERTEX
8
0
10
122.640848235083
20
98.6228035151008
30
0
0
VERTEX
8
0
10
123.379648525656
20
98.8090918961048
30
0
0
VERTEX
8
0
10
124.118448816229
20
99.0015434877529
30
0
0
VERTEX
8
0
10
124.857249106802
20
99.1939396845274
30
0
0
VERTEX
8
0
10
125.596049397375
20
99.386335881302
30
0
0
VERTEX
8
0
10
126.334849687947
20
99.5787320780766
30
0
0
VERTEX
8
0
10
127.07364997852
20
99.7316911289603
30
0
0
VERTEX
8
0
10
127.812450269093
20
99.8966021547671
30
0
0
VERTEX
8
0
10
128.551250559666
20
100.061513180574
30
0
0
VERTEX
8
0
10
129.290050850239
20
100.213282721428
30
0
0
VERTEX
8
0
10
130.028851140811
20
100.362924207808
30
0
0
VERTEX
8
0
10
130.767651431384
20
100.512565694188
30
0
0
VERTEX
8
0
10
131.506451721957
20
100.662207180568
30
0
0
VERTEX
8
0
10
132.24525201253
20
100.811848666949
30
0
0
VERTEX
8
0
10
132.984052303103
20
100.961490153329
30
0
0
VERTEX
8
0
10
133.722852593675
20
101.111131639709
30
0
0
VERTEX
8
0
10
134.461652884248
20
101.254248160112
30
0
0
VERTEX
8
0
10
135.200453174821
20
101.394727922836
30
0
0
VERTEX
8
0
10
135.939253465394
20
101.53520768556
30
0
0
VERTEX
8
0
10
136.678053755967
20
101.675687448285
30
0
0
VERTEX
8
0
10
137.416854046539
20
101.795315480392
30
0
0
VERTEX
8
0
10
138.155654337112
20
101.917471795805
30
0
0
VERTEX
8
0
10
138.894454627685
20
102.039628111217
30
0
0
VERTEX
8
0
10
139.633254918258
20
102.160062746302
30
0
0
VERTEX
8
0
10
140.372055208831
20
102.279165153829
30
0
0
VERTEX
8
0
10
141.110855499403
20
102.398267561356
30
0
0
VERTEX
8
0
10
141.849655789976
20
102.517369968883
30
0
0
VERTEX
8
0
10
142.588456080549
20
102.627406436096
30
0
0
VERTEX
8
0
10
143.327256371122
20
102.737347119968
30
0
0
VERTEX
8
0
10
144.066056661695
20
102.847287803839
30
0
0
VERTEX
8
0
10
144.804856952268
20
102.95722848771
30
0
0
VERTEX
8
0
10
145.54365724284
20
103.049880052055
30
0
0
VERTEX
8
0
10
146.282457533413
20
103.147605104385
30
0
0
VERTEX
8
0
10
147.021257823986
20
103.245330156715
30
0
0
VERTEX
8
0
10
147.760058114559
20
103.348192552591
30
0
0
VERTEX
8
0
10
148.498858405132
20
103.452025420692
30
0
0
VERTEX
8
0
10
149.237658695704
20
103.555858288792
30
0
0
VERTEX
8
0
10
149.976458986277
20
103.659691156893
30
0
0
VERTEX
8
0
10
150.71525927685
20
103.705489451741
30
0
0
VERTEX
8
0
10
151.454059567423
20
103.763513701561
30
0
0
VERTEX
8
0
10
152.192859857996
20
103.821537951382
30
0
0
VERTEX
8
0
10
152.931660148568
20
103.883792928087
30
0
0
VERTEX
8
0
10
153.670460439141
20
103.947924993678
30
0
0
VERTEX
8
0
10
154.409260729714
20
104.01205705927
30
0
0
VERTEX
8
0
10
155.148061020287
20
104.076189124861
30
0
0
SEQEND
8
0
0
POLYLINE
8
0
62
1
70
0
10
0
20
0
30
0
0
VERTEX
8
0
10
6.64920261515514
20
12.7084171284985
30
0
0
VERTEX
8
0
10
7.38800290572793
20
12.9954844697177
30
0
0
VERTEX
8
0
10
8.12680319630072
20
13.2825518109369
30
0
0
VERTEX
8
0
10
8.86560348687352
20
13.5696191521561
30
0
0
VERTEX
8
0
10
9.60440377744631
20
13.850577772346
30
0
0
VERTEX
8
0
10
10.3432040680191
20
14.1315372977946
30
0
0
VERTEX
8
0
10
11.0820043585919
20
14.4124968232432
30
0
0
VERTEX
8
0
10
11.8208046491647
20
14.6934563486918
30
0
0
VERTEX
8
0
10
12.5596049397375
20
14.943933252099
30
0
0
VERTEX
8
0
10
13.2984052303103
20
15.2035154223504
30
0
0
VERTEX
8
0
10
14.0372055208831
20
15.4630975926018
30
0
0
VERTEX
8
0
10
14.7760058114559
20
15.6524513539052
30
0
0
VERTEX
8
0
10
15.5148061020287
20
15.8295780112532
30
0
0
VERTEX
8
0
10
16.2536063926015
20
16.0067046686013
30
0
0
VERTEX
8
0
10
16.9924066831742
20
16.1838313259493
30
0
0
VERTEX
8
0
10
17.731206973747
20
16.3180431117351
30
0
0
VERTEX
8
0
10
18.4700072643198
20
16.4615767823448
30
0
0
VERTEX
8
0
10
19.2088075548926
20
16.6051104529544
30
0
0
VERTEX
8
0
10
19.9476078454654
20
16.7550873551195
30
0
0
VERTEX
8
0
10
20.6864081360382
20
16.907782749385
30
0
0
VERTEX
8
0
10
21.425208426611
20
17.0604781436505
30
0
0
VERTEX
8
0
10
22.1640087171838
20
17.2207500774641
30
0
0
VERTEX
8
0
10
22.9028090077566
20
17.4533605862986
30
0
0
VERTEX
8
0
10
23.6416092983294
20
17.7308918709974
30
0
0
VERTEX
8
0
10
24.3804095889022
20
17.9903469721966
30
0
0
VERTEX
8
0
10
25.119209879475
20
18.2867063605201
30
0
0
VERTEX
8
0
10
25.8580101700478
20
18.620924674243
30
0
0
VERTEX
8
0
10
26.5968104606206
20
18.8976105832084
30
0
0
VERTEX
8
0
10
27.3356107511934
20
19.1320496253068
30
0
0
VERTEX
8
0
10
28.0744110417661
20
19.3899805533324
30
0
0
VERTEX
8
0
10
28.8132113323389
20
19.6484903011818
30
0
0
VERTEX
8
0
10
29.5520116229117
20
19.917781632221
30
0
0
VERTEX
8
0
10
30.2908119134845
20
20.1867499588298
30
0
0
VERTEX
8
0
10
31.0296122040573
20
20.3717981614128
30
0
0
VERTEX
8
0
10
31.7684124946301
20
20.581107494539
30
0
0
VERTEX
8
0
10
32.5072127852029
20
20.8087814083521
30
0
0
VERTEX
8
0
10
33.2460130757757
20
21.035936108265
30
0
0
VERTEX
8
0
10
33.9848133663485
20
21.2643042657375
30
0
0
VERTEX
8
0
10
34.7236136569213
20
21.5354646499461
30
0
0
VERTEX
8
0
10
35.4624139474941
20
21.8153765258335
30
0
0
VERTEX
8
0
10
36.2012142380668
20
22.1281178249733
30
0
0
VERTEX
8
0
10
36.9400145286396
20
22.4376344965852
30
0
0
VERTEX
8
0
10
37.6788148192124
20
22.8091024578979
30
0
0
VERTEX
8
0
10
38.4176151097852
20
23.1701498038948
30
0
0
VERTEX
8
0
10
39.156415400358
20
23.5359291227432
30
0
0
VERTEX
8
0
10
39.8952156909308
20
23.9019611084394
30
0
0
VERTEX
8
0
10
40.6340159815036
20
24.2711999775133
30
0
0
VERTEX
8
0
10
41.3728162720764
20
24.5507908255812
30
0
0
VERTEX
8
0
10
42.1116165626492
20
24.8455960410705
30
0
0
VERTEX
8
0
10
42.850416853222
20
25.1418456987073
30
0
0
VERTEX
8
0
10
43.5892171437947
20
25.4363431242835
30
0
0
VERTEX
8
0
10
44.3280174343675
20
25.729473063953
30
0
0
VERTEX
8
0
10
45.0668177249403
20
26.0275902432029
30
0
0
VERTEX
8
0
10
45.8056180155131
20
26.3305252643095
30
0
0
VERTEX
8
0
10
46.5444183060859
20
26.6198071765046
30
0
0
VERTEX
8
0
10
47.2832185966587
20
26.9130933354415
30
0
0
VERTEX
8
0
10
48.0220188872315
20
27.2168754657703
30
0
0
VERTEX
8
0
10
48.7608191778043
20
27.5253137560243
30
0
0
VERTEX
8
0
10
49.4996194683771
20
27.8016471285851
30
0
0
VERTEX
8
0
10
50.2384197589499
20
28.0930918109492
30
0
0
VERTEX
8
0
10
50.9772200495227
20
28.414469846025
30
0
0
VERTEX
8
0
10
51.7160203400954
20
28.7147104640727
30
0
0
VERTEX
8
0
10
52.4548206306682
20
29.016039378566
30
0
0
VERTEX
8
0
10
53.193620921241
20
29.3123728363785
30
0
0
VERTEX
8
0
10
53.9324212118138
20
29.6117911411694
30
0
0
VERTEX
8
0
10
54.6712215023866
20
29.9280975021174
30
0
0
VERTEX
8
0
10
55.4100217929594
20
30.2462468564496
30
0
0
VERTEX
8
0
10
56.1488220835322
20
30.500488820352
30
0
0
VERTEX
8
0
10
56.887622374105
20
30.8047116744384
30
0
0
VERTEX
8
0
10
57.6264226646778
20
31.1272832168944
30
0
0
VERTEX
8
0
10
58.3652229552506
20
31.4356029970826
30
0
0
VERTEX
8
0
10
59.1040232458233
20
31.7389183345796
30
0
0
VERTEX
8
0
10
59.8428235363961
20
32.0227158992178
30
0
0
VERTEX
8
0
10
60.5816238269689
20
32.3097132833519
30
0
0
VERTEX
8
0
10
61.3204241175417
20
32.5342313941476
30
0
0
VERTEX
8
0
10
62.0592244081145
20
32.7647817356586
30
0
0
VERTEX
8
0
10
62.7980246986873
20
32.9937089602209
30
0
0
VERTEX
8
0
10
63.5368249892601
20
33.214409642949
30
0
0
VERTEX
8
0
10
64.2756252798329
20
33.4288280782175
30
0
0
VERTEX
8
0
10
65.0144255704057
20
33.6327731599565
30
0
0
VERTEX
8
0
10
65.7532258609785
20
33.8365829609586
30
0
0
VERTEX
8
0
10
66.4920261515512
20
34.0132073721839
30
0
0
VERTEX
8
0
10
67.230826442124
20
34.1899137369531
30
0
0
VERTEX
8
0
10
67.9696267326968
20
34.3040563937564
30
0
0
VERTEX
8
0
10
68.7084270232696
20
34.4357172317031
30
0
0
VERTEX
8
0
10
69.4472273138424
20
34.5334160686058
30
0
0
VERTEX
8
0
10
70.1860276044152
20
34.6903892742276
30
0
0
VERTEX
8
0
10
70.924827894988
20
34.8602058642123
30
0
0
VERTEX
8
0
10
71.6636281855608
20
34.9871179051583
30
0
0
VERTEX
8
0
10
72.4024284761336
20
35.1060635787837
30
0
0
VERTEX
8
0
10
73.1412287667064
20
35.2222362597361
30
0
0
VERTEX
8
0
10
73.8800290572792
20
35.3389071176222
30
0
0
VERTEX
8
0
10
74.6188293478519
20
35.4064752904895
30
0
0
VERTEX
8
0
10
75.3576296384247
20
35.4786370396436
30
0
0
VERTEX
8
0
10
76.0964299289975
20
35.5475918444571
30
0
0
VERTEX
8
0
10
76.8352302195703
20
35.5954419465314
30
0
0
VERTEX
8
0
10
77.5740305101431
20
35.6341339207712
30
0
0
VERTEX
8
0
10
78.3128308007159
20
35.6631358241046
30
0
0
VERTEX
8
0
10
79.0516310912887
20
35.6928796420444
30
0
0
VERTEX
8
0
10
79.7904313818615
20
35.7385003807049
30
0
0
VERTEX
8
0
10
80.5292316724343
20
35.7824667297431
30
0
0
VERTEX
8
0
10
81.2680319630071
20
35.7094984368378
30
0
0
VERTEX
8
0
10
82.0068322535798
20
35.6874590212004
30
0
0
VERTEX
8
0
10
82.7456325441526
20
35.6755280084655
30
0
0
VERTEX
8
0
10
83.4844328347254
20
35.6911117557702
30
0
0
VERTEX
8
0
10
84.2232331252982
20
35.7090349339205
30
0
0
VERTEX
8
0
10
84.962033415871
20
35.7703037911087
30
0
0
VERTEX
8
0
10
85.7008337064438
20
35.8329547318049
30
0
0
VERTEX
8
0
10
86.4396339970166
20
35.9018981617534
30
0
0
VERTEX
8
0
10
87.1784342875894
20
35.9693949632689
30
0
0
VERTEX
8
0
10
87.9172345781622
20
36.0627755550753
30
0
0
VERTEX
8
0
10
88.656034868735
20
36.1840741890204
30
0
0
VERTEX
8
0
10
89.3948351593077
20
36.3157023849815
30
0
0
VERTEX
8
0
10
90.1336354498805
20
36.4677413881093
30
0
0
VERTEX
8
0
10
90.8724357404533
20
36.6242759468864
30
0
0
VERTEX
8
0
10
91.6112360310261
20
36.7486282806025
30
0
0
VERTEX
8
0
10
92.3500363215989
20
36.8786434223032
30
0
0
VERTEX
8
0
10
93.0888366121717
20
37.029746691116
30
0
0
VERTEX
8
0
10
93.8276369027445
20
37.1826445566693
30
0
0
VERTEX
8
0
10
94.5664371933173
20
37.3392089040871
30
0
0
VERTEX
8
0
10
95.3052374838901
20
37.5031892640428
30
0
0
VERTEX
8
0
10
96.0440377744629
20
37.6709453987474
30
0
0
VERTEX
8
0
10
96.7828380650356
20
37.8575867513527
30
0
0
VERTEX
8
0
10
97.5216383556084
20
38.0435969856401
30
0
0
VERTEX
8
0
10
98.2604386461812
20
38.2205025033673
30
0
0
VERTEX
8
0
10
98.999238936754
20
38.3984861288216
30
0
0
VERTEX
8
0
10
99.7380392273268
20
38.5316036956637
30
0
0
VERTEX
8
0
10
100.4768395179
20
38.7363008334143
30
0
0
VERTEX
8
0
10
101.215639808472
20
38.9928834086709
30
0
0
VERTEX
8
0
10
101.954440099045
20
39.268202874527
30
0
0
VERTEX
8
0
10
102.693240389618
20
39.5464898934764
30
0
0
VERTEX
8
0
10
103.432040680191
20
39.6983975612689
30
0
0
VERTEX
8
0
10
104.170840970764
20
39.8441717971341
30
0
0
VERTEX
8
0
10
104.909641261336
20
40.0069930068777
30
0
0
VERTEX
8
0
10
105.648441551909
20
40.1657167676547
30
0
0
VERTEX
8
0
10
106.387241842482
20
40.3944147673784
30
0
0
VERTEX
8
0
10
107.126042133055
20
40.6010646256756
30
0
0
VERTEX
8
0
10
107.864842423628
20
40.8069825644715
30
0
0
VERTEX
8
0
10
108.6036427142
20
41.0185679695958
30
0
0
VERTEX
8
0
10
109.342443004773
20
41.2317859901839
30
0
0
VERTEX
8
0
10
110.081243295346
20
41.4477871009178
30
0
0
VERTEX
8
0
10
110.820043585919
20
41.6637226765293
30
0
0
VERTEX
8
0
10
111.558843876491
20
41.8827266533941
30
0
0
VERTEX
8
0
10
112.297644167064
20
42.100276729046
30
0
0
VERTEX
8
0
10
113.036444457637
20
42.3173297937866
30
0
0
VERTEX
8
0
10
113.77524474821
20
42.5361816410809
30
0
0
VERTEX
8
0
10
114.514045038783
20
42.7561302429614
30
0
0
VERTEX
8
0
10
115.252845329355
20
42.9763943430416
30
0
0
VERTEX
8
0
10
115.991645619928
20
43.1969691150855
30
0
0
VERTEX
8
0
10
116.730445910501
20
43.4450481144763
30
0
0
VERTEX
8
0
10
117.469246201074
20
43.6915033541484
30
0
0
VERTEX
8
0
10
118.208046491647
20
43.9266623199883
30
0
0
VERTEX
8
0
10
118.946846782219
20
44.1671547121276
30
0
0
VERTEX
8
0
10
119.685647072792
20
44.4092573115895
30
0
0
VERTEX
8
0
10
120.424447363365
20
44.6465661736177
30
0
0
VERTEX
8
0
10
121.163247653938
20
44.8836833611794
30
0
0
VERTEX
8
0
10
121.902047944511
20
45.121301049615
30
0
0
VERTEX
8
0
10
122.640848235083
20
45.3594113732239
30
0
0
VERTEX
8
0
10
123.379648525656
20
45.6082494370158
30
0
0
VERTEX
8
0
10
124.118448816229
20
45.8550806574487
30
0
0
VERTEX
8
0
10
124.857249106802
20
46.0767075740067
30
0
0
VERTEX
8
0
10
125.596049397375
20
46.2883324079028
30
0
0
VERTEX
8
0
10
126.334849687947
20
46.4942442803433
30
0
0
VERTEX
8
0
10
127.07364997852
20
46.674547768129
30
0
0
VERTEX
8
0
10
127.812450269093
20
46.8480370833498
30
0
0
VERTEX
8
0
10
128.551250559666
20
47.0528852900878
30
0
0
VERTEX
8
0
10
129.290050850239
20
47.2535907308162
30
0
0
VERTEX
8
0
10
130.028851140811
20
47.4486714747869
30
0
0
VERTEX
8
0
10
130.767651431384
20
47.6270892109453
30
0
0
VERTEX
8
0
10
131.506451721957
20
47.7931997301363
30
0
0
VERTEX
8
0
10
132.24525201253
20
47.9534951390442
30
0
0
VERTEX
8
0
10
132.984052303103
20
48.1105661777673
30
0
0
VERTEX
8
0
10
133.722852593675
20
48.2792853072981
30
0
0
VERTEX
8
0
10
134.461652884248
20
48.44806296546
30
0
0
VERTEX
8
0
10
135.200453174821
20
48.5990609573677
30
0
0
VERTEX
8
0
10
135.939253465394
20
48.7512532008583
30
0
0
VERTEX
8
0
10
136.678053755967
20
48.9142800622217
30
0
0
VERTEX
8
0
10
137.416854046539
20
49.0741522282661
30
0
0
VERTEX
8
0
10
138.155654337112
20
49.2232943888428
30
0
0
VERTEX
8
0
10
138.894454627685
20
49.3553183518226
30
0
0
VERTEX
8
0
10
139.633254918258
20
49.4842474465717
30
0
0
VERTEX
8
0
10
140.372055208831
20
49.5977737300617
30
0
0
VERTEX
8
0
10
141.110855499403
20
49.7099772316024
30
0
0
VERTEX
8
0
10
141.849655789976
20
49.8246853225014
30
0
0
VERTEX
8
0
10
142.588456080549
20
49.9389967882619
30
0
0
VERTEX
8
0
10
143.327256371122
20
50.0337525287317
30
0
0
VERTEX
8
0
10
144.066056661695
20
50.1596451871539
30
0
0
VERTEX
8
0
10
144.804856952268
20
50.2959415400572
30
0
0
VERTEX
8
0
10
145.54365724284
20
50.4172325259279
30
0
0
VERTEX
8
0
10
146.282457533413
20
50.5339251403832
30
0
0
VERTEX
8
0
10
147.021257823986
20
50.6464657125245
30
0
0
VERTEX
8
0
10
147.760058114559
20
50.7595217353079
30
0
0
VERTEX
8
0
10
148.498858405132
20
50.8521263777957
30
0
0
VERTEX
8
0
10
149.237658695704
20
50.9377060922103
30
0
0
VERTEX
8
0
10
149.976458986277
20
51.0154093288218
30
0
0
VERTEX
8
0
10
150.71525927685
20
51.0885794045993
30
0
0
VERTEX
8
0
10
151.454059567423
20
51.1589364102853
30
0
0
VERTEX
8
0
10
152.192859857996
20
51.1753100371971
30
0
0
VERTEX
8
0
10
152.931660148568
20
51.1914325907501
30
0
0
VERTEX
8
0
10
153.670460439141
20
51.1920113780298
30
0
0
VERTEX
8
0
10
154.409260729714
20
51.1933605894421
30
0
0
VERTEX
8
0
10
155.148061020287
20
51.2181574837041
30
0
0
SEQEND
8
0
0
POLYLINE
8
0
62
2
70
0
10
0
20
0
30
0
0
VERTEX
8
0
10
6.64920261515514
20
12.7084171284985
30
0
0
VERTEX
8
0
10
7.38800290572793
20
12.9954844697177
30
0
0
VERTEX
8
0
10
8.12680319630072
20
13.2825518109369
30
0
0
VERTEX
8
0
10
8.86560348687352
20
13.5696191521561
30
0
0
VERTEX
8
0
10
9.60440377744631
20
13.850577772346
30
0
0
VERTEX
8
0
10
10.3432040680191
20
14.1315372977946
30
0
0
VERTEX
8
0
10
11.0820043585919
20
14.4124968232432
30
0
0
VERTEX
8
0
10
11.8208046491647
20
14.6934563486918
30
0
0
VERTEX
8
0
10
12.5596049397375
20
14.943933252099
30
0
0
VERTEX
8
0
10
13.2984052303103
20
15.2035154223504
30
0
0
VERTEX
8
0
10
14.0372055208831
20
15.4630975926018
30
0
0
VERTEX
8
0
10
14.7760058114559
20
15.6524513539052
30
0
0
VERTEX
8
0
10
15.5148061020287
20
15.8295780112532
30
0
0
VERTEX
8
0
10
16.2536063926015
20
16.0067046686013
30
0
0
VERTEX
8
0
10
16.9924066831742
20
16.1838313259493
30
0
0
VERTEX
8
0
10
17.731206973747
20
16.3180431117351
30
0
0
VERTEX
8
0
10
18.4700072643198
20
16.4615767823448
30
0
0
VERTEX
8
0
10
19.2088075548926
20
16.6051104529544
30
0
0
VERTEX
8
0
10
19.9476078454654
20
16.7550873551195
30
0
0
VERTEX
8
0
10
20.6864081360382
20
16.907782749385
30
0
0
VERTEX
8
0
10
21.425208426611
20
17.0604781436505
30
0
0
VERTEX
8
0
10
22.1640087171838
20
17.2207500774641
30
0
0
VERTEX
8
0
10
22.9028090077566
20
17.4533605862986
30
0
0
VERTEX
8
0
10
23.6416092983294
20
17.7308918709974
30
0
0
VERTEX
8
0
10
24.3804095889022
20
17.9903469721966
30
0
0
VERTEX
8
0
10
25.119209879475
20
18.2867063605201
30
0
0
VERTEX
8
0
10
25.8580101700478
20
18.620924674243
30
0
0
VERTEX
8
0
10
26.5968104606206
20
18.8976105832084
30
0
0
VERTEX
8
0
10
27.3356107511934
20
19.1320496253068
30
0
0
VERTEX
8
0
10
28.0744110417661
20
19.3899805533324
30
0
0
VERTEX
8
0
10
28.8132113323389
20
19.6484903011818
30
0
0
VERTEX
8
0
10
29.5520116229117
20
19.917781632221
30
0
0
VERTEX
8
0
10
30.2908119134845
20
20.1867499588298
30
0
0
VERTEX
8
0
10
31.0296122040573
20
20.3717981614128
30
0
0
VERTEX
8
0
10
31.7684124946301
20
20.581107494539
30
0
0
VERTEX
8
0
10
32.5072127852029
20
20.8087814083521
30
0
0
VERTEX
8
0
10
33.2460130757757
20
21.035936108265
30
0
0
VERTEX
8
0
10
33.9848133663485
20
21.2643042657375
30
0
0
VERTEX
8
0
10
34.7236136569213
20
21.5354646499461
30
0
0
VERTEX
8
0
10
35.4624139474941
20
21.8153765258335
30
0
0
VERTEX
8
0
10
36.2012142380668
20
22.1281178249733
30
0
0
VERTEX
8
0
10
36.9400145286396
20
22.4376344965852
30
0
0
VERTEX
8
0
10
37.6788148192124
20
22.8091024578979
30
0
0
VERTEX
8
0
10
38.4176151097852
20
23.1701498038948
30
0
0
VERTEX
8
0
10
39.156415400358
20
23.5359291227432
30
0
0
VERTEX
8
0
10
39.8952156909308
20
23.9019611084394
30
0
0
VERTEX
8
0
10
40.6340159815036
20
24.2711999775133
30
0
0
VERTEX
8
0
10
41.3728162720764
20
24.5507908255812
30
0
0
VERTEX
8
0
10
42.1116165626492
20
24.8455960410705
30
0
0
VERTEX
8
0
10
42.850416853222
20
25.1418456987073
30
0
0
VERTEX
8
0
10
43.5892171437947
20
25.4363431242835
30
0
0
VERTEX
8
0
10
44.3280174343675
20
25.729473063953
30
0
0
VERTEX
8
0
10
45.0668177249403
20
26.0275902432029
30
0
0
VERTEX
8
0
10
45.8056180155131
20
26.3305252643095
30
0
0
VERTEX
8
0
10
46.5444183060859
20
26.6198071765046
30
0
0
VERTEX
8
0
10
47.2832185966587
20
26.9130933354415
30
0
0
VERTEX
8
0
10
48.0220188872315
20
27.2168754657703
30
0
0
VERTEX
8
0
10
48.7608191778043
20
27.5253137560243
30
0
0
VERTEX
8
0
10
49.4996194683771
20
27.8016471285851
30
0
0
VERTEX
8
0
10
50.2384197589499
20
28.0930918109492
30
0
0
VERTEX
8
0
10
50.9772200495227
20
28.414469846025
30
0
0
VERTEX
8
0
10
51.7160203400954
20
28.7147104640727
30
0
0
VERTEX
8
0
10
52.4548206306682
20
29.016039378566
30
0
0
VERTEX
8
0
10
53.193620921241
20
29.3123728363785
30
0
0
VERTEX
8
0
10
53.9324212118138
20
29.6117911411694
30
0
0
VERTEX
8
0
10
54.6712215023866
20
29.9280975021174
30
0
0
VERTEX
8
0
10
55.4100217929594
20
30.2462468564496
30
0
0
VERTEX
8
0
10
56.1488220835322
20
30.500488820352
30
0
0
VERTEX
8
0
10
56.887622374105
20
30.8047116744384
30
0
0
VERTEX
8
0
10
57.6264226646778
20
31.1272832168944
30
0
0
VERTEX
8
0
10
58.3652229552506
20
31.4356029970826
30
0
0
VERTEX
8
0
10
59.1040232458233
20
31.7389183345796
30
0
0
VERTEX
8
0
10
59.8428235363961
20
32.0227158992178
30
0
0
VERTEX
8
0
10
60.5816238269689
20
32.3097132833519
30
0
0
VERTEX
8
0
10
61.3204241175417
20
32.5342313941476
30
0
0
VERTEX
8
0
10
62.0592244081145
20
32.7647817356586
30
0
0
VERTEX
8
0
10
62.7980246986873
20
32.9937089602209
30
0
0
VERTEX
8
0
10
63.5368249892601
20
33.214409642949
30
0
0
VERTEX
8
0
10
64.2756252798329
20
33.4288280782175
30
0
0
VERTEX
8
0
10
65.0144255704057
20
33.6327731599565
30
0
0
VERTEX
8
0
10
65.7532258609785
20
33.8365829609586
30
0
0
VERTEX
8
0
10
66.4920261515512
20
34.0132073721839
30
0
0
VERTEX
8
0
10
67.230826442124
20
34.1899137369531
30
0
0
VERTEX
8
0
10
67.9696267326968
20
34.3040563937564
30
0
0
VERTEX
8
0
10
68.7084270232696
20
34.4357172317031
30
0
0
VERTEX
8
0
10
69.4472273138424
20
34.5334160686058
30
0
0
VERTEX
8
0
10
70.1860276044152
20
34.6903892742276
30
0
0
VERTEX
8
0
10
70.924827894988
20
34.8602058642123
30
0
0
VERTEX
8
0
10
71.6636281855608
20
34.9871179051583
30
0
0
VERTEX
8
0
10
72.4024284761336
20
35.1060635787837
30
0
0
VERTEX
8
0
10
73.1412287667064
20
35.2222362597361
30
0
0
VERTEX
8
0
10
73.8800290572792
20
35.3389071176222
30
0
0
VERTEX
8
0
10
74.6188293478519
20
35.4064752904895
30
0
0
VERTEX
8
0
10
75.3576296384247
20
35.4786370396436
30
0
0
VERTEX
8
0
10
76.0964299289975
20
35.5475918444571
30
0
0
VERTEX
8
0
10
76.8352302195703
20
35.5954419465314
30
0
0
VERTEX
8
0
10
77.5740305101431
20
35.6341339207712
30
0
0
VERTEX
8
0
10
78.3128308007159
20
35.6631358241046
30
0
0
VERTEX
8
0
10
79.0516310912887
20
35.6928796420444
30
0
0
VERTEX
8
0
10
79.7904313818615
20
35.7385003807049
30
0
0
VERTEX
8
0
10
80.5292316724343
20
35.7824667297431
30
0
0
VERTEX
8
0
10
81.2680319630071
20
35.7094984368378
30
0
0
VERTEX
8
0
10
82.0068322535798
20
35.6874590212004
30
0
0
VERTEX
8
0
10
82.7456325441526
20
35.6755280084655
30
0
0
VERTEX
8
0
10
83.4844328347254
20
35.6911117557702
30
0
0
VERTEX
8
0
10
84.2232331252982
20
35.7090349339205
30
0
0
VERTEX
8
0
10
84.962033415871
20
35.7703037911087
30
0
0
VERTEX
8
0
10
85.7008337064438
20
35.8329547318049
30
0
0
VERTEX
8
0
10
86.4396339970166
20
35.9018981617534
30
0
0
VERTEX
8
0
10
87.1784342875894
20
35.9693949632689
30
0
0
VERTEX
8
0
10
87.9172345781622
20
36.0627755550753
30
0
0
VERTEX
8
0
10
88.656034868735
20
36.1840741890204
30
0
0
VERTEX
8
0
10
89.3948351593077
20
36.3157023849815
30
0
0
VERTEX
8
0
10
90.1336354498805
20
36.4677413881093
30
0
0
VERTEX
8
0
10
90.8724357404533
20
36.6242759468864
30
0
0
VERTEX
8
0
10
91.6112360310261
20
36.7486282806025
30
0
0
VERTEX
8
0
10
92.3500363215989
20
36.8786434223032
30
0
0
VERTEX
8
0
10
93.0888366121717
20
37.029746691116
30
0
0
VERTEX
8
0
10
93.8276369027445
20
37.1826445566693
30
0
0
VERTEX
8
0
10
94.5664371933173
20
37.3392089040871
30
0
0
VERTEX
8
0
10
95.3052374838901
20
37.5031892640428
30
0
0
VERTEX
8
0
10
96.0440377744629
20
37.6709453987474
30
0
0
VERTEX
8
0
10
96.7828380650356
20
37.8575867513527
30
0
0
VERTEX
8
0
10
97.5216383556084
20
38.0435969856401
30
0
0
VERTEX
8
0
10
98.2604386461812
20
38.2205025033673
30
0
0
VERTEX
8
0
10
98.999238936754
20
38.3984861288216
30
0
0
VERTEX
8
0
10
99.7380392273268
20
38.5316036956637
30
0
0
VERTEX
8
0
10
100.4768395179
20
38.7363008334143
30
0
0
VERTEX
8
0
10
101.215639808472
20
38.9928834086709
30
0
0
VERTEX
8
0
10
101.954440099045
20
39.268202874527
30
0
0
VERTEX
8
0
10
102.693240389618
20
39.5464898934764
30
0
0
VERTEX
8
0
10
103.432040680191
20
39.6983975612689
30
0
0
VERTEX
8
0
10
104.170840970764
20
39.8441717971341
30
0
0
VERTEX
8
0
10
104.909641261336
20
40.0069930068777
30
0
0
VERTEX
8
0
10
105.648441551909
20
40.1657167676547
30
0
0
VERTEX
8
0
10
106.387241842482
20
40.3944147673784
30
0
0
VERTEX
8
0
10
107.126042133055
20
40.6010646256756
30
0
0
VERTEX
8
0
10
107.864842423628
20
40.8069825644715
30
0
0
VERTEX
8
0
10
108.6036427142
20
41.0185679695958
30
0
0
VERTEX
8
0
10
109.342443004773
20
41.2317859901839
30
0
0
VERTEX
8
0
10
110.081243295346
20
41.4477871009178
30
0
0
VERTEX
8
0
10
110.820043585919
20
41.6637226765293
30
0
0
VERTEX
8
0
10
111.558843876491
20
41.8827266533941
30
0
0
VERTEX
8
0
10
112.297644167064
20
42.100276729046
30
0
0
VERTEX
8
0
10
113.036444457637
20
42.3173297937866
30
0
0
VERTEX
8
0
10
113.77524474821
20
42.5361816410809
30
0
0
VERTEX
8
0
10
114.514045038783
20
42.7561302429614
30
0
0
VERTEX
8
0
10
115.252845329355
20
42.9763943430416
30
0
0
VERTEX
8
0
10
115.991645619928
20
43.1969691150855
30
0
0
VERTEX
8
0
10
116.730445910501
20
43.4450481144763
30
0
0
VERTEX
8
0
10
117.469246201074
20
43.6915033541484
30
0
0
VERTEX
8
0
10
118.208046491647
20
43.9266623199883
30
0
0
VERTEX
8
0
10
118.946846782219
20
44.1671547121276
30
0
0
VERTEX
8
0
10
119.685647072792
20
44.4092573115895
30
0
0
VERTEX
8
0
10
120.424447363365
20
44.6465661736177
30
0
0
VERTEX
8
0
10
121.163247653938
20
44.8836833611794
30
0
0
VERTEX
8
0
10
121.902047944511
20
45.121301049615
30
0
0
VERTEX
8
0
10
122.640848235083
20
45.3594113732239
30
0
0
VERTEX
8
0
10
123.379648525656
20
45.6082494370158
30
0
0
VERTEX
8
0
10
124.118448816229
20
45.8550806574487
30
0
0
VERTEX
8
0
10
124.857249106802
20
46.0767075740067
30
0
0
VERTEX
8
0
10
125.596049397375
20
46.2883324079028
30
0
0
VERTEX
8
0
10
126.334849687947
20
46.4942442803433
30
0
0
VERTEX
8
0
10
127.07364997852
20
46.674547768129
30
0
0
VERTEX
8
0
10
127.812450269093
20
46.8480370833498
30
0
0
VERTEX
8
0
10
128.551250559666
20
47.0528852900878
30
0
0
VERTEX
8
0
10
129.290050850239
20
47.2535907308162
30
0
0
VERTEX
8
0
10
130.028851140811
20
47.4486714747869
30
0
0
VERTEX
8
0
10
130.767651431384
20
47.6270892109453
30
0
0
VERTEX
8
0
10
131.506451721957
20
47.7931997301363
30
0
0
VERTEX
8
0
10
132.24525201253
20
47.9534951390442
30
0
0
VERTEX
8
0
10
132.984052303103
20
48.1105661777673
30
0
0
VERTEX
8
0
10
133.722852593675
20
48.2792853072981
30
0
0
VERTEX
8
0
10
134.461652884248
20
48.44806296546
30
0
0
VERTEX
8
0
10
135.200453174821
20
48.5990609573677
30
0
0
VERTEX
8
0
10
135.939253465394
20
48.7512532008583
30
0
0
VERTEX
8
0
10
136.678053755967
20
48.9142800622217
30
0
0
VERTEX
8
0
10
137.416854046539
20
49.0741522282661
30
0
0
VERTEX
8
0
10
138.155654337112
20
49.2232943888428
30
0
0
VERTEX
8
0
10
138.894454627685
20
49.3553183518226
30
0
0
VERTEX
8
0
10
139.633254918258
20
49.4842474465717
30
0
0
VERTEX
8
0
10
140.372055208831
20
49.5977737300617
30
0
0
VERTEX
8
0
10
141.110855499403
20
49.7099772316024
30
0
0
VERTEX
8
0
10
141.849655789976
20
49.8246853225014
30
0
0
VERTEX
8
0
10
142.588456080549
20
49.9389967882619
30
0
0
VERTEX
8
0
10
143.327256371122
20
50.0337525287317
30
0
0
VERTEX
8
0
10
144.066056661695
20
50.1596451871539
30
0
0
VERTEX
8
0
10
144.804856952268
20
50.2959415400572
30
0
0
VERTEX
8
0
10
145.54365724284
20
50.4172325259279
30
0
0
VERTEX
8
0
10
146.282457533413
20
50.5339251403832
30
0
0
VERTEX
8
0
10
147.021257823986
20
50.6464657125245
30
0
0
VERTEX
8
0
10
147.760058114559
20
50.7595217353079
30
0
0
VERTEX
8
0
10
148.498858405132
20
50.8521263777957
30
0
0
VERTEX
8
0
10
149.237658695704
20
50.9377060922103
30
0
0
VERTEX
8
0
10
149.976458986277
20
51.0154093288218
30
0
0
VERTEX
8
0
10
150.71525927685
20
51.0885794045993
30
0
0
VERTEX
8
0
10
151.454059567423
20
51.1589364102853
30
0
0
VERTEX
8
0
10
152.192859857996
20
51.1753100371971
30
0
0
VERTEX
8
0
10
152.931660148568
20
51.1914325907501
30
0
0
VERTEX
8
0
10
153.670460439141
20
51.1920113780298
30
0
0
VERTEX
8
0
10
154.409260729714
20
51.1933605894421
30
0
0
VERTEX
8
0
10
155.148061020287
20
51.2181574837041
30
0
0
SEQEND
8
0
0
POLYLINE
8
0
62
3
70
0
10
0
20
0
30
0
0
VERTEX
8
0
10
6.64920261515514
20
10.0571728336334
30
0
0
VERTEX
8
0
10
7.38800290572793
20
11.9144937916884
30
0
0
VERTEX
8
0
10
8.12680319630072
20
11.6201226444535
30
0
0
VERTEX
8
0
10
8.86560348687352
20
13.0123784398989
30
0
0
VERTEX
8
0
10
9.60440377744631
20
14.5127006994964
30
0
0
VERTEX
8
0
10
10.3432040680191
20
14.6782993953421
30
0
0
VERTEX
8
0
10
11.0820043585919
20
15.8637999127625
30
0
0
VERTEX
8
0
10
11.8208046491647
20
17.1462402699444
30
0
0
VERTEX
8
0
10
12.5596049397375
20
17.5616421037048
30
0
0
VERTEX
8
0
10
13.2984052303103
20
18.6252390722912
30
0
0
VERTEX
8
0
10
14.0372055208831
20
19.7704736088615
30
0
0
VERTEX
8
0
10
14.7760058114559
20
20.3209993370812
30
0
0
VERTEX
8
0
10
15.5148061020287
20
21.3067018809679
30
0
0
VERTEX
8
0
10
16.2536063926015
20
22.3590592762555
30
0
0
VERTEX
8
0
10
16.9924066831742
20
22.9849556270212
30
0
0
VERTEX
8
0
10
17.731206973747
20
23.9158799684096
30
0
0
VERTEX
8
0
10
18.4700072643198
20
24.9008918184145
30
0
0
VERTEX
8
0
10
19.2088075548926
20
25.5696128536745
30
0
0
VERTEX
8
0
10
19.9476078454654
20
26.4588995119806
30
0
0
VERTEX
8
0
10
20.6864081360382
20
27.3922695296607
30
0
0
VERTEX
8
0
10
21.425208426611
20
28.0850299394673
30
0
0
VERTEX
8
0
10
22.1640087171838
20
28.9408011829318
30
0
0
VERTEX
8
0
10
22.9028090077566
20
29.8327939488005
30
0
0
VERTEX
8
0
10
23.6416092983294
20
30.5381933269382
30
0
0
VERTEX
8
0
10
24.3804095889022
20
31.3658453176235
30
0
0
VERTEX
8
0
10
25.119209879475
20
32.22352658698
30
0
0
VERTEX
8
0
10
25.8580101700478
20
32.9343726114349
30
0
0
VERTEX
8
0
10
26.5968104606206
20
33.7377094185184
30
0
0
VERTEX
8
0
10
27.3356107511934
20
34.5661594540161
30
0
0
VERTEX
8
0
10
28.0744110417661
20
35.2777836661285
30
0
0
VERTEX
8
0
10
28.8132113323389
20
36.0596203548303
30
0
0
VERTEX
8
0
10
29.5520116229117
20
36.8626289616266
30
0
0
VERTEX
8
0
10
30.2908119134845
20
37.5719414370654
30
0
0
VERTEX
8
0
10
31.0296122040573
20
38.3344459590933
30
0
0
VERTEX
8
0
10
31.7684124946301
20
39.1149304729575
30
0
0
VERTEX
8
0
10
32.5072127852029
20
39.8198627356669
30
0
0
VERTEX
8
0
10
33.2460130757757
20
40.5647604634639
30
0
0
VERTEX
8
0
10
33.9848133663485
20
41.3250277777429
30
0
0
VERTEX
8
0
10
34.7236136569213
20
42.0241907521411
30
0
0
VERTEX
8
0
10
35.4624139474941
20
42.7528924963964
30
0
0
VERTEX
8
0
10
36.2012142380668
20
43.4948092682064
30
0
0
VERTEX
8
0
10
36.9400145286396
20
44.1872758360449
30
0
0
VERTEX
8
0
10
37.6788148192124
20
44.9009611038698
30
0
0
VERTEX
8
0
10
38.4176151097852
20
45.6260677725801
30
0
0
VERTEX
8
0
10
39.156415400358
20
46.3112303769185
30
0
0
VERTEX
8
0
10
39.8952156909308
20
47.0109033363178
30
0
0
VERTEX
8
0
10
40.6340159815036
20
47.7204925900545
30
0
0
VERTEX
8
0
10
41.3728162720764
20
48.3979675707147
30
0
0
VERTEX
8
0
10
42.1116165626492
20
49.0844957685603
30
0
0
VERTEX
8
0
10
42.850416853222
20
49.7796678491217
30
0
0
VERTEX
8
0
10
43.5892171437947
20
50.4492297354412
30
0
0
VERTEX
8
0
10
44.3280174343675
20
51.1233715771904
30
0
0
VERTEX
8
0
10
45.0668177249403
20
51.8050741041998
30
0
0
VERTEX
8
0
10
45.8056180155131
20
52.4666096101061
30
0
0
VERTEX
8
0
10
46.5444183060859
20
53.1290343186268
30
0
0
VERTEX
8
0
10
47.2832185966587
20
53.7980915307023
30
0
0
VERTEX
8
0
10
48.0220188872315
20
54.4515668063012
30
0
0
VERTEX
8
0
10
48.7608191778043
20
55.1028692300855
30
0
0
VERTEX
8
0
10
49.4996194683771
20
55.7600038462882
30
0
0
VERTEX
8
0
10
50.2384197589499
20
56.4054408354005
30
0
0
VERTEX
8
0
10
50.9772200495227
20
57.0461526589703
30
0
0
VERTEX
8
0
10
51.7160203400954
20
57.6920025047199
30
0
0
VERTEX
8
0
10
52.4548206306682
20
58.3294616770665
30
0
0
VERTEX
8
0
10
53.193620921241
20
58.9600600772214
30
0
0
VERTEX
8
0
10
53.9324212118138
20
59.5951909411518
30
0
0
VERTEX
8
0
10
54.6712215023866
20
60.2247585688613
30
0
0
VERTEX
8
0
10
55.4100217929594
20
60.84567303517
30
0
0
VERTEX
8
0
10
56.1488220835322
20
61.4705887809729
30
0
0
VERTEX
8
0
10
56.887622374105
20
62.0923675136394
30
0
0
VERTEX
8
0
10
57.6264226646778
20
62.703985340952
30
0
0
VERTEX
8
0
10
58.3652229552506
20
63.3191360056233
30
0
0
VERTEX
8
0
10
59.1040232458233
20
63.9332378868182
30
0
0
VERTEX
8
0
10
59.8428235363961
20
64.5359087099923
30
0
0
VERTEX
8
0
10
60.5816238269689
20
65.1416971240513
30
0
0
VERTEX
8
0
10
61.3204241175417
20
65.7482384578692
30
0
0
VERTEX
8
0
10
62.0592244081145
20
66.3422781100667
30
0
0
VERTEX
8
0
10
62.7980246986873
20
66.939065446738
30
0
0
VERTEX
8
0
10
63.5368249892601
20
67.5381631116422
30
0
0
VERTEX
8
0
10
64.2756252798329
20
68.1238570352112
30
0
0
VERTEX
8
0
10
65.0144255704057
20
68.7119676150399
30
0
0
VERTEX
8
0
10
65.7532258609785
20
69.3037365655158
30
0
0
VERTEX
8
0
10
66.4920261515512
20
69.881342982264
30
0
0
VERTEX
8
0
10
67.230826442124
20
70.4610686209097
30
0
0
VERTEX
8
0
10
67.9696267326968
20
71.0456204405458
30
0
0
VERTEX
8
0
10
68.7084270232696
20
71.6153734996252
30
0
0
VERTEX
8
0
10
69.4472273138424
20
72.1869776920085
30
0
0
VERTEX
8
0
10
70.1860276044152
20
72.7644201912746
30
0
0
VERTEX
8
0
10
70.924827894988
20
73.3265333742164
30
0
0
VERTEX
8
0
10
71.6636281855608
20
73.8902556787969
30
0
0
VERTEX
8
0
10
72.4024284761336
20
74.4606937104837
30
0
0
VERTEX
8
0
10
73.1412287667064
20
75.0153639280046
30
0
0
VERTEX
8
0
10
73.8800290572792
20
75.5714251114296
30
0
0
VERTEX
8
0
10
74.6188293478519
20
76.134963099827
30
0
0
VERTEX
8
0
10
75.3576296384247
20
76.6823762866561
30
0
0
VERTEX
8
0
10
76.0964299289975
20
77.2309852844957
30
0
0
VERTEX
8
0
10
76.8352302195703
20
77.7877326891199
30
0
0
VERTEX
8
0
10
77.5740305101431
20
78.3280726651829
30
0
0
VERTEX
8
0
10
78.3128308007159
20
78.8694377729004
30
0
0
VERTEX
8
0
10
79.0516310912887
20
79.4195207117315
30
0
0
VERTEX
8
0
10
79.7904313818615
20
79.9529860265121
30
0
0
VERTEX
8
0
10
80.5292316724343
20
80.4873372667915
30
0
0
VERTEX
8
0
10
81.2680319630071
20
81.0309268043795
30
0
0
VERTEX
8
0
10
82.0068322535798
20
81.5577725222533
30
0
0
VERTEX
8
0
10
82.7456325441526
20
82.0854242208119
30
0
0
VERTEX
8
0
10
83.4844328347254
20
82.6228356676619
30
0
0
VERTEX
8
0
10
84.2232331252982
20
83.1435517725339
30
0
0
VERTEX
8
0
10
84.962033415871
20
83.6651723700794
30
0
0
VERTEX
8
0
10
85.7008337064438
20
84.1969791815941
30
0
0
VERTEX
8
0
10
86.4396339970166
20
84.7117955858398
30
0
0
VERTEX
8
0
10
87.1784342875894
20
85.2269390953251
30
0
0
VERTEX
8
0
10
87.9172345781622
20
85.7520987851302
30
0
0
VERTEX
8
0
10
88.656034868735
20
86.2598720475335
30
0
0
VERTEX
8
0
10
89.3948351593077
20
86.7675639164027
30
0
0
VERTEX
8
0
10
90.1336354498805
20
87.2852498313615
30
0
0
VERTEX
8
0
10
90.8724357404533
20
87.7853218139474
30
0
0
VERTEX
8
0
10
91.6112360310261
20
88.2849957223214
30
0
0
VERTEX
8
0
10
92.3500363215989
20
88.7946502599519
30
0
0
VERTEX
8
0
10
93.0888366121717
20
89.2865455685748
30
0
0
VERTEX
8
0
10
93.8276369027445
20
89.7777706289665
30
0
0
VERTEX
8
0
10
94.5664371933173
20
90.2789468648831
30
0
0
VERTEX
8
0
10
95.3052374838901
20
90.7622772411325
30
0
0
VERTEX
8
0
10
96.0440377744629
20
91.2446945940348
30
0
0
VERTEX
8
0
10
96.7828380650356
20
91.7370109607555
30
0
0
VERTEX
8
0
10
97.5216383556084
20
92.2114420716845
30
0
0
VERTEX
8
0
10
98.2604386461812
20
92.6847395603757
30
0
0
VERTEX
8
0
10
98.999238936754
20
93.1678595461666
30
0
0
VERTEX
8
0
10
99.7380392273268
20
93.6330949799928
30
0
0
VERTEX
8
0
10
100.4768395179
20
94.0969941508562
30
0
0
VERTEX
8
0
10
101.215639808472
20
94.570615164183
30
0
0
VERTEX
8
0
10
101.954440099045
20
95.0263873360508
30
0
0
VERTEX
8
0
10
102.693240389618
20
95.4806357827917
30
0
0
VERTEX
8
0
10
103.432040680191
20
95.9444822766181
30
0
0
VERTEX
8
0
10
104.170840970764
20
96.3905467136196
30
0
0
VERTEX
8
0
10
104.909641261336
20
96.8349131591633
30
0
0
VERTEX
8
0
10
105.648441551909
20
97.2887320453648
30
0
0
VERTEX
8
0
10
106.387241842482
20
97.7248635462481
30
0
0
VERTEX
8
0
10
107.126042133055
20
98.1591344921463
30
0
0
VERTEX
8
0
10
107.864842423628
20
98.6026919172037
30
0
0
VERTEX
8
0
10
108.6036427142
20
99.028681849349
30
0
0
VERTEX
8
0
10
109.342443004773
20
99.45265919787
30
0
0
VERTEX
8
0
10
110.081243295346
20
99.8857381904719
30
0
0
VERTEX
8
0
10
110.820043585919
20
100.301392524782
30
0
0
VERTEX
8
0
10
111.558843876491
20
100.71489184313
30
0
0
VERTEX
8
0
10
112.297644167064
20
101.137290553337
30
0
0
VERTEX
8
0
10
113.036444457637
20
101.542428404328
30
0
0
VERTEX
8
0
10
113.77524474821
20
101.945277634443
30
0
0
VERTEX
8
0
10
114.514045038783
20
102.356807993874
30
0
0
VERTEX
8
0
10
115.252845329355
20
102.751260521174
30
0
0
VERTEX
8
0
10
115.991645619928
20
103.143299011912
30
0
0
VERTEX
8
0
10
116.730445910501
20
103.543785705503
30
0
0
VERTEX
8
0
10
117.469246201074
20
103.92739528399
30
0
0
VERTEX
8
0
10
118.208046491647
20
104.308473065141
30
0
0
VERTEX
8
0
10
118.946846782219
20
104.697752741827
30
0
0
VERTEX
8
0
10
119.685647072792
20
105.070372338386
30
0
0
VERTEX
8
0
10
120.424447363365
20
105.440349582486
30
0
0
VERTEX
8
0
10
121.163247653938
20
105.818270254875
30
0
0
VERTEX
8
0
10
121.902047944511
20
106.179762969224
30
0
0
VERTEX
8
0
10
122.640848235083
20
106.538509603769
30
0
0
VERTEX
8
0
10
123.379648525656
20
106.904930202022
30
0
0
VERTEX
8
0
10
124.118448816229
20
107.255168942093
30
0
0
VERTEX
8
0
10
124.857249106802
20
107.602564386202
30
0
0
VERTEX
8
0
10
125.596049397375
20
107.957354441524
30
0
0
VERTEX
8
0
10
126.334849687947
20
108.296221712685
30
0
0
VERTEX
8
0
10
127.07364997852
20
108.632154720284
30
0
0
VERTEX
8
0
10
127.812450269093
20
108.975194160888
30
0
0
VERTEX
8
0
10
128.551250559666
20
109.302581954983
30
0
0
VERTEX
8
0
10
129.290050850239
20
109.626950552358
30
0
0
VERTEX
8
0
10
130.028851140811
20
109.958129600364
30
0
0
VERTEX
8
0
10
130.767651431384
20
110.273939375489
30
0
0
VERTEX
8
0
10
131.506451721957
20
110.586650885978
30
0
0
VERTEX
8
0
10
132.24525201253
20
110.905870048282
30
0
0
VERTEX
8
0
10
132.984052303103
20
111.210012794655
30
0
0
VERTEX
8
0
10
133.722852593675
20
111.510983947253
30
0
0
VERTEX
8
0
10
134.461652884248
20
111.818154097813
30
0
0
VERTEX
8
0
10
135.200453174821
20
112.110550489051
30
0
0
VERTEX
8
0
10
135.939253465394
20
112.399707611903
30
0
0
VERTEX
8
0
10
136.678053755967
20
112.69475016699
30
0
0
VERTEX
8
0
10
137.416854046539
20
112.975330800741
30
0
0
VERTEX
8
0
10
138.155654337112
20
113.252610105212
30
0
0
VERTEX
8
0
10
138.894454627685
20
113.535457298537
30
0
0
VERTEX
8
0
10
139.633254918258
20
113.804163035738
30
0
0
VERTEX
8
0
10
140.372055208831
20
114.069511002731
30
0
0
VERTEX
8
0
10
141.110855499403
20
114.340106274079
30
0
0
VERTEX
8
0
10
141.849655789976
20
114.596888693854
30
0
0
VERTEX
8
0
10
142.588456080549
20
114.850262582766
30
0
0
VERTEX
8
0
10
143.327256371122
20
115.108561103787
30
0
0
VERTEX
8
0
10
144.066056661695
20
115.353383102453
30
0
0
VERTEX
8
0
10
144.804856952268
20
115.594751616541
30
0
0
VERTEX
8
0
10
145.54365724284
20
115.840720993253
30
0
0
VERTEX
8
0
10
146.282457533413
20
116.073557574624
30
0
0
VERTEX
8
0
10
147.021257823986
20
116.302901738837
30
0
0
VERTEX
8
0
10
147.760058114559
20
116.536522957034
30
0
0
VERTEX
8
0
10
148.498858405132
20
116.757362293373
30
0
0
VERTEX
8
0
10
149.237658695704
20
116.974676639739
30
0
0
VERTEX
8
0
10
149.976458986277
20
117.195945367321
30
0
0
VERTEX
8
0
10
150.71525927685
20
117.404790269016
30
0
0
VERTEX
8
0
10
151.454059567423
20
117.610084497327
30
0
0
VERTEX
8
0
10
152.192859857996
20
117.8190129482
30
0
0
VERTEX
8
0
10
152.931660148568
20
118.015882994049
30
0
0
VERTEX
8
0
10
153.670460439141
20
118.209184419821
30
0
0
VERTEX
8
0
10
154.409260729714
20
118.405804168129
30
0
0
VERTEX
8
0
10
155.148061020287
20
118.590738985387
30
0
0
SEQEND
8
0
0
POLYLINE
8
0
62
4
70
0
10
0
20
0
30
0
0
VERTEX
8
0
10
6.64920261515514
20
14.2402468302406
30
0
0
VERTEX
8
0
10
7.38800290572793
20
14.8074444841291
30
0
0
VERTEX
8
0
10
8.12680319630072
20
15.3929178451933
30
0
0
VERTEX
8
0
10
8.86560348687352
20
15.9781633645799
30
0
0
VERTEX
8
0
10
9.60440377744631
20
16.5654528385942
30
0
0
VERTEX
8
0
10
10.3432040680191
20
17.167853932003
30
0
0
VERTEX
8
0
10
11.0820043585919
20
17.7639987068349
30
0
0
VERTEX
8
0
10
11.8208046491647
20
18.3636548583957
30
0
0
VERTEX
8
0
10
12.5596049397375
20
18.9523796665091
30
0
0
VERTEX
8
0
10
13.2984052303103
20
19.5385410404353
30
0
0
VERTEX
8
0
10
14.0372055208831
20
20.1261746142307
30
0
0
VERTEX
8
0
10
14.7760058114559
20
20.6728462649334
30
0
0
VERTEX
8
0
10
15.5148061020287
20
21.1991567506947
30
0
0
VERTEX
8
0
10
16.2536063926015
20
21.7267336010901
30
0
0
VERTEX
8
0
10
16.9924066831742
20
22.2671650770744
30
0
0
VERTEX
8
0
10
17.731206973747
20
22.7636522421783
30
0
0
VERTEX
8
0
10
18.4700072643198
20
23.2673478844518
30
0
0
VERTEX
8
0
10
19.2088075548926
20
23.7836532674078
30
0
0
VERTEX
8
0
10
19.9476078454654
20
24.290260890031
30
0
0
VERTEX
8
0
10
20.6864081360382
20
24.7979347984839
30
0
0
VERTEX
8
0
10
21.425208426611
20
25.3173511990993
30
0
0
VERTEX
8
0
10
22.1640087171838
20
29.2738076890686
30
0
0
VERTEX
8
0
10
22.9028090077566
20
29.9900043211081
30
0
0
VERTEX
8
0
10
23.6416092983294
20
30.7500690914707
30
0
0
VERTEX
8
0
10
24.3804095889022
20
31.4779749358579
30
0
0
VERTEX
8
0
10
25.119209879475
20
32.2253829645752
30
0
0
VERTEX
8
0
10
25.8580101700478
20
33.0113363137069
30
0
0
VERTEX
8
0
10
26.5968104606206
20
33.742486975376
30
0
0
VERTEX
8
0
10
27.3356107511934
20
34.4483594212606
30
0
0
VERTEX
8
0
10
28.0744110417661
20
35.1848210278003
30
0
0
VERTEX
8
0
10
28.8132113323389
20
35.8994035604498
30
0
0
VERTEX
8
0
10
29.5520116229117
20
36.6180147951373
30
0
0
VERTEX
8
0
10
30.2908119134845
20
37.3537077040767
30
0
0
VERTEX
8
0
10
31.0296122040573
20
38.0219912156394
30
0
0
VERTEX
8
0
10
31.7684124946301
20
38.7017716052963
30
0
0
VERTEX
8
0
10
32.5072127852029
20
39.4088478135435
30
0
0
VERTEX
8
0
10
33.2460130757757
20
40.093451540245
30
0
0
VERTEX
8
0
10
33.9848133663485
20
40.7768165494352
30
0
0
VERTEX
8
0
10
34.7236136569213
20
41.499710580719
30
0
0
VERTEX
8
0
10
35.4624139474941
20
42.2046878066368
30
0
0
VERTEX
8
0
10
36.2012142380668
20
42.9243791826936
30
0
0
VERTEX
8
0
10
36.9400145286396
20
43.6592480467692
30
0
0
VERTEX
8
0
10
37.6788148192124
20
44.4034768524705
30
0
0
VERTEX
8
0
10
38.4176151097852
20
45.1399770274603
30
0
0
VERTEX
8
0
10
39.156415400358
20
45.8955342821301
30
0
0
VERTEX
8
0
10
39.8952156909308
20
46.6289450862547
30
0
0
VERTEX
8
0
10
40.6340159815036
20
47.3616685052088
30
0
0
VERTEX
8
0
10
41.3728162720764
20
48.0650410120969
30
0
0
VERTEX
8
0
10
42.1116165626492
20
48.7542911932907
30
0
0
VERTEX
8
0
10
42.850416853222
20
49.4420734530277
30
0
0
VERTEX
8
0
10
43.5892171437947
20
50.1454651007008
30
0
0
VERTEX
8
0
10
44.3280174343675
20
50.8264534754224
30
0
0
VERTEX
8
0
10
45.0668177249403
20
51.5077837635619
30
0
0
VERTEX
8
0
10
45.8056180155131
20
52.2079109874622
30
0
0
VERTEX
8
0
10
46.5444183060859
20
52.8796562771603
30
0
0
VERTEX
8
0
10
47.2832185966587
20
53.5512670031953
30
0
0
VERTEX
8
0
10
48.0220188872315
20
54.2443859852636
30
0
0
VERTEX
8
0
10
48.7608191778043
20
54.9185569571624
30
0
0
VERTEX
8
0
10
49.4996194683771
20
55.5745141941108
30
0
0
VERTEX
8
0
10
50.2384197589499
20
56.2541489832185
30
0
0
VERTEX
8
0
10
50.9772200495227
20
56.9276844068955
30
0
0
VERTEX
8
0
10
51.7160203400954
20
57.5885533595882
30
0
0
VERTEX
8
0
10
52.4548206306682
20
58.2659094979832
30
0
0
VERTEX
8
0
10
53.193620921241
20
58.919974843337
30
0
0
VERTEX
8
0
10
53.9324212118138
20
59.573498699855
30
0
0
VERTEX
8
0
10
54.6712215023866
20
60.2512055729019
30
0
0
VERTEX
8
0
10
55.4100217929594
20
60.9092533318949
30
0
0
VERTEX
8
0
10
56.1488220835322
20
61.533541184694
30
0
0
VERTEX
8
0
10
56.887622374105
20
62.1982718733258
30
0
0
VERTEX
8
0
10
57.6264226646778
20
62.8517575806
30
0
0
VERTEX
8
0
10
58.3652229552506
20
63.4961578570506
30
0
0
VERTEX
8
0
10
59.1040232458233
20
64.1535561795414
30
0
0
VERTEX
8
0
10
59.8428235363961
20
64.7812199390704
30
0
0
VERTEX
8
0
10
60.5816238269689
20
65.4084779861162
30
0
0
VERTEX
8
0
10
61.3204241175417
20
66.0202511906518
30
0
0
VERTEX
8
0
10
62.0592244081145
20
66.6152303448297
30
0
0
VERTEX
8
0
10
62.7980246986873
20
67.2075114052304
30
0
0
VERTEX
8
0
10
63.5368249892601
20
67.8110181143407
30
0
0
VERTEX
8
0
10
64.2756252798329
20
68.3918925176501
30
0
0
VERTEX
8
0
10
65.0144255704057
20
68.9657938914898
30
0
0
VERTEX
8
0
10
65.7532258609785
20
69.5547781326112
30
0
0
VERTEX
8
0
10
66.4920261515512
20
70.1112277928995
30
0
0
VERTEX
8
0
10
67.230826442124
20
70.6659381014559
30
0
0
VERTEX
8
0
10
67.9696267326968
20
71.2055411243852
30
0
0
VERTEX
8
0
10
68.7084270232696
20
71.7346406449854
30
0
0
VERTEX
8
0
10
69.4472273138424
20
72.2458414768305
30
0
0
VERTEX
8
0
10
70.1860276044152
20
72.8004330444302
30
0
0
VERTEX
8
0
10
70.924827894988
20
73.3422114269399
30
0
0
VERTEX
8
0
10
71.6636281855608
20
73.861872627061
30
0
0
VERTEX
8
0
10
72.4024284761336
20
74.3926502913585
30
0
0
VERTEX
8
0
10
73.1412287667064
20
74.9034761416277
30
0
0
VERTEX
8
0
10
73.8800290572792
20
75.4128853614362
30
0
0
VERTEX
8
0
10
74.6188293478519
20
75.9141170418452
30
0
0
VERTEX
8
0
10
75.3576296384247
20
76.3991614744384
30
0
0
VERTEX
8
0
10
76.0964299289975
20
76.8812029242126
30
0
0
VERTEX
8
0
10
76.8352302195703
20
77.3682710912096
30
0
0
VERTEX
8
0
10
77.5740305101431
20
77.8330250221354
30
0
0
VERTEX
8
0
10
78.3128308007159
20
78.29194506776
30
0
0
VERTEX
8
0
10
79.0516310912887
20
78.7659322914162
30
0
0
VERTEX
8
0
10
79.7904313818615
20
79.2291454642543
30
0
0
VERTEX
8
0
10
80.5292316724343
20
79.6901227564747
30
0
0
VERTEX
8
0
10
81.2680319630071
20
80.1133835575162
30
0
0
VERTEX
8
0
10
82.0068322535798
20
80.541918862934
30
0
0
VERTEX
8
0
10
82.7456325441526
20
80.9736776263845
30
0
0
VERTEX
8
0
10
83.4844328347254
20
81.432036861866
30
0
0
VERTEX
8
0
10
84.2232331252982
20
81.8737468373479
30
0
0
VERTEX
8
0
10
84.962033415871
20
82.3328036832488
30
0
0
VERTEX
8
0
10
85.7008337064438
20
82.8064718066892
30
0
0
VERTEX
8
0
10
86.4396339970166
20
83.2650934980528
30
0
0
VERTEX
8
0
10
87.1784342875894
20
83.7213376850514
30
0
0
VERTEX
8
0
10
87.9172345781622
20
84.2023822741308
30
0
0
VERTEX
8
0
10
88.656034868735
20
84.6775997836296
30
0
0
VERTEX
8
0
10
89.3948351593077
20
85.155248485067
30
0
0
VERTEX
8
0
10
90.1336354498805
20
85.6548614897323
30
0
0
VERTEX
8
0
10
90.8724357404533
20
86.1386553644303
30
0
0
VERTEX
8
0
10
91.6112360310261
20
86.6066886188038
30
0
0
VERTEX
8
0
10
92.3500363215989
20
87.09011757834
30
0
0
VERTEX
8
0
10
93.0888366121717
20
87.5649183196764
30
0
0
VERTEX
8
0
10
93.8276369027445
20
88.0383147730233
30
0
0
VERTEX
8
0
10
94.5664371933173
20
88.5259187462936
30
0
0
VERTEX
8
0
10
95.3052374838901
20
88.9992397274678
30
0
0
VERTEX
8
0
10
96.0440377744629
20
89.4719129426365
30
0
0
VERTEX
8
0
10
96.7828380650356
20
89.964877656568
30
0
0
VERTEX
8
0
10
97.5216383556084
20
90.4403389484617
30
0
0
VERTEX
8
0
10
98.2604386461812
20
90.9096656562619
30
0
0
VERTEX
8
0
10
98.999238936754
20
91.3914780800693
30
0
0
VERTEX
8
0
10
99.7380392273268
20
91.8374275317943
30
0
0
VERTEX
8
0
10
100.4768395179
20
92.3110674642437
30
0
0
VERTEX
8
0
10
101.215639808472
20
92.8182108198156
30
0
0
VERTEX
8
0
10
101.954440099045
20
93.3164507529685
30
0
0
VERTEX
8
0
10
102.693240389618
20
93.8135902678021
30
0
0
VERTEX
8
0
10
103.432040680191
20
94.2688876380324
30
0
0
VERTEX
8
0
10
104.170840970764
20
94.7050434395055
30
0
0
VERTEX
8
0
10
104.909641261336
20
95.1459291749882
30
0
0
VERTEX
8
0
10
105.648441551909
20
95.5961797726303
30
0
0
VERTEX
8
0
10
106.387241842482
20
96.0594943148102
30
0
0
VERTEX
8
0
10
107.126042133055
20
96.5110479274622
30
0
0
VERTEX
8
0
10
107.864842423628
20
96.9730519475728
30
0
0
VERTEX
8
0
10
108.6036427142
20
97.4213446632873
30
0
0
VERTEX
8
0
10
109.342443004773
20
97.8677929569025
30
0
0
VERTEX
8
0
10
110.081243295346
20
98.3258491250594
30
0
0
VERTEX
8
0
10
110.820043585919
20
98.7680429449502
30
0
0
VERTEX
8
0
10
111.558843876491
20
99.2089661496573
30
0
0
VERTEX
8
0
10
112.297644167064
20
99.6593838261472
30
0
0
VERTEX
8
0
10
113.036444457637
20
100.09402459249
30
0
0
VERTEX
8
0
10
113.77524474821
20
100.526827966151
30
0
0
VERTEX
8
0
10
114.514045038783
20
100.96987305867
30
0
0
VERTEX
8
0
10
115.252845329355
20
101.397761108288
30
0
0
VERTEX
8
0
10
115.991645619928
20
101.823154250437
30
0
0
VERTEX
8
0
10
116.730445910501
20
102.269673586769
30
0
0
VERTEX
8
0
10
117.469246201074
20
102.700522107884
30
0
0
VERTEX
8
0
10
118.208046491647
20
103.123931216463
30
0
0
VERTEX
8
0
10
118.946846782219
20
103.558735782814
30
0
0
VERTEX
8
0
10
119.685647072792
20
103.979531705229
30
0
0
VERTEX
8
0
10
120.424447363365
20
104.395621028932
30
0
0
VERTEX
8
0
10
121.163247653938
20
104.820414053734
30
0
0
VERTEX
8
0
10
121.902047944511
20
105.231019433822
30
0
0
VERTEX
8
0
10
122.640848235083
20
105.63915302966
30
0
0
VERTEX
8
0
10
123.379648525656
20
106.060348310528
30
0
0
VERTEX
8
0
10
124.118448816229
20
106.466595416939
30
0
0
VERTEX
8
0
10
124.857249106802
20
106.859281872311
30
0
0
VERTEX
8
0
10
125.596049397375
20
107.255744445295
30
0
0
VERTEX
8
0
10
126.334849687947
20
107.635922050813
30
0
0
VERTEX
8
0
10
127.07364997852
20
108.002278464952
30
0
0
VERTEX
8
0
10
127.812450269093
20
108.373418971488
30
0
0
VERTEX
8
0
10
128.551250559666
20
108.744590115203
30
0
0
VERTEX
8
0
10
129.290050850239
20
109.11119792487
30
0
0
VERTEX
8
0
10
130.028851140811
20
109.482773371161
30
0
0
VERTEX
8
0
10
130.767651431384
20
109.833908960412
30
0
0
VERTEX
8
0
10
131.506451721957
20
110.176904361043
30
0
0
VERTEX
8
0
10
132.24525201253
20
110.524429543174
30
0
0
VERTEX
8
0
10
132.984052303103
20
110.857637035757
30
0
0
VERTEX
8
0
10
133.722852593675
20
111.193078927427
30
0
0
VERTEX
8
0
10
134.461652884248
20
111.535266351034
30
0
0
VERTEX
8
0
10
135.200453174821
20
111.857126414889
30
0
0
VERTEX
8
0
10
135.939253465394
20
112.176669547442
30
0
0
VERTEX
8
0
10
136.678053755967
20
112.507304994531
30
0
0
VERTEX
8
0
10
137.416854046539
20
112.824282314969
30
0
0
VERTEX
8
0
10
138.155654337112
20
113.133748376373
30
0
0
VERTEX
8
0
10
138.894454627685
20
113.441814965796
30
0
0
VERTEX
8
0
10
139.633254918258
20
113.736562959418
30
0
0
VERTEX
8
0
10
140.372055208831
20
114.021753730275
30
0
0
VERTEX
8
0
10
141.110855499403
20
114.312088249778
30
0
0
VERTEX
8
0
10
141.849655789976
20
114.591860542522
30
0
0
VERTEX
8
0
10
142.588456080549
20
114.868597964378
30
0
0
VERTEX
8
0
10
143.327256371122
20
115.142226723362
30
0
0
VERTEX
8
0
10
144.066056661695
20
115.418058495116
30
0
0
VERTEX
8
0
10
144.804856952268
20
115.695546588551
30
0
0
VERTEX
8
0
10
145.54365724284
20
115.971576569741
30
0
0
VERTEX
8
0
10
146.282457533413
20
116.234605557712
30
0
0
VERTEX
8
0
10
147.021257823986
20
116.492962603313
30
0
0
VERTEX
8
0
10
147.760058114559
20
116.756284050796
30
0
0
VERTEX
8
0
10
148.498858405132
20
117.00004366848
30
0
0
VERTEX
8
0
10
149.237658695704
20
117.237887918888
30
0
0
VERTEX
8
0
10
149.976458986277
20
117.476735857481
30
0
0
VERTEX
8
0
10
150.71525927685
20
117.703280829965
30
0
0
VERTEX
8
0
10
151.454059567423
20
117.925751418824
30
0
0
VERTEX
8
0
10
152.192859857996
20
118.128938494032
30
0
0
VERTEX
8
0
10
152.931660148568
20
118.322056050572
30
0
0
VERTEX
8
0
10
153.670460439141
20
118.505650616649
30
0
0
VERTEX
8
0
10
154.409260729714
20
118.693439319291
30
0
0
VERTEX
8
0
10
155.148061020287
20
118.881707445681
30
0
0
SEQEND
8
0
0
POLYLINE
8
0
62
2
70
0
10
0
20
0
30
0
0
VERTEX
8
0
10
6.64920261515514
20
6.96575900332661
30
0
0
VERTEX
8
0
10
7.38800290572793
20
8.43423168564022
30
0
0
VERTEX
8
0
10
8.12680319630072
20
7.67995981236005
30
0
0
VERTEX
8
0
10
8.86560348687352
20
8.6802673061872
30
0
0
VERTEX
8
0
10
9.60440377744631
20
9.78076903813058
30
0
0
VERTEX
8
0
10
10.3432040680191
20
9.46737390641227
30
0
0
VERTEX
8
0
10
11.0820043585919
20
10.2383024581024
30
0
0
VERTEX
8
0
10
11.8208046491647
20
11.1046730316719
30
0
0
VERTEX
8
0
10
12.5596049397375
20
11.0324479720869
30
0
0
VERTEX
8
0
10
13.2984052303103
20
11.6640966285581
30
0
0
VERTEX
8
0
10
14.0372055208831
20
12.3779124526408
30
0
0
VERTEX
8
0
10
14.7760058114559
20
12.4349276095318
30
0
0
VERTEX
8
0
10
15.5148061020287
20
12.9748801698285
30
0
0
VERTEX
8
0
10
16.2536063926015
20
13.582525406516
30
0
0
VERTEX
8
0
10
16.9924066831742
20
13.7098320709937
30
0
0
VERTEX
8
0
10
17.731206973747
20
14.1836860115107
30
0
0
VERTEX
8
0
10
18.4700072643198
20
14.7126466011412
30
0
0
VERTEX
8
0
10
19.2088075548926
20
14.8780671331367
30
0
0
VERTEX
8
0
10
19.9476078454654
20
15.300775293918
30
0
0
VERTEX
8
0
10
20.6864081360382
20
15.7683988001726
30
0
0
VERTEX
8
0
10
21.425208426611
20
15.9534339473401
30
0
0
VERTEX
8
0
10
22.1640087171838
20
16.3345076539755
30
0
0
VERTEX
8
0
10
22.9028090077566
20
16.7524126073998
30
0
0
VERTEX
8
0
10
23.6416092983294
20
16.9459454972198
30
0
0
VERTEX
8
0
10
24.3804095889022
20
17.2918885279142
30
0
0
VERTEX
8
0
10
25.119209879475
20
17.6682627156803
30
0
0
VERTEX
8
0
10
25.8580101700478
20
17.8633963473163
30
0
0
VERTEX
8
0
10
26.5968104606206
20
18.1789252891168
30
0
0
VERTEX
8
0
10
27.3356107511934
20
18.5197928217548
30
0
0
VERTEX
8
0
10
28.0744110417661
20
18.7121651056691
30
0
0
VERTEX
8
0
10
28.8132113323389
20
19.0008681037709
30
0
0
VERTEX
8
0
10
29.5520116229117
20
19.3108271311285
30
0
0
VERTEX
8
0
10
30.2908119134845
20
19.4976624212565
30
0
0
VERTEX
8
0
10
31.0296122040573
20
19.7623787167956
30
0
0
VERTEX
8
0
10
31.7684124946301
20
20.0450519812564
30
0
0
VERTEX
8
0
10
32.5072127852029
20
20.2246014751871
30
0
0
VERTEX
8
0
10
33.2460130757757
20
20.4676524046764
30
0
0
VERTEX
8
0
10
33.9848133663485
20
20.7259739348114
30
0
0
VERTEX
8
0
10
34.7236136569213
20
20.8971721978056
30
0
0
VERTEX
8
0
10
35.4624139474941
20
21.1205084045377
30
0
0
VERTEX
8
0
10
36.2012142380668
20
21.356912493403
30
0
0
VERTEX
8
0
10
36.9400145286396
20
21.5191594949161
30
0
0
VERTEX
8
0
10
37.6788148192124
20
21.7244584689253
30
0
0
VERTEX
8
0
10
38.4176151097852
20
21.9410081116508
30
0
0
VERTEX
8
0
10
39.156415400358
20
22.0940269402576
30
0
0
VERTEX
8
0
10
39.8952156909308
20
22.2827598383422
30
0
0
VERTEX
8
0
10
40.6340159815036
20
22.4812363934645
30
0
0
VERTEX
8
0
10
41.3728162720764
20
22.6249780985314
30
0
0
VERTEX
8
0
10
42.1116165626492
20
22.798456861791
30
0
0
VERTEX
8
0
10
42.850416853222
20
22.9804241416453
30
0
0
VERTEX
8
0
10
43.5892171437947
20
23.115002754909
30
0
0
VERTEX
8
0
10
44.3280174343675
20
23.2744141855874
30
0
0
VERTEX
8
0
10
45.0668177249403
20
23.441265245583
30
0
0
VERTEX
8
0
10
45.8056180155131
20
23.566912610273
30
0
0
VERTEX
8
0
10
46.5444183060859
20
23.713343578091
30
0
0
VERTEX
8
0
10
47.2832185966587
20
23.8663355321238
30
0
0
VERTEX
8
0
10
48.0220188872315
20
23.9833694184531
30
0
0
VERTEX
8
0
10
48.7608191778043
20
24.1178258891535
30
0
0
VERTEX
8
0
10
49.4996194683771
20
24.2581062721472
30
0
0
VERTEX
8
0
10
50.2384197589499
20
24.3669075840764
30
0
0
VERTEX
8
0
10
50.9772200495227
20
24.4903292594103
30
0
0
VERTEX
8
0
10
51.7160203400954
20
24.6189563211086
30
0
0
VERTEX
8
0
10
52.4548206306682
20
24.7199526414765
30
0
0
VERTEX
8
0
10
53.193620921241
20
24.8332244339061
30
0
0
VERTEX
8
0
10
53.9324212118138
20
24.9511830170141
30
0
0
VERTEX
8
0
10
54.6712215023866
20
25.0448366574195
30
0
0
VERTEX
8
0
10
55.4100217929594
20
25.1487978609992
30
0
0
VERTEX
8
0
10
56.1488220835322
20
25.2570120393463
30
0
0
VERTEX
8
0
10
56.887622374105
20
25.343811362264
30
0
0
VERTEX
8
0
10
57.6264226646778
20
25.4392631492964
30
0
0
VERTEX
8
0
10
58.3652229552506
20
25.5386064888774
30
0
0
VERTEX
8
0
10
59.1040232458233
20
25.6190596758429
30
0
0
VERTEX
8
0
10
59.8428235363961
20
25.7067714032066
30
0
0
VERTEX
8
0
10
60.5816238269689
20
25.7980755065104
30
0
0
VERTEX
8
0
10
61.3204241175417
20
25.8727062341145
30
0
0
VERTEX
8
0
10
62.0592244081145
20
25.953420959801
30
0
0
VERTEX
8
0
10
62.7980246986873
20
26.0374828335709
30
0
0
VERTEX
8
0
10
63.5368249892601
20
26.1068275395512
30
0
0
VERTEX
8
0
10
64.2756252798329
20
26.1812671202908
30
0
0
VERTEX
8
0
10
65.0144255704057
20
26.258855854587
30
0
0
VERTEX
8
0
10
65.7532258609785
20
26.3234624695902
30
0
0
VERTEX
8
0
10
66.4920261515512
20
26.3923326371262
30
0
0
VERTEX
8
0
10
67.230826442124
20
26.4641959045248
30
0
0
VERTEX
8
0
10
67.9696267326968
20
26.5246241327468
30
0
0
VERTEX
8
0
10
68.7084270232696
20
26.5886200522192
30
0
0
VERTEX
8
0
10
69.4472273138424
20
26.6554910576497
30
0
0
VERTEX
8
0
10
70.1860276044152
20
26.7123145717527
30
0
0
VERTEX
8
0
10
70.924827894988
20
26.7721276298907
30
0
0
VERTEX
8
0
10
71.6636281855608
20
26.834733441286
30
0
0
VERTEX
8
0
10
72.4024284761336
20
26.8885448328479
30
0
0
VERTEX
8
0
10
73.1412287667064
20
26.9448719308041
30
0
0
VERTEX
8
0
10
73.8800290572792
20
27.0039447958025
30
0
0
VERTEX
8
0
10
74.6188293478519
20
27.0553650740593
30
0
0
VERTEX
8
0
10
75.3576296384247
20
27.1089228949516
30
0
0
VERTEX
8
0
10
76.0964299289975
20
27.1652177441696
30
0
0
VERTEX
8
0
10
76.8352302195703
20
27.2149143978495
30
0
0
VERTEX
8
0
10
77.5740305101431
20
27.2664641452244
30
0
0
VERTEX
8
0
10
78.3128308007159
20
27.3207897484996
30
0
0
VERTEX
8
0
10
79.0516310912887
20
27.3695135890567
30
0
0
VERTEX
8
0
10
79.7904313818615
20
27.4199108620405
30
0
0
VERTEX
8
0
10
80.5292316724343
20
27.4731961615048
30
0
0
VERTEX
8
0
10
81.2680319630071
20
27.5218696448028
30
0
0
VERTEX
8
0
10
82.0068322535798
20
27.572191853261
30
0
0
VERTEX
8
0
10
82.7456325441526
20
27.6256768833748
30
0
0
VERTEX
8
0
10
83.4844328347254
20
27.6757010077658
30
0
0
VERTEX
8
0
10
84.2232331252982
20
27.7277952934819
30
0
0
VERTEX
8
0
10
84.962033415871
20
27.7838735242728
30
0
0
VERTEX
8
0
10
85.7008337064438
20
27.8375704404402
30
0
0
VERTEX
8
0
10
86.4396339970166
20
27.8927714523117
30
0
0
VERTEX
8
0
10
87.1784342875894
20
27.9508749219309
30
0
0
VERTEX
8
0
10
87.9172345781622
20
28.0061231435125
30
0
0
VERTEX
8
0
10
88.656034868735
20
28.0619382303838
30
0
0
VERTEX
8
0
10
89.3948351593077
20
28.1200358742051
30
0
0
VERTEX
8
0
10
90.1336354498805
20
28.1753322789505
30
0
0
VERTEX
8
0
10
90.8724357404533
20
28.2306397022472
30
0
0
VERTEX
8
0
10
91.6112360310261
20
28.2878371670374
30
0
0
VERTEX
8
0
10
92.3500363215989
20
28.3423972069899
30
0
0
VERTEX
8
0
10
93.0888366121717
20
28.396553558218
30
0
0
VERTEX
8
0
10
93.8276369027445
20
28.4523018090171
30
0
0
VERTEX
8
0
10
94.5664371933173
20
28.5056072217397
30
0
0
VERTEX
8
0
10
95.3052374838901
20
28.5581769797472
30
0
0
VERTEX
8
0
10
96.0440377744629
20
28.6120948501699
30
0
0
VERTEX
8
0
10
96.7828380650356
20
28.6637693792716
30
0
0
VERTEX
8
0
10
97.5216383556084
20
28.7144342292244
30
0
0
VERTEX
8
0
10
98.2604386461812
20
28.766239871293
30
0
0
VERTEX
8
0
10
98.999238936754
20
28.8159957866425
30
0
0
VERTEX
8
0
10
99.7380392273268
20
28.8645123838468
30
0
0
VERTEX
8
0
10
100.4768395179
20
28.9139891872496
30
0
0
VERTEX
8
0
10
101.215639808472
20
28.9615990913436
30
0
0
VERTEX
8
0
10
101.954440099045
20
29.0077758310716
30
0
0
VERTEX
8
0
10
102.693240389618
20
29.054752945141
30
0
0
VERTEX
8
0
10
103.432040680191
20
29.1000330127007
30
0
0
VERTEX
8
0
10
104.170840970764
20
29.1437158655951
30
0
0
VERTEX
8
0
10
104.909641261336
20
29.1880560202982
30
0
0
VERTEX
8
0
10
105.648441551909
20
29.2308552022881
30
0
0
VERTEX
8
0
10
106.387241842482
20
29.2719184455859
30
0
0
VERTEX
8
0
10
107.126042133055
20
29.3135098420299
30
0
0
VERTEX
8
0
10
107.864842423628
20
29.3537025005875
30
0
0
VERTEX
8
0
10
108.6036427142
20
29.3920423336488
30
0
0
VERTEX
8
0
10
109.342443004773
20
29.4307929879654
30
0
0
VERTEX
8
0
10
110.081243295346
20
29.4682736514814
30
0
0
VERTEX
8
0
10
110.820043585919
20
29.5038036239268
30
0
0
VERTEX
8
0
10
111.558843876491
20
29.5396372801
30
0
0
VERTEX
8
0
10
112.297644167064
20
29.5743167820593
30
0
0
VERTEX
8
0
10
113.036444457637
20
29.606964419624
30
0
0
VERTEX
8
0
10
113.77524474821
20
29.6398175130964
30
0
0
VERTEX
8
0
10
114.514045038783
20
29.6716200744907
30
0
0
VERTEX
8
0
10
115.252845329355
20
29.7013243285111
30
0
0
VERTEX
8
0
10
115.991645619928
20
29.7311436801884
30
0
0
VERTEX
8
0
10
116.730445910501
20
29.760004658294
30
0
0
VERTEX
8
0
10
117.469246201074
20
29.7867139405018
30
0
0
VERTEX
8
0
10
118.208046491647
20
29.8134549741966
30
0
0
VERTEX
8
0
10
118.946846782219
20
29.8393190961937
30
0
0
VERTEX
8
0
10
119.685647072792
20
29.8629897410532
30
0
0
VERTEX
8
0
10
120.424447363365
20
29.8866150860681
30
0
0
VERTEX
8
0
10
121.163247653938
20
29.9094350442162
30
0
0
VERTEX
8
0
10
121.902047944511
20
29.9300300909289
30
0
0
VERTEX
8
0
10
122.640848235083
20
29.9505084742762
30
0
0
VERTEX
8
0
10
123.379648525656
20
29.9702437967174
30
0
0
VERTEX
8
0
10
124.118448816229
20
29.9877320153223
30
0
0
VERTEX
8
0
10
124.857249106802
20
30.0050373761216
30
0
0
VERTEX
8
0
10
125.596049397375
20
30.0216535118104
30
0
0
VERTEX
8
0
10
126.334849687947
20
30.036008618995
30
0
0
VERTEX
8
0
10
127.07364997852
20
30.0501193964393
30
0
0
VERTEX
8
0
10
127.812450269093
20
30.0635869693801
30
0
0
VERTEX
8
0
10
128.551250559666
20
30.0747869943848
30
0
0
VERTEX
8
0
10
129.290050850239
20
30.0856855533963
30
0
0
VERTEX
8
0
10
130.028851140811
20
30.0959797529141
30
0
0
VERTEX
8
0
10
130.767651431384
20
30.1040065239738
30
0
0
VERTEX
8
0
10
131.506451721957
20
30.1116786920142
30
0
0
VERTEX
8
0
10
132.24525201253
20
30.1187787739531
30
0
0
VERTEX
8
0
10
132.984052303103
20
30.1236175031781
30
0
0
VERTEX
8
0
10
133.722852593675
20
30.1280521980376
30
0
0
VERTEX
8
0
10
134.461652884248
20
30.1319410779661
30
0
0
VERTEX
8
0
10
135.200453174821
20
30.1335800277326
30
0
0
VERTEX
8
0
10
135.939253465394
20
30.1347689610574
30
0
0
VERTEX
8
0
10
136.678053755967
20
30.1354328847506
30
0
0
VERTEX
8
0
10
137.416854046539
20
30.133863102862
30
0
0
VERTEX
8
0
10
138.155654337112
20
30.131800547785
30
0
0
VERTEX
8
0
10
138.894454627685
20
30.1292288278322
30
0
0
VERTEX
8
0
10
139.633254918258
20
30.1244439415317
30
0
0
VERTEX
8
0
10
140.372055208831
20
30.1191265554854
30
0
0
VERTEX
8
0
10
141.110855499403
20
30.1133113653652
30
0
0
VERTEX
8
0
10
141.849655789976
20
30.1053074267628
30
0
0
VERTEX
8
0
10
142.588456080549
20
30.0967341227557
30
0
0
VERTEX
8
0
10
143.327256371122
20
30.0876703417858
30
0
0
VERTEX
8
0
10
144.066056661695
20
30.0764457190321
30
0
0
VERTEX
8
0
10
144.804856952268
20
30.0646175803531
30
0
0
VERTEX
8
0
10
145.54365724284
20
30.0523026845818
30
0
0
VERTEX
8
0
10
146.282457533413
20
30.0378579946702
30
0
0
VERTEX
8
0
10
147.021257823986
20
30.0227782293985
30
0
0
VERTEX
8
0
10
147.760058114559
20
30.0072122248504
30
0
0
VERTEX
8
0
10
148.498858405132
20
29.9895503051503
30
0
0
VERTEX
8
0
10
149.237658695704
20
29.9712242380251
30
0
0
VERTEX
8
0
10
149.976458986277
20
29.952409633875
30
0
0
VERTEX
8
0
10
150.71525927685
20
29.9315355505854
30
0
0
VERTEX
8
0
10
151.454059567423
20
29.9099706507814
30
0
0
VERTEX
8
0
10
152.192859857996
20
29.88791247105
30
0
0
VERTEX
8
0
10
152.931660148568
20
29.8638335636873
30
0
0
VERTEX
8
0
10
153.670460439141
20
29.8390395080089
30
0
0
VERTEX
8
0
10
154.409260729714
20
29.8137453412907
30
0
0
VERTEX
8
0
10
155.148061020287
20
29.7864713032314
30
0
0
SEQEND
8
0
0
POLYLINE
8
0
62
3
70
0
10
0
20
0
30
0
0
VERTEX
8
0
10
6.64920261515514
20
9.47642139030813
30
0
0
VERTEX
8
0
10
7.38800290572793
20
11.0233415838823
30
0
0
VERTEX
8
0
10
8.12680319630072
20
10.9314921167292
30
0
0
VERTEX
8
0
10
8.86560348687352
20
12.1043042376464
30
0
0
VERTEX
8
0
10
9.60440377744631
20
13.3506241838027
30
0
0
VERTEX
8
0
10
10.3432040680191
20
13.5891880153101
30
0
0
VERTEX
8
0
10
11.0820043585919
20
14.5829497221935
30
0
0
VERTEX
8
0
10
11.8208046491647
20
15.6409693890024
30
0
0
VERTEX
8
0
10
12.5596049397375
20
16.0495003734422
30
0
0
VERTEX
8
0
10
13.2984052303103
20
16.9310027745396
30
0
0
VERTEX
8
0
10
14.0372055208831
20
17.8652801301691
30
0
0
VERTEX
8
0
10
14.7760058114559
20
18.357417137536
30
0
0
VERTEX
8
0
10
15.5148061020287
20
19.1618428745145
30
0
0
VERTEX
8
0
10
16.2536063926015
20
20.0080322631579
30
0
0
VERTEX
8
0
10
16.9924066831742
20
20.5394678508902
30
0
0
VERTEX
8
0
10
17.731206973747
20
21.2857295219005
30
0
0
VERTEX
8
0
10
18.4700072643198
20
22.0646309152259
30
0
0
VERTEX
8
0
10
19.2088075548926
20
22.6117082770759
30
0
0
VERTEX
8
0
10
19.9476078454654
20
23.3108890097108
30
0
0
VERTEX
8
0
10
20.6864081360382
20
24.0355331434679
30
0
0
VERTEX
8
0
10
21.425208426611
20
24.5849631270966
30
0
0
VERTEX
8
0
10
22.1640087171838
20
25.2441689750678
30
0
0
VERTEX
8
0
10
22.9028090077566
20
25.9232737136114
30
0
0
VERTEX
8
0
10
23.6416092983294
20
26.4672912090992
30
0
0
VERTEX
8
0
10
24.3804095889022
20
27.0914446505044
30
0
0
VERTEX
8
0
10
25.119209879475
20
27.7311811074643
30
0
0
VERTEX
8
0
10
25.8580101700478
20
28.2651452268129
30
0
0
VERTEX
8
0
10
26.5968104606206
20
28.8578799627929
30
0
0
VERTEX
8
0
10
27.3356107511934
20
29.4628317747779
30
0
0
VERTEX
8
0
10
28.0744110417661
20
29.9839606373853
30
0
0
VERTEX
8
0
10
28.8132113323389
20
30.5481019245714
30
0
0
VERTEX
8
0
10
29.5520116229117
20
31.1218168624616
30
0
0
VERTEX
8
0
10
30.2908119134845
20
31.6284816023105
30
0
0
VERTEX
8
0
10
31.0296122040573
20
32.166321241016
30
0
0
VERTEX
8
0
10
31.7684124946301
20
32.7116443828392
30
0
0
VERTEX
8
0
10
32.5072127852029
20
33.2029557095153
30
0
0
VERTEX
8
0
10
33.2460130757757
20
33.7164182045008
30
0
0
VERTEX
8
0
10
33.9848133663485
20
34.2357017421921
30
0
0
VERTEX
8
0
10
34.7236136569213
20
34.7112577844591
30
0
0
VERTEX
8
0
10
35.4624139474941
20
35.2020053694718
30
0
0
VERTEX
8
0
10
36.2012142380668
20
35.6972455049664
30
0
0
VERTEX
8
0
10
36.9400145286396
20
36.1569726313899
30
0
0
VERTEX
8
0
10
37.6788148192124
20
36.6264742064315
30
0
0
VERTEX
8
0
10
38.4176151097852
20
37.0994032353409
30
0
0
VERTEX
8
0
10
39.156415400358
20
37.5434525544069
30
0
0
VERTEX
8
0
10
39.8952156909308
20
37.9930304023971
30
0
0
VERTEX
8
0
10
40.6340159815036
20
38.4451803031654
30
0
0
VERTEX
8
0
10
41.3728162720764
20
38.8738586140239
30
0
0
VERTEX
8
0
10
42.1116165626492
20
39.3047209288453
30
0
0
VERTEX
8
0
10
42.850416853222
20
39.7374682862955
30
0
0
VERTEX
8
0
10
43.5892171437947
20
40.1511909567099
30
0
0
VERTEX
8
0
10
44.3280174343675
20
40.5644550209926
30
0
0
VERTEX
8
0
10
45.0668177249403
20
40.9790533987289
30
0
0
VERTEX
8
0
10
45.8056180155131
20
41.3783115492898
30
0
0
VERTEX
8
0
10
46.5444183060859
20
41.7750205790253
30
0
0
VERTEX
8
0
10
47.2832185966587
20
42.1726242552159
30
0
0
VERTEX
8
0
10
48.0220188872315
20
42.557961484632
30
0
0
VERTEX
8
0
10
48.7608191778043
20
42.9390970810699
30
0
0
VERTEX
8
0
10
49.4996194683771
20
43.3207787197122
30
0
0
VERTEX
8
0
10
50.2384197589499
20
43.6927743212921
30
0
0
VERTEX
8
0
10
50.9772200495227
20
44.0592658140307
30
0
0
VERTEX
8
0
10
51.7160203400954
20
44.4260298031465
30
0
0
VERTEX
8
0
10
52.4548206306682
20
44.7852864803538
30
0
0
VERTEX
8
0
10
53.193620921241
20
45.1380180349272
30
0
0
VERTEX
8
0
10
53.9324212118138
20
45.4908106846435
30
0
0
VERTEX
8
0
10
54.6712215023866
20
45.8379454435563
30
0
0
VERTEX
8
0
10
55.4100217929594
20
46.1777615442111
30
0
0
VERTEX
8
0
10
56.1488220835322
20
46.5174789864962
30
0
0
VERTEX
8
0
10
56.887622374105
20
46.8531163176073
30
0
0
VERTEX
8
0
10
57.6264226646778
20
47.1808260664699
30
0
0
VERTEX
8
0
10
58.3652229552506
20
47.5083204671597
30
0
0
VERTEX
8
0
10
59.1040232458233
20
47.83308721911
30
0
0
VERTEX
8
0
10
59.8428235363961
20
48.1494677840274
30
0
0
VERTEX
8
0
10
60.5816238269689
20
48.4655523256773
30
0
0
VERTEX
8
0
10
61.3204241175417
20
48.7800738746194
30
0
0
VERTEX
8
0
10
62.0592244081145
20
49.0858733511928
30
0
0
VERTEX
8
0
10
62.7980246986873
20
49.3913263496389
30
0
0
VERTEX
8
0
10
63.5368249892601
20
49.6962238158754
30
0
0
VERTEX
8
0
10
64.2756252798329
20
49.9921637361394
30
0
0
VERTEX
8
0
10
65.0144255704057
20
50.2877322016244
30
0
0
VERTEX
8
0
10
65.7532258609785
20
50.5836205862259
30
0
0
VERTEX
8
0
10
66.4920261515512
20
50.8703983053983
30
0
0
VERTEX
8
0
10
67.230826442124
20
51.1568012495095
30
0
0
VERTEX
8
0
10
67.9696267326968
20
51.4442884820717
30
0
0
VERTEX
8
0
10
68.7084270232696
20
51.7225797148569
30
0
0
VERTEX
8
0
10
69.4472273138424
20
52.0005115477189
30
0
0
VERTEX
8
0
10
70.1860276044152
20
52.2801985837323
30
0
0
VERTEX
8
0
10
70.924827894988
20
52.5506604696232
30
0
0
VERTEX
8
0
10
71.6636281855608
20
52.8207949628669
30
0
0
VERTEX
8
0
10
72.4024284761336
20
53.0932773037748
30
0
0
VERTEX
8
0
10
73.1412287667064
20
53.3565526244707
30
0
0
VERTEX
8
0
10
73.8800290572792
20
53.6195482271297
30
0
0
VERTEX
8
0
10
74.6188293478519
20
53.8854196933631
30
0
0
VERTEX
8
0
10
75.3576296384247
20
54.1421434276181
30
0
0
VERTEX
8
0
10
76.0964299289975
20
54.3986514731026
30
0
0
VERTEX
8
0
10
76.8352302195703
20
54.6585121198056
30
0
0
VERTEX
8
0
10
77.5740305101431
20
54.9093229561072
30
0
0
VERTEX
8
0
10
78.3128308007159
20
55.1600023241402
30
0
0
VERTEX
8
0
10
79.0516310912887
20
55.4144753466262
30
0
0
VERTEX
8
0
10
79.7904313818615
20
55.6600391444025
30
0
0
VERTEX
8
0
10
80.5292316724343
20
55.9055876516889
30
0
0
VERTEX
8
0
10
81.2680319630071
20
56.1553608730101
30
0
0
VERTEX
8
0
10
82.0068322535798
20
56.3964311254479
30
0
0
VERTEX
8
0
10
82.7456325441526
20
56.6376764637704
30
0
0
VERTEX
8
0
10
83.4844328347254
20
56.8836484910961
30
0
0
VERTEX
8
0
10
84.2232331252982
20
57.1213280579281
30
0
0
VERTEX
8
0
10
84.962033415871
20
57.3596247456329
30
0
0
VERTEX
8
0
10
85.7008337064438
20
57.6030783162907
30
0
0
VERTEX
8
0
10
86.4396339970166
20
57.8381041935204
30
0
0
VERTEX
8
0
10
87.1784342875894
20
58.0731904729299
30
0
0
VERTEX
8
0
10
87.9172345781622
20
58.3130408638854
30
0
0
VERTEX
8
0
10
88.656034868735
20
58.5441239241302
30
0
0
VERTEX
8
0
10
89.3948351593077
20
58.7749337922476
30
0
0
VERTEX
8
0
10
90.1336354498805
20
59.0103711679481
30
0
0
VERTEX
8
0
10
90.8724357404533
20
59.2368987276052
30
0
0
VERTEX
8
0
10
91.6112360310261
20
59.462936655828
30
0
0
VERTEX
8
0
10
92.3500363215989
20
59.6935181052076
30
0
0
VERTEX
8
0
10
93.0888366121717
20
59.9151245688567
30
0
0
VERTEX
8
0
10
93.8276369027445
20
60.1360757051012
30
0
0
VERTEX
8
0
10
94.5664371933173
20
60.3615003236644
30
0
0
VERTEX
8
0
10
95.3052374838901
20
60.5779319832981
30
0
0
VERTEX
8
0
10
96.0440377744629
20
60.7935729559559
30
0
0
VERTEX
8
0
10
96.7828380650356
20
61.0136188407819
30
0
0
VERTEX
8
0
10
97.5216383556084
20
61.2246877401249
30
0
0
VERTEX
8
0
10
98.2604386461812
20
61.4348516105832
30
0
0
VERTEX
8
0
10
98.999238936754
20
61.6493482425795
30
0
0
VERTEX
8
0
10
99.7380392273268
20
61.8549103142459
30
0
0
VERTEX
8
0
10
100.4768395179
20
62.0594688547734
30
0
0
VERTEX
8
0
10
101.215639808472
20
62.2682822680855
30
0
0
VERTEX
8
0
10
101.954440099045
20
62.4682250990863
30
0
0
VERTEX
8
0
10
102.693240389618
20
62.6670784908861
30
0
0
VERTEX
8
0
10
103.432040680191
20
62.8701022945106
30
0
0
VERTEX
8
0
10
104.170840970764
20
63.0643375372561
30
0
0
VERTEX
8
0
10
104.909641261336
20
63.2574078199152
30
0
0
VERTEX
8
0
10
105.648441551909
20
63.4545573114959
30
0
0
VERTEX
8
0
10
106.387241842482
20
63.6430156341153
30
0
0
VERTEX
8
0
10
107.126042133055
20
63.8302422720341
30
0
0
VERTEX
8
0
10
107.864842423628
20
64.0214503545862
30
0
0
VERTEX
8
0
10
108.6036427142
20
64.2040779066212
30
0
0
VERTEX
8
0
10
109.342443004773
20
64.3854146482498
30
0
0
VERTEX
8
0
10
110.081243295346
20
64.5706288770445
30
0
0
VERTEX
8
0
10
110.820043585919
20
64.7473847206052
30
0
0
VERTEX
8
0
10
111.558843876491
20
64.9227972958858
30
0
0
VERTEX
8
0
10
112.297644167064
20
65.1019776741723
30
0
0
VERTEX
8
0
10
113.036444457637
20
65.2728318624098
30
0
0
VERTEX
8
0
10
113.77524474821
20
65.4422962499043
30
0
0
VERTEX
8
0
10
114.514045038783
20
65.6154135433927
30
0
0
VERTEX
8
0
10
115.252845329355
20
65.7803456510685
30
0
0
VERTEX
8
0
10
115.991645619928
20
65.9438467473269
30
0
0
VERTEX
8
0
10
116.730445910501
20
66.1108811711611
30
0
0
VERTEX
8
0
10
117.469246201074
20
66.2698791518156
30
0
0
VERTEX
8
0
10
118.208046491647
20
66.4274097338598
30
0
0
VERTEX
8
0
10
118.946846782219
20
66.5883499153231
30
0
0
VERTEX
8
0
10
119.685647072792
20
66.7414092011868
30
0
0
VERTEX
8
0
10
120.424447363365
20
66.8929691084956
30
0
0
VERTEX
8
0
10
121.163247653938
20
67.0478112590715
30
0
0
VERTEX
8
0
10
121.902047944511
20
67.1949340458198
30
0
0
VERTEX
8
0
10
122.640848235083
20
67.3405295304924
30
0
0
VERTEX
8
0
10
123.379648525656
20
67.4892767805075
30
0
0
VERTEX
8
0
10
124.118448816229
20
67.6304714558698
30
0
0
VERTEX
8
0
10
124.857249106802
20
67.7701146643453
30
0
0
VERTEX
8
0
10
125.596049397375
20
67.9127765263498
30
0
0
VERTEX
8
0
10
126.334849687947
20
68.0480572127748
30
0
0
VERTEX
8
0
10
127.07364997852
20
68.1817657724148
30
0
0
VERTEX
8
0
10
127.812450269093
20
68.3183577083496
30
0
0
VERTEX
8
0
10
128.551250559666
20
68.4477438977441
30
0
0
VERTEX
8
0
10
129.290050850239
20
68.5755405883716
30
0
0
VERTEX
8
0
10
130.028851140811
20
68.7060836617648
30
0
0
VERTEX
8
0
10
130.767651431384
20
68.8295999257276
30
0
0
VERTEX
8
0
10
131.506451721957
20
68.951512421178
30
0
0
VERTEX
8
0
10
132.24525201253
20
69.0760330200411
30
0
0
VERTEX
8
0
10
132.984052303103
20
69.1937087830012
30
0
0
VERTEX
8
0
10
133.722852593675
20
69.3097694511873
30
0
0
VERTEX
8
0
10
134.461652884248
20
69.4282990706274
30
0
0
VERTEX
8
0
10
135.200453174821
20
69.5401684361087
30
0
0
VERTEX
8
0
10
135.939253465394
20
69.650414188753
30
0
0
VERTEX
8
0
10
136.678053755967
20
69.7629892646297
30
0
0
VERTEX
8
0
10
137.416854046539
20
69.8690908871204
30
0
0
VERTEX
8
0
10
138.155654337112
20
69.9735630722602
30
0
0
VERTEX
8
0
10
138.894454627685
20
70.0802248591583
30
0
0
VERTEX
8
0
10
139.633254918258
20
70.1806018556126
30
0
0
VERTEX
8
0
10
140.372055208831
20
70.2793461874583
30
0
0
VERTEX
8
0
10
141.110855499403
20
70.3801406756235
30
0
0
VERTEX
8
0
10
141.849655789976
20
70.4748405719538
30
0
0
VERTEX
8
0
10
142.588456080549
20
70.5679070938655
30
0
0
VERTEX
8
0
10
143.327256371122
20
70.6628849608689
30
0
0
VERTEX
8
0
10
144.066056661695
20
70.7519596697433
30
0
0
VERTEX
8
0
10
144.804856952268
20
70.8394027469876
30
0
0
VERTEX
8
0
10
145.54365724284
20
70.9286193407818
30
0
0
VERTEX
8
0
10
146.282457533413
20
71.0121251678631
30
0
0
VERTEX
8
0
10
147.021257823986
20
71.0940035075556
30
0
0
VERTEX
8
0
10
147.760058114559
20
71.1775188582823
30
0
0
VERTEX
8
0
10
148.498858405132
20
71.2555165346687
30
0
0
VERTEX
8
0
10
149.237658695704
20
71.3318932308977
30
0
0
VERTEX
8
0
10
149.976458986277
20
71.4097720894139
30
0
0
VERTEX
8
0
10
150.71525927685
20
71.4823268285827
30
0
0
VERTEX
8
0
10
151.454059567423
20
71.5532694311983
30
0
0
VERTEX
8
0
10
152.192859857996
20
71.6255813327673
30
0
0
VERTEX
8
0
10
152.931660148568
20
71.6927629107568
30
0
0
VERTEX
8
0
10
153.670460439141
20
71.7583435167505
30
0
0
VERTEX
8
0
10
154.409260729714
20
71.8251628687701
30
0
0
VERTEX
8
0
10
155.148061020287
20
71.8870457267316
30
0
0
SEQEND
8
0
0
POLYLINE
8
0
62
4
70
0
10
0
20
0
30
0
0
VERTEX
8
0
10
6.64920261515514
20
14.2402468302406
30
0
0
VERTEX
8
0
10
7.38800290572793
20
14.8074444841291
30
0
0
VERTEX
8
0
10
8.12680319630072
20
15.3929178451933
30
0
0
VERTEX
8
0
10
8.86560348687352
20
15.9781633645799
30
0
0
VERTEX
8
0
10
9.60440377744631
20
16.5654528385942
30
0
0
VERTEX
8
0
10
10.3432040680191
20
17.167853932003
30
0
0
VERTEX
8
0
10
11.0820043585919
20
17.7639987068349
30
0
0
VERTEX
8
0
10
11.8208046491647
20
18.3636548583957
30
0
0
VERTEX
8
0
10
12.5596049397375
20
18.9523796665091
30
0
0
VERTEX
8
0
10
13.2984052303103
20
19.5385410404353
30
0
0
VERTEX
8
0
10
14.0372055208831
20
20.1261746142307
30
0
0
VERTEX
8
0
10
14.7760058114559
20
20.6728462649334
30
0
0
VERTEX
8
0
10
15.5148061020287
20
21.1991567506947
30
0
0
VERTEX
8
0
10
16.2536063926015
20
21.7267336010901
30
0
0
VERTEX
8
0
10
16.9924066831742
20
22.2671650770744
30
0
0
VERTEX
8
0
10
17.731206973747
20
22.7636522421783
30
0
0
VERTEX
8
0
10
18.4700072643198
20
23.2673478844518
30
0
0
VERTEX
8
0
10
19.2088075548926
20
23.7836532674078
30
0
0
VERTEX
8
0
10
19.9476078454654
20
24.290260890031
30
0
0
VERTEX
8
0
10
20.6864081360382
20
24.7979347984839
30
0
0
VERTEX
8
0
10
21.425208426611
20
25.3173511990993
30
0
0
VERTEX
8
0
10
22.1640087171838
20
25.8214110805434
30
0
0
VERTEX
8
0
10
22.9028090077566
20
26.3420767766694
30
0
0
VERTEX
8
0
10
23.6416092983294
20
26.8715037638357
30
0
0
VERTEX
8
0
10
24.3804095889022
20
27.3846317083864
30
0
0
VERTEX
8
0
10
25.119209879475
20
27.9171379763911
30
0
0
VERTEX
8
0
10
25.8580101700478
20
28.4771074693609
30
0
0
VERTEX
8
0
10
26.5968104606206
20
29.0199584451696
30
0
0
VERTEX
8
0
10
27.3356107511934
20
29.5595876606109
30
0
0
VERTEX
8
0
10
28.0744110417661
20
30.1238426991908
30
0
0
VERTEX
8
0
10
28.8132113323389
20
30.6711906690211
30
0
0
VERTEX
8
0
10
29.5520116229117
20
31.2150774220551
30
0
0
VERTEX
8
0
10
30.2908119134845
20
31.7681413636427
30
0
0
VERTEX
8
0
10
31.0296122040573
20
32.251144007677
30
0
0
VERTEX
8
0
10
31.7684124946301
20
32.7463881646181
30
0
0
VERTEX
8
0
10
32.5072127852029
20
33.2509258682865
30
0
0
VERTEX
8
0
10
33.2460130757757
20
33.7420810296762
30
0
0
VERTEX
8
0
10
33.9848133663485
20
34.2306117475507
30
0
0
VERTEX
8
0
10
34.7236136569213
20
34.7281570970116
30
0
0
VERTEX
8
0
10
35.4624139474941
20
35.2094394017431
30
0
0
VERTEX
8
0
10
36.2012142380668
20
35.7058527697157
30
0
0
VERTEX
8
0
10
36.9400145286396
20
36.2071683168589
30
0
0
VERTEX
8
0
10
37.6788148192124
20
36.6924398819518
30
0
0
VERTEX
8
0
10
38.4176151097852
20
37.1719246459134
30
0
0
VERTEX
8
0
10
39.156415400358
20
37.6587593689125
30
0
0
VERTEX
8
0
10
39.8952156909308
20
38.1299321376627
30
0
0
VERTEX
8
0
10
40.6340159815036
20
38.59787805574
30
0
0
VERTEX
8
0
10
41.3728162720764
20
39.0144610827979
30
0
0
VERTEX
8
0
10
42.1116165626492
20
39.4220173650177
30
0
0
VERTEX
8
0
10
42.850416853222
20
39.826745811605
30
0
0
VERTEX
8
0
10
43.5892171437947
20
40.2352201276051
30
0
0
VERTEX
8
0
10
44.3280174343675
20
40.6249898109771
30
0
0
VERTEX
8
0
10
45.0668177249403
20
41.0120274971039
30
0
0
VERTEX
8
0
10
45.8056180155131
20
41.4074090271886
30
0
0
VERTEX
8
0
10
46.5444183060859
20
41.7768241254387
30
0
0
VERTEX
8
0
10
47.2832185966587
20
42.1431674741892
30
0
0
VERTEX
8
0
10
48.0220188872315
20
42.5177659807097
30
0
0
VERTEX
8
0
10
48.7608191778043
20
42.8784564416889
30
0
0
VERTEX
8
0
10
49.4996194683771
20
43.2129794012642
30
0
0
VERTEX
8
0
10
50.2384197589499
20
43.5623457389137
30
0
0
VERTEX
8
0
10
50.9772200495227
20
43.8982404223332
30
0
0
VERTEX
8
0
10
51.7160203400954
20
44.2195051815367
30
0
0
VERTEX
8
0
10
52.4548206306682
20
44.54613297329
30
0
0
VERTEX
8
0
10
53.193620921241
20
44.8597095015181
30
0
0
VERTEX
8
0
10
53.9324212118138
20
45.1710874255793
30
0
0
VERTEX
8
0
10
54.6712215023866
20
45.4986029766669
30
0
0
VERTEX
8
0
10
55.4100217929594
20
45.8116929403821
30
0
0
VERTEX
8
0
10
56.1488220835322
20
46.1225571338298
30
0
0
VERTEX
8
0
10
56.887622374105
20
46.462686948734
30
0
0
VERTEX
8
0
10
57.6264226646778
20
46.8009099306778
30
0
0
VERTEX
8
0
10
58.3652229552506
20
47.1367367006823
30
0
0
VERTEX
8
0
10
59.1040232458233
20
47.4799571117511
30
0
0
VERTEX
8
0
10
59.8428235363961
20
47.796747883166
30
0
0
VERTEX
8
0
10
60.5816238269689
20
48.1124525844816
30
0
0
VERTEX
8
0
10
61.3204241175417
20
48.4354877395244
30
0
0
VERTEX
8
0
10
62.0592244081145
20
48.744801889737
30
0
0
VERTEX
8
0
10
62.7980246986873
20
49.0504318278211
30
0
0
VERTEX
8
0
10
63.5368249892601
20
49.3632810854315
30
0
0
VERTEX
8
0
10
64.2756252798329
20
49.6643698527998
30
0
0
VERTEX
8
0
10
65.0144255704057
20
49.9560190757887
30
0
0
VERTEX
8
0
10
65.7532258609785
20
50.2543547880726
30
0
0
VERTEX
8
0
10
66.4920261515512
20
50.5412727066233
30
0
0
VERTEX
8
0
10
67.230826442124
20
50.8262489993595
30
0
0
VERTEX
8
0
10
67.9696267326968
20
51.076012851111
30
0
0
VERTEX
8
0
10
68.7084270232696
20
51.3262674589412
30
0
0
VERTEX
8
0
10
69.4472273138424
20
51.574882510421
30
0
0
VERTEX
8
0
10
70.1860276044152
20
51.8632718363139
30
0
0
VERTEX
8
0
10
70.924827894988
20
52.149264031841
30
0
0
VERTEX
8
0
10
71.6636281855608
20
52.4334137681112
30
0
0
VERTEX
8
0
10
72.4024284761336
20
52.7243409908632
30
0
0
VERTEX
8
0
10
73.1412287667064
20
53.0027760280041
30
0
0
VERTEX
8
0
10
73.8800290572792
20
53.2797897252268
30
0
0
VERTEX
8
0
10
74.6188293478519
20
53.5634928764205
30
0
0
VERTEX
8
0
10
75.3576296384247
20
53.8329498228243
30
0
0
VERTEX
8
0
10
76.0964299289975
20
54.0986193042075
30
0
0
VERTEX
8
0
10
76.8352302195703
20
54.3709150230953
30
0
0
VERTEX
8
0
10
77.5740305101431
20
54.6331225431669
30
0
0
VERTEX
8
0
10
78.3128308007159
20
54.8873813492459
30
0
0
VERTEX
8
0
10
79.0516310912887
20
55.1486310844951
30
0
0
VERTEX
8
0
10
79.7904313818615
20
55.4000631119106
30
0
0
VERTEX
8
0
10
80.5292316724343
20
55.6500231054793
30
0
0
VERTEX
8
0
10
81.2680319630071
20
55.8315790083762
30
0
0
VERTEX
8
0
10
82.0068322535798
20
56.028841826457
30
0
0
VERTEX
8
0
10
82.7456325441526
20
56.2250560869806
30
0
0
VERTEX
8
0
10
83.4844328347254
20
56.4454112417654
30
0
0
VERTEX
8
0
10
84.2232331252982
20
56.6580218641448
30
0
0
VERTEX
8
0
10
84.962033415871
20
56.8694596362797
30
0
0
VERTEX
8
0
10
85.7008337064438
20
57.0874189344384
30
0
0
VERTEX
8
0
10
86.4396339970166
20
57.3001379595559
30
0
0
VERTEX
8
0
10
87.1784342875894
20
57.5106399414286
30
0
0
VERTEX
8
0
10
87.9172345781622
20
57.7274712288656
30
0
0
VERTEX
8
0
10
88.656034868735
20
57.9571445826923
30
0
0
VERTEX
8
0
10
89.3948351593077
20
58.191825763417
30
0
0
VERTEX
8
0
10
90.1336354498805
20
58.4325129079616
30
0
0
VERTEX
8
0
10
90.8724357404533
20
58.6641733473293
30
0
0
VERTEX
8
0
10
91.6112360310261
20
58.874217861558
30
0
0
VERTEX
8
0
10
92.3500363215989
20
59.0935323436074
30
0
0
VERTEX
8
0
10
93.0888366121717
20
59.3040206506788
30
0
0
VERTEX
8
0
10
93.8276369027445
20
59.5166092430722
30
0
0
VERTEX
8
0
10
94.5664371933173
20
59.7369948948489
30
0
0
VERTEX
8
0
10
95.3052374838901
20
59.9486599692338
30
0
0
VERTEX
8
0
10
96.0440377744629
20
60.1588990491053
30
0
0
VERTEX
8
0
10
96.7828380650356
20
60.3862758361382
30
0
0
VERTEX
8
0
10
97.5216383556084
20
60.6044722859723
30
0
0
VERTEX
8
0
10
98.2604386461812
20
60.8211901574358
30
0
0
VERTEX
8
0
10
98.999238936754
20
61.0432290944996
30
0
0
VERTEX
8
0
10
99.7380392273268
20
61.2284233357688
30
0
0
VERTEX
8
0
10
100.4768395179
20
61.4213719253774
30
0
0
VERTEX
8
0
10
101.215639808472
20
61.6195403266984
30
0
0
VERTEX
8
0
10
101.954440099045
20
61.8205218386723
30
0
0
VERTEX
8
0
10
102.693240389618
20
62.0212145354527
30
0
0
VERTEX
8
0
10
103.432040680191
20
62.2269055423733
30
0
0
VERTEX
8
0
10
104.170840970764
20
62.424451455126
30
0
0
VERTEX
8
0
10
104.909641261336
20
62.631302699042
30
0
0
VERTEX
8
0
10
105.648441551909
20
62.8402875052772
30
0
0
VERTEX
8
0
10
106.387241842482
20
63.0412704623843
30
0
0
VERTEX
8
0
10
107.126042133055
20
63.2386934351644
30
0
0
VERTEX
8
0
10
107.864842423628
20
63.4400897699134
30
0
0
VERTEX
8
0
10
108.6036427142
20
63.6336547767463
30
0
0
VERTEX
8
0
10
109.342443004773
20
63.8256991775698
30
0
0
VERTEX
8
0
10
110.081243295346
20
64.023801063724
30
0
0
VERTEX
8
0
10
110.820043585919
20
64.2139946602009
30
0
0
VERTEX
8
0
10
111.558843876491
20
64.4026625500884
30
0
0
VERTEX
8
0
10
112.297644167064
20
64.594810928073
30
0
0
VERTEX
8
0
10
113.036444457637
20
64.7789353870825
30
0
0
VERTEX
8
0
10
113.77524474821
20
64.961534525003
30
0
0
VERTEX
8
0
10
114.514045038783
20
65.1482609760468
30
0
0
VERTEX
8
0
10
115.252845329355
20
65.3276661128493
30
0
0
VERTEX
8
0
10
115.991645619928
20
65.5055458270413
30
0
0
VERTEX
8
0
10
116.730445910501
20
65.6873844051844
30
0
0
VERTEX
8
0
10
117.469246201074
20
65.8620754134541
30
0
0
VERTEX
8
0
10
118.208046491647
20
66.0274459883137
30
0
0
VERTEX
8
0
10
118.946846782219
20
66.1990640894305
30
0
0
VERTEX
8
0
10
119.685647072792
20
66.3637158067712
30
0
0
VERTEX
8
0
10
120.424447363365
20
66.5233192339752
30
0
0
VERTEX
8
0
10
121.163247653938
20
66.6860953727735
30
0
0
VERTEX
8
0
10
121.902047944511
20
66.8420856768031
30
0
0
VERTEX
8
0
10
122.640848235083
20
66.9965700665487
30
0
0
VERTEX
8
0
10
123.379648525656
20
67.1614863867918
30
0
0
VERTEX
8
0
10
124.118448816229
20
67.318140613698
30
0
0
VERTEX
8
0
10
124.857249106802
20
67.4732850339799
30
0
0
VERTEX
8
0
10
125.596049397375
20
67.6200444882086
30
0
0
VERTEX
8
0
10
126.334849687947
20
67.7561644260669
30
0
0
VERTEX
8
0
10
127.07364997852
20
67.890810688106
30
0
0
VERTEX
8
0
10
127.812450269093
20
68.0286336723505
30
0
0
VERTEX
8
0
10
128.551250559666
20
68.1816408325657
30
0
0
VERTEX
8
0
10
129.290050850239
20
68.3301854384679
30
0
0
VERTEX
8
0
10
130.028851140811
20
68.4817147446016
30
0
0
VERTEX
8
0
10
130.767651431384
20
68.6147884221296
30
0
0
VERTEX
8
0
10
131.506451721957
20
68.7376685515574
30
0
0
VERTEX
8
0
10
132.24525201253
20
68.8634119872556
30
0
0
VERTEX
8
0
10
132.984052303103
20
68.9832731921761
30
0
0
VERTEX
8
0
10
133.722852593675
20
69.1096408265804
30
0
0
VERTEX
8
0
10
134.461652884248
20
69.2386028099015
30
0
0
VERTEX
8
0
10
135.200453174821
20
69.3618382784052
30
0
0
VERTEX
8
0
10
135.939253465394
20
69.4836137797611
30
0
0
VERTEX
8
0
10
136.678053755967
20
69.6154375863579
30
0
0
VERTEX
8
0
10
137.416854046539
20
69.7394155389282
30
0
0
VERTEX
8
0
10
138.155654337112
20
69.861937636815
30
0
0
VERTEX
8
0
10
138.894454627685
20
69.9721911259964
30
0
0
VERTEX
8
0
10
139.633254918258
20
70.0747800456925
30
0
0
VERTEX
8
0
10
140.372055208831
20
70.1759557148596
30
0
0
VERTEX
8
0
10
141.110855499403
20
70.2793904680154
30
0
0
VERTEX
8
0
10
141.849655789976
20
70.3793218737537
30
0
0
VERTEX
8
0
10
142.588456080549
20
70.4774712434291
30
0
0
VERTEX
8
0
10
143.327256371122
20
70.5777286844391
30
0
0
VERTEX
8
0
10
144.066056661695
20
70.691462512107
30
0
0
VERTEX
8
0
10
144.804856952268
20
70.8111500130941
30
0
0
VERTEX
8
0
10
145.54365724284
20
70.9327790127083
30
0
0
VERTEX
8
0
10
146.282457533413
20
71.0495602094474
30
0
0
VERTEX
8
0
10
147.021257823986
20
71.1619889322803
30
0
0
VERTEX
8
0
10
147.760058114559
20
71.2765814194283
30
0
0
VERTEX
8
0
10
148.498858405132
20
71.3865043486518
30
0
0
VERTEX
8
0
10
149.237658695704
20
71.4877016346011
30
0
0
VERTEX
8
0
10
149.976458986277
20
71.584942887027
30
0
0
VERTEX
8
0
10
150.71525927685
20
71.6776928072237
30
0
0
VERTEX
8
0
10
151.454059567423
20
71.7690812759137
30
0
0
VERTEX
8
0
10
152.192859857996
20
71.823519183389
30
0
0
VERTEX
8
0
10
152.931660148568
20
71.8734661266238
30
0
0
VERTEX
8
0
10
153.670460439141
20
71.9221896332234
30
0
0
VERTEX
8
0
10
154.409260729714
20
71.9724318996996
30
0
0
VERTEX
8
0
10
155.148061020287
20
72.0352206977458
30
0
0
SEQEND
8
0
0
POLYLINE
8
0
62
2
70
0
10
0
20
0
30
0
0
VERTEX
8
0
10
6.64920261515514
20
0
30
0
0
VERTEX
8
0
10
7.38800290572793
20
1.1153241275035
30
0
0
VERTEX
8
0
10
8.12680319630072
20
0
30
0
0
VERTEX
8
0
10
8.86560348687352
20
0
30
0
0
VERTEX
8
0
10
9.60440377744631
20
0
30
0
0
VERTEX
8
0
10
10.3432040680191
20
0
30
0
0
VERTEX
8
0
10
11.0820043585919
20
0
30
0
0
VERTEX
8
0
10
11.8208046491647
20
0
30
0
0
VERTEX
8
0
10
12.5596049397375
20
0
30
0
0
VERTEX
8
0
10
13.2984052303103
20
0
30
0
0
VERTEX
8
0
10
14.0372055208831
20
0
30
0
0
VERTEX
8
0
10
14.7760058114559
20
0
30
0
0
VERTEX
8
0
10
15.5148061020287
20
0
30
0
0
VERTEX
8
0
10
16.2536063926015
20
0.888164634990433
30
0
0
VERTEX
8
0
10
16.9924066831742
20
0
30
0
0
VERTEX
8
0
10
17.731206973747
20
0.390444031890446
30
0
0
VERTEX
8
0
10
18.4700072643198
20
1.98596714266376
30
0
0
VERTEX
8
0
10
19.2088075548926
20
1.37270574652457
30
0
0
VERTEX
8
0
10
19.9476078454654
20
2.13412326594628
30
0
0
VERTEX
8
0
10
20.6864081360382
20
2.91974707116771
30
0
0
VERTEX
8
0
10
21.425208426611
20
2.71247614006446
30
0
0
VERTEX
8
0
10
22.1640087171838
20
3.21749116954692
30
0
0
VERTEX
8
0
10
22.9028090077566
20
3.81729003329633
30
0
0
VERTEX
8
0
10
23.6416092983294
20
3.77279210790723
30
0
0
VERTEX
8
0
10
24.3804095889022
20
4.19482082392048
30
0
0
VERTEX
8
0
10
25.119209879475
20
4.70281624283373
30
0
0
VERTEX
8
0
10
25.8580101700478
20
4.74999797417737
30
0
0
VERTEX
8
0
10
26.5968104606206
20
5.130689097214
30
0
0
VERTEX
8
0
10
27.3356107511934
20
5.58413012819318
30
0
0
VERTEX
8
0
10
28.0744110417661
20
5.69004503959482
30
0
0
VERTEX
8
0
10
28.8132113323389
20
6.04642262475816
30
0
0
VERTEX
8
0
10
29.5520116229117
20
6.46408439658458
30
0
0
VERTEX
8
0
10
30.2908119134845
20
6.61039621472934
30
0
0
VERTEX
8
0
10
31.0296122040573
20
6.9510055942842
30
0
0
VERTEX
8
0
10
31.7684124946301
20
7.34360519678663
30
0
0
VERTEX
8
0
10
32.5072127852029
20
7.51898006160156
30
0
0
VERTEX
8
0
10
33.2460130757757
20
7.84861440259212
30
0
0
VERTEX
8
0
10
33.9848133663485
20
8.22276068509318
30
0
0
VERTEX
8
0
10
34.7236136569213
20
8.41968300550823
30
0
0
VERTEX
8
0
10
35.4624139474941
20
8.7412196889505
30
0
0
VERTEX
8
0
10
36.2012142380668
20
9.10120828698149
30
0
0
VERTEX
8
0
10
36.9400145286396
20
9.31443085948433
30
0
0
VERTEX
8
0
10
37.6788148192124
20
9.62967344358908
30
0
0
VERTEX
8
0
10
38.4176151097852
20
9.97840364626665
30
0
0
VERTEX
8
0
10
39.156415400358
20
10.2041131518524
30
0
0
VERTEX
8
0
10
39.8952156909308
20
10.514222341941
30
0
0
VERTEX
8
0
10
40.6340159815036
20
10.8537057270672
30
0
0
VERTEX
8
0
10
41.3728162720764
20
11.0890393490067
30
0
0
VERTEX
8
0
10
42.1116165626492
20
11.3947717156046
30
0
0
VERTEX
8
0
10
42.850416853222
20
11.7264323322137
30
0
0
VERTEX
8
0
10
43.5892171437947
20
11.9691816725519
30
0
0
VERTEX
8
0
10
44.3280174343675
20
12.2710299892314
30
0
0
VERTEX
8
0
10
45.0668177249403
20
12.5958902925549
30
0
0
VERTEX
8
0
10
45.8056180155131
20
12.8443117767634
30
0
0
VERTEX
8
0
10
46.5444183060859
20
13.1425914530164
30
0
0
VERTEX
8
0
10
47.2832185966587
20
13.4613920472062
30
0
0
VERTEX
8
0
10
48.0220188872315
20
13.7140810191597
30
0
0
VERTEX
8
0
10
48.7608191778043
20
14.0089853622192
30
0
0
VERTEX
8
0
10
49.4996194683771
20
14.3222646316226
30
0
0
VERTEX
8
0
10
50.2384197589499
20
14.5780691553173
30
0
0
VERTEX
8
0
10
50.9772200495227
20
14.869705802597
30
0
0
VERTEX
8
0
10
51.7160203400954
20
15.1778543163831
30
0
0
VERTEX
8
0
10
52.4548206306682
20
15.4358146053539
30
0
0
VERTEX
8
0
10
53.193620921241
20
15.7242301650732
30
0
0
VERTEX
8
0
10
53.9324212118138
20
16.0275287118887
30
0
0
VERTEX
8
0
10
54.6712215023866
20
16.2868335961589
30
0
0
VERTEX
8
0
10
55.4100217929594
20
16.5720306752597
30
0
0
VERTEX
8
0
10
56.1488220835322
20
16.8706773863936
30
0
0
VERTEX
8
0
10
56.887622374105
20
17.1306323993006
30
0
0
VERTEX
8
0
10
57.6264226646778
20
17.4125815878468
30
0
0
VERTEX
8
0
10
58.3652229552506
20
17.7067116169995
30
0
0
VERTEX
8
0
10
59.1040232458233
20
17.9667151863004
30
0
0
VERTEX
8
0
10
59.8428235363961
20
18.2453636251938
30
0
0
VERTEX
8
0
10
60.5816238269689
20
18.5350636458089
30
0
0
VERTEX
8
0
10
61.3204241175417
20
18.7945890502352
30
0
0
VERTEX
8
0
10
62.0592244081145
20
19.0698666384281
30
0
0
VERTEX
8
0
10
62.7980246986873
20
19.3551856679745
30
0
0
VERTEX
8
0
10
63.5368249892601
20
19.6137671685247
30
0
0
VERTEX
8
0
10
64.2756252798329
20
19.8855911118353
30
0
0
VERTEX
8
0
10
65.0144255704057
20
20.1665486904416
30
0
0
VERTEX
8
0
10
65.7532258609785
20
20.4237707329367
30
0
0
VERTEX
8
0
10
66.4920261515512
20
20.6920489099424
30
0
0
VERTEX
8
0
10
67.230826442124
20
20.9686413462814
30
0
0
VERTEX
8
0
10
67.9696267326968
20
21.2241300563321
30
0
0
VERTEX
8
0
10
68.7084270232696
20
21.4887635290206
30
0
0
VERTEX
8
0
10
69.4472273138424
20
21.7609687158963
30
0
0
VERTEX
8
0
10
70.1860276044152
20
22.0143851272977
30
0
0
VERTEX
8
0
10
70.924827894988
20
22.2752700264267
30
0
0
VERTEX
8
0
10
71.6636281855608
20
22.5430511853733
30
0
0
VERTEX
8
0
10
72.4024284761336
20
22.7940857953031
30
0
0
VERTEX
8
0
10
73.1412287667064
20
23.051114743561
30
0
0
VERTEX
8
0
10
73.8800290572792
20
23.3144233591242
30
0
0
VERTEX
8
0
10
74.6188293478519
20
23.5627917101193
30
0
0
VERTEX
8
0
10
75.3576296384247
20
23.8158549004093
30
0
0
VERTEX
8
0
10
76.0964299289975
20
24.0746330354585
30
0
0
VERTEX
8
0
10
76.8352302195703
20
24.3200721001746
30
0
0
VERTEX
8
0
10
77.5740305101431
20
24.5690581147603
30
0
0
VERTEX
8
0
10
78.3128308007159
20
24.8232402487482
30
0
0
VERTEX
8
0
10
79.0516310912887
20
25.0655054484264
30
0
0
VERTEX
8
0
10
79.7904313818615
20
25.3103018816265
30
0
0
VERTEX
8
0
10
80.5292316724343
20
25.5598163783094
30
0
0
VERTEX
8
0
10
81.2680319630071
20
25.7986791058769
30
0
0
VERTEX
8
0
10
82.0068322535798
20
26.0391730372723
30
0
0
VERTEX
8
0
10
82.7456325441526
20
26.2839433226293
30
0
0
VERTEX
8
0
10
83.4844328347254
20
26.5191888711701
30
0
0
VERTEX
8
0
10
84.2232331252982
20
26.7552672242424
30
0
0
VERTEX
8
0
10
84.962033415871
20
26.9952127360785
30
0
0
VERTEX
8
0
10
85.7008337064438
20
27.2266385552624
30
0
0
VERTEX
8
0
10
86.4396339970166
20
27.4581883682017
30
0
0
VERTEX
8
0
10
87.1784342875894
20
27.6932253250873
30
0
0
VERTEX
8
0
10
87.9172345781622
20
27.9206395453617
30
0
0
VERTEX
8
0
10
88.656034868735
20
28.1475481740587
30
0
0
VERTEX
8
0
10
89.3948351593077
20
28.3775902003938
30
0
0
VERTEX
8
0
10
90.1336354498805
20
28.6008103769582
30
0
0
VERTEX
8
0
10
90.8724357404533
20
28.8229656458491
30
0
0
VERTEX
8
0
10
91.6112360310261
20
29.0479242820023
30
0
0
VERTEX
8
0
10
92.3500363215989
20
29.2667763207477
30
0
0
VERTEX
8
0
10
93.0888366121717
20
29.48406663371
30
0
0
VERTEX
8
0
10
93.8276369027445
20
29.7038517541005
30
0
0
VERTEX
8
0
10
94.5664371933173
20
29.9181689890936
30
0
0
VERTEX
8
0
10
95.3052374838901
20
30.1304834096131
30
0
0
VERTEX
8
0
10
96.0440377744629
20
30.34500356672
30
0
0
VERTEX
8
0
10
96.7828380650356
20
30.5546259649934
30
0
0
VERTEX
8
0
10
97.5216383556084
20
30.7618542732447
30
0
0
VERTEX
8
0
10
98.2604386461812
20
30.9710169823091
30
0
0
VERTEX
8
0
10
98.999238936754
20
31.1757904561206
30
0
0
VERTEX
8
0
10
99.7380392273268
20
31.3778231889535
30
0
0
VERTEX
8
0
10
100.4768395179
20
31.5815351649424
30
0
0
VERTEX
8
0
10
101.215639808472
20
31.7813109757094
30
0
0
VERTEX
8
0
10
101.954440099045
20
31.9780394542766
30
0
0
VERTEX
8
0
10
102.693240389618
20
32.1762068109764
30
0
0
VERTEX
8
0
10
103.432040680191
20
32.3708410519189
30
0
0
VERTEX
8
0
10
104.170840970764
20
32.5621574011438
30
0
0
VERTEX
8
0
10
104.909641261336
20
32.7546858201866
30
0
0
VERTEX
8
0
10
105.648441551909
20
32.9440389672558
30
0
0
VERTEX
8
0
10
106.387241842482
20
33.1298361304389
30
0
0
VERTEX
8
0
10
107.126042133055
20
33.3166310071991
30
0
0
VERTEX
8
0
10
107.864842423628
20
33.5005675297661
30
0
0
VERTEX
8
0
10
108.6036427142
20
33.6807392815228
30
0
0
VERTEX
8
0
10
109.342443004773
20
33.8617058535508
30
0
0
VERTEX
8
0
10
110.081243295346
20
34.0400938784833
30
0
0
VERTEX
8
0
10
110.820043585919
20
34.2145348386099
30
0
0
VERTEX
8
0
10
111.558843876491
20
34.389578301756
30
0
0
VERTEX
8
0
10
112.297644167064
20
34.5622893252084
30
0
0
VERTEX
8
0
10
113.036444457637
20
34.7308949763354
30
0
0
VERTEX
8
0
10
113.77524474821
20
34.8999205933324
30
0
0
VERTEX
8
0
10
114.514045038783
20
35.0668292367432
30
0
0
VERTEX
8
0
10
115.252845329355
20
35.2294959483938
30
0
0
VERTEX
8
0
10
115.991645619928
20
35.3924091543674
30
0
0
VERTEX
8
0
10
116.730445910501
20
35.5533929617178
30
0
0
VERTEX
8
0
10
117.469246201074
20
35.7100180237293
30
0
0
VERTEX
8
0
10
118.208046491647
20
35.8667245329048
30
0
0
VERTEX
8
0
10
118.946846782219
20
36.0216638079729
30
0
0
VERTEX
8
0
10
119.685647072792
20
36.1721454766118
30
0
0
VERTEX
8
0
10
120.424447363365
20
36.3225513951448
30
0
0
VERTEX
8
0
10
121.163247653938
20
36.4713290783303
30
0
0
VERTEX
8
0
10
121.902047944511
20
36.6155666388653
30
0
0
VERTEX
8
0
10
122.640848235083
20
36.7595785888006
30
0
0
VERTEX
8
0
10
123.379648525656
20
36.9020801747428
30
0
0
VERTEX
8
0
10
124.118448816229
20
37.0399740253832
30
0
0
VERTEX
8
0
10
124.857249106802
20
37.1774992857079
30
0
0
VERTEX
8
0
10
125.596049397375
20
37.3136127843418
30
0
0
VERTEX
8
0
10
126.334849687947
20
37.4450645473373
30
0
0
VERTEX
8
0
10
127.07364997852
20
37.576011219525
30
0
0
VERTEX
8
0
10
127.812450269093
20
37.705627165331
30
0
0
VERTEX
8
0
10
128.551250559666
20
37.8305398331401
30
0
0
VERTEX
8
0
10
129.290050850239
20
37.9548170400897
30
0
0
VERTEX
8
0
10
130.028851140811
20
38.0778285568389
30
0
0
VERTEX
8
0
10
130.767651431384
20
38.1961066834938
30
0
0
VERTEX
8
0
10
131.506451721957
20
38.3136248140052
30
0
0
VERTEX
8
0
10
132.24525201253
20
38.4299277456828
30
0
0
VERTEX
8
0
10
132.984052303103
20
38.5414776974531
30
0
0
VERTEX
8
0
10
133.722852593675
20
38.6521487120625
30
0
0
VERTEX
8
0
10
134.461652884248
20
38.7616418360381
30
0
0
VERTEX
8
0
10
135.200453174821
20
38.8663721205325
30
0
0
VERTEX
8
0
10
135.939253465394
20
38.9701099408645
30
0
0
VERTEX
8
0
10
136.678053755967
20
39.072695286121
30
0
0
VERTEX
8
0
10
137.416854046539
20
39.1705169875238
30
0
0
VERTEX
8
0
10
138.155654337112
20
39.2672380005746
30
0
0
VERTEX
8
0
10
138.894454627685
20
39.3628213051869
30
0
0
VERTEX
8
0
10
139.633254918258
20
39.4536486653663
30
0
0
VERTEX
8
0
10
140.372055208831
20
39.5432723884597
30
0
0
VERTEX
8
0
10
141.110855499403
20
39.6317637472983
30
0
0
VERTEX
8
0
10
141.849655789976
20
39.7155149524851
30
0
0
VERTEX
8
0
10
142.588456080549
20
39.797964927752
30
0
0
VERTEX
8
0
10
143.327256371122
20
39.8792797086494
30
0
0
VERTEX
8
0
10
144.066056661695
20
39.9558779732163
30
0
0
VERTEX
8
0
10
144.804856952268
20
40.0310829982677
30
0
0
VERTEX
8
0
10
145.54365724284
20
40.1051431501395
30
0
0
VERTEX
8
0
10
146.282457533413
20
40.1745182430174
30
0
0
VERTEX
8
0
10
147.021257823986
20
40.2424141091831
30
0
0
VERTEX
8
0
10
147.760058114559
20
40.3091500636654
30
0
0
VERTEX
8
0
10
148.498858405132
20
40.3712405174501
30
0
0
VERTEX
8
0
10
149.237658695704
20
40.4317725421505
30
0
0
VERTEX
8
0
10
149.976458986277
20
40.4911260515616
30
0
0
VERTEX
8
0
10
150.71525927685
20
40.5458824683604
30
0
0
VERTEX
8
0
10
151.454059567423
20
40.5990093238142
30
0
0
VERTEX
8
0
10
152.192859857996
20
40.650937847575
30
0
0
VERTEX
8
0
10
152.931660148568
20
40.6983280541611
30
0
0
VERTEX
8
0
10
153.670460439141
20
40.7440278236208
30
0
0
VERTEX
8
0
10
154.409260729714
20
40.7885116230596
30
0
0
VERTEX
8
0
10
155.148061020287
20
40.8285291337667
30
0
0
SEQEND
8
0
0
POLYLINE
8
0
62
3
70
0
10
0
20
0
30
0
0
VERTEX
8
0
10
6.64920261515514
20
3.36810971301168
30
0
0
VERTEX
8
0
10
7.38800290572793
20
4.52118376503698
30
0
0
VERTEX
8
0
10
8.12680319630072
20
3.94077788945645
30
0
0
VERTEX
8
0
10
8.86560348687352
20
4.77575246276869
30
0
0
VERTEX
8
0
10
9.60440377744631
20
5.69028254975317
30
0
0
VERTEX
8
0
10
10.3432040680191
20
5.54855316491186
30
0
0
VERTEX
8
0
10
11.0820043585919
20
6.24481585574309
30
0
0
VERTEX
8
0
10
11.8208046491647
20
7.02521401574007
30
0
0
VERTEX
8
0
10
12.5596049397375
20
7.12915220355795
30
0
0
VERTEX
8
0
10
13.2984052303103
20
7.76148668416917
30
0
0
VERTEX
8
0
10
14.0372055208831
20
8.46778557766276
30
0
0
VERTEX
8
0
10
14.7760058114559
20
8.71482932111443
30
0
0
VERTEX
8
0
10
15.5148061020287
20
9.31661540994689
30
0
0
VERTEX
8
0
10
16.2536063926015
20
9.9802894084059
30
0
0
VERTEX
8
0
10
16.9924066831742
20
10.316900967751
30
0
0
VERTEX
8
0
10
17.731206973747
20
10.9035330688667
30
0
0
VERTEX
8
0
10
18.4700072643198
20
11.5415109897812
30
0
0
VERTEX
8
0
10
19.2088075548926
20
11.9379960746857
30
0
0
VERTEX
8
0
10
19.9476078454654
20
12.5170210897812
30
0
0
VERTEX
8
0
10
20.6864081360382
20
13.1388575034069
30
0
0
VERTEX
8
0
10
21.425208426611
20
13.5774995761397
30
0
0
VERTEX
8
0
10
22.1640087171838
20
14.1528055829299
30
0
0
VERTEX
8
0
10
22.9028090077566
20
14.7641279715658
30
0
0
VERTEX
8
0
10
23.6416092983294
20
15.23363868963
30
0
0
VERTEX
8
0
10
24.3804095889022
20
15.8072729854881
30
0
0
VERTEX
8
0
10
25.119209879475
20
16.4114978014447
30
0
0
VERTEX
8
0
10
25.8580101700478
20
16.9042735607305
30
0
0
VERTEX
8
0
10
26.5968104606206
20
17.4772938655108
30
0
0
VERTEX
8
0
10
27.3356107511934
20
18.0765296230114
30
0
0
VERTEX
8
0
10
28.0744110417661
20
18.58720325627
30
0
0
VERTEX
8
0
10
28.8132113323389
20
19.1601067048303
30
0
0
VERTEX
8
0
10
29.5520116229117
20
19.7556556241992
30
0
0
VERTEX
8
0
10
30.2908119134845
20
20.2802843886021
30
0
0
VERTEX
8
0
10
31.0296122040573
20
20.8532377536538
30
0
0
VERTEX
8
0
10
31.7684124946301
20
21.4458878966333
30
0
0
VERTEX
8
0
10
32.5072127852029
20
21.9814740279018
30
0
0
VERTEX
8
0
10
33.2460130757757
20
22.5544437953457
30
0
0
VERTEX
8
0
10
33.9848133663485
20
23.1446461854764
30
0
0
VERTEX
8
0
10
34.7236136569213
20
23.688841073239
30
0
0
VERTEX
8
0
10
35.4624139474941
20
24.2616700739276
30
0
0
VERTEX
8
0
10
36.2012142380668
20
24.8496498292392
30
0
0
VERTEX
8
0
10
36.9400145286396
20
25.4005644808071
30
0
0
VERTEX
8
0
10
37.6788148192124
20
25.9730186011721
30
0
0
VERTEX
8
0
10
38.4176151097852
20
26.5588467364389
30
0
0
VERTEX
8
0
10
39.156415400358
20
27.114926319631
30
0
0
VERTEX
8
0
10
39.8952156909308
20
27.6867237740248
30
0
0
VERTEX
8
0
10
40.6340159815036
20
28.2703647746992
30
0
0
VERTEX
8
0
10
41.3728162720764
20
28.8303031796899
30
0
0
VERTEX
8
0
10
42.1116165626492
20
29.4011332699847
30
0
0
VERTEX
8
0
10
42.850416853222
20
29.9824773053285
30
0
0
VERTEX
8
0
10
43.5892171437947
20
30.5451574829323
30
0
0
VERTEX
8
0
10
44.3280174343675
20
31.1146928358509
30
0
0
VERTEX
8
0
10
45.0668177249403
20
31.693577984913
30
0
0
VERTEX
8
0
10
45.8056180155131
20
32.2580293463378
30
0
0
VERTEX
8
0
10
46.5444183060859
20
32.825934004257
30
0
0
VERTEX
8
0
10
47.2832185966587
20
33.4021618428238
30
0
0
VERTEX
8
0
10
48.0220188872315
20
33.9675292291575
30
0
0
VERTEX
8
0
10
48.7608191778043
20
34.5334640493878
30
0
0
VERTEX
8
0
10
49.4996194683771
20
35.1068107360353
30
0
0
VERTEX
8
0
10
50.2384197589499
20
35.6723314060701
30
0
0
VERTEX
8
0
10
50.9772200495227
20
36.2359576818267
30
0
0
VERTEX
8
0
10
51.7160203400954
20
36.8061819391057
30
0
0
VERTEX
8
0
10
52.4548206306682
20
37.3711682237659
30
0
0
VERTEX
8
0
10
53.193620921241
20
37.9321501129074
30
0
0
VERTEX
8
0
10
53.9324212118138
20
38.4989990333029
30
0
0
VERTEX
8
0
10
54.6712215023866
20
39.0628250666948
30
0
0
VERTEX
8
0
10
55.4100217929594
20
39.6208312112301
30
0
0
VERTEX
8
0
10
56.1488220835322
20
40.1840445179471
30
0
0
VERTEX
8
0
10
56.887622374105
20
40.7461359490396
30
0
0
VERTEX
8
0
10
57.6264226646778
20
41.3008405401613
30
0
0
VERTEX
8
0
10
58.3652229552506
20
41.8601537370359
30
0
0
VERTEX
8
0
10
59.1040232458233
20
42.4199796532425
30
0
0
VERTEX
8
0
10
59.8428235363961
20
42.9710631139069
30
0
0
VERTEX
8
0
10
60.5816238269689
20
43.5262098277425
30
0
0
VERTEX
8
0
10
61.3204241175417
20
44.0832763426167
30
0
0
VERTEX
8
0
10
62.0592244081145
20
44.6304257450464
30
0
0
VERTEX
8
0
10
62.7980246986873
20
45.1811394755173
30
0
0
VERTEX
8
0
10
63.5368249892601
20
45.7349845844208
30
0
0
VERTEX
8
0
10
64.2756252798329
20
46.2778938839369
30
0
0
VERTEX
8
0
10
65.0144255704057
20
46.8239093150923
30
0
0
VERTEX
8
0
10
65.7532258609785
20
47.3740987284314
30
0
0
VERTEX
8
0
10
66.4920261515512
20
47.9124688703781
30
0
0
VERTEX
8
0
10
67.230826442124
20
48.453522855606
30
0
0
VERTEX
8
0
10
67.9696267326968
20
48.9996465941896
30
0
0
VERTEX
8
0
10
68.7084270232696
20
49.5331855338529
30
0
0
VERTEX
8
0
10
69.4472273138424
20
50.0690178362038
30
0
0
VERTEX
8
0
10
70.1860276044152
20
50.6106874268458
30
0
0
VERTEX
8
0
10
70.924827894988
20
51.1391100908732
30
0
0
VERTEX
8
0
10
71.6636281855608
20
51.6694639392432
30
0
0
VERTEX
8
0
10
72.4024284761336
20
52.2063100878711
30
0
0
VERTEX
8
0
10
73.1412287667064
20
52.7293382974133
30
0
0
VERTEX
8
0
10
73.8800290572792
20
53.2539608037836
30
0
0
VERTEX
8
0
10
74.6188293478519
20
53.7856314519234
30
0
0
VERTEX
8
0
10
75.3576296384247
20
54.3029938219943
30
0
0
VERTEX
8
0
10
76.0964299289975
20
54.821636293729
30
0
0
VERTEX
8
0
10
76.8352302195703
20
55.3477949855551
30
0
0
VERTEX
8
0
10
77.5740305101431
20
55.8592268111911
30
0
0
VERTEX
8
0
10
78.3128308007159
20
56.3716449841075
30
0
0
VERTEX
8
0
10
79.0516310912887
20
56.8919694872599
30
0
0
VERTEX
8
0
10
79.7904313818615
20
57.3972126239525
30
0
0
VERTEX
8
0
10
80.5292316724343
20
57.9031668358266
30
0
0
VERTEX
8
0
10
81.2680319630071
20
58.4173479712895
30
0
0
VERTEX
8
0
10
82.0068322535798
20
58.9161507152685
30
0
0
VERTEX
8
0
10
82.7456325441526
20
59.4154060349327
30
0
0
VERTEX
8
0
10
83.4844328347254
20
59.9231466806183
30
0
0
VERTEX
8
0
10
84.2232331252982
20
60.4152636529096
30
0
0
VERTEX
8
0
10
84.962033415871
20
60.9075899765807
30
0
0
VERTEX
8
0
10
85.7008337064438
20
61.4086042162911
30
0
0
VERTEX
8
0
10
86.4396339970166
20
61.8937962535551
30
0
0
VERTEX
8
0
10
87.1784342875894
20
62.3789683775955
30
0
0
VERTEX
8
0
10
87.9172345781622
20
62.8729807728373
30
0
0
VERTEX
8
0
10
88.656034868735
20
63.3510148270171
30
0
0
VERTEX
8
0
10
89.3948351593077
20
63.8288125042597
30
0
0
VERTEX
8
0
10
90.1336354498805
20
64.3155574705234
30
0
0
VERTEX
8
0
10
90.8724357404533
20
64.7862065189323
30
0
0
VERTEX
8
0
10
91.6112360310261
20
65.2564145042868
30
0
0
VERTEX
8
0
10
92.3500363215989
20
65.7356357770306
30
0
0
VERTEX
8
0
10
93.0888366121717
20
66.1986787441227
30
0
0
VERTEX
8
0
10
93.8276369027445
20
66.6610868340567
30
0
0
VERTEX
8
0
10
94.5664371933173
20
67.1325370123061
30
0
0
VERTEX
8
0
10
95.3052374838901
20
67.587758703948
30
0
0
VERTEX
8
0
10
96.0440377744629
20
68.0421617734737
30
0
0
VERTEX
8
0
10
96.7828380650356
20
68.5056019312694
30
0
0
VERTEX
8
0
10
97.5216383556084
20
68.9527929823283
30
0
0
VERTEX
8
0
10
98.2604386461812
20
69.3989910226387
30
0
0
VERTEX
8
0
10
98.999238936754
20
69.8541903802441
30
0
0
VERTEX
8
0
10
99.7380392273268
20
70.293147216133
30
0
0
VERTEX
8
0
10
100.4768395179
20
70.7309453753424
30
0
0
VERTEX
8
0
10
101.215639808472
20
71.1776810237171
30
0
0
VERTEX
8
0
10
101.954440099045
20
71.6082058364196
30
0
0
VERTEX
8
0
10
102.693240389618
20
72.0374144657014
30
0
0
VERTEX
8
0
10
103.432040680191
20
72.4754711389037
30
0
0
VERTEX
8
0
10
104.170840970764
20
72.8973718781241
30
0
0
VERTEX
8
0
10
104.909641261336
20
73.317806585083
30
0
0
VERTEX
8
0
10
105.648441551909
20
73.7469764763063
30
0
0
VERTEX
8
0
10
106.387241842482
20
74.1600668562844
30
0
0
VERTEX
8
0
10
107.126042133055
20
74.571548567404
30
0
0
VERTEX
8
0
10
107.864842423628
20
74.9916311851813
30
0
0
VERTEX
8
0
10
108.6036427142
20
75.3957307079127
30
0
0
VERTEX
8
0
10
109.342443004773
20
75.7980857416639
30
0
0
VERTEX
8
0
10
110.081243295346
20
76.2088878037101
30
0
0
VERTEX
8
0
10
110.820043585919
20
76.6038217992576
30
0
0
VERTEX
8
0
10
111.558843876491
20
76.9968819514837
30
0
0
VERTEX
8
0
10
112.297644167064
20
77.3982173139773
30
0
0
VERTEX
8
0
10
113.036444457637
20
77.7838169988436
30
0
0
VERTEX
8
0
10
113.77524474821
20
78.1674196420949
30
0
0
VERTEX
8
0
10
114.514045038783
20
78.5591092631804
30
0
0
VERTEX
8
0
10
115.252845329355
20
78.9352118177697
30
0
0
VERTEX
8
0
10
115.991645619928
20
79.3092000163019
30
0
0
VERTEX
8
0
10
116.730445910501
20
79.6910719528845
30
0
0
VERTEX
8
0
10
117.469246201074
20
80.0575206193548
30
0
0
VERTEX
8
0
10
118.208046491647
20
80.4217432615784
30
0
0
VERTEX
8
0
10
118.946846782219
20
80.7936326992622
30
0
0
VERTEX
8
0
10
119.685647072792
20
81.1502769013564
30
0
0
VERTEX
8
0
10
120.424447363365
20
81.504588851958
30
0
0
VERTEX
8
0
10
121.163247653938
20
81.8663381683931
30
0
0
VERTEX
8
0
10
121.902047944511
20
82.2130336551238
30
0
0
VERTEX
8
0
10
122.640848235083
20
82.5572959292232
30
0
0
VERTEX
8
0
10
123.379648525656
20
82.9087547918994
30
0
0
VERTEX
8
0
10
124.118448816229
20
83.2453638075644
30
0
0
VERTEX
8
0
10
124.857249106802
20
83.5794437697944
30
0
0
VERTEX
8
0
10
125.596049397375
20
83.9204692699874
30
0
0
VERTEX
8
0
10
126.334849687947
20
84.2468607534424
30
0
0
VERTEX
8
0
10
127.07364997852
20
84.5706323455568
30
0
0
VERTEX
8
0
10
127.812450269093
20
84.9010891710894
30
0
0
VERTEX
8
0
10
128.551250559666
20
85.2171389882026
30
0
0
VERTEX
8
0
10
129.290050850239
20
85.5304829895269
30
0
0
VERTEX
8
0
10
130.028851140811
20
85.8502436401498
30
0
0
VERTEX
8
0
10
130.767651431384
20
86.1558348543686
30
0
0
VERTEX
8
0
10
131.506451721957
20
86.4586391808783
30
0
0
VERTEX
8
0
10
132.24525201253
20
86.7675842315585
30
0
0
VERTEX
8
0
10
132.984052303103
20
87.0626074192624
30
0
0
VERTEX
8
0
10
133.722852593675
20
87.3547674686838
30
0
0
VERTEX
8
0
10
134.461652884248
20
87.6527858884229
30
0
0
VERTEX
8
0
10
135.200453174821
20
87.9371395079215
30
0
0
VERTEX
8
0
10
135.939253465394
20
88.2185585609765
30
0
0
VERTEX
8
0
10
136.678053755967
20
88.5055480976384
30
0
0
VERTEX
8
0
10
137.416854046539
20
88.7791389243219
30
0
0
VERTEX
8
0
10
138.155654337112
20
89.0497286161813
30
0
0
VERTEX
8
0
10
138.894454627685
20
89.3255962626494
30
0
0
VERTEX
8
0
10
139.633254918258
20
89.5883399078738
30
0
0
VERTEX
8
0
10
140.372055208831
20
89.8480207899185
30
0
0
VERTEX
8
0
10
141.110855499403
20
90.1126833539379
30
0
0
VERTEX
8
0
10
141.849655789976
20
90.3645048936204
30
0
0
VERTEX
8
0
10
142.588456080549
20
90.6132071153086
30
0
0
VERTEX
8
0
10
143.327256371122
20
90.8665919267984
30
0
0
VERTEX
8
0
10
144.066056661695
20
91.1074266790159
30
0
0
VERTEX
8
0
10
144.804856952268
20
91.3450908354685
30
0
0
VERTEX
8
0
10
145.54365724284
20
91.5871366440029
30
0
0
VERTEX
8
0
10
146.282457533413
20
91.816931157457
30
0
0
VERTEX
8
0
10
147.021257823986
20
92.0435093754106
30
0
0
VERTEX
8
0
10
147.760058114559
20
92.2741675231708
30
0
0
VERTEX
8
0
10
148.498858405132
20
92.4928808778464
30
0
0
VERTEX
8
0
10
149.237658695704
20
92.7083382607377
30
0
0
VERTEX
8
0
10
149.976458986277
20
92.9275742752284
30
0
0
VERTEX
8
0
10
150.71525927685
20
93.135179869281
30
0
0
VERTEX
8
0
10
151.454059567423
20
93.3394965123267
30
0
0
VERTEX
8
0
10
152.192859857996
20
93.5472923757354
30
0
0
VERTEX
8
0
10
152.931660148568
20
93.7437805141609
30
0
0
VERTEX
8
0
10
153.670460439141
20
93.936954479754
30
0
0
VERTEX
8
0
10
154.409260729714
20
94.1333120610132
30
0
0
VERTEX
8
0
10
155.148061020287
20
94.318693957152
30
0
0
SEQEND
8
0
0
POLYLINE
8
0
62
4
70
0
10
0
20
0
30
0
0
VERTEX
8
0
10
6.64920261515514
20
0
30
0
0
VERTEX
8
0
10
7.38800290572793
20
0
30
0
0
VERTEX
8
0
10
8.12680319630072
20
0
30
0
0
VERTEX
8
0
10
8.86560348687352
20
0
30
0
0
VERTEX
8
0
10
9.60440377744631
20
0
30
0
0
VERTEX
8
0
10
10.3432040680191
20
0
30
0
0
VERTEX
8
0
10
11.0820043585919
20
0
30
0
0
VERTEX
8
0
10
11.8208046491647
20
0
30
0
0
VERTEX
8
0
10
12.5596049397375
20
0
30
0
0
VERTEX
8
0
10
13.2984052303103
20
0
30
0
0
VERTEX
8
0
10
14.0372055208831
20
0
30
0
0
VERTEX
8
0
10
14.7760058114559
20
0
30
0
0
VERTEX
8
0
10
15.5148061020287
20
0
30
0
0
VERTEX
8
0
10
16.2536063926015
20
0
30
0
0
VERTEX
8
0
10
16.9924066831742
20
0
30
0
0
VERTEX
8
0
10
17.731206973747
20
0
30
0
0
VERTEX
8
0
10
18.4700072643198
20
0
30
0
0
VERTEX
8
0
10
19.2088075548926
20
0
30
0
0
VERTEX
8
0
10
19.9476078454654
20
0
30
0
0
VERTEX
8
0
10
20.6864081360382
20
0
30
0
0
VERTEX
8
0
10
21.425208426611
20
0
30
0
0
VERTEX
8
0
10
22.1640087171838
20
13.7916839590445
30
0
0
VERTEX
8
0
10
22.9028090077566
20
14.3351090080312
30
0
0
VERTEX
8
0
10
23.6416092983294
20
14.9495496454036
30
0
0
VERTEX
8
0
10
24.3804095889022
20
15.5223984054829
30
0
0
VERTEX
8
0
10
25.119209879475
20
16.0968541777788
30
0
0
VERTEX
8
0
10
25.8580101700478
20
16.6973852861798
30
0
0
VERTEX
8
0
10
26.5968104606206
20
17.2161969994551
30
0
0
VERTEX
8
0
10
27.3356107511934
20
17.6895518357876
30
0
0
VERTEX
8
0
10
28.0744110417661
20
18.1803666572692
30
0
0
VERTEX
8
0
10
28.8132113323389
20
18.6559705976556
30
0
0
VERTEX
8
0
10
29.5520116229117
20
19.1441361537157
30
0
0
VERTEX
8
0
10
30.2908119134845
20
19.6490374711133
30
0
0
VERTEX
8
0
10
31.0296122040573
20
20.1379126574291
30
0
0
VERTEX
8
0
10
31.7684124946301
20
20.6276801303656
30
0
0
VERTEX
8
0
10
32.5072127852029
20
21.1526172114173
30
0
0
VERTEX
8
0
10
33.2460130757757
20
21.6554109680869
30
0
0
VERTEX
8
0
10
33.9848133663485
20
22.1588354228
30
0
0
VERTEX
8
0
10
34.7236136569213
20
22.7196188992845
30
0
0
VERTEX
8
0
10
35.4624139474941
20
23.270819707751
30
0
0
VERTEX
8
0
10
36.2012142380668
20
23.8242398872879
30
0
0
VERTEX
8
0
10
36.9400145286396
20
24.396124743163
30
0
0
VERTEX
8
0
10
37.6788148192124
20
25.0066713518061
30
0
0
VERTEX
8
0
10
38.4176151097852
20
25.6098720058922
30
0
0
VERTEX
8
0
10
39.156415400358
20
26.2339076356634
30
0
0
VERTEX
8
0
10
39.8952156909308
20
26.8396496816593
30
0
0
VERTEX
8
0
10
40.6340159815036
20
27.4468842164555
30
0
0
VERTEX
8
0
10
41.3728162720764
20
28.0734749169639
30
0
0
VERTEX
8
0
10
42.1116165626492
20
28.6859801406965
30
0
0
VERTEX
8
0
10
42.850416853222
20
29.2975928259027
30
0
0
VERTEX
8
0
10
43.5892171437947
20
29.9281595065376
30
0
0
VERTEX
8
0
10
44.3280174343675
20
30.5440432121761
30
0
0
VERTEX
8
0
10
45.0668177249403
20
31.1619220974997
30
0
0
VERTEX
8
0
10
45.8056180155131
20
31.7976799048276
30
0
0
VERTEX
8
0
10
46.5444183060859
20
32.4184363284657
30
0
0
VERTEX
8
0
10
47.2832185966587
20
33.0407571476495
30
0
0
VERTEX
8
0
10
48.0220188872315
20
33.6852042732098
30
0
0
VERTEX
8
0
10
48.7608191778043
20
34.3145140055237
30
0
0
VERTEX
8
0
10
49.4996194683771
20
34.9451719008126
30
0
0
VERTEX
8
0
10
50.2384197589499
20
35.5928547822382
30
0
0
VERTEX
8
0
10
50.9772200495227
20
36.245078834983
30
0
0
VERTEX
8
0
10
51.7160203400954
20
36.8927748963153
30
0
0
VERTEX
8
0
10
52.4548206306682
20
37.5573993608867
30
0
0
VERTEX
8
0
10
53.193620921241
20
38.1990824363475
30
0
0
VERTEX
8
0
10
53.9324212118138
20
38.8403734293621
30
0
0
VERTEX
8
0
10
54.6712215023866
20
39.4979100733155
30
0
0
VERTEX
8
0
10
55.4100217929594
20
40.1400788662043
30
0
0
VERTEX
8
0
10
56.1488220835322
20
40.7318844907161
30
0
0
VERTEX
8
0
10
56.887622374105
20
41.350256898018
30
0
0
VERTEX
8
0
10
57.6264226646778
20
41.9525715615992
30
0
0
VERTEX
8
0
10
58.3652229552506
20
42.5428033375569
30
0
0
VERTEX
8
0
10
59.1040232458233
20
43.1431621829908
30
0
0
VERTEX
8
0
10
59.8428235363961
20
43.7273066697147
30
0
0
VERTEX
8
0
10
60.5816238269689
20
44.3109568703527
30
0
0
VERTEX
8
0
10
61.3204241175417
20
44.8628698893767
30
0
0
VERTEX
8
0
10
62.0592244081145
20
45.4041099750343
30
0
0
VERTEX
8
0
10
62.7980246986873
20
45.9445832148736
30
0
0
VERTEX
8
0
10
63.5368249892601
20
46.4930173056571
30
0
0
VERTEX
8
0
10
64.2756252798329
20
47.0202225565778
30
0
0
VERTEX
8
0
10
65.0144255704057
20
47.5465759564544
30
0
0
VERTEX
8
0
10
65.7532258609785
20
48.0870771196513
30
0
0
VERTEX
8
0
10
66.4920261515512
20
48.5918101723179
30
0
0
VERTEX
8
0
10
67.230826442124
20
49.0954908358588
30
0
0
VERTEX
8
0
10
67.9696267326968
20
49.6132038680195
30
0
0
VERTEX
8
0
10
68.7084270232696
20
50.1145980448654
30
0
0
VERTEX
8
0
10
69.4472273138424
20
50.5914331160088
30
0
0
VERTEX
8
0
10
70.1860276044152
20
51.0891777766012
30
0
0
VERTEX
8
0
10
70.924827894988
20
51.570672265652
30
0
0
VERTEX
8
0
10
71.6636281855608
20
52.0222389810189
30
0
0
VERTEX
8
0
10
72.4024284761336
20
52.482475974858
30
0
0
VERTEX
8
0
10
73.1412287667064
20
52.9267084884807
30
0
0
VERTEX
8
0
10
73.8800290572792
20
53.3700972958897
30
0
0
VERTEX
8
0
10
74.6188293478519
20
53.7950313423146
30
0
0
VERTEX
8
0
10
75.3576296384247
20
54.2111186692416
30
0
0
VERTEX
8
0
10
76.0964299289975
20
54.6265389023722
30
0
0
VERTEX
8
0
10
76.8352302195703
20
55.0422834845562
30
0
0
VERTEX
8
0
10
77.5740305101431
20
55.4364654832869
30
0
0
VERTEX
8
0
10
78.3128308007159
20
55.8301355104534
30
0
0
VERTEX
8
0
10
79.0516310912887
20
56.2378927347231
30
0
0
VERTEX
8
0
10
79.7904313818615
20
56.6400079289569
30
0
0
VERTEX
8
0
10
80.5292316724343
20
57.040254148291
30
0
0
VERTEX
8
0
10
81.2680319630071
20
57.4542340516794
30
0
0
VERTEX
8
0
10
82.0068322535798
20
57.8599133918233
30
0
0
VERTEX
8
0
10
82.7456325441526
20
58.270743399733
30
0
0
VERTEX
8
0
10
83.4844328347254
20
58.6949075918881
30
0
0
VERTEX
8
0
10
84.2232331252982
20
59.1031215726227
30
0
0
VERTEX
8
0
10
84.962033415871
20
59.5361665126495
30
0
0
VERTEX
8
0
10
85.7008337064438
20
59.9828173102592
30
0
0
VERTEX
8
0
10
86.4396339970166
20
60.4133262207548
30
0
0
VERTEX
8
0
10
87.1784342875894
20
60.8423263633284
30
0
0
VERTEX
8
0
10
87.9172345781622
20
61.2991047745345
30
0
0
VERTEX
8
0
10
88.656034868735
20
61.7354460333563
30
0
0
VERTEX
8
0
10
89.3948351593077
20
62.1701516716312
30
0
0
VERTEX
8
0
10
90.1336354498805
20
62.629040644785
30
0
0
VERTEX
8
0
10
90.8724357404533
20
63.0744220224537
30
0
0
VERTEX
8
0
10
91.6112360310261
20
63.5180681751597
30
0
0
VERTEX
8
0
10
92.3500363215989
20
63.9737681785598
30
0
0
VERTEX
8
0
10
93.0888366121717
20
64.4255233195312
30
0
0
VERTEX
8
0
10
93.8276369027445
20
64.8730922053311
30
0
0
VERTEX
8
0
10
94.5664371933173
20
65.3324554169532
30
0
0
VERTEX
8
0
10
95.3052374838901
20
65.7801097594134
30
0
0
VERTEX
8
0
10
96.0440377744629
20
66.2278647610979
30
0
0
VERTEX
8
0
10
96.7828380650356
20
66.6871569524678
30
0
0
VERTEX
8
0
10
97.5216383556084
20
67.1308636027531
30
0
0
VERTEX
8
0
10
98.2604386461812
20
67.5673748014999
30
0
0
VERTEX
8
0
10
98.999238936754
20
68.0156338452876
30
0
0
VERTEX
8
0
10
99.7380392273268
20
68.4484716518451
30
0
0
VERTEX
8
0
10
100.4768395179
20
68.9111619927615
30
0
0
VERTEX
8
0
10
101.215639808472
20
69.4136334571107
30
0
0
VERTEX
8
0
10
101.954440099045
20
69.9012379055295
30
0
0
VERTEX
8
0
10
102.693240389618
20
70.3872052754078
30
0
0
VERTEX
8
0
10
103.432040680191
20
70.8126782654952
30
0
0
VERTEX
8
0
10
104.170840970764
20
71.2196118594117
30
0
0
VERTEX
8
0
10
104.909641261336
20
71.6244913475332
30
0
0
VERTEX
8
0
10
105.648441551909
20
72.0397657781808
30
0
0
VERTEX
8
0
10
106.387241842482
20
72.4791326279886
30
0
0
VERTEX
8
0
10
107.126042133055
20
72.9057612584232
30
0
0
VERTEX
8
0
10
107.864842423628
20
73.3425375482194
30
0
0
VERTEX
8
0
10
108.6036427142
20
73.7677190629945
30
0
0
VERTEX
8
0
10
109.342443004773
20
74.1915427980138
30
0
0
VERTEX
8
0
10
110.081243295346
20
74.6252336915379
30
0
0
VERTEX
8
0
10
110.820043585919
20
75.0445813963621
30
0
0
VERTEX
8
0
10
111.558843876491
20
75.4633422327907
30
0
0
VERTEX
8
0
10
112.297644167064
20
75.8913907223595
30
0
0
VERTEX
8
0
10
113.036444457637
20
76.3053293632769
30
0
0
VERTEX
8
0
10
113.77524474821
20
76.7179390566047
30
0
0
VERTEX
8
0
10
114.514045038783
20
77.1402576951939
30
0
0
VERTEX
8
0
10
115.252845329355
20
77.5487072620919
30
0
0
VERTEX
8
0
10
115.991645619928
20
77.9549755141364
30
0
0
VERTEX
8
0
10
116.730445910501
20
78.3852898543463
30
0
0
VERTEX
8
0
10
117.469246201074
20
78.8009153719953
30
0
0
VERTEX
8
0
10
118.208046491647
20
79.2144025149353
30
0
0
VERTEX
8
0
10
118.946846782219
20
79.6372756353342
30
0
0
VERTEX
8
0
10
119.685647072792
20
80.0474873931515
30
0
0
VERTEX
8
0
10
120.424447363365
20
80.45553857946
30
0
0
VERTEX
8
0
10
121.163247653938
20
80.8720216535341
30
0
0
VERTEX
8
0
10
121.902047944511
20
81.2754762118094
30
0
0
VERTEX
8
0
10
122.640848235083
20
81.6767424187689
30
0
0
VERTEX
8
0
10
123.379648525656
20
82.086126903803
30
0
0
VERTEX
8
0
10
124.118448816229
20
82.4827490084359
30
0
0
VERTEX
8
0
10
124.857249106802
20
82.8629104544927
30
0
0
VERTEX
8
0
10
125.596049397375
20
83.254575249214
30
0
0
VERTEX
8
0
10
126.334849687947
20
83.6336887742996
30
0
0
VERTEX
8
0
10
127.07364997852
20
83.9960116775359
30
0
0
VERTEX
8
0
10
127.812450269093
20
84.3617386037232
30
0
0
VERTEX
8
0
10
128.551250559666
20
84.715109235027
30
0
0
VERTEX
8
0
10
129.290050850239
20
85.0660876645018
30
0
0
VERTEX
8
0
10
130.028851140811
20
85.4209131927301
30
0
0
VERTEX
8
0
10
130.767651431384
20
85.7642021318358
30
0
0
VERTEX
8
0
10
131.506451721957
20
86.1050705631128
30
0
0
VERTEX
8
0
10
132.24525201253
20
86.4492915836649
30
0
0
VERTEX
8
0
10
132.984052303103
20
86.7797425027596
30
0
0
VERTEX
8
0
10
133.722852593675
20
87.1077398752948
30
0
0
VERTEX
8
0
10
134.461652884248
20
87.4421610033098
30
0
0
VERTEX
8
0
10
135.200453174821
20
87.7550689159143
30
0
0
VERTEX
8
0
10
135.939253465394
20
88.0660695549717
30
0
0
VERTEX
8
0
10
136.678053755967
20
88.3831687980931
30
0
0
VERTEX
8
0
10
137.416854046539
20
88.6889654927634
30
0
0
VERTEX
8
0
10
138.155654337112
20
88.9862612503656
30
0
0
VERTEX
8
0
10
138.894454627685
20
89.2913089374372
30
0
0
VERTEX
8
0
10
139.633254918258
20
89.5853277907129
30
0
0
VERTEX
8
0
10
140.372055208831
20
89.8682121956003
30
0
0
VERTEX
8
0
10
141.110855499403
20
90.1557585263923
30
0
0
VERTEX
8
0
10
141.849655789976
20
90.4325469904909
30
0
0
VERTEX
8
0
10
142.588456080549
20
90.7067850021897
30
0
0
VERTEX
8
0
10
143.327256371122
20
90.9753625360169
30
0
0
VERTEX
8
0
10
144.066056661695
20
91.2362063803693
30
0
0
VERTEX
8
0
10
144.804856952268
20
91.4944836274119
30
0
0
VERTEX
8
0
10
145.54365724284
20
91.7493729330378
30
0
0
VERTEX
8
0
10
146.282457533413
20
91.9915404980312
30
0
0
VERTEX
8
0
10
147.021257823986
20
92.231131768503
30
0
0
VERTEX
8
0
10
147.760058114559
20
92.4752875448885
30
0
0
VERTEX
8
0
10
148.498858405132
20
92.6983129043145
30
0
0
VERTEX
8
0
10
149.237658695704
20
92.9205621952646
30
0
0
VERTEX
8
0
10
149.976458986277
20
93.1470848689832
30
0
0
VERTEX
8
0
10
150.71525927685
20
93.3615053004766
30
0
0
VERTEX
8
0
10
151.454059567423
20
93.5718003487454
30
0
0
VERTEX
8
0
10
152.192859857996
20
93.7860768016246
30
0
0
VERTEX
8
0
10
152.931660148568
20
93.9910305028081
30
0
0
VERTEX
8
0
10
153.670460439141
20
94.1848600701717
30
0
0
VERTEX
8
0
10
154.409260729714
20
94.3827398621452
30
0
0
VERTEX
8
0
10
155.148061020287
20
94.5715990360087
30
0
0
SEQEND
8
0
0
ENDSEC
0
EOF
