0
SECTION
2
HEADER
9
$ACADVER
1
AC1009
0
ENDSEC
0
SECTION
2
ENTITIES
0
POLYLINE
8
0
62
0
70
1
10
0
20
0
30
0
0
VERTEX
8
0
10
0
20
0
30
0
0
VERTEX
8
0
10
0
20
121.298
30
0
0
VERTEX
8
0
10
179.2
20
121.298
30
0
0
VERTEX
8
0
10
179.2
20
0
30
0
0
SEQEND
8
0
0
TEXT
8
0
62
0
10
0
20
-12
30
0
40
8
1
0
50
0
0
LINE
8
0
62
0
10
7.902443627839
20
0
30
0
11
7.902443627839
21
3.2
31
0
0
LINE
8
0
62
0
10
7.902443627839
20
121.298
30
0
11
7.902443627839
21
118.098
31
0
0
LINE
8
0
62
0
10
15.804887255678
20
0
30
0
11
15.804887255678
21
3.2
31
0
0
LINE
8
0
62
0
10
15.804887255678
20
121.298
30
0
11
15.804887255678
21
118.098
31
0
0
LINE
8
0
62
0
10
23.707330883517
20
0
30
0
11
23.707330883517
21
3.2
31
0
0
LINE
8
0
62
0
10
23.707330883517
20
121.298
30
0
11
23.707330883517
21
118.098
31
0
0
LINE
8
0
62
0
10
31.609774511356
20
0
30
0
11
31.609774511356
21
3.2
31
0
0
LINE
8
0
62
0
10
31.609774511356
20
121.298
30
0
11
31.609774511356
21
118.098
31
0
0
LINE
8
0
62
0
10
39.512218139195
20
0
30
0
11
39.512218139195
21
6.4
31
0
0
LINE
8
0
62
0
10
39.512218139195
20
121.298
30
0
11
39.512218139195
21
114.898
31
0
0
TEXT
8
0
62
0
10
39.512218139195
20
-12
30
0
40
8
1
5
50
0
0
LINE
8
0
62
0
10
47.414661767034
20
0
30
0
11
47.414661767034
21
3.2
31
0
0
LINE
8
0
62
0
10
47.414661767034
20
121.298
30
0
11
47.414661767034
21
118.098
31
0
0
LINE
8
0
62
0
10
55.317105394873
20
0
30
0
11
55.317105394873
21
3.2
31
0
0
LINE
8
0
62
0
10
55.317105394873
20
121.298
30
0
11
55.317105394873
21
118.098
31
0
0
LINE
8
0
62
0
10
63.219549022712
20
0
30
0
11
63.219549022712
21
3.2
31
0
0
LINE
8
0
62
0
10
63.219549022712
20
121.298
30
0
11
63.219549022712
21
118.098
31
0
0
LINE
8
0
62
0
10
71.121992650551
20
0
30
0
11
71.121992650551
21
3.2
31
0
0
LINE
8
0
62
0
10
71.121992650551
20
121.298
30
0
11
71.121992650551
21
118.098
31
0
0
LINE
8
0
62
0
10
79.02443627839
20
0
30
0
11
79.02443627839
21
6.4
31
0
0
LINE
8
0
62
0
10
79.02443627839
20
121.298
30
0
11
79.02443627839
21
114.898
31
0
0
TEXT
8
0
62
0
10
79.02443627839
20
-12
30
0
40
8
1
10
50
0
0
LINE
8
0
62
0
10
86.926879906229
20
0
30
0
11
86.926879906229
21
3.2
31
0
0
LINE
8
0
62
0
10
86.926879906229
20
121.298
30
0
11
86.926879906229
21
118.098
31
0
0
LINE
8
0
62
0
10
94.8293235340681
20
0
30
0
11
94.8293235340681
21
3.2
31
0
0
LINE
8
0
62
0
10
94.8293235340681
20
121.298
30
0
11
94.8293235340681
21
118.098
31
0
0
LINE
8
0
62
0
10
102.731767161907
20
0
30
0
11
102.731767161907
21
3.2
31
0
0
LINE
8
0
62
0
10
102.731767161907
20
121.298
30
0
11
102.731767161907
21
118.098
31
0
0
LINE
8
0
62
0
10
110.634210789746
20
0
30
0
11
110.634210789746
21
3.2
31
0
0
LINE
8
0
62
0
10
110.634210789746
20
121.298
30
0
11
110.634210789746
21
118.098
31
0
0
LINE
8
0
62
0
10
118.536654417585
20
0
30
0
11
118.536654417585
21
6.4
31
0
0
LINE
8
0
62
0
10
118.536654417585
20
121.298
30
0
11
118.536654417585
21
114.898
31
0
0
TEXT
8
0
62
0
10
118.536654417585
20
-12
30
0
40
8
1
15
50
0
0
LINE
8
0
62
0
10
126.439098045424
20
0
30
0
11
126.439098045424
21
3.2
31
0
0
LINE
8
0
62
0
10
126.439098045424
20
121.298
30
0
11
126.439098045424
21
118.098
31
0
0
LINE
8
0
62
0
10
134.341541673263
20
0
30
0
11
134.341541673263
21
3.2
31
0
0
LINE
8
0
62
0
10
134.341541673263
20
121.298
30
0
11
134.341541673263
21
118.098
31
0
0
LINE
8
0
62
0
10
142.243985301102
20
0
30
0
11
142.243985301102
21
3.2
31
0
0
LINE
8
0
62
0
10
142.243985301102
20
121.298
30
0
11
142.243985301102
21
118.098
31
0
0
LINE
8
0
62
0
10
150.146428928941
20
0
30
0
11
150.146428928941
21
3.2
31
0
0
LINE
8
0
62
0
10
150.146428928941
20
121.298
30
0
11
150.146428928941
21
118.098
31
0
0
LINE
8
0
62
0
10
158.04887255678
20
0
30
0
11
158.04887255678
21
6.4
31
0
0
LINE
8
0
62
0
10
158.04887255678
20
121.298
30
0
11
158.04887255678
21
114.898
31
0
0
TEXT
8
0
62
0
10
158.04887255678
20
-12
30
0
40
8
1
20
50
0
0
LINE
8
0
62
0
10
165.951316184619
20
0
30
0
11
165.951316184619
21
3.2
31
0
0
LINE
8
0
62
0
10
165.951316184619
20
121.298
30
0
11
165.951316184619
21
118.098
31
0
0
LINE
8
0
62
0
10
173.853759812458
20
0
30
0
11
173.853759812458
21
3.2
31
0
0
LINE
8
0
62
0
10
173.853759812458
20
121.298
30
0
11
173.853759812458
21
118.098
31
0
0
TEXT
8
0
62
0
10
-4
20
-4
30
0
40
8
1
0
50
0
0
LINE
8
0
62
0
10
0
20
7.581125
30
0
11
3.2
21
7.581125
31
0
0
LINE
8
0
62
0
10
179.2
20
7.581125
30
0
11
176
21
7.581125
31
0
0
LINE
8
0
62
0
10
0
20
15.16225
30
0
11
3.2
21
15.16225
31
0
0
LINE
8
0
62
0
10
179.2
20
15.16225
30
0
11
176
21
15.16225
31
0
0
LINE
8
0
62
0
10
0
20
22.743375
30
0
11
3.2
21
22.743375
31
0
0
LINE
8
0
62
0
10
179.2
20
22.743375
30
0
11
176
21
22.743375
31
0
0
LINE
8
0
62
0
10
0
20
30.3245
30
0
11
3.2
21
30.3245
31
0
0
LINE
8
0
62
0
10
179.2
20
30.3245
30
0
11
176
21
30.3245
31
0
0
LINE
8
0
62
0
10
0
20
37.905625
30
0
11
6.4
21
37.905625
31
0
0
LINE
8
0
62
0
10
179.2
20
37.905625
30
0
11
172.8
21
37.905625
31
0
0
TEXT
8
0
62
0
10
-4
20
33.905625
30
0
40
8
1
50
50
0
0
LINE
8
0
62
0
10
0
20
45.48675
30
0
11
3.2
21
45.48675
31
0
0
LINE
8
0
62
0
10
179.2
20
45.48675
30
0
11
176
21
45.48675
31
0
0
LINE
8
0
62
0
10
0
20
53.067875
30
0
11
3.2
21
53.067875
31
0
0
LINE
8
0
62
0
10
179.2
20
53.067875
30
0
11
176
21
53.067875
31
0
0
LINE
8
0
62
0
10
0
20
60.649
30
0
11
3.2
21
60.649
31
0
0
LINE
8
0
62
0
10
179.2
20
60.649
30
0
11
176
21
60.649
31
0
0
LINE
8
0
62
0
10
0
20
68.230125
30
0
11
3.2
21
68.230125
31
0
0
LINE
8
0
62
0
10
179.2
20
68.230125
30
0
11
176
21
68.230125
31
0
0
LINE
8
0
62
0
10
0
20
75.81125
30
0
11
6.4
21
75.81125
31
0
0
LINE
8
0
62
0
10
179.2
20
75.81125
30
0
11
172.8
21
75.81125
31
0
0
TEXT
8
0
62
0
10
-4
20
71.81125
30
0
40
8
1
100
50
0
0
LINE
8
0
62
0
10
0
20
83.392375
30
0
11
3.2
21
83.392375
31
0
0
LINE
8
0
62
0
10
179.2
20
83.392375
30
0
11
176
21
83.392375
31
0
0
LINE
8
0
62
0
10
0
20
90.9735
30
0
11
3.2
21
90.9735
31
0
0
LINE
8
0
62
0
10
179.2
20
90.9735
30
0
11
176
21
90.9735
31
0
0
LINE
8
0
62
0
10
0
20
98.554625
30
0
11
3.2
21
98.554625
31
0
0
LINE
8
0
62
0
10
179.2
20
98.554625
30
0
11
176
21
98.554625
31
0
0
LINE
8
0
62
0
10
0
20
106.13575
30
0
11
3.2
21
106.13575
31
0
0
LINE
8
0
62
0
10
179.2
20
106.13575
30
0
11
176
21
106.13575
31
0
0
LINE
8
0
62
0
10
0
20
113.716875
30
0
11
6.4
21
113.716875
31
0
0
LINE
8
0
62
0
10
179.2
20
113.716875
30
0
11
172.8
21
113.716875
31
0
0
TEXT
8
0
62
0
10
-4
20
109.716875
30
0
40
8
1
150
50
0
0
TEXT
8
0
62
0
10
89.6
20
-32
30
0
40
10
1
R (kpc)
50
0
0
TEXT
8
0
62
0
10
-24
20
60.649
30
0
40
10
1
V (km/s)
50
90
0
TEXT
8
0
62
0
10
72.6
20
136.298
30
0
40
11
1
V vs. R
50
0
0
POLYLINE
8
0
62
5
70
0
10
0
20
0
30
0
0
VERTEX
8
0
10
2.3707330883517
20
29.3230726859826
30
0
0
VERTEX
8
0
10
3.1609774511356
20
36.5517860559178
30
0
0
VERTEX
8
0
10
3.9512218139195
20
43.1479161609733
30
0
0
VERTEX
8
0
10
4.7414661767034
20
46.3096996664967
30
0
0
VERTEX
8
0
10
5.5317105394873
20
48.7330054199768
30
0
0
VERTEX
8
0
10
6.3219549022712
20
50.9051704183949
30
0
0
VERTEX
8
0
10
7.1121992650551
20
52.3175973240649
30
0
0
VERTEX
8
0
10
7.902443627839
20
53.9307716096035
30
0
0
VERTEX
8
0
10
8.6926879906229
20
55.5421230993391
30
0
0
VERTEX
8
0
10
9.4829323534068
20
57.1990764630202
30
0
0
VERTEX
8
0
10
10.2731767161907
20
59.2178205304917
30
0
0
VERTEX
8
0
10
11.0634210789746
20
61.2669902121163
30
0
0
VERTEX
8
0
10
11.8536654417585
20
63.2982010436452
30
0
0
VERTEX
8
0
10
12.6439098045424
20
65.9926364897137
30
0
0
VERTEX
8
0
10
13.4341541673263
20
67.9521966083732
30
0
0
VERTEX
8
0
10
14.2243985301102
20
69.8952969342309
30
0
0
VERTEX
8
0
10
15.0146428928941
20
71.3500129932444
30
0
0
VERTEX
8
0
10
15.804887255678
20
72.3922609215595
30
0
0
VERTEX
8
0
10
16.5951316184619
20
73.2835138426411
30
0
0
VERTEX
8
0
10
17.3853759812458
20
74.1747667637227
30
0
0
VERTEX
8
0
10
18.1756203440297
20
73.6221000791134
30
0
0
VERTEX
8
0
10
18.9658647068136
20
73.3185518524374
30
0
0
VERTEX
8
0
10
19.7561090695975
20
73.0150036257614
30
0
0
VERTEX
8
0
10
20.5463534323814
20
72.646262104222
30
0
0
VERTEX
8
0
10
21.3365977951653
20
72.2676428107337
30
0
0
VERTEX
8
0
10
22.1268421579492
20
71.8890235172453
30
0
0
VERTEX
8
0
10
22.9170865207331
20
71.7156174136993
30
0
0
VERTEX
8
0
10
23.707330883517
20
71.7254092919791
30
0
0
VERTEX
8
0
10
24.4975752463009
20
71.735201170259
30
0
0
VERTEX
8
0
10
25.2878196090848
20
71.7449930485389
30
0
0
VERTEX
8
0
10
26.0780639718687
20
71.7935692220298
30
0
0
VERTEX
8
0
10
26.8683083346526
20
71.836000694576
30
0
0
VERTEX
8
0
10
27.6585526974365
20
71.8784321671221
30
0
0
VERTEX
8
0
10
28.4487970602204
20
71.6357164798002
30
0
0
VERTEX
8
0
10
29.2390414230043
20
71.341960131404
30
0
0
VERTEX
8
0
10
30.0292857857882
20
71.0482037830079
30
0
0
VERTEX
8
0
10
30.8195301485721
20
70.7080119956435
30
0
0
VERTEX
8
0
10
31.609774511356
20
70.3228647833019
30
0
0
VERTEX
8
0
10
32.4000188741399
20
69.9377175709602
30
0
0
VERTEX
8
0
10
33.1902632369238
20
69.5525703586186
30
0
0
VERTEX
8
0
10
33.9805075997077
20
69.1979220060205
30
0
0
VERTEX
8
0
10
34.7707519624916
20
68.8388864690919
30
0
0
VERTEX
8
0
10
35.5609963252755
20
68.4798509321633
30
0
0
VERTEX
8
0
10
36.3512406880594
20
68.1154107012853
30
0
0
VERTEX
8
0
10
37.1414850508433
20
67.7498472455034
30
0
0
VERTEX
8
0
10
37.9317294136272
20
67.3842837897216
30
0
0
VERTEX
8
0
10
38.7219737764111
20
67.0187203339397
30
0
0
VERTEX
8
0
10
39.512218139195
20
66.5754561436293
30
0
0
VERTEX
8
0
10
40.3024625019789
20
66.1576693370215
30
0
0
VERTEX
8
0
10
41.0927068647628
20
65.7398825304136
30
0
0
VERTEX
8
0
10
41.8829512275467
20
65.2509163009252
30
0
0
VERTEX
8
0
10
42.6731955903306
20
64.7711142652115
30
0
0
VERTEX
8
0
10
43.4634399531145
20
64.2913122294977
30
0
0
VERTEX
8
0
10
44.2536843158984
20
63.806237643941
30
0
0
VERTEX
8
0
10
45.0439286786823
20
63.3199076893741
30
0
0
VERTEX
8
0
10
45.8341730414662
20
62.8335777348071
30
0
0
VERTEX
8
0
10
46.6244174042501
20
62.3472477802402
30
0
0
VERTEX
8
0
10
47.414661767034
20
61.8896591688024
30
0
0
VERTEX
8
0
10
48.2049061298179
20
61.4229129707952
30
0
0
VERTEX
8
0
10
48.9951504926018
20
60.956166772788
30
0
0
VERTEX
8
0
10
49.7853948553857
20
60.5262227083968
30
0
0
VERTEX
8
0
10
50.5756392181696
20
60.0921161046558
30
0
0
VERTEX
8
0
10
51.3658835809535
20
59.6580095009148
30
0
0
VERTEX
8
0
10
52.1561279437374
20
59.2110518828322
30
0
0
VERTEX
8
0
10
52.9463723065213
20
58.7606254819581
30
0
0
VERTEX
8
0
10
53.7366166693052
20
58.310199081084
30
0
0
VERTEX
8
0
10
54.5268610320891
20
57.8597726802099
30
0
0
VERTEX
8
0
10
55.3171053948729
20
57.4329670383443
30
0
0
VERTEX
8
0
10
56.1073497576568
20
56.9988604346033
30
0
0
VERTEX
8
0
10
56.8975941204407
20
56.5647538308624
30
0
0
VERTEX
8
0
10
57.6878384832246
20
56.1451037923551
30
0
0
VERTEX
8
0
10
58.4780828460085
20
55.7240530263206
30
0
0
VERTEX
8
0
10
59.2683272087924
20
55.3030022602861
30
0
0
VERTEX
8
0
10
60.0585715715763
20
54.8994804099578
30
0
0
VERTEX
8
0
10
60.8488159343602
20
54.5012773599097
30
0
0
VERTEX
8
0
10
61.6390602971441
20
54.1030743098616
30
0
0
VERTEX
8
0
10
62.429304659928
20
53.7048712598135
30
0
0
VERTEX
8
0
10
63.2195490227119
20
53.3485909275021
30
0
0
VERTEX
8
0
10
64.0097933854958
20
52.9797635122936
30
0
0
VERTEX
8
0
10
64.8000377482797
20
52.6109360970851
30
0
0
VERTEX
8
0
10
65.5902821110636
20
52.2633970974081
30
0
0
VERTEX
8
0
10
66.3805264738475
20
51.9141534387594
30
0
0
VERTEX
8
0
10
67.1707708366314
20
51.5649097801107
30
0
0
VERTEX
8
0
10
67.9610151994153
20
51.2181041802239
30
0
0
VERTEX
8
0
10
68.7512595621992
20
50.8721244810018
30
0
0
VERTEX
8
0
10
69.5415039249831
20
50.5261447817796
30
0
0
VERTEX
8
0
10
70.331748287767
20
50.1801650825575
30
0
0
VERTEX
8
0
10
71.1219926505509
20
49.8663294372029
30
0
0
VERTEX
8
0
10
71.9122370133348
20
49.5431974539671
30
0
0
VERTEX
8
0
10
72.7024813761187
20
49.2200654707313
30
0
0
VERTEX
8
0
10
73.4927257389026
20
48.9073794791018
30
0
0
VERTEX
8
0
10
74.2829701016865
20
48.5940393741459
30
0
0
VERTEX
8
0
10
75.0732144644704
20
48.2806992691901
30
0
0
VERTEX
8
0
10
75.8634588272543
20
47.9815910844871
30
0
0
VERTEX
8
0
10
76.6537031900382
20
47.6878347360909
30
0
0
VERTEX
8
0
10
77.4439475528221
20
47.3940783876948
30
0
0
VERTEX
8
0
10
78.234191915606
20
47.1003220392987
30
0
0
VERTEX
8
0
10
79.0244362783899
20
46.8337213047556
30
0
0
VERTEX
8
0
10
79.8146806411738
20
46.5595487129192
30
0
0
VERTEX
8
0
10
80.6049250039577
20
46.2853761210828
30
0
0
VERTEX
8
0
10
81.3951693667416
20
46.0316990801399
30
0
0
VERTEX
8
0
10
82.1854137295255
20
45.7771102448632
30
0
0
VERTEX
8
0
10
82.9756580923094
20
45.5225214095866
30
0
0
VERTEX
8
0
10
83.7659024550933
20
45.2771562329325
30
0
0
VERTEX
8
0
10
84.5561468178772
20
45.0356232353623
30
0
0
VERTEX
8
0
10
85.3463911806611
20
44.7940902377922
30
0
0
VERTEX
8
0
10
86.136635543445
20
44.552557240222
30
0
0
VERTEX
8
0
10
86.9268799062288
20
44.3199439698299
30
0
0
VERTEX
8
0
10
87.7171242690127
20
44.084938891113
30
0
0
VERTEX
8
0
10
88.5073686317966
20
43.849933812396
30
0
0
VERTEX
8
0
10
89.2976129945805
20
43.6283281460621
30
0
0
VERTEX
8
0
10
90.0878573573644
20
43.4063789050517
30
0
0
VERTEX
8
0
10
90.8781017201483
20
43.1844296640413
30
0
0
VERTEX
8
0
10
91.6683460829322
20
42.9647202656333
30
0
0
VERTEX
8
0
10
92.4585904457161
20
42.7460349840495
30
0
0
VERTEX
8
0
10
93.2488348085
20
42.5273497024657
30
0
0
VERTEX
8
0
10
94.0390791712839
20
42.3086644208819
30
0
0
VERTEX
8
0
10
94.8293235340678
20
42.1119480969773
30
0
0
VERTEX
8
0
10
95.6195678968517
20
41.9095826125266
30
0
0
VERTEX
8
0
10
96.4098122596356
20
41.707217128076
30
0
0
VERTEX
8
0
10
97.2000566224195
20
41.5114192057104
30
0
0
VERTEX
8
0
10
97.9903009852034
20
41.315581640113
30
0
0
VERTEX
8
0
10
98.7805453479873
20
41.1197440745156
30
0
0
VERTEX
8
0
10
99.5707897107712
20
40.936949132214
30
0
0
VERTEX
8
0
10
100.361034073555
20
40.7606953231763
30
0
0
VERTEX
8
0
10
101.151278436339
20
40.5844415141386
30
0
0
VERTEX
8
0
10
101.941522799123
20
40.408187705101
30
0
0
VERTEX
8
0
10
102.731767161907
20
40.2405893350286
30
0
0
VERTEX
8
0
10
103.522011524691
20
40.0708634448442
30
0
0
VERTEX
8
0
10
104.312255887475
20
39.9011375546597
30
0
0
VERTEX
8
0
10
105.102500250258
20
39.7378470824541
30
0
0
VERTEX
8
0
10
105.892744613042
20
39.5746491111229
30
0
0
VERTEX
8
0
10
106.682988975826
20
39.4114511397917
30
0
0
VERTEX
8
0
10
107.47323333861
20
39.2482531684605
30
0
0
VERTEX
8
0
10
108.263477701394
20
39.0850551971293
30
0
0
VERTEX
8
0
10
109.053722064178
20
38.9218572257981
30
0
0
VERTEX
8
0
10
109.843966426962
20
38.7586592544669
30
0
0
VERTEX
8
0
10
110.634210789746
20
38.6082462254242
30
0
0
VERTEX
8
0
10
111.42445515253
20
38.4548401323729
30
0
0
VERTEX
8
0
10
112.214699515314
20
38.3014340393216
30
0
0
VERTEX
8
0
10
113.004943878097
20
38.1511795832065
30
0
0
VERTEX
8
0
10
113.795188240881
20
38.0010374495818
30
0
0
VERTEX
8
0
10
114.585432603665
20
37.8508953159571
30
0
0
VERTEX
8
0
10
115.375676966449
20
37.7068780616613
30
0
0
VERTEX
8
0
10
116.165921329233
20
37.5665278063165
30
0
0
VERTEX
8
0
10
116.956165692017
20
37.4261775509717
30
0
0
VERTEX
8
0
10
117.746410054801
20
37.2858272956269
30
0
0
VERTEX
8
0
10
118.536654417585
20
37.1538681910347
30
0
0
VERTEX
8
0
10
119.326898780369
20
37.0200458545431
30
0
0
VERTEX
8
0
10
120.117143143153
20
36.8862235180515
30
0
0
VERTEX
8
0
10
120.907387505936
20
36.7616578762091
30
0
0
VERTEX
8
0
10
121.69763186872
20
36.6376274179974
30
0
0
VERTEX
8
0
10
122.487876231504
20
36.5135969597857
30
0
0
VERTEX
8
0
10
123.278120594288
20
36.3875909471842
30
0
0
VERTEX
8
0
10
124.068364957072
20
36.2602965295459
30
0
0
VERTEX
8
0
10
124.858609319856
20
36.1330021119076
30
0
0
VERTEX
8
0
10
125.64885368264
20
36.0057076942693
30
0
0
VERTEX
8
0
10
126.439098045424
20
35.8908017866004
30
0
0
VERTEX
8
0
10
127.229342408208
20
35.7732992472419
30
0
0
VERTEX
8
0
10
128.019586770992
20
35.6557967078835
30
0
0
VERTEX
8
0
10
128.809831133775
20
35.5322551828652
30
0
0
VERTEX
8
0
10
129.600075496559
20
35.4082247246535
30
0
0
VERTEX
8
0
10
130.390319859343
20
35.2841942664418
30
0
0
VERTEX
8
0
10
131.180564222127
20
35.16589225524
30
0
0
VERTEX
8
0
10
131.970808584911
20
35.0516536753081
30
0
0
VERTEX
8
0
10
132.761052947695
20
34.9374150953763
30
0
0
VERTEX
8
0
10
133.551297310479
20
34.8231765154445
30
0
0
VERTEX
8
0
10
134.341541673263
20
34.7251916605926
30
0
0
VERTEX
8
0
10
135.131786036047
20
34.6240089183672
30
0
0
VERTEX
8
0
10
135.922030398831
20
34.5228261761419
30
0
0
VERTEX
8
0
10
136.712274761615
20
34.4245968546933
30
0
0
VERTEX
8
0
10
137.502519124398
20
34.3266780718946
30
0
0
VERTEX
8
0
10
138.292763487182
20
34.2287592890958
30
0
0
VERTEX
8
0
10
139.083007849966
20
34.1234668651633
30
0
0
VERTEX
8
0
10
139.87325221275
20
34.0124922446581
30
0
0
VERTEX
8
0
10
140.663496575534
20
33.9015176241529
30
0
0
VERTEX
8
0
10
141.453740938318
20
33.7905430036477
30
0
0
VERTEX
8
0
10
142.243985301102
20
33.7035525384433
30
0
0
VERTEX
8
0
10
143.034229663886
20
33.6121616744979
30
0
0
VERTEX
8
0
10
143.82447402667
20
33.5207708105524
30
0
0
VERTEX
8
0
10
144.614718389454
20
33.4149432029892
30
0
0
VERTEX
8
0
10
145.404962752238
20
33.3072325419106
30
0
0
VERTEX
8
0
10
146.195207115022
20
33.199521880832
30
0
0
VERTEX
8
0
10
146.985451477805
20
33.1024752491351
30
0
0
VERTEX
8
0
10
147.775695840589
20
33.0143483446163
30
0
0
VERTEX
8
0
10
148.565940203373
20
32.9262214400974
30
0
0
VERTEX
8
0
10
149.356184566157
20
32.8380945355786
30
0
0
VERTEX
8
0
10
150.146428928941
20
32.7460363438961
30
0
0
VERTEX
8
0
10
150.936673291725
20
32.6546454799506
30
0
0
VERTEX
8
0
10
151.726917654509
20
32.5632546160052
30
0
0
VERTEX
8
0
10
152.517162017293
20
32.4831488587412
30
0
0
VERTEX
8
0
10
153.307406380077
20
32.4048138325023
30
0
0
VERTEX
8
0
10
154.097650742861
20
32.3264788062633
30
0
0
VERTEX
8
0
10
154.887895105645
20
32.3425486307953
30
0
0
SEQEND
8
0
0
POLYLINE
8
0
62
6
70
0
10
0
20
0
30
0
0
VERTEX
8
0
10
2.3707330883517
20
0.862881192791075
30
0
0
VERTEX
8
0
10
3.1609774511356
20
1.2904598776788
30
0
0
VERTEX
8
0
10
3.9512218139195
20
1.71803856256652
30
0
0
VERTEX
8
0
10
4.7414661767034
20
2.14561724745424
30
0
0
VERTEX
8
0
10
5.5317105394873
20
2.46668117542577
30
0
0
VERTEX
8
0
10
6.3219549022712
20
2.74085376726217
30
0
0
VERTEX
8
0
10
7.1121992650551
20
3.01502635909857
30
0
0
VERTEX
8
0
10
7.902443627839
20
3.28919895093497
30
0
0
VERTEX
8
0
10
8.6926879906229
20
3.55453110205716
30
0
0
VERTEX
8
0
10
9.4829323534068
20
3.82217577504031
30
0
0
VERTEX
8
0
10
10.2731767161907
20
4.08982044802347
30
0
0
VERTEX
8
0
10
11.0634210789746
20
4.28133029413824
30
0
0
VERTEX
8
0
10
11.8536654417585
20
4.47390390030905
30
0
0
VERTEX
8
0
10
12.6439098045424
20
4.66647750647986
30
0
0
VERTEX
8
0
10
13.4341541673263
20
4.8348489195743
30
0
0
VERTEX
8
0
10
14.2243985301102
20
4.99151897205224
30
0
0
VERTEX
8
0
10
15.0146428928941
20
5.14818902453018
30
0
0
VERTEX
8
0
10
15.804887255678
20
5.30485907700812
30
0
0
VERTEX
8
0
10
16.5951316184619
20
5.57473698538844
30
0
0
VERTEX
8
0
10
17.3853759812458
20
5.8162699829586
30
0
0
VERTEX
8
0
10
18.1756203440297
20
6.05780298052876
30
0
0
VERTEX
8
0
10
18.9658647068136
20
6.52318148703535
30
0
0
VERTEX
8
0
10
19.7561090695975
20
6.98992768504256
30
0
0
VERTEX
8
0
10
20.5463534323814
20
7.45667388304978
30
0
0
VERTEX
8
0
10
21.3365977951653
20
8.10482090303666
30
0
0
VERTEX
8
0
10
22.1268421579492
20
8.8490036523069
30
0
0
VERTEX
8
0
10
22.9170865207331
20
9.59318640157713
30
0
0
VERTEX
8
0
10
23.707330883517
20
10.3373691508474
30
0
0
VERTEX
8
0
10
24.4975752463009
20
11.1487726002011
30
0
0
VERTEX
8
0
10
25.2878196090848
20
11.9441217991496
30
0
0
VERTEX
8
0
10
26.0780639718687
20
12.7394709980982
30
0
0
VERTEX
8
0
10
26.8683083346526
20
13.5071107106108
30
0
0
VERTEX
8
0
10
27.6585526974365
20
14.2778403298842
30
0
0
VERTEX
8
0
10
28.4487970602204
20
15.0485699491576
30
0
0
VERTEX
8
0
10
29.2390414230043
20
15.6904079690274
30
0
0
VERTEX
8
0
10
30.0292857857882
20
16.3236160977925
30
0
0
VERTEX
8
0
10
30.8195301485721
20
16.9568242265575
30
0
0
VERTEX
8
0
10
31.609774511356
20
17.5510498439519
30
0
0
VERTEX
8
0
10
32.4000188741399
20
18.1189787841844
30
0
0
VERTEX
8
0
10
33.1902632369238
20
18.686907724417
30
0
0
VERTEX
8
0
10
33.9805075997077
20
19.2548366646495
30
0
0
VERTEX
8
0
10
34.7707519624916
20
19.5437565387536
30
0
0
VERTEX
8
0
10
35.5609963252755
20
19.8897362379757
30
0
0
VERTEX
8
0
10
36.3512406880594
20
20.2357159371978
30
0
0
VERTEX
8
0
10
37.1414850508433
20
20.5128551642216
30
0
0
VERTEX
8
0
10
37.9317294136272
20
20.7837637966314
30
0
0
VERTEX
8
0
10
38.7219737764111
20
21.0546724290412
30
0
0
VERTEX
8
0
10
39.512218139195
20
21.3029844192666
30
0
0
VERTEX
8
0
10
40.3024625019789
20
21.5347255385569
30
0
0
VERTEX
8
0
10
41.0927068647628
20
21.7664666578472
30
0
0
VERTEX
8
0
10
41.8829512275467
20
21.9982077771375
30
0
0
VERTEX
8
0
10
42.6731955903306
20
22.1815048670432
30
0
0
VERTEX
8
0
10
43.4634399531145
20
22.374078473214
30
0
0
VERTEX
8
0
10
44.2536843158984
20
22.5666520793848
30
0
0
VERTEX
8
0
10
45.0439286786823
20
22.7387367418674
30
0
0
VERTEX
8
0
10
45.8341730414662
20
22.9084626320518
30
0
0
VERTEX
8
0
10
46.6244174042501
20
23.0781885222363
30
0
0
VERTEX
8
0
10
47.414661767034
20
23.2679012085048
30
0
0
VERTEX
8
0
10
48.2049061298179
20
23.4735306523821
30
0
0
VERTEX
8
0
10
48.9951504926018
20
23.6791600962594
30
0
0
VERTEX
8
0
10
49.7853948553857
20
23.8847895401367
30
0
0
VERTEX
8
0
10
50.5756392181696
20
24.1460120095517
30
0
0
VERTEX
8
0
10
51.3658835809535
20
24.3973368854017
30
0
0
VERTEX
8
0
10
52.1561279437374
20
24.6486617612518
30
0
0
VERTEX
8
0
10
52.9463723065213
20
24.9171521565155
30
0
0
VERTEX
8
0
10
53.7366166693052
20
25.1880607889253
30
0
0
VERTEX
8
0
10
54.5268610320891
20
25.458969421335
30
0
0
VERTEX
8
0
10
55.3171053948729
20
25.7211235066997
30
0
0
VERTEX
8
0
10
56.1073497576568
20
25.9757123419764
30
0
0
VERTEX
8
0
10
56.8975941204407
20
26.230301177253
30
0
0
VERTEX
8
0
10
57.6878384832246
20
26.4848900125297
30
0
0
VERTEX
8
0
10
58.4780828460085
20
26.7433837061488
30
0
0
VERTEX
8
0
10
59.2683272087924
20
27.001236500852
30
0
0
VERTEX
8
0
10
60.0585715715763
20
27.2590892955553
30
0
0
VERTEX
8
0
10
60.8488159343602
20
27.5365060252024
30
0
0
VERTEX
8
0
10
61.6390602971441
20
27.817206535892
30
0
0
VERTEX
8
0
10
62.429304659928
20
28.0979070465817
30
0
0
VERTEX
8
0
10
63.2195490227119
20
28.3651288584245
30
0
0
VERTEX
8
0
10
64.0097933854958
20
28.6197176937012
30
0
0
VERTEX
8
0
10
64.8000377482797
20
28.8743065289779
30
0
0
VERTEX
8
0
10
65.5902821110636
20
29.1288953642545
30
0
0
VERTEX
8
0
10
66.3805264738475
20
29.3719678406636
30
0
0
VERTEX
8
0
10
67.1707708366314
20
29.6167647976603
30
0
0
VERTEX
8
0
10
67.9610151994153
20
29.8615617546571
30
0
0
VERTEX
8
0
10
68.7512595621992
20
30.0872572810823
30
0
0
VERTEX
8
0
10
69.5415039249831
20
30.3092065220928
30
0
0
VERTEX
8
0
10
70.331748287767
20
30.5311557631032
30
0
0
VERTEX
8
0
10
71.1219926505509
20
30.7531050041136
30
0
0
VERTEX
8
0
10
71.9122370133348
20
30.9066960989138
30
0
0
VERTEX
8
0
10
72.7024813761187
20
31.0829499079515
30
0
0
VERTEX
8
0
10
73.4927257389026
20
31.2592037169892
30
0
0
VERTEX
8
0
10
74.2829701016865
20
31.4731846683872
30
0
0
VERTEX
8
0
10
75.0732144644704
20
31.6820780716911
30
0
0
VERTEX
8
0
10
75.8634588272543
20
31.8909714749951
30
0
0
VERTEX
8
0
10
76.6537031900382
20
32.0918767670707
30
0
0
VERTEX
8
0
10
77.4439475528221
20
32.2909782920947
30
0
0
VERTEX
8
0
10
78.234191915606
20
32.4900798171188
30
0
0
VERTEX
8
0
10
79.0244362783899
20
32.6891813421428
30
0
0
VERTEX
8
0
10
79.8146806411738
20
32.8449329930817
30
0
0
VERTEX
8
0
10
80.6049250039577
20
33.0146588832662
30
0
0
VERTEX
8
0
10
81.3951693667416
20
33.1843847734506
30
0
0
VERTEX
8
0
10
82.1854137295255
20
33.3022176730749
30
0
0
VERTEX
8
0
10
82.9756580923094
20
33.4262481312866
30
0
0
VERTEX
8
0
10
83.7659024550933
20
33.5502785894983
30
0
0
VERTEX
8
0
10
84.5561468178772
20
33.6405528357452
30
0
0
VERTEX
8
0
10
85.3463911806611
20
33.7221518214108
30
0
0
VERTEX
8
0
10
86.136635543445
20
33.8037508070764
30
0
0
VERTEX
8
0
10
86.9268799062288
20
33.885349792742
30
0
0
VERTEX
8
0
10
87.7171242690127
20
33.9479464559158
30
0
0
VERTEX
8
0
10
88.5073686317966
20
34.0164896038749
30
0
0
VERTEX
8
0
10
89.2976129945805
20
34.085032751834
30
0
0
VERTEX
8
0
10
90.0878573573644
20
34.1644976101821
30
0
0
VERTEX
8
0
10
90.8781017201483
20
34.2428326364211
30
0
0
VERTEX
8
0
10
91.6683460829322
20
34.3211676626601
30
0
0
VERTEX
8
0
10
92.4585904457161
20
34.3792582118076
30
0
0
VERTEX
8
0
10
93.2488348085
20
34.4314815626336
30
0
0
VERTEX
8
0
10
94.0390791712839
20
34.4837049134596
30
0
0
VERTEX
8
0
10
94.8293235340678
20
34.5359282642856
30
0
0
VERTEX
8
0
10
95.6195678968517
20
34.5319375122741
30
0
0
VERTEX
8
0
10
96.4098122596356
20
34.5449933499806
30
0
0
VERTEX
8
0
10
97.2000566224195
20
34.5580491876871
30
0
0
VERTEX
8
0
10
97.9903009852034
20
34.5389345427048
30
0
0
VERTEX
8
0
10
98.7805453479873
20
34.5226147455717
30
0
0
VERTEX
8
0
10
99.5707897107712
20
34.5062949484386
30
0
0
VERTEX
8
0
10
100.361034073555
20
34.4480788623901
30
0
0
VERTEX
8
0
10
101.151278436339
20
34.3762717550044
30
0
0
VERTEX
8
0
10
101.941522799123
20
34.3044646476186
30
0
0
VERTEX
8
0
10
102.731767161907
20
34.2326575402329
30
0
0
VERTEX
8
0
10
103.522011524691
20
34.1654688693638
30
0
0
VERTEX
8
0
10
104.312255887475
20
34.0969257214047
30
0
0
VERTEX
8
0
10
105.102500250258
20
34.0283825734456
30
0
0
VERTEX
8
0
10
105.892744613042
20
33.9808899816266
30
0
0
VERTEX
8
0
10
106.682988975826
20
33.9319305902273
30
0
0
VERTEX
8
0
10
107.47323333861
20
33.8829711988279
30
0
0
VERTEX
8
0
10
108.263477701394
20
33.8484023006091
30
0
0
VERTEX
8
0
10
109.053722064178
20
33.8190266657695
30
0
0
VERTEX
8
0
10
109.843966426962
20
33.7896510309299
30
0
0
VERTEX
8
0
10
110.634210789746
20
33.7602753960903
30
0
0
VERTEX
8
0
10
111.42445515253
20
33.6762713876893
30
0
0
VERTEX
8
0
10
112.214699515314
20
33.6077282397301
30
0
0
VERTEX
8
0
10
113.004943878097
20
33.539185091771
30
0
0
VERTEX
8
0
10
113.795188240881
20
33.4706419438119
30
0
0
VERTEX
8
0
10
114.585432603665
20
33.4020987958528
30
0
0
VERTEX
8
0
10
115.375676966449
20
33.3335556478937
30
0
0
VERTEX
8
0
10
116.165921329233
20
33.2580154695039
30
0
0
VERTEX
8
0
10
116.956165692017
20
33.1796804432649
30
0
0
VERTEX
8
0
10
117.746410054801
20
33.1013454170259
30
0
0
VERTEX
8
0
10
118.536654417585
20
33.023010390787
30
0
0
VERTEX
8
0
10
119.326898780369
20
32.9312164873172
30
0
0
VERTEX
8
0
10
120.117143143153
20
32.8430895827983
30
0
0
VERTEX
8
0
10
120.907387505936
20
32.7549626782795
30
0
0
VERTEX
8
0
10
121.69763186872
20
32.6499543641756
30
0
0
VERTEX
8
0
10
122.487876231504
20
32.5455076625236
30
0
0
VERTEX
8
0
10
123.278120594288
20
32.4410609608717
30
0
0
VERTEX
8
0
10
124.068364957072
20
32.3207503592535
30
0
0
VERTEX
8
0
10
124.858609319856
20
32.1934559416151
30
0
0
VERTEX
8
0
10
125.64885368264
20
32.0661615239768
30
0
0
VERTEX
8
0
10
126.439098045424
20
31.9388671063385
30
0
0
VERTEX
8
0
10
127.229342408208
20
31.8336737904857
30
0
0
VERTEX
8
0
10
128.019586770992
20
31.7226991699805
30
0
0
VERTEX
8
0
10
128.809831133775
20
31.6117245494753
30
0
0
VERTEX
8
0
10
129.600075496559
20
31.4974397191062
30
0
0
VERTEX
8
0
10
130.390319859343
20
31.3832011391744
30
0
0
VERTEX
8
0
10
131.180564222127
20
31.2689625592425
30
0
0
VERTEX
8
0
10
131.970808584911
20
31.1459231818284
30
0
0
VERTEX
8
0
10
132.761052947695
20
31.0186287641901
30
0
0
VERTEX
8
0
10
133.551297310479
20
30.8913343465517
30
0
0
VERTEX
8
0
10
134.341541673263
20
30.7640399289134
30
0
0
VERTEX
8
0
10
135.131786036047
20
30.6323913629711
30
0
0
VERTEX
8
0
10
135.922030398831
20
30.5018329859062
30
0
0
VERTEX
8
0
10
136.712274761615
20
30.3712746088412
30
0
0
VERTEX
8
0
10
137.502519124398
20
30.2504486452083
30
0
0
VERTEX
8
0
10
138.292763487182
20
30.1296821464232
30
0
0
VERTEX
8
0
10
139.083007849966
20
30.0089156476381
30
0
0
VERTEX
8
0
10
139.87325221275
20
29.9009539127575
30
0
0
VERTEX
8
0
10
140.663496575534
20
29.7997711705321
30
0
0
VERTEX
8
0
10
141.453740938318
20
29.6985884283068
30
0
0
VERTEX
8
0
10
142.243985301102
20
29.5974056860814
30
0
0
VERTEX
8
0
10
143.034229663886
20
29.5691202401191
30
0
0
VERTEX
8
0
10
143.82447402667
20
29.5234248081464
30
0
0
VERTEX
8
0
10
144.614718389454
20
29.4777293761736
30
0
0
VERTEX
8
0
10
145.404962752238
20
29.4765268648059
30
0
0
VERTEX
8
0
10
146.195207115022
20
29.4765268648059
30
0
0
VERTEX
8
0
10
146.985451477805
20
29.4765268648059
30
0
0
VERTEX
8
0
10
147.775695840589
20
29.4765268648059
30
0
0
VERTEX
8
0
10
148.565940203373
20
29.4765268648059
30
0
0
VERTEX
8
0
10
149.356184566157
20
29.4765268648059
30
0
0
VERTEX
8
0
10
150.146428928941
20
29.4765268648059
30
0
0
VERTEX
8
0
10
150.936673291725
20
29.4765268648059
30
0
0
VERTEX
8
0
10
151.726917654509
20
29.4765268648059
30
0
0
VERTEX
8
0
10
152.517162017293
20
29.4765268648059
30
0
0
VERTEX
8
0
10
153.307406380077
20
29.4765268648059
30
0
0
VERTEX
8
0
10
154.097650742861
20
29.4765268648059
30
0
0
VERTEX
8
0
10
154.887895105645
20
29.4765268648059
30
0
0
SEQEND
8
0
0
POLYLINE
8
0
62
6
70
0
10
0
20
0
30
0
0
VERTEX
8
0
10
2.3707330883517
20
38.2310633383717
30
0
0
VERTEX
8
0
10
3.1609774511356
20
41.2284431735096
30
0
0
VERTEX
8
0
10
3.9512218139195
20
46.3973484295908
30
0
0
VERTEX
8
0
10
4.7414661767034
20
49.0307198514248
30
0
0
VERTEX
8
0
10
5.5317105394873
20
51.2228538798861
30
0
0
VERTEX
8
0
10
6.3219549022712
20
52.9579306630439
30
0
0
VERTEX
8
0
10
7.1121992650551
20
54.7459276369484
30
0
0
VERTEX
8
0
10
7.902443627839
20
56.9413614411999
30
0
0
VERTEX
8
0
10
8.6926879906229
20
58.9557170863924
30
0
0
VERTEX
8
0
10
9.4829323534068
20
61.370589961289
30
0
0
VERTEX
8
0
10
10.2731767161907
20
63.9559962450285
30
0
0
VERTEX
8
0
10
11.0634210789746
20
66.485877305742
30
0
0
VERTEX
8
0
10
11.8536654417585
20
68.9789303152902
30
0
0
VERTEX
8
0
10
12.6439098045424
20
71.7208189360851
30
0
0
VERTEX
8
0
10
13.4341541673263
20
74.9612781851976
30
0
0
VERTEX
8
0
10
14.2243985301102
20
76.9139881626125
30
0
0
VERTEX
8
0
10
15.0146428928941
20
78.7462634173379
30
0
0
VERTEX
8
0
10
15.804887255678
20
80.4478292040977
30
0
0
VERTEX
8
0
10
16.5951316184619
20
82.0564835488242
30
0
0
VERTEX
8
0
10
17.3853759812458
20
83.0552401462956
30
0
0
VERTEX
8
0
10
18.1756203440297
20
83.4730269529035
30
0
0
VERTEX
8
0
10
18.9658647068136
20
83.8908137595113
30
0
0
VERTEX
8
0
10
19.7561090695975
20
84.3086005661192
30
0
0
VERTEX
8
0
10
20.5463534323814
20
84.6651782226699
30
0
0
VERTEX
8
0
10
21.3365977951653
20
85.0307416784517
30
0
0
VERTEX
8
0
10
22.1268421579492
20
85.3963051342336
30
0
0
VERTEX
8
0
10
22.9170865207331
20
86.0329592037374
30
0
0
VERTEX
8
0
10
23.707330883517
20
86.7243590662799
30
0
0
VERTEX
8
0
10
24.4975752463009
20
87.4157589288225
30
0
0
VERTEX
8
0
10
25.2878196090848
20
88.1635080587456
30
0
0
VERTEX
8
0
10
26.0780639718687
20
88.9424442045774
30
0
0
VERTEX
8
0
10
26.8683083346526
20
89.7213803504092
30
0
0
VERTEX
8
0
10
27.6585526974365
20
90.500316496241
30
0
0
VERTEX
8
0
10
28.4487970602204
20
90.9056307869832
30
0
0
VERTEX
8
0
10
29.2390414230043
20
91.427864295243
30
0
0
VERTEX
8
0
10
30.0292857857882
20
91.9500978035029
30
0
0
VERTEX
8
0
10
30.8195301485721
20
92.3339896468342
30
0
0
VERTEX
8
0
10
31.609774511356
20
92.7321926968823
30
0
0
VERTEX
8
0
10
32.4000188741399
20
93.1303957469304
30
0
0
VERTEX
8
0
10
33.1902632369238
20
93.4855792831592
30
0
0
VERTEX
8
0
10
33.9805075997077
20
93.8282950229547
30
0
0
VERTEX
8
0
10
34.7707519624916
20
94.1710107627502
30
0
0
VERTEX
8
0
10
35.5609963252755
20
94.5137265025457
30
0
0
VERTEX
8
0
10
36.3512406880594
20
94.8095971566433
30
0
0
VERTEX
8
0
10
37.1414850508433
20
95.1196733021726
30
0
0
VERTEX
8
0
10
37.9317294136272
20
95.4297494477019
30
0
0
VERTEX
8
0
10
38.7219737764111
20
95.6790591259302
30
0
0
VERTEX
8
0
10
39.512218139195
20
95.9336479612068
30
0
0
VERTEX
8
0
10
40.3024625019789
20
96.1882367964835
30
0
0
VERTEX
8
0
10
41.0927068647628
20
96.3886069049284
30
0
0
VERTEX
8
0
10
41.8829512275467
20
96.5713886328194
30
0
0
VERTEX
8
0
10
42.6731955903306
20
96.7541703607103
30
0
0
VERTEX
8
0
10
43.4634399531145
20
96.9369520886012
30
0
0
VERTEX
8
0
10
44.2536843158984
20
97.073549451326
30
0
0
VERTEX
8
0
10
45.0439286786823
20
97.2236915849507
30
0
0
VERTEX
8
0
10
45.8341730414662
20
97.3738337185754
30
0
0
VERTEX
8
0
10
46.6244174042501
20
97.51345057413
30
0
0
VERTEX
8
0
10
47.414661767034
20
97.6538008294748
30
0
0
VERTEX
8
0
10
48.2049061298179
20
97.7941510848196
30
0
0
VERTEX
8
0
10
48.9951504926018
20
97.948891833345
30
0
0
VERTEX
8
0
10
49.7853948553857
20
98.1088258452496
30
0
0
VERTEX
8
0
10
50.5756392181696
20
98.2687598571542
30
0
0
VERTEX
8
0
10
51.3658835809535
20
98.4286938690587
30
0
0
VERTEX
8
0
10
52.1561279437374
20
98.5613136941826
30
0
0
VERTEX
8
0
10
52.9463723065213
20
98.7016639495274
30
0
0
VERTEX
8
0
10
53.7366166693052
20
98.8420142048722
30
0
0
VERTEX
8
0
10
54.5268610320891
20
98.9754797522767
30
0
0
VERTEX
8
0
10
55.3171053948729
20
99.1093020887683
30
0
0
VERTEX
8
0
10
56.1073497576568
20
99.2431244252599
30
0
0
VERTEX
8
0
10
56.8975941204407
20
99.3699497313207
30
0
0
VERTEX
8
0
10
57.6878384832246
20
99.4939801895324
30
0
0
VERTEX
8
0
10
58.4780828460085
20
99.6180106477441
30
0
0
VERTEX
8
0
10
59.2683272087924
20
99.7420411059558
30
0
0
VERTEX
8
0
10
60.0585715715763
20
99.8705578565778
30
0
0
VERTEX
8
0
10
60.8488159343602
20
99.9978522742161
30
0
0
VERTEX
8
0
10
61.6390602971441
20
100.125146691854
30
0
0
VERTEX
8
0
10
62.429304659928
20
100.245688545659
30
0
0
VERTEX
8
0
10
63.2195490227119
20
100.366455044444
30
0
0
VERTEX
8
0
10
64.0097933854958
20
100.487221543229
30
0
0
VERTEX
8
0
10
64.8000377482797
20
100.612520584861
30
0
0
VERTEX
8
0
10
65.5902821110636
20
100.7398150025
30
0
0
VERTEX
8
0
10
66.3805264738475
20
100.867109420138
30
0
0
VERTEX
8
0
10
67.1707708366314
20
100.994403837776
30
0
0
VERTEX
8
0
10
67.9610151994153
20
101.090756712915
30
0
0
VERTEX
8
0
10
68.7512595621992
20
101.195203414567
30
0
0
VERTEX
8
0
10
69.5415039249831
20
101.299650116219
30
0
0
VERTEX
8
0
10
70.331748287767
20
101.397476398143
30
0
0
VERTEX
8
0
10
71.1219926505509
20
101.495395180942
30
0
0
VERTEX
8
0
10
71.9122370133348
20
101.593313963741
30
0
0
VERTEX
8
0
10
72.7024813761187
20
101.682431949057
30
0
0
VERTEX
8
0
10
73.4927257389026
20
101.767294894149
30
0
0
VERTEX
8
0
10
74.2829701016865
20
101.852157839241
30
0
0
VERTEX
8
0
10
75.0732144644704
20
101.937020784334
30
0
0
VERTEX
8
0
10
75.8634588272543
20
102.043654470946
30
0
0
VERTEX
8
0
10
76.6537031900382
20
102.144837213171
30
0
0
VERTEX
8
0
10
77.4439475528221
20
102.246019955396
30
0
0
VERTEX
8
0
10
78.234191915606
20
102.330982008568
30
0
0
VERTEX
8
0
10
79.0244362783899
20
102.415844953661
30
0
0
VERTEX
8
0
10
79.8146806411738
20
102.500707898753
30
0
0
VERTEX
8
0
10
80.6049250039577
20
102.566363697988
30
0
0
VERTEX
8
0
10
81.3951693667416
20
102.621851008241
30
0
0
VERTEX
8
0
10
82.1854137295255
20
102.677338318494
30
0
0
VERTEX
8
0
10
82.9756580923094
20
102.732825628746
30
0
0
VERTEX
8
0
10
83.7659024550933
20
102.7968890915
30
0
0
VERTEX
8
0
10
84.5561468178772
20
102.858904320606
30
0
0
VERTEX
8
0
10
85.3463911806611
20
102.920919549712
30
0
0
VERTEX
8
0
10
86.136635543445
20
102.951154121243
30
0
0
VERTEX
8
0
10
86.9268799062288
20
102.980529756082
30
0
0
VERTEX
8
0
10
87.7171242690127
20
103.009905390922
30
0
0
VERTEX
8
0
10
88.5073686317966
20
103.04341713629
30
0
0
VERTEX
8
0
10
89.2976129945805
20
103.079320689983
30
0
0
VERTEX
8
0
10
90.0878573573644
20
103.115224243676
30
0
0
VERTEX
8
0
10
90.8781017201483
20
103.151127797369
30
0
0
VERTEX
8
0
10
91.6683460829322
20
103.174365338469
30
0
0
VERTEX
8
0
10
92.4585904457161
20
103.200477013882
30
0
0
VERTEX
8
0
10
93.2488348085
20
103.226588689295
30
0
0
VERTEX
8
0
10
94.0390791712839
20
103.249588371003
30
0
0
VERTEX
8
0
10
94.8293235340678
20
103.27243608699
30
0
0
VERTEX
8
0
10
95.6195678968517
20
103.295283802976
30
0
0
VERTEX
8
0
10
96.4098122596356
20
103.296109703641
30
0
0
VERTEX
8
0
10
97.2000566224195
20
103.283053865934
30
0
0
VERTEX
8
0
10
97.9903009852034
20
103.269998028228
30
0
0
VERTEX
8
0
10
98.7805453479873
20
103.256942190521
30
0
0
VERTEX
8
0
10
99.5707897107712
20
103.248042284959
30
0
0
VERTEX
8
0
10
100.361034073555
20
103.238250406679
30
0
0
VERTEX
8
0
10
101.151278436339
20
103.228458528399
30
0
0
VERTEX
8
0
10
101.941522799123
20
103.197345198561
30
0
0
VERTEX
8
0
10
102.731767161907
20
103.164705604295
30
0
0
VERTEX
8
0
10
103.522011524691
20
103.132066010029
30
0
0
VERTEX
8
0
10
104.312255887475
20
103.097490504605
30
0
0
VERTEX
8
0
10
105.102500250258
20
103.061586950912
30
0
0
VERTEX
8
0
10
105.892744613042
20
103.025683397219
30
0
0
VERTEX
8
0
10
106.682988975826
20
102.989779843526
30
0
0
VERTEX
8
0
10
107.47323333861
20
102.994774890746
30
0
0
VERTEX
8
0
10
108.263477701394
20
102.991510931319
30
0
0
VERTEX
8
0
10
109.053722064178
20
102.988246971893
30
0
0
VERTEX
8
0
10
109.843966426962
20
102.937305418898
30
0
0
VERTEX
8
0
10
110.634210789746
20
102.881818108646
30
0
0
VERTEX
8
0
10
111.42445515253
20
102.826330798393
30
0
0
VERTEX
8
0
10
112.214699515314
20
102.793281557397
30
0
0
VERTEX
8
0
10
113.004943878097
20
102.776961760264
30
0
0
VERTEX
8
0
10
113.795188240881
20
102.760641963131
30
0
0
VERTEX
8
0
10
114.585432603665
20
102.744322165998
30
0
0
VERTEX
8
0
10
115.375676966449
20
102.691788276522
30
0
0
VERTEX
8
0
10
116.165921329233
20
102.646092844549
30
0
0
VERTEX
8
0
10
116.956165692017
20
102.600397412576
30
0
0
VERTEX
8
0
10
117.746410054801
20
102.569270868328
30
0
0
VERTEX
8
0
10
118.536654417585
20
102.539895233488
30
0
0
VERTEX
8
0
10
119.326898780369
20
102.510519598649
30
0
0
VERTEX
8
0
10
120.117143143153
20
102.45949875919
30
0
0
VERTEX
8
0
10
120.907387505936
20
102.390955611231
30
0
0
VERTEX
8
0
10
121.69763186872
20
102.322412463272
30
0
0
VERTEX
8
0
10
122.487876231504
20
102.253869315313
30
0
0
VERTEX
8
0
10
123.278120594288
20
102.197199315309
30
0
0
VERTEX
8
0
10
124.068364957072
20
102.138448045629
30
0
0
VERTEX
8
0
10
124.858609319856
20
102.07969677595
30
0
0
VERTEX
8
0
10
125.64885368264
20
102.009554684304
30
0
0
VERTEX
8
0
10
126.439098045424
20
101.937747576919
30
0
0
VERTEX
8
0
10
127.229342408208
20
101.865940469533
30
0
0
VERTEX
8
0
10
128.019586770992
20
101.808034922134
30
0
0
VERTEX
8
0
10
128.809831133775
20
101.762339490162
30
0
0
VERTEX
8
0
10
129.600075496559
20
101.716644058189
30
0
0
VERTEX
8
0
10
130.390319859343
20
101.670948626216
30
0
0
VERTEX
8
0
10
131.180564222127
20
101.598011686721
30
0
0
VERTEX
8
0
10
131.970808584911
20
101.529468538762
30
0
0
VERTEX
8
0
10
132.761052947695
20
101.460925390803
30
0
0
VERTEX
8
0
10
133.551297310479
20
101.395163876282
30
0
0
VERTEX
8
0
10
134.341541673263
20
101.32988468775
30
0
0
VERTEX
8
0
10
135.131786036047
20
101.264605499217
30
0
0
VERTEX
8
0
10
135.922030398831
20
101.199326310685
30
0
0
VERTEX
8
0
10
136.712274761615
20
101.134047122152
30
0
0
VERTEX
8
0
10
137.502519124398
20
101.06876793362
30
0
0
VERTEX
8
0
10
138.292763487182
20
101.003488745087
30
0
0
VERTEX
8
0
10
139.083007849966
20
100.934383984676
30
0
0
VERTEX
8
0
10
139.87325221275
20
100.865840836717
30
0
0
VERTEX
8
0
10
140.663496575534
20
100.797297688758
30
0
0
VERTEX
8
0
10
141.453740938318
20
100.736901224955
30
0
0
VERTEX
8
0
10
142.243985301102
20
100.678149955276
30
0
0
VERTEX
8
0
10
143.034229663886
20
100.619398685597
30
0
0
VERTEX
8
0
10
143.82447402667
20
100.560647415917
30
0
0
VERTEX
8
0
10
144.614718389454
20
100.511635166875
30
0
0
VERTEX
8
0
10
145.404962752238
20
100.459411816049
30
0
0
VERTEX
8
0
10
146.195207115022
20
100.407188465223
30
0
0
VERTEX
8
0
10
146.985451477805
20
100.392560112651
30
0
0
VERTEX
8
0
10
147.775695840589
20
100.372976356092
30
0
0
VERTEX
8
0
10
148.565940203373
20
100.353392599532
30
0
0
VERTEX
8
0
10
149.356184566157
20
100.315262417647
30
0
0
VERTEX
8
0
10
150.146428928941
20
100.272830945101
30
0
0
VERTEX
8
0
10
150.936673291725
20
100.230399472555
30
0
0
VERTEX
8
0
10
151.726917654509
20
100.187968000009
30
0
0
VERTEX
8
0
10
152.517162017293
20
100.164750280525
30
0
0
VERTEX
8
0
10
153.307406380077
20
100.135374645685
30
0
0
VERTEX
8
0
10
154.097650742861
20
100.105999010846
30
0
0
VERTEX
8
0
10
154.887895105645
20
100.109864225956
30
0
0
SEQEND
8
0
0
POLYLINE
8
0
62
1
70
0
10
0
20
0
30
0
0
VERTEX
8
0
10
2.3707330883517
20
29.3357658107009
30
0
0
VERTEX
8
0
10
3.1609774511356
20
36.5745587885006
30
0
0
VERTEX
8
0
10
3.9512218139195
20
43.1821065435308
30
0
0
VERTEX
8
0
10
4.7414661767034
20
46.3593783022778
30
0
0
VERTEX
8
0
10
5.5317105394873
20
48.7953925415575
30
0
0
VERTEX
8
0
10
6.3219549022712
20
50.9789040162629
30
0
0
VERTEX
8
0
10
7.1121992650551
20
52.4044022359674
30
0
0
VERTEX
8
0
10
7.902443627839
20
54.0309814471849
30
0
0
VERTEX
8
0
10
8.6926879906229
20
55.6557466012058
30
0
0
VERTEX
8
0
10
9.4829323534068
20
57.3266375769392
30
0
0
VERTEX
8
0
10
10.2731767161907
20
59.3588822307041
30
0
0
VERTEX
8
0
10
11.0634210789746
20
61.4163974744454
30
0
0
VERTEX
8
0
10
11.8536654417585
20
63.4561113799997
30
0
0
VERTEX
8
0
10
12.6439098045424
20
66.1574189579821
30
0
0
VERTEX
8
0
10
13.4341541673263
20
68.1239810050624
30
0
0
VERTEX
8
0
10
14.2243985301102
20
70.0733030131495
30
0
0
VERTEX
8
0
10
15.0146428928941
20
71.5355031041821
30
0
0
VERTEX
8
0
10
15.804887255678
20
72.5863690451731
30
0
0
VERTEX
8
0
10
16.5951316184619
20
73.4952453807784
30
0
0
VERTEX
8
0
10
17.3853759812458
20
74.4024530574586
30
0
0
VERTEX
8
0
10
18.1756203440297
20
73.8709049424054
30
0
0
VERTEX
8
0
10
18.9658647068136
20
73.608164917021
30
0
0
VERTEX
8
0
10
19.7561090695975
20
73.3488230547163
30
0
0
VERTEX
8
0
10
20.5463534323814
20
73.0279493284145
30
0
0
VERTEX
8
0
10
21.3365977951653
20
72.7207007618194
30
0
0
VERTEX
8
0
10
22.1268421579492
20
72.4315992361179
30
0
0
VERTEX
8
0
10
22.9170865207331
20
72.3543986663112
30
0
0
VERTEX
8
0
10
23.707330883517
20
72.4665132255086
30
0
0
VERTEX
8
0
10
24.4975752463009
20
72.5963788176003
30
0
0
VERTEX
8
0
10
25.2878196090848
20
72.7324279334041
30
0
0
VERTEX
8
0
10
26.0780639718687
20
72.915092422281
30
0
0
VERTEX
8
0
10
26.8683083346526
20
73.0948222211383
30
0
0
VERTEX
8
0
10
27.6585526974365
20
73.2827792546737
30
0
0
VERTEX
8
0
10
28.4487970602204
20
73.1992850585919
30
0
0
VERTEX
8
0
10
29.2390414230043
20
73.0469997852435
30
0
0
VERTEX
8
0
10
30.0292857857882
20
72.8992983731663
30
0
0
VERTEX
8
0
10
30.8195301485721
20
72.7128382627609
30
0
0
VERTEX
8
0
10
31.609774511356
20
72.4799604163485
30
0
0
VERTEX
8
0
10
32.4000188741399
20
72.2466728037847
30
0
0
VERTEX
8
0
10
33.1902632369238
20
72.0191680304033
30
0
0
VERTEX
8
0
10
33.9805075997077
20
71.8268831631558
30
0
0
VERTEX
8
0
10
34.7707519624916
20
71.5594208329735
30
0
0
VERTEX
8
0
10
35.5609963252755
20
71.3098281536812
30
0
0
VERTEX
8
0
10
36.3512406880594
20
71.0576763938685
30
0
0
VERTEX
8
0
10
37.1414850508433
20
70.7871388655975
30
0
0
VERTEX
8
0
10
37.9317294136272
20
70.5167110648809
30
0
0
VERTEX
8
0
10
38.7219737764111
20
70.2481893452995
30
0
0
VERTEX
8
0
10
39.512218139195
20
69.900704616619
30
0
0
VERTEX
8
0
10
40.3024625019789
20
69.57428847015
30
0
0
VERTEX
8
0
10
41.0927068647628
20
69.249629788756
30
0
0
VERTEX
8
0
10
41.8829512275467
20
68.859300196244
30
0
0
VERTEX
8
0
10
42.6731955903306
20
68.4639788598628
30
0
0
VERTEX
8
0
10
43.4634399531145
20
68.0732856245114
30
0
0
VERTEX
8
0
10
44.2536843158984
20
67.6793155132872
30
0
0
VERTEX
8
0
10
45.0439286786823
20
67.2789778341408
30
0
0
VERTEX
8
0
10
45.8341730414662
20
66.8794150028256
30
0
0
VERTEX
8
0
10
46.6244174042501
20
66.4814417054755
30
0
0
VERTEX
8
0
10
47.414661767034
20
66.1190225175726
30
0
0
VERTEX
8
0
10
48.2049061298179
20
65.7554627320514
30
0
0
VERTEX
8
0
10
48.9951504926018
20
65.3938597308358
30
0
0
VERTEX
8
0
10
49.7853948553857
20
65.0684778270021
30
0
0
VERTEX
8
0
10
50.5756392181696
20
64.7618121573265
30
0
0
VERTEX
8
0
10
51.3658835809535
20
64.4539226479741
30
0
0
VERTEX
8
0
10
52.1561279437374
20
64.1366135034587
30
0
0
VERTEX
8
0
10
52.9463723065213
20
63.8253521621455
30
0
0
VERTEX
8
0
10
53.7366166693052
20
63.5178535782047
30
0
0
VERTEX
8
0
10
54.5268610320891
20
63.2132297751194
30
0
0
VERTEX
8
0
10
55.3171053948729
20
62.9294994201801
30
0
0
VERTEX
8
0
10
56.1073497576568
20
62.638707861166
30
0
0
VERTEX
8
0
10
56.8975941204407
20
62.3506220962988
30
0
0
VERTEX
8
0
10
57.6878384832246
20
62.0783543502091
30
0
0
VERTEX
8
0
10
58.4780828460085
20
61.809211754677
30
0
0
VERTEX
8
0
10
59.2683272087924
20
61.5425773881478
30
0
0
VERTEX
8
0
10
60.0585715715763
20
61.294460585818
30
0
0
VERTEX
8
0
10
60.8488159343602
20
61.0626596041952
30
0
0
VERTEX
8
0
10
61.6390602971441
20
60.835348517444
30
0
0
VERTEX
8
0
10
62.429304659928
20
60.6111011072352
30
0
0
VERTEX
8
0
10
63.2195490227119
20
60.4206313199803
30
0
0
VERTEX
8
0
10
64.0097933854958
20
60.2158084117926
30
0
0
VERTEX
8
0
10
64.8000377482797
20
60.0136332389645
30
0
0
VERTEX
8
0
10
65.5902821110636
20
59.8327270087455
30
0
0
VERTEX
8
0
10
66.3805264738475
20
59.6472281174576
30
0
0
VERTEX
8
0
10
67.1707708366314
20
59.465054256352
30
0
0
VERTEX
8
0
10
67.9610151994153
20
59.287495024191
30
0
0
VERTEX
8
0
10
68.7512595621992
20
59.103435601567
30
0
0
VERTEX
8
0
10
69.5415039249831
20
58.9197700819362
30
0
0
VERTEX
8
0
10
70.331748287767
20
58.7384068556817
30
0
0
VERTEX
8
0
10
71.1219926505509
20
58.5867244257065
30
0
0
VERTEX
8
0
10
71.9122370133348
20
58.3930841599704
30
0
0
VERTEX
8
0
10
72.7024813761187
20
58.2130966357511
30
0
0
VERTEX
8
0
10
73.4927257389026
20
58.043686861993
30
0
0
VERTEX
8
0
10
74.2829701016865
20
57.8959585451908
30
0
0
VERTEX
8
0
10
75.0732144644704
20
57.7475539989591
30
0
0
VERTEX
8
0
10
75.8634588272543
20
57.6130813671503
30
0
0
VERTEX
8
0
10
76.6537031900382
20
57.4805892127905
30
0
0
VERTEX
8
0
10
77.4439475528221
20
57.3489838208097
30
0
0
VERTEX
8
0
10
78.234191915606
20
57.2192766707898
30
0
0
VERTEX
8
0
10
79.0244362783899
20
57.1137464019917
30
0
0
VERTEX
8
0
10
79.8146806411738
20
56.9787785027963
30
0
0
VERTEX
8
0
10
80.6049250039577
20
56.8533529692711
30
0
0
VERTEX
8
0
10
81.3951693667416
20
56.7461074700016
30
0
0
VERTEX
8
0
10
82.1854137295255
20
56.609023347124
30
0
0
VERTEX
8
0
10
82.9756580923094
20
56.4766679224316
30
0
0
VERTEX
8
0
10
83.7659024550933
20
56.3528355096204
30
0
0
VERTEX
8
0
10
84.5561468178772
20
56.2129358359095
30
0
0
VERTEX
8
0
10
85.3463911806611
20
56.0686547341538
30
0
0
VERTEX
8
0
10
86.136635543445
20
55.9251636141565
30
0
0
VERTEX
8
0
10
86.9268799062288
20
55.7895542558402
30
0
0
VERTEX
8
0
10
87.7171242690127
20
55.6412158890052
30
0
0
VERTEX
8
0
10
88.5073686317966
20
55.4971914633708
30
0
0
VERTEX
8
0
10
89.2976129945805
20
55.3644332989517
30
0
0
VERTEX
8
0
10
90.0878573573644
20
55.2388144931176
30
0
0
VERTEX
8
0
10
90.8781017201483
20
55.1132157687653
30
0
0
VERTEX
8
0
10
91.6683460829322
20
54.9900876270674
30
0
0
VERTEX
8
0
10
92.4585904457161
20
54.8557827585363
30
0
0
VERTEX
8
0
10
93.2488348085
20
54.7183917464118
30
0
0
VERTEX
8
0
10
94.0390791712839
20
54.5815810474317
30
0
0
VERTEX
8
0
10
94.8293235340678
20
54.4623403242864
30
0
0
VERTEX
8
0
10
95.6195678968517
20
54.303478922697
30
0
0
VERTEX
8
0
10
96.4098122596356
20
54.155780172745
30
0
0
VERTEX
8
0
10
97.2000566224195
20
54.0134861690192
30
0
0
VERTEX
8
0
10
97.9903009852034
20
53.8508615121995
30
0
0
VERTEX
8
0
10
98.7805453479873
20
53.6902624469729
30
0
0
VERTEX
8
0
10
99.5707897107712
20
53.5398748160856
30
0
0
VERTEX
8
0
10
100.361034073555
20
53.367634578818
30
0
0
VERTEX
8
0
10
101.151278436339
20
53.1866990213573
30
0
0
VERTEX
8
0
10
101.941522799123
20
53.005829192367
30
0
0
VERTEX
8
0
10
102.731767161907
20
52.8316181116695
30
0
0
VERTEX
8
0
10
103.522011524691
20
52.6588393366091
30
0
0
VERTEX
8
0
10
104.312255887475
20
52.4852467061637
30
0
0
VERTEX
8
0
10
105.102500250258
20
52.3166064583062
30
0
0
VERTEX
8
0
10
105.892744613042
20
52.1618034217751
30
0
0
VERTEX
8
0
10
106.682988975826
20
52.0061380466209
30
0
0
VERTEX
8
0
10
107.47323333861
20
51.8505652238833
30
0
0
VERTEX
8
0
10
108.263477701394
20
51.7045053942742
30
0
0
VERTEX
8
0
10
109.053722064178
20
51.5619776048732
30
0
0
VERTEX
8
0
10
109.843966426962
20
51.4195894965712
30
0
0
VERTEX
8
0
10
110.634210789746
20
51.2869659019018
30
0
0
VERTEX
8
0
10
111.42445515253
20
51.1162007995866
30
0
0
VERTEX
8
0
10
112.214699515314
20
50.9556596160236
30
0
0
VERTEX
8
0
10
113.004943878097
20
50.7975338004726
30
0
0
VERTEX
8
0
10
113.795188240881
20
50.6395371165198
30
0
0
VERTEX
8
0
10
114.585432603665
20
50.4815855554029
30
0
0
VERTEX
8
0
10
115.375676966449
20
50.3282682524267
30
0
0
VERTEX
8
0
10
116.165921329233
20
50.1730964202182
30
0
0
VERTEX
8
0
10
116.956165692017
20
50.0160970128021
30
0
0
VERTEX
8
0
10
117.746410054801
20
49.8591213875313
30
0
0
VERTEX
8
0
10
118.536654417585
20
49.7084413035332
30
0
0
VERTEX
8
0
10
119.326898780369
20
49.5474400388862
30
0
0
VERTEX
8
0
10
120.117143143153
20
49.3888855793221
30
0
0
VERTEX
8
0
10
120.907387505936
20
49.2372528667363
30
0
0
VERTEX
8
0
10
121.69763186872
20
49.0747925395793
30
0
0
VERTEX
8
0
10
122.487876231504
20
48.9127062423769
30
0
0
VERTEX
8
0
10
123.278120594288
20
48.7491457484805
30
0
0
VERTEX
8
0
10
124.068364957072
20
48.5740672395856
30
0
0
VERTEX
8
0
10
124.858609319856
20
48.3943431310296
30
0
0
VERTEX
8
0
10
125.64885368264
20
48.214621241351
30
0
0
VERTEX
8
0
10
126.439098045424
20
48.0441555750685
30
0
0
VERTEX
8
0
10
127.229342408208
20
47.886446162059
30
0
0
VERTEX
8
0
10
128.019586770992
20
47.7248937296145
30
0
0
VERTEX
8
0
10
128.809831133775
20
47.5588297519204
30
0
0
VERTEX
8
0
10
129.600075496559
20
47.3902003267584
30
0
0
VERTEX
8
0
10
130.390319859343
20
47.2216018234651
30
0
0
VERTEX
8
0
10
131.180564222127
20
47.0572842144387
30
0
0
VERTEX
8
0
10
131.970808584911
20
46.8901584154084
30
0
0
VERTEX
8
0
10
132.761052947695
20
46.7202130127557
30
0
0
VERTEX
8
0
10
133.551297310479
20
46.5502756204112
30
0
0
VERTEX
8
0
10
134.341541673263
20
46.3925111263948
30
0
0
VERTEX
8
0
10
135.131786036047
20
46.2294861986741
30
0
0
VERTEX
8
0
10
135.922030398831
20
46.0672046328863
30
0
0
VERTEX
8
0
10
136.712274761615
20
45.9071583739813
30
0
0
VERTEX
8
0
10
137.502519124398
20
45.7538028002905
30
0
0
VERTEX
8
0
10
138.292763487182
20
45.6005011893001
30
0
0
VERTEX
8
0
10
139.083007849966
20
45.441677007401
30
0
0
VERTEX
8
0
10
139.87325221275
20
45.287047525598
30
0
0
VERTEX
8
0
10
140.663496575534
20
45.1368946543382
30
0
0
VERTEX
8
0
10
141.453740938318
20
44.9867419482153
30
0
0
VERTEX
8
0
10
142.243985301102
20
44.8546082031501
30
0
0
VERTEX
8
0
10
143.034229663886
20
44.7672903380047
30
0
0
VERTEX
8
0
10
143.82447402667
20
44.6684977152339
30
0
0
VERTEX
8
0
10
144.614718389454
20
44.5588931464183
30
0
0
VERTEX
8
0
10
145.404962752238
20
44.4773804940504
30
0
0
VERTEX
8
0
10
146.195207115022
20
44.3967779138021
30
0
0
VERTEX
8
0
10
146.985451477805
20
44.3242541238003
30
0
0
VERTEX
8
0
10
147.775695840589
20
44.2584775227447
30
0
0
VERTEX
8
0
10
148.565940203373
20
44.1927787577785
30
0
0
VERTEX
8
0
10
149.356184566157
20
44.1271581765609
30
0
0
VERTEX
8
0
10
150.146428928941
20
44.058694173198
30
0
0
VERTEX
8
0
10
150.936673291725
20
43.9908116250756
30
0
0
VERTEX
8
0
10
151.726917654509
20
43.9230143227717
30
0
0
VERTEX
8
0
10
152.517162017293
20
43.8636591701008
30
0
0
VERTEX
8
0
10
153.307406380077
20
43.8056799459928
30
0
0
VERTEX
8
0
10
154.097650742861
20
43.7477641488501
30
0
0
VERTEX
8
0
10
154.887895105645
20
43.7596399430683
30
0
0
SEQEND
8
0
0
POLYLINE
8
0
62
2
70
0
10
0
20
0
30
0
0
VERTEX
8
0
10
2.3707330883517
20
29.0480176766916
30
0
0
VERTEX
8
0
10
3.1609774511356
20
36.5602289073241
30
0
0
VERTEX
8
0
10
3.9512218139195
20
43.0068905350593
30
0
0
VERTEX
8
0
10
4.7414661767034
20
46.3292578848444
30
0
0
VERTEX
8
0
10
5.5317105394873
20
48.8617254870843
30
0
0
VERTEX
8
0
10
6.3219549022712
20
51.1547857831606
30
0
0
VERTEX
8
0
10
7.1121992650551
20
52.4881719025356
30
0
0
VERTEX
8
0
10
7.902443627839
20
54.0083770598187
30
0
0
VERTEX
8
0
10
8.6926879906229
20
55.5540986278403
30
0
0
VERTEX
8
0
10
9.4829323534068
20
57.3096986313108
30
0
0
VERTEX
8
0
10
10.2731767161907
20
59.3272625583855
30
0
0
VERTEX
8
0
10
11.0634210789746
20
61.3933198560449
30
0
0
VERTEX
8
0
10
11.8536654417585
20
63.4858576184165
30
0
0
VERTEX
8
0
10
12.6439098045424
20
66.191417468748
30
0
0
VERTEX
8
0
10
13.4341541673263
20
68.2373061420264
30
0
0
VERTEX
8
0
10
14.2243985301102
20
70.260306761662
30
0
0
VERTEX
8
0
10
15.0146428928941
20
71.5496028002687
30
0
0
VERTEX
8
0
10
15.804887255678
20
72.5837400394501
30
0
0
VERTEX
8
0
10
16.5951316184619
20
73.4808647683163
30
0
0
VERTEX
8
0
10
17.3853759812458
20
74.3699418015799
30
0
0
VERTEX
8
0
10
18.1756203440297
20
73.8703163522519
30
0
0
VERTEX
8
0
10
18.9658647068136
20
73.6052271138249
30
0
0
VERTEX
8
0
10
19.7561090695975
20
73.3540860283041
30
0
0
VERTEX
8
0
10
20.5463534323814
20
73.0471750255664
30
0
0
VERTEX
8
0
10
21.3365977951653
20
72.7551481620155
30
0
0
VERTEX
8
0
10
22.1268421579492
20
72.4869393043984
30
0
0
VERTEX
8
0
10
22.9170865207331
20
72.3538550833682
30
0
0
VERTEX
8
0
10
23.707330883517
20
72.4657397877885
30
0
0
VERTEX
8
0
10
24.4975752463009
20
72.5733161703823
30
0
0
VERTEX
8
0
10
25.2878196090848
20
72.713663882199
30
0
0
VERTEX
8
0
10
26.0780639718687
20
72.9027453366243
30
0
0
VERTEX
8
0
10
26.8683083346526
20
73.0939190713372
30
0
0
VERTEX
8
0
10
27.6585526974365
20
73.2882117256967
30
0
0
VERTEX
8
0
10
28.4487970602204
20
73.2196959991995
30
0
0
VERTEX
8
0
10
29.2390414230043
20
73.0786892828901
30
0
0
VERTEX
8
0
10
30.0292857857882
20
72.9017414091151
30
0
0
VERTEX
8
0
10
30.8195301485721
20
72.7153707931484
30
0
0
VERTEX
8
0
10
31.609774511356
20
72.4823859333799
30
0
0
VERTEX
8
0
10
32.4000188741399
20
72.2355900498472
30
0
0
VERTEX
8
0
10
33.1902632369238
20
72.0116528697389
30
0
0
VERTEX
8
0
10
33.9805075997077
20
71.822964534622
30
0
0
VERTEX
8
0
10
34.7707519624916
20
71.5609261711882
30
0
0
VERTEX
8
0
10
35.5609963252755
20
71.3168870228785
30
0
0
VERTEX
8
0
10
36.3512406880594
20
71.0708583529796
30
0
0
VERTEX
8
0
10
37.1414850508433
20
70.8067156561575
30
0
0
VERTEX
8
0
10
37.9317294136272
20
70.5197969019695
30
0
0
VERTEX
8
0
10
38.7219737764111
20
70.2503401785382
30
0
0
VERTEX
8
0
10
39.512218139195
20
69.9043864070446
30
0
0
VERTEX
8
0
10
40.3024625019789
20
69.5702868846304
30
0
0
VERTEX
8
0
10
41.0927068647628
20
69.2474479962375
30
0
0
VERTEX
8
0
10
41.8829512275467
20
68.8613304504778
30
0
0
VERTEX
8
0
10
42.6731955903306
20
68.4668024134144
30
0
0
VERTEX
8
0
10
43.4634399531145
20
68.0773607701899
30
0
0
VERTEX
8
0
10
44.2536843158984
20
67.6845257421697
30
0
0
VERTEX
8
0
10
45.0439286786823
20
67.2848325811841
30
0
0
VERTEX
8
0
10
45.8341730414662
20
66.881136550692
30
0
0
VERTEX
8
0
10
46.6244174042501
20
66.4837351630789
30
0
0
VERTEX
8
0
10
47.414661767034
20
66.1203028805677
30
0
0
VERTEX
8
0
10
48.2049061298179
20
65.7556063220877
30
0
0
VERTEX
8
0
10
48.9951504926018
20
65.3952507208312
30
0
0
VERTEX
8
0
10
49.7853948553857
20
65.0691649148052
30
0
0
VERTEX
8
0
10
50.5756392181696
20
64.7639062159741
30
0
0
VERTEX
8
0
10
51.3658835809535
20
64.455769831442
30
0
0
VERTEX
8
0
10
52.1561279437374
20
64.1380404326612
30
0
0
VERTEX
8
0
10
52.9463723065213
20
63.832486338997
30
0
0
VERTEX
8
0
10
53.7366166693052
20
63.5400700865212
30
0
0
VERTEX
8
0
10
54.5268610320891
20
63.2592280703561
30
0
0
VERTEX
8
0
10
55.3171053948729
20
62.9859524220674
30
0
0
VERTEX
8
0
10
56.1073497576568
20
62.7202282118738
30
0
0
VERTEX
8
0
10
56.8975941204407
20
62.464776796021
30
0
0
VERTEX
8
0
10
57.6878384832246
20
62.2192932013943
30
0
0
VERTEX
8
0
10
58.4780828460085
20
61.9851724582213
30
0
0
VERTEX
8
0
10
59.2683272087924
20
61.76021845682
30
0
0
VERTEX
8
0
10
60.0585715715763
20
61.5444401894616
30
0
0
VERTEX
8
0
10
60.8488159343602
20
61.346364492134
30
0
0
VERTEX
8
0
10
61.6390602971441
20
61.1586909892216
30
0
0
VERTEX
8
0
10
62.429304659928
20
60.9797318529061
30
0
0
VERTEX
8
0
10
63.2195490227119
20
60.8029738826711
30
0
0
VERTEX
8
0
10
64.0097933854958
20
60.6283703503238
30
0
0
VERTEX
8
0
10
64.8000377482797
20
60.4615386506197
30
0
0
VERTEX
8
0
10
65.5902821110636
20
60.3022821226156
30
0
0
VERTEX
8
0
10
66.3805264738475
20
60.1447866946107
30
0
0
VERTEX
8
0
10
67.1707708366314
20
59.9952232795361
30
0
0
VERTEX
8
0
10
67.9610151994153
20
59.8525844542727
30
0
0
VERTEX
8
0
10
68.7512595621992
20
59.7070744010626
30
0
0
VERTEX
8
0
10
69.5415039249831
20
59.5660583450029
30
0
0
VERTEX
8
0
10
70.331748287767
20
59.4312513806225
30
0
0
VERTEX
8
0
10
71.1219926505509
20
59.3025049246224
30
0
0
VERTEX
8
0
10
71.9122370133348
20
59.1439251737535
30
0
0
VERTEX
8
0
10
72.7024813761187
20
59.002461226638
30
0
0
VERTEX
8
0
10
73.4927257389026
20
58.866234186907
30
0
0
VERTEX
8
0
10
74.2829701016865
20
58.755319461067
30
0
0
VERTEX
8
0
10
75.0732144644704
20
58.6469782456531
30
0
0
VERTEX
8
0
10
75.8634588272543
20
58.5437928337252
30
0
0
VERTEX
8
0
10
76.6537031900382
20
58.4412607855508
30
0
0
VERTEX
8
0
10
77.4439475528221
20
58.3425883829989
30
0
0
VERTEX
8
0
10
78.234191915606
20
58.2486509059269
30
0
0
VERTEX
8
0
10
79.0244362783899
20
58.1593444545613
30
0
0
VERTEX
8
0
10
79.8146806411738
20
58.0500298696642
30
0
0
VERTEX
8
0
10
80.6049250039577
20
57.9527639973116
30
0
0
VERTEX
8
0
10
81.3951693667416
20
57.8596016724176
30
0
0
VERTEX
8
0
10
82.1854137295255
20
57.7405086746993
30
0
0
VERTEX
8
0
10
82.9756580923094
20
57.6285753496713
30
0
0
VERTEX
8
0
10
83.7659024550933
20
57.5201672321142
30
0
0
VERTEX
8
0
10
84.5561468178772
20
57.3954149875102
30
0
0
VERTEX
8
0
10
85.3463911806611
20
57.268722925707
30
0
0
VERTEX
8
0
10
86.136635543445
20
57.1450813400592
30
0
0
VERTEX
8
0
10
86.9268799062288
20
57.0244222087294
30
0
0
VERTEX
8
0
10
87.7171242690127
20
56.8953394027914
30
0
0
VERTEX
8
0
10
88.5073686317966
20
56.7725756119149
30
0
0
VERTEX
8
0
10
89.2976129945805
20
56.6525362963025
30
0
0
VERTEX
8
0
10
90.0878573573644
20
56.5417607429556
30
0
0
VERTEX
8
0
10
90.8781017201483
20
56.4329619555716
30
0
0
VERTEX
8
0
10
91.6683460829322
20
56.3267633794622
30
0
0
VERTEX
8
0
10
92.4585904457161
20
56.2107262698246
30
0
0
VERTEX
8
0
10
93.2488348085
20
56.0934834049824
30
0
0
VERTEX
8
0
10
94.0390791712839
20
55.9785598088681
30
0
0
VERTEX
8
0
10
94.8293235340678
20
55.8659067645296
30
0
0
VERTEX
8
0
10
95.6195678968517
20
55.7206217490422
30
0
0
VERTEX
8
0
10
96.4098122596356
20
55.587899577989
30
0
0
VERTEX
8
0
10
97.2000566224195
20
55.4571608686214
30
0
0
VERTEX
8
0
10
97.9903009852034
20
55.3082684098293
30
0
0
VERTEX
8
0
10
98.7805453479873
20
55.1629300810309
30
0
0
VERTEX
8
0
10
99.5707897107712
20
55.0193661591232
30
0
0
VERTEX
8
0
10
100.361034073555
20
54.851217857098
30
0
0
VERTEX
8
0
10
101.151278436339
20
54.6761343555039
30
0
0
VERTEX
8
0
10
101.941522799123
20
54.5026076179092
30
0
0
VERTEX
8
0
10
102.731767161907
20
54.3306056905221
30
0
0
VERTEX
8
0
10
103.522011524691
20
54.1630106622555
30
0
0
VERTEX
8
0
10
104.312255887475
20
53.9960300735217
30
0
0
VERTEX
8
0
10
105.102500250258
20
53.8304878899861
30
0
0
VERTEX
8
0
10
105.892744613042
20
53.6796786243284
30
0
0
VERTEX
8
0
10
106.682988975826
20
53.5293534795603
30
0
0
VERTEX
8
0
10
107.47323333861
20
53.3804118685105
30
0
0
VERTEX
8
0
10
108.263477701394
20
53.2419742604445
30
0
0
VERTEX
8
0
10
109.053722064178
20
53.1081998152307
30
0
0
VERTEX
8
0
10
109.843966426962
20
52.9757659726484
30
0
0
VERTEX
8
0
10
110.634210789746
20
52.8446471045931
30
0
0
VERTEX
8
0
10
111.42445515253
20
52.6798796346548
30
0
0
VERTEX
8
0
10
112.214699515314
20
52.5261924218252
30
0
0
VERTEX
8
0
10
113.004943878097
20
52.3736870284748
30
0
0
VERTEX
8
0
10
113.795188240881
20
52.2223415642364
30
0
0
VERTEX
8
0
10
114.585432603665
20
52.0721346973546
30
0
0
VERTEX
8
0
10
115.375676966449
20
51.9230456368268
30
0
0
VERTEX
8
0
10
116.165921329233
20
51.7705588629347
30
0
0
VERTEX
8
0
10
116.956165692017
20
51.6173468433636
30
0
0
VERTEX
8
0
10
117.746410054801
20
51.4651849003302
30
0
0
VERTEX
8
0
10
118.536654417585
20
51.3140545464182
30
0
0
VERTEX
8
0
10
119.326898780369
20
51.1552725588657
30
0
0
VERTEX
8
0
10
120.117143143153
20
50.9998407027098
30
0
0
VERTEX
8
0
10
120.907387505936
20
50.8453823177101
30
0
0
VERTEX
8
0
10
121.69763186872
20
50.6810038976007
30
0
0
VERTEX
8
0
10
122.487876231504
20
50.5179247735078
30
0
0
VERTEX
8
0
10
123.278120594288
20
50.3557680346255
30
0
0
VERTEX
8
0
10
124.068364957072
20
50.184300454232
30
0
0
VERTEX
8
0
10
124.858609319856
20
50.0092336493368
30
0
0
VERTEX
8
0
10
125.64885368264
20
49.8350539049661
30
0
0
VERTEX
8
0
10
126.439098045424
20
49.6617482814559
30
0
0
VERTEX
8
0
10
127.229342408208
20
49.5035135062218
30
0
0
VERTEX
8
0
10
128.019586770992
20
49.3424012029381
30
0
0
VERTEX
8
0
10
128.809831133775
20
49.1821165779024
30
0
0
VERTEX
8
0
10
129.600075496559
20
49.0205191287903
30
0
0
VERTEX
8
0
10
130.390319859343
20
48.8597517650458
30
0
0
VERTEX
8
0
10
131.180564222127
20
48.6997642667986
30
0
0
VERTEX
8
0
10
131.970808584911
20
48.5348750465829
30
0
0
VERTEX
8
0
10
132.761052947695
20
48.3680144878429
30
0
0
VERTEX
8
0
10
133.551297310479
20
48.2025571261947
30
0
0
VERTEX
8
0
10
134.341541673263
20
48.0393505869058
30
0
0
VERTEX
8
0
10
135.131786036047
20
47.8730265520705
30
0
0
VERTEX
8
0
10
135.922030398831
20
47.7074500648805
30
0
0
VERTEX
8
0
10
136.712274761615
20
47.5432789833675
30
0
0
VERTEX
8
0
10
137.502519124398
20
47.3859394331853
30
0
0
VERTEX
8
0
10
138.292763487182
20
47.2287426137632
30
0
0
VERTEX
8
0
10
139.083007849966
20
47.0719506207212
30
0
0
VERTEX
8
0
10
139.87325221275
20
46.9239304517794
30
0
0
VERTEX
8
0
10
140.663496575534
20
46.7809038707925
30
0
0
VERTEX
8
0
10
141.453740938318
20
46.6395475296049
30
0
0
VERTEX
8
0
10
142.243985301102
20
46.5011592345544
30
0
0
VERTEX
8
0
10
143.034229663886
20
46.4089209797031
30
0
0
VERTEX
8
0
10
143.82447402667
20
46.3046607252275
30
0
0
VERTEX
8
0
10
144.614718389454
20
46.2003349449518
30
0
0
VERTEX
8
0
10
145.404962752238
20
46.1249444194102
30
0
0
VERTEX
8
0
10
146.195207115022
20
46.0510474401269
30
0
0
VERTEX
8
0
10
146.985451477805
20
45.9779508296499
30
0
0
VERTEX
8
0
10
147.775695840589
20
45.9056323666952
30
0
0
VERTEX
8
0
10
148.565940203373
20
45.8337842298891
30
0
0
VERTEX
8
0
10
149.356184566157
20
45.7624332938074
30
0
0
VERTEX
8
0
10
150.146428928941
20
45.6915694184423
30
0
0
VERTEX
8
0
10
150.936673291725
20
45.6211164906168
30
0
0
VERTEX
8
0
10
151.726917654509
20
45.5515750133285
30
0
0
VERTEX
8
0
10
152.517162017293
20
45.4841474331138
30
0
0
VERTEX
8
0
10
153.307406380077
20
45.4198144532601
30
0
0
VERTEX
8
0
10
154.097650742861
20
45.3730907906764
30
0
0
VERTEX
8
0
10
154.887895105645
20
45.3493501321787
30
0
0
SEQEND
8
0
0
POLYLINE
8
0
62
3
70
0
10
0
20
0
30
0
0
VERTEX
8
0
10
2.3707330883517
20
31.368374208393
30
0
0
VERTEX
8
0
10
3.1609774511356
20
39.6919170503274
30
0
0
VERTEX
8
0
10
3.9512218139195
20
46.9231272763981
30
0
0
VERTEX
8
0
10
4.7414661767034
20
51.1660447332172
30
0
0
VERTEX
8
0
10
5.5317105394873
20
54.6262612964685
30
0
0
VERTEX
8
0
10
6.3219549022712
20
57.8269888252489
30
0
0
VERTEX
8
0
10
7.1121992650551
20
60.0742836508559
30
0
0
VERTEX
8
0
10
7.902443627839
20
62.5218756333976
30
0
0
VERTEX
8
0
10
8.6926879906229
20
64.9770790821965
30
0
0
VERTEX
8
0
10
9.4829323534068
20
67.5450373315868
30
0
0
VERTEX
8
0
10
10.2731767161907
20
70.3879466728524
30
0
0
VERTEX
8
0
10
11.0634210789746
20
73.251230887917
30
0
0
VERTEX
8
0
10
11.8536654417585
20
76.1112929688127
30
0
0
VERTEX
8
0
10
12.6439098045424
20
79.4567236864664
30
0
0
VERTEX
8
0
10
13.4341541673263
20
82.1954537021807
30
0
0
VERTEX
8
0
10
14.2243985301102
20
84.8658832127911
30
0
0
VERTEX
8
0
10
15.0146428928941
20
86.7568678405377
30
0
0
VERTEX
8
0
10
15.804887255678
20
88.4651826093077
30
0
0
VERTEX
8
0
10
16.5951316184619
20
89.9371272549479
30
0
0
VERTEX
8
0
10
17.3853759812458
20
91.460111732708
30
0
0
VERTEX
8
0
10
18.1756203440297
20
91.7688774905478
30
0
0
VERTEX
8
0
10
18.9658647068136
20
92.2320109959073
30
0
0
VERTEX
8
0
10
19.7561090695975
20
92.6838495011271
30
0
0
VERTEX
8
0
10
20.5463534323814
20
93.0715238219958
30
0
0
VERTEX
8
0
10
21.3365977951653
20
93.4565868761158
30
0
0
VERTEX
8
0
10
22.1268421579492
20
93.8515144231901
30
0
0
VERTEX
8
0
10
22.9170865207331
20
94.2907388926636
30
0
0
VERTEX
8
0
10
23.707330883517
20
94.9509327668658
30
0
0
VERTEX
8
0
10
24.4975752463009
20
95.548481025678
30
0
0
VERTEX
8
0
10
25.2878196090848
20
96.2185004593585
30
0
0
VERTEX
8
0
10
26.0780639718687
20
96.9124872660842
30
0
0
VERTEX
8
0
10
26.8683083346526
20
97.5926844749969
30
0
0
VERTEX
8
0
10
27.6585526974365
20
98.2563181528921
30
0
0
VERTEX
8
0
10
28.4487970602204
20
98.6982134254911
30
0
0
VERTEX
8
0
10
29.2390414230043
20
99.0685328619682
30
0
0
VERTEX
8
0
10
30.0292857857882
20
99.3505753587015
30
0
0
VERTEX
8
0
10
30.8195301485721
20
99.6445628083862
30
0
0
VERTEX
8
0
10
31.609774511356
20
99.8904794928114
30
0
0
VERTEX
8
0
10
32.4000188741399
20
100.083000723854
30
0
0
VERTEX
8
0
10
33.1902632369238
20
100.320800956737
30
0
0
VERTEX
8
0
10
33.9805075997077
20
100.573444854337
30
0
0
VERTEX
8
0
10
34.7707519624916
20
100.763154718428
30
0
0
VERTEX
8
0
10
35.5609963252755
20
100.952814196644
30
0
0
VERTEX
8
0
10
36.3512406880594
20
101.130870933826
30
0
0
VERTEX
8
0
10
37.1414850508433
20
101.285891438444
30
0
0
VERTEX
8
0
10
37.9317294136272
20
101.380881024255
30
0
0
VERTEX
8
0
10
38.7219737764111
20
101.504594659887
30
0
0
VERTEX
8
0
10
39.512218139195
20
101.565721262165
30
0
0
VERTEX
8
0
10
40.3024625019789
20
101.607547438771
30
0
0
VERTEX
8
0
10
41.0927068647628
20
101.676771434521
30
0
0
VERTEX
8
0
10
41.8829512275467
20
101.692685559032
30
0
0
VERTEX
8
0
10
42.6731955903306
20
101.695952936265
30
0
0
VERTEX
8
0
10
43.4634399531145
20
101.696277151458
30
0
0
VERTEX
8
0
10
44.2536843158984
20
101.6888083935
30
0
0
VERTEX
8
0
10
45.0439286786823
20
101.671912996072
30
0
0
VERTEX
8
0
10
45.8341730414662
20
101.629172506388
30
0
0
VERTEX
8
0
10
46.6244174042501
20
101.602379903141
30
0
0
VERTEX
8
0
10
47.414661767034
20
101.595305852017
30
0
0
VERTEX
8
0
10
48.2049061298179
20
101.573112052283
30
0
0
VERTEX
8
0
10
48.9951504926018
20
101.567010389916
30
0
0
VERTEX
8
0
10
49.7853948553857
20
101.582749268538
30
0
0
VERTEX
8
0
10
50.5756392181696
20
101.609853830637
30
0
0
VERTEX
8
0
10
51.3658835809535
20
101.633921275798
30
0
0
VERTEX
8
0
10
52.1561279437374
20
101.649774208234
30
0
0
VERTEX
8
0
10
52.9463723065213
20
101.672814958504
30
0
0
VERTEX
8
0
10
53.7366166693052
20
101.67883312829
30
0
0
VERTEX
8
0
10
54.5268610320891
20
101.708872927329
30
0
0
VERTEX
8
0
10
55.3171053948729
20
101.724995324822
30
0
0
VERTEX
8
0
10
56.1073497576568
20
101.766915390785
30
0
0
VERTEX
8
0
10
56.8975941204407
20
101.81447489919
30
0
0
VERTEX
8
0
10
57.6878384832246
20
101.867766234197
30
0
0
VERTEX
8
0
10
58.4780828460085
20
101.92752646241
30
0
0
VERTEX
8
0
10
59.2683272087924
20
101.992471943163
30
0
0
VERTEX
8
0
10
60.0585715715763
20
102.063126796315
30
0
0
VERTEX
8
0
10
60.8488159343602
20
102.14445640221
30
0
0
VERTEX
8
0
10
61.6390602971441
20
102.200646906453
30
0
0
VERTEX
8
0
10
62.429304659928
20
102.284133334569
30
0
0
VERTEX
8
0
10
63.2195490227119
20
102.347783300436
30
0
0
VERTEX
8
0
10
64.0097933854958
20
102.437461033064
30
0
0
VERTEX
8
0
10
64.8000377482797
20
102.530748647835
30
0
0
VERTEX
8
0
10
65.5902821110636
20
102.627531256219
30
0
0
VERTEX
8
0
10
66.3805264738475
20
102.724755153571
30
0
0
VERTEX
8
0
10
67.1707708366314
20
102.825534241015
30
0
0
VERTEX
8
0
10
67.9610151994153
20
102.928829925356
30
0
0
VERTEX
8
0
10
68.7512595621992
20
103.003748048826
30
0
0
VERTEX
8
0
10
69.5415039249831
20
103.098243240693
30
0
0
VERTEX
8
0
10
70.331748287767
20
103.195317580142
30
0
0
VERTEX
8
0
10
71.1219926505509
20
103.274779078701
30
0
0
VERTEX
8
0
10
71.9122370133348
20
103.361076726717
30
0
0
VERTEX
8
0
10
72.7024813761187
20
103.452970870412
30
0
0
VERTEX
8
0
10
73.4927257389026
20
103.54946448204
30
0
0
VERTEX
8
0
10
74.2829701016865
20
103.658350526705
30
0
0
VERTEX
8
0
10
75.0732144644704
20
103.769020303481
30
0
0
VERTEX
8
0
10
75.8634588272543
20
103.880630276898
30
0
0
VERTEX
8
0
10
76.6537031900382
20
103.96303082474
30
0
0
VERTEX
8
0
10
77.4439475528221
20
104.066506076603
30
0
0
VERTEX
8
0
10
78.234191915606
20
104.171135774866
30
0
0
VERTEX
8
0
10
79.0244362783899
20
104.256444244236
30
0
0
VERTEX
8
0
10
79.8146806411738
20
104.35528945833
30
0
0
VERTEX
8
0
10
80.6049250039577
20
104.457113624168
30
0
0
VERTEX
8
0
10
81.3951693667416
20
104.558096343152
30
0
0
VERTEX
8
0
10
82.1854137295255
20
104.644452773984
30
0
0
VERTEX
8
0
10
82.9756580923094
20
104.730812311912
30
0
0
VERTEX
8
0
10
83.7659024550933
20
104.815897270743
30
0
0
VERTEX
8
0
10
84.5561468178772
20
104.866803813026
30
0
0
VERTEX
8
0
10
85.3463911806611
20
104.931951235668
30
0
0
VERTEX
8
0
10
86.136635543445
20
104.996749647305
30
0
0
VERTEX
8
0
10
86.9268799062288
20
105.047590189526
30
0
0
VERTEX
8
0
10
87.7171242690127
20
105.110467711821
30
0
0
VERTEX
8
0
10
88.5073686317966
20
105.173560827848
30
0
0
VERTEX
8
0
10
89.2976129945805
20
105.237410147792
30
0
0
VERTEX
8
0
10
90.0878573573644
20
105.304021689801
30
0
0
VERTEX
8
0
10
90.8781017201483
20
105.370541839603
30
0
0
VERTEX
8
0
10
91.6683460829322
20
105.435139441687
30
0
0
VERTEX
8
0
10
92.4585904457161
20
105.470768170378
30
0
0
VERTEX
8
0
10
93.2488348085
20
105.520329918424
30
0
0
VERTEX
8
0
10
94.0390791712839
20
105.553526408655
30
0
0
VERTEX
8
0
10
94.8293235340678
20
105.60530144474
30
0
0
VERTEX
8
0
10
95.6195678968517
20
105.638896449213
30
0
0
VERTEX
8
0
10
96.4098122596356
20
105.67298639549
30
0
0
VERTEX
8
0
10
97.2000566224195
20
105.705705540914
30
0
0
VERTEX
8
0
10
97.9903009852034
20
105.728441026847
30
0
0
VERTEX
8
0
10
98.7805453479873
20
105.749747327224
30
0
0
VERTEX
8
0
10
99.5707897107712
20
105.767530823626
30
0
0
VERTEX
8
0
10
100.361034073555
20
105.760011503156
30
0
0
VERTEX
8
0
10
101.151278436339
20
105.755603463019
30
0
0
VERTEX
8
0
10
101.941522799123
20
105.744961170146
30
0
0
VERTEX
8
0
10
102.731767161907
20
105.740305290235
30
0
0
VERTEX
8
0
10
103.522011524691
20
105.736266563614
30
0
0
VERTEX
8
0
10
104.312255887475
20
105.731344749938
30
0
0
VERTEX
8
0
10
105.102500250258
20
105.727138202486
30
0
0
VERTEX
8
0
10
105.892744613042
20
105.728034071085
30
0
0
VERTEX
8
0
10
106.682988975826
20
105.728886389713
30
0
0
VERTEX
8
0
10
107.47323333861
20
105.72250537641
30
0
0
VERTEX
8
0
10
108.263477701394
20
105.724825676037
30
0
0
VERTEX
8
0
10
109.053722064178
20
105.728931563267
30
0
0
VERTEX
8
0
10
109.843966426962
20
105.725701864456
30
0
0
VERTEX
8
0
10
110.634210789746
20
105.729751646022
30
0
0
VERTEX
8
0
10
111.42445515253
20
105.717911970378
30
0
0
VERTEX
8
0
10
112.214699515314
20
105.705204312446
30
0
0
VERTEX
8
0
10
113.004943878097
20
105.693480642126
30
0
0
VERTEX
8
0
10
113.795188240881
20
105.681251905496
30
0
0
VERTEX
8
0
10
114.585432603665
20
105.668479426871
30
0
0
VERTEX
8
0
10
115.375676966449
20
105.649811412539
30
0
0
VERTEX
8
0
10
116.165921329233
20
105.632415171106
30
0
0
VERTEX
8
0
10
116.956165692017
20
105.613409087773
30
0
0
VERTEX
8
0
10
117.746410054801
20
105.591315715348
30
0
0
VERTEX
8
0
10
118.536654417585
20
105.571733026467
30
0
0
VERTEX
8
0
10
119.326898780369
20
105.548214040529
30
0
0
VERTEX
8
0
10
120.117143143153
20
105.524131174052
30
0
0
VERTEX
8
0
10
120.907387505936
20
105.498567057504
30
0
0
VERTEX
8
0
10
121.69763186872
20
105.468249349634
30
0
0
VERTEX
8
0
10
122.487876231504
20
105.436816989432
30
0
0
VERTEX
8
0
10
123.278120594288
20
105.405266933753
30
0
0
VERTEX
8
0
10
124.068364957072
20
105.373851120022
30
0
0
VERTEX
8
0
10
124.858609319856
20
105.342580329912
30
0
0
VERTEX
8
0
10
125.64885368264
20
105.3114629988
30
0
0
VERTEX
8
0
10
126.439098045424
20
105.28051413311
30
0
0
VERTEX
8
0
10
127.229342408208
20
105.24975303291
30
0
0
VERTEX
8
0
10
128.019586770992
20
105.219199524345
30
0
0
VERTEX
8
0
10
128.809831133775
20
105.18887277761
30
0
0
VERTEX
8
0
10
129.600075496559
20
105.158790926747
30
0
0
VERTEX
8
0
10
130.390319859343
20
105.128970592519
30
0
0
VERTEX
8
0
10
131.180564222127
20
105.099425316717
30
0
0
VERTEX
8
0
10
131.970808584911
20
105.0701624666
30
0
0
VERTEX
8
0
10
132.761052947695
20
105.041208743995
30
0
0
VERTEX
8
0
10
133.551297310479
20
105.0128254918
30
0
0
VERTEX
8
0
10
134.341541673263
20
104.985540154742
30
0
0
VERTEX
8
0
10
135.131786036047
20
104.958192849183
30
0
0
VERTEX
8
0
10
135.922030398831
20
104.930820409673
30
0
0
VERTEX
8
0
10
136.712274761615
20
104.904186441274
30
0
0
VERTEX
8
0
10
137.502519124398
20
104.877849784159
30
0
0
VERTEX
8
0
10
138.292763487182
20
104.851598110953
30
0
0
VERTEX
8
0
10
139.083007849966
20
104.825668307675
30
0
0
VERTEX
8
0
10
139.87325221275
20
104.800072521285
30
0
0
VERTEX
8
0
10
140.663496575534
20
104.774731390646
30
0
0
VERTEX
8
0
10
141.453740938318
20
104.750241195009
30
0
0
VERTEX
8
0
10
142.243985301102
20
104.730053496517
30
0
0
VERTEX
8
0
10
143.034229663886
20
104.7202519727
30
0
0
VERTEX
8
0
10
143.82447402667
20
104.711179726759
30
0
0
VERTEX
8
0
10
144.614718389454
20
104.704614473883
30
0
0
VERTEX
8
0
10
145.404962752238
20
104.708391924717
30
0
0
VERTEX
8
0
10
146.195207115022
20
104.705845102454
30
0
0
VERTEX
8
0
10
146.985451477805
20
104.709744075515
30
0
0
VERTEX
8
0
10
147.775695840589
20
104.713565312729
30
0
0
VERTEX
8
0
10
148.565940203373
20
104.71019197586
30
0
0
VERTEX
8
0
10
149.356184566157
20
104.716049961831
30
0
0
VERTEX
8
0
10
150.146428928941
20
104.721813433548
30
0
0
VERTEX
8
0
10
150.936673291725
20
104.72744300385
30
0
0
VERTEX
8
0
10
151.726917654509
20
104.733185842539
30
0
0
VERTEX
8
0
10
152.517162017293
20
104.739912691781
30
0
0
VERTEX
8
0
10
153.307406380077
20
104.747959628113
30
0
0
VERTEX
8
0
10
154.097650742861
20
104.753738454014
30
0
0
VERTEX
8
0
10
154.887895105645
20
104.770420615588
30
0
0
SEQEND
8
0
0
POLYLINE
8
0
62
4
70
0
10
0
20
0
30
0
0
VERTEX
8
0
10
2.3707330883517
20
31.368374208393
30
0
0
VERTEX
8
0
10
3.1609774511356
20
39.6919170503274
30
0
0
VERTEX
8
0
10
3.9512218139195
20
46.9231272763981
30
0
0
VERTEX
8
0
10
4.7414661767034
20
51.1660447332172
30
0
0
VERTEX
8
0
10
5.5317105394873
20
54.6262612964685
30
0
0
VERTEX
8
0
10
6.3219549022712
20
57.8269888252489
30
0
0
VERTEX
8
0
10
7.1121992650551
20
60.0742836508559
30
0
0
VERTEX
8
0
10
7.902443627839
20
62.5218756333976
30
0
0
VERTEX
8
0
10
8.6926879906229
20
64.9770790821965
30
0
0
VERTEX
8
0
10
9.4829323534068
20
67.5450373315868
30
0
0
VERTEX
8
0
10
10.2731767161907
20
70.3879466728524
30
0
0
VERTEX
8
0
10
11.0634210789746
20
73.251230887917
30
0
0
VERTEX
8
0
10
11.8536654417585
20
76.1112929688127
30
0
0
VERTEX
8
0
10
12.6439098045424
20
79.4567236864664
30
0
0
VERTEX
8
0
10
13.4341541673263
20
82.1954537021807
30
0
0
VERTEX
8
0
10
14.2243985301102
20
84.8658832127911
30
0
0
VERTEX
8
0
10
15.0146428928941
20
86.7568678405377
30
0
0
VERTEX
8
0
10
15.804887255678
20
88.4651826093077
30
0
0
VERTEX
8
0
10
16.5951316184619
20
89.9371272549479
30
0
0
VERTEX
8
0
10
17.3853759812458
20
91.460111732708
30
0
0
VERTEX
8
0
10
18.1756203440297
20
91.7688774905478
30
0
0
VERTEX
8
0
10
18.9658647068136
20
92.2320109959073
30
0
0
VERTEX
8
0
10
19.7561090695975
20
92.6838495011271
30
0
0
VERTEX
8
0
10
20.5463534323814
20
93.0715238219958
30
0
0
VERTEX
8
0
10
21.3365977951653
20
93.4565868761158
30
0
0
VERTEX
8
0
10
22.1268421579492
20
93.8515144231901
30
0
0
VERTEX
8
0
10
22.9170865207331
20
94.2907388926636
30
0
0
VERTEX
8
0
10
23.707330883517
20
94.9509327668658
30
0
0
VERTEX
8
0
10
24.4975752463009
20
95.548481025678
30
0
0
VERTEX
8
0
10
25.2878196090848
20
96.2185004593585
30
0
0
VERTEX
8
0
10
26.0780639718687
20
96.9124872660842
30
0
0
VERTEX
8
0
10
26.8683083346526
20
97.5926844749969
30
0
0
VERTEX
8
0
10
27.6585526974365
20
98.2563181528921
30
0
0
VERTEX
8
0
10
28.4487970602204
20
98.6982134254911
30
0
0
VERTEX
8
0
10
29.2390414230043
20
99.0685328619682
30
0
0
VERTEX
8
0
10
30.0292857857882
20
99.3505753587015
30
0
0
VERTEX
8
0
10
30.8195301485721
20
99.6445628083862
30
0
0
VERTEX
8
0
10
31.609774511356
20
99.8904794928114
30
0
0
VERTEX
8
0
10
32.4000188741399
20
100.083000723854
30
0
0
VERTEX
8
0
10
33.1902632369238
20
100.320800956737
30
0
0
VERTEX
8
0
10
33.9805075997077
20
100.573444854337
30
0
0
VERTEX
8
0
10
34.7707519624916
20
100.763154718428
30
0
0
VERTEX
8
0
10
35.5609963252755
20
100.952814196644
30
0
0
VERTEX
8
0
10
36.3512406880594
20
101.130870933826
30
0
0
VERTEX
8
0
10
37.1414850508433
20
101.285891438444
30
0
0
VERTEX
8
0
10
37.9317294136272
20
101.380881024255
30
0
0
VERTEX
8
0
10
38.7219737764111
20
101.504594659887
30
0
0
VERTEX
8
0
10
39.512218139195
20
101.565721262165
30
0
0
VERTEX
8
0
10
40.3024625019789
20
101.607547438771
30
0
0
VERTEX
8
0
10
41.0927068647628
20
101.676771434521
30
0
0
VERTEX
8
0
10
41.8829512275467
20
101.692685559032
30
0
0
VERTEX
8
0
10
42.6731955903306
20
101.695952936265
30
0
0
VERTEX
8
0
10
43.4634399531145
20
101.696277151458
30
0
0
VERTEX
8
0
10
44.2536843158984
20
101.6888083935
30
0
0
VERTEX
8
0
10
45.0439286786823
20
101.671912996072
30
0
0
VERTEX
8
0
10
45.8341730414662
20
101.629172506388
30
0
0
VERTEX
8
0
10
46.6244174042501
20
101.602379903141
30
0
0
VERTEX
8
0
10
47.414661767034
20
101.595305852017
30
0
0
VERTEX
8
0
10
48.2049061298179
20
101.573112052283
30
0
0
VERTEX
8
0
10
48.9951504926018
20
101.567010389916
30
0
0
VERTEX
8
0
10
49.7853948553857
20
101.582749268538
30
0
0
VERTEX
8
0
10
50.5756392181696
20
101.609853830637
30
0
0
VERTEX
8
0
10
51.3658835809535
20
101.633921275798
30
0
0
VERTEX
8
0
10
52.1561279437374
20
101.649774208234
30
0
0
VERTEX
8
0
10
52.9463723065213
20
101.672814958504
30
0
0
VERTEX
8
0
10
53.7366166693052
20
101.67883312829
30
0
0
VERTEX
8
0
10
54.5268610320891
20
101.708872927329
30
0
0
VERTEX
8
0
10
55.3171053948729
20
101.724995324822
30
0
0
VERTEX
8
0
10
56.1073497576568
20
101.766915390785
30
0
0
VERTEX
8
0
10
56.8975941204407
20
101.81447489919
30
0
0
VERTEX
8
0
10
57.6878384832246
20
101.867766234197
30
0
0
VERTEX
8
0
10
58.4780828460085
20
101.92752646241
30
0
0
VERTEX
8
0
10
59.2683272087924
20
101.992471943163
30
0
0
VERTEX
8
0
10
60.0585715715763
20
102.063126796315
30
0
0
VERTEX
8
0
10
60.8488159343602
20
102.14445640221
30
0
0
VERTEX
8
0
10
61.6390602971441
20
102.200646906453
30
0
0
VERTEX
8
0
10
62.429304659928
20
102.284133334569
30
0
0
VERTEX
8
0
10
63.2195490227119
20
102.347783300436
30
0
0
VERTEX
8
0
10
64.0097933854958
20
102.437461033064
30
0
0
VERTEX
8
0
10
64.8000377482797
20
102.530748647835
30
0
0
VERTEX
8
0
10
65.5902821110636
20
102.627531256219
30
0
0
VERTEX
8
0
10
66.3805264738475
20
102.724755153571
30
0
0
VERTEX
8
0
10
67.1707708366314
20
102.825534241015
30
0
0
VERTEX
8
0
10
67.9610151994153
20
102.928829925356
30
0
0
VERTEX
8
0
10
68.7512595621992
20
103.003748048826
30
0
0
VERTEX
8
0
10
69.5415039249831
20
103.098243240693
30
0
0
VERTEX
8
0
10
70.331748287767
20
103.195317580142
30
0
0
VERTEX
8
0
10
71.1219926505509
20
103.274779078701
30
0
0
VERTEX
8
0
10
71.9122370133348
20
103.361076726717
30
0
0
VERTEX
8
0
10
72.7024813761187
20
103.452970870412
30
0
0
VERTEX
8
0
10
73.4927257389026
20
103.54946448204
30
0
0
VERTEX
8
0
10
74.2829701016865
20
103.658350526705
30
0
0
VERTEX
8
0
10
75.0732144644704
20
103.769020303481
30
0
0
VERTEX
8
0
10
75.8634588272543
20
103.880630276898
30
0
0
VERTEX
8
0
10
76.6537031900382
20
103.96303082474
30
0
0
VERTEX
8
0
10
77.4439475528221
20
104.066506076603
30
0
0
VERTEX
8
0
10
78.234191915606
20
104.171135774866
30
0
0
VERTEX
8
0
10
79.0244362783899
20
104.256444244236
30
0
0
VERTEX
8
0
10
79.8146806411738
20
104.35528945833
30
0
0
VERTEX
8
0
10
80.6049250039577
20
104.457113624168
30
0
0
VERTEX
8
0
10
81.3951693667416
20
104.558096343152
30
0
0
VERTEX
8
0
10
82.1854137295255
20
104.644452773984
30
0
0
VERTEX
8
0
10
82.9756580923094
20
104.730812311912
30
0
0
VERTEX
8
0
10
83.7659024550933
20
104.815897270743
30
0
0
VERTEX
8
0
10
84.5561468178772
20
104.866803813026
30
0
0
VERTEX
8
0
10
85.3463911806611
20
104.931951235668
30
0
0
VERTEX
8
0
10
86.136635543445
20
104.996749647305
30
0
0
VERTEX
8
0
10
86.9268799062288
20
105.047590189526
30
0
0
VERTEX
8
0
10
87.7171242690127
20
105.110467711821
30
0
0
VERTEX
8
0
10
88.5073686317966
20
105.173560827848
30
0
0
VERTEX
8
0
10
89.2976129945805
20
105.237410147792
30
0
0
VERTEX
8
0
10
90.0878573573644
20
105.304021689801
30
0
0
VERTEX
8
0
10
90.8781017201483
20
105.370541839603
30
0
0
VERTEX
8
0
10
91.6683460829322
20
105.435139441687
30
0
0
VERTEX
8
0
10
92.4585904457161
20
105.470768170378
30
0
0
VERTEX
8
0
10
93.2488348085
20
105.520329918424
30
0
0
VERTEX
8
0
10
94.0390791712839
20
105.553526408655
30
0
0
VERTEX
8
0
10
94.8293235340678
20
105.60530144474
30
0
0
VERTEX
8
0
10
95.6195678968517
20
105.638896449213
30
0
0
VERTEX
8
0
10
96.4098122596356
20
105.67298639549
30
0
0
VERTEX
8
0
10
97.2000566224195
20
105.705705540914
30
0
0
VERTEX
8
0
10
97.9903009852034
20
105.728441026847
30
0
0
VERTEX
8
0
10
98.7805453479873
20
105.749747327224
30
0
0
VERTEX
8
0
10
99.5707897107712
20
105.767530823626
30
0
0
VERTEX
8
0
10
100.361034073555
20
105.760011503156
30
0
0
VERTEX
8
0
10
101.151278436339
20
105.755603463019
30
0
0
VERTEX
8
0
10
101.941522799123
20
105.744961170146
30
0
0
VERTEX
8
0
10
102.731767161907
20
105.740305290235
30
0
0
VERTEX
8
0
10
103.522011524691
20
105.736266563614
30
0
0
VERTEX
8
0
10
104.312255887475
20
105.731344749938
30
0
0
VERTEX
8
0
10
105.102500250258
20
105.727138202486
30
0
0
VERTEX
8
0
10
105.892744613042
20
105.728034071085
30
0
0
VERTEX
8
0
10
106.682988975826
20
105.728886389713
30
0
0
VERTEX
8
0
10
107.47323333861
20
105.72250537641
30
0
0
VERTEX
8
0
10
108.263477701394
20
105.724825676037
30
0
0
VERTEX
8
0
10
109.053722064178
20
105.728931563267
30
0
0
VERTEX
8
0
10
109.843966426962
20
105.725701864456
30
0
0
VERTEX
8
0
10
110.634210789746
20
105.729751646022
30
0
0
VERTEX
8
0
10
111.42445515253
20
105.717911970378
30
0
0
VERTEX
8
0
10
112.214699515314
20
105.705204312446
30
0
0
VERTEX
8
0
10
113.004943878097
20
105.693480642126
30
0
0
VERTEX
8
0
10
113.795188240881
20
105.681251905496
30
0
0
VERTEX
8
0
10
114.585432603665
20
105.668479426871
30
0
0
VERTEX
8
0
10
115.375676966449
20
105.649811412539
30
0
0
VERTEX
8
0
10
116.165921329233
20
105.632415171106
30
0
0
VERTEX
8
0
10
116.956165692017
20
105.613409087773
30
0
0
VERTEX
8
0
10
117.746410054801
20
105.591315715348
30
0
0
VERTEX
8
0
10
118.536654417585
20
105.571733026467
30
0
0
VERTEX
8
0
10
119.326898780369
20
105.548214040529
30
0
0
VERTEX
8
0
10
120.117143143153
20
105.524131174052
30
0
0
VERTEX
8
0
10
120.907387505936
20
105.498567057504
30
0
0
VERTEX
8
0
10
121.69763186872
20
105.468249349634
30
0
0
VERTEX
8
0
10
122.487876231504
20
105.436816989432
30
0
0
VERTEX
8
0
10
123.278120594288
20
105.405266933753
30
0
0
VERTEX
8
0
10
124.068364957072
20
105.373851120022
30
0
0
VERTEX
8
0
10
124.858609319856
20
105.342580329912
30
0
0
VERTEX
8
0
10
125.64885368264
20
105.3114629988
30
0
0
VERTEX
8
0
10
126.439098045424
20
105.28051413311
30
0
0
VERTEX
8
0
10
127.229342408208
20
105.24975303291
30
0
0
VERTEX
8
0
10
128.019586770992
20
105.219199524345
30
0
0
VERTEX
8
0
10
128.809831133775
20
105.18887277761
30
0
0
VERTEX
8
0
10
129.600075496559
20
105.158790926747
30
0
0
VERTEX
8
0
10
130.390319859343
20
105.128970592519
30
0
0
VERTEX
8
0
10
131.180564222127
20
105.099425316717
30
0
0
VERTEX
8
0
10
131.970808584911
20
105.0701624666
30
0
0
VERTEX
8
0
10
132.761052947695
20
105.041208743995
30
0
0
VERTEX
8
0
10
133.551297310479
20
105.0128254918
30
0
0
VERTEX
8
0
10
134.341541673263
20
104.985540154742
30
0
0
VERTEX
8
0
10
135.131786036047
20
104.958192849183
30
0
0
VERTEX
8
0
10
135.922030398831
20
104.930820409673
30
0
0
VERTEX
8
0
10
136.712274761615
20
104.904186441274
30
0
0
VERTEX
8
0
10
137.502519124398
20
104.877849784159
30
0
0
VERTEX
8
0
10
138.292763487182
20
104.851598110953
30
0
0
VERTEX
8
0
10
139.083007849966
20
104.825668307675
30
0
0
VERTEX
8
0
10
139.87325221275
20
104.800072521285
30
0
0
VERTEX
8
0
10
140.663496575534
20
104.774731390646
30
0
0
VERTEX
8
0
10
141.453740938318
20
104.750241195009
30
0
0
VERTEX
8
0
10
142.243985301102
20
104.730053496517
30
0
0
VERTEX
8
0
10
143.034229663886
20
104.7202519727
30
0
0
VERTEX
8
0
10
143.82447402667
20
104.711179726759
30
0
0
VERTEX
8
0
10
144.614718389454
20
104.704614473883
30
0
0
VERTEX
8
0
10
145.404962752238
20
104.708391924717
30
0
0
VERTEX
8
0
10
146.195207115022
20
104.705845102454
30
0
0
VERTEX
8
0
10
146.985451477805
20
104.709744075515
30
0
0
VERTEX
8
0
10
147.775695840589
20
104.713565312729
30
0
0
VERTEX
8
0
10
148.565940203373
20
104.71019197586
30
0
0
VERTEX
8
0
10
149.356184566157
20
104.716049961831
30
0
0
VERTEX
8
0
10
150.146428928941
20
104.721813433548
30
0
0
VERTEX
8
0
10
150.936673291725
20
104.72744300385
30
0
0
VERTEX
8
0
10
151.726917654509
20
104.733185842539
30
0
0
VERTEX
8
0
10
152.517162017293
20
104.739912691781
30
0
0
VERTEX
8
0
10
153.307406380077
20
104.747959628113
30
0
0
VERTEX
8
0
10
154.097650742861
20
104.753738454014
30
0
0
VERTEX
8
0
10
154.887895105645
20
104.770420615588
30
0
0
SEQEND
8
0
0
POLYLINE
8
0
62
2
70
0
10
0
20
0
30
0
0
VERTEX
8
0
10
2.3707330883517
20
29.0351987593079
30
0
0
VERTEX
8
0
10
3.1609774511356
20
36.5374472433425
30
0
0
VERTEX
8
0
10
3.9512218139195
20
42.9725607451093
30
0
0
VERTEX
8
0
10
4.7414661767034
20
46.2795469164063
30
0
0
VERTEX
8
0
10
5.5317105394873
20
48.7994231682505
30
0
0
VERTEX
8
0
10
6.3219549022712
20
51.0813060634469
30
0
0
VERTEX
8
0
10
7.1121992650551
20
52.4015057581752
30
0
0
VERTEX
8
0
10
7.902443627839
20
53.908125202948
30
0
0
VERTEX
8
0
10
8.6926879906229
20
55.4402668012728
30
0
0
VERTEX
8
0
10
9.4829323534068
20
57.182099730216
30
0
0
VERTEX
8
0
10
10.2731767161907
20
59.1861254972357
30
0
0
VERTEX
8
0
10
11.0634210789746
20
61.2438562948083
30
0
0
VERTEX
8
0
10
11.8536654417585
20
63.3280214552504
30
0
0
VERTEX
8
0
10
12.6439098045424
20
66.026719850403
30
0
0
VERTEX
8
0
10
13.4341541673263
20
68.0658077557706
30
0
0
VERTEX
8
0
10
14.2243985301102
20
70.0827756627439
30
0
0
VERTEX
8
0
10
15.0146428928941
20
71.3641493373523
30
0
0
VERTEX
8
0
10
15.804887255678
20
72.389624866327
30
0
0
VERTEX
8
0
10
16.5951316184619
20
73.2690916733879
30
0
0
VERTEX
8
0
10
17.3853759812458
20
74.1421556677153
30
0
0
VERTEX
8
0
10
18.1756203440297
20
73.6215094998118
30
0
0
VERTEX
8
0
10
18.9658647068136
20
73.3156024442611
30
0
0
VERTEX
8
0
10
19.7561090695975
20
73.0202906595538
30
0
0
VERTEX
8
0
10
20.5463534323814
20
72.6655887873866
30
0
0
VERTEX
8
0
10
21.3365977951653
20
72.3023060642365
30
0
0
VERTEX
8
0
10
22.1268421579492
20
71.9447809370562
30
0
0
VERTEX
8
0
10
22.9170865207331
20
71.7150689889485
30
0
0
VERTEX
8
0
10
23.707330883517
20
71.7246278626148
30
0
0
VERTEX
8
0
10
24.4975752463009
20
71.711861567493
30
0
0
VERTEX
8
0
10
25.2878196090848
20
71.7259706774365
30
0
0
VERTEX
8
0
10
26.0780639718687
20
71.7810292229452
30
0
0
VERTEX
8
0
10
26.8683083346526
20
71.8350817181863
30
0
0
VERTEX
8
0
10
27.6585526974365
20
71.8839707686274
30
0
0
VERTEX
8
0
10
28.4487970602204
20
71.6565727948281
30
0
0
VERTEX
8
0
10
29.2390414230043
20
71.3744066530201
30
0
0
VERTEX
8
0
10
30.0292857857882
20
71.0507104677594
30
0
0
VERTEX
8
0
10
30.8195301485721
20
70.7106163297613
30
0
0
VERTEX
8
0
10
31.609774511356
20
70.3253646984539
30
0
0
VERTEX
8
0
10
32.4000188741399
20
69.9262688670564
30
0
0
VERTEX
8
0
10
33.1902632369238
20
69.544788652572
30
0
0
VERTEX
8
0
10
33.9805075997077
20
69.1938544927166
30
0
0
VERTEX
8
0
10
34.7707519624916
20
68.8404512974179
30
0
0
VERTEX
8
0
10
35.5609963252755
20
68.4872014833266
30
0
0
VERTEX
8
0
10
36.3512406880594
20
68.1291619465433
30
0
0
VERTEX
8
0
10
37.1414850508433
20
67.7703014234377
30
0
0
VERTEX
8
0
10
37.9317294136272
20
67.3875130683783
30
0
0
VERTEX
8
0
10
38.7219737764111
20
67.0209748071909
30
0
0
VERTEX
8
0
10
39.512218139195
20
66.5793218182484
30
0
0
VERTEX
8
0
10
40.3024625019789
20
66.1534610824619
30
0
0
VERTEX
8
0
10
41.0927068647628
20
65.7375842515105
30
0
0
VERTEX
8
0
10
41.8829512275467
20
65.2530588248841
30
0
0
VERTEX
8
0
10
42.6731955903306
20
64.7740987938147
30
0
0
VERTEX
8
0
10
43.4634399531145
20
64.2956270823223
30
0
0
VERTEX
8
0
10
44.2536843158984
20
63.8117641103146
30
0
0
VERTEX
8
0
10
45.0439286786823
20
63.326128468919
30
0
0
VERTEX
8
0
10
45.8341730414662
20
62.8354101295456
30
0
0
VERTEX
8
0
10
46.6244174042501
20
62.3496933093222
30
0
0
VERTEX
8
0
10
47.414661767034
20
61.8910270262925
30
0
0
VERTEX
8
0
10
48.2049061298179
20
61.4230666891279
30
0
0
VERTEX
8
0
10
48.9951504926018
20
60.9576590263774
30
0
0
VERTEX
8
0
10
49.7853948553857
20
60.5269613588316
30
0
0
VERTEX
8
0
10
50.5756392181696
20
60.0943728845395
30
0
0
VERTEX
8
0
10
51.3658835809535
20
59.6600051748577
30
0
0
VERTEX
8
0
10
52.1561279437374
20
59.2125975103363
30
0
0
VERTEX
8
0
10
52.9463723065213
20
58.7683744936619
30
0
0
VERTEX
8
0
10
53.7366166693052
20
58.334398945163
30
0
0
VERTEX
8
0
10
54.5268610320891
20
57.9100234161657
30
0
0
VERTEX
8
0
10
55.3171053948729
20
57.4948172278862
30
0
0
VERTEX
8
0
10
56.1073497576568
20
57.0884348644839
30
0
0
VERTEX
8
0
10
56.8975941204407
20
56.690560416416
30
0
0
VERTEX
8
0
10
57.6878384832246
20
56.3008973952039
30
0
0
VERTEX
8
0
10
58.4780828460085
20
55.9191651638428
30
0
0
VERTEX
8
0
10
59.2683272087924
20
55.5450970946958
30
0
0
VERTEX
8
0
10
60.0585715715763
20
55.1784393491802
30
0
0
VERTEX
8
0
10
60.8488159343602
20
54.8189499381897
30
0
0
VERTEX
8
0
10
61.6390602971441
20
54.466397935375
30
0
0
VERTEX
8
0
10
62.429304659928
20
54.1205627876686
30
0
0
VERTEX
8
0
10
63.2195490227119
20
53.7812336956094
30
0
0
VERTEX
8
0
10
64.0097933854958
20
53.4482090482821
30
0
0
VERTEX
8
0
10
64.8000377482797
20
53.1212959035357
30
0
0
VERTEX
8
0
10
65.5902821110636
20
52.8003095071785
30
0
0
VERTEX
8
0
10
66.3805264738475
20
52.485072846546
30
0
0
VERTEX
8
0
10
67.1707708366314
20
52.1754162348654
30
0
0
VERTEX
8
0
10
67.9610151994153
20
51.8711769234962
30
0
0
VERTEX
8
0
10
68.7512595621992
20
51.5721987395921
30
0
0
VERTEX
8
0
10
69.5415039249831
20
51.2783317470588
30
0
0
VERTEX
8
0
10
70.331748287767
20
50.9894319289388
30
0
0
VERTEX
8
0
10
71.1219926505509
20
50.7053608895631
30
0
0
VERTEX
8
0
10
71.9122370133348
20
50.4259855749785
30
0
0
VERTEX
8
0
10
72.7024813761187
20
50.1511780102989
30
0
0
VERTEX
8
0
10
73.4927257389026
20
49.880815052759
30
0
0
VERTEX
8
0
10
74.2829701016865
20
49.6147781593512
30
0
0
VERTEX
8
0
10
75.0732144644704
20
49.352953168026
30
0
0
VERTEX
8
0
10
75.8634588272543
20
49.0952300915189
30
0
0
VERTEX
8
0
10
76.6537031900382
20
48.8415029229436
30
0
0
VERTEX
8
0
10
77.4439475528221
20
48.5916694523609
30
0
0
VERTEX
8
0
10
78.234191915606
20
48.345631093593
30
0
0
VERTEX
8
0
10
79.0244362783899
20
48.1032927206112
30
0
0
VERTEX
8
0
10
79.8146806411738
20
47.8645625128745
30
0
0
VERTEX
8
0
10
80.6049250039577
20
47.6293518090438
30
0
0
VERTEX
8
0
10
81.3951693667416
20
47.3975749685404
30
0
0
VERTEX
8
0
10
82.1854137295255
20
47.1691492404534
30
0
0
VERTEX
8
0
10
82.9756580923094
20
46.9439946393402
30
0
0
VERTEX
8
0
10
83.7659024550933
20
46.7220338274934
30
0
0
VERTEX
8
0
10
84.5561468178772
20
46.5031920032803
30
0
0
VERTEX
8
0
10
85.3463911806611
20
46.2873967951873
30
0
0
VERTEX
8
0
10
86.136635543445
20
46.0745781612275
30
0
0
VERTEX
8
0
10
86.9268799062288
20
45.8646682933928
30
0
0
VERTEX
8
0
10
87.7171242690127
20
45.6576015268553
30
0
0
VERTEX
8
0
10
88.5073686317966
20
45.453314253639
30
0
0
VERTEX
8
0
10
89.2976129945805
20
45.2517448405062
30
0
0
VERTEX
8
0
10
90.0878573573644
20
45.0528335508156
30
0
0
VERTEX
8
0
10
90.8781017201483
20
44.8565224701275
30
0
0
VERTEX
8
0
10
91.6683460829322
20
44.6627554353456
30
0
0
VERTEX
8
0
10
92.4585904457161
20
44.4714779671983
30
0
0
VERTEX
8
0
10
93.2488348085
20
44.2826372058741
30
0
0
VERTEX
8
0
10
94.0390791712839
20
44.0961818496394
30
0
0
VERTEX
8
0
10
94.8293235340678
20
43.9120620962764
30
0
0
VERTEX
8
0
10
95.6195678968517
20
43.7302295871887
30
0
0
VERTEX
8
0
10
96.4098122596356
20
43.5506373540318
30
0
0
VERTEX
8
0
10
97.2000566224195
20
43.3732397677364
30
0
0
VERTEX
8
0
10
97.9903009852034
20
43.1979924897961
30
0
0
VERTEX
8
0
10
98.7805453479873
20
43.0248524257032
30
0
0
VERTEX
8
0
10
99.5707897107712
20
42.8537776804219
30
0
0
VERTEX
8
0
10
100.361034073555
20
42.6847275157916
30
0
0
VERTEX
8
0
10
101.151278436339
20
42.5176623097649
30
0
0
VERTEX
8
0
10
101.941522799123
20
42.3525435173857
30
0
0
VERTEX
8
0
10
102.731767161907
20
42.1893336334212
30
0
0
VERTEX
8
0
10
103.522011524691
20
42.0279961565638
30
0
0
VERTEX
8
0
10
104.312255887475
20
41.8684955551267
30
0
0
VERTEX
8
0
10
105.102500250258
20
41.7107972341595
30
0
0
VERTEX
8
0
10
105.892744613042
20
41.554867503913
30
0
0
VERTEX
8
0
10
106.682988975826
20
41.4006735495899
30
0
0
VERTEX
8
0
10
107.47323333861
20
41.2481834023174
30
0
0
VERTEX
8
0
10
108.263477701394
20
41.0973659112838
30
0
0
VERTEX
8
0
10
109.053722064178
20
40.9481907169834
30
0
0
VERTEX
8
0
10
109.843966426962
20
40.8006282255163
30
0
0
VERTEX
8
0
10
110.634210789746
20
40.6546495838929
30
0
0
VERTEX
8
0
10
111.42445515253
20
40.5102266562954
30
0
0
VERTEX
8
0
10
112.214699515314
20
40.3673320012488
30
0
0
VERTEX
8
0
10
113.004943878097
20
40.2259388496596
30
0
0
VERTEX
8
0
10
113.795188240881
20
40.0860210836759
30
0
0
VERTEX
8
0
10
114.585432603665
20
39.9475532163301
30
0
0
VERTEX
8
0
10
115.375676966449
20
39.8105103719202
30
0
0
VERTEX
8
0
10
116.165921329233
20
39.6748682670885
30
0
0
VERTEX
8
0
10
116.956165692017
20
39.5406031925529
30
0
0
VERTEX
8
0
10
117.746410054801
20
39.4076919954456
30
0
0
VERTEX
8
0
10
118.536654417585
20
39.2761120622033
30
0
0
VERTEX
8
0
10
119.326898780369
20
39.1458413019479
30
0
0
VERTEX
8
0
10
120.117143143153
20
39.0168581302757
30
0
0
VERTEX
8
0
10
120.907387505936
20
38.8891414533495
30
0
0
VERTEX
8
0
10
121.69763186872
20
38.7626706521348
30
0
0
VERTEX
8
0
10
122.487876231504
20
38.6374255665464
30
0
0
VERTEX
8
0
10
123.278120594288
20
38.5133864791194
30
0
0
VERTEX
8
0
10
124.068364957072
20
38.3905340975538
30
0
0
VERTEX
8
0
10
124.858609319856
20
38.2688495349578
30
0
0
VERTEX
8
0
10
125.64885368264
20
38.1483142855501
30
0
0
VERTEX
8
0
10
126.439098045424
20
38.0289101912524
30
0
0
VERTEX
8
0
10
127.229342408208
20
37.9106193890529
30
0
0
VERTEX
8
0
10
128.019586770992
20
37.7934242143078
30
0
0
VERTEX
8
0
10
128.809831133775
20
37.6773069909526
30
0
0
VERTEX
8
0
10
129.600075496559
20
37.5622494906437
30
0
0
VERTEX
8
0
10
130.390319859343
20
37.4482313173803
30
0
0
VERTEX
8
0
10
131.180564222127
20
37.3352249237961
30
0
0
VERTEX
8
0
10
131.970808584911
20
37.2231858515503
30
0
0
VERTEX
8
0
10
132.761052947695
20
37.1121205953734
30
0
0
VERTEX
8
0
10
133.551297310479
20
37.002864426874
30
0
0
VERTEX
8
0
10
134.341541673263
20
36.8965181563771
30
0
0
VERTEX
8
0
10
135.131786036047
20
36.7897169143909
30
0
0
VERTEX
8
0
10
135.922030398831
20
36.6829521193831
30
0
0
VERTEX
8
0
10
136.712274761615
20
36.5779859358696
30
0
0
VERTEX
8
0
10
137.502519124398
20
36.4737935061479
30
0
0
VERTEX
8
0
10
138.292763487182
20
36.3697179344657
30
0
0
VERTEX
8
0
10
139.083007849966
20
36.2661483603175
30
0
0
VERTEX
8
0
10
139.87325221275
20
36.1633544372004
30
0
0
VERTEX
8
0
10
140.663496575534
20
36.0614282184199
30
0
0
VERTEX
8
0
10
141.453740938318
20
35.9616634644772
30
0
0
VERTEX
8
0
10
142.243985301102
20
35.8657411300937
30
0
0
VERTEX
8
0
10
143.034229663886
20
35.7694712670694
30
0
0
VERTEX
8
0
10
143.82447402667
20
35.6719636756396
30
0
0
VERTEX
8
0
10
144.614718389454
20
35.5743505893053
30
0
0
VERTEX
8
0
10
145.404962752238
20
35.4773852148386
30
0
0
VERTEX
8
0
10
146.195207115022
20
35.3812568222384
30
0
0
VERTEX
8
0
10
146.985451477805
20
35.2860641965363
30
0
0
VERTEX
8
0
10
147.775695840589
20
35.1917809576973
30
0
0
VERTEX
8
0
10
148.565940203373
20
35.0980076474493
30
0
0
VERTEX
8
0
10
149.356184566157
20
35.0047806014914
30
0
0
VERTEX
8
0
10
150.146428928941
20
34.9120878766754
30
0
0
VERTEX
8
0
10
150.936673291725
20
34.8198310426516
30
0
0
VERTEX
8
0
10
151.726917654509
20
34.7286675555407
30
0
0
VERTEX
8
0
10
152.517162017293
20
34.6401794410134
30
0
0
VERTEX
8
0
10
153.307406380077
20
34.5556639200718
30
0
0
VERTEX
8
0
10
154.097650742861
20
34.4942275154458
30
0
0
VERTEX
8
0
10
154.887895105645
20
34.4629935060683
30
0
0
SEQEND
8
0
0
POLYLINE
8
0
62
4
70
0
10
0
20
0
30
0
0
VERTEX
8
0
10
2.3707330883517
20
31.3106930276763
30
0
0
VERTEX
8
0
10
3.1609774511356
20
39.6071463028298
30
0
0
VERTEX
8
0
10
3.9512218139195
20
46.8072408594037
30
0
0
VERTEX
8
0
10
4.7414661767034
20
51.0095603742288
30
0
0
VERTEX
8
0
10
5.5317105394873
20
54.4280074767774
30
0
0
VERTEX
8
0
10
6.3219549022712
20
57.5857525952594
30
0
0
VERTEX
8
0
10
7.1121992650551
20
59.7849078970682
30
0
0
VERTEX
8
0
10
7.902443627839
20
62.1827015947163
30
0
0
VERTEX
8
0
10
8.6926879906229
20
64.5863907103423
30
0
0
VERTEX
8
0
10
9.4829323534068
20
67.1010035148894
30
0
0
VERTEX
8
0
10
10.2731767161907
20
69.8910951003342
30
0
0
VERTEX
8
0
10
11.0634210789746
20
72.7048058337334
30
0
0
VERTEX
8
0
10
11.8536654417585
20
75.5143774416219
30
0
0
VERTEX
8
0
10
12.6439098045424
20
78.8123859671696
30
0
0
VERTEX
8
0
10
13.4341541673263
20
81.4993239084634
30
0
0
VERTEX
8
0
10
14.2243985301102
20
84.117061164522
30
0
0
VERTEX
8
0
10
15.0146428928941
20
85.948908729362
30
0
0
VERTEX
8
0
10
15.804887255678
20
87.593395594643
30
0
0
VERTEX
8
0
10
16.5951316184619
20
88.9906619899049
30
0
0
VERTEX
8
0
10
17.3853759812458
20
90.4378300448982
30
0
0
VERTEX
8
0
10
18.1756203440297
20
90.6533793488831
30
0
0
VERTEX
8
0
10
18.9658647068136
20
91.0049863350983
30
0
0
VERTEX
8
0
10
19.7561090695975
20
91.338229651911
30
0
0
VERTEX
8
0
10
20.5463534323814
20
91.5993398956836
30
0
0
VERTEX
8
0
10
21.3365977951653
20
91.8345478752218
30
0
0
VERTEX
8
0
10
22.1268421579492
20
92.0607545835792
30
0
0
VERTEX
8
0
10
22.9170865207331
20
92.3353672411739
30
0
0
VERTEX
8
0
10
23.707330883517
20
92.8180284454587
30
0
0
VERTEX
8
0
10
24.4975752463009
20
93.2279623204211
30
0
0
VERTEX
8
0
10
25.2878196090848
20
93.6960201054737
30
0
0
VERTEX
8
0
10
26.0780639718687
20
94.1798993396922
30
0
0
VERTEX
8
0
10
26.8683083346526
20
94.6449451261074
30
0
0
VERTEX
8
0
10
27.6585526974365
20
95.084598110273
30
0
0
VERTEX
8
0
10
28.4487970602204
20
95.2877144905304
30
0
0
VERTEX
8
0
10
29.2390414230043
20
95.4302627099402
30
0
0
VERTEX
8
0
10
30.0292857857882
20
95.4947185770966
30
0
0
VERTEX
8
0
10
30.8195301485721
20
95.5537865731062
30
0
0
VERTEX
8
0
10
31.609774511356
20
95.5647048641452
30
0
0
VERTEX
8
0
10
32.4000188741399
20
95.5330085372823
30
0
0
VERTEX
8
0
10
33.1902632369238
20
95.5281864966711
30
0
0
VERTEX
8
0
10
33.9805075997077
20
95.5351476113968
30
0
0
VERTEX
8
0
10
34.7707519624916
20
95.5292623523196
30
0
0
VERTEX
8
0
10
35.5609963252755
20
95.5124789019724
30
0
0
VERTEX
8
0
10
36.3512406880594
20
95.4814381470288
30
0
0
VERTEX
8
0
10
37.1414850508433
20
95.4393916265117
30
0
0
VERTEX
8
0
10
37.9317294136272
20
95.3498432596628
30
0
0
VERTEX
8
0
10
38.7219737764111
20
95.2775811358072
30
0
0
VERTEX
8
0
10
39.512218139195
20
95.1422605835303
30
0
0
VERTEX
8
0
10
40.3024625019789
20
94.9986499807076
30
0
0
VERTEX
8
0
10
41.0927068647628
20
94.8696922790847
30
0
0
VERTEX
8
0
10
41.8829512275467
20
94.6819205877712
30
0
0
VERTEX
8
0
10
42.6731955903306
20
94.4898172680086
30
0
0
VERTEX
8
0
10
43.4634399531145
20
94.2910834249789
30
0
0
VERTEX
8
0
10
44.2536843158984
20
94.0820757858126
30
0
0
VERTEX
8
0
10
45.0439286786823
20
93.8660061416107
30
0
0
VERTEX
8
0
10
45.8341730414662
20
93.6371355886126
30
0
0
VERTEX
8
0
10
46.6244174042501
20
93.4111488475973
30
0
0
VERTEX
8
0
10
47.414661767034
20
93.1995361329452
30
0
0
VERTEX
8
0
10
48.2049061298179
20
92.9762303948514
30
0
0
VERTEX
8
0
10
48.9951504926018
20
92.753358993327
30
0
0
VERTEX
8
0
10
49.7853948553857
20
92.5512600669693
30
0
0
VERTEX
8
0
10
50.5756392181696
20
92.3448028011957
30
0
0
VERTEX
8
0
10
51.3658835809535
20
92.1337133718464
30
0
0
VERTEX
8
0
10
52.1561279437374
20
91.9106288804127
30
0
0
VERTEX
8
0
10
52.9463723065213
20
91.6877342953758
30
0
0
VERTEX
8
0
10
53.7366166693052
20
91.4696109432126
30
0
0
VERTEX
8
0
10
54.5268610320891
20
91.2560051070613
30
0
0
VERTEX
8
0
10
55.3171053948729
20
91.0468026902881
30
0
0
VERTEX
8
0
10
56.1073497576568
20
90.8419141122052
30
0
0
VERTEX
8
0
10
56.8975941204407
20
90.64124772119
30
0
0
VERTEX
8
0
10
57.6878384832246
20
90.4447085247233
30
0
0
VERTEX
8
0
10
58.4780828460085
20
90.2521992939065
30
0
0
VERTEX
8
0
10
59.2683272087924
20
90.0636217434042
30
0
0
VERTEX
8
0
10
60.0585715715763
20
89.8788774815657
30
0
0
VERTEX
8
0
10
60.8488159343602
20
89.6978687292358
30
0
0
VERTEX
8
0
10
61.6390602971441
20
89.5204988523528
30
0
0
VERTEX
8
0
10
62.429304659928
20
89.3466727520631
30
0
0
VERTEX
8
0
10
63.2195490227119
20
89.1762971470144
30
0
0
VERTEX
8
0
10
64.0097933854958
20
89.0092807739601
30
0
0
VERTEX
8
0
10
64.8000377482797
20
88.8455345261809
30
0
0
VERTEX
8
0
10
65.5902821110636
20
88.6849715443196
30
0
0
VERTEX
8
0
10
66.3805264738475
20
88.5275072706448
30
0
0
VERTEX
8
0
10
67.1707708366314
20
88.3730594751224
30
0
0
VERTEX
8
0
10
67.9610151994153
20
88.2215482597308
30
0
0
VERTEX
8
0
10
68.7512595621992
20
88.072896046003
30
0
0
VERTEX
8
0
10
69.5415039249831
20
87.9270275496813
30
0
0
VERTEX
8
0
10
70.331748287767
20
87.7838697455343
30
0
0
VERTEX
8
0
10
71.1219926505509
20
87.643351824742
30
0
0
VERTEX
8
0
10
71.9122370133348
20
87.5054051467565
30
0
0
VERTEX
8
0
10
72.7024813761187
20
87.3699631871512
30
0
0
VERTEX
8
0
10
73.4927257389026
20
87.2369614826681
30
0
0
VERTEX
8
0
10
74.2829701016865
20
87.1063375744227
30
0
0
VERTEX
8
0
10
75.0732144644704
20
86.9780309500371
30
0
0
VERTEX
8
0
10
75.8634588272543
20
86.8519829853089
30
0
0
VERTEX
8
0
10
76.6537031900382
20
86.7281368859049
30
0
0
VERTEX
8
0
10
77.4439475528221
20
86.6064376294605
30
0
0
VERTEX
8
0
10
78.234191915606
20
86.48683190839
30
0
0
VERTEX
8
0
10
79.0244362783899
20
86.3692680736389
30
0
0
VERTEX
8
0
10
79.8146806411738
20
86.2536960795633
30
0
0
VERTEX
8
0
10
80.6049250039577
20
86.1400674300695
30
0
0
VERTEX
8
0
10
81.3951693667416
20
86.0283351261178
30
0
0
VERTEX
8
0
10
82.1854137295255
20
85.9184536146602
30
0
0
VERTEX
8
0
10
82.9756580923094
20
85.8103787390594
30
0
0
VERTEX
8
0
10
83.7659024550933
20
85.7040676910202
30
0
0
VERTEX
8
0
10
84.5561468178772
20
85.5994789640437
30
0
0
VERTEX
8
0
10
85.3463911806611
20
85.4965723084048
30
0
0
VERTEX
8
0
10
86.136635543445
20
85.3953086876458
30
0
0
VERTEX
8
0
10
86.9268799062288
20
85.2956502365644
30
0
0
VERTEX
8
0
10
87.7171242690127
20
85.1975602206748
30
0
0
VERTEX
8
0
10
88.5073686317966
20
85.1010029971125
30
0
0
VERTEX
8
0
10
89.2976129945805
20
85.0059439769473
30
0
0
VERTEX
8
0
10
90.0878573573644
20
84.9123495888737
30
0
0
VERTEX
8
0
10
90.8781017201483
20
84.8201872442343
30
0
0
VERTEX
8
0
10
91.6683460829322
20
84.7294253033447
30
0
0
VERTEX
8
0
10
92.4585904457161
20
84.6400330430728
30
0
0
VERTEX
8
0
10
93.2488348085
20
84.5519806256374
30
0
0
VERTEX
8
0
10
94.0390791712839
20
84.4652390685825
30
0
0
VERTEX
8
0
10
94.8293235340678
20
84.3797802158884
30
0
0
VERTEX
8
0
10
95.6195678968517
20
84.2955767101809
30
0
0
VERTEX
8
0
10
96.4098122596356
20
84.2126019659963
30
0
0
VERTEX
8
0
10
97.2000566224195
20
84.130830144068
30
0
0
VERTEX
8
0
10
97.9903009852034
20
84.0502361265949
30
0
0
VERTEX
8
0
10
98.7805453479873
20
83.9707954934557
30
0
0
VERTEX
8
0
10
99.5707897107712
20
83.8924844993345
30
0
0
VERTEX
8
0
10
100.361034073555
20
83.8152800517248
30
0
0
VERTEX
8
0
10
101.151278436339
20
83.739159689775
30
0
0
VERTEX
8
0
10
101.941522799123
20
83.6641015639503
30
0
0
VERTEX
8
0
10
102.731767161907
20
83.5900844164746
30
0
0
VERTEX
8
0
10
103.522011524691
20
83.5170875625273
30
0
0
VERTEX
8
0
10
104.312255887475
20
83.4450908721657
30
0
0
VERTEX
8
0
10
105.102500250258
20
83.3740747529474
30
0
0
VERTEX
8
0
10
105.892744613042
20
83.3040201332255
30
0
0
VERTEX
8
0
10
106.682988975826
20
83.2349084460969
30
0
0
VERTEX
8
0
10
107.47323333861
20
83.1667216139764
30
0
0
VERTEX
8
0
10
108.263477701394
20
83.0994420337791
30
0
0
VERTEX
8
0
10
109.053722064178
20
83.0330525626898
30
0
0
VERTEX
8
0
10
109.843966426962
20
82.9675365045008
30
0
0
VERTEX
8
0
10
110.634210789746
20
82.9028775965026
30
0
0
VERTEX
8
0
10
111.42445515253
20
82.8390599969102
30
0
0
VERTEX
8
0
10
112.214699515314
20
82.7760682728131
30
0
0
VERTEX
8
0
10
113.004943878097
20
82.7138873886363
30
0
0
VERTEX
8
0
10
113.795188240881
20
82.6525026951016
30
0
0
VERTEX
8
0
10
114.585432603665
20
82.5918999186815
30
0
0
VERTEX
8
0
10
115.375676966449
20
82.5320651515407
30
0
0
VERTEX
8
0
10
116.165921329233
20
82.4729848419598
30
0
0
VERTEX
8
0
10
116.956165692017
20
82.4146457852416
30
0
0
VERTEX
8
0
10
117.746410054801
20
82.357035115103
30
0
0
VERTEX
8
0
10
118.536654417585
20
82.3001402955554
30
0
0
VERTEX
8
0
10
119.326898780369
20
82.2439491132839
30
0
0
VERTEX
8
0
10
120.117143143153
20
82.1884496705358
30
0
0
VERTEX
8
0
10
120.907387505936
20
82.1336303785305
30
0
0
VERTEX
8
0
10
121.69763186872
20
82.0794799514007
30
0
0
VERTEX
8
0
10
122.487876231504
20
82.0259874006653
30
0
0
VERTEX
8
0
10
123.278120594288
20
81.9731420302047
30
0
0
VERTEX
8
0
10
124.068364957072
20
81.9209334316456
30
0
0
VERTEX
8
0
10
124.858609319856
20
81.869351479905
30
0
0
VERTEX
8
0
10
125.64885368264
20
81.8183863282898
30
0
0
VERTEX
8
0
10
126.439098045424
20
81.7680284016814
30
0
0
VERTEX
8
0
10
127.229342408208
20
81.7182683841256
30
0
0
VERTEX
8
0
10
128.019586770992
20
81.6690971909264
30
0
0
VERTEX
8
0
10
128.809831133775
20
81.6205058958982
30
0
0
VERTEX
8
0
10
129.600075496559
20
81.572485517238
30
0
0
VERTEX
8
0
10
130.390319859343
20
81.5250263261923
30
0
0
VERTEX
8
0
10
131.180564222127
20
81.4781156435642
30
0
0
VERTEX
8
0
10
131.970808584911
20
81.4317336281752
30
0
0
VERTEX
8
0
10
132.761052947695
20
81.3858859735969
30
0
0
VERTEX
8
0
10
133.551297310479
20
81.3408817035409
30
0
0
VERTEX
8
0
10
134.341541673263
20
81.2973740392882
30
0
0
VERTEX
8
0
10
135.131786036047
20
81.2538374227165
30
0
0
VERTEX
8
0
10
135.922030398831
20
81.2102909748421
30
0
0
VERTEX
8
0
10
136.712274761615
20
81.1676935847427
30
0
0
VERTEX
8
0
10
137.502519124398
20
81.1254493596712
30
0
0
VERTEX
8
0
10
138.292763487182
20
81.0832632690705
30
0
0
VERTEX
8
0
10
139.083007849966
20
81.0414387388023
30
0
0
VERTEX
8
0
10
139.87325221275
20
81.0000411584912
30
0
0
VERTEX
8
0
10
140.663496575534
20
80.9591196985509
30
0
0
VERTEX
8
0
10
141.453740938318
20
80.9191928399047
30
0
0
VERTEX
8
0
10
142.243985301102
20
80.8810792451816
30
0
0
VERTEX
8
0
10
143.034229663886
20
80.8431143578187
30
0
0
VERTEX
8
0
10
143.82447402667
20
80.8045002503716
30
0
0
VERTEX
8
0
10
144.614718389454
20
80.7658791552014
30
0
0
VERTEX
8
0
10
145.404962752238
20
80.7276144910006
30
0
0
VERTEX
8
0
10
146.195207115022
20
80.6897988911559
30
0
0
VERTEX
8
0
10
146.985451477805
20
80.6524826421111
30
0
0
VERTEX
8
0
10
147.775695840589
20
80.6156585472288
30
0
0
VERTEX
8
0
10
148.565940203373
20
80.5791534796684
30
0
0
VERTEX
8
0
10
149.356184566157
20
80.5429921407796
30
0
0
VERTEX
8
0
10
150.146428928941
20
80.5071814215759
30
0
0
VERTEX
8
0
10
150.936673291725
20
80.4716951837413
30
0
0
VERTEX
8
0
10
151.726917654509
20
80.4368499757109
30
0
0
VERTEX
8
0
10
152.517162017293
20
80.4036848980943
30
0
0
VERTEX
8
0
10
153.307406380077
20
80.3724212106303
30
0
0
VERTEX
8
0
10
154.097650742861
20
80.35080265377
30
0
0
VERTEX
8
0
10
154.887895105645
20
80.3430660006576
30
0
0
SEQEND
8
0
0
POLYLINE
8
0
62
2
70
0
10
0
20
0
30
0
0
VERTEX
8
0
10
2.3707330883517
20
0.882136905063887
30
0
0
VERTEX
8
0
10
3.1609774511356
20
1.29150665322789
30
0
0
VERTEX
8
0
10
3.9512218139195
20
1.71753960001398
30
0
0
VERTEX
8
0
10
4.7414661767034
20
2.1412250076186
30
0
0
VERTEX
8
0
10
5.5317105394873
20
2.47107381827472
30
0
0
VERTEX
8
0
10
6.3219549022712
20
2.75696743625412
30
0
0
VERTEX
8
0
10
7.1121992650551
20
3.02297746195938
30
0
0
VERTEX
8
0
10
7.902443627839
20
3.28649183913571
30
0
0
VERTEX
8
0
10
8.6926879906229
20
3.54352325676648
30
0
0
VERTEX
8
0
10
9.4829323534068
20
3.8192655234287
30
0
0
VERTEX
8
0
10
10.2731767161907
20
4.08410493352183
30
0
0
VERTEX
8
0
10
11.0634210789746
20
4.27902768747122
30
0
0
VERTEX
8
0
10
11.8536654417585
20
4.47371219915739
30
0
0
VERTEX
8
0
10
12.6439098045424
20
4.66907540672184
30
0
0
VERTEX
8
0
10
13.4341541673263
20
4.84241555832212
30
0
0
VERTEX
8
0
10
14.2243985301102
20
5.00506047721597
30
0
0
VERTEX
8
0
10
15.0146428928941
20
5.1474890112739
30
0
0
VERTEX
8
0
10
15.804887255678
20
5.30128966268281
30
0
0
VERTEX
8
0
10
16.5951316184619
20
5.56961972574274
30
0
0
VERTEX
8
0
10
17.3853759812458
20
5.80990993774527
30
0
0
VERTEX
8
0
10
18.1756203440297
20
6.05482705255357
30
0
0
VERTEX
8
0
10
18.9658647068136
20
6.51668428094645
30
0
0
VERTEX
8
0
10
19.7561090695975
20
6.98822636243615
30
0
0
VERTEX
8
0
10
20.5463534323814
20
7.46713326660279
30
0
0
VERTEX
8
0
10
21.3365977951653
20
8.12956769117288
30
0
0
VERTEX
8
0
10
22.1268421579492
20
8.89544025942246
30
0
0
VERTEX
8
0
10
22.9170865207331
20
9.58783095735808
30
0
0
VERTEX
8
0
10
23.707330883517
20
10.3316428294538
30
0
0
VERTEX
8
0
10
24.4975752463009
20
11.1232519228889
30
0
0
VERTEX
8
0
10
25.2878196090848
20
11.9218457676144
30
0
0
VERTEX
8
0
10
26.0780639718687
20
12.722469577268
30
0
0
VERTEX
8
0
10
26.8683083346526
20
13.4995519466282
30
0
0
VERTEX
8
0
10
27.6585526974365
20
14.2826507167583
30
0
0
VERTEX
8
0
10
28.4487970602204
20
15.0656478042321
30
0
0
VERTEX
8
0
10
29.2390414230043
20
15.7245015851348
30
0
0
VERTEX
8
0
10
30.0292857857882
20
16.3208434248023
30
0
0
VERTEX
8
0
10
30.8195301485721
20
16.954042553802
30
0
0
VERTEX
8
0
10
31.609774511356
20
17.5485413087855
30
0
0
VERTEX
8
0
10
32.4000188741399
20
18.0943330760124
30
0
0
VERTEX
8
0
10
33.1902632369238
20
18.6692490834863
30
0
0
VERTEX
8
0
10
33.9805075997077
20
19.2404465228092
30
0
0
VERTEX
8
0
10
34.7707519624916
20
19.545056085235
30
0
0
VERTEX
8
0
10
35.5609963252755
20
19.8966274361804
30
0
0
VERTEX
8
0
10
36.3512406880594
20
20.2502416884432
30
0
0
VERTEX
8
0
10
37.1414850508433
20
20.5371669312144
30
0
0
VERTEX
8
0
10
37.9317294136272
20
20.7831066610286
30
0
0
VERTEX
8
0
10
38.7219737764111
20
21.0537252131028
30
0
0
VERTEX
8
0
10
39.512218139195
20
21.3020053427898
30
0
0
VERTEX
8
0
10
40.3024625019789
20
21.5191530975278
30
0
0
VERTEX
8
0
10
41.0927068647628
20
21.7553714651828
30
0
0
VERTEX
8
0
10
41.8829512275467
20
21.991099041905
30
0
0
VERTEX
8
0
10
42.6731955903306
20
22.1816895376518
30
0
0
VERTEX
8
0
10
43.4634399531145
20
22.3799698137338
30
0
0
VERTEX
8
0
10
44.2536843158984
20
22.5787769969003
30
0
0
VERTEX
8
0
10
45.0439286786823
20
22.7581186841067
30
0
0
VERTEX
8
0
10
45.8341730414662
20
22.9064400138244
30
0
0
VERTEX
8
0
10
46.6244174042501
20
23.0761047142265
30
0
0
VERTEX
8
0
10
47.414661767034
20
23.2655317319601
30
0
0
VERTEX
8
0
10
48.2049061298179
20
23.45663343782
30
0
0
VERTEX
8
0
10
48.9951504926018
20
23.6661820502082
30
0
0
VERTEX
8
0
10
49.7853948553857
20
23.8788448835862
30
0
0
VERTEX
8
0
10
50.5756392181696
20
24.1440943605562
30
0
0
VERTEX
8
0
10
51.3658835809535
20
24.4037690333167
30
0
0
VERTEX
8
0
10
52.1561279437374
20
24.6641494303868
30
0
0
VERTEX
8
0
10
52.9463723065213
20
24.9420467979401
30
0
0
VERTEX
8
0
10
53.7366166693052
20
25.1855797709715
30
0
0
VERTEX
8
0
10
54.5268610320891
20
25.4565008968475
30
0
0
VERTEX
8
0
10
55.3171053948729
20
25.698209865466
30
0
0
VERTEX
8
0
10
56.1073497576568
20
25.9579787568586
30
0
0
VERTEX
8
0
10
56.8975941204407
20
26.2179708683416
30
0
0
VERTEX
8
0
10
57.6878384832246
20
26.4790020733111
30
0
0
VERTEX
8
0
10
58.4780828460085
20
26.7442349370832
30
0
0
VERTEX
8
0
10
59.2683272087924
20
27.0094991402633
30
0
0
VERTEX
8
0
10
60.0585715715763
20
27.2768844917768
30
0
0
VERTEX
8
0
10
60.8488159343602
20
27.5638512020778
30
0
0
VERTEX
8
0
10
61.6390602971441
20
27.8151664557822
30
0
0
VERTEX
8
0
10
62.429304659928
20
28.0958950965456
30
0
0
VERTEX
8
0
10
63.2195490227119
20
28.342872060232
30
0
0
VERTEX
8
0
10
64.0097933854958
20
28.6035701350478
30
0
0
VERTEX
8
0
10
64.8000377482797
20
28.8642824352377
30
0
0
VERTEX
8
0
10
65.5902821110636
20
29.1249212032508
30
0
0
VERTEX
8
0
10
66.3805264738475
20
29.3760983095759
30
0
0
VERTEX
8
0
10
67.1707708366314
20
29.62886233228
30
0
0
VERTEX
8
0
10
67.9610151994153
20
29.880783401889
30
0
0
VERTEX
8
0
10
68.7512595621992
20
30.0869872997209
30
0
0
VERTEX
8
0
10
69.5415039249831
20
30.3091612918868
30
0
0
VERTEX
8
0
10
70.331748287767
20
30.5329075028825
30
0
0
VERTEX
8
0
10
71.1219926505509
20
30.733949578905
30
0
0
VERTEX
8
0
10
71.9122370133348
20
30.8975815625166
30
0
0
VERTEX
8
0
10
72.7024813761187
20
31.073817959131
30
0
0
VERTEX
8
0
10
73.4927257389026
20
31.2586306839826
30
0
0
VERTEX
8
0
10
74.2829701016865
20
31.4762976168604
30
0
0
VERTEX
8
0
10
75.0732144644704
20
31.6942419555387
30
0
0
VERTEX
8
0
10
75.8634588272543
20
31.910391689842
30
0
0
VERTEX
8
0
10
76.6537031900382
20
32.0918662808742
30
0
0
VERTEX
8
0
10
77.4439475528221
20
32.2915331626326
30
0
0
VERTEX
8
0
10
78.234191915606
20
32.4923823498085
30
0
0
VERTEX
8
0
10
79.0244362783899
20
32.6731551399074
30
0
0
VERTEX
8
0
10
79.8146806411738
20
32.8390031609104
30
0
0
VERTEX
8
0
10
80.6049250039577
20
33.0133708885261
30
0
0
VERTEX
8
0
10
81.3951693667416
20
33.1844536301647
30
0
0
VERTEX
8
0
10
82.1854137295255
20
33.3127944217205
30
0
0
VERTEX
8
0
10
82.9756580923094
20
33.4413357191469
30
0
0
VERTEX
8
0
10
83.7659024550933
20
33.5678897370313
30
0
0
VERTEX
8
0
10
84.5561468178772
20
33.6440323078513
30
0
0
VERTEX
8
0
10
85.3463911806611
20
33.7251232916838
30
0
0
VERTEX
8
0
10
86.136635543445
20
33.8066333737717
30
0
0
VERTEX
8
0
10
86.9268799062288
20
33.8762788442857
30
0
0
VERTEX
8
0
10
87.7171242690127
20
33.9443383787516
30
0
0
VERTEX
8
0
10
88.5073686317966
20
34.0145896673919
30
0
0
VERTEX
8
0
10
89.2976129945805
20
34.0882731448758
30
0
0
VERTEX
8
0
10
90.0878573573644
20
34.1712623240538
30
0
0
VERTEX
8
0
10
90.8781017201483
20
34.2558513662574
30
0
0
VERTEX
8
0
10
91.6683460829322
20
34.3372687804472
30
0
0
VERTEX
8
0
10
92.4585904457161
20
34.3832572441373
30
0
0
VERTEX
8
0
10
93.2488348085
20
34.4362494492549
30
0
0
VERTEX
8
0
10
94.0390791712839
20
34.4796328623745
30
0
0
VERTEX
8
0
10
94.8293235340678
20
34.5299706866866
30
0
0
VERTEX
8
0
10
95.6195678968517
20
34.5370125656025
30
0
0
VERTEX
8
0
10
96.4098122596356
20
34.5497431738019
30
0
0
VERTEX
8
0
10
97.2000566224195
20
34.5619253620098
30
0
0
VERTEX
8
0
10
97.9903009852034
20
34.5496977431773
30
0
0
VERTEX
8
0
10
98.7805453479873
20
34.5362546335967
30
0
0
VERTEX
8
0
10
99.5707897107712
20
34.5173781229444
30
0
0
VERTEX
8
0
10
100.361034073555
20
34.4542518662888
30
0
0
VERTEX
8
0
10
101.151278436339
20
34.3814139512051
30
0
0
VERTEX
8
0
10
101.941522799123
20
34.3041915221489
30
0
0
VERTEX
8
0
10
102.731767161907
20
34.2328472006808
30
0
0
VERTEX
8
0
10
103.522011524691
20
34.1650395884918
30
0
0
VERTEX
8
0
10
104.312255887475
20
34.0965144985414
30
0
0
VERTEX
8
0
10
105.102500250258
20
34.0315901670055
30
0
0
VERTEX
8
0
10
105.892744613042
20
33.9824759607664
30
0
0
VERTEX
8
0
10
106.682988975826
20
33.9354407051816
30
0
0
VERTEX
8
0
10
107.47323333861
20
33.8846986889232
30
0
0
VERTEX
8
0
10
108.263477701394
20
33.849677805028
30
0
0
VERTEX
8
0
10
109.053722064178
20
33.8218698041033
30
0
0
VERTEX
8
0
10
109.843966426962
20
33.7912447037092
30
0
0
VERTEX
8
0
10
110.634210789746
20
33.7569881058908
30
0
0
VERTEX
8
0
10
111.42445515253
20
33.6836143301005
30
0
0
VERTEX
8
0
10
112.214699515314
20
33.6108264981153
30
0
0
VERTEX
8
0
10
113.004943878097
20
33.5427956673047
30
0
0
VERTEX
8
0
10
113.795188240881
20
33.4752578007242
30
0
0
VERTEX
8
0
10
114.585432603665
20
33.4080558053871
30
0
0
VERTEX
8
0
10
115.375676966449
20
33.3361316600921
30
0
0
VERTEX
8
0
10
116.165921329233
20
33.2613206593174
30
0
0
VERTEX
8
0
10
116.956165692017
20
33.183354711812
30
0
0
VERTEX
8
0
10
117.746410054801
20
33.1038057687547
30
0
0
VERTEX
8
0
10
118.536654417585
20
33.0241740625762
30
0
0
VERTEX
8
0
10
119.326898780369
20
32.9357322441748
30
0
0
VERTEX
8
0
10
120.117143143153
20
32.8475089244161
30
0
0
VERTEX
8
0
10
120.907387505936
20
32.7567087676878
30
0
0
VERTEX
8
0
10
121.69763186872
20
32.6539169846486
30
0
0
VERTEX
8
0
10
122.487876231504
20
32.5481319019483
30
0
0
VERTEX
8
0
10
123.278120594288
20
32.4430693201879
30
0
0
VERTEX
8
0
10
124.068364957072
20
32.3391384426528
30
0
0
VERTEX
8
0
10
124.858609319856
20
32.2363591246225
30
0
0
VERTEX
8
0
10
125.64885368264
20
32.1346369771689
30
0
0
VERTEX
8
0
10
126.439098045424
20
32.0339133818205
30
0
0
VERTEX
8
0
10
127.229342408208
20
31.9341540363849
30
0
0
VERTEX
8
0
10
128.019586770992
20
31.835334381433
30
0
0
VERTEX
8
0
10
128.809831133775
20
31.7374341493868
30
0
0
VERTEX
8
0
10
129.600075496559
20
31.6404352609973
30
0
0
VERTEX
8
0
10
130.390319859343
20
31.5443208627712
30
0
0
VERTEX
8
0
10
131.180564222127
20
31.449074794505
30
0
0
VERTEX
8
0
10
131.970808584911
20
31.3546812259583
30
0
0
VERTEX
8
0
10
132.761052947695
20
31.2611243409451
30
0
0
VERTEX
8
0
10
133.551297310479
20
31.1683879867036
30
0
0
VERTEX
8
0
10
134.341541673263
20
31.0764551996632
30
0
0
VERTEX
8
0
10
135.131786036047
20
30.9853074668121
30
0
0
VERTEX
8
0
10
135.922030398831
20
30.8949234441002
30
0
0
VERTEX
8
0
10
136.712274761615
20
30.8052764929543
30
0
0
VERTEX
8
0
10
137.502519124398
20
30.7163293638252
30
0
0
VERTEX
8
0
10
138.292763487182
20
30.6280211257123
30
0
0
VERTEX
8
0
10
139.083007849966
20
30.5402312673628
30
0
0
VERTEX
8
0
10
139.87325221275
20
30.4526817699715
30
0
0
VERTEX
8
0
10
140.663496575534
20
30.3647899791237
30
0
0
VERTEX
8
0
10
141.453740938318
20
30.2769507292974
30
0
0
VERTEX
8
0
10
142.243985301102
20
30.2011379315831
30
0
0
VERTEX
8
0
10
143.034229663886
20
30.1550336204139
30
0
0
VERTEX
8
0
10
143.82447402667
20
30.1112974418263
30
0
0
VERTEX
8
0
10
144.614718389454
20
30.0739145613985
30
0
0
VERTEX
8
0
10
145.404962752238
20
30.0646636947335
30
0
0
VERTEX
8
0
10
146.195207115022
20
30.0601060404587
30
0
0
VERTEX
8
0
10
146.985451477805
20
30.0593537200658
30
0
0
VERTEX
8
0
10
147.775695840589
20
30.0576570016857
30
0
0
VERTEX
8
0
10
148.565940203373
20
30.0513411063767
30
0
0
VERTEX
8
0
10
149.356184566157
20
30.0504061043344
30
0
0
VERTEX
8
0
10
150.146428928941
20
30.0495315686672
30
0
0
VERTEX
8
0
10
150.936673291725
20
30.0488596403101
30
0
0
VERTEX
8
0
10
151.726917654509
20
30.0486187678435
30
0
0
VERTEX
8
0
10
152.517162017293
20
30.0492934738754
30
0
0
VERTEX
8
0
10
153.307406380077
20
30.0517357432985
30
0
0
VERTEX
8
0
10
154.097650742861
20
30.0489070993325
30
0
0
VERTEX
8
0
10
154.887895105645
20
30.0315150569144
30
0
0
SEQEND
8
0
0
POLYLINE
8
0
62
3
70
0
10
0
20
0
30
0
0
VERTEX
8
0
10
2.3707330883517
20
1.90142120646657
30
0
0
VERTEX
8
0
10
3.1609774511356
20
2.59272846173711
30
0
0
VERTEX
8
0
10
3.9512218139195
20
3.29576645513975
30
0
0
VERTEX
8
0
10
4.7414661767034
20
3.99861026726651
30
0
0
VERTEX
8
0
10
5.5317105394873
20
4.64977691270475
30
0
0
VERTEX
8
0
10
6.3219549022712
20
5.27652675848738
30
0
0
VERTEX
8
0
10
7.1121992650551
20
5.88934155085037
30
0
0
VERTEX
8
0
10
7.902443627839
20
6.50358017560393
30
0
0
VERTEX
8
0
10
8.6926879906229
20
7.11469894408989
30
0
0
VERTEX
8
0
10
9.4829323534068
20
7.73223094716186
30
0
0
VERTEX
8
0
10
10.2731767161907
20
8.34852457002759
30
0
0
VERTEX
8
0
10
11.0634210789746
20
8.93051147885971
30
0
0
VERTEX
8
0
10
11.8536654417585
20
9.51355438249529
30
0
0
VERTEX
8
0
10
12.6439098045424
20
10.0984532057822
30
0
0
VERTEX
8
0
10
13.4341541673263
20
10.6748682320066
30
0
0
VERTEX
8
0
10
14.2243985301102
20
11.2489179271232
30
0
0
VERTEX
8
0
10
15.0146428928941
20
11.8126714054156
30
0
0
VERTEX
8
0
10
15.804887255678
20
12.3889298286225
30
0
0
VERTEX
8
0
10
16.5951316184619
20
13.0134137516332
30
0
0
VERTEX
8
0
10
17.3853759812458
20
13.6363827655849
30
0
0
VERTEX
8
0
10
18.1756203440297
20
14.2650512968819
30
0
0
VERTEX
8
0
10
18.9658647068136
20
14.9945428238995
30
0
0
VERTEX
8
0
10
19.7561090695975
20
15.7360656583005
30
0
0
VERTEX
8
0
10
20.5463534323814
20
16.4884649747436
30
0
0
VERTEX
8
0
10
21.3365977951653
20
17.3363619911033
30
0
0
VERTEX
8
0
10
22.1268421579492
20
18.2462112513331
30
0
0
VERTEX
8
0
10
22.9170865207331
20
19.1029682866829
30
0
0
VERTEX
8
0
10
23.707330883517
20
20.0123269210725
30
0
0
VERTEX
8
0
10
24.4975752463009
20
20.9298654533778
30
0
0
VERTEX
8
0
10
25.2878196090848
20
21.8873398804477
30
0
0
VERTEX
8
0
10
26.0780639718687
20
22.8511870252813
30
0
0
VERTEX
8
0
10
26.8683083346526
20
23.8047563548218
30
0
0
VERTEX
8
0
10
27.6585526974365
20
24.7633450723086
30
0
0
VERTEX
8
0
10
28.4487970602204
20
25.7213685591368
30
0
0
VERTEX
8
0
10
29.2390414230043
20
26.6014879759512
30
0
0
VERTEX
8
0
10
30.0292857857882
20
27.4097710312608
30
0
0
VERTEX
8
0
10
30.8195301485721
20
28.2579682358034
30
0
0
VERTEX
8
0
10
31.609774511356
20
29.0773980529996
30
0
0
VERTEX
8
0
10
32.4000188741399
20
29.8337277876322
30
0
0
VERTEX
8
0
10
33.1902632369238
20
30.6370476589785
30
0
0
VERTEX
8
0
10
33.9805075997077
20
31.4333164132743
30
0
0
VERTEX
8
0
10
34.7707519624916
20
32.0526657741851
30
0
0
VERTEX
8
0
10
35.5609963252755
20
32.6930737041108
30
0
0
VERTEX
8
0
10
36.3512406880594
20
33.327886599801
30
0
0
VERTEX
8
0
10
37.1414850508433
20
33.91392531751
30
0
0
VERTEX
8
0
10
37.9317294136272
20
34.4454703496986
30
0
0
VERTEX
8
0
10
38.7219737764111
20
35.0052177536093
30
0
0
VERTEX
8
0
10
39.512218139195
20
35.5463920329396
30
0
0
VERTEX
8
0
10
40.3024625019789
20
36.0465005009512
30
0
0
VERTEX
8
0
10
41.0927068647628
20
36.5774156580216
30
0
0
VERTEX
8
0
10
41.8829512275467
20
37.1043961009902
30
0
0
VERTEX
8
0
10
42.6731955903306
20
37.5997510134484
30
0
0
VERTEX
8
0
10
43.4634399531145
20
38.0962514298954
30
0
0
VERTEX
8
0
10
44.2536843158984
20
38.5898531782983
30
0
0
VERTEX
8
0
10
45.0439286786823
20
39.068539559394
30
0
0
VERTEX
8
0
10
45.8341730414662
20
39.5041205837187
30
0
0
VERTEX
8
0
10
46.6244174042501
20
39.9674977069403
30
0
0
VERTEX
8
0
10
47.414661767034
20
40.4407299114233
30
0
0
VERTEX
8
0
10
48.2049061298179
20
40.8964261708664
30
0
0
VERTEX
8
0
10
48.9951504926018
20
41.3844414605323
30
0
0
VERTEX
8
0
10
49.7853948553857
20
41.8726546683021
30
0
0
VERTEX
8
0
10
50.5756392181696
20
42.3910343243904
30
0
0
VERTEX
8
0
10
51.3658835809535
20
42.90492762154
30
0
0
VERTEX
8
0
10
52.1561279437374
20
43.4178868139848
30
0
0
VERTEX
8
0
10
52.9463723065213
20
43.9399667884131
30
0
0
VERTEX
8
0
10
53.7366166693052
20
44.4060286473343
30
0
0
VERTEX
8
0
10
54.5268610320891
20
44.9114279894047
30
0
0
VERTEX
8
0
10
55.3171053948729
20
45.3701927889965
30
0
0
VERTEX
8
0
10
56.1073497576568
20
45.8721234366359
30
0
0
VERTEX
8
0
10
56.8975941204407
20
46.3718827582361
30
0
0
VERTEX
8
0
10
57.6878384832246
20
46.8699957053846
30
0
0
VERTEX
8
0
10
58.4780828460085
20
47.3683562450542
30
0
0
VERTEX
8
0
10
59.2683272087924
20
47.8644792255993
30
0
0
VERTEX
8
0
10
60.0585715715763
20
48.3597894339333
30
0
0
VERTEX
8
0
10
60.8488159343602
20
48.8649395695493
30
0
0
VERTEX
8
0
10
61.6390602971441
20
49.3057046732264
30
0
0
VERTEX
8
0
10
62.429304659928
20
49.7917262217287
30
0
0
VERTEX
8
0
10
63.2195490227119
20
50.2260567201969
30
0
0
VERTEX
8
0
10
64.0097933854958
20
50.7028732815301
30
0
0
VERTEX
8
0
10
64.8000377482797
20
51.1764146169173
30
0
0
VERTEX
8
0
10
65.5902821110636
20
51.6467423360809
30
0
0
VERTEX
8
0
10
66.3805264738475
20
52.1081162373676
30
0
0
VERTEX
8
0
10
67.1707708366314
20
52.5670319778142
30
0
0
VERTEX
8
0
10
67.9610151994153
20
53.0217168003718
30
0
0
VERTEX
8
0
10
68.7512595621992
20
53.4128925838699
30
0
0
VERTEX
8
0
10
69.5415039249831
20
53.8338702453647
30
0
0
VERTEX
8
0
10
70.331748287767
20
54.2518735433658
30
0
0
VERTEX
8
0
10
71.1219926505509
20
54.6289563755239
30
0
0
VERTEX
8
0
10
71.9122370133348
20
55.011964627782
30
0
0
VERTEX
8
0
10
72.7024813761187
20
55.3986165403985
30
0
0
VERTEX
8
0
10
73.4927257389026
20
55.7871324391984
30
0
0
VERTEX
8
0
10
74.2829701016865
20
56.191988648632
30
0
0
VERTEX
8
0
10
75.0732144644704
20
56.5935659487775
30
0
0
VERTEX
8
0
10
75.8634588272543
20
56.9905114755527
30
0
0
VERTEX
8
0
10
76.6537031900382
20
57.3283703812125
30
0
0
VERTEX
8
0
10
77.4439475528221
20
57.6988964203482
30
0
0
VERTEX
8
0
10
78.234191915606
20
58.065940404642
30
0
0
VERTEX
8
0
10
79.0244362783899
20
58.3931134542026
30
0
0
VERTEX
8
0
10
79.8146806411738
20
58.7394786369968
30
0
0
VERTEX
8
0
10
80.6049250039577
20
59.0861859476082
30
0
0
VERTEX
8
0
10
81.3951693667416
20
59.4266023455171
30
0
0
VERTEX
8
0
10
82.1854137295255
20
59.7367627582223
30
0
0
VERTEX
8
0
10
82.9756580923094
20
60.0426677303077
30
0
0
VERTEX
8
0
10
83.7659024550933
20
60.3422331529415
30
0
0
VERTEX
8
0
10
84.5561468178772
20
60.5786739954253
30
0
0
VERTEX
8
0
10
85.3463911806611
20
60.8362598590542
30
0
0
VERTEX
8
0
10
86.136635543445
20
61.0897592943407
30
0
0
VERTEX
8
0
10
86.9268799062288
20
61.3159706385555
30
0
0
VERTEX
8
0
10
87.7171242690127
20
61.5596146433868
30
0
0
VERTEX
8
0
10
88.5073686317966
20
61.8004626689347
30
0
0
VERTEX
8
0
10
89.2976129945805
20
62.0395195274973
30
0
0
VERTEX
8
0
10
90.0878573573644
20
62.2802526595948
30
0
0
VERTEX
8
0
10
90.8781017201483
20
62.5178928261707
30
0
0
VERTEX
8
0
10
91.6683460829322
20
62.7494471438027
30
0
0
VERTEX
8
0
10
92.4585904457161
20
62.9297047896864
30
0
0
VERTEX
8
0
10
93.2488348085
20
63.1308371429906
30
0
0
VERTEX
8
0
10
94.0390791712839
20
63.3022142297552
30
0
0
VERTEX
8
0
10
94.8293235340678
20
63.5022234567635
30
0
0
VERTEX
8
0
10
95.6195678968517
20
63.6697117168396
30
0
0
VERTEX
8
0
10
96.4098122596356
20
63.8358654978386
30
0
0
VERTEX
8
0
10
97.2000566224195
20
63.997653106754
30
0
0
VERTEX
8
0
10
97.9903009852034
20
64.1409467425541
30
0
0
VERTEX
8
0
10
98.7805453479873
20
64.2799701615363
30
0
0
VERTEX
8
0
10
99.5707897107712
20
64.4113469899186
30
0
0
VERTEX
8
0
10
100.361034073555
20
64.4994485480195
30
0
0
VERTEX
8
0
10
101.151278436339
20
64.5910272272993
30
0
0
VERTEX
8
0
10
101.941522799123
20
64.6708197131643
30
0
0
VERTEX
8
0
10
102.731767161907
20
64.7588600125013
30
0
0
VERTEX
8
0
10
103.522011524691
20
64.846388888548
30
0
0
VERTEX
8
0
10
104.312255887475
20
64.9309946941075
30
0
0
VERTEX
8
0
10
105.102500250258
20
65.0153167459594
30
0
0
VERTEX
8
0
10
105.892744613042
20
65.1065082628431
30
0
0
VERTEX
8
0
10
106.682988975826
20
65.1962225376492
30
0
0
VERTEX
8
0
10
107.47323333861
20
65.2728470272935
30
0
0
VERTEX
8
0
10
108.263477701394
20
65.3622329629505
30
0
0
VERTEX
8
0
10
109.053722064178
20
65.4531828991651
30
0
0
VERTEX
8
0
10
109.843966426962
20
65.5309996956113
30
0
0
VERTEX
8
0
10
110.634210789746
20
65.6193056146496
30
0
0
VERTEX
8
0
10
111.42445515253
20
65.6807966623802
30
0
0
VERTEX
8
0
10
112.214699515314
20
65.7397348643158
30
0
0
VERTEX
8
0
10
113.004943878097
20
65.7991237275052
30
0
0
VERTEX
8
0
10
113.795188240881
20
65.8565927037617
30
0
0
VERTEX
8
0
10
114.585432603665
20
65.9121052023789
30
0
0
VERTEX
8
0
10
115.375676966449
20
65.9571138947641
30
0
0
VERTEX
8
0
10
116.165921329233
20
66.0031355780833
30
0
0
VERTEX
8
0
10
116.956165692017
20
66.0455777416959
30
0
0
VERTEX
8
0
10
117.746410054801
20
66.0821059103599
30
0
0
VERTEX
8
0
10
118.536654417585
20
66.1216887378377
30
0
0
VERTEX
8
0
10
119.326898780369
20
66.1540499243763
30
0
0
VERTEX
8
0
10
120.117143143153
20
66.1845979121456
30
0
0
VERTEX
8
0
10
120.907387505936
20
66.2118902617165
30
0
0
VERTEX
8
0
10
121.69763186872
20
66.2307375150254
30
0
0
VERTEX
8
0
10
122.487876231504
20
66.2469604420367
30
0
0
VERTEX
8
0
10
123.278120594288
20
66.2621632839714
30
0
0
VERTEX
8
0
10
124.068364957072
20
66.2767618819182
30
0
0
VERTEX
8
0
10
124.858609319856
20
66.2907875863883
30
0
0
VERTEX
8
0
10
125.64885368264
20
66.3042675668941
30
0
0
VERTEX
8
0
10
126.439098045424
20
66.3172389913345
30
0
0
VERTEX
8
0
10
127.229342408208
20
66.3297454072353
30
0
0
VERTEX
8
0
10
128.019586770992
20
66.3418307899544
30
0
0
VERTEX
8
0
10
128.809831133775
20
66.3535377619148
30
0
0
VERTEX
8
0
10
129.600075496559
20
66.3649072606552
30
0
0
VERTEX
8
0
10
130.390319859343
20
66.3759786395376
30
0
0
VERTEX
8
0
10
131.180564222127
20
66.3867898988808
30
0
0
VERTEX
8
0
10
131.970808584911
20
66.3973779532575
30
0
0
VERTEX
8
0
10
132.761052947695
20
66.4077789019639
30
0
0
VERTEX
8
0
10
133.551297310479
20
66.4180282864658
30
0
0
VERTEX
8
0
10
134.341541673263
20
66.4281613165612
30
0
0
VERTEX
8
0
10
135.131786036047
20
66.4382130272109
30
0
0
VERTEX
8
0
10
135.922030398831
20
66.4482182727914
30
0
0
VERTEX
8
0
10
136.712274761615
20
66.4582113138695
30
0
0
VERTEX
8
0
10
137.502519124398
20
66.4682242995862
30
0
0
VERTEX
8
0
10
138.292763487182
20
66.4782824993201
30
0
0
VERTEX
8
0
10
139.083007849966
20
66.4883895375397
30
0
0
VERTEX
8
0
10
139.87325221275
20
66.4984851916896
30
0
0
VERTEX
8
0
10
140.663496575534
20
66.5083850023267
30
0
0
VERTEX
8
0
10
141.453740938318
20
66.5183979102844
30
0
0
VERTEX
8
0
10
142.243985301102
20
66.5329626990853
30
0
0
VERTEX
8
0
10
143.034229663886
20
66.5636690256368
30
0
0
VERTEX
8
0
10
143.82447402667
20
66.5962754143009
30
0
0
VERTEX
8
0
10
144.614718389454
20
66.6327926505547
30
0
0
VERTEX
8
0
10
145.404962752238
20
66.6850777764602
30
0
0
VERTEX
8
0
10
146.195207115022
20
66.726833834102
30
0
0
VERTEX
8
0
10
146.985451477805
20
66.7780469018364
30
0
0
VERTEX
8
0
10
147.775695840589
20
66.8284846266897
30
0
0
VERTEX
8
0
10
148.565940203373
20
66.8672141495485
30
0
0
VERTEX
8
0
10
149.356184566157
20
66.9199337762592
30
0
0
VERTEX
8
0
10
150.146428928941
20
66.9720236245275
30
0
0
VERTEX
8
0
10
150.936673291725
20
67.0234555389356
30
0
0
VERTEX
8
0
10
151.726917654509
20
67.0742378466778
30
0
0
VERTEX
8
0
10
152.517162017293
20
67.1244870780392
30
0
0
VERTEX
8
0
10
153.307406380077
20
67.1744665404476
30
0
0
VERTEX
8
0
10
154.097650742861
20
67.2093314427907
30
0
0
VERTEX
8
0
10
154.887895105645
20
67.244574365381
30
0
0
SEQEND
8
0
0
POLYLINE
8
0
62
4
70
0
10
0
20
0
30
0
0
VERTEX
8
0
10
2.3707330883517
20
1.90142120646657
30
0
0
VERTEX
8
0
10
3.1609774511356
20
2.59272846173711
30
0
0
VERTEX
8
0
10
3.9512218139195
20
3.29576645513975
30
0
0
VERTEX
8
0
10
4.7414661767034
20
3.99861026726651
30
0
0
VERTEX
8
0
10
5.5317105394873
20
4.64977691270475
30
0
0
VERTEX
8
0
10
6.3219549022712
20
5.27652675848738
30
0
0
VERTEX
8
0
10
7.1121992650551
20
5.88934155085037
30
0
0
VERTEX
8
0
10
7.902443627839
20
6.50358017560393
30
0
0
VERTEX
8
0
10
8.6926879906229
20
7.11469894408989
30
0
0
VERTEX
8
0
10
9.4829323534068
20
7.73223094716186
30
0
0
VERTEX
8
0
10
10.2731767161907
20
8.34852457002759
30
0
0
VERTEX
8
0
10
11.0634210789746
20
8.93051147885971
30
0
0
VERTEX
8
0
10
11.8536654417585
20
9.51355438249529
30
0
0
VERTEX
8
0
10
12.6439098045424
20
10.0984532057822
30
0
0
VERTEX
8
0
10
13.4341541673263
20
10.6748682320066
30
0
0
VERTEX
8
0
10
14.2243985301102
20
11.2489179271232
30
0
0
VERTEX
8
0
10
15.0146428928941
20
11.8126714054156
30
0
0
VERTEX
8
0
10
15.804887255678
20
12.3889298286225
30
0
0
VERTEX
8
0
10
16.5951316184619
20
13.0134137516332
30
0
0
VERTEX
8
0
10
17.3853759812458
20
13.6363827655849
30
0
0
VERTEX
8
0
10
18.1756203440297
20
14.2650512968819
30
0
0
VERTEX
8
0
10
18.9658647068136
20
14.9945428238995
30
0
0
VERTEX
8
0
10
19.7561090695975
20
15.7360656583005
30
0
0
VERTEX
8
0
10
20.5463534323814
20
16.4884649747436
30
0
0
VERTEX
8
0
10
21.3365977951653
20
17.3363619911033
30
0
0
VERTEX
8
0
10
22.1268421579492
20
18.2462112513331
30
0
0
VERTEX
8
0
10
22.9170865207331
20
19.1029682866829
30
0
0
VERTEX
8
0
10
23.707330883517
20
20.0123269210725
30
0
0
VERTEX
8
0
10
24.4975752463009
20
20.9298654533778
30
0
0
VERTEX
8
0
10
25.2878196090848
20
21.8873398804477
30
0
0
VERTEX
8
0
10
26.0780639718687
20
22.8511870252813
30
0
0
VERTEX
8
0
10
26.8683083346526
20
23.8047563548218
30
0
0
VERTEX
8
0
10
27.6585526974365
20
24.7633450723086
30
0
0
VERTEX
8
0
10
28.4487970602204
20
25.7213685591368
30
0
0
VERTEX
8
0
10
29.2390414230043
20
26.6014879759512
30
0
0
VERTEX
8
0
10
30.0292857857882
20
27.4097710312608
30
0
0
VERTEX
8
0
10
30.8195301485721
20
28.2579682358034
30
0
0
VERTEX
8
0
10
31.609774511356
20
29.0773980529996
30
0
0
VERTEX
8
0
10
32.4000188741399
20
29.8337277876322
30
0
0
VERTEX
8
0
10
33.1902632369238
20
30.6370476589785
30
0
0
VERTEX
8
0
10
33.9805075997077
20
31.4333164132743
30
0
0
VERTEX
8
0
10
34.7707519624916
20
32.0526657741851
30
0
0
VERTEX
8
0
10
35.5609963252755
20
32.6930737041108
30
0
0
VERTEX
8
0
10
36.3512406880594
20
33.327886599801
30
0
0
VERTEX
8
0
10
37.1414850508433
20
33.91392531751
30
0
0
VERTEX
8
0
10
37.9317294136272
20
34.4454703496986
30
0
0
VERTEX
8
0
10
38.7219737764111
20
35.0052177536093
30
0
0
VERTEX
8
0
10
39.512218139195
20
35.5463920329396
30
0
0
VERTEX
8
0
10
40.3024625019789
20
36.0465005009512
30
0
0
VERTEX
8
0
10
41.0927068647628
20
36.5774156580216
30
0
0
VERTEX
8
0
10
41.8829512275467
20
37.1043961009902
30
0
0
VERTEX
8
0
10
42.6731955903306
20
37.5997510134484
30
0
0
VERTEX
8
0
10
43.4634399531145
20
38.0962514298954
30
0
0
VERTEX
8
0
10
44.2536843158984
20
38.5898531782983
30
0
0
VERTEX
8
0
10
45.0439286786823
20
39.068539559394
30
0
0
VERTEX
8
0
10
45.8341730414662
20
39.5041205837187
30
0
0
VERTEX
8
0
10
46.6244174042501
20
39.9674977069403
30
0
0
VERTEX
8
0
10
47.414661767034
20
40.4407299114233
30
0
0
VERTEX
8
0
10
48.2049061298179
20
40.8964261708664
30
0
0
VERTEX
8
0
10
48.9951504926018
20
41.3844414605323
30
0
0
VERTEX
8
0
10
49.7853948553857
20
41.8726546683021
30
0
0
VERTEX
8
0
10
50.5756392181696
20
42.3910343243904
30
0
0
VERTEX
8
0
10
51.3658835809535
20
42.90492762154
30
0
0
VERTEX
8
0
10
52.1561279437374
20
43.4178868139848
30
0
0
VERTEX
8
0
10
52.9463723065213
20
43.9399667884131
30
0
0
VERTEX
8
0
10
53.7366166693052
20
44.4060286473343
30
0
0
VERTEX
8
0
10
54.5268610320891
20
44.9114279894047
30
0
0
VERTEX
8
0
10
55.3171053948729
20
45.3701927889965
30
0
0
VERTEX
8
0
10
56.1073497576568
20
45.8721234366359
30
0
0
VERTEX
8
0
10
56.8975941204407
20
46.3718827582361
30
0
0
VERTEX
8
0
10
57.6878384832246
20
46.8699957053846
30
0
0
VERTEX
8
0
10
58.4780828460085
20
47.3683562450542
30
0
0
VERTEX
8
0
10
59.2683272087924
20
47.8644792255993
30
0
0
VERTEX
8
0
10
60.0585715715763
20
48.3597894339333
30
0
0
VERTEX
8
0
10
60.8488159343602
20
48.8649395695493
30
0
0
VERTEX
8
0
10
61.6390602971441
20
49.3057046732264
30
0
0
VERTEX
8
0
10
62.429304659928
20
49.7917262217287
30
0
0
VERTEX
8
0
10
63.2195490227119
20
50.2260567201969
30
0
0
VERTEX
8
0
10
64.0097933854958
20
50.7028732815301
30
0
0
VERTEX
8
0
10
64.8000377482797
20
51.1764146169173
30
0
0
VERTEX
8
0
10
65.5902821110636
20
51.6467423360809
30
0
0
VERTEX
8
0
10
66.3805264738475
20
52.1081162373676
30
0
0
VERTEX
8
0
10
67.1707708366314
20
52.5670319778142
30
0
0
VERTEX
8
0
10
67.9610151994153
20
53.0217168003718
30
0
0
VERTEX
8
0
10
68.7512595621992
20
53.4128925838699
30
0
0
VERTEX
8
0
10
69.5415039249831
20
53.8338702453647
30
0
0
VERTEX
8
0
10
70.331748287767
20
54.2518735433658
30
0
0
VERTEX
8
0
10
71.1219926505509
20
54.6289563755239
30
0
0
VERTEX
8
0
10
71.9122370133348
20
55.011964627782
30
0
0
VERTEX
8
0
10
72.7024813761187
20
55.3986165403985
30
0
0
VERTEX
8
0
10
73.4927257389026
20
55.7871324391984
30
0
0
VERTEX
8
0
10
74.2829701016865
20
56.191988648632
30
0
0
VERTEX
8
0
10
75.0732144644704
20
56.5935659487775
30
0
0
VERTEX
8
0
10
75.8634588272543
20
56.9905114755527
30
0
0
VERTEX
8
0
10
76.6537031900382
20
57.3283703812125
30
0
0
VERTEX
8
0
10
77.4439475528221
20
57.6988964203482
30
0
0
VERTEX
8
0
10
78.234191915606
20
58.065940404642
30
0
0
VERTEX
8
0
10
79.0244362783899
20
58.3931134542026
30
0
0
VERTEX
8
0
10
79.8146806411738
20
58.7394786369968
30
0
0
VERTEX
8
0
10
80.6049250039577
20
59.0861859476082
30
0
0
VERTEX
8
0
10
81.3951693667416
20
59.4266023455171
30
0
0
VERTEX
8
0
10
82.1854137295255
20
59.7367627582223
30
0
0
VERTEX
8
0
10
82.9756580923094
20
60.0426677303077
30
0
0
VERTEX
8
0
10
83.7659024550933
20
60.3422331529415
30
0
0
VERTEX
8
0
10
84.5561468178772
20
60.5786739954253
30
0
0
VERTEX
8
0
10
85.3463911806611
20
60.8362598590542
30
0
0
VERTEX
8
0
10
86.136635543445
20
61.0897592943407
30
0
0
VERTEX
8
0
10
86.9268799062288
20
61.3159706385555
30
0
0
VERTEX
8
0
10
87.7171242690127
20
61.5596146433868
30
0
0
VERTEX
8
0
10
88.5073686317966
20
61.8004626689347
30
0
0
VERTEX
8
0
10
89.2976129945805
20
62.0395195274973
30
0
0
VERTEX
8
0
10
90.0878573573644
20
62.2802526595948
30
0
0
VERTEX
8
0
10
90.8781017201483
20
62.5178928261707
30
0
0
VERTEX
8
0
10
91.6683460829322
20
62.7494471438027
30
0
0
VERTEX
8
0
10
92.4585904457161
20
62.9297047896864
30
0
0
VERTEX
8
0
10
93.2488348085
20
63.1308371429906
30
0
0
VERTEX
8
0
10
94.0390791712839
20
63.3022142297552
30
0
0
VERTEX
8
0
10
94.8293235340678
20
63.5022234567635
30
0
0
VERTEX
8
0
10
95.6195678968517
20
63.6697117168396
30
0
0
VERTEX
8
0
10
96.4098122596356
20
63.8358654978386
30
0
0
VERTEX
8
0
10
97.2000566224195
20
63.997653106754
30
0
0
VERTEX
8
0
10
97.9903009852034
20
64.1409467425541
30
0
0
VERTEX
8
0
10
98.7805453479873
20
64.2799701615363
30
0
0
VERTEX
8
0
10
99.5707897107712
20
64.4113469899186
30
0
0
VERTEX
8
0
10
100.361034073555
20
64.4994485480195
30
0
0
VERTEX
8
0
10
101.151278436339
20
64.5910272272993
30
0
0
VERTEX
8
0
10
101.941522799123
20
64.6708197131643
30
0
0
VERTEX
8
0
10
102.731767161907
20
64.7588600125013
30
0
0
VERTEX
8
0
10
103.522011524691
20
64.846388888548
30
0
0
VERTEX
8
0
10
104.312255887475
20
64.9309946941075
30
0
0
VERTEX
8
0
10
105.102500250258
20
65.0153167459594
30
0
0
VERTEX
8
0
10
105.892744613042
20
65.1065082628431
30
0
0
VERTEX
8
0
10
106.682988975826
20
65.1962225376492
30
0
0
VERTEX
8
0
10
107.47323333861
20
65.2728470272935
30
0
0
VERTEX
8
0
10
108.263477701394
20
65.3622329629505
30
0
0
VERTEX
8
0
10
109.053722064178
20
65.4531828991651
30
0
0
VERTEX
8
0
10
109.843966426962
20
65.5309996956113
30
0
0
VERTEX
8
0
10
110.634210789746
20
65.6193056146496
30
0
0
VERTEX
8
0
10
111.42445515253
20
65.6807966623802
30
0
0
VERTEX
8
0
10
112.214699515314
20
65.7397348643158
30
0
0
VERTEX
8
0
10
113.004943878097
20
65.7991237275052
30
0
0
VERTEX
8
0
10
113.795188240881
20
65.8565927037617
30
0
0
VERTEX
8
0
10
114.585432603665
20
65.9121052023789
30
0
0
VERTEX
8
0
10
115.375676966449
20
65.9571138947641
30
0
0
VERTEX
8
0
10
116.165921329233
20
66.0031355780833
30
0
0
VERTEX
8
0
10
116.956165692017
20
66.0455777416959
30
0
0
VERTEX
8
0
10
117.746410054801
20
66.0821059103599
30
0
0
VERTEX
8
0
10
118.536654417585
20
66.1216887378377
30
0
0
VERTEX
8
0
10
119.326898780369
20
66.1540499243763
30
0
0
VERTEX
8
0
10
120.117143143153
20
66.1845979121456
30
0
0
VERTEX
8
0
10
120.907387505936
20
66.2118902617165
30
0
0
VERTEX
8
0
10
121.69763186872
20
66.2307375150254
30
0
0
VERTEX
8
0
10
122.487876231504
20
66.2469604420367
30
0
0
VERTEX
8
0
10
123.278120594288
20
66.2621632839714
30
0
0
VERTEX
8
0
10
124.068364957072
20
66.2767618819182
30
0
0
VERTEX
8
0
10
124.858609319856
20
66.2907875863883
30
0
0
VERTEX
8
0
10
125.64885368264
20
66.3042675668941
30
0
0
VERTEX
8
0
10
126.439098045424
20
66.3172389913345
30
0
0
VERTEX
8
0
10
127.229342408208
20
66.3297454072353
30
0
0
VERTEX
8
0
10
128.019586770992
20
66.3418307899544
30
0
0
VERTEX
8
0
10
128.809831133775
20
66.3535377619148
30
0
0
VERTEX
8
0
10
129.600075496559
20
66.3649072606552
30
0
0
VERTEX
8
0
10
130.390319859343
20
66.3759786395376
30
0
0
VERTEX
8
0
10
131.180564222127
20
66.3867898988808
30
0
0
VERTEX
8
0
10
131.970808584911
20
66.3973779532575
30
0
0
VERTEX
8
0
10
132.761052947695
20
66.4077789019639
30
0
0
VERTEX
8
0
10
133.551297310479
20
66.4180282864658
30
0
0
VERTEX
8
0
10
134.341541673263
20
66.4281613165612
30
0
0
VERTEX
8
0
10
135.131786036047
20
66.4382130272109
30
0
0
VERTEX
8
0
10
135.922030398831
20
66.4482182727914
30
0
0
VERTEX
8
0
10
136.712274761615
20
66.4582113138695
30
0
0
VERTEX
8
0
10
137.502519124398
20
66.4682242995862
30
0
0
VERTEX
8
0
10
138.292763487182
20
66.4782824993201
30
0
0
VERTEX
8
0
10
139.083007849966
20
66.4883895375397
30
0
0
VERTEX
8
0
10
139.87325221275
20
66.4984851916896
30
0
0
VERTEX
8
0
10
140.663496575534
20
66.5083850023267
30
0
0
VERTEX
8
0
10
141.453740938318
20
66.5183979102844
30
0
0
VERTEX
8
0
10
142.243985301102
20
66.5329626990853
30
0
0
VERTEX
8
0
10
143.034229663886
20
66.5636690256368
30
0
0
VERTEX
8
0
10
143.82447402667
20
66.5962754143009
30
0
0
VERTEX
8
0
10
144.614718389454
20
66.6327926505547
30
0
0
VERTEX
8
0
10
145.404962752238
20
66.6850777764602
30
0
0
VERTEX
8
0
10
146.195207115022
20
66.726833834102
30
0
0
VERTEX
8
0
10
146.985451477805
20
66.7780469018364
30
0
0
VERTEX
8
0
10
147.775695840589
20
66.8284846266897
30
0
0
VERTEX
8
0
10
148.565940203373
20
66.8672141495485
30
0
0
VERTEX
8
0
10
149.356184566157
20
66.9199337762592
30
0
0
VERTEX
8
0
10
150.146428928941
20
66.9720236245275
30
0
0
VERTEX
8
0
10
150.936673291725
20
67.0234555389356
30
0
0
VERTEX
8
0
10
151.726917654509
20
67.0742378466778
30
0
0
VERTEX
8
0
10
152.517162017293
20
67.1244870780392
30
0
0
VERTEX
8
0
10
153.307406380077
20
67.1744665404476
30
0
0
VERTEX
8
0
10
154.097650742861
20
67.2093314427907
30
0
0
VERTEX
8
0
10
154.887895105645
20
67.244574365381
30
0
0
SEQEND
8
0
0
ENDSEC
0
EOF
