0
SECTION
2
HEADER
9
$ACADVER
1
AC1009
0
ENDSEC
0
SECTION
2
ENTITIES
0
POLYLINE
8
0
62
0
70
1
10
0
20
0
30
0
0
VERTEX
8
0
10
0
20
0
30
0
0
VERTEX
8
0
10
0
20
117.625
30
0
0
VERTEX
8
0
10
179.2
20
117.625
30
0
0
VERTEX
8
0
10
179.2
20
0
30
0
0
SEQEND
8
0
0
TEXT
8
0
62
0
10
0
20
-12
30
0
40
8
1
0
50
0
0
LINE
8
0
62
0
10
7.55488569651872
20
0
30
0
11
7.55488569651872
21
3.2
31
0
0
LINE
8
0
62
0
10
7.55488569651872
20
117.625
30
0
11
7.55488569651872
21
114.425
31
0
0
LINE
8
0
62
0
10
15.1097713930374
20
0
30
0
11
15.1097713930374
21
3.2
31
0
0
LINE
8
0
62
0
10
15.1097713930374
20
117.625
30
0
11
15.1097713930374
21
114.425
31
0
0
LINE
8
0
62
0
10
22.6646570895562
20
0
30
0
11
22.6646570895562
21
3.2
31
0
0
LINE
8
0
62
0
10
22.6646570895562
20
117.625
30
0
11
22.6646570895562
21
114.425
31
0
0
LINE
8
0
62
0
10
30.2195427860749
20
0
30
0
11
30.2195427860749
21
3.2
31
0
0
LINE
8
0
62
0
10
30.2195427860749
20
117.625
30
0
11
30.2195427860749
21
114.425
31
0
0
LINE
8
0
62
0
10
37.7744284825936
20
0
30
0
11
37.7744284825936
21
6.4
31
0
0
LINE
8
0
62
0
10
37.7744284825936
20
117.625
30
0
11
37.7744284825936
21
111.225
31
0
0
TEXT
8
0
62
0
10
37.7744284825936
20
-12
30
0
40
8
1
0.2
50
0
0
LINE
8
0
62
0
10
45.3293141791123
20
0
30
0
11
45.3293141791123
21
3.2
31
0
0
LINE
8
0
62
0
10
45.3293141791123
20
117.625
30
0
11
45.3293141791123
21
114.425
31
0
0
LINE
8
0
62
0
10
52.8841998756311
20
0
30
0
11
52.8841998756311
21
3.2
31
0
0
LINE
8
0
62
0
10
52.8841998756311
20
117.625
30
0
11
52.8841998756311
21
114.425
31
0
0
LINE
8
0
62
0
10
60.4390855721498
20
0
30
0
11
60.4390855721498
21
3.2
31
0
0
LINE
8
0
62
0
10
60.4390855721498
20
117.625
30
0
11
60.4390855721498
21
114.425
31
0
0
LINE
8
0
62
0
10
67.9939712686685
20
0
30
0
11
67.9939712686685
21
3.2
31
0
0
LINE
8
0
62
0
10
67.9939712686685
20
117.625
30
0
11
67.9939712686685
21
114.425
31
0
0
LINE
8
0
62
0
10
75.5488569651872
20
0
30
0
11
75.5488569651872
21
6.4
31
0
0
LINE
8
0
62
0
10
75.5488569651872
20
117.625
30
0
11
75.5488569651872
21
111.225
31
0
0
TEXT
8
0
62
0
10
75.5488569651872
20
-12
30
0
40
8
1
0.4
50
0
0
LINE
8
0
62
0
10
83.103742661706
20
0
30
0
11
83.103742661706
21
3.2
31
0
0
LINE
8
0
62
0
10
83.103742661706
20
117.625
30
0
11
83.103742661706
21
114.425
31
0
0
LINE
8
0
62
0
10
90.6586283582247
20
0
30
0
11
90.6586283582247
21
3.2
31
0
0
LINE
8
0
62
0
10
90.6586283582247
20
117.625
30
0
11
90.6586283582247
21
114.425
31
0
0
LINE
8
0
62
0
10
98.2135140547434
20
0
30
0
11
98.2135140547434
21
3.2
31
0
0
LINE
8
0
62
0
10
98.2135140547434
20
117.625
30
0
11
98.2135140547434
21
114.425
31
0
0
LINE
8
0
62
0
10
105.768399751262
20
0
30
0
11
105.768399751262
21
3.2
31
0
0
LINE
8
0
62
0
10
105.768399751262
20
117.625
30
0
11
105.768399751262
21
114.425
31
0
0
LINE
8
0
62
0
10
113.323285447781
20
0
30
0
11
113.323285447781
21
6.4
31
0
0
LINE
8
0
62
0
10
113.323285447781
20
117.625
30
0
11
113.323285447781
21
111.225
31
0
0
TEXT
8
0
62
0
10
113.323285447781
20
-12
30
0
40
8
1
0.6
50
0
0
LINE
8
0
62
0
10
120.8781711443
20
0
30
0
11
120.8781711443
21
3.2
31
0
0
LINE
8
0
62
0
10
120.8781711443
20
117.625
30
0
11
120.8781711443
21
114.425
31
0
0
LINE
8
0
62
0
10
128.433056840818
20
0
30
0
11
128.433056840818
21
3.2
31
0
0
LINE
8
0
62
0
10
128.433056840818
20
117.625
30
0
11
128.433056840818
21
114.425
31
0
0
LINE
8
0
62
0
10
135.987942537337
20
0
30
0
11
135.987942537337
21
3.2
31
0
0
LINE
8
0
62
0
10
135.987942537337
20
117.625
30
0
11
135.987942537337
21
114.425
31
0
0
LINE
8
0
62
0
10
143.542828233856
20
0
30
0
11
143.542828233856
21
3.2
31
0
0
LINE
8
0
62
0
10
143.542828233856
20
117.625
30
0
11
143.542828233856
21
114.425
31
0
0
LINE
8
0
62
0
10
151.097713930375
20
0
30
0
11
151.097713930375
21
6.4
31
0
0
LINE
8
0
62
0
10
151.097713930375
20
117.625
30
0
11
151.097713930375
21
111.225
31
0
0
TEXT
8
0
62
0
10
151.097713930375
20
-12
30
0
40
8
1
0.8
50
0
0
LINE
8
0
62
0
10
158.652599626893
20
0
30
0
11
158.652599626893
21
3.2
31
0
0
LINE
8
0
62
0
10
158.652599626893
20
117.625
30
0
11
158.652599626893
21
114.425
31
0
0
LINE
8
0
62
0
10
166.207485323412
20
0
30
0
11
166.207485323412
21
3.2
31
0
0
LINE
8
0
62
0
10
166.207485323412
20
117.625
30
0
11
166.207485323412
21
114.425
31
0
0
LINE
8
0
62
0
10
173.762371019931
20
0
30
0
11
173.762371019931
21
3.2
31
0
0
LINE
8
0
62
0
10
173.762371019931
20
117.625
30
0
11
173.762371019931
21
114.425
31
0
0
TEXT
8
0
62
0
10
-4
20
-4
30
0
40
8
1
0
50
0
0
LINE
8
0
62
0
10
0
20
4.705
30
0
11
3.2
21
4.705
31
0
0
LINE
8
0
62
0
10
179.2
20
4.705
30
0
11
176
21
4.705
31
0
0
LINE
8
0
62
0
10
0
20
9.41
30
0
11
3.2
21
9.41
31
0
0
LINE
8
0
62
0
10
179.2
20
9.41
30
0
11
176
21
9.41
31
0
0
LINE
8
0
62
0
10
0
20
14.115
30
0
11
3.2
21
14.115
31
0
0
LINE
8
0
62
0
10
179.2
20
14.115
30
0
11
176
21
14.115
31
0
0
LINE
8
0
62
0
10
0
20
18.82
30
0
11
3.2
21
18.82
31
0
0
LINE
8
0
62
0
10
179.2
20
18.82
30
0
11
176
21
18.82
31
0
0
LINE
8
0
62
0
10
0
20
23.525
30
0
11
6.4
21
23.525
31
0
0
LINE
8
0
62
0
10
179.2
20
23.525
30
0
11
172.8
21
23.525
31
0
0
TEXT
8
0
62
0
10
-4
20
19.525
30
0
40
8
1
10
50
0
0
LINE
8
0
62
0
10
0
20
28.23
30
0
11
3.2
21
28.23
31
0
0
LINE
8
0
62
0
10
179.2
20
28.23
30
0
11
176
21
28.23
31
0
0
LINE
8
0
62
0
10
0
20
32.935
30
0
11
3.2
21
32.935
31
0
0
LINE
8
0
62
0
10
179.2
20
32.935
30
0
11
176
21
32.935
31
0
0
LINE
8
0
62
0
10
0
20
37.64
30
0
11
3.2
21
37.64
31
0
0
LINE
8
0
62
0
10
179.2
20
37.64
30
0
11
176
21
37.64
31
0
0
LINE
8
0
62
0
10
0
20
42.345
30
0
11
3.2
21
42.345
31
0
0
LINE
8
0
62
0
10
179.2
20
42.345
30
0
11
176
21
42.345
31
0
0
LINE
8
0
62
0
10
0
20
47.05
30
0
11
6.4
21
47.05
31
0
0
LINE
8
0
62
0
10
179.2
20
47.05
30
0
11
172.8
21
47.05
31
0
0
TEXT
8
0
62
0
10
-4
20
43.05
30
0
40
8
1
20
50
0
0
LINE
8
0
62
0
10
0
20
51.755
30
0
11
3.2
21
51.755
31
0
0
LINE
8
0
62
0
10
179.2
20
51.755
30
0
11
176
21
51.755
31
0
0
LINE
8
0
62
0
10
0
20
56.46
30
0
11
3.2
21
56.46
31
0
0
LINE
8
0
62
0
10
179.2
20
56.46
30
0
11
176
21
56.46
31
0
0
LINE
8
0
62
0
10
0
20
61.165
30
0
11
3.2
21
61.165
31
0
0
LINE
8
0
62
0
10
179.2
20
61.165
30
0
11
176
21
61.165
31
0
0
LINE
8
0
62
0
10
0
20
65.87
30
0
11
3.2
21
65.87
31
0
0
LINE
8
0
62
0
10
179.2
20
65.87
30
0
11
176
21
65.87
31
0
0
LINE
8
0
62
0
10
0
20
70.575
30
0
11
6.4
21
70.575
31
0
0
LINE
8
0
62
0
10
179.2
20
70.575
30
0
11
172.8
21
70.575
31
0
0
TEXT
8
0
62
0
10
-4
20
66.575
30
0
40
8
1
30
50
0
0
LINE
8
0
62
0
10
0
20
75.28
30
0
11
3.2
21
75.28
31
0
0
LINE
8
0
62
0
10
179.2
20
75.28
30
0
11
176
21
75.28
31
0
0
LINE
8
0
62
0
10
0
20
79.985
30
0
11
3.2
21
79.985
31
0
0
LINE
8
0
62
0
10
179.2
20
79.985
30
0
11
176
21
79.985
31
0
0
LINE
8
0
62
0
10
0
20
84.69
30
0
11
3.2
21
84.69
31
0
0
LINE
8
0
62
0
10
179.2
20
84.69
30
0
11
176
21
84.69
31
0
0
LINE
8
0
62
0
10
0
20
89.395
30
0
11
3.2
21
89.395
31
0
0
LINE
8
0
62
0
10
179.2
20
89.395
30
0
11
176
21
89.395
31
0
0
LINE
8
0
62
0
10
0
20
94.1
30
0
11
6.4
21
94.1
31
0
0
LINE
8
0
62
0
10
179.2
20
94.1
30
0
11
172.8
21
94.1
31
0
0
TEXT
8
0
62
0
10
-4
20
90.1
30
0
40
8
1
40
50
0
0
LINE
8
0
62
0
10
0
20
98.805
30
0
11
3.2
21
98.805
31
0
0
LINE
8
0
62
0
10
179.2
20
98.805
30
0
11
176
21
98.805
31
0
0
LINE
8
0
62
0
10
0
20
103.51
30
0
11
3.2
21
103.51
31
0
0
LINE
8
0
62
0
10
179.2
20
103.51
30
0
11
176
21
103.51
31
0
0
LINE
8
0
62
0
10
0
20
108.215
30
0
11
3.2
21
108.215
31
0
0
LINE
8
0
62
0
10
179.2
20
108.215
30
0
11
176
21
108.215
31
0
0
LINE
8
0
62
0
10
0
20
112.92
30
0
11
3.2
21
112.92
31
0
0
LINE
8
0
62
0
10
179.2
20
112.92
30
0
11
176
21
112.92
31
0
0
TEXT
8
0
62
0
10
-4
20
113.625
30
0
40
8
1
50
50
0
0
TEXT
8
0
62
0
10
89.6
20
-32
30
0
40
10
1
R (kpc)
50
0
0
TEXT
8
0
62
0
10
-24
20
58.8125
30
0
40
10
1
V (km/s)
50
90
0
TEXT
8
0
62
0
10
72.6
20
132.625
30
0
40
11
1
V vs. R
50
0
0
POLYLINE
8
0
62
5
70
0
10
0
20
0
30
0
0
VERTEX
8
0
10
41.551871330853
20
26.7206891036457
30
0
0
VERTEX
8
0
10
43.4405927549827
20
27.4911517589737
30
0
0
VERTEX
8
0
10
45.3293141791123
20
28.2895447224928
30
0
0
VERTEX
8
0
10
47.218035603242
20
29.091185900522
30
0
0
VERTEX
8
0
10
49.1067570273717
20
29.8694919269289
30
0
0
VERTEX
8
0
10
50.9954784515014
20
30.6897763526633
30
0
0
VERTEX
8
0
10
52.8841998756311
20
31.4961094346096
30
0
0
VERTEX
8
0
10
54.7729212997608
20
32.2977506126388
30
0
0
VERTEX
8
0
10
56.6616427238904
20
33.0385889530738
30
0
0
VERTEX
8
0
10
58.5503641480201
20
33.8215603216384
30
0
0
VERTEX
8
0
10
60.4390855721498
20
34.6154423821441
30
0
0
VERTEX
8
0
10
62.3278069962795
20
35.4170835601733
30
0
0
VERTEX
8
0
10
64.2165284204092
20
36.1757238575815
30
0
0
VERTEX
8
0
10
66.1052498445388
20
36.9768274685379
30
0
0
VERTEX
8
0
10
67.9939712686685
20
37.7940574999625
30
0
0
VERTEX
8
0
10
69.8826926927982
20
38.5807606420199
30
0
0
VERTEX
8
0
10
71.7714141169279
20
39.3816735680281
30
0
0
VERTEX
8
0
10
73.6601355410576
20
40.175401137105
30
0
0
VERTEX
8
0
10
75.5488569651873
20
40.961453189771
30
0
0
VERTEX
8
0
10
77.4375783893169
20
41.6610811264683
30
0
0
VERTEX
8
0
10
79.3262998134466
20
41.9429563621702
30
0
0
VERTEX
8
0
10
81.2150212375763
20
42.0506181262023
30
0
0
VERTEX
8
0
10
83.103742661706
20
42.0150487489485
30
0
0
VERTEX
8
0
10
84.9924640858357
20
42.1203499366059
30
0
0
VERTEX
8
0
10
86.8811855099654
20
42.2036875445535
30
0
0
VERTEX
8
0
10
88.769906934095
20
42.256743794308
30
0
0
VERTEX
8
0
10
90.6586283582247
20
42.2488335152936
30
0
0
VERTEX
8
0
10
92.5473497823544
20
42.2472809149768
30
0
0
VERTEX
8
0
10
94.4360712064841
20
42.2457283146601
30
0
0
VERTEX
8
0
10
96.3247926306138
20
42.3986136365712
30
0
0
VERTEX
8
0
10
98.2135140547435
20
42.4565738147238
30
0
0
VERTEX
8
0
10
100.102235478873
20
42.481065681322
30
0
0
VERTEX
8
0
10
101.990956903003
20
42.4795130810052
30
0
0
VERTEX
8
0
10
103.879678327132
20
42.4779604806884
30
0
0
VERTEX
8
0
10
105.768399751262
20
42.5614150570424
30
0
0
VERTEX
8
0
10
107.657121175392
20
42.6768773365366
30
0
0
VERTEX
8
0
10
109.545842599522
20
42.7094600848941
30
0
0
VERTEX
8
0
10
111.434564023651
20
42.7117452470335
30
0
0
VERTEX
8
0
10
113.323285447781
20
42.7101926467167
30
0
0
VERTEX
8
0
10
115.212006871911
20
42.7086400463999
30
0
0
VERTEX
8
0
10
117.10072829604
20
42.777804971798
30
0
0
VERTEX
8
0
10
118.98944972017
20
42.746946216463
30
0
0
VERTEX
8
0
10
120.8781711443
20
42.6829794167414
30
0
0
VERTEX
8
0
10
122.766892568429
20
42.5251614985689
30
0
0
VERTEX
8
0
10
124.655613992559
20
42.4422209885253
30
0
0
VERTEX
8
0
10
126.544335416689
20
42.3331532962321
30
0
0
VERTEX
8
0
10
128.433056840818
20
42.1989653132117
30
0
0
VERTEX
8
0
10
130.321778264948
20
42.0825963292473
30
0
0
VERTEX
8
0
10
132.210499689078
20
41.9930246992643
30
0
0
VERTEX
8
0
10
134.099221113207
20
41.9134536688014
30
0
0
VERTEX
8
0
10
135.987942537337
20
41.7394047863392
30
0
0
VERTEX
8
0
10
137.876663961467
20
41.6339560176829
30
0
0
VERTEX
8
0
10
139.765385385596
20
41.5438284100033
30
0
0
VERTEX
8
0
10
141.654106809726
20
41.4642573795404
30
0
0
VERTEX
8
0
10
143.542828233856
20
41.285919317136
30
0
0
VERTEX
8
0
10
145.431549657986
20
41.1792407229363
30
0
0
VERTEX
8
0
10
147.320271082115
20
41.0918674749644
30
0
0
VERTEX
8
0
10
149.208992506245
20
41.0044942269924
30
0
0
VERTEX
8
0
10
151.097713930375
20
40.8425200630147
30
0
0
VERTEX
8
0
10
152.986435354504
20
40.7250068619443
30
0
0
VERTEX
8
0
10
154.875156778634
20
40.6454358314814
30
0
0
SEQEND
8
0
0
POLYLINE
8
0
62
6
70
0
10
0
20
0
30
0
0
VERTEX
8
0
10
41.551871330853
20
8.46584538715632
30
0
0
VERTEX
8
0
10
43.4405927549827
20
8.83868649479433
30
0
0
VERTEX
8
0
10
45.3293141791123
20
9.23272940508826
30
0
0
VERTEX
8
0
10
47.218035603242
20
9.63292365843116
30
0
0
VERTEX
8
0
10
49.1067570273717
20
10.0369571641199
30
0
0
VERTEX
8
0
10
50.9954784515014
20
10.4496388902167
30
0
0
VERTEX
8
0
10
52.8841998756311
20
10.8448509205635
30
0
0
VERTEX
8
0
10
54.7729212997608
20
11.2332883633051
30
0
0
VERTEX
8
0
10
56.6616427238904
20
11.65241414855
30
0
0
VERTEX
8
0
10
58.5503641480201
20
12.0571246925634
30
0
0
VERTEX
8
0
10
60.4390855721498
20
12.4571456917284
30
0
0
VERTEX
8
0
10
62.3278069962795
20
12.8533811999627
30
0
0
VERTEX
8
0
10
64.2165284204092
20
13.267020841989
30
0
0
VERTEX
8
0
10
66.1052498445388
20
13.6620714453522
30
0
0
VERTEX
8
0
10
67.9939712686685
20
14.0505088880938
30
0
0
VERTEX
8
0
10
69.8826926927982
20
14.4492296770529
30
0
0
VERTEX
8
0
10
71.7714141169279
20
14.8598148374386
30
0
0
VERTEX
8
0
10
73.6601355410576
20
15.2635135818279
30
0
0
VERTEX
8
0
10
75.5488569651873
20
15.6597490900621
30
0
0
VERTEX
8
0
10
77.4375783893169
20
16.0559845982964
30
0
0
VERTEX
8
0
10
79.3262998134466
20
16.4409248340765
30
0
0
VERTEX
8
0
10
81.2150212375763
20
16.8215641432864
30
0
0
VERTEX
8
0
10
83.103742661706
20
17.2022034524962
30
0
0
VERTEX
8
0
10
84.9924640858357
20
17.5756136206367
30
0
0
VERTEX
8
0
10
86.8811855099654
20
17.9484547282747
30
0
0
VERTEX
8
0
10
88.769906934095
20
18.3212958359127
30
0
0
VERTEX
8
0
10
90.6586283582247
20
18.6941369435507
30
0
0
VERTEX
8
0
10
92.5473497823544
20
19.0726803806053
30
0
0
VERTEX
8
0
10
94.4360712064841
20
19.4533196898151
30
0
0
VERTEX
8
0
10
96.3247926306138
20
19.8339589990249
30
0
0
VERTEX
8
0
10
98.2135140547435
20
20.2073145478908
30
0
0
VERTEX
8
0
10
100.102235478873
20
20.5801556555288
30
0
0
VERTEX
8
0
10
101.990956903003
20
20.9529967631668
30
0
0
VERTEX
8
0
10
103.879678327132
20
21.3258378708048
30
0
0
VERTEX
8
0
10
105.768399751262
20
21.704435927134
30
0
0
VERTEX
8
0
10
107.657121175392
20
22.0850752363438
30
0
0
VERTEX
8
0
10
109.545842599522
20
22.4657145455536
30
0
0
VERTEX
8
0
10
111.434564023651
20
22.8390154751448
30
0
0
VERTEX
8
0
10
113.323285447781
20
23.2118565827828
30
0
0
VERTEX
8
0
10
115.212006871911
20
23.5846976904208
30
0
0
VERTEX
8
0
10
117.10072829604
20
23.9575387980589
30
0
0
VERTEX
8
0
10
118.98944972017
20
24.2838855364586
30
0
0
VERTEX
8
0
10
120.8781711443
20
24.594338581975
30
0
0
VERTEX
8
0
10
122.766892568429
20
24.87328344109
30
0
0
VERTEX
8
0
10
124.655613992559
20
25.1751291915994
30
0
0
VERTEX
8
0
10
126.544335416689
20
25.4734969605797
30
0
0
VERTEX
8
0
10
128.433056840818
20
25.7683523101033
30
0
0
VERTEX
8
0
10
130.321778264948
20
26.0542303698284
30
0
0
VERTEX
8
0
10
132.210499689078
20
26.3412867692813
30
0
0
VERTEX
8
0
10
134.099221113207
20
26.6283431687342
30
0
0
VERTEX
8
0
10
135.987942537337
20
26.936519505172
30
0
0
VERTEX
8
0
10
137.876663961467
20
27.2317219949975
30
0
0
VERTEX
8
0
10
139.765385385596
20
27.5222336980197
30
0
0
VERTEX
8
0
10
141.654106809726
20
27.8092900974726
30
0
0
VERTEX
8
0
10
143.542828233856
20
28.0963464969255
30
0
0
VERTEX
8
0
10
145.431549657986
20
28.4011818550458
30
0
0
VERTEX
8
0
10
147.320271082115
20
28.7116349005622
30
0
0
VERTEX
8
0
10
149.208992506245
20
28.9902370262109
30
0
0
VERTEX
8
0
10
151.097713930375
20
29.2772934256638
30
0
0
VERTEX
8
0
10
152.986435354504
20
29.577552231785
30
0
0
VERTEX
8
0
10
154.875156778634
20
29.8880052773014
30
0
0
SEQEND
8
0
0
POLYLINE
8
0
62
6
70
0
10
0
20
0
30
0
0
VERTEX
8
0
10
41.551871330853
20
37.0029201265321
30
0
0
VERTEX
8
0
10
43.4405927549827
20
38.3344297926464
30
0
0
VERTEX
8
0
10
45.3293141791123
20
39.7372388388501
30
0
0
VERTEX
8
0
10
47.218035603242
20
41.131065317575
30
0
0
VERTEX
8
0
10
49.1067570273717
20
42.5248917963
30
0
0
VERTEX
8
0
10
50.9954784515014
20
43.9082388428013
30
0
0
VERTEX
8
0
10
52.8841998756311
20
45.2869074547421
30
0
0
VERTEX
8
0
10
54.7729212997608
20
46.6736701604022
30
0
0
VERTEX
8
0
10
56.6616427238904
20
48.0674966391272
30
0
0
VERTEX
8
0
10
58.5503641480201
20
49.4523873023743
30
0
0
VERTEX
8
0
10
60.4390855721498
20
50.8267746209812
30
0
0
VERTEX
8
0
10
62.3278069962795
20
52.1972328044345
30
0
0
VERTEX
8
0
10
64.2165284204092
20
53.609704320318
30
0
0
VERTEX
8
0
10
66.1052498445388
20
54.9965357619474
30
0
0
VERTEX
8
0
10
67.9939712686685
20
56.3782916343014
30
0
0
VERTEX
8
0
10
69.8826926927982
20
57.7565393174377
30
0
0
VERTEX
8
0
10
71.7714141169279
20
59.1527063247816
30
0
0
VERTEX
8
0
10
73.6601355410576
20
60.5348355885332
30
0
0
VERTEX
8
0
10
75.5488569651873
20
61.9130832716696
30
0
0
VERTEX
8
0
10
77.4375783893169
20
63.2597491291544
30
0
0
VERTEX
8
0
10
79.3262998134466
20
64.3475926464225
30
0
0
VERTEX
8
0
10
81.2150212375763
20
65.3444381529993
30
0
0
VERTEX
8
0
10
83.103742661706
20
66.2785759166346
30
0
0
VERTEX
8
0
10
84.9924640858357
20
67.2576767884982
30
0
0
VERTEX
8
0
10
86.8811855099654
20
68.2190152941123
30
0
0
VERTEX
8
0
10
88.769906934095
20
69.1765327687195
30
0
0
VERTEX
8
0
10
90.6586283582247
20
70.1023522683409
30
0
0
VERTEX
8
0
10
92.5473497823544
20
71.0514025153281
30
0
0
VERTEX
8
0
10
94.4360712064841
20
71.9924341199028
30
0
0
VERTEX
8
0
10
96.3247926306138
20
72.9265718835381
30
0
0
VERTEX
8
0
10
98.2135140547435
20
73.878769298015
30
0
0
VERTEX
8
0
10
100.102235478873
20
74.8521727210024
30
0
0
VERTEX
8
0
10
101.990956903003
20
75.833069294814
30
0
0
VERTEX
8
0
10
103.879678327132
20
76.7609514053486
30
0
0
VERTEX
8
0
10
105.768399751262
20
77.7403480582022
30
0
0
VERTEX
8
0
10
107.657121175392
20
78.6993291155259
30
0
0
VERTEX
8
0
10
109.545842599522
20
79.6412601841274
30
0
0
VERTEX
8
0
10
111.434564023651
20
80.5922578394248
30
0
0
VERTEX
8
0
10
113.323285447781
20
81.5300686748772
30
0
0
VERTEX
8
0
10
115.212006871911
20
82.4642064385126
30
0
0
VERTEX
8
0
10
117.10072829604
20
83.4089844585338
30
0
0
VERTEX
8
0
10
118.98944972017
20
84.3735063306617
30
0
0
VERTEX
8
0
10
120.8781711443
20
85.3167151022151
30
0
0
VERTEX
8
0
10
122.766892568429
20
86.2430594929074
30
0
0
VERTEX
8
0
10
124.655613992559
20
87.1785079052717
30
0
0
VERTEX
8
0
10
126.544335416689
20
88.1246338818934
30
0
0
VERTEX
8
0
10
128.433056840818
20
89.0743581874853
30
0
0
VERTEX
8
0
10
130.321778264948
20
90.0027275204689
30
0
0
VERTEX
8
0
10
132.210499689078
20
90.9520006645803
30
0
0
VERTEX
8
0
10
134.099221113207
20
91.8928093720308
30
0
0
VERTEX
8
0
10
135.987942537337
20
92.8269471356662
30
0
0
VERTEX
8
0
10
137.876663961467
20
93.7793674472672
30
0
0
VERTEX
8
0
10
139.765385385596
20
94.7170289872281
30
0
0
VERTEX
8
0
10
141.654106809726
20
95.6511667508634
30
0
0
VERTEX
8
0
10
143.542828233856
20
96.606734229954
30
0
0
VERTEX
8
0
10
145.431549657986
20
97.5032226087576
30
0
0
VERTEX
8
0
10
147.320271082115
20
98.4253659831851
30
0
0
VERTEX
8
0
10
149.208992506245
20
99.3672970517867
30
0
0
VERTEX
8
0
10
151.097713930375
20
100.309228120388
30
0
0
VERTEX
8
0
10
152.986435354504
20
101.239021099133
30
0
0
VERTEX
8
0
10
154.875156778634
20
102.165365489825
30
0
0
SEQEND
8
0
0
POLYLINE
8
0
62
1
70
0
10
0
20
0
30
0
0
VERTEX
8
0
10
41.551871330853
20
28.0297300074926
30
0
0
VERTEX
8
0
10
43.4405927549827
20
28.8770809464562
30
0
0
VERTEX
8
0
10
45.3293141791123
20
29.7580515637953
30
0
0
VERTEX
8
0
10
47.218035603242
20
30.6445805209974
30
0
0
VERTEX
8
0
10
49.1067570273717
20
31.5107451052374
30
0
0
VERTEX
8
0
10
50.9954784515014
20
32.420014273785
30
0
0
VERTEX
8
0
10
52.8841998756311
20
33.3108946293274
30
0
0
VERTEX
8
0
10
54.7729212997608
20
34.1954889143199
30
0
0
VERTEX
8
0
10
56.6616427238904
20
35.0332287335823
30
0
0
VERTEX
8
0
10
58.5503641480201
20
35.9064367271698
30
0
0
VERTEX
8
0
10
60.4390855721498
20
36.7887119928992
30
0
0
VERTEX
8
0
10
62.3278069962795
20
37.6773037275739
30
0
0
VERTEX
8
0
10
64.2165284204092
20
38.5317640219308
30
0
0
VERTEX
8
0
10
66.1052498445388
20
39.4200198606739
30
0
0
VERTEX
8
0
10
67.9939712686685
20
40.3213043232095
30
0
0
VERTEX
8
0
10
69.8826926927982
20
41.1977587979863
30
0
0
VERTEX
8
0
10
71.7714141169279
20
42.091926898417
30
0
0
VERTEX
8
0
10
73.6601355410576
20
42.9771765404609
30
0
0
VERTEX
8
0
10
75.5488569651873
20
43.8528036615848
30
0
0
VERTEX
8
0
10
77.4375783893169
20
44.6479598867284
30
0
0
VERTEX
8
0
10
79.3262998134466
20
45.05014536934
30
0
0
VERTEX
8
0
10
81.2150212375763
20
45.2903908685098
30
0
0
VERTEX
8
0
10
83.103742661706
20
45.4002216404016
30
0
0
VERTEX
8
0
10
84.9924640858357
20
45.640180465507
30
0
0
VERTEX
8
0
10
86.8811855099654
20
45.8617299007705
30
0
0
VERTEX
8
0
10
88.769906934095
20
46.0575973885397
30
0
0
VERTEX
8
0
10
90.6586283582247
20
46.1999425266658
30
0
0
VERTEX
8
0
10
92.5473497823544
20
46.352992153794
30
0
0
VERTEX
8
0
10
94.4360712064841
20
46.509495888369
30
0
0
VERTEX
8
0
10
96.3247926306138
20
46.8084219759462
30
0
0
VERTEX
8
0
10
98.2135140547435
20
47.0201682400487
30
0
0
VERTEX
8
0
10
100.102235478873
20
47.2036412602522
30
0
0
VERTEX
8
0
10
101.990956903003
20
47.3659910163037
30
0
0
VERTEX
8
0
10
103.879678327132
20
47.530710992902
30
0
0
VERTEX
8
0
10
105.768399751262
20
47.7761089936476
30
0
0
VERTEX
8
0
10
107.657121175392
20
48.0527460962717
30
0
0
VERTEX
8
0
10
109.545842599522
20
48.2577072682225
30
0
0
VERTEX
8
0
10
111.434564023651
20
48.4346344047459
30
0
0
VERTEX
8
0
10
113.323285447781
20
48.6101927782572
30
0
0
VERTEX
8
0
10
115.212006871911
20
48.7879688013499
30
0
0
VERTEX
8
0
10
117.10072829604
20
49.0296263851325
30
0
0
VERTEX
8
0
10
118.98944972017
20
49.163080737287
30
0
0
VERTEX
8
0
10
120.8781711443
20
49.2617318227322
30
0
0
VERTEX
8
0
10
122.766892568429
20
49.2652980263001
30
0
0
VERTEX
8
0
10
124.655613992559
20
49.3470288087595
30
0
0
VERTEX
8
0
10
126.544335416689
20
49.4064258513298
30
0
0
VERTEX
8
0
10
128.433056840818
20
49.444520973342
30
0
0
VERTEX
8
0
10
130.321778264948
20
49.4951293964817
30
0
0
VERTEX
8
0
10
132.210499689078
20
49.5709341454701
30
0
0
VERTEX
8
0
10
134.099221113207
20
49.6568853066585
30
0
0
VERTEX
8
0
10
135.987942537337
20
49.6764933844005
30
0
0
VERTEX
8
0
10
137.876663961467
20
49.7488992490807
30
0
0
VERTEX
8
0
10
139.765385385596
20
49.8333525531667
30
0
0
VERTEX
8
0
10
141.654106809726
20
49.9263583266611
30
0
0
VERTEX
8
0
10
143.542828233856
20
49.9392813358018
30
0
0
VERTEX
8
0
10
145.431549657986
20
50.0235644199903
30
0
0
VERTEX
8
0
10
147.320271082115
20
50.1288295419234
30
0
0
VERTEX
8
0
10
149.208992506245
20
50.2175506137779
30
0
0
VERTEX
8
0
10
151.097713930375
20
50.2520781205134
30
0
0
VERTEX
8
0
10
152.986435354504
20
50.3324724201919
30
0
0
VERTEX
8
0
10
154.875156778634
20
50.4514054649329
30
0
0
SEQEND
8
0
0
POLYLINE
8
0
62
2
70
0
10
0
20
0
30
0
0
VERTEX
8
0
10
41.551871330853
20
27.991703472844
30
0
0
VERTEX
8
0
10
43.4405927549827
20
28.8745912828915
30
0
0
VERTEX
8
0
10
45.3293141791123
20
29.7722503337734
30
0
0
VERTEX
8
0
10
47.218035603242
20
30.6418466288341
30
0
0
VERTEX
8
0
10
49.1067570273717
20
31.5081801410978
30
0
0
VERTEX
8
0
10
50.9954784515014
20
32.4000484426726
30
0
0
VERTEX
8
0
10
52.8841998756311
20
33.3051751862584
30
0
0
VERTEX
8
0
10
54.7729212997608
20
34.2063315624693
30
0
0
VERTEX
8
0
10
56.6616427238904
20
35.0639681644572
30
0
0
VERTEX
8
0
10
58.5503641480201
20
35.9034388324351
30
0
0
VERTEX
8
0
10
60.4390855721498
20
36.7665888707474
30
0
0
VERTEX
8
0
10
62.3278069962795
20
37.6690364846853
30
0
0
VERTEX
8
0
10
64.2165284204092
20
38.5410601056794
30
0
0
VERTEX
8
0
10
66.1052498445388
20
39.4490816286344
30
0
0
VERTEX
8
0
10
67.9939712686685
20
40.3186089512993
30
0
0
VERTEX
8
0
10
69.8826926927982
20
41.174423952054
30
0
0
VERTEX
8
0
10
71.7714141169279
20
42.0834403510359
30
0
0
VERTEX
8
0
10
73.6601355410576
20
42.9869659730961
30
0
0
VERTEX
8
0
10
75.5488569651873
20
43.8832034164274
30
0
0
VERTEX
8
0
10
77.4375783893169
20
44.649050651631
30
0
0
VERTEX
8
0
10
79.3262998134466
20
45.0426463447687
30
0
0
VERTEX
8
0
10
81.2150212375763
20
45.2884342140893
30
0
0
VERTEX
8
0
10
83.103742661706
20
45.4071998562136
30
0
0
VERTEX
8
0
10
84.9924640858357
20
45.6521825369094
30
0
0
VERTEX
8
0
10
86.8811855099654
20
45.8630472912375
30
0
0
VERTEX
8
0
10
88.769906934095
20
46.0492602615621
30
0
0
VERTEX
8
0
10
90.6586283582247
20
46.1972980391468
30
0
0
VERTEX
8
0
10
92.5473497823544
20
46.354108506502
30
0
0
VERTEX
8
0
10
94.4360712064841
20
46.5203130471742
30
0
0
VERTEX
8
0
10
96.3247926306138
20
46.8070898218044
30
0
0
VERTEX
8
0
10
98.2135140547435
20
47.0119953062212
30
0
0
VERTEX
8
0
10
100.102235478873
20
47.2001433936949
30
0
0
VERTEX
8
0
10
101.990956903003
20
47.3668410859924
30
0
0
VERTEX
8
0
10
103.879678327132
20
47.538385327752
30
0
0
VERTEX
8
0
10
105.768399751262
20
47.7770349739678
30
0
0
VERTEX
8
0
10
107.657121175392
20
48.0525824861932
30
0
0
VERTEX
8
0
10
109.545842599522
20
48.2549811652004
30
0
0
VERTEX
8
0
10
111.434564023651
20
48.4364788292974
30
0
0
VERTEX
8
0
10
113.323285447781
20
48.6159400997805
30
0
0
VERTEX
8
0
10
115.212006871911
20
48.7917428424968
30
0
0
VERTEX
8
0
10
117.10072829604
20
49.0300057869698
30
0
0
VERTEX
8
0
10
118.98944972017
20
49.1634701233496
30
0
0
VERTEX
8
0
10
120.8781711443
20
49.2620244443339
30
0
0
VERTEX
8
0
10
122.766892568429
20
49.272501140082
30
0
0
VERTEX
8
0
10
124.655613992559
20
49.347812570795
30
0
0
VERTEX
8
0
10
126.544335416689
20
49.4075051795998
30
0
0
VERTEX
8
0
10
128.433056840818
20
49.4434749032396
30
0
0
VERTEX
8
0
10
130.321778264948
20
49.4962103500811
30
0
0
VERTEX
8
0
10
132.210499689078
20
49.5756094853404
30
0
0
VERTEX
8
0
10
134.099221113207
20
49.6600878939748
30
0
0
VERTEX
8
0
10
135.987942537337
20
49.680196933427
30
0
0
VERTEX
8
0
10
137.876663961467
20
49.7465483821816
30
0
0
VERTEX
8
0
10
139.765385385596
20
49.8354048804583
30
0
0
VERTEX
8
0
10
141.654106809726
20
49.9257311910237
30
0
0
VERTEX
8
0
10
143.542828233856
20
49.94583049364
30
0
0
VERTEX
8
0
10
145.431549657986
20
50.024543059993
30
0
0
VERTEX
8
0
10
147.320271082115
20
50.1285708970204
30
0
0
VERTEX
8
0
10
149.208992506245
20
50.2165270562515
30
0
0
VERTEX
8
0
10
151.097713930375
20
50.2575708473983
30
0
0
VERTEX
8
0
10
152.986435354504
20
50.3419342327089
30
0
0
VERTEX
8
0
10
154.875156778634
20
50.450187779126
30
0
0
SEQEND
8
0
0
POLYLINE
8
0
62
3
70
0
10
0
20
0
30
0
0
VERTEX
8
0
10
41.551871330853
20
45.0880993704577
30
0
0
VERTEX
8
0
10
43.4405927549827
20
46.7831792104469
30
0
0
VERTEX
8
0
10
45.3293141791123
20
48.4655587753607
30
0
0
VERTEX
8
0
10
47.218035603242
20
50.0843994777571
30
0
0
VERTEX
8
0
10
49.1067570273717
20
51.7006819707631
30
0
0
VERTEX
8
0
10
50.9954784515014
20
53.2986271351865
30
0
0
VERTEX
8
0
10
52.8841998756311
20
54.9266952386405
30
0
0
VERTEX
8
0
10
54.7729212997608
20
56.5384016861143
30
0
0
VERTEX
8
0
10
56.6616427238904
20
58.109046313852
30
0
0
VERTEX
8
0
10
58.5503641480201
20
59.6030744921119
30
0
0
VERTEX
8
0
10
60.4390855721498
20
61.1046114400803
30
0
0
VERTEX
8
0
10
62.3278069962795
20
62.6588557840089
30
0
0
VERTEX
8
0
10
64.2165284204092
20
64.179159720798
30
0
0
VERTEX
8
0
10
66.1052498445388
20
65.7067038247514
30
0
0
VERTEX
8
0
10
67.9939712686685
20
67.1357863103951
30
0
0
VERTEX
8
0
10
69.8826926927982
20
68.5414874062108
30
0
0
VERTEX
8
0
10
71.7714141169279
20
70.0118275592594
30
0
0
VERTEX
8
0
10
73.6601355410576
20
71.4571872261394
30
0
0
VERTEX
8
0
10
75.5488569651873
20
72.87275167485
30
0
0
VERTEX
8
0
10
77.4375783893169
20
74.1176270002376
30
0
0
VERTEX
8
0
10
79.3262998134466
20
75.1143286888677
30
0
0
VERTEX
8
0
10
81.2150212375763
20
76.0277761373261
30
0
0
VERTEX
8
0
10
83.103742661706
20
76.8369754866877
30
0
0
VERTEX
8
0
10
84.9924640858357
20
77.704418729489
30
0
0
VERTEX
8
0
10
86.8811855099654
20
78.4973886612319
30
0
0
VERTEX
8
0
10
88.769906934095
20
79.2573014132963
30
0
0
VERTEX
8
0
10
90.6586283582247
20
80.0126032141448
30
0
0
VERTEX
8
0
10
92.5473497823544
20
80.7590676579063
30
0
0
VERTEX
8
0
10
94.4360712064841
20
81.4998690022633
30
0
0
VERTEX
8
0
10
96.3247926306138
20
82.2662776233279
30
0
0
VERTEX
8
0
10
98.2135140547435
20
82.9654194345601
30
0
0
VERTEX
8
0
10
100.102235478873
20
83.6800621548186
30
0
0
VERTEX
8
0
10
101.990956903003
20
84.3694918256713
30
0
0
VERTEX
8
0
10
103.879678327132
20
85.0510976004085
30
0
0
VERTEX
8
0
10
105.768399751262
20
85.7289151376109
30
0
0
VERTEX
8
0
10
107.657121175392
20
86.4328355914182
30
0
0
VERTEX
8
0
10
109.545842599522
20
87.0687325512216
30
0
0
VERTEX
8
0
10
111.434564023651
20
87.7073710379523
30
0
0
VERTEX
8
0
10
113.323285447781
20
88.3322292035207
30
0
0
VERTEX
8
0
10
115.212006871911
20
88.9129679554784
30
0
0
VERTEX
8
0
10
117.10072829604
20
89.5305180987911
30
0
0
VERTEX
8
0
10
118.98944972017
20
90.0621862773702
30
0
0
VERTEX
8
0
10
120.8781711443
20
90.5855728719407
30
0
0
VERTEX
8
0
10
122.766892568429
20
91.045727494704
30
0
0
VERTEX
8
0
10
124.655613992559
20
91.5075995656199
30
0
0
VERTEX
8
0
10
126.544335416689
20
91.9602171734086
30
0
0
VERTEX
8
0
10
128.433056840818
20
92.3749576851271
30
0
0
VERTEX
8
0
10
130.321778264948
20
92.813151700765
30
0
0
VERTEX
8
0
10
132.210499689078
20
93.2562641128877
30
0
0
VERTEX
8
0
10
134.099221113207
20
93.6921339649393
30
0
0
VERTEX
8
0
10
135.987942537337
20
94.0470794184834
30
0
0
VERTEX
8
0
10
137.876663961467
20
94.4236823801764
30
0
0
VERTEX
8
0
10
139.765385385596
20
94.8300566307939
30
0
0
VERTEX
8
0
10
141.654106809726
20
95.2262175968768
30
0
0
VERTEX
8
0
10
143.542828233856
20
95.5722073804463
30
0
0
VERTEX
8
0
10
145.431549657986
20
95.9092755196205
30
0
0
VERTEX
8
0
10
147.320271082115
20
96.2486801988906
30
0
0
VERTEX
8
0
10
149.208992506245
20
96.5993307627869
30
0
0
VERTEX
8
0
10
151.097713930375
20
96.9102733927507
30
0
0
VERTEX
8
0
10
152.986435354504
20
97.2350465968402
30
0
0
VERTEX
8
0
10
154.875156778634
20
97.509987995437
30
0
0
SEQEND
8
0
0
POLYLINE
8
0
62
4
70
0
10
0
20
0
30
0
0
VERTEX
8
0
10
41.551871330853
20
45.0880993704577
30
0
0
VERTEX
8
0
10
43.4405927549827
20
46.7831792104469
30
0
0
VERTEX
8
0
10
45.3293141791123
20
48.4655587753607
30
0
0
VERTEX
8
0
10
47.218035603242
20
50.0843994777571
30
0
0
VERTEX
8
0
10
49.1067570273717
20
51.7006819707631
30
0
0
VERTEX
8
0
10
50.9954784515014
20
53.2986271351865
30
0
0
VERTEX
8
0
10
52.8841998756311
20
54.9266952386405
30
0
0
VERTEX
8
0
10
54.7729212997608
20
56.5384016861143
30
0
0
VERTEX
8
0
10
56.6616427238904
20
58.109046313852
30
0
0
VERTEX
8
0
10
58.5503641480201
20
59.6030744921119
30
0
0
VERTEX
8
0
10
60.4390855721498
20
61.1046114400803
30
0
0
VERTEX
8
0
10
62.3278069962795
20
62.6588557840089
30
0
0
VERTEX
8
0
10
64.2165284204092
20
64.179159720798
30
0
0
VERTEX
8
0
10
66.1052498445388
20
65.7067038247514
30
0
0
VERTEX
8
0
10
67.9939712686685
20
67.1357863103951
30
0
0
VERTEX
8
0
10
69.8826926927982
20
68.5414874062108
30
0
0
VERTEX
8
0
10
71.7714141169279
20
70.0118275592594
30
0
0
VERTEX
8
0
10
73.6601355410576
20
71.4571872261394
30
0
0
VERTEX
8
0
10
75.5488569651873
20
72.87275167485
30
0
0
VERTEX
8
0
10
77.4375783893169
20
74.1176270002376
30
0
0
VERTEX
8
0
10
79.3262998134466
20
75.1143286888677
30
0
0
VERTEX
8
0
10
81.2150212375763
20
76.0277761373261
30
0
0
VERTEX
8
0
10
83.103742661706
20
76.8369754866877
30
0
0
VERTEX
8
0
10
84.9924640858357
20
77.704418729489
30
0
0
VERTEX
8
0
10
86.8811855099654
20
78.4973886612319
30
0
0
VERTEX
8
0
10
88.769906934095
20
79.2573014132963
30
0
0
VERTEX
8
0
10
90.6586283582247
20
80.0126032141448
30
0
0
VERTEX
8
0
10
92.5473497823544
20
80.7590676579063
30
0
0
VERTEX
8
0
10
94.4360712064841
20
81.4998690022633
30
0
0
VERTEX
8
0
10
96.3247926306138
20
82.2662776233279
30
0
0
VERTEX
8
0
10
98.2135140547435
20
82.9654194345601
30
0
0
VERTEX
8
0
10
100.102235478873
20
83.6800621548186
30
0
0
VERTEX
8
0
10
101.990956903003
20
84.3694918256713
30
0
0
VERTEX
8
0
10
103.879678327132
20
85.0510976004085
30
0
0
VERTEX
8
0
10
105.768399751262
20
85.7289151376109
30
0
0
VERTEX
8
0
10
107.657121175392
20
86.4328355914182
30
0
0
VERTEX
8
0
10
109.545842599522
20
87.0687325512216
30
0
0
VERTEX
8
0
10
111.434564023651
20
87.7073710379523
30
0
0
VERTEX
8
0
10
113.323285447781
20
88.3322292035207
30
0
0
VERTEX
8
0
10
115.212006871911
20
88.9129679554784
30
0
0
VERTEX
8
0
10
117.10072829604
20
89.5305180987911
30
0
0
VERTEX
8
0
10
118.98944972017
20
90.0621862773702
30
0
0
VERTEX
8
0
10
120.8781711443
20
90.5855728719407
30
0
0
VERTEX
8
0
10
122.766892568429
20
91.045727494704
30
0
0
VERTEX
8
0
10
124.655613992559
20
91.5075995656199
30
0
0
VERTEX
8
0
10
126.544335416689
20
91.9602171734086
30
0
0
VERTEX
8
0
10
128.433056840818
20
92.3749576851271
30
0
0
VERTEX
8
0
10
130.321778264948
20
92.813151700765
30
0
0
VERTEX
8
0
10
132.210499689078
20
93.2562641128877
30
0
0
VERTEX
8
0
10
134.099221113207
20
93.6921339649393
30
0
0
VERTEX
8
0
10
135.987942537337
20
94.0470794184834
30
0
0
VERTEX
8
0
10
137.876663961467
20
94.4236823801764
30
0
0
VERTEX
8
0
10
139.765385385596
20
94.8300566307939
30
0
0
VERTEX
8
0
10
141.654106809726
20
95.2262175968768
30
0
0
VERTEX
8
0
10
143.542828233856
20
95.5722073804463
30
0
0
VERTEX
8
0
10
145.431549657986
20
95.9092755196205
30
0
0
VERTEX
8
0
10
147.320271082115
20
96.2486801988906
30
0
0
VERTEX
8
0
10
149.208992506245
20
96.5993307627869
30
0
0
VERTEX
8
0
10
151.097713930375
20
96.9102733927507
30
0
0
VERTEX
8
0
10
152.986435354504
20
97.2350465968402
30
0
0
VERTEX
8
0
10
154.875156778634
20
97.509987995437
30
0
0
SEQEND
8
0
0
POLYLINE
8
0
62
2
70
0
10
0
20
0
30
0
0
VERTEX
8
0
10
41.551871330853
20
26.6807969369806
30
0
0
VERTEX
8
0
10
43.4405927549827
20
27.4885365707375
30
0
0
VERTEX
8
0
10
45.3293141791123
20
28.3044801695649
30
0
0
VERTEX
8
0
10
47.218035603242
20
29.0883060114512
30
0
0
VERTEX
8
0
10
49.1067570273717
20
29.8667860120484
30
0
0
VERTEX
8
0
10
50.9954784515014
20
30.6686841281396
30
0
0
VERTEX
8
0
10
52.8841998756311
20
31.4900603793977
30
0
0
VERTEX
8
0
10
54.7729212997608
20
32.3092301286864
30
0
0
VERTEX
8
0
10
56.6616427238904
20
33.0711824395309
30
0
0
VERTEX
8
0
10
58.5503641480201
20
33.818377609554
30
0
0
VERTEX
8
0
10
60.4390855721498
20
34.5919293825253
30
0
0
VERTEX
8
0
10
62.3278069962795
20
35.4082885976292
30
0
0
VERTEX
8
0
10
64.2165284204092
20
36.1856252128911
30
0
0
VERTEX
8
0
10
66.1052498445388
20
37.0078078946153
30
0
0
VERTEX
8
0
10
67.9939712686685
20
37.7911818782291
30
0
0
VERTEX
8
0
10
69.8826926927982
20
38.5558419636149
30
0
0
VERTEX
8
0
10
71.7714141169279
20
39.372602844824
30
0
0
VERTEX
8
0
10
73.6601355410576
20
40.1858730987579
30
0
0
VERTEX
8
0
10
75.5488569651873
20
40.9939971279191
30
0
0
VERTEX
8
0
10
77.4375783893169
20
41.6622500913139
30
0
0
VERTEX
8
0
10
79.3262998134466
20
41.9349016970369
30
0
0
VERTEX
8
0
10
81.2150212375763
20
42.0485107148541
30
0
0
VERTEX
8
0
10
83.103742661706
20
42.0225891058732
30
0
0
VERTEX
8
0
10
84.9924640858357
20
42.1333546758549
30
0
0
VERTEX
8
0
10
86.8811855099654
20
42.2051191172986
30
0
0
VERTEX
8
0
10
88.769906934095
20
42.2476566158414
30
0
0
VERTEX
8
0
10
90.6586283582247
20
42.2459416992157
30
0
0
VERTEX
8
0
10
92.5473497823544
20
42.2485057550186
30
0
0
VERTEX
8
0
10
94.4360712064841
20
42.2576369317185
30
0
0
VERTEX
8
0
10
96.3247926306138
20
42.3971429227426
30
0
0
VERTEX
8
0
10
98.2135140547435
20
42.4475222060696
30
0
0
VERTEX
8
0
10
100.102235478873
20
42.4771789268022
30
0
0
VERTEX
8
0
10
101.990956903003
20
42.4804609333324
30
0
0
VERTEX
8
0
10
103.879678327132
20
42.4865475024504
30
0
0
VERTEX
8
0
10
105.768399751262
20
42.5624544873611
30
0
0
VERTEX
8
0
10
107.657121175392
20
42.6766931169396
30
0
0
VERTEX
8
0
10
109.545842599522
20
42.706379818612
30
0
0
VERTEX
8
0
10
111.434564023651
20
42.7138367921575
30
0
0
VERTEX
8
0
10
113.323285447781
20
42.7167337909369
30
0
0
VERTEX
8
0
10
115.212006871911
20
42.7129512497064
30
0
0
VERTEX
8
0
10
117.10072829604
20
42.7782398213133
30
0
0
VERTEX
8
0
10
118.98944972017
20
42.7473940471424
30
0
0
VERTEX
8
0
10
120.8781711443
20
42.6833171399474
30
0
0
VERTEX
8
0
10
122.766892568429
20
42.5335060800138
30
0
0
VERTEX
8
0
10
124.655613992559
20
42.4431322560976
30
0
0
VERTEX
8
0
10
126.544335416689
20
42.3344129600437
30
0
0
VERTEX
8
0
10
128.433056840818
20
42.1977396282037
30
0
0
VERTEX
8
0
10
130.321778264948
20
42.0838676793779
30
0
0
VERTEX
8
0
10
132.210499689078
20
41.998543631672
30
0
0
VERTEX
8
0
10
134.099221113207
20
41.9172478787125
30
0
0
VERTEX
8
0
10
135.987942537337
20
41.7438125270271
30
0
0
VERTEX
8
0
10
137.876663961467
20
41.6311469110317
30
0
0
VERTEX
8
0
10
139.765385385596
20
41.5462902299447
30
0
0
VERTEX
8
0
10
141.654106809726
20
41.46350225479
30
0
0
VERTEX
8
0
10
143.542828233856
20
41.2938409114982
30
0
0
VERTEX
8
0
10
145.431549657986
20
41.1804295460563
30
0
0
VERTEX
8
0
10
147.320271082115
20
41.0915519482341
30
0
0
VERTEX
8
0
10
149.208992506245
20
41.0032406860159
30
0
0
VERTEX
8
0
10
151.097713930375
20
40.8492780492978
30
0
0
VERTEX
8
0
10
152.986435354504
20
40.736700237825
30
0
0
VERTEX
8
0
10
154.875156778634
20
40.6439243613738
30
0
0
SEQEND
8
0
0
POLYLINE
8
0
62
4
70
0
10
0
20
0
30
0
0
VERTEX
8
0
10
41.551871330853
20
41.702085044453
30
0
0
VERTEX
8
0
10
43.4405927549827
20
43.2174839752378
30
0
0
VERTEX
8
0
10
45.3293141791123
20
44.7142012109762
30
0
0
VERTEX
8
0
10
47.218035603242
20
46.1473490167262
30
0
0
VERTEX
8
0
10
49.1067570273717
20
47.5735705065582
30
0
0
VERTEX
8
0
10
50.9954784515014
20
48.9823371557904
30
0
0
VERTEX
8
0
10
52.8841998756311
20
50.4201757278509
30
0
0
VERTEX
8
0
10
54.7729212997608
20
51.8414604016403
30
0
0
VERTEX
8
0
10
56.6616427238904
20
53.2107882623692
30
0
0
VERTEX
8
0
10
58.5503641480201
20
54.5130503220163
30
0
0
VERTEX
8
0
10
60.4390855721498
20
55.8223206400178
30
0
0
VERTEX
8
0
10
62.3278069962795
20
57.1810144580466
30
0
0
VERTEX
8
0
10
64.2165284204092
20
58.498691965622
30
0
0
VERTEX
8
0
10
66.1052498445388
20
59.8289333471815
30
0
0
VERTEX
8
0
10
67.9939712686685
20
61.0670431272429
30
0
0
VERTEX
8
0
10
69.8826926927982
20
62.2764238122202
30
0
0
VERTEX
8
0
10
71.7714141169279
20
63.5429470541523
30
0
0
VERTEX
8
0
10
73.6601355410576
20
64.7840732751762
30
0
0
VERTEX
8
0
10
75.5488569651873
20
65.9948400746074
30
0
0
VERTEX
8
0
10
77.4375783893169
20
67.0329732549958
30
0
0
VERTEX
8
0
10
79.3262998134466
20
67.799599390805
30
0
0
VERTEX
8
0
10
81.2150212375763
20
68.4611624559374
30
0
0
VERTEX
8
0
10
83.103742661706
20
69.0061073767679
30
0
0
VERTEX
8
0
10
84.9924640858357
20
69.6169065862803
30
0
0
VERTEX
8
0
10
86.8811855099654
20
70.1600067567505
30
0
0
VERTEX
8
0
10
88.769906934095
20
70.6673642308154
30
0
0
VERTEX
8
0
10
90.6586283582247
20
71.1525733505862
30
0
0
VERTEX
8
0
10
92.5473497823544
20
71.6254568585856
30
0
0
VERTEX
8
0
10
94.4360712064841
20
72.0906043192764
30
0
0
VERTEX
8
0
10
96.3247926306138
20
72.60187182867
30
0
0
VERTEX
8
0
10
98.2135140547435
20
73.0427636413417
30
0
0
VERTEX
8
0
10
100.102235478873
20
73.4817905562208
30
0
0
VERTEX
8
0
10
101.990956903003
20
73.89205098175
30
0
0
VERTEX
8
0
10
103.879678327132
20
74.2933167942217
30
0
0
VERTEX
8
0
10
105.768399751262
20
74.7073353025029
30
0
0
VERTEX
8
0
10
107.657121175392
20
75.1420340585595
30
0
0
VERTEX
8
0
10
109.545842599522
20
75.5078890422316
30
0
0
VERTEX
8
0
10
111.434564023651
20
75.8638090243299
30
0
0
VERTEX
8
0
10
113.323285447781
20
76.2051392520643
30
0
0
VERTEX
8
0
10
115.212006871911
20
76.5160526099199
30
0
0
VERTEX
8
0
10
117.10072829604
20
76.8629144023525
30
0
0
VERTEX
8
0
10
118.98944972017
20
77.1359318489396
30
0
0
VERTEX
8
0
10
120.8781711443
20
77.3905801846544
30
0
0
VERTEX
8
0
10
122.766892568429
20
77.5835461956616
30
0
0
VERTEX
8
0
10
124.655613992559
20
77.7914767800311
30
0
0
VERTEX
8
0
10
126.544335416689
20
77.9838043956031
30
0
0
VERTEX
8
0
10
128.433056840818
20
78.1464825948944
30
0
0
VERTEX
8
0
10
130.321778264948
20
78.3231593014828
30
0
0
VERTEX
8
0
10
132.210499689078
20
78.508415769374
30
0
0
VERTEX
8
0
10
134.099221113207
20
78.6873698065912
30
0
0
VERTEX
8
0
10
135.987942537337
20
78.7947999367971
30
0
0
VERTEX
8
0
10
137.876663961467
20
78.9308729696939
30
0
0
VERTEX
8
0
10
139.765385385596
20
79.0858184803833
30
0
0
VERTEX
8
0
10
141.654106809726
20
79.2341004198284
30
0
0
VERTEX
8
0
10
143.542828233856
20
79.325961338683
30
0
0
VERTEX
8
0
10
145.431549657986
20
79.4351160737987
30
0
0
VERTEX
8
0
10
147.320271082115
20
79.5488030025436
30
0
0
VERTEX
8
0
10
149.208992506245
20
79.6669955264569
30
0
0
VERTEX
8
0
10
151.097713930375
20
79.7412048143485
30
0
0
VERTEX
8
0
10
152.986435354504
20
79.8311417357504
30
0
0
VERTEX
8
0
10
154.875156778634
20
79.9137618305976
30
0
0
SEQEND
8
0
0
POLYLINE
8
0
62
2
70
0
10
0
20
0
30
0
0
VERTEX
8
0
10
41.551871330853
20
8.45742482232055
30
0
0
VERTEX
8
0
10
43.4405927549827
20
8.83654287984721
30
0
0
VERTEX
8
0
10
45.3293141791123
20
9.23815945112969
30
0
0
VERTEX
8
0
10
47.218035603242
20
9.63089460902523
30
0
0
VERTEX
8
0
10
49.1067570273717
20
10.0349291347793
30
0
0
VERTEX
8
0
10
50.9954784515014
20
10.4396721873713
30
0
0
VERTEX
8
0
10
52.8841998756311
20
10.8412645649243
30
0
0
VERTEX
8
0
10
54.7729212997608
20
11.2378904568018
30
0
0
VERTEX
8
0
10
56.6616427238904
20
11.6666302956404
30
0
0
VERTEX
8
0
10
58.5503641480201
20
12.0548302749497
30
0
0
VERTEX
8
0
10
60.4390855721498
20
12.4456945307358
30
0
0
VERTEX
8
0
10
62.3278069962795
20
12.8487657380755
30
0
0
VERTEX
8
0
10
64.2165284204092
20
13.2701897865774
30
0
0
VERTEX
8
0
10
66.1052498445388
20
13.6745329675545
30
0
0
VERTEX
8
0
10
67.9939712686685
20
14.04802630815
30
0
0
VERTEX
8
0
10
69.8826926927982
20
14.4362135226635
30
0
0
VERTEX
8
0
10
71.7714141169279
20
14.8536932110192
30
0
0
VERTEX
8
0
10
73.6601355410576
20
15.2656469515964
30
0
0
VERTEX
8
0
10
75.5488569651873
20
15.671210492231
30
0
0
VERTEX
8
0
10
77.4375783893169
20
16.0533999386619
30
0
0
VERTEX
8
0
10
79.3262998134466
20
16.4271460209947
30
0
0
VERTEX
8
0
10
81.2150212375763
20
16.8147309566526
30
0
0
VERTEX
8
0
10
83.103742661706
20
17.2031029131007
30
0
0
VERTEX
8
0
10
84.9924640858357
20
17.585318583074
30
0
0
VERTEX
8
0
10
86.8811855099654
20
17.9457677511828
30
0
0
VERTEX
8
0
10
88.769906934095
20
18.3062832917184
30
0
0
VERTEX
8
0
10
90.6586283582247
20
18.6860787236046
30
0
0
VERTEX
8
0
10
92.5473497823544
20
19.0724362755446
30
0
0
VERTEX
8
0
10
94.4360712064841
20
19.4619424125595
30
0
0
VERTEX
8
0
10
96.3247926306138
20
19.8311169590267
30
0
0
VERTEX
8
0
10
98.2135140547435
20
20.1912521111729
30
0
0
VERTEX
8
0
10
100.102235478873
20
20.5710725845038
30
0
0
VERTEX
8
0
10
101.990956903003
20
20.9516798976409
30
0
0
VERTEX
8
0
10
103.879678327132
20
21.333285189065
30
0
0
VERTEX
8
0
10
105.768399751262
20
21.7016815579581
30
0
0
VERTEX
8
0
10
107.657121175392
20
22.0824986961077
30
0
0
VERTEX
8
0
10
109.545842599522
20
22.4557337406697
30
0
0
VERTEX
8
0
10
111.434564023651
20
22.8372875732264
30
0
0
VERTEX
8
0
10
113.323285447781
20
23.2189220300373
30
0
0
VERTEX
8
0
10
115.212006871911
20
23.5835691688406
30
0
0
VERTEX
8
0
10
117.10072829604
20
23.9556151661948
30
0
0
VERTEX
8
0
10
118.98944972017
20
24.2758771055604
30
0
0
VERTEX
8
0
10
120.8781711443
20
24.5919959159885
30
0
0
VERTEX
8
0
10
122.766892568429
20
24.8795862499081
30
0
0
VERTEX
8
0
10
124.655613992559
20
25.1733255328939
30
0
0
VERTEX
8
0
10
126.544335416689
20
25.4720816289669
30
0
0
VERTEX
8
0
10
128.433056840818
20
25.7587705840388
30
0
0
VERTEX
8
0
10
130.321778264948
20
26.0515909192053
30
0
0
VERTEX
8
0
10
132.210499689078
20
26.3452801158145
30
0
0
VERTEX
8
0
10
134.099221113207
20
26.6411846830738
30
0
0
VERTEX
8
0
10
135.987942537337
20
26.9348073908312
30
0
0
VERTEX
8
0
10
137.876663961467
20
27.22216815192
30
0
0
VERTEX
8
0
10
139.765385385596
20
27.5194428422292
30
0
0
VERTEX
8
0
10
141.654106809726
20
27.8135610460236
30
0
0
VERTEX
8
0
10
143.542828233856
20
28.1093730972597
30
0
0
VERTEX
8
0
10
145.431549657986
20
28.4025727315909
30
0
0
VERTEX
8
0
10
147.320271082115
20
28.7029583610227
30
0
0
VERTEX
8
0
10
149.208992506245
20
28.9917660371183
30
0
0
VERTEX
8
0
10
151.097713930375
20
29.2891781137976
30
0
0
VERTEX
8
0
10
152.986435354504
20
29.6111287790605
30
0
0
VERTEX
8
0
10
154.875156778634
20
29.8853894176165
30
0
0
SEQEND
8
0
0
POLYLINE
8
0
62
3
70
0
10
0
20
0
30
0
0
VERTEX
8
0
10
41.551871330853
20
17.1427187979468
30
0
0
VERTEX
8
0
10
43.4405927549827
20
17.9140988019731
30
0
0
VERTEX
8
0
10
45.3293141791123
20
18.6962722881402
30
0
0
VERTEX
8
0
10
47.218035603242
20
19.4645639503179
30
0
0
VERTEX
8
0
10
49.1067570273717
20
20.2414403020023
30
0
0
VERTEX
8
0
10
50.9954784515014
20
21.0112898521751
30
0
0
VERTEX
8
0
10
52.8841998756311
20
21.7887064648439
30
0
0
VERTEX
8
0
10
54.7729212997608
20
22.5622217134212
30
0
0
VERTEX
8
0
10
56.6616427238904
20
23.3510872552586
30
0
0
VERTEX
8
0
10
58.5503641480201
20
24.1009093915886
30
0
0
VERTEX
8
0
10
60.4390855721498
20
24.8524054692145
30
0
0
VERTEX
8
0
10
62.3278069962795
20
25.6215494010394
30
0
0
VERTEX
8
0
10
64.2165284204092
20
26.3982495779355
30
0
0
VERTEX
8
0
10
66.1052498445388
20
27.1637564054038
30
0
0
VERTEX
8
0
10
67.9939712686685
20
27.893189979106
30
0
0
VERTEX
8
0
10
69.8826926927982
20
28.6283519088418
30
0
0
VERTEX
8
0
10
71.7714141169279
20
29.3930243061285
30
0
0
VERTEX
8
0
10
73.6601355410576
20
30.152171665539
30
0
0
VERTEX
8
0
10
75.5488569651873
20
30.9049999222025
30
0
0
VERTEX
8
0
10
77.4375783893169
20
31.6228260713896
30
0
0
VERTEX
8
0
10
79.3262998134466
20
32.3322856727701
30
0
0
VERTEX
8
0
10
81.2150212375763
20
33.0649660451832
30
0
0
VERTEX
8
0
10
83.103742661706
20
33.7946437567824
30
0
0
VERTEX
8
0
10
84.9924640858357
20
34.5175753413371
30
0
0
VERTEX
8
0
10
86.8811855099654
20
35.2053046929753
30
0
0
VERTEX
8
0
10
88.769906934095
20
35.8865359151224
30
0
0
VERTEX
8
0
10
90.6586283582247
20
36.5968301727571
30
0
0
VERTEX
8
0
10
92.5473497823544
20
37.3071164628572
30
0
0
VERTEX
8
0
10
94.4360712064841
20
38.0154365523744
30
0
0
VERTEX
8
0
10
96.3247926306138
20
38.6873188651247
30
0
0
VERTEX
8
0
10
98.2135140547435
20
39.344828142814
30
0
0
VERTEX
8
0
10
100.102235478873
20
40.0347256626795
30
0
0
VERTEX
8
0
10
101.990956903003
20
40.7207066813983
30
0
0
VERTEX
8
0
10
103.879678327132
20
41.4028052521519
30
0
0
VERTEX
8
0
10
105.768399751262
20
42.0506949130582
30
0
0
VERTEX
8
0
10
107.657121175392
20
42.7119396178096
30
0
0
VERTEX
8
0
10
109.545842599522
20
43.3534644574364
30
0
0
VERTEX
8
0
10
111.434564023651
20
44.0143773636415
30
0
0
VERTEX
8
0
10
113.323285447781
20
44.6694466905154
30
0
0
VERTEX
8
0
10
115.212006871911
20
45.2858649431353
30
0
0
VERTEX
8
0
10
117.10072829604
20
45.9108490513365
30
0
0
VERTEX
8
0
10
118.98944972017
20
46.489196754251
30
0
0
VERTEX
8
0
10
120.8781711443
20
47.0791260668702
30
0
0
VERTEX
8
0
10
122.766892568429
20
47.6457537955435
30
0
0
VERTEX
8
0
10
124.655613992559
20
48.1884521295686
30
0
0
VERTEX
8
0
10
126.544335416689
20
48.7361036047076
30
0
0
VERTEX
8
0
10
128.433056840818
20
49.2570813728838
30
0
0
VERTEX
8
0
10
130.321778264948
20
49.797227288914
30
0
0
VERTEX
8
0
10
132.210499689078
20
50.3305021798489
30
0
0
VERTEX
8
0
10
134.099221113207
20
50.8577801307223
30
0
0
VERTEX
8
0
10
135.987942537337
20
51.3442562519572
30
0
0
VERTEX
8
0
10
137.876663961467
20
51.8242133222925
30
0
0
VERTEX
8
0
10
139.765385385596
20
52.3275544611771
30
0
0
VERTEX
8
0
10
141.654106809726
20
52.82035449018
30
0
0
VERTEX
8
0
10
143.542828233856
20
53.3051468552973
30
0
0
VERTEX
8
0
10
145.431549657986
20
53.7461762829749
30
0
0
VERTEX
8
0
10
147.320271082115
20
54.1829897743824
30
0
0
VERTEX
8
0
10
149.208992506245
20
54.6314975779157
30
0
0
VERTEX
8
0
10
151.097713930375
20
55.0721467151391
30
0
0
VERTEX
8
0
10
152.986435354504
20
55.512548994405
30
0
0
VERTEX
8
0
10
154.875156778634
20
55.8747566343943
30
0
0
SEQEND
8
0
0
POLYLINE
8
0
62
4
70
0
10
0
20
0
30
0
0
VERTEX
8
0
10
41.551871330853
20
17.1427187979468
30
0
0
VERTEX
8
0
10
43.4405927549827
20
17.9140988019731
30
0
0
VERTEX
8
0
10
45.3293141791123
20
18.6962722881402
30
0
0
VERTEX
8
0
10
47.218035603242
20
19.4645639503179
30
0
0
VERTEX
8
0
10
49.1067570273717
20
20.2414403020023
30
0
0
VERTEX
8
0
10
50.9954784515014
20
21.0112898521751
30
0
0
VERTEX
8
0
10
52.8841998756311
20
21.7887064648439
30
0
0
VERTEX
8
0
10
54.7729212997608
20
22.5622217134212
30
0
0
VERTEX
8
0
10
56.6616427238904
20
23.3510872552586
30
0
0
VERTEX
8
0
10
58.5503641480201
20
24.1009093915886
30
0
0
VERTEX
8
0
10
60.4390855721498
20
24.8524054692145
30
0
0
VERTEX
8
0
10
62.3278069962795
20
25.6215494010394
30
0
0
VERTEX
8
0
10
64.2165284204092
20
26.3982495779355
30
0
0
VERTEX
8
0
10
66.1052498445388
20
27.1637564054038
30
0
0
VERTEX
8
0
10
67.9939712686685
20
27.893189979106
30
0
0
VERTEX
8
0
10
69.8826926927982
20
28.6283519088418
30
0
0
VERTEX
8
0
10
71.7714141169279
20
29.3930243061285
30
0
0
VERTEX
8
0
10
73.6601355410576
20
30.152171665539
30
0
0
VERTEX
8
0
10
75.5488569651873
20
30.9049999222025
30
0
0
VERTEX
8
0
10
77.4375783893169
20
31.6228260713896
30
0
0
VERTEX
8
0
10
79.3262998134466
20
32.3322856727701
30
0
0
VERTEX
8
0
10
81.2150212375763
20
33.0649660451832
30
0
0
VERTEX
8
0
10
83.103742661706
20
33.7946437567824
30
0
0
VERTEX
8
0
10
84.9924640858357
20
34.5175753413371
30
0
0
VERTEX
8
0
10
86.8811855099654
20
35.2053046929753
30
0
0
VERTEX
8
0
10
88.769906934095
20
35.8865359151224
30
0
0
VERTEX
8
0
10
90.6586283582247
20
36.5968301727571
30
0
0
VERTEX
8
0
10
92.5473497823544
20
37.3071164628572
30
0
0
VERTEX
8
0
10
94.4360712064841
20
38.0154365523744
30
0
0
VERTEX
8
0
10
96.3247926306138
20
38.6873188651247
30
0
0
VERTEX
8
0
10
98.2135140547435
20
39.344828142814
30
0
0
VERTEX
8
0
10
100.102235478873
20
40.0347256626795
30
0
0
VERTEX
8
0
10
101.990956903003
20
40.7207066813983
30
0
0
VERTEX
8
0
10
103.879678327132
20
41.4028052521519
30
0
0
VERTEX
8
0
10
105.768399751262
20
42.0506949130582
30
0
0
VERTEX
8
0
10
107.657121175392
20
42.7119396178096
30
0
0
VERTEX
8
0
10
109.545842599522
20
43.3534644574364
30
0
0
VERTEX
8
0
10
111.434564023651
20
44.0143773636415
30
0
0
VERTEX
8
0
10
113.323285447781
20
44.6694466905154
30
0
0
VERTEX
8
0
10
115.212006871911
20
45.2858649431353
30
0
0
VERTEX
8
0
10
117.10072829604
20
45.9108490513365
30
0
0
VERTEX
8
0
10
118.98944972017
20
46.489196754251
30
0
0
VERTEX
8
0
10
120.8781711443
20
47.0791260668702
30
0
0
VERTEX
8
0
10
122.766892568429
20
47.6457537955435
30
0
0
VERTEX
8
0
10
124.655613992559
20
48.1884521295686
30
0
0
VERTEX
8
0
10
126.544335416689
20
48.7361036047076
30
0
0
VERTEX
8
0
10
128.433056840818
20
49.2570813728838
30
0
0
VERTEX
8
0
10
130.321778264948
20
49.797227288914
30
0
0
VERTEX
8
0
10
132.210499689078
20
50.3305021798489
30
0
0
VERTEX
8
0
10
134.099221113207
20
50.8577801307223
30
0
0
VERTEX
8
0
10
135.987942537337
20
51.3442562519572
30
0
0
VERTEX
8
0
10
137.876663961467
20
51.8242133222925
30
0
0
VERTEX
8
0
10
139.765385385596
20
52.3275544611771
30
0
0
VERTEX
8
0
10
141.654106809726
20
52.82035449018
30
0
0
VERTEX
8
0
10
143.542828233856
20
53.3051468552973
30
0
0
VERTEX
8
0
10
145.431549657986
20
53.7461762829749
30
0
0
VERTEX
8
0
10
147.320271082115
20
54.1829897743824
30
0
0
VERTEX
8
0
10
149.208992506245
20
54.6314975779157
30
0
0
VERTEX
8
0
10
151.097713930375
20
55.0721467151391
30
0
0
VERTEX
8
0
10
152.986435354504
20
55.512548994405
30
0
0
VERTEX
8
0
10
154.875156778634
20
55.8747566343943
30
0
0
SEQEND
8
0
0
ENDSEC
0
EOF
