0
SECTION
2
HEADER
9
$ACADVER
1
AC1009
0
ENDSEC
0
SECTION
2
ENTITIES
0
POLYLINE
8
0
62
0
70
1
10
0
20
0
30
0
0
VERTEX
8
0
10
0
20
0
30
0
0
VERTEX
8
0
10
0
20
108
30
0
0
VERTEX
8
0
10
179.2
20
108
30
0
0
VERTEX
8
0
10
179.2
20
0
30
0
0
SEQEND
8
0
0
TEXT
8
0
62
0
10
0
20
-12
30
0
40
8
1
0
50
0
0
LINE
8
0
62
0
10
7.168
20
0
30
0
11
7.168
21
3.2
31
0
0
LINE
8
0
62
0
10
7.168
20
108
30
0
11
7.168
21
104.8
31
0
0
LINE
8
0
62
0
10
14.336
20
0
30
0
11
14.336
21
3.2
31
0
0
LINE
8
0
62
0
10
14.336
20
108
30
0
11
14.336
21
104.8
31
0
0
LINE
8
0
62
0
10
21.504
20
0
30
0
11
21.504
21
3.2
31
0
0
LINE
8
0
62
0
10
21.504
20
108
30
0
11
21.504
21
104.8
31
0
0
LINE
8
0
62
0
10
28.672
20
0
30
0
11
28.672
21
3.2
31
0
0
LINE
8
0
62
0
10
28.672
20
108
30
0
11
28.672
21
104.8
31
0
0
LINE
8
0
62
0
10
35.84
20
0
30
0
11
35.84
21
6.4
31
0
0
LINE
8
0
62
0
10
35.84
20
108
30
0
11
35.84
21
101.6
31
0
0
TEXT
8
0
62
0
10
35.84
20
-12
30
0
40
8
1
50
50
0
0
LINE
8
0
62
0
10
43.008
20
0
30
0
11
43.008
21
3.2
31
0
0
LINE
8
0
62
0
10
43.008
20
108
30
0
11
43.008
21
104.8
31
0
0
LINE
8
0
62
0
10
50.176
20
0
30
0
11
50.176
21
3.2
31
0
0
LINE
8
0
62
0
10
50.176
20
108
30
0
11
50.176
21
104.8
31
0
0
LINE
8
0
62
0
10
57.344
20
0
30
0
11
57.344
21
3.2
31
0
0
LINE
8
0
62
0
10
57.344
20
108
30
0
11
57.344
21
104.8
31
0
0
LINE
8
0
62
0
10
64.512
20
0
30
0
11
64.512
21
3.2
31
0
0
LINE
8
0
62
0
10
64.512
20
108
30
0
11
64.512
21
104.8
31
0
0
LINE
8
0
62
0
10
71.68
20
0
30
0
11
71.68
21
6.4
31
0
0
LINE
8
0
62
0
10
71.68
20
108
30
0
11
71.68
21
101.6
31
0
0
TEXT
8
0
62
0
10
71.68
20
-12
30
0
40
8
1
100
50
0
0
LINE
8
0
62
0
10
78.848
20
0
30
0
11
78.848
21
3.2
31
0
0
LINE
8
0
62
0
10
78.848
20
108
30
0
11
78.848
21
104.8
31
0
0
LINE
8
0
62
0
10
86.016
20
0
30
0
11
86.016
21
3.2
31
0
0
LINE
8
0
62
0
10
86.016
20
108
30
0
11
86.016
21
104.8
31
0
0
LINE
8
0
62
0
10
93.184
20
0
30
0
11
93.184
21
3.2
31
0
0
LINE
8
0
62
0
10
93.184
20
108
30
0
11
93.184
21
104.8
31
0
0
LINE
8
0
62
0
10
100.352
20
0
30
0
11
100.352
21
3.2
31
0
0
LINE
8
0
62
0
10
100.352
20
108
30
0
11
100.352
21
104.8
31
0
0
LINE
8
0
62
0
10
107.52
20
0
30
0
11
107.52
21
6.4
31
0
0
LINE
8
0
62
0
10
107.52
20
108
30
0
11
107.52
21
101.6
31
0
0
TEXT
8
0
62
0
10
107.52
20
-12
30
0
40
8
1
150
50
0
0
LINE
8
0
62
0
10
114.688
20
0
30
0
11
114.688
21
3.2
31
0
0
LINE
8
0
62
0
10
114.688
20
108
30
0
11
114.688
21
104.8
31
0
0
LINE
8
0
62
0
10
121.856
20
0
30
0
11
121.856
21
3.2
31
0
0
LINE
8
0
62
0
10
121.856
20
108
30
0
11
121.856
21
104.8
31
0
0
LINE
8
0
62
0
10
129.024
20
0
30
0
11
129.024
21
3.2
31
0
0
LINE
8
0
62
0
10
129.024
20
108
30
0
11
129.024
21
104.8
31
0
0
LINE
8
0
62
0
10
136.192
20
0
30
0
11
136.192
21
3.2
31
0
0
LINE
8
0
62
0
10
136.192
20
108
30
0
11
136.192
21
104.8
31
0
0
LINE
8
0
62
0
10
143.36
20
0
30
0
11
143.36
21
6.4
31
0
0
LINE
8
0
62
0
10
143.36
20
108
30
0
11
143.36
21
101.6
31
0
0
TEXT
8
0
62
0
10
143.36
20
-12
30
0
40
8
1
200
50
0
0
LINE
8
0
62
0
10
150.528
20
0
30
0
11
150.528
21
3.2
31
0
0
LINE
8
0
62
0
10
150.528
20
108
30
0
11
150.528
21
104.8
31
0
0
LINE
8
0
62
0
10
157.696
20
0
30
0
11
157.696
21
3.2
31
0
0
LINE
8
0
62
0
10
157.696
20
108
30
0
11
157.696
21
104.8
31
0
0
LINE
8
0
62
0
10
164.864
20
0
30
0
11
164.864
21
3.2
31
0
0
LINE
8
0
62
0
10
164.864
20
108
30
0
11
164.864
21
104.8
31
0
0
LINE
8
0
62
0
10
172.032
20
0
30
0
11
172.032
21
3.2
31
0
0
LINE
8
0
62
0
10
172.032
20
108
30
0
11
172.032
21
104.8
31
0
0
LINE
8
0
62
0
10
179.2
20
0
30
0
11
179.2
21
6.4
31
0
0
LINE
8
0
62
0
10
179.2
20
108
30
0
11
179.2
21
101.6
31
0
0
TEXT
8
0
62
0
10
179.2
20
-12
30
0
40
8
1
250
50
0
0
TEXT
8
0
62
0
10
-4
20
-4
30
0
40
8
1
0
50
0
0
LINE
8
0
62
0
10
0
20
4.32
30
0
11
3.2
21
4.32
31
0
0
LINE
8
0
62
0
10
179.2
20
4.32
30
0
11
176
21
4.32
31
0
0
LINE
8
0
62
0
10
0
20
8.64
30
0
11
3.2
21
8.64
31
0
0
LINE
8
0
62
0
10
179.2
20
8.64
30
0
11
176
21
8.64
31
0
0
LINE
8
0
62
0
10
0
20
12.96
30
0
11
3.2
21
12.96
31
0
0
LINE
8
0
62
0
10
179.2
20
12.96
30
0
11
176
21
12.96
31
0
0
LINE
8
0
62
0
10
0
20
17.28
30
0
11
3.2
21
17.28
31
0
0
LINE
8
0
62
0
10
179.2
20
17.28
30
0
11
176
21
17.28
31
0
0
LINE
8
0
62
0
10
0
20
21.6
30
0
11
6.4
21
21.6
31
0
0
LINE
8
0
62
0
10
179.2
20
21.6
30
0
11
172.8
21
21.6
31
0
0
TEXT
8
0
62
0
10
-4
20
17.6
30
0
40
8
1
50
50
0
0
LINE
8
0
62
0
10
0
20
25.92
30
0
11
3.2
21
25.92
31
0
0
LINE
8
0
62
0
10
179.2
20
25.92
30
0
11
176
21
25.92
31
0
0
LINE
8
0
62
0
10
0
20
30.24
30
0
11
3.2
21
30.24
31
0
0
LINE
8
0
62
0
10
179.2
20
30.24
30
0
11
176
21
30.24
31
0
0
LINE
8
0
62
0
10
0
20
34.56
30
0
11
3.2
21
34.56
31
0
0
LINE
8
0
62
0
10
179.2
20
34.56
30
0
11
176
21
34.56
31
0
0
LINE
8
0
62
0
10
0
20
38.88
30
0
11
3.2
21
38.88
31
0
0
LINE
8
0
62
0
10
179.2
20
38.88
30
0
11
176
21
38.88
31
0
0
LINE
8
0
62
0
10
0
20
43.2
30
0
11
6.4
21
43.2
31
0
0
LINE
8
0
62
0
10
179.2
20
43.2
30
0
11
172.8
21
43.2
31
0
0
TEXT
8
0
62
0
10
-4
20
39.2
30
0
40
8
1
100
50
0
0
LINE
8
0
62
0
10
0
20
47.52
30
0
11
3.2
21
47.52
31
0
0
LINE
8
0
62
0
10
179.2
20
47.52
30
0
11
176
21
47.52
31
0
0
LINE
8
0
62
0
10
0
20
51.84
30
0
11
3.2
21
51.84
31
0
0
LINE
8
0
62
0
10
179.2
20
51.84
30
0
11
176
21
51.84
31
0
0
LINE
8
0
62
0
10
0
20
56.16
30
0
11
3.2
21
56.16
31
0
0
LINE
8
0
62
0
10
179.2
20
56.16
30
0
11
176
21
56.16
31
0
0
LINE
8
0
62
0
10
0
20
60.48
30
0
11
3.2
21
60.48
31
0
0
LINE
8
0
62
0
10
179.2
20
60.48
30
0
11
176
21
60.48
31
0
0
LINE
8
0
62
0
10
0
20
64.8
30
0
11
6.4
21
64.8
31
0
0
LINE
8
0
62
0
10
179.2
20
64.8
30
0
11
172.8
21
64.8
31
0
0
TEXT
8
0
62
0
10
-4
20
60.8
30
0
40
8
1
150
50
0
0
LINE
8
0
62
0
10
0
20
69.12
30
0
11
3.2
21
69.12
31
0
0
LINE
8
0
62
0
10
179.2
20
69.12
30
0
11
176
21
69.12
31
0
0
LINE
8
0
62
0
10
0
20
73.44
30
0
11
3.2
21
73.44
31
0
0
LINE
8
0
62
0
10
179.2
20
73.44
30
0
11
176
21
73.44
31
0
0
LINE
8
0
62
0
10
0
20
77.76
30
0
11
3.2
21
77.76
31
0
0
LINE
8
0
62
0
10
179.2
20
77.76
30
0
11
176
21
77.76
31
0
0
LINE
8
0
62
0
10
0
20
82.08
30
0
11
3.2
21
82.08
31
0
0
LINE
8
0
62
0
10
179.2
20
82.08
30
0
11
176
21
82.08
31
0
0
LINE
8
0
62
0
10
0
20
86.4
30
0
11
6.4
21
86.4
31
0
0
LINE
8
0
62
0
10
179.2
20
86.4
30
0
11
172.8
21
86.4
31
0
0
TEXT
8
0
62
0
10
-4
20
82.4
30
0
40
8
1
200
50
0
0
LINE
8
0
62
0
10
0
20
90.72
30
0
11
3.2
21
90.72
31
0
0
LINE
8
0
62
0
10
179.2
20
90.72
30
0
11
176
21
90.72
31
0
0
LINE
8
0
62
0
10
0
20
95.04
30
0
11
3.2
21
95.04
31
0
0
LINE
8
0
62
0
10
179.2
20
95.04
30
0
11
176
21
95.04
31
0
0
LINE
8
0
62
0
10
0
20
99.36
30
0
11
3.2
21
99.36
31
0
0
LINE
8
0
62
0
10
179.2
20
99.36
30
0
11
176
21
99.36
31
0
0
LINE
8
0
62
0
10
0
20
103.68
30
0
11
3.2
21
103.68
31
0
0
LINE
8
0
62
0
10
179.2
20
103.68
30
0
11
176
21
103.68
31
0
0
TEXT
8
0
62
0
10
-4
20
104
30
0
40
8
1
250
50
0
0
TEXT
8
0
62
0
10
89.6
20
-32
30
0
40
10
1
R (kpc)
50
0
0
TEXT
8
0
62
0
10
-24
20
54
30
0
40
10
1
V (km/s)
50
90
0
TEXT
8
0
62
0
10
72.6
20
123
30
0
40
11
1
V vs. R
50
0
0
POLYLINE
8
0
62
0
70
0
10
0
20
0
30
0
0
VERTEX
8
0
10
0.7168
20
0
30
0
0
VERTEX
8
0
10
1.4336
20
0
30
0
0
VERTEX
8
0
10
2.1504
20
0
30
0
0
VERTEX
8
0
10
2.8672
20
0
30
0
0
VERTEX
8
0
10
3.584
20
0
30
0
0
VERTEX
8
0
10
4.3008
20
0
30
0
0
VERTEX
8
0
10
5.0176
20
0
30
0
0
VERTEX
8
0
10
5.7344
20
0
30
0
0
VERTEX
8
0
10
6.4512
20
0
30
0
0
VERTEX
8
0
10
7.168
20
0
30
0
0
VERTEX
8
0
10
7.8848
20
0
30
0
0
VERTEX
8
0
10
8.6016
20
0
30
0
0
VERTEX
8
0
10
9.3184
20
0
30
0
0
VERTEX
8
0
10
10.0352
20
0
30
0
0
VERTEX
8
0
10
10.752
20
0
30
0
0
VERTEX
8
0
10
11.4688
20
0
30
0
0
VERTEX
8
0
10
12.1856
20
0
30
0
0
VERTEX
8
0
10
12.9024
20
0
30
0
0
VERTEX
8
0
10
13.6192
20
0
30
0
0
VERTEX
8
0
10
14.336
20
0
30
0
0
VERTEX
8
0
10
15.0528
20
0
30
0
0
VERTEX
8
0
10
15.7696
20
0
30
0
0
VERTEX
8
0
10
16.4864
20
0
30
0
0
VERTEX
8
0
10
17.2032
20
0
30
0
0
VERTEX
8
0
10
17.92
20
0
30
0
0
VERTEX
8
0
10
18.6368
20
0
30
0
0
VERTEX
8
0
10
19.3536
20
0
30
0
0
VERTEX
8
0
10
20.0704
20
0
30
0
0
VERTEX
8
0
10
20.7872
20
0
30
0
0
VERTEX
8
0
10
21.504
20
0
30
0
0
VERTEX
8
0
10
22.2208
20
0
30
0
0
VERTEX
8
0
10
22.9376
20
0
30
0
0
VERTEX
8
0
10
23.6544
20
0
30
0
0
VERTEX
8
0
10
24.3712
20
0
30
0
0
VERTEX
8
0
10
25.088
20
0
30
0
0
VERTEX
8
0
10
25.8048
20
0
30
0
0
VERTEX
8
0
10
26.5216
20
0
30
0
0
VERTEX
8
0
10
27.2384
20
0
30
0
0
VERTEX
8
0
10
27.9552
20
0
30
0
0
VERTEX
8
0
10
28.672
20
0
30
0
0
VERTEX
8
0
10
29.3888
20
0
30
0
0
VERTEX
8
0
10
30.1056
20
0
30
0
0
VERTEX
8
0
10
30.8224
20
0
30
0
0
VERTEX
8
0
10
31.5392
20
0
30
0
0
VERTEX
8
0
10
32.256
20
0
30
0
0
VERTEX
8
0
10
32.9728
20
0
30
0
0
VERTEX
8
0
10
33.6896
20
0
30
0
0
VERTEX
8
0
10
34.4064
20
0
30
0
0
VERTEX
8
0
10
35.1232
20
0
30
0
0
VERTEX
8
0
10
35.84
20
0
30
0
0
VERTEX
8
0
10
36.5568
20
0
30
0
0
VERTEX
8
0
10
37.2736
20
0
30
0
0
VERTEX
8
0
10
37.9904
20
0
30
0
0
VERTEX
8
0
10
38.7072
20
0
30
0
0
VERTEX
8
0
10
39.424
20
0
30
0
0
VERTEX
8
0
10
40.1408
20
0
30
0
0
VERTEX
8
0
10
40.8576
20
0
30
0
0
VERTEX
8
0
10
41.5744
20
0
30
0
0
VERTEX
8
0
10
42.2912
20
0
30
0
0
VERTEX
8
0
10
43.008
20
0
30
0
0
VERTEX
8
0
10
43.7248
20
0
30
0
0
VERTEX
8
0
10
44.4416
20
0
30
0
0
VERTEX
8
0
10
45.1584
20
0
30
0
0
VERTEX
8
0
10
45.8752
20
0
30
0
0
VERTEX
8
0
10
46.592
20
0
30
0
0
VERTEX
8
0
10
47.3088
20
0
30
0
0
VERTEX
8
0
10
48.0256
20
0
30
0
0
VERTEX
8
0
10
48.7424
20
0
30
0
0
VERTEX
8
0
10
49.4592
20
0
30
0
0
VERTEX
8
0
10
50.176
20
0
30
0
0
VERTEX
8
0
10
50.8928
20
0
30
0
0
VERTEX
8
0
10
51.6096
20
0
30
0
0
VERTEX
8
0
10
52.3264
20
0
30
0
0
VERTEX
8
0
10
53.0432
20
0
30
0
0
VERTEX
8
0
10
53.76
20
0
30
0
0
VERTEX
8
0
10
54.4768
20
0
30
0
0
VERTEX
8
0
10
55.1936
20
0
30
0
0
VERTEX
8
0
10
55.9104
20
0
30
0
0
VERTEX
8
0
10
56.6272
20
0
30
0
0
VERTEX
8
0
10
57.344
20
0
30
0
0
VERTEX
8
0
10
58.0608
20
0
30
0
0
VERTEX
8
0
10
58.7776
20
0
30
0
0
VERTEX
8
0
10
59.4944
20
0
30
0
0
VERTEX
8
0
10
60.2112
20
0
30
0
0
VERTEX
8
0
10
60.928
20
0
30
0
0
VERTEX
8
0
10
61.6448
20
0
30
0
0
VERTEX
8
0
10
62.3616
20
0
30
0
0
VERTEX
8
0
10
63.0784
20
0
30
0
0
VERTEX
8
0
10
63.7952
20
0
30
0
0
VERTEX
8
0
10
64.512
20
0
30
0
0
VERTEX
8
0
10
65.2288
20
0
30
0
0
VERTEX
8
0
10
65.9456
20
0
30
0
0
VERTEX
8
0
10
66.6624
20
0
30
0
0
VERTEX
8
0
10
67.3792
20
0
30
0
0
VERTEX
8
0
10
68.096
20
0
30
0
0
VERTEX
8
0
10
68.8128
20
0
30
0
0
VERTEX
8
0
10
69.5296
20
0
30
0
0
VERTEX
8
0
10
70.2464
20
0
30
0
0
VERTEX
8
0
10
70.9632
20
0
30
0
0
VERTEX
8
0
10
71.68
20
0
30
0
0
VERTEX
8
0
10
72.3968
20
0
30
0
0
VERTEX
8
0
10
73.1136
20
0
30
0
0
VERTEX
8
0
10
73.8304
20
0
30
0
0
VERTEX
8
0
10
74.5472
20
0
30
0
0
VERTEX
8
0
10
75.264
20
0
30
0
0
VERTEX
8
0
10
75.9808
20
0
30
0
0
VERTEX
8
0
10
76.6976
20
0
30
0
0
VERTEX
8
0
10
77.4144
20
0
30
0
0
VERTEX
8
0
10
78.1312
20
0
30
0
0
VERTEX
8
0
10
78.848
20
0
30
0
0
VERTEX
8
0
10
79.5648
20
0
30
0
0
VERTEX
8
0
10
80.2816
20
0
30
0
0
VERTEX
8
0
10
80.9984
20
0
30
0
0
VERTEX
8
0
10
81.7152
20
0
30
0
0
VERTEX
8
0
10
82.432
20
0
30
0
0
VERTEX
8
0
10
83.1488
20
0
30
0
0
VERTEX
8
0
10
83.8656
20
0
30
0
0
VERTEX
8
0
10
84.5824
20
0
30
0
0
VERTEX
8
0
10
85.2992
20
0
30
0
0
VERTEX
8
0
10
86.016
20
0
30
0
0
VERTEX
8
0
10
86.7328
20
0
30
0
0
VERTEX
8
0
10
87.4496
20
0
30
0
0
VERTEX
8
0
10
88.1664
20
0
30
0
0
VERTEX
8
0
10
88.8832
20
0
30
0
0
VERTEX
8
0
10
89.6
20
0
30
0
0
VERTEX
8
0
10
90.3168
20
0
30
0
0
VERTEX
8
0
10
91.0336
20
0
30
0
0
VERTEX
8
0
10
91.7504
20
0
30
0
0
VERTEX
8
0
10
92.4672
20
0
30
0
0
VERTEX
8
0
10
93.184
20
0
30
0
0
VERTEX
8
0
10
93.9008
20
0
30
0
0
VERTEX
8
0
10
94.6176
20
0
30
0
0
VERTEX
8
0
10
95.3344
20
0
30
0
0
VERTEX
8
0
10
96.0512
20
0
30
0
0
VERTEX
8
0
10
96.768
20
0
30
0
0
VERTEX
8
0
10
97.4848
20
0
30
0
0
VERTEX
8
0
10
98.2016
20
0
30
0
0
VERTEX
8
0
10
98.9184
20
0
30
0
0
VERTEX
8
0
10
99.6352
20
0
30
0
0
VERTEX
8
0
10
100.352
20
0
30
0
0
VERTEX
8
0
10
101.0688
20
0
30
0
0
VERTEX
8
0
10
101.7856
20
0
30
0
0
VERTEX
8
0
10
102.5024
20
0
30
0
0
VERTEX
8
0
10
103.2192
20
0
30
0
0
VERTEX
8
0
10
103.936
20
0
30
0
0
VERTEX
8
0
10
104.6528
20
0
30
0
0
VERTEX
8
0
10
105.3696
20
0
30
0
0
VERTEX
8
0
10
106.0864
20
0
30
0
0
VERTEX
8
0
10
106.8032
20
0
30
0
0
VERTEX
8
0
10
107.52
20
0
30
0
0
VERTEX
8
0
10
108.2368
20
0
30
0
0
VERTEX
8
0
10
108.9536
20
0
30
0
0
VERTEX
8
0
10
109.6704
20
0
30
0
0
VERTEX
8
0
10
110.3872
20
0
30
0
0
VERTEX
8
0
10
111.104
20
0
30
0
0
VERTEX
8
0
10
111.8208
20
0
30
0
0
VERTEX
8
0
10
112.5376
20
0
30
0
0
VERTEX
8
0
10
113.2544
20
0
30
0
0
VERTEX
8
0
10
113.9712
20
0
30
0
0
VERTEX
8
0
10
114.688
20
0
30
0
0
VERTEX
8
0
10
115.4048
20
0
30
0
0
VERTEX
8
0
10
116.1216
20
0
30
0
0
VERTEX
8
0
10
116.8384
20
0
30
0
0
VERTEX
8
0
10
117.5552
20
0
30
0
0
VERTEX
8
0
10
118.272
20
0
30
0
0
VERTEX
8
0
10
118.9888
20
0
30
0
0
VERTEX
8
0
10
119.7056
20
0
30
0
0
VERTEX
8
0
10
120.4224
20
0
30
0
0
VERTEX
8
0
10
121.1392
20
0
30
0
0
VERTEX
8
0
10
121.856
20
0
30
0
0
VERTEX
8
0
10
122.5728
20
0
30
0
0
VERTEX
8
0
10
123.2896
20
0
30
0
0
VERTEX
8
0
10
124.0064
20
0
30
0
0
VERTEX
8
0
10
124.7232
20
0
30
0
0
VERTEX
8
0
10
125.44
20
0
30
0
0
VERTEX
8
0
10
126.1568
20
0
30
0
0
VERTEX
8
0
10
126.8736
20
0
30
0
0
VERTEX
8
0
10
127.5904
20
0
30
0
0
VERTEX
8
0
10
128.3072
20
0
30
0
0
VERTEX
8
0
10
129.024
20
0
30
0
0
VERTEX
8
0
10
129.7408
20
0
30
0
0
VERTEX
8
0
10
130.4576
20
0
30
0
0
VERTEX
8
0
10
131.1744
20
0
30
0
0
VERTEX
8
0
10
131.8912
20
0
30
0
0
VERTEX
8
0
10
132.608
20
0
30
0
0
VERTEX
8
0
10
133.3248
20
0
30
0
0
VERTEX
8
0
10
134.0416
20
0
30
0
0
VERTEX
8
0
10
134.7584
20
0
30
0
0
VERTEX
8
0
10
135.4752
20
0
30
0
0
VERTEX
8
0
10
136.192
20
0
30
0
0
VERTEX
8
0
10
136.9088
20
0
30
0
0
VERTEX
8
0
10
137.6256
20
0
30
0
0
VERTEX
8
0
10
138.3424
20
0
30
0
0
VERTEX
8
0
10
139.0592
20
0
30
0
0
VERTEX
8
0
10
139.776
20
0
30
0
0
VERTEX
8
0
10
140.4928
20
0
30
0
0
VERTEX
8
0
10
141.2096
20
0
30
0
0
VERTEX
8
0
10
141.9264
20
0
30
0
0
VERTEX
8
0
10
142.6432
20
0
30
0
0
VERTEX
8
0
10
143.36
20
0
30
0
0
VERTEX
8
0
10
144.0768
20
0
30
0
0
VERTEX
8
0
10
144.7936
20
0
30
0
0
VERTEX
8
0
10
145.5104
20
0
30
0
0
VERTEX
8
0
10
146.2272
20
0
30
0
0
VERTEX
8
0
10
146.944
20
0
30
0
0
VERTEX
8
0
10
147.6608
20
0
30
0
0
VERTEX
8
0
10
148.3776
20
0
30
0
0
VERTEX
8
0
10
149.0944
20
0
30
0
0
VERTEX
8
0
10
149.8112
20
0
30
0
0
VERTEX
8
0
10
150.528
20
0
30
0
0
VERTEX
8
0
10
151.2448
20
0
30
0
0
VERTEX
8
0
10
151.9616
20
0
30
0
0
VERTEX
8
0
10
152.6784
20
0
30
0
0
VERTEX
8
0
10
153.3952
20
0
30
0
0
VERTEX
8
0
10
154.112
20
0
30
0
0
VERTEX
8
0
10
154.8288
20
0
30
0
0
VERTEX
8
0
10
155.5456
20
0
30
0
0
VERTEX
8
0
10
156.2624
20
0
30
0
0
VERTEX
8
0
10
156.9792
20
0
30
0
0
VERTEX
8
0
10
157.696
20
0
30
0
0
SEQEND
8
0
0
POLYLINE
8
0
62
1
70
0
10
0
20
0
30
0
0
VERTEX
8
0
10
0.7168
20
0
30
0
0
VERTEX
8
0
10
1.4336
20
0
30
0
0
VERTEX
8
0
10
2.1504
20
0
30
0
0
VERTEX
8
0
10
2.8672
20
0
30
0
0
VERTEX
8
0
10
3.584
20
0
30
0
0
VERTEX
8
0
10
4.3008
20
0
30
0
0
VERTEX
8
0
10
5.0176
20
0
30
0
0
VERTEX
8
0
10
5.7344
20
0
30
0
0
VERTEX
8
0
10
6.4512
20
0
30
0
0
VERTEX
8
0
10
7.168
20
0
30
0
0
VERTEX
8
0
10
7.8848
20
0
30
0
0
VERTEX
8
0
10
8.6016
20
0
30
0
0
VERTEX
8
0
10
9.3184
20
0
30
0
0
VERTEX
8
0
10
10.0352
20
0
30
0
0
VERTEX
8
0
10
10.752
20
0
30
0
0
VERTEX
8
0
10
11.4688
20
0
30
0
0
VERTEX
8
0
10
12.1856
20
0
30
0
0
VERTEX
8
0
10
12.9024
20
0
30
0
0
VERTEX
8
0
10
13.6192
20
0
30
0
0
VERTEX
8
0
10
14.336
20
0
30
0
0
VERTEX
8
0
10
15.0528
20
0
30
0
0
VERTEX
8
0
10
15.7696
20
0
30
0
0
VERTEX
8
0
10
16.4864
20
0
30
0
0
VERTEX
8
0
10
17.2032
20
0
30
0
0
VERTEX
8
0
10
17.92
20
0
30
0
0
VERTEX
8
0
10
18.6368
20
0
30
0
0
VERTEX
8
0
10
19.3536
20
0
30
0
0
VERTEX
8
0
10
20.0704
20
0
30
0
0
VERTEX
8
0
10
20.7872
20
0
30
0
0
VERTEX
8
0
10
21.504
20
0
30
0
0
VERTEX
8
0
10
22.2208
20
0
30
0
0
VERTEX
8
0
10
22.9376
20
0
30
0
0
VERTEX
8
0
10
23.6544
20
0
30
0
0
VERTEX
8
0
10
24.3712
20
0
30
0
0
VERTEX
8
0
10
25.088
20
0
30
0
0
VERTEX
8
0
10
25.8048
20
0
30
0
0
VERTEX
8
0
10
26.5216
20
0
30
0
0
VERTEX
8
0
10
27.2384
20
0
30
0
0
VERTEX
8
0
10
27.9552
20
0
30
0
0
VERTEX
8
0
10
28.672
20
0
30
0
0
VERTEX
8
0
10
29.3888
20
0
30
0
0
VERTEX
8
0
10
30.1056
20
0
30
0
0
VERTEX
8
0
10
30.8224
20
0
30
0
0
VERTEX
8
0
10
31.5392
20
0
30
0
0
VERTEX
8
0
10
32.256
20
0
30
0
0
VERTEX
8
0
10
32.9728
20
0
30
0
0
VERTEX
8
0
10
33.6896
20
0
30
0
0
VERTEX
8
0
10
34.4064
20
0
30
0
0
VERTEX
8
0
10
35.1232
20
0
30
0
0
VERTEX
8
0
10
35.84
20
0
30
0
0
VERTEX
8
0
10
36.5568
20
0
30
0
0
VERTEX
8
0
10
37.2736
20
0
30
0
0
VERTEX
8
0
10
37.9904
20
0
30
0
0
VERTEX
8
0
10
38.7072
20
0
30
0
0
VERTEX
8
0
10
39.424
20
0
30
0
0
VERTEX
8
0
10
40.1408
20
0
30
0
0
VERTEX
8
0
10
40.8576
20
0
30
0
0
VERTEX
8
0
10
41.5744
20
0
30
0
0
VERTEX
8
0
10
42.2912
20
0
30
0
0
VERTEX
8
0
10
43.008
20
0
30
0
0
VERTEX
8
0
10
43.7248
20
0
30
0
0
VERTEX
8
0
10
44.4416
20
0
30
0
0
VERTEX
8
0
10
45.1584
20
0
30
0
0
VERTEX
8
0
10
45.8752
20
0
30
0
0
VERTEX
8
0
10
46.592
20
0
30
0
0
VERTEX
8
0
10
47.3088
20
0
30
0
0
VERTEX
8
0
10
48.0256
20
0
30
0
0
VERTEX
8
0
10
48.7424
20
0
30
0
0
VERTEX
8
0
10
49.4592
20
0
30
0
0
VERTEX
8
0
10
50.176
20
0
30
0
0
VERTEX
8
0
10
50.8928
20
0
30
0
0
VERTEX
8
0
10
51.6096
20
0
30
0
0
VERTEX
8
0
10
52.3264
20
0
30
0
0
VERTEX
8
0
10
53.0432
20
0
30
0
0
VERTEX
8
0
10
53.76
20
0
30
0
0
VERTEX
8
0
10
54.4768
20
0
30
0
0
VERTEX
8
0
10
55.1936
20
0
30
0
0
VERTEX
8
0
10
55.9104
20
0
30
0
0
VERTEX
8
0
10
56.6272
20
0
30
0
0
VERTEX
8
0
10
57.344
20
0
30
0
0
VERTEX
8
0
10
58.0608
20
0
30
0
0
VERTEX
8
0
10
58.7776
20
0
30
0
0
VERTEX
8
0
10
59.4944
20
0
30
0
0
VERTEX
8
0
10
60.2112
20
0
30
0
0
VERTEX
8
0
10
60.928
20
0
30
0
0
VERTEX
8
0
10
61.6448
20
0
30
0
0
VERTEX
8
0
10
62.3616
20
0
30
0
0
VERTEX
8
0
10
63.0784
20
0
30
0
0
VERTEX
8
0
10
63.7952
20
0
30
0
0
VERTEX
8
0
10
64.512
20
0
30
0
0
VERTEX
8
0
10
65.2288
20
0
30
0
0
VERTEX
8
0
10
65.9456
20
0
30
0
0
VERTEX
8
0
10
66.6624
20
0
30
0
0
VERTEX
8
0
10
67.3792
20
0
30
0
0
VERTEX
8
0
10
68.096
20
0
30
0
0
VERTEX
8
0
10
68.8128
20
0
30
0
0
VERTEX
8
0
10
69.5296
20
0
30
0
0
VERTEX
8
0
10
70.2464
20
0
30
0
0
VERTEX
8
0
10
70.9632
20
0
30
0
0
VERTEX
8
0
10
71.68
20
0
30
0
0
VERTEX
8
0
10
72.3968
20
0
30
0
0
VERTEX
8
0
10
73.1136
20
0
30
0
0
VERTEX
8
0
10
73.8304
20
0
30
0
0
VERTEX
8
0
10
74.5472
20
0
30
0
0
VERTEX
8
0
10
75.264
20
0
30
0
0
VERTEX
8
0
10
75.9808
20
0
30
0
0
VERTEX
8
0
10
76.6976
20
0
30
0
0
VERTEX
8
0
10
77.4144
20
0
30
0
0
VERTEX
8
0
10
78.1312
20
0
30
0
0
VERTEX
8
0
10
78.848
20
0
30
0
0
VERTEX
8
0
10
79.5648
20
0
30
0
0
VERTEX
8
0
10
80.2816
20
0
30
0
0
VERTEX
8
0
10
80.9984
20
0
30
0
0
VERTEX
8
0
10
81.7152
20
0
30
0
0
VERTEX
8
0
10
82.432
20
0
30
0
0
VERTEX
8
0
10
83.1488
20
0
30
0
0
VERTEX
8
0
10
83.8656
20
0
30
0
0
VERTEX
8
0
10
84.5824
20
0
30
0
0
VERTEX
8
0
10
85.2992
20
0
30
0
0
VERTEX
8
0
10
86.016
20
0
30
0
0
VERTEX
8
0
10
86.7328
20
0
30
0
0
VERTEX
8
0
10
87.4496
20
0
30
0
0
VERTEX
8
0
10
88.1664
20
0
30
0
0
VERTEX
8
0
10
88.8832
20
0
30
0
0
VERTEX
8
0
10
89.6
20
0
30
0
0
VERTEX
8
0
10
90.3168
20
0
30
0
0
VERTEX
8
0
10
91.0336
20
0
30
0
0
VERTEX
8
0
10
91.7504
20
0
30
0
0
VERTEX
8
0
10
92.4672
20
0
30
0
0
VERTEX
8
0
10
93.184
20
0
30
0
0
VERTEX
8
0
10
93.9008
20
0
30
0
0
VERTEX
8
0
10
94.6176
20
0
30
0
0
VERTEX
8
0
10
95.3344
20
0
30
0
0
VERTEX
8
0
10
96.0512
20
0
30
0
0
VERTEX
8
0
10
96.768
20
0
30
0
0
VERTEX
8
0
10
97.4848
20
0
30
0
0
VERTEX
8
0
10
98.2016
20
0
30
0
0
VERTEX
8
0
10
98.9184
20
0
30
0
0
VERTEX
8
0
10
99.6352
20
0
30
0
0
VERTEX
8
0
10
100.352
20
0
30
0
0
VERTEX
8
0
10
101.0688
20
0
30
0
0
VERTEX
8
0
10
101.7856
20
0
30
0
0
VERTEX
8
0
10
102.5024
20
0
30
0
0
VERTEX
8
0
10
103.2192
20
0
30
0
0
VERTEX
8
0
10
103.936
20
0
30
0
0
VERTEX
8
0
10
104.6528
20
0
30
0
0
VERTEX
8
0
10
105.3696
20
0
30
0
0
VERTEX
8
0
10
106.0864
20
0
30
0
0
VERTEX
8
0
10
106.8032
20
0
30
0
0
VERTEX
8
0
10
107.52
20
0
30
0
0
VERTEX
8
0
10
108.2368
20
0
30
0
0
VERTEX
8
0
10
108.9536
20
0
30
0
0
VERTEX
8
0
10
109.6704
20
0
30
0
0
VERTEX
8
0
10
110.3872
20
0
30
0
0
VERTEX
8
0
10
111.104
20
0
30
0
0
VERTEX
8
0
10
111.8208
20
0
30
0
0
VERTEX
8
0
10
112.5376
20
0
30
0
0
VERTEX
8
0
10
113.2544
20
0
30
0
0
VERTEX
8
0
10
113.9712
20
0
30
0
0
VERTEX
8
0
10
114.688
20
0
30
0
0
VERTEX
8
0
10
115.4048
20
0
30
0
0
VERTEX
8
0
10
116.1216
20
0
30
0
0
VERTEX
8
0
10
116.8384
20
0
30
0
0
VERTEX
8
0
10
117.5552
20
0
30
0
0
VERTEX
8
0
10
118.272
20
0
30
0
0
VERTEX
8
0
10
118.9888
20
0
30
0
0
VERTEX
8
0
10
119.7056
20
0
30
0
0
VERTEX
8
0
10
120.4224
20
0
30
0
0
VERTEX
8
0
10
121.1392
20
0
30
0
0
VERTEX
8
0
10
121.856
20
0
30
0
0
VERTEX
8
0
10
122.5728
20
0
30
0
0
VERTEX
8
0
10
123.2896
20
0
30
0
0
VERTEX
8
0
10
124.0064
20
0
30
0
0
VERTEX
8
0
10
124.7232
20
0
30
0
0
VERTEX
8
0
10
125.44
20
0
30
0
0
VERTEX
8
0
10
126.1568
20
0
30
0
0
VERTEX
8
0
10
126.8736
20
0
30
0
0
VERTEX
8
0
10
127.5904
20
0
30
0
0
VERTEX
8
0
10
128.3072
20
0
30
0
0
VERTEX
8
0
10
129.024
20
0
30
0
0
VERTEX
8
0
10
129.7408
20
0
30
0
0
VERTEX
8
0
10
130.4576
20
0
30
0
0
VERTEX
8
0
10
131.1744
20
0
30
0
0
VERTEX
8
0
10
131.8912
20
0
30
0
0
VERTEX
8
0
10
132.608
20
0
30
0
0
VERTEX
8
0
10
133.3248
20
0
30
0
0
VERTEX
8
0
10
134.0416
20
0
30
0
0
VERTEX
8
0
10
134.7584
20
0
30
0
0
VERTEX
8
0
10
135.4752
20
0
30
0
0
VERTEX
8
0
10
136.192
20
0
30
0
0
VERTEX
8
0
10
136.9088
20
0
30
0
0
VERTEX
8
0
10
137.6256
20
0
30
0
0
VERTEX
8
0
10
138.3424
20
0
30
0
0
VERTEX
8
0
10
139.0592
20
0
30
0
0
VERTEX
8
0
10
139.776
20
0
30
0
0
VERTEX
8
0
10
140.4928
20
0
30
0
0
VERTEX
8
0
10
141.2096
20
0
30
0
0
VERTEX
8
0
10
141.9264
20
0
30
0
0
VERTEX
8
0
10
142.6432
20
0
30
0
0
VERTEX
8
0
10
143.36
20
0
30
0
0
VERTEX
8
0
10
144.0768
20
0
30
0
0
VERTEX
8
0
10
144.7936
20
0
30
0
0
VERTEX
8
0
10
145.5104
20
0
30
0
0
VERTEX
8
0
10
146.2272
20
0
30
0
0
VERTEX
8
0
10
146.944
20
0
30
0
0
VERTEX
8
0
10
147.6608
20
0
30
0
0
VERTEX
8
0
10
148.3776
20
0
30
0
0
VERTEX
8
0
10
149.0944
20
0
30
0
0
VERTEX
8
0
10
149.8112
20
0
30
0
0
VERTEX
8
0
10
150.528
20
0
30
0
0
VERTEX
8
0
10
151.2448
20
0
30
0
0
VERTEX
8
0
10
151.9616
20
0
30
0
0
VERTEX
8
0
10
152.6784
20
0
30
0
0
VERTEX
8
0
10
153.3952
20
0
30
0
0
VERTEX
8
0
10
154.112
20
0
30
0
0
VERTEX
8
0
10
154.8288
20
0
30
0
0
VERTEX
8
0
10
155.5456
20
0
30
0
0
VERTEX
8
0
10
156.2624
20
0
30
0
0
VERTEX
8
0
10
156.9792
20
0
30
0
0
VERTEX
8
0
10
157.696
20
0
30
0
0
SEQEND
8
0
0
POLYLINE
8
0
62
2
70
0
10
0
20
0
30
0
0
VERTEX
8
0
10
0.7168
20
8.83586891072293
30
0
0
VERTEX
8
0
10
1.4336
20
16.9819863805161
30
0
0
VERTEX
8
0
10
2.1504
20
24.4461765390547
30
0
0
VERTEX
8
0
10
2.8672
20
31.2322639392269
30
0
0
VERTEX
8
0
10
3.584
20
37.3450178190416
30
0
0
VERTEX
8
0
10
4.3008
20
42.7900651248153
30
0
0
VERTEX
8
0
10
5.0176
20
47.5738563062118
30
0
0
VERTEX
8
0
10
5.7344
20
51.7039965031503
30
0
0
VERTEX
8
0
10
6.4512
20
55.1897332246943
30
0
0
VERTEX
8
0
10
7.168
20
58.0424989230957
30
0
0
VERTEX
8
0
10
7.8848
20
60.2765438092172
30
0
0
VERTEX
8
0
10
8.6016
20
61.9097416926285
30
0
0
VERTEX
8
0
10
9.3184
20
62.964668646271
30
0
0
VERTEX
8
0
10
10.0352
20
63.4700741081653
30
0
0
VERTEX
8
0
10
10.752
20
63.4628961414475
30
0
0
VERTEX
8
0
10
11.4688
20
62.9910157909927
30
0
0
VERTEX
8
0
10
12.1856
20
62.1169884124348
30
0
0
VERTEX
8
0
10
12.9024
20
60.9230007649245
30
0
0
VERTEX
8
0
10
13.6192
20
59.517212243545
30
0
0
VERTEX
8
0
10
14.336
20
58.0415136031527
30
0
0
VERTEX
8
0
10
15.0528
20
56.6420768838709
30
0
0
VERTEX
8
0
10
15.7696
20
55.3395683567676
30
0
0
VERTEX
8
0
10
16.4864
20
54.1230409678956
30
0
0
VERTEX
8
0
10
17.2032
20
52.9833988122455
30
0
0
VERTEX
8
0
10
17.92
20
51.9128584484468
30
0
0
VERTEX
8
0
10
18.6368
20
50.9047023057325
30
0
0
VERTEX
8
0
10
19.3536
20
49.953095032717
30
0
0
VERTEX
8
0
10
20.0704
20
49.0529388936219
30
0
0
VERTEX
8
0
10
20.7872
20
48.1997576516676
30
0
0
VERTEX
8
0
10
21.504
20
47.3896022349041
30
0
0
VERTEX
8
0
10
22.2208
20
46.6189734139132
30
0
0
VERTEX
8
0
10
22.9376
20
45.884757941966
30
0
0
VERTEX
8
0
10
23.6544
20
45.1841754558228
30
0
0
VERTEX
8
0
10
24.3712
20
44.5147340501669
30
0
0
VERTEX
8
0
10
25.088
20
43.8741928956283
30
0
0
VERTEX
8
0
10
25.8048
20
43.2605306155099
30
0
0
VERTEX
8
0
10
26.5216
20
42.6719184001999
30
0
0
VERTEX
8
0
10
27.2384
20
42.1066970420135
30
0
0
VERTEX
8
0
10
27.9552
20
41.5633572318982
30
0
0
VERTEX
8
0
10
28.672
20
41.0405225840025
30
0
0
VERTEX
8
0
10
29.3888
20
40.536934952579
30
0
0
VERTEX
8
0
10
30.1056
20
40.0514416840487
30
0
0
VERTEX
8
0
10
30.8224
20
39.5829845097967
30
0
0
VERTEX
8
0
10
31.5392
20
39.1305898357915
30
0
0
VERTEX
8
0
10
32.256
20
38.6933602260348
30
0
0
VERTEX
8
0
10
32.9728
20
38.2704669101527
30
0
0
VERTEX
8
0
10
33.6896
20
37.8611431726771
30
0
0
VERTEX
8
0
10
34.4064
20
37.4646785039529
30
0
0
VERTEX
8
0
10
35.1232
20
37.0804134110903
30
0
0
VERTEX
8
0
10
35.84
20
36.707734802698
30
0
0
VERTEX
8
0
10
36.5568
20
36.3460718738894
30
0
0
VERTEX
8
0
10
37.2736
20
35.9948924287092
30
0
0
VERTEX
8
0
10
37.9904
20
35.653699586068
30
0
0
VERTEX
8
0
10
38.7072
20
35.3220288227984
30
0
0
VERTEX
8
0
10
39.424
20
34.999445313799
30
0
0
VERTEX
8
0
10
40.1408
20
34.6855415346229
30
0
0
VERTEX
8
0
10
40.8576
20
34.3799350964466
30
0
0
VERTEX
8
0
10
41.5744
20
34.0822667872576
30
0
0
VERTEX
8
0
10
42.2912
20
33.7921987964425
30
0
0
VERTEX
8
0
10
43.008
20
33.5094131028217
30
0
0
VERTEX
8
0
10
43.7248
20
33.2336100086386
30
0
0
VERTEX
8
0
10
44.4416
20
32.9645068041392
30
0
0
VERTEX
8
0
10
45.1584
20
32.7018365492116
30
0
0
VERTEX
8
0
10
45.8752
20
32.4453469601499
30
0
0
VERTEX
8
0
10
46.592
20
32.1947993909871
30
0
0
VERTEX
8
0
10
47.3088
20
31.949967900047
30
0
0
VERTEX
8
0
10
48.0256
20
31.710638393417
30
0
0
VERTEX
8
0
10
48.7424
20
31.4766078379589
30
0
0
VERTEX
8
0
10
49.4592
20
31.2476835372855
30
0
0
VERTEX
8
0
10
50.176
20
31.0236824648311
30
0
0
VERTEX
8
0
10
50.8928
20
30.8044306487742
30
0
0
VERTEX
8
0
10
51.6096
20
30.5897626041103
30
0
0
VERTEX
8
0
10
52.3264
20
30.3795208076649
30
0
0
VERTEX
8
0
10
53.0432
20
30.1735552122609
30
0
0
VERTEX
8
0
10
53.76
20
29.9717227966342
30
0
0
VERTEX
8
0
10
54.4768
20
29.7738871480316
30
0
0
VERTEX
8
0
10
55.1936
20
29.5799180747221
30
0
0
VERTEX
8
0
10
55.9104
20
29.3896912459197
30
0
0
VERTEX
8
0
10
56.6272
20
29.2030878568573
30
0
0
VERTEX
8
0
10
57.344
20
29.0199943169587
30
0
0
VERTEX
8
0
10
58.0608
20
28.8403019592523
30
0
0
VERTEX
8
0
10
58.7776
20
28.6639067693347
30
0
0
VERTEX
8
0
10
59.4944
20
28.4907091323509
30
0
0
VERTEX
8
0
10
60.2112
20
28.3206135965901
30
0
0
VERTEX
8
0
10
60.928
20
28.1535286524261
30
0
0
VERTEX
8
0
10
61.6448
20
27.989366525435
30
0
0
VERTEX
8
0
10
62.3616
20
27.8280429826313
30
0
0
VERTEX
8
0
10
63.0784
20
27.6694771508494
30
0
0
VERTEX
8
0
10
63.7952
20
27.5135913463797
30
0
0
VERTEX
8
0
10
64.512
20
27.3603109150463
30
0
0
VERTEX
8
0
10
65.2288
20
27.2095640819769
30
0
0
VERTEX
8
0
10
65.9456
20
27.061281810379
30
0
0
VERTEX
8
0
10
66.6624
20
26.9153976686905
30
0
0
VERTEX
8
0
10
67.3792
20
26.7718477055246
30
0
0
VERTEX
8
0
10
68.096
20
26.6305703318744
30
0
0
VERTEX
8
0
10
68.8128
20
26.4915062100836
30
0
0
VERTEX
8
0
10
69.5296
20
26.3545981491293
30
0
0
VERTEX
8
0
10
70.2464
20
26.2197910057973
30
0
0
VERTEX
8
0
10
70.9632
20
26.0870315913615
30
0
0
VERTEX
8
0
10
71.68
20
25.956268583409
30
0
0
VERTEX
8
0
10
72.3968
20
25.8274524424789
30
0
0
VERTEX
8
0
10
73.1136
20
25.7005353332073
30
0
0
VERTEX
8
0
10
73.8304
20
25.5754710496931
30
0
0
VERTEX
8
0
10
74.5472
20
25.4522149448213
30
0
0
VERTEX
8
0
10
75.264
20
25.330723863296
30
0
0
VERTEX
8
0
10
75.9808
20
25.2109560781577
30
0
0
VERTEX
8
0
10
76.6976
20
25.0928712305706
30
0
0
VERTEX
8
0
10
77.4144
20
24.9764302726841
30
0
0
VERTEX
8
0
10
78.1312
20
24.8615954133835
30
0
0
VERTEX
8
0
10
78.848
20
24.7483300667603
30
0
0
VERTEX
8
0
10
79.5648
20
24.6365988031406
30
0
0
VERTEX
8
0
10
80.2816
20
24.5263673025245
30
0
0
VERTEX
8
0
10
80.9984
20
24.4176023102966
30
0
0
VERTEX
8
0
10
81.7152
20
24.310271595078
30
0
0
VERTEX
8
0
10
82.432
20
24.2043439085987
30
0
0
VERTEX
8
0
10
83.1488
20
24.0997889474763
30
0
0
VERTEX
8
0
10
83.8656
20
23.9965773167957
30
0
0
VERTEX
8
0
10
84.5824
20
23.8946804953901
30
0
0
VERTEX
8
0
10
85.2992
20
23.7940708027298
30
0
0
VERTEX
8
0
10
86.016
20
23.6947213673318
30
0
0
VERTEX
8
0
10
86.7328
20
23.5966060966084
30
0
0
VERTEX
8
0
10
87.4496
20
23.4996996480782
30
0
0
VERTEX
8
0
10
88.1664
20
23.4039774018665
30
0
0
VERTEX
8
0
10
88.8832
20
23.3094154344284
30
0
0
VERTEX
8
0
10
89.6
20
23.2159904934302
30
0
0
VERTEX
8
0
10
90.3168
20
23.1236799737294
30
0
0
VERTEX
8
0
10
91.0336
20
23.0324618943973
30
0
0
VERTEX
8
0
10
91.7504
20
22.9423148767305
30
0
0
VERTEX
8
0
10
92.4672
20
22.8532181232019
30
0
0
VERTEX
8
0
10
93.184
20
22.7651513973042
30
0
0
VERTEX
8
0
10
93.9008
20
22.6780950042409
30
0
0
VERTEX
8
0
10
94.6176
20
22.5920297724234
30
0
0
VERTEX
8
0
10
95.3344
20
22.5069370357352
30
0
0
VERTEX
8
0
10
96.0512
20
22.4227986165248
30
0
0
VERTEX
8
0
10
96.768
20
22.3395968092934
30
0
0
VERTEX
8
0
10
97.4848
20
22.2573143650428
30
0
0
VERTEX
8
0
10
98.2016
20
22.1759344762535
30
0
0
VERTEX
8
0
10
98.9184
20
22.0954407624624
30
0
0
VERTEX
8
0
10
99.6352
20
22.0158172564117
30
0
0
VERTEX
8
0
10
100.352
20
21.9370483907441
30
0
0
VERTEX
8
0
10
101.0688
20
21.8591189852162
30
0
0
VERTEX
8
0
10
101.7856
20
21.7820142344099
30
0
0
VERTEX
8
0
10
102.5024
20
21.7057196959158
30
0
0
VERTEX
8
0
10
103.2192
20
21.6302212789696
30
0
0
VERTEX
8
0
10
103.936
20
21.5555052335199
30
0
0
VERTEX
8
0
10
104.6528
20
21.4815581397085
30
0
0
VERTEX
8
0
10
105.3696
20
21.4083668977454
30
0
0
VERTEX
8
0
10
106.0864
20
21.33591871816
30
0
0
VERTEX
8
0
10
106.8032
20
21.2642011124137
30
0
0
VERTEX
8
0
10
107.52
20
21.1932018838563
30
0
0
VERTEX
8
0
10
108.2368
20
21.1229091190129
30
0
0
VERTEX
8
0
10
108.9536
20
21.0533111791866
30
0
0
VERTEX
8
0
10
109.6704
20
20.9843966923636
30
0
0
VERTEX
8
0
10
110.3872
20
20.9161545454074
30
0
0
VERTEX
8
0
10
111.104
20
20.8485738765313
30
0
0
VERTEX
8
0
10
111.8208
20
20.7816440680355
30
0
0
VERTEX
8
0
10
112.5376
20
20.7153547393004
30
0
0
VERTEX
8
0
10
113.2544
20
20.6496957400232
30
0
0
VERTEX
8
0
10
113.9712
20
20.5846571436893
30
0
0
VERTEX
8
0
10
114.688
20
20.5202292412681
30
0
0
VERTEX
8
0
10
115.4048
20
20.4564025351253
30
0
0
VERTEX
8
0
10
116.1216
20
20.3931677331408
30
0
0
VERTEX
8
0
10
116.8384
20
20.330515743027
30
0
0
VERTEX
8
0
10
117.5552
20
20.2684376668368
30
0
0
VERTEX
8
0
10
118.272
20
20.2069247956552
30
0
0
VERTEX
8
0
10
118.9888
20
20.1459686044677
30
0
0
VERTEX
8
0
10
119.7056
20
20.0855607471965
30
0
0
VERTEX
8
0
10
120.4224
20
20.0256930519015
30
0
0
VERTEX
8
0
10
121.1392
20
19.9663575161354
30
0
0
VERTEX
8
0
10
121.856
20
19.9075463024515
30
0
0
VERTEX
8
0
10
122.5728
20
19.8492517340545
30
0
0
VERTEX
8
0
10
123.2896
20
19.7914662905917
30
0
0
VERTEX
8
0
10
124.0064
20
19.7341826040773
30
0
0
VERTEX
8
0
10
124.7232
20
19.6773934549467
30
0
0
VERTEX
8
0
10
125.44
20
19.621091768234
30
0
0
VERTEX
8
0
10
126.1568
20
19.5652706098699
30
0
0
VERTEX
8
0
10
126.8736
20
19.5099231830943
30
0
0
VERTEX
8
0
10
127.5904
20
19.4550428249801
30
0
0
VERTEX
8
0
10
128.3072
20
19.400623003064
30
0
0
VERTEX
8
0
10
129.024
20
19.3466573120805
30
0
0
VERTEX
8
0
10
129.7408
20
19.2931394707948
30
0
0
VERTEX
8
0
10
130.4576
20
19.2400633189321
30
0
0
VERTEX
8
0
10
131.1744
20
19.187422814199
30
0
0
VERTEX
8
0
10
131.8912
20
19.1352120293941
30
0
0
VERTEX
8
0
10
132.608
20
19.0834251496046
30
0
0
VERTEX
8
0
10
133.3248
20
19.0320564694864
30
0
0
VERTEX
8
0
10
134.0416
20
18.9811003906232
30
0
0
VERTEX
8
0
10
134.7584
20
18.9305514189642
30
0
0
VERTEX
8
0
10
135.4752
20
18.8804041623353
30
0
0
VERTEX
8
0
10
136.192
20
18.8306533280239
30
0
0
VERTEX
8
0
10
136.9088
20
18.7812937204316
30
0
0
VERTEX
8
0
10
137.6256
20
18.7323202387956
30
0
0
VERTEX
8
0
10
138.3424
20
18.6837278749744
30
0
0
VERTEX
8
0
10
139.0592
20
18.6355117112968
30
0
0
VERTEX
8
0
10
139.776
20
18.5876669184714
30
0
0
VERTEX
8
0
10
140.4928
20
18.5401887535544
30
0
0
VERTEX
8
0
10
141.2096
20
18.4930725579754
30
0
0
VERTEX
8
0
10
141.9264
20
18.4463137556169
30
0
0
VERTEX
8
0
10
142.6432
20
18.3999078509476
30
0
0
VERTEX
8
0
10
143.36
20
18.3538504272068
30
0
0
VERTEX
8
0
10
144.0768
20
18.3081371446388
30
0
0
VERTEX
8
0
10
144.7936
20
18.2627637387754
30
0
0
VERTEX
8
0
10
145.5104
20
18.2177260187645
30
0
0
VERTEX
8
0
10
146.2272
20
18.1730198657447
30
0
0
VERTEX
8
0
10
146.944
20
18.1286412312628
30
0
0
VERTEX
8
0
10
147.6608
20
18.0845861357339
30
0
0
VERTEX
8
0
10
148.3776
20
18.0408506669423
30
0
0
VERTEX
8
0
10
149.0944
20
17.9974309785828
30
0
0
VERTEX
8
0
10
149.8112
20
17.9543232888391
30
0
0
VERTEX
8
0
10
150.528
20
17.9115238790008
30
0
0
VERTEX
8
0
10
151.2448
20
17.8690290921158
30
0
0
VERTEX
8
0
10
151.9616
20
17.8268353316775
30
0
0
VERTEX
8
0
10
152.6784
20
17.7849390603468
30
0
0
VERTEX
8
0
10
153.3952
20
17.7433367987062
30
0
0
VERTEX
8
0
10
154.112
20
17.702025124046
30
0
0
VERTEX
8
0
10
154.8288
20
17.6610006691817
30
0
0
VERTEX
8
0
10
155.5456
20
17.6202601213009
30
0
0
VERTEX
8
0
10
156.2624
20
17.5798002208401
30
0
0
VERTEX
8
0
10
156.9792
20
17.539617760389
30
0
0
VERTEX
8
0
10
157.696
20
17.4997095836226
30
0
0
SEQEND
8
0
0
POLYLINE
8
0
62
3
70
0
10
0
20
0
30
0
0
VERTEX
8
0
10
0.7168
20
11.558708523989
30
0
0
VERTEX
8
0
10
1.4336
20
22.4738730667524
30
0
0
VERTEX
8
0
10
2.1504
20
32.6966995256862
30
0
0
VERTEX
8
0
10
2.8672
20
42.1902642936838
30
0
0
VERTEX
8
0
10
3.584
20
50.9292699055831
30
0
0
VERTEX
8
0
10
4.3008
20
58.8969516984977
30
0
0
VERTEX
8
0
10
5.0176
20
66.0834868246829
30
0
0
VERTEX
8
0
10
5.7344
20
72.4853627190878
30
0
0
VERTEX
8
0
10
6.4512
20
78.1052407556182
30
0
0
VERTEX
8
0
10
7.168
20
82.9520974939149
30
0
0
VERTEX
8
0
10
7.8848
20
87.0415913269134
30
0
0
VERTEX
8
0
10
8.6016
20
90.3966602647058
30
0
0
VERTEX
8
0
10
9.3184
20
93.0483709691208
30
0
0
VERTEX
8
0
10
10.0352
20
95.0370388699309
30
0
0
VERTEX
8
0
10
10.752
20
96.4136289232712
30
0
0
VERTEX
8
0
10
11.4688
20
97.2414196757895
30
0
0
VERTEX
8
0
10
12.1856
20
97.5978548038214
30
0
0
VERTEX
8
0
10
12.9024
20
97.5763903147562
30
0
0
VERTEX
8
0
10
13.6192
20
97.2879269759591
30
0
0
VERTEX
8
0
10
14.336
20
96.8610819692712
30
0
0
VERTEX
8
0
10
15.0528
20
96.4165030983565
30
0
0
VERTEX
8
0
10
15.7696
20
95.9841808311692
30
0
0
VERTEX
8
0
10
16.4864
20
95.5678305742731
30
0
0
VERTEX
8
0
10
17.2032
20
95.1690488198776
30
0
0
VERTEX
8
0
10
17.92
20
94.7882871615714
30
0
0
VERTEX
8
0
10
18.6368
20
94.4253673230973
30
0
0
VERTEX
8
0
10
19.3536
20
94.0797612678171
30
0
0
VERTEX
8
0
10
20.0704
20
93.750752264004
30
0
0
VERTEX
8
0
10
20.7872
20
93.4375306136533
30
0
0
VERTEX
8
0
10
21.504
20
93.1392515217334
30
0
0
VERTEX
8
0
10
22.2208
20
92.8550701927987
30
0
0
VERTEX
8
0
10
22.9376
20
92.5841628701259
30
0
0
VERTEX
8
0
10
23.6544
20
92.3257390447678
30
0
0
VERTEX
8
0
10
24.3712
20
92.0790480606232
30
0
0
VERTEX
8
0
10
25.088
20
91.843382150404
30
0
0
VERTEX
8
0
10
25.8048
20
91.6180772074154
30
0
0
VERTEX
8
0
10
26.5216
20
91.4025121401389
30
0
0
VERTEX
8
0
10
27.2384
20
91.196107363836
30
0
0
VERTEX
8
0
10
27.9552
20
90.9983227932925
30
0
0
VERTEX
8
0
10
28.672
20
90.8086555758729
30
0
0
VERTEX
8
0
10
29.3888
20
90.6266377211289
30
0
0
VERTEX
8
0
10
30.1056
20
90.4518337277809
30
0
0
VERTEX
8
0
10
30.8224
20
90.2838382716979
30
0
0
VERTEX
8
0
10
31.5392
20
90.1222739934837
30
0
0
VERTEX
8
0
10
32.256
20
89.9667894074942
30
0
0
VERTEX
8
0
10
32.9728
20
89.8170569428979
30
0
0
VERTEX
8
0
10
33.6896
20
89.6727711199891
30
0
0
VERTEX
8
0
10
34.4064
20
89.533646860162
30
0
0
VERTEX
8
0
10
35.1232
20
89.3994179249278
30
0
0
VERTEX
8
0
10
35.84
20
89.2698354775484
30
0
0
VERTEX
8
0
10
36.5568
20
89.1446667598745
30
0
0
VERTEX
8
0
10
37.2736
20
89.0236938765455
30
0
0
VERTEX
8
0
10
37.9904
20
88.906712678647
30
0
0
VERTEX
8
0
10
38.7072
20
88.7935317390958
30
0
0
VERTEX
8
0
10
39.424
20
88.68397141235
30
0
0
VERTEX
8
0
10
40.1408
20
88.5778629714505
30
0
0
VERTEX
8
0
10
40.8576
20
88.4750478158592
30
0
0
VERTEX
8
0
10
41.5744
20
88.3753767440317
30
0
0
VERTEX
8
0
10
42.2912
20
88.2787092851322
30
0
0
VERTEX
8
0
10
43.008
20
88.1849130847543
30
0
0
VERTEX
8
0
10
43.7248
20
88.0938633399475
30
0
0
VERTEX
8
0
10
44.4416
20
88.0054422792528
30
0
0
VERTEX
8
0
10
45.1584
20
87.919538683833
30
0
0
VERTEX
8
0
10
45.8752
20
87.8360474461327
30
0
0
VERTEX
8
0
10
46.592
20
87.7548691628236
30
0
0
VERTEX
8
0
10
47.3088
20
87.6759097590866
30
0
0
VERTEX
8
0
10
48.0256
20
87.599080141551
30
0
0
VERTEX
8
0
10
48.7424
20
87.5242958774525
30
0
0
VERTEX
8
0
10
49.4592
20
87.4514768977991
30
0
0
VERTEX
8
0
10
50.176
20
87.3805472225295
30
0
0
VERTEX
8
0
10
50.8928
20
87.3114347058369
30
0
0
VERTEX
8
0
10
51.6096
20
87.2440707999913
30
0
0
VERTEX
8
0
10
52.3264
20
87.1783903361475
30
0
0
VERTEX
8
0
10
53.0432
20
87.1143313207588
30
0
0
VERTEX
8
0
10
53.76
20
87.0518347463404
30
0
0
VERTEX
8
0
10
54.4768
20
86.9908444154381
30
0
0
VERTEX
8
0
10
55.1936
20
86.9313067767556
30
0
0
VERTEX
8
0
10
55.9104
20
86.8731707724905
30
0
0
VERTEX
8
0
10
56.6272
20
86.8163876960047
30
0
0
VERTEX
8
0
10
57.344
20
86.7609110590363
30
0
0
VERTEX
8
0
10
58.0608
20
86.7066964677229
30
0
0
VERTEX
8
0
10
58.7776
20
86.6537015067721
30
0
0
VERTEX
8
0
10
59.4944
20
86.6018856311668
30
0
0
VERTEX
8
0
10
60.2112
20
86.5512100648476
30
0
0
VERTEX
8
0
10
60.928
20
86.5016377058588
30
0
0
VERTEX
8
0
10
61.6448
20
86.4531330374859
30
0
0
VERTEX
8
0
10
62.3616
20
86.4056620449532
30
0
0
VERTEX
8
0
10
63.0784
20
86.3591921372834
30
0
0
VERTEX
8
0
10
63.7952
20
86.313692073952
30
0
0
VERTEX
8
0
10
64.512
20
86.2691318960012
30
0
0
VERTEX
8
0
10
65.2288
20
86.2254828613011
30
0
0
VERTEX
8
0
10
65.9456
20
86.1827173836743
30
0
0
VERTEX
8
0
10
66.6624
20
86.1408089756162
30
0
0
VERTEX
8
0
10
67.3792
20
86.0997321943711
30
0
0
VERTEX
8
0
10
68.096
20
86.0594625911354
30
0
0
VERTEX
8
0
10
68.8128
20
86.0199766631819
30
0
0
VERTEX
8
0
10
69.5296
20
85.9812518087111
30
0
0
VERTEX
8
0
10
70.2464
20
85.9432662842511
30
0
0
VERTEX
8
0
10
70.9632
20
85.9059991644421
30
0
0
VERTEX
8
0
10
71.68
20
85.86943030405
30
0
0
VERTEX
8
0
10
72.3968
20
85.8335403020688
30
0
0
VERTEX
8
0
10
73.1136
20
85.7983104677787
30
0
0
VERTEX
8
0
10
73.8304
20
85.7637227886383
30
0
0
VERTEX
8
0
10
74.5472
20
85.7297598998952
30
0
0
VERTEX
8
0
10
75.264
20
85.696405055811
30
0
0
VERTEX
8
0
10
75.9808
20
85.663642102401
30
0
0
VERTEX
8
0
10
76.6976
20
85.6314554515966
30
0
0
VERTEX
8
0
10
77.4144
20
85.5998300567458
30
0
0
VERTEX
8
0
10
78.1312
20
85.5687513893708
30
0
0
VERTEX
8
0
10
78.848
20
85.5382054171091
30
0
0
VERTEX
8
0
10
79.5648
20
85.5081785827692
30
0
0
VERTEX
8
0
10
80.2816
20
85.4786577844341
30
0
0
VERTEX
8
0
10
80.9984
20
85.4496303565543
30
0
0
VERTEX
8
0
10
81.7152
20
85.4210840519723
30
0
0
VERTEX
8
0
10
82.432
20
85.3930070248263
30
0
0
VERTEX
8
0
10
83.1488
20
85.3653878142824
30
0
0
VERTEX
8
0
10
83.8656
20
85.3382153290507
30
0
0
VERTEX
8
0
10
84.5824
20
85.3114788326402
30
0
0
VERTEX
8
0
10
85.2992
20
85.2851679293128
30
0
0
VERTEX
8
0
10
86.016
20
85.2592725506974
30
0
0
VERTEX
8
0
10
86.7328
20
85.2337829430287
30
0
0
VERTEX
8
0
10
87.4496
20
85.2086896549775
30
0
0
VERTEX
8
0
10
88.1664
20
85.1839835260394
30
0
0
VERTEX
8
0
10
88.8832
20
85.1596556754543
30
0
0
VERTEX
8
0
10
89.6
20
85.1356974916264
30
0
0
VERTEX
8
0
10
90.3168
20
85.1121006220213
30
0
0
VERTEX
8
0
10
91.0336
20
85.0888569635124
30
0
0
VERTEX
8
0
10
91.7504
20
85.0659586531557
30
0
0
VERTEX
8
0
10
92.4672
20
85.0433980593705
30
0
0
VERTEX
8
0
10
93.184
20
85.0211677735044
30
0
0
VERTEX
8
0
10
93.9008
20
84.9992606017649
30
0
0
VERTEX
8
0
10
94.6176
20
84.9776695574975
30
0
0
VERTEX
8
0
10
95.3344
20
84.9563878537943
30
0
0
VERTEX
8
0
10
96.0512
20
84.9354088964163
30
0
0
VERTEX
8
0
10
96.768
20
84.914726277014
30
0
0
VERTEX
8
0
10
97.4848
20
84.8943337666317
30
0
0
VERTEX
8
0
10
98.2016
20
84.8742253094821
30
0
0
VERTEX
8
0
10
98.9184
20
84.8543950169776
30
0
0
VERTEX
8
0
10
99.6352
20
84.8348371620068
30
0
0
VERTEX
8
0
10
100.352
20
84.8155461734439
30
0
0
VERTEX
8
0
10
101.0688
20
84.7965166308805
30
0
0
VERTEX
8
0
10
101.7856
20
84.7777432595693
30
0
0
VERTEX
8
0
10
102.5024
20
84.7592209255688
30
0
0
VERTEX
8
0
10
103.2192
20
84.7409446310822
30
0
0
VERTEX
8
0
10
103.936
20
84.7229095099786
30
0
0
VERTEX
8
0
10
104.6528
20
84.7051108234906
30
0
0
VERTEX
8
0
10
105.3696
20
84.6875439560786
30
0
0
VERTEX
8
0
10
106.0864
20
84.6702044114553
30
0
0
VERTEX
8
0
10
106.8032
20
84.6530878087632
30
0
0
VERTEX
8
0
10
107.52
20
84.6361898788978
30
0
0
VERTEX
8
0
10
108.2368
20
84.6195064609696
30
0
0
VERTEX
8
0
10
108.9536
20
84.6030334989011
30
0
0
VERTEX
8
0
10
109.6704
20
84.5867670381498
30
0
0
VERTEX
8
0
10
110.3872
20
84.5707032225538
30
0
0
VERTEX
8
0
10
111.104
20
84.5548382912943
30
0
0
VERTEX
8
0
10
111.8208
20
84.5391685759695
30
0
0
VERTEX
8
0
10
112.5376
20
84.5236904977759
30
0
0
VERTEX
8
0
10
113.2544
20
84.5084005647917
30
0
0
VERTEX
8
0
10
113.9712
20
84.4932953693582
30
0
0
VERTEX
8
0
10
114.688
20
84.4783715855559
30
0
0
VERTEX
8
0
10
115.4048
20
84.46362596677
30
0
0
VERTEX
8
0
10
116.1216
20
84.4490553433427
30
0
0
VERTEX
8
0
10
116.8384
20
84.4346566203083
30
0
0
VERTEX
8
0
10
117.5552
20
84.4204267752074
30
0
0
VERTEX
8
0
10
118.272
20
84.4063628559781
30
0
0
VERTEX
8
0
10
118.9888
20
84.3924619789193
30
0
0
VERTEX
8
0
10
119.7056
20
84.3787213267252
30
0
0
VERTEX
8
0
10
120.4224
20
84.3651381465865
30
0
0
VERTEX
8
0
10
121.1392
20
84.3517097483568
30
0
0
VERTEX
8
0
10
121.856
20
84.3384335027806
30
0
0
VERTEX
8
0
10
122.5728
20
84.3253068397817
30
0
0
VERTEX
8
0
10
123.2896
20
84.3123272468085
30
0
0
VERTEX
8
0
10
124.0064
20
84.2994922672345
30
0
0
VERTEX
8
0
10
124.7232
20
84.2867994988124
30
0
0
VERTEX
8
0
10
125.44
20
84.2742465921781
30
0
0
VERTEX
8
0
10
126.1568
20
84.2618312494047
30
0
0
VERTEX
8
0
10
126.8736
20
84.2495512226034
30
0
0
VERTEX
8
0
10
127.5904
20
84.2374043125697
30
0
0
VERTEX
8
0
10
128.3072
20
84.225388367473
30
0
0
VERTEX
8
0
10
129.024
20
84.2135012815891
30
0
0
VERTEX
8
0
10
129.7408
20
84.2017409940721
30
0
0
VERTEX
8
0
10
130.4576
20
84.1901054877664
30
0
0
VERTEX
8
0
10
131.1744
20
84.1785927880552
30
0
0
VERTEX
8
0
10
131.8912
20
84.1672009617458
30
0
0
VERTEX
8
0
10
132.608
20
84.1559281159898
30
0
0
VERTEX
8
0
10
133.3248
20
84.1447723972365
30
0
0
VERTEX
8
0
10
134.0416
20
84.133731990219
30
0
0
VERTEX
8
0
10
134.7584
20
84.1228051169712
30
0
0
VERTEX
8
0
10
135.4752
20
84.1119900358756
30
0
0
VERTEX
8
0
10
136.192
20
84.1012850407388
30
0
0
VERTEX
8
0
10
136.9088
20
84.0906884598969
30
0
0
VERTEX
8
0
10
137.6256
20
84.0801986553459
30
0
0
VERTEX
8
0
10
138.3424
20
84.0698140218997
30
0
0
VERTEX
8
0
10
139.0592
20
84.0595329863727
30
0
0
VERTEX
8
0
10
139.776
20
84.0493540067863
30
0
0
VERTEX
8
0
10
140.4928
20
84.0392755715998
30
0
0
VERTEX
8
0
10
141.2096
20
84.029296198963
30
0
0
VERTEX
8
0
10
141.9264
20
84.0194144359915
30
0
0
VERTEX
8
0
10
142.6432
20
84.0096288580621
30
0
0
VERTEX
8
0
10
143.36
20
83.99993806813
30
0
0
VERTEX
8
0
10
144.0768
20
83.9903406960646
30
0
0
VERTEX
8
0
10
144.7936
20
83.9808353980046
30
0
0
VERTEX
8
0
10
145.5104
20
83.9714208557321
30
0
0
VERTEX
8
0
10
146.2272
20
83.9620957760637
30
0
0
VERTEX
8
0
10
146.944
20
83.9528588902597
30
0
0
VERTEX
8
0
10
147.6608
20
83.9437089534493
30
0
0
VERTEX
8
0
10
148.3776
20
83.9346447440718
30
0
0
VERTEX
8
0
10
149.0944
20
83.9256650633346
30
0
0
VERTEX
8
0
10
149.8112
20
83.9167687346847
30
0
0
VERTEX
8
0
10
150.528
20
83.9079546032956
30
0
0
VERTEX
8
0
10
151.2448
20
83.8992215355689
30
0
0
VERTEX
8
0
10
151.9616
20
83.8905684186482
30
0
0
VERTEX
8
0
10
152.6784
20
83.8819941599475
30
0
0
VERTEX
8
0
10
153.3952
20
83.8734976866919
30
0
0
VERTEX
8
0
10
154.112
20
83.8650779454704
30
0
0
VERTEX
8
0
10
154.8288
20
83.8567339018016
30
0
0
VERTEX
8
0
10
155.5456
20
83.8484645397105
30
0
0
VERTEX
8
0
10
156.2624
20
83.8402688613162
30
0
0
VERTEX
8
0
10
156.9792
20
83.8321458864314
30
0
0
VERTEX
8
0
10
157.696
20
83.8240946521723
30
0
0
SEQEND
8
0
0
POLYLINE
8
0
62
4
70
0
10
0
20
0
30
0
0
VERTEX
8
0
10
0.7168
20
11.558708523989
30
0
0
VERTEX
8
0
10
1.4336
20
22.4738730667524
30
0
0
VERTEX
8
0
10
2.1504
20
32.6966995256862
30
0
0
VERTEX
8
0
10
2.8672
20
42.1902642936838
30
0
0
VERTEX
8
0
10
3.584
20
50.9292699055831
30
0
0
VERTEX
8
0
10
4.3008
20
58.8969516984977
30
0
0
VERTEX
8
0
10
5.0176
20
66.0834868246829
30
0
0
VERTEX
8
0
10
5.7344
20
72.4853627190878
30
0
0
VERTEX
8
0
10
6.4512
20
78.1052407556182
30
0
0
VERTEX
8
0
10
7.168
20
82.9520974939149
30
0
0
VERTEX
8
0
10
7.8848
20
87.0415913269134
30
0
0
VERTEX
8
0
10
8.6016
20
90.3966602647058
30
0
0
VERTEX
8
0
10
9.3184
20
93.0483709691208
30
0
0
VERTEX
8
0
10
10.0352
20
95.0370388699309
30
0
0
VERTEX
8
0
10
10.752
20
96.4136289232712
30
0
0
VERTEX
8
0
10
11.4688
20
97.2414196757895
30
0
0
VERTEX
8
0
10
12.1856
20
97.5978548038214
30
0
0
VERTEX
8
0
10
12.9024
20
97.5763903147562
30
0
0
VERTEX
8
0
10
13.6192
20
97.2879269759591
30
0
0
VERTEX
8
0
10
14.336
20
96.8610819692712
30
0
0
VERTEX
8
0
10
15.0528
20
96.4165030983565
30
0
0
VERTEX
8
0
10
15.7696
20
95.9841808311692
30
0
0
VERTEX
8
0
10
16.4864
20
95.5678305742731
30
0
0
VERTEX
8
0
10
17.2032
20
95.1690488198776
30
0
0
VERTEX
8
0
10
17.92
20
94.7882871615714
30
0
0
VERTEX
8
0
10
18.6368
20
94.4253673230973
30
0
0
VERTEX
8
0
10
19.3536
20
94.0797612678171
30
0
0
VERTEX
8
0
10
20.0704
20
93.750752264004
30
0
0
VERTEX
8
0
10
20.7872
20
93.4375306136533
30
0
0
VERTEX
8
0
10
21.504
20
93.1392515217334
30
0
0
VERTEX
8
0
10
22.2208
20
92.8550701927987
30
0
0
VERTEX
8
0
10
22.9376
20
92.5841628701259
30
0
0
VERTEX
8
0
10
23.6544
20
92.3257390447678
30
0
0
VERTEX
8
0
10
24.3712
20
92.0790480606232
30
0
0
VERTEX
8
0
10
25.088
20
91.843382150404
30
0
0
VERTEX
8
0
10
25.8048
20
91.6180772074154
30
0
0
VERTEX
8
0
10
26.5216
20
91.4025121401389
30
0
0
VERTEX
8
0
10
27.2384
20
91.196107363836
30
0
0
VERTEX
8
0
10
27.9552
20
90.9983227932925
30
0
0
VERTEX
8
0
10
28.672
20
90.8086555758729
30
0
0
VERTEX
8
0
10
29.3888
20
90.6266377211289
30
0
0
VERTEX
8
0
10
30.1056
20
90.4518337277809
30
0
0
VERTEX
8
0
10
30.8224
20
90.2838382716979
30
0
0
VERTEX
8
0
10
31.5392
20
90.1222739934837
30
0
0
VERTEX
8
0
10
32.256
20
89.9667894074942
30
0
0
VERTEX
8
0
10
32.9728
20
89.8170569428979
30
0
0
VERTEX
8
0
10
33.6896
20
89.6727711199891
30
0
0
VERTEX
8
0
10
34.4064
20
89.533646860162
30
0
0
VERTEX
8
0
10
35.1232
20
89.3994179249278
30
0
0
VERTEX
8
0
10
35.84
20
89.2698354775484
30
0
0
VERTEX
8
0
10
36.5568
20
89.1446667598745
30
0
0
VERTEX
8
0
10
37.2736
20
89.0236938765455
30
0
0
VERTEX
8
0
10
37.9904
20
88.906712678647
30
0
0
VERTEX
8
0
10
38.7072
20
88.7935317390958
30
0
0
VERTEX
8
0
10
39.424
20
88.68397141235
30
0
0
VERTEX
8
0
10
40.1408
20
88.5778629714505
30
0
0
VERTEX
8
0
10
40.8576
20
88.4750478158592
30
0
0
VERTEX
8
0
10
41.5744
20
88.3753767440317
30
0
0
VERTEX
8
0
10
42.2912
20
88.2787092851322
30
0
0
VERTEX
8
0
10
43.008
20
88.1849130847543
30
0
0
VERTEX
8
0
10
43.7248
20
88.0938633399475
30
0
0
VERTEX
8
0
10
44.4416
20
88.0054422792528
30
0
0
VERTEX
8
0
10
45.1584
20
87.919538683833
30
0
0
VERTEX
8
0
10
45.8752
20
87.8360474461327
30
0
0
VERTEX
8
0
10
46.592
20
87.7548691628236
30
0
0
VERTEX
8
0
10
47.3088
20
87.6759097590866
30
0
0
VERTEX
8
0
10
48.0256
20
87.599080141551
30
0
0
VERTEX
8
0
10
48.7424
20
87.5242958774525
30
0
0
VERTEX
8
0
10
49.4592
20
87.4514768977991
30
0
0
VERTEX
8
0
10
50.176
20
87.3805472225295
30
0
0
VERTEX
8
0
10
50.8928
20
87.3114347058369
30
0
0
VERTEX
8
0
10
51.6096
20
87.2440707999913
30
0
0
VERTEX
8
0
10
52.3264
20
87.1783903361475
30
0
0
VERTEX
8
0
10
53.0432
20
87.1143313207588
30
0
0
VERTEX
8
0
10
53.76
20
87.0518347463404
30
0
0
VERTEX
8
0
10
54.4768
20
86.9908444154381
30
0
0
VERTEX
8
0
10
55.1936
20
86.9313067767556
30
0
0
VERTEX
8
0
10
55.9104
20
86.8731707724905
30
0
0
VERTEX
8
0
10
56.6272
20
86.8163876960047
30
0
0
VERTEX
8
0
10
57.344
20
86.7609110590363
30
0
0
VERTEX
8
0
10
58.0608
20
86.7066964677229
30
0
0
VERTEX
8
0
10
58.7776
20
86.6537015067721
30
0
0
VERTEX
8
0
10
59.4944
20
86.6018856311668
30
0
0
VERTEX
8
0
10
60.2112
20
86.5512100648476
30
0
0
VERTEX
8
0
10
60.928
20
86.5016377058588
30
0
0
VERTEX
8
0
10
61.6448
20
86.4531330374859
30
0
0
VERTEX
8
0
10
62.3616
20
86.4056620449532
30
0
0
VERTEX
8
0
10
63.0784
20
86.3591921372834
30
0
0
VERTEX
8
0
10
63.7952
20
86.313692073952
30
0
0
VERTEX
8
0
10
64.512
20
86.2691318960012
30
0
0
VERTEX
8
0
10
65.2288
20
86.2254828613011
30
0
0
VERTEX
8
0
10
65.9456
20
86.1827173836743
30
0
0
VERTEX
8
0
10
66.6624
20
86.1408089756162
30
0
0
VERTEX
8
0
10
67.3792
20
86.0997321943711
30
0
0
VERTEX
8
0
10
68.096
20
86.0594625911354
30
0
0
VERTEX
8
0
10
68.8128
20
86.0199766631819
30
0
0
VERTEX
8
0
10
69.5296
20
85.9812518087111
30
0
0
VERTEX
8
0
10
70.2464
20
85.9432662842511
30
0
0
VERTEX
8
0
10
70.9632
20
85.9059991644421
30
0
0
VERTEX
8
0
10
71.68
20
85.86943030405
30
0
0
VERTEX
8
0
10
72.3968
20
85.8335403020688
30
0
0
VERTEX
8
0
10
73.1136
20
85.7983104677787
30
0
0
VERTEX
8
0
10
73.8304
20
85.7637227886383
30
0
0
VERTEX
8
0
10
74.5472
20
85.7297598998952
30
0
0
VERTEX
8
0
10
75.264
20
85.696405055811
30
0
0
VERTEX
8
0
10
75.9808
20
85.663642102401
30
0
0
VERTEX
8
0
10
76.6976
20
85.6314554515966
30
0
0
VERTEX
8
0
10
77.4144
20
85.5998300567458
30
0
0
VERTEX
8
0
10
78.1312
20
85.5687513893708
30
0
0
VERTEX
8
0
10
78.848
20
85.5382054171091
30
0
0
VERTEX
8
0
10
79.5648
20
85.5081785827692
30
0
0
VERTEX
8
0
10
80.2816
20
85.4786577844341
30
0
0
VERTEX
8
0
10
80.9984
20
85.4496303565543
30
0
0
VERTEX
8
0
10
81.7152
20
85.4210840519723
30
0
0
VERTEX
8
0
10
82.432
20
85.3930070248263
30
0
0
VERTEX
8
0
10
83.1488
20
85.3653878142824
30
0
0
VERTEX
8
0
10
83.8656
20
85.3382153290507
30
0
0
VERTEX
8
0
10
84.5824
20
85.3114788326402
30
0
0
VERTEX
8
0
10
85.2992
20
85.2851679293128
30
0
0
VERTEX
8
0
10
86.016
20
85.2592725506974
30
0
0
VERTEX
8
0
10
86.7328
20
85.2337829430287
30
0
0
VERTEX
8
0
10
87.4496
20
85.2086896549775
30
0
0
VERTEX
8
0
10
88.1664
20
85.1839835260394
30
0
0
VERTEX
8
0
10
88.8832
20
85.1596556754543
30
0
0
VERTEX
8
0
10
89.6
20
85.1356974916264
30
0
0
VERTEX
8
0
10
90.3168
20
85.1121006220213
30
0
0
VERTEX
8
0
10
91.0336
20
85.0888569635124
30
0
0
VERTEX
8
0
10
91.7504
20
85.0659586531557
30
0
0
VERTEX
8
0
10
92.4672
20
85.0433980593705
30
0
0
VERTEX
8
0
10
93.184
20
85.0211677735044
30
0
0
VERTEX
8
0
10
93.9008
20
84.9992606017649
30
0
0
VERTEX
8
0
10
94.6176
20
84.9776695574975
30
0
0
VERTEX
8
0
10
95.3344
20
84.9563878537943
30
0
0
VERTEX
8
0
10
96.0512
20
84.9354088964163
30
0
0
VERTEX
8
0
10
96.768
20
84.914726277014
30
0
0
VERTEX
8
0
10
97.4848
20
84.8943337666317
30
0
0
VERTEX
8
0
10
98.2016
20
84.8742253094821
30
0
0
VERTEX
8
0
10
98.9184
20
84.8543950169776
30
0
0
VERTEX
8
0
10
99.6352
20
84.8348371620068
30
0
0
VERTEX
8
0
10
100.352
20
84.8155461734439
30
0
0
VERTEX
8
0
10
101.0688
20
84.7965166308805
30
0
0
VERTEX
8
0
10
101.7856
20
84.7777432595693
30
0
0
VERTEX
8
0
10
102.5024
20
84.7592209255688
30
0
0
VERTEX
8
0
10
103.2192
20
84.7409446310822
30
0
0
VERTEX
8
0
10
103.936
20
84.7229095099786
30
0
0
VERTEX
8
0
10
104.6528
20
84.7051108234906
30
0
0
VERTEX
8
0
10
105.3696
20
84.6875439560786
30
0
0
VERTEX
8
0
10
106.0864
20
84.6702044114553
30
0
0
VERTEX
8
0
10
106.8032
20
84.6530878087632
30
0
0
VERTEX
8
0
10
107.52
20
84.6361898788978
30
0
0
VERTEX
8
0
10
108.2368
20
84.6195064609696
30
0
0
VERTEX
8
0
10
108.9536
20
84.6030334989011
30
0
0
VERTEX
8
0
10
109.6704
20
84.5867670381498
30
0
0
VERTEX
8
0
10
110.3872
20
84.5707032225538
30
0
0
VERTEX
8
0
10
111.104
20
84.5548382912943
30
0
0
VERTEX
8
0
10
111.8208
20
84.5391685759695
30
0
0
VERTEX
8
0
10
112.5376
20
84.5236904977759
30
0
0
VERTEX
8
0
10
113.2544
20
84.5084005647917
30
0
0
VERTEX
8
0
10
113.9712
20
84.4932953693582
30
0
0
VERTEX
8
0
10
114.688
20
84.4783715855559
30
0
0
VERTEX
8
0
10
115.4048
20
84.46362596677
30
0
0
VERTEX
8
0
10
116.1216
20
84.4490553433427
30
0
0
VERTEX
8
0
10
116.8384
20
84.4346566203083
30
0
0
VERTEX
8
0
10
117.5552
20
84.4204267752074
30
0
0
VERTEX
8
0
10
118.272
20
84.4063628559781
30
0
0
VERTEX
8
0
10
118.9888
20
84.3924619789193
30
0
0
VERTEX
8
0
10
119.7056
20
84.3787213267252
30
0
0
VERTEX
8
0
10
120.4224
20
84.3651381465865
30
0
0
VERTEX
8
0
10
121.1392
20
84.3517097483568
30
0
0
VERTEX
8
0
10
121.856
20
84.3384335027806
30
0
0
VERTEX
8
0
10
122.5728
20
84.3253068397817
30
0
0
VERTEX
8
0
10
123.2896
20
84.3123272468085
30
0
0
VERTEX
8
0
10
124.0064
20
84.2994922672345
30
0
0
VERTEX
8
0
10
124.7232
20
84.2867994988124
30
0
0
VERTEX
8
0
10
125.44
20
84.2742465921781
30
0
0
VERTEX
8
0
10
126.1568
20
84.2618312494047
30
0
0
VERTEX
8
0
10
126.8736
20
84.2495512226034
30
0
0
VERTEX
8
0
10
127.5904
20
84.2374043125697
30
0
0
VERTEX
8
0
10
128.3072
20
84.225388367473
30
0
0
VERTEX
8
0
10
129.024
20
84.2135012815891
30
0
0
VERTEX
8
0
10
129.7408
20
84.2017409940721
30
0
0
VERTEX
8
0
10
130.4576
20
84.1901054877664
30
0
0
VERTEX
8
0
10
131.1744
20
84.1785927880552
30
0
0
VERTEX
8
0
10
131.8912
20
84.1672009617458
30
0
0
VERTEX
8
0
10
132.608
20
84.1559281159898
30
0
0
VERTEX
8
0
10
133.3248
20
84.1447723972365
30
0
0
VERTEX
8
0
10
134.0416
20
84.133731990219
30
0
0
VERTEX
8
0
10
134.7584
20
84.1228051169712
30
0
0
VERTEX
8
0
10
135.4752
20
84.1119900358756
30
0
0
VERTEX
8
0
10
136.192
20
84.1012850407388
30
0
0
VERTEX
8
0
10
136.9088
20
84.0906884598969
30
0
0
VERTEX
8
0
10
137.6256
20
84.0801986553459
30
0
0
VERTEX
8
0
10
138.3424
20
84.0698140218997
30
0
0
VERTEX
8
0
10
139.0592
20
84.0595329863727
30
0
0
VERTEX
8
0
10
139.776
20
84.0493540067863
30
0
0
VERTEX
8
0
10
140.4928
20
84.0392755715998
30
0
0
VERTEX
8
0
10
141.2096
20
84.029296198963
30
0
0
VERTEX
8
0
10
141.9264
20
84.0194144359915
30
0
0
VERTEX
8
0
10
142.6432
20
84.0096288580621
30
0
0
VERTEX
8
0
10
143.36
20
83.99993806813
30
0
0
VERTEX
8
0
10
144.0768
20
83.9903406960646
30
0
0
VERTEX
8
0
10
144.7936
20
83.9808353980046
30
0
0
VERTEX
8
0
10
145.5104
20
83.9714208557321
30
0
0
VERTEX
8
0
10
146.2272
20
83.9620957760637
30
0
0
VERTEX
8
0
10
146.944
20
83.9528588902597
30
0
0
VERTEX
8
0
10
147.6608
20
83.9437089534493
30
0
0
VERTEX
8
0
10
148.3776
20
83.9346447440718
30
0
0
VERTEX
8
0
10
149.0944
20
83.9256650633346
30
0
0
VERTEX
8
0
10
149.8112
20
83.9167687346847
30
0
0
VERTEX
8
0
10
150.528
20
83.9079546032956
30
0
0
VERTEX
8
0
10
151.2448
20
83.8992215355689
30
0
0
VERTEX
8
0
10
151.9616
20
83.8905684186482
30
0
0
VERTEX
8
0
10
152.6784
20
83.8819941599475
30
0
0
VERTEX
8
0
10
153.3952
20
83.8734976866919
30
0
0
VERTEX
8
0
10
154.112
20
83.8650779454704
30
0
0
VERTEX
8
0
10
154.8288
20
83.8567339018016
30
0
0
VERTEX
8
0
10
155.5456
20
83.8484645397105
30
0
0
VERTEX
8
0
10
156.2624
20
83.8402688613162
30
0
0
VERTEX
8
0
10
156.9792
20
83.8321458864314
30
0
0
VERTEX
8
0
10
157.696
20
83.8240946521723
30
0
0
SEQEND
8
0
0
POLYLINE
8
0
62
2
70
0
10
0
20
0
30
0
0
VERTEX
8
0
10
0.7168
20
8.83586891072293
30
0
0
VERTEX
8
0
10
1.4336
20
16.9819863805161
30
0
0
VERTEX
8
0
10
2.1504
20
24.4461765390547
30
0
0
VERTEX
8
0
10
2.8672
20
31.2322639392269
30
0
0
VERTEX
8
0
10
3.584
20
37.3450178190416
30
0
0
VERTEX
8
0
10
4.3008
20
42.7900651248153
30
0
0
VERTEX
8
0
10
5.0176
20
47.5738563062118
30
0
0
VERTEX
8
0
10
5.7344
20
51.7039965031503
30
0
0
VERTEX
8
0
10
6.4512
20
55.1897332246943
30
0
0
VERTEX
8
0
10
7.168
20
58.0424989230957
30
0
0
VERTEX
8
0
10
7.8848
20
60.2765438092172
30
0
0
VERTEX
8
0
10
8.6016
20
61.9097416926285
30
0
0
VERTEX
8
0
10
9.3184
20
62.964668646271
30
0
0
VERTEX
8
0
10
10.0352
20
63.4700741081653
30
0
0
VERTEX
8
0
10
10.752
20
63.4628961414475
30
0
0
VERTEX
8
0
10
11.4688
20
62.9910157909927
30
0
0
VERTEX
8
0
10
12.1856
20
62.1169884124348
30
0
0
VERTEX
8
0
10
12.9024
20
60.9230007649245
30
0
0
VERTEX
8
0
10
13.6192
20
59.517212243545
30
0
0
VERTEX
8
0
10
14.336
20
58.0415136031527
30
0
0
VERTEX
8
0
10
15.0528
20
56.6420768838709
30
0
0
VERTEX
8
0
10
15.7696
20
55.3395683567676
30
0
0
VERTEX
8
0
10
16.4864
20
54.1230409678956
30
0
0
VERTEX
8
0
10
17.2032
20
52.9833988122455
30
0
0
VERTEX
8
0
10
17.92
20
51.9128584484468
30
0
0
VERTEX
8
0
10
18.6368
20
50.9047023057325
30
0
0
VERTEX
8
0
10
19.3536
20
49.953095032717
30
0
0
VERTEX
8
0
10
20.0704
20
49.0529388936219
30
0
0
VERTEX
8
0
10
20.7872
20
48.1997576516676
30
0
0
VERTEX
8
0
10
21.504
20
47.3896022349041
30
0
0
VERTEX
8
0
10
22.2208
20
46.6189734139132
30
0
0
VERTEX
8
0
10
22.9376
20
45.884757941966
30
0
0
VERTEX
8
0
10
23.6544
20
45.1841754558228
30
0
0
VERTEX
8
0
10
24.3712
20
44.5147340501669
30
0
0
VERTEX
8
0
10
25.088
20
43.8741928956283
30
0
0
VERTEX
8
0
10
25.8048
20
43.2605306155099
30
0
0
VERTEX
8
0
10
26.5216
20
42.6719184001999
30
0
0
VERTEX
8
0
10
27.2384
20
42.1066970420135
30
0
0
VERTEX
8
0
10
27.9552
20
41.5633572318982
30
0
0
VERTEX
8
0
10
28.672
20
41.0405225840025
30
0
0
VERTEX
8
0
10
29.3888
20
40.536934952579
30
0
0
VERTEX
8
0
10
30.1056
20
40.0514416840487
30
0
0
VERTEX
8
0
10
30.8224
20
39.5829845097967
30
0
0
VERTEX
8
0
10
31.5392
20
39.1305898357915
30
0
0
VERTEX
8
0
10
32.256
20
38.6933602260348
30
0
0
VERTEX
8
0
10
32.9728
20
38.2704669101527
30
0
0
VERTEX
8
0
10
33.6896
20
37.8611431726771
30
0
0
VERTEX
8
0
10
34.4064
20
37.4646785039529
30
0
0
VERTEX
8
0
10
35.1232
20
37.0804134110903
30
0
0
VERTEX
8
0
10
35.84
20
36.707734802698
30
0
0
VERTEX
8
0
10
36.5568
20
36.3460718738894
30
0
0
VERTEX
8
0
10
37.2736
20
35.9948924287092
30
0
0
VERTEX
8
0
10
37.9904
20
35.653699586068
30
0
0
VERTEX
8
0
10
38.7072
20
35.3220288227984
30
0
0
VERTEX
8
0
10
39.424
20
34.999445313799
30
0
0
VERTEX
8
0
10
40.1408
20
34.6855415346229
30
0
0
VERTEX
8
0
10
40.8576
20
34.3799350964466
30
0
0
VERTEX
8
0
10
41.5744
20
34.0822667872576
30
0
0
VERTEX
8
0
10
42.2912
20
33.7921987964425
30
0
0
VERTEX
8
0
10
43.008
20
33.5094131028217
30
0
0
VERTEX
8
0
10
43.7248
20
33.2336100086386
30
0
0
VERTEX
8
0
10
44.4416
20
32.9645068041392
30
0
0
VERTEX
8
0
10
45.1584
20
32.7018365492116
30
0
0
VERTEX
8
0
10
45.8752
20
32.4453469601499
30
0
0
VERTEX
8
0
10
46.592
20
32.1947993909871
30
0
0
VERTEX
8
0
10
47.3088
20
31.949967900047
30
0
0
VERTEX
8
0
10
48.0256
20
31.710638393417
30
0
0
VERTEX
8
0
10
48.7424
20
31.4766078379589
30
0
0
VERTEX
8
0
10
49.4592
20
31.2476835372855
30
0
0
VERTEX
8
0
10
50.176
20
31.0236824648311
30
0
0
VERTEX
8
0
10
50.8928
20
30.8044306487742
30
0
0
VERTEX
8
0
10
51.6096
20
30.5897626041103
30
0
0
VERTEX
8
0
10
52.3264
20
30.3795208076649
30
0
0
VERTEX
8
0
10
53.0432
20
30.1735552122609
30
0
0
VERTEX
8
0
10
53.76
20
29.9717227966342
30
0
0
VERTEX
8
0
10
54.4768
20
29.7738871480316
30
0
0
VERTEX
8
0
10
55.1936
20
29.5799180747221
30
0
0
VERTEX
8
0
10
55.9104
20
29.3896912459197
30
0
0
VERTEX
8
0
10
56.6272
20
29.2030878568573
30
0
0
VERTEX
8
0
10
57.344
20
29.0199943169587
30
0
0
VERTEX
8
0
10
58.0608
20
28.8403019592523
30
0
0
VERTEX
8
0
10
58.7776
20
28.6639067693347
30
0
0
VERTEX
8
0
10
59.4944
20
28.4907091323509
30
0
0
VERTEX
8
0
10
60.2112
20
28.3206135965901
30
0
0
VERTEX
8
0
10
60.928
20
28.1535286524261
30
0
0
VERTEX
8
0
10
61.6448
20
27.989366525435
30
0
0
VERTEX
8
0
10
62.3616
20
27.8280429826313
30
0
0
VERTEX
8
0
10
63.0784
20
27.6694771508494
30
0
0
VERTEX
8
0
10
63.7952
20
27.5135913463797
30
0
0
VERTEX
8
0
10
64.512
20
27.3603109150463
30
0
0
VERTEX
8
0
10
65.2288
20
27.2095640819769
30
0
0
VERTEX
8
0
10
65.9456
20
27.061281810379
30
0
0
VERTEX
8
0
10
66.6624
20
26.9153976686905
30
0
0
VERTEX
8
0
10
67.3792
20
26.7718477055246
30
0
0
VERTEX
8
0
10
68.096
20
26.6305703318744
30
0
0
VERTEX
8
0
10
68.8128
20
26.4915062100836
30
0
0
VERTEX
8
0
10
69.5296
20
26.3545981491293
30
0
0
VERTEX
8
0
10
70.2464
20
26.2197910057973
30
0
0
VERTEX
8
0
10
70.9632
20
26.0870315913615
30
0
0
VERTEX
8
0
10
71.68
20
25.956268583409
30
0
0
VERTEX
8
0
10
72.3968
20
25.8274524424789
30
0
0
VERTEX
8
0
10
73.1136
20
25.7005353332073
30
0
0
VERTEX
8
0
10
73.8304
20
25.5754710496931
30
0
0
VERTEX
8
0
10
74.5472
20
25.4522149448213
30
0
0
VERTEX
8
0
10
75.264
20
25.330723863296
30
0
0
VERTEX
8
0
10
75.9808
20
25.2109560781577
30
0
0
VERTEX
8
0
10
76.6976
20
25.0928712305706
30
0
0
VERTEX
8
0
10
77.4144
20
24.9764302726841
30
0
0
VERTEX
8
0
10
78.1312
20
24.8615954133835
30
0
0
VERTEX
8
0
10
78.848
20
24.7483300667603
30
0
0
VERTEX
8
0
10
79.5648
20
24.6365988031406
30
0
0
VERTEX
8
0
10
80.2816
20
24.5263673025245
30
0
0
VERTEX
8
0
10
80.9984
20
24.4176023102966
30
0
0
VERTEX
8
0
10
81.7152
20
24.310271595078
30
0
0
VERTEX
8
0
10
82.432
20
24.2043439085987
30
0
0
VERTEX
8
0
10
83.1488
20
24.0997889474763
30
0
0
VERTEX
8
0
10
83.8656
20
23.9965773167957
30
0
0
VERTEX
8
0
10
84.5824
20
23.8946804953901
30
0
0
VERTEX
8
0
10
85.2992
20
23.7940708027298
30
0
0
VERTEX
8
0
10
86.016
20
23.6947213673318
30
0
0
VERTEX
8
0
10
86.7328
20
23.5966060966084
30
0
0
VERTEX
8
0
10
87.4496
20
23.4996996480782
30
0
0
VERTEX
8
0
10
88.1664
20
23.4039774018665
30
0
0
VERTEX
8
0
10
88.8832
20
23.3094154344284
30
0
0
VERTEX
8
0
10
89.6
20
23.2159904934302
30
0
0
VERTEX
8
0
10
90.3168
20
23.1236799737294
30
0
0
VERTEX
8
0
10
91.0336
20
23.0324618943973
30
0
0
VERTEX
8
0
10
91.7504
20
22.9423148767305
30
0
0
VERTEX
8
0
10
92.4672
20
22.8532181232019
30
0
0
VERTEX
8
0
10
93.184
20
22.7651513973042
30
0
0
VERTEX
8
0
10
93.9008
20
22.6780950042409
30
0
0
VERTEX
8
0
10
94.6176
20
22.5920297724234
30
0
0
VERTEX
8
0
10
95.3344
20
22.5069370357352
30
0
0
VERTEX
8
0
10
96.0512
20
22.4227986165248
30
0
0
VERTEX
8
0
10
96.768
20
22.3395968092934
30
0
0
VERTEX
8
0
10
97.4848
20
22.2573143650428
30
0
0
VERTEX
8
0
10
98.2016
20
22.1759344762535
30
0
0
VERTEX
8
0
10
98.9184
20
22.0954407624624
30
0
0
VERTEX
8
0
10
99.6352
20
22.0158172564117
30
0
0
VERTEX
8
0
10
100.352
20
21.9370483907441
30
0
0
VERTEX
8
0
10
101.0688
20
21.8591189852162
30
0
0
VERTEX
8
0
10
101.7856
20
21.7820142344099
30
0
0
VERTEX
8
0
10
102.5024
20
21.7057196959158
30
0
0
VERTEX
8
0
10
103.2192
20
21.6302212789696
30
0
0
VERTEX
8
0
10
103.936
20
21.5555052335199
30
0
0
VERTEX
8
0
10
104.6528
20
21.4815581397085
30
0
0
VERTEX
8
0
10
105.3696
20
21.4083668977454
30
0
0
VERTEX
8
0
10
106.0864
20
21.33591871816
30
0
0
VERTEX
8
0
10
106.8032
20
21.2642011124137
30
0
0
VERTEX
8
0
10
107.52
20
21.1932018838563
30
0
0
VERTEX
8
0
10
108.2368
20
21.1229091190129
30
0
0
VERTEX
8
0
10
108.9536
20
21.0533111791866
30
0
0
VERTEX
8
0
10
109.6704
20
20.9843966923636
30
0
0
VERTEX
8
0
10
110.3872
20
20.9161545454074
30
0
0
VERTEX
8
0
10
111.104
20
20.8485738765313
30
0
0
VERTEX
8
0
10
111.8208
20
20.7816440680355
30
0
0
VERTEX
8
0
10
112.5376
20
20.7153547393004
30
0
0
VERTEX
8
0
10
113.2544
20
20.6496957400232
30
0
0
VERTEX
8
0
10
113.9712
20
20.5846571436893
30
0
0
VERTEX
8
0
10
114.688
20
20.5202292412681
30
0
0
VERTEX
8
0
10
115.4048
20
20.4564025351253
30
0
0
VERTEX
8
0
10
116.1216
20
20.3931677331408
30
0
0
VERTEX
8
0
10
116.8384
20
20.330515743027
30
0
0
VERTEX
8
0
10
117.5552
20
20.2684376668368
30
0
0
VERTEX
8
0
10
118.272
20
20.2069247956552
30
0
0
VERTEX
8
0
10
118.9888
20
20.1459686044677
30
0
0
VERTEX
8
0
10
119.7056
20
20.0855607471965
30
0
0
VERTEX
8
0
10
120.4224
20
20.0256930519015
30
0
0
VERTEX
8
0
10
121.1392
20
19.9663575161354
30
0
0
VERTEX
8
0
10
121.856
20
19.9075463024515
30
0
0
VERTEX
8
0
10
122.5728
20
19.8492517340545
30
0
0
VERTEX
8
0
10
123.2896
20
19.7914662905917
30
0
0
VERTEX
8
0
10
124.0064
20
19.7341826040773
30
0
0
VERTEX
8
0
10
124.7232
20
19.6773934549467
30
0
0
VERTEX
8
0
10
125.44
20
19.621091768234
30
0
0
VERTEX
8
0
10
126.1568
20
19.5652706098699
30
0
0
VERTEX
8
0
10
126.8736
20
19.5099231830943
30
0
0
VERTEX
8
0
10
127.5904
20
19.4550428249801
30
0
0
VERTEX
8
0
10
128.3072
20
19.400623003064
30
0
0
VERTEX
8
0
10
129.024
20
19.3466573120805
30
0
0
VERTEX
8
0
10
129.7408
20
19.2931394707948
30
0
0
VERTEX
8
0
10
130.4576
20
19.2400633189321
30
0
0
VERTEX
8
0
10
131.1744
20
19.187422814199
30
0
0
VERTEX
8
0
10
131.8912
20
19.1352120293941
30
0
0
VERTEX
8
0
10
132.608
20
19.0834251496046
30
0
0
VERTEX
8
0
10
133.3248
20
19.0320564694864
30
0
0
VERTEX
8
0
10
134.0416
20
18.9811003906232
30
0
0
VERTEX
8
0
10
134.7584
20
18.9305514189642
30
0
0
VERTEX
8
0
10
135.4752
20
18.8804041623353
30
0
0
VERTEX
8
0
10
136.192
20
18.8306533280239
30
0
0
VERTEX
8
0
10
136.9088
20
18.7812937204316
30
0
0
VERTEX
8
0
10
137.6256
20
18.7323202387956
30
0
0
VERTEX
8
0
10
138.3424
20
18.6837278749744
30
0
0
VERTEX
8
0
10
139.0592
20
18.6355117112968
30
0
0
VERTEX
8
0
10
139.776
20
18.5876669184714
30
0
0
VERTEX
8
0
10
140.4928
20
18.5401887535544
30
0
0
VERTEX
8
0
10
141.2096
20
18.4930725579754
30
0
0
VERTEX
8
0
10
141.9264
20
18.4463137556169
30
0
0
VERTEX
8
0
10
142.6432
20
18.3999078509476
30
0
0
VERTEX
8
0
10
143.36
20
18.3538504272068
30
0
0
VERTEX
8
0
10
144.0768
20
18.3081371446388
30
0
0
VERTEX
8
0
10
144.7936
20
18.2627637387754
30
0
0
VERTEX
8
0
10
145.5104
20
18.2177260187645
30
0
0
VERTEX
8
0
10
146.2272
20
18.1730198657447
30
0
0
VERTEX
8
0
10
146.944
20
18.1286412312628
30
0
0
VERTEX
8
0
10
147.6608
20
18.0845861357339
30
0
0
VERTEX
8
0
10
148.3776
20
18.0408506669423
30
0
0
VERTEX
8
0
10
149.0944
20
17.9974309785828
30
0
0
VERTEX
8
0
10
149.8112
20
17.9543232888391
30
0
0
VERTEX
8
0
10
150.528
20
17.9115238790008
30
0
0
VERTEX
8
0
10
151.2448
20
17.8690290921158
30
0
0
VERTEX
8
0
10
151.9616
20
17.8268353316775
30
0
0
VERTEX
8
0
10
152.6784
20
17.7849390603468
30
0
0
VERTEX
8
0
10
153.3952
20
17.7433367987062
30
0
0
VERTEX
8
0
10
154.112
20
17.702025124046
30
0
0
VERTEX
8
0
10
154.8288
20
17.6610006691817
30
0
0
VERTEX
8
0
10
155.5456
20
17.6202601213009
30
0
0
VERTEX
8
0
10
156.2624
20
17.5798002208401
30
0
0
VERTEX
8
0
10
156.9792
20
17.539617760389
30
0
0
VERTEX
8
0
10
157.696
20
17.4997095836226
30
0
0
SEQEND
8
0
0
POLYLINE
8
0
62
4
70
0
10
0
20
0
30
0
0
VERTEX
8
0
10
0.7168
20
11.558708523989
30
0
0
VERTEX
8
0
10
1.4336
20
22.4738730667524
30
0
0
VERTEX
8
0
10
2.1504
20
32.6966995256862
30
0
0
VERTEX
8
0
10
2.8672
20
42.1902642936838
30
0
0
VERTEX
8
0
10
3.584
20
50.9292699055831
30
0
0
VERTEX
8
0
10
4.3008
20
58.8969516984977
30
0
0
VERTEX
8
0
10
5.0176
20
66.0834868246829
30
0
0
VERTEX
8
0
10
5.7344
20
72.4853627190878
30
0
0
VERTEX
8
0
10
6.4512
20
78.1052407556182
30
0
0
VERTEX
8
0
10
7.168
20
82.9520974939149
30
0
0
VERTEX
8
0
10
7.8848
20
87.0415913269134
30
0
0
VERTEX
8
0
10
8.6016
20
90.3966602647058
30
0
0
VERTEX
8
0
10
9.3184
20
93.0483709691208
30
0
0
VERTEX
8
0
10
10.0352
20
95.0370388699309
30
0
0
VERTEX
8
0
10
10.752
20
96.4136289232712
30
0
0
VERTEX
8
0
10
11.4688
20
97.2414196757895
30
0
0
VERTEX
8
0
10
12.1856
20
97.5978548038214
30
0
0
VERTEX
8
0
10
12.9024
20
97.5763903147562
30
0
0
VERTEX
8
0
10
13.6192
20
97.2879269759591
30
0
0
VERTEX
8
0
10
14.336
20
96.8610819692712
30
0
0
VERTEX
8
0
10
15.0528
20
96.4165030983565
30
0
0
VERTEX
8
0
10
15.7696
20
95.9841808311692
30
0
0
VERTEX
8
0
10
16.4864
20
95.5678305742731
30
0
0
VERTEX
8
0
10
17.2032
20
95.1690488198776
30
0
0
VERTEX
8
0
10
17.92
20
94.7882871615714
30
0
0
VERTEX
8
0
10
18.6368
20
94.4253673230973
30
0
0
VERTEX
8
0
10
19.3536
20
94.0797612678171
30
0
0
VERTEX
8
0
10
20.0704
20
93.750752264004
30
0
0
VERTEX
8
0
10
20.7872
20
93.4375306136533
30
0
0
VERTEX
8
0
10
21.504
20
93.1392515217334
30
0
0
VERTEX
8
0
10
22.2208
20
92.8550701927987
30
0
0
VERTEX
8
0
10
22.9376
20
92.5841628701259
30
0
0
VERTEX
8
0
10
23.6544
20
92.3257390447678
30
0
0
VERTEX
8
0
10
24.3712
20
92.0790480606232
30
0
0
VERTEX
8
0
10
25.088
20
91.843382150404
30
0
0
VERTEX
8
0
10
25.8048
20
91.6180772074154
30
0
0
VERTEX
8
0
10
26.5216
20
91.4025121401389
30
0
0
VERTEX
8
0
10
27.2384
20
91.196107363836
30
0
0
VERTEX
8
0
10
27.9552
20
90.9983227932925
30
0
0
VERTEX
8
0
10
28.672
20
90.8086555758729
30
0
0
VERTEX
8
0
10
29.3888
20
90.6266377211289
30
0
0
VERTEX
8
0
10
30.1056
20
90.4518337277809
30
0
0
VERTEX
8
0
10
30.8224
20
90.2838382716979
30
0
0
VERTEX
8
0
10
31.5392
20
90.1222739934837
30
0
0
VERTEX
8
0
10
32.256
20
89.9667894074942
30
0
0
VERTEX
8
0
10
32.9728
20
89.8170569428979
30
0
0
VERTEX
8
0
10
33.6896
20
89.6727711199891
30
0
0
VERTEX
8
0
10
34.4064
20
89.533646860162
30
0
0
VERTEX
8
0
10
35.1232
20
89.3994179249278
30
0
0
VERTEX
8
0
10
35.84
20
89.2698354775484
30
0
0
VERTEX
8
0
10
36.5568
20
89.1446667598745
30
0
0
VERTEX
8
0
10
37.2736
20
89.0236938765455
30
0
0
VERTEX
8
0
10
37.9904
20
88.906712678647
30
0
0
VERTEX
8
0
10
38.7072
20
88.7935317390958
30
0
0
VERTEX
8
0
10
39.424
20
88.68397141235
30
0
0
VERTEX
8
0
10
40.1408
20
88.5778629714505
30
0
0
VERTEX
8
0
10
40.8576
20
88.4750478158592
30
0
0
VERTEX
8
0
10
41.5744
20
88.3753767440317
30
0
0
VERTEX
8
0
10
42.2912
20
88.2787092851322
30
0
0
VERTEX
8
0
10
43.008
20
88.1849130847543
30
0
0
VERTEX
8
0
10
43.7248
20
88.0938633399475
30
0
0
VERTEX
8
0
10
44.4416
20
88.0054422792528
30
0
0
VERTEX
8
0
10
45.1584
20
87.919538683833
30
0
0
VERTEX
8
0
10
45.8752
20
87.8360474461327
30
0
0
VERTEX
8
0
10
46.592
20
87.7548691628236
30
0
0
VERTEX
8
0
10
47.3088
20
87.6759097590866
30
0
0
VERTEX
8
0
10
48.0256
20
87.599080141551
30
0
0
VERTEX
8
0
10
48.7424
20
87.5242958774525
30
0
0
VERTEX
8
0
10
49.4592
20
87.4514768977991
30
0
0
VERTEX
8
0
10
50.176
20
87.3805472225295
30
0
0
VERTEX
8
0
10
50.8928
20
87.3114347058369
30
0
0
VERTEX
8
0
10
51.6096
20
87.2440707999913
30
0
0
VERTEX
8
0
10
52.3264
20
87.1783903361475
30
0
0
VERTEX
8
0
10
53.0432
20
87.1143313207588
30
0
0
VERTEX
8
0
10
53.76
20
87.0518347463404
30
0
0
VERTEX
8
0
10
54.4768
20
86.9908444154381
30
0
0
VERTEX
8
0
10
55.1936
20
86.9313067767556
30
0
0
VERTEX
8
0
10
55.9104
20
86.8731707724905
30
0
0
VERTEX
8
0
10
56.6272
20
86.8163876960047
30
0
0
VERTEX
8
0
10
57.344
20
86.7609110590363
30
0
0
VERTEX
8
0
10
58.0608
20
86.7066964677229
30
0
0
VERTEX
8
0
10
58.7776
20
86.6537015067721
30
0
0
VERTEX
8
0
10
59.4944
20
86.6018856311668
30
0
0
VERTEX
8
0
10
60.2112
20
86.5512100648476
30
0
0
VERTEX
8
0
10
60.928
20
86.5016377058588
30
0
0
VERTEX
8
0
10
61.6448
20
86.4531330374859
30
0
0
VERTEX
8
0
10
62.3616
20
86.4056620449532
30
0
0
VERTEX
8
0
10
63.0784
20
86.3591921372834
30
0
0
VERTEX
8
0
10
63.7952
20
86.313692073952
30
0
0
VERTEX
8
0
10
64.512
20
86.2691318960012
30
0
0
VERTEX
8
0
10
65.2288
20
86.2254828613011
30
0
0
VERTEX
8
0
10
65.9456
20
86.1827173836743
30
0
0
VERTEX
8
0
10
66.6624
20
86.1408089756162
30
0
0
VERTEX
8
0
10
67.3792
20
86.0997321943711
30
0
0
VERTEX
8
0
10
68.096
20
86.0594625911354
30
0
0
VERTEX
8
0
10
68.8128
20
86.0199766631819
30
0
0
VERTEX
8
0
10
69.5296
20
85.9812518087111
30
0
0
VERTEX
8
0
10
70.2464
20
85.9432662842511
30
0
0
VERTEX
8
0
10
70.9632
20
85.9059991644421
30
0
0
VERTEX
8
0
10
71.68
20
85.86943030405
30
0
0
VERTEX
8
0
10
72.3968
20
85.8335403020688
30
0
0
VERTEX
8
0
10
73.1136
20
85.7983104677787
30
0
0
VERTEX
8
0
10
73.8304
20
85.7637227886383
30
0
0
VERTEX
8
0
10
74.5472
20
85.7297598998952
30
0
0
VERTEX
8
0
10
75.264
20
85.696405055811
30
0
0
VERTEX
8
0
10
75.9808
20
85.663642102401
30
0
0
VERTEX
8
0
10
76.6976
20
85.6314554515966
30
0
0
VERTEX
8
0
10
77.4144
20
85.5998300567458
30
0
0
VERTEX
8
0
10
78.1312
20
85.5687513893708
30
0
0
VERTEX
8
0
10
78.848
20
85.5382054171091
30
0
0
VERTEX
8
0
10
79.5648
20
85.5081785827692
30
0
0
VERTEX
8
0
10
80.2816
20
85.4786577844341
30
0
0
VERTEX
8
0
10
80.9984
20
85.4496303565543
30
0
0
VERTEX
8
0
10
81.7152
20
85.4210840519723
30
0
0
VERTEX
8
0
10
82.432
20
85.3930070248263
30
0
0
VERTEX
8
0
10
83.1488
20
85.3653878142824
30
0
0
VERTEX
8
0
10
83.8656
20
85.3382153290507
30
0
0
VERTEX
8
0
10
84.5824
20
85.3114788326402
30
0
0
VERTEX
8
0
10
85.2992
20
85.2851679293128
30
0
0
VERTEX
8
0
10
86.016
20
85.2592725506974
30
0
0
VERTEX
8
0
10
86.7328
20
85.2337829430287
30
0
0
VERTEX
8
0
10
87.4496
20
85.2086896549775
30
0
0
VERTEX
8
0
10
88.1664
20
85.1839835260394
30
0
0
VERTEX
8
0
10
88.8832
20
85.1596556754543
30
0
0
VERTEX
8
0
10
89.6
20
85.1356974916264
30
0
0
VERTEX
8
0
10
90.3168
20
85.1121006220213
30
0
0
VERTEX
8
0
10
91.0336
20
85.0888569635124
30
0
0
VERTEX
8
0
10
91.7504
20
85.0659586531557
30
0
0
VERTEX
8
0
10
92.4672
20
85.0433980593705
30
0
0
VERTEX
8
0
10
93.184
20
85.0211677735044
30
0
0
VERTEX
8
0
10
93.9008
20
84.9992606017649
30
0
0
VERTEX
8
0
10
94.6176
20
84.9776695574975
30
0
0
VERTEX
8
0
10
95.3344
20
84.9563878537943
30
0
0
VERTEX
8
0
10
96.0512
20
84.9354088964163
30
0
0
VERTEX
8
0
10
96.768
20
84.914726277014
30
0
0
VERTEX
8
0
10
97.4848
20
84.8943337666317
30
0
0
VERTEX
8
0
10
98.2016
20
84.8742253094821
30
0
0
VERTEX
8
0
10
98.9184
20
84.8543950169776
30
0
0
VERTEX
8
0
10
99.6352
20
84.8348371620068
30
0
0
VERTEX
8
0
10
100.352
20
84.8155461734439
30
0
0
VERTEX
8
0
10
101.0688
20
84.7965166308805
30
0
0
VERTEX
8
0
10
101.7856
20
84.7777432595693
30
0
0
VERTEX
8
0
10
102.5024
20
84.7592209255688
30
0
0
VERTEX
8
0
10
103.2192
20
84.7409446310822
30
0
0
VERTEX
8
0
10
103.936
20
84.7229095099786
30
0
0
VERTEX
8
0
10
104.6528
20
84.7051108234906
30
0
0
VERTEX
8
0
10
105.3696
20
84.6875439560786
30
0
0
VERTEX
8
0
10
106.0864
20
84.6702044114553
30
0
0
VERTEX
8
0
10
106.8032
20
84.6530878087632
30
0
0
VERTEX
8
0
10
107.52
20
84.6361898788978
30
0
0
VERTEX
8
0
10
108.2368
20
84.6195064609696
30
0
0
VERTEX
8
0
10
108.9536
20
84.6030334989011
30
0
0
VERTEX
8
0
10
109.6704
20
84.5867670381498
30
0
0
VERTEX
8
0
10
110.3872
20
84.5707032225538
30
0
0
VERTEX
8
0
10
111.104
20
84.5548382912943
30
0
0
VERTEX
8
0
10
111.8208
20
84.5391685759695
30
0
0
VERTEX
8
0
10
112.5376
20
84.5236904977759
30
0
0
VERTEX
8
0
10
113.2544
20
84.5084005647917
30
0
0
VERTEX
8
0
10
113.9712
20
84.4932953693582
30
0
0
VERTEX
8
0
10
114.688
20
84.4783715855559
30
0
0
VERTEX
8
0
10
115.4048
20
84.46362596677
30
0
0
VERTEX
8
0
10
116.1216
20
84.4490553433427
30
0
0
VERTEX
8
0
10
116.8384
20
84.4346566203083
30
0
0
VERTEX
8
0
10
117.5552
20
84.4204267752074
30
0
0
VERTEX
8
0
10
118.272
20
84.4063628559781
30
0
0
VERTEX
8
0
10
118.9888
20
84.3924619789193
30
0
0
VERTEX
8
0
10
119.7056
20
84.3787213267252
30
0
0
VERTEX
8
0
10
120.4224
20
84.3651381465865
30
0
0
VERTEX
8
0
10
121.1392
20
84.3517097483568
30
0
0
VERTEX
8
0
10
121.856
20
84.3384335027806
30
0
0
VERTEX
8
0
10
122.5728
20
84.3253068397817
30
0
0
VERTEX
8
0
10
123.2896
20
84.3123272468085
30
0
0
VERTEX
8
0
10
124.0064
20
84.2994922672345
30
0
0
VERTEX
8
0
10
124.7232
20
84.2867994988124
30
0
0
VERTEX
8
0
10
125.44
20
84.2742465921781
30
0
0
VERTEX
8
0
10
126.1568
20
84.2618312494047
30
0
0
VERTEX
8
0
10
126.8736
20
84.2495512226034
30
0
0
VERTEX
8
0
10
127.5904
20
84.2374043125697
30
0
0
VERTEX
8
0
10
128.3072
20
84.225388367473
30
0
0
VERTEX
8
0
10
129.024
20
84.2135012815891
30
0
0
VERTEX
8
0
10
129.7408
20
84.2017409940721
30
0
0
VERTEX
8
0
10
130.4576
20
84.1901054877664
30
0
0
VERTEX
8
0
10
131.1744
20
84.1785927880552
30
0
0
VERTEX
8
0
10
131.8912
20
84.1672009617458
30
0
0
VERTEX
8
0
10
132.608
20
84.1559281159898
30
0
0
VERTEX
8
0
10
133.3248
20
84.1447723972365
30
0
0
VERTEX
8
0
10
134.0416
20
84.133731990219
30
0
0
VERTEX
8
0
10
134.7584
20
84.1228051169712
30
0
0
VERTEX
8
0
10
135.4752
20
84.1119900358756
30
0
0
VERTEX
8
0
10
136.192
20
84.1012850407388
30
0
0
VERTEX
8
0
10
136.9088
20
84.0906884598969
30
0
0
VERTEX
8
0
10
137.6256
20
84.0801986553459
30
0
0
VERTEX
8
0
10
138.3424
20
84.0698140218997
30
0
0
VERTEX
8
0
10
139.0592
20
84.0595329863727
30
0
0
VERTEX
8
0
10
139.776
20
84.0493540067863
30
0
0
VERTEX
8
0
10
140.4928
20
84.0392755715998
30
0
0
VERTEX
8
0
10
141.2096
20
84.029296198963
30
0
0
VERTEX
8
0
10
141.9264
20
84.0194144359915
30
0
0
VERTEX
8
0
10
142.6432
20
84.0096288580621
30
0
0
VERTEX
8
0
10
143.36
20
83.99993806813
30
0
0
VERTEX
8
0
10
144.0768
20
83.9903406960646
30
0
0
VERTEX
8
0
10
144.7936
20
83.9808353980046
30
0
0
VERTEX
8
0
10
145.5104
20
83.9714208557321
30
0
0
VERTEX
8
0
10
146.2272
20
83.9620957760637
30
0
0
VERTEX
8
0
10
146.944
20
83.9528588902597
30
0
0
VERTEX
8
0
10
147.6608
20
83.9437089534493
30
0
0
VERTEX
8
0
10
148.3776
20
83.9346447440718
30
0
0
VERTEX
8
0
10
149.0944
20
83.9256650633346
30
0
0
VERTEX
8
0
10
149.8112
20
83.9167687346847
30
0
0
VERTEX
8
0
10
150.528
20
83.9079546032956
30
0
0
VERTEX
8
0
10
151.2448
20
83.8992215355689
30
0
0
VERTEX
8
0
10
151.9616
20
83.8905684186482
30
0
0
VERTEX
8
0
10
152.6784
20
83.8819941599475
30
0
0
VERTEX
8
0
10
153.3952
20
83.8734976866919
30
0
0
VERTEX
8
0
10
154.112
20
83.8650779454704
30
0
0
VERTEX
8
0
10
154.8288
20
83.8567339018016
30
0
0
VERTEX
8
0
10
155.5456
20
83.8484645397105
30
0
0
VERTEX
8
0
10
156.2624
20
83.8402688613162
30
0
0
VERTEX
8
0
10
156.9792
20
83.8321458864314
30
0
0
VERTEX
8
0
10
157.696
20
83.8240946521723
30
0
0
SEQEND
8
0
0
ENDSEC
0
EOF
