0
SECTION
2
HEADER
9
$ACADVER
1
AC1009
0
ENDSEC
0
SECTION
2
ENTITIES
0
POLYLINE
8
0
62
0
70
1
10
0
20
0
30
0
0
VERTEX
8
0
10
0
20
0
30
0
0
VERTEX
8
0
10
0
20
150
30
0
0
VERTEX
8
0
10
500
20
150
30
0
0
VERTEX
8
0
10
500
20
0
30
0
0
SEQEND
8
0
0
TEXT
8
0
62
0
10
0
20
-12
30
0
40
8
1
0
50
0
0
LINE
8
0
62
0
10
2.5
20
0
30
0
11
2.5
21
3.2
31
0
0
LINE
8
0
62
0
10
2.5
20
150
30
0
11
2.5
21
146.8
31
0
0
LINE
8
0
62
0
10
5
20
0
30
0
11
5
21
3.2
31
0
0
LINE
8
0
62
0
10
5
20
150
30
0
11
5
21
146.8
31
0
0
LINE
8
0
62
0
10
7.5
20
0
30
0
11
7.5
21
3.2
31
0
0
LINE
8
0
62
0
10
7.5
20
150
30
0
11
7.5
21
146.8
31
0
0
LINE
8
0
62
0
10
10
20
0
30
0
11
10
21
3.2
31
0
0
LINE
8
0
62
0
10
10
20
150
30
0
11
10
21
146.8
31
0
0
LINE
8
0
62
0
10
12.5
20
0
30
0
11
12.5
21
6.4
31
0
0
LINE
8
0
62
0
10
12.5
20
150
30
0
11
12.5
21
143.6
31
0
0
TEXT
8
0
62
0
10
12.5
20
-12
30
0
40
8
1
5
50
0
0
LINE
8
0
62
0
10
15
20
0
30
0
11
15
21
3.2
31
0
0
LINE
8
0
62
0
10
15
20
150
30
0
11
15
21
146.8
31
0
0
LINE
8
0
62
0
10
17.5
20
0
30
0
11
17.5
21
3.2
31
0
0
LINE
8
0
62
0
10
17.5
20
150
30
0
11
17.5
21
146.8
31
0
0
LINE
8
0
62
0
10
20
20
0
30
0
11
20
21
3.2
31
0
0
LINE
8
0
62
0
10
20
20
150
30
0
11
20
21
146.8
31
0
0
LINE
8
0
62
0
10
22.5
20
0
30
0
11
22.5
21
3.2
31
0
0
LINE
8
0
62
0
10
22.5
20
150
30
0
11
22.5
21
146.8
31
0
0
LINE
8
0
62
0
10
25
20
0
30
0
11
25
21
6.4
31
0
0
LINE
8
0
62
0
10
25
20
150
30
0
11
25
21
143.6
31
0
0
TEXT
8
0
62
0
10
25
20
-12
30
0
40
8
1
10
50
0
0
LINE
8
0
62
0
10
27.5
20
0
30
0
11
27.5
21
3.2
31
0
0
LINE
8
0
62
0
10
27.5
20
150
30
0
11
27.5
21
146.8
31
0
0
LINE
8
0
62
0
10
30
20
0
30
0
11
30
21
3.2
31
0
0
LINE
8
0
62
0
10
30
20
150
30
0
11
30
21
146.8
31
0
0
LINE
8
0
62
0
10
32.5
20
0
30
0
11
32.5
21
3.2
31
0
0
LINE
8
0
62
0
10
32.5
20
150
30
0
11
32.5
21
146.8
31
0
0
LINE
8
0
62
0
10
35
20
0
30
0
11
35
21
3.2
31
0
0
LINE
8
0
62
0
10
35
20
150
30
0
11
35
21
146.8
31
0
0
LINE
8
0
62
0
10
37.5
20
0
30
0
11
37.5
21
6.4
31
0
0
LINE
8
0
62
0
10
37.5
20
150
30
0
11
37.5
21
143.6
31
0
0
TEXT
8
0
62
0
10
37.5
20
-12
30
0
40
8
1
15
50
0
0
LINE
8
0
62
0
10
40
20
0
30
0
11
40
21
3.2
31
0
0
LINE
8
0
62
0
10
40
20
150
30
0
11
40
21
146.8
31
0
0
LINE
8
0
62
0
10
42.5
20
0
30
0
11
42.5
21
3.2
31
0
0
LINE
8
0
62
0
10
42.5
20
150
30
0
11
42.5
21
146.8
31
0
0
LINE
8
0
62
0
10
45
20
0
30
0
11
45
21
3.2
31
0
0
LINE
8
0
62
0
10
45
20
150
30
0
11
45
21
146.8
31
0
0
LINE
8
0
62
0
10
47.5
20
0
30
0
11
47.5
21
3.2
31
0
0
LINE
8
0
62
0
10
47.5
20
150
30
0
11
47.5
21
146.8
31
0
0
LINE
8
0
62
0
10
50
20
0
30
0
11
50
21
6.4
31
0
0
LINE
8
0
62
0
10
50
20
150
30
0
11
50
21
143.6
31
0
0
TEXT
8
0
62
0
10
50
20
-12
30
0
40
8
1
20
50
0
0
LINE
8
0
62
0
10
52.5
20
0
30
0
11
52.5
21
3.2
31
0
0
LINE
8
0
62
0
10
52.5
20
150
30
0
11
52.5
21
146.8
31
0
0
LINE
8
0
62
0
10
55
20
0
30
0
11
55
21
3.2
31
0
0
LINE
8
0
62
0
10
55
20
150
30
0
11
55
21
146.8
31
0
0
LINE
8
0
62
0
10
57.5
20
0
30
0
11
57.5
21
3.2
31
0
0
LINE
8
0
62
0
10
57.5
20
150
30
0
11
57.5
21
146.8
31
0
0
LINE
8
0
62
0
10
60
20
0
30
0
11
60
21
3.2
31
0
0
LINE
8
0
62
0
10
60
20
150
30
0
11
60
21
146.8
31
0
0
LINE
8
0
62
0
10
62.5
20
0
30
0
11
62.5
21
6.4
31
0
0
LINE
8
0
62
0
10
62.5
20
150
30
0
11
62.5
21
143.6
31
0
0
TEXT
8
0
62
0
10
62.5
20
-12
30
0
40
8
1
25
50
0
0
LINE
8
0
62
0
10
65
20
0
30
0
11
65
21
3.2
31
0
0
LINE
8
0
62
0
10
65
20
150
30
0
11
65
21
146.8
31
0
0
LINE
8
0
62
0
10
67.5
20
0
30
0
11
67.5
21
3.2
31
0
0
LINE
8
0
62
0
10
67.5
20
150
30
0
11
67.5
21
146.8
31
0
0
LINE
8
0
62
0
10
70
20
0
30
0
11
70
21
3.2
31
0
0
LINE
8
0
62
0
10
70
20
150
30
0
11
70
21
146.8
31
0
0
LINE
8
0
62
0
10
72.5
20
0
30
0
11
72.5
21
3.2
31
0
0
LINE
8
0
62
0
10
72.5
20
150
30
0
11
72.5
21
146.8
31
0
0
LINE
8
0
62
0
10
75
20
0
30
0
11
75
21
6.4
31
0
0
LINE
8
0
62
0
10
75
20
150
30
0
11
75
21
143.6
31
0
0
TEXT
8
0
62
0
10
75
20
-12
30
0
40
8
1
30
50
0
0
LINE
8
0
62
0
10
77.5
20
0
30
0
11
77.5
21
3.2
31
0
0
LINE
8
0
62
0
10
77.5
20
150
30
0
11
77.5
21
146.8
31
0
0
LINE
8
0
62
0
10
80
20
0
30
0
11
80
21
3.2
31
0
0
LINE
8
0
62
0
10
80
20
150
30
0
11
80
21
146.8
31
0
0
LINE
8
0
62
0
10
82.5
20
0
30
0
11
82.5
21
3.2
31
0
0
LINE
8
0
62
0
10
82.5
20
150
30
0
11
82.5
21
146.8
31
0
0
LINE
8
0
62
0
10
85
20
0
30
0
11
85
21
3.2
31
0
0
LINE
8
0
62
0
10
85
20
150
30
0
11
85
21
146.8
31
0
0
LINE
8
0
62
0
10
87.5
20
0
30
0
11
87.5
21
6.4
31
0
0
LINE
8
0
62
0
10
87.5
20
150
30
0
11
87.5
21
143.6
31
0
0
TEXT
8
0
62
0
10
87.5
20
-12
30
0
40
8
1
35
50
0
0
LINE
8
0
62
0
10
90
20
0
30
0
11
90
21
3.2
31
0
0
LINE
8
0
62
0
10
90
20
150
30
0
11
90
21
146.8
31
0
0
LINE
8
0
62
0
10
92.5
20
0
30
0
11
92.5
21
3.2
31
0
0
LINE
8
0
62
0
10
92.5
20
150
30
0
11
92.5
21
146.8
31
0
0
LINE
8
0
62
0
10
95
20
0
30
0
11
95
21
3.2
31
0
0
LINE
8
0
62
0
10
95
20
150
30
0
11
95
21
146.8
31
0
0
LINE
8
0
62
0
10
97.5
20
0
30
0
11
97.5
21
3.2
31
0
0
LINE
8
0
62
0
10
97.5
20
150
30
0
11
97.5
21
146.8
31
0
0
LINE
8
0
62
0
10
100
20
0
30
0
11
100
21
6.4
31
0
0
LINE
8
0
62
0
10
100
20
150
30
0
11
100
21
143.6
31
0
0
TEXT
8
0
62
0
10
100
20
-12
30
0
40
8
1
40
50
0
0
LINE
8
0
62
0
10
102.5
20
0
30
0
11
102.5
21
3.2
31
0
0
LINE
8
0
62
0
10
102.5
20
150
30
0
11
102.5
21
146.8
31
0
0
LINE
8
0
62
0
10
105
20
0
30
0
11
105
21
3.2
31
0
0
LINE
8
0
62
0
10
105
20
150
30
0
11
105
21
146.8
31
0
0
LINE
8
0
62
0
10
107.5
20
0
30
0
11
107.5
21
3.2
31
0
0
LINE
8
0
62
0
10
107.5
20
150
30
0
11
107.5
21
146.8
31
0
0
LINE
8
0
62
0
10
110
20
0
30
0
11
110
21
3.2
31
0
0
LINE
8
0
62
0
10
110
20
150
30
0
11
110
21
146.8
31
0
0
LINE
8
0
62
0
10
112.5
20
0
30
0
11
112.5
21
6.4
31
0
0
LINE
8
0
62
0
10
112.5
20
150
30
0
11
112.5
21
143.6
31
0
0
TEXT
8
0
62
0
10
112.5
20
-12
30
0
40
8
1
45
50
0
0
LINE
8
0
62
0
10
115
20
0
30
0
11
115
21
3.2
31
0
0
LINE
8
0
62
0
10
115
20
150
30
0
11
115
21
146.8
31
0
0
LINE
8
0
62
0
10
117.5
20
0
30
0
11
117.5
21
3.2
31
0
0
LINE
8
0
62
0
10
117.5
20
150
30
0
11
117.5
21
146.8
31
0
0
LINE
8
0
62
0
10
120
20
0
30
0
11
120
21
3.2
31
0
0
LINE
8
0
62
0
10
120
20
150
30
0
11
120
21
146.8
31
0
0
LINE
8
0
62
0
10
122.5
20
0
30
0
11
122.5
21
3.2
31
0
0
LINE
8
0
62
0
10
122.5
20
150
30
0
11
122.5
21
146.8
31
0
0
LINE
8
0
62
0
10
125
20
0
30
0
11
125
21
6.4
31
0
0
LINE
8
0
62
0
10
125
20
150
30
0
11
125
21
143.6
31
0
0
TEXT
8
0
62
0
10
125
20
-12
30
0
40
8
1
50
50
0
0
LINE
8
0
62
0
10
127.5
20
0
30
0
11
127.5
21
3.2
31
0
0
LINE
8
0
62
0
10
127.5
20
150
30
0
11
127.5
21
146.8
31
0
0
LINE
8
0
62
0
10
130
20
0
30
0
11
130
21
3.2
31
0
0
LINE
8
0
62
0
10
130
20
150
30
0
11
130
21
146.8
31
0
0
LINE
8
0
62
0
10
132.5
20
0
30
0
11
132.5
21
3.2
31
0
0
LINE
8
0
62
0
10
132.5
20
150
30
0
11
132.5
21
146.8
31
0
0
LINE
8
0
62
0
10
135
20
0
30
0
11
135
21
3.2
31
0
0
LINE
8
0
62
0
10
135
20
150
30
0
11
135
21
146.8
31
0
0
LINE
8
0
62
0
10
137.5
20
0
30
0
11
137.5
21
6.4
31
0
0
LINE
8
0
62
0
10
137.5
20
150
30
0
11
137.5
21
143.6
31
0
0
TEXT
8
0
62
0
10
137.5
20
-12
30
0
40
8
1
55
50
0
0
LINE
8
0
62
0
10
140
20
0
30
0
11
140
21
3.2
31
0
0
LINE
8
0
62
0
10
140
20
150
30
0
11
140
21
146.8
31
0
0
LINE
8
0
62
0
10
142.5
20
0
30
0
11
142.5
21
3.2
31
0
0
LINE
8
0
62
0
10
142.5
20
150
30
0
11
142.5
21
146.8
31
0
0
LINE
8
0
62
0
10
145
20
0
30
0
11
145
21
3.2
31
0
0
LINE
8
0
62
0
10
145
20
150
30
0
11
145
21
146.8
31
0
0
LINE
8
0
62
0
10
147.5
20
0
30
0
11
147.5
21
3.2
31
0
0
LINE
8
0
62
0
10
147.5
20
150
30
0
11
147.5
21
146.8
31
0
0
LINE
8
0
62
0
10
150
20
0
30
0
11
150
21
6.4
31
0
0
LINE
8
0
62
0
10
150
20
150
30
0
11
150
21
143.6
31
0
0
TEXT
8
0
62
0
10
150
20
-12
30
0
40
8
1
60
50
0
0
LINE
8
0
62
0
10
152.5
20
0
30
0
11
152.5
21
3.2
31
0
0
LINE
8
0
62
0
10
152.5
20
150
30
0
11
152.5
21
146.8
31
0
0
LINE
8
0
62
0
10
155
20
0
30
0
11
155
21
3.2
31
0
0
LINE
8
0
62
0
10
155
20
150
30
0
11
155
21
146.8
31
0
0
LINE
8
0
62
0
10
157.5
20
0
30
0
11
157.5
21
3.2
31
0
0
LINE
8
0
62
0
10
157.5
20
150
30
0
11
157.5
21
146.8
31
0
0
LINE
8
0
62
0
10
160
20
0
30
0
11
160
21
3.2
31
0
0
LINE
8
0
62
0
10
160
20
150
30
0
11
160
21
146.8
31
0
0
LINE
8
0
62
0
10
162.5
20
0
30
0
11
162.5
21
6.4
31
0
0
LINE
8
0
62
0
10
162.5
20
150
30
0
11
162.5
21
143.6
31
0
0
TEXT
8
0
62
0
10
162.5
20
-12
30
0
40
8
1
65
50
0
0
LINE
8
0
62
0
10
165
20
0
30
0
11
165
21
3.2
31
0
0
LINE
8
0
62
0
10
165
20
150
30
0
11
165
21
146.8
31
0
0
LINE
8
0
62
0
10
167.5
20
0
30
0
11
167.5
21
3.2
31
0
0
LINE
8
0
62
0
10
167.5
20
150
30
0
11
167.5
21
146.8
31
0
0
LINE
8
0
62
0
10
170
20
0
30
0
11
170
21
3.2
31
0
0
LINE
8
0
62
0
10
170
20
150
30
0
11
170
21
146.8
31
0
0
LINE
8
0
62
0
10
172.5
20
0
30
0
11
172.5
21
3.2
31
0
0
LINE
8
0
62
0
10
172.5
20
150
30
0
11
172.5
21
146.8
31
0
0
LINE
8
0
62
0
10
175
20
0
30
0
11
175
21
6.4
31
0
0
LINE
8
0
62
0
10
175
20
150
30
0
11
175
21
143.6
31
0
0
TEXT
8
0
62
0
10
175
20
-12
30
0
40
8
1
70
50
0
0
LINE
8
0
62
0
10
177.5
20
0
30
0
11
177.5
21
3.2
31
0
0
LINE
8
0
62
0
10
177.5
20
150
30
0
11
177.5
21
146.8
31
0
0
LINE
8
0
62
0
10
180
20
0
30
0
11
180
21
3.2
31
0
0
LINE
8
0
62
0
10
180
20
150
30
0
11
180
21
146.8
31
0
0
LINE
8
0
62
0
10
182.5
20
0
30
0
11
182.5
21
3.2
31
0
0
LINE
8
0
62
0
10
182.5
20
150
30
0
11
182.5
21
146.8
31
0
0
LINE
8
0
62
0
10
185
20
0
30
0
11
185
21
3.2
31
0
0
LINE
8
0
62
0
10
185
20
150
30
0
11
185
21
146.8
31
0
0
LINE
8
0
62
0
10
187.5
20
0
30
0
11
187.5
21
6.4
31
0
0
LINE
8
0
62
0
10
187.5
20
150
30
0
11
187.5
21
143.6
31
0
0
TEXT
8
0
62
0
10
187.5
20
-12
30
0
40
8
1
75
50
0
0
LINE
8
0
62
0
10
190
20
0
30
0
11
190
21
3.2
31
0
0
LINE
8
0
62
0
10
190
20
150
30
0
11
190
21
146.8
31
0
0
LINE
8
0
62
0
10
192.5
20
0
30
0
11
192.5
21
3.2
31
0
0
LINE
8
0
62
0
10
192.5
20
150
30
0
11
192.5
21
146.8
31
0
0
LINE
8
0
62
0
10
195
20
0
30
0
11
195
21
3.2
31
0
0
LINE
8
0
62
0
10
195
20
150
30
0
11
195
21
146.8
31
0
0
LINE
8
0
62
0
10
197.5
20
0
30
0
11
197.5
21
3.2
31
0
0
LINE
8
0
62
0
10
197.5
20
150
30
0
11
197.5
21
146.8
31
0
0
LINE
8
0
62
0
10
200
20
0
30
0
11
200
21
6.4
31
0
0
LINE
8
0
62
0
10
200
20
150
30
0
11
200
21
143.6
31
0
0
TEXT
8
0
62
0
10
200
20
-12
30
0
40
8
1
80
50
0
0
LINE
8
0
62
0
10
202.5
20
0
30
0
11
202.5
21
3.2
31
0
0
LINE
8
0
62
0
10
202.5
20
150
30
0
11
202.5
21
146.8
31
0
0
LINE
8
0
62
0
10
205
20
0
30
0
11
205
21
3.2
31
0
0
LINE
8
0
62
0
10
205
20
150
30
0
11
205
21
146.8
31
0
0
LINE
8
0
62
0
10
207.5
20
0
30
0
11
207.5
21
3.2
31
0
0
LINE
8
0
62
0
10
207.5
20
150
30
0
11
207.5
21
146.8
31
0
0
LINE
8
0
62
0
10
210
20
0
30
0
11
210
21
3.2
31
0
0
LINE
8
0
62
0
10
210
20
150
30
0
11
210
21
146.8
31
0
0
LINE
8
0
62
0
10
212.5
20
0
30
0
11
212.5
21
6.4
31
0
0
LINE
8
0
62
0
10
212.5
20
150
30
0
11
212.5
21
143.6
31
0
0
TEXT
8
0
62
0
10
212.5
20
-12
30
0
40
8
1
85
50
0
0
LINE
8
0
62
0
10
215
20
0
30
0
11
215
21
3.2
31
0
0
LINE
8
0
62
0
10
215
20
150
30
0
11
215
21
146.8
31
0
0
LINE
8
0
62
0
10
217.5
20
0
30
0
11
217.5
21
3.2
31
0
0
LINE
8
0
62
0
10
217.5
20
150
30
0
11
217.5
21
146.8
31
0
0
LINE
8
0
62
0
10
220
20
0
30
0
11
220
21
3.2
31
0
0
LINE
8
0
62
0
10
220
20
150
30
0
11
220
21
146.8
31
0
0
LINE
8
0
62
0
10
222.5
20
0
30
0
11
222.5
21
3.2
31
0
0
LINE
8
0
62
0
10
222.5
20
150
30
0
11
222.5
21
146.8
31
0
0
LINE
8
0
62
0
10
225
20
0
30
0
11
225
21
6.4
31
0
0
LINE
8
0
62
0
10
225
20
150
30
0
11
225
21
143.6
31
0
0
TEXT
8
0
62
0
10
225
20
-12
30
0
40
8
1
90
50
0
0
LINE
8
0
62
0
10
227.5
20
0
30
0
11
227.5
21
3.2
31
0
0
LINE
8
0
62
0
10
227.5
20
150
30
0
11
227.5
21
146.8
31
0
0
LINE
8
0
62
0
10
230
20
0
30
0
11
230
21
3.2
31
0
0
LINE
8
0
62
0
10
230
20
150
30
0
11
230
21
146.8
31
0
0
LINE
8
0
62
0
10
232.5
20
0
30
0
11
232.5
21
3.2
31
0
0
LINE
8
0
62
0
10
232.5
20
150
30
0
11
232.5
21
146.8
31
0
0
LINE
8
0
62
0
10
235
20
0
30
0
11
235
21
3.2
31
0
0
LINE
8
0
62
0
10
235
20
150
30
0
11
235
21
146.8
31
0
0
LINE
8
0
62
0
10
237.5
20
0
30
0
11
237.5
21
6.4
31
0
0
LINE
8
0
62
0
10
237.5
20
150
30
0
11
237.5
21
143.6
31
0
0
TEXT
8
0
62
0
10
237.5
20
-12
30
0
40
8
1
95
50
0
0
LINE
8
0
62
0
10
240
20
0
30
0
11
240
21
3.2
31
0
0
LINE
8
0
62
0
10
240
20
150
30
0
11
240
21
146.8
31
0
0
LINE
8
0
62
0
10
242.5
20
0
30
0
11
242.5
21
3.2
31
0
0
LINE
8
0
62
0
10
242.5
20
150
30
0
11
242.5
21
146.8
31
0
0
LINE
8
0
62
0
10
245
20
0
30
0
11
245
21
3.2
31
0
0
LINE
8
0
62
0
10
245
20
150
30
0
11
245
21
146.8
31
0
0
LINE
8
0
62
0
10
247.5
20
0
30
0
11
247.5
21
3.2
31
0
0
LINE
8
0
62
0
10
247.5
20
150
30
0
11
247.5
21
146.8
31
0
0
LINE
8
0
62
0
10
250
20
0
30
0
11
250
21
6.4
31
0
0
LINE
8
0
62
0
10
250
20
150
30
0
11
250
21
143.6
31
0
0
TEXT
8
0
62
0
10
250
20
-12
30
0
40
8
1
100
50
0
0
LINE
8
0
62
0
10
252.5
20
0
30
0
11
252.5
21
3.2
31
0
0
LINE
8
0
62
0
10
252.5
20
150
30
0
11
252.5
21
146.8
31
0
0
LINE
8
0
62
0
10
255
20
0
30
0
11
255
21
3.2
31
0
0
LINE
8
0
62
0
10
255
20
150
30
0
11
255
21
146.8
31
0
0
LINE
8
0
62
0
10
257.5
20
0
30
0
11
257.5
21
3.2
31
0
0
LINE
8
0
62
0
10
257.5
20
150
30
0
11
257.5
21
146.8
31
0
0
LINE
8
0
62
0
10
260
20
0
30
0
11
260
21
3.2
31
0
0
LINE
8
0
62
0
10
260
20
150
30
0
11
260
21
146.8
31
0
0
LINE
8
0
62
0
10
262.5
20
0
30
0
11
262.5
21
6.4
31
0
0
LINE
8
0
62
0
10
262.5
20
150
30
0
11
262.5
21
143.6
31
0
0
TEXT
8
0
62
0
10
262.5
20
-12
30
0
40
8
1
105
50
0
0
LINE
8
0
62
0
10
265
20
0
30
0
11
265
21
3.2
31
0
0
LINE
8
0
62
0
10
265
20
150
30
0
11
265
21
146.8
31
0
0
LINE
8
0
62
0
10
267.5
20
0
30
0
11
267.5
21
3.2
31
0
0
LINE
8
0
62
0
10
267.5
20
150
30
0
11
267.5
21
146.8
31
0
0
LINE
8
0
62
0
10
270
20
0
30
0
11
270
21
3.2
31
0
0
LINE
8
0
62
0
10
270
20
150
30
0
11
270
21
146.8
31
0
0
LINE
8
0
62
0
10
272.5
20
0
30
0
11
272.5
21
3.2
31
0
0
LINE
8
0
62
0
10
272.5
20
150
30
0
11
272.5
21
146.8
31
0
0
LINE
8
0
62
0
10
275
20
0
30
0
11
275
21
6.4
31
0
0
LINE
8
0
62
0
10
275
20
150
30
0
11
275
21
143.6
31
0
0
TEXT
8
0
62
0
10
275
20
-12
30
0
40
8
1
110
50
0
0
LINE
8
0
62
0
10
277.5
20
0
30
0
11
277.5
21
3.2
31
0
0
LINE
8
0
62
0
10
277.5
20
150
30
0
11
277.5
21
146.8
31
0
0
LINE
8
0
62
0
10
280
20
0
30
0
11
280
21
3.2
31
0
0
LINE
8
0
62
0
10
280
20
150
30
0
11
280
21
146.8
31
0
0
LINE
8
0
62
0
10
282.5
20
0
30
0
11
282.5
21
3.2
31
0
0
LINE
8
0
62
0
10
282.5
20
150
30
0
11
282.5
21
146.8
31
0
0
LINE
8
0
62
0
10
285
20
0
30
0
11
285
21
3.2
31
0
0
LINE
8
0
62
0
10
285
20
150
30
0
11
285
21
146.8
31
0
0
LINE
8
0
62
0
10
287.5
20
0
30
0
11
287.5
21
6.4
31
0
0
LINE
8
0
62
0
10
287.5
20
150
30
0
11
287.5
21
143.6
31
0
0
TEXT
8
0
62
0
10
287.5
20
-12
30
0
40
8
1
115
50
0
0
LINE
8
0
62
0
10
290
20
0
30
0
11
290
21
3.2
31
0
0
LINE
8
0
62
0
10
290
20
150
30
0
11
290
21
146.8
31
0
0
LINE
8
0
62
0
10
292.5
20
0
30
0
11
292.5
21
3.2
31
0
0
LINE
8
0
62
0
10
292.5
20
150
30
0
11
292.5
21
146.8
31
0
0
LINE
8
0
62
0
10
295
20
0
30
0
11
295
21
3.2
31
0
0
LINE
8
0
62
0
10
295
20
150
30
0
11
295
21
146.8
31
0
0
LINE
8
0
62
0
10
297.5
20
0
30
0
11
297.5
21
3.2
31
0
0
LINE
8
0
62
0
10
297.5
20
150
30
0
11
297.5
21
146.8
31
0
0
LINE
8
0
62
0
10
300
20
0
30
0
11
300
21
6.4
31
0
0
LINE
8
0
62
0
10
300
20
150
30
0
11
300
21
143.6
31
0
0
TEXT
8
0
62
0
10
300
20
-12
30
0
40
8
1
120
50
0
0
LINE
8
0
62
0
10
302.5
20
0
30
0
11
302.5
21
3.2
31
0
0
LINE
8
0
62
0
10
302.5
20
150
30
0
11
302.5
21
146.8
31
0
0
LINE
8
0
62
0
10
305
20
0
30
0
11
305
21
3.2
31
0
0
LINE
8
0
62
0
10
305
20
150
30
0
11
305
21
146.8
31
0
0
LINE
8
0
62
0
10
307.5
20
0
30
0
11
307.5
21
3.2
31
0
0
LINE
8
0
62
0
10
307.5
20
150
30
0
11
307.5
21
146.8
31
0
0
LINE
8
0
62
0
10
310
20
0
30
0
11
310
21
3.2
31
0
0
LINE
8
0
62
0
10
310
20
150
30
0
11
310
21
146.8
31
0
0
LINE
8
0
62
0
10
312.5
20
0
30
0
11
312.5
21
6.4
31
0
0
LINE
8
0
62
0
10
312.5
20
150
30
0
11
312.5
21
143.6
31
0
0
TEXT
8
0
62
0
10
312.5
20
-12
30
0
40
8
1
125
50
0
0
LINE
8
0
62
0
10
315
20
0
30
0
11
315
21
3.2
31
0
0
LINE
8
0
62
0
10
315
20
150
30
0
11
315
21
146.8
31
0
0
LINE
8
0
62
0
10
317.5
20
0
30
0
11
317.5
21
3.2
31
0
0
LINE
8
0
62
0
10
317.5
20
150
30
0
11
317.5
21
146.8
31
0
0
LINE
8
0
62
0
10
320
20
0
30
0
11
320
21
3.2
31
0
0
LINE
8
0
62
0
10
320
20
150
30
0
11
320
21
146.8
31
0
0
LINE
8
0
62
0
10
322.5
20
0
30
0
11
322.5
21
3.2
31
0
0
LINE
8
0
62
0
10
322.5
20
150
30
0
11
322.5
21
146.8
31
0
0
LINE
8
0
62
0
10
325
20
0
30
0
11
325
21
6.4
31
0
0
LINE
8
0
62
0
10
325
20
150
30
0
11
325
21
143.6
31
0
0
TEXT
8
0
62
0
10
325
20
-12
30
0
40
8
1
130
50
0
0
LINE
8
0
62
0
10
327.5
20
0
30
0
11
327.5
21
3.2
31
0
0
LINE
8
0
62
0
10
327.5
20
150
30
0
11
327.5
21
146.8
31
0
0
LINE
8
0
62
0
10
330
20
0
30
0
11
330
21
3.2
31
0
0
LINE
8
0
62
0
10
330
20
150
30
0
11
330
21
146.8
31
0
0
LINE
8
0
62
0
10
332.5
20
0
30
0
11
332.5
21
3.2
31
0
0
LINE
8
0
62
0
10
332.5
20
150
30
0
11
332.5
21
146.8
31
0
0
LINE
8
0
62
0
10
335
20
0
30
0
11
335
21
3.2
31
0
0
LINE
8
0
62
0
10
335
20
150
30
0
11
335
21
146.8
31
0
0
LINE
8
0
62
0
10
337.5
20
0
30
0
11
337.5
21
6.4
31
0
0
LINE
8
0
62
0
10
337.5
20
150
30
0
11
337.5
21
143.6
31
0
0
TEXT
8
0
62
0
10
337.5
20
-12
30
0
40
8
1
135
50
0
0
LINE
8
0
62
0
10
340
20
0
30
0
11
340
21
3.2
31
0
0
LINE
8
0
62
0
10
340
20
150
30
0
11
340
21
146.8
31
0
0
LINE
8
0
62
0
10
342.5
20
0
30
0
11
342.5
21
3.2
31
0
0
LINE
8
0
62
0
10
342.5
20
150
30
0
11
342.5
21
146.8
31
0
0
LINE
8
0
62
0
10
345
20
0
30
0
11
345
21
3.2
31
0
0
LINE
8
0
62
0
10
345
20
150
30
0
11
345
21
146.8
31
0
0
LINE
8
0
62
0
10
347.5
20
0
30
0
11
347.5
21
3.2
31
0
0
LINE
8
0
62
0
10
347.5
20
150
30
0
11
347.5
21
146.8
31
0
0
LINE
8
0
62
0
10
350
20
0
30
0
11
350
21
6.4
31
0
0
LINE
8
0
62
0
10
350
20
150
30
0
11
350
21
143.6
31
0
0
TEXT
8
0
62
0
10
350
20
-12
30
0
40
8
1
140
50
0
0
LINE
8
0
62
0
10
352.5
20
0
30
0
11
352.5
21
3.2
31
0
0
LINE
8
0
62
0
10
352.5
20
150
30
0
11
352.5
21
146.8
31
0
0
LINE
8
0
62
0
10
355
20
0
30
0
11
355
21
3.2
31
0
0
LINE
8
0
62
0
10
355
20
150
30
0
11
355
21
146.8
31
0
0
LINE
8
0
62
0
10
357.5
20
0
30
0
11
357.5
21
3.2
31
0
0
LINE
8
0
62
0
10
357.5
20
150
30
0
11
357.5
21
146.8
31
0
0
LINE
8
0
62
0
10
360
20
0
30
0
11
360
21
3.2
31
0
0
LINE
8
0
62
0
10
360
20
150
30
0
11
360
21
146.8
31
0
0
LINE
8
0
62
0
10
362.5
20
0
30
0
11
362.5
21
6.4
31
0
0
LINE
8
0
62
0
10
362.5
20
150
30
0
11
362.5
21
143.6
31
0
0
TEXT
8
0
62
0
10
362.5
20
-12
30
0
40
8
1
145
50
0
0
LINE
8
0
62
0
10
365
20
0
30
0
11
365
21
3.2
31
0
0
LINE
8
0
62
0
10
365
20
150
30
0
11
365
21
146.8
31
0
0
LINE
8
0
62
0
10
367.5
20
0
30
0
11
367.5
21
3.2
31
0
0
LINE
8
0
62
0
10
367.5
20
150
30
0
11
367.5
21
146.8
31
0
0
LINE
8
0
62
0
10
370
20
0
30
0
11
370
21
3.2
31
0
0
LINE
8
0
62
0
10
370
20
150
30
0
11
370
21
146.8
31
0
0
LINE
8
0
62
0
10
372.5
20
0
30
0
11
372.5
21
3.2
31
0
0
LINE
8
0
62
0
10
372.5
20
150
30
0
11
372.5
21
146.8
31
0
0
LINE
8
0
62
0
10
375
20
0
30
0
11
375
21
6.4
31
0
0
LINE
8
0
62
0
10
375
20
150
30
0
11
375
21
143.6
31
0
0
TEXT
8
0
62
0
10
375
20
-12
30
0
40
8
1
150
50
0
0
LINE
8
0
62
0
10
377.5
20
0
30
0
11
377.5
21
3.2
31
0
0
LINE
8
0
62
0
10
377.5
20
150
30
0
11
377.5
21
146.8
31
0
0
LINE
8
0
62
0
10
380
20
0
30
0
11
380
21
3.2
31
0
0
LINE
8
0
62
0
10
380
20
150
30
0
11
380
21
146.8
31
0
0
LINE
8
0
62
0
10
382.5
20
0
30
0
11
382.5
21
3.2
31
0
0
LINE
8
0
62
0
10
382.5
20
150
30
0
11
382.5
21
146.8
31
0
0
LINE
8
0
62
0
10
385
20
0
30
0
11
385
21
3.2
31
0
0
LINE
8
0
62
0
10
385
20
150
30
0
11
385
21
146.8
31
0
0
LINE
8
0
62
0
10
387.5
20
0
30
0
11
387.5
21
6.4
31
0
0
LINE
8
0
62
0
10
387.5
20
150
30
0
11
387.5
21
143.6
31
0
0
TEXT
8
0
62
0
10
387.5
20
-12
30
0
40
8
1
155
50
0
0
LINE
8
0
62
0
10
390
20
0
30
0
11
390
21
3.2
31
0
0
LINE
8
0
62
0
10
390
20
150
30
0
11
390
21
146.8
31
0
0
LINE
8
0
62
0
10
392.5
20
0
30
0
11
392.5
21
3.2
31
0
0
LINE
8
0
62
0
10
392.5
20
150
30
0
11
392.5
21
146.8
31
0
0
LINE
8
0
62
0
10
395
20
0
30
0
11
395
21
3.2
31
0
0
LINE
8
0
62
0
10
395
20
150
30
0
11
395
21
146.8
31
0
0
LINE
8
0
62
0
10
397.5
20
0
30
0
11
397.5
21
3.2
31
0
0
LINE
8
0
62
0
10
397.5
20
150
30
0
11
397.5
21
146.8
31
0
0
LINE
8
0
62
0
10
400
20
0
30
0
11
400
21
6.4
31
0
0
LINE
8
0
62
0
10
400
20
150
30
0
11
400
21
143.6
31
0
0
TEXT
8
0
62
0
10
400
20
-12
30
0
40
8
1
160
50
0
0
LINE
8
0
62
0
10
402.5
20
0
30
0
11
402.5
21
3.2
31
0
0
LINE
8
0
62
0
10
402.5
20
150
30
0
11
402.5
21
146.8
31
0
0
LINE
8
0
62
0
10
405
20
0
30
0
11
405
21
3.2
31
0
0
LINE
8
0
62
0
10
405
20
150
30
0
11
405
21
146.8
31
0
0
LINE
8
0
62
0
10
407.5
20
0
30
0
11
407.5
21
3.2
31
0
0
LINE
8
0
62
0
10
407.5
20
150
30
0
11
407.5
21
146.8
31
0
0
LINE
8
0
62
0
10
410
20
0
30
0
11
410
21
3.2
31
0
0
LINE
8
0
62
0
10
410
20
150
30
0
11
410
21
146.8
31
0
0
LINE
8
0
62
0
10
412.5
20
0
30
0
11
412.5
21
6.4
31
0
0
LINE
8
0
62
0
10
412.5
20
150
30
0
11
412.5
21
143.6
31
0
0
TEXT
8
0
62
0
10
412.5
20
-12
30
0
40
8
1
165
50
0
0
LINE
8
0
62
0
10
415
20
0
30
0
11
415
21
3.2
31
0
0
LINE
8
0
62
0
10
415
20
150
30
0
11
415
21
146.8
31
0
0
LINE
8
0
62
0
10
417.5
20
0
30
0
11
417.5
21
3.2
31
0
0
LINE
8
0
62
0
10
417.5
20
150
30
0
11
417.5
21
146.8
31
0
0
LINE
8
0
62
0
10
420
20
0
30
0
11
420
21
3.2
31
0
0
LINE
8
0
62
0
10
420
20
150
30
0
11
420
21
146.8
31
0
0
LINE
8
0
62
0
10
422.5
20
0
30
0
11
422.5
21
3.2
31
0
0
LINE
8
0
62
0
10
422.5
20
150
30
0
11
422.5
21
146.8
31
0
0
LINE
8
0
62
0
10
425
20
0
30
0
11
425
21
6.4
31
0
0
LINE
8
0
62
0
10
425
20
150
30
0
11
425
21
143.6
31
0
0
TEXT
8
0
62
0
10
425
20
-12
30
0
40
8
1
170
50
0
0
LINE
8
0
62
0
10
427.5
20
0
30
0
11
427.5
21
3.2
31
0
0
LINE
8
0
62
0
10
427.5
20
150
30
0
11
427.5
21
146.8
31
0
0
LINE
8
0
62
0
10
430
20
0
30
0
11
430
21
3.2
31
0
0
LINE
8
0
62
0
10
430
20
150
30
0
11
430
21
146.8
31
0
0
LINE
8
0
62
0
10
432.5
20
0
30
0
11
432.5
21
3.2
31
0
0
LINE
8
0
62
0
10
432.5
20
150
30
0
11
432.5
21
146.8
31
0
0
LINE
8
0
62
0
10
435
20
0
30
0
11
435
21
3.2
31
0
0
LINE
8
0
62
0
10
435
20
150
30
0
11
435
21
146.8
31
0
0
LINE
8
0
62
0
10
437.5
20
0
30
0
11
437.5
21
6.4
31
0
0
LINE
8
0
62
0
10
437.5
20
150
30
0
11
437.5
21
143.6
31
0
0
TEXT
8
0
62
0
10
437.5
20
-12
30
0
40
8
1
175
50
0
0
LINE
8
0
62
0
10
440
20
0
30
0
11
440
21
3.2
31
0
0
LINE
8
0
62
0
10
440
20
150
30
0
11
440
21
146.8
31
0
0
LINE
8
0
62
0
10
442.5
20
0
30
0
11
442.5
21
3.2
31
0
0
LINE
8
0
62
0
10
442.5
20
150
30
0
11
442.5
21
146.8
31
0
0
LINE
8
0
62
0
10
445
20
0
30
0
11
445
21
3.2
31
0
0
LINE
8
0
62
0
10
445
20
150
30
0
11
445
21
146.8
31
0
0
LINE
8
0
62
0
10
447.5
20
0
30
0
11
447.5
21
3.2
31
0
0
LINE
8
0
62
0
10
447.5
20
150
30
0
11
447.5
21
146.8
31
0
0
LINE
8
0
62
0
10
450
20
0
30
0
11
450
21
6.4
31
0
0
LINE
8
0
62
0
10
450
20
150
30
0
11
450
21
143.6
31
0
0
TEXT
8
0
62
0
10
450
20
-12
30
0
40
8
1
180
50
0
0
LINE
8
0
62
0
10
452.5
20
0
30
0
11
452.5
21
3.2
31
0
0
LINE
8
0
62
0
10
452.5
20
150
30
0
11
452.5
21
146.8
31
0
0
LINE
8
0
62
0
10
455
20
0
30
0
11
455
21
3.2
31
0
0
LINE
8
0
62
0
10
455
20
150
30
0
11
455
21
146.8
31
0
0
LINE
8
0
62
0
10
457.5
20
0
30
0
11
457.5
21
3.2
31
0
0
LINE
8
0
62
0
10
457.5
20
150
30
0
11
457.5
21
146.8
31
0
0
LINE
8
0
62
0
10
460
20
0
30
0
11
460
21
3.2
31
0
0
LINE
8
0
62
0
10
460
20
150
30
0
11
460
21
146.8
31
0
0
LINE
8
0
62
0
10
462.5
20
0
30
0
11
462.5
21
6.4
31
0
0
LINE
8
0
62
0
10
462.5
20
150
30
0
11
462.5
21
143.6
31
0
0
TEXT
8
0
62
0
10
462.5
20
-12
30
0
40
8
1
185
50
0
0
LINE
8
0
62
0
10
465
20
0
30
0
11
465
21
3.2
31
0
0
LINE
8
0
62
0
10
465
20
150
30
0
11
465
21
146.8
31
0
0
LINE
8
0
62
0
10
467.5
20
0
30
0
11
467.5
21
3.2
31
0
0
LINE
8
0
62
0
10
467.5
20
150
30
0
11
467.5
21
146.8
31
0
0
LINE
8
0
62
0
10
470
20
0
30
0
11
470
21
3.2
31
0
0
LINE
8
0
62
0
10
470
20
150
30
0
11
470
21
146.8
31
0
0
LINE
8
0
62
0
10
472.5
20
0
30
0
11
472.5
21
3.2
31
0
0
LINE
8
0
62
0
10
472.5
20
150
30
0
11
472.5
21
146.8
31
0
0
LINE
8
0
62
0
10
475
20
0
30
0
11
475
21
6.4
31
0
0
LINE
8
0
62
0
10
475
20
150
30
0
11
475
21
143.6
31
0
0
TEXT
8
0
62
0
10
475
20
-12
30
0
40
8
1
190
50
0
0
LINE
8
0
62
0
10
477.5
20
0
30
0
11
477.5
21
3.2
31
0
0
LINE
8
0
62
0
10
477.5
20
150
30
0
11
477.5
21
146.8
31
0
0
LINE
8
0
62
0
10
480
20
0
30
0
11
480
21
3.2
31
0
0
LINE
8
0
62
0
10
480
20
150
30
0
11
480
21
146.8
31
0
0
LINE
8
0
62
0
10
482.5
20
0
30
0
11
482.5
21
3.2
31
0
0
LINE
8
0
62
0
10
482.5
20
150
30
0
11
482.5
21
146.8
31
0
0
LINE
8
0
62
0
10
485
20
0
30
0
11
485
21
3.2
31
0
0
LINE
8
0
62
0
10
485
20
150
30
0
11
485
21
146.8
31
0
0
LINE
8
0
62
0
10
487.5
20
0
30
0
11
487.5
21
6.4
31
0
0
LINE
8
0
62
0
10
487.5
20
150
30
0
11
487.5
21
143.6
31
0
0
TEXT
8
0
62
0
10
487.5
20
-12
30
0
40
8
1
195
50
0
0
LINE
8
0
62
0
10
490
20
0
30
0
11
490
21
3.2
31
0
0
LINE
8
0
62
0
10
490
20
150
30
0
11
490
21
146.8
31
0
0
LINE
8
0
62
0
10
492.5
20
0
30
0
11
492.5
21
3.2
31
0
0
LINE
8
0
62
0
10
492.5
20
150
30
0
11
492.5
21
146.8
31
0
0
LINE
8
0
62
0
10
495
20
0
30
0
11
495
21
3.2
31
0
0
LINE
8
0
62
0
10
495
20
150
30
0
11
495
21
146.8
31
0
0
LINE
8
0
62
0
10
497.5
20
0
30
0
11
497.5
21
3.2
31
0
0
LINE
8
0
62
0
10
497.5
20
150
30
0
11
497.5
21
146.8
31
0
0
LINE
8
0
62
0
10
500
20
0
30
0
11
500
21
6.4
31
0
0
LINE
8
0
62
0
10
500
20
150
30
0
11
500
21
143.6
31
0
0
TEXT
8
0
62
0
10
500
20
-12
30
0
40
8
1
200
50
0
0
TEXT
8
0
62
0
10
-4
20
-4
30
0
40
8
1
0
50
0
0
LINE
8
0
62
0
10
0
20
8
30
0
11
3.2
21
8
31
0
0
LINE
8
0
62
0
10
500
20
8
30
0
11
496.8
21
8
31
0
0
LINE
8
0
62
0
10
0
20
16
30
0
11
3.2
21
16
31
0
0
LINE
8
0
62
0
10
500
20
16
30
0
11
496.8
21
16
31
0
0
LINE
8
0
62
0
10
0
20
24
30
0
11
3.2
21
24
31
0
0
LINE
8
0
62
0
10
500
20
24
30
0
11
496.8
21
24
31
0
0
LINE
8
0
62
0
10
0
20
32
30
0
11
3.2
21
32
31
0
0
LINE
8
0
62
0
10
500
20
32
30
0
11
496.8
21
32
31
0
0
LINE
8
0
62
0
10
0
20
40
30
0
11
6.4
21
40
31
0
0
LINE
8
0
62
0
10
500
20
40
30
0
11
493.6
21
40
31
0
0
TEXT
8
0
62
0
10
-4
20
36
30
0
40
8
1
40
50
0
0
LINE
8
0
62
0
10
0
20
48
30
0
11
3.2
21
48
31
0
0
LINE
8
0
62
0
10
500
20
48
30
0
11
496.8
21
48
31
0
0
LINE
8
0
62
0
10
0
20
56
30
0
11
3.2
21
56
31
0
0
LINE
8
0
62
0
10
500
20
56
30
0
11
496.8
21
56
31
0
0
LINE
8
0
62
0
10
0
20
64
30
0
11
3.2
21
64
31
0
0
LINE
8
0
62
0
10
500
20
64
30
0
11
496.8
21
64
31
0
0
LINE
8
0
62
0
10
0
20
72
30
0
11
3.2
21
72
31
0
0
LINE
8
0
62
0
10
500
20
72
30
0
11
496.8
21
72
31
0
0
LINE
8
0
62
0
10
0
20
80
30
0
11
6.4
21
80
31
0
0
LINE
8
0
62
0
10
500
20
80
30
0
11
493.6
21
80
31
0
0
TEXT
8
0
62
0
10
-4
20
76
30
0
40
8
1
80
50
0
0
LINE
8
0
62
0
10
0
20
88
30
0
11
3.2
21
88
31
0
0
LINE
8
0
62
0
10
500
20
88
30
0
11
496.8
21
88
31
0
0
LINE
8
0
62
0
10
0
20
96
30
0
11
3.2
21
96
31
0
0
LINE
8
0
62
0
10
500
20
96
30
0
11
496.8
21
96
31
0
0
LINE
8
0
62
0
10
0
20
104
30
0
11
3.2
21
104
31
0
0
LINE
8
0
62
0
10
500
20
104
30
0
11
496.8
21
104
31
0
0
LINE
8
0
62
0
10
0
20
112
30
0
11
3.2
21
112
31
0
0
LINE
8
0
62
0
10
500
20
112
30
0
11
496.8
21
112
31
0
0
LINE
8
0
62
0
10
0
20
120
30
0
11
6.4
21
120
31
0
0
LINE
8
0
62
0
10
500
20
120
30
0
11
493.6
21
120
31
0
0
TEXT
8
0
62
0
10
-4
20
116
30
0
40
8
1
120
50
0
0
LINE
8
0
62
0
10
0
20
128
30
0
11
3.2
21
128
31
0
0
LINE
8
0
62
0
10
500
20
128
30
0
11
496.8
21
128
31
0
0
LINE
8
0
62
0
10
0
20
136
30
0
11
3.2
21
136
31
0
0
LINE
8
0
62
0
10
500
20
136
30
0
11
496.8
21
136
31
0
0
LINE
8
0
62
0
10
0
20
144
30
0
11
3.2
21
144
31
0
0
LINE
8
0
62
0
10
500
20
144
30
0
11
496.8
21
144
31
0
0
TEXT
8
0
62
0
10
250
20
-32
30
0
40
10
1
R (kpc)
50
0
0
TEXT
8
0
62
0
10
-24
20
75
30
0
40
10
1
V (km/s)
50
90
0
TEXT
8
0
62
0
10
233
20
165
30
0
40
11
1
V vs. R
50
0
0
POLYLINE
8
0
62
0
70
0
10
0
20
0
30
0
0
VERTEX
8
0
10
0
20
0
30
0
0
VERTEX
8
0
10
2.5
20
0
30
0
0
VERTEX
8
0
10
5
20
0
30
0
0
VERTEX
8
0
10
7.5
20
0
30
0
0
VERTEX
8
0
10
10
20
0
30
0
0
VERTEX
8
0
10
12.5
20
0
30
0
0
VERTEX
8
0
10
15
20
0
30
0
0
VERTEX
8
0
10
17.5
20
0
30
0
0
VERTEX
8
0
10
20
20
0
30
0
0
VERTEX
8
0
10
22.5
20
0
30
0
0
VERTEX
8
0
10
25
20
0
30
0
0
VERTEX
8
0
10
27.5
20
0
30
0
0
VERTEX
8
0
10
30
20
0
30
0
0
VERTEX
8
0
10
32.5
20
0
30
0
0
VERTEX
8
0
10
35
20
0
30
0
0
VERTEX
8
0
10
37.5
20
0
30
0
0
VERTEX
8
0
10
40
20
0
30
0
0
VERTEX
8
0
10
42.5
20
0
30
0
0
VERTEX
8
0
10
45
20
0
30
0
0
VERTEX
8
0
10
47.5
20
0
30
0
0
VERTEX
8
0
10
50
20
0
30
0
0
VERTEX
8
0
10
52.5
20
0
30
0
0
VERTEX
8
0
10
55
20
0
30
0
0
VERTEX
8
0
10
57.5
20
0
30
0
0
VERTEX
8
0
10
60
20
0
30
0
0
VERTEX
8
0
10
62.5
20
0
30
0
0
VERTEX
8
0
10
65
20
0
30
0
0
VERTEX
8
0
10
67.5
20
0
30
0
0
VERTEX
8
0
10
70
20
0
30
0
0
VERTEX
8
0
10
72.5
20
0
30
0
0
VERTEX
8
0
10
75
20
0
30
0
0
VERTEX
8
0
10
77.5
20
0
30
0
0
VERTEX
8
0
10
80
20
0
30
0
0
VERTEX
8
0
10
82.5
20
0
30
0
0
VERTEX
8
0
10
85
20
0
30
0
0
VERTEX
8
0
10
87.5
20
0
30
0
0
VERTEX
8
0
10
90
20
0
30
0
0
VERTEX
8
0
10
92.5
20
0
30
0
0
VERTEX
8
0
10
95
20
0
30
0
0
VERTEX
8
0
10
97.5
20
0
30
0
0
VERTEX
8
0
10
100
20
0
30
0
0
VERTEX
8
0
10
102.5
20
0
30
0
0
VERTEX
8
0
10
105
20
0
30
0
0
VERTEX
8
0
10
107.5
20
0
30
0
0
VERTEX
8
0
10
110
20
0
30
0
0
VERTEX
8
0
10
112.5
20
0
30
0
0
VERTEX
8
0
10
115
20
0
30
0
0
VERTEX
8
0
10
117.5
20
0
30
0
0
VERTEX
8
0
10
120
20
0
30
0
0
VERTEX
8
0
10
122.5
20
0
30
0
0
VERTEX
8
0
10
125
20
0
30
0
0
VERTEX
8
0
10
127.5
20
0
30
0
0
VERTEX
8
0
10
130
20
0
30
0
0
VERTEX
8
0
10
132.5
20
0
30
0
0
VERTEX
8
0
10
135
20
0
30
0
0
VERTEX
8
0
10
137.5
20
0
30
0
0
VERTEX
8
0
10
140
20
0
30
0
0
VERTEX
8
0
10
142.5
20
0
30
0
0
VERTEX
8
0
10
145
20
0
30
0
0
VERTEX
8
0
10
147.5
20
0
30
0
0
VERTEX
8
0
10
150
20
0
30
0
0
VERTEX
8
0
10
152.5
20
0
30
0
0
VERTEX
8
0
10
155
20
0
30
0
0
VERTEX
8
0
10
157.5
20
0
30
0
0
VERTEX
8
0
10
160
20
0
30
0
0
VERTEX
8
0
10
162.5
20
0
30
0
0
VERTEX
8
0
10
165
20
0
30
0
0
VERTEX
8
0
10
167.5
20
0
30
0
0
VERTEX
8
0
10
170
20
0
30
0
0
VERTEX
8
0
10
172.5
20
0
30
0
0
VERTEX
8
0
10
175
20
0
30
0
0
VERTEX
8
0
10
177.5
20
0
30
0
0
VERTEX
8
0
10
180
20
0
30
0
0
VERTEX
8
0
10
182.5
20
0
30
0
0
VERTEX
8
0
10
185
20
0
30
0
0
VERTEX
8
0
10
187.5
20
0
30
0
0
VERTEX
8
0
10
190
20
0
30
0
0
VERTEX
8
0
10
192.5
20
0
30
0
0
VERTEX
8
0
10
195
20
0
30
0
0
VERTEX
8
0
10
197.5
20
0
30
0
0
VERTEX
8
0
10
200
20
0
30
0
0
VERTEX
8
0
10
202.5
20
0
30
0
0
VERTEX
8
0
10
205
20
0
30
0
0
VERTEX
8
0
10
207.5
20
0
30
0
0
VERTEX
8
0
10
210
20
0
30
0
0
VERTEX
8
0
10
212.5
20
0
30
0
0
VERTEX
8
0
10
215
20
0
30
0
0
VERTEX
8
0
10
217.5
20
0
30
0
0
VERTEX
8
0
10
220
20
0
30
0
0
VERTEX
8
0
10
222.5
20
0
30
0
0
VERTEX
8
0
10
225
20
0
30
0
0
VERTEX
8
0
10
227.5
20
0
30
0
0
VERTEX
8
0
10
230
20
0
30
0
0
VERTEX
8
0
10
232.5
20
0
30
0
0
VERTEX
8
0
10
235
20
0
30
0
0
VERTEX
8
0
10
237.5
20
0
30
0
0
VERTEX
8
0
10
240
20
0
30
0
0
VERTEX
8
0
10
242.5
20
0
30
0
0
VERTEX
8
0
10
245
20
0
30
0
0
VERTEX
8
0
10
247.5
20
0
30
0
0
VERTEX
8
0
10
250
20
0
30
0
0
VERTEX
8
0
10
252.5
20
0
30
0
0
VERTEX
8
0
10
255
20
0
30
0
0
VERTEX
8
0
10
257.5
20
0
30
0
0
VERTEX
8
0
10
260
20
0
30
0
0
VERTEX
8
0
10
262.5
20
0
30
0
0
VERTEX
8
0
10
265
20
0
30
0
0
VERTEX
8
0
10
267.5
20
0
30
0
0
VERTEX
8
0
10
270
20
0
30
0
0
VERTEX
8
0
10
272.5
20
0
30
0
0
VERTEX
8
0
10
275
20
0
30
0
0
VERTEX
8
0
10
277.5
20
0
30
0
0
VERTEX
8
0
10
280
20
0
30
0
0
VERTEX
8
0
10
282.5
20
0
30
0
0
VERTEX
8
0
10
285
20
0
30
0
0
VERTEX
8
0
10
287.5
20
0
30
0
0
VERTEX
8
0
10
290
20
0
30
0
0
VERTEX
8
0
10
292.5
20
0
30
0
0
VERTEX
8
0
10
295
20
0
30
0
0
VERTEX
8
0
10
297.5
20
0
30
0
0
VERTEX
8
0
10
300
20
0
30
0
0
VERTEX
8
0
10
302.5
20
0
30
0
0
VERTEX
8
0
10
305
20
0
30
0
0
VERTEX
8
0
10
307.5
20
0
30
0
0
VERTEX
8
0
10
310
20
0
30
0
0
VERTEX
8
0
10
312.5
20
0
30
0
0
VERTEX
8
0
10
315
20
0
30
0
0
VERTEX
8
0
10
317.5
20
0
30
0
0
VERTEX
8
0
10
320
20
0
30
0
0
VERTEX
8
0
10
322.5
20
0
30
0
0
VERTEX
8
0
10
325
20
0
30
0
0
VERTEX
8
0
10
327.5
20
0
30
0
0
VERTEX
8
0
10
330
20
0
30
0
0
VERTEX
8
0
10
332.5
20
0
30
0
0
VERTEX
8
0
10
335
20
0
30
0
0
VERTEX
8
0
10
337.5
20
0
30
0
0
VERTEX
8
0
10
340
20
0
30
0
0
VERTEX
8
0
10
342.5
20
0
30
0
0
VERTEX
8
0
10
345
20
0
30
0
0
VERTEX
8
0
10
347.5
20
0
30
0
0
VERTEX
8
0
10
350
20
0
30
0
0
VERTEX
8
0
10
352.5
20
0
30
0
0
VERTEX
8
0
10
355
20
0
30
0
0
VERTEX
8
0
10
357.5
20
0
30
0
0
VERTEX
8
0
10
360
20
0
30
0
0
VERTEX
8
0
10
362.5
20
0
30
0
0
VERTEX
8
0
10
365
20
0
30
0
0
VERTEX
8
0
10
367.5
20
0
30
0
0
VERTEX
8
0
10
370
20
0
30
0
0
VERTEX
8
0
10
372.5
20
0
30
0
0
VERTEX
8
0
10
375
20
0
30
0
0
VERTEX
8
0
10
377.5
20
0
30
0
0
VERTEX
8
0
10
380
20
0
30
0
0
VERTEX
8
0
10
382.5
20
0
30
0
0
VERTEX
8
0
10
385
20
0
30
0
0
VERTEX
8
0
10
387.5
20
0
30
0
0
VERTEX
8
0
10
390
20
0
30
0
0
VERTEX
8
0
10
392.5
20
0
30
0
0
VERTEX
8
0
10
395
20
0
30
0
0
VERTEX
8
0
10
397.5
20
0
30
0
0
VERTEX
8
0
10
400
20
0
30
0
0
VERTEX
8
0
10
402.5
20
0
30
0
0
VERTEX
8
0
10
405
20
0
30
0
0
VERTEX
8
0
10
407.5
20
0
30
0
0
VERTEX
8
0
10
410
20
0
30
0
0
VERTEX
8
0
10
412.5
20
0
30
0
0
VERTEX
8
0
10
415
20
0
30
0
0
VERTEX
8
0
10
417.5
20
0
30
0
0
VERTEX
8
0
10
420
20
0
30
0
0
VERTEX
8
0
10
422.5
20
0
30
0
0
VERTEX
8
0
10
425
20
0
30
0
0
VERTEX
8
0
10
427.5
20
0
30
0
0
VERTEX
8
0
10
430
20
0
30
0
0
VERTEX
8
0
10
432.5
20
0
30
0
0
VERTEX
8
0
10
435
20
0
30
0
0
VERTEX
8
0
10
437.5
20
0
30
0
0
VERTEX
8
0
10
440
20
0
30
0
0
VERTEX
8
0
10
442.5
20
0
30
0
0
VERTEX
8
0
10
445
20
0
30
0
0
VERTEX
8
0
10
447.5
20
0
30
0
0
VERTEX
8
0
10
450
20
0
30
0
0
VERTEX
8
0
10
452.5
20
0
30
0
0
VERTEX
8
0
10
455
20
0
30
0
0
VERTEX
8
0
10
457.5
20
0
30
0
0
VERTEX
8
0
10
460
20
0
30
0
0
VERTEX
8
0
10
462.5
20
0
30
0
0
VERTEX
8
0
10
465
20
0
30
0
0
VERTEX
8
0
10
467.5
20
0
30
0
0
VERTEX
8
0
10
470
20
0
30
0
0
VERTEX
8
0
10
472.5
20
0
30
0
0
VERTEX
8
0
10
475
20
0
30
0
0
SEQEND
8
0
0
POLYLINE
8
0
62
1
70
0
10
0
20
0
30
0
0
VERTEX
8
0
10
0
20
0
30
0
0
VERTEX
8
0
10
2.5
20
0
30
0
0
VERTEX
8
0
10
5
20
0
30
0
0
VERTEX
8
0
10
7.5
20
0
30
0
0
VERTEX
8
0
10
10
20
0
30
0
0
VERTEX
8
0
10
12.5
20
0
30
0
0
VERTEX
8
0
10
15
20
0
30
0
0
VERTEX
8
0
10
17.5
20
0
30
0
0
VERTEX
8
0
10
20
20
0
30
0
0
VERTEX
8
0
10
22.5
20
0
30
0
0
VERTEX
8
0
10
25
20
0
30
0
0
VERTEX
8
0
10
27.5
20
0
30
0
0
VERTEX
8
0
10
30
20
0
30
0
0
VERTEX
8
0
10
32.5
20
0
30
0
0
VERTEX
8
0
10
35
20
0
30
0
0
VERTEX
8
0
10
37.5
20
0
30
0
0
VERTEX
8
0
10
40
20
0
30
0
0
VERTEX
8
0
10
42.5
20
0
30
0
0
VERTEX
8
0
10
45
20
0
30
0
0
VERTEX
8
0
10
47.5
20
0
30
0
0
VERTEX
8
0
10
50
20
0
30
0
0
VERTEX
8
0
10
52.5
20
0
30
0
0
VERTEX
8
0
10
55
20
0
30
0
0
VERTEX
8
0
10
57.5
20
0
30
0
0
VERTEX
8
0
10
60
20
0
30
0
0
VERTEX
8
0
10
62.5
20
0
30
0
0
VERTEX
8
0
10
65
20
0
30
0
0
VERTEX
8
0
10
67.5
20
0
30
0
0
VERTEX
8
0
10
70
20
0
30
0
0
VERTEX
8
0
10
72.5
20
0
30
0
0
VERTEX
8
0
10
75
20
0
30
0
0
VERTEX
8
0
10
77.5
20
0
30
0
0
VERTEX
8
0
10
80
20
0
30
0
0
VERTEX
8
0
10
82.5
20
0
30
0
0
VERTEX
8
0
10
85
20
0
30
0
0
VERTEX
8
0
10
87.5
20
0
30
0
0
VERTEX
8
0
10
90
20
0
30
0
0
VERTEX
8
0
10
92.5
20
0
30
0
0
VERTEX
8
0
10
95
20
0
30
0
0
VERTEX
8
0
10
97.5
20
0
30
0
0
VERTEX
8
0
10
100
20
0
30
0
0
VERTEX
8
0
10
102.5
20
0
30
0
0
VERTEX
8
0
10
105
20
0
30
0
0
VERTEX
8
0
10
107.5
20
0
30
0
0
VERTEX
8
0
10
110
20
0
30
0
0
VERTEX
8
0
10
112.5
20
0
30
0
0
VERTEX
8
0
10
115
20
0
30
0
0
VERTEX
8
0
10
117.5
20
0
30
0
0
VERTEX
8
0
10
120
20
0
30
0
0
VERTEX
8
0
10
122.5
20
0
30
0
0
VERTEX
8
0
10
125
20
0
30
0
0
VERTEX
8
0
10
127.5
20
0
30
0
0
VERTEX
8
0
10
130
20
0
30
0
0
VERTEX
8
0
10
132.5
20
0
30
0
0
VERTEX
8
0
10
135
20
0
30
0
0
VERTEX
8
0
10
137.5
20
0
30
0
0
VERTEX
8
0
10
140
20
0
30
0
0
VERTEX
8
0
10
142.5
20
0
30
0
0
VERTEX
8
0
10
145
20
0
30
0
0
VERTEX
8
0
10
147.5
20
0
30
0
0
VERTEX
8
0
10
150
20
0
30
0
0
VERTEX
8
0
10
152.5
20
0
30
0
0
VERTEX
8
0
10
155
20
0
30
0
0
VERTEX
8
0
10
157.5
20
0
30
0
0
VERTEX
8
0
10
160
20
0
30
0
0
VERTEX
8
0
10
162.5
20
0
30
0
0
VERTEX
8
0
10
165
20
0
30
0
0
VERTEX
8
0
10
167.5
20
0
30
0
0
VERTEX
8
0
10
170
20
0
30
0
0
VERTEX
8
0
10
172.5
20
0
30
0
0
VERTEX
8
0
10
175
20
0
30
0
0
VERTEX
8
0
10
177.5
20
0
30
0
0
VERTEX
8
0
10
180
20
0
30
0
0
VERTEX
8
0
10
182.5
20
0
30
0
0
VERTEX
8
0
10
185
20
0
30
0
0
VERTEX
8
0
10
187.5
20
0
30
0
0
VERTEX
8
0
10
190
20
0
30
0
0
VERTEX
8
0
10
192.5
20
0
30
0
0
VERTEX
8
0
10
195
20
0
30
0
0
VERTEX
8
0
10
197.5
20
0
30
0
0
VERTEX
8
0
10
200
20
0
30
0
0
VERTEX
8
0
10
202.5
20
0
30
0
0
VERTEX
8
0
10
205
20
0
30
0
0
VERTEX
8
0
10
207.5
20
0
30
0
0
VERTEX
8
0
10
210
20
0
30
0
0
VERTEX
8
0
10
212.5
20
0
30
0
0
VERTEX
8
0
10
215
20
0
30
0
0
VERTEX
8
0
10
217.5
20
0
30
0
0
VERTEX
8
0
10
220
20
0
30
0
0
VERTEX
8
0
10
222.5
20
0
30
0
0
VERTEX
8
0
10
225
20
0
30
0
0
VERTEX
8
0
10
227.5
20
0
30
0
0
VERTEX
8
0
10
230
20
0
30
0
0
VERTEX
8
0
10
232.5
20
0
30
0
0
VERTEX
8
0
10
235
20
0
30
0
0
VERTEX
8
0
10
237.5
20
0
30
0
0
VERTEX
8
0
10
240
20
0
30
0
0
VERTEX
8
0
10
242.5
20
0
30
0
0
VERTEX
8
0
10
245
20
0
30
0
0
VERTEX
8
0
10
247.5
20
0
30
0
0
VERTEX
8
0
10
250
20
0
30
0
0
VERTEX
8
0
10
252.5
20
0
30
0
0
VERTEX
8
0
10
255
20
0
30
0
0
VERTEX
8
0
10
257.5
20
0
30
0
0
VERTEX
8
0
10
260
20
0
30
0
0
VERTEX
8
0
10
262.5
20
0
30
0
0
VERTEX
8
0
10
265
20
0
30
0
0
VERTEX
8
0
10
267.5
20
0
30
0
0
VERTEX
8
0
10
270
20
0
30
0
0
VERTEX
8
0
10
272.5
20
0
30
0
0
VERTEX
8
0
10
275
20
0
30
0
0
VERTEX
8
0
10
277.5
20
0
30
0
0
VERTEX
8
0
10
280
20
0
30
0
0
VERTEX
8
0
10
282.5
20
0
30
0
0
VERTEX
8
0
10
285
20
0
30
0
0
VERTEX
8
0
10
287.5
20
0
30
0
0
VERTEX
8
0
10
290
20
0
30
0
0
VERTEX
8
0
10
292.5
20
0
30
0
0
VERTEX
8
0
10
295
20
0
30
0
0
VERTEX
8
0
10
297.5
20
0
30
0
0
VERTEX
8
0
10
300
20
0
30
0
0
VERTEX
8
0
10
302.5
20
0
30
0
0
VERTEX
8
0
10
305
20
0
30
0
0
VERTEX
8
0
10
307.5
20
0
30
0
0
VERTEX
8
0
10
310
20
0
30
0
0
VERTEX
8
0
10
312.5
20
0
30
0
0
VERTEX
8
0
10
315
20
0
30
0
0
VERTEX
8
0
10
317.5
20
0
30
0
0
VERTEX
8
0
10
320
20
0
30
0
0
VERTEX
8
0
10
322.5
20
0
30
0
0
VERTEX
8
0
10
325
20
0
30
0
0
VERTEX
8
0
10
327.5
20
0
30
0
0
VERTEX
8
0
10
330
20
0
30
0
0
VERTEX
8
0
10
332.5
20
0
30
0
0
VERTEX
8
0
10
335
20
0
30
0
0
VERTEX
8
0
10
337.5
20
0
30
0
0
VERTEX
8
0
10
340
20
0
30
0
0
VERTEX
8
0
10
342.5
20
0
30
0
0
VERTEX
8
0
10
345
20
0
30
0
0
VERTEX
8
0
10
347.5
20
0
30
0
0
VERTEX
8
0
10
350
20
0
30
0
0
VERTEX
8
0
10
352.5
20
0
30
0
0
VERTEX
8
0
10
355
20
0
30
0
0
VERTEX
8
0
10
357.5
20
0
30
0
0
VERTEX
8
0
10
360
20
0
30
0
0
VERTEX
8
0
10
362.5
20
0
30
0
0
VERTEX
8
0
10
365
20
0
30
0
0
VERTEX
8
0
10
367.5
20
0
30
0
0
VERTEX
8
0
10
370
20
0
30
0
0
VERTEX
8
0
10
372.5
20
0
30
0
0
VERTEX
8
0
10
375
20
0
30
0
0
VERTEX
8
0
10
377.5
20
0
30
0
0
VERTEX
8
0
10
380
20
0
30
0
0
VERTEX
8
0
10
382.5
20
0
30
0
0
VERTEX
8
0
10
385
20
0
30
0
0
VERTEX
8
0
10
387.5
20
0
30
0
0
VERTEX
8
0
10
390
20
0
30
0
0
VERTEX
8
0
10
392.5
20
0
30
0
0
VERTEX
8
0
10
395
20
0
30
0
0
VERTEX
8
0
10
397.5
20
0
30
0
0
VERTEX
8
0
10
400
20
0
30
0
0
VERTEX
8
0
10
402.5
20
0
30
0
0
VERTEX
8
0
10
405
20
0
30
0
0
VERTEX
8
0
10
407.5
20
0
30
0
0
VERTEX
8
0
10
410
20
0
30
0
0
VERTEX
8
0
10
412.5
20
0
30
0
0
VERTEX
8
0
10
415
20
0
30
0
0
VERTEX
8
0
10
417.5
20
0
30
0
0
VERTEX
8
0
10
420
20
0
30
0
0
VERTEX
8
0
10
422.5
20
0
30
0
0
VERTEX
8
0
10
425
20
0
30
0
0
VERTEX
8
0
10
427.5
20
0
30
0
0
VERTEX
8
0
10
430
20
0
30
0
0
VERTEX
8
0
10
432.5
20
0
30
0
0
VERTEX
8
0
10
435
20
0
30
0
0
VERTEX
8
0
10
437.5
20
0
30
0
0
VERTEX
8
0
10
440
20
0
30
0
0
VERTEX
8
0
10
442.5
20
0
30
0
0
VERTEX
8
0
10
445
20
0
30
0
0
VERTEX
8
0
10
447.5
20
0
30
0
0
VERTEX
8
0
10
450
20
0
30
0
0
VERTEX
8
0
10
452.5
20
0
30
0
0
VERTEX
8
0
10
455
20
0
30
0
0
VERTEX
8
0
10
457.5
20
0
30
0
0
VERTEX
8
0
10
460
20
0
30
0
0
VERTEX
8
0
10
462.5
20
0
30
0
0
VERTEX
8
0
10
465
20
0
30
0
0
VERTEX
8
0
10
467.5
20
0
30
0
0
VERTEX
8
0
10
470
20
0
30
0
0
VERTEX
8
0
10
472.5
20
0
30
0
0
VERTEX
8
0
10
475
20
0
30
0
0
SEQEND
8
0
0
POLYLINE
8
0
62
2
70
0
10
0
20
0
30
0
0
VERTEX
8
0
10
0
20
0
30
0
0
VERTEX
8
0
10
2.5
20
21.195690959524
30
0
0
VERTEX
8
0
10
5
20
38.9877553923528
30
0
0
VERTEX
8
0
10
7.5
20
53.4179251973095
30
0
0
VERTEX
8
0
10
10
20
64.5455296406924
30
0
0
VERTEX
8
0
10
12.5
20
72.4574689649225
30
0
0
VERTEX
8
0
10
15
20
77.2849574899001
30
0
0
VERTEX
8
0
10
17.5
20
79.233282563927
30
0
0
VERTEX
8
0
10
20
20
78.6360686126572
30
0
0
VERTEX
8
0
10
22.5
20
76.0552850282565
30
0
0
VERTEX
8
0
10
25
20
72.4588538390757
30
0
0
VERTEX
8
0
10
27.5
20
69.0857435219323
30
0
0
VERTEX
8
0
10
30
20
66.1443088389579
30
0
0
VERTEX
8
0
10
32.5
20
63.5492706344798
30
0
0
VERTEX
8
0
10
35
20
61.2375349965639
30
0
0
VERTEX
8
0
10
37.5
20
59.1610307281252
30
0
0
VERTEX
8
0
10
40
20
57.2823878328134
30
0
0
VERTEX
8
0
10
42.5
20
55.5720543038557
30
0
0
VERTEX
8
0
10
45
20
54.006310670567
30
0
0
VERTEX
8
0
10
47.5
20
52.5658684572754
30
0
0
VERTEX
8
0
10
50
20
51.234859608883
30
0
0
VERTEX
8
0
10
52.5
20
50.0000941165961
30
0
0
VERTEX
8
0
10
55
20
48.8505055584535
30
0
0
VERTEX
8
0
10
57.5
20
47.7767307968233
30
0
0
VERTEX
8
0
10
60
20
46.7707870788226
30
0
0
VERTEX
8
0
10
62.5
20
45.8258209372504
30
0
0
VERTEX
8
0
10
65
20
44.9359107542867
30
0
0
VERTEX
8
0
10
67.5
20
44.0959099399701
30
0
0
VERTEX
8
0
10
70
20
43.3013212065907
30
0
0
VERTEX
8
0
10
72.5
20
42.5481949049587
30
0
0
VERTEX
8
0
10
75
20
41.8330461628438
30
0
0
VERTEX
8
0
10
77.5
20
41.1527868494185
30
0
0
VERTEX
8
0
10
80
20
40.5046693292518
30
0
0
VERTEX
8
0
10
82.5
20
39.8862396650745
30
0
0
VERTEX
8
0
10
85
20
39.2952984489315
30
0
0
VERTEX
8
0
10
87.5
20
38.7298678343696
30
0
0
VERTEX
8
0
10
90
20
38.1881636418631
30
0
0
VERTEX
8
0
10
92.5
20
37.668571639919
30
0
0
VERTEX
8
0
10
95
20
37.1696272826798
30
0
0
VERTEX
8
0
10
97.5
20
36.6899983240799
30
0
0
VERTEX
8
0
10
100
20
36.2284698380669
30
0
0
VERTEX
8
0
10
102.5
20
35.7839312610115
30
0
0
VERTEX
8
0
10
105
20
35.3553651414092
30
0
0
VERTEX
8
0
10
107.5
20
34.9418373372323
30
0
0
VERTEX
8
0
10
110
20
34.5424884458144
30
0
0
VERTEX
8
0
10
112.5
20
34.1565262872046
30
0
0
VERTEX
8
0
10
115
20
33.7832192912958
30
0
0
VERTEX
8
0
10
117.5
20
33.4218906630454
30
0
0
VERTEX
8
0
10
120
20
33.071913219855
30
0
0
VERTEX
8
0
10
122.5
20
32.7327048114736
30
0
0
VERTEX
8
0
10
125
20
32.4037242463055
30
0
0
VERTEX
8
0
10
127.5
20
32.0844676592533
30
0
0
VERTEX
8
0
10
130
20
31.7744652656308
30
0
0
VERTEX
8
0
10
132.5
20
31.4732784535679
30
0
0
VERTEX
8
0
10
135
20
31.1804971739666
30
0
0
VERTEX
8
0
10
137.5
20
30.8957375926801
30
0
0
VERTEX
8
0
10
140
20
30.6186399743377
30
0
0
VERTEX
8
0
10
142.5
20
30.3488667712806
30
0
0
VERTEX
8
0
10
145
20
30.0861008945201
30
0
0
VERTEX
8
0
10
147.5
20
29.8300441465771
30
0
0
VERTEX
8
0
10
150
20
29.580415798592
30
0
0
VERTEX
8
0
10
152.5
20
29.3369512962653
30
0
0
VERTEX
8
0
10
155
20
29.0994010810681
30
0
0
VERTEX
8
0
10
157.5
20
28.8675295147806
30
0
0
VERTEX
8
0
10
160
20
28.6411138968222
30
0
0
VERTEX
8
0
10
162.5
20
28.4199435650568
30
0
0
VERTEX
8
0
10
165
20
28.2038190718226
30
0
0
VERTEX
8
0
10
167.5
20
27.9925514278575
30
0
0
VERTEX
8
0
10
170
20
27.7859614076082
30
0
0
VERTEX
8
0
10
172.5
20
27.5838789101174
30
0
0
VERTEX
8
0
10
175
20
27.3861423703108
30
0
0
VERTEX
8
0
10
177.5
20
27.1925982160515
30
0
0
VERTEX
8
0
10
180
20
27.0031003668172
30
0
0
VERTEX
8
0
10
182.5
20
26.8175097702795
30
0
0
VERTEX
8
0
10
185
20
26.6356939734458
30
0
0
VERTEX
8
0
10
187.5
20
26.4575267253573
30
0
0
VERTEX
8
0
10
190
20
26.2828876086354
30
0
0
VERTEX
8
0
10
192.5
20
26.1116616974337
30
0
0
VERTEX
8
0
10
195
20
25.943739239587
30
0
0
VERTEX
8
0
10
197.5
20
25.7790153609607
30
0
0
VERTEX
8
0
10
200
20
25.6173897901911
30
0
0
VERTEX
8
0
10
202.5
20
25.4587666021742
30
0
0
VERTEX
8
0
10
205
20
25.3030539788134
30
0
0
VERTEX
8
0
10
207.5
20
25.1501639856698
30
0
0
VERTEX
8
0
10
210
20
25.0000123632808
30
0
0
VERTEX
8
0
10
212.5
20
24.8525183320218
30
0
0
VERTEX
8
0
10
215
20
24.7076044094848
30
0
0
VERTEX
8
0
10
217.5
20
24.5651962394359
30
0
0
VERTEX
8
0
10
220
20
24.4252224314931
30
0
0
VERTEX
8
0
10
222.5
20
24.2876144107408
30
0
0
VERTEX
8
0
10
225
20
24.1523062765602
30
0
0
VERTEX
8
0
10
227.5
20
24.0192346700149
30
0
0
VERTEX
8
0
10
230
20
23.8883386491881
30
0
0
VERTEX
8
0
10
232.5
20
23.7595595719106
30
0
0
VERTEX
8
0
10
235
20
23.6328409853704
30
0
0
VERTEX
8
0
10
237.5
20
23.5081285221297
30
0
0
VERTEX
8
0
10
240
20
23.3853698021151
30
0
0
VERTEX
8
0
10
242.5
20
23.2645143401795
30
0
0
VERTEX
8
0
10
245
20
23.1455134588658
30
0
0
VERTEX
8
0
10
247.5
20
23.0283202060289
30
0
0
VERTEX
8
0
10
250
20
22.912889277
30
0
0
VERTEX
8
0
10
252.5
20
22.7991769410006
30
0
0
VERTEX
8
0
10
255
20
22.6871409715337
30
0
0
VERTEX
8
0
10
257.5
20
22.5767405805012
30
0
0
VERTEX
8
0
10
260
20
22.4679363558148
30
0
0
VERTEX
8
0
10
262.5
20
22.3606902022811
30
0
0
VERTEX
8
0
10
265
20
22.2549652855631
30
0
0
VERTEX
8
0
10
267.5
20
22.150725979028
30
0
0
VERTEX
8
0
10
270
20
22.047937813308
30
0
0
VERTEX
8
0
10
272.5
20
21.9465674284131
30
0
0
VERTEX
8
0
10
275
20
21.8465825282426
30
0
0
VERTEX
8
0
10
277.5
20
21.7479518373568
30
0
0
VERTEX
8
0
10
280
20
21.6506450598751
30
0
0
VERTEX
8
0
10
282.5
20
21.5546328403805
30
0
0
VERTEX
8
0
10
285
20
21.4598867267131
30
0
0
VERTEX
8
0
10
287.5
20
21.366379134548
30
0
0
VERTEX
8
0
10
290
20
21.2740833136558
30
0
0
VERTEX
8
0
10
292.5
20
21.1829733157529
30
0
0
VERTEX
8
0
10
295
20
21.093023963853
30
0
0
VERTEX
8
0
10
297.5
20
21.0042108230389
30
0
0
VERTEX
8
0
10
300
20
20.9165101725762
30
0
0
VERTEX
8
0
10
302.5
20
20.8298989792972
30
0
0
VERTEX
8
0
10
305
20
20.7443548721874
30
0
0
VERTEX
8
0
10
307.5
20
20.659856118111
30
0
0
VERTEX
8
0
10
310
20
20.5763815986143
30
0
0
VERTEX
8
0
10
312.5
20
20.493910787753
30
0
0
VERTEX
8
0
10
315
20
20.4124237308887
30
0
0
VERTEX
8
0
10
317.5
20
20.3319010244051
30
0
0
VERTEX
8
0
10
320
20
20.2523237962984
30
0
0
VERTEX
8
0
10
322.5
20
20.1736736875963
30
0
0
VERTEX
8
0
10
325
20
20.0959328345647
30
0
0
VERTEX
8
0
10
327.5
20
20.0190838516627
30
0
0
VERTEX
8
0
10
330
20
19.9431098152098
30
0
0
VERTEX
8
0
10
332.5
20
19.8679942477293
30
0
0
VERTEX
8
0
10
335
20
19.7937211029352
30
0
0
VERTEX
8
0
10
337.5
20
19.7202747513332
30
0
0
VERTEX
8
0
10
340
20
19.6476399664031
30
0
0
VERTEX
8
0
10
342.5
20
19.5758019113391
30
0
0
VERTEX
8
0
10
345
20
19.5047461263178
30
0
0
VERTEX
8
0
10
347.5
20
19.434458516272
30
0
0
VERTEX
8
0
10
350
20
19.3649253391449
30
0
0
VERTEX
8
0
10
352.5
20
19.2961331946039
30
0
0
VERTEX
8
0
10
355
20
19.2280690131923
30
0
0
VERTEX
8
0
10
357.5
20
19.1607200458983
30
0
0
VERTEX
8
0
10
360
20
19.0940738541236
30
0
0
VERTEX
8
0
10
362.5
20
19.0281183000338
30
0
0
VERTEX
8
0
10
365
20
18.9628415372713
30
0
0
VERTEX
8
0
10
367.5
20
18.8982320020179
30
0
0
VERTEX
8
0
10
370
20
18.8342784043894
30
0
0
VERTEX
8
0
10
372.5
20
18.770969720148
30
0
0
VERTEX
8
0
10
375
20
18.7082951827201
30
0
0
VERTEX
8
0
10
377.5
20
18.6462442755043
30
0
0
VERTEX
8
0
10
380
20
18.5848067244588
30
0
0
VERTEX
8
0
10
382.5
20
18.5239724909556
30
0
0
VERTEX
8
0
10
385
20
18.4637317648902
30
0
0
VERTEX
8
0
10
387.5
20
18.4040749580361
30
0
0
VERTEX
8
0
10
390
20
18.3449926976347
30
0
0
VERTEX
8
0
10
392.5
20
18.2864758202088
30
0
0
VERTEX
8
0
10
395
20
18.2285153655931
30
0
0
VERTEX
8
0
10
397.5
20
18.1711025711706
30
0
0
VERTEX
8
0
10
400
20
18.1142288663084
30
0
0
VERTEX
8
0
10
402.5
20
18.0578858669824
30
0
0
VERTEX
8
0
10
405
20
18.0020653705864
30
0
0
VERTEX
8
0
10
407.5
20
17.9467593509158
30
0
0
VERTEX
8
0
10
410
20
17.8919599533193
30
0
0
VERTEX
8
0
10
412.5
20
17.8376594900138
30
0
0
VERTEX
8
0
10
415
20
17.7838504355536
30
0
0
VERTEX
8
0
10
417.5
20
17.7305254224493
30
0
0
VERTEX
8
0
10
420
20
17.6776772369309
30
0
0
VERTEX
8
0
10
422.5
20
17.6252988148482
30
0
0
VERTEX
8
0
10
425
20
17.5733832377048
30
0
0
VERTEX
8
0
10
427.5
20
17.5219237288189
30
0
0
VERTEX
8
0
10
430
20
17.4709136496083
30
0
0
VERTEX
8
0
10
432.5
20
17.4203464959924
30
0
0
VERTEX
8
0
10
435
20
17.3702158949089
30
0
0
VERTEX
8
0
10
437.5
20
17.32051560094
30
0
0
VERTEX
8
0
10
440
20
17.2712394930441
30
0
0
VERTEX
8
0
10
442.5
20
17.2223815713888
30
0
0
VERTEX
8
0
10
445
20
17.1739359542828
30
0
0
VERTEX
8
0
10
447.5
20
17.1258968752016
30
0
0
VERTEX
8
0
10
450
20
17.078258679904
30
0
0
VERTEX
8
0
10
452.5
20
17.0310158236368
30
0
0
VERTEX
8
0
10
455
20
16.9841628684242
30
0
0
VERTEX
8
0
10
457.5
20
16.9376944804381
30
0
0
VERTEX
8
0
10
460
20
16.8916054274479
30
0
0
VERTEX
8
0
10
462.5
20
16.8458905763454
30
0
0
VERTEX
8
0
10
465
20
16.8005448907439
30
0
0
VERTEX
8
0
10
467.5
20
16.7555634286472
30
0
0
VERTEX
8
0
10
470
20
16.7109413401876
30
0
0
VERTEX
8
0
10
472.5
20
16.666673865429
30
0
0
VERTEX
8
0
10
475
20
16.6227563322344
30
0
0
SEQEND
8
0
0
POLYLINE
8
0
62
3
70
0
10
0
20
0
30
0
0
VERTEX
8
0
10
0
20
0
30
0
0
VERTEX
8
0
10
2.5
20
29.8609008185165
30
0
0
VERTEX
8
0
10
5
20
56.2439675115565
30
0
0
VERTEX
8
0
10
7.5
20
78.735149897245
30
0
0
VERTEX
8
0
10
10
20
97.151207043526
30
0
0
VERTEX
8
0
10
12.5
20
111.467173210467
30
0
0
VERTEX
8
0
10
15
20
121.805232231869
30
0
0
VERTEX
8
0
10
17.5
20
128.450702343686
30
0
0
VERTEX
8
0
10
20
20
131.889179431486
30
0
0
VERTEX
8
0
10
22.5
20
132.861054191091
30
0
0
VERTEX
8
0
10
25
20
132.415053178538
30
0
0
VERTEX
8
0
10
27.5
20
131.667324973444
30
0
0
VERTEX
8
0
10
30
20
130.92438882393
30
0
0
VERTEX
8
0
10
32.5
20
130.220356980134
30
0
0
VERTEX
8
0
10
35
20
129.565583400638
30
0
0
VERTEX
8
0
10
37.5
20
128.96142284006
30
0
0
VERTEX
8
0
10
40
20
128.405610686759
30
0
0
VERTEX
8
0
10
42.5
20
127.894512773546
30
0
0
VERTEX
8
0
10
45
20
127.424123846984
30
0
0
VERTEX
8
0
10
47.5
20
126.990514991464
30
0
0
VERTEX
8
0
10
50
20
126.590024766517
30
0
0
VERTEX
8
0
10
52.5
20
126.219327900882
30
0
0
VERTEX
8
0
10
55
20
125.875445433244
30
0
0
VERTEX
8
0
10
57.5
20
125.55572778311
30
0
0
VERTEX
8
0
10
60
20
125.257826519087
30
0
0
VERTEX
8
0
10
62.5
20
124.979662715813
30
0
0
VERTEX
8
0
10
65
20
124.71939575627
30
0
0
VERTEX
8
0
10
67.5
20
124.475394345755
30
0
0
VERTEX
8
0
10
70
20
124.246210421206
30
0
0
VERTEX
8
0
10
72.5
20
124.030556088227
30
0
0
VERTEX
8
0
10
75
20
123.827283449379
30
0
0
VERTEX
8
0
10
77.5
20
123.635367068841
30
0
0
VERTEX
8
0
10
80
20
123.453888779082
30
0
0
VERTEX
8
0
10
82.5
20
123.282024535981
30
0
0
VERTEX
8
0
10
85
20
123.119033048931
30
0
0
VERTEX
8
0
10
87.5
20
122.964245940359
30
0
0
VERTEX
8
0
10
90
20
122.817059219019
30
0
0
VERTEX
8
0
10
92.5
20
122.676925880124
30
0
0
VERTEX
8
0
10
95
20
122.543349471693
30
0
0
VERTEX
8
0
10
97.5
20
122.415878489727
30
0
0
VERTEX
8
0
10
100
20
122.294101485115
30
0
0
VERTEX
8
0
10
102.5
20
122.177642782535
30
0
0
VERTEX
8
0
10
105
20
122.066158726507
30
0
0
VERTEX
8
0
10
107.5
20
121.959334382329
30
0
0
VERTEX
8
0
10
110
20
121.856880630344
30
0
0
VERTEX
8
0
10
112.5
20
121.758531601007
30
0
0
VERTEX
8
0
10
115
20
121.664042405875
30
0
0
VERTEX
8
0
10
117.5
20
121.573187126086
30
0
0
VERTEX
8
0
10
120
20
121.485757025408
30
0
0
VERTEX
8
0
10
122.5
20
121.401558959509
30
0
0
VERTEX
8
0
10
125
20
121.32041395711
30
0
0
VERTEX
8
0
10
127.5
20
121.242155951966
30
0
0
VERTEX
8
0
10
130
20
121.166630647496
30
0
0
VERTEX
8
0
10
132.5
20
121.093694498317
30
0
0
VERTEX
8
0
10
135
20
121.023213794998
30
0
0
VERTEX
8
0
10
137.5
20
120.955063840128
30
0
0
VERTEX
8
0
10
140
20
120.889128205342
30
0
0
VERTEX
8
0
10
142.5
20
120.825298060226
30
0
0
VERTEX
8
0
10
145
20
120.763471565191
30
0
0
VERTEX
8
0
10
147.5
20
120.703553321335
30
0
0
VERTEX
8
0
10
150
20
120.645453871211
30
0
0
VERTEX
8
0
10
152.5
20
120.589089245104
30
0
0
VERTEX
8
0
10
155
20
120.534380548081
30
0
0
VERTEX
8
0
10
157.5
20
120.481253583623
30
0
0
VERTEX
8
0
10
160
20
120.429638510135
30
0
0
VERTEX
8
0
10
162.5
20
120.379469527039
30
0
0
VERTEX
8
0
10
165
20
120.330684587541
30
0
0
VERTEX
8
0
10
167.5
20
120.28322513547
30
0
0
VERTEX
8
0
10
170
20
120.237035863875
30
0
0
VERTEX
8
0
10
172.5
20
120.192064493325
30
0
0
VERTEX
8
0
10
175
20
120.148261568063
30
0
0
VERTEX
8
0
10
177.5
20
120.105580268362
30
0
0
VERTEX
8
0
10
180
20
120.063976237611
30
0
0
VERTEX
8
0
10
182.5
20
120.023407422795
30
0
0
VERTEX
8
0
10
185
20
119.983833927195
30
0
0
VERTEX
8
0
10
187.5
20
119.945217874203
30
0
0
VERTEX
8
0
10
190
20
119.907523281321
30
0
0
VERTEX
8
0
10
192.5
20
119.870715943451
30
0
0
VERTEX
8
0
10
195
20
119.83476332468
30
0
0
VERTEX
8
0
10
197.5
20
119.799634457878
30
0
0
VERTEX
8
0
10
200
20
119.765299851426
30
0
0
VERTEX
8
0
10
202.5
20
119.73173140252
30
0
0
VERTEX
8
0
10
205
20
119.698902316494
30
0
0
VERTEX
8
0
10
207.5
20
119.666787031707
30
0
0
VERTEX
8
0
10
210
20
119.635361149522
30
0
0
VERTEX
8
0
10
212.5
20
119.604601369007
30
0
0
VERTEX
8
0
10
215
20
119.574485425976
30
0
0
VERTEX
8
0
10
217.5
20
119.544992036034
30
0
0
VERTEX
8
0
10
220
20
119.516100841348
30
0
0
VERTEX
8
0
10
222.5
20
119.487792360824
30
0
0
VERTEX
8
0
10
225
20
119.460047943478
30
0
0
VERTEX
8
0
10
227.5
20
119.432849724736
30
0
0
VERTEX
8
0
10
230
20
119.406180585472
30
0
0
VERTEX
8
0
10
232.5
20
119.380024113564
30
0
0
VERTEX
8
0
10
235
20
119.354364567814
30
0
0
VERTEX
8
0
10
237.5
20
119.32918684405
30
0
0
VERTEX
8
0
10
240
20
119.30447644325
30
0
0
VERTEX
8
0
10
242.5
20
119.280219441574
30
0
0
VERTEX
8
0
10
245
20
119.256402462146
30
0
0
VERTEX
8
0
10
247.5
20
119.233012648486
30
0
0
VERTEX
8
0
10
250
20
119.21003763947
30
0
0
VERTEX
8
0
10
252.5
20
119.187465545723
30
0
0
VERTEX
8
0
10
255
20
119.165284927345
30
0
0
VERTEX
8
0
10
257.5
20
119.14348477289
30
0
0
VERTEX
8
0
10
260
20
119.122054479512
30
0
0
VERTEX
8
0
10
262.5
20
119.100983834199
30
0
0
VERTEX
8
0
10
265
20
119.080262996036
30
0
0
VERTEX
8
0
10
267.5
20
119.059882479426
30
0
0
VERTEX
8
0
10
270
20
119.039833138209
30
0
0
VERTEX
8
0
10
272.5
20
119.020106150623
30
0
0
VERTEX
8
0
10
275
20
119.000693005063
30
0
0
VERTEX
8
0
10
277.5
20
118.981585486573
30
0
0
VERTEX
8
0
10
280
20
118.962775664048
30
0
0
VERTEX
8
0
10
282.5
20
118.944255878085
30
0
0
VERTEX
8
0
10
285
20
118.926018729456
30
0
0
VERTEX
8
0
10
287.5
20
118.90805706816
30
0
0
VERTEX
8
0
10
290
20
118.890363983025
30
0
0
VERTEX
8
0
10
292.5
20
118.872932791823
30
0
0
VERTEX
8
0
10
295
20
118.855757031877
30
0
0
VERTEX
8
0
10
297.5
20
118.83883045112
30
0
0
VERTEX
8
0
10
300
20
118.82214699959
30
0
0
VERTEX
8
0
10
302.5
20
118.805700821337
30
0
0
VERTEX
8
0
10
305
20
118.789486246706
30
0
0
VERTEX
8
0
10
307.5
20
118.773497784998
30
0
0
VERTEX
8
0
10
310
20
118.757730117465
30
0
0
VERTEX
8
0
10
312.5
20
118.742178090632
30
0
0
VERTEX
8
0
10
315
20
118.726836709937
30
0
0
VERTEX
8
0
10
317.5
20
118.711701133651
30
0
0
VERTEX
8
0
10
320
20
118.696766667077
30
0
0
VERTEX
8
0
10
322.5
20
118.682028757023
30
0
0
VERTEX
8
0
10
325
20
118.6674829865
30
0
0
VERTEX
8
0
10
327.5
20
118.653125069682
30
0
0
VERTEX
8
0
10
330
20
118.638950847066
30
0
0
VERTEX
8
0
10
332.5
20
118.624956280858
30
0
0
VERTEX
8
0
10
335
20
118.611137450556
30
0
0
VERTEX
8
0
10
337.5
20
118.597490548723
30
0
0
VERTEX
8
0
10
340
20
118.584011876941
30
0
0
VERTEX
8
0
10
342.5
20
118.570697841939
30
0
0
VERTEX
8
0
10
345
20
118.557544951886
30
0
0
VERTEX
8
0
10
347.5
20
118.544549812835
30
0
0
VERTEX
8
0
10
350
20
118.53170912532
30
0
0
VERTEX
8
0
10
352.5
20
118.519019681092
30
0
0
VERTEX
8
0
10
355
20
118.50647835999
30
0
0
VERTEX
8
0
10
357.5
20
118.494082126937
30
0
0
VERTEX
8
0
10
360
20
118.481828029066
30
0
0
VERTEX
8
0
10
362.5
20
118.469713192949
30
0
0
VERTEX
8
0
10
365
20
118.45773482195
30
0
0
VERTEX
8
0
10
367.5
20
118.445890193677
30
0
0
VERTEX
8
0
10
370
20
118.434176657531
30
0
0
VERTEX
8
0
10
372.5
20
118.42259163236
30
0
0
VERTEX
8
0
10
375
20
118.411132604201
30
0
0
VERTEX
8
0
10
377.5
20
118.399797124103
30
0
0
VERTEX
8
0
10
380
20
118.388582806046
30
0
0
VERTEX
8
0
10
382.5
20
118.377487324928
30
0
0
VERTEX
8
0
10
385
20
118.366508414637
30
0
0
VERTEX
8
0
10
387.5
20
118.355643866191
30
0
0
VERTEX
8
0
10
390
20
118.344891525952
30
0
0
VERTEX
8
0
10
392.5
20
118.334249293898
30
0
0
VERTEX
8
0
10
395
20
118.323715121974
30
0
0
VERTEX
8
0
10
397.5
20
118.313287012485
30
0
0
VERTEX
8
0
10
400
20
118.302963016569
30
0
0
VERTEX
8
0
10
402.5
20
118.292741232703
30
0
0
VERTEX
8
0
10
405
20
118.282619805284
30
0
0
VERTEX
8
0
10
407.5
20
118.272596923246
30
0
0
VERTEX
8
0
10
410
20
118.262670818734
30
0
0
VERTEX
8
0
10
412.5
20
118.252839765823
30
0
0
VERTEX
8
0
10
415
20
118.243102079283
30
0
0
VERTEX
8
0
10
417.5
20
118.233456113385
30
0
0
VERTEX
8
0
10
420
20
118.223900260754
30
0
0
VERTEX
8
0
10
422.5
20
118.214432951256
30
0
0
VERTEX
8
0
10
425
20
118.205052650925
30
0
0
VERTEX
8
0
10
427.5
20
118.19575786093
30
0
0
VERTEX
8
0
10
430
20
118.186547116576
30
0
0
VERTEX
8
0
10
432.5
20
118.177418986333
30
0
0
VERTEX
8
0
10
435
20
118.168372070908
30
0
0
VERTEX
8
0
10
437.5
20
118.159405002341
30
0
0
VERTEX
8
0
10
440
20
118.15051644313
30
0
0
VERTEX
8
0
10
442.5
20
118.141705085393
30
0
0
VERTEX
8
0
10
445
20
118.132969650052
30
0
0
VERTEX
8
0
10
447.5
20
118.12430888604
30
0
0
VERTEX
8
0
10
450
20
118.115721569543
30
0
0
VERTEX
8
0
10
452.5
20
118.107206503262
30
0
0
VERTEX
8
0
10
455
20
118.098762515696
30
0
0
VERTEX
8
0
10
457.5
20
118.090388460454
30
0
0
VERTEX
8
0
10
460
20
118.082083215583
30
0
0
VERTEX
8
0
10
462.5
20
118.073845682924
30
0
0
VERTEX
8
0
10
465
20
118.06567478748
30
0
0
VERTEX
8
0
10
467.5
20
118.057569476815
30
0
0
VERTEX
8
0
10
470
20
118.049528720457
30
0
0
VERTEX
8
0
10
472.5
20
118.041551509337
30
0
0
VERTEX
8
0
10
475
20
118.03363685523
30
0
0
SEQEND
8
0
0
POLYLINE
8
0
62
4
70
0
10
0
20
0
30
0
0
VERTEX
8
0
10
0
20
0
30
0
0
VERTEX
8
0
10
2.5
20
29.8609008185165
30
0
0
VERTEX
8
0
10
5
20
56.2439675115565
30
0
0
VERTEX
8
0
10
7.5
20
78.735149897245
30
0
0
VERTEX
8
0
10
10
20
97.151207043526
30
0
0
VERTEX
8
0
10
12.5
20
111.467173210467
30
0
0
VERTEX
8
0
10
15
20
121.805232231869
30
0
0
VERTEX
8
0
10
17.5
20
128.450702343686
30
0
0
VERTEX
8
0
10
20
20
131.889179431486
30
0
0
VERTEX
8
0
10
22.5
20
132.861054191091
30
0
0
VERTEX
8
0
10
25
20
132.415053178538
30
0
0
VERTEX
8
0
10
27.5
20
131.667324973444
30
0
0
VERTEX
8
0
10
30
20
130.92438882393
30
0
0
VERTEX
8
0
10
32.5
20
130.220356980134
30
0
0
VERTEX
8
0
10
35
20
129.565583400638
30
0
0
VERTEX
8
0
10
37.5
20
128.96142284006
30
0
0
VERTEX
8
0
10
40
20
128.405610686759
30
0
0
VERTEX
8
0
10
42.5
20
127.894512773546
30
0
0
VERTEX
8
0
10
45
20
127.424123846984
30
0
0
VERTEX
8
0
10
47.5
20
126.990514991464
30
0
0
VERTEX
8
0
10
50
20
126.590024766517
30
0
0
VERTEX
8
0
10
52.5
20
126.219327900882
30
0
0
VERTEX
8
0
10
55
20
125.875445433244
30
0
0
VERTEX
8
0
10
57.5
20
125.55572778311
30
0
0
VERTEX
8
0
10
60
20
125.257826519087
30
0
0
VERTEX
8
0
10
62.5
20
124.979662715813
30
0
0
VERTEX
8
0
10
65
20
124.71939575627
30
0
0
VERTEX
8
0
10
67.5
20
124.475394345755
30
0
0
VERTEX
8
0
10
70
20
124.246210421206
30
0
0
VERTEX
8
0
10
72.5
20
124.030556088227
30
0
0
VERTEX
8
0
10
75
20
123.827283449379
30
0
0
VERTEX
8
0
10
77.5
20
123.635367068841
30
0
0
VERTEX
8
0
10
80
20
123.453888779082
30
0
0
VERTEX
8
0
10
82.5
20
123.282024535981
30
0
0
VERTEX
8
0
10
85
20
123.119033048931
30
0
0
VERTEX
8
0
10
87.5
20
122.964245940359
30
0
0
VERTEX
8
0
10
90
20
122.817059219019
30
0
0
VERTEX
8
0
10
92.5
20
122.676925880124
30
0
0
VERTEX
8
0
10
95
20
122.543349471693
30
0
0
VERTEX
8
0
10
97.5
20
122.415878489727
30
0
0
VERTEX
8
0
10
100
20
122.294101485115
30
0
0
VERTEX
8
0
10
102.5
20
122.177642782535
30
0
0
VERTEX
8
0
10
105
20
122.066158726507
30
0
0
VERTEX
8
0
10
107.5
20
121.959334382329
30
0
0
VERTEX
8
0
10
110
20
121.856880630344
30
0
0
VERTEX
8
0
10
112.5
20
121.758531601007
30
0
0
VERTEX
8
0
10
115
20
121.664042405875
30
0
0
VERTEX
8
0
10
117.5
20
121.573187126086
30
0
0
VERTEX
8
0
10
120
20
121.485757025408
30
0
0
VERTEX
8
0
10
122.5
20
121.401558959509
30
0
0
VERTEX
8
0
10
125
20
121.32041395711
30
0
0
VERTEX
8
0
10
127.5
20
121.242155951966
30
0
0
VERTEX
8
0
10
130
20
121.166630647496
30
0
0
VERTEX
8
0
10
132.5
20
121.093694498317
30
0
0
VERTEX
8
0
10
135
20
121.023213794998
30
0
0
VERTEX
8
0
10
137.5
20
120.955063840128
30
0
0
VERTEX
8
0
10
140
20
120.889128205342
30
0
0
VERTEX
8
0
10
142.5
20
120.825298060226
30
0
0
VERTEX
8
0
10
145
20
120.763471565191
30
0
0
VERTEX
8
0
10
147.5
20
120.703553321335
30
0
0
VERTEX
8
0
10
150
20
120.645453871211
30
0
0
VERTEX
8
0
10
152.5
20
120.589089245104
30
0
0
VERTEX
8
0
10
155
20
120.534380548081
30
0
0
VERTEX
8
0
10
157.5
20
120.481253583623
30
0
0
VERTEX
8
0
10
160
20
120.429638510135
30
0
0
VERTEX
8
0
10
162.5
20
120.379469527039
30
0
0
VERTEX
8
0
10
165
20
120.330684587541
30
0
0
VERTEX
8
0
10
167.5
20
120.28322513547
30
0
0
VERTEX
8
0
10
170
20
120.237035863875
30
0
0
VERTEX
8
0
10
172.5
20
120.192064493325
30
0
0
VERTEX
8
0
10
175
20
120.148261568063
30
0
0
VERTEX
8
0
10
177.5
20
120.105580268362
30
0
0
VERTEX
8
0
10
180
20
120.063976237611
30
0
0
VERTEX
8
0
10
182.5
20
120.023407422795
30
0
0
VERTEX
8
0
10
185
20
119.983833927195
30
0
0
VERTEX
8
0
10
187.5
20
119.945217874203
30
0
0
VERTEX
8
0
10
190
20
119.907523281321
30
0
0
VERTEX
8
0
10
192.5
20
119.870715943451
30
0
0
VERTEX
8
0
10
195
20
119.83476332468
30
0
0
VERTEX
8
0
10
197.5
20
119.799634457878
30
0
0
VERTEX
8
0
10
200
20
119.765299851426
30
0
0
VERTEX
8
0
10
202.5
20
119.73173140252
30
0
0
VERTEX
8
0
10
205
20
119.698902316494
30
0
0
VERTEX
8
0
10
207.5
20
119.666787031707
30
0
0
VERTEX
8
0
10
210
20
119.635361149522
30
0
0
VERTEX
8
0
10
212.5
20
119.604601369007
30
0
0
VERTEX
8
0
10
215
20
119.574485425976
30
0
0
VERTEX
8
0
10
217.5
20
119.544992036034
30
0
0
VERTEX
8
0
10
220
20
119.516100841348
30
0
0
VERTEX
8
0
10
222.5
20
119.487792360824
30
0
0
VERTEX
8
0
10
225
20
119.460047943478
30
0
0
VERTEX
8
0
10
227.5
20
119.432849724736
30
0
0
VERTEX
8
0
10
230
20
119.406180585472
30
0
0
VERTEX
8
0
10
232.5
20
119.380024113564
30
0
0
VERTEX
8
0
10
235
20
119.354364567814
30
0
0
VERTEX
8
0
10
237.5
20
119.32918684405
30
0
0
VERTEX
8
0
10
240
20
119.30447644325
30
0
0
VERTEX
8
0
10
242.5
20
119.280219441574
30
0
0
VERTEX
8
0
10
245
20
119.256402462146
30
0
0
VERTEX
8
0
10
247.5
20
119.233012648486
30
0
0
VERTEX
8
0
10
250
20
119.21003763947
30
0
0
VERTEX
8
0
10
252.5
20
119.187465545723
30
0
0
VERTEX
8
0
10
255
20
119.165284927345
30
0
0
VERTEX
8
0
10
257.5
20
119.14348477289
30
0
0
VERTEX
8
0
10
260
20
119.122054479512
30
0
0
VERTEX
8
0
10
262.5
20
119.100983834199
30
0
0
VERTEX
8
0
10
265
20
119.080262996036
30
0
0
VERTEX
8
0
10
267.5
20
119.059882479426
30
0
0
VERTEX
8
0
10
270
20
119.039833138209
30
0
0
VERTEX
8
0
10
272.5
20
119.020106150623
30
0
0
VERTEX
8
0
10
275
20
119.000693005063
30
0
0
VERTEX
8
0
10
277.5
20
118.981585486573
30
0
0
VERTEX
8
0
10
280
20
118.962775664048
30
0
0
VERTEX
8
0
10
282.5
20
118.944255878085
30
0
0
VERTEX
8
0
10
285
20
118.926018729456
30
0
0
VERTEX
8
0
10
287.5
20
118.90805706816
30
0
0
VERTEX
8
0
10
290
20
118.890363983025
30
0
0
VERTEX
8
0
10
292.5
20
118.872932791823
30
0
0
VERTEX
8
0
10
295
20
118.855757031877
30
0
0
VERTEX
8
0
10
297.5
20
118.83883045112
30
0
0
VERTEX
8
0
10
300
20
118.82214699959
30
0
0
VERTEX
8
0
10
302.5
20
118.805700821337
30
0
0
VERTEX
8
0
10
305
20
118.789486246706
30
0
0
VERTEX
8
0
10
307.5
20
118.773497784998
30
0
0
VERTEX
8
0
10
310
20
118.757730117465
30
0
0
VERTEX
8
0
10
312.5
20
118.742178090632
30
0
0
VERTEX
8
0
10
315
20
118.726836709937
30
0
0
VERTEX
8
0
10
317.5
20
118.711701133651
30
0
0
VERTEX
8
0
10
320
20
118.696766667077
30
0
0
VERTEX
8
0
10
322.5
20
118.682028757023
30
0
0
VERTEX
8
0
10
325
20
118.6674829865
30
0
0
VERTEX
8
0
10
327.5
20
118.653125069682
30
0
0
VERTEX
8
0
10
330
20
118.638950847066
30
0
0
VERTEX
8
0
10
332.5
20
118.624956280858
30
0
0
VERTEX
8
0
10
335
20
118.611137450556
30
0
0
VERTEX
8
0
10
337.5
20
118.597490548723
30
0
0
VERTEX
8
0
10
340
20
118.584011876941
30
0
0
VERTEX
8
0
10
342.5
20
118.570697841939
30
0
0
VERTEX
8
0
10
345
20
118.557544951886
30
0
0
VERTEX
8
0
10
347.5
20
118.544549812835
30
0
0
VERTEX
8
0
10
350
20
118.53170912532
30
0
0
VERTEX
8
0
10
352.5
20
118.519019681092
30
0
0
VERTEX
8
0
10
355
20
118.50647835999
30
0
0
VERTEX
8
0
10
357.5
20
118.494082126937
30
0
0
VERTEX
8
0
10
360
20
118.481828029066
30
0
0
VERTEX
8
0
10
362.5
20
118.469713192949
30
0
0
VERTEX
8
0
10
365
20
118.45773482195
30
0
0
VERTEX
8
0
10
367.5
20
118.445890193677
30
0
0
VERTEX
8
0
10
370
20
118.434176657531
30
0
0
VERTEX
8
0
10
372.5
20
118.42259163236
30
0
0
VERTEX
8
0
10
375
20
118.411132604201
30
0
0
VERTEX
8
0
10
377.5
20
118.399797124103
30
0
0
VERTEX
8
0
10
380
20
118.388582806046
30
0
0
VERTEX
8
0
10
382.5
20
118.377487324928
30
0
0
VERTEX
8
0
10
385
20
118.366508414637
30
0
0
VERTEX
8
0
10
387.5
20
118.355643866191
30
0
0
VERTEX
8
0
10
390
20
118.344891525952
30
0
0
VERTEX
8
0
10
392.5
20
118.334249293898
30
0
0
VERTEX
8
0
10
395
20
118.323715121974
30
0
0
VERTEX
8
0
10
397.5
20
118.313287012485
30
0
0
VERTEX
8
0
10
400
20
118.302963016569
30
0
0
VERTEX
8
0
10
402.5
20
118.292741232703
30
0
0
VERTEX
8
0
10
405
20
118.282619805284
30
0
0
VERTEX
8
0
10
407.5
20
118.272596923246
30
0
0
VERTEX
8
0
10
410
20
118.262670818734
30
0
0
VERTEX
8
0
10
412.5
20
118.252839765823
30
0
0
VERTEX
8
0
10
415
20
118.243102079283
30
0
0
VERTEX
8
0
10
417.5
20
118.233456113385
30
0
0
VERTEX
8
0
10
420
20
118.223900260754
30
0
0
VERTEX
8
0
10
422.5
20
118.214432951256
30
0
0
VERTEX
8
0
10
425
20
118.205052650925
30
0
0
VERTEX
8
0
10
427.5
20
118.19575786093
30
0
0
VERTEX
8
0
10
430
20
118.186547116576
30
0
0
VERTEX
8
0
10
432.5
20
118.177418986333
30
0
0
VERTEX
8
0
10
435
20
118.168372070908
30
0
0
VERTEX
8
0
10
437.5
20
118.159405002341
30
0
0
VERTEX
8
0
10
440
20
118.15051644313
30
0
0
VERTEX
8
0
10
442.5
20
118.141705085393
30
0
0
VERTEX
8
0
10
445
20
118.132969650052
30
0
0
VERTEX
8
0
10
447.5
20
118.12430888604
30
0
0
VERTEX
8
0
10
450
20
118.115721569543
30
0
0
VERTEX
8
0
10
452.5
20
118.107206503262
30
0
0
VERTEX
8
0
10
455
20
118.098762515696
30
0
0
VERTEX
8
0
10
457.5
20
118.090388460454
30
0
0
VERTEX
8
0
10
460
20
118.082083215583
30
0
0
VERTEX
8
0
10
462.5
20
118.073845682924
30
0
0
VERTEX
8
0
10
465
20
118.06567478748
30
0
0
VERTEX
8
0
10
467.5
20
118.057569476815
30
0
0
VERTEX
8
0
10
470
20
118.049528720457
30
0
0
VERTEX
8
0
10
472.5
20
118.041551509337
30
0
0
VERTEX
8
0
10
475
20
118.03363685523
30
0
0
SEQEND
8
0
0
POLYLINE
8
0
62
2
70
0
10
0
20
0
30
0
0
VERTEX
8
0
10
0
20
0
30
0
0
VERTEX
8
0
10
2.5
20
21.195690959524
30
0
0
VERTEX
8
0
10
5
20
38.9877553923528
30
0
0
VERTEX
8
0
10
7.5
20
53.4179251973095
30
0
0
VERTEX
8
0
10
10
20
64.5455296406924
30
0
0
VERTEX
8
0
10
12.5
20
72.4574689649225
30
0
0
VERTEX
8
0
10
15
20
77.2849574899001
30
0
0
VERTEX
8
0
10
17.5
20
79.233282563927
30
0
0
VERTEX
8
0
10
20
20
78.6360686126572
30
0
0
VERTEX
8
0
10
22.5
20
76.0552850282565
30
0
0
VERTEX
8
0
10
25
20
72.4588538390757
30
0
0
VERTEX
8
0
10
27.5
20
69.0857435219323
30
0
0
VERTEX
8
0
10
30
20
66.1443088389579
30
0
0
VERTEX
8
0
10
32.5
20
63.5492706344798
30
0
0
VERTEX
8
0
10
35
20
61.2375349965639
30
0
0
VERTEX
8
0
10
37.5
20
59.1610307281252
30
0
0
VERTEX
8
0
10
40
20
57.2823878328134
30
0
0
VERTEX
8
0
10
42.5
20
55.5720543038557
30
0
0
VERTEX
8
0
10
45
20
54.006310670567
30
0
0
VERTEX
8
0
10
47.5
20
52.5658684572754
30
0
0
VERTEX
8
0
10
50
20
51.234859608883
30
0
0
VERTEX
8
0
10
52.5
20
50.0000941165961
30
0
0
VERTEX
8
0
10
55
20
48.8505055584535
30
0
0
VERTEX
8
0
10
57.5
20
47.7767307968233
30
0
0
VERTEX
8
0
10
60
20
46.7707870788226
30
0
0
VERTEX
8
0
10
62.5
20
45.8258209372504
30
0
0
VERTEX
8
0
10
65
20
44.9359107542867
30
0
0
VERTEX
8
0
10
67.5
20
44.0959099399701
30
0
0
VERTEX
8
0
10
70
20
43.3013212065907
30
0
0
VERTEX
8
0
10
72.5
20
42.5481949049587
30
0
0
VERTEX
8
0
10
75
20
41.8330461628438
30
0
0
VERTEX
8
0
10
77.5
20
41.1527868494185
30
0
0
VERTEX
8
0
10
80
20
40.5046693292518
30
0
0
VERTEX
8
0
10
82.5
20
39.8862396650745
30
0
0
VERTEX
8
0
10
85
20
39.2952984489315
30
0
0
VERTEX
8
0
10
87.5
20
38.7298678343696
30
0
0
VERTEX
8
0
10
90
20
38.1881636418631
30
0
0
VERTEX
8
0
10
92.5
20
37.668571639919
30
0
0
VERTEX
8
0
10
95
20
37.1696272826798
30
0
0
VERTEX
8
0
10
97.5
20
36.6899983240799
30
0
0
VERTEX
8
0
10
100
20
36.2284698380669
30
0
0
VERTEX
8
0
10
102.5
20
35.7839312610115
30
0
0
VERTEX
8
0
10
105
20
35.3553651414092
30
0
0
VERTEX
8
0
10
107.5
20
34.9418373372323
30
0
0
VERTEX
8
0
10
110
20
34.5424884458144
30
0
0
VERTEX
8
0
10
112.5
20
34.1565262872046
30
0
0
VERTEX
8
0
10
115
20
33.7832192912958
30
0
0
VERTEX
8
0
10
117.5
20
33.4218906630454
30
0
0
VERTEX
8
0
10
120
20
33.071913219855
30
0
0
VERTEX
8
0
10
122.5
20
32.7327048114736
30
0
0
VERTEX
8
0
10
125
20
32.4037242463055
30
0
0
VERTEX
8
0
10
127.5
20
32.0844676592533
30
0
0
VERTEX
8
0
10
130
20
31.7744652656308
30
0
0
VERTEX
8
0
10
132.5
20
31.4732784535679
30
0
0
VERTEX
8
0
10
135
20
31.1804971739666
30
0
0
VERTEX
8
0
10
137.5
20
30.8957375926801
30
0
0
VERTEX
8
0
10
140
20
30.6186399743377
30
0
0
VERTEX
8
0
10
142.5
20
30.3488667712806
30
0
0
VERTEX
8
0
10
145
20
30.0861008945201
30
0
0
VERTEX
8
0
10
147.5
20
29.8300441465771
30
0
0
VERTEX
8
0
10
150
20
29.580415798592
30
0
0
VERTEX
8
0
10
152.5
20
29.3369512962653
30
0
0
VERTEX
8
0
10
155
20
29.0994010810681
30
0
0
VERTEX
8
0
10
157.5
20
28.8675295147806
30
0
0
VERTEX
8
0
10
160
20
28.6411138968222
30
0
0
VERTEX
8
0
10
162.5
20
28.4199435650568
30
0
0
VERTEX
8
0
10
165
20
28.2038190718226
30
0
0
VERTEX
8
0
10
167.5
20
27.9925514278575
30
0
0
VERTEX
8
0
10
170
20
27.7859614076082
30
0
0
VERTEX
8
0
10
172.5
20
27.5838789101174
30
0
0
VERTEX
8
0
10
175
20
27.3861423703108
30
0
0
VERTEX
8
0
10
177.5
20
27.1925982160515
30
0
0
VERTEX
8
0
10
180
20
27.0031003668172
30
0
0
VERTEX
8
0
10
182.5
20
26.8175097702795
30
0
0
VERTEX
8
0
10
185
20
26.6356939734458
30
0
0
VERTEX
8
0
10
187.5
20
26.4575267253573
30
0
0
VERTEX
8
0
10
190
20
26.2828876086354
30
0
0
VERTEX
8
0
10
192.5
20
26.1116616974337
30
0
0
VERTEX
8
0
10
195
20
25.943739239587
30
0
0
VERTEX
8
0
10
197.5
20
25.7790153609607
30
0
0
VERTEX
8
0
10
200
20
25.6173897901911
30
0
0
VERTEX
8
0
10
202.5
20
25.4587666021742
30
0
0
VERTEX
8
0
10
205
20
25.3030539788134
30
0
0
VERTEX
8
0
10
207.5
20
25.1501639856698
30
0
0
VERTEX
8
0
10
210
20
25.0000123632808
30
0
0
VERTEX
8
0
10
212.5
20
24.8525183320218
30
0
0
VERTEX
8
0
10
215
20
24.7076044094848
30
0
0
VERTEX
8
0
10
217.5
20
24.5651962394359
30
0
0
VERTEX
8
0
10
220
20
24.4252224314931
30
0
0
VERTEX
8
0
10
222.5
20
24.2876144107408
30
0
0
VERTEX
8
0
10
225
20
24.1523062765602
30
0
0
VERTEX
8
0
10
227.5
20
24.0192346700149
30
0
0
VERTEX
8
0
10
230
20
23.8883386491881
30
0
0
VERTEX
8
0
10
232.5
20
23.7595595719106
30
0
0
VERTEX
8
0
10
235
20
23.6328409853704
30
0
0
VERTEX
8
0
10
237.5
20
23.5081285221297
30
0
0
VERTEX
8
0
10
240
20
23.3853698021151
30
0
0
VERTEX
8
0
10
242.5
20
23.2645143401795
30
0
0
VERTEX
8
0
10
245
20
23.1455134588658
30
0
0
VERTEX
8
0
10
247.5
20
23.0283202060289
30
0
0
VERTEX
8
0
10
250
20
22.912889277
30
0
0
VERTEX
8
0
10
252.5
20
22.7991769410006
30
0
0
VERTEX
8
0
10
255
20
22.6871409715337
30
0
0
VERTEX
8
0
10
257.5
20
22.5767405805012
30
0
0
VERTEX
8
0
10
260
20
22.4679363558148
30
0
0
VERTEX
8
0
10
262.5
20
22.3606902022811
30
0
0
VERTEX
8
0
10
265
20
22.2549652855631
30
0
0
VERTEX
8
0
10
267.5
20
22.150725979028
30
0
0
VERTEX
8
0
10
270
20
22.047937813308
30
0
0
VERTEX
8
0
10
272.5
20
21.9465674284131
30
0
0
VERTEX
8
0
10
275
20
21.8465825282426
30
0
0
VERTEX
8
0
10
277.5
20
21.7479518373568
30
0
0
VERTEX
8
0
10
280
20
21.6506450598751
30
0
0
VERTEX
8
0
10
282.5
20
21.5546328403805
30
0
0
VERTEX
8
0
10
285
20
21.4598867267131
30
0
0
VERTEX
8
0
10
287.5
20
21.366379134548
30
0
0
VERTEX
8
0
10
290
20
21.2740833136558
30
0
0
VERTEX
8
0
10
292.5
20
21.1829733157529
30
0
0
VERTEX
8
0
10
295
20
21.093023963853
30
0
0
VERTEX
8
0
10
297.5
20
21.0042108230389
30
0
0
VERTEX
8
0
10
300
20
20.9165101725762
30
0
0
VERTEX
8
0
10
302.5
20
20.8298989792972
30
0
0
VERTEX
8
0
10
305
20
20.7443548721874
30
0
0
VERTEX
8
0
10
307.5
20
20.659856118111
30
0
0
VERTEX
8
0
10
310
20
20.5763815986143
30
0
0
VERTEX
8
0
10
312.5
20
20.493910787753
30
0
0
VERTEX
8
0
10
315
20
20.4124237308887
30
0
0
VERTEX
8
0
10
317.5
20
20.3319010244051
30
0
0
VERTEX
8
0
10
320
20
20.2523237962984
30
0
0
VERTEX
8
0
10
322.5
20
20.1736736875963
30
0
0
VERTEX
8
0
10
325
20
20.0959328345647
30
0
0
VERTEX
8
0
10
327.5
20
20.0190838516627
30
0
0
VERTEX
8
0
10
330
20
19.9431098152098
30
0
0
VERTEX
8
0
10
332.5
20
19.8679942477293
30
0
0
VERTEX
8
0
10
335
20
19.7937211029352
30
0
0
VERTEX
8
0
10
337.5
20
19.7202747513332
30
0
0
VERTEX
8
0
10
340
20
19.6476399664031
30
0
0
VERTEX
8
0
10
342.5
20
19.5758019113391
30
0
0
VERTEX
8
0
10
345
20
19.5047461263178
30
0
0
VERTEX
8
0
10
347.5
20
19.434458516272
30
0
0
VERTEX
8
0
10
350
20
19.3649253391449
30
0
0
VERTEX
8
0
10
352.5
20
19.2961331946039
30
0
0
VERTEX
8
0
10
355
20
19.2280690131923
30
0
0
VERTEX
8
0
10
357.5
20
19.1607200458983
30
0
0
VERTEX
8
0
10
360
20
19.0940738541236
30
0
0
VERTEX
8
0
10
362.5
20
19.0281183000338
30
0
0
VERTEX
8
0
10
365
20
18.9628415372713
30
0
0
VERTEX
8
0
10
367.5
20
18.8982320020179
30
0
0
VERTEX
8
0
10
370
20
18.8342784043894
30
0
0
VERTEX
8
0
10
372.5
20
18.770969720148
30
0
0
VERTEX
8
0
10
375
20
18.7082951827201
30
0
0
VERTEX
8
0
10
377.5
20
18.6462442755043
30
0
0
VERTEX
8
0
10
380
20
18.5848067244588
30
0
0
VERTEX
8
0
10
382.5
20
18.5239724909556
30
0
0
VERTEX
8
0
10
385
20
18.4637317648902
30
0
0
VERTEX
8
0
10
387.5
20
18.4040749580361
30
0
0
VERTEX
8
0
10
390
20
18.3449926976347
30
0
0
VERTEX
8
0
10
392.5
20
18.2864758202088
30
0
0
VERTEX
8
0
10
395
20
18.2285153655931
30
0
0
VERTEX
8
0
10
397.5
20
18.1711025711706
30
0
0
VERTEX
8
0
10
400
20
18.1142288663084
30
0
0
VERTEX
8
0
10
402.5
20
18.0578858669824
30
0
0
VERTEX
8
0
10
405
20
18.0020653705864
30
0
0
VERTEX
8
0
10
407.5
20
17.9467593509158
30
0
0
VERTEX
8
0
10
410
20
17.8919599533193
30
0
0
VERTEX
8
0
10
412.5
20
17.8376594900138
30
0
0
VERTEX
8
0
10
415
20
17.7838504355536
30
0
0
VERTEX
8
0
10
417.5
20
17.7305254224493
30
0
0
VERTEX
8
0
10
420
20
17.6776772369309
30
0
0
VERTEX
8
0
10
422.5
20
17.6252988148482
30
0
0
VERTEX
8
0
10
425
20
17.5733832377048
30
0
0
VERTEX
8
0
10
427.5
20
17.5219237288189
30
0
0
VERTEX
8
0
10
430
20
17.4709136496083
30
0
0
VERTEX
8
0
10
432.5
20
17.4203464959924
30
0
0
VERTEX
8
0
10
435
20
17.3702158949089
30
0
0
VERTEX
8
0
10
437.5
20
17.32051560094
30
0
0
VERTEX
8
0
10
440
20
17.2712394930441
30
0
0
VERTEX
8
0
10
442.5
20
17.2223815713888
30
0
0
VERTEX
8
0
10
445
20
17.1739359542828
30
0
0
VERTEX
8
0
10
447.5
20
17.1258968752016
30
0
0
VERTEX
8
0
10
450
20
17.078258679904
30
0
0
VERTEX
8
0
10
452.5
20
17.0310158236368
30
0
0
VERTEX
8
0
10
455
20
16.9841628684242
30
0
0
VERTEX
8
0
10
457.5
20
16.9376944804381
30
0
0
VERTEX
8
0
10
460
20
16.8916054274479
30
0
0
VERTEX
8
0
10
462.5
20
16.8458905763454
30
0
0
VERTEX
8
0
10
465
20
16.8005448907439
30
0
0
VERTEX
8
0
10
467.5
20
16.7555634286472
30
0
0
VERTEX
8
0
10
470
20
16.7109413401876
30
0
0
VERTEX
8
0
10
472.5
20
16.666673865429
30
0
0
VERTEX
8
0
10
475
20
16.6227563322344
30
0
0
SEQEND
8
0
0
POLYLINE
8
0
62
4
70
0
10
0
20
0
30
0
0
VERTEX
8
0
10
0
20
0
30
0
0
VERTEX
8
0
10
2.5
20
29.8609008185165
30
0
0
VERTEX
8
0
10
5
20
56.2439675115565
30
0
0
VERTEX
8
0
10
7.5
20
78.735149897245
30
0
0
VERTEX
8
0
10
10
20
97.151207043526
30
0
0
VERTEX
8
0
10
12.5
20
111.467173210467
30
0
0
VERTEX
8
0
10
15
20
121.805232231869
30
0
0
VERTEX
8
0
10
17.5
20
128.450702343686
30
0
0
VERTEX
8
0
10
20
20
131.889179431486
30
0
0
VERTEX
8
0
10
22.5
20
132.861054191091
30
0
0
VERTEX
8
0
10
25
20
132.415053178538
30
0
0
VERTEX
8
0
10
27.5
20
131.667324973444
30
0
0
VERTEX
8
0
10
30
20
130.92438882393
30
0
0
VERTEX
8
0
10
32.5
20
130.220356980134
30
0
0
VERTEX
8
0
10
35
20
129.565583400638
30
0
0
VERTEX
8
0
10
37.5
20
128.96142284006
30
0
0
VERTEX
8
0
10
40
20
128.405610686759
30
0
0
VERTEX
8
0
10
42.5
20
127.894512773546
30
0
0
VERTEX
8
0
10
45
20
127.424123846984
30
0
0
VERTEX
8
0
10
47.5
20
126.990514991464
30
0
0
VERTEX
8
0
10
50
20
126.590024766517
30
0
0
VERTEX
8
0
10
52.5
20
126.219327900882
30
0
0
VERTEX
8
0
10
55
20
125.875445433244
30
0
0
VERTEX
8
0
10
57.5
20
125.55572778311
30
0
0
VERTEX
8
0
10
60
20
125.257826519087
30
0
0
VERTEX
8
0
10
62.5
20
124.979662715813
30
0
0
VERTEX
8
0
10
65
20
124.71939575627
30
0
0
VERTEX
8
0
10
67.5
20
124.475394345755
30
0
0
VERTEX
8
0
10
70
20
124.246210421206
30
0
0
VERTEX
8
0
10
72.5
20
124.030556088227
30
0
0
VERTEX
8
0
10
75
20
123.827283449379
30
0
0
VERTEX
8
0
10
77.5
20
123.635367068841
30
0
0
VERTEX
8
0
10
80
20
123.453888779082
30
0
0
VERTEX
8
0
10
82.5
20
123.282024535981
30
0
0
VERTEX
8
0
10
85
20
123.119033048931
30
0
0
VERTEX
8
0
10
87.5
20
122.964245940359
30
0
0
VERTEX
8
0
10
90
20
122.817059219019
30
0
0
VERTEX
8
0
10
92.5
20
122.676925880124
30
0
0
VERTEX
8
0
10
95
20
122.543349471693
30
0
0
VERTEX
8
0
10
97.5
20
122.415878489727
30
0
0
VERTEX
8
0
10
100
20
122.294101485115
30
0
0
VERTEX
8
0
10
102.5
20
122.177642782535
30
0
0
VERTEX
8
0
10
105
20
122.066158726507
30
0
0
VERTEX
8
0
10
107.5
20
121.959334382329
30
0
0
VERTEX
8
0
10
110
20
121.856880630344
30
0
0
VERTEX
8
0
10
112.5
20
121.758531601007
30
0
0
VERTEX
8
0
10
115
20
121.664042405875
30
0
0
VERTEX
8
0
10
117.5
20
121.573187126086
30
0
0
VERTEX
8
0
10
120
20
121.485757025408
30
0
0
VERTEX
8
0
10
122.5
20
121.401558959509
30
0
0
VERTEX
8
0
10
125
20
121.32041395711
30
0
0
VERTEX
8
0
10
127.5
20
121.242155951966
30
0
0
VERTEX
8
0
10
130
20
121.166630647496
30
0
0
VERTEX
8
0
10
132.5
20
121.093694498317
30
0
0
VERTEX
8
0
10
135
20
121.023213794998
30
0
0
VERTEX
8
0
10
137.5
20
120.955063840128
30
0
0
VERTEX
8
0
10
140
20
120.889128205342
30
0
0
VERTEX
8
0
10
142.5
20
120.825298060226
30
0
0
VERTEX
8
0
10
145
20
120.763471565191
30
0
0
VERTEX
8
0
10
147.5
20
120.703553321335
30
0
0
VERTEX
8
0
10
150
20
120.645453871211
30
0
0
VERTEX
8
0
10
152.5
20
120.589089245104
30
0
0
VERTEX
8
0
10
155
20
120.534380548081
30
0
0
VERTEX
8
0
10
157.5
20
120.481253583623
30
0
0
VERTEX
8
0
10
160
20
120.429638510135
30
0
0
VERTEX
8
0
10
162.5
20
120.379469527039
30
0
0
VERTEX
8
0
10
165
20
120.330684587541
30
0
0
VERTEX
8
0
10
167.5
20
120.28322513547
30
0
0
VERTEX
8
0
10
170
20
120.237035863875
30
0
0
VERTEX
8
0
10
172.5
20
120.192064493325
30
0
0
VERTEX
8
0
10
175
20
120.148261568063
30
0
0
VERTEX
8
0
10
177.5
20
120.105580268362
30
0
0
VERTEX
8
0
10
180
20
120.063976237611
30
0
0
VERTEX
8
0
10
182.5
20
120.023407422795
30
0
0
VERTEX
8
0
10
185
20
119.983833927195
30
0
0
VERTEX
8
0
10
187.5
20
119.945217874203
30
0
0
VERTEX
8
0
10
190
20
119.907523281321
30
0
0
VERTEX
8
0
10
192.5
20
119.870715943451
30
0
0
VERTEX
8
0
10
195
20
119.83476332468
30
0
0
VERTEX
8
0
10
197.5
20
119.799634457878
30
0
0
VERTEX
8
0
10
200
20
119.765299851426
30
0
0
VERTEX
8
0
10
202.5
20
119.73173140252
30
0
0
VERTEX
8
0
10
205
20
119.698902316494
30
0
0
VERTEX
8
0
10
207.5
20
119.666787031707
30
0
0
VERTEX
8
0
10
210
20
119.635361149522
30
0
0
VERTEX
8
0
10
212.5
20
119.604601369007
30
0
0
VERTEX
8
0
10
215
20
119.574485425976
30
0
0
VERTEX
8
0
10
217.5
20
119.544992036034
30
0
0
VERTEX
8
0
10
220
20
119.516100841348
30
0
0
VERTEX
8
0
10
222.5
20
119.487792360824
30
0
0
VERTEX
8
0
10
225
20
119.460047943478
30
0
0
VERTEX
8
0
10
227.5
20
119.432849724736
30
0
0
VERTEX
8
0
10
230
20
119.406180585472
30
0
0
VERTEX
8
0
10
232.5
20
119.380024113564
30
0
0
VERTEX
8
0
10
235
20
119.354364567814
30
0
0
VERTEX
8
0
10
237.5
20
119.32918684405
30
0
0
VERTEX
8
0
10
240
20
119.30447644325
30
0
0
VERTEX
8
0
10
242.5
20
119.280219441574
30
0
0
VERTEX
8
0
10
245
20
119.256402462146
30
0
0
VERTEX
8
0
10
247.5
20
119.233012648486
30
0
0
VERTEX
8
0
10
250
20
119.21003763947
30
0
0
VERTEX
8
0
10
252.5
20
119.187465545723
30
0
0
VERTEX
8
0
10
255
20
119.165284927345
30
0
0
VERTEX
8
0
10
257.5
20
119.14348477289
30
0
0
VERTEX
8
0
10
260
20
119.122054479512
30
0
0
VERTEX
8
0
10
262.5
20
119.100983834199
30
0
0
VERTEX
8
0
10
265
20
119.080262996036
30
0
0
VERTEX
8
0
10
267.5
20
119.059882479426
30
0
0
VERTEX
8
0
10
270
20
119.039833138209
30
0
0
VERTEX
8
0
10
272.5
20
119.020106150623
30
0
0
VERTEX
8
0
10
275
20
119.000693005063
30
0
0
VERTEX
8
0
10
277.5
20
118.981585486573
30
0
0
VERTEX
8
0
10
280
20
118.962775664048
30
0
0
VERTEX
8
0
10
282.5
20
118.944255878085
30
0
0
VERTEX
8
0
10
285
20
118.926018729456
30
0
0
VERTEX
8
0
10
287.5
20
118.90805706816
30
0
0
VERTEX
8
0
10
290
20
118.890363983025
30
0
0
VERTEX
8
0
10
292.5
20
118.872932791823
30
0
0
VERTEX
8
0
10
295
20
118.855757031877
30
0
0
VERTEX
8
0
10
297.5
20
118.83883045112
30
0
0
VERTEX
8
0
10
300
20
118.82214699959
30
0
0
VERTEX
8
0
10
302.5
20
118.805700821337
30
0
0
VERTEX
8
0
10
305
20
118.789486246706
30
0
0
VERTEX
8
0
10
307.5
20
118.773497784998
30
0
0
VERTEX
8
0
10
310
20
118.757730117465
30
0
0
VERTEX
8
0
10
312.5
20
118.742178090632
30
0
0
VERTEX
8
0
10
315
20
118.726836709937
30
0
0
VERTEX
8
0
10
317.5
20
118.711701133651
30
0
0
VERTEX
8
0
10
320
20
118.696766667077
30
0
0
VERTEX
8
0
10
322.5
20
118.682028757023
30
0
0
VERTEX
8
0
10
325
20
118.6674829865
30
0
0
VERTEX
8
0
10
327.5
20
118.653125069682
30
0
0
VERTEX
8
0
10
330
20
118.638950847066
30
0
0
VERTEX
8
0
10
332.5
20
118.624956280858
30
0
0
VERTEX
8
0
10
335
20
118.611137450556
30
0
0
VERTEX
8
0
10
337.5
20
118.597490548723
30
0
0
VERTEX
8
0
10
340
20
118.584011876941
30
0
0
VERTEX
8
0
10
342.5
20
118.570697841939
30
0
0
VERTEX
8
0
10
345
20
118.557544951886
30
0
0
VERTEX
8
0
10
347.5
20
118.544549812835
30
0
0
VERTEX
8
0
10
350
20
118.53170912532
30
0
0
VERTEX
8
0
10
352.5
20
118.519019681092
30
0
0
VERTEX
8
0
10
355
20
118.50647835999
30
0
0
VERTEX
8
0
10
357.5
20
118.494082126937
30
0
0
VERTEX
8
0
10
360
20
118.481828029066
30
0
0
VERTEX
8
0
10
362.5
20
118.469713192949
30
0
0
VERTEX
8
0
10
365
20
118.45773482195
30
0
0
VERTEX
8
0
10
367.5
20
118.445890193677
30
0
0
VERTEX
8
0
10
370
20
118.434176657531
30
0
0
VERTEX
8
0
10
372.5
20
118.42259163236
30
0
0
VERTEX
8
0
10
375
20
118.411132604201
30
0
0
VERTEX
8
0
10
377.5
20
118.399797124103
30
0
0
VERTEX
8
0
10
380
20
118.388582806046
30
0
0
VERTEX
8
0
10
382.5
20
118.377487324928
30
0
0
VERTEX
8
0
10
385
20
118.366508414637
30
0
0
VERTEX
8
0
10
387.5
20
118.355643866191
30
0
0
VERTEX
8
0
10
390
20
118.344891525952
30
0
0
VERTEX
8
0
10
392.5
20
118.334249293898
30
0
0
VERTEX
8
0
10
395
20
118.323715121974
30
0
0
VERTEX
8
0
10
397.5
20
118.313287012485
30
0
0
VERTEX
8
0
10
400
20
118.302963016569
30
0
0
VERTEX
8
0
10
402.5
20
118.292741232703
30
0
0
VERTEX
8
0
10
405
20
118.282619805284
30
0
0
VERTEX
8
0
10
407.5
20
118.272596923246
30
0
0
VERTEX
8
0
10
410
20
118.262670818734
30
0
0
VERTEX
8
0
10
412.5
20
118.252839765823
30
0
0
VERTEX
8
0
10
415
20
118.243102079283
30
0
0
VERTEX
8
0
10
417.5
20
118.233456113385
30
0
0
VERTEX
8
0
10
420
20
118.223900260754
30
0
0
VERTEX
8
0
10
422.5
20
118.214432951256
30
0
0
VERTEX
8
0
10
425
20
118.205052650925
30
0
0
VERTEX
8
0
10
427.5
20
118.19575786093
30
0
0
VERTEX
8
0
10
430
20
118.186547116576
30
0
0
VERTEX
8
0
10
432.5
20
118.177418986333
30
0
0
VERTEX
8
0
10
435
20
118.168372070908
30
0
0
VERTEX
8
0
10
437.5
20
118.159405002341
30
0
0
VERTEX
8
0
10
440
20
118.15051644313
30
0
0
VERTEX
8
0
10
442.5
20
118.141705085393
30
0
0
VERTEX
8
0
10
445
20
118.132969650052
30
0
0
VERTEX
8
0
10
447.5
20
118.12430888604
30
0
0
VERTEX
8
0
10
450
20
118.115721569543
30
0
0
VERTEX
8
0
10
452.5
20
118.107206503262
30
0
0
VERTEX
8
0
10
455
20
118.098762515696
30
0
0
VERTEX
8
0
10
457.5
20
118.090388460454
30
0
0
VERTEX
8
0
10
460
20
118.082083215583
30
0
0
VERTEX
8
0
10
462.5
20
118.073845682924
30
0
0
VERTEX
8
0
10
465
20
118.06567478748
30
0
0
VERTEX
8
0
10
467.5
20
118.057569476815
30
0
0
VERTEX
8
0
10
470
20
118.049528720457
30
0
0
VERTEX
8
0
10
472.5
20
118.041551509337
30
0
0
VERTEX
8
0
10
475
20
118.03363685523
30
0
0
SEQEND
8
0
0
ENDSEC
0
EOF
