0
SECTION
2
HEADER
9
$ACADVER
1
AC1009
0
ENDSEC
0
SECTION
2
ENTITIES
0
POLYLINE
8
0
62
0
70
1
10
0
20
0
30
0
0
VERTEX
8
0
10
0
20
0
30
0
0
VERTEX
8
0
10
0
20
121.298
30
0
0
VERTEX
8
0
10
179.2
20
121.298
30
0
0
VERTEX
8
0
10
179.2
20
0
30
0
0
SEQEND
8
0
0
TEXT
8
0
62
0
10
0
20
-12
30
0
40
8
1
0
50
0
0
LINE
8
0
62
0
10
7.902443627839
20
0
30
0
11
7.902443627839
21
3.2
31
0
0
LINE
8
0
62
0
10
7.902443627839
20
121.298
30
0
11
7.902443627839
21
118.098
31
0
0
LINE
8
0
62
0
10
15.804887255678
20
0
30
0
11
15.804887255678
21
3.2
31
0
0
LINE
8
0
62
0
10
15.804887255678
20
121.298
30
0
11
15.804887255678
21
118.098
31
0
0
LINE
8
0
62
0
10
23.707330883517
20
0
30
0
11
23.707330883517
21
3.2
31
0
0
LINE
8
0
62
0
10
23.707330883517
20
121.298
30
0
11
23.707330883517
21
118.098
31
0
0
LINE
8
0
62
0
10
31.609774511356
20
0
30
0
11
31.609774511356
21
3.2
31
0
0
LINE
8
0
62
0
10
31.609774511356
20
121.298
30
0
11
31.609774511356
21
118.098
31
0
0
LINE
8
0
62
0
10
39.512218139195
20
0
30
0
11
39.512218139195
21
6.4
31
0
0
LINE
8
0
62
0
10
39.512218139195
20
121.298
30
0
11
39.512218139195
21
114.898
31
0
0
TEXT
8
0
62
0
10
39.512218139195
20
-12
30
0
40
8
1
5
50
0
0
LINE
8
0
62
0
10
47.414661767034
20
0
30
0
11
47.414661767034
21
3.2
31
0
0
LINE
8
0
62
0
10
47.414661767034
20
121.298
30
0
11
47.414661767034
21
118.098
31
0
0
LINE
8
0
62
0
10
55.317105394873
20
0
30
0
11
55.317105394873
21
3.2
31
0
0
LINE
8
0
62
0
10
55.317105394873
20
121.298
30
0
11
55.317105394873
21
118.098
31
0
0
LINE
8
0
62
0
10
63.219549022712
20
0
30
0
11
63.219549022712
21
3.2
31
0
0
LINE
8
0
62
0
10
63.219549022712
20
121.298
30
0
11
63.219549022712
21
118.098
31
0
0
LINE
8
0
62
0
10
71.121992650551
20
0
30
0
11
71.121992650551
21
3.2
31
0
0
LINE
8
0
62
0
10
71.121992650551
20
121.298
30
0
11
71.121992650551
21
118.098
31
0
0
LINE
8
0
62
0
10
79.02443627839
20
0
30
0
11
79.02443627839
21
6.4
31
0
0
LINE
8
0
62
0
10
79.02443627839
20
121.298
30
0
11
79.02443627839
21
114.898
31
0
0
TEXT
8
0
62
0
10
79.02443627839
20
-12
30
0
40
8
1
10
50
0
0
LINE
8
0
62
0
10
86.926879906229
20
0
30
0
11
86.926879906229
21
3.2
31
0
0
LINE
8
0
62
0
10
86.926879906229
20
121.298
30
0
11
86.926879906229
21
118.098
31
0
0
LINE
8
0
62
0
10
94.8293235340681
20
0
30
0
11
94.8293235340681
21
3.2
31
0
0
LINE
8
0
62
0
10
94.8293235340681
20
121.298
30
0
11
94.8293235340681
21
118.098
31
0
0
LINE
8
0
62
0
10
102.731767161907
20
0
30
0
11
102.731767161907
21
3.2
31
0
0
LINE
8
0
62
0
10
102.731767161907
20
121.298
30
0
11
102.731767161907
21
118.098
31
0
0
LINE
8
0
62
0
10
110.634210789746
20
0
30
0
11
110.634210789746
21
3.2
31
0
0
LINE
8
0
62
0
10
110.634210789746
20
121.298
30
0
11
110.634210789746
21
118.098
31
0
0
LINE
8
0
62
0
10
118.536654417585
20
0
30
0
11
118.536654417585
21
6.4
31
0
0
LINE
8
0
62
0
10
118.536654417585
20
121.298
30
0
11
118.536654417585
21
114.898
31
0
0
TEXT
8
0
62
0
10
118.536654417585
20
-12
30
0
40
8
1
15
50
0
0
LINE
8
0
62
0
10
126.439098045424
20
0
30
0
11
126.439098045424
21
3.2
31
0
0
LINE
8
0
62
0
10
126.439098045424
20
121.298
30
0
11
126.439098045424
21
118.098
31
0
0
LINE
8
0
62
0
10
134.341541673263
20
0
30
0
11
134.341541673263
21
3.2
31
0
0
LINE
8
0
62
0
10
134.341541673263
20
121.298
30
0
11
134.341541673263
21
118.098
31
0
0
LINE
8
0
62
0
10
142.243985301102
20
0
30
0
11
142.243985301102
21
3.2
31
0
0
LINE
8
0
62
0
10
142.243985301102
20
121.298
30
0
11
142.243985301102
21
118.098
31
0
0
LINE
8
0
62
0
10
150.146428928941
20
0
30
0
11
150.146428928941
21
3.2
31
0
0
LINE
8
0
62
0
10
150.146428928941
20
121.298
30
0
11
150.146428928941
21
118.098
31
0
0
LINE
8
0
62
0
10
158.04887255678
20
0
30
0
11
158.04887255678
21
6.4
31
0
0
LINE
8
0
62
0
10
158.04887255678
20
121.298
30
0
11
158.04887255678
21
114.898
31
0
0
TEXT
8
0
62
0
10
158.04887255678
20
-12
30
0
40
8
1
20
50
0
0
LINE
8
0
62
0
10
165.951316184619
20
0
30
0
11
165.951316184619
21
3.2
31
0
0
LINE
8
0
62
0
10
165.951316184619
20
121.298
30
0
11
165.951316184619
21
118.098
31
0
0
LINE
8
0
62
0
10
173.853759812458
20
0
30
0
11
173.853759812458
21
3.2
31
0
0
LINE
8
0
62
0
10
173.853759812458
20
121.298
30
0
11
173.853759812458
21
118.098
31
0
0
TEXT
8
0
62
0
10
-4
20
-4
30
0
40
8
1
0
50
0
0
LINE
8
0
62
0
10
0
20
7.581125
30
0
11
3.2
21
7.581125
31
0
0
LINE
8
0
62
0
10
179.2
20
7.581125
30
0
11
176
21
7.581125
31
0
0
LINE
8
0
62
0
10
0
20
15.16225
30
0
11
3.2
21
15.16225
31
0
0
LINE
8
0
62
0
10
179.2
20
15.16225
30
0
11
176
21
15.16225
31
0
0
LINE
8
0
62
0
10
0
20
22.743375
30
0
11
3.2
21
22.743375
31
0
0
LINE
8
0
62
0
10
179.2
20
22.743375
30
0
11
176
21
22.743375
31
0
0
LINE
8
0
62
0
10
0
20
30.3245
30
0
11
3.2
21
30.3245
31
0
0
LINE
8
0
62
0
10
179.2
20
30.3245
30
0
11
176
21
30.3245
31
0
0
LINE
8
0
62
0
10
0
20
37.905625
30
0
11
6.4
21
37.905625
31
0
0
LINE
8
0
62
0
10
179.2
20
37.905625
30
0
11
172.8
21
37.905625
31
0
0
TEXT
8
0
62
0
10
-4
20
33.905625
30
0
40
8
1
50
50
0
0
LINE
8
0
62
0
10
0
20
45.48675
30
0
11
3.2
21
45.48675
31
0
0
LINE
8
0
62
0
10
179.2
20
45.48675
30
0
11
176
21
45.48675
31
0
0
LINE
8
0
62
0
10
0
20
53.067875
30
0
11
3.2
21
53.067875
31
0
0
LINE
8
0
62
0
10
179.2
20
53.067875
30
0
11
176
21
53.067875
31
0
0
LINE
8
0
62
0
10
0
20
60.649
30
0
11
3.2
21
60.649
31
0
0
LINE
8
0
62
0
10
179.2
20
60.649
30
0
11
176
21
60.649
31
0
0
LINE
8
0
62
0
10
0
20
68.230125
30
0
11
3.2
21
68.230125
31
0
0
LINE
8
0
62
0
10
179.2
20
68.230125
30
0
11
176
21
68.230125
31
0
0
LINE
8
0
62
0
10
0
20
75.81125
30
0
11
6.4
21
75.81125
31
0
0
LINE
8
0
62
0
10
179.2
20
75.81125
30
0
11
172.8
21
75.81125
31
0
0
TEXT
8
0
62
0
10
-4
20
71.81125
30
0
40
8
1
100
50
0
0
LINE
8
0
62
0
10
0
20
83.392375
30
0
11
3.2
21
83.392375
31
0
0
LINE
8
0
62
0
10
179.2
20
83.392375
30
0
11
176
21
83.392375
31
0
0
LINE
8
0
62
0
10
0
20
90.9735
30
0
11
3.2
21
90.9735
31
0
0
LINE
8
0
62
0
10
179.2
20
90.9735
30
0
11
176
21
90.9735
31
0
0
LINE
8
0
62
0
10
0
20
98.554625
30
0
11
3.2
21
98.554625
31
0
0
LINE
8
0
62
0
10
179.2
20
98.554625
30
0
11
176
21
98.554625
31
0
0
LINE
8
0
62
0
10
0
20
106.13575
30
0
11
3.2
21
106.13575
31
0
0
LINE
8
0
62
0
10
179.2
20
106.13575
30
0
11
176
21
106.13575
31
0
0
LINE
8
0
62
0
10
0
20
113.716875
30
0
11
6.4
21
113.716875
31
0
0
LINE
8
0
62
0
10
179.2
20
113.716875
30
0
11
172.8
21
113.716875
31
0
0
TEXT
8
0
62
0
10
-4
20
109.716875
30
0
40
8
1
150
50
0
0
TEXT
8
0
62
0
10
89.6
20
-32
30
0
40
10
1
R (kpc)
50
0
0
TEXT
8
0
62
0
10
-24
20
60.649
30
0
40
10
1
V (km/s)
50
90
0
TEXT
8
0
62
0
10
72.6
20
136.298
30
0
40
11
1
V vs. R
50
0
0
POLYLINE
8
0
62
5
70
0
10
0
20
0
30
0
0
VERTEX
8
0
10
2.3707330883517
20
29.3230726859826
30
0
0
VERTEX
8
0
10
3.1609774511356
20
36.5517860559178
30
0
0
VERTEX
8
0
10
3.9512218139195
20
43.1479161609733
30
0
0
VERTEX
8
0
10
4.7414661767034
20
46.3096996664967
30
0
0
VERTEX
8
0
10
5.5317105394873
20
48.7330054199768
30
0
0
VERTEX
8
0
10
6.3219549022712
20
50.9051704183949
30
0
0
VERTEX
8
0
10
7.1121992650551
20
52.3175973240649
30
0
0
VERTEX
8
0
10
7.902443627839
20
53.9307716096035
30
0
0
VERTEX
8
0
10
8.6926879906229
20
55.5421230993391
30
0
0
VERTEX
8
0
10
9.4829323534068
20
57.1990764630202
30
0
0
VERTEX
8
0
10
10.2731767161907
20
59.2178205304917
30
0
0
VERTEX
8
0
10
11.0634210789746
20
61.2669902121163
30
0
0
VERTEX
8
0
10
11.8536654417585
20
63.2982010436452
30
0
0
VERTEX
8
0
10
12.6439098045424
20
65.9926364897137
30
0
0
VERTEX
8
0
10
13.4341541673263
20
67.9521966083732
30
0
0
VERTEX
8
0
10
14.2243985301102
20
69.8952969342309
30
0
0
VERTEX
8
0
10
15.0146428928941
20
71.3500129932444
30
0
0
VERTEX
8
0
10
15.804887255678
20
72.3922609215595
30
0
0
VERTEX
8
0
10
16.5951316184619
20
73.2835138426411
30
0
0
VERTEX
8
0
10
17.3853759812458
20
74.1747667637227
30
0
0
VERTEX
8
0
10
18.1756203440297
20
73.6221000791134
30
0
0
VERTEX
8
0
10
18.9658647068136
20
73.3185518524374
30
0
0
VERTEX
8
0
10
19.7561090695975
20
73.0150036257614
30
0
0
VERTEX
8
0
10
20.5463534323814
20
72.646262104222
30
0
0
VERTEX
8
0
10
21.3365977951653
20
72.2676428107337
30
0
0
VERTEX
8
0
10
22.1268421579492
20
71.8890235172453
30
0
0
VERTEX
8
0
10
22.9170865207331
20
71.7156174136993
30
0
0
VERTEX
8
0
10
23.707330883517
20
71.7254092919791
30
0
0
VERTEX
8
0
10
24.4975752463009
20
71.735201170259
30
0
0
VERTEX
8
0
10
25.2878196090848
20
71.7449930485389
30
0
0
VERTEX
8
0
10
26.0780639718687
20
71.7935692220298
30
0
0
VERTEX
8
0
10
26.8683083346526
20
71.836000694576
30
0
0
VERTEX
8
0
10
27.6585526974365
20
71.8784321671221
30
0
0
VERTEX
8
0
10
28.4487970602204
20
71.6357164798002
30
0
0
VERTEX
8
0
10
29.2390414230043
20
71.341960131404
30
0
0
VERTEX
8
0
10
30.0292857857882
20
71.0482037830079
30
0
0
VERTEX
8
0
10
30.8195301485721
20
70.7080119956435
30
0
0
VERTEX
8
0
10
31.609774511356
20
70.3228647833019
30
0
0
VERTEX
8
0
10
32.4000188741399
20
69.9377175709602
30
0
0
VERTEX
8
0
10
33.1902632369238
20
69.5525703586186
30
0
0
VERTEX
8
0
10
33.9805075997077
20
69.1979220060205
30
0
0
VERTEX
8
0
10
34.7707519624916
20
68.8388864690919
30
0
0
VERTEX
8
0
10
35.5609963252755
20
68.4798509321633
30
0
0
VERTEX
8
0
10
36.3512406880594
20
68.1154107012853
30
0
0
VERTEX
8
0
10
37.1414850508433
20
67.7498472455034
30
0
0
VERTEX
8
0
10
37.9317294136272
20
67.3842837897216
30
0
0
VERTEX
8
0
10
38.7219737764111
20
67.0187203339397
30
0
0
VERTEX
8
0
10
39.512218139195
20
66.5754561436293
30
0
0
VERTEX
8
0
10
40.3024625019789
20
66.1576693370215
30
0
0
VERTEX
8
0
10
41.0927068647628
20
65.7398825304136
30
0
0
VERTEX
8
0
10
41.8829512275467
20
65.2509163009252
30
0
0
VERTEX
8
0
10
42.6731955903306
20
64.7711142652115
30
0
0
VERTEX
8
0
10
43.4634399531145
20
64.2913122294977
30
0
0
VERTEX
8
0
10
44.2536843158984
20
63.806237643941
30
0
0
VERTEX
8
0
10
45.0439286786823
20
63.3199076893741
30
0
0
VERTEX
8
0
10
45.8341730414662
20
62.8335777348071
30
0
0
VERTEX
8
0
10
46.6244174042501
20
62.3472477802402
30
0
0
VERTEX
8
0
10
47.414661767034
20
61.8896591688024
30
0
0
VERTEX
8
0
10
48.2049061298179
20
61.4229129707952
30
0
0
VERTEX
8
0
10
48.9951504926018
20
60.956166772788
30
0
0
VERTEX
8
0
10
49.7853948553857
20
60.5262227083968
30
0
0
VERTEX
8
0
10
50.5756392181696
20
60.0921161046558
30
0
0
VERTEX
8
0
10
51.3658835809535
20
59.6580095009148
30
0
0
VERTEX
8
0
10
52.1561279437374
20
59.2110518828322
30
0
0
VERTEX
8
0
10
52.9463723065213
20
58.7606254819581
30
0
0
VERTEX
8
0
10
53.7366166693052
20
58.310199081084
30
0
0
VERTEX
8
0
10
54.5268610320891
20
57.8597726802099
30
0
0
VERTEX
8
0
10
55.3171053948729
20
57.4329670383443
30
0
0
VERTEX
8
0
10
56.1073497576568
20
56.9988604346033
30
0
0
VERTEX
8
0
10
56.8975941204407
20
56.5647538308624
30
0
0
VERTEX
8
0
10
57.6878384832246
20
56.1451037923551
30
0
0
VERTEX
8
0
10
58.4780828460085
20
55.7240530263206
30
0
0
VERTEX
8
0
10
59.2683272087924
20
55.3030022602861
30
0
0
VERTEX
8
0
10
60.0585715715763
20
54.8994804099578
30
0
0
VERTEX
8
0
10
60.8488159343602
20
54.5012773599097
30
0
0
VERTEX
8
0
10
61.6390602971441
20
54.1030743098616
30
0
0
VERTEX
8
0
10
62.429304659928
20
53.7048712598135
30
0
0
VERTEX
8
0
10
63.2195490227119
20
53.3485909275021
30
0
0
VERTEX
8
0
10
64.0097933854958
20
52.9797635122936
30
0
0
VERTEX
8
0
10
64.8000377482797
20
52.6109360970851
30
0
0
VERTEX
8
0
10
65.5902821110636
20
52.2633970974081
30
0
0
VERTEX
8
0
10
66.3805264738475
20
51.9141534387594
30
0
0
VERTEX
8
0
10
67.1707708366314
20
51.5649097801107
30
0
0
VERTEX
8
0
10
67.9610151994153
20
51.2181041802239
30
0
0
VERTEX
8
0
10
68.7512595621992
20
50.8721244810018
30
0
0
VERTEX
8
0
10
69.5415039249831
20
50.5261447817796
30
0
0
VERTEX
8
0
10
70.331748287767
20
50.1801650825575
30
0
0
VERTEX
8
0
10
71.1219926505509
20
49.8663294372029
30
0
0
VERTEX
8
0
10
71.9122370133348
20
49.5431974539671
30
0
0
VERTEX
8
0
10
72.7024813761187
20
49.2200654707313
30
0
0
VERTEX
8
0
10
73.4927257389026
20
48.9073794791018
30
0
0
VERTEX
8
0
10
74.2829701016865
20
48.5940393741459
30
0
0
VERTEX
8
0
10
75.0732144644704
20
48.2806992691901
30
0
0
VERTEX
8
0
10
75.8634588272543
20
47.9815910844871
30
0
0
VERTEX
8
0
10
76.6537031900382
20
47.6878347360909
30
0
0
VERTEX
8
0
10
77.4439475528221
20
47.3940783876948
30
0
0
VERTEX
8
0
10
78.234191915606
20
47.1003220392987
30
0
0
VERTEX
8
0
10
79.0244362783899
20
46.8337213047556
30
0
0
VERTEX
8
0
10
79.8146806411738
20
46.5595487129192
30
0
0
VERTEX
8
0
10
80.6049250039577
20
46.2853761210828
30
0
0
VERTEX
8
0
10
81.3951693667416
20
46.0316990801399
30
0
0
VERTEX
8
0
10
82.1854137295255
20
45.7771102448632
30
0
0
VERTEX
8
0
10
82.9756580923094
20
45.5225214095866
30
0
0
VERTEX
8
0
10
83.7659024550933
20
45.2771562329325
30
0
0
VERTEX
8
0
10
84.5561468178772
20
45.0356232353623
30
0
0
VERTEX
8
0
10
85.3463911806611
20
44.7940902377922
30
0
0
VERTEX
8
0
10
86.136635543445
20
44.552557240222
30
0
0
VERTEX
8
0
10
86.9268799062288
20
44.3199439698299
30
0
0
VERTEX
8
0
10
87.7171242690127
20
44.084938891113
30
0
0
VERTEX
8
0
10
88.5073686317966
20
43.849933812396
30
0
0
VERTEX
8
0
10
89.2976129945805
20
43.6283281460621
30
0
0
VERTEX
8
0
10
90.0878573573644
20
43.4063789050517
30
0
0
VERTEX
8
0
10
90.8781017201483
20
43.1844296640413
30
0
0
VERTEX
8
0
10
91.6683460829322
20
42.9647202656333
30
0
0
VERTEX
8
0
10
92.4585904457161
20
42.7460349840495
30
0
0
VERTEX
8
0
10
93.2488348085
20
42.5273497024657
30
0
0
VERTEX
8
0
10
94.0390791712839
20
42.3086644208819
30
0
0
VERTEX
8
0
10
94.8293235340678
20
42.1119480969773
30
0
0
VERTEX
8
0
10
95.6195678968517
20
41.9095826125266
30
0
0
VERTEX
8
0
10
96.4098122596356
20
41.707217128076
30
0
0
VERTEX
8
0
10
97.2000566224195
20
41.5114192057104
30
0
0
VERTEX
8
0
10
97.9903009852034
20
41.315581640113
30
0
0
VERTEX
8
0
10
98.7805453479873
20
41.1197440745156
30
0
0
VERTEX
8
0
10
99.5707897107712
20
40.936949132214
30
0
0
VERTEX
8
0
10
100.361034073555
20
40.7606953231763
30
0
0
VERTEX
8
0
10
101.151278436339
20
40.5844415141386
30
0
0
VERTEX
8
0
10
101.941522799123
20
40.408187705101
30
0
0
VERTEX
8
0
10
102.731767161907
20
40.2405893350286
30
0
0
VERTEX
8
0
10
103.522011524691
20
40.0708634448442
30
0
0
VERTEX
8
0
10
104.312255887475
20
39.9011375546597
30
0
0
VERTEX
8
0
10
105.102500250258
20
39.7378470824541
30
0
0
VERTEX
8
0
10
105.892744613042
20
39.5746491111229
30
0
0
VERTEX
8
0
10
106.682988975826
20
39.4114511397917
30
0
0
VERTEX
8
0
10
107.47323333861
20
39.2482531684605
30
0
0
VERTEX
8
0
10
108.263477701394
20
39.0850551971293
30
0
0
VERTEX
8
0
10
109.053722064178
20
38.9218572257981
30
0
0
VERTEX
8
0
10
109.843966426962
20
38.7586592544669
30
0
0
VERTEX
8
0
10
110.634210789746
20
38.6082462254242
30
0
0
VERTEX
8
0
10
111.42445515253
20
38.4548401323729
30
0
0
VERTEX
8
0
10
112.214699515314
20
38.3014340393216
30
0
0
VERTEX
8
0
10
113.004943878097
20
38.1511795832065
30
0
0
VERTEX
8
0
10
113.795188240881
20
38.0010374495818
30
0
0
VERTEX
8
0
10
114.585432603665
20
37.8508953159571
30
0
0
VERTEX
8
0
10
115.375676966449
20
37.7068780616613
30
0
0
VERTEX
8
0
10
116.165921329233
20
37.5665278063165
30
0
0
VERTEX
8
0
10
116.956165692017
20
37.4261775509717
30
0
0
VERTEX
8
0
10
117.746410054801
20
37.2858272956269
30
0
0
VERTEX
8
0
10
118.536654417585
20
37.1538681910347
30
0
0
VERTEX
8
0
10
119.326898780369
20
37.0200458545431
30
0
0
VERTEX
8
0
10
120.117143143153
20
36.8862235180515
30
0
0
VERTEX
8
0
10
120.907387505936
20
36.7616578762091
30
0
0
VERTEX
8
0
10
121.69763186872
20
36.6376274179974
30
0
0
VERTEX
8
0
10
122.487876231504
20
36.5135969597857
30
0
0
VERTEX
8
0
10
123.278120594288
20
36.3875909471842
30
0
0
VERTEX
8
0
10
124.068364957072
20
36.2602965295459
30
0
0
VERTEX
8
0
10
124.858609319856
20
36.1330021119076
30
0
0
VERTEX
8
0
10
125.64885368264
20
36.0057076942693
30
0
0
VERTEX
8
0
10
126.439098045424
20
35.8908017866004
30
0
0
VERTEX
8
0
10
127.229342408208
20
35.7732992472419
30
0
0
VERTEX
8
0
10
128.019586770992
20
35.6557967078835
30
0
0
VERTEX
8
0
10
128.809831133775
20
35.5322551828652
30
0
0
VERTEX
8
0
10
129.600075496559
20
35.4082247246535
30
0
0
VERTEX
8
0
10
130.390319859343
20
35.2841942664418
30
0
0
VERTEX
8
0
10
131.180564222127
20
35.16589225524
30
0
0
VERTEX
8
0
10
131.970808584911
20
35.0516536753081
30
0
0
VERTEX
8
0
10
132.761052947695
20
34.9374150953763
30
0
0
VERTEX
8
0
10
133.551297310479
20
34.8231765154445
30
0
0
VERTEX
8
0
10
134.341541673263
20
34.7251916605926
30
0
0
VERTEX
8
0
10
135.131786036047
20
34.6240089183672
30
0
0
VERTEX
8
0
10
135.922030398831
20
34.5228261761419
30
0
0
VERTEX
8
0
10
136.712274761615
20
34.4245968546933
30
0
0
VERTEX
8
0
10
137.502519124398
20
34.3266780718946
30
0
0
VERTEX
8
0
10
138.292763487182
20
34.2287592890958
30
0
0
VERTEX
8
0
10
139.083007849966
20
34.1234668651633
30
0
0
VERTEX
8
0
10
139.87325221275
20
34.0124922446581
30
0
0
VERTEX
8
0
10
140.663496575534
20
33.9015176241529
30
0
0
VERTEX
8
0
10
141.453740938318
20
33.7905430036477
30
0
0
VERTEX
8
0
10
142.243985301102
20
33.7035525384433
30
0
0
VERTEX
8
0
10
143.034229663886
20
33.6121616744979
30
0
0
VERTEX
8
0
10
143.82447402667
20
33.5207708105524
30
0
0
VERTEX
8
0
10
144.614718389454
20
33.4149432029892
30
0
0
VERTEX
8
0
10
145.404962752238
20
33.3072325419106
30
0
0
VERTEX
8
0
10
146.195207115022
20
33.199521880832
30
0
0
VERTEX
8
0
10
146.985451477805
20
33.1024752491351
30
0
0
VERTEX
8
0
10
147.775695840589
20
33.0143483446163
30
0
0
VERTEX
8
0
10
148.565940203373
20
32.9262214400974
30
0
0
VERTEX
8
0
10
149.356184566157
20
32.8380945355786
30
0
0
VERTEX
8
0
10
150.146428928941
20
32.7460363438961
30
0
0
VERTEX
8
0
10
150.936673291725
20
32.6546454799506
30
0
0
VERTEX
8
0
10
151.726917654509
20
32.5632546160052
30
0
0
VERTEX
8
0
10
152.517162017293
20
32.4831488587412
30
0
0
VERTEX
8
0
10
153.307406380077
20
32.4048138325023
30
0
0
VERTEX
8
0
10
154.097650742861
20
32.3264788062633
30
0
0
VERTEX
8
0
10
154.887895105645
20
32.3425486307953
30
0
0
SEQEND
8
0
0
POLYLINE
8
0
62
6
70
0
10
0
20
0
30
0
0
VERTEX
8
0
10
2.3707330883517
20
0.862881192791075
30
0
0
VERTEX
8
0
10
3.1609774511356
20
1.2904598776788
30
0
0
VERTEX
8
0
10
3.9512218139195
20
1.71803856256652
30
0
0
VERTEX
8
0
10
4.7414661767034
20
2.14561724745424
30
0
0
VERTEX
8
0
10
5.5317105394873
20
2.46668117542577
30
0
0
VERTEX
8
0
10
6.3219549022712
20
2.74085376726217
30
0
0
VERTEX
8
0
10
7.1121992650551
20
3.01502635909857
30
0
0
VERTEX
8
0
10
7.902443627839
20
3.28919895093497
30
0
0
VERTEX
8
0
10
8.6926879906229
20
3.55453110205716
30
0
0
VERTEX
8
0
10
9.4829323534068
20
3.82217577504031
30
0
0
VERTEX
8
0
10
10.2731767161907
20
4.08982044802347
30
0
0
VERTEX
8
0
10
11.0634210789746
20
4.28133029413824
30
0
0
VERTEX
8
0
10
11.8536654417585
20
4.47390390030905
30
0
0
VERTEX
8
0
10
12.6439098045424
20
4.66647750647986
30
0
0
VERTEX
8
0
10
13.4341541673263
20
4.8348489195743
30
0
0
VERTEX
8
0
10
14.2243985301102
20
4.99151897205224
30
0
0
VERTEX
8
0
10
15.0146428928941
20
5.14818902453018
30
0
0
VERTEX
8
0
10
15.804887255678
20
5.30485907700812
30
0
0
VERTEX
8
0
10
16.5951316184619
20
5.57473698538844
30
0
0
VERTEX
8
0
10
17.3853759812458
20
5.8162699829586
30
0
0
VERTEX
8
0
10
18.1756203440297
20
6.05780298052876
30
0
0
VERTEX
8
0
10
18.9658647068136
20
6.52318148703535
30
0
0
VERTEX
8
0
10
19.7561090695975
20
6.98992768504256
30
0
0
VERTEX
8
0
10
20.5463534323814
20
7.45667388304978
30
0
0
VERTEX
8
0
10
21.3365977951653
20
8.10482090303666
30
0
0
VERTEX
8
0
10
22.1268421579492
20
8.8490036523069
30
0
0
VERTEX
8
0
10
22.9170865207331
20
9.59318640157713
30
0
0
VERTEX
8
0
10
23.707330883517
20
10.3373691508474
30
0
0
VERTEX
8
0
10
24.4975752463009
20
11.1487726002011
30
0
0
VERTEX
8
0
10
25.2878196090848
20
11.9441217991496
30
0
0
VERTEX
8
0
10
26.0780639718687
20
12.7394709980982
30
0
0
VERTEX
8
0
10
26.8683083346526
20
13.5071107106108
30
0
0
VERTEX
8
0
10
27.6585526974365
20
14.2778403298842
30
0
0
VERTEX
8
0
10
28.4487970602204
20
15.0485699491576
30
0
0
VERTEX
8
0
10
29.2390414230043
20
15.6904079690274
30
0
0
VERTEX
8
0
10
30.0292857857882
20
16.3236160977925
30
0
0
VERTEX
8
0
10
30.8195301485721
20
16.9568242265575
30
0
0
VERTEX
8
0
10
31.609774511356
20
17.5510498439519
30
0
0
VERTEX
8
0
10
32.4000188741399
20
18.1189787841844
30
0
0
VERTEX
8
0
10
33.1902632369238
20
18.686907724417
30
0
0
VERTEX
8
0
10
33.9805075997077
20
19.2548366646495
30
0
0
VERTEX
8
0
10
34.7707519624916
20
19.5437565387536
30
0
0
VERTEX
8
0
10
35.5609963252755
20
19.8897362379757
30
0
0
VERTEX
8
0
10
36.3512406880594
20
20.2357159371978
30
0
0
VERTEX
8
0
10
37.1414850508433
20
20.5128551642216
30
0
0
VERTEX
8
0
10
37.9317294136272
20
20.7837637966314
30
0
0
VERTEX
8
0
10
38.7219737764111
20
21.0546724290412
30
0
0
VERTEX
8
0
10
39.512218139195
20
21.3029844192666
30
0
0
VERTEX
8
0
10
40.3024625019789
20
21.5347255385569
30
0
0
VERTEX
8
0
10
41.0927068647628
20
21.7664666578472
30
0
0
VERTEX
8
0
10
41.8829512275467
20
21.9982077771375
30
0
0
VERTEX
8
0
10
42.6731955903306
20
22.1815048670432
30
0
0
VERTEX
8
0
10
43.4634399531145
20
22.374078473214
30
0
0
VERTEX
8
0
10
44.2536843158984
20
22.5666520793848
30
0
0
VERTEX
8
0
10
45.0439286786823
20
22.7387367418674
30
0
0
VERTEX
8
0
10
45.8341730414662
20
22.9084626320518
30
0
0
VERTEX
8
0
10
46.6244174042501
20
23.0781885222363
30
0
0
VERTEX
8
0
10
47.414661767034
20
23.2679012085048
30
0
0
VERTEX
8
0
10
48.2049061298179
20
23.4735306523821
30
0
0
VERTEX
8
0
10
48.9951504926018
20
23.6791600962594
30
0
0
VERTEX
8
0
10
49.7853948553857
20
23.8847895401367
30
0
0
VERTEX
8
0
10
50.5756392181696
20
24.1460120095517
30
0
0
VERTEX
8
0
10
51.3658835809535
20
24.3973368854017
30
0
0
VERTEX
8
0
10
52.1561279437374
20
24.6486617612518
30
0
0
VERTEX
8
0
10
52.9463723065213
20
24.9171521565155
30
0
0
VERTEX
8
0
10
53.7366166693052
20
25.1880607889253
30
0
0
VERTEX
8
0
10
54.5268610320891
20
25.458969421335
30
0
0
VERTEX
8
0
10
55.3171053948729
20
25.7211235066997
30
0
0
VERTEX
8
0
10
56.1073497576568
20
25.9757123419764
30
0
0
VERTEX
8
0
10
56.8975941204407
20
26.230301177253
30
0
0
VERTEX
8
0
10
57.6878384832246
20
26.4848900125297
30
0
0
VERTEX
8
0
10
58.4780828460085
20
26.7433837061488
30
0
0
VERTEX
8
0
10
59.2683272087924
20
27.001236500852
30
0
0
VERTEX
8
0
10
60.0585715715763
20
27.2590892955553
30
0
0
VERTEX
8
0
10
60.8488159343602
20
27.5365060252024
30
0
0
VERTEX
8
0
10
61.6390602971441
20
27.817206535892
30
0
0
VERTEX
8
0
10
62.429304659928
20
28.0979070465817
30
0
0
VERTEX
8
0
10
63.2195490227119
20
28.3651288584245
30
0
0
VERTEX
8
0
10
64.0097933854958
20
28.6197176937012
30
0
0
VERTEX
8
0
10
64.8000377482797
20
28.8743065289779
30
0
0
VERTEX
8
0
10
65.5902821110636
20
29.1288953642545
30
0
0
VERTEX
8
0
10
66.3805264738475
20
29.3719678406636
30
0
0
VERTEX
8
0
10
67.1707708366314
20
29.6167647976603
30
0
0
VERTEX
8
0
10
67.9610151994153
20
29.8615617546571
30
0
0
VERTEX
8
0
10
68.7512595621992
20
30.0872572810823
30
0
0
VERTEX
8
0
10
69.5415039249831
20
30.3092065220928
30
0
0
VERTEX
8
0
10
70.331748287767
20
30.5311557631032
30
0
0
VERTEX
8
0
10
71.1219926505509
20
30.7531050041136
30
0
0
VERTEX
8
0
10
71.9122370133348
20
30.9066960989138
30
0
0
VERTEX
8
0
10
72.7024813761187
20
31.0829499079515
30
0
0
VERTEX
8
0
10
73.4927257389026
20
31.2592037169892
30
0
0
VERTEX
8
0
10
74.2829701016865
20
31.4731846683872
30
0
0
VERTEX
8
0
10
75.0732144644704
20
31.6820780716911
30
0
0
VERTEX
8
0
10
75.8634588272543
20
31.8909714749951
30
0
0
VERTEX
8
0
10
76.6537031900382
20
32.0918767670707
30
0
0
VERTEX
8
0
10
77.4439475528221
20
32.2909782920947
30
0
0
VERTEX
8
0
10
78.234191915606
20
32.4900798171188
30
0
0
VERTEX
8
0
10
79.0244362783899
20
32.6891813421428
30
0
0
VERTEX
8
0
10
79.8146806411738
20
32.8449329930817
30
0
0
VERTEX
8
0
10
80.6049250039577
20
33.0146588832662
30
0
0
VERTEX
8
0
10
81.3951693667416
20
33.1843847734506
30
0
0
VERTEX
8
0
10
82.1854137295255
20
33.3022176730749
30
0
0
VERTEX
8
0
10
82.9756580923094
20
33.4262481312866
30
0
0
VERTEX
8
0
10
83.7659024550933
20
33.5502785894983
30
0
0
VERTEX
8
0
10
84.5561468178772
20
33.6405528357452
30
0
0
VERTEX
8
0
10
85.3463911806611
20
33.7221518214108
30
0
0
VERTEX
8
0
10
86.136635543445
20
33.8037508070764
30
0
0
VERTEX
8
0
10
86.9268799062288
20
33.885349792742
30
0
0
VERTEX
8
0
10
87.7171242690127
20
33.9479464559158
30
0
0
VERTEX
8
0
10
88.5073686317966
20
34.0164896038749
30
0
0
VERTEX
8
0
10
89.2976129945805
20
34.085032751834
30
0
0
VERTEX
8
0
10
90.0878573573644
20
34.1644976101821
30
0
0
VERTEX
8
0
10
90.8781017201483
20
34.2428326364211
30
0
0
VERTEX
8
0
10
91.6683460829322
20
34.3211676626601
30
0
0
VERTEX
8
0
10
92.4585904457161
20
34.3792582118076
30
0
0
VERTEX
8
0
10
93.2488348085
20
34.4314815626336
30
0
0
VERTEX
8
0
10
94.0390791712839
20
34.4837049134596
30
0
0
VERTEX
8
0
10
94.8293235340678
20
34.5359282642856
30
0
0
VERTEX
8
0
10
95.6195678968517
20
34.5319375122741
30
0
0
VERTEX
8
0
10
96.4098122596356
20
34.5449933499806
30
0
0
VERTEX
8
0
10
97.2000566224195
20
34.5580491876871
30
0
0
VERTEX
8
0
10
97.9903009852034
20
34.5389345427048
30
0
0
VERTEX
8
0
10
98.7805453479873
20
34.5226147455717
30
0
0
VERTEX
8
0
10
99.5707897107712
20
34.5062949484386
30
0
0
VERTEX
8
0
10
100.361034073555
20
34.4480788623901
30
0
0
VERTEX
8
0
10
101.151278436339
20
34.3762717550044
30
0
0
VERTEX
8
0
10
101.941522799123
20
34.3044646476186
30
0
0
VERTEX
8
0
10
102.731767161907
20
34.2326575402329
30
0
0
VERTEX
8
0
10
103.522011524691
20
34.1654688693638
30
0
0
VERTEX
8
0
10
104.312255887475
20
34.0969257214047
30
0
0
VERTEX
8
0
10
105.102500250258
20
34.0283825734456
30
0
0
VERTEX
8
0
10
105.892744613042
20
33.9808899816266
30
0
0
VERTEX
8
0
10
106.682988975826
20
33.9319305902273
30
0
0
VERTEX
8
0
10
107.47323333861
20
33.8829711988279
30
0
0
VERTEX
8
0
10
108.263477701394
20
33.8484023006091
30
0
0
VERTEX
8
0
10
109.053722064178
20
33.8190266657695
30
0
0
VERTEX
8
0
10
109.843966426962
20
33.7896510309299
30
0
0
VERTEX
8
0
10
110.634210789746
20
33.7602753960903
30
0
0
VERTEX
8
0
10
111.42445515253
20
33.6762713876893
30
0
0
VERTEX
8
0
10
112.214699515314
20
33.6077282397301
30
0
0
VERTEX
8
0
10
113.004943878097
20
33.539185091771
30
0
0
VERTEX
8
0
10
113.795188240881
20
33.4706419438119
30
0
0
VERTEX
8
0
10
114.585432603665
20
33.4020987958528
30
0
0
VERTEX
8
0
10
115.375676966449
20
33.3335556478937
30
0
0
VERTEX
8
0
10
116.165921329233
20
33.2580154695039
30
0
0
VERTEX
8
0
10
116.956165692017
20
33.1796804432649
30
0
0
VERTEX
8
0
10
117.746410054801
20
33.1013454170259
30
0
0
VERTEX
8
0
10
118.536654417585
20
33.023010390787
30
0
0
VERTEX
8
0
10
119.326898780369
20
32.9312164873172
30
0
0
VERTEX
8
0
10
120.117143143153
20
32.8430895827983
30
0
0
VERTEX
8
0
10
120.907387505936
20
32.7549626782795
30
0
0
VERTEX
8
0
10
121.69763186872
20
32.6499543641756
30
0
0
VERTEX
8
0
10
122.487876231504
20
32.5455076625236
30
0
0
VERTEX
8
0
10
123.278120594288
20
32.4410609608717
30
0
0
VERTEX
8
0
10
124.068364957072
20
32.3207503592535
30
0
0
VERTEX
8
0
10
124.858609319856
20
32.1934559416151
30
0
0
VERTEX
8
0
10
125.64885368264
20
32.0661615239768
30
0
0
VERTEX
8
0
10
126.439098045424
20
31.9388671063385
30
0
0
VERTEX
8
0
10
127.229342408208
20
31.8336737904857
30
0
0
VERTEX
8
0
10
128.019586770992
20
31.7226991699805
30
0
0
VERTEX
8
0
10
128.809831133775
20
31.6117245494753
30
0
0
VERTEX
8
0
10
129.600075496559
20
31.4974397191062
30
0
0
VERTEX
8
0
10
130.390319859343
20
31.3832011391744
30
0
0
VERTEX
8
0
10
131.180564222127
20
31.2689625592425
30
0
0
VERTEX
8
0
10
131.970808584911
20
31.1459231818284
30
0
0
VERTEX
8
0
10
132.761052947695
20
31.0186287641901
30
0
0
VERTEX
8
0
10
133.551297310479
20
30.8913343465517
30
0
0
VERTEX
8
0
10
134.341541673263
20
30.7640399289134
30
0
0
VERTEX
8
0
10
135.131786036047
20
30.6323913629711
30
0
0
VERTEX
8
0
10
135.922030398831
20
30.5018329859062
30
0
0
VERTEX
8
0
10
136.712274761615
20
30.3712746088412
30
0
0
VERTEX
8
0
10
137.502519124398
20
30.2504486452083
30
0
0
VERTEX
8
0
10
138.292763487182
20
30.1296821464232
30
0
0
VERTEX
8
0
10
139.083007849966
20
30.0089156476381
30
0
0
VERTEX
8
0
10
139.87325221275
20
29.9009539127575
30
0
0
VERTEX
8
0
10
140.663496575534
20
29.7997711705321
30
0
0
VERTEX
8
0
10
141.453740938318
20
29.6985884283068
30
0
0
VERTEX
8
0
10
142.243985301102
20
29.5974056860814
30
0
0
VERTEX
8
0
10
143.034229663886
20
29.5691202401191
30
0
0
VERTEX
8
0
10
143.82447402667
20
29.5234248081464
30
0
0
VERTEX
8
0
10
144.614718389454
20
29.4777293761736
30
0
0
VERTEX
8
0
10
145.404962752238
20
29.4765268648059
30
0
0
VERTEX
8
0
10
146.195207115022
20
29.4765268648059
30
0
0
VERTEX
8
0
10
146.985451477805
20
29.4765268648059
30
0
0
VERTEX
8
0
10
147.775695840589
20
29.4765268648059
30
0
0
VERTEX
8
0
10
148.565940203373
20
29.4765268648059
30
0
0
VERTEX
8
0
10
149.356184566157
20
29.4765268648059
30
0
0
VERTEX
8
0
10
150.146428928941
20
29.4765268648059
30
0
0
VERTEX
8
0
10
150.936673291725
20
29.4765268648059
30
0
0
VERTEX
8
0
10
151.726917654509
20
29.4765268648059
30
0
0
VERTEX
8
0
10
152.517162017293
20
29.4765268648059
30
0
0
VERTEX
8
0
10
153.307406380077
20
29.4765268648059
30
0
0
VERTEX
8
0
10
154.097650742861
20
29.4765268648059
30
0
0
VERTEX
8
0
10
154.887895105645
20
29.4765268648059
30
0
0
SEQEND
8
0
0
POLYLINE
8
0
62
6
70
0
10
0
20
0
30
0
0
VERTEX
8
0
10
2.3707330883517
20
38.2310633383717
30
0
0
VERTEX
8
0
10
3.1609774511356
20
41.2284431735096
30
0
0
VERTEX
8
0
10
3.9512218139195
20
46.3973484295908
30
0
0
VERTEX
8
0
10
4.7414661767034
20
49.0307198514248
30
0
0
VERTEX
8
0
10
5.5317105394873
20
51.2228538798861
30
0
0
VERTEX
8
0
10
6.3219549022712
20
52.9579306630439
30
0
0
VERTEX
8
0
10
7.1121992650551
20
54.7459276369484
30
0
0
VERTEX
8
0
10
7.902443627839
20
56.9413614411999
30
0
0
VERTEX
8
0
10
8.6926879906229
20
58.9557170863924
30
0
0
VERTEX
8
0
10
9.4829323534068
20
61.370589961289
30
0
0
VERTEX
8
0
10
10.2731767161907
20
63.9559962450285
30
0
0
VERTEX
8
0
10
11.0634210789746
20
66.485877305742
30
0
0
VERTEX
8
0
10
11.8536654417585
20
68.9789303152902
30
0
0
VERTEX
8
0
10
12.6439098045424
20
71.7208189360851
30
0
0
VERTEX
8
0
10
13.4341541673263
20
74.9612781851976
30
0
0
VERTEX
8
0
10
14.2243985301102
20
76.9139881626125
30
0
0
VERTEX
8
0
10
15.0146428928941
20
78.7462634173379
30
0
0
VERTEX
8
0
10
15.804887255678
20
80.4478292040977
30
0
0
VERTEX
8
0
10
16.5951316184619
20
82.0564835488242
30
0
0
VERTEX
8
0
10
17.3853759812458
20
83.0552401462956
30
0
0
VERTEX
8
0
10
18.1756203440297
20
83.4730269529035
30
0
0
VERTEX
8
0
10
18.9658647068136
20
83.8908137595113
30
0
0
VERTEX
8
0
10
19.7561090695975
20
84.3086005661192
30
0
0
VERTEX
8
0
10
20.5463534323814
20
84.6651782226699
30
0
0
VERTEX
8
0
10
21.3365977951653
20
85.0307416784517
30
0
0
VERTEX
8
0
10
22.1268421579492
20
85.3963051342336
30
0
0
VERTEX
8
0
10
22.9170865207331
20
86.0329592037374
30
0
0
VERTEX
8
0
10
23.707330883517
20
86.7243590662799
30
0
0
VERTEX
8
0
10
24.4975752463009
20
87.4157589288225
30
0
0
VERTEX
8
0
10
25.2878196090848
20
88.1635080587456
30
0
0
VERTEX
8
0
10
26.0780639718687
20
88.9424442045774
30
0
0
VERTEX
8
0
10
26.8683083346526
20
89.7213803504092
30
0
0
VERTEX
8
0
10
27.6585526974365
20
90.500316496241
30
0
0
VERTEX
8
0
10
28.4487970602204
20
90.9056307869832
30
0
0
VERTEX
8
0
10
29.2390414230043
20
91.427864295243
30
0
0
VERTEX
8
0
10
30.0292857857882
20
91.9500978035029
30
0
0
VERTEX
8
0
10
30.8195301485721
20
92.3339896468342
30
0
0
VERTEX
8
0
10
31.609774511356
20
92.7321926968823
30
0
0
VERTEX
8
0
10
32.4000188741399
20
93.1303957469304
30
0
0
VERTEX
8
0
10
33.1902632369238
20
93.4855792831592
30
0
0
VERTEX
8
0
10
33.9805075997077
20
93.8282950229547
30
0
0
VERTEX
8
0
10
34.7707519624916
20
94.1710107627502
30
0
0
VERTEX
8
0
10
35.5609963252755
20
94.5137265025457
30
0
0
VERTEX
8
0
10
36.3512406880594
20
94.8095971566433
30
0
0
VERTEX
8
0
10
37.1414850508433
20
95.1196733021726
30
0
0
VERTEX
8
0
10
37.9317294136272
20
95.4297494477019
30
0
0
VERTEX
8
0
10
38.7219737764111
20
95.6790591259302
30
0
0
VERTEX
8
0
10
39.512218139195
20
95.9336479612068
30
0
0
VERTEX
8
0
10
40.3024625019789
20
96.1882367964835
30
0
0
VERTEX
8
0
10
41.0927068647628
20
96.3886069049284
30
0
0
VERTEX
8
0
10
41.8829512275467
20
96.5713886328194
30
0
0
VERTEX
8
0
10
42.6731955903306
20
96.7541703607103
30
0
0
VERTEX
8
0
10
43.4634399531145
20
96.9369520886012
30
0
0
VERTEX
8
0
10
44.2536843158984
20
97.073549451326
30
0
0
VERTEX
8
0
10
45.0439286786823
20
97.2236915849507
30
0
0
VERTEX
8
0
10
45.8341730414662
20
97.3738337185754
30
0
0
VERTEX
8
0
10
46.6244174042501
20
97.51345057413
30
0
0
VERTEX
8
0
10
47.414661767034
20
97.6538008294748
30
0
0
VERTEX
8
0
10
48.2049061298179
20
97.7941510848196
30
0
0
VERTEX
8
0
10
48.9951504926018
20
97.948891833345
30
0
0
VERTEX
8
0
10
49.7853948553857
20
98.1088258452496
30
0
0
VERTEX
8
0
10
50.5756392181696
20
98.2687598571542
30
0
0
VERTEX
8
0
10
51.3658835809535
20
98.4286938690587
30
0
0
VERTEX
8
0
10
52.1561279437374
20
98.5613136941826
30
0
0
VERTEX
8
0
10
52.9463723065213
20
98.7016639495274
30
0
0
VERTEX
8
0
10
53.7366166693052
20
98.8420142048722
30
0
0
VERTEX
8
0
10
54.5268610320891
20
98.9754797522767
30
0
0
VERTEX
8
0
10
55.3171053948729
20
99.1093020887683
30
0
0
VERTEX
8
0
10
56.1073497576568
20
99.2431244252599
30
0
0
VERTEX
8
0
10
56.8975941204407
20
99.3699497313207
30
0
0
VERTEX
8
0
10
57.6878384832246
20
99.4939801895324
30
0
0
VERTEX
8
0
10
58.4780828460085
20
99.6180106477441
30
0
0
VERTEX
8
0
10
59.2683272087924
20
99.7420411059558
30
0
0
VERTEX
8
0
10
60.0585715715763
20
99.8705578565778
30
0
0
VERTEX
8
0
10
60.8488159343602
20
99.9978522742161
30
0
0
VERTEX
8
0
10
61.6390602971441
20
100.125146691854
30
0
0
VERTEX
8
0
10
62.429304659928
20
100.245688545659
30
0
0
VERTEX
8
0
10
63.2195490227119
20
100.366455044444
30
0
0
VERTEX
8
0
10
64.0097933854958
20
100.487221543229
30
0
0
VERTEX
8
0
10
64.8000377482797
20
100.612520584861
30
0
0
VERTEX
8
0
10
65.5902821110636
20
100.7398150025
30
0
0
VERTEX
8
0
10
66.3805264738475
20
100.867109420138
30
0
0
VERTEX
8
0
10
67.1707708366314
20
100.994403837776
30
0
0
VERTEX
8
0
10
67.9610151994153
20
101.090756712915
30
0
0
VERTEX
8
0
10
68.7512595621992
20
101.195203414567
30
0
0
VERTEX
8
0
10
69.5415039249831
20
101.299650116219
30
0
0
VERTEX
8
0
10
70.331748287767
20
101.397476398143
30
0
0
VERTEX
8
0
10
71.1219926505509
20
101.495395180942
30
0
0
VERTEX
8
0
10
71.9122370133348
20
101.593313963741
30
0
0
VERTEX
8
0
10
72.7024813761187
20
101.682431949057
30
0
0
VERTEX
8
0
10
73.4927257389026
20
101.767294894149
30
0
0
VERTEX
8
0
10
74.2829701016865
20
101.852157839241
30
0
0
VERTEX
8
0
10
75.0732144644704
20
101.937020784334
30
0
0
VERTEX
8
0
10
75.8634588272543
20
102.043654470946
30
0
0
VERTEX
8
0
10
76.6537031900382
20
102.144837213171
30
0
0
VERTEX
8
0
10
77.4439475528221
20
102.246019955396
30
0
0
VERTEX
8
0
10
78.234191915606
20
102.330982008568
30
0
0
VERTEX
8
0
10
79.0244362783899
20
102.415844953661
30
0
0
VERTEX
8
0
10
79.8146806411738
20
102.500707898753
30
0
0
VERTEX
8
0
10
80.6049250039577
20
102.566363697988
30
0
0
VERTEX
8
0
10
81.3951693667416
20
102.621851008241
30
0
0
VERTEX
8
0
10
82.1854137295255
20
102.677338318494
30
0
0
VERTEX
8
0
10
82.9756580923094
20
102.732825628746
30
0
0
VERTEX
8
0
10
83.7659024550933
20
102.7968890915
30
0
0
VERTEX
8
0
10
84.5561468178772
20
102.858904320606
30
0
0
VERTEX
8
0
10
85.3463911806611
20
102.920919549712
30
0
0
VERTEX
8
0
10
86.136635543445
20
102.951154121243
30
0
0
VERTEX
8
0
10
86.9268799062288
20
102.980529756082
30
0
0
VERTEX
8
0
10
87.7171242690127
20
103.009905390922
30
0
0
VERTEX
8
0
10
88.5073686317966
20
103.04341713629
30
0
0
VERTEX
8
0
10
89.2976129945805
20
103.079320689983
30
0
0
VERTEX
8
0
10
90.0878573573644
20
103.115224243676
30
0
0
VERTEX
8
0
10
90.8781017201483
20
103.151127797369
30
0
0
VERTEX
8
0
10
91.6683460829322
20
103.174365338469
30
0
0
VERTEX
8
0
10
92.4585904457161
20
103.200477013882
30
0
0
VERTEX
8
0
10
93.2488348085
20
103.226588689295
30
0
0
VERTEX
8
0
10
94.0390791712839
20
103.249588371003
30
0
0
VERTEX
8
0
10
94.8293235340678
20
103.27243608699
30
0
0
VERTEX
8
0
10
95.6195678968517
20
103.295283802976
30
0
0
VERTEX
8
0
10
96.4098122596356
20
103.296109703641
30
0
0
VERTEX
8
0
10
97.2000566224195
20
103.283053865934
30
0
0
VERTEX
8
0
10
97.9903009852034
20
103.269998028228
30
0
0
VERTEX
8
0
10
98.7805453479873
20
103.256942190521
30
0
0
VERTEX
8
0
10
99.5707897107712
20
103.248042284959
30
0
0
VERTEX
8
0
10
100.361034073555
20
103.238250406679
30
0
0
VERTEX
8
0
10
101.151278436339
20
103.228458528399
30
0
0
VERTEX
8
0
10
101.941522799123
20
103.197345198561
30
0
0
VERTEX
8
0
10
102.731767161907
20
103.164705604295
30
0
0
VERTEX
8
0
10
103.522011524691
20
103.132066010029
30
0
0
VERTEX
8
0
10
104.312255887475
20
103.097490504605
30
0
0
VERTEX
8
0
10
105.102500250258
20
103.061586950912
30
0
0
VERTEX
8
0
10
105.892744613042
20
103.025683397219
30
0
0
VERTEX
8
0
10
106.682988975826
20
102.989779843526
30
0
0
VERTEX
8
0
10
107.47323333861
20
102.994774890746
30
0
0
VERTEX
8
0
10
108.263477701394
20
102.991510931319
30
0
0
VERTEX
8
0
10
109.053722064178
20
102.988246971893
30
0
0
VERTEX
8
0
10
109.843966426962
20
102.937305418898
30
0
0
VERTEX
8
0
10
110.634210789746
20
102.881818108646
30
0
0
VERTEX
8
0
10
111.42445515253
20
102.826330798393
30
0
0
VERTEX
8
0
10
112.214699515314
20
102.793281557397
30
0
0
VERTEX
8
0
10
113.004943878097
20
102.776961760264
30
0
0
VERTEX
8
0
10
113.795188240881
20
102.760641963131
30
0
0
VERTEX
8
0
10
114.585432603665
20
102.744322165998
30
0
0
VERTEX
8
0
10
115.375676966449
20
102.691788276522
30
0
0
VERTEX
8
0
10
116.165921329233
20
102.646092844549
30
0
0
VERTEX
8
0
10
116.956165692017
20
102.600397412576
30
0
0
VERTEX
8
0
10
117.746410054801
20
102.569270868328
30
0
0
VERTEX
8
0
10
118.536654417585
20
102.539895233488
30
0
0
VERTEX
8
0
10
119.326898780369
20
102.510519598649
30
0
0
VERTEX
8
0
10
120.117143143153
20
102.45949875919
30
0
0
VERTEX
8
0
10
120.907387505936
20
102.390955611231
30
0
0
VERTEX
8
0
10
121.69763186872
20
102.322412463272
30
0
0
VERTEX
8
0
10
122.487876231504
20
102.253869315313
30
0
0
VERTEX
8
0
10
123.278120594288
20
102.197199315309
30
0
0
VERTEX
8
0
10
124.068364957072
20
102.138448045629
30
0
0
VERTEX
8
0
10
124.858609319856
20
102.07969677595
30
0
0
VERTEX
8
0
10
125.64885368264
20
102.009554684304
30
0
0
VERTEX
8
0
10
126.439098045424
20
101.937747576919
30
0
0
VERTEX
8
0
10
127.229342408208
20
101.865940469533
30
0
0
VERTEX
8
0
10
128.019586770992
20
101.808034922134
30
0
0
VERTEX
8
0
10
128.809831133775
20
101.762339490162
30
0
0
VERTEX
8
0
10
129.600075496559
20
101.716644058189
30
0
0
VERTEX
8
0
10
130.390319859343
20
101.670948626216
30
0
0
VERTEX
8
0
10
131.180564222127
20
101.598011686721
30
0
0
VERTEX
8
0
10
131.970808584911
20
101.529468538762
30
0
0
VERTEX
8
0
10
132.761052947695
20
101.460925390803
30
0
0
VERTEX
8
0
10
133.551297310479
20
101.395163876282
30
0
0
VERTEX
8
0
10
134.341541673263
20
101.32988468775
30
0
0
VERTEX
8
0
10
135.131786036047
20
101.264605499217
30
0
0
VERTEX
8
0
10
135.922030398831
20
101.199326310685
30
0
0
VERTEX
8
0
10
136.712274761615
20
101.134047122152
30
0
0
VERTEX
8
0
10
137.502519124398
20
101.06876793362
30
0
0
VERTEX
8
0
10
138.292763487182
20
101.003488745087
30
0
0
VERTEX
8
0
10
139.083007849966
20
100.934383984676
30
0
0
VERTEX
8
0
10
139.87325221275
20
100.865840836717
30
0
0
VERTEX
8
0
10
140.663496575534
20
100.797297688758
30
0
0
VERTEX
8
0
10
141.453740938318
20
100.736901224955
30
0
0
VERTEX
8
0
10
142.243985301102
20
100.678149955276
30
0
0
VERTEX
8
0
10
143.034229663886
20
100.619398685597
30
0
0
VERTEX
8
0
10
143.82447402667
20
100.560647415917
30
0
0
VERTEX
8
0
10
144.614718389454
20
100.511635166875
30
0
0
VERTEX
8
0
10
145.404962752238
20
100.459411816049
30
0
0
VERTEX
8
0
10
146.195207115022
20
100.407188465223
30
0
0
VERTEX
8
0
10
146.985451477805
20
100.392560112651
30
0
0
VERTEX
8
0
10
147.775695840589
20
100.372976356092
30
0
0
VERTEX
8
0
10
148.565940203373
20
100.353392599532
30
0
0
VERTEX
8
0
10
149.356184566157
20
100.315262417647
30
0
0
VERTEX
8
0
10
150.146428928941
20
100.272830945101
30
0
0
VERTEX
8
0
10
150.936673291725
20
100.230399472555
30
0
0
VERTEX
8
0
10
151.726917654509
20
100.187968000009
30
0
0
VERTEX
8
0
10
152.517162017293
20
100.164750280525
30
0
0
VERTEX
8
0
10
153.307406380077
20
100.135374645685
30
0
0
VERTEX
8
0
10
154.097650742861
20
100.105999010846
30
0
0
VERTEX
8
0
10
154.887895105645
20
100.109864225956
30
0
0
SEQEND
8
0
0
POLYLINE
8
0
62
1
70
0
10
0
20
0
30
0
0
VERTEX
8
0
10
2.3707330883517
20
29.3357658107009
30
0
0
VERTEX
8
0
10
3.1609774511356
20
36.5745587885006
30
0
0
VERTEX
8
0
10
3.9512218139195
20
43.1821065435308
30
0
0
VERTEX
8
0
10
4.7414661767034
20
46.3593783022778
30
0
0
VERTEX
8
0
10
5.5317105394873
20
48.7953925415575
30
0
0
VERTEX
8
0
10
6.3219549022712
20
50.9789040162629
30
0
0
VERTEX
8
0
10
7.1121992650551
20
52.4044022359674
30
0
0
VERTEX
8
0
10
7.902443627839
20
54.0309814471849
30
0
0
VERTEX
8
0
10
8.6926879906229
20
55.6557466012058
30
0
0
VERTEX
8
0
10
9.4829323534068
20
57.3266375769392
30
0
0
VERTEX
8
0
10
10.2731767161907
20
59.3588822307041
30
0
0
VERTEX
8
0
10
11.0634210789746
20
61.4163974744454
30
0
0
VERTEX
8
0
10
11.8536654417585
20
63.4561113799997
30
0
0
VERTEX
8
0
10
12.6439098045424
20
66.1574189579821
30
0
0
VERTEX
8
0
10
13.4341541673263
20
68.1239810050624
30
0
0
VERTEX
8
0
10
14.2243985301102
20
70.0733030131495
30
0
0
VERTEX
8
0
10
15.0146428928941
20
71.5355031041821
30
0
0
VERTEX
8
0
10
15.804887255678
20
72.5863690451731
30
0
0
VERTEX
8
0
10
16.5951316184619
20
73.4952453807784
30
0
0
VERTEX
8
0
10
17.3853759812458
20
74.4024530574586
30
0
0
VERTEX
8
0
10
18.1756203440297
20
73.8709049424054
30
0
0
VERTEX
8
0
10
18.9658647068136
20
73.608164917021
30
0
0
VERTEX
8
0
10
19.7561090695975
20
73.3488230547163
30
0
0
VERTEX
8
0
10
20.5463534323814
20
73.0279493284145
30
0
0
VERTEX
8
0
10
21.3365977951653
20
72.7207007618194
30
0
0
VERTEX
8
0
10
22.1268421579492
20
72.4315992361179
30
0
0
VERTEX
8
0
10
22.9170865207331
20
72.3543986663112
30
0
0
VERTEX
8
0
10
23.707330883517
20
72.4665132255086
30
0
0
VERTEX
8
0
10
24.4975752463009
20
72.5963788176003
30
0
0
VERTEX
8
0
10
25.2878196090848
20
72.7324279334041
30
0
0
VERTEX
8
0
10
26.0780639718687
20
72.915092422281
30
0
0
VERTEX
8
0
10
26.8683083346526
20
73.0948222211383
30
0
0
VERTEX
8
0
10
27.6585526974365
20
73.2827792546737
30
0
0
VERTEX
8
0
10
28.4487970602204
20
73.1992850585919
30
0
0
VERTEX
8
0
10
29.2390414230043
20
73.0469997852435
30
0
0
VERTEX
8
0
10
30.0292857857882
20
72.8992983731663
30
0
0
VERTEX
8
0
10
30.8195301485721
20
72.7128382627609
30
0
0
VERTEX
8
0
10
31.609774511356
20
72.4799604163485
30
0
0
VERTEX
8
0
10
32.4000188741399
20
72.2466728037847
30
0
0
VERTEX
8
0
10
33.1902632369238
20
72.0191680304033
30
0
0
VERTEX
8
0
10
33.9805075997077
20
71.8268831631558
30
0
0
VERTEX
8
0
10
34.7707519624916
20
71.5594208329735
30
0
0
VERTEX
8
0
10
35.5609963252755
20
71.3098281536812
30
0
0
VERTEX
8
0
10
36.3512406880594
20
71.0576763938685
30
0
0
VERTEX
8
0
10
37.1414850508433
20
70.7871388655975
30
0
0
VERTEX
8
0
10
37.9317294136272
20
70.5167110648809
30
0
0
VERTEX
8
0
10
38.7219737764111
20
70.2481893452995
30
0
0
VERTEX
8
0
10
39.512218139195
20
69.900704616619
30
0
0
VERTEX
8
0
10
40.3024625019789
20
69.57428847015
30
0
0
VERTEX
8
0
10
41.0927068647628
20
69.249629788756
30
0
0
VERTEX
8
0
10
41.8829512275467
20
68.859300196244
30
0
0
VERTEX
8
0
10
42.6731955903306
20
68.4639788598628
30
0
0
VERTEX
8
0
10
43.4634399531145
20
68.0732856245114
30
0
0
VERTEX
8
0
10
44.2536843158984
20
67.6793155132872
30
0
0
VERTEX
8
0
10
45.0439286786823
20
67.2789778341408
30
0
0
VERTEX
8
0
10
45.8341730414662
20
66.8794150028256
30
0
0
VERTEX
8
0
10
46.6244174042501
20
66.4814417054755
30
0
0
VERTEX
8
0
10
47.414661767034
20
66.1190225175726
30
0
0
VERTEX
8
0
10
48.2049061298179
20
65.7554627320514
30
0
0
VERTEX
8
0
10
48.9951504926018
20
65.3938597308358
30
0
0
VERTEX
8
0
10
49.7853948553857
20
65.0684778270021
30
0
0
VERTEX
8
0
10
50.5756392181696
20
64.7618121573265
30
0
0
VERTEX
8
0
10
51.3658835809535
20
64.4539226479741
30
0
0
VERTEX
8
0
10
52.1561279437374
20
64.1366135034587
30
0
0
VERTEX
8
0
10
52.9463723065213
20
63.8253521621455
30
0
0
VERTEX
8
0
10
53.7366166693052
20
63.5178535782047
30
0
0
VERTEX
8
0
10
54.5268610320891
20
63.2132297751194
30
0
0
VERTEX
8
0
10
55.3171053948729
20
62.9294994201801
30
0
0
VERTEX
8
0
10
56.1073497576568
20
62.638707861166
30
0
0
VERTEX
8
0
10
56.8975941204407
20
62.3506220962988
30
0
0
VERTEX
8
0
10
57.6878384832246
20
62.0783543502091
30
0
0
VERTEX
8
0
10
58.4780828460085
20
61.809211754677
30
0
0
VERTEX
8
0
10
59.2683272087924
20
61.5425773881478
30
0
0
VERTEX
8
0
10
60.0585715715763
20
61.294460585818
30
0
0
VERTEX
8
0
10
60.8488159343602
20
61.0626596041952
30
0
0
VERTEX
8
0
10
61.6390602971441
20
60.835348517444
30
0
0
VERTEX
8
0
10
62.429304659928
20
60.6111011072352
30
0
0
VERTEX
8
0
10
63.2195490227119
20
60.4206313199803
30
0
0
VERTEX
8
0
10
64.0097933854958
20
60.2158084117926
30
0
0
VERTEX
8
0
10
64.8000377482797
20
60.0136332389645
30
0
0
VERTEX
8
0
10
65.5902821110636
20
59.8327270087455
30
0
0
VERTEX
8
0
10
66.3805264738475
20
59.6472281174576
30
0
0
VERTEX
8
0
10
67.1707708366314
20
59.465054256352
30
0
0
VERTEX
8
0
10
67.9610151994153
20
59.287495024191
30
0
0
VERTEX
8
0
10
68.7512595621992
20
59.103435601567
30
0
0
VERTEX
8
0
10
69.5415039249831
20
58.9197700819362
30
0
0
VERTEX
8
0
10
70.331748287767
20
58.7384068556817
30
0
0
VERTEX
8
0
10
71.1219926505509
20
58.5867244257065
30
0
0
VERTEX
8
0
10
71.9122370133348
20
58.3930841599704
30
0
0
VERTEX
8
0
10
72.7024813761187
20
58.2130966357511
30
0
0
VERTEX
8
0
10
73.4927257389026
20
58.043686861993
30
0
0
VERTEX
8
0
10
74.2829701016865
20
57.8959585451908
30
0
0
VERTEX
8
0
10
75.0732144644704
20
57.7475539989591
30
0
0
VERTEX
8
0
10
75.8634588272543
20
57.6130813671503
30
0
0
VERTEX
8
0
10
76.6537031900382
20
57.4805892127905
30
0
0
VERTEX
8
0
10
77.4439475528221
20
57.3489838208097
30
0
0
VERTEX
8
0
10
78.234191915606
20
57.2192766707898
30
0
0
VERTEX
8
0
10
79.0244362783899
20
57.1137464019917
30
0
0
VERTEX
8
0
10
79.8146806411738
20
56.9787785027963
30
0
0
VERTEX
8
0
10
80.6049250039577
20
56.8533529692711
30
0
0
VERTEX
8
0
10
81.3951693667416
20
56.7461074700016
30
0
0
VERTEX
8
0
10
82.1854137295255
20
56.609023347124
30
0
0
VERTEX
8
0
10
82.9756580923094
20
56.4766679224316
30
0
0
VERTEX
8
0
10
83.7659024550933
20
56.3528355096204
30
0
0
VERTEX
8
0
10
84.5561468178772
20
56.2129358359095
30
0
0
VERTEX
8
0
10
85.3463911806611
20
56.0686547341538
30
0
0
VERTEX
8
0
10
86.136635543445
20
55.9251636141565
30
0
0
VERTEX
8
0
10
86.9268799062288
20
55.7895542558402
30
0
0
VERTEX
8
0
10
87.7171242690127
20
55.6412158890052
30
0
0
VERTEX
8
0
10
88.5073686317966
20
55.4971914633708
30
0
0
VERTEX
8
0
10
89.2976129945805
20
55.3644332989517
30
0
0
VERTEX
8
0
10
90.0878573573644
20
55.2388144931176
30
0
0
VERTEX
8
0
10
90.8781017201483
20
55.1132157687653
30
0
0
VERTEX
8
0
10
91.6683460829322
20
54.9900876270674
30
0
0
VERTEX
8
0
10
92.4585904457161
20
54.8557827585363
30
0
0
VERTEX
8
0
10
93.2488348085
20
54.7183917464118
30
0
0
VERTEX
8
0
10
94.0390791712839
20
54.5815810474317
30
0
0
VERTEX
8
0
10
94.8293235340678
20
54.4623403242864
30
0
0
VERTEX
8
0
10
95.6195678968517
20
54.303478922697
30
0
0
VERTEX
8
0
10
96.4098122596356
20
54.155780172745
30
0
0
VERTEX
8
0
10
97.2000566224195
20
54.0134861690192
30
0
0
VERTEX
8
0
10
97.9903009852034
20
53.8508615121995
30
0
0
VERTEX
8
0
10
98.7805453479873
20
53.6902624469729
30
0
0
VERTEX
8
0
10
99.5707897107712
20
53.5398748160856
30
0
0
VERTEX
8
0
10
100.361034073555
20
53.367634578818
30
0
0
VERTEX
8
0
10
101.151278436339
20
53.1866990213573
30
0
0
VERTEX
8
0
10
101.941522799123
20
53.005829192367
30
0
0
VERTEX
8
0
10
102.731767161907
20
52.8316181116695
30
0
0
VERTEX
8
0
10
103.522011524691
20
52.6588393366091
30
0
0
VERTEX
8
0
10
104.312255887475
20
52.4852467061637
30
0
0
VERTEX
8
0
10
105.102500250258
20
52.3166064583062
30
0
0
VERTEX
8
0
10
105.892744613042
20
52.1618034217751
30
0
0
VERTEX
8
0
10
106.682988975826
20
52.0061380466209
30
0
0
VERTEX
8
0
10
107.47323333861
20
51.8505652238833
30
0
0
VERTEX
8
0
10
108.263477701394
20
51.7045053942742
30
0
0
VERTEX
8
0
10
109.053722064178
20
51.5619776048732
30
0
0
VERTEX
8
0
10
109.843966426962
20
51.4195894965712
30
0
0
VERTEX
8
0
10
110.634210789746
20
51.2869659019018
30
0
0
VERTEX
8
0
10
111.42445515253
20
51.1162007995866
30
0
0
VERTEX
8
0
10
112.214699515314
20
50.9556596160236
30
0
0
VERTEX
8
0
10
113.004943878097
20
50.7975338004726
30
0
0
VERTEX
8
0
10
113.795188240881
20
50.6395371165198
30
0
0
VERTEX
8
0
10
114.585432603665
20
50.4815855554029
30
0
0
VERTEX
8
0
10
115.375676966449
20
50.3282682524267
30
0
0
VERTEX
8
0
10
116.165921329233
20
50.1730964202182
30
0
0
VERTEX
8
0
10
116.956165692017
20
50.0160970128021
30
0
0
VERTEX
8
0
10
117.746410054801
20
49.8591213875313
30
0
0
VERTEX
8
0
10
118.536654417585
20
49.7084413035332
30
0
0
VERTEX
8
0
10
119.326898780369
20
49.5474400388862
30
0
0
VERTEX
8
0
10
120.117143143153
20
49.3888855793221
30
0
0
VERTEX
8
0
10
120.907387505936
20
49.2372528667363
30
0
0
VERTEX
8
0
10
121.69763186872
20
49.0747925395793
30
0
0
VERTEX
8
0
10
122.487876231504
20
48.9127062423769
30
0
0
VERTEX
8
0
10
123.278120594288
20
48.7491457484805
30
0
0
VERTEX
8
0
10
124.068364957072
20
48.5740672395856
30
0
0
VERTEX
8
0
10
124.858609319856
20
48.3943431310296
30
0
0
VERTEX
8
0
10
125.64885368264
20
48.214621241351
30
0
0
VERTEX
8
0
10
126.439098045424
20
48.0441555750685
30
0
0
VERTEX
8
0
10
127.229342408208
20
47.886446162059
30
0
0
VERTEX
8
0
10
128.019586770992
20
47.7248937296145
30
0
0
VERTEX
8
0
10
128.809831133775
20
47.5588297519204
30
0
0
VERTEX
8
0
10
129.600075496559
20
47.3902003267584
30
0
0
VERTEX
8
0
10
130.390319859343
20
47.2216018234651
30
0
0
VERTEX
8
0
10
131.180564222127
20
47.0572842144387
30
0
0
VERTEX
8
0
10
131.970808584911
20
46.8901584154084
30
0
0
VERTEX
8
0
10
132.761052947695
20
46.7202130127557
30
0
0
VERTEX
8
0
10
133.551297310479
20
46.5502756204112
30
0
0
VERTEX
8
0
10
134.341541673263
20
46.3925111263948
30
0
0
VERTEX
8
0
10
135.131786036047
20
46.2294861986741
30
0
0
VERTEX
8
0
10
135.922030398831
20
46.0672046328863
30
0
0
VERTEX
8
0
10
136.712274761615
20
45.9071583739813
30
0
0
VERTEX
8
0
10
137.502519124398
20
45.7538028002905
30
0
0
VERTEX
8
0
10
138.292763487182
20
45.6005011893001
30
0
0
VERTEX
8
0
10
139.083007849966
20
45.441677007401
30
0
0
VERTEX
8
0
10
139.87325221275
20
45.287047525598
30
0
0
VERTEX
8
0
10
140.663496575534
20
45.1368946543382
30
0
0
VERTEX
8
0
10
141.453740938318
20
44.9867419482153
30
0
0
VERTEX
8
0
10
142.243985301102
20
44.8546082031501
30
0
0
VERTEX
8
0
10
143.034229663886
20
44.7672903380047
30
0
0
VERTEX
8
0
10
143.82447402667
20
44.6684977152339
30
0
0
VERTEX
8
0
10
144.614718389454
20
44.5588931464183
30
0
0
VERTEX
8
0
10
145.404962752238
20
44.4773804940504
30
0
0
VERTEX
8
0
10
146.195207115022
20
44.3967779138021
30
0
0
VERTEX
8
0
10
146.985451477805
20
44.3242541238003
30
0
0
VERTEX
8
0
10
147.775695840589
20
44.2584775227447
30
0
0
VERTEX
8
0
10
148.565940203373
20
44.1927787577785
30
0
0
VERTEX
8
0
10
149.356184566157
20
44.1271581765609
30
0
0
VERTEX
8
0
10
150.146428928941
20
44.058694173198
30
0
0
VERTEX
8
0
10
150.936673291725
20
43.9908116250756
30
0
0
VERTEX
8
0
10
151.726917654509
20
43.9230143227717
30
0
0
VERTEX
8
0
10
152.517162017293
20
43.8636591701008
30
0
0
VERTEX
8
0
10
153.307406380077
20
43.8056799459928
30
0
0
VERTEX
8
0
10
154.097650742861
20
43.7477641488501
30
0
0
VERTEX
8
0
10
154.887895105645
20
43.7596399430683
30
0
0
SEQEND
8
0
0
POLYLINE
8
0
62
2
70
0
10
0
20
0
30
0
0
VERTEX
8
0
10
2.3707330883517
20
29.335765810701
30
0
0
VERTEX
8
0
10
3.1609774511356
20
36.5745587885006
30
0
0
VERTEX
8
0
10
3.9512218139195
20
43.1821065435308
30
0
0
VERTEX
8
0
10
4.7414661767034
20
46.3593783022778
30
0
0
VERTEX
8
0
10
5.5317105394873
20
48.7953925415575
30
0
0
VERTEX
8
0
10
6.3219549022712
20
50.9789040162629
30
0
0
VERTEX
8
0
10
7.1121992650551
20
52.4044022359674
30
0
0
VERTEX
8
0
10
7.902443627839
20
54.0309814471849
30
0
0
VERTEX
8
0
10
8.6926879906229
20
55.6557466012058
30
0
0
VERTEX
8
0
10
9.4829323534068
20
57.3266375769392
30
0
0
VERTEX
8
0
10
10.2731767161907
20
59.3588822307041
30
0
0
VERTEX
8
0
10
11.0634210789746
20
61.4163974744454
30
0
0
VERTEX
8
0
10
11.8536654417585
20
63.4561113799997
30
0
0
VERTEX
8
0
10
12.6439098045424
20
66.1574189579821
30
0
0
VERTEX
8
0
10
13.4341541673263
20
68.1239810050624
30
0
0
VERTEX
8
0
10
14.2243985301102
20
70.0733030131495
30
0
0
VERTEX
8
0
10
15.0146428928941
20
71.5355031041821
30
0
0
VERTEX
8
0
10
15.804887255678
20
72.5863690451731
30
0
0
VERTEX
8
0
10
16.5951316184619
20
73.4952453807784
30
0
0
VERTEX
8
0
10
17.3853759812458
20
74.4024530574586
30
0
0
VERTEX
8
0
10
18.1756203440297
20
73.8709049424054
30
0
0
VERTEX
8
0
10
18.9658647068136
20
73.608164917021
30
0
0
VERTEX
8
0
10
19.7561090695975
20
73.3488230547163
30
0
0
VERTEX
8
0
10
20.5463534323814
20
73.0279493284145
30
0
0
VERTEX
8
0
10
21.3365977951653
20
72.7207007618194
30
0
0
VERTEX
8
0
10
22.1268421579492
20
72.4315992361179
30
0
0
VERTEX
8
0
10
22.9170865207331
20
72.3543986663112
30
0
0
VERTEX
8
0
10
23.707330883517
20
72.4665132255086
30
0
0
VERTEX
8
0
10
24.4975752463009
20
72.5963788176003
30
0
0
VERTEX
8
0
10
25.2878196090848
20
72.7324279334041
30
0
0
VERTEX
8
0
10
26.0780639718687
20
72.915092422281
30
0
0
VERTEX
8
0
10
26.8683083346526
20
73.0948222211383
30
0
0
VERTEX
8
0
10
27.6585526974365
20
73.2827792546737
30
0
0
VERTEX
8
0
10
28.4487970602204
20
73.199285058592
30
0
0
VERTEX
8
0
10
29.2390414230043
20
73.0469997852435
30
0
0
VERTEX
8
0
10
30.0292857857882
20
72.8992983731663
30
0
0
VERTEX
8
0
10
30.8195301485721
20
72.7128382627609
30
0
0
VERTEX
8
0
10
31.609774511356
20
72.4799604163485
30
0
0
VERTEX
8
0
10
32.4000188741399
20
72.2466728037847
30
0
0
VERTEX
8
0
10
33.1902632369238
20
72.0191680304034
30
0
0
VERTEX
8
0
10
33.9805075997077
20
71.8268831631558
30
0
0
VERTEX
8
0
10
34.7707519624916
20
71.5594208329735
30
0
0
VERTEX
8
0
10
35.5609963252755
20
71.3098281536812
30
0
0
VERTEX
8
0
10
36.3512406880594
20
71.0576763938685
30
0
0
VERTEX
8
0
10
37.1414850508433
20
70.7871388655975
30
0
0
VERTEX
8
0
10
37.9317294136272
20
70.5167110648809
30
0
0
VERTEX
8
0
10
38.7219737764111
20
70.2481893452995
30
0
0
VERTEX
8
0
10
39.512218139195
20
69.9007046166191
30
0
0
VERTEX
8
0
10
40.3024625019789
20
69.57428847015
30
0
0
VERTEX
8
0
10
41.0927068647628
20
69.249629788756
30
0
0
VERTEX
8
0
10
41.8829512275467
20
68.859300196244
30
0
0
VERTEX
8
0
10
42.6731955903306
20
68.4639788598628
30
0
0
VERTEX
8
0
10
43.4634399531145
20
68.0732856245114
30
0
0
VERTEX
8
0
10
44.2536843158984
20
67.6793155132872
30
0
0
VERTEX
8
0
10
45.0439286786823
20
67.2789778341408
30
0
0
VERTEX
8
0
10
45.8341730414662
20
66.8794150028256
30
0
0
VERTEX
8
0
10
46.6244174042501
20
66.4814417054755
30
0
0
VERTEX
8
0
10
47.414661767034
20
66.1190225175726
30
0
0
VERTEX
8
0
10
48.2049061298179
20
65.7554627320514
30
0
0
VERTEX
8
0
10
48.9951504926018
20
65.3938597308358
30
0
0
VERTEX
8
0
10
49.7853948553857
20
65.0684778270021
30
0
0
VERTEX
8
0
10
50.5756392181696
20
64.7618121573265
30
0
0
VERTEX
8
0
10
51.3658835809535
20
64.4539226479741
30
0
0
VERTEX
8
0
10
52.1561279437374
20
64.1366135034587
30
0
0
VERTEX
8
0
10
52.9463723065213
20
63.8253521621455
30
0
0
VERTEX
8
0
10
53.7366166693052
20
63.5178535782047
30
0
0
VERTEX
8
0
10
54.5268610320891
20
63.2132297751194
30
0
0
VERTEX
8
0
10
55.3171053948729
20
62.9294994201801
30
0
0
VERTEX
8
0
10
56.1073497576568
20
62.638707861166
30
0
0
VERTEX
8
0
10
56.8975941204407
20
62.3506220962988
30
0
0
VERTEX
8
0
10
57.6878384832246
20
62.0783543502091
30
0
0
VERTEX
8
0
10
58.4780828460085
20
61.8092117546769
30
0
0
VERTEX
8
0
10
59.2683272087924
20
61.5425773881478
30
0
0
VERTEX
8
0
10
60.0585715715763
20
61.294460585818
30
0
0
VERTEX
8
0
10
60.8488159343602
20
61.0626596041952
30
0
0
VERTEX
8
0
10
61.6390602971441
20
60.8353485174441
30
0
0
VERTEX
8
0
10
62.429304659928
20
60.6111011072352
30
0
0
VERTEX
8
0
10
63.2195490227119
20
60.4206313199803
30
0
0
VERTEX
8
0
10
64.0097933854958
20
60.2158084117926
30
0
0
VERTEX
8
0
10
64.8000377482797
20
60.0136332389645
30
0
0
VERTEX
8
0
10
65.5902821110636
20
59.8327270087455
30
0
0
VERTEX
8
0
10
66.3805264738475
20
59.6472281174576
30
0
0
VERTEX
8
0
10
67.1707708366314
20
59.465054256352
30
0
0
VERTEX
8
0
10
67.9610151994153
20
59.287495024191
30
0
0
VERTEX
8
0
10
68.7512595621992
20
59.103435601567
30
0
0
VERTEX
8
0
10
69.5415039249831
20
58.9197700819362
30
0
0
VERTEX
8
0
10
70.331748287767
20
58.7384068556817
30
0
0
VERTEX
8
0
10
71.1219926505509
20
58.5867244257066
30
0
0
VERTEX
8
0
10
71.9122370133348
20
58.3930841599704
30
0
0
VERTEX
8
0
10
72.7024813761187
20
58.2130966357511
30
0
0
VERTEX
8
0
10
73.4927257389026
20
58.043686861993
30
0
0
VERTEX
8
0
10
74.2829701016865
20
57.8959585451908
30
0
0
VERTEX
8
0
10
75.0732144644704
20
57.7475539989591
30
0
0
VERTEX
8
0
10
75.8634588272543
20
57.6130813671503
30
0
0
VERTEX
8
0
10
76.6537031900382
20
57.4805892127905
30
0
0
VERTEX
8
0
10
77.4439475528221
20
57.3489838208097
30
0
0
VERTEX
8
0
10
78.234191915606
20
57.2192766707898
30
0
0
VERTEX
8
0
10
79.0244362783899
20
57.1137464019917
30
0
0
VERTEX
8
0
10
79.8146806411738
20
56.9787785027963
30
0
0
VERTEX
8
0
10
80.6049250039577
20
56.8533529692711
30
0
0
VERTEX
8
0
10
81.3951693667416
20
56.7461074700016
30
0
0
VERTEX
8
0
10
82.1854137295255
20
56.6090233471239
30
0
0
VERTEX
8
0
10
82.9756580923094
20
56.4766679224316
30
0
0
VERTEX
8
0
10
83.7659024550933
20
56.3528355096204
30
0
0
VERTEX
8
0
10
84.5561468178772
20
56.2129358359095
30
0
0
VERTEX
8
0
10
85.3463911806611
20
56.0686547341538
30
0
0
VERTEX
8
0
10
86.136635543445
20
55.9251636141565
30
0
0
VERTEX
8
0
10
86.9268799062288
20
55.7895542558402
30
0
0
VERTEX
8
0
10
87.7171242690127
20
55.6412158890052
30
0
0
VERTEX
8
0
10
88.5073686317966
20
55.4971914633708
30
0
0
VERTEX
8
0
10
89.2976129945805
20
55.3644332989517
30
0
0
VERTEX
8
0
10
90.0878573573644
20
55.2388144931176
30
0
0
VERTEX
8
0
10
90.8781017201483
20
55.1132157687652
30
0
0
VERTEX
8
0
10
91.6683460829322
20
54.9900876270674
30
0
0
VERTEX
8
0
10
92.4585904457161
20
54.8557827585363
30
0
0
VERTEX
8
0
10
93.2488348085
20
54.7183917464118
30
0
0
VERTEX
8
0
10
94.0390791712839
20
54.5815810474317
30
0
0
VERTEX
8
0
10
94.8293235340678
20
54.4623403242864
30
0
0
VERTEX
8
0
10
95.6195678968517
20
54.303478922697
30
0
0
VERTEX
8
0
10
96.4098122596356
20
54.155780172745
30
0
0
VERTEX
8
0
10
97.2000566224195
20
54.0134861690192
30
0
0
VERTEX
8
0
10
97.9903009852034
20
53.8508615121995
30
0
0
VERTEX
8
0
10
98.7805453479873
20
53.6902624469729
30
0
0
VERTEX
8
0
10
99.5707897107712
20
53.5398748160856
30
0
0
VERTEX
8
0
10
100.361034073555
20
53.367634578818
30
0
0
VERTEX
8
0
10
101.151278436339
20
53.1866990213573
30
0
0
VERTEX
8
0
10
101.941522799123
20
53.005829192367
30
0
0
VERTEX
8
0
10
102.731767161907
20
52.8316181116695
30
0
0
VERTEX
8
0
10
103.522011524691
20
52.6588393366092
30
0
0
VERTEX
8
0
10
104.312255887475
20
52.4852467061637
30
0
0
VERTEX
8
0
10
105.102500250258
20
52.3166064583062
30
0
0
VERTEX
8
0
10
105.892744613042
20
52.1618034217752
30
0
0
VERTEX
8
0
10
106.682988975826
20
52.0061380466209
30
0
0
VERTEX
8
0
10
107.47323333861
20
51.8505652238832
30
0
0
VERTEX
8
0
10
108.263477701394
20
51.7045053942741
30
0
0
VERTEX
8
0
10
109.053722064178
20
51.5619776048732
30
0
0
VERTEX
8
0
10
109.843966426962
20
51.4195894965712
30
0
0
VERTEX
8
0
10
110.634210789746
20
51.2869659019018
30
0
0
VERTEX
8
0
10
111.42445515253
20
51.1162007995866
30
0
0
VERTEX
8
0
10
112.214699515314
20
50.9556596160236
30
0
0
VERTEX
8
0
10
113.004943878097
20
50.7975338004725
30
0
0
VERTEX
8
0
10
113.795188240881
20
50.6395371165198
30
0
0
VERTEX
8
0
10
114.585432603665
20
50.4815855554029
30
0
0
VERTEX
8
0
10
115.375676966449
20
50.3282682524267
30
0
0
VERTEX
8
0
10
116.165921329233
20
50.1730964202182
30
0
0
VERTEX
8
0
10
116.956165692017
20
50.0160970128021
30
0
0
VERTEX
8
0
10
117.746410054801
20
49.8591213875313
30
0
0
VERTEX
8
0
10
118.536654417585
20
49.7084413035332
30
0
0
VERTEX
8
0
10
119.326898780369
20
49.5474400388862
30
0
0
VERTEX
8
0
10
120.117143143153
20
49.3888855793221
30
0
0
VERTEX
8
0
10
120.907387505936
20
49.2372528667363
30
0
0
VERTEX
8
0
10
121.69763186872
20
49.0747925395793
30
0
0
VERTEX
8
0
10
122.487876231504
20
48.9127062423769
30
0
0
VERTEX
8
0
10
123.278120594288
20
48.7491457484805
30
0
0
VERTEX
8
0
10
124.068364957072
20
48.5740672395856
30
0
0
VERTEX
8
0
10
124.858609319856
20
48.3943431310296
30
0
0
VERTEX
8
0
10
125.64885368264
20
48.2146212413509
30
0
0
VERTEX
8
0
10
126.439098045424
20
48.0441555750685
30
0
0
VERTEX
8
0
10
127.229342408208
20
47.886446162059
30
0
0
VERTEX
8
0
10
128.019586770992
20
47.7248937296145
30
0
0
VERTEX
8
0
10
128.809831133775
20
47.5588297519204
30
0
0
VERTEX
8
0
10
129.600075496559
20
47.3902003267584
30
0
0
VERTEX
8
0
10
130.390319859343
20
47.2216018234651
30
0
0
VERTEX
8
0
10
131.180564222127
20
47.0572842144387
30
0
0
VERTEX
8
0
10
131.970808584911
20
46.8901584154084
30
0
0
VERTEX
8
0
10
132.761052947695
20
46.7202130127557
30
0
0
VERTEX
8
0
10
133.551297310479
20
46.5502756204112
30
0
0
VERTEX
8
0
10
134.341541673263
20
46.3925111263948
30
0
0
VERTEX
8
0
10
135.131786036047
20
46.2294861986741
30
0
0
VERTEX
8
0
10
135.922030398831
20
46.0672046328863
30
0
0
VERTEX
8
0
10
136.712274761615
20
45.9071583739813
30
0
0
VERTEX
8
0
10
137.502519124398
20
45.7538028002905
30
0
0
VERTEX
8
0
10
138.292763487182
20
45.6005011893001
30
0
0
VERTEX
8
0
10
139.083007849966
20
45.441677007401
30
0
0
VERTEX
8
0
10
139.87325221275
20
45.287047525598
30
0
0
VERTEX
8
0
10
140.663496575534
20
45.1368946543382
30
0
0
VERTEX
8
0
10
141.453740938318
20
44.9867419482153
30
0
0
VERTEX
8
0
10
142.243985301102
20
44.8546082031501
30
0
0
VERTEX
8
0
10
143.034229663886
20
44.7672903380047
30
0
0
VERTEX
8
0
10
143.82447402667
20
44.6684977152339
30
0
0
VERTEX
8
0
10
144.614718389454
20
44.5588931464183
30
0
0
VERTEX
8
0
10
145.404962752238
20
44.4773804940504
30
0
0
VERTEX
8
0
10
146.195207115022
20
44.3967779138021
30
0
0
VERTEX
8
0
10
146.985451477805
20
44.3242541238003
30
0
0
VERTEX
8
0
10
147.775695840589
20
44.2584775227447
30
0
0
VERTEX
8
0
10
148.565940203373
20
44.1927787577785
30
0
0
VERTEX
8
0
10
149.356184566157
20
44.1271581765609
30
0
0
VERTEX
8
0
10
150.146428928941
20
44.058694173198
30
0
0
VERTEX
8
0
10
150.936673291725
20
43.9908116250756
30
0
0
VERTEX
8
0
10
151.726917654509
20
43.9230143227717
30
0
0
VERTEX
8
0
10
152.517162017293
20
43.8636591701008
30
0
0
VERTEX
8
0
10
153.307406380077
20
43.8056799459928
30
0
0
VERTEX
8
0
10
154.097650742861
20
43.7477641488501
30
0
0
VERTEX
8
0
10
154.887895105645
20
43.7596399430684
30
0
0
SEQEND
8
0
0
POLYLINE
8
0
62
3
70
0
10
0
20
0
30
0
0
VERTEX
8
0
10
2.3707330883517
20
23.2573475290707
30
0
0
VERTEX
8
0
10
3.1609774511356
20
31.3557891887432
30
0
0
VERTEX
8
0
10
3.9512218139195
20
33.8061487816277
30
0
0
VERTEX
8
0
10
4.7414661767034
20
39.6447227003
30
0
0
VERTEX
8
0
10
5.5317105394873
20
45.0393953865709
30
0
0
VERTEX
8
0
10
6.3219549022712
20
48.4118606305239
30
0
0
VERTEX
8
0
10
7.1121992650551
20
52.7342197736828
30
0
0
VERTEX
8
0
10
7.902443627839
20
56.8616442584018
30
0
0
VERTEX
8
0
10
8.6926879906229
20
60.0144408402494
30
0
0
VERTEX
8
0
10
9.4829323534068
20
63.4873098573203
30
0
0
VERTEX
8
0
10
10.2731767161907
20
66.8283720967238
30
0
0
VERTEX
8
0
10
11.0634210789746
20
69.6233056732983
30
0
0
VERTEX
8
0
10
11.8536654417585
20
72.5416031946076
30
0
0
VERTEX
8
0
10
12.6439098045424
20
75.3908941608062
30
0
0
VERTEX
8
0
10
13.4341541673263
20
77.9680953609492
30
0
0
VERTEX
8
0
10
14.2243985301102
20
80.7567161857405
30
0
0
VERTEX
8
0
10
15.0146428928941
20
83.7495166991658
30
0
0
VERTEX
8
0
10
15.804887255678
20
85.8236722188034
30
0
0
VERTEX
8
0
10
16.5951316184619
20
87.5540936619103
30
0
0
VERTEX
8
0
10
17.3853759812458
20
89.0129484939901
30
0
0
VERTEX
8
0
10
18.1756203440297
20
90.1792427976783
30
0
0
VERTEX
8
0
10
18.9658647068136
20
91.2014859705854
30
0
0
VERTEX
8
0
10
19.7561090695975
20
92.0825353142912
30
0
0
VERTEX
8
0
10
20.5463534323814
20
92.7953303905527
30
0
0
VERTEX
8
0
10
21.3365977951653
20
93.4189059214488
30
0
0
VERTEX
8
0
10
22.1268421579492
20
93.9579949112187
30
0
0
VERTEX
8
0
10
22.9170865207331
20
94.3958450738936
30
0
0
VERTEX
8
0
10
23.707330883517
20
94.7777667825763
30
0
0
VERTEX
8
0
10
24.4975752463009
20
95.111142360223
30
0
0
VERTEX
8
0
10
25.2878196090848
20
95.3867904049429
30
0
0
VERTEX
8
0
10
26.0780639718687
20
95.631173841813
30
0
0
VERTEX
8
0
10
26.8683083346526
20
95.8532100320041
30
0
0
VERTEX
8
0
10
27.6585526974365
20
96.0491318881404
30
0
0
VERTEX
8
0
10
28.4487970602204
20
96.2356618549789
30
0
0
VERTEX
8
0
10
29.2390414230043
20
96.4267672455985
30
0
0
VERTEX
8
0
10
30.0292857857882
20
96.6212810465918
30
0
0
VERTEX
8
0
10
30.8195301485721
20
96.8140472929845
30
0
0
VERTEX
8
0
10
31.609774511356
20
97.0061840360197
30
0
0
VERTEX
8
0
10
32.4000188741399
20
97.1932525876311
30
0
0
VERTEX
8
0
10
33.1902632369238
20
97.3757494890588
30
0
0
VERTEX
8
0
10
33.9805075997077
20
97.5597495313497
30
0
0
VERTEX
8
0
10
34.7707519624916
20
97.7457270273068
30
0
0
VERTEX
8
0
10
35.5609963252755
20
97.9359783579128
30
0
0
VERTEX
8
0
10
36.3512406880594
20
98.147119566066
30
0
0
VERTEX
8
0
10
37.1414850508433
20
98.3525915831853
30
0
0
VERTEX
8
0
10
37.9317294136272
20
98.5367775941291
30
0
0
VERTEX
8
0
10
38.7219737764111
20
98.7143597174026
30
0
0
VERTEX
8
0
10
39.512218139195
20
98.8892248980227
30
0
0
VERTEX
8
0
10
40.3024625019789
20
99.0593838710536
30
0
0
VERTEX
8
0
10
41.0927068647628
20
99.2306656409131
30
0
0
VERTEX
8
0
10
41.8829512275467
20
99.4048175856653
30
0
0
VERTEX
8
0
10
42.6731955903306
20
99.5780791369327
30
0
0
VERTEX
8
0
10
43.4634399531145
20
99.7550908357935
30
0
0
VERTEX
8
0
10
44.2536843158984
20
99.9372007299462
30
0
0
VERTEX
8
0
10
45.0439286786823
20
100.119837027452
30
0
0
VERTEX
8
0
10
45.8341730414662
20
100.306790987456
30
0
0
VERTEX
8
0
10
46.6244174042501
20
100.499071730685
30
0
0
VERTEX
8
0
10
47.414661767034
20
100.691578350371
30
0
0
VERTEX
8
0
10
48.2049061298179
20
100.887335724567
30
0
0
VERTEX
8
0
10
48.9951504926018
20
101.086989229288
30
0
0
VERTEX
8
0
10
49.7853948553857
20
101.285109914473
30
0
0
VERTEX
8
0
10
50.5756392181696
20
101.484017548516
30
0
0
VERTEX
8
0
10
51.3658835809535
20
101.683988223684
30
0
0
VERTEX
8
0
10
52.1561279437374
20
101.879466689815
30
0
0
VERTEX
8
0
10
52.9463723065213
20
102.072138549995
30
0
0
VERTEX
8
0
10
53.7366166693052
20
102.261937021747
30
0
0
VERTEX
8
0
10
54.5268610320891
20
102.443403832239
30
0
0
VERTEX
8
0
10
55.3171053948729
20
102.617679840311
30
0
0
VERTEX
8
0
10
56.1073497576568
20
102.784417665497
30
0
0
VERTEX
8
0
10
56.8975941204407
20
102.938507425186
30
0
0
VERTEX
8
0
10
57.6878384832246
20
103.080664043443
30
0
0
VERTEX
8
0
10
58.4780828460085
20
103.210368593239
30
0
0
VERTEX
8
0
10
59.2683272087924
20
103.323146488475
30
0
0
VERTEX
8
0
10
60.0585715715763
20
103.419460070295
30
0
0
VERTEX
8
0
10
60.8488159343602
20
103.498807423972
30
0
0
VERTEX
8
0
10
61.6390602971441
20
103.557704437482
30
0
0
VERTEX
8
0
10
62.429304659928
20
103.596670678852
30
0
0
VERTEX
8
0
10
63.2195490227119
20
103.61563812998
30
0
0
VERTEX
8
0
10
64.0097933854958
20
103.612856701922
30
0
0
VERTEX
8
0
10
64.8000377482797
20
103.590404599926
30
0
0
VERTEX
8
0
10
65.5902821110636
20
103.548400236317
30
0
0
VERTEX
8
0
10
66.3805264738475
20
103.47287174395
30
0
0
VERTEX
8
0
10
67.1707708366314
20
103.370476734872
30
0
0
VERTEX
8
0
10
67.9610151994153
20
103.250987784031
30
0
0
VERTEX
8
0
10
68.7512595621992
20
103.121337452275
30
0
0
VERTEX
8
0
10
69.5415039249831
20
102.988797308748
30
0
0
VERTEX
8
0
10
70.331748287767
20
102.861465634218
30
0
0
VERTEX
8
0
10
71.1219926505509
20
102.750491431094
30
0
0
VERTEX
8
0
10
71.9122370133348
20
102.665819812629
30
0
0
VERTEX
8
0
10
72.7024813761187
20
102.602415575153
30
0
0
VERTEX
8
0
10
73.4927257389026
20
102.553808184575
30
0
0
VERTEX
8
0
10
74.2829701016865
20
102.5164475972
30
0
0
VERTEX
8
0
10
75.0732144644704
20
102.488086658904
30
0
0
VERTEX
8
0
10
75.8634588272543
20
102.467137330907
30
0
0
VERTEX
8
0
10
76.6537031900382
20
102.452401621862
30
0
0
VERTEX
8
0
10
77.4439475528221
20
102.442935655839
30
0
0
VERTEX
8
0
10
78.234191915606
20
102.437972146057
30
0
0
VERTEX
8
0
10
79.0244362783899
20
102.436872401167
30
0
0
VERTEX
8
0
10
79.8146806411738
20
102.439094789078
30
0
0
VERTEX
8
0
10
80.6049250039577
20
102.444173048034
30
0
0
VERTEX
8
0
10
81.3951693667416
20
102.451700820346
30
0
0
VERTEX
8
0
10
82.1854137295255
20
102.461320293122
30
0
0
VERTEX
8
0
10
82.9756580923094
20
102.472713647523
30
0
0
VERTEX
8
0
10
83.7659024550933
20
102.485596486451
30
0
0
VERTEX
8
0
10
84.5561468178772
20
102.499712691395
30
0
0
VERTEX
8
0
10
85.3463911806611
20
102.514830334232
30
0
0
VERTEX
8
0
10
86.136635543445
20
102.530738382715
30
0
0
VERTEX
8
0
10
86.9268799062288
20
102.547244012931
30
0
0
VERTEX
8
0
10
87.7171242690127
20
102.564170392987
30
0
0
VERTEX
8
0
10
88.5073686317966
20
102.581354837279
30
0
0
VERTEX
8
0
10
89.2976129945805
20
102.59864725578
30
0
0
VERTEX
8
0
10
90.0878573573644
20
102.615908840678
30
0
0
VERTEX
8
0
10
90.8781017201483
20
102.633010945853
30
0
0
VERTEX
8
0
10
91.6683460829322
20
102.649834124503
30
0
0
VERTEX
8
0
10
92.4585904457161
20
102.666267297478
30
0
0
VERTEX
8
0
10
93.2488348085
20
102.68220703051
30
0
0
VERTEX
8
0
10
94.0390791712839
20
102.69755690283
30
0
0
VERTEX
8
0
10
94.8293235340678
20
102.712226952919
30
0
0
VERTEX
8
0
10
95.6195678968517
20
102.726133189869
30
0
0
VERTEX
8
0
10
96.4098122596356
20
102.739197160765
30
0
0
VERTEX
8
0
10
97.2000566224195
20
102.751345566248
30
0
0
VERTEX
8
0
10
97.9903009852034
20
102.762509917688
30
0
0
VERTEX
8
0
10
98.7805453479873
20
102.772626230458
30
0
0
VERTEX
8
0
10
99.5707897107712
20
102.781634748727
30
0
0
VERTEX
8
0
10
100.361034073555
20
102.789479697808
30
0
0
VERTEX
8
0
10
101.151278436339
20
102.796109060794
30
0
0
VERTEX
8
0
10
101.941522799123
20
102.801474376595
30
0
0
VERTEX
8
0
10
102.731767161907
20
102.80553055698
30
0
0
VERTEX
8
0
10
103.522011524691
20
102.808235720509
30
0
0
VERTEX
8
0
10
104.312255887475
20
102.809551041549
30
0
0
VERTEX
8
0
10
105.102500250258
20
102.809440612825
30
0
0
VERTEX
8
0
10
105.892744613042
20
102.807871320097
30
0
0
VERTEX
8
0
10
106.682988975826
20
102.804812727832
30
0
0
VERTEX
8
0
10
107.47323333861
20
102.800236974774
30
0
0
VERTEX
8
0
10
108.263477701394
20
102.794118678536
30
0
0
VERTEX
8
0
10
109.053722064178
20
102.78643484839
30
0
0
VERTEX
8
0
10
109.843966426962
20
102.777164805564
30
0
0
VERTEX
8
0
10
110.634210789746
20
102.766290110393
30
0
0
VERTEX
8
0
10
111.42445515253
20
102.753794495808
30
0
0
VERTEX
8
0
10
112.214699515314
20
102.739663806636
30
0
0
VERTEX
8
0
10
113.004943878097
20
102.723885944317
30
0
0
VERTEX
8
0
10
113.795188240881
20
102.706450816605
30
0
0
VERTEX
8
0
10
114.585432603665
20
102.68735029196
30
0
0
VERTEX
8
0
10
115.375676966449
20
102.666578158295
30
0
0
VERTEX
8
0
10
116.165921329233
20
102.64413008583
30
0
0
VERTEX
8
0
10
116.956165692017
20
102.620003593796
30
0
0
VERTEX
8
0
10
117.746410054801
20
102.594198020805
30
0
0
VERTEX
8
0
10
118.536654417585
20
102.566714498689
30
0
0
VERTEX
8
0
10
119.326898780369
20
102.537555929647
30
0
0
VERTEX
8
0
10
120.117143143153
20
102.506726966573
30
0
0
VERTEX
8
0
10
120.907387505936
20
102.474233996443
30
0
0
VERTEX
8
0
10
121.69763186872
20
102.440085126664
30
0
0
VERTEX
8
0
10
122.487876231504
20
102.404290174312
30
0
0
VERTEX
8
0
10
123.278120594288
20
102.366860658187
30
0
0
VERTEX
8
0
10
124.068364957072
20
102.327809793657
30
0
0
VERTEX
8
0
10
124.858609319856
20
102.287152490257
30
0
0
VERTEX
8
0
10
125.64885368264
20
102.244905352042
30
0
0
VERTEX
8
0
10
126.439098045424
20
102.201086680689
30
0
0
VERTEX
8
0
10
127.229342408208
20
102.155716481411
30
0
0
VERTEX
8
0
10
128.019586770992
20
102.108816471693
30
0
0
VERTEX
8
0
10
128.809831133775
20
102.060410092963
30
0
0
VERTEX
8
0
10
129.600075496559
20
102.010522525261
30
0
0
VERTEX
8
0
10
130.390319859343
20
101.959180705058
30
0
0
VERTEX
8
0
10
131.180564222127
20
101.906413346353
30
0
0
VERTEX
8
0
10
131.970808584911
20
101.85225096526
30
0
0
VERTEX
8
0
10
132.761052947695
20
101.796725908288
30
0
0
VERTEX
8
0
10
133.551297310479
20
101.73987238461
30
0
0
VERTEX
8
0
10
134.341541673263
20
101.681726502615
30
0
0
VERTEX
8
0
10
135.131786036047
20
101.622326311166
30
0
0
VERTEX
8
0
10
135.922030398831
20
101.561711845983
30
0
0
VERTEX
8
0
10
136.712274761615
20
101.499925181736
30
0
0
VERTEX
8
0
10
137.502519124398
20
101.437010490478
30
0
0
VERTEX
8
0
10
138.292763487182
20
101.373014107213
30
0
0
VERTEX
8
0
10
139.083007849966
20
101.307984603545
30
0
0
VERTEX
8
0
10
139.87325221275
20
101.241972870548
30
0
0
VERTEX
8
0
10
140.663496575534
20
101.175032212244
30
0
0
VERTEX
8
0
10
141.453740938318
20
101.107218451409
30
0
0
VERTEX
8
0
10
142.243985301102
20
101.038590049788
30
0
0
VERTEX
8
0
10
143.034229663886
20
100.969208245356
30
0
0
VERTEX
8
0
10
143.82447402667
20
100.899137209906
30
0
0
VERTEX
8
0
10
144.614718389454
20
100.828444231142
30
0
0
VERTEX
8
0
10
145.404962752238
20
100.757199924655
30
0
0
VERTEX
8
0
10
146.195207115022
20
100.685478482766
30
0
0
VERTEX
8
0
10
146.985451477805
20
100.613357969486
30
0
0
VERTEX
8
0
10
147.775695840589
20
100.540920673994
30
0
0
VERTEX
8
0
10
148.565940203373
20
100.468253539672
30
0
0
VERTEX
8
0
10
149.356184566157
20
100.395448692455
30
0
0
VERTEX
8
0
10
150.146428928941
20
100.322604102681
30
0
0
VERTEX
8
0
10
150.936673291725
20
100.249824430852
30
0
0
VERTEX
8
0
10
151.726917654509
20
100.177222134418
30
0
0
VERTEX
8
0
10
152.517162017293
20
100.104918958283
30
0
0
VERTEX
8
0
10
153.307406380077
20
100.033048014035
30
0
0
VERTEX
8
0
10
154.097650742861
20
99.9617568097435
30
0
0
VERTEX
8
0
10
154.887895105645
20
99.8912119046371
30
0
0
SEQEND
8
0
0
POLYLINE
8
0
62
4
70
0
10
0
20
0
30
0
0
VERTEX
8
0
10
2.3707330883517
20
30.8094175538079
30
0
0
VERTEX
8
0
10
3.1609774511356
20
38.6032855964655
30
0
0
VERTEX
8
0
10
3.9512218139195
20
45.7818470169539
30
0
0
VERTEX
8
0
10
4.7414661767034
20
49.7086472397852
30
0
0
VERTEX
8
0
10
5.5317105394873
20
52.9551956528598
30
0
0
VERTEX
8
0
10
6.3219549022712
20
55.9873712671607
30
0
0
VERTEX
8
0
10
7.1121992650551
20
58.3153461662365
30
0
0
VERTEX
8
0
10
7.902443627839
20
60.8231479496816
30
0
0
VERTEX
8
0
10
8.6926879906229
20
63.3312531044574
30
0
0
VERTEX
8
0
10
9.4829323534068
20
65.8488007651115
30
0
0
VERTEX
8
0
10
10.2731767161907
20
68.6564557978198
30
0
0
VERTEX
8
0
10
11.0634210789746
20
71.4689811201338
30
0
0
VERTEX
8
0
10
11.8536654417585
20
74.2214782061515
30
0
0
VERTEX
8
0
10
12.6439098045424
20
77.5063431563275
30
0
0
VERTEX
8
0
10
13.4341541673263
20
80.1430256472364
30
0
0
VERTEX
8
0
10
14.2243985301102
20
82.721476387492
30
0
0
VERTEX
8
0
10
15.0146428928941
20
84.8529682295253
30
0
0
VERTEX
8
0
10
15.804887255678
20
86.5982212417168
30
0
0
VERTEX
8
0
10
16.5951316184619
20
88.165721713149
30
0
0
VERTEX
8
0
10
17.3853759812458
20
89.6876848669974
30
0
0
VERTEX
8
0
10
18.1756203440297
20
89.9920185519813
30
0
0
VERTEX
8
0
10
18.9658647068136
20
90.4820552702188
30
0
0
VERTEX
8
0
10
19.7561090695975
20
90.9485899217685
30
0
0
VERTEX
8
0
10
20.5463534323814
20
91.348653979504
30
0
0
VERTEX
8
0
10
21.3365977951653
20
91.7281356318847
30
0
0
VERTEX
8
0
10
22.1268421579492
20
92.1001654775118
30
0
0
VERTEX
8
0
10
22.9170865207331
20
92.623821481777
30
0
0
VERTEX
8
0
10
23.707330883517
20
93.265761668588
30
0
0
VERTEX
8
0
10
24.4975752463009
20
93.8999101816503
30
0
0
VERTEX
8
0
10
25.2878196090848
20
94.5245963535779
30
0
0
VERTEX
8
0
10
26.0780639718687
20
95.1602694993674
30
0
0
VERTEX
8
0
10
26.8683083346526
20
95.7764816661685
30
0
0
VERTEX
8
0
10
27.6585526974365
20
96.3882533282164
30
0
0
VERTEX
8
0
10
28.4487970602204
20
96.7747642551672
30
0
0
VERTEX
8
0
10
29.2390414230043
20
97.0981971049532
30
0
0
VERTEX
8
0
10
30.0292857857882
20
97.4196746579086
30
0
0
VERTEX
8
0
10
30.8195301485721
20
97.698170836406
30
0
0
VERTEX
8
0
10
31.609774511356
20
97.9337161275699
30
0
0
VERTEX
8
0
10
32.4000188741399
20
98.1651919017948
30
0
0
VERTEX
8
0
10
33.1902632369238
20
98.3893950590146
30
0
0
VERTEX
8
0
10
33.9805075997077
20
98.6323945965713
30
0
0
VERTEX
8
0
10
34.7707519624916
20
98.8178474119739
30
0
0
VERTEX
8
0
10
35.5609963252755
20
99.0067848050813
30
0
0
VERTEX
8
0
10
36.3512406880594
20
99.1885371024858
30
0
0
VERTEX
8
0
10
37.1414850508433
20
99.3546795934618
30
0
0
VERTEX
8
0
10
37.9317294136272
20
99.5117532440242
30
0
0
VERTEX
8
0
10
38.7219737764111
20
99.6647552748783
30
0
0
VERTEX
8
0
10
39.512218139195
20
99.7602181578687
30
0
0
VERTEX
8
0
10
40.3024625019789
20
99.8631387775281
30
0
0
VERTEX
8
0
10
41.0927068647628
20
99.9632125219941
30
0
0
VERTEX
8
0
10
41.8829512275467
20
100.016875746743
30
0
0
VERTEX
8
0
10
42.6731955903306
20
100.061260166869
30
0
0
VERTEX
8
0
10
43.4634399531145
20
100.105924220416
30
0
0
VERTEX
8
0
10
44.2536843158984
20
100.14804219947
30
0
0
VERTEX
8
0
10
45.0439286786823
20
100.180715835596
30
0
0
VERTEX
8
0
10
45.8341730414662
20
100.211413681558
30
0
0
VERTEX
8
0
10
46.6244174042501
20
100.242944362234
30
0
0
VERTEX
8
0
10
47.414661767034
20
100.293119048586
30
0
0
VERTEX
8
0
10
48.2049061298179
20
100.339784855307
30
0
0
VERTEX
8
0
10
48.9951504926018
20
100.386965990405
30
0
0
VERTEX
8
0
10
49.7853948553857
20
100.452576234787
30
0
0
VERTEX
8
0
10
50.5756392181696
20
100.526976965542
30
0
0
VERTEX
8
0
10
51.3658835809535
20
100.598909952485
30
0
0
VERTEX
8
0
10
52.1561279437374
20
100.659242575366
30
0
0
VERTEX
8
0
10
52.9463723065213
20
100.71964718454
30
0
0
VERTEX
8
0
10
53.7366166693052
20
100.780065852337
30
0
0
VERTEX
8
0
10
54.5268610320891
20
100.836360492464
30
0
0
VERTEX
8
0
10
55.3171053948729
20
100.901262050518
30
0
0
VERTEX
8
0
10
56.1073497576568
20
100.95841034337
30
0
0
VERTEX
8
0
10
56.8975941204407
20
101.010816500454
30
0
0
VERTEX
8
0
10
57.6878384832246
20
101.067802763364
30
0
0
VERTEX
8
0
10
58.4780828460085
20
101.122415452745
30
0
0
VERTEX
8
0
10
59.2683272087924
20
101.171710243405
30
0
0
VERTEX
8
0
10
60.0585715715763
20
101.226450558519
30
0
0
VERTEX
8
0
10
60.8488159343602
20
101.285901019245
30
0
0
VERTEX
8
0
10
61.6390602971441
20
101.340926321911
30
0
0
VERTEX
8
0
10
62.429304659928
20
101.391569192754
30
0
0
VERTEX
8
0
10
63.2195490227119
20
101.456694125464
30
0
0
VERTEX
8
0
10
64.0097933854958
20
101.506315205689
30
0
0
VERTEX
8
0
10
64.8000377482797
20
101.551398152014
30
0
0
VERTEX
8
0
10
65.5902821110636
20
101.603330114542
30
0
0
VERTEX
8
0
10
66.3805264738475
20
101.646012169596
30
0
0
VERTEX
8
0
10
67.1707708366314
20
101.685008511473
30
0
0
VERTEX
8
0
10
67.9610151994153
20
101.721915624604
30
0
0
VERTEX
8
0
10
68.7512595621992
20
101.750776078591
30
0
0
VERTEX
8
0
10
69.5415039249831
20
101.77661897558
30
0
0
VERTEX
8
0
10
70.331748287767
20
101.801408635444
30
0
0
VERTEX
8
0
10
71.1219926505509
20
101.841735670701
30
0
0
VERTEX
8
0
10
71.9122370133348
20
101.857085653665
30
0
0
VERTEX
8
0
10
72.7024813761187
20
101.879661074221
30
0
0
VERTEX
8
0
10
73.4927257389026
20
101.907616743753
30
0
0
VERTEX
8
0
10
74.2829701016865
20
101.94717262269
30
0
0
VERTEX
8
0
10
75.0732144644704
20
101.985531864652
30
0
0
VERTEX
8
0
10
75.8634588272543
20
102.030919612423
30
0
0
VERTEX
8
0
10
76.6537031900382
20
102.076514540533
30
0
0
VERTEX
8
0
10
77.4439475528221
20
102.121668754976
30
0
0
VERTEX
8
0
10
78.234191915606
20
102.166920903557
30
0
0
VERTEX
8
0
10
79.0244362783899
20
102.224684929232
30
0
0
VERTEX
8
0
10
79.8146806411738
20
102.264959257561
30
0
0
VERTEX
8
0
10
80.6049250039577
20
102.309514236899
30
0
0
VERTEX
8
0
10
81.3951693667416
20
102.363075174102
30
0
0
VERTEX
8
0
10
82.1854137295255
20
102.398995514324
30
0
0
VERTEX
8
0
10
82.9756580923094
20
102.436446949154
30
0
0
VERTEX
8
0
10
83.7659024550933
20
102.477475891152
30
0
0
VERTEX
8
0
10
84.5561468178772
20
102.508541109372
30
0
0
VERTEX
8
0
10
85.3463911806611
20
102.53608834967
30
0
0
VERTEX
8
0
10
86.136635543445
20
102.562940748644
30
0
0
VERTEX
8
0
10
86.9268799062288
20
102.592934594614
30
0
0
VERTEX
8
0
10
87.7171242690127
20
102.614842029513
30
0
0
VERTEX
8
0
10
88.5073686317966
20
102.637921841838
30
0
0
VERTEX
8
0
10
89.2976129945805
20
102.665888930841
30
0
0
VERTEX
8
0
10
90.0878573573644
20
102.696461305556
30
0
0
VERTEX
8
0
10
90.8781017201483
20
102.725776970522
30
0
0
VERTEX
8
0
10
91.6683460829322
20
102.755135252244
30
0
0
VERTEX
8
0
10
92.4585904457161
20
102.777230184711
30
0
0
VERTEX
8
0
10
93.2488348085
20
102.796404975069
30
0
0
VERTEX
8
0
10
94.0390791712839
20
102.814609039161
30
0
0
VERTEX
8
0
10
94.8293235340678
20
102.84082666085
30
0
0
VERTEX
8
0
10
95.6195678968517
20
102.844772110897
30
0
0
VERTEX
8
0
10
96.4098122596356
20
102.853352783248
30
0
0
VERTEX
8
0
10
97.2000566224195
20
102.863487657892
30
0
0
VERTEX
8
0
10
97.9903009852034
20
102.861670837374
30
0
0
VERTEX
8
0
10
98.7805453479873
20
102.859658975762
30
0
0
VERTEX
8
0
10
99.5707897107712
20
102.861696982621
30
0
0
VERTEX
8
0
10
100.361034073555
20
102.851093289587
30
0
0
VERTEX
8
0
10
101.151278436339
20
102.834753472771
30
0
0
VERTEX
8
0
10
101.941522799123
20
102.817233017399
30
0
0
VERTEX
8
0
10
102.731767161907
20
102.801915736853
30
0
0
VERTEX
8
0
10
103.522011524691
20
102.786088427183
30
0
0
VERTEX
8
0
10
104.312255887475
20
102.768594510159
30
0
0
VERTEX
8
0
10
105.102500250258
20
102.752371769342
30
0
0
VERTEX
8
0
10
105.892744613042
20
102.741906369103
30
0
0
VERTEX
8
0
10
106.682988975826
20
102.729695324482
30
0
0
VERTEX
8
0
10
107.47323333861
20
102.716224771607
30
0
0
VERTEX
8
0
10
108.263477701394
20
102.706237434041
30
0
0
VERTEX
8
0
10
109.053722064178
20
102.696692897488
30
0
0
VERTEX
8
0
10
109.843966426962
20
102.685880725036
30
0
0
VERTEX
8
0
10
110.634210789746
20
102.678610701747
30
0
0
VERTEX
8
0
10
111.42445515253
20
102.65098629027
30
0
0
VERTEX
8
0
10
112.214699515314
20
102.627191915442
30
0
0
VERTEX
8
0
10
113.004943878097
20
102.603321800285
30
0
0
VERTEX
8
0
10
113.795188240881
20
102.578242440323
30
0
0
VERTEX
8
0
10
114.585432603665
20
102.551918072607
30
0
0
VERTEX
8
0
10
115.375676966449
20
102.526607938557
30
0
0
VERTEX
8
0
10
116.165921329233
20
102.49912406009
30
0
0
VERTEX
8
0
10
116.956165692017
20
102.469495436934
30
0
0
VERTEX
8
0
10
117.746410054801
20
102.43863956033
30
0
0
VERTEX
8
0
10
118.536654417585
20
102.409609869222
30
0
0
VERTEX
8
0
10
119.326898780369
20
102.374348141745
30
0
0
VERTEX
8
0
10
120.117143143153
20
102.339069841803
30
0
0
VERTEX
8
0
10
120.907387505936
20
102.305929842689
30
0
0
VERTEX
8
0
10
121.69763186872
20
102.266394193468
30
0
0
VERTEX
8
0
10
122.487876231504
20
102.225880422644
30
0
0
VERTEX
8
0
10
123.278120594288
20
102.183518605723
30
0
0
VERTEX
8
0
10
124.068364957072
20
102.134551891781
30
0
0
VERTEX
8
0
10
124.858609319856
20
102.082304064707
30
0
0
VERTEX
8
0
10
125.64885368264
20
102.02900780759
30
0
0
VERTEX
8
0
10
126.439098045424
20
101.979038465577
30
0
0
VERTEX
8
0
10
127.229342408208
20
101.934016992356
30
0
0
VERTEX
8
0
10
128.019586770992
20
101.886133340201
30
0
0
VERTEX
8
0
10
128.809831133775
20
101.835109269873
30
0
0
VERTEX
8
0
10
129.600075496559
20
101.781888674987
30
0
0
VERTEX
8
0
10
130.390319859343
20
101.727707210795
30
0
0
VERTEX
8
0
10
131.180564222127
20
101.674551959506
30
0
0
VERTEX
8
0
10
131.970808584911
20
101.619155023354
30
0
0
VERTEX
8
0
10
132.761052947695
20
101.561544632955
30
0
0
VERTEX
8
0
10
133.551297310479
20
101.503051923997
30
0
0
VERTEX
8
0
10
134.341541673263
20
101.44926244655
30
0
0
VERTEX
8
0
10
135.131786036047
20
101.392202434226
30
0
0
VERTEX
8
0
10
135.922030398831
20
101.334647116533
30
0
0
VERTEX
8
0
10
136.712274761615
20
101.277295209187
30
0
0
VERTEX
8
0
10
137.502519124398
20
101.222177858347
30
0
0
VERTEX
8
0
10
138.292763487182
20
101.166304936417
30
0
0
VERTEX
8
0
10
139.083007849966
20
101.107197532219
30
0
0
VERTEX
8
0
10
139.87325221275
20
101.049260361902
30
0
0
VERTEX
8
0
10
140.663496575534
20
100.992632641945
30
0
0
VERTEX
8
0
10
141.453740938318
20
100.935332571139
30
0
0
VERTEX
8
0
10
142.243985301102
20
100.88540096313
30
0
0
VERTEX
8
0
10
143.034229663886
20
100.854702306186
30
0
0
VERTEX
8
0
10
143.82447402667
20
100.818218353406
30
0
0
VERTEX
8
0
10
144.614718389454
20
100.776303710252
30
0
0
VERTEX
8
0
10
145.404962752238
20
100.746190902393
30
0
0
VERTEX
8
0
10
146.195207115022
20
100.715872782875
30
0
0
VERTEX
8
0
10
146.985451477805
20
100.688538759
30
0
0
VERTEX
8
0
10
147.775695840589
20
100.663625279807
30
0
0
VERTEX
8
0
10
148.565940203373
20
100.638229718835
30
0
0
VERTEX
8
0
10
149.356184566157
20
100.61239009462
30
0
0
VERTEX
8
0
10
150.146428928941
20
100.584865243208
30
0
0
VERTEX
8
0
10
150.936673291725
20
100.557197647361
30
0
0
VERTEX
8
0
10
151.726917654509
20
100.52920974996
30
0
0
VERTEX
8
0
10
152.517162017293
20
100.50458933298
30
0
0
VERTEX
8
0
10
153.307406380077
20
100.480285079427
30
0
0
VERTEX
8
0
10
154.097650742861
20
100.455765944485
30
0
0
VERTEX
8
0
10
154.887895105645
20
100.461428111397
30
0
0
SEQEND
8
0
0
POLYLINE
8
0
62
2
70
0
10
0
20
0
30
0
0
VERTEX
8
0
10
2.3707330883517
20
21.2666678109988
30
0
0
VERTEX
8
0
10
3.1609774511356
20
28.8213498535393
30
0
0
VERTEX
8
0
10
3.9512218139195
20
30.1922590194676
30
0
0
VERTEX
8
0
10
4.7414661767034
20
35.3545808085455
30
0
0
VERTEX
8
0
10
5.5317105394873
20
40.0660045854324
30
0
0
VERTEX
8
0
10
6.3219549022712
20
42.5202441550108
30
0
0
VERTEX
8
0
10
7.1121992650551
20
46.104110011403
30
0
0
VERTEX
8
0
10
7.902443627839
20
49.5083656569402
30
0
0
VERTEX
8
0
10
8.6926879906229
20
51.8154911394745
30
0
0
VERTEX
8
0
10
9.4829323534068
20
54.5474290110358
30
0
0
VERTEX
8
0
10
10.2731767161907
20
57.1668264111514
30
0
0
VERTEX
8
0
10
11.0634210789746
20
59.1707167141578
30
0
0
VERTEX
8
0
10
11.8536654417585
20
61.3735944188532
30
0
0
VERTEX
8
0
10
12.6439098045424
20
63.5335606533774
30
0
0
VERTEX
8
0
10
13.4341541673263
20
65.3935181748414
30
0
0
VERTEX
8
0
10
14.2243985301102
20
67.5583334511449
30
0
0
VERTEX
8
0
10
15.0146428928941
20
70.0117880809833
30
0
0
VERTEX
8
0
10
15.804887255678
20
71.4175922875579
30
0
0
VERTEX
8
0
10
16.5951316184619
20
72.4827280200068
30
0
0
VERTEX
8
0
10
17.3853759812458
20
73.2720726141798
30
0
0
VERTEX
8
0
10
18.1756203440297
20
73.7415033910369
30
0
0
VERTEX
8
0
10
18.9658647068136
20
74.0883964516626
30
0
0
VERTEX
8
0
10
19.7561090695975
20
74.2993840568162
30
0
0
VERTEX
8
0
10
20.5463534323814
20
74.3261875934827
30
0
0
VERTEX
8
0
10
21.3365977951653
20
74.282315318096
30
0
0
VERTEX
8
0
10
22.1268421579492
20
74.1595955974415
30
0
0
VERTEX
8
0
10
22.9170865207331
20
73.9244870958138
30
0
0
VERTEX
8
0
10
23.707330883517
20
73.6484829278324
30
0
0
VERTEX
8
0
10
24.4975752463009
20
73.329020181826
30
0
0
VERTEX
8
0
10
25.2878196090848
20
72.9437121459672
30
0
0
VERTEX
8
0
10
26.0780639718687
20
72.5397477750823
30
0
0
VERTEX
8
0
10
26.8683083346526
20
72.1185131579917
30
0
0
VERTEX
8
0
10
27.6585526974365
20
71.6660176085611
30
0
0
VERTEX
8
0
10
28.4487970602204
20
71.2164785693956
30
0
0
VERTEX
8
0
10
29.2390414230043
20
70.7799287956576
30
0
0
VERTEX
8
0
10
30.0292857857882
20
70.347503825936
30
0
0
VERTEX
8
0
10
30.8195301485721
20
69.9241080142177
30
0
0
VERTEX
8
0
10
31.609774511356
20
69.5038378537766
30
0
0
VERTEX
8
0
10
32.4000188741399
20
69.0736970334993
30
0
0
VERTEX
8
0
10
33.1902632369238
20
68.6444623649951
30
0
0
VERTEX
8
0
10
33.9805075997077
20
68.2168080159008
30
0
0
VERTEX
8
0
10
34.7707519624916
20
67.7833519879389
30
0
0
VERTEX
8
0
10
35.5609963252755
20
67.3523551706688
30
0
0
VERTEX
8
0
10
36.3512406880594
20
66.9261064868244
30
0
0
VERTEX
8
0
10
37.1414850508433
20
66.4999252722023
30
0
0
VERTEX
8
0
10
37.9317294136272
20
66.0795985220207
30
0
0
VERTEX
8
0
10
38.7219737764111
20
65.6679373822271
30
0
0
VERTEX
8
0
10
39.512218139195
20
65.2617911703083
30
0
0
VERTEX
8
0
10
40.3024625019789
20
64.8648785429315
30
0
0
VERTEX
8
0
10
41.0927068647628
20
64.4799986279459
30
0
0
VERTEX
8
0
10
41.8829512275467
20
64.1048277071715
30
0
0
VERTEX
8
0
10
42.6731955903306
20
63.7413497509768
30
0
0
VERTEX
8
0
10
43.4634399531145
20
63.3920295407265
30
0
0
VERTEX
8
0
10
44.2536843158984
20
63.0549036992611
30
0
0
VERTEX
8
0
10
45.0439286786823
20
62.7304696919148
30
0
0
VERTEX
8
0
10
45.8341730414662
20
62.4206551367469
30
0
0
VERTEX
8
0
10
46.6244174042501
20
62.1235471415632
30
0
0
VERTEX
8
0
10
47.414661767034
20
61.8383587124391
30
0
0
VERTEX
8
0
10
48.2049061298179
20
61.5663644463008
30
0
0
VERTEX
8
0
10
48.9951504926018
20
61.3055123249627
30
0
0
VERTEX
8
0
10
49.7853948553857
20
61.0539251700206
30
0
0
VERTEX
8
0
10
50.5756392181696
20
60.812181373571
30
0
0
VERTEX
8
0
10
51.3658835809535
20
60.577998434383
30
0
0
VERTEX
8
0
10
52.1561279437374
20
60.3486212002159
30
0
0
VERTEX
8
0
10
52.9463723065213
20
60.1239521876122
30
0
0
VERTEX
8
0
10
53.7366166693052
20
59.9014686032708
30
0
0
VERTEX
8
0
10
54.5268610320891
20
59.6777804975198
30
0
0
VERTEX
8
0
10
55.3171053948729
20
59.4521921331587
30
0
0
VERTEX
8
0
10
56.1073497576568
20
59.2220009714124
30
0
0
VERTEX
8
0
10
56.8975941204407
20
58.9834638649897
30
0
0
VERTEX
8
0
10
57.6878384832246
20
58.73542441741
30
0
0
VERTEX
8
0
10
58.4780828460085
20
58.4751344032536
30
0
0
VERTEX
8
0
10
59.2683272087924
20
58.1988354073635
30
0
0
VERTEX
8
0
10
60.0585715715763
20
57.9051383357821
30
0
0
VERTEX
8
0
10
60.8488159343602
20
57.5915025941934
30
0
0
VERTEX
8
0
10
61.6390602971441
20
57.254625917893
30
0
0
VERTEX
8
0
10
62.429304659928
20
56.8933493192608
30
0
0
VERTEX
8
0
10
63.2195490227119
20
56.505987931285
30
0
0
VERTEX
8
0
10
64.0097933854958
20
56.0909445450263
30
0
0
VERTEX
8
0
10
64.8000377482797
20
55.6500028501656
30
0
0
VERTEX
8
0
10
65.5902821110636
20
55.182002184459
30
0
0
VERTEX
8
0
10
66.3805264738475
20
54.6613403112535
30
0
0
VERTEX
8
0
10
67.1707708366314
20
54.0976826466278
30
0
0
VERTEX
8
0
10
67.9610151994153
20
53.5070624059565
30
0
0
VERTEX
8
0
10
68.7512595621992
20
52.9012152475164
30
0
0
VERTEX
8
0
10
69.5415039249831
20
52.2920817097742
30
0
0
VERTEX
8
0
10
70.331748287767
20
51.6939943438879
30
0
0
VERTEX
8
0
10
71.1219926505509
20
51.1280196051988
30
0
0
VERTEX
8
0
10
71.9122370133348
20
50.6138582044466
30
0
0
VERTEX
8
0
10
72.7024813761187
20
50.142299324301
30
0
0
VERTEX
8
0
10
73.4927257389026
20
49.7011681451705
30
0
0
VERTEX
8
0
10
74.2829701016865
20
49.2839222422852
30
0
0
VERTEX
8
0
10
75.0732144644704
20
48.8865043057315
30
0
0
VERTEX
8
0
10
75.8634588272543
20
48.5060978453974
30
0
0
VERTEX
8
0
10
76.6537031900382
20
48.1406121325002
30
0
0
VERTEX
8
0
10
77.4439475528221
20
47.7884242041067
30
0
0
VERTEX
8
0
10
78.234191915606
20
47.4482328299956
30
0
0
VERTEX
8
0
10
79.0244362783899
20
47.1189687309353
30
0
0
VERTEX
8
0
10
79.8146806411738
20
46.7997359622099
30
0
0
VERTEX
8
0
10
80.6049250039577
20
46.4897718446631
30
0
0
VERTEX
8
0
10
81.3951693667416
20
46.1884185577205
30
0
0
VERTEX
8
0
10
82.1854137295255
20
45.8951023927838
30
0
0
VERTEX
8
0
10
82.9756580923094
20
45.6093182215042
30
0
0
VERTEX
8
0
10
83.7659024550933
20
45.330617621558
30
0
0
VERTEX
8
0
10
84.5561468178772
20
45.0585996333597
30
0
0
VERTEX
8
0
10
85.3463911806611
20
44.7929034509247
30
0
0
VERTEX
8
0
10
86.136635543445
20
44.5332025618399
30
0
0
VERTEX
8
0
10
86.9268799062288
20
44.2791999911892
30
0
0
VERTEX
8
0
10
87.7171242690127
20
44.0306243990165
30
0
0
VERTEX
8
0
10
88.5073686317966
20
43.7872268465005
30
0
0
VERTEX
8
0
10
89.2976129945805
20
43.5487780922997
30
0
0
VERTEX
8
0
10
90.0878573573644
20
43.3150663137834
30
0
0
VERTEX
8
0
10
90.8781017201483
20
43.0858951721242
30
0
0
VERTEX
8
0
10
91.6683460829322
20
42.8610821581793
30
0
0
VERTEX
8
0
10
92.4585904457161
20
42.6404571695538
30
0
0
VERTEX
8
0
10
93.2488348085
20
42.4238612794484
30
0
0
VERTEX
8
0
10
94.0390791712839
20
42.2111456657282
30
0
0
VERTEX
8
0
10
94.8293235340678
20
42.0021706747164
30
0
0
VERTEX
8
0
10
95.6195678968517
20
41.7968049989618
30
0
0
VERTEX
8
0
10
96.4098122596356
20
41.5949249519715
30
0
0
VERTEX
8
0
10
97.2000566224195
20
41.3964138258742
30
0
0
VERTEX
8
0
10
97.9903009852034
20
41.2011613203626
30
0
0
VERTEX
8
0
10
98.7805453479873
20
41.0090630331887
30
0
0
VERTEX
8
0
10
99.5707897107712
20
40.8200200040416
30
0
0
VERTEX
8
0
10
100.361034073555
20
40.6339383049174
30
0
0
VERTEX
8
0
10
101.151278436339
20
40.4507286711362
30
0
0
VERTEX
8
0
10
101.941522799123
20
40.2703061680287
30
0
0
VERTEX
8
0
10
102.731767161907
20
40.0925898890316
30
0
0
VERTEX
8
0
10
103.522011524691
20
39.917502681537
30
0
0
VERTEX
8
0
10
104.312255887475
20
39.7449708973355
30
0
0
VERTEX
8
0
10
105.102500250258
20
39.5749241649275
30
0
0
VERTEX
8
0
10
105.892744613042
20
39.4072951813274
30
0
0
VERTEX
8
0
10
106.682988975826
20
39.2420195212938
30
0
0
VERTEX
8
0
10
107.47323333861
20
39.0790354621794
30
0
0
VERTEX
8
0
10
108.263477701394
20
38.9182838228139
30
0
0
VERTEX
8
0
10
109.053722064178
20
38.7597078150261
30
0
0
VERTEX
8
0
10
109.843966426962
20
38.603252906576
30
0
0
VERTEX
8
0
10
110.634210789746
20
38.4488666944075
30
0
0
VERTEX
8
0
10
111.42445515253
20
38.2964987872585
30
0
0
VERTEX
8
0
10
112.214699515314
20
38.1461006967709
30
0
0
VERTEX
8
0
10
113.004943878097
20
37.9976257363358
30
0
0
VERTEX
8
0
10
113.795188240881
20
37.8510289269918
30
0
0
VERTEX
8
0
10
114.585432603665
20
37.7062669097668
30
0
0
VERTEX
8
0
10
115.375676966449
20
37.5632978639145
30
0
0
VERTEX
8
0
10
116.165921329233
20
37.4220814305534
30
0
0
VERTEX
8
0
10
116.956165692017
20
37.2825786412655
30
0
0
VERTEX
8
0
10
117.746410054801
20
37.1447518512555
30
0
0
VERTEX
8
0
10
118.536654417585
20
37.0085646767067
30
0
0
VERTEX
8
0
10
119.326898780369
20
36.8739819360089
30
0
0
VERTEX
8
0
10
120.117143143153
20
36.74096959456
30
0
0
VERTEX
8
0
10
120.907387505936
20
36.6094947128718
30
0
0
VERTEX
8
0
10
121.69763186872
20
36.4795253977348
30
0
0
VERTEX
8
0
10
122.487876231504
20
36.351030756218
30
0
0
VERTEX
8
0
10
123.278120594288
20
36.2239808523003
30
0
0
VERTEX
8
0
10
124.068364957072
20
36.098346665946
30
0
0
VERTEX
8
0
10
124.858609319856
20
35.9741000544535
30
0
0
VERTEX
8
0
10
125.64885368264
20
35.8512137159225
30
0
0
VERTEX
8
0
10
126.439098045424
20
35.7296611546927
30
0
0
VERTEX
8
0
10
127.229342408208
20
35.6094166486261
30
0
0
VERTEX
8
0
10
128.019586770992
20
35.4904552181072
30
0
0
VERTEX
8
0
10
128.809831133775
20
35.3727525966525
30
0
0
VERTEX
8
0
10
129.600075496559
20
35.2562852030242
30
0
0
VERTEX
8
0
10
130.390319859343
20
35.1410301147534
30
0
0
VERTEX
8
0
10
131.180564222127
20
35.0269650429845
30
0
0
VERTEX
8
0
10
131.970808584911
20
34.9140683085603
30
0
0
VERTEX
8
0
10
132.761052947695
20
34.8023188192701
30
0
0
VERTEX
8
0
10
133.551297310479
20
34.6916960481931
30
0
0
VERTEX
8
0
10
134.341541673263
20
34.5821800130701
30
0
0
VERTEX
8
0
10
135.131786036047
20
34.4737512566454
30
0
0
VERTEX
8
0
10
135.922030398831
20
34.3663908279203
30
0
0
VERTEX
8
0
10
136.712274761615
20
34.2600802642673
30
0
0
VERTEX
8
0
10
137.502519124398
20
34.1548015743563
30
0
0
VERTEX
8
0
10
138.292763487182
20
34.0505372218474
30
0
0
VERTEX
8
0
10
139.083007849966
20
33.9472701098058
30
0
0
VERTEX
8
0
10
139.87325221275
20
33.8449835658044
30
0
0
VERTEX
8
0
10
140.663496575534
20
33.7436613276703
30
0
0
VERTEX
8
0
10
141.453740938318
20
33.6432875298464
30
0
0
VERTEX
8
0
10
142.243985301102
20
33.5438466903315
30
0
0
VERTEX
8
0
10
143.034229663886
20
33.4453236981725
30
0
0
VERTEX
8
0
10
143.82447402667
20
33.3477038014761
30
0
0
VERTEX
8
0
10
144.614718389454
20
33.2509725959157
30
0
0
VERTEX
8
0
10
145.404962752238
20
33.1551160137096
30
0
0
VERTEX
8
0
10
146.195207115022
20
33.0601203130421
30
0
0
VERTEX
8
0
10
146.985451477805
20
32.9659720679123
30
0
0
VERTEX
8
0
10
147.775695840589
20
32.8726581583829
30
0
0
VERTEX
8
0
10
148.565940203373
20
32.7801657612139
30
0
0
VERTEX
8
0
10
149.356184566157
20
32.6884823408613
30
0
0
VERTEX
8
0
10
150.146428928941
20
32.5975956408229
30
0
0
VERTEX
8
0
10
150.936673291725
20
32.5074936753153
30
0
0
VERTEX
8
0
10
151.726917654509
20
32.4181647212668
30
0
0
VERTEX
8
0
10
152.517162017293
20
32.3295973106102
30
0
0
VERTEX
8
0
10
153.307406380077
20
32.2417802228646
30
0
0
VERTEX
8
0
10
154.097650742861
20
32.1547024779891
30
0
0
VERTEX
8
0
10
154.887895105645
20
32.0683533294996
30
0
0
SEQEND
8
0
0
POLYLINE
8
0
62
3
70
0
10
0
20
0
30
0
0
VERTEX
8
0
10
2.3707330883517
20
23.2311672466772
30
0
0
VERTEX
8
0
10
3.1609774511356
20
31.3110271266619
30
0
0
VERTEX
8
0
10
3.9512218139195
20
33.7318245704692
30
0
0
VERTEX
8
0
10
4.7414661767034
20
39.5447079642098
30
0
0
VERTEX
8
0
10
5.5317105394873
20
44.9107897097597
30
0
0
VERTEX
8
0
10
6.3219549022712
20
48.2461868720444
30
0
0
VERTEX
8
0
10
7.1121992650551
20
52.5319153527749
30
0
0
VERTEX
8
0
10
7.902443627839
20
56.6197931976023
30
0
0
VERTEX
8
0
10
8.6926879906229
20
59.7264083884245
30
0
0
VERTEX
8
0
10
9.4829323534068
20
63.152110601522
30
0
0
VERTEX
8
0
10
10.2731767161907
20
66.4430958549277
30
0
0
VERTEX
8
0
10
11.0634210789746
20
69.1824158090819
30
0
0
VERTEX
8
0
10
11.8536654417585
20
72.043481795126
30
0
0
VERTEX
8
0
10
12.6439098045424
20
74.8328610621524
30
0
0
VERTEX
8
0
10
13.4341541673263
20
77.3458835473204
30
0
0
VERTEX
8
0
10
14.2243985301102
20
80.0699006285766
30
0
0
VERTEX
8
0
10
15.0146428928941
20
82.9980755776129
30
0
0
VERTEX
8
0
10
15.804887255678
20
84.99721243237
30
0
0
VERTEX
8
0
10
16.5951316184619
20
86.6465529303098
30
0
0
VERTEX
8
0
10
17.3853759812458
20
88.0184232985829
30
0
0
VERTEX
8
0
10
18.1756203440297
20
89.0910073735215
30
0
0
VERTEX
8
0
10
18.9658647068136
20
90.0140626967242
30
0
0
VERTEX
8
0
10
19.7561090695975
20
90.7901452971021
30
0
0
VERTEX
8
0
10
20.5463534323814
20
91.3914051303045
30
0
0
VERTEX
8
0
10
21.3365977951653
20
91.8976685443944
30
0
0
VERTEX
8
0
10
22.1268421579492
20
92.3134743936837
30
0
0
VERTEX
8
0
10
22.9170865207331
20
92.6214585631421
30
0
0
VERTEX
8
0
10
23.707330883517
20
92.867468577353
30
0
0
VERTEX
8
0
10
24.4975752463009
20
93.0588132743908
30
0
0
VERTEX
8
0
10
25.2878196090848
20
93.1858660032203
30
0
0
VERTEX
8
0
10
26.0780639718687
20
93.2754577830309
30
0
0
VERTEX
8
0
10
26.8683083346526
20
93.3365475609344
30
0
0
VERTEX
8
0
10
27.6585526974365
20
93.3650817949881
30
0
0
VERTEX
8
0
10
28.4487970602204
20
93.3780670383972
30
0
0
VERTEX
8
0
10
29.2390414230043
20
93.3897565358809
30
0
0
VERTEX
8
0
10
30.0292857857882
20
93.3988176890303
30
0
0
VERTEX
8
0
10
30.8195301485721
20
93.3997238186034
30
0
0
VERTEX
8
0
10
31.609774511356
20
93.393347043872
30
0
0
VERTEX
8
0
10
32.4000188741399
20
93.3746686117668
30
0
0
VERTEX
8
0
10
33.1902632369238
20
93.3435868198857
30
0
0
VERTEX
8
0
10
33.9805075997077
20
93.3054908068397
30
0
0
VERTEX
8
0
10
34.7707519624916
20
93.2592348869008
30
0
0
VERTEX
8
0
10
35.5609963252755
20
93.2035707895301
30
0
0
VERTEX
8
0
10
36.3512406880594
20
93.144557477479
30
0
0
VERTEX
8
0
10
37.1414850508433
20
93.0826533116918
30
0
0
VERTEX
8
0
10
37.9317294136272
20
93.0153812096663
30
0
0
VERTEX
8
0
10
38.7219737764111
20
92.9486675400883
30
0
0
VERTEX
8
0
10
39.512218139195
20
92.8836988856321
30
0
0
VERTEX
8
0
10
40.3024625019789
20
92.8169852365944
30
0
0
VERTEX
8
0
10
41.0927068647628
20
92.7539746745338
30
0
0
VERTEX
8
0
10
41.8829512275467
20
92.696089354217
30
0
0
VERTEX
8
0
10
42.6731955903306
20
92.6390123123032
30
0
0
VERTEX
8
0
10
43.4634399531145
20
92.5875409604316
30
0
0
VERTEX
8
0
10
44.2536843158984
20
92.5430297952834
30
0
0
VERTEX
8
0
10
45.0439286786823
20
92.5004843940181
30
0
0
VERTEX
8
0
10
45.8341730414662
20
92.4639699222394
30
0
0
VERTEX
8
0
10
46.6244174042501
20
92.4345873417676
30
0
0
VERTEX
8
0
10
47.414661767034
20
92.4068068971808
30
0
0
VERTEX
8
0
10
48.2049061298179
20
92.3839368146349
30
0
0
VERTEX
8
0
10
48.9951504926018
20
92.3667203194975
30
0
0
VERTEX
8
0
10
49.7853948553857
20
92.3492524334512
30
0
0
VERTEX
8
0
10
50.5756392181696
20
92.3341000831494
30
0
0
VERTEX
8
0
10
51.3658835809535
20
92.3216059640967
30
0
0
VERTEX
8
0
10
52.1561279437374
20
92.3056830765557
30
0
0
VERTEX
8
0
10
52.9463723065213
20
92.2882050035131
30
0
0
VERTEX
8
0
10
53.7366166693052
20
92.2691213725686
30
0
0
VERTEX
8
0
10
54.5268610320891
20
92.2423956623332
30
0
0
VERTEX
8
0
10
55.3171053948729
20
92.2092872719727
30
0
0
VERTEX
8
0
10
56.1073497576568
20
92.1694078968859
30
0
0
VERTEX
8
0
10
56.8975941204407
20
92.1170452834433
30
0
0
VERTEX
8
0
10
57.6878384832246
20
92.0529633933811
30
0
0
VERTEX
8
0
10
58.4780828460085
20
91.9765486979934
30
0
0
VERTEX
8
0
10
59.2683272087924
20
91.8827348286546
30
0
0
VERTEX
8
0
10
60.0585715715763
20
91.7719759426391
30
0
0
VERTEX
8
0
10
60.8488159343602
20
91.6436406977852
30
0
0
VERTEX
8
0
10
61.6390602971441
20
91.493716194215
30
0
0
VERTEX
8
0
10
62.429304659928
20
91.3226943855288
30
0
0
VERTEX
8
0
10
63.2195490227119
20
91.1304017226239
30
0
0
VERTEX
8
0
10
64.0097933854958
20
90.9147439508199
30
0
0
VERTEX
8
0
10
64.8000377482797
20
90.677977817705
30
0
0
VERTEX
8
0
10
65.5902821110636
20
90.4201345846239
30
0
0
VERTEX
8
0
10
66.3805264738475
20
90.1250662050628
30
0
0
VERTEX
8
0
10
67.1707708366314
20
89.8001998093441
30
0
0
VERTEX
8
0
10
67.9610151994153
20
89.4566278433334
30
0
0
VERTEX
8
0
10
68.7512595621992
20
89.1022706133712
30
0
0
VERTEX
8
0
10
69.5415039249831
20
88.745526051092
30
0
0
VERTEX
8
0
10
70.331748287767
20
88.3958450890526
30
0
0
VERTEX
8
0
10
71.1219926505509
20
88.0663399657759
30
0
0
VERTEX
8
0
10
71.9122370133348
20
87.768850853565
30
0
0
VERTEX
8
0
10
72.7024813761187
20
87.497764401435
30
0
0
VERTEX
8
0
10
73.4927257389026
20
87.2457145641589
30
0
0
VERTEX
8
0
10
74.2829701016865
20
87.0086983377071
30
0
0
VERTEX
8
0
10
75.0732144644704
20
86.7842088059417
30
0
0
VERTEX
8
0
10
75.8634588272543
20
86.5704922189209
30
0
0
VERTEX
8
0
10
76.6537031900382
20
86.3662383766412
30
0
0
VERTEX
8
0
10
77.4439475528221
20
86.1704246406542
30
0
0
VERTEX
8
0
10
78.234191915606
20
85.9822271956738
30
0
0
VERTEX
8
0
10
79.0244362783899
20
85.8009662480899
30
0
0
VERTEX
8
0
10
79.8146806411738
20
85.6260701011763
30
0
0
VERTEX
8
0
10
80.6049250039577
20
85.4570505049629
30
0
0
VERTEX
8
0
10
81.3951693667416
20
85.2934851187485
30
0
0
VERTEX
8
0
10
82.1854137295255
20
85.135004660146
30
0
0
VERTEX
8
0
10
82.9756580923094
20
84.9812832538402
30
0
0
VERTEX
8
0
10
83.7659024550933
20
84.8320310306838
30
0
0
VERTEX
8
0
10
84.5561468178772
20
84.6869883497955
30
0
0
VERTEX
8
0
10
85.3463911806611
20
84.5459212168326
30
0
0
VERTEX
8
0
10
86.136635543445
20
84.4086176006504
30
0
0
VERTEX
8
0
10
86.9268799062288
20
84.2748844359856
30
0
0
VERTEX
8
0
10
87.7171242690127
20
84.1445451577597
30
0
0
VERTEX
8
0
10
88.5073686317966
20
84.0174376528222
30
0
0
VERTEX
8
0
10
89.2976129945805
20
83.8934125433656
30
0
0
VERTEX
8
0
10
90.0878573573644
20
83.7723317367162
30
0
0
VERTEX
8
0
10
90.8781017201483
20
83.6540671911549
30
0
0
VERTEX
8
0
10
91.6683460829322
20
83.5384998585035
30
0
0
VERTEX
8
0
10
92.4585904457161
20
83.4255187725407
30
0
0
VERTEX
8
0
10
93.2488348085
20
83.3150202586355
30
0
0
VERTEX
8
0
10
94.0390791712839
20
83.2069072448455
30
0
0
VERTEX
8
0
10
94.8293235340678
20
83.1010886584946
30
0
0
VERTEX
8
0
10
95.6195678968517
20
82.9974788952063
30
0
0
VERTEX
8
0
10
96.4098122596356
20
82.895997349686
30
0
0
VERTEX
8
0
10
97.2000566224195
20
82.7965679994164
30
0
0
VERTEX
8
0
10
97.9903009852034
20
82.6991190339143
30
0
0
VERTEX
8
0
10
98.7805453479873
20
82.6035825233933
30
0
0
VERTEX
8
0
10
99.5707897107712
20
82.5098941216708
30
0
0
VERTEX
8
0
10
100.361034073555
20
82.4179927989442
30
0
0
VERTEX
8
0
10
101.151278436339
20
82.3278206007231
30
0
0
VERTEX
8
0
10
101.941522799123
20
82.2393224297584
30
0
0
VERTEX
8
0
10
102.731767161907
20
82.1524458482464
30
0
0
VERTEX
8
0
10
103.522011524691
20
82.0671408979837
30
0
0
VERTEX
8
0
10
104.312255887475
20
81.983359936447
30
0
0
VERTEX
8
0
10
105.102500250258
20
81.9010574870602
30
0
0
VERTEX
8
0
10
105.892744613042
20
81.8201901021213
30
0
0
VERTEX
8
0
10
106.682988975826
20
81.7407162370662
30
0
0
VERTEX
8
0
10
107.47323333861
20
81.6625961349091
30
0
0
VERTEX
8
0
10
108.263477701394
20
81.5857917198336
30
0
0
VERTEX
8
0
10
109.053722064178
20
81.5102664990442
30
0
0
VERTEX
8
0
10
109.843966426962
20
81.4359854720753
30
0
0
VERTEX
8
0
10
110.634210789746
20
81.3629150468646
30
0
0
VERTEX
8
0
10
111.42445515253
20
81.2910229619573
30
0
0
VERTEX
8
0
10
112.214699515314
20
81.220278214293
30
0
0
VERTEX
8
0
10
113.004943878097
20
81.1506509920755
30
0
0
VERTEX
8
0
10
113.795188240881
20
81.0821126122831
30
0
0
VERTEX
8
0
10
114.585432603665
20
81.0146354624246
30
0
0
VERTEX
8
0
10
115.375676966449
20
80.948192946181
30
0
0
VERTEX
8
0
10
116.165921329233
20
80.882759432613
30
0
0
VERTEX
8
0
10
116.956165692017
20
80.8183102086473
30
0
0
VERTEX
8
0
10
117.746410054801
20
80.7548214345765
30
0
0
VERTEX
8
0
10
118.536654417585
20
80.6922701023399
30
0
0
VERTEX
8
0
10
119.326898780369
20
80.630633996367
30
0
0
VERTEX
8
0
10
120.117143143153
20
80.5698916567931
30
0
0
VERTEX
8
0
10
120.907387505936
20
80.5100223448657
30
0
0
VERTEX
8
0
10
121.69763186872
20
80.4510060103846
30
0
0
VERTEX
8
0
10
122.487876231504
20
80.3928232610255
30
0
0
VERTEX
8
0
10
123.278120594288
20
80.3354553334131
30
0
0
VERTEX
8
0
10
124.068364957072
20
80.2788840658228
30
0
0
VERTEX
8
0
10
124.858609319856
20
80.2230918723955
30
0
0
VERTEX
8
0
10
125.64885368264
20
80.168061718765
30
0
0
VERTEX
8
0
10
126.439098045424
20
80.1137770989993
30
0
0
VERTEX
8
0
10
127.229342408208
20
80.0602220137718
30
0
0
VERTEX
8
0
10
128.019586770992
20
80.0073809496814
30
0
0
VERTEX
8
0
10
128.809831133775
20
79.9552388596456
30
0
0
VERTEX
8
0
10
129.600075496559
20
79.9037811442985
30
0
0
VERTEX
8
0
10
130.390319859343
20
79.852993634334
30
0
0
VERTEX
8
0
10
131.180564222127
20
79.8028625737287
30
0
0
VERTEX
8
0
10
131.970808584911
20
79.7533746037984
30
0
0
VERTEX
8
0
10
132.761052947695
20
79.7045167480308
30
0
0
VERTEX
8
0
10
133.551297310479
20
79.6562763976524
30
0
0
VERTEX
8
0
10
134.341541673263
20
79.6086412978853
30
0
0
VERTEX
8
0
10
135.131786036047
20
79.5615995348513
30
0
0
VERTEX
8
0
10
135.922030398831
20
79.5151395230893
30
0
0
VERTEX
8
0
10
136.712274761615
20
79.4692499936487
30
0
0
VERTEX
8
0
10
137.502519124398
20
79.4239199827272
30
0
0
VERTEX
8
0
10
138.292763487182
20
79.3791388208224
30
0
0
VERTEX
8
0
10
139.083007849966
20
79.334896122369
30
0
0
VERTEX
8
0
10
139.87325221275
20
79.2911817758353
30
0
0
VERTEX
8
0
10
140.663496575534
20
79.2479859342527
30
0
0
VERTEX
8
0
10
141.453740938318
20
79.2052990061582
30
0
0
VERTEX
8
0
10
142.243985301102
20
79.1631116469245
30
0
0
VERTEX
8
0
10
143.034229663886
20
79.1214147504613
30
0
0
VERTEX
8
0
10
143.82447402667
20
79.0801994412633
30
0
0
VERTEX
8
0
10
144.614718389454
20
79.0394570667924
30
0
0
VERTEX
8
0
10
145.404962752238
20
78.9991791901758
30
0
0
VERTEX
8
0
10
146.195207115022
20
78.959357583201
30
0
0
VERTEX
8
0
10
146.985451477805
20
78.9199842195966
30
0
0
VERTEX
8
0
10
147.775695840589
20
78.8810512685833
30
0
0
VERTEX
8
0
10
148.565940203373
20
78.8425510886833
30
0
0
VERTEX
8
0
10
149.356184566157
20
78.8044762217717
30
0
0
VERTEX
8
0
10
150.146428928941
20
78.7668193873639
30
0
0
VERTEX
8
0
10
150.936673291725
20
78.7295734771226
30
0
0
VERTEX
8
0
10
151.726917654509
20
78.6927315495794
30
0
0
VERTEX
8
0
10
152.517162017293
20
78.6562868250542
30
0
0
VERTEX
8
0
10
153.307406380077
20
78.6202326807705
30
0
0
VERTEX
8
0
10
154.097650742861
20
78.5845626461521
30
0
0
VERTEX
8
0
10
154.887895105645
20
78.549270398296
30
0
0
SEQEND
8
0
0
POLYLINE
8
0
62
4
70
0
10
0
20
0
30
0
0
VERTEX
8
0
10
2.3707330883517
20
30.7775659142683
30
0
0
VERTEX
8
0
10
3.1609774511356
20
38.5453405254647
30
0
0
VERTEX
8
0
10
3.9512218139195
20
45.6947059645717
30
0
0
VERTEX
8
0
10
4.7414661767034
20
49.5825153358297
30
0
0
VERTEX
8
0
10
5.5317105394873
20
52.7882574648743
30
0
0
VERTEX
8
0
10
6.3219549022712
20
55.7768747781402
30
0
0
VERTEX
8
0
10
7.1121992650551
20
58.0615549262209
30
0
0
VERTEX
8
0
10
7.902443627839
20
60.5247952340623
30
0
0
VERTEX
8
0
10
8.6926879906229
20
62.9867142764095
30
0
0
VERTEX
8
0
10
9.4829323534068
20
65.4561029235266
30
0
0
VERTEX
8
0
10
10.2731767161907
20
68.2157548755852
30
0
0
VERTEX
8
0
10
11.0634210789746
20
70.9836391738628
30
0
0
VERTEX
8
0
10
11.8536654417585
20
73.689941190345
30
0
0
VERTEX
8
0
10
12.6439098045424
20
76.9316049248585
30
0
0
VERTEX
8
0
10
13.4341541673263
20
79.5209060960408
30
0
0
VERTEX
8
0
10
14.2243985301102
20
82.0512833628965
30
0
0
VERTEX
8
0
10
15.0146428928941
20
84.1299853407022
30
0
0
VERTEX
8
0
10
15.804887255678
20
85.8177899648827
30
0
0
VERTEX
8
0
10
16.5951316184619
20
87.3175393297777
30
0
0
VERTEX
8
0
10
17.3853759812458
20
88.7712917515767
30
0
0
VERTEX
8
0
10
18.1756203440297
20
88.9922013016734
30
0
0
VERTEX
8
0
10
18.9658647068136
20
89.3814915971401
30
0
0
VERTEX
8
0
10
19.7561090695975
20
89.7420902716032
30
0
0
VERTEX
8
0
10
20.5463534323814
20
90.0304735477116
30
0
0
VERTEX
8
0
10
21.3365977951653
20
90.2769699995415
30
0
0
VERTEX
8
0
10
22.1268421579492
20
90.4995228590752
30
0
0
VERTEX
8
0
10
22.9170865207331
20
90.8682264326359
30
0
0
VERTEX
8
0
10
23.707330883517
20
91.3498879063152
30
0
0
VERTEX
8
0
10
24.4975752463009
20
91.8081511313065
30
0
0
VERTEX
8
0
10
25.2878196090848
20
92.2505528908705
30
0
0
VERTEX
8
0
10
26.0780639718687
20
92.6963462009145
30
0
0
VERTEX
8
0
10
26.8683083346526
20
93.1184308623501
30
0
0
VERTEX
8
0
10
27.6585526974365
20
93.5282279823466
30
0
0
VERTEX
8
0
10
28.4487970602204
20
93.6981988064687
30
0
0
VERTEX
8
0
10
29.2390414230043
20
93.8164355585075
30
0
0
VERTEX
8
0
10
30.0292857857882
20
93.9277121618559
30
0
0
VERTEX
8
0
10
30.8195301485721
20
93.9880337499592
30
0
0
VERTEX
8
0
10
31.609774511356
20
94.0044632290594
30
0
0
VERTEX
8
0
10
32.4000188741399
20
94.0156234650232
30
0
0
VERTEX
8
0
10
33.1902632369238
20
94.0134194171923
30
0
0
VERTEX
8
0
10
33.9805075997077
20
94.0251781640337
30
0
0
VERTEX
8
0
10
34.7707519624916
20
94.0292208585919
30
0
0
VERTEX
8
0
10
35.5609963252755
20
94.021571166272
30
0
0
VERTEX
8
0
10
36.3512406880594
20
94.0027341793546
30
0
0
VERTEX
8
0
10
37.1414850508433
20
93.9796897639334
30
0
0
VERTEX
8
0
10
37.9317294136272
20
93.9467375836002
30
0
0
VERTEX
8
0
10
38.7219737764111
20
93.9078573530489
30
0
0
VERTEX
8
0
10
39.512218139195
20
93.8113612130863
30
0
0
VERTEX
8
0
10
40.3024625019789
20
93.7250099606695
30
0
0
VERTEX
8
0
10
41.0927068647628
20
93.6341911375152
30
0
0
VERTEX
8
0
10
41.8829512275467
20
93.4923425971838
30
0
0
VERTEX
8
0
10
42.6731955903306
20
93.3505446008741
30
0
0
VERTEX
8
0
10
43.4634399531145
20
93.2055586325088
30
0
0
VERTEX
8
0
10
44.2536843158984
20
93.0565819565854
30
0
0
VERTEX
8
0
10
45.0439286786823
20
92.9012297827676
30
0
0
VERTEX
8
0
10
45.8341730414662
20
92.7432263674073
30
0
0
VERTEX
8
0
10
46.6244174042501
20
92.5850805117298
30
0
0
VERTEX
8
0
10
47.414661767034
20
92.4411448691279
30
0
0
VERTEX
8
0
10
48.2049061298179
20
92.2884000731056
30
0
0
VERTEX
8
0
10
48.9951504926018
20
92.1352237137679
30
0
0
VERTEX
8
0
10
49.7853948553857
20
92.0012297836135
30
0
0
VERTEX
8
0
10
50.5756392181696
20
91.8614557509753
30
0
0
VERTEX
8
0
10
51.3658835809535
20
91.7205709265106
30
0
0
VERTEX
8
0
10
52.1561279437374
20
91.5659964863259
30
0
0
VERTEX
8
0
10
52.9463723065213
20
91.4058765241225
30
0
0
VERTEX
8
0
10
53.7366166693052
20
91.2440909588825
30
0
0
VERTEX
8
0
10
54.5268610320891
20
91.0767553606398
30
0
0
VERTEX
8
0
10
55.3171053948729
20
90.9204884093498
30
0
0
VERTEX
8
0
10
56.1073497576568
20
90.7569525923383
30
0
0
VERTEX
8
0
10
56.8975941204407
20
90.5873743861994
30
0
0
VERTEX
8
0
10
57.6878384832246
20
90.4221801764601
30
0
0
VERTEX
8
0
10
58.4780828460085
20
90.2525027497629
30
0
0
VERTEX
8
0
10
59.2683272087924
20
90.0763818979242
30
0
0
VERTEX
8
0
10
60.0585715715763
20
89.9057477140011
30
0
0
VERTEX
8
0
10
60.8488159343602
20
89.7338561700632
30
0
0
VERTEX
8
0
10
61.6390602971441
20
89.5552933321538
30
0
0
VERTEX
8
0
10
62.429304659928
20
89.3711055660743
30
0
0
VERTEX
8
0
10
63.2195490227119
20
89.2070378388737
30
0
0
VERTEX
8
0
10
64.0097933854958
20
89.0289388317555
30
0
0
VERTEX
8
0
10
64.8000377482797
20
88.8452781012944
30
0
0
VERTEX
8
0
10
65.5902821110636
20
88.6691042549615
30
0
0
VERTEX
8
0
10
66.3805264738475
20
88.485844975947
30
0
0
VERTEX
8
0
10
67.1707708366314
20
88.2975454851029
30
0
0
VERTEX
8
0
10
67.9610151994153
20
88.1066213947737
30
0
0
VERTEX
8
0
10
68.7512595621992
20
87.9127357269976
30
0
0
VERTEX
8
0
10
69.5415039249831
20
87.7165770595997
30
0
0
VERTEX
8
0
10
70.331748287767
20
87.5191713026043
30
0
0
VERTEX
8
0
10
71.1219926505509
20
87.3398915602583
30
0
0
VERTEX
8
0
10
71.9122370133348
20
87.1558199535652
30
0
0
VERTEX
8
0
10
72.7024813761187
20
86.9725441657556
30
0
0
VERTEX
8
0
10
73.4927257389026
20
86.7959697355185
30
0
0
VERTEX
8
0
10
74.2829701016865
20
86.6197971455403
30
0
0
VERTEX
8
0
10
75.0732144644704
20
86.4444013037337
30
0
0
VERTEX
8
0
10
75.8634588272543
20
86.2777009304137
30
0
0
VERTEX
8
0
10
76.6537031900382
20
86.1146803782939
30
0
0
VERTEX
8
0
10
77.4439475528221
20
85.9523545986843
30
0
0
VERTEX
8
0
10
78.234191915606
20
85.7907275353499
30
0
0
VERTEX
8
0
10
79.0244362783899
20
85.6446498392662
30
0
0
VERTEX
8
0
10
79.8146806411738
20
85.4950300964313
30
0
0
VERTEX
8
0
10
80.6049250039577
20
85.3460288326824
30
0
0
VERTEX
8
0
10
81.3951693667416
20
85.208719712501
30
0
0
VERTEX
8
0
10
82.1854137295255
20
85.0714547730867
30
0
0
VERTEX
8
0
10
82.9756580923094
20
84.9347311194028
30
0
0
VERTEX
8
0
10
83.7659024550933
20
84.8034755854992
30
0
0
VERTEX
8
0
10
84.5561468178772
20
84.674765751294
30
0
0
VERTEX
8
0
10
85.3463911806611
20
84.5465499891655
30
0
0
VERTEX
8
0
10
86.136635543445
20
84.4188305503116
30
0
0
VERTEX
8
0
10
86.9268799062288
20
84.2962990191613
30
0
0
VERTEX
8
0
10
87.7171242690127
20
84.1729792265437
30
0
0
VERTEX
8
0
10
88.5073686317966
20
84.0501355750869
30
0
0
VERTEX
8
0
10
89.2976129945805
20
83.9347342383321
30
0
0
VERTEX
8
0
10
90.0878573573644
20
83.8195819870744
30
0
0
VERTEX
8
0
10
90.8781017201483
20
83.7048598364964
30
0
0
VERTEX
8
0
10
91.6683460829322
20
83.5917207763012
30
0
0
VERTEX
8
0
10
92.4585904457161
20
83.4795310342397
30
0
0
VERTEX
8
0
10
93.2488348085
20
83.3677639591873
30
0
0
VERTEX
8
0
10
94.0390791712839
20
83.2564212533652
30
0
0
VERTEX
8
0
10
94.8293235340678
20
83.1566279220213
30
0
0
VERTEX
8
0
10
95.6195678968517
20
83.0543298666311
30
0
0
VERTEX
8
0
10
96.4098122596356
20
82.9523993348443
30
0
0
VERTEX
8
0
10
97.2000566224195
20
82.8541279557704
30
0
0
VERTEX
8
0
10
97.9903009852034
20
82.7561833405808
30
0
0
VERTEX
8
0
10
98.7805453479873
20
82.6585866537328
30
0
0
VERTEX
8
0
10
99.5707897107712
20
82.5678048581434
30
0
0
VERTEX
8
0
10
100.361034073555
20
82.4805606071381
30
0
0
VERTEX
8
0
10
101.151278436339
20
82.3936010127819
30
0
0
VERTEX
8
0
10
101.941522799123
20
82.3069269773187
30
0
0
VERTEX
8
0
10
102.731767161907
20
82.2247750064991
30
0
0
VERTEX
8
0
10
103.522011524691
20
82.1418449516101
30
0
0
VERTEX
8
0
10
104.312255887475
20
82.0591821370092
30
0
0
VERTEX
8
0
10
105.102500250258
20
81.9799065966014
30
0
0
VERTEX
8
0
10
105.892744613042
20
81.900924580297
30
0
0
VERTEX
8
0
10
106.682988975826
20
81.822191829498
30
0
0
VERTEX
8
0
10
107.47323333861
20
81.7437090644568
30
0
0
VERTEX
8
0
10
108.263477701394
20
81.6654770059027
30
0
0
VERTEX
8
0
10
109.053722064178
20
81.5874963750232
30
0
0
VERTEX
8
0
10
109.843966426962
20
81.5097678934425
30
0
0
VERTEX
8
0
10
110.634210789746
20
81.438352583055
30
0
0
VERTEX
8
0
10
111.42445515253
20
81.3657380255678
30
0
0
VERTEX
8
0
10
112.214699515314
20
81.2933480938476
30
0
0
VERTEX
8
0
10
113.004943878097
20
81.22266369942
30
0
0
VERTEX
8
0
10
113.795188240881
20
81.1522485337499
30
0
0
VERTEX
8
0
10
114.585432603665
20
81.0820502396092
30
0
0
VERTEX
8
0
10
115.375676966449
20
81.0149199098288
30
0
0
VERTEX
8
0
10
116.165921329233
20
80.9496918231425
30
0
0
VERTEX
8
0
10
116.956165692017
20
80.8846546689535
30
0
0
VERTEX
8
0
10
117.746410054801
20
80.8198089082021
30
0
0
VERTEX
8
0
10
118.536654417585
20
80.7590150781681
30
0
0
VERTEX
8
0
10
119.326898780369
20
80.6975364550335
30
0
0
VERTEX
8
0
10
120.117143143153
20
80.636233048566
30
0
0
VERTEX
8
0
10
120.907387505936
20
80.5793278989496
30
0
0
VERTEX
8
0
10
121.69763186872
20
80.5228187389075
30
0
0
VERTEX
8
0
10
122.487876231504
20
80.466461074044
30
0
0
VERTEX
8
0
10
123.278120594288
20
80.4093612073781
30
0
0
VERTEX
8
0
10
124.068364957072
20
80.3518369376183
30
0
0
VERTEX
8
0
10
124.858609319856
20
80.2944732622245
30
0
0
VERTEX
8
0
10
125.64885368264
20
80.2372705256362
30
0
0
VERTEX
8
0
10
126.439098045424
20
80.1857733499155
30
0
0
VERTEX
8
0
10
127.229342408208
20
80.1332486167365
30
0
0
VERTEX
8
0
10
128.019586770992
20
80.080861844219
30
0
0
VERTEX
8
0
10
128.809831133775
20
80.0259317547709
30
0
0
VERTEX
8
0
10
129.600075496559
20
79.9709383025517
30
0
0
VERTEX
8
0
10
130.390319859343
20
79.9160995036106
30
0
0
VERTEX
8
0
10
131.180564222127
20
79.8639378752771
30
0
0
VERTEX
8
0
10
131.970808584911
20
79.8137019578263
30
0
0
VERTEX
8
0
10
132.761052947695
20
79.7635980155461
30
0
0
VERTEX
8
0
10
133.551297310479
20
79.7136262972949
30
0
0
VERTEX
8
0
10
134.341541673263
20
79.6708700260256
30
0
0
VERTEX
8
0
10
135.131786036047
20
79.6268207855755
30
0
0
VERTEX
8
0
10
135.922030398831
20
79.5828758089772
30
0
0
VERTEX
8
0
10
136.712274761615
20
79.5403134482581
30
0
0
VERTEX
8
0
10
137.502519124398
20
79.4979837624231
30
0
0
VERTEX
8
0
10
138.292763487182
20
79.4557521977474
30
0
0
VERTEX
8
0
10
139.083007849966
20
79.410450104107
30
0
0
VERTEX
8
0
10
139.87325221275
20
79.3628264588145
30
0
0
VERTEX
8
0
10
140.663496575534
20
79.3153294897005
30
0
0
VERTEX
8
0
10
141.453740938318
20
79.267959424476
30
0
0
VERTEX
8
0
10
142.243985301102
20
79.2309159895971
30
0
0
VERTEX
8
0
10
143.034229663886
20
79.1920829835379
30
0
0
VERTEX
8
0
10
143.82447402667
20
79.1533364462458
30
0
0
VERTEX
8
0
10
144.614718389454
20
79.1085774369504
30
0
0
VERTEX
8
0
10
145.404962752238
20
79.063141440496
30
0
0
VERTEX
8
0
10
146.195207115022
20
79.0178261404022
30
0
0
VERTEX
8
0
10
146.985451477805
20
78.9771008739786
30
0
0
VERTEX
8
0
10
147.775695840589
20
78.9402038980053
30
0
0
VERTEX
8
0
10
148.565940203373
20
78.9033880968448
30
0
0
VERTEX
8
0
10
149.356184566157
20
78.866653584177
30
0
0
VERTEX
8
0
10
150.146428928941
20
78.828367299309
30
0
0
VERTEX
8
0
10
150.936673291725
20
78.7904465418254
30
0
0
VERTEX
8
0
10
151.726917654509
20
78.7526135821902
30
0
0
VERTEX
8
0
10
152.517162017293
20
78.7195246086898
30
0
0
VERTEX
8
0
10
153.307406380077
20
78.6872324736238
30
0
0
VERTEX
8
0
10
154.097650742861
20
78.6550050972651
30
0
0
VERTEX
8
0
10
154.887895105645
20
78.6616110105453
30
0
0
SEQEND
8
0
0
POLYLINE
8
0
62
2
70
0
10
0
20
0
30
0
0
VERTEX
8
0
10
2.3707330883517
20
0
30
0
0
VERTEX
8
0
10
3.1609774511356
20
0
30
0
0
VERTEX
8
0
10
3.9512218139195
20
0
30
0
0
VERTEX
8
0
10
4.7414661767034
20
0
30
0
0
VERTEX
8
0
10
5.5317105394873
20
0
30
0
0
VERTEX
8
0
10
6.3219549022712
20
0
30
0
0
VERTEX
8
0
10
7.1121992650551
20
0.922361326490026
30
0
0
VERTEX
8
0
10
7.902443627839
20
1.43525167999534
30
0
0
VERTEX
8
0
10
8.6926879906229
20
1.89802457824371
30
0
0
VERTEX
8
0
10
9.4829323534068
20
2.34420879611859
30
0
0
VERTEX
8
0
10
10.2731767161907
20
2.7844662210313
30
0
0
VERTEX
8
0
10
11.0634210789746
20
3.22328912749608
30
0
0
VERTEX
8
0
10
11.8536654417585
20
3.66283312733709
30
0
0
VERTEX
8
0
10
12.6439098045424
20
4.10419867758292
30
0
0
VERTEX
8
0
10
13.4341541673263
20
4.54795591615174
30
0
0
VERTEX
8
0
10
14.2243985301102
20
4.99438983805039
30
0
0
VERTEX
8
0
10
15.0146428928941
20
5.44362600248577
30
0
0
VERTEX
8
0
10
15.804887255678
20
5.89569961085906
30
0
0
VERTEX
8
0
10
16.5951316184619
20
6.35059557180829
30
0
0
VERTEX
8
0
10
17.3853759812458
20
6.8082728045806
30
0
0
VERTEX
8
0
10
18.1756203440297
20
7.26867960100439
30
0
0
VERTEX
8
0
10
18.9658647068136
20
7.73176376983862
30
0
0
VERTEX
8
0
10
19.7561090695975
20
8.19747970046168
30
0
0
VERTEX
8
0
10
20.5463534323814
20
8.66579363685664
30
0
0
VERTEX
8
0
10
21.3365977951653
20
9.1366879848286
30
0
0
VERTEX
8
0
10
22.1268421579492
20
9.61016521590891
30
0
0
VERTEX
8
0
10
22.9170865207331
20
10.0862517969147
30
0
0
VERTEX
8
0
10
23.707330883517
20
10.5650025159563
30
0
0
VERTEX
8
0
10
24.4975752463009
20
11.0465055807922
30
0
0
VERTEX
8
0
10
25.2878196090848
20
11.5308889251336
30
0
0
VERTEX
8
0
10
26.0780639718687
20
12.0183282884117
30
0
0
VERTEX
8
0
10
26.8683083346526
20
12.5090578586068
30
0
0
VERTEX
8
0
10
27.6585526974365
20
13.0033846447612
30
0
0
VERTEX
8
0
10
28.4487970602204
20
13.5017083839957
30
0
0
VERTEX
8
0
10
29.2390414230043
20
14.0045498932131
30
0
0
VERTEX
8
0
10
30.0292857857882
20
14.5125927866648
30
0
0
VERTEX
8
0
10
30.8195301485721
20
15.0267473230607
30
0
0
VERTEX
8
0
10
31.609774511356
20
15.5482530281068
30
0
0
VERTEX
8
0
10
32.4000188741399
20
16.0788543369334
30
0
0
VERTEX
8
0
10
33.1902632369238
20
16.6211274855026
30
0
0
VERTEX
8
0
10
33.9805075997077
20
17.1791651083894
30
0
0
VERTEX
8
0
10
34.7707519624916
20
17.7602952731761
30
0
0
VERTEX
8
0
10
35.5609963252755
20
18.3810844009142
30
0
0
VERTEX
8
0
10
36.3512406880594
20
19.0939998846351
30
0
0
VERTEX
8
0
10
37.1414850508433
20
19.7600324285743
30
0
0
VERTEX
8
0
10
37.9317294136272
20
20.3224187416695
30
0
0
VERTEX
8
0
10
38.7219737764111
20
20.832462088585
30
0
0
VERTEX
8
0
10
39.512218139195
20
21.3069189037044
30
0
0
VERTEX
8
0
10
40.3024625019789
20
21.7541764760542
30
0
0
VERTEX
8
0
10
41.0927068647628
20
22.1793180382351
30
0
0
VERTEX
8
0
10
41.8829512275467
20
22.5857612944603
30
0
0
VERTEX
8
0
10
42.6731955903306
20
22.9759611695979
30
0
0
VERTEX
8
0
10
43.4634399531145
20
23.351764174419
30
0
0
VERTEX
8
0
10
44.2536843158984
20
23.7146073375598
30
0
0
VERTEX
8
0
10
45.0439286786823
20
24.0656388178215
30
0
0
VERTEX
8
0
10
45.8341730414662
20
24.4057954093746
30
0
0
VERTEX
8
0
10
46.6244174042501
20
24.7358546670204
30
0
0
VERTEX
8
0
10
47.414661767034
20
25.0564712724293
30
0
0
VERTEX
8
0
10
48.2049061298179
20
25.3682031835842
30
0
0
VERTEX
8
0
10
48.9951504926018
20
25.6715309195518
30
0
0
VERTEX
8
0
10
49.7853948553857
20
25.9668720919132
30
0
0
VERTEX
8
0
10
50.5756392181696
20
26.2545925591241
30
0
0
VERTEX
8
0
10
51.3658835809535
20
26.5350151279602
30
0
0
VERTEX
8
0
10
52.1561279437374
20
26.808426437962
30
0
0
VERTEX
8
0
10
52.9463723065213
20
27.0750824773391
30
0
0
VERTEX
8
0
10
53.7366166693052
20
27.3352130518858
30
0
0
VERTEX
8
0
10
54.5268610320891
20
27.5890254423915
30
0
0
VERTEX
8
0
10
55.3171053948729
20
27.8367074248701
30
0
0
VERTEX
8
0
10
56.1073497576568
20
28.0784297857545
30
0
0
VERTEX
8
0
10
56.8975941204407
20
28.3143484318401
30
0
0
VERTEX
8
0
10
57.6878384832246
20
28.5446061727934
30
0
0
VERTEX
8
0
10
58.4780828460085
20
28.7693342364866
30
0
0
VERTEX
8
0
10
59.2683272087924
20
28.9886535649067
30
0
0
VERTEX
8
0
10
60.0585715715763
20
29.2026759283354
30
0
0
VERTEX
8
0
10
60.8488159343602
20
29.4115048881371
30
0
0
VERTEX
8
0
10
61.6390602971441
20
29.6152366328371
30
0
0
VERTEX
8
0
10
62.429304659928
20
29.8139607070517
30
0
0
VERTEX
8
0
10
63.2195490227119
20
30.0077606500298
30
0
0
VERTEX
8
0
10
64.0097933854958
20
30.1967145568629
30
0
0
VERTEX
8
0
10
64.8000377482797
20
30.3808955737811
30
0
0
VERTEX
8
0
10
65.5902821110636
20
30.5603723366296
30
0
0
VERTEX
8
0
10
66.3805264738475
20
30.7352093604634
30
0
0
VERTEX
8
0
10
67.1707708366314
20
30.9054673867255
30
0
0
VERTEX
8
0
10
67.9610151994153
20
31.0712036935746
30
0
0
VERTEX
8
0
10
68.7512595621992
20
31.2324723740363
30
0
0
VERTEX
8
0
10
69.5415039249831
20
31.3893245860522
30
0
0
VERTEX
8
0
10
70.331748287767
20
31.5418087778166
30
0
0
VERTEX
8
0
10
71.1219926505509
20
31.6899708913473
30
0
0
VERTEX
8
0
10
71.9122370133348
20
31.8338545469232
30
0
0
VERTEX
8
0
10
72.7024813761187
20
31.9735012104352
30
0
0
VERTEX
8
0
10
73.4927257389026
20
32.1089503457433
30
0
0
VERTEX
8
0
10
74.2829701016865
20
32.2402395535714
30
0
0
VERTEX
8
0
10
75.0732144644704
20
32.3674046984852
30
0
0
VERTEX
8
0
10
75.8634588272543
20
32.4904800251514
30
0
0
VERTEX
8
0
10
76.6537031900382
20
32.6094982650974
30
0
0
VERTEX
8
0
10
77.4439475528221
20
32.7244907348181
30
0
0
VERTEX
8
0
10
78.234191915606
20
32.8354874262835
30
0
0
VERTEX
8
0
10
79.0244362783899
20
32.9425170904771
30
0
0
VERTEX
8
0
10
79.8146806411738
20
33.0456073146379
30
0
0
VERTEX
8
0
10
80.6049250039577
20
33.144784594036
30
0
0
VERTEX
8
0
10
81.3951693667416
20
33.240074398483
30
0
0
VERTEX
8
0
10
82.1854137295255
20
33.331501234393
30
0
0
VERTEX
8
0
10
82.9756580923094
20
33.4190887025747
30
0
0
VERTEX
8
0
10
83.7659024550933
20
33.5028595523507
30
0
0
VERTEX
8
0
10
84.5561468178772
20
33.5828357322508
30
0
0
VERTEX
8
0
10
85.3463911806611
20
33.6590384375284
30
0
0
VERTEX
8
0
10
86.136635543445
20
33.7314881550039
30
0
0
VERTEX
8
0
10
86.9268799062288
20
33.8002047052731
30
0
0
VERTEX
8
0
10
87.7171242690127
20
33.8652072826878
30
0
0
VERTEX
8
0
10
88.5073686317966
20
33.9265144931744
30
0
0
VERTEX
8
0
10
89.2976129945805
20
33.9841443902603
30
0
0
VERTEX
8
0
10
90.0878573573644
20
34.03811450936
30
0
0
VERTEX
8
0
10
90.8781017201483
20
34.0884419005223
30
0
0
VERTEX
8
0
10
91.6683460829322
20
34.1351431598497
30
0
0
VERTEX
8
0
10
92.4585904457161
20
34.1782344596571
30
0
0
VERTEX
8
0
10
93.2488348085
20
34.2177315775608
30
0
0
VERTEX
8
0
10
94.0390791712839
20
34.2536499246193
30
0
0
VERTEX
8
0
10
94.8293235340678
20
34.2860045725869
30
0
0
VERTEX
8
0
10
95.6195678968517
20
34.3148102805029
30
0
0
VERTEX
8
0
10
96.4098122596356
20
34.3400815206069
30
0
0
VERTEX
8
0
10
97.2000566224195
20
34.3618325037688
30
0
0
VERTEX
8
0
10
97.9903009852034
20
34.3800772044821
30
0
0
VERTEX
8
0
10
98.7805453479873
20
34.3948293855356
30
0
0
VERTEX
8
0
10
99.5707897107712
20
34.4061026224706
30
0
0
VERTEX
8
0
10
100.361034073555
20
34.4139103278494
30
0
0
VERTEX
8
0
10
101.151278436339
20
34.4182657755388
30
0
0
VERTEX
8
0
10
101.941522799123
20
34.4191821249617
30
0
0
VERTEX
8
0
10
102.731767161907
20
34.4166724455192
30
0
0
VERTEX
8
0
10
103.522011524691
20
34.4107497411975
30
0
0
VERTEX
8
0
10
104.312255887475
20
34.4014269754628
30
0
0
VERTEX
8
0
10
105.102500250258
20
34.3887170966057
30
0
0
VERTEX
8
0
10
105.892744613042
20
34.3726330634685
30
0
0
VERTEX
8
0
10
106.682988975826
20
34.3531878718443
30
0
0
VERTEX
8
0
10
107.47323333861
20
34.3303945814815
30
0
0
VERTEX
8
0
10
108.263477701394
20
34.3042663438938
30
0
0
VERTEX
8
0
10
109.053722064178
20
34.274816431026
30
0
0
VERTEX
8
0
10
109.843966426962
20
34.2420582649567
30
0
0
VERTEX
8
0
10
110.634210789746
20
34.2060054486218
30
0
0
VERTEX
8
0
10
111.42445515253
20
34.1666717978583
30
0
0
VERTEX
8
0
10
112.214699515314
20
34.1240713747276
30
0
0
VERTEX
8
0
10
113.004943878097
20
34.0782185223881
30
0
0
VERTEX
8
0
10
113.795188240881
20
34.0291279015718
30
0
0
VERTEX
8
0
10
114.585432603665
20
33.9768145288797
30
0
0
VERTEX
8
0
10
115.375676966449
20
33.9212938170381
30
0
0
VERTEX
8
0
10
116.165921329233
20
33.862581617306
30
0
0
VERTEX
8
0
10
116.956165692017
20
33.8006942642128
30
0
0
VERTEX
8
0
10
117.746410054801
20
33.7356486228768
30
0
0
VERTEX
8
0
10
118.536654417585
20
33.667462139076
30
0
0
VERTEX
8
0
10
119.326898780369
20
33.596152892379
30
0
0
VERTEX
8
0
10
120.117143143153
20
33.5217396525475
30
0
0
VERTEX
8
0
10
120.907387505936
20
33.4442419395592
30
0
0
VERTEX
8
0
10
121.69763186872
20
33.3636800875308
30
0
0
VERTEX
8
0
10
122.487876231504
20
33.2800753129196
30
0
0
VERTEX
8
0
10
123.278120594288
20
33.1934497873486
30
0
0
VERTEX
8
0
10
124.068364957072
20
33.1038267155442
30
0
0
VERTEX
8
0
10
124.858609319856
20
33.0112304187803
30
0
0
VERTEX
8
0
10
125.64885368264
20
32.9156864243911
30
0
0
VERTEX
8
0
10
126.439098045424
20
32.8172215618932
30
0
0
VERTEX
8
0
10
127.229342408208
20
32.7158640663624
30
0
0
VERTEX
8
0
10
128.019586770992
20
32.6116436897503
30
0
0
VERTEX
8
0
10
128.809831133775
20
32.5045918209257
30
0
0
VERTEX
8
0
10
129.600075496559
20
32.3947416153102
30
0
0
VERTEX
8
0
10
130.390319859343
20
32.2821281350746
30
0
0
VERTEX
8
0
10
131.180564222127
20
32.1667885009914
30
0
0
VERTEX
8
0
10
131.970808584911
20
32.0487620571717
30
0
0
VERTEX
8
0
10
132.761052947695
20
31.9280905500867
30
0
0
VERTEX
8
0
10
133.551297310479
20
31.8048183234399
30
0
0
VERTEX
8
0
10
134.341541673263
20
31.6789925306956
30
0
0
VERTEX
8
0
10
135.131786036047
20
31.5506633673266
30
0
0
VERTEX
8
0
10
135.922030398831
20
31.4198843251392
30
0
0
VERTEX
8
0
10
136.712274761615
20
31.2867124714152
30
0
0
VERTEX
8
0
10
137.502519124398
20
31.1512087560457
30
0
0
VERTEX
8
0
10
138.292763487182
20
31.0134383503669
30
0
0
VERTEX
8
0
10
139.083007849966
20
30.8734710220579
30
0
0
VERTEX
8
0
10
139.87325221275
20
30.731381551266
30
0
0
VERTEX
8
0
10
140.663496575534
20
30.5872501941256
30
0
0
VERTEX
8
0
10
141.453740938318
20
30.441163201064
30
0
0
VERTEX
8
0
10
142.243985301102
20
30.2932133988977
30
0
0
VERTEX
8
0
10
143.034229663886
20
30.1435008477185
30
0
0
VERTEX
8
0
10
143.82447402667
20
29.9921335862141
30
0
0
VERTEX
8
0
10
144.614718389454
20
29.8392284825056
30
0
0
VERTEX
8
0
10
145.404962752238
20
29.6849122121899
30
0
0
VERTEX
8
0
10
146.195207115022
20
29.5293223915139
30
0
0
VERTEX
8
0
10
146.985451477805
20
29.3726089022068
30
0
0
VERTEX
8
0
10
147.775695840589
20
29.2149354566183
30
0
0
VERTEX
8
0
10
148.565940203373
20
29.0564814692386
30
0
0
VERTEX
8
0
10
149.356184566157
20
28.8974443264078
30
0
0
VERTEX
8
0
10
150.146428928941
20
28.7380421851184
30
0
0
VERTEX
8
0
10
150.936673291725
20
28.5785174931866
30
0
0
VERTEX
8
0
10
151.726917654509
20
28.4191415232811
30
0
0
VERTEX
8
0
10
152.517162017293
20
28.2602203844546
30
0
0
VERTEX
8
0
10
153.307406380077
20
28.1021032829672
30
0
0
VERTEX
8
0
10
154.097650742861
20
27.9451943913899
30
0
0
VERTEX
8
0
10
154.887895105645
20
27.7899708577931
30
0
0
SEQEND
8
0
0
POLYLINE
8
0
62
3
70
0
10
0
20
0
30
0
0
VERTEX
8
0
10
2.3707330883517
20
1.10321459602522
30
0
0
VERTEX
8
0
10
3.1609774511356
20
1.67484205892615
30
0
0
VERTEX
8
0
10
3.9512218139195
20
2.24047017222705
30
0
0
VERTEX
8
0
10
4.7414661767034
20
2.81426900083249
30
0
0
VERTEX
8
0
10
5.5317105394873
20
3.40119161965431
30
0
0
VERTEX
8
0
10
6.3219549022712
20
4.00171238559696
30
0
0
VERTEX
8
0
10
7.1121992650551
20
4.61473775072499
30
0
0
VERTEX
8
0
10
7.902443627839
20
5.23885541218554
30
0
0
VERTEX
8
0
10
8.6926879906229
20
5.8727549231108
30
0
0
VERTEX
8
0
10
9.4829323534068
20
6.51532343729281
30
0
0
VERTEX
8
0
10
10.2731767161907
20
7.16563537385588
30
0
0
VERTEX
8
0
10
11.0634210789746
20
7.8229173392553
30
0
0
VERTEX
8
0
10
11.8536654417585
20
8.48651429500047
30
0
0
VERTEX
8
0
10
12.6439098045424
20
9.15586301877022
30
0
0
VERTEX
8
0
10
13.4341541673263
20
9.83047264877997
30
0
0
VERTEX
8
0
10
14.2243985301102
20
10.5099106767908
30
0
0
VERTEX
8
0
10
15.0146428928941
20
11.1937928226635
30
0
0
VERTEX
8
0
10
15.804887255678
20
11.8817756184492
30
0
0
VERTEX
8
0
10
16.5951316184619
20
12.5735509007433
30
0
0
VERTEX
8
0
10
17.3853759812458
20
13.2688416836291
30
0
0
VERTEX
8
0
10
18.1756203440297
20
13.9673990683215
30
0
0
VERTEX
8
0
10
18.9658647068136
20
14.6689999684061
30
0
0
VERTEX
8
0
10
19.7561090695975
20
15.3734455096697
30
0
0
VERTEX
8
0
10
20.5463534323814
20
16.0805600213542
30
0
0
VERTEX
8
0
10
21.3365977951653
20
16.7901905785827
30
0
0
VERTEX
8
0
10
22.1268421579492
20
17.5022070923441
30
0
0
VERTEX
8
0
10
22.9170865207331
20
18.2165029808321
30
0
0
VERTEX
8
0
10
23.707330883517
20
18.9329964962438
30
0
0
VERTEX
8
0
10
24.4975752463009
20
19.6516328336519
30
0
0
VERTEX
8
0
10
25.2878196090848
20
20.3723872186441
30
0
0
VERTEX
8
0
10
26.0780639718687
20
21.0952692736805
30
0
0
VERTEX
8
0
10
26.8683083346526
20
21.8203291186205
30
0
0
VERTEX
8
0
10
27.6585526974365
20
22.5476659075957
30
0
0
VERTEX
8
0
10
28.4487970602204
20
23.2774399116062
30
0
0
VERTEX
8
0
10
29.2390414230043
20
24.0098899540527
30
0
0
VERTEX
8
0
10
30.0292857857882
20
24.7453592694825
30
0
0
VERTEX
8
0
10
30.8195301485721
20
25.4843352641745
30
0
0
VERTEX
8
0
10
31.609774511356
20
26.2275135911319
30
0
0
VERTEX
8
0
10
32.4000188741399
20
26.9759079588766
30
0
0
VERTEX
8
0
10
33.1902632369238
20
27.7310545806394
30
0
0
VERTEX
8
0
10
33.9805075997077
20
28.495440230227
30
0
0
VERTEX
8
0
10
34.7707519624916
20
29.2735761465292
30
0
0
VERTEX
8
0
10
35.5609963252755
20
30.0757418695304
30
0
0
VERTEX
8
0
10
36.3512406880594
20
30.9345840676786
30
0
0
VERTEX
8
0
10
37.1414850508433
20
31.762429434542
30
0
0
VERTEX
8
0
10
37.9317294136272
20
32.5213068165367
30
0
0
VERTEX
8
0
10
38.7219737764111
20
33.2425934147578
30
0
0
VERTEX
8
0
10
39.512218139195
20
33.9366657504082
30
0
0
VERTEX
8
0
10
40.3024625019789
20
34.6087963457639
30
0
0
VERTEX
8
0
10
41.0927068647628
20
35.2622345522038
30
0
0
VERTEX
8
0
10
41.8829512275467
20
35.8992030228306
30
0
0
VERTEX
8
0
10
42.6731955903306
20
36.521325857671
30
0
0
VERTEX
8
0
10
43.4634399531145
20
37.1298452266881
30
0
0
VERTEX
8
0
10
44.2536843158984
20
37.7257435453146
30
0
0
VERTEX
8
0
10
45.0439286786823
20
38.3098179749743
30
0
0
VERTEX
8
0
10
45.8341730414662
20
38.8827286133613
30
0
0
VERTEX
8
0
10
46.6244174042501
20
39.4450311406466
30
0
0
VERTEX
8
0
10
47.414661767034
20
39.9971997739353
30
0
0
VERTEX
8
0
10
48.2049061298179
20
40.5396439085366
30
0
0
VERTEX
8
0
10
48.9951504926018
20
41.0727204950188
30
0
0
VERTEX
8
0
10
49.7853948553857
20
41.5967434466886
30
0
0
VERTEX
8
0
10
50.5756392181696
20
42.1119909244677
30
0
0
VERTEX
8
0
10
51.3658835809535
20
42.6187110701912
30
0
0
VERTEX
8
0
10
52.1561279437374
20
43.1171265829675
30
0
0
VERTEX
8
0
10
52.9463723065213
20
43.6074384182205
30
0
0
VERTEX
8
0
10
53.7366166693052
20
44.0898288108932
30
0
0
VERTEX
8
0
10
54.5268610320891
20
44.5644637711349
30
0
0
VERTEX
8
0
10
55.3171053948729
20
45.0314951628685
30
0
0
VERTEX
8
0
10
56.1073497576568
20
45.4910624493732
30
0
0
VERTEX
8
0
10
56.8975941204407
20
45.9432941698047
30
0
0
VERTEX
8
0
10
57.6878384832246
20
46.3883091967582
30
0
0
VERTEX
8
0
10
58.4780828460085
20
46.8262178139337
30
0
0
VERTEX
8
0
10
59.2683272087924
20
47.2571226450155
30
0
0
VERTEX
8
0
10
60.0585715715763
20
47.6811194584915
30
0
0
VERTEX
8
0
10
60.8488159343602
20
48.0982978684235
30
0
0
VERTEX
8
0
10
61.6390602971441
20
48.5087419475424
30
0
0
VERTEX
8
0
10
62.429304659928
20
48.9125307657437
30
0
0
VERTEX
8
0
10
63.2195490227119
20
49.3097388652206
30
0
0
VERTEX
8
0
10
64.0097933854958
20
49.7004366810778
30
0
0
VERTEX
8
0
10
64.8000377482797
20
50.0846909151713
30
0
0
VERTEX
8
0
10
65.5902821110636
20
50.462564869406
30
0
0
VERTEX
8
0
10
66.3805264738475
20
50.834118743939
30
0
0
VERTEX
8
0
10
67.1707708366314
20
51.1994099047689
30
0
0
VERTEX
8
0
10
67.9610151994153
20
51.5584931245813
30
0
0
VERTEX
8
0
10
68.7512595621992
20
51.911420800124
30
0
0
VERTEX
8
0
10
69.5415039249831
20
52.2582431489745
30
0
0
VERTEX
8
0
10
70.331748287767
20
52.5990083881012
30
0
0
VERTEX
8
0
10
71.1219926505509
20
52.9337628963188
30
0
0
VERTEX
8
0
10
71.9122370133348
20
53.2625513625081
30
0
0
VERTEX
8
0
10
72.7024813761187
20
53.5854169210933
30
0
0
VERTEX
8
0
10
73.4927257389026
20
53.9024012762682
30
0
0
VERTEX
8
0
10
74.2829701016865
20
54.2135448161003
30
0
0
VERTEX
8
0
10
75.0732144644704
20
54.5188867176302
30
0
0
VERTEX
8
0
10
75.8634588272543
20
54.818465043858
30
0
0
VERTEX
8
0
10
76.6537031900382
20
55.1123168335029
30
0
0
VERTEX
8
0
10
77.4439475528221
20
55.4004781841794
30
0
0
VERTEX
8
0
10
78.234191915606
20
55.6829843297567
30
0
0
VERTEX
8
0
10
79.0244362783899
20
55.9598697123848
30
0
0
VERTEX
8
0
10
79.8146806411738
20
56.2311680497049
30
0
0
VERTEX
8
0
10
80.6049250039577
20
56.4969123978276
30
0
0
VERTEX
8
0
10
81.3951693667416
20
56.7571352102934
30
0
0
VERTEX
8
0
10
82.1854137295255
20
57.0118683935785
30
0
0
VERTEX
8
0
10
82.9756580923094
20
57.2611433593312
30
0
0
VERTEX
8
0
10
83.7659024550933
20
57.5049910737568
30
0
0
VERTEX
8
0
10
84.5561468178772
20
57.7434421043642
30
0
0
VERTEX
8
0
10
85.3463911806611
20
57.9765266642768
30
0
0
VERTEX
8
0
10
86.136635543445
20
58.2042746544602
30
0
0
VERTEX
8
0
10
86.9268799062288
20
58.426715703938
30
0
0
VERTEX
8
0
10
87.7171242690127
20
58.6438792082804
30
0
0
VERTEX
8
0
10
88.5073686317966
20
58.8557943664496
30
0
0
VERTEX
8
0
10
89.2976129945805
20
59.062490216251
30
0
0
VERTEX
8
0
10
90.0878573573644
20
59.2639956684655
30
0
0
VERTEX
8
0
10
90.8781017201483
20
59.4603395398081
30
0
0
VERTEX
8
0
10
91.6683460829322
20
59.6515505848661
30
0
0
VERTEX
8
0
10
92.4585904457161
20
59.8376575270922
30
0
0
VERTEX
8
0
10
93.2488348085
20
60.0186890889798
30
0
0
VERTEX
8
0
10
94.0390791712839
20
60.1946740215246
30
0
0
VERTEX
8
0
10
94.8293235340678
20
60.3656411330235
30
0
0
VERTEX
8
0
10
95.6195678968517
20
60.5316193173662
30
0
0
VERTEX
8
0
10
96.4098122596356
20
60.6926375818304
30
0
0
VERTEX
8
0
10
97.2000566224195
20
60.8487250745044
30
0
0
VERTEX
8
0
10
97.9903009852034
20
60.9999111113886
30
0
0
VERTEX
8
0
10
98.7805453479873
20
61.146225203248
30
0
0
VERTEX
8
0
10
99.5707897107712
20
61.2876970822969
30
0
0
VERTEX
8
0
10
100.361034073555
20
61.4243567287383
30
0
0
VERTEX
8
0
10
101.151278436339
20
61.5562343972876
30
0
0
VERTEX
8
0
10
101.941522799123
20
61.6833606436608
30
0
0
VERTEX
8
0
10
102.731767161907
20
61.8057663511505
30
0
0
VERTEX
8
0
10
103.522011524691
20
61.9234827573051
30
0
0
VERTEX
8
0
10
104.312255887475
20
62.0365414807744
30
0
0
VERTEX
8
0
10
105.102500250258
20
62.1449745484159
30
0
0
VERTEX
8
0
10
105.892744613042
20
62.248814422625
30
0
0
VERTEX
8
0
10
106.682988975826
20
62.348094029056
30
0
0
VERTEX
8
0
10
107.47323333861
20
62.4428467846909
30
0
0
VERTEX
8
0
10
108.263477701394
20
62.5331066263693
30
0
0
VERTEX
8
0
10
109.053722064178
20
62.6189080398012
30
0
0
VERTEX
8
0
10
109.843966426962
20
62.7002860891566
30
0
0
VERTEX
8
0
10
110.634210789746
20
62.7772764472159
30
0
0
VERTEX
8
0
10
111.42445515253
20
62.8499154262374
30
0
0
VERTEX
8
0
10
112.214699515314
20
62.9182400095038
30
0
0
VERTEX
8
0
10
113.004943878097
20
62.9822878836853
30
0
0
VERTEX
8
0
10
113.795188240881
20
63.0420974720285
30
0
0
VERTEX
8
0
10
114.585432603665
20
63.0977079684681
30
0
0
VERTEX
8
0
10
115.375676966449
20
63.1491593727204
30
0
0
VERTEX
8
0
10
116.165921329233
20
63.1964925264285
30
0
0
VERTEX
8
0
10
116.956165692017
20
63.2397491504316
30
0
0
VERTEX
8
0
10
117.746410054801
20
63.2789718832556
30
0
0
VERTEX
8
0
10
118.536654417585
20
63.3142043208833
30
0
0
VERTEX
8
0
10
119.326898780369
20
63.3454910579229
30
0
0
VERTEX
8
0
10
120.117143143153
20
63.3728777302419
30
0
0
VERTEX
8
0
10
120.907387505936
20
63.3964110591993
30
0
0
VERTEX
8
0
10
121.69763186872
20
63.4161388975645
30
0
0
VERTEX
8
0
10
122.487876231504
20
63.4321102772583
30
0
0
VERTEX
8
0
10
123.278120594288
20
63.4443754590256
30
0
0
VERTEX
8
0
10
124.068364957072
20
63.4529859842148
30
0
0
VERTEX
8
0
10
124.858609319856
20
63.4579947287838
30
0
0
VERTEX
8
0
10
125.64885368264
20
63.4594559597249
30
0
0
VERTEX
8
0
10
126.439098045424
20
63.4574253940833
30
0
0
VERTEX
8
0
10
127.229342408208
20
63.4519602607828
30
0
0
VERTEX
8
0
10
128.019586770992
20
63.4431193654795
30
0
0
VERTEX
8
0
10
128.809831133775
20
63.4309631587033
30
0
0
VERTEX
8
0
10
129.600075496559
20
63.4155538075704
30
0
0
VERTEX
8
0
10
130.390319859343
20
63.3969552713824
30
0
0
VERTEX
8
0
10
131.180564222127
20
63.3752333814748
30
0
0
VERTEX
8
0
10
131.970808584911
20
63.3504559257191
30
0
0
VERTEX
8
0
10
132.761052947695
20
63.3226927381493
30
0
0
VERTEX
8
0
10
133.551297310479
20
63.292015794233
30
0
0
VERTEX
8
0
10
134.341541673263
20
63.2584993124027
30
0
0
VERTEX
8
0
10
135.131786036047
20
63.222219862553
30
0
0
VERTEX
8
0
10
135.922030398831
20
63.1832564823158
30
0
0
VERTEX
8
0
10
136.712274761615
20
63.1416908020762
30
0
0
VERTEX
8
0
10
137.502519124398
20
63.0976071798502
30
0
0
VERTEX
8
0
10
138.292763487182
20
63.0510928473554
30
0
0
VERTEX
8
0
10
139.083007849966
20
63.0022380688585
30
0
0
VERTEX
8
0
10
139.87325221275
20
62.9511363147016
30
0
0
VERTEX
8
0
10
140.663496575534
20
62.8978844518084
30
0
0
VERTEX
8
0
10
141.453740938318
20
62.8425829539647
30
0
0
VERTEX
8
0
10
142.243985301102
20
62.7853361353241
30
0
0
VERTEX
8
0
10
143.034229663886
20
62.7262524114076
30
0
0
VERTEX
8
0
10
143.82447402667
20
62.6654445929614
30
0
0
VERTEX
8
0
10
144.614718389454
20
62.6030302194644
30
0
0
VERTEX
8
0
10
145.404962752238
20
62.5391319410121
30
0
0
VERTEX
8
0
10
146.195207115022
20
62.4738779599265
30
0
0
VERTEX
8
0
10
146.985451477805
20
62.4074025470895
30
0
0
VERTEX
8
0
10
147.775695840589
20
62.3398466531445
30
0
0
VERTEX
8
0
10
148.565940203373
20
62.271358642158
30
0
0
VERTEX
8
0
10
149.356184566157
20
62.2020951863493
30
0
0
VERTEX
8
0
10
150.146428928941
20
62.1322223772946
30
0
0
VERTEX
8
0
10
150.936673291725
20
62.0619171354456
30
0
0
VERTEX
8
0
10
151.726917654509
20
61.9913690430718
30
0
0
VERTEX
8
0
10
152.517162017293
20
61.9207827997939
30
0
0
VERTEX
8
0
10
153.307406380077
20
61.8503816334206
30
0
0
VERTEX
8
0
10
154.097650742861
20
61.7804122534262
30
0
0
VERTEX
8
0
10
154.887895105645
20
61.711152441617
30
0
0
SEQEND
8
0
0
POLYLINE
8
0
62
4
70
0
10
0
20
0
30
0
0
VERTEX
8
0
10
2.3707330883517
20
1.40058787577061
30
0
0
VERTEX
8
0
10
3.1609774511356
20
2.11432793536073
30
0
0
VERTEX
8
0
10
3.9512218139195
20
2.82336024890639
30
0
0
VERTEX
8
0
10
4.7414661767034
20
3.5388957856399
30
0
0
VERTEX
8
0
10
5.5317105394873
20
4.20150216646458
30
0
0
VERTEX
8
0
10
6.3219549022712
20
4.85035889296404
30
0
0
VERTEX
8
0
10
7.1121992650551
20
5.4346516022116
30
0
0
VERTEX
8
0
10
7.902443627839
20
6.01701656834083
30
0
0
VERTEX
8
0
10
8.6926879906229
20
6.59707847784128
30
0
0
VERTEX
8
0
10
9.4829323534068
20
7.18074872614564
30
0
0
VERTEX
8
0
10
10.2731767161907
20
7.76657643186888
30
0
0
VERTEX
8
0
10
11.0634210789746
20
8.31494028751215
30
0
0
VERTEX
8
0
10
11.8536654417585
20
8.86681422325571
30
0
0
VERTEX
8
0
10
12.6439098045424
20
9.42132650702082
30
0
0
VERTEX
8
0
10
13.4341541673263
20
9.96644638566126
30
0
0
VERTEX
8
0
10
14.2243985301102
20
10.5085467229326
30
0
0
VERTEX
8
0
10
15.0146428928941
20
11.0531345750455
30
0
0
VERTEX
8
0
10
15.804887255678
20
11.5999503349198
30
0
0
VERTEX
8
0
10
16.5951316184619
20
12.2000742044124
30
0
0
VERTEX
8
0
10
17.3853759812458
20
12.7882202654743
30
0
0
VERTEX
8
0
10
18.1756203440297
20
13.3772759014156
30
0
0
VERTEX
8
0
10
18.9658647068136
20
14.0695161890276
30
0
0
VERTEX
8
0
10
19.7561090695975
20
14.764932862747
30
0
0
VERTEX
8
0
10
20.5463534323814
20
15.4625488404062
30
0
0
VERTEX
8
0
10
21.3365977951653
20
16.2517554191329
30
0
0
VERTEX
8
0
10
22.1268421579492
20
17.0961060848597
30
0
0
VERTEX
8
0
10
22.9170865207331
20
17.9481957554319
30
0
0
VERTEX
8
0
10
23.707330883517
20
18.8069210432093
30
0
0
VERTEX
8
0
10
24.4975752463009
20
19.7093002913139
30
0
0
VERTEX
8
0
10
25.2878196090848
20
20.6090952527161
30
0
0
VERTEX
8
0
10
26.0780639718687
20
21.5142811219068
30
0
0
VERTEX
8
0
10
26.8683083346526
20
22.4074156047422
30
0
0
VERTEX
8
0
10
27.6585526974365
20
23.3059209246623
30
0
0
VERTEX
8
0
10
28.4487970602204
20
24.2074892763927
30
0
0
VERTEX
8
0
10
29.2390414230043
20
25.0307071440011
30
0
0
VERTEX
8
0
10
30.0292857857882
20
25.8491372871962
30
0
0
VERTEX
8
0
10
30.8195301485721
20
26.6679976112963
30
0
0
VERTEX
8
0
10
31.609774511356
20
27.4622221892523
30
0
0
VERTEX
8
0
10
32.4000188741399
20
28.2394660997545
30
0
0
VERTEX
8
0
10
33.1902632369238
20
29.0163751968772
30
0
0
VERTEX
8
0
10
33.9805075997077
20
29.792870541045
30
0
0
VERTEX
8
0
10
34.7707519624916
20
30.3886918419059
30
0
0
VERTEX
8
0
10
35.5609963252755
20
31.0207606751565
30
0
0
VERTEX
8
0
10
36.3512406880594
20
31.6520435254471
30
0
0
VERTEX
8
0
10
37.1414850508433
20
32.2361639931659
30
0
0
VERTEX
8
0
10
37.9317294136272
20
32.8115761751507
30
0
0
VERTEX
8
0
10
38.7219737764111
20
33.3822972750647
30
0
0
VERTEX
8
0
10
39.512218139195
20
33.9341956476562
30
0
0
VERTEX
8
0
10
40.3024625019789
20
34.471277817514
30
0
0
VERTEX
8
0
10
41.0927068647628
20
35.0040298785816
30
0
0
VERTEX
8
0
10
41.8829512275467
20
35.532482460844
30
0
0
VERTEX
8
0
10
42.6731955903306
20
36.0268179125214
30
0
0
VERTEX
8
0
10
43.4634399531145
20
36.5228682338294
30
0
0
VERTEX
8
0
10
44.2536843158984
20
37.0149012013298
30
0
0
VERTEX
8
0
10
45.0439286786823
20
37.4904965315448
30
0
0
VERTEX
8
0
10
45.8341730414662
20
37.9607875974691
30
0
0
VERTEX
8
0
10
46.6244174042501
20
38.4272138080099
30
0
0
VERTEX
8
0
10
47.414661767034
20
38.901728287812
30
0
0
VERTEX
8
0
10
48.2049061298179
20
39.3817678216158
30
0
0
VERTEX
8
0
10
48.9951504926018
20
39.8577908566533
30
0
0
VERTEX
8
0
10
49.7853948553857
20
40.3298126763375
30
0
0
VERTEX
8
0
10
50.5756392181696
20
40.8306997875649
30
0
0
VERTEX
8
0
10
51.3658835809535
20
41.3216354049926
30
0
0
VERTEX
8
0
10
52.1561279437374
20
41.8085087429894
30
0
0
VERTEX
8
0
10
52.9463723065213
20
42.3014546538901
30
0
0
VERTEX
8
0
10
53.7366166693052
20
42.7917928847166
30
0
0
VERTEX
8
0
10
54.5268610320891
20
43.2781264652751
30
0
0
VERTEX
8
0
10
55.3171053948729
20
43.755336483594
30
0
0
VERTEX
8
0
10
56.1073497576568
20
44.2241582759054
30
0
0
VERTEX
8
0
10
56.8975941204407
20
44.6890663574768
30
0
0
VERTEX
8
0
10
57.6878384832246
20
45.1500840259458
30
0
0
VERTEX
8
0
10
58.4780828460085
20
45.6095237247834
30
0
0
VERTEX
8
0
10
59.2683272087924
20
46.0647411558429
30
0
0
VERTEX
8
0
10
60.0585715715763
20
46.5161350572316
30
0
0
VERTEX
8
0
10
60.8488159343602
20
46.9751934762454
30
0
0
VERTEX
8
0
10
61.6390602971441
20
47.4324022581062
30
0
0
VERTEX
8
0
10
62.429304659928
20
47.8858621439203
30
0
0
VERTEX
8
0
10
63.2195490227119
20
48.3276854699436
30
0
0
VERTEX
8
0
10
64.0097933854958
20
48.7583846853884
30
0
0
VERTEX
8
0
10
64.8000377482797
20
49.1853944350619
30
0
0
VERTEX
8
0
10
65.5902821110636
20
49.6087355310258
30
0
0
VERTEX
8
0
10
66.3805264738475
20
50.0216655947635
30
0
0
VERTEX
8
0
10
67.1707708366314
20
50.4319781218676
30
0
0
VERTEX
8
0
10
67.9610151994153
20
50.8386800058488
30
0
0
VERTEX
8
0
10
68.7512595621992
20
51.2305702641562
30
0
0
VERTEX
8
0
10
69.5415039249831
20
51.6166860525516
30
0
0
VERTEX
8
0
10
70.331748287767
20
51.9992447509198
30
0
0
VERTEX
8
0
10
71.1219926505509
20
52.3782633032377
30
0
0
VERTEX
8
0
10
71.9122370133348
20
52.7136504719581
30
0
0
VERTEX
8
0
10
72.7024813761187
20
53.0588531909041
30
0
0
VERTEX
8
0
10
73.4927257389026
20
53.4005804094175
30
0
0
VERTEX
8
0
10
74.2829701016865
20
53.7609221296105
30
0
0
VERTEX
8
0
10
75.0732144644704
20
54.1148241515669
30
0
0
VERTEX
8
0
10
75.8634588272543
20
54.4652814104441
30
0
0
VERTEX
8
0
10
76.6537031900382
20
54.8076330823351
30
0
0
VERTEX
8
0
10
77.4439475528221
20
55.1455163022623
30
0
0
VERTEX
8
0
10
78.234191915606
20
55.4800035676734
30
0
0
VERTEX
8
0
10
79.0244362783899
20
55.8111114634909
30
0
0
VERTEX
8
0
10
79.8146806411738
20
56.1134718295075
30
0
0
VERTEX
8
0
10
80.6049250039577
20
56.4206705550473
30
0
0
VERTEX
8
0
10
81.3951693667416
20
56.7245382886036
30
0
0
VERTEX
8
0
10
82.1854137295255
20
56.9947529614195
30
0
0
VERTEX
8
0
10
82.9756580923094
20
57.265322082755
30
0
0
VERTEX
8
0
10
83.7659024550933
20
57.5326306859096
30
0
0
VERTEX
8
0
10
84.5561468178772
20
57.7770286994346
30
0
0
VERTEX
8
0
10
85.3463911806611
20
58.0131907326331
30
0
0
VERTEX
8
0
10
86.136635543445
20
58.2461832528758
30
0
0
VERTEX
8
0
10
86.9268799062288
20
58.4760138895163
30
0
0
VERTEX
8
0
10
87.7171242690127
20
58.6916976485576
30
0
0
VERTEX
8
0
10
88.5073686317966
20
58.907705012339
30
0
0
VERTEX
8
0
10
89.2976129945805
20
59.1205982572933
30
0
0
VERTEX
8
0
10
90.0878573573644
20
59.3366736529419
30
0
0
VERTEX
8
0
10
90.8781017201483
20
59.5489856668435
30
0
0
VERTEX
8
0
10
91.6683460829322
20
59.7581964115704
30
0
0
VERTEX
8
0
10
92.4585904457161
20
59.9527058834247
30
0
0
VERTEX
8
0
10
93.2488348085
20
60.1408081775063
30
0
0
VERTEX
8
0
10
94.0390791712839
20
60.325882935584
30
0
0
VERTEX
8
0
10
94.8293235340678
20
60.5079404782993
30
0
0
VERTEX
8
0
10
95.6195678968517
20
60.6549704554148
30
0
0
VERTEX
8
0
10
96.4098122596356
20
60.8088120534161
30
0
0
VERTEX
8
0
10
97.2000566224195
20
60.9597455197621
30
0
0
VERTEX
8
0
10
97.9903009852034
20
61.0895854164718
30
0
0
VERTEX
8
0
10
98.7805453479873
20
61.2181958000836
30
0
0
VERTEX
8
0
10
99.5707897107712
20
61.3439997640522
30
0
0
VERTEX
8
0
10
100.361034073555
20
61.4435066772355
30
0
0
VERTEX
8
0
10
101.151278436339
20
61.5327639063297
30
0
0
VERTEX
8
0
10
101.941522799123
20
61.6194220753842
30
0
0
VERTEX
8
0
10
102.731767161907
20
61.7034865651668
30
0
0
VERTEX
8
0
10
103.522011524691
20
61.7875172029627
30
0
0
VERTEX
8
0
10
104.312255887475
20
61.8682038255414
30
0
0
VERTEX
8
0
10
105.102500250258
20
61.9463059321349
30
0
0
VERTEX
8
0
10
105.892744613042
20
62.0333610023669
30
0
0
VERTEX
8
0
10
106.682988975826
20
62.1169801719125
30
0
0
VERTEX
8
0
10
107.47323333861
20
62.1979811546707
30
0
0
VERTEX
8
0
10
108.263477701394
20
62.2841960151687
30
0
0
VERTEX
8
0
10
109.053722064178
20
62.3705953742352
30
0
0
VERTEX
8
0
10
109.843966426962
20
62.4543660462054
30
0
0
VERTEX
8
0
10
110.634210789746
20
62.5355244976716
30
0
0
VERTEX
8
0
10
111.42445515253
20
62.5846759352473
30
0
0
VERTEX
8
0
10
112.214699515314
20
62.6397004793412
30
0
0
VERTEX
8
0
10
113.004943878097
20
62.6922686303811
30
0
0
VERTEX
8
0
10
113.795188240881
20
62.7423969900901
30
0
0
VERTEX
8
0
10
114.585432603665
20
62.790102956693
30
0
0
VERTEX
8
0
10
115.375676966449
20
62.8354047284701
30
0
0
VERTEX
8
0
10
116.165921329233
20
62.8746198940716
30
0
0
VERTEX
8
0
10
116.956165692017
20
62.910016167411
30
0
0
VERTEX
8
0
10
117.746410054801
20
62.9430962299513
30
0
0
VERTEX
8
0
10
118.536654417585
20
62.9738809124106
30
0
0
VERTEX
8
0
10
119.326898780369
20
62.9953551266745
30
0
0
VERTEX
8
0
10
120.117143143153
20
63.0165306552394
30
0
0
VERTEX
8
0
10
120.907387505936
20
63.0355074250274
30
0
0
VERTEX
8
0
10
121.69763186872
20
63.0435646491761
30
0
0
VERTEX
8
0
10
122.487876231504
20
63.0498157840611
30
0
0
VERTEX
8
0
10
123.278120594288
20
63.0539935679539
30
0
0
VERTEX
8
0
10
124.068364957072
20
63.0479895863886
30
0
0
VERTEX
8
0
10
124.858609319856
20
63.0364526817719
30
0
0
VERTEX
8
0
10
125.64885368264
20
63.0230025688811
30
0
0
VERTEX
8
0
10
126.439098045424
20
63.0076665068594
30
0
0
VERTEX
8
0
10
127.229342408208
20
63.0016371717935
30
0
0
VERTEX
8
0
10
128.019586770992
20
62.9907908610801
30
0
0
VERTEX
8
0
10
128.809831133775
20
62.9780892595804
30
0
0
VERTEX
8
0
10
129.600075496559
20
62.9619082402756
30
0
0
VERTEX
8
0
10
130.390319859343
20
62.943970755698
30
0
0
VERTEX
8
0
10
131.180564222127
20
62.9242873874642
30
0
0
VERTEX
8
0
10
131.970808584911
20
62.8985345413359
30
0
0
VERTEX
8
0
10
132.761052947695
20
62.8690367338817
30
0
0
VERTEX
8
0
10
133.551297310479
20
62.837945004757
30
0
0
VERTEX
8
0
10
134.341541673263
20
62.8052969123239
30
0
0
VERTEX
8
0
10
135.131786036047
20
62.7690060941294
30
0
0
VERTEX
8
0
10
135.922030398831
20
62.7317828871863
30
0
0
VERTEX
8
0
10
136.712274761615
20
62.6931340853337
30
0
0
VERTEX
8
0
10
137.502519124398
20
62.6577997387103
30
0
0
VERTEX
8
0
10
138.292763487182
20
62.6211202165716
30
0
0
VERTEX
8
0
10
139.083007849966
20
62.5831111968903
30
0
0
VERTEX
8
0
10
139.87325221275
20
62.5499384184788
30
0
0
VERTEX
8
0
10
140.663496575534
20
62.5187200436084
30
0
0
VERTEX
8
0
10
141.453740938318
20
62.4862542478431
30
0
0
VERTEX
8
0
10
142.243985301102
20
62.4525906503563
30
0
0
VERTEX
8
0
10
143.034229663886
20
62.4522615282892
30
0
0
VERTEX
8
0
10
143.82447402667
20
62.4424733765606
30
0
0
VERTEX
8
0
10
144.614718389454
20
62.4315334218449
30
0
0
VERTEX
8
0
10
145.404962752238
20
62.4404888425894
30
0
0
VERTEX
8
0
10
146.195207115022
20
62.4489406031956
30
0
0
VERTEX
8
0
10
146.985451477805
20
62.4563797779226
30
0
0
VERTEX
8
0
10
147.775695840589
20
62.462866272809
30
0
0
VERTEX
8
0
10
148.565940203373
20
62.4684610646019
30
0
0
VERTEX
8
0
10
149.356184566157
20
62.4732262091966
30
0
0
VERTEX
8
0
10
150.146428928941
20
62.4772248496968
30
0
0
VERTEX
8
0
10
150.936673291725
20
62.4805212240596
30
0
0
VERTEX
8
0
10
151.726917654509
20
62.483180672287
30
0
0
VERTEX
8
0
10
152.517162017293
20
62.4852696431162
30
0
0
VERTEX
8
0
10
153.307406380077
20
62.4868557000977
30
0
0
VERTEX
8
0
10
154.097650742861
20
62.4880075265835
30
0
0
VERTEX
8
0
10
154.887895105645
20
62.4887949268277
30
0
0
SEQEND
8
0
0
ENDSEC
0
EOF
