0
SECTION
2
HEADER
9
$ACADVER
1
AC1009
0
ENDSEC
0
SECTION
2
ENTITIES
0
POLYLINE
8
0
62
0
70
1
10
0
20
0
30
0
0
VERTEX
8
0
10
0
20
0
30
0
0
VERTEX
8
0
10
0
20
122.328
30
0
0
VERTEX
8
0
10
179.2
20
122.328
30
0
0
VERTEX
8
0
10
179.2
20
0
30
0
0
SEQEND
8
0
0
TEXT
8
0
62
0
10
0
20
-12
30
0
40
8
1
0
50
0
0
LINE
8
0
62
0
10
11.9466666666667
20
0
30
0
11
11.9466666666667
21
3.2
31
0
0
LINE
8
0
62
0
10
11.9466666666667
20
122.328
30
0
11
11.9466666666667
21
119.128
31
0
0
LINE
8
0
62
0
10
23.8933333333333
20
0
30
0
11
23.8933333333333
21
3.2
31
0
0
LINE
8
0
62
0
10
23.8933333333333
20
122.328
30
0
11
23.8933333333333
21
119.128
31
0
0
LINE
8
0
62
0
10
35.84
20
0
30
0
11
35.84
21
3.2
31
0
0
LINE
8
0
62
0
10
35.84
20
122.328
30
0
11
35.84
21
119.128
31
0
0
LINE
8
0
62
0
10
47.7866666666667
20
0
30
0
11
47.7866666666667
21
3.2
31
0
0
LINE
8
0
62
0
10
47.7866666666667
20
122.328
30
0
11
47.7866666666667
21
119.128
31
0
0
LINE
8
0
62
0
10
59.7333333333333
20
0
30
0
11
59.7333333333333
21
6.4
31
0
0
LINE
8
0
62
0
10
59.7333333333333
20
122.328
30
0
11
59.7333333333333
21
115.928
31
0
0
TEXT
8
0
62
0
10
59.7333333333333
20
-12
30
0
40
8
1
1
50
0
0
LINE
8
0
62
0
10
71.68
20
0
30
0
11
71.68
21
3.2
31
0
0
LINE
8
0
62
0
10
71.68
20
122.328
30
0
11
71.68
21
119.128
31
0
0
LINE
8
0
62
0
10
83.6266666666667
20
0
30
0
11
83.6266666666667
21
3.2
31
0
0
LINE
8
0
62
0
10
83.6266666666667
20
122.328
30
0
11
83.6266666666667
21
119.128
31
0
0
LINE
8
0
62
0
10
95.5733333333333
20
0
30
0
11
95.5733333333333
21
3.2
31
0
0
LINE
8
0
62
0
10
95.5733333333333
20
122.328
30
0
11
95.5733333333333
21
119.128
31
0
0
LINE
8
0
62
0
10
107.52
20
0
30
0
11
107.52
21
3.2
31
0
0
LINE
8
0
62
0
10
107.52
20
122.328
30
0
11
107.52
21
119.128
31
0
0
LINE
8
0
62
0
10
119.466666666667
20
0
30
0
11
119.466666666667
21
6.4
31
0
0
LINE
8
0
62
0
10
119.466666666667
20
122.328
30
0
11
119.466666666667
21
115.928
31
0
0
TEXT
8
0
62
0
10
119.466666666667
20
-12
30
0
40
8
1
2
50
0
0
LINE
8
0
62
0
10
131.413333333333
20
0
30
0
11
131.413333333333
21
3.2
31
0
0
LINE
8
0
62
0
10
131.413333333333
20
122.328
30
0
11
131.413333333333
21
119.128
31
0
0
LINE
8
0
62
0
10
143.36
20
0
30
0
11
143.36
21
3.2
31
0
0
LINE
8
0
62
0
10
143.36
20
122.328
30
0
11
143.36
21
119.128
31
0
0
LINE
8
0
62
0
10
155.306666666667
20
0
30
0
11
155.306666666667
21
3.2
31
0
0
LINE
8
0
62
0
10
155.306666666667
20
122.328
30
0
11
155.306666666667
21
119.128
31
0
0
LINE
8
0
62
0
10
167.253333333333
20
0
30
0
11
167.253333333333
21
3.2
31
0
0
LINE
8
0
62
0
10
167.253333333333
20
122.328
30
0
11
167.253333333333
21
119.128
31
0
0
LINE
8
0
62
0
10
179.2
20
0
30
0
11
179.2
21
6.4
31
0
0
LINE
8
0
62
0
10
179.2
20
122.328
30
0
11
179.2
21
115.928
31
0
0
TEXT
8
0
62
0
10
179.2
20
-12
30
0
40
8
1
3
50
0
0
TEXT
8
0
62
0
10
-4
20
-4
30
0
40
8
1
0
50
0
0
LINE
8
0
62
0
10
0
20
4.89312
30
0
11
3.2
21
4.89312
31
0
0
LINE
8
0
62
0
10
179.2
20
4.89312
30
0
11
176
21
4.89312
31
0
0
LINE
8
0
62
0
10
0
20
9.78624
30
0
11
3.2
21
9.78624
31
0
0
LINE
8
0
62
0
10
179.2
20
9.78624
30
0
11
176
21
9.78624
31
0
0
LINE
8
0
62
0
10
0
20
14.67936
30
0
11
3.2
21
14.67936
31
0
0
LINE
8
0
62
0
10
179.2
20
14.67936
30
0
11
176
21
14.67936
31
0
0
LINE
8
0
62
0
10
0
20
19.57248
30
0
11
3.2
21
19.57248
31
0
0
LINE
8
0
62
0
10
179.2
20
19.57248
30
0
11
176
21
19.57248
31
0
0
LINE
8
0
62
0
10
0
20
24.4656
30
0
11
6.4
21
24.4656
31
0
0
LINE
8
0
62
0
10
179.2
20
24.4656
30
0
11
172.8
21
24.4656
31
0
0
TEXT
8
0
62
0
10
-4
20
20.4656
30
0
40
8
1
10
50
0
0
LINE
8
0
62
0
10
0
20
29.35872
30
0
11
3.2
21
29.35872
31
0
0
LINE
8
0
62
0
10
179.2
20
29.35872
30
0
11
176
21
29.35872
31
0
0
LINE
8
0
62
0
10
0
20
34.25184
30
0
11
3.2
21
34.25184
31
0
0
LINE
8
0
62
0
10
179.2
20
34.25184
30
0
11
176
21
34.25184
31
0
0
LINE
8
0
62
0
10
0
20
39.14496
30
0
11
3.2
21
39.14496
31
0
0
LINE
8
0
62
0
10
179.2
20
39.14496
30
0
11
176
21
39.14496
31
0
0
LINE
8
0
62
0
10
0
20
44.03808
30
0
11
3.2
21
44.03808
31
0
0
LINE
8
0
62
0
10
179.2
20
44.03808
30
0
11
176
21
44.03808
31
0
0
LINE
8
0
62
0
10
0
20
48.9312
30
0
11
6.4
21
48.9312
31
0
0
LINE
8
0
62
0
10
179.2
20
48.9312
30
0
11
172.8
21
48.9312
31
0
0
TEXT
8
0
62
0
10
-4
20
44.9312
30
0
40
8
1
20
50
0
0
LINE
8
0
62
0
10
0
20
53.82432
30
0
11
3.2
21
53.82432
31
0
0
LINE
8
0
62
0
10
179.2
20
53.82432
30
0
11
176
21
53.82432
31
0
0
LINE
8
0
62
0
10
0
20
58.71744
30
0
11
3.2
21
58.71744
31
0
0
LINE
8
0
62
0
10
179.2
20
58.71744
30
0
11
176
21
58.71744
31
0
0
LINE
8
0
62
0
10
0
20
63.61056
30
0
11
3.2
21
63.61056
31
0
0
LINE
8
0
62
0
10
179.2
20
63.61056
30
0
11
176
21
63.61056
31
0
0
LINE
8
0
62
0
10
0
20
68.50368
30
0
11
3.2
21
68.50368
31
0
0
LINE
8
0
62
0
10
179.2
20
68.50368
30
0
11
176
21
68.50368
31
0
0
LINE
8
0
62
0
10
0
20
73.3968
30
0
11
6.4
21
73.3968
31
0
0
LINE
8
0
62
0
10
179.2
20
73.3968
30
0
11
172.8
21
73.3968
31
0
0
TEXT
8
0
62
0
10
-4
20
69.3968
30
0
40
8
1
30
50
0
0
LINE
8
0
62
0
10
0
20
78.28992
30
0
11
3.2
21
78.28992
31
0
0
LINE
8
0
62
0
10
179.2
20
78.28992
30
0
11
176
21
78.28992
31
0
0
LINE
8
0
62
0
10
0
20
83.18304
30
0
11
3.2
21
83.18304
31
0
0
LINE
8
0
62
0
10
179.2
20
83.18304
30
0
11
176
21
83.18304
31
0
0
LINE
8
0
62
0
10
0
20
88.07616
30
0
11
3.2
21
88.07616
31
0
0
LINE
8
0
62
0
10
179.2
20
88.07616
30
0
11
176
21
88.07616
31
0
0
LINE
8
0
62
0
10
0
20
92.96928
30
0
11
3.2
21
92.96928
31
0
0
LINE
8
0
62
0
10
179.2
20
92.96928
30
0
11
176
21
92.96928
31
0
0
LINE
8
0
62
0
10
0
20
97.8624
30
0
11
6.4
21
97.8624
31
0
0
LINE
8
0
62
0
10
179.2
20
97.8624
30
0
11
172.8
21
97.8624
31
0
0
TEXT
8
0
62
0
10
-4
20
93.8624
30
0
40
8
1
40
50
0
0
LINE
8
0
62
0
10
0
20
102.75552
30
0
11
3.2
21
102.75552
31
0
0
LINE
8
0
62
0
10
179.2
20
102.75552
30
0
11
176
21
102.75552
31
0
0
LINE
8
0
62
0
10
0
20
107.64864
30
0
11
3.2
21
107.64864
31
0
0
LINE
8
0
62
0
10
179.2
20
107.64864
30
0
11
176
21
107.64864
31
0
0
LINE
8
0
62
0
10
0
20
112.54176
30
0
11
3.2
21
112.54176
31
0
0
LINE
8
0
62
0
10
179.2
20
112.54176
30
0
11
176
21
112.54176
31
0
0
LINE
8
0
62
0
10
0
20
117.43488
30
0
11
3.2
21
117.43488
31
0
0
LINE
8
0
62
0
10
179.2
20
117.43488
30
0
11
176
21
117.43488
31
0
0
TEXT
8
0
62
0
10
-4
20
118.328
30
0
40
8
1
50
50
0
0
TEXT
8
0
62
0
10
89.6
20
-32
30
0
40
10
1
R (kpc)
50
0
0
TEXT
8
0
62
0
10
-24
20
61.164
30
0
40
10
1
V (km/s)
50
90
0
TEXT
8
0
62
0
10
72.6
20
137.328
30
0
40
11
1
V vs. R
50
0
0
POLYLINE
8
0
62
5
70
0
10
0
20
0
30
0
0
VERTEX
8
0
10
10.752
20
3.75396223631698
30
0
0
VERTEX
8
0
10
11.3493333333333
20
3.82129039700971
30
0
0
VERTEX
8
0
10
11.9466666666667
20
3.93207242673385
30
0
0
VERTEX
8
0
10
12.544
20
4.04285445645799
30
0
0
VERTEX
8
0
10
13.1413333333333
20
4.15363648618213
30
0
0
VERTEX
8
0
10
13.7386666666667
20
4.26441851590627
30
0
0
VERTEX
8
0
10
14.336
20
4.34132897257759
30
0
0
VERTEX
8
0
10
14.9333333333333
20
4.42245430616692
30
0
0
VERTEX
8
0
10
15.5306666666667
20
4.50357963975624
30
0
0
VERTEX
8
0
10
16.128
20
4.58470497334557
30
0
0
VERTEX
8
0
10
16.7253333333333
20
4.64153417598694
30
0
0
VERTEX
8
0
10
17.3226666666667
20
4.68490214181204
30
0
0
VERTEX
8
0
10
17.92
20
4.72827010763714
30
0
0
VERTEX
8
0
10
18.5173333333333
20
4.77163807346224
30
0
0
VERTEX
8
0
10
19.1146666666667
20
4.81500603928733
30
0
0
VERTEX
8
0
10
19.712
20
4.83023251672753
30
0
0
VERTEX
8
0
10
20.3093333333333
20
4.85204445804723
30
0
0
VERTEX
8
0
10
20.9066666666667
20
4.87385639936692
30
0
0
VERTEX
8
0
10
21.504
20
4.89566834068662
30
0
0
VERTEX
8
0
10
22.1013333333333
20
4.89774681175722
30
0
0
VERTEX
8
0
10
22.6986666666667
20
4.8973162309758
30
0
0
VERTEX
8
0
10
23.296
20
4.89688565019439
30
0
0
VERTEX
8
0
10
23.8933333333333
20
4.89645506941297
30
0
0
VERTEX
8
0
10
24.4906666666667
20
4.89602448863156
30
0
0
VERTEX
8
0
10
25.088
20
4.93552604486861
30
0
0
VERTEX
8
0
10
25.6853333333333
20
4.96228076887744
30
0
0
VERTEX
8
0
10
26.2826666666667
20
4.98903549288628
30
0
0
VERTEX
8
0
10
26.88
20
5.01579021689511
30
0
0
VERTEX
8
0
10
27.4773333333333
20
5.078894392487
30
0
0
VERTEX
8
0
10
28.0746666666667
20
5.14024859531978
30
0
0
VERTEX
8
0
10
28.672
20
5.20160279815257
30
0
0
VERTEX
8
0
10
29.2693333333333
20
5.26295700098535
30
0
0
VERTEX
8
0
10
29.8666666666667
20
5.34462480261939
30
0
0
VERTEX
8
0
10
30.464
20
5.43810709293156
30
0
0
VERTEX
8
0
10
31.0613333333333
20
5.53158938324373
30
0
0
VERTEX
8
0
10
31.6586666666667
20
5.62507167355589
30
0
0
VERTEX
8
0
10
32.256
20
5.71855396386806
30
0
0
VERTEX
8
0
10
32.8533333333333
20
5.77303403128258
30
0
0
VERTEX
8
0
10
33.4506666666667
20
5.83438823411536
30
0
0
VERTEX
8
0
10
34.048
20
5.89574243694814
30
0
0
VERTEX
8
0
10
34.6453333333333
20
5.95709663978092
30
0
0
VERTEX
8
0
10
35.2426666666667
20
6.01648447649719
30
0
0
VERTEX
8
0
10
35.84
20
6.07536728798541
30
0
0
VERTEX
8
0
10
36.4373333333333
20
6.13425009947363
30
0
0
VERTEX
8
0
10
37.0346666666667
20
6.19313291096185
30
0
0
VERTEX
8
0
10
37.632
20
6.25201572245007
30
0
0
VERTEX
8
0
10
38.2293333333334
20
6.25983924515635
30
0
0
VERTEX
8
0
10
38.8266666666667
20
6.28165118647604
30
0
0
VERTEX
8
0
10
39.424
20
6.30346312779573
30
0
0
VERTEX
8
0
10
40.0213333333334
20
6.32527506911542
30
0
0
VERTEX
8
0
10
40.6186666666667
20
6.36604819211388
30
0
0
VERTEX
8
0
10
41.216
20
6.40763126419012
30
0
0
VERTEX
8
0
10
41.8133333333334
20
6.44921433626636
30
0
0
VERTEX
8
0
10
42.4106666666667
20
6.4907974083426
30
0
0
VERTEX
8
0
10
43.008
20
6.52569876624769
30
0
0
VERTEX
8
0
10
43.6053333333334
20
6.5549248816011
30
0
0
VERTEX
8
0
10
44.2026666666667
20
6.5841509969545
30
0
0
VERTEX
8
0
10
44.8
20
6.6133771123079
30
0
0
VERTEX
8
0
10
45.3973333333334
20
6.64260322766131
30
0
0
VERTEX
8
0
10
45.9946666666667
20
6.69402077744016
30
0
0
VERTEX
8
0
10
46.592
20
6.7430180235501
30
0
0
VERTEX
8
0
10
47.1893333333334
20
6.79201526966004
30
0
0
VERTEX
8
0
10
47.7866666666667
20
6.84101251576999
30
0
0
VERTEX
8
0
10
48.384
20
6.88478938859723
30
0
0
VERTEX
8
0
10
48.9813333333334
20
6.92637246067347
30
0
0
VERTEX
8
0
10
49.5786666666667
20
6.9679555327497
30
0
0
VERTEX
8
0
10
50.176
20
7.00953860482594
30
0
0
VERTEX
8
0
10
50.7733333333334
20
7.05112167690217
30
0
0
VERTEX
8
0
10
51.3706666666667
20
7.10541559256448
30
0
0
VERTEX
8
0
10
51.968
20
7.15688423001899
30
0
0
VERTEX
8
0
10
52.5653333333334
20
7.2083528674735
30
0
0
VERTEX
8
0
10
53.1626666666667
20
7.25982150492801
30
0
0
VERTEX
8
0
10
53.76
20
7.29199498819442
30
0
0
VERTEX
8
0
10
54.3573333333334
20
7.32122110354782
30
0
0
VERTEX
8
0
10
54.9546666666667
20
7.35044721890122
30
0
0
VERTEX
8
0
10
55.552
20
7.37967333425463
30
0
0
VERTEX
8
0
10
56.1493333333334
20
7.40889944960803
30
0
0
VERTEX
8
0
10
56.7466666666667
20
7.43454407247157
30
0
0
VERTEX
8
0
10
57.344
20
7.4612987964804
30
0
0
VERTEX
8
0
10
57.9413333333334
20
7.48805352048923
30
0
0
VERTEX
8
0
10
58.5386666666667
20
7.51480824449806
30
0
0
VERTEX
8
0
10
59.136
20
7.55175371896383
30
0
0
VERTEX
8
0
10
59.7333333333334
20
7.58839400835093
30
0
0
VERTEX
8
0
10
60.3306666666667
20
7.62503429773804
30
0
0
VERTEX
8
0
10
60.928
20
7.66167458712514
30
0
0
VERTEX
8
0
10
61.5253333333334
20
7.68620381460327
30
0
0
VERTEX
8
0
10
62.1226666666667
20
7.70307297323384
30
0
0
VERTEX
8
0
10
62.72
20
7.7199421318644
30
0
0
VERTEX
8
0
10
63.3173333333334
20
7.73681129049497
30
0
0
VERTEX
8
0
10
63.9146666666667
20
7.75368044912553
30
0
0
VERTEX
8
0
10
64.512
20
7.80006429983181
30
0
0
VERTEX
8
0
10
65.1093333333334
20
7.84164737190805
30
0
0
VERTEX
8
0
10
65.7066666666667
20
7.88323044398428
30
0
0
VERTEX
8
0
10
66.304
20
7.92481351606052
30
0
0
VERTEX
8
0
10
66.9013333333334
20
7.94338461615328
30
0
0
VERTEX
8
0
10
67.4986666666667
20
7.9553109920947
30
0
0
VERTEX
8
0
10
68.096
20
7.96723736803613
30
0
0
VERTEX
8
0
10
68.6933333333334
20
7.97916374397756
30
0
0
VERTEX
8
0
10
69.2906666666667
20
7.99109011991898
30
0
0
VERTEX
8
0
10
69.888
20
8.02985850226768
30
0
0
VERTEX
8
0
10
70.4853333333334
20
8.06155600896565
30
0
0
VERTEX
8
0
10
71.0826666666667
20
8.09325351566362
30
0
0
VERTEX
8
0
10
71.68
20
8.12495102236159
30
0
0
VERTEX
8
0
10
72.2773333333334
20
8.14736274535839
30
0
0
VERTEX
8
0
10
72.8746666666667
20
8.16917468667808
30
0
0
VERTEX
8
0
10
73.4720000000001
20
8.19098662799778
30
0
0
VERTEX
8
0
10
74.0693333333334
20
8.21279856931747
30
0
0
VERTEX
8
0
10
74.6666666666667
20
8.22302174119008
30
0
0
VERTEX
8
0
10
75.2640000000001
20
8.22259116040867
30
0
0
VERTEX
8
0
10
75.8613333333334
20
8.22216057962725
30
0
0
VERTEX
8
0
10
76.4586666666667
20
8.22172999884583
30
0
0
VERTEX
8
0
10
77.0560000000001
20
8.22129941806442
30
0
0
VERTEX
8
0
10
77.6533333333334
20
8.25084633998791
30
0
0
VERTEX
8
0
10
78.2506666666667
20
8.27760106399674
30
0
0
VERTEX
8
0
10
78.848
20
8.30435578800558
30
0
0
VERTEX
8
0
10
79.4453333333334
20
8.33111051201441
30
0
0
VERTEX
8
0
10
80.0426666666667
20
8.35786523602324
30
0
0
VERTEX
8
0
10
80.64
20
8.38461996003207
30
0
0
VERTEX
8
0
10
81.2373333333334
20
8.41137468404091
30
0
0
VERTEX
8
0
10
81.8346666666667
20
8.43812940804974
30
0
0
VERTEX
8
0
10
82.432
20
8.46488413205857
30
0
0
VERTEX
8
0
10
83.0293333333334
20
8.4572197558358
30
0
0
VERTEX
8
0
10
83.6266666666667
20
8.45678917505438
30
0
0
VERTEX
8
0
10
84.224
20
8.45635859427297
30
0
0
VERTEX
8
0
10
84.8213333333334
20
8.45592801349155
30
0
0
VERTEX
8
0
10
85.4186666666667
20
8.45549743271014
30
0
0
VERTEX
8
0
10
86.016
20
8.45506685192873
30
0
0
VERTEX
8
0
10
86.6133333333334
20
8.45463627114731
30
0
0
VERTEX
8
0
10
87.2106666666667
20
8.4542056903659
30
0
0
VERTEX
8
0
10
87.8080000000001
20
8.45377510958449
30
0
0
VERTEX
8
0
10
88.4053333333334
20
8.52046755220376
30
0
0
VERTEX
8
0
10
89.0026666666667
20
8.56699340696913
30
0
0
VERTEX
8
0
10
89.6000000000001
20
8.61351926173451
30
0
0
VERTEX
8
0
10
90.1973333333334
20
8.66004511649988
30
0
0
VERTEX
8
0
10
90.7946666666667
20
8.66658719799032
30
0
0
VERTEX
8
0
10
91.3920000000001
20
8.6735707912426
30
0
0
VERTEX
8
0
10
91.9893333333334
20
8.68055438449488
30
0
0
VERTEX
8
0
10
92.5866666666667
20
8.68753797774717
30
0
0
VERTEX
8
0
10
93.1840000000001
20
8.69012602813725
30
0
0
VERTEX
8
0
10
93.7813333333334
20
8.68969544735584
30
0
0
VERTEX
8
0
10
94.3786666666667
20
8.68926486657443
30
0
0
VERTEX
8
0
10
94.9760000000001
20
8.68883428579302
30
0
0
VERTEX
8
0
10
95.5733333333334
20
8.68840370501161
30
0
0
VERTEX
8
0
10
96.1706666666667
20
8.68797312423019
30
0
0
VERTEX
8
0
10
96.7680000000001
20
8.68754254344877
30
0
0
VERTEX
8
0
10
97.3653333333334
20
8.68711196266736
30
0
0
VERTEX
8
0
10
97.9626666666667
20
8.68668138188594
30
0
0
VERTEX
8
0
10
98.5600000000001
20
8.68625080110452
30
0
0
VERTEX
8
0
10
99.1573333333334
20
8.68582022032311
30
0
0
VERTEX
8
0
10
99.7546666666667
20
8.68538963954169
30
0
0
VERTEX
8
0
10
100.352
20
8.68495905876028
30
0
0
VERTEX
8
0
10
100.949333333333
20
8.68452847797886
30
0
0
VERTEX
8
0
10
101.546666666667
20
8.68409789719745
30
0
0
VERTEX
8
0
10
102.144
20
8.68366731641603
30
0
0
VERTEX
8
0
10
102.741333333333
20
8.68323673563462
30
0
0
VERTEX
8
0
10
103.338666666667
20
8.68280615485321
30
0
0
VERTEX
8
0
10
103.936
20
8.68237557407179
30
0
0
VERTEX
8
0
10
104.533333333333
20
8.68194499329038
30
0
0
VERTEX
8
0
10
105.130666666667
20
8.68151441250896
30
0
0
VERTEX
8
0
10
105.728
20
8.68108383172754
30
0
0
VERTEX
8
0
10
106.325333333333
20
8.70419309698347
30
0
0
VERTEX
8
0
10
106.922666666667
20
8.75071895174884
30
0
0
VERTEX
8
0
10
107.52
20
8.79724480651422
30
0
0
VERTEX
8
0
10
108.117333333333
20
8.8437706612796
30
0
0
VERTEX
8
0
10
108.714666666667
20
8.89029651604497
30
0
0
VERTEX
8
0
10
109.312
20
8.89399795906515
30
0
0
VERTEX
8
0
10
109.909333333333
20
8.90098155231744
30
0
0
VERTEX
8
0
10
110.506666666667
20
8.90796514556973
30
0
0
VERTEX
8
0
10
111.104
20
8.91494873882202
30
0
0
VERTEX
8
0
10
111.701333333333
20
8.91700416949893
30
0
0
VERTEX
8
0
10
112.298666666667
20
8.91657358871751
30
0
0
VERTEX
8
0
10
112.896
20
8.9161430079361
30
0
0
VERTEX
8
0
10
113.493333333333
20
8.91571242715468
30
0
0
VERTEX
8
0
10
114.090666666667
20
8.91528184637326
30
0
0
VERTEX
8
0
10
114.688
20
8.91485126559185
30
0
0
VERTEX
8
0
10
115.285333333333
20
8.91442068481043
30
0
0
VERTEX
8
0
10
115.882666666667
20
8.91399010402901
30
0
0
VERTEX
8
0
10
116.48
20
8.9135595232476
30
0
0
VERTEX
8
0
10
117.077333333333
20
8.91312894246619
30
0
0
VERTEX
8
0
10
117.674666666667
20
8.91269836168477
30
0
0
VERTEX
8
0
10
118.272
20
8.91226778090336
30
0
0
VERTEX
8
0
10
118.869333333333
20
8.91183720012195
30
0
0
VERTEX
8
0
10
119.466666666667
20
8.91140661934054
30
0
0
VERTEX
8
0
10
120.064
20
8.91097603855912
30
0
0
VERTEX
8
0
10
120.661333333333
20
8.9105454577777
30
0
0
VERTEX
8
0
10
121.258666666667
20
8.91011487699629
30
0
0
VERTEX
8
0
10
121.856
20
8.90968429621487
30
0
0
VERTEX
8
0
10
122.453333333333
20
8.90925371543345
30
0
0
VERTEX
8
0
10
123.050666666667
20
8.90882313465204
30
0
0
VERTEX
8
0
10
123.648
20
8.90839255387062
30
0
0
VERTEX
8
0
10
124.245333333333
20
8.90796197308921
30
0
0
VERTEX
8
0
10
124.842666666667
20
8.90753139230779
30
0
0
VERTEX
8
0
10
125.44
20
8.90710081152638
30
0
0
VERTEX
8
0
10
126.037333333333
20
8.90667023074497
30
0
0
VERTEX
8
0
10
126.634666666667
20
8.90623964996355
30
0
0
VERTEX
8
0
10
127.232
20
8.90580906918214
30
0
0
VERTEX
8
0
10
127.829333333333
20
8.90537848840072
30
0
0
VERTEX
8
0
10
128.426666666667
20
8.90494790761931
30
0
0
VERTEX
8
0
10
129.024
20
8.90451732683789
30
0
0
VERTEX
8
0
10
129.621333333333
20
8.90408674605647
30
0
0
VERTEX
8
0
10
130.218666666667
20
8.90365616527506
30
0
0
VERTEX
8
0
10
130.816
20
8.90322558449364
30
0
0
VERTEX
8
0
10
131.413333333333
20
8.90279500371223
30
0
0
VERTEX
8
0
10
132.010666666666
20
8.90236442293081
30
0
0
VERTEX
8
0
10
132.608
20
8.90193384214939
30
0
0
VERTEX
8
0
10
133.205333333333
20
8.90150326136798
30
0
0
VERTEX
8
0
10
133.802666666666
20
8.90107268058656
30
0
0
VERTEX
8
0
10
134.4
20
8.90064209980515
30
0
0
VERTEX
8
0
10
134.997333333333
20
8.90021151902373
30
0
0
VERTEX
8
0
10
135.594666666666
20
8.92424540416034
30
0
0
VERTEX
8
0
10
136.192
20
8.95100012816918
30
0
0
VERTEX
8
0
10
136.789333333333
20
8.97775485217801
30
0
0
VERTEX
8
0
10
137.386666666666
20
9.00450957618685
30
0
0
VERTEX
8
0
10
137.984
20
9.03126430019569
30
0
0
VERTEX
8
0
10
138.581333333333
20
9.05801902420451
30
0
0
VERTEX
8
0
10
139.178666666666
20
9.08477374821334
30
0
0
VERTEX
8
0
10
139.776
20
9.11152847222217
30
0
0
VERTEX
8
0
10
140.373333333333
20
9.138283196231
30
0
0
VERTEX
8
0
10
140.970666666666
20
9.13613185679511
30
0
0
VERTEX
8
0
10
141.568
20
9.1357012760137
30
0
0
VERTEX
8
0
10
142.165333333333
20
9.13527069523228
30
0
0
VERTEX
8
0
10
142.762666666666
20
9.13484011445086
30
0
0
VERTEX
8
0
10
143.36
20
9.13440953366945
30
0
0
VERTEX
8
0
10
143.957333333333
20
9.13397895288804
30
0
0
VERTEX
8
0
10
144.554666666666
20
9.13354837210663
30
0
0
VERTEX
8
0
10
145.152
20
9.13311779132521
30
0
0
VERTEX
8
0
10
145.749333333333
20
9.1326872105438
30
0
0
VERTEX
8
0
10
146.346666666666
20
9.13225662976238
30
0
0
VERTEX
8
0
10
146.943999999999
20
9.13182604898097
30
0
0
VERTEX
8
0
10
147.541333333333
20
9.13139546819955
30
0
0
VERTEX
8
0
10
148.138666666666
20
9.13096488741813
30
0
0
VERTEX
8
0
10
148.735999999999
20
9.13053430663672
30
0
0
VERTEX
8
0
10
149.333333333333
20
9.1301037258553
30
0
0
VERTEX
8
0
10
149.930666666666
20
9.12967314507389
30
0
0
VERTEX
8
0
10
150.527999999999
20
9.12924256429247
30
0
0
VERTEX
8
0
10
151.125333333333
20
9.12881198351105
30
0
0
VERTEX
8
0
10
151.722666666666
20
9.0768505956868
30
0
0
VERTEX
8
0
10
152.319999999999
20
9.03934914473688
30
0
0
VERTEX
8
0
10
152.917333333333
20
9.00184769378695
30
0
0
VERTEX
8
0
10
153.514666666666
20
8.96434624283703
30
0
0
VERTEX
8
0
10
154.111999999999
20
8.9382122812538
30
0
0
VERTEX
8
0
10
154.709333333333
20
8.91240874933482
30
0
0
VERTEX
8
0
10
155.306666666666
20
8.88660521741583
30
0
0
SEQEND
8
0
0
POLYLINE
8
0
62
6
70
0
10
0
20
0
30
0
0
VERTEX
8
0
10
10.752
20
0.706666202770249
30
0
0
VERTEX
8
0
10
11.3493333333333
20
1.15850023804475
30
0
0
VERTEX
8
0
10
11.9466666666667
20
1.61033427331926
30
0
0
VERTEX
8
0
10
12.544
20
2.06216830859376
30
0
0
VERTEX
8
0
10
13.1413333333333
20
2.51400234386826
30
0
0
VERTEX
8
0
10
13.7386666666667
20
2.9752437475065
30
0
0
VERTEX
8
0
10
14.336
20
3.44437752219299
30
0
0
VERTEX
8
0
10
14.9333333333333
20
3.91351129687947
30
0
0
VERTEX
8
0
10
15.5306666666667
20
4.38264507156596
30
0
0
VERTEX
8
0
10
16.128
20
4.85177884625244
30
0
0
VERTEX
8
0
10
16.7253333333333
20
5.28753466611653
30
0
0
VERTEX
8
0
10
17.3226666666667
20
5.7270117446682
30
0
0
VERTEX
8
0
10
17.92
20
6.16648882321987
30
0
0
VERTEX
8
0
10
18.5173333333333
20
6.60596590177154
30
0
0
VERTEX
8
0
10
19.1146666666667
20
7.02447068400821
30
0
0
VERTEX
8
0
10
19.712
20
7.43429106642506
30
0
0
VERTEX
8
0
10
20.3093333333333
20
7.84411144884191
30
0
0
VERTEX
8
0
10
20.9066666666667
20
8.25393183125877
30
0
0
VERTEX
8
0
10
21.504
20
8.66375221367562
30
0
0
VERTEX
8
0
10
22.1013333333333
20
9.04490509563567
30
0
0
VERTEX
8
0
10
22.6986666666667
20
9.43248295595142
30
0
0
VERTEX
8
0
10
23.296
20
9.82006081626717
30
0
0
VERTEX
8
0
10
23.8933333333333
20
10.2076386765829
30
0
0
VERTEX
8
0
10
24.4906666666667
20
10.6059739016633
30
0
0
VERTEX
8
0
10
25.088
20
11.0059087187018
30
0
0
VERTEX
8
0
10
25.6853333333333
20
11.4058435357404
30
0
0
VERTEX
8
0
10
26.2826666666667
20
11.805778352779
30
0
0
VERTEX
8
0
10
26.88
20
12.2057131698176
30
0
0
VERTEX
8
0
10
27.4773333333333
20
12.6020589274343
30
0
0
VERTEX
8
0
10
28.0746666666667
20
12.9995223531283
30
0
0
VERTEX
8
0
10
28.672
20
13.3969857788223
30
0
0
VERTEX
8
0
10
29.2693333333333
20
13.7944492045163
30
0
0
VERTEX
8
0
10
29.8666666666667
20
14.2021336483953
30
0
0
VERTEX
8
0
10
30.464
20
14.6094826394676
30
0
0
VERTEX
8
0
10
31.0613333333333
20
15.0168316305399
30
0
0
VERTEX
8
0
10
31.6586666666667
20
15.4241806216122
30
0
0
VERTEX
8
0
10
32.256
20
15.8558728074147
30
0
0
VERTEX
8
0
10
32.8533333333333
20
16.3027640600001
30
0
0
VERTEX
8
0
10
33.4506666666667
20
16.7496553125855
30
0
0
VERTEX
8
0
10
34.048
20
17.1965465651708
30
0
0
VERTEX
8
0
10
34.6453333333333
20
17.6434378177562
30
0
0
VERTEX
8
0
10
35.2426666666667
20
18.1021652148999
30
0
0
VERTEX
8
0
10
35.84
20
18.5589420328636
30
0
0
VERTEX
8
0
10
36.4373333333333
20
19.0157188508272
30
0
0
VERTEX
8
0
10
37.0346666666667
20
19.4724956687909
30
0
0
VERTEX
8
0
10
37.632
20
19.9215715616986
30
0
0
VERTEX
8
0
10
38.2293333333334
20
20.368462814284
30
0
0
VERTEX
8
0
10
38.8266666666667
20
20.8153540668694
30
0
0
VERTEX
8
0
10
39.424
20
21.2622453194547
30
0
0
VERTEX
8
0
10
40.0213333333334
20
21.7091365720401
30
0
0
VERTEX
8
0
10
40.6186666666667
20
22.1190368295633
30
0
0
VERTEX
8
0
10
41.216
20
22.5387427773584
30
0
0
VERTEX
8
0
10
41.8133333333334
20
22.9584487251535
30
0
0
VERTEX
8
0
10
42.4106666666667
20
23.3781546729487
30
0
0
VERTEX
8
0
10
43.008
20
23.7745704921707
30
0
0
VERTEX
8
0
10
43.6053333333334
20
24.1695625265201
30
0
0
VERTEX
8
0
10
44.2026666666667
20
24.5645545608696
30
0
0
VERTEX
8
0
10
44.8
20
24.959546595219
30
0
0
VERTEX
8
0
10
45.3973333333334
20
25.3687859173671
30
0
0
VERTEX
8
0
10
45.9946666666667
20
25.7909632565068
30
0
0
VERTEX
8
0
10
46.592
20
26.2131405956465
30
0
0
VERTEX
8
0
10
47.1893333333334
20
26.6353179347862
30
0
0
VERTEX
8
0
10
47.7866666666667
20
27.0574952739259
30
0
0
VERTEX
8
0
10
48.384
20
27.4195511351514
30
0
0
VERTEX
8
0
10
48.9813333333334
20
27.7873578647106
30
0
0
VERTEX
8
0
10
49.5786666666667
20
28.1551645942698
30
0
0
VERTEX
8
0
10
50.176
20
28.522971323829
30
0
0
VERTEX
8
0
10
50.7733333333334
20
28.8330124078372
30
0
0
VERTEX
8
0
10
51.3706666666667
20
29.116791831681
30
0
0
VERTEX
8
0
10
51.968
20
29.4005712555249
30
0
0
VERTEX
8
0
10
52.5653333333334
20
29.6843506793688
30
0
0
VERTEX
8
0
10
53.1626666666667
20
29.9681301032127
30
0
0
VERTEX
8
0
10
53.76
20
30.2174071905728
30
0
0
VERTEX
8
0
10
54.3573333333334
20
30.4740013096265
30
0
0
VERTEX
8
0
10
54.9546666666667
20
30.7305954286801
30
0
0
VERTEX
8
0
10
55.552
20
30.9871895477337
30
0
0
VERTEX
8
0
10
56.1493333333334
20
31.2290642686088
30
0
0
VERTEX
8
0
10
56.7466666666667
20
31.4683586482505
30
0
0
VERTEX
8
0
10
57.344
20
31.7076530278922
30
0
0
VERTEX
8
0
10
57.9413333333334
20
31.9469474075338
30
0
0
VERTEX
8
0
10
58.5386666666667
20
32.1862417871755
30
0
0
VERTEX
8
0
10
59.136
20
32.3936729480813
30
0
0
VERTEX
8
0
10
59.7333333333334
20
32.6107248056219
30
0
0
VERTEX
8
0
10
60.3306666666667
20
32.8277766631624
30
0
0
VERTEX
8
0
10
60.928
20
33.044828520703
30
0
0
VERTEX
8
0
10
61.5253333333334
20
33.2318017451031
30
0
0
VERTEX
8
0
10
62.1226666666667
20
33.4191969065089
30
0
0
VERTEX
8
0
10
62.72
20
33.6065920679146
30
0
0
VERTEX
8
0
10
63.3173333333334
20
33.7939872293204
30
0
0
VERTEX
8
0
10
63.9146666666667
20
33.9725459034096
30
0
0
VERTEX
8
0
10
64.512
20
34.1451127167479
30
0
0
VERTEX
8
0
10
65.1093333333334
20
34.3176795300863
30
0
0
VERTEX
8
0
10
65.7066666666667
20
34.4902463434246
30
0
0
VERTEX
8
0
10
66.304
20
34.662813156763
30
0
0
VERTEX
8
0
10
66.9013333333334
20
34.7829939517106
30
0
0
VERTEX
8
0
10
67.4986666666667
20
34.9110757208467
30
0
0
VERTEX
8
0
10
68.096
20
35.0391574899828
30
0
0
VERTEX
8
0
10
68.6933333333334
20
35.167239259119
30
0
0
VERTEX
8
0
10
69.2906666666667
20
35.2821853218991
30
0
0
VERTEX
8
0
10
69.888
20
35.3929673516233
30
0
0
VERTEX
8
0
10
70.4853333333334
20
35.5037493813474
30
0
0
VERTEX
8
0
10
71.0826666666667
20
35.6145314110715
30
0
0
VERTEX
8
0
10
71.68
20
35.7253134407957
30
0
0
VERTEX
8
0
10
72.2773333333334
20
35.7797554993975
30
0
0
VERTEX
8
0
10
72.8746666666667
20
35.848523876264
30
0
0
VERTEX
8
0
10
73.4720000000001
20
35.9172922531305
30
0
0
VERTEX
8
0
10
74.0693333333334
20
35.9860606299969
30
0
0
VERTEX
8
0
10
74.6666666666667
20
36.0548290068634
30
0
0
VERTEX
8
0
10
75.2640000000001
20
36.1235973837299
30
0
0
VERTEX
8
0
10
75.8613333333334
20
36.1923657605964
30
0
0
VERTEX
8
0
10
76.4586666666667
20
36.2611341374629
30
0
0
VERTEX
8
0
10
77.0560000000001
20
36.326162995738
30
0
0
VERTEX
8
0
10
77.6533333333334
20
36.3875171985707
30
0
0
VERTEX
8
0
10
78.2506666666667
20
36.4488714014035
30
0
0
VERTEX
8
0
10
78.848
20
36.5102256042363
30
0
0
VERTEX
8
0
10
79.4453333333334
20
36.5715798070691
30
0
0
VERTEX
8
0
10
80.0426666666667
20
36.6195135465714
30
0
0
VERTEX
8
0
10
80.64
20
36.6685107926813
30
0
0
VERTEX
8
0
10
81.2373333333334
20
36.7175080387913
30
0
0
VERTEX
8
0
10
81.8346666666667
20
36.7665052849012
30
0
0
VERTEX
8
0
10
82.432
20
36.7973493653159
30
0
0
VERTEX
8
0
10
83.0293333333334
20
36.8191613066356
30
0
0
VERTEX
8
0
10
83.6266666666667
20
36.8409732479553
30
0
0
VERTEX
8
0
10
84.224
20
36.862785189275
30
0
0
VERTEX
8
0
10
84.8213333333334
20
36.8845971305947
30
0
0
VERTEX
8
0
10
85.4186666666667
20
36.924936317471
30
0
0
VERTEX
8
0
10
86.016
20
36.9615766068581
30
0
0
VERTEX
8
0
10
86.6133333333334
20
36.9982168962452
30
0
0
VERTEX
8
0
10
87.2106666666667
20
37.0348571856323
30
0
0
VERTEX
8
0
10
87.8080000000001
20
37.075605613787
30
0
0
VERTEX
8
0
10
88.4053333333334
20
37.1171886858633
30
0
0
VERTEX
8
0
10
89.0026666666667
20
37.1587717579395
30
0
0
VERTEX
8
0
10
89.6000000000001
20
37.2003548300157
30
0
0
VERTEX
8
0
10
90.1973333333334
20
37.241937902092
30
0
0
VERTEX
8
0
10
90.7946666666667
20
37.2730460066099
30
0
0
VERTEX
8
0
10
91.3920000000001
20
37.3072149046525
30
0
0
VERTEX
8
0
10
91.9893333333334
20
37.341383802695
30
0
0
VERTEX
8
0
10
92.5866666666667
20
37.3755527007375
30
0
0
VERTEX
8
0
10
93.1840000000001
20
37.4441315124601
30
0
0
VERTEX
8
0
10
93.7813333333334
20
37.5128998893266
30
0
0
VERTEX
8
0
10
94.3786666666667
20
37.5816682661931
30
0
0
VERTEX
8
0
10
94.9760000000001
20
37.6504366430596
30
0
0
VERTEX
8
0
10
95.5733333333334
20
37.6893000517939
30
0
0
VERTEX
8
0
10
96.1706666666667
20
37.7061692104245
30
0
0
VERTEX
8
0
10
96.7680000000001
20
37.723038369055
30
0
0
VERTEX
8
0
10
97.3653333333334
20
37.7399075276856
30
0
0
VERTEX
8
0
10
97.9626666666667
20
37.7567766863162
30
0
0
VERTEX
8
0
10
98.5600000000001
20
37.7536144169533
30
0
0
VERTEX
8
0
10
99.1573333333334
20
37.7531838361719
30
0
0
VERTEX
8
0
10
99.7546666666667
20
37.7527532553905
30
0
0
VERTEX
8
0
10
100.352
20
37.7523226746091
30
0
0
VERTEX
8
0
10
100.949333333333
20
37.7500642661328
30
0
0
VERTEX
8
0
10
101.546666666667
20
37.7471622940068
30
0
0
VERTEX
8
0
10
102.144
20
37.7442603218808
30
0
0
VERTEX
8
0
10
102.741333333333
20
37.7413583497548
30
0
0
VERTEX
8
0
10
103.338666666667
20
37.7384563776288
30
0
0
VERTEX
8
0
10
103.936
20
37.7910664462878
30
0
0
VERTEX
8
0
10
104.533333333333
20
37.8301781270195
30
0
0
VERTEX
8
0
10
105.130666666667
20
37.8692898077512
30
0
0
VERTEX
8
0
10
105.728
20
37.9084014884828
30
0
0
VERTEX
8
0
10
106.325333333333
20
37.9274286856207
30
0
0
VERTEX
8
0
10
106.922666666667
20
37.9442978442512
30
0
0
VERTEX
8
0
10
107.52
20
37.9611670028818
30
0
0
VERTEX
8
0
10
108.117333333333
20
37.9780361615124
30
0
0
VERTEX
8
0
10
108.714666666667
20
37.9949053201429
30
0
0
VERTEX
8
0
10
109.312
20
37.9860901084734
30
0
0
VERTEX
8
0
10
109.909333333333
20
37.985659527692
30
0
0
VERTEX
8
0
10
110.506666666667
20
37.9852289469106
30
0
0
VERTEX
8
0
10
111.104
20
37.9847983661291
30
0
0
VERTEX
8
0
10
111.701333333333
20
37.9843677853477
30
0
0
VERTEX
8
0
10
112.298666666667
20
37.9839372045663
30
0
0
VERTEX
8
0
10
112.896
20
37.9835066237849
30
0
0
VERTEX
8
0
10
113.493333333333
20
37.9830760430035
30
0
0
VERTEX
8
0
10
114.090666666667
20
37.9826454622221
30
0
0
VERTEX
8
0
10
114.688
20
37.9822148814407
30
0
0
VERTEX
8
0
10
115.285333333333
20
37.9817843006592
30
0
0
VERTEX
8
0
10
115.882666666667
20
37.9813537198778
30
0
0
VERTEX
8
0
10
116.48
20
37.9809231390964
30
0
0
VERTEX
8
0
10
117.077333333333
20
37.980492558315
30
0
0
VERTEX
8
0
10
117.674666666667
20
37.9800619775336
30
0
0
VERTEX
8
0
10
118.272
20
37.9796313967522
30
0
0
VERTEX
8
0
10
118.869333333333
20
37.9792008159707
30
0
0
VERTEX
8
0
10
119.466666666667
20
37.9887970731856
30
0
0
VERTEX
8
0
10
120.064
20
38.000723449127
30
0
0
VERTEX
8
0
10
120.661333333333
20
38.0126498250685
30
0
0
VERTEX
8
0
10
121.258666666667
20
38.0245762010099
30
0
0
VERTEX
8
0
10
121.856
20
38.0365025769513
30
0
0
VERTEX
8
0
10
122.453333333333
20
38.0897444017113
30
0
0
VERTEX
8
0
10
123.050666666667
20
38.1313274737875
30
0
0
VERTEX
8
0
10
123.648
20
38.1729105458638
30
0
0
VERTEX
8
0
10
124.245333333333
20
38.21449361794
30
0
0
VERTEX
8
0
10
124.842666666667
20
38.2151211537421
30
0
0
VERTEX
8
0
10
125.44
20
38.2146905729607
30
0
0
VERTEX
8
0
10
126.037333333333
20
38.2142599921793
30
0
0
VERTEX
8
0
10
126.634666666667
20
38.2138294113979
30
0
0
VERTEX
8
0
10
127.232
20
38.1927686658618
30
0
0
VERTEX
8
0
10
127.829333333333
20
38.1552672149119
30
0
0
VERTEX
8
0
10
128.426666666667
20
38.1177657639619
30
0
0
VERTEX
8
0
10
129.024
20
38.080264313012
30
0
0
VERTEX
8
0
10
129.621333333333
20
38.0427628620621
30
0
0
VERTEX
8
0
10
130.218666666667
20
38.0277648573996
30
0
0
VERTEX
8
0
10
130.816
20
38.0100345372062
30
0
0
VERTEX
8
0
10
131.413333333333
20
37.9923042170128
30
0
0
VERTEX
8
0
10
132.010666666666
20
37.9745738968194
30
0
0
VERTEX
8
0
10
132.608
20
37.9692974579982
30
0
0
VERTEX
8
0
10
133.205333333333
20
37.9688668772168
30
0
0
VERTEX
8
0
10
133.802666666666
20
37.9684362964354
30
0
0
VERTEX
8
0
10
134.4
20
37.968005715654
30
0
0
VERTEX
8
0
10
134.997333333333
20
37.9675751348725
30
0
0
VERTEX
8
0
10
135.594666666666
20
37.9671445540911
30
0
0
VERTEX
8
0
10
136.192
20
37.9667139733097
30
0
0
VERTEX
8
0
10
136.789333333333
20
37.9662833925283
30
0
0
VERTEX
8
0
10
137.386666666666
20
37.9658528117469
30
0
0
VERTEX
8
0
10
137.984
20
37.9043008208633
30
0
0
VERTEX
8
0
10
138.581333333333
20
37.834671282434
30
0
0
VERTEX
8
0
10
139.178666666666
20
37.7650417440047
30
0
0
VERTEX
8
0
10
139.776
20
37.6954122055754
30
0
0
VERTEX
8
0
10
140.373333333333
20
37.6257826671461
30
0
0
VERTEX
8
0
10
140.970666666666
20
37.4475383095387
30
0
0
VERTEX
8
0
10
141.568
20
37.3037670307724
30
0
0
VERTEX
8
0
10
142.165333333333
20
37.159995752006
30
0
0
VERTEX
8
0
10
142.762666666666
20
37.0162244732397
30
0
0
VERTEX
8
0
10
143.36
20
36.8595197489884
30
0
0
VERTEX
8
0
10
143.957333333333
20
36.7033915134992
30
0
0
VERTEX
8
0
10
144.554666666666
20
36.54726327801
30
0
0
VERTEX
8
0
10
145.152
20
36.3911350425208
30
0
0
VERTEX
8
0
10
145.749333333333
20
36.2303481543676
30
0
0
VERTEX
8
0
10
146.346666666666
20
36.0668057448447
30
0
0
VERTEX
8
0
10
146.943999999999
20
35.9032633353218
30
0
0
VERTEX
8
0
10
147.541333333333
20
35.7397209257989
30
0
0
VERTEX
8
0
10
148.138666666666
20
35.576178516276
30
0
0
VERTEX
8
0
10
148.735999999999
20
35.3946932826112
30
0
0
VERTEX
8
0
10
149.333333333333
20
35.2163225250209
30
0
0
VERTEX
8
0
10
149.930666666666
20
35.0379517674306
30
0
0
VERTEX
8
0
10
150.527999999999
20
34.8595810098403
30
0
0
VERTEX
8
0
10
151.125333333333
20
34.6988202445823
30
0
0
VERTEX
8
0
10
151.722666666666
20
34.5426920090931
30
0
0
VERTEX
8
0
10
152.319999999999
20
34.3865637736039
30
0
0
VERTEX
8
0
10
152.917333333333
20
34.2304355381147
30
0
0
VERTEX
8
0
10
153.514666666666
20
34.0743073026256
30
0
0
VERTEX
8
0
10
154.111999999999
20
33.9621712388912
30
0
0
VERTEX
8
0
10
154.709333333333
20
33.8380741735737
30
0
0
VERTEX
8
0
10
155.306666666666
20
33.7139771082563
30
0
0
SEQEND
8
0
0
POLYLINE
8
0
62
6
70
0
10
0
20
0
30
0
0
VERTEX
8
0
10
10.752
20
13.5811767486594
30
0
0
VERTEX
8
0
10
11.3493333333333
20
14.2924924225326
30
0
0
VERTEX
8
0
10
11.9466666666667
20
15.0038080964058
30
0
0
VERTEX
8
0
10
12.544
20
15.715123770279
30
0
0
VERTEX
8
0
10
13.1413333333333
20
16.468244585151
30
0
0
VERTEX
8
0
10
13.7386666666667
20
17.2158985108607
30
0
0
VERTEX
8
0
10
14.336
20
17.9635524365703
30
0
0
VERTEX
8
0
10
14.9333333333333
20
18.6975349955115
30
0
0
VERTEX
8
0
10
15.5306666666667
20
19.4266211803678
30
0
0
VERTEX
8
0
10
16.128
20
20.155707365224
30
0
0
VERTEX
8
0
10
16.7253333333333
20
20.8847935500802
30
0
0
VERTEX
8
0
10
17.3226666666667
20
21.5914120828412
30
0
0
VERTEX
8
0
10
17.92
20
22.3035049844017
30
0
0
VERTEX
8
0
10
18.5173333333333
20
23.0155978859622
30
0
0
VERTEX
8
0
10
19.1146666666667
20
23.7033970827031
30
0
0
VERTEX
8
0
10
19.712
20
24.3811365204844
30
0
0
VERTEX
8
0
10
20.3093333333333
20
25.0588759582658
30
0
0
VERTEX
8
0
10
20.9066666666667
20
25.7366153960472
30
0
0
VERTEX
8
0
10
21.504
20
26.4202625766444
30
0
0
VERTEX
8
0
10
22.1013333333333
20
27.1046298235293
30
0
0
VERTEX
8
0
10
22.6986666666667
20
27.7889970704142
30
0
0
VERTEX
8
0
10
23.296
20
28.4733643172991
30
0
0
VERTEX
8
0
10
23.8933333333333
20
29.1341900340906
30
0
0
VERTEX
8
0
10
24.4906666666667
20
29.7916438292332
30
0
0
VERTEX
8
0
10
25.088
20
30.4490976243758
30
0
0
VERTEX
8
0
10
25.6853333333333
20
31.1065514195183
30
0
0
VERTEX
8
0
10
26.2826666666667
20
31.7637051032697
30
0
0
VERTEX
8
0
10
26.88
20
32.420809145953
30
0
0
VERTEX
8
0
10
27.4773333333333
20
33.0779131886363
30
0
0
VERTEX
8
0
10
28.0746666666667
20
33.7350172313195
30
0
0
VERTEX
8
0
10
28.672
20
34.3895695532885
30
0
0
VERTEX
8
0
10
29.2693333333333
20
35.0442253287567
30
0
0
VERTEX
8
0
10
29.8666666666667
20
35.698881104225
30
0
0
VERTEX
8
0
10
30.464
20
36.3535368796932
30
0
0
VERTEX
8
0
10
31.0613333333333
20
36.985951511068
30
0
0
VERTEX
8
0
10
31.6586666666667
20
37.6224726215221
30
0
0
VERTEX
8
0
10
32.256
20
38.2589937319762
30
0
0
VERTEX
8
0
10
32.8533333333333
20
38.8955148424302
30
0
0
VERTEX
8
0
10
33.4506666666667
20
39.5248004256691
30
0
0
VERTEX
8
0
10
34.048
20
40.1553407690693
30
0
0
VERTEX
8
0
10
34.6453333333333
20
40.7858811124695
30
0
0
VERTEX
8
0
10
35.2426666666667
20
41.4164214558697
30
0
0
VERTEX
8
0
10
35.84
20
42.0382966796396
30
0
0
VERTEX
8
0
10
36.4373333333333
20
42.6615746630459
30
0
0
VERTEX
8
0
10
37.0346666666667
20
43.2848526464521
30
0
0
VERTEX
8
0
10
37.632
20
43.9081306298584
30
0
0
VERTEX
8
0
10
38.2293333333334
20
44.5208678637777
30
0
0
VERTEX
8
0
10
38.8266666666667
20
45.1333423364491
30
0
0
VERTEX
8
0
10
39.424
20
45.7458168091205
30
0
0
VERTEX
8
0
10
40.0213333333334
20
46.3582912817919
30
0
0
VERTEX
8
0
10
40.6186666666667
20
46.9418387230413
30
0
0
VERTEX
8
0
10
41.216
20
47.5024139774768
30
0
0
VERTEX
8
0
10
41.8133333333334
20
48.0629892319122
30
0
0
VERTEX
8
0
10
42.4106666666667
20
48.6235644863477
30
0
0
VERTEX
8
0
10
43.008
20
49.1841397407832
30
0
0
VERTEX
8
0
10
43.6053333333334
20
49.7447149952187
30
0
0
VERTEX
8
0
10
44.2026666666667
20
50.3052902496542
30
0
0
VERTEX
8
0
10
44.8
20
50.8658655040897
30
0
0
VERTEX
8
0
10
45.3973333333334
20
51.4264407585252
30
0
0
VERTEX
8
0
10
45.9946666666667
20
51.974547198
30
0
0
VERTEX
8
0
10
46.592
20
52.5178227130235
30
0
0
VERTEX
8
0
10
47.1893333333334
20
53.0610982280471
30
0
0
VERTEX
8
0
10
47.7866666666667
20
53.6043737430706
30
0
0
VERTEX
8
0
10
48.384
20
54.1476492580941
30
0
0
VERTEX
8
0
10
48.9813333333334
20
54.6362043953837
30
0
0
VERTEX
8
0
10
49.5786666666667
20
55.1374662575496
30
0
0
VERTEX
8
0
10
50.176
20
55.6387281197154
30
0
0
VERTEX
8
0
10
50.7733333333334
20
56.1399899818813
30
0
0
VERTEX
8
0
10
51.3706666666667
20
56.5888108630847
30
0
0
VERTEX
8
0
10
51.968
20
57.0307593329809
30
0
0
VERTEX
8
0
10
52.5653333333334
20
57.4727078028772
30
0
0
VERTEX
8
0
10
53.1626666666667
20
57.9146562727734
30
0
0
VERTEX
8
0
10
53.76
20
58.3566047426697
30
0
0
VERTEX
8
0
10
54.3573333333334
20
58.7659495664844
30
0
0
VERTEX
8
0
10
54.9546666666667
20
59.1856555142795
30
0
0
VERTEX
8
0
10
55.552
20
59.6053614620747
30
0
0
VERTEX
8
0
10
56.1493333333334
20
60.0250674098698
30
0
0
VERTEX
8
0
10
56.7466666666667
20
60.4266516003975
30
0
0
VERTEX
8
0
10
57.344
20
60.8290578087807
30
0
0
VERTEX
8
0
10
57.9413333333334
20
61.2314640171638
30
0
0
VERTEX
8
0
10
58.5386666666667
20
61.633870225547
30
0
0
VERTEX
8
0
10
59.136
20
62.0129511700628
30
0
0
VERTEX
8
0
10
59.7333333333334
20
62.3782865082774
30
0
0
VERTEX
8
0
10
60.3306666666667
20
62.743621846492
30
0
0
VERTEX
8
0
10
60.928
20
63.1089571847067
30
0
0
VERTEX
8
0
10
61.5253333333334
20
63.4742925229213
30
0
0
VERTEX
8
0
10
62.1226666666667
20
63.815687028655
30
0
0
VERTEX
8
0
10
62.72
20
64.1612512361131
30
0
0
VERTEX
8
0
10
63.3173333333334
20
64.5068154435712
30
0
0
VERTEX
8
0
10
63.9146666666667
20
64.8523796510293
30
0
0
VERTEX
8
0
10
64.512
20
65.1705206699045
30
0
0
VERTEX
8
0
10
65.1093333333334
20
65.4814853985387
30
0
0
VERTEX
8
0
10
65.7066666666667
20
65.7924501271728
30
0
0
VERTEX
8
0
10
66.304
20
66.1034148558069
30
0
0
VERTEX
8
0
10
66.9013333333334
20
66.4143795844411
30
0
0
VERTEX
8
0
10
67.4986666666667
20
66.7015696135011
30
0
0
VERTEX
8
0
10
68.096
20
66.9952346027233
30
0
0
VERTEX
8
0
10
68.6933333333334
20
67.2888995919454
30
0
0
VERTEX
8
0
10
69.2906666666667
20
67.5825645811676
30
0
0
VERTEX
8
0
10
69.888
20
67.8431534395002
30
0
0
VERTEX
8
0
10
70.4853333333334
20
68.1022189498984
30
0
0
VERTEX
8
0
10
71.0826666666667
20
68.3612844602966
30
0
0
VERTEX
8
0
10
71.68
20
68.6203499706948
30
0
0
VERTEX
8
0
10
72.2773333333334
20
68.8687852738753
30
0
0
VERTEX
8
0
10
72.8746666666667
20
69.108079653517
30
0
0
VERTEX
8
0
10
73.4720000000001
20
69.3473740331587
30
0
0
VERTEX
8
0
10
74.0693333333334
20
69.5866684128003
30
0
0
VERTEX
8
0
10
74.6666666666667
20
69.825962792442
30
0
0
VERTEX
8
0
10
75.2640000000001
20
70.0486589978567
30
0
0
VERTEX
8
0
10
75.8613333333334
20
70.273125029431
30
0
0
VERTEX
8
0
10
76.4586666666667
20
70.4975910610052
30
0
0
VERTEX
8
0
10
77.0560000000001
20
70.7220570925795
30
0
0
VERTEX
8
0
10
77.6533333333334
20
70.937860336676
30
0
0
VERTEX
8
0
10
78.2506666666667
20
71.1499694115274
30
0
0
VERTEX
8
0
10
78.848
20
71.3620784863789
30
0
0
VERTEX
8
0
10
79.4453333333334
20
71.5741875612303
30
0
0
VERTEX
8
0
10
80.0426666666667
20
71.7862966360817
30
0
0
VERTEX
8
0
10
80.64
20
71.9730445592172
30
0
0
VERTEX
8
0
10
81.2373333333334
20
72.165382503312
30
0
0
VERTEX
8
0
10
81.8346666666667
20
72.3577204474069
30
0
0
VERTEX
8
0
10
82.432
20
72.5500583915018
30
0
0
VERTEX
8
0
10
83.0293333333334
20
72.7317146401523
30
0
0
VERTEX
8
0
10
83.6266666666667
20
72.9116956275243
30
0
0
VERTEX
8
0
10
84.224
20
73.0916766148963
30
0
0
VERTEX
8
0
10
84.8213333333334
20
73.2716576022684
30
0
0
VERTEX
8
0
10
85.4186666666667
20
73.4516385896404
30
0
0
VERTEX
8
0
10
86.016
20
73.620897800339
30
0
0
VERTEX
8
0
10
86.6133333333334
20
73.7934646136773
30
0
0
VERTEX
8
0
10
87.2106666666667
20
73.9660314270156
30
0
0
VERTEX
8
0
10
87.8080000000001
20
74.138598240354
30
0
0
VERTEX
8
0
10
88.4053333333334
20
74.3060848123279
30
0
0
VERTEX
8
0
10
89.0026666666667
20
74.4737088429771
30
0
0
VERTEX
8
0
10
89.6000000000001
20
74.6413328736263
30
0
0
VERTEX
8
0
10
90.1973333333334
20
74.8089569042755
30
0
0
VERTEX
8
0
10
90.7946666666667
20
74.9705556716983
30
0
0
VERTEX
8
0
10
91.3920000000001
20
75.1282941369692
30
0
0
VERTEX
8
0
10
91.9893333333334
20
75.2860326022401
30
0
0
VERTEX
8
0
10
92.5866666666667
20
75.443771067511
30
0
0
VERTEX
8
0
10
93.1840000000001
20
75.601509532782
30
0
0
VERTEX
8
0
10
93.7813333333334
20
75.7710236071551
30
0
0
VERTEX
8
0
10
94.3786666666667
20
75.9386476378043
30
0
0
VERTEX
8
0
10
94.9760000000001
20
76.1062716684535
30
0
0
VERTEX
8
0
10
95.5733333333334
20
76.2738956991027
30
0
0
VERTEX
8
0
10
96.1706666666667
20
76.4205086583526
30
0
0
VERTEX
8
0
10
96.7680000000001
20
76.5609473842116
30
0
0
VERTEX
8
0
10
97.3653333333334
20
76.7013861100705
30
0
0
VERTEX
8
0
10
97.9626666666667
20
76.8418248359295
30
0
0
VERTEX
8
0
10
98.5600000000001
20
76.9822635617884
30
0
0
VERTEX
8
0
10
99.1573333333334
20
77.0925731328274
30
0
0
VERTEX
8
0
10
99.7546666666667
20
77.2107693365852
30
0
0
VERTEX
8
0
10
100.352
20
77.328965540343
30
0
0
VERTEX
8
0
10
100.949333333333
20
77.4471617441009
30
0
0
VERTEX
8
0
10
101.546666666667
20
77.5561024318856
30
0
0
VERTEX
8
0
10
102.144
20
77.6644130702652
30
0
0
VERTEX
8
0
10
102.741333333333
20
77.7727237086448
30
0
0
VERTEX
8
0
10
103.338666666667
20
77.8810343470244
30
0
0
VERTEX
8
0
10
103.936
20
77.9944652818746
30
0
0
VERTEX
8
0
10
104.533333333333
20
78.1126614856324
30
0
0
VERTEX
8
0
10
105.130666666667
20
78.2308576893902
30
0
0
VERTEX
8
0
10
105.728
20
78.3490538931481
30
0
0
VERTEX
8
0
10
106.325333333333
20
78.4672500969059
30
0
0
VERTEX
8
0
10
106.922666666667
20
78.5881639612504
30
0
0
VERTEX
8
0
10
107.52
20
78.7088315563528
30
0
0
VERTEX
8
0
10
108.117333333333
20
78.8294991514552
30
0
0
VERTEX
8
0
10
108.714666666667
20
78.9501667465576
30
0
0
VERTEX
8
0
10
109.312
20
79.0523119288391
30
0
0
VERTEX
8
0
10
109.909333333333
20
79.1457942191513
30
0
0
VERTEX
8
0
10
110.506666666667
20
79.2392765094634
30
0
0
VERTEX
8
0
10
111.104
20
79.3327587997756
30
0
0
VERTEX
8
0
10
111.701333333333
20
79.4262410900878
30
0
0
VERTEX
8
0
10
112.298666666667
20
79.5259662647598
30
0
0
VERTEX
8
0
10
112.896
20
79.6243913377611
30
0
0
VERTEX
8
0
10
113.493333333333
20
79.7228164107624
30
0
0
VERTEX
8
0
10
114.090666666667
20
79.8212414837637
30
0
0
VERTEX
8
0
10
114.688
20
79.9050530956347
30
0
0
VERTEX
8
0
10
115.285333333333
20
79.986178429224
30
0
0
VERTEX
8
0
10
115.882666666667
20
80.0673037628133
30
0
0
VERTEX
8
0
10
116.48
20
80.1484290964027
30
0
0
VERTEX
8
0
10
117.077333333333
20
80.229554429992
30
0
0
VERTEX
8
0
10
117.674666666667
20
80.3247806586744
30
0
0
VERTEX
8
0
10
118.272
20
80.415791557642
30
0
0
VERTEX
8
0
10
118.869333333333
20
80.5068024566096
30
0
0
VERTEX
8
0
10
119.466666666667
20
80.5978133555772
30
0
0
VERTEX
8
0
10
120.064
20
80.6763671600565
30
0
0
VERTEX
8
0
10
120.661333333333
20
80.7550211023013
30
0
0
VERTEX
8
0
10
121.258666666667
20
80.833675044546
30
0
0
VERTEX
8
0
10
121.856
20
80.9123289867908
30
0
0
VERTEX
8
0
10
122.453333333333
20
80.9982709991458
30
0
0
VERTEX
8
0
10
123.050666666667
20
81.0892818981134
30
0
0
VERTEX
8
0
10
123.648
20
81.180292797081
30
0
0
VERTEX
8
0
10
124.245333333333
20
81.2713036960485
30
0
0
VERTEX
8
0
10
124.842666666667
20
81.3623145950162
30
0
0
VERTEX
8
0
10
125.44
20
81.4243734890737
30
0
0
VERTEX
8
0
10
126.037333333333
20
81.4906704745957
30
0
0
VERTEX
8
0
10
126.634666666667
20
81.5569674601176
30
0
0
VERTEX
8
0
10
127.232
20
81.6232644456395
30
0
0
VERTEX
8
0
10
127.829333333333
20
81.6802544530845
30
0
0
VERTEX
8
0
10
128.426666666667
20
81.7341944818836
30
0
0
VERTEX
8
0
10
129.024
20
81.7881345106826
30
0
0
VERTEX
8
0
10
129.621333333333
20
81.8420745394817
30
0
0
VERTEX
8
0
10
130.218666666667
20
81.8960145682808
30
0
0
VERTEX
8
0
10
130.816
20
81.9532535791642
30
0
0
VERTEX
8
0
10
131.413333333333
20
82.0096649993079
30
0
0
VERTEX
8
0
10
132.010666666666
20
82.0660764194515
30
0
0
VERTEX
8
0
10
132.608
20
82.1224878395951
30
0
0
VERTEX
8
0
10
133.205333333333
20
82.1834296141562
30
0
0
VERTEX
8
0
10
133.802666666666
20
82.244783816989
30
0
0
VERTEX
8
0
10
134.4
20
82.3061380198218
30
0
0
VERTEX
8
0
10
134.997333333333
20
82.3674922226546
30
0
0
VERTEX
8
0
10
135.594666666666
20
82.4288464254874
30
0
0
VERTEX
8
0
10
136.192
20
82.4902006283201
30
0
0
VERTEX
8
0
10
136.789333333333
20
82.5515548311529
30
0
0
VERTEX
8
0
10
137.386666666666
20
82.6129090339857
30
0
0
VERTEX
8
0
10
137.984
20
82.6742632368185
30
0
0
VERTEX
8
0
10
138.581333333333
20
82.6635555519958
30
0
0
VERTEX
8
0
10
139.178666666666
20
82.6581821885252
30
0
0
VERTEX
8
0
10
139.776
20
82.6528088250547
30
0
0
VERTEX
8
0
10
140.373333333333
20
82.6474354615841
30
0
0
VERTEX
8
0
10
140.970666666666
20
82.6453324059664
30
0
0
VERTEX
8
0
10
141.568
20
82.644901825185
30
0
0
VERTEX
8
0
10
142.165333333333
20
82.6444712444036
30
0
0
VERTEX
8
0
10
142.762666666666
20
82.6440406636222
30
0
0
VERTEX
8
0
10
143.36
20
82.6436100828408
30
0
0
VERTEX
8
0
10
143.957333333333
20
82.6308885404778
30
0
0
VERTEX
8
0
10
144.554666666666
20
82.6205723943181
30
0
0
VERTEX
8
0
10
145.152
20
82.6102562481584
30
0
0
VERTEX
8
0
10
145.749333333333
20
82.5999401019988
30
0
0
VERTEX
8
0
10
146.346666666666
20
82.5671956651216
30
0
0
VERTEX
8
0
10
146.943999999999
20
82.5296942141716
30
0
0
VERTEX
8
0
10
147.541333333333
20
82.4921927632217
30
0
0
VERTEX
8
0
10
148.138666666666
20
82.4546913122718
30
0
0
VERTEX
8
0
10
148.735999999999
20
82.4171898613218
30
0
0
VERTEX
8
0
10
149.333333333333
20
82.3935944983268
30
0
0
VERTEX
8
0
10
149.930666666666
20
82.3659786127551
30
0
0
VERTEX
8
0
10
150.527999999999
20
82.3383627271835
30
0
0
VERTEX
8
0
10
151.125333333333
20
82.3107468416118
30
0
0
VERTEX
8
0
10
151.722666666666
20
82.2758028047008
30
0
0
VERTEX
8
0
10
152.319999999999
20
82.2407727450955
30
0
0
VERTEX
8
0
10
152.917333333333
20
82.2057426854901
30
0
0
VERTEX
8
0
10
153.514666666666
20
82.1707126258847
30
0
0
VERTEX
8
0
10
154.111999999999
20
82.1383594995306
30
0
0
VERTEX
8
0
10
154.709333333333
20
82.1080250834799
30
0
0
VERTEX
8
0
10
155.306666666666
20
82.0776906674292
30
0
0
SEQEND
8
0
0
POLYLINE
8
0
62
1
70
0
10
0
20
0
30
0
0
VERTEX
8
0
10
10.752
20
3.81989654229427
30
0
0
VERTEX
8
0
10
11.3493333333333
20
3.99304183547185
30
0
0
VERTEX
8
0
10
11.9466666666667
20
4.24904342657348
30
0
0
VERTEX
8
0
10
12.544
20
4.53841495338083
30
0
0
VERTEX
8
0
10
13.1413333333333
20
4.85519349195463
30
0
0
VERTEX
8
0
10
13.7386666666667
20
5.19974428562413
30
0
0
VERTEX
8
0
10
14.336
20
5.54173923633456
30
0
0
VERTEX
8
0
10
14.9333333333333
20
5.90539353142003
30
0
0
VERTEX
8
0
10
15.5306666666667
20
6.28409161255216
30
0
0
VERTEX
8
0
10
16.128
20
6.67527360229993
30
0
0
VERTEX
8
0
10
16.7253333333333
20
7.03575599010077
30
0
0
VERTEX
8
0
10
17.3226666666667
20
7.39911965046671
30
0
0
VERTEX
8
0
10
17.92
20
7.77059345337732
30
0
0
VERTEX
8
0
10
18.5173333333333
20
8.14906837616931
30
0
0
VERTEX
8
0
10
19.1146666666667
20
8.51630621507143
30
0
0
VERTEX
8
0
10
19.712
20
8.86565450635087
30
0
0
VERTEX
8
0
10
20.3093333333333
20
9.22347113860718
30
0
0
VERTEX
8
0
10
20.9066666666667
20
9.58550295376912
30
0
0
VERTEX
8
0
10
21.504
20
9.95128991246715
30
0
0
VERTEX
8
0
10
22.1013333333333
20
10.2858267543807
30
0
0
VERTEX
8
0
10
22.6986666666667
20
10.6280497261018
30
0
0
VERTEX
8
0
10
23.296
20
10.973289548092
30
0
0
VERTEX
8
0
10
23.8933333333333
20
11.3212702290181
30
0
0
VERTEX
8
0
10
24.4906666666667
20
11.6815126672894
30
0
0
VERTEX
8
0
10
25.088
20
12.0619005162525
30
0
0
VERTEX
8
0
10
25.6853333333333
20
12.4385488378252
30
0
0
VERTEX
8
0
10
26.2826666666667
20
12.8166640614562
30
0
0
VERTEX
8
0
10
26.88
20
13.1961200920482
30
0
0
VERTEX
8
0
10
27.4773333333333
20
13.5870179752793
30
0
0
VERTEX
8
0
10
28.0746666666667
20
13.978903284277
30
0
0
VERTEX
8
0
10
28.672
20
14.3713569167186
30
0
0
VERTEX
8
0
10
29.2693333333333
20
14.7643335525245
30
0
0
VERTEX
8
0
10
29.8666666666667
20
15.1745054103143
30
0
0
VERTEX
8
0
10
30.464
20
15.5887777502631
30
0
0
VERTEX
8
0
10
31.0613333333333
20
16.0032407132055
30
0
0
VERTEX
8
0
10
31.6586666666667
20
16.4178798625389
30
0
0
VERTEX
8
0
10
32.256
20
16.8555795487009
30
0
0
VERTEX
8
0
10
32.8533333333333
20
17.2947401808289
30
0
0
VERTEX
8
0
10
33.4506666666667
20
17.7367144408655
30
0
0
VERTEX
8
0
10
34.048
20
18.1791361909998
30
0
0
VERTEX
8
0
10
34.6453333333333
20
18.621973536785
30
0
0
VERTEX
8
0
10
35.2426666666667
20
19.0758085260747
30
0
0
VERTEX
8
0
10
35.84
20
19.5280418133287
30
0
0
VERTEX
8
0
10
36.4373333333333
20
19.9806553370153
30
0
0
VERTEX
8
0
10
37.0346666666667
20
20.4336238299504
30
0
0
VERTEX
8
0
10
37.632
20
20.8795764823342
30
0
0
VERTEX
8
0
10
38.2293333333334
20
21.3086805033082
30
0
0
VERTEX
8
0
10
38.8266666666667
20
21.7425414006204
30
0
0
VERTEX
8
0
10
39.424
20
22.1769412550098
30
0
0
VERTEX
8
0
10
40.0213333333334
20
22.6118490045255
30
0
0
VERTEX
8
0
10
40.6186666666667
20
23.0169146466657
30
0
0
VERTEX
8
0
10
41.216
20
23.4318728317169
30
0
0
VERTEX
8
0
10
41.8133333333334
20
23.8470697030182
30
0
0
VERTEX
8
0
10
42.4106666666667
20
24.2624930068709
30
0
0
VERTEX
8
0
10
43.008
20
24.6539032705777
30
0
0
VERTEX
8
0
10
43.6053333333334
20
25.0426594619421
30
0
0
VERTEX
8
0
10
44.2026666666667
20
25.4316414162483
30
0
0
VERTEX
8
0
10
44.8
20
25.8208389303777
30
0
0
VERTEX
8
0
10
45.3973333333334
20
26.2240247971462
30
0
0
VERTEX
8
0
10
45.9946666666667
20
26.6455193206529
30
0
0
VERTEX
8
0
10
46.592
20
27.0665297360606
30
0
0
VERTEX
8
0
10
47.1893333333334
20
27.487663285744
30
0
0
VERTEX
8
0
10
47.7866666666667
20
27.9089143955734
30
0
0
VERTEX
8
0
10
48.384
20
28.2706934718362
30
0
0
VERTEX
8
0
10
48.9813333333334
20
28.6375957888484
30
0
0
VERTEX
8
0
10
49.5786666666667
20
29.004580631976
30
0
0
VERTEX
8
0
10
50.176
20
29.3716449078446
30
0
0
VERTEX
8
0
10
50.7733333333334
20
29.6826703888476
30
0
0
VERTEX
8
0
10
51.3706666666667
20
29.9712278245738
30
0
0
VERTEX
8
0
10
51.968
20
30.2591239468874
30
0
0
VERTEX
8
0
10
52.5653333333334
20
30.5470297462414
30
0
0
VERTEX
8
0
10
53.1626666666667
20
30.8349449515724
30
0
0
VERTEX
8
0
10
53.76
20
31.0848015632838
30
0
0
VERTEX
8
0
10
54.3573333333334
20
31.3411077383386
30
0
0
VERTEX
8
0
10
54.9546666666667
20
31.5974456201616
30
0
0
VERTEX
8
0
10
55.552
20
31.853814443289
30
0
0
VERTEX
8
0
10
56.1493333333334
20
32.0958914216026
30
0
0
VERTEX
8
0
10
56.7466666666667
20
32.3346569732917
30
0
0
VERTEX
8
0
10
57.344
20
32.5737047366055
30
0
0
VERTEX
8
0
10
57.9413333333334
20
32.8127779102203
30
0
0
VERTEX
8
0
10
58.5386666666667
20
33.0518759427373
30
0
0
VERTEX
8
0
10
59.136
20
33.2622763998368
30
0
0
VERTEX
8
0
10
59.7333333333334
20
33.4819816613948
30
0
0
VERTEX
8
0
10
60.3306666666667
20
33.7016923712765
30
0
0
VERTEX
8
0
10
60.928
20
33.9214084236145
30
0
0
VERTEX
8
0
10
61.5253333333334
20
34.1090952138203
30
0
0
VERTEX
8
0
10
62.1226666666667
20
34.2954815552571
30
0
0
VERTEX
8
0
10
62.72
20
34.4818870849401
30
0
0
VERTEX
8
0
10
63.3173333333334
20
34.6683114933537
30
0
0
VERTEX
8
0
10
63.9146666666667
20
34.8461394657489
30
0
0
VERTEX
8
0
10
64.512
20
35.0247016478504
30
0
0
VERTEX
8
0
10
65.1093333333334
20
35.202195412148
30
0
0
VERTEX
8
0
10
65.7066666666667
20
35.3796893013926
30
0
0
VERTEX
8
0
10
66.304
20
35.5571833137131
30
0
0
VERTEX
8
0
10
66.9013333333334
20
35.6784812934194
30
0
0
VERTEX
8
0
10
67.4986666666667
20
35.8060076100036
30
0
0
VERTEX
8
0
10
68.096
20
35.9335418360959
30
0
0
VERTEX
8
0
10
68.6933333333334
20
36.0610838877775
30
0
0
VERTEX
8
0
10
69.2906666666667
20
36.1758223457809
30
0
0
VERTEX
8
0
10
69.888
20
36.29243399828
30
0
0
VERTEX
8
0
10
70.4853333333334
20
36.4074841951379
30
0
0
VERTEX
8
0
10
71.0826666666667
20
36.522535510271
30
0
0
VERTEX
8
0
10
71.68
20
36.6375879331442
30
0
0
VERTEX
8
0
10
72.2773333333334
20
36.6956458357271
30
0
0
VERTEX
8
0
10
72.8746666666667
20
36.7675411085448
30
0
0
VERTEX
8
0
10
73.4720000000001
20
36.8394373564095
30
0
0
VERTEX
8
0
10
74.0693333333334
20
36.9113345736238
30
0
0
VERTEX
8
0
10
74.6666666666667
20
36.9806541487606
30
0
0
VERTEX
8
0
10
75.2640000000001
20
37.0476084698196
30
0
0
VERTEX
8
0
10
75.8613333333334
20
37.1145694296184
30
0
0
VERTEX
8
0
10
76.4586666666667
20
37.1815369922896
30
0
0
VERTEX
8
0
10
77.0560000000001
20
37.2448638353584
30
0
0
VERTEX
8
0
10
77.6533333333334
20
37.3112298537903
30
0
0
VERTEX
8
0
10
78.2506666666667
20
37.376983637136
30
0
0
VERTEX
8
0
10
78.848
20
37.4427416026927
30
0
0
VERTEX
8
0
10
79.4453333333334
20
37.5085037284643
30
0
0
VERTEX
8
0
10
80.0426666666667
20
37.5611858664107
30
0
0
VERTEX
8
0
10
80.64
20
37.6149110809418
30
0
0
VERTEX
8
0
10
81.2373333333334
20
37.6686424052424
30
0
0
VERTEX
8
0
10
81.8346666666667
20
37.7223798132046
30
0
0
VERTEX
8
0
10
82.432
20
37.7584319547607
30
0
0
VERTEX
8
0
10
83.0293333333334
20
37.7779724882444
30
0
0
VERTEX
8
0
10
83.6266666666667
20
37.7991348182452
30
0
0
VERTEX
8
0
10
84.224
20
37.8202978912854
30
0
0
VERTEX
8
0
10
84.8213333333334
20
37.8414617061184
30
0
0
VERTEX
8
0
10
85.4186666666667
20
37.8806858291116
30
0
0
VERTEX
8
0
10
86.016
20
37.9163065281314
30
0
0
VERTEX
8
0
10
86.6133333333334
20
37.9519291733504
30
0
0
VERTEX
8
0
10
87.2106666666667
20
37.9875537592932
30
0
0
VERTEX
8
0
10
87.8080000000001
20
38.027185607569
30
0
0
VERTEX
8
0
10
88.4053333333334
20
38.0825952798668
30
0
0
VERTEX
8
0
10
89.0026666666667
20
38.1335507734815
30
0
0
VERTEX
8
0
10
89.6000000000001
20
38.1845402427651
30
0
0
VERTEX
8
0
10
90.1973333333334
20
38.2355635517915
30
0
0
VERTEX
8
0
10
90.7946666666667
20
38.2673449859176
30
0
0
VERTEX
8
0
10
91.3920000000001
20
38.3022076937168
30
0
0
VERTEX
8
0
10
91.9893333333334
20
38.3370704243601
30
0
0
VERTEX
8
0
10
92.5866666666667
20
38.3719331777851
30
0
0
VERTEX
8
0
10
93.1840000000001
20
38.4393193892311
30
0
0
VERTEX
8
0
10
93.7813333333334
20
38.5062133307657
30
0
0
VERTEX
8
0
10
94.3786666666667
20
38.5731138695293
30
0
0
VERTEX
8
0
10
94.9760000000001
20
38.6400209712549
30
0
0
VERTEX
8
0
10
95.5733333333334
20
38.6777933359106
30
0
0
VERTEX
8
0
10
96.1706666666667
20
38.6941348725166
30
0
0
VERTEX
8
0
10
96.7680000000001
20
38.7104768665723
30
0
0
VERTEX
8
0
10
97.3653333333334
20
38.7268193174985
30
0
0
VERTEX
8
0
10
97.9626666666667
20
38.7431622247172
30
0
0
VERTEX
8
0
10
98.5600000000001
20
38.7399839251861
30
0
0
VERTEX
8
0
10
99.1573333333334
20
38.7394677643817
30
0
0
VERTEX
8
0
10
99.7546666666667
20
38.7389516062716
30
0
0
VERTEX
8
0
10
100.352
20
38.7384354508561
30
0
0
VERTEX
8
0
10
100.949333333333
20
38.7361379977661
30
0
0
VERTEX
8
0
10
101.546666666667
20
38.7332133644783
30
0
0
VERTEX
8
0
10
102.144
20
38.7302887325682
30
0
0
VERTEX
8
0
10
102.741333333333
20
38.7273641020362
30
0
0
VERTEX
8
0
10
103.338666666667
20
38.7244394728827
30
0
0
VERTEX
8
0
10
103.936
20
38.7756153885013
30
0
0
VERTEX
8
0
10
104.533333333333
20
38.8136386594782
30
0
0
VERTEX
8
0
10
105.130666666667
20
38.8516640961239
30
0
0
VERTEX
8
0
10
105.728
20
38.8896916920858
30
0
0
VERTEX
8
0
10
106.325333333333
20
38.9134016011504
30
0
0
VERTEX
8
0
10
106.922666666667
20
38.9402724831985
30
0
0
VERTEX
8
0
10
107.52
20
38.9671876892139
30
0
0
VERTEX
8
0
10
108.117333333333
20
38.9941471274145
30
0
0
VERTEX
8
0
10
108.714666666667
20
39.0211507061212
30
0
0
VERTEX
8
0
10
109.312
20
39.0134110457534
30
0
0
VERTEX
8
0
10
109.909333333333
20
39.0145844825808
30
0
0
VERTEX
8
0
10
110.506666666667
20
39.0157591388902
30
0
0
VERTEX
8
0
10
111.104
20
39.0169350145717
30
0
0
VERTEX
8
0
10
111.701333333333
20
39.0169855244024
30
0
0
VERTEX
8
0
10
112.298666666667
20
39.0164679350073
30
0
0
VERTEX
8
0
10
112.896
20
39.0159503482496
30
0
0
VERTEX
8
0
10
113.493333333333
20
39.0154327641294
30
0
0
VERTEX
8
0
10
114.090666666667
20
39.0149151826469
30
0
0
VERTEX
8
0
10
114.688
20
39.0143976038021
30
0
0
VERTEX
8
0
10
115.285333333333
20
39.0138800275951
30
0
0
VERTEX
8
0
10
115.882666666667
20
39.013362454026
30
0
0
VERTEX
8
0
10
116.48
20
39.0128448830949
30
0
0
VERTEX
8
0
10
117.077333333333
20
39.012327314802
30
0
0
VERTEX
8
0
10
117.674666666667
20
39.0118097491474
30
0
0
VERTEX
8
0
10
118.272
20
39.0112921861311
30
0
0
VERTEX
8
0
10
118.869333333333
20
39.0107746257532
30
0
0
VERTEX
8
0
10
119.466666666667
20
39.0200188493407
30
0
0
VERTEX
8
0
10
120.064
20
39.0315318251386
30
0
0
VERTEX
8
0
10
120.661333333333
20
39.0430450538684
30
0
0
VERTEX
8
0
10
121.258666666667
20
39.0545585353065
30
0
0
VERTEX
8
0
10
121.856
20
39.0660722692293
30
0
0
VERTEX
8
0
10
122.453333333333
20
39.1178147440991
30
0
0
VERTEX
8
0
10
123.050666666667
20
39.1582081377294
30
0
0
VERTEX
8
0
10
123.648
20
39.1986040240769
30
0
0
VERTEX
8
0
10
124.245333333333
20
39.239002395443
30
0
0
VERTEX
8
0
10
124.842666666667
20
39.2395158010409
30
0
0
VERTEX
8
0
10
125.44
20
39.2389987187979
30
0
0
VERTEX
8
0
10
126.037333333333
20
39.2384816391908
30
0
0
VERTEX
8
0
10
126.634666666667
20
39.2379645622196
30
0
0
VERTEX
8
0
10
127.232
20
39.2173560243518
30
0
0
VERTEX
8
0
10
127.829333333333
20
39.1807373879436
30
0
0
VERTEX
8
0
10
128.426666666667
20
39.1441204278967
30
0
0
VERTEX
8
0
10
129.024
20
39.1075051489201
30
0
0
VERTEX
8
0
10
129.621333333333
20
39.0708915557399
30
0
0
VERTEX
8
0
10
130.218666666667
20
39.0561902028233
30
0
0
VERTEX
8
0
10
130.816
20
39.0388287648078
30
0
0
VERTEX
8
0
10
131.413333333333
20
39.021467663277
30
0
0
VERTEX
8
0
10
132.010666666666
20
39.0041068986801
30
0
0
VERTEX
8
0
10
132.608
20
38.9988714655175
30
0
0
VERTEX
8
0
10
133.205333333333
20
38.998353968494
30
0
0
VERTEX
8
0
10
133.802666666666
20
38.9978364741117
30
0
0
VERTEX
8
0
10
134.4
20
38.9973189823705
30
0
0
VERTEX
8
0
10
134.997333333333
20
38.9968014932706
30
0
0
VERTEX
8
0
10
135.594666666666
20
39.0018745911646
30
0
0
VERTEX
8
0
10
136.192
20
39.0075860984193
30
0
0
VERTEX
8
0
10
136.789333333333
20
39.0133151222448
30
0
0
VERTEX
8
0
10
137.386666666666
20
39.0190616549254
30
0
0
VERTEX
8
0
10
137.984
20
38.9653661034833
30
0
0
VERTEX
8
0
10
138.581333333333
20
38.9038566172132
30
0
0
VERTEX
8
0
10
139.178666666666
20
38.8423929744634
30
0
0
VERTEX
8
0
10
139.776
20
38.7809753932048
30
0
0
VERTEX
8
0
10
140.373333333333
20
38.7196040926276
30
0
0
VERTEX
8
0
10
140.970666666666
20
38.5459080934555
30
0
0
VERTEX
8
0
10
141.568
20
38.4061462853369
30
0
0
VERTEX
8
0
10
142.165333333333
20
38.2664141900476
30
0
0
VERTEX
8
0
10
142.762666666666
20
38.1267121342747
30
0
0
VERTEX
8
0
10
143.36
20
37.9744866147636
30
0
0
VERTEX
8
0
10
143.957333333333
20
37.822857111871
30
0
0
VERTEX
8
0
10
144.554666666666
20
37.6712643665937
30
0
0
VERTEX
8
0
10
145.152
20
37.5197088244726
30
0
0
VERTEX
8
0
10
145.749333333333
20
37.3636735757114
30
0
0
VERTEX
8
0
10
146.346666666666
20
37.2050075633402
30
0
0
VERTEX
8
0
10
146.943999999999
20
37.0463839681326
30
0
0
VERTEX
8
0
10
147.541333333333
20
36.8878033372908
30
0
0
VERTEX
8
0
10
148.138666666666
20
36.729266227318
30
0
0
VERTEX
8
0
10
148.735999999999
20
36.5533988747256
30
0
0
VERTEX
8
0
10
149.333333333333
20
36.3806015100241
30
0
0
VERTEX
8
0
10
149.930666666666
20
36.2078582049902
30
0
0
VERTEX
8
0
10
150.527999999999
20
36.0351697370681
30
0
0
VERTEX
8
0
10
151.125333333333
20
35.8795670904225
30
0
0
VERTEX
8
0
10
151.722666666666
20
35.7153578726503
30
0
0
VERTEX
8
0
10
152.319999999999
20
35.5548252859803
30
0
0
VERTEX
8
0
10
152.917333333333
20
35.3942930291193
30
0
0
VERTEX
8
0
10
153.514666666666
20
35.2337611065754
30
0
0
VERTEX
8
0
10
154.111999999999
20
35.1186661768998
30
0
0
VERTEX
8
0
10
154.709333333333
20
34.9920890129683
30
0
0
VERTEX
8
0
10
155.306666666666
20
34.8655131146271
30
0
0
SEQEND
8
0
0
POLYLINE
8
0
62
2
70
0
10
0
20
0
30
0
0
VERTEX
8
0
10
10.752
20
3.81989654229427
30
0
0
VERTEX
8
0
10
11.3493333333333
20
3.99304183547185
30
0
0
VERTEX
8
0
10
11.9466666666667
20
4.24904342657348
30
0
0
VERTEX
8
0
10
12.544
20
4.53841495338083
30
0
0
VERTEX
8
0
10
13.1413333333333
20
4.85519349195463
30
0
0
VERTEX
8
0
10
13.7386666666667
20
5.19974428562413
30
0
0
VERTEX
8
0
10
14.336
20
5.54173923633456
30
0
0
VERTEX
8
0
10
14.9333333333333
20
5.90539353142003
30
0
0
VERTEX
8
0
10
15.5306666666667
20
6.28409161255216
30
0
0
VERTEX
8
0
10
16.128
20
6.67527360229993
30
0
0
VERTEX
8
0
10
16.7253333333333
20
7.03575599010077
30
0
0
VERTEX
8
0
10
17.3226666666667
20
7.39911965046671
30
0
0
VERTEX
8
0
10
17.92
20
7.77059345337732
30
0
0
VERTEX
8
0
10
18.5173333333333
20
8.14906837616931
30
0
0
VERTEX
8
0
10
19.1146666666667
20
8.51630621507143
30
0
0
VERTEX
8
0
10
19.712
20
8.86565450635087
30
0
0
VERTEX
8
0
10
20.3093333333333
20
9.22347113860718
30
0
0
VERTEX
8
0
10
20.9066666666667
20
9.58550295376912
30
0
0
VERTEX
8
0
10
21.504
20
9.95128991246715
30
0
0
VERTEX
8
0
10
22.1013333333333
20
10.2858267543807
30
0
0
VERTEX
8
0
10
22.6986666666667
20
10.6280497261018
30
0
0
VERTEX
8
0
10
23.296
20
10.973289548092
30
0
0
VERTEX
8
0
10
23.8933333333333
20
11.3212702290181
30
0
0
VERTEX
8
0
10
24.4906666666667
20
11.6815126672894
30
0
0
VERTEX
8
0
10
25.088
20
12.0619005162525
30
0
0
VERTEX
8
0
10
25.6853333333333
20
12.4385488378252
30
0
0
VERTEX
8
0
10
26.2826666666667
20
12.8166640614562
30
0
0
VERTEX
8
0
10
26.88
20
13.1961200920482
30
0
0
VERTEX
8
0
10
27.4773333333333
20
13.5870179752793
30
0
0
VERTEX
8
0
10
28.0746666666667
20
13.978903284277
30
0
0
VERTEX
8
0
10
28.672
20
14.3713569167186
30
0
0
VERTEX
8
0
10
29.2693333333333
20
14.7643335525245
30
0
0
VERTEX
8
0
10
29.8666666666667
20
15.1745054103143
30
0
0
VERTEX
8
0
10
30.464
20
15.5887777502631
30
0
0
VERTEX
8
0
10
31.0613333333333
20
16.0032407132055
30
0
0
VERTEX
8
0
10
31.6586666666667
20
16.4178798625389
30
0
0
VERTEX
8
0
10
32.256
20
16.8555795487009
30
0
0
VERTEX
8
0
10
32.8533333333333
20
17.2947401808289
30
0
0
VERTEX
8
0
10
33.4506666666667
20
17.7367144408655
30
0
0
VERTEX
8
0
10
34.048
20
18.1791361909998
30
0
0
VERTEX
8
0
10
34.6453333333333
20
18.621973536785
30
0
0
VERTEX
8
0
10
35.2426666666667
20
19.0758085260747
30
0
0
VERTEX
8
0
10
35.84
20
19.5280418133287
30
0
0
VERTEX
8
0
10
36.4373333333333
20
19.9806553370153
30
0
0
VERTEX
8
0
10
37.0346666666667
20
20.4336238299504
30
0
0
VERTEX
8
0
10
37.632
20
20.8795764823342
30
0
0
VERTEX
8
0
10
38.2293333333334
20
21.3086805033082
30
0
0
VERTEX
8
0
10
38.8266666666667
20
21.7425414006204
30
0
0
VERTEX
8
0
10
39.424
20
22.1769412550098
30
0
0
VERTEX
8
0
10
40.0213333333334
20
22.6118490045255
30
0
0
VERTEX
8
0
10
40.6186666666667
20
23.0169146466657
30
0
0
VERTEX
8
0
10
41.216
20
23.4318728317169
30
0
0
VERTEX
8
0
10
41.8133333333334
20
23.8470697030182
30
0
0
VERTEX
8
0
10
42.4106666666667
20
24.2624930068709
30
0
0
VERTEX
8
0
10
43.008
20
24.6539032705777
30
0
0
VERTEX
8
0
10
43.6053333333334
20
25.0426594619421
30
0
0
VERTEX
8
0
10
44.2026666666667
20
25.4316414162483
30
0
0
VERTEX
8
0
10
44.8
20
25.8208389303777
30
0
0
VERTEX
8
0
10
45.3973333333334
20
26.2240247971462
30
0
0
VERTEX
8
0
10
45.9946666666667
20
26.6455193206529
30
0
0
VERTEX
8
0
10
46.592
20
27.0665297360606
30
0
0
VERTEX
8
0
10
47.1893333333334
20
27.487663285744
30
0
0
VERTEX
8
0
10
47.7866666666667
20
27.9089143955734
30
0
0
VERTEX
8
0
10
48.384
20
28.2706934718362
30
0
0
VERTEX
8
0
10
48.9813333333334
20
28.6375957888484
30
0
0
VERTEX
8
0
10
49.5786666666667
20
29.004580631976
30
0
0
VERTEX
8
0
10
50.176
20
29.3716449078446
30
0
0
VERTEX
8
0
10
50.7733333333334
20
29.6826703888476
30
0
0
VERTEX
8
0
10
51.3706666666667
20
29.9712278245738
30
0
0
VERTEX
8
0
10
51.968
20
30.2591239468874
30
0
0
VERTEX
8
0
10
52.5653333333334
20
30.5470297462414
30
0
0
VERTEX
8
0
10
53.1626666666667
20
30.8349449515724
30
0
0
VERTEX
8
0
10
53.76
20
31.0848015632838
30
0
0
VERTEX
8
0
10
54.3573333333334
20
31.3411077383386
30
0
0
VERTEX
8
0
10
54.9546666666667
20
31.5974456201616
30
0
0
VERTEX
8
0
10
55.552
20
31.853814443289
30
0
0
VERTEX
8
0
10
56.1493333333334
20
32.0958914216026
30
0
0
VERTEX
8
0
10
56.7466666666667
20
32.3346569732917
30
0
0
VERTEX
8
0
10
57.344
20
32.5737047366056
30
0
0
VERTEX
8
0
10
57.9413333333334
20
32.8127779102203
30
0
0
VERTEX
8
0
10
58.5386666666667
20
33.0518759427373
30
0
0
VERTEX
8
0
10
59.136
20
33.2622763998368
30
0
0
VERTEX
8
0
10
59.7333333333334
20
33.4819816613948
30
0
0
VERTEX
8
0
10
60.3306666666667
20
33.7016923712765
30
0
0
VERTEX
8
0
10
60.928
20
33.9214084236145
30
0
0
VERTEX
8
0
10
61.5253333333334
20
34.1090952138203
30
0
0
VERTEX
8
0
10
62.1226666666667
20
34.2954815552571
30
0
0
VERTEX
8
0
10
62.72
20
34.4818870849401
30
0
0
VERTEX
8
0
10
63.3173333333334
20
34.6683114933537
30
0
0
VERTEX
8
0
10
63.9146666666667
20
34.8461394657489
30
0
0
VERTEX
8
0
10
64.512
20
35.0247016478504
30
0
0
VERTEX
8
0
10
65.1093333333334
20
35.202195412148
30
0
0
VERTEX
8
0
10
65.7066666666667
20
35.3796893013926
30
0
0
VERTEX
8
0
10
66.304
20
35.5571833137131
30
0
0
VERTEX
8
0
10
66.9013333333334
20
35.6784812934194
30
0
0
VERTEX
8
0
10
67.4986666666667
20
35.8060076100036
30
0
0
VERTEX
8
0
10
68.096
20
35.9335418360959
30
0
0
VERTEX
8
0
10
68.6933333333334
20
36.0610838877775
30
0
0
VERTEX
8
0
10
69.2906666666667
20
36.1758223457809
30
0
0
VERTEX
8
0
10
69.888
20
36.29243399828
30
0
0
VERTEX
8
0
10
70.4853333333334
20
36.4074841951379
30
0
0
VERTEX
8
0
10
71.0826666666667
20
36.522535510271
30
0
0
VERTEX
8
0
10
71.68
20
36.6375879331442
30
0
0
VERTEX
8
0
10
72.2773333333334
20
36.6956458357271
30
0
0
VERTEX
8
0
10
72.8746666666667
20
36.7675411085448
30
0
0
VERTEX
8
0
10
73.4720000000001
20
36.8394373564095
30
0
0
VERTEX
8
0
10
74.0693333333334
20
36.9113345736238
30
0
0
VERTEX
8
0
10
74.6666666666667
20
36.9806541487606
30
0
0
VERTEX
8
0
10
75.2640000000001
20
37.0476084698196
30
0
0
VERTEX
8
0
10
75.8613333333334
20
37.1145694296184
30
0
0
VERTEX
8
0
10
76.4586666666667
20
37.1815369922896
30
0
0
VERTEX
8
0
10
77.0560000000001
20
37.2448638353584
30
0
0
VERTEX
8
0
10
77.6533333333334
20
37.3112298537903
30
0
0
VERTEX
8
0
10
78.2506666666667
20
37.376983637136
30
0
0
VERTEX
8
0
10
78.848
20
37.4427416026927
30
0
0
VERTEX
8
0
10
79.4453333333334
20
37.5085037284643
30
0
0
VERTEX
8
0
10
80.0426666666667
20
37.5611858664107
30
0
0
VERTEX
8
0
10
80.64
20
37.6149110809418
30
0
0
VERTEX
8
0
10
81.2373333333334
20
37.6686424052424
30
0
0
VERTEX
8
0
10
81.8346666666667
20
37.7223798132046
30
0
0
VERTEX
8
0
10
82.432
20
37.7584319547607
30
0
0
VERTEX
8
0
10
83.0293333333334
20
37.7779724882444
30
0
0
VERTEX
8
0
10
83.6266666666667
20
37.7991348182452
30
0
0
VERTEX
8
0
10
84.224
20
37.8202978912854
30
0
0
VERTEX
8
0
10
84.8213333333334
20
37.8414617061184
30
0
0
VERTEX
8
0
10
85.4186666666667
20
37.8806858291116
30
0
0
VERTEX
8
0
10
86.016
20
37.9163065281314
30
0
0
VERTEX
8
0
10
86.6133333333334
20
37.9519291733504
30
0
0
VERTEX
8
0
10
87.2106666666667
20
37.9875537592932
30
0
0
VERTEX
8
0
10
87.8080000000001
20
38.027185607569
30
0
0
VERTEX
8
0
10
88.4053333333334
20
38.0825952798668
30
0
0
VERTEX
8
0
10
89.0026666666667
20
38.1335507734816
30
0
0
VERTEX
8
0
10
89.6000000000001
20
38.1845402427651
30
0
0
VERTEX
8
0
10
90.1973333333334
20
38.2355635517915
30
0
0
VERTEX
8
0
10
90.7946666666667
20
38.2673449859176
30
0
0
VERTEX
8
0
10
91.3920000000001
20
38.3022076937168
30
0
0
VERTEX
8
0
10
91.9893333333334
20
38.3370704243601
30
0
0
VERTEX
8
0
10
92.5866666666667
20
38.3719331777851
30
0
0
VERTEX
8
0
10
93.1840000000001
20
38.4393193892311
30
0
0
VERTEX
8
0
10
93.7813333333334
20
38.5062133307657
30
0
0
VERTEX
8
0
10
94.3786666666667
20
38.5731138695293
30
0
0
VERTEX
8
0
10
94.9760000000001
20
38.6400209712549
30
0
0
VERTEX
8
0
10
95.5733333333334
20
38.6777933359106
30
0
0
VERTEX
8
0
10
96.1706666666667
20
38.6941348725166
30
0
0
VERTEX
8
0
10
96.7680000000001
20
38.7104768665723
30
0
0
VERTEX
8
0
10
97.3653333333334
20
38.7268193174985
30
0
0
VERTEX
8
0
10
97.9626666666667
20
38.7431622247172
30
0
0
VERTEX
8
0
10
98.5600000000001
20
38.7399839251861
30
0
0
VERTEX
8
0
10
99.1573333333334
20
38.7394677643817
30
0
0
VERTEX
8
0
10
99.7546666666667
20
38.7389516062716
30
0
0
VERTEX
8
0
10
100.352
20
38.7384354508561
30
0
0
VERTEX
8
0
10
100.949333333333
20
38.7361379977661
30
0
0
VERTEX
8
0
10
101.546666666667
20
38.7332133644783
30
0
0
VERTEX
8
0
10
102.144
20
38.7302887325682
30
0
0
VERTEX
8
0
10
102.741333333333
20
38.7273641020362
30
0
0
VERTEX
8
0
10
103.338666666667
20
38.7244394728827
30
0
0
VERTEX
8
0
10
103.936
20
38.7756153885013
30
0
0
VERTEX
8
0
10
104.533333333333
20
38.8136386594782
30
0
0
VERTEX
8
0
10
105.130666666667
20
38.8516640961239
30
0
0
VERTEX
8
0
10
105.728
20
38.8896916920858
30
0
0
VERTEX
8
0
10
106.325333333333
20
38.9134016011504
30
0
0
VERTEX
8
0
10
106.922666666667
20
38.9402724831985
30
0
0
VERTEX
8
0
10
107.52
20
38.9671876892139
30
0
0
VERTEX
8
0
10
108.117333333333
20
38.9941471274145
30
0
0
VERTEX
8
0
10
108.714666666667
20
39.0211507061212
30
0
0
VERTEX
8
0
10
109.312
20
39.0134110457534
30
0
0
VERTEX
8
0
10
109.909333333333
20
39.0145844825808
30
0
0
VERTEX
8
0
10
110.506666666667
20
39.0157591388902
30
0
0
VERTEX
8
0
10
111.104
20
39.0169350145717
30
0
0
VERTEX
8
0
10
111.701333333333
20
39.0169855244024
30
0
0
VERTEX
8
0
10
112.298666666667
20
39.0164679350073
30
0
0
VERTEX
8
0
10
112.896
20
39.0159503482496
30
0
0
VERTEX
8
0
10
113.493333333333
20
39.0154327641294
30
0
0
VERTEX
8
0
10
114.090666666667
20
39.0149151826469
30
0
0
VERTEX
8
0
10
114.688
20
39.0143976038021
30
0
0
VERTEX
8
0
10
115.285333333333
20
39.0138800275951
30
0
0
VERTEX
8
0
10
115.882666666667
20
39.013362454026
30
0
0
VERTEX
8
0
10
116.48
20
39.0128448830949
30
0
0
VERTEX
8
0
10
117.077333333333
20
39.012327314802
30
0
0
VERTEX
8
0
10
117.674666666667
20
39.0118097491474
30
0
0
VERTEX
8
0
10
118.272
20
39.0112921861311
30
0
0
VERTEX
8
0
10
118.869333333333
20
39.0107746257532
30
0
0
VERTEX
8
0
10
119.466666666667
20
39.0200188493407
30
0
0
VERTEX
8
0
10
120.064
20
39.0315318251386
30
0
0
VERTEX
8
0
10
120.661333333333
20
39.0430450538684
30
0
0
VERTEX
8
0
10
121.258666666667
20
39.0545585353065
30
0
0
VERTEX
8
0
10
121.856
20
39.0660722692292
30
0
0
VERTEX
8
0
10
122.453333333333
20
39.1178147440991
30
0
0
VERTEX
8
0
10
123.050666666667
20
39.1582081377294
30
0
0
VERTEX
8
0
10
123.648
20
39.1986040240769
30
0
0
VERTEX
8
0
10
124.245333333333
20
39.239002395443
30
0
0
VERTEX
8
0
10
124.842666666667
20
39.2395158010409
30
0
0
VERTEX
8
0
10
125.44
20
39.2389987187979
30
0
0
VERTEX
8
0
10
126.037333333333
20
39.2384816391908
30
0
0
VERTEX
8
0
10
126.634666666667
20
39.2379645622196
30
0
0
VERTEX
8
0
10
127.232
20
39.2173560243518
30
0
0
VERTEX
8
0
10
127.829333333333
20
39.1807373879436
30
0
0
VERTEX
8
0
10
128.426666666667
20
39.1441204278967
30
0
0
VERTEX
8
0
10
129.024
20
39.1075051489201
30
0
0
VERTEX
8
0
10
129.621333333333
20
39.0708915557399
30
0
0
VERTEX
8
0
10
130.218666666667
20
39.0561902028233
30
0
0
VERTEX
8
0
10
130.816
20
39.0388287648078
30
0
0
VERTEX
8
0
10
131.413333333333
20
39.021467663277
30
0
0
VERTEX
8
0
10
132.010666666666
20
39.0041068986801
30
0
0
VERTEX
8
0
10
132.608
20
38.9988714655175
30
0
0
VERTEX
8
0
10
133.205333333333
20
38.998353968494
30
0
0
VERTEX
8
0
10
133.802666666666
20
38.9978364741117
30
0
0
VERTEX
8
0
10
134.4
20
38.9973189823705
30
0
0
VERTEX
8
0
10
134.997333333333
20
38.9968014932706
30
0
0
VERTEX
8
0
10
135.594666666666
20
39.0018745911646
30
0
0
VERTEX
8
0
10
136.192
20
39.0075860984193
30
0
0
VERTEX
8
0
10
136.789333333333
20
39.0133151222448
30
0
0
VERTEX
8
0
10
137.386666666666
20
39.0190616549254
30
0
0
VERTEX
8
0
10
137.984
20
38.9653661034833
30
0
0
VERTEX
8
0
10
138.581333333333
20
38.9038566172132
30
0
0
VERTEX
8
0
10
139.178666666666
20
38.8423929744634
30
0
0
VERTEX
8
0
10
139.776
20
38.7809753932048
30
0
0
VERTEX
8
0
10
140.373333333333
20
38.7196040926276
30
0
0
VERTEX
8
0
10
140.970666666666
20
38.5459080934555
30
0
0
VERTEX
8
0
10
141.568
20
38.4061462853369
30
0
0
VERTEX
8
0
10
142.165333333333
20
38.2664141900476
30
0
0
VERTEX
8
0
10
142.762666666666
20
38.1267121342747
30
0
0
VERTEX
8
0
10
143.36
20
37.9744866147636
30
0
0
VERTEX
8
0
10
143.957333333333
20
37.822857111871
30
0
0
VERTEX
8
0
10
144.554666666666
20
37.6712643665937
30
0
0
VERTEX
8
0
10
145.152
20
37.5197088244726
30
0
0
VERTEX
8
0
10
145.749333333333
20
37.3636735757114
30
0
0
VERTEX
8
0
10
146.346666666666
20
37.2050075633402
30
0
0
VERTEX
8
0
10
146.943999999999
20
37.0463839681326
30
0
0
VERTEX
8
0
10
147.541333333333
20
36.8878033372908
30
0
0
VERTEX
8
0
10
148.138666666666
20
36.729266227318
30
0
0
VERTEX
8
0
10
148.735999999999
20
36.5533988747256
30
0
0
VERTEX
8
0
10
149.333333333333
20
36.3806015100241
30
0
0
VERTEX
8
0
10
149.930666666666
20
36.2078582049902
30
0
0
VERTEX
8
0
10
150.527999999999
20
36.0351697370681
30
0
0
VERTEX
8
0
10
151.125333333333
20
35.8795670904225
30
0
0
VERTEX
8
0
10
151.722666666666
20
35.7153578726503
30
0
0
VERTEX
8
0
10
152.319999999999
20
35.5548252859803
30
0
0
VERTEX
8
0
10
152.917333333333
20
35.3942930291194
30
0
0
VERTEX
8
0
10
153.514666666666
20
35.2337611065754
30
0
0
VERTEX
8
0
10
154.111999999999
20
35.1186661768998
30
0
0
VERTEX
8
0
10
154.709333333333
20
34.9920890129683
30
0
0
VERTEX
8
0
10
155.306666666666
20
34.8655131146271
30
0
0
SEQEND
8
0
0
POLYLINE
8
0
62
3
70
0
10
0
20
0
30
0
0
VERTEX
8
0
10
10.752
20
10.0882475065648
30
0
0
VERTEX
8
0
10
11.3493333333333
20
11.7956893864834
30
0
0
VERTEX
8
0
10
11.9466666666667
20
13.1456494582862
30
0
0
VERTEX
8
0
10
12.544
20
14.0094652297477
30
0
0
VERTEX
8
0
10
13.1413333333333
20
16.0760036131702
30
0
0
VERTEX
8
0
10
13.7386666666667
20
16.2818689840296
30
0
0
VERTEX
8
0
10
14.336
20
17.1406604158491
30
0
0
VERTEX
8
0
10
14.9333333333333
20
18.6849546209063
30
0
0
VERTEX
8
0
10
15.5306666666667
20
19.044961841071
30
0
0
VERTEX
8
0
10
16.128
20
19.8997654538373
30
0
0
VERTEX
8
0
10
16.7253333333333
20
21.1295427383326
30
0
0
VERTEX
8
0
10
17.3226666666667
20
21.5902960854091
30
0
0
VERTEX
8
0
10
17.92
20
22.4356995459908
30
0
0
VERTEX
8
0
10
18.5173333333333
20
23.4603267266647
30
0
0
VERTEX
8
0
10
19.1146666666667
20
23.9877457795298
30
0
0
VERTEX
8
0
10
19.712
20
24.7946659770834
30
0
0
VERTEX
8
0
10
20.3093333333333
20
25.7028552563615
30
0
0
VERTEX
8
0
10
20.9066666666667
20
26.2741936199255
30
0
0
VERTEX
8
0
10
21.504
20
27.046443567512
30
0
0
VERTEX
8
0
10
22.1013333333333
20
27.8716802812544
30
0
0
VERTEX
8
0
10
22.6986666666667
20
28.4715244044041
30
0
0
VERTEX
8
0
10
23.296
20
29.2118481232073
30
0
0
VERTEX
8
0
10
23.8933333333333
20
29.97609193812
30
0
0
VERTEX
8
0
10
24.4906666666667
20
30.5936420875971
30
0
0
VERTEX
8
0
10
25.088
20
31.3043065381208
30
0
0
VERTEX
8
0
10
25.6853333333333
20
32.0223792531202
30
0
0
VERTEX
8
0
10
26.2826666666667
20
32.6499988487072
30
0
0
VERTEX
8
0
10
26.88
20
33.3328814417922
30
0
0
VERTEX
8
0
10
27.4773333333333
20
34.015121216306
30
0
0
VERTEX
8
0
10
28.0746666666667
20
34.6472580751832
30
0
0
VERTEX
8
0
10
28.672
20
35.3040218596556
30
0
0
VERTEX
8
0
10
29.2693333333333
20
35.9577429656289
30
0
0
VERTEX
8
0
10
29.8666666666667
20
36.5903495340868
30
0
0
VERTEX
8
0
10
30.464
20
37.3237447555593
30
0
0
VERTEX
8
0
10
31.0613333333333
20
37.8529429262566
30
0
0
VERTEX
8
0
10
31.6586666666667
20
38.4829956631239
30
0
0
VERTEX
8
0
10
32.256
20
39.1656749936852
30
0
0
VERTEX
8
0
10
32.8533333333333
20
39.7028693953498
30
0
0
VERTEX
8
0
10
33.4506666666667
20
40.3281178877094
30
0
0
VERTEX
8
0
10
34.048
20
40.9678014008196
30
0
0
VERTEX
8
0
10
34.6453333333333
20
41.5093033762844
30
0
0
VERTEX
8
0
10
35.2426666666667
20
42.1052706063862
30
0
0
VERTEX
8
0
10
35.84
20
42.7308355740573
30
0
0
VERTEX
8
0
10
36.4373333333333
20
43.2737243380596
30
0
0
VERTEX
8
0
10
37.0346666666667
20
43.8556349361814
30
0
0
VERTEX
8
0
10
37.632
20
44.455437501448
30
0
0
VERTEX
8
0
10
38.2293333333334
20
44.9974032500735
30
0
0
VERTEX
8
0
10
38.8266666666667
20
45.5646736524208
30
0
0
VERTEX
8
0
10
39.424
20
46.1422402324295
30
0
0
VERTEX
8
0
10
40.0213333333334
20
46.6814295104616
30
0
0
VERTEX
8
0
10
40.6186666666667
20
47.233716999538
30
0
0
VERTEX
8
0
10
41.216
20
47.7918329870433
30
0
0
VERTEX
8
0
10
41.8133333333334
20
48.3267642094325
30
0
0
VERTEX
8
0
10
42.4106666666667
20
48.8638893852925
30
0
0
VERTEX
8
0
10
43.008
20
49.4047792537995
30
0
0
VERTEX
8
0
10
43.6053333333334
20
49.9342516364413
30
0
0
VERTEX
8
0
10
44.2026666666667
20
50.4561670217277
30
0
0
VERTEX
8
0
10
44.8
20
50.9816056157145
30
0
0
VERTEX
8
0
10
45.3973333333334
20
51.5046524127735
30
0
0
VERTEX
8
0
10
45.9946666666667
20
52.0113980180986
30
0
0
VERTEX
8
0
10
46.592
20
52.5228156959623
30
0
0
VERTEX
8
0
10
47.1893333333334
20
53.0386483377739
30
0
0
VERTEX
8
0
10
47.7866666666667
20
53.5540412374691
30
0
0
VERTEX
8
0
10
48.384
20
54.0288826629171
30
0
0
VERTEX
8
0
10
48.9813333333334
20
54.5368642929189
30
0
0
VERTEX
8
0
10
49.5786666666667
20
55.0305026591266
30
0
0
VERTEX
8
0
10
50.176
20
55.5002601406581
30
0
0
VERTEX
8
0
10
50.7733333333334
20
55.9998700603539
30
0
0
VERTEX
8
0
10
51.3706666666667
20
56.4734869310163
30
0
0
VERTEX
8
0
10
51.968
20
56.9373770287446
30
0
0
VERTEX
8
0
10
52.5653333333334
20
57.4083263831082
30
0
0
VERTEX
8
0
10
53.1626666666667
20
57.8832759937574
30
0
0
VERTEX
8
0
10
53.76
20
58.3406461082225
30
0
0
VERTEX
8
0
10
54.3573333333334
20
58.7994911346123
30
0
0
VERTEX
8
0
10
54.9546666666667
20
59.2601587004111
30
0
0
VERTEX
8
0
10
55.552
20
59.7104603467896
30
0
0
VERTEX
8
0
10
56.1493333333334
20
60.1570291647929
30
0
0
VERTEX
8
0
10
56.7466666666667
20
60.6044234693475
30
0
0
VERTEX
8
0
10
57.344
20
61.0471997438258
30
0
0
VERTEX
8
0
10
57.9413333333334
20
61.4813914910275
30
0
0
VERTEX
8
0
10
58.5386666666667
20
61.9163614279412
30
0
0
VERTEX
8
0
10
59.136
20
62.3512286224814
30
0
0
VERTEX
8
0
10
59.7333333333334
20
62.7730035100371
30
0
0
VERTEX
8
0
10
60.3306666666667
20
63.1962613830117
30
0
0
VERTEX
8
0
10
60.928
20
63.622901130002
30
0
0
VERTEX
8
0
10
61.5253333333334
20
64.0322655934539
30
0
0
VERTEX
8
0
10
62.1226666666667
20
64.4444128706096
30
0
0
VERTEX
8
0
10
62.72
20
64.8625592134874
30
0
0
VERTEX
8
0
10
63.3173333333334
20
65.2595601048208
30
0
0
VERTEX
8
0
10
63.9146666666667
20
65.6611026295934
30
0
0
VERTEX
8
0
10
64.512
20
66.0705370963462
30
0
0
VERTEX
8
0
10
65.1093333333334
20
66.4591725776102
30
0
0
VERTEX
8
0
10
65.7066666666667
20
66.8466174238686
30
0
0
VERTEX
8
0
10
66.304
20
67.2471597510996
30
0
0
VERTEX
8
0
10
66.9013333333334
20
67.6216004425606
30
0
0
VERTEX
8
0
10
67.4986666666667
20
68.0012415299365
30
0
0
VERTEX
8
0
10
68.096
20
68.392746602547
30
0
0
VERTEX
8
0
10
68.6933333333334
20
68.753645939041
30
0
0
VERTEX
8
0
10
69.2906666666667
20
69.1252593066474
30
0
0
VERTEX
8
0
10
69.888
20
69.4918954744985
30
0
0
VERTEX
8
0
10
70.4853333333334
20
69.8555560343081
30
0
0
VERTEX
8
0
10
71.0826666666667
20
70.2189534036614
30
0
0
VERTEX
8
0
10
71.68
20
70.5746341891482
30
0
0
VERTEX
8
0
10
72.2773333333334
20
70.9275810314343
30
0
0
VERTEX
8
0
10
72.8746666666667
20
71.28260711394
30
0
0
VERTEX
8
0
10
73.4720000000001
20
71.6273252737363
30
0
0
VERTEX
8
0
10
74.0693333333334
20
71.9699761877145
30
0
0
VERTEX
8
0
10
74.6666666666667
20
72.3165031411061
30
0
0
VERTEX
8
0
10
75.2640000000001
20
72.6502824402185
30
0
0
VERTEX
8
0
10
75.8613333333334
20
72.9830000818282
30
0
0
VERTEX
8
0
10
76.4586666666667
20
73.3209258192735
30
0
0
VERTEX
8
0
10
77.0560000000001
20
73.643815156704
30
0
0
VERTEX
8
0
10
77.6533333333334
20
73.9669163400126
30
0
0
VERTEX
8
0
10
78.2506666666667
20
74.2961603931472
30
0
0
VERTEX
8
0
10
78.848
20
74.6082315673072
30
0
0
VERTEX
8
0
10
79.4453333333334
20
74.9219926965224
30
0
0
VERTEX
8
0
10
80.0426666666667
20
75.2424952750081
30
0
0
VERTEX
8
0
10
80.64
20
75.5438387563979
30
0
0
VERTEX
8
0
10
81.2373333333334
20
75.8485029891646
30
0
0
VERTEX
8
0
10
81.8346666666667
20
76.1602219733511
30
0
0
VERTEX
8
0
10
82.432
20
76.4488521453197
30
0
0
VERTEX
8
0
10
83.0293333333334
20
76.7467271099501
30
0
0
VERTEX
8
0
10
83.6266666666667
20
77.0496378174117
30
0
0
VERTEX
8
0
10
84.224
20
77.3273440842155
30
0
0
VERTEX
8
0
10
84.8213333333334
20
77.6169538660154
30
0
0
VERTEX
8
0
10
85.4186666666667
20
77.9110472300401
30
0
0
VERTEX
8
0
10
86.016
20
78.1781754310248
30
0
0
VERTEX
8
0
10
86.6133333333334
20
78.4594829683688
30
0
0
VERTEX
8
0
10
87.2106666666667
20
78.7329599835369
30
0
0
VERTEX
8
0
10
87.8080000000001
20
79.0016427072696
30
0
0
VERTEX
8
0
10
88.4053333333334
20
79.2746316794935
30
0
0
VERTEX
8
0
10
89.0026666666667
20
79.5383050562516
30
0
0
VERTEX
8
0
10
89.6000000000001
20
79.7980688452679
30
0
0
VERTEX
8
0
10
90.1973333333334
20
80.0627475294306
30
0
0
VERTEX
8
0
10
90.7946666666667
20
80.3167235331642
30
0
0
VERTEX
8
0
10
91.3920000000001
20
80.567832717331
30
0
0
VERTEX
8
0
10
91.9893333333334
20
80.8242569067777
30
0
0
VERTEX
8
0
10
92.5866666666667
20
81.0686930738599
30
0
0
VERTEX
8
0
10
93.1840000000001
20
81.3113961924092
30
0
0
VERTEX
8
0
10
93.7813333333334
20
81.5595681012734
30
0
0
VERTEX
8
0
10
94.3786666666667
20
81.7944960221218
30
0
0
VERTEX
8
0
10
94.9760000000001
20
82.0288633722161
30
0
0
VERTEX
8
0
10
95.5733333333334
20
82.2686876894468
30
0
0
VERTEX
8
0
10
96.1706666666667
20
82.4941240066955
30
0
0
VERTEX
8
0
10
96.7680000000001
20
82.7202376134113
30
0
0
VERTEX
8
0
10
97.3653333333334
20
82.9516700047077
30
0
0
VERTEX
8
0
10
97.9626666666667
20
83.1676740572678
30
0
0
VERTEX
8
0
10
98.5600000000001
20
83.3856230352456
30
0
0
VERTEX
8
0
10
99.1573333333334
20
83.6086436729651
30
0
0
VERTEX
8
0
10
99.7546666666667
20
83.8118063711266
30
0
0
VERTEX
8
0
10
100.352
20
84.025165515119
30
0
0
VERTEX
8
0
10
100.949333333333
20
84.2397698548181
30
0
0
VERTEX
8
0
10
101.546666666667
20
84.4338034571295
30
0
0
VERTEX
8
0
10
102.144
20
84.6390349724823
30
0
0
VERTEX
8
0
10
102.741333333333
20
84.8452309318453
30
0
0
VERTEX
8
0
10
103.338666666667
20
85.0303185437102
30
0
0
VERTEX
8
0
10
103.936
20
85.2274193921395
30
0
0
VERTEX
8
0
10
104.533333333333
20
85.4169083576572
30
0
0
VERTEX
8
0
10
105.130666666667
20
85.6015434760519
30
0
0
VERTEX
8
0
10
105.728
20
85.7905212012414
30
0
0
VERTEX
8
0
10
106.325333333333
20
85.9710810766941
30
0
0
VERTEX
8
0
10
106.922666666667
20
86.1476839057618
30
0
0
VERTEX
8
0
10
107.52
20
86.328556150622
30
0
0
VERTEX
8
0
10
108.117333333333
20
86.5002728940096
30
0
0
VERTEX
8
0
10
108.714666666667
20
86.6689586584881
30
0
0
VERTEX
8
0
10
109.312
20
86.8417519979214
30
0
0
VERTEX
8
0
10
109.909333333333
20
87.0047222022613
30
0
0
VERTEX
8
0
10
110.506666666667
20
87.1655987038845
30
0
0
VERTEX
8
0
10
111.104
20
87.3303485506788
30
0
0
VERTEX
8
0
10
111.701333333333
20
87.4846780335702
30
0
0
VERTEX
8
0
10
112.298666666667
20
87.6378473412841
30
0
0
VERTEX
8
0
10
112.896
20
87.794597124273
30
0
0
VERTEX
8
0
10
113.493333333333
20
87.9404005220103
30
0
0
VERTEX
8
0
10
114.090666666667
20
88.0859597699452
30
0
0
VERTEX
8
0
10
114.688
20
88.2347610205423
30
0
0
VERTEX
8
0
10
115.285333333333
20
88.3721607182241
30
0
0
VERTEX
8
0
10
115.882666666667
20
88.5102036197155
30
0
0
VERTEX
8
0
10
116.48
20
88.651115365608
30
0
0
VERTEX
8
0
10
117.077333333333
20
88.7771477581103
30
0
0
VERTEX
8
0
10
117.674666666667
20
88.9108588478759
30
0
0
VERTEX
8
0
10
118.272
20
89.0439478070015
30
0
0
VERTEX
8
0
10
118.869333333333
20
89.1621266536104
30
0
0
VERTEX
8
0
10
119.466666666667
20
89.2882184605262
30
0
0
VERTEX
8
0
10
120.064
20
89.4135585934287
30
0
0
VERTEX
8
0
10
120.661333333333
20
89.5240467451836
30
0
0
VERTEX
8
0
10
121.258666666667
20
89.6425886335405
30
0
0
VERTEX
8
0
10
121.856
20
89.7549676751419
30
0
0
VERTEX
8
0
10
122.453333333333
20
89.8632201800507
30
0
0
VERTEX
8
0
10
123.050666666667
20
89.9742895674298
30
0
0
VERTEX
8
0
10
123.648
20
90.0788380349719
30
0
0
VERTEX
8
0
10
124.245333333333
20
90.1799737542806
30
0
0
VERTEX
8
0
10
124.842666666667
20
90.2836557901839
30
0
0
VERTEX
8
0
10
125.44
20
90.3805134305357
30
0
0
VERTEX
8
0
10
126.037333333333
20
90.4746492502014
30
0
0
VERTEX
8
0
10
126.634666666667
20
90.5710371262048
30
0
0
VERTEX
8
0
10
127.232
20
90.6603514823711
30
0
0
VERTEX
8
0
10
127.829333333333
20
90.7476044228654
30
0
0
VERTEX
8
0
10
128.426666666667
20
90.836799165539
30
0
0
VERTEX
8
0
10
129.024
20
90.9187255852702
30
0
0
VERTEX
8
0
10
129.621333333333
20
90.9992135062479
30
0
0
VERTEX
8
0
10
130.218666666667
20
91.081324345868
30
0
0
VERTEX
8
0
10
130.816
20
91.1560255270685
30
0
0
VERTEX
8
0
10
131.413333333333
20
91.2298683186658
30
0
0
VERTEX
8
0
10
132.010666666666
20
91.3050125875582
30
0
0
VERTEX
8
0
10
132.608
20
91.3726586860966
30
0
0
VERTEX
8
0
10
133.205333333333
20
91.4399789402461
30
0
0
VERTEX
8
0
10
133.802666666666
20
91.5082824991636
30
0
0
VERTEX
8
0
10
134.4
20
91.5670060054827
30
0
0
VERTEX
8
0
10
134.997333333333
20
91.6299749503236
30
0
0
VERTEX
8
0
10
135.594666666666
20
91.6915721885937
30
0
0
VERTEX
8
0
10
136.192
20
91.7438653514234
30
0
0
VERTEX
8
0
10
136.789333333333
20
91.8003062893201
30
0
0
VERTEX
8
0
10
137.386666666666
20
91.8553406122339
30
0
0
VERTEX
8
0
10
137.984
20
91.9013878017699
30
0
0
VERTEX
8
0
10
138.581333333333
20
91.9514446510776
30
0
0
VERTEX
8
0
10
139.178666666666
20
91.9972606846617
30
0
0
VERTEX
8
0
10
139.776
20
92.0400582517363
30
0
0
VERTEX
8
0
10
140.373333333333
20
92.0838845535517
30
0
0
VERTEX
8
0
10
140.970666666666
20
92.1234084032712
30
0
0
VERTEX
8
0
10
141.568
20
92.1603854393901
30
0
0
VERTEX
8
0
10
142.165333333333
20
92.1981449210956
30
0
0
VERTEX
8
0
10
142.762666666666
20
92.231581269816
30
0
0
VERTEX
8
0
10
143.36
20
92.2629035920413
30
0
0
VERTEX
8
0
10
143.957333333333
20
92.2947704031453
30
0
0
VERTEX
8
0
10
144.554666666666
20
92.3223333357342
30
0
0
VERTEX
8
0
10
145.152
20
92.3481738309036
30
0
0
VERTEX
8
0
10
145.749333333333
20
92.3743331989402
30
0
0
VERTEX
8
0
10
146.346666666666
20
92.3962462440942
30
0
0
VERTEX
8
0
10
146.943999999999
20
92.4167860845391
30
0
0
VERTEX
8
0
10
147.541333333333
20
92.4374346858415
30
0
0
VERTEX
8
0
10
148.138666666666
20
92.4539312747266
30
0
0
VERTEX
8
0
10
148.735999999999
20
92.469360832434
30
0
0
VERTEX
8
0
10
149.333333333333
20
92.4847075673596
30
0
0
VERTEX
8
0
10
149.930666666666
20
92.4960312448972
30
0
0
VERTEX
8
0
10
150.527999999999
20
92.506551379589
30
0
0
VERTEX
8
0
10
151.125333333333
20
92.51681791047
30
0
0
VERTEX
8
0
10
151.722666666666
20
92.5222959804951
30
0
0
VERTEX
8
0
10
152.319999999999
20
92.5290460564462
30
0
0
VERTEX
8
0
10
152.917333333333
20
92.5344677478885
30
0
0
VERTEX
8
0
10
153.514666666666
20
92.5354609079688
30
0
0
VERTEX
8
0
10
154.111999999999
20
92.5375710103232
30
0
0
VERTEX
8
0
10
154.709333333333
20
92.538397692473
30
0
0
VERTEX
8
0
10
155.306666666666
20
92.5351665421271
30
0
0
SEQEND
8
0
0
POLYLINE
8
0
62
4
70
0
10
0
20
0
30
0
0
VERTEX
8
0
10
10.752
20
10.4005231141676
30
0
0
VERTEX
8
0
10
11.3493333333333
20
11.5823540037505
30
0
0
VERTEX
8
0
10
11.9466666666667
20
12.3617449618907
30
0
0
VERTEX
8
0
10
12.544
20
13.1595521048856
30
0
0
VERTEX
8
0
10
13.1413333333333
20
13.9056422928798
30
0
0
VERTEX
8
0
10
13.7386666666667
20
14.6953295535972
30
0
0
VERTEX
8
0
10
14.336
20
15.479840196008
30
0
0
VERTEX
8
0
10
14.9333333333333
20
16.214567180311
30
0
0
VERTEX
8
0
10
15.5306666666667
20
16.9928534769907
30
0
0
VERTEX
8
0
10
16.128
20
17.7734620825341
30
0
0
VERTEX
8
0
10
16.7253333333333
20
18.4870112152762
30
0
0
VERTEX
8
0
10
17.3226666666667
20
19.2416983210222
30
0
0
VERTEX
8
0
10
17.92
20
19.9772052521574
30
0
0
VERTEX
8
0
10
18.5173333333333
20
20.7020672358158
30
0
0
VERTEX
8
0
10
19.1146666666667
20
21.4433542232708
30
0
0
VERTEX
8
0
10
19.712
20
22.1541106653205
30
0
0
VERTEX
8
0
10
20.3093333333333
20
22.8583791907844
30
0
0
VERTEX
8
0
10
20.9066666666667
20
23.5844393747596
30
0
0
VERTEX
8
0
10
21.504
20
24.2874253496037
30
0
0
VERTEX
8
0
10
22.1013333333333
20
24.9711715331597
30
0
0
VERTEX
8
0
10
22.6986666666667
20
25.6771176631987
30
0
0
VERTEX
8
0
10
23.296
20
26.3583390816859
30
0
0
VERTEX
8
0
10
23.8933333333333
20
27.0375493550264
30
0
0
VERTEX
8
0
10
24.4906666666667
20
27.7398648199521
30
0
0
VERTEX
8
0
10
25.088
20
28.4235641617277
30
0
0
VERTEX
8
0
10
25.6853333333333
20
29.1058812987112
30
0
0
VERTEX
8
0
10
26.2826666666667
20
29.8056163784611
30
0
0
VERTEX
8
0
10
26.88
20
30.477645850382
30
0
0
VERTEX
8
0
10
27.4773333333333
20
31.1579330842792
30
0
0
VERTEX
8
0
10
28.0746666666667
20
31.8541224996299
30
0
0
VERTEX
8
0
10
28.672
20
32.5211782995216
30
0
0
VERTEX
8
0
10
29.2693333333333
20
33.1947610541409
30
0
0
VERTEX
8
0
10
29.8666666666667
20
33.890066262761
30
0
0
VERTEX
8
0
10
30.464
20
34.5429869366139
30
0
0
VERTEX
8
0
10
31.0613333333333
20
35.2329305290088
30
0
0
VERTEX
8
0
10
31.6586666666667
20
35.9217723001272
30
0
0
VERTEX
8
0
10
32.256
20
36.5773963406766
30
0
0
VERTEX
8
0
10
32.8533333333333
20
37.2706492747705
30
0
0
VERTEX
8
0
10
33.4506666666667
20
37.9640988809707
30
0
0
VERTEX
8
0
10
34.048
20
38.6145435463298
30
0
0
VERTEX
8
0
10
34.6453333333333
20
39.3019052447395
30
0
0
VERTEX
8
0
10
35.2426666666667
20
39.9769758584161
30
0
0
VERTEX
8
0
10
35.84
20
40.6413432125005
30
0
0
VERTEX
8
0
10
36.4373333333333
20
41.3259801665505
30
0
0
VERTEX
8
0
10
37.0346666666667
20
41.9921423153564
30
0
0
VERTEX
8
0
10
37.632
20
42.647647169419
30
0
0
VERTEX
8
0
10
38.2293333333334
20
43.3134203783218
30
0
0
VERTEX
8
0
10
38.8266666666667
20
43.9616616831633
30
0
0
VERTEX
8
0
10
39.424
20
44.6054882559675
30
0
0
VERTEX
8
0
10
40.0213333333334
20
45.26660681007
30
0
0
VERTEX
8
0
10
40.6186666666667
20
45.8918481147056
30
0
0
VERTEX
8
0
10
41.216
20
46.5198343994626
30
0
0
VERTEX
8
0
10
41.8133333333334
20
47.1634594549586
30
0
0
VERTEX
8
0
10
42.4106666666667
20
47.7852115217574
30
0
0
VERTEX
8
0
10
43.008
20
48.3950322731166
30
0
0
VERTEX
8
0
10
43.6053333333334
20
49.0175236947447
30
0
0
VERTEX
8
0
10
44.2026666666667
20
49.6171040443309
30
0
0
VERTEX
8
0
10
44.8
20
50.2194270389102
30
0
0
VERTEX
8
0
10
45.3973333333334
20
50.8416084544551
30
0
0
VERTEX
8
0
10
45.9946666666667
20
51.449399857609
30
0
0
VERTEX
8
0
10
46.592
20
52.0620279481755
30
0
0
VERTEX
8
0
10
47.1893333333334
20
52.6861077045497
30
0
0
VERTEX
8
0
10
47.7866666666667
20
53.2739630728637
30
0
0
VERTEX
8
0
10
48.384
20
53.8612346607751
30
0
0
VERTEX
8
0
10
48.9813333333334
20
54.4494187027818
30
0
0
VERTEX
8
0
10
49.5786666666667
20
55.0016735787994
30
0
0
VERTEX
8
0
10
50.176
20
55.5840927895428
30
0
0
VERTEX
8
0
10
50.7733333333334
20
56.1350691180296
30
0
0
VERTEX
8
0
10
51.3706666666667
20
56.638564658397
30
0
0
VERTEX
8
0
10
51.968
20
57.1713619748103
30
0
0
VERTEX
8
0
10
52.5653333333334
20
57.6891071624417
30
0
0
VERTEX
8
0
10
53.1626666666667
20
58.1980058935089
30
0
0
VERTEX
8
0
10
53.76
20
58.7028796926566
30
0
0
VERTEX
8
0
10
54.3573333333334
20
59.1951906383598
30
0
0
VERTEX
8
0
10
54.9546666666667
20
59.6809143314243
30
0
0
VERTEX
8
0
10
55.552
20
60.181514381257
30
0
0
VERTEX
8
0
10
56.1493333333334
20
60.6576874388131
30
0
0
VERTEX
8
0
10
56.7466666666667
20
61.1276938076872
30
0
0
VERTEX
8
0
10
57.344
20
61.6114592563004
30
0
0
VERTEX
8
0
10
57.9413333333334
20
62.077535362483
30
0
0
VERTEX
8
0
10
58.5386666666667
20
62.541329058502
30
0
0
VERTEX
8
0
10
59.136
20
63.002342113955
30
0
0
VERTEX
8
0
10
59.7333333333334
20
63.4497771257268
30
0
0
VERTEX
8
0
10
60.3306666666667
20
63.8969755114206
30
0
0
VERTEX
8
0
10
60.928
20
64.3553532340657
30
0
0
VERTEX
8
0
10
61.5253333333334
20
64.7776053363435
30
0
0
VERTEX
8
0
10
62.1226666666667
20
65.2009359820245
30
0
0
VERTEX
8
0
10
62.72
20
65.6343004649171
30
0
0
VERTEX
8
0
10
63.3173333333334
20
66.0477181803597
30
0
0
VERTEX
8
0
10
63.9146666666667
20
66.460296851484
30
0
0
VERTEX
8
0
10
64.512
20
66.882136967532
30
0
0
VERTEX
8
0
10
65.1093333333334
20
67.2730401661027
30
0
0
VERTEX
8
0
10
65.7066666666667
20
67.6889420174309
30
0
0
VERTEX
8
0
10
66.304
20
68.102847967115
30
0
0
VERTEX
8
0
10
66.9013333333334
20
68.4575148728759
30
0
0
VERTEX
8
0
10
67.4986666666667
20
68.8401078979482
30
0
0
VERTEX
8
0
10
68.096
20
69.2207648517691
30
0
0
VERTEX
8
0
10
68.6933333333334
20
69.5719841643564
30
0
0
VERTEX
8
0
10
69.2906666666667
20
69.9408504573741
30
0
0
VERTEX
8
0
10
69.888
20
70.2980189118551
30
0
0
VERTEX
8
0
10
70.4853333333334
20
70.6468468361991
30
0
0
VERTEX
8
0
10
71.0826666666667
20
71.0088266488953
30
0
0
VERTEX
8
0
10
71.68
20
71.3574137767856
30
0
0
VERTEX
8
0
10
72.2773333333334
20
71.6711296871978
30
0
0
VERTEX
8
0
10
72.8746666666667
20
72.0040627959634
30
0
0
VERTEX
8
0
10
73.4720000000001
20
72.3230038906095
30
0
0
VERTEX
8
0
10
74.0693333333334
20
72.638150512054
30
0
0
VERTEX
8
0
10
74.6666666666667
20
72.9629940686551
30
0
0
VERTEX
8
0
10
75.2640000000001
20
73.2719968186799
30
0
0
VERTEX
8
0
10
75.8613333333334
20
73.5789405184009
30
0
0
VERTEX
8
0
10
76.4586666666667
20
73.8958198008952
30
0
0
VERTEX
8
0
10
77.0560000000001
20
74.1956173335016
30
0
0
VERTEX
8
0
10
77.6533333333334
20
74.4965371777977
30
0
0
VERTEX
8
0
10
78.2506666666667
20
74.8060293355536
30
0
0
VERTEX
8
0
10
78.848
20
75.0997023826593
30
0
0
VERTEX
8
0
10
79.4453333333334
20
75.3945580618778
30
0
0
VERTEX
8
0
10
80.0426666666667
20
75.6907757901926
30
0
0
VERTEX
8
0
10
80.64
20
75.971192935392
30
0
0
VERTEX
8
0
10
81.2373333333334
20
76.2543355290618
30
0
0
VERTEX
8
0
10
81.8346666666667
20
76.5443679412045
30
0
0
VERTEX
8
0
10
82.432
20
76.8010088039391
30
0
0
VERTEX
8
0
10
83.0293333333334
20
77.0695472565509
30
0
0
VERTEX
8
0
10
83.6266666666667
20
77.3369969658255
30
0
0
VERTEX
8
0
10
84.224
20
77.5802925263905
30
0
0
VERTEX
8
0
10
84.8213333333334
20
77.8431676916082
30
0
0
VERTEX
8
0
10
85.4186666666667
20
78.1128930405403
30
0
0
VERTEX
8
0
10
86.016
20
78.3571527873535
30
0
0
VERTEX
8
0
10
86.6133333333334
20
78.620491175276
30
0
0
VERTEX
8
0
10
87.2106666666667
20
78.8734113619495
30
0
0
VERTEX
8
0
10
87.8080000000001
20
79.1219599766296
30
0
0
VERTEX
8
0
10
88.4053333333334
20
79.3882078100433
30
0
0
VERTEX
8
0
10
89.0026666666667
20
79.6413578222301
30
0
0
VERTEX
8
0
10
89.6000000000001
20
79.8897008194804
30
0
0
VERTEX
8
0
10
90.1973333333334
20
80.1471862082656
30
0
0
VERTEX
8
0
10
90.7946666666667
20
80.3840918393111
30
0
0
VERTEX
8
0
10
91.3920000000001
20
80.6191065852897
30
0
0
VERTEX
8
0
10
91.9893333333334
20
80.8623282461456
30
0
0
VERTEX
8
0
10
92.5866666666667
20
81.0937382434343
30
0
0
VERTEX
8
0
10
93.1840000000001
20
81.3385095243789
30
0
0
VERTEX
8
0
10
93.7813333333334
20
81.5902837450144
30
0
0
VERTEX
8
0
10
94.3786666666667
20
81.8298197141898
30
0
0
VERTEX
8
0
10
94.9760000000001
20
82.0685911200675
30
0
0
VERTEX
8
0
10
95.5733333333334
20
82.300014835
30
0
0
VERTEX
8
0
10
96.1706666666667
20
82.5088492065493
30
0
0
VERTEX
8
0
10
96.7680000000001
20
82.7182023341638
30
0
0
VERTEX
8
0
10
97.3653333333334
20
82.9331342101084
30
0
0
VERTEX
8
0
10
97.9626666666667
20
83.1352619587166
30
0
0
VERTEX
8
0
10
98.5600000000001
20
83.3299628478927
30
0
0
VERTEX
8
0
10
99.1573333333334
20
83.5307025727402
30
0
0
VERTEX
8
0
10
99.7546666666667
20
83.712439494813
30
0
0
VERTEX
8
0
10
100.352
20
83.9088477294925
30
0
0
VERTEX
8
0
10
100.949333333333
20
84.1024893272275
30
0
0
VERTEX
8
0
10
101.546666666667
20
84.2773523428796
30
0
0
VERTEX
8
0
10
102.144
20
84.4664013039336
30
0
0
VERTEX
8
0
10
102.741333333333
20
84.6535033640324
30
0
0
VERTEX
8
0
10
103.338666666667
20
84.8226312509964
30
0
0
VERTEX
8
0
10
103.936
20
85.0301087266952
30
0
0
VERTEX
8
0
10
104.533333333333
20
85.2233728166474
30
0
0
VERTEX
8
0
10
105.130666666667
20
85.4115135201903
30
0
0
VERTEX
8
0
10
105.728
20
85.6065894046058
30
0
0
VERTEX
8
0
10
106.325333333333
20
85.7866679587183
30
0
0
VERTEX
8
0
10
106.922666666667
20
85.9642065114552
30
0
0
VERTEX
8
0
10
107.52
20
86.1479130437905
30
0
0
VERTEX
8
0
10
108.117333333333
20
86.3228949281565
30
0
0
VERTEX
8
0
10
108.714666666667
20
86.4949823652519
30
0
0
VERTEX
8
0
10
109.312
20
86.656807604788
30
0
0
VERTEX
8
0
10
109.909333333333
20
86.8137266062173
30
0
0
VERTEX
8
0
10
110.506666666667
20
86.9687553155639
30
0
0
VERTEX
8
0
10
111.104
20
87.1284813308784
30
0
0
VERTEX
8
0
10
111.701333333333
20
87.2785934469647
30
0
0
VERTEX
8
0
10
112.298666666667
20
87.4274780883359
30
0
0
VERTEX
8
0
10
112.896
20
87.5803739352018
30
0
0
VERTEX
8
0
10
113.493333333333
20
87.7240158854353
30
0
0
VERTEX
8
0
10
114.090666666667
20
87.8675288795148
30
0
0
VERTEX
8
0
10
114.688
20
88.0144024172595
30
0
0
VERTEX
8
0
10
115.285333333333
20
88.1519140965768
30
0
0
VERTEX
8
0
10
115.882666666667
20
88.2900705222347
30
0
0
VERTEX
8
0
10
116.48
20
88.4309745106245
30
0
0
VERTEX
8
0
10
117.077333333333
20
88.5583722544599
30
0
0
VERTEX
8
0
10
117.674666666667
20
88.6952658276086
30
0
0
VERTEX
8
0
10
118.272
20
88.830258150502
30
0
0
VERTEX
8
0
10
118.869333333333
20
88.9522620882786
30
0
0
VERTEX
8
0
10
119.466666666667
20
89.0875673918026
30
0
0
VERTEX
8
0
10
120.064
20
89.2219670575625
30
0
0
VERTEX
8
0
10
120.661333333333
20
89.3438843526685
30
0
0
VERTEX
8
0
10
121.258666666667
20
89.4743469181355
30
0
0
VERTEX
8
0
10
121.856
20
89.5988741647528
30
0
0
VERTEX
8
0
10
122.453333333333
20
89.737073613655
30
0
0
VERTEX
8
0
10
123.050666666667
20
89.8743329704913
30
0
0
VERTEX
8
0
10
123.648
20
90.0055290145469
30
0
0
VERTEX
8
0
10
124.245333333333
20
90.1336351817009
30
0
0
VERTEX
8
0
10
124.842666666667
20
90.2478110235257
30
0
0
VERTEX
8
0
10
125.44
20
90.3554286798259
30
0
0
VERTEX
8
0
10
126.037333333333
20
90.4606988064272
30
0
0
VERTEX
8
0
10
126.634666666667
20
90.5688648133229
30
0
0
VERTEX
8
0
10
127.232
20
90.6621828985827
30
0
0
VERTEX
8
0
10
127.829333333333
20
90.7469100310394
30
0
0
VERTEX
8
0
10
128.426666666667
20
90.8340663781801
30
0
0
VERTEX
8
0
10
129.024
20
90.9150986467551
30
0
0
VERTEX
8
0
10
129.621333333333
20
90.9950578433471
30
0
0
VERTEX
8
0
10
130.218666666667
20
91.0863600723795
30
0
0
VERTEX
8
0
10
130.816
20
91.1703828094453
30
0
0
VERTEX
8
0
10
131.413333333333
20
91.2538234905299
30
0
0
VERTEX
8
0
10
132.010666666666
20
91.3387455011528
30
0
0
VERTEX
8
0
10
132.608
20
91.4227487283867
30
0
0
VERTEX
8
0
10
133.205333333333
20
91.5086252650435
30
0
0
VERTEX
8
0
10
133.802666666666
20
91.595561554516
30
0
0
VERTEX
8
0
10
134.4
20
91.6741082104248
30
0
0
VERTEX
8
0
10
134.997333333333
20
91.7576333434709
30
0
0
VERTEX
8
0
10
135.594666666666
20
91.8418632257593
30
0
0
VERTEX
8
0
10
136.192
20
91.9184448594084
30
0
0
VERTEX
8
0
10
136.789333333333
20
91.9996133111772
30
0
0
VERTEX
8
0
10
137.386666666666
20
92.0791508043471
30
0
0
VERTEX
8
0
10
137.984
20
92.1260804106703
30
0
0
VERTEX
8
0
10
138.581333333333
20
92.1739716663129
30
0
0
VERTEX
8
0
10
139.178666666666
20
92.2181661475075
30
0
0
VERTEX
8
0
10
139.776
20
92.2598461107854
30
0
0
VERTEX
8
0
10
140.373333333333
20
92.3032513595907
30
0
0
VERTEX
8
0
10
140.970666666666
20
92.2959982187004
30
0
0
VERTEX
8
0
10
141.568
20
92.3010926370439
30
0
0
VERTEX
8
0
10
142.165333333333
20
92.3077187581421
30
0
0
VERTEX
8
0
10
142.762666666666
20
92.310898149474
30
0
0
VERTEX
8
0
10
143.36
20
92.3074493009319
30
0
0
VERTEX
8
0
10
143.957333333333
20
92.3054628155371
30
0
0
VERTEX
8
0
10
144.554666666666
20
92.300138882716
30
0
0
VERTEX
8
0
10
145.152
20
92.2937464572584
30
0
0
VERTEX
8
0
10
145.749333333333
20
92.2864496720119
30
0
0
VERTEX
8
0
10
146.346666666666
20
92.2748467049279
30
0
0
VERTEX
8
0
10
146.943999999999
20
92.2625050452741
30
0
0
VERTEX
8
0
10
147.541333333333
20
92.2508403236367
30
0
0
VERTEX
8
0
10
148.138666666666
20
92.2360706574366
30
0
0
VERTEX
8
0
10
148.735999999999
20
92.2139312126065
30
0
0
VERTEX
8
0
10
149.333333333333
20
92.1934828805699
30
0
0
VERTEX
8
0
10
149.930666666666
20
92.1701173836647
30
0
0
VERTEX
8
0
10
150.527999999999
20
92.146536053801
30
0
0
VERTEX
8
0
10
151.125333333333
20
92.1298677627562
30
0
0
VERTEX
8
0
10
151.722666666666
20
92.1060180837326
30
0
0
VERTEX
8
0
10
152.319999999999
20
92.0854944972491
30
0
0
VERTEX
8
0
10
152.917333333333
20
92.0640121586717
30
0
0
VERTEX
8
0
10
153.514666666666
20
92.039072196971
30
0
0
VERTEX
8
0
10
154.111999999999
20
92.0330909889832
30
0
0
VERTEX
8
0
10
154.709333333333
20
92.0217063083984
30
0
0
VERTEX
8
0
10
155.306666666666
20
92.0071238152947
30
0
0
SEQEND
8
0
0
POLYLINE
8
0
62
2
70
0
10
0
20
0
30
0
0
VERTEX
8
0
10
10.752
20
2.86242315166856
30
0
0
VERTEX
8
0
10
11.3493333333333
20
2.9781684263937
30
0
0
VERTEX
8
0
10
11.9466666666667
20
3.09355133623084
30
0
0
VERTEX
8
0
10
12.544
20
3.2047115920877
30
0
0
VERTEX
8
0
10
13.1413333333333
20
3.31482771927456
30
0
0
VERTEX
8
0
10
13.7386666666667
20
3.4215664088
30
0
0
VERTEX
8
0
10
14.336
20
3.52689285062336
30
0
0
VERTEX
8
0
10
14.9333333333333
20
3.62938671605998
30
0
0
VERTEX
8
0
10
15.5306666666667
20
3.73029249976659
30
0
0
VERTEX
8
0
10
16.128
20
3.82872417724439
30
0
0
VERTEX
8
0
10
16.7253333333333
20
3.9255017797378
30
0
0
VERTEX
8
0
10
17.3226666666667
20
4.02005100435569
30
0
0
VERTEX
8
0
10
17.92
20
4.1129395597345
30
0
0
VERTEX
8
0
10
18.5173333333333
20
4.20377740324321
30
0
0
VERTEX
8
0
10
19.1146666666667
20
4.29297841334858
30
0
0
VERTEX
8
0
10
19.712
20
4.38026454268887
30
0
0
VERTEX
8
0
10
20.3093333333333
20
4.46595218512041
30
0
0
VERTEX
8
0
10
20.9066666666667
20
4.54983415005989
30
0
0
VERTEX
8
0
10
21.504
20
4.63216203921138
30
0
0
VERTEX
8
0
10
22.1013333333333
20
4.71277568586233
30
0
0
VERTEX
8
0
10
22.6986666666667
20
4.79188139924408
30
0
0
VERTEX
8
0
10
23.296
20
4.86935180588167
30
0
0
VERTEX
8
0
10
23.8933333333333
20
4.94536001829323
30
0
0
VERTEX
8
0
10
24.4906666666667
20
5.01980260575627
30
0
0
VERTEX
8
0
10
25.088
20
5.0928273480208
30
0
0
VERTEX
8
0
10
25.6853333333333
20
5.16434898635078
30
0
0
VERTEX
8
0
10
26.2826666666667
20
5.23449533913119
30
0
0
VERTEX
8
0
10
26.88
20
5.30319537023819
30
0
0
VERTEX
8
0
10
27.4773333333333
20
5.37056078020464
30
0
0
VERTEX
8
0
10
28.0746666666667
20
5.43653192900076
30
0
0
VERTEX
8
0
10
28.672
20
5.50120726187086
30
0
0
VERTEX
8
0
10
29.2693333333333
20
5.56453643380624
30
0
0
VERTEX
8
0
10
29.8666666666667
20
5.62660683659937
30
0
0
VERTEX
8
0
10
30.464
20
5.6873758105157
30
0
0
VERTEX
8
0
10
31.0613333333333
20
5.74692143043929
30
0
0
VERTEX
8
0
10
31.6586666666667
20
5.80520745954097
30
0
0
VERTEX
8
0
10
32.256
20
5.86230405187652
30
0
0
VERTEX
8
0
10
32.8533333333333
20
5.9181803859
30
0
0
VERTEX
8
0
10
33.4506666666667
20
5.97289983392599
30
0
0
VERTEX
8
0
10
34.048
20
6.02643617446519
30
0
0
VERTEX
8
0
10
34.6453333333333
20
6.07884693841836
30
0
0
VERTEX
8
0
10
35.2426666666667
20
6.13010983780183
30
0
0
VERTEX
8
0
10
35.84
20
6.18027734584569
30
0
0
VERTEX
8
0
10
36.4373333333333
20
6.22933055840444
30
0
0
VERTEX
8
0
10
37.0346666666667
20
6.27731754962764
30
0
0
VERTEX
8
0
10
37.632
20
6.32422234274209
30
0
0
VERTEX
8
0
10
38.2293333333334
20
6.37008917018961
30
0
0
VERTEX
8
0
10
38.8266666666667
20
6.41490460129341
30
0
0
VERTEX
8
0
10
39.424
20
6.45870950151196
30
0
0
VERTEX
8
0
10
40.0213333333334
20
6.50149266614604
30
0
0
VERTEX
8
0
10
40.6186666666667
20
6.54329200048277
30
0
0
VERTEX
8
0
10
41.216
20
6.58409825579917
30
0
0
VERTEX
8
0
10
41.8133333333334
20
6.62394672777311
30
0
0
VERTEX
8
0
10
42.4106666666667
20
6.66282989507281
30
0
0
VERTEX
8
0
10
43.008
20
6.70078074741241
30
0
0
VERTEX
8
0
10
43.6053333333334
20
6.7377932967703
30
0
0
VERTEX
8
0
10
44.2026666666667
20
6.77389849125885
30
0
0
VERTEX
8
0
10
44.8
20
6.80909171084817
30
0
0
VERTEX
8
0
10
45.3973333333334
20
6.84340209337024
30
0
0
VERTEX
8
0
10
45.9946666666667
20
6.87682624572682
30
0
0
VERTEX
8
0
10
46.592
20
6.90939169886692
30
0
0
VERTEX
8
0
10
47.1893333333334
20
6.94109616603036
30
0
0
VERTEX
8
0
10
47.7866666666667
20
6.9719657509778
30
0
0
VERTEX
8
0
10
48.384
20
7.00199917013442
30
0
0
VERTEX
8
0
10
48.9813333333334
20
7.0312212595911
30
0
0
VERTEX
8
0
10
49.5786666666667
20
7.05963165073459
30
0
0
VERTEX
8
0
10
50.176
20
7.0872540542646
30
0
0
VERTEX
8
0
10
50.7733333333334
20
7.11408894112325
30
0
0
VERTEX
8
0
10
51.3706666666667
20
7.14015902416164
30
0
0
VERTEX
8
0
10
51.968
20
7.16546554956845
30
0
0
VERTEX
8
0
10
52.5653333333334
20
7.19003034726907
30
0
0
VERTEX
8
0
10
53.1626666666667
20
7.21385538404162
30
0
0
VERTEX
8
0
10
53.76
20
7.23696171094869
30
0
0
VERTEX
8
0
10
54.3573333333334
20
7.2593519691923
30
0
0
VERTEX
8
0
10
54.9546666666667
20
7.28104652574587
30
0
0
VERTEX
8
0
10
55.552
20
7.302048657524
30
0
0
VERTEX
8
0
10
56.1493333333334
20
7.32237813421121
30
0
0
VERTEX
8
0
10
56.7466666666667
20
7.34203883640308
30
0
0
VERTEX
8
0
10
57.344
20
7.36105001649429
30
0
0
VERTEX
8
0
10
57.9413333333334
20
7.37941613269225
30
0
0
VERTEX
8
0
10
58.5386666666667
20
7.39715599430634
30
0
0
VERTEX
8
0
10
59.136
20
7.41427461655136
30
0
0
VERTEX
8
0
10
59.7333333333334
20
7.43079043498685
30
0
0
VERTEX
8
0
10
60.3306666666667
20
7.44670900620613
30
0
0
VERTEX
8
0
10
60.928
20
7.46204845729496
30
0
0
VERTEX
8
0
10
61.5253333333334
20
7.47681487529388
30
0
0
VERTEX
8
0
10
62.1226666666667
20
7.49102614079634
30
0
0
VERTEX
8
0
10
62.72
20
7.50468886477929
30
0
0
VERTEX
8
0
10
63.3173333333334
20
7.51782074072898
30
0
0
VERTEX
8
0
10
63.9146666666667
20
7.53042890133996
30
0
0
VERTEX
8
0
10
64.512
20
7.54253091049662
30
0
0
VERTEX
8
0
10
65.1093333333334
20
7.55413442462768
30
0
0
VERTEX
8
0
10
65.7066666666667
20
7.56525693429155
30
0
0
VERTEX
8
0
10
66.304
20
7.57590662595078
30
0
0
VERTEX
8
0
10
66.9013333333334
20
7.5861009726136
30
0
0
VERTEX
8
0
10
67.4986666666667
20
7.59584870154129
30
0
0
VERTEX
8
0
10
68.096
20
7.60516732418358
30
0
0
VERTEX
8
0
10
68.6933333333334
20
7.61406612411136
30
0
0
VERTEX
8
0
10
69.2906666666667
20
7.62256270829199
30
0
0
VERTEX
8
0
10
69.888
20
7.63066693732888
30
0
0
VERTEX
8
0
10
70.4853333333334
20
7.63839657280489
30
0
0
VERTEX
8
0
10
71.0826666666667
20
7.64576207894689
30
0
0
VERTEX
8
0
10
71.68
20
7.65278143423211
30
0
0
VERTEX
8
0
10
72.2773333333334
20
7.65946573992169
30
0
0
VERTEX
8
0
10
72.8746666666667
20
7.66583325824225
30
0
0
VERTEX
8
0
10
73.4720000000001
20
7.6718957690076
30
0
0
VERTEX
8
0
10
74.0693333333334
20
7.67767189146757
30
0
0
VERTEX
8
0
10
74.6666666666667
20
7.68317413540604
30
0
0
VERTEX
8
0
10
75.2640000000001
20
7.6884215591186
30
0
0
VERTEX
8
0
10
75.8613333333334
20
7.69342746621646
30
0
0
VERTEX
8
0
10
76.4586666666667
20
7.69821144803394
30
0
0
VERTEX
8
0
10
77.0560000000001
20
7.7027876818323
30
0
0
VERTEX
8
0
10
77.6533333333334
20
7.70717640238343
30
0
0
VERTEX
8
0
10
78.2506666666667
20
7.71139276148503
30
0
0
VERTEX
8
0
10
78.848
20
7.71545777047111
30
0
0
VERTEX
8
0
10
79.4453333333334
20
7.7193876851248
30
0
0
VERTEX
8
0
10
80.0426666666667
20
7.72320445853065
30
0
0
VERTEX
8
0
10
80.64
20
7.72692561973864
30
0
0
VERTEX
8
0
10
81.2373333333334
20
7.73057427500412
30
0
0
VERTEX
8
0
10
81.8346666666667
20
7.73416945344185
30
0
0
VERTEX
8
0
10
82.432
20
7.73773569459536
30
0
0
VERTEX
8
0
10
83.0293333333334
20
7.7412938405805
30
0
0
VERTEX
8
0
10
83.6266666666667
20
7.74487025045411
30
0
0
VERTEX
8
0
10
84.224
20
7.74848802751912
30
0
0
VERTEX
8
0
10
84.8213333333334
20
7.7521759084534
30
0
0
VERTEX
8
0
10
85.4186666666667
20
7.75595993080949
30
0
0
VERTEX
8
0
10
86.016
20
7.75987206380614
30
0
0
VERTEX
8
0
10
86.6133333333334
20
7.76394235526911
30
0
0
VERTEX
8
0
10
87.2106666666667
20
7.76820742012727
30
0
0
VERTEX
8
0
10
87.8080000000001
20
7.77270319225688
30
0
0
VERTEX
8
0
10
88.4053333333334
20
7.77747353124612
30
0
0
VERTEX
8
0
10
89.0026666666667
20
7.78256397610365
30
0
0
VERTEX
8
0
10
89.6000000000001
20
7.78803126580752
30
0
0
VERTEX
8
0
10
90.1973333333334
20
7.79393965827559
30
0
0
VERTEX
8
0
10
90.7946666666667
20
7.80037484156151
30
0
0
VERTEX
8
0
10
91.3920000000001
20
7.80744912209994
30
0
0
VERTEX
8
0
10
91.9893333333334
20
7.81530692531557
30
0
0
VERTEX
8
0
10
92.5866666666667
20
7.82400436204975
30
0
0
VERTEX
8
0
10
93.1840000000001
20
7.83343763220173
30
0
0
VERTEX
8
0
10
93.7813333333334
20
7.84348175861924
30
0
0
VERTEX
8
0
10
94.3786666666667
20
7.8540511701281
30
0
0
VERTEX
8
0
10
94.9760000000001
20
7.86508165586022
30
0
0
VERTEX
8
0
10
95.5733333333334
20
7.87652655520783
30
0
0
VERTEX
8
0
10
96.1706666666667
20
7.88834550497035
30
0
0
VERTEX
8
0
10
96.7680000000001
20
7.90050753103665
30
0
0
VERTEX
8
0
10
97.3653333333334
20
7.91298348332982
30
0
0
VERTEX
8
0
10
97.9626666666667
20
7.92575065728847
30
0
0
VERTEX
8
0
10
98.5600000000001
20
7.93878639474887
30
0
0
VERTEX
8
0
10
99.1573333333334
20
7.95207307076852
30
0
0
VERTEX
8
0
10
99.7546666666667
20
7.96559225532213
30
0
0
VERTEX
8
0
10
100.352
20
7.97932974297933
30
0
0
VERTEX
8
0
10
100.949333333333
20
7.99327007258775
30
0
0
VERTEX
8
0
10
101.546666666667
20
8.00740148579036
30
0
0
VERTEX
8
0
10
102.144
20
8.02171071827129
30
0
0
VERTEX
8
0
10
102.741333333333
20
8.03618784119507
30
0
0
VERTEX
8
0
10
103.338666666667
20
8.0508212799227
30
0
0
VERTEX
8
0
10
103.936
20
8.06560251913092
30
0
0
VERTEX
8
0
10
104.533333333333
20
8.08052132302111
30
0
0
VERTEX
8
0
10
105.130666666667
20
8.09557029664505
30
0
0
VERTEX
8
0
10
105.728
20
8.1107402903441
30
0
0
VERTEX
8
0
10
106.325333333333
20
8.12602481555833
30
0
0
VERTEX
8
0
10
106.922666666667
20
8.14141562073294
30
0
0
VERTEX
8
0
10
107.52
20
8.15690696288502
30
0
0
VERTEX
8
0
10
108.117333333333
20
8.17249134491945
30
0
0
VERTEX
8
0
10
108.714666666667
20
8.18816364569046
30
0
0
VERTEX
8
0
10
109.312
20
8.2039170103218
30
0
0
VERTEX
8
0
10
109.909333333333
20
8.21974684236761
30
0
0
VERTEX
8
0
10
110.506666666667
20
8.23564683979754
30
0
0
VERTEX
8
0
10
111.104
20
8.25161285328753
30
0
0
VERTEX
8
0
10
111.701333333333
20
8.26763906131927
30
0
0
VERTEX
8
0
10
112.298666666667
20
8.28372169882791
30
0
0
VERTEX
8
0
10
112.896
20
8.29985536541896
30
0
0
VERTEX
8
0
10
113.493333333333
20
8.31603662867819
30
0
0
VERTEX
8
0
10
114.090666666667
20
8.33226045996589
30
0
0
VERTEX
8
0
10
114.688
20
8.34852371667336
30
0
0
VERTEX
8
0
10
115.285333333333
20
8.36482170041469
30
0
0
VERTEX
8
0
10
115.882666666667
20
8.38115152245519
30
0
0
VERTEX
8
0
10
116.48
20
8.39750877943009
30
0
0
VERTEX
8
0
10
117.077333333333
20
8.41389080606849
30
0
0
VERTEX
8
0
10
117.674666666667
20
8.43029346385464
30
0
0
VERTEX
8
0
10
118.272
20
8.44671428503646
30
0
0
VERTEX
8
0
10
118.869333333333
20
8.46314936989633
30
0
0
VERTEX
8
0
10
119.466666666667
20
8.47959642590364
30
0
0
VERTEX
8
0
10
120.064
20
8.49605176947031
30
0
0
VERTEX
8
0
10
120.661333333333
20
8.51251326400323
30
0
0
VERTEX
8
0
10
121.258666666667
20
8.52897742219813
30
0
0
VERTEX
8
0
10
121.856
20
8.54544224660878
30
0
0
VERTEX
8
0
10
122.453333333333
20
8.5619044287269
30
0
0
VERTEX
8
0
10
123.050666666667
20
8.57836209555489
30
0
0
VERTEX
8
0
10
123.648
20
8.59481210189223
30
0
0
VERTEX
8
0
10
124.245333333333
20
8.61125268624353
30
0
0
VERTEX
8
0
10
124.842666666667
20
8.62768085291457
30
0
0
VERTEX
8
0
10
125.44
20
8.64409494048032
30
0
0
VERTEX
8
0
10
126.037333333333
20
8.66049209039875
30
0
0
VERTEX
8
0
10
126.634666666667
20
8.67687073113724
30
0
0
VERTEX
8
0
10
127.232
20
8.69322813020112
30
0
0
VERTEX
8
0
10
127.829333333333
20
8.70956279688247
30
0
0
VERTEX
8
0
10
128.426666666667
20
8.72587211469829
30
0
0
VERTEX
8
0
10
129.024
20
8.74215466562953
30
0
0
VERTEX
8
0
10
129.621333333333
20
8.75840794011193
30
0
0
VERTEX
8
0
10
130.218666666667
20
8.77463058549601
30
0
0
VERTEX
8
0
10
130.816
20
8.79082019085211
30
0
0
VERTEX
8
0
10
131.413333333333
20
8.80697546229202
30
0
0
VERTEX
8
0
10
132.010666666666
20
8.82309407995427
30
0
0
VERTEX
8
0
10
132.608
20
8.83917480271691
30
0
0
VERTEX
8
0
10
133.205333333333
20
8.85521539484674
30
0
0
VERTEX
8
0
10
133.802666666666
20
8.87121466253589
30
0
0
VERTEX
8
0
10
134.4
20
8.88717044779089
30
0
0
VERTEX
8
0
10
134.997333333333
20
8.9030815991356
30
0
0
VERTEX
8
0
10
135.594666666666
20
8.91894603042281
30
0
0
VERTEX
8
0
10
136.192
20
8.93476262794018
30
0
0
VERTEX
8
0
10
136.789333333333
20
8.9505293719268
30
0
0
VERTEX
8
0
10
137.386666666666
20
8.96624518223285
30
0
0
VERTEX
8
0
10
137.984
20
8.98190810040551
30
0
0
VERTEX
8
0
10
138.581333333333
20
8.99751707598036
30
0
0
VERTEX
8
0
10
139.178666666666
20
9.01307020707896
30
0
0
VERTEX
8
0
10
139.776
20
9.02856646933191
30
0
0
VERTEX
8
0
10
140.373333333333
20
9.04400401300979
30
0
0
VERTEX
8
0
10
140.970666666666
20
9.05938183648749
30
0
0
VERTEX
8
0
10
141.568
20
9.07469813803618
30
0
0
VERTEX
8
0
10
142.165333333333
20
9.08995193565822
30
0
0
VERTEX
8
0
10
142.762666666666
20
9.105141471714
30
0
0
VERTEX
8
0
10
143.36
20
9.12026578089984
30
0
0
VERTEX
8
0
10
143.957333333333
20
9.13532314597916
30
0
0
VERTEX
8
0
10
144.554666666666
20
9.15031261560098
30
0
0
VERTEX
8
0
10
145.152
20
9.16523250942466
30
0
0
VERTEX
8
0
10
145.749333333333
20
9.18008188744298
30
0
0
VERTEX
8
0
10
146.346666666666
20
9.19485910289181
30
0
0
VERTEX
8
0
10
146.943999999999
20
9.20956322464646
30
0
0
VERTEX
8
0
10
147.541333333333
20
9.22419263635076
30
0
0
VERTEX
8
0
10
148.138666666666
20
9.23874641339614
30
0
0
VERTEX
8
0
10
148.735999999999
20
9.25322296680339
30
0
0
VERTEX
8
0
10
149.333333333333
20
9.2676213762335
30
0
0
VERTEX
8
0
10
149.930666666666
20
9.28194007716863
30
0
0
VERTEX
8
0
10
150.527999999999
20
9.29617815136768
30
0
0
VERTEX
8
0
10
151.125333333333
20
9.31033405596867
30
0
0
VERTEX
8
0
10
151.722666666666
20
9.3244068727331
30
0
0
VERTEX
8
0
10
152.319999999999
20
9.33839507773799
30
0
0
VERTEX
8
0
10
152.917333333333
20
9.35229775071061
30
0
0
VERTEX
8
0
10
153.514666666666
20
9.36611338402746
30
0
0
VERTEX
8
0
10
154.111999999999
20
9.3798410533978
30
0
0
VERTEX
8
0
10
154.709333333333
20
9.39347926492598
30
0
0
VERTEX
8
0
10
155.306666666666
20
9.40702708835249
30
0
0
SEQEND
8
0
0
POLYLINE
8
0
62
3
70
0
10
0
20
0
30
0
0
VERTEX
8
0
10
10.752
20
4.25242828704543
30
0
0
VERTEX
8
0
10
11.3493333333333
20
4.45037688481935
30
0
0
VERTEX
8
0
10
11.9466666666667
20
4.64725911918665
30
0
0
VERTEX
8
0
10
12.544
20
4.84048900028856
30
0
0
VERTEX
8
0
10
13.1413333333333
20
5.03219607038917
30
0
0
VERTEX
8
0
10
13.7386666666667
20
5.22083449907692
30
0
0
VERTEX
8
0
10
14.336
20
5.40771111287169
30
0
0
VERTEX
8
0
10
14.9333333333333
20
5.59189538673352
30
0
0
VERTEX
8
0
10
15.5306666666667
20
5.77421016655183
30
0
0
VERTEX
8
0
10
16.128
20
5.95408173772919
30
0
0
VERTEX
8
0
10
16.7253333333333
20
6.13205020307122
30
0
0
VERTEX
8
0
10
17.3226666666667
20
6.30774842257258
30
0
0
VERTEX
8
0
10
17.92
20
6.4815495308478
30
0
0
VERTEX
8
0
10
18.5173333333333
20
6.65320774217809
30
0
0
VERTEX
8
0
10
19.1146666666667
20
6.82299492758025
30
0
0
VERTEX
8
0
10
19.712
20
6.99073871477342
30
0
0
VERTEX
8
0
10
20.3093333333333
20
7.15664706388288
30
0
0
VERTEX
8
0
10
20.9066666666667
20
7.32059389037629
30
0
0
VERTEX
8
0
10
21.504
20
7.48274482124739
30
0
0
VERTEX
8
0
10
22.1013333333333
20
7.64300441311536
30
0
0
VERTEX
8
0
10
22.6986666666667
20
7.80150879732721
30
0
0
VERTEX
8
0
10
23.296
20
7.95818385433664
30
0
0
VERTEX
8
0
10
23.8933333333333
20
8.11314417478432
30
0
0
VERTEX
8
0
10
24.4906666666667
20
8.26633117634291
30
0
0
VERTEX
8
0
10
25.088
20
8.4178430801383
30
0
0
VERTEX
8
0
10
25.6853333333333
20
8.56763307054261
30
0
0
VERTEX
8
0
10
26.2826666666667
20
8.71578653148967
30
0
0
VERTEX
8
0
10
26.88
20
8.86226583507542
30
0
0
VERTEX
8
0
10
27.4773333333333
20
9.00714605460115
30
0
0
VERTEX
8
0
10
28.0746666666667
20
9.15039690595251
30
0
0
VERTEX
8
0
10
28.672
20
9.29208503130076
30
0
0
VERTEX
8
0
10
29.2693333333333
20
9.43218612186089
30
0
0
VERTEX
8
0
10
29.8666666666667
20
9.57075983142633
30
0
0
VERTEX
8
0
10
30.464
20
9.70778678044257
30
0
0
VERTEX
8
0
10
31.0613333333333
20
9.84332076904503
30
0
0
VERTEX
8
0
10
31.6586666666667
20
9.97734652879486
30
0
0
VERTEX
8
0
10
32.256
20
10.1099129153653
30
0
0
VERTEX
8
0
10
32.8533333333333
20
10.2410081203856
30
0
0
VERTEX
8
0
10
33.4506666666667
20
10.3706767940939
30
0
0
VERTEX
8
0
10
34.048
20
10.4989100630959
30
0
0
VERTEX
8
0
10
34.6453333333333
20
10.6257489797658
30
0
0
VERTEX
8
0
10
35.2426666666667
20
10.7511871776693
30
0
0
VERTEX
8
0
10
35.84
20
10.8752626155009
30
0
0
VERTEX
8
0
10
36.4373333333333
20
10.9979710818367
30
0
0
VERTEX
8
0
10
37.0346666666667
20
11.1193478634053
30
0
0
VERTEX
8
0
10
37.632
20
11.239390612261
30
0
0
VERTEX
8
0
10
38.2293333333334
20
11.3581322983257
30
0
0
VERTEX
8
0
10
38.8266666666667
20
11.4755721941276
30
0
0
VERTEX
8
0
10
39.424
20
11.5917412537102
30
0
0
VERTEX
8
0
10
40.0213333333334
20
11.7066401663558
30
0
0
VERTEX
8
0
10
40.6186666666667
20
11.8202981266751
30
0
0
VERTEX
8
0
10
41.216
20
11.9327170690141
30
0
0
VERTEX
8
0
10
41.8133333333334
20
12.0439246482117
30
0
0
VERTEX
8
0
10
42.4106666666667
20
12.153923898305
30
0
0
VERTEX
8
0
10
43.008
20
12.262741123384
30
0
0
VERTEX
8
0
10
43.6053333333334
20
12.3703803335887
30
0
0
VERTEX
8
0
10
44.2026666666667
20
12.4768666456474
30
0
0
VERTEX
8
0
10
44.8
20
12.5822049402577
30
0
0
VERTEX
8
0
10
45.3973333333334
20
12.6864192886132
30
0
0
VERTEX
8
0
10
45.9946666666667
20
12.7895153515206
30
0
0
VERTEX
8
0
10
46.592
20
12.8915162782352
30
0
0
VERTEX
8
0
10
47.1893333333334
20
12.9924284318557
30
0
0
VERTEX
8
0
10
47.7866666666667
20
13.0922741478003
30
0
0
VERTEX
8
0
10
48.384
20
13.1910604243004
30
0
0
VERTEX
8
0
10
48.9813333333334
20
13.2888088778174
30
0
0
VERTEX
8
0
10
49.5786666666667
20
13.3855270835784
30
0
0
VERTEX
8
0
10
50.176
20
13.4812360226316
30
0
0
VERTEX
8
0
10
50.7733333333334
20
13.575943796712
30
0
0
VERTEX
8
0
10
51.3706666666667
20
13.6696708252586
30
0
0
VERTEX
8
0
10
51.968
20
13.7624256925532
30
0
0
VERTEX
8
0
10
52.5653333333334
20
13.8542283218299
30
0
0
VERTEX
8
0
10
53.1626666666667
20
13.945087741539
30
0
0
VERTEX
8
0
10
53.76
20
14.0350234368256
30
0
0
VERTEX
8
0
10
54.3573333333334
20
14.1240448467471
30
0
0
VERTEX
8
0
10
54.9546666666667
20
14.2121710701655
30
0
0
VERTEX
8
0
10
55.552
20
14.2994119273205
30
0
0
VERTEX
8
0
10
56.1493333333334
20
14.3857861771036
30
0
0
VERTEX
8
0
10
56.7466666666667
20
14.4713039951263
30
0
0
VERTEX
8
0
10
57.344
20
14.5559838418445
30
0
0
VERTEX
8
0
10
57.9413333333334
20
14.6398362255661
30
0
0
VERTEX
8
0
10
58.5386666666667
20
14.7228793456791
30
0
0
VERTEX
8
0
10
59.136
20
14.8051240232975
30
0
0
VERTEX
8
0
10
59.7333333333334
20
14.8865882304916
30
0
0
VERTEX
8
0
10
60.3306666666667
20
14.9672830837365
30
0
0
VERTEX
8
0
10
60.928
20
15.047226358394
30
0
0
VERTEX
8
0
10
61.5253333333334
20
15.126429451081
30
0
0
VERTEX
8
0
10
62.1226666666667
20
15.2049099683559
30
0
0
VERTEX
8
0
10
62.72
20
15.2826795737701
30
0
0
VERTEX
8
0
10
63.3173333333334
20
15.359755730672
30
0
0
VERTEX
8
0
10
63.9146666666667
20
15.4361503582172
30
0
0
VERTEX
8
0
10
64.512
20
15.5118808002162
30
0
0
VERTEX
8
0
10
65.1093333333334
20
15.5869592218817
30
0
0
VERTEX
8
0
10
65.7066666666667
20
15.6614028695806
30
0
0
VERTEX
8
0
10
66.304
20
15.7352241467787
30
0
0
VERTEX
8
0
10
66.9013333333334
20
15.8084402232896
30
0
0
VERTEX
8
0
10
67.4986666666667
20
15.8810637347955
30
0
0
VERTEX
8
0
10
68.096
20
15.9531117945991
30
0
0
VERTEX
8
0
10
68.6933333333334
20
16.0245972664018
30
0
0
VERTEX
8
0
10
69.2906666666667
20
16.0955372266061
30
0
0
VERTEX
8
0
10
69.888
20
16.1659447647324
30
0
0
VERTEX
8
0
10
70.4853333333334
20
16.2358369398988
30
0
0
VERTEX
8
0
10
71.0826666666667
20
16.3052270674823
30
0
0
VERTEX
8
0
10
71.68
20
16.3741322094643
30
0
0
VERTEX
8
0
10
72.2773333333334
20
16.4425659097255
30
0
0
VERTEX
8
0
10
72.8746666666667
20
16.5105452544083
30
0
0
VERTEX
8
0
10
73.4720000000001
20
16.5780840216667
30
0
0
VERTEX
8
0
10
74.0693333333334
20
16.645199345057
30
0
0
VERTEX
8
0
10
74.6666666666667
20
16.711905246625
30
0
0
VERTEX
8
0
10
75.2640000000001
20
16.7782189335474
30
0
0
VERTEX
8
0
10
75.8613333333334
20
16.8441546862724
30
0
0
VERTEX
8
0
10
76.4586666666667
20
16.9097298161253
30
0
0
VERTEX
8
0
10
77.0560000000001
20
16.9749588828082
30
0
0
VERTEX
8
0
10
77.6533333333334
20
17.0398593385133
30
0
0
VERTEX
8
0
10
78.2506666666667
20
17.1044460514904
30
0
0
VERTEX
8
0
10
78.848
20
17.1687366603476
30
0
0
VERTEX
8
0
10
79.4453333333334
20
17.2327463827163
30
0
0
VERTEX
8
0
10
80.0426666666667
20
17.2964931018869
30
0
0
VERTEX
8
0
10
80.64
20
17.3599924418967
30
0
0
VERTEX
8
0
10
81.2373333333334
20
17.4232626075794
30
0
0
VERTEX
8
0
10
81.8346666666667
20
17.4863197098969
30
0
0
VERTEX
8
0
10
82.432
20
17.5491823799826
30
0
0
VERTEX
8
0
10
83.0293333333334
20
17.6118673315551
30
0
0
VERTEX
8
0
10
83.6266666666667
20
17.6743937701788
30
0
0
VERTEX
8
0
10
84.224
20
17.7367791837718
30
0
0
VERTEX
8
0
10
84.8213333333334
20
17.7990435710499
30
0
0
VERTEX
8
0
10
85.4186666666667
20
17.861205458262
30
0
0
VERTEX
8
0
10
86.016
20
17.9232859783221
30
0
0
VERTEX
8
0
10
86.6133333333334
20
17.9853051264126
30
0
0
VERTEX
8
0
10
87.2106666666667
20
18.0472857414479
30
0
0
VERTEX
8
0
10
87.8080000000001
20
18.109250049321
30
0
0
VERTEX
8
0
10
88.4053333333334
20
18.1712236582907
30
0
0
VERTEX
8
0
10
89.0026666666667
20
18.2332325520669
30
0
0
VERTEX
8
0
10
89.6000000000001
20
18.2953074337359
30
0
0
VERTEX
8
0
10
90.1973333333334
20
18.3574818177508
30
0
0
VERTEX
8
0
10
90.7946666666667
20
18.4197981702661
30
0
0
VERTEX
8
0
10
91.3920000000001
20
18.4823096500371
30
0
0
VERTEX
8
0
10
91.9893333333334
20
18.5450819933003
30
0
0
VERTEX
8
0
10
92.5866666666667
20
18.6081402192541
30
0
0
VERTEX
8
0
10
93.1840000000001
20
18.6714381034704
30
0
0
VERTEX
8
0
10
93.7813333333334
20
18.7349191543106
30
0
0
VERTEX
8
0
10
94.3786666666667
20
18.7985437458828
30
0
0
VERTEX
8
0
10
94.9760000000001
20
18.8622813894542
30
0
0
VERTEX
8
0
10
95.5733333333334
20
18.926109318498
30
0
0
VERTEX
8
0
10
96.1706666666667
20
18.9900074795492
30
0
0
VERTEX
8
0
10
96.7680000000001
20
19.0539600260001
30
0
0
VERTEX
8
0
10
97.3653333333334
20
19.1179518979657
30
0
0
VERTEX
8
0
10
97.9626666666667
20
19.1819709588747
30
0
0
VERTEX
8
0
10
98.5600000000001
20
19.2460050890374
30
0
0
VERTEX
8
0
10
99.1573333333334
20
19.3100444685504
30
0
0
VERTEX
8
0
10
99.7546666666667
20
19.3740789240883
30
0
0
VERTEX
8
0
10
100.352
20
19.4381002206674
30
0
0
VERTEX
8
0
10
100.949333333333
20
19.5020995733251
30
0
0
VERTEX
8
0
10
101.546666666667
20
19.5660698994803
30
0
0
VERTEX
8
0
10
102.144
20
19.6300034572355
30
0
0
VERTEX
8
0
10
102.741333333333
20
19.693894039253
30
0
0
VERTEX
8
0
10
103.338666666667
20
19.7577347177481
30
0
0
VERTEX
8
0
10
103.936
20
19.8215199722242
30
0
0
VERTEX
8
0
10
104.533333333333
20
19.8852435291398
30
0
0
VERTEX
8
0
10
105.130666666667
20
19.9489004208704
30
0
0
VERTEX
8
0
10
105.728
20
20.0124849118823
30
0
0
VERTEX
8
0
10
106.325333333333
20
20.0759924887233
30
0
0
VERTEX
8
0
10
106.922666666667
20
20.1394178665604
30
0
0
VERTEX
8
0
10
107.52
20
20.2027569112489
30
0
0
VERTEX
8
0
10
108.117333333333
20
20.2660047213291
30
0
0
VERTEX
8
0
10
108.714666666667
20
20.3291574838128
30
0
0
VERTEX
8
0
10
109.312
20
20.3922106275063
30
0
0
VERTEX
8
0
10
109.909333333333
20
20.4551606144913
30
0
0
VERTEX
8
0
10
110.506666666667
20
20.5180031611524
30
0
0
VERTEX
8
0
10
111.104
20
20.5807349674769
30
0
0
VERTEX
8
0
10
111.701333333333
20
20.6433520025507
30
0
0
VERTEX
8
0
10
112.298666666667
20
20.705851173854
30
0
0
VERTEX
8
0
10
112.896
20
20.768228674269
30
0
0
VERTEX
8
0
10
113.493333333333
20
20.8304815935513
30
0
0
VERTEX
8
0
10
114.090666666667
20
20.8926063241238
30
0
0
VERTEX
8
0
10
114.688
20
20.9546001168686
30
0
0
VERTEX
8
0
10
115.285333333333
20
21.0164595431692
30
0
0
VERTEX
8
0
10
115.882666666667
20
21.0781819971146
30
0
0
VERTEX
8
0
10
116.48
20
21.1397642114141
30
0
0
VERTEX
8
0
10
117.077333333333
20
21.2012037080395
30
0
0
VERTEX
8
0
10
117.674666666667
20
21.2624973657837
30
0
0
VERTEX
8
0
10
118.272
20
21.3236428212889
30
0
0
VERTEX
8
0
10
118.869333333333
20
21.3846370861502
30
0
0
VERTEX
8
0
10
119.466666666667
20
21.4454779002034
30
0
0
VERTEX
8
0
10
120.064
20
21.5061623961855
30
0
0
VERTEX
8
0
10
120.661333333333
20
21.5666884070908
30
0
0
VERTEX
8
0
10
121.258666666667
20
21.6270531764978
30
0
0
VERTEX
8
0
10
121.856
20
21.6872546217266
30
0
0
VERTEX
8
0
10
122.453333333333
20
21.7472900880407
30
0
0
VERTEX
8
0
10
123.050666666667
20
21.807157569268
30
0
0
VERTEX
8
0
10
123.648
20
21.8668545041753
30
0
0
VERTEX
8
0
10
124.245333333333
20
21.926378956137
30
0
0
VERTEX
8
0
10
124.842666666667
20
21.9857284500709
30
0
0
VERTEX
8
0
10
125.44
20
22.0449011126796
30
0
0
VERTEX
8
0
10
126.037333333333
20
22.1038945483945
30
0
0
VERTEX
8
0
10
126.634666666667
20
22.1627069416505
30
0
0
VERTEX
8
0
10
127.232
20
22.2213359703778
30
0
0
VERTEX
8
0
10
127.829333333333
20
22.279779871699
30
0
0
VERTEX
8
0
10
128.426666666667
20
22.3380363915633
30
0
0
VERTEX
8
0
10
129.024
20
22.3961038152065
30
0
0
VERTEX
8
0
10
129.621333333333
20
22.4539799515916
30
0
0
VERTEX
8
0
10
130.218666666667
20
22.5116631299053
30
0
0
VERTEX
8
0
10
130.816
20
22.5691512175308
30
0
0
VERTEX
8
0
10
131.413333333333
20
22.6264425838057
30
0
0
VERTEX
8
0
10
132.010666666666
20
22.6835351503053
30
0
0
VERTEX
8
0
10
132.608
20
22.7404273230342
30
0
0
VERTEX
8
0
10
133.205333333333
20
22.7971170738544
30
0
0
VERTEX
8
0
10
133.802666666666
20
22.8536028422335
30
0
0
VERTEX
8
0
10
134.4
20
22.9098826467012
30
0
0
VERTEX
8
0
10
134.997333333333
20
22.9659549572306
30
0
0
VERTEX
8
0
10
135.594666666666
20
23.0218178356566
30
0
0
VERTEX
8
0
10
136.192
20
23.077469779719
30
0
0
VERTEX
8
0
10
136.789333333333
20
23.132908891424
30
0
0
VERTEX
8
0
10
137.386666666666
20
23.188133693734
30
0
0
VERTEX
8
0
10
137.984
20
23.2431423258948
30
0
0
VERTEX
8
0
10
138.581333333333
20
23.2979333337214
30
0
0
VERTEX
8
0
10
139.178666666666
20
23.3525048909518
30
0
0
VERTEX
8
0
10
139.776
20
23.4068555640389
30
0
0
VERTEX
8
0
10
140.373333333333
20
23.4609835586306
30
0
0
VERTEX
8
0
10
140.970666666666
20
23.5148874597364
30
0
0
VERTEX
8
0
10
141.568
20
23.5685655024818
30
0
0
VERTEX
8
0
10
142.165333333333
20
23.6220162884802
30
0
0
VERTEX
8
0
10
142.762666666666
20
23.6752380800331
30
0
0
VERTEX
8
0
10
143.36
20
23.7282294935101
30
0
0
VERTEX
8
0
10
143.957333333333
20
23.780988816211
30
0
0
VERTEX
8
0
10
144.554666666666
20
23.8335146775205
30
0
0
VERTEX
8
0
10
145.152
20
23.8858053876614
30
0
0
VERTEX
8
0
10
145.749333333333
20
23.9378595873735
30
0
0
VERTEX
8
0
10
146.346666666666
20
23.9896756078312
30
0
0
VERTEX
8
0
10
146.943999999999
20
24.0412520995535
30
0
0
VERTEX
8
0
10
147.541333333333
20
24.0925874127828
30
0
0
VERTEX
8
0
10
148.138666666666
20
24.1436802063034
30
0
0
VERTEX
8
0
10
148.735999999999
20
24.1945288476219
30
0
0
VERTEX
8
0
10
149.333333333333
20
24.2451320023449
30
0
0
VERTEX
8
0
10
149.930666666666
20
24.2954880535089
30
0
0
VERTEX
8
0
10
150.527999999999
20
24.3455956721503
30
0
0
VERTEX
8
0
10
151.125333333333
20
24.3954532551676
30
0
0
VERTEX
8
0
10
151.722666666666
20
24.4450594776846
30
0
0
VERTEX
8
0
10
152.319999999999
20
24.4944127488504
30
0
0
VERTEX
8
0
10
152.917333333333
20
24.5435117465759
30
0
0
VERTEX
8
0
10
153.514666666666
20
24.5923548906989
30
0
0
VERTEX
8
0
10
154.111999999999
20
24.6409408606564
30
0
0
VERTEX
8
0
10
154.709333333333
20
24.689268085459
30
0
0
VERTEX
8
0
10
155.306666666666
20
24.7373352448374
30
0
0
SEQEND
8
0
0
POLYLINE
8
0
62
4
70
0
10
0
20
0
30
0
0
VERTEX
8
0
10
10.752
20
4.89713309079404
30
0
0
VERTEX
8
0
10
11.3493333333333
20
5.05357571816677
30
0
0
VERTEX
8
0
10
11.9466666666667
20
5.24291436321904
30
0
0
VERTEX
8
0
10
12.544
20
5.43183482163767
30
0
0
VERTEX
8
0
10
13.1413333333333
20
5.62028562812537
30
0
0
VERTEX
8
0
10
13.7386666666667
20
5.80820638887148
30
0
0
VERTEX
8
0
10
14.336
20
5.97088800335758
30
0
0
VERTEX
8
0
10
14.9333333333333
20
6.13636278031158
30
0
0
VERTEX
8
0
10
15.5306666666667
20
6.30148002340106
30
0
0
VERTEX
8
0
10
16.128
20
6.46617972273924
30
0
0
VERTEX
8
0
10
16.7253333333333
20
6.61334370625903
30
0
0
VERTEX
8
0
10
17.3226666666667
20
6.75093979851699
30
0
0
VERTEX
8
0
10
17.92
20
6.88845053038629
30
0
0
VERTEX
8
0
10
18.5173333333333
20
7.02580662334757
30
0
0
VERTEX
8
0
10
19.1146666666667
20
7.16295185539331
30
0
0
VERTEX
8
0
10
19.712
20
7.2811301650188
30
0
0
VERTEX
8
0
10
20.3093333333333
20
7.40372904015729
30
0
0
VERTEX
8
0
10
20.9066666666667
20
7.52625938407741
30
0
0
VERTEX
8
0
10
21.504
20
7.64866742670872
30
0
0
VERTEX
8
0
10
22.1013333333333
20
7.75842674939473
30
0
0
VERTEX
8
0
10
22.6986666666667
20
7.86670950503013
30
0
0
VERTEX
8
0
10
23.296
20
7.97506064685787
30
0
0
VERTEX
8
0
10
23.8933333333333
20
8.08342717769409
30
0
0
VERTEX
8
0
10
24.4906666666667
20
8.19175614319061
30
0
0
VERTEX
8
0
10
25.088
20
8.32361754675574
30
0
0
VERTEX
8
0
10
25.6853333333333
20
8.44737038419673
30
0
0
VERTEX
8
0
10
26.2826666666667
20
8.57061657970939
30
0
0
VERTEX
8
0
10
26.88
20
8.69333227804678
30
0
0
VERTEX
8
0
10
27.4773333333333
20
8.83634116617737
30
0
0
VERTEX
8
0
10
28.0746666666667
20
8.97752971273877
30
0
0
VERTEX
8
0
10
28.672
20
9.1179073564394
30
0
0
VERTEX
8
0
10
29.2693333333333
20
9.25747188537393
30
0
0
VERTEX
8
0
10
29.8666666666667
20
9.40774965323543
30
0
0
VERTEX
8
0
10
30.464
20
9.56388463537119
30
0
0
VERTEX
8
0
10
31.0613333333333
20
9.71917377864422
30
0
0
VERTEX
8
0
10
31.6586666666667
20
9.87362352128061
30
0
0
VERTEX
8
0
10
32.256
20
10.0272423824944
30
0
0
VERTEX
8
0
10
32.8533333333333
20
10.1578201484422
30
0
0
VERTEX
8
0
10
33.4506666666667
20
10.2915251934701
30
0
0
VERTEX
8
0
10
34.048
20
10.4244404373043
30
0
0
VERTEX
8
0
10
34.6453333333333
20
10.5565695969839
30
0
0
VERTEX
8
0
10
35.2426666666667
20
10.6868079687855
30
0
0
VERTEX
8
0
10
35.84
20
10.8159880070413
30
0
0
VERTEX
8
0
10
36.4373333333333
20
10.9443973335189
30
0
0
VERTEX
8
0
10
37.0346666666667
20
11.0720403061672
30
0
0
VERTEX
8
0
10
37.632
20
11.1989202018903
30
0
0
VERTEX
8
0
10
38.2293333333334
20
11.2966685640193
30
0
0
VERTEX
8
0
10
38.8266666666667
20
11.401618208285
30
0
0
VERTEX
8
0
10
39.424
20
11.5059629875785
30
0
0
VERTEX
8
0
10
40.0213333333334
20
11.6096994705529
30
0
0
VERTEX
8
0
10
40.6186666666667
20
11.7231116681628
30
0
0
VERTEX
8
0
10
41.216
20
11.836263144462
30
0
0
VERTEX
8
0
10
41.8133333333334
20
11.948716091469
30
0
0
VERTEX
8
0
10
42.4106666666667
20
12.0604732457421
30
0
0
VERTEX
8
0
10
43.008
20
12.1679538798455
30
0
0
VERTEX
8
0
10
43.6053333333334
20
12.2717354637015
30
0
0
VERTEX
8
0
10
44.2026666666667
20
12.3748755498424
30
0
0
VERTEX
8
0
10
44.8
20
12.4773758483706
30
0
0
VERTEX
8
0
10
45.3973333333334
20
12.579239237533
30
0
0
VERTEX
8
0
10
45.9946666666667
20
12.6921581254594
30
0
0
VERTEX
8
0
10
46.592
20
12.8031164319299
30
0
0
VERTEX
8
0
10
47.1893333333334
20
12.9133981582736
30
0
0
VERTEX
8
0
10
47.7866666666667
20
13.0230099504405
30
0
0
VERTEX
8
0
10
48.384
20
13.1292196136831
30
0
0
VERTEX
8
0
10
48.9813333333334
20
13.2336315671024
30
0
0
VERTEX
8
0
10
49.5786666666667
20
13.3374038166179
30
0
0
VERTEX
8
0
10
50.176
20
13.4405426274669
30
0
0
VERTEX
8
0
10
50.7733333333334
20
13.5430537698021
30
0
0
VERTEX
8
0
10
51.3706666666667
20
13.6515552346122
30
0
0
VERTEX
8
0
10
51.968
20
13.7579597427413
30
0
0
VERTEX
8
0
10
52.5653333333334
20
13.8637461409518
30
0
0
VERTEX
8
0
10
53.1626666666667
20
13.9689216083695
30
0
0
VERTEX
8
0
10
53.76
20
14.0634796183007
30
0
0
VERTEX
8
0
10
54.3573333333334
20
14.1559432842655
30
0
0
VERTEX
8
0
10
54.9546666666667
20
14.2478504461349
30
0
0
VERTEX
8
0
10
55.552
20
14.3392065816298
30
0
0
VERTEX
8
0
10
56.1493333333334
20
14.4300177909583
30
0
0
VERTEX
8
0
10
56.7466666666667
20
14.5184555173624
30
0
0
VERTEX
8
0
10
57.344
20
14.6069362971523
30
0
0
VERTEX
8
0
10
57.9413333333334
20
14.6948959770959
30
0
0
VERTEX
8
0
10
58.5386666666667
20
14.782340896316
30
0
0
VERTEX
8
0
10
59.136
20
14.8744483422904
30
0
0
VERTEX
8
0
10
59.7333333333334
20
14.9658807385832
30
0
0
VERTEX
8
0
10
60.3306666666667
20
15.056800321691
30
0
0
VERTEX
8
0
10
60.928
20
15.1472146410067
30
0
0
VERTEX
8
0
10
61.5253333333334
20
15.23101560431
30
0
0
VERTEX
8
0
10
62.1226666666667
20
15.3104914269491
30
0
0
VERTEX
8
0
10
62.72
20
15.3895239210549
30
0
0
VERTEX
8
0
10
63.3173333333334
20
15.4681193543658
30
0
0
VERTEX
8
0
10
63.9146666666667
20
15.5462837665631
30
0
0
VERTEX
8
0
10
64.512
20
15.6387236213775
30
0
0
VERTEX
8
0
10
65.1093333333334
20
15.728311555428
30
0
0
VERTEX
8
0
10
65.7066666666667
20
15.8174507931722
30
0
0
VERTEX
8
0
10
66.304
20
15.9061493457272
30
0
0
VERTEX
8
0
10
66.9013333333334
20
15.9829663544278
30
0
0
VERTEX
8
0
10
67.4986666666667
20
16.0560966873295
30
0
0
VERTEX
8
0
10
68.096
20
16.1288585207007
30
0
0
VERTEX
8
0
10
68.6933333333334
20
16.2012582431501
30
0
0
VERTEX
8
0
10
69.2906666666667
20
16.273302605061
30
0
0
VERTEX
8
0
10
69.888
20
16.3581575916842
30
0
0
VERTEX
8
0
10
70.4853333333334
20
16.4391600825965
30
0
0
VERTEX
8
0
10
71.0826666666667
20
16.5197912947802
30
0
0
VERTEX
8
0
10
71.68
20
16.6000593688295
30
0
0
VERTEX
8
0
10
72.2773333333334
20
16.6754333670548
30
0
0
VERTEX
8
0
10
72.8746666666667
20
16.7501797039958
30
0
0
VERTEX
8
0
10
73.4720000000001
20
16.8245994626607
30
0
0
VERTEX
8
0
10
74.0693333333334
20
16.8987004205601
30
0
0
VERTEX
8
0
10
74.6666666666667
20
16.9668706228722
30
0
0
VERTEX
8
0
10
75.2640000000001
20
17.0296156710174
30
0
0
VERTEX
8
0
10
75.8613333333334
20
17.0921223232902
30
0
0
VERTEX
8
0
10
76.4586666666667
20
17.1543973117577
30
0
0
VERTEX
8
0
10
77.0560000000001
20
17.216447227088
30
0
0
VERTEX
8
0
10
77.6533333333334
20
17.2925620861963
30
0
0
VERTEX
8
0
10
78.2506666666667
20
17.3670715948643
30
0
0
VERTEX
8
0
10
78.848
20
17.4413174662415
30
0
0
VERTEX
8
0
10
79.4453333333334
20
17.5153077055803
30
0
0
VERTEX
8
0
10
80.0426666666667
20
17.5890505093049
30
0
0
VERTEX
8
0
10
80.64
20
17.6625538901911
30
0
0
VERTEX
8
0
10
81.2373333333334
20
17.7358260407189
30
0
0
VERTEX
8
0
10
81.8346666666667
20
17.8088749720237
30
0
0
VERTEX
8
0
10
82.432
20
17.8817088639664
30
0
0
VERTEX
8
0
10
83.0293333333334
20
17.9380825780402
30
0
0
VERTEX
8
0
10
83.6266666666667
20
17.9977349435501
30
0
0
VERTEX
8
0
10
84.224
20
18.0572497843998
30
0
0
VERTEX
8
0
10
84.8213333333334
20
18.1166343258862
30
0
0
VERTEX
8
0
10
85.4186666666667
20
18.1758956535433
30
0
0
VERTEX
8
0
10
86.016
20
18.2350410277757
30
0
0
VERTEX
8
0
10
86.6133333333334
20
18.2940775682083
30
0
0
VERTEX
8
0
10
87.2106666666667
20
18.3530125583339
30
0
0
VERTEX
8
0
10
87.8080000000001
20
18.4118531396854
30
0
0
VERTEX
8
0
10
88.4053333333334
20
18.5014227025531
30
0
0
VERTEX
8
0
10
89.0026666666667
20
18.5815995891274
30
0
0
VERTEX
8
0
10
89.6000000000001
20
18.6616600861227
30
0
0
VERTEX
8
0
10
90.1973333333334
20
18.7416121161447
30
0
0
VERTEX
8
0
10
90.7946666666667
20
18.803001106867
30
0
0
VERTEX
8
0
10
91.3920000000001
20
18.8645259276869
30
0
0
VERTEX
8
0
10
91.9893333333334
20
18.9259892270792
30
0
0
VERTEX
8
0
10
92.5866666666667
20
18.9873946152928
30
0
0
VERTEX
8
0
10
93.1840000000001
20
19.0467358384328
30
0
0
VERTEX
8
0
10
93.7813333333334
20
19.1046537939989
30
0
0
VERTEX
8
0
10
94.3786666666667
20
19.1625272629777
30
0
0
VERTEX
8
0
10
94.9760000000001
20
19.2203535609409
30
0
0
VERTEX
8
0
10
95.5733333333334
20
19.2781301557517
30
0
0
VERTEX
8
0
10
96.1706666666667
20
19.3358544231925
30
0
0
VERTEX
8
0
10
96.7680000000001
20
19.3935238899143
30
0
0
VERTEX
8
0
10
97.3653333333334
20
19.4511359929799
30
0
0
VERTEX
8
0
10
97.9626666666667
20
19.5086883161325
30
0
0
VERTEX
8
0
10
98.5600000000001
20
19.5661783556599
30
0
0
VERTEX
8
0
10
99.1573333333334
20
19.6236037504411
30
0
0
VERTEX
8
0
10
99.7546666666667
20
19.68096205396
30
0
0
VERTEX
8
0
10
100.352
20
19.738250958326
30
0
0
VERTEX
8
0
10
100.949333333333
20
19.7954680722479
30
0
0
VERTEX
8
0
10
101.546666666667
20
19.8526111392134
30
0
0
VERTEX
8
0
10
102.144
20
19.9096778212416
30
0
0
VERTEX
8
0
10
102.741333333333
20
19.9666659113992
30
0
0
VERTEX
8
0
10
103.338666666667
20
20.0235731231568
30
0
0
VERTEX
8
0
10
103.936
20
20.080397297412
30
0
0
VERTEX
8
0
10
104.533333333333
20
20.1371361972828
30
0
0
VERTEX
8
0
10
105.130666666667
20
20.1937877098003
30
0
0
VERTEX
8
0
10
105.728
20
20.2503496459787
30
0
0
VERTEX
8
0
10
106.325333333333
20
20.316893772764
30
0
0
VERTEX
8
0
10
106.922666666667
20
20.3933466078256
30
0
0
VERTEX
8
0
10
107.52
20
20.4696793282062
30
0
0
VERTEX
8
0
10
108.117333333333
20
20.5458903942238
30
0
0
VERTEX
8
0
10
108.714666666667
20
20.6219783788136
30
0
0
VERTEX
8
0
10
109.312
20
20.6794874128975
30
0
0
VERTEX
8
0
10
109.909333333333
20
20.7382938113703
30
0
0
VERTEX
8
0
10
110.506666666667
20
20.7969809800817
30
0
0
VERTEX
8
0
10
111.104
20
20.8555471790316
30
0
0
VERTEX
8
0
10
111.701333333333
20
20.9118887146002
30
0
0
VERTEX
8
0
10
112.298666666667
20
20.9670577862793
30
0
0
VERTEX
8
0
10
112.896
20
21.0221152436624
30
0
0
VERTEX
8
0
10
113.493333333333
20
21.0770592420642
30
0
0
VERTEX
8
0
10
114.090666666667
20
21.1318878721798
30
0
0
VERTEX
8
0
10
114.688
20
21.1865993235733
30
0
0
VERTEX
8
0
10
115.285333333333
20
21.2411917225874
30
0
0
VERTEX
8
0
10
115.882666666667
20
21.2956632917564
30
0
0
VERTEX
8
0
10
116.48
20
21.3500121917543
30
0
0
VERTEX
8
0
10
117.077333333333
20
21.4042366768445
30
0
0
VERTEX
8
0
10
117.674666666667
20
21.458334940755
30
0
0
VERTEX
8
0
10
118.272
20
21.5123052682736
30
0
0
VERTEX
8
0
10
118.869333333333
20
21.5661458849432
30
0
0
VERTEX
8
0
10
119.466666666667
20
21.6198551049062
30
0
0
VERTEX
8
0
10
120.064
20
21.6734311843178
30
0
0
VERTEX
8
0
10
120.661333333333
20
21.7268724655399
30
0
0
VERTEX
8
0
10
121.258666666667
20
21.7801772341726
30
0
0
VERTEX
8
0
10
121.856
20
21.8333438596953
30
0
0
VERTEX
8
0
10
122.453333333333
20
21.8863706560202
30
0
0
VERTEX
8
0
10
123.050666666667
20
21.9392560186744
30
0
0
VERTEX
8
0
10
123.648
20
21.9919982887821
30
0
0
VERTEX
8
0
10
124.245333333333
20
22.0445958868788
30
0
0
VERTEX
8
0
10
124.842666666667
20
22.0970471802333
30
0
0
VERTEX
8
0
10
125.44
20
22.1493506133809
30
0
0
VERTEX
8
0
10
126.037333333333
20
22.2015045786975
30
0
0
VERTEX
8
0
10
126.634666666667
20
22.253507543738
30
0
0
VERTEX
8
0
10
127.232
20
22.3053579249788
30
0
0
VERTEX
8
0
10
127.829333333333
20
22.3570542120423
30
0
0
VERTEX
8
0
10
128.426666666667
20
22.4085948445268
30
0
0
VERTEX
8
0
10
129.024
20
22.4599783331969
30
0
0
VERTEX
8
0
10
129.621333333333
20
22.5112031398226
30
0
0
VERTEX
8
0
10
130.218666666667
20
22.5622677954114
30
0
0
VERTEX
8
0
10
130.816
20
22.6131707829809
30
0
0
VERTEX
8
0
10
131.413333333333
20
22.6639106529073
30
0
0
VERTEX
8
0
10
132.010666666666
20
22.714485908558
30
0
0
VERTEX
8
0
10
132.608
20
22.7648951188276
30
0
0
VERTEX
8
0
10
133.205333333333
20
22.8151368065598
30
0
0
VERTEX
8
0
10
133.802666666666
20
22.8652095583407
30
0
0
VERTEX
8
0
10
134.4
20
22.9151119156411
30
0
0
VERTEX
8
0
10
134.997333333333
20
22.964842481934
30
0
0
VERTEX
8
0
10
135.594666666666
20
23.0238713990119
30
0
0
VERTEX
8
0
10
136.192
20
23.0837612080591
30
0
0
VERTEX
8
0
10
136.789333333333
20
23.1434565250527
30
0
0
VERTEX
8
0
10
137.386666666666
20
23.2029563684934
30
0
0
VERTEX
8
0
10
137.984
20
23.2622597121961
30
0
0
VERTEX
8
0
10
138.581333333333
20
23.3213655846483
30
0
0
VERTEX
8
0
10
139.178666666666
20
23.3802729706139
30
0
0
VERTEX
8
0
10
139.776
20
23.4389809079821
30
0
0
VERTEX
8
0
10
140.373333333333
20
23.4974883918583
30
0
0
VERTEX
8
0
10
140.970666666666
20
23.5445628179743
30
0
0
VERTEX
8
0
10
141.568
20
23.5921209591858
30
0
0
VERTEX
8
0
10
142.165333333333
20
23.6394923383692
30
0
0
VERTEX
8
0
10
142.762666666666
20
23.6866755971138
30
0
0
VERTEX
8
0
10
143.36
20
23.733669427866
30
0
0
VERTEX
8
0
10
143.957333333333
20
23.7804724849421
30
0
0
VERTEX
8
0
10
144.554666666666
20
23.8270834720905
30
0
0
VERTEX
8
0
10
145.152
20
23.8735010556818
30
0
0
VERTEX
8
0
10
145.749333333333
20
23.919723950127
30
0
0
VERTEX
8
0
10
146.346666666666
20
23.9657508331948
30
0
0
VERTEX
8
0
10
146.943999999999
20
24.011580429334
30
0
0
VERTEX
8
0
10
147.541333333333
20
24.0572114270696
30
0
0
VERTEX
8
0
10
148.138666666666
20
24.1026425602768
30
0
0
VERTEX
8
0
10
148.735999999999
20
24.14787252761
30
0
0
VERTEX
8
0
10
149.333333333333
20
24.1929000717729
30
0
0
VERTEX
8
0
10
149.930666666666
20
24.2377239009345
30
0
0
VERTEX
8
0
10
150.527999999999
20
24.2823427660418
30
0
0
VERTEX
8
0
10
151.125333333333
20
24.3267553841779
30
0
0
VERTEX
8
0
10
151.722666666666
20
24.351706019819
30
0
0
VERTEX
8
0
10
152.319999999999
20
24.3819701058708
30
0
0
VERTEX
8
0
10
152.917333333333
20
24.4121231673629
30
0
0
VERTEX
8
0
10
153.514666666666
20
24.4421632166445
30
0
0
VERTEX
8
0
10
154.111999999999
20
24.4762371923487
30
0
0
VERTEX
8
0
10
154.709333333333
20
24.5102740827247
30
0
0
VERTEX
8
0
10
155.306666666666
20
24.544151007209
30
0
0
SEQEND
8
0
0
POLYLINE
8
0
62
2
70
0
10
0
20
0
30
0
0
VERTEX
8
0
10
10.752
20
0
30
0
0
VERTEX
8
0
10
11.3493333333333
20
3.47307641120406
30
0
0
VERTEX
8
0
10
11.9466666666667
20
5.33663483370571
30
0
0
VERTEX
8
0
10
12.544
20
5.78085965258795
30
0
0
VERTEX
8
0
10
13.1413333333333
20
8.81225428758046
30
0
0
VERTEX
8
0
10
13.7386666666667
20
8.02974288942853
30
0
0
VERTEX
8
0
10
14.336
20
8.51167948064675
30
0
0
VERTEX
8
0
10
14.9333333333333
20
10.3882898095276
30
0
0
VERTEX
8
0
10
15.5306666666667
20
9.97638348794334
30
0
0
VERTEX
8
0
10
16.128
20
10.4883201495095
30
0
0
VERTEX
8
0
10
16.7253333333333
20
11.7805046915143
30
0
0
VERTEX
8
0
10
17.3226666666667
20
11.5967276549337
30
0
0
VERTEX
8
0
10
17.92
20
12.1547412653165
30
0
0
VERTEX
8
0
10
18.5173333333333
20
13.0593611340326
30
0
0
VERTEX
8
0
10
19.1146666666667
20
13.026600290562
30
0
0
VERTEX
8
0
10
19.712
20
13.541933167237
30
0
0
VERTEX
8
0
10
20.3093333333333
20
14.2568916677066
30
0
0
VERTEX
8
0
10
20.9066666666667
20
14.3278869984127
30
0
0
VERTEX
8
0
10
21.504
20
14.8054829472901
30
0
0
VERTEX
8
0
10
22.1013333333333
20
15.3902284361817
30
0
0
VERTEX
8
0
10
22.6986666666667
20
15.5340478966977
30
0
0
VERTEX
8
0
10
23.296
20
15.9772503305487
30
0
0
VERTEX
8
0
10
23.8933333333333
20
16.4697172606286
30
0
0
VERTEX
8
0
10
24.4906666666667
20
16.6652379505983
30
0
0
VERTEX
8
0
10
25.088
20
17.0766847439428
30
0
0
VERTEX
8
0
10
25.6853333333333
20
17.5022125342523
30
0
0
VERTEX
8
0
10
26.2826666666667
20
17.7345592933523
30
0
0
VERTEX
8
0
10
26.88
20
18.1165060919623
30
0
0
VERTEX
8
0
10
27.4773333333333
20
18.4925880190485
30
0
0
VERTEX
8
0
10
28.0746666666667
20
18.7510327588387
30
0
0
VERTEX
8
0
10
28.672
20
19.1054845467844
30
0
0
VERTEX
8
0
10
29.2693333333333
20
19.4445004375986
30
0
0
VERTEX
8
0
10
29.8666666666667
20
19.7211560940608
30
0
0
VERTEX
8
0
10
30.464
20
20.2609902080851
30
0
0
VERTEX
8
0
10
31.0613333333333
20
20.3608079877405
30
0
0
VERTEX
8
0
10
31.6586666666667
20
20.6497839106919
30
0
0
VERTEX
8
0
10
32.256
20
21.1136952657267
30
0
0
VERTEX
8
0
10
32.8533333333333
20
21.2438160344035
30
0
0
VERTEX
8
0
10
33.4506666666667
20
21.5406544759337
30
0
0
VERTEX
8
0
10
34.048
20
21.9417601393237
30
0
0
VERTEX
8
0
10
34.6453333333333
20
22.095430052885
30
0
0
VERTEX
8
0
10
35.2426666666667
20
22.3831060925997
30
0
0
VERTEX
8
0
10
35.84
20
22.7454197528295
30
0
0
VERTEX
8
0
10
36.4373333333333
20
22.9172557225112
30
0
0
VERTEX
8
0
10
37.0346666666667
20
23.1970896154567
30
0
0
VERTEX
8
0
10
37.632
20
23.5249875706471
30
0
0
VERTEX
8
0
10
38.2293333333334
20
23.7106672857682
30
0
0
VERTEX
8
0
10
38.8266666666667
20
23.9812195815955
30
0
0
VERTEX
8
0
10
39.424
20
24.2808267181581
30
0
0
VERTEX
8
0
10
40.0213333333334
20
24.4768559573779
30
0
0
VERTEX
8
0
10
40.6186666666667
20
24.7371378267081
30
0
0
VERTEX
8
0
10
41.216
20
25.0133288921675
30
0
0
VERTEX
8
0
10
41.8133333333334
20
25.2168652762947
30
0
0
VERTEX
8
0
10
42.4106666666667
20
25.4662229311059
30
0
0
VERTEX
8
0
10
43.008
20
25.7228992971392
30
0
0
VERTEX
8
0
10
43.6053333333334
20
25.9316176075342
30
0
0
VERTEX
8
0
10
44.2026666666667
20
26.1696477074735
30
0
0
VERTEX
8
0
10
44.8
20
26.4099460844129
30
0
0
VERTEX
8
0
10
45.3973333333334
20
26.6219344577793
30
0
0
VERTEX
8
0
10
45.9946666666667
20
26.8484215316712
30
0
0
VERTEX
8
0
10
46.592
20
27.0748730903786
30
0
0
VERTEX
8
0
10
47.1893333333334
20
27.2885523501522
30
0
0
VERTEX
8
0
10
47.7866666666667
20
27.5720762308959
30
0
0
VERTEX
8
0
10
48.384
20
27.7180749623805
30
0
0
VERTEX
8
0
10
48.9813333333334
20
27.9321354356867
30
0
0
VERTEX
8
0
10
49.5786666666667
20
28.1886399998314
30
0
0
VERTEX
8
0
10
50.176
20
28.3399339979304
30
0
0
VERTEX
8
0
10
50.7733333333334
20
28.5532856575441
30
0
0
VERTEX
8
0
10
51.3706666666667
20
28.7857663786538
30
0
0
VERTEX
8
0
10
51.968
20
28.9408182045647
30
0
0
VERTEX
8
0
10
52.5653333333334
20
29.1394465086916
30
0
0
VERTEX
8
0
10
53.1626666666667
20
29.363580681743
30
0
0
VERTEX
8
0
10
53.76
20
29.5210802230768
30
0
0
VERTEX
8
0
10
54.3573333333334
20
29.7132362126902
30
0
0
VERTEX
8
0
10
54.9546666666667
20
29.9222292781153
30
0
0
VERTEX
8
0
10
55.552
20
30.081056856346
30
0
0
VERTEX
8
0
10
56.1493333333334
20
30.2661880175868
30
0
0
VERTEX
8
0
10
56.7466666666667
20
30.4618729087827
30
0
0
VERTEX
8
0
10
57.344
20
30.621069017819
30
0
0
VERTEX
8
0
10
57.9413333333334
20
30.7987615776783
30
0
0
VERTEX
8
0
10
58.5386666666667
20
30.9826815915216
30
0
0
VERTEX
8
0
10
59.136
20
31.1414219665482
30
0
0
VERTEX
8
0
10
59.7333333333334
20
31.3113749594617
30
0
0
VERTEX
8
0
10
60.3306666666667
20
31.4848307435167
30
0
0
VERTEX
8
0
10
60.928
20
31.6424057331184
30
0
0
VERTEX
8
0
10
61.5253333333334
20
31.804410064417
30
0
0
VERTEX
8
0
10
62.1226666666667
20
31.9684982407747
30
0
0
VERTEX
8
0
10
62.72
20
32.1242956683186
30
0
0
VERTEX
8
0
10
63.3173333333334
20
32.2782171340514
30
0
0
VERTEX
8
0
10
63.9146666666667
20
32.4338621994808
30
0
0
VERTEX
8
0
10
64.512
20
32.5873530658916
30
0
0
VERTEX
8
0
10
65.1093333333334
20
32.7610943260481
30
0
0
VERTEX
8
0
10
65.7066666666667
20
32.8810993148822
30
0
0
VERTEX
8
0
10
66.304
20
33.0318258253734
30
0
0
VERTEX
8
0
10
66.9013333333334
20
33.1911826134816
30
0
0
VERTEX
8
0
10
67.4986666666667
20
33.3103836315725
30
0
0
VERTEX
8
0
10
68.096
20
33.4579491307209
30
0
0
VERTEX
8
0
10
68.6933333333334
20
33.604026805794
30
0
0
VERTEX
8
0
10
69.2906666666667
20
33.7218856480792
30
0
0
VERTEX
8
0
10
69.888
20
33.855956068588
30
0
0
VERTEX
8
0
10
70.4853333333334
20
33.9997285898102
30
0
0
VERTEX
8
0
10
71.0826666666667
20
34.1157716809082
30
0
0
VERTEX
8
0
10
71.68
20
34.24392319667
30
0
0
VERTEX
8
0
10
72.2773333333334
20
34.3783933337736
30
0
0
VERTEX
8
0
10
72.8746666666667
20
34.49220343006
30
0
0
VERTEX
8
0
10
73.4720000000001
20
34.614202203067
30
0
0
VERTEX
8
0
10
74.0693333333334
20
34.7401286264364
30
0
0
VERTEX
8
0
10
74.6666666666667
20
34.8513377013032
30
0
0
VERTEX
8
0
10
75.2640000000001
20
34.9670057069407
30
0
0
VERTEX
8
0
10
75.8613333333334
20
35.0850431224159
30
0
0
VERTEX
8
0
10
76.4586666666667
20
35.1933262502905
30
0
0
VERTEX
8
0
10
77.0560000000001
20
35.3025328181757
30
0
0
VERTEX
8
0
10
77.6533333333334
20
35.413245635953
30
0
0
VERTEX
8
0
10
78.2506666666667
20
35.5183157216302
30
0
0
VERTEX
8
0
10
78.848
20
35.6209703651519
30
0
0
VERTEX
8
0
10
79.4453333333334
20
35.7248444361462
30
0
0
VERTEX
8
0
10
80.0426666666667
20
35.8264476619045
30
0
0
VERTEX
8
0
10
80.64
20
35.9224939852492
30
0
0
VERTEX
8
0
10
81.2373333333334
20
36.0199467066685
30
0
0
VERTEX
8
0
10
81.8346666666667
20
36.1178585902976
30
0
0
VERTEX
8
0
10
82.432
20
36.2195896033776
30
0
0
VERTEX
8
0
10
83.0293333333334
20
36.2986581398784
30
0
0
VERTEX
8
0
10
83.6266666666667
20
36.3926801144642
30
0
0
VERTEX
8
0
10
84.224
20
36.4849588256764
30
0
0
VERTEX
8
0
10
84.8213333333334
20
36.5610826414558
30
0
0
VERTEX
8
0
10
85.4186666666667
20
36.6510390815074
30
0
0
VERTEX
8
0
10
86.016
20
36.7343763669947
30
0
0
VERTEX
8
0
10
86.6133333333334
20
36.8073221262449
30
0
0
VERTEX
8
0
10
87.2106666666667
20
36.8859480289038
30
0
0
VERTEX
8
0
10
87.8080000000001
20
36.9679175802653
30
0
0
VERTEX
8
0
10
88.4053333333334
20
37.0374763901327
30
0
0
VERTEX
8
0
10
89.0026666666667
20
37.1105845818197
30
0
0
VERTEX
8
0
10
89.6000000000001
20
37.1856582160673
30
0
0
VERTEX
8
0
10
90.1973333333334
20
37.2516430454442
30
0
0
VERTEX
8
0
10
90.7946666666667
20
37.3191332010041
30
0
0
VERTEX
8
0
10
91.3920000000001
20
37.3876740995741
30
0
0
VERTEX
8
0
10
91.9893333333334
20
37.4499175103348
30
0
0
VERTEX
8
0
10
92.5866666666667
20
37.5117158492129
30
0
0
VERTEX
8
0
10
93.1840000000001
20
37.5740408936965
30
0
0
VERTEX
8
0
10
93.7813333333334
20
37.6323930444363
30
0
0
VERTEX
8
0
10
94.3786666666667
20
37.6884488784662
30
0
0
VERTEX
8
0
10
94.9760000000001
20
37.7448339367196
30
0
0
VERTEX
8
0
10
95.5733333333334
20
37.799160824852
30
0
0
VERTEX
8
0
10
96.1706666666667
20
37.84944354901
30
0
0
VERTEX
8
0
10
96.7680000000001
20
37.9001281450741
30
0
0
VERTEX
8
0
10
97.3653333333334
20
37.9503100580326
30
0
0
VERTEX
8
0
10
97.9626666666667
20
37.9948065245865
30
0
0
VERTEX
8
0
10
98.5600000000001
20
38.0399979738055
30
0
0
VERTEX
8
0
10
99.1573333333334
20
38.0859281242034
30
0
0
VERTEX
8
0
10
99.7546666666667
20
38.130067828336
30
0
0
VERTEX
8
0
10
100.352
20
38.164517428954
30
0
0
VERTEX
8
0
10
100.949333333333
20
38.2061007521699
30
0
0
VERTEX
8
0
10
101.546666666667
20
38.2431482398464
30
0
0
VERTEX
8
0
10
102.144
20
38.2737601274868
30
0
0
VERTEX
8
0
10
102.741333333333
20
38.3109122228462
30
0
0
VERTEX
8
0
10
103.338666666667
20
38.3411370268282
30
0
0
VERTEX
8
0
10
103.936
20
38.367799401717
30
0
0
VERTEX
8
0
10
104.533333333333
20
38.3956856986808
30
0
0
VERTEX
8
0
10
105.130666666667
20
38.4240959331885
30
0
0
VERTEX
8
0
10
105.728
20
38.446708446107
30
0
0
VERTEX
8
0
10
106.325333333333
20
38.4694024765849
30
0
0
VERTEX
8
0
10
106.922666666667
20
38.492087679667
30
0
0
VERTEX
8
0
10
107.52
20
38.5105605056051
30
0
0
VERTEX
8
0
10
108.117333333333
20
38.528027685988
30
0
0
VERTEX
8
0
10
108.714666666667
20
38.5451760810962
30
0
0
VERTEX
8
0
10
109.312
20
38.5594291053162
30
0
0
VERTEX
8
0
10
109.909333333333
20
38.5716492054648
30
0
0
VERTEX
8
0
10
110.506666666667
20
38.5834262162168
30
0
0
VERTEX
8
0
10
111.104
20
38.5933883224653
30
0
0
VERTEX
8
0
10
111.701333333333
20
38.600353888534
30
0
0
VERTEX
8
0
10
112.298666666667
20
38.6069046501733
30
0
0
VERTEX
8
0
10
112.896
20
38.612513102281
30
0
0
VERTEX
8
0
10
113.493333333333
20
38.6142280703145
30
0
0
VERTEX
8
0
10
114.090666666667
20
38.6156797109212
30
0
0
VERTEX
8
0
10
114.688
20
38.6168796205054
30
0
0
VERTEX
8
0
10
115.285333333333
20
38.6133581011188
30
0
0
VERTEX
8
0
10
115.882666666667
20
38.6098218217745
30
0
0
VERTEX
8
0
10
116.48
20
38.6065656959984
30
0
0
VERTEX
8
0
10
117.077333333333
20
38.6000620689482
30
0
0
VERTEX
8
0
10
117.674666666667
20
38.5894038934747
30
0
0
VERTEX
8
0
10
118.272
20
38.5816512579467
30
0
0
VERTEX
8
0
10
118.869333333333
20
38.5693600986172
30
0
0
VERTEX
8
0
10
119.466666666667
20
38.5545017802382
30
0
0
VERTEX
8
0
10
120.064
20
38.542218873166
30
0
0
VERTEX
8
0
10
120.661333333333
20
38.524300894622
30
0
0
VERTEX
8
0
10
121.258666666667
20
38.5051948055663
30
0
0
VERTEX
8
0
10
121.856
20
38.4854438733538
30
0
0
VERTEX
8
0
10
122.453333333333
20
38.4649604613438
30
0
0
VERTEX
8
0
10
123.050666666667
20
38.441566364916
30
0
0
VERTEX
8
0
10
123.648
20
38.4169437997324
30
0
0
VERTEX
8
0
10
124.245333333333
20
38.3914197629891
30
0
0
VERTEX
8
0
10
124.842666666667
20
38.3637046139029
30
0
0
VERTEX
8
0
10
125.44
20
38.3342191672914
30
0
0
VERTEX
8
0
10
126.037333333333
20
38.3037654350208
30
0
0
VERTEX
8
0
10
126.634666666667
20
38.2717032524494
30
0
0
VERTEX
8
0
10
127.232
20
38.2373733562865
30
0
0
VERTEX
8
0
10
127.829333333333
20
38.2020906032309
30
0
0
VERTEX
8
0
10
128.426666666667
20
38.1656624173673
30
0
0
VERTEX
8
0
10
129.024
20
38.1265155879143
30
0
0
VERTEX
8
0
10
129.621333333333
20
38.0864958240658
30
0
0
VERTEX
8
0
10
130.218666666667
20
38.0456896981673
30
0
0
VERTEX
8
0
10
130.816
20
38.0017620640263
30
0
0
VERTEX
8
0
10
131.413333333333
20
37.9570901624857
30
0
0
VERTEX
8
0
10
132.010666666666
20
37.9119012937855
30
0
0
VERTEX
8
0
10
132.608
20
37.8632372454225
30
0
0
VERTEX
8
0
10
133.205333333333
20
37.8139924268425
30
0
0
VERTEX
8
0
10
133.802666666666
20
37.7644233311244
30
0
0
VERTEX
8
0
10
134.4
20
37.7118490911821
30
0
0
VERTEX
8
0
10
134.997333333333
20
37.6573325840635
30
0
0
VERTEX
8
0
10
135.594666666666
20
37.6033933703906
30
0
0
VERTEX
8
0
10
136.192
20
37.5459467087455
30
0
0
VERTEX
8
0
10
136.789333333333
20
37.4872533829394
30
0
0
VERTEX
8
0
10
137.386666666666
20
37.428962126978
30
0
0
VERTEX
8
0
10
137.984
20
37.3667696023134
30
0
0
VERTEX
8
0
10
138.581333333333
20
37.3039122189356
30
0
0
VERTEX
8
0
10
139.178666666666
20
37.2397887117691
30
0
0
VERTEX
8
0
10
139.776
20
37.1744826265872
30
0
0
VERTEX
8
0
10
140.373333333333
20
37.1074832806341
30
0
0
VERTEX
8
0
10
140.970666666666
20
37.0389756896623
30
0
0
VERTEX
8
0
10
141.568
20
36.9692692454016
30
0
0
VERTEX
8
0
10
142.165333333333
20
36.8981600263587
30
0
0
VERTEX
8
0
10
142.762666666666
20
36.8253342594201
30
0
0
VERTEX
8
0
10
143.36
20
36.7513342415047
30
0
0
VERTEX
8
0
10
143.957333333333
20
36.676158049915
30
0
0
VERTEX
8
0
10
144.554666666666
20
36.5990919668825
30
0
0
VERTEX
8
0
10
145.152
20
36.5209068631582
30
0
0
VERTEX
8
0
10
145.749333333333
20
36.4417184075643
30
0
0
VERTEX
8
0
10
146.346666666666
20
36.3605024641785
30
0
0
VERTEX
8
0
10
146.943999999999
20
36.2782444902145
30
0
0
VERTEX
8
0
10
147.541333333333
20
36.1951114950656
30
0
0
VERTEX
8
0
10
148.138666666666
20
36.1098496276903
30
0
0
VERTEX
8
0
10
148.735999999999
20
36.0236369221233
30
0
0
VERTEX
8
0
10
149.333333333333
20
35.9366415852685
30
0
0
VERTEX
8
0
10
149.930666666666
20
35.8474523744015
30
0
0
VERTEX
8
0
10
150.527999999999
20
35.7574114162007
30
0
0
VERTEX
8
0
10
151.125333333333
20
35.6666521649921
30
0
0
VERTEX
8
0
10
151.722666666666
20
35.5738515022575
30
0
0
VERTEX
8
0
10
152.319999999999
20
35.4799386386408
30
0
0
VERTEX
8
0
10
152.917333333333
20
35.3855322476034
30
0
0
VERTEX
8
0
10
153.514666666666
20
35.2890146697771
30
0
0
VERTEX
8
0
10
154.111999999999
20
35.1916397367567
30
0
0
VERTEX
8
0
10
154.709333333333
20
35.0937238886395
30
0
0
VERTEX
8
0
10
155.306666666666
20
34.9936860064991
30
0
0
SEQEND
8
0
0
POLYLINE
8
0
62
3
70
0
10
0
20
0
30
0
0
VERTEX
8
0
10
10.752
20
9.14820154004313
30
0
0
VERTEX
8
0
10
11.3493333333333
20
10.923938561044
30
0
0
VERTEX
8
0
10
11.9466666666667
20
12.2967915473621
30
0
0
VERTEX
8
0
10
12.544
20
13.1466643017
30
0
0
VERTEX
8
0
10
13.1413333333333
20
15.2681005655523
30
0
0
VERTEX
8
0
10
13.7386666666667
20
15.4221316537745
30
0
0
VERTEX
8
0
10
14.336
20
16.2652666750711
30
0
0
VERTEX
8
0
10
14.9333333333333
20
17.8285791685472
30
0
0
VERTEX
8
0
10
15.5306666666667
20
18.1485279976184
30
0
0
VERTEX
8
0
10
16.128
20
18.9881430313282
30
0
0
VERTEX
8
0
10
16.7253333333333
20
20.2201764739588
30
0
0
VERTEX
8
0
10
17.3226666666667
20
20.6483218420569
30
0
0
VERTEX
8
0
10
17.92
20
21.4790625912105
30
0
0
VERTEX
8
0
10
18.5173333333333
20
22.4971499719693
30
0
0
VERTEX
8
0
10
19.1146666666667
20
22.996927790502
30
0
0
VERTEX
8
0
10
19.712
20
23.788758545517
30
0
0
VERTEX
8
0
10
20.3093333333333
20
24.6864167333472
30
0
0
VERTEX
8
0
10
20.9066666666667
20
25.2337503251007
30
0
0
VERTEX
8
0
10
21.504
20
25.9907414205657
30
0
0
VERTEX
8
0
10
22.1013333333333
20
26.8032655704779
30
0
0
VERTEX
8
0
10
22.6986666666667
20
27.3818217508588
30
0
0
VERTEX
8
0
10
23.296
20
28.1069276249451
30
0
0
VERTEX
8
0
10
23.8933333333333
20
28.8572864192353
30
0
0
VERTEX
8
0
10
24.4906666666667
20
29.455707512586
30
0
0
VERTEX
8
0
10
25.088
20
30.1512773479135
30
0
0
VERTEX
8
0
10
25.6853333333333
20
30.8549580553792
30
0
0
VERTEX
8
0
10
26.2826666666667
20
31.4651790072468
30
0
0
VERTEX
8
0
10
26.88
20
32.1331795731612
30
0
0
VERTEX
8
0
10
27.4773333333333
20
32.8009114402492
30
0
0
VERTEX
8
0
10
28.0746666666667
20
33.4171023368556
30
0
0
VERTEX
8
0
10
28.672
20
34.0592295162136
30
0
0
VERTEX
8
0
10
29.2693333333333
20
34.6986043544234
30
0
0
VERTEX
8
0
10
29.8666666666667
20
35.3164867346089
30
0
0
VERTEX
8
0
10
30.464
20
36.0391564607665
30
0
0
VERTEX
8
0
10
31.0613333333333
20
36.5507089454654
30
0
0
VERTEX
8
0
10
31.6586666666667
20
37.1671025431409
30
0
0
VERTEX
8
0
10
32.256
20
37.8383371536687
30
0
0
VERTEX
8
0
10
32.8533333333333
20
38.3593481553375
30
0
0
VERTEX
8
0
10
33.4506666666667
20
38.971863635159
30
0
0
VERTEX
8
0
10
34.048
20
39.5996671590056
30
0
0
VERTEX
8
0
10
34.6453333333333
20
40.1262473376644
30
0
0
VERTEX
8
0
10
35.2426666666667
20
40.7095294385446
30
0
0
VERTEX
8
0
10
35.84
20
41.3237579595686
30
0
0
VERTEX
8
0
10
36.4373333333333
20
41.8528356287774
30
0
0
VERTEX
8
0
10
37.0346666666667
20
42.4225979726396
30
0
0
VERTEX
8
0
10
37.632
20
43.0111848489456
30
0
0
VERTEX
8
0
10
38.2293333333334
20
43.5403161442754
30
0
0
VERTEX
8
0
10
38.8266666666667
20
44.0959264316895
30
0
0
VERTEX
8
0
10
39.424
20
44.6624883809027
30
0
0
VERTEX
8
0
10
40.0213333333334
20
45.189716055267
30
0
0
VERTEX
8
0
10
40.6186666666667
20
45.7307836559682
30
0
0
VERTEX
8
0
10
41.216
20
46.27817588899
30
0
0
VERTEX
8
0
10
41.8133333333334
20
46.8019232299516
30
0
0
VERTEX
8
0
10
42.4106666666667
20
47.3282349103821
30
0
0
VERTEX
8
0
10
43.008
20
47.8587232723307
30
0
0
VERTEX
8
0
10
43.6053333333334
20
48.3777136385526
30
0
0
VERTEX
8
0
10
44.2026666666667
20
48.8891868334012
30
0
0
VERTEX
8
0
10
44.8
20
49.4045770146614
30
0
0
VERTEX
8
0
10
45.3973333333334
20
49.9177722439025
30
0
0
VERTEX
8
0
10
45.9946666666667
20
50.4144207630147
30
0
0
VERTEX
8
0
10
46.592
20
50.9161563423637
30
0
0
VERTEX
8
0
10
47.1893333333334
20
51.4227091948796
30
0
0
VERTEX
8
0
10
47.7866666666667
20
51.9290640249118
30
0
0
VERTEX
8
0
10
48.384
20
52.3938554287211
30
0
0
VERTEX
8
0
10
48.9813333333334
20
52.8930725663871
30
0
0
VERTEX
8
0
10
49.5786666666667
20
53.37774712004
30
0
0
VERTEX
8
0
10
50.176
20
53.8380455717221
30
0
0
VERTEX
8
0
10
50.7733333333334
20
54.3293585164139
30
0
0
VERTEX
8
0
10
51.3706666666667
20
54.7941130567577
30
0
0
VERTEX
8
0
10
51.968
20
55.2490772951944
30
0
0
VERTEX
8
0
10
52.5653333333334
20
55.7115454436159
30
0
0
VERTEX
8
0
10
53.1626666666667
20
56.1783603147179
30
0
0
VERTEX
8
0
10
53.76
20
56.6272823421062
30
0
0
VERTEX
8
0
10
54.3573333333334
20
57.0779424546509
30
0
0
VERTEX
8
0
10
54.9546666666667
20
57.5306927011162
30
0
0
VERTEX
8
0
10
55.552
20
57.9729755434231
30
0
0
VERTEX
8
0
10
56.1493333333334
20
58.4116196830767
30
0
0
VERTEX
8
0
10
56.7466666666667
20
58.8513169328659
30
0
0
VERTEX
8
0
10
57.344
20
59.286456555933
30
0
0
VERTEX
8
0
10
57.9413333333334
20
59.7129524890672
30
0
0
VERTEX
8
0
10
58.5386666666667
20
60.1404409382573
30
0
0
VERTEX
8
0
10
59.136
20
60.5680114696506
30
0
0
VERTEX
8
0
10
59.7333333333334
20
60.9822880886484
30
0
0
VERTEX
8
0
10
60.3306666666667
20
61.3982726946062
30
0
0
VERTEX
8
0
10
60.928
20
61.8179142896075
30
0
0
VERTEX
8
0
10
61.5253333333334
20
62.2199499283959
30
0
0
VERTEX
8
0
10
62.1226666666667
20
62.6250194657996
30
0
0
VERTEX
8
0
10
62.72
20
63.0364282995842
30
0
0
VERTEX
8
0
10
63.3173333333334
20
63.4262413277723
30
0
0
VERTEX
8
0
10
63.9146666666667
20
63.8208873383354
30
0
0
VERTEX
8
0
10
64.512
20
64.2238073165982
30
0
0
VERTEX
8
0
10
65.1093333333334
20
64.6054821351561
30
0
0
VERTEX
8
0
10
65.7066666666667
20
64.9860809802356
30
0
0
VERTEX
8
0
10
66.304
20
65.3802968457665
30
0
0
VERTEX
8
0
10
66.9013333333334
20
65.747806534667
30
0
0
VERTEX
8
0
10
67.4986666666667
20
66.1208035663823
30
0
0
VERTEX
8
0
10
68.096
20
66.5061351448813
30
0
0
VERTEX
8
0
10
68.6933333333334
20
66.8601234844854
30
0
0
VERTEX
8
0
10
69.2906666666667
20
67.2252568280566
30
0
0
VERTEX
8
0
10
69.888
20
67.5853961037608
30
0
0
VERTEX
8
0
10
70.4853333333334
20
67.9425956799074
30
0
0
VERTEX
8
0
10
71.0826666666667
20
68.2996411951294
30
0
0
VERTEX
8
0
10
71.68
20
68.6488658705959
30
0
0
VERTEX
8
0
10
72.2773333333334
20
68.995389536367
30
0
0
VERTEX
8
0
10
72.8746666666667
20
69.3441560072835
30
0
0
VERTEX
8
0
10
73.4720000000001
20
69.6824286032008
30
0
0
VERTEX
8
0
10
74.0693333333334
20
70.0186747319849
30
0
0
VERTEX
8
0
10
74.6666666666667
20
70.3589997767552
30
0
0
VERTEX
8
0
10
75.2640000000001
20
70.6863134422887
30
0
0
VERTEX
8
0
10
75.8613333333334
20
71.0126239048316
30
0
0
VERTEX
8
0
10
76.4586666666667
20
71.3443704894861
30
0
0
VERTEX
8
0
10
77.0560000000001
20
71.660744356738
30
0
0
VERTEX
8
0
10
77.6533333333334
20
71.9774124748459
30
0
0
VERTEX
8
0
10
78.2506666666667
20
72.3004659351232
30
0
0
VERTEX
8
0
10
78.848
20
72.605941210679
30
0
0
VERTEX
8
0
10
79.4453333333334
20
72.9132185665036
30
0
0
VERTEX
8
0
10
80.0426666666667
20
73.2274840588286
30
0
0
VERTEX
8
0
10
80.64
20
73.5221207288659
30
0
0
VERTEX
8
0
10
81.2373333333334
20
73.8202230137828
30
0
0
VERTEX
8
0
10
81.8346666666667
20
74.1256233298135
30
0
0
VERTEX
8
0
10
82.432
20
74.4073463586161
30
0
0
VERTEX
8
0
10
83.0293333333334
20
74.6986094327388
30
0
0
VERTEX
8
0
10
83.6266666666667
20
74.9950831231687
30
0
0
VERTEX
8
0
10
84.224
20
75.265694757338
30
0
0
VERTEX
8
0
10
84.8213333333334
20
75.5485643503239
30
0
0
VERTEX
8
0
10
85.4186666666667
20
75.8360641123951
30
0
0
VERTEX
8
0
10
86.016
20
76.0958798717997
30
0
0
VERTEX
8
0
10
86.6133333333334
20
76.370277380494
30
0
0
VERTEX
8
0
10
87.2106666666667
20
76.6366391821546
30
0
0
VERTEX
8
0
10
87.8080000000001
20
76.8980793849772
30
0
0
VERTEX
8
0
10
88.4053333333334
20
77.1639414408033
30
0
0
VERTEX
8
0
10
89.0026666666667
20
77.4202247602239
30
0
0
VERTEX
8
0
10
89.6000000000001
20
77.6724759315628
30
0
0
VERTEX
8
0
10
90.1973333333334
20
77.9297530040503
30
0
0
VERTEX
8
0
10
90.7946666666667
20
78.176000885626
30
0
0
VERTEX
8
0
10
91.3920000000001
20
78.4192571934214
30
0
0
VERTEX
8
0
10
91.9893333333334
20
78.6679123810628
30
0
0
VERTEX
8
0
10
92.5866666666667
20
78.9041831228501
30
0
0
VERTEX
8
0
10
93.1840000000001
20
79.1386160474595
30
0
0
VERTEX
8
0
10
93.7813333333334
20
79.3786240315849
30
0
0
VERTEX
8
0
10
94.3786666666667
20
79.604989369681
30
0
0
VERTEX
8
0
10
94.9760000000001
20
79.8307507601097
30
0
0
VERTEX
8
0
10
95.5733333333334
20
80.0620969011429
30
0
0
VERTEX
8
0
10
96.1706666666667
20
80.2786404441351
30
0
0
VERTEX
8
0
10
96.7680000000001
20
80.4958652239158
30
0
0
VERTEX
8
0
10
97.3653333333334
20
80.7185447824538
30
0
0
VERTEX
8
0
10
97.9626666666667
20
80.9253606617161
30
0
0
VERTEX
8
0
10
98.5600000000001
20
81.1341692327519
30
0
0
VERTEX
8
0
10
99.1573333333334
20
81.3481867004757
30
0
0
VERTEX
8
0
10
99.7546666666667
20
81.5417926773408
30
0
0
VERTEX
8
0
10
100.352
20
81.7458787930892
30
0
0
VERTEX
8
0
10
100.949333333333
20
81.9512473207383
30
0
0
VERTEX
8
0
10
101.546666666667
20
82.1354739130774
30
0
0
VERTEX
8
0
10
102.144
20
82.3312164694656
30
0
0
VERTEX
8
0
10
102.741333333333
20
82.5279573808102
30
0
0
VERTEX
8
0
10
103.338666666667
20
82.7030047245439
30
0
0
VERTEX
8
0
10
103.936
20
82.8904117629678
30
0
0
VERTEX
8
0
10
104.533333333333
20
83.0700025470519
30
0
0
VERTEX
8
0
10
105.130666666667
20
83.2446131439182
30
0
0
VERTEX
8
0
10
105.728
20
83.4237015220035
30
0
0
VERTEX
8
0
10
106.325333333333
20
83.59414636856
30
0
0
VERTEX
8
0
10
106.922666666667
20
83.7605353989761
30
0
0
VERTEX
8
0
10
107.52
20
83.9313303852387
30
0
0
VERTEX
8
0
10
108.117333333333
20
84.0927241999758
30
0
0
VERTEX
8
0
10
108.714666666667
20
84.2510163199535
30
0
0
VERTEX
8
0
10
109.312
20
84.4135512568444
30
0
0
VERTEX
8
0
10
109.909333333333
20
84.5659984256558
30
0
0
VERTEX
8
0
10
110.506666666667
20
84.7163097855754
30
0
0
VERTEX
8
0
10
111.104
20
84.8706258147159
30
0
0
VERTEX
8
0
10
111.701333333333
20
85.0142394469081
30
0
0
VERTEX
8
0
10
112.298666666667
20
85.1566792082712
30
0
0
VERTEX
8
0
10
112.896
20
85.3028250525542
30
0
0
VERTEX
8
0
10
113.493333333333
20
85.4377263306574
30
0
0
VERTEX
8
0
10
114.090666666667
20
85.5723980590563
30
0
0
VERTEX
8
0
10
114.688
20
85.710429857132
30
0
0
VERTEX
8
0
10
115.285333333333
20
85.8367474819378
30
0
0
VERTEX
8
0
10
115.882666666667
20
85.9637504329587
30
0
0
VERTEX
8
0
10
116.48
20
86.0937316222973
30
0
0
VERTEX
8
0
10
117.077333333333
20
86.2084156297722
30
0
0
VERTEX
8
0
10
117.674666666667
20
86.3310316562762
30
0
0
VERTEX
8
0
10
118.272
20
86.4530329016056
30
0
0
VERTEX
8
0
10
118.869333333333
20
86.5597026686675
30
0
0
VERTEX
8
0
10
119.466666666667
20
86.6745489373123
30
0
0
VERTEX
8
0
10
120.064
20
86.7886481017501
30
0
0
VERTEX
8
0
10
120.661333333333
20
86.8874726113337
30
0
0
VERTEX
8
0
10
121.258666666667
20
86.9946220626488
30
0
0
VERTEX
8
0
10
121.856
20
87.095448844002
30
0
0
VERTEX
8
0
10
122.453333333333
20
87.1920507555298
30
0
0
VERTEX
8
0
10
123.050666666667
20
87.2915841413868
30
0
0
VERTEX
8
0
10
123.648
20
87.3844250185577
30
0
0
VERTEX
8
0
10
124.245333333333
20
87.4737764829815
30
0
0
VERTEX
8
0
10
124.842666666667
20
87.5657824002056
30
0
0
VERTEX
8
0
10
125.44
20
87.6507817586325
30
0
0
VERTEX
8
0
10
126.037333333333
20
87.733004067685
30
0
0
VERTEX
8
0
10
126.634666666667
20
87.8175790325314
30
0
0
VERTEX
8
0
10
127.232
20
87.8948892632482
30
0
0
VERTEX
8
0
10
127.829333333333
20
87.9701035429509
30
0
0
VERTEX
8
0
10
128.426666666667
20
88.0473521056122
30
0
0
VERTEX
8
0
10
129.024
20
88.1171333847632
30
0
0
VERTEX
8
0
10
129.621333333333
20
88.1854616310944
30
0
0
VERTEX
8
0
10
130.218666666667
20
88.2554965298075
30
0
0
VERTEX
8
0
10
130.816
20
88.3179166602779
30
0
0
VERTEX
8
0
10
131.413333333333
20
88.3794827402992
30
0
0
VERTEX
8
0
10
132.010666666666
20
88.442425095081
30
0
0
VERTEX
8
0
10
132.608
20
88.497659407081
30
0
0
VERTEX
8
0
10
133.205333333333
20
88.5525900339093
30
0
0
VERTEX
8
0
10
133.802666666666
20
88.6085695803526
30
0
0
VERTEX
8
0
10
134.4
20
88.6546889110919
30
0
0
VERTEX
8
0
10
134.997333333333
20
88.705226578254
30
0
0
VERTEX
8
0
10
135.594666666666
20
88.7543819422903
30
0
0
VERTEX
8
0
10
136.192
20
88.7939593564014
30
0
0
VERTEX
8
0
10
136.789333333333
20
88.8378565760906
30
0
0
VERTEX
8
0
10
137.386666666666
20
88.8803355911251
30
0
0
VERTEX
8
0
10
137.984
20
88.9135614780417
30
0
0
VERTEX
8
0
10
138.581333333333
20
88.9509666940031
30
0
0
VERTEX
8
0
10
139.178666666666
20
88.9840237840461
30
0
0
VERTEX
8
0
10
139.776
20
89.01399572869
30
0
0
VERTEX
8
0
10
140.373333333333
20
89.0450674935647
30
0
0
VERTEX
8
0
10
140.970666666666
20
89.0717263984023
30
0
0
VERTEX
8
0
10
141.568
20
89.0957875799534
30
0
0
VERTEX
8
0
10
142.165333333333
20
89.1206949779798
30
0
0
VERTEX
8
0
10
142.762666666666
20
89.141167175354
30
0
0
VERTEX
8
0
10
143.36
20
89.1594891435433
30
0
0
VERTEX
8
0
10
143.957333333333
20
89.178412268287
30
0
0
VERTEX
8
0
10
144.554666666666
20
89.1929190612732
30
0
0
VERTEX
8
0
10
145.152
20
89.2056809339268
30
0
0
VERTEX
8
0
10
145.749333333333
20
89.2188114263132
30
0
0
VERTEX
8
0
10
146.346666666666
20
89.227584211556
30
0
0
VERTEX
8
0
10
146.943999999999
20
89.2349737921246
30
0
0
VERTEX
8
0
10
147.541333333333
20
89.2425154455914
30
0
0
VERTEX
8
0
10
148.138666666666
20
89.245796059241
30
0
0
VERTEX
8
0
10
148.735999999999
20
89.2480109952063
30
0
0
VERTEX
8
0
10
149.333333333333
20
89.2501804368423
30
0
0
VERTEX
8
0
10
149.930666666666
20
89.2482215861963
30
0
0
VERTEX
8
0
10
150.527999999999
20
89.2454705826168
30
0
0
VERTEX
8
0
10
151.125333333333
20
89.2424980418746
30
0
0
VERTEX
8
0
10
151.722666666666
20
89.2346027090097
30
0
0
VERTEX
8
0
10
152.319999999999
20
89.2280679394376
30
0
0
VERTEX
8
0
10
152.917333333333
20
89.2201981197683
30
0
0
VERTEX
8
0
10
153.514666666666
20
89.2077777235827
30
0
0
VERTEX
8
0
10
154.111999999999
20
89.1965586891795
30
0
0
VERTEX
8
0
10
154.709333333333
20
89.1840517631635
30
0
0
VERTEX
8
0
10
155.306666666666
20
89.1673779583302
30
0
0
SEQEND
8
0
0
POLYLINE
8
0
62
4
70
0
10
0
20
0
30
0
0
VERTEX
8
0
10
10.752
20
9.17545467752881
30
0
0
VERTEX
8
0
10
11.3493333333333
20
10.4217223494464
30
0
0
VERTEX
8
0
10
11.9466666666667
20
11.1948464698174
30
0
0
VERTEX
8
0
10
12.544
20
11.986199650917
30
0
0
VERTEX
8
0
10
13.1413333333333
20
12.7192482889444
30
0
0
VERTEX
8
0
10
13.7386666666667
20
13.4987943622051
30
0
0
VERTEX
8
0
10
14.336
20
14.2819448586425
30
0
0
VERTEX
8
0
10
14.9333333333333
20
15.0085722396644
30
0
0
VERTEX
8
0
10
15.5306666666667
20
15.7812679720342
30
0
0
VERTEX
8
0
10
16.128
20
16.5554967969105
30
0
0
VERTEX
8
0
10
16.7253333333333
20
17.263640076665
30
0
0
VERTEX
8
0
10
17.3226666666667
20
18.0185395111265
30
0
0
VERTEX
8
0
10
17.92
20
18.7520126647047
30
0
0
VERTEX
8
0
10
18.5173333333333
20
19.4734082565833
30
0
0
VERTEX
8
0
10
19.1146666666667
20
20.2116194566884
30
0
0
VERTEX
8
0
10
19.712
20
20.9234261747765
30
0
0
VERTEX
8
0
10
20.3093333333333
20
21.6261484210577
30
0
0
VERTEX
8
0
10
20.9066666666667
20
22.3513131673577
30
0
0
VERTEX
8
0
10
21.504
20
23.051614188776
30
0
0
VERTEX
8
0
10
22.1013333333333
20
23.7353369917674
30
0
0
VERTEX
8
0
10
22.6986666666667
20
24.4423659463076
30
0
0
VERTEX
8
0
10
23.296
20
25.122906814779
30
0
0
VERTEX
8
0
10
23.8933333333333
20
25.8009162664508
30
0
0
VERTEX
8
0
10
24.4906666666667
20
26.5027400756924
30
0
0
VERTEX
8
0
10
25.088
20
27.1774978721587
30
0
0
VERTEX
8
0
10
25.6853333333333
20
27.8530834875936
30
0
0
VERTEX
8
0
10
26.2826666666667
20
28.5467913983971
30
0
0
VERTEX
8
0
10
26.88
20
29.2115194826421
30
0
0
VERTEX
8
0
10
27.4773333333333
20
29.878685862657
30
0
0
VERTEX
8
0
10
28.0746666666667
20
30.5628709462695
30
0
0
VERTEX
8
0
10
28.672
20
31.2168352564552
30
0
0
VERTEX
8
0
10
29.2693333333333
20
31.8777567550325
30
0
0
VERTEX
8
0
10
29.8666666666667
20
32.558114775834
30
0
0
VERTEX
8
0
10
30.464
20
33.1926205230077
30
0
0
VERTEX
8
0
10
31.0613333333333
20
33.8658685806591
30
0
0
VERTEX
8
0
10
31.6586666666667
20
34.5381714012511
30
0
0
VERTEX
8
0
10
32.256
20
35.17613300614
30
0
0
VERTEX
8
0
10
32.8533333333333
20
35.8597265354164
30
0
0
VERTEX
8
0
10
33.4506666666667
20
36.5425411409263
30
0
0
VERTEX
8
0
10
34.048
20
37.1808285929792
30
0
0
VERTEX
8
0
10
34.6453333333333
20
37.8576094624385
30
0
0
VERTEX
8
0
10
35.2426666666667
20
38.5220811252804
30
0
0
VERTEX
8
0
10
35.84
20
39.1756707861881
30
0
0
VERTEX
8
0
10
36.4373333333333
20
39.8504304083681
30
0
0
VERTEX
8
0
10
37.0346666666667
20
40.5061716247259
30
0
0
VERTEX
8
0
10
37.632
20
41.1510145123902
30
0
0
VERTEX
8
0
10
38.2293333333334
20
41.8143236729224
30
0
0
VERTEX
8
0
10
38.8266666666667
20
42.457399828268
30
0
0
VERTEX
8
0
10
39.424
20
43.0959673088066
30
0
0
VERTEX
8
0
10
40.0213333333334
20
43.7524921610292
30
0
0
VERTEX
8
0
10
40.6186666666667
20
44.3692503452447
30
0
0
VERTEX
8
0
10
41.216
20
44.9888638145984
30
0
0
VERTEX
8
0
10
41.8133333333334
20
45.6247749750614
30
0
0
VERTEX
8
0
10
42.4106666666667
20
46.2382030929818
30
0
0
VERTEX
8
0
10
43.008
20
46.8403677087825
30
0
0
VERTEX
8
0
10
43.6053333333334
20
47.456528927786
30
0
0
VERTEX
8
0
10
44.2026666666667
20
48.0491359846551
30
0
0
VERTEX
8
0
10
44.8
20
48.6446908105594
30
0
0
VERTEX
8
0
10
45.3973333333334
20
49.2608555593691
30
0
0
VERTEX
8
0
10
45.9946666666667
20
49.8593007153777
30
0
0
VERTEX
8
0
10
46.592
20
50.4632040570855
30
0
0
VERTEX
8
0
10
47.1893333333334
20
51.0790572843832
30
0
0
VERTEX
8
0
10
47.7866666666667
20
51.6576843588596
30
0
0
VERTEX
8
0
10
48.384
20
52.2365407690705
30
0
0
VERTEX
8
0
10
48.9813333333334
20
52.8167605274787
30
0
0
VERTEX
8
0
10
49.5786666666667
20
53.3600764233079
30
0
0
VERTEX
8
0
10
50.176
20
53.9346195417725
30
0
0
VERTEX
8
0
10
50.7733333333334
20
54.4768912427482
30
0
0
VERTEX
8
0
10
51.3706666666667
20
54.9687369896722
30
0
0
VERTEX
8
0
10
51.968
20
55.4912891702103
30
0
0
VERTEX
8
0
10
52.5653333333334
20
55.9984788020079
30
0
0
VERTEX
8
0
10
53.1626666666667
20
56.4967000724832
30
0
0
VERTEX
8
0
10
53.76
20
56.9933910662995
30
0
0
VERTEX
8
0
10
54.3573333333334
20
57.4776466501928
30
0
0
VERTEX
8
0
10
54.9546666666667
20
57.9552438792158
30
0
0
VERTEX
8
0
10
55.552
20
58.4482833608549
30
0
0
VERTEX
8
0
10
56.1493333333334
20
58.9162934337979
30
0
0
VERTEX
8
0
10
56.7466666666667
20
59.3785264185356
30
0
0
VERTEX
8
0
10
57.344
20
59.854902252879
30
0
0
VERTEX
8
0
10
57.9413333333334
20
60.3131861942532
30
0
0
VERTEX
8
0
10
58.5386666666667
20
60.7692375962454
30
0
0
VERTEX
8
0
10
59.136
20
61.2212863173943
30
0
0
VERTEX
8
0
10
59.7333333333334
20
61.6595218196096
30
0
0
VERTEX
8
0
10
60.3306666666667
20
62.0976347663887
30
0
0
VERTEX
8
0
10
60.928
20
62.5473690773692
30
0
0
VERTEX
8
0
10
61.5253333333334
20
62.9615304513188
30
0
0
VERTEX
8
0
10
62.1226666666667
20
63.3778423835758
30
0
0
VERTEX
8
0
10
62.72
20
63.8045762543902
30
0
0
VERTEX
8
0
10
63.3173333333334
20
64.2108897343068
30
0
0
VERTEX
8
0
10
63.9146666666667
20
64.6164384552172
30
0
0
VERTEX
8
0
10
64.512
20
65.028075235531
30
0
0
VERTEX
8
0
10
65.1093333333334
20
65.4085785566806
30
0
0
VERTEX
8
0
10
65.7066666666667
20
65.8149004545681
30
0
0
VERTEX
8
0
10
66.304
20
66.219274491823
30
0
0
VERTEX
8
0
10
66.9013333333334
20
66.5655776590517
30
0
0
VERTEX
8
0
10
67.4986666666667
20
66.9414835103636
30
0
0
VERTEX
8
0
10
68.096
20
67.3154826877378
30
0
0
VERTEX
8
0
10
68.6933333333334
20
67.6592950887328
30
0
0
VERTEX
8
0
10
69.2906666666667
20
68.0213362484513
30
0
0
VERTEX
8
0
10
69.888
20
68.3682831665178
30
0
0
VERTEX
8
0
10
70.4853333333334
20
68.7075758826939
30
0
0
VERTEX
8
0
10
71.0826666666667
20
69.0604804329492
30
0
0
VERTEX
8
0
10
71.68
20
69.3997012231518
30
0
0
VERTEX
8
0
10
72.2773333333334
20
69.7042376951361
30
0
0
VERTEX
8
0
10
72.8746666666667
20
70.0286836875354
30
0
0
VERTEX
8
0
10
73.4720000000001
20
70.3388210356283
30
0
0
VERTEX
8
0
10
74.0693333333334
20
70.6451331225865
30
0
0
VERTEX
8
0
10
74.6666666666667
20
70.9628339677138
30
0
0
VERTEX
8
0
10
75.2640000000001
20
71.2655436230867
30
0
0
VERTEX
8
0
10
75.8613333333334
20
71.5661920343402
30
0
0
VERTEX
8
0
10
76.4586666666667
20
71.8771092693407
30
0
0
VERTEX
8
0
10
77.0560000000001
20
72.1705173625373
30
0
0
VERTEX
8
0
10
77.6533333333334
20
72.4617233301695
30
0
0
VERTEX
8
0
10
78.2506666666667
20
72.7621251007044
30
0
0
VERTEX
8
0
10
78.848
20
73.0463260062118
30
0
0
VERTEX
8
0
10
79.4453333333334
20
73.3318033415564
30
0
0
VERTEX
8
0
10
80.0426666666667
20
73.6187397467678
30
0
0
VERTEX
8
0
10
80.64
20
73.8894873855724
30
0
0
VERTEX
8
0
10
81.2373333333334
20
74.1630916401959
30
0
0
VERTEX
8
0
10
81.8346666666667
20
74.443832758324
30
0
0
VERTEX
8
0
10
82.432
20
74.6902901414038
30
0
0
VERTEX
8
0
10
83.0293333333334
20
74.9529206085603
30
0
0
VERTEX
8
0
10
83.6266666666667
20
75.2136466114615
30
0
0
VERTEX
8
0
10
84.224
20
75.4495693738812
30
0
0
VERTEX
8
0
10
84.8213333333334
20
75.7056557792478
30
0
0
VERTEX
8
0
10
85.4186666666667
20
75.9688151569734
30
0
0
VERTEX
8
0
10
86.016
20
76.2058178333911
30
0
0
VERTEX
8
0
10
86.6133333333334
20
76.4624637228623
30
0
0
VERTEX
8
0
10
87.2106666666667
20
76.7084216361212
30
0
0
VERTEX
8
0
10
87.8080000000001
20
76.9499071767214
30
0
0
VERTEX
8
0
10
88.4053333333334
20
77.2022337583057
30
0
0
VERTEX
8
0
10
89.0026666666667
20
77.4433343321285
30
0
0
VERTEX
8
0
10
89.6000000000001
20
77.679512999607
30
0
0
VERTEX
8
0
10
90.1973333333334
20
77.9251142597197
30
0
0
VERTEX
8
0
10
90.7946666666667
20
78.154010582989
30
0
0
VERTEX
8
0
10
91.3920000000001
20
78.3809288547535
30
0
0
VERTEX
8
0
10
91.9893333333334
20
78.6163027696156
30
0
0
VERTEX
8
0
10
92.5866666666667
20
78.8395410185637
30
0
0
VERTEX
8
0
10
93.1840000000001
20
79.0770193264038
30
0
0
VERTEX
8
0
10
93.7813333333334
20
79.3220436259897
30
0
0
VERTEX
8
0
10
94.3786666666667
20
79.5544904034489
30
0
0
VERTEX
8
0
10
94.9760000000001
20
79.7861620672736
30
0
0
VERTEX
8
0
10
95.5733333333334
20
80.0102877106383
30
0
0
VERTEX
8
0
10
96.1706666666667
20
80.2111895630167
30
0
0
VERTEX
8
0
10
96.7680000000001
20
80.4126372439493
30
0
0
VERTEX
8
0
10
97.3653333333334
20
80.6198366315292
30
0
0
VERTEX
8
0
10
97.9626666666667
20
80.8138778993337
30
0
0
VERTEX
8
0
10
98.5600000000001
20
81.0002924240751
30
0
0
VERTEX
8
0
10
99.1573333333334
20
81.1929334864879
30
0
0
VERTEX
8
0
10
99.7546666666667
20
81.3660387311765
30
0
0
VERTEX
8
0
10
100.352
20
81.5542529632716
30
0
0
VERTEX
8
0
10
100.949333333333
20
81.7396363757328
30
0
0
VERTEX
8
0
10
101.546666666667
20
81.9057137743213
30
0
0
VERTEX
8
0
10
102.144
20
82.0864037358899
30
0
0
VERTEX
8
0
10
102.741333333333
20
82.2651073310357
30
0
0
VERTEX
8
0
10
103.338666666667
20
82.4253316142805
30
0
0
VERTEX
8
0
10
103.936
20
82.6250387863854
30
0
0
VERTEX
8
0
10
104.533333333333
20
82.8101383890726
30
0
0
VERTEX
8
0
10
105.130666666667
20
82.9899848158871
30
0
0
VERTEX
8
0
10
105.728
20
83.1769889374722
30
0
0
VERTEX
8
0
10
106.325333333333
20
83.3461230465197
30
0
0
VERTEX
8
0
10
106.922666666667
20
83.5102162329688
30
0
0
VERTEX
8
0
10
107.52
20
83.6806736947122
30
0
0
VERTEX
8
0
10
108.117333333333
20
83.8421646708032
30
0
0
VERTEX
8
0
10
108.714666666667
20
84.0006903668593
30
0
0
VERTEX
8
0
10
109.312
20
84.1532002041102
30
0
0
VERTEX
8
0
10
109.909333333333
20
84.3003339083086
30
0
0
VERTEX
8
0
10
110.506666666667
20
84.4455444843157
30
0
0
VERTEX
8
0
10
111.104
20
84.5956169720891
30
0
0
VERTEX
8
0
10
111.701333333333
20
84.7363309594457
30
0
0
VERTEX
8
0
10
112.298666666667
20
84.8760650164302
30
0
0
VERTEX
8
0
10
112.896
20
85.0199539479524
30
0
0
VERTEX
8
0
10
113.493333333333
20
85.1543336347284
30
0
0
VERTEX
8
0
10
114.090666666667
20
85.2886038480522
30
0
0
VERTEX
8
0
10
114.688
20
85.4263603460294
30
0
0
VERTEX
8
0
10
115.285333333333
20
85.5544956918953
30
0
0
VERTEX
8
0
10
115.882666666667
20
85.6833197173482
30
0
0
VERTEX
8
0
10
116.48
20
85.8150000425955
30
0
0
VERTEX
8
0
10
117.077333333333
20
85.9327873901523
30
0
0
VERTEX
8
0
10
117.674666666667
20
86.0603860193558
30
0
0
VERTEX
8
0
10
118.272
20
86.1860515694357
30
0
0
VERTEX
8
0
10
118.869333333333
20
86.2983561969239
30
0
0
VERTEX
8
0
10
119.466666666667
20
86.4243977649357
30
0
0
VERTEX
8
0
10
120.064
20
86.549533715205
30
0
0
VERTEX
8
0
10
120.661333333333
20
86.6618294527018
30
0
0
VERTEX
8
0
10
121.258666666667
20
86.782962821483
30
0
0
VERTEX
8
0
10
121.856
20
86.8980054287526
30
0
0
VERTEX
8
0
10
122.453333333333
20
87.0271748378048
30
0
0
VERTEX
8
0
10
123.050666666667
20
87.1554058692735
30
0
0
VERTEX
8
0
10
123.648
20
87.2774155463751
30
0
0
VERTEX
8
0
10
124.245333333333
20
87.396269847472
30
0
0
VERTEX
8
0
10
124.842666666667
20
87.5007879990377
30
0
0
VERTEX
8
0
10
125.44
20
87.5985716739755
30
0
0
VERTEX
8
0
10
126.037333333333
20
87.6939634352856
30
0
0
VERTEX
8
0
10
126.634666666667
20
87.7923725364269
30
0
0
VERTEX
8
0
10
127.232
20
87.8754938294782
30
0
0
VERTEX
8
0
10
127.829333333333
20
87.9497800289538
30
0
0
VERTEX
8
0
10
128.426666666667
20
88.0266010470101
30
0
0
VERTEX
8
0
10
129.024
20
88.0971312542102
30
0
0
VERTEX
8
0
10
129.621333333333
20
88.166582587235
30
0
0
VERTEX
8
0
10
130.218666666667
20
88.2477708679562
30
0
0
VERTEX
8
0
10
130.816
20
88.3214764865292
30
0
0
VERTEX
8
0
10
131.413333333333
20
88.394612141
30
0
0
VERTEX
8
0
10
132.010666666666
20
88.4693085744106
30
0
0
VERTEX
8
0
10
132.608
20
88.5430885799818
30
0
0
VERTEX
8
0
10
133.205333333333
20
88.6188356411667
30
0
0
VERTEX
8
0
10
133.802666666666
20
88.6957106535614
30
0
0
VERTEX
8
0
10
134.4
20
88.7639553088432
30
0
0
VERTEX
8
0
10
134.997333333333
20
88.837375504766
30
0
0
VERTEX
8
0
10
135.594666666666
20
88.9091063197739
30
0
0
VERTEX
8
0
10
136.192
20
88.9726951028315
30
0
0
VERTEX
8
0
10
136.789333333333
20
89.0410538430399
30
0
0
VERTEX
8
0
10
137.386666666666
20
89.1077596430945
30
0
0
VERTEX
8
0
10
137.984
20
89.140798543179
30
0
0
VERTEX
8
0
10
138.581333333333
20
89.1748560974978
30
0
0
VERTEX
8
0
10
139.178666666666
20
89.2051175854215
30
0
0
VERTEX
8
0
10
139.776
20
89.2328043848284
30
0
0
VERTEX
8
0
10
140.373333333333
20
89.2623002774759
30
0
0
VERTEX
8
0
10
140.970666666666
20
89.242393787352
30
0
0
VERTEX
8
0
10
141.568
20
89.2351025697809
30
0
0
VERTEX
8
0
10
142.165333333333
20
89.2294197241943
30
0
0
VERTEX
8
0
10
142.762666666666
20
89.2201956751926
30
0
0
VERTEX
8
0
10
143.36
20
89.2041374148805
30
0
0
VERTEX
8
0
10
143.957333333333
20
89.1896159537836
30
0
0
VERTEX
8
0
10
144.554666666666
20
89.1716643950459
30
0
0
VERTEX
8
0
10
145.152
20
89.1526308218724
30
0
0
VERTEX
8
0
10
145.749333333333
20
89.1326853584839
30
0
0
VERTEX
8
0
10
146.346666666666
20
89.1083055692294
30
0
0
VERTEX
8
0
10
146.943999999999
20
89.0831849594235
30
0
0
VERTEX
8
0
10
147.541333333333
20
89.0587902386417
30
0
0
VERTEX
8
0
10
148.138666666666
20
89.0312043720355
30
0
0
VERTEX
8
0
10
148.735999999999
20
88.996007562551
30
0
0
VERTEX
8
0
10
149.333333333333
20
88.9625869215096
30
0
0
VERTEX
8
0
10
149.930666666666
20
88.9261675696226
30
0
0
VERTEX
8
0
10
150.527999999999
20
88.8895490848441
30
0
0
VERTEX
8
0
10
151.125333333333
20
88.8601232638201
30
0
0
VERTEX
8
0
10
151.722666666666
20
88.8285594905445
30
0
0
VERTEX
8
0
10
152.319999999999
20
88.7989742652431
30
0
0
VERTEX
8
0
10
152.917333333333
20
88.7684097932004
30
0
0
VERTEX
8
0
10
153.514666666666
20
88.7342744838214
30
0
0
VERTEX
8
0
10
154.111999999999
20
88.7186770071012
30
0
0
VERTEX
8
0
10
154.709333333333
20
88.6974683759285
30
0
0
VERTEX
8
0
10
155.306666666666
20
88.6729692978548
30
0
0
SEQEND
8
0
0
ENDSEC
0
EOF
