0
SECTION
2
HEADER
9
$ACADVER
1
AC1009
0
ENDSEC
0
SECTION
2
ENTITIES
0
POLYLINE
8
0
62
0
70
1
10
0
20
0
30
0
0
VERTEX
8
0
10
0
20
0
30
0
0
VERTEX
8
0
10
0
20
179.2
30
0
0
VERTEX
8
0
10
179.2
20
179.2
30
0
0
VERTEX
8
0
10
179.2
20
0
30
0
0
SEQEND
8
0
0
TEXT
8
0
62
0
10
0
20
-12
30
0
40
8
1
0
50
0
0
LINE
8
0
62
0
10
29.8666666666667
20
0
30
0
11
29.8666666666667
21
6.4
31
0
0
LINE
8
0
62
0
10
29.8666666666667
20
179.2
30
0
11
29.8666666666667
21
172.8
31
0
0
TEXT
8
0
62
0
10
29.8666666666667
20
-12
30
0
40
8
1
1
50
0
0
LINE
8
0
62
0
10
59.7333333333333
20
0
30
0
11
59.7333333333333
21
6.4
31
0
0
LINE
8
0
62
0
10
59.7333333333333
20
179.2
30
0
11
59.7333333333333
21
172.8
31
0
0
TEXT
8
0
62
0
10
59.7333333333333
20
-12
30
0
40
8
1
2
50
0
0
LINE
8
0
62
0
10
89.6
20
0
30
0
11
89.6
21
6.4
31
0
0
LINE
8
0
62
0
10
89.6
20
179.2
30
0
11
89.6
21
172.8
31
0
0
TEXT
8
0
62
0
10
89.6
20
-12
30
0
40
8
1
3
50
0
0
LINE
8
0
62
0
10
119.466666666667
20
0
30
0
11
119.466666666667
21
6.4
31
0
0
LINE
8
0
62
0
10
119.466666666667
20
179.2
30
0
11
119.466666666667
21
172.8
31
0
0
TEXT
8
0
62
0
10
119.466666666667
20
-12
30
0
40
8
1
4
50
0
0
LINE
8
0
62
0
10
149.333333333333
20
0
30
0
11
149.333333333333
21
6.4
31
0
0
LINE
8
0
62
0
10
149.333333333333
20
179.2
30
0
11
149.333333333333
21
172.8
31
0
0
TEXT
8
0
62
0
10
149.333333333333
20
-12
30
0
40
8
1
5
50
0
0
LINE
8
0
62
0
10
179.2
20
0
30
0
11
179.2
21
6.4
31
0
0
LINE
8
0
62
0
10
179.2
20
179.2
30
0
11
179.2
21
172.8
31
0
0
TEXT
8
0
62
0
10
179.2
20
-12
30
0
40
8
1
6
50
0
0
TEXT
8
0
62
0
10
-4
20
-4
30
0
40
8
1
0
50
0
0
LINE
8
0
62
0
10
0
20
17.92
30
0
11
6.4
21
17.92
31
0
0
LINE
8
0
62
0
10
179.2
20
17.92
30
0
11
172.8
21
17.92
31
0
0
TEXT
8
0
62
0
10
-4
20
13.92
30
0
40
8
1
100
50
0
0
LINE
8
0
62
0
10
0
20
35.84
30
0
11
6.4
21
35.84
31
0
0
LINE
8
0
62
0
10
179.2
20
35.84
30
0
11
172.8
21
35.84
31
0
0
TEXT
8
0
62
0
10
-4
20
31.84
30
0
40
8
1
200
50
0
0
LINE
8
0
62
0
10
0
20
53.76
30
0
11
6.4
21
53.76
31
0
0
LINE
8
0
62
0
10
179.2
20
53.76
30
0
11
172.8
21
53.76
31
0
0
TEXT
8
0
62
0
10
-4
20
49.76
30
0
40
8
1
300
50
0
0
LINE
8
0
62
0
10
0
20
71.68
30
0
11
6.4
21
71.68
31
0
0
LINE
8
0
62
0
10
179.2
20
71.68
30
0
11
172.8
21
71.68
31
0
0
TEXT
8
0
62
0
10
-4
20
67.68
30
0
40
8
1
400
50
0
0
LINE
8
0
62
0
10
0
20
89.6
30
0
11
6.4
21
89.6
31
0
0
LINE
8
0
62
0
10
179.2
20
89.6
30
0
11
172.8
21
89.6
31
0
0
TEXT
8
0
62
0
10
-4
20
85.6
30
0
40
8
1
500
50
0
0
LINE
8
0
62
0
10
0
20
107.52
30
0
11
6.4
21
107.52
31
0
0
LINE
8
0
62
0
10
179.2
20
107.52
30
0
11
172.8
21
107.52
31
0
0
TEXT
8
0
62
0
10
-4
20
103.52
30
0
40
8
1
600
50
0
0
LINE
8
0
62
0
10
0
20
125.44
30
0
11
6.4
21
125.44
31
0
0
LINE
8
0
62
0
10
179.2
20
125.44
30
0
11
172.8
21
125.44
31
0
0
TEXT
8
0
62
0
10
-4
20
121.44
30
0
40
8
1
700
50
0
0
LINE
8
0
62
0
10
0
20
143.36
30
0
11
6.4
21
143.36
31
0
0
LINE
8
0
62
0
10
179.2
20
143.36
30
0
11
172.8
21
143.36
31
0
0
TEXT
8
0
62
0
10
-4
20
139.36
30
0
40
8
1
800
50
0
0
LINE
8
0
62
0
10
0
20
161.28
30
0
11
6.4
21
161.28
31
0
0
LINE
8
0
62
0
10
179.2
20
161.28
30
0
11
172.8
21
161.28
31
0
0
TEXT
8
0
62
0
10
-4
20
157.28
30
0
40
8
1
900
50
0
0
TEXT
8
0
62
0
10
-4
20
175.2
30
0
40
8
1
1000
50
0
0
TEXT
8
0
62
0
10
89.6
20
-32
30
0
40
10
1
Hf (km/s/Mpc)
50
0
0
TEXT
8
0
62
0
10
-24
20
89.6
30
0
40
10
1
frame speed (km/s)
50
90
0
TEXT
8
0
62
0
10
72.6
20
194.2
30
0
40
11
1
frame speed vs. Hf
50
0
0
POLYLINE
8
0
62
1
70
0
10
0
20
0
30
0
0
VERTEX
8
0
10
0
20
0
30
0
0
VERTEX
8
0
10
1.792
20
0.0394698184704
30
0
0
VERTEX
8
0
10
3.584
20
0.1578792738816
30
0
0
VERTEX
8
0
10
5.376
20
0.3552283662336
30
0
0
VERTEX
8
0
10
7.168
20
0.6315170955264
30
0
0
VERTEX
8
0
10
8.96
20
0.98674546176
30
0
0
VERTEX
8
0
10
10.752
20
1.4209134649344
30
0
0
VERTEX
8
0
10
12.544
20
1.9340211050496
30
0
0
VERTEX
8
0
10
14.336
20
2.5260683821056
30
0
0
VERTEX
8
0
10
16.128
20
3.1970552961024
30
0
0
VERTEX
8
0
10
17.92
20
3.94698184704
30
0
0
VERTEX
8
0
10
19.712
20
4.7758480349184
30
0
0
VERTEX
8
0
10
21.504
20
5.6836538597376
30
0
0
VERTEX
8
0
10
23.296
20
6.67039932149761
30
0
0
VERTEX
8
0
10
25.088
20
7.7360844201984
30
0
0
VERTEX
8
0
10
26.88
20
8.88070915584001
30
0
0
VERTEX
8
0
10
28.672
20
10.1042735284224
30
0
0
VERTEX
8
0
10
30.464
20
11.4067775379456
30
0
0
VERTEX
8
0
10
32.256
20
12.7882211844096
30
0
0
VERTEX
8
0
10
34.048
20
14.2486044678144
30
0
0
VERTEX
8
0
10
35.84
20
15.78792738816
30
0
0
VERTEX
8
0
10
37.632
20
17.4061899454464
30
0
0
VERTEX
8
0
10
39.424
20
19.1033921396736
30
0
0
VERTEX
8
0
10
41.216
20
20.8795339708416
30
0
0
VERTEX
8
0
10
43.008
20
22.7346154389504
30
0
0
VERTEX
8
0
10
44.8
20
24.668636544
30
0
0
VERTEX
8
0
10
46.592
20
26.6815972859904
30
0
0
VERTEX
8
0
10
48.384
20
28.7734976649216
30
0
0
VERTEX
8
0
10
50.176
20
30.9443376807936
30
0
0
VERTEX
8
0
10
51.968
20
33.1941173336064
30
0
0
VERTEX
8
0
10
53.76
20
35.52283662336
30
0
0
VERTEX
8
0
10
55.552
20
37.9304955500544
30
0
0
VERTEX
8
0
10
57.344
20
40.4170941136897
30
0
0
VERTEX
8
0
10
59.136
20
42.9826323142657
30
0
0
VERTEX
8
0
10
60.928
20
45.6271101517825
30
0
0
VERTEX
8
0
10
62.72
20
48.3505276262401
30
0
0
VERTEX
8
0
10
64.512
20
51.1528847376385
30
0
0
VERTEX
8
0
10
66.304
20
54.0341814859777
30
0
0
VERTEX
8
0
10
68.096
20
56.9944178712577
30
0
0
VERTEX
8
0
10
69.888
20
60.0335938934785
30
0
0
VERTEX
8
0
10
71.68
20
63.1517095526401
30
0
0
VERTEX
8
0
10
73.4720000000001
20
66.3487648487425
30
0
0
VERTEX
8
0
10
75.2640000000001
20
69.6247597817857
30
0
0
VERTEX
8
0
10
77.0560000000001
20
72.9796943517697
30
0
0
VERTEX
8
0
10
78.848
20
76.4135685586945
30
0
0
VERTEX
8
0
10
80.64
20
79.9263824025601
30
0
0
VERTEX
8
0
10
82.432
20
83.5181358833665
30
0
0
VERTEX
8
0
10
84.224
20
87.1888290011137
30
0
0
VERTEX
8
0
10
86.016
20
90.9384617558017
30
0
0
VERTEX
8
0
10
87.8080000000001
20
94.7670341474305
30
0
0
VERTEX
8
0
10
89.6000000000001
20
98.6745461760001
30
0
0
VERTEX
8
0
10
91.3920000000001
20
102.660997841511
30
0
0
VERTEX
8
0
10
93.1840000000001
20
106.726389143962
30
0
0
VERTEX
8
0
10
94.9760000000001
20
110.870720083354
30
0
0
VERTEX
8
0
10
96.7680000000001
20
115.093990659687
30
0
0
VERTEX
8
0
10
98.5600000000001
20
119.39620087296
30
0
0
VERTEX
8
0
10
100.352
20
123.777350723175
30
0
0
VERTEX
8
0
10
102.144
20
128.23744021033
30
0
0
VERTEX
8
0
10
103.936
20
132.776469334426
30
0
0
VERTEX
8
0
10
105.728
20
137.394438095463
30
0
0
VERTEX
8
0
10
107.52
20
142.09134649344
30
0
0
VERTEX
8
0
10
109.312
20
146.867194528359
30
0
0
VERTEX
8
0
10
111.104
20
151.721982200218
30
0
0
VERTEX
8
0
10
112.896
20
156.655709509018
30
0
0
VERTEX
8
0
10
114.688
20
161.668376454759
30
0
0
VERTEX
8
0
10
116.48
20
166.75998303744
30
0
0
VERTEX
8
0
10
118.272
20
171.930529257063
30
0
0
VERTEX
8
0
10
120.064
20
177.180015113626
30
0
0
VERTEX
8
0
10
120.743340064114
20
179.2
30
0
0
SEQEND
8
0
0
POLYLINE
8
0
62
6
70
0
10
0
20
0
30
0
0
VERTEX
8
0
10
0
20
0
30
0
0
VERTEX
8
0
10
1.792
20
0.0279093762926219
30
0
0
VERTEX
8
0
10
3.584
20
0.111637505170487
30
0
0
VERTEX
8
0
10
5.376
20
0.251184386633597
30
0
0
VERTEX
8
0
10
7.168
20
0.44655002068195
30
0
0
VERTEX
8
0
10
8.96
20
0.697734407315547
30
0
0
VERTEX
8
0
10
10.752
20
1.00473754653439
30
0
0
VERTEX
8
0
10
12.544
20
1.36755943833847
30
0
0
VERTEX
8
0
10
14.336
20
1.7862000827278
30
0
0
VERTEX
8
0
10
16.128
20
2.26065947970237
30
0
0
VERTEX
8
0
10
17.92
20
2.79093762926219
30
0
0
VERTEX
8
0
10
19.712
20
3.37703453140725
30
0
0
VERTEX
8
0
10
21.504
20
4.01895018613755
30
0
0
VERTEX
8
0
10
23.296
20
4.7166845934531
30
0
0
VERTEX
8
0
10
25.088
20
5.47023775335389
30
0
0
VERTEX
8
0
10
26.88
20
6.27960966583993
30
0
0
VERTEX
8
0
10
28.672
20
7.14480033091121
30
0
0
VERTEX
8
0
10
30.464
20
8.06580974856773
30
0
0
VERTEX
8
0
10
32.256
20
9.0426379188095
30
0
0
VERTEX
8
0
10
34.048
20
10.0752848416365
30
0
0
VERTEX
8
0
10
35.84
20
11.1637505170488
30
0
0
VERTEX
8
0
10
37.632
20
12.3080349450463
30
0
0
VERTEX
8
0
10
39.424
20
13.508138125629
30
0
0
VERTEX
8
0
10
41.216
20
14.764060058797
30
0
0
VERTEX
8
0
10
43.008
20
16.0758007445502
30
0
0
VERTEX
8
0
10
44.8
20
17.4433601828887
30
0
0
VERTEX
8
0
10
46.592
20
18.8667383738124
30
0
0
VERTEX
8
0
10
48.384
20
20.3459353173214
30
0
0
VERTEX
8
0
10
50.176
20
21.8809510134156
30
0
0
VERTEX
8
0
10
51.968
20
23.471785462095
30
0
0
VERTEX
8
0
10
53.76
20
25.1184386633597
30
0
0
VERTEX
8
0
10
55.552
20
26.8209106172097
30
0
0
VERTEX
8
0
10
57.344
20
28.5792013236448
30
0
0
VERTEX
8
0
10
59.136
20
30.3933107826653
30
0
0
VERTEX
8
0
10
60.928
20
32.2632389942709
30
0
0
VERTEX
8
0
10
62.72
20
34.1889859584618
30
0
0
VERTEX
8
0
10
64.512
20
36.170551675238
30
0
0
VERTEX
8
0
10
66.304
20
38.2079361445994
30
0
0
VERTEX
8
0
10
68.096
20
40.301139366546
30
0
0
VERTEX
8
0
10
69.888
20
42.4501613410779
30
0
0
VERTEX
8
0
10
71.68
20
44.6550020681951
30
0
0
VERTEX
8
0
10
73.4720000000001
20
46.9156615478975
30
0
0
VERTEX
8
0
10
75.2640000000001
20
49.2321397801851
30
0
0
VERTEX
8
0
10
77.0560000000001
20
51.6044367650579
30
0
0
VERTEX
8
0
10
78.848
20
54.032552502516
30
0
0
VERTEX
8
0
10
80.64
20
56.5164869925594
30
0
0
VERTEX
8
0
10
82.432
20
59.056240235188
30
0
0
VERTEX
8
0
10
84.224
20
61.6518122304018
30
0
0
VERTEX
8
0
10
86.016
20
64.3032029782009
30
0
0
VERTEX
8
0
10
87.8080000000001
20
67.0104124785852
30
0
0
VERTEX
8
0
10
89.6000000000001
20
69.7734407315548
30
0
0
VERTEX
8
0
10
91.3920000000001
20
72.5922877371096
30
0
0
VERTEX
8
0
10
93.1840000000001
20
75.4669534952497
30
0
0
VERTEX
8
0
10
94.9760000000001
20
78.397438005975
30
0
0
VERTEX
8
0
10
96.7680000000001
20
81.3837412692855
30
0
0
VERTEX
8
0
10
98.5600000000001
20
84.4258632851813
30
0
0
VERTEX
8
0
10
100.352
20
87.5238040536623
30
0
0
VERTEX
8
0
10
102.144
20
90.6775635747287
30
0
0
VERTEX
8
0
10
103.936
20
93.8871418483801
30
0
0
VERTEX
8
0
10
105.728
20
97.1525388746169
30
0
0
VERTEX
8
0
10
107.52
20
100.473754653439
30
0
0
VERTEX
8
0
10
109.312
20
103.850789184846
30
0
0
VERTEX
8
0
10
111.104
20
107.283642468839
30
0
0
VERTEX
8
0
10
112.896
20
110.772314505416
30
0
0
VERTEX
8
0
10
114.688
20
114.316805294579
30
0
0
VERTEX
8
0
10
116.48
20
117.917114836328
30
0
0
VERTEX
8
0
10
118.272
20
121.573243130661
30
0
0
VERTEX
8
0
10
120.064
20
125.28519017758
30
0
0
VERTEX
8
0
10
121.856
20
129.052955977084
30
0
0
VERTEX
8
0
10
123.648
20
132.876540529173
30
0
0
VERTEX
8
0
10
125.44
20
136.755943833847
30
0
0
VERTEX
8
0
10
127.232
20
140.691165891107
30
0
0
VERTEX
8
0
10
129.024
20
144.682206700952
30
0
0
VERTEX
8
0
10
130.816
20
148.729066263382
30
0
0
VERTEX
8
0
10
132.608
20
152.831744578397
30
0
0
VERTEX
8
0
10
134.4
20
156.990241645998
30
0
0
VERTEX
8
0
10
136.192
20
161.204557466184
30
0
0
VERTEX
8
0
10
137.984
20
165.474692038955
30
0
0
VERTEX
8
0
10
139.776
20
169.800645364311
30
0
0
VERTEX
8
0
10
141.568
20
174.182417442253
30
0
0
VERTEX
8
0
10
143.36
20
178.62000827278
30
0
0
VERTEX
8
0
10
143.59130434828
20
179.2
30
0
0
SEQEND
8
0
0
POLYLINE
8
0
62
6
70
1
10
0
20
0
30
0
0
VERTEX
8
0
10
0.0906666666666665
20
2.1216
30
0
0
VERTEX
8
0
10
0.0906666666666665
20
6.1216
30
0
0
VERTEX
8
0
10
4.09066666666667
20
6.1216
30
0
0
VERTEX
8
0
10
4.09066666666667
20
2.1216
30
0
0
SEQEND
8
0
0
CIRCLE
8
0
62
5
10
119.466666666667
20
140.4928
30
0
40
2
0
CIRCLE
8
0
62
5
10
113.493333333333
20
114.5088
30
0
40
2
0
CIRCLE
8
0
62
5
10
74.6666666666667
20
68.096
30
0
40
2
0
CIRCLE
8
0
62
5
10
119.466666666667
20
155.904
30
0
40
2
0
CIRCLE
8
0
62
5
10
53.76
20
26.5216
30
0
40
2
0
CIRCLE
8
0
62
5
10
38.8266666666667
20
20.608
30
0
40
2
0
CIRCLE
8
0
62
5
10
44.8
20
25.6256
30
0
40
2
0
CIRCLE
8
0
62
5
10
26.88
20
16.3072
30
0
40
2
0
POLYLINE
8
0
62
6
70
1
10
0
20
0
30
0
0
VERTEX
8
0
10
36.8266666666667
20
22.0128
30
0
0
VERTEX
8
0
10
36.8266666666667
20
26.0128
30
0
0
VERTEX
8
0
10
40.8266666666667
20
26.0128
30
0
0
VERTEX
8
0
10
40.8266666666667
20
22.0128
30
0
0
SEQEND
8
0
0
CIRCLE
8
0
62
5
10
92.5866666666667
20
32.6144
30
0
40
2
0
CIRCLE
8
0
62
5
10
56.7466666666667
20
16.128
30
0
40
2
0
CIRCLE
8
0
62
5
10
107.52
20
132.2496
30
0
40
2
0
CIRCLE
8
0
62
5
10
149.333333333333
20
81.7152
30
0
40
2
0
CIRCLE
8
0
62
5
10
74.6666666666667
20
69.5296
30
0
40
2
0
CIRCLE
8
0
62
5
10
89.6
20
98.56
30
0
40
2
0
CIRCLE
8
0
62
5
10
89.6
20
49.28
30
0
40
2
0
CIRCLE
8
0
62
5
10
32.8533333333333
20
23.8336
30
0
40
2
0
CIRCLE
8
0
62
5
10
10.4533333333333
20
9.4976
30
0
40
2
0
POLYLINE
8
0
62
6
70
1
10
0
20
0
30
0
0
VERTEX
8
0
10
57.7333333333333
20
34.3776
30
0
0
VERTEX
8
0
10
57.7333333333333
20
38.3776
30
0
0
VERTEX
8
0
10
61.7333333333333
20
38.3776
30
0
0
VERTEX
8
0
10
61.7333333333333
20
34.3776
30
0
0
SEQEND
8
0
0
CIRCLE
8
0
62
5
10
53.76
20
38.1696
30
0
40
2
0
CIRCLE
8
0
62
5
10
119.466666666667
20
87.0912
30
0
40
2
0
POLYLINE
8
0
62
6
70
1
10
0
20
0
30
0
0
VERTEX
8
0
10
87.6
20
102.832
30
0
0
VERTEX
8
0
10
87.6
20
106.832
30
0
0
VERTEX
8
0
10
91.6
20
106.832
30
0
0
VERTEX
8
0
10
91.6
20
102.832
30
0
0
SEQEND
8
0
0
CIRCLE
8
0
62
5
10
44.8
20
84.224
30
0
40
2
0
CIRCLE
8
0
62
5
10
20.9066666666667
20
74.7264
30
0
40
2
0
CIRCLE
8
0
62
5
10
89.6
20
106.0864
30
0
40
2
0
CIRCLE
8
0
62
5
10
65.7066666666667
20
57.7024
30
0
40
2
0
CIRCLE
8
0
62
5
10
95.5733333333333
20
81.8944
30
0
40
2
0
LINE
8
0
62
4
10
92.2227046018616
20
0
30
0
11
92.2227046018616
21
179.2
31
0
0
ENDSEC
0
EOF
