0
SECTION
2
HEADER
9
$ACADVER
1
AC1009
0
ENDSEC
0
SECTION
2
ENTITIES
0
POLYLINE
8
0
62
0
70
1
10
0
20
0
30
0
0
VERTEX
8
0
10
0
20
0
30
0
0
VERTEX
8
0
10
0
20
117.344
30
0
0
VERTEX
8
0
10
179.2
20
117.344
30
0
0
VERTEX
8
0
10
179.2
20
0
30
0
0
SEQEND
8
0
0
TEXT
8
0
62
0
10
0
20
-12
30
0
40
8
1
0
50
0
0
LINE
8
0
62
0
10
6.0848638163675
20
0
30
0
11
6.0848638163675
21
3.2
31
0
0
LINE
8
0
62
0
10
6.0848638163675
20
117.344
30
0
11
6.0848638163675
21
114.144
31
0
0
LINE
8
0
62
0
10
12.169727632735
20
0
30
0
11
12.169727632735
21
3.2
31
0
0
LINE
8
0
62
0
10
12.169727632735
20
117.344
30
0
11
12.169727632735
21
114.144
31
0
0
LINE
8
0
62
0
10
18.2545914491025
20
0
30
0
11
18.2545914491025
21
3.2
31
0
0
LINE
8
0
62
0
10
18.2545914491025
20
117.344
30
0
11
18.2545914491025
21
114.144
31
0
0
LINE
8
0
62
0
10
24.33945526547
20
0
30
0
11
24.33945526547
21
3.2
31
0
0
LINE
8
0
62
0
10
24.33945526547
20
117.344
30
0
11
24.33945526547
21
114.144
31
0
0
LINE
8
0
62
0
10
30.4243190818375
20
0
30
0
11
30.4243190818375
21
6.4
31
0
0
LINE
8
0
62
0
10
30.4243190818375
20
117.344
30
0
11
30.4243190818375
21
110.944
31
0
0
TEXT
8
0
62
0
10
30.4243190818375
20
-12
30
0
40
8
1
2
50
0
0
LINE
8
0
62
0
10
36.509182898205
20
0
30
0
11
36.509182898205
21
3.2
31
0
0
LINE
8
0
62
0
10
36.509182898205
20
117.344
30
0
11
36.509182898205
21
114.144
31
0
0
LINE
8
0
62
0
10
42.5940467145725
20
0
30
0
11
42.5940467145725
21
3.2
31
0
0
LINE
8
0
62
0
10
42.5940467145725
20
117.344
30
0
11
42.5940467145725
21
114.144
31
0
0
LINE
8
0
62
0
10
48.67891053094
20
0
30
0
11
48.67891053094
21
3.2
31
0
0
LINE
8
0
62
0
10
48.67891053094
20
117.344
30
0
11
48.67891053094
21
114.144
31
0
0
LINE
8
0
62
0
10
54.7637743473075
20
0
30
0
11
54.7637743473075
21
3.2
31
0
0
LINE
8
0
62
0
10
54.7637743473075
20
117.344
30
0
11
54.7637743473075
21
114.144
31
0
0
LINE
8
0
62
0
10
60.848638163675
20
0
30
0
11
60.848638163675
21
6.4
31
0
0
LINE
8
0
62
0
10
60.848638163675
20
117.344
30
0
11
60.848638163675
21
110.944
31
0
0
TEXT
8
0
62
0
10
60.848638163675
20
-12
30
0
40
8
1
4
50
0
0
LINE
8
0
62
0
10
66.9335019800425
20
0
30
0
11
66.9335019800425
21
3.2
31
0
0
LINE
8
0
62
0
10
66.9335019800425
20
117.344
30
0
11
66.9335019800425
21
114.144
31
0
0
LINE
8
0
62
0
10
73.01836579641
20
0
30
0
11
73.01836579641
21
3.2
31
0
0
LINE
8
0
62
0
10
73.01836579641
20
117.344
30
0
11
73.01836579641
21
114.144
31
0
0
LINE
8
0
62
0
10
79.1032296127775
20
0
30
0
11
79.1032296127775
21
3.2
31
0
0
LINE
8
0
62
0
10
79.1032296127775
20
117.344
30
0
11
79.1032296127775
21
114.144
31
0
0
LINE
8
0
62
0
10
85.188093429145
20
0
30
0
11
85.188093429145
21
3.2
31
0
0
LINE
8
0
62
0
10
85.188093429145
20
117.344
30
0
11
85.188093429145
21
114.144
31
0
0
LINE
8
0
62
0
10
91.2729572455125
20
0
30
0
11
91.2729572455125
21
6.4
31
0
0
LINE
8
0
62
0
10
91.2729572455125
20
117.344
30
0
11
91.2729572455125
21
110.944
31
0
0
TEXT
8
0
62
0
10
91.2729572455125
20
-12
30
0
40
8
1
6
50
0
0
LINE
8
0
62
0
10
97.35782106188
20
0
30
0
11
97.35782106188
21
3.2
31
0
0
LINE
8
0
62
0
10
97.35782106188
20
117.344
30
0
11
97.35782106188
21
114.144
31
0
0
LINE
8
0
62
0
10
103.442684878248
20
0
30
0
11
103.442684878248
21
3.2
31
0
0
LINE
8
0
62
0
10
103.442684878248
20
117.344
30
0
11
103.442684878248
21
114.144
31
0
0
LINE
8
0
62
0
10
109.527548694615
20
0
30
0
11
109.527548694615
21
3.2
31
0
0
LINE
8
0
62
0
10
109.527548694615
20
117.344
30
0
11
109.527548694615
21
114.144
31
0
0
LINE
8
0
62
0
10
115.612412510983
20
0
30
0
11
115.612412510983
21
3.2
31
0
0
LINE
8
0
62
0
10
115.612412510983
20
117.344
30
0
11
115.612412510983
21
114.144
31
0
0
LINE
8
0
62
0
10
121.69727632735
20
0
30
0
11
121.69727632735
21
6.4
31
0
0
LINE
8
0
62
0
10
121.69727632735
20
117.344
30
0
11
121.69727632735
21
110.944
31
0
0
TEXT
8
0
62
0
10
121.69727632735
20
-12
30
0
40
8
1
8
50
0
0
LINE
8
0
62
0
10
127.782140143718
20
0
30
0
11
127.782140143718
21
3.2
31
0
0
LINE
8
0
62
0
10
127.782140143718
20
117.344
30
0
11
127.782140143718
21
114.144
31
0
0
LINE
8
0
62
0
10
133.867003960085
20
0
30
0
11
133.867003960085
21
3.2
31
0
0
LINE
8
0
62
0
10
133.867003960085
20
117.344
30
0
11
133.867003960085
21
114.144
31
0
0
LINE
8
0
62
0
10
139.951867776453
20
0
30
0
11
139.951867776453
21
3.2
31
0
0
LINE
8
0
62
0
10
139.951867776453
20
117.344
30
0
11
139.951867776453
21
114.144
31
0
0
LINE
8
0
62
0
10
146.03673159282
20
0
30
0
11
146.03673159282
21
3.2
31
0
0
LINE
8
0
62
0
10
146.03673159282
20
117.344
30
0
11
146.03673159282
21
114.144
31
0
0
LINE
8
0
62
0
10
152.121595409188
20
0
30
0
11
152.121595409188
21
6.4
31
0
0
LINE
8
0
62
0
10
152.121595409188
20
117.344
30
0
11
152.121595409188
21
110.944
31
0
0
TEXT
8
0
62
0
10
152.121595409188
20
-12
30
0
40
8
1
10
50
0
0
LINE
8
0
62
0
10
158.206459225555
20
0
30
0
11
158.206459225555
21
3.2
31
0
0
LINE
8
0
62
0
10
158.206459225555
20
117.344
30
0
11
158.206459225555
21
114.144
31
0
0
LINE
8
0
62
0
10
164.291323041923
20
0
30
0
11
164.291323041923
21
3.2
31
0
0
LINE
8
0
62
0
10
164.291323041923
20
117.344
30
0
11
164.291323041923
21
114.144
31
0
0
LINE
8
0
62
0
10
170.37618685829
20
0
30
0
11
170.37618685829
21
3.2
31
0
0
LINE
8
0
62
0
10
170.37618685829
20
117.344
30
0
11
170.37618685829
21
114.144
31
0
0
LINE
8
0
62
0
10
176.461050674658
20
0
30
0
11
176.461050674658
21
3.2
31
0
0
LINE
8
0
62
0
10
176.461050674658
20
117.344
30
0
11
176.461050674658
21
114.144
31
0
0
TEXT
8
0
62
0
10
-4
20
-4
30
0
40
8
1
0
50
0
0
LINE
8
0
62
0
10
0
20
5.8672
30
0
11
3.2
21
5.8672
31
0
0
LINE
8
0
62
0
10
179.2
20
5.8672
30
0
11
176
21
5.8672
31
0
0
LINE
8
0
62
0
10
0
20
11.7344
30
0
11
3.2
21
11.7344
31
0
0
LINE
8
0
62
0
10
179.2
20
11.7344
30
0
11
176
21
11.7344
31
0
0
LINE
8
0
62
0
10
0
20
17.6016
30
0
11
3.2
21
17.6016
31
0
0
LINE
8
0
62
0
10
179.2
20
17.6016
30
0
11
176
21
17.6016
31
0
0
LINE
8
0
62
0
10
0
20
23.4688
30
0
11
3.2
21
23.4688
31
0
0
LINE
8
0
62
0
10
179.2
20
23.4688
30
0
11
176
21
23.4688
31
0
0
LINE
8
0
62
0
10
0
20
29.336
30
0
11
6.4
21
29.336
31
0
0
LINE
8
0
62
0
10
179.2
20
29.336
30
0
11
172.8
21
29.336
31
0
0
TEXT
8
0
62
0
10
-4
20
25.336
30
0
40
8
1
20
50
0
0
LINE
8
0
62
0
10
0
20
35.2032
30
0
11
3.2
21
35.2032
31
0
0
LINE
8
0
62
0
10
179.2
20
35.2032
30
0
11
176
21
35.2032
31
0
0
LINE
8
0
62
0
10
0
20
41.0704
30
0
11
3.2
21
41.0704
31
0
0
LINE
8
0
62
0
10
179.2
20
41.0704
30
0
11
176
21
41.0704
31
0
0
LINE
8
0
62
0
10
0
20
46.9376
30
0
11
3.2
21
46.9376
31
0
0
LINE
8
0
62
0
10
179.2
20
46.9376
30
0
11
176
21
46.9376
31
0
0
LINE
8
0
62
0
10
0
20
52.8048
30
0
11
3.2
21
52.8048
31
0
0
LINE
8
0
62
0
10
179.2
20
52.8048
30
0
11
176
21
52.8048
31
0
0
LINE
8
0
62
0
10
0
20
58.672
30
0
11
6.4
21
58.672
31
0
0
LINE
8
0
62
0
10
179.2
20
58.672
30
0
11
172.8
21
58.672
31
0
0
TEXT
8
0
62
0
10
-4
20
54.672
30
0
40
8
1
40
50
0
0
LINE
8
0
62
0
10
0
20
64.5392
30
0
11
3.2
21
64.5392
31
0
0
LINE
8
0
62
0
10
179.2
20
64.5392
30
0
11
176
21
64.5392
31
0
0
LINE
8
0
62
0
10
0
20
70.4064
30
0
11
3.2
21
70.4064
31
0
0
LINE
8
0
62
0
10
179.2
20
70.4064
30
0
11
176
21
70.4064
31
0
0
LINE
8
0
62
0
10
0
20
76.2736
30
0
11
3.2
21
76.2736
31
0
0
LINE
8
0
62
0
10
179.2
20
76.2736
30
0
11
176
21
76.2736
31
0
0
LINE
8
0
62
0
10
0
20
82.1408
30
0
11
3.2
21
82.1408
31
0
0
LINE
8
0
62
0
10
179.2
20
82.1408
30
0
11
176
21
82.1408
31
0
0
LINE
8
0
62
0
10
0
20
88.008
30
0
11
6.4
21
88.008
31
0
0
LINE
8
0
62
0
10
179.2
20
88.008
30
0
11
172.8
21
88.008
31
0
0
TEXT
8
0
62
0
10
-4
20
84.008
30
0
40
8
1
60
50
0
0
LINE
8
0
62
0
10
0
20
93.8752
30
0
11
3.2
21
93.8752
31
0
0
LINE
8
0
62
0
10
179.2
20
93.8752
30
0
11
176
21
93.8752
31
0
0
LINE
8
0
62
0
10
0
20
99.7424
30
0
11
3.2
21
99.7424
31
0
0
LINE
8
0
62
0
10
179.2
20
99.7424
30
0
11
176
21
99.7424
31
0
0
LINE
8
0
62
0
10
0
20
105.6096
30
0
11
3.2
21
105.6096
31
0
0
LINE
8
0
62
0
10
179.2
20
105.6096
30
0
11
176
21
105.6096
31
0
0
LINE
8
0
62
0
10
0
20
111.4768
30
0
11
3.2
21
111.4768
31
0
0
LINE
8
0
62
0
10
179.2
20
111.4768
30
0
11
176
21
111.4768
31
0
0
TEXT
8
0
62
0
10
-4
20
113.344
30
0
40
8
1
80
50
0
0
TEXT
8
0
62
0
10
89.6
20
-32
30
0
40
10
1
R (kpc)
50
0
0
TEXT
8
0
62
0
10
-24
20
58.672
30
0
40
10
1
V (km/s)
50
90
0
TEXT
8
0
62
0
10
72.6
20
132.344
30
0
40
11
1
V vs. R
50
0
0
POLYLINE
8
0
62
5
70
0
10
0
20
0
30
0
0
VERTEX
8
0
10
14.4515515638728
20
10.0577482924258
30
0
0
VERTEX
8
0
10
15.2121595409188
20
10.4514672133281
30
0
0
VERTEX
8
0
10
15.9727675179647
20
10.8451861342304
30
0
0
VERTEX
8
0
10
16.7333754950106
20
11.2389050551327
30
0
0
VERTEX
8
0
10
17.4939834720566
20
11.5645298568366
30
0
0
VERTEX
8
0
10
18.2545914491025
20
11.9047030044961
30
0
0
VERTEX
8
0
10
19.0151994261484
20
12.2448761521557
30
0
0
VERTEX
8
0
10
19.7758074031944
20
12.559815095059
30
0
0
VERTEX
8
0
10
20.5364153802403
20
12.8684907290464
30
0
0
VERTEX
8
0
10
21.2970233572863
20
13.1771663630337
30
0
0
VERTEX
8
0
10
22.0576313343322
20
13.4858419970211
30
0
0
VERTEX
8
0
10
22.8182393113781
20
13.7148875690028
30
0
0
VERTEX
8
0
10
23.5788472884241
20
13.963717927013
30
0
0
VERTEX
8
0
10
24.33945526547
20
14.2125482850232
30
0
0
VERTEX
8
0
10
25.100063242516
20
14.4613786430335
30
0
0
VERTEX
8
0
10
25.8606712195619
20
14.7102090010437
30
0
0
VERTEX
8
0
10
26.6212791966078
20
14.959039359054
30
0
0
VERTEX
8
0
10
27.3818871736538
20
15.2078697170642
30
0
0
VERTEX
8
0
10
28.1424951506997
20
15.4610766504411
30
0
0
VERTEX
8
0
10
28.9031031277456
20
15.7130567598185
30
0
0
VERTEX
8
0
10
29.6637111047916
20
15.965036869196
30
0
0
VERTEX
8
0
10
30.4243190818375
20
16.1620222496155
30
0
0
VERTEX
8
0
10
31.1849270588835
20
16.3541570830158
30
0
0
VERTEX
8
0
10
31.9455350359294
20
16.5462919164161
30
0
0
VERTEX
8
0
10
32.7061430129753
20
16.7384267498165
30
0
0
VERTEX
8
0
10
33.4667509900213
20
16.8940648245108
30
0
0
VERTEX
8
0
10
34.2273589670672
20
17.0610016469733
30
0
0
VERTEX
8
0
10
34.9879669441131
20
17.2279384694359
30
0
0
VERTEX
8
0
10
35.7485749211591
20
17.4010352496793
30
0
0
VERTEX
8
0
10
36.509182898205
20
17.5742715748763
30
0
0
VERTEX
8
0
10
37.2697908752509
20
17.7475079000733
30
0
0
VERTEX
8
0
10
38.0303988522969
20
17.8999720070161
30
0
0
VERTEX
8
0
10
38.7910068293428
20
18.0322615644392
30
0
0
VERTEX
8
0
10
39.5516148063887
20
18.1645511218624
30
0
0
VERTEX
8
0
10
40.3122227834347
20
18.2968406792856
30
0
0
VERTEX
8
0
10
41.0728307604806
20
18.4095372465365
30
0
0
VERTEX
8
0
10
41.8334387375266
20
18.5229282957563
30
0
0
VERTEX
8
0
10
42.5940467145725
20
18.6363193449762
30
0
0
VERTEX
8
0
10
43.3546546916184
20
18.7372267172963
30
0
0
VERTEX
8
0
10
44.1152626686644
20
18.8285695069456
30
0
0
VERTEX
8
0
10
44.8758706457103
20
18.919912296595
30
0
0
VERTEX
8
0
10
45.6364786227562
20
19.0112550862443
30
0
0
VERTEX
8
0
10
46.3970865998022
20
19.0922448223927
30
0
0
VERTEX
8
0
10
47.1576945768481
20
19.1741383579404
30
0
0
VERTEX
8
0
10
47.918302553894
20
19.256031893488
30
0
0
VERTEX
8
0
10
48.67891053094
20
19.3182364101772
30
0
0
VERTEX
8
0
10
49.4395185079859
20
19.3686324320527
30
0
0
VERTEX
8
0
10
50.2001264850318
20
19.4190284539282
30
0
0
VERTEX
8
0
10
50.9607344620778
20
19.4694244758037
30
0
0
VERTEX
8
0
10
51.7213424391237
20
19.5089108857634
30
0
0
VERTEX
8
0
10
52.4819504161696
20
19.5498576535373
30
0
0
VERTEX
8
0
10
53.2425583932156
20
19.5908044213111
30
0
0
VERTEX
8
0
10
54.0031663702615
20
19.6037437114381
30
0
0
VERTEX
8
0
10
54.7637743473075
20
19.6037437114381
30
0
0
VERTEX
8
0
10
55.5243823243534
20
19.6037437114381
30
0
0
VERTEX
8
0
10
56.2849903013993
20
19.6037437114381
30
0
0
VERTEX
8
0
10
57.0455982784453
20
19.6037437114381
30
0
0
VERTEX
8
0
10
57.8062062554912
20
19.6037437114381
30
0
0
VERTEX
8
0
10
58.5668142325371
20
19.6037437114381
30
0
0
VERTEX
8
0
10
59.3274222095831
20
19.6669221138226
30
0
0
VERTEX
8
0
10
60.088030186629
20
19.7519654007375
30
0
0
VERTEX
8
0
10
60.8486381636749
20
19.8370086876524
30
0
0
VERTEX
8
0
10
61.6092461407209
20
19.9220519745673
30
0
0
VERTEX
8
0
10
62.3698541177668
20
20.0952619389484
30
0
0
VERTEX
8
0
10
63.1304620948127
20
20.2495997559421
30
0
0
VERTEX
8
0
10
63.8910700718587
20
20.4039375729358
30
0
0
VERTEX
8
0
10
64.6516780489046
20
20.6037336753414
30
0
0
VERTEX
8
0
10
65.4122860259505
20
20.814767016945
30
0
0
VERTEX
8
0
10
66.1728940029965
20
21.0258003585487
30
0
0
VERTEX
8
0
10
66.9335019800424
20
21.2368337001523
30
0
0
VERTEX
8
0
10
67.6941099570883
20
21.5065703818369
30
0
0
VERTEX
8
0
10
68.4547179341343
20
21.7617002425816
30
0
0
VERTEX
8
0
10
69.2153259111802
20
22.0168301033263
30
0
0
VERTEX
8
0
10
69.9759338882262
20
22.3126246606549
30
0
0
VERTEX
8
0
10
70.7365418652721
20
22.6150007919079
30
0
0
VERTEX
8
0
10
71.497149842318
20
22.9173769231608
30
0
0
VERTEX
8
0
10
72.257757819364
20
23.2197530544138
30
0
0
VERTEX
8
0
10
73.0183657964099
20
23.4520713425999
30
0
0
VERTEX
8
0
10
73.7789737734558
20
23.7040514519773
30
0
0
VERTEX
8
0
10
74.5395817505018
20
23.9560315613548
30
0
0
VERTEX
8
0
10
75.3001897275477
20
24.0921517009774
30
0
0
VERTEX
8
0
10
76.0607977045936
20
24.2181417556661
30
0
0
VERTEX
8
0
10
76.8214056816396
20
24.3441318103549
30
0
0
VERTEX
8
0
10
77.5820136586855
20
24.4701218650436
30
0
0
VERTEX
8
0
10
78.3426216357314
20
24.5367781691096
30
0
0
VERTEX
8
0
10
79.1032296127774
20
24.6218214560245
30
0
0
VERTEX
8
0
10
79.8638375898233
20
24.7068647429394
30
0
0
VERTEX
8
0
10
80.6244455668692
20
24.7888260111388
30
0
0
VERTEX
8
0
10
81.3850535439152
20
24.8707195466865
30
0
0
VERTEX
8
0
10
82.1456615209611
20
24.9526130822342
30
0
0
VERTEX
8
0
10
82.906269498007
20
25.0553053537616
30
0
0
VERTEX
8
0
10
83.666877475053
20
25.1781456570831
30
0
0
VERTEX
8
0
10
84.4274854520989
20
25.3009859604046
30
0
0
VERTEX
8
0
10
85.1880934291449
20
25.4238262637261
30
0
0
VERTEX
8
0
10
85.9487014061908
20
25.5433990288605
30
0
0
VERTEX
8
0
10
86.7093093832367
20
25.6630895808148
30
0
0
VERTEX
8
0
10
87.4699173602827
20
25.7827801327691
30
0
0
VERTEX
8
0
10
88.2305253373286
20
25.8988998402448
30
0
0
VERTEX
8
0
10
88.9911333143745
20
26.0122908894647
30
0
0
VERTEX
8
0
10
89.7517412914205
20
26.1256819386846
30
0
0
VERTEX
8
0
10
90.5123492684664
20
26.2390729879044
30
0
0
VERTEX
8
0
10
91.2729572455123
20
26.2799498262919
30
0
0
VERTEX
8
0
10
92.0335652225583
20
26.3271960968002
30
0
0
VERTEX
8
0
10
92.7941731996042
20
26.3744423673084
30
0
0
VERTEX
8
0
10
93.5547811766501
20
26.4256305212385
30
0
0
VERTEX
8
0
10
94.3153891536961
20
26.4791762944812
30
0
0
VERTEX
8
0
10
95.075997130742
20
26.5327220677239
30
0
0
VERTEX
8
0
10
95.8366051077879
20
26.5862678409666
30
0
0
VERTEX
8
0
10
96.5972130848339
20
26.5779578029944
30
0
0
VERTEX
8
0
10
97.3578210618798
20
26.5779578029944
30
0
0
VERTEX
8
0
10
98.1184290389258
20
26.5779578029944
30
0
0
VERTEX
8
0
10
98.8790370159717
20
26.5197333510673
30
0
0
VERTEX
8
0
10
99.6396449930176
20
26.4346900641524
30
0
0
VERTEX
8
0
10
100.400252970064
20
26.3496467772375
30
0
0
VERTEX
8
0
10
101.160860947109
20
26.2646034903226
30
0
0
VERTEX
8
0
10
101.921468924155
20
26.1604397203982
30
0
0
VERTEX
8
0
10
102.682076901201
20
26.0596476766473
30
0
0
VERTEX
8
0
10
103.442684878247
20
25.9588556328963
30
0
0
VERTEX
8
0
10
104.203292855293
20
25.8744574537239
30
0
0
VERTEX
8
0
10
104.963900832339
20
25.7957136695435
30
0
0
VERTEX
8
0
10
105.724508809385
20
25.716969885363
30
0
0
VERTEX
8
0
10
106.485116786431
20
25.6382261011826
30
0
0
VERTEX
8
0
10
107.245724763477
20
25.5554727009286
30
0
0
VERTEX
8
0
10
108.006332740523
20
25.4735791653809
30
0
0
VERTEX
8
0
10
108.766940717569
20
25.3916856298333
30
0
0
VERTEX
8
0
10
109.527548694615
20
25.3552870965481
30
0
0
VERTEX
8
0
10
110.288156671661
20
25.3300890856103
30
0
0
VERTEX
8
0
10
111.048764648707
20
25.3048910746726
30
0
0
VERTEX
8
0
10
111.809372625753
20
25.2796930637348
30
0
0
VERTEX
8
0
10
112.569980602799
20
25.2293242395264
30
0
0
VERTEX
8
0
10
113.330588579844
20
25.1852277203854
30
0
0
VERTEX
8
0
10
114.09119655689
20
25.1411312012443
30
0
0
VERTEX
8
0
10
114.851804533936
20
25.1350169564655
30
0
0
VERTEX
8
0
10
115.612412510982
20
25.1350169564655
30
0
0
VERTEX
8
0
10
116.373020488028
20
25.1350169564655
30
0
0
VERTEX
8
0
10
117.133628465074
20
25.1350169564655
30
0
0
VERTEX
8
0
10
117.89423644212
20
25.0605458211814
30
0
0
VERTEX
8
0
10
118.654844419166
20
25.0070000479387
30
0
0
VERTEX
8
0
10
119.415452396212
20
24.953454274696
30
0
0
VERTEX
8
0
10
120.176060373258
20
24.9346909702801
30
0
0
VERTEX
8
0
10
120.936668350304
20
24.918942213444
30
0
0
VERTEX
8
0
10
121.69727632735
20
24.9031934566079
30
0
0
VERTEX
8
0
10
122.457884304396
20
24.8874446997718
30
0
0
VERTEX
8
0
10
123.218492281442
20
24.8716959429357
30
0
0
VERTEX
8
0
10
123.979100258488
20
24.8559471860996
30
0
0
VERTEX
8
0
10
124.739708235534
20
24.8401984292635
30
0
0
VERTEX
8
0
10
125.500316212579
20
24.7874409699414
30
0
0
VERTEX
8
0
10
126.260924189625
20
24.7338951966986
30
0
0
VERTEX
8
0
10
127.021532166671
20
24.6803494234559
30
0
0
VERTEX
8
0
10
127.782140143717
20
24.6540366742892
30
0
0
VERTEX
8
0
10
128.542748120763
20
24.6540366742892
30
0
0
VERTEX
8
0
10
129.303356097809
20
24.6540366742892
30
0
0
VERTEX
8
0
10
130.063964074855
20
24.6540366742892
30
0
0
VERTEX
8
0
10
130.824572051901
20
24.6540366742892
30
0
0
VERTEX
8
0
10
131.585180028947
20
24.6540366742892
30
0
0
VERTEX
8
0
10
132.345788005993
20
24.6540366742892
30
0
0
VERTEX
8
0
10
133.106395983039
20
24.6540366742892
30
0
0
VERTEX
8
0
10
133.867003960085
20
24.6540366742892
30
0
0
VERTEX
8
0
10
134.627611937131
20
24.6540366742892
30
0
0
VERTEX
8
0
10
135.388219914177
20
24.6540366742892
30
0
0
VERTEX
8
0
10
136.148827891223
20
24.6540366742892
30
0
0
VERTEX
8
0
10
136.909435868269
20
24.6540366742892
30
0
0
VERTEX
8
0
10
137.670043845315
20
24.6540366742892
30
0
0
VERTEX
8
0
10
138.430651822361
20
24.6540366742892
30
0
0
VERTEX
8
0
10
139.191259799407
20
24.6540366742892
30
0
0
VERTEX
8
0
10
139.951867776453
20
24.6540366742892
30
0
0
VERTEX
8
0
10
140.712475753498
20
24.6540366742892
30
0
0
VERTEX
8
0
10
141.473083730544
20
24.6649585251551
30
0
0
VERTEX
8
0
10
142.23369170759
20
24.6744077792568
30
0
0
VERTEX
8
0
10
142.994299684636
20
24.6838570333584
30
0
0
VERTEX
8
0
10
143.754907661682
20
24.7278423035804
30
0
0
VERTEX
8
0
10
144.515515638728
20
24.7876875795575
30
0
0
VERTEX
8
0
10
145.276123615774
20
24.8475328555347
30
0
0
VERTEX
8
0
10
146.03673159282
20
24.9073781315118
30
0
0
VERTEX
8
0
10
146.797339569866
20
24.8180040868387
30
0
0
VERTEX
8
0
10
147.557947546912
20
24.7550090594944
30
0
0
VERTEX
8
0
10
148.318555523958
20
24.69201403215
30
0
0
VERTEX
8
0
10
149.079163501004
20
24.5633864313902
30
0
0
VERTEX
8
0
10
149.83977147805
20
24.4121983657637
30
0
0
VERTEX
8
0
10
150.600379455096
20
24.2610103001372
30
0
0
VERTEX
8
0
10
151.360987432142
20
24.1098222345108
30
0
0
VERTEX
8
0
10
152.121595409188
20
23.9586341688843
30
0
0
VERTEX
8
0
10
152.882203386234
20
23.8074461032578
30
0
0
VERTEX
8
0
10
153.64281136328
20
23.6562580376313
30
0
0
VERTEX
8
0
10
154.403419340326
20
23.5161156297897
30
0
0
VERTEX
8
0
10
155.164027317371
20
23.3786814784667
30
0
0
SEQEND
8
0
0
POLYLINE
8
0
62
6
70
0
10
0
20
0
30
0
0
VERTEX
8
0
10
17.0923840701514
20
0
30
0
0
VERTEX
8
0
10
17.4939834720566
20
0.0940410074393469
30
0
0
VERTEX
8
0
10
18.2545914491025
20
0.279876338105224
30
0
0
VERTEX
8
0
10
19.0151994261484
20
0.4657116687711
30
0
0
VERTEX
8
0
10
19.7758074031944
20
0.651546999436977
30
0
0
VERTEX
8
0
10
20.5364153802403
20
1.05731464377803
30
0
0
VERTEX
8
0
10
21.2970233572863
20
1.39118828870316
30
0
0
VERTEX
8
0
10
22.0576313343322
20
1.72506193362828
30
0
0
VERTEX
8
0
10
22.8182393113781
20
2.33710024193978
30
0
0
VERTEX
8
0
10
23.5788472884241
20
2.9450022558129
30
0
0
VERTEX
8
0
10
24.33945526547
20
3.55290426968601
30
0
0
VERTEX
8
0
10
25.100063242516
20
4.12650270288621
30
0
0
VERTEX
8
0
10
25.8606712195619
20
4.67140968941496
30
0
0
VERTEX
8
0
10
26.6212791966078
20
5.21631667594371
30
0
0
VERTEX
8
0
10
27.3818871736538
20
5.76122366247246
30
0
0
VERTEX
8
0
10
28.1424951506997
20
6.17420088533197
30
0
0
VERTEX
8
0
10
28.9031031277456
20
6.59626756853922
30
0
0
VERTEX
8
0
10
29.6637111047916
20
7.01833425174646
30
0
0
VERTEX
8
0
10
30.4243190818375
20
7.3244583261334
30
0
0
VERTEX
8
0
10
31.1849270588835
20
7.55439017594033
30
0
0
VERTEX
8
0
10
31.9455350359294
20
7.78432202574726
30
0
0
VERTEX
8
0
10
32.7061430129753
20
8.01425387555419
30
0
0
VERTEX
8
0
10
33.4667509900213
20
8.21207072003915
30
0
0
VERTEX
8
0
10
34.2273589670672
20
8.41365480754111
30
0
0
VERTEX
8
0
10
34.9879669441131
20
8.61523889504307
30
0
0
VERTEX
8
0
10
35.7485749211591
20
8.86480599601272
30
0
0
VERTEX
8
0
10
36.509182898205
20
9.1388343649607
30
0
0
VERTEX
8
0
10
37.2697908752509
20
9.41286273390868
30
0
0
VERTEX
8
0
10
38.0303988522969
20
9.68689110285667
30
0
0
VERTEX
8
0
10
38.7910068293428
20
9.90085781746437
30
0
0
VERTEX
8
0
10
39.5516148063887
20
10.1244901645369
30
0
0
VERTEX
8
0
10
40.3122227834347
20
10.3481225116094
30
0
0
VERTEX
8
0
10
41.0728307604806
20
10.5354070595065
30
0
0
VERTEX
8
0
10
41.8334387375266
20
10.7086433847035
30
0
0
VERTEX
8
0
10
42.5940467145725
20
10.8818797099005
30
0
0
VERTEX
8
0
10
43.3546546916184
20
11.0551160350975
30
0
0
VERTEX
8
0
10
44.1152626686644
20
11.2204736145587
30
0
0
VERTEX
8
0
10
44.8758706457103
20
11.3874104370213
30
0
0
VERTEX
8
0
10
45.6364786227562
20
11.5543472594839
30
0
0
VERTEX
8
0
10
46.3970865998022
20
11.7114550542662
30
0
0
VERTEX
8
0
10
47.1576945768481
20
11.8657928712599
30
0
0
VERTEX
8
0
10
47.918302553894
20
12.0201306882536
30
0
0
VERTEX
8
0
10
48.67891053094
20
12.1744685052473
30
0
0
VERTEX
8
0
10
49.4395185079859
20
12.3246814299015
30
0
0
VERTEX
8
0
10
50.2001264850318
20
12.4758694955279
30
0
0
VERTEX
8
0
10
50.9607344620778
20
12.6270575611544
30
0
0
VERTEX
8
0
10
51.7213424391237
20
12.6646062419391
30
0
0
VERTEX
8
0
10
52.4819504161696
20
12.6803549987751
30
0
0
VERTEX
8
0
10
53.2425583932156
20
12.6961037556112
30
0
0
VERTEX
8
0
10
54.0031663702615
20
12.7118525124473
30
0
0
VERTEX
8
0
10
54.7637743473075
20
12.6413930330618
30
0
0
VERTEX
8
0
10
55.5243823243534
20
12.5941467625535
30
0
0
VERTEX
8
0
10
56.2849903013993
20
12.5469004920452
30
0
0
VERTEX
8
0
10
57.0455982784453
20
12.4006638663223
30
0
0
VERTEX
8
0
10
57.8062062554912
20
12.2431762979614
30
0
0
VERTEX
8
0
10
58.5668142325371
20
12.0856887296005
30
0
0
VERTEX
8
0
10
59.3274222095831
20
11.9282011612396
30
0
0
VERTEX
8
0
10
60.088030186629
20
11.8606322185324
30
0
0
VERTEX
8
0
10
60.8486381636749
20
11.7661396775159
30
0
0
VERTEX
8
0
10
61.6092461407209
20
11.6716471364993
30
0
0
VERTEX
8
0
10
62.3698541177668
20
11.6826381322036
30
0
0
VERTEX
8
0
10
63.1304620948127
20
11.6983868890397
30
0
0
VERTEX
8
0
10
63.8910700718587
20
11.7141356458758
30
0
0
VERTEX
8
0
10
64.6516780489046
20
11.7298844027119
30
0
0
VERTEX
8
0
10
65.4122860259505
20
12.2839999962915
30
0
0
VERTEX
8
0
10
66.1728940029965
20
12.6619701603577
30
0
0
VERTEX
8
0
10
66.9335019800424
20
13.0399403244239
30
0
0
VERTEX
8
0
10
67.6941099570883
20
13.5234885371041
30
0
0
VERTEX
8
0
10
68.4547179341343
20
14.0054004962885
30
0
0
VERTEX
8
0
10
69.2153259111802
20
14.4873124554728
30
0
0
VERTEX
8
0
10
69.9759338882262
20
14.9074045357448
30
0
0
VERTEX
8
0
10
70.7365418652721
20
15.2759254457093
30
0
0
VERTEX
8
0
10
71.497149842318
20
15.6444463556739
30
0
0
VERTEX
8
0
10
72.257757819364
20
16.0129672656384
30
0
0
VERTEX
8
0
10
73.0183657964099
20
16.3532810566188
30
0
0
VERTEX
8
0
10
73.7789737734558
20
16.6955540385232
30
0
0
VERTEX
8
0
10
74.5395817505018
20
17.0378270204276
30
0
0
VERTEX
8
0
10
75.3001897275477
20
17.3680493262402
30
0
0
VERTEX
8
0
10
76.0607977045936
20
17.6903738828188
30
0
0
VERTEX
8
0
10
76.8214056816396
20
18.0126984393975
30
0
0
VERTEX
8
0
10
77.5820136586855
20
18.3350229959762
30
0
0
VERTEX
8
0
10
78.3426216357314
20
18.4776387404869
30
0
0
VERTEX
8
0
10
79.1032296127774
20
18.6414258115822
30
0
0
VERTEX
8
0
10
79.8638375898233
20
18.8052128826776
30
0
0
VERTEX
8
0
10
80.6244455668692
20
18.9502056335559
30
0
0
VERTEX
8
0
10
81.3850535439152
20
19.0856449423463
30
0
0
VERTEX
8
0
10
82.1456615209611
20
19.2210842511367
30
0
0
VERTEX
8
0
10
82.906269498007
20
19.356523559927
30
0
0
VERTEX
8
0
10
83.666877475053
20
19.5821043060286
30
0
0
VERTEX
8
0
10
84.4274854520989
20
19.7931376476323
30
0
0
VERTEX
8
0
10
85.1880934291449
20
20.0041709892359
30
0
0
VERTEX
8
0
10
85.9487014061908
20
20.1924665581046
30
0
0
VERTEX
8
0
10
86.7093093832367
20
20.372002386036
30
0
0
VERTEX
8
0
10
87.4699173602827
20
20.5515382139674
30
0
0
VERTEX
8
0
10
88.2305253373286
20
20.7310740418989
30
0
0
VERTEX
8
0
10
88.9911333143745
20
20.8882751979038
30
0
0
VERTEX
8
0
10
89.7517412914205
20
21.0499624347544
30
0
0
VERTEX
8
0
10
90.5123492684664
20
21.2116496716049
30
0
0
VERTEX
8
0
10
91.2729572455123
20
21.5143365885077
30
0
0
VERTEX
8
0
10
92.0335652225583
20
21.8566095704121
30
0
0
VERTEX
8
0
10
92.7941731996042
20
22.1988825523165
30
0
0
VERTEX
8
0
10
93.5547811766501
20
22.5411555342209
30
0
0
VERTEX
8
0
10
94.3153891536961
20
22.9302004139897
30
0
0
VERTEX
8
0
10
95.075997130742
20
23.3081705780559
30
0
0
VERTEX
8
0
10
95.8366051077879
20
23.6861407421221
30
0
0
VERTEX
8
0
10
96.5972130848339
20
24.093203884572
30
0
0
VERTEX
8
0
10
97.3578210618798
20
24.5058213136776
30
0
0
VERTEX
8
0
10
98.1184290389258
20
24.9184387427831
30
0
0
VERTEX
8
0
10
98.8790370159717
20
25.3310561718887
30
0
0
VERTEX
8
0
10
99.6396449930176
20
25.5625506322775
30
0
0
VERTEX
8
0
10
100.400252970064
20
25.8428785039599
30
0
0
VERTEX
8
0
10
101.160860947109
20
26.1232063756423
30
0
0
VERTEX
8
0
10
101.921468924155
20
26.3554185406235
30
0
0
VERTEX
8
0
10
102.682076901201
20
26.5822006390632
30
0
0
VERTEX
8
0
10
103.442684878247
20
26.8089827375029
30
0
0
VERTEX
8
0
10
104.203292855293
20
27.0357648359427
30
0
0
VERTEX
8
0
10
104.963900832339
20
27.2670449054901
30
0
0
VERTEX
8
0
10
105.724508809385
20
27.496976755297
30
0
0
VERTEX
8
0
10
106.485116786431
20
27.7269086051039
30
0
0
VERTEX
8
0
10
107.245724763477
20
27.9387453239514
30
0
0
VERTEX
8
0
10
108.006332740523
20
28.149778665555
30
0
0
VERTEX
8
0
10
108.766940717569
20
28.3608120071586
30
0
0
VERTEX
8
0
10
109.527548694615
20
28.5718453487623
30
0
0
VERTEX
8
0
10
110.288156671661
20
28.6845253882001
30
0
0
VERTEX
8
0
10
111.048764648707
20
28.8294139510921
30
0
0
VERTEX
8
0
10
111.809372625753
20
28.9743025139841
30
0
0
VERTEX
8
0
10
112.569980602799
20
29.2216350650847
30
0
0
VERTEX
8
0
10
113.330588579844
20
29.4673156717278
30
0
0
VERTEX
8
0
10
114.09119655689
20
29.7129962783708
30
0
0
VERTEX
8
0
10
114.851804533936
20
29.9775887305346
30
0
0
VERTEX
8
0
10
115.612412510982
20
30.257916602217
30
0
0
VERTEX
8
0
10
116.373020488028
20
30.5382444738995
30
0
0
VERTEX
8
0
10
117.133628465074
20
30.8185723455819
30
0
0
VERTEX
8
0
10
117.89423644212
20
31.0379361234081
30
0
0
VERTEX
8
0
10
118.654844419166
20
31.2615684704806
30
0
0
VERTEX
8
0
10
119.415452396212
20
31.4852008175531
30
0
0
VERTEX
8
0
10
120.176060373258
20
31.6878806049171
30
0
0
VERTEX
8
0
10
120.936668350304
20
31.8768656869502
30
0
0
VERTEX
8
0
10
121.69727632735
20
32.0658507689833
30
0
0
VERTEX
8
0
10
122.457884304396
20
32.2548358510164
30
0
0
VERTEX
8
0
10
123.218492281442
20
32.4223864516011
30
0
0
VERTEX
8
0
10
123.979100258488
20
32.5924730254309
30
0
0
VERTEX
8
0
10
124.739708235534
20
32.7625595992607
30
0
0
VERTEX
8
0
10
125.500316212579
20
32.8218603988636
30
0
0
VERTEX
8
0
10
126.260924189625
20
32.8250101502309
30
0
0
VERTEX
8
0
10
127.021532166671
20
32.8281599015981
30
0
0
VERTEX
8
0
10
127.782140143717
20
32.8313096529653
30
0
0
VERTEX
8
0
10
128.542748120763
20
32.8344594043325
30
0
0
VERTEX
8
0
10
129.303356097809
20
32.8376091556997
30
0
0
VERTEX
8
0
10
130.063964074855
20
32.840758907067
30
0
0
VERTEX
8
0
10
130.824572051901
20
32.8871491833062
30
0
0
VERTEX
8
0
10
131.585180028947
20
32.9501442106505
30
0
0
VERTEX
8
0
10
132.345788005993
20
33.0131392379949
30
0
0
VERTEX
8
0
10
133.106395983039
20
33.0761342653393
30
0
0
VERTEX
8
0
10
133.867003960085
20
33.1430727452016
30
0
0
VERTEX
8
0
10
134.627611937131
20
33.2092175239132
30
0
0
VERTEX
8
0
10
135.388219914177
20
33.2753623026247
30
0
0
VERTEX
8
0
10
136.148827891223
20
33.3661204470376
30
0
0
VERTEX
8
0
10
136.909435868269
20
33.4637627394214
30
0
0
VERTEX
8
0
10
137.670043845315
20
33.5614050318052
30
0
0
VERTEX
8
0
10
138.430651822361
20
33.6590473241889
30
0
0
VERTEX
8
0
10
139.191259799407
20
33.8392690563636
30
0
0
VERTEX
8
0
10
139.951867776453
20
33.9999063760917
30
0
0
VERTEX
8
0
10
140.712475753498
20
34.1605436958198
30
0
0
VERTEX
8
0
10
141.473083730544
20
34.3661775682575
30
0
0
VERTEX
8
0
10
142.23369170759
20
34.5803606612283
30
0
0
VERTEX
8
0
10
142.994299684636
20
34.7945437541992
30
0
0
VERTEX
8
0
10
143.754907661682
20
35.00872684717
30
0
0
VERTEX
8
0
10
144.515515638728
20
35.3609736668976
30
0
0
VERTEX
8
0
10
145.276123615774
20
35.6759488036194
30
0
0
VERTEX
8
0
10
146.03673159282
20
35.9909239403413
30
0
0
VERTEX
8
0
10
146.797339569866
20
36.263413444363
30
0
0
VERTEX
8
0
10
147.557947546912
20
36.5311423105765
30
0
0
VERTEX
8
0
10
148.318555523958
20
36.7988711767901
30
0
0
VERTEX
8
0
10
149.079163501004
20
37.0666000430036
30
0
0
VERTEX
8
0
10
149.83977147805
20
37.2983288217551
30
0
0
VERTEX
8
0
10
150.600379455096
20
37.5408596770309
30
0
0
VERTEX
8
0
10
151.360987432142
20
37.7833905323067
30
0
0
VERTEX
8
0
10
152.121595409188
20
38.1315477120557
30
0
0
VERTEX
8
0
10
152.882203386234
20
38.4843198651841
30
0
0
VERTEX
8
0
10
153.64281136328
20
38.8370920183126
30
0
0
VERTEX
8
0
10
154.403419340326
20
39.189864171441
30
0
0
VERTEX
8
0
10
155.164027317371
20
39.4669984766134
30
0
0
SEQEND
8
0
0
POLYLINE
8
0
62
6
70
0
10
0
20
0
30
0
0
VERTEX
8
0
10
14.4515515638728
20
17.1095598911004
30
0
0
VERTEX
8
0
10
15.2121595409188
20
17.7899061864195
30
0
0
VERTEX
8
0
10
15.9727675179647
20
18.4702524817386
30
0
0
VERTEX
8
0
10
16.7333754950106
20
19.1450501391484
30
0
0
VERTEX
8
0
10
17.4939834720566
20
19.8159471803658
30
0
0
VERTEX
8
0
10
18.2545914491025
20
20.4868442215833
30
0
0
VERTEX
8
0
10
19.0151994261484
20
21.1577412628008
30
0
0
VERTEX
8
0
10
19.7758074031944
20
21.7969836715153
30
0
0
VERTEX
8
0
10
20.5364153802403
20
22.4395329504279
30
0
0
VERTEX
8
0
10
21.2970233572863
20
23.0820822293404
30
0
0
VERTEX
8
0
10
22.0576313343322
20
23.7348068354599
30
0
0
VERTEX
8
0
10
22.8182393113781
20
24.3931048712085
30
0
0
VERTEX
8
0
10
23.5788472884241
20
25.0514029069571
30
0
0
VERTEX
8
0
10
24.33945526547
20
25.7097009427058
30
0
0
VERTEX
8
0
10
25.100063242516
20
26.3679989784544
30
0
0
VERTEX
8
0
10
25.8606712195619
20
27.026297014203
30
0
0
VERTEX
8
0
10
26.6212791966078
20
27.6845950499516
30
0
0
VERTEX
8
0
10
27.3818871736538
20
28.3384519158741
30
0
0
VERTEX
8
0
10
28.1424951506997
20
28.9904504488883
30
0
0
VERTEX
8
0
10
28.9031031277456
20
29.6424489819025
30
0
0
VERTEX
8
0
10
29.6637111047916
20
30.2944475149167
30
0
0
VERTEX
8
0
10
30.4243190818375
20
30.8725698616147
30
0
0
VERTEX
8
0
10
31.1849270588835
20
31.4647231186518
30
0
0
VERTEX
8
0
10
31.9455350359294
20
32.0568763756888
30
0
0
VERTEX
8
0
10
32.7061430129753
20
32.6105319625719
30
0
0
VERTEX
8
0
10
33.4667509900213
20
33.1522891977334
30
0
0
VERTEX
8
0
10
34.2273589670672
20
33.694046432895
30
0
0
VERTEX
8
0
10
34.9879669441131
20
34.2358036680565
30
0
0
VERTEX
8
0
10
35.7485749211591
20
34.7897821226301
30
0
0
VERTEX
8
0
10
36.509182898205
20
35.3409886118933
30
0
0
VERTEX
8
0
10
37.2697908752509
20
35.8921951011565
30
0
0
VERTEX
8
0
10
38.0303988522969
20
36.4304434711385
30
0
0
VERTEX
8
0
10
38.7910068293428
20
36.9659012035657
30
0
0
VERTEX
8
0
10
39.5516148063887
20
37.5013589359927
30
0
0
VERTEX
8
0
10
40.3122227834347
20
38.0368166684198
30
0
0
VERTEX
8
0
10
41.0728307604806
20
38.5296818080906
30
0
0
VERTEX
8
0
10
41.8334387375266
20
39.0336420268455
30
0
0
VERTEX
8
0
10
42.5940467145725
20
39.5376022456004
30
0
0
VERTEX
8
0
10
43.3546546916184
20
40.0276767477162
30
0
0
VERTEX
8
0
10
44.1152626686644
20
40.515888209635
30
0
0
VERTEX
8
0
10
44.8758706457103
20
41.0040996715538
30
0
0
VERTEX
8
0
10
45.6364786227562
20
41.4923111334726
30
0
0
VERTEX
8
0
10
46.3970865998022
20
41.9671882591497
30
0
0
VERTEX
8
0
10
47.1576945768481
20
42.4459504669669
30
0
0
VERTEX
8
0
10
47.918302553894
20
42.9247126747841
30
0
0
VERTEX
8
0
10
48.67891053094
20
43.3945868942029
30
0
0
VERTEX
8
0
10
49.4395185079859
20
43.8638998479184
30
0
0
VERTEX
8
0
10
50.2001264850318
20
44.333212801634
30
0
0
VERTEX
8
0
10
50.9607344620778
20
44.8025257553495
30
0
0
VERTEX
8
0
10
51.7213424391237
20
45.1838630429069
30
0
0
VERTEX
8
0
10
52.4819504161696
20
45.5933307206453
30
0
0
VERTEX
8
0
10
53.2425583932156
20
46.0027983983837
30
0
0
VERTEX
8
0
10
54.0031663702615
20
46.3807842534116
30
0
0
VERTEX
8
0
10
54.7637743473075
20
46.7587544174778
30
0
0
VERTEX
8
0
10
55.5243823243534
20
47.136724581544
30
0
0
VERTEX
8
0
10
56.2849903013993
20
47.5113626129637
30
0
0
VERTEX
8
0
10
57.0455982784453
20
47.8830332742955
30
0
0
VERTEX
8
0
10
57.8062062554912
20
48.2547039356272
30
0
0
VERTEX
8
0
10
58.5668142325371
20
48.626374596959
30
0
0
VERTEX
8
0
10
59.3274222095831
20
49.0080463635186
30
0
0
VERTEX
8
0
10
60.088030186629
20
49.389166278952
30
0
0
VERTEX
8
0
10
60.8486381636749
20
49.7702861943854
30
0
0
VERTEX
8
0
10
61.6092461407209
20
50.1865862399208
30
0
0
VERTEX
8
0
10
62.3698541177668
20
50.6275514313313
30
0
0
VERTEX
8
0
10
63.1304620948127
20
51.0685166227419
30
0
0
VERTEX
8
0
10
63.8910700718587
20
51.5094818141524
30
0
0
VERTEX
8
0
10
64.6516780489046
20
52.0701005268474
30
0
0
VERTEX
8
0
10
65.4122860259505
20
52.6181572647434
30
0
0
VERTEX
8
0
10
66.1728940029965
20
53.1662140026393
30
0
0
VERTEX
8
0
10
66.9335019800424
20
53.7427902142655
30
0
0
VERTEX
8
0
10
67.6941099570883
20
54.3349434713025
30
0
0
VERTEX
8
0
10
68.4547179341343
20
54.9270967283395
30
0
0
VERTEX
8
0
10
69.2153259111802
20
55.5192499853765
30
0
0
VERTEX
8
0
10
69.9759338882262
20
56.1151079830994
30
0
0
VERTEX
8
0
10
70.7365418652721
20
56.7104109915037
30
0
0
VERTEX
8
0
10
71.497149842318
20
57.3057139999079
30
0
0
VERTEX
8
0
10
72.257757819364
20
57.89212650936
30
0
0
VERTEX
8
0
10
73.0183657964099
20
58.4748305122953
30
0
0
VERTEX
8
0
10
73.7789737734558
20
59.0575345152307
30
0
0
VERTEX
8
0
10
74.5395817505018
20
59.6402385181661
30
0
0
VERTEX
8
0
10
75.3001897275477
20
60.1179054968501
30
0
0
VERTEX
8
0
10
76.0607977045936
20
60.6155662128705
30
0
0
VERTEX
8
0
10
76.8214056816396
20
61.113226928891
30
0
0
VERTEX
8
0
10
77.5820136586855
20
61.579581770186
30
0
0
VERTEX
8
0
10
78.3426216357314
20
62.0362957184326
30
0
0
VERTEX
8
0
10
79.1032296127774
20
62.4930096666793
30
0
0
VERTEX
8
0
10
79.8638375898233
20
62.9497236149259
30
0
0
VERTEX
8
0
10
80.6244455668692
20
63.3656797668819
30
0
0
VERTEX
8
0
10
81.3850535439152
20
63.7908962014564
30
0
0
VERTEX
8
0
10
82.1456615209611
20
64.2161126360308
30
0
0
VERTEX
8
0
10
82.906269498007
20
64.6646720437366
30
0
0
VERTEX
8
0
10
83.666877475053
20
65.118236240616
30
0
0
VERTEX
8
0
10
84.4274854520989
20
65.5718004374955
30
0
0
VERTEX
8
0
10
85.1880934291449
20
66.0253646343749
30
0
0
VERTEX
8
0
10
85.9487014061908
20
66.4917127285563
30
0
0
VERTEX
8
0
10
86.7093093832367
20
66.9547261795374
30
0
0
VERTEX
8
0
10
87.4699173602827
20
67.4177396305185
30
0
0
VERTEX
8
0
10
88.2305253373286
20
67.8474028836652
30
0
0
VERTEX
8
0
10
88.9911333143745
20
68.2726193182397
30
0
0
VERTEX
8
0
10
89.7517412914205
20
68.6978357528141
30
0
0
VERTEX
8
0
10
90.5123492684664
20
69.1230521873886
30
0
0
VERTEX
8
0
10
91.2729572455123
20
69.6060772634026
30
0
0
VERTEX
8
0
10
92.0335652225583
20
70.0722404657509
30
0
0
VERTEX
8
0
10
92.7941731996042
20
70.5384036680992
30
0
0
VERTEX
8
0
10
93.5547811766501
20
71.0045668704474
30
0
0
VERTEX
8
0
10
94.3153891536961
20
71.4707300727957
30
0
0
VERTEX
8
0
10
95.075997130742
20
71.936893275144
30
0
0
VERTEX
8
0
10
95.8366051077879
20
72.4030564774923
30
0
0
VERTEX
8
0
10
96.5972130848339
20
72.8599550037529
30
0
0
VERTEX
8
0
10
97.3578210618798
20
73.3198187033667
30
0
0
VERTEX
8
0
10
98.1184290389258
20
73.7796824029806
30
0
0
VERTEX
8
0
10
98.8790370159717
20
74.2143443258259
30
0
0
VERTEX
8
0
10
99.6396449930176
20
74.649010014502
30
0
0
VERTEX
8
0
10
100.400252970064
20
75.0836757031781
30
0
0
VERTEX
8
0
10
101.160860947109
20
75.4766387381476
30
0
0
VERTEX
8
0
10
101.921468924155
20
75.8325606426433
30
0
0
VERTEX
8
0
10
102.682076901201
20
76.1884825471389
30
0
0
VERTEX
8
0
10
103.442684878247
20
76.5444044516346
30
0
0
VERTEX
8
0
10
104.203292855293
20
76.933683771807
30
0
0
VERTEX
8
0
10
104.963900832339
20
77.3211031899748
30
0
0
VERTEX
8
0
10
105.724508809385
20
77.7085226081427
30
0
0
VERTEX
8
0
10
106.485116786431
20
78.0903811494509
30
0
0
VERTEX
8
0
10
107.245724763477
20
78.4683513135171
30
0
0
VERTEX
8
0
10
108.006332740523
20
78.8463214775833
30
0
0
VERTEX
8
0
10
108.766940717569
20
79.2242916416494
30
0
0
VERTEX
8
0
10
109.527548694615
20
79.5811342394799
30
0
0
VERTEX
8
0
10
110.288156671661
20
79.9402058953428
30
0
0
VERTEX
8
0
10
111.048764648707
20
80.2992775512057
30
0
0
VERTEX
8
0
10
111.809372625753
20
80.6848580932577
30
0
0
VERTEX
8
0
10
112.569980602799
20
81.0848765168945
30
0
0
VERTEX
8
0
10
113.330588579844
20
81.4848949405312
30
0
0
VERTEX
8
0
10
114.09119655689
20
81.8849133641679
30
0
0
VERTEX
8
0
10
114.851804533936
20
82.2886385683155
30
0
0
VERTEX
8
0
10
115.612412510982
20
82.6918067433194
30
0
0
VERTEX
8
0
10
116.373020488028
20
83.0949749183233
30
0
0
VERTEX
8
0
10
117.133628465074
20
83.491469099638
30
0
0
VERTEX
8
0
10
117.89423644212
20
83.8851880205403
30
0
0
VERTEX
8
0
10
118.654844419166
20
84.2789069414426
30
0
0
VERTEX
8
0
10
119.415452396212
20
84.6726258623448
30
0
0
VERTEX
8
0
10
120.176060373258
20
85.0624524832646
30
0
0
VERTEX
8
0
10
120.936668350304
20
85.4530216527997
30
0
0
VERTEX
8
0
10
121.69727632735
20
85.8435908223347
30
0
0
VERTEX
8
0
10
122.457884304396
20
86.2052377834536
30
0
0
VERTEX
8
0
10
123.218492281442
20
86.558009936582
30
0
0
VERTEX
8
0
10
123.979100258488
20
86.9107820897105
30
0
0
VERTEX
8
0
10
124.739708235534
20
87.2635542428389
30
0
0
VERTEX
8
0
10
125.500316212579
20
87.5837038403346
30
0
0
VERTEX
8
0
10
126.260924189625
20
87.9112779825253
30
0
0
VERTEX
8
0
10
127.021532166671
20
88.238852124716
30
0
0
VERTEX
8
0
10
127.782140143717
20
88.5378735283375
30
0
0
VERTEX
8
0
10
128.542748120763
20
88.8308004054888
30
0
0
VERTEX
8
0
10
129.303356097809
20
89.1237272826401
30
0
0
VERTEX
8
0
10
130.063964074855
20
89.4166541597914
30
0
0
VERTEX
8
0
10
130.824572051901
20
89.747951087274
30
0
0
VERTEX
8
0
10
131.585180028947
20
90.0692257267303
30
0
0
VERTEX
8
0
10
132.345788005993
20
90.3905003661865
30
0
0
VERTEX
8
0
10
133.106395983039
20
90.7089937826649
30
0
0
VERTEX
8
0
10
133.867003960085
20
91.027118670754
30
0
0
VERTEX
8
0
10
134.627611937131
20
91.345243558843
30
0
0
VERTEX
8
0
10
135.388219914177
20
91.663368446932
30
0
0
VERTEX
8
0
10
136.148827891223
20
91.9992887686103
30
0
0
VERTEX
8
0
10
136.909435868269
20
92.3300126621682
30
0
0
VERTEX
8
0
10
137.670043845315
20
92.6607365557261
30
0
0
VERTEX
8
0
10
138.430651822361
20
93.0003606766326
30
0
0
VERTEX
8
0
10
139.191259799407
20
93.3405338242921
30
0
0
VERTEX
8
0
10
139.951867776453
20
93.6807069719517
30
0
0
VERTEX
8
0
10
140.712475753498
20
94.0208801196113
30
0
0
VERTEX
8
0
10
141.473083730544
20
94.4166658016978
30
0
0
VERTEX
8
0
10
142.23369170759
20
94.794635965764
30
0
0
VERTEX
8
0
10
142.994299684636
20
95.1726061298302
30
0
0
VERTEX
8
0
10
143.754907661682
20
95.5884034369496
30
0
0
VERTEX
8
0
10
144.515515638728
20
96.0041706174224
30
0
0
VERTEX
8
0
10
145.276123615774
20
96.4199377978952
30
0
0
VERTEX
8
0
10
146.03673159282
20
96.8190035186351
30
0
0
VERTEX
8
0
10
146.797339569866
20
97.2032731854357
30
0
0
VERTEX
8
0
10
147.557947546912
20
97.5875428522363
30
0
0
VERTEX
8
0
10
148.318555523958
20
97.971812519037
30
0
0
VERTEX
8
0
10
149.079163501004
20
98.2993399021615
30
0
0
VERTEX
8
0
10
149.83977147805
20
98.6300637957194
30
0
0
VERTEX
8
0
10
150.600379455096
20
98.9607876892774
30
0
0
VERTEX
8
0
10
151.360987432142
20
99.3174908990639
30
0
0
VERTEX
8
0
10
152.121595409188
20
99.6923113117629
30
0
0
VERTEX
8
0
10
152.882203386234
20
100.067131724462
30
0
0
VERTEX
8
0
10
153.64281136328
20
100.441952137161
30
0
0
VERTEX
8
0
10
154.403419340326
20
100.820019513401
30
0
0
VERTEX
8
0
10
155.164027317371
20
101.197742638145
30
0
0
SEQEND
8
0
0
POLYLINE
8
0
62
1
70
0
10
0
20
0
30
0
0
VERTEX
8
0
10
14.4515515638728
20
10.0577482924258
30
0
0
VERTEX
8
0
10
15.2121595409188
20
10.4514672133281
30
0
0
VERTEX
8
0
10
15.9727675179647
20
10.8451861342304
30
0
0
VERTEX
8
0
10
16.7333754950106
20
11.2389050551327
30
0
0
VERTEX
8
0
10
17.4939834720566
20
11.5649122141391
30
0
0
VERTEX
8
0
10
18.2545914491025
20
11.9079924584243
30
0
0
VERTEX
8
0
10
19.0151994261484
20
12.2537292013518
30
0
0
VERTEX
8
0
10
19.7758074031944
20
12.5767034120451
30
0
0
VERTEX
8
0
10
20.5364153802403
20
12.9118537747103
30
0
0
VERTEX
8
0
10
21.2970233572863
20
13.2504006812508
30
0
0
VERTEX
8
0
10
22.0576313343322
20
13.5957262786315
30
0
0
VERTEX
8
0
10
22.8182393113781
20
13.912590649166
30
0
0
VERTEX
8
0
10
23.5788472884241
20
14.270895439037
30
0
0
VERTEX
8
0
10
24.33945526547
20
14.6499029861522
30
0
0
VERTEX
8
0
10
25.100063242516
20
15.038600227884
30
0
0
VERTEX
8
0
10
25.8606712195619
20
15.4341283310962
30
0
0
VERTEX
8
0
10
26.6212791966078
20
15.8424372559734
30
0
0
VERTEX
8
0
10
27.3818871736538
20
16.2625643556061
30
0
0
VERTEX
8
0
10
28.1424951506997
20
16.648292638083
30
0
0
VERTEX
8
0
10
28.9031031277456
20
17.0414464929783
30
0
0
VERTEX
8
0
10
29.6637111047916
20
17.4395933984719
30
0
0
VERTEX
8
0
10
30.4243190818375
20
17.74425690099
30
0
0
VERTEX
8
0
10
31.1849270588835
20
18.0146402913381
30
0
0
VERTEX
8
0
10
31.9455350359294
20
18.2859357316981
30
0
0
VERTEX
8
0
10
32.7061430129753
20
18.5581032231424
30
0
0
VERTEX
8
0
10
33.4667509900213
20
18.7842362582485
30
0
0
VERTEX
8
0
10
34.2273589670672
20
19.0228116854078
30
0
0
VERTEX
8
0
10
34.9879669441131
20
19.2619886077563
30
0
0
VERTEX
8
0
10
35.7485749211591
20
19.5289736829032
30
0
0
VERTEX
8
0
10
36.509182898205
20
19.808415255585
30
0
0
VERTEX
8
0
10
37.2697908752509
20
20.0892016145633
30
0
0
VERTEX
8
0
10
38.0303988522969
20
20.3530060946918
30
0
0
VERTEX
8
0
10
38.7910068293428
20
20.5715687940905
30
0
0
VERTEX
8
0
10
39.5516148063887
20
20.7955817074338
30
0
0
VERTEX
8
0
10
40.3122227834347
20
21.0204190814179
30
0
0
VERTEX
8
0
10
41.0728307604806
20
21.2109845019299
30
0
0
VERTEX
8
0
10
41.8334387375266
20
21.395651796346
30
0
0
VERTEX
8
0
10
42.5940467145725
20
21.5807253063625
30
0
0
VERTEX
8
0
10
43.3546546916184
20
21.7554419767752
30
0
0
VERTEX
8
0
10
44.1152626686644
20
21.9183497967546
30
0
0
VERTEX
8
0
10
44.8758706457103
20
22.082486222616
30
0
0
VERTEX
8
0
10
45.6364786227562
20
22.2470393658795
30
0
0
VERTEX
8
0
10
46.3970865998022
20
22.398035446134
30
0
0
VERTEX
8
0
10
47.1576945768481
20
22.5487166427068
30
0
0
VERTEX
8
0
10
47.918302553894
20
22.6997424224532
30
0
0
VERTEX
8
0
10
48.67891053094
20
22.8344463778905
30
0
0
VERTEX
8
0
10
49.4395185079859
20
22.9573886719836
30
0
0
VERTEX
8
0
10
50.2001264850318
20
23.0812908166748
30
0
0
VERTEX
8
0
10
50.9607344620778
20
23.2056258711488
30
0
0
VERTEX
8
0
10
51.7213424391237
20
23.2591886189527
30
0
0
VERTEX
8
0
10
52.4819504161696
20
23.3021101441164
30
0
0
VERTEX
8
0
10
53.2425583932156
20
23.3450351991019
30
0
0
VERTEX
8
0
10
54.0031663702615
20
23.364459373201
30
0
0
VERTEX
8
0
10
54.7637743473075
20
23.3261995472921
30
0
0
VERTEX
8
0
10
55.5243823243534
20
23.3006287507544
30
0
0
VERTEX
8
0
10
56.2849903013993
20
23.2751257668145
30
0
0
VERTEX
8
0
10
57.0455982784453
20
23.1966211295796
30
0
0
VERTEX
8
0
10
57.8062062554912
20
23.1128131859086
30
0
0
VERTEX
8
0
10
58.5668142325371
20
23.0297772367112
30
0
0
VERTEX
8
0
10
59.3274222095831
20
23.0015175232888
30
0
0
VERTEX
8
0
10
60.088030186629
20
23.039416959099
30
0
0
VERTEX
8
0
10
60.8486381636749
20
23.0640186564443
30
0
0
VERTEX
8
0
10
61.6092461407209
20
23.089294093937
30
0
0
VERTEX
8
0
10
62.3698541177668
20
23.2444312927412
30
0
0
VERTEX
8
0
10
63.1304620948127
20
23.3858620983172
30
0
0
VERTEX
8
0
10
63.8910700718587
20
23.5274657030935
30
0
0
VERTEX
8
0
10
64.6516780489046
20
23.7087331898054
30
0
0
VERTEX
8
0
10
65.4122860259505
20
24.1692197201025
30
0
0
VERTEX
8
0
10
66.1728940029965
20
24.544037342282
30
0
0
VERTEX
8
0
10
66.9335019800424
20
24.9207373340449
30
0
0
VERTEX
8
0
10
67.6941099570883
20
25.4050646880123
30
0
0
VERTEX
8
0
10
68.4547179341343
20
25.8790038546582
30
0
0
VERTEX
8
0
10
69.2153259111802
20
26.3557020392406
30
0
0
VERTEX
8
0
10
69.9759338882262
20
26.8343796134662
30
0
0
VERTEX
8
0
10
70.7365418652721
20
27.2908805105453
30
0
0
VERTEX
8
0
10
71.497149842318
20
27.7480605955404
30
0
0
VERTEX
8
0
10
72.257757819364
20
28.2058868422598
30
0
0
VERTEX
8
0
10
73.0183657964099
20
28.5907231733505
30
0
0
VERTEX
8
0
10
73.7789737734558
20
28.9935092717532
30
0
0
VERTEX
8
0
10
74.5395817505018
20
29.396921569216
30
0
0
VERTEX
8
0
10
75.3001897275477
20
29.6998469858284
30
0
0
VERTEX
8
0
10
76.0607977045936
20
29.9911273247849
30
0
0
VERTEX
8
0
10
76.8214056816396
20
30.2835608650734
30
0
0
VERTEX
8
0
10
77.5820136586855
20
30.5771145197361
30
0
0
VERTEX
8
0
10
78.3426216357314
20
30.7160644670511
30
0
0
VERTEX
8
0
10
79.1032296127774
20
30.8826302005039
30
0
0
VERTEX
8
0
10
79.8638375898233
20
31.0493993015763
30
0
0
VERTEX
8
0
10
80.6244455668692
20
31.2025029214736
30
0
0
VERTEX
8
0
10
81.3850535439152
20
31.3498729444833
30
0
0
VERTEX
8
0
10
82.1456615209611
20
31.4973487681262
30
0
0
VERTEX
8
0
10
82.906269498007
20
31.6613854828914
30
0
0
VERTEX
8
0
10
83.666877475053
20
31.896674243273
30
0
0
VERTEX
8
0
10
84.4274854520989
20
32.1233277931585
30
0
0
VERTEX
8
0
10
85.1880934291449
20
32.3502364574776
30
0
0
VERTEX
8
0
10
85.9487014061908
20
32.5607269520778
30
0
0
VERTEX
8
0
10
86.7093093832367
20
32.766028872135
30
0
0
VERTEX
8
0
10
87.4699173602827
20
32.9714645464055
30
0
0
VERTEX
8
0
10
88.2305253373286
20
33.1742436818947
30
0
0
VERTEX
8
0
10
88.9911333143745
20
33.3610449186097
30
0
0
VERTEX
8
0
10
89.7517412914205
20
33.5507403087604
30
0
0
VERTEX
8
0
10
90.5123492684664
20
33.7405250856514
30
0
0
VERTEX
8
0
10
91.2729572455123
20
33.9632513419434
30
0
0
VERTEX
8
0
10
92.0335652225583
20
34.2174317597449
30
0
0
VERTEX
8
0
10
92.7941731996042
20
34.4732011388269
30
0
0
VERTEX
8
0
10
93.5547811766501
20
34.7335233062087
30
0
0
VERTEX
8
0
10
94.3153891536961
20
35.0277157157007
30
0
0
VERTEX
8
0
10
95.075997130742
20
35.3165139278898
30
0
0
VERTEX
8
0
10
95.8366051077879
20
35.6070625152824
30
0
0
VERTEX
8
0
10
96.5972130848339
20
35.8729747080069
30
0
0
VERTEX
8
0
10
97.3578210618798
20
36.1513916638854
30
0
0
VERTEX
8
0
10
98.1184290389258
20
36.4323541698253
30
0
0
VERTEX
8
0
10
98.8790370159717
20
36.6736780783588
30
0
0
VERTEX
8
0
10
99.6396449930176
20
36.7727729932833
30
0
0
VERTEX
8
0
10
100.400252970064
20
36.907428177206
30
0
0
VERTEX
8
0
10
101.160860947109
20
37.0439105366627
30
0
0
VERTEX
8
0
10
101.921468924155
20
37.1345754360546
30
0
0
VERTEX
8
0
10
102.682076901201
20
37.225241810449
30
0
0
VERTEX
8
0
10
103.442684878247
20
37.3173383454566
30
0
0
VERTEX
8
0
10
104.203292855293
20
37.422187653703
30
0
0
VERTEX
8
0
10
104.963900832339
20
37.5354576580476
30
0
0
VERTEX
8
0
10
105.724508809385
20
37.6489876459648
30
0
0
VERTEX
8
0
10
106.485116786431
20
37.7637405246242
30
0
0
VERTEX
8
0
10
107.245724763477
20
37.8636458261024
30
0
0
VERTEX
8
0
10
108.006332740523
20
37.9646318883071
30
0
0
VERTEX
8
0
10
108.766940717569
20
38.0666961638343
30
0
0
VERTEX
8
0
10
109.527548694615
20
38.2000121777725
30
0
0
VERTEX
8
0
10
110.288156671661
20
38.2676810093223
30
0
0
VERTEX
8
0
10
111.048764648707
20
38.3597786889402
30
0
0
VERTEX
8
0
10
111.809372625753
20
38.452218239895
30
0
0
VERTEX
8
0
10
112.569980602799
20
38.6059938022601
30
0
0
VERTEX
8
0
10
113.330588579844
20
38.7636219698949
30
0
0
VERTEX
8
0
10
114.09119655689
20
38.9222125002762
30
0
0
VERTEX
8
0
10
114.851804533936
20
39.1206454892923
30
0
0
VERTEX
8
0
10
115.612412510982
20
39.3358690574967
30
0
0
VERTEX
8
0
10
116.373020488028
20
39.5519083351165
30
0
0
VERTEX
8
0
10
117.133628465074
20
39.7687500284038
30
0
0
VERTEX
8
0
10
117.89423644212
20
39.8921600775929
30
0
0
VERTEX
8
0
10
118.654844419166
20
40.0329328757231
30
0
0
VERTEX
8
0
10
119.415452396212
20
40.1745286314723
30
0
0
VERTEX
8
0
10
120.176060373258
20
40.3219616464136
30
0
0
VERTEX
8
0
10
120.936668350304
20
40.460947184425
30
0
0
VERTEX
8
0
10
121.69727632735
20
40.6003427310158
30
0
0
VERTEX
8
0
10
122.457884304396
20
40.7401440775584
30
0
0
VERTEX
8
0
10
123.218492281442
20
40.863338119821
30
0
0
VERTEX
8
0
10
123.979100258488
20
40.9888693236544
30
0
0
VERTEX
8
0
10
124.739708235534
20
41.1147269174963
30
0
0
VERTEX
8
0
10
125.500316212579
20
41.1301805233191
30
0
0
VERTEX
8
0
10
126.260924189625
20
41.1004484521037
30
0
0
VERTEX
8
0
10
127.021532166671
20
41.0707649087374
30
0
0
VERTEX
8
0
10
127.782140143717
20
41.0574770031731
30
0
0
VERTEX
8
0
10
128.542748120763
20
41.0599957222593
30
0
0
VERTEX
8
0
10
129.303356097809
20
41.0625145284564
30
0
0
VERTEX
8
0
10
130.063964074855
20
41.0650334217482
30
0
0
VERTEX
8
0
10
130.824572051901
20
41.1021423497879
30
0
0
VERTEX
8
0
10
131.585180028947
20
41.1525640493987
30
0
0
VERTEX
8
0
10
132.345788005993
20
41.2030203587605
30
0
0
VERTEX
8
0
10
133.106395983039
20
41.253511150882
30
0
0
VERTEX
8
0
10
133.867003960085
20
41.3072002843441
30
0
0
VERTEX
8
0
10
134.627611937131
20
41.3602907737334
30
0
0
VERTEX
8
0
10
135.388219914177
20
41.4134188483411
30
0
0
VERTEX
8
0
10
136.148827891223
20
41.4863774994084
30
0
0
VERTEX
8
0
10
136.909435868269
20
41.564948466436
30
0
0
VERTEX
8
0
10
137.670043845315
20
41.6436001331066
30
0
0
VERTEX
8
0
10
138.430651822361
20
41.722332043034
30
0
0
VERTEX
8
0
10
139.191259799407
20
41.8678594461928
30
0
0
VERTEX
8
0
10
139.951867776453
20
41.9977994414016
30
0
0
VERTEX
8
0
10
140.712475753498
20
42.1279511717721
30
0
0
VERTEX
8
0
10
141.473083730544
20
42.3012333118152
30
0
0
VERTEX
8
0
10
142.23369170759
20
42.4809103329681
30
0
0
VERTEX
8
0
10
142.994299684636
20
42.6609080201789
30
0
0
VERTEX
8
0
10
143.754907661682
20
42.8611378809581
30
0
0
VERTEX
8
0
10
144.515515638728
20
43.1836533217464
30
0
0
VERTEX
8
0
10
145.276123615774
20
43.4761223207101
30
0
0
VERTEX
8
0
10
146.03673159282
20
43.7689854973307
30
0
0
VERTEX
8
0
10
146.797339569866
20
43.9427864556988
30
0
0
VERTEX
8
0
10
147.557947546912
20
44.128616928828
30
0
0
VERTEX
8
0
10
148.318555523958
20
44.3153751744232
30
0
0
VERTEX
8
0
10
149.079163501004
20
44.4667605265528
30
0
0
VERTEX
8
0
10
149.83977147805
20
44.5771327245839
30
0
0
VERTEX
8
0
10
150.600379455096
20
44.6980174736407
30
0
0
VERTEX
8
0
10
151.360987432142
20
44.8203985736017
30
0
0
VERTEX
8
0
10
152.121595409188
20
45.0336660972123
30
0
0
VERTEX
8
0
10
152.882203386234
20
45.2530370853198
30
0
0
VERTEX
8
0
10
153.64281136328
20
45.4745891766146
30
0
0
VERTEX
8
0
10
154.403419340326
20
45.7039730011477
30
0
0
VERTEX
8
0
10
155.164027317371
20
45.8716330254833
30
0
0
SEQEND
8
0
0
POLYLINE
8
0
62
2
70
0
10
0
20
0
30
0
0
VERTEX
8
0
10
14.4515515638728
20
10.0577482924258
30
0
0
VERTEX
8
0
10
15.2121595409188
20
10.4514672133281
30
0
0
VERTEX
8
0
10
15.9727675179647
20
10.8451861342304
30
0
0
VERTEX
8
0
10
16.7333754950106
20
11.2389050551327
30
0
0
VERTEX
8
0
10
17.4939834720566
20
11.5649122141391
30
0
0
VERTEX
8
0
10
18.2545914491025
20
11.9079924584243
30
0
0
VERTEX
8
0
10
19.0151994261484
20
12.2537292013518
30
0
0
VERTEX
8
0
10
19.7758074031944
20
12.5767034120451
30
0
0
VERTEX
8
0
10
20.5364153802403
20
12.9118537747103
30
0
0
VERTEX
8
0
10
21.2970233572863
20
13.2504006812508
30
0
0
VERTEX
8
0
10
22.0576313343322
20
13.5957262786315
30
0
0
VERTEX
8
0
10
22.8182393113781
20
13.912590649166
30
0
0
VERTEX
8
0
10
23.5788472884241
20
14.270895439037
30
0
0
VERTEX
8
0
10
24.33945526547
20
14.6499029861522
30
0
0
VERTEX
8
0
10
25.100063242516
20
15.038600227884
30
0
0
VERTEX
8
0
10
25.8606712195619
20
15.4341283310962
30
0
0
VERTEX
8
0
10
26.6212791966078
20
15.8424372559734
30
0
0
VERTEX
8
0
10
27.3818871736538
20
16.2625643556061
30
0
0
VERTEX
8
0
10
28.1424951506997
20
16.648292638083
30
0
0
VERTEX
8
0
10
28.9031031277456
20
17.0414464929783
30
0
0
VERTEX
8
0
10
29.6637111047916
20
17.4395933984719
30
0
0
VERTEX
8
0
10
30.4243190818375
20
17.74425690099
30
0
0
VERTEX
8
0
10
31.1849270588835
20
18.0146402913381
30
0
0
VERTEX
8
0
10
31.9455350359294
20
18.2859357316981
30
0
0
VERTEX
8
0
10
32.7061430129753
20
18.5581032231424
30
0
0
VERTEX
8
0
10
33.4667509900213
20
18.7842362582485
30
0
0
VERTEX
8
0
10
34.2273589670672
20
19.0228116854078
30
0
0
VERTEX
8
0
10
34.9879669441131
20
19.2619886077563
30
0
0
VERTEX
8
0
10
35.7485749211591
20
19.5289736829032
30
0
0
VERTEX
8
0
10
36.509182898205
20
19.808415255585
30
0
0
VERTEX
8
0
10
37.2697908752509
20
20.0892016145633
30
0
0
VERTEX
8
0
10
38.0303988522969
20
20.3530060946918
30
0
0
VERTEX
8
0
10
38.7910068293428
20
20.5715687940905
30
0
0
VERTEX
8
0
10
39.5516148063887
20
20.7955817074338
30
0
0
VERTEX
8
0
10
40.3122227834347
20
21.0204190814179
30
0
0
VERTEX
8
0
10
41.0728307604806
20
21.2109845019299
30
0
0
VERTEX
8
0
10
41.8334387375266
20
21.395651796346
30
0
0
VERTEX
8
0
10
42.5940467145725
20
21.5807253063625
30
0
0
VERTEX
8
0
10
43.3546546916184
20
21.7554419767752
30
0
0
VERTEX
8
0
10
44.1152626686644
20
21.9183497967546
30
0
0
VERTEX
8
0
10
44.8758706457103
20
22.082486222616
30
0
0
VERTEX
8
0
10
45.6364786227562
20
22.2470393658795
30
0
0
VERTEX
8
0
10
46.3970865998022
20
22.398035446134
30
0
0
VERTEX
8
0
10
47.1576945768481
20
22.5487166427068
30
0
0
VERTEX
8
0
10
47.918302553894
20
22.6997424224532
30
0
0
VERTEX
8
0
10
48.67891053094
20
22.8344463778905
30
0
0
VERTEX
8
0
10
49.4395185079859
20
22.9573886719836
30
0
0
VERTEX
8
0
10
50.2001264850318
20
23.0812908166748
30
0
0
VERTEX
8
0
10
50.9607344620778
20
23.2056258711488
30
0
0
VERTEX
8
0
10
51.7213424391237
20
23.2591886189527
30
0
0
VERTEX
8
0
10
52.4819504161696
20
23.3021101441164
30
0
0
VERTEX
8
0
10
53.2425583932156
20
23.3450351991019
30
0
0
VERTEX
8
0
10
54.0031663702615
20
23.364459373201
30
0
0
VERTEX
8
0
10
54.7637743473075
20
23.3261995472921
30
0
0
VERTEX
8
0
10
55.5243823243534
20
23.3006287507544
30
0
0
VERTEX
8
0
10
56.2849903013993
20
23.2751257668145
30
0
0
VERTEX
8
0
10
57.0455982784453
20
23.1966211295796
30
0
0
VERTEX
8
0
10
57.8062062554912
20
23.1128131859086
30
0
0
VERTEX
8
0
10
58.5668142325371
20
23.0297772367112
30
0
0
VERTEX
8
0
10
59.3274222095831
20
23.0015175232888
30
0
0
VERTEX
8
0
10
60.088030186629
20
23.039416959099
30
0
0
VERTEX
8
0
10
60.8486381636749
20
23.0640186564443
30
0
0
VERTEX
8
0
10
61.6092461407209
20
23.089294093937
30
0
0
VERTEX
8
0
10
62.3698541177668
20
23.2444312927412
30
0
0
VERTEX
8
0
10
63.1304620948127
20
23.3858620983172
30
0
0
VERTEX
8
0
10
63.8910700718587
20
23.5274657030935
30
0
0
VERTEX
8
0
10
64.6516780489046
20
23.7087331898054
30
0
0
VERTEX
8
0
10
65.4122860259505
20
24.1692197201025
30
0
0
VERTEX
8
0
10
66.1728940029965
20
24.544037342282
30
0
0
VERTEX
8
0
10
66.9335019800424
20
24.9207373340449
30
0
0
VERTEX
8
0
10
67.6941099570883
20
25.4050646880123
30
0
0
VERTEX
8
0
10
68.4547179341343
20
25.8790038546582
30
0
0
VERTEX
8
0
10
69.2153259111802
20
26.3557020392406
30
0
0
VERTEX
8
0
10
69.9759338882262
20
26.8343796134662
30
0
0
VERTEX
8
0
10
70.7365418652721
20
27.2908805105453
30
0
0
VERTEX
8
0
10
71.497149842318
20
27.7480605955404
30
0
0
VERTEX
8
0
10
72.257757819364
20
28.2058868422598
30
0
0
VERTEX
8
0
10
73.0183657964099
20
28.5907231733505
30
0
0
VERTEX
8
0
10
73.7789737734558
20
28.9935092717532
30
0
0
VERTEX
8
0
10
74.5395817505018
20
29.396921569216
30
0
0
VERTEX
8
0
10
75.3001897275477
20
29.6998469858284
30
0
0
VERTEX
8
0
10
76.0607977045936
20
29.9911273247849
30
0
0
VERTEX
8
0
10
76.8214056816396
20
30.2835608650734
30
0
0
VERTEX
8
0
10
77.5820136586855
20
30.5771145197361
30
0
0
VERTEX
8
0
10
78.3426216357314
20
30.7160644670511
30
0
0
VERTEX
8
0
10
79.1032296127774
20
30.8826302005039
30
0
0
VERTEX
8
0
10
79.8638375898233
20
31.0493993015763
30
0
0
VERTEX
8
0
10
80.6244455668692
20
31.2025029214736
30
0
0
VERTEX
8
0
10
81.3850535439152
20
31.3498729444833
30
0
0
VERTEX
8
0
10
82.1456615209611
20
31.4973487681262
30
0
0
VERTEX
8
0
10
82.906269498007
20
31.6613854828914
30
0
0
VERTEX
8
0
10
83.666877475053
20
31.896674243273
30
0
0
VERTEX
8
0
10
84.4274854520989
20
32.1233277931585
30
0
0
VERTEX
8
0
10
85.1880934291449
20
32.3502364574776
30
0
0
VERTEX
8
0
10
85.9487014061908
20
32.5607269520778
30
0
0
VERTEX
8
0
10
86.7093093832367
20
32.766028872135
30
0
0
VERTEX
8
0
10
87.4699173602827
20
32.9714645464055
30
0
0
VERTEX
8
0
10
88.2305253373286
20
33.1742436818947
30
0
0
VERTEX
8
0
10
88.9911333143745
20
33.3610449186097
30
0
0
VERTEX
8
0
10
89.7517412914205
20
33.5507403087604
30
0
0
VERTEX
8
0
10
90.5123492684664
20
33.7405250856514
30
0
0
VERTEX
8
0
10
91.2729572455123
20
33.9632513419434
30
0
0
VERTEX
8
0
10
92.0335652225583
20
34.2174317597449
30
0
0
VERTEX
8
0
10
92.7941731996042
20
34.4732011388269
30
0
0
VERTEX
8
0
10
93.5547811766501
20
34.7335233062087
30
0
0
VERTEX
8
0
10
94.3153891536961
20
35.0277157157007
30
0
0
VERTEX
8
0
10
95.075997130742
20
35.3165139278898
30
0
0
VERTEX
8
0
10
95.8366051077879
20
35.6070625152824
30
0
0
VERTEX
8
0
10
96.5972130848339
20
35.8729747080069
30
0
0
VERTEX
8
0
10
97.3578210618798
20
36.1513916638854
30
0
0
VERTEX
8
0
10
98.1184290389258
20
36.4323541698253
30
0
0
VERTEX
8
0
10
98.8790370159717
20
36.6736780783588
30
0
0
VERTEX
8
0
10
99.6396449930176
20
36.7727729932833
30
0
0
VERTEX
8
0
10
100.400252970064
20
36.907428177206
30
0
0
VERTEX
8
0
10
101.160860947109
20
37.0439105366627
30
0
0
VERTEX
8
0
10
101.921468924155
20
37.1345754360546
30
0
0
VERTEX
8
0
10
102.682076901201
20
37.225241810449
30
0
0
VERTEX
8
0
10
103.442684878247
20
37.3173383454566
30
0
0
VERTEX
8
0
10
104.203292855293
20
37.422187653703
30
0
0
VERTEX
8
0
10
104.963900832339
20
37.5354576580476
30
0
0
VERTEX
8
0
10
105.724508809385
20
37.6489876459648
30
0
0
VERTEX
8
0
10
106.485116786431
20
37.7637405246242
30
0
0
VERTEX
8
0
10
107.245724763477
20
37.8636458261024
30
0
0
VERTEX
8
0
10
108.006332740523
20
37.9646318883071
30
0
0
VERTEX
8
0
10
108.766940717569
20
38.0666961638343
30
0
0
VERTEX
8
0
10
109.527548694615
20
38.2000121777725
30
0
0
VERTEX
8
0
10
110.288156671661
20
38.2676810093223
30
0
0
VERTEX
8
0
10
111.048764648707
20
38.3597786889402
30
0
0
VERTEX
8
0
10
111.809372625753
20
38.4522182398949
30
0
0
VERTEX
8
0
10
112.569980602799
20
38.6059938022601
30
0
0
VERTEX
8
0
10
113.330588579844
20
38.7636219698949
30
0
0
VERTEX
8
0
10
114.09119655689
20
38.9222125002762
30
0
0
VERTEX
8
0
10
114.851804533936
20
39.1206454892923
30
0
0
VERTEX
8
0
10
115.612412510982
20
39.3358690574967
30
0
0
VERTEX
8
0
10
116.373020488028
20
39.5519083351165
30
0
0
VERTEX
8
0
10
117.133628465074
20
39.7687500284038
30
0
0
VERTEX
8
0
10
117.89423644212
20
39.8921600775929
30
0
0
VERTEX
8
0
10
118.654844419166
20
40.0329328757231
30
0
0
VERTEX
8
0
10
119.415452396212
20
40.1745286314723
30
0
0
VERTEX
8
0
10
120.176060373258
20
40.3219616464136
30
0
0
VERTEX
8
0
10
120.936668350304
20
40.460947184425
30
0
0
VERTEX
8
0
10
121.69727632735
20
40.6003427310158
30
0
0
VERTEX
8
0
10
122.457884304396
20
40.7401440775583
30
0
0
VERTEX
8
0
10
123.218492281442
20
40.863338119821
30
0
0
VERTEX
8
0
10
123.979100258488
20
40.9888693236544
30
0
0
VERTEX
8
0
10
124.739708235534
20
41.1147269174963
30
0
0
VERTEX
8
0
10
125.500316212579
20
41.1301805233191
30
0
0
VERTEX
8
0
10
126.260924189625
20
41.1004484521037
30
0
0
VERTEX
8
0
10
127.021532166671
20
41.0707649087374
30
0
0
VERTEX
8
0
10
127.782140143717
20
41.0574770031731
30
0
0
VERTEX
8
0
10
128.542748120763
20
41.0599957222593
30
0
0
VERTEX
8
0
10
129.303356097809
20
41.0625145284564
30
0
0
VERTEX
8
0
10
130.063964074855
20
41.0650334217482
30
0
0
VERTEX
8
0
10
130.824572051901
20
41.1021423497879
30
0
0
VERTEX
8
0
10
131.585180028947
20
41.1525640493987
30
0
0
VERTEX
8
0
10
132.345788005993
20
41.2030203587605
30
0
0
VERTEX
8
0
10
133.106395983039
20
41.253511150882
30
0
0
VERTEX
8
0
10
133.867003960085
20
41.3072002843441
30
0
0
VERTEX
8
0
10
134.627611937131
20
41.3602907737334
30
0
0
VERTEX
8
0
10
135.388219914177
20
41.4134188483411
30
0
0
VERTEX
8
0
10
136.148827891223
20
41.4863774994084
30
0
0
VERTEX
8
0
10
136.909435868269
20
41.564948466436
30
0
0
VERTEX
8
0
10
137.670043845315
20
41.6436001331066
30
0
0
VERTEX
8
0
10
138.430651822361
20
41.722332043034
30
0
0
VERTEX
8
0
10
139.191259799407
20
41.8678594461928
30
0
0
VERTEX
8
0
10
139.951867776453
20
41.9977994414016
30
0
0
VERTEX
8
0
10
140.712475753498
20
42.1279511717721
30
0
0
VERTEX
8
0
10
141.473083730544
20
42.3012333118152
30
0
0
VERTEX
8
0
10
142.23369170759
20
42.4809103329681
30
0
0
VERTEX
8
0
10
142.994299684636
20
42.6609080201789
30
0
0
VERTEX
8
0
10
143.754907661682
20
42.8611378809581
30
0
0
VERTEX
8
0
10
144.515515638728
20
43.1836533217464
30
0
0
VERTEX
8
0
10
145.276123615774
20
43.4761223207101
30
0
0
VERTEX
8
0
10
146.03673159282
20
43.7689854973307
30
0
0
VERTEX
8
0
10
146.797339569866
20
43.9427864556988
30
0
0
VERTEX
8
0
10
147.557947546912
20
44.128616928828
30
0
0
VERTEX
8
0
10
148.318555523958
20
44.3153751744232
30
0
0
VERTEX
8
0
10
149.079163501004
20
44.4667605265528
30
0
0
VERTEX
8
0
10
149.83977147805
20
44.5771327245839
30
0
0
VERTEX
8
0
10
150.600379455096
20
44.6980174736407
30
0
0
VERTEX
8
0
10
151.360987432142
20
44.8203985736017
30
0
0
VERTEX
8
0
10
152.121595409188
20
45.0336660972123
30
0
0
VERTEX
8
0
10
152.882203386234
20
45.2530370853198
30
0
0
VERTEX
8
0
10
153.64281136328
20
45.4745891766146
30
0
0
VERTEX
8
0
10
154.403419340326
20
45.7039730011477
30
0
0
VERTEX
8
0
10
155.164027317371
20
45.8716330254833
30
0
0
SEQEND
8
0
0
POLYLINE
8
0
62
3
70
0
10
0
20
0
30
0
0
VERTEX
8
0
10
14.4515515638728
20
15.4591757675959
30
0
0
VERTEX
8
0
10
15.2121595409188
20
16.1032885645037
30
0
0
VERTEX
8
0
10
15.9727675179647
20
16.947684160182
30
0
0
VERTEX
8
0
10
16.7333754950106
20
17.5514699578695
30
0
0
VERTEX
8
0
10
17.4939834720566
20
18.1996629488792
30
0
0
VERTEX
8
0
10
18.2545914491025
20
19.0339989647464
30
0
0
VERTEX
8
0
10
19.0151994261484
20
19.5849162200555
30
0
0
VERTEX
8
0
10
19.7758074031944
20
20.2390324900547
30
0
0
VERTEX
8
0
10
20.5364153802403
20
21.0540516400816
30
0
0
VERTEX
8
0
10
21.2970233572863
20
21.5531707685309
30
0
0
VERTEX
8
0
10
22.0576313343322
20
22.2232111366133
30
0
0
VERTEX
8
0
10
22.8182393113781
20
22.8554817853859
30
0
0
VERTEX
8
0
10
23.5788472884241
20
23.4787447076157
30
0
0
VERTEX
8
0
10
24.33945526547
20
24.15540576578
30
0
0
VERTEX
8
0
10
25.100063242516
20
24.7529455977161
30
0
0
VERTEX
8
0
10
25.8606712195619
20
25.3645609390489
30
0
0
VERTEX
8
0
10
26.6212791966078
20
26.0391057966184
30
0
0
VERTEX
8
0
10
27.3818871736538
20
26.6059010522955
30
0
0
VERTEX
8
0
10
28.1424951506997
20
27.210204109442
30
0
0
VERTEX
8
0
10
28.9031031277456
20
27.8777522351881
30
0
0
VERTEX
8
0
10
29.6637111047916
20
28.4191899343814
30
0
0
VERTEX
8
0
10
30.4243190818375
20
29.0167693822338
30
0
0
VERTEX
8
0
10
31.1849270588835
20
29.6036098936919
30
0
0
VERTEX
8
0
10
31.9455350359294
20
30.1877156091349
30
0
0
VERTEX
8
0
10
32.7061430129753
20
30.786097012329
30
0
0
VERTEX
8
0
10
33.4667509900213
20
31.3526185437038
30
0
0
VERTEX
8
0
10
34.2273589670672
20
31.9246099689657
30
0
0
VERTEX
8
0
10
34.9879669441131
20
32.5203998370391
30
0
0
VERTEX
8
0
10
35.7485749211591
20
33.0677882973036
30
0
0
VERTEX
8
0
10
36.509182898205
20
33.6309580264208
30
0
0
VERTEX
8
0
10
37.2697908752509
20
34.2220751175307
30
0
0
VERTEX
8
0
10
38.0303988522969
20
34.7568690490118
30
0
0
VERTEX
8
0
10
38.7910068293428
20
35.3083724001597
30
0
0
VERTEX
8
0
10
39.5516148063887
20
35.8584130972989
30
0
0
VERTEX
8
0
10
40.3122227834347
20
36.4082462179907
30
0
0
VERTEX
8
0
10
41.0728307604806
20
36.9587818641759
30
0
0
VERTEX
8
0
10
41.8334387375266
20
37.4962071576293
30
0
0
VERTEX
8
0
10
42.5940467145725
20
38.0360741535986
30
0
0
VERTEX
8
0
10
43.3546546916184
20
38.5843082454005
30
0
0
VERTEX
8
0
10
44.1152626686644
20
39.109666106413
30
0
0
VERTEX
8
0
10
44.8758706457103
20
39.6420464728942
30
0
0
VERTEX
8
0
10
45.6364786227562
20
40.1871954916273
30
0
0
VERTEX
8
0
10
46.3970865998022
20
40.7071246550774
30
0
0
VERTEX
8
0
10
47.1576945768481
20
41.2280907825615
30
0
0
VERTEX
8
0
10
47.918302553894
20
41.7514873080368
30
0
0
VERTEX
8
0
10
48.67891053094
20
42.2760255468503
30
0
0
VERTEX
8
0
10
49.4395185079859
20
42.7963098425768
30
0
0
VERTEX
8
0
10
50.2001264850318
20
43.3122971049063
30
0
0
VERTEX
8
0
10
50.9607344620778
20
43.8297298464313
30
0
0
VERTEX
8
0
10
51.7213424391237
20
44.3489700432396
30
0
0
VERTEX
8
0
10
52.4819504161696
20
44.8580319112104
30
0
0
VERTEX
8
0
10
53.2425583932156
20
45.3704002261827
30
0
0
VERTEX
8
0
10
54.0031663702615
20
45.8885750737952
30
0
0
VERTEX
8
0
10
54.7637743473075
20
46.3971977792328
30
0
0
VERTEX
8
0
10
55.5243823243534
20
46.9007120090871
30
0
0
VERTEX
8
0
10
56.2849903013993
20
47.4088616051422
30
0
0
VERTEX
8
0
10
57.0455982784453
20
47.9192958318131
30
0
0
VERTEX
8
0
10
57.8062062554912
20
48.4240279461893
30
0
0
VERTEX
8
0
10
58.5668142325371
20
48.9289599710179
30
0
0
VERTEX
8
0
10
59.3274222095831
20
49.4349683762915
30
0
0
VERTEX
8
0
10
60.088030186629
20
49.9397529384634
30
0
0
VERTEX
8
0
10
60.8486381636749
20
50.4408671371168
30
0
0
VERTEX
8
0
10
61.6092461407209
20
50.9432670255363
30
0
0
VERTEX
8
0
10
62.3698541177668
20
51.4476282254985
30
0
0
VERTEX
8
0
10
63.1304620948127
20
51.9501253693617
30
0
0
VERTEX
8
0
10
63.8910700718587
20
52.4445846975983
30
0
0
VERTEX
8
0
10
64.6516780489046
20
52.9437059920652
30
0
0
VERTEX
8
0
10
65.4122860259505
20
53.4449083248123
30
0
0
VERTEX
8
0
10
66.1728940029965
20
53.9398322539782
30
0
0
VERTEX
8
0
10
66.9335019800424
20
54.4369452358673
30
0
0
VERTEX
8
0
10
67.6941099570883
20
54.9348595166051
30
0
0
VERTEX
8
0
10
68.4547179341343
20
55.4302541797557
30
0
0
VERTEX
8
0
10
69.2153259111802
20
55.9255691174534
30
0
0
VERTEX
8
0
10
69.9759338882262
20
56.4213459992658
30
0
0
VERTEX
8
0
10
70.7365418652721
20
56.9173866129137
30
0
0
VERTEX
8
0
10
71.497149842318
20
57.4158833717233
30
0
0
VERTEX
8
0
10
72.257757819364
20
57.9060496013173
30
0
0
VERTEX
8
0
10
73.0183657964099
20
58.4011919505734
30
0
0
VERTEX
8
0
10
73.7789737734558
20
58.8988326607403
30
0
0
VERTEX
8
0
10
74.5395817505018
20
59.391035440744
30
0
0
VERTEX
8
0
10
75.3001897275477
20
59.8868904135066
30
0
0
VERTEX
8
0
10
76.0607977045936
20
60.3840256123341
30
0
0
VERTEX
8
0
10
76.8214056816396
20
60.8789155294754
30
0
0
VERTEX
8
0
10
77.5820136586855
20
61.376302137746
30
0
0
VERTEX
8
0
10
78.3426216357314
20
61.8745701661068
30
0
0
VERTEX
8
0
10
79.1032296127774
20
62.373199781993
30
0
0
VERTEX
8
0
10
79.8638375898233
20
62.8773421519479
30
0
0
VERTEX
8
0
10
80.6244455668692
20
63.3749360050466
30
0
0
VERTEX
8
0
10
81.3850535439152
20
63.8787488256744
30
0
0
VERTEX
8
0
10
82.1456615209611
20
64.3868404650016
30
0
0
VERTEX
8
0
10
82.906269498007
20
64.8925370753825
30
0
0
VERTEX
8
0
10
83.666877475053
20
65.4050869698641
30
0
0
VERTEX
8
0
10
84.4274854520989
20
65.9227202943143
30
0
0
VERTEX
8
0
10
85.1880934291449
20
66.4436370740637
30
0
0
VERTEX
8
0
10
85.9487014061908
20
66.9763132501731
30
0
0
VERTEX
8
0
10
86.7093093832367
20
67.5233347684591
30
0
0
VERTEX
8
0
10
87.4699173602827
20
68.0743432705227
30
0
0
VERTEX
8
0
10
88.2305253373286
20
68.6125436455461
30
0
0
VERTEX
8
0
10
88.9911333143745
20
69.1283726622919
30
0
0
VERTEX
8
0
10
89.7517412914205
20
69.6370949203738
30
0
0
VERTEX
8
0
10
90.5123492684664
20
70.138841618777
30
0
0
VERTEX
8
0
10
91.2729572455123
20
70.6287001313129
30
0
0
VERTEX
8
0
10
92.0335652225583
20
71.114990256986
30
0
0
VERTEX
8
0
10
92.7941731996042
20
71.5955268640411
30
0
0
VERTEX
8
0
10
93.5547811766501
20
72.0676103151245
30
0
0
VERTEX
8
0
10
94.3153891536961
20
72.5367371493927
30
0
0
VERTEX
8
0
10
95.075997130742
20
73.0001418621735
30
0
0
VERTEX
8
0
10
95.8366051077879
20
73.4571421125967
30
0
0
VERTEX
8
0
10
96.5972130848339
20
73.9137489222046
30
0
0
VERTEX
8
0
10
97.3578210618798
20
74.3593533592013
30
0
0
VERTEX
8
0
10
98.1184290389258
20
74.8033251523436
30
0
0
VERTEX
8
0
10
98.8790370159717
20
75.2440646806846
30
0
0
VERTEX
8
0
10
99.6396449930176
20
75.6765846719601
30
0
0
VERTEX
8
0
10
100.400252970064
20
76.1073389443993
30
0
0
VERTEX
8
0
10
101.160860947109
20
76.5339494780865
30
0
0
VERTEX
8
0
10
101.921468924155
20
76.9538520385885
30
0
0
VERTEX
8
0
10
102.682076901201
20
77.371760647932
30
0
0
VERTEX
8
0
10
103.442684878247
20
77.7848734658663
30
0
0
VERTEX
8
0
10
104.203292855293
20
78.1924413785992
30
0
0
VERTEX
8
0
10
104.963900832339
20
78.5997795750412
30
0
0
VERTEX
8
0
10
105.724508809385
20
78.9978069007778
30
0
0
VERTEX
8
0
10
106.485116786431
20
79.3940980916731
30
0
0
VERTEX
8
0
10
107.245724763477
20
79.7873084127327
30
0
0
VERTEX
8
0
10
108.006332740523
20
80.1734175481118
30
0
0
VERTEX
8
0
10
108.766940717569
20
80.5576341258776
30
0
0
VERTEX
8
0
10
109.527548694615
20
80.9379206436976
30
0
0
VERTEX
8
0
10
110.288156671661
20
81.3121806250605
30
0
0
VERTEX
8
0
10
111.048764648707
20
81.6843564208854
30
0
0
VERTEX
8
0
10
111.809372625753
20
82.0519923302248
30
0
0
VERTEX
8
0
10
112.569980602799
20
82.4144449881242
30
0
0
VERTEX
8
0
10
113.330588579844
20
82.7761566547148
30
0
0
VERTEX
8
0
10
114.09119655689
20
83.1298044734543
30
0
0
VERTEX
8
0
10
114.851804533936
20
83.4812997410859
30
0
0
VERTEX
8
0
10
115.612412510982
20
83.8295845860585
30
0
0
VERTEX
8
0
10
116.373020488028
20
84.1715752534796
30
0
0
VERTEX
8
0
10
117.133628465074
20
84.5113057066902
30
0
0
VERTEX
8
0
10
117.89423644212
20
84.8471457508865
30
0
0
VERTEX
8
0
10
118.654844419166
20
85.1774824114446
30
0
0
VERTEX
8
0
10
119.415452396212
20
85.5054272106841
30
0
0
VERTEX
8
0
10
120.176060373258
20
85.8289936472192
30
0
0
VERTEX
8
0
10
120.936668350304
20
86.1476794690035
30
0
0
VERTEX
8
0
10
121.69727632735
20
86.4649582884512
30
0
0
VERTEX
8
0
10
122.457884304396
20
86.7752668165813
30
0
0
VERTEX
8
0
10
123.218492281442
20
87.0829930785943
30
0
0
VERTEX
8
0
10
123.979100258488
20
87.3873487599115
30
0
0
VERTEX
8
0
10
124.739708235534
20
87.6860991349687
30
0
0
VERTEX
8
0
10
125.500316212579
20
87.9821984299741
30
0
0
VERTEX
8
0
10
126.260924189625
20
88.274427689596
30
0
0
VERTEX
8
0
10
127.021532166671
20
88.5616281289131
30
0
0
VERTEX
8
0
10
127.782140143717
20
88.8460911098379
30
0
0
VERTEX
8
0
10
128.542748120763
20
89.1263342279332
30
0
0
VERTEX
8
0
10
129.303356097809
20
89.4020019886606
30
0
0
VERTEX
8
0
10
130.063964074855
20
89.6756056385725
30
0
0
VERTEX
8
0
10
130.824572051901
20
89.9432228879419
30
0
0
VERTEX
8
0
10
131.585180028947
20
90.2078956336081
30
0
0
VERTEX
8
0
10
132.345788005993
20
90.4690764395293
30
0
0
VERTEX
8
0
10
133.106395983039
20
90.7252693031249
30
0
0
VERTEX
8
0
10
133.867003960085
20
90.9784771423683
30
0
0
VERTEX
8
0
10
134.627611937131
20
91.2278646480729
30
0
0
VERTEX
8
0
10
135.388219914177
20
91.4726756903957
30
0
0
VERTEX
8
0
10
136.148827891223
20
91.714450021334
30
0
0
VERTEX
8
0
10
136.909435868269
20
91.9521896745855
30
0
0
VERTEX
8
0
10
137.670043845315
20
92.185676260761
30
0
0
VERTEX
8
0
10
138.430651822361
20
92.4165432174529
30
0
0
VERTEX
8
0
10
139.191259799407
20
92.6423069665937
30
0
0
VERTEX
8
0
10
139.951867776453
20
92.8648741888416
30
0
0
VERTEX
8
0
10
140.712475753498
20
93.0839043024275
30
0
0
VERTEX
8
0
10
141.473083730544
20
93.2985137955882
30
0
0
VERTEX
8
0
10
142.23369170759
20
93.5099124761407
30
0
0
VERTEX
8
0
10
142.994299684636
20
93.7175999055047
30
0
0
VERTEX
8
0
10
143.754907661682
20
93.9211556323962
30
0
0
VERTEX
8
0
10
144.515515638728
20
94.1214826830004
30
0
0
VERTEX
8
0
10
145.276123615774
20
94.3180089427294
30
0
0
VERTEX
8
0
10
146.03673159282
20
94.5106334336851
30
0
0
VERTEX
8
0
10
146.797339569866
20
94.7002587031863
30
0
0
VERTEX
8
0
10
147.557947546912
20
94.8855716420172
30
0
0
VERTEX
8
0
10
148.318555523958
20
95.067586672643
30
0
0
VERTEX
8
0
10
149.079163501004
20
95.2461328965489
30
0
0
VERTEX
8
0
10
149.83977147805
20
95.4207994091683
30
0
0
VERTEX
8
0
10
150.600379455096
20
95.5921895219332
30
0
0
VERTEX
8
0
10
151.360987432142
20
95.7600733466135
30
0
0
VERTEX
8
0
10
152.121595409188
20
95.9242873531394
30
0
0
VERTEX
8
0
10
152.882203386234
20
96.085253562285
30
0
0
VERTEX
8
0
10
153.64281136328
20
96.2427378332521
30
0
0
VERTEX
8
0
10
154.403419340326
20
96.3967309553959
30
0
0
VERTEX
8
0
10
155.164027317371
20
96.5476069823314
30
0
0
SEQEND
8
0
0
POLYLINE
8
0
62
4
70
0
10
0
20
0
30
0
0
VERTEX
8
0
10
14.4515515638728
20
14.0946198117604
30
0
0
VERTEX
8
0
10
15.2121595409188
20
14.7106086912284
30
0
0
VERTEX
8
0
10
15.9727675179647
20
15.3110575410479
30
0
0
VERTEX
8
0
10
16.7333754950106
20
15.9187085169328
30
0
0
VERTEX
8
0
10
17.4939834720566
20
18.3064712702156
30
0
0
VERTEX
8
0
10
18.2545914491025
20
18.9829204374541
30
0
0
VERTEX
8
0
10
19.0151994261484
20
19.6699520134935
30
0
0
VERTEX
8
0
10
19.7758074031944
20
20.3379635044679
30
0
0
VERTEX
8
0
10
20.5364153802403
20
20.9884813185799
30
0
0
VERTEX
8
0
10
21.2970233572863
20
21.6567326294644
30
0
0
VERTEX
8
0
10
22.0576313343322
20
22.3085544652989
30
0
0
VERTEX
8
0
10
22.8182393113781
20
22.9488942267703
30
0
0
VERTEX
8
0
10
23.5788472884241
20
23.6157862083108
30
0
0
VERTEX
8
0
10
24.33945526547
20
24.2821723258403
30
0
0
VERTEX
8
0
10
25.100063242516
20
24.9611560885546
30
0
0
VERTEX
8
0
10
25.8606712195619
20
25.6421835975657
30
0
0
VERTEX
8
0
10
26.6212791966078
20
26.3201118796628
30
0
0
VERTEX
8
0
10
27.3818871736538
20
27.0129423513148
30
0
0
VERTEX
8
0
10
28.1424951506997
20
27.67999236061
30
0
0
VERTEX
8
0
10
28.9031031277456
20
28.3428361314473
30
0
0
VERTEX
8
0
10
29.6637111047916
20
29.0230973945205
30
0
0
VERTEX
8
0
10
30.4243190818375
20
29.6282292366847
30
0
0
VERTEX
8
0
10
31.1849270588835
20
30.218212933325
30
0
0
VERTEX
8
0
10
31.9455350359294
20
30.8101950801323
30
0
0
VERTEX
8
0
10
32.7061430129753
20
31.3911665644478
30
0
0
VERTEX
8
0
10
33.4667509900213
20
31.951567122806
30
0
0
VERTEX
8
0
10
34.2273589670672
20
32.5178968450813
30
0
0
VERTEX
8
0
10
34.9879669441131
20
33.0751470934169
30
0
0
VERTEX
8
0
10
35.7485749211591
20
33.6562134134838
30
0
0
VERTEX
8
0
10
36.509182898205
20
34.2400920141608
30
0
0
VERTEX
8
0
10
37.2697908752509
20
34.816960069515
30
0
0
VERTEX
8
0
10
38.0303988522969
20
35.3976292997207
30
0
0
VERTEX
8
0
10
38.7910068293428
20
35.9352184109361
30
0
0
VERTEX
8
0
10
39.5516148063887
20
36.4810209034749
30
0
0
VERTEX
8
0
10
40.3122227834347
20
37.0287189992002
30
0
0
VERTEX
8
0
10
41.0728307604806
20
37.5466609459886
30
0
0
VERTEX
8
0
10
41.8334387375266
20
38.0675643662031
30
0
0
VERTEX
8
0
10
42.5940467145725
20
38.5875580409356
30
0
0
VERTEX
8
0
10
43.3546546916184
20
39.0933566929096
30
0
0
VERTEX
8
0
10
44.1152626686644
20
39.5999400967047
30
0
0
VERTEX
8
0
10
44.8758706457103
20
40.1036040765255
30
0
0
VERTEX
8
0
10
45.6364786227562
20
40.6008095322363
30
0
0
VERTEX
8
0
10
46.3970865998022
20
41.1035278228843
30
0
0
VERTEX
8
0
10
47.1576945768481
20
41.5908949685428
30
0
0
VERTEX
8
0
10
47.918302553894
20
42.0833719232152
30
0
0
VERTEX
8
0
10
48.67891053094
20
42.5686906705096
30
0
0
VERTEX
8
0
10
49.4395185079859
20
43.0386850771912
30
0
0
VERTEX
8
0
10
50.2001264850318
20
43.5152315041483
30
0
0
VERTEX
8
0
10
50.9607344620778
20
43.9912390739479
30
0
0
VERTEX
8
0
10
51.7213424391237
20
44.4227456043695
30
0
0
VERTEX
8
0
10
52.4819504161696
20
44.8561291502732
30
0
0
VERTEX
8
0
10
53.2425583932156
20
45.2869386638446
30
0
0
VERTEX
8
0
10
54.0031663702615
20
45.7003177325244
30
0
0
VERTEX
8
0
10
54.7637743473075
20
46.0971735869705
30
0
0
VERTEX
8
0
10
55.5243823243534
20
46.4878862880157
30
0
0
VERTEX
8
0
10
56.2849903013993
20
46.8842938834603
30
0
0
VERTEX
8
0
10
57.0455982784453
20
47.2572704173705
30
0
0
VERTEX
8
0
10
57.8062062554912
20
47.6209727125313
30
0
0
VERTEX
8
0
10
58.5668142325371
20
47.9920937426825
30
0
0
VERTEX
8
0
10
59.3274222095831
20
48.3899882990705
30
0
0
VERTEX
8
0
10
60.088030186629
20
48.813178292633
30
0
0
VERTEX
8
0
10
60.8486381636749
20
49.2368526370218
30
0
0
VERTEX
8
0
10
61.6092461407209
20
49.6584023174971
30
0
0
VERTEX
8
0
10
62.3698541177668
20
50.135007315505
30
0
0
VERTEX
8
0
10
63.1304620948127
20
50.6159559767225
30
0
0
VERTEX
8
0
10
63.8910700718587
20
51.0843841546793
30
0
0
VERTEX
8
0
10
64.6516780489046
20
51.5749956890196
30
0
0
VERTEX
8
0
10
65.4122860259505
20
52.1954360224517
30
0
0
VERTEX
8
0
10
66.1728940029965
20
52.7690877633252
30
0
0
VERTEX
8
0
10
66.9335019800424
20
53.3484837230651
30
0
0
VERTEX
8
0
10
67.6941099570883
20
53.977767768252
30
0
0
VERTEX
8
0
10
68.4547179341343
20
54.5967454494914
30
0
0
VERTEX
8
0
10
69.2153259111802
20
55.2230572785931
30
0
0
VERTEX
8
0
10
69.9759338882262
20
55.8482846350914
30
0
0
VERTEX
8
0
10
70.7365418652721
20
56.4585907039391
30
0
0
VERTEX
8
0
10
71.497149842318
20
57.0788871325755
30
0
0
VERTEX
8
0
10
72.257757819364
20
57.6892096711235
30
0
0
VERTEX
8
0
10
73.0183657964099
20
58.2675164829796
30
0
0
VERTEX
8
0
10
73.7789737734558
20
58.8558120363653
30
0
0
VERTEX
8
0
10
74.5395817505018
20
59.4382747951637
30
0
0
VERTEX
8
0
10
75.3001897275477
20
59.9750993758871
30
0
0
VERTEX
8
0
10
76.0607977045936
20
60.5053828027771
30
0
0
VERTEX
8
0
10
76.8214056816396
20
61.0310062957123
30
0
0
VERTEX
8
0
10
77.5820136586855
20
61.5616690285748
30
0
0
VERTEX
8
0
10
78.3426216357314
20
62.0132825029995
30
0
0
VERTEX
8
0
10
79.1032296127774
20
62.4745154569708
30
0
0
VERTEX
8
0
10
79.8638375898233
20
62.943623878364
30
0
0
VERTEX
8
0
10
80.6244455668692
20
63.3968924570418
30
0
0
VERTEX
8
0
10
81.3850535439152
20
63.8502150255242
30
0
0
VERTEX
8
0
10
82.1456615209611
20
64.3044784187794
30
0
0
VERTEX
8
0
10
82.906269498007
20
64.7614938560352
30
0
0
VERTEX
8
0
10
83.666877475053
20
65.2566806853829
30
0
0
VERTEX
8
0
10
84.4274854520989
20
65.7469577382991
30
0
0
VERTEX
8
0
10
85.1880934291449
20
66.2329116048042
30
0
0
VERTEX
8
0
10
85.9487014061908
20
66.7146092813646
30
0
0
VERTEX
8
0
10
86.7093093832367
20
67.1917102532412
30
0
0
VERTEX
8
0
10
87.4699173602827
20
67.6646593400135
30
0
0
VERTEX
8
0
10
88.2305253373286
20
68.1410836345299
30
0
0
VERTEX
8
0
10
88.9911333143745
20
68.6000987689247
30
0
0
VERTEX
8
0
10
89.7517412914205
20
69.0608732330255
30
0
0
VERTEX
8
0
10
90.5123492684664
20
69.5203550809186
30
0
0
VERTEX
8
0
10
91.2729572455123
20
69.989299601862
30
0
0
VERTEX
8
0
10
92.0335652225583
20
70.4742319151683
30
0
0
VERTEX
8
0
10
92.7941731996042
20
70.9573380546348
30
0
0
VERTEX
8
0
10
93.5547811766501
20
71.4369568884081
30
0
0
VERTEX
8
0
10
94.3153891536961
20
71.934128113802
30
0
0
VERTEX
8
0
10
95.075997130742
20
72.4250116281225
30
0
0
VERTEX
8
0
10
95.8366051077879
20
72.9118350573411
30
0
0
VERTEX
8
0
10
96.5972130848339
20
73.3898395712369
30
0
0
VERTEX
8
0
10
97.3578210618798
20
73.8656052785961
30
0
0
VERTEX
8
0
10
98.1184290389258
20
74.3424168243155
30
0
0
VERTEX
8
0
10
98.8790370159717
20
74.7982104111955
30
0
0
VERTEX
8
0
10
99.6396449930176
20
75.1785447144593
30
0
0
VERTEX
8
0
10
100.400252970064
20
75.5764333341294
30
0
0
VERTEX
8
0
10
101.160860947109
20
75.9726437289226
30
0
0
VERTEX
8
0
10
101.921468924155
20
76.3414874223276
30
0
0
VERTEX
8
0
10
102.682076901201
20
76.710778077051
30
0
0
VERTEX
8
0
10
103.442684878247
20
77.0773695128229
30
0
0
VERTEX
8
0
10
104.203292855293
20
77.4457210584314
30
0
0
VERTEX
8
0
10
104.963900832339
20
77.820210160967
30
0
0
VERTEX
8
0
10
105.724508809385
20
78.1876443282235
30
0
0
VERTEX
8
0
10
106.485116786431
20
78.5549780014372
30
0
0
VERTEX
8
0
10
107.245724763477
20
78.9133869326316
30
0
0
VERTEX
8
0
10
108.006332740523
20
79.2672216672358
30
0
0
VERTEX
8
0
10
108.766940717569
20
79.6211156367318
30
0
0
VERTEX
8
0
10
109.527548694615
20
79.9873324594358
30
0
0
VERTEX
8
0
10
110.288156671661
20
80.3176548239427
30
0
0
VERTEX
8
0
10
111.048764648707
20
80.6593643840662
30
0
0
VERTEX
8
0
10
111.809372625753
20
80.9979481636107
30
0
0
VERTEX
8
0
10
112.569980602799
20
81.3615570569517
30
0
0
VERTEX
8
0
10
113.330588579844
20
81.7279123987344
30
0
0
VERTEX
8
0
10
114.09119655689
20
82.0884957157723
30
0
0
VERTEX
8
0
10
114.851804533936
20
82.4667606626554
30
0
0
VERTEX
8
0
10
115.612412510982
20
82.8509296554063
30
0
0
VERTEX
8
0
10
116.373020488028
20
83.230914236217
30
0
0
VERTEX
8
0
10
117.133628465074
20
83.6102430156906
30
0
0
VERTEX
8
0
10
117.89423644212
20
83.9424696234017
30
0
0
VERTEX
8
0
10
118.654844419166
20
84.2788184113497
30
0
0
VERTEX
8
0
10
119.415452396212
20
84.6146212132186
30
0
0
VERTEX
8
0
10
120.176060373258
20
84.9500053122878
30
0
0
VERTEX
8
0
10
120.936668350304
20
85.277633252281
30
0
0
VERTEX
8
0
10
121.69727632735
20
85.6054297167789
30
0
0
VERTEX
8
0
10
122.457884304396
20
85.9281410919698
30
0
0
VERTEX
8
0
10
123.218492281442
20
86.241386245193
30
0
0
VERTEX
8
0
10
123.979100258488
20
86.5535139955455
30
0
0
VERTEX
8
0
10
124.739708235534
20
86.8617562697053
30
0
0
VERTEX
8
0
10
125.500316212579
20
87.1163259137417
30
0
0
VERTEX
8
0
10
126.260924189625
20
87.3471118980314
30
0
0
VERTEX
8
0
10
127.021532166671
20
87.5744942268587
30
0
0
VERTEX
8
0
10
127.782140143717
20
87.8083767300388
30
0
0
VERTEX
8
0
10
128.542748120763
20
88.0468140770995
30
0
0
VERTEX
8
0
10
129.303356097809
20
88.2820100823963
30
0
0
VERTEX
8
0
10
130.063964074855
20
88.5165440446125
30
0
0
VERTEX
8
0
10
130.824572051901
20
88.7627872918365
30
0
0
VERTEX
8
0
10
131.585180028947
20
89.0133519592951
30
0
0
VERTEX
8
0
10
132.345788005993
20
89.2616337162744
30
0
0
VERTEX
8
0
10
133.106395983039
20
89.5064113159132
30
0
0
VERTEX
8
0
10
133.867003960085
20
89.7508550848726
30
0
0
VERTEX
8
0
10
134.627611937131
20
89.9924227672796
30
0
0
VERTEX
8
0
10
135.388219914177
20
90.2307382596615
30
0
0
VERTEX
8
0
10
136.148827891223
20
90.476359621998
30
0
0
VERTEX
8
0
10
136.909435868269
20
90.7217076443093
30
0
0
VERTEX
8
0
10
137.670043845315
20
90.9640164345794
30
0
0
VERTEX
8
0
10
138.430651822361
20
91.2049143390404
30
0
0
VERTEX
8
0
10
139.191259799407
20
91.4726474873574
30
0
0
VERTEX
8
0
10
139.951867776453
20
91.731110537007
30
0
0
VERTEX
8
0
10
140.712475753498
20
91.9872565302301
30
0
0
VERTEX
8
0
10
141.473083730544
20
92.2600370403973
30
0
0
VERTEX
8
0
10
142.23369170759
20
92.5336783377625
30
0
0
VERTEX
8
0
10
142.994299684636
20
92.8049365001031
30
0
0
VERTEX
8
0
10
143.754907661682
20
93.0826136011141
30
0
0
VERTEX
8
0
10
144.515515638728
20
93.414739679307
30
0
0
VERTEX
8
0
10
145.276123615774
20
93.7306506774252
30
0
0
VERTEX
8
0
10
146.03673159282
20
94.0442684224064
30
0
0
VERTEX
8
0
10
146.797339569866
20
94.3007426095051
30
0
0
VERTEX
8
0
10
147.557947546912
20
94.5597922228877
30
0
0
VERTEX
8
0
10
148.318555523958
20
94.817089813024
30
0
0
VERTEX
8
0
10
149.079163501004
20
95.0555115836122
30
0
0
VERTEX
8
0
10
149.83977147805
20
95.2720390959218
30
0
0
VERTEX
8
0
10
150.600379455096
20
95.4912681054772
30
0
0
VERTEX
8
0
10
151.360987432142
20
95.7087673834311
30
0
0
VERTEX
8
0
10
152.121595409188
20
95.9663064387719
30
0
0
VERTEX
8
0
10
152.882203386234
20
96.2246266438936
30
0
0
VERTEX
8
0
10
153.64281136328
20
96.4816614387157
30
0
0
VERTEX
8
0
10
154.403419340326
20
96.7400682713533
30
0
0
VERTEX
8
0
10
155.164027317371
20
96.9672917030194
30
0
0
SEQEND
8
0
0
POLYLINE
8
0
62
2
70
0
10
0
20
0
30
0
0
VERTEX
8
0
10
14.4515515638728
20
10.0362148370065
30
0
0
VERTEX
8
0
10
15.2121595409188
20
10.3037919109907
30
0
0
VERTEX
8
0
10
15.9727675179647
20
10.9031213418116
30
0
0
VERTEX
8
0
10
16.7333754950106
20
11.114416762296
30
0
0
VERTEX
8
0
10
17.4939834720566
20
11.3950882228406
30
0
0
VERTEX
8
0
10
18.2545914491025
20
11.9892507124151
30
0
0
VERTEX
8
0
10
19.0151994261484
20
12.1167574240602
30
0
0
VERTEX
8
0
10
19.7758074031944
20
12.4154481686838
30
0
0
VERTEX
8
0
10
20.5364153802403
20
12.990115263282
30
0
0
VERTEX
8
0
10
21.2970233572863
20
13.0228479342628
30
0
0
VERTEX
8
0
10
22.0576313343322
20
13.3680959323972
30
0
0
VERTEX
8
0
10
22.8182393113781
20
13.6400718145008
30
0
0
VERTEX
8
0
10
23.5788472884241
20
13.8932952447557
30
0
0
VERTEX
8
0
10
24.33945526547
20
14.257972816188
30
0
0
VERTEX
8
0
10
25.100063242516
20
14.4759480642396
30
0
0
VERTEX
8
0
10
25.8606712195619
20
14.7198472244514
30
0
0
VERTEX
8
0
10
26.6212791966078
20
15.090176339595
30
0
0
VERTEX
8
0
10
27.3818871736538
20
15.2596179157062
30
0
0
VERTEX
8
0
10
28.1424951506997
20
15.5016135701977
30
0
0
VERTEX
8
0
10
28.9031031277456
20
15.8695061703624
30
0
0
VERTEX
8
0
10
29.6637111047916
20
15.988413237666
30
0
0
VERTEX
8
0
10
30.4243190818375
20
16.2396869147098
30
0
0
VERTEX
8
0
10
31.1849270588835
20
16.461549311835
30
0
0
VERTEX
8
0
10
31.9455350359294
20
16.6753673992423
30
0
0
VERTEX
8
0
10
32.7061430129753
20
16.9360727822417
30
0
0
VERTEX
8
0
10
33.4667509900213
20
17.1263881141527
30
0
0
VERTEX
8
0
10
34.2273589670672
20
17.3290111204043
30
0
0
VERTEX
8
0
10
34.9879669441131
20
17.5931690338684
30
0
0
VERTEX
8
0
10
35.7485749211591
20
17.7530979441663
30
0
0
VERTEX
8
0
10
36.509182898205
20
17.9498923657223
30
0
0
VERTEX
8
0
10
37.2697908752509
20
18.2135076774331
30
0
0
VERTEX
8
0
10
38.0303988522969
20
18.3444919071859
30
0
0
VERTEX
8
0
10
38.7910068293428
20
18.5392170774521
30
0
0
VERTEX
8
0
10
39.5516148063887
20
18.7209701324019
30
0
0
VERTEX
8
0
10
40.3122227834347
20
18.8991050017547
30
0
0
VERTEX
8
0
10
41.0728307604806
20
19.0985579221889
30
0
0
VERTEX
8
0
10
41.8334387375266
20
19.2601305837403
30
0
0
VERTEX
8
0
10
42.5940467145725
20
19.4284188763511
30
0
0
VERTEX
8
0
10
43.3546546916184
20
19.6296894185059
30
0
0
VERTEX
8
0
10
44.1152626686644
20
19.7711848381435
30
0
0
VERTEX
8
0
10
44.8758706457103
20
19.933465125005
30
0
0
VERTEX
8
0
10
45.6364786227562
20
20.1345000871906
30
0
0
VERTEX
8
0
10
46.3970865998022
20
20.2588212442204
30
0
0
VERTEX
8
0
10
47.1576945768481
20
20.4155749156998
30
0
0
VERTEX
8
0
10
47.918302553894
20
20.5668588288031
30
0
0
VERTEX
8
0
10
48.67891053094
20
20.7167639658864
30
0
0
VERTEX
8
0
10
49.4395185079859
20
20.8763167974774
30
0
0
VERTEX
8
0
10
50.2001264850318
20
21.0143497849552
30
0
0
VERTEX
8
0
10
50.9607344620778
20
21.1565516936204
30
0
0
VERTEX
8
0
10
51.7213424391237
20
21.3175186389414
30
0
0
VERTEX
8
0
10
52.4819504161696
20
21.442322747367
30
0
0
VERTEX
8
0
10
53.2425583932156
20
21.5798704106611
30
0
0
VERTEX
8
0
10
54.0031663702615
20
21.74146399762
30
0
0
VERTEX
8
0
10
54.7637743473075
20
21.856905896547
30
0
0
VERTEX
8
0
10
55.5243823243534
20
21.9894485797237
30
0
0
VERTEX
8
0
10
56.2849903013993
20
22.1211414364329
30
0
0
VERTEX
8
0
10
57.0455982784453
20
22.2533423194576
30
0
0
VERTEX
8
0
10
57.8062062554912
20
22.3896340063555
30
0
0
VERTEX
8
0
10
58.5668142325371
20
22.5134311019614
30
0
0
VERTEX
8
0
10
59.3274222095831
20
22.6398318941955
30
0
0
VERTEX
8
0
10
60.088030186629
20
22.7767830534328
30
0
0
VERTEX
8
0
10
60.8486381636749
20
22.8906422289784
30
0
0
VERTEX
8
0
10
61.6092461407209
20
23.0119588077491
30
0
0
VERTEX
8
0
10
62.3698541177668
20
23.1477892381032
30
0
0
VERTEX
8
0
10
63.1304620948127
20
23.2541988850213
30
0
0
VERTEX
8
0
10
63.8910700718587
20
23.3678330295648
30
0
0
VERTEX
8
0
10
64.6516780489046
20
23.4809657163347
30
0
0
VERTEX
8
0
10
65.4122860259505
20
23.593726903087
30
0
0
VERTEX
8
0
10
66.1728940029965
20
23.7063673234204
30
0
0
VERTEX
8
0
10
66.9335019800424
20
23.8108624898689
30
0
0
VERTEX
8
0
10
67.6941099570883
20
23.9162801120098
30
0
0
VERTEX
8
0
10
68.4547179341343
20
24.0268658327728
30
0
0
VERTEX
8
0
10
69.2153259111802
20
24.1220403464122
30
0
0
VERTEX
8
0
10
69.9759338882262
20
24.22120089208
30
0
0
VERTEX
8
0
10
70.7365418652721
20
24.3288662734796
30
0
0
VERTEX
8
0
10
71.497149842318
20
24.4175116660155
30
0
0
VERTEX
8
0
10
72.257757819364
20
24.5080272424206
30
0
0
VERTEX
8
0
10
73.0183657964099
20
24.5985398920275
30
0
0
VERTEX
8
0
10
73.7789737734558
20
24.6885390548967
30
0
0
VERTEX
8
0
10
74.5395817505018
20
24.7764335287077
30
0
0
VERTEX
8
0
10
75.3001897275477
20
24.859006185594
30
0
0
VERTEX
8
0
10
76.0607977045936
20
24.9415841094678
30
0
0
VERTEX
8
0
10
76.8214056816396
20
25.026192837601
30
0
0
VERTEX
8
0
10
77.5820136586855
20
25.1003586950933
30
0
0
VERTEX
8
0
10
78.3426216357314
20
25.1763888192519
30
0
0
VERTEX
8
0
10
79.1032296127774
20
25.2571515341565
30
0
0
VERTEX
8
0
10
79.8638375898233
20
25.3255083425277
30
0
0
VERTEX
8
0
10
80.6244455668692
20
25.392767844984
30
0
0
VERTEX
8
0
10
81.3850535439152
20
25.4601752710505
30
0
0
VERTEX
8
0
10
82.1456615209611
20
25.5269250370099
30
0
0
VERTEX
8
0
10
82.906269498007
20
25.5905921927491
30
0
0
VERTEX
8
0
10
83.666877475053
20
25.650666442159
30
0
0
VERTEX
8
0
10
84.4274854520989
20
25.7101539059416
30
0
0
VERTEX
8
0
10
85.1880934291449
20
25.7697770551811
30
0
0
VERTEX
8
0
10
85.9487014061908
20
25.822177486045
30
0
0
VERTEX
8
0
10
86.7093093832367
20
25.8750797025655
30
0
0
VERTEX
8
0
10
87.4699173602827
20
25.9302726307146
30
0
0
VERTEX
8
0
10
88.2305253373286
20
25.9772904849852
30
0
0
VERTEX
8
0
10
88.9911333143745
20
26.0216246045316
30
0
0
VERTEX
8
0
10
89.7517412914205
20
26.066039966985
30
0
0
VERTEX
8
0
10
90.5123492684664
20
26.1096365917835
30
0
0
VERTEX
8
0
10
91.2729572455123
20
26.1497412981922
30
0
0
VERTEX
8
0
10
92.0335652225583
20
26.18728980152
30
0
0
VERTEX
8
0
10
92.7941731996042
20
26.2238497737556
30
0
0
VERTEX
8
0
10
93.5547811766501
20
26.259407621248
30
0
0
VERTEX
8
0
10
94.3153891536961
20
26.2898402869319
30
0
0
VERTEX
8
0
10
95.075997130742
20
26.3198846604406
30
0
0
VERTEX
8
0
10
95.8366051077879
20
26.3506224329221
30
0
0
VERTEX
8
0
10
96.5972130848339
20
26.375889083401
30
0
0
VERTEX
8
0
10
97.3578210618798
20
26.3977193154042
30
0
0
VERTEX
8
0
10
98.1184290389258
20
26.4194426739281
30
0
0
VERTEX
8
0
10
98.8790370159717
20
26.4401806386083
30
0
0
VERTEX
8
0
10
99.6396449930176
20
26.4573520136414
30
0
0
VERTEX
8
0
10
100.400252970064
20
26.4725648067952
30
0
0
VERTEX
8
0
10
101.160860947109
20
26.4865113782308
30
0
0
VERTEX
8
0
10
101.921468924155
20
26.4987988272465
30
0
0
VERTEX
8
0
10
102.682076901201
20
26.507324628907
30
0
0
VERTEX
8
0
10
103.442684878247
20
26.514881532192
30
0
0
VERTEX
8
0
10
104.203292855293
20
26.5220918994259
30
0
0
VERTEX
8
0
10
104.963900832339
20
26.5255384723407
30
0
0
VERTEX
8
0
10
105.724508809385
20
26.5253096000806
30
0
0
VERTEX
8
0
10
106.485116786431
20
26.5247270933029
30
0
0
VERTEX
8
0
10
107.245724763477
20
26.5229996776245
30
0
0
VERTEX
8
0
10
108.006332740523
20
26.5178312042265
30
0
0
VERTEX
8
0
10
108.766940717569
20
26.511024201974
30
0
0
VERTEX
8
0
10
109.527548694615
20
26.5027619846176
30
0
0
VERTEX
8
0
10
110.288156671661
20
26.4924985082185
30
0
0
VERTEX
8
0
10
111.048764648707
20
26.4793521650829
30
0
0
VERTEX
8
0
10
111.809372625753
20
26.4648690173498
30
0
0
VERTEX
8
0
10
112.569980602799
20
26.4493801692369
30
0
0
VERTEX
8
0
10
113.330588579844
20
26.4311791264182
30
0
0
VERTEX
8
0
10
114.09119655689
20
26.4093831718474
30
0
0
VERTEX
8
0
10
114.851804533936
20
26.3869716756632
30
0
0
VERTEX
8
0
10
115.612412510982
20
26.3632759205635
30
0
0
VERTEX
8
0
10
116.373020488028
20
26.336386193072
30
0
0
VERTEX
8
0
10
117.133628465074
20
26.3080090633746
30
0
0
VERTEX
8
0
10
117.89423644212
20
26.2780594263769
30
0
0
VERTEX
8
0
10
118.654844419166
20
26.2459803265113
30
0
0
VERTEX
8
0
10
119.415452396212
20
26.211580347753
30
0
0
VERTEX
8
0
10
120.176060373258
20
26.1756318540849
30
0
0
VERTEX
8
0
10
120.936668350304
20
26.1382900805437
30
0
0
VERTEX
8
0
10
121.69727632735
20
26.0988620940252
30
0
0
VERTEX
8
0
10
122.457884304396
20
26.0561205990081
30
0
0
VERTEX
8
0
10
123.218492281442
20
26.0125217731431
30
0
0
VERTEX
8
0
10
123.979100258488
20
25.9675357108579
30
0
0
VERTEX
8
0
10
124.739708235534
20
25.9196810007025
30
0
0
VERTEX
8
0
10
125.500316212579
20
25.8704015016461
30
0
0
VERTEX
8
0
10
126.260924189625
20
25.8195016100744
30
0
0
VERTEX
8
0
10
127.021532166671
20
25.7664999489017
30
0
0
VERTEX
8
0
10
127.782140143717
20
25.7115451544451
30
0
0
VERTEX
8
0
10
128.542748120763
20
25.6549588930866
30
0
0
VERTEX
8
0
10
129.303356097809
20
25.5968004761176
30
0
0
VERTEX
8
0
10
130.063964074855
20
25.5369237432997
30
0
0
VERTEX
8
0
10
130.824572051901
20
25.4741474509425
30
0
0
VERTEX
8
0
10
131.585180028947
20
25.410329235462
30
0
0
VERTEX
8
0
10
132.345788005993
20
25.3450822175521
30
0
0
VERTEX
8
0
10
133.106395983039
20
25.2773545274549
30
0
0
VERTEX
8
0
10
133.867003960085
20
25.2082470144101
30
0
0
VERTEX
8
0
10
134.627611937131
20
25.1375556292769
30
0
0
VERTEX
8
0
10
135.388219914177
20
25.0649229166215
30
0
0
VERTEX
8
0
10
136.148827891223
20
24.9906140798869
30
0
0
VERTEX
8
0
10
136.909435868269
20
24.9147203215652
30
0
0
VERTEX
8
0
10
137.670043845315
20
24.837261185057
30
0
0
VERTEX
8
0
10
138.430651822361
20
24.7583337691404
30
0
0
VERTEX
8
0
10
139.191259799407
20
24.6770272413504
30
0
0
VERTEX
8
0
10
139.951867776453
20
24.5946039752549
30
0
0
VERTEX
8
0
10
140.712475753498
20
24.510817276828
30
0
0
VERTEX
8
0
10
141.473083730544
20
24.4250167047054
30
0
0
VERTEX
8
0
10
142.23369170759
20
24.3379459487519
30
0
0
VERTEX
8
0
10
142.994299684636
20
24.2494565671725
30
0
0
VERTEX
8
0
10
143.754907661682
20
24.1593370497599
30
0
0
VERTEX
8
0
10
144.515515638728
20
24.0678407081029
30
0
0
VERTEX
8
0
10
145.276123615774
20
23.9749773286541
30
0
0
VERTEX
8
0
10
146.03673159282
20
23.8807684205626
30
0
0
VERTEX
8
0
10
146.797339569866
20
23.785374633746
30
0
0
VERTEX
8
0
10
147.557947546912
20
23.6882570241196
30
0
0
VERTEX
8
0
10
148.318555523958
20
23.5901540884196
30
0
0
VERTEX
8
0
10
149.079163501004
20
23.4909550622109
30
0
0
VERTEX
8
0
10
149.83977147805
20
23.3903615887058
30
0
0
VERTEX
8
0
10
150.600379455096
20
23.2888060032507
30
0
0
VERTEX
8
0
10
151.360987432142
20
23.1862365001708
30
0
0
VERTEX
8
0
10
152.121595409188
20
23.0825943911404
30
0
0
VERTEX
8
0
10
152.882203386234
20
22.9780748178325
30
0
0
VERTEX
8
0
10
153.64281136328
20
22.8727098890338
30
0
0
VERTEX
8
0
10
154.403419340326
20
22.7665634410871
30
0
0
VERTEX
8
0
10
155.164027317371
20
22.6597892391232
30
0
0
SEQEND
8
0
0
POLYLINE
8
0
62
3
70
0
10
0
20
0
30
0
0
VERTEX
8
0
10
14.4515515638728
20
14.0792618833099
30
0
0
VERTEX
8
0
10
15.2121595409188
20
14.606059321397
30
0
0
VERTEX
8
0
10
15.9727675179647
20
15.3521488962764
30
0
0
VERTEX
8
0
10
16.7333754950106
20
15.8310629451969
30
0
0
VERTEX
8
0
10
17.4939834720566
20
16.3572518326195
30
0
0
VERTEX
8
0
10
18.2545914491025
20
17.0893897828961
30
0
0
VERTEX
8
0
10
19.0151994261484
20
17.5043774188866
30
0
0
VERTEX
8
0
10
19.7758074031944
20
18.0330343450631
30
0
0
VERTEX
8
0
10
20.5364153802403
20
18.7413876343076
30
0
0
VERTEX
8
0
10
21.2970233572863
20
19.0933760713219
30
0
0
VERTEX
8
0
10
22.0576313343322
20
19.6366164328314
30
0
0
VERTEX
8
0
10
22.8182393113781
20
20.1361023505332
30
0
0
VERTEX
8
0
10
23.5788472884241
20
20.6242831763681
30
0
0
VERTEX
8
0
10
24.33945526547
20
21.1723679520626
30
0
0
VERTEX
8
0
10
25.100063242516
20
21.6292749103832
30
0
0
VERTEX
8
0
10
25.8606712195619
20
22.101254019863
30
0
0
VERTEX
8
0
10
26.6212791966078
20
22.6446937192652
30
0
0
VERTEX
8
0
10
27.3818871736538
20
23.0633668133696
30
0
0
VERTEX
8
0
10
28.1424951506997
20
23.5243019469081
30
0
0
VERTEX
8
0
10
28.9031031277456
20
24.0577182953474
30
0
0
VERTEX
8
0
10
29.6637111047916
20
24.444147434108
30
0
0
VERTEX
8
0
10
30.4243190818375
20
24.8948530846932
30
0
0
VERTEX
8
0
10
31.1849270588835
20
25.3322384609228
30
0
0
VERTEX
8
0
10
31.9455350359294
20
25.7656127203016
30
0
0
VERTEX
8
0
10
32.7061430129753
20
26.2149550996948
30
0
0
VERTEX
8
0
10
33.4667509900213
20
26.6260918900559
30
0
0
VERTEX
8
0
10
34.2273589670672
20
27.0428219716557
30
0
0
VERTEX
8
0
10
34.9879669441131
20
27.4868981700723
30
0
0
VERTEX
8
0
10
35.7485749211591
20
27.8728967617725
30
0
0
VERTEX
8
0
10
36.509182898205
20
28.2767240092219
30
0
0
VERTEX
8
0
10
37.2697908752509
20
28.7130295572635
30
0
0
VERTEX
8
0
10
38.0303988522969
20
29.0813599862083
30
0
0
VERTEX
8
0
10
38.7910068293428
20
29.4687079707942
30
0
0
VERTEX
8
0
10
39.5516148063887
20
29.8533992429623
30
0
0
VERTEX
8
0
10
40.3122227834347
20
30.2369293375905
30
0
0
VERTEX
8
0
10
41.0728307604806
20
30.6203896345549
30
0
0
VERTEX
8
0
10
41.8334387375266
20
30.9870653270428
30
0
0
VERTEX
8
0
10
42.5940467145725
20
31.3556941805235
30
0
0
VERTEX
8
0
10
43.3546546916184
20
31.7334912194408
30
0
0
VERTEX
8
0
10
44.1152626686644
20
32.0824333667811
30
0
0
VERTEX
8
0
10
44.8758706457103
20
32.4388338441399
30
0
0
VERTEX
8
0
10
45.6364786227562
20
32.8097767515534
30
0
0
VERTEX
8
0
10
46.3970865998022
20
33.1487089057149
30
0
0
VERTEX
8
0
10
47.1576945768481
20
33.487700867398
30
0
0
VERTEX
8
0
10
47.918302553894
20
33.8284587345459
30
0
0
VERTEX
8
0
10
48.67891053094
20
34.1693849513898
30
0
0
VERTEX
8
0
10
49.4395185079859
20
34.5037702288474
30
0
0
VERTEX
8
0
10
50.2001264850318
20
34.8314924143999
30
0
0
VERTEX
8
0
10
50.9607344620778
20
35.1596389953802
30
0
0
VERTEX
8
0
10
51.7213424391237
20
35.4886431925493
30
0
0
VERTEX
8
0
10
52.4819504161696
20
35.8034714953461
30
0
0
VERTEX
8
0
10
53.2425583932156
20
36.1209286202934
30
0
0
VERTEX
8
0
10
54.0031663702615
20
36.4441564417258
30
0
0
VERTEX
8
0
10
54.7637743473075
20
36.7537827122649
30
0
0
VERTEX
8
0
10
55.5243823243534
20
37.0552983743796
30
0
0
VERTEX
8
0
10
56.2849903013993
20
37.3609750997729
30
0
0
VERTEX
8
0
10
57.0455982784453
20
37.6678233555294
30
0
0
VERTEX
8
0
10
57.8062062554912
20
37.9656330378084
30
0
0
VERTEX
8
0
10
58.5668142325371
20
38.2618475669768
30
0
0
VERTEX
8
0
10
59.3274222095831
20
38.5575433798368
30
0
0
VERTEX
8
0
10
60.088030186629
20
38.8497234077424
30
0
0
VERTEX
8
0
10
60.8486381636749
20
39.135169300772
30
0
0
VERTEX
8
0
10
61.6092461407209
20
39.4201934456773
30
0
0
VERTEX
8
0
10
62.3698541177668
20
39.705627779199
30
0
0
VERTEX
8
0
10
63.1304620948127
20
39.9864640121168
30
0
0
VERTEX
8
0
10
63.8910700718587
20
40.2545789000291
30
0
0
VERTEX
8
0
10
64.6516780489046
20
40.5264134772522
30
0
0
VERTEX
8
0
10
65.4122860259505
20
40.7985709735411
30
0
0
VERTEX
8
0
10
66.1728940029965
20
41.0600242158241
30
0
0
VERTEX
8
0
10
66.9335019800424
20
41.3217868609197
30
0
0
VERTEX
8
0
10
67.6941099570883
20
41.5819748695648
30
0
0
VERTEX
8
0
10
68.4547179341343
20
41.8361187700413
30
0
0
VERTEX
8
0
10
69.2153259111802
20
42.0873490278748
30
0
0
VERTEX
8
0
10
69.9759338882262
20
42.3362991927323
30
0
0
VERTEX
8
0
10
70.7365418652721
20
42.5826172460931
30
0
0
VERTEX
8
0
10
71.497149842318
20
42.8291471566674
30
0
0
VERTEX
8
0
10
72.257757819364
20
43.0613092403533
30
0
0
VERTEX
8
0
10
73.0183657964099
20
43.296836205938
30
0
0
VERTEX
8
0
10
73.7789737734558
20
43.5323151627985
30
0
0
VERTEX
8
0
10
74.5395817505018
20
43.7568734690211
30
0
0
VERTEX
8
0
10
75.3001897275477
20
43.9826725794904
30
0
0
VERTEX
8
0
10
76.0607977045936
20
44.2063589285394
30
0
0
VERTEX
8
0
10
76.8214056816396
20
44.4229387343789
30
0
0
VERTEX
8
0
10
77.5820136586855
20
44.638699381645
30
0
0
VERTEX
8
0
10
78.3426216357314
20
44.8512157231975
30
0
0
VERTEX
8
0
10
79.1032296127774
20
45.0595135016688
30
0
0
VERTEX
8
0
10
79.8638375898233
20
45.2704387521447
30
0
0
VERTEX
8
0
10
80.6244455668692
20
45.4668840642125
30
0
0
VERTEX
8
0
10
81.3850535439152
20
45.6661507577323
30
0
0
VERTEX
8
0
10
82.1456615209611
20
45.8650263722335
30
0
0
VERTEX
8
0
10
82.906269498007
20
46.0534129359422
30
0
0
VERTEX
8
0
10
83.666877475053
20
46.2433104223654
30
0
0
VERTEX
8
0
10
84.4274854520989
20
46.4307884111414
30
0
0
VERTEX
8
0
10
85.1880934291449
20
46.6108938587138
30
0
0
VERTEX
8
0
10
85.9487014061908
20
46.791204927161
30
0
0
VERTEX
8
0
10
86.7093093832367
20
46.9678072622911
30
0
0
VERTEX
8
0
10
87.4699173602827
20
47.1394550176492
30
0
0
VERTEX
8
0
10
88.2305253373286
20
47.314695961452
30
0
0
VERTEX
8
0
10
88.9911333143745
20
47.4762036846009
30
0
0
VERTEX
8
0
10
89.7517412914205
20
47.6398902871856
30
0
0
VERTEX
8
0
10
90.5123492684664
20
47.8028624585867
30
0
0
VERTEX
8
0
10
91.2729572455123
20
47.9561325455475
30
0
0
VERTEX
8
0
10
92.0335652225583
20
48.1107919477542
30
0
0
VERTEX
8
0
10
92.7941731996042
20
48.2628678648235
30
0
0
VERTEX
8
0
10
93.5547811766501
20
48.4077796776992
30
0
0
VERTEX
8
0
10
94.3153891536961
20
48.5532682343212
30
0
0
VERTEX
8
0
10
95.075997130742
20
48.6948942043372
30
0
0
VERTEX
8
0
10
95.8366051077879
20
48.8313596209438
30
0
0
VERTEX
8
0
10
96.5972130848339
20
48.9715036116571
30
0
0
VERTEX
8
0
10
97.3578210618798
20
49.0991540648647
30
0
0
VERTEX
8
0
10
98.1184290389258
20
49.2283095518077
30
0
0
VERTEX
8
0
10
98.8790370159717
20
49.356457421541
30
0
0
VERTEX
8
0
10
99.6396449930176
20
49.475889044733
30
0
0
VERTEX
8
0
10
100.400252970064
20
49.596367446539
30
0
0
VERTEX
8
0
10
101.160860947109
20
49.7141998851801
30
0
0
VERTEX
8
0
10
101.921468924155
20
49.8253687956726
30
0
0
VERTEX
8
0
10
102.682076901201
20
49.937091315091
30
0
0
VERTEX
8
0
10
103.442684878247
20
50.0450028690453
30
0
0
VERTEX
8
0
10
104.203292855293
20
50.1478905755836
30
0
0
VERTEX
8
0
10
104.963900832339
20
50.2540174935504
30
0
0
VERTEX
8
0
10
105.724508809385
20
50.3491677082057
30
0
0
VERTEX
8
0
10
106.485116786431
20
50.4451659235641
30
0
0
VERTEX
8
0
10
107.245724763477
20
50.5399068808419
30
0
0
VERTEX
8
0
10
108.006332740523
20
50.6270252218954
30
0
0
VERTEX
8
0
10
108.766940717569
20
50.7147398872398
30
0
0
VERTEX
8
0
10
109.527548694615
20
50.799828246712
30
0
0
VERTEX
8
0
10
110.288156671661
20
50.8789361416987
30
0
0
VERTEX
8
0
10
111.048764648707
20
50.9583508815722
30
0
0
VERTEX
8
0
10
111.809372625753
20
51.0341510240945
30
0
0
VERTEX
8
0
10
112.569980602799
20
51.1052919221876
30
0
0
VERTEX
8
0
10
113.330588579844
20
51.1789436646298
30
0
0
VERTEX
8
0
10
114.09119655689
20
51.2432773840096
30
0
0
VERTEX
8
0
10
114.851804533936
20
51.307857011752
30
0
0
VERTEX
8
0
10
115.612412510982
20
51.3709886959328
30
0
0
VERTEX
8
0
10
116.373020488028
20
51.4276434870396
30
0
0
VERTEX
8
0
10
117.133628465074
20
51.4844176481731
30
0
0
VERTEX
8
0
10
117.89423644212
20
51.5386609730531
30
0
0
VERTEX
8
0
10
118.654844419166
20
51.587721108562
30
0
0
VERTEX
8
0
10
119.415452396212
20
51.6367387087038
30
0
0
VERTEX
8
0
10
120.176060373258
20
51.6824484942421
30
0
0
VERTEX
8
0
10
120.936668350304
20
51.7240196401605
30
0
0
VERTEX
8
0
10
121.69727632735
20
51.7672530981963
30
0
0
VERTEX
8
0
10
122.457884304396
20
51.8028792909462
30
0
0
VERTEX
8
0
10
123.218492281442
20
51.8382393914984
30
0
0
VERTEX
8
0
10
123.979100258488
20
51.8720386842165
30
0
0
VERTEX
8
0
10
124.739708235534
20
51.9005239831333
30
0
0
VERTEX
8
0
10
125.500316212579
20
51.9286910796977
30
0
0
VERTEX
8
0
10
126.260924189625
20
51.9545021537306
30
0
0
VERTEX
8
0
10
127.021532166671
20
51.9759987748784
30
0
0
VERTEX
8
0
10
127.782140143717
20
51.9970956802645
30
0
0
VERTEX
8
0
10
128.542748120763
20
52.0152854993596
30
0
0
VERTEX
8
0
10
129.303356097809
20
52.0299689275533
30
0
0
VERTEX
8
0
10
130.063964074855
20
52.0454795298782
30
0
0
VERTEX
8
0
10
130.824572051901
20
52.0550829811032
30
0
0
VERTEX
8
0
10
131.585180028947
20
52.0640362135613
30
0
0
VERTEX
8
0
10
132.345788005993
20
52.0714183465864
30
0
0
VERTEX
8
0
10
133.106395983039
20
52.0746454491994
30
0
0
VERTEX
8
0
10
133.867003960085
20
52.0772175331012
30
0
0
VERTEX
8
0
10
134.627611937131
20
52.0777010025691
30
0
0
VERTEX
8
0
10
135.388219914177
20
52.0747853308951
30
0
0
VERTEX
8
0
10
136.148827891223
20
52.0711892898428
30
0
0
VERTEX
8
0
10
136.909435868269
20
52.0651791082815
30
0
0
VERTEX
8
0
10
137.670043845315
20
52.0563823925687
30
0
0
VERTEX
8
0
10
138.430651822361
20
52.0477106324653
30
0
0
VERTEX
8
0
10
139.191259799407
20
52.0347763854972
30
0
0
VERTEX
8
0
10
139.951867776453
20
52.0209820026674
30
0
0
VERTEX
8
0
10
140.712475753498
20
52.0057435504859
30
0
0
VERTEX
8
0
10
141.473083730544
20
51.987496039972
30
0
0
VERTEX
8
0
10
142.23369170759
20
51.9684241315919
30
0
0
VERTEX
8
0
10
142.994299684636
20
51.947649681402
30
0
0
VERTEX
8
0
10
143.754907661682
20
51.9244294641464
30
0
0
VERTEX
8
0
10
144.515515638728
20
51.9004121438028
30
0
0
VERTEX
8
0
10
145.276123615774
20
51.8745809122182
30
0
0
VERTEX
8
0
10
146.03673159282
20
51.8467666543577
30
0
0
VERTEX
8
0
10
146.797339569866
20
51.8186319458631
30
0
0
VERTEX
8
0
10
147.557947546912
20
51.7877962093993
30
0
0
VERTEX
8
0
10
148.318555523958
20
51.756129243535
30
0
0
VERTEX
8
0
10
149.079163501004
20
51.7233364209646
30
0
0
VERTEX
8
0
10
149.83977147805
20
51.6886762939739
30
0
0
VERTEX
8
0
10
150.600379455096
20
51.6532762001338
30
0
0
VERTEX
8
0
10
151.360987432142
20
51.616728096027
30
0
0
VERTEX
8
0
10
152.121595409188
20
51.5787424089327
30
0
0
VERTEX
8
0
10
152.882203386234
20
51.5401174491945
30
0
0
VERTEX
8
0
10
153.64281136328
20
51.500432064637
30
0
0
VERTEX
8
0
10
154.403419340326
20
51.459681299247
30
0
0
VERTEX
8
0
10
155.164027317371
20
51.418578669295
30
0
0
SEQEND
8
0
0
POLYLINE
8
0
62
4
70
0
10
0
20
0
30
0
0
VERTEX
8
0
10
14.4515515638728
20
14.0946198117604
30
0
0
VERTEX
8
0
10
15.2121595409188
20
14.7106086912284
30
0
0
VERTEX
8
0
10
15.9727675179647
20
15.3110575410479
30
0
0
VERTEX
8
0
10
16.7333754950106
20
15.9187085169328
30
0
0
VERTEX
8
0
10
17.4939834720566
20
16.475739823118
30
0
0
VERTEX
8
0
10
18.2545914491025
20
17.0301809776605
30
0
0
VERTEX
8
0
10
19.0151994261484
20
17.5933058386121
30
0
0
VERTEX
8
0
10
19.7758074031944
20
18.1327308942427
30
0
0
VERTEX
8
0
10
20.5364153802403
20
18.6572926639847
30
0
0
VERTEX
8
0
10
21.2970233572863
20
19.1989623376124
30
0
0
VERTEX
8
0
10
22.0576313343322
20
19.7169635197965
30
0
0
VERTEX
8
0
10
22.8182393113781
20
20.1868571054732
30
0
0
VERTEX
8
0
10
23.5788472884241
20
20.6717880727878
30
0
0
VERTEX
8
0
10
24.33945526547
20
21.1418046681093
30
0
0
VERTEX
8
0
10
25.100063242516
20
21.6195266610431
30
0
0
VERTEX
8
0
10
25.8606712195619
20
22.0948359530844
30
0
0
VERTEX
8
0
10
26.6212791966078
20
22.5575173772511
30
0
0
VERTEX
8
0
10
27.3818871736538
20
23.0291608871425
30
0
0
VERTEX
8
0
10
28.1424951506997
20
23.4976094528865
30
0
0
VERTEX
8
0
10
28.9031031277456
20
23.9548061195327
30
0
0
VERTEX
8
0
10
29.6637111047916
20
24.4288638327046
30
0
0
VERTEX
8
0
10
30.4243190818375
20
24.8442597438066
30
0
0
VERTEX
8
0
10
31.1849270588835
20
25.2625840640073
30
0
0
VERTEX
8
0
10
31.9455350359294
20
25.6822642525171
30
0
0
VERTEX
8
0
10
32.7061430129753
20
26.0877028435352
30
0
0
VERTEX
8
0
10
33.4667509900213
20
26.477254876514
30
0
0
VERTEX
8
0
10
34.2273589670672
20
26.8718695102815
30
0
0
VERTEX
8
0
10
34.9879669441131
20
27.2545746300383
30
0
0
VERTEX
8
0
10
35.7485749211591
20
27.6499894220206
30
0
0
VERTEX
8
0
10
36.509182898205
20
28.0397843454652
30
0
0
VERTEX
8
0
10
37.2697908752509
20
28.4197157111668
30
0
0
VERTEX
8
0
10
38.0303988522969
20
28.8030226394139
30
0
0
VERTEX
8
0
10
38.7910068293428
20
29.1524379212341
30
0
0
VERTEX
8
0
10
39.5516148063887
20
29.5076539413111
30
0
0
VERTEX
8
0
10
40.3122227834347
20
29.8641943595043
30
0
0
VERTEX
8
0
10
41.0728307604806
20
30.1954368787134
30
0
0
VERTEX
8
0
10
41.8334387375266
20
30.5343161071182
30
0
0
VERTEX
8
0
10
42.5940467145725
20
30.8711596192221
30
0
0
VERTEX
8
0
10
43.3546546916184
20
31.1893158527514
30
0
0
VERTEX
8
0
10
44.1152626686644
20
31.5102810287023
30
0
0
VERTEX
8
0
10
44.8758706457103
20
31.8260583577164
30
0
0
VERTEX
8
0
10
45.6364786227562
20
32.1327119409481
30
0
0
VERTEX
8
0
10
46.3970865998022
20
32.4488963798267
30
0
0
VERTEX
8
0
10
47.1576945768481
20
32.7456560785582
30
0
0
VERTEX
8
0
10
47.918302553894
20
33.0479001232149
30
0
0
VERTEX
8
0
10
48.67891053094
20
33.3400182474082
30
0
0
VERTEX
8
0
10
49.4395185079859
20
33.6129956901259
30
0
0
VERTEX
8
0
10
50.2001264850318
20
33.8928994484749
30
0
0
VERTEX
8
0
10
50.9607344620778
20
34.1710260914075
30
0
0
VERTEX
8
0
10
51.7213424391237
20
34.4326124288461
30
0
0
VERTEX
8
0
10
52.4819504161696
20
34.7032030306912
30
0
0
VERTEX
8
0
10
53.2425583932156
20
34.9689904819323
30
0
0
VERTEX
8
0
10
54.0031663702615
20
35.2106809007285
30
0
0
VERTEX
8
0
10
54.7637743473075
20
35.4601604028185
30
0
0
VERTEX
8
0
10
55.5243823243534
20
35.6912602226054
30
0
0
VERTEX
8
0
10
56.2849903013993
20
35.9277654392662
30
0
0
VERTEX
8
0
10
57.0455982784453
20
36.1657357102016
30
0
0
VERTEX
8
0
10
57.8062062554912
20
36.392311667806
30
0
0
VERTEX
8
0
10
58.5668142325371
20
36.6254169499755
30
0
0
VERTEX
8
0
10
59.3274222095831
20
36.8905135329087
30
0
0
VERTEX
8
0
10
60.088030186629
20
37.1572240592172
30
0
0
VERTEX
8
0
10
60.8486381636749
20
37.4310952046423
30
0
0
VERTEX
8
0
10
61.6092461407209
20
37.6999941379629
30
0
0
VERTEX
8
0
10
62.3698541177668
20
38.007055701851
30
0
0
VERTEX
8
0
10
63.1304620948127
20
38.3171740696524
30
0
0
VERTEX
8
0
10
63.8910700718587
20
38.6095347084281
30
0
0
VERTEX
8
0
10
64.6516780489046
20
38.9300434076552
30
0
0
VERTEX
8
0
10
65.4122860259505
20
39.2570244704731
30
0
0
VERTEX
8
0
10
66.1728940029965
20
39.5729455265674
30
0
0
VERTEX
8
0
10
66.9335019800424
20
39.8940597392112
30
0
0
VERTEX
8
0
10
67.6941099570883
20
40.2443132535009
30
0
0
VERTEX
8
0
10
68.4547179341343
20
40.5776065021449
30
0
0
VERTEX
8
0
10
69.2153259111802
20
40.9171470843087
30
0
0
VERTEX
8
0
10
69.9759338882262
20
41.2740702612344
30
0
0
VERTEX
8
0
10
70.7365418652721
20
41.6272004606652
30
0
0
VERTEX
8
0
10
71.497149842318
20
41.9919889412933
30
0
0
VERTEX
8
0
10
72.257757819364
20
42.3413496016136
30
0
0
VERTEX
8
0
10
73.0183657964099
20
42.6559199980794
30
0
0
VERTEX
8
0
10
73.7789737734558
20
42.9816304717032
30
0
0
VERTEX
8
0
10
74.5395817505018
20
43.2976184743466
30
0
0
VERTEX
8
0
10
75.3001897275477
20
43.5538410738038
30
0
0
VERTEX
8
0
10
76.0607977045936
20
43.802259552753
30
0
0
VERTEX
8
0
10
76.8214056816396
20
44.0422968457996
30
0
0
VERTEX
8
0
10
77.5820136586855
20
44.2873835302179
30
0
0
VERTEX
8
0
10
78.3426216357314
20
44.4953309999009
30
0
0
VERTEX
8
0
10
79.1032296127774
20
44.7064888489364
30
0
0
VERTEX
8
0
10
79.8638375898233
20
44.9272792124133
30
0
0
VERTEX
8
0
10
80.6244455668692
20
45.1323695665295
30
0
0
VERTEX
8
0
10
81.3850535439152
20
45.3401531863894
30
0
0
VERTEX
8
0
10
82.1456615209611
20
45.5478829575233
30
0
0
VERTEX
8
0
10
82.906269498007
20
45.7581332731467
30
0
0
VERTEX
8
0
10
83.666877475053
20
45.9828890851982
30
0
0
VERTEX
8
0
10
84.4274854520989
20
46.2054757488933
30
0
0
VERTEX
8
0
10
85.1880934291449
20
46.4205230337043
30
0
0
VERTEX
8
0
10
85.9487014061908
20
46.6379378013475
30
0
0
VERTEX
8
0
10
86.7093093832367
20
46.8513536223505
30
0
0
VERTEX
8
0
10
87.4699173602827
20
47.0584841663276
30
0
0
VERTEX
8
0
10
88.2305253373286
20
47.2717023801594
30
0
0
VERTEX
8
0
10
88.9911333143745
20
47.4710885335556
30
0
0
VERTEX
8
0
10
89.7517412914205
20
47.6725493735749
30
0
0
VERTEX
8
0
10
90.5123492684664
20
47.8736826194114
30
0
0
VERTEX
8
0
10
91.2729572455123
20
48.027257277885
30
0
0
VERTEX
8
0
10
92.0335652225583
20
48.1870875755183
30
0
0
VERTEX
8
0
10
92.7941731996042
20
48.3448583384768
30
0
0
VERTEX
8
0
10
93.5547811766501
20
48.498150409586
30
0
0
VERTEX
8
0
10
94.3153891536961
20
48.6560472208313
30
0
0
VERTEX
8
0
10
95.075997130742
20
48.8102625823277
30
0
0
VERTEX
8
0
10
95.8366051077879
20
48.9589217358709
30
0
0
VERTEX
8
0
10
96.5972130848339
20
49.0806324533865
30
0
0
VERTEX
8
0
10
97.3578210618798
20
49.196292399003
30
0
0
VERTEX
8
0
10
98.1184290389258
20
49.3135615333691
30
0
0
VERTEX
8
0
10
98.8790370159717
20
49.3991193647605
30
0
0
VERTEX
8
0
10
99.6396449930176
20
49.463774218925
30
0
0
VERTEX
8
0
10
100.400252970064
20
49.5308677667505
30
0
0
VERTEX
8
0
10
101.160860947109
20
49.5963283090428
30
0
0
VERTEX
8
0
10
101.921468924155
20
49.646245001032
30
0
0
VERTEX
8
0
10
102.682076901201
20
49.7009060989885
30
0
0
VERTEX
8
0
10
103.442684878247
20
49.7526437012761
30
0
0
VERTEX
8
0
10
104.203292855293
20
49.8084040999477
30
0
0
VERTEX
8
0
10
104.963900832339
20
49.8726470794916
30
0
0
VERTEX
8
0
10
105.724508809385
20
49.9280400137394
30
0
0
VERTEX
8
0
10
106.485116786431
20
49.9847202182534
30
0
0
VERTEX
8
0
10
107.245724763477
20
50.0389334477945
30
0
0
VERTEX
8
0
10
108.006332740523
20
50.0879580991031
30
0
0
VERTEX
8
0
10
108.766940717569
20
50.1386890207255
30
0
0
VERTEX
8
0
10
109.527548694615
20
50.2107233649399
30
0
0
VERTEX
8
0
10
110.288156671661
20
50.2834672510562
30
0
0
VERTEX
8
0
10
111.048764648707
20
50.3580673357108
30
0
0
VERTEX
8
0
10
111.809372625753
20
50.4297348797438
30
0
0
VERTEX
8
0
10
112.569980602799
20
50.4846506643193
30
0
0
VERTEX
8
0
10
113.330588579844
20
50.5467381731226
30
0
0
VERTEX
8
0
10
114.09119655689
20
50.6013283977336
30
0
0
VERTEX
8
0
10
114.851804533936
20
50.6753687142772
30
0
0
VERTEX
8
0
10
115.612412510982
20
50.7516033218232
30
0
0
VERTEX
8
0
10
116.373020488028
20
50.8228920302772
30
0
0
VERTEX
8
0
10
117.133628465074
20
50.8950193741462
30
0
0
VERTEX
8
0
10
117.89423644212
20
50.9286572033334
30
0
0
VERTEX
8
0
10
118.654844419166
20
50.9685347765929
30
0
0
VERTEX
8
0
10
119.415452396212
20
51.0096139995548
30
0
0
VERTEX
8
0
10
120.176060373258
20
51.0651602678653
30
0
0
VERTEX
8
0
10
120.936668350304
20
51.1186627410971
30
0
0
VERTEX
8
0
10
121.69727632735
20
51.1748662437627
30
0
0
VERTEX
8
0
10
122.457884304396
20
51.2250113308577
30
0
0
VERTEX
8
0
10
123.218492281442
20
51.2752672668792
30
0
0
VERTEX
8
0
10
123.979100258488
20
51.324590567099
30
0
0
VERTEX
8
0
10
124.739708235534
20
51.3699326897632
30
0
0
VERTEX
8
0
10
125.500316212579
20
51.397748133869
30
0
0
VERTEX
8
0
10
126.260924189625
20
51.4236249427307
30
0
0
VERTEX
8
0
10
127.021532166671
20
51.4462007994107
30
0
0
VERTEX
8
0
10
127.782140143717
20
51.4823846503899
30
0
0
VERTEX
8
0
10
128.542748120763
20
51.5289679123416
30
0
0
VERTEX
8
0
10
129.303356097809
20
51.5726962289658
30
0
0
VERTEX
8
0
10
130.063964074855
20
51.6180103216025
30
0
0
VERTEX
8
0
10
130.824572051901
20
51.6586972363258
30
0
0
VERTEX
8
0
10
131.585180028947
20
51.6991349959518
30
0
0
VERTEX
8
0
10
132.345788005993
20
51.7385827052494
30
0
0
VERTEX
8
0
10
133.106395983039
20
51.7749511935103
30
0
0
VERTEX
8
0
10
133.867003960085
20
51.811218792725
30
0
0
VERTEX
8
0
10
134.627611937131
20
51.8460390293723
30
0
0
VERTEX
8
0
10
135.388219914177
20
51.8782654950975
30
0
0
VERTEX
8
0
10
136.148827891223
20
51.9104949533906
30
0
0
VERTEX
8
0
10
136.909435868269
20
51.9409386824382
30
0
0
VERTEX
8
0
10
137.670043845315
20
51.9692113559922
30
0
0
VERTEX
8
0
10
138.430651822361
20
51.9981789622855
30
0
0
VERTEX
8
0
10
139.191259799407
20
52.0238772522343
30
0
0
VERTEX
8
0
10
139.951867776453
20
52.0491070832096
30
0
0
VERTEX
8
0
10
140.712475753498
20
52.0733974597207
30
0
0
VERTEX
8
0
10
141.473083730544
20
52.1006572178182
30
0
0
VERTEX
8
0
10
142.23369170759
20
52.1268442644834
30
0
0
VERTEX
8
0
10
142.994299684636
20
52.151845237362
30
0
0
VERTEX
8
0
10
143.754907661682
20
52.1913689558336
30
0
0
VERTEX
8
0
10
144.515515638728
20
52.2381209452229
30
0
0
VERTEX
8
0
10
145.276123615774
20
52.2835776885598
30
0
0
VERTEX
8
0
10
146.03673159282
20
52.3275605923016
30
0
0
VERTEX
8
0
10
146.797339569866
20
52.3006682283078
30
0
0
VERTEX
8
0
10
147.557947546912
20
52.2843455435867
30
0
0
VERTEX
8
0
10
148.318555523958
20
52.2675530450969
30
0
0
VERTEX
8
0
10
149.079163501004
20
52.2191393433411
30
0
0
VERTEX
8
0
10
149.83977147805
20
52.1590420811408
30
0
0
VERTEX
8
0
10
150.600379455096
20
52.0988395065919
30
0
0
VERTEX
8
0
10
151.360987432142
20
52.0381454749979
30
0
0
VERTEX
8
0
10
152.121595409188
20
51.9766933913611
30
0
0
VERTEX
8
0
10
152.882203386234
20
51.9151834659417
30
0
0
VERTEX
8
0
10
153.64281136328
20
51.8531791650173
30
0
0
VERTEX
8
0
10
154.403419340326
20
51.7956569879818
30
0
0
VERTEX
8
0
10
155.164027317371
20
51.7394137160502
30
0
0
SEQEND
8
0
0
POLYLINE
8
0
62
2
70
0
10
0
20
0
30
0
0
VERTEX
8
0
10
14.4515515638728
20
0
30
0
0
VERTEX
8
0
10
15.2121595409188
20
0
30
0
0
VERTEX
8
0
10
15.9727675179647
20
0
30
0
0
VERTEX
8
0
10
16.7333754950106
20
0
30
0
0
VERTEX
8
0
10
17.4939834720566
20
0
30
0
0
VERTEX
8
0
10
18.2545914491025
20
0
30
0
0
VERTEX
8
0
10
19.0151994261484
20
0
30
0
0
VERTEX
8
0
10
19.7758074031944
20
0.125666661025115
30
0
0
VERTEX
8
0
10
20.5364153802403
20
0.854175479038089
30
0
0
VERTEX
8
0
10
21.2970233572863
20
1.22623484215173
30
0
0
VERTEX
8
0
10
22.0576313343322
20
1.52882146668102
30
0
0
VERTEX
8
0
10
22.8182393113781
20
1.79719806285841
30
0
0
VERTEX
8
0
10
23.5788472884241
20
2.04472459825871
30
0
0
VERTEX
8
0
10
24.33945526547
20
2.27807013153475
30
0
0
VERTEX
8
0
10
25.100063242516
20
2.50108515286017
30
0
0
VERTEX
8
0
10
25.8606712195619
20
2.71620820428338
30
0
0
VERTEX
8
0
10
26.6212791966078
20
2.92508761901234
30
0
0
VERTEX
8
0
10
27.3818871736538
20
3.12889386460669
30
0
0
VERTEX
8
0
10
28.1424951506997
20
3.32849141167237
30
0
0
VERTEX
8
0
10
28.9031031277456
20
3.52453999754957
30
0
0
VERTEX
8
0
10
29.6637111047916
20
3.71755755843467
30
0
0
VERTEX
8
0
10
30.4243190818375
20
3.90796104903024
30
0
0
VERTEX
8
0
10
31.1849270588835
20
4.09609386299312
30
0
0
VERTEX
8
0
10
31.9455350359294
20
4.28224479756597
30
0
0
VERTEX
8
0
10
32.7061430129753
20
4.4666614972531
30
0
0
VERTEX
8
0
10
33.4667509900213
20
4.64956018489147
30
0
0
VERTEX
8
0
10
34.2273589670672
20
4.83113283305554
30
0
0
VERTEX
8
0
10
34.9879669441131
20
5.01155253197995
30
0
0
VERTEX
8
0
10
35.7485749211591
20
5.19097756050692
30
0
0
VERTEX
8
0
10
36.509182898205
20
5.36955450976688
30
0
0
VERTEX
8
0
10
37.2697908752509
20
5.54742070356776
30
0
0
VERTEX
8
0
10
38.0303988522969
20
5.72470608917717
30
0
0
VERTEX
8
0
10
38.7910068293428
20
5.90153472511896
30
0
0
VERTEX
8
0
10
39.5516148063887
20
6.07802595823942
30
0
0
VERTEX
8
0
10
40.3122227834347
20
6.25429535912641
30
0
0
VERTEX
8
0
10
41.0728307604806
20
6.43045546789837
30
0
0
VERTEX
8
0
10
41.8334387375266
20
6.60661638969517
30
0
0
VERTEX
8
0
10
42.5940467145725
20
6.78288627128634
30
0
0
VERTEX
8
0
10
43.3546546916184
20
6.95937168103934
30
0
0
VERTEX
8
0
10
44.1152626686644
20
7.13617791267562
30
0
0
VERTEX
8
0
10
44.8758706457103
20
7.31340922652546
30
0
0
VERTEX
8
0
10
45.6364786227562
20
7.49116904062737
30
0
0
VERTEX
8
0
10
46.3970865998022
20
7.66956008115075
30
0
0
VERTEX
8
0
10
47.1576945768481
20
7.84868450030315
30
0
0
VERTEX
8
0
10
47.918302553894
20
8.02864396814971
30
0
0
VERTEX
8
0
10
48.67891053094
20
8.20953974367082
30
0
0
VERTEX
8
0
10
49.4395185079859
20
8.3914727298662
30
0
0
VERTEX
8
0
10
50.2001264850318
20
8.57454351691835
30
0
0
VERTEX
8
0
10
50.9607344620778
20
8.75885241665869
30
0
0
VERTEX
8
0
10
51.7213424391237
20
8.94449949164495
30
0
0
VERTEX
8
0
10
52.4819504161696
20
9.13158458141099
30
0
0
VERTEX
8
0
10
53.2425583932156
20
9.32020732857158
30
0
0
VERTEX
8
0
10
54.0031663702615
20
9.51046720680981
30
0
0
VERTEX
8
0
10
54.7637743473075
20
9.70246355352823
30
0
0
VERTEX
8
0
10
55.5243823243534
20
9.89629560856044
30
0
0
VERTEX
8
0
10
56.2849903013993
20
10.0920625619949
30
0
0
VERTEX
8
0
10
57.0455982784453
20
10.2898636122467
30
0
0
VERTEX
8
0
10
57.8062062554912
20
10.4897980378003
30
0
0
VERTEX
8
0
10
58.5668142325371
20
10.6919652837457
30
0
0
VERTEX
8
0
10
59.3274222095831
20
10.8964650670522
30
0
0
VERTEX
8
0
10
60.088030186629
20
11.1033975015965
30
0
0
VERTEX
8
0
10
60.8486381636749
20
11.3128632482759
30
0
0
VERTEX
8
0
10
61.6092461407209
20
11.5249636917195
30
0
0
VERTEX
8
0
10
62.3698541177668
20
11.7398011488566
30
0
0
VERTEX
8
0
10
63.1304620948127
20
11.9574791136034
30
0
0
VERTEX
8
0
10
63.8910700718587
20
12.1781025432263
30
0
0
VERTEX
8
0
10
64.6516780489046
20
12.4017781928862
30
0
0
VERTEX
8
0
10
65.4122860259505
20
12.6286150062027
30
0
0
VERTEX
8
0
10
66.1728940029965
20
12.8587245712858
30
0
0
VERTEX
8
0
10
66.9335019800424
20
13.0922216534738
30
0
0
VERTEX
8
0
10
67.6941099570883
20
13.3292248188619
30
0
0
VERTEX
8
0
10
68.4547179341343
20
13.5698571664965
30
0
0
VERTEX
8
0
10
69.2153259111802
20
13.8142471898973
30
0
0
VERTEX
8
0
10
69.9759338882262
20
14.0625297962989
30
0
0
VERTEX
8
0
10
70.7365418652721
20
14.3148475177689
30
0
0
VERTEX
8
0
10
71.497149842318
20
14.5713519590949
30
0
0
VERTEX
8
0
10
72.257757819364
20
14.8322055404618
30
0
0
VERTEX
8
0
10
73.0183657964099
20
15.0975836115888
30
0
0
VERTEX
8
0
10
73.7789737734558
20
15.3676770386419
30
0
0
VERTEX
8
0
10
74.5395817505018
20
15.6426954020875
30
0
0
VERTEX
8
0
10
75.3001897275477
20
15.9228709942028
30
0
0
VERTEX
8
0
10
76.0607977045936
20
16.2084638803996
30
0
0
VERTEX
8
0
10
76.8214056816396
20
16.4997684014517
30
0
0
VERTEX
8
0
10
77.5820136586855
20
16.7971216656548
30
0
0
VERTEX
8
0
10
78.3426216357314
20
17.1009148529995
30
0
0
VERTEX
8
0
10
79.1032296127774
20
17.4116085972222
30
0
0
VERTEX
8
0
10
79.8638375898233
20
17.7297544634286
30
0
0
VERTEX
8
0
10
80.6244455668692
20
18.0560258686494
30
0
0
VERTEX
8
0
10
81.3850535439152
20
18.3912642722178
30
0
0
VERTEX
8
0
10
82.1456615209611
20
18.7365513884001
30
0
0
VERTEX
8
0
10
82.906269498007
20
19.0933287704176
30
0
0
VERTEX
8
0
10
83.666877475053
20
19.4636113379824
30
0
0
VERTEX
8
0
10
84.4274854520989
20
19.8504099151683
30
0
0
VERTEX
8
0
10
85.1880934291449
20
20.258694858284
30
0
0
VERTEX
8
0
10
85.9487014061908
20
20.6979113571183
30
0
0
VERTEX
8
0
10
86.7093093832367
20
21.1841381682933
30
0
0
VERTEX
8
0
10
87.4699173602827
20
21.687519999866
30
0
0
VERTEX
8
0
10
88.2305253373286
20
22.1401149398189
30
0
0
VERTEX
8
0
10
88.9911333143745
20
22.5520005062259
30
0
0
VERTEX
8
0
10
89.7517412914205
20
22.9376222164927
30
0
0
VERTEX
8
0
10
90.5123492684664
20
23.3042323011797
30
0
0
VERTEX
8
0
10
91.2729572455123
20
23.6559653202602
30
0
0
VERTEX
8
0
10
92.0335652225583
20
23.9954779969539
30
0
0
VERTEX
8
0
10
92.7941731996042
20
24.3246159875429
30
0
0
VERTEX
8
0
10
93.5547811766501
20
24.64473168246
30
0
0
VERTEX
8
0
10
94.3153891536961
20
24.9568550649869
30
0
0
VERTEX
8
0
10
95.075997130742
20
25.2617938801604
30
0
0
VERTEX
8
0
10
95.8366051077879
20
25.5601962880986
30
0
0
VERTEX
8
0
10
96.5972130848339
20
25.8525920732186
30
0
0
VERTEX
8
0
10
97.3578210618798
20
26.1394208620996
30
0
0
VERTEX
8
0
10
98.1184290389258
20
26.4210520933891
30
0
0
VERTEX
8
0
10
98.8790370159717
20
26.6977995450268
30
0
0
VERTEX
8
0
10
99.6396449930176
20
26.9699321517537
30
0
0
VERTEX
8
0
10
100.400252970064
20
27.2376822232587
30
0
0
VERTEX
8
0
10
101.160860947109
20
27.5012517971748
30
0
0
VERTEX
8
0
10
101.921468924155
20
27.7608176257962
30
0
0
VERTEX
8
0
10
102.682076901201
20
28.0165351433481
30
0
0
VERTEX
8
0
10
103.442684878247
20
28.268541660434
30
0
0
VERTEX
8
0
10
104.203292855293
20
28.5169589639689
30
0
0
VERTEX
8
0
10
104.963900832339
20
28.761895453872
30
0
0
VERTEX
8
0
10
105.724508809385
20
29.0034479143716
30
0
0
VERTEX
8
0
10
106.485116786431
20
29.2417029945395
30
0
0
VERTEX
8
0
10
107.245724763477
20
29.4767384544923
30
0
0
VERTEX
8
0
10
108.006332740523
20
29.7086242215961
30
0
0
VERTEX
8
0
10
108.766940717569
20
29.9374232911415
30
0
0
VERTEX
8
0
10
109.527548694615
20
30.16319249877
30
0
0
VERTEX
8
0
10
110.288156671661
20
30.3859831864587
30
0
0
VERTEX
8
0
10
111.048764648707
20
30.605841779547
30
0
0
VERTEX
8
0
10
111.809372625753
20
30.8228102889295
30
0
0
VERTEX
8
0
10
112.569980602799
20
31.0369267501193
30
0
0
VERTEX
8
0
10
113.330588579844
20
31.2482256085491
30
0
0
VERTEX
8
0
10
114.09119655689
20
31.4567380590485
30
0
0
VERTEX
8
0
10
114.851804533936
20
31.6624923459284
30
0
0
VERTEX
8
0
10
115.612412510982
20
31.8655140292889
30
0
0
VERTEX
8
0
10
116.373020488028
20
32.0658262219219
30
0
0
VERTEX
8
0
10
117.133628465074
20
32.2634498008176
30
0
0
VERTEX
8
0
10
117.89423644212
20
32.4584035965505
30
0
0
VERTEX
8
0
10
118.654844419166
20
32.6507045631675
30
0
0
VERTEX
8
0
10
119.415452396212
20
32.8403679312431
30
0
0
VERTEX
8
0
10
120.176060373258
20
33.0274073458839
30
0
0
VERTEX
8
0
10
120.936668350304
20
33.2118349916082
30
0
0
VERTEX
8
0
10
121.69727632735
20
33.3936617055127
30
0
0
VERTEX
8
0
10
122.457884304396
20
33.5728970801981
30
0
0
VERTEX
8
0
10
123.218492281442
20
33.7495495574461
30
0
0
VERTEX
8
0
10
123.979100258488
20
33.9236265137772
30
0
0
VERTEX
8
0
10
124.739708235534
20
34.0951343386706
30
0
0
VERTEX
8
0
10
125.500316212579
20
34.2640785063092
30
0
0
VERTEX
8
0
10
126.260924189625
20
34.4304636415181
30
0
0
VERTEX
8
0
10
127.021532166671
20
34.594293580384
30
0
0
VERTEX
8
0
10
127.782140143717
20
34.7555714263226
30
0
0
VERTEX
8
0
10
128.542748120763
20
34.9142996018525
30
0
0
VERTEX
8
0
10
129.303356097809
20
35.0704798965979
30
0
0
VERTEX
8
0
10
130.063964074855
20
35.2241135119274
30
0
0
VERTEX
8
0
10
130.824572051901
20
35.3752011025246
30
0
0
VERTEX
8
0
10
131.585180028947
20
35.5237428151917
30
0
0
VERTEX
8
0
10
132.345788005993
20
35.6697383252669
30
0
0
VERTEX
8
0
10
133.106395983039
20
35.8131868707657
30
0
0
VERTEX
8
0
10
133.867003960085
20
35.9540872846193
30
0
0
VERTEX
8
0
10
134.627611937131
20
36.0924380250923
30
0
0
VERTEX
8
0
10
135.388219914177
20
36.2282372048201
30
0
0
VERTEX
8
0
10
136.148827891223
20
36.3614826182903
30
0
0
VERTEX
8
0
10
136.909435868269
20
36.4921717682997
30
0
0
VERTEX
8
0
10
137.670043845315
20
36.6203018913654
30
0
0
VERTEX
8
0
10
138.430651822361
20
36.7458699823076
30
0
0
VERTEX
8
0
10
139.191259799407
20
36.8688728181651
30
0
0
VERTEX
8
0
10
139.951867776453
20
36.9893069815774
30
0
0
VERTEX
8
0
10
140.712475753498
20
37.1071688838999
30
0
0
VERTEX
8
0
10
141.473083730544
20
37.2224547880118
30
0
0
VERTEX
8
0
10
142.23369170759
20
37.3351608312098
30
0
0
VERTEX
8
0
10
142.994299684636
20
37.4452830482434
30
0
0
VERTEX
8
0
10
143.754907661682
20
37.5528173946651
30
0
0
VERTEX
8
0
10
144.515515638728
20
37.657759770807
30
0
0
VERTEX
8
0
10
145.276123615774
20
37.760106046503
30
0
0
VERTEX
8
0
10
146.03673159282
20
37.8598520868715
30
0
0
VERTEX
8
0
10
146.797339569866
20
37.956993779405
30
0
0
VERTEX
8
0
10
147.557947546912
20
38.0515270627498
30
0
0
VERTEX
8
0
10
148.318555523958
20
38.1434479574663
30
0
0
VERTEX
8
0
10
149.079163501004
20
38.2327525992546
30
0
0
VERTEX
8
0
10
149.83977147805
20
38.3194372751565
30
0
0
VERTEX
8
0
10
150.600379455096
20
38.403498463316
30
0
0
VERTEX
8
0
10
151.360987432142
20
38.484932877007
30
0
0
VERTEX
8
0
10
152.121595409188
20
38.5637375138445
30
0
0
VERTEX
8
0
10
152.882203386234
20
38.6399097111174
30
0
0
VERTEX
8
0
10
153.64281136328
20
38.7134472086779
30
0
0
VERTEX
8
0
10
154.403419340326
20
38.7843482208157
30
0
0
VERTEX
8
0
10
155.164027317371
20
38.8526115191681
30
0
0
SEQEND
8
0
0
POLYLINE
8
0
62
3
70
0
10
0
20
0
30
0
0
VERTEX
8
0
10
14.4515515638728
20
6.38439505627591
30
0
0
VERTEX
8
0
10
15.2121595409188
20
6.78077677641044
30
0
0
VERTEX
8
0
10
15.9727675179647
20
7.17882460155168
30
0
0
VERTEX
8
0
10
16.7333754950106
20
7.57836022548468
30
0
0
VERTEX
8
0
10
17.4939834720566
20
7.97922577303547
30
0
0
VERTEX
8
0
10
18.2545914491025
20
8.38128113346716
30
0
0
VERTEX
8
0
10
19.0151994261484
20
8.78440177381289
30
0
0
VERTEX
8
0
10
19.7758074031944
20
9.18847693816896
30
0
0
VERTEX
8
0
10
20.5364153802403
20
9.59340815371912
30
0
0
VERTEX
8
0
10
21.2970233572863
20
9.99910797904134
30
0
0
VERTEX
8
0
10
22.0576313343322
20
10.4054989449016
30
0
0
VERTEX
8
0
10
22.8182393113781
20
10.8125126483608
30
0
0
VERTEX
8
0
10
23.5788472884241
20
11.2200889705194
30
0
0
VERTEX
8
0
10
24.33945526547
20
11.6281753947879
30
0
0
VERTEX
8
0
10
25.100063242516
20
12.0367264077307
30
0
0
VERTEX
8
0
10
25.8606712195619
20
12.4457029685035
30
0
0
VERTEX
8
0
10
26.6212791966078
20
12.8550720358991
30
0
0
VERTEX
8
0
10
27.3818871736538
20
13.2648061439474
30
0
0
VERTEX
8
0
10
28.1424951506997
20
13.6748830191776
30
0
0
VERTEX
8
0
10
28.9031031277456
20
14.0852852334711
30
0
0
VERTEX
8
0
10
29.6637111047916
20
14.4959998877634
30
0
0
VERTEX
8
0
10
30.4243190818375
20
14.907018322699
30
0
0
VERTEX
8
0
10
31.1849270588835
20
15.3183358527237
30
0
0
VERTEX
8
0
10
31.9455350359294
20
15.7299515207593
30
0
0
VERTEX
8
0
10
32.7061430129753
20
16.1418678712693
30
0
0
VERTEX
8
0
10
33.4667509900213
20
16.5540907394305
30
0
0
VERTEX
8
0
10
34.2273589670672
20
16.9666290547038
30
0
0
VERTEX
8
0
10
34.9879669441131
20
17.3794946574683
30
0
0
VERTEX
8
0
10
35.7485749211591
20
17.7927021270762
30
0
0
VERTEX
8
0
10
36.509182898205
20
18.2062686204827
30
0
0
VERTEX
8
0
10
37.2697908752509
20
18.6202137204069
30
0
0
VERTEX
8
0
10
38.0303988522969
20
19.0345592920539
30
0
0
VERTEX
8
0
10
38.7910068293428
20
19.4493293478313
30
0
0
VERTEX
8
0
10
39.5516148063887
20
19.8645499193118
30
0
0
VERTEX
8
0
10
40.3122227834347
20
20.2802489359327
30
0
0
VERTEX
8
0
10
41.0728307604806
20
20.6964561099669
30
0
0
VERTEX
8
0
10
41.8334387375266
20
21.1132028272699
30
0
0
VERTEX
8
0
10
42.5940467145725
20
21.5305220437299
30
0
0
VERTEX
8
0
10
43.3546546916184
20
21.9484481866431
30
0
0
VERTEX
8
0
10
44.1152626686644
20
22.367017061315
30
0
0
VERTEX
8
0
10
44.8758706457103
20
22.7862657623268
30
0
0
VERTEX
8
0
10
45.6364786227562
20
23.2062325894467
30
0
0
VERTEX
8
0
10
46.3970865998022
20
23.6269569680097
30
0
0
VERTEX
8
0
10
47.1576945768481
20
24.0484793737733
30
0
0
VERTEX
8
0
10
47.918302553894
20
24.4708412621693
30
0
0
VERTEX
8
0
10
48.67891053094
20
24.894085001897
30
0
0
VERTEX
8
0
10
49.4395185079859
20
25.3182538129458
30
0
0
VERTEX
8
0
10
50.2001264850318
20
25.7433917091217
30
0
0
VERTEX
8
0
10
50.9607344620778
20
26.1695434451136
30
0
0
VERTEX
8
0
10
51.7213424391237
20
26.5967544683196
30
0
0
VERTEX
8
0
10
52.4819504161696
20
27.0250708755613
30
0
0
VERTEX
8
0
10
53.2425583932156
20
27.454539374968
30
0
0
VERTEX
8
0
10
54.0031663702615
20
27.8852072532077
30
0
0
VERTEX
8
0
10
54.7637743473075
20
28.3171223485875
30
0
0
VERTEX
8
0
10
55.5243823243534
20
28.7503330301584
30
0
0
VERTEX
8
0
10
56.2849903013993
20
29.1848881836076
30
0
0
VERTEX
8
0
10
57.0455982784453
20
29.6208372041281
30
0
0
VERTEX
8
0
10
57.8062062554912
20
30.0582299973201
30
0
0
VERTEX
8
0
10
58.5668142325371
20
30.4971169884451
30
0
0
VERTEX
8
0
10
59.3274222095831
20
30.9375491414065
30
0
0
VERTEX
8
0
10
60.088030186629
20
31.3795779878678
30
0
0
VERTEX
8
0
10
60.8486381636749
20
31.823255668523
30
0
0
VERTEX
8
0
10
61.6092461407209
20
32.2686349872515
30
0
0
VERTEX
8
0
10
62.3698541177668
20
32.7157694803104
30
0
0
VERTEX
8
0
10
63.1304620948127
20
33.1647135024574
30
0
0
VERTEX
8
0
10
63.8910700718587
20
33.6155223324715
30
0
0
VERTEX
8
0
10
64.6516780489046
20
34.0682523010066
30
0
0
VERTEX
8
0
10
65.4122860259505
20
34.5229609443414
30
0
0
VERTEX
8
0
10
66.1728940029965
20
34.9797071883578
30
0
0
VERTEX
8
0
10
66.9335019800424
20
35.43855156794
30
0
0
VERTEX
8
0
10
67.6941099570883
20
35.8995564882913
30
0
0
VERTEX
8
0
10
68.4547179341343
20
36.3627865363936
30
0
0
VERTEX
8
0
10
69.2153259111802
20
36.8283088522526
30
0
0
VERTEX
8
0
10
69.9759338882262
20
37.2961935729682
30
0
0
VERTEX
8
0
10
70.7365418652721
20
37.7665143654616
30
0
0
VERTEX
8
0
10
71.497149842318
20
38.2393490685689
30
0
0
VERTEX
8
0
10
72.257757819364
20
38.7147804712475
30
0
0
VERTEX
8
0
10
73.0183657964099
20
39.1928972621813
30
0
0
VERTEX
8
0
10
73.7789737734558
20
39.6737951973928
30
0
0
VERTEX
8
0
10
74.5395817505018
20
40.1575785492576
30
0
0
VERTEX
8
0
10
75.3001897275477
20
40.6443619234537
30
0
0
VERTEX
8
0
10
76.0607977045936
20
41.1342725647623
30
0
0
VERTEX
8
0
10
76.8214056816396
20
41.6274533240579
30
0
0
VERTEX
8
0
10
77.5820136586855
20
42.1240665370642
30
0
0
VERTEX
8
0
10
78.3426216357314
20
42.6242991894492
30
0
0
VERTEX
8
0
10
79.1032296127774
20
43.1283699441254
30
0
0
VERTEX
8
0
10
79.8638375898233
20
43.6365389470962
30
0
0
VERTEX
8
0
10
80.6244455668692
20
44.1491219293794
30
0
0
VERTEX
8
0
10
81.3850535439152
20
44.6665112417085
30
0
0
VERTEX
8
0
10
82.1456615209611
20
45.1892086779565
30
0
0
VERTEX
8
0
10
82.906269498007
20
45.7178797083972
30
0
0
VERTEX
8
0
10
83.666877475053
20
46.2534500628465
30
0
0
VERTEX
8
0
10
84.4274854520989
20
46.7972962736334
30
0
0
VERTEX
8
0
10
85.1880934291449
20
47.3516787592754
30
0
0
VERTEX
8
0
10
85.9487014061908
20
47.9208689200199
30
0
0
VERTEX
8
0
10
86.7093093832367
20
48.5121203332288
30
0
0
VERTEX
8
0
10
87.4699173602827
20
49.1119943837754
30
0
0
VERTEX
8
0
10
88.2305253373286
20
49.6890399543735
30
0
0
VERTEX
8
0
10
88.9911333143745
20
50.2468107508824
30
0
0
VERTEX
8
0
10
89.7517412914205
20
50.79139535762
30
0
0
VERTEX
8
0
10
90.5123492684664
20
51.3258555154156
30
0
0
VERTEX
8
0
10
91.2729572455123
20
51.8519298918834
30
0
0
VERTEX
8
0
10
92.0335652225583
20
52.3707316868031
30
0
0
VERTEX
8
0
10
92.7941731996042
20
52.883031800401
30
0
0
VERTEX
8
0
10
93.5547811766501
20
53.389393358681
30
0
0
VERTEX
8
0
10
94.3153891536961
20
53.8902438299007
30
0
0
VERTEX
8
0
10
95.075997130742
20
54.3859172058895
30
0
0
VERTEX
8
0
10
95.8366051077879
20
54.8766803380114
30
0
0
VERTEX
8
0
10
96.5972130848339
20
55.3627502364917
30
0
0
VERTEX
8
0
10
97.3578210618798
20
55.8443059059134
30
0
0
VERTEX
8
0
10
98.1184290389258
20
56.3214967176711
30
0
0
VERTEX
8
0
10
98.8790370159717
20
56.7944485004183
30
0
0
VERTEX
8
0
10
99.6396449930176
20
57.2632680768887
30
0
0
VERTEX
8
0
10
100.400252970064
20
57.7280467130629
30
0
0
VERTEX
8
0
10
101.160860947109
20
58.1888627873982
30
0
0
VERTEX
8
0
10
101.921468924155
20
58.6457838889735
30
0
0
VERTEX
8
0
10
102.682076901201
20
59.098868489584
30
0
0
VERTEX
8
0
10
103.442684878247
20
59.5481672928569
30
0
0
VERTEX
8
0
10
104.203292855293
20
59.9937243348416
30
0
0
VERTEX
8
0
10
104.963900832339
20
60.4355778908665
30
0
0
VERTEX
8
0
10
105.724508809385
20
60.8737612294784
30
0
0
VERTEX
8
0
10
106.485116786431
20
61.3083032446201
30
0
0
VERTEX
8
0
10
107.245724763477
20
61.7392289895521
30
0
0
VERTEX
8
0
10
108.006332740523
20
62.1665601310339
30
0
0
VERTEX
8
0
10
108.766940717569
20
62.5903153381445
30
0
0
VERTEX
8
0
10
109.527548694615
20
63.0105106171189
30
0
0
VERTEX
8
0
10
110.288156671661
20
63.4271596013208
30
0
0
VERTEX
8
0
10
111.048764648707
20
63.8402738036486
30
0
0
VERTEX
8
0
10
111.809372625753
20
64.2498628372791
30
0
0
VERTEX
8
0
10
112.569980602799
20
64.6559346096593
30
0
0
VERTEX
8
0
10
113.330588579844
20
65.0584954936596
30
0
0
VERTEX
8
0
10
114.09119655689
20
65.4575504792243
30
0
0
VERTEX
8
0
10
114.851804533936
20
65.8531033082165
30
0
0
VERTEX
8
0
10
115.612412510982
20
66.2451565948295
30
0
0
VERTEX
8
0
10
116.373020488028
20
66.633711933391
30
0
0
VERTEX
8
0
10
117.133628465074
20
67.0187699952643
30
0
0
VERTEX
8
0
10
117.89423644212
20
67.4003306162282
30
0
0
VERTEX
8
0
10
118.654844419166
20
67.7783928754378
30
0
0
VERTEX
8
0
10
119.415452396212
20
68.152955167114
30
0
0
VERTEX
8
0
10
120.176060373258
20
68.5240152657038
30
0
0
VERTEX
8
0
10
120.936668350304
20
68.8915703853415
30
0
0
VERTEX
8
0
10
121.69727632735
20
69.2556172342063
30
0
0
VERTEX
8
0
10
122.457884304396
20
69.6161520644206
30
0
0
VERTEX
8
0
10
123.218492281442
20
69.9731707178988
30
0
0
VERTEX
8
0
10
123.979100258488
20
70.3266686686462
30
0
0
VERTEX
8
0
10
124.739708235534
20
70.6766410618372
30
0
0
VERTEX
8
0
10
125.500316212579
20
71.0230827500515
30
0
0
VERTEX
8
0
10
126.260924189625
20
71.3659883269595
30
0
0
VERTEX
8
0
10
127.021532166671
20
71.705352158662
30
0
0
VERTEX
8
0
10
127.782140143717
20
72.0411684130334
30
0
0
VERTEX
8
0
10
128.542748120763
20
72.3734310871701
30
0
0
VERTEX
8
0
10
129.303356097809
20
72.702134033179
30
0
0
VERTEX
8
0
10
130.063964074855
20
73.0272709824885
30
0
0
VERTEX
8
0
10
130.824572051901
20
73.3488355688109
30
0
0
VERTEX
8
0
10
131.585180028947
20
73.666821349892
30
0
0
VERTEX
8
0
10
132.345788005993
20
73.9812218282193
30
0
0
VERTEX
8
0
10
133.106395983039
20
74.2920304707356
30
0
0
VERTEX
8
0
10
133.867003960085
20
74.5992407277346
30
0
0
VERTEX
8
0
10
134.627611937131
20
74.9028460509621
30
0
0
VERTEX
8
0
10
135.388219914177
20
75.2028399111463
30
0
0
VERTEX
8
0
10
136.148827891223
20
75.4992158148489
30
0
0
VERTEX
8
0
10
136.909435868269
20
75.7919673209076
30
0
0
VERTEX
8
0
10
137.670043845315
20
76.0810880564448
30
0
0
VERTEX
8
0
10
138.430651822361
20
76.3665717325486
30
0
0
VERTEX
8
0
10
139.191259799407
20
76.6484121597041
30
0
0
VERTEX
8
0
10
139.951867776453
20
76.9266032630294
30
0
0
VERTEX
8
0
10
140.712475753498
20
77.2011390974548
30
0
0
VERTEX
8
0
10
141.473083730544
20
77.4720138628103
30
0
0
VERTEX
8
0
10
142.23369170759
20
77.7392219190189
30
0
0
VERTEX
8
0
10
142.994299684636
20
78.0027578014174
30
0
0
VERTEX
8
0
10
143.754907661682
20
78.2626162362827
30
0
0
VERTEX
8
0
10
144.515515638728
20
78.5187921567172
30
0
0
VERTEX
8
0
10
145.276123615774
20
78.7712807189429
30
0
0
VERTEX
8
0
10
146.03673159282
20
79.0200773191534
30
0
0
VERTEX
8
0
10
146.797339569866
20
79.2651776110392
30
0
0
VERTEX
8
0
10
147.557947546912
20
79.5065775241653
30
0
0
VERTEX
8
0
10
148.318555523958
20
79.7442732833336
30
0
0
VERTEX
8
0
10
149.079163501004
20
79.9782614291582
30
0
0
VERTEX
8
0
10
149.83977147805
20
80.2085388400856
30
0
0
VERTEX
8
0
10
150.600379455096
20
80.4351027561344
30
0
0
VERTEX
8
0
10
151.360987432142
20
80.6579508046764
30
0
0
VERTEX
8
0
10
152.121595409188
20
80.8770810286859
30
0
0
VERTEX
8
0
10
152.882203386234
20
81.0924919178825
30
0
0
VERTEX
8
0
10
153.64281136328
20
81.3041824434377
30
0
0
VERTEX
8
0
10
154.403419340326
20
81.5121520968924
30
0
0
VERTEX
8
0
10
155.164027317371
20
81.7164009342326
30
0
0
SEQEND
8
0
0
POLYLINE
8
0
62
4
70
0
10
0
20
0
30
0
0
VERTEX
8
0
10
14.4515515638728
20
0
30
0
0
VERTEX
8
0
10
15.2121595409188
20
0
30
0
0
VERTEX
8
0
10
15.9727675179647
20
0
30
0
0
VERTEX
8
0
10
16.7333754950106
20
0
30
0
0
VERTEX
8
0
10
17.4939834720566
20
7.97977992479452
30
0
0
VERTEX
8
0
10
18.2545914491025
20
8.38595279040156
30
0
0
VERTEX
8
0
10
19.0151994261484
20
8.79673813877602
30
0
0
VERTEX
8
0
10
19.7758074031944
20
9.21069106126381
30
0
0
VERTEX
8
0
10
20.5364153802403
20
9.61362462918134
30
0
0
VERTEX
8
0
10
21.2970233572863
20
10.0206742958269
30
0
0
VERTEX
8
0
10
22.0576313343322
20
10.4361368278793
30
0
0
VERTEX
8
0
10
22.8182393113781
20
10.9152437643277
30
0
0
VERTEX
8
0
10
23.5788472884241
20
11.4185172465776
30
0
0
VERTEX
8
0
10
24.33945526547
20
11.9435333229875
30
0
0
VERTEX
8
0
10
25.100063242516
20
12.4761925373742
30
0
0
VERTEX
8
0
10
25.8606712195619
20
13.013062816169
30
0
0
VERTEX
8
0
10
26.6212791966078
20
13.561220414586
30
0
0
VERTEX
8
0
10
27.3818871736538
20
14.1193768739829
30
0
0
VERTEX
8
0
10
28.1424951506997
20
14.6302538283876
30
0
0
VERTEX
8
0
10
28.9031031277456
20
15.1487169011
30
0
0
VERTEX
8
0
10
29.6637111047916
20
15.6706985873317
30
0
0
VERTEX
8
0
10
30.4243190818375
20
16.1429466171393
30
0
0
VERTEX
8
0
10
31.1849270588835
20
16.5813823094678
30
0
0
VERTEX
8
0
10
31.9455350359294
20
17.0202650901709
30
0
0
VERTEX
8
0
10
32.7061430129753
20
17.4595847208434
30
0
0
VERTEX
8
0
10
33.4667509900213
20
17.8845636180281
30
0
0
VERTEX
8
0
10
34.2273589670672
20
18.3116423143789
30
0
0
VERTEX
8
0
10
34.9879669441131
20
18.7390906125895
30
0
0
VERTEX
8
0
10
35.7485749211591
20
19.1890277579693
30
0
0
VERTEX
8
0
10
36.509182898205
20
19.6508115607982
30
0
0
VERTEX
8
0
10
37.2697908752509
20
20.1131913772694
30
0
0
VERTEX
8
0
10
38.0303988522969
20
20.5761523826457
30
0
0
VERTEX
8
0
10
38.7910068293428
20
21.0113132738121
30
0
0
VERTEX
8
0
10
39.5516148063887
20
21.4514159215564
30
0
0
VERTEX
8
0
10
40.3122227834347
20
21.8919146257125
30
0
0
VERTEX
8
0
10
41.0728307604806
20
22.3156299462206
30
0
0
VERTEX
8
0
10
41.8334387375266
20
22.7331255362214
30
0
0
VERTEX
8
0
10
42.5940467145725
20
23.151050501588
30
0
0
VERTEX
8
0
10
43.3546546916184
20
23.5694105602235
30
0
0
VERTEX
8
0
10
44.1152626686644
20
23.9845251183926
30
0
0
VERTEX
8
0
10
44.8758706457103
20
24.4008415702808
30
0
0
VERTEX
8
0
10
45.6364786227562
20
24.8176259540067
30
0
0
VERTEX
8
0
10
46.3970865998022
20
25.2303215044497
30
0
0
VERTEX
8
0
10
47.1576945768481
20
25.6422415609311
30
0
0
VERTEX
8
0
10
47.918302553894
20
26.054682686106
30
0
0
VERTEX
8
0
10
48.67891053094
20
26.4676521184638
30
0
0
VERTEX
8
0
10
49.4395185079859
20
26.879265873703
30
0
0
VERTEX
8
0
10
50.2001264850318
20
27.2918804745147
30
0
0
VERTEX
8
0
10
50.9607344620778
20
27.7050553351115
30
0
0
VERTEX
8
0
10
51.7213424391237
20
28.0673391748382
30
0
0
VERTEX
8
0
10
52.4819504161696
20
28.4211192910591
30
0
0
VERTEX
8
0
10
53.2425583932156
20
28.7763187050977
30
0
0
VERTEX
8
0
10
54.0031663702615
20
29.1329193758668
30
0
0
VERTEX
8
0
10
54.7637743473075
20
29.4538017395662
30
0
0
VERTEX
8
0
10
55.5243823243534
20
29.7868681678646
30
0
0
VERTEX
8
0
10
56.2849903013993
20
30.1219634733818
30
0
0
VERTEX
8
0
10
57.0455982784453
20
30.4185661700274
30
0
0
VERTEX
8
0
10
57.8062062554912
20
30.7141122867147
30
0
0
VERTEX
8
0
10
58.5668142325371
20
31.0132212942621
30
0
0
VERTEX
8
0
10
59.3274222095831
20
31.3158263321033
30
0
0
VERTEX
8
0
10
60.088030186629
20
31.6554430586827
30
0
0
VERTEX
8
0
10
60.8486381636749
20
31.987196960359
30
0
0
VERTEX
8
0
10
61.6092461407209
20
32.3213143718502
30
0
0
VERTEX
8
0
10
62.3698541177668
20
32.695300509433
30
0
0
VERTEX
8
0
10
63.1304620948127
20
33.0721812215867
30
0
0
VERTEX
8
0
10
63.8910700718587
20
33.4502336921812
30
0
0
VERTEX
8
0
10
64.6516780489046
20
33.8294531525485
30
0
0
VERTEX
8
0
10
65.4122860259505
20
34.3983948942174
30
0
0
VERTEX
8
0
10
66.1728940029965
20
34.9078587960483
30
0
0
VERTEX
8
0
10
66.9335019800424
20
35.4192703633825
30
0
0
VERTEX
8
0
10
67.6941099570883
20
35.9721373287359
30
0
0
VERTEX
8
0
10
68.4547179341343
20
36.5275576001687
30
0
0
VERTEX
8
0
10
69.2153259111802
20
37.0860233737162
30
0
0
VERTEX
8
0
10
69.9759338882262
20
37.6228922433253
30
0
0
VERTEX
8
0
10
70.7365418652721
20
38.1411673403229
30
0
0
VERTEX
8
0
10
71.497149842318
20
38.6609909475636
30
0
0
VERTEX
8
0
10
72.257757819364
20
39.1823305380472
30
0
0
VERTEX
8
0
10
73.0183657964099
20
39.6935254948682
30
0
0
VERTEX
8
0
10
73.7789737734558
20
40.2067911235641
30
0
0
VERTEX
8
0
10
74.5395817505018
20
40.7213057879449
30
0
0
VERTEX
8
0
10
75.3001897275477
20
41.2319714889475
30
0
0
VERTEX
8
0
10
76.0607977045936
20
41.7404289171046
30
0
0
VERTEX
8
0
10
76.8214056816396
20
42.2499682605058
30
0
0
VERTEX
8
0
10
77.5820136586855
20
42.760574757961
30
0
0
VERTEX
8
0
10
78.3426216357314
20
43.1950544160565
30
0
0
VERTEX
8
0
10
79.1032296127774
20
43.6393736937551
30
0
0
VERTEX
8
0
10
79.8638375898233
20
44.0844572328026
30
0
0
VERTEX
8
0
10
80.6244455668692
20
44.5222999239698
30
0
0
VERTEX
8
0
10
81.3850535439152
20
44.9568734215406
30
0
0
VERTEX
8
0
10
82.1456615209611
20
45.3922493692374
30
0
0
VERTEX
8
0
10
82.906269498007
20
45.8284226852969
30
0
0
VERTEX
8
0
10
83.666877475053
20
46.3034370803333
30
0
0
VERTEX
8
0
10
84.4274854520989
20
46.7730313606048
30
0
0
VERTEX
8
0
10
85.1880934291449
20
47.2433447262907
30
0
0
VERTEX
8
0
10
85.9487014061908
20
47.704736129684
30
0
0
VERTEX
8
0
10
86.7093093832367
20
48.1630209861154
30
0
0
VERTEX
8
0
10
87.4699173602827
20
48.6210365126821
30
0
0
VERTEX
8
0
10
88.2305253373286
20
49.0774228436012
30
0
0
VERTEX
8
0
10
88.9911333143745
20
49.522412143852
30
0
0
VERTEX
8
0
10
89.7517412914205
20
49.9673117941329
30
0
0
VERTEX
8
0
10
90.5123492684664
20
50.4102200256344
30
0
0
VERTEX
8
0
10
91.2729572455123
20
50.9105550659492
30
0
0
VERTEX
8
0
10
92.0335652225583
20
51.4258879847714
30
0
0
VERTEX
8
0
10
92.7941731996042
20
51.9395658051965
30
0
0
VERTEX
8
0
10
93.5547811766501
20
52.4515797314577
30
0
0
VERTEX
8
0
10
94.3153891536961
20
52.9821465810618
30
0
0
VERTEX
8
0
10
95.075997130742
20
53.5064535918604
30
0
0
VERTEX
8
0
10
95.8366051077879
20
54.0292483187558
30
0
0
VERTEX
8
0
10
96.5972130848339
20
54.5633583118513
30
0
0
VERTEX
8
0
10
97.3578210618798
20
55.0985703749667
30
0
0
VERTEX
8
0
10
98.1184290389258
20
55.6324328802443
30
0
0
VERTEX
8
0
10
98.8790370159717
20
56.1649293305316
30
0
0
VERTEX
8
0
10
99.6396449930176
20
56.6140320539279
30
0
0
VERTEX
8
0
10
100.400252970064
20
57.0831885390154
30
0
0
VERTEX
8
0
10
101.160860947109
20
57.5503849980471
30
0
0
VERTEX
8
0
10
101.921468924155
20
57.9937329299547
30
0
0
VERTEX
8
0
10
102.682076901201
20
58.4325543351144
30
0
0
VERTEX
8
0
10
103.442684878247
20
58.8693072470716
30
0
0
VERTEX
8
0
10
104.203292855293
20
59.3039846155103
30
0
0
VERTEX
8
0
10
104.963900832339
20
59.7386322473284
30
0
0
VERTEX
8
0
10
105.724508809385
20
60.1705787406372
30
0
0
VERTEX
8
0
10
106.485116786431
20
60.6004316280768
30
0
0
VERTEX
8
0
10
107.245724763477
20
61.0198965632229
30
0
0
VERTEX
8
0
10
108.006332740523
20
61.4368690958872
30
0
0
VERTEX
8
0
10
108.766940717569
20
61.8517090994322
30
0
0
VERTEX
8
0
10
109.527548694615
20
62.2644088797588
30
0
0
VERTEX
8
0
10
110.288156671661
20
62.6298538847886
30
0
0
VERTEX
8
0
10
111.048764648707
20
63.0079210659547
30
0
0
VERTEX
8
0
10
111.809372625753
20
63.3838263808182
30
0
0
VERTEX
8
0
10
112.569980602799
20
63.8044121831183
30
0
0
VERTEX
8
0
10
113.330588579844
20
64.2221062027165
30
0
0
VERTEX
8
0
10
114.09119655689
20
64.637656928938
30
0
0
VERTEX
8
0
10
114.851804533936
20
65.0597695958396
30
0
0
VERTEX
8
0
10
115.612412510982
20
65.4870315790034
30
0
0
VERTEX
8
0
10
116.373020488028
20
65.9122047141142
30
0
0
VERTEX
8
0
10
117.133628465074
20
66.3352827690372
30
0
0
VERTEX
8
0
10
117.89423644212
20
66.727880844075
30
0
0
VERTEX
8
0
10
118.654844419166
20
67.1202480294917
30
0
0
VERTEX
8
0
10
119.415452396212
20
67.5103947749743
30
0
0
VERTEX
8
0
10
120.176060373258
20
67.8885322375948
30
0
0
VERTEX
8
0
10
120.936668350304
20
68.2580182298938
30
0
0
VERTEX
8
0
10
121.69727632735
20
68.6252334198389
30
0
0
VERTEX
8
0
10
122.457884304396
20
68.9901706453533
30
0
0
VERTEX
8
0
10
123.218492281442
20
69.3427982432399
30
0
0
VERTEX
8
0
10
123.979100258488
20
69.6943124515677
30
0
0
VERTEX
8
0
10
124.739708235534
20
70.0435201692982
30
0
0
VERTEX
8
0
10
125.500316212579
20
70.338650310314
30
0
0
VERTEX
8
0
10
126.260924189625
20
70.6054442283071
30
0
0
VERTEX
8
0
10
127.021532166671
20
70.8701662365542
30
0
0
VERTEX
8
0
10
127.782140143717
20
71.1327990077272
30
0
0
VERTEX
8
0
10
128.542748120763
20
71.3933255635021
30
0
0
VERTEX
8
0
10
129.303356097809
20
71.6517292733618
30
0
0
VERTEX
8
0
10
130.063964074855
20
71.9079938535401
30
0
0
VERTEX
8
0
10
130.824572051901
20
72.18179415657
30
0
0
VERTEX
8
0
10
131.585180028947
20
72.4608602467546
30
0
0
VERTEX
8
0
10
132.345788005993
20
72.7375990348211
30
0
0
VERTEX
8
0
10
133.106395983039
20
73.0119996682947
30
0
0
VERTEX
8
0
10
133.867003960085
20
73.2858348910496
30
0
0
VERTEX
8
0
10
134.627611937131
20
73.5569465957471
30
0
0
VERTEX
8
0
10
135.388219914177
20
73.8256845285144
30
0
0
VERTEX
8
0
10
136.148827891223
20
74.1031184508663
30
0
0
VERTEX
8
0
10
136.909435868269
20
74.3812283219814
30
0
0
VERTEX
8
0
10
137.670043845315
20
74.6569042818321
30
0
0
VERTEX
8
0
10
138.430651822361
20
74.9301393579234
30
0
0
VERTEX
8
0
10
139.191259799407
20
75.2380318322509
30
0
0
VERTEX
8
0
10
139.951867776453
20
75.5346747672429
30
0
0
VERTEX
8
0
10
140.712475753498
20
75.828864167679
30
0
0
VERTEX
8
0
10
141.473083730544
20
76.1408953990356
30
0
0
VERTEX
8
0
10
142.23369170759
20
76.4543898919009
30
0
0
VERTEX
8
0
10
142.994299684636
20
76.7654953551816
30
0
0
VERTEX
8
0
10
143.754907661682
20
77.0742107408851
30
0
0
VERTEX
8
0
10
144.515515638728
20
77.443478159655
30
0
0
VERTEX
8
0
10
145.276123615774
20
77.7937168446002
30
0
0
VERTEX
8
0
10
146.03673159282
20
78.1418634636046
30
0
0
VERTEX
8
0
10
146.797339569866
20
78.4682748604594
30
0
0
VERTEX
8
0
10
147.557947546912
20
78.7902374429378
30
0
0
VERTEX
8
0
10
148.318555523958
20
79.1099451351664
30
0
0
VERTEX
8
0
10
149.079163501004
20
79.4273993572933
30
0
0
VERTEX
8
0
10
149.83977147805
20
79.7257534468796
30
0
0
VERTEX
8
0
10
150.600379455096
20
80.0268280419667
30
0
0
VERTEX
8
0
10
151.360987432142
20
80.3255847758277
30
0
0
VERTEX
8
0
10
152.121595409188
20
80.6718991694178
30
0
0
VERTEX
8
0
10
152.882203386234
20
81.0184701068487
30
0
0
VERTEX
8
0
10
153.64281136328
20
81.3631292690712
30
0
0
VERTEX
8
0
10
154.403419340326
20
81.7058793865498
30
0
0
VERTEX
8
0
10
155.164027317371
20
82.0102964787828
30
0
0
SEQEND
8
0
0
ENDSEC
0
EOF
