0
SECTION
2
HEADER
9
$ACADVER
1
AC1009
0
ENDSEC
0
SECTION
2
ENTITIES
0
POLYLINE
8
0
62
0
70
1
10
0
20
0
30
0
0
VERTEX
8
0
10
0
20
0
30
0
0
VERTEX
8
0
10
0
20
122.62
30
0
0
VERTEX
8
0
10
179.2
20
122.62
30
0
0
VERTEX
8
0
10
179.2
20
0
30
0
0
SEQEND
8
0
0
TEXT
8
0
62
0
10
0
20
-12
30
0
40
8
1
0
50
0
0
LINE
8
0
62
0
10
8.19018411917815
20
0
30
0
11
8.19018411917815
21
3.2
31
0
0
LINE
8
0
62
0
10
8.19018411917815
20
122.62
30
0
11
8.19018411917815
21
119.42
31
0
0
LINE
8
0
62
0
10
16.3803682383563
20
0
30
0
11
16.3803682383563
21
3.2
31
0
0
LINE
8
0
62
0
10
16.3803682383563
20
122.62
30
0
11
16.3803682383563
21
119.42
31
0
0
LINE
8
0
62
0
10
24.5705523575344
20
0
30
0
11
24.5705523575344
21
3.2
31
0
0
LINE
8
0
62
0
10
24.5705523575344
20
122.62
30
0
11
24.5705523575344
21
119.42
31
0
0
LINE
8
0
62
0
10
32.7607364767126
20
0
30
0
11
32.7607364767126
21
3.2
31
0
0
LINE
8
0
62
0
10
32.7607364767126
20
122.62
30
0
11
32.7607364767126
21
119.42
31
0
0
LINE
8
0
62
0
10
40.9509205958907
20
0
30
0
11
40.9509205958907
21
6.4
31
0
0
LINE
8
0
62
0
10
40.9509205958907
20
122.62
30
0
11
40.9509205958907
21
116.22
31
0
0
TEXT
8
0
62
0
10
40.9509205958907
20
-12
30
0
40
8
1
5
50
0
0
LINE
8
0
62
0
10
49.1411047150689
20
0
30
0
11
49.1411047150689
21
3.2
31
0
0
LINE
8
0
62
0
10
49.1411047150689
20
122.62
30
0
11
49.1411047150689
21
119.42
31
0
0
LINE
8
0
62
0
10
57.331288834247
20
0
30
0
11
57.331288834247
21
3.2
31
0
0
LINE
8
0
62
0
10
57.331288834247
20
122.62
30
0
11
57.331288834247
21
119.42
31
0
0
LINE
8
0
62
0
10
65.5214729534252
20
0
30
0
11
65.5214729534252
21
3.2
31
0
0
LINE
8
0
62
0
10
65.5214729534252
20
122.62
30
0
11
65.5214729534252
21
119.42
31
0
0
LINE
8
0
62
0
10
73.7116570726033
20
0
30
0
11
73.7116570726033
21
3.2
31
0
0
LINE
8
0
62
0
10
73.7116570726033
20
122.62
30
0
11
73.7116570726033
21
119.42
31
0
0
LINE
8
0
62
0
10
81.9018411917815
20
0
30
0
11
81.9018411917815
21
6.4
31
0
0
LINE
8
0
62
0
10
81.9018411917815
20
122.62
30
0
11
81.9018411917815
21
116.22
31
0
0
TEXT
8
0
62
0
10
81.9018411917815
20
-12
30
0
40
8
1
10
50
0
0
LINE
8
0
62
0
10
90.0920253109596
20
0
30
0
11
90.0920253109596
21
3.2
31
0
0
LINE
8
0
62
0
10
90.0920253109596
20
122.62
30
0
11
90.0920253109596
21
119.42
31
0
0
LINE
8
0
62
0
10
98.2822094301377
20
0
30
0
11
98.2822094301377
21
3.2
31
0
0
LINE
8
0
62
0
10
98.2822094301377
20
122.62
30
0
11
98.2822094301377
21
119.42
31
0
0
LINE
8
0
62
0
10
106.472393549316
20
0
30
0
11
106.472393549316
21
3.2
31
0
0
LINE
8
0
62
0
10
106.472393549316
20
122.62
30
0
11
106.472393549316
21
119.42
31
0
0
LINE
8
0
62
0
10
114.662577668494
20
0
30
0
11
114.662577668494
21
3.2
31
0
0
LINE
8
0
62
0
10
114.662577668494
20
122.62
30
0
11
114.662577668494
21
119.42
31
0
0
LINE
8
0
62
0
10
122.852761787672
20
0
30
0
11
122.852761787672
21
6.4
31
0
0
LINE
8
0
62
0
10
122.852761787672
20
122.62
30
0
11
122.852761787672
21
116.22
31
0
0
TEXT
8
0
62
0
10
122.852761787672
20
-12
30
0
40
8
1
15
50
0
0
LINE
8
0
62
0
10
131.04294590685
20
0
30
0
11
131.04294590685
21
3.2
31
0
0
LINE
8
0
62
0
10
131.04294590685
20
122.62
30
0
11
131.04294590685
21
119.42
31
0
0
LINE
8
0
62
0
10
139.233130026028
20
0
30
0
11
139.233130026028
21
3.2
31
0
0
LINE
8
0
62
0
10
139.233130026028
20
122.62
30
0
11
139.233130026028
21
119.42
31
0
0
LINE
8
0
62
0
10
147.423314145207
20
0
30
0
11
147.423314145207
21
3.2
31
0
0
LINE
8
0
62
0
10
147.423314145207
20
122.62
30
0
11
147.423314145207
21
119.42
31
0
0
LINE
8
0
62
0
10
155.613498264385
20
0
30
0
11
155.613498264385
21
3.2
31
0
0
LINE
8
0
62
0
10
155.613498264385
20
122.62
30
0
11
155.613498264385
21
119.42
31
0
0
LINE
8
0
62
0
10
163.803682383563
20
0
30
0
11
163.803682383563
21
6.4
31
0
0
LINE
8
0
62
0
10
163.803682383563
20
122.62
30
0
11
163.803682383563
21
116.22
31
0
0
TEXT
8
0
62
0
10
163.803682383563
20
-12
30
0
40
8
1
20
50
0
0
LINE
8
0
62
0
10
171.993866502741
20
0
30
0
11
171.993866502741
21
3.2
31
0
0
LINE
8
0
62
0
10
171.993866502741
20
122.62
30
0
11
171.993866502741
21
119.42
31
0
0
TEXT
8
0
62
0
10
-4
20
-4
30
0
40
8
1
0
50
0
0
LINE
8
0
62
0
10
0
20
6.131
30
0
11
3.2
21
6.131
31
0
0
LINE
8
0
62
0
10
179.2
20
6.131
30
0
11
176
21
6.131
31
0
0
LINE
8
0
62
0
10
0
20
12.262
30
0
11
3.2
21
12.262
31
0
0
LINE
8
0
62
0
10
179.2
20
12.262
30
0
11
176
21
12.262
31
0
0
LINE
8
0
62
0
10
0
20
18.393
30
0
11
3.2
21
18.393
31
0
0
LINE
8
0
62
0
10
179.2
20
18.393
30
0
11
176
21
18.393
31
0
0
LINE
8
0
62
0
10
0
20
24.524
30
0
11
3.2
21
24.524
31
0
0
LINE
8
0
62
0
10
179.2
20
24.524
30
0
11
176
21
24.524
31
0
0
LINE
8
0
62
0
10
0
20
30.655
30
0
11
6.4
21
30.655
31
0
0
LINE
8
0
62
0
10
179.2
20
30.655
30
0
11
172.8
21
30.655
31
0
0
TEXT
8
0
62
0
10
-4
20
26.655
30
0
40
8
1
50
50
0
0
LINE
8
0
62
0
10
0
20
36.786
30
0
11
3.2
21
36.786
31
0
0
LINE
8
0
62
0
10
179.2
20
36.786
30
0
11
176
21
36.786
31
0
0
LINE
8
0
62
0
10
0
20
42.917
30
0
11
3.2
21
42.917
31
0
0
LINE
8
0
62
0
10
179.2
20
42.917
30
0
11
176
21
42.917
31
0
0
LINE
8
0
62
0
10
0
20
49.048
30
0
11
3.2
21
49.048
31
0
0
LINE
8
0
62
0
10
179.2
20
49.048
30
0
11
176
21
49.048
31
0
0
LINE
8
0
62
0
10
0
20
55.179
30
0
11
3.2
21
55.179
31
0
0
LINE
8
0
62
0
10
179.2
20
55.179
30
0
11
176
21
55.179
31
0
0
LINE
8
0
62
0
10
0
20
61.31
30
0
11
6.4
21
61.31
31
0
0
LINE
8
0
62
0
10
179.2
20
61.31
30
0
11
172.8
21
61.31
31
0
0
TEXT
8
0
62
0
10
-4
20
57.31
30
0
40
8
1
100
50
0
0
LINE
8
0
62
0
10
0
20
67.441
30
0
11
3.2
21
67.441
31
0
0
LINE
8
0
62
0
10
179.2
20
67.441
30
0
11
176
21
67.441
31
0
0
LINE
8
0
62
0
10
0
20
73.572
30
0
11
3.2
21
73.572
31
0
0
LINE
8
0
62
0
10
179.2
20
73.572
30
0
11
176
21
73.572
31
0
0
LINE
8
0
62
0
10
0
20
79.703
30
0
11
3.2
21
79.703
31
0
0
LINE
8
0
62
0
10
179.2
20
79.703
30
0
11
176
21
79.703
31
0
0
LINE
8
0
62
0
10
0
20
85.834
30
0
11
3.2
21
85.834
31
0
0
LINE
8
0
62
0
10
179.2
20
85.834
30
0
11
176
21
85.834
31
0
0
LINE
8
0
62
0
10
0
20
91.965
30
0
11
6.4
21
91.965
31
0
0
LINE
8
0
62
0
10
179.2
20
91.965
30
0
11
172.8
21
91.965
31
0
0
TEXT
8
0
62
0
10
-4
20
87.965
30
0
40
8
1
150
50
0
0
LINE
8
0
62
0
10
0
20
98.096
30
0
11
3.2
21
98.096
31
0
0
LINE
8
0
62
0
10
179.2
20
98.096
30
0
11
176
21
98.096
31
0
0
LINE
8
0
62
0
10
0
20
104.227
30
0
11
3.2
21
104.227
31
0
0
LINE
8
0
62
0
10
179.2
20
104.227
30
0
11
176
21
104.227
31
0
0
LINE
8
0
62
0
10
0
20
110.358
30
0
11
3.2
21
110.358
31
0
0
LINE
8
0
62
0
10
179.2
20
110.358
30
0
11
176
21
110.358
31
0
0
LINE
8
0
62
0
10
0
20
116.489
30
0
11
3.2
21
116.489
31
0
0
LINE
8
0
62
0
10
179.2
20
116.489
30
0
11
176
21
116.489
31
0
0
TEXT
8
0
62
0
10
-4
20
118.62
30
0
40
8
1
200
50
0
0
TEXT
8
0
62
0
10
89.6
20
-32
30
0
40
10
1
R (kpc)
50
0
0
TEXT
8
0
62
0
10
-24
20
61.31
30
0
40
10
1
V (km/s)
50
90
0
TEXT
8
0
62
0
10
72.6
20
137.62
30
0
40
11
1
V vs. R
50
0
0
POLYLINE
8
0
62
5
70
0
10
0
20
0
30
0
0
VERTEX
8
0
10
2.45705523575344
20
99.0386126652229
30
0
0
VERTEX
8
0
10
3.27607364767126
20
91.3974342473706
30
0
0
VERTEX
8
0
10
4.09509205958907
20
82.1047327442769
30
0
0
VERTEX
8
0
10
4.91411047150689
20
75.0436702606641
30
0
0
VERTEX
8
0
10
5.7331288834247
20
71.6833758114162
30
0
0
VERTEX
8
0
10
6.55214729534252
20
67.5285721652143
30
0
0
VERTEX
8
0
10
7.37116570726033
20
63.603300467451
30
0
0
VERTEX
8
0
10
8.19018411917815
20
60.3815463496816
30
0
0
VERTEX
8
0
10
9.00920253109596
20
57.2844446160115
30
0
0
VERTEX
8
0
10
9.82822094301378
20
54.8951725543201
30
0
0
VERTEX
8
0
10
10.6472393549316
20
52.862247848398
30
0
0
VERTEX
8
0
10
11.4662577668494
20
50.9193330628856
30
0
0
VERTEX
8
0
10
12.2852761787672
20
49.3499232658144
30
0
0
VERTEX
8
0
10
13.104294590685
20
47.8096121312126
30
0
0
VERTEX
8
0
10
13.9233130026029
20
46.4176870557831
30
0
0
VERTEX
8
0
10
14.7423314145207
20
44.9897187130793
30
0
0
VERTEX
8
0
10
15.5613498264385
20
43.901806826024
30
0
0
VERTEX
8
0
10
16.3803682383563
20
42.7140104459022
30
0
0
VERTEX
8
0
10
17.1993866502741
20
41.7621608423465
30
0
0
VERTEX
8
0
10
18.0184050621919
20
40.7681011766488
30
0
0
VERTEX
8
0
10
18.8374234741097
20
39.8724546312455
30
0
0
VERTEX
8
0
10
19.6564418860276
20
39.0479977727939
30
0
0
VERTEX
8
0
10
20.4754602979454
20
38.2235409143423
30
0
0
VERTEX
8
0
10
21.2944787098632
20
37.4712762955919
30
0
0
VERTEX
8
0
10
22.113497121781
20
36.7903322969372
30
0
0
VERTEX
8
0
10
22.9325155336988
20
36.1093882982826
30
0
0
VERTEX
8
0
10
23.7515339456166
20
35.428444299628
30
0
0
VERTEX
8
0
10
24.5705523575345
20
34.8731842685846
30
0
0
VERTEX
8
0
10
25.3895707694523
20
34.2904859214772
30
0
0
VERTEX
8
0
10
26.2085891813701
20
33.7077875743697
30
0
0
VERTEX
8
0
10
27.0276075932879
20
33.2180626383678
30
0
0
VERTEX
8
0
10
27.8466260052057
20
32.7234465995441
30
0
0
VERTEX
8
0
10
28.6656444171235
20
32.2288305607203
30
0
0
VERTEX
8
0
10
29.4846628290413
20
31.7905719406295
30
0
0
VERTEX
8
0
10
30.3036812409592
20
31.3637115235624
30
0
0
VERTEX
8
0
10
31.122699652877
20
30.9368511064953
30
0
0
VERTEX
8
0
10
31.9417180647948
20
30.5408883111206
30
0
0
VERTEX
8
0
10
32.7607364767126
20
30.164844610371
30
0
0
VERTEX
8
0
10
33.5797548886304
20
29.7888009096215
30
0
0
VERTEX
8
0
10
34.3987733005482
20
29.4127572088719
30
0
0
VERTEX
8
0
10
35.217791712466
20
29.0929886246443
30
0
0
VERTEX
8
0
10
36.0368101243838
20
28.7575982969488
30
0
0
VERTEX
8
0
10
36.8558285363017
20
28.4222079692532
30
0
0
VERTEX
8
0
10
37.6748469482195
20
28.1261332770877
30
0
0
VERTEX
8
0
10
38.4938653601373
20
27.8246207602705
30
0
0
VERTEX
8
0
10
39.3128837720551
20
27.5231082434533
30
0
0
VERTEX
8
0
10
40.1319021839729
20
27.2469839991362
30
0
0
VERTEX
8
0
10
40.9509205958907
20
26.9725737310216
30
0
0
VERTEX
8
0
10
41.7699390078085
20
26.6981634629071
30
0
0
VERTEX
8
0
10
42.5889574197263
20
26.4430772313687
30
0
0
VERTEX
8
0
10
43.4079758316442
20
26.1957692119569
30
0
0
VERTEX
8
0
10
44.226994243562
20
25.948461192545
30
0
0
VERTEX
8
0
10
45.0460126554798
20
25.7011531731331
30
0
0
VERTEX
8
0
10
45.8650310673976
20
25.4841166907374
30
0
0
VERTEX
8
0
10
46.6840494793154
20
25.2571353578526
30
0
0
VERTEX
8
0
10
47.5030678912332
20
25.0301540249677
30
0
0
VERTEX
8
0
10
48.322086303151
20
24.8203215987983
30
0
0
VERTEX
8
0
10
49.1411047150688
20
24.6068913902648
30
0
0
VERTEX
8
0
10
49.9601231269867
20
24.3934611817312
30
0
0
VERTEX
8
0
10
50.7791415389045
20
24.2047353535164
30
0
0
VERTEX
8
0
10
51.5981599508223
20
24.0150196125977
30
0
0
VERTEX
8
0
10
52.4171783627401
20
23.825303871679
30
0
0
VERTEX
8
0
10
53.2361967746579
20
23.643901633854
30
0
0
VERTEX
8
0
10
54.0552151865757
20
23.4643492361988
30
0
0
VERTEX
8
0
10
54.8742335984935
20
23.2847968385436
30
0
0
VERTEX
8
0
10
55.6932520104113
20
23.113296993718
30
0
0
VERTEX
8
0
10
56.5122704223291
20
22.9472957204142
30
0
0
VERTEX
8
0
10
57.331288834247
20
22.7812944471103
30
0
0
VERTEX
8
0
10
58.1503072461648
20
22.6152931738064
30
0
0
VERTEX
8
0
10
58.9693256580826
20
22.4725063495263
30
0
0
VERTEX
8
0
10
59.7883440700004
20
22.3234439816616
30
0
0
VERTEX
8
0
10
60.6073624819182
20
22.1743816137969
30
0
0
VERTEX
8
0
10
61.426380893836
20
22.0175495253037
30
0
0
VERTEX
8
0
10
62.2453993057538
20
21.8617115952634
30
0
0
VERTEX
8
0
10
63.0644177176716
20
21.705873665223
30
0
0
VERTEX
8
0
10
63.8834361295894
20
21.571923550949
30
0
0
VERTEX
8
0
10
64.7024545415073
20
21.4398000885235
30
0
0
VERTEX
8
0
10
65.5214729534251
20
21.307676626098
30
0
0
VERTEX
8
0
10
66.3404913653429
20
21.1779219650057
30
0
0
VERTEX
8
0
10
67.1595097772607
20
21.049186283668
30
0
0
VERTEX
8
0
10
67.9785281891785
20
20.9204506023303
30
0
0
VERTEX
8
0
10
68.7975466010963
20
20.7917149209926
30
0
0
VERTEX
8
0
10
69.6165650130141
20
20.6729763455162
30
0
0
VERTEX
8
0
10
70.4355834249319
20
20.5510162263542
30
0
0
VERTEX
8
0
10
71.2546018368498
20
20.4290561071921
30
0
0
VERTEX
8
0
10
72.0736202487676
20
20.3240580817906
30
0
0
VERTEX
8
0
10
72.8926386606854
20
20.2156490869799
30
0
0
VERTEX
8
0
10
73.7116570726032
20
20.1072400921693
30
0
0
VERTEX
8
0
10
74.530675484521
20
19.9883836155097
30
0
0
VERTEX
8
0
10
75.3496938964388
20
19.8698112774355
30
0
0
VERTEX
8
0
10
76.1687123083566
20
19.7512389393613
30
0
0
VERTEX
8
0
10
76.9877307202744
20
19.649013388042
30
0
0
VERTEX
8
0
10
77.8067491321923
20
19.5507677364948
30
0
0
VERTEX
8
0
10
78.6257675441101
20
19.4525220849476
30
0
0
VERTEX
8
0
10
79.4447859560279
20
19.3562428683691
30
0
0
VERTEX
8
0
10
80.2638043679457
20
19.2613849979097
30
0
0
VERTEX
8
0
10
81.0828227798635
20
19.1665271274504
30
0
0
VERTEX
8
0
10
81.9018411917813
20
19.071669256991
30
0
0
VERTEX
8
0
10
82.7208596036991
20
18.9722151999657
30
0
0
VERTEX
8
0
10
83.5398780156169
20
18.8739695484185
30
0
0
VERTEX
8
0
10
84.3588964275347
20
18.7757238968713
30
0
0
VERTEX
8
0
10
85.1779148394526
20
18.6851545594751
30
0
0
VERTEX
8
0
10
85.9969332513704
20
18.5936844701036
30
0
0
VERTEX
8
0
10
86.8159516632882
20
18.5022143807321
30
0
0
VERTEX
8
0
10
87.634970075206
20
18.4210113833106
30
0
0
VERTEX
8
0
10
88.4539884871238
20
18.3408338975652
30
0
0
VERTEX
8
0
10
89.2730068990416
20
18.2606564118198
30
0
0
VERTEX
8
0
10
90.0920253109594
20
18.1789308606781
30
0
0
VERTEX
8
0
10
90.9110437228772
20
18.0964948542074
30
0
0
VERTEX
8
0
10
91.730062134795
20
18.0140588477368
30
0
0
VERTEX
8
0
10
92.5490805467129
20
17.9316228412662
30
0
0
VERTEX
8
0
10
93.3680989586307
20
17.8508374513595
30
0
0
VERTEX
8
0
10
94.1871173705485
20
17.7695307052515
30
0
0
VERTEX
8
0
10
95.0061357824663
20
17.6882239591435
30
0
0
VERTEX
8
0
10
95.8251541943841
20
17.6153048534382
30
0
0
VERTEX
8
0
10
96.6441726063019
20
17.5407736695059
30
0
0
VERTEX
8
0
10
97.4631910182197
20
17.4662424855735
30
0
0
VERTEX
8
0
10
98.2822094301375
20
17.398582883063
30
0
0
VERTEX
8
0
10
99.1012278420554
20
17.3308272613063
30
0
0
VERTEX
8
0
10
99.9202462539732
20
17.2630716395496
30
0
0
VERTEX
8
0
10
100.739264665891
20
17.1926382565725
30
0
0
VERTEX
8
0
10
101.558283077809
20
17.121494853728
30
0
0
VERTEX
8
0
10
102.377301489727
20
17.0503514508835
30
0
0
VERTEX
8
0
10
103.196319901644
20
16.9830475114988
30
0
0
VERTEX
8
0
10
104.015338313562
20
16.91867967083
30
0
0
VERTEX
8
0
10
104.83435672548
20
16.8543118301611
30
0
0
VERTEX
8
0
10
105.653375137398
20
16.7899439894923
30
0
0
VERTEX
8
0
10
106.472393549316
20
16.7301256321507
30
0
0
VERTEX
8
0
10
107.291411961233
20
16.6691455725697
30
0
0
VERTEX
8
0
10
108.110430373151
20
16.6081655129887
30
0
0
VERTEX
8
0
10
108.929448785069
20
16.5433939995709
30
0
0
VERTEX
8
0
10
109.748467196987
20
16.479026158902
30
0
0
VERTEX
8
0
10
110.567485608905
20
16.4146583182332
30
0
0
VERTEX
8
0
10
111.386504020823
20
16.3442236288718
30
0
0
VERTEX
8
0
10
112.20552243274
20
16.2730802260273
30
0
0
VERTEX
8
0
10
113.024540844658
20
16.2019368231828
30
0
0
VERTEX
8
0
10
113.843559256576
20
16.1421703946172
30
0
0
VERTEX
8
0
10
114.662577668494
20
16.0879658972118
30
0
0
VERTEX
8
0
10
115.481596080412
20
16.0337613998065
30
0
0
VERTEX
8
0
10
116.300614492329
20
15.9795569024011
30
0
0
VERTEX
8
0
10
117.119632904247
20
15.935162697902
30
0
0
VERTEX
8
0
10
117.938651316165
20
15.8877337626723
30
0
0
VERTEX
8
0
10
118.757669728083
20
15.8403048274427
30
0
0
VERTEX
8
0
10
119.576688140001
20
15.7887287752504
30
0
0
VERTEX
8
0
10
120.395706551918
20
15.7379120589328
30
0
0
VERTEX
8
0
10
121.214724963836
20
15.6870953426153
30
0
0
VERTEX
8
0
10
122.033743375754
20
15.615944101465
30
0
0
VERTEX
8
0
10
122.852761787672
20
15.5448006986205
30
0
0
VERTEX
8
0
10
123.67178019959
20
15.473657295776
30
0
0
VERTEX
8
0
10
124.490798611508
20
15.4314555307296
30
0
0
VERTEX
8
0
10
125.309817023425
20
15.3975777198512
30
0
0
VERTEX
8
0
10
126.128835435343
20
15.3636999089729
30
0
0
VERTEX
8
0
10
126.947853847261
20
15.3242030126211
30
0
0
VERTEX
8
0
10
127.766872259179
20
15.2801618584792
30
0
0
VERTEX
8
0
10
128.585890671097
20
15.2361207043374
30
0
0
VERTEX
8
0
10
129.404909083014
20
15.1920795501956
30
0
0
VERTEX
8
0
10
130.223927494932
20
15.1210217155228
30
0
0
VERTEX
8
0
10
131.04294590685
20
15.0566538748539
30
0
0
VERTEX
8
0
10
131.861964318768
20
14.9922860341851
30
0
0
VERTEX
8
0
10
132.680982730686
20
14.9653656994962
30
0
0
VERTEX
8
0
10
133.500001142603
20
14.9348756697057
30
0
0
VERTEX
8
0
10
134.319019554521
20
14.9043856399152
30
0
0
VERTEX
8
0
10
135.138037966439
20
14.8529885623721
30
0
0
VERTEX
8
0
10
135.957056378357
20
14.7987840649668
30
0
0
VERTEX
8
0
10
136.776074790275
20
14.7445795675615
30
0
0
VERTEX
8
0
10
137.595093202193
20
14.6970611450072
30
0
0
VERTEX
8
0
10
138.41411161411
20
14.6530199908653
30
0
0
VERTEX
8
0
10
139.233130026028
20
14.6089788367235
30
0
0
VERTEX
8
0
10
140.052148437946
20
14.5649376825817
30
0
0
VERTEX
8
0
10
140.871166849864
20
14.5403303012973
30
0
0
VERTEX
8
0
10
141.690185261782
20
14.5098402715068
30
0
0
VERTEX
8
0
10
142.5092036737
20
14.4793502417163
30
0
0
VERTEX
8
0
10
143.328222085617
20
14.4160569021348
30
0
0
VERTEX
8
0
10
144.147240497535
20
14.3584646236416
30
0
0
VERTEX
8
0
10
144.966258909453
20
14.3008723451484
30
0
0
VERTEX
8
0
10
145.785277321371
20
14.2833886774558
30
0
0
VERTEX
8
0
10
146.604295733289
20
14.2664497720167
30
0
0
VERTEX
8
0
10
147.423314145207
20
14.2495108665775
30
0
0
VERTEX
8
0
10
148.242332557124
20
14.191222285252
30
0
0
VERTEX
8
0
10
149.061350969042
20
14.1200788824075
30
0
0
VERTEX
8
0
10
149.88036938096
20
14.048935479563
30
0
0
VERTEX
8
0
10
150.699387792878
20
14.0143185817665
30
0
0
VERTEX
8
0
10
151.518406204796
20
14.0109308006787
30
0
0
VERTEX
8
0
10
152.337424616713
20
14.0075430195909
30
0
0
VERTEX
8
0
10
153.156443028631
20
14.004155238503
30
0
0
VERTEX
8
0
10
153.975461440549
20
13.8939630757785
30
0
0
VERTEX
8
0
10
154.794479852467
20
13.8093760971886
30
0
0
SEQEND
8
0
0
POLYLINE
8
0
62
5
70
0
10
0
20
0
30
0
0
VERTEX
8
0
10
2.45705523575344
20
16.3648046793087
30
0
0
VERTEX
8
0
10
3.27607364767126
20
21.4424130832299
30
0
0
VERTEX
8
0
10
4.09509205958907
20
26.4515613174069
30
0
0
VERTEX
8
0
10
4.91411047150689
20
30.8680790959797
30
0
0
VERTEX
8
0
10
5.7331288834247
20
34.6013370538912
30
0
0
VERTEX
8
0
10
6.55214729534252
20
38.2936955086887
30
0
0
VERTEX
8
0
10
7.37116570726033
20
41.5094903480799
30
0
0
VERTEX
8
0
10
8.19018411917815
20
44.7737753437966
30
0
0
VERTEX
8
0
10
9.00920253109596
20
47.6791228829704
30
0
0
VERTEX
8
0
10
9.82822094301378
20
50.5375343262993
30
0
0
VERTEX
8
0
10
10.6472393549316
20
52.9181610519384
30
0
0
VERTEX
8
0
10
11.4662577668494
20
55.269700046062
30
0
0
VERTEX
8
0
10
12.2852761787672
20
57.2819701997284
30
0
0
VERTEX
8
0
10
13.104294590685
20
59.3042496570928
30
0
0
VERTEX
8
0
10
13.9233130026029
20
60.5053484026668
30
0
0
VERTEX
8
0
10
14.7423314145207
20
61.963550752849
30
0
0
VERTEX
8
0
10
15.5613498264385
20
63.4665962954846
30
0
0
VERTEX
8
0
10
16.3803682383563
20
65.070347193575
30
0
0
VERTEX
8
0
10
17.1993866502741
20
66.6986465314303
30
0
0
VERTEX
8
0
10
18.0184050621919
20
68.3071026477672
30
0
0
VERTEX
8
0
10
18.8374234741097
20
69.9164241378619
30
0
0
VERTEX
8
0
10
19.6564418860276
20
72.1618918915501
30
0
0
VERTEX
8
0
10
20.4754602979454
20
73.6942387511857
30
0
0
VERTEX
8
0
10
21.2944787098632
20
75.1451702411803
30
0
0
VERTEX
8
0
10
22.113497121781
20
76.0888804074494
30
0
0
VERTEX
8
0
10
22.9325155336988
20
76.88139532993
30
0
0
VERTEX
8
0
10
23.7515339456166
20
77.6739102524107
30
0
0
VERTEX
8
0
10
24.5705523575345
20
78.4055278529827
30
0
0
VERTEX
8
0
10
25.3895707694523
20
79.1101863192521
30
0
0
VERTEX
8
0
10
26.2085891813701
20
79.8148447855216
30
0
0
VERTEX
8
0
10
27.0276075932879
20
80.519503251791
30
0
0
VERTEX
8
0
10
27.8466260052057
20
80.8806812789867
30
0
0
VERTEX
8
0
10
28.6656444171235
20
81.3515828501956
30
0
0
VERTEX
8
0
10
29.4846628290413
20
81.8224844214045
30
0
0
VERTEX
8
0
10
30.3036812409592
20
82.3144857320504
30
0
0
VERTEX
8
0
10
31.122699652877
20
82.8023262086985
30
0
0
VERTEX
8
0
10
31.9417180647948
20
83.2901666853465
30
0
0
VERTEX
8
0
10
32.7607364767126
20
83.9407173266489
30
0
0
VERTEX
8
0
10
33.5797548886304
20
84.5877835144252
30
0
0
VERTEX
8
0
10
34.3987733005482
20
85.2348497022015
30
0
0
VERTEX
8
0
10
35.217791712466
20
85.8927314456034
30
0
0
VERTEX
8
0
10
36.0368101243838
20
86.553348757731
30
0
0
VERTEX
8
0
10
36.8558285363017
20
87.2139660698586
30
0
0
VERTEX
8
0
10
37.6748469482195
20
87.8862585384818
30
0
0
VERTEX
8
0
10
38.4938653601373
20
88.5672025371364
30
0
0
VERTEX
8
0
10
39.3128837720551
20
89.248146535791
30
0
0
VERTEX
8
0
10
40.1319021839729
20
89.9290905344456
30
0
0
VERTEX
8
0
10
40.9509205958907
20
90.6008833110737
30
0
0
VERTEX
8
0
10
41.7699390078085
20
91.2750517475527
30
0
0
VERTEX
8
0
10
42.5889574197263
20
91.9492201840316
30
0
0
VERTEX
8
0
10
43.4079758316442
20
91.8789602235705
30
0
0
VERTEX
8
0
10
44.226994243562
20
91.8925113479218
30
0
0
VERTEX
8
0
10
45.0460126554798
20
91.9060624722732
30
0
0
VERTEX
8
0
10
45.8650310673976
20
91.5800033210416
30
0
0
VERTEX
8
0
10
46.6840494793154
20
91.2175107446433
30
0
0
VERTEX
8
0
10
47.5030678912332
20
90.8550181682451
30
0
0
VERTEX
8
0
10
48.322086303151
20
90.6720443501063
30
0
0
VERTEX
8
0
10
49.1411047150688
20
90.5737986985591
30
0
0
VERTEX
8
0
10
49.9601231269867
20
90.475553047012
30
0
0
VERTEX
8
0
10
50.7791415389045
20
90.3773073954648
30
0
0
VERTEX
8
0
10
51.5981599508223
20
90.4319312422306
30
0
0
VERTEX
8
0
10
52.4171783627401
20
90.4387068044063
30
0
0
VERTEX
8
0
10
53.2361967746579
20
90.4454823665819
30
0
0
VERTEX
8
0
10
54.0552151865757
20
89.9806812834613
30
0
0
VERTEX
8
0
10
54.8742335984935
20
89.6046375827118
30
0
0
VERTEX
8
0
10
55.6932520104113
20
89.2285938819622
30
0
0
VERTEX
8
0
10
56.5122704223291
20
88.6647133475145
30
0
0
VERTEX
8
0
10
57.331288834247
20
88.102341686934
30
0
0
VERTEX
8
0
10
58.1503072461648
20
87.5399700263536
30
0
0
VERTEX
8
0
10
58.9693256580826
20
86.9085115384141
30
0
0
VERTEX
8
0
10
59.7883440700004
20
86.25805756955
30
0
0
VERTEX
8
0
10
60.6073624819182
20
85.6076036006858
30
0
0
VERTEX
8
0
10
61.426380893836
20
84.9894352868336
30
0
0
VERTEX
8
0
10
62.2453993057538
20
84.3965735964626
30
0
0
VERTEX
8
0
10
63.0644177176716
20
83.8037119060917
30
0
0
VERTEX
8
0
10
63.8834361295894
20
83.2108502157208
30
0
0
VERTEX
8
0
10
64.7024545415073
20
82.9803011473106
30
0
0
VERTEX
8
0
10
65.5214729534251
20
82.6584619439664
30
0
0
VERTEX
8
0
10
66.3404913653429
20
82.3366227406221
30
0
0
VERTEX
8
0
10
67.1595097772607
20
82.1392225206505
30
0
0
VERTEX
8
0
10
67.9785281891785
20
81.9291800932048
30
0
0
VERTEX
8
0
10
68.7975466010963
20
81.7191376657591
30
0
0
VERTEX
8
0
10
69.6165650130141
20
81.4789667503781
30
0
0
VERTEX
8
0
10
70.4355834249319
20
81.2350465120541
30
0
0
VERTEX
8
0
10
71.2546018368498
20
80.9911262737301
30
0
0
VERTEX
8
0
10
72.0736202487676
20
80.686325914224
30
0
0
VERTEX
8
0
10
72.8926386606854
20
80.3509355865285
30
0
0
VERTEX
8
0
10
73.7116570726032
20
80.0155452588329
30
0
0
VERTEX
8
0
10
74.530675484521
20
79.6801549311374
30
0
0
VERTEX
8
0
10
75.3496938964388
20
79.3545337452425
30
0
0
VERTEX
8
0
10
76.1687123083566
20
79.0259189797226
30
0
0
VERTEX
8
0
10
76.9877307202744
20
78.6973042142027
30
0
0
VERTEX
8
0
10
77.8067491321923
20
78.3604363658631
30
0
0
VERTEX
8
0
10
78.6257675441101
20
78.0250460381675
30
0
0
VERTEX
8
0
10
79.4447859560279
20
77.689655710472
30
0
0
VERTEX
8
0
10
80.2638043679457
20
77.3643709185346
30
0
0
VERTEX
8
0
10
81.0828227798635
20
77.0391439341026
30
0
0
VERTEX
8
0
10
81.9018411917813
20
76.7139169496705
30
0
0
VERTEX
8
0
10
82.7208596036991
20
76.3782480355228
30
0
0
VERTEX
8
0
10
83.5398780156169
20
76.0394699267394
30
0
0
VERTEX
8
0
10
84.3588964275347
20
75.700691817956
30
0
0
VERTEX
8
0
10
85.1779148394526
20
75.3656186150495
30
0
0
VERTEX
8
0
10
85.9969332513704
20
75.0336160684417
30
0
0
VERTEX
8
0
10
86.8159516632882
20
74.701613521834
30
0
0
VERTEX
8
0
10
87.634970075206
20
74.3696109752263
30
0
0
VERTEX
8
0
10
88.4539884871238
20
74.0376084286186
30
0
0
VERTEX
8
0
10
89.2730068990416
20
73.7056058820108
30
0
0
VERTEX
8
0
10
90.0920253109594
20
73.3736033354031
30
0
0
VERTEX
8
0
10
90.9110437228772
20
73.0416007887954
30
0
0
VERTEX
8
0
10
91.730062134795
20
72.7095982421877
30
0
0
VERTEX
8
0
10
92.5490805467129
20
72.3775956955799
30
0
0
VERTEX
8
0
10
93.3680989586307
20
72.0633900223009
30
0
0
VERTEX
8
0
10
94.1871173705485
20
71.7517141622202
30
0
0
VERTEX
8
0
10
95.0061357824663
20
71.4400383021394
30
0
0
VERTEX
8
0
10
95.8251541943841
20
71.1283624420587
30
0
0
VERTEX
8
0
10
96.6441726063019
20
70.816686581978
30
0
0
VERTEX
8
0
10
97.4631910182197
20
70.5050107218973
30
0
0
VERTEX
8
0
10
98.2822094301375
20
70.1933348618166
30
0
0
VERTEX
8
0
10
99.1012278420554
20
69.8816590017358
30
0
0
VERTEX
8
0
10
99.9202462539732
20
69.5699831416551
30
0
0
VERTEX
8
0
10
100.739264665891
20
69.2583072815744
30
0
0
VERTEX
8
0
10
101.558283077809
20
68.9588709360071
30
0
0
VERTEX
8
0
10
102.377301489727
20
68.6573584191899
30
0
0
VERTEX
8
0
10
103.196319901644
20
68.3558459023726
30
0
0
VERTEX
8
0
10
104.015338313562
20
68.0609770029167
30
0
0
VERTEX
8
0
10
104.83435672548
20
67.7662400482752
30
0
0
VERTEX
8
0
10
105.653375137398
20
67.4715030936336
30
0
0
VERTEX
8
0
10
106.472393549316
20
67.1844574765625
30
0
0
VERTEX
8
0
10
107.291411961233
20
66.8998838651845
30
0
0
VERTEX
8
0
10
108.110430373151
20
66.6153102538064
30
0
0
VERTEX
8
0
10
108.929448785069
20
66.3343481418277
30
0
0
VERTEX
8
0
10
109.748467196987
20
66.0565500926253
30
0
0
VERTEX
8
0
10
110.567485608905
20
65.7787520434229
30
0
0
VERTEX
8
0
10
111.386504020823
20
65.5009539942206
30
0
0
VERTEX
8
0
10
112.20552243274
20
65.2275914463152
30
0
0
VERTEX
8
0
10
113.024540844658
20
64.9531811782006
30
0
0
VERTEX
8
0
10
113.843559256576
20
64.6787709100861
30
0
0
VERTEX
8
0
10
114.662577668494
20
64.4190705291976
30
0
0
VERTEX
8
0
10
115.481596080412
20
64.1582113854344
30
0
0
VERTEX
8
0
10
116.300614492329
20
63.8973522416712
30
0
0
VERTEX
8
0
10
117.119632904247
20
63.645251424856
30
0
0
VERTEX
8
0
10
117.938651316165
20
63.3945556243563
30
0
0
VERTEX
8
0
10
118.757669728083
20
63.1438598238566
30
0
0
VERTEX
8
0
10
119.576688140001
20
62.8953254361824
30
0
0
VERTEX
8
0
10
120.395706551918
20
62.6480174167706
30
0
0
VERTEX
8
0
10
121.214724963836
20
62.4007093973587
30
0
0
VERTEX
8
0
10
122.033743375754
20
62.1534013779468
30
0
0
VERTEX
8
0
10
122.852761787672
20
61.9108845229578
30
0
0
VERTEX
8
0
10
123.67178019959
20
61.6669642846338
30
0
0
VERTEX
8
0
10
124.490798611508
20
61.4230440463097
30
0
0
VERTEX
8
0
10
125.309817023425
20
61.1952563477152
30
0
0
VERTEX
8
0
10
126.128835435343
20
60.9648872337425
30
0
0
VERTEX
8
0
10
126.947853847261
20
60.7345181197698
30
0
0
VERTEX
8
0
10
127.766872259179
20
60.5106992166809
30
0
0
VERTEX
8
0
10
128.585890671097
20
60.2871056648839
30
0
0
VERTEX
8
0
10
129.404909083014
20
60.0635121130868
30
0
0
VERTEX
8
0
10
130.223927494932
20
59.8449527131926
30
0
0
VERTEX
8
0
10
131.04294590685
20
59.6281347235712
30
0
0
VERTEX
8
0
10
131.861964318768
20
59.4113167339499
30
0
0
VERTEX
8
0
10
132.680982730686
20
59.1997758837112
30
0
0
VERTEX
8
0
10
133.500001142603
20
58.9931212373534
30
0
0
VERTEX
8
0
10
134.319019554521
20
58.7864665909955
30
0
0
VERTEX
8
0
10
135.138037966439
20
58.5798119446376
30
0
0
VERTEX
8
0
10
135.957056378357
20
58.3731572982797
30
0
0
VERTEX
8
0
10
136.776074790275
20
58.1665026519219
30
0
0
VERTEX
8
0
10
137.595093202193
20
57.959848005564
30
0
0
VERTEX
8
0
10
138.41411161411
20
57.7640856649094
30
0
0
VERTEX
8
0
10
139.233130026028
20
57.567594361815
30
0
0
VERTEX
8
0
10
140.052148437946
20
57.3711030587207
30
0
0
VERTEX
8
0
10
140.871166849864
20
57.1774844947036
30
0
0
VERTEX
8
0
10
141.690185261782
20
56.984380972697
30
0
0
VERTEX
8
0
10
142.5092036737
20
56.7912774506905
30
0
0
VERTEX
8
0
10
143.328222085617
20
56.6066327670311
30
0
0
VERTEX
8
0
10
144.147240497535
20
56.4270803693759
30
0
0
VERTEX
8
0
10
144.966258909453
20
56.2475279717207
30
0
0
VERTEX
8
0
10
145.785277321371
20
56.0679755740655
30
0
0
VERTEX
8
0
10
146.604295733289
20
55.9168899435151
30
0
0
VERTEX
8
0
10
147.423314145207
20
55.7576642323869
30
0
0
VERTEX
8
0
10
148.242332557124
20
55.5984385212587
30
0
0
VERTEX
8
0
10
149.061350969042
20
55.4312399467432
30
0
0
VERTEX
8
0
10
149.88036938096
20
55.2652386734393
30
0
0
VERTEX
8
0
10
150.699387792878
20
55.0992374001355
30
0
0
VERTEX
8
0
10
151.518406204796
20
54.8880384959875
30
0
0
VERTEX
8
0
10
152.337424616713
20
54.674608287454
30
0
0
VERTEX
8
0
10
153.156443028631
20
54.4611780789205
30
0
0
VERTEX
8
0
10
153.975461440549
20
54.2765688853679
30
0
0
VERTEX
8
0
10
154.794479852467
20
54.1026627895257
30
0
0
SEQEND
8
0
0
POLYLINE
8
0
62
6
70
0
10
0
20
0
30
0
0
VERTEX
8
0
10
2.45705523575344
20
0.995932196129807
30
0
0
VERTEX
8
0
10
3.27607364767126
20
1.29744471294702
30
0
0
VERTEX
8
0
10
4.09509205958907
20
1.59895722976424
30
0
0
VERTEX
8
0
10
4.91411047150689
20
1.90046974658146
30
0
0
VERTEX
8
0
10
5.7331288834247
20
2.17203470968905
30
0
0
VERTEX
8
0
10
6.55214729534252
20
2.41934272910093
30
0
0
VERTEX
8
0
10
7.37116570726033
20
2.66665074851281
30
0
0
VERTEX
8
0
10
8.19018411917815
20
2.91395876792469
30
0
0
VERTEX
8
0
10
9.00920253109596
20
3.09374468177364
30
0
0
VERTEX
8
0
10
9.82822094301378
20
3.29023598486801
30
0
0
VERTEX
8
0
10
10.6472393549316
20
3.48672728796239
30
0
0
VERTEX
8
0
10
11.4662577668494
20
3.61583659521008
30
0
0
VERTEX
8
0
10
12.2852761787672
20
3.75134783872344
30
0
0
VERTEX
8
0
10
13.104294590685
20
3.8868590822368
30
0
0
VERTEX
8
0
10
13.9233130026029
20
3.90593915154484
30
0
0
VERTEX
8
0
10
14.7423314145207
20
3.90932693263268
30
0
0
VERTEX
8
0
10
15.5613498264385
20
3.91271471372051
30
0
0
VERTEX
8
0
10
16.3803682383563
20
3.91387510957563
30
0
0
VERTEX
8
0
10
17.1993866502741
20
3.91387510957563
30
0
0
VERTEX
8
0
10
18.0184050621919
20
3.91387510957563
30
0
0
VERTEX
8
0
10
18.8374234741097
20
3.91387510957563
30
0
0
VERTEX
8
0
10
19.6564418860276
20
3.91387510957563
30
0
0
VERTEX
8
0
10
20.4754602979454
20
3.91387510957563
30
0
0
VERTEX
8
0
10
21.2944787098632
20
3.91387510957563
30
0
0
VERTEX
8
0
10
22.113497121781
20
3.96306439765051
30
0
0
VERTEX
8
0
10
22.9325155336988
20
4.00371777070452
30
0
0
VERTEX
8
0
10
23.7515339456166
20
4.04437114375852
30
0
0
VERTEX
8
0
10
24.5705523575345
20
4.31555888839928
30
0
0
VERTEX
8
0
10
25.3895707694523
20
4.58996915651383
30
0
0
VERTEX
8
0
10
26.2085891813701
20
4.86437942462838
30
0
0
VERTEX
8
0
10
27.0276075932879
20
5.29118954589989
30
0
0
VERTEX
8
0
10
27.8466260052057
20
5.76547889819664
30
0
0
VERTEX
8
0
10
28.6656444171235
20
6.2397682504934
30
0
0
VERTEX
8
0
10
29.4846628290413
20
6.6501819424066
30
0
0
VERTEX
8
0
10
30.3036812409592
20
7.00589895662916
30
0
0
VERTEX
8
0
10
31.122699652877
20
7.36161597085172
30
0
0
VERTEX
8
0
10
31.9417180647948
20
7.71733298507429
30
0
0
VERTEX
8
0
10
32.7607364767126
20
7.83249239416284
30
0
0
VERTEX
8
0
10
33.5797548886304
20
8.00526922964237
30
0
0
VERTEX
8
0
10
34.3987733005482
20
8.17804606512189
30
0
0
VERTEX
8
0
10
35.217791712466
20
8.42475772010049
30
0
0
VERTEX
8
0
10
36.0368101243838
20
8.6652901773367
30
0
0
VERTEX
8
0
10
36.8558285363017
20
8.90582263457291
30
0
0
VERTEX
8
0
10
37.6748469482195
20
9.3755745875972
30
0
0
VERTEX
8
0
10
38.4938653601373
20
9.88035396968445
30
0
0
VERTEX
8
0
10
39.3128837720551
20
10.3851333517717
30
0
0
VERTEX
8
0
10
40.1319021839729
20
10.9160809177866
30
0
0
VERTEX
8
0
10
40.9509205958907
20
11.4615136729279
30
0
0
VERTEX
8
0
10
41.7699390078085
20
12.0069464280692
30
0
0
VERTEX
8
0
10
42.5889574197263
20
12.5523791832104
30
0
0
VERTEX
8
0
10
43.4079758316442
20
12.9823615321601
30
0
0
VERTEX
8
0
10
44.226994243562
20
13.4464875411934
30
0
0
VERTEX
8
0
10
45.0460126554798
20
13.9106135502266
30
0
0
VERTEX
8
0
10
45.8650310673976
20
14.3139534977475
30
0
0
VERTEX
8
0
10
46.6840494793154
20
14.7272627904633
30
0
0
VERTEX
8
0
10
47.5030678912332
20
15.140572083179
30
0
0
VERTEX
8
0
10
48.322086303151
20
15.5769419981671
30
0
0
VERTEX
8
0
10
49.1411047150688
20
16.0139657584976
30
0
0
VERTEX
8
0
10
49.9601231269867
20
16.4509895188282
30
0
0
VERTEX
8
0
10
50.7791415389045
20
16.9818580485929
30
0
0
VERTEX
8
0
10
51.5981599508223
20
17.5442297091734
30
0
0
VERTEX
8
0
10
52.4171783627401
20
18.1066013697538
30
0
0
VERTEX
8
0
10
53.2361967746579
20
18.6262934552298
30
0
0
VERTEX
8
0
10
54.0552151865757
20
19.1073583697022
30
0
0
VERTEX
8
0
10
54.8742335984935
20
19.5884232841747
30
0
0
VERTEX
8
0
10
55.6932520104113
20
20.0694881986471
30
0
0
VERTEX
8
0
10
56.5122704223291
20
20.255212608931
30
0
0
VERTEX
8
0
10
57.331288834247
20
20.5092961905186
30
0
0
VERTEX
8
0
10
58.1503072461648
20
20.7633797721061
30
0
0
VERTEX
8
0
10
58.9693256580826
20
20.9043121838714
30
0
0
VERTEX
8
0
10
59.7883440700004
20
21.0533745517361
30
0
0
VERTEX
8
0
10
60.6073624819182
20
21.2024369196008
30
0
0
VERTEX
8
0
10
61.426380893836
20
21.4700716255396
30
0
0
VERTEX
8
0
10
62.2453993057538
20
21.7580330180055
30
0
0
VERTEX
8
0
10
63.0644177176716
20
22.0459944104714
30
0
0
VERTEX
8
0
10
63.8834361295894
20
22.2955441853433
30
0
0
VERTEX
8
0
10
64.7024545415073
20
22.5225255182282
30
0
0
VERTEX
8
0
10
65.5214729534251
20
22.7495068511131
30
0
0
VERTEX
8
0
10
66.3404913653429
20
22.9764881839979
30
0
0
VERTEX
8
0
10
67.1595097772607
20
22.99386538137
30
0
0
VERTEX
8
0
10
67.9785281891785
20
23.0717843463902
30
0
0
VERTEX
8
0
10
68.7975466010963
20
23.1497033114104
30
0
0
VERTEX
8
0
10
69.6165650130141
20
23.0193258316028
30
0
0
VERTEX
8
0
10
70.4355834249319
20
22.9210801800556
30
0
0
VERTEX
8
0
10
71.2546018368498
20
22.8228345285084
30
0
0
VERTEX
8
0
10
72.0736202487676
20
22.7148458628465
30
0
0
VERTEX
8
0
10
72.8926386606854
20
22.6064368680358
30
0
0
VERTEX
8
0
10
73.7116570726032
20
22.4980278732251
30
0
0
VERTEX
8
0
10
74.530675484521
20
22.4095360134632
30
0
0
VERTEX
8
0
10
75.3496938964388
20
22.3282292673551
30
0
0
VERTEX
8
0
10
76.1687123083566
20
22.2469225212471
30
0
0
VERTEX
8
0
10
76.9877307202744
20
22.1898583486075
30
0
0
VERTEX
8
0
10
77.8067491321923
20
22.1559805377292
30
0
0
VERTEX
8
0
10
78.6257675441101
20
22.1221027268508
30
0
0
VERTEX
8
0
10
79.4447859560279
20
22.0882249159725
30
0
0
VERTEX
8
0
10
80.2638043679457
20
21.9758425533112
30
0
0
VERTEX
8
0
10
81.0828227798635
20
21.8809846828518
30
0
0
VERTEX
8
0
10
81.9018411917813
20
21.7861268123925
30
0
0
VERTEX
8
0
10
82.7208596036991
20
21.6516322624612
30
0
0
VERTEX
8
0
10
83.5398780156169
20
21.5195088000356
30
0
0
VERTEX
8
0
10
84.3588964275347
20
21.3873853376101
30
0
0
VERTEX
8
0
10
85.1779148394526
20
21.3804552954909
30
0
0
VERTEX
8
0
10
85.9969332513704
20
21.39739420093
30
0
0
VERTEX
8
0
10
86.8159516632882
20
21.4143331063692
30
0
0
VERTEX
8
0
10
87.634970075206
20
21.4646684200719
30
0
0
VERTEX
8
0
10
88.4539884871238
20
21.5358118229164
30
0
0
VERTEX
8
0
10
89.2730068990416
20
21.6069552257609
30
0
0
VERTEX
8
0
10
90.0920253109594
20
21.6780986286054
30
0
0
VERTEX
8
0
10
90.9110437228772
20
21.8718847364091
30
0
0
VERTEX
8
0
10
91.730062134795
20
22.0311104475373
30
0
0
VERTEX
8
0
10
92.5490805467129
20
22.1903361586655
30
0
0
VERTEX
8
0
10
93.3680989586307
20
22.3931108436502
30
0
0
VERTEX
8
0
10
94.1871173705485
20
22.5896021467445
30
0
0
VERTEX
8
0
10
95.0061357824663
20
22.7860934498389
30
0
0
VERTEX
8
0
10
95.8251541943841
20
23.0145944342616
30
0
0
VERTEX
8
0
10
96.6441726063019
20
23.2449635482343
30
0
0
VERTEX
8
0
10
97.4631910182197
20
23.475332662207
30
0
0
VERTEX
8
0
10
98.2822094301375
20
23.7447887944572
30
0
0
VERTEX
8
0
10
99.1012278420554
20
24.0293624058352
30
0
0
VERTEX
8
0
10
99.9202462539732
20
24.3139360172132
30
0
0
VERTEX
8
0
10
100.739264665891
20
24.5985096285913
30
0
0
VERTEX
8
0
10
101.558283077809
20
24.9591735935646
30
0
0
VERTEX
8
0
10
102.377301489727
20
25.2945639212601
30
0
0
VERTEX
8
0
10
103.196319901644
20
25.6299542489557
30
0
0
VERTEX
8
0
10
104.015338313562
20
25.9092539869118
30
0
0
VERTEX
8
0
10
104.83435672548
20
26.2006031604655
30
0
0
VERTEX
8
0
10
105.653375137398
20
26.4919523340192
30
0
0
VERTEX
8
0
10
106.472393549316
20
26.7370653012098
30
0
0
VERTEX
8
0
10
107.291411961233
20
26.9843733206217
30
0
0
VERTEX
8
0
10
108.110430373151
20
27.2316813400336
30
0
0
VERTEX
8
0
10
108.929448785069
20
27.3026774480483
30
0
0
VERTEX
8
0
10
109.748467196987
20
27.3365552589266
30
0
0
VERTEX
8
0
10
110.567485608905
20
27.3704330698049
30
0
0
VERTEX
8
0
10
111.386504020823
20
27.290038833131
30
0
0
VERTEX
8
0
10
112.20552243274
20
27.1342009030907
30
0
0
VERTEX
8
0
10
113.024540844658
20
26.9783629730503
30
0
0
VERTEX
8
0
10
113.843559256576
20
26.82252504301
30
0
0
VERTEX
8
0
10
114.662577668494
20
26.6480058174693
30
0
0
VERTEX
8
0
10
115.481596080412
20
26.4786167630776
30
0
0
VERTEX
8
0
10
116.300614492329
20
26.3092277086859
30
0
0
VERTEX
8
0
10
117.119632904247
20
26.2611197802159
30
0
0
VERTEX
8
0
10
117.938651316165
20
26.1967519395471
30
0
0
VERTEX
8
0
10
118.757669728083
20
26.1323840988782
30
0
0
VERTEX
8
0
10
119.576688140001
20
25.5333374344973
30
0
0
VERTEX
8
0
10
120.395706551918
20
24.8947074859005
30
0
0
VERTEX
8
0
10
121.214724963836
20
24.2560775373038
30
0
0
VERTEX
8
0
10
122.033743375754
20
22.0775580159944
30
0
0
VERTEX
8
0
10
122.852761787672
20
21.126303737093
30
0
0
VERTEX
8
0
10
123.67178019959
20
20.5285928698709
30
0
0
VERTEX
8
0
10
124.490798611508
20
19.9308820026487
30
0
0
VERTEX
8
0
10
125.309817023425
20
20.0326432624258
30
0
0
VERTEX
8
0
10
126.128835435343
20
20.0224799191623
30
0
0
VERTEX
8
0
10
126.947853847261
20
20.0123165758988
30
0
0
VERTEX
8
0
10
127.766872259179
20
20.011978548961
30
0
0
VERTEX
8
0
10
128.585890671097
20
20.011978548961
30
0
0
VERTEX
8
0
10
129.404909083014
20
20.011978548961
30
0
0
VERTEX
8
0
10
130.223927494932
20
20.011978548961
30
0
0
VERTEX
8
0
10
131.04294590685
20
20.011978548961
30
0
0
VERTEX
8
0
10
131.861964318768
20
20.011978548961
30
0
0
VERTEX
8
0
10
132.680982730686
20
20.011978548961
30
0
0
VERTEX
8
0
10
133.500001142603
20
20.011978548961
30
0
0
VERTEX
8
0
10
134.319019554521
20
20.011978548961
30
0
0
VERTEX
8
0
10
135.138037966439
20
20.011978548961
30
0
0
VERTEX
8
0
10
135.957056378357
20
20.011978548961
30
0
0
VERTEX
8
0
10
136.776074790275
20
20.011978548961
30
0
0
VERTEX
8
0
10
137.595093202193
20
20.011978548961
30
0
0
VERTEX
8
0
10
138.41411161411
20
20.011978548961
30
0
0
VERTEX
8
0
10
139.233130026028
20
20.011978548961
30
0
0
VERTEX
8
0
10
140.052148437946
20
20.011978548961
30
0
0
VERTEX
8
0
10
140.871166849864
20
20.011978548961
30
0
0
VERTEX
8
0
10
141.690185261782
20
20.011978548961
30
0
0
VERTEX
8
0
10
142.5092036737
20
20.011978548961
30
0
0
VERTEX
8
0
10
143.328222085617
20
20.011978548961
30
0
0
VERTEX
8
0
10
144.147240497535
20
20.011978548961
30
0
0
VERTEX
8
0
10
144.966258909453
20
20.011978548961
30
0
0
VERTEX
8
0
10
145.785277321371
20
20.011978548961
30
0
0
VERTEX
8
0
10
146.604295733289
20
20.011978548961
30
0
0
VERTEX
8
0
10
147.423314145207
20
20.011978548961
30
0
0
VERTEX
8
0
10
148.242332557124
20
20.011978548961
30
0
0
VERTEX
8
0
10
149.061350969042
20
20.011978548961
30
0
0
VERTEX
8
0
10
149.88036938096
20
20.011978548961
30
0
0
VERTEX
8
0
10
150.699387792878
20
20.011978548961
30
0
0
VERTEX
8
0
10
151.518406204796
20
20.011978548961
30
0
0
VERTEX
8
0
10
152.337424616713
20
20.011978548961
30
0
0
VERTEX
8
0
10
153.156443028631
20
20.011978548961
30
0
0
VERTEX
8
0
10
153.975461440549
20
20.011978548961
30
0
0
VERTEX
8
0
10
154.794479852467
20
20.011978548961
30
0
0
SEQEND
8
0
0
POLYLINE
8
0
62
6
70
0
10
0
20
0
30
0
0
VERTEX
8
0
10
2.45705523575344
20
104.543224037024
30
0
0
VERTEX
8
0
10
3.27607364767126
20
96.1005032932845
30
0
0
VERTEX
8
0
10
4.09509205958907
20
87.1833966772219
30
0
0
VERTEX
8
0
10
4.91411047150689
20
81.2320209260136
30
0
0
VERTEX
8
0
10
5.7331288834247
20
80.9182719211399
30
0
0
VERTEX
8
0
10
6.55214729534252
20
79.4826462159495
30
0
0
VERTEX
8
0
10
7.37116570726033
20
78.0693486406324
30
0
0
VERTEX
8
0
10
8.19018411917815
20
77.4948244952277
30
0
0
VERTEX
8
0
10
9.00920253109596
20
77.4304566545588
30
0
0
VERTEX
8
0
10
9.82822094301378
20
77.36608881389
30
0
0
VERTEX
8
0
10
10.6472393549316
20
77.3017209732211
30
0
0
VERTEX
8
0
10
11.4662577668494
20
78.0756775745104
30
0
0
VERTEX
8
0
10
12.2852761787672
20
78.6109469863881
30
0
0
VERTEX
8
0
10
13.104294590685
20
79.1462163982659
30
0
0
VERTEX
8
0
10
13.9233130026029
20
79.8297804408383
30
0
0
VERTEX
8
0
10
14.7423314145207
20
80.4913334258378
30
0
0
VERTEX
8
0
10
15.5613498264385
20
81.1528864108373
30
0
0
VERTEX
8
0
10
16.3803682383563
20
82.2692632085475
30
0
0
VERTEX
8
0
10
17.1993866502741
20
83.3453932945354
30
0
0
VERTEX
8
0
10
18.0184050621919
20
84.6720432118458
30
0
0
VERTEX
8
0
10
18.8374234741097
20
86.1615748584938
30
0
0
VERTEX
8
0
10
19.6564418860276
20
87.6073626910053
30
0
0
VERTEX
8
0
10
20.4754602979454
20
89.0344968425988
30
0
0
VERTEX
8
0
10
21.2944787098632
20
90.116983020115
30
0
0
VERTEX
8
0
10
22.113497121781
20
90.8589823623749
30
0
0
VERTEX
8
0
10
22.9325155336988
20
91.6009817046347
30
0
0
VERTEX
8
0
10
23.7515339456166
20
92.373961972359
30
0
0
VERTEX
8
0
10
24.5705523575345
20
93.170090528
30
0
0
VERTEX
8
0
10
25.3895707694523
20
93.966219083641
30
0
0
VERTEX
8
0
10
26.2085891813701
20
94.762347639282
30
0
0
VERTEX
8
0
10
27.0276075932879
20
95.3437448276259
30
0
0
VERTEX
8
0
10
27.8466260052057
20
95.9806476721387
30
0
0
VERTEX
8
0
10
28.6656444171235
20
96.6175505166514
30
0
0
VERTEX
8
0
10
29.4846628290413
20
97.2201568541175
30
0
0
VERTEX
8
0
10
30.3036812409592
20
97.8265696688398
30
0
0
VERTEX
8
0
10
31.122699652877
20
98.4329824835621
30
0
0
VERTEX
8
0
10
31.9417180647948
20
99.1615030388723
30
0
0
VERTEX
8
0
10
32.7607364767126
20
99.903427097108
30
0
0
VERTEX
8
0
10
33.5797548886304
20
100.645351155344
30
0
0
VERTEX
8
0
10
34.3987733005482
20
101.419400509918
30
0
0
VERTEX
8
0
10
35.217791712466
20
102.208753503383
30
0
0
VERTEX
8
0
10
36.0368101243838
20
102.998106496849
30
0
0
VERTEX
8
0
10
36.8558285363017
20
103.787459490314
30
0
0
VERTEX
8
0
10
37.6748469482195
20
104.589146972431
30
0
0
VERTEX
8
0
10
38.4938653601373
20
105.386985550907
30
0
0
VERTEX
8
0
10
39.3128837720551
20
106.184824129383
30
0
0
VERTEX
8
0
10
40.1319021839729
20
107.187850867388
30
0
0
VERTEX
8
0
10
40.9509205958907
20
108.134769559248
30
0
0
VERTEX
8
0
10
41.7699390078085
20
109.081688251109
30
0
0
VERTEX
8
0
10
42.5889574197263
20
109.424679602762
30
0
0
VERTEX
8
0
10
43.4079758316442
20
109.953851008682
30
0
0
VERTEX
8
0
10
44.226994243562
20
110.483022414601
30
0
0
VERTEX
8
0
10
45.0460126554798
20
110.311225889901
30
0
0
VERTEX
8
0
10
45.8650310673976
20
110.32816479534
30
0
0
VERTEX
8
0
10
46.6840494793154
20
110.345103700779
30
0
0
VERTEX
8
0
10
47.5030678912332
20
110.439602642152
30
0
0
VERTEX
8
0
10
48.322086303151
20
110.524297169348
30
0
0
VERTEX
8
0
10
49.1411047150688
20
110.608991696544
30
0
0
VERTEX
8
0
10
49.9601231269867
20
110.871524645192
30
0
0
VERTEX
8
0
10
50.7791415389045
20
111.149322694395
30
0
0
VERTEX
8
0
10
51.5981599508223
20
111.427120743597
30
0
0
VERTEX
8
0
10
52.4171783627401
20
111.586821652015
30
0
0
VERTEX
8
0
10
53.2361967746579
20
111.695230646825
30
0
0
VERTEX
8
0
10
54.0552151865757
20
111.803639641636
30
0
0
VERTEX
8
0
10
54.8742335984935
20
111.912048636447
30
0
0
VERTEX
8
0
10
55.6932520104113
20
111.641088855866
30
0
0
VERTEX
8
0
10
56.5122704223291
20
111.492026488002
30
0
0
VERTEX
8
0
10
57.331288834247
20
111.342964120137
30
0
0
VERTEX
8
0
10
58.1503072461648
20
111.011854160603
30
0
0
VERTEX
8
0
10
58.9693256580826
20
110.717117205961
30
0
0
VERTEX
8
0
10
59.7883440700004
20
110.42238025132
30
0
0
VERTEX
8
0
10
60.6073624819182
20
110.124167661246
30
0
0
VERTEX
8
0
10
61.426380893836
20
109.826042925517
30
0
0
VERTEX
8
0
10
62.2453993057538
20
109.527918189787
30
0
0
VERTEX
8
0
10
63.0644177176716
20
109.360238539253
30
0
0
VERTEX
8
0
10
63.8834361295894
20
109.22472729574
30
0
0
VERTEX
8
0
10
64.7024545415073
20
109.089216052226
30
0
0
VERTEX
8
0
10
65.5214729534251
20
109.032087866756
30
0
0
VERTEX
8
0
10
66.3404913653429
20
109.032087866756
30
0
0
VERTEX
8
0
10
67.1595097772607
20
109.032087866756
30
0
0
VERTEX
8
0
10
67.9785281891785
20
109.032087866756
30
0
0
VERTEX
8
0
10
68.7975466010963
20
108.999962570417
30
0
0
VERTEX
8
0
10
69.6165650130141
20
108.976248102802
30
0
0
VERTEX
8
0
10
70.4355834249319
20
108.952533635187
30
0
0
VERTEX
8
0
10
71.2546018368498
20
108.829205405067
30
0
0
VERTEX
8
0
10
72.0736202487676
20
108.717408629168
30
0
0
VERTEX
8
0
10
72.8926386606854
20
108.605611853269
30
0
0
VERTEX
8
0
10
73.7116570726032
20
108.469228924831
30
0
0
VERTEX
8
0
10
74.530675484521
20
108.33032990023
30
0
0
VERTEX
8
0
10
75.3496938964388
20
108.191430875629
30
0
0
VERTEX
8
0
10
76.1687123083566
20
108.045586132297
30
0
0
VERTEX
8
0
10
76.9877307202744
20
107.896523764432
30
0
0
VERTEX
8
0
10
77.8067491321923
20
107.747461396568
30
0
0
VERTEX
8
0
10
78.6257675441101
20
107.598399028703
30
0
0
VERTEX
8
0
10
79.4447859560279
20
107.459226643187
30
0
0
VERTEX
8
0
10
80.2638043679457
20
107.316939837498
30
0
0
VERTEX
8
0
10
81.0828227798635
20
107.174653031809
30
0
0
VERTEX
8
0
10
81.9018411917813
20
107.003057494333
30
0
0
VERTEX
8
0
10
82.7208596036991
20
106.837056221029
30
0
0
VERTEX
8
0
10
83.5398780156169
20
106.671054947725
30
0
0
VERTEX
8
0
10
84.3588964275347
20
106.515340471002
30
0
0
VERTEX
8
0
10
85.1779148394526
20
106.359502540961
30
0
0
VERTEX
8
0
10
85.9969332513704
20
106.203664610921
30
0
0
VERTEX
8
0
10
86.8159516632882
20
106.0665229998
30
0
0
VERTEX
8
0
10
87.634970075206
20
105.934399537375
30
0
0
VERTEX
8
0
10
88.4539884871238
20
105.802276074949
30
0
0
VERTEX
8
0
10
89.2730068990416
20
105.672065485736
30
0
0
VERTEX
8
0
10
90.0920253109594
20
105.543329804398
30
0
0
VERTEX
8
0
10
90.9110437228772
20
105.414594123061
30
0
0
VERTEX
8
0
10
91.730062134795
20
105.285858441723
30
0
0
VERTEX
8
0
10
92.5490805467129
20
105.207091633291
30
0
0
VERTEX
8
0
10
93.3680989586307
20
105.11562154392
30
0
0
VERTEX
8
0
10
94.1871173705485
20
105.024151454548
30
0
0
VERTEX
8
0
10
95.0061357824663
20
104.921327579219
30
0
0
VERTEX
8
0
10
95.8251541943841
20
104.819694146584
30
0
0
VERTEX
8
0
10
96.6441726063019
20
104.718060713949
30
0
0
VERTEX
8
0
10
97.4631910182197
20
104.628533544629
30
0
0
VERTEX
8
0
10
98.2822094301375
20
104.540451236345
30
0
0
VERTEX
8
0
10
99.1012278420554
20
104.452368928062
30
0
0
VERTEX
8
0
10
99.9202462539732
20
104.377897837807
30
0
0
VERTEX
8
0
10
100.739264665891
20
104.310142216051
30
0
0
VERTEX
8
0
10
101.558283077809
20
104.242386594294
30
0
0
VERTEX
8
0
10
102.377301489727
20
104.174630972537
30
0
0
VERTEX
8
0
10
103.196319901644
20
104.146061654265
30
0
0
VERTEX
8
0
10
104.015338313562
20
104.105408281211
30
0
0
VERTEX
8
0
10
104.83435672548
20
104.064754908157
30
0
0
VERTEX
8
0
10
105.653375137398
20
103.978558692207
30
0
0
VERTEX
8
0
10
106.472393549316
20
103.900639727187
30
0
0
VERTEX
8
0
10
107.291411961233
20
103.822720762167
30
0
0
VERTEX
8
0
10
108.110430373151
20
103.734655110283
30
0
0
VERTEX
8
0
10
108.929448785069
20
103.646572801999
30
0
0
VERTEX
8
0
10
109.748467196987
20
103.558490493716
30
0
0
VERTEX
8
0
10
110.567485608905
20
103.417924196151
30
0
0
VERTEX
8
0
10
111.386504020823
20
103.26208626611
30
0
0
VERTEX
8
0
10
112.20552243274
20
103.10624833607
30
0
0
VERTEX
8
0
10
113.024540844658
20
102.933614876267
30
0
0
VERTEX
8
0
10
113.843559256576
20
102.747286916437
30
0
0
VERTEX
8
0
10
114.662577668494
20
102.560958956606
30
0
0
VERTEX
8
0
10
115.481596080412
20
102.374630996775
30
0
0
VERTEX
8
0
10
116.300614492329
20
102.251245938937
30
0
0
VERTEX
8
0
10
117.119632904247
20
102.112346914336
30
0
0
VERTEX
8
0
10
117.938651316165
20
101.973447889734
30
0
0
VERTEX
8
0
10
118.757669728083
20
101.756053131444
30
0
0
VERTEX
8
0
10
119.576688140001
20
101.546010703999
30
0
0
VERTEX
8
0
10
120.395706551918
20
101.335968276553
30
0
0
VERTEX
8
0
10
121.214724963836
20
100.935214643352
30
0
0
VERTEX
8
0
10
122.033743375754
20
100.508354226284
30
0
0
VERTEX
8
0
10
122.852761787672
20
100.081493809217
30
0
0
VERTEX
8
0
10
123.67178019959
20
99.8301582070062
30
0
0
VERTEX
8
0
10
124.490798611508
20
99.6709324958781
30
0
0
VERTEX
8
0
10
125.309817023425
20
99.5117067847499
30
0
0
VERTEX
8
0
10
126.128835435343
20
99.3524810736217
30
0
0
VERTEX
8
0
10
126.947853847261
20
99.2611775482485
30
0
0
VERTEX
8
0
10
127.766872259179
20
99.14938077235
30
0
0
VERTEX
8
0
10
128.585890671097
20
99.0375839964514
30
0
0
VERTEX
8
0
10
129.404909083014
20
98.9339743309655
30
0
0
VERTEX
8
0
10
130.223927494932
20
98.8289531172427
30
0
0
VERTEX
8
0
10
131.04294590685
20
98.7239319035198
30
0
0
VERTEX
8
0
10
131.861964318768
20
98.6055685869337
30
0
0
VERTEX
8
0
10
132.680982730686
20
98.4869962488596
30
0
0
VERTEX
8
0
10
133.500001142603
20
98.3684239107854
30
0
0
VERTEX
8
0
10
134.319019554521
20
98.2601615576124
30
0
0
VERTEX
8
0
10
135.138037966439
20
98.1551403438896
30
0
0
VERTEX
8
0
10
135.957056378357
20
98.0501191301667
30
0
0
VERTEX
8
0
10
136.776074790275
20
97.9450979164438
30
0
0
VERTEX
8
0
10
137.595093202193
20
97.840076702721
30
0
0
VERTEX
8
0
10
138.41411161411
20
97.7350554889982
30
0
0
VERTEX
8
0
10
139.233130026028
20
97.6300342752753
30
0
0
VERTEX
8
0
10
140.052148437946
20
97.5383607165489
30
0
0
VERTEX
8
0
10
140.871166849864
20
97.4435028460896
30
0
0
VERTEX
8
0
10
141.690185261782
20
97.3486449756302
30
0
0
VERTEX
8
0
10
142.5092036737
20
97.2464047274875
30
0
0
VERTEX
8
0
10
143.328222085617
20
97.1447712948525
30
0
0
VERTEX
8
0
10
144.147240497535
20
97.0431378622175
30
0
0
VERTEX
8
0
10
144.966258909453
20
96.9561702263384
30
0
0
VERTEX
8
0
10
145.785277321371
20
96.8714756991426
30
0
0
VERTEX
8
0
10
146.604295733289
20
96.7867811719467
30
0
0
VERTEX
8
0
10
147.423314145207
20
96.6999115148902
30
0
0
VERTEX
8
0
10
148.242332557124
20
96.6118292066065
30
0
0
VERTEX
8
0
10
149.061350969042
20
96.5237468983228
30
0
0
VERTEX
8
0
10
149.88036938096
20
96.4356645900391
30
0
0
VERTEX
8
0
10
150.699387792878
20
96.3235578744652
30
0
0
VERTEX
8
0
10
151.518406204796
20
96.2185366607424
30
0
0
VERTEX
8
0
10
152.337424616713
20
96.1135154470195
30
0
0
VERTEX
8
0
10
153.156443028631
20
95.9963536773941
30
0
0
VERTEX
8
0
10
153.975461440549
20
95.8811691204077
30
0
0
VERTEX
8
0
10
154.794479852467
20
95.7659845634213
30
0
0
SEQEND
8
0
0
POLYLINE
8
0
62
1
70
0
10
0
20
0
30
0
0
VERTEX
8
0
10
2.45705523575344
20
100.386480722173
30
0
0
VERTEX
8
0
10
3.27607364767126
20
93.887972758056
30
0
0
VERTEX
8
0
10
4.09509205958907
20
86.2753087468268
30
0
0
VERTEX
8
0
10
4.91411047150689
20
81.1665111885722
30
0
0
VERTEX
8
0
10
5.7331288834247
20
79.6271098836182
30
0
0
VERTEX
8
0
10
6.55214729534252
20
77.668322974206
30
0
0
VERTEX
8
0
10
7.37116570726033
20
75.9968989204476
30
0
0
VERTEX
8
0
10
8.19018411917815
20
75.2270779295373
30
0
0
VERTEX
8
0
10
9.00920253109596
20
74.5947559149454
30
0
0
VERTEX
8
0
10
9.82822094301378
20
74.6883391058242
30
0
0
VERTEX
8
0
10
10.6472393549316
20
74.879278067333
30
0
0
VERTEX
8
0
10
11.4662577668494
20
75.2369091406206
30
0
0
VERTEX
8
0
10
12.2852761787672
20
75.7014639680861
30
0
0
VERTEX
8
0
10
13.104294590685
20
76.2749022487276
30
0
0
VERTEX
8
0
10
13.9233130026029
20
76.3593819880195
30
0
0
VERTEX
8
0
10
14.7423314145207
20
76.6735889915758
30
0
0
VERTEX
8
0
10
15.5613498264385
20
77.2702195179651
30
0
0
VERTEX
8
0
10
16.3803682383563
20
77.9355835972144
30
0
0
VERTEX
8
0
10
17.1993866502741
20
78.7915347338789
30
0
0
VERTEX
8
0
10
18.0184050621919
20
79.6443140723519
30
0
0
VERTEX
8
0
10
18.8374234741097
20
80.5818678172669
30
0
0
VERTEX
8
0
10
19.6564418860276
20
82.1425784219441
30
0
0
VERTEX
8
0
10
20.4754602979454
20
83.1095561504242
30
0
0
VERTEX
8
0
10
21.2944787098632
20
84.0607612157415
30
0
0
VERTEX
8
0
10
22.113497121781
20
84.6094093561592
30
0
0
VERTEX
8
0
10
22.9325155336988
20
85.0333265675323
30
0
0
VERTEX
8
0
10
23.7515339456166
20
85.467935141431
30
0
0
VERTEX
8
0
10
24.5705523575345
20
85.9196707829746
30
0
0
VERTEX
8
0
10
25.3895707694523
20
86.3442344401498
30
0
0
VERTEX
8
0
10
26.2085891813701
20
86.777223846367
30
0
0
VERTEX
8
0
10
27.0276075932879
20
87.2629748299493
30
0
0
VERTEX
8
0
10
27.8466260052057
20
87.4399754599222
30
0
0
VERTEX
8
0
10
28.6656444171235
20
87.7252088020526
30
0
0
VERTEX
8
0
10
29.4846628290413
20
88.0328594393618
30
0
0
VERTEX
8
0
10
30.3036812409592
20
88.3653754705748
30
0
0
VERTEX
8
0
10
31.122699652877
20
88.6989705219823
30
0
0
VERTEX
8
0
10
31.9417180647948
20
89.0480485676563
30
0
0
VERTEX
8
0
10
32.7607364767126
20
89.5394316085647
30
0
0
VERTEX
8
0
10
33.5797548886304
20
90.036382173849
30
0
0
VERTEX
8
0
10
34.3987733005482
20
90.5371212698315
30
0
0
VERTEX
8
0
10
35.217791712466
20
91.0765603486573
30
0
0
VERTEX
8
0
10
36.0368101243838
20
91.6164226263148
30
0
0
VERTEX
8
0
10
36.8558285363017
20
92.1597062727546
30
0
0
VERTEX
8
0
10
37.6748469482195
20
92.7522248351001
30
0
0
VERTEX
8
0
10
38.4938653601373
20
93.3594145240493
30
0
0
VERTEX
8
0
10
39.3128837720551
20
93.9712942455777
30
0
0
VERTEX
8
0
10
40.1319021839729
20
94.5980987335653
30
0
0
VERTEX
8
0
10
40.9509205958907
20
95.2229283633774
30
0
0
VERTEX
8
0
10
41.7699390078085
20
95.8545448392357
30
0
0
VERTEX
8
0
10
42.5889574197263
20
96.4958944674578
30
0
0
VERTEX
8
0
10
43.4079758316442
20
96.4183767096411
30
0
0
VERTEX
8
0
10
44.226994243562
20
96.4280265653323
30
0
0
VERTEX
8
0
10
45.0460126554798
20
96.4405452231061
30
0
0
VERTEX
8
0
10
45.8650310673976
20
96.1312981110979
30
0
0
VERTEX
8
0
10
46.6840494793154
20
95.7885662395746
30
0
0
VERTEX
8
0
10
47.5030678912332
20
95.4483098848361
30
0
0
VERTEX
8
0
10
48.322086303151
20
95.2896065314034
30
0
0
VERTEX
8
0
10
49.1411047150688
20
95.2132302460836
30
0
0
VERTEX
8
0
10
49.9601231269867
20
95.1393804044145
30
0
0
VERTEX
8
0
10
50.7791415389045
20
95.091063767163
30
0
0
VERTEX
8
0
10
51.5981599508223
20
95.1969293164502
30
0
0
VERTEX
8
0
10
52.4171783627401
20
95.2609773527145
30
0
0
VERTEX
8
0
10
53.2361967746579
20
95.3223907215686
30
0
0
VERTEX
8
0
10
54.0552151865757
20
94.9325541275614
30
0
0
VERTEX
8
0
10
54.8742335984935
20
94.6302233269127
30
0
0
VERTEX
8
0
10
55.6932520104113
20
94.3331904508037
30
0
0
VERTEX
8
0
10
56.5122704223291
20
93.799165303909
30
0
0
VERTEX
8
0
10
57.331288834247
20
93.2825879660166
30
0
0
VERTEX
8
0
10
58.1503072461648
20
92.7675362242245
30
0
0
VERTEX
8
0
10
58.9693256580826
20
92.168829803426
30
0
0
VERTEX
8
0
10
59.7883440700004
20
91.553444647866
30
0
0
VERTEX
8
0
10
60.6073624819182
20
90.9390363129944
30
0
0
VERTEX
8
0
10
61.426380893836
20
90.3821916811043
30
0
0
VERTEX
8
0
10
62.2453993057538
20
89.8561520960598
30
0
0
VERTEX
8
0
10
63.0644177176716
20
89.332149589923
30
0
0
VERTEX
8
0
10
63.8834361295894
20
88.8058825181739
30
0
0
VERTEX
8
0
10
64.7024545415073
20
88.6152332392882
30
0
0
VERTEX
8
0
10
65.5214729534251
20
88.3401294775672
30
0
0
VERTEX
8
0
10
66.3404913653429
20
88.0666953641205
30
0
0
VERTEX
8
0
10
67.1595097772607
20
87.855779347053
30
0
0
VERTEX
8
0
10
67.9785281891785
20
87.6490903379817
30
0
0
VERTEX
8
0
10
68.7975466010963
20
87.4426762719294
30
0
0
VERTEX
8
0
10
69.6165650130141
20
87.1555123640094
30
0
0
VERTEX
8
0
10
70.4355834249319
20
86.8726249538484
30
0
0
VERTEX
8
0
10
71.2546018368498
20
86.5897837185991
30
0
0
VERTEX
8
0
10
72.0736202487676
20
86.2514623007706
30
0
0
VERTEX
8
0
10
72.8926386606854
20
85.8836207056203
30
0
0
VERTEX
8
0
10
73.7116570726032
20
85.5157871119531
30
0
0
VERTEX
8
0
10
74.530675484521
20
85.1507479341757
30
0
0
VERTEX
8
0
10
75.3496938964388
20
84.796823338739
30
0
0
VERTEX
8
0
10
76.1687123083566
20
84.4401141158383
30
0
0
VERTEX
8
0
10
76.9877307202744
20
84.0936337140779
30
0
0
VERTEX
8
0
10
77.8067491321923
20
83.7465102563867
30
0
0
VERTEX
8
0
10
78.6257675441101
20
83.4008144671314
30
0
0
VERTEX
8
0
10
79.4447859560279
20
83.0556224606712
30
0
0
VERTEX
8
0
10
80.2638043679457
20
82.6993621232125
30
0
0
VERTEX
8
0
10
81.0828227798635
20
82.347816916527
30
0
0
VERTEX
8
0
10
81.9018411917813
20
81.9962739610444
30
0
0
VERTEX
8
0
10
82.7208596036991
20
81.623372279014
30
0
0
VERTEX
8
0
10
83.5398780156169
20
81.2484890459444
30
0
0
VERTEX
8
0
10
84.3588964275347
20
80.8736224064937
30
0
0
VERTEX
8
0
10
85.1779148394526
20
80.5371674370477
30
0
0
VERTEX
8
0
10
85.9969332513704
20
80.209831822976
30
0
0
VERTEX
8
0
10
86.8159516632882
20
79.882643059344
30
0
0
VERTEX
8
0
10
87.634970075206
20
79.5669823945472
30
0
0
VERTEX
8
0
10
88.4539884871238
20
79.257459212112
30
0
0
VERTEX
8
0
10
89.2730068990416
20
78.9482642314122
30
0
0
VERTEX
8
0
10
90.0920253109594
20
78.6390434441438
30
0
0
VERTEX
8
0
10
90.9110437228772
20
78.3641366552384
30
0
0
VERTEX
8
0
10
91.730062134795
20
78.0804829663704
30
0
0
VERTEX
8
0
10
92.5490805467129
20
77.797625125892
30
0
0
VERTEX
8
0
10
93.3680989586307
20
77.545057821096
30
0
0
VERTEX
8
0
10
94.1871173705485
20
77.2939508102026
30
0
0
VERTEX
8
0
10
95.0061357824663
20
77.0438731772018
30
0
0
VERTEX
8
0
10
95.8251541943841
20
76.8063439159942
30
0
0
VERTEX
8
0
10
96.6441726063019
20
76.5702956095487
30
0
0
VERTEX
8
0
10
97.4631910182197
20
76.3355579468768
30
0
0
VERTEX
8
0
10
98.2822094301375
20
76.1158980782287
30
0
0
VERTEX
8
0
10
99.1012278420554
20
75.9026619824831
30
0
0
VERTEX
8
0
10
99.9202462539732
20
75.6912391324884
30
0
0
VERTEX
8
0
10
100.739264665891
20
75.4810347946969
30
0
0
VERTEX
8
0
10
101.558283077809
20
75.3089092556041
30
0
0
VERTEX
8
0
10
102.377301489727
20
75.1289712006391
30
0
0
VERTEX
8
0
10
103.196319901644
20
74.9522523117905
30
0
0
VERTEX
8
0
10
104.015338313562
20
74.7651506689715
30
0
0
VERTEX
8
0
10
104.83435672548
20
74.5841988863657
30
0
0
VERTEX
8
0
10
105.653375137398
20
74.4051711062641
30
0
0
VERTEX
8
0
10
106.472393549316
20
74.2193983471218
30
0
0
VERTEX
8
0
10
107.291411961233
20
74.0379043382602
30
0
0
VERTEX
8
0
10
108.110430373151
20
73.8579392518018
30
0
0
VERTEX
8
0
10
108.929448785069
20
73.6163421005038
30
0
0
VERTEX
8
0
10
109.748467196987
20
73.3642512856885
30
0
0
VERTEX
8
0
10
110.567485608905
20
73.112419153815
30
0
0
VERTEX
8
0
10
111.386504020823
20
72.8165835486489
30
0
0
VERTEX
8
0
10
112.20552243274
20
72.4963218693157
30
0
0
VERTEX
8
0
10
113.024540844658
20
72.1751381758027
30
0
0
VERTEX
8
0
10
113.843559256576
20
71.8565301219809
30
0
0
VERTEX
8
0
10
114.662577668494
20
71.5454786034971
30
0
0
VERTEX
8
0
10
115.481596080412
20
71.2353475354051
30
0
0
VERTEX
8
0
10
116.300614492329
20
70.9252657726481
30
0
0
VERTEX
8
0
10
117.119632904247
20
70.6703180355982
30
0
0
VERTEX
8
0
10
117.938651316165
20
70.4099394908512
30
0
0
VERTEX
8
0
10
118.757669728083
20
70.1495815324116
30
0
0
VERTEX
8
0
10
119.576688140001
20
69.6925909878921
30
0
0
VERTEX
8
0
10
120.395706551918
20
69.2257352654
30
0
0
VERTEX
8
0
10
121.214724963836
20
68.7625682408504
30
0
0
VERTEX
8
0
10
122.033743375754
20
67.7814250438705
30
0
0
VERTEX
8
0
10
122.852761787672
20
67.2377807543256
30
0
0
VERTEX
8
0
10
123.67178019959
20
66.8107153038069
30
0
0
VERTEX
8
0
10
124.490798611508
20
66.3939772653762
30
0
0
VERTEX
8
0
10
125.309817023425
20
66.2061295891933
30
0
0
VERTEX
8
0
10
126.128835435343
20
65.9822737743189
30
0
0
VERTEX
8
0
10
126.947853847261
20
65.7571722623979
30
0
0
VERTEX
8
0
10
127.766872259179
20
65.5401201673984
30
0
0
VERTEX
8
0
10
128.585890671097
20
65.3234549684115
30
0
0
VERTEX
8
0
10
129.404909083014
20
65.1068664110205
30
0
0
VERTEX
8
0
10
130.223927494932
20
64.8886966151243
30
0
0
VERTEX
8
0
10
131.04294590685
20
64.6737702779387
30
0
0
VERTEX
8
0
10
131.861964318768
20
64.4589208879314
30
0
0
VERTEX
8
0
10
132.680982730686
20
64.2577226537431
30
0
0
VERTEX
8
0
10
133.500001142603
20
64.0602696687948
30
0
0
VERTEX
8
0
10
134.319019554521
20
63.8628894664312
30
0
0
VERTEX
8
0
10
135.138037966439
20
63.6607015524267
30
0
0
VERTEX
8
0
10
135.957056378357
20
63.4579292777136
30
0
0
VERTEX
8
0
10
136.776074790275
20
63.2552285809186
30
0
0
VERTEX
8
0
10
137.595093202193
20
63.0541582496526
30
0
0
VERTEX
8
0
10
138.41411161411
20
62.8639791374979
30
0
0
VERTEX
8
0
10
139.233130026028
20
62.6731957754062
30
0
0
VERTEX
8
0
10
140.052148437946
20
62.4824788345974
30
0
0
VERTEX
8
0
10
140.871166849864
20
62.2989985782835
30
0
0
VERTEX
8
0
10
141.690185261782
20
62.1146876752205
30
0
0
VERTEX
8
0
10
142.5092036737
20
61.930445366941
30
0
0
VERTEX
8
0
10
143.328222085617
20
61.7463590446528
30
0
0
VERTEX
8
0
10
144.147240497535
20
61.568337567328
30
0
0
VERTEX
8
0
10
144.966258909453
20
61.3903790361797
30
0
0
VERTEX
8
0
10
145.785277321371
20
61.2218291341361
30
0
0
VERTEX
8
0
10
146.604295733289
20
61.0795338513378
30
0
0
VERTEX
8
0
10
147.423314145207
20
60.9298364188874
30
0
0
VERTEX
8
0
10
148.242332557124
20
60.7705228000853
30
0
0
VERTEX
8
0
10
149.061350969042
20
60.6009758594934
30
0
0
VERTEX
8
0
10
149.88036938096
20
60.4325945097942
30
0
0
VERTEX
8
0
10
150.699387792878
20
60.272766427565
30
0
0
VERTEX
8
0
10
151.518406204796
20
60.0789666795501
30
0
0
VERTEX
8
0
10
152.337424616713
20
59.8832475595328
30
0
0
VERTEX
8
0
10
153.156443028631
20
59.687650038614
30
0
0
VERTEX
8
0
10
153.975461440549
20
59.4934233790867
30
0
0
VERTEX
8
0
10
154.794479852467
20
59.3150594246926
30
0
0
SEQEND
8
0
0
POLYLINE
8
0
62
2
70
0
10
0
20
0
30
0
0
VERTEX
8
0
10
2.45705523575344
20
99.899994509601
30
0
0
VERTEX
8
0
10
3.27607364767126
20
93.838147281249
30
0
0
VERTEX
8
0
10
4.09509205958907
20
86.4799969175413
30
0
0
VERTEX
8
0
10
4.91411047150689
20
81.4615638075324
30
0
0
VERTEX
8
0
10
5.7331288834247
20
79.7820763985082
30
0
0
VERTEX
8
0
10
6.55214729534252
20
77.8170770814665
30
0
0
VERTEX
8
0
10
7.37116570726033
20
76.2233994092699
30
0
0
VERTEX
8
0
10
8.19018411917815
20
75.4514638446031
30
0
0
VERTEX
8
0
10
9.00920253109596
20
75.021163171706
30
0
0
VERTEX
8
0
10
9.82822094301378
20
75.0818890756014
30
0
0
VERTEX
8
0
10
10.6472393549316
20
75.2346876256209
30
0
0
VERTEX
8
0
10
11.4662577668494
20
75.5868359965351
30
0
0
VERTEX
8
0
10
12.2852761787672
20
76.0270501203059
30
0
0
VERTEX
8
0
10
13.104294590685
20
76.582221450955
30
0
0
VERTEX
8
0
10
13.9233130026029
20
76.6472186074114
30
0
0
VERTEX
8
0
10
14.7423314145207
20
77.0150348243054
30
0
0
VERTEX
8
0
10
15.5613498264385
20
77.5845701483392
30
0
0
VERTEX
8
0
10
16.3803682383563
20
78.2724615172335
30
0
0
VERTEX
8
0
10
17.1993866502741
20
79.107928438619
30
0
0
VERTEX
8
0
10
18.0184050621919
20
79.9597591261016
30
0
0
VERTEX
8
0
10
18.8374234741097
20
80.8820025890411
30
0
0
VERTEX
8
0
10
19.6564418860276
20
82.4245371475279
30
0
0
VERTEX
8
0
10
20.4754602979454
20
83.3933113274516
30
0
0
VERTEX
8
0
10
21.2944787098632
20
84.3348691694976
30
0
0
VERTEX
8
0
10
22.113497121781
20
84.8707723236739
30
0
0
VERTEX
8
0
10
22.9325155336988
20
85.2915559165825
30
0
0
VERTEX
8
0
10
23.7515339456166
20
85.7374422233845
30
0
0
VERTEX
8
0
10
24.5705523575345
20
86.1771569613477
30
0
0
VERTEX
8
0
10
25.3895707694523
20
86.5982333811186
30
0
0
VERTEX
8
0
10
26.2085891813701
20
87.0384468795831
30
0
0
VERTEX
8
0
10
27.0276075932879
20
87.5139590038773
30
0
0
VERTEX
8
0
10
27.8466260052057
20
87.6844876128284
30
0
0
VERTEX
8
0
10
28.6656444171235
20
87.9706202087616
30
0
0
VERTEX
8
0
10
29.4846628290413
20
88.2704646221351
30
0
0
VERTEX
8
0
10
30.3036812409592
20
88.595642106421
30
0
0
VERTEX
8
0
10
31.122699652877
20
88.9263279276504
30
0
0
VERTEX
8
0
10
31.9417180647948
20
89.2689144645182
30
0
0
VERTEX
8
0
10
32.7607364767126
20
89.7534629208192
30
0
0
VERTEX
8
0
10
33.5797548886304
20
90.2459214376745
30
0
0
VERTEX
8
0
10
34.3987733005482
20
90.746785451323
30
0
0
VERTEX
8
0
10
35.217791712466
20
91.2797956535768
30
0
0
VERTEX
8
0
10
36.0368101243838
20
91.8149598629959
30
0
0
VERTEX
8
0
10
36.8558285363017
20
92.3571151789662
30
0
0
VERTEX
8
0
10
37.6748469482195
20
92.9439137880374
30
0
0
VERTEX
8
0
10
38.4938653601373
20
93.546290935875
30
0
0
VERTEX
8
0
10
39.3128837720551
20
94.1561076039543
30
0
0
VERTEX
8
0
10
40.1319021839729
20
94.7779096933343
30
0
0
VERTEX
8
0
10
40.9509205958907
20
95.3983210726923
30
0
0
VERTEX
8
0
10
41.7699390078085
20
96.0277967618335
30
0
0
VERTEX
8
0
10
42.5889574197263
20
96.6646547794366
30
0
0
VERTEX
8
0
10
43.4079758316442
20
96.5840711171804
30
0
0
VERTEX
8
0
10
44.226994243562
20
96.5915510555799
30
0
0
VERTEX
8
0
10
45.0460126554798
20
96.6039662638527
30
0
0
VERTEX
8
0
10
45.8650310673976
20
96.2921378256812
30
0
0
VERTEX
8
0
10
46.6840494793154
20
95.9479006610211
30
0
0
VERTEX
8
0
10
47.5030678912332
20
95.6076489419751
30
0
0
VERTEX
8
0
10
48.322086303151
20
95.4464391614137
30
0
0
VERTEX
8
0
10
49.1411047150688
20
95.3690115369254
30
0
0
VERTEX
8
0
10
49.9601231269867
20
95.2955597954874
30
0
0
VERTEX
8
0
10
50.7791415389045
20
95.2446826792487
30
0
0
VERTEX
8
0
10
51.5981599508223
20
95.3479529530212
30
0
0
VERTEX
8
0
10
52.4171783627401
20
95.4098958437663
30
0
0
VERTEX
8
0
10
53.2361967746579
20
95.4688605018602
30
0
0
VERTEX
8
0
10
54.0552151865757
20
95.077462611895
30
0
0
VERTEX
8
0
10
54.8742335984935
20
94.7743443197702
30
0
0
VERTEX
8
0
10
55.6932520104113
20
94.4756940386226
30
0
0
VERTEX
8
0
10
56.5122704223291
20
93.9403299171745
30
0
0
VERTEX
8
0
10
57.331288834247
20
93.4228134901978
30
0
0
VERTEX
8
0
10
58.1503072461648
20
92.9078891017472
30
0
0
VERTEX
8
0
10
58.9693256580826
20
92.3078329629951
30
0
0
VERTEX
8
0
10
59.7883440700004
20
91.6915832689012
30
0
0
VERTEX
8
0
10
60.6073624819182
20
91.0761978904879
30
0
0
VERTEX
8
0
10
61.426380893836
20
90.5203867098452
30
0
0
VERTEX
8
0
10
62.2453993057538
20
89.9958396107319
30
0
0
VERTEX
8
0
10
63.0644177176716
20
89.4740890215559
30
0
0
VERTEX
8
0
10
63.8834361295894
20
88.946726046343
30
0
0
VERTEX
8
0
10
64.7024545415073
20
88.7545722404952
30
0
0
VERTEX
8
0
10
65.5214729534251
20
88.4781791921841
30
0
0
VERTEX
8
0
10
66.3404913653429
20
88.2034633736751
30
0
0
VERTEX
8
0
10
67.1595097772607
20
87.9911802959622
30
0
0
VERTEX
8
0
10
67.9785281891785
20
87.7835059575187
30
0
0
VERTEX
8
0
10
68.7975466010963
20
87.5767552404092
30
0
0
VERTEX
8
0
10
69.6165650130141
20
87.2882858849219
30
0
0
VERTEX
8
0
10
70.4355834249319
20
87.0045874394716
30
0
0
VERTEX
8
0
10
71.2546018368498
20
86.7216179983906
30
0
0
VERTEX
8
0
10
72.0736202487676
20
86.3821496032856
30
0
0
VERTEX
8
0
10
72.8926386606854
20
86.0135225268922
30
0
0
VERTEX
8
0
10
73.7116570726032
20
85.6447130624743
30
0
0
VERTEX
8
0
10
74.530675484521
20
85.2806984652984
30
0
0
VERTEX
8
0
10
75.3496938964388
20
84.9280919521874
30
0
0
VERTEX
8
0
10
76.1687123083566
20
84.5732188653903
30
0
0
VERTEX
8
0
10
76.9877307202744
20
84.225834725294
30
0
0
VERTEX
8
0
10
77.8067491321923
20
83.8778714817624
30
0
0
VERTEX
8
0
10
78.6257675441101
20
83.5313838461952
30
0
0
VERTEX
8
0
10
79.4447859560279
20
83.1853467299556
30
0
0
VERTEX
8
0
10
80.2638043679457
20
82.8283567129791
30
0
0
VERTEX
8
0
10
81.0828227798635
20
82.4760902672375
30
0
0
VERTEX
8
0
10
81.9018411917813
20
82.1237579649599
30
0
0
VERTEX
8
0
10
82.7208596036991
20
81.7512725319362
30
0
0
VERTEX
8
0
10
83.5398780156169
20
81.376863485364
30
0
0
VERTEX
8
0
10
84.3588964275347
20
81.0028218380023
30
0
0
VERTEX
8
0
10
85.1779148394526
20
80.6656817029865
30
0
0
VERTEX
8
0
10
85.9969332513704
20
80.3381168547856
30
0
0
VERTEX
8
0
10
86.8159516632882
20
80.0111613560097
30
0
0
VERTEX
8
0
10
87.634970075206
20
79.6946393598113
30
0
0
VERTEX
8
0
10
88.4539884871238
20
79.3845538438478
30
0
0
VERTEX
8
0
10
89.2730068990416
20
79.0747278635387
30
0
0
VERTEX
8
0
10
90.0920253109594
20
78.7648326138429
30
0
0
VERTEX
8
0
10
90.9110437228772
20
78.4893058740211
30
0
0
VERTEX
8
0
10
91.730062134795
20
78.20529787972
30
0
0
VERTEX
8
0
10
92.5490805467129
20
77.9223600960356
30
0
0
VERTEX
8
0
10
93.3680989586307
20
77.6695403564579
30
0
0
VERTEX
8
0
10
94.1871173705485
20
77.4185345687845
30
0
0
VERTEX
8
0
10
95.0061357824663
20
77.1689015395164
30
0
0
VERTEX
8
0
10
95.8251541943841
20
76.9305412889521
30
0
0
VERTEX
8
0
10
96.6441726063019
20
76.6938448136323
30
0
0
VERTEX
8
0
10
97.4631910182197
20
76.4587273473935
30
0
0
VERTEX
8
0
10
98.2822094301375
20
76.2382463589385
30
0
0
VERTEX
8
0
10
99.1012278420554
20
76.0244000963508
30
0
0
VERTEX
8
0
10
99.9202462539732
20
75.8122963622561
30
0
0
VERTEX
8
0
10
100.739264665891
20
75.6015415068274
30
0
0
VERTEX
8
0
10
101.558283077809
20
75.4290430566864
30
0
0
VERTEX
8
0
10
102.377301489727
20
75.2489711887773
30
0
0
VERTEX
8
0
10
103.196319901644
20
75.0716275143468
30
0
0
VERTEX
8
0
10
104.015338313562
20
74.8837982216221
30
0
0
VERTEX
8
0
10
104.83435672548
20
74.7021849089215
30
0
0
VERTEX
8
0
10
105.653375137398
20
74.5226959455642
30
0
0
VERTEX
8
0
10
106.472393549316
20
74.3362261692954
30
0
0
VERTEX
8
0
10
107.291411961233
20
74.1541682581469
30
0
0
VERTEX
8
0
10
108.110430373151
20
73.973527311953
30
0
0
VERTEX
8
0
10
108.929448785069
20
73.7319570945798
30
0
0
VERTEX
8
0
10
109.748467196987
20
73.479928564526
30
0
0
VERTEX
8
0
10
110.567485608905
20
73.2283378799497
30
0
0
VERTEX
8
0
10
111.386504020823
20
72.9343363208804
30
0
0
VERTEX
8
0
10
112.20552243274
20
72.6162563099003
30
0
0
VERTEX
8
0
10
113.024540844658
20
72.2973886206747
30
0
0
VERTEX
8
0
10
113.843559256576
20
71.9788325037777
30
0
0
VERTEX
8
0
10
114.662577668494
20
71.6672969099739
30
0
0
VERTEX
8
0
10
115.481596080412
20
71.3567496380682
30
0
0
VERTEX
8
0
10
116.300614492329
20
71.0466593059196
30
0
0
VERTEX
8
0
10
117.119632904247
20
70.7910422524996
30
0
0
VERTEX
8
0
10
117.938651316165
20
70.5304996382996
30
0
0
VERTEX
8
0
10
118.757669728083
20
70.2695968827506
30
0
0
VERTEX
8
0
10
119.576688140001
20
69.8127710733403
30
0
0
VERTEX
8
0
10
120.395706551918
20
69.3458649517789
30
0
0
VERTEX
8
0
10
121.214724963836
20
68.8825265346957
30
0
0
VERTEX
8
0
10
122.033743375754
20
67.9065123166258
30
0
0
VERTEX
8
0
10
122.852761787672
20
67.3672184703999
30
0
0
VERTEX
8
0
10
123.67178019959
20
66.9448335893287
30
0
0
VERTEX
8
0
10
124.490798611508
20
66.5279263002075
30
0
0
VERTEX
8
0
10
125.309817023425
20
66.3397057577676
30
0
0
VERTEX
8
0
10
126.128835435343
20
66.1156709780517
30
0
0
VERTEX
8
0
10
126.947853847261
20
65.8900984277357
30
0
0
VERTEX
8
0
10
127.766872259179
20
65.6727533252717
30
0
0
VERTEX
8
0
10
128.585890671097
20
65.4556764983115
30
0
0
VERTEX
8
0
10
129.404909083014
20
65.2383929246032
30
0
0
VERTEX
8
0
10
130.223927494932
20
65.0252189398594
30
0
0
VERTEX
8
0
10
131.04294590685
20
64.8135620615849
30
0
0
VERTEX
8
0
10
131.861964318768
20
64.6031007023027
30
0
0
VERTEX
8
0
10
132.680982730686
20
64.4004350319466
30
0
0
VERTEX
8
0
10
133.500001142603
20
64.2033220360494
30
0
0
VERTEX
8
0
10
134.319019554521
20
64.0051275849481
30
0
0
VERTEX
8
0
10
135.138037966439
20
63.8044357364393
30
0
0
VERTEX
8
0
10
135.957056378357
20
63.6032338456362
30
0
0
VERTEX
8
0
10
136.776074790275
20
63.402266805882
30
0
0
VERTEX
8
0
10
137.595093202193
20
63.2015062857141
30
0
0
VERTEX
8
0
10
138.41411161411
20
63.0108584981299
30
0
0
VERTEX
8
0
10
139.233130026028
20
62.8196702812468
30
0
0
VERTEX
8
0
10
140.052148437946
20
62.6296794202349
30
0
0
VERTEX
8
0
10
140.871166849864
20
62.4448501034426
30
0
0
VERTEX
8
0
10
141.690185261782
20
62.2606352775288
30
0
0
VERTEX
8
0
10
142.5092036737
20
62.0754256629394
30
0
0
VERTEX
8
0
10
143.328222085617
20
61.8961660929133
30
0
0
VERTEX
8
0
10
144.147240497535
20
61.7211566484188
30
0
0
VERTEX
8
0
10
144.966258909453
20
61.5474847537107
30
0
0
VERTEX
8
0
10
145.785277321371
20
61.3778167249294
30
0
0
VERTEX
8
0
10
146.604295733289
20
61.2352374003642
30
0
0
VERTEX
8
0
10
147.423314145207
20
61.0840519601429
30
0
0
VERTEX
8
0
10
148.242332557124
20
60.9294039841888
30
0
0
VERTEX
8
0
10
149.061350969042
20
60.7663160086811
30
0
0
VERTEX
8
0
10
149.88036938096
20
60.6046359515075
30
0
0
VERTEX
8
0
10
150.699387792878
20
60.4456007743603
30
0
0
VERTEX
8
0
10
151.518406204796
20
60.2509233871076
30
0
0
VERTEX
8
0
10
152.337424616713
20
60.0547112797654
30
0
0
VERTEX
8
0
10
153.156443028631
20
59.8577439363675
30
0
0
VERTEX
8
0
10
153.975461440549
20
59.6815409110759
30
0
0
VERTEX
8
0
10
154.794479852467
20
59.5134661012907
30
0
0
SEQEND
8
0
0
POLYLINE
8
0
62
3
70
0
10
0
20
0
30
0
0
VERTEX
8
0
10
2.45705523575344
20
102.864675858529
30
0
0
VERTEX
8
0
10
3.27607364767126
20
95.2822525299811
30
0
0
VERTEX
8
0
10
4.09509205958907
20
87.1460871037805
30
0
0
VERTEX
8
0
10
4.91411047150689
20
82.9082203589031
30
0
0
VERTEX
8
0
10
5.7331288834247
20
83.214336565301
30
0
0
VERTEX
8
0
10
6.55214729534252
20
79.3244200656758
30
0
0
VERTEX
8
0
10
7.37116570726033
20
77.2881332246755
30
0
0
VERTEX
8
0
10
8.19018411917815
20
77.064931231216
30
0
0
VERTEX
8
0
10
9.00920253109596
20
77.9499203987292
30
0
0
VERTEX
8
0
10
9.82822094301378
20
76.867540513354
30
0
0
VERTEX
8
0
10
10.6472393549316
20
77.0314682652354
30
0
0
VERTEX
8
0
10
11.4662577668494
20
77.9311769049559
30
0
0
VERTEX
8
0
10
12.2852761787672
20
79.5431103061378
30
0
0
VERTEX
8
0
10
13.104294590685
20
79.7291639633621
30
0
0
VERTEX
8
0
10
13.9233130026029
20
80.5889079239223
30
0
0
VERTEX
8
0
10
14.7423314145207
20
81.8232262561056
30
0
0
VERTEX
8
0
10
15.5613498264385
20
83.4717769570948
30
0
0
VERTEX
8
0
10
16.3803682383563
20
84.1609309434412
30
0
0
VERTEX
8
0
10
17.1993866502741
20
85.2858807501934
30
0
0
VERTEX
8
0
10
18.0184050621919
20
86.5529378843435
30
0
0
VERTEX
8
0
10
18.8374234741097
20
88.0403060747899
30
0
0
VERTEX
8
0
10
19.6564418860276
20
88.9087117712033
30
0
0
VERTEX
8
0
10
20.4754602979454
20
90.0125905183065
30
0
0
VERTEX
8
0
10
21.2944787098632
20
91.1958726305757
30
0
0
VERTEX
8
0
10
22.113497121781
20
92.5210795696896
30
0
0
VERTEX
8
0
10
22.9325155336988
20
93.3967045119273
30
0
0
VERTEX
8
0
10
23.7515339456166
20
94.4235957129474
30
0
0
VERTEX
8
0
10
24.5705523575345
20
95.489127687922
30
0
0
VERTEX
8
0
10
25.3895707694523
20
96.6251659628522
30
0
0
VERTEX
8
0
10
26.2085891813701
20
97.4408710968541
30
0
0
VERTEX
8
0
10
27.0276075932879
20
98.3606359617905
30
0
0
VERTEX
8
0
10
27.8466260052057
20
99.268550425557
30
0
0
VERTEX
8
0
10
28.6656444171235
20
100.229405871692
30
0
0
VERTEX
8
0
10
29.4846628290413
20
100.957980366769
30
0
0
VERTEX
8
0
10
30.3036812409592
20
101.746086598788
30
0
0
VERTEX
8
0
10
31.122699652877
20
102.513191781414
30
0
0
VERTEX
8
0
10
31.9417180647948
20
103.315441483064
30
0
0
VERTEX
8
0
10
32.7607364767126
20
103.942580975871
30
0
0
VERTEX
8
0
10
33.5797548886304
20
104.607797290751
30
0
0
VERTEX
8
0
10
34.3987733005482
20
105.247389830873
30
0
0
VERTEX
8
0
10
35.217791712466
20
105.916200945741
30
0
0
VERTEX
8
0
10
36.0368101243838
20
106.447022378734
30
0
0
VERTEX
8
0
10
36.8558285363017
20
107.006417897944
30
0
0
VERTEX
8
0
10
37.6748469482195
20
107.544622610433
30
0
0
VERTEX
8
0
10
38.4938653601373
20
108.100343025632
30
0
0
VERTEX
8
0
10
39.3128837720551
20
108.568344794483
30
0
0
VERTEX
8
0
10
40.1319021839729
20
109.045220200582
30
0
0
VERTEX
8
0
10
40.9509205958907
20
109.484208309521
30
0
0
VERTEX
8
0
10
41.7699390078085
20
109.928983219251
30
0
0
VERTEX
8
0
10
42.5889574197263
20
110.297161854793
30
0
0
VERTEX
8
0
10
43.4079758316442
20
110.679184160652
30
0
0
VERTEX
8
0
10
44.226994243562
20
111.038127478626
30
0
0
VERTEX
8
0
10
45.0460126554798
20
111.411198114115
30
0
0
VERTEX
8
0
10
45.8650310673976
20
111.74122336063
30
0
0
VERTEX
8
0
10
46.6840494793154
20
112.097360527093
30
0
0
VERTEX
8
0
10
47.5030678912332
20
112.46608312859
30
0
0
VERTEX
8
0
10
48.322086303151
20
112.923074572296
30
0
0
VERTEX
8
0
10
49.1411047150688
20
113.37969402273
30
0
0
VERTEX
8
0
10
49.9601231269867
20
113.668694426554
30
0
0
VERTEX
8
0
10
50.7791415389045
20
113.837472372915
30
0
0
VERTEX
8
0
10
51.5981599508223
20
113.944227154917
30
0
0
VERTEX
8
0
10
52.4171783627401
20
113.972111830464
30
0
0
VERTEX
8
0
10
53.2361967746579
20
113.968959241644
30
0
0
VERTEX
8
0
10
54.0552151865757
20
113.919680502406
30
0
0
VERTEX
8
0
10
54.8742335984935
20
113.849781701486
30
0
0
VERTEX
8
0
10
55.6932520104113
20
113.73869015412
30
0
0
VERTEX
8
0
10
56.5122704223291
20
113.615962706887
30
0
0
VERTEX
8
0
10
57.331288834247
20
113.466292197618
30
0
0
VERTEX
8
0
10
58.1503072461648
20
113.309108490623
30
0
0
VERTEX
8
0
10
58.9693256580826
20
113.130630999125
30
0
0
VERTEX
8
0
10
59.7883440700004
20
112.947423475467
30
0
0
VERTEX
8
0
10
60.6073624819182
20
112.747539393637
30
0
0
VERTEX
8
0
10
61.426380893836
20
112.546404835832
30
0
0
VERTEX
8
0
10
62.2453993057538
20
112.332242008397
30
0
0
VERTEX
8
0
10
63.0644177176716
20
112.120247821566
30
0
0
VERTEX
8
0
10
63.8834361295894
20
111.900402393264
30
0
0
VERTEX
8
0
10
64.7024545415073
20
111.6842036887
30
0
0
VERTEX
8
0
10
65.5214729534251
20
111.46213408844
30
0
0
VERTEX
8
0
10
66.3404913653429
20
111.246023465061
30
0
0
VERTEX
8
0
10
67.1595097772607
20
111.026232308108
30
0
0
VERTEX
8
0
10
67.9785281891785
20
110.814017992248
30
0
0
VERTEX
8
0
10
68.7975466010963
20
110.60325746542
30
0
0
VERTEX
8
0
10
69.6165650130141
20
110.404403397567
30
0
0
VERTEX
8
0
10
70.4355834249319
20
110.207618712688
30
0
0
VERTEX
8
0
10
71.2546018368498
20
110.020145312956
30
0
0
VERTEX
8
0
10
72.0736202487676
20
109.836394951861
30
0
0
VERTEX
8
0
10
72.8926386606854
20
109.658617887138
30
0
0
VERTEX
8
0
10
73.7116570726032
20
109.478746285501
30
0
0
VERTEX
8
0
10
74.530675484521
20
109.303823571171
30
0
0
VERTEX
8
0
10
75.3496938964388
20
109.129651378479
30
0
0
VERTEX
8
0
10
76.1687123083566
20
108.960693733668
30
0
0
VERTEX
8
0
10
76.9877307202744
20
108.790330259114
30
0
0
VERTEX
8
0
10
77.8067491321923
20
108.625188718458
30
0
0
VERTEX
8
0
10
78.6257675441101
20
108.460825394775
30
0
0
VERTEX
8
0
10
79.4447859560279
20
108.300944602388
30
0
0
VERTEX
8
0
10
80.2638043679457
20
108.139524341705
30
0
0
VERTEX
8
0
10
81.0828227798635
20
107.982072804592
30
0
0
VERTEX
8
0
10
81.9018411917813
20
107.825813541101
30
0
0
VERTEX
8
0
10
82.7208596036991
20
107.673500180133
30
0
0
VERTEX
8
0
10
83.5398780156169
20
107.519886311396
30
0
0
VERTEX
8
0
10
84.3588964275347
20
107.370240806961
30
0
0
VERTEX
8
0
10
85.1779148394526
20
107.222500527416
30
0
0
VERTEX
8
0
10
85.9969332513704
20
107.07850101649
30
0
0
VERTEX
8
0
10
86.8159516632882
20
106.933584898947
30
0
0
VERTEX
8
0
10
87.634970075206
20
106.79295776338
30
0
0
VERTEX
8
0
10
88.4539884871238
20
106.654668296446
30
0
0
VERTEX
8
0
10
89.2730068990416
20
106.519446453203
30
0
0
VERTEX
8
0
10
90.0920253109594
20
106.382702671922
30
0
0
VERTEX
8
0
10
90.9110437228772
20
106.248865285888
30
0
0
VERTEX
8
0
10
91.730062134795
20
106.116945286721
30
0
0
VERTEX
8
0
10
92.5490805467129
20
105.9878507104
30
0
0
VERTEX
8
0
10
93.3680989586307
20
105.857704694691
30
0
0
VERTEX
8
0
10
94.1871173705485
20
105.730072100385
30
0
0
VERTEX
8
0
10
95.0061357824663
20
105.604112189641
30
0
0
VERTEX
8
0
10
95.8251541943841
20
105.48058538179
30
0
0
VERTEX
8
0
10
96.6441726063019
20
105.355403111141
30
0
0
VERTEX
8
0
10
97.4631910182197
20
105.232014454318
30
0
0
VERTEX
8
0
10
98.2822094301375
20
105.110329426296
30
0
0
VERTEX
8
0
10
99.1012278420554
20
104.989860481495
30
0
0
VERTEX
8
0
10
99.9202462539732
20
104.867434488464
30
0
0
VERTEX
8
0
10
100.739264665891
20
104.745307451971
30
0
0
VERTEX
8
0
10
101.558283077809
20
104.623366351847
30
0
0
VERTEX
8
0
10
102.377301489727
20
104.501729207089
30
0
0
VERTEX
8
0
10
103.196319901644
20
104.377804676534
30
0
0
VERTEX
8
0
10
104.015338313562
20
104.253943009399
30
0
0
VERTEX
8
0
10
104.83435672548
20
104.129372289724
30
0
0
VERTEX
8
0
10
105.653375137398
20
104.004060444423
30
0
0
VERTEX
8
0
10
106.472393549316
20
103.876081420538
30
0
0
VERTEX
8
0
10
107.291411961233
20
103.746519900239
30
0
0
VERTEX
8
0
10
108.110430373151
20
103.615196065728
30
0
0
VERTEX
8
0
10
108.929448785069
20
103.481695719854
30
0
0
VERTEX
8
0
10
109.748467196987
20
103.344319651735
30
0
0
VERTEX
8
0
10
110.567485608905
20
103.204637915521
30
0
0
VERTEX
8
0
10
111.386504020823
20
103.062392889042
30
0
0
VERTEX
8
0
10
112.20552243274
20
102.917279078136
30
0
0
VERTEX
8
0
10
113.024540844658
20
102.767753480887
30
0
0
VERTEX
8
0
10
113.843559256576
20
102.615172432277
30
0
0
VERTEX
8
0
10
114.662577668494
20
102.459800605473
30
0
0
VERTEX
8
0
10
115.481596080412
20
102.30095659725
30
0
0
VERTEX
8
0
10
116.300614492329
20
102.138113535781
30
0
0
VERTEX
8
0
10
117.119632904247
20
101.973903820223
30
0
0
VERTEX
8
0
10
117.938651316165
20
101.806427881407
30
0
0
VERTEX
8
0
10
118.757669728083
20
101.630391865644
30
0
0
VERTEX
8
0
10
119.576688140001
20
101.442664149496
30
0
0
VERTEX
8
0
10
120.395706551918
20
101.246298021617
30
0
0
VERTEX
8
0
10
121.214724963836
20
101.043047193527
30
0
0
VERTEX
8
0
10
122.033743375754
20
100.834052032762
30
0
0
VERTEX
8
0
10
122.852761787672
20
100.620113855509
30
0
0
VERTEX
8
0
10
123.67178019959
20
100.402900437071
30
0
0
VERTEX
8
0
10
124.490798611508
20
100.183957537018
30
0
0
VERTEX
8
0
10
125.309817023425
20
99.9647304925128
30
0
0
VERTEX
8
0
10
126.128835435343
20
99.7441748544353
30
0
0
VERTEX
8
0
10
126.947853847261
20
99.5218001774148
30
0
0
VERTEX
8
0
10
127.766872259179
20
99.2995784286293
30
0
0
VERTEX
8
0
10
128.585890671097
20
99.0789669104215
30
0
0
VERTEX
8
0
10
129.404909083014
20
98.8609771225748
30
0
0
VERTEX
8
0
10
130.223927494932
20
98.6472378931656
30
0
0
VERTEX
8
0
10
131.04294590685
20
98.4401167214465
30
0
0
VERTEX
8
0
10
131.861964318768
20
98.2419103097036
30
0
0
VERTEX
8
0
10
132.680982730686
20
98.0527963106016
30
0
0
VERTEX
8
0
10
133.500001142603
20
97.8707908188064
30
0
0
VERTEX
8
0
10
134.319019554521
20
97.6929122353665
30
0
0
VERTEX
8
0
10
135.138037966439
20
97.5173641067185
30
0
0
VERTEX
8
0
10
135.957056378357
20
97.3452629081485
30
0
0
VERTEX
8
0
10
136.776074790275
20
97.176622711245
30
0
0
VERTEX
8
0
10
137.595093202193
20
97.0111147612533
30
0
0
VERTEX
8
0
10
138.41411161411
20
96.8484335749979
30
0
0
VERTEX
8
0
10
139.233130026028
20
96.6883740529205
30
0
0
VERTEX
8
0
10
140.052148437946
20
96.5314972056979
30
0
0
VERTEX
8
0
10
140.871166849864
20
96.3784052988785
30
0
0
VERTEX
8
0
10
141.690185261782
20
96.2274244414192
30
0
0
VERTEX
8
0
10
142.5092036737
20
96.0778908598075
30
0
0
VERTEX
8
0
10
143.328222085617
20
95.9289482283912
30
0
0
VERTEX
8
0
10
144.147240497535
20
95.781499641715
30
0
0
VERTEX
8
0
10
144.966258909453
20
95.6366128862307
30
0
0
VERTEX
8
0
10
145.785277321371
20
95.4962588275969
30
0
0
VERTEX
8
0
10
146.604295733289
20
95.3575401203442
30
0
0
VERTEX
8
0
10
147.423314145207
20
95.2198657317414
30
0
0
VERTEX
8
0
10
148.242332557124
20
95.0813892767467
30
0
0
VERTEX
8
0
10
149.061350969042
20
94.9435664489278
30
0
0
VERTEX
8
0
10
149.88036938096
20
94.8073330197551
30
0
0
VERTEX
8
0
10
150.699387792878
20
94.6742111862425
30
0
0
VERTEX
8
0
10
151.518406204796
20
94.5464698552932
30
0
0
VERTEX
8
0
10
152.337424616713
20
94.4186545582805
30
0
0
VERTEX
8
0
10
153.156443028631
20
94.2933502838807
30
0
0
VERTEX
8
0
10
153.975461440549
20
94.1651685863812
30
0
0
VERTEX
8
0
10
154.794479852467
20
94.0372065786263
30
0
0
SEQEND
8
0
0
POLYLINE
8
0
62
4
70
0
10
0
20
0
30
0
0
VERTEX
8
0
10
2.45705523575344
20
101.193872861119
30
0
0
VERTEX
8
0
10
3.27607364767126
20
95.4857386229368
30
0
0
VERTEX
8
0
10
4.09509205958907
20
88.5323551054287
30
0
0
VERTEX
8
0
10
4.91411047150689
20
83.886816688318
30
0
0
VERTEX
8
0
10
5.7331288834247
20
82.5220349029158
30
0
0
VERTEX
8
0
10
6.55214729534252
20
80.8970272824699
30
0
0
VERTEX
8
0
10
7.37116570726033
20
79.6512837726426
30
0
0
VERTEX
8
0
10
8.19018411917815
20
79.2070079189736
30
0
0
VERTEX
8
0
10
9.00920253109596
20
79.1061997063792
30
0
0
VERTEX
8
0
10
9.82822094301378
20
79.492255917269
30
0
0
VERTEX
8
0
10
10.6472393549316
20
79.9786203511046
30
0
0
VERTEX
8
0
10
11.4662577668494
20
80.6536909313733
30
0
0
VERTEX
8
0
10
12.2852761787672
20
81.4194998820786
30
0
0
VERTEX
8
0
10
13.104294590685
20
82.3051757069308
30
0
0
VERTEX
8
0
10
13.9233130026029
20
82.7412185255682
30
0
0
VERTEX
8
0
10
14.7423314145207
20
83.4656592906275
30
0
0
VERTEX
8
0
10
15.5613498264385
20
84.3817503945994
30
0
0
VERTEX
8
0
10
16.3803682383563
20
85.4162336043277
30
0
0
VERTEX
8
0
10
17.1993866502741
20
86.587068042793
30
0
0
VERTEX
8
0
10
18.0184050621919
20
87.7621357922888
30
0
0
VERTEX
8
0
10
18.8374234741097
20
88.9999960531252
30
0
0
VERTEX
8
0
10
19.6564418860276
20
90.8064105105831
30
0
0
VERTEX
8
0
10
20.4754602979454
20
92.0765980202951
30
0
0
VERTEX
8
0
10
21.2944787098632
20
93.3058475725293
30
0
0
VERTEX
8
0
10
22.113497121781
20
94.1646622013263
30
0
0
VERTEX
8
0
10
22.9325155336988
20
94.9244913940393
30
0
0
VERTEX
8
0
10
23.7515339456166
20
95.7035240570287
30
0
0
VERTEX
8
0
10
24.5705523575345
20
96.4638576764171
30
0
0
VERTEX
8
0
10
25.3895707694523
20
97.2032366561785
30
0
0
VERTEX
8
0
10
26.2085891813701
20
97.9631437698419
30
0
0
VERTEX
8
0
10
27.0276075932879
20
98.7495609245454
30
0
0
VERTEX
8
0
10
27.8466260052057
20
99.2520258050475
30
0
0
VERTEX
8
0
10
28.6656444171235
20
99.8523994703238
30
0
0
VERTEX
8
0
10
29.4846628290413
20
100.467805969208
30
0
0
VERTEX
8
0
10
30.3036812409592
20
101.100167862777
30
0
0
VERTEX
8
0
10
31.122699652877
20
101.723408012384
30
0
0
VERTEX
8
0
10
31.9417180647948
20
102.351635164174
30
0
0
VERTEX
8
0
10
32.7607364767126
20
103.105082771608
30
0
0
VERTEX
8
0
10
33.5797548886304
20
103.858981444589
30
0
0
VERTEX
8
0
10
34.3987733005482
20
104.605836830408
30
0
0
VERTEX
8
0
10
35.217791712466
20
105.374586100795
30
0
0
VERTEX
8
0
10
36.0368101243838
20
106.145412946742
30
0
0
VERTEX
8
0
10
36.8558285363017
20
106.915728451433
30
0
0
VERTEX
8
0
10
37.6748469482195
20
107.710905997911
30
0
0
VERTEX
8
0
10
38.4938653601373
20
108.513264258919
30
0
0
VERTEX
8
0
10
39.3128837720551
20
109.321857046588
30
0
0
VERTEX
8
0
10
40.1319021839729
20
110.134072947909
30
0
0
VERTEX
8
0
10
40.9509205958907
20
110.931978774435
30
0
0
VERTEX
8
0
10
41.7699390078085
20
111.731401345332
30
0
0
VERTEX
8
0
10
42.5889574197263
20
112.53651611858
30
0
0
VERTEX
8
0
10
43.4079758316442
20
112.720042896869
30
0
0
VERTEX
8
0
10
44.226994243562
20
112.968485881468
30
0
0
VERTEX
8
0
10
45.0460126554798
20
113.216628924022
30
0
0
VERTEX
8
0
10
45.8650310673976
20
113.189438015931
30
0
0
VERTEX
8
0
10
46.6840494793154
20
113.131479049346
30
0
0
VERTEX
8
0
10
47.5030678912332
20
113.068359454483
30
0
0
VERTEX
8
0
10
48.322086303151
20
113.153330339354
30
0
0
VERTEX
8
0
10
49.1411047150688
20
113.308834851294
30
0
0
VERTEX
8
0
10
49.9601231269867
20
113.460233398649
30
0
0
VERTEX
8
0
10
50.7791415389045
20
113.618405735562
30
0
0
VERTEX
8
0
10
51.5981599508223
20
113.8987393462
30
0
0
VERTEX
8
0
10
52.4171783627401
20
114.141569065804
30
0
0
VERTEX
8
0
10
53.2361967746579
20
114.375035130918
30
0
0
VERTEX
8
0
10
54.0552151865757
20
114.222793919333
30
0
0
VERTEX
8
0
10
54.8742335984935
20
114.13940458041
30
0
0
VERTEX
8
0
10
55.6932520104113
20
114.058571112519
30
0
0
VERTEX
8
0
10
56.5122704223291
20
113.777582193551
30
0
0
VERTEX
8
0
10
57.331288834247
20
113.504502276312
30
0
0
VERTEX
8
0
10
58.1503072461648
20
113.230603212679
30
0
0
VERTEX
8
0
10
58.9693256580826
20
112.887328877005
30
0
0
VERTEX
8
0
10
59.7883440700004
20
112.528497557687
30
0
0
VERTEX
8
0
10
60.6073624819182
20
112.165317249694
30
0
0
VERTEX
8
0
10
61.426380893836
20
111.848638596765
30
0
0
VERTEX
8
0
10
62.2453993057538
20
111.558012921492
30
0
0
VERTEX
8
0
10
63.0644177176716
20
111.267650198953
30
0
0
VERTEX
8
0
10
63.8834361295894
20
110.968308204733
30
0
0
VERTEX
8
0
10
64.7024545415073
20
110.935437497891
30
0
0
VERTEX
8
0
10
65.5214729534251
20
110.834988533941
30
0
0
VERTEX
8
0
10
66.3404913653429
20
110.733498951466
30
0
0
VERTEX
8
0
10
67.1595097772607
20
110.6769667357
30
0
0
VERTEX
8
0
10
67.9785281891785
20
110.621907043977
30
0
0
VERTEX
8
0
10
68.7975466010963
20
110.567639718067
30
0
0
VERTEX
8
0
10
69.6165650130141
20
110.446745654174
30
0
0
VERTEX
8
0
10
70.4355834249319
20
110.325742841066
30
0
0
VERTEX
8
0
10
71.2546018368498
20
110.203751324853
30
0
0
VERTEX
8
0
10
72.0736202487676
20
110.037942223009
30
0
0
VERTEX
8
0
10
72.8926386606854
20
109.847851672881
30
0
0
VERTEX
8
0
10
73.7116570726032
20
109.654493620561
30
0
0
VERTEX
8
0
10
74.530675484521
20
109.463803479188
30
0
0
VERTEX
8
0
10
75.3496938964388
20
109.282699152538
30
0
0
VERTEX
8
0
10
76.1687123083566
20
109.098718633273
30
0
0
VERTEX
8
0
10
76.9877307202744
20
108.9176734437
30
0
0
VERTEX
8
0
10
77.8067491321923
20
108.735272803053
30
0
0
VERTEX
8
0
10
78.6257675441101
20
108.554613140417
30
0
0
VERTEX
8
0
10
79.4447859560279
20
108.373300990851
30
0
0
VERTEX
8
0
10
80.2638043679457
20
108.181114217024
30
0
0
VERTEX
8
0
10
81.0828227798635
20
107.991711639408
30
0
0
VERTEX
8
0
10
81.9018411917813
20
107.802899500196
30
0
0
VERTEX
8
0
10
82.7208596036991
20
107.597970193704
30
0
0
VERTEX
8
0
10
83.5398780156169
20
107.389397775556
30
0
0
VERTEX
8
0
10
84.3588964275347
20
107.180496367272
30
0
0
VERTEX
8
0
10
85.1779148394526
20
107.000173242872
30
0
0
VERTEX
8
0
10
85.9969332513704
20
106.826290742219
30
0
0
VERTEX
8
0
10
86.8159516632882
20
106.650748372971
30
0
0
VERTEX
8
0
10
87.634970075206
20
106.482264272048
30
0
0
VERTEX
8
0
10
88.4539884871238
20
106.319222857635
30
0
0
VERTEX
8
0
10
89.2730068990416
20
106.155571683164
30
0
0
VERTEX
8
0
10
90.0920253109594
20
105.989811681943
30
0
0
VERTEX
8
0
10
90.9110437228772
20
105.848857585551
30
0
0
VERTEX
8
0
10
91.730062134795
20
105.701947866569
30
0
0
VERTEX
8
0
10
92.5490805467129
20
105.555012665098
30
0
0
VERTEX
8
0
10
93.3680989586307
20
105.4283362062
30
0
0
VERTEX
8
0
10
94.1871173705485
20
105.302150170084
30
0
0
VERTEX
8
0
10
95.0061357824663
20
105.177145435983
30
0
0
VERTEX
8
0
10
95.8251541943841
20
105.059501279972
30
0
0
VERTEX
8
0
10
96.6441726063019
20
104.941134726627
30
0
0
VERTEX
8
0
10
97.4631910182197
20
104.823048527114
30
0
0
VERTEX
8
0
10
98.2822094301375
20
104.715641204029
30
0
0
VERTEX
8
0
10
99.1012278420554
20
104.612043187084
30
0
0
VERTEX
8
0
10
99.9202462539732
20
104.507878329091
30
0
0
VERTEX
8
0
10
100.739264665891
20
104.403686019225
30
0
0
VERTEX
8
0
10
101.558283077809
20
104.326989807411
30
0
0
VERTEX
8
0
10
102.377301489727
20
104.243707808747
30
0
0
VERTEX
8
0
10
103.196319901644
20
104.160503242315
30
0
0
VERTEX
8
0
10
104.015338313562
20
104.068677887232
30
0
0
VERTEX
8
0
10
104.83435672548
20
103.980967140375
30
0
0
VERTEX
8
0
10
105.653375137398
20
103.893685425629
30
0
0
VERTEX
8
0
10
106.472393549316
20
103.79962345726
30
0
0
VERTEX
8
0
10
107.291411961233
20
103.707537941931
30
0
0
VERTEX
8
0
10
108.110430373151
20
103.616015511239
30
0
0
VERTEX
8
0
10
108.929448785069
20
103.479907485735
30
0
0
VERTEX
8
0
10
109.748467196987
20
103.334783948145
30
0
0
VERTEX
8
0
10
110.567485608905
20
103.18903837258
30
0
0
VERTEX
8
0
10
111.386504020823
20
103.012809948856
30
0
0
VERTEX
8
0
10
112.20552243274
20
102.818708716123
30
0
0
VERTEX
8
0
10
113.024540844658
20
102.622817649685
30
0
0
VERTEX
8
0
10
113.843559256576
20
102.426419588484
30
0
0
VERTEX
8
0
10
114.662577668494
20
102.234636209649
30
0
0
VERTEX
8
0
10
115.481596080412
20
102.04268322799
30
0
0
VERTEX
8
0
10
116.300614492329
20
101.849891367379
30
0
0
VERTEX
8
0
10
117.119632904247
20
101.694449268188
30
0
0
VERTEX
8
0
10
117.938651316165
20
101.534783639668
30
0
0
VERTEX
8
0
10
118.757669728083
20
101.373839675988
30
0
0
VERTEX
8
0
10
119.576688140001
20
101.076295069197
30
0
0
VERTEX
8
0
10
120.395706551918
20
100.771635614315
30
0
0
VERTEX
8
0
10
121.214724963836
20
100.46946802075
30
0
0
VERTEX
8
0
10
122.033743375754
20
99.81780400892
30
0
0
VERTEX
8
0
10
122.852761787672
20
99.4654056387573
30
0
0
VERTEX
8
0
10
123.67178019959
20
99.1924754709311
30
0
0
VERTEX
8
0
10
124.490798611508
20
98.9231970733576
30
0
0
VERTEX
8
0
10
125.309817023425
20
98.8077310620122
30
0
0
VERTEX
8
0
10
126.128835435343
20
98.6675552949691
30
0
0
VERTEX
8
0
10
126.947853847261
20
98.5254923104498
30
0
0
VERTEX
8
0
10
127.766872259179
20
98.3887142984494
30
0
0
VERTEX
8
0
10
128.585890671097
20
98.2518446645413
30
0
0
VERTEX
8
0
10
129.404909083014
20
98.1144847605425
30
0
0
VERTEX
8
0
10
130.223927494932
20
97.9797354249888
30
0
0
VERTEX
8
0
10
131.04294590685
20
97.8459214145563
30
0
0
VERTEX
8
0
10
131.861964318768
20
97.7129062068469
30
0
0
VERTEX
8
0
10
132.680982730686
20
97.5848363273283
30
0
0
VERTEX
8
0
10
133.500001142603
20
97.4608938789782
30
0
0
VERTEX
8
0
10
134.319019554521
20
97.3361551201802
30
0
0
VERTEX
8
0
10
135.138037966439
20
97.2095321204892
30
0
0
VERTEX
8
0
10
135.957056378357
20
97.082666532642
30
0
0
VERTEX
8
0
10
136.776074790275
20
96.9559722126526
30
0
0
VERTEX
8
0
10
137.595093202193
20
96.8294386736564
30
0
0
VERTEX
8
0
10
138.41411161411
20
96.7095272564741
30
0
0
VERTEX
8
0
10
139.233130026028
20
96.5892831066428
30
0
0
VERTEX
8
0
10
140.052148437946
20
96.4698902556119
30
0
0
VERTEX
8
0
10
140.871166849864
20
96.3538153487132
30
0
0
VERTEX
8
0
10
141.690185261782
20
96.2381151613988
30
0
0
VERTEX
8
0
10
142.5092036737
20
96.121941935685
30
0
0
VERTEX
8
0
10
143.328222085617
20
96.0095349717428
30
0
0
VERTEX
8
0
10
144.147240497535
20
95.8998802658367
30
0
0
VERTEX
8
0
10
144.966258909453
20
95.791119533246
30
0
0
VERTEX
8
0
10
145.785277321371
20
95.6852932421907
30
0
0
VERTEX
8
0
10
146.604295733289
20
95.5962220780624
30
0
0
VERTEX
8
0
10
147.423314145207
20
95.5019098740886
30
0
0
VERTEX
8
0
10
148.242332557124
20
95.4053389203864
30
0
0
VERTEX
8
0
10
149.061350969042
20
95.3033703113573
30
0
0
VERTEX
8
0
10
149.88036938096
20
95.2023266247401
30
0
0
VERTEX
8
0
10
150.699387792878
20
95.1030595123528
30
0
0
VERTEX
8
0
10
151.518406204796
20
94.9817282068587
30
0
0
VERTEX
8
0
10
152.337424616713
20
94.8578859505947
30
0
0
VERTEX
8
0
10
153.156443028631
20
94.7354186735236
30
0
0
VERTEX
8
0
10
153.975461440549
20
94.6255069580495
30
0
0
VERTEX
8
0
10
154.794479852467
20
94.5207615179051
30
0
0
SEQEND
8
0
0
POLYLINE
8
0
62
2
70
0
10
0
20
0
30
0
0
VERTEX
8
0
10
2.45705523575344
20
98.5454727011196
30
0
0
VERTEX
8
0
10
3.27607364767126
20
91.3462502983147
30
0
0
VERTEX
8
0
10
4.09509205958907
20
82.3197917059245
30
0
0
VERTEX
8
0
10
4.91411047150689
20
75.3626982374924
30
0
0
VERTEX
8
0
10
5.7331288834247
20
71.8554761570775
30
0
0
VERTEX
8
0
10
6.55214729534252
20
67.6996096779729
30
0
0
VERTEX
8
0
10
7.37116570726033
20
63.8737645855731
30
0
0
VERTEX
8
0
10
8.19018411917815
20
60.660871095423
30
0
0
VERTEX
8
0
10
9.00920253109596
20
57.8386108805385
30
0
0
VERTEX
8
0
10
9.82822094301378
20
55.4294329624877
30
0
0
VERTEX
8
0
10
10.6472393549316
20
53.3644936809602
30
0
0
VERTEX
8
0
10
11.4662577668494
20
51.434966302139
30
0
0
VERTEX
8
0
10
12.2852761787672
20
49.847925026282
30
0
0
VERTEX
8
0
10
13.104294590685
20
48.2983948123243
30
0
0
VERTEX
8
0
10
13.9233130026029
20
46.8896851585576
30
0
0
VERTEX
8
0
10
14.7423314145207
20
45.5691905789634
30
0
0
VERTEX
8
0
10
15.5613498264385
20
44.4527540579611
30
0
0
VERTEX
8
0
10
16.3803682383563
20
43.3256244005906
30
0
0
VERTEX
8
0
10
17.1993866502741
20
42.3560677394825
30
0
0
VERTEX
8
0
10
18.0184050621919
20
41.3809665063328
30
0
0
VERTEX
8
0
10
18.8374234741097
20
40.4755921539747
30
0
0
VERTEX
8
0
10
19.6564418860276
20
39.637700037251
30
0
0
VERTEX
8
0
10
20.4754602979454
20
38.836646748492
30
0
0
VERTEX
8
0
10
21.2944787098632
20
38.0822153883798
30
0
0
VERTEX
8
0
10
22.113497121781
20
37.3874898025773
30
0
0
VERTEX
8
0
10
22.9325155336988
20
36.7133600587997
30
0
0
VERTEX
8
0
10
23.7515339456166
20
36.073753993176
30
0
0
VERTEX
8
0
10
24.5705523575345
20
35.5028384149307
30
0
0
VERTEX
8
0
10
25.3895707694523
20
34.9251288960563
30
0
0
VERTEX
8
0
10
26.2085891813701
20
34.3746941788049
30
0
0
VERTEX
8
0
10
27.0276075932879
20
33.8719047265796
30
0
0
VERTEX
8
0
10
27.8466260052057
20
33.371305291308
30
0
0
VERTEX
8
0
10
28.6656444171235
20
32.8909604581879
30
0
0
VERTEX
8
0
10
29.4846628290413
20
32.4427349008913
30
0
0
VERTEX
8
0
10
30.3036812409592
20
32.0067277103833
30
0
0
VERTEX
8
0
10
31.122699652877
20
31.5827988535216
30
0
0
VERTEX
8
0
10
31.9417180647948
20
31.1789992590867
30
0
0
VERTEX
8
0
10
32.7607364767126
20
30.7943524670006
30
0
0
VERTEX
8
0
10
33.5797548886304
20
30.416260138495
30
0
0
VERTEX
8
0
10
34.3987733005482
20
30.0519388484055
30
0
0
VERTEX
8
0
10
35.217791712466
20
29.7231094727622
30
0
0
VERTEX
8
0
10
36.0368101243838
20
29.3839653486164
30
0
0
VERTEX
8
0
10
36.8558285363017
20
29.0559317480598
30
0
0
VERTEX
8
0
10
37.6748469482195
20
28.7519611765469
30
0
0
VERTEX
8
0
10
38.4938653601373
20
28.4453473882631
30
0
0
VERTEX
8
0
10
39.3128837720551
20
28.1476454489414
30
0
0
VERTEX
8
0
10
40.1319021839729
20
27.8648527518386
30
0
0
VERTEX
8
0
10
40.9509205958907
20
27.5853821990375
30
0
0
VERTEX
8
0
10
41.7699390078085
20
27.3136580649145
30
0
0
VERTEX
8
0
10
42.5889574197263
20
27.0524336801152
30
0
0
VERTEX
8
0
10
43.4079758316442
20
26.7992117580425
30
0
0
VERTEX
8
0
10
44.226994243562
20
26.5496905123071
30
0
0
VERTEX
8
0
10
45.0460126554798
20
26.3077328823004
30
0
0
VERTEX
8
0
10
45.8650310673976
20
26.0842775254045
30
0
0
VERTEX
8
0
10
46.6840494793154
20
25.8548468475193
30
0
0
VERTEX
8
0
10
47.5030678912332
20
25.6310609779201
30
0
0
VERTEX
8
0
10
48.322086303151
20
25.415782497329
30
0
0
VERTEX
8
0
10
49.1411047150688
20
25.2029413269316
30
0
0
VERTEX
8
0
10
49.9601231269867
20
24.9956588515697
30
0
0
VERTEX
8
0
10
50.7791415389045
20
24.8013786680071
30
0
0
VERTEX
8
0
10
51.5981599508223
20
24.6068679039771
30
0
0
VERTEX
8
0
10
52.4171783627401
20
24.4139206868091
30
0
0
VERTEX
8
0
10
53.2361967746579
20
24.2276543874893
30
0
0
VERTEX
8
0
10
54.0552151865757
20
24.043912922239
30
0
0
VERTEX
8
0
10
54.8742335984935
20
23.8637578380531
30
0
0
VERTEX
8
0
10
55.6932520104113
20
23.6881920241215
30
0
0
VERTEX
8
0
10
56.5122704223291
20
23.5176647250037
30
0
0
VERTEX
8
0
10
57.331288834247
20
23.3488380754286
30
0
0
VERTEX
8
0
10
58.1503072461648
20
23.1842956668294
30
0
0
VERTEX
8
0
10
58.9693256580826
20
23.0359801315419
30
0
0
VERTEX
8
0
10
59.7883440700004
20
22.8833862588202
30
0
0
VERTEX
8
0
10
60.6073624819182
20
22.730347480967
30
0
0
VERTEX
8
0
10
61.426380893836
20
22.578138189834
30
0
0
VERTEX
8
0
10
62.2453993057538
20
22.4289436132161
30
0
0
VERTEX
8
0
10
63.0644177176716
20
22.2828321236676
30
0
0
VERTEX
8
0
10
63.8834361295894
20
22.1445973144575
30
0
0
VERTEX
8
0
10
64.7024545415073
20
22.0086246588852
30
0
0
VERTEX
8
0
10
65.5214729534251
20
21.8729696258477
30
0
0
VERTEX
8
0
10
66.3404913653429
20
21.7396526538561
30
0
0
VERTEX
8
0
10
67.1595097772607
20
21.6073619029028
30
0
0
VERTEX
8
0
10
67.9785281891785
20
21.4766416025084
30
0
0
VERTEX
8
0
10
68.7975466010963
20
21.3485792079222
30
0
0
VERTEX
8
0
10
69.6165650130141
20
21.2257736791179
30
0
0
VERTEX
8
0
10
70.4355834249319
20
21.1018846806754
30
0
0
VERTEX
8
0
10
71.2546018368498
20
20.9808178404901
30
0
0
VERTEX
8
0
10
72.0736202487676
20
20.8717119081105
30
0
0
VERTEX
8
0
10
72.8926386606854
20
20.7605929584213
30
0
0
VERTEX
8
0
10
73.7116570726032
20
20.6486835972856
30
0
0
VERTEX
8
0
10
74.530675484521
20
20.5349247999691
30
0
0
VERTEX
8
0
10
75.3496938964388
20
20.422755800792
30
0
0
VERTEX
8
0
10
76.1687123083566
20
20.3127525706672
30
0
0
VERTEX
8
0
10
76.9877307202744
20
20.2073187498613
30
0
0
VERTEX
8
0
10
77.8067491321923
20
20.1060155991769
30
0
0
VERTEX
8
0
10
78.6257675441101
20
20.0049206183104
30
0
0
VERTEX
8
0
10
79.4447859560279
20
19.9055174821625
30
0
0
VERTEX
8
0
10
80.2638043679457
20
19.807905801068
30
0
0
VERTEX
8
0
10
81.0828227798635
20
19.7103596359617
30
0
0
VERTEX
8
0
10
81.9018411917813
20
19.6125278085391
30
0
0
VERTEX
8
0
10
82.7208596036991
20
19.5151379187087
30
0
0
VERTEX
8
0
10
83.5398780156169
20
19.4191571645435
30
0
0
VERTEX
8
0
10
84.3588964275347
20
19.3246514178798
30
0
0
VERTEX
8
0
10
85.1779148394526
20
19.231533135347
30
0
0
VERTEX
8
0
10
85.9969332513704
20
19.1395141233228
30
0
0
VERTEX
8
0
10
86.8159516632882
20
19.0494413666496
30
0
0
VERTEX
8
0
10
87.634970075206
20
18.9648231128121
30
0
0
VERTEX
8
0
10
88.4539884871238
20
18.8824981473654
30
0
0
VERTEX
8
0
10
89.2730068990416
20
18.7998865456777
30
0
0
VERTEX
8
0
10
90.0920253109594
20
18.7155878912221
30
0
0
VERTEX
8
0
10
90.9110437228772
20
18.6310587158411
30
0
0
VERTEX
8
0
10
91.730062134795
20
18.5475904732612
30
0
0
VERTEX
8
0
10
92.5490805467129
20
18.4652870388962
30
0
0
VERTEX
8
0
10
93.3680989586307
20
18.3840665909692
30
0
0
VERTEX
8
0
10
94.1871173705485
20
18.3038488961457
30
0
0
VERTEX
8
0
10
95.0061357824663
20
18.2250991080882
30
0
0
VERTEX
8
0
10
95.8251541943841
20
18.1491785585122
30
0
0
VERTEX
8
0
10
96.6441726063019
20
18.0724764071966
30
0
0
VERTEX
8
0
10
97.4631910182197
20
17.996922155939
30
0
0
VERTEX
8
0
10
98.2822094301375
20
17.9262643618161
30
0
0
VERTEX
8
0
10
99.1012278420554
20
17.8564522664548
30
0
0
VERTEX
8
0
10
99.9202462539732
20
17.7863498430462
30
0
0
VERTEX
8
0
10
100.739264665891
20
17.7142110959439
30
0
0
VERTEX
8
0
10
101.558283077809
20
17.6424008911732
30
0
0
VERTEX
8
0
10
102.377301489727
20
17.5715632742686
30
0
0
VERTEX
8
0
10
103.196319901644
20
17.5023722340816
30
0
0
VERTEX
8
0
10
104.015338313562
20
17.4355155744462
30
0
0
VERTEX
8
0
10
104.83435672548
20
17.368981948118
30
0
0
VERTEX
8
0
10
105.653375137398
20
17.3033217277164
30
0
0
VERTEX
8
0
10
106.472393549316
20
17.2410131300757
30
0
0
VERTEX
8
0
10
107.291411961233
20
17.1781781739424
30
0
0
VERTEX
8
0
10
108.110430373151
20
17.1148682190729
30
0
0
VERTEX
8
0
10
108.929448785069
20
17.0505002203335
30
0
0
VERTEX
8
0
10
109.748467196987
20
16.9866076155298
30
0
0
VERTEX
8
0
10
110.567485608905
20
16.9234937835331
30
0
0
VERTEX
8
0
10
111.386504020823
20
16.8610859941019
30
0
0
VERTEX
8
0
10
112.20552243274
20
16.799319507898
30
0
0
VERTEX
8
0
10
113.024540844658
20
16.7381178002504
30
0
0
VERTEX
8
0
10
113.843559256576
20
16.678161543905
30
0
0
VERTEX
8
0
10
114.662577668494
20
16.6213292034282
30
0
0
VERTEX
8
0
10
115.481596080412
20
16.5647965591471
30
0
0
VERTEX
8
0
10
116.300614492329
20
16.5100185465589
30
0
0
VERTEX
8
0
10
117.119632904247
20
16.4622969889135
30
0
0
VERTEX
8
0
10
117.938651316165
20
16.4137711765579
30
0
0
VERTEX
8
0
10
118.757669728083
20
16.363609440405
30
0
0
VERTEX
8
0
10
119.576688140001
20
16.3110307053667
30
0
0
VERTEX
8
0
10
120.395706551918
20
16.2581806746578
30
0
0
VERTEX
8
0
10
121.214724963836
20
16.2048335694557
30
0
0
VERTEX
8
0
10
122.033743375754
20
16.1502490448378
30
0
0
VERTEX
8
0
10
122.852761787672
20
16.0954587518237
30
0
0
VERTEX
8
0
10
123.67178019959
20
16.0428530817839
30
0
0
VERTEX
8
0
10
124.490798611508
20
15.9979555096091
30
0
0
VERTEX
8
0
10
125.309817023425
20
15.9621541304736
30
0
0
VERTEX
8
0
10
126.128835435343
20
15.9268569197375
30
0
0
VERTEX
8
0
10
126.947853847261
20
15.8849162680217
30
0
0
VERTEX
8
0
10
127.766872259179
20
15.8393978479703
30
0
0
VERTEX
8
0
10
128.585890671097
20
15.7933907365917
30
0
0
VERTEX
8
0
10
129.404909083014
20
15.7462102926997
30
0
0
VERTEX
8
0
10
130.223927494932
20
15.6965425329374
30
0
0
VERTEX
8
0
10
131.04294590685
20
15.6462165092551
30
0
0
VERTEX
8
0
10
131.861964318768
20
15.6005377742591
30
0
0
VERTEX
8
0
10
132.680982730686
20
15.5667364010012
30
0
0
VERTEX
8
0
10
133.500001142603
20
15.5370177864198
30
0
0
VERTEX
8
0
10
134.319019554521
20
15.5025293893346
30
0
0
VERTEX
8
0
10
135.138037966439
20
15.4574372627623
30
0
0
VERTEX
8
0
10
135.957056378357
20
15.4099505907352
30
0
0
VERTEX
8
0
10
136.776074790275
20
15.3631416033355
30
0
0
VERTEX
8
0
10
137.595093202193
20
15.3168903668796
30
0
0
VERTEX
8
0
10
138.41411161411
20
15.2708680344072
30
0
0
VERTEX
8
0
10
139.233130026028
20
15.2251032244125
30
0
0
VERTEX
8
0
10
140.052148437946
20
15.1840045002288
30
0
0
VERTEX
8
0
10
140.871166849864
20
15.1530619300284
30
0
0
VERTEX
8
0
10
141.690185261782
20
15.1224252312886
30
0
0
VERTEX
8
0
10
142.5092036737
20
15.0874116835772
30
0
0
VERTEX
8
0
10
143.328222085617
20
15.0447737881271
30
0
0
VERTEX
8
0
10
144.147240497535
20
15.0002164505241
30
0
0
VERTEX
8
0
10
144.966258909453
20
14.960922135172
30
0
0
VERTEX
8
0
10
145.785277321371
20
14.9378450755437
30
0
0
VERTEX
8
0
10
146.604295733289
20
14.9189957128394
30
0
0
VERTEX
8
0
10
147.423314145207
20
14.8951333587106
30
0
0
VERTEX
8
0
10
148.242332557124
20
14.856871084526
30
0
0
VERTEX
8
0
10
149.061350969042
20
14.8136259500973
30
0
0
VERTEX
8
0
10
149.88036938096
20
14.7714592284741
30
0
0
VERTEX
8
0
10
150.699387792878
20
14.7399255579119
30
0
0
VERTEX
8
0
10
151.518406204796
20
14.7308422575911
30
0
0
VERTEX
8
0
10
152.337424616713
20
14.7233240154992
30
0
0
VERTEX
8
0
10
153.156443028631
20
14.7122502005567
30
0
0
VERTEX
8
0
10
153.975461440549
20
14.6785936011685
30
0
0
VERTEX
8
0
10
154.794479852467
20
14.638143360012
30
0
0
SEQEND
8
0
0
POLYLINE
8
0
62
4
70
0
10
0
20
0
30
0
0
VERTEX
8
0
10
2.45705523575344
20
99.7256217355496
30
0
0
VERTEX
8
0
10
3.27607364767126
20
92.7918446519304
30
0
0
VERTEX
8
0
10
4.09509205958907
20
84.0562512488775
30
0
0
VERTEX
8
0
10
4.91411047150689
20
77.3419513745441
30
0
0
VERTEX
8
0
10
5.7331288834247
20
74.0030701093986
30
0
0
VERTEX
8
0
10
6.55214729534252
20
70.0254789510244
30
0
0
VERTEX
8
0
10
7.37116570726033
20
66.3686920898119
30
0
0
VERTEX
8
0
10
8.19018411917815
20
63.3084016823134
30
0
0
VERTEX
8
0
10
9.00920253109596
20
60.6297197317075
30
0
0
VERTEX
8
0
10
9.82822094301378
20
58.3538357725605
30
0
0
VERTEX
8
0
10
10.6472393549316
20
56.41195780208
30
0
0
VERTEX
8
0
10
11.4662577668494
20
54.6036735701122
30
0
0
VERTEX
8
0
10
12.2852761787672
20
53.1239468322845
30
0
0
VERTEX
8
0
10
13.104294590685
20
51.6839372367769
30
0
0
VERTEX
8
0
10
13.9233130026029
20
50.3794786051576
30
0
0
VERTEX
8
0
10
14.7423314145207
20
49.1608435941829
30
0
0
VERTEX
8
0
10
15.5613498264385
20
48.1367321349346
30
0
0
VERTEX
8
0
10
16.3803682383563
20
47.1050736083572
30
0
0
VERTEX
8
0
10
17.1993866502741
20
46.2217020785235
30
0
0
VERTEX
8
0
10
18.0184050621919
20
45.3356227863582
30
0
0
VERTEX
8
0
10
18.8374234741097
20
44.5159593779749
30
0
0
VERTEX
8
0
10
19.6564418860276
20
43.7602842952705
30
0
0
VERTEX
8
0
10
20.4754602979454
20
43.0403684937564
30
0
0
VERTEX
8
0
10
21.2944787098632
20
42.3649388750029
30
0
0
VERTEX
8
0
10
22.113497121781
20
41.7455228845462
30
0
0
VERTEX
8
0
10
22.9325155336988
20
41.1464695697371
30
0
0
VERTEX
8
0
10
23.7515339456166
20
40.580337115012
30
0
0
VERTEX
8
0
10
24.5705523575345
20
40.0774686138703
30
0
0
VERTEX
8
0
10
25.3895707694523
20
39.5696652886507
30
0
0
VERTEX
8
0
10
26.2085891813701
20
39.087740900104
30
0
0
VERTEX
8
0
10
27.0276075932879
20
38.6495387088833
30
0
0
VERTEX
8
0
10
27.8466260052057
20
38.2143863455735
30
0
0
VERTEX
8
0
10
28.6656444171235
20
37.7982130577283
30
0
0
VERTEX
8
0
10
29.4846628290413
20
37.4117028128008
30
0
0
VERTEX
8
0
10
30.3036812409592
20
37.0368388290148
30
0
0
VERTEX
8
0
10
31.122699652877
20
36.6735755226201
30
0
0
VERTEX
8
0
10
31.9417180647948
20
36.3287689782965
30
0
0
VERTEX
8
0
10
32.7607364767126
20
36.0016610013796
30
0
0
VERTEX
8
0
10
33.5797548886304
20
35.681091026152
30
0
0
VERTEX
8
0
10
34.3987733005482
20
35.3730590970952
30
0
0
VERTEX
8
0
10
35.217791712466
20
35.0968114091383
30
0
0
VERTEX
8
0
10
36.0368101243838
20
34.8122803521416
30
0
0
VERTEX
8
0
10
36.8558285363017
20
34.5380104810224
30
0
0
VERTEX
8
0
10
37.6748469482195
20
34.2848170169265
30
0
0
VERTEX
8
0
10
38.4938653601373
20
34.0301960471639
30
0
0
VERTEX
8
0
10
39.3128837720551
20
33.7837393518235
30
0
0
VERTEX
8
0
10
40.1319021839729
20
33.5504189861514
30
0
0
VERTEX
8
0
10
40.9509205958907
20
33.3206251542771
30
0
0
VERTEX
8
0
10
41.7699390078085
20
33.0978932604722
30
0
0
VERTEX
8
0
10
42.5889574197263
20
32.8843746567219
30
0
0
VERTEX
8
0
10
43.4079758316442
20
32.6783691280061
30
0
0
VERTEX
8
0
10
44.226994243562
20
32.4758699801962
30
0
0
VERTEX
8
0
10
45.0460126554798
20
32.2801943680184
30
0
0
VERTEX
8
0
10
45.8650310673976
20
32.1001756823237
30
0
0
VERTEX
8
0
10
46.6840494793154
20
31.9158717574015
30
0
0
VERTEX
8
0
10
47.5030678912332
20
31.7366192052792
30
0
0
VERTEX
8
0
10
48.322086303151
20
31.5647717022359
30
0
0
VERTEX
8
0
10
49.1411047150688
20
31.3953831373735
30
0
0
VERTEX
8
0
10
49.9601231269867
20
31.230973950627
30
0
0
VERTEX
8
0
10
50.7791415389045
20
31.0774889532088
30
0
0
VERTEX
8
0
10
51.5981599508223
20
30.924224217214
30
0
0
VERTEX
8
0
10
52.4171783627401
20
30.7726415276174
30
0
0
VERTEX
8
0
10
53.2361967746579
20
30.6267869568426
30
0
0
VERTEX
8
0
10
54.0552151865757
20
30.4833388703362
30
0
0
VERTEX
8
0
10
54.8742335984935
20
30.3431324154915
30
0
0
VERTEX
8
0
10
55.6932520104113
20
30.2069515267287
30
0
0
VERTEX
8
0
10
56.5122704223291
20
30.0751295553054
30
0
0
VERTEX
8
0
10
57.331288834247
20
29.9450269953465
30
0
0
VERTEX
8
0
10
58.1503072461648
20
29.8186973961018
30
0
0
VERTEX
8
0
10
58.9693256580826
20
29.7053744903935
30
0
0
VERTEX
8
0
10
59.7883440700004
20
29.5889358183347
30
0
0
VERTEX
8
0
10
60.6073624819182
20
29.4726063348758
30
0
0
VERTEX
8
0
10
61.426380893836
20
29.3571200578664
30
0
0
VERTEX
8
0
10
62.2453993057538
20
29.2442679679563
30
0
0
VERTEX
8
0
10
63.0644177176716
20
29.1341056855732
30
0
0
VERTEX
8
0
10
63.8834361295894
20
29.030402809311
30
0
0
VERTEX
8
0
10
64.7024545415073
20
28.9285114684469
30
0
0
VERTEX
8
0
10
65.5214729534251
20
28.8271582020989
30
0
0
VERTEX
8
0
10
66.3404913653429
20
28.7279687639619
30
0
0
VERTEX
8
0
10
67.1595097772607
20
28.6297295614901
30
0
0
VERTEX
8
0
10
67.9785281891785
20
28.5329475654147
30
0
0
VERTEX
8
0
10
68.7975466010963
20
28.4384364642716
30
0
0
VERTEX
8
0
10
69.6165650130141
20
28.3482094070477
30
0
0
VERTEX
8
0
10
70.4355834249319
20
28.2573063082588
30
0
0
VERTEX
8
0
10
71.2546018368498
20
28.168701564051
30
0
0
VERTEX
8
0
10
72.0736202487676
20
28.0896855290438
30
0
0
VERTEX
8
0
10
72.8926386606854
20
28.0090041573678
30
0
0
VERTEX
8
0
10
73.7116570726032
20
27.9280173945793
30
0
0
VERTEX
8
0
10
74.530675484521
20
27.8458355103478
30
0
0
VERTEX
8
0
10
75.3496938964388
20
27.7650298661557
30
0
0
VERTEX
8
0
10
76.1687123083566
20
27.6860363376927
30
0
0
VERTEX
8
0
10
76.9877307202744
20
27.6105459944977
30
0
0
VERTEX
8
0
10
77.8067491321923
20
27.5385316786392
30
0
0
VERTEX
8
0
10
78.6257675441101
20
27.4666071612375
30
0
0
VERTEX
8
0
10
79.4447859560279
20
27.3960230720384
30
0
0
VERTEX
8
0
10
80.2638043679457
20
27.3272005190005
30
0
0
VERTEX
8
0
10
81.0828227798635
20
27.2584863049215
30
0
0
VERTEX
8
0
10
81.9018411917813
20
27.189565791656
30
0
0
VERTEX
8
0
10
82.7208596036991
20
27.1211916015455
30
0
0
VERTEX
8
0
10
83.5398780156169
20
27.0539945991955
30
0
0
VERTEX
8
0
10
84.3588964275347
20
26.9880237132277
30
0
0
VERTEX
8
0
10
85.1779148394526
20
26.9232156245458
30
0
0
VERTEX
8
0
10
85.9969332513704
20
26.8593643760877
30
0
0
VERTEX
8
0
10
86.8159516632882
20
26.7970820176551
30
0
0
VERTEX
8
0
10
87.634970075206
20
26.738608125281
30
0
0
VERTEX
8
0
10
88.4539884871238
20
26.6823918714861
30
0
0
VERTEX
8
0
10
89.2730068990416
20
26.6260079215362
30
0
0
VERTEX
8
0
10
90.0920253109594
20
26.5683158863636
30
0
0
VERTEX
8
0
10
90.9110437228772
20
26.5106715331245
30
0
0
VERTEX
8
0
10
91.730062134795
20
26.453906041162
30
0
0
VERTEX
8
0
10
92.5490805467129
20
26.3980952391039
30
0
0
VERTEX
8
0
10
93.3680989586307
20
26.3431820506502
30
0
0
VERTEX
8
0
10
94.1871173705485
20
26.2891108568255
30
0
0
VERTEX
8
0
10
95.0061357824663
20
26.2362090961145
30
0
0
VERTEX
8
0
10
95.8251541943841
20
26.1854227114915
30
0
0
VERTEX
8
0
10
96.6441726063019
20
26.134222908643
30
0
0
VERTEX
8
0
10
97.4631910182197
20
26.0839855934715
30
0
0
VERTEX
8
0
10
98.2822094301375
20
26.0372334605291
30
0
0
VERTEX
8
0
10
99.1012278420554
20
25.9910557796504
30
0
0
VERTEX
8
0
10
99.9202462539732
20
25.9450830715115
30
0
0
VERTEX
8
0
10
100.739264665891
20
25.8976501288365
30
0
0
VERTEX
8
0
10
101.558283077809
20
25.8505525952169
30
0
0
VERTEX
8
0
10
102.377301489727
20
25.8042402216862
30
0
0
VERTEX
8
0
10
103.196319901644
20
25.7592044724592
30
0
0
VERTEX
8
0
10
104.015338313562
20
25.7158332781012
30
0
0
VERTEX
8
0
10
104.83435672548
20
25.67277053523
30
0
0
VERTEX
8
0
10
105.653375137398
20
25.6305365417828
30
0
0
VERTEX
8
0
10
106.472393549316
20
25.59081642888
30
0
0
VERTEX
8
0
10
107.291411961233
20
25.5504264816366
30
0
0
VERTEX
8
0
10
108.110430373151
20
25.5100154590071
30
0
0
VERTEX
8
0
10
108.929448785069
20
25.4689805769987
30
0
0
VERTEX
8
0
10
109.748467196987
20
25.4283649905918
30
0
0
VERTEX
8
0
10
110.567485608905
20
25.3883780254818
30
0
0
VERTEX
8
0
10
111.386504020823
20
25.3489738231359
30
0
0
VERTEX
8
0
10
112.20552243274
20
25.3101121594808
30
0
0
VERTEX
8
0
10
113.024540844658
20
25.2717463868456
30
0
0
VERTEX
8
0
10
113.843559256576
20
25.2343264913301
30
0
0
VERTEX
8
0
10
114.662577668494
20
25.1992556464124
30
0
0
VERTEX
8
0
10
115.481596080412
20
25.1642533078693
30
0
0
VERTEX
8
0
10
116.300614492329
20
25.1304218626163
30
0
0
VERTEX
8
0
10
117.119632904247
20
25.1020331703776
30
0
0
VERTEX
8
0
10
117.938651316165
20
25.0725954411183
30
0
0
VERTEX
8
0
10
118.757669728083
20
25.0421396588157
30
0
0
VERTEX
8
0
10
119.576688140001
20
25.0105145236175
30
0
0
VERTEX
8
0
10
120.395706551918
20
24.9787283195425
30
0
0
VERTEX
8
0
10
121.214724963836
20
24.9464412706619
30
0
0
VERTEX
8
0
10
122.033743375754
20
24.9135508337298
30
0
0
VERTEX
8
0
10
122.852761787672
20
24.8806295318791
30
0
0
VERTEX
8
0
10
123.67178019959
20
24.8492584398142
30
0
0
VERTEX
8
0
10
124.490798611508
20
24.8223867881917
30
0
0
VERTEX
8
0
10
125.309817023425
20
24.802888708144
30
0
0
VERTEX
8
0
10
126.128835435343
20
24.7837701602831
30
0
0
VERTEX
8
0
10
126.947853847261
20
24.7588781761537
30
0
0
VERTEX
8
0
10
127.766872259179
20
24.7323805384324
30
0
0
VERTEX
8
0
10
128.585890671097
20
24.7059015026868
30
0
0
VERTEX
8
0
10
129.404909083014
20
24.6783324402082
30
0
0
VERTEX
8
0
10
130.223927494932
20
24.6493506426276
30
0
0
VERTEX
8
0
10
131.04294590685
20
24.6200178349313
30
0
0
VERTEX
8
0
10
131.861964318768
20
24.5937610091223
30
0
0
VERTEX
8
0
10
132.680982730686
20
24.5742078332419
30
0
0
VERTEX
8
0
10
133.500001142603
20
24.5590918265695
30
0
0
VERTEX
8
0
10
134.319019554521
20
24.5406410335756
30
0
0
VERTEX
8
0
10
135.138037966439
20
24.5145300583807
30
0
0
VERTEX
8
0
10
135.957056378357
20
24.4872563270955
30
0
0
VERTEX
8
0
10
136.776074790275
20
24.4604430498988
30
0
0
VERTEX
8
0
10
137.595093202193
20
24.4340298085003
30
0
0
VERTEX
8
0
10
138.41411161411
20
24.407822094054
30
0
0
VERTEX
8
0
10
139.233130026028
20
24.3818551542095
30
0
0
VERTEX
8
0
10
140.052148437946
20
24.35907011449
30
0
0
VERTEX
8
0
10
140.871166849864
20
24.3424596019897
30
0
0
VERTEX
8
0
10
141.690185261782
20
24.3259166149857
30
0
0
VERTEX
8
0
10
142.5092036737
20
24.3072782003201
30
0
0
VERTEX
8
0
10
143.328222085617
20
24.2835687546303
30
0
0
VERTEX
8
0
10
144.147240497535
20
24.2587148057219
30
0
0
VERTEX
8
0
10
144.966258909453
20
24.2372401735753
30
0
0
VERTEX
8
0
10
145.785277321371
20
24.227178637846
30
0
0
VERTEX
8
0
10
146.604295733289
20
24.2173250516231
30
0
0
VERTEX
8
0
10
147.423314145207
20
24.2055604460935
30
0
0
VERTEX
8
0
10
148.242332557124
20
24.1848113366523
30
0
0
VERTEX
8
0
10
149.061350969042
20
24.1609682730426
30
0
0
VERTEX
8
0
10
149.88036938096
20
24.1378412228125
30
0
0
VERTEX
8
0
10
150.699387792878
20
24.1215122273972
30
0
0
VERTEX
8
0
10
151.518406204796
20
24.1209485500964
30
0
0
VERTEX
8
0
10
152.337424616713
20
24.1148074986619
30
0
0
VERTEX
8
0
10
153.156443028631
20
24.113265352145
30
0
0
VERTEX
8
0
10
153.975461440549
20
24.0952831003447
30
0
0
VERTEX
8
0
10
154.794479852467
20
24.072999878918
30
0
0
SEQEND
8
0
0
POLYLINE
8
0
62
2
70
0
10
0
20
0
30
0
0
VERTEX
8
0
10
2.45705523575344
20
24.6929210094536
30
0
0
VERTEX
8
0
10
3.27607364767126
20
20.5582540220303
30
0
0
VERTEX
8
0
10
4.09509205958907
20
21.417384465362
30
0
0
VERTEX
8
0
10
4.91411047150689
20
28.1642518330292
30
0
0
VERTEX
8
0
10
5.7331288834247
20
36.2864964715832
30
0
0
VERTEX
8
0
10
6.55214729534252
20
34.9327200568196
30
0
0
VERTEX
8
0
10
7.37116570726033
20
36.8683786719329
30
0
0
VERTEX
8
0
10
8.19018411917815
20
40.9687153378481
30
0
0
VERTEX
8
0
10
9.00920253109596
20
45.8396037638641
30
0
0
VERTEX
8
0
10
9.82822094301378
20
46.4162478273882
30
0
0
VERTEX
8
0
10
10.6472393549316
20
48.4742862364302
30
0
0
VERTEX
8
0
10
11.4662577668494
20
51.3426186554891
30
0
0
VERTEX
8
0
10
12.2852761787672
20
54.7107681969124
30
0
0
VERTEX
8
0
10
13.104294590685
20
55.8094914782771
30
0
0
VERTEX
8
0
10
13.9233130026029
20
57.659486498392
30
0
0
VERTEX
8
0
10
14.7423314145207
20
59.8605757832802
30
0
0
VERTEX
8
0
10
15.5613498264385
20
62.3744814045256
30
0
0
VERTEX
8
0
10
16.3803682383563
20
63.5342257085371
30
0
0
VERTEX
8
0
10
17.1993866502741
20
65.1182691000535
30
0
0
VERTEX
8
0
10
18.0184050621919
20
66.8610295171473
30
0
0
VERTEX
8
0
10
18.8374234741097
20
68.8020419674092
30
0
0
VERTEX
8
0
10
19.6564418860276
20
69.8685329654163
30
0
0
VERTEX
8
0
10
20.4754602979454
20
71.1911756297799
30
0
0
VERTEX
8
0
10
21.2944787098632
20
72.5800919794369
30
0
0
VERTEX
8
0
10
22.113497121781
20
74.0967517414715
30
0
0
VERTEX
8
0
10
22.9325155336988
20
75.0172258651659
30
0
0
VERTEX
8
0
10
23.7515339456166
20
76.0988241311997
30
0
0
VERTEX
8
0
10
24.5705523575345
20
77.1989641117765
30
0
0
VERTEX
8
0
10
25.3895707694523
20
78.3823298440981
30
0
0
VERTEX
8
0
10
26.2085891813701
20
79.1431739289553
30
0
0
VERTEX
8
0
10
27.0276075932879
20
80.0080133448849
30
0
0
VERTEX
8
0
10
27.8466260052057
20
80.8661732467176
30
0
0
VERTEX
8
0
10
28.6656444171235
20
81.7788997090127
30
0
0
VERTEX
8
0
10
29.4846628290413
20
82.3835520759914
30
0
0
VERTEX
8
0
10
30.3036812409592
20
83.0565363515082
30
0
0
VERTEX
8
0
10
31.122699652877
20
83.7099516567034
30
0
0
VERTEX
8
0
10
31.9417180647948
20
84.3994098298596
30
0
0
VERTEX
8
0
10
32.7607364767126
20
84.8596280507083
30
0
0
VERTEX
8
0
10
33.5797548886304
20
85.3655922357151
30
0
0
VERTEX
8
0
10
34.3987733005482
20
85.8463642733994
30
0
0
VERTEX
8
0
10
35.217791712466
20
86.3515116433225
30
0
0
VERTEX
8
0
10
36.0368101243838
20
86.6839359706673
30
0
0
VERTEX
8
0
10
36.8558285363017
20
87.0481124749374
30
0
0
VERTEX
8
0
10
37.6748469482195
20
87.3861987330235
30
0
0
VERTEX
8
0
10
38.4938653601373
20
87.7420906970204
30
0
0
VERTEX
8
0
10
39.3128837720551
20
87.9676614007449
30
0
0
VERTEX
8
0
10
40.1319021839729
20
88.217394318634
30
0
0
VERTEX
8
0
10
40.9509205958907
20
88.4440164449955
30
0
0
VERTEX
8
0
10
41.7699390078085
20
88.6866595247188
30
0
0
VERTEX
8
0
10
42.5889574197263
20
88.8335033307981
30
0
0
VERTEX
8
0
10
43.4079758316442
20
89.0036379085984
30
0
0
VERTEX
8
0
10
44.226994243562
20
89.1595369909826
30
0
0
VERTEX
8
0
10
45.0460126554798
20
89.3381516934263
30
0
0
VERTEX
8
0
10
45.8650310673976
20
89.4582370438017
30
0
0
VERTEX
8
0
10
46.6840494793154
20
89.6198093201971
30
0
0
VERTEX
8
0
10
47.5030678912332
20
89.8093294667277
30
0
0
VERTEX
8
0
10
48.322086303151
20
90.1136402903926
30
0
0
VERTEX
8
0
10
49.1411047150688
20
90.4187916607575
30
0
0
VERTEX
8
0
10
49.9601231269867
20
90.5228733279408
30
0
0
VERTEX
8
0
10
50.7791415389045
20
90.4884781836954
30
0
0
VERTEX
8
0
10
51.5981599508223
20
90.3850908379468
30
0
0
VERTEX
8
0
10
52.4171783627401
20
90.1850410328551
30
0
0
VERTEX
8
0
10
53.2361967746579
20
89.9519614525991
30
0
0
VERTEX
8
0
10
54.0552151865757
20
89.6723287165546
30
0
0
VERTEX
8
0
10
54.8742335984935
20
89.3721363869621
30
0
0
VERTEX
8
0
10
55.6932520104113
20
89.0199526239555
30
0
0
VERTEX
8
0
10
56.5122704223291
20
88.6575486171515
30
0
0
VERTEX
8
0
10
57.331288834247
20
88.2702206492626
30
0
0
VERTEX
8
0
10
58.1503072461648
20
87.8770229931657
30
0
0
VERTEX
8
0
10
58.9693256580826
20
87.4527941801499
30
0
0
VERTEX
8
0
10
59.7883440700004
20
87.0281565359263
30
0
0
VERTEX
8
0
10
60.6073624819182
20
86.5901193752537
30
0
0
VERTEX
8
0
10
61.426380893836
20
86.1539960461764
30
0
0
VERTEX
8
0
10
62.2453993057538
20
85.7000610360503
30
0
0
VERTEX
8
0
10
63.0644177176716
20
85.2515831316822
30
0
0
VERTEX
8
0
10
63.8834361295894
20
84.797398329387
30
0
0
VERTEX
8
0
10
64.7024545415073
20
84.3503249809307
30
0
0
VERTEX
8
0
10
65.5214729534251
20
83.8949034486266
30
0
0
VERTEX
8
0
10
66.3404913653429
20
83.4493845254039
30
0
0
VERTEX
8
0
10
67.1595097772607
20
83.0043829020596
30
0
0
VERTEX
8
0
10
67.9785281891785
20
82.5712933608037
30
0
0
VERTEX
8
0
10
68.7975466010963
20
82.1386813412649
30
0
0
VERTEX
8
0
10
69.6165650130141
20
81.7228297126813
30
0
0
VERTEX
8
0
10
70.4355834249319
20
81.3150918519596
30
0
0
VERTEX
8
0
10
71.2546018368498
20
80.9212211894462
30
0
0
VERTEX
8
0
10
72.0736202487676
20
80.5284955477657
30
0
0
VERTEX
8
0
10
72.8926386606854
20
80.1466664010565
30
0
0
VERTEX
8
0
10
73.7116570726032
20
79.7669063475553
30
0
0
VERTEX
8
0
10
74.530675484521
20
79.3963700242126
30
0
0
VERTEX
8
0
10
75.3496938964388
20
79.025955860079
30
0
0
VERTEX
8
0
10
76.1687123083566
20
78.6641983821113
30
0
0
VERTEX
8
0
10
76.9877307202744
20
78.3037965706818
30
0
0
VERTEX
8
0
10
77.8067491321923
20
77.9513716586448
30
0
0
VERTEX
8
0
10
78.6257675441101
20
77.5996959945362
30
0
0
VERTEX
8
0
10
79.4447859560279
20
77.2558344643772
30
0
0
VERTEX
8
0
10
80.2638043679457
20
76.913466241596
30
0
0
VERTEX
8
0
10
81.0828227798635
20
76.5785338214321
30
0
0
VERTEX
8
0
10
81.9018411917813
20
76.2451747433869
30
0
0
VERTEX
8
0
10
82.7208596036991
20
75.9191746302792
30
0
0
VERTEX
8
0
10
83.5398780156169
20
75.5949664578462
30
0
0
VERTEX
8
0
10
84.3588964275347
20
75.2778313106445
30
0
0
VERTEX
8
0
10
85.1779148394526
20
74.962953920875
30
0
0
VERTEX
8
0
10
85.9969332513704
20
74.6550410843602
30
0
0
VERTEX
8
0
10
86.8159516632882
20
74.3491367523892
30
0
0
VERTEX
8
0
10
87.634970075206
20
74.0499045873516
30
0
0
VERTEX
8
0
10
88.4539884871238
20
73.7533491360363
30
0
0
VERTEX
8
0
10
89.2730068990416
20
73.4632684938644
30
0
0
VERTEX
8
0
10
90.0920253109594
20
73.1752179456631
30
0
0
VERTEX
8
0
10
90.9110437228772
20
72.8932887782799
30
0
0
VERTEX
8
0
10
91.730062134795
20
72.6141368978489
30
0
0
VERTEX
8
0
10
92.5490805467129
20
72.3407902500298
30
0
0
VERTEX
8
0
10
93.3680989586307
20
72.0692458620281
30
0
0
VERTEX
8
0
10
94.1871173705485
20
71.8030624826768
30
0
0
VERTEX
8
0
10
95.0061357824663
20
71.5394216085456
30
0
0
VERTEX
8
0
10
95.8251541943841
20
71.2806938945828
30
0
0
VERTEX
8
0
10
96.6441726063019
20
71.0232721213848
30
0
0
VERTEX
8
0
10
97.4631910182197
20
70.7702164066561
30
0
0
VERTEX
8
0
10
98.2822094301375
20
70.51914033112
30
0
0
VERTEX
8
0
10
99.1012278420554
20
70.2718513385265
30
0
0
VERTEX
8
0
10
99.9202462539732
20
70.0251112686701
30
0
0
VERTEX
8
0
10
100.739264665891
20
69.7815110613192
30
0
0
VERTEX
8
0
10
101.558283077809
20
69.5390278753147
30
0
0
VERTEX
8
0
10
102.377301489727
20
69.2989877994425
30
0
0
VERTEX
8
0
10
103.196319901644
20
69.0585110245451
30
0
0
VERTEX
8
0
10
104.015338313562
20
68.8197471702093
30
0
0
VERTEX
8
0
10
104.83435672548
20
68.5809887086539
30
0
0
VERTEX
8
0
10
105.653375137398
20
68.3431563598324
30
0
0
VERTEX
8
0
10
106.472393549316
20
68.1037318985005
30
0
0
VERTEX
8
0
10
107.291411961233
20
67.864454699356
30
0
0
VERTEX
8
0
10
108.110430373151
20
67.6239031717227
30
0
0
VERTEX
8
0
10
108.929448785069
20
67.3826709160345
30
0
0
VERTEX
8
0
10
109.748467196987
20
67.1386204722659
30
0
0
VERTEX
8
0
10
110.567485608905
20
66.8931263424554
30
0
0
VERTEX
8
0
10
111.386504020823
20
66.645051201219
30
0
0
VERTEX
8
0
10
112.20552243274
20
66.3947635815074
30
0
0
VERTEX
8
0
10
113.024540844658
20
66.1405676701378
30
0
0
VERTEX
8
0
10
113.843559256576
20
65.8835859294231
30
0
0
VERTEX
8
0
10
114.662577668494
20
65.6230799118087
30
0
0
VERTEX
8
0
10
115.481596080412
20
65.359501922569
30
0
0
VERTEX
8
0
10
116.300614492329
20
65.092089544878
30
0
0
VERTEX
8
0
10
117.119632904247
20
64.8226709915286
30
0
0
VERTEX
8
0
10
117.938651316165
20
64.5503426516182
30
0
0
VERTEX
8
0
10
118.757669728083
20
64.2672979999129
30
0
0
VERTEX
8
0
10
119.576688140001
20
63.9689173047071
30
0
0
VERTEX
8
0
10
120.395706551918
20
63.659014307887
30
0
0
VERTEX
8
0
10
121.214724963836
20
63.3400693016464
30
0
0
VERTEX
8
0
10
122.033743375754
20
63.0140849233237
30
0
0
VERTEX
8
0
10
122.852761787672
20
62.6821195885473
30
0
0
VERTEX
8
0
10
123.67178019959
20
62.3457931666678
30
0
0
VERTEX
8
0
10
124.490798611508
20
62.0061410672588
30
0
0
VERTEX
8
0
10
125.309817023425
20
61.6643546400432
30
0
0
VERTEX
8
0
10
126.128835435343
20
61.3214568640807
30
0
0
VERTEX
8
0
10
126.947853847261
20
60.9788746865486
30
0
0
VERTEX
8
0
10
127.766872259179
20
60.6379774531463
30
0
0
VERTEX
8
0
10
128.585890671097
20
60.3004234600212
30
0
0
VERTEX
8
0
10
129.404909083014
20
59.9682154011243
30
0
0
VERTEX
8
0
10
130.223927494932
20
59.6440469087864
30
0
0
VERTEX
8
0
10
131.04294590685
20
59.3313322541805
30
0
0
VERTEX
8
0
10
131.861964318768
20
59.032450637803
30
0
0
VERTEX
8
0
10
132.680982730686
20
58.7462382930861
30
0
0
VERTEX
8
0
10
133.500001142603
20
58.4703992153568
30
0
0
VERTEX
8
0
10
134.319019554521
20
58.2032651165939
30
0
0
VERTEX
8
0
10
135.138037966439
20
57.9436964657749
30
0
0
VERTEX
8
0
10
135.957056378357
20
57.6908637156893
30
0
0
VERTEX
8
0
10
136.776074790275
20
57.4441284246221
30
0
0
VERTEX
8
0
10
137.595093202193
20
57.2029793400886
30
0
0
VERTEX
8
0
10
138.41411161411
20
56.9669950834784
30
0
0
VERTEX
8
0
10
139.233130026028
20
56.7358206745652
30
0
0
VERTEX
8
0
10
140.052148437946
20
56.5091518817113
30
0
0
VERTEX
8
0
10
140.871166849864
20
56.2867243112572
30
0
0
VERTEX
8
0
10
141.690185261782
20
56.0683055266242
30
0
0
VERTEX
8
0
10
142.5092036737
20
55.8536891898452
30
0
0
VERTEX
8
0
10
143.328222085617
20
55.6426906015609
30
0
0
VERTEX
8
0
10
144.147240497535
20
55.4351432367521
30
0
0
VERTEX
8
0
10
144.966258909453
20
55.2308960072352
30
0
0
VERTEX
8
0
10
145.785277321371
20
55.0298110659739
30
0
0
VERTEX
8
0
10
146.604295733289
20
54.8317620228275
30
0
0
VERTEX
8
0
10
147.423314145207
20
54.6366324778133
30
0
0
VERTEX
8
0
10
148.242332557124
20
54.4443148029161
30
0
0
VERTEX
8
0
10
149.061350969042
20
54.2547091209484
30
0
0
VERTEX
8
0
10
149.88036938096
20
54.0677224424246
30
0
0
VERTEX
8
0
10
150.699387792878
20
53.8832679304572
30
0
0
VERTEX
8
0
10
151.518406204796
20
53.7012642703492
30
0
0
VERTEX
8
0
10
152.337424616713
20
53.5216351255376
30
0
0
VERTEX
8
0
10
153.156443028631
20
53.3443086653197
30
0
0
VERTEX
8
0
10
153.975461440549
20
53.1692171526785
30
0
0
VERTEX
8
0
10
154.794479852467
20
52.9962965827601
30
0
0
SEQEND
8
0
0
POLYLINE
8
0
62
3
70
0
10
0
20
0
30
0
0
VERTEX
8
0
10
2.45705523575344
20
25.2178886693223
30
0
0
VERTEX
8
0
10
3.27607364767126
20
21.6421166543179
30
0
0
VERTEX
8
0
10
4.09509205958907
20
22.9997200740635
30
0
0
VERTEX
8
0
10
4.91411047150689
20
29.8662947259631
30
0
0
VERTEX
8
0
10
5.7331288834247
20
38.0548475806516
30
0
0
VERTEX
8
0
10
6.55214729534252
20
37.2665522477654
30
0
0
VERTEX
8
0
10
7.37116570726033
20
39.6062147603496
30
0
0
VERTEX
8
0
10
8.19018411917815
20
43.9437128848133
30
0
0
VERTEX
8
0
10
9.00920253109596
20
48.9921134002486
30
0
0
VERTEX
8
0
10
9.82822094301378
20
50.0344744671227
30
0
0
VERTEX
8
0
10
10.6472393549316
20
52.4551057575363
30
0
0
VERTEX
8
0
10
11.4662577668494
20
55.6031219127143
30
0
0
VERTEX
8
0
10
12.2852761787672
20
59.2026407361615
30
0
0
VERTEX
8
0
10
13.104294590685
20
60.7084031910047
30
0
0
VERTEX
8
0
10
13.9233130026029
20
62.9002303441766
30
0
0
VERTEX
8
0
10
14.7423314145207
20
65.392206575019
30
0
0
VERTEX
8
0
10
15.5613498264385
20
68.160603251542
30
0
0
VERTEX
8
0
10
16.3803682383563
20
69.691331054158
30
0
0
VERTEX
8
0
10
17.1993866502741
20
71.601750339359
30
0
0
VERTEX
8
0
10
18.0184050621919
20
73.6353257903852
30
0
0
VERTEX
8
0
10
18.8374234741097
20
75.8393366158877
30
0
0
VERTEX
8
0
10
19.6564418860276
20
77.2508699152364
30
0
0
VERTEX
8
0
10
20.4754602979454
20
78.8860861741389
30
0
0
VERTEX
8
0
10
21.2944787098632
20
80.5607520802322
30
0
0
VERTEX
8
0
10
22.113497121781
20
82.3413429371243
30
0
0
VERTEX
8
0
10
22.9325155336988
20
83.5860353659069
30
0
0
VERTEX
8
0
10
23.7515339456166
20
84.9671261254362
30
0
0
VERTEX
8
0
10
24.5705523575345
20
86.3454784893308
30
0
0
VERTEX
8
0
10
25.3895707694523
20
87.7895301171789
30
0
0
VERTEX
8
0
10
26.2085891813701
20
88.8567467268152
30
0
0
VERTEX
8
0
10
27.0276075932879
20
90.0084849498702
30
0
0
VERTEX
8
0
10
27.8466260052057
20
91.1360693562335
30
0
0
VERTEX
8
0
10
28.6656444171235
20
92.3038522913554
30
0
0
VERTEX
8
0
10
29.4846628290413
20
93.198981040466
30
0
0
VERTEX
8
0
10
30.3036812409592
20
94.1466948214054
30
0
0
VERTEX
8
0
10
31.122699652877
20
95.060124958728
30
0
0
VERTEX
8
0
10
31.9417180647948
20
95.9976014078064
30
0
0
VERTEX
8
0
10
32.7607364767126
20
96.73375397756
30
0
0
VERTEX
8
0
10
33.5797548886304
20
97.5026239420213
30
0
0
VERTEX
8
0
10
34.3987733005482
20
98.2336481067648
30
0
0
VERTEX
8
0
10
35.217791712466
20
98.978833594607
30
0
0
VERTEX
8
0
10
36.0368101243838
20
99.5735194160692
30
0
0
VERTEX
8
0
10
36.8558285363017
20
100.188910238266
30
0
0
VERTEX
8
0
10
37.6748469482195
20
100.767077057178
30
0
0
VERTEX
8
0
10
38.4938653601373
20
101.35411119458
30
0
0
VERTEX
8
0
10
39.3128837720551
20
101.828513188941
30
0
0
VERTEX
8
0
10
40.1319021839729
20
102.317364217642
30
0
0
VERTEX
8
0
10
40.9509205958907
20
102.772938863325
30
0
0
VERTEX
8
0
10
41.7699390078085
20
103.236284256247
30
0
0
VERTEX
8
0
10
42.5889574197263
20
103.617526399247
30
0
0
VERTEX
8
0
10
43.4079758316442
20
104.012817337841
30
0
0
VERTEX
8
0
10
44.226994243562
20
104.383706623077
30
0
0
VERTEX
8
0
10
45.0460126554798
20
104.768481952427
30
0
0
VERTEX
8
0
10
45.8650310673976
20
105.103496342422
30
0
0
VERTEX
8
0
10
46.6840494793154
20
105.468300404416
30
0
0
VERTEX
8
0
10
47.5030678912332
20
105.845547372055
30
0
0
VERTEX
8
0
10
48.322086303151
20
106.314871300702
30
0
0
VERTEX
8
0
10
49.1411047150688
20
106.78350646261
30
0
0
VERTEX
8
0
10
49.9601231269867
20
107.073154532516
30
0
0
VERTEX
8
0
10
50.7791415389045
20
107.232490522448
30
0
0
VERTEX
8
0
10
51.5981599508223
20
107.326422469146
30
0
0
VERTEX
8
0
10
52.4171783627401
20
107.336608861073
30
0
0
VERTEX
8
0
10
53.2361967746579
20
107.312648507387
30
0
0
VERTEX
8
0
10
54.0552151865757
20
107.23944768494
30
0
0
VERTEX
8
0
10
54.8742335984935
20
107.143836131197
30
0
0
VERTEX
8
0
10
55.6932520104113
20
107.003712255856
30
0
0
VERTEX
8
0
10
56.5122704223291
20
106.850376037109
30
0
0
VERTEX
8
0
10
57.331288834247
20
106.668283335874
30
0
0
VERTEX
8
0
10
58.1503072461648
20
106.477507838841
30
0
0
VERTEX
8
0
10
58.9693256580826
20
106.260798785618
30
0
0
VERTEX
8
0
10
59.7883440700004
20
106.040292279415
30
0
0
VERTEX
8
0
10
60.6073624819182
20
105.802353228407
30
0
0
VERTEX
8
0
10
61.426380893836
20
105.563205379976
30
0
0
VERTEX
8
0
10
62.2453993057538
20
105.309794737701
30
0
0
VERTEX
8
0
10
63.0644177176716
20
105.058314638894
30
0
0
VERTEX
8
0
10
63.8834361295894
20
104.797036950422
30
0
0
VERTEX
8
0
10
64.7024545415073
20
104.539533351029
30
0
0
VERTEX
8
0
10
65.5214729534251
20
104.275999378345
30
0
0
VERTEX
8
0
10
66.3404913653429
20
104.018637899388
30
0
0
VERTEX
8
0
10
67.1595097772607
20
103.757490753794
30
0
0
VERTEX
8
0
10
67.9785281891785
20
103.504475130719
30
0
0
VERTEX
8
0
10
68.7975466010963
20
103.252832283583
30
0
0
VERTEX
8
0
10
69.6165650130141
20
103.013225471402
30
0
0
VERTEX
8
0
10
70.4355834249319
20
102.776503717449
30
0
0
VERTEX
8
0
10
71.2546018368498
20
102.549632992287
30
0
0
VERTEX
8
0
10
72.0736202487676
20
102.324641454485
30
0
0
VERTEX
8
0
10
72.8926386606854
20
102.107055401032
30
0
0
VERTEX
8
0
10
73.7116570726032
20
101.887852599275
30
0
0
VERTEX
8
0
10
74.530675484521
20
101.674855682126
30
0
0
VERTEX
8
0
10
75.3496938964388
20
101.462863026899
30
0
0
VERTEX
8
0
10
76.1687123083566
20
101.256571725887
30
0
0
VERTEX
8
0
10
76.9877307202744
20
101.048411934913
30
0
0
VERTEX
8
0
10
77.8067491321923
20
100.845540188457
30
0
0
VERTEX
8
0
10
78.6257675441101
20
100.644111994747
30
0
0
VERTEX
8
0
10
79.4447859560279
20
100.447791547091
30
0
0
VERTEX
8
0
10
80.2638043679457
20
100.249985699026
30
0
0
VERTEX
8
0
10
81.0828227798635
20
100.057097601327
30
0
0
VERTEX
8
0
10
81.9018411917813
20
99.8662309089814
30
0
0
VERTEX
8
0
10
82.7208596036991
20
99.6801664587736
30
0
0
VERTEX
8
0
10
83.5398780156169
20
99.4930784047876
30
0
0
VERTEX
8
0
10
84.3588964275347
20
99.3106577701962
30
0
0
VERTEX
8
0
10
85.1779148394526
20
99.1307054276253
30
0
0
VERTEX
8
0
10
85.9969332513704
20
98.9552754862458
30
0
0
VERTEX
8
0
10
86.8159516632882
20
98.7791742164539
30
0
0
VERTEX
8
0
10
87.634970075206
20
98.6074397876537
30
0
0
VERTEX
8
0
10
88.4539884871238
20
98.4383937291796
30
0
0
VERTEX
8
0
10
89.2730068990416
20
98.2734961223303
30
0
0
VERTEX
8
0
10
90.0920253109594
20
98.1080906969168
30
0
0
VERTEX
8
0
10
90.9110437228772
20
97.94661904641
30
0
0
VERTEX
8
0
10
91.730062134795
20
97.7877938242559
30
0
0
VERTEX
8
0
10
92.5490805467129
20
97.6325898063024
30
0
0
VERTEX
8
0
10
93.3680989586307
20
97.4768225544934
30
0
0
VERTEX
8
0
10
94.1871173705485
20
97.3243852285183
30
0
0
VERTEX
8
0
10
95.0061357824663
20
97.1742850029434
30
0
0
VERTEX
8
0
10
95.8251541943841
20
97.0271013177498
30
0
0
VERTEX
8
0
10
96.6441726063019
20
96.8790789247846
30
0
0
VERTEX
8
0
10
97.4631910182197
20
96.7336020983906
30
0
0
VERTEX
8
0
10
98.2822094301375
20
96.5899000402484
30
0
0
VERTEX
8
0
10
99.1012278420554
20
96.4482337199014
30
0
0
VERTEX
8
0
10
99.9202462539732
20
96.3052531104415
30
0
0
VERTEX
8
0
10
100.739264665891
20
96.1638660660227
30
0
0
VERTEX
8
0
10
101.558283077809
20
96.0234696390929
30
0
0
VERTEX
8
0
10
102.377301489727
20
95.8840751116286
30
0
0
VERTEX
8
0
10
103.196319901644
20
95.7427288296491
30
0
0
VERTEX
8
0
10
104.015338313562
20
95.6018903985449
30
0
0
VERTEX
8
0
10
104.83435672548
20
95.4610854484344
30
0
0
VERTEX
8
0
10
105.653375137398
20
95.3201407808275
30
0
0
VERTEX
8
0
10
106.472393549316
20
95.1765026798657
30
0
0
VERTEX
8
0
10
107.291411961233
20
95.0322107794798
30
0
0
VERTEX
8
0
10
108.110430373151
20
94.8868943636364
30
0
0
VERTEX
8
0
10
108.929448785069
20
94.7402627448623
30
0
0
VERTEX
8
0
10
109.748467196987
20
94.5901780950799
30
0
0
VERTEX
8
0
10
110.567485608905
20
94.4382973690868
30
0
0
VERTEX
8
0
10
111.386504020823
20
94.2843497638648
30
0
0
VERTEX
8
0
10
112.20552243274
20
94.1280100577263
30
0
0
VERTEX
8
0
10
113.024540844658
20
93.9676007469772
30
0
0
VERTEX
8
0
10
113.843559256576
20
93.8044804246553
30
0
0
VERTEX
8
0
10
114.662577668494
20
93.6385577328573
30
0
0
VERTEX
8
0
10
115.481596080412
20
93.4696969048519
30
0
0
VERTEX
8
0
10
116.300614492329
20
93.2970200874396
30
0
0
VERTEX
8
0
10
117.119632904247
20
93.1222531326983
30
0
0
VERTEX
8
0
10
117.938651316165
20
92.9450605004959
30
0
0
VERTEX
8
0
10
118.757669728083
20
92.7596294349301
30
0
0
VERTEX
8
0
10
119.576688140001
20
92.5625596032782
30
0
0
VERTEX
8
0
10
120.395706551918
20
92.3569131919739
30
0
0
VERTEX
8
0
10
121.214724963836
20
92.1446946192056
30
0
0
VERTEX
8
0
10
122.033743375754
20
91.9271734705054
30
0
0
VERTEX
8
0
10
122.852761787672
20
91.7050654190287
30
0
0
VERTEX
8
0
10
123.67178019959
20
91.4797631575753
30
0
0
VERTEX
8
0
10
124.490798611508
20
91.2521529014148
30
0
0
VERTEX
8
0
10
125.309817023425
20
91.0230275822199
30
0
0
VERTEX
8
0
10
126.128835435343
20
90.7931336899122
30
0
0
VERTEX
8
0
10
126.947853847261
20
90.5636073949339
30
0
0
VERTEX
8
0
10
127.766872259179
20
90.3354750253432
30
0
0
VERTEX
8
0
10
128.585890671097
20
90.1098893786237
30
0
0
VERTEX
8
0
10
129.404909083014
20
89.8882618669579
30
0
0
VERTEX
8
0
10
130.223927494932
20
89.672468994992
30
0
0
VERTEX
8
0
10
131.04294590685
20
89.4648201869629
30
0
0
VERTEX
8
0
10
131.861964318768
20
89.2668950378194
30
0
0
VERTEX
8
0
10
132.680982730686
20
89.0778815559585
30
0
0
VERTEX
8
0
10
133.500001142603
20
88.896209533192
30
0
0
VERTEX
8
0
10
134.319019554521
20
88.720733523512
30
0
0
VERTEX
8
0
10
135.138037966439
20
88.5506659886234
30
0
0
VERTEX
8
0
10
135.957056378357
20
88.3854300390895
30
0
0
VERTEX
8
0
10
136.776074790275
20
88.224579213502
30
0
0
VERTEX
8
0
10
137.595093202193
20
88.0677542141156
30
0
0
VERTEX
8
0
10
138.41411161411
20
87.9146575707166
30
0
0
VERTEX
8
0
10
139.233130026028
20
87.7650376548189
30
0
0
VERTEX
8
0
10
140.052148437946
20
87.618677993483
30
0
0
VERTEX
8
0
10
140.871166849864
20
87.4753897997992
30
0
0
VERTEX
8
0
10
141.690185261782
20
87.3350065641616
30
0
0
VERTEX
8
0
10
142.5092036737
20
87.1973800240074
30
0
0
VERTEX
8
0
10
143.328222085617
20
87.062377088593
30
0
0
VERTEX
8
0
10
144.147240497535
20
86.929877445068
30
0
0
VERTEX
8
0
10
144.966258909453
20
86.7997716627029
30
0
0
VERTEX
8
0
10
145.785277321371
20
86.6719596691578
30
0
0
VERTEX
8
0
10
146.604295733289
20
86.5463495097472
30
0
0
VERTEX
8
0
10
147.423314145207
20
86.4228563254594
30
0
0
VERTEX
8
0
10
148.242332557124
20
86.301401502492
30
0
0
VERTEX
8
0
10
149.061350969042
20
86.181911957986
30
0
0
VERTEX
8
0
10
149.88036938096
20
86.0643195351384
30
0
0
VERTEX
8
0
10
150.699387792878
20
85.9485604870771
30
0
0
VERTEX
8
0
10
151.518406204796
20
85.8345750334284
30
0
0
VERTEX
8
0
10
152.337424616713
20
85.722306976927
30
0
0
VERTEX
8
0
10
153.156443028631
20
85.6117033700197
30
0
0
VERTEX
8
0
10
153.975461440549
20
85.5027142233742
30
0
0
VERTEX
8
0
10
154.794479852467
20
85.3952922497675
30
0
0
SEQEND
8
0
0
POLYLINE
8
0
62
4
70
0
10
0
20
0
30
0
0
VERTEX
8
0
10
2.45705523575344
20
17.146672946993
30
0
0
VERTEX
8
0
10
3.27607364767126
20
22.4836937284924
30
0
0
VERTEX
8
0
10
4.09509205958907
20
27.7482947634028
30
0
0
VERTEX
8
0
10
4.91411047150689
20
32.4285181039692
30
0
0
VERTEX
8
0
10
5.7331288834247
20
36.4515311629208
30
0
0
VERTEX
8
0
10
6.55214729534252
20
40.4339968538786
30
0
0
VERTEX
8
0
10
7.37116570726033
20
43.9592162203016
30
0
0
VERTEX
8
0
10
8.19018411917815
20
47.5111063247957
30
0
0
VERTEX
8
0
10
9.00920253109596
20
50.7174197005738
30
0
0
VERTEX
8
0
10
9.82822094301378
20
53.8797081340416
30
0
0
VERTEX
8
0
10
10.6472393549316
20
56.5872199619477
30
0
0
VERTEX
8
0
10
11.4662577668494
20
59.2484803114718
30
0
0
VERTEX
8
0
10
12.2852761787672
20
61.5865945105045
30
0
0
VERTEX
8
0
10
13.104294590685
20
63.9359437744411
30
0
0
VERTEX
8
0
10
13.9233130026029
20
65.5188505654694
30
0
0
VERTEX
8
0
10
14.7423314145207
20
67.3226096459801
30
0
0
VERTEX
8
0
10
15.5613498264385
20
69.1614108478466
30
0
0
VERTEX
8
0
10
16.3803682383563
20
71.094541784931
30
0
0
VERTEX
8
0
10
17.1993866502741
20
73.0419819706284
30
0
0
VERTEX
8
0
10
18.0184050621919
20
74.9508119255283
30
0
0
VERTEX
8
0
10
18.8374234741097
20
76.8517427497789
30
0
0
VERTEX
8
0
10
19.6564418860276
20
79.3311013744866
30
0
0
VERTEX
8
0
10
20.4754602979454
20
81.1521529562849
30
0
0
VERTEX
8
0
10
21.2944787098632
20
82.8791990463535
30
0
0
VERTEX
8
0
10
22.113497121781
20
84.1384921407021
30
0
0
VERTEX
8
0
10
22.9325155336988
20
85.2630639817871
30
0
0
VERTEX
8
0
10
23.7515339456166
20
86.3806565254286
30
0
0
VERTEX
8
0
10
24.5705523575345
20
87.4259023031788
30
0
0
VERTEX
8
0
10
25.3895707694523
20
88.4399996939895
30
0
0
VERTEX
8
0
10
26.2085891813701
20
89.4555135665847
30
0
0
VERTEX
8
0
10
27.0276075932879
20
90.4634487928186
30
0
0
VERTEX
8
0
10
27.8466260052057
20
91.1489427601279
30
0
0
VERTEX
8
0
10
28.6656444171235
20
91.925473849417
30
0
0
VERTEX
8
0
10
29.4846628290413
20
92.7033946045912
30
0
0
VERTEX
8
0
10
30.3036812409592
20
93.4927081457017
30
0
0
VERTEX
8
0
10
31.122699652877
20
94.2618511189605
30
0
0
VERTEX
8
0
10
31.9417180647948
20
95.0238441807965
30
0
0
VERTEX
8
0
10
32.7607364767126
20
95.9286542749293
30
0
0
VERTEX
8
0
10
33.5797548886304
20
96.8223654829198
30
0
0
VERTEX
8
0
10
34.3987733005482
20
97.6996978765
30
0
0
VERTEX
8
0
10
35.217791712466
20
98.5788377485177
30
0
0
VERTEX
8
0
10
36.0368101243838
20
99.4598572023556
30
0
0
VERTEX
8
0
10
36.8558285363017
20
100.333044042909
30
0
0
VERTEX
8
0
10
37.6748469482195
20
101.20104016033
30
0
0
VERTEX
8
0
10
38.4938653601373
20
102.069244836107
30
0
0
VERTEX
8
0
10
39.3128837720551
20
102.936719910964
30
0
0
VERTEX
8
0
10
40.1319021839729
20
103.796799972007
30
0
0
VERTEX
8
0
10
40.9509205958907
20
104.634855447068
30
0
0
VERTEX
8
0
10
41.7699390078085
20
105.468203174709
30
0
0
VERTEX
8
0
10
42.5889574197263
20
106.300797530062
30
0
0
VERTEX
8
0
10
43.4079758316442
20
106.483622878613
30
0
0
VERTEX
8
0
10
44.226994243562
20
106.727544775255
30
0
0
VERTEX
8
0
10
45.0460126554798
20
106.966601244387
30
0
0
VERTEX
8
0
10
45.8650310673976
20
106.915227057228
30
0
0
VERTEX
8
0
10
46.6840494793154
20
106.829239602539
30
0
0
VERTEX
8
0
10
47.5030678912332
20
106.734242703918
30
0
0
VERTEX
8
0
10
48.322086303151
20
106.78859171244
30
0
0
VERTEX
8
0
10
49.1411047150688
20
106.914790266576
30
0
0
VERTEX
8
0
10
49.9601231269867
20
107.033151524004
30
0
0
VERTEX
8
0
10
50.7791415389045
20
107.138695305198
30
0
0
VERTEX
8
0
10
51.5981599508223
20
107.365872149586
30
0
0
VERTEX
8
0
10
52.4171783627401
20
107.549828749982
30
0
0
VERTEX
8
0
10
53.2361967746579
20
107.726665413089
30
0
0
VERTEX
8
0
10
54.0552151865757
20
107.49742139492
30
0
0
VERTEX
8
0
10
54.8742335984935
20
107.33784949806
30
0
0
VERTEX
8
0
10
55.6932520104113
20
107.177350394171
30
0
0
VERTEX
8
0
10
56.5122704223291
20
106.856320942965
30
0
0
VERTEX
8
0
10
57.331288834247
20
106.529401702413
30
0
0
VERTEX
8
0
10
58.1503072461648
20
106.199504978338
30
0
0
VERTEX
8
0
10
58.9693256580826
20
105.813305054065
30
0
0
VERTEX
8
0
10
59.7883440700004
20
105.40918390887
30
0
0
VERTEX
8
0
10
60.6073624819182
20
104.99976652117
30
0
0
VERTEX
8
0
10
61.426380893836
20
104.614929172396
30
0
0
VERTEX
8
0
10
62.2453993057538
20
104.251781955692
30
0
0
VERTEX
8
0
10
63.0644177176716
20
103.88685757855
30
0
0
VERTEX
8
0
10
63.8834361295894
20
103.517466080746
30
0
0
VERTEX
8
0
10
64.7024545415073
20
103.43726160026
30
0
0
VERTEX
8
0
10
65.5214729534251
20
103.283834904793
30
0
0
VERTEX
8
0
10
66.3404913653429
20
103.128059698158
30
0
0
VERTEX
8
0
10
67.1595097772607
20
103.066683185542
30
0
0
VERTEX
8
0
10
67.9785281891785
20
102.992953329607
30
0
0
VERTEX
8
0
10
68.7975466010963
20
102.919394979446
30
0
0
VERTEX
8
0
10
69.6165650130141
20
102.819870397133
30
0
0
VERTEX
8
0
10
70.4355834249319
20
102.713184817266
30
0
0
VERTEX
8
0
10
71.2546018368498
20
102.604803606599
30
0
0
VERTEX
8
0
10
72.0736202487676
20
102.448898691684
30
0
0
VERTEX
8
0
10
72.8926386606854
20
102.267470278176
30
0
0
VERTEX
8
0
10
73.7116570726032
20
102.082626543894
30
0
0
VERTEX
8
0
10
74.530675484521
20
101.896613264669
30
0
0
VERTEX
8
0
10
75.3496938964388
20
101.718989868859
30
0
0
VERTEX
8
0
10
76.1687123083566
20
101.537840636727
30
0
0
VERTEX
8
0
10
76.9877307202744
20
101.353651575895
30
0
0
VERTEX
8
0
10
77.8067491321923
20
101.16207105376
30
0
0
VERTEX
8
0
10
78.6257675441101
20
100.972433218304
30
0
0
VERTEX
8
0
10
79.4447859560279
20
100.78183106251
30
0
0
VERTEX
8
0
10
80.2638043679457
20
100.596343029845
30
0
0
VERTEX
8
0
10
81.0828227798635
20
100.410062425339
30
0
0
VERTEX
8
0
10
81.9018411917813
20
100.224560154073
30
0
0
VERTEX
8
0
10
82.7208596036991
20
100.030251832542
30
0
0
VERTEX
8
0
10
83.5398780156169
20
99.8312310023162
30
0
0
VERTEX
8
0
10
84.3588964275347
20
99.6315693022665
30
0
0
VERTEX
8
0
10
85.1779148394526
20
99.4355508219494
30
0
0
VERTEX
8
0
10
85.9969332513704
20
99.2411957180969
30
0
0
VERTEX
8
0
10
86.8159516632882
20
99.0447484010361
30
0
0
VERTEX
8
0
10
87.634970075206
20
98.8477508529474
30
0
0
VERTEX
8
0
10
88.4539884871238
20
98.6515499778303
30
0
0
VERTEX
8
0
10
89.2730068990416
20
98.4547843466145
30
0
0
VERTEX
8
0
10
90.0920253109594
20
98.256147925818
30
0
0
VERTEX
8
0
10
90.9110437228772
20
98.0570450273646
30
0
0
VERTEX
8
0
10
91.730062134795
20
97.8587013000682
30
0
0
VERTEX
8
0
10
92.5490805467129
20
97.6598638999653
30
0
0
VERTEX
8
0
10
93.3680989586307
20
97.4724931337298
30
0
0
VERTEX
8
0
10
94.1871173705485
20
97.2865081264343
30
0
0
VERTEX
8
0
10
95.0061357824663
20
97.1011426006881
30
0
0
VERTEX
8
0
10
95.8251541943841
20
96.9152465390278
30
0
0
VERTEX
8
0
10
96.6441726063019
20
96.7277305064916
30
0
0
VERTEX
8
0
10
97.4631910182197
20
96.5397471592901
30
0
0
VERTEX
8
0
10
98.2822094301375
20
96.3522905579733
30
0
0
VERTEX
8
0
10
99.1012278420554
20
96.1643123096071
30
0
0
VERTEX
8
0
10
99.9202462539732
20
95.9748306734987
30
0
0
VERTEX
8
0
10
100.739264665891
20
95.7848786514443
30
0
0
VERTEX
8
0
10
101.558283077809
20
95.6041641585495
30
0
0
VERTEX
8
0
10
102.377301489727
20
95.4213760909277
30
0
0
VERTEX
8
0
10
103.196319901644
20
95.2371453155197
30
0
0
VERTEX
8
0
10
104.015338313562
20
95.0571430130078
30
0
0
VERTEX
8
0
10
104.83435672548
20
94.8774478631104
30
0
0
VERTEX
8
0
10
105.653375137398
20
94.6971274483365
30
0
0
VERTEX
8
0
10
106.472393549316
20
94.5208955220362
30
0
0
VERTEX
8
0
10
107.291411961233
20
94.345807194436
30
0
0
VERTEX
8
0
10
108.110430373151
20
94.1707491847031
30
0
0
VERTEX
8
0
10
108.929448785069
20
93.9975467157955
30
0
0
VERTEX
8
0
10
109.748467196987
20
93.8252377736369
30
0
0
VERTEX
8
0
10
110.567485608905
20
93.652260402483
30
0
0
VERTEX
8
0
10
111.386504020823
20
93.4791459895452
30
0
0
VERTEX
8
0
10
112.20552243274
20
93.3083936860483
30
0
0
VERTEX
8
0
10
113.024540844658
20
93.1356593554982
30
0
0
VERTEX
8
0
10
113.843559256576
20
92.9622345861978
30
0
0
VERTEX
8
0
10
114.662577668494
20
92.7987474324075
30
0
0
VERTEX
8
0
10
115.481596080412
20
92.6336647018602
30
0
0
VERTEX
8
0
10
116.300614492329
20
92.4674291811657
30
0
0
VERTEX
8
0
10
117.119632904247
20
92.3065186374588
30
0
0
VERTEX
8
0
10
117.938651316165
20
92.1461188428961
30
0
0
VERTEX
8
0
10
118.757669728083
20
91.9848373056712
30
0
0
VERTEX
8
0
10
119.576688140001
20
91.8238913404201
30
0
0
VERTEX
8
0
10
120.395706551918
20
91.6629881574348
30
0
0
VERTEX
8
0
10
121.214724963836
20
91.5015240344274
30
0
0
VERTEX
8
0
10
122.033743375754
20
91.3393432557992
30
0
0
VERTEX
8
0
10
122.852761787672
20
91.1796497570067
30
0
0
VERTEX
8
0
10
123.67178019959
20
91.0184795844637
30
0
0
VERTEX
8
0
10
124.490798611508
20
90.8569437027533
30
0
0
VERTEX
8
0
10
125.309817023425
20
90.705889095048
30
0
0
VERTEX
8
0
10
126.128835435343
20
90.5526892407062
30
0
0
VERTEX
8
0
10
126.947853847261
20
90.3992561782816
30
0
0
VERTEX
8
0
10
127.766872259179
20
90.2500884106922
30
0
0
VERTEX
8
0
10
128.585890671097
20
90.1009778183277
30
0
0
VERTEX
8
0
10
129.404909083014
20
89.9518662976265
30
0
0
VERTEX
8
0
10
130.223927494932
20
89.8062232211362
30
0
0
VERTEX
8
0
10
131.04294590685
20
89.6619290147273
30
0
0
VERTEX
8
0
10
131.861964318768
20
89.5178913818357
30
0
0
VERTEX
8
0
10
132.680982730686
20
89.377636652526
30
0
0
VERTEX
8
0
10
133.500001142603
20
89.240892186772
30
0
0
VERTEX
8
0
10
134.319019554521
20
89.1044170676838
30
0
0
VERTEX
8
0
10
135.138037966439
20
88.9682126064135
30
0
0
VERTEX
8
0
10
135.957056378357
20
88.8322800557448
30
0
0
VERTEX
8
0
10
136.776074790275
20
88.6966206666919
30
0
0
VERTEX
8
0
10
137.595093202193
20
88.56123569465
30
0
0
VERTEX
8
0
10
138.41411161411
20
88.4332408070535
30
0
0
VERTEX
8
0
10
139.233130026028
20
88.3050191526045
30
0
0
VERTEX
8
0
10
140.052148437946
20
88.1770489022495
30
0
0
VERTEX
8
0
10
140.871166849864
20
88.0511965851538
30
0
0
VERTEX
8
0
10
141.690185261782
20
87.9259242873042
30
0
0
VERTEX
8
0
10
142.5092036737
20
87.8008979533617
30
0
0
VERTEX
8
0
10
143.328222085617
20
87.681579366232
30
0
0
VERTEX
8
0
10
144.147240497535
20
87.565768916554
30
0
0
VERTEX
8
0
10
144.966258909453
20
87.4501737554868
30
0
0
VERTEX
8
0
10
145.785277321371
20
87.3347947378898
30
0
0
VERTEX
8
0
10
146.604295733289
20
87.2378763375777
30
0
0
VERTEX
8
0
10
147.423314145207
20
87.1359030915899
30
0
0
VERTEX
8
0
10
148.242332557124
20
87.034101666746
30
0
0
VERTEX
8
0
10
149.061350969042
20
86.9273883708049
30
0
0
VERTEX
8
0
10
149.88036938096
20
86.8216280230195
30
0
0
VERTEX
8
0
10
150.699387792878
20
86.7160564659844
30
0
0
VERTEX
8
0
10
151.518406204796
20
86.5820146270135
30
0
0
VERTEX
8
0
10
152.337424616713
20
86.4468696849218
30
0
0
VERTEX
8
0
10
153.156443028631
20
86.312040902062
30
0
0
VERTEX
8
0
10
153.975461440549
20
86.1956751635684
30
0
0
VERTEX
8
0
10
154.794479852467
20
86.0862742128643
30
0
0
SEQEND
8
0
0
POLYLINE
8
0
62
2
70
0
10
0
20
0
30
0
0
VERTEX
8
0
10
2.45705523575344
20
0
30
0
0
VERTEX
8
0
10
3.27607364767126
20
0
30
0
0
VERTEX
8
0
10
4.09509205958907
20
0
30
0
0
VERTEX
8
0
10
4.91411047150689
20
0
30
0
0
VERTEX
8
0
10
5.7331288834247
20
0
30
0
0
VERTEX
8
0
10
6.55214729534252
20
0
30
0
0
VERTEX
8
0
10
7.37116570726033
20
0
30
0
0
VERTEX
8
0
10
8.19018411917815
20
0
30
0
0
VERTEX
8
0
10
9.00920253109596
20
0
30
0
0
VERTEX
8
0
10
9.82822094301378
20
0
30
0
0
VERTEX
8
0
10
10.6472393549316
20
0
30
0
0
VERTEX
8
0
10
11.4662577668494
20
0
30
0
0
VERTEX
8
0
10
12.2852761787672
20
0
30
0
0
VERTEX
8
0
10
13.104294590685
20
0
30
0
0
VERTEX
8
0
10
13.9233130026029
20
0
30
0
0
VERTEX
8
0
10
14.7423314145207
20
0
30
0
0
VERTEX
8
0
10
15.5613498264385
20
0
30
0
0
VERTEX
8
0
10
16.3803682383563
20
0
30
0
0
VERTEX
8
0
10
17.1993866502741
20
0
30
0
0
VERTEX
8
0
10
18.0184050621919
20
0
30
0
0
VERTEX
8
0
10
18.8374234741097
20
0
30
0
0
VERTEX
8
0
10
19.6564418860276
20
0
30
0
0
VERTEX
8
0
10
20.4754602979454
20
1.46366142439116
30
0
0
VERTEX
8
0
10
21.2944787098632
20
2.22514512558664
30
0
0
VERTEX
8
0
10
22.113497121781
20
2.83928506718883
30
0
0
VERTEX
8
0
10
22.9325155336988
20
3.38819636832748
30
0
0
VERTEX
8
0
10
23.7515339456166
20
3.90040358483879
30
0
0
VERTEX
8
0
10
24.5705523575345
20
4.38958486385163
30
0
0
VERTEX
8
0
10
25.3895707694523
20
4.86346023395147
30
0
0
VERTEX
8
0
10
26.2085891813701
20
5.3268638632687
30
0
0
VERTEX
8
0
10
27.0276075932879
20
5.78306279992909
30
0
0
VERTEX
8
0
10
27.8466260052057
20
6.23440876875672
30
0
0
VERTEX
8
0
10
28.6656444171235
20
6.68269585172306
30
0
0
VERTEX
8
0
10
29.4846628290413
20
7.12937497759462
30
0
0
VERTEX
8
0
10
30.3036812409592
20
7.57569449617785
30
0
0
VERTEX
8
0
10
31.122699652877
20
8.02280253187358
30
0
0
VERTEX
8
0
10
31.9417180647948
20
8.47183234649561
30
0
0
VERTEX
8
0
10
32.7607364767126
20
8.9239865585794
30
0
0
VERTEX
8
0
10
33.5797548886304
20
9.38063669924418
30
0
0
VERTEX
8
0
10
34.3987733005482
20
9.84346226999021
30
0
0
VERTEX
8
0
10
35.217791712466
20
10.3146750606457
30
0
0
VERTEX
8
0
10
36.0368101243838
20
10.7974331825833
30
0
0
VERTEX
8
0
10
36.8558285363017
20
11.296731829709
30
0
0
VERTEX
8
0
10
37.6748469482195
20
11.8217888351312
30
0
0
VERTEX
8
0
10
38.4938653601373
20
12.3956412528632
30
0
0
VERTEX
8
0
10
39.3128837720551
20
13.0610208556212
30
0
0
VERTEX
8
0
10
40.1319021839729
20
13.6176176728871
30
0
0
VERTEX
8
0
10
40.9509205958907
20
14.0865276718499
30
0
0
VERTEX
8
0
10
41.7699390078085
20
14.5070176610556
30
0
0
VERTEX
8
0
10
42.5889574197263
20
14.8938394882867
30
0
0
VERTEX
8
0
10
43.4079758316442
20
15.2548752058756
30
0
0
VERTEX
8
0
10
44.226994243562
20
15.5950499898254
30
0
0
VERTEX
8
0
10
45.0460126554798
20
15.9177303911787
30
0
0
VERTEX
8
0
10
45.8650310673976
20
16.2253572472386
30
0
0
VERTEX
8
0
10
46.6840494793154
20
16.5197759793668
30
0
0
VERTEX
8
0
10
47.5030678912332
20
16.8024264513724
30
0
0
VERTEX
8
0
10
48.322086303151
20
17.0744600567336
30
0
0
VERTEX
8
0
10
49.1411047150688
20
17.3368159112336
30
0
0
VERTEX
8
0
10
49.9601231269867
20
17.5902725824925
30
0
0
VERTEX
8
0
10
50.7791415389045
20
17.8354844397108
30
0
0
VERTEX
8
0
10
51.5981599508223
20
18.0730079339745
30
0
0
VERTEX
8
0
10
52.4171783627401
20
18.3033210596055
30
0
0
VERTEX
8
0
10
53.2361967746579
20
18.5268380642518
30
0
0
VERTEX
8
0
10
54.0552151865757
20
18.7439207661104
30
0
0
VERTEX
8
0
10
54.8742335984935
20
18.9548873967862
30
0
0
VERTEX
8
0
10
55.6932520104113
20
19.1600196054656
30
0
0
VERTEX
8
0
10
56.5122704223291
20
19.3595680744681
30
0
0
VERTEX
8
0
10
57.331288834247
20
19.553757070298
30
0
0
VERTEX
8
0
10
58.1503072461648
20
19.7427881685151
30
0
0
VERTEX
8
0
10
58.9693256580826
20
19.9268433291116
30
0
0
VERTEX
8
0
10
59.7883440700004
20
20.1060874563401
30
0
0
VERTEX
8
0
10
60.6073624819182
20
20.2806705450413
30
0
0
VERTEX
8
0
10
61.426380893836
20
20.4507294925462
30
0
0
VERTEX
8
0
10
62.2453993057538
20
20.6163896377216
30
0
0
VERTEX
8
0
10
63.0644177176716
20
20.7777660757936
30
0
0
VERTEX
8
0
10
63.8834361295894
20
20.9349647877616
30
0
0
VERTEX
8
0
10
64.7024545415073
20
21.0880836151485
30
0
0
VERTEX
8
0
10
65.5214729534251
20
21.2372131054691
30
0
0
VERTEX
8
0
10
66.3404913653429
20
21.3824372485146
30
0
0
VERTEX
8
0
10
67.1595097772607
20
21.5238341203514
30
0
0
VERTEX
8
0
10
67.9785281891785
20
21.6614764486447
30
0
0
VERTEX
8
0
10
68.7975466010963
20
21.7954321108246
30
0
0
VERTEX
8
0
10
69.6165650130141
20
21.9257645745295
30
0
0
VERTEX
8
0
10
70.4355834249319
20
22.0525332883014
30
0
0
VERTEX
8
0
10
71.2546018368498
20
22.1757940292039
30
0
0
VERTEX
8
0
10
72.0736202487676
20
22.295599213065
30
0
0
VERTEX
8
0
10
72.8926386606854
20
22.4119981721146
30
0
0
VERTEX
8
0
10
73.7116570726032
20
22.5250374041071
30
0
0
VERTEX
8
0
10
74.530675484521
20
22.6347607964927
30
0
0
VERTEX
8
0
10
75.3496938964388
20
22.7412098285323
30
0
0
VERTEX
8
0
10
76.1687123083566
20
22.8444237540811
30
0
0
VERTEX
8
0
10
76.9877307202744
20
22.9444397671824
30
0
0
VERTEX
8
0
10
77.8067491321923
20
23.0412931524837
30
0
0
VERTEX
8
0
10
78.6257675441101
20
23.1350174221112
30
0
0
VERTEX
8
0
10
79.4447859560279
20
23.2256444405516
30
0
0
VERTEX
8
0
10
80.2638043679457
20
23.3132045387334
30
0
0
VERTEX
8
0
10
81.0828227798635
20
23.3977266185734
30
0
0
VERTEX
8
0
10
81.9018411917813
20
23.4792382488856
30
0
0
VERTEX
8
0
10
82.7208596036991
20
23.5577657535233
30
0
0
VERTEX
8
0
10
83.5398780156169
20
23.6333342926958
30
0
0
VERTEX
8
0
10
84.3588964275347
20
23.7059679378992
30
0
0
VERTEX
8
0
10
85.1779148394526
20
23.7756897413173
30
0
0
VERTEX
8
0
10
85.9969332513704
20
23.8425218000538
30
0
0
VERTEX
8
0
10
86.8159516632882
20
23.906485315832
30
0
0
VERTEX
8
0
10
87.634970075206
20
23.967600650523
30
0
0
VERTEX
8
0
10
88.4539884871238
20
24.0258873778453
30
0
0
VERTEX
8
0
10
89.2730068990416
20
24.0813643317435
30
0
0
VERTEX
8
0
10
90.0920253109594
20
24.134049651604
30
0
0
VERTEX
8
0
10
90.9110437228772
20
24.183960824715
30
0
0
VERTEX
8
0
10
91.730062134795
20
24.2311147261248
30
0
0
VERTEX
8
0
10
92.5490805467129
20
24.2755276562548
30
0
0
VERTEX
8
0
10
93.3680989586307
20
24.3172153763908
30
0
0
VERTEX
8
0
10
94.1871173705485
20
24.3561931422717
30
0
0
VERTEX
8
0
10
95.0061357824663
20
24.3924757359956
30
0
0
VERTEX
8
0
10
95.8251541943841
20
24.4260774963533
30
0
0
VERTEX
8
0
10
96.6441726063019
20
24.4570123477827
30
0
0
VERTEX
8
0
10
97.4631910182197
20
24.4852938280798
30
0
0
VERTEX
8
0
10
98.2822094301375
20
24.5109351149581
30
0
0
VERTEX
8
0
10
99.1012278420554
20
24.5339490516578
30
0
0
VERTEX
8
0
10
99.9202462539732
20
24.5543481716333
30
0
0
VERTEX
8
0
10
100.739264665891
20
24.5721447224914
30
0
0
VERTEX
8
0
10
101.558283077809
20
24.5873506892467
30
0
0
VERTEX
8
0
10
102.377301489727
20
24.5999778170022
30
0
0
VERTEX
8
0
10
103.196319901644
20
24.6100376331635
30
0
0
VERTEX
8
0
10
104.015338313562
20
24.6175414692236
30
0
0
VERTEX
8
0
10
104.83435672548
20
24.6225004822899
30
0
0
VERTEX
8
0
10
105.653375137398
20
24.624925676341
30
0
0
VERTEX
8
0
10
106.472393549316
20
24.624827923372
30
0
0
VERTEX
8
0
10
107.291411961233
20
24.6222179844628
30
0
0
VERTEX
8
0
10
108.110430373151
20
24.6171065308529
30
0
0
VERTEX
8
0
10
108.929448785069
20
24.6095041651582
30
0
0
VERTEX
8
0
10
109.748467196987
20
24.5994214426915
30
0
0
VERTEX
8
0
10
110.567485608905
20
24.5868688931107
30
0
0
VERTEX
8
0
10
111.386504020823
20
24.5718570423543
30
0
0
VERTEX
8
0
10
112.20552243274
20
24.5543964350234
30
0
0
VERTEX
8
0
10
113.024540844658
20
24.5344976572531
30
0
0
VERTEX
8
0
10
113.843559256576
20
24.5121713602139
30
0
0
VERTEX
8
0
10
114.662577668494
20
24.4874282842411
30
0
0
VERTEX
8
0
10
115.481596080412
20
24.4602792838154
30
0
0
VERTEX
8
0
10
116.300614492329
20
24.4307353533729
30
0
0
VERTEX
8
0
10
117.119632904247
20
24.3988076541469
30
0
0
VERTEX
8
0
10
117.938651316165
20
24.364507542087
30
0
0
VERTEX
8
0
10
118.757669728083
20
24.3278465970169
30
0
0
VERTEX
8
0
10
119.576688140001
20
24.2888366531417
30
0
0
VERTEX
8
0
10
120.395706551918
20
24.2474898310439
30
0
0
VERTEX
8
0
10
121.214724963836
20
24.2038185713071
30
0
0
VERTEX
8
0
10
122.033743375754
20
24.1578356699516
30
0
0
VERTEX
8
0
10
122.852761787672
20
24.1095543158113
30
0
0
VERTEX
8
0
10
123.67178019959
20
24.0589881300799
30
0
0
VERTEX
8
0
10
124.490798611508
20
24.0061512081847
30
0
0
VERTEX
8
0
10
125.309817023425
20
23.9510581642433
30
0
0
VERTEX
8
0
10
126.128835435343
20
23.8937241783121
30
0
0
VERTEX
8
0
10
126.947853847261
20
23.8341650467059
30
0
0
VERTEX
8
0
10
127.766872259179
20
23.7723972356395
30
0
0
VERTEX
8
0
10
128.585890671097
20
23.708437938555
30
0
0
VERTEX
8
0
10
129.404909083014
20
23.6423051374207
30
0
0
VERTEX
8
0
10
130.223927494932
20
23.5740176684163
30
0
0
VERTEX
8
0
10
131.04294590685
20
23.5035952924006
30
0
0
VERTEX
8
0
10
131.861964318768
20
23.4310587706341
30
0
0
VERTEX
8
0
10
132.680982730686
20
23.3564299462591
30
0
0
VERTEX
8
0
10
133.500001142603
20
23.2797318321124
30
0
0
VERTEX
8
0
10
134.319019554521
20
23.2009887055059
30
0
0
VERTEX
8
0
10
135.138037966439
20
23.1202262106843
30
0
0
VERTEX
8
0
10
135.957056378357
20
23.0374714697586
30
0
0
VERTEX
8
0
10
136.776074790275
20
22.9527532030171
30
0
0
VERTEX
8
0
10
137.595093202193
20
22.8661018596353
30
0
0
VERTEX
8
0
10
138.41411161411
20
22.7775497599298
30
0
0
VERTEX
8
0
10
139.233130026028
20
22.6871312504776
30
0
0
VERTEX
8
0
10
140.052148437946
20
22.594882873606
30
0
0
VERTEX
8
0
10
140.871166849864
20
22.5008435529792
30
0
0
VERTEX
8
0
10
141.690185261782
20
22.405054797279
30
0
0
VERTEX
8
0
10
142.5092036737
20
22.3075609243017
30
0
0
VERTEX
8
0
10
143.328222085617
20
22.2084093081789
30
0
0
VERTEX
8
0
10
144.147240497535
20
22.1076506529054
30
0
0
VERTEX
8
0
10
144.966258909453
20
22.005339295945
30
0
0
VERTEX
8
0
10
145.785277321371
20
21.9015335464132
30
0
0
VERTEX
8
0
10
146.604295733289
20
21.7962960632327
30
0
0
VERTEX
8
0
10
147.423314145207
20
21.689694279827
30
0
0
VERTEX
8
0
10
148.242332557124
20
21.5818008833759
30
0
0
VERTEX
8
0
10
149.061350969042
20
21.4726943585813
30
0
0
VERTEX
8
0
10
149.88036938096
20
21.3624596083941
30
0
0
VERTEX
8
0
10
150.699387792878
20
21.2511886675132
30
0
0
VERTEX
8
0
10
151.518406204796
20
21.1389815290018
30
0
0
VERTEX
8
0
10
152.337424616713
20
21.0259471106368
30
0
0
VERTEX
8
0
10
153.156443028631
20
20.9122043964257
30
0
0
VERTEX
8
0
10
153.975461440549
20
20.7978838014156
30
0
0
VERTEX
8
0
10
154.794479852467
20
20.6831288266522
30
0
0
SEQEND
8
0
0
POLYLINE
8
0
62
3
70
0
10
0
20
0
30
0
0
VERTEX
8
0
10
2.45705523575344
20
0
30
0
0
VERTEX
8
0
10
3.27607364767126
20
0
30
0
0
VERTEX
8
0
10
4.09509205958907
20
0
30
0
0
VERTEX
8
0
10
4.91411047150689
20
0
30
0
0
VERTEX
8
0
10
5.7331288834247
20
0
30
0
0
VERTEX
8
0
10
6.55214729534252
20
0
30
0
0
VERTEX
8
0
10
7.37116570726033
20
0
30
0
0
VERTEX
8
0
10
8.19018411917815
20
0
30
0
0
VERTEX
8
0
10
9.00920253109596
20
0
30
0
0
VERTEX
8
0
10
9.82822094301378
20
0
30
0
0
VERTEX
8
0
10
10.6472393549316
20
0
30
0
0
VERTEX
8
0
10
11.4662577668494
20
0
30
0
0
VERTEX
8
0
10
12.2852761787672
20
0
30
0
0
VERTEX
8
0
10
13.104294590685
20
0
30
0
0
VERTEX
8
0
10
13.9233130026029
20
0.203072628435804
30
0
0
VERTEX
8
0
10
14.7423314145207
20
1.45297326753687
30
0
0
VERTEX
8
0
10
15.5613498264385
20
2.12714177487507
30
0
0
VERTEX
8
0
10
16.3803682383563
20
2.70050245652127
30
0
0
VERTEX
8
0
10
17.1993866502741
20
3.228786248814
30
0
0
VERTEX
8
0
10
18.0184050621919
20
3.73244674816756
30
0
0
VERTEX
8
0
10
18.8374234741097
20
4.22135950414695
30
0
0
VERTEX
8
0
10
19.6564418860276
20
4.70102590412227
30
0
0
VERTEX
8
0
10
20.4754602979454
20
5.17479853369261
30
0
0
VERTEX
8
0
10
21.2944787098632
20
5.64485280913723
30
0
0
VERTEX
8
0
10
22.113497121781
20
6.1126693962263
30
0
0
VERTEX
8
0
10
22.9325155336988
20
6.57929688069461
30
0
0
VERTEX
8
0
10
23.7515339456166
20
7.04550530326491
30
0
0
VERTEX
8
0
10
24.5705523575345
20
7.51188129252794
30
0
0
VERTEX
8
0
10
25.3895707694523
20
7.9788901545145
30
0
0
VERTEX
8
0
10
26.2085891813701
20
8.44691852492263
30
0
0
VERTEX
8
0
10
27.0276075932879
20
8.91630536867204
30
0
0
VERTEX
8
0
10
27.8466260052057
20
9.38736609056989
30
0
0
VERTEX
8
0
10
28.6656444171235
20
9.86041293306857
30
0
0
VERTEX
8
0
10
29.4846628290413
20
10.3357740591847
30
0
0
VERTEX
8
0
10
30.3036812409592
20
10.813813477529
30
0
0
VERTEX
8
0
10
31.122699652877
20
11.294954202235
30
0
0
VERTEX
8
0
10
31.9417180647948
20
11.7797078618268
30
0
0
VERTEX
8
0
10
32.7607364767126
20
12.2687157631125
30
0
0
VERTEX
8
0
10
33.5797548886304
20
12.7628100991542
30
0
0
VERTEX
8
0
10
34.3987733005482
20
13.2631118505993
30
0
0
VERTEX
8
0
10
35.217791712466
20
13.7712000908039
30
0
0
VERTEX
8
0
10
36.0368101243838
20
14.2894345962408
30
0
0
VERTEX
8
0
10
36.8558285363017
20
14.8216587678601
30
0
0
VERTEX
8
0
10
37.6748469482195
20
15.3750888091413
30
0
0
VERTEX
8
0
10
38.4938653601373
20
15.9679072895514
30
0
0
VERTEX
8
0
10
39.3128837720551
20
16.6342522690818
30
0
0
VERTEX
8
0
10
40.1319021839729
20
17.2158768002535
30
0
0
VERTEX
8
0
10
40.9509205958907
20
17.7271217597815
30
0
0
VERTEX
8
0
10
41.7699390078085
20
18.1983632862944
30
0
0
VERTEX
8
0
10
42.5889574197263
20
18.6410847205887
30
0
0
VERTEX
8
0
10
43.4079758316442
20
19.0614749441445
30
0
0
VERTEX
8
0
10
44.226994243562
20
19.4634378930467
30
0
0
VERTEX
8
0
10
45.0460126554798
20
19.8496676589175
30
0
0
VERTEX
8
0
10
45.8650310673976
20
20.2221357895885
30
0
0
VERTEX
8
0
10
46.6840494793154
20
20.582346244052
30
0
0
VERTEX
8
0
10
47.5030678912332
20
20.9314824419163
30
0
0
VERTEX
8
0
10
48.322086303151
20
21.2704983148297
30
0
0
VERTEX
8
0
10
49.1411047150688
20
21.6001778209119
30
0
0
VERTEX
8
0
10
49.9601231269867
20
21.9211755430334
30
0
0
VERTEX
8
0
10
50.7791415389045
20
22.2340453577517
30
0
0
VERTEX
8
0
10
51.5981599508223
20
22.5392612671582
30
0
0
VERTEX
8
0
10
52.4171783627401
20
22.8372329040468
30
0
0
VERTEX
8
0
10
53.2361967746579
20
23.1283173113346
30
0
0
VERTEX
8
0
10
54.0552151865757
20
23.4128280503553
30
0
0
VERTEX
8
0
10
54.8742335984935
20
23.6910423532439
30
0
0
VERTEX
8
0
10
55.6932520104113
20
23.9632068159246
30
0
0
VERTEX
8
0
10
56.5122704223291
20
24.2295419843803
30
0
0
VERTEX
8
0
10
57.331288834247
20
24.4902460890252
30
0
0
VERTEX
8
0
10
58.1503072461648
20
24.7454981151923
30
0
0
VERTEX
8
0
10
58.9693256580826
20
24.995460349595
30
0
0
VERTEX
8
0
10
59.7883440700004
20
25.2402805091623
30
0
0
VERTEX
8
0
10
60.6073624819182
20
25.480093533591
30
0
0
VERTEX
8
0
10
61.426380893836
20
25.7150231048671
30
0
0
VERTEX
8
0
10
62.2453993057538
20
25.9451829431731
30
0
0
VERTEX
8
0
10
63.0644177176716
20
26.1706779183568
30
0
0
VERTEX
8
0
10
63.8834361295894
20
26.3916050083258
30
0
0
VERTEX
8
0
10
64.7024545415073
20
26.6080541293063
30
0
0
VERTEX
8
0
10
65.5214729534251
20
26.8201088586132
30
0
0
VERTEX
8
0
10
66.3404913653429
20
27.0278470663423
30
0
0
VERTEX
8
0
10
67.1595097772607
20
27.2313414698243
30
0
0
VERTEX
8
0
10
67.9785281891785
20
27.4306601220231
30
0
0
VERTEX
8
0
10
68.7975466010963
20
27.625866843373
30
0
0
VERTEX
8
0
10
69.6165650130141
20
27.817021604855
30
0
0
VERTEX
8
0
10
70.4355834249319
20
28.0041808689268
30
0
0
VERTEX
8
0
10
71.2546018368498
20
28.1873978938577
30
0
0
VERTEX
8
0
10
72.0736202487676
20
28.3667230062216
30
0
0
VERTEX
8
0
10
72.8926386606854
20
28.5422038455439
30
0
0
VERTEX
8
0
10
73.7116570726032
20
28.7138855845325
30
0
0
VERTEX
8
0
10
74.530675484521
20
28.8818111278902
30
0
0
VERTEX
8
0
10
75.3496938964388
20
29.0460212921579
30
0
0
VERTEX
8
0
10
76.1687123083566
20
29.206554968884
30
0
0
VERTEX
8
0
10
76.9877307202744
20
29.3634492729482
30
0
0
VERTEX
8
0
10
77.8067491321923
20
29.5167396777404
30
0
0
VERTEX
8
0
10
78.6257675441101
20
29.6664601385994
30
0
0
VERTEX
8
0
10
79.4447859560279
20
29.8126432058276
30
0
0
VERTEX
8
0
10
80.2638043679457
20
29.9553201283111
30
0
0
VERTEX
8
0
10
81.0828227798635
20
30.0945209488245
30
0
0
VERTEX
8
0
10
81.9018411917813
20
30.2302745917978
30
0
0
VERTEX
8
0
10
82.7208596036991
20
30.3626089443024
30
0
0
VERTEX
8
0
10
83.5398780156169
20
30.4915509310521
30
0
0
VERTEX
8
0
10
84.3588964275347
20
30.6171265838265
30
0
0
VERTEX
8
0
10
85.1779148394526
20
30.7393611060362
30
0
0
VERTEX
8
0
10
85.9969332513704
20
30.8582789327625
30
0
0
VERTEX
8
0
10
86.8159516632882
20
30.9739037868132
30
0
0
VERTEX
8
0
10
87.634970075206
20
31.0862587311175
30
0
0
VERTEX
8
0
10
88.4539884871238
20
31.1953662177642
30
0
0
VERTEX
8
0
10
89.2730068990416
20
31.3012481341156
30
0
0
VERTEX
8
0
10
90.0920253109594
20
31.4039258461499
30
0
0
VERTEX
8
0
10
90.9110437228772
20
31.5034202393795
30
0
0
VERTEX
8
0
10
91.730062134795
20
31.5997517574935
30
0
0
VERTEX
8
0
10
92.5490805467129
20
31.6929404390229
30
0
0
VERTEX
8
0
10
93.3680989586307
20
31.7830059521518
30
0
0
VERTEX
8
0
10
94.1871173705485
20
31.8699676278631
30
0
0
VERTEX
8
0
10
95.0061357824663
20
31.9538444916094
30
0
0
VERTEX
8
0
10
95.8251541943841
20
32.0346552936147
30
0
0
VERTEX
8
0
10
96.6441726063019
20
32.1124185379699
30
0
0
VERTEX
8
0
10
97.4631910182197
20
32.1871525106467
30
0
0
VERTEX
8
0
10
98.2822094301375
20
32.258875306512
30
0
0
VERTEX
8
0
10
99.1012278420554
20
32.327604855513
30
0
0
VERTEX
8
0
10
99.9202462539732
20
32.3933589480676
30
0
0
VERTEX
8
0
10
100.739264665891
20
32.4561552598032
30
0
0
VERTEX
8
0
10
101.558283077809
20
32.5160113757052
30
0
0
VERTEX
8
0
10
102.377301489727
20
32.5729448137694
30
0
0
VERTEX
8
0
10
103.196319901644
20
32.6269730482478
30
0
0
VERTEX
8
0
10
104.015338313562
20
32.6781135325248
30
0
0
VERTEX
8
0
10
104.83435672548
20
32.7263837217631
30
0
0
VERTEX
8
0
10
105.653375137398
20
32.7718010953127
30
0
0
VERTEX
8
0
10
106.472393549316
20
32.8143831790133
30
0
0
VERTEX
8
0
10
107.291411961233
20
32.8541475674176
30
0
0
VERTEX
8
0
10
108.110430373151
20
32.8911119460042
30
0
0
VERTEX
8
0
10
108.929448785069
20
32.9252941134844
30
0
0
VERTEX
8
0
10
109.748467196987
20
32.9567120041775
30
0
0
VERTEX
8
0
10
110.567485608905
20
32.9853837106219
30
0
0
VERTEX
8
0
10
111.386504020823
20
33.0113275063954
30
0
0
VERTEX
8
0
10
112.20552243274
20
33.0345618692592
30
0
0
VERTEX
8
0
10
113.024540844658
20
33.0551055046585
30
0
0
VERTEX
8
0
10
113.843559256576
20
33.0729773696812
30
0
0
VERTEX
8
0
10
114.662577668494
20
33.0881966974677
30
0
0
VERTEX
8
0
10
115.481596080412
20
33.1007830222331
30
0
0
VERTEX
8
0
10
116.300614492329
20
33.1107562048787
30
0
0
VERTEX
8
0
10
117.119632904247
20
33.1181364593334
30
0
0
VERTEX
8
0
10
117.938651316165
20
33.1229443796482
30
0
0
VERTEX
8
0
10
118.757669728083
20
33.1252009679517
30
0
0
VERTEX
8
0
10
119.576688140001
20
33.1249276633327
30
0
0
VERTEX
8
0
10
120.395706551918
20
33.1221463717368
30
0
0
VERTEX
8
0
10
121.214724963836
20
33.1168794969587
30
0
0
VERTEX
8
0
10
122.033743375754
20
33.1091499728461
30
0
0
VERTEX
8
0
10
122.852761787672
20
33.0989812967809
30
0
0
VERTEX
8
0
10
123.67178019959
20
33.0863975645818
30
0
0
VERTEX
8
0
10
124.490798611508
20
33.0714235069068
30
0
0
VERTEX
8
0
10
125.309817023425
20
33.0540845273103
30
0
0
VERTEX
8
0
10
126.128835435343
20
33.0344067420643
30
0
0
VERTEX
8
0
10
126.947853847261
20
33.0124170219013
30
0
0
VERTEX
8
0
10
127.766872259179
20
32.9881430358131
30
0
0
VERTEX
8
0
10
128.585890671097
20
32.9616132971088
30
0
0
VERTEX
8
0
10
129.404909083014
20
32.9328572118794
30
0
0
VERTEX
8
0
10
130.223927494932
20
32.9019051300955
30
0
0
VERTEX
8
0
10
131.04294590685
20
32.8687883995453
30
0
0
VERTEX
8
0
10
131.861964318768
20
32.8335394228667
30
0
0
VERTEX
8
0
10
132.680982730686
20
32.7961917179355
30
0
0
VERTEX
8
0
10
133.500001142603
20
32.7567799819138
30
0
0
VERTEX
8
0
10
134.319019554521
20
32.7153401592919
30
0
0
VERTEX
8
0
10
135.138037966439
20
32.6719095142954
30
0
0
VERTEX
8
0
10
135.957056378357
20
32.6265267080772
30
0
0
VERTEX
8
0
10
136.776074790275
20
32.5792318811666
30
0
0
VERTEX
8
0
10
137.595093202193
20
32.530066741716
30
0
0
VERTEX
8
0
10
138.41411161411
20
32.4790746601474
30
0
0
VERTEX
8
0
10
139.233130026028
20
32.4263007708993
30
0
0
VERTEX
8
0
10
140.052148437946
20
32.3717920820792
30
0
0
VERTEX
8
0
10
140.871166849864
20
32.3155975939419
30
0
0
VERTEX
8
0
10
141.690185261782
20
32.2577684272744
30
0
0
VERTEX
8
0
10
142.5092036737
20
32.1983579629484
30
0
0
VERTEX
8
0
10
143.328222085617
20
32.1374219941199
30
0
0
VERTEX
8
0
10
144.147240497535
20
32.0750188928387
30
0
0
VERTEX
8
0
10
144.966258909453
20
32.0112097931616
30
0
0
VERTEX
8
0
10
145.785277321371
20
31.946058793303
30
0
0
VERTEX
8
0
10
146.604295733289
20
31.879633179881
30
0
0
VERTEX
8
0
10
147.423314145207
20
31.8120036780205
30
0
0
VERTEX
8
0
10
148.242332557124
20
31.7432447319497
30
0
0
VERTEX
8
0
10
149.061350969042
20
31.6734348218971
30
0
0
VERTEX
8
0
10
149.88036938096
20
31.6026568246187
30
0
0
VERTEX
8
0
10
150.699387792878
20
31.5309984269451
30
0
0
VERTEX
8
0
10
151.518406204796
20
31.4585526045336
30
0
0
VERTEX
8
0
10
152.337424616713
20
31.3854181818863
30
0
0
VERTEX
8
0
10
153.156443028631
20
31.3117004951732
30
0
0
VERTEX
8
0
10
153.975461440549
20
31.237512187302
30
0
0
VERTEX
8
0
10
154.794479852467
20
31.162974176379
30
0
0
SEQEND
8
0
0
POLYLINE
8
0
62
4
70
0
10
0
20
0
30
0
0
VERTEX
8
0
10
2.45705523575344
20
0.995932196129807
30
0
0
VERTEX
8
0
10
3.27607364767126
20
1.29744471294702
30
0
0
VERTEX
8
0
10
4.09509205958907
20
1.59895722976424
30
0
0
VERTEX
8
0
10
4.91411047150689
20
1.90046974658146
30
0
0
VERTEX
8
0
10
5.7331288834247
20
2.17203470968905
30
0
0
VERTEX
8
0
10
6.55214729534252
20
2.41934272910093
30
0
0
VERTEX
8
0
10
7.37116570726033
20
2.66665074851281
30
0
0
VERTEX
8
0
10
8.19018411917815
20
2.91395876792469
30
0
0
VERTEX
8
0
10
9.00920253109596
20
3.09374468177364
30
0
0
VERTEX
8
0
10
9.82822094301378
20
3.29023598486801
30
0
0
VERTEX
8
0
10
10.6472393549316
20
3.48672728796239
30
0
0
VERTEX
8
0
10
11.4662577668494
20
3.61583659521008
30
0
0
VERTEX
8
0
10
12.2852761787672
20
3.75134783872344
30
0
0
VERTEX
8
0
10
13.104294590685
20
3.8868590822368
30
0
0
VERTEX
8
0
10
13.9233130026029
20
3.91121453617552
30
0
0
VERTEX
8
0
10
14.7423314145207
20
4.1706076754334
30
0
0
VERTEX
8
0
10
15.5613498264385
20
4.45354561685222
30
0
0
VERTEX
8
0
10
16.3803682383563
20
4.75511639090286
30
0
0
VERTEX
8
0
10
17.1993866502741
20
5.07380321000786
30
0
0
VERTEX
8
0
10
18.0184050621919
20
5.40828781605253
30
0
0
VERTEX
8
0
10
18.8374234741097
20
5.75658704760098
30
0
0
VERTEX
8
0
10
19.6564418860276
20
6.11703056430032
30
0
0
VERTEX
8
0
10
20.4754602979454
20
6.32096934594782
30
0
0
VERTEX
8
0
10
21.2944787098632
20
6.49857759669438
30
0
0
VERTEX
8
0
10
22.113497121781
20
6.70887970340244
30
0
0
VERTEX
8
0
10
22.9325155336988
20
6.91643179691852
30
0
0
VERTEX
8
0
10
23.7515339456166
20
7.12621461942996
30
0
0
VERTEX
8
0
10
24.5705523575345
20
7.46886562975382
30
0
0
VERTEX
8
0
10
25.3895707694523
20
7.81519414399472
30
0
0
VERTEX
8
0
10
26.2085891813701
20
8.16315754690739
30
0
0
VERTEX
8
0
10
27.0276075932879
20
8.60542694409327
30
0
0
VERTEX
8
0
10
27.8466260052057
20
9.08270534301216
30
0
0
VERTEX
8
0
10
28.6656444171235
20
9.56577373681057
30
0
0
VERTEX
8
0
10
29.4846628290413
20
10.0112515550491
30
0
0
VERTEX
8
0
10
30.3036812409592
20
10.4225733395293
30
0
0
VERTEX
8
0
10
31.122699652877
20
10.8353135472606
30
0
0
VERTEX
8
0
10
31.9417180647948
20
11.2493023074932
30
0
0
VERTEX
8
0
10
32.7607364767126
20
11.4992081241692
30
0
0
VERTEX
8
0
10
33.5797548886304
20
11.7888639055222
30
0
0
VERTEX
8
0
10
34.3987733005482
20
12.0787757634639
30
0
0
VERTEX
8
0
10
35.217791712466
20
12.4189360646009
30
0
0
VERTEX
8
0
10
36.0368101243838
20
12.7550237790975
30
0
0
VERTEX
8
0
10
36.8558285363017
20
13.0911838806502
30
0
0
VERTEX
8
0
10
37.6748469482195
20
13.5845523840187
30
0
0
VERTEX
8
0
10
38.4938653601373
20
14.1047345137824
30
0
0
VERTEX
8
0
10
39.3128837720551
20
14.6273400690133
30
0
0
VERTEX
8
0
10
40.1319021839729
20
15.1693020775593
30
0
0
VERTEX
8
0
10
40.9509205958907
20
15.7221779569829
30
0
0
VERTEX
8
0
10
41.7699390078085
20
16.275553059982
30
0
0
VERTEX
8
0
10
42.5889574197263
20
16.8293139496657
30
0
0
VERTEX
8
0
10
43.4079758316442
20
17.2965407076421
30
0
0
VERTEX
8
0
10
44.226994243562
20
17.7884191997716
30
0
0
VERTEX
8
0
10
45.0460126554798
20
18.2795058660504
30
0
0
VERTEX
8
0
10
45.8650310673976
20
18.7232962596792
30
0
0
VERTEX
8
0
10
46.6840494793154
20
19.1734777179556
30
0
0
VERTEX
8
0
10
47.5030678912332
20
19.6224959056795
30
0
0
VERTEX
8
0
10
48.322086303151
20
20.0882561300488
30
0
0
VERTEX
8
0
10
49.1411047150688
20
20.5535786487256
30
0
0
VERTEX
8
0
10
49.9601231269867
20
21.0179757305668
30
0
0
VERTEX
8
0
10
50.7791415389045
20
21.5553188460286
30
0
0
VERTEX
8
0
10
51.5981599508223
20
22.1175197247782
30
0
0
VERTEX
8
0
10
52.4171783627401
20
22.6798734137969
30
0
0
VERTEX
8
0
10
53.2361967746579
20
23.2080619801635
30
0
0
VERTEX
8
0
10
54.0552151865757
20
23.7047905600853
30
0
0
VERTEX
8
0
10
54.8742335984935
20
24.2009102787136
30
0
0
VERTEX
8
0
10
55.6932520104113
20
24.6964225380233
30
0
0
VERTEX
8
0
10
56.5122704223291
20
24.9509812748093
30
0
0
VERTEX
8
0
10
57.331288834247
20
25.2597301681393
30
0
0
VERTEX
8
0
10
58.1503072461648
20
25.5671651119719
30
0
0
VERTEX
8
0
10
58.9693256580826
20
25.7814704954153
30
0
0
VERTEX
8
0
10
59.7883440700004
20
26.0011843460041
30
0
0
VERTEX
8
0
10
60.6073624819182
20
26.2197044234615
30
0
0
VERTEX
8
0
10
61.426380893836
20
26.5328862378813
30
0
0
VERTEX
8
0
10
62.2453993057538
20
26.8612917982919
30
0
0
VERTEX
8
0
10
63.0644177176716
20
27.188502885457
30
0
0
VERTEX
8
0
10
63.8834361295894
20
27.4833650554525
30
0
0
VERTEX
8
0
10
64.7024545415073
20
27.7587000723708
30
0
0
VERTEX
8
0
10
65.5214729534251
20
28.0328214896323
30
0
0
VERTEX
8
0
10
66.3404913653429
20
28.3057397646541
30
0
0
VERTEX
8
0
10
67.1595097772607
20
28.4075406922587
30
0
0
VERTEX
8
0
10
67.9785281891785
20
28.5574646234762
30
0
0
VERTEX
8
0
10
68.7975466010963
20
28.7063829375374
30
0
0
VERTEX
8
0
10
69.6165650130141
20
28.6868767998326
30
0
0
VERTEX
8
0
10
70.4355834249319
20
28.6931322502173
30
0
0
VERTEX
8
0
10
71.2546018368498
20
28.6992218555948
30
0
0
VERTEX
8
0
10
72.0736202487676
20
28.697411946288
30
0
0
VERTEX
8
0
10
72.8926386606854
20
28.6951341896532
30
0
0
VERTEX
8
0
10
73.7116570726032
20
28.6927024431233
30
0
0
VERTEX
8
0
10
74.530675484521
20
28.705642686611
30
0
0
VERTEX
8
0
10
75.3496938964388
20
28.7238324506799
30
0
0
VERTEX
8
0
10
76.1687123083566
20
28.7416199641007
30
0
0
VERTEX
8
0
10
76.9877307202744
20
28.7776762527208
30
0
0
VERTEX
8
0
10
77.8067491321923
20
28.830959135156
30
0
0
VERTEX
8
0
10
78.6257675441101
20
28.8835118206055
30
0
0
VERTEX
8
0
10
79.4447859560279
20
28.9353212385424
30
0
0
VERTEX
8
0
10
80.2638043679457
20
28.9266893033528
30
0
0
VERTEX
8
0
10
81.0828227798635
20
28.9310226385611
30
0
0
VERTEX
8
0
10
81.9018411917813
20
28.9349303547323
30
0
0
VERTEX
8
0
10
82.7208596036991
20
28.9086989370951
30
0
0
VERTEX
8
0
10
83.5398780156169
20
28.8840690932812
30
0
0
VERTEX
8
0
10
84.3588964275347
20
28.8592407377043
30
0
0
VERTEX
8
0
10
85.1779148394526
20
28.9266100187076
30
0
0
VERTEX
8
0
10
85.9969332513704
20
29.0106189436925
30
0
0
VERTEX
8
0
10
86.8159516632882
20
29.0935789828136
30
0
0
VERTEX
8
0
10
87.634970075206
20
29.2000272489369
30
0
0
VERTEX
8
0
10
88.4539884871238
20
29.3206207308028
30
0
0
VERTEX
8
0
10
89.2730068990416
20
29.4400499456665
30
0
0
VERTEX
8
0
10
90.0920253109594
20
29.5583180528923
30
0
0
VERTEX
8
0
10
90.9110437228772
20
29.7654307465953
30
0
0
VERTEX
8
0
10
91.730062134795
20
29.9460718261373
30
0
0
VERTEX
8
0
10
92.5490805467129
20
30.1256078696587
30
0
0
VERTEX
8
0
10
93.3680989586307
20
30.3361816474774
30
0
0
VERTEX
8
0
10
94.1871173705485
20
30.5411332036911
30
0
0
VERTEX
8
0
10
95.0061357824663
20
30.7451030241828
30
0
0
VERTEX
8
0
10
95.8251541943841
20
30.9718813586841
30
0
0
VERTEX
8
0
10
96.6441726063019
20
31.1992035433102
30
0
0
VERTEX
8
0
10
97.4631910182197
20
31.4256967543683
30
0
0
VERTEX
8
0
10
98.2822094301375
20
31.680657990717
30
0
0
VERTEX
8
0
10
99.1012278420554
20
31.9463556177511
30
0
0
VERTEX
8
0
10
99.9202462539732
20
32.2115068640648
30
0
0
VERTEX
8
0
10
100.739264665891
20
32.4761203645585
30
0
0
VERTEX
8
0
10
101.558283077809
20
32.7980720217314
30
0
0
VERTEX
8
0
10
102.377301489727
20
33.1006463563868
30
0
0
VERTEX
8
0
10
103.196319901644
20
33.4029934704799
30
0
0
VERTEX
8
0
10
104.015338313562
20
33.6619250521111
30
0
0
VERTEX
8
0
10
104.83435672548
20
33.9296370077239
30
0
0
VERTEX
8
0
10
105.653375137398
20
34.1968934398049
30
0
0
VERTEX
8
0
10
106.472393549316
20
34.4277831712207
30
0
0
VERTEX
8
0
10
107.291411961233
20
34.6597431815923
30
0
0
VERTEX
8
0
10
108.110430373151
20
34.8910845302687
30
0
0
VERTEX
8
0
10
108.929448785069
20
34.9840462645
30
0
0
VERTEX
8
0
10
109.748467196987
20
35.0471194855653
30
0
0
VERTEX
8
0
10
110.567485608905
20
35.1092868483343
30
0
0
VERTEX
8
0
10
111.386504020823
20
35.0815878309179
30
0
0
VERTEX
8
0
10
112.20552243274
20
34.9946960589017
30
0
0
VERTEX
8
0
10
113.024540844658
20
34.9074561281111
30
0
0
VERTEX
8
0
10
113.843559256576
20
34.8198669869063
30
0
0
VERTEX
8
0
10
114.662577668494
20
34.7175867646693
30
0
0
VERTEX
8
0
10
115.481596080412
20
34.6189791838038
30
0
0
VERTEX
8
0
10
116.300614492329
20
34.5200928327236
30
0
0
VERTEX
8
0
10
117.119632904247
20
34.5131215584134
30
0
0
VERTEX
8
0
10
117.938651316165
20
34.493043194114
30
0
0
VERTEX
8
0
10
118.757669728083
20
34.4722543186619
30
0
0
VERTEX
8
0
10
119.576688140001
20
34.0479744960244
30
0
0
VERTEX
8
0
10
120.395706551918
20
33.5988434023068
30
0
0
VERTEX
8
0
10
121.214724963836
20
33.1550926959801
30
0
0
VERTEX
8
0
10
122.033743375754
20
31.6233039959083
30
0
0
VERTEX
8
0
10
122.852761787672
20
30.9934293547763
30
0
0
VERTEX
8
0
10
123.67178019959
20
30.6153216408901
30
0
0
VERTEX
8
0
10
124.490798611508
20
30.2434094365445
30
0
0
VERTEX
8
0
10
125.309817023425
20
30.3352289068539
30
0
0
VERTEX
8
0
10
126.128835435343
20
30.3522927602536
30
0
0
VERTEX
8
0
10
126.947853847261
20
30.3684880902605
30
0
0
VERTEX
8
0
10
127.766872259179
20
30.3902944386246
30
0
0
VERTEX
8
0
10
128.585890671097
20
30.4114650601693
30
0
0
VERTEX
8
0
10
129.404909083014
20
30.4317889282113
30
0
0
VERTEX
8
0
10
130.223927494932
20
30.451278094738
30
0
0
VERTEX
8
0
10
131.04294590685
20
30.469944939714
30
0
0
VERTEX
8
0
10
131.861964318768
20
30.4878021733956
30
0
0
VERTEX
8
0
10
132.680982730686
20
30.5048628387204
30
0
0
VERTEX
8
0
10
133.500001142603
20
30.5211403137647
30
0
0
VERTEX
8
0
10
134.319019554521
20
30.5366483142672
30
0
0
VERTEX
8
0
10
135.138037966439
20
30.5514008962137
30
0
0
VERTEX
8
0
10
135.957056378357
20
30.5654124584801
30
0
0
VERTEX
8
0
10
136.776074790275
20
30.5786977455268
30
0
0
VERTEX
8
0
10
137.595093202193
20
30.591271850143
30
0
0
VERTEX
8
0
10
138.41411161411
20
30.6031502162346
30
0
0
VERTEX
8
0
10
139.233130026028
20
30.61434864165
30
0
0
VERTEX
8
0
10
140.052148437946
20
30.6248832810423
30
0
0
VERTEX
8
0
10
140.871166849864
20
30.6347706487581
30
0
0
VERTEX
8
0
10
141.690185261782
20
30.6440276217514
30
0
0
VERTEX
8
0
10
142.5092036737
20
30.6526714425154
30
0
0
VERTEX
8
0
10
143.328222085617
20
30.6607197220256
30
0
0
VERTEX
8
0
10
144.147240497535
20
30.6681904426904
30
0
0
VERTEX
8
0
10
144.966258909453
20
30.6751019613011
30
0
0
VERTEX
8
0
10
145.785277321371
20
30.6814730119755
30
0
0
VERTEX
8
0
10
146.604295733289
20
30.6873227090887
30
0
0
VERTEX
8
0
10
147.423314145207
20
30.6926705501836
30
0
0
VERTEX
8
0
10
148.242332557124
20
30.6975364188536
30
0
0
VERTEX
8
0
10
149.061350969042
20
30.7019405875913
30
0
0
VERTEX
8
0
10
149.88036938096
20
30.7059037205946
30
0
0
VERTEX
8
0
10
150.699387792878
20
30.7094468765207
30
0
0
VERTEX
8
0
10
151.518406204796
20
30.7125915111832
30
0
0
VERTEX
8
0
10
152.337424616713
20
30.7153594801795
30
0
0
VERTEX
8
0
10
153.156443028631
20
30.7177730414432
30
0
0
VERTEX
8
0
10
153.975461440549
20
30.7198548577094
30
0
0
VERTEX
8
0
10
154.794479852467
20
30.7216279988845
30
0
0
SEQEND
8
0
0
ENDSEC
0
EOF
