0
SECTION
2
HEADER
9
$ACADVER
1
AC1009
0
ENDSEC
0
SECTION
2
ENTITIES
0
POLYLINE
8
0
62
0
70
1
10
0
20
0
30
0
0
VERTEX
8
0
10
0
20
0
30
0
0
VERTEX
8
0
10
0
20
179.2
30
0
0
VERTEX
8
0
10
179.2
20
179.2
30
0
0
VERTEX
8
0
10
179.2
20
0
30
0
0
SEQEND
8
0
0
TEXT
8
0
62
0
10
0
20
-12
30
0
40
8
1
0
50
0
0
LINE
8
0
62
0
10
16.2909090909091
20
0
30
0
11
16.2909090909091
21
6.4
31
0
0
LINE
8
0
62
0
10
16.2909090909091
20
179.2
30
0
11
16.2909090909091
21
172.8
31
0
0
TEXT
8
0
62
0
10
16.2909090909091
20
-12
30
0
40
8
1
1
50
0
0
LINE
8
0
62
0
10
32.5818181818182
20
0
30
0
11
32.5818181818182
21
6.4
31
0
0
LINE
8
0
62
0
10
32.5818181818182
20
179.2
30
0
11
32.5818181818182
21
172.8
31
0
0
TEXT
8
0
62
0
10
32.5818181818182
20
-12
30
0
40
8
1
2
50
0
0
LINE
8
0
62
0
10
48.8727272727273
20
0
30
0
11
48.8727272727273
21
6.4
31
0
0
LINE
8
0
62
0
10
48.8727272727273
20
179.2
30
0
11
48.8727272727273
21
172.8
31
0
0
TEXT
8
0
62
0
10
48.8727272727273
20
-12
30
0
40
8
1
3
50
0
0
LINE
8
0
62
0
10
65.1636363636364
20
0
30
0
11
65.1636363636364
21
6.4
31
0
0
LINE
8
0
62
0
10
65.1636363636364
20
179.2
30
0
11
65.1636363636364
21
172.8
31
0
0
TEXT
8
0
62
0
10
65.1636363636364
20
-12
30
0
40
8
1
4
50
0
0
LINE
8
0
62
0
10
81.4545454545454
20
0
30
0
11
81.4545454545454
21
6.4
31
0
0
LINE
8
0
62
0
10
81.4545454545454
20
179.2
30
0
11
81.4545454545454
21
172.8
31
0
0
TEXT
8
0
62
0
10
81.4545454545454
20
-12
30
0
40
8
1
5
50
0
0
LINE
8
0
62
0
10
97.7454545454545
20
0
30
0
11
97.7454545454545
21
6.4
31
0
0
LINE
8
0
62
0
10
97.7454545454545
20
179.2
30
0
11
97.7454545454545
21
172.8
31
0
0
TEXT
8
0
62
0
10
97.7454545454545
20
-12
30
0
40
8
1
6
50
0
0
LINE
8
0
62
0
10
114.036363636364
20
0
30
0
11
114.036363636364
21
6.4
31
0
0
LINE
8
0
62
0
10
114.036363636364
20
179.2
30
0
11
114.036363636364
21
172.8
31
0
0
TEXT
8
0
62
0
10
114.036363636364
20
-12
30
0
40
8
1
7
50
0
0
LINE
8
0
62
0
10
130.327272727273
20
0
30
0
11
130.327272727273
21
6.4
31
0
0
LINE
8
0
62
0
10
130.327272727273
20
179.2
30
0
11
130.327272727273
21
172.8
31
0
0
TEXT
8
0
62
0
10
130.327272727273
20
-12
30
0
40
8
1
8
50
0
0
LINE
8
0
62
0
10
146.618181818182
20
0
30
0
11
146.618181818182
21
6.4
31
0
0
LINE
8
0
62
0
10
146.618181818182
20
179.2
30
0
11
146.618181818182
21
172.8
31
0
0
TEXT
8
0
62
0
10
146.618181818182
20
-12
30
0
40
8
1
9
50
0
0
LINE
8
0
62
0
10
162.909090909091
20
0
30
0
11
162.909090909091
21
6.4
31
0
0
LINE
8
0
62
0
10
162.909090909091
20
179.2
30
0
11
162.909090909091
21
172.8
31
0
0
TEXT
8
0
62
0
10
162.909090909091
20
-12
30
0
40
8
1
10
50
0
0
LINE
8
0
62
0
10
179.2
20
0
30
0
11
179.2
21
6.4
31
0
0
LINE
8
0
62
0
10
179.2
20
179.2
30
0
11
179.2
21
172.8
31
0
0
TEXT
8
0
62
0
10
179.2
20
-12
30
0
40
8
1
11
50
0
0
TEXT
8
0
62
0
10
-4
20
-4
30
0
40
8
1
0
50
0
0
LINE
8
0
62
0
10
0
20
16.2909090909091
30
0
11
6.4
21
16.2909090909091
31
0
0
LINE
8
0
62
0
10
179.2
20
16.2909090909091
30
0
11
172.8
21
16.2909090909091
31
0
0
TEXT
8
0
62
0
10
-4
20
12.2909090909091
30
0
40
8
1
100
50
0
0
LINE
8
0
62
0
10
0
20
32.5818181818182
30
0
11
6.4
21
32.5818181818182
31
0
0
LINE
8
0
62
0
10
179.2
20
32.5818181818182
30
0
11
172.8
21
32.5818181818182
31
0
0
TEXT
8
0
62
0
10
-4
20
28.5818181818182
30
0
40
8
1
200
50
0
0
LINE
8
0
62
0
10
0
20
48.8727272727273
30
0
11
6.4
21
48.8727272727273
31
0
0
LINE
8
0
62
0
10
179.2
20
48.8727272727273
30
0
11
172.8
21
48.8727272727273
31
0
0
TEXT
8
0
62
0
10
-4
20
44.8727272727273
30
0
40
8
1
300
50
0
0
LINE
8
0
62
0
10
0
20
65.1636363636364
30
0
11
6.4
21
65.1636363636364
31
0
0
LINE
8
0
62
0
10
179.2
20
65.1636363636364
30
0
11
172.8
21
65.1636363636364
31
0
0
TEXT
8
0
62
0
10
-4
20
61.1636363636364
30
0
40
8
1
400
50
0
0
LINE
8
0
62
0
10
0
20
81.4545454545454
30
0
11
6.4
21
81.4545454545454
31
0
0
LINE
8
0
62
0
10
179.2
20
81.4545454545454
30
0
11
172.8
21
81.4545454545454
31
0
0
TEXT
8
0
62
0
10
-4
20
77.4545454545454
30
0
40
8
1
500
50
0
0
LINE
8
0
62
0
10
0
20
97.7454545454545
30
0
11
6.4
21
97.7454545454545
31
0
0
LINE
8
0
62
0
10
179.2
20
97.7454545454545
30
0
11
172.8
21
97.7454545454545
31
0
0
TEXT
8
0
62
0
10
-4
20
93.7454545454545
30
0
40
8
1
600
50
0
0
LINE
8
0
62
0
10
0
20
114.036363636364
30
0
11
6.4
21
114.036363636364
31
0
0
LINE
8
0
62
0
10
179.2
20
114.036363636364
30
0
11
172.8
21
114.036363636364
31
0
0
TEXT
8
0
62
0
10
-4
20
110.036363636364
30
0
40
8
1
700
50
0
0
LINE
8
0
62
0
10
0
20
130.327272727273
30
0
11
6.4
21
130.327272727273
31
0
0
LINE
8
0
62
0
10
179.2
20
130.327272727273
30
0
11
172.8
21
130.327272727273
31
0
0
TEXT
8
0
62
0
10
-4
20
126.327272727273
30
0
40
8
1
800
50
0
0
LINE
8
0
62
0
10
0
20
146.618181818182
30
0
11
6.4
21
146.618181818182
31
0
0
LINE
8
0
62
0
10
179.2
20
146.618181818182
30
0
11
172.8
21
146.618181818182
31
0
0
TEXT
8
0
62
0
10
-4
20
142.618181818182
30
0
40
8
1
900
50
0
0
LINE
8
0
62
0
10
0
20
162.909090909091
30
0
11
6.4
21
162.909090909091
31
0
0
LINE
8
0
62
0
10
179.2
20
162.909090909091
30
0
11
172.8
21
162.909090909091
31
0
0
TEXT
8
0
62
0
10
-4
20
158.909090909091
30
0
40
8
1
1000
50
0
0
TEXT
8
0
62
0
10
-4
20
175.2
30
0
40
8
1
1100
50
0
0
TEXT
8
0
62
0
10
89.6
20
-32
30
0
40
10
1
Hl (km/s/Mpc)
50
0
0
TEXT
8
0
62
0
10
-24
20
89.6
30
0
40
10
1
celestial frame velocity (km/s)
50
90
0
TEXT
8
0
62
0
10
72.6
20
194.2
30
0
40
11
1
celestial frame velocity vs. Hl
50
0
0
POLYLINE
8
0
62
1
70
0
10
0
20
0
30
0
0
VERTEX
8
0
10
0
20
0
30
0
0
VERTEX
8
0
10
179.2
20
179.2
30
0
0
SEQEND
8
0
0
POLYLINE
8
0
62
5
70
1
10
0
20
0
30
0
0
VERTEX
8
0
10
-0.859636363636364
20
1.74690909090909
30
0
0
VERTEX
8
0
10
-0.859636363636364
20
5.74690909090909
30
0
0
VERTEX
8
0
10
3.14036363636364
20
5.74690909090909
30
0
0
VERTEX
8
0
10
3.14036363636364
20
1.74690909090909
30
0
0
SEQEND
8
0
0
CIRCLE
8
0
62
3
10
122.181818181818
20
127.720727272727
30
0
40
2
0
CIRCLE
8
0
62
3
10
65.1636363636364
20
104.098909090909
30
0
40
2
0
CIRCLE
8
0
62
3
10
65.1636363636364
20
61.9054545454545
30
0
40
2
0
CIRCLE
8
0
62
3
10
162.909090909091
20
141.730909090909
30
0
40
2
0
CIRCLE
8
0
62
3
10
29.3236363636364
20
24.1105454545455
30
0
40
2
0
CIRCLE
8
0
62
3
10
21.1781818181818
20
18.7345454545455
30
0
40
2
0
CIRCLE
8
0
62
3
10
24.4363636363636
20
23.296
30
0
40
2
0
CIRCLE
8
0
62
3
10
14.6618181818182
20
14.8247272727273
30
0
40
2
0
POLYLINE
8
0
62
5
70
1
10
0
20
0
30
0
0
VERTEX
8
0
10
19.1781818181818
20
19.8298181818182
30
0
0
VERTEX
8
0
10
19.1781818181818
20
23.8298181818182
30
0
0
VERTEX
8
0
10
23.1781818181818
20
23.8298181818182
30
0
0
VERTEX
8
0
10
23.1781818181818
20
19.8298181818182
30
0
0
SEQEND
8
0
0
CIRCLE
8
0
62
3
10
50.5018181818182
20
29.6494545454545
30
0
40
2
0
CIRCLE
8
0
62
3
10
30.9527272727273
20
14.6618181818182
30
0
40
2
0
CIRCLE
8
0
62
3
10
130.327272727273
20
120.226909090909
30
0
40
2
0
CIRCLE
8
0
62
3
10
97.7454545454545
20
74.2865454545454
30
0
40
2
0
CIRCLE
8
0
62
3
10
65.1636363636364
20
63.2087272727273
30
0
40
2
0
CIRCLE
8
0
62
3
10
114.036363636364
20
89.6
30
0
40
2
0
CIRCLE
8
0
62
3
10
57.0181818181818
20
44.8
30
0
40
2
0
CIRCLE
8
0
62
3
10
17.92
20
21.6669090909091
30
0
40
2
0
CIRCLE
8
0
62
3
10
5.70181818181818
20
8.63418181818182
30
0
40
2
0
POLYLINE
8
0
62
5
70
1
10
0
20
0
30
0
0
VERTEX
8
0
10
30.5818181818182
20
31.0705454545455
30
0
0
VERTEX
8
0
10
30.5818181818182
20
35.0705454545455
30
0
0
VERTEX
8
0
10
34.5818181818182
20
35.0705454545455
30
0
0
VERTEX
8
0
10
34.5818181818182
20
31.0705454545455
30
0
0
SEQEND
8
0
0
CIRCLE
8
0
62
3
10
29.3236363636364
20
34.6996363636364
30
0
40
2
0
CIRCLE
8
0
62
3
10
81.4545454545454
20
79.1738181818182
30
0
40
2
0
POLYLINE
8
0
62
5
70
1
10
0
20
0
30
0
0
VERTEX
8
0
10
79.4545454545454
20
93.3018181818182
30
0
0
VERTEX
8
0
10
79.4545454545454
20
97.3018181818182
30
0
0
VERTEX
8
0
10
83.4545454545454
20
97.3018181818182
30
0
0
VERTEX
8
0
10
83.4545454545454
20
93.3018181818182
30
0
0
SEQEND
8
0
0
CIRCLE
8
0
62
3
10
24.4363636363636
20
76.5672727272727
30
0
40
2
0
CIRCLE
8
0
62
3
10
11.4036363636364
20
67.9330909090909
30
0
40
2
0
CIRCLE
8
0
62
3
10
48.8727272727273
20
96.4421818181818
30
0
40
2
0
CIRCLE
8
0
62
3
10
48.8727272727273
20
52.4567272727273
30
0
40
2
0
CIRCLE
8
0
62
3
10
65.1636363636364
20
68.2589090909091
30
0
40
2
0
CIRCLE
8
0
62
3
10
81.4545454545454
20
94.8130909090909
30
0
40
2
0
CIRCLE
8
0
62
3
10
65.1636363636364
20
74.9381818181818
30
0
40
2
0
CIRCLE
8
0
62
3
10
65.1636363636364
20
74.4494545454545
30
0
40
2
0
ENDSEC
0
EOF
