0
SECTION
2
HEADER
9
$ACADVER
1
AC1009
0
ENDSEC
0
SECTION
2
ENTITIES
0
POLYLINE
8
0
62
0
70
1
10
0
20
0
30
0
0
VERTEX
8
0
10
0
20
0
30
0
0
VERTEX
8
0
10
0
20
120.958
30
0
0
VERTEX
8
0
10
179.2
20
120.958
30
0
0
VERTEX
8
0
10
179.2
20
0
30
0
0
SEQEND
8
0
0
TEXT
8
0
62
0
10
0
20
-12
30
0
40
8
1
0
50
0
0
LINE
8
0
62
0
10
12.8597980609836
20
0
30
0
11
12.8597980609836
21
3.2
31
0
0
LINE
8
0
62
0
10
12.8597980609836
20
120.958
30
0
11
12.8597980609836
21
117.758
31
0
0
LINE
8
0
62
0
10
25.7195961219671
20
0
30
0
11
25.7195961219671
21
3.2
31
0
0
LINE
8
0
62
0
10
25.7195961219671
20
120.958
30
0
11
25.7195961219671
21
117.758
31
0
0
LINE
8
0
62
0
10
38.5793941829507
20
0
30
0
11
38.5793941829507
21
3.2
31
0
0
LINE
8
0
62
0
10
38.5793941829507
20
120.958
30
0
11
38.5793941829507
21
117.758
31
0
0
LINE
8
0
62
0
10
51.4391922439343
20
0
30
0
11
51.4391922439343
21
3.2
31
0
0
LINE
8
0
62
0
10
51.4391922439343
20
120.958
30
0
11
51.4391922439343
21
117.758
31
0
0
LINE
8
0
62
0
10
64.2989903049179
20
0
30
0
11
64.2989903049179
21
6.4
31
0
0
LINE
8
0
62
0
10
64.2989903049179
20
120.958
30
0
11
64.2989903049179
21
114.558
31
0
0
TEXT
8
0
62
0
10
64.2989903049179
20
-12
30
0
40
8
1
5
50
0
0
LINE
8
0
62
0
10
77.1587883659014
20
0
30
0
11
77.1587883659014
21
3.2
31
0
0
LINE
8
0
62
0
10
77.1587883659014
20
120.958
30
0
11
77.1587883659014
21
117.758
31
0
0
LINE
8
0
62
0
10
90.018586426885
20
0
30
0
11
90.018586426885
21
3.2
31
0
0
LINE
8
0
62
0
10
90.018586426885
20
120.958
30
0
11
90.018586426885
21
117.758
31
0
0
LINE
8
0
62
0
10
102.878384487869
20
0
30
0
11
102.878384487869
21
3.2
31
0
0
LINE
8
0
62
0
10
102.878384487869
20
120.958
30
0
11
102.878384487869
21
117.758
31
0
0
LINE
8
0
62
0
10
115.738182548852
20
0
30
0
11
115.738182548852
21
3.2
31
0
0
LINE
8
0
62
0
10
115.738182548852
20
120.958
30
0
11
115.738182548852
21
117.758
31
0
0
LINE
8
0
62
0
10
128.597980609836
20
0
30
0
11
128.597980609836
21
6.4
31
0
0
LINE
8
0
62
0
10
128.597980609836
20
120.958
30
0
11
128.597980609836
21
114.558
31
0
0
TEXT
8
0
62
0
10
128.597980609836
20
-12
30
0
40
8
1
10
50
0
0
LINE
8
0
62
0
10
141.457778670819
20
0
30
0
11
141.457778670819
21
3.2
31
0
0
LINE
8
0
62
0
10
141.457778670819
20
120.958
30
0
11
141.457778670819
21
117.758
31
0
0
LINE
8
0
62
0
10
154.317576731803
20
0
30
0
11
154.317576731803
21
3.2
31
0
0
LINE
8
0
62
0
10
154.317576731803
20
120.958
30
0
11
154.317576731803
21
117.758
31
0
0
LINE
8
0
62
0
10
167.177374792786
20
0
30
0
11
167.177374792786
21
3.2
31
0
0
LINE
8
0
62
0
10
167.177374792786
20
120.958
30
0
11
167.177374792786
21
117.758
31
0
0
TEXT
8
0
62
0
10
-4
20
-4
30
0
40
8
1
0
50
0
0
LINE
8
0
62
0
10
0
20
5.37591111111111
30
0
11
3.2
21
5.37591111111111
31
0
0
LINE
8
0
62
0
10
179.2
20
5.37591111111111
30
0
11
176
21
5.37591111111111
31
0
0
LINE
8
0
62
0
10
0
20
10.7518222222222
30
0
11
3.2
21
10.7518222222222
31
0
0
LINE
8
0
62
0
10
179.2
20
10.7518222222222
30
0
11
176
21
10.7518222222222
31
0
0
LINE
8
0
62
0
10
0
20
16.1277333333333
30
0
11
3.2
21
16.1277333333333
31
0
0
LINE
8
0
62
0
10
179.2
20
16.1277333333333
30
0
11
176
21
16.1277333333333
31
0
0
LINE
8
0
62
0
10
0
20
21.5036444444444
30
0
11
3.2
21
21.5036444444444
31
0
0
LINE
8
0
62
0
10
179.2
20
21.5036444444444
30
0
11
176
21
21.5036444444444
31
0
0
LINE
8
0
62
0
10
0
20
26.8795555555556
30
0
11
6.4
21
26.8795555555556
31
0
0
LINE
8
0
62
0
10
179.2
20
26.8795555555556
30
0
11
172.8
21
26.8795555555556
31
0
0
TEXT
8
0
62
0
10
-4
20
22.8795555555556
30
0
40
8
1
20
50
0
0
LINE
8
0
62
0
10
0
20
32.2554666666667
30
0
11
3.2
21
32.2554666666667
31
0
0
LINE
8
0
62
0
10
179.2
20
32.2554666666667
30
0
11
176
21
32.2554666666667
31
0
0
LINE
8
0
62
0
10
0
20
37.6313777777778
30
0
11
3.2
21
37.6313777777778
31
0
0
LINE
8
0
62
0
10
179.2
20
37.6313777777778
30
0
11
176
21
37.6313777777778
31
0
0
LINE
8
0
62
0
10
0
20
43.0072888888889
30
0
11
3.2
21
43.0072888888889
31
0
0
LINE
8
0
62
0
10
179.2
20
43.0072888888889
30
0
11
176
21
43.0072888888889
31
0
0
LINE
8
0
62
0
10
0
20
48.3832
30
0
11
3.2
21
48.3832
31
0
0
LINE
8
0
62
0
10
179.2
20
48.3832
30
0
11
176
21
48.3832
31
0
0
LINE
8
0
62
0
10
0
20
53.7591111111111
30
0
11
6.4
21
53.7591111111111
31
0
0
LINE
8
0
62
0
10
179.2
20
53.7591111111111
30
0
11
172.8
21
53.7591111111111
31
0
0
TEXT
8
0
62
0
10
-4
20
49.7591111111111
30
0
40
8
1
40
50
0
0
LINE
8
0
62
0
10
0
20
59.1350222222222
30
0
11
3.2
21
59.1350222222222
31
0
0
LINE
8
0
62
0
10
179.2
20
59.1350222222222
30
0
11
176
21
59.1350222222222
31
0
0
LINE
8
0
62
0
10
0
20
64.5109333333333
30
0
11
3.2
21
64.5109333333333
31
0
0
LINE
8
0
62
0
10
179.2
20
64.5109333333333
30
0
11
176
21
64.5109333333333
31
0
0
LINE
8
0
62
0
10
0
20
69.8868444444444
30
0
11
3.2
21
69.8868444444444
31
0
0
LINE
8
0
62
0
10
179.2
20
69.8868444444444
30
0
11
176
21
69.8868444444444
31
0
0
LINE
8
0
62
0
10
0
20
75.2627555555555
30
0
11
3.2
21
75.2627555555555
31
0
0
LINE
8
0
62
0
10
179.2
20
75.2627555555555
30
0
11
176
21
75.2627555555555
31
0
0
LINE
8
0
62
0
10
0
20
80.6386666666666
30
0
11
6.4
21
80.6386666666666
31
0
0
LINE
8
0
62
0
10
179.2
20
80.6386666666666
30
0
11
172.8
21
80.6386666666666
31
0
0
TEXT
8
0
62
0
10
-4
20
76.6386666666666
30
0
40
8
1
60
50
0
0
LINE
8
0
62
0
10
0
20
86.0145777777777
30
0
11
3.2
21
86.0145777777777
31
0
0
LINE
8
0
62
0
10
179.2
20
86.0145777777777
30
0
11
176
21
86.0145777777777
31
0
0
LINE
8
0
62
0
10
0
20
91.3904888888889
30
0
11
3.2
21
91.3904888888889
31
0
0
LINE
8
0
62
0
10
179.2
20
91.3904888888889
30
0
11
176
21
91.3904888888889
31
0
0
LINE
8
0
62
0
10
0
20
96.7664
30
0
11
3.2
21
96.7664
31
0
0
LINE
8
0
62
0
10
179.2
20
96.7664
30
0
11
176
21
96.7664
31
0
0
LINE
8
0
62
0
10
0
20
102.142311111111
30
0
11
3.2
21
102.142311111111
31
0
0
LINE
8
0
62
0
10
179.2
20
102.142311111111
30
0
11
176
21
102.142311111111
31
0
0
LINE
8
0
62
0
10
0
20
107.518222222222
30
0
11
6.4
21
107.518222222222
31
0
0
LINE
8
0
62
0
10
179.2
20
107.518222222222
30
0
11
172.8
21
107.518222222222
31
0
0
TEXT
8
0
62
0
10
-4
20
103.518222222222
30
0
40
8
1
80
50
0
0
LINE
8
0
62
0
10
0
20
112.894133333333
30
0
11
3.2
21
112.894133333333
31
0
0
LINE
8
0
62
0
10
179.2
20
112.894133333333
30
0
11
176
21
112.894133333333
31
0
0
LINE
8
0
62
0
10
0
20
118.270044444444
30
0
11
3.2
21
118.270044444444
31
0
0
LINE
8
0
62
0
10
179.2
20
118.270044444444
30
0
11
176
21
118.270044444444
31
0
0
TEXT
8
0
62
0
10
89.6
20
-32
30
0
40
10
1
R (kpc)
50
0
0
TEXT
8
0
62
0
10
-24
20
60.479
30
0
40
10
1
V (km/s)
50
90
0
TEXT
8
0
62
0
10
72.6
20
135.958
30
0
40
11
1
V vs. R
50
0
0
POLYLINE
8
0
62
5
70
0
10
0
20
0
30
0
0
VERTEX
8
0
10
13.2455920028131
20
38.1185818827732
30
0
0
VERTEX
8
0
10
13.8885819058623
20
38.8617124356534
30
0
0
VERTEX
8
0
10
14.5315718089114
20
39.6048429885335
30
0
0
VERTEX
8
0
10
15.1745617119606
20
40.3479735414137
30
0
0
VERTEX
8
0
10
15.8175516150098
20
41.0911040942938
30
0
0
VERTEX
8
0
10
16.460541518059
20
41.8109098202367
30
0
0
VERTEX
8
0
10
17.1035314211082
20
42.5364861080882
30
0
0
VERTEX
8
0
10
17.7465213241573
20
43.2620623959397
30
0
0
VERTEX
8
0
10
18.3895112272065
20
43.9018947210181
30
0
0
VERTEX
8
0
10
19.0325011302557
20
44.4843771515147
30
0
0
VERTEX
8
0
10
19.6754910333049
20
45.0668595820114
30
0
0
VERTEX
8
0
10
20.3184809363541
20
45.649342012508
30
0
0
VERTEX
8
0
10
20.9614708394032
20
46.2318244430046
30
0
0
VERTEX
8
0
10
21.6044607424524
20
46.7864401166637
30
0
0
VERTEX
8
0
10
22.2474506455016
20
47.3503043872814
30
0
0
VERTEX
8
0
10
22.8904405485508
20
47.9141686578992
30
0
0
VERTEX
8
0
10
23.5334304515999
20
48.4780329285169
30
0
0
VERTEX
8
0
10
24.1764203546491
20
48.9936874863555
30
0
0
VERTEX
8
0
10
24.8194102576983
20
49.522975174341
30
0
0
VERTEX
8
0
10
25.4624001607475
20
50.0522628623265
30
0
0
VERTEX
8
0
10
26.1053900637967
20
50.581550550312
30
0
0
VERTEX
8
0
10
26.7483799668458
20
51.0970945837911
30
0
0
VERTEX
8
0
10
27.391369869895
20
51.6157433232744
30
0
0
VERTEX
8
0
10
28.0343597729442
20
52.1343920627577
30
0
0
VERTEX
8
0
10
28.6773496759934
20
52.653040802241
30
0
0
VERTEX
8
0
10
29.3203395790425
20
53.0451540293783
30
0
0
VERTEX
8
0
10
29.9633294820917
20
53.4574132838394
30
0
0
VERTEX
8
0
10
30.6063193851409
20
53.8696725383004
30
0
0
VERTEX
8
0
10
31.2493092881901
20
54.2819317927615
30
0
0
VERTEX
8
0
10
31.8922991912392
20
54.5496479476875
30
0
0
VERTEX
8
0
10
32.5352890942884
20
54.8289203458708
30
0
0
VERTEX
8
0
10
33.1782789973376
20
55.1081927440542
30
0
0
VERTEX
8
0
10
33.8212689003868
20
55.3874651422375
30
0
0
VERTEX
8
0
10
34.464258803436
20
55.6405541786932
30
0
0
VERTEX
8
0
10
35.1072487064851
20
55.893229205621
30
0
0
VERTEX
8
0
10
35.7502386095343
20
56.1459042325488
30
0
0
VERTEX
8
0
10
36.3932285125835
20
56.3985792594765
30
0
0
VERTEX
8
0
10
37.0362184156327
20
56.5902632171794
30
0
0
VERTEX
8
0
10
37.6792083186818
20
56.7737850788427
30
0
0
VERTEX
8
0
10
38.322198221731
20
56.957306940506
30
0
0
VERTEX
8
0
10
38.9651881247802
20
57.1408288021693
30
0
0
VERTEX
8
0
10
39.6081780278294
20
57.3119109566115
30
0
0
VERTEX
8
0
10
40.2511679308785
20
57.4794743955215
30
0
0
VERTEX
8
0
10
40.8941578339277
20
57.6470378344315
30
0
0
VERTEX
8
0
10
41.5371477369769
20
57.8146012733415
30
0
0
VERTEX
8
0
10
42.1801376400261
20
57.9407472617166
30
0
0
VERTEX
8
0
10
42.8231275430752
20
58.0471367467388
30
0
0
VERTEX
8
0
10
43.4661174461244
20
58.153526231761
30
0
0
VERTEX
8
0
10
44.1091073491736
20
58.2599157167833
30
0
0
VERTEX
8
0
10
44.7520972522228
20
58.3510228727959
30
0
0
VERTEX
8
0
10
45.3950871552719
20
58.4308149865626
30
0
0
VERTEX
8
0
10
46.0380770583211
20
58.5106071003292
30
0
0
VERTEX
8
0
10
46.6810669613703
20
58.5903992140959
30
0
0
VERTEX
8
0
10
47.3240568644195
20
58.6701913278625
30
0
0
VERTEX
8
0
10
47.9670467674687
20
58.6873363342922
30
0
0
VERTEX
8
0
10
48.6100366705178
20
58.72457265405
30
0
0
VERTEX
8
0
10
49.253026573567
20
58.7618089738077
30
0
0
VERTEX
8
0
10
49.8960164766162
20
58.7990452935655
30
0
0
VERTEX
8
0
10
50.5390063796654
20
58.8472103684951
30
0
0
VERTEX
8
0
10
51.1819962827145
20
58.8924258996296
30
0
0
VERTEX
8
0
10
51.8249861857637
20
58.937641430764
30
0
0
VERTEX
8
0
10
52.4679760888129
20
58.9828569618984
30
0
0
VERTEX
8
0
10
53.1109659918621
20
58.9674054267249
30
0
0
VERTEX
8
0
10
53.7539558949112
20
58.9647456895993
30
0
0
VERTEX
8
0
10
54.3969457979604
20
58.9620859524738
30
0
0
VERTEX
8
0
10
55.0399357010096
20
58.9594262153482
30
0
0
VERTEX
8
0
10
55.6829256040588
20
58.8948091431283
30
0
0
VERTEX
8
0
10
56.325915507108
20
58.8389546634917
30
0
0
VERTEX
8
0
10
56.9689054101571
20
58.783100183855
30
0
0
VERTEX
8
0
10
57.6118953132063
20
58.7272457042183
30
0
0
VERTEX
8
0
10
58.2548852162555
20
58.6968192930126
30
0
0
VERTEX
8
0
10
58.8978751193047
20
58.6649024475059
30
0
0
VERTEX
8
0
10
59.5408650223538
20
58.6329856019993
30
0
0
VERTEX
8
0
10
60.183854925403
20
58.6010687564926
30
0
0
VERTEX
8
0
10
60.8268448284522
20
58.5410709446789
30
0
0
VERTEX
8
0
10
61.4698347315014
20
58.4798969907912
30
0
0
VERTEX
8
0
10
62.1128246345505
20
58.4187230369034
30
0
0
VERTEX
8
0
10
62.7558145375997
20
58.3575490830156
30
0
0
VERTEX
8
0
10
63.3988044406489
20
58.2918145505261
30
0
0
VERTEX
8
0
10
64.0417943436981
20
58.2253211223872
30
0
0
VERTEX
8
0
10
64.6847842467472
20
58.1588276942483
30
0
0
VERTEX
8
0
10
65.3277741497964
20
58.0923342661094
30
0
0
VERTEX
8
0
10
65.9707640528456
20
58.0037554396584
30
0
0
VERTEX
8
0
10
66.6137539558948
20
57.9080049031384
30
0
0
VERTEX
8
0
10
67.2567438589439
20
57.8122543666184
30
0
0
VERTEX
8
0
10
67.8997337619931
20
57.7165038300985
30
0
0
VERTEX
8
0
10
68.5427236650423
20
57.6207532935785
30
0
0
VERTEX
8
0
10
69.1857135680915
20
57.5250027570585
30
0
0
VERTEX
8
0
10
69.8287034711407
20
57.4292522205385
30
0
0
VERTEX
8
0
10
70.4716933741898
20
57.3335016840185
30
0
0
VERTEX
8
0
10
71.114683277239
20
57.2304375882634
30
0
0
VERTEX
8
0
10
71.7576731802882
20
57.1213883661156
30
0
0
VERTEX
8
0
10
72.4006630833374
20
57.0123391439678
30
0
0
VERTEX
8
0
10
73.0436529863865
20
56.9032899218201
30
0
0
VERTEX
8
0
10
73.6866428894357
20
56.7942406996723
30
0
0
VERTEX
8
0
10
74.3296327924849
20
56.6736417080607
30
0
0
VERTEX
8
0
10
74.9726226955341
20
56.5566132745362
30
0
0
VERTEX
8
0
10
75.6156125985832
20
56.4395848410118
30
0
0
VERTEX
8
0
10
76.2586025016324
20
56.3225564074873
30
0
0
VERTEX
8
0
10
76.9015924046816
20
56.2019505766262
30
0
0
VERTEX
8
0
10
77.5445823077308
20
56.0822624059762
30
0
0
VERTEX
8
0
10
78.1875722107799
20
55.9625742353263
30
0
0
VERTEX
8
0
10
78.8305621138291
20
55.8428860646763
30
0
0
VERTEX
8
0
10
79.4735520168783
20
55.7132832794701
30
0
0
VERTEX
8
0
10
80.1165419199275
20
55.5856158974434
30
0
0
VERTEX
8
0
10
80.7595318229767
20
55.4579485154168
30
0
0
VERTEX
8
0
10
81.4025217260258
20
55.3302811333901
30
0
0
VERTEX
8
0
10
82.045511629075
20
55.1995814056627
30
0
0
VERTEX
8
0
10
82.6885015321242
20
55.0692542865105
30
0
0
VERTEX
8
0
10
83.3314914351734
20
54.9389271673583
30
0
0
VERTEX
8
0
10
83.9744813382225
20
54.8086000482061
30
0
0
VERTEX
8
0
10
84.6174712412717
20
54.6699934694053
30
0
0
VERTEX
8
0
10
85.2604611443209
20
54.5316871388765
30
0
0
VERTEX
8
0
10
85.9034510473701
20
54.3933808083476
30
0
0
VERTEX
8
0
10
86.5464409504192
20
54.2550744778187
30
0
0
VERTEX
8
0
10
87.1894308534684
20
54.1167681472898
30
0
0
VERTEX
8
0
10
87.8324207565176
20
53.978461816761
30
0
0
VERTEX
8
0
10
88.4754106595668
20
53.8401554862321
30
0
0
VERTEX
8
0
10
89.1184005626159
20
53.7018491557032
30
0
0
VERTEX
8
0
10
89.7613904656651
20
53.5635428251743
30
0
0
VERTEX
8
0
10
90.4043803687143
20
53.4252364946455
30
0
0
VERTEX
8
0
10
91.0473702717635
20
53.2869301641166
30
0
0
VERTEX
8
0
10
91.6903601748127
20
53.1486238335877
30
0
0
VERTEX
8
0
10
92.3333500778618
20
53.0064330182008
30
0
0
VERTEX
8
0
10
92.976339980911
20
52.8628072134209
30
0
0
VERTEX
8
0
10
93.6193298839602
20
52.7191814086409
30
0
0
VERTEX
8
0
10
94.2623197870093
20
52.5755556038609
30
0
0
VERTEX
8
0
10
94.9053096900585
20
52.4335995156919
30
0
0
VERTEX
8
0
10
95.5482995931077
20
52.2926334480375
30
0
0
VERTEX
8
0
10
96.1912894961569
20
52.1516673803831
30
0
0
VERTEX
8
0
10
96.8342793992061
20
52.0107013127287
30
0
0
VERTEX
8
0
10
97.4772693022552
20
51.8683380542811
30
0
0
VERTEX
8
0
10
98.1202592053044
20
51.7247122495011
30
0
0
VERTEX
8
0
10
98.7632491083536
20
51.5810864447212
30
0
0
VERTEX
8
0
10
99.4062390114028
20
51.4374606399412
30
0
0
VERTEX
8
0
10
100.049228914452
20
51.2938348351612
30
0
0
VERTEX
8
0
10
100.692218817501
20
51.1577778345826
30
0
0
VERTEX
8
0
10
101.33520872055
20
51.0194715040537
30
0
0
VERTEX
8
0
10
101.978198623599
20
50.8811651735248
30
0
0
VERTEX
8
0
10
102.621188526649
20
50.742858842996
30
0
0
VERTEX
8
0
10
103.264178429698
20
50.5975287599016
30
0
0
VERTEX
8
0
10
103.907168332747
20
50.4539029551216
30
0
0
VERTEX
8
0
10
104.550158235796
20
50.3102771503416
30
0
0
VERTEX
8
0
10
105.193148138845
20
50.1666513455616
30
0
0
VERTEX
8
0
10
105.836138041895
20
50.0295042417112
30
0
0
VERTEX
8
0
10
106.479127944944
20
49.8911979111824
30
0
0
VERTEX
8
0
10
107.122117847993
20
49.7528915806535
30
0
0
VERTEX
8
0
10
107.765107751042
20
49.6145852501246
30
0
0
VERTEX
8
0
10
108.408097654091
20
49.4792457442426
30
0
0
VERTEX
8
0
10
109.051087557141
20
49.3435991508393
30
0
0
VERTEX
8
0
10
109.69407746019
20
49.2079525574359
30
0
0
VERTEX
8
0
10
110.337067363239
20
49.0723059640326
30
0
0
VERTEX
8
0
10
110.980057266288
20
48.9312707729715
30
0
0
VERTEX
8
0
10
111.623047169337
20
48.790304705317
30
0
0
VERTEX
8
0
10
112.266037072386
20
48.6493386376626
30
0
0
VERTEX
8
0
10
112.909026975436
20
48.5083725700082
30
0
0
VERTEX
8
0
10
113.552016878485
20
48.3746718213866
30
0
0
VERTEX
8
0
10
114.195006781534
20
48.2416849651088
30
0
0
VERTEX
8
0
10
114.837996684583
20
48.1086981088311
30
0
0
VERTEX
8
0
10
115.480986587632
20
47.9757112525533
30
0
0
VERTEX
8
0
10
116.123976490682
20
47.8448736434686
30
0
0
VERTEX
8
0
10
116.766966393731
20
47.7145465243163
30
0
0
VERTEX
8
0
10
117.40995629678
20
47.5842194051641
30
0
0
VERTEX
8
0
10
118.052946199829
20
47.4538922860119
30
0
0
VERTEX
8
0
10
118.695936102878
20
47.3216884454846
30
0
0
VERTEX
8
0
10
119.338926005928
20
47.1887015892069
30
0
0
VERTEX
8
0
10
119.981915908977
20
47.0557147329291
30
0
0
VERTEX
8
0
10
120.624905812026
20
46.9227278766513
30
0
0
VERTEX
8
0
10
121.267895715075
20
46.7929494114878
30
0
0
VERTEX
8
0
10
121.910885618124
20
46.6652820294611
30
0
0
VERTEX
8
0
10
122.553875521173
20
46.5376146474345
30
0
0
VERTEX
8
0
10
123.196865424223
20
46.4099472654078
30
0
0
VERTEX
8
0
10
123.839855327272
20
46.2822798833812
30
0
0
VERTEX
8
0
10
124.482845230321
20
46.1546125013545
30
0
0
VERTEX
8
0
10
125.12583513337
20
46.0269451193278
30
0
0
VERTEX
8
0
10
125.768825036419
20
45.8992777373012
30
0
0
VERTEX
8
0
10
126.411814939469
20
45.7716103552745
30
0
0
VERTEX
8
0
10
127.054804842518
20
45.6550996163882
30
0
0
VERTEX
8
0
10
127.697794745567
20
45.5354114457382
30
0
0
VERTEX
8
0
10
128.340784648616
20
45.4157232750882
30
0
0
VERTEX
8
0
10
128.983774551665
20
45.2960351044382
30
0
0
VERTEX
8
0
10
129.626764454715
20
45.1763469337882
30
0
0
VERTEX
8
0
10
130.269754357764
20
45.0566587631382
30
0
0
VERTEX
8
0
10
130.912744260813
20
44.9369705924882
30
0
0
VERTEX
8
0
10
131.555734163862
20
44.8172824218382
30
0
0
VERTEX
8
0
10
132.198724066911
20
44.7007680805991
30
0
0
VERTEX
8
0
10
132.84171396996
20
44.5837396470747
30
0
0
VERTEX
8
0
10
133.48470387301
20
44.4667112135502
30
0
0
VERTEX
8
0
10
134.127693776059
20
44.3496827800258
30
0
0
VERTEX
8
0
10
134.770683679108
20
44.2355556500943
30
0
0
VERTEX
8
0
10
135.413673582157
20
44.1211869536954
30
0
0
VERTEX
8
0
10
136.056663485206
20
44.0068182572966
30
0
0
VERTEX
8
0
10
136.699653388256
20
43.8924495608977
30
0
0
VERTEX
8
0
10
137.342643291305
20
43.7859671978237
30
0
0
VERTEX
8
0
10
137.985633194354
20
43.6795777128015
30
0
0
VERTEX
8
0
10
138.628623097403
20
43.5731882277793
30
0
0
VERTEX
8
0
10
139.271613000452
20
43.4667987427571
30
0
0
VERTEX
8
0
10
139.914602903502
20
43.3580530057778
30
0
0
VERTEX
8
0
10
140.557592806551
20
43.2490037836301
30
0
0
VERTEX
8
0
10
141.2005827096
20
43.1399545614823
30
0
0
VERTEX
8
0
10
141.843572612649
20
43.0309053393345
30
0
0
VERTEX
8
0
10
142.486562515698
20
42.9260235694649
30
0
0
VERTEX
8
0
10
143.129552418747
20
42.8222938215683
30
0
0
VERTEX
8
0
10
143.772542321797
20
42.7185640736716
30
0
0
VERTEX
8
0
10
144.415532224846
20
42.6148343257749
30
0
0
VERTEX
8
0
10
145.058522127895
20
42.5219717798051
30
0
0
VERTEX
8
0
10
145.701512030944
20
42.4342004546617
30
0
0
VERTEX
8
0
10
146.344501933993
20
42.3464291295184
30
0
0
VERTEX
8
0
10
146.987491837043
20
42.2586578043751
30
0
0
VERTEX
8
0
10
147.630481740092
20
42.1631931067158
30
0
0
VERTEX
8
0
10
148.273471643141
20
42.0621230959447
30
0
0
VERTEX
8
0
10
148.91646154619
20
41.9610530851736
30
0
0
VERTEX
8
0
10
149.559451449239
20
41.8599830744025
30
0
0
VERTEX
8
0
10
150.202441352289
20
41.7589130636314
30
0
0
VERTEX
8
0
10
150.845431255338
20
41.6696207102927
30
0
0
VERTEX
8
0
10
151.488421158387
20
41.5765299108982
30
0
0
VERTEX
8
0
10
152.131411061436
20
41.4834391115038
30
0
0
VERTEX
8
0
10
152.774400964485
20
41.3903483121094
30
0
0
VERTEX
8
0
10
153.417390867534
20
41.3103690158003
30
0
0
VERTEX
8
0
10
154.060380770584
20
41.2268237174232
30
0
0
VERTEX
8
0
10
154.703370673633
20
41.143278419046
30
0
0
SEQEND
8
0
0
POLYLINE
8
0
62
6
70
0
10
0
20
0
30
0
0
VERTEX
8
0
10
22.2895098685436
20
0
30
0
0
VERTEX
8
0
10
22.8904405485508
20
0.0422578950975614
30
0
0
VERTEX
8
0
10
23.5334304515999
20
0.0874734262320009
30
0
0
VERTEX
8
0
10
24.1764203546491
20
0.3310104849767
30
0
0
VERTEX
8
0
10
24.8194102576983
20
0.68209578555
30
0
0
VERTEX
8
0
10
25.4624001607475
20
1.0331810861233
30
0
0
VERTEX
8
0
10
26.1053900637967
20
1.3842663866966
30
0
0
VERTEX
8
0
10
26.7483799668458
20
1.77745995420762
30
0
0
VERTEX
8
0
10
27.391369869895
20
2.20567763142202
30
0
0
VERTEX
8
0
10
28.0343597729442
20
2.63389530863643
30
0
0
VERTEX
8
0
10
28.6773496759934
20
3.06211298585083
30
0
0
VERTEX
8
0
10
29.3203395790425
20
3.49033066306523
30
0
0
VERTEX
8
0
10
29.9633294820917
20
4.12857198430793
30
0
0
VERTEX
8
0
10
30.6063193851409
20
4.7022899477051
30
0
0
VERTEX
8
0
10
31.2493092881901
20
5.27600791110226
30
0
0
VERTEX
8
0
10
31.8922991912392
20
5.89340654848101
30
0
0
VERTEX
8
0
10
32.5352890942884
20
6.54993606055308
30
0
0
VERTEX
8
0
10
33.1782789973376
20
7.20646557262514
30
0
0
VERTEX
8
0
10
33.8212689003868
20
7.8629950846972
30
0
0
VERTEX
8
0
10
34.464258803436
20
8.42409520296272
30
0
0
VERTEX
8
0
10
35.1072487064851
20
8.96103280153791
30
0
0
VERTEX
8
0
10
35.7502386095343
20
9.49797040011311
30
0
0
VERTEX
8
0
10
36.3932285125835
20
10.0349079986883
30
0
0
VERTEX
8
0
10
37.0362184156327
20
10.2507600123185
30
0
0
VERTEX
8
0
10
37.6792083186818
20
10.4236429254796
30
0
0
VERTEX
8
0
10
38.322198221731
20
10.5965258386406
30
0
0
VERTEX
8
0
10
38.9651881247802
20
10.7694087518017
30
0
0
VERTEX
8
0
10
39.6081780278294
20
10.91119239691
30
0
0
VERTEX
8
0
10
40.2511679308785
20
11.0441792531878
30
0
0
VERTEX
8
0
10
40.8941578339277
20
11.1771661094656
30
0
0
VERTEX
8
0
10
41.5371477369769
20
11.3101529657433
30
0
0
VERTEX
8
0
10
42.1801376400261
20
11.3675079558271
30
0
0
VERTEX
8
0
10
42.8231275430752
20
11.3887858528315
30
0
0
VERTEX
8
0
10
43.4661174461244
20
11.4100637498359
30
0
0
VERTEX
8
0
10
44.1091073491736
20
11.4313416468404
30
0
0
VERTEX
8
0
10
44.7520972522228
20
11.4419219135381
30
0
0
VERTEX
8
0
10
45.3950871552719
20
11.4445816506637
30
0
0
VERTEX
8
0
10
46.0380770583211
20
11.4472413877892
30
0
0
VERTEX
8
0
10
46.6810669613703
20
11.4499011249148
30
0
0
VERTEX
8
0
10
47.3240568644195
20
11.4525608620403
30
0
0
VERTEX
8
0
10
47.9670467674687
20
11.5726839254228
30
0
0
VERTEX
8
0
10
48.6100366705178
20
11.655135776315
30
0
0
VERTEX
8
0
10
49.253026573567
20
11.7375876272072
30
0
0
VERTEX
8
0
10
49.8960164766162
20
11.8200394780994
30
0
0
VERTEX
8
0
10
50.5390063796654
20
11.946206349679
30
0
0
VERTEX
8
0
10
51.1819962827145
20
12.0605750460779
30
0
0
VERTEX
8
0
10
51.8249861857637
20
12.1749437424768
30
0
0
VERTEX
8
0
10
52.4679760888129
20
12.2893124388757
30
0
0
VERTEX
8
0
10
53.1109659918621
20
12.5519784084718
30
0
0
VERTEX
8
0
10
53.7539558949112
20
12.7833755383951
30
0
0
VERTEX
8
0
10
54.3969457979604
20
13.0147726683185
30
0
0
VERTEX
8
0
10
55.0399357010096
20
13.2461697982418
30
0
0
VERTEX
8
0
10
55.6829256040588
20
13.6789282672217
30
0
0
VERTEX
8
0
10
56.325915507108
20
14.0832083103061
30
0
0
VERTEX
8
0
10
56.9689054101571
20
14.4874883533905
30
0
0
VERTEX
8
0
10
57.6118953132063
20
14.8917683964749
30
0
0
VERTEX
8
0
10
58.2548852162555
20
15.2480176436342
30
0
0
VERTEX
8
0
10
58.8978751193047
20
15.6070821555842
30
0
0
VERTEX
8
0
10
59.5408650223538
20
15.9661466675342
30
0
0
VERTEX
8
0
10
60.183854925403
20
16.3252111794841
30
0
0
VERTEX
8
0
10
60.8268448284522
20
16.4979201877603
30
0
0
VERTEX
8
0
10
61.4698347315014
20
16.6628238895447
30
0
0
VERTEX
8
0
10
62.1128246345505
20
16.8277275913291
30
0
0
VERTEX
8
0
10
62.7558145375997
20
16.9926312931136
30
0
0
VERTEX
8
0
10
63.3988044406489
20
17.1347321018893
30
0
0
VERTEX
8
0
10
64.0417943436981
20
17.2730384324182
30
0
0
VERTEX
8
0
10
64.6847842467472
20
17.411344762947
30
0
0
VERTEX
8
0
10
65.3277741497964
20
17.5496510934759
30
0
0
VERTEX
8
0
10
65.9707640528456
20
17.6638642622097
30
0
0
VERTEX
8
0
10
66.6137539558948
20
17.7702537472319
30
0
0
VERTEX
8
0
10
67.2567438589439
20
17.8766432322542
30
0
0
VERTEX
8
0
10
67.8997337619931
20
17.9830327172764
30
0
0
VERTEX
8
0
10
68.5427236650423
20
18.0703345879839
30
0
0
VERTEX
8
0
10
69.1857135680915
20
18.147466964625
30
0
0
VERTEX
8
0
10
69.8287034711407
20
18.2245993412661
30
0
0
VERTEX
8
0
10
70.4716933741898
20
18.3017317179072
30
0
0
VERTEX
8
0
10
71.114683277239
20
18.4417607039703
30
0
0
VERTEX
8
0
10
71.7576731802882
20
18.6332617770103
30
0
0
VERTEX
8
0
10
72.4006630833374
20
18.8247628500503
30
0
0
VERTEX
8
0
10
73.0436529863865
20
19.0162639230903
30
0
0
VERTEX
8
0
10
73.6866428894357
20
19.2077649961303
30
0
0
VERTEX
8
0
10
74.3296327924849
20
19.5224636101184
30
0
0
VERTEX
8
0
10
74.9726226955341
20
19.7990762711762
30
0
0
VERTEX
8
0
10
75.6156125985832
20
20.0756889322339
30
0
0
VERTEX
8
0
10
76.2586025016324
20
20.3523015932917
30
0
0
VERTEX
8
0
10
76.9015924046816
20
20.7970519291735
30
0
0
VERTEX
8
0
10
77.5445823077308
20
21.1986722351323
30
0
0
VERTEX
8
0
10
78.1875722107799
20
21.6002925410912
30
0
0
VERTEX
8
0
10
78.8305621138291
20
22.00191284705
30
0
0
VERTEX
8
0
10
79.4735520168783
20
22.7392451493785
30
0
0
VERTEX
8
0
10
80.1165419199275
20
23.4110440856342
30
0
0
VERTEX
8
0
10
80.7595318229767
20
24.08284302189
30
0
0
VERTEX
8
0
10
81.4025217260258
20
24.7546419581457
30
0
0
VERTEX
8
0
10
82.045511629075
20
25.4293979641057
30
0
0
VERTEX
8
0
10
82.6885015321242
20
26.103426013381
30
0
0
VERTEX
8
0
10
83.3314914351734
20
26.7774540626562
30
0
0
VERTEX
8
0
10
83.9744813382225
20
27.4514821119315
30
0
0
VERTEX
8
0
10
84.6174712412717
20
28.0376472318871
30
0
0
VERTEX
8
0
10
85.2604611443209
20
28.6493867707648
30
0
0
VERTEX
8
0
10
85.9034510473701
20
29.2611263096425
30
0
0
VERTEX
8
0
10
86.5464409504192
20
29.8728658485203
30
0
0
VERTEX
8
0
10
87.1894308534684
20
30.4498129246399
30
0
0
VERTEX
8
0
10
87.8324207565176
20
31.034955092262
30
0
0
VERTEX
8
0
10
88.4754106595668
20
31.6200972598842
30
0
0
VERTEX
8
0
10
89.1184005626159
20
32.2052394275064
30
0
0
VERTEX
8
0
10
89.7613904656651
20
32.6749396586455
30
0
0
VERTEX
8
0
10
90.4043803687143
20
33.1643312897477
30
0
0
VERTEX
8
0
10
91.0473702717635
20
33.6537229208498
30
0
0
VERTEX
8
0
10
91.6903601748127
20
34.143114551952
30
0
0
VERTEX
8
0
10
92.3333500778618
20
34.5620855116962
30
0
0
VERTEX
8
0
10
92.976339980911
20
34.9876434517851
30
0
0
VERTEX
8
0
10
93.6193298839602
20
35.4132013918739
30
0
0
VERTEX
8
0
10
94.2623197870093
20
35.8387593319628
30
0
0
VERTEX
8
0
10
94.9053096900585
20
36.157850519173
30
0
0
VERTEX
8
0
10
95.5482995931077
20
36.4770189742397
30
0
0
VERTEX
8
0
10
96.1912894961569
20
36.7961874293063
30
0
0
VERTEX
8
0
10
96.8342793992061
20
37.1153558843729
30
0
0
VERTEX
8
0
10
97.4772693022552
20
37.3031214742187
30
0
0
VERTEX
8
0
10
98.1202592053044
20
37.4760043873798
30
0
0
VERTEX
8
0
10
98.7632491083536
20
37.6488873005409
30
0
0
VERTEX
8
0
10
99.4062390114028
20
37.821770213702
30
0
0
VERTEX
8
0
10
100.049228914452
20
37.9565540175138
30
0
0
VERTEX
8
0
10
100.692218817501
20
38.0815616624149
30
0
0
VERTEX
8
0
10
101.33520872055
20
38.206569307316
30
0
0
VERTEX
8
0
10
101.978198623599
20
38.3315769522171
30
0
0
VERTEX
8
0
10
102.621188526649
20
38.3459391150311
30
0
0
VERTEX
8
0
10
103.264178429698
20
38.3113625323989
30
0
0
VERTEX
8
0
10
103.907168332747
20
38.2767859497667
30
0
0
VERTEX
8
0
10
104.550158235796
20
38.2422093671345
30
0
0
VERTEX
8
0
10
105.193148138845
20
38.1934886945507
30
0
0
VERTEX
8
0
10
105.836138041895
20
38.1349744777885
30
0
0
VERTEX
8
0
10
106.479127944944
20
38.0764602610263
30
0
0
VERTEX
8
0
10
107.122117847993
20
38.017946044264
30
0
0
VERTEX
8
0
10
107.765107751042
20
37.9594318275018
30
0
0
VERTEX
8
0
10
108.408097654091
20
37.805906966153
30
0
0
VERTEX
8
0
10
109.051087557141
20
37.6835590583774
30
0
0
VERTEX
8
0
10
109.69407746019
20
37.5612111506019
30
0
0
VERTEX
8
0
10
110.337067363239
20
37.4388632428263
30
0
0
VERTEX
8
0
10
110.980057266288
20
37.3054565819313
30
0
0
VERTEX
8
0
10
111.623047169337
20
37.1751294627791
30
0
0
VERTEX
8
0
10
112.266037072386
20
37.0448023436269
30
0
0
VERTEX
8
0
10
112.909026975436
20
36.9144752244747
30
0
0
VERTEX
8
0
10
113.552016878485
20
36.8285265332069
30
0
0
VERTEX
8
0
10
114.195006781534
20
36.7327759966869
30
0
0
VERTEX
8
0
10
114.837996684583
20
36.6370254601669
30
0
0
VERTEX
8
0
10
115.480986587632
20
36.5412749236469
30
0
0
VERTEX
8
0
10
116.123976490682
20
36.4737951817623
30
0
0
VERTEX
8
0
10
116.766966393731
20
36.4019822793723
30
0
0
VERTEX
8
0
10
117.40995629678
20
36.3301693769823
30
0
0
VERTEX
8
0
10
118.052946199829
20
36.2583564745923
30
0
0
VERTEX
8
0
10
118.695936102878
20
36.2008869401322
30
0
0
VERTEX
8
0
10
119.338926005928
20
36.14237272337
30
0
0
VERTEX
8
0
10
119.981915908977
20
36.0838585066078
30
0
0
VERTEX
8
0
10
120.624905812026
20
36.0253442898456
30
0
0
VERTEX
8
0
10
121.267895715075
20
36.0005799940678
30
0
0
VERTEX
8
0
10
121.910885618124
20
35.9766423599378
30
0
0
VERTEX
8
0
10
122.553875521173
20
35.9527047258078
30
0
0
VERTEX
8
0
10
123.196865424223
20
35.9287670916778
30
0
0
VERTEX
8
0
10
123.839855327272
20
35.8862404819471
30
0
0
VERTEX
8
0
10
124.482845230321
20
35.8410249508127
30
0
0
VERTEX
8
0
10
125.12583513337
20
35.7958094196782
30
0
0
VERTEX
8
0
10
125.768825036419
20
35.7505938885438
30
0
0
VERTEX
8
0
10
126.411814939469
20
35.6171812237275
30
0
0
VERTEX
8
0
10
127.054804842518
20
35.4575969961941
30
0
0
VERTEX
8
0
10
127.697794745567
20
35.2980127686608
30
0
0
VERTEX
8
0
10
128.340784648616
20
35.1384285411275
30
0
0
VERTEX
8
0
10
128.983774551665
20
34.97706574328
30
0
0
VERTEX
8
0
10
129.626764454715
20
34.8148217786211
30
0
0
VERTEX
8
0
10
130.269754357764
20
34.6525778139622
30
0
0
VERTEX
8
0
10
130.912744260813
20
34.4903338493034
30
0
0
VERTEX
8
0
10
131.555734163862
20
34.3341140626295
30
0
0
VERTEX
8
0
10
132.198724066911
20
34.1825090464728
30
0
0
VERTEX
8
0
10
132.84171396996
20
34.0309040303161
30
0
0
VERTEX
8
0
10
133.48470387301
20
33.8792990141595
30
0
0
VERTEX
8
0
10
134.127693776059
20
33.7276939980028
30
0
0
VERTEX
8
0
10
134.770683679108
20
33.5838754934539
30
0
0
VERTEX
8
0
10
135.413673582157
20
33.4375899515483
30
0
0
VERTEX
8
0
10
136.056663485206
20
33.2913044096428
30
0
0
VERTEX
8
0
10
136.699653388256
20
33.1450188677372
30
0
0
VERTEX
8
0
10
137.342643291305
20
32.9914918658599
30
0
0
VERTEX
8
0
10
137.985633194354
20
32.8398868497032
30
0
0
VERTEX
8
0
10
138.628623097403
20
32.6882818335466
30
0
0
VERTEX
8
0
10
139.271613000452
20
32.5366768173899
30
0
0
VERTEX
8
0
10
139.914602903502
20
32.3917682095692
30
0
0
VERTEX
8
0
10
140.557592806551
20
32.2454826676636
30
0
0
VERTEX
8
0
10
141.2005827096
20
32.0991971257581
30
0
0
VERTEX
8
0
10
141.843572612649
20
31.9529115838525
30
0
0
VERTEX
8
0
10
142.486562515698
20
31.800474685247
30
0
0
VERTEX
8
0
10
143.129552418747
20
31.6488696690903
30
0
0
VERTEX
8
0
10
143.772542321797
20
31.4972646529337
30
0
0
VERTEX
8
0
10
144.415532224846
20
31.345659636777
30
0
0
VERTEX
8
0
10
145.058522127895
20
31.1772357054281
30
0
0
VERTEX
8
0
10
145.701512030944
20
31.0096722665181
30
0
0
VERTEX
8
0
10
146.344501933993
20
30.8421088276081
30
0
0
VERTEX
8
0
10
146.987491837043
20
30.6745453886981
30
0
0
VERTEX
8
0
10
147.630481740092
20
30.5196350833586
30
0
0
VERTEX
8
0
10
148.273471643141
20
30.3653703300764
30
0
0
VERTEX
8
0
10
148.91646154619
20
30.2111055767942
30
0
0
VERTEX
8
0
10
149.559451449239
20
30.056840823512
30
0
0
VERTEX
8
0
10
150.202441352289
20
30.0041906105568
30
0
0
VERTEX
8
0
10
150.845431255338
20
29.9696140279245
30
0
0
VERTEX
8
0
10
151.488421158387
20
29.9350374452923
30
0
0
VERTEX
8
0
10
152.131411061436
20
29.9004608626601
30
0
0
VERTEX
8
0
10
152.774400964485
20
29.8567506346681
30
0
0
VERTEX
8
0
10
153.417390867534
20
29.8099392612584
30
0
0
VERTEX
8
0
10
154.060380770584
20
29.7631278878486
30
0
0
VERTEX
8
0
10
154.703370673633
20
29.7163165144388
30
0
0
SEQEND
8
0
0
POLYLINE
8
0
62
6
70
0
10
0
20
0
30
0
0
VERTEX
8
0
10
13.2455920028131
20
42.4646970864712
30
0
0
VERTEX
8
0
10
13.8885819058623
20
43.4199648950417
30
0
0
VERTEX
8
0
10
14.5315718089114
20
44.3752327036121
30
0
0
VERTEX
8
0
10
15.1745617119606
20
45.3897262810438
30
0
0
VERTEX
8
0
10
15.8175516150098
20
46.3946183913582
30
0
0
VERTEX
8
0
10
16.460541518059
20
47.4071663952293
30
0
0
VERTEX
8
0
10
17.1035314211082
20
48.425194350123
30
0
0
VERTEX
8
0
10
17.7465213241573
20
49.4432223050167
30
0
0
VERTEX
8
0
10
18.3895112272065
20
50.3431257037435
30
0
0
VERTEX
8
0
10
19.0325011302557
20
51.2396470962789
30
0
0
VERTEX
8
0
10
19.6754910333049
20
52.1361684888143
30
0
0
VERTEX
8
0
10
20.3184809363541
20
52.9394743675461
30
0
0
VERTEX
8
0
10
20.9614708394032
20
53.7566655614459
30
0
0
VERTEX
8
0
10
21.6044607424524
20
54.5738567553456
30
0
0
VERTEX
8
0
10
22.2474506455016
20
55.413243447599
30
0
0
VERTEX
8
0
10
22.8904405485508
20
56.2525208899826
30
0
0
VERTEX
8
0
10
23.5334304515999
20
57.0917983323661
30
0
0
VERTEX
8
0
10
24.1764203546491
20
57.9135148697492
30
0
0
VERTEX
8
0
10
24.8194102576983
20
58.7317577897673
30
0
0
VERTEX
8
0
10
25.4624001607475
20
59.5500007097853
30
0
0
VERTEX
8
0
10
26.1053900637967
20
60.3367036548201
30
0
0
VERTEX
8
0
10
26.7483799668458
20
61.1075020410581
30
0
0
VERTEX
8
0
10
27.391369869895
20
61.8783004272962
30
0
0
VERTEX
8
0
10
28.0343597729442
20
62.6490988135343
30
0
0
VERTEX
8
0
10
28.6773496759934
20
63.4406883299067
30
0
0
VERTEX
8
0
10
29.3203395790425
20
64.2273794663765
30
0
0
VERTEX
8
0
10
29.9633294820917
20
65.0140706028463
30
0
0
VERTEX
8
0
10
30.6063193851409
20
65.6581455667
30
0
0
VERTEX
8
0
10
31.2493092881901
20
66.2949752924621
30
0
0
VERTEX
8
0
10
31.8922991912392
20
66.9318050182242
30
0
0
VERTEX
8
0
10
32.5352890942884
20
67.5686347439864
30
0
0
VERTEX
8
0
10
33.1782789973376
20
68.1910535864186
30
0
0
VERTEX
8
0
10
33.8212689003868
20
68.8160918109241
30
0
0
VERTEX
8
0
10
34.464258803436
20
69.4411300354296
30
0
0
VERTEX
8
0
10
35.1072487064851
20
70.0661682599351
30
0
0
VERTEX
8
0
10
35.7502386095343
20
70.5869747565172
30
0
0
VERTEX
8
0
10
36.3932285125835
20
71.1189221816283
30
0
0
VERTEX
8
0
10
37.0362184156327
20
71.6508696067393
30
0
0
VERTEX
8
0
10
37.6792083186818
20
72.1828170318504
30
0
0
VERTEX
8
0
10
38.322198221731
20
72.655242938833
30
0
0
VERTEX
8
0
10
38.9651881247802
20
73.1286761471819
30
0
0
VERTEX
8
0
10
39.6081780278294
20
73.6021093555307
30
0
0
VERTEX
8
0
10
40.2511679308785
20
74.0755425638796
30
0
0
VERTEX
8
0
10
40.8941578339277
20
74.5124808062283
30
0
0
VERTEX
8
0
10
41.5371477369769
20
74.9460179576938
30
0
0
VERTEX
8
0
10
42.1801376400261
20
75.3795551091593
30
0
0
VERTEX
8
0
10
42.8231275430752
20
75.8130922606248
30
0
0
VERTEX
8
0
10
43.4661174461244
20
76.1969385580363
30
0
0
VERTEX
8
0
10
44.1091073491736
20
76.569301755614
30
0
0
VERTEX
8
0
10
44.7520972522228
20
76.9416649531917
30
0
0
VERTEX
8
0
10
45.3950871552719
20
77.3140281507695
30
0
0
VERTEX
8
0
10
46.0380770583211
20
77.6826154561523
30
0
0
VERTEX
8
0
10
46.6810669613703
20
78.049659179479
30
0
0
VERTEX
8
0
10
47.3240568644195
20
78.4167029028056
30
0
0
VERTEX
8
0
10
47.9670467674687
20
78.7837466261322
30
0
0
VERTEX
8
0
10
48.6100366705178
20
79.1281744655459
30
0
0
VERTEX
8
0
10
49.253026573567
20
79.4579818691148
30
0
0
VERTEX
8
0
10
49.8960164766162
20
79.7877892726836
30
0
0
VERTEX
8
0
10
50.5390063796654
20
80.1175966762525
30
0
0
VERTEX
8
0
10
51.1819962827145
20
80.4420325019752
30
0
0
VERTEX
8
0
10
51.8249861857637
20
80.7612009570418
30
0
0
VERTEX
8
0
10
52.4679760888129
20
81.0803694121084
30
0
0
VERTEX
8
0
10
53.1109659918621
20
81.3995378671751
30
0
0
VERTEX
8
0
10
53.7539558949112
20
81.7187063222417
30
0
0
VERTEX
8
0
10
54.3969457979604
20
82.0453349888466
30
0
0
VERTEX
8
0
10
55.0399357010096
20
82.3698229181644
30
0
0
VERTEX
8
0
10
55.6829256040588
20
82.6943108474821
30
0
0
VERTEX
8
0
10
56.325915507108
20
83.0187987767999
30
0
0
VERTEX
8
0
10
56.9689054101571
20
83.3398291261664
30
0
0
VERTEX
8
0
10
57.6118953132063
20
83.6616573183586
30
0
0
VERTEX
8
0
10
58.2548852162555
20
83.9834855105508
30
0
0
VERTEX
8
0
10
58.8978751193047
20
84.305313702743
30
0
0
VERTEX
8
0
10
59.5408650223538
20
84.5602557581368
30
0
0
VERTEX
8
0
10
60.183854925403
20
84.8262294706923
30
0
0
VERTEX
8
0
10
60.8268448284522
20
85.0922031832479
30
0
0
VERTEX
8
0
10
61.4698347315014
20
85.3581768958034
30
0
0
VERTEX
8
0
10
62.1128246345505
20
85.5979378535212
30
0
0
VERTEX
8
0
10
62.7558145375997
20
85.8399739319467
30
0
0
VERTEX
8
0
10
63.3988044406489
20
86.0820100103722
30
0
0
VERTEX
8
0
10
64.0417943436981
20
86.3240460887978
30
0
0
VERTEX
8
0
10
64.6847842467472
20
86.5502421522391
30
0
0
VERTEX
8
0
10
65.3277741497964
20
86.7763198079113
30
0
0
VERTEX
8
0
10
65.9707640528456
20
87.0023974635835
30
0
0
VERTEX
8
0
10
66.6137539558948
20
87.2284751192557
30
0
0
VERTEX
8
0
10
67.2567438589439
20
87.4379804381721
30
0
0
VERTEX
8
0
10
67.8997337619931
20
87.6454399339654
30
0
0
VERTEX
8
0
10
68.5427236650423
20
87.8528994297587
30
0
0
VERTEX
8
0
10
69.1857135680915
20
88.060358925552
30
0
0
VERTEX
8
0
10
69.8287034711407
20
88.2636285196224
30
0
0
VERTEX
8
0
10
70.4716933741898
20
88.4657685411646
30
0
0
VERTEX
8
0
10
71.114683277239
20
88.6679085627068
30
0
0
VERTEX
8
0
10
71.7576731802882
20
88.870048584249
30
0
0
VERTEX
8
0
10
72.4006630833374
20
89.0831231560523
30
0
0
VERTEX
8
0
10
73.0436529863865
20
89.3012216003478
30
0
0
VERTEX
8
0
10
73.6866428894357
20
89.5193200446434
30
0
0
VERTEX
8
0
10
74.3296327924849
20
89.7374184889389
30
0
0
VERTEX
8
0
10
74.9726226955341
20
89.9539670340089
30
0
0
VERTEX
8
0
10
75.6156125985832
20
90.1694057411788
30
0
0
VERTEX
8
0
10
76.2586025016324
20
90.3848444483488
30
0
0
VERTEX
8
0
10
76.9015924046816
20
90.6002831555188
30
0
0
VERTEX
8
0
10
77.5445823077308
20
90.8157218626888
30
0
0
VERTEX
8
0
10
78.1875722107799
20
91.153210996387
30
0
0
VERTEX
8
0
10
78.8305621138291
20
91.4511015544492
30
0
0
VERTEX
8
0
10
79.4735520168783
20
91.7489921125114
30
0
0
VERTEX
8
0
10
80.1165419199275
20
92.0468826705736
30
0
0
VERTEX
8
0
10
80.7595318229767
20
92.3667607369271
30
0
0
VERTEX
8
0
10
81.4025217260258
20
92.6806097177427
30
0
0
VERTEX
8
0
10
82.045511629075
20
92.9944586985582
30
0
0
VERTEX
8
0
10
82.6885015321242
20
93.3083076793737
30
0
0
VERTEX
8
0
10
83.3314914351734
20
93.6357248957783
30
0
0
VERTEX
8
0
10
83.9744813382225
20
93.9602128250961
30
0
0
VERTEX
8
0
10
84.6174712412717
20
94.2847007544138
30
0
0
VERTEX
8
0
10
85.2604611443209
20
94.6091886837315
30
0
0
VERTEX
8
0
10
85.9034510473701
20
94.9243180138113
30
0
0
VERTEX
8
0
10
86.5464409504192
20
95.2408267317524
30
0
0
VERTEX
8
0
10
87.1894308534684
20
95.5573354496935
30
0
0
VERTEX
8
0
10
87.8324207565176
20
95.8738441676346
30
0
0
VERTEX
8
0
10
88.4754106595668
20
96.1732708420074
30
0
0
VERTEX
8
0
10
89.1184005626159
20
96.4738211371952
30
0
0
VERTEX
8
0
10
89.7613904656651
20
96.7743714323829
30
0
0
VERTEX
8
0
10
90.4043803687143
20
97.0749217275707
30
0
0
VERTEX
8
0
10
91.0473702717635
20
97.3445782454373
30
0
0
VERTEX
8
0
10
91.6903601748127
20
97.6132116951184
30
0
0
VERTEX
8
0
10
92.3333500778618
20
97.8818451447995
30
0
0
VERTEX
8
0
10
92.976339980911
20
98.1504785944805
30
0
0
VERTEX
8
0
10
93.6193298839602
20
98.4053003104088
30
0
0
VERTEX
8
0
10
94.2623197870093
20
98.6579753373365
30
0
0
VERTEX
8
0
10
94.9053096900585
20
98.9106503642643
30
0
0
VERTEX
8
0
10
95.5482995931077
20
99.163325391192
30
0
0
VERTEX
8
0
10
96.1912894961569
20
99.363235243124
30
0
0
VERTEX
8
0
10
96.8342793992061
20
99.5467571047873
30
0
0
VERTEX
8
0
10
97.4772693022552
20
99.7302789664507
30
0
0
VERTEX
8
0
10
98.1202592053044
20
99.913800828114
30
0
0
VERTEX
8
0
10
98.7632491083536
20
100.090295073819
30
0
0
VERTEX
8
0
10
99.4062390114028
20
100.26317798698
30
0
0
VERTEX
8
0
10
100.049228914452
20
100.436060900141
30
0
0
VERTEX
8
0
10
100.692218817501
20
100.608943813302
30
0
0
VERTEX
8
0
10
101.33520872055
20
100.744717272173
30
0
0
VERTEX
8
0
10
101.978198623599
20
100.851106757195
30
0
0
VERTEX
8
0
10
102.621188526649
20
100.957496242217
30
0
0
VERTEX
8
0
10
103.264178429698
20
101.063885727239
30
0
0
VERTEX
8
0
10
103.907168332747
20
101.170275212261
30
0
0
VERTEX
8
0
10
104.550158235796
20
101.230205623533
30
0
0
VERTEX
8
0
10
105.193148138845
20
101.304678263048
30
0
0
VERTEX
8
0
10
105.836138041895
20
101.379150902564
30
0
0
VERTEX
8
0
10
106.479127944944
20
101.453623542079
30
0
0
VERTEX
8
0
10
107.122117847993
20
101.517298990611
30
0
0
VERTEX
8
0
10
107.765107751042
20
101.58379241875
30
0
0
VERTEX
8
0
10
108.408097654091
20
101.650285846889
30
0
0
VERTEX
8
0
10
109.051087557141
20
101.716779275028
30
0
0
VERTEX
8
0
10
109.69407746019
20
101.769966551793
30
0
0
VERTEX
8
0
10
110.337067363239
20
101.82582103143
30
0
0
VERTEX
8
0
10
110.980057266288
20
101.881675511067
30
0
0
VERTEX
8
0
10
111.623047169337
20
101.937529990703
30
0
0
VERTEX
8
0
10
112.266037072386
20
101.975060398188
30
0
0
VERTEX
8
0
10
112.909026975436
20
102.014956455071
30
0
0
VERTEX
8
0
10
113.552016878485
20
102.054852511954
30
0
0
VERTEX
8
0
10
114.195006781534
20
102.094748568838
30
0
0
VERTEX
8
0
10
114.837996684583
20
102.165240974003
30
0
0
VERTEX
8
0
10
115.480986587632
20
102.234394139267
30
0
0
VERTEX
8
0
10
116.123976490682
20
102.303547304532
30
0
0
VERTEX
8
0
10
116.766966393731
20
102.372700469796
30
0
0
VERTEX
8
0
10
117.40995629678
20
102.436835714282
30
0
0
VERTEX
8
0
10
118.052946199829
20
102.500669405295
30
0
0
VERTEX
8
0
10
118.695936102878
20
102.564503096308
30
0
0
VERTEX
8
0
10
119.338926005928
20
102.628336787322
30
0
0
VERTEX
8
0
10
119.981915908977
20
102.69887978205
30
0
0
VERTEX
8
0
10
120.624905812026
20
102.770692684439
30
0
0
VERTEX
8
0
10
121.267895715075
20
102.842505586829
30
0
0
VERTEX
8
0
10
121.910885618124
20
102.914318489219
30
0
0
VERTEX
8
0
10
122.553875521173
20
102.986131391609
30
0
0
VERTEX
8
0
10
123.196865424223
20
103.057944293999
30
0
0
VERTEX
8
0
10
123.839855327272
20
103.129757196389
30
0
0
VERTEX
8
0
10
124.482845230321
20
103.201570098779
30
0
0
VERTEX
8
0
10
125.12583513337
20
103.253086405942
30
0
0
VERTEX
8
0
10
125.768825036419
20
103.292982462825
30
0
0
VERTEX
8
0
10
126.411814939469
20
103.332878519708
30
0
0
VERTEX
8
0
10
127.054804842518
20
103.372774576592
30
0
0
VERTEX
8
0
10
127.697794745567
20
103.41550834771
30
0
0
VERTEX
8
0
10
128.340784648616
20
103.460723878845
30
0
0
VERTEX
8
0
10
128.983774551665
20
103.505939409979
30
0
0
VERTEX
8
0
10
129.626764454715
20
103.551154941114
30
0
0
VERTEX
8
0
10
130.269754357764
20
103.596370472248
30
0
0
VERTEX
8
0
10
130.912744260813
20
103.614943524405
30
0
0
VERTEX
8
0
10
131.555734163862
20
103.641540895661
30
0
0
VERTEX
8
0
10
132.198724066911
20
103.668138266917
30
0
0
VERTEX
8
0
10
132.84171396996
20
103.694735638172
30
0
0
VERTEX
8
0
10
133.48470387301
20
103.742534265072
30
0
0
VERTEX
8
0
10
134.127693776059
20
103.785090059081
30
0
0
VERTEX
8
0
10
134.770683679108
20
103.82764585309
30
0
0
VERTEX
8
0
10
135.413673582157
20
103.870201647098
30
0
0
VERTEX
8
0
10
136.056663485206
20
103.889930323581
30
0
0
VERTEX
8
0
10
136.699653388256
20
103.913867957711
30
0
0
VERTEX
8
0
10
137.342643291305
20
103.937805591841
30
0
0
VERTEX
8
0
10
137.985633194354
20
103.961743225971
30
0
0
VERTEX
8
0
10
138.628623097403
20
103.994646333016
30
0
0
VERTEX
8
0
10
139.271613000452
20
104.026563178523
30
0
0
VERTEX
8
0
10
139.914602903502
20
104.058480024029
30
0
0
VERTEX
8
0
10
140.557592806551
20
104.090396869536
30
0
0
VERTEX
8
0
10
141.2005827096
20
104.125029680196
30
0
0
VERTEX
8
0
10
141.843572612649
20
104.159606262828
30
0
0
VERTEX
8
0
10
142.486562515698
20
104.19418284546
30
0
0
VERTEX
8
0
10
143.129552418747
20
104.228759428093
30
0
0
VERTEX
8
0
10
143.772542321797
20
104.256005692718
30
0
0
VERTEX
8
0
10
144.415532224846
20
104.282603063974
30
0
0
VERTEX
8
0
10
145.058522127895
20
104.309200435229
30
0
0
VERTEX
8
0
10
145.701512030944
20
104.335797806485
30
0
0
VERTEX
8
0
10
146.344501933993
20
104.371078831811
30
0
0
VERTEX
8
0
10
146.987491837043
20
104.408315151569
30
0
0
VERTEX
8
0
10
147.630481740092
20
104.445551471326
30
0
0
VERTEX
8
0
10
148.273471643141
20
104.482787791084
30
0
0
VERTEX
8
0
10
148.91646154619
20
104.527617661641
30
0
0
VERTEX
8
0
10
149.559451449239
20
104.575492929901
30
0
0
VERTEX
8
0
10
150.202441352289
20
104.623368198161
30
0
0
VERTEX
8
0
10
150.845431255338
20
104.671243466421
30
0
0
VERTEX
8
0
10
151.488421158387
20
104.727248044089
30
0
0
VERTEX
8
0
10
152.131411061436
20
104.788421997977
30
0
0
VERTEX
8
0
10
152.774400964485
20
104.849595951865
30
0
0
VERTEX
8
0
10
153.417390867534
20
104.910769905753
30
0
0
VERTEX
8
0
10
154.060380770584
20
104.973567862917
30
0
0
VERTEX
8
0
10
154.703370673633
20
105.037933501355
30
0
0
SEQEND
8
0
0
POLYLINE
8
0
62
1
70
0
10
0
20
0
30
0
0
VERTEX
8
0
10
13.2455920028131
20
38.1185818827732
30
0
0
VERTEX
8
0
10
13.8885819058623
20
38.8617124356534
30
0
0
VERTEX
8
0
10
14.5315718089114
20
39.6048429885335
30
0
0
VERTEX
8
0
10
15.1745617119606
20
40.3479735414137
30
0
0
VERTEX
8
0
10
15.8175516150098
20
41.0911040942938
30
0
0
VERTEX
8
0
10
16.460541518059
20
41.8109098202367
30
0
0
VERTEX
8
0
10
17.1035314211082
20
42.5364861080882
30
0
0
VERTEX
8
0
10
17.7465213241573
20
43.2620623959397
30
0
0
VERTEX
8
0
10
18.3895112272065
20
43.9018947210181
30
0
0
VERTEX
8
0
10
19.0325011302557
20
44.4843771515147
30
0
0
VERTEX
8
0
10
19.6754910333049
20
45.0668595820114
30
0
0
VERTEX
8
0
10
20.3184809363541
20
45.649342012508
30
0
0
VERTEX
8
0
10
20.9614708394032
20
46.2318244430046
30
0
0
VERTEX
8
0
10
21.6044607424524
20
46.7864401166637
30
0
0
VERTEX
8
0
10
22.2474506455016
20
47.3503043872814
30
0
0
VERTEX
8
0
10
22.8904405485508
20
47.9141872925682
30
0
0
VERTEX
8
0
10
23.5334304515999
20
48.4781118466743
30
0
0
VERTEX
8
0
10
24.1764203546491
20
48.9948056578637
30
0
0
VERTEX
8
0
10
24.8194102576983
20
49.5276723133549
30
0
0
VERTEX
8
0
10
25.4624001607475
20
50.0629252121383
30
0
0
VERTEX
8
0
10
26.1053900637967
20
50.6004886290944
30
0
0
VERTEX
8
0
10
26.7483799668458
20
51.1280005358484
30
0
0
VERTEX
8
0
10
27.391369869895
20
51.6628490564342
30
0
0
VERTEX
8
0
10
28.0343597729442
20
52.2008835198236
30
0
0
VERTEX
8
0
10
28.6773496759934
20
52.7420064242968
30
0
0
VERTEX
8
0
10
29.3203395790425
20
53.1598605541625
30
0
0
VERTEX
8
0
10
29.9633294820917
20
53.6166032272543
30
0
0
VERTEX
8
0
10
30.6063193851409
20
54.074514793348
30
0
0
VERTEX
8
0
10
31.2493092881901
20
54.5377335303918
30
0
0
VERTEX
8
0
10
31.8922991912392
20
54.8670787627912
30
0
0
VERTEX
8
0
10
32.5352890942884
20
55.2187664539075
30
0
0
VERTEX
8
0
10
33.1782789973376
20
55.5773879699762
30
0
0
VERTEX
8
0
10
33.8212689003868
20
55.9428099632521
30
0
0
VERTEX
8
0
10
34.464258803436
20
56.2746537021835
30
0
0
VERTEX
8
0
10
35.1072487064851
20
56.6070064559355
30
0
0
VERTEX
8
0
10
35.7502386095343
20
56.9436037129014
30
0
0
VERTEX
8
0
10
36.3932285125835
20
57.2843706522957
30
0
0
VERTEX
8
0
10
37.0362184156327
20
57.5111812765117
30
0
0
VERTEX
8
0
10
37.6792083186818
20
57.7227425198814
30
0
0
VERTEX
8
0
10
38.322198221731
20
57.934628451074
30
0
0
VERTEX
8
0
10
38.9651881247802
20
58.1468355206215
30
0
0
VERTEX
8
0
10
39.6081780278294
20
58.3413168948127
30
0
0
VERTEX
8
0
10
40.2511679308785
20
58.5308796462342
30
0
0
VERTEX
8
0
10
40.8941578339277
20
58.7206097833032
30
0
0
VERTEX
8
0
10
41.5371477369769
20
58.9105056887476
30
0
0
VERTEX
8
0
10
42.1801376400261
20
59.0453252203078
30
0
0
VERTEX
8
0
10
42.8231275430752
20
59.1538209052995
30
0
0
VERTEX
8
0
10
43.4661174461244
20
59.2623165929534
30
0
0
VERTEX
8
0
10
44.1091073491736
20
59.3708122832548
30
0
0
VERTEX
8
0
10
44.7520972522228
20
59.4622522898103
30
0
0
VERTEX
8
0
10
45.3950871552719
20
59.5410664092659
30
0
0
VERTEX
8
0
10
46.0380770583211
20
59.6198832491259
30
0
0
VERTEX
8
0
10
46.6810669613703
20
59.6987027986157
30
0
0
VERTEX
8
0
10
47.3240568644195
20
59.7775250470169
30
0
0
VERTEX
8
0
10
47.9670467674687
20
59.8174762026289
30
0
0
VERTEX
8
0
10
48.6100366705178
20
59.8700060411316
30
0
0
VERTEX
8
0
10
49.253026573567
20
59.9226264209158
30
0
0
VERTEX
8
0
10
49.8960164766162
20
59.9753371036678
30
0
0
VERTEX
8
0
10
50.5390063796654
20
60.0475312923273
30
0
0
VERTEX
8
0
10
51.1819962827145
20
60.1146845519914
30
0
0
VERTEX
8
0
10
51.8249861857637
20
60.1820141948887
30
0
0
VERTEX
8
0
10
52.4679760888129
20
60.2495196296873
30
0
0
VERTEX
8
0
10
53.1109659918621
20
60.2885317844653
30
0
0
VERTEX
8
0
10
53.7539558949112
20
60.3345334314832
30
0
0
VERTEX
8
0
10
54.3969457979604
20
60.3813869290439
30
0
0
VERTEX
8
0
10
55.0399357010096
20
60.4290902957089
30
0
0
VERTEX
8
0
10
55.6829256040588
20
60.4624811146988
30
0
0
VERTEX
8
0
10
56.325915507108
20
60.5009036478291
30
0
0
VERTEX
8
0
10
56.9689054101571
20
60.5420530376594
30
0
0
VERTEX
8
0
10
57.6118953132063
20
60.5859237280235
30
0
0
VERTEX
8
0
10
58.2548852162555
20
60.6450215366204
30
0
0
VERTEX
8
0
10
58.8978751193047
20
60.7054510944984
30
0
0
VERTEX
8
0
10
59.5408650223538
20
60.7679589916715
30
0
0
VERTEX
8
0
10
60.183854925403
20
60.8325388214065
30
0
0
VERTEX
8
0
10
60.8268448284522
20
60.8213643210315
30
0
0
VERTEX
8
0
10
61.4698347315014
20
60.8074670745915
30
0
0
VERTEX
8
0
10
62.1128246345505
20
60.7940755102864
30
0
0
VERTEX
8
0
10
62.7558145375997
20
60.7811899623582
30
0
0
VERTEX
8
0
10
63.3988044406489
20
60.7580010187666
30
0
0
VERTEX
8
0
10
64.0417943436981
20
60.7334000076803
30
0
0
VERTEX
8
0
10
64.6847842467472
20
60.7091769440459
30
0
0
VERTEX
8
0
10
65.3277741497964
20
60.6853322804459
30
0
0
VERTEX
8
0
10
65.9707640528456
20
60.633717895058
30
0
0
VERTEX
8
0
10
66.6137539558948
20
60.5732527614534
30
0
0
VERTEX
8
0
10
67.2567438589439
20
60.5130657643776
30
0
0
VERTEX
8
0
10
67.8997337619931
20
60.4531577345667
30
0
0
VERTEX
8
0
10
68.5427236650423
20
60.3878150146296
30
0
0
VERTEX
8
0
10
69.1857135680915
20
60.3196195232674
30
0
0
VERTEX
8
0
10
69.8287034711407
20
60.2515977527559
30
0
0
VERTEX
8
0
10
70.4716933741898
20
60.1837502921312
30
0
0
VERTEX
8
0
10
71.114683277239
20
60.1283753680957
30
0
0
VERTEX
8
0
10
71.7576731802882
20
60.0837037250801
30
0
0
VERTEX
8
0
10
72.4006630833374
20
60.0398077197741
30
0
0
VERTEX
8
0
10
73.0436529863865
20
59.9966890546415
30
0
0
VERTEX
8
0
10
73.6866428894357
20
59.9543494068519
30
0
0
VERTEX
8
0
10
74.3296327924849
20
59.9418739268471
30
0
0
VERTEX
8
0
10
74.9726226955341
20
59.9220654373437
30
0
0
VERTEX
8
0
10
75.6156125985832
20
59.9037563357223
30
0
0
VERTEX
8
0
10
76.2586025016324
20
59.8869479971963
30
0
0
VERTEX
8
0
10
76.9015924046816
20
59.9264267044371
30
0
0
VERTEX
8
0
10
77.5445823077308
20
59.9550153123602
30
0
0
VERTEX
8
0
10
78.1875722107799
20
59.9865180928608
30
0
0
VERTEX
8
0
10
78.8305621138291
20
60.020930457313
30
0
0
VERTEX
8
0
10
79.4735520168783
20
60.1751045179152
30
0
0
VERTEX
8
0
10
80.1165419199275
20
60.3144898003591
30
0
0
VERTEX
8
0
10
80.7595318229767
20
60.4612882889177
30
0
0
VERTEX
8
0
10
81.4025217260258
20
60.6154461237066
30
0
0
VERTEX
8
0
10
82.045511629075
20
60.7753903169469
30
0
0
VERTEX
8
0
10
82.6885015321242
20
60.94269125423
30
0
0
VERTEX
8
0
10
83.3314914351734
20
61.1172460470689
30
0
0
VERTEX
8
0
10
83.9744813382225
20
61.2989927273353
30
0
0
VERTEX
8
0
10
84.6174712412717
20
61.4403600920809
30
0
0
VERTEX
8
0
10
85.2604611443209
20
61.5994501968417
30
0
0
VERTEX
8
0
10
85.9034510473701
20
61.7644994205472
30
0
0
VERTEX
8
0
10
86.5464409504192
20
61.9354601225933
30
0
0
VERTEX
8
0
10
87.1894308534684
20
62.0952148064011
30
0
0
VERTEX
8
0
10
87.8324207565176
20
62.2642977771551
30
0
0
VERTEX
8
0
10
88.4754106595668
20
62.438713099376
30
0
0
VERTEX
8
0
10
89.1184005626159
20
62.6184162153987
30
0
0
VERTEX
8
0
10
89.7613904656651
20
62.7431653782339
30
0
0
VERTEX
8
0
10
90.4043803687143
20
62.88186355703
30
0
0
VERTEX
8
0
10
91.0473702717635
20
63.024360312095
30
0
0
VERTEX
8
0
10
91.6903601748127
20
63.1706299375898
30
0
0
VERTEX
8
0
10
92.3333500778618
20
63.2789040378452
30
0
0
VERTEX
8
0
10
92.976339980911
20
63.3925199119939
30
0
0
VERTEX
8
0
10
93.6193298839602
20
63.5091089625623
30
0
0
VERTEX
8
0
10
94.2623197870093
20
63.6286548459813
30
0
0
VERTEX
8
0
10
94.9053096900585
20
63.6920129399192
30
0
0
VERTEX
8
0
10
95.5482995931077
20
63.7580773406621
30
0
0
VERTEX
8
0
10
96.1912894961569
20
63.8259807593017
30
0
0
VERTEX
8
0
10
96.8342793992061
20
63.8957173327409
30
0
0
VERTEX
8
0
10
97.4772693022552
20
63.8893368586144
30
0
0
VERTEX
8
0
10
98.1202592053044
20
63.8740695598503
30
0
0
VERTEX
8
0
10
98.7632491083536
20
63.8595896775623
30
0
0
VERTEX
8
0
10
99.4062390114028
20
63.8458977474949
30
0
0
VERTEX
8
0
10
100.049228914452
20
63.8103242820567
30
0
0
VERTEX
8
0
10
100.692218817501
20
63.7755719035182
30
0
0
VERTEX
8
0
10
101.33520872055
20
63.7395356963611
30
0
0
VERTEX
8
0
10
101.978198623599
20
63.7040246849386
30
0
0
VERTEX
8
0
10
102.621188526649
20
63.6022701652534
30
0
0
VERTEX
8
0
10
103.264178429698
20
63.4655057152936
30
0
0
VERTEX
8
0
10
103.907168332747
20
63.3301560557771
30
0
0
VERTEX
8
0
10
104.550158235796
20
63.1948618498682
30
0
0
VERTEX
8
0
10
105.193148138845
20
63.0510545977457
30
0
0
VERTEX
8
0
10
105.836138041895
20
62.9064986554885
30
0
0
VERTEX
8
0
10
106.479127944944
20
62.7610424947059
30
0
0
VERTEX
8
0
10
107.122117847993
20
62.6156086136742
30
0
0
VERTEX
8
0
10
107.765107751042
20
62.4701971679988
30
0
0
VERTEX
8
0
10
108.408097654091
20
62.2694336007046
30
0
0
VERTEX
8
0
10
109.051087557141
20
62.0873690895735
30
0
0
VERTEX
8
0
10
109.69407746019
20
61.9053081568533
30
0
0
VERTEX
8
0
10
110.337067363239
20
61.723250834209
30
0
0
VERTEX
8
0
10
110.980057266288
20
61.5302068113233
30
0
0
VERTEX
8
0
10
111.623047169337
20
61.3390909927109
30
0
0
VERTEX
8
0
10
112.266037072386
20
61.1479805926603
30
0
0
VERTEX
8
0
10
112.909026975436
20
60.9568756621357
30
0
0
VERTEX
8
0
10
113.552016878485
20
60.7984312333302
30
0
0
VERTEX
8
0
10
114.195006781534
20
60.6346188302985
30
0
0
VERTEX
8
0
10
114.837996684583
20
60.4708067442098
30
0
0
VERTEX
8
0
10
115.480986587632
20
60.3069949776468
30
0
0
VERTEX
8
0
10
116.123976490682
20
60.1620284641452
30
0
0
VERTEX
8
0
10
116.766966393731
20
60.0148503612971
30
0
0
VERTEX
8
0
10
117.40995629678
20
59.8676802904457
30
0
0
VERTEX
8
0
10
118.052946199829
20
59.7205183109711
30
0
0
VERTEX
8
0
10
118.695936102878
20
59.5805875481582
30
0
0
VERTEX
8
0
10
119.338926005928
20
59.4394201162008
30
0
0
VERTEX
8
0
10
119.981915908977
20
59.2982726034384
30
0
0
VERTEX
8
0
10
120.624905812026
20
59.1571451524512
30
0
0
VERTEX
8
0
10
121.267895715075
20
59.0391554354847
30
0
0
VERTEX
8
0
10
121.910885618124
20
58.9234023320448
30
0
0
VERTEX
8
0
10
122.553875521173
20
58.8077082887459
30
0
0
VERTEX
8
0
10
123.196865424223
20
58.6920736548468
30
0
0
VERTEX
8
0
10
123.839855327272
20
58.5651063956326
30
0
0
VERTEX
8
0
10
124.482845230321
20
58.4365238928101
30
0
0
VERTEX
8
0
10
125.12583513337
20
58.3079724311139
30
0
0
VERTEX
8
0
10
125.768825036419
20
58.1794522163066
30
0
0
VERTEX
8
0
10
126.411814939469
20
57.9967577786803
30
0
0
VERTEX
8
0
10
127.054804842518
20
57.8068275009695
30
0
0
VERTEX
8
0
10
127.697794745567
20
57.6144374349798
30
0
0
VERTEX
8
0
10
128.340784648616
20
57.4220957553737
30
0
0
VERTEX
8
0
10
128.983774551665
20
57.2287159054982
30
0
0
VERTEX
8
0
10
129.626764454715
20
57.0348502037057
30
0
0
VERTEX
8
0
10
130.269754357764
20
56.8410384146049
30
0
0
VERTEX
8
0
10
130.912744260813
20
56.647281091563
30
0
0
VERTEX
8
0
10
131.555734163862
20
56.4572421585084
30
0
0
VERTEX
8
0
10
132.198724066911
20
56.2725740632833
30
0
0
VERTEX
8
0
10
132.84171396996
20
56.0875411302611
30
0
0
VERTEX
8
0
10
133.48470387301
20
55.9025518902322
30
0
0
VERTEX
8
0
10
134.127693776059
20
55.7176067783949
30
0
0
VERTEX
8
0
10
134.770683679108
20
55.5397252138719
30
0
0
VERTEX
8
0
10
135.413673582157
20
55.3601983375315
30
0
0
VERTEX
8
0
10
136.056663485206
20
55.1807122319586
30
0
0
VERTEX
8
0
10
136.699653388256
20
55.001267296296
30
0
0
VERTEX
8
0
10
137.342643291305
20
54.8238037624534
30
0
0
VERTEX
8
0
10
137.985633194354
20
54.6476319475051
30
0
0
VERTEX
8
0
10
138.628623097403
20
54.4715200959442
30
0
0
VERTEX
8
0
10
139.271613000452
20
54.2954687912594
30
0
0
VERTEX
8
0
10
139.914602903502
20
54.1215983521763
30
0
0
VERTEX
8
0
10
140.557592806551
20
53.946709637818
30
0
0
VERTEX
8
0
10
141.2005827096
20
53.7718712310166
30
0
0
VERTEX
8
0
10
141.843572612649
20
53.5970836240953
30
0
0
VERTEX
8
0
10
142.486562515698
20
53.4220337472591
30
0
0
VERTEX
8
0
10
143.129552418747
20
53.2484722735948
30
0
0
VERTEX
8
0
10
143.772542321797
20
53.0749790120856
30
0
0
VERTEX
8
0
10
144.415532224846
20
52.9015546338472
30
0
0
VERTEX
8
0
10
145.058522127895
20
52.7270149949184
30
0
0
VERTEX
8
0
10
145.701512030944
20
52.5572177945453
30
0
0
VERTEX
8
0
10
146.344501933993
20
52.3875532636842
30
0
0
VERTEX
8
0
10
146.987491837043
20
52.218022695527
30
0
0
VERTEX
8
0
10
147.630481740092
20
52.0498124739714
30
0
0
VERTEX
8
0
10
148.273471643141
20
51.877528031134
30
0
0
VERTEX
8
0
10
148.91646154619
20
51.705327348243
30
0
0
VERTEX
8
0
10
149.559451449239
20
51.533211264962
30
0
0
VERTEX
8
0
10
150.202441352289
20
51.4204071789649
30
0
0
VERTEX
8
0
10
150.845431255338
20
51.3277220916965
30
0
0
VERTEX
8
0
10
151.488421158387
20
51.2319656687392
30
0
0
VERTEX
8
0
10
152.131411061436
20
51.1362227810904
30
0
0
VERTEX
8
0
10
152.774400964485
20
51.0351495722163
30
0
0
VERTEX
8
0
10
153.417390867534
20
50.9429000644988
30
0
0
VERTEX
8
0
10
154.060380770584
20
50.8477607716988
30
0
0
VERTEX
8
0
10
154.703370673633
20
50.7526238361471
30
0
0
SEQEND
8
0
0
POLYLINE
8
0
62
2
70
0
10
0
20
0
30
0
0
VERTEX
8
0
10
13.2455920028131
20
38.1185818827732
30
0
0
VERTEX
8
0
10
13.8885819058623
20
38.8617124356534
30
0
0
VERTEX
8
0
10
14.5315718089114
20
39.6048429885335
30
0
0
VERTEX
8
0
10
15.1745617119606
20
40.3479735414137
30
0
0
VERTEX
8
0
10
15.8175516150098
20
41.0911040942938
30
0
0
VERTEX
8
0
10
16.460541518059
20
41.8109098202367
30
0
0
VERTEX
8
0
10
17.1035314211082
20
42.5364861080882
30
0
0
VERTEX
8
0
10
17.7465213241573
20
43.2620623959397
30
0
0
VERTEX
8
0
10
18.3895112272065
20
43.9018947210181
30
0
0
VERTEX
8
0
10
19.0325011302557
20
44.4843771515147
30
0
0
VERTEX
8
0
10
19.6754910333049
20
45.0668595820114
30
0
0
VERTEX
8
0
10
20.3184809363541
20
45.649342012508
30
0
0
VERTEX
8
0
10
20.9614708394032
20
46.2318244430046
30
0
0
VERTEX
8
0
10
21.6044607424524
20
46.7864401166637
30
0
0
VERTEX
8
0
10
22.2474506455016
20
47.3503043872814
30
0
0
VERTEX
8
0
10
22.8904405485508
20
47.9141872925682
30
0
0
VERTEX
8
0
10
23.5334304515999
20
48.4781118466743
30
0
0
VERTEX
8
0
10
24.1764203546491
20
48.9948056578637
30
0
0
VERTEX
8
0
10
24.8194102576983
20
49.5276723133549
30
0
0
VERTEX
8
0
10
25.4624001607475
20
50.0629252121383
30
0
0
VERTEX
8
0
10
26.1053900637967
20
50.6004886290944
30
0
0
VERTEX
8
0
10
26.7483799668458
20
51.1280005358484
30
0
0
VERTEX
8
0
10
27.391369869895
20
51.6628490564342
30
0
0
VERTEX
8
0
10
28.0343597729442
20
52.2008835198236
30
0
0
VERTEX
8
0
10
28.6773496759934
20
52.7420064242969
30
0
0
VERTEX
8
0
10
29.3203395790425
20
53.1598605541625
30
0
0
VERTEX
8
0
10
29.9633294820917
20
53.6166032272543
30
0
0
VERTEX
8
0
10
30.6063193851409
20
54.074514793348
30
0
0
VERTEX
8
0
10
31.2493092881901
20
54.5377335303918
30
0
0
VERTEX
8
0
10
31.8922991912392
20
54.8670787627912
30
0
0
VERTEX
8
0
10
32.5352890942884
20
55.2187664539075
30
0
0
VERTEX
8
0
10
33.1782789973376
20
55.5773879699762
30
0
0
VERTEX
8
0
10
33.8212689003868
20
55.9428099632521
30
0
0
VERTEX
8
0
10
34.464258803436
20
56.2746537021835
30
0
0
VERTEX
8
0
10
35.1072487064851
20
56.6070064559355
30
0
0
VERTEX
8
0
10
35.7502386095343
20
56.9436037129014
30
0
0
VERTEX
8
0
10
36.3932285125835
20
57.2843706522957
30
0
0
VERTEX
8
0
10
37.0362184156327
20
57.5111812765117
30
0
0
VERTEX
8
0
10
37.6792083186818
20
57.7227425198814
30
0
0
VERTEX
8
0
10
38.322198221731
20
57.934628451074
30
0
0
VERTEX
8
0
10
38.9651881247802
20
58.1468355206215
30
0
0
VERTEX
8
0
10
39.6081780278294
20
58.3413168948127
30
0
0
VERTEX
8
0
10
40.2511679308785
20
58.5308796462342
30
0
0
VERTEX
8
0
10
40.8941578339277
20
58.7206097833032
30
0
0
VERTEX
8
0
10
41.5371477369769
20
58.9105056887477
30
0
0
VERTEX
8
0
10
42.1801376400261
20
59.0453252203078
30
0
0
VERTEX
8
0
10
42.8231275430752
20
59.1538209052995
30
0
0
VERTEX
8
0
10
43.4661174461244
20
59.2623165929534
30
0
0
VERTEX
8
0
10
44.1091073491736
20
59.3708122832548
30
0
0
VERTEX
8
0
10
44.7520972522228
20
59.4622522898103
30
0
0
VERTEX
8
0
10
45.3950871552719
20
59.5410664092659
30
0
0
VERTEX
8
0
10
46.0380770583211
20
59.6198832491259
30
0
0
VERTEX
8
0
10
46.6810669613703
20
59.6987027986157
30
0
0
VERTEX
8
0
10
47.3240568644195
20
59.7775250470169
30
0
0
VERTEX
8
0
10
47.9670467674687
20
59.8174762026289
30
0
0
VERTEX
8
0
10
48.6100366705178
20
59.8700060411316
30
0
0
VERTEX
8
0
10
49.253026573567
20
59.9226264209158
30
0
0
VERTEX
8
0
10
49.8960164766162
20
59.9753371036678
30
0
0
VERTEX
8
0
10
50.5390063796654
20
60.0475312923273
30
0
0
VERTEX
8
0
10
51.1819962827145
20
60.1146845519914
30
0
0
VERTEX
8
0
10
51.8249861857637
20
60.1820141948887
30
0
0
VERTEX
8
0
10
52.4679760888129
20
60.2495196296873
30
0
0
VERTEX
8
0
10
53.1109659918621
20
60.2885317844653
30
0
0
VERTEX
8
0
10
53.7539558949112
20
60.3345334314832
30
0
0
VERTEX
8
0
10
54.3969457979604
20
60.3813869290439
30
0
0
VERTEX
8
0
10
55.0399357010096
20
60.4290902957089
30
0
0
VERTEX
8
0
10
55.6829256040588
20
60.4624811146988
30
0
0
VERTEX
8
0
10
56.325915507108
20
60.5009036478291
30
0
0
VERTEX
8
0
10
56.9689054101571
20
60.5420530376594
30
0
0
VERTEX
8
0
10
57.6118953132063
20
60.5859237280235
30
0
0
VERTEX
8
0
10
58.2548852162555
20
60.6450215366204
30
0
0
VERTEX
8
0
10
58.8978751193047
20
60.7054510944985
30
0
0
VERTEX
8
0
10
59.5408650223538
20
60.7679589916715
30
0
0
VERTEX
8
0
10
60.183854925403
20
60.8325388214065
30
0
0
VERTEX
8
0
10
60.8268448284522
20
60.8213643210315
30
0
0
VERTEX
8
0
10
61.4698347315014
20
60.8074670745915
30
0
0
VERTEX
8
0
10
62.1128246345505
20
60.7940755102864
30
0
0
VERTEX
8
0
10
62.7558145375997
20
60.7811899623582
30
0
0
VERTEX
8
0
10
63.3988044406489
20
60.7580010187666
30
0
0
VERTEX
8
0
10
64.0417943436981
20
60.7334000076803
30
0
0
VERTEX
8
0
10
64.6847842467472
20
60.7091769440459
30
0
0
VERTEX
8
0
10
65.3277741497964
20
60.6853322804459
30
0
0
VERTEX
8
0
10
65.9707640528456
20
60.633717895058
30
0
0
VERTEX
8
0
10
66.6137539558948
20
60.5732527614534
30
0
0
VERTEX
8
0
10
67.2567438589439
20
60.5130657643776
30
0
0
VERTEX
8
0
10
67.8997337619931
20
60.4531577345667
30
0
0
VERTEX
8
0
10
68.5427236650423
20
60.3878150146296
30
0
0
VERTEX
8
0
10
69.1857135680915
20
60.3196195232674
30
0
0
VERTEX
8
0
10
69.8287034711407
20
60.2515977527559
30
0
0
VERTEX
8
0
10
70.4716933741898
20
60.1837502921312
30
0
0
VERTEX
8
0
10
71.114683277239
20
60.1283753680957
30
0
0
VERTEX
8
0
10
71.7576731802882
20
60.0837037250801
30
0
0
VERTEX
8
0
10
72.4006630833374
20
60.0398077197741
30
0
0
VERTEX
8
0
10
73.0436529863865
20
59.9966890546415
30
0
0
VERTEX
8
0
10
73.6866428894357
20
59.9543494068519
30
0
0
VERTEX
8
0
10
74.3296327924849
20
59.9418739268471
30
0
0
VERTEX
8
0
10
74.9726226955341
20
59.9220654373437
30
0
0
VERTEX
8
0
10
75.6156125985832
20
59.9037563357223
30
0
0
VERTEX
8
0
10
76.2586025016324
20
59.8869479971963
30
0
0
VERTEX
8
0
10
76.9015924046816
20
59.9264267044371
30
0
0
VERTEX
8
0
10
77.5445823077308
20
59.9550153123602
30
0
0
VERTEX
8
0
10
78.1875722107799
20
59.9865180928608
30
0
0
VERTEX
8
0
10
78.8305621138291
20
60.020930457313
30
0
0
VERTEX
8
0
10
79.4735520168783
20
60.1751045179152
30
0
0
VERTEX
8
0
10
80.1165419199275
20
60.3144898003591
30
0
0
VERTEX
8
0
10
80.7595318229767
20
60.4612882889177
30
0
0
VERTEX
8
0
10
81.4025217260258
20
60.6154461237066
30
0
0
VERTEX
8
0
10
82.045511629075
20
60.7753903169469
30
0
0
VERTEX
8
0
10
82.6885015321242
20
60.94269125423
30
0
0
VERTEX
8
0
10
83.3314914351734
20
61.1172460470689
30
0
0
VERTEX
8
0
10
83.9744813382225
20
61.2989927273353
30
0
0
VERTEX
8
0
10
84.6174712412717
20
61.4403600920809
30
0
0
VERTEX
8
0
10
85.2604611443209
20
61.5994501968417
30
0
0
VERTEX
8
0
10
85.9034510473701
20
61.7644994205472
30
0
0
VERTEX
8
0
10
86.5464409504192
20
61.9354601225933
30
0
0
VERTEX
8
0
10
87.1894308534684
20
62.095214806401
30
0
0
VERTEX
8
0
10
87.8324207565176
20
62.2642977771551
30
0
0
VERTEX
8
0
10
88.4754106595668
20
62.438713099376
30
0
0
VERTEX
8
0
10
89.1184005626159
20
62.6184162153987
30
0
0
VERTEX
8
0
10
89.7613904656651
20
62.7431653782339
30
0
0
VERTEX
8
0
10
90.4043803687143
20
62.88186355703
30
0
0
VERTEX
8
0
10
91.0473702717635
20
63.024360312095
30
0
0
VERTEX
8
0
10
91.6903601748127
20
63.1706299375899
30
0
0
VERTEX
8
0
10
92.3333500778618
20
63.2789040378452
30
0
0
VERTEX
8
0
10
92.976339980911
20
63.3925199119939
30
0
0
VERTEX
8
0
10
93.6193298839602
20
63.5091089625623
30
0
0
VERTEX
8
0
10
94.2623197870093
20
63.6286548459813
30
0
0
VERTEX
8
0
10
94.9053096900585
20
63.6920129399192
30
0
0
VERTEX
8
0
10
95.5482995931077
20
63.7580773406621
30
0
0
VERTEX
8
0
10
96.1912894961569
20
63.8259807593017
30
0
0
VERTEX
8
0
10
96.8342793992061
20
63.8957173327409
30
0
0
VERTEX
8
0
10
97.4772693022552
20
63.8893368586144
30
0
0
VERTEX
8
0
10
98.1202592053044
20
63.8740695598504
30
0
0
VERTEX
8
0
10
98.7632491083536
20
63.8595896775623
30
0
0
VERTEX
8
0
10
99.4062390114028
20
63.8458977474949
30
0
0
VERTEX
8
0
10
100.049228914452
20
63.8103242820567
30
0
0
VERTEX
8
0
10
100.692218817501
20
63.7755719035182
30
0
0
VERTEX
8
0
10
101.33520872055
20
63.7395356963611
30
0
0
VERTEX
8
0
10
101.978198623599
20
63.7040246849386
30
0
0
VERTEX
8
0
10
102.621188526649
20
63.6022701652534
30
0
0
VERTEX
8
0
10
103.264178429698
20
63.4655057152936
30
0
0
VERTEX
8
0
10
103.907168332747
20
63.3301560557771
30
0
0
VERTEX
8
0
10
104.550158235796
20
63.1948618498682
30
0
0
VERTEX
8
0
10
105.193148138845
20
63.0510545977457
30
0
0
VERTEX
8
0
10
105.836138041895
20
62.9064986554885
30
0
0
VERTEX
8
0
10
106.479127944944
20
62.7610424947059
30
0
0
VERTEX
8
0
10
107.122117847993
20
62.6156086136742
30
0
0
VERTEX
8
0
10
107.765107751042
20
62.4701971679987
30
0
0
VERTEX
8
0
10
108.408097654091
20
62.2694336007046
30
0
0
VERTEX
8
0
10
109.051087557141
20
62.0873690895735
30
0
0
VERTEX
8
0
10
109.69407746019
20
61.9053081568533
30
0
0
VERTEX
8
0
10
110.337067363239
20
61.723250834209
30
0
0
VERTEX
8
0
10
110.980057266288
20
61.5302068113233
30
0
0
VERTEX
8
0
10
111.623047169337
20
61.3390909927109
30
0
0
VERTEX
8
0
10
112.266037072386
20
61.1479805926603
30
0
0
VERTEX
8
0
10
112.909026975436
20
60.9568756621357
30
0
0
VERTEX
8
0
10
113.552016878485
20
60.7984312333302
30
0
0
VERTEX
8
0
10
114.195006781534
20
60.6346188302985
30
0
0
VERTEX
8
0
10
114.837996684583
20
60.4708067442098
30
0
0
VERTEX
8
0
10
115.480986587632
20
60.3069949776468
30
0
0
VERTEX
8
0
10
116.123976490682
20
60.1620284641452
30
0
0
VERTEX
8
0
10
116.766966393731
20
60.0148503612971
30
0
0
VERTEX
8
0
10
117.40995629678
20
59.8676802904457
30
0
0
VERTEX
8
0
10
118.052946199829
20
59.7205183109711
30
0
0
VERTEX
8
0
10
118.695936102878
20
59.5805875481582
30
0
0
VERTEX
8
0
10
119.338926005928
20
59.4394201162008
30
0
0
VERTEX
8
0
10
119.981915908977
20
59.2982726034384
30
0
0
VERTEX
8
0
10
120.624905812026
20
59.1571451524512
30
0
0
VERTEX
8
0
10
121.267895715075
20
59.0391554354847
30
0
0
VERTEX
8
0
10
121.910885618124
20
58.9234023320448
30
0
0
VERTEX
8
0
10
122.553875521173
20
58.8077082887459
30
0
0
VERTEX
8
0
10
123.196865424223
20
58.6920736548468
30
0
0
VERTEX
8
0
10
123.839855327272
20
58.5651063956326
30
0
0
VERTEX
8
0
10
124.482845230321
20
58.4365238928101
30
0
0
VERTEX
8
0
10
125.12583513337
20
58.3079724311139
30
0
0
VERTEX
8
0
10
125.768825036419
20
58.1794522163066
30
0
0
VERTEX
8
0
10
126.411814939469
20
57.9967577786803
30
0
0
VERTEX
8
0
10
127.054804842518
20
57.8068275009695
30
0
0
VERTEX
8
0
10
127.697794745567
20
57.6144374349798
30
0
0
VERTEX
8
0
10
128.340784648616
20
57.4220957553737
30
0
0
VERTEX
8
0
10
128.983774551665
20
57.2287159054982
30
0
0
VERTEX
8
0
10
129.626764454715
20
57.0348502037057
30
0
0
VERTEX
8
0
10
130.269754357764
20
56.8410384146049
30
0
0
VERTEX
8
0
10
130.912744260813
20
56.647281091563
30
0
0
VERTEX
8
0
10
131.555734163862
20
56.4572421585084
30
0
0
VERTEX
8
0
10
132.198724066911
20
56.2725740632833
30
0
0
VERTEX
8
0
10
132.84171396996
20
56.0875411302611
30
0
0
VERTEX
8
0
10
133.48470387301
20
55.9025518902322
30
0
0
VERTEX
8
0
10
134.127693776059
20
55.7176067783949
30
0
0
VERTEX
8
0
10
134.770683679108
20
55.5397252138719
30
0
0
VERTEX
8
0
10
135.413673582157
20
55.3601983375315
30
0
0
VERTEX
8
0
10
136.056663485206
20
55.1807122319586
30
0
0
VERTEX
8
0
10
136.699653388256
20
55.001267296296
30
0
0
VERTEX
8
0
10
137.342643291305
20
54.8238037624534
30
0
0
VERTEX
8
0
10
137.985633194354
20
54.6476319475051
30
0
0
VERTEX
8
0
10
138.628623097403
20
54.4715200959442
30
0
0
VERTEX
8
0
10
139.271613000452
20
54.2954687912594
30
0
0
VERTEX
8
0
10
139.914602903502
20
54.1215983521763
30
0
0
VERTEX
8
0
10
140.557592806551
20
53.946709637818
30
0
0
VERTEX
8
0
10
141.2005827096
20
53.7718712310166
30
0
0
VERTEX
8
0
10
141.843572612649
20
53.5970836240953
30
0
0
VERTEX
8
0
10
142.486562515698
20
53.4220337472591
30
0
0
VERTEX
8
0
10
143.129552418747
20
53.2484722735948
30
0
0
VERTEX
8
0
10
143.772542321797
20
53.0749790120856
30
0
0
VERTEX
8
0
10
144.415532224846
20
52.9015546338472
30
0
0
VERTEX
8
0
10
145.058522127895
20
52.7270149949184
30
0
0
VERTEX
8
0
10
145.701512030944
20
52.5572177945453
30
0
0
VERTEX
8
0
10
146.344501933993
20
52.3875532636842
30
0
0
VERTEX
8
0
10
146.987491837043
20
52.218022695527
30
0
0
VERTEX
8
0
10
147.630481740092
20
52.0498124739714
30
0
0
VERTEX
8
0
10
148.273471643141
20
51.877528031134
30
0
0
VERTEX
8
0
10
148.91646154619
20
51.705327348243
30
0
0
VERTEX
8
0
10
149.559451449239
20
51.533211264962
30
0
0
VERTEX
8
0
10
150.202441352289
20
51.4204071789649
30
0
0
VERTEX
8
0
10
150.845431255338
20
51.3277220916965
30
0
0
VERTEX
8
0
10
151.488421158387
20
51.2319656687392
30
0
0
VERTEX
8
0
10
152.131411061436
20
51.1362227810904
30
0
0
VERTEX
8
0
10
152.774400964485
20
51.0351495722163
30
0
0
VERTEX
8
0
10
153.417390867534
20
50.9429000644988
30
0
0
VERTEX
8
0
10
154.060380770584
20
50.8477607716988
30
0
0
VERTEX
8
0
10
154.703370673633
20
50.7526238361471
30
0
0
SEQEND
8
0
0
POLYLINE
8
0
62
3
70
0
10
0
20
0
30
0
0
VERTEX
8
0
10
13.2455920028131
20
42.9542834424247
30
0
0
VERTEX
8
0
10
13.8885819058623
20
44.2860231387941
30
0
0
VERTEX
8
0
10
14.5315718089114
20
46.3871013502619
30
0
0
VERTEX
8
0
10
15.1745617119606
20
46.9239703582852
30
0
0
VERTEX
8
0
10
15.8175516150098
20
48.3364608293822
30
0
0
VERTEX
8
0
10
16.460541518059
20
49.5217306830279
30
0
0
VERTEX
8
0
10
17.1035314211082
20
50.6398743787922
30
0
0
VERTEX
8
0
10
17.7465213241573
20
52.0594245358898
30
0
0
VERTEX
8
0
10
18.3895112272065
20
53.0928971535721
30
0
0
VERTEX
8
0
10
19.0325011302557
20
54.1838880874919
30
0
0
VERTEX
8
0
10
19.6754910333049
20
55.5876933964275
30
0
0
VERTEX
8
0
10
20.3184809363541
20
56.4556098953691
30
0
0
VERTEX
8
0
10
20.9614708394032
20
57.4959896142775
30
0
0
VERTEX
8
0
10
21.6044607424524
20
58.8292236945581
30
0
0
VERTEX
8
0
10
22.2474506455016
20
59.5398618635305
30
0
0
VERTEX
8
0
10
22.8904405485508
20
60.551837601056
30
0
0
VERTEX
8
0
10
23.5334304515999
20
61.4815386068886
30
0
0
VERTEX
8
0
10
24.1764203546491
20
62.379979957561
30
0
0
VERTEX
8
0
10
24.8194102576983
20
63.3645926997427
30
0
0
VERTEX
8
0
10
25.4624001607475
20
64.1778006749935
30
0
0
VERTEX
8
0
10
26.1053900637967
20
65.0055171414723
30
0
0
VERTEX
8
0
10
26.7483799668458
20
65.9482097140827
30
0
0
VERTEX
8
0
10
27.391369869895
20
66.6535661730596
30
0
0
VERTEX
8
0
10
28.0343597729442
20
67.4240383866378
30
0
0
VERTEX
8
0
10
28.6773496759934
20
68.3167130275687
30
0
0
VERTEX
8
0
10
29.3203395790425
20
68.9282826047352
30
0
0
VERTEX
8
0
10
29.9633294820917
20
69.645266497311
30
0
0
VERTEX
8
0
10
30.6063193851409
20
70.3285945881503
30
0
0
VERTEX
8
0
10
31.2493092881901
20
70.9945415433194
30
0
0
VERTEX
8
0
10
31.8922991912392
20
71.6800474321091
30
0
0
VERTEX
8
0
10
32.5352890942884
20
72.2848353443982
30
0
0
VERTEX
8
0
10
33.1782789973376
20
72.8907776286554
30
0
0
VERTEX
8
0
10
33.8212689003868
20
73.5397969540524
30
0
0
VERTEX
8
0
10
34.464258803436
20
74.0702595157658
30
0
0
VERTEX
8
0
10
35.1072487064851
20
74.6261492920795
30
0
0
VERTEX
8
0
10
35.7502386095343
20
75.236199858297
30
0
0
VERTEX
8
0
10
36.3932285125835
20
75.7075070566867
30
0
0
VERTEX
8
0
10
37.0362184156327
20
76.2106751451942
30
0
0
VERTEX
8
0
10
37.6792083186818
20
76.700081320089
30
0
0
VERTEX
8
0
10
38.322198221731
20
77.1794413714949
30
0
0
VERTEX
8
0
10
38.9651881247802
20
77.6548975731158
30
0
0
VERTEX
8
0
10
39.6081780278294
20
78.0901472843488
30
0
0
VERTEX
8
0
10
40.2511679308785
20
78.5228494463163
30
0
0
VERTEX
8
0
10
40.8941578339277
20
78.9696708634522
30
0
0
VERTEX
8
0
10
41.5371477369769
20
79.3538095015667
30
0
0
VERTEX
8
0
10
42.1801376400261
20
79.7476085347744
30
0
0
VERTEX
8
0
10
42.8231275430752
20
80.1660228171362
30
0
0
VERTEX
8
0
10
43.4661174461244
20
80.513698640978
30
0
0
VERTEX
8
0
10
44.1091073491736
20
80.8639751154617
30
0
0
VERTEX
8
0
10
44.7520972522228
20
81.2105097806056
30
0
0
VERTEX
8
0
10
45.3950871552719
20
81.5521070449559
30
0
0
VERTEX
8
0
10
46.0380770583211
20
81.8824355930673
30
0
0
VERTEX
8
0
10
46.6810669613703
20
82.1934746804512
30
0
0
VERTEX
8
0
10
47.3240568644195
20
82.5022042947061
30
0
0
VERTEX
8
0
10
47.9670467674687
20
82.8135951253439
30
0
0
VERTEX
8
0
10
48.6100366705178
20
83.0918574772625
30
0
0
VERTEX
8
0
10
49.253026573567
20
83.3740711495609
30
0
0
VERTEX
8
0
10
49.8960164766162
20
83.6680900977543
30
0
0
VERTEX
8
0
10
50.5390063796654
20
83.927210178065
30
0
0
VERTEX
8
0
10
51.1819962827145
20
84.1778911107225
30
0
0
VERTEX
8
0
10
51.8249861857637
20
84.4310343480165
30
0
0
VERTEX
8
0
10
52.4679760888129
20
84.6835028737045
30
0
0
VERTEX
8
0
10
53.1109659918621
20
84.9238563092198
30
0
0
VERTEX
8
0
10
53.7539558949112
20
85.1571848359755
30
0
0
VERTEX
8
0
10
54.3969457979604
20
85.3901755124767
30
0
0
VERTEX
8
0
10
55.0399357010096
20
85.6220877558052
30
0
0
VERTEX
8
0
10
55.6829256040588
20
85.8381342199465
30
0
0
VERTEX
8
0
10
56.325915507108
20
86.0569654876772
30
0
0
VERTEX
8
0
10
56.9689054101571
20
86.282567100185
30
0
0
VERTEX
8
0
10
57.6118953132063
20
86.4938862955654
30
0
0
VERTEX
8
0
10
58.2548852162555
20
86.6934921412308
30
0
0
VERTEX
8
0
10
58.8978751193047
20
86.9001296522091
30
0
0
VERTEX
8
0
10
59.5408650223538
20
87.1098947956609
30
0
0
VERTEX
8
0
10
60.183854925403
20
87.3091980989838
30
0
0
VERTEX
8
0
10
60.8268448284522
20
87.509536578318
30
0
0
VERTEX
8
0
10
61.4698347315014
20
87.7121544676665
30
0
0
VERTEX
8
0
10
62.1128246345505
20
87.9133157836497
30
0
0
VERTEX
8
0
10
62.7558145375997
20
88.1096508742135
30
0
0
VERTEX
8
0
10
63.3988044406489
20
88.3095936909817
30
0
0
VERTEX
8
0
10
64.0417943436981
20
88.5148781766985
30
0
0
VERTEX
8
0
10
64.6847842467472
20
88.7188558718579
30
0
0
VERTEX
8
0
10
65.3277741497964
20
88.9110275455107
30
0
0
VERTEX
8
0
10
65.9707640528456
20
89.1140337793061
30
0
0
VERTEX
8
0
10
66.6137539558948
20
89.3236761442232
30
0
0
VERTEX
8
0
10
67.2567438589439
20
89.5253880370083
30
0
0
VERTEX
8
0
10
67.8997337619931
20
89.734195938005
30
0
0
VERTEX
8
0
10
68.5427236650423
20
89.948341570933
30
0
0
VERTEX
8
0
10
69.1857135680915
20
90.1625263688612
30
0
0
VERTEX
8
0
10
69.8287034711407
20
90.3804313760616
30
0
0
VERTEX
8
0
10
70.4716933741898
20
90.6049814508243
30
0
0
VERTEX
8
0
10
71.114683277239
20
90.8368974292827
30
0
0
VERTEX
8
0
10
71.7576731802882
20
91.0772728818134
30
0
0
VERTEX
8
0
10
72.4006630833374
20
91.3064718160033
30
0
0
VERTEX
8
0
10
73.0436529863865
20
91.548383637603
30
0
0
VERTEX
8
0
10
73.6866428894357
20
91.797870877765
30
0
0
VERTEX
8
0
10
74.3296327924849
20
92.039176443464
30
0
0
VERTEX
8
0
10
74.9726226955341
20
92.288752855857
30
0
0
VERTEX
8
0
10
75.6156125985832
20
92.5422756676845
30
0
0
VERTEX
8
0
10
76.2586025016324
20
92.7927417560203
30
0
0
VERTEX
8
0
10
76.9015924046816
20
93.0473424686635
30
0
0
VERTEX
8
0
10
77.5445823077308
20
93.3040518111266
30
0
0
VERTEX
8
0
10
78.1875722107799
20
93.5618187608071
30
0
0
VERTEX
8
0
10
78.8305621138291
20
93.8279810669405
30
0
0
VERTEX
8
0
10
79.4735520168783
20
94.0791989875698
30
0
0
VERTEX
8
0
10
80.1165419199275
20
94.3407220284002
30
0
0
VERTEX
8
0
10
80.7595318229767
20
94.6077636045563
30
0
0
VERTEX
8
0
10
81.4025217260258
20
94.8649850798496
30
0
0
VERTEX
8
0
10
82.045511629075
20
95.1298922366117
30
0
0
VERTEX
8
0
10
82.6885015321242
20
95.3971943531963
30
0
0
VERTEX
8
0
10
83.3314914351734
20
95.6596056743268
30
0
0
VERTEX
8
0
10
83.9744813382225
20
95.927025684738
30
0
0
VERTEX
8
0
10
84.6174712412717
20
96.1950580846963
30
0
0
VERTEX
8
0
10
85.2604611443209
20
96.4622164459808
30
0
0
VERTEX
8
0
10
85.9034510473701
20
96.7394004224887
30
0
0
VERTEX
8
0
10
86.5464409504192
20
97.0013295495835
30
0
0
VERTEX
8
0
10
87.1894308534684
20
97.2729971918711
30
0
0
VERTEX
8
0
10
87.8324207565176
20
97.5500103388018
30
0
0
VERTEX
8
0
10
88.4754106595668
20
97.818044082572
30
0
0
VERTEX
8
0
10
89.1184005626159
20
98.0947882459353
30
0
0
VERTEX
8
0
10
89.7613904656651
20
98.3748978708689
30
0
0
VERTEX
8
0
10
90.4043803687143
20
98.6517872709014
30
0
0
VERTEX
8
0
10
91.0473702717635
20
98.9375268280865
30
0
0
VERTEX
8
0
10
91.6903601748127
20
99.2277401117428
30
0
0
VERTEX
8
0
10
92.3333500778618
20
99.5230567312866
30
0
0
VERTEX
8
0
10
92.976339980911
20
99.8403798974175
30
0
0
VERTEX
8
0
10
93.6193298839602
20
100.161031355466
30
0
0
VERTEX
8
0
10
94.2623197870093
20
100.500497392759
30
0
0
VERTEX
8
0
10
94.9053096900585
20
100.816604516439
30
0
0
VERTEX
8
0
10
95.5482995931077
20
101.088067862715
30
0
0
VERTEX
8
0
10
96.1912894961569
20
101.339137146889
30
0
0
VERTEX
8
0
10
96.8342793992061
20
101.569739419479
30
0
0
VERTEX
8
0
10
97.4772693022552
20
101.776858364217
30
0
0
VERTEX
8
0
10
98.1202592053044
20
101.973204842068
30
0
0
VERTEX
8
0
10
98.7632491083536
20
102.154287948152
30
0
0
VERTEX
8
0
10
99.4062390114028
20
102.319588513527
30
0
0
VERTEX
8
0
10
100.049228914452
20
102.481398453338
30
0
0
VERTEX
8
0
10
100.692218817501
20
102.619147580966
30
0
0
VERTEX
8
0
10
101.33520872055
20
102.751985545767
30
0
0
VERTEX
8
0
10
101.978198623599
20
102.876948989678
30
0
0
VERTEX
8
0
10
102.621188526649
20
102.984540572482
30
0
0
VERTEX
8
0
10
103.264178429698
20
103.087541549807
30
0
0
VERTEX
8
0
10
103.907168332747
20
103.181605948346
30
0
0
VERTEX
8
0
10
104.550158235796
20
103.262128877385
30
0
0
VERTEX
8
0
10
105.193148138845
20
103.337960773896
30
0
0
VERTEX
8
0
10
105.836138041895
20
103.404231823055
30
0
0
VERTEX
8
0
10
106.479127944944
20
103.459838402305
30
0
0
VERTEX
8
0
10
107.122117847993
20
103.514228108934
30
0
0
VERTEX
8
0
10
107.765107751042
20
103.55130954396
30
0
0
VERTEX
8
0
10
108.408097654091
20
103.584982166975
30
0
0
VERTEX
8
0
10
109.051087557141
20
103.612861214555
30
0
0
VERTEX
8
0
10
109.69407746019
20
103.628001202711
30
0
0
VERTEX
8
0
10
110.337067363239
20
103.639596382886
30
0
0
VERTEX
8
0
10
110.980057266288
20
103.644276114998
30
0
0
VERTEX
8
0
10
111.623047169337
20
103.638694525771
30
0
0
VERTEX
8
0
10
112.266037072386
20
103.629360766462
30
0
0
VERTEX
8
0
10
112.909026975436
20
103.612507160481
30
0
0
VERTEX
8
0
10
113.552016878485
20
103.587319922642
30
0
0
VERTEX
8
0
10
114.195006781534
20
103.560649582254
30
0
0
VERTEX
8
0
10
114.837996684583
20
103.521277036202
30
0
0
VERTEX
8
0
10
115.480986587632
20
103.478629236426
30
0
0
VERTEX
8
0
10
116.123976490682
20
103.43108581272
30
0
0
VERTEX
8
0
10
116.766966393731
20
103.374153671149
30
0
0
VERTEX
8
0
10
117.40995629678
20
103.313913704923
30
0
0
VERTEX
8
0
10
118.052946199829
20
103.248111161434
30
0
0
VERTEX
8
0
10
118.695936102878
20
103.174665564195
30
0
0
VERTEX
8
0
10
119.338926005928
20
103.097874017219
30
0
0
VERTEX
8
0
10
119.981915908977
20
103.015263248594
30
0
0
VERTEX
8
0
10
120.624905812026
20
102.926394137569
30
0
0
VERTEX
8
0
10
121.267895715075
20
102.835610154005
30
0
0
VERTEX
8
0
10
121.910885618124
20
102.73618857584
30
0
0
VERTEX
8
0
10
122.553875521173
20
102.633756199656
30
0
0
VERTEX
8
0
10
123.196865424223
20
102.527401092535
30
0
0
VERTEX
8
0
10
123.839855327272
20
102.414719918583
30
0
0
VERTEX
8
0
10
124.482845230321
20
102.299185391066
30
0
0
VERTEX
8
0
10
125.12583513337
20
102.179590087114
30
0
0
VERTEX
8
0
10
125.768825036419
20
102.054954626989
30
0
0
VERTEX
8
0
10
126.411814939469
20
101.927663620451
30
0
0
VERTEX
8
0
10
127.054804842518
20
101.796484390498
30
0
0
VERTEX
8
0
10
127.697794745567
20
101.661340643958
30
0
0
VERTEX
8
0
10
128.340784648616
20
101.524451880524
30
0
0
VERTEX
8
0
10
128.983774551665
20
101.382808421992
30
0
0
VERTEX
8
0
10
129.626764454715
20
101.239104426825
30
0
0
VERTEX
8
0
10
130.269754357764
20
101.093040812641
30
0
0
VERTEX
8
0
10
130.912744260813
20
100.943823266149
30
0
0
VERTEX
8
0
10
131.555734163862
20
100.793006736092
30
0
0
VERTEX
8
0
10
132.198724066911
20
100.640269034705
30
0
0
VERTEX
8
0
10
132.84171396996
20
100.48548864627
30
0
0
VERTEX
8
0
10
133.48470387301
20
100.329691179963
30
0
0
VERTEX
8
0
10
134.127693776059
20
100.172677129017
30
0
0
VERTEX
8
0
10
134.770683679108
20
100.01470365417
30
0
0
VERTEX
8
0
10
135.413673582157
20
99.8566154480488
30
0
0
VERTEX
8
0
10
136.056663485206
20
99.6979870297045
30
0
0
VERTEX
8
0
10
136.699653388256
20
99.5397701504986
30
0
0
VERTEX
8
0
10
137.342643291305
20
99.3822422805951
30
0
0
VERTEX
8
0
10
137.985633194354
20
99.2257234312241
30
0
0
VERTEX
8
0
10
138.628623097403
20
99.0709147577804
30
0
0
VERTEX
8
0
10
139.271613000452
20
98.9183343344518
30
0
0
VERTEX
8
0
10
139.914602903502
20
98.7686868189219
30
0
0
VERTEX
8
0
10
140.557592806551
20
98.6228881533721
30
0
0
VERTEX
8
0
10
141.2005827096
20
98.4819586357923
30
0
0
VERTEX
8
0
10
141.843572612649
20
98.3467805791354
30
0
0
VERTEX
8
0
10
142.486562515698
20
98.2174165424834
30
0
0
VERTEX
8
0
10
143.129552418747
20
98.0932253062088
30
0
0
VERTEX
8
0
10
143.772542321797
20
97.9735010988613
30
0
0
VERTEX
8
0
10
144.415532224846
20
97.8576930699762
30
0
0
VERTEX
8
0
10
145.058522127895
20
97.7453850226161
30
0
0
VERTEX
8
0
10
145.701512030944
20
97.6362524237805
30
0
0
VERTEX
8
0
10
146.344501933993
20
97.5300331873176
30
0
0
VERTEX
8
0
10
146.987491837043
20
97.4265095939041
30
0
0
VERTEX
8
0
10
147.630481740092
20
97.3254968058692
30
0
0
VERTEX
8
0
10
148.273471643141
20
97.2268352243565
30
0
0
VERTEX
8
0
10
148.91646154619
20
97.1303851744191
30
0
0
VERTEX
8
0
10
149.559451449239
20
97.0360230689422
30
0
0
VERTEX
8
0
10
150.202441352289
20
96.9436385536693
30
0
0
VERTEX
8
0
10
150.845431255338
20
96.8531323277507
30
0
0
VERTEX
8
0
10
151.488421158387
20
96.7644144441781
30
0
0
VERTEX
8
0
10
152.131411061436
20
96.6774029602708
30
0
0
VERTEX
8
0
10
152.774400964485
20
96.5920228493355
30
0
0
VERTEX
8
0
10
153.417390867534
20
96.5082051110301
30
0
0
VERTEX
8
0
10
154.060380770584
20
96.4258860354878
30
0
0
VERTEX
8
0
10
154.703370673633
20
96.3450065882298
30
0
0
SEQEND
8
0
0
POLYLINE
8
0
62
4
70
0
10
0
20
0
30
0
0
VERTEX
8
0
10
13.2455920028131
20
44.2254089137201
30
0
0
VERTEX
8
0
10
13.8885819058623
20
45.3286401803751
30
0
0
VERTEX
8
0
10
14.5315718089114
20
46.4163544093492
30
0
0
VERTEX
8
0
10
15.1745617119606
20
47.5268169686885
30
0
0
VERTEX
8
0
10
15.8175516150098
20
48.6020163789972
30
0
0
VERTEX
8
0
10
16.460541518059
20
49.6644516237318
30
0
0
VERTEX
8
0
10
17.1035314211082
20
50.7314190639754
30
0
0
VERTEX
8
0
10
17.7465213241573
20
51.7744672058025
30
0
0
VERTEX
8
0
10
18.3895112272065
20
52.7541639976969
30
0
0
VERTEX
8
0
10
19.0325011302557
20
53.6804295687654
30
0
0
VERTEX
8
0
10
19.6754910333049
20
54.5866394242887
30
0
0
VERTEX
8
0
10
20.3184809363541
20
55.5028479895913
30
0
0
VERTEX
8
0
10
20.9614708394032
20
56.4079353552059
30
0
0
VERTEX
8
0
10
21.6044607424524
20
57.2730436979371
30
0
0
VERTEX
8
0
10
22.2474506455016
20
58.1662448108685
30
0
0
VERTEX
8
0
10
22.8904405485508
20
59.4820729788189
30
0
0
VERTEX
8
0
10
23.5334304515999
20
60.4030428758537
30
0
0
VERTEX
8
0
10
24.1764203546491
20
61.2845776722209
30
0
0
VERTEX
8
0
10
24.8194102576983
20
62.1677694996967
30
0
0
VERTEX
8
0
10
25.4624001607475
20
63.0456674113319
30
0
0
VERTEX
8
0
10
26.1053900637967
20
63.8978704199617
30
0
0
VERTEX
8
0
10
26.7483799668458
20
64.7208605067956
30
0
0
VERTEX
8
0
10
27.391369869895
20
65.5594762311214
30
0
0
VERTEX
8
0
10
28.0343597729442
20
66.3894470736216
30
0
0
VERTEX
8
0
10
28.6773496759934
20
67.2048903974902
30
0
0
VERTEX
8
0
10
29.3203395790425
20
67.943981950408
30
0
0
VERTEX
8
0
10
29.9633294820917
20
68.6804373423989
30
0
0
VERTEX
8
0
10
30.6063193851409
20
69.423103195745
30
0
0
VERTEX
8
0
10
31.2493092881901
20
70.1687764715801
30
0
0
VERTEX
8
0
10
31.8922991912392
20
70.7891980661723
30
0
0
VERTEX
8
0
10
32.5352890942884
20
71.4342997102312
30
0
0
VERTEX
8
0
10
33.1782789973376
20
72.0792767475829
30
0
0
VERTEX
8
0
10
33.8212689003868
20
72.7116444716996
30
0
0
VERTEX
8
0
10
34.464258803436
20
73.3270017657533
30
0
0
VERTEX
8
0
10
35.1072487064851
20
73.9330708732679
30
0
0
VERTEX
8
0
10
35.7502386095343
20
74.5276384330451
30
0
0
VERTEX
8
0
10
36.3932285125835
20
75.1433695196932
30
0
0
VERTEX
8
0
10
37.0362184156327
20
75.6434436931816
30
0
0
VERTEX
8
0
10
37.6792083186818
20
76.1369661731494
30
0
0
VERTEX
8
0
10
38.322198221731
20
76.6302450300998
30
0
0
VERTEX
8
0
10
38.9651881247802
20
77.1055876740559
30
0
0
VERTEX
8
0
10
39.6081780278294
20
77.5742120341636
30
0
0
VERTEX
8
0
10
40.2511679308785
20
78.0346575341321
30
0
0
VERTEX
8
0
10
40.8941578339277
20
78.4800070943357
30
0
0
VERTEX
8
0
10
41.5371477369769
20
78.9336225453506
30
0
0
VERTEX
8
0
10
42.1801376400261
20
79.3381050488213
30
0
0
VERTEX
8
0
10
42.8231275430752
20
79.7106950859671
30
0
0
VERTEX
8
0
10
43.4661174461244
20
80.0998321465465
30
0
0
VERTEX
8
0
10
44.1091073491736
20
80.4643596064371
30
0
0
VERTEX
8
0
10
44.7520972522228
20
80.8211162678215
30
0
0
VERTEX
8
0
10
45.3950871552719
20
81.1686354924992
30
0
0
VERTEX
8
0
10
46.0380770583211
20
81.5007715818951
30
0
0
VERTEX
8
0
10
46.6810669613703
20
81.8392966328011
30
0
0
VERTEX
8
0
10
47.3240568644195
20
82.1744131407142
30
0
0
VERTEX
8
0
10
47.9670467674687
20
82.4684725232615
30
0
0
VERTEX
8
0
10
48.6100366705178
20
82.779578012557
30
0
0
VERTEX
8
0
10
49.253026573567
20
83.084266301119
30
0
0
VERTEX
8
0
10
49.8960164766162
20
83.3786067782797
30
0
0
VERTEX
8
0
10
50.5390063796654
20
83.702090932246
30
0
0
VERTEX
8
0
10
51.1819962827145
20
84.0006226779252
30
0
0
VERTEX
8
0
10
51.8249861857637
20
84.3039720126766
30
0
0
VERTEX
8
0
10
52.4679760888129
20
84.6079120007718
30
0
0
VERTEX
8
0
10
53.1109659918621
20
84.8783707987448
30
0
0
VERTEX
8
0
10
53.7539558949112
20
85.1600209440019
30
0
0
VERTEX
8
0
10
54.3969457979604
20
85.439785587601
30
0
0
VERTEX
8
0
10
55.0399357010096
20
85.7092164629787
30
0
0
VERTEX
8
0
10
55.6829256040588
20
85.9761699337245
30
0
0
VERTEX
8
0
10
56.325915507108
20
86.2414051061186
30
0
0
VERTEX
8
0
10
56.9689054101571
20
86.499729237082
30
0
0
VERTEX
8
0
10
57.6118953132063
20
86.7742383155239
30
0
0
VERTEX
8
0
10
58.2548852162555
20
87.0407573288189
30
0
0
VERTEX
8
0
10
58.8978751193047
20
87.3130288004485
30
0
0
VERTEX
8
0
10
59.5408650223538
20
87.5877850539055
30
0
0
VERTEX
8
0
10
60.183854925403
20
87.852560804984
30
0
0
VERTEX
8
0
10
60.8268448284522
20
88.0712217589565
30
0
0
VERTEX
8
0
10
61.4698347315014
20
88.2865510170941
30
0
0
VERTEX
8
0
10
62.1128246345505
20
88.4930107289791
30
0
0
VERTEX
8
0
10
62.7558145375997
20
88.7076421519744
30
0
0
VERTEX
8
0
10
63.3988044406489
20
88.9111785139439
30
0
0
VERTEX
8
0
10
64.0417943436981
20
89.1063933688332
30
0
0
VERTEX
8
0
10
64.6847842467472
20
89.3160237228161
30
0
0
VERTEX
8
0
10
65.3277741497964
20
89.5094477307903
30
0
0
VERTEX
8
0
10
65.9707640528456
20
89.6894753652458
30
0
0
VERTEX
8
0
10
66.6137539558948
20
89.8655163255847
30
0
0
VERTEX
8
0
10
67.2567438589439
20
90.0320062099928
30
0
0
VERTEX
8
0
10
67.8997337619931
20
90.2055658745825
30
0
0
VERTEX
8
0
10
68.5427236650423
20
90.3748905913589
30
0
0
VERTEX
8
0
10
69.1857135680915
20
90.5342971009102
30
0
0
VERTEX
8
0
10
69.8287034711407
20
90.7020663559762
30
0
0
VERTEX
8
0
10
70.4716933741898
20
90.8668283989406
30
0
0
VERTEX
8
0
10
71.114683277239
20
91.0334242495144
30
0
0
VERTEX
8
0
10
71.7576731802882
20
91.221303946852
30
0
0
VERTEX
8
0
10
72.4006630833374
20
91.3942822862025
30
0
0
VERTEX
8
0
10
73.0436529863865
20
91.5733385412464
30
0
0
VERTEX
8
0
10
73.6866428894357
20
91.7550266485901
30
0
0
VERTEX
8
0
10
74.3296327924849
20
91.9468499355204
30
0
0
VERTEX
8
0
10
74.9726226955341
20
92.1405026281967
30
0
0
VERTEX
8
0
10
75.6156125985832
20
92.3344216977849
30
0
0
VERTEX
8
0
10
76.2586025016324
20
92.5213352863565
30
0
0
VERTEX
8
0
10
76.9015924046816
20
92.7523024750325
30
0
0
VERTEX
8
0
10
77.5445823077308
20
92.9727093791188
30
0
0
VERTEX
8
0
10
78.1875722107799
20
93.188283790684
30
0
0
VERTEX
8
0
10
78.8305621138291
20
93.418919910112
30
0
0
VERTEX
8
0
10
79.4735520168783
20
93.7111178358429
30
0
0
VERTEX
8
0
10
80.1165419199275
20
93.9984966052335
30
0
0
VERTEX
8
0
10
80.7595318229767
20
94.2919868698866
30
0
0
VERTEX
8
0
10
81.4025217260258
20
94.5806495014289
30
0
0
VERTEX
8
0
10
82.045511629075
20
94.8787218832011
30
0
0
VERTEX
8
0
10
82.6885015321242
20
95.1802171839445
30
0
0
VERTEX
8
0
10
83.3314914351734
20
95.4782156166101
30
0
0
VERTEX
8
0
10
83.9744813382225
20
95.7874737034143
30
0
0
VERTEX
8
0
10
84.6174712412717
20
96.0670899885642
30
0
0
VERTEX
8
0
10
85.2604611443209
20
96.3512673984773
30
0
0
VERTEX
8
0
10
85.9034510473701
20
96.6510960132929
30
0
0
VERTEX
8
0
10
86.5464409504192
20
96.9399336805653
30
0
0
VERTEX
8
0
10
87.1894308534684
20
97.2256315472018
30
0
0
VERTEX
8
0
10
87.8324207565176
20
97.5181856858145
30
0
0
VERTEX
8
0
10
88.4754106595668
20
97.804946513274
30
0
0
VERTEX
8
0
10
89.1184005626159
20
98.0999995549259
30
0
0
VERTEX
8
0
10
89.7613904656651
20
98.3584179835228
30
0
0
VERTEX
8
0
10
90.4043803687143
20
98.6178832405136
30
0
0
VERTEX
8
0
10
91.0473702717635
20
98.8855237993228
30
0
0
VERTEX
8
0
10
91.6903601748127
20
99.1516767938444
30
0
0
VERTEX
8
0
10
92.3333500778618
20
99.3870285584694
30
0
0
VERTEX
8
0
10
92.976339980911
20
99.6361857039454
30
0
0
VERTEX
8
0
10
93.6193298839602
20
99.8733028160456
30
0
0
VERTEX
8
0
10
94.2623197870093
20
100.115028249742
30
0
0
VERTEX
8
0
10
94.9053096900585
20
100.319961964279
30
0
0
VERTEX
8
0
10
95.5482995931077
20
100.516189299526
30
0
0
VERTEX
8
0
10
96.1912894961569
20
100.715591503948
30
0
0
VERTEX
8
0
10
96.8342793992061
20
100.912443632325
30
0
0
VERTEX
8
0
10
97.4772693022552
20
101.052223666398
30
0
0
VERTEX
8
0
10
98.1202592053044
20
101.189070025125
30
0
0
VERTEX
8
0
10
98.7632491083536
20
101.321048851286
30
0
0
VERTEX
8
0
10
99.4062390114028
20
101.446121670391
30
0
0
VERTEX
8
0
10
100.049228914452
20
101.56363428509
30
0
0
VERTEX
8
0
10
100.692218817501
20
101.668714778809
30
0
0
VERTEX
8
0
10
101.33520872055
20
101.773551150974
30
0
0
VERTEX
8
0
10
101.978198623599
20
101.876995412083
30
0
0
VERTEX
8
0
10
102.621188526649
20
101.930624804351
30
0
0
VERTEX
8
0
10
103.264178429698
20
101.963666354733
30
0
0
VERTEX
8
0
10
103.907168332747
20
101.994541950989
30
0
0
VERTEX
8
0
10
104.550158235796
20
102.018493826246
30
0
0
VERTEX
8
0
10
105.193148138845
20
102.038863182832
30
0
0
VERTEX
8
0
10
105.836138041895
20
102.054431959086
30
0
0
VERTEX
8
0
10
106.479127944944
20
102.063636043064
30
0
0
VERTEX
8
0
10
107.122117847993
20
102.077076190664
30
0
0
VERTEX
8
0
10
107.765107751042
20
102.080652008583
30
0
0
VERTEX
8
0
10
108.408097654091
20
102.050487472484
30
0
0
VERTEX
8
0
10
109.051087557141
20
102.030236688211
30
0
0
VERTEX
8
0
10
109.69407746019
20
102.003619354403
30
0
0
VERTEX
8
0
10
110.337067363239
20
101.977488476796
30
0
0
VERTEX
8
0
10
110.980057266288
20
101.942088043374
30
0
0
VERTEX
8
0
10
111.623047169337
20
101.90252752665
30
0
0
VERTEX
8
0
10
112.266037072386
20
101.863717239253
30
0
0
VERTEX
8
0
10
112.909026975436
20
101.821434978874
30
0
0
VERTEX
8
0
10
113.552016878485
20
101.794217647925
30
0
0
VERTEX
8
0
10
114.195006781534
20
101.766111298953
30
0
0
VERTEX
8
0
10
114.837996684583
20
101.730785018681
30
0
0
VERTEX
8
0
10
115.480986587632
20
101.694961654065
30
0
0
VERTEX
8
0
10
116.123976490682
20
101.668649634473
30
0
0
VERTEX
8
0
10
116.766966393731
20
101.636211130294
30
0
0
VERTEX
8
0
10
117.40995629678
20
101.603446471934
30
0
0
VERTEX
8
0
10
118.052946199829
20
101.568337644568
30
0
0
VERTEX
8
0
10
118.695936102878
20
101.533457137953
30
0
0
VERTEX
8
0
10
119.338926005928
20
101.497643154973
30
0
0
VERTEX
8
0
10
119.981915908977
20
101.459023099807
30
0
0
VERTEX
8
0
10
120.624905812026
20
101.417077923383
30
0
0
VERTEX
8
0
10
121.267895715075
20
101.389360031098
30
0
0
VERTEX
8
0
10
121.910885618124
20
101.358044122599
30
0
0
VERTEX
8
0
10
122.553875521173
20
101.325831620558
30
0
0
VERTEX
8
0
10
123.196865424223
20
101.292060690063
30
0
0
VERTEX
8
0
10
123.839855327272
20
101.248448761778
30
0
0
VERTEX
8
0
10
124.482845230321
20
101.20313752506
30
0
0
VERTEX
8
0
10
125.12583513337
20
101.155995796674
30
0
0
VERTEX
8
0
10
125.768825036419
20
101.10621603581
30
0
0
VERTEX
8
0
10
126.411814939469
20
101.024658346297
30
0
0
VERTEX
8
0
10
127.054804842518
20
100.937118316886
30
0
0
VERTEX
8
0
10
127.697794745567
20
100.846175937694
30
0
0
VERTEX
8
0
10
128.340784648616
20
100.755204274977
30
0
0
VERTEX
8
0
10
128.983774551665
20
100.661059529789
30
0
0
VERTEX
8
0
10
129.626764454715
20
100.565894663168
30
0
0
VERTEX
8
0
10
130.269754357764
20
100.469739766711
30
0
0
VERTEX
8
0
10
130.912744260813
20
100.371970453371
30
0
0
VERTEX
8
0
10
131.555734163862
20
100.275679182316
30
0
0
VERTEX
8
0
10
132.198724066911
20
100.181392231709
30
0
0
VERTEX
8
0
10
132.84171396996
20
100.08566727243
30
0
0
VERTEX
8
0
10
133.48470387301
20
99.9894436674871
30
0
0
VERTEX
8
0
10
134.127693776059
20
99.8923500931728
30
0
0
VERTEX
8
0
10
134.770683679108
20
99.7983297781905
30
0
0
VERTEX
8
0
10
135.413673582157
20
99.7030629742483
30
0
0
VERTEX
8
0
10
136.056663485206
20
99.6069468658588
30
0
0
VERTEX
8
0
10
136.699653388256
20
99.510469474536
30
0
0
VERTEX
8
0
10
137.342643291305
20
99.4146906207661
30
0
0
VERTEX
8
0
10
137.985633194354
20
99.3192118667665
30
0
0
VERTEX
8
0
10
138.628623097403
20
99.2235655342571
30
0
0
VERTEX
8
0
10
139.271613000452
20
99.1277735238444
30
0
0
VERTEX
8
0
10
139.914602903502
20
99.0330740077585
30
0
0
VERTEX
8
0
10
140.557592806551
20
98.937830328735
30
0
0
VERTEX
8
0
10
141.2005827096
20
98.8426945463804
30
0
0
VERTEX
8
0
10
141.843572612649
20
98.7477422331788
30
0
0
VERTEX
8
0
10
142.486562515698
20
98.6528462733716
30
0
0
VERTEX
8
0
10
143.129552418747
20
98.5589692800344
30
0
0
VERTEX
8
0
10
143.772542321797
20
98.4653445156057
30
0
0
VERTEX
8
0
10
144.415532224846
20
98.3719734759654
30
0
0
VERTEX
8
0
10
145.058522127895
20
98.2782213669048
30
0
0
VERTEX
8
0
10
145.701512030944
20
98.1872284335005
30
0
0
VERTEX
8
0
10
146.344501933993
20
98.0965158513895
30
0
0
VERTEX
8
0
10
146.987491837043
20
98.0060844002707
30
0
0
VERTEX
8
0
10
147.630481740092
20
97.9165648081123
30
0
0
VERTEX
8
0
10
148.273471643141
20
97.8250918725224
30
0
0
VERTEX
8
0
10
148.91646154619
20
97.7338813382312
30
0
0
VERTEX
8
0
10
149.559451449239
20
97.6429339405865
30
0
0
VERTEX
8
0
10
150.202441352289
20
97.5834461355873
30
0
0
VERTEX
8
0
10
150.845431255338
20
97.5346386693924
30
0
0
VERTEX
8
0
10
151.488421158387
20
97.4842807406886
30
0
0
VERTEX
8
0
10
152.131411061436
20
97.4339979964069
30
0
0
VERTEX
8
0
10
152.774400964485
20
97.3809898137464
30
0
0
VERTEX
8
0
10
153.417390867534
20
97.3326756656164
30
0
0
VERTEX
8
0
10
154.060380770584
20
97.2829145366361
30
0
0
VERTEX
8
0
10
154.703370673633
20
97.2332222622494
30
0
0
SEQEND
8
0
0
POLYLINE
8
0
62
2
70
0
10
0
20
0
30
0
0
VERTEX
8
0
10
13.2455920028131
20
36.6361837152848
30
0
0
VERTEX
8
0
10
13.8885819058623
20
37.6403894544054
30
0
0
VERTEX
8
0
10
14.5315718089114
20
39.5705547493532
30
0
0
VERTEX
8
0
10
15.1745617119606
20
39.6360900179196
30
0
0
VERTEX
8
0
10
15.8175516150098
20
40.7766634865357
30
0
0
VERTEX
8
0
10
16.460541518059
20
41.641280416821
30
0
0
VERTEX
8
0
10
17.1035314211082
20
42.4272630189451
30
0
0
VERTEX
8
0
10
17.7465213241573
20
43.5682262836158
30
0
0
VERTEX
8
0
10
18.3895112272065
20
44.2264681119288
30
0
0
VERTEX
8
0
10
19.0325011302557
20
44.9525192366843
30
0
0
VERTEX
8
0
10
19.6754910333049
20
46.0493592538413
30
0
0
VERTEX
8
0
10
20.3184809363541
20
46.5321954033468
30
0
0
VERTEX
8
0
10
20.9614708394032
20
47.2178208170171
30
0
0
VERTEX
8
0
10
21.6044607424524
20
48.2487609701803
30
0
0
VERTEX
8
0
10
22.2474506455016
20
48.5545362347073
30
0
0
VERTEX
8
0
10
22.8904405485508
20
49.2359358082532
30
0
0
VERTEX
8
0
10
23.5334304515999
20
49.8154527132573
30
0
0
VERTEX
8
0
10
24.1764203546491
20
50.3582507688171
30
0
0
VERTEX
8
0
10
24.8194102576983
20
51.0218616694444
30
0
0
VERTEX
8
0
10
25.4624001607475
20
51.4813597424842
30
0
0
VERTEX
8
0
10
26.1053900637967
20
51.9615295747322
30
0
0
VERTEX
8
0
10
26.7483799668458
20
52.5909738878256
30
0
0
VERTEX
8
0
10
27.391369869895
20
52.9401643767809
30
0
0
VERTEX
8
0
10
28.0343597729442
20
53.3723806766797
30
0
0
VERTEX
8
0
10
28.6773496759934
20
53.9582844765709
30
0
0
VERTEX
8
0
10
29.3203395790425
20
54.2030221973557
30
0
0
VERTEX
8
0
10
29.9633294820917
20
54.6007716422845
30
0
0
VERTEX
8
0
10
30.6063193851409
20
54.9523983743599
30
0
0
VERTEX
8
0
10
31.2493092881901
20
55.2832851855278
30
0
0
VERTEX
8
0
10
31.8922991912392
20
55.6575386934313
30
0
0
VERTEX
8
0
10
32.5352890942884
20
55.9307988919798
30
0
0
VERTEX
8
0
10
33.1782789973376
20
56.2093097099539
30
0
0
VERTEX
8
0
10
33.8212689003868
20
56.5538152924114
30
0
0
VERTEX
8
0
10
34.464258803436
20
56.7531079277351
30
0
0
VERTEX
8
0
10
35.1072487064851
20
56.9895091676255
30
0
0
VERTEX
8
0
10
35.7502386095343
20
57.3007344405046
30
0
0
VERTEX
8
0
10
36.3932285125835
20
57.4340742382447
30
0
0
VERTEX
8
0
10
37.0362184156327
20
57.6329714505993
30
0
0
VERTEX
8
0
10
37.6792083186818
20
57.8088979669693
30
0
0
VERTEX
8
0
10
38.322198221731
20
57.9721453800151
30
0
0
VERTEX
8
0
10
38.9651881247802
20
58.1491214257088
30
0
0
VERTEX
8
0
10
39.6081780278294
20
58.2717621543803
30
0
0
VERTEX
8
0
10
40.2511679308785
20
58.3944539014561
30
0
0
VERTEX
8
0
10
40.8941578339277
20
58.5475203488014
30
0
0
VERTEX
8
0
10
41.5371477369769
20
58.6196846883339
30
0
0
VERTEX
8
0
10
42.1801376400261
20
58.7093418222912
30
0
0
VERTEX
8
0
10
42.8231275430752
20
58.8377474626074
30
0
0
VERTEX
8
0
10
43.4661174461244
20
58.867634212867
30
0
0
VERTEX
8
0
10
44.1091073491736
20
58.9254219612444
30
0
0
VERTEX
8
0
10
44.7520972522228
20
58.971711981855
30
0
0
VERTEX
8
0
10
45.3950871552719
20
59.0104293894557
30
0
0
VERTEX
8
0
10
46.0380770583211
20
59.0514512965425
30
0
0
VERTEX
8
0
10
46.6810669613703
20
59.0621981779545
30
0
0
VERTEX
8
0
10
47.3240568644195
20
59.0719420322683
30
0
0
VERTEX
8
0
10
47.9670467674687
20
59.0962491106516
30
0
0
VERTEX
8
0
10
48.6100366705178
20
59.0737580743415
30
0
0
VERTEX
8
0
10
49.253026573567
20
59.0603747204278
30
0
0
VERTEX
8
0
10
49.8960164766162
20
59.0686443951079
30
0
0
VERTEX
8
0
10
50.5390063796654
20
59.0206138521917
30
0
0
VERTEX
8
0
10
51.1819962827145
20
58.9840511249881
30
0
0
VERTEX
8
0
10
51.8249861857637
20
58.9427002081216
30
0
0
VERTEX
8
0
10
52.4679760888129
20
58.897681021451
30
0
0
VERTEX
8
0
10
53.1109659918621
20
58.8513618255314
30
0
0
VERTEX
8
0
10
53.7539558949112
20
58.7885824063677
30
0
0
VERTEX
8
0
10
54.3969457979604
20
58.7256854841784
30
0
0
VERTEX
8
0
10
55.0399357010096
20
58.6707296646385
30
0
0
VERTEX
8
0
10
55.6829256040588
20
58.5886811588915
30
0
0
VERTEX
8
0
10
56.325915507108
20
58.51271897089
30
0
0
VERTEX
8
0
10
56.9689054101571
20
58.4505918559301
30
0
0
VERTEX
8
0
10
57.6118953132063
20
58.3563378164794
30
0
0
VERTEX
8
0
10
58.2548852162555
20
58.2669528115723
30
0
0
VERTEX
8
0
10
58.8978751193047
20
58.1774472100866
30
0
0
VERTEX
8
0
10
59.5408650223538
20
58.087701263313
30
0
0
VERTEX
8
0
10
60.183854925403
20
57.9966397938345
30
0
0
VERTEX
8
0
10
60.8268448284522
20
57.8979685150639
30
0
0
VERTEX
8
0
10
61.4698347315014
20
57.8011017711721
30
0
0
VERTEX
8
0
10
62.1128246345505
20
57.7101537809532
30
0
0
VERTEX
8
0
10
62.7558145375997
20
57.6045529216409
30
0
0
VERTEX
8
0
10
63.3988044406489
20
57.5048535372744
30
0
0
VERTEX
8
0
10
64.0417943436981
20
57.4160976879758
30
0
0
VERTEX
8
0
10
64.6847842467472
20
57.3102773875238
30
0
0
VERTEX
8
0
10
65.3277741497964
20
57.20768178767
30
0
0
VERTEX
8
0
10
65.9707640528456
20
57.1090171039096
30
0
0
VERTEX
8
0
10
66.6137539558948
20
57.0137041404218
30
0
0
VERTEX
8
0
10
67.2567438589439
20
56.9191852990809
30
0
0
VERTEX
8
0
10
67.8997337619931
20
56.8239958432757
30
0
0
VERTEX
8
0
10
68.5427236650423
20
56.7339137115302
30
0
0
VERTEX
8
0
10
69.1857135680915
20
56.6512299987263
30
0
0
VERTEX
8
0
10
69.8287034711407
20
56.564200287439
30
0
0
VERTEX
8
0
10
70.4716933741898
20
56.4870895388015
30
0
0
VERTEX
8
0
10
71.114683277239
20
56.4240862838727
30
0
0
VERTEX
8
0
10
71.7576731802882
20
56.3561824053342
30
0
0
VERTEX
8
0
10
72.4006630833374
20
56.2922499438145
30
0
0
VERTEX
8
0
10
73.0436529863865
20
56.2345403930438
30
0
0
VERTEX
8
0
10
73.6866428894357
20
56.1811402157544
30
0
0
VERTEX
8
0
10
74.3296327924849
20
56.1278032811678
30
0
0
VERTEX
8
0
10
74.9726226955341
20
56.0747577745025
30
0
0
VERTEX
8
0
10
75.6156125985832
20
56.0245812920868
30
0
0
VERTEX
8
0
10
76.2586025016324
20
55.9773092947826
30
0
0
VERTEX
8
0
10
76.9015924046816
20
55.9251655591524
30
0
0
VERTEX
8
0
10
77.5445823077308
20
55.8761971488812
30
0
0
VERTEX
8
0
10
78.1875722107799
20
55.832132525091
30
0
0
VERTEX
8
0
10
78.8305621138291
20
55.7817391227508
30
0
0
VERTEX
8
0
10
79.4735520168783
20
55.7294376059736
30
0
0
VERTEX
8
0
10
80.1165419199275
20
55.6796931696819
30
0
0
VERTEX
8
0
10
80.7595318229767
20
55.6310763385498
30
0
0
VERTEX
8
0
10
81.4025217260258
20
55.5796062649287
30
0
0
VERTEX
8
0
10
82.045511629075
20
55.5272077757192
30
0
0
VERTEX
8
0
10
82.6885015321242
20
55.4752151165946
30
0
0
VERTEX
8
0
10
83.3314914351734
20
55.4231284856685
30
0
0
VERTEX
8
0
10
83.9744813382225
20
55.3667509338644
30
0
0
VERTEX
8
0
10
84.6174712412717
20
55.3110780518943
30
0
0
VERTEX
8
0
10
85.2604611443209
20
55.2571852458762
30
0
0
VERTEX
8
0
10
85.9034510473701
20
55.1985641444569
30
0
0
VERTEX
8
0
10
86.5464409504192
20
55.1361945584435
30
0
0
VERTEX
8
0
10
87.1894308534684
20
55.0749886911342
30
0
0
VERTEX
8
0
10
87.8324207565176
20
55.0136584849641
30
0
0
VERTEX
8
0
10
88.4754106595668
20
54.9485470853499
30
0
0
VERTEX
8
0
10
89.1184005626159
20
54.8822116049991
30
0
0
VERTEX
8
0
10
89.7613904656651
20
54.8151204160055
30
0
0
VERTEX
8
0
10
90.4043803687143
20
54.7464699996314
30
0
0
VERTEX
8
0
10
91.0473702717635
20
54.6742815605297
30
0
0
VERTEX
8
0
10
91.6903601748127
20
54.6014508873314
30
0
0
VERTEX
8
0
10
92.3333500778618
20
54.5285798288198
30
0
0
VERTEX
8
0
10
92.976339980911
20
54.4522042863843
30
0
0
VERTEX
8
0
10
93.6193298839602
20
54.3714004343113
30
0
0
VERTEX
8
0
10
94.2623197870093
20
54.290833187777
30
0
0
VERTEX
8
0
10
94.9053096900585
20
54.2093903662568
30
0
0
VERTEX
8
0
10
95.5482995931077
20
54.1239287342519
30
0
0
VERTEX
8
0
10
96.1912894961569
20
54.0370685174288
30
0
0
VERTEX
8
0
10
96.8342793992061
20
53.9487775279867
30
0
0
VERTEX
8
0
10
97.4772693022552
20
53.8581748068955
30
0
0
VERTEX
8
0
10
98.1202592053044
20
53.7646020611936
30
0
0
VERTEX
8
0
10
98.7632491083536
20
53.6695897044578
30
0
0
VERTEX
8
0
10
99.4062390114028
20
53.5734349692849
30
0
0
VERTEX
8
0
10
100.049228914452
20
53.4745575598177
30
0
0
VERTEX
8
0
10
100.692218817501
20
53.3711985728533
30
0
0
VERTEX
8
0
10
101.33520872055
20
53.267378063496
30
0
0
VERTEX
8
0
10
101.978198623599
20
53.1621897875396
30
0
0
VERTEX
8
0
10
102.621188526649
20
53.0531104650986
30
0
0
VERTEX
8
0
10
103.264178429698
20
52.9424814303372
30
0
0
VERTEX
8
0
10
103.907168332747
20
52.8300320423566
30
0
0
VERTEX
8
0
10
104.550158235796
20
52.7149574048774
30
0
0
VERTEX
8
0
10
105.193148138845
20
52.5973079522165
30
0
0
VERTEX
8
0
10
105.836138041895
20
52.4777793345778
30
0
0
VERTEX
8
0
10
106.479127944944
20
52.356491689528
30
0
0
VERTEX
8
0
10
107.122117847993
20
52.2329436481715
30
0
0
VERTEX
8
0
10
107.765107751042
20
52.10524644786
30
0
0
VERTEX
8
0
10
108.408097654091
20
51.9765727484593
30
0
0
VERTEX
8
0
10
109.051087557141
20
51.8462358397992
30
0
0
VERTEX
8
0
10
109.69407746019
20
51.7123676354587
30
0
0
VERTEX
8
0
10
110.337067363239
20
51.5768433704826
30
0
0
VERTEX
8
0
10
110.980057266288
20
51.439332425712
30
0
0
VERTEX
8
0
10
111.623047169337
20
51.2991993749565
30
0
0
VERTEX
8
0
10
112.266037072386
20
51.1567964615039
30
0
0
VERTEX
8
0
10
112.909026975436
20
51.0123601064518
30
0
0
VERTEX
8
0
10
113.552016878485
20
50.865926308854
30
0
0
VERTEX
8
0
10
114.195006781534
20
50.7175282851765
30
0
0
VERTEX
8
0
10
114.837996684583
20
50.5655805673088
30
0
0
VERTEX
8
0
10
115.480986587632
20
50.4123491618146
30
0
0
VERTEX
8
0
10
116.123976490682
20
50.2573672821285
30
0
0
VERTEX
8
0
10
116.766966393731
20
50.0994023800031
30
0
0
VERTEX
8
0
10
117.40995629678
20
49.9397926804581
30
0
0
VERTEX
8
0
10
118.052946199829
20
49.7782636785854
30
0
0
VERTEX
8
0
10
118.695936102878
20
49.6143973590141
30
0
0
VERTEX
8
0
10
119.338926005928
20
49.44859617878
30
0
0
VERTEX
8
0
10
119.981915908977
20
49.2808977870153
30
0
0
VERTEX
8
0
10
120.624905812026
20
49.1113223409023
30
0
0
VERTEX
8
0
10
121.267895715075
20
48.9400933117238
30
0
0
VERTEX
8
0
10
121.910885618124
20
48.7661537975742
30
0
0
VERTEX
8
0
10
122.553875521173
20
48.5909207919494
30
0
0
VERTEX
8
0
10
123.196865424223
20
48.4141405141255
30
0
0
VERTEX
8
0
10
123.839855327272
20
48.2351539486195
30
0
0
VERTEX
8
0
10
124.482845230321
20
48.0547893615027
30
0
0
VERTEX
8
0
10
125.12583513337
20
47.8729007173195
30
0
0
VERTEX
8
0
10
125.768825036419
20
47.6893035279166
30
0
0
VERTEX
8
0
10
126.411814939469
20
47.5043274457055
30
0
0
VERTEX
8
0
10
127.054804842518
20
47.3179895861202
30
0
0
VERTEX
8
0
10
127.697794745567
20
47.1303508818538
30
0
0
VERTEX
8
0
10
128.340784648616
20
46.9416485967426
30
0
0
VERTEX
8
0
10
128.983774551665
20
46.7514177587617
30
0
0
VERTEX
8
0
10
129.626764454715
20
46.5603980986032
30
0
0
VERTEX
8
0
10
130.269754357764
20
46.3685477717224
30
0
0
VERTEX
8
0
10
130.912744260813
20
46.1756930178057
30
0
0
VERTEX
8
0
10
131.555734163862
20
45.9822828692919
30
0
0
VERTEX
8
0
10
132.198724066911
20
45.7883551769507
30
0
0
VERTEX
8
0
10
132.84171396996
20
45.593968546708
30
0
0
VERTEX
8
0
10
133.48470387301
20
45.3993919624869
30
0
0
VERTEX
8
0
10
134.127693776059
20
45.2047644848417
30
0
0
VERTEX
8
0
10
134.770683679108
20
45.010271935113
30
0
0
VERTEX
8
0
10
135.413673582157
20
44.816176949531
30
0
0
VERTEX
8
0
10
136.056663485206
20
44.6225769515822
30
0
0
VERTEX
8
0
10
136.699653388256
20
44.4298856131576
30
0
0
VERTEX
8
0
10
137.342643291305
20
44.238360472044
30
0
0
VERTEX
8
0
10
137.985633194354
20
44.0483023307265
30
0
0
VERTEX
8
0
10
138.628623097403
20
43.8601578864178
30
0
0
VERTEX
8
0
10
139.271613000452
20
43.6743865950772
30
0
0
VERTEX
8
0
10
139.914602903502
20
43.4915709956361
30
0
0
VERTEX
8
0
10
140.557592806551
20
43.3124608275596
30
0
0
VERTEX
8
0
10
141.2005827096
20
43.1379550191606
30
0
0
VERTEX
8
0
10
141.843572612649
20
42.968825984281
30
0
0
VERTEX
8
0
10
142.486562515698
20
42.8051240822553
30
0
0
VERTEX
8
0
10
143.129552418747
20
42.6462704645425
30
0
0
VERTEX
8
0
10
143.772542321797
20
42.4916305967022
30
0
0
VERTEX
8
0
10
144.415532224846
20
42.3407108582647
30
0
0
VERTEX
8
0
10
145.058522127895
20
42.193139293662
30
0
0
VERTEX
8
0
10
145.701512030944
20
42.0486264031268
30
0
0
VERTEX
8
0
10
146.344501933993
20
41.9069386405262
30
0
0
VERTEX
8
0
10
146.987491837043
20
41.7678820732624
30
0
0
VERTEX
8
0
10
147.630481740092
20
41.6312920356694
30
0
0
VERTEX
8
0
10
148.273471643141
20
41.4970262644886
30
0
0
VERTEX
8
0
10
148.91646154619
20
41.3649601387342
30
0
0
VERTEX
8
0
10
149.559451449239
20
41.2349832532095
30
0
0
VERTEX
8
0
10
150.202441352289
20
41.1069968747969
30
0
0
VERTEX
8
0
10
150.845431255338
20
40.9809120052227
30
0
0
VERTEX
8
0
10
151.488421158387
20
40.856647873735
30
0
0
VERTEX
8
0
10
152.131411061436
20
40.7341307427318
30
0
0
VERTEX
8
0
10
152.774400964485
20
40.6132929464131
30
0
0
VERTEX
8
0
10
153.417390867534
20
40.4940721063774
30
0
0
VERTEX
8
0
10
154.060380770584
20
40.3764104838889
30
0
0
VERTEX
8
0
10
154.703370673633
20
40.260254439306
30
0
0
SEQEND
8
0
0
POLYLINE
8
0
62
3
70
0
10
0
20
0
30
0
0
VERTEX
8
0
10
13.2455920028131
20
42.9542834424247
30
0
0
VERTEX
8
0
10
13.8885819058623
20
44.2860231387941
30
0
0
VERTEX
8
0
10
14.5315718089114
20
46.3871013502619
30
0
0
VERTEX
8
0
10
15.1745617119606
20
46.9239703582852
30
0
0
VERTEX
8
0
10
15.8175516150098
20
48.3364608293822
30
0
0
VERTEX
8
0
10
16.460541518059
20
49.5217306830279
30
0
0
VERTEX
8
0
10
17.1035314211082
20
50.6398743787922
30
0
0
VERTEX
8
0
10
17.7465213241573
20
52.0305655667405
30
0
0
VERTEX
8
0
10
18.3895112272065
20
53.0245786466615
30
0
0
VERTEX
8
0
10
19.0325011302557
20
54.0690086265085
30
0
0
VERTEX
8
0
10
19.6754910333049
20
55.4005673142606
30
0
0
VERTEX
8
0
10
20.3184809363541
20
56.2312094644602
30
0
0
VERTEX
8
0
10
20.9614708394032
20
57.2188446441924
30
0
0
VERTEX
8
0
10
21.6044607424524
20
58.4736991372467
30
0
0
VERTEX
8
0
10
22.2474506455016
20
59.1506863763827
30
0
0
VERTEX
8
0
10
22.8904405485508
20
60.1027673057072
30
0
0
VERTEX
8
0
10
23.5334304515999
20
60.9762151971292
30
0
0
VERTEX
8
0
10
24.1764203546491
20
61.8181667961685
30
0
0
VERTEX
8
0
10
24.8194102576983
20
62.7360651614393
30
0
0
VERTEX
8
0
10
25.4624001607475
20
63.4944929835209
30
0
0
VERTEX
8
0
10
26.1053900637967
20
64.2635610636676
30
0
0
VERTEX
8
0
10
26.7483799668458
20
65.1343228817168
30
0
0
VERTEX
8
0
10
27.391369869895
20
65.786937668074
30
0
0
VERTEX
8
0
10
28.0343597729442
20
66.496103750393
30
0
0
VERTEX
8
0
10
28.6773496759934
20
67.3127831289504
30
0
0
VERTEX
8
0
10
29.3203395790425
20
67.8735090208965
30
0
0
VERTEX
8
0
10
29.9633294820917
20
68.5267112467115
30
0
0
VERTEX
8
0
10
30.6063193851409
20
69.1472105656568
30
0
0
VERTEX
8
0
10
31.2493092881901
20
69.749681792238
30
0
0
VERTEX
8
0
10
31.8922991912392
20
70.3670273731283
30
0
0
VERTEX
8
0
10
32.5352890942884
20
70.9100714690828
30
0
0
VERTEX
8
0
10
33.1782789973376
20
71.4517472813531
30
0
0
VERTEX
8
0
10
33.8212689003868
20
72.028923906128
30
0
0
VERTEX
8
0
10
34.464258803436
20
72.4990766909919
30
0
0
VERTEX
8
0
10
35.1072487064851
20
72.9892505965546
30
0
0
VERTEX
8
0
10
35.7502386095343
20
73.5242385542242
30
0
0
VERTEX
8
0
10
36.3932285125835
20
73.9355388546693
30
0
0
VERTEX
8
0
10
37.0362184156327
20
74.3722801526884
30
0
0
VERTEX
8
0
10
37.6792083186818
20
74.7946415143666
30
0
0
VERTEX
8
0
10
38.322198221731
20
75.2058492379529
30
0
0
VERTEX
8
0
10
38.9651881247802
20
75.6111675401989
30
0
0
VERTEX
8
0
10
39.6081780278294
20
75.9794876824189
30
0
0
VERTEX
8
0
10
40.2511679308785
20
76.3431789599601
30
0
0
VERTEX
8
0
10
40.8941578339277
20
76.7163056868694
30
0
0
VERTEX
8
0
10
41.5371477369769
20
77.0337247801698
30
0
0
VERTEX
8
0
10
42.1801376400261
20
77.3568600632359
30
0
0
VERTEX
8
0
10
42.8231275430752
20
77.6980371633915
30
0
0
VERTEX
8
0
10
43.4661174461244
20
77.9773521713486
30
0
0
VERTEX
8
0
10
44.1091073491736
20
78.2563822441799
30
0
0
VERTEX
8
0
10
44.7520972522228
20
78.5297671160172
30
0
0
VERTEX
8
0
10
45.3950871552719
20
78.7964704811833
30
0
0
VERTEX
8
0
10
46.0380770583211
20
79.0512720071281
30
0
0
VERTEX
8
0
10
46.6810669613703
20
79.28768349084
30
0
0
VERTEX
8
0
10
47.3240568644195
20
79.5196128873983
30
0
0
VERTEX
8
0
10
47.9670467674687
20
79.7510096944006
30
0
0
VERTEX
8
0
10
48.6100366705178
20
79.9530584433691
30
0
0
VERTEX
8
0
10
49.253026573567
20
80.1556785547875
30
0
0
VERTEX
8
0
10
49.8960164766162
20
80.3649709186051
30
0
0
VERTEX
8
0
10
50.5390063796654
20
80.5438798429903
30
0
0
VERTEX
8
0
10
51.1819962827145
20
80.7135460568419
30
0
0
VERTEX
8
0
10
51.8249861857637
20
80.8825273618646
30
0
0
VERTEX
8
0
10
52.4679760888129
20
81.0483008777959
30
0
0
VERTEX
8
0
10
53.1109659918621
20
81.202012228233
30
0
0
VERTEX
8
0
10
53.7539558949112
20
81.3476836447828
30
0
0
VERTEX
8
0
10
54.3969457979604
20
81.4904589485511
30
0
0
VERTEX
8
0
10
55.0399357010096
20
81.6297471693492
30
0
0
VERTEX
8
0
10
55.6829256040588
20
81.7544367638014
30
0
0
VERTEX
8
0
10
56.325915507108
20
81.8786441869648
30
0
0
VERTEX
8
0
10
56.9689054101571
20
82.0052627786009
30
0
0
VERTEX
8
0
10
57.6118953132063
20
82.1186983505958
30
0
0
VERTEX
8
0
10
58.2548852162555
20
82.2210311524628
30
0
0
VERTEX
8
0
10
58.8978751193047
20
82.3260493376268
30
0
0
VERTEX
8
0
10
59.5408650223538
20
82.4308439893008
30
0
0
VERTEX
8
0
10
60.183854925403
20
82.5256611951982
30
0
0
VERTEX
8
0
10
60.8268448284522
20
82.6188556389811
30
0
0
VERTEX
8
0
10
61.4698347315014
20
82.7113226728204
30
0
0
VERTEX
8
0
10
62.1128246345505
20
82.8004523960835
30
0
0
VERTEX
8
0
10
62.7558145375997
20
82.8839747040971
30
0
0
VERTEX
8
0
10
63.3988044406489
20
82.967842420177
30
0
0
VERTEX
8
0
10
64.0417943436981
20
83.0532572802096
30
0
0
VERTEX
8
0
10
64.6847842467472
20
83.135695989078
30
0
0
VERTEX
8
0
10
65.3277741497964
20
83.2081638954605
30
0
0
VERTEX
8
0
10
65.9707640528456
20
83.2861253846558
30
0
0
VERTEX
8
0
10
66.6137539558948
20
83.3667375432941
30
0
0
VERTEX
8
0
10
67.2567438589439
20
83.4403958844489
30
0
0
VERTEX
8
0
10
67.8997337619931
20
83.5172294174702
30
0
0
VERTEX
8
0
10
68.5427236650423
20
83.5961652620293
30
0
0
VERTEX
8
0
10
69.1857135680915
20
83.6739118298392
30
0
0
VERTEX
8
0
10
69.8287034711407
20
83.7531239301657
30
0
0
VERTEX
8
0
10
70.4716933741898
20
83.8360431505561
30
0
0
VERTEX
8
0
10
71.114683277239
20
83.9234062187663
30
0
0
VERTEX
8
0
10
71.7576731802882
20
84.0155457406021
30
0
0
VERTEX
8
0
10
72.4006630833374
20
84.0996560128183
30
0
0
VERTEX
8
0
10
73.0436529863865
20
84.190481574015
30
0
0
VERTEX
8
0
10
73.6866428894357
20
84.2845042085739
30
0
0
VERTEX
8
0
10
74.3296327924849
20
84.3718321830769
30
0
0
VERTEX
8
0
10
74.9726226955341
20
84.4624721901786
30
0
0
VERTEX
8
0
10
75.6156125985832
20
84.553610117262
30
0
0
VERTEX
8
0
10
76.2586025016324
20
84.6409190331078
30
0
0
VERTEX
8
0
10
76.9015924046816
20
84.7286465336833
30
0
0
VERTEX
8
0
10
77.5445823077308
20
84.815480016367
30
0
0
VERTEX
8
0
10
78.1875722107799
20
84.9007206845511
30
0
0
VERTEX
8
0
10
78.8305621138291
20
84.9885629199522
30
0
0
VERTEX
8
0
10
79.4735520168783
20
85.0654074662166
30
0
0
VERTEX
8
0
10
80.1165419199275
20
85.1458377494331
30
0
0
VERTEX
8
0
10
80.7595318229767
20
85.226957299002
30
0
0
VERTEX
8
0
10
81.4025217260258
20
85.30003854614
30
0
0
VERTEX
8
0
10
82.045511629075
20
85.3749258643278
30
0
0
VERTEX
8
0
10
82.6885015321242
20
85.4485516386207
30
0
0
VERTEX
8
0
10
83.3314914351734
20
85.5168565725139
30
0
0
VERTEX
8
0
10
83.9744813382225
20
85.5852353016381
30
0
0
VERTEX
8
0
10
84.6174712412717
20
85.6512077164154
30
0
0
VERTEX
8
0
10
85.2604611443209
20
85.7139218495295
30
0
0
VERTEX
8
0
10
85.9034510473701
20
85.7790846446382
30
0
0
VERTEX
8
0
10
86.5464409504192
20
85.8332583310976
30
0
0
VERTEX
8
0
10
87.1894308534684
20
85.8895332055241
30
0
0
VERTEX
8
0
10
87.8324207565176
20
85.9454108948358
30
0
0
VERTEX
8
0
10
88.4754106595668
20
85.99339655292
30
0
0
VERTEX
8
0
10
89.1184005626159
20
86.0423669540717
30
0
0
VERTEX
8
0
10
89.7613904656651
20
86.0893065236023
30
0
0
VERTEX
8
0
10
90.4043803687143
20
86.1306025464867
30
0
0
VERTEX
8
0
10
91.0473702717635
20
86.1717721259149
30
0
0
VERTEX
8
0
10
91.6903601748127
20
86.2098935680593
30
0
0
VERTEX
8
0
10
92.3333500778618
20
86.2440929295117
30
0
0
VERTEX
8
0
10
92.976339980911
20
86.2803475863963
30
0
0
VERTEX
8
0
10
93.6193298839602
20
86.3065070558506
30
0
0
VERTEX
8
0
10
94.2623197870093
20
86.333675104025
30
0
0
VERTEX
8
0
10
94.9053096900585
20
86.3597756572782
30
0
0
VERTEX
8
0
10
95.5482995931077
20
86.378665539125
30
0
0
VERTEX
8
0
10
96.1912894961569
20
86.397863512321
30
0
0
VERTEX
8
0
10
96.8342793992061
20
86.4146645403117
30
0
0
VERTEX
8
0
10
97.4772693022552
20
86.4260493930098
30
0
0
VERTEX
8
0
10
98.1202592053044
20
86.4370372822011
30
0
0
VERTEX
8
0
10
98.7632491083536
20
86.4447776351377
30
0
0
VERTEX
8
0
10
99.4062390114028
20
86.4484847733734
30
0
0
VERTEX
8
0
10
100.049228914452
20
86.4536246647363
30
0
0
VERTEX
8
0
10
100.692218817501
20
86.4500172755849
30
0
0
VERTEX
8
0
10
101.33520872055
20
86.4465612309258
30
0
0
VERTEX
8
0
10
101.978198623599
20
86.4416145911386
30
0
0
VERTEX
8
0
10
102.621188526649
20
86.4304151547216
30
0
0
VERTEX
8
0
10
103.264178429698
20
86.4189431562573
30
0
0
VERTEX
8
0
10
103.907168332747
20
86.4049639680825
30
0
0
VERTEX
8
0
10
104.550158235796
20
86.3861256891397
30
0
0
VERTEX
8
0
10
105.193148138845
20
86.3665866052701
30
0
0
VERTEX
8
0
10
105.836138041895
20
86.3438943543647
30
0
0
VERTEX
8
0
10
106.479127944944
20
86.317421842682
30
0
0
VERTEX
8
0
10
107.122117847993
20
86.2916627573856
30
0
0
VERTEX
8
0
10
107.765107751042
20
86.258745297688
30
0
0
VERTEX
8
0
10
108.408097654091
20
86.2253377643343
30
0
0
VERTEX
8
0
10
109.051087557141
20
86.1902241480915
30
0
0
VERTEX
8
0
10
109.69407746019
20
86.1499735079588
30
0
0
VERTEX
8
0
10
110.337067363239
20
86.1089997392626
30
0
0
VERTEX
8
0
10
110.980057266288
20
86.0656176465676
30
0
0
VERTEX
8
0
10
111.623047169337
20
86.0181539109952
30
0
0
VERTEX
8
0
10
112.266037072386
20
85.9697349650696
30
0
0
VERTEX
8
0
10
112.909026975436
20
85.9184887832032
30
0
0
VERTEX
8
0
10
113.552016878485
20
85.8639825454898
30
0
0
VERTEX
8
0
10
114.195006781534
20
85.8095224927067
30
0
0
VERTEX
8
0
10
114.837996684583
20
85.7496079236468
30
0
0
VERTEX
8
0
10
115.480986587632
20
85.6888065964738
30
0
0
VERTEX
8
0
10
116.123976490682
20
85.6263020782333
30
0
0
VERTEX
8
0
10
116.766966393731
20
85.5598763228298
30
0
0
VERTEX
8
0
10
117.40995629678
20
85.4924737449003
30
0
0
VERTEX
8
0
10
118.052946199829
20
85.4229720036111
30
0
0
VERTEX
8
0
10
118.695936102878
20
85.3503343908656
30
0
0
VERTEX
8
0
10
119.338926005928
20
85.276640193694
30
0
0
VERTEX
8
0
10
119.981915908977
20
85.2006634362992
30
0
0
VERTEX
8
0
10
120.624905812026
20
85.1221725373549
30
0
0
VERTEX
8
0
10
121.267895715075
20
85.043273510504
30
0
0
VERTEX
8
0
10
121.910885618124
20
84.9606670195411
30
0
0
VERTEX
8
0
10
122.553875521173
20
84.8770879810883
30
0
0
VERTEX
8
0
10
123.196865424223
20
84.792077615193
30
0
0
VERTEX
8
0
10
123.839855327272
20
84.704449369669
30
0
0
VERTEX
8
0
10
124.482845230321
20
84.6158880215472
30
0
0
VERTEX
8
0
10
125.12583513337
20
84.525792620862
30
0
0
VERTEX
8
0
10
125.768825036419
20
84.4336744484269
30
0
0
VERTEX
8
0
10
126.411814939469
20
84.3406882388886
30
0
0
VERTEX
8
0
10
127.054804842518
20
84.2462226484209
30
0
0
VERTEX
8
0
10
127.697794745567
20
84.1502316962522
30
0
0
VERTEX
8
0
10
128.340784648616
20
84.0537903127914
30
0
0
VERTEX
8
0
10
128.983774551665
20
83.9554216777594
30
0
0
VERTEX
8
0
10
129.626764454715
20
83.8564329607747
30
0
0
VERTEX
8
0
10
130.269754357764
20
83.7566708225473
30
0
0
VERTEX
8
0
10
130.912744260813
20
83.6557410006628
30
0
0
VERTEX
8
0
10
131.555734163862
20
83.5543950217662
30
0
0
VERTEX
8
0
10
132.198724066911
20
83.4524692658431
30
0
0
VERTEX
8
0
10
132.84171396996
20
83.3498983478972
30
0
0
VERTEX
8
0
10
133.48470387301
20
83.2471758280431
30
0
0
VERTEX
8
0
10
134.127693776059
20
83.144198537747
30
0
0
VERTEX
8
0
10
134.770683679108
20
83.0410859016598
30
0
0
VERTEX
8
0
10
135.413673582157
20
82.9382432097686
30
0
0
VERTEX
8
0
10
136.056663485206
20
82.8354577440326
30
0
0
VERTEX
8
0
10
136.699653388256
20
82.7331867497596
30
0
0
VERTEX
8
0
10
137.342643291305
20
82.6315593495652
30
0
0
VERTEX
8
0
10
137.985633194354
20
82.5307253100691
30
0
0
VERTEX
8
0
10
138.628623097403
20
82.4310194174213
30
0
0
VERTEX
8
0
10
139.271613000452
20
82.3326872633955
30
0
0
VERTEX
8
0
10
139.914602903502
20
82.236064785423
30
0
0
VERTEX
8
0
10
140.557592806551
20
82.1415901097751
30
0
0
VERTEX
8
0
10
141.2005827096
20
82.049751565347
30
0
0
VERTEX
8
0
10
141.843572612649
20
81.9609701817754
30
0
0
VERTEX
8
0
10
142.486562515698
20
81.8752694350422
30
0
0
VERTEX
8
0
10
143.129552418747
20
81.7923320246304
30
0
0
VERTEX
8
0
10
143.772542321797
20
81.7118099383371
30
0
0
VERTEX
8
0
10
144.415532224846
20
81.6334307280252
30
0
0
VERTEX
8
0
10
145.058522127895
20
81.5569875649049
30
0
0
VERTEX
8
0
10
145.701512030944
20
81.4823183258269
30
0
0
VERTEX
8
0
10
146.344501933993
20
81.4092913838082
30
0
0
VERTEX
8
0
10
146.987491837043
20
81.3377968123389
30
0
0
VERTEX
8
0
10
147.630481740092
20
81.2677407952249
30
0
0
VERTEX
8
0
10
148.273471643141
20
81.1990419044253
30
0
0
VERTEX
8
0
10
148.91646154619
20
81.1316285099718
30
0
0
VERTEX
8
0
10
149.559451449239
20
81.0654369092864
30
0
0
VERTEX
8
0
10
150.202441352289
20
81.0004099339354
30
0
0
VERTEX
8
0
10
150.845431255338
20
80.9364958852361
30
0
0
VERTEX
8
0
10
151.488421158387
20
80.8736477035592
30
0
0
VERTEX
8
0
10
152.131411061436
20
80.8118223081684
30
0
0
VERTEX
8
0
10
152.774400964485
20
80.7509800643445
30
0
0
VERTEX
8
0
10
153.417390867534
20
80.6910843473896
30
0
0
VERTEX
8
0
10
154.060380770584
20
80.6321011816295
30
0
0
VERTEX
8
0
10
154.703370673633
20
80.5739989383592
30
0
0
SEQEND
8
0
0
POLYLINE
8
0
62
4
70
0
10
0
20
0
30
0
0
VERTEX
8
0
10
13.2455920028131
20
44.2254089137201
30
0
0
VERTEX
8
0
10
13.8885819058623
20
45.3286401803751
30
0
0
VERTEX
8
0
10
14.5315718089114
20
46.4163544093492
30
0
0
VERTEX
8
0
10
15.1745617119606
20
47.5268169686885
30
0
0
VERTEX
8
0
10
15.8175516150098
20
48.6020163789972
30
0
0
VERTEX
8
0
10
16.460541518059
20
49.6644516237318
30
0
0
VERTEX
8
0
10
17.1035314211082
20
50.7314190639754
30
0
0
VERTEX
8
0
10
17.7465213241573
20
51.7744672058025
30
0
0
VERTEX
8
0
10
18.3895112272065
20
52.7541639976969
30
0
0
VERTEX
8
0
10
19.0325011302557
20
53.6804295687654
30
0
0
VERTEX
8
0
10
19.6754910333049
20
54.5866394242887
30
0
0
VERTEX
8
0
10
20.3184809363541
20
55.5028479895913
30
0
0
VERTEX
8
0
10
20.9614708394032
20
56.4079353552059
30
0
0
VERTEX
8
0
10
21.6044607424524
20
57.2730436979371
30
0
0
VERTEX
8
0
10
22.2474506455016
20
58.1662448108685
30
0
0
VERTEX
8
0
10
22.8904405485508
20
59.024849182926
30
0
0
VERTEX
8
0
10
23.5334304515999
20
59.8885562303701
30
0
0
VERTEX
8
0
10
24.1764203546491
20
60.7117265365968
30
0
0
VERTEX
8
0
10
24.8194102576983
20
61.5232360482024
30
0
0
VERTEX
8
0
10
25.4624001607475
20
62.3413927975526
30
0
0
VERTEX
8
0
10
26.1053900637967
20
63.1529728588587
30
0
0
VERTEX
8
0
10
26.7483799668458
20
63.9342049117269
30
0
0
VERTEX
8
0
10
27.391369869895
20
64.7259231090343
30
0
0
VERTEX
8
0
10
28.0343597729442
20
65.5066075342018
30
0
0
VERTEX
8
0
10
28.6773496759934
20
66.2710873204372
30
0
0
VERTEX
8
0
10
29.3203395790425
20
66.9524755142269
30
0
0
VERTEX
8
0
10
29.9633294820917
20
67.6192348770414
30
0
0
VERTEX
8
0
10
30.6063193851409
20
68.289913320348
30
0
0
VERTEX
8
0
10
31.2493092881901
20
68.9587166960644
30
0
0
VERTEX
8
0
10
31.8922991912392
20
69.4940358529884
30
0
0
VERTEX
8
0
10
32.5352890942884
20
70.0442322918111
30
0
0
VERTEX
8
0
10
33.1782789973376
20
70.5887993877546
30
0
0
VERTEX
8
0
10
33.8212689003868
20
71.1168274730332
30
0
0
VERTEX
8
0
10
34.464258803436
20
71.6315023638432
30
0
0
VERTEX
8
0
10
35.1072487064851
20
72.1365345612878
30
0
0
VERTEX
8
0
10
35.7502386095343
20
72.6278324724605
30
0
0
VERTEX
8
0
10
36.3932285125835
20
73.1340602223996
30
0
0
VERTEX
8
0
10
37.0362184156327
20
73.56721109213
30
0
0
VERTEX
8
0
10
37.6792083186818
20
73.9975160886213
30
0
0
VERTEX
8
0
10
38.322198221731
20
74.4263725674919
30
0
0
VERTEX
8
0
10
38.9651881247802
20
74.8385104769531
30
0
0
VERTEX
8
0
10
39.6081780278294
20
75.2458598289949
30
0
0
VERTEX
8
0
10
40.2511679308785
20
75.6456125895523
30
0
0
VERTEX
8
0
10
40.8941578339277
20
76.0313119072152
30
0
0
VERTEX
8
0
10
41.5371477369769
20
76.4228724986356
30
0
0
VERTEX
8
0
10
42.1801376400261
20
76.775172906888
30
0
0
VERTEX
8
0
10
42.8231275430752
20
77.1010670293531
30
0
0
VERTEX
8
0
10
43.4661174461244
20
77.4396649464777
30
0
0
VERTEX
8
0
10
44.1091073491736
20
77.7565031875996
30
0
0
VERTEX
8
0
10
44.7520972522228
20
78.0647383876138
30
0
0
VERTEX
8
0
10
45.3950871552719
20
78.3633404313392
30
0
0
VERTEX
8
0
10
46.0380770583211
20
78.648082296812
30
0
0
VERTEX
8
0
10
46.6810669613703
20
78.936863250314
30
0
0
VERTEX
8
0
10
47.3240568644195
20
79.2216248807484
30
0
0
VERTEX
8
0
10
47.9670467674687
20
79.4484759724346
30
0
0
VERTEX
8
0
10
48.6100366705178
20
79.6954082417787
30
0
0
VERTEX
8
0
10
49.253026573567
20
79.9359439572421
30
0
0
VERTEX
8
0
10
49.8960164766162
20
80.1670226932951
30
0
0
VERTEX
8
0
10
50.5390063796654
20
80.4169005174065
30
0
0
VERTEX
8
0
10
51.1819962827145
20
80.6466121935578
30
0
0
VERTEX
8
0
10
51.8249861857637
20
80.8788408796738
30
0
0
VERTEX
8
0
10
52.4679760888129
20
81.1102192134931
30
0
0
VERTEX
8
0
10
53.1109659918621
20
81.2861544419112
30
0
0
VERTEX
8
0
10
53.7539558949112
20
81.47508482512
30
0
0
VERTEX
8
0
10
54.3969457979604
20
81.660984220898
30
0
0
VERTEX
8
0
10
55.0399357010096
20
81.8374916721784
30
0
0
VERTEX
8
0
10
55.6829256040588
20
81.9740990474043
30
0
0
VERTEX
8
0
10
56.325915507108
20
82.1120982463708
30
0
0
VERTEX
8
0
10
56.9689054101571
20
82.2425942094727
30
0
0
VERTEX
8
0
10
57.6118953132063
20
82.3826914069255
30
0
0
VERTEX
8
0
10
58.2548852162555
20
82.5262186759145
30
0
0
VERTEX
8
0
10
58.8978751193047
20
82.6712393449762
30
0
0
VERTEX
8
0
10
59.5408650223538
20
82.8160008895431
30
0
0
VERTEX
8
0
10
60.183854925403
20
82.9515508458524
30
0
0
VERTEX
8
0
10
60.8268448284522
20
83.0707983365599
30
0
0
VERTEX
8
0
10
61.4698347315014
20
83.1871016707492
30
0
0
VERTEX
8
0
10
62.1128246345505
20
83.2958598541203
30
0
0
VERTEX
8
0
10
62.7558145375997
20
83.4090659366466
30
0
0
VERTEX
8
0
10
63.3988044406489
20
83.5152102260952
30
0
0
VERTEX
8
0
10
64.0417943436981
20
83.6147313034171
30
0
0
VERTEX
8
0
10
64.6847842467472
20
83.722907809767
30
0
0
VERTEX
8
0
10
65.3277741497964
20
83.818846232932
30
0
0
VERTEX
8
0
10
65.9707640528456
20
83.902172153751
30
0
0
VERTEX
8
0
10
66.6137539558948
20
83.9808758031425
30
0
0
VERTEX
8
0
10
67.2567438589439
20
84.0521431326593
30
0
0
VERTEX
8
0
10
67.8997337619931
20
84.1270225334494
30
0
0
VERTEX
8
0
10
68.5427236650423
20
84.2005527987115
30
0
0
VERTEX
8
0
10
69.1857135680915
20
84.2679512195395
30
0
0
VERTEX
8
0
10
69.8287034711407
20
84.3397653809542
30
0
0
VERTEX
8
0
10
70.4716933741898
20
84.408656321071
30
0
0
VERTEX
8
0
10
71.114683277239
20
84.4676481555765
30
0
0
VERTEX
8
0
10
71.7576731802882
20
84.5307378393239
30
0
0
VERTEX
8
0
10
72.4006630833374
20
84.5833408680709
30
0
0
VERTEX
8
0
10
73.0436529863865
20
84.638632186339
30
0
0
VERTEX
8
0
10
73.6866428894357
20
84.6944089677422
30
0
0
VERTEX
8
0
10
74.3296327924849
20
84.73592761759
30
0
0
VERTEX
8
0
10
74.9726226955341
20
84.7831425113094
30
0
0
VERTEX
8
0
10
75.6156125985832
20
84.8291577933795
30
0
0
VERTEX
8
0
10
76.2586025016324
20
84.8696434489974
30
0
0
VERTEX
8
0
10
76.9015924046816
20
84.9115931379736
30
0
0
VERTEX
8
0
10
77.5445823077308
20
84.9513766760662
30
0
0
VERTEX
8
0
10
78.1875722107799
20
84.9865581459871
30
0
0
VERTEX
8
0
10
78.8305621138291
20
85.0287088674905
30
0
0
VERTEX
8
0
10
79.4735520168783
20
85.054825055924
30
0
0
VERTEX
8
0
10
80.1165419199275
20
85.0843472636476
30
0
0
VERTEX
8
0
10
80.7595318229767
20
85.1140508341541
30
0
0
VERTEX
8
0
10
81.4025217260258
20
85.1377939208461
30
0
0
VERTEX
8
0
10
82.045511629075
20
85.162203766295
30
0
0
VERTEX
8
0
10
82.6885015321242
20
85.1855519004129
30
0
0
VERTEX
8
0
10
83.3314914351734
20
85.2038456010367
30
0
0
VERTEX
8
0
10
83.9744813382225
20
85.2252194594323
30
0
0
VERTEX
8
0
10
84.6174712412717
20
85.2386192635862
30
0
0
VERTEX
8
0
10
85.2604611443209
20
85.2480192130144
30
0
0
VERTEX
8
0
10
85.9034510473701
20
85.2631793602854
30
0
0
VERTEX
8
0
10
86.5464409504192
20
85.2699325198517
30
0
0
VERTEX
8
0
10
87.1894308534684
20
85.2782629375258
30
0
0
VERTEX
8
0
10
87.8324207565176
20
85.2864899857265
30
0
0
VERTEX
8
0
10
88.4754106595668
20
85.2894118088435
30
0
0
VERTEX
8
0
10
89.1184005626159
20
85.2943161244941
30
0
0
VERTEX
8
0
10
89.7613904656651
20
85.2978568985051
30
0
0
VERTEX
8
0
10
90.4043803687143
20
85.2968968492355
30
0
0
VERTEX
8
0
10
91.0473702717635
20
85.2982659464773
30
0
0
VERTEX
8
0
10
91.6903601748127
20
85.2971484014481
30
0
0
VERTEX
8
0
10
92.3333500778618
20
85.2898557180119
30
0
0
VERTEX
8
0
10
92.976339980911
20
85.2861783319345
30
0
0
VERTEX
8
0
10
93.6193298839602
20
85.2752957390976
30
0
0
VERTEX
8
0
10
94.2623197870093
20
85.2654557004123
30
0
0
VERTEX
8
0
10
94.9053096900585
20
85.2562912978637
30
0
0
VERTEX
8
0
10
95.5482995931077
20
85.2431446605558
30
0
0
VERTEX
8
0
10
96.1912894961569
20
85.231346675331
30
0
0
VERTEX
8
0
10
96.8342793992061
20
85.2181711954221
30
0
0
VERTEX
8
0
10
97.4772693022552
20
85.2002553556387
30
0
0
VERTEX
8
0
10
98.1202592053044
20
85.1831840014202
30
0
0
VERTEX
8
0
10
98.7632491083536
20
85.1638608810179
30
0
0
VERTEX
8
0
10
99.4062390114028
20
85.1412939899874
30
0
0
VERTEX
8
0
10
100.049228914452
20
85.122020673558
30
0
0
VERTEX
8
0
10
100.692218817501
20
85.1013447767924
30
0
0
VERTEX
8
0
10
101.33520872055
20
85.0798498790738
30
0
0
VERTEX
8
0
10
101.978198623599
20
85.057787882898
30
0
0
VERTEX
8
0
10
102.621188526649
20
85.0318872973886
30
0
0
VERTEX
8
0
10
103.264178429698
20
85.002572389616
30
0
0
VERTEX
8
0
10
103.907168332747
20
84.972947672386
30
0
0
VERTEX
8
0
10
104.550158235796
20
84.9400963286833
30
0
0
VERTEX
8
0
10
105.193148138845
20
84.90820564146
30
0
0
VERTEX
8
0
10
105.836138041895
20
84.8781601064753
30
0
0
VERTEX
8
0
10
106.479127944944
20
84.8447212296951
30
0
0
VERTEX
8
0
10
107.122117847993
20
84.8134475181711
30
0
0
VERTEX
8
0
10
107.765107751042
20
84.7774822843959
30
0
0
VERTEX
8
0
10
108.408097654091
20
84.7433803746157
30
0
0
VERTEX
8
0
10
109.051087557141
20
84.7084018566097
30
0
0
VERTEX
8
0
10
109.69407746019
20
84.6703700467408
30
0
0
VERTEX
8
0
10
110.337067363239
20
84.632619459997
30
0
0
VERTEX
8
0
10
110.980057266288
20
84.5905129428834
30
0
0
VERTEX
8
0
10
111.623047169337
20
84.5458974698466
30
0
0
VERTEX
8
0
10
112.266037072386
20
84.5016902531692
30
0
0
VERTEX
8
0
10
112.909026975436
20
84.455834852009
30
0
0
VERTEX
8
0
10
113.552016878485
20
84.4120246951895
30
0
0
VERTEX
8
0
10
114.195006781534
20
84.3698206904665
30
0
0
VERTEX
8
0
10
114.837996684583
20
84.3241611560815
30
0
0
VERTEX
8
0
10
115.480986587632
20
84.2783216379132
30
0
0
VERTEX
8
0
10
116.123976490682
20
84.2329660846724
30
0
0
VERTEX
8
0
10
116.766966393731
20
84.1856298162912
30
0
0
VERTEX
8
0
10
117.40995629678
20
84.1382083862863
30
0
0
VERTEX
8
0
10
118.052946199829
20
84.0897169942162
30
0
0
VERTEX
8
0
10
118.695936102878
20
84.0382850411998
30
0
0
VERTEX
8
0
10
119.338926005928
20
83.9863992343279
30
0
0
VERTEX
8
0
10
119.981915908977
20
83.9332261522103
30
0
0
VERTEX
8
0
10
120.624905812026
20
83.8785113529888
30
0
0
VERTEX
8
0
10
121.267895715075
20
83.826044584295
30
0
0
VERTEX
8
0
10
121.910885618124
20
83.7724640385242
30
0
0
VERTEX
8
0
10
122.553875521173
20
83.7185287604423
30
0
0
VERTEX
8
0
10
123.196865424223
20
83.6639147408091
30
0
0
VERTEX
8
0
10
123.839855327272
20
83.6077932837329
30
0
0
VERTEX
8
0
10
124.482845230321
20
83.5513852682695
30
0
0
VERTEX
8
0
10
125.12583513337
20
83.4941595089876
30
0
0
VERTEX
8
0
10
125.768825036419
20
83.4357202083801
30
0
0
VERTEX
8
0
10
126.411814939469
20
83.3770404911068
30
0
0
VERTEX
8
0
10
127.054804842518
20
83.3235981762517
30
0
0
VERTEX
8
0
10
127.697794745567
20
83.2674319035896
30
0
0
VERTEX
8
0
10
128.340784648616
20
83.2112324963765
30
0
0
VERTEX
8
0
10
128.983774551665
20
83.1537645739423
30
0
0
VERTEX
8
0
10
129.626764454715
20
83.0959264951447
30
0
0
VERTEX
8
0
10
130.269754357764
20
83.0375829592596
30
0
0
VERTEX
8
0
10
130.912744260813
20
82.9784291411057
30
0
0
VERTEX
8
0
10
131.555734163862
20
82.9189688386233
30
0
0
VERTEX
8
0
10
132.198724066911
20
82.8607254599633
30
0
0
VERTEX
8
0
10
132.84171396996
20
82.8016028086699
30
0
0
VERTEX
8
0
10
133.48470387301
20
82.7422256102099
30
0
0
VERTEX
8
0
10
134.127693776059
20
82.6824127674272
30
0
0
VERTEX
8
0
10
134.770683679108
20
82.6237360068317
30
0
0
VERTEX
8
0
10
135.413673582157
20
82.5647722007031
30
0
0
VERTEX
8
0
10
136.056663485206
20
82.5053861211149
30
0
0
VERTEX
8
0
10
136.699653388256
20
82.4458160407687
30
0
0
VERTEX
8
0
10
137.342643291305
20
82.3902481288599
30
0
0
VERTEX
8
0
10
137.985633194354
20
82.3345200456993
30
0
0
VERTEX
8
0
10
138.628623097403
20
82.2786864546783
30
0
0
VERTEX
8
0
10
139.271613000452
20
82.2227580448332
30
0
0
VERTEX
8
0
10
139.914602903502
20
82.1655302677204
30
0
0
VERTEX
8
0
10
140.557592806551
20
82.1081475317759
30
0
0
VERTEX
8
0
10
141.2005827096
20
82.0508028496175
30
0
0
VERTEX
8
0
10
141.843572612649
20
81.993532921769
30
0
0
VERTEX
8
0
10
142.486562515698
20
81.9385415836146
30
0
0
VERTEX
8
0
10
143.129552418747
20
81.8842478235783
30
0
0
VERTEX
8
0
10
143.772542321797
20
81.8300490599188
30
0
0
VERTEX
8
0
10
144.415532224846
20
81.7759458585308
30
0
0
VERTEX
8
0
10
145.058522127895
20
81.7275920436313
30
0
0
VERTEX
8
0
10
145.701512030944
20
81.6819599764114
30
0
0
VERTEX
8
0
10
146.344501933993
20
81.6363967689308
30
0
0
VERTEX
8
0
10
146.987491837043
20
81.5909025371496
30
0
0
VERTEX
8
0
10
147.630481740092
20
81.5414990686024
30
0
0
VERTEX
8
0
10
148.273471643141
20
81.4892840607854
30
0
0
VERTEX
8
0
10
148.91646154619
20
81.4371610103015
30
0
0
VERTEX
8
0
10
149.559451449239
20
81.3851300938341
30
0
0
VERTEX
8
0
10
150.202441352289
20
81.3331914882046
30
0
0
VERTEX
8
0
10
150.845431255338
20
81.2873822160652
30
0
0
VERTEX
8
0
10
151.488421158387
20
81.2397012354972
30
0
0
VERTEX
8
0
10
152.131411061436
20
81.1920989870249
30
0
0
VERTEX
8
0
10
152.774400964485
20
81.1445756092096
30
0
0
VERTEX
8
0
10
153.417390867534
20
81.1038088231536
30
0
0
VERTEX
8
0
10
154.060380770584
20
81.0612867602564
30
0
0
VERTEX
8
0
10
154.703370673633
20
81.0188285305841
30
0
0
SEQEND
8
0
0
POLYLINE
8
0
62
2
70
0
10
0
20
0
30
0
0
VERTEX
8
0
10
13.2455920028131
20
0
30
0
0
VERTEX
8
0
10
13.8885819058623
20
0
30
0
0
VERTEX
8
0
10
14.5315718089114
20
0
30
0
0
VERTEX
8
0
10
15.1745617119606
20
0
30
0
0
VERTEX
8
0
10
15.8175516150098
20
0
30
0
0
VERTEX
8
0
10
16.460541518059
20
0
30
0
0
VERTEX
8
0
10
17.1035314211082
20
0
30
0
0
VERTEX
8
0
10
17.7465213241573
20
0
30
0
0
VERTEX
8
0
10
18.3895112272065
20
0
30
0
0
VERTEX
8
0
10
19.0325011302557
20
0
30
0
0
VERTEX
8
0
10
19.6754910333049
20
0
30
0
0
VERTEX
8
0
10
20.3184809363541
20
0
30
0
0
VERTEX
8
0
10
20.9614708394032
20
0
30
0
0
VERTEX
8
0
10
21.6044607424524
20
0
30
0
0
VERTEX
8
0
10
22.2474506455016
20
0
30
0
0
VERTEX
8
0
10
22.8904405485508
20
0
30
0
0
VERTEX
8
0
10
23.5334304515999
20
0
30
0
0
VERTEX
8
0
10
24.1764203546491
20
0
30
0
0
VERTEX
8
0
10
24.8194102576983
20
0
30
0
0
VERTEX
8
0
10
25.4624001607475
20
0
30
0
0
VERTEX
8
0
10
26.1053900637967
20
1.78558348485068
30
0
0
VERTEX
8
0
10
26.7483799668458
20
2.93912981616945
30
0
0
VERTEX
8
0
10
27.391369869895
20
3.32293970375526
30
0
0
VERTEX
8
0
10
28.0343597729442
20
3.84232882187149
30
0
0
VERTEX
8
0
10
28.6773496759934
20
4.57151654907971
30
0
0
VERTEX
8
0
10
29.3203395790425
20
4.76724431635756
30
0
0
VERTEX
8
0
10
29.9633294820917
20
5.19196972585682
30
0
0
VERTEX
8
0
10
30.6063193851409
20
5.55256899632858
30
0
0
VERTEX
8
0
10
31.2493092881901
20
5.88986376371793
30
0
0
VERTEX
8
0
10
31.8922991912392
20
6.28914585370369
30
0
0
VERTEX
8
0
10
32.5352890942884
20
6.56476577432224
30
0
0
VERTEX
8
0
10
33.1782789973376
20
6.855864814243
30
0
0
VERTEX
8
0
10
33.8212689003868
20
7.23757257101927
30
0
0
VERTEX
8
0
10
34.464258803436
20
7.44819082876138
30
0
0
VERTEX
8
0
10
35.1072487064851
20
7.7144159952352
30
0
0
VERTEX
8
0
10
35.7502386095343
20
8.08187571679055
30
0
0
VERTEX
8
0
10
36.3932285125835
20
8.24177647054957
30
0
0
VERTEX
8
0
10
37.0362184156327
20
8.49193770095986
30
0
0
VERTEX
8
0
10
37.6792083186818
20
8.72417195600952
30
0
0
VERTEX
8
0
10
38.322198221731
20
8.95115919003013
30
0
0
VERTEX
8
0
10
38.9651881247802
20
9.20573869985276
30
0
0
VERTEX
8
0
10
39.6081780278294
20
9.40338888987406
30
0
0
VERTEX
8
0
10
40.2511679308785
20
9.61154172920541
30
0
0
VERTEX
8
0
10
40.8941578339277
20
9.86890455342589
30
0
0
VERTEX
8
0
10
41.5371477369769
20
10.0344686866492
30
0
0
VERTEX
8
0
10
42.1801376400261
20
10.2327790674435
30
0
0
VERTEX
8
0
10
42.8231275430752
20
10.4923926943413
30
0
0
VERTEX
8
0
10
43.4661174461244
20
10.6346776673692
30
0
0
VERTEX
8
0
10
44.1091073491736
20
10.823922692941
30
0
0
VERTEX
8
0
10
44.7520972522228
20
11.0086646490536
30
0
0
VERTEX
8
0
10
45.3950871552719
20
11.1940425308476
30
0
0
VERTEX
8
0
10
46.0380770583211
20
11.3935977030989
30
0
0
VERTEX
8
0
10
46.6810669613703
20
11.5623816283597
30
0
0
VERTEX
8
0
10
47.3240568644195
20
11.7404303050492
30
0
0
VERTEX
8
0
10
47.9670467674687
20
11.9501622402509
30
0
0
VERTEX
8
0
10
48.6100366705178
20
12.1040065029722
30
0
0
VERTEX
8
0
10
49.253026573567
20
12.2814383652762
30
0
0
VERTEX
8
0
10
49.8960164766162
20
12.5017415723502
30
0
0
VERTEX
8
0
10
50.5390063796654
20
12.6494955099653
30
0
0
VERTEX
8
0
10
51.1819962827145
20
12.8245761426924
30
0
0
VERTEX
8
0
10
51.8249861857637
20
13.0027992636615
30
0
0
VERTEX
8
0
10
52.4679760888129
20
13.1857753558088
30
0
0
VERTEX
8
0
10
53.1109659918621
20
13.3771378473375
30
0
0
VERTEX
8
0
10
53.7539558949112
20
13.5526921698278
30
0
0
VERTEX
8
0
10
54.3969457979604
20
13.7379352409525
30
0
0
VERTEX
8
0
10
55.0399357010096
20
13.9460589254071
30
0
0
VERTEX
8
0
10
55.6829256040588
20
14.1195450527253
30
0
0
VERTEX
8
0
10
56.325915507108
20
14.3123169021354
30
0
0
VERTEX
8
0
10
56.9689054101571
20
14.5377689146468
30
0
0
VERTEX
8
0
10
57.6118953132063
20
14.7178776288453
30
0
0
VERTEX
8
0
10
58.2548852162555
20
14.9147239497911
30
0
0
VERTEX
8
0
10
58.8978751193047
20
15.1196548891477
30
0
0
VERTEX
8
0
10
59.5408650223538
20
15.3322367128718
30
0
0
VERTEX
8
0
10
60.183854925403
20
15.5502792507506
30
0
0
VERTEX
8
0
10
60.8268448284522
20
15.7620585501063
30
0
0
VERTEX
8
0
10
61.4698347315014
20
15.9839806347467
30
0
0
VERTEX
8
0
10
62.1128246345505
20
16.2233138392141
30
0
0
VERTEX
8
0
10
62.7558145375997
20
16.4418167168715
30
0
0
VERTEX
8
0
10
63.3988044406489
20
16.6767257152279
30
0
0
VERTEX
8
0
10
64.0417943436981
20
16.9372938278899
30
0
0
VERTEX
8
0
10
64.6847842467472
20
17.1703105547161
30
0
0
VERTEX
8
0
10
65.3277741497964
20
17.4132215456046
30
0
0
VERTEX
8
0
10
65.9707640528456
20
17.6668315305579
30
0
0
VERTEX
8
0
10
66.6137539558948
20
17.9294335031952
30
0
0
VERTEX
8
0
10
67.2567438589439
20
18.1953409990995
30
0
0
VERTEX
8
0
10
67.8997337619931
20
18.4607579034665
30
0
0
VERTEX
8
0
10
68.5427236650423
20
18.7359157549054
30
0
0
VERTEX
8
0
10
69.1857135680915
20
19.0241122978936
30
0
0
VERTEX
8
0
10
69.8287034711407
20
19.3003578226274
30
0
0
VERTEX
8
0
10
70.4716933741898
20
19.5901678166045
30
0
0
VERTEX
8
0
10
71.114683277239
20
19.8997893311124
30
0
0
VERTEX
8
0
10
71.7576731802882
20
20.1934519051162
30
0
0
VERTEX
8
0
10
72.4006630833374
20
20.4919025023811
30
0
0
VERTEX
8
0
10
73.0436529863865
20
20.8016677064721
30
0
0
VERTEX
8
0
10
73.6866428894357
20
21.1203143741746
30
0
0
VERTEX
8
0
10
74.3296327924849
20
21.4402597003524
30
0
0
VERTEX
8
0
10
74.9726226955341
20
21.7627467457786
30
0
0
VERTEX
8
0
10
75.6156125985832
20
22.0937472979415
30
0
0
VERTEX
8
0
10
76.2586025016324
20
22.4339658545746
30
0
0
VERTEX
8
0
10
76.9015924046816
20
22.7677579222135
30
0
0
VERTEX
8
0
10
77.5445823077308
20
23.1122445548677
30
0
0
VERTEX
8
0
10
78.1875722107799
20
23.4715364768233
30
0
0
VERTEX
8
0
10
78.8305621138291
20
23.8223656954805
30
0
0
VERTEX
8
0
10
79.4735520168783
20
24.174264496845
30
0
0
VERTEX
8
0
10
80.1165419199275
20
24.5369907935649
30
0
0
VERTEX
8
0
10
80.7595318229767
20
24.907847625895
30
0
0
VERTEX
8
0
10
81.4025217260258
20
25.278564245214
30
0
0
VERTEX
8
0
10
82.045511629075
20
25.6534948022466
30
0
0
VERTEX
8
0
10
82.6885015321242
20
26.0358036625454
30
0
0
VERTEX
8
0
10
83.3314914351734
20
26.4247061227717
30
0
0
VERTEX
8
0
10
83.9744813382225
20
26.8112576849992
30
0
0
VERTEX
8
0
10
84.6174712412717
20
27.2067255293437
30
0
0
VERTEX
8
0
10
85.2604611443209
20
27.6139134429453
30
0
0
VERTEX
8
0
10
85.9034510473701
20
28.0187283543151
30
0
0
VERTEX
8
0
10
86.5464409504192
20
28.4237306243447
30
0
0
VERTEX
8
0
10
87.1894308534684
20
28.8404902084213
30
0
0
VERTEX
8
0
10
87.8324207565176
20
29.2668436191762
30
0
0
VERTEX
8
0
10
88.4754106595668
20
29.6953237461876
30
0
0
VERTEX
8
0
10
89.1184005626159
20
30.1328137917358
30
0
0
VERTEX
8
0
10
89.7613904656651
20
30.5818494918428
30
0
0
VERTEX
8
0
10
90.4043803687143
20
31.0425679332108
30
0
0
VERTEX
8
0
10
91.0473702717635
20
31.5131770277228
30
0
0
VERTEX
8
0
10
91.6903601748127
20
32.0046784761676
30
0
0
VERTEX
8
0
10
92.3333500778618
20
32.525544630947
30
0
0
VERTEX
8
0
10
92.976339980911
20
33.0802204583943
30
0
0
VERTEX
8
0
10
93.6193298839602
20
33.68550612408
30
0
0
VERTEX
8
0
10
94.2623197870093
20
34.3284465717755
30
0
0
VERTEX
8
0
10
94.9053096900585
20
34.8985312895433
30
0
0
VERTEX
8
0
10
95.5482995931077
20
35.3692792896084
30
0
0
VERTEX
8
0
10
96.1912894961569
20
35.7734732953807
30
0
0
VERTEX
8
0
10
96.8342793992061
20
36.1286974937504
30
0
0
VERTEX
8
0
10
97.4772693022552
20
36.4433994197794
30
0
0
VERTEX
8
0
10
98.1202592053044
20
36.7228939566445
30
0
0
VERTEX
8
0
10
98.7632491083536
20
36.9752071070751
30
0
0
VERTEX
8
0
10
99.4062390114028
20
37.2044125929872
30
0
0
VERTEX
8
0
10
100.049228914452
20
37.4098168736399
30
0
0
VERTEX
8
0
10
100.692218817501
20
37.5899005051491
30
0
0
VERTEX
8
0
10
101.33520872055
20
37.7548627960149
30
0
0
VERTEX
8
0
10
101.978198623599
20
37.9042052717659
30
0
0
VERTEX
8
0
10
102.621188526649
20
38.0339264877004
30
0
0
VERTEX
8
0
10
103.264178429698
20
38.1499153600674
30
0
0
VERTEX
8
0
10
103.907168332747
20
38.2524979411839
30
0
0
VERTEX
8
0
10
104.550158235796
20
38.3408138638165
30
0
0
VERTEX
8
0
10
105.193148138845
20
38.4156637236703
30
0
0
VERTEX
8
0
10
105.836138041895
20
38.4790634713039
30
0
0
VERTEX
8
0
10
106.479127944944
20
38.5317867855462
30
0
0
VERTEX
8
0
10
107.122117847993
20
38.5733065378339
30
0
0
VERTEX
8
0
10
107.765107751042
20
38.6002981929932
30
0
0
VERTEX
8
0
10
108.408097654091
20
38.6194870944391
30
0
0
VERTEX
8
0
10
109.051087557141
20
38.6298464936529
30
0
0
VERTEX
8
0
10
109.69407746019
20
38.6280012866481
30
0
0
VERTEX
8
0
10
110.337067363239
20
38.6179583076565
30
0
0
VERTEX
8
0
10
110.980057266288
20
38.599327540776
30
0
0
VERTEX
8
0
10
111.623047169337
20
38.5711046508491
30
0
0
VERTEX
8
0
10
112.266037072386
20
38.534208561014
30
0
0
VERTEX
8
0
10
112.909026975436
20
38.4893079410697
30
0
0
VERTEX
8
0
10
113.552016878485
20
38.4366606689367
30
0
0
VERTEX
8
0
10
114.195006781534
20
38.3765039877966
30
0
0
VERTEX
8
0
10
114.837996684583
20
38.3059095816226
30
0
0
VERTEX
8
0
10
115.480986587632
20
38.2294412468872
30
0
0
VERTEX
8
0
10
116.123976490682
20
38.1463221908872
30
0
0
VERTEX
8
0
10
116.766966393731
20
38.0542820108355
30
0
0
VERTEX
8
0
10
117.40995629678
20
37.9560361529621
30
0
0
VERTEX
8
0
10
118.052946199829
20
37.8511561117896
30
0
0
VERTEX
8
0
10
118.695936102878
20
37.7389279548926
30
0
0
VERTEX
8
0
10
119.338926005928
20
37.6202214314873
30
0
0
VERTEX
8
0
10
119.981915908977
20
37.4951909031998
30
0
0
VERTEX
8
0
10
120.624905812026
20
37.3639499539455
30
0
0
VERTEX
8
0
10
121.267895715075
20
37.2270000054501
30
0
0
VERTEX
8
0
10
121.910885618124
20
37.0823532277442
30
0
0
VERTEX
8
0
10
122.553875521173
20
36.9328137137916
30
0
0
VERTEX
8
0
10
123.196865424223
20
36.7779407272158
30
0
0
VERTEX
8
0
10
123.839855327272
20
36.6165002426521
30
0
0
VERTEX
8
0
10
124.482845230321
20
36.4501417124258
30
0
0
VERTEX
8
0
10
125.12583513337
20
36.2786186436462
30
0
0
VERTEX
8
0
10
125.768825036419
20
36.1016042863544
30
0
0
VERTEX
8
0
10
126.411814939469
20
35.9197689846101
30
0
0
VERTEX
8
0
10
127.054804842518
20
35.7331715273422
30
0
0
VERTEX
8
0
10
127.697794745567
20
35.5419527737725
30
0
0
VERTEX
8
0
10
128.340784648616
20
35.3465960045342
30
0
0
VERTEX
8
0
10
128.983774551665
20
35.1462060485699
30
0
0
VERTEX
8
0
10
129.626764454715
20
34.9422460983939
30
0
0
VERTEX
8
0
10
130.269754357764
20
34.734647220719
30
0
0
VERTEX
8
0
10
130.912744260813
20
34.5230768079404
30
0
0
VERTEX
8
0
10
131.555734163862
20
34.3084279106457
30
0
0
VERTEX
8
0
10
132.198724066911
20
34.0907835608308
30
0
0
VERTEX
8
0
10
132.84171396996
20
33.8702662716538
30
0
0
VERTEX
8
0
10
133.48470387301
20
33.6474160168333
30
0
0
VERTEX
8
0
10
134.127693776059
20
33.4225164977009
30
0
0
VERTEX
8
0
10
134.770683679108
20
33.1959458017779
30
0
0
VERTEX
8
0
10
135.413673582157
20
32.9682381375123
30
0
0
VERTEX
8
0
10
136.056663485206
20
32.7395996075619
30
0
0
VERTEX
8
0
10
136.699653388256
20
32.5108747217277
30
0
0
VERTEX
8
0
10
137.342643291305
20
32.2826004408837
30
0
0
VERTEX
8
0
10
137.985633194354
20
32.0554064685665
30
0
0
VERTEX
8
0
10
138.628623097403
20
31.8302253424907
30
0
0
VERTEX
8
0
10
139.271613000452
20
31.6080254130841
30
0
0
VERTEX
8
0
10
139.914602903502
20
31.3900367797483
30
0
0
VERTEX
8
0
10
140.557592806551
20
31.1778449441769
30
0
0
VERTEX
8
0
10
141.2005827096
20
30.973357648191
30
0
0
VERTEX
8
0
10
141.843572612649
20
30.7782394017447
30
0
0
VERTEX
8
0
10
142.486562515698
20
30.592676843294
30
0
0
VERTEX
8
0
10
143.129552418747
20
30.4155526066642
30
0
0
VERTEX
8
0
10
143.772542321797
20
30.2456207302543
30
0
0
VERTEX
8
0
10
144.415532224846
20
30.0819150673021
30
0
0
VERTEX
8
0
10
145.058522127895
20
29.9237130884037
30
0
0
VERTEX
8
0
10
145.701512030944
20
29.770457165138
30
0
0
VERTEX
8
0
10
146.344501933993
20
29.6217012015154
30
0
0
VERTEX
8
0
10
146.987491837043
20
29.4770777643018
30
0
0
VERTEX
8
0
10
147.630481740092
20
29.3362773150313
30
0
0
VERTEX
8
0
10
148.273471643141
20
29.199034465238
30
0
0
VERTEX
8
0
10
148.91646154619
20
29.0651184688012
30
0
0
VERTEX
8
0
10
149.559451449239
20
28.9343263943933
30
0
0
VERTEX
8
0
10
150.202441352289
20
28.806478068542
30
0
0
VERTEX
8
0
10
150.845431255338
20
28.6814122328462
30
0
0
VERTEX
8
0
10
151.488421158387
20
28.55898356034
30
0
0
VERTEX
8
0
10
152.131411061436
20
28.4390602961857
30
0
0
VERTEX
8
0
10
152.774400964485
20
28.3215223624878
30
0
0
VERTEX
8
0
10
153.417390867534
20
28.2062598149703
30
0
0
VERTEX
8
0
10
154.060380770584
20
28.0931715710216
30
0
0
VERTEX
8
0
10
154.703370673633
20
27.9821643502041
30
0
0
SEQEND
8
0
0
POLYLINE
8
0
62
3
70
0
10
0
20
0
30
0
0
VERTEX
8
0
10
13.2455920028131
20
0
30
0
0
VERTEX
8
0
10
13.8885819058623
20
0
30
0
0
VERTEX
8
0
10
14.5315718089114
20
0
30
0
0
VERTEX
8
0
10
15.1745617119606
20
0
30
0
0
VERTEX
8
0
10
15.8175516150098
20
0
30
0
0
VERTEX
8
0
10
16.460541518059
20
0
30
0
0
VERTEX
8
0
10
17.1035314211082
20
0
30
0
0
VERTEX
8
0
10
17.7465213241573
20
1.73318487563078
30
0
0
VERTEX
8
0
10
18.3895112272065
20
2.69254294372266
30
0
0
VERTEX
8
0
10
19.0325011302557
20
3.5264762049959
30
0
0
VERTEX
8
0
10
19.6754910333049
20
4.55727971418293
30
0
0
VERTEX
8
0
10
20.3184809363541
20
5.02861519924689
30
0
0
VERTEX
8
0
10
20.9614708394032
20
5.63849619214906
30
0
0
VERTEX
8
0
10
21.6044607424524
20
6.45786882114422
30
0
0
VERTEX
8
0
10
22.2474506455016
20
6.79642935158609
30
0
0
VERTEX
8
0
10
22.8904405485508
20
7.36086945004962
30
0
0
VERTEX
8
0
10
23.5334304515999
20
7.86643309917078
30
0
0
VERTEX
8
0
10
24.1764203546491
20
8.35321216459851
30
0
0
VERTEX
8
0
10
24.8194102576983
20
8.90268139741772
30
0
0
VERTEX
8
0
10
25.4624001607475
20
9.34020664893505
30
0
0
VERTEX
8
0
10
26.1053900637967
20
9.79346609972783
30
0
0
VERTEX
8
0
10
26.7483799668458
20
10.3289083272579
30
0
0
VERTEX
8
0
10
27.391369869895
20
10.7133895590232
30
0
0
VERTEX
8
0
10
28.0343597729442
20
11.1476068454076
30
0
0
VERTEX
8
0
10
28.6773496759934
20
11.668869110846
30
0
0
VERTEX
8
0
10
29.3203395790425
20
12.0122818826619
30
0
0
VERTEX
8
0
10
29.9633294820917
20
12.4319343302356
30
0
0
VERTEX
8
0
10
30.6063193851409
20
12.8364515241992
30
0
0
VERTEX
8
0
10
31.2493092881901
20
13.2365712640265
30
0
0
VERTEX
8
0
10
31.8922991912392
20
13.6568905150044
30
0
0
VERTEX
8
0
10
32.5352890942884
20
14.0306516247937
30
0
0
VERTEX
8
0
10
33.1782789973376
20
14.4122612296521
30
0
0
VERTEX
8
0
10
33.8212689003868
20
14.8302345554101
30
0
0
VERTEX
8
0
10
34.464258803436
20
15.1752174180988
30
0
0
VERTEX
8
0
10
35.1072487064851
20
15.5444992044483
30
0
0
VERTEX
8
0
10
35.7502386095343
20
15.9584496157721
30
0
0
VERTEX
8
0
10
36.3932285125835
20
16.2838177037188
30
0
0
VERTEX
8
0
10
37.0362184156327
20
16.638237616297
30
0
0
VERTEX
8
0
10
37.6792083186818
20
16.9901169874035
30
0
0
VERTEX
8
0
10
38.322198221731
20
17.342041714121
30
0
0
VERTEX
8
0
10
38.9651881247802
20
17.6984310123548
30
0
0
VERTEX
8
0
10
39.6081780278294
20
18.0329851774032
30
0
0
VERTEX
8
0
10
40.2511679308785
20
18.3727219392324
30
0
0
VERTEX
8
0
10
40.8941578339277
20
18.7301190076513
30
0
0
VERTEX
8
0
10
41.5371477369769
20
19.0481581499104
30
0
0
VERTEX
8
0
10
42.1801376400261
20
19.3803319933526
30
0
0
VERTEX
8
0
10
42.8231275430752
20
19.7384456144304
30
0
0
VERTEX
8
0
10
43.4661174461244
20
20.0496438171781
30
0
0
VERTEX
8
0
10
44.1091073491736
20
20.3696124049235
30
0
0
VERTEX
8
0
10
44.7520972522228
20
20.6935394635608
30
0
0
VERTEX
8
0
10
45.3950871552719
20
21.0205233802574
30
0
0
VERTEX
8
0
10
46.0380770583211
20
21.3454831921853
30
0
0
VERTEX
8
0
10
46.6810669613703
20
21.6617295408827
30
0
0
VERTEX
8
0
10
47.3240568644195
20
21.9828314764897
30
0
0
VERTEX
8
0
10
47.9670467674687
20
22.3129556605124
30
0
0
VERTEX
8
0
10
48.6100366705178
20
22.6222285500986
30
0
0
VERTEX
8
0
10
49.253026573567
20
22.9412932389093
30
0
0
VERTEX
8
0
10
49.8960164766162
20
23.2770434088546
30
0
0
VERTEX
8
0
10
50.5390063796654
20
23.5894049969694
30
0
0
VERTEX
8
0
10
51.1819962827145
20
23.9006450703471
30
0
0
VERTEX
8
0
10
51.8249861857637
20
24.2201636789096
30
0
0
VERTEX
8
0
10
52.4679760888129
20
24.5452354599217
30
0
0
VERTEX
8
0
10
53.1109659918621
20
24.8655299664998
30
0
0
VERTEX
8
0
10
53.7539558949112
20
25.18532300402
30
0
0
VERTEX
8
0
10
54.3969457979604
20
25.510530657085
30
0
0
VERTEX
8
0
10
55.0399357010096
20
25.8404003206403
30
0
0
VERTEX
8
0
10
55.6829256040588
20
26.1609891975659
30
0
0
VERTEX
8
0
10
56.325915507108
20
26.4894117535986
30
0
0
VERTEX
8
0
10
56.9689054101571
20
26.8294290287839
30
0
0
VERTEX
8
0
10
57.6118953132063
20
27.1608495396231
30
0
0
VERTEX
8
0
10
58.2548852162555
20
27.4856983878412
30
0
0
VERTEX
8
0
10
58.8978751193047
20
27.8218283732285
30
0
0
VERTEX
8
0
10
59.5408650223538
20
28.1653995271267
30
0
0
VERTEX
8
0
10
60.183854925403
20
28.5028299820028
30
0
0
VERTEX
8
0
10
60.8268448284522
20
28.8451674472029
30
0
0
VERTEX
8
0
10
61.4698347315014
20
29.1934777488461
30
0
0
VERTEX
8
0
10
62.1128246345505
20
29.5438009585704
30
0
0
VERTEX
8
0
10
62.7558145375997
20
29.8924290486133
30
0
0
VERTEX
8
0
10
63.3988044406489
20
30.2476687036694
30
0
0
VERTEX
8
0
10
64.0417943436981
20
30.6111109531015
30
0
0
VERTEX
8
0
10
64.6847842467472
20
30.9756588246818
30
0
0
VERTEX
8
0
10
65.3277741497964
20
31.3300539473641
30
0
0
VERTEX
8
0
10
65.9707640528456
20
31.6975130701244
30
0
0
VERTEX
8
0
10
66.6137539558948
20
32.0734499439267
30
0
0
VERTEX
8
0
10
67.2567438589439
20
32.4421860826819
30
0
0
VERTEX
8
0
10
67.8997337619931
20
32.8191759657356
30
0
0
VERTEX
8
0
10
68.5427236650423
20
33.2021882538592
30
0
0
VERTEX
8
0
10
69.1857135680915
20
33.5850806208337
30
0
0
VERTEX
8
0
10
69.8287034711407
20
33.9711143129171
30
0
0
VERTEX
8
0
10
70.4716933741898
20
34.3624872871902
30
0
0
VERTEX
8
0
10
71.114683277239
20
34.7592264473474
30
0
0
VERTEX
8
0
10
71.7576731802882
20
35.1633006058463
30
0
0
VERTEX
8
0
10
72.4006630833374
20
35.5544603954587
30
0
0
VERTEX
8
0
10
73.0436529863865
20
35.9592736160394
30
0
0
VERTEX
8
0
10
73.6866428894357
20
36.3726744686956
30
0
0
VERTEX
8
0
10
74.3296327924849
20
36.7777641308143
30
0
0
VERTEX
8
0
10
74.9726226955341
20
37.1928043472493
30
0
0
VERTEX
8
0
10
75.6156125985832
20
37.6132928881767
30
0
0
VERTEX
8
0
10
76.2586025016324
20
38.0316676972015
30
0
0
VERTEX
8
0
10
76.9015924046816
20
38.4560059945247
30
0
0
VERTEX
8
0
10
77.5445823077308
20
38.8841925975921
30
0
0
VERTEX
8
0
10
78.1875722107799
20
39.3151568364409
30
0
0
VERTEX
8
0
10
78.8305621138291
20
39.7571905936457
30
0
0
VERTEX
8
0
10
79.4735520168783
20
40.184227437507
30
0
0
VERTEX
8
0
10
80.1165419199275
20
40.6246002661822
30
0
0
VERTEX
8
0
10
80.7595318229767
20
41.0730408395787
30
0
0
VERTEX
8
0
10
81.4025217260258
20
41.5122731035908
30
0
0
VERTEX
8
0
10
82.045511629075
20
41.9621070801966
30
0
0
VERTEX
8
0
10
82.6885015321242
20
42.4166207202256
30
0
0
VERTEX
8
0
10
83.3314914351734
20
42.8675564935043
30
0
0
VERTEX
8
0
10
83.9744813382225
20
43.3262247961166
30
0
0
VERTEX
8
0
10
84.6174712412717
20
43.7876674034776
30
0
0
VERTEX
8
0
10
85.2604611443209
20
44.250229410072
30
0
0
VERTEX
8
0
10
85.9034510473701
20
44.7265048000692
30
0
0
VERTEX
8
0
10
86.5464409504192
20
45.1874949366965
30
0
0
VERTEX
8
0
10
87.1894308534684
20
45.6620637775708
30
0
0
VERTEX
8
0
10
87.8324207565176
20
46.1453233081985
30
0
0
VERTEX
8
0
10
88.4754106595668
20
46.6208697627173
30
0
0
VERTEX
8
0
10
89.1184005626159
20
47.109431857705
30
0
0
VERTEX
8
0
10
89.7613904656651
20
47.6051660367774
30
0
0
VERTEX
8
0
10
90.4043803687143
20
48.1008777125982
30
0
0
VERTEX
8
0
10
91.0473702717635
20
48.6113145629465
30
0
0
VERTEX
8
0
10
91.6903601748127
20
49.1324603359884
30
0
0
VERTEX
8
0
10
92.3333500778618
20
49.6668426206522
30
0
0
VERTEX
8
0
10
92.976339980911
20
50.2374668791261
30
0
0
VERTEX
8
0
10
93.6193298839602
20
50.8273454157209
30
0
0
VERTEX
8
0
10
94.2623197870093
20
51.4475122744001
30
0
0
VERTEX
8
0
10
94.9053096900585
20
52.0190051293622
30
0
0
VERTEX
8
0
10
95.5482995931077
20
52.512128160044
30
0
0
VERTEX
8
0
10
96.1912894961569
20
52.9625329660719
30
0
0
VERTEX
8
0
10
96.8342793992061
20
53.3752537991736
30
0
0
VERTEX
8
0
10
97.4772693022552
20
53.7500407888856
30
0
0
VERTEX
8
0
10
98.1202592053044
20
54.1033556411966
30
0
0
VERTEX
8
0
10
98.7632491083536
20
54.4315989642553
30
0
0
VERTEX
8
0
10
99.4062390114028
20
54.7353420923391
30
0
0
VERTEX
8
0
10
100.049228914452
20
55.0291541937609
30
0
0
VERTEX
8
0
10
100.692218817501
20
55.2909030790334
30
0
0
VERTEX
8
0
10
101.33520872055
20
55.542439494006
30
0
0
VERTEX
8
0
10
101.978198623599
20
55.7809456741449
30
0
0
VERTEX
8
0
10
102.621188526649
20
55.996418931104
30
0
0
VERTEX
8
0
10
103.264178429698
20
56.2032693580974
30
0
0
VERTEX
8
0
10
103.907168332747
20
56.3970389981078
30
0
0
VERTEX
8
0
10
104.550158235796
20
56.5730019418265
30
0
0
VERTEX
8
0
10
105.193148138845
20
56.7410508808357
30
0
0
VERTEX
8
0
10
105.836138041895
20
56.8961076580672
30
0
0
VERTEX
8
0
10
106.479127944944
20
57.0371882955635
30
0
0
VERTEX
8
0
10
107.122117847993
20
57.1746828548626
30
0
0
VERTEX
8
0
10
107.765107751042
20
57.2913830164504
30
0
0
VERTEX
8
0
10
108.408097654091
20
57.4024359932485
30
0
0
VERTEX
8
0
10
109.051087557141
20
57.5053934024311
30
0
0
VERTEX
8
0
10
109.69407746019
20
57.592922289524
30
0
0
VERTEX
8
0
10
110.337067363239
20
57.6750041379388
30
0
0
VERTEX
8
0
10
110.980057266288
20
57.7481205799521
30
0
0
VERTEX
8
0
10
111.623047169337
20
57.8087899955561
30
0
0
VERTEX
8
0
10
112.266037072386
20
57.8640569170642
30
0
0
VERTEX
8
0
10
112.909026975436
20
57.9099725892818
30
0
0
VERTEX
8
0
10
113.552016878485
20
57.94574488419
30
0
0
VERTEX
8
0
10
114.195006781534
20
57.9787374083983
30
0
0
VERTEX
8
0
10
114.837996684583
20
57.9970649270016
30
0
0
VERTEX
8
0
10
115.480986587632
20
58.010819100594
30
0
0
VERTEX
8
0
10
116.123976490682
20
58.018323871045
30
0
0
VERTEX
8
0
10
116.766966393731
20
58.0148533640177
30
0
0
VERTEX
8
0
10
117.40995629678
20
58.0069107779902
30
0
0
VERTEX
8
0
10
118.052946199829
20
57.992140092206
30
0
0
VERTEX
8
0
10
118.695936102878
20
57.9683709763425
30
0
0
VERTEX
8
0
10
119.338926005928
20
57.9401955825621
30
0
0
VERTEX
8
0
10
119.981915908977
20
57.9050206129961
30
0
0
VERTEX
8
0
10
120.624905812026
20
57.8624088047071
30
0
0
VERTEX
8
0
10
121.267895715075
20
57.8169901185111
30
0
0
VERTEX
8
0
10
121.910885618124
20
57.7616611835668
30
0
0
VERTEX
8
0
10
122.553875521173
20
57.7024076404192
30
0
0
VERTEX
8
0
10
123.196865424223
20
57.6382819703075
30
0
0
VERTEX
8
0
10
123.839855327272
20
57.5667535386794
30
0
0
VERTEX
8
0
10
124.482845230321
20
57.4915196007256
30
0
0
VERTEX
8
0
10
125.12583513337
20
57.4113143220537
30
0
0
VERTEX
8
0
10
125.768825036419
20
57.325111278163
30
0
0
VERTEX
8
0
10
126.411814939469
20
57.2354515882801
30
0
0
VERTEX
8
0
10
127.054804842518
20
57.1410378251706
30
0
0
VERTEX
8
0
10
127.697794745567
20
57.0417977188118
30
0
0
VERTEX
8
0
10
128.340784648616
20
56.9400971521315
30
0
0
VERTEX
8
0
10
128.983774551665
20
56.8327459695548
30
0
0
VERTEX
8
0
10
129.626764454715
20
56.7226137994413
30
0
0
VERTEX
8
0
10
130.269754357764
20
56.6093896228339
30
0
0
VERTEX
8
0
10
130.912744260813
20
56.4922335654863
30
0
0
VERTEX
8
0
10
131.555734163862
20
56.3728062051952
30
0
0
VERTEX
8
0
10
132.198724066911
20
56.2507699930527
30
0
0
VERTEX
8
0
10
132.84171396996
20
56.125999981069
30
0
0
VERTEX
8
0
10
133.48470387301
20
55.9995950781943
30
0
0
VERTEX
8
0
10
134.127693776059
20
55.8713476901171
30
0
0
VERTEX
8
0
10
134.770683679108
20
55.7415374680734
30
0
0
VERTEX
8
0
10
135.413673582157
20
55.611073196053
30
0
0
VERTEX
8
0
10
136.056663485206
20
55.479505748625
30
0
0
VERTEX
8
0
10
136.699653388256
20
55.3478604089037
30
0
0
VERTEX
8
0
10
137.342643291305
20
55.2164421180702
30
0
0
VERTEX
8
0
10
137.985633194354
20
55.0856022046024
30
0
0
VERTEX
8
0
10
138.628623097403
20
54.9561023795185
30
0
0
VERTEX
8
0
10
139.271613000452
20
54.8285096960542
30
0
0
VERTEX
8
0
10
139.914602903502
20
54.7035935249412
30
0
0
VERTEX
8
0
10
140.557592806551
20
54.5823528436639
30
0
0
VERTEX
8
0
10
141.2005827096
20
54.4659016707402
30
0
0
VERTEX
8
0
10
141.843572612649
20
54.3552078198835
30
0
0
VERTEX
8
0
10
142.486562515698
20
54.2503563787275
30
0
0
VERTEX
8
0
10
143.129552418747
20
54.1506719528693
30
0
0
VERTEX
8
0
10
143.772542321797
20
54.0554070761627
30
0
0
VERTEX
8
0
10
144.415532224846
20
53.9639794728889
30
0
0
VERTEX
8
0
10
145.058522127895
20
53.8759507810062
30
0
0
VERTEX
8
0
10
145.701512030944
20
53.7909805414327
30
0
0
VERTEX
8
0
10
146.344501933993
20
53.7087949027482
30
0
0
VERTEX
8
0
10
146.987491837043
20
53.6291672634002
30
0
0
VERTEX
8
0
10
147.630481740092
20
53.5519059842822
30
0
0
VERTEX
8
0
10
148.273471643141
20
53.4768462191588
30
0
0
VERTEX
8
0
10
148.91646154619
20
53.403844238509
30
0
0
VERTEX
8
0
10
149.559451449239
20
53.3327733363152
30
0
0
VERTEX
8
0
10
150.202441352289
20
53.2635207863589
30
0
0
VERTEX
8
0
10
150.845431255338
20
53.1959855206758
30
0
0
VERTEX
8
0
10
151.488421158387
20
53.1300763207175
30
0
0
VERTEX
8
0
10
152.131411061436
20
53.065710382276
30
0
0
VERTEX
8
0
10
152.774400964485
20
53.0028121591147
30
0
0
VERTEX
8
0
10
153.417390867534
20
52.9413124185178
30
0
0
VERTEX
8
0
10
154.060380770584
20
52.8811474607383
30
0
0
VERTEX
8
0
10
154.703370673633
20
52.822258467121
30
0
0
SEQEND
8
0
0
POLYLINE
8
0
62
4
70
0
10
0
20
0
30
0
0
VERTEX
8
0
10
13.2455920028131
20
0
30
0
0
VERTEX
8
0
10
13.8885819058623
20
0
30
0
0
VERTEX
8
0
10
14.5315718089114
20
0
30
0
0
VERTEX
8
0
10
15.1745617119606
20
0
30
0
0
VERTEX
8
0
10
15.8175516150098
20
0
30
0
0
VERTEX
8
0
10
16.460541518059
20
0
30
0
0
VERTEX
8
0
10
17.1035314211082
20
0
30
0
0
VERTEX
8
0
10
17.7465213241573
20
0
30
0
0
VERTEX
8
0
10
18.3895112272065
20
0
30
0
0
VERTEX
8
0
10
19.0325011302557
20
0
30
0
0
VERTEX
8
0
10
19.6754910333049
20
0
30
0
0
VERTEX
8
0
10
20.3184809363541
20
0
30
0
0
VERTEX
8
0
10
20.9614708394032
20
0
30
0
0
VERTEX
8
0
10
21.6044607424524
20
0
30
0
0
VERTEX
8
0
10
22.2474506455016
20
0
30
0
0
VERTEX
8
0
10
22.8904405485508
20
7.36099074787979
30
0
0
VERTEX
8
0
10
23.5334304515999
20
7.86691942910478
30
0
0
VERTEX
8
0
10
24.1764203546491
20
8.35976802357344
30
0
0
VERTEX
8
0
10
24.8194102576983
20
8.92877319258322
30
0
0
VERTEX
8
0
10
25.4624001607475
20
9.39717635258238
30
0
0
VERTEX
8
0
10
26.1053900637967
20
9.72830217943937
30
0
0
VERTEX
8
0
10
26.7483799668458
20
10.0601802690317
30
0
0
VERTEX
8
0
10
27.391369869895
20
10.4211228465243
30
0
0
VERTEX
8
0
10
28.0343597729442
20
10.7908781895289
30
0
0
VERTEX
8
0
10
28.6773496759934
20
11.1642410716386
30
0
0
VERTEX
8
0
10
29.3203395790425
20
11.565064020325
30
0
0
VERTEX
8
0
10
29.9633294820917
20
12.0267014674303
30
0
0
VERTEX
8
0
10
30.6063193851409
20
12.4921974058376
30
0
0
VERTEX
8
0
10
31.2493092881901
20
12.9750754583743
30
0
0
VERTEX
8
0
10
31.8922991912392
20
13.4792263767376
30
0
0
VERTEX
8
0
10
32.5352890942884
20
14.0237191123448
30
0
0
VERTEX
8
0
10
33.1782789973376
20
14.5823021999268
30
0
0
VERTEX
8
0
10
33.8212689003868
20
15.1452993350967
30
0
0
VERTEX
8
0
10
34.464258803436
20
15.677278368821
30
0
0
VERTEX
8
0
10
35.1072487064851
20
16.1993626491844
30
0
0
VERTEX
8
0
10
35.7502386095343
20
16.720252413134
30
0
0
VERTEX
8
0
10
36.3932285125835
20
17.2608000440183
30
0
0
VERTEX
8
0
10
37.0362184156327
20
17.6010234330144
30
0
0
VERTEX
8
0
10
37.6792083186818
20
17.9221993841586
30
0
0
VERTEX
8
0
10
38.322198221731
20
18.245808280754
30
0
0
VERTEX
8
0
10
38.9651881247802
20
18.5598760812808
30
0
0
VERTEX
8
0
10
39.6081780278294
20
18.8631638734498
30
0
0
VERTEX
8
0
10
40.2511679308785
20
19.1611344241576
30
0
0
VERTEX
8
0
10
40.8941578339277
20
19.4512499134306
30
0
0
VERTEX
8
0
10
41.5371477369769
20
19.7499703085642
30
0
0
VERTEX
8
0
10
42.1801376400261
20
20.0026932650392
30
0
0
VERTEX
8
0
10
42.8231275430752
20
20.2291960795088
30
0
0
VERTEX
8
0
10
43.4661174461244
20
20.471477789407
30
0
0
VERTEX
8
0
10
44.1091073491736
20
20.6987772322627
30
0
0
VERTEX
8
0
10
44.7520972522228
20
20.9272419408323
30
0
0
VERTEX
8
0
10
45.3950871552719
20
21.1550056524746
30
0
0
VERTEX
8
0
10
46.0380770583211
20
21.3741647667954
30
0
0
VERTEX
8
0
10
46.6810669613703
20
21.6019002301382
30
0
0
VERTEX
8
0
10
47.3240568644195
20
21.8304449399174
30
0
0
VERTEX
8
0
10
47.9670467674687
20
22.1130872104601
30
0
0
VERTEX
8
0
10
48.6100366705178
20
22.3852728621574
30
0
0
VERTEX
8
0
10
49.253026573567
20
22.6548045778355
30
0
0
VERTEX
8
0
10
49.8960164766162
20
22.9181269038222
30
0
0
VERTEX
8
0
10
50.5390063796654
20
23.2198651504164
30
0
0
VERTEX
8
0
10
51.1819962827145
20
23.4995436547407
30
0
0
VERTEX
8
0
10
51.8249861857637
20
23.7859789597689
30
0
0
VERTEX
8
0
10
52.4679760888129
20
24.0755293248029
30
0
0
VERTEX
8
0
10
53.1109659918621
20
24.4315150061344
30
0
0
VERTEX
8
0
10
53.7539558949112
20
24.7798248565713
30
0
0
VERTEX
8
0
10
54.3969457979604
20
25.1284821931106
30
0
0
VERTEX
8
0
10
55.0399357010096
20
25.4694865182609
30
0
0
VERTEX
8
0
10
55.6829256040588
20
25.9258342554105
30
0
0
VERTEX
8
0
10
56.325915507108
20
26.3663284561201
30
0
0
VERTEX
8
0
10
56.9689054101571
20
26.8022173669364
30
0
0
VERTEX
8
0
10
57.6118953132063
20
27.2554690253282
30
0
0
VERTEX
8
0
10
58.2548852162555
20
27.667971870549
30
0
0
VERTEX
8
0
10
58.8978751193047
20
28.0896988854208
30
0
0
VERTEX
8
0
10
59.5408650223538
20
28.5154359481378
30
0
0
VERTEX
8
0
10
60.183854925403
20
28.9328991333635
30
0
0
VERTEX
8
0
10
60.8268448284522
20
29.2537615673934
30
0
0
VERTEX
8
0
10
61.4698347315014
20
29.570613894784
30
0
0
VERTEX
8
0
10
62.1128246345505
20
29.8799712021609
30
0
0
VERTEX
8
0
10
62.7558145375997
20
30.1988989160018
30
0
0
VERTEX
8
0
10
63.3988044406489
20
30.5025789996439
30
0
0
VERTEX
8
0
10
64.0417943436981
20
30.798150078513
30
0
0
VERTEX
8
0
10
64.6847842467472
20
31.1099148428904
30
0
0
VERTEX
8
0
10
65.3277741497964
20
31.406086181681
30
0
0
VERTEX
8
0
10
65.9707640528456
20
31.695859338017
30
0
0
VERTEX
8
0
10
66.6137539558948
20
31.9847389203208
30
0
0
VERTEX
8
0
10
67.2567438589439
20
32.2645219552862
30
0
0
VERTEX
8
0
10
67.8997337619931
20
32.5528523237234
30
0
0
VERTEX
8
0
10
68.5427236650423
20
32.8312009800355
30
0
0
VERTEX
8
0
10
69.1857135680915
20
33.0963948009022
30
0
0
VERTEX
8
0
10
69.8287034711407
20
33.3716768642138
30
0
0
VERTEX
8
0
10
70.4716933741898
20
33.6446019645623
30
0
0
VERTEX
8
0
10
71.114683277239
20
33.945555609797
30
0
0
VERTEX
8
0
10
71.7576731802882
20
34.2911162563056
30
0
0
VERTEX
8
0
10
72.4006630833374
20
34.6204171292863
30
0
0
VERTEX
8
0
10
73.0436529863865
20
34.9568058211177
30
0
0
VERTEX
8
0
10
73.6866428894357
20
35.2964871465746
30
0
0
VERTEX
8
0
10
74.3296327924849
20
35.6937779431045
30
0
0
VERTEX
8
0
10
74.9726226955341
20
36.0789546755962
30
0
0
VERTEX
8
0
10
75.6156125985832
20
36.4644953116081
30
0
0
VERTEX
8
0
10
76.2586025016324
20
36.8421104717203
30
0
0
VERTEX
8
0
10
76.9015924046816
20
37.3230621089849
30
0
0
VERTEX
8
0
10
77.5445823077308
20
37.7781456682987
30
0
0
VERTEX
8
0
10
78.1875722107799
20
38.2274923366917
30
0
0
VERTEX
8
0
10
78.8305621138291
20
38.6938401492983
30
0
0
VERTEX
8
0
10
79.4735520168783
20
39.3376453381415
30
0
0
VERTEX
8
0
10
80.1165419199275
20
39.9546144364216
30
0
0
VERTEX
8
0
10
80.7595318229767
20
40.5780376370259
30
0
0
VERTEX
8
0
10
81.4025217260258
20
41.1953311238505
30
0
0
VERTEX
8
0
10
82.045511629075
20
41.825481657213
30
0
0
VERTEX
8
0
10
82.6885015321242
20
42.4581616489093
30
0
0
VERTEX
8
0
10
83.3314914351734
20
43.0858950484564
30
0
0
VERTEX
8
0
10
83.9744813382225
20
43.7253025898494
30
0
0
VERTEX
8
0
10
84.6174712412717
20
44.3087301206916
30
0
0
VERTEX
8
0
10
85.2604611443209
20
44.9036963907249
30
0
0
VERTEX
8
0
10
85.9034510473701
20
45.5151030532346
30
0
0
VERTEX
8
0
10
86.5464409504192
20
46.1127894412423
30
0
0
VERTEX
8
0
10
87.1894308534684
20
46.6951956855357
30
0
0
VERTEX
8
0
10
87.8324207565176
20
47.2864797311829
30
0
0
VERTEX
8
0
10
88.4754106595668
20
47.8698631266676
30
0
0
VERTEX
8
0
10
89.1184005626159
20
48.4612169629626
30
0
0
VERTEX
8
0
10
89.7613904656651
20
48.976055340784
30
0
0
VERTEX
8
0
10
90.4043803687143
20
49.4967300205827
30
0
0
VERTEX
8
0
10
91.0473702717635
20
50.0255199232398
30
0
0
VERTEX
8
0
10
91.6903601748127
20
50.5514736245376
30
0
0
VERTEX
8
0
10
92.3333500778618
20
51.0237391542673
30
0
0
VERTEX
8
0
10
92.976339980911
20
51.5134670466332
30
0
0
VERTEX
8
0
10
93.6193298839602
20
51.9884655668447
30
0
0
VERTEX
8
0
10
94.2623197870093
20
52.4673321758183
30
0
0
VERTEX
8
0
10
94.9053096900585
20
52.8721057141499
30
0
0
VERTEX
8
0
10
95.5482995931077
20
53.2645341637154
30
0
0
VERTEX
8
0
10
96.1912894961569
20
53.6586238725852
30
0
0
VERTEX
8
0
10
96.8342793992061
20
54.0479840322923
30
0
0
VERTEX
8
0
10
97.4772693022552
20
54.3366211247774
30
0
0
VERTEX
8
0
10
98.1202592053044
20
54.617332925819
30
0
0
VERTEX
8
0
10
98.7632491083536
20
54.8914541633145
30
0
0
VERTEX
8
0
10
99.4062390114028
20
55.1568278608754
30
0
0
VERTEX
8
0
10
100.049228914452
20
55.40228700736
30
0
0
VERTEX
8
0
10
100.692218817501
20
55.6263308331258
30
0
0
VERTEX
8
0
10
101.33520872055
20
55.85046873961
30
0
0
VERTEX
8
0
10
101.978198623599
20
56.0722294425813
30
0
0
VERTEX
8
0
10
102.621188526649
20
56.2088108364657
30
0
0
VERTEX
8
0
10
103.264178429698
20
56.3129820170043
30
0
0
VERTEX
8
0
10
103.907168332747
20
56.4135156824857
30
0
0
VERTEX
8
0
10
104.550158235796
20
56.5062219428075
30
0
0
VERTEX
8
0
10
105.193148138845
20
56.5908668814345
30
0
0
VERTEX
8
0
10
105.836138041895
20
56.6639657933622
30
0
0
VERTEX
8
0
10
106.479127944944
20
56.7305833020099
30
0
0
VERTEX
8
0
10
107.122117847993
20
56.8014841682591
30
0
0
VERTEX
8
0
10
107.765107751042
20
56.8615688494117
30
0
0
VERTEX
8
0
10
108.408097654091
20
56.8582577648564
30
0
0
VERTEX
8
0
10
109.051087557141
20
56.8740349680889
30
0
0
VERTEX
8
0
10
109.69407746019
20
56.8829218443108
30
0
0
VERTEX
8
0
10
110.337067363239
20
56.8922479725877
30
0
0
VERTEX
8
0
10
110.980057266288
20
56.8914267240939
30
0
0
VERTEX
8
0
10
111.623047169337
20
56.8868731548671
30
0
0
VERTEX
8
0
10
112.266037072386
20
56.8830487417465
30
0
0
VERTEX
8
0
10
112.909026975436
20
56.8754479596182
30
0
0
VERTEX
8
0
10
113.552016878485
20
56.8917641966899
30
0
0
VERTEX
8
0
10
114.195006781534
20
56.9040839094121
30
0
0
VERTEX
8
0
10
114.837996684583
20
56.9085974685751
30
0
0
VERTEX
8
0
10
115.480986587632
20
56.9124742716233
30
0
0
VERTEX
8
0
10
116.123976490682
20
56.9326070286233
30
0
0
VERTEX
8
0
10
116.766966393731
20
56.9447025223244
30
0
0
VERTEX
8
0
10
117.40995629678
20
56.9563185653793
30
0
0
VERTEX
8
0
10
118.052946199829
20
56.9653114422592
30
0
0
VERTEX
8
0
10
118.695936102878
20
56.9790274199071
30
0
0
VERTEX
8
0
10
119.338926005928
20
56.9917214134335
30
0
0
VERTEX
8
0
10
119.981915908977
20
57.0012887227034
30
0
0
VERTEX
8
0
10
120.624905812026
20
57.0071840010012
30
0
0
VERTEX
8
0
10
121.267895715075
20
57.0350469173779
30
0
0
VERTEX
8
0
10
121.910885618124
20
57.0581052723699
30
0
0
VERTEX
8
0
10
122.553875521173
20
57.0800498929757
30
0
0
VERTEX
8
0
10
123.196865424223
20
57.1001832666245
30
0
0
VERTEX
8
0
10
123.839855327272
20
57.1050372462102
30
0
0
VERTEX
8
0
10
124.482845230321
20
57.1072768101357
30
0
0
VERTEX
8
0
10
125.12583513337
20
57.1074497198436
30
0
0
VERTEX
8
0
10
125.768825036419
20
57.1047065870129
30
0
0
VERTEX
8
0
10
126.411814939469
20
57.0460402914211
30
0
0
VERTEX
8
0
10
127.054804842518
20
56.9691130445229
30
0
0
VERTEX
8
0
10
127.697794745567
20
56.890122037462
30
0
0
VERTEX
8
0
10
128.340784648616
20
56.8111078480815
30
0
0
VERTEX
8
0
10
128.983774551665
20
56.728302837659
30
0
0
VERTEX
8
0
10
129.626764454715
20
56.644206846923
30
0
0
VERTEX
8
0
10
130.269754357764
20
56.559070228167
30
0
0
VERTEX
8
0
10
130.912744260813
20
56.4722299007832
30
0
0
VERTEX
8
0
10
131.555734163862
20
56.388442452458
30
0
0
VERTEX
8
0
10
132.198724066911
20
56.3064075015633
30
0
0
VERTEX
8
0
10
132.84171396996
20
56.2230857004737
30
0
0
VERTEX
8
0
10
133.48470387301
20
56.1392282277081
30
0
0
VERTEX
8
0
10
134.127693776059
20
56.054439842833
30
0
0
VERTEX
8
0
10
134.770683679108
20
55.9734300788317
30
0
0
VERTEX
8
0
10
135.413673582157
20
55.8905999063611
30
0
0
VERTEX
8
0
10
136.056663485206
20
55.8068555371448
30
0
0
VERTEX
8
0
10
136.699653388256
20
55.7227148693805
30
0
0
VERTEX
8
0
10
137.342643291305
20
55.6338720968399
30
0
0
VERTEX
8
0
10
137.985633194354
20
55.5457708082262
30
0
0
VERTEX
8
0
10
138.628623097403
20
55.4574946479171
30
0
0
VERTEX
8
0
10
139.271613000452
20
55.369066664478
30
0
0
VERTEX
8
0
10
139.914602903502
20
55.2844949624259
30
0
0
VERTEX
8
0
10
140.557592806551
20
55.1991519777042
30
0
0
VERTEX
8
0
10
141.2005827096
20
55.113918540803
30
0
0
VERTEX
8
0
10
141.843572612649
20
55.0288756486729
30
0
0
VERTEX
8
0
10
142.486562515698
20
54.9405085614227
30
0
0
VERTEX
8
0
10
143.129552418747
20
54.8528976801552
30
0
0
VERTEX
8
0
10
143.772542321797
20
54.765565289041
30
0
0
VERTEX
8
0
10
144.415532224846
20
54.6785135542168
30
0
0
VERTEX
8
0
10
145.058522127895
20
54.582135298943
30
0
0
VERTEX
8
0
10
145.701512030944
20
54.4865969011126
30
0
0
VERTEX
8
0
10
146.344501933993
20
54.3914069018961
30
0
0
VERTEX
8
0
10
146.987491837043
20
54.2965671350073
30
0
0
VERTEX
8
0
10
147.630481740092
20
54.209202110586
30
0
0
VERTEX
8
0
10
148.273471643141
20
54.1225016340531
30
0
0
VERTEX
8
0
10
148.91646154619
20
54.0361024502849
30
0
0
VERTEX
8
0
10
149.559451449239
20
53.9500060068155
30
0
0
VERTEX
8
0
10
150.202441352289
20
53.9206910382287
30
0
0
VERTEX
8
0
10
150.845431255338
20
53.9014585408249
30
0
0
VERTEX
8
0
10
151.488421158387
20
53.8822413666743
30
0
0
VERTEX
8
0
10
152.131411061436
20
53.863039532178
30
0
0
VERTEX
8
0
10
152.774400964485
20
53.8387873777471
30
0
0
VERTEX
8
0
10
153.417390867534
20
53.8128418372921
30
0
0
VERTEX
8
0
10
154.060380770584
20
53.7869245218011
30
0
0
VERTEX
8
0
10
154.703370673633
20
53.7610354720946
30
0
0
SEQEND
8
0
0
ENDSEC
0
EOF
