0
SECTION
2
HEADER
9
$ACADVER
1
AC1009
0
ENDSEC
0
SECTION
2
ENTITIES
0
POLYLINE
8
0
62
0
70
1
10
0
20
0
30
0
0
VERTEX
8
0
10
0
20
0
30
0
0
VERTEX
8
0
10
0
20
107.54
30
0
0
VERTEX
8
0
10
179.2
20
107.54
30
0
0
VERTEX
8
0
10
179.2
20
0
30
0
0
SEQEND
8
0
0
TEXT
8
0
62
0
10
0
20
-12
30
0
40
8
1
0
50
0
0
LINE
8
0
62
0
10
9.18974358974359
20
0
30
0
11
9.18974358974359
21
3.2
31
0
0
LINE
8
0
62
0
10
9.18974358974359
20
107.54
30
0
11
9.18974358974359
21
104.34
31
0
0
LINE
8
0
62
0
10
18.3794871794872
20
0
30
0
11
18.3794871794872
21
3.2
31
0
0
LINE
8
0
62
0
10
18.3794871794872
20
107.54
30
0
11
18.3794871794872
21
104.34
31
0
0
LINE
8
0
62
0
10
27.5692307692308
20
0
30
0
11
27.5692307692308
21
3.2
31
0
0
LINE
8
0
62
0
10
27.5692307692308
20
107.54
30
0
11
27.5692307692308
21
104.34
31
0
0
LINE
8
0
62
0
10
36.7589743589744
20
0
30
0
11
36.7589743589744
21
3.2
31
0
0
LINE
8
0
62
0
10
36.7589743589744
20
107.54
30
0
11
36.7589743589744
21
104.34
31
0
0
LINE
8
0
62
0
10
45.9487179487179
20
0
30
0
11
45.9487179487179
21
6.4
31
0
0
LINE
8
0
62
0
10
45.9487179487179
20
107.54
30
0
11
45.9487179487179
21
101.14
31
0
0
TEXT
8
0
62
0
10
45.9487179487179
20
-12
30
0
40
8
1
5
50
0
0
LINE
8
0
62
0
10
55.1384615384615
20
0
30
0
11
55.1384615384615
21
3.2
31
0
0
LINE
8
0
62
0
10
55.1384615384615
20
107.54
30
0
11
55.1384615384615
21
104.34
31
0
0
LINE
8
0
62
0
10
64.3282051282051
20
0
30
0
11
64.3282051282051
21
3.2
31
0
0
LINE
8
0
62
0
10
64.3282051282051
20
107.54
30
0
11
64.3282051282051
21
104.34
31
0
0
LINE
8
0
62
0
10
73.5179487179487
20
0
30
0
11
73.5179487179487
21
3.2
31
0
0
LINE
8
0
62
0
10
73.5179487179487
20
107.54
30
0
11
73.5179487179487
21
104.34
31
0
0
LINE
8
0
62
0
10
82.7076923076923
20
0
30
0
11
82.7076923076923
21
3.2
31
0
0
LINE
8
0
62
0
10
82.7076923076923
20
107.54
30
0
11
82.7076923076923
21
104.34
31
0
0
LINE
8
0
62
0
10
91.8974358974359
20
0
30
0
11
91.8974358974359
21
6.4
31
0
0
LINE
8
0
62
0
10
91.8974358974359
20
107.54
30
0
11
91.8974358974359
21
101.14
31
0
0
TEXT
8
0
62
0
10
91.8974358974359
20
-12
30
0
40
8
1
10
50
0
0
LINE
8
0
62
0
10
101.087179487179
20
0
30
0
11
101.087179487179
21
3.2
31
0
0
LINE
8
0
62
0
10
101.087179487179
20
107.54
30
0
11
101.087179487179
21
104.34
31
0
0
LINE
8
0
62
0
10
110.276923076923
20
0
30
0
11
110.276923076923
21
3.2
31
0
0
LINE
8
0
62
0
10
110.276923076923
20
107.54
30
0
11
110.276923076923
21
104.34
31
0
0
LINE
8
0
62
0
10
119.466666666667
20
0
30
0
11
119.466666666667
21
3.2
31
0
0
LINE
8
0
62
0
10
119.466666666667
20
107.54
30
0
11
119.466666666667
21
104.34
31
0
0
LINE
8
0
62
0
10
128.65641025641
20
0
30
0
11
128.65641025641
21
3.2
31
0
0
LINE
8
0
62
0
10
128.65641025641
20
107.54
30
0
11
128.65641025641
21
104.34
31
0
0
LINE
8
0
62
0
10
137.846153846154
20
0
30
0
11
137.846153846154
21
6.4
31
0
0
LINE
8
0
62
0
10
137.846153846154
20
107.54
30
0
11
137.846153846154
21
101.14
31
0
0
TEXT
8
0
62
0
10
137.846153846154
20
-12
30
0
40
8
1
15
50
0
0
LINE
8
0
62
0
10
147.035897435897
20
0
30
0
11
147.035897435897
21
3.2
31
0
0
LINE
8
0
62
0
10
147.035897435897
20
107.54
30
0
11
147.035897435897
21
104.34
31
0
0
LINE
8
0
62
0
10
156.225641025641
20
0
30
0
11
156.225641025641
21
3.2
31
0
0
LINE
8
0
62
0
10
156.225641025641
20
107.54
30
0
11
156.225641025641
21
104.34
31
0
0
LINE
8
0
62
0
10
165.415384615385
20
0
30
0
11
165.415384615385
21
3.2
31
0
0
LINE
8
0
62
0
10
165.415384615385
20
107.54
30
0
11
165.415384615385
21
104.34
31
0
0
LINE
8
0
62
0
10
174.605128205128
20
0
30
0
11
174.605128205128
21
3.2
31
0
0
LINE
8
0
62
0
10
174.605128205128
20
107.54
30
0
11
174.605128205128
21
104.34
31
0
0
TEXT
8
0
62
0
10
-4
20
-4
30
0
40
8
1
0
50
0
0
LINE
8
0
62
0
10
0
20
6.72125
30
0
11
3.2
21
6.72125
31
0
0
LINE
8
0
62
0
10
179.2
20
6.72125
30
0
11
176
21
6.72125
31
0
0
LINE
8
0
62
0
10
0
20
13.4425
30
0
11
3.2
21
13.4425
31
0
0
LINE
8
0
62
0
10
179.2
20
13.4425
30
0
11
176
21
13.4425
31
0
0
LINE
8
0
62
0
10
0
20
20.16375
30
0
11
3.2
21
20.16375
31
0
0
LINE
8
0
62
0
10
179.2
20
20.16375
30
0
11
176
21
20.16375
31
0
0
LINE
8
0
62
0
10
0
20
26.885
30
0
11
3.2
21
26.885
31
0
0
LINE
8
0
62
0
10
179.2
20
26.885
30
0
11
176
21
26.885
31
0
0
LINE
8
0
62
0
10
0
20
33.60625
30
0
11
6.4
21
33.60625
31
0
0
LINE
8
0
62
0
10
179.2
20
33.60625
30
0
11
172.8
21
33.60625
31
0
0
TEXT
8
0
62
0
10
-4
20
29.60625
30
0
40
8
1
50
50
0
0
LINE
8
0
62
0
10
0
20
40.3275
30
0
11
3.2
21
40.3275
31
0
0
LINE
8
0
62
0
10
179.2
20
40.3275
30
0
11
176
21
40.3275
31
0
0
LINE
8
0
62
0
10
0
20
47.04875
30
0
11
3.2
21
47.04875
31
0
0
LINE
8
0
62
0
10
179.2
20
47.04875
30
0
11
176
21
47.04875
31
0
0
LINE
8
0
62
0
10
0
20
53.77
30
0
11
3.2
21
53.77
31
0
0
LINE
8
0
62
0
10
179.2
20
53.77
30
0
11
176
21
53.77
31
0
0
LINE
8
0
62
0
10
0
20
60.49125
30
0
11
3.2
21
60.49125
31
0
0
LINE
8
0
62
0
10
179.2
20
60.49125
30
0
11
176
21
60.49125
31
0
0
LINE
8
0
62
0
10
0
20
67.2125
30
0
11
6.4
21
67.2125
31
0
0
LINE
8
0
62
0
10
179.2
20
67.2125
30
0
11
172.8
21
67.2125
31
0
0
TEXT
8
0
62
0
10
-4
20
63.2125
30
0
40
8
1
100
50
0
0
LINE
8
0
62
0
10
0
20
73.93375
30
0
11
3.2
21
73.93375
31
0
0
LINE
8
0
62
0
10
179.2
20
73.93375
30
0
11
176
21
73.93375
31
0
0
LINE
8
0
62
0
10
0
20
80.655
30
0
11
3.2
21
80.655
31
0
0
LINE
8
0
62
0
10
179.2
20
80.655
30
0
11
176
21
80.655
31
0
0
LINE
8
0
62
0
10
0
20
87.37625
30
0
11
3.2
21
87.37625
31
0
0
LINE
8
0
62
0
10
179.2
20
87.37625
30
0
11
176
21
87.37625
31
0
0
LINE
8
0
62
0
10
0
20
94.0975
30
0
11
3.2
21
94.0975
31
0
0
LINE
8
0
62
0
10
179.2
20
94.0975
30
0
11
176
21
94.0975
31
0
0
LINE
8
0
62
0
10
0
20
100.81875
30
0
11
6.4
21
100.81875
31
0
0
LINE
8
0
62
0
10
179.2
20
100.81875
30
0
11
172.8
21
100.81875
31
0
0
TEXT
8
0
62
0
10
-4
20
96.81875
30
0
40
8
1
150
50
0
0
TEXT
8
0
62
0
10
89.6
20
-32
30
0
40
10
1
R (kpc)
50
0
0
TEXT
8
0
62
0
10
-24
20
53.77
30
0
40
10
1
V (km/s)
50
90
0
TEXT
8
0
62
0
10
72.6
20
122.54
30
0
40
11
1
V vs. R
50
0
0
POLYLINE
8
0
62
5
70
0
10
0
20
0
30
0
0
VERTEX
8
0
10
1.83794871794872
20
8.14004043026646
30
0
0
VERTEX
8
0
10
2.75692307692308
20
10.9904299538014
30
0
0
VERTEX
8
0
10
3.67589743589744
20
13.8621009112332
30
0
0
VERTEX
8
0
10
4.59487179487179
20
16.9447149724297
30
0
0
VERTEX
8
0
10
5.51384615384615
20
19.3211302874972
30
0
0
VERTEX
8
0
10
6.43282051282051
20
22.442830599046
30
0
0
VERTEX
8
0
10
7.35179487179487
20
24.2630722739514
30
0
0
VERTEX
8
0
10
8.27076923076923
20
26.0341767986856
30
0
0
VERTEX
8
0
10
9.18974358974359
20
27.7693790787501
30
0
0
VERTEX
8
0
10
10.1087179487179
20
29.283276040459
30
0
0
VERTEX
8
0
10
11.0276923076923
20
30.7958295470311
30
0
0
VERTEX
8
0
10
11.9466666666667
20
32.0488427694322
30
0
0
VERTEX
8
0
10
12.865641025641
20
33.3611806283046
30
0
0
VERTEX
8
0
10
13.7846153846154
20
34.3115604137325
30
0
0
VERTEX
8
0
10
14.7035897435897
20
35.3532678337656
30
0
0
VERTEX
8
0
10
15.6225641025641
20
36.1855815108016
30
0
0
VERTEX
8
0
10
16.5415384615385
20
36.9827454168108
30
0
0
VERTEX
8
0
10
17.4605128205128
20
37.7799093228201
30
0
0
VERTEX
8
0
10
18.3794871794872
20
38.3643143120499
30
0
0
VERTEX
8
0
10
19.2984615384615
20
38.9451051578567
30
0
0
VERTEX
8
0
10
20.2174358974359
20
39.5258960036634
30
0
0
VERTEX
8
0
10
21.1364102564103
20
39.9254490699978
30
0
0
VERTEX
8
0
10
22.0553846153846
20
40.3430111160027
30
0
0
VERTEX
8
0
10
22.974358974359
20
40.7605731620075
30
0
0
VERTEX
8
0
10
23.8933333333333
20
40.9432826286909
30
0
0
VERTEX
8
0
10
24.8123076923077
20
41.1710437446936
30
0
0
VERTEX
8
0
10
25.7312820512821
20
41.3988048606962
30
0
0
VERTEX
8
0
10
26.6502564102564
20
41.4970841993963
30
0
0
VERTEX
8
0
10
27.5692307692308
20
41.6299448503978
30
0
0
VERTEX
8
0
10
28.4882051282051
20
41.7628055013993
30
0
0
VERTEX
8
0
10
29.4071794871795
20
41.7484673968586
30
0
0
VERTEX
8
0
10
30.3261538461539
20
41.782631564259
30
0
0
VERTEX
8
0
10
31.2451282051282
20
41.786275742115
30
0
0
VERTEX
8
0
10
32.1641025641026
20
41.7710916677149
30
0
0
VERTEX
8
0
10
33.0830769230769
20
41.7559075933147
30
0
0
VERTEX
8
0
10
34.0020512820513
20
41.6756355657055
30
0
0
VERTEX
8
0
10
34.9210256410257
20
41.5731430635043
30
0
0
VERTEX
8
0
10
35.84
20
41.4706505613031
30
0
0
VERTEX
8
0
10
36.7589743589744
20
41.338348884469
30
0
0
VERTEX
8
0
10
37.6779487179487
20
41.2016922148675
30
0
0
VERTEX
8
0
10
38.5969230769231
20
41.0650355452659
30
0
0
VERTEX
8
0
10
39.5158974358974
20
40.8980240755008
30
0
0
VERTEX
8
0
10
40.4348717948718
20
40.7309992570988
30
0
0
VERTEX
8
0
10
41.3538461538461
20
40.5639744386969
30
0
0
VERTEX
8
0
10
42.2728205128205
20
40.3541839250338
30
0
0
VERTEX
8
0
10
43.1917948717949
20
40.1491989206314
30
0
0
VERTEX
8
0
10
44.1107692307692
20
39.9442139162291
30
0
0
VERTEX
8
0
10
45.0297435897436
20
39.7106761776359
30
0
0
VERTEX
8
0
10
45.9487179487179
20
39.4829150616333
30
0
0
VERTEX
8
0
10
46.8676923076923
20
39.2551539456307
30
0
0
VERTEX
8
0
10
47.7866666666666
20
39.0116698040156
30
0
0
VERTEX
8
0
10
48.705641025641
20
38.7725206322128
30
0
0
VERTEX
8
0
10
49.6246153846154
20
38.5333714604101
30
0
0
VERTEX
8
0
10
50.5435897435897
20
38.2942222886073
30
0
0
VERTEX
8
0
10
51.4625641025641
20
38.0550731168045
30
0
0
VERTEX
8
0
10
52.3815384615384
20
37.8111050871042
30
0
0
VERTEX
8
0
10
53.3005128205128
20
37.5643638781013
30
0
0
VERTEX
8
0
10
54.2194871794871
20
37.3176226690985
30
0
0
VERTEX
8
0
10
55.1384615384615
20
37.0650981631867
30
0
0
VERTEX
8
0
10
56.0574358974358
20
36.8107649169838
30
0
0
VERTEX
8
0
10
56.9764102564102
20
36.5564316707808
30
0
0
VERTEX
8
0
10
57.8953846153846
20
36.3020984245779
30
0
0
VERTEX
8
0
10
58.8143589743589
20
36.0477651783749
30
0
0
VERTEX
8
0
10
59.7333333333333
20
35.793431932172
30
0
0
VERTEX
8
0
10
60.6523076923076
20
35.5468108609006
30
0
0
VERTEX
8
0
10
61.571282051282
20
35.3000696518978
30
0
0
VERTEX
8
0
10
62.4902564102563
20
35.0533284428949
30
0
0
VERTEX
8
0
10
63.4092307692307
20
34.8196021548065
30
0
0
VERTEX
8
0
10
64.328205128205
20
34.5842490016038
30
0
0
VERTEX
8
0
10
65.2471794871794
20
34.348895848401
30
0
0
VERTEX
8
0
10
66.1661538461537
20
34.1231837481526
30
0
0
VERTEX
8
0
10
67.0851282051281
20
33.89542263215
30
0
0
VERTEX
8
0
10
68.0041025641025
20
33.6676615161473
30
0
0
VERTEX
8
0
10
68.9230769230768
20
33.4399004001447
30
0
0
VERTEX
8
0
10
69.8420512820512
20
33.212139284142
30
0
0
VERTEX
8
0
10
70.7610256410255
20
32.9823892212509
30
0
0
VERTEX
8
0
10
71.6799999999999
20
32.7508320866483
30
0
0
VERTEX
8
0
10
72.5989743589742
20
32.5192749520456
30
0
0
VERTEX
8
0
10
73.5179487179486
20
32.2852466510488
30
0
0
VERTEX
8
0
10
74.436923076923
20
32.049893497846
30
0
0
VERTEX
8
0
10
75.3558974358973
20
31.8145403446433
30
0
0
VERTEX
8
0
10
76.2748717948717
20
31.6028142786391
30
0
0
VERTEX
8
0
10
77.193846153846
20
31.3978292742367
30
0
0
VERTEX
8
0
10
78.1128205128204
20
31.1928442698343
30
0
0
VERTEX
8
0
10
79.0317948717947
20
31.0016016870539
30
0
0
VERTEX
8
0
10
79.9507692307691
20
30.8118007570517
30
0
0
VERTEX
8
0
10
80.8697435897435
20
30.6219998270495
30
0
0
VERTEX
8
0
10
81.7887179487178
20
30.424363247225
30
0
0
VERTEX
8
0
10
82.7076923076922
20
30.2269702800227
30
0
0
VERTEX
8
0
10
83.6266666666665
20
30.0295773128204
30
0
0
VERTEX
8
0
10
84.5456410256409
20
29.8497845232855
30
0
0
VERTEX
8
0
10
85.4646153846152
20
29.6675756304834
30
0
0
VERTEX
8
0
10
86.3835897435896
20
29.4853667376813
30
0
0
VERTEX
8
0
10
87.3025641025639
20
29.2885110531116
30
0
0
VERTEX
8
0
10
88.2215384615383
20
29.0949141045093
30
0
0
VERTEX
8
0
10
89.1405128205126
20
28.9013171559071
30
0
0
VERTEX
8
0
10
90.059487179487
20
28.7291781410176
30
0
0
VERTEX
8
0
10
90.9784615384614
20
28.5507652668155
30
0
0
VERTEX
8
0
10
91.8974358974357
20
28.3826058142826
30
0
0
VERTEX
8
0
10
92.8164102564101
20
28.2231730330808
30
0
0
VERTEX
8
0
10
93.7353846153844
20
28.0637402518789
30
0
0
VERTEX
8
0
10
94.6543589743588
20
27.9043074706771
30
0
0
VERTEX
8
0
10
95.5733333333331
20
27.7448746894752
30
0
0
VERTEX
8
0
10
96.4923076923075
20
27.5854419082734
30
0
0
VERTEX
8
0
10
97.4112820512818
20
27.4290242504167
30
0
0
VERTEX
8
0
10
98.3302564102562
20
27.2733874878149
30
0
0
VERTEX
8
0
10
99.2492307692306
20
27.1177507252131
30
0
0
VERTEX
8
0
10
100.168205128205
20
26.9551192769096
30
0
0
VERTEX
8
0
10
101.087179487179
20
26.7918904771077
30
0
0
VERTEX
8
0
10
102.006153846154
20
26.6286616773058
30
0
0
VERTEX
8
0
10
102.925128205128
20
26.4853306892865
30
0
0
VERTEX
8
0
10
103.844102564102
20
26.3410819824849
30
0
0
VERTEX
8
0
10
104.763076923077
20
26.1968332756832
30
0
0
VERTEX
8
0
10
105.682051282051
20
26.0748934781925
30
0
0
VERTEX
8
0
10
106.601025641025
20
25.9496248643911
30
0
0
VERTEX
8
0
10
107.52
20
25.8243562505896
30
0
0
VERTEX
8
0
10
108.438974358974
20
25.7188636422597
30
0
0
VERTEX
8
0
10
109.357948717948
20
25.6087791028584
30
0
0
VERTEX
8
0
10
110.276923076923
20
25.4986945634572
30
0
0
VERTEX
8
0
10
111.195897435897
20
25.3614789196881
30
0
0
VERTEX
8
0
10
112.114871794872
20
25.2324142872866
30
0
0
VERTEX
8
0
10
113.033846153846
20
25.1139117637811
30
0
0
VERTEX
8
0
10
113.95282051282
20
25.0038272243798
30
0
0
VERTEX
8
0
10
114.871794871795
20
24.8937426849785
30
0
0
VERTEX
8
0
10
115.790769230769
20
24.7784688630075
30
0
0
VERTEX
8
0
10
116.709743589743
20
24.6607922864061
30
0
0
VERTEX
8
0
10
117.628717948718
20
24.5431157098048
30
0
0
VERTEX
8
0
10
118.547692307692
20
24.4377465763656
30
0
0
VERTEX
8
0
10
119.466666666666
20
24.3352540741644
30
0
0
VERTEX
8
0
10
120.385641025641
20
24.2327615719632
30
0
0
VERTEX
8
0
10
121.304615384615
20
24.1338281500582
30
0
0
VERTEX
8
0
10
122.223589743589
20
24.0351316664571
30
0
0
VERTEX
8
0
10
123.142564102564
20
23.9364351828559
30
0
0
VERTEX
8
0
10
124.061538461538
20
23.8377386992548
30
0
0
VERTEX
8
0
10
124.980512820513
20
23.7390422156536
30
0
0
VERTEX
8
0
10
125.899487179487
20
23.6403457320525
30
0
0
VERTEX
8
0
10
126.818461538461
20
23.5506962870665
30
0
0
VERTEX
8
0
10
127.737435897436
20
23.4595918406654
30
0
0
VERTEX
8
0
10
128.65641025641
20
23.3684873942644
30
0
0
VERTEX
8
0
10
129.575384615384
20
23.2673714702368
30
0
0
VERTEX
8
0
10
130.494358974359
20
23.1686749866357
30
0
0
VERTEX
8
0
10
131.413333333333
20
23.0699785030345
30
0
0
VERTEX
8
0
10
132.332307692307
20
22.9767699777523
30
0
0
VERTEX
8
0
10
133.251282051282
20
22.8818695127512
30
0
0
VERTEX
8
0
10
134.170256410256
20
22.7934915254238
30
0
0
VERTEX
8
0
10
135.08923076923
20
22.7099791162228
30
0
0
VERTEX
8
0
10
136.008205128205
20
22.6264667070218
30
0
0
VERTEX
8
0
10
136.927179487179
20
22.5402979190906
30
0
0
VERTEX
8
0
10
137.846153846153
20
22.4529894912896
30
0
0
VERTEX
8
0
10
138.765128205128
20
22.3656810634886
30
0
0
VERTEX
8
0
10
139.684102564102
20
22.2783726356876
30
0
0
VERTEX
8
0
10
140.603076923077
20
22.1910642078866
30
0
0
VERTEX
8
0
10
141.522051282051
20
22.1037557800856
30
0
0
VERTEX
8
0
10
142.441025641025
20
22.0164473522846
30
0
0
VERTEX
8
0
10
143.36
20
21.9291389244836
30
0
0
VERTEX
8
0
10
144.278974358974
20
21.8418304966825
30
0
0
VERTEX
8
0
10
145.197948717948
20
21.7709342178706
30
0
0
VERTEX
8
0
10
146.116923076923
20
21.6988098644697
30
0
0
VERTEX
8
0
10
147.035897435897
20
21.6266855110689
30
0
0
VERTEX
8
0
10
147.954871794871
20
21.5453906441622
30
0
0
VERTEX
8
0
10
148.873846153846
20
21.4656742535613
30
0
0
VERTEX
8
0
10
149.79282051282
20
21.3859578629603
30
0
0
VERTEX
8
0
10
150.711794871795
20
21.3214439011352
30
0
0
VERTEX
8
0
10
151.630769230769
20
21.2531155663344
30
0
0
VERTEX
8
0
10
152.549743589743
20
21.1847872315336
30
0
0
VERTEX
8
0
10
153.468717948718
20
21.1053595052043
30
0
0
VERTEX
8
0
10
154.387692307692
20
21.0294391332034
30
0
0
VERTEX
8
0
10
155.306666666666
20
20.9579905545423
30
0
0
VERTEX
8
0
10
156.225641025641
20
20.8896622197415
30
0
0
VERTEX
8
0
10
157.144615384615
20
20.8213338849408
30
0
0
VERTEX
8
0
10
158.063589743589
20
20.7584417824911
30
0
0
VERTEX
8
0
10
158.982564102564
20
20.6977054848904
30
0
0
VERTEX
8
0
10
159.901538461538
20
20.6369691872897
30
0
0
VERTEX
8
0
10
160.820512820513
20
20.5730325540078
30
0
0
VERTEX
8
0
10
161.739487179487
20
20.508500237807
30
0
0
VERTEX
8
0
10
162.658461538461
20
20.4439679216063
30
0
0
VERTEX
8
0
10
163.577435897436
20
20.3794356054055
30
0
0
VERTEX
8
0
10
164.49641025641
20
20.3149032892048
30
0
0
VERTEX
8
0
10
165.415384615384
20
20.250370973004
30
0
0
VERTEX
8
0
10
166.334358974359
20
20.1983329808811
30
0
0
VERTEX
8
0
10
167.253333333333
20
20.1451887204805
30
0
0
VERTEX
8
0
10
168.172307692308
20
20.0920444600799
30
0
0
VERTEX
8
0
10
169.091282051282
20
20.0435471938776
30
0
0
VERTEX
8
0
10
170.010256410256
20
19.994198952077
30
0
0
VERTEX
8
0
10
170.929230769231
20
19.9448507102764
30
0
0
VERTEX
8
0
10
171.848205128205
20
19.8173674463854
30
0
0
SEQEND
8
0
0
POLYLINE
8
0
62
6
70
0
10
0
20
0
30
0
0
VERTEX
8
0
10
1.83794871794872
20
1.35930488588839
30
0
0
VERTEX
8
0
10
2.75692307692308
20
1.74270276449284
30
0
0
VERTEX
8
0
10
3.67589743589744
20
2.12610064309728
30
0
0
VERTEX
8
0
10
4.59487179487179
20
2.50949852170173
30
0
0
VERTEX
8
0
10
5.51384615384615
20
2.86717782441806
30
0
0
VERTEX
8
0
10
6.43282051282051
20
3.20502347982198
30
0
0
VERTEX
8
0
10
7.35179487179487
20
3.5428691352259
30
0
0
VERTEX
8
0
10
8.27076923076923
20
3.88859109311887
30
0
0
VERTEX
8
0
10
9.18974358974359
20
4.23782480432292
30
0
0
VERTEX
8
0
10
10.1087179487179
20
4.58705851552697
30
0
0
VERTEX
8
0
10
11.0276923076923
20
5.00776826111102
30
0
0
VERTEX
8
0
10
11.9466666666667
20
5.44431040011608
30
0
0
VERTEX
8
0
10
12.865641025641
20
5.88085253912115
30
0
0
VERTEX
8
0
10
13.7846153846154
20
6.4932984636704
30
0
0
VERTEX
8
0
10
14.7035897435897
20
7.11584551407762
30
0
0
VERTEX
8
0
10
15.6225641025641
20
7.73839256448484
30
0
0
VERTEX
8
0
10
16.5415384615385
20
8.4505256538531
30
0
0
VERTEX
8
0
10
17.4605128205128
20
9.15658511346129
30
0
0
VERTEX
8
0
10
18.3794871794872
20
9.86264457306948
30
0
0
VERTEX
8
0
10
19.2984615384615
20
10.7221192917339
30
0
0
VERTEX
8
0
10
20.2174358974359
20
11.5560503493264
30
0
0
VERTEX
8
0
10
21.1364102564103
20
12.3899814069189
30
0
0
VERTEX
8
0
10
22.0553846153846
20
13.2679597242562
30
0
0
VERTEX
8
0
10
22.974358974359
20
14.1321143204167
30
0
0
VERTEX
8
0
10
23.8933333333333
20
14.9203237918119
30
0
0
VERTEX
8
0
10
24.8123076923077
20
15.6782621722873
30
0
0
VERTEX
8
0
10
25.7312820512821
20
16.4362005527628
30
0
0
VERTEX
8
0
10
26.6502564102564
20
17.1163600669361
30
0
0
VERTEX
8
0
10
27.5692307692308
20
17.7819286614772
30
0
0
VERTEX
8
0
10
28.4882051282051
20
18.4474972560183
30
0
0
VERTEX
8
0
10
29.4071794871795
20
18.9236854925072
30
0
0
VERTEX
8
0
10
30.3261538461539
20
19.3938294257868
30
0
0
VERTEX
8
0
10
31.2451282051282
20
19.8639733590663
30
0
0
VERTEX
8
0
10
32.1641025641026
20
20.2870986257521
30
0
0
VERTEX
8
0
10
33.0830769230769
20
20.7162976468095
30
0
0
VERTEX
8
0
10
34.0020512820513
20
21.145496667867
30
0
0
VERTEX
8
0
10
34.9210256410257
20
21.4137853717794
30
0
0
VERTEX
8
0
10
35.84
20
21.6757106551824
30
0
0
VERTEX
8
0
10
36.7589743589744
20
21.9376359385854
30
0
0
VERTEX
8
0
10
37.6779487179487
20
22.1798107002782
30
0
0
VERTEX
8
0
10
38.5969230769231
20
22.4235994503699
30
0
0
VERTEX
8
0
10
39.5158974358974
20
22.6673882004616
30
0
0
VERTEX
8
0
10
40.4348717948718
20
22.8260364795799
30
0
0
VERTEX
8
0
10
41.3538461538461
20
22.9998097754931
30
0
0
VERTEX
8
0
10
42.2728205128205
20
23.1735830714062
30
0
0
VERTEX
8
0
10
43.1917948717949
20
23.399472007384
30
0
0
VERTEX
8
0
10
44.1107692307692
20
23.6120490489865
30
0
0
VERTEX
8
0
10
45.0297435897436
20
23.8246260905889
30
0
0
VERTEX
8
0
10
45.9487179487179
20
24.0283673585075
30
0
0
VERTEX
8
0
10
46.8676923076923
20
24.2349340373266
30
0
0
VERTEX
8
0
10
47.7866666666666
20
24.4415007161456
30
0
0
VERTEX
8
0
10
48.705641025641
20
24.6491456007673
30
0
0
VERTEX
8
0
10
49.6246153846154
20
24.8567667291975
30
0
0
VERTEX
8
0
10
50.5435897435897
20
25.0643878576276
30
0
0
VERTEX
8
0
10
51.4625641025641
20
25.324979436083
30
0
0
VERTEX
8
0
10
52.3815384615384
20
25.5766765582581
30
0
0
VERTEX
8
0
10
53.3005128205128
20
25.8283736804333
30
0
0
VERTEX
8
0
10
54.2194871794871
20
26.1243197876356
30
0
0
VERTEX
8
0
10
55.1384615384615
20
26.4080566205356
30
0
0
VERTEX
8
0
10
56.0574358974358
20
26.6917934534356
30
0
0
VERTEX
8
0
10
56.9764102564102
20
26.9721475868397
30
0
0
VERTEX
8
0
10
57.8953846153846
20
27.253052963243
30
0
0
VERTEX
8
0
10
58.8143589743589
20
27.5339583396463
30
0
0
VERTEX
8
0
10
59.7333333333333
20
27.8589041724198
30
0
0
VERTEX
8
0
10
60.6523076923076
20
28.1731301565345
30
0
0
VERTEX
8
0
10
61.571282051282
20
28.4873561406493
30
0
0
VERTEX
8
0
10
62.4902564102563
20
28.7985268543823
30
0
0
VERTEX
8
0
10
63.4092307692307
20
29.1106439392748
30
0
0
VERTEX
8
0
10
64.328205128205
20
29.4200896282207
30
0
0
VERTEX
8
0
10
65.2471794871794
20
29.7275671348242
30
0
0
VERTEX
8
0
10
66.1661538461537
20
30.0350446414278
30
0
0
VERTEX
8
0
10
67.0851282051281
20
30.3506133416904
30
0
0
VERTEX
8
0
10
68.0041025641025
20
30.6696033637204
30
0
0
VERTEX
8
0
10
68.9230769230768
20
30.9885933857503
30
0
0
VERTEX
8
0
10
69.8420512820512
20
31.2981890852707
30
0
0
VERTEX
8
0
10
70.7610256410255
20
31.5989884110038
30
0
0
VERTEX
8
0
10
71.6799999999999
20
31.8997877367369
30
0
0
VERTEX
8
0
10
72.5989743589742
20
32.2263603531621
30
0
0
VERTEX
8
0
10
73.5179487179486
20
32.564206008566
30
0
0
VERTEX
8
0
10
74.436923076923
20
32.9020516639699
30
0
0
VERTEX
8
0
10
75.3558974358973
20
33.1594768261022
30
0
0
VERTEX
8
0
10
76.2748717948717
20
33.3995750025549
30
0
0
VERTEX
8
0
10
77.193846153846
20
33.6396731790077
30
0
0
VERTEX
8
0
10
78.1128205128204
20
33.7719477414232
30
0
0
VERTEX
8
0
10
79.0317948717947
20
33.8554601506242
30
0
0
VERTEX
8
0
10
79.9507692307691
20
33.9389725598252
30
0
0
VERTEX
8
0
10
80.8697435897435
20
34.0220308706487
30
0
0
VERTEX
8
0
10
81.7887179487178
20
34.104986530455
30
0
0
VERTEX
8
0
10
82.7076923076922
20
34.1879421902613
30
0
0
VERTEX
8
0
10
83.6266666666665
20
34.294585018523
30
0
0
VERTEX
8
0
10
84.5456410256409
20
34.4008254884559
30
0
0
VERTEX
8
0
10
85.4646153846152
20
34.5070659583888
30
0
0
VERTEX
8
0
10
86.3835897435896
20
34.5971155706224
30
0
0
VERTEX
8
0
10
87.3025641025639
20
34.6882200170235
30
0
0
VERTEX
8
0
10
88.2215384615383
20
34.7793244634245
30
0
0
VERTEX
8
0
10
89.1405128205126
20
34.8173932770641
30
0
0
VERTEX
8
0
10
90.059487179487
20
34.8641803496887
30
0
0
VERTEX
8
0
10
90.9784615384614
20
34.9109674223134
30
0
0
VERTEX
8
0
10
91.8974358974357
20
34.8099115379876
30
0
0
VERTEX
8
0
10
92.8164102564101
20
34.7222823198823
30
0
0
VERTEX
8
0
10
93.7353846153844
20
34.6346531017771
30
0
0
VERTEX
8
0
10
94.6543589743588
20
34.5195335707099
30
0
0
VERTEX
8
0
10
95.5733333333331
20
34.4129558294439
30
0
0
VERTEX
8
0
10
96.4923076923075
20
34.2998918779297
30
0
0
VERTEX
8
0
10
97.4112820512818
20
34.1841581454937
30
0
0
VERTEX
8
0
10
98.3302564102562
20
34.0684244130577
30
0
0
VERTEX
8
0
10
99.2492307692306
20
33.9526906806217
30
0
0
VERTEX
8
0
10
100.168205128205
20
33.8688796093939
30
0
0
VERTEX
8
0
10
101.087179487179
20
33.776088043615
30
0
0
VERTEX
8
0
10
102.006153846154
20
33.6794655452927
30
0
0
VERTEX
8
0
10
102.925128205128
20
33.5799613981596
30
0
0
VERTEX
8
0
10
103.844102564102
20
33.4804572510265
30
0
0
VERTEX
8
0
10
104.763076923077
20
33.3820679614035
30
0
0
VERTEX
8
0
10
105.682051282051
20
33.2838865509581
30
0
0
VERTEX
8
0
10
106.601025641025
20
33.1857051405127
30
0
0
VERTEX
8
0
10
107.52
20
33.0958198924117
30
0
0
VERTEX
8
0
10
108.438974358974
20
33.0091560715428
30
0
0
VERTEX
8
0
10
109.357948717948
20
32.9224922506739
30
0
0
VERTEX
8
0
10
110.276923076923
20
32.8010227983608
30
0
0
VERTEX
8
0
10
111.195897435897
20
32.6777910725887
30
0
0
VERTEX
8
0
10
112.114871794872
20
32.5545593468165
30
0
0
VERTEX
8
0
10
113.033846153846
20
32.4850898783242
30
0
0
VERTEX
8
0
10
113.95282051282
20
32.4040337164527
30
0
0
VERTEX
8
0
10
114.871794871795
20
32.3229775545812
30
0
0
VERTEX
8
0
10
115.790769230769
20
32.2180845017024
30
0
0
VERTEX
8
0
10
116.709743589743
20
32.1117959809012
30
0
0
VERTEX
8
0
10
117.628717948718
20
32.0055074600999
30
0
0
VERTEX
8
0
10
118.547692307692
20
31.8820363526767
30
0
0
VERTEX
8
0
10
119.466666666666
20
31.7597152356706
30
0
0
VERTEX
8
0
10
120.385641025641
20
31.6373941186645
30
0
0
VERTEX
8
0
10
121.304615384615
20
31.5552813047598
30
0
0
VERTEX
8
0
10
122.223589743589
20
31.4639682859082
30
0
0
VERTEX
8
0
10
123.142564102564
20
31.3726552670566
30
0
0
VERTEX
8
0
10
124.061538461538
20
31.2715532934214
30
0
0
VERTEX
8
0
10
124.980512820513
20
31.1728568098202
30
0
0
VERTEX
8
0
10
125.899487179487
20
31.0741603262191
30
0
0
VERTEX
8
0
10
126.818461538461
20
31.0062944566228
30
0
0
VERTEX
8
0
10
127.737435897436
20
30.9288190890508
30
0
0
VERTEX
8
0
10
128.65641025641
20
30.8513437214788
30
0
0
VERTEX
8
0
10
129.575384615384
20
30.733782956987
30
0
0
VERTEX
8
0
10
130.494358974359
20
30.6267459254759
30
0
0
VERTEX
8
0
10
131.413333333333
20
30.5045721866339
30
0
0
VERTEX
8
0
10
132.332307692307
20
30.37612214772
30
0
0
VERTEX
8
0
10
133.251282051282
20
30.2476721088062
30
0
0
VERTEX
8
0
10
134.170256410256
20
30.0987085951082
30
0
0
VERTEX
8
0
10
135.08923076923
20
29.9489903908683
30
0
0
VERTEX
8
0
10
136.008205128205
20
29.7992721866284
30
0
0
VERTEX
8
0
10
136.927179487179
20
29.6596661371381
30
0
0
VERTEX
8
0
10
137.846153846153
20
29.5281785141409
30
0
0
VERTEX
8
0
10
138.765128205128
20
29.3966908911436
30
0
0
VERTEX
8
0
10
139.684102564102
20
29.2563884816114
30
0
0
VERTEX
8
0
10
140.603076923077
20
29.1142396999928
30
0
0
VERTEX
8
0
10
141.522051282051
20
28.9720909183741
30
0
0
VERTEX
8
0
10
142.441025641025
20
28.8458596150382
30
0
0
VERTEX
8
0
10
143.36
20
28.7181951534318
30
0
0
VERTEX
8
0
10
144.278974358974
20
28.5905306918254
30
0
0
VERTEX
8
0
10
145.197948717948
20
28.4578438889144
30
0
0
VERTEX
8
0
10
146.116923076923
20
28.3211872193128
30
0
0
VERTEX
8
0
10
147.035897435897
20
28.1845305497112
30
0
0
VERTEX
8
0
10
147.954871794871
20
28.0438488696897
30
0
0
VERTEX
8
0
10
148.873846153846
20
27.9013210246534
30
0
0
VERTEX
8
0
10
149.79282051282
20
27.7587931796171
30
0
0
VERTEX
8
0
10
150.711794871795
20
27.639549931805
30
0
0
VERTEX
8
0
10
151.630769230769
20
27.5232668303859
30
0
0
VERTEX
8
0
10
152.549743589743
20
27.4069837289669
30
0
0
VERTEX
8
0
10
153.468717948718
20
27.2715572076779
30
0
0
VERTEX
8
0
10
154.387692307692
20
27.1349005380763
30
0
0
VERTEX
8
0
10
155.306666666666
20
26.9982438684748
30
0
0
VERTEX
8
0
10
156.225641025641
20
26.8571504892753
30
0
0
VERTEX
8
0
10
157.144615384615
20
26.7163343524843
30
0
0
VERTEX
8
0
10
158.063589743589
20
26.5755182156933
30
0
0
VERTEX
8
0
10
158.982564102564
20
26.4679990308443
30
0
0
VERTEX
8
0
10
159.901538461538
20
26.3605531872991
30
0
0
VERTEX
8
0
10
160.820512820513
20
26.253107343754
30
0
0
VERTEX
8
0
10
161.739487179487
20
26.1126686425517
30
0
0
VERTEX
8
0
10
162.658461538461
20
25.9802418222473
30
0
0
VERTEX
8
0
10
163.577435897436
20
25.8553776338529
30
0
0
VERTEX
8
0
10
164.49641025641
20
25.7360272222782
30
0
0
VERTEX
8
0
10
165.415384615384
20
25.6166768107036
30
0
0
VERTEX
8
0
10
166.334358974359
20
25.497326399129
30
0
0
VERTEX
8
0
10
167.253333333333
20
25.4095257929957
30
0
0
VERTEX
8
0
10
168.172307692308
20
25.3151877011205
30
0
0
VERTEX
8
0
10
169.091282051282
20
25.2208496092454
30
0
0
VERTEX
8
0
10
170.010256410256
20
25.1151217179073
30
0
0
VERTEX
8
0
10
170.929230769231
20
25.0128775533715
30
0
0
VERTEX
8
0
10
171.848205128205
20
24.8919053404655
30
0
0
SEQEND
8
0
0
POLYLINE
8
0
62
6
70
0
10
0
20
0
30
0
0
VERTEX
8
0
10
1.83794871794872
20
14.662851846247
30
0
0
VERTEX
8
0
10
2.75692307692308
20
16.9594430992736
30
0
0
VERTEX
8
0
10
3.67589743589744
20
18.2558126513317
30
0
0
VERTEX
8
0
10
4.59487179487179
20
19.3748789346247
30
0
0
VERTEX
8
0
10
5.51384615384615
20
20.4466215193705
30
0
0
VERTEX
8
0
10
6.43282051282051
20
20.8350114458786
30
0
0
VERTEX
8
0
10
7.35179487179487
20
21.3756701712332
30
0
0
VERTEX
8
0
10
8.27076923076923
20
21.554908828982
30
0
0
VERTEX
8
0
10
9.18974358974359
20
21.7978540193848
30
0
0
VERTEX
8
0
10
10.1087179487179
20
22.0407992097876
30
0
0
VERTEX
8
0
10
11.0276923076923
20
22.0343082834374
30
0
0
VERTEX
8
0
10
11.9466666666667
20
22.091248562438
30
0
0
VERTEX
8
0
10
12.865641025641
20
22.1481888414387
30
0
0
VERTEX
8
0
10
13.7846153846154
20
22.1048195754279
30
0
0
VERTEX
8
0
10
14.7035897435897
20
22.0934315196278
30
0
0
VERTEX
8
0
10
15.6225641025641
20
22.0391233491085
30
0
0
VERTEX
8
0
10
16.5415384615385
20
21.9556109399076
30
0
0
VERTEX
8
0
10
17.4605128205128
20
21.8720985307066
30
0
0
VERTEX
8
0
10
18.3794871794872
20
21.7748802569459
30
0
0
VERTEX
8
0
10
19.2984615384615
20
21.6723877547447
30
0
0
VERTEX
8
0
10
20.2174358974359
20
21.5698952525435
30
0
0
VERTEX
8
0
10
21.1364102564103
20
21.4577325730895
30
0
0
VERTEX
8
0
10
22.0553846153846
20
21.3438520150881
30
0
0
VERTEX
8
0
10
22.974358974359
20
21.2299714570868
30
0
0
VERTEX
8
0
10
23.8933333333333
20
21.097562839469
30
0
0
VERTEX
8
0
10
24.8123076923077
20
20.9647021884675
30
0
0
VERTEX
8
0
10
25.7312820512821
20
20.831841537466
30
0
0
VERTEX
8
0
10
26.6502564102564
20
20.7282957064672
30
0
0
VERTEX
8
0
10
27.5692307692308
20
20.622007185666
30
0
0
VERTEX
8
0
10
28.4882051282051
20
20.5157186648648
30
0
0
VERTEX
8
0
10
29.4071794871795
20
20.3720697365863
30
0
0
VERTEX
8
0
10
30.3261538461539
20
20.2354130669848
30
0
0
VERTEX
8
0
10
31.2451282051282
20
20.0987563973832
30
0
0
VERTEX
8
0
10
32.1641025641026
20
19.9981656208639
30
0
0
VERTEX
8
0
10
33.0830769230769
20
19.8880810814626
30
0
0
VERTEX
8
0
10
34.0020512820513
20
19.7779965420613
30
0
0
VERTEX
8
0
10
34.9210256410257
20
19.679180982552
30
0
0
VERTEX
8
0
10
35.84
20
19.5766884803508
30
0
0
VERTEX
8
0
10
36.7589743589744
20
19.4556304513366
30
0
0
VERTEX
8
0
10
37.6779487179487
20
19.3227698003351
30
0
0
VERTEX
8
0
10
38.5969230769231
20
19.1899091493335
30
0
0
VERTEX
8
0
10
39.5158974358974
20
19.0766688708331
30
0
0
VERTEX
8
0
10
40.4348717948718
20
18.9703803500319
30
0
0
VERTEX
8
0
10
41.3538461538461
20
18.8640918292307
30
0
0
VERTEX
8
0
10
42.2728205128205
20
18.7348073993885
30
0
0
VERTEX
8
0
10
43.1917948717949
20
18.601946748387
30
0
0
VERTEX
8
0
10
44.1107692307692
20
18.4690860973855
30
0
0
VERTEX
8
0
10
45.0297435897436
20
18.3701315907018
30
0
0
VERTEX
8
0
10
45.9487179487179
20
18.2714351071007
30
0
0
VERTEX
8
0
10
46.8676923076923
20
18.1727386234996
30
0
0
VERTEX
8
0
10
47.7866666666666
20
18.0740421398984
30
0
0
VERTEX
8
0
10
48.705641025641
20
17.9753456562973
30
0
0
VERTEX
8
0
10
49.6246153846154
20
17.8766491726961
30
0
0
VERTEX
8
0
10
50.5435897435897
20
17.787416265855
30
0
0
VERTEX
8
0
10
51.4625641025641
20
17.696311819454
30
0
0
VERTEX
8
0
10
52.3815384615384
20
17.6052073730529
30
0
0
VERTEX
8
0
10
53.3005128205128
20
17.5245309424232
30
0
0
VERTEX
8
0
10
54.2194871794871
20
17.4410185332222
30
0
0
VERTEX
8
0
10
55.1384615384615
20
17.3575061240213
30
0
0
VERTEX
8
0
10
56.0574358974358
20
17.2739937148203
30
0
0
VERTEX
8
0
10
56.9764102564102
20
17.1904813056193
30
0
0
VERTEX
8
0
10
57.8953846153846
20
17.1069688964184
30
0
0
VERTEX
8
0
10
58.8143589743589
20
17.0234564872174
30
0
0
VERTEX
8
0
10
59.7333333333333
20
16.9399440780164
30
0
0
VERTEX
8
0
10
60.6523076923076
20
16.8564316688155
30
0
0
VERTEX
8
0
10
61.571282051282
20
16.7729192596145
30
0
0
VERTEX
8
0
10
62.4902564102563
20
16.6894068504135
30
0
0
VERTEX
8
0
10
63.4092307692307
20
16.6125881758293
30
0
0
VERTEX
8
0
10
64.328205128205
20
16.5366678038284
30
0
0
VERTEX
8
0
10
65.2471794871794
20
16.4607474318275
30
0
0
VERTEX
8
0
10
66.1661538461537
20
16.3924852334547
30
0
0
VERTEX
8
0
10
67.0851282051281
20
16.3241568986539
30
0
0
VERTEX
8
0
10
68.0041025641025
20
16.2558285638531
30
0
0
VERTEX
8
0
10
68.9230769230768
20
16.1788776164129
30
0
0
VERTEX
8
0
10
69.8420512820512
20
16.102957244412
30
0
0
VERTEX
8
0
10
70.7610256410255
20
16.0270368724111
30
0
0
VERTEX
8
0
10
71.6799999999999
20
15.960703552061
30
0
0
VERTEX
8
0
10
72.5989743589742
20
15.8923752172602
30
0
0
VERTEX
8
0
10
73.5179487179486
20
15.8240468824594
30
0
0
VERTEX
8
0
10
74.436923076923
20
15.7504428023276
30
0
0
VERTEX
8
0
10
75.3558974358973
20
15.6783184489267
30
0
0
VERTEX
8
0
10
76.2748717948717
20
15.6022702030525
30
0
0
VERTEX
8
0
10
77.193846153846
20
15.5225538124516
30
0
0
VERTEX
8
0
10
78.1128205128204
20
15.4428374218507
30
0
0
VERTEX
8
0
10
79.0317948717947
20
15.385118522931
30
0
0
VERTEX
8
0
10
79.9507692307691
20
15.3395662997304
30
0
0
VERTEX
8
0
10
80.8697435897435
20
15.2940140765299
30
0
0
VERTEX
8
0
10
81.7887179487178
20
15.2426090828333
30
0
0
VERTEX
8
0
10
82.7076923076922
20
15.1894648224327
30
0
0
VERTEX
8
0
10
83.6266666666665
20
15.1363205620321
30
0
0
VERTEX
8
0
10
84.5456410256409
20
15.0661332778629
30
0
0
VERTEX
8
0
10
85.4646153846152
20
14.9940089244621
30
0
0
VERTEX
8
0
10
86.3835897435896
20
14.9218845710613
30
0
0
VERTEX
8
0
10
87.3025641025639
20
14.865323514698
30
0
0
VERTEX
8
0
10
88.2215384615383
20
14.8083832356973
30
0
0
VERTEX
8
0
10
89.1405128205126
20
14.7514429566966
30
0
0
VERTEX
8
0
10
90.059487179487
20
14.7032487652261
30
0
0
VERTEX
8
0
10
90.9784615384614
20
14.6539005234255
30
0
0
VERTEX
8
0
10
91.8974358974357
20
14.604552281625
30
0
0
VERTEX
8
0
10
92.8164102564101
20
14.5406382500122
30
0
0
VERTEX
8
0
10
93.7353846153844
20
14.4799019524115
30
0
0
VERTEX
8
0
10
94.6543589743588
20
14.4191656548108
30
0
0
VERTEX
8
0
10
95.5733333333331
20
14.3744418055393
30
0
0
VERTEX
8
0
10
96.4923076923075
20
14.3250935637387
30
0
0
VERTEX
8
0
10
97.4112820512818
20
14.2818163729843
30
0
0
VERTEX
8
0
10
98.3302564102562
20
14.2438561869838
30
0
0
VERTEX
8
0
10
99.2492307692306
20
14.2058960009834
30
0
0
VERTEX
8
0
10
100.168205128205
20
14.140370879918
30
0
0
VERTEX
8
0
10
101.087179487179
20
14.0606544893171
30
0
0
VERTEX
8
0
10
102.006153846154
20
13.9809380987162
30
0
0
VERTEX
8
0
10
102.925128205128
20
13.937079180436
30
0
0
VERTEX
8
0
10
103.844102564102
20
13.9029150130356
30
0
0
VERTEX
8
0
10
104.763076923077
20
13.8687508456352
30
0
0
VERTEX
8
0
10
105.682051282051
20
13.8207053094385
30
0
0
VERTEX
8
0
10
106.601025641025
20
13.771357067638
30
0
0
VERTEX
8
0
10
107.52
20
13.7220088258374
30
0
0
VERTEX
8
0
10
108.438974358974
20
13.6726605840368
30
0
0
VERTEX
8
0
10
109.357948717948
20
13.6233123422363
30
0
0
VERTEX
8
0
10
110.276923076923
20
13.5739641004357
30
0
0
VERTEX
8
0
10
111.195897435897
20
13.5423549834768
30
0
0
VERTEX
8
0
10
112.114871794872
20
13.5081908160764
30
0
0
VERTEX
8
0
10
113.033846153846
20
13.474026648676
30
0
0
VERTEX
8
0
10
113.95282051282
20
13.4005264755468
30
0
0
VERTEX
8
0
10
114.871794871795
20
13.3359941593461
30
0
0
VERTEX
8
0
10
115.790769230769
20
13.2714618431453
30
0
0
VERTEX
8
0
10
116.709743589743
20
13.2717201696059
30
0
0
VERTEX
8
0
10
117.628717948718
20
13.2527400766057
30
0
0
VERTEX
8
0
10
118.547692307692
20
13.2045640878217
30
0
0
VERTEX
8
0
10
119.466666666666
20
13.1324397344209
30
0
0
VERTEX
8
0
10
120.385641025641
20
13.0603153810201
30
0
0
VERTEX
8
0
10
121.304615384615
20
13.0292732777486
30
0
0
VERTEX
8
0
10
122.223589743589
20
13.0178852219484
30
0
0
VERTEX
8
0
10
123.142564102564
20
13.0064971661483
30
0
0
VERTEX
8
0
10
124.061538461538
20
12.9524110684055
30
0
0
VERTEX
8
0
10
124.980512820513
20
12.8878787522048
30
0
0
VERTEX
8
0
10
125.899487179487
20
12.8233464360041
30
0
0
VERTEX
8
0
10
126.818461538461
20
12.8011990755365
30
0
0
VERTEX
8
0
10
127.737435897436
20
12.7822189825363
30
0
0
VERTEX
8
0
10
128.65641025641
20
12.7632388895361
30
0
0
VERTEX
8
0
10
129.575384615384
20
12.712144403335
30
0
0
VERTEX
8
0
10
130.494358974359
20
12.6627961615344
30
0
0
VERTEX
8
0
10
131.413333333333
20
12.6134479197338
30
0
0
VERTEX
8
0
10
132.332307692307
20
12.5820857525564
30
0
0
VERTEX
8
0
10
133.251282051282
20
12.547921585156
30
0
0
VERTEX
8
0
10
134.170256410256
20
12.5137574177556
30
0
0
VERTEX
8
0
10
135.08923076923
20
12.509465679324
30
0
0
VERTEX
8
0
10
136.008205128205
20
12.4980776235239
30
0
0
VERTEX
8
0
10
136.927179487179
20
12.4866895677237
30
0
0
VERTEX
8
0
10
137.846153846153
20
12.3879261892494
30
0
0
VERTEX
8
0
10
138.765128205128
20
12.3158018358485
30
0
0
VERTEX
8
0
10
139.684102564102
20
12.2844734953303
30
0
0
VERTEX
8
0
10
140.603076923077
20
12.2844734953303
30
0
0
VERTEX
8
0
10
141.522051282051
20
12.2844734953303
30
0
0
VERTEX
8
0
10
142.441025641025
20
12.2502915803105
30
0
0
VERTEX
8
0
10
143.36
20
12.20094333851
30
0
0
VERTEX
8
0
10
144.278974358974
20
12.1515950967094
30
0
0
VERTEX
8
0
10
145.197948717948
20
12.1146932452453
30
0
0
VERTEX
8
0
10
146.116923076923
20
12.0805290778449
30
0
0
VERTEX
8
0
10
147.035897435897
20
12.0463649104445
30
0
0
VERTEX
8
0
10
147.954871794871
20
12.0409512797625
30
0
0
VERTEX
8
0
10
148.873846153846
20
12.0371552611625
30
0
0
VERTEX
8
0
10
149.79282051282
20
12.0333592425624
30
0
0
VERTEX
8
0
10
150.711794871795
20
11.9480424920529
30
0
0
VERTEX
8
0
10
151.630769230769
20
11.868326101452
30
0
0
VERTEX
8
0
10
152.549743589743
20
11.788609710851
30
0
0
VERTEX
8
0
10
153.468717948718
20
11.8046166983743
30
0
0
VERTEX
8
0
10
154.387692307692
20
11.8046166983743
30
0
0
VERTEX
8
0
10
155.306666666666
20
11.8046166983743
30
0
0
VERTEX
8
0
10
156.225641025641
20
11.7491714666992
30
0
0
VERTEX
8
0
10
157.144615384615
20
11.7074152620987
30
0
0
VERTEX
8
0
10
158.063589743589
20
11.6656590574982
30
0
0
VERTEX
8
0
10
158.982564102564
20
11.6294255480102
30
0
0
VERTEX
8
0
10
159.901538461538
20
11.5914653620098
30
0
0
VERTEX
8
0
10
160.820512820513
20
11.5733852401726
30
0
0
VERTEX
8
0
10
161.739487179487
20
11.5695892215725
30
0
0
VERTEX
8
0
10
162.658461538461
20
11.5657932029725
30
0
0
VERTEX
8
0
10
163.577435897436
20
11.5350860291343
30
0
0
VERTEX
8
0
10
164.49641025641
20
11.4933298245338
30
0
0
VERTEX
8
0
10
165.415384615384
20
11.4515736199334
30
0
0
VERTEX
8
0
10
166.334358974359
20
11.4098174153329
30
0
0
VERTEX
8
0
10
167.253333333333
20
11.3680612107324
30
0
0
VERTEX
8
0
10
168.172307692308
20
11.3263050061319
30
0
0
VERTEX
8
0
10
169.091282051282
20
11.3247599014182
30
0
0
VERTEX
8
0
10
170.010256410256
20
11.3247599014182
30
0
0
VERTEX
8
0
10
170.929230769231
20
11.3247599014182
30
0
0
VERTEX
8
0
10
171.848205128205
20
11.3247599014182
30
0
0
SEQEND
8
0
0
POLYLINE
8
0
62
3
70
0
10
0
20
0
30
0
0
VERTEX
8
0
10
1.83794871794872
20
19.7031581596622
30
0
0
VERTEX
8
0
10
2.75692307692308
20
23.5052925674507
30
0
0
VERTEX
8
0
10
3.67589743589744
20
26.9551119669418
30
0
0
VERTEX
8
0
10
4.59487179487179
20
30.0996618276548
30
0
0
VERTEX
8
0
10
5.51384615384615
20
33.291793659201
30
0
0
VERTEX
8
0
10
6.43282051282051
20
35.7834656174334
30
0
0
VERTEX
8
0
10
7.35179487179487
20
38.0988221393981
30
0
0
VERTEX
8
0
10
8.27076923076923
20
40.3770406624006
30
0
0
VERTEX
8
0
10
9.18974358974359
20
41.9448686715827
30
0
0
VERTEX
8
0
10
10.1087179487179
20
43.7183964638822
30
0
0
VERTEX
8
0
10
11.0276923076923
20
45.4918752648305
30
0
0
VERTEX
8
0
10
11.9466666666667
20
46.8738357582836
30
0
0
VERTEX
8
0
10
12.865641025641
20
48.291768669856
30
0
0
VERTEX
8
0
10
13.7846153846154
20
49.6795659556135
30
0
0
VERTEX
8
0
10
14.7035897435897
20
50.9262181131987
30
0
0
VERTEX
8
0
10
15.6225641025641
20
52.1308027410117
30
0
0
VERTEX
8
0
10
16.5415384615385
20
53.2560661472082
30
0
0
VERTEX
8
0
10
17.4605128205128
20
54.3165272310619
30
0
0
VERTEX
8
0
10
18.3794871794872
20
55.3769883149156
30
0
0
VERTEX
8
0
10
19.2984615384615
20
56.2747598596406
30
0
0
VERTEX
8
0
10
20.2174358974359
20
57.1830567292359
30
0
0
VERTEX
8
0
10
21.1364102564103
20
58.0913535988311
30
0
0
VERTEX
8
0
10
22.0553846153846
20
58.8673096023639
30
0
0
VERTEX
8
0
10
22.974358974359
20
59.6758615641732
30
0
0
VERTEX
8
0
10
23.8933333333333
20
60.4844135259826
30
0
0
VERTEX
8
0
10
24.8123076923077
20
61.1494779566681
30
0
0
VERTEX
8
0
10
25.7312820512821
20
61.8593334348763
30
0
0
VERTEX
8
0
10
26.6502564102564
20
62.5096552063114
30
0
0
VERTEX
8
0
10
27.5692307692308
20
63.1170181823185
30
0
0
VERTEX
8
0
10
28.4882051282051
20
63.7243811583255
30
0
0
VERTEX
8
0
10
29.4071794871795
20
64.2618776725146
30
0
0
VERTEX
8
0
10
30.3261538461539
20
64.7705441649205
30
0
0
VERTEX
8
0
10
31.2451282051282
20
65.2792106573264
30
0
0
VERTEX
8
0
10
32.1641025641026
20
65.718150545223
30
0
0
VERTEX
8
0
10
33.0830769230769
20
66.1433046284279
30
0
0
VERTEX
8
0
10
34.0020512820513
20
66.5684587116329
30
0
0
VERTEX
8
0
10
34.9210256410257
20
66.8767612550063
30
0
0
VERTEX
8
0
10
35.84
20
67.1804427430098
30
0
0
VERTEX
8
0
10
36.7589743589744
20
67.4841242310133
30
0
0
VERTEX
8
0
10
37.6779487179487
20
67.7547350780136
30
0
0
VERTEX
8
0
10
38.5969230769231
20
68.0280484172167
30
0
0
VERTEX
8
0
10
39.5158974358974
20
68.3013617564199
30
0
0
VERTEX
8
0
10
40.4348717948718
20
68.5423627482055
30
0
0
VERTEX
8
0
10
41.3538461538461
20
68.7891039572083
30
0
0
VERTEX
8
0
10
42.2728205128205
20
69.0358451662112
30
0
0
VERTEX
8
0
10
43.1917948717949
20
69.262193298667
30
0
0
VERTEX
8
0
10
44.1107692307692
20
69.4937504332697
30
0
0
VERTEX
8
0
10
45.0297435897436
20
69.7253075678724
30
0
0
VERTEX
8
0
10
45.9487179487179
20
69.9122207933356
30
0
0
VERTEX
8
0
10
46.8676923076923
20
70.1134097791379
30
0
0
VERTEX
8
0
10
47.7866666666666
20
70.3168654544883
30
0
0
VERTEX
8
0
10
48.705641025641
20
70.5218504588907
30
0
0
VERTEX
8
0
10
49.6246153846154
20
70.726835463293
30
0
0
VERTEX
8
0
10
50.5435897435897
20
70.9263226495879
30
0
0
VERTEX
8
0
10
51.4625641025641
20
71.1237156167902
30
0
0
VERTEX
8
0
10
52.3815384615384
20
71.3211085839925
30
0
0
VERTEX
8
0
10
53.3005128205128
20
71.5185015511948
30
0
0
VERTEX
8
0
10
54.2194871794871
20
71.7158945183971
30
0
0
VERTEX
8
0
10
55.1384615384615
20
71.9132874855994
30
0
0
VERTEX
8
0
10
56.0574358974358
20
72.1106804528017
30
0
0
VERTEX
8
0
10
56.9764102564102
20
72.308073420004
30
0
0
VERTEX
8
0
10
57.8953846153846
20
72.5054663872062
30
0
0
VERTEX
8
0
10
58.8143589743589
20
72.6986637868378
30
0
0
VERTEX
8
0
10
59.7333333333333
20
72.89226073544
30
0
0
VERTEX
8
0
10
60.6523076923076
20
73.0858576840422
30
0
0
VERTEX
8
0
10
61.571282051282
20
73.2934879938738
30
0
0
VERTEX
8
0
10
62.4902564102563
20
73.4984729982762
30
0
0
VERTEX
8
0
10
63.4092307692307
20
73.7034580026786
30
0
0
VERTEX
8
0
10
64.328205128205
20
73.9239230268273
30
0
0
VERTEX
8
0
10
65.2471794871794
20
74.1402960870299
30
0
0
VERTEX
8
0
10
66.1661538461537
20
74.3566691472324
30
0
0
VERTEX
8
0
10
67.0851282051281
20
74.5956111117861
30
0
0
VERTEX
8
0
10
68.0041025641025
20
74.8271682463888
30
0
0
VERTEX
8
0
10
68.9230769230768
20
75.0680390889652
30
0
0
VERTEX
8
0
10
69.8420512820512
20
75.314780297968
30
0
0
VERTEX
8
0
10
70.7610256410255
20
75.5615215069709
30
0
0
VERTEX
8
0
10
71.6799999999999
20
75.8279372414675
30
0
0
VERTEX
8
0
10
72.5989743589742
20
76.1012505806707
30
0
0
VERTEX
8
0
10
73.5179487179486
20
76.3745639198739
30
0
0
VERTEX
8
0
10
74.436923076923
20
76.6610487230962
30
0
0
VERTEX
8
0
10
75.3558974358973
20
76.9495461366995
30
0
0
VERTEX
8
0
10
76.2748717948717
20
77.2380435503029
30
0
0
VERTEX
8
0
10
77.193846153846
20
77.3944129710401
30
0
0
VERTEX
8
0
10
78.1128205128204
20
77.5500497336419
30
0
0
VERTEX
8
0
10
79.0317948717947
20
77.7056864962437
30
0
0
VERTEX
8
0
10
79.9507692307691
20
77.8442940387809
30
0
0
VERTEX
8
0
10
80.8697435897435
20
77.9847467269826
30
0
0
VERTEX
8
0
10
81.7887179487178
20
78.1251994151842
30
0
0
VERTEX
8
0
10
82.7076923076922
20
78.2419544807768
30
0
0
VERTEX
8
0
10
83.6266666666665
20
78.3634270759782
30
0
0
VERTEX
8
0
10
84.5456410256409
20
78.4848996711796
30
0
0
VERTEX
8
0
10
85.4646153846152
20
78.6324809865184
30
0
0
VERTEX
8
0
10
86.3835897435896
20
78.7729336747201
30
0
0
VERTEX
8
0
10
87.3025641025639
20
78.9057545831892
30
0
0
VERTEX
8
0
10
88.2215384615383
20
79.0310231969907
30
0
0
VERTEX
8
0
10
89.1405128205126
20
79.1562918107921
30
0
0
VERTEX
8
0
10
90.059487179487
20
79.2552686157668
30
0
0
VERTEX
8
0
10
90.9784615384614
20
79.3387810249678
30
0
0
VERTEX
8
0
10
91.8974358974357
20
79.4222934341687
30
0
0
VERTEX
8
0
10
92.8164102564101
20
79.4483581644803
30
0
0
VERTEX
8
0
10
93.7353846153844
20
79.4559502016804
30
0
0
VERTEX
8
0
10
94.6543589743588
20
79.4635422388804
30
0
0
VERTEX
8
0
10
95.5733333333331
20
79.4644250691802
30
0
0
VERTEX
8
0
10
96.4923076923075
20
79.4644250691802
30
0
0
VERTEX
8
0
10
97.4112820512818
20
79.4644250691802
30
0
0
VERTEX
8
0
10
98.3302564102562
20
79.4644250691802
30
0
0
VERTEX
8
0
10
99.2492307692306
20
79.4644250691802
30
0
0
VERTEX
8
0
10
100.168205128205
20
79.4644250691802
30
0
0
VERTEX
8
0
10
101.087179487179
20
79.4644250691802
30
0
0
VERTEX
8
0
10
102.006153846154
20
79.4644250691802
30
0
0
VERTEX
8
0
10
102.925128205128
20
79.4644250691802
30
0
0
VERTEX
8
0
10
103.844102564102
20
79.4644250691802
30
0
0
VERTEX
8
0
10
104.763076923077
20
79.4644250691802
30
0
0
VERTEX
8
0
10
105.682051282051
20
79.4644250691802
30
0
0
VERTEX
8
0
10
106.601025641025
20
79.4644250691802
30
0
0
VERTEX
8
0
10
107.52
20
79.4644250691802
30
0
0
VERTEX
8
0
10
108.438974358974
20
79.4644250691802
30
0
0
VERTEX
8
0
10
109.357948717948
20
79.4644250691802
30
0
0
VERTEX
8
0
10
110.276923076923
20
79.4644250691802
30
0
0
VERTEX
8
0
10
111.195897435897
20
79.4644250691802
30
0
0
VERTEX
8
0
10
112.114871794872
20
79.4644250691802
30
0
0
VERTEX
8
0
10
113.033846153846
20
79.4644250691802
30
0
0
VERTEX
8
0
10
113.95282051282
20
79.4732274333497
30
0
0
VERTEX
8
0
10
114.871794871795
20
79.4846154891499
30
0
0
VERTEX
8
0
10
115.790769230769
20
79.49600354495
30
0
0
VERTEX
8
0
10
116.709743589743
20
79.5176406234367
30
0
0
VERTEX
8
0
10
117.628717948718
20
79.5404167350369
30
0
0
VERTEX
8
0
10
118.547692307692
20
79.5631928466372
30
0
0
VERTEX
8
0
10
119.466666666666
20
79.5274905522197
30
0
0
VERTEX
8
0
10
120.385641025641
20
79.4933263848193
30
0
0
VERTEX
8
0
10
121.304615384615
20
79.4591622174189
30
0
0
VERTEX
8
0
10
122.223589743589
20
79.4644250691802
30
0
0
VERTEX
8
0
10
123.142564102564
20
79.4644250691802
30
0
0
VERTEX
8
0
10
124.061538461538
20
79.4644250691802
30
0
0
VERTEX
8
0
10
124.980512820513
20
79.4644250691802
30
0
0
VERTEX
8
0
10
125.899487179487
20
79.4644250691802
30
0
0
VERTEX
8
0
10
126.818461538461
20
79.4644250691802
30
0
0
VERTEX
8
0
10
127.737435897436
20
79.4644250691802
30
0
0
VERTEX
8
0
10
128.65641025641
20
79.4644250691802
30
0
0
VERTEX
8
0
10
129.575384615384
20
79.4603622295325
30
0
0
VERTEX
8
0
10
130.494358974359
20
79.4527701923325
30
0
0
VERTEX
8
0
10
131.413333333333
20
79.4451781551324
30
0
0
VERTEX
8
0
10
132.332307692307
20
79.4099360853075
30
0
0
VERTEX
8
0
10
133.251282051282
20
79.3605878435069
30
0
0
VERTEX
8
0
10
134.170256410256
20
79.3112396017064
30
0
0
VERTEX
8
0
10
135.08923076923
20
79.279866512917
30
0
0
VERTEX
8
0
10
136.008205128205
20
79.2532943827167
30
0
0
VERTEX
8
0
10
136.927179487179
20
79.2267222525164
30
0
0
VERTEX
8
0
10
137.846153846153
20
79.1792816522708
30
0
0
VERTEX
8
0
10
138.765128205128
20
79.1299334104703
30
0
0
VERTEX
8
0
10
139.684102564102
20
79.0805851686697
30
0
0
VERTEX
8
0
10
140.603076923077
20
79.0470781182553
30
0
0
VERTEX
8
0
10
141.522051282051
20
79.0129139508549
30
0
0
VERTEX
8
0
10
142.441025641025
20
78.9787497834545
30
0
0
VERTEX
8
0
10
143.36
20
78.9579131681108
30
0
0
VERTEX
8
0
10
144.278974358974
20
78.9351370565105
30
0
0
VERTEX
8
0
10
145.197948717948
20
78.9123609449103
30
0
0
VERTEX
8
0
10
146.116923076923
20
78.840337464731
30
0
0
VERTEX
8
0
10
147.035897435897
20
78.7796011671303
30
0
0
VERTEX
8
0
10
147.954871794871
20
78.7188648695296
30
0
0
VERTEX
8
0
10
148.873846153846
20
78.6419077028382
30
0
0
VERTEX
8
0
10
149.79282051282
20
78.5697833494373
30
0
0
VERTEX
8
0
10
150.711794871795
20
78.5164974114594
30
0
0
VERTEX
8
0
10
151.630769230769
20
78.4785372254589
30
0
0
VERTEX
8
0
10
152.549743589743
20
78.4405770394585
30
0
0
VERTEX
8
0
10
153.468717948718
20
78.3897399695836
30
0
0
VERTEX
8
0
10
154.387692307692
20
78.332799690583
30
0
0
VERTEX
8
0
10
155.306666666666
20
78.2758594115823
30
0
0
VERTEX
8
0
10
156.225641025641
20
78.2189191325816
30
0
0
VERTEX
8
0
10
157.144615384615
20
78.161978853581
30
0
0
VERTEX
8
0
10
158.063589743589
20
78.1050385745803
30
0
0
VERTEX
8
0
10
158.982564102564
20
78.0764168218696
30
0
0
VERTEX
8
0
10
159.901538461538
20
78.0498446916692
30
0
0
VERTEX
8
0
10
160.820512820513
20
78.0232725614689
30
0
0
VERTEX
8
0
10
161.739487179487
20
77.9564800783495
30
0
0
VERTEX
8
0
10
162.658461538461
20
77.8919477621487
30
0
0
VERTEX
8
0
10
163.577435897436
20
77.827415445948
30
0
0
VERTEX
8
0
10
164.49641025641
20
77.8169341873183
30
0
0
VERTEX
8
0
10
165.415384615384
20
77.7979540943181
30
0
0
VERTEX
8
0
10
166.334358974359
20
77.7789740013179
30
0
0
VERTEX
8
0
10
167.253333333333
20
77.7201021138915
30
0
0
VERTEX
8
0
10
168.172307692308
20
77.670753872091
30
0
0
VERTEX
8
0
10
169.091282051282
20
77.6214056302904
30
0
0
VERTEX
8
0
10
170.010256410256
20
77.5939321637256
30
0
0
VERTEX
8
0
10
170.929230769231
20
77.5597679963252
30
0
0
VERTEX
8
0
10
171.848205128205
20
77.5449978813559
30
0
0
SEQEND
8
0
0
POLYLINE
8
0
62
1
70
0
10
0
20
0
30
0
0
VERTEX
8
0
10
1.83794871794872
20
16.8257894983909
30
0
0
VERTEX
8
0
10
2.75692307692308
20
20.2842124257336
30
0
0
VERTEX
8
0
10
3.67589743589744
20
23.020704619501
30
0
0
VERTEX
8
0
10
4.59487179487179
20
25.8613008578198
30
0
0
VERTEX
8
0
10
5.51384615384615
20
28.2770422042275
30
0
0
VERTEX
8
0
10
6.43282051282051
20
30.7904290771269
30
0
0
VERTEX
8
0
10
7.35179487179487
20
32.5294923592372
30
0
0
VERTEX
8
0
10
8.27076923076923
20
34.0222514966371
30
0
0
VERTEX
8
0
10
9.18974358974359
20
35.5562092093894
30
0
0
VERTEX
8
0
10
10.1087179487179
20
36.9370842283573
30
0
0
VERTEX
8
0
10
11.0276923076923
20
38.1964867753088
30
0
0
VERTEX
8
0
10
11.9466666666667
20
39.3038433443858
30
0
0
VERTEX
8
0
10
12.865641025641
20
40.4733871631382
30
0
0
VERTEX
8
0
10
13.7846153846154
20
41.3287932490865
30
0
0
VERTEX
8
0
10
14.7035897435897
20
42.2919439162905
30
0
0
VERTEX
8
0
10
15.6225641025641
20
43.0697339991108
30
0
0
VERTEX
8
0
10
16.5415384615385
20
43.8313095188321
30
0
0
VERTEX
8
0
10
17.4605128205128
20
44.6044089022319
30
0
0
VERTEX
8
0
10
18.3794871794872
20
45.2021877879024
30
0
0
VERTEX
8
0
10
19.2984615384615
20
45.8407836849971
30
0
0
VERTEX
8
0
10
20.2174358974359
20
46.4876234687716
30
0
0
VERTEX
8
0
10
21.1364102564103
20
46.9892265299506
30
0
0
VERTEX
8
0
10
22.0553846153846
20
47.5305935160964
30
0
0
VERTEX
8
0
10
22.974358974359
20
48.0817290426355
30
0
0
VERTEX
8
0
10
23.8933333333333
20
48.4156546194587
30
0
0
VERTEX
8
0
10
24.8123076923077
20
48.7891533603688
30
0
0
VERTEX
8
0
10
25.7312820512821
20
49.1729128112901
30
0
0
VERTEX
8
0
10
26.6502564102564
20
49.4433010820226
30
0
0
VERTEX
8
0
10
27.5692307692308
20
49.7445120142382
30
0
0
VERTEX
8
0
10
28.4882051282051
20
50.0533394559683
30
0
0
VERTEX
8
0
10
29.4071794871795
20
50.1603591290795
30
0
0
VERTEX
8
0
10
30.3261538461539
20
50.3128299961612
30
0
0
VERTEX
8
0
10
31.2451282051282
20
50.4443285883271
30
0
0
VERTEX
8
0
10
32.1641025641026
20
50.5600345921869
30
0
0
VERTEX
8
0
10
33.0830769230769
20
50.6779693381204
30
0
0
VERTEX
8
0
10
34.0020512820513
20
50.7460321242366
30
0
0
VERTEX
8
0
10
34.9210256410257
20
50.7360482524138
30
0
0
VERTEX
8
0
10
35.84
20
50.7237421947711
30
0
0
VERTEX
8
0
10
36.7589743589744
20
50.681757224143
30
0
0
VERTEX
8
0
10
37.6779487179487
20
50.6250222402478
30
0
0
VERTEX
8
0
10
38.5969230769231
20
50.5708173733058
30
0
0
VERTEX
8
0
10
39.5158974358974
20
50.5012688584958
30
0
0
VERTEX
8
0
10
40.4348717948718
20
50.397594907632
30
0
0
VERTEX
8
0
10
41.3538461538461
20
50.3019008837019
30
0
0
VERTEX
8
0
10
42.2728205128205
20
50.1644108997106
30
0
0
VERTEX
8
0
10
43.1917948717949
20
50.0552283684992
30
0
0
VERTEX
8
0
10
44.1107692307692
20
49.9417283136041
30
0
0
VERTEX
8
0
10
45.0297435897436
20
49.8197987300344
30
0
0
VERTEX
8
0
10
45.9487179487179
20
49.7001847134649
30
0
0
VERTEX
8
0
10
46.8676923076923
20
49.5837429826225
30
0
0
VERTEX
8
0
10
47.7866666666666
20
49.4567319728034
30
0
0
VERTEX
8
0
10
48.705641025641
20
49.3356036396289
30
0
0
VERTEX
8
0
10
49.6246153846154
20
49.2164012700984
30
0
0
VERTEX
8
0
10
50.5435897435897
20
49.1025781072813
30
0
0
VERTEX
8
0
10
51.4625641025641
20
49.0173706493393
30
0
0
VERTEX
8
0
10
52.3815384615384
20
48.926366902949
30
0
0
VERTEX
8
0
10
53.3005128205128
20
48.8394871522465
30
0
0
VERTEX
8
0
10
54.2194871794871
20
48.7778041071558
30
0
0
VERTEX
8
0
10
55.1384615384615
20
48.7082126049141
30
0
0
VERTEX
8
0
10
56.0574358974358
20
48.6402622360731
30
0
0
VERTEX
8
0
10
56.9764102564102
20
48.5734710460924
30
0
0
VERTEX
8
0
10
57.8953846153846
20
48.5099951625239
30
0
0
VERTEX
8
0
10
58.8143589743589
20
48.4495439295028
30
0
0
VERTEX
8
0
10
59.7333333333333
20
48.4174557007844
30
0
0
VERTEX
8
0
10
60.6523076923076
20
48.3884316113172
30
0
0
VERTEX
8
0
10
61.571282051282
20
48.362745970453
30
0
0
VERTEX
8
0
10
62.4902564102563
20
48.3386727675334
30
0
0
VERTEX
8
0
10
63.4092307692307
20
48.3302428162527
30
0
0
VERTEX
8
0
10
64.328205128205
20
48.3225965236932
30
0
0
VERTEX
8
0
10
65.2471794871794
20
48.3169856238383
30
0
0
VERTEX
8
0
10
66.1661538461537
20
48.3240017781203
30
0
0
VERTEX
8
0
10
67.0851282051281
20
48.3377440938314
30
0
0
VERTEX
8
0
10
68.0041025641025
20
48.356881255424
30
0
0
VERTEX
8
0
10
68.9230769230768
20
48.3763985816
30
0
0
VERTEX
8
0
10
69.8420512820512
20
48.3934713351085
30
0
0
VERTEX
8
0
10
70.7610256410255
20
48.4066108940759
30
0
0
VERTEX
8
0
10
71.6799999999999
20
48.4247614128709
30
0
0
VERTEX
8
0
10
72.5989743589742
20
48.4624507744376
30
0
0
VERTEX
8
0
10
73.5179487179486
20
48.5094333509025
30
0
0
VERTEX
8
0
10
74.436923076923
20
48.5573591270284
30
0
0
VERTEX
8
0
10
75.3558974358973
20
48.5543566542457
30
0
0
VERTEX
8
0
10
76.2748717948717
20
48.5561563158628
30
0
0
VERTEX
8
0
10
77.193846153846
20
48.5633706777549
30
0
0
VERTEX
8
0
10
78.1128205128204
20
48.4976207202917
30
0
0
VERTEX
8
0
10
79.0317948717947
20
48.4148051853757
30
0
0
VERTEX
8
0
10
79.9507692307691
20
48.3375963259722
30
0
0
VERTEX
8
0
10
80.8697435897435
20
48.2608777846434
30
0
0
VERTEX
8
0
10
81.7887179487178
20
48.1780978961777
30
0
0
VERTEX
8
0
10
82.7076923076922
20
48.0957894737777
30
0
0
VERTEX
8
0
10
83.6266666666665
20
48.0312635200861
30
0
0
VERTEX
8
0
10
84.5456410256409
20
47.9730632993152
30
0
0
VERTEX
8
0
10
85.4646153846152
20
47.9137031388088
30
0
0
VERTEX
8
0
10
86.3835897435896
20
47.8435982824729
30
0
0
VERTEX
8
0
10
87.3025641025639
20
47.7709883805464
30
0
0
VERTEX
8
0
10
88.2215384615383
20
47.7011912947278
30
0
0
VERTEX
8
0
10
89.1405128205126
20
47.5935087723185
30
0
0
VERTEX
8
0
10
90.059487179487
20
47.5085494660284
30
0
0
VERTEX
8
0
10
90.9784615384614
20
47.4200236633543
30
0
0
VERTEX
8
0
10
91.8974358974357
20
47.2291774376623
30
0
0
VERTEX
8
0
10
92.8164102564101
20
47.0490653071296
30
0
0
VERTEX
8
0
10
93.7353846153844
20
46.8700359820303
30
0
0
VERTEX
8
0
10
94.6543589743588
20
46.6707714907127
30
0
0
VERTEX
8
0
10
95.5733333333331
20
46.482837452922
30
0
0
VERTEX
8
0
10
96.4923076923075
20
46.28874046377
30
0
0
VERTEX
8
0
10
97.4112820512818
20
46.0964024448515
30
0
0
VERTEX
8
0
10
98.3302564102562
20
45.9062375513851
30
0
0
VERTEX
8
0
10
99.2492307692306
20
45.7161359920053
30
0
0
VERTEX
8
0
10
100.168205128205
20
45.5371227664822
30
0
0
VERTEX
8
0
10
101.087179487179
20
45.3467917667316
30
0
0
VERTEX
8
0
10
102.006153846154
20
45.1537224629499
30
0
0
VERTEX
8
0
10
102.925128205128
20
44.9814264480852
30
0
0
VERTEX
8
0
10
103.844102564102
20
44.811657675269
30
0
0
VERTEX
8
0
10
104.763076923077
20
44.642790964186
30
0
0
VERTEX
8
0
10
105.682051282051
20
44.4829076060286
30
0
0
VERTEX
8
0
10
106.601025641025
20
44.3206986831216
30
0
0
VERTEX
8
0
10
107.52
20
44.1647392874076
30
0
0
VERTEX
8
0
10
108.438974358974
20
44.0227893147503
30
0
0
VERTEX
8
0
10
109.357948717948
20
43.8781802529322
30
0
0
VERTEX
8
0
10
110.276923076923
20
43.7074710142212
30
0
0
VERTEX
8
0
10
111.195897435897
20
43.525142399262
30
0
0
VERTEX
8
0
10
112.114871794872
20
43.3468024674738
30
0
0
VERTEX
8
0
10
113.033846153846
20
43.215032368506
30
0
0
VERTEX
8
0
10
113.95282051282
20
43.0672368139108
30
0
0
VERTEX
8
0
10
114.871794871795
20
42.9222790992975
30
0
0
VERTEX
8
0
10
115.790769230769
20
42.7563935290142
30
0
0
VERTEX
8
0
10
116.709743589743
20
42.6082230745734
30
0
0
VERTEX
8
0
10
117.628717948718
20
42.4541182461896
30
0
0
VERTEX
8
0
10
118.547692307692
20
42.2850826234673
30
0
0
VERTEX
8
0
10
119.466666666666
20
42.1111039523214
30
0
0
VERTEX
8
0
10
120.385641025641
20
41.9371348314955
30
0
0
VERTEX
8
0
10
121.304615384615
20
41.8083652101504
30
0
0
VERTEX
8
0
10
122.223589743589
20
41.6789418072531
30
0
0
VERTEX
8
0
10
123.142564102564
20
41.5495535030361
30
0
0
VERTEX
8
0
10
124.061538461538
20
41.3994297564857
30
0
0
VERTEX
8
0
10
124.980512820513
20
41.247867165875
30
0
0
VERTEX
8
0
10
125.899487179487
20
41.0963210047848
30
0
0
VERTEX
8
0
10
126.818461538461
20
40.9865379034136
30
0
0
VERTEX
8
0
10
127.737435897436
20
40.8696638313965
30
0
0
VERTEX
8
0
10
128.65641025641
20
40.7528143748145
30
0
0
VERTEX
8
0
10
129.575384615384
20
40.589833767982
30
0
0
VERTEX
8
0
10
130.494358974359
20
40.436758936005
30
0
0
VERTEX
8
0
10
131.413333333333
20
40.2722224472883
30
0
0
VERTEX
8
0
10
132.332307692307
20
40.1117144638375
30
0
0
VERTEX
8
0
10
133.251282051282
20
39.9493674106067
30
0
0
VERTEX
8
0
10
134.170256410256
20
39.775239027858
30
0
0
VERTEX
8
0
10
135.08923076923
20
39.6127745616712
30
0
0
VERTEX
8
0
10
136.008205128205
20
39.4481376338651
30
0
0
VERTEX
8
0
10
136.927179487179
20
39.2896709328108
30
0
0
VERTEX
8
0
10
137.846153846153
20
39.1089603381274
30
0
0
VERTEX
8
0
10
138.765128205128
20
38.9367191689673
30
0
0
VERTEX
8
0
10
139.684102564102
20
38.7707421045689
30
0
0
VERTEX
8
0
10
140.603076923077
20
38.6133470841969
30
0
0
VERTEX
8
0
10
141.522051282051
20
38.4560315272608
30
0
0
VERTEX
8
0
10
142.441025641025
20
38.2998330903548
30
0
0
VERTEX
8
0
10
143.36
20
38.1377094906003
30
0
0
VERTEX
8
0
10
144.278974358974
20
37.9755877911112
30
0
0
VERTEX
8
0
10
145.197948717948
20
37.823117903619
30
0
0
VERTEX
8
0
10
146.116923076923
20
37.6678533745478
30
0
0
VERTEX
8
0
10
147.035897435897
20
37.5126138259902
30
0
0
VERTEX
8
0
10
147.954871794871
20
37.3583434477114
30
0
0
VERTEX
8
0
10
148.873846153846
20
37.2041932161161
30
0
0
VERTEX
8
0
10
149.79282051282
20
37.0501218238973
30
0
0
VERTEX
8
0
10
150.711794871795
20
36.8958589797541
30
0
0
VERTEX
8
0
10
151.630769230769
20
36.743466123149
30
0
0
VERTEX
8
0
10
152.549743589743
20
36.5911093857508
30
0
0
VERTEX
8
0
10
153.468717948718
20
36.4489095553091
30
0
0
VERTEX
8
0
10
154.387692307692
20
36.3027424978326
30
0
0
VERTEX
8
0
10
155.306666666666
20
36.1592521418994
30
0
0
VERTEX
8
0
10
156.225641025641
20
35.9962157762781
30
0
0
VERTEX
8
0
10
157.144615384615
20
35.8378855138126
30
0
0
VERTEX
8
0
10
158.063589743589
20
35.6827503832806
30
0
0
VERTEX
8
0
10
158.982564102564
20
35.5554992035374
30
0
0
VERTEX
8
0
10
159.901538461538
20
35.4277480347855
30
0
0
VERTEX
8
0
10
160.820512820513
20
35.3046535118018
30
0
0
VERTEX
8
0
10
161.739487179487
20
35.1614197721844
30
0
0
VERTEX
8
0
10
162.658461538461
20
35.0242253581152
30
0
0
VERTEX
8
0
10
163.577435897436
20
34.8838093946682
30
0
0
VERTEX
8
0
10
164.49641025641
20
34.7438487115505
30
0
0
VERTEX
8
0
10
165.415384615384
20
34.6039043135464
30
0
0
VERTEX
8
0
10
166.334358974359
20
34.4712959164796
30
0
0
VERTEX
8
0
10
167.253333333333
20
34.3613946937497
30
0
0
VERTEX
8
0
10
168.172307692308
20
34.2466664658142
30
0
0
VERTEX
8
0
10
169.091282051282
20
34.1479900718935
30
0
0
VERTEX
8
0
10
170.010256410256
20
34.0409682216194
30
0
0
VERTEX
8
0
10
170.929230769231
20
33.9365776144257
30
0
0
VERTEX
8
0
10
171.848205128205
20
33.7725508484112
30
0
0
SEQEND
8
0
0
POLYLINE
8
0
62
2
70
0
10
0
20
0
30
0
0
VERTEX
8
0
10
1.83794871794872
20
16.5391105219253
30
0
0
VERTEX
8
0
10
2.75692307692308
20
20.2483767086783
30
0
0
VERTEX
8
0
10
3.67589743589744
20
23.0161383498283
30
0
0
VERTEX
8
0
10
4.59487179487179
20
25.8690868254539
30
0
0
VERTEX
8
0
10
5.51384615384615
20
28.239720037654
30
0
0
VERTEX
8
0
10
6.43282051282051
20
30.7911035242979
30
0
0
VERTEX
8
0
10
7.35179487179487
20
32.5583186067553
30
0
0
VERTEX
8
0
10
8.27076923076923
20
34.0215500091449
30
0
0
VERTEX
8
0
10
9.18974358974359
20
35.5544260215868
30
0
0
VERTEX
8
0
10
10.1087179487179
20
36.9669901344908
30
0
0
VERTEX
8
0
10
11.0276923076923
20
38.1958244855009
30
0
0
VERTEX
8
0
10
11.9466666666667
20
39.3043216769819
30
0
0
VERTEX
8
0
10
12.865641025641
20
40.498502496841
30
0
0
VERTEX
8
0
10
13.7846153846154
20
41.327560428777
30
0
0
VERTEX
8
0
10
14.7035897435897
20
42.2929573216644
30
0
0
VERTEX
8
0
10
15.6225641025641
20
43.0717301510217
30
0
0
VERTEX
8
0
10
16.5415384615385
20
43.82973072195
30
0
0
VERTEX
8
0
10
17.4605128205128
20
44.6066011491771
30
0
0
VERTEX
8
0
10
18.3794871794872
20
45.2027548961478
30
0
0
VERTEX
8
0
10
19.2984615384615
20
45.8392937133274
30
0
0
VERTEX
8
0
10
20.2174358974359
20
46.490414510231
30
0
0
VERTEX
8
0
10
21.1364102564103
20
46.9894296860821
30
0
0
VERTEX
8
0
10
22.0553846153846
20
47.5294057609836
30
0
0
VERTEX
8
0
10
22.974358974359
20
48.0848074400821
30
0
0
VERTEX
8
0
10
23.8933333333333
20
48.4157957882591
30
0
0
VERTEX
8
0
10
24.8123076923077
20
48.7883433783201
30
0
0
VERTEX
8
0
10
25.7312820512821
20
49.1764720496671
30
0
0
VERTEX
8
0
10
26.6502564102564
20
49.443396212151
30
0
0
VERTEX
8
0
10
27.5692307692308
20
49.7440799036669
30
0
0
VERTEX
8
0
10
28.4882051282051
20
50.0569097970835
30
0
0
VERTEX
8
0
10
29.4071794871795
20
50.1605708949553
30
0
0
VERTEX
8
0
10
30.3261538461539
20
50.3127264664749
30
0
0
VERTEX
8
0
10
31.2451282051282
20
50.4479002136401
30
0
0
VERTEX
8
0
10
32.1641025641026
20
50.5583478368911
30
0
0
VERTEX
8
0
10
33.0830769230769
20
50.6782099641721
30
0
0
VERTEX
8
0
10
34.0020512820513
20
50.7499514388252
30
0
0
VERTEX
8
0
10
34.9210256410257
20
50.7346982417209
30
0
0
VERTEX
8
0
10
35.84
20
50.7242301645751
30
0
0
VERTEX
8
0
10
36.7589743589744
20
50.6819642755135
30
0
0
VERTEX
8
0
10
37.6779487179487
20
50.6242443660429
30
0
0
VERTEX
8
0
10
38.5969230769231
20
50.5716269220376
30
0
0
VERTEX
8
0
10
39.5158974358974
20
50.5014134682019
30
0
0
VERTEX
8
0
10
40.4348717948718
20
50.3969000672019
30
0
0
VERTEX
8
0
10
41.3538461538461
20
50.3026841485846
30
0
0
VERTEX
8
0
10
42.2728205128205
20
50.1646255062203
30
0
0
VERTEX
8
0
10
43.1917948717949
20
50.0548321130917
30
0
0
VERTEX
8
0
10
44.1107692307692
20
49.9427685992502
30
0
0
VERTEX
8
0
10
45.0297435897436
20
49.8198015361443
30
0
0
VERTEX
8
0
10
45.9487179487179
20
49.6998187003564
30
0
0
VERTEX
8
0
10
46.8676923076923
20
49.5849136820579
30
0
0
VERTEX
8
0
10
47.7866666666666
20
49.4568519579084
30
0
0
VERTEX
8
0
10
48.705641025641
20
49.3354267393424
30
0
0
VERTEX
8
0
10
49.6246153846154
20
49.2176936203753
30
0
0
VERTEX
8
0
10
50.5435897435897
20
49.1026433803807
30
0
0
VERTEX
8
0
10
51.4625641025641
20
49.0173301524509
30
0
0
VERTEX
8
0
10
52.3815384615384
20
48.9278051048305
30
0
0
VERTEX
8
0
10
53.3005128205128
20
48.8385880804006
30
0
0
VERTEX
8
0
10
54.2194871794871
20
48.7779722083501
30
0
0
VERTEX
8
0
10
55.1384615384615
20
48.7097098153065
30
0
0
VERTEX
8
0
10
56.0574358974358
20
48.6396565852965
30
0
0
VERTEX
8
0
10
56.9764102564102
20
48.573766759277
30
0
0
VERTEX
8
0
10
57.8953846153846
20
48.5101418847077
30
0
0
VERTEX
8
0
10
58.8143589743589
20
48.4491192392936
30
0
0
VERTEX
8
0
10
59.7333333333333
20
48.417830626972
30
0
0
VERTEX
8
0
10
60.6523076923076
20
48.3885546172639
30
0
0
VERTEX
8
0
10
61.571282051282
20
48.3624104816616
30
0
0
VERTEX
8
0
10
62.4902564102563
20
48.3391379297508
30
0
0
VERTEX
8
0
10
63.4092307692307
20
48.3302976425005
30
0
0
VERTEX
8
0
10
64.328205128205
20
48.3222932452462
30
0
0
VERTEX
8
0
10
65.2471794871794
20
48.3175785854242
30
0
0
VERTEX
8
0
10
66.1661538461537
20
48.3240781732812
30
0
0
VERTEX
8
0
10
67.0851282051281
20
48.3376719333492
30
0
0
VERTEX
8
0
10
68.0041025641025
20
48.3574379951973
30
0
0
VERTEX
8
0
10
68.9230769230768
20
48.3766003870566
30
0
0
VERTEX
8
0
10
69.8420512820512
20
48.3934027402399
30
0
0
VERTEX
8
0
10
70.7610256410255
20
48.4072846752634
30
0
0
VERTEX
8
0
10
71.6799999999999
20
48.4247998384637
30
0
0
VERTEX
8
0
10
72.5989743589742
20
48.4625712704223
30
0
0
VERTEX
8
0
10
73.5179487179486
20
48.5100456324952
30
0
0
VERTEX
8
0
10
74.436923076923
20
48.557217797671
30
0
0
VERTEX
8
0
10
75.3558974358973
20
48.5544584640928
30
0
0
VERTEX
8
0
10
76.2748717948717
20
48.5565443238546
30
0
0
VERTEX
8
0
10
77.193846153846
20
48.5630251298192
30
0
0
VERTEX
8
0
10
78.1128205128204
20
48.4977531571023
30
0
0
VERTEX
8
0
10
79.0317948717947
20
48.4146900854914
30
0
0
VERTEX
8
0
10
79.9507692307691
20
48.3370331346674
30
0
0
VERTEX
8
0
10
80.8697435897435
20
48.2610925829457
30
0
0
VERTEX
8
0
10
81.7887179487178
20
48.1783287656329
30
0
0
VERTEX
8
0
10
82.7076923076922
20
48.0958857512089
30
0
0
VERTEX
8
0
10
83.6266666666665
20
48.0314630819522
30
0
0
VERTEX
8
0
10
84.5456410256409
20
47.973366122558
30
0
0
VERTEX
8
0
10
85.4646153846152
20
47.9136127672103
30
0
0
VERTEX
8
0
10
86.3835897435896
20
47.8439471468393
30
0
0
VERTEX
8
0
10
87.3025641025639
20
47.7708156129373
30
0
0
VERTEX
8
0
10
88.2215384615383
20
47.7009646007241
30
0
0
VERTEX
8
0
10
89.1405128205126
20
47.5939244339421
30
0
0
VERTEX
8
0
10
90.059487179487
20
47.5085458329502
30
0
0
VERTEX
8
0
10
90.9784615384614
20
47.4202039035495
30
0
0
VERTEX
8
0
10
91.8974358974357
20
47.2293588201375
30
0
0
VERTEX
8
0
10
92.8164102564101
20
47.0493394234415
30
0
0
VERTEX
8
0
10
93.7353846153844
20
46.8698427117469
30
0
0
VERTEX
8
0
10
94.6543589743588
20
46.6712276217005
30
0
0
VERTEX
8
0
10
95.5733333333331
20
46.4821508165064
30
0
0
VERTEX
8
0
10
96.4923076923075
20
46.2888223462212
30
0
0
VERTEX
8
0
10
97.4112820512818
20
46.0970545623442
30
0
0
VERTEX
8
0
10
98.3302564102562
20
45.906302938655
30
0
0
VERTEX
8
0
10
99.2492307692306
20
45.7159175953121
30
0
0
VERTEX
8
0
10
100.168205128205
20
45.5376533339415
30
0
0
VERTEX
8
0
10
101.087179487179
20
45.3514110882367
30
0
0
VERTEX
8
0
10
102.006153846154
20
45.1634106942903
30
0
0
VERTEX
8
0
10
102.925128205128
20
44.9905652828685
30
0
0
VERTEX
8
0
10
103.844102564102
20
44.82066734209
30
0
0
VERTEX
8
0
10
104.763076923077
20
44.6520155233984
30
0
0
VERTEX
8
0
10
105.682051282051
20
44.4924034586145
30
0
0
VERTEX
8
0
10
106.601025641025
20
44.3299154203359
30
0
0
VERTEX
8
0
10
107.52
20
44.1739740722605
30
0
0
VERTEX
8
0
10
108.438974358974
20
44.031775704884
30
0
0
VERTEX
8
0
10
109.357948717948
20
43.8868037290997
30
0
0
VERTEX
8
0
10
110.276923076923
20
43.7168990594274
30
0
0
VERTEX
8
0
10
111.195897435897
20
43.5338240319591
30
0
0
VERTEX
8
0
10
112.114871794872
20
43.3559951323652
30
0
0
VERTEX
8
0
10
113.033846153846
20
43.2235235307604
30
0
0
VERTEX
8
0
10
113.95282051282
20
43.0818065217399
30
0
0
VERTEX
8
0
10
114.871794871795
20
42.939170023231
30
0
0
VERTEX
8
0
10
115.790769230769
20
42.7787202565484
30
0
0
VERTEX
8
0
10
116.709743589743
20
42.6274505301033
30
0
0
VERTEX
8
0
10
117.628717948718
20
42.4743405726197
30
0
0
VERTEX
8
0
10
118.547692307692
20
42.3059779484744
30
0
0
VERTEX
8
0
10
119.466666666666
20
42.1377094953544
30
0
0
VERTEX
8
0
10
120.385641025641
20
41.9704225323867
30
0
0
VERTEX
8
0
10
121.304615384615
20
41.8414206907327
30
0
0
VERTEX
8
0
10
122.223589743589
20
41.7115267512341
30
0
0
VERTEX
8
0
10
123.142564102564
20
41.5814276238735
30
0
0
VERTEX
8
0
10
124.061538461538
20
41.4343277537446
30
0
0
VERTEX
8
0
10
124.980512820513
20
41.2869217157646
30
0
0
VERTEX
8
0
10
125.899487179487
20
41.1411336459998
30
0
0
VERTEX
8
0
10
126.818461538461
20
41.0301011272804
30
0
0
VERTEX
8
0
10
127.737435897436
20
40.9135141521343
30
0
0
VERTEX
8
0
10
128.65641025641
20
40.7958812624746
30
0
0
VERTEX
8
0
10
129.575384615384
20
40.635456763775
30
0
0
VERTEX
8
0
10
130.494358974359
20
40.4829671094194
30
0
0
VERTEX
8
0
10
131.413333333333
20
40.3200493276908
30
0
0
VERTEX
8
0
10
132.332307692307
20
40.1583272586168
30
0
0
VERTEX
8
0
10
133.251282051282
20
39.9956777482375
30
0
0
VERTEX
8
0
10
134.170256410256
20
39.8233121483517
30
0
0
VERTEX
8
0
10
135.08923076923
20
39.659138895019
30
0
0
VERTEX
8
0
10
136.008205128205
20
39.4956557912274
30
0
0
VERTEX
8
0
10
136.927179487179
20
39.335514755807
30
0
0
VERTEX
8
0
10
137.846153846153
20
39.1732920278893
30
0
0
VERTEX
8
0
10
138.765128205128
20
39.0100403528242
30
0
0
VERTEX
8
0
10
139.684102564102
20
38.8451426019707
30
0
0
VERTEX
8
0
10
140.603076923077
20
38.6859408385842
30
0
0
VERTEX
8
0
10
141.522051282051
20
38.5281861044457
30
0
0
VERTEX
8
0
10
142.441025641025
20
38.3733992183251
30
0
0
VERTEX
8
0
10
143.36
20
38.2139181369907
30
0
0
VERTEX
8
0
10
144.278974358974
20
38.0544651127338
30
0
0
VERTEX
8
0
10
145.197948717948
20
37.9013688347459
30
0
0
VERTEX
8
0
10
146.116923076923
20
37.7452019489539
30
0
0
VERTEX
8
0
10
147.035897435897
20
37.5915552199241
30
0
0
VERTEX
8
0
10
147.954871794871
20
37.4360167116613
30
0
0
VERTEX
8
0
10
148.873846153846
20
37.2823717799981
30
0
0
VERTEX
8
0
10
149.79282051282
20
37.1263806094781
30
0
0
VERTEX
8
0
10
150.711794871795
20
36.9885921855136
30
0
0
VERTEX
8
0
10
151.630769230769
20
36.8487597978518
30
0
0
VERTEX
8
0
10
152.549743589743
20
36.7127649210618
30
0
0
VERTEX
8
0
10
153.468717948718
20
36.5665349988145
30
0
0
VERTEX
8
0
10
154.387692307692
20
36.4223626824698
30
0
0
VERTEX
8
0
10
155.306666666666
20
36.2773062216218
30
0
0
VERTEX
8
0
10
156.225641025641
20
36.1223467654907
30
0
0
VERTEX
8
0
10
157.144615384615
20
35.9654892755466
30
0
0
VERTEX
8
0
10
158.063589743589
20
35.8120213825594
30
0
0
VERTEX
8
0
10
158.982564102564
20
35.6847031047896
30
0
0
VERTEX
8
0
10
159.901538461538
20
35.5587402126587
30
0
0
VERTEX
8
0
10
160.820512820513
20
35.4358969318242
30
0
0
VERTEX
8
0
10
161.739487179487
20
35.2915708863331
30
0
0
VERTEX
8
0
10
162.658461538461
20
35.1535416956684
30
0
0
VERTEX
8
0
10
163.577435897436
20
35.014578292053
30
0
0
VERTEX
8
0
10
164.49641025641
20
34.8771278584576
30
0
0
VERTEX
8
0
10
165.415384615384
20
34.7396790607033
30
0
0
VERTEX
8
0
10
166.334358974359
20
34.6096093801901
30
0
0
VERTEX
8
0
10
167.253333333333
20
34.5021946535808
30
0
0
VERTEX
8
0
10
168.172307692308
20
34.3923458322104
30
0
0
VERTEX
8
0
10
169.091282051282
20
34.2915643400246
30
0
0
VERTEX
8
0
10
170.010256410256
20
34.1847821332625
30
0
0
VERTEX
8
0
10
170.929230769231
20
34.0817215256448
30
0
0
VERTEX
8
0
10
171.848205128205
20
33.9156874754998
30
0
0
SEQEND
8
0
0
POLYLINE
8
0
62
3
70
0
10
0
20
0
30
0
0
VERTEX
8
0
10
1.83794871794872
20
16.4527296881114
30
0
0
VERTEX
8
0
10
2.75692307692308
20
24.7515190001015
30
0
0
VERTEX
8
0
10
3.67589743589744
20
25.1368538329188
30
0
0
VERTEX
8
0
10
4.59487179487179
20
31.7491486125461
30
0
0
VERTEX
8
0
10
5.51384615384615
20
32.0614294326027
30
0
0
VERTEX
8
0
10
6.43282051282051
20
35.2611048028215
30
0
0
VERTEX
8
0
10
7.35179487179487
20
37.7872921756943
30
0
0
VERTEX
8
0
10
8.27076923076923
20
39.585908218712
30
0
0
VERTEX
8
0
10
9.18974358974359
20
42.5283457154227
30
0
0
VERTEX
8
0
10
10.1087179487179
20
44.272414668414
30
0
0
VERTEX
8
0
10
11.0276923076923
20
46.7396569336659
30
0
0
VERTEX
8
0
10
11.9466666666667
20
47.9536207020745
30
0
0
VERTEX
8
0
10
12.865641025641
20
49.8715570947471
30
0
0
VERTEX
8
0
10
13.7846153846154
20
51.646716116959
30
0
0
VERTEX
8
0
10
14.7035897435897
20
53.1257052832978
30
0
0
VERTEX
8
0
10
15.6225641025641
20
54.7836925335616
30
0
0
VERTEX
8
0
10
16.5415384615385
20
56.0817510474109
30
0
0
VERTEX
8
0
10
17.4605128205128
20
57.7605242403358
30
0
0
VERTEX
8
0
10
18.3794871794872
20
58.8067726078957
30
0
0
VERTEX
8
0
10
19.2984615384615
20
60.0590221077314
30
0
0
VERTEX
8
0
10
20.2174358974359
20
61.2887891805292
30
0
0
VERTEX
8
0
10
21.1364102564103
20
62.4476836006058
30
0
0
VERTEX
8
0
10
22.0553846153846
20
63.528734434558
30
0
0
VERTEX
8
0
10
22.974358974359
20
64.507484814688
30
0
0
VERTEX
8
0
10
23.8933333333333
20
65.5654953347992
30
0
0
VERTEX
8
0
10
24.8123076923077
20
66.4381093545765
30
0
0
VERTEX
8
0
10
25.7312820512821
20
67.3054240067571
30
0
0
VERTEX
8
0
10
26.6502564102564
20
68.1523161244751
30
0
0
VERTEX
8
0
10
27.5692307692308
20
68.9618616869716
30
0
0
VERTEX
8
0
10
28.4882051282051
20
69.7682667338528
30
0
0
VERTEX
8
0
10
29.4071794871795
20
70.440876661462
30
0
0
VERTEX
8
0
10
30.3261538461539
20
71.1574794787499
30
0
0
VERTEX
8
0
10
31.2451282051282
20
71.7816034950072
30
0
0
VERTEX
8
0
10
32.1641025641026
20
72.4165500252164
30
0
0
VERTEX
8
0
10
33.0830769230769
20
73.0032871484501
30
0
0
VERTEX
8
0
10
34.0020512820513
20
73.5791835263604
30
0
0
VERTEX
8
0
10
34.9210256410257
20
74.1085652917966
30
0
0
VERTEX
8
0
10
35.84
20
74.6280944940838
30
0
0
VERTEX
8
0
10
36.7589743589744
20
75.1065052271515
30
0
0
VERTEX
8
0
10
37.6779487179487
20
75.539457125518
30
0
0
VERTEX
8
0
10
38.5969230769231
20
75.9603073156223
30
0
0
VERTEX
8
0
10
39.5158974358974
20
76.3566264001175
30
0
0
VERTEX
8
0
10
40.4348717948718
20
76.7355559600718
30
0
0
VERTEX
8
0
10
41.3538461538461
20
77.1212545483148
30
0
0
VERTEX
8
0
10
42.2728205128205
20
77.4838811266253
30
0
0
VERTEX
8
0
10
43.1917948717949
20
77.8513987794229
30
0
0
VERTEX
8
0
10
44.1107692307692
20
78.1899802588332
30
0
0
VERTEX
8
0
10
45.0297435897436
20
78.5382888539803
30
0
0
VERTEX
8
0
10
45.9487179487179
20
78.8731979803963
30
0
0
VERTEX
8
0
10
46.8676923076923
20
79.2141854307982
30
0
0
VERTEX
8
0
10
47.7866666666666
20
79.526486309508
30
0
0
VERTEX
8
0
10
48.705641025641
20
79.8428604038636
30
0
0
VERTEX
8
0
10
49.6246153846154
20
80.1503249757702
30
0
0
VERTEX
8
0
10
50.5435897435897
20
80.4515018849751
30
0
0
VERTEX
8
0
10
51.4625641025641
20
80.7425346951184
30
0
0
VERTEX
8
0
10
52.3815384615384
20
81.0374707981801
30
0
0
VERTEX
8
0
10
53.3005128205128
20
81.3174173775687
30
0
0
VERTEX
8
0
10
54.2194871794871
20
81.5999936809162
30
0
0
VERTEX
8
0
10
55.1384615384615
20
81.8751308951619
30
0
0
VERTEX
8
0
10
56.0574358974358
20
82.1439073187582
30
0
0
VERTEX
8
0
10
56.9764102564102
20
82.4071984788545
30
0
0
VERTEX
8
0
10
57.8953846153846
20
82.6693248370736
30
0
0
VERTEX
8
0
10
58.8143589743589
20
82.9231439504749
30
0
0
VERTEX
8
0
10
59.7333333333333
20
83.1832091595289
30
0
0
VERTEX
8
0
10
60.6523076923076
20
83.4269310260934
30
0
0
VERTEX
8
0
10
61.571282051282
20
83.6733556746719
30
0
0
VERTEX
8
0
10
62.4902564102563
20
83.9161097523494
30
0
0
VERTEX
8
0
10
63.4092307692307
20
84.1592968176773
30
0
0
VERTEX
8
0
10
64.328205128205
20
84.3924327733545
30
0
0
VERTEX
8
0
10
65.2471794871794
20
84.6289903783669
30
0
0
VERTEX
8
0
10
66.1661538461537
20
84.8619484023703
30
0
0
VERTEX
8
0
10
67.0851282051281
20
85.0936226504605
30
0
0
VERTEX
8
0
10
68.0041025641025
20
85.3198433681826
30
0
0
VERTEX
8
0
10
68.9230769230768
20
85.541605960206
30
0
0
VERTEX
8
0
10
69.8420512820512
20
85.7625033996839
30
0
0
VERTEX
8
0
10
70.7610256410255
20
85.9848151971294
30
0
0
VERTEX
8
0
10
71.6799999999999
20
86.1960675423768
30
0
0
VERTEX
8
0
10
72.5989743589742
20
86.4075859887775
30
0
0
VERTEX
8
0
10
73.5179487179486
20
86.614646054439
30
0
0
VERTEX
8
0
10
74.436923076923
20
86.8168988315522
30
0
0
VERTEX
8
0
10
75.3558974358973
20
87.0099856599041
30
0
0
VERTEX
8
0
10
76.2748717948717
20
87.2001909551426
30
0
0
VERTEX
8
0
10
77.193846153846
20
87.3833682279415
30
0
0
VERTEX
8
0
10
78.1128205128204
20
87.565603230744
30
0
0
VERTEX
8
0
10
79.0317948717947
20
87.7402444102802
30
0
0
VERTEX
8
0
10
79.9507692307691
20
87.9111150078265
30
0
0
VERTEX
8
0
10
80.8697435897435
20
88.0822314298761
30
0
0
VERTEX
8
0
10
81.7887179487178
20
88.2454126107392
30
0
0
VERTEX
8
0
10
82.7076923076922
20
88.3970376040777
30
0
0
VERTEX
8
0
10
83.6266666666665
20
88.5459462897683
30
0
0
VERTEX
8
0
10
84.5456410256409
20
88.686486643145
30
0
0
VERTEX
8
0
10
85.4646153846152
20
88.8227529966319
30
0
0
VERTEX
8
0
10
86.3835897435896
20
88.9478124929413
30
0
0
VERTEX
8
0
10
87.3025641025639
20
89.0709664248215
30
0
0
VERTEX
8
0
10
88.2215384615383
20
89.1896263014809
30
0
0
VERTEX
8
0
10
89.1405128205126
20
89.30557730593
30
0
0
VERTEX
8
0
10
90.059487179487
20
89.4103031901218
30
0
0
VERTEX
8
0
10
90.9784615384614
20
89.5107723771683
30
0
0
VERTEX
8
0
10
91.8974358974357
20
89.6085057434635
30
0
0
VERTEX
8
0
10
92.8164102564101
20
89.6969734784198
30
0
0
VERTEX
8
0
10
93.7353846153844
20
89.7766058676629
30
0
0
VERTEX
8
0
10
94.6543589743588
20
89.8521326924374
30
0
0
VERTEX
8
0
10
95.5733333333331
20
89.9243436009446
30
0
0
VERTEX
8
0
10
96.4923076923075
20
89.9936204957354
30
0
0
VERTEX
8
0
10
97.4112820512818
20
90.0544327860104
30
0
0
VERTEX
8
0
10
98.3302564102562
20
90.1082288546265
30
0
0
VERTEX
8
0
10
99.2492307692306
20
90.1606782887463
30
0
0
VERTEX
8
0
10
100.168205128205
20
90.2035962840734
30
0
0
VERTEX
8
0
10
101.087179487179
20
90.2368184062355
30
0
0
VERTEX
8
0
10
102.006153846154
20
90.2661833077068
30
0
0
VERTEX
8
0
10
102.925128205128
20
90.2946582410507
30
0
0
VERTEX
8
0
10
103.844102564102
20
90.3195235666573
30
0
0
VERTEX
8
0
10
104.763076923077
20
90.3381883773709
30
0
0
VERTEX
8
0
10
105.682051282051
20
90.348597866337
30
0
0
VERTEX
8
0
10
106.601025641025
20
90.3553014211102
30
0
0
VERTEX
8
0
10
107.52
20
90.3579421938841
30
0
0
VERTEX
8
0
10
108.438974358974
20
90.3527017654288
30
0
0
VERTEX
8
0
10
109.357948717948
20
90.3430969723238
30
0
0
VERTEX
8
0
10
110.276923076923
20
90.3312745694993
30
0
0
VERTEX
8
0
10
111.195897435897
20
90.3164953749175
30
0
0
VERTEX
8
0
10
112.114871794872
20
90.295261150848
30
0
0
VERTEX
8
0
10
113.033846153846
20
90.2702221582883
30
0
0
VERTEX
8
0
10
113.95282051282
20
90.2382132810928
30
0
0
VERTEX
8
0
10
114.871794871795
20
90.2019688889431
30
0
0
VERTEX
8
0
10
115.790769230769
20
90.1612211950059
30
0
0
VERTEX
8
0
10
116.709743589743
20
90.1202621803072
30
0
0
VERTEX
8
0
10
117.628717948718
20
90.0776237717506
30
0
0
VERTEX
8
0
10
118.547692307692
20
90.0264898861548
30
0
0
VERTEX
8
0
10
119.466666666666
20
89.9719697840254
30
0
0
VERTEX
8
0
10
120.385641025641
20
89.9167846057288
30
0
0
VERTEX
8
0
10
121.304615384615
20
89.8635534077938
30
0
0
VERTEX
8
0
10
122.223589743589
20
89.8101306461031
30
0
0
VERTEX
8
0
10
123.142564102564
20
89.7561516381329
30
0
0
VERTEX
8
0
10
124.061538461538
20
89.6941155977354
30
0
0
VERTEX
8
0
10
124.980512820513
20
89.6298361541067
30
0
0
VERTEX
8
0
10
125.899487179487
20
89.5645256007232
30
0
0
VERTEX
8
0
10
126.818461538461
20
89.4996611096882
30
0
0
VERTEX
8
0
10
127.737435897436
20
89.4338840218258
30
0
0
VERTEX
8
0
10
128.65641025641
20
89.3680928775553
30
0
0
VERTEX
8
0
10
129.575384615384
20
89.2965046077562
30
0
0
VERTEX
8
0
10
130.494358974359
20
89.2227146811749
30
0
0
VERTEX
8
0
10
131.413333333333
20
89.1482635552444
30
0
0
VERTEX
8
0
10
132.332307692307
20
89.0742626859493
30
0
0
VERTEX
8
0
10
133.251282051282
20
88.9991030480681
30
0
0
VERTEX
8
0
10
134.170256410256
20
88.9243333834587
30
0
0
VERTEX
8
0
10
135.08923076923
20
88.850365966948
30
0
0
VERTEX
8
0
10
136.008205128205
20
88.776385815462
30
0
0
VERTEX
8
0
10
136.927179487179
20
88.7013136451145
30
0
0
VERTEX
8
0
10
137.846153846153
20
88.6208407574297
30
0
0
VERTEX
8
0
10
138.765128205128
20
88.5400449472597
30
0
0
VERTEX
8
0
10
139.684102564102
20
88.4621157891794
30
0
0
VERTEX
8
0
10
140.603076923077
20
88.3844820152101
30
0
0
VERTEX
8
0
10
141.522051282051
20
88.3117293063943
30
0
0
VERTEX
8
0
10
142.441025641025
20
88.2334458599728
30
0
0
VERTEX
8
0
10
143.36
20
88.1543452538231
30
0
0
VERTEX
8
0
10
144.278974358974
20
88.0763056542682
30
0
0
VERTEX
8
0
10
145.197948717948
20
88.0000552647864
30
0
0
VERTEX
8
0
10
146.116923076923
20
87.9259830182726
30
0
0
VERTEX
8
0
10
147.035897435897
20
87.8561738924284
30
0
0
VERTEX
8
0
10
147.954871794871
20
87.7916984626926
30
0
0
VERTEX
8
0
10
148.873846153846
20
87.7304199736866
30
0
0
VERTEX
8
0
10
149.79282051282
20
87.6722814102445
30
0
0
VERTEX
8
0
10
150.711794871795
20
87.6115094375982
30
0
0
VERTEX
8
0
10
151.630769230769
20
87.5517389305118
30
0
0
VERTEX
8
0
10
152.549743589743
20
87.4953178151176
30
0
0
VERTEX
8
0
10
153.468717948718
20
87.4449683103636
30
0
0
VERTEX
8
0
10
154.387692307692
20
87.3958548721815
30
0
0
VERTEX
8
0
10
155.306666666666
20
87.3481678083064
30
0
0
VERTEX
8
0
10
156.225641025641
20
87.2959703319356
30
0
0
VERTEX
8
0
10
157.144615384615
20
87.2446085794591
30
0
0
VERTEX
8
0
10
158.063589743589
20
87.1943495470106
30
0
0
VERTEX
8
0
10
158.982564102564
20
87.1451580355742
30
0
0
VERTEX
8
0
10
159.901538461538
20
87.0974792413823
30
0
0
VERTEX
8
0
10
160.820512820513
20
87.0537142197129
30
0
0
VERTEX
8
0
10
161.739487179487
20
87.0091472128224
30
0
0
VERTEX
8
0
10
162.658461538461
20
86.9691399943334
30
0
0
VERTEX
8
0
10
163.577435897436
20
86.9256309691861
30
0
0
VERTEX
8
0
10
164.49641025641
20
86.8817659685432
30
0
0
VERTEX
8
0
10
165.415384615384
20
86.8386093385957
30
0
0
VERTEX
8
0
10
166.334358974359
20
86.7961817561428
30
0
0
VERTEX
8
0
10
167.253333333333
20
86.7544732269636
30
0
0
VERTEX
8
0
10
168.172307692308
20
86.7145323516597
30
0
0
VERTEX
8
0
10
169.091282051282
20
86.6777242513516
30
0
0
VERTEX
8
0
10
170.010256410256
20
86.6418904294578
30
0
0
VERTEX
8
0
10
170.929230769231
20
86.6095753368927
30
0
0
VERTEX
8
0
10
171.848205128205
20
86.5739582698752
30
0
0
SEQEND
8
0
0
POLYLINE
8
0
62
4
70
0
10
0
20
0
30
0
0
VERTEX
8
0
10
1.83794871794872
20
17.7293807101883
30
0
0
VERTEX
8
0
10
2.75692307692308
20
22.1361583255706
30
0
0
VERTEX
8
0
10
3.67589743589744
20
25.6504610179097
30
0
0
VERTEX
8
0
10
4.59487179487179
20
29.2200046589429
30
0
0
VERTEX
8
0
10
5.51384615384615
20
32.2973628502265
30
0
0
VERTEX
8
0
10
6.43282051282051
20
35.4919479251705
30
0
0
VERTEX
8
0
10
7.35179487179487
20
37.9946103416545
30
0
0
VERTEX
8
0
10
8.27076923076923
20
40.1724407489285
30
0
0
VERTEX
8
0
10
9.18974358974359
20
42.4013601706571
30
0
0
VERTEX
8
0
10
10.1087179487179
20
44.5238016174887
30
0
0
VERTEX
8
0
10
11.0276923076923
20
46.4085280993323
30
0
0
VERTEX
8
0
10
11.9466666666667
20
48.2260538941781
30
0
0
VERTEX
8
0
10
12.865641025641
20
50.0744698918448
30
0
0
VERTEX
8
0
10
13.7846153846154
20
51.5720615710322
30
0
0
VERTEX
8
0
10
14.7035897435897
20
53.2005620322352
30
0
0
VERTEX
8
0
10
15.6225641025641
20
54.6237319643694
30
0
0
VERTEX
8
0
10
16.5415384615385
20
56.0215476962903
30
0
0
VERTEX
8
0
10
17.4605128205128
20
57.4052187787973
30
0
0
VERTEX
8
0
10
18.3794871794872
20
58.6399908335977
30
0
0
VERTEX
8
0
10
19.2984615384615
20
59.8744248569094
30
0
0
VERTEX
8
0
10
20.2174358974359
20
61.1050395711868
30
0
0
VERTEX
8
0
10
21.1364102564103
20
62.200050888524
30
0
0
VERTEX
8
0
10
22.0553846153846
20
63.291672097079
30
0
0
VERTEX
8
0
10
22.974358974359
20
64.4016694438462
30
0
0
VERTEX
8
0
10
23.8933333333333
20
65.2950599869623
30
0
0
VERTEX
8
0
10
24.8123076923077
20
66.2193646862307
30
0
0
VERTEX
8
0
10
25.7312820512821
20
67.1403919798577
30
0
0
VERTEX
8
0
10
26.6502564102564
20
67.9484984831666
30
0
0
VERTEX
8
0
10
27.5692307692308
20
68.7694621880157
30
0
0
VERTEX
8
0
10
28.4882051282051
20
69.5733687168223
30
0
0
VERTEX
8
0
10
29.4071794871795
20
70.2221787365363
30
0
0
VERTEX
8
0
10
30.3261538461539
20
70.8814802717419
30
0
0
VERTEX
8
0
10
31.2451282051282
20
71.5256922792794
30
0
0
VERTEX
8
0
10
32.1641025641026
20
72.1228074145581
30
0
0
VERTEX
8
0
10
33.0830769230769
20
72.7284369855379
30
0
0
VERTEX
8
0
10
34.0020512820513
20
73.2930739705539
30
0
0
VERTEX
8
0
10
34.9210256410257
20
73.758980366018
30
0
0
VERTEX
8
0
10
35.84
20
74.2369569466352
30
0
0
VERTEX
8
0
10
36.7589743589744
20
74.6729990714674
30
0
0
VERTEX
8
0
10
37.6779487179487
20
75.0958664365293
30
0
0
VERTEX
8
0
10
38.5969230769231
20
75.5057692427947
30
0
0
VERTEX
8
0
10
39.5158974358974
20
75.8911399797997
30
0
0
VERTEX
8
0
10
40.4348717948718
20
76.2535002084239
30
0
0
VERTEX
8
0
10
41.3538461538461
20
76.6109777986386
30
0
0
VERTEX
8
0
10
42.2728205128205
20
76.9306398518165
30
0
0
VERTEX
8
0
10
43.1917948717949
20
77.2547453698992
30
0
0
VERTEX
8
0
10
44.1107692307692
20
77.5848062150233
30
0
0
VERTEX
8
0
10
45.0297435897436
20
77.8956833095601
30
0
0
VERTEX
8
0
10
45.9487179487179
20
78.1966739669021
30
0
0
VERTEX
8
0
10
46.8676923076923
20
78.5003719775111
30
0
0
VERTEX
8
0
10
47.7866666666666
20
78.7860545809215
30
0
0
VERTEX
8
0
10
48.705641025641
20
79.0764116959179
30
0
0
VERTEX
8
0
10
49.6246153846154
20
79.3549531841069
30
0
0
VERTEX
8
0
10
50.5435897435897
20
79.6311571215669
30
0
0
VERTEX
8
0
10
51.4625641025641
20
79.924593523245
30
0
0
VERTEX
8
0
10
52.3815384615384
20
80.2121211348921
30
0
0
VERTEX
8
0
10
53.3005128205128
20
80.4856275969874
30
0
0
VERTEX
8
0
10
54.2194871794871
20
80.7727575021543
30
0
0
VERTEX
8
0
10
55.1384615384615
20
81.0591147989575
30
0
0
VERTEX
8
0
10
56.0574358974358
20
81.3311604920522
30
0
0
VERTEX
8
0
10
56.9764102564102
20
81.6031344230051
30
0
0
VERTEX
8
0
10
57.8953846153846
20
81.8683211324884
30
0
0
VERTEX
8
0
10
58.8143589743589
20
82.1349678112142
30
0
0
VERTEX
8
0
10
59.7333333333333
20
82.4183851635625
30
0
0
VERTEX
8
0
10
60.6523076923076
20
82.6882440904523
30
0
0
VERTEX
8
0
10
61.571282051282
20
82.9577382347744
30
0
0
VERTEX
8
0
10
62.4902564102563
20
83.229299757781
30
0
0
VERTEX
8
0
10
63.4092307692307
20
83.5055301715555
30
0
0
VERTEX
8
0
10
64.328205128205
20
83.7711799957101
30
0
0
VERTEX
8
0
10
65.2471794871794
20
84.0364651770437
30
0
0
VERTEX
8
0
10
66.1661538461537
20
84.3081671584836
30
0
0
VERTEX
8
0
10
67.0851282051281
20
84.5778975350281
30
0
0
VERTEX
8
0
10
68.0041025641025
20
84.8452757714681
30
0
0
VERTEX
8
0
10
68.9230769230768
20
85.1043215675115
30
0
0
VERTEX
8
0
10
69.8420512820512
20
85.3650300610939
30
0
0
VERTEX
8
0
10
70.7610256410255
20
85.6202154404134
30
0
0
VERTEX
8
0
10
71.6799999999999
20
85.8665759544161
30
0
0
VERTEX
8
0
10
72.5989743589742
20
86.1215645942218
30
0
0
VERTEX
8
0
10
73.5179487179486
20
86.381924691266
30
0
0
VERTEX
8
0
10
74.436923076923
20
86.6365414453301
30
0
0
VERTEX
8
0
10
75.3558974358973
20
86.8551555399219
30
0
0
VERTEX
8
0
10
76.2748717948717
20
87.0733816456887
30
0
0
VERTEX
8
0
10
77.193846153846
20
87.2920692897645
30
0
0
VERTEX
8
0
10
78.1128205128204
20
87.4680976848909
30
0
0
VERTEX
8
0
10
79.0317948717947
20
87.6259910889166
30
0
0
VERTEX
8
0
10
79.9507692307691
20
87.7810545946263
30
0
0
VERTEX
8
0
10
80.8697435897435
20
87.9406864176381
30
0
0
VERTEX
8
0
10
81.7887179487178
20
88.0897332142474
30
0
0
VERTEX
8
0
10
82.7076923076922
20
88.2313076622541
30
0
0
VERTEX
8
0
10
83.6266666666665
20
88.3797922567241
30
0
0
VERTEX
8
0
10
84.5456410256409
20
88.5300207351399
30
0
0
VERTEX
8
0
10
85.4646153846152
20
88.6756583220923
30
0
0
VERTEX
8
0
10
86.3835897435896
20
88.8077297904762
30
0
0
VERTEX
8
0
10
87.3025641025639
20
88.9342490784348
30
0
0
VERTEX
8
0
10
88.2215384615383
20
89.0612995670972
30
0
0
VERTEX
8
0
10
89.1405128205126
20
89.1660923442292
30
0
0
VERTEX
8
0
10
90.059487179487
20
89.2735169211576
30
0
0
VERTEX
8
0
10
90.9784615384614
20
89.3757631101092
30
0
0
VERTEX
8
0
10
91.8974358974357
20
89.4243098652702
30
0
0
VERTEX
8
0
10
92.8164102564101
20
89.4730415670647
30
0
0
VERTEX
8
0
10
93.7353846153844
20
89.5163229181845
30
0
0
VERTEX
8
0
10
94.6543589743588
20
89.5462592165634
30
0
0
VERTEX
8
0
10
95.5733333333331
20
89.5795682916026
30
0
0
VERTEX
8
0
10
96.4923076923075
20
89.6088594730814
30
0
0
VERTEX
8
0
10
97.4112820512818
20
89.6329446528346
30
0
0
VERTEX
8
0
10
98.3302564102562
20
89.6516860815701
30
0
0
VERTEX
8
0
10
99.2492307692306
20
89.6722366295529
30
0
0
VERTEX
8
0
10
100.168205128205
20
89.6946224223061
30
0
0
VERTEX
8
0
10
101.087179487179
20
89.7068292993716
30
0
0
VERTEX
8
0
10
102.006153846154
20
89.7152880972261
30
0
0
VERTEX
8
0
10
102.925128205128
20
89.7303539346137
30
0
0
VERTEX
8
0
10
103.844102564102
20
89.7430130657013
30
0
0
VERTEX
8
0
10
104.763076923077
20
89.7526518940012
30
0
0
VERTEX
8
0
10
105.682051282051
20
89.7621138711966
30
0
0
VERTEX
8
0
10
106.601025641025
20
89.7691578244949
30
0
0
VERTEX
8
0
10
107.52
20
89.7766206848686
30
0
0
VERTEX
8
0
10
108.438974358974
20
89.7855148627495
30
0
0
VERTEX
8
0
10
109.357948717948
20
89.7900489403522
30
0
0
VERTEX
8
0
10
110.276923076923
20
89.7816484015745
30
0
0
VERTEX
8
0
10
111.195897435897
20
89.7633722568797
30
0
0
VERTEX
8
0
10
112.114871794872
20
89.7433236159344
30
0
0
VERTEX
8
0
10
113.033846153846
20
89.743311660208
30
0
0
VERTEX
8
0
10
113.95282051282
20
89.7363268795801
30
0
0
VERTEX
8
0
10
114.871794871795
20
89.7265260291323
30
0
0
VERTEX
8
0
10
115.790769230769
20
89.704478102995
30
0
0
VERTEX
8
0
10
116.709743589743
20
89.6830042107269
30
0
0
VERTEX
8
0
10
117.628717948718
20
89.6623229196371
30
0
0
VERTEX
8
0
10
118.547692307692
20
89.6304201872812
30
0
0
VERTEX
8
0
10
119.466666666666
20
89.5954767391145
30
0
0
VERTEX
8
0
10
120.385641025641
20
89.5590874755717
30
0
0
VERTEX
8
0
10
121.304615384615
20
89.5397001683208
30
0
0
VERTEX
8
0
10
122.223589743589
20
89.5167783004334
30
0
0
VERTEX
8
0
10
123.142564102564
20
89.4936767570397
30
0
0
VERTEX
8
0
10
124.061538461538
20
89.459109504361
30
0
0
VERTEX
8
0
10
124.980512820513
20
89.4233982206531
30
0
0
VERTEX
8
0
10
125.899487179487
20
89.3867519801635
30
0
0
VERTEX
8
0
10
126.818461538461
20
89.3639946415775
30
0
0
VERTEX
8
0
10
127.737435897436
20
89.3365504289136
30
0
0
VERTEX
8
0
10
128.65641025641
20
89.3090633009123
30
0
0
VERTEX
8
0
10
129.575384615384
20
89.2591497607037
30
0
0
VERTEX
8
0
10
130.494358974359
20
89.2113906591646
30
0
0
VERTEX
8
0
10
131.413333333333
20
89.1577191269958
30
0
0
VERTEX
8
0
10
132.332307692307
20
89.1038199137058
30
0
0
VERTEX
8
0
10
133.251282051282
20
89.0483129090252
30
0
0
VERTEX
8
0
10
134.170256410256
20
88.9880120685967
30
0
0
VERTEX
8
0
10
135.08923076923
20
88.9294622368991
30
0
0
VERTEX
8
0
10
136.008205128205
20
88.8708441555803
30
0
0
VERTEX
8
0
10
136.927179487179
20
88.8136911676596
30
0
0
VERTEX
8
0
10
137.846153846153
20
88.7533790829948
30
0
0
VERTEX
8
0
10
138.765128205128
20
88.6923915032275
30
0
0
VERTEX
8
0
10
139.684102564102
20
88.6309210968672
30
0
0
VERTEX
8
0
10
140.603076923077
20
88.5685995056359
30
0
0
VERTEX
8
0
10
141.522051282051
20
88.5105049144611
30
0
0
VERTEX
8
0
10
142.441025641025
20
88.4512499370419
30
0
0
VERTEX
8
0
10
143.36
20
88.3896602597546
30
0
0
VERTEX
8
0
10
144.278974358974
20
88.3278434974404
30
0
0
VERTEX
8
0
10
145.197948717948
20
88.2686576813761
30
0
0
VERTEX
8
0
10
146.116923076923
20
88.2080629545198
30
0
0
VERTEX
8
0
10
147.035897435897
20
88.1491948891234
30
0
0
VERTEX
8
0
10
147.954871794871
20
88.0892464958714
30
0
0
VERTEX
8
0
10
148.873846153846
20
88.0296917904189
30
0
0
VERTEX
8
0
10
149.79282051282
20
87.9711167021949
30
0
0
VERTEX
8
0
10
150.711794871795
20
87.9190955000982
30
0
0
VERTEX
8
0
10
151.630769230769
20
87.8664014416075
30
0
0
VERTEX
8
0
10
152.549743589743
20
87.8155396582114
30
0
0
VERTEX
8
0
10
153.468717948718
20
87.7607382059714
30
0
0
VERTEX
8
0
10
154.387692307692
20
87.7064360034455
30
0
0
VERTEX
8
0
10
155.306666666666
20
87.6535250329234
30
0
0
VERTEX
8
0
10
156.225641025641
20
87.5944793313669
30
0
0
VERTEX
8
0
10
157.144615384615
20
87.5354070445681
30
0
0
VERTEX
8
0
10
158.063589743589
20
87.477842275014
30
0
0
VERTEX
8
0
10
158.982564102564
20
87.4310951351039
30
0
0
VERTEX
8
0
10
159.901538461538
20
87.3850130723592
30
0
0
VERTEX
8
0
10
160.820512820513
20
87.3412594402182
30
0
0
VERTEX
8
0
10
161.739487179487
20
87.2859182923026
30
0
0
VERTEX
8
0
10
162.658461538461
20
87.2368583369932
30
0
0
VERTEX
8
0
10
163.577435897436
20
87.1859137470214
30
0
0
VERTEX
8
0
10
164.49641025641
20
87.1356198137562
30
0
0
VERTEX
8
0
10
165.415384615384
20
87.0854267501365
30
0
0
VERTEX
8
0
10
166.334358974359
20
87.0382827480188
30
0
0
VERTEX
8
0
10
167.253333333333
20
87.0002459091182
30
0
0
VERTEX
8
0
10
168.172307692308
20
86.9614657008676
30
0
0
VERTEX
8
0
10
169.091282051282
20
86.9263138357678
30
0
0
VERTEX
8
0
10
170.010256410256
20
86.8880956810111
30
0
0
VERTEX
8
0
10
170.929230769231
20
86.8538860062914
30
0
0
VERTEX
8
0
10
171.848205128205
20
86.7926469295489
30
0
0
SEQEND
8
0
0
POLYLINE
8
0
62
2
70
0
10
0
20
0
30
0
0
VERTEX
8
0
10
1.83794871794872
20
14.3329762742177
30
0
0
VERTEX
8
0
10
2.75692307692308
20
16.9165657224438
30
0
0
VERTEX
8
0
10
3.67589743589744
20
18.2500542169235
30
0
0
VERTEX
8
0
10
4.59487179487179
20
19.385270306487
30
0
0
VERTEX
8
0
10
5.51384615384615
20
20.3949749581067
30
0
0
VERTEX
8
0
10
6.43282051282051
20
20.836008145524
30
0
0
VERTEX
8
0
10
7.35179487179487
20
21.4195124271927
30
0
0
VERTEX
8
0
10
8.27076923076923
20
21.5538015846404
30
0
0
VERTEX
8
0
10
9.18974358974359
20
21.7949451991288
30
0
0
VERTEX
8
0
10
10.1087179487179
20
22.0908804287415
30
0
0
VERTEX
8
0
10
11.0276923076923
20
22.0331601836959
30
0
0
VERTEX
8
0
10
11.9466666666667
20
22.0920995809603
30
0
0
VERTEX
8
0
10
12.865641025641
20
22.194051117031
30
0
0
VERTEX
8
0
10
13.7846153846154
20
22.1025145182782
30
0
0
VERTEX
8
0
10
14.7035897435897
20
22.0953713502612
30
0
0
VERTEX
8
0
10
15.6225641025641
20
22.0430240540061
30
0
0
VERTEX
8
0
10
16.5415384615385
20
21.952458923036
30
0
0
VERTEX
8
0
10
17.4605128205128
20
21.8765688969089
30
0
0
VERTEX
8
0
10
18.3794871794872
20
21.7760574850627
30
0
0
VERTEX
8
0
10
19.2984615384615
20
21.6692360334648
30
0
0
VERTEX
8
0
10
20.2174358974359
20
21.5759098710695
30
0
0
VERTEX
8
0
10
21.1364102564103
20
21.4581774509967
30
0
0
VERTEX
8
0
10
22.0553846153846
20
21.3412068740693
30
0
0
VERTEX
8
0
10
22.974358974359
20
21.2369425033144
30
0
0
VERTEX
8
0
10
23.8933333333333
20
21.0978867980904
30
0
0
VERTEX
8
0
10
24.8123076923077
20
20.9628171253395
30
0
0
VERTEX
8
0
10
25.7312820512821
20
20.8402416192099
30
0
0
VERTEX
8
0
10
26.6502564102564
20
20.7285226197854
30
0
0
VERTEX
8
0
10
27.5692307692308
20
20.6209648245026
30
0
0
VERTEX
8
0
10
28.4882051282051
20
20.5244278866632
30
0
0
VERTEX
8
0
10
29.4071794871795
20
20.3725911435425
30
0
0
VERTEX
8
0
10
30.3261538461539
20
20.2351556519638
30
0
0
VERTEX
8
0
10
31.2451282051282
20
20.1077188651429
30
0
0
VERTEX
8
0
10
32.1641025641026
20
19.9939007257824
30
0
0
VERTEX
8
0
10
33.0830769230769
20
19.8886942266222
30
0
0
VERTEX
8
0
10
34.0020512820513
20
19.7880504827243
30
0
0
VERTEX
8
0
10
34.9210256410257
20
19.675700179441
30
0
0
VERTEX
8
0
10
35.84
20
19.5779527888871
30
0
0
VERTEX
8
0
10
36.7589743589744
20
19.4561698120784
30
0
0
VERTEX
8
0
10
37.6779487179487
20
19.3207317036384
30
0
0
VERTEX
8
0
10
38.5969230769231
20
19.1920424368325
30
0
0
VERTEX
8
0
10
39.5158974358974
20
19.0770516898083
30
0
0
VERTEX
8
0
10
40.4348717948718
20
18.9685343275287
30
0
0
VERTEX
8
0
10
41.3538461538461
20
18.8661803389065
30
0
0
VERTEX
8
0
10
42.2728205128205
20
18.7353820232336
30
0
0
VERTEX
8
0
10
43.1917948717949
20
18.60088045435
30
0
0
VERTEX
8
0
10
44.1107692307692
20
18.4718989191973
30
0
0
VERTEX
8
0
10
45.0297435897436
20
18.3701392008707
30
0
0
VERTEX
8
0
10
45.9487179487179
20
18.2704394903011
30
0
0
VERTEX
8
0
10
46.8676923076923
20
18.1759325969371
30
0
0
VERTEX
8
0
10
47.7866666666666
20
18.0743704574066
30
0
0
VERTEX
8
0
10
48.705641025641
20
17.9748601254592
30
0
0
VERTEX
8
0
10
49.6246153846154
20
17.8802068492915
30
0
0
VERTEX
8
0
10
50.5435897435897
20
17.7875964529777
30
0
0
VERTEX
8
0
10
51.4625641025641
20
17.6961996459975
30
0
0
VERTEX
8
0
10
52.3815384615384
20
17.6092038633918
30
0
0
VERTEX
8
0
10
53.3005128205128
20
17.5220251439308
30
0
0
VERTEX
8
0
10
54.2194871794871
20
17.4414886611984
30
0
0
VERTEX
8
0
10
55.1384615384615
20
17.3617071156983
30
0
0
VERTEX
8
0
10
56.0574358974358
20
17.272288244505
30
0
0
VERTEX
8
0
10
56.9764102564102
20
17.1913168558406
30
0
0
VERTEX
8
0
10
57.8953846153846
20
17.1073849500562
30
0
0
VERTEX
8
0
10
58.8143589743589
20
17.0222477616399
30
0
0
VERTEX
8
0
10
59.7333333333333
20
16.9410156558293
30
0
0
VERTEX
8
0
10
60.6523076923076
20
16.8567847690554
30
0
0
VERTEX
8
0
10
61.571282051282
20
16.7719518924814
30
0
0
VERTEX
8
0
10
62.4902564102563
20
16.6907540837264
30
0
0
VERTEX
8
0
10
63.4092307692307
20
16.6127476786486
30
0
0
VERTEX
8
0
10
64.328205128205
20
16.5357815582482
30
0
0
VERTEX
8
0
10
65.2471794871794
20
16.462487861768
30
0
0
VERTEX
8
0
10
66.1661538461537
20
16.3927104401512
30
0
0
VERTEX
8
0
10
67.0851282051281
20
16.3239432217596
30
0
0
VERTEX
8
0
10
68.0041025641025
20
16.2574846457117
30
0
0
VERTEX
8
0
10
68.9230769230768
20
16.1794810241244
30
0
0
VERTEX
8
0
10
69.8420512820512
20
16.102751098258
30
0
0
VERTEX
8
0
10
70.7610256410255
20
16.029071785077
30
0
0
VERTEX
8
0
10
71.6799999999999
20
15.9608201348983
30
0
0
VERTEX
8
0
10
72.5989743589742
20
15.8927426557583
30
0
0
VERTEX
8
0
10
73.5179487179486
20
15.8259237638562
30
0
0
VERTEX
8
0
10
74.436923076923
20
15.7500070897965
30
0
0
VERTEX
8
0
10
75.3558974358973
20
15.678633742121
30
0
0
VERTEX
8
0
10
76.2748717948717
20
15.6034776890606
30
0
0
VERTEX
8
0
10
77.193846153846
20
15.5214727083124
30
0
0
VERTEX
8
0
10
78.1128205128204
20
15.4432533293884
30
0
0
VERTEX
8
0
10
79.0317948717947
20
15.3847563159426
30
0
0
VERTEX
8
0
10
79.9507692307691
20
15.3377914952941
30
0
0
VERTEX
8
0
10
80.8697435897435
20
15.2946918677189
30
0
0
VERTEX
8
0
10
81.7887179487178
20
15.2433387880673
30
0
0
VERTEX
8
0
10
82.7076923076922
20
15.1897696717005
30
0
0
VERTEX
8
0
10
83.6266666666665
20
15.1369538089265
30
0
0
VERTEX
8
0
10
84.5456410256409
20
15.0670974894046
30
0
0
VERTEX
8
0
10
85.4646153846152
20
14.9937201374153
30
0
0
VERTEX
8
0
10
86.3835897435896
20
14.9230030867447
30
0
0
VERTEX
8
0
10
87.3025641025639
20
14.8647683018467
30
0
0
VERTEX
8
0
10
88.2215384615383
20
14.807652986162
30
0
0
VERTEX
8
0
10
89.1405128205126
20
14.7527839768536
30
0
0
VERTEX
8
0
10
90.059487179487
20
14.7032370261649
30
0
0
VERTEX
8
0
10
90.9784615384614
20
14.654483770218
30
0
0
VERTEX
8
0
10
91.8974358974357
20
14.6051388377457
30
0
0
VERTEX
8
0
10
92.8164102564101
20
14.5415251822282
30
0
0
VERTEX
8
0
10
93.7353846153844
20
14.4792763430542
30
0
0
VERTEX
8
0
10
94.6543589743588
20
14.4206419537804
30
0
0
VERTEX
8
0
10
95.5733333333331
20
14.3722212644569
30
0
0
VERTEX
8
0
10
96.4923076923075
20
14.3253581486691
30
0
0
VERTEX
8
0
10
97.4112820512818
20
14.2839210260233
30
0
0
VERTEX
8
0
10
98.3302564102562
20
14.2440669208918
30
0
0
VERTEX
8
0
10
99.2492307692306
20
14.2051931606929
30
0
0
VERTEX
8
0
10
100.168205128205
20
14.1420794063037
30
0
0
VERTEX
8
0
10
101.087179487179
20
14.0755450632247
30
0
0
VERTEX
8
0
10
102.006153846154
20
14.0121962375698
30
0
0
VERTEX
8
0
10
102.925128205128
20
13.9665462892334
30
0
0
VERTEX
8
0
10
103.844102564102
20
13.9319274777213
30
0
0
VERTEX
8
0
10
104.763076923077
20
13.8984155661035
30
0
0
VERTEX
8
0
10
105.682051282051
20
13.8512379117533
30
0
0
VERTEX
8
0
10
106.601025641025
20
13.800990721628
30
0
0
VERTEX
8
0
10
107.52
20
13.7517022665711
30
0
0
VERTEX
8
0
10
108.438974358974
20
13.7015670680617
30
0
0
VERTEX
8
0
10
109.357948717948
20
13.6510614393841
30
0
0
VERTEX
8
0
10
110.276923076923
20
13.6042913197675
30
0
0
VERTEX
8
0
10
111.195897435897
20
13.5702318501947
30
0
0
VERTEX
8
0
10
112.114871794872
20
13.537660391922
30
0
0
VERTEX
8
0
10
113.033846153846
20
13.5012354224499
30
0
0
VERTEX
8
0
10
113.95282051282
20
13.4472776506248
30
0
0
VERTEX
8
0
10
114.871794871795
20
13.3902583777933
30
0
0
VERTEX
8
0
10
115.790769230769
20
13.3432162027808
30
0
0
VERTEX
8
0
10
116.709743589743
20
13.3333199685644
30
0
0
VERTEX
8
0
10
117.628717948718
20
13.3173785166418
30
0
0
VERTEX
8
0
10
118.547692307692
20
13.2713251204519
30
0
0
VERTEX
8
0
10
119.466666666666
20
13.2175057711302
30
0
0
VERTEX
8
0
10
120.385641025641
20
13.1668115929313
30
0
0
VERTEX
8
0
10
121.304615384615
20
13.1349551205859
30
0
0
VERTEX
8
0
10
122.223589743589
20
13.1218371197923
30
0
0
VERTEX
8
0
10
123.142564102564
20
13.1079630557458
30
0
0
VERTEX
8
0
10
124.061538461538
20
13.0635249732791
30
0
0
VERTEX
8
0
10
124.980512820513
20
13.0123317572807
30
0
0
VERTEX
8
0
10
125.899487179487
20
12.966244304635
30
0
0
VERTEX
8
0
10
126.818461538461
20
12.9400002696449
30
0
0
VERTEX
8
0
10
127.737435897436
20
12.9217390742516
30
0
0
VERTEX
8
0
10
128.65641025641
20
12.900089746401
30
0
0
VERTEX
8
0
10
129.575384615384
20
12.8570741780335
30
0
0
VERTEX
8
0
10
130.494358974359
20
12.8095885711573
30
0
0
VERTEX
8
0
10
131.413333333333
20
12.7653259013387
30
0
0
VERTEX
8
0
10
132.332307692307
20
12.7299054539464
30
0
0
VERTEX
8
0
10
133.251282051282
20
12.6945901131321
30
0
0
VERTEX
8
0
10
134.170256410256
20
12.6657283822233
30
0
0
VERTEX
8
0
10
135.08923076923
20
12.6555174134767
30
0
0
VERTEX
8
0
10
136.008205128205
20
12.6472608845701
30
0
0
VERTEX
8
0
10
136.927179487179
20
12.6301977599896
30
0
0
VERTEX
8
0
10
137.846153846153
20
12.589549032565
30
0
0
VERTEX
8
0
10
138.765128205128
20
12.5456814699654
30
0
0
VERTEX
8
0
10
139.684102564102
20
12.517305999532
30
0
0
VERTEX
8
0
10
140.603076923077
20
12.5107847307535
30
0
0
VERTEX
8
0
10
141.522051282051
20
12.508519206149
30
0
0
VERTEX
8
0
10
142.441025641025
20
12.4783891838067
30
0
0
VERTEX
8
0
10
143.36
20
12.437108688949
30
0
0
VERTEX
8
0
10
144.278974358974
20
12.3958989319151
30
0
0
VERTEX
8
0
10
145.197948717948
20
12.3568322810817
30
0
0
VERTEX
8
0
10
146.116923076923
20
12.319589080872
30
0
0
VERTEX
8
0
10
147.035897435897
20
12.2899851647722
30
0
0
VERTEX
8
0
10
147.954871794871
20
12.2798220589811
30
0
0
VERTEX
8
0
10
148.873846153846
20
12.2766591327296
30
0
0
VERTEX
8
0
10
149.79282051282
20
12.2661462837666
30
0
0
VERTEX
8
0
10
150.711794871795
20
12.2314047191742
30
0
0
VERTEX
8
0
10
151.630769230769
20
12.1904044373922
30
0
0
VERTEX
8
0
10
152.549743589743
20
12.1609679295665
30
0
0
VERTEX
8
0
10
153.468717948718
20
12.1629539768906
30
0
0
VERTEX
8
0
10
154.387692307692
20
12.1675127246684
30
0
0
VERTEX
8
0
10
155.306666666666
20
12.1614311095118
30
0
0
VERTEX
8
0
10
156.225641025641
20
12.1301037006235
30
0
0
VERTEX
8
0
10
157.144615384615
20
12.0923923541846
30
0
0
VERTEX
8
0
10
158.063589743589
20
12.0552810765728
30
0
0
VERTEX
8
0
10
158.982564102564
20
12.0186542774531
30
0
0
VERTEX
8
0
10
159.901538461538
20
11.9858559950377
30
0
0
VERTEX
8
0
10
160.820512820513
20
11.9677682836834
30
0
0
VERTEX
8
0
10
161.739487179487
20
11.9593030727228
30
0
0
VERTEX
8
0
10
162.658461538461
20
11.9516820668465
30
0
0
VERTEX
8
0
10
163.577435897436
20
11.9247115179489
30
0
0
VERTEX
8
0
10
164.49641025641
20
11.8901494868487
30
0
0
VERTEX
8
0
10
165.415384615384
20
11.8555322897095
30
0
0
VERTEX
8
0
10
166.334358974359
20
11.8211146995142
30
0
0
VERTEX
8
0
10
167.253333333333
20
11.7868064506419
30
0
0
VERTEX
8
0
10
168.172307692308
20
11.7594418623321
30
0
0
VERTEX
8
0
10
169.091282051282
20
11.7505891665344
30
0
0
VERTEX
8
0
10
170.010256410256
20
11.7499786747931
30
0
0
VERTEX
8
0
10
170.929230769231
20
11.7525583936618
30
0
0
VERTEX
8
0
10
171.848205128205
20
11.744737244912
30
0
0
SEQEND
8
0
0
POLYLINE
8
0
62
4
70
0
10
0
20
0
30
0
0
VERTEX
8
0
10
1.83794871794872
20
15.1020156776125
30
0
0
VERTEX
8
0
10
2.75692307692308
20
18.0840325660281
30
0
0
VERTEX
8
0
10
3.67589743589744
20
19.8333340531216
30
0
0
VERTEX
8
0
10
4.59487179487179
20
21.3957066504863
30
0
0
VERTEX
8
0
10
5.51384615384615
20
22.7561262872654
30
0
0
VERTEX
8
0
10
6.43282051282051
20
23.5770986193043
30
0
0
VERTEX
8
0
10
7.35179487179487
20
24.5264849459949
30
0
0
VERTEX
8
0
10
8.27076923076923
20
24.9794751571654
30
0
0
VERTEX
8
0
10
9.18974358974359
20
25.5740281653602
30
0
0
VERTEX
8
0
10
10.1087179487179
20
26.1940181278251
30
0
0
VERTEX
8
0
10
11.0276923076923
20
26.4270061536501
30
0
0
VERTEX
8
0
10
11.9466666666667
20
26.8043624934541
30
0
0
VERTEX
8
0
10
12.865641025641
20
27.2016873807763
30
0
0
VERTEX
8
0
10
13.7846153846154
20
27.3677007544927
30
0
0
VERTEX
8
0
10
14.7035897435897
20
27.6450370822191
30
0
0
VERTEX
8
0
10
15.6225641025641
20
27.8517318130339
30
0
0
VERTEX
8
0
10
16.5415384615385
20
28.0087640456985
30
0
0
VERTEX
8
0
10
17.4605128205128
20
28.1940623597869
30
0
0
VERTEX
8
0
10
18.3794871794872
20
28.3304189371797
30
0
0
VERTEX
8
0
10
19.2984615384615
20
28.4498828531138
30
0
0
VERTEX
8
0
10
20.2174358974359
20
28.5938733430325
30
0
0
VERTEX
8
0
10
21.1364102564103
20
28.6919967965945
30
0
0
VERTEX
8
0
10
22.0553846153846
20
28.7838971937932
30
0
0
VERTEX
8
0
10
22.974358974359
20
28.8967326697077
30
0
0
VERTEX
8
0
10
23.8933333333333
20
28.9585919962793
30
0
0
VERTEX
8
0
10
24.8123076923077
20
29.0210322117395
30
0
0
VERTEX
8
0
10
25.7312820512821
20
29.101977643608
30
0
0
VERTEX
8
0
10
26.6502564102564
20
29.1684767816164
30
0
0
VERTEX
8
0
10
27.5692307692308
20
29.2382269348722
30
0
0
VERTEX
8
0
10
28.4882051282051
20
29.3234276767807
30
0
0
VERTEX
8
0
10
29.4071794871795
20
29.3464012784497
30
0
0
VERTEX
8
0
10
30.3261538461539
20
29.3829799765583
30
0
0
VERTEX
8
0
10
31.2451282051282
20
29.4322501602711
30
0
0
VERTEX
8
0
10
32.1641025641026
20
29.4633445775733
30
0
0
VERTEX
8
0
10
33.0830769230769
20
29.522416924011
30
0
0
VERTEX
8
0
10
34.0020512820513
20
29.5807969042951
30
0
0
VERTEX
8
0
10
34.9210256410257
20
29.6035349391327
30
0
0
VERTEX
8
0
10
35.84
20
29.6571251619339
30
0
0
VERTEX
8
0
10
36.7589743589744
20
29.6815029557202
30
0
0
VERTEX
8
0
10
37.6779487179487
20
29.6908046721348
30
0
0
VERTEX
8
0
10
38.5969230769231
20
29.7122029153188
30
0
0
VERTEX
8
0
10
39.5158974358974
20
29.7327411644169
30
0
0
VERTEX
8
0
10
40.4348717948718
20
29.7531107525607
30
0
0
VERTEX
8
0
10
41.3538461538461
20
29.7852597172293
30
0
0
VERTEX
8
0
10
42.2728205128205
20
29.7880493192983
30
0
0
VERTEX
8
0
10
43.1917948717949
20
29.7870243076145
30
0
0
VERTEX
8
0
10
44.1107692307692
20
29.794374855926
30
0
0
VERTEX
8
0
10
45.0297435897436
20
29.8110241502051
30
0
0
VERTEX
8
0
10
45.9487179487179
20
29.8281679900897
30
0
0
VERTEX
8
0
10
46.8676923076923
20
29.8544643107967
30
0
0
VERTEX
8
0
10
47.7866666666666
20
29.8660663781417
30
0
0
VERTEX
8
0
10
48.705641025641
20
29.8799974009385
30
0
0
VERTEX
8
0
10
49.6246153846154
20
29.9015667646641
30
0
0
VERTEX
8
0
10
50.5435897435897
20
29.9145788251532
30
0
0
VERTEX
8
0
10
51.4625641025641
20
29.9304025188538
30
0
0
VERTEX
8
0
10
52.3815384615384
20
29.9529342535707
30
0
0
VERTEX
8
0
10
53.3005128205128
20
29.9603432535174
30
0
0
VERTEX
8
0
10
54.2194871794871
20
29.984600459558
30
0
0
VERTEX
8
0
10
55.1384615384615
20
30.0077104682125
30
0
0
VERTEX
8
0
10
56.0574358974358
20
30.010871585123
30
0
0
VERTEX
8
0
10
56.9764102564102
20
30.0306577826122
30
0
0
VERTEX
8
0
10
57.8953846153846
20
30.0425841848612
30
0
0
VERTEX
8
0
10
58.8143589743589
20
30.0505120872469
30
0
0
VERTEX
8
0
10
59.7333333333333
20
30.0662923575093
30
0
0
VERTEX
8
0
10
60.6523076923076
20
30.0745239555092
30
0
0
VERTEX
8
0
10
61.571282051282
20
30.0804463525156
30
0
0
VERTEX
8
0
10
62.4902564102563
20
30.0930067693474
30
0
0
VERTEX
8
0
10
63.4092307692307
20
30.1018762269482
30
0
0
VERTEX
8
0
10
64.328205128205
20
30.110200854525
30
0
0
VERTEX
8
0
10
65.2471794871794
20
30.1250638467274
30
0
0
VERTEX
8
0
10
66.1661538461537
20
30.13574942596
30
0
0
VERTEX
8
0
10
67.0851282051281
20
30.1466871970281
30
0
0
VERTEX
8
0
10
68.0041025641025
20
30.1628641475545
30
0
0
VERTEX
8
0
10
68.9230769230768
20
30.166141810834
30
0
0
VERTEX
8
0
10
69.8420512820512
20
30.1708705949518
30
0
0
VERTEX
8
0
10
70.7610256410255
20
30.1798961847503
30
0
0
VERTEX
8
0
10
71.6799999999999
20
30.1864760269208
30
0
0
VERTEX
8
0
10
72.5989743589742
20
30.1941972426123
30
0
0
VERTEX
8
0
10
73.5179487179486
20
30.2049306832975
30
0
0
VERTEX
8
0
10
74.436923076923
20
30.202751548953
30
0
0
VERTEX
8
0
10
75.3558974358973
20
30.2092469863766
30
0
0
VERTEX
8
0
10
76.2748717948717
20
30.2125231246756
30
0
0
VERTEX
8
0
10
77.193846153846
20
30.207462403338
30
0
0
VERTEX
8
0
10
78.1128205128204
20
30.2081196098417
30
0
0
VERTEX
8
0
10
79.0317948717947
20
30.2174498585974
30
0
0
VERTEX
8
0
10
79.9507692307691
20
30.229815993624
30
0
0
VERTEX
8
0
10
80.8697435897435
20
30.2507912358555
30
0
0
VERTEX
8
0
10
81.7887179487178
20
30.2619745244306
30
0
0
VERTEX
8
0
10
82.7076923076922
20
30.2704185967445
30
0
0
VERTEX
8
0
10
83.6266666666665
20
30.2832155806004
30
0
0
VERTEX
8
0
10
84.5456410256409
20
30.2829217242421
30
0
0
VERTEX
8
0
10
85.4646153846152
20
30.2807484184587
30
0
0
VERTEX
8
0
10
86.3835897435896
20
30.2810451135216
30
0
0
VERTEX
8
0
10
87.3025641025639
20
30.2857329315489
30
0
0
VERTEX
8
0
10
88.2215384615383
20
30.2905784439473
30
0
0
VERTEX
8
0
10
89.1405128205126
20
30.2992045674208
30
0
0
VERTEX
8
0
10
90.059487179487
20
30.3066572838783
30
0
0
VERTEX
8
0
10
90.9784615384614
20
30.3148725553861
30
0
0
VERTEX
8
0
10
91.8974358974357
20
30.3252166762588
30
0
0
VERTEX
8
0
10
92.8164102564101
20
30.3242782033203
30
0
0
VERTEX
8
0
10
93.7353846153844
20
30.3251240907455
30
0
0
VERTEX
8
0
10
94.6543589743588
20
30.3289855802147
30
0
0
VERTEX
8
0
10
95.5733333333331
20
30.3330287047349
30
0
0
VERTEX
8
0
10
96.4923076923075
20
30.3431630014031
30
0
0
VERTEX
8
0
10
97.4112820512818
20
30.3562055668291
30
0
0
VERTEX
8
0
10
98.3302564102562
20
30.3615537932671
30
0
0
VERTEX
8
0
10
99.2492307692306
20
30.3752620597023
30
0
0
VERTEX
8
0
10
100.168205128205
20
30.3736979361775
30
0
0
VERTEX
8
0
10
101.087179487179
20
30.3703516166884
30
0
0
VERTEX
8
0
10
102.006153846154
20
30.3684145274046
30
0
0
VERTEX
8
0
10
102.925128205128
20
30.3748650435765
30
0
0
VERTEX
8
0
10
103.844102564102
20
30.3845068926811
30
0
0
VERTEX
8
0
10
104.763076923077
20
30.3992249069604
30
0
0
VERTEX
8
0
10
105.682051282051
20
30.4034874704058
30
0
0
VERTEX
8
0
10
106.601025641025
20
30.4062994584771
30
0
0
VERTEX
8
0
10
107.52
20
30.4110091890272
30
0
0
VERTEX
8
0
10
108.438974358974
20
30.4135189256514
30
0
0
VERTEX
8
0
10
109.357948717948
20
30.4158929152672
30
0
0
VERTEX
8
0
10
110.276923076923
20
30.4215270652846
30
0
0
VERTEX
8
0
10
111.195897435897
20
30.4308478465907
30
0
0
VERTEX
8
0
10
112.114871794872
20
30.4409104328843
30
0
0
VERTEX
8
0
10
113.033846153846
20
30.451232138675
30
0
0
VERTEX
8
0
10
113.95282051282
20
30.4507455190131
30
0
0
VERTEX
8
0
10
114.871794871795
20
30.4497203400018
30
0
0
VERTEX
8
0
10
115.790769230769
20
30.4534636451474
30
0
0
VERTEX
8
0
10
116.709743589743
20
30.4693320176133
30
0
0
VERTEX
8
0
10
117.628717948718
20
30.4912036575185
30
0
0
VERTEX
8
0
10
118.547692307692
20
30.4948409182429
30
0
0
VERTEX
8
0
10
119.466666666666
20
30.4946907117721
30
0
0
VERTEX
8
0
10
120.385641025641
20
30.4958947872818
30
0
0
VERTEX
8
0
10
121.304615384615
20
30.5055493962839
30
0
0
VERTEX
8
0
10
122.223589743589
20
30.5199147919342
30
0
0
VERTEX
8
0
10
123.142564102564
20
30.5413940127793
30
0
0
VERTEX
8
0
10
124.061538461538
20
30.544335557709
30
0
0
VERTEX
8
0
10
124.980512820513
20
30.5445567996367
30
0
0
VERTEX
8
0
10
125.899487179487
20
30.5469521034536
30
0
0
VERTEX
8
0
10
126.818461538461
20
30.5580286373866
30
0
0
VERTEX
8
0
10
127.737435897436
20
30.5706954123996
30
0
0
VERTEX
8
0
10
128.65641025641
20
30.5861771644326
30
0
0
VERTEX
8
0
10
129.575384615384
20
30.588365005106
30
0
0
VERTEX
8
0
10
130.494358974359
20
30.5893353131233
30
0
0
VERTEX
8
0
10
131.413333333333
20
30.5916338098654
30
0
0
VERTEX
8
0
10
132.332307692307
20
30.597738331776
30
0
0
VERTEX
8
0
10
133.251282051282
20
30.6036090254986
30
0
0
VERTEX
8
0
10
134.170256410256
20
30.6145059669707
30
0
0
VERTEX
8
0
10
135.08923076923
20
30.630067238972
30
0
0
VERTEX
8
0
10
136.008205128205
20
30.6472088795043
30
0
0
VERTEX
8
0
10
136.927179487179
20
30.662966712286
30
0
0
VERTEX
8
0
10
137.846153846153
20
30.6650037971995
30
0
0
VERTEX
8
0
10
138.765128205128
20
30.6668597402595
30
0
0
VERTEX
8
0
10
139.684102564102
20
30.6770661064885
30
0
0
VERTEX
8
0
10
140.603076923077
20
30.6879182826072
30
0
0
VERTEX
8
0
10
141.522051282051
20
30.7121723717605
30
0
0
VERTEX
8
0
10
142.441025641025
20
30.7188694861551
30
0
0
VERTEX
8
0
10
143.36
20
30.7207766971486
30
0
0
VERTEX
8
0
10
144.278974358974
20
30.7224760132155
30
0
0
VERTEX
8
0
10
145.197948717948
20
30.7249509929776
30
0
0
VERTEX
8
0
10
146.116923076923
20
30.7278168736432
30
0
0
VERTEX
8
0
10
147.035897435897
20
30.7352639691152
30
0
0
VERTEX
8
0
10
147.954871794871
20
30.749146969956
30
0
0
VERTEX
8
0
10
148.873846153846
20
30.7639987938417
30
0
0
VERTEX
8
0
10
149.79282051282
20
30.7808940337574
30
0
0
VERTEX
8
0
10
150.711794871795
20
30.784322595319
30
0
0
VERTEX
8
0
10
151.630769230769
20
30.785308482849
30
0
0
VERTEX
8
0
10
152.549743589743
20
30.7910196754927
30
0
0
VERTEX
8
0
10
153.468717948718
20
30.8095600818656
30
0
0
VERTEX
8
0
10
154.387692307692
20
30.8274980060729
30
0
0
VERTEX
8
0
10
155.306666666666
20
30.8456441817595
30
0
0
VERTEX
8
0
10
156.225641025641
20
30.8474333394384
30
0
0
VERTEX
8
0
10
157.144615384615
20
30.8482232038186
30
0
0
VERTEX
8
0
10
158.063589743589
20
30.8489492491851
30
0
0
VERTEX
8
0
10
158.982564102564
20
30.849672054073
30
0
0
VERTEX
8
0
10
159.901538461538
20
30.8517925319603
30
0
0
VERTEX
8
0
10
160.820512820513
20
30.8622121904586
30
0
0
VERTEX
8
0
10
161.739487179487
20
30.8677394839174
30
0
0
VERTEX
8
0
10
162.658461538461
20
30.8835962501584
30
0
0
VERTEX
8
0
10
163.577435897436
20
30.8871730994493
30
0
0
VERTEX
8
0
10
164.49641025641
20
30.8874359869535
30
0
0
VERTEX
8
0
10
165.415384615384
20
30.8874691621272
30
0
0
VERTEX
8
0
10
166.334358974359
20
30.8874118269904
30
0
0
VERTEX
8
0
10
167.253333333333
20
30.8873115209897
30
0
0
VERTEX
8
0
10
168.172307692308
20
30.8901827814384
30
0
0
VERTEX
8
0
10
169.091282051282
20
30.8999167038575
30
0
0
VERTEX
8
0
10
170.010256410256
20
30.910511072907
30
0
0
VERTEX
8
0
10
170.929230769231
20
30.929148960083
30
0
0
VERTEX
8
0
10
171.848205128205
20
30.9367808831154
30
0
0
SEQEND
8
0
0
POLYLINE
8
0
62
2
70
0
10
0
20
0
30
0
0
VERTEX
8
0
10
1.83794871794872
20
4.46071111986416
30
0
0
VERTEX
8
0
10
2.75692307692308
20
14.6718211386045
30
0
0
VERTEX
8
0
10
3.67589743589744
20
12.4718455528451
30
0
0
VERTEX
8
0
10
4.59487179487179
20
20.8589075504851
30
0
0
VERTEX
8
0
10
5.51384615384615
20
18.35136049997
30
0
0
VERTEX
8
0
10
6.43282051282051
20
20.9223491688373
30
0
0
VERTEX
8
0
10
7.35179487179487
20
23.1938731498188
30
0
0
VERTEX
8
0
10
8.27076923076923
20
24.3872963744762
30
0
0
VERTEX
8
0
10
9.18974358974359
20
27.0491383325549
30
0
0
VERTEX
8
0
10
10.1087179487179
20
27.6218378946178
30
0
0
VERTEX
8
0
10
11.0276923076923
20
30.2178336260258
30
0
0
VERTEX
8
0
10
11.9466666666667
20
30.5069135652568
30
0
0
VERTEX
8
0
10
12.865641025641
20
31.7999812126277
30
0
0
VERTEX
8
0
10
13.7846153846154
20
32.9953342523639
30
0
0
VERTEX
8
0
10
14.7035897435897
20
33.9124766312383
30
0
0
VERTEX
8
0
10
15.6225641025641
20
35.1105442848435
30
0
0
VERTEX
8
0
10
16.5415384615385
20
35.7164998346726
30
0
0
VERTEX
8
0
10
17.4605128205128
20
36.8886409723987
30
0
0
VERTEX
8
0
10
18.3794871794872
20
37.278091054791
30
0
0
VERTEX
8
0
10
19.2984615384615
20
37.967003378795
30
0
0
VERTEX
8
0
10
20.2174358974359
20
38.5961037955934
30
0
0
VERTEX
8
0
10
21.1364102564103
20
39.1091288734186
30
0
0
VERTEX
8
0
10
22.0553846153846
20
39.682620272372
30
0
0
VERTEX
8
0
10
22.974358974359
20
40.0184110296633
30
0
0
VERTEX
8
0
10
23.8933333333333
20
40.5547289123219
30
0
0
VERTEX
8
0
10
24.8123076923077
20
40.7520960765375
30
0
0
VERTEX
8
0
10
25.7312820512821
20
41.0554413122704
30
0
0
VERTEX
8
0
10
26.6502564102564
20
41.3181954567663
30
0
0
VERTEX
8
0
10
27.5692307692308
20
41.5217534413085
30
0
0
VERTEX
8
0
10
28.4882051282051
20
41.7281650535939
30
0
0
VERTEX
8
0
10
29.4071794871795
20
41.8232817822548
30
0
0
VERTEX
8
0
10
30.3261538461539
20
41.9949594832185
30
0
0
VERTEX
8
0
10
31.2451282051282
20
42.0016432532367
30
0
0
VERTEX
8
0
10
32.1641025641026
20
42.0475117920186
30
0
0
VERTEX
8
0
10
33.0830769230769
20
42.0661716740335
30
0
0
VERTEX
8
0
10
34.0020512820513
20
42.0522790037431
30
0
0
VERTEX
8
0
10
34.9210256410257
20
42.0271537481595
30
0
0
VERTEX
8
0
10
35.84
20
41.9463352340326
30
0
0
VERTEX
8
0
10
36.7589743589744
20
41.8952130676593
30
0
0
VERTEX
8
0
10
37.6779487179487
20
41.7593688836245
30
0
0
VERTEX
8
0
10
38.5969230769231
20
41.6382047599333
30
0
0
VERTEX
8
0
10
39.5158974358974
20
41.5000492910033
30
0
0
VERTEX
8
0
10
40.4348717948718
20
41.3443737695972
30
0
0
VERTEX
8
0
10
41.3538461538461
20
41.1771831607226
30
0
0
VERTEX
8
0
10
42.2728205128205
20
40.9822664269881
30
0
0
VERTEX
8
0
10
43.1917948717949
20
40.7994770054956
30
0
0
VERTEX
8
0
10
44.1107692307692
20
40.5730255680638
30
0
0
VERTEX
8
0
10
45.0297435897436
20
40.3530481944646
30
0
0
VERTEX
8
0
10
45.9487179487179
20
40.124047569245
30
0
0
VERTEX
8
0
10
46.8676923076923
20
39.8870863489069
30
0
0
VERTEX
8
0
10
47.7866666666666
20
39.642543168038
30
0
0
VERTEX
8
0
10
48.705641025641
20
39.3857314435586
30
0
0
VERTEX
8
0
10
49.6246153846154
20
39.1354314428848
30
0
0
VERTEX
8
0
10
50.5435897435897
20
38.8639496971536
30
0
0
VERTEX
8
0
10
51.4625641025641
20
38.5972529756741
30
0
0
VERTEX
8
0
10
52.3815384615384
20
38.3276340119472
30
0
0
VERTEX
8
0
10
53.3005128205128
20
38.0564906847445
30
0
0
VERTEX
8
0
10
54.2194871794871
20
37.7823479040043
30
0
0
VERTEX
8
0
10
55.1384615384615
20
37.5049952070024
30
0
0
VERTEX
8
0
10
56.0574358974358
20
37.2332788890653
30
0
0
VERTEX
8
0
10
56.9764102564102
20
36.9531740243621
30
0
0
VERTEX
8
0
10
57.8953846153846
20
36.6785095748078
30
0
0
VERTEX
8
0
10
58.8143589743589
20
36.4053606233446
30
0
0
VERTEX
8
0
10
59.7333333333333
20
36.1350120252564
30
0
0
VERTEX
8
0
10
60.6523076923076
20
35.8655362057803
30
0
0
VERTEX
8
0
10
61.571282051282
20
35.5982742374553
30
0
0
VERTEX
8
0
10
62.4902564102563
20
35.3373506407338
30
0
0
VERTEX
8
0
10
63.4092307692307
20
35.0754558703444
30
0
0
VERTEX
8
0
10
64.328205128205
20
34.820264868164
30
0
0
VERTEX
8
0
10
65.2471794871794
20
34.5697544545009
30
0
0
VERTEX
8
0
10
66.1661538461537
20
34.3251020493547
30
0
0
VERTEX
8
0
10
67.0851282051281
20
34.0845854954409
30
0
0
VERTEX
8
0
10
68.0041025641025
20
33.8503840253794
30
0
0
VERTEX
8
0
10
68.9230769230768
20
33.6252283436503
30
0
0
VERTEX
8
0
10
69.8420512820512
20
33.4048826442687
30
0
0
VERTEX
8
0
10
70.7610256410255
20
33.1917593593561
30
0
0
VERTEX
8
0
10
71.6799999999999
20
32.9833204932814
30
0
0
VERTEX
8
0
10
72.5989743589742
20
32.7795036787487
30
0
0
VERTEX
8
0
10
73.5179487179486
20
32.5778285725841
30
0
0
VERTEX
8
0
10
74.436923076923
20
32.379498878579
30
0
0
VERTEX
8
0
10
75.3558974358973
20
32.1846629255334
30
0
0
VERTEX
8
0
10
76.2748717948717
20
31.9907841441006
30
0
0
VERTEX
8
0
10
77.193846153846
20
31.8000495626562
30
0
0
VERTEX
8
0
10
78.1128205128204
20
31.6114886013516
30
0
0
VERTEX
8
0
10
79.0317948717947
20
31.4254940741224
30
0
0
VERTEX
8
0
10
79.9507692307691
20
31.240338907411
30
0
0
VERTEX
8
0
10
80.8697435897435
20
31.0573796147295
30
0
0
VERTEX
8
0
10
81.7887179487178
20
30.8764508647631
30
0
0
VERTEX
8
0
10
82.7076923076922
20
30.6963468038022
30
0
0
VERTEX
8
0
10
83.6266666666665
20
30.5183120257738
30
0
0
VERTEX
8
0
10
84.5456410256409
20
30.3418616424416
30
0
0
VERTEX
8
0
10
85.4646153846152
20
30.1673659680847
30
0
0
VERTEX
8
0
10
86.3835897435896
20
29.9935579166204
30
0
0
VERTEX
8
0
10
87.3025641025639
20
29.8216062797343
30
0
0
VERTEX
8
0
10
88.2215384615383
20
29.6511925495411
30
0
0
VERTEX
8
0
10
89.1405128205126
20
29.4818056177193
30
0
0
VERTEX
8
0
10
90.059487179487
20
29.3140953953227
30
0
0
VERTEX
8
0
10
90.9784615384614
20
29.1478292386003
30
0
0
VERTEX
8
0
10
91.8974358974357
20
28.9832965466679
30
0
0
VERTEX
8
0
10
92.8164102564101
20
28.8195989178378
30
0
0
VERTEX
8
0
10
93.7353846153844
20
28.6576376369589
30
0
0
VERTEX
8
0
10
94.6543589743588
20
28.4970750944497
30
0
0
VERTEX
8
0
10
95.5733333333331
20
28.3377473776301
30
0
0
VERTEX
8
0
10
96.4923076923075
20
28.1799589601748
30
0
0
VERTEX
8
0
10
97.4112820512818
20
28.0236063748165
30
0
0
VERTEX
8
0
10
98.3302564102562
20
27.86889043068
30
0
0
VERTEX
8
0
10
99.2492307692306
20
27.7152048008745
30
0
0
VERTEX
8
0
10
100.168205128205
20
27.5631821620249
30
0
0
VERTEX
8
0
10
101.087179487179
20
27.4125340683705
30
0
0
VERTEX
8
0
10
102.006153846154
20
27.2632465278792
30
0
0
VERTEX
8
0
10
102.925128205128
20
27.1154355606703
30
0
0
VERTEX
8
0
10
103.844102564102
20
26.9690570852982
30
0
0
VERTEX
8
0
10
104.763076923077
20
26.824231935767
30
0
0
VERTEX
8
0
10
105.682051282051
20
26.6805770582173
30
0
0
VERTEX
8
0
10
106.601025641025
20
26.5384899139327
30
0
0
VERTEX
8
0
10
107.52
20
26.3977572242009
30
0
0
VERTEX
8
0
10
108.438974358974
20
26.2584094536548
30
0
0
VERTEX
8
0
10
109.357948717948
20
26.1204697482468
30
0
0
VERTEX
8
0
10
110.276923076923
20
25.983917155759
30
0
0
VERTEX
8
0
10
111.195897435897
20
25.8488097983043
30
0
0
VERTEX
8
0
10
112.114871794872
20
25.714931356911
30
0
0
VERTEX
8
0
10
113.033846153846
20
25.5824946721392
30
0
0
VERTEX
8
0
10
113.95282051282
20
25.4513677274548
30
0
0
VERTEX
8
0
10
114.871794871795
20
25.3215802444648
30
0
0
VERTEX
8
0
10
115.790769230769
20
25.193124243756
30
0
0
VERTEX
8
0
10
116.709743589743
20
25.0659925182478
30
0
0
VERTEX
8
0
10
117.628717948718
20
24.9402092642826
30
0
0
VERTEX
8
0
10
118.547692307692
20
24.8156878353282
30
0
0
VERTEX
8
0
10
119.466666666666
20
24.6925257000827
30
0
0
VERTEX
8
0
10
120.385641025641
20
24.5706805253434
30
0
0
VERTEX
8
0
10
121.304615384615
20
24.4501805595878
30
0
0
VERTEX
8
0
10
122.223589743589
20
24.3310338422682
30
0
0
VERTEX
8
0
10
123.142564102564
20
24.213274421391
30
0
0
VERTEX
8
0
10
124.061538461538
20
24.0969636042638
30
0
0
VERTEX
8
0
10
124.980512820513
20
23.9821667450863
30
0
0
VERTEX
8
0
10
125.899487179487
20
23.8690135684306
30
0
0
VERTEX
8
0
10
126.818461538461
20
23.7576545570842
30
0
0
VERTEX
8
0
10
127.737435897436
20
23.6483243191387
30
0
0
VERTEX
8
0
10
128.65641025641
20
23.5413577992802
30
0
0
VERTEX
8
0
10
129.575384615384
20
23.4369938749142
30
0
0
VERTEX
8
0
10
130.494358974359
20
23.3350442683794
30
0
0
VERTEX
8
0
10
131.413333333333
20
23.2352134902389
30
0
0
VERTEX
8
0
10
132.332307692307
20
23.1372932687621
30
0
0
VERTEX
8
0
10
133.251282051282
20
23.0411355932134
30
0
0
VERTEX
8
0
10
134.170256410256
20
22.9466265736147
30
0
0
VERTEX
8
0
10
135.08923076923
20
22.8536736030085
30
0
0
VERTEX
8
0
10
136.008205128205
20
22.7621985795587
30
0
0
VERTEX
8
0
10
136.927179487179
20
22.6721339324976
30
0
0
VERTEX
8
0
10
137.846153846153
20
22.5834200956383
30
0
0
VERTEX
8
0
10
138.765128205128
20
22.4960038014291
30
0
0
VERTEX
8
0
10
139.684102564102
20
22.4098368746428
30
0
0
VERTEX
8
0
10
140.603076923077
20
22.3248753476477
30
0
0
VERTEX
8
0
10
141.522051282051
20
22.241078792005
30
0
0
VERTEX
8
0
10
142.441025641025
20
22.158409800926
30
0
0
VERTEX
8
0
10
143.36
20
22.076833580145
30
0
0
VERTEX
8
0
10
144.278974358974
20
21.9963176187073
30
0
0
VERTEX
8
0
10
145.197948717948
20
21.9168314199666
30
0
0
VERTEX
8
0
10
146.116923076923
20
21.8383462788134
30
0
0
VERTEX
8
0
10
147.035897435897
20
21.7608350949951
30
0
0
VERTEX
8
0
10
147.954871794871
20
21.6842722150321
30
0
0
VERTEX
8
0
10
148.873846153846
20
21.6086332970875
30
0
0
VERTEX
8
0
10
149.79282051282
20
21.5338951944821
30
0
0
VERTEX
8
0
10
150.711794871795
20
21.4600358545147
30
0
0
VERTEX
8
0
10
151.630769230769
20
21.3870342299687
30
0
0
VERTEX
8
0
10
152.549743589743
20
21.3148702012259
30
0
0
VERTEX
8
0
10
153.468717948718
20
21.2435245073219
30
0
0
VERTEX
8
0
10
154.387692307692
20
21.1729786845936
30
0
0
VERTEX
8
0
10
155.306666666666
20
21.1032150118183
30
0
0
VERTEX
8
0
10
156.225641025641
20
21.0342164609363
30
0
0
VERTEX
8
0
10
157.144615384615
20
20.9659666526063
30
0
0
VERTEX
8
0
10
158.063589743589
20
20.8984498159659
30
0
0
VERTEX
8
0
10
158.982564102564
20
20.8316507520676
30
0
0
VERTEX
8
0
10
159.901538461538
20
20.7655548005457
30
0
0
VERTEX
8
0
10
160.820512820513
20
20.700147809134
30
0
0
VERTEX
8
0
10
161.739487179487
20
20.6354161057082
30
0
0
VERTEX
8
0
10
162.658461538461
20
20.5713464725772
30
0
0
VERTEX
8
0
10
163.577435897436
20
20.5079261227784
30
0
0
VERTEX
8
0
10
164.49641025641
20
20.4451426781723
30
0
0
VERTEX
8
0
10
165.415384615384
20
20.382984149151
30
0
0
VERTEX
8
0
10
166.334358974359
20
20.3214389158042
30
0
0
VERTEX
8
0
10
167.253333333333
20
20.2604957104014
30
0
0
VERTEX
8
0
10
168.172307692308
20
20.2001436010689
30
0
0
VERTEX
8
0
10
169.091282051282
20
20.1403719765512
30
0
0
VERTEX
8
0
10
170.010256410256
20
20.081170531963
30
0
0
VERTEX
8
0
10
170.929230769231
20
20.0225292554431
30
0
0
VERTEX
8
0
10
171.848205128205
20
19.9644384156371
30
0
0
SEQEND
8
0
0
POLYLINE
8
0
62
3
70
0
10
0
20
0
30
0
0
VERTEX
8
0
10
1.83794871794872
20
5.94511217379816
30
0
0
VERTEX
8
0
10
2.75692307692308
20
15.7603960204242
30
0
0
VERTEX
8
0
10
3.67589743589744
20
14.5880732894764
30
0
0
VERTEX
8
0
10
4.59487179487179
20
22.8287765312524
30
0
0
VERTEX
8
0
10
5.51384615384615
20
21.3771630651241
30
0
0
VERTEX
8
0
10
6.43282051282051
20
24.4106666319502
30
0
0
VERTEX
8
0
10
7.35179487179487
20
27.1589419382174
30
0
0
VERTEX
8
0
10
8.27076923076923
20
28.9817745567581
30
0
0
VERTEX
8
0
10
9.18974358974359
20
31.9877821365381
30
0
0
VERTEX
8
0
10
10.1087179487179
20
33.2412582342165
30
0
0
VERTEX
8
0
10
11.0276923076923
20
36.1331073301997
30
0
0
VERTEX
8
0
10
11.9466666666667
20
37.1075157226426
30
0
0
VERTEX
8
0
10
12.865641025641
20
38.879382567184
30
0
0
VERTEX
8
0
10
13.7846153846154
20
40.5463960289012
30
0
0
VERTEX
8
0
10
14.7035897435897
20
41.9777894362302
30
0
0
VERTEX
8
0
10
15.6225641025641
20
43.5836320928686
30
0
0
VERTEX
8
0
10
16.5415384615385
20
44.71712828146
30
0
0
VERTEX
8
0
10
17.4605128205128
20
46.2551930721977
30
0
0
VERTEX
8
0
10
18.3794871794872
20
47.1717953332151
30
0
0
VERTEX
8
0
10
19.2984615384615
20
48.2931533165058
30
0
0
VERTEX
8
0
10
20.2174358974359
20
49.345917129369
30
0
0
VERTEX
8
0
10
21.1364102564103
20
50.2988374281741
30
0
0
VERTEX
8
0
10
22.0553846153846
20
51.2546035822217
30
0
0
VERTEX
8
0
10
22.974358974359
20
52.0288743339023
30
0
0
VERTEX
8
0
10
23.8933333333333
20
52.9169494030045
30
0
0
VERTEX
8
0
10
24.8123076923077
20
53.5463819614172
30
0
0
VERTEX
8
0
10
25.7312820512821
20
54.2288531690073
30
0
0
VERTEX
8
0
10
26.6502564102564
20
54.8626763006571
30
0
0
VERTEX
8
0
10
27.5692307692308
20
55.4438250573558
30
0
0
VERTEX
8
0
10
28.4882051282051
20
55.9917569472967
30
0
0
VERTEX
8
0
10
29.4071794871795
20
56.4579799281958
30
0
0
VERTEX
8
0
10
30.3261538461539
20
56.9486664620548
30
0
0
VERTEX
8
0
10
31.2451282051282
20
57.3180230621252
30
0
0
VERTEX
8
0
10
32.1641025641026
20
57.6939193393609
30
0
0
VERTEX
8
0
10
33.0830769230769
20
58.0357723976968
30
0
0
VERTEX
8
0
10
34.0020512820513
20
58.3473216839836
30
0
0
VERTEX
8
0
10
34.9210256410257
20
58.6236225323835
30
0
0
VERTEX
8
0
10
35.84
20
58.8605397214232
30
0
0
VERTEX
8
0
10
36.7589743589744
20
59.0940276672943
30
0
0
VERTEX
8
0
10
37.6779487179487
20
59.2674943310284
30
0
0
VERTEX
8
0
10
38.5969230769231
20
59.4344294119803
30
0
0
VERTEX
8
0
10
39.5158974358974
20
59.5787558533126
30
0
0
VERTEX
8
0
10
40.4348717948718
20
59.7057616841712
30
0
0
VERTEX
8
0
10
41.3538461538461
20
59.804775964711
30
0
0
VERTEX
8
0
10
42.2728205128205
20
59.8850651354931
30
0
0
VERTEX
8
0
10
43.1917948717949
20
59.9556891872401
30
0
0
VERTEX
8
0
10
44.1107692307692
20
59.9967357257293
30
0
0
VERTEX
8
0
10
45.0297435897436
20
60.0299575130061
30
0
0
VERTEX
8
0
10
45.9487179487179
20
60.0495222675144
30
0
0
VERTEX
8
0
10
46.8676923076923
20
60.0602525388543
30
0
0
VERTEX
8
0
10
47.7866666666666
20
60.0517815569656
30
0
0
VERTEX
8
0
10
48.705641025641
20
60.03574738054
30
0
0
VERTEX
8
0
10
49.6246153846154
20
60.0113941005982
30
0
0
VERTEX
8
0
10
50.5435897435897
20
59.9736904041604
30
0
0
VERTEX
8
0
10
51.4625641025641
20
59.9307006631154
30
0
0
VERTEX
8
0
10
52.3815384615384
20
59.8808061989559
30
0
0
VERTEX
8
0
10
53.3005128205128
20
59.8278517574669
30
0
0
VERTEX
8
0
10
54.2194871794871
20
59.7633236975072
30
0
0
VERTEX
8
0
10
55.1384615384615
20
59.6976286248431
30
0
0
VERTEX
8
0
10
56.0574358974358
20
59.6269473200523
30
0
0
VERTEX
8
0
10
56.9764102564102
20
59.5518860357771
30
0
0
VERTEX
8
0
10
57.8953846153846
20
59.4746895885267
30
0
0
VERTEX
8
0
10
58.8143589743589
20
59.3953455395549
30
0
0
VERTEX
8
0
10
59.7333333333333
20
59.3167586556446
30
0
0
VERTEX
8
0
10
60.6523076923076
20
59.2322461469257
30
0
0
VERTEX
8
0
10
61.571282051282
20
59.1502468398119
30
0
0
VERTEX
8
0
10
62.4902564102563
20
59.0663678326868
30
0
0
VERTEX
8
0
10
63.4092307692307
20
58.983081510589
30
0
0
VERTEX
8
0
10
64.328205128205
20
58.9002391280195
30
0
0
VERTEX
8
0
10
65.2471794871794
20
58.8183883395661
30
0
0
VERTEX
8
0
10
66.1661538461537
20
58.739768846816
30
0
0
VERTEX
8
0
10
67.0851282051281
20
58.659189681247
30
0
0
VERTEX
8
0
10
68.0041025641025
20
58.5836187320037
30
0
0
VERTEX
8
0
10
68.9230769230768
20
58.5093483700982
30
0
0
VERTEX
8
0
10
69.8420512820512
20
58.4390894537
30
0
0
VERTEX
8
0
10
70.7610256410255
20
58.370451282661
30
0
0
VERTEX
8
0
10
71.6799999999999
20
58.3032190105484
30
0
0
VERTEX
8
0
10
72.5989743589742
20
58.2384622671398
30
0
0
VERTEX
8
0
10
73.5179487179486
20
58.1714509245908
30
0
0
VERTEX
8
0
10
74.436923076923
20
58.1072233140727
30
0
0
VERTEX
8
0
10
75.3558974358973
20
58.0417156527504
30
0
0
VERTEX
8
0
10
76.2748717948717
20
57.977501628609
30
0
0
VERTEX
8
0
10
77.193846153846
20
57.9129089789678
30
0
0
VERTEX
8
0
10
78.1128205128204
20
57.8483876561217
30
0
0
VERTEX
8
0
10
79.0317948717947
20
57.7850126785199
30
0
0
VERTEX
8
0
10
79.9507692307691
20
57.7193470498201
30
0
0
VERTEX
8
0
10
80.8697435897435
20
57.6554340472798
30
0
0
VERTEX
8
0
10
81.7887179487178
20
57.590088727784
30
0
0
VERTEX
8
0
10
82.7076923076922
20
57.5256539705784
30
0
0
VERTEX
8
0
10
83.6266666666665
20
57.4606600315705
30
0
0
VERTEX
8
0
10
84.5456410256409
20
57.3955953456532
30
0
0
VERTEX
8
0
10
85.4646153846152
20
57.3312938114164
30
0
0
VERTEX
8
0
10
86.3835897435896
20
57.2652806102943
30
0
0
VERTEX
8
0
10
87.3025641025639
20
57.2005813518696
30
0
0
VERTEX
8
0
10
88.2215384615383
20
57.1348020850476
30
0
0
VERTEX
8
0
10
89.1405128205126
20
57.0698350063547
30
0
0
VERTEX
8
0
10
90.059487179487
20
57.0044939277124
30
0
0
VERTEX
8
0
10
90.9784615384614
20
56.9392018050257
30
0
0
VERTEX
8
0
10
91.8974358974357
20
56.87455945856
30
0
0
VERTEX
8
0
10
92.8164102564101
20
56.8088545081513
30
0
0
VERTEX
8
0
10
93.7353846153844
20
56.7442293153516
30
0
0
VERTEX
8
0
10
94.6543589743588
20
56.6789799694469
30
0
0
VERTEX
8
0
10
95.5733333333331
20
56.6145107379385
30
0
0
VERTEX
8
0
10
96.4923076923075
20
56.5499384875683
30
0
0
VERTEX
8
0
10
97.4112820512818
20
56.4855880557836
30
0
0
VERTEX
8
0
10
98.3302564102562
20
56.4218636446984
30
0
0
VERTEX
8
0
10
99.2492307692306
20
56.3576415984176
30
0
0
VERTEX
8
0
10
100.168205128205
20
56.2943469391894
30
0
0
VERTEX
8
0
10
101.087179487179
20
56.2308428925574
30
0
0
VERTEX
8
0
10
102.006153846154
20
56.1680875454375
30
0
0
VERTEX
8
0
10
102.925128205128
20
56.1054759581141
30
0
0
VERTEX
8
0
10
103.844102564102
20
56.043232873111
30
0
0
VERTEX
8
0
10
104.763076923077
20
55.9816073564247
30
0
0
VERTEX
8
0
10
105.682051282051
20
55.9199159653532
30
0
0
VERTEX
8
0
10
106.601025641025
20
55.8590296850851
30
0
0
VERTEX
8
0
10
107.52
20
55.7982549699854
30
0
0
VERTEX
8
0
10
108.438974358974
20
55.7381797417649
30
0
0
VERTEX
8
0
10
109.357948717948
20
55.6784325274663
30
0
0
VERTEX
8
0
10
110.276923076923
20
55.6191516348183
30
0
0
VERTEX
8
0
10
111.195897435897
20
55.5604719542244
30
0
0
VERTEX
8
0
10
112.114871794872
20
55.5020289303479
30
0
0
VERTEX
8
0
10
113.033846153846
20
55.4442884330993
30
0
0
VERTEX
8
0
10
113.95282051282
20
55.3868884749796
30
0
0
VERTEX
8
0
10
114.871794871795
20
55.3301361411583
30
0
0
VERTEX
8
0
10
115.790769230769
20
55.2738449948441
30
0
0
VERTEX
8
0
10
116.709743589743
20
55.2180906640962
30
0
0
VERTEX
8
0
10
117.628717948718
20
55.162935803921
30
0
0
VERTEX
8
0
10
118.547692307692
20
55.1082395217616
30
0
0
VERTEX
8
0
10
119.466666666666
20
55.0542009843459
30
0
0
VERTEX
8
0
10
120.385641025641
20
55.0006959216037
30
0
0
VERTEX
8
0
10
121.304615384615
20
54.9478477200305
30
0
0
VERTEX
8
0
10
122.223589743589
20
54.8956082957463
30
0
0
VERTEX
8
0
10
123.142564102564
20
54.844028363309
30
0
0
VERTEX
8
0
10
124.061538461538
20
54.7931564137217
30
0
0
VERTEX
8
0
10
124.980512820513
20
54.7430146762632
30
0
0
VERTEX
8
0
10
125.899487179487
20
54.6936986976773
30
0
0
VERTEX
8
0
10
126.818461538461
20
54.6452743809122
30
0
0
VERTEX
8
0
10
127.737435897436
20
54.5978663567584
30
0
0
VERTEX
8
0
10
128.65641025641
20
54.5516294965731
30
0
0
VERTEX
8
0
10
129.575384615384
20
54.506674513376
30
0
0
VERTEX
8
0
10
130.494358974359
20
54.4629157023091
30
0
0
VERTEX
8
0
10
131.413333333333
20
54.4202172231172
30
0
0
VERTEX
8
0
10
132.332307692307
20
54.3784813740663
30
0
0
VERTEX
8
0
10
133.251282051282
20
54.3376372892267
30
0
0
VERTEX
8
0
10
134.170256410256
20
54.2976294865633
30
0
0
VERTEX
8
0
10
135.08923076923
20
54.25841219483
30
0
0
VERTEX
8
0
10
136.008205128205
20
54.2199463382849
30
0
0
VERTEX
8
0
10
136.927179487179
20
54.182197757237
30
0
0
VERTEX
8
0
10
137.846153846153
20
54.1451360693397
30
0
0
VERTEX
8
0
10
138.765128205128
20
54.1087338956026
30
0
0
VERTEX
8
0
10
139.684102564102
20
54.0729663094167
30
0
0
VERTEX
8
0
10
140.603076923077
20
54.0378104297281
30
0
0
VERTEX
8
0
10
141.522051282051
20
54.0032451115987
30
0
0
VERTEX
8
0
10
142.441025641025
20
53.9692507049802
30
0
0
VERTEX
8
0
10
143.36
20
53.9358088627273
30
0
0
VERTEX
8
0
10
144.278974358974
20
53.9029023850691
30
0
0
VERTEX
8
0
10
145.197948717948
20
53.8705150916758
30
0
0
VERTEX
8
0
10
146.116923076923
20
53.8386317150109
30
0
0
VERTEX
8
0
10
147.035897435897
20
53.8072378103802
30
0
0
VERTEX
8
0
10
147.954871794871
20
53.7763196792681
30
0
0
VERTEX
8
0
10
148.873846153846
20
53.7458643033975
30
0
0
VERTEX
8
0
10
149.79282051282
20
53.7158592875342
30
0
0
VERTEX
8
0
10
150.711794871795
20
53.6862928095085
30
0
0
VERTEX
8
0
10
151.630769230769
20
53.6571535762482
30
0
0
VERTEX
8
0
10
152.549743589743
20
53.6284307848583
30
0
0
VERTEX
8
0
10
153.468717948718
20
53.6001140879794
30
0
0
VERTEX
8
0
10
154.387692307692
20
53.5721935627942
30
0
0
VERTEX
8
0
10
155.306666666666
20
53.5446596831678
30
0
0
VERTEX
8
0
10
156.225641025641
20
53.5175032944994
30
0
0
VERTEX
8
0
10
157.144615384615
20
53.4907155909269
30
0
0
VERTEX
8
0
10
158.063589743589
20
53.4642880945933
30
0
0
VERTEX
8
0
10
158.982564102564
20
53.4382126367205
30
0
0
VERTEX
8
0
10
159.901538461538
20
53.4124813402794
30
0
0
VERTEX
8
0
10
160.820512820513
20
53.387086604077
30
0
0
VERTEX
8
0
10
161.739487179487
20
53.3620210881011
30
0
0
VERTEX
8
0
10
162.658461538461
20
53.3372776999919
30
0
0
VERTEX
8
0
10
163.577435897436
20
53.3128495825216
30
0
0
VERTEX
8
0
10
164.49641025641
20
53.2887301019837
30
0
0
VERTEX
8
0
10
165.415384615384
20
53.2649128373997
30
0
0
VERTEX
8
0
10
166.334358974359
20
53.2413915704688
30
0
0
VERTEX
8
0
10
167.253333333333
20
53.2181602761917
30
0
0
VERTEX
8
0
10
168.172307692308
20
53.1952131141049
30
0
0
VERTEX
8
0
10
169.091282051282
20
53.1725444200771
30
0
0
VERTEX
8
0
10
170.010256410256
20
53.1501486986161
30
0
0
VERTEX
8
0
10
170.929230769231
20
53.1280206156441
30
0
0
VERTEX
8
0
10
171.848205128205
20
53.106154991705
30
0
0
SEQEND
8
0
0
POLYLINE
8
0
62
4
70
0
10
0
20
0
30
0
0
VERTEX
8
0
10
1.83794871794872
20
9.03917436885338
30
0
0
VERTEX
8
0
10
2.75692307692308
20
12.4063410305705
30
0
0
VERTEX
8
0
10
3.67589743589744
20
15.7931248484372
30
0
0
VERTEX
8
0
10
4.59487179487179
20
19.3179289576045
30
0
0
VERTEX
8
0
10
5.51384615384615
20
22.2152367554229
30
0
0
VERTEX
8
0
10
6.43282051282051
20
25.7257963136408
30
0
0
VERTEX
8
0
10
7.35179487179487
20
28.0775542325996
30
0
0
VERTEX
8
0
10
8.27076923076923
20
30.3806088416185
30
0
0
VERTEX
8
0
10
9.18974358974359
20
32.5990910287429
30
0
0
VERTEX
8
0
10
10.1087179487179
20
34.6341677535211
30
0
0
VERTEX
8
0
10
11.0276923076923
20
36.6178521185412
30
0
0
VERTEX
8
0
10
11.9466666666667
20
38.3852090093034
30
0
0
VERTEX
8
0
10
12.865641025641
20
40.1663535387063
30
0
0
VERTEX
8
0
10
13.7846153846154
20
41.6245279436595
30
0
0
VERTEX
8
0
10
14.7035897435897
20
43.1501133395286
30
0
0
VERTEX
8
0
10
15.6225641025641
20
44.4542346206009
30
0
0
VERTEX
8
0
10
16.5415384615385
20
45.7348516982948
30
0
0
VERTEX
8
0
10
17.4605128205128
20
46.9690600480387
30
0
0
VERTEX
8
0
10
18.3794871794872
20
48.0348083675079
30
0
0
VERTEX
8
0
10
19.2984615384615
20
49.0658387011026
30
0
0
VERTEX
8
0
10
20.2174358974359
20
50.0765091038777
30
0
0
VERTEX
8
0
10
21.1364102564103
20
50.9361420685667
30
0
0
VERTEX
8
0
10
22.0553846153846
20
51.7675823522341
30
0
0
VERTEX
8
0
10
22.974358974359
20
52.6018523210855
30
0
0
VERTEX
8
0
10
23.8933333333333
20
53.2153163044352
30
0
0
VERTEX
8
0
10
24.8123076923077
20
53.8659125008953
30
0
0
VERTEX
8
0
10
25.7312820512821
20
54.4892677375506
30
0
0
VERTEX
8
0
10
26.6502564102564
20
54.9975269636637
30
0
0
VERTEX
8
0
10
27.5692307692308
20
55.52489564508
30
0
0
VERTEX
8
0
10
28.4882051282051
20
56.0175776935497
30
0
0
VERTEX
8
0
10
29.4071794871795
20
56.4025808675564
30
0
0
VERTEX
8
0
10
30.3261538461539
20
56.7922731561593
30
0
0
VERTEX
8
0
10
31.2451282051282
20
57.1603933871542
30
0
0
VERTEX
8
0
10
32.1641025641026
20
57.4927750239052
30
0
0
VERTEX
8
0
10
33.0830769230769
20
57.8112782891838
30
0
0
VERTEX
8
0
10
34.0020512820513
20
58.0764528711173
30
0
0
VERTEX
8
0
10
34.9210256410257
20
58.2990024856904
30
0
0
VERTEX
8
0
10
35.84
20
58.5224995596489
30
0
0
VERTEX
8
0
10
36.7589743589744
20
58.700547837754
30
0
0
VERTEX
8
0
10
37.6779487179487
20
58.8758901086729
30
0
0
VERTEX
8
0
10
38.5969230769231
20
59.034298913695
30
0
0
VERTEX
8
0
10
39.5158974358974
20
59.1609874085378
30
0
0
VERTEX
8
0
10
40.4348717948718
20
59.2826706244639
30
0
0
VERTEX
8
0
10
41.3538461538461
20
59.3842305448242
30
0
0
VERTEX
8
0
10
42.2728205128205
20
59.4570014804403
30
0
0
VERTEX
8
0
10
43.1917948717949
20
59.5150864568255
30
0
0
VERTEX
8
0
10
44.1107692307692
20
59.5733003902059
30
0
0
VERTEX
8
0
10
45.0297435897436
20
59.6000428096625
30
0
0
VERTEX
8
0
10
45.9487179487179
20
59.6230367641722
30
0
0
VERTEX
8
0
10
46.8676923076923
20
59.6424462016856
30
0
0
VERTEX
8
0
10
47.7866666666666
20
59.6371999697613
30
0
0
VERTEX
8
0
10
48.705641025641
20
59.6352536539526
30
0
0
VERTEX
8
0
10
49.6246153846154
20
59.620517808742
30
0
0
VERTEX
8
0
10
50.5435897435897
20
59.6060769999206
30
0
0
VERTEX
8
0
10
51.4625641025641
20
59.5829634596089
30
0
0
VERTEX
8
0
10
52.3815384615384
20
59.5515162694551
30
0
0
VERTEX
8
0
10
53.3005128205128
20
59.5160213408272
30
0
0
VERTEX
8
0
10
54.2194871794871
20
59.470614658897
30
0
0
VERTEX
8
0
10
55.1384615384615
20
59.4222491984196
30
0
0
VERTEX
8
0
10
56.0574358974358
20
59.3640312280999
30
0
0
VERTEX
8
0
10
56.9764102564102
20
59.3065152950657
30
0
0
VERTEX
8
0
10
57.8953846153846
20
59.2432948699688
30
0
0
VERTEX
8
0
10
58.8143589743589
20
59.1768380703347
30
0
0
VERTEX
8
0
10
59.7333333333333
20
59.1092931173229
30
0
0
VERTEX
8
0
10
60.6523076923076
20
59.0398006319678
30
0
0
VERTEX
8
0
10
61.571282051282
20
58.9712598640596
30
0
0
VERTEX
8
0
10
62.4902564102563
20
58.8968869598856
30
0
0
VERTEX
8
0
10
63.4092307692307
20
58.8312926442324
30
0
0
VERTEX
8
0
10
64.328205128205
20
58.7610211182014
30
0
0
VERTEX
8
0
10
65.2471794871794
20
58.6888535398658
30
0
0
VERTEX
8
0
10
66.1661538461537
20
58.6220051054973
30
0
0
VERTEX
8
0
10
67.0851282051281
20
58.5494768642432
30
0
0
VERTEX
8
0
10
68.0041025641025
20
58.4782294280272
30
0
0
VERTEX
8
0
10
68.9230769230768
20
58.4030376290693
30
0
0
VERTEX
8
0
10
69.8420512820512
20
58.3291281224864
30
0
0
VERTEX
8
0
10
70.7610256410255
20
58.2516496960745
30
0
0
VERTEX
8
0
10
71.6799999999999
20
58.1720114711301
30
0
0
VERTEX
8
0
10
72.5989743589742
20
58.0923908031225
30
0
0
VERTEX
8
0
10
73.5179487179486
20
58.0081023606741
30
0
0
VERTEX
8
0
10
74.436923076923
20
57.9242015643452
30
0
0
VERTEX
8
0
10
75.3558974358973
20
57.837299432334
30
0
0
VERTEX
8
0
10
76.2748717948717
20
57.7643341108602
30
0
0
VERTEX
8
0
10
77.193846153846
20
57.6930286720409
30
0
0
VERTEX
8
0
10
78.1128205128204
20
57.6206844497849
30
0
0
VERTEX
8
0
10
79.0317948717947
20
57.5555846084179
30
0
0
VERTEX
8
0
10
79.9507692307691
20
57.4885320277003
30
0
0
VERTEX
8
0
10
80.8697435897435
20
57.4220786810669
30
0
0
VERTEX
8
0
10
81.7887179487178
20
57.3489754108039
30
0
0
VERTEX
8
0
10
82.7076923076922
20
57.2765649280123
30
0
0
VERTEX
8
0
10
83.6266666666665
20
57.2025838223056
30
0
0
VERTEX
8
0
10
84.5456410256409
20
57.136988310896
30
0
0
VERTEX
8
0
10
85.4646153846152
20
57.0698898231725
30
0
0
VERTEX
8
0
10
86.3835897435896
20
57.0007517365661
30
0
0
VERTEX
8
0
10
87.3025641025639
20
56.9244691288079
30
0
0
VERTEX
8
0
10
88.2215384615383
20
56.8480994971369
30
0
0
VERTEX
8
0
10
89.1405128205126
20
56.772135229511
30
0
0
VERTEX
8
0
10
90.059487179487
20
56.7059239918269
30
0
0
VERTEX
8
0
10
90.9784615384614
20
56.6358804133178
30
0
0
VERTEX
8
0
10
91.8974358974357
20
56.5708082645292
30
0
0
VERTEX
8
0
10
92.8164102564101
20
56.5086202698179
30
0
0
VERTEX
8
0
10
93.7353846153844
20
56.4466197622753
30
0
0
VERTEX
8
0
10
94.6543589743588
20
56.383276393416
30
0
0
VERTEX
8
0
10
95.5733333333331
20
56.3200938492867
30
0
0
VERTEX
8
0
10
96.4923076923075
20
56.2560402199208
30
0
0
VERTEX
8
0
10
97.4112820512818
20
56.1929756738952
30
0
0
VERTEX
8
0
10
98.3302564102562
20
56.1301105322641
30
0
0
VERTEX
8
0
10
99.2492307692306
20
56.0662429076184
30
0
0
VERTEX
8
0
10
100.168205128205
20
55.9991334008418
30
0
0
VERTEX
8
0
10
101.087179487179
20
55.9309043704394
30
0
0
VERTEX
8
0
10
102.006153846154
20
55.8628236844185
30
0
0
VERTEX
8
0
10
102.925128205128
20
55.8036766581067
30
0
0
VERTEX
8
0
10
103.844102564102
20
55.743757594978
30
0
0
VERTEX
8
0
10
104.763076923077
20
55.6837051294094
30
0
0
VERTEX
8
0
10
105.682051282051
20
55.6334780443554
30
0
0
VERTEX
8
0
10
106.601025641025
20
55.5816766664153
30
0
0
VERTEX
8
0
10
107.52
20
55.5292809874666
30
0
0
VERTEX
8
0
10
108.438974358974
20
55.4860393336797
30
0
0
VERTEX
8
0
10
109.357948717948
20
55.440224350065
30
0
0
VERTEX
8
0
10
110.276923076923
20
55.3941287706562
30
0
0
VERTEX
8
0
10
111.195897435897
20
55.3354288750076
30
0
0
VERTEX
8
0
10
112.114871794872
20
55.2801252844076
30
0
0
VERTEX
8
0
10
113.033846153846
20
55.2296446691599
30
0
0
VERTEX
8
0
10
113.95282051282
20
55.182666405388
30
0
0
VERTEX
8
0
10
114.871794871795
20
55.1356505737274
30
0
0
VERTEX
8
0
10
115.790769230769
20
55.0860867238521
30
0
0
VERTEX
8
0
10
116.709743589743
20
55.0353362109905
30
0
0
VERTEX
8
0
10
117.628717948718
20
54.9845430744511
30
0
0
VERTEX
8
0
10
118.547692307692
20
54.939085887718
30
0
0
VERTEX
8
0
10
119.466666666666
20
54.894888755053
30
0
0
VERTEX
8
0
10
120.385641025641
20
54.8505692202537
30
0
0
VERTEX
8
0
10
121.304615384615
20
54.807812407026
30
0
0
VERTEX
8
0
10
122.223589743589
20
54.7650998040754
30
0
0
VERTEX
8
0
10
123.142564102564
20
54.7223694495488
30
0
0
VERTEX
8
0
10
124.061538461538
20
54.6796499726114
30
0
0
VERTEX
8
0
10
124.980512820513
20
54.6369422586314
30
0
0
VERTEX
8
0
10
125.899487179487
20
54.5942928778582
30
0
0
VERTEX
8
0
10
126.818461538461
20
54.5556152720972
30
0
0
VERTEX
8
0
10
127.737435897436
20
54.5163848483912
30
0
0
VERTEX
8
0
10
128.65641025641
20
54.4772517367896
30
0
0
VERTEX
8
0
10
129.575384615384
20
54.4339550257772
30
0
0
VERTEX
8
0
10
130.494358974359
20
54.391841267105
30
0
0
VERTEX
8
0
10
131.413333333333
20
54.3498740090974
30
0
0
VERTEX
8
0
10
132.332307692307
20
54.310375209121
30
0
0
VERTEX
8
0
10
133.251282051282
20
54.2702943528896
30
0
0
VERTEX
8
0
10
134.170256410256
20
54.2330909378283
30
0
0
VERTEX
8
0
10
135.08923076923
20
54.1980446899194
30
0
0
VERTEX
8
0
10
136.008205128205
20
54.163104530623
30
0
0
VERTEX
8
0
10
136.927179487179
20
54.1271644096806
30
0
0
VERTEX
8
0
10
137.846153846153
20
54.0908646062086
30
0
0
VERTEX
8
0
10
138.765128205128
20
54.0546814455966
30
0
0
VERTEX
8
0
10
139.684102564102
20
54.0186151622362
30
0
0
VERTEX
8
0
10
140.603076923077
20
53.9826659903878
30
0
0
VERTEX
8
0
10
141.522051282051
20
53.9468341641741
30
0
0
VERTEX
8
0
10
142.441025641025
20
53.911119917575
30
0
0
VERTEX
8
0
10
143.36
20
53.8755234844222
30
0
0
VERTEX
8
0
10
144.278974358974
20
53.8400450983935
30
0
0
VERTEX
8
0
10
145.197948717948
20
53.8113229113547
30
0
0
VERTEX
8
0
10
146.116923076923
20
53.78218335365
30
0
0
VERTEX
8
0
10
147.035897435897
20
53.7531247737832
30
0
0
VERTEX
8
0
10
147.954871794871
20
53.7204686759226
30
0
0
VERTEX
8
0
10
148.873846153846
20
53.6885468969987
30
0
0
VERTEX
8
0
10
149.79282051282
20
53.6567245596258
30
0
0
VERTEX
8
0
10
150.711794871795
20
53.6310438718144
30
0
0
VERTEX
8
0
10
151.630769230769
20
53.6039160698843
30
0
0
VERTEX
8
0
10
152.549743589743
20
53.5768616736421
30
0
0
VERTEX
8
0
10
153.468717948718
20
53.5455049149333
30
0
0
VERTEX
8
0
10
154.387692307692
20
53.5156258209538
30
0
0
VERTEX
8
0
10
155.306666666666
20
53.4875898207754
30
0
0
VERTEX
8
0
10
156.225641025641
20
53.4608537568016
30
0
0
VERTEX
8
0
10
157.144615384615
20
53.4341916893988
30
0
0
VERTEX
8
0
10
158.063589743589
20
53.4097163631141
30
0
0
VERTEX
8
0
10
158.982564102564
20
53.3861396721143
30
0
0
VERTEX
8
0
10
159.901538461538
20
53.3626216933574
30
0
0
VERTEX
8
0
10
160.820512820513
20
53.3379280176826
30
0
0
VERTEX
8
0
10
161.739487179487
20
53.3130704307616
30
0
0
VERTEX
8
0
10
162.658461538461
20
53.2882793973581
30
0
0
VERTEX
8
0
10
163.577435897436
20
53.2635550104018
30
0
0
VERTEX
8
0
10
164.49641025641
20
53.2388973627458
30
0
0
VERTEX
8
0
10
165.415384615384
20
53.2143065471639
30
0
0
VERTEX
8
0
10
166.334358974359
20
53.194525582599
30
0
0
VERTEX
8
0
10
167.253333333333
20
53.1743690638169
30
0
0
VERTEX
8
0
10
168.172307692308
20
53.1542580358061
30
0
0
VERTEX
8
0
10
169.091282051282
20
53.1359452806141
30
0
0
VERTEX
8
0
10
170.010256410256
20
53.1173501643903
30
0
0
VERTEX
8
0
10
170.929230769231
20
53.0987943988038
30
0
0
VERTEX
8
0
10
171.848205128205
20
53.0510409818345
30
0
0
SEQEND
8
0
0
POLYLINE
8
0
62
2
70
0
10
0
20
0
30
0
0
VERTEX
8
0
10
1.83794871794872
20
2.13808281120209
30
0
0
VERTEX
8
0
10
2.75692307692308
20
5.58501704287819
30
0
0
VERTEX
8
0
10
3.67589743589744
20
3.87897980273014
30
0
0
VERTEX
8
0
10
4.59487179487179
20
3.53930635584253
30
0
0
VERTEX
8
0
10
5.51384615384615
20
5.43782697830611
30
0
0
VERTEX
8
0
10
6.43282051282051
20
7.73791124616248
30
0
0
VERTEX
8
0
10
7.35179487179487
20
6.89796210105334
30
0
0
VERTEX
8
0
10
8.27076923076923
20
7.1678735753555
30
0
0
VERTEX
8
0
10
9.18974358974359
20
8.25993546745359
30
0
0
VERTEX
8
0
10
10.1087179487179
20
9.65728858989698
30
0
0
VERTEX
8
0
10
11.0276923076923
20
9.54921155524799
30
0
0
VERTEX
8
0
10
11.9466666666667
20
9.99472498615184
30
0
0
VERTEX
8
0
10
12.865641025641
20
10.7718924281264
30
0
0
VERTEX
8
0
10
13.7846153846154
20
11.7668930273766
30
0
0
VERTEX
8
0
10
14.7035897435897
20
11.936226118167
30
0
0
VERTEX
8
0
10
15.6225641025641
20
12.4108655087193
30
0
0
VERTEX
8
0
10
16.5415384615385
20
13.0466653290008
30
0
0
VERTEX
8
0
10
17.4605128205128
20
13.8315503132102
30
0
0
VERTEX
8
0
10
18.3794871794872
20
14.107596447003
30
0
0
VERTEX
8
0
10
19.2984615384615
20
14.5715852565373
30
0
0
VERTEX
8
0
10
20.2174358974359
20
15.1218168414846
30
0
0
VERTEX
8
0
10
21.1364102564103
20
15.77643869869
30
0
0
VERTEX
8
0
10
22.0553846153846
20
16.0919635682397
30
0
0
VERTEX
8
0
10
22.974358974359
20
16.5320394472183
30
0
0
VERTEX
8
0
10
23.8933333333333
20
17.0197455066173
30
0
0
VERTEX
8
0
10
24.8123076923077
20
17.5825916264283
30
0
0
VERTEX
8
0
10
25.7312820512821
20
17.9066562115817
30
0
0
VERTEX
8
0
10
26.6502564102564
20
18.317321043284
30
0
0
VERTEX
8
0
10
27.5692307692308
20
18.753472319341
30
0
0
VERTEX
8
0
10
28.4882051282051
20
19.2447324756063
30
0
0
VERTEX
8
0
10
29.4071794871795
20
19.5605782608097
30
0
0
VERTEX
8
0
10
30.3261538461539
20
19.9382782227891
30
0
0
VERTEX
8
0
10
31.2451282051282
20
20.3274736826261
30
0
0
VERTEX
8
0
10
32.1641025641026
20
20.7570371214419
30
0
0
VERTEX
8
0
10
33.0830769230769
20
21.0526101931112
30
0
0
VERTEX
8
0
10
34.0020512820513
20
21.3920082292513
30
0
0
VERTEX
8
0
10
34.9210256410257
20
21.7321660432098
30
0
0
VERTEX
8
0
10
35.84
20
22.0993882707278
30
0
0
VERTEX
8
0
10
36.7589743589744
20
22.3571111325278
30
0
0
VERTEX
8
0
10
37.6779487179487
20
22.6384403498816
30
0
0
VERTEX
8
0
10
38.5969230769231
20
22.8967674476566
30
0
0
VERTEX
8
0
10
39.5158974358974
20
23.1316674221407
30
0
0
VERTEX
8
0
10
40.4348717948718
20
23.3331149638007
30
0
0
VERTEX
8
0
10
41.3538461538461
20
23.607474298681
30
0
0
VERTEX
8
0
10
42.2728205128205
20
23.9030842688825
30
0
0
VERTEX
8
0
10
43.1917948717949
20
24.2371770224086
30
0
0
VERTEX
8
0
10
44.1107692307692
20
24.5187589283075
30
0
0
VERTEX
8
0
10
45.0297435897436
20
24.8335951908824
30
0
0
VERTEX
8
0
10
45.9487179487179
20
25.1512498001456
30
0
0
VERTEX
8
0
10
46.8676923076923
20
25.4931020972509
30
0
0
VERTEX
8
0
10
47.7866666666666
20
25.7873173795482
30
0
0
VERTEX
8
0
10
48.705641025641
20
26.104719198789
30
0
0
VERTEX
8
0
10
49.6246153846154
20
26.41900022682
30
0
0
VERTEX
8
0
10
50.5435897435897
20
26.750465123666
30
0
0
VERTEX
8
0
10
51.4625641025641
20
27.0409226031888
30
0
0
VERTEX
8
0
10
52.3815384615384
20
27.3482324680645
30
0
0
VERTEX
8
0
10
53.3005128205128
20
27.6491583340474
30
0
0
VERTEX
8
0
10
54.2194871794871
20
27.9624721211194
30
0
0
VERTEX
8
0
10
55.1384615384615
20
28.2407375603423
30
0
0
VERTEX
8
0
10
56.0574358974358
20
28.5312291588038
30
0
0
VERTEX
8
0
10
56.9764102564102
20
28.8133161046454
30
0
0
VERTEX
8
0
10
57.8953846153846
20
29.1041826063048
30
0
0
VERTEX
8
0
10
58.8143589743589
20
29.3650271474564
30
0
0
VERTEX
8
0
10
59.7333333333333
20
29.6345286821684
30
0
0
VERTEX
8
0
10
60.6523076923076
20
29.8943380515421
30
0
0
VERTEX
8
0
10
61.571282051282
20
30.1600955810612
30
0
0
VERTEX
8
0
10
62.4902564102563
20
30.3999962401258
30
0
0
VERTEX
8
0
10
63.4092307692307
20
30.6457232233
30
0
0
VERTEX
8
0
10
64.328205128205
20
30.8809523619314
30
0
0
VERTEX
8
0
10
65.2471794871794
20
31.1198570646545
30
0
0
VERTEX
8
0
10
66.1661538461537
20
31.3363396402305
30
0
0
VERTEX
8
0
10
67.0851282051281
20
31.5563670527217
30
0
0
VERTEX
8
0
10
68.0041025641025
20
31.7654270461279
30
0
0
VERTEX
8
0
10
68.9230769230768
20
31.9763143345366
30
0
0
VERTEX
8
0
10
69.8420512820512
20
32.1676123363015
30
0
0
VERTEX
8
0
10
70.7610256410255
20
32.3605984245213
30
0
0
VERTEX
8
0
10
71.6799999999999
20
32.5423911673474
30
0
0
VERTEX
8
0
10
72.5989743589742
20
32.7244971213427
30
0
0
VERTEX
8
0
10
73.5179487179486
20
32.8893561437569
30
0
0
VERTEX
8
0
10
74.436923076923
20
33.0543845565681
30
0
0
VERTEX
8
0
10
75.3558974358973
20
33.2081754055267
30
0
0
VERTEX
8
0
10
76.2748717948717
20
33.3610359839827
30
0
0
VERTEX
8
0
10
77.193846153846
20
33.4985943661542
30
0
0
VERTEX
8
0
10
78.1128205128204
20
33.6350789035592
30
0
0
VERTEX
8
0
10
79.0317948717947
20
33.7604204095767
30
0
0
VERTEX
8
0
10
79.9507692307691
20
33.8838124394741
30
0
0
VERTEX
8
0
10
80.8697435897435
20
33.9935257879888
30
0
0
VERTEX
8
0
10
81.7887179487178
20
34.1011512462528
30
0
0
VERTEX
8
0
10
82.7076923076922
20
34.197836507594
30
0
0
VERTEX
8
0
10
83.6266666666665
20
34.2917429024203
30
0
0
VERTEX
8
0
10
84.5456410256409
20
34.3733356569469
30
0
0
VERTEX
8
0
10
85.4646153846152
20
34.4520209340311
30
0
0
VERTEX
8
0
10
86.3835897435896
20
34.5200552969737
30
0
0
VERTEX
8
0
10
87.3025641025639
20
34.584645252782
30
0
0
VERTEX
8
0
10
88.2215384615383
20
34.6380798614553
30
0
0
VERTEX
8
0
10
89.1405128205126
20
34.6879555390762
30
0
0
VERTEX
8
0
10
90.059487179487
20
34.7275402576278
30
0
0
VERTEX
8
0
10
90.9784615384614
20
34.7631591545258
30
0
0
VERTEX
8
0
10
91.8974358974357
20
34.7886171337097
30
0
0
VERTEX
8
0
10
92.8164102564101
20
34.8100127506218
30
0
0
VERTEX
8
0
10
93.7353846153844
20
34.8215365800985
30
0
0
VERTEX
8
0
10
94.6543589743588
20
34.828702159543
30
0
0
VERTEX
8
0
10
95.5733333333331
20
34.8265730551601
30
0
0
VERTEX
8
0
10
96.4923076923075
20
34.8200105539796
30
0
0
VERTEX
8
0
10
97.4112820512818
20
34.8040460646082
30
0
0
VERTEX
8
0
10
98.3302564102562
20
34.7834478345782
30
0
0
VERTEX
8
0
10
99.2492307692306
20
34.7543223072273
30
0
0
VERTEX
8
0
10
100.168205128205
20
34.7205118255924
30
0
0
VERTEX
8
0
10
101.087179487179
20
34.6778123293717
30
0
0
VERTEX
8
0
10
102.006153846154
20
34.6303095780748
30
0
0
VERTEX
8
0
10
102.925128205128
20
34.5749706177025
30
0
0
VERTEX
8
0
10
103.844102564102
20
34.5148014752087
30
0
0
VERTEX
8
0
10
104.763076923077
20
34.44628969003
30
0
0
VERTEX
8
0
10
105.682051282051
20
34.3728967569518
30
0
0
VERTEX
8
0
10
106.601025641025
20
34.2922937078344
30
0
0
VERTEX
8
0
10
107.52
20
34.2068001946834
30
0
0
VERTEX
8
0
10
108.438974358974
20
34.1135208049879
30
0
0
VERTEX
8
0
10
109.357948717948
20
34.0153407318738
30
0
0
VERTEX
8
0
10
110.276923076923
20
33.9104902050685
30
0
0
VERTEX
8
0
10
111.195897435897
20
33.8007102332029
30
0
0
VERTEX
8
0
10
112.114871794872
20
33.6836224745133
30
0
0
VERTEX
8
0
10
113.033846153846
20
33.5615347622432
30
0
0
VERTEX
8
0
10
113.95282051282
20
33.4330290594593
30
0
0
VERTEX
8
0
10
114.871794871795
20
33.2991981129923
30
0
0
VERTEX
8
0
10
115.790769230769
20
33.1577501443721
30
0
0
VERTEX
8
0
10
116.709743589743
20
33.0096735453939
30
0
0
VERTEX
8
0
10
117.628717948718
20
32.8534496118282
30
0
0
VERTEX
8
0
10
118.547692307692
20
32.6956571314441
30
0
0
VERTEX
8
0
10
119.466666666666
20
32.5387334105699
30
0
0
VERTEX
8
0
10
120.385641025641
20
32.3825740626151
30
0
0
VERTEX
8
0
10
121.304615384615
20
32.2252453031041
30
0
0
VERTEX
8
0
10
122.223589743589
20
32.0667369102022
30
0
0
VERTEX
8
0
10
123.142564102564
20
31.9055222016037
30
0
0
VERTEX
8
0
10
124.061538461538
20
31.7424995278994
30
0
0
VERTEX
8
0
10
124.980512820513
20
31.5770198862326
30
0
0
VERTEX
8
0
10
125.899487179487
20
31.409431610584
30
0
0
VERTEX
8
0
10
126.818461538461
20
31.2388418788508
30
0
0
VERTEX
8
0
10
127.737435897436
20
31.066081586873
30
0
0
VERTEX
8
0
10
128.65641025641
20
30.8908290980994
30
0
0
VERTEX
8
0
10
129.575384615384
20
30.7134046834229
30
0
0
VERTEX
8
0
10
130.494358974359
20
30.533282944175
30
0
0
VERTEX
8
0
10
131.413333333333
20
30.3511400357566
30
0
0
VERTEX
8
0
10
132.332307692307
20
30.1668686702886
30
0
0
VERTEX
8
0
10
133.251282051282
20
29.9807605372604
30
0
0
VERTEX
8
0
10
134.170256410256
20
29.7925933694214
30
0
0
VERTEX
8
0
10
135.08923076923
20
29.6029231403805
30
0
0
VERTEX
8
0
10
136.008205128205
20
29.4118287743519
30
0
0
VERTEX
8
0
10
136.927179487179
20
29.2196247775244
30
0
0
VERTEX
8
0
10
137.846153846153
20
29.0263728038278
30
0
0
VERTEX
8
0
10
138.765128205128
20
28.8325889654433
30
0
0
VERTEX
8
0
10
139.684102564102
20
28.6385600362955
30
0
0
VERTEX
8
0
10
140.603076923077
20
28.4447194995214
30
0
0
VERTEX
8
0
10
141.522051282051
20
28.2514519770053
30
0
0
VERTEX
8
0
10
142.441025641025
20
28.0593976938271
30
0
0
VERTEX
8
0
10
143.36
20
27.8691914523884
30
0
0
VERTEX
8
0
10
144.278974358974
20
27.6816490964452
30
0
0
VERTEX
8
0
10
145.197948717948
20
27.4977954346696
30
0
0
VERTEX
8
0
10
146.116923076923
20
27.3190546394536
30
0
0
VERTEX
8
0
10
147.035897435897
20
27.1472664533036
30
0
0
VERTEX
8
0
10
147.954871794871
20
26.9837103952344
30
0
0
VERTEX
8
0
10
148.873846153846
20
26.8277059242129
30
0
0
VERTEX
8
0
10
149.79282051282
20
26.6779441506284
30
0
0
VERTEX
8
0
10
150.711794871795
20
26.5334653591254
30
0
0
VERTEX
8
0
10
151.630769230769
20
26.393605145897
30
0
0
VERTEX
8
0
10
152.549743589743
20
26.2578732873712
30
0
0
VERTEX
8
0
10
153.468717948718
20
26.1258877595737
30
0
0
VERTEX
8
0
10
154.387692307692
20
25.9973391619808
30
0
0
VERTEX
8
0
10
155.306666666666
20
25.8719698709165
30
0
0
VERTEX
8
0
10
156.225641025641
20
25.7495608660397
30
0
0
VERTEX
8
0
10
157.144615384615
20
25.6299229032887
30
0
0
VERTEX
8
0
10
158.063589743589
20
25.5128903261334
30
0
0
VERTEX
8
0
10
158.982564102564
20
25.3983165682595
30
0
0
VERTEX
8
0
10
159.901538461538
20
25.2860707890675
30
0
0
VERTEX
8
0
10
160.820512820513
20
25.1760352953931
30
0
0
VERTEX
8
0
10
161.739487179487
20
25.0681035253207
30
0
0
VERTEX
8
0
10
162.658461538461
20
24.9621784440511
30
0
0
VERTEX
8
0
10
163.577435897436
20
24.858171248399
30
0
0
VERTEX
8
0
10
164.49641025641
20
24.756000306795
30
0
0
VERTEX
8
0
10
165.415384615384
20
24.6555902819549
30
0
0
VERTEX
8
0
10
166.334358974359
20
24.5568713972854
30
0
0
VERTEX
8
0
10
167.253333333333
20
24.4597788178553
30
0
0
VERTEX
8
0
10
168.172307692308
20
24.3642521237336
30
0
0
VERTEX
8
0
10
169.091282051282
20
24.2702348585766
30
0
0
VERTEX
8
0
10
170.010256410256
20
24.1776741400902
30
0
0
VERTEX
8
0
10
170.929230769231
20
24.0865203218132
30
0
0
VERTEX
8
0
10
171.848205128205
20
23.9967266977965
30
0
0
SEQEND
8
0
0
POLYLINE
8
0
62
3
70
0
10
0
20
0
30
0
0
VERTEX
8
0
10
1.83794871794872
20
2.69760595791289
30
0
0
VERTEX
8
0
10
2.75692307692308
20
6.10044065970799
30
0
0
VERTEX
8
0
10
3.67589743589744
20
5.068372387234
30
0
0
VERTEX
8
0
10
4.59487179487179
20
5.39250745331103
30
0
0
VERTEX
8
0
10
5.51384615384615
20
7.28772069627311
30
0
0
VERTEX
8
0
10
6.43282051282051
20
9.57002022960024
30
0
0
VERTEX
8
0
10
7.35179487179487
20
9.4192812338156
30
0
0
VERTEX
8
0
10
8.27076923076923
20
10.1551314080173
30
0
0
VERTEX
8
0
10
9.18974358974359
20
11.4634666080225
30
0
0
VERTEX
8
0
10
10.1087179487179
20
12.9976484756784
30
0
0
VERTEX
8
0
10
11.0276923076923
20
13.4390264043195
30
0
0
VERTEX
8
0
10
11.9466666666667
20
14.2866429454849
30
0
0
VERTEX
8
0
10
12.865641025641
20
15.3503753011997
30
0
0
VERTEX
8
0
10
13.7846153846154
20
16.564480376571
30
0
0
VERTEX
8
0
10
14.7035897435897
20
17.2034206080672
30
0
0
VERTEX
8
0
10
15.6225641025641
20
18.0554982268592
30
0
0
VERTEX
8
0
10
16.5415384615385
20
19.0013256231143
30
0
0
VERTEX
8
0
10
17.4605128205128
20
20.0457008364532
30
0
0
VERTEX
8
0
10
18.3794871794872
20
20.747182759158
30
0
0
VERTEX
8
0
10
19.2984615384615
20
21.5745601329328
30
0
0
VERTEX
8
0
10
20.2174358974359
20
22.4429621289038
30
0
0
VERTEX
8
0
10
21.1364102564103
20
23.3775417929196
30
0
0
VERTEX
8
0
10
22.0553846153846
20
24.0905162423524
30
0
0
VERTEX
8
0
10
22.974358974359
20
24.8835422253273
30
0
0
VERTEX
8
0
10
23.8933333333333
20
25.6910605847727
30
0
0
VERTEX
8
0
10
24.8123076923077
20
26.5440585219717
30
0
0
VERTEX
8
0
10
25.7312820512821
20
27.2456690491267
30
0
0
VERTEX
8
0
10
26.6502564102564
20
28.0004447196827
30
0
0
VERTEX
8
0
10
27.5692307692308
20
28.7549424629444
30
0
0
VERTEX
8
0
10
28.4882051282051
20
29.5410017820231
30
0
0
VERTEX
8
0
10
29.4071794871795
20
30.219237900168
30
0
0
VERTEX
8
0
10
30.3261538461539
20
30.933424667494
30
0
0
VERTEX
8
0
10
31.2451282051282
20
31.638354620102
30
0
0
VERTEX
8
0
10
32.1641025641026
20
32.3647912880829
30
0
0
VERTEX
8
0
10
33.0830769230769
20
33.0114518863782
30
0
0
VERTEX
8
0
10
34.0020512820513
20
33.681786698725
30
0
0
VERTEX
8
0
10
34.9210256410257
20
34.3362934793004
30
0
0
VERTEX
8
0
10
35.84
20
35.0034895210471
30
0
0
VERTEX
8
0
10
36.7589743589744
20
35.6074627540741
30
0
0
VERTEX
8
0
10
37.6779487179487
20
36.2219521348675
30
0
0
VERTEX
8
0
10
38.5969230769231
20
36.806275088292
30
0
0
VERTEX
8
0
10
39.5158974358974
20
37.3720530480769
30
0
0
VERTEX
8
0
10
40.4348717948718
20
37.9251891328193
30
0
0
VERTEX
8
0
10
41.3538461538461
20
38.5216170285449
30
0
0
VERTEX
8
0
10
42.2728205128205
20
39.1178082963987
30
0
0
VERTEX
8
0
10
43.1917948717949
20
39.7352338472213
30
0
0
VERTEX
8
0
10
44.1107692307692
20
40.328153219287
30
0
0
VERTEX
8
0
10
45.0297435897436
20
40.9386108241817
30
0
0
VERTEX
8
0
10
45.9487179487179
20
41.5369309103727
30
0
0
VERTEX
8
0
10
46.8676923076923
20
42.1469358215908
30
0
0
VERTEX
8
0
10
47.7866666666666
20
42.7348059041723
30
0
0
VERTEX
8
0
10
48.705641025641
20
43.3333260810977
30
0
0
VERTEX
8
0
10
49.6246153846154
20
43.9158681667868
30
0
0
VERTEX
8
0
10
50.5435897435897
20
44.5052647286563
30
0
0
VERTEX
8
0
10
51.4625641025641
20
45.0759251938311
30
0
0
VERTEX
8
0
10
52.3815384615384
20
45.6528471393653
30
0
0
VERTEX
8
0
10
53.3005128205128
20
46.2117772345502
30
0
0
VERTEX
8
0
10
54.2194871794871
20
46.7742220099192
30
0
0
VERTEX
8
0
10
55.1384615384615
20
47.3208992742757
30
0
0
VERTEX
8
0
10
56.0574358974358
20
47.8706198997433
30
0
0
VERTEX
8
0
10
56.9764102564102
20
48.4012275036364
30
0
0
VERTEX
8
0
10
57.8953846153846
20
48.9328284780424
30
0
0
VERTEX
8
0
10
58.8143589743589
20
49.4510612036009
30
0
0
VERTEX
8
0
10
59.7333333333333
20
49.9698558386826
30
0
0
VERTEX
8
0
10
60.6523076923076
20
50.4689691362134
30
0
0
VERTEX
8
0
10
61.571282051282
20
50.9671020942224
30
0
0
VERTEX
8
0
10
62.4902564102563
20
51.4537521528033
30
0
0
VERTEX
8
0
10
63.4092307692307
20
51.9390063822809
30
0
0
VERTEX
8
0
10
64.328205128205
20
52.4043924167378
30
0
0
VERTEX
8
0
10
65.2471794871794
20
52.8672274081808
30
0
0
VERTEX
8
0
10
66.1661538461537
20
53.3200379689
30
0
0
VERTEX
8
0
10
67.0851282051281
20
53.7698924377109
30
0
0
VERTEX
8
0
10
68.0041025641025
20
54.1999715410497
30
0
0
VERTEX
8
0
10
68.9230769230768
20
54.6262427026268
30
0
0
VERTEX
8
0
10
69.8420512820512
20
55.0436043582351
30
0
0
VERTEX
8
0
10
70.7610256410255
20
55.4567644910943
30
0
0
VERTEX
8
0
10
71.6799999999999
20
55.8504554847509
30
0
0
VERTEX
8
0
10
72.5989743589742
20
56.2393357183487
30
0
0
VERTEX
8
0
10
73.5179487179486
20
56.6201498662875
30
0
0
VERTEX
8
0
10
74.436923076923
20
56.9957745831098
30
0
0
VERTEX
8
0
10
75.3558974358973
20
57.3524040048721
30
0
0
VERTEX
8
0
10
76.2748717948717
20
57.7034319079802
30
0
0
VERTEX
8
0
10
77.193846153846
20
58.0470260358335
30
0
0
VERTEX
8
0
10
78.1128205128204
20
58.3846591528002
30
0
0
VERTEX
8
0
10
79.0317948717947
20
58.7039055171131
30
0
0
VERTEX
8
0
10
79.9507692307691
20
59.016941152972
30
0
0
VERTEX
8
0
10
80.8697435897435
20
59.323014489241
30
0
0
VERTEX
8
0
10
81.7887179487178
20
59.6225412494997
30
0
0
VERTEX
8
0
10
82.7076923076922
20
59.9044000922459
30
0
0
VERTEX
8
0
10
83.6266666666665
20
60.179597931406
30
0
0
VERTEX
8
0
10
84.5456410256409
20
60.4481860758965
30
0
0
VERTEX
8
0
10
85.4646153846152
20
60.7098054273587
30
0
0
VERTEX
8
0
10
86.3835897435896
20
60.9545674312973
30
0
0
VERTEX
8
0
10
87.3025641025639
20
61.1923600922429
30
0
0
VERTEX
8
0
10
88.2215384615383
20
61.4238120603999
30
0
0
VERTEX
8
0
10
89.1405128205126
20
61.6480192129032
30
0
0
VERTEX
8
0
10
90.059487179487
20
61.856256861149
30
0
0
VERTEX
8
0
10
90.9784615384614
20
62.0573458287936
30
0
0
VERTEX
8
0
10
91.8974358974357
20
62.2523093668742
30
0
0
VERTEX
8
0
10
92.8164102564101
20
62.4398851064581
30
0
0
VERTEX
8
0
10
93.7353846153844
20
62.6124448444985
30
0
0
VERTEX
8
0
10
94.6543589743588
20
62.7777955385305
30
0
0
VERTEX
8
0
10
95.5733333333331
20
62.9372077197767
30
0
0
VERTEX
8
0
10
96.4923076923075
20
63.0892118040237
30
0
0
VERTEX
8
0
10
97.4112820512818
20
63.2272092535072
30
0
0
VERTEX
8
0
10
98.3302564102562
20
63.3580481188881
30
0
0
VERTEX
8
0
10
99.2492307692306
20
63.4831284496561
30
0
0
VERTEX
8
0
10
100.168205128205
20
63.6008943250967
30
0
0
VERTEX
8
0
10
101.087179487179
20
63.7057096840712
30
0
0
VERTEX
8
0
10
102.006153846154
20
63.803520196932
30
0
0
VERTEX
8
0
10
102.925128205128
20
63.8957623631343
30
0
0
VERTEX
8
0
10
103.844102564102
20
63.9808887663093
30
0
0
VERTEX
8
0
10
104.763076923077
20
64.0541571028179
30
0
0
VERTEX
8
0
10
105.682051282051
20
64.1206681537067
30
0
0
VERTEX
8
0
10
106.601025641025
20
64.1818218094647
30
0
0
VERTEX
8
0
10
107.52
20
64.236150101969
30
0
0
VERTEX
8
0
10
108.438974358974
20
64.2797316573916
30
0
0
VERTEX
8
0
10
109.357948717948
20
64.3168778782216
30
0
0
VERTEX
8
0
10
110.276923076923
20
64.3488914262672
30
0
0
VERTEX
8
0
10
111.195897435897
20
64.3744265401174
30
0
0
VERTEX
8
0
10
112.114871794872
20
64.3902938565416
30
0
0
VERTEX
8
0
10
113.033846153846
20
64.4000493003735
30
0
0
VERTEX
8
0
10
113.95282051282
20
64.404812076121
30
0
0
VERTEX
8
0
10
114.871794871795
20
64.4033054839457
30
0
0
VERTEX
8
0
10
115.790769230769
20
64.3928134101501
30
0
0
VERTEX
8
0
10
116.709743589743
20
64.3758023271121
30
0
0
VERTEX
8
0
10
117.628717948718
20
64.3530521216613
30
0
0
VERTEX
8
0
10
118.547692307692
20
64.326631307765
30
0
0
VERTEX
8
0
10
119.466666666666
20
64.2966883998404
30
0
0
VERTEX
8
0
10
120.385641025641
20
64.2647026220098
30
0
0
VERTEX
8
0
10
121.304615384615
20
64.2308626599599
30
0
0
VERTEX
8
0
10
122.223589743589
20
64.1939760227016
30
0
0
VERTEX
8
0
10
123.142564102564
20
64.1523387066148
30
0
0
VERTEX
8
0
10
124.061538461538
20
64.1076278489496
30
0
0
VERTEX
8
0
10
124.980512820513
20
64.0604396104196
30
0
0
VERTEX
8
0
10
125.899487179487
20
64.0100561321392
30
0
0
VERTEX
8
0
10
126.818461538461
20
63.9553767276881
30
0
0
VERTEX
8
0
10
127.737435897436
20
63.8977713423656
30
0
0
VERTEX
8
0
10
128.65641025641
20
63.8377749479563
30
0
0
VERTEX
8
0
10
129.575384615384
20
63.7749174438534
30
0
0
VERTEX
8
0
10
130.494358974359
20
63.7085252802388
30
0
0
VERTEX
8
0
10
131.413333333333
20
63.6396479652988
30
0
0
VERTEX
8
0
10
132.332307692307
20
63.5687300917361
30
0
0
VERTEX
8
0
10
133.251282051282
20
63.4955166275502
30
0
0
VERTEX
8
0
10
134.170256410256
20
63.4196856207181
30
0
0
VERTEX
8
0
10
135.08923076923
20
63.3420178040814
30
0
0
VERTEX
8
0
10
136.008205128205
20
63.2628855287625
30
0
0
VERTEX
8
0
10
136.927179487179
20
63.1822361187532
30
0
0
VERTEX
8
0
10
137.846153846153
20
63.1000411941557
30
0
0
VERTEX
8
0
10
138.765128205128
20
63.0168881265084
30
0
0
VERTEX
8
0
10
139.684102564102
20
62.9331221178244
30
0
0
VERTEX
8
0
10
140.603076923077
20
62.8488932005791
30
0
0
VERTEX
8
0
10
141.522051282051
20
62.7644287690864
30
0
0
VERTEX
8
0
10
142.441025641025
20
62.6802361527166
30
0
0
VERTEX
8
0
10
143.36
20
62.5967330503559
30
0
0
VERTEX
8
0
10
144.278974358974
20
62.514335954141
30
0
0
VERTEX
8
0
10
145.197948717948
20
62.4336024656764
30
0
0
VERTEX
8
0
10
146.116923076923
20
62.3552844189234
30
0
0
VERTEX
8
0
10
147.035897435897
20
62.2802697407664
30
0
0
VERTEX
8
0
10
147.954871794871
20
62.2091610724461
30
0
0
VERTEX
8
0
10
148.873846153846
20
62.1416529974277
30
0
0
VERTEX
8
0
10
149.79282051282
20
62.0771451595637
30
0
0
VERTEX
8
0
10
150.711794871795
20
62.0151919504681
30
0
0
VERTEX
8
0
10
151.630769230769
20
61.9554811252986
30
0
0
VERTEX
8
0
10
152.549743589743
20
61.8977799154826
30
0
0
VERTEX
8
0
10
153.468717948718
20
61.8419053726355
30
0
0
VERTEX
8
0
10
154.387692307692
20
61.7877082630153
30
0
0
VERTEX
8
0
10
155.306666666666
20
61.7350635692073
30
0
0
VERTEX
8
0
10
156.225641025641
20
61.6838644516242
30
0
0
VERTEX
8
0
10
157.144615384615
20
61.6340181792571
30
0
0
VERTEX
8
0
10
158.063589743589
20
61.5854432612593
30
0
0
VERTEX
8
0
10
158.982564102564
20
61.5380673517945
30
0
0
VERTEX
8
0
10
159.901538461538
20
61.4918256749805
30
0
0
VERTEX
8
0
10
160.820512820513
20
61.4466598122904
30
0
0
VERTEX
8
0
10
161.739487179487
20
61.4025167501191
30
0
0
VERTEX
8
0
10
162.658461538461
20
61.3593481188084
30
0
0
VERTEX
8
0
10
163.577435897436
20
61.3171095756087
30
0
0
VERTEX
8
0
10
164.49641025641
20
61.275760297874
30
0
0
VERTEX
8
0
10
165.415384615384
20
61.2352625620572
30
0
0
VERTEX
8
0
10
166.334358974359
20
61.1955813904508
30
0
0
VERTEX
8
0
10
167.253333333333
20
61.1566842520983
30
0
0
VERTEX
8
0
10
168.172307692308
20
61.1185408075269
30
0
0
VERTEX
8
0
10
169.091282051282
20
61.0811226892805
30
0
0
VERTEX
8
0
10
170.010256410256
20
61.0444033119897
30
0
0
VERTEX
8
0
10
170.929230769231
20
61.0083577070027
30
0
0
VERTEX
8
0
10
171.848205128205
20
60.9729623776081
30
0
0
SEQEND
8
0
0
POLYLINE
8
0
62
4
70
0
10
0
20
0
30
0
0
VERTEX
8
0
10
1.83794871794872
20
2.13386728017685
30
0
0
VERTEX
8
0
10
2.75692307692308
20
3.00997903626413
30
0
0
VERTEX
8
0
10
3.67589743589744
20
3.89386932115941
30
0
0
VERTEX
8
0
10
4.59487179487179
20
4.78017049737045
30
0
0
VERTEX
8
0
10
5.51384615384615
20
5.6357447935236
30
0
0
VERTEX
8
0
10
6.43282051282051
20
6.47936665482671
30
0
0
VERTEX
8
0
10
7.35179487179487
20
7.32754389433995
30
0
0
VERTEX
8
0
10
8.27076923076923
20
8.17737262275016
30
0
0
VERTEX
8
0
10
9.18974358974359
20
9.00797934161056
30
0
0
VERTEX
8
0
10
10.1087179487179
20
9.83446738840584
30
0
0
VERTEX
8
0
10
11.0276923076923
20
10.7003613175493
30
0
0
VERTEX
8
0
10
11.9466666666667
20
11.5695356361342
30
0
0
VERTEX
8
0
10
12.865641025641
20
12.4171164926259
30
0
0
VERTEX
8
0
10
13.7846153846154
20
13.3448553220477
30
0
0
VERTEX
8
0
10
14.7035897435897
20
14.287037623464
30
0
0
VERTEX
8
0
10
15.6225641025641
20
15.2267577975968
30
0
0
VERTEX
8
0
10
16.5415384615385
20
16.1940199782233
30
0
0
VERTEX
8
0
10
17.4605128205128
20
17.1569632772754
30
0
0
VERTEX
8
0
10
18.3794871794872
20
18.1298944537773
30
0
0
VERTEX
8
0
10
19.2984615384615
20
19.1857861487918
30
0
0
VERTEX
8
0
10
20.2174358974359
20
20.2128549247297
30
0
0
VERTEX
8
0
10
21.1364102564103
20
21.2397053070417
30
0
0
VERTEX
8
0
10
22.0553846153846
20
22.3033727625661
30
0
0
VERTEX
8
0
10
22.974358974359
20
23.3580607191735
30
0
0
VERTEX
8
0
10
23.8933333333333
20
24.3510763399269
30
0
0
VERTEX
8
0
10
24.8123076923077
20
25.3228635675172
30
0
0
VERTEX
8
0
10
25.7312820512821
20
26.302601275642
30
0
0
VERTEX
8
0
10
26.6502564102564
20
27.2299547601218
30
0
0
VERTEX
8
0
10
27.5692307692308
20
28.1309612160129
30
0
0
VERTEX
8
0
10
28.4882051282051
20
29.0279384944684
30
0
0
VERTEX
8
0
10
29.4071794871795
20
29.8109374221781
30
0
0
VERTEX
8
0
10
30.3261538461539
20
30.5853305191671
30
0
0
VERTEX
8
0
10
31.2451282051282
20
31.3425706405708
30
0
0
VERTEX
8
0
10
32.1641025641026
20
32.0654252382725
30
0
0
VERTEX
8
0
10
33.0830769230769
20
32.7979960957188
30
0
0
VERTEX
8
0
10
34.0020512820513
20
33.5257627574501
30
0
0
VERTEX
8
0
10
34.9210256410257
20
34.1356736115701
30
0
0
VERTEX
8
0
10
35.84
20
34.7375553129011
30
0
0
VERTEX
8
0
10
36.7589743589744
20
35.3455917500966
30
0
0
VERTEX
8
0
10
37.6779487179487
20
35.9370955655248
30
0
0
VERTEX
8
0
10
38.5969230769231
20
36.5138020292818
30
0
0
VERTEX
8
0
10
39.5158974358974
20
37.0864773081804
30
0
0
VERTEX
8
0
10
40.4348717948718
20
37.6153380712349
30
0
0
VERTEX
8
0
10
41.3538461538461
20
38.1522395861614
30
0
0
VERTEX
8
0
10
42.2728205128205
20
38.6763550598537
30
0
0
VERTEX
8
0
10
43.1917948717949
20
39.2298782702947
30
0
0
VERTEX
8
0
10
44.1107692307692
20
39.7834043664639
30
0
0
VERTEX
8
0
10
45.0297435897436
20
40.3345412080708
30
0
0
VERTEX
8
0
10
45.9487179487179
20
40.8667799179131
30
0
0
VERTEX
8
0
10
46.8676923076923
20
41.3980430987022
30
0
0
VERTEX
8
0
10
47.7866666666666
20
41.9364382761707
30
0
0
VERTEX
8
0
10
48.705641025641
20
42.4723576417761
30
0
0
VERTEX
8
0
10
49.6246153846154
20
42.9941711873554
30
0
0
VERTEX
8
0
10
50.5435897435897
20
43.5126963415611
30
0
0
VERTEX
8
0
10
51.4625641025641
20
44.0679262081419
30
0
0
VERTEX
8
0
10
52.3815384615384
20
44.6141571316628
30
0
0
VERTEX
8
0
10
53.3005128205128
20
45.1459553622532
30
0
0
VERTEX
8
0
10
54.2194871794871
20
45.6991037316431
30
0
0
VERTEX
8
0
10
55.1384615384615
20
46.2505535604433
30
0
0
VERTEX
8
0
10
56.0574358974358
20
46.7976179953038
30
0
0
VERTEX
8
0
10
56.9764102564102
20
47.3283042624476
30
0
0
VERTEX
8
0
10
57.8953846153846
20
47.8549595496403
30
0
0
VERTEX
8
0
10
58.8143589743589
20
48.3861705101862
30
0
0
VERTEX
8
0
10
59.7333333333333
20
48.9377129013252
30
0
0
VERTEX
8
0
10
60.6523076923076
20
49.4688857864134
30
0
0
VERTEX
8
0
10
61.571282051282
20
49.9954356947545
30
0
0
VERTEX
8
0
10
62.4902564102563
20
50.5240931455977
30
0
0
VERTEX
8
0
10
63.4092307692307
20
51.0483067560399
30
0
0
VERTEX
8
0
10
64.328205128205
20
51.557044130944
30
0
0
VERTEX
8
0
10
65.2471794871794
20
52.0598355535172
30
0
0
VERTEX
8
0
10
66.1661538461537
20
52.5658080273633
30
0
0
VERTEX
8
0
10
67.0851282051281
20
53.0712423202407
30
0
0
VERTEX
8
0
10
68.0041025641025
20
53.5650924587614
30
0
0
VERTEX
8
0
10
68.9230769230768
20
54.0539973860635
30
0
0
VERTEX
8
0
10
69.8420512820512
20
54.5400745997354
30
0
0
VERTEX
8
0
10
70.7610256410255
20
55.0158201431763
30
0
0
VERTEX
8
0
10
71.6799999999999
20
55.478487836407
30
0
0
VERTEX
8
0
10
72.5989743589742
20
55.9509470144002
30
0
0
VERTEX
8
0
10
73.5179487179486
20
56.4318982163307
30
0
0
VERTEX
8
0
10
74.436923076923
20
56.9075652757498
30
0
0
VERTEX
8
0
10
75.3558974358973
20
57.324220315279
30
0
0
VERTEX
8
0
10
76.2748717948717
20
57.7257216705483
30
0
0
VERTEX
8
0
10
77.193846153846
20
58.128555965954
30
0
0
VERTEX
8
0
10
78.1128205128204
20
58.4636155723321
30
0
0
VERTEX
8
0
10
79.0317948717947
20
58.7586139960882
30
0
0
VERTEX
8
0
10
79.9507692307691
20
59.0486278929195
30
0
0
VERTEX
8
0
10
80.8697435897435
20
59.3393531912458
30
0
0
VERTEX
8
0
10
81.7887179487178
20
59.6247349257924
30
0
0
VERTEX
8
0
10
82.7076923076922
20
59.8987522392278
30
0
0
VERTEX
8
0
10
83.6266666666665
20
60.1812174809774
30
0
0
VERTEX
8
0
10
84.5456410256409
20
60.4638221581159
30
0
0
VERTEX
8
0
10
85.4646153846152
20
60.7410596684436
30
0
0
VERTEX
8
0
10
86.3835897435896
20
60.9982416044713
30
0
0
VERTEX
8
0
10
87.3025641025639
20
61.2509579871807
30
0
0
VERTEX
8
0
10
88.2215384615383
20
61.5035732431452
30
0
0
VERTEX
8
0
10
89.1405128205126
20
61.7209436739532
30
0
0
VERTEX
8
0
10
90.059487179487
20
61.9330730061322
30
0
0
VERTEX
8
0
10
90.9784615384614
20
62.140265394295
30
0
0
VERTEX
8
0
10
91.8974358974357
20
62.2642118774156
30
0
0
VERTEX
8
0
10
92.8164102564101
20
62.3910182150511
30
0
0
VERTEX
8
0
10
93.7353846153844
20
62.5087036746617
30
0
0
VERTEX
8
0
10
94.6543589743588
20
62.6067992832947
30
0
0
VERTEX
8
0
10
95.5733333333331
20
62.7092772539691
30
0
0
VERTEX
8
0
10
96.4923076923075
20
62.8036471386128
30
0
0
VERTEX
8
0
10
97.4112820512818
20
62.8881152177066
30
0
0
VERTEX
8
0
10
98.3302564102562
20
62.9683377592481
30
0
0
VERTEX
8
0
10
99.2492307692306
20
63.0478380531392
30
0
0
VERTEX
8
0
10
100.168205128205
20
63.1400096889178
30
0
0
VERTEX
8
0
10
101.087179487179
20
63.2193870733501
30
0
0
VERTEX
8
0
10
102.006153846154
20
63.2924738611438
30
0
0
VERTEX
8
0
10
102.925128205128
20
63.3628729008796
30
0
0
VERTEX
8
0
10
103.844102564102
20
63.4288863546538
30
0
0
VERTEX
8
0
10
104.763076923077
20
63.4881928402657
30
0
0
VERTEX
8
0
10
105.682051282051
20
63.5435374916346
30
0
0
VERTEX
8
0
10
106.601025641025
20
63.5974517469886
30
0
0
VERTEX
8
0
10
107.52
20
63.6514814809103
30
0
0
VERTEX
8
0
10
108.438974358974
20
63.7005179318771
30
0
0
VERTEX
8
0
10
109.357948717948
20
63.7456498193585
30
0
0
VERTEX
8
0
10
110.276923076923
20
63.7711970913206
30
0
0
VERTEX
8
0
10
111.195897435897
20
63.7919807615642
30
0
0
VERTEX
8
0
10
112.114871794872
20
63.8069185448698
30
0
0
VERTEX
8
0
10
113.033846153846
20
63.8456795617063
30
0
0
VERTEX
8
0
10
113.95282051282
20
63.8767077076363
30
0
0
VERTEX
8
0
10
114.871794871795
20
63.9040220978623
30
0
0
VERTEX
8
0
10
115.790769230769
20
63.9140281409069
30
0
0
VERTEX
8
0
10
116.709743589743
20
63.920050209656
30
0
0
VERTEX
8
0
10
117.628717948718
20
63.9243198927829
30
0
0
VERTEX
8
0
10
118.547692307692
20
63.9169284473337
30
0
0
VERTEX
8
0
10
119.466666666666
20
63.9059815594199
30
0
0
VERTEX
8
0
10
120.385641025641
20
63.8924534416569
30
0
0
VERTEX
8
0
10
121.304615384615
20
63.8973634934957
30
0
0
VERTEX
8
0
10
122.223589743589
20
63.8950095221191
30
0
0
VERTEX
8
0
10
123.142564102564
20
63.888995242348
30
0
0
VERTEX
8
0
10
124.061538461538
20
63.87575218754
30
0
0
VERTEX
8
0
10
124.980512820513
20
63.862185523753
30
0
0
VERTEX
8
0
10
125.899487179487
20
63.8462084380836
30
0
0
VERTEX
8
0
10
126.818461538461
20
63.8421120137755
30
0
0
VERTEX
8
0
10
127.737435897436
20
63.831149195375
30
0
0
VERTEX
8
0
10
128.65641025641
20
63.8186774961591
30
0
0
VERTEX
8
0
10
129.575384615384
20
63.7847339303834
30
0
0
VERTEX
8
0
10
130.494358974359
20
63.7533716129385
30
0
0
VERTEX
8
0
10
131.413333333333
20
63.7129658387256
30
0
0
VERTEX
8
0
10
132.332307692307
20
63.6682988373238
30
0
0
VERTEX
8
0
10
133.251282051282
20
63.6219796721919
30
0
0
VERTEX
8
0
10
134.170256410256
20
63.5640634607973
30
0
0
VERTEX
8
0
10
135.08923076923
20
63.5044894985355
30
0
0
VERTEX
8
0
10
136.008205128205
20
63.4439408960878
30
0
0
VERTEX
8
0
10
136.927179487179
20
63.3869409594205
30
0
0
VERTEX
8
0
10
137.846153846153
20
63.3324419781863
30
0
0
VERTEX
8
0
10
138.765128205128
20
63.2769739956654
30
0
0
VERTEX
8
0
10
139.684102564102
20
63.2166671498226
30
0
0
VERTEX
8
0
10
140.603076923077
20
63.1547327002496
30
0
0
VERTEX
8
0
10
141.522051282051
20
63.0920837513171
30
0
0
VERTEX
8
0
10
142.441025641025
20
63.036226268317
30
0
0
VERTEX
8
0
10
143.36
20
62.9793131848724
30
0
0
VERTEX
8
0
10
144.278974358974
20
62.9220704389857
30
0
0
VERTEX
8
0
10
145.197948717948
20
62.8623483643508
30
0
0
VERTEX
8
0
10
146.116923076923
20
62.8007993108587
30
0
0
VERTEX
8
0
10
147.035897435897
20
62.7393471866226
30
0
0
VERTEX
8
0
10
147.954871794871
20
62.6762838246626
30
0
0
VERTEX
8
0
10
148.873846153846
20
62.6126420702515
30
0
0
VERTEX
8
0
10
149.79282051282
20
62.5492593548976
30
0
0
VERTEX
8
0
10
150.711794871795
20
62.496431651113
30
0
0
VERTEX
8
0
10
151.630769230769
20
62.4450916076383
30
0
0
VERTEX
8
0
10
152.549743589743
20
62.3939260345888
30
0
0
VERTEX
8
0
10
153.468717948718
20
62.3345576821061
30
0
0
VERTEX
8
0
10
154.387692307692
20
62.2748912171167
30
0
0
VERTEX
8
0
10
155.306666666666
20
62.2154676979455
30
0
0
VERTEX
8
0
10
156.225641025641
20
62.1543705727605
30
0
0
VERTEX
8
0
10
157.144615384615
20
62.0936532193605
30
0
0
VERTEX
8
0
10
158.063589743589
20
62.033196091489
30
0
0
VERTEX
8
0
10
158.982564102564
20
61.9872101452327
30
0
0
VERTEX
8
0
10
159.901538461538
20
61.9414079048329
30
0
0
VERTEX
8
0
10
160.820512820513
20
61.8957582883927
30
0
0
VERTEX
8
0
10
161.739487179487
20
61.8363219518122
30
0
0
VERTEX
8
0
10
162.658461538461
20
61.780516459762
30
0
0
VERTEX
8
0
10
163.577435897436
20
61.7281119222159
30
0
0
VERTEX
8
0
10
164.49641025641
20
61.6782161389118
30
0
0
VERTEX
8
0
10
165.415384615384
20
61.6285110944318
30
0
0
VERTEX
8
0
10
166.334358974359
20
61.5789972506551
30
0
0
VERTEX
8
0
10
167.253333333333
20
61.5426945292239
30
0
0
VERTEX
8
0
10
168.172307692308
20
61.5038045752898
30
0
0
VERTEX
8
0
10
169.091282051282
20
61.465034807642
30
0
0
VERTEX
8
0
10
170.010256410256
20
61.4217273267186
30
0
0
VERTEX
8
0
10
170.929230769231
20
61.3799909774547
30
0
0
VERTEX
8
0
10
171.848205128205
20
61.3307932475291
30
0
0
SEQEND
8
0
0
ENDSEC
0
EOF
