0
SECTION
2
HEADER
9
$ACADVER
1
AC1009
0
ENDSEC
0
SECTION
2
ENTITIES
0
POLYLINE
8
0
62
0
70
1
10
0
20
0
30
0
0
VERTEX
8
0
10
0
20
0
30
0
0
VERTEX
8
0
10
0
20
107.54
30
0
0
VERTEX
8
0
10
179.2
20
107.54
30
0
0
VERTEX
8
0
10
179.2
20
0
30
0
0
SEQEND
8
0
0
TEXT
8
0
62
0
10
0
20
-12
30
0
40
8
1
0
50
0
0
LINE
8
0
62
0
10
9.18974358974359
20
0
30
0
11
9.18974358974359
21
3.2
31
0
0
LINE
8
0
62
0
10
9.18974358974359
20
107.54
30
0
11
9.18974358974359
21
104.34
31
0
0
LINE
8
0
62
0
10
18.3794871794872
20
0
30
0
11
18.3794871794872
21
3.2
31
0
0
LINE
8
0
62
0
10
18.3794871794872
20
107.54
30
0
11
18.3794871794872
21
104.34
31
0
0
LINE
8
0
62
0
10
27.5692307692308
20
0
30
0
11
27.5692307692308
21
3.2
31
0
0
LINE
8
0
62
0
10
27.5692307692308
20
107.54
30
0
11
27.5692307692308
21
104.34
31
0
0
LINE
8
0
62
0
10
36.7589743589744
20
0
30
0
11
36.7589743589744
21
3.2
31
0
0
LINE
8
0
62
0
10
36.7589743589744
20
107.54
30
0
11
36.7589743589744
21
104.34
31
0
0
LINE
8
0
62
0
10
45.9487179487179
20
0
30
0
11
45.9487179487179
21
6.4
31
0
0
LINE
8
0
62
0
10
45.9487179487179
20
107.54
30
0
11
45.9487179487179
21
101.14
31
0
0
TEXT
8
0
62
0
10
45.9487179487179
20
-12
30
0
40
8
1
5
50
0
0
LINE
8
0
62
0
10
55.1384615384615
20
0
30
0
11
55.1384615384615
21
3.2
31
0
0
LINE
8
0
62
0
10
55.1384615384615
20
107.54
30
0
11
55.1384615384615
21
104.34
31
0
0
LINE
8
0
62
0
10
64.3282051282051
20
0
30
0
11
64.3282051282051
21
3.2
31
0
0
LINE
8
0
62
0
10
64.3282051282051
20
107.54
30
0
11
64.3282051282051
21
104.34
31
0
0
LINE
8
0
62
0
10
73.5179487179487
20
0
30
0
11
73.5179487179487
21
3.2
31
0
0
LINE
8
0
62
0
10
73.5179487179487
20
107.54
30
0
11
73.5179487179487
21
104.34
31
0
0
LINE
8
0
62
0
10
82.7076923076923
20
0
30
0
11
82.7076923076923
21
3.2
31
0
0
LINE
8
0
62
0
10
82.7076923076923
20
107.54
30
0
11
82.7076923076923
21
104.34
31
0
0
LINE
8
0
62
0
10
91.8974358974359
20
0
30
0
11
91.8974358974359
21
6.4
31
0
0
LINE
8
0
62
0
10
91.8974358974359
20
107.54
30
0
11
91.8974358974359
21
101.14
31
0
0
TEXT
8
0
62
0
10
91.8974358974359
20
-12
30
0
40
8
1
10
50
0
0
LINE
8
0
62
0
10
101.087179487179
20
0
30
0
11
101.087179487179
21
3.2
31
0
0
LINE
8
0
62
0
10
101.087179487179
20
107.54
30
0
11
101.087179487179
21
104.34
31
0
0
LINE
8
0
62
0
10
110.276923076923
20
0
30
0
11
110.276923076923
21
3.2
31
0
0
LINE
8
0
62
0
10
110.276923076923
20
107.54
30
0
11
110.276923076923
21
104.34
31
0
0
LINE
8
0
62
0
10
119.466666666667
20
0
30
0
11
119.466666666667
21
3.2
31
0
0
LINE
8
0
62
0
10
119.466666666667
20
107.54
30
0
11
119.466666666667
21
104.34
31
0
0
LINE
8
0
62
0
10
128.65641025641
20
0
30
0
11
128.65641025641
21
3.2
31
0
0
LINE
8
0
62
0
10
128.65641025641
20
107.54
30
0
11
128.65641025641
21
104.34
31
0
0
LINE
8
0
62
0
10
137.846153846154
20
0
30
0
11
137.846153846154
21
6.4
31
0
0
LINE
8
0
62
0
10
137.846153846154
20
107.54
30
0
11
137.846153846154
21
101.14
31
0
0
TEXT
8
0
62
0
10
137.846153846154
20
-12
30
0
40
8
1
15
50
0
0
LINE
8
0
62
0
10
147.035897435897
20
0
30
0
11
147.035897435897
21
3.2
31
0
0
LINE
8
0
62
0
10
147.035897435897
20
107.54
30
0
11
147.035897435897
21
104.34
31
0
0
LINE
8
0
62
0
10
156.225641025641
20
0
30
0
11
156.225641025641
21
3.2
31
0
0
LINE
8
0
62
0
10
156.225641025641
20
107.54
30
0
11
156.225641025641
21
104.34
31
0
0
LINE
8
0
62
0
10
165.415384615385
20
0
30
0
11
165.415384615385
21
3.2
31
0
0
LINE
8
0
62
0
10
165.415384615385
20
107.54
30
0
11
165.415384615385
21
104.34
31
0
0
LINE
8
0
62
0
10
174.605128205128
20
0
30
0
11
174.605128205128
21
3.2
31
0
0
LINE
8
0
62
0
10
174.605128205128
20
107.54
30
0
11
174.605128205128
21
104.34
31
0
0
TEXT
8
0
62
0
10
-4
20
-4
30
0
40
8
1
0
50
0
0
LINE
8
0
62
0
10
0
20
6.72125
30
0
11
3.2
21
6.72125
31
0
0
LINE
8
0
62
0
10
179.2
20
6.72125
30
0
11
176
21
6.72125
31
0
0
LINE
8
0
62
0
10
0
20
13.4425
30
0
11
3.2
21
13.4425
31
0
0
LINE
8
0
62
0
10
179.2
20
13.4425
30
0
11
176
21
13.4425
31
0
0
LINE
8
0
62
0
10
0
20
20.16375
30
0
11
3.2
21
20.16375
31
0
0
LINE
8
0
62
0
10
179.2
20
20.16375
30
0
11
176
21
20.16375
31
0
0
LINE
8
0
62
0
10
0
20
26.885
30
0
11
3.2
21
26.885
31
0
0
LINE
8
0
62
0
10
179.2
20
26.885
30
0
11
176
21
26.885
31
0
0
LINE
8
0
62
0
10
0
20
33.60625
30
0
11
6.4
21
33.60625
31
0
0
LINE
8
0
62
0
10
179.2
20
33.60625
30
0
11
172.8
21
33.60625
31
0
0
TEXT
8
0
62
0
10
-4
20
29.60625
30
0
40
8
1
50
50
0
0
LINE
8
0
62
0
10
0
20
40.3275
30
0
11
3.2
21
40.3275
31
0
0
LINE
8
0
62
0
10
179.2
20
40.3275
30
0
11
176
21
40.3275
31
0
0
LINE
8
0
62
0
10
0
20
47.04875
30
0
11
3.2
21
47.04875
31
0
0
LINE
8
0
62
0
10
179.2
20
47.04875
30
0
11
176
21
47.04875
31
0
0
LINE
8
0
62
0
10
0
20
53.77
30
0
11
3.2
21
53.77
31
0
0
LINE
8
0
62
0
10
179.2
20
53.77
30
0
11
176
21
53.77
31
0
0
LINE
8
0
62
0
10
0
20
60.49125
30
0
11
3.2
21
60.49125
31
0
0
LINE
8
0
62
0
10
179.2
20
60.49125
30
0
11
176
21
60.49125
31
0
0
LINE
8
0
62
0
10
0
20
67.2125
30
0
11
6.4
21
67.2125
31
0
0
LINE
8
0
62
0
10
179.2
20
67.2125
30
0
11
172.8
21
67.2125
31
0
0
TEXT
8
0
62
0
10
-4
20
63.2125
30
0
40
8
1
100
50
0
0
LINE
8
0
62
0
10
0
20
73.93375
30
0
11
3.2
21
73.93375
31
0
0
LINE
8
0
62
0
10
179.2
20
73.93375
30
0
11
176
21
73.93375
31
0
0
LINE
8
0
62
0
10
0
20
80.655
30
0
11
3.2
21
80.655
31
0
0
LINE
8
0
62
0
10
179.2
20
80.655
30
0
11
176
21
80.655
31
0
0
LINE
8
0
62
0
10
0
20
87.37625
30
0
11
3.2
21
87.37625
31
0
0
LINE
8
0
62
0
10
179.2
20
87.37625
30
0
11
176
21
87.37625
31
0
0
LINE
8
0
62
0
10
0
20
94.0975
30
0
11
3.2
21
94.0975
31
0
0
LINE
8
0
62
0
10
179.2
20
94.0975
30
0
11
176
21
94.0975
31
0
0
LINE
8
0
62
0
10
0
20
100.81875
30
0
11
6.4
21
100.81875
31
0
0
LINE
8
0
62
0
10
179.2
20
100.81875
30
0
11
172.8
21
100.81875
31
0
0
TEXT
8
0
62
0
10
-4
20
96.81875
30
0
40
8
1
150
50
0
0
TEXT
8
0
62
0
10
89.6
20
-32
30
0
40
10
1
R (kpc)
50
0
0
TEXT
8
0
62
0
10
-24
20
53.77
30
0
40
10
1
V (km/s)
50
90
0
TEXT
8
0
62
0
10
72.6
20
122.54
30
0
40
11
1
V vs. R
50
0
0
POLYLINE
8
0
62
5
70
0
10
0
20
0
30
0
0
VERTEX
8
0
10
1.83794871794872
20
8.14004043026646
30
0
0
VERTEX
8
0
10
2.75692307692308
20
10.9904299538014
30
0
0
VERTEX
8
0
10
3.67589743589744
20
13.8621009112332
30
0
0
VERTEX
8
0
10
4.59487179487179
20
16.9447149724297
30
0
0
VERTEX
8
0
10
5.51384615384615
20
19.3211302874972
30
0
0
VERTEX
8
0
10
6.43282051282051
20
22.442830599046
30
0
0
VERTEX
8
0
10
7.35179487179487
20
24.2630722739514
30
0
0
VERTEX
8
0
10
8.27076923076923
20
26.0341767986856
30
0
0
VERTEX
8
0
10
9.18974358974359
20
27.7693790787501
30
0
0
VERTEX
8
0
10
10.1087179487179
20
29.283276040459
30
0
0
VERTEX
8
0
10
11.0276923076923
20
30.7958295470311
30
0
0
VERTEX
8
0
10
11.9466666666667
20
32.0488427694322
30
0
0
VERTEX
8
0
10
12.865641025641
20
33.3611806283046
30
0
0
VERTEX
8
0
10
13.7846153846154
20
34.3115604137325
30
0
0
VERTEX
8
0
10
14.7035897435897
20
35.3532678337656
30
0
0
VERTEX
8
0
10
15.6225641025641
20
36.1855815108016
30
0
0
VERTEX
8
0
10
16.5415384615385
20
36.9827454168108
30
0
0
VERTEX
8
0
10
17.4605128205128
20
37.7799093228201
30
0
0
VERTEX
8
0
10
18.3794871794872
20
38.3643143120499
30
0
0
VERTEX
8
0
10
19.2984615384615
20
38.9451051578567
30
0
0
VERTEX
8
0
10
20.2174358974359
20
39.5258960036634
30
0
0
VERTEX
8
0
10
21.1364102564103
20
39.9254490699978
30
0
0
VERTEX
8
0
10
22.0553846153846
20
40.3430111160027
30
0
0
VERTEX
8
0
10
22.974358974359
20
40.7605731620075
30
0
0
VERTEX
8
0
10
23.8933333333333
20
40.9432826286909
30
0
0
VERTEX
8
0
10
24.8123076923077
20
41.1710437446936
30
0
0
VERTEX
8
0
10
25.7312820512821
20
41.3988048606962
30
0
0
VERTEX
8
0
10
26.6502564102564
20
41.4970841993963
30
0
0
VERTEX
8
0
10
27.5692307692308
20
41.6299448503978
30
0
0
VERTEX
8
0
10
28.4882051282051
20
41.7628055013993
30
0
0
VERTEX
8
0
10
29.4071794871795
20
41.7484673968586
30
0
0
VERTEX
8
0
10
30.3261538461539
20
41.782631564259
30
0
0
VERTEX
8
0
10
31.2451282051282
20
41.786275742115
30
0
0
VERTEX
8
0
10
32.1641025641026
20
41.7710916677149
30
0
0
VERTEX
8
0
10
33.0830769230769
20
41.7559075933147
30
0
0
VERTEX
8
0
10
34.0020512820513
20
41.6756355657055
30
0
0
VERTEX
8
0
10
34.9210256410257
20
41.5731430635043
30
0
0
VERTEX
8
0
10
35.84
20
41.4706505613031
30
0
0
VERTEX
8
0
10
36.7589743589744
20
41.338348884469
30
0
0
VERTEX
8
0
10
37.6779487179487
20
41.2016922148675
30
0
0
VERTEX
8
0
10
38.5969230769231
20
41.0650355452659
30
0
0
VERTEX
8
0
10
39.5158974358974
20
40.8980240755008
30
0
0
VERTEX
8
0
10
40.4348717948718
20
40.7309992570988
30
0
0
VERTEX
8
0
10
41.3538461538461
20
40.5639744386969
30
0
0
VERTEX
8
0
10
42.2728205128205
20
40.3541839250338
30
0
0
VERTEX
8
0
10
43.1917948717949
20
40.1491989206314
30
0
0
VERTEX
8
0
10
44.1107692307692
20
39.9442139162291
30
0
0
VERTEX
8
0
10
45.0297435897436
20
39.7106761776359
30
0
0
VERTEX
8
0
10
45.9487179487179
20
39.4829150616333
30
0
0
VERTEX
8
0
10
46.8676923076923
20
39.2551539456307
30
0
0
VERTEX
8
0
10
47.7866666666666
20
39.0116698040156
30
0
0
VERTEX
8
0
10
48.705641025641
20
38.7725206322128
30
0
0
VERTEX
8
0
10
49.6246153846154
20
38.5333714604101
30
0
0
VERTEX
8
0
10
50.5435897435897
20
38.2942222886073
30
0
0
VERTEX
8
0
10
51.4625641025641
20
38.0550731168045
30
0
0
VERTEX
8
0
10
52.3815384615384
20
37.8111050871042
30
0
0
VERTEX
8
0
10
53.3005128205128
20
37.5643638781013
30
0
0
VERTEX
8
0
10
54.2194871794871
20
37.3176226690985
30
0
0
VERTEX
8
0
10
55.1384615384615
20
37.0650981631867
30
0
0
VERTEX
8
0
10
56.0574358974358
20
36.8107649169838
30
0
0
VERTEX
8
0
10
56.9764102564102
20
36.5564316707808
30
0
0
VERTEX
8
0
10
57.8953846153846
20
36.3020984245779
30
0
0
VERTEX
8
0
10
58.8143589743589
20
36.0477651783749
30
0
0
VERTEX
8
0
10
59.7333333333333
20
35.793431932172
30
0
0
VERTEX
8
0
10
60.6523076923076
20
35.5468108609006
30
0
0
VERTEX
8
0
10
61.571282051282
20
35.3000696518978
30
0
0
VERTEX
8
0
10
62.4902564102563
20
35.0533284428949
30
0
0
VERTEX
8
0
10
63.4092307692307
20
34.8196021548065
30
0
0
VERTEX
8
0
10
64.328205128205
20
34.5842490016038
30
0
0
VERTEX
8
0
10
65.2471794871794
20
34.348895848401
30
0
0
VERTEX
8
0
10
66.1661538461537
20
34.1231837481526
30
0
0
VERTEX
8
0
10
67.0851282051281
20
33.89542263215
30
0
0
VERTEX
8
0
10
68.0041025641025
20
33.6676615161473
30
0
0
VERTEX
8
0
10
68.9230769230768
20
33.4399004001447
30
0
0
VERTEX
8
0
10
69.8420512820512
20
33.212139284142
30
0
0
VERTEX
8
0
10
70.7610256410255
20
32.9823892212509
30
0
0
VERTEX
8
0
10
71.6799999999999
20
32.7508320866483
30
0
0
VERTEX
8
0
10
72.5989743589742
20
32.5192749520456
30
0
0
VERTEX
8
0
10
73.5179487179486
20
32.2852466510488
30
0
0
VERTEX
8
0
10
74.436923076923
20
32.049893497846
30
0
0
VERTEX
8
0
10
75.3558974358973
20
31.8145403446433
30
0
0
VERTEX
8
0
10
76.2748717948717
20
31.6028142786391
30
0
0
VERTEX
8
0
10
77.193846153846
20
31.3978292742367
30
0
0
VERTEX
8
0
10
78.1128205128204
20
31.1928442698343
30
0
0
VERTEX
8
0
10
79.0317948717947
20
31.0016016870539
30
0
0
VERTEX
8
0
10
79.9507692307691
20
30.8118007570517
30
0
0
VERTEX
8
0
10
80.8697435897435
20
30.6219998270495
30
0
0
VERTEX
8
0
10
81.7887179487178
20
30.424363247225
30
0
0
VERTEX
8
0
10
82.7076923076922
20
30.2269702800227
30
0
0
VERTEX
8
0
10
83.6266666666665
20
30.0295773128204
30
0
0
VERTEX
8
0
10
84.5456410256409
20
29.8497845232855
30
0
0
VERTEX
8
0
10
85.4646153846152
20
29.6675756304834
30
0
0
VERTEX
8
0
10
86.3835897435896
20
29.4853667376813
30
0
0
VERTEX
8
0
10
87.3025641025639
20
29.2885110531116
30
0
0
VERTEX
8
0
10
88.2215384615383
20
29.0949141045093
30
0
0
VERTEX
8
0
10
89.1405128205126
20
28.9013171559071
30
0
0
VERTEX
8
0
10
90.059487179487
20
28.7291781410176
30
0
0
VERTEX
8
0
10
90.9784615384614
20
28.5507652668155
30
0
0
VERTEX
8
0
10
91.8974358974357
20
28.3826058142826
30
0
0
VERTEX
8
0
10
92.8164102564101
20
28.2231730330808
30
0
0
VERTEX
8
0
10
93.7353846153844
20
28.0637402518789
30
0
0
VERTEX
8
0
10
94.6543589743588
20
27.9043074706771
30
0
0
VERTEX
8
0
10
95.5733333333331
20
27.7448746894752
30
0
0
VERTEX
8
0
10
96.4923076923075
20
27.5854419082734
30
0
0
VERTEX
8
0
10
97.4112820512818
20
27.4290242504167
30
0
0
VERTEX
8
0
10
98.3302564102562
20
27.2733874878149
30
0
0
VERTEX
8
0
10
99.2492307692306
20
27.1177507252131
30
0
0
VERTEX
8
0
10
100.168205128205
20
26.9551192769096
30
0
0
VERTEX
8
0
10
101.087179487179
20
26.7918904771077
30
0
0
VERTEX
8
0
10
102.006153846154
20
26.6286616773058
30
0
0
VERTEX
8
0
10
102.925128205128
20
26.4853306892865
30
0
0
VERTEX
8
0
10
103.844102564102
20
26.3410819824849
30
0
0
VERTEX
8
0
10
104.763076923077
20
26.1968332756832
30
0
0
VERTEX
8
0
10
105.682051282051
20
26.0748934781925
30
0
0
VERTEX
8
0
10
106.601025641025
20
25.9496248643911
30
0
0
VERTEX
8
0
10
107.52
20
25.8243562505896
30
0
0
VERTEX
8
0
10
108.438974358974
20
25.7188636422597
30
0
0
VERTEX
8
0
10
109.357948717948
20
25.6087791028584
30
0
0
VERTEX
8
0
10
110.276923076923
20
25.4986945634572
30
0
0
VERTEX
8
0
10
111.195897435897
20
25.3614789196881
30
0
0
VERTEX
8
0
10
112.114871794872
20
25.2324142872866
30
0
0
VERTEX
8
0
10
113.033846153846
20
25.1139117637811
30
0
0
VERTEX
8
0
10
113.95282051282
20
25.0038272243798
30
0
0
VERTEX
8
0
10
114.871794871795
20
24.8937426849785
30
0
0
VERTEX
8
0
10
115.790769230769
20
24.7784688630075
30
0
0
VERTEX
8
0
10
116.709743589743
20
24.6607922864061
30
0
0
VERTEX
8
0
10
117.628717948718
20
24.5431157098048
30
0
0
VERTEX
8
0
10
118.547692307692
20
24.4377465763656
30
0
0
VERTEX
8
0
10
119.466666666666
20
24.3352540741644
30
0
0
VERTEX
8
0
10
120.385641025641
20
24.2327615719632
30
0
0
VERTEX
8
0
10
121.304615384615
20
24.1338281500582
30
0
0
VERTEX
8
0
10
122.223589743589
20
24.0351316664571
30
0
0
VERTEX
8
0
10
123.142564102564
20
23.9364351828559
30
0
0
VERTEX
8
0
10
124.061538461538
20
23.8377386992548
30
0
0
VERTEX
8
0
10
124.980512820513
20
23.7390422156536
30
0
0
VERTEX
8
0
10
125.899487179487
20
23.6403457320525
30
0
0
VERTEX
8
0
10
126.818461538461
20
23.5506962870665
30
0
0
VERTEX
8
0
10
127.737435897436
20
23.4595918406654
30
0
0
VERTEX
8
0
10
128.65641025641
20
23.3684873942644
30
0
0
VERTEX
8
0
10
129.575384615384
20
23.2673714702368
30
0
0
VERTEX
8
0
10
130.494358974359
20
23.1686749866357
30
0
0
VERTEX
8
0
10
131.413333333333
20
23.0699785030345
30
0
0
VERTEX
8
0
10
132.332307692307
20
22.9767699777523
30
0
0
VERTEX
8
0
10
133.251282051282
20
22.8818695127512
30
0
0
VERTEX
8
0
10
134.170256410256
20
22.7934915254238
30
0
0
VERTEX
8
0
10
135.08923076923
20
22.7099791162228
30
0
0
VERTEX
8
0
10
136.008205128205
20
22.6264667070218
30
0
0
VERTEX
8
0
10
136.927179487179
20
22.5402979190906
30
0
0
VERTEX
8
0
10
137.846153846153
20
22.4529894912896
30
0
0
VERTEX
8
0
10
138.765128205128
20
22.3656810634886
30
0
0
VERTEX
8
0
10
139.684102564102
20
22.2783726356876
30
0
0
VERTEX
8
0
10
140.603076923077
20
22.1910642078866
30
0
0
VERTEX
8
0
10
141.522051282051
20
22.1037557800856
30
0
0
VERTEX
8
0
10
142.441025641025
20
22.0164473522846
30
0
0
VERTEX
8
0
10
143.36
20
21.9291389244836
30
0
0
VERTEX
8
0
10
144.278974358974
20
21.8418304966825
30
0
0
VERTEX
8
0
10
145.197948717948
20
21.7709342178706
30
0
0
VERTEX
8
0
10
146.116923076923
20
21.6988098644697
30
0
0
VERTEX
8
0
10
147.035897435897
20
21.6266855110689
30
0
0
VERTEX
8
0
10
147.954871794871
20
21.5453906441622
30
0
0
VERTEX
8
0
10
148.873846153846
20
21.4656742535613
30
0
0
VERTEX
8
0
10
149.79282051282
20
21.3859578629603
30
0
0
VERTEX
8
0
10
150.711794871795
20
21.3214439011352
30
0
0
VERTEX
8
0
10
151.630769230769
20
21.2531155663344
30
0
0
VERTEX
8
0
10
152.549743589743
20
21.1847872315336
30
0
0
VERTEX
8
0
10
153.468717948718
20
21.1053595052043
30
0
0
VERTEX
8
0
10
154.387692307692
20
21.0294391332034
30
0
0
VERTEX
8
0
10
155.306666666666
20
20.9579905545423
30
0
0
VERTEX
8
0
10
156.225641025641
20
20.8896622197415
30
0
0
VERTEX
8
0
10
157.144615384615
20
20.8213338849408
30
0
0
VERTEX
8
0
10
158.063589743589
20
20.7584417824911
30
0
0
VERTEX
8
0
10
158.982564102564
20
20.6977054848904
30
0
0
VERTEX
8
0
10
159.901538461538
20
20.6369691872897
30
0
0
VERTEX
8
0
10
160.820512820513
20
20.5730325540078
30
0
0
VERTEX
8
0
10
161.739487179487
20
20.508500237807
30
0
0
VERTEX
8
0
10
162.658461538461
20
20.4439679216063
30
0
0
VERTEX
8
0
10
163.577435897436
20
20.3794356054055
30
0
0
VERTEX
8
0
10
164.49641025641
20
20.3149032892048
30
0
0
VERTEX
8
0
10
165.415384615384
20
20.250370973004
30
0
0
VERTEX
8
0
10
166.334358974359
20
20.1983329808811
30
0
0
VERTEX
8
0
10
167.253333333333
20
20.1451887204805
30
0
0
VERTEX
8
0
10
168.172307692308
20
20.0920444600799
30
0
0
VERTEX
8
0
10
169.091282051282
20
20.0435471938776
30
0
0
VERTEX
8
0
10
170.010256410256
20
19.994198952077
30
0
0
VERTEX
8
0
10
170.929230769231
20
19.9448507102764
30
0
0
VERTEX
8
0
10
171.848205128205
20
19.8173674463854
30
0
0
SEQEND
8
0
0
POLYLINE
8
0
62
6
70
0
10
0
20
0
30
0
0
VERTEX
8
0
10
1.83794871794872
20
1.35930488588839
30
0
0
VERTEX
8
0
10
2.75692307692308
20
1.74270276449284
30
0
0
VERTEX
8
0
10
3.67589743589744
20
2.12610064309728
30
0
0
VERTEX
8
0
10
4.59487179487179
20
2.50949852170173
30
0
0
VERTEX
8
0
10
5.51384615384615
20
2.86717782441806
30
0
0
VERTEX
8
0
10
6.43282051282051
20
3.20502347982198
30
0
0
VERTEX
8
0
10
7.35179487179487
20
3.5428691352259
30
0
0
VERTEX
8
0
10
8.27076923076923
20
3.88859109311887
30
0
0
VERTEX
8
0
10
9.18974358974359
20
4.23782480432292
30
0
0
VERTEX
8
0
10
10.1087179487179
20
4.58705851552697
30
0
0
VERTEX
8
0
10
11.0276923076923
20
5.00776826111102
30
0
0
VERTEX
8
0
10
11.9466666666667
20
5.44431040011608
30
0
0
VERTEX
8
0
10
12.865641025641
20
5.88085253912115
30
0
0
VERTEX
8
0
10
13.7846153846154
20
6.4932984636704
30
0
0
VERTEX
8
0
10
14.7035897435897
20
7.11584551407762
30
0
0
VERTEX
8
0
10
15.6225641025641
20
7.73839256448484
30
0
0
VERTEX
8
0
10
16.5415384615385
20
8.4505256538531
30
0
0
VERTEX
8
0
10
17.4605128205128
20
9.15658511346129
30
0
0
VERTEX
8
0
10
18.3794871794872
20
9.86264457306948
30
0
0
VERTEX
8
0
10
19.2984615384615
20
10.7221192917339
30
0
0
VERTEX
8
0
10
20.2174358974359
20
11.5560503493264
30
0
0
VERTEX
8
0
10
21.1364102564103
20
12.3899814069189
30
0
0
VERTEX
8
0
10
22.0553846153846
20
13.2679597242562
30
0
0
VERTEX
8
0
10
22.974358974359
20
14.1321143204167
30
0
0
VERTEX
8
0
10
23.8933333333333
20
14.9203237918119
30
0
0
VERTEX
8
0
10
24.8123076923077
20
15.6782621722873
30
0
0
VERTEX
8
0
10
25.7312820512821
20
16.4362005527628
30
0
0
VERTEX
8
0
10
26.6502564102564
20
17.1163600669361
30
0
0
VERTEX
8
0
10
27.5692307692308
20
17.7819286614772
30
0
0
VERTEX
8
0
10
28.4882051282051
20
18.4474972560183
30
0
0
VERTEX
8
0
10
29.4071794871795
20
18.9236854925072
30
0
0
VERTEX
8
0
10
30.3261538461539
20
19.3938294257868
30
0
0
VERTEX
8
0
10
31.2451282051282
20
19.8639733590663
30
0
0
VERTEX
8
0
10
32.1641025641026
20
20.2870986257521
30
0
0
VERTEX
8
0
10
33.0830769230769
20
20.7162976468095
30
0
0
VERTEX
8
0
10
34.0020512820513
20
21.145496667867
30
0
0
VERTEX
8
0
10
34.9210256410257
20
21.4137853717794
30
0
0
VERTEX
8
0
10
35.84
20
21.6757106551824
30
0
0
VERTEX
8
0
10
36.7589743589744
20
21.9376359385854
30
0
0
VERTEX
8
0
10
37.6779487179487
20
22.1798107002782
30
0
0
VERTEX
8
0
10
38.5969230769231
20
22.4235994503699
30
0
0
VERTEX
8
0
10
39.5158974358974
20
22.6673882004616
30
0
0
VERTEX
8
0
10
40.4348717948718
20
22.8260364795799
30
0
0
VERTEX
8
0
10
41.3538461538461
20
22.9998097754931
30
0
0
VERTEX
8
0
10
42.2728205128205
20
23.1735830714062
30
0
0
VERTEX
8
0
10
43.1917948717949
20
23.399472007384
30
0
0
VERTEX
8
0
10
44.1107692307692
20
23.6120490489865
30
0
0
VERTEX
8
0
10
45.0297435897436
20
23.8246260905889
30
0
0
VERTEX
8
0
10
45.9487179487179
20
24.0283673585075
30
0
0
VERTEX
8
0
10
46.8676923076923
20
24.2349340373266
30
0
0
VERTEX
8
0
10
47.7866666666666
20
24.4415007161456
30
0
0
VERTEX
8
0
10
48.705641025641
20
24.6491456007673
30
0
0
VERTEX
8
0
10
49.6246153846154
20
24.8567667291975
30
0
0
VERTEX
8
0
10
50.5435897435897
20
25.0643878576276
30
0
0
VERTEX
8
0
10
51.4625641025641
20
25.324979436083
30
0
0
VERTEX
8
0
10
52.3815384615384
20
25.5766765582581
30
0
0
VERTEX
8
0
10
53.3005128205128
20
25.8283736804333
30
0
0
VERTEX
8
0
10
54.2194871794871
20
26.1243197876356
30
0
0
VERTEX
8
0
10
55.1384615384615
20
26.4080566205356
30
0
0
VERTEX
8
0
10
56.0574358974358
20
26.6917934534356
30
0
0
VERTEX
8
0
10
56.9764102564102
20
26.9721475868397
30
0
0
VERTEX
8
0
10
57.8953846153846
20
27.253052963243
30
0
0
VERTEX
8
0
10
58.8143589743589
20
27.5339583396463
30
0
0
VERTEX
8
0
10
59.7333333333333
20
27.8589041724198
30
0
0
VERTEX
8
0
10
60.6523076923076
20
28.1731301565345
30
0
0
VERTEX
8
0
10
61.571282051282
20
28.4873561406493
30
0
0
VERTEX
8
0
10
62.4902564102563
20
28.7985268543823
30
0
0
VERTEX
8
0
10
63.4092307692307
20
29.1106439392748
30
0
0
VERTEX
8
0
10
64.328205128205
20
29.4200896282207
30
0
0
VERTEX
8
0
10
65.2471794871794
20
29.7275671348242
30
0
0
VERTEX
8
0
10
66.1661538461537
20
30.0350446414278
30
0
0
VERTEX
8
0
10
67.0851282051281
20
30.3506133416904
30
0
0
VERTEX
8
0
10
68.0041025641025
20
30.6696033637204
30
0
0
VERTEX
8
0
10
68.9230769230768
20
30.9885933857503
30
0
0
VERTEX
8
0
10
69.8420512820512
20
31.2981890852707
30
0
0
VERTEX
8
0
10
70.7610256410255
20
31.5989884110038
30
0
0
VERTEX
8
0
10
71.6799999999999
20
31.8997877367369
30
0
0
VERTEX
8
0
10
72.5989743589742
20
32.2263603531621
30
0
0
VERTEX
8
0
10
73.5179487179486
20
32.564206008566
30
0
0
VERTEX
8
0
10
74.436923076923
20
32.9020516639699
30
0
0
VERTEX
8
0
10
75.3558974358973
20
33.1594768261022
30
0
0
VERTEX
8
0
10
76.2748717948717
20
33.3995750025549
30
0
0
VERTEX
8
0
10
77.193846153846
20
33.6396731790077
30
0
0
VERTEX
8
0
10
78.1128205128204
20
33.7719477414232
30
0
0
VERTEX
8
0
10
79.0317948717947
20
33.8554601506242
30
0
0
VERTEX
8
0
10
79.9507692307691
20
33.9389725598252
30
0
0
VERTEX
8
0
10
80.8697435897435
20
34.0220308706487
30
0
0
VERTEX
8
0
10
81.7887179487178
20
34.104986530455
30
0
0
VERTEX
8
0
10
82.7076923076922
20
34.1879421902613
30
0
0
VERTEX
8
0
10
83.6266666666665
20
34.294585018523
30
0
0
VERTEX
8
0
10
84.5456410256409
20
34.4008254884559
30
0
0
VERTEX
8
0
10
85.4646153846152
20
34.5070659583888
30
0
0
VERTEX
8
0
10
86.3835897435896
20
34.5971155706224
30
0
0
VERTEX
8
0
10
87.3025641025639
20
34.6882200170235
30
0
0
VERTEX
8
0
10
88.2215384615383
20
34.7793244634245
30
0
0
VERTEX
8
0
10
89.1405128205126
20
34.8173932770641
30
0
0
VERTEX
8
0
10
90.059487179487
20
34.8641803496887
30
0
0
VERTEX
8
0
10
90.9784615384614
20
34.9109674223134
30
0
0
VERTEX
8
0
10
91.8974358974357
20
34.8099115379876
30
0
0
VERTEX
8
0
10
92.8164102564101
20
34.7222823198823
30
0
0
VERTEX
8
0
10
93.7353846153844
20
34.6346531017771
30
0
0
VERTEX
8
0
10
94.6543589743588
20
34.5195335707099
30
0
0
VERTEX
8
0
10
95.5733333333331
20
34.4129558294439
30
0
0
VERTEX
8
0
10
96.4923076923075
20
34.2998918779297
30
0
0
VERTEX
8
0
10
97.4112820512818
20
34.1841581454937
30
0
0
VERTEX
8
0
10
98.3302564102562
20
34.0684244130577
30
0
0
VERTEX
8
0
10
99.2492307692306
20
33.9526906806217
30
0
0
VERTEX
8
0
10
100.168205128205
20
33.8688796093939
30
0
0
VERTEX
8
0
10
101.087179487179
20
33.776088043615
30
0
0
VERTEX
8
0
10
102.006153846154
20
33.6794655452927
30
0
0
VERTEX
8
0
10
102.925128205128
20
33.5799613981596
30
0
0
VERTEX
8
0
10
103.844102564102
20
33.4804572510265
30
0
0
VERTEX
8
0
10
104.763076923077
20
33.3820679614035
30
0
0
VERTEX
8
0
10
105.682051282051
20
33.2838865509581
30
0
0
VERTEX
8
0
10
106.601025641025
20
33.1857051405127
30
0
0
VERTEX
8
0
10
107.52
20
33.0958198924117
30
0
0
VERTEX
8
0
10
108.438974358974
20
33.0091560715428
30
0
0
VERTEX
8
0
10
109.357948717948
20
32.9224922506739
30
0
0
VERTEX
8
0
10
110.276923076923
20
32.8010227983608
30
0
0
VERTEX
8
0
10
111.195897435897
20
32.6777910725887
30
0
0
VERTEX
8
0
10
112.114871794872
20
32.5545593468165
30
0
0
VERTEX
8
0
10
113.033846153846
20
32.4850898783242
30
0
0
VERTEX
8
0
10
113.95282051282
20
32.4040337164527
30
0
0
VERTEX
8
0
10
114.871794871795
20
32.3229775545812
30
0
0
VERTEX
8
0
10
115.790769230769
20
32.2180845017024
30
0
0
VERTEX
8
0
10
116.709743589743
20
32.1117959809012
30
0
0
VERTEX
8
0
10
117.628717948718
20
32.0055074600999
30
0
0
VERTEX
8
0
10
118.547692307692
20
31.8820363526767
30
0
0
VERTEX
8
0
10
119.466666666666
20
31.7597152356706
30
0
0
VERTEX
8
0
10
120.385641025641
20
31.6373941186645
30
0
0
VERTEX
8
0
10
121.304615384615
20
31.5552813047598
30
0
0
VERTEX
8
0
10
122.223589743589
20
31.4639682859082
30
0
0
VERTEX
8
0
10
123.142564102564
20
31.3726552670566
30
0
0
VERTEX
8
0
10
124.061538461538
20
31.2715532934214
30
0
0
VERTEX
8
0
10
124.980512820513
20
31.1728568098202
30
0
0
VERTEX
8
0
10
125.899487179487
20
31.0741603262191
30
0
0
VERTEX
8
0
10
126.818461538461
20
31.0062944566228
30
0
0
VERTEX
8
0
10
127.737435897436
20
30.9288190890508
30
0
0
VERTEX
8
0
10
128.65641025641
20
30.8513437214788
30
0
0
VERTEX
8
0
10
129.575384615384
20
30.733782956987
30
0
0
VERTEX
8
0
10
130.494358974359
20
30.6267459254759
30
0
0
VERTEX
8
0
10
131.413333333333
20
30.5045721866339
30
0
0
VERTEX
8
0
10
132.332307692307
20
30.37612214772
30
0
0
VERTEX
8
0
10
133.251282051282
20
30.2476721088062
30
0
0
VERTEX
8
0
10
134.170256410256
20
30.0987085951082
30
0
0
VERTEX
8
0
10
135.08923076923
20
29.9489903908683
30
0
0
VERTEX
8
0
10
136.008205128205
20
29.7992721866284
30
0
0
VERTEX
8
0
10
136.927179487179
20
29.6596661371381
30
0
0
VERTEX
8
0
10
137.846153846153
20
29.5281785141409
30
0
0
VERTEX
8
0
10
138.765128205128
20
29.3966908911436
30
0
0
VERTEX
8
0
10
139.684102564102
20
29.2563884816114
30
0
0
VERTEX
8
0
10
140.603076923077
20
29.1142396999928
30
0
0
VERTEX
8
0
10
141.522051282051
20
28.9720909183741
30
0
0
VERTEX
8
0
10
142.441025641025
20
28.8458596150382
30
0
0
VERTEX
8
0
10
143.36
20
28.7181951534318
30
0
0
VERTEX
8
0
10
144.278974358974
20
28.5905306918254
30
0
0
VERTEX
8
0
10
145.197948717948
20
28.4578438889144
30
0
0
VERTEX
8
0
10
146.116923076923
20
28.3211872193128
30
0
0
VERTEX
8
0
10
147.035897435897
20
28.1845305497112
30
0
0
VERTEX
8
0
10
147.954871794871
20
28.0438488696897
30
0
0
VERTEX
8
0
10
148.873846153846
20
27.9013210246534
30
0
0
VERTEX
8
0
10
149.79282051282
20
27.7587931796171
30
0
0
VERTEX
8
0
10
150.711794871795
20
27.639549931805
30
0
0
VERTEX
8
0
10
151.630769230769
20
27.5232668303859
30
0
0
VERTEX
8
0
10
152.549743589743
20
27.4069837289669
30
0
0
VERTEX
8
0
10
153.468717948718
20
27.2715572076779
30
0
0
VERTEX
8
0
10
154.387692307692
20
27.1349005380763
30
0
0
VERTEX
8
0
10
155.306666666666
20
26.9982438684748
30
0
0
VERTEX
8
0
10
156.225641025641
20
26.8571504892753
30
0
0
VERTEX
8
0
10
157.144615384615
20
26.7163343524843
30
0
0
VERTEX
8
0
10
158.063589743589
20
26.5755182156933
30
0
0
VERTEX
8
0
10
158.982564102564
20
26.4679990308443
30
0
0
VERTEX
8
0
10
159.901538461538
20
26.3605531872991
30
0
0
VERTEX
8
0
10
160.820512820513
20
26.253107343754
30
0
0
VERTEX
8
0
10
161.739487179487
20
26.1126686425517
30
0
0
VERTEX
8
0
10
162.658461538461
20
25.9802418222473
30
0
0
VERTEX
8
0
10
163.577435897436
20
25.8553776338529
30
0
0
VERTEX
8
0
10
164.49641025641
20
25.7360272222782
30
0
0
VERTEX
8
0
10
165.415384615384
20
25.6166768107036
30
0
0
VERTEX
8
0
10
166.334358974359
20
25.497326399129
30
0
0
VERTEX
8
0
10
167.253333333333
20
25.4095257929957
30
0
0
VERTEX
8
0
10
168.172307692308
20
25.3151877011205
30
0
0
VERTEX
8
0
10
169.091282051282
20
25.2208496092454
30
0
0
VERTEX
8
0
10
170.010256410256
20
25.1151217179073
30
0
0
VERTEX
8
0
10
170.929230769231
20
25.0128775533715
30
0
0
VERTEX
8
0
10
171.848205128205
20
24.8919053404655
30
0
0
SEQEND
8
0
0
POLYLINE
8
0
62
6
70
0
10
0
20
0
30
0
0
VERTEX
8
0
10
1.83794871794872
20
14.662851846247
30
0
0
VERTEX
8
0
10
2.75692307692308
20
16.9594430992736
30
0
0
VERTEX
8
0
10
3.67589743589744
20
18.2558126513317
30
0
0
VERTEX
8
0
10
4.59487179487179
20
19.3748789346247
30
0
0
VERTEX
8
0
10
5.51384615384615
20
20.4466215193705
30
0
0
VERTEX
8
0
10
6.43282051282051
20
20.8350114458786
30
0
0
VERTEX
8
0
10
7.35179487179487
20
21.3756701712332
30
0
0
VERTEX
8
0
10
8.27076923076923
20
21.554908828982
30
0
0
VERTEX
8
0
10
9.18974358974359
20
21.7978540193848
30
0
0
VERTEX
8
0
10
10.1087179487179
20
22.0407992097876
30
0
0
VERTEX
8
0
10
11.0276923076923
20
22.0343082834374
30
0
0
VERTEX
8
0
10
11.9466666666667
20
22.091248562438
30
0
0
VERTEX
8
0
10
12.865641025641
20
22.1481888414387
30
0
0
VERTEX
8
0
10
13.7846153846154
20
22.1048195754279
30
0
0
VERTEX
8
0
10
14.7035897435897
20
22.0934315196278
30
0
0
VERTEX
8
0
10
15.6225641025641
20
22.0391233491085
30
0
0
VERTEX
8
0
10
16.5415384615385
20
21.9556109399076
30
0
0
VERTEX
8
0
10
17.4605128205128
20
21.8720985307066
30
0
0
VERTEX
8
0
10
18.3794871794872
20
21.7748802569459
30
0
0
VERTEX
8
0
10
19.2984615384615
20
21.6723877547447
30
0
0
VERTEX
8
0
10
20.2174358974359
20
21.5698952525435
30
0
0
VERTEX
8
0
10
21.1364102564103
20
21.4577325730895
30
0
0
VERTEX
8
0
10
22.0553846153846
20
21.3438520150881
30
0
0
VERTEX
8
0
10
22.974358974359
20
21.2299714570868
30
0
0
VERTEX
8
0
10
23.8933333333333
20
21.097562839469
30
0
0
VERTEX
8
0
10
24.8123076923077
20
20.9647021884675
30
0
0
VERTEX
8
0
10
25.7312820512821
20
20.831841537466
30
0
0
VERTEX
8
0
10
26.6502564102564
20
20.7282957064672
30
0
0
VERTEX
8
0
10
27.5692307692308
20
20.622007185666
30
0
0
VERTEX
8
0
10
28.4882051282051
20
20.5157186648648
30
0
0
VERTEX
8
0
10
29.4071794871795
20
20.3720697365863
30
0
0
VERTEX
8
0
10
30.3261538461539
20
20.2354130669848
30
0
0
VERTEX
8
0
10
31.2451282051282
20
20.0987563973832
30
0
0
VERTEX
8
0
10
32.1641025641026
20
19.9981656208639
30
0
0
VERTEX
8
0
10
33.0830769230769
20
19.8880810814626
30
0
0
VERTEX
8
0
10
34.0020512820513
20
19.7779965420613
30
0
0
VERTEX
8
0
10
34.9210256410257
20
19.679180982552
30
0
0
VERTEX
8
0
10
35.84
20
19.5766884803508
30
0
0
VERTEX
8
0
10
36.7589743589744
20
19.4556304513366
30
0
0
VERTEX
8
0
10
37.6779487179487
20
19.3227698003351
30
0
0
VERTEX
8
0
10
38.5969230769231
20
19.1899091493335
30
0
0
VERTEX
8
0
10
39.5158974358974
20
19.0766688708331
30
0
0
VERTEX
8
0
10
40.4348717948718
20
18.9703803500319
30
0
0
VERTEX
8
0
10
41.3538461538461
20
18.8640918292307
30
0
0
VERTEX
8
0
10
42.2728205128205
20
18.7348073993885
30
0
0
VERTEX
8
0
10
43.1917948717949
20
18.601946748387
30
0
0
VERTEX
8
0
10
44.1107692307692
20
18.4690860973855
30
0
0
VERTEX
8
0
10
45.0297435897436
20
18.3701315907018
30
0
0
VERTEX
8
0
10
45.9487179487179
20
18.2714351071007
30
0
0
VERTEX
8
0
10
46.8676923076923
20
18.1727386234996
30
0
0
VERTEX
8
0
10
47.7866666666666
20
18.0740421398984
30
0
0
VERTEX
8
0
10
48.705641025641
20
17.9753456562973
30
0
0
VERTEX
8
0
10
49.6246153846154
20
17.8766491726961
30
0
0
VERTEX
8
0
10
50.5435897435897
20
17.787416265855
30
0
0
VERTEX
8
0
10
51.4625641025641
20
17.696311819454
30
0
0
VERTEX
8
0
10
52.3815384615384
20
17.6052073730529
30
0
0
VERTEX
8
0
10
53.3005128205128
20
17.5245309424232
30
0
0
VERTEX
8
0
10
54.2194871794871
20
17.4410185332222
30
0
0
VERTEX
8
0
10
55.1384615384615
20
17.3575061240213
30
0
0
VERTEX
8
0
10
56.0574358974358
20
17.2739937148203
30
0
0
VERTEX
8
0
10
56.9764102564102
20
17.1904813056193
30
0
0
VERTEX
8
0
10
57.8953846153846
20
17.1069688964184
30
0
0
VERTEX
8
0
10
58.8143589743589
20
17.0234564872174
30
0
0
VERTEX
8
0
10
59.7333333333333
20
16.9399440780164
30
0
0
VERTEX
8
0
10
60.6523076923076
20
16.8564316688155
30
0
0
VERTEX
8
0
10
61.571282051282
20
16.7729192596145
30
0
0
VERTEX
8
0
10
62.4902564102563
20
16.6894068504135
30
0
0
VERTEX
8
0
10
63.4092307692307
20
16.6125881758293
30
0
0
VERTEX
8
0
10
64.328205128205
20
16.5366678038284
30
0
0
VERTEX
8
0
10
65.2471794871794
20
16.4607474318275
30
0
0
VERTEX
8
0
10
66.1661538461537
20
16.3924852334547
30
0
0
VERTEX
8
0
10
67.0851282051281
20
16.3241568986539
30
0
0
VERTEX
8
0
10
68.0041025641025
20
16.2558285638531
30
0
0
VERTEX
8
0
10
68.9230769230768
20
16.1788776164129
30
0
0
VERTEX
8
0
10
69.8420512820512
20
16.102957244412
30
0
0
VERTEX
8
0
10
70.7610256410255
20
16.0270368724111
30
0
0
VERTEX
8
0
10
71.6799999999999
20
15.960703552061
30
0
0
VERTEX
8
0
10
72.5989743589742
20
15.8923752172602
30
0
0
VERTEX
8
0
10
73.5179487179486
20
15.8240468824594
30
0
0
VERTEX
8
0
10
74.436923076923
20
15.7504428023276
30
0
0
VERTEX
8
0
10
75.3558974358973
20
15.6783184489267
30
0
0
VERTEX
8
0
10
76.2748717948717
20
15.6022702030525
30
0
0
VERTEX
8
0
10
77.193846153846
20
15.5225538124516
30
0
0
VERTEX
8
0
10
78.1128205128204
20
15.4428374218507
30
0
0
VERTEX
8
0
10
79.0317948717947
20
15.385118522931
30
0
0
VERTEX
8
0
10
79.9507692307691
20
15.3395662997304
30
0
0
VERTEX
8
0
10
80.8697435897435
20
15.2940140765299
30
0
0
VERTEX
8
0
10
81.7887179487178
20
15.2426090828333
30
0
0
VERTEX
8
0
10
82.7076923076922
20
15.1894648224327
30
0
0
VERTEX
8
0
10
83.6266666666665
20
15.1363205620321
30
0
0
VERTEX
8
0
10
84.5456410256409
20
15.0661332778629
30
0
0
VERTEX
8
0
10
85.4646153846152
20
14.9940089244621
30
0
0
VERTEX
8
0
10
86.3835897435896
20
14.9218845710613
30
0
0
VERTEX
8
0
10
87.3025641025639
20
14.865323514698
30
0
0
VERTEX
8
0
10
88.2215384615383
20
14.8083832356973
30
0
0
VERTEX
8
0
10
89.1405128205126
20
14.7514429566966
30
0
0
VERTEX
8
0
10
90.059487179487
20
14.7032487652261
30
0
0
VERTEX
8
0
10
90.9784615384614
20
14.6539005234255
30
0
0
VERTEX
8
0
10
91.8974358974357
20
14.604552281625
30
0
0
VERTEX
8
0
10
92.8164102564101
20
14.5406382500122
30
0
0
VERTEX
8
0
10
93.7353846153844
20
14.4799019524115
30
0
0
VERTEX
8
0
10
94.6543589743588
20
14.4191656548108
30
0
0
VERTEX
8
0
10
95.5733333333331
20
14.3744418055393
30
0
0
VERTEX
8
0
10
96.4923076923075
20
14.3250935637387
30
0
0
VERTEX
8
0
10
97.4112820512818
20
14.2818163729843
30
0
0
VERTEX
8
0
10
98.3302564102562
20
14.2438561869838
30
0
0
VERTEX
8
0
10
99.2492307692306
20
14.2058960009834
30
0
0
VERTEX
8
0
10
100.168205128205
20
14.140370879918
30
0
0
VERTEX
8
0
10
101.087179487179
20
14.0606544893171
30
0
0
VERTEX
8
0
10
102.006153846154
20
13.9809380987162
30
0
0
VERTEX
8
0
10
102.925128205128
20
13.937079180436
30
0
0
VERTEX
8
0
10
103.844102564102
20
13.9029150130356
30
0
0
VERTEX
8
0
10
104.763076923077
20
13.8687508456352
30
0
0
VERTEX
8
0
10
105.682051282051
20
13.8207053094385
30
0
0
VERTEX
8
0
10
106.601025641025
20
13.771357067638
30
0
0
VERTEX
8
0
10
107.52
20
13.7220088258374
30
0
0
VERTEX
8
0
10
108.438974358974
20
13.6726605840368
30
0
0
VERTEX
8
0
10
109.357948717948
20
13.6233123422363
30
0
0
VERTEX
8
0
10
110.276923076923
20
13.5739641004357
30
0
0
VERTEX
8
0
10
111.195897435897
20
13.5423549834768
30
0
0
VERTEX
8
0
10
112.114871794872
20
13.5081908160764
30
0
0
VERTEX
8
0
10
113.033846153846
20
13.474026648676
30
0
0
VERTEX
8
0
10
113.95282051282
20
13.4005264755468
30
0
0
VERTEX
8
0
10
114.871794871795
20
13.3359941593461
30
0
0
VERTEX
8
0
10
115.790769230769
20
13.2714618431453
30
0
0
VERTEX
8
0
10
116.709743589743
20
13.2717201696059
30
0
0
VERTEX
8
0
10
117.628717948718
20
13.2527400766057
30
0
0
VERTEX
8
0
10
118.547692307692
20
13.2045640878217
30
0
0
VERTEX
8
0
10
119.466666666666
20
13.1324397344209
30
0
0
VERTEX
8
0
10
120.385641025641
20
13.0603153810201
30
0
0
VERTEX
8
0
10
121.304615384615
20
13.0292732777486
30
0
0
VERTEX
8
0
10
122.223589743589
20
13.0178852219484
30
0
0
VERTEX
8
0
10
123.142564102564
20
13.0064971661483
30
0
0
VERTEX
8
0
10
124.061538461538
20
12.9524110684055
30
0
0
VERTEX
8
0
10
124.980512820513
20
12.8878787522048
30
0
0
VERTEX
8
0
10
125.899487179487
20
12.8233464360041
30
0
0
VERTEX
8
0
10
126.818461538461
20
12.8011990755365
30
0
0
VERTEX
8
0
10
127.737435897436
20
12.7822189825363
30
0
0
VERTEX
8
0
10
128.65641025641
20
12.7632388895361
30
0
0
VERTEX
8
0
10
129.575384615384
20
12.712144403335
30
0
0
VERTEX
8
0
10
130.494358974359
20
12.6627961615344
30
0
0
VERTEX
8
0
10
131.413333333333
20
12.6134479197338
30
0
0
VERTEX
8
0
10
132.332307692307
20
12.5820857525564
30
0
0
VERTEX
8
0
10
133.251282051282
20
12.547921585156
30
0
0
VERTEX
8
0
10
134.170256410256
20
12.5137574177556
30
0
0
VERTEX
8
0
10
135.08923076923
20
12.509465679324
30
0
0
VERTEX
8
0
10
136.008205128205
20
12.4980776235239
30
0
0
VERTEX
8
0
10
136.927179487179
20
12.4866895677237
30
0
0
VERTEX
8
0
10
137.846153846153
20
12.3879261892494
30
0
0
VERTEX
8
0
10
138.765128205128
20
12.3158018358485
30
0
0
VERTEX
8
0
10
139.684102564102
20
12.2844734953303
30
0
0
VERTEX
8
0
10
140.603076923077
20
12.2844734953303
30
0
0
VERTEX
8
0
10
141.522051282051
20
12.2844734953303
30
0
0
VERTEX
8
0
10
142.441025641025
20
12.2502915803105
30
0
0
VERTEX
8
0
10
143.36
20
12.20094333851
30
0
0
VERTEX
8
0
10
144.278974358974
20
12.1515950967094
30
0
0
VERTEX
8
0
10
145.197948717948
20
12.1146932452453
30
0
0
VERTEX
8
0
10
146.116923076923
20
12.0805290778449
30
0
0
VERTEX
8
0
10
147.035897435897
20
12.0463649104445
30
0
0
VERTEX
8
0
10
147.954871794871
20
12.0409512797625
30
0
0
VERTEX
8
0
10
148.873846153846
20
12.0371552611625
30
0
0
VERTEX
8
0
10
149.79282051282
20
12.0333592425624
30
0
0
VERTEX
8
0
10
150.711794871795
20
11.9480424920529
30
0
0
VERTEX
8
0
10
151.630769230769
20
11.868326101452
30
0
0
VERTEX
8
0
10
152.549743589743
20
11.788609710851
30
0
0
VERTEX
8
0
10
153.468717948718
20
11.8046166983743
30
0
0
VERTEX
8
0
10
154.387692307692
20
11.8046166983743
30
0
0
VERTEX
8
0
10
155.306666666666
20
11.8046166983743
30
0
0
VERTEX
8
0
10
156.225641025641
20
11.7491714666992
30
0
0
VERTEX
8
0
10
157.144615384615
20
11.7074152620987
30
0
0
VERTEX
8
0
10
158.063589743589
20
11.6656590574982
30
0
0
VERTEX
8
0
10
158.982564102564
20
11.6294255480102
30
0
0
VERTEX
8
0
10
159.901538461538
20
11.5914653620098
30
0
0
VERTEX
8
0
10
160.820512820513
20
11.5733852401726
30
0
0
VERTEX
8
0
10
161.739487179487
20
11.5695892215725
30
0
0
VERTEX
8
0
10
162.658461538461
20
11.5657932029725
30
0
0
VERTEX
8
0
10
163.577435897436
20
11.5350860291343
30
0
0
VERTEX
8
0
10
164.49641025641
20
11.4933298245338
30
0
0
VERTEX
8
0
10
165.415384615384
20
11.4515736199334
30
0
0
VERTEX
8
0
10
166.334358974359
20
11.4098174153329
30
0
0
VERTEX
8
0
10
167.253333333333
20
11.3680612107324
30
0
0
VERTEX
8
0
10
168.172307692308
20
11.3263050061319
30
0
0
VERTEX
8
0
10
169.091282051282
20
11.3247599014182
30
0
0
VERTEX
8
0
10
170.010256410256
20
11.3247599014182
30
0
0
VERTEX
8
0
10
170.929230769231
20
11.3247599014182
30
0
0
VERTEX
8
0
10
171.848205128205
20
11.3247599014182
30
0
0
SEQEND
8
0
0
POLYLINE
8
0
62
3
70
0
10
0
20
0
30
0
0
VERTEX
8
0
10
1.83794871794872
20
19.7031581596622
30
0
0
VERTEX
8
0
10
2.75692307692308
20
23.5052925674507
30
0
0
VERTEX
8
0
10
3.67589743589744
20
26.9551119669418
30
0
0
VERTEX
8
0
10
4.59487179487179
20
30.0996618276548
30
0
0
VERTEX
8
0
10
5.51384615384615
20
33.291793659201
30
0
0
VERTEX
8
0
10
6.43282051282051
20
35.7834656174334
30
0
0
VERTEX
8
0
10
7.35179487179487
20
38.0988221393981
30
0
0
VERTEX
8
0
10
8.27076923076923
20
40.3770406624006
30
0
0
VERTEX
8
0
10
9.18974358974359
20
41.9448686715827
30
0
0
VERTEX
8
0
10
10.1087179487179
20
43.7183964638822
30
0
0
VERTEX
8
0
10
11.0276923076923
20
45.4918752648305
30
0
0
VERTEX
8
0
10
11.9466666666667
20
46.8738357582836
30
0
0
VERTEX
8
0
10
12.865641025641
20
48.291768669856
30
0
0
VERTEX
8
0
10
13.7846153846154
20
49.6795659556135
30
0
0
VERTEX
8
0
10
14.7035897435897
20
50.9262181131987
30
0
0
VERTEX
8
0
10
15.6225641025641
20
52.1308027410117
30
0
0
VERTEX
8
0
10
16.5415384615385
20
53.2560661472082
30
0
0
VERTEX
8
0
10
17.4605128205128
20
54.3165272310619
30
0
0
VERTEX
8
0
10
18.3794871794872
20
55.3769883149156
30
0
0
VERTEX
8
0
10
19.2984615384615
20
56.2747598596406
30
0
0
VERTEX
8
0
10
20.2174358974359
20
57.1830567292359
30
0
0
VERTEX
8
0
10
21.1364102564103
20
58.0913535988311
30
0
0
VERTEX
8
0
10
22.0553846153846
20
58.8673096023639
30
0
0
VERTEX
8
0
10
22.974358974359
20
59.6758615641732
30
0
0
VERTEX
8
0
10
23.8933333333333
20
60.4844135259826
30
0
0
VERTEX
8
0
10
24.8123076923077
20
61.1494779566681
30
0
0
VERTEX
8
0
10
25.7312820512821
20
61.8593334348763
30
0
0
VERTEX
8
0
10
26.6502564102564
20
62.5096552063114
30
0
0
VERTEX
8
0
10
27.5692307692308
20
63.1170181823185
30
0
0
VERTEX
8
0
10
28.4882051282051
20
63.7243811583255
30
0
0
VERTEX
8
0
10
29.4071794871795
20
64.2618776725146
30
0
0
VERTEX
8
0
10
30.3261538461539
20
64.7705441649205
30
0
0
VERTEX
8
0
10
31.2451282051282
20
65.2792106573264
30
0
0
VERTEX
8
0
10
32.1641025641026
20
65.718150545223
30
0
0
VERTEX
8
0
10
33.0830769230769
20
66.1433046284279
30
0
0
VERTEX
8
0
10
34.0020512820513
20
66.5684587116329
30
0
0
VERTEX
8
0
10
34.9210256410257
20
66.8767612550063
30
0
0
VERTEX
8
0
10
35.84
20
67.1804427430098
30
0
0
VERTEX
8
0
10
36.7589743589744
20
67.4841242310133
30
0
0
VERTEX
8
0
10
37.6779487179487
20
67.7547350780136
30
0
0
VERTEX
8
0
10
38.5969230769231
20
68.0280484172167
30
0
0
VERTEX
8
0
10
39.5158974358974
20
68.3013617564199
30
0
0
VERTEX
8
0
10
40.4348717948718
20
68.5423627482055
30
0
0
VERTEX
8
0
10
41.3538461538461
20
68.7891039572083
30
0
0
VERTEX
8
0
10
42.2728205128205
20
69.0358451662112
30
0
0
VERTEX
8
0
10
43.1917948717949
20
69.262193298667
30
0
0
VERTEX
8
0
10
44.1107692307692
20
69.4937504332697
30
0
0
VERTEX
8
0
10
45.0297435897436
20
69.7253075678724
30
0
0
VERTEX
8
0
10
45.9487179487179
20
69.9122207933356
30
0
0
VERTEX
8
0
10
46.8676923076923
20
70.1134097791379
30
0
0
VERTEX
8
0
10
47.7866666666666
20
70.3168654544883
30
0
0
VERTEX
8
0
10
48.705641025641
20
70.5218504588907
30
0
0
VERTEX
8
0
10
49.6246153846154
20
70.726835463293
30
0
0
VERTEX
8
0
10
50.5435897435897
20
70.9263226495879
30
0
0
VERTEX
8
0
10
51.4625641025641
20
71.1237156167902
30
0
0
VERTEX
8
0
10
52.3815384615384
20
71.3211085839925
30
0
0
VERTEX
8
0
10
53.3005128205128
20
71.5185015511948
30
0
0
VERTEX
8
0
10
54.2194871794871
20
71.7158945183971
30
0
0
VERTEX
8
0
10
55.1384615384615
20
71.9132874855994
30
0
0
VERTEX
8
0
10
56.0574358974358
20
72.1106804528017
30
0
0
VERTEX
8
0
10
56.9764102564102
20
72.308073420004
30
0
0
VERTEX
8
0
10
57.8953846153846
20
72.5054663872062
30
0
0
VERTEX
8
0
10
58.8143589743589
20
72.6986637868378
30
0
0
VERTEX
8
0
10
59.7333333333333
20
72.89226073544
30
0
0
VERTEX
8
0
10
60.6523076923076
20
73.0858576840422
30
0
0
VERTEX
8
0
10
61.571282051282
20
73.2934879938738
30
0
0
VERTEX
8
0
10
62.4902564102563
20
73.4984729982762
30
0
0
VERTEX
8
0
10
63.4092307692307
20
73.7034580026786
30
0
0
VERTEX
8
0
10
64.328205128205
20
73.9239230268273
30
0
0
VERTEX
8
0
10
65.2471794871794
20
74.1402960870299
30
0
0
VERTEX
8
0
10
66.1661538461537
20
74.3566691472324
30
0
0
VERTEX
8
0
10
67.0851282051281
20
74.5956111117861
30
0
0
VERTEX
8
0
10
68.0041025641025
20
74.8271682463888
30
0
0
VERTEX
8
0
10
68.9230769230768
20
75.0680390889652
30
0
0
VERTEX
8
0
10
69.8420512820512
20
75.314780297968
30
0
0
VERTEX
8
0
10
70.7610256410255
20
75.5615215069709
30
0
0
VERTEX
8
0
10
71.6799999999999
20
75.8279372414675
30
0
0
VERTEX
8
0
10
72.5989743589742
20
76.1012505806707
30
0
0
VERTEX
8
0
10
73.5179487179486
20
76.3745639198739
30
0
0
VERTEX
8
0
10
74.436923076923
20
76.6610487230962
30
0
0
VERTEX
8
0
10
75.3558974358973
20
76.9495461366995
30
0
0
VERTEX
8
0
10
76.2748717948717
20
77.2380435503029
30
0
0
VERTEX
8
0
10
77.193846153846
20
77.3944129710401
30
0
0
VERTEX
8
0
10
78.1128205128204
20
77.5500497336419
30
0
0
VERTEX
8
0
10
79.0317948717947
20
77.7056864962437
30
0
0
VERTEX
8
0
10
79.9507692307691
20
77.8442940387809
30
0
0
VERTEX
8
0
10
80.8697435897435
20
77.9847467269826
30
0
0
VERTEX
8
0
10
81.7887179487178
20
78.1251994151842
30
0
0
VERTEX
8
0
10
82.7076923076922
20
78.2419544807768
30
0
0
VERTEX
8
0
10
83.6266666666665
20
78.3634270759782
30
0
0
VERTEX
8
0
10
84.5456410256409
20
78.4848996711796
30
0
0
VERTEX
8
0
10
85.4646153846152
20
78.6324809865184
30
0
0
VERTEX
8
0
10
86.3835897435896
20
78.7729336747201
30
0
0
VERTEX
8
0
10
87.3025641025639
20
78.9057545831892
30
0
0
VERTEX
8
0
10
88.2215384615383
20
79.0310231969907
30
0
0
VERTEX
8
0
10
89.1405128205126
20
79.1562918107921
30
0
0
VERTEX
8
0
10
90.059487179487
20
79.2552686157668
30
0
0
VERTEX
8
0
10
90.9784615384614
20
79.3387810249678
30
0
0
VERTEX
8
0
10
91.8974358974357
20
79.4222934341687
30
0
0
VERTEX
8
0
10
92.8164102564101
20
79.4483581644803
30
0
0
VERTEX
8
0
10
93.7353846153844
20
79.4559502016804
30
0
0
VERTEX
8
0
10
94.6543589743588
20
79.4635422388804
30
0
0
VERTEX
8
0
10
95.5733333333331
20
79.4644250691802
30
0
0
VERTEX
8
0
10
96.4923076923075
20
79.4644250691802
30
0
0
VERTEX
8
0
10
97.4112820512818
20
79.4644250691802
30
0
0
VERTEX
8
0
10
98.3302564102562
20
79.4644250691802
30
0
0
VERTEX
8
0
10
99.2492307692306
20
79.4644250691802
30
0
0
VERTEX
8
0
10
100.168205128205
20
79.4644250691802
30
0
0
VERTEX
8
0
10
101.087179487179
20
79.4644250691802
30
0
0
VERTEX
8
0
10
102.006153846154
20
79.4644250691802
30
0
0
VERTEX
8
0
10
102.925128205128
20
79.4644250691802
30
0
0
VERTEX
8
0
10
103.844102564102
20
79.4644250691802
30
0
0
VERTEX
8
0
10
104.763076923077
20
79.4644250691802
30
0
0
VERTEX
8
0
10
105.682051282051
20
79.4644250691802
30
0
0
VERTEX
8
0
10
106.601025641025
20
79.4644250691802
30
0
0
VERTEX
8
0
10
107.52
20
79.4644250691802
30
0
0
VERTEX
8
0
10
108.438974358974
20
79.4644250691802
30
0
0
VERTEX
8
0
10
109.357948717948
20
79.4644250691802
30
0
0
VERTEX
8
0
10
110.276923076923
20
79.4644250691802
30
0
0
VERTEX
8
0
10
111.195897435897
20
79.4644250691802
30
0
0
VERTEX
8
0
10
112.114871794872
20
79.4644250691802
30
0
0
VERTEX
8
0
10
113.033846153846
20
79.4644250691802
30
0
0
VERTEX
8
0
10
113.95282051282
20
79.4732274333497
30
0
0
VERTEX
8
0
10
114.871794871795
20
79.4846154891499
30
0
0
VERTEX
8
0
10
115.790769230769
20
79.49600354495
30
0
0
VERTEX
8
0
10
116.709743589743
20
79.5176406234367
30
0
0
VERTEX
8
0
10
117.628717948718
20
79.5404167350369
30
0
0
VERTEX
8
0
10
118.547692307692
20
79.5631928466372
30
0
0
VERTEX
8
0
10
119.466666666666
20
79.5274905522197
30
0
0
VERTEX
8
0
10
120.385641025641
20
79.4933263848193
30
0
0
VERTEX
8
0
10
121.304615384615
20
79.4591622174189
30
0
0
VERTEX
8
0
10
122.223589743589
20
79.4644250691802
30
0
0
VERTEX
8
0
10
123.142564102564
20
79.4644250691802
30
0
0
VERTEX
8
0
10
124.061538461538
20
79.4644250691802
30
0
0
VERTEX
8
0
10
124.980512820513
20
79.4644250691802
30
0
0
VERTEX
8
0
10
125.899487179487
20
79.4644250691802
30
0
0
VERTEX
8
0
10
126.818461538461
20
79.4644250691802
30
0
0
VERTEX
8
0
10
127.737435897436
20
79.4644250691802
30
0
0
VERTEX
8
0
10
128.65641025641
20
79.4644250691802
30
0
0
VERTEX
8
0
10
129.575384615384
20
79.4603622295325
30
0
0
VERTEX
8
0
10
130.494358974359
20
79.4527701923325
30
0
0
VERTEX
8
0
10
131.413333333333
20
79.4451781551324
30
0
0
VERTEX
8
0
10
132.332307692307
20
79.4099360853075
30
0
0
VERTEX
8
0
10
133.251282051282
20
79.3605878435069
30
0
0
VERTEX
8
0
10
134.170256410256
20
79.3112396017064
30
0
0
VERTEX
8
0
10
135.08923076923
20
79.279866512917
30
0
0
VERTEX
8
0
10
136.008205128205
20
79.2532943827167
30
0
0
VERTEX
8
0
10
136.927179487179
20
79.2267222525164
30
0
0
VERTEX
8
0
10
137.846153846153
20
79.1792816522708
30
0
0
VERTEX
8
0
10
138.765128205128
20
79.1299334104703
30
0
0
VERTEX
8
0
10
139.684102564102
20
79.0805851686697
30
0
0
VERTEX
8
0
10
140.603076923077
20
79.0470781182553
30
0
0
VERTEX
8
0
10
141.522051282051
20
79.0129139508549
30
0
0
VERTEX
8
0
10
142.441025641025
20
78.9787497834545
30
0
0
VERTEX
8
0
10
143.36
20
78.9579131681108
30
0
0
VERTEX
8
0
10
144.278974358974
20
78.9351370565105
30
0
0
VERTEX
8
0
10
145.197948717948
20
78.9123609449103
30
0
0
VERTEX
8
0
10
146.116923076923
20
78.840337464731
30
0
0
VERTEX
8
0
10
147.035897435897
20
78.7796011671303
30
0
0
VERTEX
8
0
10
147.954871794871
20
78.7188648695296
30
0
0
VERTEX
8
0
10
148.873846153846
20
78.6419077028382
30
0
0
VERTEX
8
0
10
149.79282051282
20
78.5697833494373
30
0
0
VERTEX
8
0
10
150.711794871795
20
78.5164974114594
30
0
0
VERTEX
8
0
10
151.630769230769
20
78.4785372254589
30
0
0
VERTEX
8
0
10
152.549743589743
20
78.4405770394585
30
0
0
VERTEX
8
0
10
153.468717948718
20
78.3897399695836
30
0
0
VERTEX
8
0
10
154.387692307692
20
78.332799690583
30
0
0
VERTEX
8
0
10
155.306666666666
20
78.2758594115823
30
0
0
VERTEX
8
0
10
156.225641025641
20
78.2189191325816
30
0
0
VERTEX
8
0
10
157.144615384615
20
78.161978853581
30
0
0
VERTEX
8
0
10
158.063589743589
20
78.1050385745803
30
0
0
VERTEX
8
0
10
158.982564102564
20
78.0764168218696
30
0
0
VERTEX
8
0
10
159.901538461538
20
78.0498446916692
30
0
0
VERTEX
8
0
10
160.820512820513
20
78.0232725614689
30
0
0
VERTEX
8
0
10
161.739487179487
20
77.9564800783495
30
0
0
VERTEX
8
0
10
162.658461538461
20
77.8919477621487
30
0
0
VERTEX
8
0
10
163.577435897436
20
77.827415445948
30
0
0
VERTEX
8
0
10
164.49641025641
20
77.8169341873183
30
0
0
VERTEX
8
0
10
165.415384615384
20
77.7979540943181
30
0
0
VERTEX
8
0
10
166.334358974359
20
77.7789740013179
30
0
0
VERTEX
8
0
10
167.253333333333
20
77.7201021138915
30
0
0
VERTEX
8
0
10
168.172307692308
20
77.670753872091
30
0
0
VERTEX
8
0
10
169.091282051282
20
77.6214056302904
30
0
0
VERTEX
8
0
10
170.010256410256
20
77.5939321637256
30
0
0
VERTEX
8
0
10
170.929230769231
20
77.5597679963252
30
0
0
VERTEX
8
0
10
171.848205128205
20
77.5449978813559
30
0
0
SEQEND
8
0
0
POLYLINE
8
0
62
1
70
0
10
0
20
0
30
0
0
VERTEX
8
0
10
1.83794871794872
20
16.8257894983909
30
0
0
VERTEX
8
0
10
2.75692307692308
20
20.2842124257336
30
0
0
VERTEX
8
0
10
3.67589743589744
20
23.020704619501
30
0
0
VERTEX
8
0
10
4.59487179487179
20
25.8613008578198
30
0
0
VERTEX
8
0
10
5.51384615384615
20
28.2770422042275
30
0
0
VERTEX
8
0
10
6.43282051282051
20
30.7904290771269
30
0
0
VERTEX
8
0
10
7.35179487179487
20
32.5294923592372
30
0
0
VERTEX
8
0
10
8.27076923076923
20
34.0222514966371
30
0
0
VERTEX
8
0
10
9.18974358974359
20
35.5562092093894
30
0
0
VERTEX
8
0
10
10.1087179487179
20
36.9370842283573
30
0
0
VERTEX
8
0
10
11.0276923076923
20
38.1964867753088
30
0
0
VERTEX
8
0
10
11.9466666666667
20
39.3038433443858
30
0
0
VERTEX
8
0
10
12.865641025641
20
40.4733871631382
30
0
0
VERTEX
8
0
10
13.7846153846154
20
41.3287932490865
30
0
0
VERTEX
8
0
10
14.7035897435897
20
42.2919439162905
30
0
0
VERTEX
8
0
10
15.6225641025641
20
43.0697339991108
30
0
0
VERTEX
8
0
10
16.5415384615385
20
43.8313095188321
30
0
0
VERTEX
8
0
10
17.4605128205128
20
44.6044089022319
30
0
0
VERTEX
8
0
10
18.3794871794872
20
45.2021877879024
30
0
0
VERTEX
8
0
10
19.2984615384615
20
45.8407836849971
30
0
0
VERTEX
8
0
10
20.2174358974359
20
46.4876234687716
30
0
0
VERTEX
8
0
10
21.1364102564103
20
46.9892265299506
30
0
0
VERTEX
8
0
10
22.0553846153846
20
47.5305935160964
30
0
0
VERTEX
8
0
10
22.974358974359
20
48.0817290426355
30
0
0
VERTEX
8
0
10
23.8933333333333
20
48.4156546194587
30
0
0
VERTEX
8
0
10
24.8123076923077
20
48.7891533603688
30
0
0
VERTEX
8
0
10
25.7312820512821
20
49.1729128112901
30
0
0
VERTEX
8
0
10
26.6502564102564
20
49.4433010820226
30
0
0
VERTEX
8
0
10
27.5692307692308
20
49.7445120142382
30
0
0
VERTEX
8
0
10
28.4882051282051
20
50.0533394559683
30
0
0
VERTEX
8
0
10
29.4071794871795
20
50.1603591290795
30
0
0
VERTEX
8
0
10
30.3261538461539
20
50.3128299961612
30
0
0
VERTEX
8
0
10
31.2451282051282
20
50.4443285883271
30
0
0
VERTEX
8
0
10
32.1641025641026
20
50.5600345921869
30
0
0
VERTEX
8
0
10
33.0830769230769
20
50.6779693381204
30
0
0
VERTEX
8
0
10
34.0020512820513
20
50.7460321242366
30
0
0
VERTEX
8
0
10
34.9210256410257
20
50.7360482524138
30
0
0
VERTEX
8
0
10
35.84
20
50.7237421947711
30
0
0
VERTEX
8
0
10
36.7589743589744
20
50.681757224143
30
0
0
VERTEX
8
0
10
37.6779487179487
20
50.6250222402478
30
0
0
VERTEX
8
0
10
38.5969230769231
20
50.5708173733058
30
0
0
VERTEX
8
0
10
39.5158974358974
20
50.5012688584958
30
0
0
VERTEX
8
0
10
40.4348717948718
20
50.397594907632
30
0
0
VERTEX
8
0
10
41.3538461538461
20
50.3019008837019
30
0
0
VERTEX
8
0
10
42.2728205128205
20
50.1644108997106
30
0
0
VERTEX
8
0
10
43.1917948717949
20
50.0552283684992
30
0
0
VERTEX
8
0
10
44.1107692307692
20
49.9417283136041
30
0
0
VERTEX
8
0
10
45.0297435897436
20
49.8197987300344
30
0
0
VERTEX
8
0
10
45.9487179487179
20
49.7001847134649
30
0
0
VERTEX
8
0
10
46.8676923076923
20
49.5837429826225
30
0
0
VERTEX
8
0
10
47.7866666666666
20
49.4567319728034
30
0
0
VERTEX
8
0
10
48.705641025641
20
49.3356036396289
30
0
0
VERTEX
8
0
10
49.6246153846154
20
49.2164012700984
30
0
0
VERTEX
8
0
10
50.5435897435897
20
49.1025781072813
30
0
0
VERTEX
8
0
10
51.4625641025641
20
49.0173706493393
30
0
0
VERTEX
8
0
10
52.3815384615384
20
48.926366902949
30
0
0
VERTEX
8
0
10
53.3005128205128
20
48.8394871522465
30
0
0
VERTEX
8
0
10
54.2194871794871
20
48.7778041071558
30
0
0
VERTEX
8
0
10
55.1384615384615
20
48.7082126049141
30
0
0
VERTEX
8
0
10
56.0574358974358
20
48.6402622360731
30
0
0
VERTEX
8
0
10
56.9764102564102
20
48.5734710460924
30
0
0
VERTEX
8
0
10
57.8953846153846
20
48.5099951625239
30
0
0
VERTEX
8
0
10
58.8143589743589
20
48.4495439295028
30
0
0
VERTEX
8
0
10
59.7333333333333
20
48.4174557007844
30
0
0
VERTEX
8
0
10
60.6523076923076
20
48.3884316113172
30
0
0
VERTEX
8
0
10
61.571282051282
20
48.362745970453
30
0
0
VERTEX
8
0
10
62.4902564102563
20
48.3386727675334
30
0
0
VERTEX
8
0
10
63.4092307692307
20
48.3302428162527
30
0
0
VERTEX
8
0
10
64.328205128205
20
48.3225965236932
30
0
0
VERTEX
8
0
10
65.2471794871794
20
48.3169856238383
30
0
0
VERTEX
8
0
10
66.1661538461537
20
48.3240017781203
30
0
0
VERTEX
8
0
10
67.0851282051281
20
48.3377440938314
30
0
0
VERTEX
8
0
10
68.0041025641025
20
48.356881255424
30
0
0
VERTEX
8
0
10
68.9230769230768
20
48.3763985816
30
0
0
VERTEX
8
0
10
69.8420512820512
20
48.3934713351085
30
0
0
VERTEX
8
0
10
70.7610256410255
20
48.4066108940759
30
0
0
VERTEX
8
0
10
71.6799999999999
20
48.4247614128709
30
0
0
VERTEX
8
0
10
72.5989743589742
20
48.4624507744376
30
0
0
VERTEX
8
0
10
73.5179487179486
20
48.5094333509025
30
0
0
VERTEX
8
0
10
74.436923076923
20
48.5573591270284
30
0
0
VERTEX
8
0
10
75.3558974358973
20
48.5543566542457
30
0
0
VERTEX
8
0
10
76.2748717948717
20
48.5561563158628
30
0
0
VERTEX
8
0
10
77.193846153846
20
48.5633706777549
30
0
0
VERTEX
8
0
10
78.1128205128204
20
48.4976207202917
30
0
0
VERTEX
8
0
10
79.0317948717947
20
48.4148051853757
30
0
0
VERTEX
8
0
10
79.9507692307691
20
48.3375963259722
30
0
0
VERTEX
8
0
10
80.8697435897435
20
48.2608777846434
30
0
0
VERTEX
8
0
10
81.7887179487178
20
48.1780978961777
30
0
0
VERTEX
8
0
10
82.7076923076922
20
48.0957894737777
30
0
0
VERTEX
8
0
10
83.6266666666665
20
48.0312635200861
30
0
0
VERTEX
8
0
10
84.5456410256409
20
47.9730632993152
30
0
0
VERTEX
8
0
10
85.4646153846152
20
47.9137031388088
30
0
0
VERTEX
8
0
10
86.3835897435896
20
47.8435982824729
30
0
0
VERTEX
8
0
10
87.3025641025639
20
47.7709883805464
30
0
0
VERTEX
8
0
10
88.2215384615383
20
47.7011912947278
30
0
0
VERTEX
8
0
10
89.1405128205126
20
47.5935087723185
30
0
0
VERTEX
8
0
10
90.059487179487
20
47.5085494660284
30
0
0
VERTEX
8
0
10
90.9784615384614
20
47.4200236633543
30
0
0
VERTEX
8
0
10
91.8974358974357
20
47.2291774376623
30
0
0
VERTEX
8
0
10
92.8164102564101
20
47.0490653071296
30
0
0
VERTEX
8
0
10
93.7353846153844
20
46.8700359820303
30
0
0
VERTEX
8
0
10
94.6543589743588
20
46.6707714907127
30
0
0
VERTEX
8
0
10
95.5733333333331
20
46.482837452922
30
0
0
VERTEX
8
0
10
96.4923076923075
20
46.28874046377
30
0
0
VERTEX
8
0
10
97.4112820512818
20
46.0964024448515
30
0
0
VERTEX
8
0
10
98.3302564102562
20
45.9062375513851
30
0
0
VERTEX
8
0
10
99.2492307692306
20
45.7161359920053
30
0
0
VERTEX
8
0
10
100.168205128205
20
45.5371227664822
30
0
0
VERTEX
8
0
10
101.087179487179
20
45.3467917667316
30
0
0
VERTEX
8
0
10
102.006153846154
20
45.1537224629499
30
0
0
VERTEX
8
0
10
102.925128205128
20
44.9814264480852
30
0
0
VERTEX
8
0
10
103.844102564102
20
44.811657675269
30
0
0
VERTEX
8
0
10
104.763076923077
20
44.642790964186
30
0
0
VERTEX
8
0
10
105.682051282051
20
44.4829076060286
30
0
0
VERTEX
8
0
10
106.601025641025
20
44.3206986831216
30
0
0
VERTEX
8
0
10
107.52
20
44.1647392874076
30
0
0
VERTEX
8
0
10
108.438974358974
20
44.0227893147503
30
0
0
VERTEX
8
0
10
109.357948717948
20
43.8781802529322
30
0
0
VERTEX
8
0
10
110.276923076923
20
43.7074710142212
30
0
0
VERTEX
8
0
10
111.195897435897
20
43.525142399262
30
0
0
VERTEX
8
0
10
112.114871794872
20
43.3468024674738
30
0
0
VERTEX
8
0
10
113.033846153846
20
43.215032368506
30
0
0
VERTEX
8
0
10
113.95282051282
20
43.0672368139108
30
0
0
VERTEX
8
0
10
114.871794871795
20
42.9222790992975
30
0
0
VERTEX
8
0
10
115.790769230769
20
42.7563935290142
30
0
0
VERTEX
8
0
10
116.709743589743
20
42.6082230745734
30
0
0
VERTEX
8
0
10
117.628717948718
20
42.4541182461896
30
0
0
VERTEX
8
0
10
118.547692307692
20
42.2850826234673
30
0
0
VERTEX
8
0
10
119.466666666666
20
42.1111039523214
30
0
0
VERTEX
8
0
10
120.385641025641
20
41.9371348314955
30
0
0
VERTEX
8
0
10
121.304615384615
20
41.8083652101504
30
0
0
VERTEX
8
0
10
122.223589743589
20
41.6789418072531
30
0
0
VERTEX
8
0
10
123.142564102564
20
41.5495535030361
30
0
0
VERTEX
8
0
10
124.061538461538
20
41.3994297564857
30
0
0
VERTEX
8
0
10
124.980512820513
20
41.247867165875
30
0
0
VERTEX
8
0
10
125.899487179487
20
41.0963210047848
30
0
0
VERTEX
8
0
10
126.818461538461
20
40.9865379034136
30
0
0
VERTEX
8
0
10
127.737435897436
20
40.8696638313965
30
0
0
VERTEX
8
0
10
128.65641025641
20
40.7528143748145
30
0
0
VERTEX
8
0
10
129.575384615384
20
40.589833767982
30
0
0
VERTEX
8
0
10
130.494358974359
20
40.436758936005
30
0
0
VERTEX
8
0
10
131.413333333333
20
40.2722224472883
30
0
0
VERTEX
8
0
10
132.332307692307
20
40.1117144638375
30
0
0
VERTEX
8
0
10
133.251282051282
20
39.9493674106067
30
0
0
VERTEX
8
0
10
134.170256410256
20
39.775239027858
30
0
0
VERTEX
8
0
10
135.08923076923
20
39.6127745616712
30
0
0
VERTEX
8
0
10
136.008205128205
20
39.4481376338651
30
0
0
VERTEX
8
0
10
136.927179487179
20
39.2896709328108
30
0
0
VERTEX
8
0
10
137.846153846153
20
39.1089603381274
30
0
0
VERTEX
8
0
10
138.765128205128
20
38.9367191689673
30
0
0
VERTEX
8
0
10
139.684102564102
20
38.7707421045689
30
0
0
VERTEX
8
0
10
140.603076923077
20
38.6133470841969
30
0
0
VERTEX
8
0
10
141.522051282051
20
38.4560315272608
30
0
0
VERTEX
8
0
10
142.441025641025
20
38.2998330903548
30
0
0
VERTEX
8
0
10
143.36
20
38.1377094906003
30
0
0
VERTEX
8
0
10
144.278974358974
20
37.9755877911112
30
0
0
VERTEX
8
0
10
145.197948717948
20
37.823117903619
30
0
0
VERTEX
8
0
10
146.116923076923
20
37.6678533745478
30
0
0
VERTEX
8
0
10
147.035897435897
20
37.5126138259902
30
0
0
VERTEX
8
0
10
147.954871794871
20
37.3583434477114
30
0
0
VERTEX
8
0
10
148.873846153846
20
37.2041932161161
30
0
0
VERTEX
8
0
10
149.79282051282
20
37.0501218238973
30
0
0
VERTEX
8
0
10
150.711794871795
20
36.8958589797541
30
0
0
VERTEX
8
0
10
151.630769230769
20
36.743466123149
30
0
0
VERTEX
8
0
10
152.549743589743
20
36.5911093857508
30
0
0
VERTEX
8
0
10
153.468717948718
20
36.4489095553091
30
0
0
VERTEX
8
0
10
154.387692307692
20
36.3027424978326
30
0
0
VERTEX
8
0
10
155.306666666666
20
36.1592521418994
30
0
0
VERTEX
8
0
10
156.225641025641
20
35.9962157762781
30
0
0
VERTEX
8
0
10
157.144615384615
20
35.8378855138126
30
0
0
VERTEX
8
0
10
158.063589743589
20
35.6827503832806
30
0
0
VERTEX
8
0
10
158.982564102564
20
35.5554992035374
30
0
0
VERTEX
8
0
10
159.901538461538
20
35.4277480347855
30
0
0
VERTEX
8
0
10
160.820512820513
20
35.3046535118018
30
0
0
VERTEX
8
0
10
161.739487179487
20
35.1614197721844
30
0
0
VERTEX
8
0
10
162.658461538461
20
35.0242253581152
30
0
0
VERTEX
8
0
10
163.577435897436
20
34.8838093946682
30
0
0
VERTEX
8
0
10
164.49641025641
20
34.7438487115505
30
0
0
VERTEX
8
0
10
165.415384615384
20
34.6039043135464
30
0
0
VERTEX
8
0
10
166.334358974359
20
34.4712959164796
30
0
0
VERTEX
8
0
10
167.253333333333
20
34.3613946937497
30
0
0
VERTEX
8
0
10
168.172307692308
20
34.2466664658142
30
0
0
VERTEX
8
0
10
169.091282051282
20
34.1479900718935
30
0
0
VERTEX
8
0
10
170.010256410256
20
34.0409682216194
30
0
0
VERTEX
8
0
10
170.929230769231
20
33.9365776144257
30
0
0
VERTEX
8
0
10
171.848205128205
20
33.7725508484112
30
0
0
SEQEND
8
0
0
POLYLINE
8
0
62
2
70
0
10
0
20
0
30
0
0
VERTEX
8
0
10
1.83794871794872
20
16.5391105219253
30
0
0
VERTEX
8
0
10
2.75692307692308
20
20.2483767086783
30
0
0
VERTEX
8
0
10
3.67589743589744
20
23.0161383498283
30
0
0
VERTEX
8
0
10
4.59487179487179
20
25.8690868254539
30
0
0
VERTEX
8
0
10
5.51384615384615
20
28.239720037654
30
0
0
VERTEX
8
0
10
6.43282051282051
20
30.7911035242979
30
0
0
VERTEX
8
0
10
7.35179487179487
20
32.5583186067553
30
0
0
VERTEX
8
0
10
8.27076923076923
20
34.0215500091449
30
0
0
VERTEX
8
0
10
9.18974358974359
20
35.5544260215868
30
0
0
VERTEX
8
0
10
10.1087179487179
20
36.9669901344908
30
0
0
VERTEX
8
0
10
11.0276923076923
20
38.1958244855009
30
0
0
VERTEX
8
0
10
11.9466666666667
20
39.3043216769819
30
0
0
VERTEX
8
0
10
12.865641025641
20
40.498502496841
30
0
0
VERTEX
8
0
10
13.7846153846154
20
41.327560428777
30
0
0
VERTEX
8
0
10
14.7035897435897
20
42.2929573216644
30
0
0
VERTEX
8
0
10
15.6225641025641
20
43.0717301510217
30
0
0
VERTEX
8
0
10
16.5415384615385
20
43.82973072195
30
0
0
VERTEX
8
0
10
17.4605128205128
20
44.6066011491771
30
0
0
VERTEX
8
0
10
18.3794871794872
20
45.2027548961478
30
0
0
VERTEX
8
0
10
19.2984615384615
20
45.8392937133274
30
0
0
VERTEX
8
0
10
20.2174358974359
20
46.490414510231
30
0
0
VERTEX
8
0
10
21.1364102564103
20
46.9894296860821
30
0
0
VERTEX
8
0
10
22.0553846153846
20
47.5294057609836
30
0
0
VERTEX
8
0
10
22.974358974359
20
48.0848074400821
30
0
0
VERTEX
8
0
10
23.8933333333333
20
48.4157957882591
30
0
0
VERTEX
8
0
10
24.8123076923077
20
48.7883433783201
30
0
0
VERTEX
8
0
10
25.7312820512821
20
49.1764720496671
30
0
0
VERTEX
8
0
10
26.6502564102564
20
49.443396212151
30
0
0
VERTEX
8
0
10
27.5692307692308
20
49.7440799036669
30
0
0
VERTEX
8
0
10
28.4882051282051
20
50.0569097970835
30
0
0
VERTEX
8
0
10
29.4071794871795
20
50.1605708949553
30
0
0
VERTEX
8
0
10
30.3261538461539
20
50.3127264664749
30
0
0
VERTEX
8
0
10
31.2451282051282
20
50.4479002136401
30
0
0
VERTEX
8
0
10
32.1641025641026
20
50.5583478368911
30
0
0
VERTEX
8
0
10
33.0830769230769
20
50.6782099641721
30
0
0
VERTEX
8
0
10
34.0020512820513
20
50.7499514388252
30
0
0
VERTEX
8
0
10
34.9210256410257
20
50.7346982417209
30
0
0
VERTEX
8
0
10
35.84
20
50.7242301645751
30
0
0
VERTEX
8
0
10
36.7589743589744
20
50.6819642755135
30
0
0
VERTEX
8
0
10
37.6779487179487
20
50.6242443660429
30
0
0
VERTEX
8
0
10
38.5969230769231
20
50.5716269220376
30
0
0
VERTEX
8
0
10
39.5158974358974
20
50.5014134682019
30
0
0
VERTEX
8
0
10
40.4348717948718
20
50.3969000672019
30
0
0
VERTEX
8
0
10
41.3538461538461
20
50.3026841485846
30
0
0
VERTEX
8
0
10
42.2728205128205
20
50.1646255062203
30
0
0
VERTEX
8
0
10
43.1917948717949
20
50.0548321130917
30
0
0
VERTEX
8
0
10
44.1107692307692
20
49.9427685992502
30
0
0
VERTEX
8
0
10
45.0297435897436
20
49.8198015361443
30
0
0
VERTEX
8
0
10
45.9487179487179
20
49.6998187003564
30
0
0
VERTEX
8
0
10
46.8676923076923
20
49.5849136820579
30
0
0
VERTEX
8
0
10
47.7866666666666
20
49.4568519579084
30
0
0
VERTEX
8
0
10
48.705641025641
20
49.3354267393424
30
0
0
VERTEX
8
0
10
49.6246153846154
20
49.2176936203753
30
0
0
VERTEX
8
0
10
50.5435897435897
20
49.1026433803807
30
0
0
VERTEX
8
0
10
51.4625641025641
20
49.0173301524509
30
0
0
VERTEX
8
0
10
52.3815384615384
20
48.9278051048305
30
0
0
VERTEX
8
0
10
53.3005128205128
20
48.8385880804006
30
0
0
VERTEX
8
0
10
54.2194871794871
20
48.7779722083501
30
0
0
VERTEX
8
0
10
55.1384615384615
20
48.7097098153065
30
0
0
VERTEX
8
0
10
56.0574358974358
20
48.6396565852965
30
0
0
VERTEX
8
0
10
56.9764102564102
20
48.573766759277
30
0
0
VERTEX
8
0
10
57.8953846153846
20
48.5101418847077
30
0
0
VERTEX
8
0
10
58.8143589743589
20
48.4491192392936
30
0
0
VERTEX
8
0
10
59.7333333333333
20
48.417830626972
30
0
0
VERTEX
8
0
10
60.6523076923076
20
48.3885546172639
30
0
0
VERTEX
8
0
10
61.571282051282
20
48.3624104816616
30
0
0
VERTEX
8
0
10
62.4902564102563
20
48.3391379297508
30
0
0
VERTEX
8
0
10
63.4092307692307
20
48.3302976425005
30
0
0
VERTEX
8
0
10
64.328205128205
20
48.3222932452462
30
0
0
VERTEX
8
0
10
65.2471794871794
20
48.3175785854242
30
0
0
VERTEX
8
0
10
66.1661538461537
20
48.3240781732812
30
0
0
VERTEX
8
0
10
67.0851282051281
20
48.3376719333492
30
0
0
VERTEX
8
0
10
68.0041025641025
20
48.3574379951973
30
0
0
VERTEX
8
0
10
68.9230769230768
20
48.3766003870566
30
0
0
VERTEX
8
0
10
69.8420512820512
20
48.3934027402399
30
0
0
VERTEX
8
0
10
70.7610256410255
20
48.4072846752634
30
0
0
VERTEX
8
0
10
71.6799999999999
20
48.4247998384637
30
0
0
VERTEX
8
0
10
72.5989743589742
20
48.4625712704223
30
0
0
VERTEX
8
0
10
73.5179487179486
20
48.5100456324952
30
0
0
VERTEX
8
0
10
74.436923076923
20
48.557217797671
30
0
0
VERTEX
8
0
10
75.3558974358973
20
48.5544584640928
30
0
0
VERTEX
8
0
10
76.2748717948717
20
48.5565443238546
30
0
0
VERTEX
8
0
10
77.193846153846
20
48.5630251298192
30
0
0
VERTEX
8
0
10
78.1128205128204
20
48.4977531571023
30
0
0
VERTEX
8
0
10
79.0317948717947
20
48.4146900854914
30
0
0
VERTEX
8
0
10
79.9507692307691
20
48.3370331346674
30
0
0
VERTEX
8
0
10
80.8697435897435
20
48.2610925829457
30
0
0
VERTEX
8
0
10
81.7887179487178
20
48.1783287656329
30
0
0
VERTEX
8
0
10
82.7076923076922
20
48.0958857512089
30
0
0
VERTEX
8
0
10
83.6266666666665
20
48.0314630819522
30
0
0
VERTEX
8
0
10
84.5456410256409
20
47.973366122558
30
0
0
VERTEX
8
0
10
85.4646153846152
20
47.9136127672103
30
0
0
VERTEX
8
0
10
86.3835897435896
20
47.8439471468393
30
0
0
VERTEX
8
0
10
87.3025641025639
20
47.7708156129373
30
0
0
VERTEX
8
0
10
88.2215384615383
20
47.7009646007241
30
0
0
VERTEX
8
0
10
89.1405128205126
20
47.5939244339421
30
0
0
VERTEX
8
0
10
90.059487179487
20
47.5085458329502
30
0
0
VERTEX
8
0
10
90.9784615384614
20
47.4202039035495
30
0
0
VERTEX
8
0
10
91.8974358974357
20
47.2293588201375
30
0
0
VERTEX
8
0
10
92.8164102564101
20
47.0493394234415
30
0
0
VERTEX
8
0
10
93.7353846153844
20
46.8698427117469
30
0
0
VERTEX
8
0
10
94.6543589743588
20
46.6712276217005
30
0
0
VERTEX
8
0
10
95.5733333333331
20
46.4821508165064
30
0
0
VERTEX
8
0
10
96.4923076923075
20
46.2888223462212
30
0
0
VERTEX
8
0
10
97.4112820512818
20
46.0970545623442
30
0
0
VERTEX
8
0
10
98.3302564102562
20
45.906302938655
30
0
0
VERTEX
8
0
10
99.2492307692306
20
45.7159175953121
30
0
0
VERTEX
8
0
10
100.168205128205
20
45.5376533339415
30
0
0
VERTEX
8
0
10
101.087179487179
20
45.3514110882367
30
0
0
VERTEX
8
0
10
102.006153846154
20
45.1634106942903
30
0
0
VERTEX
8
0
10
102.925128205128
20
44.9905652828685
30
0
0
VERTEX
8
0
10
103.844102564102
20
44.82066734209
30
0
0
VERTEX
8
0
10
104.763076923077
20
44.6520155233984
30
0
0
VERTEX
8
0
10
105.682051282051
20
44.4924034586145
30
0
0
VERTEX
8
0
10
106.601025641025
20
44.3299154203359
30
0
0
VERTEX
8
0
10
107.52
20
44.1739740722605
30
0
0
VERTEX
8
0
10
108.438974358974
20
44.031775704884
30
0
0
VERTEX
8
0
10
109.357948717948
20
43.8868037290997
30
0
0
VERTEX
8
0
10
110.276923076923
20
43.7168990594274
30
0
0
VERTEX
8
0
10
111.195897435897
20
43.5338240319591
30
0
0
VERTEX
8
0
10
112.114871794872
20
43.3559951323652
30
0
0
VERTEX
8
0
10
113.033846153846
20
43.2235235307604
30
0
0
VERTEX
8
0
10
113.95282051282
20
43.0818065217399
30
0
0
VERTEX
8
0
10
114.871794871795
20
42.939170023231
30
0
0
VERTEX
8
0
10
115.790769230769
20
42.7787202565484
30
0
0
VERTEX
8
0
10
116.709743589743
20
42.6274505301033
30
0
0
VERTEX
8
0
10
117.628717948718
20
42.4743405726197
30
0
0
VERTEX
8
0
10
118.547692307692
20
42.3059779484744
30
0
0
VERTEX
8
0
10
119.466666666666
20
42.1377094953544
30
0
0
VERTEX
8
0
10
120.385641025641
20
41.9704225323867
30
0
0
VERTEX
8
0
10
121.304615384615
20
41.8414206907327
30
0
0
VERTEX
8
0
10
122.223589743589
20
41.7115267512341
30
0
0
VERTEX
8
0
10
123.142564102564
20
41.5814276238735
30
0
0
VERTEX
8
0
10
124.061538461538
20
41.4343277537446
30
0
0
VERTEX
8
0
10
124.980512820513
20
41.2869217157646
30
0
0
VERTEX
8
0
10
125.899487179487
20
41.1411336459998
30
0
0
VERTEX
8
0
10
126.818461538461
20
41.0301011272804
30
0
0
VERTEX
8
0
10
127.737435897436
20
40.9135141521343
30
0
0
VERTEX
8
0
10
128.65641025641
20
40.7958812624746
30
0
0
VERTEX
8
0
10
129.575384615384
20
40.635456763775
30
0
0
VERTEX
8
0
10
130.494358974359
20
40.4829671094194
30
0
0
VERTEX
8
0
10
131.413333333333
20
40.3200493276908
30
0
0
VERTEX
8
0
10
132.332307692307
20
40.1583272586168
30
0
0
VERTEX
8
0
10
133.251282051282
20
39.9956777482375
30
0
0
VERTEX
8
0
10
134.170256410256
20
39.8233121483517
30
0
0
VERTEX
8
0
10
135.08923076923
20
39.659138895019
30
0
0
VERTEX
8
0
10
136.008205128205
20
39.4956557912274
30
0
0
VERTEX
8
0
10
136.927179487179
20
39.335514755807
30
0
0
VERTEX
8
0
10
137.846153846153
20
39.1732920278893
30
0
0
VERTEX
8
0
10
138.765128205128
20
39.0100403528242
30
0
0
VERTEX
8
0
10
139.684102564102
20
38.8451426019707
30
0
0
VERTEX
8
0
10
140.603076923077
20
38.6859408385842
30
0
0
VERTEX
8
0
10
141.522051282051
20
38.5281861044457
30
0
0
VERTEX
8
0
10
142.441025641025
20
38.3733992183251
30
0
0
VERTEX
8
0
10
143.36
20
38.2139181369907
30
0
0
VERTEX
8
0
10
144.278974358974
20
38.0544651127338
30
0
0
VERTEX
8
0
10
145.197948717948
20
37.9013688347459
30
0
0
VERTEX
8
0
10
146.116923076923
20
37.7452019489539
30
0
0
VERTEX
8
0
10
147.035897435897
20
37.5915552199241
30
0
0
VERTEX
8
0
10
147.954871794871
20
37.4360167116613
30
0
0
VERTEX
8
0
10
148.873846153846
20
37.2823717799981
30
0
0
VERTEX
8
0
10
149.79282051282
20
37.1263806094781
30
0
0
VERTEX
8
0
10
150.711794871795
20
36.9885921855136
30
0
0
VERTEX
8
0
10
151.630769230769
20
36.8487597978518
30
0
0
VERTEX
8
0
10
152.549743589743
20
36.7127649210618
30
0
0
VERTEX
8
0
10
153.468717948718
20
36.5665349988145
30
0
0
VERTEX
8
0
10
154.387692307692
20
36.4223626824698
30
0
0
VERTEX
8
0
10
155.306666666666
20
36.2773062216218
30
0
0
VERTEX
8
0
10
156.225641025641
20
36.1223467654907
30
0
0
VERTEX
8
0
10
157.144615384615
20
35.9654892755466
30
0
0
VERTEX
8
0
10
158.063589743589
20
35.8120213825594
30
0
0
VERTEX
8
0
10
158.982564102564
20
35.6847031047896
30
0
0
VERTEX
8
0
10
159.901538461538
20
35.5587402126587
30
0
0
VERTEX
8
0
10
160.820512820513
20
35.4358969318242
30
0
0
VERTEX
8
0
10
161.739487179487
20
35.2915708863331
30
0
0
VERTEX
8
0
10
162.658461538461
20
35.1535416956684
30
0
0
VERTEX
8
0
10
163.577435897436
20
35.014578292053
30
0
0
VERTEX
8
0
10
164.49641025641
20
34.8771278584576
30
0
0
VERTEX
8
0
10
165.415384615384
20
34.7396790607033
30
0
0
VERTEX
8
0
10
166.334358974359
20
34.6096093801901
30
0
0
VERTEX
8
0
10
167.253333333333
20
34.5021946535808
30
0
0
VERTEX
8
0
10
168.172307692308
20
34.3923458322104
30
0
0
VERTEX
8
0
10
169.091282051282
20
34.2915643400246
30
0
0
VERTEX
8
0
10
170.010256410256
20
34.1847821332625
30
0
0
VERTEX
8
0
10
170.929230769231
20
34.0817215256448
30
0
0
VERTEX
8
0
10
171.848205128205
20
33.9156874754998
30
0
0
SEQEND
8
0
0
POLYLINE
8
0
62
3
70
0
10
0
20
0
30
0
0
VERTEX
8
0
10
1.83794871794872
20
16.1292686537026
30
0
0
VERTEX
8
0
10
2.75692307692308
20
24.3303100550639
30
0
0
VERTEX
8
0
10
3.67589743589744
20
24.4690860924833
30
0
0
VERTEX
8
0
10
4.59487179487179
20
30.9888966428637
30
0
0
VERTEX
8
0
10
5.51384615384615
20
31.0558740018674
30
0
0
VERTEX
8
0
10
6.43282051282051
20
34.100407529343
30
0
0
VERTEX
8
0
10
7.35179487179487
20
36.4524168990723
30
0
0
VERTEX
8
0
10
8.27076923076923
20
38.067440001488
30
0
0
VERTEX
8
0
10
9.18974358974359
20
40.8747805097564
30
0
0
VERTEX
8
0
10
10.1087179487179
20
42.4374065804212
30
0
0
VERTEX
8
0
10
11.0276923076923
20
44.7779535903949
30
0
0
VERTEX
8
0
10
11.9466666666667
20
45.8014720965627
30
0
0
VERTEX
8
0
10
12.865641025641
20
47.5717662539651
30
0
0
VERTEX
8
0
10
13.7846153846154
20
49.2085382690923
30
0
0
VERTEX
8
0
10
14.7035897435897
20
50.5293019868057
30
0
0
VERTEX
8
0
10
15.6225641025641
20
52.0543059990941
30
0
0
VERTEX
8
0
10
16.5415384615385
20
53.2035613513047
30
0
0
VERTEX
8
0
10
17.4605128205128
20
54.7625271479613
30
0
0
VERTEX
8
0
10
18.3794871794872
20
55.6570149429781
30
0
0
VERTEX
8
0
10
19.2984615384615
20
56.7778652349689
30
0
0
VERTEX
8
0
10
20.2174358974359
20
57.8793690454511
30
0
0
VERTEX
8
0
10
21.1364102564103
20
58.9116723661196
30
0
0
VERTEX
8
0
10
22.0553846153846
20
59.8712275379495
30
0
0
VERTEX
8
0
10
22.974358974359
20
60.720489677842
30
0
0
VERTEX
8
0
10
23.8933333333333
20
61.6677451684464
30
0
0
VERTEX
8
0
10
24.8123076923077
20
62.4183243742585
30
0
0
VERTEX
8
0
10
25.7312820512821
20
63.1674996288902
30
0
0
VERTEX
8
0
10
26.6502564102564
20
63.9018491550124
30
0
0
VERTEX
8
0
10
27.5692307692308
20
64.5999359964451
30
0
0
VERTEX
8
0
10
28.4882051282051
20
65.3020332904599
30
0
0
VERTEX
8
0
10
29.4071794871795
20
65.8628162294266
30
0
0
VERTEX
8
0
10
30.3261538461539
20
66.4777652957852
30
0
0
VERTEX
8
0
10
31.2451282051282
20
66.9949272650726
30
0
0
VERTEX
8
0
10
32.1641025641026
20
67.5322025510165
30
0
0
VERTEX
8
0
10
33.0830769230769
20
68.0175726258216
30
0
0
VERTEX
8
0
10
34.0020512820513
20
68.4936742161146
30
0
0
VERTEX
8
0
10
34.9210256410257
20
68.930866649871
30
0
0
VERTEX
8
0
10
35.84
20
69.3555012009148
30
0
0
VERTEX
8
0
10
36.7589743589744
20
69.7419233894577
30
0
0
VERTEX
8
0
10
37.6779487179487
20
70.0805512177684
30
0
0
VERTEX
8
0
10
38.5969230769231
20
70.4110519950884
30
0
0
VERTEX
8
0
10
39.5158974358974
20
70.7189775944082
30
0
0
VERTEX
8
0
10
40.4348717948718
20
71.008559125368
30
0
0
VERTEX
8
0
10
41.3538461538461
20
71.3090954652814
30
0
0
VERTEX
8
0
10
42.2728205128205
20
71.5876073734233
30
0
0
VERTEX
8
0
10
43.1917948717949
20
71.8757195347456
30
0
0
VERTEX
8
0
10
44.1107692307692
20
72.130794062004
30
0
0
VERTEX
8
0
10
45.0297435897436
20
72.4001566715518
30
0
0
VERTEX
8
0
10
45.9487179487179
20
72.658631277987
30
0
0
VERTEX
8
0
10
46.8676923076923
20
72.9241995932466
30
0
0
VERTEX
8
0
10
47.7866666666666
20
73.1616465836011
30
0
0
VERTEX
8
0
10
48.705641025641
20
73.403706503956
30
0
0
VERTEX
8
0
10
49.6246153846154
20
73.6403160498924
30
0
0
VERTEX
8
0
10
50.5435897435897
20
73.8714886081669
30
0
0
VERTEX
8
0
10
51.4625641025641
20
74.0921688136029
30
0
0
VERTEX
8
0
10
52.3815384615384
20
74.3182470276415
30
0
0
VERTEX
8
0
10
53.3005128205128
20
74.532157780399
30
0
0
VERTEX
8
0
10
54.2194871794871
20
74.7501620987392
30
0
0
VERTEX
8
0
10
55.1384615384615
20
74.9591327701518
30
0
0
VERTEX
8
0
10
56.0574358974358
20
75.1650142596425
30
0
0
VERTEX
8
0
10
56.9764102564102
20
75.3657705533209
30
0
0
VERTEX
8
0
10
57.8953846153846
20
75.5676741707366
30
0
0
VERTEX
8
0
10
58.8143589743589
20
75.7606490712848
30
0
0
VERTEX
8
0
10
59.7333333333333
20
75.9607871067298
30
0
0
VERTEX
8
0
10
60.6523076923076
20
76.147246697261
30
0
0
VERTEX
8
0
10
61.571282051282
20
76.3373630231881
30
0
0
VERTEX
8
0
10
62.4902564102563
20
76.5234202023993
30
0
0
VERTEX
8
0
10
63.4092307692307
20
76.7110586686795
30
0
0
VERTEX
8
0
10
64.328205128205
20
76.8908346276984
30
0
0
VERTEX
8
0
10
65.2471794871794
20
77.0750527082143
30
0
0
VERTEX
8
0
10
66.1661538461537
20
77.2553695458463
30
0
0
VERTEX
8
0
10
67.0851282051281
20
77.4360109450322
30
0
0
VERTEX
8
0
10
68.0041025641025
20
77.6123446761126
30
0
0
VERTEX
8
0
10
68.9230769230768
20
77.7860563066108
30
0
0
VERTEX
8
0
10
69.8420512820512
20
77.9579897907188
30
0
0
VERTEX
8
0
10
70.7610256410255
20
78.1325985062348
30
0
0
VERTEX
8
0
10
71.6799999999999
20
78.2981407855145
30
0
0
VERTEX
8
0
10
72.5989743589742
20
78.4647819174817
30
0
0
VERTEX
8
0
10
73.5179487179486
20
78.6265404932128
30
0
0
VERTEX
8
0
10
74.436923076923
20
78.7845825475913
30
0
0
VERTEX
8
0
10
75.3558974358973
20
78.934815638433
30
0
0
VERTEX
8
0
10
76.2748717948717
20
79.0827803233618
30
0
0
VERTEX
8
0
10
77.193846153846
20
79.2235827959502
30
0
0
VERTEX
8
0
10
78.1128205128204
20
79.3641763303156
30
0
0
VERTEX
8
0
10
79.0317948717947
20
79.4988361839269
30
0
0
VERTEX
8
0
10
79.9507692307691
20
79.6310840128508
30
0
0
VERTEX
8
0
10
80.8697435897435
20
79.7626587094858
30
0
0
VERTEX
8
0
10
81.7887179487178
20
79.8875065668391
30
0
0
VERTEX
8
0
10
82.7076923076922
20
80.0018530335244
30
0
0
VERTEX
8
0
10
83.6266666666665
20
80.1140997342463
30
0
0
VERTEX
8
0
10
84.5456410256409
20
80.2176364984567
30
0
0
VERTEX
8
0
10
85.4646153846152
20
80.317551694239
30
0
0
VERTEX
8
0
10
86.3835897435896
20
80.4074672727772
30
0
0
VERTEX
8
0
10
87.3025641025639
20
80.4963812614075
30
0
0
VERTEX
8
0
10
88.2215384615383
20
80.580727055654
30
0
0
VERTEX
8
0
10
89.1405128205126
20
80.6628101641407
30
0
0
VERTEX
8
0
10
90.059487179487
20
80.7350872387221
30
0
0
VERTEX
8
0
10
90.9784615384614
20
80.8037370181337
30
0
0
VERTEX
8
0
10
91.8974358974357
20
80.8692762377172
30
0
0
VERTEX
8
0
10
92.8164102564101
20
80.9262924600276
30
0
0
VERTEX
8
0
10
93.7353846153844
20
80.9753002800278
30
0
0
VERTEX
8
0
10
94.6543589743588
20
81.0208654936934
30
0
0
VERTEX
8
0
10
95.5733333333331
20
81.0633699781581
30
0
0
VERTEX
8
0
10
96.4923076923075
20
81.1032912256452
30
0
0
VERTEX
8
0
10
97.4112820512818
20
81.1356882625341
30
0
0
VERTEX
8
0
10
98.3302564102562
20
81.1621171799433
30
0
0
VERTEX
8
0
10
99.2492307692306
20
81.1867293473785
30
0
0
VERTEX
8
0
10
100.168205128205
20
81.2021261710277
30
0
0
VERTEX
8
0
10
101.087179487179
20
81.2086225315407
30
0
0
VERTEX
8
0
10
102.006153846154
20
81.2117717752532
30
0
0
VERTEX
8
0
10
102.925128205128
20
81.2143370452442
30
0
0
VERTEX
8
0
10
103.844102564102
20
81.214099649994
30
0
0
VERTEX
8
0
10
104.763076923077
20
81.2081030830728
30
0
0
VERTEX
8
0
10
105.682051282051
20
81.1943447519011
30
0
0
VERTEX
8
0
10
106.601025641025
20
81.1768263725635
30
0
0
VERTEX
8
0
10
107.52
20
81.1556661027379
30
0
0
VERTEX
8
0
10
108.438974358974
20
81.1273178600164
30
0
0
VERTEX
8
0
10
109.357948717948
20
81.0950216605458
30
0
0
VERTEX
8
0
10
110.276923076923
20
81.060536002894
30
0
0
VERTEX
8
0
10
111.195897435897
20
81.0238316663666
30
0
0
VERTEX
8
0
10
112.114871794872
20
80.9812549695045
30
0
0
VERTEX
8
0
10
113.033846153846
20
80.9350331223965
30
0
0
VERTEX
8
0
10
113.95282051282
20
80.8817989157674
30
0
0
VERTEX
8
0
10
114.871794871795
20
80.8245609830463
30
0
0
VERTEX
8
0
10
115.790769230769
20
80.7634127399384
30
0
0
VERTEX
8
0
10
116.709743589743
20
80.7031715339492
30
0
0
VERTEX
8
0
10
117.628717948718
20
80.6406239115368
30
0
0
VERTEX
8
0
10
118.547692307692
20
80.569787399031
30
0
0
VERTEX
8
0
10
119.466666666666
20
80.4961111191957
30
0
0
VERTEX
8
0
10
120.385641025641
20
80.4222961117675
30
0
0
VERTEX
8
0
10
121.304615384615
20
80.3509761740378
30
0
0
VERTEX
8
0
10
122.223589743589
20
80.2803648119777
30
0
0
VERTEX
8
0
10
123.142564102564
20
80.2091813889971
30
0
0
VERTEX
8
0
10
124.061538461538
20
80.1300410184516
30
0
0
VERTEX
8
0
10
124.980512820513
20
80.0487139621346
30
0
0
VERTEX
8
0
10
125.899487179487
20
79.9667521880832
30
0
0
VERTEX
8
0
10
126.818461538461
20
79.8859201169664
30
0
0
VERTEX
8
0
10
127.737435897436
20
79.8046942746652
30
0
0
VERTEX
8
0
10
128.65641025641
20
79.723339932577
30
0
0
VERTEX
8
0
10
129.575384615384
20
79.6363497743546
30
0
0
VERTEX
8
0
10
130.494358974359
20
79.5473539611908
30
0
0
VERTEX
8
0
10
131.413333333333
20
79.4580001229793
30
0
0
VERTEX
8
0
10
132.332307692307
20
79.3694202291396
30
0
0
VERTEX
8
0
10
133.251282051282
20
79.279931097603
30
0
0
VERTEX
8
0
10
134.170256410256
20
79.1910556487323
30
0
0
VERTEX
8
0
10
135.08923076923
20
79.1036898039034
30
0
0
VERTEX
8
0
10
136.008205128205
20
79.0164681845649
30
0
0
VERTEX
8
0
10
136.927179487179
20
78.9280729062859
30
0
0
VERTEX
8
0
10
137.846153846153
20
78.8343038694495
30
0
0
VERTEX
8
0
10
138.765128205128
20
78.7402815949515
30
0
0
VERTEX
8
0
10
139.684102564102
20
78.6494600958183
30
0
0
VERTEX
8
0
10
140.603076923077
20
78.5599928739689
30
0
0
VERTEX
8
0
10
141.522051282051
20
78.4750157380637
30
0
0
VERTEX
8
0
10
142.441025641025
20
78.3845729623767
30
0
0
VERTEX
8
0
10
143.36
20
78.2933403927999
30
0
0
VERTEX
8
0
10
144.278974358974
20
78.2034176559489
30
0
0
VERTEX
8
0
10
145.197948717948
20
78.1155851637082
30
0
0
VERTEX
8
0
10
146.116923076923
20
78.0302764363284
30
0
0
VERTEX
8
0
10
147.035897435897
20
77.9496278497416
30
0
0
VERTEX
8
0
10
147.954871794871
20
77.8751188632711
30
0
0
VERTEX
8
0
10
148.873846153846
20
77.8043845307831
30
0
0
VERTEX
8
0
10
149.79282051282
20
77.7366660824589
30
0
0
VERTEX
8
0
10
150.711794871795
20
77.6663535227125
30
0
0
VERTEX
8
0
10
151.630769230769
20
77.5971550580801
30
0
0
VERTEX
8
0
10
152.549743589743
20
77.5317099344987
30
0
0
VERTEX
8
0
10
153.468717948718
20
77.4730616061583
30
0
0
VERTEX
8
0
10
154.387692307692
20
77.4159623309399
30
0
0
VERTEX
8
0
10
155.306666666666
20
77.3600077760052
30
0
0
VERTEX
8
0
10
156.225641025641
20
77.2996098001139
30
0
0
VERTEX
8
0
10
157.144615384615
20
77.2399919301573
30
0
0
VERTEX
8
0
10
158.063589743589
20
77.1816435323508
30
0
0
VERTEX
8
0
10
158.982564102564
20
77.1245144213486
30
0
0
VERTEX
8
0
10
159.901538461538
20
77.0690976713902
30
0
0
VERTEX
8
0
10
160.820512820513
20
77.0178290349271
30
0
0
VERTEX
8
0
10
161.739487179487
20
76.9665384112333
30
0
0
VERTEX
8
0
10
162.658461538461
20
76.9193575400179
30
0
0
VERTEX
8
0
10
163.577435897436
20
76.8687068860608
30
0
0
VERTEX
8
0
10
164.49641025641
20
76.8176878759811
30
0
0
VERTEX
8
0
10
165.415384615384
20
76.7674870263544
30
0
0
VERTEX
8
0
10
166.334358974359
20
76.7181238226263
30
0
0
VERTEX
8
0
10
167.253333333333
20
76.6695787600571
30
0
0
VERTEX
8
0
10
168.172307692308
20
76.6229958242329
30
0
0
VERTEX
8
0
10
169.091282051282
20
76.5799717174582
30
0
0
VERTEX
8
0
10
170.010256410256
20
76.5382810023118
30
0
0
VERTEX
8
0
10
170.929230769231
20
76.4998541725688
30
0
0
VERTEX
8
0
10
171.848205128205
20
76.4584195437523
30
0
0
SEQEND
8
0
0
POLYLINE
8
0
62
4
70
0
10
0
20
0
30
0
0
VERTEX
8
0
10
1.83794871794872
20
17.4296280361931
30
0
0
VERTEX
8
0
10
2.75692307692308
20
21.664159341592
30
0
0
VERTEX
8
0
10
3.67589743589744
20
24.996417823663
30
0
0
VERTEX
8
0
10
4.59487179487179
20
28.3921106962691
30
0
0
VERTEX
8
0
10
5.51384615384615
20
31.2993881703347
30
0
0
VERTEX
8
0
10
6.43282051282051
20
34.3390542862602
30
0
0
VERTEX
8
0
10
7.35179487179487
20
36.6672832757848
30
0
0
VERTEX
8
0
10
8.27076923076923
20
38.677006793349
30
0
0
VERTEX
8
0
10
9.18974358974359
20
40.7426415043506
30
0
0
VERTEX
8
0
10
10.1087179487179
20
42.6995982085718
30
0
0
VERTEX
8
0
10
11.0276923076923
20
44.4322076630599
30
0
0
VERTEX
8
0
10
11.9466666666667
20
46.0866291019201
30
0
0
VERTEX
8
0
10
12.865641025641
20
47.7844459255995
30
0
0
VERTEX
8
0
10
13.7846153846154
20
49.1301789901207
30
0
0
VERTEX
8
0
10
14.7035897435897
20
50.6079993476496
30
0
0
VERTEX
8
0
10
15.6225641025641
20
51.8859316110908
30
0
0
VERTEX
8
0
10
16.5415384615385
20
53.1400973484805
30
0
0
VERTEX
8
0
10
17.4605128205128
20
54.3876397920921
30
0
0
VERTEX
8
0
10
18.3794871794872
20
55.4807654306478
30
0
0
VERTEX
8
0
10
19.2984615384615
20
56.5825644173982
30
0
0
VERTEX
8
0
10
20.2174358974359
20
57.6847600574057
30
0
0
VERTEX
8
0
10
21.1364102564103
20
58.6491115399596
30
0
0
VERTEX
8
0
10
22.0553846153846
20
59.6196238237755
30
0
0
VERTEX
8
0
10
22.974358974359
20
60.6080629681741
30
0
0
VERTEX
8
0
10
23.8933333333333
20
61.3801390871989
30
0
0
VERTEX
8
0
10
24.8123076923077
20
62.1854412425248
30
0
0
VERTEX
8
0
10
25.7312820512821
20
62.9916275694273
30
0
0
VERTEX
8
0
10
26.6502564102564
20
63.6844296387781
30
0
0
VERTEX
8
0
10
27.5692307692308
20
64.3945051463301
30
0
0
VERTEX
8
0
10
28.4882051282051
20
65.0937642438139
30
0
0
VERTEX
8
0
10
29.4071794871795
20
65.6288644069206
30
0
0
VERTEX
8
0
10
30.3261538461539
20
66.1822531987702
30
0
0
VERTEX
8
0
10
31.2451282051282
20
66.7206589818185
30
0
0
VERTEX
8
0
10
32.1641025641026
20
67.2171184535181
30
0
0
VERTEX
8
0
10
33.0830769230769
20
67.722491077848
30
0
0
VERTEX
8
0
10
34.0020512820513
20
68.1862291908748
30
0
0
VERTEX
8
0
10
34.9210256410257
20
68.5548839407408
30
0
0
VERTEX
8
0
10
35.84
20
68.9344531835044
30
0
0
VERTEX
8
0
10
36.7589743589744
20
69.2748550410047
30
0
0
VERTEX
8
0
10
37.6779487179487
20
69.6021783568685
30
0
0
VERTEX
8
0
10
38.5969230769231
20
69.920448686471
30
0
0
VERTEX
8
0
10
39.5158974358974
20
70.2161272374435
30
0
0
VERTEX
8
0
10
40.4348717948718
20
70.4873479043983
30
0
0
VERTEX
8
0
10
41.3538461538461
20
70.7569156495262
30
0
0
VERTEX
8
0
10
42.2728205128205
20
70.9884289375127
30
0
0
VERTEX
8
0
10
43.1917948717949
20
71.229028133849
30
0
0
VERTEX
8
0
10
44.1107692307692
20
71.4743352159446
30
0
0
VERTEX
8
0
10
45.0297435897436
20
71.7025616572887
30
0
0
VERTEX
8
0
10
45.9487179487179
20
71.9236759281786
30
0
0
VERTEX
8
0
10
46.8676923076923
20
72.1481816365346
30
0
0
VERTEX
8
0
10
47.7866666666666
20
72.3561117150123
30
0
0
VERTEX
8
0
10
48.705641025641
20
72.5692817778319
30
0
0
VERTEX
8
0
10
49.6246153846154
20
72.7738287371104
30
0
0
VERTEX
8
0
10
50.5435897435897
20
72.9772146505883
30
0
0
VERTEX
8
0
10
51.4625641025641
20
73.1999536910165
30
0
0
VERTEX
8
0
10
52.3815384615384
20
73.4173994694328
30
0
0
VERTEX
8
0
10
53.3005128205128
20
73.6237490496478
30
0
0
VERTEX
8
0
10
54.2194871794871
20
73.8462329409161
30
0
0
VERTEX
8
0
10
55.1384615384615
20
74.0669603706263
30
0
0
VERTEX
8
0
10
56.0574358974358
20
74.2759417715014
30
0
0
VERTEX
8
0
10
56.9764102564102
20
74.4857339201376
30
0
0
VERTEX
8
0
10
57.8953846153846
20
74.6905490380762
30
0
0
VERTEX
8
0
10
58.8143589743589
20
74.8971366770478
30
0
0
VERTEX
8
0
10
59.7333333333333
20
75.1224673767132
30
0
0
VERTEX
8
0
10
60.6523076923076
20
75.3372157031516
30
0
0
VERTEX
8
0
10
61.571282051282
20
75.5522923312272
30
0
0
VERTEX
8
0
10
62.4902564102563
20
75.7696291509678
30
0
0
VERTEX
8
0
10
63.4092307692307
20
75.99324213676
30
0
0
VERTEX
8
0
10
64.328205128205
20
76.2084531939375
30
0
0
VERTEX
8
0
10
65.2471794871794
20
76.4239832576449
30
0
0
VERTEX
8
0
10
66.1661538461537
20
76.6466495460925
30
0
0
VERTEX
8
0
10
67.0851282051281
20
76.8689269259425
30
0
0
VERTEX
8
0
10
68.0041025641025
20
77.090344366133
30
0
0
VERTEX
8
0
10
68.9230769230768
20
77.3049141707723
30
0
0
VERTEX
8
0
10
69.8420512820512
20
77.520510448271
30
0
0
VERTEX
8
0
10
70.7610256410255
20
77.7311764796777
30
0
0
VERTEX
8
0
10
71.6799999999999
20
77.9352658097333
30
0
0
VERTEX
8
0
10
72.5989743589742
20
78.1496959245952
30
0
0
VERTEX
8
0
10
73.5179487179486
20
78.3701019022092
30
0
0
VERTEX
8
0
10
74.436923076923
20
78.5857928513714
30
0
0
VERTEX
8
0
10
75.3558974358973
20
78.7641133969063
30
0
0
VERTEX
8
0
10
76.2748717948717
20
78.9429327569956
30
0
0
VERTEX
8
0
10
77.193846153846
20
79.1228689384796
30
0
0
VERTEX
8
0
10
78.1128205128204
20
79.2565816070751
30
0
0
VERTEX
8
0
10
79.0317948717947
20
79.3727206270393
30
0
0
VERTEX
8
0
10
79.9507692307691
20
79.4874766544212
30
0
0
VERTEX
8
0
10
80.8697435897435
20
79.6063223515886
30
0
0
VERTEX
8
0
10
81.7887179487178
20
79.7155063735058
30
0
0
VERTEX
8
0
10
82.7076923076922
20
79.8186938217624
30
0
0
VERTEX
8
0
10
83.6266666666665
20
79.9304200615757
30
0
0
VERTEX
8
0
10
84.5456410256409
20
80.0446179556008
30
0
0
VERTEX
8
0
10
85.4646153846152
20
80.1548503779561
30
0
0
VERTEX
8
0
10
86.3835897435896
20
80.2524785690855
30
0
0
VERTEX
8
0
10
87.3025641025639
20
80.3450744941796
30
0
0
VERTEX
8
0
10
88.2215384615383
20
80.4386674031851
30
0
0
VERTEX
8
0
10
89.1405128205126
20
80.5083525453749
30
0
0
VERTEX
8
0
10
90.059487179487
20
80.5835766044593
30
0
0
VERTEX
8
0
10
90.9784615384614
20
80.6541541152893
30
0
0
VERTEX
8
0
10
91.8974358974357
20
80.6651271152271
30
0
0
VERTEX
8
0
10
92.8164102564101
20
80.6780201008878
30
0
0
VERTEX
8
0
10
93.7353846153844
20
80.6866306342981
30
0
0
VERTEX
8
0
10
94.6543589743588
20
80.6815185507049
30
0
0
VERTEX
8
0
10
95.5733333333331
20
80.6807376978228
30
0
0
VERTEX
8
0
10
96.4923076923075
20
80.6761415399114
30
0
0
VERTEX
8
0
10
97.4112820512818
20
80.6676131577175
30
0
0
VERTEX
8
0
10
98.3302564102562
20
80.6549513364276
30
0
0
VERTEX
8
0
10
99.2492307692306
20
80.6439528717696
30
0
0
VERTEX
8
0
10
100.168205128205
20
80.6363553466764
30
0
0
VERTEX
8
0
10
101.087179487179
20
80.6193041419791
30
0
0
VERTEX
8
0
10
102.006153846154
20
80.5990132960917
30
0
0
VERTEX
8
0
10
102.925128205128
20
80.5864731332834
30
0
0
VERTEX
8
0
10
103.844102564102
20
80.5724645195976
30
0
0
VERTEX
8
0
10
104.763076923077
20
80.5562303552705
30
0
0
VERTEX
8
0
10
105.682051282051
20
80.5412290066594
30
0
0
VERTEX
8
0
10
106.601025641025
20
80.5238991948398
30
0
0
VERTEX
8
0
10
107.52
20
80.5079253531015
30
0
0
VERTEX
8
0
10
108.438974358974
20
80.4951530591539
30
0
0
VERTEX
8
0
10
109.357948717948
20
80.4784459112161
30
0
0
VERTEX
8
0
10
110.276923076923
20
80.4475961196489
30
0
0
VERTEX
8
0
10
111.195897435897
20
80.4068091645191
30
0
0
VERTEX
8
0
10
112.114871794872
20
80.3653756525183
30
0
0
VERTEX
8
0
10
113.033846153846
20
80.3469262993794
30
0
0
VERTEX
8
0
10
113.95282051282
20
80.3214704890635
30
0
0
VERTEX
8
0
10
114.871794871795
20
80.2936108287382
30
0
0
VERTEX
8
0
10
115.790769230769
20
80.2532019408421
30
0
0
VERTEX
8
0
10
116.709743589743
20
80.214596455084
30
0
0
VERTEX
8
0
10
117.628717948718
20
80.1764558447314
30
0
0
VERTEX
8
0
10
118.547692307692
20
80.1269866103282
30
0
0
VERTEX
8
0
10
119.466666666666
20
80.0750773374933
30
0
0
VERTEX
8
0
10
120.385641025641
20
80.0221700999972
30
0
0
VERTEX
8
0
10
121.304615384615
20
79.9886182358351
30
0
0
VERTEX
8
0
10
122.223589743589
20
79.9520544136489
30
0
0
VERTEX
8
0
10
123.142564102564
20
79.9153564823374
30
0
0
VERTEX
8
0
10
124.061538461538
20
79.8668978618306
30
0
0
VERTEX
8
0
10
124.980512820513
20
79.8174995054915
30
0
0
VERTEX
8
0
10
125.899487179487
20
79.7675914077326
30
0
0
VERTEX
8
0
10
126.818461538461
20
79.733897637612
30
0
0
VERTEX
8
0
10
127.737435897436
20
79.6956012561623
30
0
0
VERTEX
8
0
10
128.65641025641
20
79.6571634764899
30
0
0
VERTEX
8
0
10
129.575384615384
20
79.594461404196
30
0
0
VERTEX
8
0
10
130.494358974359
20
79.5346523880674
30
0
0
VERTEX
8
0
10
131.413333333333
20
79.4686086990097
30
0
0
VERTEX
8
0
10
132.332307692307
20
79.4025901194562
30
0
0
VERTEX
8
0
10
133.251282051282
20
79.3351697762329
30
0
0
VERTEX
8
0
10
134.170256410256
20
79.2625543304581
30
0
0
VERTEX
8
0
10
135.08923076923
20
79.1925215021952
30
0
0
VERTEX
8
0
10
136.008205128205
20
79.1225789950759
30
0
0
VERTEX
8
0
10
136.927179487179
20
79.0543445305533
30
0
0
VERTEX
8
0
10
137.846153846153
20
78.983266257333
30
0
0
VERTEX
8
0
10
138.765128205128
20
78.9115498323996
30
0
0
VERTEX
8
0
10
139.684102564102
20
78.8392783956362
30
0
0
VERTEX
8
0
10
140.603076923077
20
78.7670783871711
30
0
0
VERTEX
8
0
10
141.522051282051
20
78.6986406630784
30
0
0
VERTEX
8
0
10
142.441025641025
20
78.6296631405377
30
0
0
VERTEX
8
0
10
143.36
20
78.5581988309777
30
0
0
VERTEX
8
0
10
144.278974358974
20
78.4866030114377
30
0
0
VERTEX
8
0
10
145.197948717948
20
78.4180517976253
30
0
0
VERTEX
8
0
10
146.116923076923
20
78.3479924515542
30
0
0
VERTEX
8
0
10
147.035897435897
20
78.279740357881
30
0
0
VERTEX
8
0
10
147.954871794871
20
78.2104031904621
30
0
0
VERTEX
8
0
10
148.873846153846
20
78.1416809402682
30
0
0
VERTEX
8
0
10
149.79282051282
20
78.0735403307023
30
0
0
VERTEX
8
0
10
150.711794871795
20
78.0131606662363
30
0
0
VERTEX
8
0
10
151.630769230769
20
77.952010786438
30
0
0
VERTEX
8
0
10
152.549743589743
20
77.892903471765
30
0
0
VERTEX
8
0
10
153.468717948718
20
77.8293001528867
30
0
0
VERTEX
8
0
10
154.387692307692
20
77.7664110732428
30
0
0
VERTEX
8
0
10
155.306666666666
20
77.7046255658751
30
0
0
VERTEX
8
0
10
156.225641025641
20
77.6365638625831
30
0
0
VERTEX
8
0
10
157.144615384615
20
77.5683061156163
30
0
0
VERTEX
8
0
10
158.063589743589
20
77.5017702670129
30
0
0
VERTEX
8
0
10
158.982564102564
20
77.4474567187794
30
0
0
VERTEX
8
0
10
159.901538461538
20
77.3938979205444
30
0
0
VERTEX
8
0
10
160.820512820513
20
77.3426947449423
30
0
0
VERTEX
8
0
10
161.739487179487
20
77.279284859759
30
0
0
VERTEX
8
0
10
162.658461538461
20
77.2219250311966
30
0
0
VERTEX
8
0
10
163.577435897436
20
77.1629207252231
30
0
0
VERTEX
8
0
10
164.49641025641
20
77.1046830816805
30
0
0
VERTEX
8
0
10
165.415384615384
20
77.0465738675877
30
0
0
VERTEX
8
0
10
166.334358974359
20
76.9919217784731
30
0
0
VERTEX
8
0
10
167.253333333333
20
76.9475696211628
30
0
0
VERTEX
8
0
10
168.172307692308
20
76.9023399186042
30
0
0
VERTEX
8
0
10
169.091282051282
20
76.8612270519262
30
0
0
VERTEX
8
0
10
170.010256410256
20
76.8168760928952
30
0
0
VERTEX
8
0
10
170.929230769231
20
76.7763418168726
30
0
0
VERTEX
8
0
10
171.848205128205
20
76.7059530261615
30
0
0
SEQEND
8
0
0
POLYLINE
8
0
62
2
70
0
10
0
20
0
30
0
0
VERTEX
8
0
10
1.83794871794872
20
14.3329762742177
30
0
0
VERTEX
8
0
10
2.75692307692308
20
16.9165657224438
30
0
0
VERTEX
8
0
10
3.67589743589744
20
18.2500542169235
30
0
0
VERTEX
8
0
10
4.59487179487179
20
19.385270306487
30
0
0
VERTEX
8
0
10
5.51384615384615
20
20.3949749581067
30
0
0
VERTEX
8
0
10
6.43282051282051
20
20.836008145524
30
0
0
VERTEX
8
0
10
7.35179487179487
20
21.4195124271927
30
0
0
VERTEX
8
0
10
8.27076923076923
20
21.5538015846404
30
0
0
VERTEX
8
0
10
9.18974358974359
20
21.7949451991288
30
0
0
VERTEX
8
0
10
10.1087179487179
20
22.0908804287415
30
0
0
VERTEX
8
0
10
11.0276923076923
20
22.0331601836959
30
0
0
VERTEX
8
0
10
11.9466666666667
20
22.0920995809603
30
0
0
VERTEX
8
0
10
12.865641025641
20
22.194051117031
30
0
0
VERTEX
8
0
10
13.7846153846154
20
22.1025145182782
30
0
0
VERTEX
8
0
10
14.7035897435897
20
22.0953713502612
30
0
0
VERTEX
8
0
10
15.6225641025641
20
22.0430240540061
30
0
0
VERTEX
8
0
10
16.5415384615385
20
21.952458923036
30
0
0
VERTEX
8
0
10
17.4605128205128
20
21.8765688969089
30
0
0
VERTEX
8
0
10
18.3794871794872
20
21.7760574850627
30
0
0
VERTEX
8
0
10
19.2984615384615
20
21.6692360334648
30
0
0
VERTEX
8
0
10
20.2174358974359
20
21.5759098710695
30
0
0
VERTEX
8
0
10
21.1364102564103
20
21.4581774509967
30
0
0
VERTEX
8
0
10
22.0553846153846
20
21.3412068740693
30
0
0
VERTEX
8
0
10
22.974358974359
20
21.2369425033144
30
0
0
VERTEX
8
0
10
23.8933333333333
20
21.0978867980904
30
0
0
VERTEX
8
0
10
24.8123076923077
20
20.9628171253395
30
0
0
VERTEX
8
0
10
25.7312820512821
20
20.8402416192099
30
0
0
VERTEX
8
0
10
26.6502564102564
20
20.7285226197854
30
0
0
VERTEX
8
0
10
27.5692307692308
20
20.6209648245026
30
0
0
VERTEX
8
0
10
28.4882051282051
20
20.5244278866632
30
0
0
VERTEX
8
0
10
29.4071794871795
20
20.3725911435425
30
0
0
VERTEX
8
0
10
30.3261538461539
20
20.2351556519638
30
0
0
VERTEX
8
0
10
31.2451282051282
20
20.1077188651429
30
0
0
VERTEX
8
0
10
32.1641025641026
20
19.9939007257824
30
0
0
VERTEX
8
0
10
33.0830769230769
20
19.8886942266222
30
0
0
VERTEX
8
0
10
34.0020512820513
20
19.7880504827243
30
0
0
VERTEX
8
0
10
34.9210256410257
20
19.675700179441
30
0
0
VERTEX
8
0
10
35.84
20
19.5779527888871
30
0
0
VERTEX
8
0
10
36.7589743589744
20
19.4561698120784
30
0
0
VERTEX
8
0
10
37.6779487179487
20
19.3207317036384
30
0
0
VERTEX
8
0
10
38.5969230769231
20
19.1920424368325
30
0
0
VERTEX
8
0
10
39.5158974358974
20
19.0770516898083
30
0
0
VERTEX
8
0
10
40.4348717948718
20
18.9685343275287
30
0
0
VERTEX
8
0
10
41.3538461538461
20
18.8661803389065
30
0
0
VERTEX
8
0
10
42.2728205128205
20
18.7353820232336
30
0
0
VERTEX
8
0
10
43.1917948717949
20
18.60088045435
30
0
0
VERTEX
8
0
10
44.1107692307692
20
18.4718989191973
30
0
0
VERTEX
8
0
10
45.0297435897436
20
18.3701392008707
30
0
0
VERTEX
8
0
10
45.9487179487179
20
18.2704394903011
30
0
0
VERTEX
8
0
10
46.8676923076923
20
18.1759325969371
30
0
0
VERTEX
8
0
10
47.7866666666666
20
18.0743704574066
30
0
0
VERTEX
8
0
10
48.705641025641
20
17.9748601254592
30
0
0
VERTEX
8
0
10
49.6246153846154
20
17.8802068492915
30
0
0
VERTEX
8
0
10
50.5435897435897
20
17.7875964529777
30
0
0
VERTEX
8
0
10
51.4625641025641
20
17.6961996459975
30
0
0
VERTEX
8
0
10
52.3815384615384
20
17.6092038633918
30
0
0
VERTEX
8
0
10
53.3005128205128
20
17.5220251439308
30
0
0
VERTEX
8
0
10
54.2194871794871
20
17.4414886611984
30
0
0
VERTEX
8
0
10
55.1384615384615
20
17.3617071156983
30
0
0
VERTEX
8
0
10
56.0574358974358
20
17.272288244505
30
0
0
VERTEX
8
0
10
56.9764102564102
20
17.1913168558406
30
0
0
VERTEX
8
0
10
57.8953846153846
20
17.1073849500562
30
0
0
VERTEX
8
0
10
58.8143589743589
20
17.0222477616399
30
0
0
VERTEX
8
0
10
59.7333333333333
20
16.9410156558293
30
0
0
VERTEX
8
0
10
60.6523076923076
20
16.8567847690554
30
0
0
VERTEX
8
0
10
61.571282051282
20
16.7719518924814
30
0
0
VERTEX
8
0
10
62.4902564102563
20
16.6907540837264
30
0
0
VERTEX
8
0
10
63.4092307692307
20
16.6127476786486
30
0
0
VERTEX
8
0
10
64.328205128205
20
16.5357815582482
30
0
0
VERTEX
8
0
10
65.2471794871794
20
16.462487861768
30
0
0
VERTEX
8
0
10
66.1661538461537
20
16.3927104401512
30
0
0
VERTEX
8
0
10
67.0851282051281
20
16.3239432217596
30
0
0
VERTEX
8
0
10
68.0041025641025
20
16.2574846457117
30
0
0
VERTEX
8
0
10
68.9230769230768
20
16.1794810241244
30
0
0
VERTEX
8
0
10
69.8420512820512
20
16.102751098258
30
0
0
VERTEX
8
0
10
70.7610256410255
20
16.029071785077
30
0
0
VERTEX
8
0
10
71.6799999999999
20
15.9608201348983
30
0
0
VERTEX
8
0
10
72.5989743589742
20
15.8927426557583
30
0
0
VERTEX
8
0
10
73.5179487179486
20
15.8259237638562
30
0
0
VERTEX
8
0
10
74.436923076923
20
15.7500070897965
30
0
0
VERTEX
8
0
10
75.3558974358973
20
15.678633742121
30
0
0
VERTEX
8
0
10
76.2748717948717
20
15.6034776890606
30
0
0
VERTEX
8
0
10
77.193846153846
20
15.5214727083124
30
0
0
VERTEX
8
0
10
78.1128205128204
20
15.4432533293884
30
0
0
VERTEX
8
0
10
79.0317948717947
20
15.3847563159426
30
0
0
VERTEX
8
0
10
79.9507692307691
20
15.3377914952941
30
0
0
VERTEX
8
0
10
80.8697435897435
20
15.2946918677189
30
0
0
VERTEX
8
0
10
81.7887179487178
20
15.2433387880673
30
0
0
VERTEX
8
0
10
82.7076923076922
20
15.1897696717005
30
0
0
VERTEX
8
0
10
83.6266666666665
20
15.1369538089265
30
0
0
VERTEX
8
0
10
84.5456410256409
20
15.0670974894046
30
0
0
VERTEX
8
0
10
85.4646153846152
20
14.9937201374153
30
0
0
VERTEX
8
0
10
86.3835897435896
20
14.9230030867447
30
0
0
VERTEX
8
0
10
87.3025641025639
20
14.8647683018467
30
0
0
VERTEX
8
0
10
88.2215384615383
20
14.807652986162
30
0
0
VERTEX
8
0
10
89.1405128205126
20
14.7527839768536
30
0
0
VERTEX
8
0
10
90.059487179487
20
14.7032370261649
30
0
0
VERTEX
8
0
10
90.9784615384614
20
14.654483770218
30
0
0
VERTEX
8
0
10
91.8974358974357
20
14.6051388377457
30
0
0
VERTEX
8
0
10
92.8164102564101
20
14.5415251822282
30
0
0
VERTEX
8
0
10
93.7353846153844
20
14.4792763430542
30
0
0
VERTEX
8
0
10
94.6543589743588
20
14.4206419537804
30
0
0
VERTEX
8
0
10
95.5733333333331
20
14.3722212644569
30
0
0
VERTEX
8
0
10
96.4923076923075
20
14.3253581486691
30
0
0
VERTEX
8
0
10
97.4112820512818
20
14.2839210260233
30
0
0
VERTEX
8
0
10
98.3302564102562
20
14.2440669208918
30
0
0
VERTEX
8
0
10
99.2492307692306
20
14.2051931606929
30
0
0
VERTEX
8
0
10
100.168205128205
20
14.1420794063037
30
0
0
VERTEX
8
0
10
101.087179487179
20
14.0755450632247
30
0
0
VERTEX
8
0
10
102.006153846154
20
14.0121962375698
30
0
0
VERTEX
8
0
10
102.925128205128
20
13.9665462892334
30
0
0
VERTEX
8
0
10
103.844102564102
20
13.9319274777213
30
0
0
VERTEX
8
0
10
104.763076923077
20
13.8984155661035
30
0
0
VERTEX
8
0
10
105.682051282051
20
13.8512379117533
30
0
0
VERTEX
8
0
10
106.601025641025
20
13.800990721628
30
0
0
VERTEX
8
0
10
107.52
20
13.7517022665711
30
0
0
VERTEX
8
0
10
108.438974358974
20
13.7015670680617
30
0
0
VERTEX
8
0
10
109.357948717948
20
13.6510614393841
30
0
0
VERTEX
8
0
10
110.276923076923
20
13.6042913197675
30
0
0
VERTEX
8
0
10
111.195897435897
20
13.5702318501947
30
0
0
VERTEX
8
0
10
112.114871794872
20
13.537660391922
30
0
0
VERTEX
8
0
10
113.033846153846
20
13.5012354224499
30
0
0
VERTEX
8
0
10
113.95282051282
20
13.4472776506248
30
0
0
VERTEX
8
0
10
114.871794871795
20
13.3902583777933
30
0
0
VERTEX
8
0
10
115.790769230769
20
13.3432162027808
30
0
0
VERTEX
8
0
10
116.709743589743
20
13.3333199685644
30
0
0
VERTEX
8
0
10
117.628717948718
20
13.3173785166418
30
0
0
VERTEX
8
0
10
118.547692307692
20
13.2713251204519
30
0
0
VERTEX
8
0
10
119.466666666666
20
13.2175057711302
30
0
0
VERTEX
8
0
10
120.385641025641
20
13.1668115929313
30
0
0
VERTEX
8
0
10
121.304615384615
20
13.1349551205859
30
0
0
VERTEX
8
0
10
122.223589743589
20
13.1218371197923
30
0
0
VERTEX
8
0
10
123.142564102564
20
13.1079630557458
30
0
0
VERTEX
8
0
10
124.061538461538
20
13.0635249732791
30
0
0
VERTEX
8
0
10
124.980512820513
20
13.0123317572807
30
0
0
VERTEX
8
0
10
125.899487179487
20
12.966244304635
30
0
0
VERTEX
8
0
10
126.818461538461
20
12.9400002696449
30
0
0
VERTEX
8
0
10
127.737435897436
20
12.9217390742516
30
0
0
VERTEX
8
0
10
128.65641025641
20
12.900089746401
30
0
0
VERTEX
8
0
10
129.575384615384
20
12.8570741780335
30
0
0
VERTEX
8
0
10
130.494358974359
20
12.8095885711573
30
0
0
VERTEX
8
0
10
131.413333333333
20
12.7653259013387
30
0
0
VERTEX
8
0
10
132.332307692307
20
12.7299054539464
30
0
0
VERTEX
8
0
10
133.251282051282
20
12.6945901131321
30
0
0
VERTEX
8
0
10
134.170256410256
20
12.6657283822233
30
0
0
VERTEX
8
0
10
135.08923076923
20
12.6555174134767
30
0
0
VERTEX
8
0
10
136.008205128205
20
12.6472608845701
30
0
0
VERTEX
8
0
10
136.927179487179
20
12.6301977599896
30
0
0
VERTEX
8
0
10
137.846153846153
20
12.589549032565
30
0
0
VERTEX
8
0
10
138.765128205128
20
12.5456814699654
30
0
0
VERTEX
8
0
10
139.684102564102
20
12.517305999532
30
0
0
VERTEX
8
0
10
140.603076923077
20
12.5107847307535
30
0
0
VERTEX
8
0
10
141.522051282051
20
12.508519206149
30
0
0
VERTEX
8
0
10
142.441025641025
20
12.4783891838067
30
0
0
VERTEX
8
0
10
143.36
20
12.437108688949
30
0
0
VERTEX
8
0
10
144.278974358974
20
12.3958989319151
30
0
0
VERTEX
8
0
10
145.197948717948
20
12.3568322810817
30
0
0
VERTEX
8
0
10
146.116923076923
20
12.319589080872
30
0
0
VERTEX
8
0
10
147.035897435897
20
12.2899851647722
30
0
0
VERTEX
8
0
10
147.954871794871
20
12.2798220589811
30
0
0
VERTEX
8
0
10
148.873846153846
20
12.2766591327296
30
0
0
VERTEX
8
0
10
149.79282051282
20
12.2661462837666
30
0
0
VERTEX
8
0
10
150.711794871795
20
12.2314047191742
30
0
0
VERTEX
8
0
10
151.630769230769
20
12.1904044373922
30
0
0
VERTEX
8
0
10
152.549743589743
20
12.1609679295665
30
0
0
VERTEX
8
0
10
153.468717948718
20
12.1629539768906
30
0
0
VERTEX
8
0
10
154.387692307692
20
12.1675127246684
30
0
0
VERTEX
8
0
10
155.306666666666
20
12.1614311095118
30
0
0
VERTEX
8
0
10
156.225641025641
20
12.1301037006235
30
0
0
VERTEX
8
0
10
157.144615384615
20
12.0923923541846
30
0
0
VERTEX
8
0
10
158.063589743589
20
12.0552810765728
30
0
0
VERTEX
8
0
10
158.982564102564
20
12.0186542774531
30
0
0
VERTEX
8
0
10
159.901538461538
20
11.9858559950377
30
0
0
VERTEX
8
0
10
160.820512820513
20
11.9677682836834
30
0
0
VERTEX
8
0
10
161.739487179487
20
11.9593030727228
30
0
0
VERTEX
8
0
10
162.658461538461
20
11.9516820668465
30
0
0
VERTEX
8
0
10
163.577435897436
20
11.9247115179489
30
0
0
VERTEX
8
0
10
164.49641025641
20
11.8901494868487
30
0
0
VERTEX
8
0
10
165.415384615384
20
11.8555322897095
30
0
0
VERTEX
8
0
10
166.334358974359
20
11.8211146995142
30
0
0
VERTEX
8
0
10
167.253333333333
20
11.7868064506419
30
0
0
VERTEX
8
0
10
168.172307692308
20
11.7594418623321
30
0
0
VERTEX
8
0
10
169.091282051282
20
11.7505891665344
30
0
0
VERTEX
8
0
10
170.010256410256
20
11.7499786747931
30
0
0
VERTEX
8
0
10
170.929230769231
20
11.7525583936618
30
0
0
VERTEX
8
0
10
171.848205128205
20
11.744737244912
30
0
0
SEQEND
8
0
0
POLYLINE
8
0
62
4
70
0
10
0
20
0
30
0
0
VERTEX
8
0
10
1.83794871794872
20
14.9071127874068
30
0
0
VERTEX
8
0
10
2.75692307692308
20
17.7897244016532
30
0
0
VERTEX
8
0
10
3.67589743589744
20
19.4366066826972
30
0
0
VERTEX
8
0
10
4.59487179487179
20
20.8947913456282
30
0
0
VERTEX
8
0
10
5.51384615384615
20
22.170157670743
30
0
0
VERTEX
8
0
10
6.43282051282051
20
22.9003120249191
30
0
0
VERTEX
8
0
10
7.35179487179487
20
23.7626584093856
30
0
0
VERTEX
8
0
10
8.27076923076923
20
24.140968568286
30
0
0
VERTEX
8
0
10
9.18974358974359
20
24.6531530417114
30
0
0
VERTEX
8
0
10
10.1087179487179
20
25.1979446914322
30
0
0
VERTEX
8
0
10
11.0276923076923
20
25.3647525370373
30
0
0
VERTEX
8
0
10
11.9466666666667
20
25.6698209345595
30
0
0
VERTEX
8
0
10
12.865641025641
20
26.0003835303472
30
0
0
VERTEX
8
0
10
13.7846153846154
20
26.1092089751589
30
0
0
VERTEX
8
0
10
14.7035897435897
20
26.3234522080063
30
0
0
VERTEX
8
0
10
15.6225641025641
20
26.4732729685473
30
0
0
VERTEX
8
0
10
16.5415384615385
20
26.5764950868103
30
0
0
VERTEX
8
0
10
17.4605128205128
20
26.705319957977
30
0
0
VERTEX
8
0
10
18.3794871794872
20
26.7909774430628
30
0
0
VERTEX
8
0
10
19.2984615384615
20
26.8623884334858
30
0
0
VERTEX
8
0
10
20.2174358974359
20
26.9561978263839
30
0
0
VERTEX
8
0
10
21.1364102564103
20
27.0091878135426
30
0
0
VERTEX
8
0
10
22.0553846153846
20
27.0577158046199
30
0
0
VERTEX
8
0
10
22.974358974359
20
27.1256282932242
30
0
0
VERTEX
8
0
10
23.8933333333333
20
27.1465067591134
30
0
0
VERTEX
8
0
10
24.8123076923077
20
27.1689123079134
30
0
0
VERTEX
8
0
10
25.7312820512821
20
27.208730497753
30
0
0
VERTEX
8
0
10
26.6502564102564
20
27.2394717499694
30
0
0
VERTEX
8
0
10
27.5692307692308
20
27.2738144307985
30
0
0
VERTEX
8
0
10
28.4882051282051
20
27.3227920288099
30
0
0
VERTEX
8
0
10
29.4071794871795
20
27.3117210450611
30
0
0
VERTEX
8
0
10
30.3261538461539
20
27.3144884902077
30
0
0
VERTEX
8
0
10
31.2451282051282
20
27.329507857566
30
0
0
VERTEX
8
0
10
32.1641025641026
20
27.3327792901843
30
0
0
VERTEX
8
0
10
33.0830769230769
20
27.3602047654593
30
0
0
VERTEX
8
0
10
34.0020512820513
20
27.3880987860816
30
0
0
VERTEX
8
0
10
34.9210256410257
20
27.3854045523233
30
0
0
VERTEX
8
0
10
35.84
20
27.4102941094812
30
0
0
VERTEX
8
0
10
36.7589743589744
20
27.4074579260181
30
0
0
VERTEX
8
0
10
37.6779487179487
20
27.3901686955181
30
0
0
VERTEX
8
0
10
38.5969230769231
20
27.383999895599
30
0
0
VERTEX
8
0
10
39.5158974358974
20
27.3797710864032
30
0
0
VERTEX
8
0
10
40.4348717948718
20
27.3767006268953
30
0
0
VERTEX
8
0
10
41.3538461538461
20
27.3843510715504
30
0
0
VERTEX
8
0
10
42.2728205128205
20
27.3633908648946
30
0
0
VERTEX
8
0
10
43.1917948717949
20
27.3388431120443
30
0
0
VERTEX
8
0
10
44.1107692307692
20
27.322182235881
30
0
0
VERTEX
8
0
10
45.0297435897436
20
27.3179234258866
30
0
0
VERTEX
8
0
10
45.9487179487179
20
27.3145259652169
30
0
0
VERTEX
8
0
10
46.8676923076923
20
27.3195402344146
30
0
0
VERTEX
8
0
10
47.7866666666666
20
27.3115335699615
30
0
0
VERTEX
8
0
10
48.705641025641
20
27.3058648311685
30
0
0
VERTEX
8
0
10
49.6246153846154
20
27.3073185368463
30
0
0
VERTEX
8
0
10
50.5435897435897
20
27.3022597576246
30
0
0
VERTEX
8
0
10
51.4625641025641
20
27.2997751729037
30
0
0
VERTEX
8
0
10
52.3815384615384
20
27.3035671602755
30
0
0
VERTEX
8
0
10
53.3005128205128
20
27.2951029144148
30
0
0
VERTEX
8
0
10
54.2194871794871
20
27.3015287747129
30
0
0
VERTEX
8
0
10
55.1384615384615
20
27.3072195612268
30
0
0
VERTEX
8
0
10
56.0574358974358
20
27.2951416664738
30
0
0
VERTEX
8
0
10
56.9764102564102
20
27.2980726671233
30
0
0
VERTEX
8
0
10
57.8953846153846
20
27.2941806488886
30
0
0
VERTEX
8
0
10
58.8143589743589
20
27.2868986618559
30
0
0
VERTEX
8
0
10
59.7333333333333
20
27.2867282085198
30
0
0
VERTEX
8
0
10
60.6523076923076
20
27.2799764939504
30
0
0
VERTEX
8
0
10
61.571282051282
20
27.2713075501668
30
0
0
VERTEX
8
0
10
62.4902564102563
20
27.2687126610545
30
0
0
VERTEX
8
0
10
63.4092307692307
20
27.2636643857788
30
0
0
VERTEX
8
0
10
64.328205128205
20
27.2583917127809
30
0
0
VERTEX
8
0
10
65.2471794871794
20
27.2591079126111
30
0
0
VERTEX
8
0
10
66.1661538461537
20
27.2570020292182
30
0
0
VERTEX
8
0
10
67.0851282051281
20
27.2553084458869
30
0
0
VERTEX
8
0
10
68.0041025641025
20
27.2583181171268
30
0
0
VERTEX
8
0
10
68.9230769230768
20
27.2490146511762
30
0
0
VERTEX
8
0
10
69.8420512820512
20
27.2411524699931
30
0
0
VERTEX
8
0
10
70.7610256410255
20
27.2373392038993
30
0
0
VERTEX
8
0
10
71.6799999999999
20
27.2323903020576
30
0
0
VERTEX
8
0
10
72.5989743589742
20
27.228450814876
30
0
0
VERTEX
8
0
10
73.5179487179486
20
27.2272236257936
30
0
0
VERTEX
8
0
10
74.436923076923
20
27.2140535175391
30
0
0
VERTEX
8
0
10
75.3558974358973
20
27.2087510246755
30
0
0
VERTEX
8
0
10
76.2748717948717
20
27.2002844461196
30
0
0
VERTEX
8
0
10
77.193846153846
20
27.1839883030372
30
0
0
VERTEX
8
0
10
78.1128205128204
20
27.1730171120424
30
0
0
VERTEX
8
0
10
79.0317948717947
20
27.1721369166725
30
0
0
VERTEX
8
0
10
79.9507692307691
20
27.1754774285763
30
0
0
VERTEX
8
0
10
80.8697435897435
20
27.186508840795
30
0
0
VERTEX
8
0
10
81.7887179487178
20
27.1882868752478
30
0
0
VERTEX
8
0
10
82.7076923076922
20
27.1875115462722
30
0
0
VERTEX
8
0
10
83.6266666666665
20
27.1904691464254
30
0
0
VERTEX
8
0
10
84.5456410256409
20
27.1801995141455
30
0
0
VERTEX
8
0
10
85.4646153846152
20
27.1679167498299
30
0
0
VERTEX
8
0
10
86.3835897435896
20
27.1580999223559
30
0
0
VERTEX
8
0
10
87.3025641025639
20
27.1537243954116
30
0
0
VERTEX
8
0
10
88.2215384615383
20
27.1496692712312
30
0
0
VERTEX
8
0
10
89.1405128205126
20
27.1490897204096
30
0
0
VERTEX
8
0
10
90.059487179487
20
27.1483139766556
30
0
0
VERTEX
8
0
10
90.9784615384614
20
27.1483052789363
30
0
0
VERTEX
8
0
10
91.8974358974357
20
27.1500022342103
30
0
0
VERTEX
8
0
10
92.8164102564101
20
27.1404005230185
30
0
0
VERTEX
8
0
10
93.7353846153844
20
27.13250119161
30
0
0
VERTEX
8
0
10
94.6543589743588
20
27.1276332709554
30
0
0
VERTEX
8
0
10
95.5733333333331
20
27.1243461425775
30
0
0
VERTEX
8
0
10
96.4923076923075
20
27.1263469509733
30
0
0
VERTEX
8
0
10
97.4112820512818
20
27.1315225347261
30
0
0
VERTEX
8
0
10
98.3302564102562
20
27.130546912249
30
0
0
VERTEX
8
0
10
99.2492307692306
20
27.1366596236016
30
0
0
VERTEX
8
0
10
100.168205128205
20
27.126842038652
30
0
0
VERTEX
8
0
10
101.087179487179
20
27.1151197148367
30
0
0
VERTEX
8
0
10
102.006153846154
20
27.1050312386052
30
0
0
VERTEX
8
0
10
102.925128205128
20
27.1043039684897
30
0
0
VERTEX
8
0
10
103.844102564102
20
27.1077149925933
30
0
0
VERTEX
8
0
10
104.763076923077
20
27.1155066197863
30
0
0
VERTEX
8
0
10
105.682051282051
20
27.1128133362086
30
0
0
VERTEX
8
0
10
106.601025641025
20
27.1085310530345
30
0
0
VERTEX
8
0
10
107.52
20
27.1059770611778
30
0
0
VERTEX
8
0
10
108.438974358974
20
27.1015050381357
30
0
0
VERTEX
8
0
10
109.357948717948
20
27.0968951944541
30
0
0
VERTEX
8
0
10
110.276923076923
20
27.0955082180265
30
0
0
VERTEX
8
0
10
111.195897435897
20
27.0988572174355
30
0
0
VERTEX
8
0
10
112.114871794872
20
27.1030291630602
30
0
0
VERTEX
8
0
10
113.033846153846
20
27.1069332387464
30
0
0
VERTEX
8
0
10
113.95282051282
20
27.0995967688702
30
0
0
VERTEX
8
0
10
114.871794871795
20
27.0914461565003
30
0
0
VERTEX
8
0
10
115.790769230769
20
27.0885693544248
30
0
0
VERTEX
8
0
10
116.709743589743
20
27.1005412446968
30
0
0
VERTEX
8
0
10
117.628717948718
20
27.1167544072713
30
0
0
VERTEX
8
0
10
118.547692307692
20
27.1139538018311
30
0
0
VERTEX
8
0
10
119.466666666666
20
27.1070350097514
30
0
0
VERTEX
8
0
10
120.385641025641
20
27.1016644880187
30
0
0
VERTEX
8
0
10
121.304615384615
20
27.1057281665984
30
0
0
VERTEX
8
0
10
122.223589743589
20
27.1160773077064
30
0
0
VERTEX
8
0
10
123.142564102564
20
27.1322739821537
30
0
0
VERTEX
8
0
10
124.061538461538
20
27.1291918708437
30
0
0
VERTEX
8
0
10
124.980512820513
20
27.1230190319618
30
0
0
VERTEX
8
0
10
125.899487179487
20
27.1193165404568
30
0
0
VERTEX
8
0
10
126.818461538461
20
27.1253315663645
30
0
0
VERTEX
8
0
10
127.737435897436
20
27.1336659413425
30
0
0
VERTEX
8
0
10
128.65641025641
20
27.1439415631862
30
0
0
VERTEX
8
0
10
129.575384615384
20
27.1404964485312
30
0
0
VERTEX
8
0
10
130.494358974359
20
27.1355054855921
30
0
0
VERTEX
8
0
10
131.413333333333
20
27.132037478826
30
0
0
VERTEX
8
0
10
132.332307692307
20
27.1328425631055
30
0
0
VERTEX
8
0
10
133.251282051282
20
27.1334777052242
30
0
0
VERTEX
8
0
10
134.170256410256
20
27.1391086858529
30
0
0
VERTEX
8
0
10
135.08923076923
20
27.1508970546659
30
0
0
VERTEX
8
0
10
136.008205128205
20
27.1642453272096
30
0
0
VERTEX
8
0
10
136.927179487179
20
27.1753798879435
30
0
0
VERTEX
8
0
10
137.846153846153
20
27.1722108828393
30
0
0
VERTEX
8
0
10
138.765128205128
20
27.1685216056944
30
0
0
VERTEX
8
0
10
139.684102564102
20
27.1736846987478
30
0
0
VERTEX
8
0
10
140.603076923077
20
27.1819948793314
30
0
0
VERTEX
8
0
10
141.522051282051
20
27.2020334324698
30
0
0
VERTEX
8
0
10
142.441025641025
20
27.2040660589203
30
0
0
VERTEX
8
0
10
143.36
20
27.2007786972037
30
0
0
VERTEX
8
0
10
144.278974358974
20
27.1973413939151
30
0
0
VERTEX
8
0
10
145.197948717948
20
27.1948213829748
30
0
0
VERTEX
8
0
10
146.116923076923
20
27.1928568298474
30
0
0
VERTEX
8
0
10
147.035897435897
20
27.1956371069095
30
0
0
VERTEX
8
0
10
147.954871794871
20
27.2060874914387
30
0
0
VERTEX
8
0
10
148.873846153846
20
27.2181678105771
30
0
0
VERTEX
8
0
10
149.79282051282
20
27.2311061296508
30
0
0
VERTEX
8
0
10
150.711794871795
20
27.2299426962904
30
0
0
VERTEX
8
0
10
151.630769230769
20
27.2260184344308
30
0
0
VERTEX
8
0
10
152.549743589743
20
27.2274067167099
30
0
0
VERTEX
8
0
10
153.468717948718
20
27.2431856127641
30
0
0
VERTEX
8
0
10
154.387692307692
20
27.2587561374861
30
0
0
VERTEX
8
0
10
155.306666666666
20
27.2732749534351
30
0
0
VERTEX
8
0
10
156.225641025641
20
27.2711708723553
30
0
0
VERTEX
8
0
10
157.144615384615
20
27.2675059380716
30
0
0
VERTEX
8
0
10
158.063589743589
20
27.2638690077149
30
0
0
VERTEX
8
0
10
158.982564102564
20
27.2602971295231
30
0
0
VERTEX
8
0
10
159.901538461538
20
27.2583456243551
30
0
0
VERTEX
8
0
10
160.820512820513
20
27.2650389538898
30
0
0
VERTEX
8
0
10
161.739487179487
20
27.268719354137
30
0
0
VERTEX
8
0
10
162.658461538461
20
27.2811683844438
30
0
0
VERTEX
8
0
10
163.577435897436
20
27.2811220275449
30
0
0
VERTEX
8
0
10
164.49641025641
20
27.2774447613688
30
0
0
VERTEX
8
0
10
165.415384615384
20
27.273579189099
30
0
0
VERTEX
8
0
10
166.334358974359
20
27.2696707506887
30
0
0
VERTEX
8
0
10
167.253333333333
20
27.26574908954
30
0
0
VERTEX
8
0
10
168.172307692308
20
27.2651084436952
30
0
0
VERTEX
8
0
10
169.091282051282
20
27.2723012820904
30
0
0
VERTEX
8
0
10
170.010256410256
20
27.2811355051326
30
0
0
VERTEX
8
0
10
170.929230769231
20
27.2970837608125
30
0
0
VERTEX
8
0
10
171.848205128205
20
27.3026273110604
30
0
0
SEQEND
8
0
0
POLYLINE
8
0
62
2
70
0
10
0
20
0
30
0
0
VERTEX
8
0
10
1.83794871794872
20
4.46071111986416
30
0
0
VERTEX
8
0
10
2.75692307692308
20
14.6718211386045
30
0
0
VERTEX
8
0
10
3.67589743589744
20
12.4718455528451
30
0
0
VERTEX
8
0
10
4.59487179487179
20
20.8589075504851
30
0
0
VERTEX
8
0
10
5.51384615384615
20
18.35136049997
30
0
0
VERTEX
8
0
10
6.43282051282051
20
20.9223491688373
30
0
0
VERTEX
8
0
10
7.35179487179487
20
23.1938731498188
30
0
0
VERTEX
8
0
10
8.27076923076923
20
24.3872963744762
30
0
0
VERTEX
8
0
10
9.18974358974359
20
27.0491383325549
30
0
0
VERTEX
8
0
10
10.1087179487179
20
27.6218378946178
30
0
0
VERTEX
8
0
10
11.0276923076923
20
30.2178336260258
30
0
0
VERTEX
8
0
10
11.9466666666667
20
30.5069135652568
30
0
0
VERTEX
8
0
10
12.865641025641
20
31.7999812126277
30
0
0
VERTEX
8
0
10
13.7846153846154
20
32.9953342523639
30
0
0
VERTEX
8
0
10
14.7035897435897
20
33.9124766312383
30
0
0
VERTEX
8
0
10
15.6225641025641
20
35.1105442848435
30
0
0
VERTEX
8
0
10
16.5415384615385
20
35.7164998346726
30
0
0
VERTEX
8
0
10
17.4605128205128
20
36.8886409723987
30
0
0
VERTEX
8
0
10
18.3794871794872
20
37.278091054791
30
0
0
VERTEX
8
0
10
19.2984615384615
20
37.967003378795
30
0
0
VERTEX
8
0
10
20.2174358974359
20
38.5961037955934
30
0
0
VERTEX
8
0
10
21.1364102564103
20
39.1091288734186
30
0
0
VERTEX
8
0
10
22.0553846153846
20
39.682620272372
30
0
0
VERTEX
8
0
10
22.974358974359
20
40.0184110296633
30
0
0
VERTEX
8
0
10
23.8933333333333
20
40.5547289123219
30
0
0
VERTEX
8
0
10
24.8123076923077
20
40.7520960765375
30
0
0
VERTEX
8
0
10
25.7312820512821
20
41.0554413122704
30
0
0
VERTEX
8
0
10
26.6502564102564
20
41.3181954567663
30
0
0
VERTEX
8
0
10
27.5692307692308
20
41.5217534413085
30
0
0
VERTEX
8
0
10
28.4882051282051
20
41.7281650535939
30
0
0
VERTEX
8
0
10
29.4071794871795
20
41.8232817822548
30
0
0
VERTEX
8
0
10
30.3261538461539
20
41.9949594832185
30
0
0
VERTEX
8
0
10
31.2451282051282
20
42.0016432532367
30
0
0
VERTEX
8
0
10
32.1641025641026
20
42.0475117920186
30
0
0
VERTEX
8
0
10
33.0830769230769
20
42.0661716740335
30
0
0
VERTEX
8
0
10
34.0020512820513
20
42.0522790037431
30
0
0
VERTEX
8
0
10
34.9210256410257
20
42.0271537481595
30
0
0
VERTEX
8
0
10
35.84
20
41.9463352340326
30
0
0
VERTEX
8
0
10
36.7589743589744
20
41.8952130676593
30
0
0
VERTEX
8
0
10
37.6779487179487
20
41.7593688836245
30
0
0
VERTEX
8
0
10
38.5969230769231
20
41.6382047599333
30
0
0
VERTEX
8
0
10
39.5158974358974
20
41.5000492910033
30
0
0
VERTEX
8
0
10
40.4348717948718
20
41.3443737695972
30
0
0
VERTEX
8
0
10
41.3538461538461
20
41.1771831607226
30
0
0
VERTEX
8
0
10
42.2728205128205
20
40.9822664269881
30
0
0
VERTEX
8
0
10
43.1917948717949
20
40.7994770054956
30
0
0
VERTEX
8
0
10
44.1107692307692
20
40.5730255680638
30
0
0
VERTEX
8
0
10
45.0297435897436
20
40.3530481944646
30
0
0
VERTEX
8
0
10
45.9487179487179
20
40.124047569245
30
0
0
VERTEX
8
0
10
46.8676923076923
20
39.8870863489069
30
0
0
VERTEX
8
0
10
47.7866666666666
20
39.642543168038
30
0
0
VERTEX
8
0
10
48.705641025641
20
39.3857314435586
30
0
0
VERTEX
8
0
10
49.6246153846154
20
39.1354314428848
30
0
0
VERTEX
8
0
10
50.5435897435897
20
38.8639496971536
30
0
0
VERTEX
8
0
10
51.4625641025641
20
38.5972529756741
30
0
0
VERTEX
8
0
10
52.3815384615384
20
38.3276340119472
30
0
0
VERTEX
8
0
10
53.3005128205128
20
38.0564906847445
30
0
0
VERTEX
8
0
10
54.2194871794871
20
37.7823479040043
30
0
0
VERTEX
8
0
10
55.1384615384615
20
37.5049952070024
30
0
0
VERTEX
8
0
10
56.0574358974358
20
37.2332788890653
30
0
0
VERTEX
8
0
10
56.9764102564102
20
36.9531740243621
30
0
0
VERTEX
8
0
10
57.8953846153846
20
36.6785095748078
30
0
0
VERTEX
8
0
10
58.8143589743589
20
36.4053606233446
30
0
0
VERTEX
8
0
10
59.7333333333333
20
36.1350120252564
30
0
0
VERTEX
8
0
10
60.6523076923076
20
35.8655362057803
30
0
0
VERTEX
8
0
10
61.571282051282
20
35.5982742374553
30
0
0
VERTEX
8
0
10
62.4902564102563
20
35.3373506407338
30
0
0
VERTEX
8
0
10
63.4092307692307
20
35.0754558703444
30
0
0
VERTEX
8
0
10
64.328205128205
20
34.820264868164
30
0
0
VERTEX
8
0
10
65.2471794871794
20
34.5697544545009
30
0
0
VERTEX
8
0
10
66.1661538461537
20
34.3251020493547
30
0
0
VERTEX
8
0
10
67.0851282051281
20
34.0845854954409
30
0
0
VERTEX
8
0
10
68.0041025641025
20
33.8503840253794
30
0
0
VERTEX
8
0
10
68.9230769230768
20
33.6252283436503
30
0
0
VERTEX
8
0
10
69.8420512820512
20
33.4048826442687
30
0
0
VERTEX
8
0
10
70.7610256410255
20
33.1917593593561
30
0
0
VERTEX
8
0
10
71.6799999999999
20
32.9833204932814
30
0
0
VERTEX
8
0
10
72.5989743589742
20
32.7795036787487
30
0
0
VERTEX
8
0
10
73.5179487179486
20
32.5778285725841
30
0
0
VERTEX
8
0
10
74.436923076923
20
32.379498878579
30
0
0
VERTEX
8
0
10
75.3558974358973
20
32.1846629255334
30
0
0
VERTEX
8
0
10
76.2748717948717
20
31.9907841441006
30
0
0
VERTEX
8
0
10
77.193846153846
20
31.8000495626562
30
0
0
VERTEX
8
0
10
78.1128205128204
20
31.6114886013516
30
0
0
VERTEX
8
0
10
79.0317948717947
20
31.4254940741224
30
0
0
VERTEX
8
0
10
79.9507692307691
20
31.240338907411
30
0
0
VERTEX
8
0
10
80.8697435897435
20
31.0573796147295
30
0
0
VERTEX
8
0
10
81.7887179487178
20
30.8764508647631
30
0
0
VERTEX
8
0
10
82.7076923076922
20
30.6963468038022
30
0
0
VERTEX
8
0
10
83.6266666666665
20
30.5183120257738
30
0
0
VERTEX
8
0
10
84.5456410256409
20
30.3418616424416
30
0
0
VERTEX
8
0
10
85.4646153846152
20
30.1673659680847
30
0
0
VERTEX
8
0
10
86.3835897435896
20
29.9935579166204
30
0
0
VERTEX
8
0
10
87.3025641025639
20
29.8216062797343
30
0
0
VERTEX
8
0
10
88.2215384615383
20
29.6511925495411
30
0
0
VERTEX
8
0
10
89.1405128205126
20
29.4818056177193
30
0
0
VERTEX
8
0
10
90.059487179487
20
29.3140953953227
30
0
0
VERTEX
8
0
10
90.9784615384614
20
29.1478292386003
30
0
0
VERTEX
8
0
10
91.8974358974357
20
28.9832965466679
30
0
0
VERTEX
8
0
10
92.8164102564101
20
28.8195989178378
30
0
0
VERTEX
8
0
10
93.7353846153844
20
28.6576376369589
30
0
0
VERTEX
8
0
10
94.6543589743588
20
28.4970750944497
30
0
0
VERTEX
8
0
10
95.5733333333331
20
28.3377473776301
30
0
0
VERTEX
8
0
10
96.4923076923075
20
28.1799589601748
30
0
0
VERTEX
8
0
10
97.4112820512818
20
28.0236063748165
30
0
0
VERTEX
8
0
10
98.3302564102562
20
27.86889043068
30
0
0
VERTEX
8
0
10
99.2492307692306
20
27.7152048008745
30
0
0
VERTEX
8
0
10
100.168205128205
20
27.5631821620249
30
0
0
VERTEX
8
0
10
101.087179487179
20
27.4125340683705
30
0
0
VERTEX
8
0
10
102.006153846154
20
27.2632465278792
30
0
0
VERTEX
8
0
10
102.925128205128
20
27.1154355606703
30
0
0
VERTEX
8
0
10
103.844102564102
20
26.9690570852982
30
0
0
VERTEX
8
0
10
104.763076923077
20
26.824231935767
30
0
0
VERTEX
8
0
10
105.682051282051
20
26.6805770582173
30
0
0
VERTEX
8
0
10
106.601025641025
20
26.5384899139327
30
0
0
VERTEX
8
0
10
107.52
20
26.3977572242009
30
0
0
VERTEX
8
0
10
108.438974358974
20
26.2584094536548
30
0
0
VERTEX
8
0
10
109.357948717948
20
26.1204697482468
30
0
0
VERTEX
8
0
10
110.276923076923
20
25.983917155759
30
0
0
VERTEX
8
0
10
111.195897435897
20
25.8488097983043
30
0
0
VERTEX
8
0
10
112.114871794872
20
25.714931356911
30
0
0
VERTEX
8
0
10
113.033846153846
20
25.5824946721392
30
0
0
VERTEX
8
0
10
113.95282051282
20
25.4513677274548
30
0
0
VERTEX
8
0
10
114.871794871795
20
25.3215802444648
30
0
0
VERTEX
8
0
10
115.790769230769
20
25.193124243756
30
0
0
VERTEX
8
0
10
116.709743589743
20
25.0659925182478
30
0
0
VERTEX
8
0
10
117.628717948718
20
24.9402092642826
30
0
0
VERTEX
8
0
10
118.547692307692
20
24.8156878353282
30
0
0
VERTEX
8
0
10
119.466666666666
20
24.6925257000827
30
0
0
VERTEX
8
0
10
120.385641025641
20
24.5706805253434
30
0
0
VERTEX
8
0
10
121.304615384615
20
24.4501805595878
30
0
0
VERTEX
8
0
10
122.223589743589
20
24.3310338422682
30
0
0
VERTEX
8
0
10
123.142564102564
20
24.213274421391
30
0
0
VERTEX
8
0
10
124.061538461538
20
24.0969636042638
30
0
0
VERTEX
8
0
10
124.980512820513
20
23.9821667450863
30
0
0
VERTEX
8
0
10
125.899487179487
20
23.8690135684306
30
0
0
VERTEX
8
0
10
126.818461538461
20
23.7576545570842
30
0
0
VERTEX
8
0
10
127.737435897436
20
23.6483243191387
30
0
0
VERTEX
8
0
10
128.65641025641
20
23.5413577992802
30
0
0
VERTEX
8
0
10
129.575384615384
20
23.4369938749142
30
0
0
VERTEX
8
0
10
130.494358974359
20
23.3350442683794
30
0
0
VERTEX
8
0
10
131.413333333333
20
23.2352134902389
30
0
0
VERTEX
8
0
10
132.332307692307
20
23.1372932687621
30
0
0
VERTEX
8
0
10
133.251282051282
20
23.0411355932134
30
0
0
VERTEX
8
0
10
134.170256410256
20
22.9466265736147
30
0
0
VERTEX
8
0
10
135.08923076923
20
22.8536736030085
30
0
0
VERTEX
8
0
10
136.008205128205
20
22.7621985795587
30
0
0
VERTEX
8
0
10
136.927179487179
20
22.6721339324976
30
0
0
VERTEX
8
0
10
137.846153846153
20
22.5834200956383
30
0
0
VERTEX
8
0
10
138.765128205128
20
22.4960038014291
30
0
0
VERTEX
8
0
10
139.684102564102
20
22.4098368746428
30
0
0
VERTEX
8
0
10
140.603076923077
20
22.3248753476477
30
0
0
VERTEX
8
0
10
141.522051282051
20
22.241078792005
30
0
0
VERTEX
8
0
10
142.441025641025
20
22.158409800926
30
0
0
VERTEX
8
0
10
143.36
20
22.076833580145
30
0
0
VERTEX
8
0
10
144.278974358974
20
21.9963176187073
30
0
0
VERTEX
8
0
10
145.197948717948
20
21.9168314199666
30
0
0
VERTEX
8
0
10
146.116923076923
20
21.8383462788134
30
0
0
VERTEX
8
0
10
147.035897435897
20
21.7608350949951
30
0
0
VERTEX
8
0
10
147.954871794871
20
21.6842722150321
30
0
0
VERTEX
8
0
10
148.873846153846
20
21.6086332970875
30
0
0
VERTEX
8
0
10
149.79282051282
20
21.5338951944821
30
0
0
VERTEX
8
0
10
150.711794871795
20
21.4600358545147
30
0
0
VERTEX
8
0
10
151.630769230769
20
21.3870342299687
30
0
0
VERTEX
8
0
10
152.549743589743
20
21.3148702012259
30
0
0
VERTEX
8
0
10
153.468717948718
20
21.2435245073219
30
0
0
VERTEX
8
0
10
154.387692307692
20
21.1729786845936
30
0
0
VERTEX
8
0
10
155.306666666666
20
21.1032150118183
30
0
0
VERTEX
8
0
10
156.225641025641
20
21.0342164609363
30
0
0
VERTEX
8
0
10
157.144615384615
20
20.9659666526063
30
0
0
VERTEX
8
0
10
158.063589743589
20
20.8984498159659
30
0
0
VERTEX
8
0
10
158.982564102564
20
20.8316507520676
30
0
0
VERTEX
8
0
10
159.901538461538
20
20.7655548005457
30
0
0
VERTEX
8
0
10
160.820512820513
20
20.700147809134
30
0
0
VERTEX
8
0
10
161.739487179487
20
20.6354161057082
30
0
0
VERTEX
8
0
10
162.658461538461
20
20.5713464725772
30
0
0
VERTEX
8
0
10
163.577435897436
20
20.5079261227784
30
0
0
VERTEX
8
0
10
164.49641025641
20
20.4451426781723
30
0
0
VERTEX
8
0
10
165.415384615384
20
20.382984149151
30
0
0
VERTEX
8
0
10
166.334358974359
20
20.3214389158042
30
0
0
VERTEX
8
0
10
167.253333333333
20
20.2604957104014
30
0
0
VERTEX
8
0
10
168.172307692308
20
20.2001436010689
30
0
0
VERTEX
8
0
10
169.091282051282
20
20.1403719765512
30
0
0
VERTEX
8
0
10
170.010256410256
20
20.081170531963
30
0
0
VERTEX
8
0
10
170.929230769231
20
20.0225292554431
30
0
0
VERTEX
8
0
10
171.848205128205
20
19.9644384156371
30
0
0
SEQEND
8
0
0
POLYLINE
8
0
62
3
70
0
10
0
20
0
30
0
0
VERTEX
8
0
10
1.83794871794872
20
5.59940279832319
30
0
0
VERTEX
8
0
10
2.75692307692308
20
15.4864628107205
30
0
0
VERTEX
8
0
10
3.67589743589744
20
14.0718071208523
30
0
0
VERTEX
8
0
10
4.59487179487179
20
22.3364522010655
30
0
0
VERTEX
8
0
10
5.51384615384615
20
20.6379032364187
30
0
0
VERTEX
8
0
10
6.43282051282051
20
23.5588933219865
30
0
0
VERTEX
8
0
10
7.35179487179487
20
26.192020086522
30
0
0
VERTEX
8
0
10
8.27076923076923
20
27.8673224396092
30
0
0
VERTEX
8
0
10
9.18974358974359
20
30.7877295245979
30
0
0
VERTEX
8
0
10
10.1087179487179
20
31.8843422197578
30
0
0
VERTEX
8
0
10
11.0276923076923
20
34.7014607208976
30
0
0
VERTEX
8
0
10
11.9466666666667
20
35.519765041256
30
0
0
VERTEX
8
0
10
12.865641025641
20
37.1795822573745
30
0
0
VERTEX
8
0
10
13.7846153846154
20
38.7366369695003
30
0
0
VERTEX
8
0
10
14.7035897435897
20
40.0497916334415
30
0
0
VERTEX
8
0
10
15.6225641025641
20
41.5601922538488
30
0
0
VERTEX
8
0
10
16.5415384615385
20
42.5742460187067
30
0
0
VERTEX
8
0
10
17.4605128205128
20
44.0264000749506
30
0
0
VERTEX
8
0
10
18.3794871794872
20
44.8251706291213
30
0
0
VERTEX
8
0
10
19.2984615384615
20
45.8484496210979
30
0
0
VERTEX
8
0
10
20.2174358974359
20
46.8055252896431
30
0
0
VERTEX
8
0
10
21.1364102564103
20
47.6600132247664
30
0
0
VERTEX
8
0
10
22.0553846153846
20
48.5297305222718
30
0
0
VERTEX
8
0
10
22.974358974359
20
49.2072821385923
30
0
0
VERTEX
8
0
10
23.8933333333333
20
50.0164047931751
30
0
0
VERTEX
8
0
10
24.8123076923077
20
50.5517962140228
30
0
0
VERTEX
8
0
10
25.7312820512821
20
51.1511952460424
30
0
0
VERTEX
8
0
10
26.6502564102564
20
51.7041223368482
30
0
0
VERTEX
8
0
10
27.5692307692308
20
52.2035862890186
30
0
0
VERTEX
8
0
10
28.4882051282051
20
52.677670872515
30
0
0
VERTEX
8
0
10
29.4071794871795
20
53.0647815150465
30
0
0
VERTEX
8
0
10
30.3261538461539
20
53.4869896374255
30
0
0
VERTEX
8
0
10
31.2451282051282
20
53.7801385277854
30
0
0
VERTEX
8
0
10
32.1641025641026
20
54.0866114269231
30
0
0
VERTEX
8
0
10
33.0830769230769
20
54.3608999946326
30
0
0
VERTEX
8
0
10
34.0020512820513
20
54.6049076859149
30
0
0
VERTEX
8
0
10
34.9210256410257
20
54.8189625008005
30
0
0
VERTEX
8
0
10
35.84
20
54.9909754732838
30
0
0
VERTEX
8
0
10
36.7589743589744
20
55.1663380529052
30
0
0
VERTEX
8
0
10
37.6779487179487
20
55.2776211451036
30
0
0
VERTEX
8
0
10
38.5969230769231
20
55.3868224463076
30
0
0
VERTEX
8
0
10
39.5158974358974
20
55.4749579854839
30
0
0
VERTEX
8
0
10
40.4348717948718
20
55.5461437711132
30
0
0
VERTEX
8
0
10
41.3538461538461
20
55.5930304443734
30
0
0
VERTEX
8
0
10
42.2728205128205
20
55.6199072837796
30
0
0
VERTEX
8
0
10
43.1917948717949
20
55.6416067928356
30
0
0
VERTEX
8
0
10
44.1107692307692
20
55.6316341585952
30
0
0
VERTEX
8
0
10
45.0297435897436
20
55.6168703748745
30
0
0
VERTEX
8
0
10
45.9487179487179
20
55.589718564426
30
0
0
VERTEX
8
0
10
46.8676923076923
20
55.5542424099008
30
0
0
VERTEX
8
0
10
47.7866666666666
20
55.5021998500738
30
0
0
VERTEX
8
0
10
48.705641025641
20
55.4420622854115
30
0
0
VERTEX
8
0
10
49.6246153846154
20
55.3766733377467
30
0
0
VERTEX
8
0
10
50.5435897435897
20
55.2969225608308
30
0
0
VERTEX
8
0
10
51.4625641025641
20
55.2140295819444
30
0
0
VERTEX
8
0
10
52.3815384615384
20
55.1252827711758
30
0
0
VERTEX
8
0
10
53.3005128205128
20
55.0340283033511
30
0
0
VERTEX
8
0
10
54.2194871794871
20
54.9331348497233
30
0
0
VERTEX
8
0
10
55.1384615384615
20
54.8309565917075
30
0
0
VERTEX
8
0
10
56.0574358974358
20
54.7259708325252
30
0
0
VERTEX
8
0
10
56.9764102564102
20
54.6161919835337
30
0
0
VERTEX
8
0
10
57.8953846153846
20
54.5058586203391
30
0
0
VERTEX
8
0
10
58.8143589743589
20
54.394263973726
30
0
0
VERTEX
8
0
10
59.7333333333333
20
54.2839762818854
30
0
0
VERTEX
8
0
10
60.6523076923076
20
54.1692411660976
30
0
0
VERTEX
8
0
10
61.571282051282
20
54.0571237521449
30
0
0
VERTEX
8
0
10
62.4902564102563
20
53.9447541923772
30
0
0
VERTEX
8
0
10
63.4092307692307
20
53.8328918662994
30
0
0
VERTEX
8
0
10
64.328205128205
20
53.7227058064977
30
0
0
VERTEX
8
0
10
65.2471794871794
20
53.6142885897058
30
0
0
VERTEX
8
0
10
66.1661538461537
20
53.5096491146832
30
0
0
VERTEX
8
0
10
67.0851282051281
20
53.4042656677517
30
0
0
VERTEX
8
0
10
68.0041025641025
20
53.304162863637
30
0
0
VERTEX
8
0
10
68.9230769230768
20
53.2067552960703
30
0
0
VERTEX
8
0
10
69.8420512820512
20
53.113547621006
30
0
0
VERTEX
8
0
10
70.7610256410255
20
53.022973029328
30
0
0
VERTEX
8
0
10
71.6799999999999
20
52.9344337068892
30
0
0
VERTEX
8
0
10
72.5989743589742
20
52.8487857439424
30
0
0
VERTEX
8
0
10
73.5179487179486
20
52.7617592852796
30
0
0
VERTEX
8
0
10
74.436923076923
20
52.6776603447069
30
0
0
VERTEX
8
0
10
75.3558974358973
20
52.5931830614176
30
0
0
VERTEX
8
0
10
76.2748717948717
20
52.510027225141
30
0
0
VERTEX
8
0
10
77.193846153846
20
52.4271656388481
30
0
0
VERTEX
8
0
10
78.1128205128204
20
52.3448091864122
30
0
0
VERTEX
8
0
10
79.0317948717947
20
52.2638964849773
30
0
0
VERTEX
8
0
10
79.9507692307691
20
52.1813374385548
30
0
0
VERTEX
8
0
10
80.8697435897435
20
52.1006555335775
30
0
0
VERTEX
8
0
10
81.7887179487178
20
52.0192083938757
30
0
0
VERTEX
8
0
10
82.7076923076922
20
51.9387312187752
30
0
0
VERTEX
8
0
10
83.6266666666665
20
51.8582052771828
30
0
0
VERTEX
8
0
10
84.5456410256409
20
51.7779545029227
30
0
0
VERTEX
8
0
10
85.4646153846152
20
51.6987178306325
30
0
0
VERTEX
8
0
10
86.3835897435896
20
51.6182662949243
30
0
0
VERTEX
8
0
10
87.3025641025639
20
51.5392623526484
30
0
0
VERTEX
8
0
10
88.2215384615383
20
51.4596855683484
30
0
0
VERTEX
8
0
10
89.1405128205126
20
51.3810152835719
30
0
0
VERTEX
8
0
10
90.059487179487
20
51.3023692232427
30
0
0
VERTEX
8
0
10
90.9784615384614
20
51.2240587695647
30
0
0
VERTEX
8
0
10
91.8974358974357
20
51.1466195400711
30
0
0
VERTEX
8
0
10
92.8164102564101
20
51.0685056592041
30
0
0
VERTEX
8
0
10
93.7353846153844
20
50.991613931715
30
0
0
VERTEX
8
0
10
94.6543589743588
20
50.9144870157977
30
0
0
VERTEX
8
0
10
95.5733333333331
20
50.8382583503457
30
0
0
VERTEX
8
0
10
96.4923076923075
20
50.762240821003
30
0
0
VERTEX
8
0
10
97.4112820512818
20
50.6866856417442
30
0
0
VERTEX
8
0
10
98.3302564102562
20
50.6119535626281
30
0
0
VERTEX
8
0
10
99.2492307692306
20
50.5370273750668
30
0
0
VERTEX
8
0
10
100.168205128205
20
50.4631734238219
30
0
0
VERTEX
8
0
10
101.087179487179
20
50.3894086117064
30
0
0
VERTEX
8
0
10
102.006153846154
20
50.3165219374153
30
0
0
VERTEX
8
0
10
102.925128205128
20
50.2440272131768
30
0
0
VERTEX
8
0
10
103.844102564102
20
50.1721024221207
30
0
0
VERTEX
8
0
10
104.763076923077
20
50.1009688650059
30
0
0
VERTEX
8
0
10
105.682051282051
20
50.0300054317597
30
0
0
VERTEX
8
0
10
106.601025641025
20
49.9599871810439
30
0
0
VERTEX
8
0
10
107.52
20
49.890308031868
30
0
0
VERTEX
8
0
10
108.438974358974
20
49.8214580818661
30
0
0
VERTEX
8
0
10
109.357948717948
20
49.7531307261812
30
0
0
VERTEX
8
0
10
110.276923076923
20
49.6854362033816
30
0
0
VERTEX
8
0
10
111.195897435897
20
49.6184927456708
30
0
0
VERTEX
8
0
10
112.114871794872
20
49.551966927496
30
0
0
VERTEX
8
0
10
113.033846153846
20
49.4862727593882
30
0
0
VERTEX
8
0
10
113.95282051282
20
49.4210903068016
30
0
0
VERTEX
8
0
10
114.871794871795
20
49.3566772616395
30
0
0
VERTEX
8
0
10
115.790769230769
20
49.2928761520563
30
0
0
VERTEX
8
0
10
116.709743589743
20
49.2297474525533
30
0
0
VERTEX
8
0
10
117.628717948718
20
49.167345048269
30
0
0
VERTEX
8
0
10
118.547692307692
20
49.105538957403
30
0
0
VERTEX
8
0
10
119.466666666666
20
49.0445062978656
30
0
0
VERTEX
8
0
10
120.385641025641
20
48.9841367294945
30
0
0
VERTEX
8
0
10
121.304615384615
20
48.9245352857186
30
0
0
VERTEX
8
0
10
122.223589743589
20
48.8656615992949
30
0
0
VERTEX
8
0
10
123.142564102564
20
48.8075609203563
30
0
0
VERTEX
8
0
10
124.061538461538
20
48.7502801121739
30
0
0
VERTEX
8
0
10
124.980512820513
20
48.6938445906572
30
0
0
VERTEX
8
0
10
125.899487179487
20
48.6383489836263
30
0
0
VERTEX
8
0
10
126.818461538461
20
48.5838656656285
30
0
0
VERTEX
8
0
10
127.737435897436
20
48.5305263979127
30
0
0
VERTEX
8
0
10
128.65641025641
20
48.4785004686948
30
0
0
VERTEX
8
0
10
129.575384615384
20
48.427907859443
30
0
0
VERTEX
8
0
10
130.494358974359
20
48.3786510461478
30
0
0
VERTEX
8
0
10
131.413333333333
20
48.3305776153235
30
0
0
VERTEX
8
0
10
132.332307692307
20
48.2835782285339
30
0
0
VERTEX
8
0
10
133.251282051282
20
48.237573697019
30
0
0
VERTEX
8
0
10
134.170256410256
20
48.1925020917132
30
0
0
VERTEX
8
0
10
135.08923076923
20
48.1483123681789
30
0
0
VERTEX
8
0
10
136.008205128205
20
48.1049609804037
30
0
0
VERTEX
8
0
10
136.927179487179
20
48.0624098834421
30
0
0
VERTEX
8
0
10
137.846153846153
20
48.0206252558937
30
0
0
VERTEX
8
0
10
138.765128205128
20
47.979576631988
30
0
0
VERTEX
8
0
10
139.684102564102
20
47.9392362840605
30
0
0
VERTEX
8
0
10
140.603076923077
20
47.8995787668211
30
0
0
VERTEX
8
0
10
141.522051282051
20
47.8605805708943
30
0
0
VERTEX
8
0
10
142.441025641025
20
47.8222198528745
30
0
0
VERTEX
8
0
10
143.36
20
47.7844762205919
30
0
0
VERTEX
8
0
10
144.278974358974
20
47.7473305592464
30
0
0
VERTEX
8
0
10
145.197948717948
20
47.7107648884622
30
0
0
VERTEX
8
0
10
146.116923076923
20
47.6747622431854
30
0
0
VERTEX
8
0
10
147.035897435897
20
47.6393065732748
30
0
0
VERTEX
8
0
10
147.954871794871
20
47.6043826579707
30
0
0
VERTEX
8
0
10
148.873846153846
20
47.5699760323556
30
0
0
VERTEX
8
0
10
149.79282051282
20
47.5360729236001
30
0
0
VERTEX
8
0
10
150.711794871795
20
47.502660195277
30
0
0
VERTEX
8
0
10
151.630769230769
20
47.4697252983913
30
0
0
VERTEX
8
0
10
152.549743589743
20
47.4372562280534
30
0
0
VERTEX
8
0
10
153.468717948718
20
47.4052414849252
30
0
0
VERTEX
8
0
10
154.387692307692
20
47.3736700407426
30
0
0
VERTEX
8
0
10
155.306666666666
20
47.3425313073342
30
0
0
VERTEX
8
0
10
156.225641025641
20
47.311815108664
30
0
0
VERTEX
8
0
10
157.144615384615
20
47.281511655499
30
0
0
VERTEX
8
0
10
158.063589743589
20
47.2516115223739
30
0
0
VERTEX
8
0
10
158.982564102564
20
47.2221056265707
30
0
0
VERTEX
8
0
10
159.901538461538
20
47.1929852088779
30
0
0
VERTEX
8
0
10
160.820512820513
20
47.1642418159232
30
0
0
VERTEX
8
0
10
161.739487179487
20
47.1358672839124
30
0
0
VERTEX
8
0
10
162.658461538461
20
47.107853723617
30
0
0
VERTEX
8
0
10
163.577435897436
20
47.0801935064866
30
0
0
VERTEX
8
0
10
164.49641025641
20
47.0528792517707
30
0
0
VERTEX
8
0
10
165.415384615384
20
47.0259038145513
30
0
0
VERTEX
8
0
10
166.334358974359
20
46.9992602746006
30
0
0
VERTEX
8
0
10
167.253333333333
20
46.9729419259862
30
0
0
VERTEX
8
0
10
168.172307692308
20
46.9469422673586
30
0
0
VERTEX
8
0
10
169.091282051282
20
46.9212549928573
30
0
0
VERTEX
8
0
10
170.010256410256
20
46.895873983589
30
0
0
VERTEX
8
0
10
170.929230769231
20
46.8707932996229
30
0
0
VERTEX
8
0
10
171.848205128205
20
46.8460071724651
30
0
0
SEQEND
8
0
0
POLYLINE
8
0
62
4
70
0
10
0
20
0
30
0
0
VERTEX
8
0
10
1.83794871794872
20
8.81564666994783
30
0
0
VERTEX
8
0
10
2.75692307692308
20
12.0564399983595
30
0
0
VERTEX
8
0
10
3.67589743589744
20
15.317528058589
30
0
0
VERTEX
8
0
10
4.59487179487179
20
18.7335644827054
30
0
0
VERTEX
8
0
10
5.51384615384615
20
21.5048062856275
30
0
0
VERTEX
8
0
10
6.43282051282051
20
24.9190169370999
30
0
0
VERTEX
8
0
10
7.35179487179487
20
27.1433756318899
30
0
0
VERTEX
8
0
10
8.27076923076923
20
29.3193757962516
30
0
0
VERTEX
8
0
10
9.18974358974359
20
31.4223935938278
30
0
0
VERTEX
8
0
10
10.1087179487179
20
33.3340007465622
30
0
0
VERTEX
8
0
10
11.0276923076923
20
35.2059231465902
30
0
0
VERTEX
8
0
10
11.9466666666667
20
36.8525474854558
30
0
0
VERTEX
8
0
10
12.865641025641
20
38.5233812719466
30
0
0
VERTEX
8
0
10
13.7846153846154
20
39.863744672407
30
0
0
VERTEX
8
0
10
14.7035897435897
20
41.2769098303611
30
0
0
VERTEX
8
0
10
15.6225641025641
20
42.4722917850425
30
0
0
VERTEX
8
0
10
16.5415384615385
20
43.6419697331117
30
0
0
VERTEX
8
0
10
17.4605128205128
20
44.7758151149656
30
0
0
VERTEX
8
0
10
18.3794871794872
20
45.7324880350316
30
0
0
VERTEX
8
0
10
19.2984615384615
20
46.6616352354848
30
0
0
VERTEX
8
0
10
20.2174358974359
20
47.575145026911
30
0
0
VERTEX
8
0
10
21.1364102564103
20
48.3321257838741
30
0
0
VERTEX
8
0
10
22.0553846153846
20
49.0712027444708
30
0
0
VERTEX
8
0
10
22.974358974359
20
49.8127264724921
30
0
0
VERTEX
8
0
10
23.8933333333333
20
50.331969002769
30
0
0
VERTEX
8
0
10
24.8123076923077
20
50.8901327259049
30
0
0
VERTEX
8
0
10
25.7312820512821
20
51.4271966730394
30
0
0
VERTEX
8
0
10
26.6502564102564
20
51.8471888135895
30
0
0
VERTEX
8
0
10
27.5692307692308
20
52.2896808255832
30
0
0
VERTEX
8
0
10
28.4882051282051
20
52.7051152466319
30
0
0
VERTEX
8
0
10
29.4071794871795
20
53.0058361710133
30
0
0
VERTEX
8
0
10
30.3261538461539
20
53.3204439114259
30
0
0
VERTEX
8
0
10
31.2451282051282
20
53.6121078161613
30
0
0
VERTEX
8
0
10
32.1641025641026
20
53.8720000265413
30
0
0
VERTEX
8
0
10
33.0830769230769
20
54.1211646942177
30
0
0
VERTEX
8
0
10
34.0020512820513
20
54.3153787962869
30
0
0
VERTEX
8
0
10
34.9210256410257
20
54.47167357142
30
0
0
VERTEX
8
0
10
35.84
20
54.6289959812109
30
0
0
VERTEX
8
0
10
36.7589743589744
20
54.7446350309958
30
0
0
VERTEX
8
0
10
37.6779487179487
20
54.857542337145
30
0
0
VERTEX
8
0
10
38.5969230769231
20
54.9572301831399
30
0
0
VERTEX
8
0
10
39.5158974358974
20
55.0260415223169
30
0
0
VERTEX
8
0
10
40.4348717948718
20
55.0911167605342
30
0
0
VERTEX
8
0
10
41.3538461538461
20
55.1403721714008
30
0
0
VERTEX
8
0
10
42.2728205128205
20
55.1587534759359
30
0
0
VERTEX
8
0
10
43.1917948717949
20
55.166559223274
30
0
0
VERTEX
8
0
10
44.1107692307692
20
55.1747092497504
30
0
0
VERTEX
8
0
10
45.0297435897436
20
55.1525663427902
30
0
0
VERTEX
8
0
10
45.9487179487179
20
55.1287420362301
30
0
0
VERTEX
8
0
10
46.8676923076923
20
55.1022803850079
30
0
0
VERTEX
8
0
10
47.7866666666666
20
55.0533681100922
30
0
0
VERTEX
8
0
10
48.705641025641
20
55.0081338102894
30
0
0
VERTEX
8
0
10
49.6246153846154
20
54.952840434692
30
0
0
VERTEX
8
0
10
50.5435897435897
20
54.8980010503561
30
0
0
VERTEX
8
0
10
51.4625641025641
20
54.8363904294674
30
0
0
VERTEX
8
0
10
52.3815384615384
20
54.7674076395474
30
0
0
VERTEX
8
0
10
53.3005128205128
20
54.6948738148505
30
0
0
VERTEX
8
0
10
54.2194871794871
20
54.6145443352948
30
0
0
VERTEX
8
0
10
55.1384615384615
20
54.531006199511
30
0
0
VERTEX
8
0
10
56.0574358974358
20
54.439390522901
30
0
0
VERTEX
8
0
10
56.9764102564102
20
54.3485423245913
30
0
0
VERTEX
8
0
10
57.8953846153846
20
54.2532755632216
30
0
0
VERTEX
8
0
10
58.8143589743589
20
54.1555818497307
30
0
0
VERTEX
8
0
10
59.7333333333333
20
54.0571989321487
30
0
0
VERTEX
8
0
10
60.6523076923076
20
53.9587413081824
30
0
0
VERTEX
8
0
10
61.571282051282
20
53.8612144042304
30
0
0
VERTEX
8
0
10
62.4902564102563
20
53.7591293595357
30
0
0
VERTEX
8
0
10
63.4092307692307
20
53.6665383306508
30
0
0
VERTEX
8
0
10
64.328205128205
20
53.5700340926467
30
0
0
VERTEX
8
0
10
65.2471794871794
20
53.4721484881623
30
0
0
VERTEX
8
0
10
66.1661538461537
20
53.3803483202207
30
0
0
VERTEX
8
0
10
67.0851282051281
20
53.283733901894
30
0
0
VERTEX
8
0
10
68.0041025641025
20
53.1883136778498
30
0
0
VERTEX
8
0
10
68.9230769230768
20
53.0898273376819
30
0
0
VERTEX
8
0
10
69.8420512820512
20
52.9925367598189
30
0
0
VERTEX
8
0
10
70.7610256410255
20
52.8921617845359
30
0
0
VERTEX
8
0
10
71.6799999999999
20
52.7898839123024
30
0
0
VERTEX
8
0
10
72.5989743589742
20
52.6877740713229
30
0
0
VERTEX
8
0
10
73.5179487179486
20
52.5816078081696
30
0
0
VERTEX
8
0
10
74.436923076923
20
52.4757050928111
30
0
0
VERTEX
8
0
10
75.3558974358973
20
52.3675028452046
30
0
0
VERTEX
8
0
10
76.2748717948717
20
52.2745689543278
30
0
0
VERTEX
8
0
10
77.193846153846
20
52.1841760294243
30
0
0
VERTEX
8
0
10
78.1128205128204
20
52.0930549191604
30
0
0
VERTEX
8
0
10
79.0317948717947
20
52.0101192572413
30
0
0
VERTEX
8
0
10
79.9507692307691
20
51.9259113325772
30
0
0
VERTEX
8
0
10
80.8697435897435
20
51.8423027256979
30
0
0
VERTEX
8
0
10
81.7887179487178
20
51.7521468435893
30
0
0
VERTEX
8
0
10
82.7076923076922
20
51.6627121416041
30
0
0
VERTEX
8
0
10
83.6266666666665
20
51.5721009777049
30
0
0
VERTEX
8
0
10
84.5456410256409
20
51.4911413804766
30
0
0
VERTEX
8
0
10
85.4646153846152
20
51.4086811702989
30
0
0
VERTEX
8
0
10
86.3835897435896
20
51.3246407727479
30
0
0
VERTEX
8
0
10
87.3025641025639
20
51.2326482085385
30
0
0
VERTEX
8
0
10
88.2215384615383
20
51.141177596259
30
0
0
VERTEX
8
0
10
89.1405128205126
20
51.0501518355822
30
0
0
VERTEX
8
0
10
90.059487179487
20
50.9704088244363
30
0
0
VERTEX
8
0
10
90.9784615384614
20
50.886682391624
30
0
0
VERTEX
8
0
10
91.8974358974357
20
50.8086363177919
30
0
0
VERTEX
8
0
10
92.8164102564101
20
50.7343126940174
30
0
0
VERTEX
8
0
10
93.7353846153844
20
50.660221213046
30
0
0
VERTEX
8
0
10
94.6543589743588
20
50.5850973564469
30
0
0
VERTEX
8
0
10
95.5733333333331
20
50.5101836978722
30
0
0
VERTEX
8
0
10
96.4923076923075
20
50.4346271072473
30
0
0
VERTEX
8
0
10
97.4112820512818
20
50.3603907691778
30
0
0
VERTEX
8
0
10
98.3302564102562
20
50.2865037027718
30
0
0
VERTEX
8
0
10
99.2492307692306
20
50.2118607815786
30
0
0
VERTEX
8
0
10
100.168205128205
20
50.1336345813684
30
0
0
VERTEX
8
0
10
101.087179487179
20
50.0544790355995
30
0
0
VERTEX
8
0
10
102.006153846154
20
49.9755279248043
30
0
0
VERTEX
8
0
10
102.925128205128
20
49.9067947946415
30
0
0
VERTEX
8
0
10
103.844102564102
20
49.8373596952496
30
0
0
VERTEX
8
0
10
104.763076923077
20
49.7678785557754
30
0
0
VERTEX
8
0
10
105.682051282051
20
49.7096401238383
30
0
0
VERTEX
8
0
10
106.601025641025
20
49.6496918703509
30
0
0
VERTEX
8
0
10
107.52
20
49.5892994990269
30
0
0
VERTEX
8
0
10
108.438974358974
20
49.5392124020609
30
0
0
VERTEX
8
0
10
109.357948717948
20
49.4864086828536
30
0
0
VERTEX
8
0
10
110.276923076923
20
49.4334102040658
30
0
0
VERTEX
8
0
10
111.195897435897
20
49.3663698012833
30
0
0
VERTEX
8
0
10
112.114871794872
20
49.3032905844861
30
0
0
VERTEX
8
0
10
113.033846153846
20
49.2456670382838
30
0
0
VERTEX
8
0
10
113.95282051282
20
49.1921073321884
30
0
0
VERTEX
8
0
10
114.871794871795
20
49.138555016389
30
0
0
VERTEX
8
0
10
115.790769230769
20
49.0822437280089
30
0
0
VERTEX
8
0
10
116.709743589743
20
49.0246747007116
30
0
0
VERTEX
8
0
10
117.628717948718
20
48.9671145739077
30
0
0
VERTEX
8
0
10
118.547692307692
20
48.9156319726858
30
0
0
VERTEX
8
0
10
119.466666666666
20
48.8656051165466
30
0
0
VERTEX
8
0
10
120.385641025641
20
48.8155102714183
30
0
0
VERTEX
8
0
10
121.304615384615
20
48.7672070627755
30
0
0
VERTEX
8
0
10
122.223589743589
20
48.719002759982
30
0
0
VERTEX
8
0
10
123.142564102564
20
48.6708154241509
30
0
0
VERTEX
8
0
10
124.061538461538
20
48.622669017282
30
0
0
VERTEX
8
0
10
124.980512820513
20
48.5745643783507
30
0
0
VERTEX
8
0
10
125.899487179487
20
48.5265404645135
30
0
0
VERTEX
8
0
10
126.818461538461
20
48.4829985517371
30
0
0
VERTEX
8
0
10
127.737435897436
20
48.4388397743583
30
0
0
VERTEX
8
0
10
128.65641025641
20
48.3947898410088
30
0
0
VERTEX
8
0
10
129.575384615384
20
48.3460458867519
30
0
0
VERTEX
8
0
10
130.494358974359
20
48.2986240660546
30
0
0
VERTEX
8
0
10
131.413333333333
20
48.2513574402245
30
0
0
VERTEX
8
0
10
132.332307692307
20
48.2068620152441
30
0
0
VERTEX
8
0
10
133.251282051282
20
48.1617019959747
30
0
0
VERTEX
8
0
10
134.170256410256
20
48.119776003951
30
0
0
VERTEX
8
0
10
135.08923076923
20
48.0802738990759
30
0
0
VERTEX
8
0
10
136.008205128205
20
48.0408844880573
30
0
0
VERTEX
8
0
10
136.927179487179
20
48.0003605927314
30
0
0
VERTEX
8
0
10
137.846153846153
20
47.959423723048
30
0
0
VERTEX
8
0
10
138.765128205128
20
47.9186109584219
30
0
0
VERTEX
8
0
10
139.684102564102
20
47.8779226162272
30
0
0
VERTEX
8
0
10
140.603076923077
20
47.8373590139489
30
0
0
VERTEX
8
0
10
141.522051282051
20
47.7969204691741
30
0
0
VERTEX
8
0
10
142.441025641025
20
47.7566072995853
30
0
0
VERTEX
8
0
10
143.36
20
47.7164198229519
30
0
0
VERTEX
8
0
10
144.278974358974
20
47.6763583571218
30
0
0
VERTEX
8
0
10
145.197948717948
20
47.6439205300082
30
0
0
VERTEX
8
0
10
146.116923076923
20
47.6110064615872
30
0
0
VERTEX
8
0
10
147.035897435897
20
47.5781789578539
30
0
0
VERTEX
8
0
10
147.954871794871
20
47.5412814799984
30
0
0
VERTEX
8
0
10
148.873846153846
20
47.505207692535
30
0
0
VERTEX
8
0
10
149.79282051282
20
47.4692403611771
30
0
0
VERTEX
8
0
10
150.711794871795
20
47.4402103365926
30
0
0
VERTEX
8
0
10
151.630769230769
20
47.4095402638208
30
0
0
VERTEX
8
0
10
152.549743589743
20
47.3789488781277
30
0
0
VERTEX
8
0
10
153.468717948718
20
47.3434872669389
30
0
0
VERTEX
8
0
10
154.387692307692
20
47.3096913645397
30
0
0
VERTEX
8
0
10
155.306666666666
20
47.2779753673439
30
0
0
VERTEX
8
0
10
156.225641025641
20
47.247725600348
30
0
0
VERTEX
8
0
10
157.144615384615
20
47.2175553316673
30
0
0
VERTEX
8
0
10
158.063589743589
20
47.1898558165626
30
0
0
VERTEX
8
0
10
158.982564102564
20
47.1631699431893
30
0
0
VERTEX
8
0
10
159.901538461538
20
47.1365472217476
30
0
0
VERTEX
8
0
10
160.820512820513
20
47.1085900364163
30
0
0
VERTEX
8
0
10
161.739487179487
20
47.0804435913151
30
0
0
VERTEX
8
0
10
162.658461538461
20
47.0523688152951
30
0
0
VERTEX
8
0
10
163.577435897436
20
47.0243658367208
30
0
0
VERTEX
8
0
10
164.49641025641
20
46.9964347839348
30
0
0
VERTEX
8
0
10
165.415384615384
20
46.9685757852543
30
0
0
VERTEX
8
0
10
166.334358974359
20
46.9461632293571
30
0
0
VERTEX
8
0
10
167.253333333333
20
46.9233227226574
30
0
0
VERTEX
8
0
10
168.172307692308
20
46.9005313118809
30
0
0
VERTEX
8
0
10
169.091282051282
20
46.8797757126043
30
0
0
VERTEX
8
0
10
170.010256410256
20
46.858698002464
30
0
0
VERTEX
8
0
10
170.929230769231
20
46.8376628004228
30
0
0
VERTEX
8
0
10
171.848205128205
20
46.7835188849229
30
0
0
SEQEND
8
0
0
POLYLINE
8
0
62
2
70
0
10
0
20
0
30
0
0
VERTEX
8
0
10
1.83794871794872
20
2.13808281120209
30
0
0
VERTEX
8
0
10
2.75692307692308
20
5.58501704287819
30
0
0
VERTEX
8
0
10
3.67589743589744
20
3.87897980273014
30
0
0
VERTEX
8
0
10
4.59487179487179
20
3.53930635584253
30
0
0
VERTEX
8
0
10
5.51384615384615
20
5.43782697830611
30
0
0
VERTEX
8
0
10
6.43282051282051
20
7.73791124616248
30
0
0
VERTEX
8
0
10
7.35179487179487
20
6.89796210105334
30
0
0
VERTEX
8
0
10
8.27076923076923
20
7.1678735753555
30
0
0
VERTEX
8
0
10
9.18974358974359
20
8.25993546745359
30
0
0
VERTEX
8
0
10
10.1087179487179
20
9.65728858989698
30
0
0
VERTEX
8
0
10
11.0276923076923
20
9.54921155524799
30
0
0
VERTEX
8
0
10
11.9466666666667
20
9.99472498615184
30
0
0
VERTEX
8
0
10
12.865641025641
20
10.7718924281264
30
0
0
VERTEX
8
0
10
13.7846153846154
20
11.7668930273766
30
0
0
VERTEX
8
0
10
14.7035897435897
20
11.936226118167
30
0
0
VERTEX
8
0
10
15.6225641025641
20
12.4108655087193
30
0
0
VERTEX
8
0
10
16.5415384615385
20
13.0466653290008
30
0
0
VERTEX
8
0
10
17.4605128205128
20
13.8315503132102
30
0
0
VERTEX
8
0
10
18.3794871794872
20
14.107596447003
30
0
0
VERTEX
8
0
10
19.2984615384615
20
14.5715852565373
30
0
0
VERTEX
8
0
10
20.2174358974359
20
15.1218168414846
30
0
0
VERTEX
8
0
10
21.1364102564103
20
15.77643869869
30
0
0
VERTEX
8
0
10
22.0553846153846
20
16.0919635682397
30
0
0
VERTEX
8
0
10
22.974358974359
20
16.5320394472183
30
0
0
VERTEX
8
0
10
23.8933333333333
20
17.0197455066173
30
0
0
VERTEX
8
0
10
24.8123076923077
20
17.5825916264283
30
0
0
VERTEX
8
0
10
25.7312820512821
20
17.9066562115817
30
0
0
VERTEX
8
0
10
26.6502564102564
20
18.317321043284
30
0
0
VERTEX
8
0
10
27.5692307692308
20
18.753472319341
30
0
0
VERTEX
8
0
10
28.4882051282051
20
19.2447324756063
30
0
0
VERTEX
8
0
10
29.4071794871795
20
19.5605782608097
30
0
0
VERTEX
8
0
10
30.3261538461539
20
19.9382782227891
30
0
0
VERTEX
8
0
10
31.2451282051282
20
20.3274736826261
30
0
0
VERTEX
8
0
10
32.1641025641026
20
20.7570371214419
30
0
0
VERTEX
8
0
10
33.0830769230769
20
21.0526101931112
30
0
0
VERTEX
8
0
10
34.0020512820513
20
21.3920082292513
30
0
0
VERTEX
8
0
10
34.9210256410257
20
21.7321660432098
30
0
0
VERTEX
8
0
10
35.84
20
22.0993882707278
30
0
0
VERTEX
8
0
10
36.7589743589744
20
22.3571111325278
30
0
0
VERTEX
8
0
10
37.6779487179487
20
22.6384403498816
30
0
0
VERTEX
8
0
10
38.5969230769231
20
22.8967674476566
30
0
0
VERTEX
8
0
10
39.5158974358974
20
23.1316674221407
30
0
0
VERTEX
8
0
10
40.4348717948718
20
23.3331149638007
30
0
0
VERTEX
8
0
10
41.3538461538461
20
23.607474298681
30
0
0
VERTEX
8
0
10
42.2728205128205
20
23.9030842688825
30
0
0
VERTEX
8
0
10
43.1917948717949
20
24.2371770224086
30
0
0
VERTEX
8
0
10
44.1107692307692
20
24.5187589283075
30
0
0
VERTEX
8
0
10
45.0297435897436
20
24.8335951908824
30
0
0
VERTEX
8
0
10
45.9487179487179
20
25.1512498001456
30
0
0
VERTEX
8
0
10
46.8676923076923
20
25.4931020972509
30
0
0
VERTEX
8
0
10
47.7866666666666
20
25.7873173795482
30
0
0
VERTEX
8
0
10
48.705641025641
20
26.104719198789
30
0
0
VERTEX
8
0
10
49.6246153846154
20
26.41900022682
30
0
0
VERTEX
8
0
10
50.5435897435897
20
26.750465123666
30
0
0
VERTEX
8
0
10
51.4625641025641
20
27.0409226031888
30
0
0
VERTEX
8
0
10
52.3815384615384
20
27.3482324680645
30
0
0
VERTEX
8
0
10
53.3005128205128
20
27.6491583340474
30
0
0
VERTEX
8
0
10
54.2194871794871
20
27.9624721211194
30
0
0
VERTEX
8
0
10
55.1384615384615
20
28.2407375603423
30
0
0
VERTEX
8
0
10
56.0574358974358
20
28.5312291588038
30
0
0
VERTEX
8
0
10
56.9764102564102
20
28.8133161046454
30
0
0
VERTEX
8
0
10
57.8953846153846
20
29.1041826063048
30
0
0
VERTEX
8
0
10
58.8143589743589
20
29.3650271474564
30
0
0
VERTEX
8
0
10
59.7333333333333
20
29.6345286821684
30
0
0
VERTEX
8
0
10
60.6523076923076
20
29.8943380515421
30
0
0
VERTEX
8
0
10
61.571282051282
20
30.1600955810612
30
0
0
VERTEX
8
0
10
62.4902564102563
20
30.3999962401258
30
0
0
VERTEX
8
0
10
63.4092307692307
20
30.6457232233
30
0
0
VERTEX
8
0
10
64.328205128205
20
30.8809523619314
30
0
0
VERTEX
8
0
10
65.2471794871794
20
31.1198570646545
30
0
0
VERTEX
8
0
10
66.1661538461537
20
31.3363396402305
30
0
0
VERTEX
8
0
10
67.0851282051281
20
31.5563670527217
30
0
0
VERTEX
8
0
10
68.0041025641025
20
31.7654270461279
30
0
0
VERTEX
8
0
10
68.9230769230768
20
31.9763143345366
30
0
0
VERTEX
8
0
10
69.8420512820512
20
32.1676123363015
30
0
0
VERTEX
8
0
10
70.7610256410255
20
32.3605984245213
30
0
0
VERTEX
8
0
10
71.6799999999999
20
32.5423911673474
30
0
0
VERTEX
8
0
10
72.5989743589742
20
32.7244971213427
30
0
0
VERTEX
8
0
10
73.5179487179486
20
32.8893561437569
30
0
0
VERTEX
8
0
10
74.436923076923
20
33.0543845565681
30
0
0
VERTEX
8
0
10
75.3558974358973
20
33.2081754055267
30
0
0
VERTEX
8
0
10
76.2748717948717
20
33.3610359839827
30
0
0
VERTEX
8
0
10
77.193846153846
20
33.4985943661542
30
0
0
VERTEX
8
0
10
78.1128205128204
20
33.6350789035592
30
0
0
VERTEX
8
0
10
79.0317948717947
20
33.7604204095767
30
0
0
VERTEX
8
0
10
79.9507692307691
20
33.8838124394741
30
0
0
VERTEX
8
0
10
80.8697435897435
20
33.9935257879888
30
0
0
VERTEX
8
0
10
81.7887179487178
20
34.1011512462528
30
0
0
VERTEX
8
0
10
82.7076923076922
20
34.197836507594
30
0
0
VERTEX
8
0
10
83.6266666666665
20
34.2917429024203
30
0
0
VERTEX
8
0
10
84.5456410256409
20
34.3733356569469
30
0
0
VERTEX
8
0
10
85.4646153846152
20
34.4520209340311
30
0
0
VERTEX
8
0
10
86.3835897435896
20
34.5200552969737
30
0
0
VERTEX
8
0
10
87.3025641025639
20
34.584645252782
30
0
0
VERTEX
8
0
10
88.2215384615383
20
34.6380798614553
30
0
0
VERTEX
8
0
10
89.1405128205126
20
34.6879555390762
30
0
0
VERTEX
8
0
10
90.059487179487
20
34.7275402576278
30
0
0
VERTEX
8
0
10
90.9784615384614
20
34.7631591545258
30
0
0
VERTEX
8
0
10
91.8974358974357
20
34.7886171337097
30
0
0
VERTEX
8
0
10
92.8164102564101
20
34.8100127506218
30
0
0
VERTEX
8
0
10
93.7353846153844
20
34.8215365800985
30
0
0
VERTEX
8
0
10
94.6543589743588
20
34.828702159543
30
0
0
VERTEX
8
0
10
95.5733333333331
20
34.8265730551601
30
0
0
VERTEX
8
0
10
96.4923076923075
20
34.8200105539796
30
0
0
VERTEX
8
0
10
97.4112820512818
20
34.8040460646082
30
0
0
VERTEX
8
0
10
98.3302564102562
20
34.7834478345782
30
0
0
VERTEX
8
0
10
99.2492307692306
20
34.7543223072273
30
0
0
VERTEX
8
0
10
100.168205128205
20
34.7205118255924
30
0
0
VERTEX
8
0
10
101.087179487179
20
34.6778123293717
30
0
0
VERTEX
8
0
10
102.006153846154
20
34.6303095780748
30
0
0
VERTEX
8
0
10
102.925128205128
20
34.5749706177025
30
0
0
VERTEX
8
0
10
103.844102564102
20
34.5148014752087
30
0
0
VERTEX
8
0
10
104.763076923077
20
34.44628969003
30
0
0
VERTEX
8
0
10
105.682051282051
20
34.3728967569518
30
0
0
VERTEX
8
0
10
106.601025641025
20
34.2922937078344
30
0
0
VERTEX
8
0
10
107.52
20
34.2068001946834
30
0
0
VERTEX
8
0
10
108.438974358974
20
34.1135208049879
30
0
0
VERTEX
8
0
10
109.357948717948
20
34.0153407318738
30
0
0
VERTEX
8
0
10
110.276923076923
20
33.9104902050685
30
0
0
VERTEX
8
0
10
111.195897435897
20
33.8007102332029
30
0
0
VERTEX
8
0
10
112.114871794872
20
33.6836224745133
30
0
0
VERTEX
8
0
10
113.033846153846
20
33.5615347622432
30
0
0
VERTEX
8
0
10
113.95282051282
20
33.4330290594593
30
0
0
VERTEX
8
0
10
114.871794871795
20
33.2991981129923
30
0
0
VERTEX
8
0
10
115.790769230769
20
33.1577501443721
30
0
0
VERTEX
8
0
10
116.709743589743
20
33.0096735453939
30
0
0
VERTEX
8
0
10
117.628717948718
20
32.8534496118282
30
0
0
VERTEX
8
0
10
118.547692307692
20
32.6956571314441
30
0
0
VERTEX
8
0
10
119.466666666666
20
32.5387334105699
30
0
0
VERTEX
8
0
10
120.385641025641
20
32.3825740626151
30
0
0
VERTEX
8
0
10
121.304615384615
20
32.2252453031041
30
0
0
VERTEX
8
0
10
122.223589743589
20
32.0667369102022
30
0
0
VERTEX
8
0
10
123.142564102564
20
31.9055222016037
30
0
0
VERTEX
8
0
10
124.061538461538
20
31.7424995278994
30
0
0
VERTEX
8
0
10
124.980512820513
20
31.5770198862326
30
0
0
VERTEX
8
0
10
125.899487179487
20
31.409431610584
30
0
0
VERTEX
8
0
10
126.818461538461
20
31.2388418788508
30
0
0
VERTEX
8
0
10
127.737435897436
20
31.066081586873
30
0
0
VERTEX
8
0
10
128.65641025641
20
30.8908290980994
30
0
0
VERTEX
8
0
10
129.575384615384
20
30.7134046834229
30
0
0
VERTEX
8
0
10
130.494358974359
20
30.533282944175
30
0
0
VERTEX
8
0
10
131.413333333333
20
30.3511400357566
30
0
0
VERTEX
8
0
10
132.332307692307
20
30.1668686702886
30
0
0
VERTEX
8
0
10
133.251282051282
20
29.9807605372604
30
0
0
VERTEX
8
0
10
134.170256410256
20
29.7925933694214
30
0
0
VERTEX
8
0
10
135.08923076923
20
29.6029231403805
30
0
0
VERTEX
8
0
10
136.008205128205
20
29.4118287743519
30
0
0
VERTEX
8
0
10
136.927179487179
20
29.2196247775244
30
0
0
VERTEX
8
0
10
137.846153846153
20
29.0263728038278
30
0
0
VERTEX
8
0
10
138.765128205128
20
28.8325889654433
30
0
0
VERTEX
8
0
10
139.684102564102
20
28.6385600362955
30
0
0
VERTEX
8
0
10
140.603076923077
20
28.4447194995214
30
0
0
VERTEX
8
0
10
141.522051282051
20
28.2514519770053
30
0
0
VERTEX
8
0
10
142.441025641025
20
28.0593976938271
30
0
0
VERTEX
8
0
10
143.36
20
27.8691914523884
30
0
0
VERTEX
8
0
10
144.278974358974
20
27.6816490964452
30
0
0
VERTEX
8
0
10
145.197948717948
20
27.4977954346696
30
0
0
VERTEX
8
0
10
146.116923076923
20
27.3190546394536
30
0
0
VERTEX
8
0
10
147.035897435897
20
27.1472664533036
30
0
0
VERTEX
8
0
10
147.954871794871
20
26.9837103952344
30
0
0
VERTEX
8
0
10
148.873846153846
20
26.8277059242129
30
0
0
VERTEX
8
0
10
149.79282051282
20
26.6779441506284
30
0
0
VERTEX
8
0
10
150.711794871795
20
26.5334653591254
30
0
0
VERTEX
8
0
10
151.630769230769
20
26.393605145897
30
0
0
VERTEX
8
0
10
152.549743589743
20
26.2578732873712
30
0
0
VERTEX
8
0
10
153.468717948718
20
26.1258877595737
30
0
0
VERTEX
8
0
10
154.387692307692
20
25.9973391619808
30
0
0
VERTEX
8
0
10
155.306666666666
20
25.8719698709165
30
0
0
VERTEX
8
0
10
156.225641025641
20
25.7495608660397
30
0
0
VERTEX
8
0
10
157.144615384615
20
25.6299229032887
30
0
0
VERTEX
8
0
10
158.063589743589
20
25.5128903261334
30
0
0
VERTEX
8
0
10
158.982564102564
20
25.3983165682595
30
0
0
VERTEX
8
0
10
159.901538461538
20
25.2860707890675
30
0
0
VERTEX
8
0
10
160.820512820513
20
25.1760352953931
30
0
0
VERTEX
8
0
10
161.739487179487
20
25.0681035253207
30
0
0
VERTEX
8
0
10
162.658461538461
20
24.9621784440511
30
0
0
VERTEX
8
0
10
163.577435897436
20
24.858171248399
30
0
0
VERTEX
8
0
10
164.49641025641
20
24.756000306795
30
0
0
VERTEX
8
0
10
165.415384615384
20
24.6555902819549
30
0
0
VERTEX
8
0
10
166.334358974359
20
24.5568713972854
30
0
0
VERTEX
8
0
10
167.253333333333
20
24.4597788178553
30
0
0
VERTEX
8
0
10
168.172307692308
20
24.3642521237336
30
0
0
VERTEX
8
0
10
169.091282051282
20
24.2702348585766
30
0
0
VERTEX
8
0
10
170.010256410256
20
24.1776741400902
30
0
0
VERTEX
8
0
10
170.929230769231
20
24.0865203218132
30
0
0
VERTEX
8
0
10
171.848205128205
20
23.9967266977965
30
0
0
SEQEND
8
0
0
POLYLINE
8
0
62
3
70
0
10
0
20
0
30
0
0
VERTEX
8
0
10
1.83794871794872
20
2.56475806831283
30
0
0
VERTEX
8
0
10
2.75692307692308
20
5.97152934355501
30
0
0
VERTEX
8
0
10
3.67589743589744
20
4.7894403866232
30
0
0
VERTEX
8
0
10
4.59487179487179
20
4.98019204792996
30
0
0
VERTEX
8
0
10
5.51384615384615
20
6.85772330139355
30
0
0
VERTEX
8
0
10
6.43282051282051
20
9.13192467510954
30
0
0
VERTEX
8
0
10
7.35179487179487
20
8.83701572307395
30
0
0
VERTEX
8
0
10
8.27076923076923
20
9.47396247083385
30
0
0
VERTEX
8
0
10
9.18974358974359
20
10.7277881011384
30
0
0
VERTEX
8
0
10
10.1087179487179
20
12.2223476391759
30
0
0
VERTEX
8
0
10
11.0276923076923
20
12.5500231200749
30
0
0
VERTEX
8
0
10
11.9466666666667
20
13.3109515367544
30
0
0
VERTEX
8
0
10
12.865641025641
20
14.3084472939542
30
0
0
VERTEX
8
0
10
13.7846153846154
20
15.4681091787376
30
0
0
VERTEX
8
0
10
14.7035897435897
20
16.0093851613526
30
0
0
VERTEX
8
0
10
15.6225641025641
20
16.7799586174469
30
0
0
VERTEX
8
0
10
16.5415384615385
20
17.6562290793199
30
0
0
VERTEX
8
0
10
17.4605128205128
20
18.6396449004173
30
0
0
VERTEX
8
0
10
18.3794871794872
20
19.2522964364865
30
0
0
VERTEX
8
0
10
19.2984615384615
20
20.0014433386811
30
0
0
VERTEX
8
0
10
20.2174358974359
20
20.7997010123934
30
0
0
VERTEX
8
0
10
21.1364102564103
20
21.6705342352444
30
0
0
VERTEX
8
0
10
22.0553846153846
20
22.3004295423436
30
0
0
VERTEX
8
0
10
22.974358974359
20
23.0178526571818
30
0
0
VERTEX
8
0
10
23.8933333333333
20
23.7557828013119
30
0
0
VERTEX
8
0
10
24.8123076923077
20
24.5441097054053
30
0
0
VERTEX
8
0
10
25.7312820512821
20
25.1669072189601
30
0
0
VERTEX
8
0
10
26.6502564102564
20
25.8484281454176
30
0
0
VERTEX
8
0
10
27.5692307692308
20
26.5344371657694
30
0
0
VERTEX
8
0
10
28.4882051282051
20
27.2558907222957
30
0
0
VERTEX
8
0
10
29.4071794871795
20
27.8587404235792
30
0
0
VERTEX
8
0
10
30.3261538461539
20
28.5018233937015
30
0
0
VERTEX
8
0
10
31.2451282051282
20
29.1395775440863
30
0
0
VERTEX
8
0
10
32.1641025641026
20
29.8019466145857
30
0
0
VERTEX
8
0
10
33.0830769230769
20
30.3760091663569
30
0
0
VERTEX
8
0
10
34.0020512820513
20
30.9770803840483
30
0
0
VERTEX
8
0
10
34.9210256410257
20
31.5655721466237
30
0
0
VERTEX
8
0
10
35.84
20
32.1691457791242
30
0
0
VERTEX
8
0
10
36.7589743589744
20
32.7023282646223
30
0
0
VERTEX
8
0
10
37.6779487179487
20
33.2482618847319
30
0
0
VERTEX
8
0
10
38.5969230769231
20
33.765850975121
30
0
0
VERTEX
8
0
10
39.5158974358974
20
34.2644270893789
30
0
0
VERTEX
8
0
10
40.4348717948718
20
34.7470523067072
30
0
0
VERTEX
8
0
10
41.3538461538461
20
35.2774627556697
30
0
0
VERTEX
8
0
10
42.2728205128205
20
35.8113987938221
30
0
0
VERTEX
8
0
10
43.1917948717949
20
36.3691945118931
30
0
0
VERTEX
8
0
10
44.1107692307692
20
36.898117712544
30
0
0
VERTEX
8
0
10
45.0297435897436
20
37.4469955465996
30
0
0
VERTEX
8
0
10
45.9487179487179
20
37.9865313027378
30
0
0
VERTEX
8
0
10
46.8676923076923
20
38.5396906832145
30
0
0
VERTEX
8
0
10
47.7866666666666
20
39.0667694682205
30
0
0
VERTEX
8
0
10
48.705641025641
20
39.6064591181971
30
0
0
VERTEX
8
0
10
49.6246153846154
20
40.1326619139543
30
0
0
VERTEX
8
0
10
50.5435897435897
20
40.6673554170321
30
0
0
VERTEX
8
0
10
51.4625641025641
20
41.1798821311634
30
0
0
VERTEX
8
0
10
52.3815384615384
20
41.7003628399536
30
0
0
VERTEX
8
0
10
53.3005128205128
20
42.2051611654278
30
0
0
VERTEX
8
0
10
54.2194871794871
20
42.71491491193
30
0
0
VERTEX
8
0
10
55.1384615384615
20
43.2059433958627
30
0
0
VERTEX
8
0
10
56.0574358974358
20
43.7015185834198
30
0
0
VERTEX
8
0
10
56.9764102564102
20
44.1801558731299
30
0
0
VERTEX
8
0
10
57.8953846153846
20
44.6610843838352
30
0
0
VERTEX
8
0
10
58.8143589743589
20
45.1261028217216
30
0
0
VERTEX
8
0
10
59.7333333333333
20
45.5930428966526
30
0
0
VERTEX
8
0
10
60.6523076923076
20
46.0423649865229
30
0
0
VERTEX
8
0
10
61.571282051282
20
46.4918933738293
30
0
0
VERTEX
8
0
10
62.4902564102563
20
46.9277598485781
30
0
0
VERTEX
8
0
10
63.4092307692307
20
47.363476219979
30
0
0
VERTEX
8
0
10
64.328205128205
20
47.7812872556315
30
0
0
VERTEX
8
0
10
65.2471794871794
20
48.1976435606802
30
0
0
VERTEX
8
0
10
66.1661538461537
20
48.602113283971
30
0
0
VERTEX
8
0
10
67.0851282051281
20
49.0047789617186
30
0
0
VERTEX
8
0
10
68.0041025641025
20
49.3895369583081
30
0
0
VERTEX
8
0
10
68.9230769230768
20
49.7715073826312
30
0
0
VERTEX
8
0
10
69.8420512820512
20
50.1429839900613
30
0
0
VERTEX
8
0
10
70.7610256410255
20
50.5113317341701
30
0
0
VERTEX
8
0
10
71.6799999999999
20
50.8619847925304
30
0
0
VERTEX
8
0
10
72.5989743589742
20
51.2087816001388
30
0
0
VERTEX
8
0
10
73.5179487179486
20
51.5461727064587
30
0
0
VERTEX
8
0
10
74.436923076923
20
51.8793777810647
30
0
0
VERTEX
8
0
10
75.3558974358973
20
52.1952687800231
30
0
0
VERTEX
8
0
10
76.2748717948717
20
52.5064539893739
30
0
0
VERTEX
8
0
10
77.193846153846
20
52.8090821170365
30
0
0
VERTEX
8
0
10
78.1128205128204
20
53.1066905093527
30
0
0
VERTEX
8
0
10
79.0317948717947
20
53.3874990441398
30
0
0
VERTEX
8
0
10
79.9507692307691
20
53.6629387074014
30
0
0
VERTEX
8
0
10
80.8697435897435
20
53.9304844631196
30
0
0
VERTEX
8
0
10
81.7887179487178
20
54.1923677313561
30
0
0
VERTEX
8
0
10
82.7076923076922
20
54.4380740300645
30
0
0
VERTEX
8
0
10
83.6266666666665
20
54.6779106153081
30
0
0
VERTEX
8
0
10
84.5456410256409
20
54.9103759526653
30
0
0
VERTEX
8
0
10
85.4646153846152
20
55.1367026970212
30
0
0
VERTEX
8
0
10
86.3835897435896
20
55.3475653171516
30
0
0
VERTEX
8
0
10
87.3025641025639
20
55.5522014305895
30
0
0
VERTEX
8
0
10
88.2215384615383
20
55.7498860311597
30
0
0
VERTEX
8
0
10
89.1405128205126
20
55.941104202176
30
0
0
VERTEX
8
0
10
90.059487179487
20
56.1176467053908
30
0
0
VERTEX
8
0
10
90.9784615384614
20
56.2877361398517
30
0
0
VERTEX
8
0
10
91.8974358974357
20
56.4512225511353
30
0
0
VERTEX
8
0
10
92.8164102564101
20
56.6080489021825
30
0
0
VERTEX
8
0
10
93.7353846153844
20
56.7510523529465
30
0
0
VERTEX
8
0
10
94.6543589743588
20
56.8874957295703
30
0
0
VERTEX
8
0
10
95.5733333333331
20
57.0176401340575
30
0
0
VERTEX
8
0
10
96.4923076923075
20
57.1410540291106
30
0
0
VERTEX
8
0
10
97.4112820512818
20
57.2515527600585
30
0
0
VERTEX
8
0
10
98.3302564102562
20
57.3554953421857
30
0
0
VERTEX
8
0
10
99.2492307692306
20
57.4534210529627
30
0
0
VERTEX
8
0
10
100.168205128205
20
57.5446597322706
30
0
0
VERTEX
8
0
10
101.087179487179
20
57.6239373531767
30
0
0
VERTEX
8
0
10
102.006153846154
20
57.6967657373587
30
0
0
VERTEX
8
0
10
102.925128205128
20
57.7638552858427
30
0
0
VERTEX
8
0
10
103.844102564102
20
57.8244058195475
30
0
0
VERTEX
8
0
10
104.763076923077
20
57.8739857439508
30
0
0
VERTEX
8
0
10
105.682051282051
20
57.9173163154559
30
0
0
VERTEX
8
0
10
106.601025641025
20
57.9551927348872
30
0
0
VERTEX
8
0
10
107.52
20
57.9867684271447
30
0
0
VERTEX
8
0
10
108.438974358974
20
58.0083825186058
30
0
0
VERTEX
8
0
10
109.357948717948
20
58.0240190945844
30
0
0
VERTEX
8
0
10
110.276923076923
20
58.0344842379343
30
0
0
VERTEX
8
0
10
111.195897435897
20
58.038938765768
30
0
0
VERTEX
8
0
10
112.114871794872
20
58.0344039362734
30
0
0
VERTEX
8
0
10
113.033846153846
20
58.0241550157949
30
0
0
VERTEX
8
0
10
113.95282051282
20
58.0089052103402
30
0
0
VERTEX
8
0
10
114.871794871795
20
57.987771236201
30
0
0
VERTEX
8
0
10
115.790769230769
20
57.9581798229568
30
0
0
VERTEX
8
0
10
116.709743589743
20
57.9223145742669
30
0
0
VERTEX
8
0
10
117.628717948718
20
57.8806015532156
30
0
0
VERTEX
8
0
10
118.547692307692
20
57.8357172900985
30
0
0
VERTEX
8
0
10
119.466666666666
20
57.7881385778486
30
0
0
VERTEX
8
0
10
120.385641025641
20
57.7390668675366
30
0
0
VERTEX
8
0
10
121.304615384615
20
57.6883759500625
30
0
0
VERTEX
8
0
10
122.223589743589
20
57.6350799622063
30
0
0
VERTEX
8
0
10
123.142564102564
20
57.5775519161426
30
0
0
VERTEX
8
0
10
124.061538461538
20
57.517307056557
30
0
0
VERTEX
8
0
10
124.980512820513
20
57.4547469280337
30
0
0
VERTEX
8
0
10
125.899487179487
20
57.3893294440334
30
0
0
VERTEX
8
0
10
126.818461538461
20
57.3200193417037
30
0
0
VERTEX
8
0
10
127.737435897436
20
57.248069036413
30
0
0
VERTEX
8
0
10
128.65641025641
20
57.1738782900576
30
0
0
VERTEX
8
0
10
129.575384615384
20
57.0971049902524
30
0
0
VERTEX
8
0
10
130.494358974359
20
57.0171201239018
30
0
0
VERTEX
8
0
10
131.413333333333
20
56.9348890677776
30
0
0
VERTEX
8
0
10
132.332307692307
20
56.8507677644246
30
0
0
VERTEX
8
0
10
133.251282051282
20
56.7645870793177
30
0
0
VERTEX
8
0
10
134.170256410256
20
56.6760515265338
30
0
0
VERTEX
8
0
10
135.08923076923
20
56.5858864542686
30
0
0
VERTEX
8
0
10
136.008205128205
20
56.4944134338906
30
0
0
VERTEX
8
0
10
136.927179487179
20
56.4016327497879
30
0
0
VERTEX
8
0
10
137.846153846153
20
56.3075303343366
30
0
0
VERTEX
8
0
10
138.765128205128
20
56.2126641036375
30
0
0
VERTEX
8
0
10
139.684102564102
20
56.1173596827022
30
0
0
VERTEX
8
0
10
140.603076923077
20
56.0217992276145
30
0
0
VERTEX
8
0
10
141.522051282051
20
55.9262219325164
30
0
0
VERTEX
8
0
10
142.441025641025
20
55.8311325041807
30
0
0
VERTEX
8
0
10
143.36
20
55.7369591963203
30
0
0
VERTEX
8
0
10
144.278974358974
20
55.6441513426135
30
0
0
VERTEX
8
0
10
145.197948717948
20
55.5533009746002
30
0
0
VERTEX
8
0
10
146.116923076923
20
55.4652109273642
30
0
0
VERTEX
8
0
10
147.035897435897
20
55.38084753306
30
0
0
VERTEX
8
0
10
147.954871794871
20
55.3008652114076
30
0
0
VERTEX
8
0
10
148.873846153846
20
55.2249126167741
30
0
0
VERTEX
8
0
10
149.79282051282
20
55.1523153056477
30
0
0
VERTEX
8
0
10
150.711794871795
20
55.0825740560819
30
0
0
VERTEX
8
0
10
151.630769230769
20
55.0153394373881
30
0
0
VERTEX
8
0
10
152.549743589743
20
54.9503511399528
30
0
0
VERTEX
8
0
10
153.468717948718
20
54.8874046759
30
0
0
VERTEX
8
0
10
154.387692307692
20
54.8263333110415
30
0
0
VERTEX
8
0
10
155.306666666666
20
54.7669974147934
30
0
0
VERTEX
8
0
10
156.225641025641
20
54.7092776924011
30
0
0
VERTEX
8
0
10
157.144615384615
20
54.6530706260765
30
0
0
VERTEX
8
0
10
158.063589743589
20
54.5982852626683
30
0
0
VERTEX
8
0
10
158.982564102564
20
54.544840868151
30
0
0
VERTEX
8
0
10
159.901538461538
20
54.492665164957
30
0
0
VERTEX
8
0
10
160.820512820513
20
54.4416929753775
30
0
0
VERTEX
8
0
10
161.739487179487
20
54.3918651563501
30
0
0
VERTEX
8
0
10
162.658461538461
20
54.3431277486218
30
0
0
VERTEX
8
0
10
163.577435897436
20
54.2954312870347
30
0
0
VERTEX
8
0
10
164.49641025641
20
54.2487302341761
30
0
0
VERTEX
8
0
10
165.415384615384
20
54.2029825100244
30
0
0
VERTEX
8
0
10
166.334358974359
20
54.1581490973722
30
0
0
VERTEX
8
0
10
167.253333333333
20
54.1141937078321
30
0
0
VERTEX
8
0
10
168.172307692308
20
54.0710824968324
30
0
0
VERTEX
8
0
10
169.091282051282
20
54.0287838186356
30
0
0
VERTEX
8
0
10
170.010256410256
20
53.987268014364
30
0
0
VERTEX
8
0
10
170.929230769231
20
53.9465072274703
30
0
0
VERTEX
8
0
10
171.848205128205
20
53.9064752422112
30
0
0
SEQEND
8
0
0
POLYLINE
8
0
62
4
70
0
10
0
20
0
30
0
0
VERTEX
8
0
10
1.83794871794872
20
1.96323600573593
30
0
0
VERTEX
8
0
10
2.75692307692308
20
2.73929922736996
30
0
0
VERTEX
8
0
10
3.67589743589744
20
3.52314615813874
30
0
0
VERTEX
8
0
10
4.59487179487179
20
4.30966427743284
30
0
0
VERTEX
8
0
10
5.51384615384615
20
5.06745649308575
30
0
0
VERTEX
8
0
10
6.43282051282051
20
5.81282662089597
30
0
0
VERTEX
8
0
10
7.35179487179487
20
6.56223189559956
30
0
0
VERTEX
8
0
10
8.27076923076923
20
7.31428014202164
30
0
0
VERTEX
8
0
10
9.18974358974359
20
8.05096656859054
30
0
0
VERTEX
8
0
10
10.1087179487179
20
8.78428510063191
30
0
0
VERTEX
8
0
10
11.0276923076923
20
9.5599885954181
30
0
0
VERTEX
8
0
10
11.9466666666667
20
10.3405715024764
30
0
0
VERTEX
8
0
10
12.865641025641
20
11.1032618661196
30
0
0
VERTEX
8
0
10
13.7846153846154
20
11.9568204379729
30
0
0
VERTEX
8
0
10
14.7035897435897
20
12.8242807471119
30
0
0
VERTEX
8
0
10
15.6225641025641
20
13.6901478447016
30
0
0
VERTEX
8
0
10
16.5415384615385
20
14.5924066870719
30
0
0
VERTEX
8
0
10
17.4605128205128
20
15.4908885764133
30
0
0
VERTEX
8
0
10
18.3794871794872
20
16.3981217992048
30
0
0
VERTEX
8
0
10
19.2984615384615
20
17.3980022085326
30
0
0
VERTEX
8
0
10
20.2174358974359
20
18.3711871498202
30
0
0
VERTEX
8
0
10
21.1364102564103
20
19.3449651147572
30
0
0
VERTEX
8
0
10
22.0553846153846
20
20.3567340586835
30
0
0
VERTEX
8
0
10
22.974358974359
20
21.3595380996097
30
0
0
VERTEX
8
0
10
23.8933333333333
20
22.2998103455073
30
0
0
VERTEX
8
0
10
24.8123076923077
20
23.2179606699684
30
0
0
VERTEX
8
0
10
25.7312820512821
20
24.1427747141584
30
0
0
VERTEX
8
0
10
26.6502564102564
20
25.0117326334481
30
0
0
VERTEX
8
0
10
27.5692307692308
20
25.8569259308554
30
0
0
VERTEX
8
0
10
28.4882051282051
20
26.6989514029835
30
0
0
VERTEX
8
0
10
29.4071794871795
20
27.4153071970831
30
0
0
VERTEX
8
0
10
30.3261538461539
20
28.1236487332799
30
0
0
VERTEX
8
0
10
31.2451282051282
20
28.8181580039331
30
0
0
VERTEX
8
0
10
32.1641025641026
20
29.4765636160102
30
0
0
VERTEX
8
0
10
33.0830769230769
20
30.1438969796991
30
0
0
VERTEX
8
0
10
34.0020512820513
20
30.8073614964054
30
0
0
VERTEX
8
0
10
34.9210256410257
20
31.3472248845524
30
0
0
VERTEX
8
0
10
35.84
20
31.8795767008496
30
0
0
VERTEX
8
0
10
36.7589743589744
20
32.4169974906504
30
0
0
VERTEX
8
0
10
37.6779487179487
20
32.9376978488288
30
0
0
VERTEX
8
0
10
38.5969230769231
20
33.4468017130583
30
0
0
VERTEX
8
0
10
39.5158974358974
20
33.9527232172217
30
0
0
VERTEX
8
0
10
40.4348717948718
20
34.4085938605201
30
0
0
VERTEX
8
0
10
41.3538461538461
20
34.8737406284965
30
0
0
VERTEX
8
0
10
42.2728205128205
20
35.3286540696392
30
0
0
VERTEX
8
0
10
43.1917948717949
20
35.8163768359209
30
0
0
VERTEX
8
0
10
44.1107692307692
20
36.3019339930539
30
0
0
VERTEX
8
0
10
45.0297435897436
20
36.7856335234124
30
0
0
VERTEX
8
0
10
45.9487179487179
20
37.2525654394425
30
0
0
VERTEX
8
0
10
46.8676923076923
20
37.7192461643994
30
0
0
VERTEX
8
0
10
47.7866666666666
20
38.1918014278835
30
0
0
VERTEX
8
0
10
48.705641025641
20
38.6625868027686
30
0
0
VERTEX
8
0
10
49.6246153846154
20
39.1219354268776
30
0
0
VERTEX
8
0
10
50.5435897435897
20
39.5786552444664
30
0
0
VERTEX
8
0
10
51.4625641025641
20
40.0740037997564
30
0
0
VERTEX
8
0
10
52.3815384615384
20
40.5605821657213
30
0
0
VERTEX
8
0
10
53.3005128205128
20
41.0354061682666
30
0
0
VERTEX
8
0
10
54.2194871794871
20
41.5348551601626
30
0
0
VERTEX
8
0
10
55.1384615384615
20
42.030937905878
30
0
0
VERTEX
8
0
10
56.0574358974358
20
42.5234467905139
30
0
0
VERTEX
8
0
10
56.9764102564102
20
43.0020433639391
30
0
0
VERTEX
8
0
10
57.8953846153846
20
43.4774413802864
30
0
0
VERTEX
8
0
10
58.8143589743589
20
43.956560356278
30
0
0
VERTEX
8
0
10
59.7333333333333
20
44.4594063393767
30
0
0
VERTEX
8
0
10
60.6523076923076
20
44.943889338033
30
0
0
VERTEX
8
0
10
61.571282051282
20
45.4245995459394
30
0
0
VERTEX
8
0
10
62.4902564102563
20
45.9065357219289
30
0
0
VERTEX
8
0
10
63.4092307692307
20
46.3849988500663
30
0
0
VERTEX
8
0
10
64.328205128205
20
46.8503987897417
30
0
0
VERTEX
8
0
10
65.2471794871794
20
47.3106287089205
30
0
0
VERTEX
8
0
10
66.1661538461537
20
47.7734564400843
30
0
0
VERTEX
8
0
10
67.0851282051281
20
48.237161916282
30
0
0
VERTEX
8
0
10
68.0041025641025
20
48.6919765055921
30
0
0
VERTEX
8
0
10
68.9230769230768
20
49.1427633405529
30
0
0
VERTEX
8
0
10
69.8420512820512
20
49.5897186927524
30
0
0
VERTEX
8
0
10
70.7610256410255
20
50.0268165263891
30
0
0
VERTEX
8
0
10
71.6799999999999
20
50.4532529357208
30
0
0
VERTEX
8
0
10
72.5989743589742
20
50.8918942734283
30
0
0
VERTEX
8
0
10
73.5179487179486
20
51.3393191043815
30
0
0
VERTEX
8
0
10
74.436923076923
20
51.7824536328233
30
0
0
VERTEX
8
0
10
75.3558974358973
20
52.1642988320118
30
0
0
VERTEX
8
0
10
76.2748717948717
20
52.5309489631107
30
0
0
VERTEX
8
0
10
77.193846153846
20
52.8986856275865
30
0
0
VERTEX
8
0
10
78.1128205128204
20
53.1934817271528
30
0
0
VERTEX
8
0
10
79.0317948717947
20
53.447649620607
30
0
0
VERTEX
8
0
10
79.9507692307691
20
53.6977849049421
30
0
0
VERTEX
8
0
10
80.8697435897435
20
53.9484563587458
30
0
0
VERTEX
8
0
10
81.7887179487178
20
54.1947812086481
30
0
0
VERTEX
8
0
10
82.7076923076922
20
54.4318589936749
30
0
0
VERTEX
8
0
10
83.6266666666665
20
54.6796931187679
30
0
0
VERTEX
8
0
10
84.5456410256409
20
54.9275884903488
30
0
0
VERTEX
8
0
10
85.4646153846152
20
55.1711141714338
30
0
0
VERTEX
8
0
10
86.3835897435896
20
55.395660250937
30
0
0
VERTEX
8
0
10
87.3025641025639
20
55.6167421238734
30
0
0
VERTEX
8
0
10
88.2215384615383
20
55.8377526959216
30
0
0
VERTEX
8
0
10
89.1405128205126
20
56.0214579825225
30
0
0
VERTEX
8
0
10
90.059487179487
20
56.2023068108554
30
0
0
VERTEX
8
0
10
90.9784615384614
20
56.3791419915957
30
0
0
VERTEX
8
0
10
91.8974358974357
20
56.4643479261426
30
0
0
VERTEX
8
0
10
92.8164102564101
20
56.5541431047722
30
0
0
VERTEX
8
0
10
93.7353846153844
20
56.6365758926878
30
0
0
VERTEX
8
0
10
94.6543589743588
20
56.6987378537044
30
0
0
VERTEX
8
0
10
95.5733333333331
20
56.765945994141
30
0
0
VERTEX
8
0
10
96.4923076923075
20
56.8256060541034
30
0
0
VERTEX
8
0
10
97.4112820512818
20
56.8768436104405
30
0
0
VERTEX
8
0
10
98.3302564102562
20
56.9247059252385
30
0
0
VERTEX
8
0
10
99.2492307692306
20
56.9720797944779
30
0
0
VERTEX
8
0
10
100.168205128205
20
57.0348571337504
30
0
0
VERTEX
8
0
10
101.087179487179
20
57.0858267143583
30
0
0
VERTEX
8
0
10
102.006153846154
20
57.1311196677862
30
0
0
VERTEX
8
0
10
102.925128205128
20
57.1738418489668
30
0
0
VERTEX
8
0
10
103.844102564102
20
57.2130352738645
30
0
0
VERTEX
8
0
10
104.763076923077
20
57.246954625214
30
0
0
VERTEX
8
0
10
105.682051282051
20
57.2777147035176
30
0
0
VERTEX
8
0
10
106.601025641025
20
57.3073641242258
30
0
0
VERTEX
8
0
10
107.52
20
57.3384114483064
30
0
0
VERTEX
8
0
10
108.438974358974
20
57.365882938102
30
0
0
VERTEX
8
0
10
109.357948717948
20
57.3901897782095
30
0
0
VERTEX
8
0
10
110.276923076923
20
57.393267126324
30
0
0
VERTEX
8
0
10
111.195897435897
20
57.3922331868292
30
0
0
VERTEX
8
0
10
112.114871794872
20
57.3864526826533
30
0
0
VERTEX
8
0
10
113.033846153846
20
57.4082486590781
30
0
0
VERTEX
8
0
10
113.95282051282
20
57.4220084349946
30
0
0
VERTEX
8
0
10
114.871794871795
20
57.4327423685098
30
0
0
VERTEX
8
0
10
115.790769230769
20
57.425771067635
30
0
0
VERTEX
8
0
10
116.709743589743
20
57.4153587395035
30
0
0
VERTEX
8
0
10
117.628717948718
20
57.4035486058457
30
0
0
VERTEX
8
0
10
118.547692307692
20
57.3796866599727
30
0
0
VERTEX
8
0
10
119.466666666666
20
57.3531106408308
30
0
0
VERTEX
8
0
10
120.385641025641
20
57.3244576636606
30
0
0
VERTEX
8
0
10
121.304615384615
20
57.3168218164008
30
0
0
VERTEX
8
0
10
122.223589743589
20
57.3019033408004
30
0
0
VERTEX
8
0
10
123.142564102564
20
57.2839910987759
30
0
0
VERTEX
8
0
10
124.061538461538
20
57.258749376343
30
0
0
VERTEX
8
0
10
124.980512820513
20
57.2336156585833
30
0
0
VERTEX
8
0
10
125.899487179487
20
57.2065221798652
30
0
0
VERTEX
8
0
10
126.818461538461
20
57.1936156518561
30
0
0
VERTEX
8
0
10
127.737435897436
20
57.1736987913052
30
0
0
VERTEX
8
0
10
128.65641025641
20
57.1525541492169
30
0
0
VERTEX
8
0
10
129.575384615384
20
57.1080693586063
30
0
0
VERTEX
8
0
10
130.494358974359
20
57.0672251459457
30
0
0
VERTEX
8
0
10
131.413333333333
20
57.0168292347058
30
0
0
VERTEX
8
0
10
132.332307692307
20
56.9620806042696
30
0
0
VERTEX
8
0
10
133.251282051282
20
56.9060103319037
30
0
0
VERTEX
8
0
10
134.170256410256
20
56.8375620171718
30
0
0
VERTEX
8
0
10
135.08923076923
20
56.767697793661
30
0
0
VERTEX
8
0
10
136.008205128205
20
56.6970872288897
30
0
0
VERTEX
8
0
10
136.927179487179
20
56.6308528990084
30
0
0
VERTEX
8
0
10
137.846153846153
20
56.567844050913
30
0
0
VERTEX
8
0
10
138.765128205128
20
56.5040782114673
30
0
0
VERTEX
8
0
10
139.684102564102
20
56.4351592873825
30
0
0
VERTEX
8
0
10
140.603076923077
20
56.3646952852699
30
0
0
VERTEX
8
0
10
141.522051282051
20
56.2936924798736
30
0
0
VERTEX
8
0
10
142.441025641025
20
56.230500395155
30
0
0
VERTEX
8
0
10
143.36
20
56.1662845585587
30
0
0
VERTEX
8
0
10
144.278974358974
20
56.1018388930449
30
0
0
VERTEX
8
0
10
145.197948717948
20
56.0347157948838
30
0
0
VERTEX
8
0
10
146.116923076923
20
55.9656012416101
30
0
0
VERTEX
8
0
10
147.035897435897
20
55.8966185014888
30
0
0
VERTEX
8
0
10
147.954871794871
20
55.8258231095825
30
0
0
VERTEX
8
0
10
148.873846153846
20
55.7543620113714
30
0
0
VERTEX
8
0
10
149.79282051282
20
55.6831732057207
30
0
0
VERTEX
8
0
10
150.711794871795
20
55.6238249414097
30
0
0
VERTEX
8
0
10
151.630769230769
20
55.5661353508603
30
0
0
VERTEX
8
0
10
152.549743589743
20
55.5086294007366
30
0
0
VERTEX
8
0
10
153.468717948718
20
55.4418886164768
30
0
0
VERTEX
8
0
10
154.387692307692
20
55.3747957832952
30
0
0
VERTEX
8
0
10
155.306666666666
20
55.3079592175666
30
0
0
VERTEX
8
0
10
156.225641025641
20
55.2392225980232
30
0
0
VERTEX
8
0
10
157.144615384615
20
55.1708954256147
30
0
0
VERTEX
8
0
10
158.063589743589
20
55.102843386372
30
0
0
VERTEX
8
0
10
158.982564102564
20
55.0510685956882
30
0
0
VERTEX
8
0
10
159.901538461538
20
54.999490408283
30
0
0
VERTEX
8
0
10
160.820512820513
20
54.9480739064897
30
0
0
VERTEX
8
0
10
161.739487179487
20
54.8811137320124
30
0
0
VERTEX
8
0
10
162.658461538461
20
54.8182282272314
30
0
0
VERTEX
8
0
10
163.577435897436
20
54.7591611825776
30
0
0
VERTEX
8
0
10
164.49641025641
20
54.7029092280861
30
0
0
VERTEX
8
0
10
165.415384615384
20
54.6468600347214
30
0
0
VERTEX
8
0
10
166.334358974359
20
54.5910142270146
30
0
0
VERTEX
8
0
10
167.253333333333
20
54.550061245202
30
0
0
VERTEX
8
0
10
168.172307692308
20
54.5061823023165
30
0
0
VERTEX
8
0
10
169.091282051282
20
54.4624314169186
30
0
0
VERTEX
8
0
10
170.010256410256
20
54.413550883357
30
0
0
VERTEX
8
0
10
170.929230769231
20
54.3664347215296
30
0
0
VERTEX
8
0
10
171.848205128205
20
54.3108841053898
30
0
0
SEQEND
8
0
0
ENDSEC
0
EOF
