0
SECTION
2
HEADER
9
$ACADVER
1
AC1009
0
ENDSEC
0
SECTION
2
ENTITIES
0
POLYLINE
8
0
62
0
70
1
10
0
20
0
30
0
0
VERTEX
8
0
10
0
20
0
30
0
0
VERTEX
8
0
10
0
20
300.18
30
0
0
VERTEX
8
0
10
411.491
20
300.18
30
0
0
VERTEX
8
0
10
411.491
20
0
30
0
0
SEQEND
8
0
0
TEXT
8
0
62
0
10
0
20
-12
30
0
40
8
1
-15
50
0
0
LINE
8
0
62
0
10
65.305
20
0
30
0
11
65.305
21
6.4
31
0
0
LINE
8
0
62
0
10
65.305
20
300.18
30
0
11
65.305
21
293.78
31
0
0
TEXT
8
0
62
0
10
65.305
20
-12
30
0
40
8
1
-14
50
0
0
LINE
8
0
62
0
10
130.61
20
0
30
0
11
130.61
21
6.4
31
0
0
LINE
8
0
62
0
10
130.61
20
300.18
30
0
11
130.61
21
293.78
31
0
0
TEXT
8
0
62
0
10
130.61
20
-12
30
0
40
8
1
-13
50
0
0
LINE
8
0
62
0
10
195.915
20
0
30
0
11
195.915
21
6.4
31
0
0
LINE
8
0
62
0
10
195.915
20
300.18
30
0
11
195.915
21
293.78
31
0
0
TEXT
8
0
62
0
10
195.915
20
-12
30
0
40
8
1
-12
50
0
0
LINE
8
0
62
0
10
261.22
20
0
30
0
11
261.22
21
6.4
31
0
0
LINE
8
0
62
0
10
261.22
20
300.18
30
0
11
261.22
21
293.78
31
0
0
TEXT
8
0
62
0
10
261.22
20
-12
30
0
40
8
1
-11
50
0
0
LINE
8
0
62
0
10
326.525
20
0
30
0
11
326.525
21
6.4
31
0
0
LINE
8
0
62
0
10
326.525
20
300.18
30
0
11
326.525
21
293.78
31
0
0
TEXT
8
0
62
0
10
326.525
20
-12
30
0
40
8
1
-10
50
0
0
LINE
8
0
62
0
10
391.83
20
0
30
0
11
391.83
21
6.4
31
0
0
LINE
8
0
62
0
10
391.83
20
300.18
30
0
11
391.83
21
293.78
31
0
0
TEXT
8
0
62
0
10
391.83
20
-12
30
0
40
8
1
-9
50
0
0
TEXT
8
0
62
0
10
-4
20
-4
30
0
40
8
1
-13
50
0
0
LINE
8
0
62
0
10
0
20
34.896
30
0
11
6.4
21
34.896
31
0
0
LINE
8
0
62
0
10
411.491
20
34.896
30
0
11
405.091
21
34.896
31
0
0
TEXT
8
0
62
0
10
-4
20
30.896
30
0
40
8
1
-12.5
50
0
0
LINE
8
0
62
0
10
0
20
69.792
30
0
11
6.4
21
69.792
31
0
0
LINE
8
0
62
0
10
411.491
20
69.792
30
0
11
405.091
21
69.792
31
0
0
TEXT
8
0
62
0
10
-4
20
65.792
30
0
40
8
1
-12
50
0
0
LINE
8
0
62
0
10
0
20
104.688
30
0
11
6.4
21
104.688
31
0
0
LINE
8
0
62
0
10
411.491
20
104.688
30
0
11
405.091
21
104.688
31
0
0
TEXT
8
0
62
0
10
-4
20
100.688
30
0
40
8
1
-11.5
50
0
0
LINE
8
0
62
0
10
0
20
139.584
30
0
11
6.4
21
139.584
31
0
0
LINE
8
0
62
0
10
411.491
20
139.584
30
0
11
405.091
21
139.584
31
0
0
TEXT
8
0
62
0
10
-4
20
135.584
30
0
40
8
1
-11
50
0
0
LINE
8
0
62
0
10
0
20
174.48
30
0
11
6.4
21
174.48
31
0
0
LINE
8
0
62
0
10
411.491
20
174.48
30
0
11
405.091
21
174.48
31
0
0
TEXT
8
0
62
0
10
-4
20
170.48
30
0
40
8
1
-10.5
50
0
0
LINE
8
0
62
0
10
0
20
209.376
30
0
11
6.4
21
209.376
31
0
0
LINE
8
0
62
0
10
411.491
20
209.376
30
0
11
405.091
21
209.376
31
0
0
TEXT
8
0
62
0
10
-4
20
205.376
30
0
40
8
1
-10
50
0
0
LINE
8
0
62
0
10
0
20
244.272
30
0
11
6.4
21
244.272
31
0
0
LINE
8
0
62
0
10
411.491
20
244.272
30
0
11
405.091
21
244.272
31
0
0
TEXT
8
0
62
0
10
-4
20
240.272
30
0
40
8
1
-9.5
50
0
0
LINE
8
0
62
0
10
0
20
279.168
30
0
11
6.4
21
279.168
31
0
0
LINE
8
0
62
0
10
411.491
20
279.168
30
0
11
405.091
21
279.168
31
0
0
TEXT
8
0
62
0
10
-4
20
275.168
30
0
40
8
1
-9
50
0
0
TEXT
8
0
62
0
10
205.7455
20
-32
30
0
40
10
1
baryonic radial acceleration (log m/s^2)
50
0
0
TEXT
8
0
62
0
10
-24
20
150.09
30
0
40
10
1
observed radial acceleration (log m/s^2)
50
90
0
TEXT
8
0
62
0
10
188.7455
20
315.18
30
0
40
11
1
observed radial acceleration vs. baryonic radial acceleration
50
0
0
POLYLINE
8
0
62
6
70
0
10
0
20
0
30
0
0
VERTEX
8
0
10
0
20
20.7258305717777
30
0
0
VERTEX
8
0
10
20.57455
20
31.786780878217
30
0
0
VERTEX
8
0
10
41.1491000000001
20
42.876686438218
30
0
0
VERTEX
8
0
10
61.7236500000001
20
54.0079366878697
30
0
0
VERTEX
8
0
10
82.2982000000001
20
65.1980564592774
30
0
0
VERTEX
8
0
10
102.87275
20
76.4716641129696
30
0
0
VERTEX
8
0
10
123.4473
20
87.8630038702543
30
0
0
VERTEX
8
0
10
144.02185
20
99.4190465478628
30
0
0
VERTEX
8
0
10
164.5964
20
111.202951130198
30
0
0
VERTEX
8
0
10
185.17095
20
123.297292364664
30
0
0
VERTEX
8
0
10
205.7455
20
135.80584857055
30
0
0
VERTEX
8
0
10
226.32005
20
148.852014812834
30
0
0
VERTEX
8
0
10
246.8946
20
162.571489372571
30
0
0
VERTEX
8
0
10
267.46915
20
177.097608760741
30
0
0
VERTEX
8
0
10
288.0437
20
192.540376176428
30
0
0
VERTEX
8
0
10
308.61825
20
208.964398156932
30
0
0
VERTEX
8
0
10
329.1928
20
226.37396418165
30
0
0
VERTEX
8
0
10
349.76735
20
244.712005303466
30
0
0
VERTEX
8
0
10
370.3419
20
263.873432167338
30
0
0
VERTEX
8
0
10
390.916450000001
20
283.726739077014
30
0
0
SEQEND
8
0
0
POLYLINE
8
0
62
6
70
0
10
0
20
0
30
0
0
VERTEX
8
0
10
0
20
45.0326659048954
30
0
0
VERTEX
8
0
10
20.57455
20
56.0567847236436
30
0
0
VERTEX
8
0
10
41.1491000000001
20
67.0939603928894
30
0
0
VERTEX
8
0
10
61.7236500000001
20
78.1498467651395
30
0
0
VERTEX
8
0
10
82.2982000000001
20
89.2325117641306
30
0
0
VERTEX
8
0
10
102.87275
20
100.35343233449
30
0
0
VERTEX
8
0
10
123.4473
20
111.52886220241
30
0
0
VERTEX
8
0
10
144.02185
20
122.781673544689
30
0
0
VERTEX
8
0
10
164.5964
20
134.14375999938
30
0
0
VERTEX
8
0
10
185.17095
20
145.659021487145
30
0
0
VERTEX
8
0
10
205.7455
20
157.386780847698
30
0
0
VERTEX
8
0
10
226.32005
20
169.405141074809
30
0
0
VERTEX
8
0
10
246.8946
20
181.813228324565
30
0
0
VERTEX
8
0
10
267.46915
20
194.730540063769
30
0
0
VERTEX
8
0
10
288.0437
20
208.291073615511
30
0
0
VERTEX
8
0
10
308.61825
20
222.63030428085
30
0
0
VERTEX
8
0
10
329.1928
20
237.865298981042
30
0
0
VERTEX
8
0
10
349.76735
20
254.07224242023
30
0
0
VERTEX
8
0
10
370.3419
20
271.26923980742
30
0
0
VERTEX
8
0
10
390.916450000001
20
289.411936265057
30
0
0
SEQEND
8
0
0
POLYLINE
8
0
62
1
70
0
10
0
20
0
30
0
0
VERTEX
8
0
10
130.610916962651
20
0
30
0
0
VERTEX
8
0
10
144.02185
20
14.3324291121643
30
0
0
VERTEX
8
0
10
164.5964
20
36.320703795844
30
0
0
VERTEX
8
0
10
185.17095
20
58.3089784795237
30
0
0
VERTEX
8
0
10
205.7455
20
80.2972531632035
30
0
0
VERTEX
8
0
10
226.32005
20
102.285527846883
30
0
0
VERTEX
8
0
10
246.8946
20
124.273802530563
30
0
0
VERTEX
8
0
10
267.46915
20
146.262077214243
30
0
0
VERTEX
8
0
10
288.0437
20
168.250351897922
30
0
0
VERTEX
8
0
10
308.61825
20
190.238626581602
30
0
0
VERTEX
8
0
10
329.1928
20
212.226901265282
30
0
0
VERTEX
8
0
10
349.76735
20
234.215175948961
30
0
0
VERTEX
8
0
10
370.3419
20
256.203450632641
30
0
0
VERTEX
8
0
10
390.916450000001
20
278.191725316321
30
0
0
SEQEND
8
0
0
ENDSEC
0
EOF
