0
SECTION
2
HEADER
9
$ACADVER
1
AC1009
0
ENDSEC
0
SECTION
2
ENTITIES
0
POLYLINE
8
0
62
0
70
1
10
0
20
0
30
0
0
VERTEX
8
0
10
0
20
0
30
0
0
VERTEX
8
0
10
0
20
120.958
30
0
0
VERTEX
8
0
10
179.2
20
120.958
30
0
0
VERTEX
8
0
10
179.2
20
0
30
0
0
SEQEND
8
0
0
TEXT
8
0
62
0
10
0
20
-12
30
0
40
8
1
0
50
0
0
LINE
8
0
62
0
10
6.2802931270743
20
0
30
0
11
6.2802931270743
21
3.2
31
0
0
LINE
8
0
62
0
10
6.2802931270743
20
120.958
30
0
11
6.2802931270743
21
117.758
31
0
0
LINE
8
0
62
0
10
12.5605862541486
20
0
30
0
11
12.5605862541486
21
3.2
31
0
0
LINE
8
0
62
0
10
12.5605862541486
20
120.958
30
0
11
12.5605862541486
21
117.758
31
0
0
LINE
8
0
62
0
10
18.8408793812229
20
0
30
0
11
18.8408793812229
21
3.2
31
0
0
LINE
8
0
62
0
10
18.8408793812229
20
120.958
30
0
11
18.8408793812229
21
117.758
31
0
0
LINE
8
0
62
0
10
25.1211725082972
20
0
30
0
11
25.1211725082972
21
3.2
31
0
0
LINE
8
0
62
0
10
25.1211725082972
20
120.958
30
0
11
25.1211725082972
21
117.758
31
0
0
LINE
8
0
62
0
10
31.4014656353715
20
0
30
0
11
31.4014656353715
21
6.4
31
0
0
LINE
8
0
62
0
10
31.4014656353715
20
120.958
30
0
11
31.4014656353715
21
114.558
31
0
0
TEXT
8
0
62
0
10
31.4014656353715
20
-12
30
0
40
8
1
2
50
0
0
LINE
8
0
62
0
10
37.6817587624458
20
0
30
0
11
37.6817587624458
21
3.2
31
0
0
LINE
8
0
62
0
10
37.6817587624458
20
120.958
30
0
11
37.6817587624458
21
117.758
31
0
0
LINE
8
0
62
0
10
43.9620518895201
20
0
30
0
11
43.9620518895201
21
3.2
31
0
0
LINE
8
0
62
0
10
43.9620518895201
20
120.958
30
0
11
43.9620518895201
21
117.758
31
0
0
LINE
8
0
62
0
10
50.2423450165944
20
0
30
0
11
50.2423450165944
21
3.2
31
0
0
LINE
8
0
62
0
10
50.2423450165944
20
120.958
30
0
11
50.2423450165944
21
117.758
31
0
0
LINE
8
0
62
0
10
56.5226381436687
20
0
30
0
11
56.5226381436687
21
3.2
31
0
0
LINE
8
0
62
0
10
56.5226381436687
20
120.958
30
0
11
56.5226381436687
21
117.758
31
0
0
LINE
8
0
62
0
10
62.802931270743
20
0
30
0
11
62.802931270743
21
6.4
31
0
0
LINE
8
0
62
0
10
62.802931270743
20
120.958
30
0
11
62.802931270743
21
114.558
31
0
0
TEXT
8
0
62
0
10
62.802931270743
20
-12
30
0
40
8
1
4
50
0
0
LINE
8
0
62
0
10
69.0832243978173
20
0
30
0
11
69.0832243978173
21
3.2
31
0
0
LINE
8
0
62
0
10
69.0832243978173
20
120.958
30
0
11
69.0832243978173
21
117.758
31
0
0
LINE
8
0
62
0
10
75.3635175248916
20
0
30
0
11
75.3635175248916
21
3.2
31
0
0
LINE
8
0
62
0
10
75.3635175248916
20
120.958
30
0
11
75.3635175248916
21
117.758
31
0
0
LINE
8
0
62
0
10
81.6438106519659
20
0
30
0
11
81.6438106519659
21
3.2
31
0
0
LINE
8
0
62
0
10
81.6438106519659
20
120.958
30
0
11
81.6438106519659
21
117.758
31
0
0
LINE
8
0
62
0
10
87.9241037790402
20
0
30
0
11
87.9241037790402
21
3.2
31
0
0
LINE
8
0
62
0
10
87.9241037790402
20
120.958
30
0
11
87.9241037790402
21
117.758
31
0
0
LINE
8
0
62
0
10
94.2043969061145
20
0
30
0
11
94.2043969061145
21
6.4
31
0
0
LINE
8
0
62
0
10
94.2043969061145
20
120.958
30
0
11
94.2043969061145
21
114.558
31
0
0
TEXT
8
0
62
0
10
94.2043969061145
20
-12
30
0
40
8
1
6
50
0
0
LINE
8
0
62
0
10
100.484690033189
20
0
30
0
11
100.484690033189
21
3.2
31
0
0
LINE
8
0
62
0
10
100.484690033189
20
120.958
30
0
11
100.484690033189
21
117.758
31
0
0
LINE
8
0
62
0
10
106.764983160263
20
0
30
0
11
106.764983160263
21
3.2
31
0
0
LINE
8
0
62
0
10
106.764983160263
20
120.958
30
0
11
106.764983160263
21
117.758
31
0
0
LINE
8
0
62
0
10
113.045276287337
20
0
30
0
11
113.045276287337
21
3.2
31
0
0
LINE
8
0
62
0
10
113.045276287337
20
120.958
30
0
11
113.045276287337
21
117.758
31
0
0
LINE
8
0
62
0
10
119.325569414412
20
0
30
0
11
119.325569414412
21
3.2
31
0
0
LINE
8
0
62
0
10
119.325569414412
20
120.958
30
0
11
119.325569414412
21
117.758
31
0
0
LINE
8
0
62
0
10
125.605862541486
20
0
30
0
11
125.605862541486
21
6.4
31
0
0
LINE
8
0
62
0
10
125.605862541486
20
120.958
30
0
11
125.605862541486
21
114.558
31
0
0
TEXT
8
0
62
0
10
125.605862541486
20
-12
30
0
40
8
1
8
50
0
0
LINE
8
0
62
0
10
131.88615566856
20
0
30
0
11
131.88615566856
21
3.2
31
0
0
LINE
8
0
62
0
10
131.88615566856
20
120.958
30
0
11
131.88615566856
21
117.758
31
0
0
LINE
8
0
62
0
10
138.166448795635
20
0
30
0
11
138.166448795635
21
3.2
31
0
0
LINE
8
0
62
0
10
138.166448795635
20
120.958
30
0
11
138.166448795635
21
117.758
31
0
0
LINE
8
0
62
0
10
144.446741922709
20
0
30
0
11
144.446741922709
21
3.2
31
0
0
LINE
8
0
62
0
10
144.446741922709
20
120.958
30
0
11
144.446741922709
21
117.758
31
0
0
LINE
8
0
62
0
10
150.727035049783
20
0
30
0
11
150.727035049783
21
3.2
31
0
0
LINE
8
0
62
0
10
150.727035049783
20
120.958
30
0
11
150.727035049783
21
117.758
31
0
0
LINE
8
0
62
0
10
157.007328176857
20
0
30
0
11
157.007328176857
21
6.4
31
0
0
LINE
8
0
62
0
10
157.007328176857
20
120.958
30
0
11
157.007328176857
21
114.558
31
0
0
TEXT
8
0
62
0
10
157.007328176857
20
-12
30
0
40
8
1
10
50
0
0
LINE
8
0
62
0
10
163.287621303932
20
0
30
0
11
163.287621303932
21
3.2
31
0
0
LINE
8
0
62
0
10
163.287621303932
20
120.958
30
0
11
163.287621303932
21
117.758
31
0
0
LINE
8
0
62
0
10
169.567914431006
20
0
30
0
11
169.567914431006
21
3.2
31
0
0
LINE
8
0
62
0
10
169.567914431006
20
120.958
30
0
11
169.567914431006
21
117.758
31
0
0
LINE
8
0
62
0
10
175.84820755808
20
0
30
0
11
175.84820755808
21
3.2
31
0
0
LINE
8
0
62
0
10
175.84820755808
20
120.958
30
0
11
175.84820755808
21
117.758
31
0
0
TEXT
8
0
62
0
10
-4
20
-4
30
0
40
8
1
0
50
0
0
LINE
8
0
62
0
10
0
20
4.83832
30
0
11
3.2
21
4.83832
31
0
0
LINE
8
0
62
0
10
179.2
20
4.83832
30
0
11
176
21
4.83832
31
0
0
LINE
8
0
62
0
10
0
20
9.67664
30
0
11
3.2
21
9.67664
31
0
0
LINE
8
0
62
0
10
179.2
20
9.67664
30
0
11
176
21
9.67664
31
0
0
LINE
8
0
62
0
10
0
20
14.51496
30
0
11
3.2
21
14.51496
31
0
0
LINE
8
0
62
0
10
179.2
20
14.51496
30
0
11
176
21
14.51496
31
0
0
LINE
8
0
62
0
10
0
20
19.35328
30
0
11
3.2
21
19.35328
31
0
0
LINE
8
0
62
0
10
179.2
20
19.35328
30
0
11
176
21
19.35328
31
0
0
LINE
8
0
62
0
10
0
20
24.1916
30
0
11
6.4
21
24.1916
31
0
0
LINE
8
0
62
0
10
179.2
20
24.1916
30
0
11
172.8
21
24.1916
31
0
0
TEXT
8
0
62
0
10
-4
20
20.1916
30
0
40
8
1
20
50
0
0
LINE
8
0
62
0
10
0
20
29.02992
30
0
11
3.2
21
29.02992
31
0
0
LINE
8
0
62
0
10
179.2
20
29.02992
30
0
11
176
21
29.02992
31
0
0
LINE
8
0
62
0
10
0
20
33.86824
30
0
11
3.2
21
33.86824
31
0
0
LINE
8
0
62
0
10
179.2
20
33.86824
30
0
11
176
21
33.86824
31
0
0
LINE
8
0
62
0
10
0
20
38.70656
30
0
11
3.2
21
38.70656
31
0
0
LINE
8
0
62
0
10
179.2
20
38.70656
30
0
11
176
21
38.70656
31
0
0
LINE
8
0
62
0
10
0
20
43.54488
30
0
11
3.2
21
43.54488
31
0
0
LINE
8
0
62
0
10
179.2
20
43.54488
30
0
11
176
21
43.54488
31
0
0
LINE
8
0
62
0
10
0
20
48.3832
30
0
11
6.4
21
48.3832
31
0
0
LINE
8
0
62
0
10
179.2
20
48.3832
30
0
11
172.8
21
48.3832
31
0
0
TEXT
8
0
62
0
10
-4
20
44.3832
30
0
40
8
1
40
50
0
0
LINE
8
0
62
0
10
0
20
53.22152
30
0
11
3.2
21
53.22152
31
0
0
LINE
8
0
62
0
10
179.2
20
53.22152
30
0
11
176
21
53.22152
31
0
0
LINE
8
0
62
0
10
0
20
58.05984
30
0
11
3.2
21
58.05984
31
0
0
LINE
8
0
62
0
10
179.2
20
58.05984
30
0
11
176
21
58.05984
31
0
0
LINE
8
0
62
0
10
0
20
62.89816
30
0
11
3.2
21
62.89816
31
0
0
LINE
8
0
62
0
10
179.2
20
62.89816
30
0
11
176
21
62.89816
31
0
0
LINE
8
0
62
0
10
0
20
67.73648
30
0
11
3.2
21
67.73648
31
0
0
LINE
8
0
62
0
10
179.2
20
67.73648
30
0
11
176
21
67.73648
31
0
0
LINE
8
0
62
0
10
0
20
72.5748
30
0
11
6.4
21
72.5748
31
0
0
LINE
8
0
62
0
10
179.2
20
72.5748
30
0
11
172.8
21
72.5748
31
0
0
TEXT
8
0
62
0
10
-4
20
68.5748
30
0
40
8
1
60
50
0
0
LINE
8
0
62
0
10
0
20
77.41312
30
0
11
3.2
21
77.41312
31
0
0
LINE
8
0
62
0
10
179.2
20
77.41312
30
0
11
176
21
77.41312
31
0
0
LINE
8
0
62
0
10
0
20
82.25144
30
0
11
3.2
21
82.25144
31
0
0
LINE
8
0
62
0
10
179.2
20
82.25144
30
0
11
176
21
82.25144
31
0
0
LINE
8
0
62
0
10
0
20
87.08976
30
0
11
3.2
21
87.08976
31
0
0
LINE
8
0
62
0
10
179.2
20
87.08976
30
0
11
176
21
87.08976
31
0
0
LINE
8
0
62
0
10
0
20
91.92808
30
0
11
3.2
21
91.92808
31
0
0
LINE
8
0
62
0
10
179.2
20
91.92808
30
0
11
176
21
91.92808
31
0
0
LINE
8
0
62
0
10
0
20
96.7664
30
0
11
6.4
21
96.7664
31
0
0
LINE
8
0
62
0
10
179.2
20
96.7664
30
0
11
172.8
21
96.7664
31
0
0
TEXT
8
0
62
0
10
-4
20
92.7664
30
0
40
8
1
80
50
0
0
LINE
8
0
62
0
10
0
20
101.60472
30
0
11
3.2
21
101.60472
31
0
0
LINE
8
0
62
0
10
179.2
20
101.60472
30
0
11
176
21
101.60472
31
0
0
LINE
8
0
62
0
10
0
20
106.44304
30
0
11
3.2
21
106.44304
31
0
0
LINE
8
0
62
0
10
179.2
20
106.44304
30
0
11
176
21
106.44304
31
0
0
LINE
8
0
62
0
10
0
20
111.28136
30
0
11
3.2
21
111.28136
31
0
0
LINE
8
0
62
0
10
179.2
20
111.28136
30
0
11
176
21
111.28136
31
0
0
LINE
8
0
62
0
10
0
20
116.11968
30
0
11
3.2
21
116.11968
31
0
0
LINE
8
0
62
0
10
179.2
20
116.11968
30
0
11
176
21
116.11968
31
0
0
TEXT
8
0
62
0
10
-4
20
116.958
30
0
40
8
1
100
50
0
0
TEXT
8
0
62
0
10
89.6
20
-32
30
0
40
10
1
R (kpc)
50
0
0
TEXT
8
0
62
0
10
-24
20
60.479
30
0
40
10
1
V (km/s)
50
90
0
TEXT
8
0
62
0
10
72.6
20
135.958
30
0
40
11
1
V vs. R
50
0
0
POLYLINE
8
0
62
5
70
0
10
0
20
0
30
0
0
VERTEX
8
0
10
6.2802931270743
20
35.6077152780183
30
0
0
VERTEX
8
0
10
7.06532976795859
20
36.0878445467968
30
0
0
VERTEX
8
0
10
7.85036640884288
20
36.5679738155753
30
0
0
VERTEX
8
0
10
8.63540304972716
20
37.0481030843538
30
0
0
VERTEX
8
0
10
9.42043969061145
20
37.3045024517974
30
0
0
VERTEX
8
0
10
10.2054763314957
20
37.4667082858442
30
0
0
VERTEX
8
0
10
10.99051297238
20
37.628914119891
30
0
0
VERTEX
8
0
10
11.7755496132643
20
37.7911199539378
30
0
0
VERTEX
8
0
10
12.5605862541486
20
37.4146582390806
30
0
0
VERTEX
8
0
10
13.3456228950329
20
37.1745936046913
30
0
0
VERTEX
8
0
10
14.1306595359172
20
36.9345289703021
30
0
0
VERTEX
8
0
10
14.9156961768015
20
36.6407254418608
30
0
0
VERTEX
8
0
10
15.7007328176858
20
36.3455108238957
30
0
0
VERTEX
8
0
10
16.4857694585701
20
36.0502962059305
30
0
0
VERTEX
8
0
10
17.2708060994543
20
35.7293659019521
30
0
0
VERTEX
8
0
10
18.0558427403386
20
35.3919777671348
30
0
0
VERTEX
8
0
10
18.8408793812229
20
35.0545896323175
30
0
0
VERTEX
8
0
10
19.6259160221072
20
34.7172014975001
30
0
0
VERTEX
8
0
10
20.4109526629915
20
34.359617039419
30
0
0
VERTEX
8
0
10
21.1959893038758
20
34.006008321197
30
0
0
VERTEX
8
0
10
21.9810259447601
20
33.652399602975
30
0
0
VERTEX
8
0
10
22.7660625856444
20
33.2845094700967
30
0
0
VERTEX
8
0
10
23.5510992265286
20
32.91468016847
30
0
0
VERTEX
8
0
10
24.3361358674129
20
32.5448508668433
30
0
0
VERTEX
8
0
10
25.1211725082972
20
32.1884079748947
30
0
0
VERTEX
8
0
10
25.9062091491815
20
31.8445316067155
30
0
0
VERTEX
8
0
10
26.6912457900658
20
31.5006552385363
30
0
0
VERTEX
8
0
10
27.4762824309501
20
31.1567788703571
30
0
0
VERTEX
8
0
10
28.2613190718344
20
30.8315746830239
30
0
0
VERTEX
8
0
10
29.0463557127187
20
30.5039188982494
30
0
0
VERTEX
8
0
10
29.831392353603
20
30.1762631134749
30
0
0
VERTEX
8
0
10
30.6164289944872
20
29.8715704187297
30
0
0
VERTEX
8
0
10
31.4014656353715
20
29.5731116840836
30
0
0
VERTEX
8
0
10
32.1865022762558
20
29.2746529494375
30
0
0
VERTEX
8
0
10
32.9715389171401
20
28.9761942147914
30
0
0
VERTEX
8
0
10
33.7565755580244
20
28.700798427181
30
0
0
VERTEX
8
0
10
34.5416121989087
20
28.4185602759396
30
0
0
VERTEX
8
0
10
35.326648839793
20
28.1363221246982
30
0
0
VERTEX
8
0
10
36.1116854806772
20
27.8849504426275
30
0
0
VERTEX
8
0
10
36.8967221215615
20
27.6319093415145
30
0
0
VERTEX
8
0
10
37.6817587624458
20
27.3788682404015
30
0
0
VERTEX
8
0
10
38.4667954033301
20
27.1348136431451
30
0
0
VERTEX
8
0
10
39.2518320442144
20
26.8947490087558
30
0
0
VERTEX
8
0
10
40.0368686850987
20
26.6546843743666
30
0
0
VERTEX
8
0
10
40.8219053259829
20
26.4146197399773
30
0
0
VERTEX
8
0
10
41.6069419668672
20
26.1874783883588
30
0
0
VERTEX
8
0
10
42.3919786077515
20
25.9571461040123
30
0
0
VERTEX
8
0
10
43.1770152486358
20
25.7268138196659
30
0
0
VERTEX
8
0
10
43.9620518895201
20
25.5089806521278
30
0
0
VERTEX
8
0
10
44.7470885304044
20
25.2916248345051
30
0
0
VERTEX
8
0
10
45.5321251712887
20
25.0742690168824
30
0
0
VERTEX
8
0
10
46.3171618121729
20
24.8569131992597
30
0
0
VERTEX
8
0
10
47.1021984530572
20
24.639557381637
30
0
0
VERTEX
8
0
10
47.8872350939415
20
24.4222015640143
30
0
0
VERTEX
8
0
10
48.6722717348258
20
24.2048457463916
30
0
0
VERTEX
8
0
10
49.4573083757101
20
24.007504590969
30
0
0
VERTEX
8
0
10
50.2423450165944
20
23.8063693567509
30
0
0
VERTEX
8
0
10
51.0273816574786
20
23.6052341225329
30
0
0
VERTEX
8
0
10
51.8124182983629
20
23.4097387897519
30
0
0
VERTEX
8
0
10
52.5974549392472
20
23.2150917888958
30
0
0
VERTEX
8
0
10
53.3824915801315
20
23.0204447880396
30
0
0
VERTEX
8
0
10
54.1675282210158
20
22.8356196011656
30
0
0
VERTEX
8
0
10
54.9525648619001
20
22.660437300395
30
0
0
VERTEX
8
0
10
55.7376015027844
20
22.4852549996245
30
0
0
VERTEX
8
0
10
56.5226381436686
20
22.310072698854
30
0
0
VERTEX
8
0
10
57.3076747845529
20
22.1459847099528
30
0
0
VERTEX
8
0
10
58.0927114254372
20
21.9805347592251
30
0
0
VERTEX
8
0
10
58.8777480663215
20
21.8150848084973
30
0
0
VERTEX
8
0
10
59.6627847072058
20
21.6596953467094
30
0
0
VERTEX
8
0
10
60.4478213480901
20
21.5072218627055
30
0
0
VERTEX
8
0
10
61.2328579889744
20
21.3547483787015
30
0
0
VERTEX
8
0
10
62.0178946298586
20
21.2022748946975
30
0
0
VERTEX
8
0
10
62.8029312707429
20
21.0589539250823
30
0
0
VERTEX
8
0
10
63.5879679116272
20
20.9129686744402
30
0
0
VERTEX
8
0
10
64.3730045525115
20
20.7669834237981
30
0
0
VERTEX
8
0
10
65.1580411933958
20
20.6277847241017
30
0
0
VERTEX
8
0
10
65.9430778342801
20
20.4882877068215
30
0
0
VERTEX
8
0
10
66.7281144751644
20
20.3487906895412
30
0
0
VERTEX
8
0
10
67.5131511160486
20
20.2181348472666
30
0
0
VERTEX
8
0
10
68.2981877569329
20
20.0916142967101
30
0
0
VERTEX
8
0
10
69.0832243978172
20
19.9650937461536
30
0
0
VERTEX
8
0
10
69.8682610387015
20
19.8385731955971
30
0
0
VERTEX
8
0
10
70.6532976795858
20
19.7205955024623
30
0
0
VERTEX
8
0
10
71.4383343204701
20
19.6005631852676
30
0
0
VERTEX
8
0
10
72.2233709613543
20
19.480530868073
30
0
0
VERTEX
8
0
10
73.0084076022386
20
19.385206126793
30
0
0
VERTEX
8
0
10
73.7934442431229
20
19.2911267430459
30
0
0
VERTEX
8
0
10
74.5784808840072
20
19.1970473592987
30
0
0
VERTEX
8
0
10
75.3635175248915
20
19.0801023923376
30
0
0
VERTEX
8
0
10
76.1485541657758
20
18.9470936084193
30
0
0
VERTEX
8
0
10
76.9335908066601
20
18.8140848245009
30
0
0
VERTEX
8
0
10
77.7186274475444
20
18.6810760405825
30
0
0
VERTEX
8
0
10
78.5036640884286
20
18.5956664593914
30
0
0
VERTEX
8
0
10
79.2887007293129
20
18.5015870756442
30
0
0
VERTEX
8
0
10
80.0737373701972
20
18.4075076918971
30
0
0
VERTEX
8
0
10
80.8587740110815
20
18.31342830815
30
0
0
VERTEX
8
0
10
81.6438106519658
20
18.2193489244028
30
0
0
VERTEX
8
0
10
82.4288472928501
20
18.1252695406557
30
0
0
VERTEX
8
0
10
83.2138839337343
20
18.0311901569085
30
0
0
VERTEX
8
0
10
83.9989205746186
20
17.9419555266266
30
0
0
VERTEX
8
0
10
84.7839572155029
20
17.8511202595604
30
0
0
VERTEX
8
0
10
85.5689938563872
20
17.7602849924942
30
0
0
VERTEX
8
0
10
86.3540304972715
20
17.6767732689154
30
0
0
VERTEX
8
0
10
87.1390671381558
20
17.5924262352111
30
0
0
VERTEX
8
0
10
87.9241037790401
20
17.5080792015068
30
0
0
VERTEX
8
0
10
88.7091404199243
20
17.4286897478468
30
0
0
VERTEX
8
0
10
89.4941770608086
20
17.3508309475044
30
0
0
VERTEX
8
0
10
90.2792137016929
20
17.2729721471619
30
0
0
VERTEX
8
0
10
91.0642503425772
20
17.1951133468194
30
0
0
VERTEX
8
0
10
91.8492869834615
20
17.117254546477
30
0
0
VERTEX
8
0
10
92.6343236243458
20
17.0393957461345
30
0
0
VERTEX
8
0
10
93.41936026523
20
16.9615369457921
30
0
0
VERTEX
8
0
10
94.2043969061143
20
16.8836781454496
30
0
0
VERTEX
8
0
10
94.9894335469986
20
16.8058193451072
30
0
0
VERTEX
8
0
10
95.7744701878829
20
16.7279605447647
30
0
0
VERTEX
8
0
10
96.5595068287672
20
16.6544496674995
30
0
0
VERTEX
8
0
10
97.3445434696515
20
16.5830791005189
30
0
0
VERTEX
8
0
10
98.1295801105358
20
16.5117085335384
30
0
0
VERTEX
8
0
10
98.91461675142
20
16.4403379665578
30
0
0
VERTEX
8
0
10
99.6996533923043
20
16.3774375925733
30
0
0
VERTEX
8
0
10
100.484690033189
20
16.3125552589546
30
0
0
VERTEX
8
0
10
101.269726674073
20
16.2476729253359
30
0
0
VERTEX
8
0
10
102.054763314957
20
16.176686362164
30
0
0
VERTEX
8
0
10
102.839799955841
20
16.1053157951834
30
0
0
VERTEX
8
0
10
103.624836596726
20
16.0339452282029
30
0
0
VERTEX
8
0
10
104.40987323761
20
15.9700511934426
30
0
0
VERTEX
8
0
10
105.194909878494
20
15.9116570931858
30
0
0
VERTEX
8
0
10
105.979946519379
20
15.8532629929289
30
0
0
VERTEX
8
0
10
106.764983160263
20
15.7948688926721
30
0
0
VERTEX
8
0
10
107.550019801147
20
15.7364747924152
30
0
0
VERTEX
8
0
10
108.335056442031
20
15.6780806921584
30
0
0
VERTEX
8
0
10
109.120093082916
20
15.6196865919015
30
0
0
VERTEX
8
0
10
109.9051297238
20
15.5667870642307
30
0
0
VERTEX
8
0
10
110.690166364684
20
15.5148811973358
30
0
0
VERTEX
8
0
10
111.475203005569
20
15.4629753304408
30
0
0
VERTEX
8
0
10
112.260239646453
20
15.4110694635458
30
0
0
VERTEX
8
0
10
113.045276287337
20
15.3447383328935
30
0
0
VERTEX
8
0
10
113.830312928221
20
15.2831001159557
30
0
0
VERTEX
8
0
10
114.615349569106
20
15.2214618990179
30
0
0
VERTEX
8
0
10
115.40038620999
20
15.1598236820801
30
0
0
VERTEX
8
0
10
116.185422850874
20
15.0981854651423
30
0
0
VERTEX
8
0
10
116.970459491759
20
15.0365472482046
30
0
0
VERTEX
8
0
10
117.755496132643
20
14.9871213203141
30
0
0
VERTEX
8
0
10
118.540532773527
20
14.941703686781
30
0
0
VERTEX
8
0
10
119.325569414411
20
14.8962860532479
30
0
0
VERTEX
8
0
10
120.110606055296
20
14.8508684197148
30
0
0
VERTEX
8
0
10
120.89564269618
20
14.8144579717195
30
0
0
VERTEX
8
0
10
121.680679337064
20
14.7755285715482
30
0
0
VERTEX
8
0
10
122.465715977949
20
14.736599171377
30
0
0
VERTEX
8
0
10
123.250752618833
20
14.6677842717792
30
0
0
VERTEX
8
0
10
124.035789259717
20
14.5996578214795
30
0
0
VERTEX
8
0
10
124.820825900601
20
14.5315313711799
30
0
0
VERTEX
8
0
10
125.605862541486
20
14.4847812141392
30
0
0
VERTEX
8
0
10
126.39089918237
20
14.4490959306489
30
0
0
VERTEX
8
0
10
127.175935823254
20
14.4134106471586
30
0
0
VERTEX
8
0
10
127.960972464139
20
14.3777253636684
30
0
0
VERTEX
8
0
10
128.746009105023
20
14.3420400801781
30
0
0
VERTEX
8
0
10
129.531045745907
20
14.3063547966878
30
0
0
VERTEX
8
0
10
130.316082386792
20
14.2706695131975
30
0
0
VERTEX
8
0
10
131.101119027676
20
14.2108579691965
30
0
0
VERTEX
8
0
10
131.88615566856
20
14.1492197522587
30
0
0
VERTEX
8
0
10
132.671192309444
20
14.0875815353209
30
0
0
VERTEX
8
0
10
133.456228950329
20
14.0461041276488
30
0
0
VERTEX
8
0
10
134.241265591213
20
14.0201511942014
30
0
0
VERTEX
8
0
10
135.026302232097
20
13.9941982607539
30
0
0
VERTEX
8
0
10
135.811338872982
20
13.9682453273064
30
0
0
VERTEX
8
0
10
136.596375513866
20
13.9072469716429
30
0
0
VERTEX
8
0
10
137.38141215475
20
13.852096988067
30
0
0
VERTEX
8
0
10
138.166448795634
20
13.7969470044911
30
0
0
VERTEX
8
0
10
138.951485436519
20
13.7634846535574
30
0
0
VERTEX
8
0
10
139.736522077403
20
13.734287603429
30
0
0
VERTEX
8
0
10
140.521558718287
20
13.7050905533006
30
0
0
VERTEX
8
0
10
141.306595359172
20
13.6758935031721
30
0
0
VERTEX
8
0
10
142.091632000056
20
13.6276080968849
30
0
0
VERTEX
8
0
10
142.87666864094
20
13.5854345800327
30
0
0
VERTEX
8
0
10
143.661705281825
20
13.5432610631805
30
0
0
VERTEX
8
0
10
144.446741922709
20
13.5082657609648
30
0
0
VERTEX
8
0
10
145.231778563593
20
13.4725804774745
30
0
0
VERTEX
8
0
10
146.016815204477
20
13.4368951939842
30
0
0
VERTEX
8
0
10
146.801851845362
20
13.4012099104939
30
0
0
VERTEX
8
0
10
147.586888486246
20
13.3655246270036
30
0
0
VERTEX
8
0
10
148.37192512713
20
13.3298393435133
30
0
0
VERTEX
8
0
10
149.156961768015
20
13.294154060023
30
0
0
VERTEX
8
0
10
149.941998408899
20
13.2495342554204
30
0
0
VERTEX
8
0
10
150.727035049783
20
13.2073607385683
30
0
0
VERTEX
8
0
10
151.512071690668
20
13.1651872217161
30
0
0
VERTEX
8
0
10
152.297108331552
20
13.1361508202025
30
0
0
VERTEX
8
0
10
153.082144972436
20
13.1069537700741
30
0
0
VERTEX
8
0
10
153.86718161332
20
13.0777567199457
30
0
0
VERTEX
8
0
10
154.652218254205
20
13.0674713438357
30
0
0
VERTEX
8
0
10
155.437254895089
20
13.0674713438357
30
0
0
SEQEND
8
0
0
POLYLINE
8
0
62
6
70
0
10
0
20
0
30
0
0
VERTEX
8
0
10
6.2802931270743
20
5.81928525268151
30
0
0
VERTEX
8
0
10
7.06532976795859
20
6.451888005464
30
0
0
VERTEX
8
0
10
7.85036640884288
20
7.08449075824648
30
0
0
VERTEX
8
0
10
8.63540304972716
20
7.71709351102897
30
0
0
VERTEX
8
0
10
9.42043969061145
20
8.32001780751193
30
0
0
VERTEX
8
0
10
10.2054763314957
20
8.91044704344225
30
0
0
VERTEX
8
0
10
10.99051297238
20
9.50087627937257
30
0
0
VERTEX
8
0
10
11.7755496132643
20
10.0913055153029
30
0
0
VERTEX
8
0
10
12.5605862541486
20
10.5557560502799
30
0
0
VERTEX
8
0
10
13.3456228950329
20
11.052105902463
30
0
0
VERTEX
8
0
10
14.1306595359172
20
11.5484557546462
30
0
0
VERTEX
8
0
10
14.9156961768015
20
11.9468111529699
30
0
0
VERTEX
8
0
10
15.7007328176858
20
12.342593388044
30
0
0
VERTEX
8
0
10
16.4857694585701
20
12.7383756231182
30
0
0
VERTEX
8
0
10
17.2708060994543
20
13.0629451892327
30
0
0
VERTEX
8
0
10
18.0558427403386
20
13.3419392237932
30
0
0
VERTEX
8
0
10
18.8408793812229
20
13.6209332583536
30
0
0
VERTEX
8
0
10
19.6259160221072
20
13.8999272929141
30
0
0
VERTEX
8
0
10
20.4109526629915
20
14.053704123239
30
0
0
VERTEX
8
0
10
21.1959893038758
20
14.2321305406905
30
0
0
VERTEX
8
0
10
21.9810259447601
20
14.4105569581419
30
0
0
VERTEX
8
0
10
22.7660625856444
20
14.4947260388618
30
0
0
VERTEX
8
0
10
23.5510992265286
20
14.5660966058423
30
0
0
VERTEX
8
0
10
24.3361358674129
20
14.6374671728229
30
0
0
VERTEX
8
0
10
25.1211725082972
20
14.6837382216571
30
0
0
VERTEX
8
0
10
25.9062091491815
20
14.7064470384236
30
0
0
VERTEX
8
0
10
26.6912457900658
20
14.7291558551902
30
0
0
VERTEX
8
0
10
27.4762824309501
20
14.7518646719567
30
0
0
VERTEX
8
0
10
28.2613190718344
20
14.8268555950921
30
0
0
VERTEX
8
0
10
29.0463557127187
20
14.8949820453917
30
0
0
VERTEX
8
0
10
29.831392353603
20
14.9631084956914
30
0
0
VERTEX
8
0
10
30.6164289944872
20
14.980205857037
30
0
0
VERTEX
8
0
10
31.4014656353715
20
14.9834499737179
30
0
0
VERTEX
8
0
10
32.1865022762558
20
14.9866940903989
30
0
0
VERTEX
8
0
10
32.9715389171401
20
14.9899382070798
30
0
0
VERTEX
8
0
10
33.7565755580244
20
14.9885697343536
30
0
0
VERTEX
8
0
10
34.5416121989087
20
14.9885697343536
30
0
0
VERTEX
8
0
10
35.326648839793
20
14.9885697343536
30
0
0
VERTEX
8
0
10
36.1116854806772
20
14.9885697343536
30
0
0
VERTEX
8
0
10
36.8967221215615
20
14.9885697343536
30
0
0
VERTEX
8
0
10
37.6817587624458
20
14.9885697343536
30
0
0
VERTEX
8
0
10
38.4667954033301
20
14.9885697343536
30
0
0
VERTEX
8
0
10
39.2518320442144
20
14.9885697343536
30
0
0
VERTEX
8
0
10
40.0368686850987
20
14.9885697343536
30
0
0
VERTEX
8
0
10
40.8219053259829
20
14.9885697343536
30
0
0
VERTEX
8
0
10
41.6069419668672
20
14.9067222768057
30
0
0
VERTEX
8
0
10
42.3919786077515
20
14.8450840598679
30
0
0
VERTEX
8
0
10
43.1770152486358
20
14.7834458429301
30
0
0
VERTEX
8
0
10
43.9620518895201
20
14.7311819635985
30
0
0
VERTEX
8
0
10
44.7470885304044
20
14.6792760967036
30
0
0
VERTEX
8
0
10
45.5321251712887
20
14.6273702298086
30
0
0
VERTEX
8
0
10
46.3171618121729
20
14.5890569452777
30
0
0
VERTEX
8
0
10
47.1021984530572
20
14.5598598951493
30
0
0
VERTEX
8
0
10
47.8872350939415
20
14.5306628450208
30
0
0
VERTEX
8
0
10
48.6722717348258
20
14.5014657948924
30
0
0
VERTEX
8
0
10
49.4573083757101
20
14.5082951367241
30
0
0
VERTEX
8
0
10
50.2423450165944
20
14.5082951367241
30
0
0
VERTEX
8
0
10
51.0273816574786
20
14.5082951367241
30
0
0
VERTEX
8
0
10
51.8124182983629
20
14.5421345453463
30
0
0
VERTEX
8
0
10
52.5974549392472
20
14.5810639455175
30
0
0
VERTEX
8
0
10
53.3824915801315
20
14.6199933456888
30
0
0
VERTEX
8
0
10
54.1675282210158
20
14.6883881878063
30
0
0
VERTEX
8
0
10
54.9525648619001
20
14.7857116882344
30
0
0
VERTEX
8
0
10
55.7376015027844
20
14.8830351886624
30
0
0
VERTEX
8
0
10
56.5226381436686
20
14.9803586890905
30
0
0
VERTEX
8
0
10
57.3076747845529
20
15.1331537488654
30
0
0
VERTEX
8
0
10
58.0927114254372
20
15.2791389995075
30
0
0
VERTEX
8
0
10
58.8777480663215
20
15.4251242501496
30
0
0
VERTEX
8
0
10
59.6627847072058
20
15.5887153564364
30
0
0
VERTEX
8
0
10
60.4478213480901
20
15.7574094238451
30
0
0
VERTEX
8
0
10
61.2328579889744
20
15.9261034912537
30
0
0
VERTEX
8
0
10
62.0178946298586
20
16.0947975586624
30
0
0
VERTEX
8
0
10
62.8029312707429
20
16.3046779408206
30
0
0
VERTEX
8
0
10
63.5879679116272
20
16.5025690583576
30
0
0
VERTEX
8
0
10
64.3730045525115
20
16.7004601758947
30
0
0
VERTEX
8
0
10
65.1580411933958
20
16.9085311198505
30
0
0
VERTEX
8
0
10
65.9430778342801
20
17.1161545874304
30
0
0
VERTEX
8
0
10
66.7281144751644
20
17.3237780550103
30
0
0
VERTEX
8
0
10
67.5131511160486
20
17.5004574100707
30
0
0
VERTEX
8
0
10
68.2981877569329
20
17.6626632441175
30
0
0
VERTEX
8
0
10
69.0832243978172
20
17.8248690781643
30
0
0
VERTEX
8
0
10
69.8682610387015
20
17.987074912211
30
0
0
VERTEX
8
0
10
70.6532976795858
20
18.1364664601254
30
0
0
VERTEX
8
0
10
71.4383343204701
20
18.2889399441293
30
0
0
VERTEX
8
0
10
72.2233709613543
20
18.4414134281333
30
0
0
VERTEX
8
0
10
73.0084076022386
20
18.4641721385854
30
0
0
VERTEX
8
0
10
73.7934442431229
20
18.4803927219901
30
0
0
VERTEX
8
0
10
74.5784808840072
20
18.4966133053948
30
0
0
VERTEX
8
0
10
75.3635175248915
20
18.6252061957786
30
0
0
VERTEX
8
0
10
76.1485541657758
20
18.8327442918669
30
0
0
VERTEX
8
0
10
76.9335908066601
20
19.0402823879552
30
0
0
VERTEX
8
0
10
77.7186274475444
20
19.2478204840435
30
0
0
VERTEX
8
0
10
78.5036640884286
20
19.2036554395939
30
0
0
VERTEX
8
0
10
79.2887007293129
20
19.1824462616704
30
0
0
VERTEX
8
0
10
80.0737373701972
20
19.1612370837469
30
0
0
VERTEX
8
0
10
80.8587740110815
20
19.1359575202726
30
0
0
VERTEX
8
0
10
81.6438106519658
20
19.1100045868251
30
0
0
VERTEX
8
0
10
82.4288472928501
20
19.0840516533776
30
0
0
VERTEX
8
0
10
83.2138839337343
20
19.0580987199301
30
0
0
VERTEX
8
0
10
83.9989205746186
20
18.9982325122262
30
0
0
VERTEX
8
0
10
84.7839572155029
20
18.9495707620121
30
0
0
VERTEX
8
0
10
85.5689938563872
20
18.9009090117981
30
0
0
VERTEX
8
0
10
86.3540304972715
20
18.8815414355337
30
0
0
VERTEX
8
0
10
87.1390671381558
20
18.8588326187672
30
0
0
VERTEX
8
0
10
87.9241037790401
20
18.8361238020006
30
0
0
VERTEX
8
0
10
88.7091404199243
20
18.788627085012
30
0
0
VERTEX
8
0
10
89.4941770608086
20
18.7334771014361
30
0
0
VERTEX
8
0
10
90.2792137016929
20
18.6783271178602
30
0
0
VERTEX
8
0
10
91.0642503425772
20
18.6231771342843
30
0
0
VERTEX
8
0
10
91.8492869834615
20
18.6225062504881
30
0
0
VERTEX
8
0
10
92.6343236243458
20
18.6062856670834
30
0
0
VERTEX
8
0
10
93.41936026523
20
18.5900650836787
30
0
0
VERTEX
8
0
10
94.2043969061143
20
18.6007000463552
30
0
0
VERTEX
8
0
10
94.9894335469986
20
18.610432396398
30
0
0
VERTEX
8
0
10
95.7744701878829
20
18.6201647464408
30
0
0
VERTEX
8
0
10
96.5595068287672
20
18.6646804811019
30
0
0
VERTEX
8
0
10
97.3445434696515
20
18.7263186980397
30
0
0
VERTEX
8
0
10
98.1295801105358
20
18.7879569149775
30
0
0
VERTEX
8
0
10
98.91461675142
20
18.8495951319153
30
0
0
VERTEX
8
0
10
99.6996533923043
20
18.9620545068301
30
0
0
VERTEX
8
0
10
100.484690033189
20
19.0626221239391
30
0
0
VERTEX
8
0
10
101.269726674073
20
19.1631897410481
30
0
0
VERTEX
8
0
10
102.054763314957
20
19.2820700468166
30
0
0
VERTEX
8
0
10
102.839799955841
20
19.4021023640112
30
0
0
VERTEX
8
0
10
103.624836596726
20
19.5221346812058
30
0
0
VERTEX
8
0
10
104.40987323761
20
19.6571200628411
30
0
0
VERTEX
8
0
10
105.194909878494
20
19.8031053134832
30
0
0
VERTEX
8
0
10
105.979946519379
20
19.9490905641254
30
0
0
VERTEX
8
0
10
106.764983160263
20
20.0950758147675
30
0
0
VERTEX
8
0
10
107.550019801147
20
20.2489216014386
30
0
0
VERTEX
8
0
10
108.335056442031
20
20.4013950854426
30
0
0
VERTEX
8
0
10
109.120093082916
20
20.5538685694466
30
0
0
VERTEX
8
0
10
109.9051297238
20
20.6926056219855
30
0
0
VERTEX
8
0
10
110.690166364684
20
20.8288585225848
30
0
0
VERTEX
8
0
10
111.475203005569
20
20.9651114231841
30
0
0
VERTEX
8
0
10
112.260239646453
20
21.1013643237834
30
0
0
VERTEX
8
0
10
113.045276287337
20
21.2039582756155
30
0
0
VERTEX
8
0
10
113.830312928221
20
21.3175023594482
30
0
0
VERTEX
8
0
10
114.615349569106
20
21.431046443281
30
0
0
VERTEX
8
0
10
115.40038620999
20
21.4370358210286
30
0
0
VERTEX
8
0
10
116.185422850874
20
21.4543377766603
30
0
0
VERTEX
8
0
10
116.970459491759
20
21.4716397322919
30
0
0
VERTEX
8
0
10
117.755496132643
20
21.4921982983362
30
0
0
VERTEX
8
0
10
118.540532773527
20
21.5138257428758
30
0
0
VERTEX
8
0
10
119.325569414411
20
21.5354531874153
30
0
0
VERTEX
8
0
10
120.110606055296
20
21.5570806319549
30
0
0
VERTEX
8
0
10
120.89564269618
20
21.6207416090042
30
0
0
VERTEX
8
0
10
121.680679337064
20
21.6726474758992
30
0
0
VERTEX
8
0
10
122.465715977949
20
21.7245533427941
30
0
0
VERTEX
8
0
10
123.250752618833
20
21.7930622649261
30
0
0
VERTEX
8
0
10
124.035789259717
20
21.8611887152257
30
0
0
VERTEX
8
0
10
124.820825900601
20
21.9293151655254
30
0
0
VERTEX
8
0
10
125.605862541486
20
21.999579245151
30
0
0
VERTEX
8
0
10
126.39089918237
20
22.0709498121315
30
0
0
VERTEX
8
0
10
127.175935823254
20
22.1423203791121
30
0
0
VERTEX
8
0
10
127.960972464139
20
22.2136909460927
30
0
0
VERTEX
8
0
10
128.746009105023
20
22.2850615130733
30
0
0
VERTEX
8
0
10
129.531045745907
20
22.3564320800539
30
0
0
VERTEX
8
0
10
130.316082386792
20
22.4278026470345
30
0
0
VERTEX
8
0
10
131.101119027676
20
22.4901258663236
30
0
0
VERTEX
8
0
10
131.88615566856
20
22.5517640832613
30
0
0
VERTEX
8
0
10
132.671192309444
20
22.6134023001991
30
0
0
VERTEX
8
0
10
133.456228950329
20
22.6732077162946
30
0
0
VERTEX
8
0
10
134.241265591213
20
22.7316018165514
30
0
0
VERTEX
8
0
10
135.026302232097
20
22.7899959168083
30
0
0
VERTEX
8
0
10
135.811338872982
20
22.8483900170651
30
0
0
VERTEX
8
0
10
136.596375513866
20
22.9301477321326
30
0
0
VERTEX
8
0
10
137.38141215475
20
23.0080065324751
30
0
0
VERTEX
8
0
10
138.166448795634
20
23.0858653328175
30
0
0
VERTEX
8
0
10
138.951485436519
20
23.1583022249994
30
0
0
VERTEX
8
0
10
139.736522077403
20
23.22967279198
30
0
0
VERTEX
8
0
10
140.521558718287
20
23.3010433589606
30
0
0
VERTEX
8
0
10
141.306595359172
20
23.3724139259412
30
0
0
VERTEX
8
0
10
142.091632000056
20
23.3626589792467
30
0
0
VERTEX
8
0
10
142.87666864094
20
23.3788795626513
30
0
0
VERTEX
8
0
10
143.661705281825
20
23.395100146056
30
0
0
VERTEX
8
0
10
144.446741922709
20
23.4687464465521
30
0
0
VERTEX
8
0
10
145.231778563593
20
23.5368728968518
30
0
0
VERTEX
8
0
10
146.016815204477
20
23.6049993471514
30
0
0
VERTEX
8
0
10
146.801851845362
20
23.6586890438708
30
0
0
VERTEX
8
0
10
147.586888486246
20
23.7073507940848
30
0
0
VERTEX
8
0
10
148.37192512713
20
23.7560125442989
30
0
0
VERTEX
8
0
10
149.156961768015
20
23.8046742945129
30
0
0
VERTEX
8
0
10
149.941998408899
20
23.8220652208339
30
0
0
VERTEX
8
0
10
150.727035049783
20
23.8480181542814
30
0
0
VERTEX
8
0
10
151.512071690668
20
23.8739710877289
30
0
0
VERTEX
8
0
10
152.297108331552
20
23.8736497904991
30
0
0
VERTEX
8
0
10
153.082144972436
20
23.8736497904991
30
0
0
VERTEX
8
0
10
153.86718161332
20
23.8736497904991
30
0
0
VERTEX
8
0
10
154.652218254205
20
23.8736497904991
30
0
0
VERTEX
8
0
10
155.437254895089
20
23.8736497904991
30
0
0
SEQEND
8
0
0
POLYLINE
8
0
62
6
70
0
10
0
20
0
30
0
0
VERTEX
8
0
10
6.2802931270743
20
42.5277409121566
30
0
0
VERTEX
8
0
10
7.06532976795859
20
44.1571444224681
30
0
0
VERTEX
8
0
10
7.85036640884288
20
46.116379024954
30
0
0
VERTEX
8
0
10
8.63540304972716
20
48.1037748131827
30
0
0
VERTEX
8
0
10
9.42043969061145
20
50.1519172972514
30
0
0
VERTEX
8
0
10
10.2054763314957
20
52.0351457679282
30
0
0
VERTEX
8
0
10
10.99051297238
20
53.9242354626956
30
0
0
VERTEX
8
0
10
11.7755496132643
20
55.2100336604329
30
0
0
VERTEX
8
0
10
12.5605862541486
20
56.6335704934561
30
0
0
VERTEX
8
0
10
13.3456228950329
20
58.0292615810765
30
0
0
VERTEX
8
0
10
14.1306595359172
20
59.4652482223522
30
0
0
VERTEX
8
0
10
14.9156961768015
20
60.9154584930828
30
0
0
VERTEX
8
0
10
15.7007328176858
20
62.2193548342288
30
0
0
VERTEX
8
0
10
16.4857694585701
20
63.5076850689553
30
0
0
VERTEX
8
0
10
17.2708060994543
20
64.7459858201383
30
0
0
VERTEX
8
0
10
18.0558427403386
20
65.9796770493741
30
0
0
VERTEX
8
0
10
18.8408793812229
20
67.2071638289522
30
0
0
VERTEX
8
0
10
19.6259160221072
20
68.43284407618
30
0
0
VERTEX
8
0
10
20.4109526629915
20
69.5807268314909
30
0
0
VERTEX
8
0
10
21.1959893038758
20
70.6835720212624
30
0
0
VERTEX
8
0
10
21.9810259447601
20
71.7864172110339
30
0
0
VERTEX
8
0
10
22.7660625856444
20
72.7767438697289
30
0
0
VERTEX
8
0
10
23.5510992265286
20
73.7847429885658
30
0
0
VERTEX
8
0
10
24.3361358674129
20
74.7927421074028
30
0
0
VERTEX
8
0
10
25.1211725082972
20
75.756941023333
30
0
0
VERTEX
8
0
10
25.9062091491815
20
76.7343838935776
30
0
0
VERTEX
8
0
10
26.6912457900658
20
77.6351878517953
30
0
0
VERTEX
8
0
10
27.4762824309501
20
78.4673686627889
30
0
0
VERTEX
8
0
10
28.2613190718344
20
79.2995494737826
30
0
0
VERTEX
8
0
10
29.0463557127187
20
80.1317302847763
30
0
0
VERTEX
8
0
10
29.831392353603
20
80.9331609388889
30
0
0
VERTEX
8
0
10
30.6164289944872
20
81.7444063835683
30
0
0
VERTEX
8
0
10
31.4014656353715
20
82.5556518282476
30
0
0
VERTEX
8
0
10
32.1865022762558
20
83.2279675000797
30
0
0
VERTEX
8
0
10
32.9715389171401
20
83.9286967031618
30
0
0
VERTEX
8
0
10
33.7565755580244
20
84.6294259062439
30
0
0
VERTEX
8
0
10
34.5416121989087
20
85.2809368512803
30
0
0
VERTEX
8
0
10
35.326648839793
20
85.9265160707865
30
0
0
VERTEX
8
0
10
36.1116854806772
20
86.5720952902927
30
0
0
VERTEX
8
0
10
36.8967221215615
20
87.1645960020231
30
0
0
VERTEX
8
0
10
37.6817587624458
20
87.7096076044203
30
0
0
VERTEX
8
0
10
38.4667954033301
20
88.2546192068176
30
0
0
VERTEX
8
0
10
39.2518320442144
20
88.7996308092147
30
0
0
VERTEX
8
0
10
40.0368686850987
20
89.295588928072
30
0
0
VERTEX
8
0
10
40.8219053259829
20
89.798427013617
30
0
0
VERTEX
8
0
10
41.6069419668672
20
90.3012650991621
30
0
0
VERTEX
8
0
10
42.3919786077515
20
90.7522959213833
30
0
0
VERTEX
8
0
10
43.1770152486358
20
91.1902516733097
30
0
0
VERTEX
8
0
10
43.9620518895201
20
91.628207425236
30
0
0
VERTEX
8
0
10
44.7470885304044
20
92.0661631771624
30
0
0
VERTEX
8
0
10
45.5321251712887
20
92.4389979553299
30
0
0
VERTEX
8
0
10
46.3171618121729
20
92.8315360737231
30
0
0
VERTEX
8
0
10
47.1021984530572
20
93.2240741921164
30
0
0
VERTEX
8
0
10
47.8872350939415
20
93.5507104988312
30
0
0
VERTEX
8
0
10
48.6722717348258
20
93.8816104002866
30
0
0
VERTEX
8
0
10
49.4573083757101
20
94.212510301742
30
0
0
VERTEX
8
0
10
50.2423450165944
20
94.5319825297844
30
0
0
VERTEX
8
0
10
51.0273816574786
20
94.8466618478351
30
0
0
VERTEX
8
0
10
51.8124182983629
20
95.1613411658859
30
0
0
VERTEX
8
0
10
52.5974549392472
20
95.4760204839367
30
0
0
VERTEX
8
0
10
53.3824915801315
20
95.7254997573565
30
0
0
VERTEX
8
0
10
54.1675282210158
20
95.9915173251932
30
0
0
VERTEX
8
0
10
54.9525648619001
20
96.2575348930299
30
0
0
VERTEX
8
0
10
55.7376015027844
20
96.5203887729461
30
0
0
VERTEX
8
0
10
56.5226381436686
20
96.7831622241019
30
0
0
VERTEX
8
0
10
57.3076747845529
20
97.0459356752577
30
0
0
VERTEX
8
0
10
58.0927114254372
20
97.2889020644228
30
0
0
VERTEX
8
0
10
58.8777480663215
20
97.5192343487693
30
0
0
VERTEX
8
0
10
59.6627847072058
20
97.7495666331157
30
0
0
VERTEX
8
0
10
60.4478213480901
20
97.9798989174622
30
0
0
VERTEX
8
0
10
61.2328579889744
20
98.1738546313821
30
0
0
VERTEX
8
0
10
62.0178946298586
20
98.3749898656001
30
0
0
VERTEX
8
0
10
62.8029312707429
20
98.5761250998181
30
0
0
VERTEX
8
0
10
63.5879679116272
20
98.7772603340361
30
0
0
VERTEX
8
0
10
64.3730045525115
20
98.9783955682541
30
0
0
VERTEX
8
0
10
65.1580411933958
20
99.1795308024722
30
0
0
VERTEX
8
0
10
65.9430778342801
20
99.3588796263886
30
0
0
VERTEX
8
0
10
66.7281144751644
20
99.5178413437545
30
0
0
VERTEX
8
0
10
67.5131511160486
20
99.6768030611203
30
0
0
VERTEX
8
0
10
68.2981877569329
20
99.8357647784862
30
0
0
VERTEX
8
0
10
69.0832243978172
20
100.002200521202
30
0
0
VERTEX
8
0
10
69.8682610387015
20
100.16765047193
30
0
0
VERTEX
8
0
10
70.6532976795858
20
100.333100422657
30
0
0
VERTEX
8
0
10
71.4383343204701
20
100.46534797099
30
0
0
VERTEX
8
0
10
72.2233709613543
20
100.588624404866
30
0
0
VERTEX
8
0
10
73.0084076022386
20
100.711900838741
30
0
0
VERTEX
8
0
10
73.7934442431229
20
100.835177272617
30
0
0
VERTEX
8
0
10
74.5784808840072
20
100.907686881451
30
0
0
VERTEX
8
0
10
75.3635175248915
20
100.995278031836
30
0
0
VERTEX
8
0
10
76.1485541657758
20
101.082869182221
30
0
0
VERTEX
8
0
10
76.9335908066601
20
101.173892516798
30
0
0
VERTEX
8
0
10
77.7186274475444
20
101.264727783864
30
0
0
VERTEX
8
0
10
78.5036640884286
20
101.35556305093
30
0
0
VERTEX
8
0
10
79.2887007293129
20
101.414909483418
30
0
0
VERTEX
8
0
10
80.0737373701972
20
101.460327116951
30
0
0
VERTEX
8
0
10
80.8587740110815
20
101.505744750485
30
0
0
VERTEX
8
0
10
81.6438106519658
20
101.551162384018
30
0
0
VERTEX
8
0
10
82.4288472928501
20
101.596580017551
30
0
0
VERTEX
8
0
10
83.2138839337343
20
101.641997651084
30
0
0
VERTEX
8
0
10
83.9989205746186
20
101.687415284617
30
0
0
VERTEX
8
0
10
84.7839572155029
20
101.717196139611
30
0
0
VERTEX
8
0
10
85.5689938563872
20
101.746393189739
30
0
0
VERTEX
8
0
10
86.3540304972715
20
101.775590239868
30
0
0
VERTEX
8
0
10
87.1390671381558
20
101.806731663983
30
0
0
VERTEX
8
0
10
87.9241037790401
20
101.839172830792
30
0
0
VERTEX
8
0
10
88.7091404199243
20
101.871613997601
30
0
0
VERTEX
8
0
10
89.4941770608086
20
101.904055164411
30
0
0
VERTEX
8
0
10
90.2792137016929
20
101.904452259654
30
0
0
VERTEX
8
0
10
91.0642503425772
20
101.910940493016
30
0
0
VERTEX
8
0
10
91.8492869834615
20
101.917428726378
30
0
0
VERTEX
8
0
10
92.6343236243458
20
101.918271905291
30
0
0
VERTEX
8
0
10
93.41936026523
20
101.918271905291
30
0
0
VERTEX
8
0
10
94.2043969061143
20
101.918271905291
30
0
0
VERTEX
8
0
10
94.9894335469986
20
101.919911450794
30
0
0
VERTEX
8
0
10
95.7744701878829
20
101.923155567475
30
0
0
VERTEX
8
0
10
96.5595068287672
20
101.926399684156
30
0
0
VERTEX
8
0
10
97.3445434696515
20
101.929643800837
30
0
0
VERTEX
8
0
10
98.1295801105358
20
101.962493361215
30
0
0
VERTEX
8
0
10
98.91461675142
20
101.991690411343
30
0
0
VERTEX
8
0
10
99.6996533923043
20
102.020887461472
30
0
0
VERTEX
8
0
10
100.484690033189
20
102.055119909082
30
0
0
VERTEX
8
0
10
101.269726674073
20
102.090805192572
30
0
0
VERTEX
8
0
10
102.054763314957
20
102.126490476062
30
0
0
VERTEX
8
0
10
102.839799955841
20
102.162175759553
30
0
0
VERTEX
8
0
10
103.624836596726
20
102.152072706042
30
0
0
VERTEX
8
0
10
104.40987323761
20
102.155316822722
30
0
0
VERTEX
8
0
10
105.194909878494
20
102.158560939403
30
0
0
VERTEX
8
0
10
105.979946519379
20
102.158409204106
30
0
0
VERTEX
8
0
10
106.764983160263
20
102.158409204106
30
0
0
VERTEX
8
0
10
107.550019801147
20
102.158409204106
30
0
0
VERTEX
8
0
10
108.335056442031
20
102.158409204106
30
0
0
VERTEX
8
0
10
109.120093082916
20
102.158409204106
30
0
0
VERTEX
8
0
10
109.9051297238
20
102.158409204106
30
0
0
VERTEX
8
0
10
110.690166364684
20
102.158409204106
30
0
0
VERTEX
8
0
10
111.475203005569
20
102.158409204106
30
0
0
VERTEX
8
0
10
112.260239646453
20
102.158409204106
30
0
0
VERTEX
8
0
10
113.045276287337
20
102.158409204106
30
0
0
VERTEX
8
0
10
113.830312928221
20
102.158409204106
30
0
0
VERTEX
8
0
10
114.615349569106
20
102.158409204106
30
0
0
VERTEX
8
0
10
115.40038620999
20
102.158409204106
30
0
0
VERTEX
8
0
10
116.185422850874
20
102.152685078785
30
0
0
VERTEX
8
0
10
116.970459491759
20
102.142952728742
30
0
0
VERTEX
8
0
10
117.755496132643
20
102.133220378699
30
0
0
VERTEX
8
0
10
118.540532773527
20
102.123488028657
30
0
0
VERTEX
8
0
10
119.325569414411
20
102.054218027619
30
0
0
VERTEX
8
0
10
120.110606055296
20
101.995823927362
30
0
0
VERTEX
8
0
10
120.89564269618
20
101.937429827105
30
0
0
VERTEX
8
0
10
121.680679337064
20
101.926401042044
30
0
0
VERTEX
8
0
10
122.465715977949
20
101.923156925363
30
0
0
VERTEX
8
0
10
123.250752618833
20
101.919912808682
30
0
0
VERTEX
8
0
10
124.035789259717
20
101.916668692001
30
0
0
VERTEX
8
0
10
124.820825900601
20
101.908577245349
30
0
0
VERTEX
8
0
10
125.605862541486
20
101.902089011987
30
0
0
VERTEX
8
0
10
126.39089918237
20
101.895600778625
30
0
0
VERTEX
8
0
10
127.175935823254
20
101.84880471452
30
0
0
VERTEX
8
0
10
127.960972464139
20
101.806631197667
30
0
0
VERTEX
8
0
10
128.746009105023
20
101.764457680815
30
0
0
VERTEX
8
0
10
129.531045745907
20
101.737172363131
30
0
0
VERTEX
8
0
10
130.316082386792
20
101.714463546364
30
0
0
VERTEX
8
0
10
131.101119027676
20
101.691754729598
30
0
0
VERTEX
8
0
10
131.88615566856
20
101.669045912831
30
0
0
VERTEX
8
0
10
132.671192309444
20
101.632709591602
30
0
0
VERTEX
8
0
10
133.456228950329
20
101.600268424793
30
0
0
VERTEX
8
0
10
134.241265591213
20
101.567827257984
30
0
0
VERTEX
8
0
10
135.026302232097
20
101.528667051643
30
0
0
VERTEX
8
0
10
135.811338872982
20
101.489737651471
30
0
0
VERTEX
8
0
10
136.596375513866
20
101.4508082513
30
0
0
VERTEX
8
0
10
137.38141215475
20
101.416231927218
30
0
0
VERTEX
8
0
10
138.166448795634
20
101.383790760408
30
0
0
VERTEX
8
0
10
138.951485436519
20
101.351349593599
30
0
0
VERTEX
8
0
10
139.736522077403
20
101.31890842679
30
0
0
VERTEX
8
0
10
140.521558718287
20
101.277991913973
30
0
0
VERTEX
8
0
10
141.306595359172
20
101.239062513801
30
0
0
VERTEX
8
0
10
142.091632000056
20
101.20013311363
30
0
0
VERTEX
8
0
10
142.87666864094
20
101.179531861153
30
0
0
VERTEX
8
0
10
143.661705281825
20
101.160067161067
30
0
0
VERTEX
8
0
10
144.446741922709
20
101.140602460982
30
0
0
VERTEX
8
0
10
145.231778563593
20
101.102420665288
30
0
0
VERTEX
8
0
10
146.016815204477
20
101.050514798393
30
0
0
VERTEX
8
0
10
146.801851845362
20
100.998608931498
30
0
0
VERTEX
8
0
10
147.586888486246
20
100.946703064603
30
0
0
VERTEX
8
0
10
148.37192512713
20
100.918394264829
30
0
0
VERTEX
8
0
10
149.156961768015
20
100.88595309802
30
0
0
VERTEX
8
0
10
149.941998408899
20
100.853511931211
30
0
0
VERTEX
8
0
10
150.727035049783
20
100.807321450407
30
0
0
VERTEX
8
0
10
151.512071690668
20
100.758659700193
30
0
0
VERTEX
8
0
10
152.297108331552
20
100.709997949979
30
0
0
VERTEX
8
0
10
153.082144972436
20
100.661336199765
30
0
0
VERTEX
8
0
10
153.86718161332
20
100.584289562778
30
0
0
VERTEX
8
0
10
154.652218254205
20
100.516487524146
30
0
0
VERTEX
8
0
10
155.437254895089
20
100.448685485515
30
0
0
SEQEND
8
0
0
POLYLINE
8
0
62
1
70
0
10
0
20
0
30
0
0
VERTEX
8
0
10
6.2802931270743
20
36.0800979512597
30
0
0
VERTEX
8
0
10
7.06532976795859
20
36.6600515939192
30
0
0
VERTEX
8
0
10
7.85036640884288
20
37.2479089115118
30
0
0
VERTEX
8
0
10
8.63540304972716
20
37.8433015791021
30
0
0
VERTEX
8
0
10
9.42043969061145
20
38.2210491678797
30
0
0
VERTEX
8
0
10
10.2054763314957
20
38.511690384746
30
0
0
VERTEX
8
0
10
10.99051297238
20
38.8098161283724
30
0
0
VERTEX
8
0
10
11.7755496132643
20
39.1152552641051
30
0
0
VERTEX
8
0
10
12.5605862541486
20
38.8751930791375
30
0
0
VERTEX
8
0
10
13.3456228950329
20
38.782721082374
30
0
0
VERTEX
8
0
10
14.1306595359172
20
38.6978844457304
30
0
0
VERTEX
8
0
10
14.9156961768015
20
38.5391885959026
30
0
0
VERTEX
8
0
10
15.7007328176858
20
38.3840561769142
30
0
0
VERTEX
8
0
10
16.4857694585701
20
38.2346710467212
30
0
0
VERTEX
8
0
10
17.2708060994543
20
38.0424516135918
30
0
0
VERTEX
8
0
10
18.0558427403386
20
37.8232657569485
30
0
0
VERTEX
8
0
10
18.8408793812229
20
37.607899131947
30
0
0
VERTEX
8
0
10
19.6259160221072
20
37.3964177237115
30
0
0
VERTEX
8
0
10
20.4109526629915
20
37.1226330245994
30
0
0
VERTEX
8
0
10
21.1959893038758
20
36.864103700871
30
0
0
VERTEX
8
0
10
21.9810259447601
20
36.6080339663599
30
0
0
VERTEX
8
0
10
22.7660625856444
20
36.3036589561798
30
0
0
VERTEX
8
0
10
23.5510992265286
20
35.9937125193193
30
0
0
VERTEX
8
0
10
24.3361358674129
20
35.6850495751448
30
0
0
VERTEX
8
0
10
25.1211725082972
20
35.3794541523808
30
0
0
VERTEX
8
0
10
25.9062091491815
20
35.0763991559148
30
0
0
VERTEX
8
0
10
26.6912457900658
20
34.7741184311494
30
0
0
VERTEX
8
0
10
27.4762824309501
20
34.4726323461968
30
0
0
VERTEX
8
0
10
28.2613190718344
20
34.2114256392889
30
0
0
VERTEX
8
0
10
29.0463557127187
20
33.946274586227
30
0
0
VERTEX
8
0
10
29.831392353603
20
33.682361427719
30
0
0
VERTEX
8
0
10
30.6164289944872
20
33.4173201618611
30
0
0
VERTEX
8
0
10
31.4014656353715
20
33.1522655001764
30
0
0
VERTEX
8
0
10
32.1865022762558
20
32.8877835232052
30
0
0
VERTEX
8
0
10
32.9715389171401
20
32.6238881592213
30
0
0
VERTEX
8
0
10
33.7565755580244
20
32.3788982678419
30
0
0
VERTEX
8
0
10
34.5416121989087
20
32.1289867695636
30
0
0
VERTEX
8
0
10
35.326648839793
20
31.8796148876733
30
0
0
VERTEX
8
0
10
36.1116854806772
20
31.6579797818713
30
0
0
VERTEX
8
0
10
36.8967221215615
20
31.4353246609488
30
0
0
VERTEX
8
0
10
37.6817587624458
20
31.2131326336663
30
0
0
VERTEX
8
0
10
38.4667954033301
20
30.9992795743674
30
0
0
VERTEX
8
0
10
39.2518320442144
20
30.7893609372711
30
0
0
VERTEX
8
0
10
40.0368686850987
20
30.5798859019893
30
0
0
VERTEX
8
0
10
40.8219053259829
20
30.3708636474036
30
0
0
VERTEX
8
0
10
41.6069419668672
20
30.1329453153616
30
0
0
VERTEX
8
0
10
42.3919786077515
20
29.9023402864991
30
0
0
VERTEX
8
0
10
43.1770152486358
20
29.6718590638099
30
0
0
VERTEX
8
0
10
43.9620518895201
20
29.457016412992
30
0
0
VERTEX
8
0
10
44.7470885304044
20
29.2429039852852
30
0
0
VERTEX
8
0
10
45.5321251712887
20
29.0289325771872
30
0
0
VERTEX
8
0
10
46.3171618121729
20
28.8219832133059
30
0
0
VERTEX
8
0
10
47.1021984530572
20
28.6198761026207
30
0
0
VERTEX
8
0
10
47.8872350939415
20
28.4180240683446
30
0
0
VERTEX
8
0
10
48.6722717348258
20
28.2164325847022
30
0
0
VERTEX
8
0
10
49.4573083757101
20
28.0508628113234
30
0
0
VERTEX
8
0
10
50.2423450165944
20
27.8789140700341
30
0
0
VERTEX
8
0
10
51.0273816574786
20
27.7073583322894
30
0
0
VERTEX
8
0
10
51.8124182983629
20
27.5588379170706
30
0
0
VERTEX
8
0
10
52.5974549392472
20
27.4143741958508
30
0
0
VERTEX
8
0
10
53.3824915801315
20
27.270590086523
30
0
0
VERTEX
8
0
10
54.1675282210158
20
27.1516900049486
30
0
0
VERTEX
8
0
10
54.9525648619001
20
27.0575809852382
30
0
0
VERTEX
8
0
10
55.7376015027844
20
26.9646329258365
30
0
0
VERTEX
8
0
10
56.5226381436686
20
26.8728578733628
30
0
0
VERTEX
8
0
10
57.3076747845529
20
26.8226952627856
30
0
0
VERTEX
8
0
10
58.0927114254372
20
26.7693107282906
30
0
0
VERTEX
8
0
10
58.8777480663215
20
26.7176417996515
30
0
0
VERTEX
8
0
10
59.6627847072058
20
26.6861471362252
30
0
0
VERTEX
8
0
10
60.4478213480901
20
26.6618931061228
30
0
0
VERTEX
8
0
10
61.2328579889744
20
26.6395580055634
30
0
0
VERTEX
8
0
10
62.0178946298586
20
26.6191466648472
30
0
0
VERTEX
8
0
10
62.8029312707429
20
26.6331008929231
30
0
0
VERTEX
8
0
10
63.5879679116272
20
26.6399520326892
30
0
0
VERTEX
8
0
10
64.3730045525115
20
26.6490707269681
30
0
0
VERTEX
8
0
10
65.1580411933958
20
26.6721564042887
30
0
0
VERTEX
8
0
10
65.9430778342801
20
26.6970537891039
30
0
0
VERTEX
8
0
10
66.7281144751644
20
26.7242692814231
30
0
0
VERTEX
8
0
10
67.5131511160486
20
26.7402129061074
30
0
0
VERTEX
8
0
10
68.2981877569329
20
26.7514978631639
30
0
0
VERTEX
8
0
10
69.0832243978172
20
26.7643592478206
30
0
0
VERTEX
8
0
10
69.8682610387015
20
26.778794788686
30
0
0
VERTEX
8
0
10
70.6532976795858
20
26.7924112881052
30
0
0
VERTEX
8
0
10
71.4383343204701
20
26.8079727219281
30
0
0
VERTEX
8
0
10
72.2233709613543
20
26.8249289305542
30
0
0
VERTEX
8
0
10
73.0084076022386
20
26.7714749190546
30
0
0
VERTEX
8
0
10
73.7934442431229
20
26.7146492804088
30
0
0
VERTEX
8
0
10
74.5784808840072
20
26.6580443972259
30
0
0
VERTEX
8
0
10
75.3635175248915
20
26.6636196555786
30
0
0
VERTEX
8
0
10
76.1485541657758
20
26.7145019375067
30
0
0
VERTEX
8
0
10
76.9335908066601
20
26.7675576247926
30
0
0
VERTEX
8
0
10
77.7186274475444
20
26.8227738203936
30
0
0
VERTEX
8
0
10
78.5036640884286
20
26.7316141172129
30
0
0
VERTEX
8
0
10
79.2887007293129
20
26.6509843889399
30
0
0
VERTEX
8
0
10
80.0737373701972
20
26.5704600262549
30
0
0
VERTEX
8
0
10
80.8587740110815
20
26.4871011365046
30
0
0
VERTEX
8
0
10
81.6438106519658
20
26.4033511232497
30
0
0
VERTEX
8
0
10
82.4288472928501
20
26.3196964919849
30
0
0
VERTEX
8
0
10
83.2138839337343
20
26.2361381550943
30
0
0
VERTEX
8
0
10
83.9989205746186
20
26.1313338103522
30
0
0
VERTEX
8
0
10
84.7839572155029
20
26.0336076367797
30
0
0
VERTEX
8
0
10
85.5689938563872
20
25.935922665039
30
0
0
VERTEX
8
0
10
86.3540304972715
20
25.8646654759426
30
0
0
VERTEX
8
0
10
87.1390671381558
20
25.7904832948904
30
0
0
VERTEX
8
0
10
87.9241037790401
20
25.7163838284182
30
0
0
VERTEX
8
0
10
88.7091404199243
20
25.6275580979997
30
0
0
VERTEX
8
0
10
89.4941770608086
20
25.5341829491156
30
0
0
VERTEX
8
0
10
90.2792137016929
20
25.440822917477
30
0
0
VERTEX
8
0
10
91.0642503425772
20
25.3474781701237
30
0
0
VERTEX
8
0
10
91.8492869834615
20
25.2942314027992
30
0
0
VERTEX
8
0
10
92.6343236243458
20
25.2296427584399
30
0
0
VERTEX
8
0
10
93.41936026523
20
25.1651396852646
30
0
0
VERTEX
8
0
10
94.2043969061143
20
25.1206017032557
30
0
0
VERTEX
8
0
10
94.9894335469986
20
25.075560967629
30
0
0
VERTEX
8
0
10
95.7744701878829
20
25.0306851518651
30
0
0
VERTEX
8
0
10
96.5595068287672
20
25.0148154338365
30
0
0
VERTEX
8
0
10
97.3445434696515
20
25.0134668615652
30
0
0
VERTEX
8
0
10
98.1295801105358
20
25.0124737628163
30
0
0
VERTEX
8
0
10
98.91461675142
20
25.0118361799322
30
0
0
VERTEX
8
0
10
99.6996533923043
20
25.0555377754825
30
0
0
VERTEX
8
0
10
100.484690033189
20
25.0895002205413
30
0
0
VERTEX
8
0
10
101.269726674073
20
25.1239868758942
30
0
0
VERTEX
8
0
10
102.054763314957
20
25.169096268046
30
0
0
VERTEX
8
0
10
102.839799955841
20
25.2155264273058
30
0
0
VERTEX
8
0
10
103.624836596726
20
25.2626432126994
30
0
0
VERTEX
8
0
10
104.40987323761
20
25.3267626096611
30
0
0
VERTEX
8
0
10
105.194909878494
20
25.4036180790855
30
0
0
VERTEX
8
0
10
105.979946519379
20
25.4812119385763
30
0
0
VERTEX
8
0
10
106.764983160263
20
25.5595374633023
30
0
0
VERTEX
8
0
10
107.550019801147
20
25.6447941094002
30
0
0
VERTEX
8
0
10
108.335056442031
20
25.7297325213876
30
0
0
VERTEX
8
0
10
109.120093082916
20
25.8154241181374
30
0
0
VERTEX
8
0
10
109.9051297238
20
25.8941844229573
30
0
0
VERTEX
8
0
10
110.690166364684
20
25.9721559736826
30
0
0
VERTEX
8
0
10
111.475203005569
20
26.0507102217261
30
0
0
VERTEX
8
0
10
112.260239646453
20
26.1298419117926
30
0
0
VERTEX
8
0
10
113.045276287337
20
26.1738197643946
30
0
0
VERTEX
8
0
10
113.830312928221
20
26.2299267250102
30
0
0
VERTEX
8
0
10
114.615349569106
20
26.2865489175989
30
0
0
VERTEX
8
0
10
115.40038620999
20
26.2557947673237
30
0
0
VERTEX
8
0
10
116.185422850874
20
26.2344013420331
30
0
0
VERTEX
8
0
10
116.970459491759
20
26.2131468149253
30
0
0
VERTEX
8
0
10
117.755496132643
20
26.2016868381564
30
0
0
VERTEX
8
0
10
118.540532773527
20
26.1934955124051
30
0
0
VERTEX
8
0
10
119.325569414411
20
26.1853982625345
30
0
0
VERTEX
8
0
10
120.110606055296
20
26.1773951758437
30
0
0
VERTEX
8
0
10
120.89564269618
20
26.2092470841718
30
0
0
VERTEX
8
0
10
121.680679337064
20
26.2301333047172
30
0
0
VERTEX
8
0
10
122.465715977949
20
26.2511632710198
30
0
0
VERTEX
8
0
10
123.250752618833
20
26.2694015601117
30
0
0
VERTEX
8
0
10
124.035789259717
20
26.2880501473008
30
0
0
VERTEX
8
0
10
124.820825900601
20
26.3070383665765
30
0
0
VERTEX
8
0
10
125.605862541486
20
26.3399007930014
30
0
0
VERTEX
8
0
10
126.39089918237
20
26.379977233173
30
0
0
VERTEX
8
0
10
127.175935823254
20
26.4202338796399
30
0
0
VERTEX
8
0
10
127.960972464139
20
26.4606699099171
30
0
0
VERTEX
8
0
10
128.746009105023
20
26.5012845028858
30
0
0
VERTEX
8
0
10
129.531045745907
20
26.5420768388379
30
0
0
VERTEX
8
0
10
130.316082386792
20
26.5830460995205
30
0
0
VERTEX
8
0
10
131.101119027676
20
26.6036509844749
30
0
0
VERTEX
8
0
10
131.88615566856
20
26.6229690843224
30
0
0
VERTEX
8
0
10
132.671192309444
20
26.6425583813748
30
0
0
VERTEX
8
0
10
133.456228950329
20
26.671471450053
30
0
0
VERTEX
8
0
10
134.241265591213
20
26.7074963381914
30
0
0
VERTEX
8
0
10
135.026302232097
20
26.7436253871726
30
0
0
VERTEX
8
0
10
135.811338872982
20
26.7798581754224
30
0
0
VERTEX
8
0
10
136.596375513866
20
26.8179640045194
30
0
0
VERTEX
8
0
10
137.38141215475
20
26.8560785589637
30
0
0
VERTEX
8
0
10
138.166448795634
20
26.8944775894555
30
0
0
VERTEX
8
0
10
138.951485436519
20
26.9395707418126
30
0
0
VERTEX
8
0
10
139.736522077403
20
26.9860770397655
30
0
0
VERTEX
8
0
10
140.521558718287
20
27.0327232940067
30
0
0
VERTEX
8
0
10
141.306595359172
20
27.079508781284
30
0
0
VERTEX
8
0
10
142.091632000056
20
27.0467287675027
30
0
0
VERTEX
8
0
10
142.87666864094
20
27.0395274058794
30
0
0
VERTEX
8
0
10
143.661705281825
20
27.0323996542936
30
0
0
VERTEX
8
0
10
144.446741922709
20
27.0786872584586
30
0
0
VERTEX
8
0
10
145.231778563593
20
27.12000756793
30
0
0
VERTEX
8
0
10
146.016815204477
20
27.1614827767767
30
0
0
VERTEX
8
0
10
146.801851845362
20
27.1905497248528
30
0
0
VERTEX
8
0
10
147.586888486246
20
27.2153583520195
30
0
0
VERTEX
8
0
10
148.37192512713
20
27.2402780626183
30
0
0
VERTEX
8
0
10
149.156961768015
20
27.265308552068
30
0
0
VERTEX
8
0
10
149.941998408899
20
27.2587774738931
30
0
0
VERTEX
8
0
10
150.727035049783
20
27.2610041554894
30
0
0
VERTEX
8
0
10
151.512071690668
20
27.2633205989394
30
0
0
VERTEX
8
0
10
152.297108331552
20
27.2490295733721
30
0
0
VERTEX
8
0
10
153.082144972436
20
27.2349663383353
30
0
0
VERTEX
8
0
10
153.86718161332
20
27.2209271544061
30
0
0
VERTEX
8
0
10
154.652218254205
20
27.2159872435553
30
0
0
VERTEX
8
0
10
155.437254895089
20
27.2159872435553
30
0
0
SEQEND
8
0
0
POLYLINE
8
0
62
2
70
0
10
0
20
0
30
0
0
VERTEX
8
0
10
6.2802931270743
20
36.0800979512597
30
0
0
VERTEX
8
0
10
7.06532976795859
20
36.6600515939192
30
0
0
VERTEX
8
0
10
7.85036640884288
20
37.2479089115118
30
0
0
VERTEX
8
0
10
8.63540304972716
20
37.8433015791021
30
0
0
VERTEX
8
0
10
9.42043969061145
20
38.2210491678797
30
0
0
VERTEX
8
0
10
10.2054763314957
20
38.511690384746
30
0
0
VERTEX
8
0
10
10.99051297238
20
38.8098161283724
30
0
0
VERTEX
8
0
10
11.7755496132643
20
39.1152552641051
30
0
0
VERTEX
8
0
10
12.5605862541486
20
38.8751930791375
30
0
0
VERTEX
8
0
10
13.3456228950329
20
38.782721082374
30
0
0
VERTEX
8
0
10
14.1306595359172
20
38.6978844457304
30
0
0
VERTEX
8
0
10
14.9156961768015
20
38.5391885959026
30
0
0
VERTEX
8
0
10
15.7007328176858
20
38.3840561769142
30
0
0
VERTEX
8
0
10
16.4857694585701
20
38.2346710467212
30
0
0
VERTEX
8
0
10
17.2708060994543
20
38.0424516135918
30
0
0
VERTEX
8
0
10
18.0558427403386
20
37.8232657569485
30
0
0
VERTEX
8
0
10
18.8408793812229
20
37.607899131947
30
0
0
VERTEX
8
0
10
19.6259160221072
20
37.3964177237115
30
0
0
VERTEX
8
0
10
20.4109526629915
20
37.1226330245994
30
0
0
VERTEX
8
0
10
21.1959893038758
20
36.864103700871
30
0
0
VERTEX
8
0
10
21.9810259447601
20
36.6080339663599
30
0
0
VERTEX
8
0
10
22.7660625856444
20
36.3036589561798
30
0
0
VERTEX
8
0
10
23.5510992265286
20
35.9937125193193
30
0
0
VERTEX
8
0
10
24.3361358674129
20
35.6850495751448
30
0
0
VERTEX
8
0
10
25.1211725082972
20
35.3794541523809
30
0
0
VERTEX
8
0
10
25.9062091491815
20
35.0763991559148
30
0
0
VERTEX
8
0
10
26.6912457900658
20
34.7741184311494
30
0
0
VERTEX
8
0
10
27.4762824309501
20
34.4726323461968
30
0
0
VERTEX
8
0
10
28.2613190718344
20
34.2114256392889
30
0
0
VERTEX
8
0
10
29.0463557127187
20
33.946274586227
30
0
0
VERTEX
8
0
10
29.831392353603
20
33.682361427719
30
0
0
VERTEX
8
0
10
30.6164289944872
20
33.4173201618611
30
0
0
VERTEX
8
0
10
31.4014656353715
20
33.1522655001764
30
0
0
VERTEX
8
0
10
32.1865022762558
20
32.8877835232052
30
0
0
VERTEX
8
0
10
32.9715389171401
20
32.6238881592213
30
0
0
VERTEX
8
0
10
33.7565755580244
20
32.3788982678419
30
0
0
VERTEX
8
0
10
34.5416121989087
20
32.1289867695636
30
0
0
VERTEX
8
0
10
35.326648839793
20
31.8796148876733
30
0
0
VERTEX
8
0
10
36.1116854806772
20
31.6579797818713
30
0
0
VERTEX
8
0
10
36.8967221215615
20
31.4353246609488
30
0
0
VERTEX
8
0
10
37.6817587624458
20
31.2131326336663
30
0
0
VERTEX
8
0
10
38.4667954033301
20
30.9992795743674
30
0
0
VERTEX
8
0
10
39.2518320442144
20
30.7893609372711
30
0
0
VERTEX
8
0
10
40.0368686850987
20
30.5798859019893
30
0
0
VERTEX
8
0
10
40.8219053259829
20
30.3708636474036
30
0
0
VERTEX
8
0
10
41.6069419668672
20
30.1329453153616
30
0
0
VERTEX
8
0
10
42.3919786077515
20
29.9023402864991
30
0
0
VERTEX
8
0
10
43.1770152486358
20
29.6718590638099
30
0
0
VERTEX
8
0
10
43.9620518895201
20
29.457016412992
30
0
0
VERTEX
8
0
10
44.7470885304044
20
29.2429039852852
30
0
0
VERTEX
8
0
10
45.5321251712887
20
29.0289325771872
30
0
0
VERTEX
8
0
10
46.3171618121729
20
28.8219832133059
30
0
0
VERTEX
8
0
10
47.1021984530572
20
28.6198761026207
30
0
0
VERTEX
8
0
10
47.8872350939415
20
28.4180240683446
30
0
0
VERTEX
8
0
10
48.6722717348258
20
28.2164325847022
30
0
0
VERTEX
8
0
10
49.4573083757101
20
28.0508628113234
30
0
0
VERTEX
8
0
10
50.2423450165944
20
27.8789140700341
30
0
0
VERTEX
8
0
10
51.0273816574786
20
27.7073583322894
30
0
0
VERTEX
8
0
10
51.8124182983629
20
27.5588379170706
30
0
0
VERTEX
8
0
10
52.5974549392472
20
27.4143741958508
30
0
0
VERTEX
8
0
10
53.3824915801315
20
27.270590086523
30
0
0
VERTEX
8
0
10
54.1675282210158
20
27.1516900049486
30
0
0
VERTEX
8
0
10
54.9525648619001
20
27.0575809852382
30
0
0
VERTEX
8
0
10
55.7376015027844
20
26.9646329258365
30
0
0
VERTEX
8
0
10
56.5226381436686
20
26.8728578733628
30
0
0
VERTEX
8
0
10
57.3076747845529
20
26.8226952627856
30
0
0
VERTEX
8
0
10
58.0927114254372
20
26.7693107282906
30
0
0
VERTEX
8
0
10
58.8777480663215
20
26.7176417996515
30
0
0
VERTEX
8
0
10
59.6627847072058
20
26.6861471362252
30
0
0
VERTEX
8
0
10
60.4478213480901
20
26.6618931061228
30
0
0
VERTEX
8
0
10
61.2328579889744
20
26.6395580055634
30
0
0
VERTEX
8
0
10
62.0178946298586
20
26.6191466648472
30
0
0
VERTEX
8
0
10
62.8029312707429
20
26.6331008929231
30
0
0
VERTEX
8
0
10
63.5879679116272
20
26.6399520326892
30
0
0
VERTEX
8
0
10
64.3730045525115
20
26.6490707269681
30
0
0
VERTEX
8
0
10
65.1580411933958
20
26.6721564042887
30
0
0
VERTEX
8
0
10
65.9430778342801
20
26.6970537891039
30
0
0
VERTEX
8
0
10
66.7281144751644
20
26.7242692814231
30
0
0
VERTEX
8
0
10
67.5131511160486
20
26.7402129061074
30
0
0
VERTEX
8
0
10
68.2981877569329
20
26.7514978631639
30
0
0
VERTEX
8
0
10
69.0832243978172
20
26.7643592478206
30
0
0
VERTEX
8
0
10
69.8682610387015
20
26.778794788686
30
0
0
VERTEX
8
0
10
70.6532976795858
20
26.7924112881052
30
0
0
VERTEX
8
0
10
71.4383343204701
20
26.8079727219281
30
0
0
VERTEX
8
0
10
72.2233709613543
20
26.8249289305542
30
0
0
VERTEX
8
0
10
73.0084076022386
20
26.7714749190546
30
0
0
VERTEX
8
0
10
73.7934442431229
20
26.7146492804088
30
0
0
VERTEX
8
0
10
74.5784808840072
20
26.6580443972259
30
0
0
VERTEX
8
0
10
75.3635175248915
20
26.6636196555786
30
0
0
VERTEX
8
0
10
76.1485541657758
20
26.7145019375067
30
0
0
VERTEX
8
0
10
76.9335908066601
20
26.7675576247926
30
0
0
VERTEX
8
0
10
77.7186274475444
20
26.8227738203936
30
0
0
VERTEX
8
0
10
78.5036640884286
20
26.7316141172129
30
0
0
VERTEX
8
0
10
79.2887007293129
20
26.6509843889399
30
0
0
VERTEX
8
0
10
80.0737373701972
20
26.5704600262549
30
0
0
VERTEX
8
0
10
80.8587740110815
20
26.4871011365046
30
0
0
VERTEX
8
0
10
81.6438106519658
20
26.4033511232497
30
0
0
VERTEX
8
0
10
82.4288472928501
20
26.3196964919849
30
0
0
VERTEX
8
0
10
83.2138839337343
20
26.2361381550943
30
0
0
VERTEX
8
0
10
83.9989205746186
20
26.1313338103522
30
0
0
VERTEX
8
0
10
84.7839572155029
20
26.0336076367797
30
0
0
VERTEX
8
0
10
85.5689938563872
20
25.935922665039
30
0
0
VERTEX
8
0
10
86.3540304972715
20
25.8646654759426
30
0
0
VERTEX
8
0
10
87.1390671381558
20
25.7904832948904
30
0
0
VERTEX
8
0
10
87.9241037790401
20
25.7163838284182
30
0
0
VERTEX
8
0
10
88.7091404199243
20
25.6275580979997
30
0
0
VERTEX
8
0
10
89.4941770608086
20
25.5341829491156
30
0
0
VERTEX
8
0
10
90.2792137016929
20
25.440822917477
30
0
0
VERTEX
8
0
10
91.0642503425772
20
25.3474781701237
30
0
0
VERTEX
8
0
10
91.8492869834615
20
25.2942314027992
30
0
0
VERTEX
8
0
10
92.6343236243458
20
25.2296427584399
30
0
0
VERTEX
8
0
10
93.41936026523
20
25.1651396852646
30
0
0
VERTEX
8
0
10
94.2043969061143
20
25.1206017032557
30
0
0
VERTEX
8
0
10
94.9894335469986
20
25.075560967629
30
0
0
VERTEX
8
0
10
95.7744701878829
20
25.0306851518651
30
0
0
VERTEX
8
0
10
96.5595068287672
20
25.0148154338365
30
0
0
VERTEX
8
0
10
97.3445434696515
20
25.0134668615652
30
0
0
VERTEX
8
0
10
98.1295801105358
20
25.0124737628163
30
0
0
VERTEX
8
0
10
98.91461675142
20
25.0118361799322
30
0
0
VERTEX
8
0
10
99.6996533923043
20
25.0555377754825
30
0
0
VERTEX
8
0
10
100.484690033189
20
25.0895002205413
30
0
0
VERTEX
8
0
10
101.269726674073
20
25.1239868758942
30
0
0
VERTEX
8
0
10
102.054763314957
20
25.169096268046
30
0
0
VERTEX
8
0
10
102.839799955841
20
25.2155264273058
30
0
0
VERTEX
8
0
10
103.624836596726
20
25.2626432126994
30
0
0
VERTEX
8
0
10
104.40987323761
20
25.3267626096611
30
0
0
VERTEX
8
0
10
105.194909878494
20
25.4036180790854
30
0
0
VERTEX
8
0
10
105.979946519379
20
25.4812119385763
30
0
0
VERTEX
8
0
10
106.764983160263
20
25.5595374633023
30
0
0
VERTEX
8
0
10
107.550019801147
20
25.6447941094002
30
0
0
VERTEX
8
0
10
108.335056442031
20
25.7297325213876
30
0
0
VERTEX
8
0
10
109.120093082916
20
25.8154241181374
30
0
0
VERTEX
8
0
10
109.9051297238
20
25.8941844229573
30
0
0
VERTEX
8
0
10
110.690166364684
20
25.9721559736826
30
0
0
VERTEX
8
0
10
111.475203005569
20
26.0507102217261
30
0
0
VERTEX
8
0
10
112.260239646453
20
26.1298419117926
30
0
0
VERTEX
8
0
10
113.045276287337
20
26.1738197643946
30
0
0
VERTEX
8
0
10
113.830312928221
20
26.2299267250102
30
0
0
VERTEX
8
0
10
114.615349569106
20
26.2865489175989
30
0
0
VERTEX
8
0
10
115.40038620999
20
26.2557947673237
30
0
0
VERTEX
8
0
10
116.185422850874
20
26.2344013420331
30
0
0
VERTEX
8
0
10
116.970459491759
20
26.2131468149253
30
0
0
VERTEX
8
0
10
117.755496132643
20
26.2016868381564
30
0
0
VERTEX
8
0
10
118.540532773527
20
26.1934955124052
30
0
0
VERTEX
8
0
10
119.325569414411
20
26.1853982625345
30
0
0
VERTEX
8
0
10
120.110606055296
20
26.1773951758437
30
0
0
VERTEX
8
0
10
120.89564269618
20
26.2092470841718
30
0
0
VERTEX
8
0
10
121.680679337064
20
26.2301333047172
30
0
0
VERTEX
8
0
10
122.465715977949
20
26.2511632710198
30
0
0
VERTEX
8
0
10
123.250752618833
20
26.2694015601117
30
0
0
VERTEX
8
0
10
124.035789259717
20
26.2880501473008
30
0
0
VERTEX
8
0
10
124.820825900601
20
26.3070383665765
30
0
0
VERTEX
8
0
10
125.605862541486
20
26.3399007930014
30
0
0
VERTEX
8
0
10
126.39089918237
20
26.379977233173
30
0
0
VERTEX
8
0
10
127.175935823254
20
26.4202338796399
30
0
0
VERTEX
8
0
10
127.960972464139
20
26.4606699099171
30
0
0
VERTEX
8
0
10
128.746009105023
20
26.5012845028858
30
0
0
VERTEX
8
0
10
129.531045745907
20
26.5420768388379
30
0
0
VERTEX
8
0
10
130.316082386792
20
26.5830460995205
30
0
0
VERTEX
8
0
10
131.101119027676
20
26.6036509844749
30
0
0
VERTEX
8
0
10
131.88615566856
20
26.6229690843224
30
0
0
VERTEX
8
0
10
132.671192309444
20
26.6425583813748
30
0
0
VERTEX
8
0
10
133.456228950329
20
26.671471450053
30
0
0
VERTEX
8
0
10
134.241265591213
20
26.7074963381914
30
0
0
VERTEX
8
0
10
135.026302232097
20
26.7436253871726
30
0
0
VERTEX
8
0
10
135.811338872982
20
26.7798581754224
30
0
0
VERTEX
8
0
10
136.596375513866
20
26.8179640045194
30
0
0
VERTEX
8
0
10
137.38141215475
20
26.8560785589637
30
0
0
VERTEX
8
0
10
138.166448795634
20
26.8944775894555
30
0
0
VERTEX
8
0
10
138.951485436519
20
26.9395707418126
30
0
0
VERTEX
8
0
10
139.736522077403
20
26.9860770397655
30
0
0
VERTEX
8
0
10
140.521558718287
20
27.0327232940067
30
0
0
VERTEX
8
0
10
141.306595359172
20
27.079508781284
30
0
0
VERTEX
8
0
10
142.091632000056
20
27.0467287675027
30
0
0
VERTEX
8
0
10
142.87666864094
20
27.0395274058794
30
0
0
VERTEX
8
0
10
143.661705281825
20
27.0323996542936
30
0
0
VERTEX
8
0
10
144.446741922709
20
27.0786872584586
30
0
0
VERTEX
8
0
10
145.231778563593
20
27.12000756793
30
0
0
VERTEX
8
0
10
146.016815204477
20
27.1614827767767
30
0
0
VERTEX
8
0
10
146.801851845362
20
27.1905497248528
30
0
0
VERTEX
8
0
10
147.586888486246
20
27.2153583520195
30
0
0
VERTEX
8
0
10
148.37192512713
20
27.2402780626183
30
0
0
VERTEX
8
0
10
149.156961768015
20
27.265308552068
30
0
0
VERTEX
8
0
10
149.941998408899
20
27.2587774738931
30
0
0
VERTEX
8
0
10
150.727035049783
20
27.2610041554894
30
0
0
VERTEX
8
0
10
151.512071690668
20
27.2633205989394
30
0
0
VERTEX
8
0
10
152.297108331552
20
27.2490295733721
30
0
0
VERTEX
8
0
10
153.082144972436
20
27.2349663383353
30
0
0
VERTEX
8
0
10
153.86718161332
20
27.2209271544061
30
0
0
VERTEX
8
0
10
154.652218254205
20
27.2159872435553
30
0
0
VERTEX
8
0
10
155.437254895089
20
27.2159872435553
30
0
0
SEQEND
8
0
0
POLYLINE
8
0
62
3
70
0
10
0
20
0
30
0
0
VERTEX
8
0
10
6.2802931270743
20
51.856924950916
30
0
0
VERTEX
8
0
10
7.06532976795859
20
52.7619690403774
30
0
0
VERTEX
8
0
10
7.85036640884288
20
53.9328016679517
30
0
0
VERTEX
8
0
10
8.63540304972716
20
55.2670572533615
30
0
0
VERTEX
8
0
10
9.42043969061145
20
56.6951725886016
30
0
0
VERTEX
8
0
10
10.2054763314957
20
58.1682669457211
30
0
0
VERTEX
8
0
10
10.99051297238
20
59.6511859764749
30
0
0
VERTEX
8
0
10
11.7755496132643
20
61.1182235925534
30
0
0
VERTEX
8
0
10
12.5605862541486
20
62.5503622494235
30
0
0
VERTEX
8
0
10
13.3456228950329
20
63.9334305659266
30
0
0
VERTEX
8
0
10
14.1306595359172
20
65.2568413595836
30
0
0
VERTEX
8
0
10
14.9156961768015
20
66.5127099881868
30
0
0
VERTEX
8
0
10
15.7007328176858
20
67.6952288988283
30
0
0
VERTEX
8
0
10
16.4857694585701
20
68.8002188533677
30
0
0
VERTEX
8
0
10
17.2708060994543
20
69.8248045442905
30
0
0
VERTEX
8
0
10
18.0558427403386
20
70.7671795301393
30
0
0
VERTEX
8
0
10
18.8408793812229
20
71.6264365997122
30
0
0
VERTEX
8
0
10
19.6259160221072
20
72.4024471110632
30
0
0
VERTEX
8
0
10
20.4109526629915
20
73.0957779142814
30
0
0
VERTEX
8
0
10
21.1959893038758
20
73.7076380009174
30
0
0
VERTEX
8
0
10
21.9810259447601
20
74.2398495698298
30
0
0
VERTEX
8
0
10
22.7660625856444
20
74.694840123442
30
0
0
VERTEX
8
0
10
23.5510992265286
20
75.0756537762506
30
0
0
VERTEX
8
0
10
24.3361358674129
20
75.3859813979586
30
0
0
VERTEX
8
0
10
25.1211725082972
20
75.6302107786444
30
0
0
VERTEX
8
0
10
25.9062091491815
20
75.8135000636898
30
0
0
VERTEX
8
0
10
26.6912457900658
20
75.9418809445274
30
0
0
VERTEX
8
0
10
27.4762824309501
20
76.0224039901319
30
0
0
VERTEX
8
0
10
28.2613190718344
20
76.0633507401296
30
0
0
VERTEX
8
0
10
29.0463557127187
20
76.074566328635
30
0
0
VERTEX
8
0
10
29.831392353603
20
76.0680496373212
30
0
0
VERTEX
8
0
10
30.6164289944872
20
76.0592555120266
30
0
0
VERTEX
8
0
10
31.4014656353715
20
76.0716708976478
30
0
0
VERTEX
8
0
10
32.1865022762558
20
76.1329604817449
30
0
0
VERTEX
8
0
10
32.9715389171401
20
76.2292482212411
30
0
0
VERTEX
8
0
10
33.7565755580244
20
76.3485499990366
30
0
0
VERTEX
8
0
10
34.5416121989087
20
76.485077112995
30
0
0
VERTEX
8
0
10
35.326648839793
20
76.6351702181604
30
0
0
VERTEX
8
0
10
36.1116854806772
20
76.7962458811791
30
0
0
VERTEX
8
0
10
36.8967221215615
20
76.9663648762879
30
0
0
VERTEX
8
0
10
37.6817587624458
20
77.1440135602965
30
0
0
VERTEX
8
0
10
38.4667954033301
20
77.3279785082178
30
0
0
VERTEX
8
0
10
39.2518320442144
20
77.5172683557786
30
0
0
VERTEX
8
0
10
40.0368686850987
20
77.7110620180153
30
0
0
VERTEX
8
0
10
40.8219053259829
20
77.9086727495831
30
0
0
VERTEX
8
0
10
41.6069419668672
20
78.1095222629132
30
0
0
VERTEX
8
0
10
42.3919786077515
20
78.3131215206389
30
0
0
VERTEX
8
0
10
43.1770152486358
20
78.5190561198953
30
0
0
VERTEX
8
0
10
43.9620518895201
20
78.7269749327373
30
0
0
VERTEX
8
0
10
44.7470885304044
20
78.9365811156367
30
0
0
VERTEX
8
0
10
45.5321251712887
20
79.1476248816106
30
0
0
VERTEX
8
0
10
46.3171618121729
20
79.3598976097087
30
0
0
VERTEX
8
0
10
47.1021984530572
20
79.5732269873241
30
0
0
VERTEX
8
0
10
47.8872350939415
20
79.7874729631367
30
0
0
VERTEX
8
0
10
48.6722717348258
20
80.0025243460943
30
0
0
VERTEX
8
0
10
49.4573083757101
20
80.2182959269989
30
0
0
VERTEX
8
0
10
50.2423450165944
20
80.4347260293648
30
0
0
VERTEX
8
0
10
51.0273816574786
20
80.6517744188175
30
0
0
VERTEX
8
0
10
51.8124182983629
20
80.8694205176285
30
0
0
VERTEX
8
0
10
52.5974549392472
20
81.0876618851021
30
0
0
VERTEX
8
0
10
53.3824915801315
20
81.306512936366
30
0
0
VERTEX
8
0
10
54.1675282210158
20
81.5260038832247
30
0
0
VERTEX
8
0
10
54.9525648619001
20
81.7461798920221
30
0
0
VERTEX
8
0
10
55.7376015027844
20
81.9671004668794
30
0
0
VERTEX
8
0
10
56.5226381436686
20
82.1888390841552
30
0
0
VERTEX
8
0
10
57.3076747845529
20
82.4114831303135
30
0
0
VERTEX
8
0
10
58.0927114254372
20
82.6351342382497
30
0
0
VERTEX
8
0
10
58.8777480663215
20
82.8599091938957
30
0
0
VERTEX
8
0
10
59.6627847072058
20
83.0859417347609
30
0
0
VERTEX
8
0
10
60.4478213480901
20
83.313385886538
30
0
0
VERTEX
8
0
10
61.2328579889744
20
83.5424222858845
30
0
0
VERTEX
8
0
10
62.0178946298586
20
83.7732713327273
30
0
0
VERTEX
8
0
10
62.8029312707429
20
84.0062263196742
30
0
0
VERTEX
8
0
10
63.5879679116272
20
84.2417331650258
30
0
0
VERTEX
8
0
10
64.3730045525115
20
84.4800433061583
30
0
0
VERTEX
8
0
10
65.1580411933958
20
84.7207134658303
30
0
0
VERTEX
8
0
10
65.9430778342801
20
84.9633513113697
30
0
0
VERTEX
8
0
10
66.7281144751644
20
85.207689344171
30
0
0
VERTEX
8
0
10
67.5131511160486
20
85.4535165970145
30
0
0
VERTEX
8
0
10
68.2981877569329
20
85.700654044335
30
0
0
VERTEX
8
0
10
69.0832243978172
20
85.948943600522
30
0
0
VERTEX
8
0
10
69.8682610387015
20
86.1982421960272
30
0
0
VERTEX
8
0
10
70.6532976795858
20
86.4484181966805
30
0
0
VERTEX
8
0
10
71.4383343204701
20
86.6993490603444
30
0
0
VERTEX
8
0
10
72.2233709613543
20
86.9509197108354
30
0
0
VERTEX
8
0
10
73.0084076022386
20
87.203021357398
30
0
0
VERTEX
8
0
10
73.7934442431229
20
87.4555506061407
30
0
0
VERTEX
8
0
10
74.5784808840072
20
87.7084087711968
30
0
0
VERTEX
8
0
10
75.3635175248915
20
87.9615013273841
30
0
0
VERTEX
8
0
10
76.1485541657758
20
88.2147374661484
30
0
0
VERTEX
8
0
10
76.9335908066601
20
88.4680297287738
30
0
0
VERTEX
8
0
10
77.7186274475444
20
88.7212936987155
30
0
0
VERTEX
8
0
10
78.5036640884286
20
88.9744477399861
30
0
0
VERTEX
8
0
10
79.2887007293129
20
89.2274127720262
30
0
0
VERTEX
8
0
10
80.0737373701972
20
89.4801120739628
30
0
0
VERTEX
8
0
10
80.8587740110815
20
89.7324711127434
30
0
0
VERTEX
8
0
10
81.6438106519658
20
89.984417391017
30
0
0
VERTEX
8
0
10
82.4288472928501
20
90.2358803114211
30
0
0
VERTEX
8
0
10
83.2138839337343
20
90.4867910547067
30
0
0
VERTEX
8
0
10
83.9989205746186
20
90.7370824695903
30
0
0
VERTEX
8
0
10
84.7839572155029
20
90.9866889726193
30
0
0
VERTEX
8
0
10
85.5689938563872
20
91.2355464567056
30
0
0
VERTEX
8
0
10
86.3540304972715
20
91.4835922071355
30
0
0
VERTEX
8
0
10
87.1390671381558
20
91.7307648241319
30
0
0
VERTEX
8
0
10
87.9241037790401
20
91.9770041511361
30
0
0
VERTEX
8
0
10
88.7091404199243
20
92.2222512081645
30
0
0
VERTEX
8
0
10
89.4941770608086
20
92.4664481296363
30
0
0
VERTEX
8
0
10
90.2792137016929
20
92.7095381061799
30
0
0
VERTEX
8
0
10
91.0642503425772
20
92.9514653300062
30
0
0
VERTEX
8
0
10
91.8492869834615
20
93.1921749434581
30
0
0
VERTEX
8
0
10
92.6343236243458
20
93.4316129904279
30
0
0
VERTEX
8
0
10
93.41936026523
20
93.6697263703532
30
0
0
VERTEX
8
0
10
94.2043969061143
20
93.906462794535
30
0
0
VERTEX
8
0
10
94.9894335469986
20
94.1417707445756
30
0
0
VERTEX
8
0
10
95.7744701878829
20
94.3755994327135
30
0
0
VERTEX
8
0
10
96.5595068287672
20
94.6078987639032
30
0
0
VERTEX
8
0
10
97.3445434696515
20
94.8386192994618
30
0
0
VERTEX
8
0
10
98.1295801105358
20
95.0677122221517
30
0
0
VERTEX
8
0
10
98.91461675142
20
95.2951293025667
30
0
0
VERTEX
8
0
10
99.6996533923043
20
95.5208228666909
30
0
0
VERTEX
8
0
10
100.484690033189
20
95.744745764545
30
0
0
VERTEX
8
0
10
101.269726674073
20
95.9668513397923
30
0
0
VERTEX
8
0
10
102.054763314957
20
96.1870934002315
30
0
0
VERTEX
8
0
10
102.839799955841
20
96.4054261890787
30
0
0
VERTEX
8
0
10
103.624836596726
20
96.6218043569529
30
0
0
VERTEX
8
0
10
104.40987323761
20
96.8361829345119
30
0
0
VERTEX
8
0
10
105.194909878494
20
97.0485173056188
30
0
0
VERTEX
8
0
10
105.979946519379
20
97.258763181023
30
0
0
VERTEX
8
0
10
106.764983160263
20
97.4668765724416
30
0
0
VERTEX
8
0
10
107.550019801147
20
97.6728137670019
30
0
0
VERTEX
8
0
10
108.335056442031
20
97.8765313019663
30
0
0
VERTEX
8
0
10
109.120093082916
20
98.0779859396922
30
0
0
VERTEX
8
0
10
109.9051297238
20
98.2771346427261
30
0
0
VERTEX
8
0
10
110.690166364684
20
98.4739345490212
30
0
0
VERTEX
8
0
10
111.475203005569
20
98.6683429471565
30
0
0
VERTEX
8
0
10
112.260239646453
20
98.8603172515372
30
0
0
VERTEX
8
0
10
113.045276287337
20
99.0498149774745
30
0
0
VERTEX
8
0
10
113.830312928221
20
99.2367937160919
30
0
0
VERTEX
8
0
10
114.615349569106
20
99.4212111089749
30
0
0
VERTEX
8
0
10
115.40038620999
20
99.6030248224885
30
0
0
VERTEX
8
0
10
116.185422850874
20
99.7821925216716
30
0
0
VERTEX
8
0
10
116.970459491759
20
99.9586718436332
30
0
0
VERTEX
8
0
10
117.755496132643
20
100.132420370331
30
0
0
VERTEX
8
0
10
118.540532773527
20
100.303395600652
30
0
0
VERTEX
8
0
10
119.325569414411
20
100.471554921659
30
0
0
VERTEX
8
0
10
120.110606055296
20
100.636855578891
30
0
0
VERTEX
8
0
10
120.89564269618
20
100.799254645578
30
0
0
VERTEX
8
0
10
121.680679337064
20
100.958708990613
30
0
0
VERTEX
8
0
10
122.465715977949
20
101.115175245102
30
0
0
VERTEX
8
0
10
123.250752618833
20
101.268609767331
30
0
0
VERTEX
8
0
10
124.035789259717
20
101.418968605898
30
0
0
VERTEX
8
0
10
124.820825900601
20
101.566207460793
30
0
0
VERTEX
8
0
10
125.605862541486
20
101.710281642149
30
0
0
VERTEX
8
0
10
126.39089918237
20
101.851146026341
30
0
0
VERTEX
8
0
10
127.175935823254
20
101.988755009085
30
0
0
VERTEX
8
0
10
127.960972464139
20
102.123062455126
30
0
0
VERTEX
8
0
10
128.746009105023
20
102.254021644035
30
0
0
VERTEX
8
0
10
129.531045745907
20
102.381585211575
30
0
0
VERTEX
8
0
10
130.316082386792
20
102.505705085989
30
0
0
VERTEX
8
0
10
131.101119027676
20
102.626332418464
30
0
0
VERTEX
8
0
10
131.88615566856
20
102.743417506893
30
0
0
VERTEX
8
0
10
132.671192309444
20
102.856909711888
30
0
0
VERTEX
8
0
10
133.456228950329
20
102.966757363809
30
0
0
VERTEX
8
0
10
134.241265591213
20
103.072907659331
30
0
0
VERTEX
8
0
10
135.026302232097
20
103.175306545763
30
0
0
VERTEX
8
0
10
135.811338872982
20
103.273898590966
30
0
0
VERTEX
8
0
10
136.596375513866
20
103.36862683624
30
0
0
VERTEX
8
0
10
137.38141215475
20
103.459432628958
30
0
0
VERTEX
8
0
10
138.166448795634
20
103.546255430957
30
0
0
VERTEX
8
0
10
138.951485436519
20
103.629032597695
30
0
0
VERTEX
8
0
10
139.736522077403
20
103.707699121941
30
0
0
VERTEX
8
0
10
140.521558718287
20
103.782187334013
30
0
0
VERTEX
8
0
10
141.306595359172
20
103.852426548379
30
0
0
VERTEX
8
0
10
142.091632000056
20
103.918342643359
30
0
0
VERTEX
8
0
10
142.87666864094
20
103.979857556529
30
0
0
VERTEX
8
0
10
143.661705281825
20
104.036888672645
30
0
0
VERTEX
8
0
10
144.446741922709
20
104.089348072773
30
0
0
VERTEX
8
0
10
145.231778563593
20
104.137141601588
30
0
0
VERTEX
8
0
10
146.016815204477
20
104.180167692657
30
0
0
VERTEX
8
0
10
146.801851845362
20
104.218315865766
30
0
0
VERTEX
8
0
10
147.586888486246
20
104.25146477066
30
0
0
VERTEX
8
0
10
148.37192512713
20
104.27947958875
30
0
0
VERTEX
8
0
10
149.156961768015
20
104.302208501262
30
0
0
VERTEX
8
0
10
149.941998408899
20
104.319477756754
30
0
0
VERTEX
8
0
10
150.727035049783
20
104.331084558075
30
0
0
VERTEX
8
0
10
151.512071690668
20
104.336786402512
30
0
0
VERTEX
8
0
10
152.297108331552
20
104.336284349745
30
0
0
VERTEX
8
0
10
153.082144972436
20
104.329195302842
30
0
0
VERTEX
8
0
10
153.86718161332
20
104.315003547322
30
0
0
VERTEX
8
0
10
154.652218254205
20
104.292974625215
30
0
0
VERTEX
8
0
10
155.437254895089
20
104.262030987928
30
0
0
SEQEND
8
0
0
POLYLINE
8
0
62
4
70
0
10
0
20
0
30
0
0
VERTEX
8
0
10
6.2802931270743
20
50.7741735241815
30
0
0
VERTEX
8
0
10
7.06532976795859
20
52.3580365693103
30
0
0
VERTEX
8
0
10
7.85036640884288
20
53.9688762115636
30
0
0
VERTEX
8
0
10
8.63540304972716
20
55.5923358176271
30
0
0
VERTEX
8
0
10
9.42043969061145
20
57.0654982672958
30
0
0
VERTEX
8
0
10
10.2054763314957
20
58.4712617127777
30
0
0
VERTEX
8
0
10
10.99051297238
20
59.8651074674993
30
0
0
VERTEX
8
0
10
11.7755496132643
20
61.2394003661344
30
0
0
VERTEX
8
0
10
12.5605862541486
20
62.2410968582801
30
0
0
VERTEX
8
0
10
13.3456228950329
20
63.3094122824783
30
0
0
VERTEX
8
0
10
14.1306595359172
20
64.349854838245
30
0
0
VERTEX
8
0
10
14.9156961768015
20
65.3099837828144
30
0
0
VERTEX
8
0
10
15.7007328176858
20
66.2336812447723
30
0
0
VERTEX
8
0
10
16.4857694585701
20
67.1193156738989
30
0
0
VERTEX
8
0
10
17.2708060994543
20
67.9373717593027
30
0
0
VERTEX
8
0
10
18.0558427403386
20
68.6961940825465
30
0
0
VERTEX
8
0
10
18.8408793812229
20
69.4120630444424
30
0
0
VERTEX
8
0
10
19.6259160221072
20
70.0842609228909
30
0
0
VERTEX
8
0
10
20.4109526629915
20
70.677724100016
30
0
0
VERTEX
8
0
10
21.1959893038758
20
71.2342944881185
30
0
0
VERTEX
8
0
10
21.9810259447601
20
71.7477122421444
30
0
0
VERTEX
8
0
10
22.7660625856444
20
72.1934263578249
30
0
0
VERTEX
8
0
10
23.5510992265286
20
72.5950806502484
30
0
0
VERTEX
8
0
10
24.3361358674129
20
72.9579447767258
30
0
0
VERTEX
8
0
10
25.1211725082972
20
73.2850621953091
30
0
0
VERTEX
8
0
10
25.9062091491815
20
73.5787425799937
30
0
0
VERTEX
8
0
10
26.6912457900658
20
73.8411413521913
30
0
0
VERTEX
8
0
10
27.4762824309501
20
74.0757050183858
30
0
0
VERTEX
8
0
10
28.2613190718344
20
74.3044654026802
30
0
0
VERTEX
8
0
10
29.0463557127187
20
74.5109881636567
30
0
0
VERTEX
8
0
10
29.831392353603
20
74.7024188520433
30
0
0
VERTEX
8
0
10
30.6164289944872
20
74.8828721603907
30
0
0
VERTEX
8
0
10
31.4014656353715
20
75.0584747155485
30
0
0
VERTEX
8
0
10
32.1865022762558
20
75.2343370362531
30
0
0
VERTEX
8
0
10
32.9715389171401
20
75.4114525762796
30
0
0
VERTEX
8
0
10
33.7565755580244
20
75.5975216469696
30
0
0
VERTEX
8
0
10
34.5416121989087
20
75.7820643476852
30
0
0
VERTEX
8
0
10
35.326648839793
20
75.9673170084739
30
0
0
VERTEX
8
0
10
36.1116854806772
20
76.1644651512724
30
0
0
VERTEX
8
0
10
36.8967221215615
20
76.361238150863
30
0
0
VERTEX
8
0
10
37.6817587624458
20
76.5581680191637
30
0
0
VERTEX
8
0
10
38.4667954033301
20
76.7583551134219
30
0
0
VERTEX
8
0
10
39.2518320442144
20
76.9598768680184
30
0
0
VERTEX
8
0
10
40.0368686850987
20
77.1612509164675
30
0
0
VERTEX
8
0
10
40.8219053259829
20
77.3624309876586
30
0
0
VERTEX
8
0
10
41.6069419668672
20
77.5519678401311
30
0
0
VERTEX
8
0
10
42.3919786077515
20
77.7441013331712
30
0
0
VERTEX
8
0
10
43.1770152486358
20
77.9359874530272
30
0
0
VERTEX
8
0
10
43.9620518895201
20
78.1334602177163
30
0
0
VERTEX
8
0
10
44.7470885304044
20
78.3307747991709
30
0
0
VERTEX
8
0
10
45.5321251712887
20
78.5277089144707
30
0
0
VERTEX
8
0
10
46.3171618121729
20
78.7267905446113
30
0
0
VERTEX
8
0
10
47.1021984530572
20
78.9271719733022
30
0
0
VERTEX
8
0
10
47.8872350939415
20
79.1271794464566
30
0
0
VERTEX
8
0
10
48.6722717348258
20
79.3268429285981
30
0
0
VERTEX
8
0
10
49.4573083757101
20
79.5388010729557
30
0
0
VERTEX
8
0
10
50.2423450165944
20
79.7479379660533
30
0
0
VERTEX
8
0
10
51.0273816574786
20
79.9567080363136
30
0
0
VERTEX
8
0
10
51.8124182983629
20
80.1729420059267
30
0
0
VERTEX
8
0
10
52.5974549392472
20
80.3900331723278
30
0
0
VERTEX
8
0
10
53.3824915801315
20
80.6068703209612
30
0
0
VERTEX
8
0
10
54.1675282210158
20
80.8316437942546
30
0
0
VERTEX
8
0
10
54.9525648619001
20
81.0642162422249
30
0
0
VERTEX
8
0
10
55.7376015027844
20
81.2966672973828
30
0
0
VERTEX
8
0
10
56.5226381436686
20
81.529075349045
30
0
0
VERTEX
8
0
10
57.3076747845529
20
81.7747733950389
30
0
0
VERTEX
8
0
10
58.0927114254372
20
82.0190062889692
30
0
0
VERTEX
8
0
10
58.8777480663215
20
82.2634846951484
30
0
0
VERTEX
8
0
10
59.6627847072058
20
82.5142620318632
30
0
0
VERTEX
8
0
10
60.4478213480901
20
82.7671845111257
30
0
0
VERTEX
8
0
10
61.2328579889744
20
83.020614743412
30
0
0
VERTEX
8
0
10
62.0178946298586
20
83.2746468220535
30
0
0
VERTEX
8
0
10
62.8029312707429
20
83.5397117462848
30
0
0
VERTEX
8
0
10
63.5879679116272
20
83.8026300971713
30
0
0
VERTEX
8
0
10
64.3730045525115
20
84.0664459393369
30
0
0
VERTEX
8
0
10
65.1580411933958
20
84.3348207153146
30
0
0
VERTEX
8
0
10
65.9430778342801
20
84.6038331996089
30
0
0
VERTEX
8
0
10
66.7281144751644
20
84.8735849402311
30
0
0
VERTEX
8
0
10
67.5131511160486
20
85.1397486214738
30
0
0
VERTEX
8
0
10
68.2981877569329
20
85.4043696109294
30
0
0
VERTEX
8
0
10
69.0832243978172
20
85.6693551470198
30
0
0
VERTEX
8
0
10
69.8682610387015
20
85.9346490755868
30
0
0
VERTEX
8
0
10
70.6532976795858
20
86.199452840007
30
0
0
VERTEX
8
0
10
71.4383343204701
20
86.4645750169722
30
0
0
VERTEX
8
0
10
72.2233709613543
20
86.729791273349
30
0
0
VERTEX
8
0
10
73.0084076022386
20
86.9729200233959
30
0
0
VERTEX
8
0
10
73.7934442431229
20
87.2147346702083
30
0
0
VERTEX
8
0
10
74.5784808840072
20
87.456295769875
30
0
0
VERTEX
8
0
10
75.3635175248915
20
87.7163675345813
30
0
0
VERTEX
8
0
10
76.1485541657758
20
87.9896217997908
30
0
0
VERTEX
8
0
10
76.9335908066601
20
88.2628723725258
30
0
0
VERTEX
8
0
10
77.7186274475444
20
88.5360680559963
30
0
0
VERTEX
8
0
10
78.5036640884286
20
88.764317221859
30
0
0
VERTEX
8
0
10
79.2887007293129
20
88.995226821644
30
0
0
VERTEX
8
0
10
80.0737373701972
20
89.2255919261771
30
0
0
VERTEX
8
0
10
80.8587740110815
20
89.4544952189981
30
0
0
VERTEX
8
0
10
81.6438106519658
20
89.6826245500985
30
0
0
VERTEX
8
0
10
82.4288472928501
20
89.9100788709284
30
0
0
VERTEX
8
0
10
83.2138839337343
20
90.1368129703517
30
0
0
VERTEX
8
0
10
83.9989205746186
20
90.3566072560317
30
0
0
VERTEX
8
0
10
84.7839572155029
20
90.5776727290556
30
0
0
VERTEX
8
0
10
85.5689938563872
20
90.7979169750306
30
0
0
VERTEX
8
0
10
86.3540304972715
20
91.0247902111748
30
0
0
VERTEX
8
0
10
87.1390671381558
20
91.2498308946026
30
0
0
VERTEX
8
0
10
87.9241037790401
20
91.4738556028851
30
0
0
VERTEX
8
0
10
88.7091404199243
20
91.6926819931831
30
0
0
VERTEX
8
0
10
89.4941770608086
20
91.90916735112
30
0
0
VERTEX
8
0
10
90.2792137016929
20
92.1245532014441
30
0
0
VERTEX
8
0
10
91.0642503425772
20
92.3387981169897
30
0
0
VERTEX
8
0
10
91.8492869834615
20
92.5628061574847
30
0
0
VERTEX
8
0
10
92.6343236243458
20
92.7823878445568
30
0
0
VERTEX
8
0
10
93.41936026523
20
93.0006409047337
30
0
0
VERTEX
8
0
10
94.2043969061143
20
93.2228807671224
30
0
0
VERTEX
8
0
10
94.9894335469986
20
93.4435072784869
30
0
0
VERTEX
8
0
10
95.7744701878829
20
93.662662566949
30
0
0
VERTEX
8
0
10
96.5595068287672
20
93.887988497358
30
0
0
VERTEX
8
0
10
97.3445434696515
20
94.1155271265838
30
0
0
VERTEX
8
0
10
98.1295801105358
20
94.341457054041
30
0
0
VERTEX
8
0
10
98.91461675142
20
94.5657418455161
30
0
0
VERTEX
8
0
10
99.6996533923043
20
94.7999606676534
30
0
0
VERTEX
8
0
10
100.484690033189
20
95.0297615912296
30
0
0
VERTEX
8
0
10
101.269726674073
20
95.2578249744233
30
0
0
VERTEX
8
0
10
102.054763314957
20
95.4867776782931
30
0
0
VERTEX
8
0
10
102.839799955841
20
95.7141299628307
30
0
0
VERTEX
8
0
10
103.624836596726
20
95.9396808632071
30
0
0
VERTEX
8
0
10
104.40987323761
20
96.1676925929783
30
0
0
VERTEX
8
0
10
105.194909878494
20
96.3970101115725
30
0
0
VERTEX
8
0
10
105.979946519379
20
96.6244429222366
30
0
0
VERTEX
8
0
10
106.764983160263
20
96.8499574693862
30
0
0
VERTEX
8
0
10
107.550019801147
20
97.0751597227879
30
0
0
VERTEX
8
0
10
108.335056442031
20
97.2981061667516
30
0
0
VERTEX
8
0
10
109.120093082916
20
97.5190485519165
30
0
0
VERTEX
8
0
10
109.9051297238
20
97.7359198340716
30
0
0
VERTEX
8
0
10
110.690166364684
20
97.9503125813539
30
0
0
VERTEX
8
0
10
111.475203005569
20
98.1625588984496
30
0
0
VERTEX
8
0
10
112.260239646453
20
98.3726265703554
30
0
0
VERTEX
8
0
10
113.045276287337
20
98.5709910626924
30
0
0
VERTEX
8
0
10
113.830312928221
20
98.7701761913709
30
0
0
VERTEX
8
0
10
114.615349569106
20
98.9670664160008
30
0
0
VERTEX
8
0
10
115.40038620999
20
99.1383171213582
30
0
0
VERTEX
8
0
10
116.185422850874
20
99.3096074731268
30
0
0
VERTEX
8
0
10
116.970459491759
20
99.4784552305308
30
0
0
VERTEX
8
0
10
117.755496132643
20
99.6473656632987
30
0
0
VERTEX
8
0
10
118.540532773527
20
99.8145769030956
30
0
0
VERTEX
8
0
10
119.325569414411
20
99.979219810137
30
0
0
VERTEX
8
0
10
120.110606055296
20
100.141261758342
30
0
0
VERTEX
8
0
10
120.89564269618
20
100.311051466808
30
0
0
VERTEX
8
0
10
121.680679337064
20
100.475263170436
30
0
0
VERTEX
8
0
10
122.465715977949
20
100.636769606561
30
0
0
VERTEX
8
0
10
123.250752618833
20
100.794773791769
30
0
0
VERTEX
8
0
10
124.035789259717
20
100.950079494205
30
0
0
VERTEX
8
0
10
124.820825900601
20
101.102636125853
30
0
0
VERTEX
8
0
10
125.605862541486
20
101.255931438714
30
0
0
VERTEX
8
0
10
126.39089918237
20
101.408198080144
30
0
0
VERTEX
8
0
10
127.175935823254
20
101.55757448146
30
0
0
VERTEX
8
0
10
127.960972464139
20
101.704028779722
30
0
0
VERTEX
8
0
10
128.746009105023
20
101.847529045569
30
0
0
VERTEX
8
0
10
129.531045745907
20
101.988043274496
30
0
0
VERTEX
8
0
10
130.316082386792
20
102.125539378073
30
0
0
VERTEX
8
0
10
131.101119027676
20
102.254639221806
30
0
0
VERTEX
8
0
10
131.88615566856
20
102.380277247913
30
0
0
VERTEX
8
0
10
132.671192309444
20
102.502826147901
30
0
0
VERTEX
8
0
10
133.456228950329
20
102.624605278311
30
0
0
VERTEX
8
0
10
134.241265591213
20
102.745006105486
30
0
0
VERTEX
8
0
10
135.026302232097
20
102.862174669317
30
0
0
VERTEX
8
0
10
135.811338872982
20
102.976077956007
30
0
0
VERTEX
8
0
10
136.596375513866
20
103.087143165825
30
0
0
VERTEX
8
0
10
137.38141215475
20
103.19485238687
30
0
0
VERTEX
8
0
10
138.166448795634
20
103.29924401007
30
0
0
VERTEX
8
0
10
138.951485436519
20
103.401954270185
30
0
0
VERTEX
8
0
10
139.736522077403
20
103.501576058976
30
0
0
VERTEX
8
0
10
140.521558718287
20
103.597744174367
30
0
0
VERTEX
8
0
10
141.306595359172
20
103.69042448215
30
0
0
VERTEX
8
0
10
142.091632000056
20
103.758777703452
30
0
0
VERTEX
8
0
10
142.87666864094
20
103.830215641666
30
0
0
VERTEX
8
0
10
143.661705281825
20
103.898044091557
30
0
0
VERTEX
8
0
10
144.446741922709
20
103.976105605623
30
0
0
VERTEX
8
0
10
145.231778563593
20
104.049172373597
30
0
0
VERTEX
8
0
10
146.016815204477
20
104.118541545972
30
0
0
VERTEX
8
0
10
146.801851845362
20
104.180897546873
30
0
0
VERTEX
8
0
10
147.586888486246
20
104.238326620823
30
0
0
VERTEX
8
0
10
148.37192512713
20
104.291931547071
30
0
0
VERTEX
8
0
10
149.156961768015
20
104.341674748975
30
0
0
VERTEX
8
0
10
149.941998408899
20
104.37924262302
30
0
0
VERTEX
8
0
10
150.727035049783
20
104.415130223323
30
0
0
VERTEX
8
0
10
151.512071690668
20
104.447033516296
30
0
0
VERTEX
8
0
10
152.297108331552
20
104.470556378843
30
0
0
VERTEX
8
0
10
153.082144972436
20
104.490054751557
30
0
0
VERTEX
8
0
10
153.86718161332
20
104.5054348849
30
0
0
VERTEX
8
0
10
154.652218254205
20
104.519021424947
30
0
0
VERTEX
8
0
10
155.437254895089
20
104.529708598836
30
0
0
SEQEND
8
0
0
POLYLINE
8
0
62
2
70
0
10
0
20
0
30
0
0
VERTEX
8
0
10
6.2802931270743
20
37.0653583032642
30
0
0
VERTEX
8
0
10
7.06532976795859
20
36.6029383582843
30
0
0
VERTEX
8
0
10
7.85036640884288
20
36.4550814532018
30
0
0
VERTEX
8
0
10
8.63540304972716
20
36.5152776757349
30
0
0
VERTEX
8
0
10
9.42043969061145
20
36.7107193872579
30
0
0
VERTEX
8
0
10
10.2054763314957
20
36.989873252578
30
0
0
VERTEX
8
0
10
10.99051297238
20
37.3153835921092
30
0
0
VERTEX
8
0
10
11.7755496132643
20
37.6596923038679
30
0
0
VERTEX
8
0
10
12.5605862541486
20
38.0021877424291
30
0
0
VERTEX
8
0
10
13.3456228950329
20
38.3272792177749
30
0
0
VERTEX
8
0
10
14.1306595359172
20
38.6230620812229
30
0
0
VERTEX
8
0
10
14.9156961768015
20
38.8803742274311
30
0
0
VERTEX
8
0
10
15.7007328176858
20
39.0921194788564
30
0
0
VERTEX
8
0
10
16.4857694585701
20
39.2527770857632
30
0
0
VERTEX
8
0
10
17.2708060994543
20
39.358043575316
30
0
0
VERTEX
8
0
10
18.0558427403386
20
39.4045705121139
30
0
0
VERTEX
8
0
10
18.8408793812229
20
39.3897732222792
30
0
0
VERTEX
8
0
10
19.6259160221072
20
39.3116933858428
30
0
0
VERTEX
8
0
10
20.4109526629915
20
39.1689039544362
30
0
0
VERTEX
8
0
10
21.1959893038758
20
38.9604489598913
30
0
0
VERTEX
8
0
10
21.9810259447601
20
38.6858140336286
30
0
0
VERTEX
8
0
10
22.7660625856444
20
38.3449263061925
30
0
0
VERTEX
8
0
10
23.5510992265286
20
37.9381852063703
30
0
0
VERTEX
8
0
10
24.3361358674129
20
37.4665289830833
30
0
0
VERTEX
8
0
10
25.1211725082972
20
36.9315461612543
30
0
0
VERTEX
8
0
10
25.9062091491815
20
36.3356476584765
30
0
0
VERTEX
8
0
10
26.6912457900658
20
35.6823259007288
30
0
0
VERTEX
8
0
10
27.4762824309501
20
34.9765461508265
30
0
0
VERTEX
8
0
10
28.2613190718344
20
34.2253523931884
30
0
0
VERTEX
8
0
10
29.0463557127187
20
33.4388534043351
30
0
0
VERTEX
8
0
10
29.831392353603
20
32.6319801201121
30
0
0
VERTEX
8
0
10
30.6164289944872
20
31.8282321415994
30
0
0
VERTEX
8
0
10
31.4014656353715
20
31.0720045977789
30
0
0
VERTEX
8
0
10
32.1865022762558
20
30.4242309651936
30
0
0
VERTEX
8
0
10
32.9715389171401
20
29.8543382294623
30
0
0
VERTEX
8
0
10
33.7565755580244
20
29.3363523764633
30
0
0
VERTEX
8
0
10
34.5416121989087
20
28.8583253225471
30
0
0
VERTEX
8
0
10
35.326648839793
20
28.4129335548256
30
0
0
VERTEX
8
0
10
36.1116854806772
20
27.9951155203473
30
0
0
VERTEX
8
0
10
36.8967221215615
20
27.6011257444131
30
0
0
VERTEX
8
0
10
37.6817587624458
20
27.2280652114888
30
0
0
VERTEX
8
0
10
38.4667954033301
20
26.8736168221616
30
0
0
VERTEX
8
0
10
39.2518320442144
20
26.5358831636351
30
0
0
VERTEX
8
0
10
40.0368686850987
20
26.2132806986756
30
0
0
VERTEX
8
0
10
40.8219053259829
20
25.9044674296962
30
0
0
VERTEX
8
0
10
41.6069419668672
20
25.6082915743385
30
0
0
VERTEX
8
0
10
42.3919786077515
20
25.3237540326972
30
0
0
VERTEX
8
0
10
43.1770152486358
20
25.0499802436722
30
0
0
VERTEX
8
0
10
43.9620518895201
20
24.7861986305778
30
0
0
VERTEX
8
0
10
44.7470885304044
20
24.5317237916608
30
0
0
VERTEX
8
0
10
45.5321251712887
20
24.285943183775
30
0
0
VERTEX
8
0
10
46.3171618121729
20
24.0483064275271
30
0
0
VERTEX
8
0
10
47.1021984530572
20
23.8183166131382
30
0
0
VERTEX
8
0
10
47.8872350939415
20
23.5955231561718
30
0
0
VERTEX
8
0
10
48.6722717348258
20
23.3795158699225
30
0
0
VERTEX
8
0
10
49.4573083757101
20
23.1699200043394
30
0
0
VERTEX
8
0
10
50.2423450165944
20
22.9663920610749
30
0
0
VERTEX
8
0
10
51.0273816574786
20
22.7686162378674
30
0
0
VERTEX
8
0
10
51.8124182983629
20
22.5763013877831
30
0
0
VERTEX
8
0
10
52.5974549392472
20
22.389178403101
30
0
0
VERTEX
8
0
10
53.3824915801315
20
22.2069979520617
30
0
0
VERTEX
8
0
10
54.1675282210158
20
22.0295285108567
30
0
0
VERTEX
8
0
10
54.9525648619001
20
21.8565546442255
30
0
0
VERTEX
8
0
10
55.7376015027844
20
21.6878754966304
30
0
0
VERTEX
8
0
10
56.5226381436686
20
21.523303462783
30
0
0
VERTEX
8
0
10
57.3076747845529
20
21.3626630117071
30
0
0
VERTEX
8
0
10
58.0927114254372
20
21.2057896428728
30
0
0
VERTEX
8
0
10
58.8777480663215
20
21.0525289564468
30
0
0
VERTEX
8
0
10
59.6627847072058
20
20.9027358225604
30
0
0
VERTEX
8
0
10
60.4478213480901
20
20.7562736368374
30
0
0
VERTEX
8
0
10
61.2328579889744
20
20.6130136513454
30
0
0
VERTEX
8
0
10
62.0178946298586
20
20.4728343717324
30
0
0
VERTEX
8
0
10
62.8029312707429
20
20.3356210126314
30
0
0
VERTEX
8
0
10
63.5879679116272
20
20.2012650045283
30
0
0
VERTEX
8
0
10
64.3730045525115
20
20.0696635462172
30
0
0
VERTEX
8
0
10
65.1580411933958
20
19.9407191977528
30
0
0
VERTEX
8
0
10
65.9430778342801
20
19.8143395094774
30
0
0
VERTEX
8
0
10
66.7281144751644
20
19.6904366832622
30
0
0
VERTEX
8
0
10
67.5131511160486
20
19.5689272625896
30
0
0
VERTEX
8
0
10
68.2981877569329
20
19.4497318485147
30
0
0
VERTEX
8
0
10
69.0832243978172
20
19.3327748389006
30
0
0
VERTEX
8
0
10
69.8682610387015
20
19.2179841886303
30
0
0
VERTEX
8
0
10
70.6532976795858
20
19.1052911887618
30
0
0
VERTEX
8
0
10
71.4383343204701
20
18.9946302628245
30
0
0
VERTEX
8
0
10
72.2233709613543
20
18.8859387786562
30
0
0
VERTEX
8
0
10
73.0084076022386
20
18.7791568743528
30
0
0
VERTEX
8
0
10
73.7934442431229
20
18.674227297059
30
0
0
VERTEX
8
0
10
74.5784808840072
20
18.5710952534595
30
0
0
VERTEX
8
0
10
75.3635175248915
20
18.4697082709512
30
0
0
VERTEX
8
0
10
76.1485541657758
20
18.3700160685797
30
0
0
VERTEX
8
0
10
76.9335908066601
20
18.271970436913
30
0
0
VERTEX
8
0
10
77.7186274475444
20
18.175525126113
30
0
0
VERTEX
8
0
10
78.5036640884286
20
18.0806357415299
30
0
0
VERTEX
8
0
10
79.2887007293129
20
17.987259646215
30
0
0
VERTEX
8
0
10
80.0737373701972
20
17.8953558698016
30
0
0
VERTEX
8
0
10
80.8587740110815
20
17.8048850232542
30
0
0
VERTEX
8
0
10
81.6438106519658
20
17.7158092190343
30
0
0
VERTEX
8
0
10
82.4288472928501
20
17.6280919962698
30
0
0
VERTEX
8
0
10
83.2138839337343
20
17.5416982505524
30
0
0
VERTEX
8
0
10
83.9989205746186
20
17.4565941680198
30
0
0
VERTEX
8
0
10
84.7839572155029
20
17.3727471634112
30
0
0
VERTEX
8
0
10
85.5689938563872
20
17.2901258218067
30
0
0
VERTEX
8
0
10
86.3540304972715
20
17.2086998437915
30
0
0
VERTEX
8
0
10
87.1390671381558
20
17.1284399938019
30
0
0
VERTEX
8
0
10
87.9241037790401
20
17.0493180514331
30
0
0
VERTEX
8
0
10
88.7091404199243
20
16.9713067655063
30
0
0
VERTEX
8
0
10
89.4941770608086
20
16.894379810707
30
0
0
VERTEX
8
0
10
90.2792137016929
20
16.8185117466233
30
0
0
VERTEX
8
0
10
91.0642503425772
20
16.7436779790259
30
0
0
VERTEX
8
0
10
91.8492869834615
20
16.6698547232423
30
0
0
VERTEX
8
0
10
92.6343236243458
20
16.5970189694905
30
0
0
VERTEX
8
0
10
93.41936026523
20
16.5251484500469
30
0
0
VERTEX
8
0
10
94.2043969061143
20
16.4542216081332
30
0
0
VERTEX
8
0
10
94.9894335469986
20
16.3842175684138
30
0
0
VERTEX
8
0
10
95.7744701878829
20
16.3151161090046
30
0
0
VERTEX
8
0
10
96.5595068287672
20
16.2468976349021
30
0
0
VERTEX
8
0
10
97.3445434696515
20
16.179543152745
30
0
0
VERTEX
8
0
10
98.1295801105358
20
16.1130342468293
30
0
0
VERTEX
8
0
10
98.91461675142
20
16.0473530563037
30
0
0
VERTEX
8
0
10
99.6996533923043
20
15.9824822534749
30
0
0
VERTEX
8
0
10
100.484690033189
20
15.918405023158
30
0
0
VERTEX
8
0
10
101.269726674073
20
15.8551050430141
30
0
0
VERTEX
8
0
10
102.054763314957
20
15.7925664648169
30
0
0
VERTEX
8
0
10
102.839799955841
20
15.7307738965964
30
0
0
VERTEX
8
0
10
103.624836596726
20
15.6697123856118
30
0
0
VERTEX
8
0
10
104.40987323761
20
15.609367402107
30
0
0
VERTEX
8
0
10
105.194909878494
20
15.5497248238052
30
0
0
VERTEX
8
0
10
105.979946519379
20
15.4907709211046
30
0
0
VERTEX
8
0
10
106.764983160263
20
15.4324923429349
30
0
0
VERTEX
8
0
10
107.550019801147
20
15.3748761032422
30
0
0
VERTEX
8
0
10
108.335056442031
20
15.3179095680665
30
0
0
VERTEX
8
0
10
109.120093082916
20
15.2615804431827
30
0
0
VERTEX
8
0
10
109.9051297238
20
15.2058767622757
30
0
0
VERTEX
8
0
10
110.690166364684
20
15.1507868756211
30
0
0
VERTEX
8
0
10
111.475203005569
20
15.0962994392464
30
0
0
VERTEX
8
0
10
112.260239646453
20
15.0424034045494
30
0
0
VERTEX
8
0
10
113.045276287337
20
14.989088008349
30
0
0
VERTEX
8
0
10
113.830312928221
20
14.9363427633486
30
0
0
VERTEX
8
0
10
114.615349569106
20
14.8841574489912
30
0
0
VERTEX
8
0
10
115.40038620999
20
14.8325221026863
30
0
0
VERTEX
8
0
10
116.185422850874
20
14.7814270113924
30
0
0
VERTEX
8
0
10
116.970459491759
20
14.7308627035364
30
0
0
VERTEX
8
0
10
117.755496132643
20
14.6808199412546
30
0
0
VERTEX
8
0
10
118.540532773527
20
14.6312897129397
30
0
0
VERTEX
8
0
10
119.325569414411
20
14.5822632260804
30
0
0
VERTEX
8
0
10
120.110606055296
20
14.5337319003785
30
0
0
VERTEX
8
0
10
120.89564269618
20
14.485687361132
30
0
0
VERTEX
8
0
10
121.680679337064
20
14.4381214328714
30
0
0
VERTEX
8
0
10
122.465715977949
20
14.391026133238
30
0
0
VERTEX
8
0
10
123.250752618833
20
14.3443936670926
30
0
0
VERTEX
8
0
10
124.035789259717
20
14.2982164208457
30
0
0
VERTEX
8
0
10
124.820825900601
20
14.2524869569971
30
0
0
VERTEX
8
0
10
125.605862541486
20
14.2071980088787
30
0
0
VERTEX
8
0
10
126.39089918237
20
14.1623424755883
30
0
0
VERTEX
8
0
10
127.175935823254
20
14.117913417109
30
0
0
VERTEX
8
0
10
127.960972464139
20
14.0739040496041
30
0
0
VERTEX
8
0
10
128.746009105023
20
14.0303077408812
30
0
0
VERTEX
8
0
10
129.531045745907
20
13.9871180060177
30
0
0
VERTEX
8
0
10
130.316082386792
20
13.9443285031412
30
0
0
VERTEX
8
0
10
131.101119027676
20
13.9019330293581
30
0
0
VERTEX
8
0
10
131.88615566856
20
13.8599255168244
30
0
0
VERTEX
8
0
10
132.671192309444
20
13.8183000289526
30
0
0
VERTEX
8
0
10
133.456228950329
20
13.7770507567491
30
0
0
VERTEX
8
0
10
134.241265591213
20
13.7361720152775
30
0
0
VERTEX
8
0
10
135.026302232097
20
13.6956582402414
30
0
0
VERTEX
8
0
10
135.811338872982
20
13.6555039846827
30
0
0
VERTEX
8
0
10
136.596375513866
20
13.6157039157913
30
0
0
VERTEX
8
0
10
137.38141215475
20
13.5762528118201
30
0
0
VERTEX
8
0
10
138.166448795634
20
13.5371455591031
30
0
0
VERTEX
8
0
10
138.951485436519
20
13.498377149171
30
0
0
VERTEX
8
0
10
139.736522077403
20
13.4599426759615
30
0
0
VERTEX
8
0
10
140.521558718287
20
13.4218373331202
30
0
0
VERTEX
8
0
10
141.306595359172
20
13.3840564113884
30
0
0
VERTEX
8
0
10
142.091632000056
20
13.3465952960749
30
0
0
VERTEX
8
0
10
142.87666864094
20
13.3094494646088
30
0
0
VERTEX
8
0
10
143.661705281825
20
13.2726144841691
30
0
0
VERTEX
8
0
10
144.446741922709
20
13.2360860093901
30
0
0
VERTEX
8
0
10
145.231778563593
20
13.1998597801372
30
0
0
VERTEX
8
0
10
146.016815204477
20
13.1639316193538
30
0
0
VERTEX
8
0
10
146.801851845362
20
13.128297430973
30
0
0
VERTEX
8
0
10
147.586888486246
20
13.0929531978949
30
0
0
VERTEX
8
0
10
148.37192512713
20
13.0578949800252
30
0
0
VERTEX
8
0
10
149.156961768015
20
13.0231189123736
30
0
0
VERTEX
8
0
10
149.941998408899
20
12.9886212032093
30
0
0
VERTEX
8
0
10
150.727035049783
20
12.954398132273
30
0
0
VERTEX
8
0
10
151.512071690668
20
12.920446049041
30
0
0
VERTEX
8
0
10
152.297108331552
20
12.886761371042
30
0
0
VERTEX
8
0
10
153.082144972436
20
12.853340582223
30
0
0
VERTEX
8
0
10
153.86718161332
20
12.8201802313636
30
0
0
VERTEX
8
0
10
154.652218254205
20
12.7872769305362
30
0
0
VERTEX
8
0
10
155.437254895089
20
12.7546273536119
30
0
0
SEQEND
8
0
0
POLYLINE
8
0
62
3
70
0
10
0
20
0
30
0
0
VERTEX
8
0
10
6.2802931270743
20
50.719222412185
30
0
0
VERTEX
8
0
10
7.06532976795859
20
51.3840791609136
30
0
0
VERTEX
8
0
10
7.85036640884288
20
52.310140142129
30
0
0
VERTEX
8
0
10
8.63540304972716
20
53.3966888481715
30
0
0
VERTEX
8
0
10
9.42043969061145
20
54.5750992429122
30
0
0
VERTEX
8
0
10
10.2054763314957
20
55.7969434629357
30
0
0
VERTEX
8
0
10
10.99051297238
20
57.0272005997256
30
0
0
VERTEX
8
0
10
11.7755496132643
20
58.2400914161323
30
0
0
VERTEX
8
0
10
12.5605862541486
20
59.4163931956801
30
0
0
VERTEX
8
0
10
13.3456228950329
20
60.541645530166
30
0
0
VERTEX
8
0
10
14.1306595359172
20
61.6049189998649
30
0
0
VERTEX
8
0
10
14.9156961768015
20
62.5979528286738
30
0
0
VERTEX
8
0
10
15.7007328176858
20
63.514541584839
30
0
0
VERTEX
8
0
10
16.4857694585701
20
64.350094160452
30
0
0
VERTEX
8
0
10
17.2708060994543
20
65.1013145765071
30
0
0
VERTEX
8
0
10
18.0558427403386
20
65.7659707794664
30
0
0
VERTEX
8
0
10
18.8408793812229
20
66.3427284070098
30
0
0
VERTEX
8
0
10
19.6259160221072
20
66.831033723156
30
0
0
VERTEX
8
0
10
20.4109526629915
20
67.2310348762794
30
0
0
VERTEX
8
0
10
21.1959893038758
20
67.5435341330738
30
0
0
VERTEX
8
0
10
21.9810259447601
20
67.7699663124403
30
0
0
VERTEX
8
0
10
22.7660625856444
20
67.912400642752
30
0
0
VERTEX
8
0
10
23.5510992265286
20
67.9735649623863
30
0
0
VERTEX
8
0
10
24.3361358674129
20
67.9568928163711
30
0
0
VERTEX
8
0
10
25.1211725082972
20
67.866595849198
30
0
0
VERTEX
8
0
10
25.9062091491815
20
67.7077663779819
30
0
0
VERTEX
8
0
10
26.6912457900658
20
67.4865189460673
30
0
0
VERTEX
8
0
10
27.4762824309501
20
67.2101867427648
30
0
0
VERTEX
8
0
10
28.2613190718344
20
66.8876033549693
30
0
0
VERTEX
8
0
10
29.0463557127187
20
66.5295348431597
30
0
0
VERTEX
8
0
10
29.831392353603
20
66.1494253513435
30
0
0
VERTEX
8
0
10
30.6164289944872
20
65.76499310195
30
0
0
VERTEX
8
0
10
31.4014656353715
20
65.4036863015376
30
0
0
VERTEX
8
0
10
32.1865022762558
20
65.0984462747811
30
0
0
VERTEX
8
0
10
32.9715389171401
20
64.8340604070473
30
0
0
VERTEX
8
0
10
33.7565755580244
20
64.5971783323511
30
0
0
VERTEX
8
0
10
34.5416121989087
20
64.3814943766261
30
0
0
VERTEX
8
0
10
35.326648839793
20
64.1830871097402
30
0
0
VERTEX
8
0
10
36.1116854806772
20
63.9992216416976
30
0
0
VERTEX
8
0
10
36.8967221215615
20
63.8278624121511
30
0
0
VERTEX
8
0
10
37.6817587624458
20
63.6674281945379
30
0
0
VERTEX
8
0
10
38.4667954033301
20
63.5166526105551
30
0
0
VERTEX
8
0
10
39.2518320442144
20
63.374497812761
30
0
0
VERTEX
8
0
10
40.0368686850987
20
63.2400977444937
30
0
0
VERTEX
8
0
10
40.8219053259829
20
63.1127190870571
30
0
0
VERTEX
8
0
10
41.6069419668672
20
62.9917333870238
30
0
0
VERTEX
8
0
10
42.3919786077515
20
62.876596568629
30
0
0
VERTEX
8
0
10
43.1770152486358
20
62.7668335026863
30
0
0
VERTEX
8
0
10
43.9620518895201
20
62.662026142633
30
0
0
VERTEX
8
0
10
44.7470885304044
20
62.5618042413732
30
0
0
VERTEX
8
0
10
45.5321251712887
20
62.465837976218
30
0
0
VERTEX
8
0
10
46.3171618121729
20
62.3738320113315
30
0
0
VERTEX
8
0
10
47.1021984530572
20
62.2855206611398
30
0
0
VERTEX
8
0
10
47.8872350939415
20
62.2006639093106
30
0
0
VERTEX
8
0
10
48.6722717348258
20
62.1190441012861
30
0
0
VERTEX
8
0
10
49.4573083757101
20
62.0404631732635
30
0
0
VERTEX
8
0
10
50.2423450165944
20
61.9647403129277
30
0
0
VERTEX
8
0
10
51.0273816574786
20
61.8917099709875
30
0
0
VERTEX
8
0
10
51.8124182983629
20
61.8212201602135
30
0
0
VERTEX
8
0
10
52.5974549392472
20
61.7531309919703
30
0
0
VERTEX
8
0
10
53.3824915801315
20
61.6873134103637
30
0
0
VERTEX
8
0
10
54.1675282210158
20
61.6236480919153
30
0
0
VERTEX
8
0
10
54.9525648619001
20
61.5620244847551
30
0
0
VERTEX
8
0
10
55.7376015027844
20
61.502339966077
30
0
0
VERTEX
8
0
10
56.5226381436686
20
61.4444991003801
30
0
0
VERTEX
8
0
10
57.3076747845529
20
61.388412984026
30
0
0
VERTEX
8
0
10
58.0927114254372
20
61.3339986640633
30
0
0
VERTEX
8
0
10
58.8777480663215
20
61.2811786212341
30
0
0
VERTEX
8
0
10
59.6627847072058
20
61.2298803086641
30
0
0
VERTEX
8
0
10
60.4478213480901
20
61.1800357390613
30
0
0
VERTEX
8
0
10
61.2328579889744
20
61.1315811143154
30
0
0
VERTEX
8
0
10
62.0178946298586
20
61.0844564922858
30
0
0
VERTEX
8
0
10
62.8029312707429
20
61.0386054863227
30
0
0
VERTEX
8
0
10
63.5879679116272
20
60.9939749936725
30
0
0
VERTEX
8
0
10
64.3730045525115
20
60.9505149494566
30
0
0
VERTEX
8
0
10
65.1580411933958
20
60.9081781033483
30
0
0
VERTEX
8
0
10
65.9430778342801
20
60.8669198164519
30
0
0
VERTEX
8
0
10
66.7281144751644
20
60.826697876205
30
0
0
VERTEX
8
0
10
67.5131511160486
20
60.7874723273972
30
0
0
VERTEX
8
0
10
68.2981877569329
20
60.7492053176393
30
0
0
VERTEX
8
0
10
69.0832243978172
20
60.7118609558066
30
0
0
VERTEX
8
0
10
69.8682610387015
20
60.6754051821659
30
0
0
VERTEX
8
0
10
70.6532976795858
20
60.6398056490368
30
0
0
VERTEX
8
0
10
71.4383343204701
20
60.6050316109725
30
0
0
VERTEX
8
0
10
72.2233709613543
20
60.5710538235609
30
0
0
VERTEX
8
0
10
73.0084076022386
20
60.5378444500391
30
0
0
VERTEX
8
0
10
73.7934442431229
20
60.5053769750078
30
0
0
VERTEX
8
0
10
74.5784808840072
20
60.473626124606
30
0
0
VERTEX
8
0
10
75.3635175248915
20
60.4425677925716
30
0
0
VERTEX
8
0
10
76.1485541657758
20
60.412178971673
30
0
0
VERTEX
8
0
10
76.9335908066601
20
60.3824376900517
30
0
0
VERTEX
8
0
10
77.7186274475444
20
60.3533229520589
30
0
0
VERTEX
8
0
10
78.5036640884286
20
60.3248146832084
30
0
0
VERTEX
8
0
10
79.2887007293129
20
60.2968936789111
30
0
0
VERTEX
8
0
10
80.0737373701972
20
60.2695415566804
30
0
0
VERTEX
8
0
10
80.8587740110815
20
60.2427407115319
30
0
0
VERTEX
8
0
10
81.6438106519658
20
60.2164742743278
30
0
0
VERTEX
8
0
10
82.4288472928501
20
60.1907260728305
30
0
0
VERTEX
8
0
10
83.2138839337343
20
60.1654805952633
30
0
0
VERTEX
8
0
10
83.9989205746186
20
60.1407229561842
30
0
0
VERTEX
8
0
10
84.7839572155029
20
60.1164388645017
30
0
0
VERTEX
8
0
10
85.5689938563872
20
60.0926145934712
30
0
0
VERTEX
8
0
10
86.3540304972715
20
60.0692369525307
30
0
0
VERTEX
8
0
10
87.1390671381558
20
60.0462932608403
30
0
0
VERTEX
8
0
10
87.9241037790401
20
60.023771322406
30
0
0
VERTEX
8
0
10
88.7091404199243
20
60.0016594026739
30
0
0
VERTEX
8
0
10
89.4941770608086
20
59.9799462064946
30
0
0
VERTEX
8
0
10
90.2792137016929
20
59.9586208573619
30
0
0
VERTEX
8
0
10
91.0642503425772
20
59.9376728778393
30
0
0
VERTEX
8
0
10
91.8492869834615
20
59.9170921710956
30
0
0
VERTEX
8
0
10
92.6343236243458
20
59.8968690034729
30
0
0
VERTEX
8
0
10
93.41936026523
20
59.8769939880223
30
0
0
VERTEX
8
0
10
94.2043969061143
20
59.8574580689418
30
0
0
VERTEX
8
0
10
94.9894335469986
20
59.8382525068596
30
0
0
VERTEX
8
0
10
95.7744701878829
20
59.8193688649075
30
0
0
VERTEX
8
0
10
96.5595068287672
20
59.8007989955365
30
0
0
VERTEX
8
0
10
97.3445434696515
20
59.7825350280256
30
0
0
VERTEX
8
0
10
98.1295801105358
20
59.7645693566436
30
0
0
VERTEX
8
0
10
98.91461675142
20
59.7468946294217
30
0
0
VERTEX
8
0
10
99.6996533923043
20
59.7295037375015
30
0
0
VERTEX
8
0
10
100.484690033189
20
59.7123898050218
30
0
0
VERTEX
8
0
10
101.269726674073
20
59.6955461795147
30
0
0
VERTEX
8
0
10
102.054763314957
20
59.6789664227794
30
0
0
VERTEX
8
0
10
102.839799955841
20
59.6626443022047
30
0
0
VERTEX
8
0
10
103.624836596726
20
59.646573782518
30
0
0
VERTEX
8
0
10
104.40987323761
20
59.6307490179314
30
0
0
VERTEX
8
0
10
105.194909878494
20
59.6151643446667
30
0
0
VERTEX
8
0
10
105.979946519379
20
59.5998142738357
30
0
0
VERTEX
8
0
10
106.764983160263
20
59.5846934846552
30
0
0
VERTEX
8
0
10
107.550019801147
20
59.5697968179817
30
0
0
VERTEX
8
0
10
108.335056442031
20
59.5551192701435
30
0
0
VERTEX
8
0
10
109.120093082916
20
59.540655987059
30
0
0
VERTEX
8
0
10
109.9051297238
20
59.5264022586203
30
0
0
VERTEX
8
0
10
110.690166364684
20
59.5123535133342
30
0
0
VERTEX
8
0
10
111.475203005569
20
59.4985053132006
30
0
0
VERTEX
8
0
10
112.260239646453
20
59.4848533488211
30
0
0
VERTEX
8
0
10
113.045276287337
20
59.4713934347227
30
0
0
VERTEX
8
0
10
113.830312928221
20
59.4581215048861
30
0
0
VERTEX
8
0
10
114.615349569106
20
59.4450336084683
30
0
0
VERTEX
8
0
10
115.40038620999
20
59.4321259057108
30
0
0
VERTEX
8
0
10
116.185422850874
20
59.419394664021
30
0
0
VERTEX
8
0
10
116.970459491759
20
59.4068362542225
30
0
0
VERTEX
8
0
10
117.755496132643
20
59.3944471469606
30
0
0
VERTEX
8
0
10
118.540532773527
20
59.3822239092604
30
0
0
VERTEX
8
0
10
119.325569414411
20
59.3701632012263
30
0
0
VERTEX
8
0
10
120.110606055296
20
59.358261772879
30
0
0
VERTEX
8
0
10
120.89564269618
20
59.3465164611203
30
0
0
VERTEX
8
0
10
121.680679337064
20
59.3349241868219
30
0
0
VERTEX
8
0
10
122.465715977949
20
59.3234819520323
30
0
0
VERTEX
8
0
10
123.250752618833
20
59.3121868372942
30
0
0
VERTEX
8
0
10
124.035789259717
20
59.3010359990691
30
0
0
VERTEX
8
0
10
124.820825900601
20
59.2900266672645
30
0
0
VERTEX
8
0
10
125.605862541486
20
59.2791561428555
30
0
0
VERTEX
8
0
10
126.39089918237
20
59.2684217956022
30
0
0
VERTEX
8
0
10
127.175935823254
20
59.2578210618526
30
0
0
VERTEX
8
0
10
127.960972464139
20
59.2473514424318
30
0
0
VERTEX
8
0
10
128.746009105023
20
59.2370105006102
30
0
0
VERTEX
8
0
10
129.531045745907
20
59.2267958601496
30
0
0
VERTEX
8
0
10
130.316082386792
20
59.2167052034227
30
0
0
VERTEX
8
0
10
131.101119027676
20
59.206736269603
30
0
0
VERTEX
8
0
10
131.88615566856
20
59.1968868529206
30
0
0
VERTEX
8
0
10
132.671192309444
20
59.1871548009847
30
0
0
VERTEX
8
0
10
133.456228950329
20
59.1775380131651
30
0
0
VERTEX
8
0
10
134.241265591213
20
59.1680344390352
30
0
0
VERTEX
8
0
10
135.026302232097
20
59.1586420768687
30
0
0
VERTEX
8
0
10
135.811338872982
20
59.1493589721922
30
0
0
VERTEX
8
0
10
136.596375513866
20
59.140183216389
30
0
0
VERTEX
8
0
10
137.38141215475
20
59.1311129453524
30
0
0
VERTEX
8
0
10
138.166448795634
20
59.1221463381862
30
0
0
VERTEX
8
0
10
138.951485436519
20
59.1132816159518
30
0
0
VERTEX
8
0
10
139.736522077403
20
59.1045170404574
30
0
0
VERTEX
8
0
10
140.521558718287
20
59.0958509130912
30
0
0
VERTEX
8
0
10
141.306595359172
20
59.0872815736922
30
0
0
VERTEX
8
0
10
142.091632000056
20
59.0788073994624
30
0
0
VERTEX
8
0
10
142.87666864094
20
59.0704268039139
30
0
0
VERTEX
8
0
10
143.661705281825
20
59.0621382358524
30
0
0
VERTEX
8
0
10
144.446741922709
20
59.0539401783956
30
0
0
VERTEX
8
0
10
145.231778563593
20
59.0458311480231
30
0
0
VERTEX
8
0
10
146.016815204477
20
59.0378096936581
30
0
0
VERTEX
8
0
10
146.801851845362
20
59.0298743957808
30
0
0
VERTEX
8
0
10
147.586888486246
20
59.0220238655693
30
0
0
VERTEX
8
0
10
148.37192512713
20
59.0142567440692
30
0
0
VERTEX
8
0
10
149.156961768015
20
59.0065717013909
30
0
0
VERTEX
8
0
10
149.941998408899
20
58.9989674359309
30
0
0
VERTEX
8
0
10
150.727035049783
20
58.9914426736201
30
0
0
VERTEX
8
0
10
151.512071690668
20
58.9839961671955
30
0
0
VERTEX
8
0
10
152.297108331552
20
58.9766266954948
30
0
0
VERTEX
8
0
10
153.082144972436
20
58.9693330627724
30
0
0
VERTEX
8
0
10
153.86718161332
20
58.9621140980392
30
0
0
VERTEX
8
0
10
154.652218254205
20
58.9549686544212
30
0
0
VERTEX
8
0
10
155.437254895089
20
58.9478956085379
30
0
0
SEQEND
8
0
0
POLYLINE
8
0
62
4
70
0
10
0
20
0
30
0
0
VERTEX
8
0
10
6.2802931270743
20
49.6639519497568
30
0
0
VERTEX
8
0
10
7.06532976795859
20
51.0184380277213
30
0
0
VERTEX
8
0
10
7.85036640884288
20
52.3888777022966
30
0
0
VERTEX
8
0
10
8.63540304972716
20
53.762466632041
30
0
0
VERTEX
8
0
10
9.42043969061145
20
54.976271632586
30
0
0
VERTEX
8
0
10
10.2054763314957
20
56.1141907750687
30
0
0
VERTEX
8
0
10
10.99051297238
20
57.2328483779833
30
0
0
VERTEX
8
0
10
11.7755496132643
20
58.3251624182081
30
0
0
VERTEX
8
0
10
12.5605862541486
20
59.0423420802396
30
0
0
VERTEX
8
0
10
13.3456228950329
20
59.8185666907604
30
0
0
VERTEX
8
0
10
14.1306595359172
20
60.5605857857072
30
0
0
VERTEX
8
0
10
14.9156961768015
20
61.2320419321584
30
0
0
VERTEX
8
0
10
15.7007328176858
20
61.8619377681703
30
0
0
VERTEX
8
0
10
16.4857694585701
20
62.4482022643547
30
0
0
VERTEX
8
0
10
17.2708060994543
20
62.9739085119261
30
0
0
VERTEX
8
0
10
18.0558427403386
20
63.4431621657593
30
0
0
VERTEX
8
0
10
18.8408793812229
20
63.8641341620933
30
0
0
VERTEX
8
0
10
19.6259160221072
20
64.2359861095097
30
0
0
VERTEX
8
0
10
20.4109526629915
20
64.5475971407083
30
0
0
VERTEX
8
0
10
21.1959893038758
20
64.8121980955031
30
0
0
VERTEX
8
0
10
21.9810259447601
20
65.0281487171756
30
0
0
VERTEX
8
0
10
22.7660625856444
20
65.189104598079
30
0
0
VERTEX
8
0
10
23.5510992265286
20
65.3029540490747
30
0
0
VERTEX
8
0
10
24.3361358674129
20
65.3725156710417
30
0
0
VERTEX
8
0
10
25.1211725082972
20
65.4066459792564
30
0
0
VERTEX
8
0
10
25.9062091491815
20
65.4074654025482
30
0
0
VERTEX
8
0
10
26.6912457900658
20
65.3719598775285
30
0
0
VERTEX
8
0
10
27.4762824309501
20
65.3038688818109
30
0
0
VERTEX
8
0
10
28.2613190718344
20
65.2162766000073
30
0
0
VERTEX
8
0
10
29.0463557127187
20
65.1038490229384
30
0
0
VERTEX
8
0
10
29.831392353603
20
64.9731267775165
30
0
0
VERTEX
8
0
10
30.6164289944872
20
64.840640617757
30
0
0
VERTEX
8
0
10
31.4014656353715
20
64.705035714269
30
0
0
VERTEX
8
0
10
32.1865022762558
20
64.5691813706595
30
0
0
VERTEX
8
0
10
32.9715389171401
20
64.4344140108283
30
0
0
VERTEX
8
0
10
33.7565755580244
20
64.3110387733181
30
0
0
VERTEX
8
0
10
34.5416121989087
20
64.1855781768987
30
0
0
VERTEX
8
0
10
35.326648839793
20
64.0611153544047
30
0
0
VERTEX
8
0
10
36.1116854806772
20
63.9511089734442
30
0
0
VERTEX
8
0
10
36.8967221215615
20
63.8411802178128
30
0
0
VERTEX
8
0
10
37.6817587624458
20
63.7320665275402
30
0
0
VERTEX
8
0
10
38.4667954033301
20
63.6276039875287
30
0
0
VERTEX
8
0
10
39.2518320442144
20
63.5255964315923
30
0
0
VERTEX
8
0
10
40.0368686850987
20
63.4243334757462
30
0
0
VERTEX
8
0
10
40.8219053259829
20
63.3238186921256
30
0
0
VERTEX
8
0
10
41.6069419668672
20
63.2294069408081
30
0
0
VERTEX
8
0
10
42.3919786077515
20
63.1343592001267
30
0
0
VERTEX
8
0
10
43.1770152486358
20
63.0400097323702
30
0
0
VERTEX
8
0
10
43.9620518895201
20
62.9514254934405
30
0
0
VERTEX
8
0
10
44.7470885304044
20
62.863663308106
30
0
0
VERTEX
8
0
10
45.5321251712887
20
62.7765310006578
30
0
0
VERTEX
8
0
10
46.3171618121729
20
62.6900311974806
30
0
0
VERTEX
8
0
10
47.1021984530572
20
62.6041665203568
30
0
0
VERTEX
8
0
10
47.8872350939415
20
62.5189395861679
30
0
0
VERTEX
8
0
10
48.6722717348258
20
62.4343530065955
30
0
0
VERTEX
8
0
10
49.4573083757101
20
62.358112178216
30
0
0
VERTEX
8
0
10
50.2423450165944
20
62.2809529446653
30
0
0
VERTEX
8
0
10
51.0273816574786
20
62.204348366695
30
0
0
VERTEX
8
0
10
51.8124182983629
20
62.1304252999284
30
0
0
VERTEX
8
0
10
52.5974549392472
20
62.0573473854017
30
0
0
VERTEX
8
0
10
53.3824915801315
20
61.9847945546708
30
0
0
VERTEX
8
0
10
54.1675282210158
20
61.9163904012073
30
0
0
VERTEX
8
0
10
54.9525648619001
20
61.8519950881999
30
0
0
VERTEX
8
0
10
55.7376015027844
20
61.7880293434231
30
0
0
VERTEX
8
0
10
56.5226381436686
20
61.724494502375
30
0
0
VERTEX
8
0
10
57.3076747845529
20
61.665375345643
30
0
0
VERTEX
8
0
10
58.0927114254372
20
61.6061505537154
30
0
0
VERTEX
8
0
10
58.8777480663215
20
61.5473135315222
30
0
0
VERTEX
8
0
10
59.6627847072058
20
61.4924083140174
30
0
0
VERTEX
8
0
10
60.4478213480901
20
61.4388677467056
30
0
0
VERTEX
8
0
10
61.2328579889744
20
61.3856592052511
30
0
0
VERTEX
8
0
10
62.0178946298586
20
61.3327835537886
30
0
0
VERTEX
8
0
10
62.8029312707429
20
61.2833861512588
30
0
0
VERTEX
8
0
10
63.5879679116272
20
61.2333743682617
30
0
0
VERTEX
8
0
10
64.3730045525115
20
61.1836700294276
30
0
0
VERTEX
8
0
10
65.1580411933958
20
61.1365633673455
30
0
0
VERTEX
8
0
10
65.9430778342801
20
61.0896375083618
30
0
0
VERTEX
8
0
10
66.7281144751644
20
61.0429943586676
30
0
0
VERTEX
8
0
10
67.5131511160486
20
60.9995643791644
30
0
0
VERTEX
8
0
10
68.2981877569329
20
60.9577463723302
30
0
0
VERTEX
8
0
10
69.0832243978172
20
60.9161624368957
30
0
0
VERTEX
8
0
10
69.8682610387015
20
60.8748130525477
30
0
0
VERTEX
8
0
10
70.6532976795858
20
60.8364673918309
30
0
0
VERTEX
8
0
10
71.4383343204701
20
60.7976640581301
30
0
0
VERTEX
8
0
10
72.2233709613543
20
60.7590730726491
30
0
0
VERTEX
8
0
10
73.0084076022386
20
60.7285772460037
30
0
0
VERTEX
8
0
10
73.7934442431229
20
60.6986115884197
30
0
0
VERTEX
8
0
10
74.5784808840072
20
60.6687770196558
30
0
0
VERTEX
8
0
10
75.3635175248915
20
60.6318743322987
30
0
0
VERTEX
8
0
10
76.1485541657758
20
60.5901496445733
30
0
0
VERTEX
8
0
10
76.9335908066601
20
60.5486883881812
30
0
0
VERTEX
8
0
10
77.7186274475444
20
60.5074911046523
30
0
0
VERTEX
8
0
10
78.5036640884286
20
60.4811763180453
30
0
0
VERTEX
8
0
10
79.2887007293129
20
60.4523167634062
30
0
0
VERTEX
8
0
10
80.0737373701972
20
60.4235899063671
30
0
0
VERTEX
8
0
10
80.8587740110815
20
60.3949959362803
30
0
0
VERTEX
8
0
10
81.6438106519658
20
60.3665350419808
30
0
0
VERTEX
8
0
10
82.4288472928501
20
60.33820741178
30
0
0
VERTEX
8
0
10
83.2138839337343
20
60.3100132334604
30
0
0
VERTEX
8
0
10
83.9989205746186
20
60.2833944454442
30
0
0
VERTEX
8
0
10
84.7839572155029
20
60.2564218342481
30
0
0
VERTEX
8
0
10
85.5689938563872
20
60.2295741372972
30
0
0
VERTEX
8
0
10
86.3540304972715
20
60.2050013781763
30
0
0
VERTEX
8
0
10
87.1390671381558
20
60.1802902833387
30
0
0
VERTEX
8
0
10
87.9241037790401
20
60.1556873044586
30
0
0
VERTEX
8
0
10
88.7091404199243
20
60.1326292795539
30
0
0
VERTEX
8
0
10
89.4941770608086
20
60.1101090692276
30
0
0
VERTEX
8
0
10
90.2792137016929
20
60.0876813044254
30
0
0
VERTEX
8
0
10
91.0642503425772
20
60.0653460887018
30
0
0
VERTEX
8
0
10
91.8492869834615
20
60.0431035253379
30
0
0
VERTEX
8
0
10
92.6343236243458
20
60.020953717339
30
0
0
VERTEX
8
0
10
93.41936026523
20
59.9988967674326
30
0
0
VERTEX
8
0
10
94.2043969061143
20
59.9769327780664
30
0
0
VERTEX
8
0
10
94.9894335469986
20
59.9550618514062
30
0
0
VERTEX
8
0
10
95.7744701878829
20
59.9332840893335
30
0
0
VERTEX
8
0
10
96.5595068287672
20
59.9128080753426
30
0
0
VERTEX
8
0
10
97.3445434696515
20
59.893007857342
30
0
0
VERTEX
8
0
10
98.1295801105358
20
59.8732861670552
30
0
0
VERTEX
8
0
10
98.91461675142
20
59.8536430821066
30
0
0
VERTEX
8
0
10
99.6996533923043
20
59.8363964476823
30
0
0
VERTEX
8
0
10
100.484690033189
20
59.818670470197
30
0
0
VERTEX
8
0
10
101.269726674073
20
59.8010096339038
30
0
0
VERTEX
8
0
10
102.054763314957
20
59.7817619295834
30
0
0
VERTEX
8
0
10
102.839799955841
20
59.7624888588833
30
0
0
VERTEX
8
0
10
103.624836596726
20
59.7432948315254
30
0
0
VERTEX
8
0
10
104.40987323761
20
59.7261786226671
30
0
0
VERTEX
8
0
10
105.194909878494
20
59.7105912648392
30
0
0
VERTEX
8
0
10
105.979946519379
20
59.6950569584161
30
0
0
VERTEX
8
0
10
106.764983160263
20
59.6795757448247
30
0
0
VERTEX
8
0
10
107.550019801147
20
59.6641476653936
30
0
0
VERTEX
8
0
10
108.335056442031
20
59.6487727613518
30
0
0
VERTEX
8
0
10
109.120093082916
20
59.6334510738293
30
0
0
VERTEX
8
0
10
109.9051297238
20
59.6196170505033
30
0
0
VERTEX
8
0
10
110.690166364684
20
59.6060853966523
30
0
0
VERTEX
8
0
10
111.475203005569
20
59.5925958808256
30
0
0
VERTEX
8
0
10
112.260239646453
20
59.5791485316448
30
0
0
VERTEX
8
0
10
113.045276287337
20
59.5620254209889
30
0
0
VERTEX
8
0
10
113.830312928221
20
59.5461755858417
30
0
0
VERTEX
8
0
10
114.615349569106
20
59.5303853514222
30
0
0
VERTEX
8
0
10
115.40038620999
20
59.5146547651697
30
0
0
VERTEX
8
0
10
116.185422850874
20
59.498983874394
30
0
0
VERTEX
8
0
10
116.970459491759
20
59.4833727262758
30
0
0
VERTEX
8
0
10
117.755496132643
20
59.4708977838352
30
0
0
VERTEX
8
0
10
118.540532773527
20
59.4594684369877
30
0
0
VERTEX
8
0
10
119.325569414411
20
59.4480715913118
30
0
0
VERTEX
8
0
10
120.110606055296
20
59.4367072655041
30
0
0
VERTEX
8
0
10
120.89564269618
20
59.4276202008915
30
0
0
VERTEX
8
0
10
121.680679337064
20
59.4179276171275
30
0
0
VERTEX
8
0
10
122.465715977949
20
59.4082589618934
30
0
0
VERTEX
8
0
10
123.250752618833
20
59.3912263990989
30
0
0
VERTEX
8
0
10
124.035789259717
20
59.3744379868125
30
0
0
VERTEX
8
0
10
124.820825900601
20
59.3577230167831
30
0
0
VERTEX
8
0
10
125.605862541486
20
59.3462952893189
30
0
0
VERTEX
8
0
10
126.39089918237
20
59.3375955946873
30
0
0
VERTEX
8
0
10
127.175935823254
20
59.3289160884403
30
0
0
VERTEX
8
0
10
127.960972464139
20
59.3202567794395
30
0
0
VERTEX
8
0
10
128.746009105023
20
59.3116176765311
30
0
0
VERTEX
8
0
10
129.531045745907
20
59.3029987885459
30
0
0
VERTEX
8
0
10
130.316082386792
20
59.2944001242989
30
0
0
VERTEX
8
0
10
131.101119027676
20
59.2800334173847
30
0
0
VERTEX
8
0
10
131.88615566856
20
59.2652874568517
30
0
0
VERTEX
8
0
10
132.671192309444
20
59.2506019485025
30
0
0
VERTEX
8
0
10
133.456228950329
20
59.2407538685179
30
0
0
VERTEX
8
0
10
134.241265591213
20
59.2346057406802
30
0
0
VERTEX
8
0
10
135.026302232097
20
59.2284683467913
30
0
0
VERTEX
8
0
10
135.811338872982
20
59.222341690188
30
0
0
VERTEX
8
0
10
136.596375513866
20
59.207984225743
30
0
0
VERTEX
8
0
10
137.38141215475
20
59.1950544278184
30
0
0
VERTEX
8
0
10
138.166448795634
20
59.1821731975964
30
0
0
VERTEX
8
0
10
138.951485436519
20
59.1743811759302
30
0
0
VERTEX
8
0
10
139.736522077403
20
59.1675969912524
30
0
0
VERTEX
8
0
10
140.521558718287
20
59.1608264379372
30
0
0
VERTEX
8
0
10
141.306595359172
20
59.154069520665
30
0
0
VERTEX
8
0
10
142.091632000056
20
59.1429250222531
30
0
0
VERTEX
8
0
10
142.87666864094
20
59.1332217156643
30
0
0
VERTEX
8
0
10
143.661705281825
20
59.1235468994463
30
0
0
VERTEX
8
0
10
144.446741922709
20
59.1155404408553
30
0
0
VERTEX
8
0
10
145.231778563593
20
59.1073963431616
30
0
0
VERTEX
8
0
10
146.016815204477
20
59.0992726706487
30
0
0
VERTEX
8
0
10
146.801851845362
20
59.0911694317407
30
0
0
VERTEX
8
0
10
147.586888486246
20
59.083086634845
30
0
0
VERTEX
8
0
10
148.37192512713
20
59.0750242883524
30
0
0
VERTEX
8
0
10
149.156961768015
20
59.0669824006372
30
0
0
VERTEX
8
0
10
149.941998408899
20
59.0569558623802
30
0
0
VERTEX
8
0
10
150.727035049783
20
59.047508460766
30
0
0
VERTEX
8
0
10
151.512071690668
20
59.0380896737725
30
0
0
VERTEX
8
0
10
152.297108331552
20
59.0316214932021
30
0
0
VERTEX
8
0
10
153.082144972436
20
59.025131214394
30
0
0
VERTEX
8
0
10
153.86718161332
20
59.0186546658904
30
0
0
VERTEX
8
0
10
154.652218254205
20
59.0163764142423
30
0
0
VERTEX
8
0
10
155.437254895089
20
59.0163764142423
30
0
0
SEQEND
8
0
0
POLYLINE
8
0
62
2
70
0
10
0
20
0
30
0
0
VERTEX
8
0
10
6.2802931270743
20
6.24953200842889
30
0
0
VERTEX
8
0
10
7.06532976795859
20
6.82976354151207
30
0
0
VERTEX
8
0
10
7.85036640884288
20
7.38520485404702
30
0
0
VERTEX
8
0
10
8.63540304972716
20
7.9176882015745
30
0
0
VERTEX
8
0
10
9.42043969061145
20
8.42871187786536
30
0
0
VERTEX
8
0
10
10.2054763314957
20
8.91955190765117
30
0
0
VERTEX
8
0
10
10.99051297238
20
9.39131894871993
30
0
0
VERTEX
8
0
10
11.7755496132643
20
9.84499201928247
30
0
0
VERTEX
8
0
10
12.5605862541486
20
10.2814416859545
30
0
0
VERTEX
8
0
10
13.3456228950329
20
10.7014476913773
30
0
0
VERTEX
8
0
10
14.1306595359172
20
11.1057130600316
30
0
0
VERTEX
8
0
10
14.9156961768015
20
11.494875633369
30
0
0
VERTEX
8
0
10
15.7007328176858
20
11.8695175838775
30
0
0
VERTEX
8
0
10
16.4857694585701
20
12.2301732957944
30
0
0
VERTEX
8
0
10
17.2708060994543
20
12.5773359175415
30
0
0
VERTEX
8
0
10
18.0558427403386
20
12.9114628334925
30
0
0
VERTEX
8
0
10
18.8408793812229
20
13.2329802577906
30
0
0
VERTEX
8
0
10
19.6259160221072
20
13.5422871135663
30
0
0
VERTEX
8
0
10
20.4109526629915
20
13.8397583296526
30
0
0
VERTEX
8
0
10
21.1959893038758
20
14.1257476604455
30
0
0
VERTEX
8
0
10
21.9810259447601
20
14.4005901131538
30
0
0
VERTEX
8
0
10
22.7660625856444
20
14.6646040506773
30
0
0
VERTEX
8
0
10
23.5510992265286
20
14.918093024443
30
0
0
VERTEX
8
0
10
24.3361358674129
20
15.1613473817436
30
0
0
VERTEX
8
0
10
25.1211725082972
20
15.3946456832049
30
0
0
VERTEX
8
0
10
25.9062091491815
20
15.6182559601972
30
0
0
VERTEX
8
0
10
26.6912457900658
20
15.8324368363265
30
0
0
VERTEX
8
0
10
27.4762824309501
20
16.0374385331036
30
0
0
VERTEX
8
0
10
28.2613190718344
20
16.2335037768353
30
0
0
VERTEX
8
0
10
29.0463557127187
20
16.4208686205144
30
0
0
VERTEX
8
0
10
29.831392353603
20
16.599763193129
30
0
0
VERTEX
8
0
10
30.6164289944872
20
16.7704123859589
30
0
0
VERTEX
8
0
10
31.4014656353715
20
16.9330364850843
30
0
0
VERTEX
8
0
10
32.1865022762558
20
17.0878517572035
30
0
0
VERTEX
8
0
10
32.9715389171401
20
17.235070995426
30
0
0
VERTEX
8
0
10
33.7565755580244
20
17.374904030658
30
0
0
VERTEX
8
0
10
34.5416121989087
20
17.5075582135522
30
0
0
VERTEX
8
0
10
35.326648839793
20
17.6332388714006
30
0
0
VERTEX
8
0
10
36.1116854806772
20
17.7521497440428
30
0
0
VERTEX
8
0
10
36.8967221215615
20
17.8644934022049
30
0
0
VERTEX
8
0
10
37.6817587624458
20
17.9704716517531
30
0
0
VERTEX
8
0
10
38.4667954033301
20
18.070285926754
30
0
0
VERTEX
8
0
10
39.2518320442144
20
18.1641376743489
30
0
0
VERTEX
8
0
10
40.0368686850987
20
18.2522287341816
30
0
0
VERTEX
8
0
10
40.8219053259829
20
18.3347617152331
30
0
0
VERTEX
8
0
10
41.6069419668672
20
18.4119403726504
30
0
0
VERTEX
8
0
10
42.3919786077515
20
18.483969987668
30
0
0
VERTEX
8
0
10
43.1770152486358
20
18.5510577535376
30
0
0
VERTEX
8
0
10
43.9620518895201
20
18.6134131708082
30
0
0
VERTEX
8
0
10
44.7470885304044
20
18.6712484555621
30
0
0
VERTEX
8
0
10
45.5321251712887
20
18.7247789650411
30
0
0
VERTEX
8
0
10
46.3171618121729
20
18.774223645312
30
0
0
VERTEX
8
0
10
47.1021984530572
20
18.8198055069293
30
0
0
VERTEX
8
0
10
47.8872350939415
20
18.8617521356606
30
0
0
VERTEX
8
0
10
48.6722717348258
20
18.900296246991
30
0
0
VERTEX
8
0
10
49.4573083757101
20
18.9356762953042
30
0
0
VERTEX
8
0
10
50.2423450165944
20
18.9681371516244
30
0
0
VERTEX
8
0
10
51.0273816574786
20
18.9979308680216
30
0
0
VERTEX
8
0
10
51.8124182983629
20
19.0253175521118
30
0
0
VERTEX
8
0
10
52.5974549392472
20
19.0505663834151
30
0
0
VERTEX
8
0
10
53.3824915801315
20
19.0739568143449
30
0
0
VERTEX
8
0
10
54.1675282210158
20
19.0957800155031
30
0
0
VERTEX
8
0
10
54.9525648619001
20
19.1163406495423
30
0
0
VERTEX
8
0
10
55.7376015027844
20
19.135959096787
30
0
0
VERTEX
8
0
10
56.5226381436686
20
19.1549743163967
30
0
0
VERTEX
8
0
10
57.3076747845529
20
19.1737476288933
30
0
0
VERTEX
8
0
10
58.0927114254372
20
19.1926678821259
30
0
0
VERTEX
8
0
10
58.8777480663215
20
19.2121587882306
30
0
0
VERTEX
8
0
10
59.6627847072058
20
19.2326898638129
30
0
0
VERTEX
8
0
10
60.4478213480901
20
19.2547938107765
30
0
0
VERTEX
8
0
10
61.2328579889744
20
19.2790966583042
30
0
0
VERTEX
8
0
10
62.0178946298586
20
19.3063774023315
30
0
0
VERTEX
8
0
10
62.8029312707429
20
19.337714524297
30
0
0
VERTEX
8
0
10
63.5879679116272
20
19.3748479210776
30
0
0
VERTEX
8
0
10
64.3730045525115
20
19.418855782242
30
0
0
VERTEX
8
0
10
65.1580411933958
20
19.4681522031823
30
0
0
VERTEX
8
0
10
65.9430778342801
20
19.521452425817
30
0
0
VERTEX
8
0
10
66.7281144751644
20
19.5780023141939
30
0
0
VERTEX
8
0
10
67.5131511160486
20
19.6372802476289
30
0
0
VERTEX
8
0
10
68.2981877569329
20
19.6988914391215
30
0
0
VERTEX
8
0
10
69.0832243978172
20
19.7625210364026
30
0
0
VERTEX
8
0
10
69.8682610387015
20
19.8279091182308
30
0
0
VERTEX
8
0
10
70.6532976795858
20
19.8948357624579
30
0
0
VERTEX
8
0
10
71.4383343204701
20
19.9631114123038
30
0
0
VERTEX
8
0
10
72.2233709613543
20
20.0325702998792
30
0
0
VERTEX
8
0
10
73.0084076022386
20
20.1030657585555
30
0
0
VERTEX
8
0
10
73.7934442431229
20
20.1744667652315
30
0
0
VERTEX
8
0
10
74.5784808840072
20
20.2466553178271
30
0
0
VERTEX
8
0
10
75.3635175248915
20
20.3195243996745
30
0
0
VERTEX
8
0
10
76.1485541657758
20
20.3929763683587
30
0
0
VERTEX
8
0
10
76.9335908066601
20
20.466921658901
30
0
0
VERTEX
8
0
10
77.7186274475444
20
20.5412777248092
30
0
0
VERTEX
8
0
10
78.5036640884286
20
20.6159681622377
30
0
0
VERTEX
8
0
10
79.2887007293129
20
20.6909219773517
30
0
0
VERTEX
8
0
10
80.0737373701972
20
20.7660729675167
30
0
0
VERTEX
8
0
10
80.8587740110815
20
20.8413591936248
30
0
0
VERTEX
8
0
10
81.6438106519658
20
20.9167225267064
30
0
0
VERTEX
8
0
10
82.4288472928501
20
20.9921082552896
30
0
0
VERTEX
8
0
10
83.2138839337343
20
21.0674647431946
30
0
0
VERTEX
8
0
10
83.9989205746186
20
21.1427431293477
30
0
0
VERTEX
8
0
10
84.7839572155029
20
21.2178970628629
30
0
0
VERTEX
8
0
10
85.5689938563872
20
21.292882468142
30
0
0
VERTEX
8
0
10
86.3540304972715
20
21.36765733537
30
0
0
VERTEX
8
0
10
87.1390671381558
20
21.4421815328894
30
0
0
VERTEX
8
0
10
87.9241037790401
20
21.5164166382844
30
0
0
VERTEX
8
0
10
88.7091404199243
20
21.5903257857826
30
0
0
VERTEX
8
0
10
89.4941770608086
20
21.6638735277195
30
0
0
VERTEX
8
0
10
90.2792137016929
20
21.7370257082847
30
0
0
VERTEX
8
0
10
91.0642503425772
20
21.8097493480494
30
0
0
VERTEX
8
0
10
91.8492869834615
20
21.8820125378899
30
0
0
VERTEX
8
0
10
92.6343236243458
20
21.9537843412065
30
0
0
VERTEX
8
0
10
93.41936026523
20
22.025034703455
30
0
0
VERTEX
8
0
10
94.2043969061143
20
22.0957343680703
30
0
0
VERTEX
8
0
10
94.9894335469986
20
22.1658547981291
30
0
0
VERTEX
8
0
10
95.7744701878829
20
22.2353681029873
30
0
0
VERTEX
8
0
10
96.5595068287672
20
22.3042469693747
30
0
0
VERTEX
8
0
10
97.3445434696515
20
22.3724645963872
30
0
0
VERTEX
8
0
10
98.1295801105358
20
22.4399946339222
30
0
0
VERTEX
8
0
10
98.91461675142
20
22.5068111241516
30
0
0
VERTEX
8
0
10
99.6996533923043
20
22.5728884455908
30
0
0
VERTEX
8
0
10
100.484690033189
20
22.6382012595229
30
0
0
VERTEX
8
0
10
101.269726674073
20
22.7027244583336
30
0
0
VERTEX
8
0
10
102.054763314957
20
22.7664331155671
30
0
0
VERTEX
8
0
10
102.839799955841
20
22.8293024373626
30
0
0
VERTEX
8
0
10
103.624836596726
20
22.8913077150167
30
0
0
VERTEX
8
0
10
104.40987323761
20
22.9524242785127
30
0
0
VERTEX
8
0
10
105.194909878494
20
23.0126274506053
30
0
0
VERTEX
8
0
10
105.979946519379
20
23.0718925014458
30
0
0
VERTEX
8
0
10
106.764983160263
20
23.13019460335
30
0
0
VERTEX
8
0
10
107.550019801147
20
23.187508785597
30
0
0
VERTEX
8
0
10
108.335056442031
20
23.2438098889797
30
0
0
VERTEX
8
0
10
109.120093082916
20
23.2990725199737
30
0
0
VERTEX
8
0
10
109.9051297238
20
23.3532710041453
30
0
0
VERTEX
8
0
10
110.690166364684
20
23.4063793387781
30
0
0
VERTEX
8
0
10
111.475203005569
20
23.4583711442854
30
0
0
VERTEX
8
0
10
112.260239646453
20
23.5092196143145
30
0
0
VERTEX
8
0
10
113.045276287337
20
23.558897464175
30
0
0
VERTEX
8
0
10
113.830312928221
20
23.6073768773849
30
0
0
VERTEX
8
0
10
114.615349569106
20
23.6546294500086
30
0
0
VERTEX
8
0
10
115.40038620999
20
23.7006261324762
30
0
0
VERTEX
8
0
10
116.185422850874
20
23.7453371685297
30
0
0
VERTEX
8
0
10
116.970459491759
20
23.7887320309598
30
0
0
VERTEX
8
0
10
117.755496132643
20
23.8307793536592
30
0
0
VERTEX
8
0
10
118.540532773527
20
23.8714468596138
30
0
0
VERTEX
8
0
10
119.325569414411
20
23.9107012842585
30
0
0
VERTEX
8
0
10
120.110606055296
20
23.9485082937096
30
0
0
VERTEX
8
0
10
120.89564269618
20
23.9848323972101
30
0
0
VERTEX
8
0
10
121.680679337064
20
24.0196368531211
30
0
0
VERTEX
8
0
10
122.465715977949
20
24.0528835676291
30
0
0
VERTEX
8
0
10
123.250752618833
20
24.0845329853837
30
0
0
VERTEX
8
0
10
124.035789259717
20
24.1145439709625
30
0
0
VERTEX
8
0
10
124.820825900601
20
24.1428736801017
30
0
0
VERTEX
8
0
10
125.605862541486
20
24.1694774193657
30
0
0
VERTEX
8
0
10
126.39089918237
20
24.1943084927855
30
0
0
VERTEX
8
0
10
127.175935823254
20
24.2173180337522
30
0
0
VERTEX
8
0
10
127.960972464139
20
24.2384548202091
30
0
0
VERTEX
8
0
10
128.746009105023
20
24.2576650708563
30
0
0
VERTEX
8
0
10
129.531045745907
20
24.2748922197193
30
0
0
VERTEX
8
0
10
130.316082386792
20
24.2900766659774
30
0
0
VERTEX
8
0
10
131.101119027676
20
24.3031554954156
30
0
0
VERTEX
8
0
10
131.88615566856
20
24.3140621692281
30
0
0
VERTEX
8
0
10
132.671192309444
20
24.3227261750688
30
0
0
VERTEX
8
0
10
133.456228950329
20
24.3290726343059
30
0
0
VERTEX
8
0
10
134.241265591213
20
24.3330218582457
30
0
0
VERTEX
8
0
10
135.026302232097
20
24.3344888445828
30
0
0
VERTEX
8
0
10
135.811338872982
20
24.3333827035095
30
0
0
VERTEX
8
0
10
136.596375513866
20
24.3296060005863
30
0
0
VERTEX
8
0
10
137.38141215475
20
24.3230540005322
30
0
0
VERTEX
8
0
10
138.166448795634
20
24.313613792328
30
0
0
VERTEX
8
0
10
138.951485436519
20
24.301163271179
30
0
0
VERTEX
8
0
10
139.736522077403
20
24.2855699465945
30
0
0
VERTEX
8
0
10
140.521558718287
20
24.2666895374737
30
0
0
VERTEX
8
0
10
141.306595359172
20
24.2443643041064
30
0
0
VERTEX
8
0
10
142.091632000056
20
24.2184210520368
30
0
0
VERTEX
8
0
10
142.87666864094
20
24.1886687224284
30
0
0
VERTEX
8
0
10
143.661705281825
20
24.1548954553183
30
0
0
VERTEX
8
0
10
144.446741922709
20
24.1168649723963
30
0
0
VERTEX
8
0
10
145.231778563593
20
24.0743120688411
30
0
0
VERTEX
8
0
10
146.016815204477
20
24.0269369201331
30
0
0
VERTEX
8
0
10
146.801851845362
20
23.9743977844729
30
0
0
VERTEX
8
0
10
147.586888486246
20
23.9163014888484
30
0
0
VERTEX
8
0
10
148.37192512713
20
23.8521907820012
30
0
0
VERTEX
8
0
10
149.156961768015
20
23.7815271387988
30
0
0
VERTEX
8
0
10
149.941998408899
20
23.7036667521607
30
0
0
VERTEX
8
0
10
150.727035049783
20
23.6178259394649
30
0
0
VERTEX
8
0
10
151.512071690668
20
23.5230293632305
30
0
0
VERTEX
8
0
10
152.297108331552
20
23.4180288637213
30
0
0
VERTEX
8
0
10
153.082144972436
20
23.3011690239551
30
0
0
VERTEX
8
0
10
153.86718161332
20
23.1701510261943
30
0
0
VERTEX
8
0
10
154.652218254205
20
23.0216034821744
30
0
0
VERTEX
8
0
10
155.437254895089
20
22.850395372555
30
0
0
SEQEND
8
0
0
POLYLINE
8
0
62
3
70
0
10
0
20
0
30
0
0
VERTEX
8
0
10
6.2802931270743
20
10.8028303359926
30
0
0
VERTEX
8
0
10
7.06532976795859
20
11.9792230884439
30
0
0
VERTEX
8
0
10
7.85036640884288
20
13.1299784487804
30
0
0
VERTEX
8
0
10
8.63540304972716
20
14.2562701117051
30
0
0
VERTEX
8
0
10
9.42043969061145
20
15.3590734576542
30
0
0
VERTEX
8
0
10
10.2054763314957
20
16.4392329402143
30
0
0
VERTEX
8
0
10
10.99051297238
20
17.4974963968751
30
0
0
VERTEX
8
0
10
11.7755496132643
20
18.5345355202095
30
0
0
VERTEX
8
0
10
12.5605862541486
20
19.5509600058524
30
0
0
VERTEX
8
0
10
13.3456228950329
20
20.5473283038913
30
0
0
VERTEX
8
0
10
14.1306595359172
20
21.5241561797425
30
0
0
VERTEX
8
0
10
14.9156961768015
20
22.481923663952
30
0
0
VERTEX
8
0
10
15.7007328176858
20
23.4210807379276
30
0
0
VERTEX
8
0
10
16.4857694585701
20
24.3420520049616
30
0
0
VERTEX
8
0
10
17.2708060994543
20
25.245240542705
30
0
0
VERTEX
8
0
10
18.0558427403386
20
26.1310310949518
30
0
0
VERTEX
8
0
10
18.8408793812229
20
26.9997927304329
30
0
0
VERTEX
8
0
10
19.6259160221072
20
27.8518810704895
30
0
0
VERTEX
8
0
10
20.4109526629915
20
28.6876401671253
30
0
0
VERTEX
8
0
10
21.1959893038758
20
29.5074040960669
30
0
0
VERTEX
8
0
10
21.9810259447601
20
30.3114983160131
30
0
0
VERTEX
8
0
10
22.7660625856444
20
31.100240835159
30
0
0
VERTEX
8
0
10
23.5510992265286
20
31.8739432175517
30
0
0
VERTEX
8
0
10
24.3361358674129
20
32.6329114557316
30
0
0
VERTEX
8
0
10
25.1211725082972
20
33.3774467307464
30
0
0
VERTEX
8
0
10
25.9062091491815
20
34.107846076991
30
0
0
VERTEX
8
0
10
26.6912457900658
20
34.8244029659502
30
0
0
VERTEX
8
0
10
27.4762824309501
20
35.5274078204631
30
0
0
VERTEX
8
0
10
28.2613190718344
20
36.2171484692578
30
0
0
VERTEX
8
0
10
29.0463557127187
20
36.8939105496109
30
0
0
VERTEX
8
0
10
29.831392353603
20
37.5579778650688
30
0
0
VERTEX
8
0
10
30.6164289944872
20
38.2096327036027
30
0
0
VERTEX
8
0
10
31.4014656353715
20
38.8491561212092
30
0
0
VERTEX
8
0
10
32.1865022762558
20
39.4768281948331
30
0
0
VERTEX
8
0
10
32.9715389171401
20
40.0929282481454
30
0
0
VERTEX
8
0
10
33.7565755580244
20
40.6977350531183
30
0
0
VERTEX
8
0
10
34.5416121989087
20
41.2915270099479
30
0
0
VERTEX
8
0
10
35.326648839793
20
41.8745823075277
30
0
0
VERTEX
8
0
10
36.1116854806772
20
42.4471790664513
30
0
0
VERTEX
8
0
10
36.8967221215615
20
43.009595466191
30
0
0
VERTEX
8
0
10
37.6817587624458
20
43.5621098580471
30
0
0
VERTEX
8
0
10
38.4667954033301
20
44.1050008651792
30
0
0
VERTEX
8
0
10
39.2518320442144
20
44.6385474710159
30
0
0
VERTEX
8
0
10
40.0368686850987
20
45.1630290972018
30
0
0
VERTEX
8
0
10
40.8219053259829
20
45.678725672241
30
0
0
VERTEX
8
0
10
41.6069419668672
20
46.1859176918532
30
0
0
VERTEX
8
0
10
42.3919786077515
20
46.6848862722428
30
0
0
VERTEX
8
0
10
43.1770152486358
20
47.1759131973651
30
0
0
VERTEX
8
0
10
43.9620518895201
20
47.6592809614227
30
0
0
VERTEX
8
0
10
44.7470885304044
20
48.1352728078859
30
0
0
VERTEX
8
0
10
45.5321251712887
20
48.6041727666363
30
0
0
VERTEX
8
0
10
46.3171618121729
20
49.0662656908558
30
0
0
VERTEX
8
0
10
47.1021984530572
20
49.5218372957521
30
0
0
VERTEX
8
0
10
47.8872350939415
20
49.971174201576
30
0
0
VERTEX
8
0
10
48.6722717348258
20
50.4145639839311
30
0
0
VERTEX
8
0
10
49.4573083757101
20
50.8522952351071
30
0
0
VERTEX
8
0
10
50.2423450165944
20
51.2846576411543
30
0
0
VERTEX
8
0
10
51.0273816574786
20
51.7119420808288
30
0
0
VERTEX
8
0
10
51.8124182983629
20
52.13444075426
30
0
0
VERTEX
8
0
10
52.5974549392472
20
52.5524473519663
30
0
0
VERTEX
8
0
10
53.3824915801315
20
52.9662572784128
30
0
0
VERTEX
8
0
10
54.1675282210158
20
53.376167949857
30
0
0
VERTEX
8
0
10
54.9525648619001
20
53.782479194225
30
0
0
VERTEX
8
0
10
55.7376015027844
20
54.1854937934922
30
0
0
VERTEX
8
0
10
56.5226381436686
20
54.5855182287806
30
0
0
VERTEX
8
0
10
57.3076747845529
20
54.9828637217144
30
0
0
VERTEX
8
0
10
58.0927114254372
20
55.3778477231666
30
0
0
VERTEX
8
0
10
58.8777480663215
20
55.7707961070401
30
0
0
VERTEX
8
0
10
59.6627847072058
20
56.1620465380203
30
0
0
VERTEX
8
0
10
60.4478213480901
20
56.5519539436647
30
0
0
VERTEX
8
0
10
61.2328579889744
20
56.9409001672516
30
0
0
VERTEX
8
0
10
62.0178946298586
20
57.3293133120291
30
0
0
VERTEX
8
0
10
62.8029312707429
20
57.7177156578237
30
0
0
VERTEX
8
0
10
63.5879679116272
20
58.1068379893336
30
0
0
VERTEX
8
0
10
64.3730045525115
20
58.4971148383103
30
0
0
VERTEX
8
0
10
65.1580411933958
20
58.8879710152262
30
0
0
VERTEX
8
0
10
65.9430778342801
20
59.2789097244276
30
0
0
VERTEX
8
0
10
66.7281144751644
20
59.6696166306575
30
0
0
VERTEX
8
0
10
67.5131511160486
20
60.0598593641556
30
0
0
VERTEX
8
0
10
68.2981877569329
20
60.4494512539369
30
0
0
VERTEX
8
0
10
69.0832243978172
20
60.8382350609262
30
0
0
VERTEX
8
0
10
69.8682610387015
20
61.2260742140549
30
0
0
VERTEX
8
0
10
70.6532976795858
20
61.6128475202632
30
0
0
VERTEX
8
0
10
71.4383343204701
20
61.9984457137472
30
0
0
VERTEX
8
0
10
72.2233709613543
20
62.3827690733862
30
0
0
VERTEX
8
0
10
73.0084076022386
20
62.7657257044135
30
0
0
VERTEX
8
0
10
73.7934442431229
20
63.1472302554549
30
0
0
VERTEX
8
0
10
74.5784808840072
20
63.5272029332059
30
0
0
VERTEX
8
0
10
75.3635175248915
20
63.9055687276765
30
0
0
VERTEX
8
0
10
76.1485541657758
20
64.2822567907819
30
0
0
VERTEX
8
0
10
76.9335908066601
20
64.6571999293058
30
0
0
VERTEX
8
0
10
77.7186274475444
20
65.0303341850418
30
0
0
VERTEX
8
0
10
78.5036640884286
20
65.4015984825454
30
0
0
VERTEX
8
0
10
79.2887007293129
20
65.7709343301708
30
0
0
VERTEX
8
0
10
80.0737373701972
20
66.1382855637831
30
0
0
VERTEX
8
0
10
80.8587740110815
20
66.5035981249319
30
0
0
VERTEX
8
0
10
81.6438106519658
20
66.8668198673301
30
0
0
VERTEX
8
0
10
82.4288472928501
20
67.2279003866892
30
0
0
VERTEX
8
0
10
83.2138839337343
20
67.5867908701038
30
0
0
VERTEX
8
0
10
83.9989205746186
20
67.943443961877
30
0
0
VERTEX
8
0
10
84.7839572155029
20
68.2978136432696
30
0
0
VERTEX
8
0
10
85.5689938563872
20
68.6498551242041
30
0
0
VERTEX
8
0
10
86.3540304972715
20
68.9995247451908
30
0
0
VERTEX
8
0
10
87.1390671381558
20
69.3467798881344
30
0
0
VERTEX
8
0
10
87.9241037790401
20
69.691578894825
30
0
0
VERTEX
8
0
10
88.7091404199243
20
70.0338809921835
30
0
0
VERTEX
8
0
10
89.4941770608086
20
70.3736462234034
30
0
0
VERTEX
8
0
10
90.2792137016929
20
70.7108353842914
30
0
0
VERTEX
8
0
10
91.0642503425772
20
71.0454099642226
30
0
0
VERTEX
8
0
10
91.8492869834615
20
71.3773320911656
30
0
0
VERTEX
8
0
10
92.6343236243458
20
71.7065644803451
30
0
0
VERTEX
8
0
10
93.41936026523
20
72.033070386144
30
0
0
VERTEX
8
0
10
94.2043969061143
20
72.3568135568881
30
0
0
VERTEX
8
0
10
94.9894335469986
20
72.6777581922388
30
0
0
VERTEX
8
0
10
95.7744701878829
20
72.9958689028916
30
0
0
VERTEX
8
0
10
96.5595068287672
20
73.3111106723695
30
0
0
VERTEX
8
0
10
97.3445434696515
20
73.623448820679
30
0
0
VERTEX
8
0
10
98.1295801105358
20
73.932848969648
30
0
0
VERTEX
8
0
10
98.91461675142
20
74.2392770097722
30
0
0
VERTEX
8
0
10
99.6996533923043
20
74.5426990683965
30
0
0
VERTEX
8
0
10
100.484690033189
20
74.843081479122
30
0
0
VERTEX
8
0
10
101.269726674073
20
75.140390752266
30
0
0
VERTEX
8
0
10
102.054763314957
20
75.4345935462877
30
0
0
VERTEX
8
0
10
102.839799955841
20
75.7256566400484
30
0
0
VERTEX
8
0
10
103.624836596726
20
76.0135469057977
30
0
0
VERTEX
8
0
10
104.40987323761
20
76.2982312828203
30
0
0
VERTEX
8
0
10
105.194909878494
20
76.5796767515858
30
0
0
VERTEX
8
0
10
105.979946519379
20
76.8578503083882
30
0
0
VERTEX
8
0
10
106.764983160263
20
77.1327189403255
30
0
0
VERTEX
8
0
10
107.550019801147
20
77.4042496005731
30
0
0
VERTEX
8
0
10
108.335056442031
20
77.6724091838523
30
0
0
VERTEX
8
0
10
109.120093082916
20
77.9371645020343
30
0
0
VERTEX
8
0
10
109.9051297238
20
78.1984822597564
30
0
0
VERTEX
8
0
10
110.690166364684
20
78.4563290300333
30
0
0
VERTEX
8
0
10
111.475203005569
20
78.7106712297178
30
0
0
VERTEX
8
0
10
112.260239646453
20
78.9614750947817
30
0
0
VERTEX
8
0
10
113.045276287337
20
79.2087066552935
30
0
0
VERTEX
8
0
10
113.830312928221
20
79.4523317100283
30
0
0
VERTEX
8
0
10
114.615349569106
20
79.6923158006055
30
0
0
VERTEX
8
0
10
115.40038620999
20
79.9286241850628
30
0
0
VERTEX
8
0
10
116.185422850874
20
80.1612218107562
30
0
0
VERTEX
8
0
10
116.970459491759
20
80.3900732864895
30
0
0
VERTEX
8
0
10
117.755496132643
20
80.6151428537317
30
0
0
VERTEX
8
0
10
118.540532773527
20
80.8363943568205
30
0
0
VERTEX
8
0
10
119.325569414411
20
81.0537912119824
30
0
0
VERTEX
8
0
10
120.110606055296
20
81.2672963750418
30
0
0
VERTEX
8
0
10
120.89564269618
20
81.4768723076312
30
0
0
VERTEX
8
0
10
121.680679337064
20
81.6824809417255
30
0
0
VERTEX
8
0
10
122.465715977949
20
81.8840836422723
30
0
0
VERTEX
8
0
10
123.250752618833
20
82.0816411677175
30
0
0
VERTEX
8
0
10
124.035789259717
20
82.2751136281268
30
0
0
VERTEX
8
0
10
124.820825900601
20
82.4644604406275
30
0
0
VERTEX
8
0
10
125.605862541486
20
82.6496402818315
30
0
0
VERTEX
8
0
10
126.39089918237
20
82.8306110368479
30
0
0
VERTEX
8
0
10
127.175935823254
20
83.0073297444552
30
0
0
VERTEX
8
0
10
127.960972464139
20
83.1797525379261
30
0
0
VERTEX
8
0
10
128.746009105023
20
83.3478345809261
30
0
0
VERTEX
8
0
10
129.531045745907
20
83.5115299978102
30
0
0
VERTEX
8
0
10
130.316082386792
20
83.6707917975362
30
0
0
VERTEX
8
0
10
131.101119027676
20
83.8255717902763
30
0
0
VERTEX
8
0
10
131.88615566856
20
83.9758204956538
30
0
0
VERTEX
8
0
10
132.671192309444
20
84.1214870413244
30
0
0
VERTEX
8
0
10
133.456228950329
20
84.2625190503931
30
0
0
VERTEX
8
0
10
134.241265591213
20
84.3988625158545
30
0
0
VERTEX
8
0
10
135.026302232097
20
84.5304616598843
30
0
0
VERTEX
8
0
10
135.811338872982
20
84.6572587753458
30
0
0
VERTEX
8
0
10
136.596375513866
20
84.7791940463089
30
0
0
VERTEX
8
0
10
137.38141215475
20
84.8962053436428
30
0
0
VERTEX
8
0
10
138.166448795634
20
85.0082279908193
30
0
0
VERTEX
8
0
10
138.951485436519
20
85.1151944938584
30
0
0
VERTEX
8
0
10
139.736522077403
20
85.2170342277954
30
0
0
VERTEX
8
0
10
140.521558718287
20
85.3136730699703
30
0
0
VERTEX
8
0
10
141.306595359172
20
85.4050329677214
30
0
0
VERTEX
8
0
10
142.091632000056
20
85.491031424353
30
0
0
VERTEX
8
0
10
142.87666864094
20
85.5715808822031
30
0
0
VERTEX
8
0
10
143.661705281825
20
85.6465879746147
30
0
0
VERTEX
8
0
10
144.446741922709
20
85.7159526087265
30
0
0
VERTEX
8
0
10
145.231778563593
20
85.7795668267696
30
0
0
VERTEX
8
0
10
146.016815204477
20
85.8373133727143
30
0
0
VERTEX
8
0
10
146.801851845362
20
85.8890638598129
30
0
0
VERTEX
8
0
10
147.586888486246
20
85.9346763864299
30
0
0
VERTEX
8
0
10
148.37192512713
20
85.9739923712138
30
0
0
VERTEX
8
0
10
149.156961768015
20
86.0068322535441
30
0
0
VERTEX
8
0
10
149.941998408899
20
86.0329894920309
30
0
0
VERTEX
8
0
10
150.727035049783
20
86.0522219140748
30
0
0
VERTEX
8
0
10
151.512071690668
20
86.0642387577537
30
0
0
VERTEX
8
0
10
152.297108331552
20
86.0686803403597
30
0
0
VERTEX
8
0
10
153.082144972436
20
86.0650843877492
30
0
0
VERTEX
8
0
10
153.86718161332
20
86.0528271828862
30
0
0
VERTEX
8
0
10
154.652218254205
20
86.031018982295
30
0
0
VERTEX
8
0
10
155.437254895089
20
85.9983529438362
30
0
0
SEQEND
8
0
0
POLYLINE
8
0
62
4
70
0
10
0
20
0
30
0
0
VERTEX
8
0
10
6.2802931270743
20
10.5597620141716
30
0
0
VERTEX
8
0
10
7.06532976795859
20
11.7678789339792
30
0
0
VERTEX
8
0
10
7.85036640884288
20
12.9632207661861
30
0
0
VERTEX
8
0
10
8.63540304972716
20
14.1458468568873
30
0
0
VERTEX
8
0
10
9.42043969061145
20
15.2996944373038
30
0
0
VERTEX
8
0
10
10.2054763314957
20
16.4342946287127
30
0
0
VERTEX
8
0
10
10.99051297238
20
17.5565417619193
30
0
0
VERTEX
8
0
10
11.7755496132643
20
18.6665365318089
30
0
0
VERTEX
8
0
10
12.5605862541486
20
19.6965981784109
30
0
0
VERTEX
8
0
10
13.3456228950329
20
20.7321191057708
30
0
0
VERTEX
8
0
10
14.1306595359172
20
21.7559018888027
30
0
0
VERTEX
8
0
10
14.9156961768015
20
22.7163162183016
30
0
0
VERTEX
8
0
10
15.7007328176858
20
23.6643442081359
30
0
0
VERTEX
8
0
10
16.4857694585701
20
24.6013123731793
30
0
0
VERTEX
8
0
10
17.2708060994543
20
25.490651782433
30
0
0
VERTEX
8
0
10
18.0558427403386
20
26.3463898065004
30
0
0
VERTEX
8
0
10
18.8408793812229
20
27.1920367720365
30
0
0
VERTEX
8
0
10
19.6259160221072
20
28.0275171509488
30
0
0
VERTEX
8
0
10
20.4109526629915
20
28.791463792569
30
0
0
VERTEX
8
0
10
21.1959893038758
20
29.5584791430354
30
0
0
VERTEX
8
0
10
21.9810259447601
20
30.3162347002139
30
0
0
VERTEX
8
0
10
22.7660625856444
20
31.0205004953726
30
0
0
VERTEX
8
0
10
23.5510992265286
20
31.7107225884322
30
0
0
VERTEX
8
0
10
24.3361358674129
20
32.3928371848343
30
0
0
VERTEX
8
0
10
25.1211725082972
20
33.0555744574882
30
0
0
VERTEX
8
0
10
25.9062091491815
20
33.700071650776
30
0
0
VERTEX
8
0
10
26.6912457900658
20
34.3368754834376
30
0
0
VERTEX
8
0
10
27.4762824309501
20
34.965908869042
30
0
0
VERTEX
8
0
10
28.2613190718344
20
35.6088590832316
30
0
0
VERTEX
8
0
10
29.0463557127187
20
36.2405325502128
30
0
0
VERTEX
8
0
10
29.831392353603
20
36.8638600678072
30
0
0
VERTEX
8
0
10
30.6164289944872
20
37.4584552173245
30
0
0
VERTEX
8
0
10
31.4014656353715
20
38.039886695938
30
0
0
VERTEX
8
0
10
32.1865022762558
20
38.6138095298483
30
0
0
VERTEX
8
0
10
32.9715389171401
20
39.1802688957801
30
0
0
VERTEX
8
0
10
33.7565755580244
20
39.737583860381
30
0
0
VERTEX
8
0
10
34.5416121989087
20
40.2881227025276
30
0
0
VERTEX
8
0
10
35.326648839793
20
40.8314431904582
30
0
0
VERTEX
8
0
10
36.1116854806772
20
41.3676372644854
30
0
0
VERTEX
8
0
10
36.8967221215615
20
41.8968065648153
30
0
0
VERTEX
8
0
10
37.6817587624458
20
42.4190615947558
30
0
0
VERTEX
8
0
10
38.4667954033301
20
42.9345209653537
30
0
0
VERTEX
8
0
10
39.2518320442144
20
43.4433107112133
30
0
0
VERTEX
8
0
10
40.0368686850987
20
43.9455636686047
30
0
0
VERTEX
8
0
10
40.8219053259829
20
44.4414189081205
30
0
0
VERTEX
8
0
10
41.6069419668672
20
44.9037839584864
30
0
0
VERTEX
8
0
10
42.3919786077515
20
45.3673669116004
30
0
0
VERTEX
8
0
10
43.1770152486358
20
45.8254875939263
30
0
0
VERTEX
8
0
10
43.9620518895201
20
46.2812665550249
30
0
0
VERTEX
8
0
10
44.7470885304044
20
46.7318961323368
30
0
0
VERTEX
8
0
10
45.5321251712887
20
47.1774122104983
30
0
0
VERTEX
8
0
10
46.3171618121729
20
47.6221328576747
30
0
0
VERTEX
8
0
10
47.1021984530572
20
48.0647148123722
30
0
0
VERTEX
8
0
10
47.8872350939415
20
48.5025022052763
30
0
0
VERTEX
8
0
10
48.6722717348258
20
48.9356677043064
30
0
0
VERTEX
8
0
10
49.4573083757101
20
49.3749604728171
30
0
0
VERTEX
8
0
10
50.2423450165944
20
49.8077956763986
30
0
0
VERTEX
8
0
10
51.0273816574786
20
50.2363832722774
30
0
0
VERTEX
8
0
10
51.8124182983629
20
50.6706116199095
30
0
0
VERTEX
8
0
10
52.5974549392472
20
51.1022804670746
30
0
0
VERTEX
8
0
10
53.3824915801315
20
51.5301153400175
30
0
0
VERTEX
8
0
10
54.1675282210158
20
51.9626330950092
30
0
0
VERTEX
8
0
10
54.9525648619001
20
52.3997887264394
30
0
0
VERTEX
8
0
10
55.7376015027844
20
52.8335834816989
30
0
0
VERTEX
8
0
10
56.5226381436686
20
53.2642178736958
30
0
0
VERTEX
8
0
10
57.3076747845529
20
53.7074952617503
30
0
0
VERTEX
8
0
10
58.0927114254372
20
54.1460950261689
30
0
0
VERTEX
8
0
10
58.8777480663215
20
54.5821317945846
30
0
0
VERTEX
8
0
10
59.6627847072058
20
55.0207884204247
30
0
0
VERTEX
8
0
10
60.4478213480901
20
55.4587446837877
30
0
0
VERTEX
8
0
10
61.2328579889744
20
55.8947521356952
30
0
0
VERTEX
8
0
10
62.0178946298586
20
56.32900198727
30
0
0
VERTEX
8
0
10
62.8029312707429
20
56.7734975185434
30
0
0
VERTEX
8
0
10
63.5879679116272
20
57.2132386312786
30
0
0
VERTEX
8
0
10
64.3730045525115
20
57.6517636729492
30
0
0
VERTEX
8
0
10
65.1580411933958
20
58.0920184252089
30
0
0
VERTEX
8
0
10
65.9430778342801
20
58.5308874113849
30
0
0
VERTEX
8
0
10
66.7281144751644
20
58.968451398475
30
0
0
VERTEX
8
0
10
67.5131511160486
20
59.3955380553113
30
0
0
VERTEX
8
0
10
68.2981877569329
20
59.8168831171175
30
0
0
VERTEX
8
0
10
69.0832243978172
20
60.2366961682657
30
0
0
VERTEX
8
0
10
69.8682610387015
20
60.6549342391996
30
0
0
VERTEX
8
0
10
70.6532976795858
20
61.0677484864088
30
0
0
VERTEX
8
0
10
71.4383343204701
20
61.4798078879592
30
0
0
VERTEX
8
0
10
72.2233709613543
20
61.8901586172726
30
0
0
VERTEX
8
0
10
73.0084076022386
20
62.2601696357485
30
0
0
VERTEX
8
0
10
73.7934442431229
20
62.62657977914
30
0
0
VERTEX
8
0
10
74.5784808840072
20
62.991294356658
30
0
0
VERTEX
8
0
10
75.3635175248915
20
63.3871986162355
30
0
0
VERTEX
8
0
10
76.1485541657758
20
63.804445852295
30
0
0
VERTEX
8
0
10
76.9335908066601
20
64.2198643249868
30
0
0
VERTEX
8
0
10
77.7186274475444
20
64.6334191191866
30
0
0
VERTEX
8
0
10
78.5036640884286
20
64.9702341310875
30
0
0
VERTEX
8
0
10
79.2887007293129
20
65.3120800080097
30
0
0
VERTEX
8
0
10
80.0737373701972
20
65.652083267813
30
0
0
VERTEX
8
0
10
80.8587740110815
20
65.9890231837269
30
0
0
VERTEX
8
0
10
81.6438106519658
20
66.3238614166819
30
0
0
VERTEX
8
0
10
82.4288472928501
20
66.656755163371
30
0
0
VERTEX
8
0
10
83.2138839337343
20
66.9876657022172
30
0
0
VERTEX
8
0
10
83.9989205746186
20
67.3069745936909
30
0
0
VERTEX
8
0
10
84.7839572155029
20
67.6274975490373
30
0
0
VERTEX
8
0
10
85.5689938563872
20
67.9460089059275
30
0
0
VERTEX
8
0
10
86.3540304972715
20
68.2705664400273
30
0
0
VERTEX
8
0
10
87.1390671381558
20
68.5920133813454
30
0
0
VERTEX
8
0
10
87.9241037790401
20
68.9112439576131
30
0
0
VERTEX
8
0
10
88.7091404199243
20
69.2214910777768
30
0
0
VERTEX
8
0
10
89.4941770608086
20
69.5274753666616
30
0
0
VERTEX
8
0
10
90.2792137016929
20
69.8312527313059
30
0
0
VERTEX
8
0
10
91.0642503425772
20
70.1327871750057
30
0
0
VERTEX
8
0
10
91.8492869834615
20
70.4464250533243
30
0
0
VERTEX
8
0
10
92.6343236243458
20
70.7534918502176
30
0
0
VERTEX
8
0
10
93.41936026523
20
71.0580860661346
30
0
0
VERTEX
8
0
10
94.2043969061143
20
71.36717055521
30
0
0
VERTEX
8
0
10
94.9894335469986
20
71.6734233234237
30
0
0
VERTEX
8
0
10
95.7744701878829
20
71.9770506300265
30
0
0
VERTEX
8
0
10
96.5595068287672
20
72.2869961515014
30
0
0
VERTEX
8
0
10
97.3445434696515
20
72.5986229629398
30
0
0
VERTEX
8
0
10
98.1295801105358
20
72.9074764522637
30
0
0
VERTEX
8
0
10
98.91461675142
20
73.2135297646042
30
0
0
VERTEX
8
0
10
99.6996533923043
20
73.5298456597349
30
0
0
VERTEX
8
0
10
100.484690033189
20
73.8402481798641
30
0
0
VERTEX
8
0
10
101.269726674073
20
74.1477745156496
30
0
0
VERTEX
8
0
10
102.054763314957
20
74.4571396978046
30
0
0
VERTEX
8
0
10
102.839799955841
20
74.763892354087
30
0
0
VERTEX
8
0
10
103.624836596726
20
75.0677100144094
30
0
0
VERTEX
8
0
10
104.40987323761
20
75.3724663639901
30
0
0
VERTEX
8
0
10
105.194909878494
20
75.6771355777551
30
0
0
VERTEX
8
0
10
105.979946519379
20
75.9788335312145
30
0
0
VERTEX
8
0
10
106.764983160263
20
76.2775360164423
30
0
0
VERTEX
8
0
10
107.550019801147
20
76.5752970517705
30
0
0
VERTEX
8
0
10
108.335056442031
20
76.8696648340623
30
0
0
VERTEX
8
0
10
109.120093082916
20
77.1609768179243
30
0
0
VERTEX
8
0
10
109.9051297238
20
77.4455375639127
30
0
0
VERTEX
8
0
10
110.690166364684
20
77.7263039033243
30
0
0
VERTEX
8
0
10
111.475203005569
20
78.0039132715545
30
0
0
VERTEX
8
0
10
112.260239646453
20
78.2783413122352
30
0
0
VERTEX
8
0
10
113.045276287337
20
78.5404698663744
30
0
0
VERTEX
8
0
10
113.830312928221
20
78.8022885325964
30
0
0
VERTEX
8
0
10
114.615349569106
20
79.0608212384635
30
0
0
VERTEX
8
0
10
115.40038620999
20
79.2868954483504
30
0
0
VERTEX
8
0
10
116.185422850874
20
79.5126974412334
30
0
0
VERTEX
8
0
10
116.970459491759
20
79.7351329349846
30
0
0
VERTEX
8
0
10
117.755496132643
20
79.9550486237097
30
0
0
VERTEX
8
0
10
118.540532773527
20
80.1718240751379
30
0
0
VERTEX
8
0
10
119.325569414411
20
80.3851427685363
30
0
0
VERTEX
8
0
10
120.110606055296
20
80.5949758731126
30
0
0
VERTEX
8
0
10
120.89564269618
20
80.8125299915496
30
0
0
VERTEX
8
0
10
121.680679337064
20
81.023381729314
30
0
0
VERTEX
8
0
10
122.465715977949
20
81.2306479351275
30
0
0
VERTEX
8
0
10
123.250752618833
20
81.438741705314
30
0
0
VERTEX
8
0
10
124.035789259717
20
81.6430931777845
30
0
0
VERTEX
8
0
10
124.820825900601
20
81.8437764882548
30
0
0
VERTEX
8
0
10
125.605862541486
20
82.0413364527577
30
0
0
VERTEX
8
0
10
126.39089918237
20
82.235469153542
30
0
0
VERTEX
8
0
10
127.175935823254
20
82.4258494061666
30
0
0
VERTEX
8
0
10
127.960972464139
20
82.6124482487224
30
0
0
VERTEX
8
0
10
128.746009105023
20
82.7952364649141
30
0
0
VERTEX
8
0
10
129.531045745907
20
82.9741845735542
30
0
0
VERTEX
8
0
10
130.316082386792
20
83.1492628179102
30
0
0
VERTEX
8
0
10
131.101119027676
20
83.317998538224
30
0
0
VERTEX
8
0
10
131.88615566856
20
83.482614190119
30
0
0
VERTEX
8
0
10
132.671192309444
20
83.6432635485188
30
0
0
VERTEX
8
0
10
133.456228950329
20
83.7994193871221
30
0
0
VERTEX
8
0
10
134.241265591213
20
83.951162960155
30
0
0
VERTEX
8
0
10
135.026302232097
20
84.0988437197217
30
0
0
VERTEX
8
0
10
135.811338872982
20
84.2424291905945
30
0
0
VERTEX
8
0
10
136.596375513866
20
84.3882319403325
30
0
0
VERTEX
8
0
10
137.38141215475
20
84.5288299365108
30
0
0
VERTEX
8
0
10
138.166448795634
20
84.665247821415
30
0
0
VERTEX
8
0
10
138.951485436519
20
84.795971362673
30
0
0
VERTEX
8
0
10
139.736522077403
20
84.9221508969996
30
0
0
VERTEX
8
0
10
140.521558718287
20
85.0440427848876
30
0
0
VERTEX
8
0
10
141.306595359172
20
85.1616121761025
30
0
0
VERTEX
8
0
10
142.091632000056
20
85.2525563858736
30
0
0
VERTEX
8
0
10
142.87666864094
20
85.346211220657
30
0
0
VERTEX
8
0
10
143.661705281825
20
85.4354128454943
30
0
0
VERTEX
8
0
10
144.446741922709
20
85.53586040543
30
0
0
VERTEX
8
0
10
145.231778563593
20
85.6302865180471
30
0
0
VERTEX
8
0
10
146.016815204477
20
85.7201648590372
30
0
0
VERTEX
8
0
10
146.801851845362
20
85.801474980687
30
0
0
VERTEX
8
0
10
147.586888486246
20
85.876758266767
30
0
0
VERTEX
8
0
10
148.37192512713
20
85.9473588375433
30
0
0
VERTEX
8
0
10
149.156961768015
20
86.0132354902644
30
0
0
VERTEX
8
0
10
149.941998408899
20
86.0656856989129
30
0
0
VERTEX
8
0
10
150.727035049783
20
86.1156847741992
30
0
0
VERTEX
8
0
10
151.512071690668
20
86.1608192743427
30
0
0
VERTEX
8
0
10
152.297108331552
20
86.1937631965813
30
0
0
VERTEX
8
0
10
153.082144972436
20
86.2218384581706
30
0
0
VERTEX
8
0
10
153.86718161332
20
86.2449089622711
30
0
0
VERTEX
8
0
10
154.652218254205
20
86.2629303615461
30
0
0
VERTEX
8
0
10
155.437254895089
20
86.275878985322
30
0
0
SEQEND
8
0
0
ENDSEC
0
EOF
