0
SECTION
2
HEADER
9
$ACADVER
1
AC1009
0
ENDSEC
0
SECTION
2
ENTITIES
0
POLYLINE
8
0
62
0
70
1
10
0
20
0
30
0
0
VERTEX
8
0
10
0
20
0
30
0
0
VERTEX
8
0
10
0
20
120.326
30
0
0
VERTEX
8
0
10
179.2
20
120.326
30
0
0
VERTEX
8
0
10
179.2
20
0
30
0
0
SEQEND
8
0
0
TEXT
8
0
62
0
10
0
20
-12
30
0
40
8
1
0
50
0
0
LINE
8
0
62
0
10
8.47171171597074
20
0
30
0
11
8.47171171597074
21
3.2
31
0
0
LINE
8
0
62
0
10
8.47171171597074
20
120.326
30
0
11
8.47171171597074
21
117.126
31
0
0
LINE
8
0
62
0
10
16.9434234319415
20
0
30
0
11
16.9434234319415
21
3.2
31
0
0
LINE
8
0
62
0
10
16.9434234319415
20
120.326
30
0
11
16.9434234319415
21
117.126
31
0
0
LINE
8
0
62
0
10
25.4151351479122
20
0
30
0
11
25.4151351479122
21
3.2
31
0
0
LINE
8
0
62
0
10
25.4151351479122
20
120.326
30
0
11
25.4151351479122
21
117.126
31
0
0
LINE
8
0
62
0
10
33.886846863883
20
0
30
0
11
33.886846863883
21
3.2
31
0
0
LINE
8
0
62
0
10
33.886846863883
20
120.326
30
0
11
33.886846863883
21
117.126
31
0
0
LINE
8
0
62
0
10
42.3585585798537
20
0
30
0
11
42.3585585798537
21
6.4
31
0
0
LINE
8
0
62
0
10
42.3585585798537
20
120.326
30
0
11
42.3585585798537
21
113.926
31
0
0
TEXT
8
0
62
0
10
42.3585585798537
20
-12
30
0
40
8
1
0.2
50
0
0
LINE
8
0
62
0
10
50.8302702958244
20
0
30
0
11
50.8302702958244
21
3.2
31
0
0
LINE
8
0
62
0
10
50.8302702958244
20
120.326
30
0
11
50.8302702958244
21
117.126
31
0
0
LINE
8
0
62
0
10
59.3019820117952
20
0
30
0
11
59.3019820117952
21
3.2
31
0
0
LINE
8
0
62
0
10
59.3019820117952
20
120.326
30
0
11
59.3019820117952
21
117.126
31
0
0
LINE
8
0
62
0
10
67.7736937277659
20
0
30
0
11
67.7736937277659
21
3.2
31
0
0
LINE
8
0
62
0
10
67.7736937277659
20
120.326
30
0
11
67.7736937277659
21
117.126
31
0
0
LINE
8
0
62
0
10
76.2454054437367
20
0
30
0
11
76.2454054437367
21
3.2
31
0
0
LINE
8
0
62
0
10
76.2454054437367
20
120.326
30
0
11
76.2454054437367
21
117.126
31
0
0
LINE
8
0
62
0
10
84.7171171597074
20
0
30
0
11
84.7171171597074
21
6.4
31
0
0
LINE
8
0
62
0
10
84.7171171597074
20
120.326
30
0
11
84.7171171597074
21
113.926
31
0
0
TEXT
8
0
62
0
10
84.7171171597074
20
-12
30
0
40
8
1
0.4
50
0
0
LINE
8
0
62
0
10
93.1888288756781
20
0
30
0
11
93.1888288756781
21
3.2
31
0
0
LINE
8
0
62
0
10
93.1888288756781
20
120.326
30
0
11
93.1888288756781
21
117.126
31
0
0
LINE
8
0
62
0
10
101.660540591649
20
0
30
0
11
101.660540591649
21
3.2
31
0
0
LINE
8
0
62
0
10
101.660540591649
20
120.326
30
0
11
101.660540591649
21
117.126
31
0
0
LINE
8
0
62
0
10
110.13225230762
20
0
30
0
11
110.13225230762
21
3.2
31
0
0
LINE
8
0
62
0
10
110.13225230762
20
120.326
30
0
11
110.13225230762
21
117.126
31
0
0
LINE
8
0
62
0
10
118.60396402359
20
0
30
0
11
118.60396402359
21
3.2
31
0
0
LINE
8
0
62
0
10
118.60396402359
20
120.326
30
0
11
118.60396402359
21
117.126
31
0
0
LINE
8
0
62
0
10
127.075675739561
20
0
30
0
11
127.075675739561
21
6.4
31
0
0
LINE
8
0
62
0
10
127.075675739561
20
120.326
30
0
11
127.075675739561
21
113.926
31
0
0
TEXT
8
0
62
0
10
127.075675739561
20
-12
30
0
40
8
1
0.6
50
0
0
LINE
8
0
62
0
10
135.547387455532
20
0
30
0
11
135.547387455532
21
3.2
31
0
0
LINE
8
0
62
0
10
135.547387455532
20
120.326
30
0
11
135.547387455532
21
117.126
31
0
0
LINE
8
0
62
0
10
144.019099171503
20
0
30
0
11
144.019099171503
21
3.2
31
0
0
LINE
8
0
62
0
10
144.019099171503
20
120.326
30
0
11
144.019099171503
21
117.126
31
0
0
LINE
8
0
62
0
10
152.490810887473
20
0
30
0
11
152.490810887473
21
3.2
31
0
0
LINE
8
0
62
0
10
152.490810887473
20
120.326
30
0
11
152.490810887473
21
117.126
31
0
0
LINE
8
0
62
0
10
160.962522603444
20
0
30
0
11
160.962522603444
21
3.2
31
0
0
LINE
8
0
62
0
10
160.962522603444
20
120.326
30
0
11
160.962522603444
21
117.126
31
0
0
LINE
8
0
62
0
10
169.434234319415
20
0
30
0
11
169.434234319415
21
6.4
31
0
0
LINE
8
0
62
0
10
169.434234319415
20
120.326
30
0
11
169.434234319415
21
113.926
31
0
0
TEXT
8
0
62
0
10
169.434234319415
20
-12
30
0
40
8
1
0.8
50
0
0
LINE
8
0
62
0
10
177.905946035386
20
0
30
0
11
177.905946035386
21
3.2
31
0
0
LINE
8
0
62
0
10
177.905946035386
20
120.326
30
0
11
177.905946035386
21
117.126
31
0
0
TEXT
8
0
62
0
10
-4
20
-4
30
0
40
8
1
0
50
0
0
LINE
8
0
62
0
10
0
20
4.01086666666667
30
0
11
3.2
21
4.01086666666667
31
0
0
LINE
8
0
62
0
10
179.2
20
4.01086666666667
30
0
11
176
21
4.01086666666667
31
0
0
LINE
8
0
62
0
10
0
20
8.02173333333333
30
0
11
3.2
21
8.02173333333333
31
0
0
LINE
8
0
62
0
10
179.2
20
8.02173333333333
30
0
11
176
21
8.02173333333333
31
0
0
LINE
8
0
62
0
10
0
20
12.0326
30
0
11
3.2
21
12.0326
31
0
0
LINE
8
0
62
0
10
179.2
20
12.0326
30
0
11
176
21
12.0326
31
0
0
LINE
8
0
62
0
10
0
20
16.0434666666667
30
0
11
3.2
21
16.0434666666667
31
0
0
LINE
8
0
62
0
10
179.2
20
16.0434666666667
30
0
11
176
21
16.0434666666667
31
0
0
LINE
8
0
62
0
10
0
20
20.0543333333333
30
0
11
6.4
21
20.0543333333333
31
0
0
LINE
8
0
62
0
10
179.2
20
20.0543333333333
30
0
11
172.8
21
20.0543333333333
31
0
0
TEXT
8
0
62
0
10
-4
20
16.0543333333333
30
0
40
8
1
10
50
0
0
LINE
8
0
62
0
10
0
20
24.0652
30
0
11
3.2
21
24.0652
31
0
0
LINE
8
0
62
0
10
179.2
20
24.0652
30
0
11
176
21
24.0652
31
0
0
LINE
8
0
62
0
10
0
20
28.0760666666667
30
0
11
3.2
21
28.0760666666667
31
0
0
LINE
8
0
62
0
10
179.2
20
28.0760666666667
30
0
11
176
21
28.0760666666667
31
0
0
LINE
8
0
62
0
10
0
20
32.0869333333333
30
0
11
3.2
21
32.0869333333333
31
0
0
LINE
8
0
62
0
10
179.2
20
32.0869333333333
30
0
11
176
21
32.0869333333333
31
0
0
LINE
8
0
62
0
10
0
20
36.0978
30
0
11
3.2
21
36.0978
31
0
0
LINE
8
0
62
0
10
179.2
20
36.0978
30
0
11
176
21
36.0978
31
0
0
LINE
8
0
62
0
10
0
20
40.1086666666667
30
0
11
6.4
21
40.1086666666667
31
0
0
LINE
8
0
62
0
10
179.2
20
40.1086666666667
30
0
11
172.8
21
40.1086666666667
31
0
0
TEXT
8
0
62
0
10
-4
20
36.1086666666667
30
0
40
8
1
20
50
0
0
LINE
8
0
62
0
10
0
20
44.1195333333333
30
0
11
3.2
21
44.1195333333333
31
0
0
LINE
8
0
62
0
10
179.2
20
44.1195333333333
30
0
11
176
21
44.1195333333333
31
0
0
LINE
8
0
62
0
10
0
20
48.1304
30
0
11
3.2
21
48.1304
31
0
0
LINE
8
0
62
0
10
179.2
20
48.1304
30
0
11
176
21
48.1304
31
0
0
LINE
8
0
62
0
10
0
20
52.1412666666667
30
0
11
3.2
21
52.1412666666667
31
0
0
LINE
8
0
62
0
10
179.2
20
52.1412666666667
30
0
11
176
21
52.1412666666667
31
0
0
LINE
8
0
62
0
10
0
20
56.1521333333333
30
0
11
3.2
21
56.1521333333333
31
0
0
LINE
8
0
62
0
10
179.2
20
56.1521333333333
30
0
11
176
21
56.1521333333333
31
0
0
LINE
8
0
62
0
10
0
20
60.163
30
0
11
6.4
21
60.163
31
0
0
LINE
8
0
62
0
10
179.2
20
60.163
30
0
11
172.8
21
60.163
31
0
0
TEXT
8
0
62
0
10
-4
20
56.163
30
0
40
8
1
30
50
0
0
LINE
8
0
62
0
10
0
20
64.1738666666667
30
0
11
3.2
21
64.1738666666667
31
0
0
LINE
8
0
62
0
10
179.2
20
64.1738666666667
30
0
11
176
21
64.1738666666667
31
0
0
LINE
8
0
62
0
10
0
20
68.1847333333333
30
0
11
3.2
21
68.1847333333333
31
0
0
LINE
8
0
62
0
10
179.2
20
68.1847333333333
30
0
11
176
21
68.1847333333333
31
0
0
LINE
8
0
62
0
10
0
20
72.1956
30
0
11
3.2
21
72.1956
31
0
0
LINE
8
0
62
0
10
179.2
20
72.1956
30
0
11
176
21
72.1956
31
0
0
LINE
8
0
62
0
10
0
20
76.2064666666667
30
0
11
3.2
21
76.2064666666667
31
0
0
LINE
8
0
62
0
10
179.2
20
76.2064666666667
30
0
11
176
21
76.2064666666667
31
0
0
LINE
8
0
62
0
10
0
20
80.2173333333333
30
0
11
6.4
21
80.2173333333333
31
0
0
LINE
8
0
62
0
10
179.2
20
80.2173333333333
30
0
11
172.8
21
80.2173333333333
31
0
0
TEXT
8
0
62
0
10
-4
20
76.2173333333333
30
0
40
8
1
40
50
0
0
LINE
8
0
62
0
10
0
20
84.2282
30
0
11
3.2
21
84.2282
31
0
0
LINE
8
0
62
0
10
179.2
20
84.2282
30
0
11
176
21
84.2282
31
0
0
LINE
8
0
62
0
10
0
20
88.2390666666667
30
0
11
3.2
21
88.2390666666667
31
0
0
LINE
8
0
62
0
10
179.2
20
88.2390666666667
30
0
11
176
21
88.2390666666667
31
0
0
LINE
8
0
62
0
10
0
20
92.2499333333334
30
0
11
3.2
21
92.2499333333334
31
0
0
LINE
8
0
62
0
10
179.2
20
92.2499333333334
30
0
11
176
21
92.2499333333334
31
0
0
LINE
8
0
62
0
10
0
20
96.2608
30
0
11
3.2
21
96.2608
31
0
0
LINE
8
0
62
0
10
179.2
20
96.2608
30
0
11
176
21
96.2608
31
0
0
LINE
8
0
62
0
10
0
20
100.271666666667
30
0
11
6.4
21
100.271666666667
31
0
0
LINE
8
0
62
0
10
179.2
20
100.271666666667
30
0
11
172.8
21
100.271666666667
31
0
0
TEXT
8
0
62
0
10
-4
20
96.2716666666667
30
0
40
8
1
50
50
0
0
LINE
8
0
62
0
10
0
20
104.282533333333
30
0
11
3.2
21
104.282533333333
31
0
0
LINE
8
0
62
0
10
179.2
20
104.282533333333
30
0
11
176
21
104.282533333333
31
0
0
LINE
8
0
62
0
10
0
20
108.2934
30
0
11
3.2
21
108.2934
31
0
0
LINE
8
0
62
0
10
179.2
20
108.2934
30
0
11
176
21
108.2934
31
0
0
LINE
8
0
62
0
10
0
20
112.304266666667
30
0
11
3.2
21
112.304266666667
31
0
0
LINE
8
0
62
0
10
179.2
20
112.304266666667
30
0
11
176
21
112.304266666667
31
0
0
LINE
8
0
62
0
10
0
20
116.315133333333
30
0
11
3.2
21
116.315133333333
31
0
0
LINE
8
0
62
0
10
179.2
20
116.315133333333
30
0
11
176
21
116.315133333333
31
0
0
TEXT
8
0
62
0
10
-4
20
116.326
30
0
40
8
1
60
50
0
0
TEXT
8
0
62
0
10
89.6
20
-32
30
0
40
10
1
R (kpc)
50
0
0
TEXT
8
0
62
0
10
-24
20
60.163
30
0
40
10
1
V (km/s)
50
90
0
TEXT
8
0
62
0
10
72.6
20
135.326
30
0
40
11
1
V vs. R
50
0
0
POLYLINE
8
0
62
5
70
0
10
0
20
0
30
0
0
VERTEX
8
0
10
23.2972072189195
20
12.7099708901704
30
0
0
VERTEX
8
0
10
25.4151351479122
20
13.4540334828967
30
0
0
VERTEX
8
0
10
27.5330630769049
20
14.1758639871824
30
0
0
VERTEX
8
0
10
29.6509910058976
20
14.9199263397631
30
0
0
VERTEX
8
0
10
31.7689189348903
20
15.6814962876123
30
0
0
VERTEX
8
0
10
33.886846863883
20
16.4193716386012
30
0
0
VERTEX
8
0
10
36.0047747928756
20
17.1634342313275
30
0
0
VERTEX
8
0
10
38.1227027218683
20
17.9150270472058
30
0
0
VERTEX
8
0
10
40.240630650861
20
18.6624716319807
30
0
0
VERTEX
8
0
10
42.3585585798537
20
19.4065342247069
30
0
0
VERTEX
8
0
10
44.4764865088464
20
20.1505968174332
30
0
0
VERTEX
8
0
10
46.5944144378391
20
20.8946594101595
30
0
0
VERTEX
8
0
10
48.7123423668317
20
21.6387220028858
30
0
0
VERTEX
8
0
10
50.8302702958244
20
22.38827580813
30
0
0
VERTEX
8
0
10
52.9481982248171
20
23.1410920784178
30
0
0
VERTEX
8
0
10
55.0661261538098
20
23.8818219962652
30
0
0
VERTEX
8
0
10
57.1840540828025
20
24.6258845889915
30
0
0
VERTEX
8
0
10
59.3019820117952
20
25.3777164588799
30
0
0
VERTEX
8
0
10
61.4199099407879
20
26.1249219896446
30
0
0
VERTEX
8
0
10
63.5378378697806
20
26.8689845823709
30
0
0
VERTEX
8
0
10
65.6557657987732
20
27.5764295367609
30
0
0
VERTEX
8
0
10
67.7736937277659
20
27.872242740937
30
0
0
VERTEX
8
0
10
69.8916216567586
20
28.1198353892225
30
0
0
VERTEX
8
0
10
72.0095495857513
20
28.3676452164388
30
0
0
VERTEX
8
0
10
74.127477514744
20
28.6215018657219
30
0
0
VERTEX
8
0
10
76.2454054437367
20
28.8383822956535
30
0
0
VERTEX
8
0
10
78.3633333727294
20
29.0659779122521
30
0
0
VERTEX
8
0
10
80.481261301722
20
29.2935735288507
30
0
0
VERTEX
8
0
10
82.5991892307147
20
29.5328687325158
30
0
0
VERTEX
8
0
10
84.7171171597074
20
29.7779717042374
30
0
0
VERTEX
8
0
10
86.8350450887001
20
30.0106297425034
30
0
0
VERTEX
8
0
10
88.9529730176928
20
30.2264062450305
30
0
0
VERTEX
8
0
10
91.0709009466855
20
30.453376042245
30
0
0
VERTEX
8
0
10
93.1888288756782
20
30.6809716588436
30
0
0
VERTEX
8
0
10
95.3067568046708
20
30.9085672754423
30
0
0
VERTEX
8
0
10
97.4246847336635
20
31.173856273423
30
0
0
VERTEX
8
0
10
99.5426126626562
20
31.4069010770629
30
0
0
VERTEX
8
0
10
101.660540591649
20
31.6350029860405
30
0
0
VERTEX
8
0
10
103.778468520642
20
31.8625986026391
30
0
0
VERTEX
8
0
10
105.896396449634
20
32.0901942192377
30
0
0
VERTEX
8
0
10
108.014324378627
20
32.3304738233022
30
0
0
VERTEX
8
0
10
110.13225230762
20
32.5878740171156
30
0
0
VERTEX
8
0
10
112.250180236612
20
32.7413277201478
30
0
0
VERTEX
8
0
10
114.368108165605
20
32.8280564932082
30
0
0
VERTEX
8
0
10
116.486036094598
20
32.8893322361386
30
0
0
VERTEX
8
0
10
118.60396402359
20
33.0530360948359
30
0
0
VERTEX
8
0
10
120.721891952583
20
33.0246666057817
30
0
0
VERTEX
8
0
10
122.839819881576
20
33.1519631936717
30
0
0
VERTEX
8
0
10
124.957747810568
20
33.2326451446655
30
0
0
VERTEX
8
0
10
127.075675739561
20
33.2939208875959
30
0
0
VERTEX
8
0
10
129.193603668554
20
33.2776583816706
30
0
0
VERTEX
8
0
10
131.311531597546
20
33.5017021359691
30
0
0
VERTEX
8
0
10
133.429459526539
20
33.5048040746075
30
0
0
VERTEX
8
0
10
135.547387455532
20
33.5628309316354
30
0
0
VERTEX
8
0
10
137.665315384525
20
33.6416140296888
30
0
0
VERTEX
8
0
10
139.783243313517
20
33.7725674016663
30
0
0
VERTEX
8
0
10
141.90117124251
20
33.7448728090203
30
0
0
VERTEX
8
0
10
144.019099171503
20
33.8932061934687
30
0
0
VERTEX
8
0
10
146.137027100495
20
33.963215245249
30
0
0
VERTEX
8
0
10
148.254955029488
20
33.9981667972071
30
0
0
VERTEX
8
0
10
150.372882958481
20
34.0244278298916
30
0
0
VERTEX
8
0
10
152.490810887473
20
34.2267457881286
30
0
0
VERTEX
8
0
10
154.608738816466
20
34.2250102778461
30
0
0
SEQEND
8
0
0
POLYLINE
8
0
62
6
70
0
10
0
20
0
30
0
0
VERTEX
8
0
10
23.2972072189195
20
6.02905293107893
30
0
0
VERTEX
8
0
10
25.4151351479122
20
6.51050519696064
30
0
0
VERTEX
8
0
10
27.5330630769049
20
6.99195746284235
30
0
0
VERTEX
8
0
10
29.6509910058976
20
7.48391404573962
30
0
0
VERTEX
8
0
10
31.7689189348903
20
7.9828736667443
30
0
0
VERTEX
8
0
10
33.886846863883
20
8.43444409402833
30
0
0
VERTEX
8
0
10
36.0047747928756
20
8.93714404795131
30
0
0
VERTEX
8
0
10
38.1227027218683
20
9.42104322265207
30
0
0
VERTEX
8
0
10
40.240630650861
20
9.90249548853378
30
0
0
VERTEX
8
0
10
42.3585585798537
20
10.3839477544155
30
0
0
VERTEX
8
0
10
44.4764865088464
20
10.8654000202972
30
0
0
VERTEX
8
0
10
46.5944144378391
20
11.3566605739751
30
0
0
VERTEX
8
0
10
48.7123423668317
20
11.8468665174182
30
0
0
VERTEX
8
0
10
50.8302702958244
20
12.3260900358255
30
0
0
VERTEX
8
0
10
52.9481982248171
20
12.7987886241458
30
0
0
VERTEX
8
0
10
55.0661261538098
20
13.2956599173467
30
0
0
VERTEX
8
0
10
57.1840540828025
20
13.7759380459886
30
0
0
VERTEX
8
0
10
59.3019820117952
20
14.2729288661946
30
0
0
VERTEX
8
0
10
61.4199099407879
20
14.7494455291071
30
0
0
VERTEX
8
0
10
63.5378378697806
20
15.2133904398659
30
0
0
VERTEX
8
0
10
65.6557657987732
20
15.7017471095155
30
0
0
VERTEX
8
0
10
67.7736937277659
20
16.0525839319149
30
0
0
VERTEX
8
0
10
69.8916216567586
20
16.372905564494
30
0
0
VERTEX
8
0
10
72.0095495857513
20
16.6765774236512
30
0
0
VERTEX
8
0
10
74.127477514744
20
16.9742024607417
30
0
0
VERTEX
8
0
10
76.2454054437367
20
17.3211291236343
30
0
0
VERTEX
8
0
10
78.3633333727294
20
17.6131013957251
30
0
0
VERTEX
8
0
10
80.481261301722
20
17.9267430951602
30
0
0
VERTEX
8
0
10
82.5991892307147
20
18.2535750744401
30
0
0
VERTEX
8
0
10
84.7171171597074
20
18.5862148217765
30
0
0
VERTEX
8
0
10
86.8350450887001
20
18.856629901835
30
0
0
VERTEX
8
0
10
88.9529730176928
20
19.207219636263
30
0
0
VERTEX
8
0
10
91.0709009466855
20
19.507973770274
30
0
0
VERTEX
8
0
10
93.1888288756782
20
19.8175374484411
30
0
0
VERTEX
8
0
10
95.3067568046708
20
20.1326698406546
30
0
0
VERTEX
8
0
10
97.4246847336635
20
20.4603666933288
30
0
0
VERTEX
8
0
10
99.5426126626562
20
20.7738468402821
30
0
0
VERTEX
8
0
10
101.660540591649
20
21.0724844621306
30
0
0
VERTEX
8
0
10
103.778468520642
20
21.3944648893947
30
0
0
VERTEX
8
0
10
105.896396449634
20
21.7271046367312
30
0
0
VERTEX
8
0
10
108.014324378627
20
22.0216924216703
30
0
0
VERTEX
8
0
10
110.13225230762
20
22.3280711363223
30
0
0
VERTEX
8
0
10
112.250180236612
20
22.600982202224
30
0
0
VERTEX
8
0
10
114.368108165605
20
22.6923033447241
30
0
0
VERTEX
8
0
10
116.486036094598
20
22.7098106998471
30
0
0
VERTEX
8
0
10
118.60396402359
20
22.8937637430913
30
0
0
VERTEX
8
0
10
120.721891952583
20
22.9399090918594
30
0
0
VERTEX
8
0
10
122.839819881576
20
22.9842119564045
30
0
0
VERTEX
8
0
10
124.957747810568
20
23.1039151628548
30
0
0
VERTEX
8
0
10
127.075675739561
20
23.2527276814
30
0
0
VERTEX
8
0
10
129.193603668554
20
23.181848494854
30
0
0
VERTEX
8
0
10
131.311531597546
20
23.3648450600806
30
0
0
VERTEX
8
0
10
133.429459526539
20
23.4103859842528
30
0
0
VERTEX
8
0
10
135.547387455532
20
23.4670492291775
30
0
0
VERTEX
8
0
10
137.665315384525
20
23.5283249721079
30
0
0
VERTEX
8
0
10
139.783243313517
20
23.6939412628866
30
0
0
VERTEX
8
0
10
141.90117124251
20
23.6619859636798
30
0
0
VERTEX
8
0
10
144.019099171503
20
23.8277703345338
30
0
0
VERTEX
8
0
10
146.137027100495
20
23.8890189191821
30
0
0
VERTEX
8
0
10
148.254955029488
20
23.9417304594145
30
0
0
VERTEX
8
0
10
150.372882958481
20
24.0205135574678
30
0
0
VERTEX
8
0
10
152.490810887473
20
24.1433108869093
30
0
0
VERTEX
8
0
10
154.608738816466
20
24.1421234325055
30
0
0
SEQEND
8
0
0
POLYLINE
8
0
62
6
70
0
10
0
20
0
30
0
0
VERTEX
8
0
10
23.2972072189195
20
19.0158578180366
30
0
0
VERTEX
8
0
10
25.4151351479122
20
20.3201557746979
30
0
0
VERTEX
8
0
10
27.5330630769049
20
21.6714274077306
30
0
0
VERTEX
8
0
10
29.6509910058976
20
23.005021356929
30
0
0
VERTEX
8
0
10
31.7689189348903
20
24.345735666267
30
0
0
VERTEX
8
0
10
33.886846863883
20
25.6938020107357
30
0
0
VERTEX
8
0
10
36.0047747928756
20
27.0301955552861
30
0
0
VERTEX
8
0
10
38.1227027218683
20
28.3695082221934
30
0
0
VERTEX
8
0
10
40.240630650861
20
29.7161766137409
30
0
0
VERTEX
8
0
10
42.3585585798537
20
31.0642429582097
30
0
0
VERTEX
8
0
10
44.4764865088464
20
32.4123093026785
30
0
0
VERTEX
8
0
10
46.5944144378391
20
33.7367909933003
30
0
0
VERTEX
8
0
10
48.7123423668317
20
35.0866175612149
30
0
0
VERTEX
8
0
10
50.8302702958244
20
36.4272086540384
30
0
0
VERTEX
8
0
10
52.9481982248171
20
37.7665213209457
30
0
0
VERTEX
8
0
10
55.0661261538098
20
39.105833987853
30
0
0
VERTEX
8
0
10
57.1840540828025
20
40.4570585086889
30
0
0
VERTEX
8
0
10
59.3019820117952
20
41.7953715368681
30
0
0
VERTEX
8
0
10
61.4199099407879
20
43.1346842037755
30
0
0
VERTEX
8
0
10
63.5378378697806
20
44.4739968706828
30
0
0
VERTEX
8
0
10
65.6557657987732
20
45.8133095375901
30
0
0
VERTEX
8
0
10
67.7736937277659
20
46.7435552527514
30
0
0
VERTEX
8
0
10
69.8916216567586
20
47.6371502331491
30
0
0
VERTEX
8
0
10
72.0095495857513
20
48.5166754769216
30
0
0
VERTEX
8
0
10
74.127477514744
20
49.3975990010865
30
0
0
VERTEX
8
0
10
76.2454054437367
20
50.2817204347966
30
0
0
VERTEX
8
0
10
78.3633333727294
20
51.1658418685066
30
0
0
VERTEX
8
0
10
80.481261301722
20
52.0499633022167
30
0
0
VERTEX
8
0
10
82.5991892307147
20
52.9340847359267
30
0
0
VERTEX
8
0
10
84.7171171597074
20
53.8238814646583
30
0
0
VERTEX
8
0
10
86.8350450887001
20
54.7167565759298
30
0
0
VERTEX
8
0
10
88.9529730176928
20
55.5973612522574
30
0
0
VERTEX
8
0
10
91.0709009466855
20
56.4814826859675
30
0
0
VERTEX
8
0
10
93.1888288756782
20
57.3656041196775
30
0
0
VERTEX
8
0
10
95.3067568046708
20
58.2497255533876
30
0
0
VERTEX
8
0
10
97.4246847336635
20
59.1338469870976
30
0
0
VERTEX
8
0
10
99.5426126626562
20
60.0055784588587
30
0
0
VERTEX
8
0
10
101.660540591649
20
60.8911776393171
30
0
0
VERTEX
8
0
10
103.778468520642
20
61.7752990730272
30
0
0
VERTEX
8
0
10
105.896396449634
20
62.6594205067372
30
0
0
VERTEX
8
0
10
108.014324378627
20
63.5435419404473
30
0
0
VERTEX
8
0
10
110.13225230762
20
64.4526823520655
30
0
0
VERTEX
8
0
10
112.250180236612
20
65.2508016277489
30
0
0
VERTEX
8
0
10
114.368108165605
20
65.9174301948016
30
0
0
VERTEX
8
0
10
116.486036094598
20
66.549820507766
30
0
0
VERTEX
8
0
10
118.60396402359
20
67.1713316146314
30
0
0
VERTEX
8
0
10
120.721891952583
20
67.8181007534152
30
0
0
VERTEX
8
0
10
122.839819881576
20
68.4361782587636
30
0
0
VERTEX
8
0
10
124.957747810568
20
69.074313246991
30
0
0
VERTEX
8
0
10
127.075675739561
20
69.7133317089794
30
0
0
VERTEX
8
0
10
129.193603668554
20
70.3523501709678
30
0
0
VERTEX
8
0
10
131.311531597546
20
70.9786200899921
30
0
0
VERTEX
8
0
10
133.429459526539
20
71.608884874419
30
0
0
VERTEX
8
0
10
135.547387455532
20
72.23071819116
30
0
0
VERTEX
8
0
10
137.665315384525
20
72.8647751581193
30
0
0
VERTEX
8
0
10
139.783243313517
20
73.5037936201078
30
0
0
VERTEX
8
0
10
141.90117124251
20
74.1299440121269
30
0
0
VERTEX
8
0
10
144.019099171503
20
74.7709183288841
30
0
0
VERTEX
8
0
10
146.137027100495
20
75.4013857961814
30
0
0
VERTEX
8
0
10
148.254955029488
20
76.0316505806084
30
0
0
VERTEX
8
0
10
150.372882958481
20
76.6619153650353
30
0
0
VERTEX
8
0
10
152.490810887473
20
77.2921801494623
30
0
0
VERTEX
8
0
10
154.608738816466
20
77.9224449338893
30
0
0
SEQEND
8
0
0
POLYLINE
8
0
62
1
70
0
10
0
20
0
30
0
0
VERTEX
8
0
10
23.2972072189195
20
14.0674389735563
30
0
0
VERTEX
8
0
10
25.4151351479122
20
14.946494400981
30
0
0
VERTEX
8
0
10
27.5330630769049
20
15.8064097424207
30
0
0
VERTEX
8
0
10
29.6509910058976
20
16.6917096616247
30
0
0
VERTEX
8
0
10
31.7689189348903
20
17.596465491615
30
0
0
VERTEX
8
0
10
33.886846863883
20
18.4590252229578
30
0
0
VERTEX
8
0
10
36.0047747928756
20
19.3508660877734
30
0
0
VERTEX
8
0
10
38.1227027218683
20
20.2411523759195
30
0
0
VERTEX
8
0
10
40.240630650861
20
21.1269322031126
30
0
0
VERTEX
8
0
10
42.3585585798537
20
22.0099964012072
30
0
0
VERTEX
8
0
10
44.4764865088464
20
22.8933062203742
30
0
0
VERTEX
8
0
10
46.5944144378391
20
23.7815165887091
30
0
0
VERTEX
8
0
10
48.7123423668317
20
24.6694656650625
30
0
0
VERTEX
8
0
10
50.8302702958244
20
25.5571396919173
30
0
0
VERTEX
8
0
10
52.9481982248171
20
26.4446428001471
30
0
0
VERTEX
8
0
10
55.0661261538098
20
27.3334226634543
30
0
0
VERTEX
8
0
10
57.1840540828025
20
28.217205050062
30
0
0
VERTEX
8
0
10
59.3019820117952
20
29.1160607068806
30
0
0
VERTEX
8
0
10
61.4199099407879
20
30.0009615242764
30
0
0
VERTEX
8
0
10
63.5378378697806
20
30.8770073220104
30
0
0
VERTEX
8
0
10
65.6557657987732
20
31.7333315031233
30
0
0
VERTEX
8
0
10
67.7736937277659
20
32.1643803966575
30
0
0
VERTEX
8
0
10
69.8916216567586
20
32.5391637713818
30
0
0
VERTEX
8
0
10
72.0095495857513
20
32.9064056027512
30
0
0
VERTEX
8
0
10
74.127477514744
20
33.2763266937289
30
0
0
VERTEX
8
0
10
76.2454054437367
20
33.640359801106
30
0
0
VERTEX
8
0
10
78.3633333727294
20
33.9860620368353
30
0
0
VERTEX
8
0
10
80.481261301722
20
34.3435811774203
30
0
0
VERTEX
8
0
10
82.5991892307147
20
34.7186310008075
30
0
0
VERTEX
8
0
10
84.7171171597074
20
35.1023500669056
30
0
0
VERTEX
8
0
10
86.8350450887001
20
35.4430584007137
30
0
0
VERTEX
8
0
10
88.9529730176928
20
35.8127480186213
30
0
0
VERTEX
8
0
10
91.0709009466855
20
36.1658561766769
30
0
0
VERTEX
8
0
10
93.1888288756782
20
36.5247424693335
30
0
0
VERTEX
8
0
10
95.3067568046708
20
36.8871783406286
30
0
0
VERTEX
8
0
10
97.4246847336635
20
37.2885494512928
30
0
0
VERTEX
8
0
10
99.5426126626562
20
37.6556257126065
30
0
0
VERTEX
8
0
10
101.660540591649
20
38.0108276065324
30
0
0
VERTEX
8
0
10
103.778468520642
20
38.3790088149296
30
0
0
VERTEX
8
0
10
105.896396449634
20
38.7536790630756
30
0
0
VERTEX
8
0
10
108.014324378627
20
39.1179559122646
30
0
0
VERTEX
8
0
10
110.13225230762
20
39.5033200329297
30
0
0
VERTEX
8
0
10
112.250180236612
20
39.7844057060472
30
0
0
VERTEX
8
0
10
114.368108165605
20
39.9076674864649
30
0
0
VERTEX
8
0
10
116.486036094598
20
39.968033188562
30
0
0
VERTEX
8
0
10
118.60396402359
20
40.2073079602578
30
0
0
VERTEX
8
0
10
120.721891952583
20
40.2102976060338
30
0
0
VERTEX
8
0
10
122.839819881576
20
40.3401371198896
30
0
0
VERTEX
8
0
10
124.957747810568
20
40.4746784936415
30
0
0
VERTEX
8
0
10
127.075675739561
20
40.6100297056631
30
0
0
VERTEX
8
0
10
129.193603668554
20
40.5561419147031
30
0
0
VERTEX
8
0
10
131.311531597546
20
40.8445838599045
30
0
0
VERTEX
8
0
10
133.429459526539
20
40.873194981669
30
0
0
VERTEX
8
0
10
135.547387455532
20
40.9532174519925
30
0
0
VERTEX
8
0
10
137.665315384525
20
41.0528960064411
30
0
0
VERTEX
8
0
10
139.783243313517
20
41.2551713300189
30
0
0
VERTEX
8
0
10
141.90117124251
20
41.2141483066476
30
0
0
VERTEX
8
0
10
144.019099171503
20
41.4308105784605
30
0
0
VERTEX
8
0
10
146.137027100495
20
41.5233092938913
30
0
0
VERTEX
8
0
10
148.254955029488
20
41.5822294130795
30
0
0
VERTEX
8
0
10
150.372882958481
20
41.6490907549732
30
0
0
VERTEX
8
0
10
152.490810887473
20
41.8851953299388
30
0
0
VERTEX
8
0
10
154.608738816466
20
41.8830926788961
30
0
0
SEQEND
8
0
0
POLYLINE
8
0
62
2
70
0
10
0
20
0
30
0
0
VERTEX
8
0
10
23.2972072189195
20
14.0752021248211
30
0
0
VERTEX
8
0
10
25.4151351479122
20
14.9406036557257
30
0
0
VERTEX
8
0
10
27.5330630769049
20
15.8049345337482
30
0
0
VERTEX
8
0
10
29.6509910058976
20
16.70928522035
30
0
0
VERTEX
8
0
10
31.7689189348903
20
17.5935928052491
30
0
0
VERTEX
8
0
10
33.886846863883
20
18.444512503377
30
0
0
VERTEX
8
0
10
36.0047747928756
20
19.3490400817271
30
0
0
VERTEX
8
0
10
38.1227027218683
20
20.2436964261608
30
0
0
VERTEX
8
0
10
40.240630650861
20
21.1139909508844
30
0
0
VERTEX
8
0
10
42.3585585798537
20
22.0079504035852
30
0
0
VERTEX
8
0
10
44.4764865088464
20
22.9023403620176
30
0
0
VERTEX
8
0
10
46.5944144378391
20
23.7722158374381
30
0
0
VERTEX
8
0
10
48.7123423668317
20
24.6672824778902
30
0
0
VERTEX
8
0
10
50.8302702958244
20
25.5735085499787
30
0
0
VERTEX
8
0
10
52.9481982248171
20
26.4403323762023
30
0
0
VERTEX
8
0
10
55.0661261538098
20
27.3139520292749
30
0
0
VERTEX
8
0
10
57.1840540828025
20
28.2413950214251
30
0
0
VERTEX
8
0
10
59.3019820117952
20
29.1181497604969
30
0
0
VERTEX
8
0
10
61.4199099407879
20
29.9862272794437
30
0
0
VERTEX
8
0
10
63.5378378697806
20
30.8769139074569
30
0
0
VERTEX
8
0
10
65.6557657987732
20
31.7401066419542
30
0
0
VERTEX
8
0
10
67.7736937277659
20
32.160167840457
30
0
0
VERTEX
8
0
10
69.8916216567586
20
32.5393526591996
30
0
0
VERTEX
8
0
10
72.0095495857513
20
32.9161056915285
30
0
0
VERTEX
8
0
10
74.127477514744
20
33.2740307817111
30
0
0
VERTEX
8
0
10
76.2454054437367
20
33.6296117813407
30
0
0
VERTEX
8
0
10
78.3633333727294
20
33.998317111851
30
0
0
VERTEX
8
0
10
80.481261301722
20
34.344572491348
30
0
0
VERTEX
8
0
10
82.5991892307147
20
34.7101256314502
30
0
0
VERTEX
8
0
10
84.7171171597074
20
35.1016251637055
30
0
0
VERTEX
8
0
10
86.8350450887001
20
35.4470364158723
30
0
0
VERTEX
8
0
10
88.9529730176928
20
35.8074418952348
30
0
0
VERTEX
8
0
10
91.0709009466855
20
36.1650394737179
30
0
0
VERTEX
8
0
10
93.1888288756782
20
36.5317307561849
30
0
0
VERTEX
8
0
10
95.3067568046708
20
36.8849718131079
30
0
0
VERTEX
8
0
10
97.4246847336635
20
37.2771608439012
30
0
0
VERTEX
8
0
10
99.5426126626562
20
37.6663438796273
30
0
0
VERTEX
8
0
10
101.660540591649
20
38.0114463045099
30
0
0
VERTEX
8
0
10
103.778468520642
20
38.3710788892472
30
0
0
VERTEX
8
0
10
105.896396449634
20
38.7536348003843
30
0
0
VERTEX
8
0
10
108.014324378627
20
39.1231609207346
30
0
0
VERTEX
8
0
10
110.13225230762
20
39.4988163814797
30
0
0
VERTEX
8
0
10
112.250180236612
20
39.7855269780717
30
0
0
VERTEX
8
0
10
114.368108165605
20
39.9130688998792
30
0
0
VERTEX
8
0
10
116.486036094598
20
39.9698921739592
30
0
0
VERTEX
8
0
10
118.60396402359
20
40.203593733708
30
0
0
VERTEX
8
0
10
120.721891952583
20
40.2199284716855
30
0
0
VERTEX
8
0
10
122.839819881576
20
40.3393358767033
30
0
0
VERTEX
8
0
10
124.957747810568
20
40.4705357200019
30
0
0
VERTEX
8
0
10
127.075675739561
20
40.6072991562216
30
0
0
VERTEX
8
0
10
129.193603668554
20
40.5649828294543
30
0
0
VERTEX
8
0
10
131.311531597546
20
40.8353847453348
30
0
0
VERTEX
8
0
10
133.429459526539
20
40.876285391156
30
0
0
VERTEX
8
0
10
135.547387455532
20
40.9571255256086
30
0
0
VERTEX
8
0
10
137.665315384525
20
41.053930745951
30
0
0
VERTEX
8
0
10
139.783243313517
20
41.2507070486404
30
0
0
VERTEX
8
0
10
141.90117124251
20
41.2255072229981
30
0
0
VERTEX
8
0
10
144.019099171503
20
41.4292511399441
30
0
0
VERTEX
8
0
10
146.137027100495
20
41.520628728451
30
0
0
VERTEX
8
0
10
148.254955029488
20
41.5826789316472
30
0
0
VERTEX
8
0
10
150.372882958481
20
41.6611812934183
30
0
0
VERTEX
8
0
10
152.490810887473
20
41.8840103275363
30
0
0
VERTEX
8
0
10
154.608738816466
20
41.8871833568959
30
0
0
SEQEND
8
0
0
POLYLINE
8
0
62
3
70
0
10
0
20
0
30
0
0
VERTEX
8
0
10
23.2972072189195
20
20.569277775126
30
0
0
VERTEX
8
0
10
25.4151351479122
20
22.0810232325311
30
0
0
VERTEX
8
0
10
27.5330630769049
20
23.597617464029
30
0
0
VERTEX
8
0
10
29.6509910058976
20
25.141329710974
30
0
0
VERTEX
8
0
10
31.7689189348903
20
26.6339868013843
30
0
0
VERTEX
8
0
10
33.886846863883
20
28.0962012348169
30
0
0
VERTEX
8
0
10
36.0047747928756
20
29.6154213399343
30
0
0
VERTEX
8
0
10
38.1227027218683
20
31.1082564376872
30
0
0
VERTEX
8
0
10
40.240630650861
20
32.5547625764547
30
0
0
VERTEX
8
0
10
42.3585585798537
20
34.0371486474232
30
0
0
VERTEX
8
0
10
44.4764865088464
20
35.5084327467767
30
0
0
VERTEX
8
0
10
46.5944144378391
20
36.9232051312585
30
0
0
VERTEX
8
0
10
48.7123423668317
20
38.3716549147513
30
0
0
VERTEX
8
0
10
50.8302702958244
20
39.8269277079951
30
0
0
VERTEX
8
0
10
52.9481982248171
20
41.2037424245454
30
0
0
VERTEX
8
0
10
55.0661261538098
20
42.5718083116492
30
0
0
VERTEX
8
0
10
57.1840540828025
20
44.0366824886659
30
0
0
VERTEX
8
0
10
59.3019820117952
20
45.3761881860096
30
0
0
VERTEX
8
0
10
61.4199099407879
20
46.6931404144782
30
0
0
VERTEX
8
0
10
63.5378378697806
20
48.0493551744858
30
0
0
VERTEX
8
0
10
65.6557657987732
20
49.3572190435862
30
0
0
VERTEX
8
0
10
67.7736937277659
20
50.3181631294403
30
0
0
VERTEX
8
0
10
69.8916216567586
20
51.2599049281313
30
0
0
VERTEX
8
0
10
72.0095495857513
20
52.1893865087913
30
0
0
VERTEX
8
0
10
74.127477514744
20
53.0589428053008
30
0
0
VERTEX
8
0
10
76.2454054437367
20
53.913469091631
30
0
0
VERTEX
8
0
10
78.3633333727294
20
54.822780625348
30
0
0
VERTEX
8
0
10
80.481261301722
20
55.6463484153391
30
0
0
VERTEX
8
0
10
82.5991892307147
20
56.4703824448624
30
0
0
VERTEX
8
0
10
84.7171171597074
20
57.3336991345568
30
0
0
VERTEX
8
0
10
86.8350450887001
20
58.1511802283922
30
0
0
VERTEX
8
0
10
88.9529730176928
20
58.9377080893134
30
0
0
VERTEX
8
0
10
91.0709009466855
20
59.7418610634782
30
0
0
VERTEX
8
0
10
93.1888288756782
20
60.5463146783567
30
0
0
VERTEX
8
0
10
95.3067568046708
20
61.2962991651816
30
0
0
VERTEX
8
0
10
97.4246847336635
20
62.0591186474138
30
0
0
VERTEX
8
0
10
99.5426126626562
20
62.8761245407678
30
0
0
VERTEX
8
0
10
101.660540591649
20
63.5863106504557
30
0
0
VERTEX
8
0
10
103.778468520642
20
64.2929603002213
30
0
0
VERTEX
8
0
10
105.896396449634
20
65.0405084092847
30
0
0
VERTEX
8
0
10
108.014324378627
20
65.7581995060376
30
0
0
VERTEX
8
0
10
110.13225230762
20
66.4342175146354
30
0
0
VERTEX
8
0
10
112.250180236612
20
67.0710736806241
30
0
0
VERTEX
8
0
10
114.368108165605
20
67.5947911532171
30
0
0
VERTEX
8
0
10
116.486036094598
20
68.0382814478629
30
0
0
VERTEX
8
0
10
118.60396402359
20
68.5884918487123
30
0
0
VERTEX
8
0
10
120.721891952583
20
69.0087594272009
30
0
0
VERTEX
8
0
10
122.839819881576
20
69.4539034921229
30
0
0
VERTEX
8
0
10
124.957747810568
20
69.8916466752295
30
0
0
VERTEX
8
0
10
127.075675739561
20
70.3470352005654
30
0
0
VERTEX
8
0
10
129.193603668554
20
70.6855337637389
30
0
0
VERTEX
8
0
10
131.311531597546
20
71.1691806928901
30
0
0
VERTEX
8
0
10
133.429459526539
20
71.5370896490456
30
0
0
VERTEX
8
0
10
135.547387455532
20
71.9150962597127
30
0
0
VERTEX
8
0
10
137.665315384525
20
72.2718257398498
30
0
0
VERTEX
8
0
10
139.783243313517
20
72.6886254901551
30
0
0
VERTEX
8
0
10
141.90117124251
20
72.9818365043438
30
0
0
VERTEX
8
0
10
144.019099171503
20
73.3650854088051
30
0
0
VERTEX
8
0
10
146.137027100495
20
73.6759539148706
30
0
0
VERTEX
8
0
10
148.254955029488
20
73.9806465132669
30
0
0
VERTEX
8
0
10
150.372882958481
20
74.2763934339058
30
0
0
VERTEX
8
0
10
152.490810887473
20
74.6199397748898
30
0
0
VERTEX
8
0
10
154.608738816466
20
74.8430755341457
30
0
0
SEQEND
8
0
0
POLYLINE
8
0
62
4
70
0
10
0
20
0
30
0
0
VERTEX
8
0
10
23.2972072189195
20
20.569277775126
30
0
0
VERTEX
8
0
10
25.4151351479122
20
22.0810232325311
30
0
0
VERTEX
8
0
10
27.5330630769049
20
23.597617464029
30
0
0
VERTEX
8
0
10
29.6509910058976
20
25.141329710974
30
0
0
VERTEX
8
0
10
31.7689189348903
20
26.6339868013843
30
0
0
VERTEX
8
0
10
33.886846863883
20
28.0962012348169
30
0
0
VERTEX
8
0
10
36.0047747928756
20
29.6154213399343
30
0
0
VERTEX
8
0
10
38.1227027218683
20
31.1082564376872
30
0
0
VERTEX
8
0
10
40.240630650861
20
32.5547625764547
30
0
0
VERTEX
8
0
10
42.3585585798537
20
34.0371486474232
30
0
0
VERTEX
8
0
10
44.4764865088464
20
35.5084327467767
30
0
0
VERTEX
8
0
10
46.5944144378391
20
36.9232051312585
30
0
0
VERTEX
8
0
10
48.7123423668317
20
38.3716549147513
30
0
0
VERTEX
8
0
10
50.8302702958244
20
39.8269277079951
30
0
0
VERTEX
8
0
10
52.9481982248171
20
41.2037424245454
30
0
0
VERTEX
8
0
10
55.0661261538098
20
42.5718083116492
30
0
0
VERTEX
8
0
10
57.1840540828025
20
44.0366824886659
30
0
0
VERTEX
8
0
10
59.3019820117952
20
45.3761881860096
30
0
0
VERTEX
8
0
10
61.4199099407879
20
46.6931404144782
30
0
0
VERTEX
8
0
10
63.5378378697806
20
48.0493551744858
30
0
0
VERTEX
8
0
10
65.6557657987732
20
49.3572190435862
30
0
0
VERTEX
8
0
10
67.7736937277659
20
50.3181631294403
30
0
0
VERTEX
8
0
10
69.8916216567586
20
51.2599049281313
30
0
0
VERTEX
8
0
10
72.0095495857513
20
52.1893865087913
30
0
0
VERTEX
8
0
10
74.127477514744
20
53.0589428053008
30
0
0
VERTEX
8
0
10
76.2454054437367
20
53.913469091631
30
0
0
VERTEX
8
0
10
78.3633333727294
20
54.822780625348
30
0
0
VERTEX
8
0
10
80.481261301722
20
55.6463484153391
30
0
0
VERTEX
8
0
10
82.5991892307147
20
56.4703824448624
30
0
0
VERTEX
8
0
10
84.7171171597074
20
57.3336991345568
30
0
0
VERTEX
8
0
10
86.8350450887001
20
58.1511802283922
30
0
0
VERTEX
8
0
10
88.9529730176928
20
58.9377080893134
30
0
0
VERTEX
8
0
10
91.0709009466855
20
59.7418610634782
30
0
0
VERTEX
8
0
10
93.1888288756782
20
60.5463146783567
30
0
0
VERTEX
8
0
10
95.3067568046708
20
61.2962991651816
30
0
0
VERTEX
8
0
10
97.4246847336635
20
62.0591186474138
30
0
0
VERTEX
8
0
10
99.5426126626562
20
62.8761245407678
30
0
0
VERTEX
8
0
10
101.660540591649
20
63.5863106504557
30
0
0
VERTEX
8
0
10
103.778468520642
20
64.2929603002213
30
0
0
VERTEX
8
0
10
105.896396449634
20
65.0405084092847
30
0
0
VERTEX
8
0
10
108.014324378627
20
65.7581995060376
30
0
0
VERTEX
8
0
10
110.13225230762
20
66.4342175146354
30
0
0
VERTEX
8
0
10
112.250180236612
20
67.0710736806241
30
0
0
VERTEX
8
0
10
114.368108165605
20
67.5947911532171
30
0
0
VERTEX
8
0
10
116.486036094598
20
68.0382814478629
30
0
0
VERTEX
8
0
10
118.60396402359
20
68.5884918487123
30
0
0
VERTEX
8
0
10
120.721891952583
20
69.0087594272009
30
0
0
VERTEX
8
0
10
122.839819881576
20
69.4539034921229
30
0
0
VERTEX
8
0
10
124.957747810568
20
69.8916466752295
30
0
0
VERTEX
8
0
10
127.075675739561
20
70.3470352005654
30
0
0
VERTEX
8
0
10
129.193603668554
20
70.6855337637389
30
0
0
VERTEX
8
0
10
131.311531597546
20
71.1691806928901
30
0
0
VERTEX
8
0
10
133.429459526539
20
71.5370896490456
30
0
0
VERTEX
8
0
10
135.547387455532
20
71.9150962597127
30
0
0
VERTEX
8
0
10
137.665315384525
20
72.2718257398498
30
0
0
VERTEX
8
0
10
139.783243313517
20
72.6886254901551
30
0
0
VERTEX
8
0
10
141.90117124251
20
72.9818365043438
30
0
0
VERTEX
8
0
10
144.019099171503
20
73.3650854088051
30
0
0
VERTEX
8
0
10
146.137027100495
20
73.6759539148706
30
0
0
VERTEX
8
0
10
148.254955029488
20
73.9806465132669
30
0
0
VERTEX
8
0
10
150.372882958481
20
74.2763934339058
30
0
0
VERTEX
8
0
10
152.490810887473
20
74.6199397748898
30
0
0
VERTEX
8
0
10
154.608738816466
20
74.8430755341457
30
0
0
SEQEND
8
0
0
POLYLINE
8
0
62
2
70
0
10
0
20
0
30
0
0
VERTEX
8
0
10
23.2972072189195
20
12.7185626392615
30
0
0
VERTEX
8
0
10
25.4151351479122
20
13.4474889729582
30
0
0
VERTEX
8
0
10
27.5330630769049
20
14.1742190773909
30
0
0
VERTEX
8
0
10
29.6509910058976
20
14.9395864444431
30
0
0
VERTEX
8
0
10
31.7689189348903
20
15.6782727306841
30
0
0
VERTEX
8
0
10
33.886846863883
20
16.4030544201969
30
0
0
VERTEX
8
0
10
36.0047747928756
20
17.1613754795602
30
0
0
VERTEX
8
0
10
38.1227027218683
20
17.9179013724118
30
0
0
VERTEX
8
0
10
40.240630650861
20
18.6478201668075
30
0
0
VERTEX
8
0
10
42.3585585798537
20
19.4042137176499
30
0
0
VERTEX
8
0
10
44.4764865088464
20
20.1608600128226
30
0
0
VERTEX
8
0
10
46.5944144378391
20
20.8840730325591
30
0
0
VERTEX
8
0
10
48.7123423668317
20
21.6362330030553
30
0
0
VERTEX
8
0
10
50.8302702958244
20
22.4069597220273
30
0
0
VERTEX
8
0
10
52.9481982248171
20
23.1361661888587
30
0
0
VERTEX
8
0
10
55.0661261538098
20
23.8595348408093
30
0
0
VERTEX
8
0
10
57.1840540828025
20
24.6535985955247
30
0
0
VERTEX
8
0
10
59.3019820117952
20
25.3801132199066
30
0
0
VERTEX
8
0
10
61.4199099407879
20
26.1080003646077
30
0
0
VERTEX
8
0
10
63.5378378697806
20
26.8688772331986
30
0
0
VERTEX
8
0
10
65.6557657987732
20
27.5842256978775
30
0
0
VERTEX
8
0
10
67.7736937277659
20
27.8673813738427
30
0
0
VERTEX
8
0
10
69.8916216567586
20
28.1200539625357
30
0
0
VERTEX
8
0
10
72.0095495857513
20
28.378896725011
30
0
0
VERTEX
8
0
10
74.127477514744
20
28.6188325283197
30
0
0
VERTEX
8
0
10
76.2454054437367
20
28.8258438635555
30
0
0
VERTEX
8
0
10
78.3633333727294
20
29.0803064918836
30
0
0
VERTEX
8
0
10
80.481261301722
20
29.2947357321002
30
0
0
VERTEX
8
0
10
82.5991892307147
20
29.5228694125898
30
0
0
VERTEX
8
0
10
84.7171171597074
20
29.7771171830327
30
0
0
VERTEX
8
0
10
86.8350450887001
20
30.0153277412292
30
0
0
VERTEX
8
0
10
88.9529730176928
20
30.2201192738375
30
0
0
VERTEX
8
0
10
91.0709009466855
20
30.4524061366894
30
0
0
VERTEX
8
0
10
93.1888288756782
20
30.689290665019
30
0
0
VERTEX
8
0
10
95.3067568046708
20
30.9059339082475
30
0
0
VERTEX
8
0
10
97.4246847336635
20
31.1602329156347
30
0
0
VERTEX
8
0
10
99.5426126626562
20
31.4197509333673
30
0
0
VERTEX
8
0
10
101.660540591649
20
31.6357463757994
30
0
0
VERTEX
8
0
10
103.778468520642
20
31.853046435487
30
0
0
VERTEX
8
0
10
105.896396449634
20
32.0901407654452
30
0
0
VERTEX
8
0
10
108.014324378627
20
32.3367713805049
30
0
0
VERTEX
8
0
10
110.13225230762
20
32.5824145033664
30
0
0
VERTEX
8
0
10
112.250180236612
20
32.7426901829649
30
0
0
VERTEX
8
0
10
114.368108165605
20
32.8346225487294
30
0
0
VERTEX
8
0
10
116.486036094598
20
32.8915913019579
30
0
0
VERTEX
8
0
10
118.60396402359
20
33.0485178303137
30
0
0
VERTEX
8
0
10
120.721891952583
20
33.0363923140031
30
0
0
VERTEX
8
0
10
122.839819881576
20
33.1509882162893
30
0
0
VERTEX
8
0
10
124.957747810568
20
33.227599456048
30
0
0
VERTEX
8
0
10
127.075675739561
20
33.2905902641802
30
0
0
VERTEX
8
0
10
129.193603668554
20
33.2884324100063
30
0
0
VERTEX
8
0
10
131.311531597546
20
33.4904861508152
30
0
0
VERTEX
8
0
10
133.429459526539
20
33.5085740587023
30
0
0
VERTEX
8
0
10
135.547387455532
20
33.5675994345115
30
0
0
VERTEX
8
0
10
137.665315384525
20
33.6428767155876
30
0
0
VERTEX
8
0
10
139.783243313517
20
33.7671138749468
30
0
0
VERTEX
8
0
10
141.90117124251
20
33.7587450307041
30
0
0
VERTEX
8
0
10
144.019099171503
20
33.8912999293516
30
0
0
VERTEX
8
0
10
146.137027100495
20
33.9599379428883
30
0
0
VERTEX
8
0
10
148.254955029488
20
33.9987165896185
30
0
0
VERTEX
8
0
10
150.372882958481
20
34.0392267126997
30
0
0
VERTEX
8
0
10
152.490810887473
20
34.2252956237811
30
0
0
VERTEX
8
0
10
154.608738816466
20
34.2300161516743
30
0
0
SEQEND
8
0
0
POLYLINE
8
0
62
4
70
0
10
0
20
0
30
0
0
VERTEX
8
0
10
23.2972072189195
20
18.1251801178979
30
0
0
VERTEX
8
0
10
25.4151351479122
20
19.4014240153405
30
0
0
VERTEX
8
0
10
27.5330630769049
20
20.6767725061492
30
0
0
VERTEX
8
0
10
29.6509910058976
20
21.9753746751945
30
0
0
VERTEX
8
0
10
31.7689189348903
20
23.2289139012811
30
0
0
VERTEX
8
0
10
33.886846863883
20
24.463672112137
30
0
0
VERTEX
8
0
10
36.0047747928756
20
25.7349213591365
30
0
0
VERTEX
8
0
10
38.1227027218683
20
26.9883448537312
30
0
0
VERTEX
8
0
10
40.240630650861
20
28.2004161519804
30
0
0
VERTEX
8
0
10
42.3585585798537
20
29.4425668029298
30
0
0
VERTEX
8
0
10
44.4764865088464
20
30.6740977099228
30
0
0
VERTEX
8
0
10
46.5944144378391
20
31.8528967383257
30
0
0
VERTEX
8
0
10
48.7123423668317
20
33.0604616860716
30
0
0
VERTEX
8
0
10
50.8302702958244
20
34.277191520768
30
0
0
VERTEX
8
0
10
52.9481982248171
20
35.4269264045126
30
0
0
VERTEX
8
0
10
55.0661261538098
20
36.5596726359457
30
0
0
VERTEX
8
0
10
57.1840540828025
20
37.7803145603988
30
0
0
VERTEX
8
0
10
59.3019820117952
20
38.8879183208237
30
0
0
VERTEX
8
0
10
61.4199099407879
20
39.9795493205645
30
0
0
VERTEX
8
0
10
63.5378378697806
20
41.1069008374928
30
0
0
VERTEX
8
0
10
65.6557657987732
20
42.1763882529394
30
0
0
VERTEX
8
0
10
67.7736937277659
20
42.9126734413115
30
0
0
VERTEX
8
0
10
69.8916216567586
20
43.6283921901359
30
0
0
VERTEX
8
0
10
72.0095495857513
20
44.3364726832604
30
0
0
VERTEX
8
0
10
74.127477514744
20
44.9975059407939
30
0
0
VERTEX
8
0
10
76.2454054437367
20
45.6250790222989
30
0
0
VERTEX
8
0
10
78.3633333727294
20
46.3092984277172
30
0
0
VERTEX
8
0
10
80.481261301722
20
46.9201845837352
30
0
0
VERTEX
8
0
10
82.5991892307147
20
47.5296556636121
30
0
0
VERTEX
8
0
10
84.7171171597074
20
48.1679165597108
30
0
0
VERTEX
8
0
10
86.8350450887001
20
48.7822045926322
30
0
0
VERTEX
8
0
10
88.9529730176928
20
49.3489717904386
30
0
0
VERTEX
8
0
10
91.0709009466855
20
49.9420914279047
30
0
0
VERTEX
8
0
10
93.1888288756782
20
50.5329279421344
30
0
0
VERTEX
8
0
10
95.3067568046708
20
51.0809045066948
30
0
0
VERTEX
8
0
10
97.4246847336635
20
51.6431947164545
30
0
0
VERTEX
8
0
10
99.5426126626562
20
52.2414124282824
30
0
0
VERTEX
8
0
10
101.660540591649
20
52.7617495559318
30
0
0
VERTEX
8
0
10
103.778468520642
20
53.2734510173319
30
0
0
VERTEX
8
0
10
105.896396449634
20
53.8118099552836
30
0
0
VERTEX
8
0
10
108.014324378627
20
54.3405759846294
30
0
0
VERTEX
8
0
10
110.13225230762
20
54.8392141804244
30
0
0
VERTEX
8
0
10
112.250180236612
20
55.2938557176214
30
0
0
VERTEX
8
0
10
114.368108165605
20
55.6958053365289
30
0
0
VERTEX
8
0
10
116.486036094598
20
56.0493510152755
30
0
0
VERTEX
8
0
10
118.60396402359
20
56.4654867862388
30
0
0
VERTEX
8
0
10
120.721891952583
20
56.7766795958552
30
0
0
VERTEX
8
0
10
122.839819881576
20
57.1392458304025
30
0
0
VERTEX
8
0
10
124.957747810568
20
57.468831949288
30
0
0
VERTEX
8
0
10
127.075675739561
20
57.7997890085656
30
0
0
VERTEX
8
0
10
129.193603668554
20
58.0798694254345
30
0
0
VERTEX
8
0
10
131.311531597546
20
58.4587058015989
30
0
0
VERTEX
8
0
10
133.429459526539
20
58.7370012656977
30
0
0
VERTEX
8
0
10
135.547387455532
20
59.0315673716529
30
0
0
VERTEX
8
0
10
137.665315384525
20
59.3114817411484
30
0
0
VERTEX
8
0
10
139.783243313517
20
59.6243201341532
30
0
0
VERTEX
8
0
10
141.90117124251
20
59.856597045099
30
0
0
VERTEX
8
0
10
144.019099171503
20
60.1462634975239
30
0
0
VERTEX
8
0
10
146.137027100495
20
60.3887456250697
30
0
0
VERTEX
8
0
10
148.254955029488
20
60.6217580299853
30
0
0
VERTEX
8
0
10
150.372882958481
20
60.8411802865066
30
0
0
VERTEX
8
0
10
152.490810887473
20
61.1197548669415
30
0
0
VERTEX
8
0
10
154.608738816466
20
61.2971572088955
30
0
0
SEQEND
8
0
0
POLYLINE
8
0
62
2
70
0
10
0
20
0
30
0
0
VERTEX
8
0
10
23.2972072189195
20
6.03446705117434
30
0
0
VERTEX
8
0
10
25.4151351479122
20
6.50643400072839
30
0
0
VERTEX
8
0
10
27.5330630769049
20
6.99069828698798
30
0
0
VERTEX
8
0
10
29.6509910058976
20
7.4953198845836
30
0
0
VERTEX
8
0
10
31.7689189348903
20
7.98051831258784
30
0
0
VERTEX
8
0
10
33.886846863883
20
8.424494070726
30
0
0
VERTEX
8
0
10
36.0047747928756
20
8.93555007902245
30
0
0
VERTEX
8
0
10
38.1227027218683
20
9.42247891236876
30
0
0
VERTEX
8
0
10
40.240630650861
20
9.89340563248933
30
0
0
VERTEX
8
0
10
42.3585585798537
20
10.3822221386794
30
0
0
VERTEX
8
0
10
44.4764865088464
20
10.8713517866364
30
0
0
VERTEX
8
0
10
46.5944144378391
20
11.3498328654256
30
0
0
VERTEX
8
0
10
48.7123423668317
20
11.8449886713718
30
0
0
VERTEX
8
0
10
50.8302702958244
20
12.3369381176011
30
0
0
VERTEX
8
0
10
52.9481982248171
20
12.7955718127259
30
0
0
VERTEX
8
0
10
55.0661261538098
20
13.2813779767525
30
0
0
VERTEX
8
0
10
57.1840540828025
20
13.7925655929716
30
0
0
VERTEX
8
0
10
59.3019820117952
20
14.2737300125967
30
0
0
VERTEX
8
0
10
61.4199099407879
20
14.7383492273704
30
0
0
VERTEX
8
0
10
63.5378378697806
20
15.2122836303846
30
0
0
VERTEX
8
0
10
65.6557657987732
20
15.7066902905863
30
0
0
VERTEX
8
0
10
67.7736937277659
20
16.0468267067713
30
0
0
VERTEX
8
0
10
69.8916216567586
20
16.3717851646488
30
0
0
VERTEX
8
0
10
72.0095495857513
20
16.6845040045397
30
0
0
VERTEX
8
0
10
74.127477514744
20
16.9716692167658
30
0
0
VERTEX
8
0
10
76.2454054437367
20
17.3085936329475
30
0
0
VERTEX
8
0
10
78.3633333727294
20
17.6248650411848
30
0
0
VERTEX
8
0
10
80.481261301722
20
17.926931121513
30
0
0
VERTEX
8
0
10
82.5991892307147
20
18.2438498560454
30
0
0
VERTEX
8
0
10
84.7171171597074
20
18.5838959635506
30
0
0
VERTEX
8
0
10
86.8350450887001
20
18.8613360642816
30
0
0
VERTEX
8
0
10
88.9529730176928
20
19.1995214727996
30
0
0
VERTEX
8
0
10
91.0709009466855
20
19.5066960953868
30
0
0
VERTEX
8
0
10
93.1888288756782
20
19.8247774364622
30
0
0
VERTEX
8
0
10
95.3067568046708
20
20.1292423297639
30
0
0
VERTEX
8
0
10
97.4246847336635
20
20.4473362053921
30
0
0
VERTEX
8
0
10
99.5426126626562
20
20.7849116642986
30
0
0
VERTEX
8
0
10
101.660540591649
20
21.0728867926214
30
0
0
VERTEX
8
0
10
103.778468520642
20
21.3848781358231
30
0
0
VERTEX
8
0
10
105.896396449634
20
21.7261652923972
30
0
0
VERTEX
8
0
10
108.014324378627
20
22.0273364107885
30
0
0
VERTEX
8
0
10
110.13225230762
20
22.3247741846606
30
0
0
VERTEX
8
0
10
112.250180236612
20
22.6011323291513
30
0
0
VERTEX
8
0
10
114.368108165605
20
22.6973518750945
30
0
0
VERTEX
8
0
10
116.486036094598
20
22.7138160234585
30
0
0
VERTEX
8
0
10
118.60396402359
20
22.8909459680654
30
0
0
VERTEX
8
0
10
120.721891952583
20
22.9464419263537
30
0
0
VERTEX
8
0
10
122.839819881576
20
22.986171495782
30
0
0
VERTEX
8
0
10
124.957747810568
20
23.1002075585429
30
0
0
VERTEX
8
0
10
127.075675739561
20
23.246390063329
30
0
0
VERTEX
8
0
10
129.193603668554
20
23.1925435107967
30
0
0
VERTEX
8
0
10
131.311531597546
20
23.356287739467
30
0
0
VERTEX
8
0
10
133.429459526539
20
23.4121885155517
30
0
0
VERTEX
8
0
10
135.547387455532
20
23.4697689801242
30
0
0
VERTEX
8
0
10
137.665315384525
20
23.5314639333898
30
0
0
VERTEX
8
0
10
139.783243313517
20
23.6863818597094
30
0
0
VERTEX
8
0
10
141.90117124251
20
23.6751954190309
30
0
0
VERTEX
8
0
10
144.019099171503
20
23.8241415113888
30
0
0
VERTEX
8
0
10
146.137027100495
20
23.8870717627549
30
0
0
VERTEX
8
0
10
148.254955029488
20
23.9443776742222
30
0
0
VERTEX
8
0
10
150.372882958481
20
24.0289820275624
30
0
0
VERTEX
8
0
10
152.490810887473
20
24.1447728547469
30
0
0
VERTEX
8
0
10
154.608738816466
20
24.145825546074
30
0
0
SEQEND
8
0
0
POLYLINE
8
0
62
3
70
0
10
0
20
0
30
0
0
VERTEX
8
0
10
23.2972072189195
20
9.72486677975855
30
0
0
VERTEX
8
0
10
25.4151351479122
20
10.5430703863982
30
0
0
VERTEX
8
0
10
27.5330630769049
20
11.3718348874577
30
0
0
VERTEX
8
0
10
29.6509910058976
20
12.213491209344
30
0
0
VERTEX
8
0
10
31.7689189348903
20
13.0302268553999
30
0
0
VERTEX
8
0
10
33.886846863883
20
13.8175710824001
30
0
0
VERTEX
8
0
10
36.0047747928756
20
14.6556133880808
30
0
0
VERTEX
8
0
10
38.1227027218683
20
15.4710329535227
30
0
0
VERTEX
8
0
10
40.240630650861
20
16.2649652709269
30
0
0
VERTEX
8
0
10
42.3585585798537
20
17.0781365523818
30
0
0
VERTEX
8
0
10
44.4764865088464
20
17.8871050149114
30
0
0
VERTEX
8
0
10
46.5944144378391
20
18.6739403057456
30
0
0
VERTEX
8
0
10
48.7123423668317
20
19.477930434226
30
0
0
VERTEX
8
0
10
50.8302702958244
20
20.2795047303048
30
0
0
VERTEX
8
0
10
52.9481982248171
20
21.0399922841605
30
0
0
VERTEX
8
0
10
55.0661261538098
20
21.8116757649725
30
0
0
VERTEX
8
0
10
57.1840540828025
20
22.6247041157424
30
0
0
VERTEX
8
0
10
59.3019820117952
20
23.3822210870801
30
0
0
VERTEX
8
0
10
61.4199099407879
20
24.1222925504755
30
0
0
VERTEX
8
0
10
63.5378378697806
20
24.8789717677482
30
0
0
VERTEX
8
0
10
65.6557657987732
20
25.637615834041
30
0
0
VERTEX
8
0
10
67.7736937277659
20
26.2758443982361
30
0
0
VERTEX
8
0
10
69.8916216567586
20
26.9098726891219
30
0
0
VERTEX
8
0
10
72.0095495857513
20
27.5319678586641
30
0
0
VERTEX
8
0
10
74.127477514744
20
28.1154027309657
30
0
0
VERTEX
8
0
10
76.2454054437367
20
28.7230624012001
30
0
0
VERTEX
8
0
10
78.3633333727294
20
29.3425655767804
30
0
0
VERTEX
8
0
10
80.481261301722
20
29.9167573541908
30
0
0
VERTEX
8
0
10
82.5991892307147
20
30.4932111455564
30
0
0
VERTEX
8
0
10
84.7171171597074
20
31.0967019271917
30
0
0
VERTEX
8
0
10
86.8350450887001
20
31.6521133107654
30
0
0
VERTEX
8
0
10
88.9529730176928
20
32.2231658601016
30
0
0
VERTEX
8
0
10
91.0709009466855
20
32.7853239595821
30
0
0
VERTEX
8
0
10
93.1888288756782
20
33.3508532833216
30
0
0
VERTEX
8
0
10
95.3067568046708
20
33.8818164525659
30
0
0
VERTEX
8
0
10
97.4246847336635
20
34.4138728824895
30
0
0
VERTEX
8
0
10
99.5426126626562
20
34.9891678204019
30
0
0
VERTEX
8
0
10
101.660540591649
20
35.4882612413372
30
0
0
VERTEX
8
0
10
103.778468520642
20
35.9933905164513
30
0
0
VERTEX
8
0
10
105.896396449634
20
36.5315869279542
30
0
0
VERTEX
8
0
10
108.014324378627
20
37.0302930576381
30
0
0
VERTEX
8
0
10
110.13225230762
20
37.498877914618
30
0
0
VERTEX
8
0
10
112.250180236612
20
37.9620658625234
30
0
0
VERTEX
8
0
10
114.368108165605
20
38.3018675649441
30
0
0
VERTEX
8
0
10
116.486036094598
20
38.5704289987168
30
0
0
VERTEX
8
0
10
118.60396402359
20
38.9362301214944
30
0
0
VERTEX
8
0
10
120.721891952583
20
39.2252155092983
30
0
0
VERTEX
8
0
10
122.839819881576
20
39.4835572894079
30
0
0
VERTEX
8
0
10
124.957747810568
20
39.7765713625448
30
0
0
VERTEX
8
0
10
127.075675739561
20
40.0985006212812
30
0
0
VERTEX
8
0
10
129.193603668554
20
40.2886268193537
30
0
0
VERTEX
8
0
10
131.311531597546
20
40.5910334495113
30
0
0
VERTEX
8
0
10
133.429459526539
20
40.8352773685819
30
0
0
VERTEX
8
0
10
135.547387455532
20
41.0737765939504
30
0
0
VERTEX
8
0
10
137.665315384525
20
41.2960643335492
30
0
0
VERTEX
8
0
10
139.783243313517
20
41.5761557168052
30
0
0
VERTEX
8
0
10
141.90117124251
20
41.7556732639699
30
0
0
VERTEX
8
0
10
144.019099171503
20
42.0102695102958
30
0
0
VERTEX
8
0
10
146.137027100495
20
42.2059899433334
30
0
0
VERTEX
8
0
10
148.254955029488
20
42.4044633485068
30
0
0
VERTEX
8
0
10
150.372882958481
20
42.60672954937
30
0
0
VERTEX
8
0
10
152.490810887473
20
42.8078377988559
30
0
0
VERTEX
8
0
10
154.608738816466
20
42.9435032748586
30
0
0
SEQEND
8
0
0
POLYLINE
8
0
62
4
70
0
10
0
20
0
30
0
0
VERTEX
8
0
10
23.2972072189195
20
9.72486677975855
30
0
0
VERTEX
8
0
10
25.4151351479122
20
10.5430703863982
30
0
0
VERTEX
8
0
10
27.5330630769049
20
11.3718348874577
30
0
0
VERTEX
8
0
10
29.6509910058976
20
12.213491209344
30
0
0
VERTEX
8
0
10
31.7689189348903
20
13.0302268553999
30
0
0
VERTEX
8
0
10
33.886846863883
20
13.8175710824001
30
0
0
VERTEX
8
0
10
36.0047747928756
20
14.6556133880808
30
0
0
VERTEX
8
0
10
38.1227027218683
20
15.4710329535227
30
0
0
VERTEX
8
0
10
40.240630650861
20
16.2649652709269
30
0
0
VERTEX
8
0
10
42.3585585798537
20
17.0781365523818
30
0
0
VERTEX
8
0
10
44.4764865088464
20
17.8871050149114
30
0
0
VERTEX
8
0
10
46.5944144378391
20
18.6739403057456
30
0
0
VERTEX
8
0
10
48.7123423668317
20
19.477930434226
30
0
0
VERTEX
8
0
10
50.8302702958244
20
20.2795047303048
30
0
0
VERTEX
8
0
10
52.9481982248171
20
21.0399922841605
30
0
0
VERTEX
8
0
10
55.0661261538098
20
21.8116757649725
30
0
0
VERTEX
8
0
10
57.1840540828025
20
22.6247041157424
30
0
0
VERTEX
8
0
10
59.3019820117952
20
23.3822210870801
30
0
0
VERTEX
8
0
10
61.4199099407879
20
24.1222925504755
30
0
0
VERTEX
8
0
10
63.5378378697806
20
24.8789717677482
30
0
0
VERTEX
8
0
10
65.6557657987732
20
25.637615834041
30
0
0
VERTEX
8
0
10
67.7736937277659
20
26.2758443982361
30
0
0
VERTEX
8
0
10
69.8916216567586
20
26.9098726891219
30
0
0
VERTEX
8
0
10
72.0095495857513
20
27.5319678586641
30
0
0
VERTEX
8
0
10
74.127477514744
20
28.1154027309657
30
0
0
VERTEX
8
0
10
76.2454054437367
20
28.7230624012001
30
0
0
VERTEX
8
0
10
78.3633333727294
20
29.3425655767804
30
0
0
VERTEX
8
0
10
80.481261301722
20
29.9167573541908
30
0
0
VERTEX
8
0
10
82.5991892307147
20
30.4932111455564
30
0
0
VERTEX
8
0
10
84.7171171597074
20
31.0967019271917
30
0
0
VERTEX
8
0
10
86.8350450887001
20
31.6521133107654
30
0
0
VERTEX
8
0
10
88.9529730176928
20
32.2231658601016
30
0
0
VERTEX
8
0
10
91.0709009466855
20
32.7853239595821
30
0
0
VERTEX
8
0
10
93.1888288756782
20
33.3508532833216
30
0
0
VERTEX
8
0
10
95.3067568046708
20
33.8818164525659
30
0
0
VERTEX
8
0
10
97.4246847336635
20
34.4138728824895
30
0
0
VERTEX
8
0
10
99.5426126626562
20
34.9891678204019
30
0
0
VERTEX
8
0
10
101.660540591649
20
35.4882612413372
30
0
0
VERTEX
8
0
10
103.778468520642
20
35.9933905164513
30
0
0
VERTEX
8
0
10
105.896396449634
20
36.5315869279542
30
0
0
VERTEX
8
0
10
108.014324378627
20
37.0302930576381
30
0
0
VERTEX
8
0
10
110.13225230762
20
37.498877914618
30
0
0
VERTEX
8
0
10
112.250180236612
20
37.9620658625234
30
0
0
VERTEX
8
0
10
114.368108165605
20
38.3018675649441
30
0
0
VERTEX
8
0
10
116.486036094598
20
38.5704289987168
30
0
0
VERTEX
8
0
10
118.60396402359
20
38.9362301214944
30
0
0
VERTEX
8
0
10
120.721891952583
20
39.2252155092983
30
0
0
VERTEX
8
0
10
122.839819881576
20
39.4835572894079
30
0
0
VERTEX
8
0
10
124.957747810568
20
39.7765713625448
30
0
0
VERTEX
8
0
10
127.075675739561
20
40.0985006212812
30
0
0
VERTEX
8
0
10
129.193603668554
20
40.2886268193537
30
0
0
VERTEX
8
0
10
131.311531597546
20
40.5910334495113
30
0
0
VERTEX
8
0
10
133.429459526539
20
40.8352773685819
30
0
0
VERTEX
8
0
10
135.547387455532
20
41.0737765939504
30
0
0
VERTEX
8
0
10
137.665315384525
20
41.2960643335492
30
0
0
VERTEX
8
0
10
139.783243313517
20
41.5761557168052
30
0
0
VERTEX
8
0
10
141.90117124251
20
41.7556732639699
30
0
0
VERTEX
8
0
10
144.019099171503
20
42.0102695102958
30
0
0
VERTEX
8
0
10
146.137027100495
20
42.2059899433334
30
0
0
VERTEX
8
0
10
148.254955029488
20
42.4044633485068
30
0
0
VERTEX
8
0
10
150.372882958481
20
42.60672954937
30
0
0
VERTEX
8
0
10
152.490810887473
20
42.8078377988559
30
0
0
VERTEX
8
0
10
154.608738816466
20
42.9435032748586
30
0
0
SEQEND
8
0
0
ENDSEC
0
EOF
