0
SECTION
2
HEADER
9
$ACADVER
1
AC1009
0
ENDSEC
0
SECTION
2
ENTITIES
0
POLYLINE
8
0
62
0
70
1
10
0
20
0
30
0
0
VERTEX
8
0
10
0
20
0
30
0
0
VERTEX
8
0
10
0
20
209.447
30
0
0
VERTEX
8
0
10
301.401
20
209.447
30
0
0
VERTEX
8
0
10
301.401
20
0
30
0
0
SEQEND
8
0
0
TEXT
8
0
62
0
10
0
20
-12
30
0
40
8
1
0
50
0
0
LINE
8
0
62
0
10
4.29763459062493
20
0
30
0
11
4.29763459062493
21
3.2
31
0
0
LINE
8
0
62
0
10
4.29763459062493
20
209.447
30
0
11
4.29763459062493
21
206.247
31
0
0
LINE
8
0
62
0
10
8.59526918124986
20
0
30
0
11
8.59526918124986
21
3.2
31
0
0
LINE
8
0
62
0
10
8.59526918124986
20
209.447
30
0
11
8.59526918124986
21
206.247
31
0
0
LINE
8
0
62
0
10
12.8929037718748
20
0
30
0
11
12.8929037718748
21
3.2
31
0
0
LINE
8
0
62
0
10
12.8929037718748
20
209.447
30
0
11
12.8929037718748
21
206.247
31
0
0
LINE
8
0
62
0
10
17.1905383624997
20
0
30
0
11
17.1905383624997
21
3.2
31
0
0
LINE
8
0
62
0
10
17.1905383624997
20
209.447
30
0
11
17.1905383624997
21
206.247
31
0
0
LINE
8
0
62
0
10
21.4881729531246
20
0
30
0
11
21.4881729531246
21
6.4
31
0
0
LINE
8
0
62
0
10
21.4881729531246
20
209.447
30
0
11
21.4881729531246
21
203.047
31
0
0
TEXT
8
0
62
0
10
21.4881729531246
20
-12
30
0
40
8
1
10
50
0
0
LINE
8
0
62
0
10
25.7858075437496
20
0
30
0
11
25.7858075437496
21
3.2
31
0
0
LINE
8
0
62
0
10
25.7858075437496
20
209.447
30
0
11
25.7858075437496
21
206.247
31
0
0
LINE
8
0
62
0
10
30.0834421343745
20
0
30
0
11
30.0834421343745
21
3.2
31
0
0
LINE
8
0
62
0
10
30.0834421343745
20
209.447
30
0
11
30.0834421343745
21
206.247
31
0
0
LINE
8
0
62
0
10
34.3810767249994
20
0
30
0
11
34.3810767249994
21
3.2
31
0
0
LINE
8
0
62
0
10
34.3810767249994
20
209.447
30
0
11
34.3810767249994
21
206.247
31
0
0
LINE
8
0
62
0
10
38.6787113156244
20
0
30
0
11
38.6787113156244
21
3.2
31
0
0
LINE
8
0
62
0
10
38.6787113156244
20
209.447
30
0
11
38.6787113156244
21
206.247
31
0
0
LINE
8
0
62
0
10
42.9763459062493
20
0
30
0
11
42.9763459062493
21
6.4
31
0
0
LINE
8
0
62
0
10
42.9763459062493
20
209.447
30
0
11
42.9763459062493
21
203.047
31
0
0
TEXT
8
0
62
0
10
42.9763459062493
20
-12
30
0
40
8
1
20
50
0
0
LINE
8
0
62
0
10
47.2739804968742
20
0
30
0
11
47.2739804968742
21
3.2
31
0
0
LINE
8
0
62
0
10
47.2739804968742
20
209.447
30
0
11
47.2739804968742
21
206.247
31
0
0
LINE
8
0
62
0
10
51.5716150874992
20
0
30
0
11
51.5716150874992
21
3.2
31
0
0
LINE
8
0
62
0
10
51.5716150874992
20
209.447
30
0
11
51.5716150874992
21
206.247
31
0
0
LINE
8
0
62
0
10
55.8692496781241
20
0
30
0
11
55.8692496781241
21
3.2
31
0
0
LINE
8
0
62
0
10
55.8692496781241
20
209.447
30
0
11
55.8692496781241
21
206.247
31
0
0
LINE
8
0
62
0
10
60.166884268749
20
0
30
0
11
60.166884268749
21
3.2
31
0
0
LINE
8
0
62
0
10
60.166884268749
20
209.447
30
0
11
60.166884268749
21
206.247
31
0
0
LINE
8
0
62
0
10
64.464518859374
20
0
30
0
11
64.464518859374
21
6.4
31
0
0
LINE
8
0
62
0
10
64.464518859374
20
209.447
30
0
11
64.464518859374
21
203.047
31
0
0
TEXT
8
0
62
0
10
64.464518859374
20
-12
30
0
40
8
1
30
50
0
0
LINE
8
0
62
0
10
68.7621534499989
20
0
30
0
11
68.7621534499989
21
3.2
31
0
0
LINE
8
0
62
0
10
68.7621534499989
20
209.447
30
0
11
68.7621534499989
21
206.247
31
0
0
LINE
8
0
62
0
10
73.0597880406238
20
0
30
0
11
73.0597880406238
21
3.2
31
0
0
LINE
8
0
62
0
10
73.0597880406238
20
209.447
30
0
11
73.0597880406238
21
206.247
31
0
0
LINE
8
0
62
0
10
77.3574226312487
20
0
30
0
11
77.3574226312487
21
3.2
31
0
0
LINE
8
0
62
0
10
77.3574226312487
20
209.447
30
0
11
77.3574226312487
21
206.247
31
0
0
LINE
8
0
62
0
10
81.6550572218736
20
0
30
0
11
81.6550572218736
21
3.2
31
0
0
LINE
8
0
62
0
10
81.6550572218736
20
209.447
30
0
11
81.6550572218736
21
206.247
31
0
0
LINE
8
0
62
0
10
85.9526918124986
20
0
30
0
11
85.9526918124986
21
6.4
31
0
0
LINE
8
0
62
0
10
85.9526918124986
20
209.447
30
0
11
85.9526918124986
21
203.047
31
0
0
TEXT
8
0
62
0
10
85.9526918124986
20
-12
30
0
40
8
1
40
50
0
0
LINE
8
0
62
0
10
90.2503264031235
20
0
30
0
11
90.2503264031235
21
3.2
31
0
0
LINE
8
0
62
0
10
90.2503264031235
20
209.447
30
0
11
90.2503264031235
21
206.247
31
0
0
LINE
8
0
62
0
10
94.5479609937484
20
0
30
0
11
94.5479609937484
21
3.2
31
0
0
LINE
8
0
62
0
10
94.5479609937484
20
209.447
30
0
11
94.5479609937484
21
206.247
31
0
0
LINE
8
0
62
0
10
98.8455955843733
20
0
30
0
11
98.8455955843733
21
3.2
31
0
0
LINE
8
0
62
0
10
98.8455955843733
20
209.447
30
0
11
98.8455955843733
21
206.247
31
0
0
LINE
8
0
62
0
10
103.143230174998
20
0
30
0
11
103.143230174998
21
3.2
31
0
0
LINE
8
0
62
0
10
103.143230174998
20
209.447
30
0
11
103.143230174998
21
206.247
31
0
0
LINE
8
0
62
0
10
107.440864765623
20
0
30
0
11
107.440864765623
21
6.4
31
0
0
LINE
8
0
62
0
10
107.440864765623
20
209.447
30
0
11
107.440864765623
21
203.047
31
0
0
TEXT
8
0
62
0
10
107.440864765623
20
-12
30
0
40
8
1
50
50
0
0
LINE
8
0
62
0
10
111.738499356248
20
0
30
0
11
111.738499356248
21
3.2
31
0
0
LINE
8
0
62
0
10
111.738499356248
20
209.447
30
0
11
111.738499356248
21
206.247
31
0
0
LINE
8
0
62
0
10
116.036133946873
20
0
30
0
11
116.036133946873
21
3.2
31
0
0
LINE
8
0
62
0
10
116.036133946873
20
209.447
30
0
11
116.036133946873
21
206.247
31
0
0
LINE
8
0
62
0
10
120.333768537498
20
0
30
0
11
120.333768537498
21
3.2
31
0
0
LINE
8
0
62
0
10
120.333768537498
20
209.447
30
0
11
120.333768537498
21
206.247
31
0
0
LINE
8
0
62
0
10
124.631403128123
20
0
30
0
11
124.631403128123
21
3.2
31
0
0
LINE
8
0
62
0
10
124.631403128123
20
209.447
30
0
11
124.631403128123
21
206.247
31
0
0
LINE
8
0
62
0
10
128.929037718748
20
0
30
0
11
128.929037718748
21
6.4
31
0
0
LINE
8
0
62
0
10
128.929037718748
20
209.447
30
0
11
128.929037718748
21
203.047
31
0
0
TEXT
8
0
62
0
10
128.929037718748
20
-12
30
0
40
8
1
60
50
0
0
LINE
8
0
62
0
10
133.226672309373
20
0
30
0
11
133.226672309373
21
3.2
31
0
0
LINE
8
0
62
0
10
133.226672309373
20
209.447
30
0
11
133.226672309373
21
206.247
31
0
0
LINE
8
0
62
0
10
137.524306899998
20
0
30
0
11
137.524306899998
21
3.2
31
0
0
LINE
8
0
62
0
10
137.524306899998
20
209.447
30
0
11
137.524306899998
21
206.247
31
0
0
LINE
8
0
62
0
10
141.821941490623
20
0
30
0
11
141.821941490623
21
3.2
31
0
0
LINE
8
0
62
0
10
141.821941490623
20
209.447
30
0
11
141.821941490623
21
206.247
31
0
0
LINE
8
0
62
0
10
146.119576081248
20
0
30
0
11
146.119576081248
21
3.2
31
0
0
LINE
8
0
62
0
10
146.119576081248
20
209.447
30
0
11
146.119576081248
21
206.247
31
0
0
LINE
8
0
62
0
10
150.417210671873
20
0
30
0
11
150.417210671873
21
6.4
31
0
0
LINE
8
0
62
0
10
150.417210671873
20
209.447
30
0
11
150.417210671873
21
203.047
31
0
0
TEXT
8
0
62
0
10
150.417210671873
20
-12
30
0
40
8
1
70
50
0
0
LINE
8
0
62
0
10
154.714845262497
20
0
30
0
11
154.714845262497
21
3.2
31
0
0
LINE
8
0
62
0
10
154.714845262497
20
209.447
30
0
11
154.714845262497
21
206.247
31
0
0
LINE
8
0
62
0
10
159.012479853122
20
0
30
0
11
159.012479853122
21
3.2
31
0
0
LINE
8
0
62
0
10
159.012479853122
20
209.447
30
0
11
159.012479853122
21
206.247
31
0
0
LINE
8
0
62
0
10
163.310114443747
20
0
30
0
11
163.310114443747
21
3.2
31
0
0
LINE
8
0
62
0
10
163.310114443747
20
209.447
30
0
11
163.310114443747
21
206.247
31
0
0
LINE
8
0
62
0
10
167.607749034372
20
0
30
0
11
167.607749034372
21
3.2
31
0
0
LINE
8
0
62
0
10
167.607749034372
20
209.447
30
0
11
167.607749034372
21
206.247
31
0
0
LINE
8
0
62
0
10
171.905383624997
20
0
30
0
11
171.905383624997
21
6.4
31
0
0
LINE
8
0
62
0
10
171.905383624997
20
209.447
30
0
11
171.905383624997
21
203.047
31
0
0
TEXT
8
0
62
0
10
171.905383624997
20
-12
30
0
40
8
1
80
50
0
0
LINE
8
0
62
0
10
176.203018215622
20
0
30
0
11
176.203018215622
21
3.2
31
0
0
LINE
8
0
62
0
10
176.203018215622
20
209.447
30
0
11
176.203018215622
21
206.247
31
0
0
LINE
8
0
62
0
10
180.500652806247
20
0
30
0
11
180.500652806247
21
3.2
31
0
0
LINE
8
0
62
0
10
180.500652806247
20
209.447
30
0
11
180.500652806247
21
206.247
31
0
0
LINE
8
0
62
0
10
184.798287396872
20
0
30
0
11
184.798287396872
21
3.2
31
0
0
LINE
8
0
62
0
10
184.798287396872
20
209.447
30
0
11
184.798287396872
21
206.247
31
0
0
LINE
8
0
62
0
10
189.095921987497
20
0
30
0
11
189.095921987497
21
3.2
31
0
0
LINE
8
0
62
0
10
189.095921987497
20
209.447
30
0
11
189.095921987497
21
206.247
31
0
0
LINE
8
0
62
0
10
193.393556578122
20
0
30
0
11
193.393556578122
21
6.4
31
0
0
LINE
8
0
62
0
10
193.393556578122
20
209.447
30
0
11
193.393556578122
21
203.047
31
0
0
TEXT
8
0
62
0
10
193.393556578122
20
-12
30
0
40
8
1
90
50
0
0
LINE
8
0
62
0
10
197.691191168747
20
0
30
0
11
197.691191168747
21
3.2
31
0
0
LINE
8
0
62
0
10
197.691191168747
20
209.447
30
0
11
197.691191168747
21
206.247
31
0
0
LINE
8
0
62
0
10
201.988825759372
20
0
30
0
11
201.988825759372
21
3.2
31
0
0
LINE
8
0
62
0
10
201.988825759372
20
209.447
30
0
11
201.988825759372
21
206.247
31
0
0
LINE
8
0
62
0
10
206.286460349997
20
0
30
0
11
206.286460349997
21
3.2
31
0
0
LINE
8
0
62
0
10
206.286460349997
20
209.447
30
0
11
206.286460349997
21
206.247
31
0
0
LINE
8
0
62
0
10
210.584094940622
20
0
30
0
11
210.584094940622
21
3.2
31
0
0
LINE
8
0
62
0
10
210.584094940622
20
209.447
30
0
11
210.584094940622
21
206.247
31
0
0
LINE
8
0
62
0
10
214.881729531247
20
0
30
0
11
214.881729531247
21
6.4
31
0
0
LINE
8
0
62
0
10
214.881729531247
20
209.447
30
0
11
214.881729531247
21
203.047
31
0
0
TEXT
8
0
62
0
10
214.881729531247
20
-12
30
0
40
8
1
100
50
0
0
LINE
8
0
62
0
10
219.179364121872
20
0
30
0
11
219.179364121872
21
3.2
31
0
0
LINE
8
0
62
0
10
219.179364121872
20
209.447
30
0
11
219.179364121872
21
206.247
31
0
0
LINE
8
0
62
0
10
223.476998712496
20
0
30
0
11
223.476998712496
21
3.2
31
0
0
LINE
8
0
62
0
10
223.476998712496
20
209.447
30
0
11
223.476998712496
21
206.247
31
0
0
LINE
8
0
62
0
10
227.774633303121
20
0
30
0
11
227.774633303121
21
3.2
31
0
0
LINE
8
0
62
0
10
227.774633303121
20
209.447
30
0
11
227.774633303121
21
206.247
31
0
0
LINE
8
0
62
0
10
232.072267893746
20
0
30
0
11
232.072267893746
21
3.2
31
0
0
LINE
8
0
62
0
10
232.072267893746
20
209.447
30
0
11
232.072267893746
21
206.247
31
0
0
LINE
8
0
62
0
10
236.369902484371
20
0
30
0
11
236.369902484371
21
6.4
31
0
0
LINE
8
0
62
0
10
236.369902484371
20
209.447
30
0
11
236.369902484371
21
203.047
31
0
0
TEXT
8
0
62
0
10
236.369902484371
20
-12
30
0
40
8
1
110
50
0
0
LINE
8
0
62
0
10
240.667537074996
20
0
30
0
11
240.667537074996
21
3.2
31
0
0
LINE
8
0
62
0
10
240.667537074996
20
209.447
30
0
11
240.667537074996
21
206.247
31
0
0
LINE
8
0
62
0
10
244.965171665621
20
0
30
0
11
244.965171665621
21
3.2
31
0
0
LINE
8
0
62
0
10
244.965171665621
20
209.447
30
0
11
244.965171665621
21
206.247
31
0
0
LINE
8
0
62
0
10
249.262806256246
20
0
30
0
11
249.262806256246
21
3.2
31
0
0
LINE
8
0
62
0
10
249.262806256246
20
209.447
30
0
11
249.262806256246
21
206.247
31
0
0
LINE
8
0
62
0
10
253.560440846871
20
0
30
0
11
253.560440846871
21
3.2
31
0
0
LINE
8
0
62
0
10
253.560440846871
20
209.447
30
0
11
253.560440846871
21
206.247
31
0
0
LINE
8
0
62
0
10
257.858075437496
20
0
30
0
11
257.858075437496
21
6.4
31
0
0
LINE
8
0
62
0
10
257.858075437496
20
209.447
30
0
11
257.858075437496
21
203.047
31
0
0
TEXT
8
0
62
0
10
257.858075437496
20
-12
30
0
40
8
1
120
50
0
0
LINE
8
0
62
0
10
262.155710028121
20
0
30
0
11
262.155710028121
21
3.2
31
0
0
LINE
8
0
62
0
10
262.155710028121
20
209.447
30
0
11
262.155710028121
21
206.247
31
0
0
LINE
8
0
62
0
10
266.453344618746
20
0
30
0
11
266.453344618746
21
3.2
31
0
0
LINE
8
0
62
0
10
266.453344618746
20
209.447
30
0
11
266.453344618746
21
206.247
31
0
0
LINE
8
0
62
0
10
270.750979209371
20
0
30
0
11
270.750979209371
21
3.2
31
0
0
LINE
8
0
62
0
10
270.750979209371
20
209.447
30
0
11
270.750979209371
21
206.247
31
0
0
LINE
8
0
62
0
10
275.048613799996
20
0
30
0
11
275.048613799996
21
3.2
31
0
0
LINE
8
0
62
0
10
275.048613799996
20
209.447
30
0
11
275.048613799996
21
206.247
31
0
0
LINE
8
0
62
0
10
279.34624839062
20
0
30
0
11
279.34624839062
21
6.4
31
0
0
LINE
8
0
62
0
10
279.34624839062
20
209.447
30
0
11
279.34624839062
21
203.047
31
0
0
TEXT
8
0
62
0
10
279.34624839062
20
-12
30
0
40
8
1
130
50
0
0
LINE
8
0
62
0
10
283.643882981245
20
0
30
0
11
283.643882981245
21
3.2
31
0
0
LINE
8
0
62
0
10
283.643882981245
20
209.447
30
0
11
283.643882981245
21
206.247
31
0
0
LINE
8
0
62
0
10
287.94151757187
20
0
30
0
11
287.94151757187
21
3.2
31
0
0
LINE
8
0
62
0
10
287.94151757187
20
209.447
30
0
11
287.94151757187
21
206.247
31
0
0
LINE
8
0
62
0
10
292.239152162495
20
0
30
0
11
292.239152162495
21
3.2
31
0
0
LINE
8
0
62
0
10
292.239152162495
20
209.447
30
0
11
292.239152162495
21
206.247
31
0
0
LINE
8
0
62
0
10
296.53678675312
20
0
30
0
11
296.53678675312
21
3.2
31
0
0
LINE
8
0
62
0
10
296.53678675312
20
209.447
30
0
11
296.53678675312
21
206.247
31
0
0
LINE
8
0
62
0
10
300.834421343745
20
0
30
0
11
300.834421343745
21
6.4
31
0
0
LINE
8
0
62
0
10
300.834421343745
20
209.447
30
0
11
300.834421343745
21
203.047
31
0
0
TEXT
8
0
62
0
10
300.834421343745
20
-12
30
0
40
8
1
140
50
0
0
TEXT
8
0
62
0
10
-4
20
-4
30
0
40
8
1
0
50
0
0
LINE
8
0
62
0
10
0
20
7.2168919521216
30
0
11
3.2
21
7.2168919521216
31
0
0
LINE
8
0
62
0
10
301.401
20
7.2168919521216
30
0
11
298.201
21
7.2168919521216
31
0
0
LINE
8
0
62
0
10
0
20
14.4337839042432
30
0
11
3.2
21
14.4337839042432
31
0
0
LINE
8
0
62
0
10
301.401
20
14.4337839042432
30
0
11
298.201
21
14.4337839042432
31
0
0
LINE
8
0
62
0
10
0
20
21.6506758563648
30
0
11
3.2
21
21.6506758563648
31
0
0
LINE
8
0
62
0
10
301.401
20
21.6506758563648
30
0
11
298.201
21
21.6506758563648
31
0
0
LINE
8
0
62
0
10
0
20
28.8675678084864
30
0
11
3.2
21
28.8675678084864
31
0
0
LINE
8
0
62
0
10
301.401
20
28.8675678084864
30
0
11
298.201
21
28.8675678084864
31
0
0
LINE
8
0
62
0
10
0
20
36.084459760608
30
0
11
6.4
21
36.084459760608
31
0
0
LINE
8
0
62
0
10
301.401
20
36.084459760608
30
0
11
295.001
21
36.084459760608
31
0
0
TEXT
8
0
62
0
10
-4
20
32.084459760608
30
0
40
8
1
50
50
0
0
LINE
8
0
62
0
10
0
20
43.3013517127296
30
0
11
3.2
21
43.3013517127296
31
0
0
LINE
8
0
62
0
10
301.401
20
43.3013517127296
30
0
11
298.201
21
43.3013517127296
31
0
0
LINE
8
0
62
0
10
0
20
50.5182436648512
30
0
11
3.2
21
50.5182436648512
31
0
0
LINE
8
0
62
0
10
301.401
20
50.5182436648512
30
0
11
298.201
21
50.5182436648512
31
0
0
LINE
8
0
62
0
10
0
20
57.7351356169728
30
0
11
3.2
21
57.7351356169728
31
0
0
LINE
8
0
62
0
10
301.401
20
57.7351356169728
30
0
11
298.201
21
57.7351356169728
31
0
0
LINE
8
0
62
0
10
0
20
64.9520275690944
30
0
11
3.2
21
64.9520275690944
31
0
0
LINE
8
0
62
0
10
301.401
20
64.9520275690944
30
0
11
298.201
21
64.9520275690944
31
0
0
LINE
8
0
62
0
10
0
20
72.168919521216
30
0
11
6.4
21
72.168919521216
31
0
0
LINE
8
0
62
0
10
301.401
20
72.168919521216
30
0
11
295.001
21
72.168919521216
31
0
0
TEXT
8
0
62
0
10
-4
20
68.168919521216
30
0
40
8
1
100
50
0
0
LINE
8
0
62
0
10
0
20
79.3858114733376
30
0
11
3.2
21
79.3858114733376
31
0
0
LINE
8
0
62
0
10
301.401
20
79.3858114733376
30
0
11
298.201
21
79.3858114733376
31
0
0
LINE
8
0
62
0
10
0
20
86.6027034254592
30
0
11
3.2
21
86.6027034254592
31
0
0
LINE
8
0
62
0
10
301.401
20
86.6027034254592
30
0
11
298.201
21
86.6027034254592
31
0
0
LINE
8
0
62
0
10
0
20
93.8195953775808
30
0
11
3.2
21
93.8195953775808
31
0
0
LINE
8
0
62
0
10
301.401
20
93.8195953775808
30
0
11
298.201
21
93.8195953775808
31
0
0
LINE
8
0
62
0
10
0
20
101.036487329702
30
0
11
3.2
21
101.036487329702
31
0
0
LINE
8
0
62
0
10
301.401
20
101.036487329702
30
0
11
298.201
21
101.036487329702
31
0
0
LINE
8
0
62
0
10
0
20
108.253379281824
30
0
11
6.4
21
108.253379281824
31
0
0
LINE
8
0
62
0
10
301.401
20
108.253379281824
30
0
11
295.001
21
108.253379281824
31
0
0
TEXT
8
0
62
0
10
-4
20
104.253379281824
30
0
40
8
1
150
50
0
0
LINE
8
0
62
0
10
0
20
115.470271233946
30
0
11
3.2
21
115.470271233946
31
0
0
LINE
8
0
62
0
10
301.401
20
115.470271233946
30
0
11
298.201
21
115.470271233946
31
0
0
LINE
8
0
62
0
10
0
20
122.687163186067
30
0
11
3.2
21
122.687163186067
31
0
0
LINE
8
0
62
0
10
301.401
20
122.687163186067
30
0
11
298.201
21
122.687163186067
31
0
0
LINE
8
0
62
0
10
0
20
129.904055138189
30
0
11
3.2
21
129.904055138189
31
0
0
LINE
8
0
62
0
10
301.401
20
129.904055138189
30
0
11
298.201
21
129.904055138189
31
0
0
LINE
8
0
62
0
10
0
20
137.12094709031
30
0
11
3.2
21
137.12094709031
31
0
0
LINE
8
0
62
0
10
301.401
20
137.12094709031
30
0
11
298.201
21
137.12094709031
31
0
0
LINE
8
0
62
0
10
0
20
144.337839042432
30
0
11
6.4
21
144.337839042432
31
0
0
LINE
8
0
62
0
10
301.401
20
144.337839042432
30
0
11
295.001
21
144.337839042432
31
0
0
TEXT
8
0
62
0
10
-4
20
140.337839042432
30
0
40
8
1
200
50
0
0
LINE
8
0
62
0
10
0
20
151.554730994554
30
0
11
3.2
21
151.554730994554
31
0
0
LINE
8
0
62
0
10
301.401
20
151.554730994554
30
0
11
298.201
21
151.554730994554
31
0
0
LINE
8
0
62
0
10
0
20
158.771622946675
30
0
11
3.2
21
158.771622946675
31
0
0
LINE
8
0
62
0
10
301.401
20
158.771622946675
30
0
11
298.201
21
158.771622946675
31
0
0
LINE
8
0
62
0
10
0
20
165.988514898797
30
0
11
3.2
21
165.988514898797
31
0
0
LINE
8
0
62
0
10
301.401
20
165.988514898797
30
0
11
298.201
21
165.988514898797
31
0
0
LINE
8
0
62
0
10
0
20
173.205406850919
30
0
11
3.2
21
173.205406850919
31
0
0
LINE
8
0
62
0
10
301.401
20
173.205406850919
30
0
11
298.201
21
173.205406850919
31
0
0
LINE
8
0
62
0
10
0
20
180.42229880304
30
0
11
6.4
21
180.42229880304
31
0
0
LINE
8
0
62
0
10
301.401
20
180.42229880304
30
0
11
295.001
21
180.42229880304
31
0
0
TEXT
8
0
62
0
10
-4
20
176.42229880304
30
0
40
8
1
250
50
0
0
LINE
8
0
62
0
10
0
20
187.639190755162
30
0
11
3.2
21
187.639190755162
31
0
0
LINE
8
0
62
0
10
301.401
20
187.639190755162
30
0
11
298.201
21
187.639190755162
31
0
0
LINE
8
0
62
0
10
0
20
194.856082707283
30
0
11
3.2
21
194.856082707283
31
0
0
LINE
8
0
62
0
10
301.401
20
194.856082707283
30
0
11
298.201
21
194.856082707283
31
0
0
LINE
8
0
62
0
10
0
20
202.072974659405
30
0
11
3.2
21
202.072974659405
31
0
0
LINE
8
0
62
0
10
301.401
20
202.072974659405
30
0
11
298.201
21
202.072974659405
31
0
0
LINE
8
0
62
0
10
0
20
209.289866611527
30
0
11
3.2
21
209.289866611527
31
0
0
LINE
8
0
62
0
10
301.401
20
209.289866611527
30
0
11
298.201
21
209.289866611527
31
0
0
TEXT
8
0
62
0
10
150.7005
20
-32
30
0
40
10
1
R (kpc)
50
0
0
TEXT
8
0
62
0
10
-24
20
104.7235
30
0
40
10
1
V (km/s)
50
90
0
TEXT
8
0
62
0
10
133.7005
20
224.447
30
0
40
11
1
V vs. R
50
0
0
POLYLINE
8
0
62
6
70
0
10
0
20
0
30
0
0
VERTEX
8
0
10
0.257858075437496
20
102.065030899748
30
0
0
VERTEX
8
0
10
2.40667537074996
20
165.770515983043
30
0
0
VERTEX
8
0
10
4.55549266606242
20
144.240455668759
30
0
0
VERTEX
8
0
10
6.70430996137489
20
130.425065295853
30
0
0
VERTEX
8
0
10
8.85312725668735
20
120.296329721248
30
0
0
VERTEX
8
0
10
11.0019445519998
20
111.749342065913
30
0
0
VERTEX
8
0
10
13.1507618473123
20
104.926671433997
30
0
0
VERTEX
8
0
10
15.2995791426247
20
98.9053493328978
30
0
0
VERTEX
8
0
10
17.4483964379372
20
93.8301463666417
30
0
0
VERTEX
8
0
10
19.5972137332497
20
89.8644689253753
30
0
0
VERTEX
8
0
10
21.7460310285621
20
85.7207725311281
30
0
0
VERTEX
8
0
10
23.8948483238746
20
82.3689511674045
30
0
0
VERTEX
8
0
10
26.0436656191871
20
79.4929759640774
30
0
0
VERTEX
8
0
10
28.1924829144995
20
76.8461841684261
30
0
0
VERTEX
8
0
10
30.341300209812
20
74.3423182938084
30
0
0
VERTEX
8
0
10
32.4901175051245
20
72.3191095904924
30
0
0
VERTEX
8
0
10
34.6389348004369
20
70.2840922422545
30
0
0
VERTEX
8
0
10
36.7877520957494
20
68.3772583329857
30
0
0
VERTEX
8
0
10
38.9365693910619
20
66.6376973248835
30
0
0
VERTEX
8
0
10
41.0853866863743
20
65.049516748296
30
0
0
VERTEX
8
0
10
43.2342039816868
20
63.4613361717085
30
0
0
VERTEX
8
0
10
45.3830212769993
20
62.163001614637
30
0
0
VERTEX
8
0
10
47.5318385723117
20
60.8334316695555
30
0
0
VERTEX
8
0
10
49.6806558676242
20
59.6644269228572
30
0
0
VERTEX
8
0
10
51.8294731629366
20
58.4925577999733
30
0
0
VERTEX
8
0
10
53.9782904582491
20
57.3206886770895
30
0
0
VERTEX
8
0
10
56.1271077535616
20
56.3604114768564
30
0
0
VERTEX
8
0
10
58.275925048874
20
55.3345598557906
30
0
0
VERTEX
8
0
10
60.4247423441865
20
54.3087082347247
30
0
0
VERTEX
8
0
10
62.573559639499
20
53.5469429566589
30
0
0
VERTEX
8
0
10
64.7223769348114
20
52.7235018725788
30
0
0
VERTEX
8
0
10
66.8711942301239
20
51.9000607884986
30
0
0
VERTEX
8
0
10
69.0200115254364
20
51.0766197044185
30
0
0
VERTEX
8
0
10
71.1688288207488
20
50.3885464422327
30
0
0
VERTEX
8
0
10
73.3176461160613
20
49.6852985749459
30
0
0
VERTEX
8
0
10
75.4664634113738
20
48.982050707659
30
0
0
VERTEX
8
0
10
77.6152807066862
20
48.3137314400589
30
0
0
VERTEX
8
0
10
79.7640980019987
20
47.6562862567036
30
0
0
VERTEX
8
0
10
81.9129152973112
20
46.9988410733482
30
0
0
VERTEX
8
0
10
84.0617325926236
20
46.4578081545464
30
0
0
VERTEX
8
0
10
86.2105498879361
20
45.9425426326633
30
0
0
VERTEX
8
0
10
88.3593671832486
20
45.4272771107802
30
0
0
VERTEX
8
0
10
90.508184478561
20
44.9120115888971
30
0
0
VERTEX
8
0
10
92.6570017738735
20
44.3967460670139
30
0
0
VERTEX
8
0
10
94.8058190691859
20
43.8814805451308
30
0
0
VERTEX
8
0
10
96.9546363644984
20
43.3662150232477
30
0
0
VERTEX
8
0
10
99.1034536598109
20
42.9273922235876
30
0
0
VERTEX
8
0
10
101.252270955123
20
42.5177292639696
30
0
0
VERTEX
8
0
10
103.401088250436
20
42.1080663043517
30
0
0
VERTEX
8
0
10
105.549905545748
20
41.6984033447337
30
0
0
VERTEX
8
0
10
107.698722841061
20
41.2887403851157
30
0
0
VERTEX
8
0
10
109.847540136373
20
40.8790774254977
30
0
0
VERTEX
8
0
10
111.996357431686
20
40.4694144658797
30
0
0
VERTEX
8
0
10
114.145174726998
20
40.0597515062617
30
0
0
VERTEX
8
0
10
116.293992022311
20
39.7372194605171
30
0
0
VERTEX
8
0
10
118.442809317623
20
39.4300732320725
30
0
0
VERTEX
8
0
10
120.591626612936
20
39.1229270036279
30
0
0
VERTEX
8
0
10
122.740443908248
20
38.8157807751833
30
0
0
VERTEX
8
0
10
124.88926120356
20
38.5086345467386
30
0
0
VERTEX
8
0
10
127.038078498873
20
38.201488318294
30
0
0
VERTEX
8
0
10
129.186895794185
20
37.8943420898494
30
0
0
VERTEX
8
0
10
131.335713089498
20
37.5871958614048
30
0
0
VERTEX
8
0
10
133.48453038481
20
37.2800496329602
30
0
0
VERTEX
8
0
10
135.633347680123
20
36.9729034045155
30
0
0
VERTEX
8
0
10
137.782164975435
20
36.6657571760709
30
0
0
VERTEX
8
0
10
139.930982270748
20
36.4431184935648
30
0
0
VERTEX
8
0
10
142.07979956606
20
36.198669689538
30
0
0
VERTEX
8
0
10
144.228616861373
20
35.9542208855111
30
0
0
VERTEX
8
0
10
146.377434156685
20
35.7097720814843
30
0
0
VERTEX
8
0
10
148.526251451998
20
35.4653232774575
30
0
0
VERTEX
8
0
10
150.67506874731
20
35.2208744734307
30
0
0
VERTEX
8
0
10
152.823886042622
20
34.9764256694039
30
0
0
VERTEX
8
0
10
154.972703337935
20
34.731976865377
30
0
0
VERTEX
8
0
10
157.121520633247
20
34.4875280613502
30
0
0
VERTEX
8
0
10
159.27033792856
20
34.2430792573234
30
0
0
VERTEX
8
0
10
161.419155223872
20
33.9986304532966
30
0
0
VERTEX
8
0
10
163.567972519185
20
33.7861438589436
30
0
0
VERTEX
8
0
10
165.716789814497
20
33.5767562574846
30
0
0
VERTEX
8
0
10
167.86560710981
20
33.3673686560256
30
0
0
VERTEX
8
0
10
170.014424405122
20
33.1579810545666
30
0
0
VERTEX
8
0
10
172.163241700435
20
32.9485934531076
30
0
0
VERTEX
8
0
10
174.312058995747
20
32.7392058516486
30
0
0
VERTEX
8
0
10
176.46087629106
20
32.5298182501896
30
0
0
VERTEX
8
0
10
178.609693586372
20
32.3204306487306
30
0
0
VERTEX
8
0
10
180.758510881685
20
32.1110430472716
30
0
0
VERTEX
8
0
10
182.907328176997
20
31.9016554458126
30
0
0
VERTEX
8
0
10
185.056145472309
20
31.6922678443536
30
0
0
VERTEX
8
0
10
187.204962767622
20
31.4828802428945
30
0
0
VERTEX
8
0
10
189.353780062934
20
31.2734926414355
30
0
0
VERTEX
8
0
10
191.502597358247
20
31.0641050399765
30
0
0
VERTEX
8
0
10
193.651414653559
20
30.8911974915898
30
0
0
VERTEX
8
0
10
195.800231948872
20
30.7502033289509
30
0
0
VERTEX
8
0
10
197.949049244184
20
30.609209166312
30
0
0
VERTEX
8
0
10
200.097866539497
20
30.4682150036731
30
0
0
VERTEX
8
0
10
202.246683834809
20
30.3272208410342
30
0
0
VERTEX
8
0
10
204.395501130122
20
30.1862266783953
30
0
0
VERTEX
8
0
10
206.544318425434
20
30.0452325157563
30
0
0
VERTEX
8
0
10
208.693135720747
20
29.9042383531174
30
0
0
VERTEX
8
0
10
210.841953016059
20
29.7632441904785
30
0
0
VERTEX
8
0
10
212.990770311371
20
29.6222500278396
30
0
0
VERTEX
8
0
10
215.139587606684
20
29.4812558652007
30
0
0
VERTEX
8
0
10
217.288404901996
20
29.3402617025618
30
0
0
VERTEX
8
0
10
219.437222197309
20
29.1992675399229
30
0
0
VERTEX
8
0
10
221.586039492621
20
29.0582733772839
30
0
0
VERTEX
8
0
10
223.734856787934
20
28.917279214645
30
0
0
VERTEX
8
0
10
225.883674083246
20
28.7762850520061
30
0
0
VERTEX
8
0
10
228.032491378559
20
28.6352908893672
30
0
0
VERTEX
8
0
10
230.181308673871
20
28.4942967267283
30
0
0
VERTEX
8
0
10
232.330125969184
20
28.3533025640894
30
0
0
VERTEX
8
0
10
234.478943264496
20
28.2123084014505
30
0
0
VERTEX
8
0
10
236.627760559809
20
28.0907892516562
30
0
0
VERTEX
8
0
10
238.776577855121
20
27.9773890600681
30
0
0
VERTEX
8
0
10
240.925395150434
20
27.86398886848
30
0
0
VERTEX
8
0
10
243.074212445746
20
27.7505886768919
30
0
0
VERTEX
8
0
10
245.223029741058
20
27.6371884853038
30
0
0
VERTEX
8
0
10
247.371847036371
20
27.5237882937157
30
0
0
VERTEX
8
0
10
249.520664331683
20
27.4103881021276
30
0
0
VERTEX
8
0
10
251.669481626996
20
27.2969879105395
30
0
0
VERTEX
8
0
10
253.818298922308
20
27.1835877189514
30
0
0
VERTEX
8
0
10
255.967116217621
20
27.0701875273632
30
0
0
VERTEX
8
0
10
258.115933512933
20
26.9567873357751
30
0
0
VERTEX
8
0
10
260.264750808246
20
26.843387144187
30
0
0
VERTEX
8
0
10
262.413568103558
20
26.7299869525989
30
0
0
VERTEX
8
0
10
264.562385398871
20
26.6165867610108
30
0
0
VERTEX
8
0
10
266.711202694183
20
26.5031865694227
30
0
0
VERTEX
8
0
10
268.860019989496
20
26.3897863778346
30
0
0
VERTEX
8
0
10
271.008837284808
20
26.2763861862465
30
0
0
VERTEX
8
0
10
273.15765458012
20
26.1741938560174
30
0
0
VERTEX
8
0
10
275.306471875433
20
26.0783394198296
30
0
0
VERTEX
8
0
10
277.455289170745
20
25.9824849836418
30
0
0
VERTEX
8
0
10
279.604106466058
20
25.8866305474539
30
0
0
VERTEX
8
0
10
281.75292376137
20
25.7907761112661
30
0
0
VERTEX
8
0
10
283.901741056683
20
25.6949216750783
30
0
0
VERTEX
8
0
10
286.050558351995
20
25.5990672388904
30
0
0
VERTEX
8
0
10
288.199375647308
20
25.5032128027026
30
0
0
VERTEX
8
0
10
290.34819294262
20
25.4073583665148
30
0
0
VERTEX
8
0
10
292.497010237933
20
25.311503930327
30
0
0
VERTEX
8
0
10
294.645827533245
20
25.2156494941391
30
0
0
VERTEX
8
0
10
296.794644828558
20
25.1197950579513
30
0
0
VERTEX
8
0
10
298.94346212387
20
25.0239406217635
30
0
0
VERTEX
8
0
10
301.092279419183
20
24.9280861855756
30
0
0
SEQEND
8
0
0
POLYLINE
8
0
62
6
70
0
10
0
20
0
30
0
0
VERTEX
8
0
10
0.257858075437496
20
3.06627181628206
30
0
0
VERTEX
8
0
10
2.40667537074996
20
28.830481335082
30
0
0
VERTEX
8
0
10
4.55549266606242
20
51.0311933557949
30
0
0
VERTEX
8
0
10
6.70430996137489
20
67.8038763905776
30
0
0
VERTEX
8
0
10
8.85312725668735
20
80.8598778026761
30
0
0
VERTEX
8
0
10
11.0019445519998
20
89.6522855631444
30
0
0
VERTEX
8
0
10
13.1507618473123
20
94.4018150196928
30
0
0
VERTEX
8
0
10
15.2995791426247
20
98.0426425302037
30
0
0
VERTEX
8
0
10
17.4483964379372
20
99.0290137868519
30
0
0
VERTEX
8
0
10
19.5972137332497
20
99.0130491044804
30
0
0
VERTEX
8
0
10
21.7460310285621
20
98.2135145147932
30
0
0
VERTEX
8
0
10
23.8948483238746
20
97.010423244504
30
0
0
VERTEX
8
0
10
26.0436656191871
20
95.5877267368277
30
0
0
VERTEX
8
0
10
28.1924829144995
20
94.1563375188279
30
0
0
VERTEX
8
0
10
30.341300209812
20
92.4848163115102
30
0
0
VERTEX
8
0
10
32.4901175051245
20
90.7852873191154
30
0
0
VERTEX
8
0
10
34.6389348004369
20
89.0427348991927
30
0
0
VERTEX
8
0
10
36.7877520957494
20
87.3938043917536
30
0
0
VERTEX
8
0
10
38.9365693910619
20
85.7769255563423
30
0
0
VERTEX
8
0
10
41.0853866863743
20
84.2196751427291
30
0
0
VERTEX
8
0
10
43.2342039816868
20
82.6823045880406
30
0
0
VERTEX
8
0
10
45.3830212769993
20
81.2304030837779
30
0
0
VERTEX
8
0
10
47.5318385723117
20
79.8599918259929
30
0
0
VERTEX
8
0
10
49.6806558676242
20
78.489580568208
30
0
0
VERTEX
8
0
10
51.8294731629366
20
77.209322653465
30
0
0
VERTEX
8
0
10
53.9782904582491
20
75.928956587668
30
0
0
VERTEX
8
0
10
56.1271077535616
20
74.648590521871
30
0
0
VERTEX
8
0
10
58.275925048874
20
73.5434078763164
30
0
0
VERTEX
8
0
10
60.4247423441865
20
72.3963712618622
30
0
0
VERTEX
8
0
10
62.573559639499
20
71.2493346474081
30
0
0
VERTEX
8
0
10
64.7223769348114
20
70.2407511059809
30
0
0
VERTEX
8
0
10
66.8711942301239
20
69.1990611730466
30
0
0
VERTEX
8
0
10
69.0200115254364
20
68.1573712401124
30
0
0
VERTEX
8
0
10
71.1688288207488
20
67.2506884015339
30
0
0
VERTEX
8
0
10
73.3176461160613
20
66.3767478583668
30
0
0
VERTEX
8
0
10
75.4664634113738
20
65.5028073151998
30
0
0
VERTEX
8
0
10
77.6152807066862
20
64.6288667720327
30
0
0
VERTEX
8
0
10
79.7640980019987
20
63.8490450092845
30
0
0
VERTEX
8
0
10
81.9129152973112
20
63.0835605092128
30
0
0
VERTEX
8
0
10
84.0617325926236
20
62.3180760091411
30
0
0
VERTEX
8
0
10
86.2105498879361
20
61.5525915090695
30
0
0
VERTEX
8
0
10
88.3593671832486
20
60.859820548956
30
0
0
VERTEX
8
0
10
90.508184478561
20
60.2055330110211
30
0
0
VERTEX
8
0
10
92.6570017738735
20
59.5512454730863
30
0
0
VERTEX
8
0
10
94.8058190691859
20
58.8969579351514
30
0
0
VERTEX
8
0
10
96.9546363644984
20
58.2426703972165
30
0
0
VERTEX
8
0
10
99.1034536598109
20
57.6755682693508
30
0
0
VERTEX
8
0
10
101.252270955123
20
57.1417238871237
30
0
0
VERTEX
8
0
10
103.401088250436
20
56.6078795048966
30
0
0
VERTEX
8
0
10
105.549905545748
20
56.0740351226695
30
0
0
VERTEX
8
0
10
107.698722841061
20
55.5401907404423
30
0
0
VERTEX
8
0
10
109.847540136373
20
55.0063463582152
30
0
0
VERTEX
8
0
10
111.996357431686
20
54.5089220376038
30
0
0
VERTEX
8
0
10
114.145174726998
20
54.0285158318266
30
0
0
VERTEX
8
0
10
116.293992022311
20
53.5481096260494
30
0
0
VERTEX
8
0
10
118.442809317623
20
53.0677034202722
30
0
0
VERTEX
8
0
10
120.591626612936
20
52.587297214495
30
0
0
VERTEX
8
0
10
122.740443908248
20
52.1068910087179
30
0
0
VERTEX
8
0
10
124.88926120356
20
51.6264848029407
30
0
0
VERTEX
8
0
10
127.038078498873
20
51.246607653813
30
0
0
VERTEX
8
0
10
129.186895794185
20
50.8372612918771
30
0
0
VERTEX
8
0
10
131.335713089498
20
50.4279149299412
30
0
0
VERTEX
8
0
10
133.48453038481
20
50.0185685680053
30
0
0
VERTEX
8
0
10
135.633347680123
20
49.6092222060694
30
0
0
VERTEX
8
0
10
137.782164975435
20
49.1998758441335
30
0
0
VERTEX
8
0
10
139.930982270748
20
48.7905294821976
30
0
0
VERTEX
8
0
10
142.07979956606
20
48.4852139068733
30
0
0
VERTEX
8
0
10
144.228616861373
20
48.1740095007589
30
0
0
VERTEX
8
0
10
146.377434156685
20
47.8628050946445
30
0
0
VERTEX
8
0
10
148.526251451998
20
47.55160068853
30
0
0
VERTEX
8
0
10
150.67506874731
20
47.2403962824156
30
0
0
VERTEX
8
0
10
152.823886042622
20
46.9291918763012
30
0
0
VERTEX
8
0
10
154.972703337935
20
46.6179874701868
30
0
0
VERTEX
8
0
10
157.121520633247
20
46.3067830640724
30
0
0
VERTEX
8
0
10
159.27033792856
20
46.0049304182859
30
0
0
VERTEX
8
0
10
161.419155223872
20
45.7059040850686
30
0
0
VERTEX
8
0
10
163.567972519185
20
45.4068777518514
30
0
0
VERTEX
8
0
10
165.716789814497
20
45.1078514186341
30
0
0
VERTEX
8
0
10
167.86560710981
20
44.8088250854168
30
0
0
VERTEX
8
0
10
170.014424405122
20
44.5097987521996
30
0
0
VERTEX
8
0
10
172.163241700435
20
44.2107724189823
30
0
0
VERTEX
8
0
10
174.312058995747
20
43.911746085765
30
0
0
VERTEX
8
0
10
176.46087629106
20
43.6127197525478
30
0
0
VERTEX
8
0
10
178.609693586372
20
43.3136934193305
30
0
0
VERTEX
8
0
10
180.758510881685
20
43.1199381840907
30
0
0
VERTEX
8
0
10
182.907328176997
20
42.8950995957436
30
0
0
VERTEX
8
0
10
185.056145472309
20
42.6702610073964
30
0
0
VERTEX
8
0
10
187.204962767622
20
42.4454224190493
30
0
0
VERTEX
8
0
10
189.353780062934
20
42.2205838307022
30
0
0
VERTEX
8
0
10
191.502597358247
20
41.995745242355
30
0
0
VERTEX
8
0
10
193.651414653559
20
41.7709066540079
30
0
0
VERTEX
8
0
10
195.800231948872
20
41.5460680656608
30
0
0
VERTEX
8
0
10
197.949049244184
20
41.3212294773136
30
0
0
VERTEX
8
0
10
200.097866539497
20
41.0963908889665
30
0
0
VERTEX
8
0
10
202.246683834809
20
40.8715523006194
30
0
0
VERTEX
8
0
10
204.395501130122
20
40.6728637401731
30
0
0
VERTEX
8
0
10
206.544318425434
20
40.4757937849061
30
0
0
VERTEX
8
0
10
208.693135720747
20
40.278723829639
30
0
0
VERTEX
8
0
10
210.841953016059
20
40.081653874372
30
0
0
VERTEX
8
0
10
212.990770311371
20
39.8845839191049
30
0
0
VERTEX
8
0
10
215.139587606684
20
39.6875139638379
30
0
0
VERTEX
8
0
10
217.288404901996
20
39.4904440085708
30
0
0
VERTEX
8
0
10
219.437222197309
20
39.2933740533038
30
0
0
VERTEX
8
0
10
221.586039492621
20
39.0963040980368
30
0
0
VERTEX
8
0
10
223.734856787934
20
38.8992341427697
30
0
0
VERTEX
8
0
10
225.883674083246
20
38.7021641875027
30
0
0
VERTEX
8
0
10
228.032491378559
20
38.5050942322356
30
0
0
VERTEX
8
0
10
230.181308673871
20
38.3423181725089
30
0
0
VERTEX
8
0
10
232.330125969184
20
38.1817927067065
30
0
0
VERTEX
8
0
10
234.478943264496
20
38.0212672409042
30
0
0
VERTEX
8
0
10
236.627760559809
20
37.8607417751019
30
0
0
VERTEX
8
0
10
238.776577855121
20
37.7002163092995
30
0
0
VERTEX
8
0
10
240.925395150434
20
37.5396908434972
30
0
0
VERTEX
8
0
10
243.074212445746
20
37.3791653776949
30
0
0
VERTEX
8
0
10
245.223029741058
20
37.2186399118926
30
0
0
VERTEX
8
0
10
247.371847036371
20
37.0581144460902
30
0
0
VERTEX
8
0
10
249.520664331683
20
36.8975889802879
30
0
0
VERTEX
8
0
10
251.669481626996
20
36.7370635144856
30
0
0
VERTEX
8
0
10
253.818298922308
20
36.5765380486832
30
0
0
VERTEX
8
0
10
255.967116217621
20
36.4160125828809
30
0
0
VERTEX
8
0
10
258.115933512933
20
36.2554871170786
30
0
0
VERTEX
8
0
10
260.264750808246
20
36.0949616512763
30
0
0
VERTEX
8
0
10
262.413568103558
20
35.9667969085333
30
0
0
VERTEX
8
0
10
264.562385398871
20
35.8331825641607
30
0
0
VERTEX
8
0
10
266.711202694183
20
35.6995682197881
30
0
0
VERTEX
8
0
10
268.860019989496
20
35.5659538754156
30
0
0
VERTEX
8
0
10
271.008837284808
20
35.432339531043
30
0
0
VERTEX
8
0
10
273.15765458012
20
35.2987251866704
30
0
0
VERTEX
8
0
10
275.306471875433
20
35.1651108422979
30
0
0
VERTEX
8
0
10
277.455289170745
20
35.0314964979253
30
0
0
VERTEX
8
0
10
279.604106466058
20
34.8978821535528
30
0
0
VERTEX
8
0
10
281.75292376137
20
34.7642678091802
30
0
0
VERTEX
8
0
10
283.901741056683
20
34.6306534648076
30
0
0
VERTEX
8
0
10
286.050558351995
20
34.4970391204351
30
0
0
VERTEX
8
0
10
288.199375647308
20
34.3634247760625
30
0
0
VERTEX
8
0
10
290.34819294262
20
34.2298104316899
30
0
0
VERTEX
8
0
10
292.497010237933
20
34.0961960873174
30
0
0
VERTEX
8
0
10
294.645827533245
20
33.9625817429448
30
0
0
VERTEX
8
0
10
296.794644828558
20
33.8289673985722
30
0
0
VERTEX
8
0
10
298.94346212387
20
33.6953530541997
30
0
0
VERTEX
8
0
10
301.092279419183
20
33.5617387098271
30
0
0
SEQEND
8
0
0
POLYLINE
8
0
62
6
70
0
10
0
20
0
30
0
0
VERTEX
8
0
10
0.257858075437496
20
103.733824971306
30
0
0
VERTEX
8
0
10
2.40667537074996
20
171.966853232882
30
0
0
VERTEX
8
0
10
4.55549266606242
20
160.2672578864
30
0
0
VERTEX
8
0
10
6.70430996137489
20
159.040344267483
30
0
0
VERTEX
8
0
10
8.85312725668735
20
160.216361039918
30
0
0
VERTEX
8
0
10
11.0019445519998
20
160.957683431459
30
0
0
VERTEX
8
0
10
13.1507618473123
20
161.901542756894
30
0
0
VERTEX
8
0
10
15.2995791426247
20
161.833322811442
30
0
0
VERTEX
8
0
10
17.4483964379372
20
162.050094851217
30
0
0
VERTEX
8
0
10
19.5972137332497
20
162.01875846233
30
0
0
VERTEX
8
0
10
21.7460310285621
20
160.928271733238
30
0
0
VERTEX
8
0
10
23.8948483238746
20
160.316220547863
30
0
0
VERTEX
8
0
10
26.0436656191871
20
159.61972136974
30
0
0
VERTEX
8
0
10
28.1924829144995
20
158.813175668146
30
0
0
VERTEX
8
0
10
30.341300209812
20
158.291577434523
30
0
0
VERTEX
8
0
10
32.4901175051245
20
157.493541492834
30
0
0
VERTEX
8
0
10
34.6389348004369
20
156.695505551145
30
0
0
VERTEX
8
0
10
36.7877520957494
20
156.411822534104
30
0
0
VERTEX
8
0
10
38.9365693910619
20
156.006924989689
30
0
0
VERTEX
8
0
10
41.0853866863743
20
154.905748696043
30
0
0
VERTEX
8
0
10
43.2342039816868
20
153.983299449606
30
0
0
VERTEX
8
0
10
45.3830212769993
20
153.415535907497
30
0
0
VERTEX
8
0
10
47.5318385723117
20
152.871849057076
30
0
0
VERTEX
8
0
10
49.6806558676242
20
152.309604777702
30
0
0
VERTEX
8
0
10
51.8294731629366
20
152.054506636642
30
0
0
VERTEX
8
0
10
53.9782904582491
20
151.816719319582
30
0
0
VERTEX
8
0
10
56.1271077535616
20
151.380722605353
30
0
0
VERTEX
8
0
10
58.275925048874
20
150.980488364211
30
0
0
VERTEX
8
0
10
60.4247423441865
20
150.574702937553
30
0
0
VERTEX
8
0
10
62.573559639499
20
150.302713259702
30
0
0
VERTEX
8
0
10
64.7223769348114
20
150.020163064387
30
0
0
VERTEX
8
0
10
66.8711942301239
20
149.831281372381
30
0
0
VERTEX
8
0
10
69.0200115254364
20
149.623754995091
30
0
0
VERTEX
8
0
10
71.1688288207488
20
149.034611158345
30
0
0
VERTEX
8
0
10
73.3176461160613
20
148.531473555231
30
0
0
VERTEX
8
0
10
75.4664634113738
20
148.30425315976
30
0
0
VERTEX
8
0
10
77.6152807066862
20
148.030076417631
30
0
0
VERTEX
8
0
10
79.7640980019987
20
147.75842221235
30
0
0
VERTEX
8
0
10
81.9129152973112
20
147.486812852839
30
0
0
VERTEX
8
0
10
84.0617325926236
20
147.219971113042
30
0
0
VERTEX
8
0
10
86.2105498879361
20
146.956122441861
30
0
0
VERTEX
8
0
10
88.3593671832486
20
146.692273770681
30
0
0
VERTEX
8
0
10
90.508184478561
20
146.441549471839
30
0
0
VERTEX
8
0
10
92.6570017738735
20
146.189731237827
30
0
0
VERTEX
8
0
10
94.8058190691859
20
145.937913003815
30
0
0
VERTEX
8
0
10
96.9546363644984
20
145.669150420558
30
0
0
VERTEX
8
0
10
99.1034536598109
20
145.405247771232
30
0
0
VERTEX
8
0
10
101.252270955123
20
145.156021617583
30
0
0
VERTEX
8
0
10
103.401088250436
20
144.919439483338
30
0
0
VERTEX
8
0
10
105.549905545748
20
144.682857349093
30
0
0
VERTEX
8
0
10
107.698722841061
20
144.446275214847
30
0
0
VERTEX
8
0
10
109.847540136373
20
144.298243120009
30
0
0
VERTEX
8
0
10
111.996357431686
20
144.121311615156
30
0
0
VERTEX
8
0
10
114.145174726998
20
143.944380110303
30
0
0
VERTEX
8
0
10
116.293992022311
20
143.788872283397
30
0
0
VERTEX
8
0
10
118.442809317623
20
143.629334299632
30
0
0
VERTEX
8
0
10
120.591626612936
20
143.469796315868
30
0
0
VERTEX
8
0
10
122.740443908248
20
143.177378006461
30
0
0
VERTEX
8
0
10
124.88926120356
20
142.844314123441
30
0
0
VERTEX
8
0
10
127.038078498873
20
142.511250240422
30
0
0
VERTEX
8
0
10
129.186895794185
20
142.178186357403
30
0
0
VERTEX
8
0
10
131.335713089498
20
141.950152467713
30
0
0
VERTEX
8
0
10
133.48453038481
20
141.715000877885
30
0
0
VERTEX
8
0
10
135.633347680123
20
141.479849288057
30
0
0
VERTEX
8
0
10
137.782164975435
20
141.244697698228
30
0
0
VERTEX
8
0
10
139.930982270748
20
141.029060329778
30
0
0
VERTEX
8
0
10
142.07979956606
20
140.811062530332
30
0
0
VERTEX
8
0
10
144.228616861373
20
140.593064730887
30
0
0
VERTEX
8
0
10
146.377434156685
20
140.375066931441
30
0
0
VERTEX
8
0
10
148.526251451998
20
140.149851242073
30
0
0
VERTEX
8
0
10
150.67506874731
20
139.924212508245
30
0
0
VERTEX
8
0
10
152.823886042622
20
139.698573774417
30
0
0
VERTEX
8
0
10
154.972703337935
20
139.472935040589
30
0
0
VERTEX
8
0
10
157.121520633247
20
139.247296306761
30
0
0
VERTEX
8
0
10
159.27033792856
20
139.047987743973
30
0
0
VERTEX
8
0
10
161.419155223872
20
138.840177174549
30
0
0
VERTEX
8
0
10
163.567972519185
20
138.632366605125
30
0
0
VERTEX
8
0
10
165.716789814497
20
138.424556035701
30
0
0
VERTEX
8
0
10
167.86560710981
20
138.214214339095
30
0
0
VERTEX
8
0
10
170.014424405122
20
138.002870414546
30
0
0
VERTEX
8
0
10
172.163241700435
20
137.791526489998
30
0
0
VERTEX
8
0
10
174.312058995747
20
137.58018256545
30
0
0
VERTEX
8
0
10
176.46087629106
20
137.368838640901
30
0
0
VERTEX
8
0
10
178.609693586372
20
137.165863564135
30
0
0
VERTEX
8
0
10
180.758510881685
20
136.96751786323
30
0
0
VERTEX
8
0
10
182.907328176997
20
136.769172162325
30
0
0
VERTEX
8
0
10
185.056145472309
20
136.57082646142
30
0
0
VERTEX
8
0
10
187.204962767622
20
136.372480760515
30
0
0
VERTEX
8
0
10
189.353780062934
20
136.17413505961
30
0
0
VERTEX
8
0
10
191.502597358247
20
135.97390955609
30
0
0
VERTEX
8
0
10
193.651414653559
20
135.774046565273
30
0
0
VERTEX
8
0
10
195.800231948872
20
135.574183574455
30
0
0
VERTEX
8
0
10
197.949049244184
20
135.374320583638
30
0
0
VERTEX
8
0
10
200.097866539497
20
135.17445759282
30
0
0
VERTEX
8
0
10
202.246683834809
20
134.974594602002
30
0
0
VERTEX
8
0
10
204.395501130122
20
134.792921421888
30
0
0
VERTEX
8
0
10
206.544318425434
20
134.605350546201
30
0
0
VERTEX
8
0
10
208.693135720747
20
134.417779670514
30
0
0
VERTEX
8
0
10
210.841953016059
20
134.230208794827
30
0
0
VERTEX
8
0
10
212.990770311371
20
134.04263791914
30
0
0
VERTEX
8
0
10
215.139587606684
20
133.855067043453
30
0
0
VERTEX
8
0
10
217.288404901996
20
133.648218647801
30
0
0
VERTEX
8
0
10
219.437222197309
20
133.446296424332
30
0
0
VERTEX
8
0
10
221.586039492621
20
133.244374200863
30
0
0
VERTEX
8
0
10
223.734856787934
20
133.042451977394
30
0
0
VERTEX
8
0
10
225.883674083246
20
132.840529753925
30
0
0
VERTEX
8
0
10
228.032491378559
20
132.638607530455
30
0
0
VERTEX
8
0
10
230.181308673871
20
132.464921133692
30
0
0
VERTEX
8
0
10
232.330125969184
20
132.298093301425
30
0
0
VERTEX
8
0
10
234.478943264496
20
132.131265469157
30
0
0
VERTEX
8
0
10
236.627760559809
20
131.964437636889
30
0
0
VERTEX
8
0
10
238.776577855121
20
131.797609804622
30
0
0
VERTEX
8
0
10
240.925395150434
20
131.630781972354
30
0
0
VERTEX
8
0
10
243.074212445746
20
131.463954140087
30
0
0
VERTEX
8
0
10
245.223029741058
20
131.286624953553
30
0
0
VERTEX
8
0
10
247.371847036371
20
131.107256397017
30
0
0
VERTEX
8
0
10
249.520664331683
20
130.92788784048
30
0
0
VERTEX
8
0
10
251.669481626996
20
130.748519283943
30
0
0
VERTEX
8
0
10
253.818298922308
20
130.569150727406
30
0
0
VERTEX
8
0
10
255.967116217621
20
130.389782170869
30
0
0
VERTEX
8
0
10
258.115933512933
20
130.210413614332
30
0
0
VERTEX
8
0
10
260.264750808246
20
130.031045057796
30
0
0
VERTEX
8
0
10
262.413568103558
20
129.859204423548
30
0
0
VERTEX
8
0
10
264.562385398871
20
129.685161183188
30
0
0
VERTEX
8
0
10
266.711202694183
20
129.511117942829
30
0
0
VERTEX
8
0
10
268.860019989496
20
129.337074702469
30
0
0
VERTEX
8
0
10
271.008837284808
20
129.16303146211
30
0
0
VERTEX
8
0
10
273.15765458012
20
128.988988221751
30
0
0
VERTEX
8
0
10
275.306471875433
20
128.814944981391
30
0
0
VERTEX
8
0
10
277.455289170745
20
128.6557777318
30
0
0
VERTEX
8
0
10
279.604106466058
20
128.511289203084
30
0
0
VERTEX
8
0
10
281.75292376137
20
128.366800674369
30
0
0
VERTEX
8
0
10
283.901741056683
20
128.222312145654
30
0
0
VERTEX
8
0
10
286.050558351995
20
128.077823616939
30
0
0
VERTEX
8
0
10
288.199375647308
20
127.933335088224
30
0
0
VERTEX
8
0
10
290.34819294262
20
127.788846559509
30
0
0
VERTEX
8
0
10
292.497010237933
20
127.644358030794
30
0
0
VERTEX
8
0
10
294.645827533245
20
127.499869502079
30
0
0
VERTEX
8
0
10
296.794644828558
20
127.355380973364
30
0
0
VERTEX
8
0
10
298.94346212387
20
127.210892444649
30
0
0
VERTEX
8
0
10
301.092279419183
20
127.066403915934
30
0
0
SEQEND
8
0
0
POLYLINE
8
0
62
1
70
0
10
0
20
0
30
0
0
VERTEX
8
0
10
0.257858075437496
20
102.11107949394
30
0
0
VERTEX
8
0
10
2.40667537074996
20
168.258909491583
30
0
0
VERTEX
8
0
10
4.55549266606242
20
153.001607007403
30
0
0
VERTEX
8
0
10
6.70430996137489
20
146.996813948521
30
0
0
VERTEX
8
0
10
8.85312725668735
20
144.946634257809
30
0
0
VERTEX
8
0
10
11.0019445519998
20
143.267050499618
30
0
0
VERTEX
8
0
10
13.1507618473123
20
141.142867539349
30
0
0
VERTEX
8
0
10
15.2995791426247
20
139.264596653162
30
0
0
VERTEX
8
0
10
17.4483964379372
20
136.42155965529
30
0
0
VERTEX
8
0
10
19.5972137332497
20
133.713150692839
30
0
0
VERTEX
8
0
10
21.7460310285621
20
130.360827232267
30
0
0
VERTEX
8
0
10
23.8948483238746
20
127.262195228968
30
0
0
VERTEX
8
0
10
26.0436656191871
20
124.322752263372
30
0
0
VERTEX
8
0
10
28.1924829144995
20
121.534982273447
30
0
0
VERTEX
8
0
10
30.341300209812
20
118.66010929319
30
0
0
VERTEX
8
0
10
32.4901175051245
20
116.069039823615
30
0
0
VERTEX
8
0
10
34.6389348004369
20
113.439244799345
30
0
0
VERTEX
8
0
10
36.7877520957494
20
110.964528130389
30
0
0
VERTEX
8
0
10
38.9365693910619
20
108.619812477564
30
0
0
VERTEX
8
0
10
41.0853866863743
20
106.416132754079
30
0
0
VERTEX
8
0
10
43.2342039816868
20
104.229097092358
30
0
0
VERTEX
8
0
10
45.3830212769993
20
102.2869354067
30
0
0
VERTEX
8
0
10
47.5318385723117
20
100.390859659344
30
0
0
VERTEX
8
0
10
49.6806558676242
20
98.592383568946
30
0
0
VERTEX
8
0
10
51.8294731629366
20
96.8641255707709
30
0
0
VERTEX
8
0
10
53.9782904582491
20
95.1360488926662
30
0
0
VERTEX
8
0
10
56.1271077535616
20
93.5355977622559
30
0
0
VERTEX
8
0
10
58.275925048874
20
92.0355711477704
30
0
0
VERTEX
8
0
10
60.4247423441865
20
90.5023224122445
30
0
0
VERTEX
8
0
10
62.573559639499
20
89.1276768894042
30
0
0
VERTEX
8
0
10
64.7223769348114
20
87.8267087259916
30
0
0
VERTEX
8
0
10
66.8711942301239
20
86.499285413701
30
0
0
VERTEX
8
0
10
69.0200115254364
20
85.1718752569901
30
0
0
VERTEX
8
0
10
71.1688288207488
20
84.0336879057515
30
0
0
VERTEX
8
0
10
73.3176461160613
20
82.9126139422388
30
0
0
VERTEX
8
0
10
75.4664634113738
20
81.7915585968373
30
0
0
VERTEX
8
0
10
77.6152807066862
20
80.6914311801402
30
0
0
VERTEX
8
0
10
79.7640980019987
20
79.6732211497596
30
0
0
VERTEX
8
0
10
81.9129152973112
20
78.6665536855235
30
0
0
VERTEX
8
0
10
84.0617325926236
20
77.7294701899204
30
0
0
VERTEX
8
0
10
86.2105498879361
20
76.8078039331711
30
0
0
VERTEX
8
0
10
88.3593671832486
20
75.9444221977542
30
0
0
VERTEX
8
0
10
90.508184478561
20
75.1118831484232
30
0
0
VERTEX
8
0
10
92.6570017738735
20
74.2793504194449
30
0
0
VERTEX
8
0
10
94.8058190691859
20
73.4468242257464
30
0
0
VERTEX
8
0
10
96.9546363644984
20
72.6143047921093
30
0
0
VERTEX
8
0
10
99.1034536598109
20
71.8973725410761
30
0
0
VERTEX
8
0
10
101.252270955123
20
71.2245316625986
30
0
0
VERTEX
8
0
10
103.401088250436
20
70.5516921833386
30
0
0
VERTEX
8
0
10
105.549905545748
20
69.8788541437141
30
0
0
VERTEX
8
0
10
107.698722841061
20
69.2060175857143
30
0
0
VERTEX
8
0
10
109.847540136373
20
68.5331825529777
30
0
0
VERTEX
8
0
10
111.996357431686
20
67.8895874852154
30
0
0
VERTEX
8
0
10
114.145174726998
20
67.259677472713
30
0
0
VERTEX
8
0
10
116.293992022311
20
66.6816815548071
30
0
0
VERTEX
8
0
10
118.442809317623
20
66.1128718283253
30
0
0
VERTEX
8
0
10
120.591626612936
20
65.5440862752456
30
0
0
VERTEX
8
0
10
122.740443908248
20
64.9753255304003
30
0
0
VERTEX
8
0
10
124.88926120356
20
64.4065902510181
30
0
0
VERTEX
8
0
10
127.038078498873
20
63.9184519974991
30
0
0
VERTEX
8
0
10
129.186895794185
20
63.4066896950244
30
0
0
VERTEX
8
0
10
131.335713089498
20
62.8949274338161
30
0
0
VERTEX
8
0
10
133.48453038481
20
62.3831652148897
30
0
0
VERTEX
8
0
10
135.633347680123
20
61.8714030392944
30
0
0
VERTEX
8
0
10
137.782164975435
20
61.3596409081144
30
0
0
VERTEX
8
0
10
139.930982270748
20
60.8984125629659
30
0
0
VERTEX
8
0
10
142.07979956606
20
60.5075173419595
30
0
0
VERTEX
8
0
10
144.228616861373
20
60.1119055667289
30
0
0
VERTEX
8
0
10
146.377434156685
20
59.7162953777232
30
0
0
VERTEX
8
0
10
148.526251451998
20
59.320686806678
30
0
0
VERTEX
8
0
10
150.67506874731
20
58.9250798861811
30
0
0
VERTEX
8
0
10
152.823886042622
20
58.5294746497013
30
0
0
VERTEX
8
0
10
154.972703337935
20
58.1338711316181
30
0
0
VERTEX
8
0
10
157.121520633247
20
57.7382693672531
30
0
0
VERTEX
8
0
10
159.27033792856
20
57.3501708786875
30
0
0
VERTEX
8
0
10
161.419155223872
20
56.9643444703204
30
0
0
VERTEX
8
0
10
163.567972519185
20
56.5975976877889
30
0
0
VERTEX
8
0
10
165.716789814497
20
56.2327024104311
30
0
0
VERTEX
8
0
10
167.86560710981
20
55.8678091262097
30
0
0
VERTEX
8
0
10
170.014424405122
20
55.5029178744352
30
0
0
VERTEX
8
0
10
172.163241700435
20
55.1380286954585
30
0
0
VERTEX
8
0
10
174.312058995747
20
54.7731416307055
30
0
0
VERTEX
8
0
10
176.46087629106
20
54.4082567227129
30
0
0
VERTEX
8
0
10
178.609693586372
20
54.0433740151663
30
0
0
VERTEX
8
0
10
180.758510881685
20
53.7628882648945
30
0
0
VERTEX
8
0
10
182.907328176997
20
53.4575082613481
30
0
0
VERTEX
8
0
10
185.056145472309
20
53.1521496795528
30
0
0
VERTEX
8
0
10
187.204962767622
20
52.8468128908449
30
0
0
VERTEX
8
0
10
189.353780062934
20
52.541498275166
30
0
0
VERTEX
8
0
10
191.502597358247
20
52.2362062213125
30
0
0
VERTEX
8
0
10
193.651414653559
20
51.9526200028665
30
0
0
VERTEX
8
0
10
195.800231948872
20
51.6880138570669
30
0
0
VERTEX
8
0
10
197.949049244184
20
51.4234157879837
30
0
0
VERTEX
8
0
10
200.097866539497
20
51.1588259209374
30
0
0
VERTEX
8
0
10
202.246683834809
20
50.8942443838507
30
0
0
VERTEX
8
0
10
204.395501130122
20
50.6506675761154
30
0
0
VERTEX
8
0
10
206.544318425434
20
50.4083909626572
30
0
0
VERTEX
8
0
10
208.693135720747
20
50.1661147072841
30
0
0
VERTEX
8
0
10
210.841953016059
20
49.9238388152094
30
0
0
VERTEX
8
0
10
212.990770311371
20
49.681563291748
30
0
0
VERTEX
8
0
10
215.139587606684
20
49.4392881423191
30
0
0
VERTEX
8
0
10
217.288404901996
20
49.1970133724486
30
0
0
VERTEX
8
0
10
219.437222197309
20
48.9547389877716
30
0
0
VERTEX
8
0
10
221.586039492621
20
48.7124649940355
30
0
0
VERTEX
8
0
10
223.734856787934
20
48.4701913971026
30
0
0
VERTEX
8
0
10
225.883674083246
20
48.227918202953
30
0
0
VERTEX
8
0
10
228.032491378559
20
47.9856454176874
30
0
0
VERTEX
8
0
10
230.181308673871
20
47.7708939501109
30
0
0
VERTEX
8
0
10
232.330125969184
20
47.5579547561573
30
0
0
VERTEX
8
0
10
234.478943264496
20
47.3450219974899
30
0
0
VERTEX
8
0
10
236.627760559809
20
47.1436974424144
30
0
0
VERTEX
8
0
10
238.776577855121
20
46.9472108690857
30
0
0
VERTEX
8
0
10
240.925395150434
20
46.7507247461269
30
0
0
VERTEX
8
0
10
243.074212445746
20
46.5542390792407
30
0
0
VERTEX
8
0
10
245.223029741058
20
46.3577538742261
30
0
0
VERTEX
8
0
10
247.371847036371
20
46.1612691369811
30
0
0
VERTEX
8
0
10
249.520664331683
20
45.9647848735042
30
0
0
VERTEX
8
0
10
251.669481626996
20
45.7683010898972
30
0
0
VERTEX
8
0
10
253.818298922308
20
45.571817792367
30
0
0
VERTEX
8
0
10
255.967116217621
20
45.3753349872279
30
0
0
VERTEX
8
0
10
258.115933512933
20
45.1788526809043
30
0
0
VERTEX
8
0
10
260.264750808246
20
44.9823708799326
30
0
0
VERTEX
8
0
10
262.413568103558
20
44.8118587245138
30
0
0
VERTEX
8
0
10
264.562385398871
20
44.6369764151078
30
0
0
VERTEX
8
0
10
266.711202694183
20
44.4620969974757
30
0
0
VERTEX
8
0
10
268.860019989496
20
44.2872205058743
30
0
0
VERTEX
8
0
10
271.008837284808
20
44.112346975103
30
0
0
VERTEX
8
0
10
273.15765458012
20
43.9441511900783
30
0
0
VERTEX
8
0
10
275.306471875433
20
43.7797305547548
30
0
0
VERTEX
8
0
10
277.455289170745
20
43.6153100735203
30
0
0
VERTEX
8
0
10
279.604106466058
20
43.450889748124
30
0
0
VERTEX
8
0
10
281.75292376137
20
43.2864695803418
30
0
0
VERTEX
8
0
10
283.901741056683
20
43.1220495719765
30
0
0
VERTEX
8
0
10
286.050558351995
20
42.9576297248587
30
0
0
VERTEX
8
0
10
288.199375647308
20
42.7932100408469
30
0
0
VERTEX
8
0
10
290.34819294262
20
42.6287905218285
30
0
0
VERTEX
8
0
10
292.497010237933
20
42.4643711697201
30
0
0
VERTEX
8
0
10
294.645827533245
20
42.2999519864679
30
0
0
VERTEX
8
0
10
296.794644828558
20
42.1355329740486
30
0
0
VERTEX
8
0
10
298.94346212387
20
41.97111413447
30
0
0
VERTEX
8
0
10
301.092279419183
20
41.8066954697713
30
0
0
SEQEND
8
0
0
POLYLINE
8
0
62
2
70
0
10
0
20
0
30
0
0
VERTEX
8
0
10
0.257858075437496
20
88.5640107405968
30
0
0
VERTEX
8
0
10
2.40667537074996
20
168.278316601641
30
0
0
VERTEX
8
0
10
4.55549266606242
20
153.093370142334
30
0
0
VERTEX
8
0
10
6.70430996137489
20
147.076701735646
30
0
0
VERTEX
8
0
10
8.85312725668735
20
144.979014741727
30
0
0
VERTEX
8
0
10
11.0019445519998
20
143.310119741723
30
0
0
VERTEX
8
0
10
13.1507618473123
20
141.178297277018
30
0
0
VERTEX
8
0
10
15.2995791426247
20
139.302606388473
30
0
0
VERTEX
8
0
10
17.4483964379372
20
136.414585897346
30
0
0
VERTEX
8
0
10
19.5972137332497
20
133.713547177664
30
0
0
VERTEX
8
0
10
21.7460310285621
20
130.369485233162
30
0
0
VERTEX
8
0
10
23.8948483238746
20
127.268992534265
30
0
0
VERTEX
8
0
10
26.0436656191871
20
124.328226241789
30
0
0
VERTEX
8
0
10
28.1924829144995
20
121.541071589037
30
0
0
VERTEX
8
0
10
30.341300209812
20
118.667437145606
30
0
0
VERTEX
8
0
10
32.4901175051245
20
116.070102246329
30
0
0
VERTEX
8
0
10
34.6389348004369
20
113.439559554757
30
0
0
VERTEX
8
0
10
36.7877520957494
20
110.965695402543
30
0
0
VERTEX
8
0
10
38.9365693910619
20
108.621683218663
30
0
0
VERTEX
8
0
10
41.0853866863743
20
106.417183376857
30
0
0
VERTEX
8
0
10
43.2342039816868
20
104.232740768809
30
0
0
VERTEX
8
0
10
45.3830212769993
20
102.291889699656
30
0
0
VERTEX
8
0
10
47.5318385723117
20
100.391351494941
30
0
0
VERTEX
8
0
10
49.6806558676242
20
98.5919772725256
30
0
0
VERTEX
8
0
10
51.8294731629366
20
96.8644431149263
30
0
0
VERTEX
8
0
10
53.9782904582491
20
95.1413098394669
30
0
0
VERTEX
8
0
10
56.1271077535616
20
93.5389385760454
30
0
0
VERTEX
8
0
10
58.275925048874
20
92.0388614999835
30
0
0
VERTEX
8
0
10
60.4247423441865
20
90.5244178227856
30
0
0
VERTEX
8
0
10
62.573559639499
20
89.1481007841785
30
0
0
VERTEX
8
0
10
64.7223769348114
20
87.8464167107999
30
0
0
VERTEX
8
0
10
66.8711942301239
20
86.5188969189953
30
0
0
VERTEX
8
0
10
69.0200115254364
20
85.1977039911294
30
0
0
VERTEX
8
0
10
71.1688288207488
20
84.0581801816575
30
0
0
VERTEX
8
0
10
73.3176461160613
20
82.937083228375
30
0
0
VERTEX
8
0
10
75.4664634113738
20
81.8154656881225
30
0
0
VERTEX
8
0
10
77.6152807066862
20
80.714631116361
30
0
0
VERTEX
8
0
10
79.7640980019987
20
79.6982867502032
30
0
0
VERTEX
8
0
10
81.9129152973112
20
78.7080131038418
30
0
0
VERTEX
8
0
10
84.0617325926236
20
77.7697826139493
30
0
0
VERTEX
8
0
10
86.2105498879361
20
76.8481518870988
30
0
0
VERTEX
8
0
10
88.3593671832486
20
75.9846933503738
30
0
0
VERTEX
8
0
10
90.508184478561
20
75.1515760259204
30
0
0
VERTEX
8
0
10
92.6570017738735
20
74.3177892752237
30
0
0
VERTEX
8
0
10
94.8058190691859
20
73.4899532766185
30
0
0
VERTEX
8
0
10
96.9546363644984
20
72.6725232062751
30
0
0
VERTEX
8
0
10
99.1034536598109
20
71.9545285871849
30
0
0
VERTEX
8
0
10
101.252270955123
20
71.2812754724565
30
0
0
VERTEX
8
0
10
103.401088250436
20
70.608208327796
30
0
0
VERTEX
8
0
10
105.549905545748
20
69.9347544399079
30
0
0
VERTEX
8
0
10
107.698722841061
20
69.2607126595991
30
0
0
VERTEX
8
0
10
109.847540136373
20
68.5894403073127
30
0
0
VERTEX
8
0
10
111.996357431686
20
67.9542197343922
30
0
0
VERTEX
8
0
10
114.145174726998
20
67.3398945321652
30
0
0
VERTEX
8
0
10
116.293992022311
20
66.7604123157369
30
0
0
VERTEX
8
0
10
118.442809317623
20
66.1915820819124
30
0
0
VERTEX
8
0
10
120.591626612936
20
65.6226663023029
30
0
0
VERTEX
8
0
10
122.740443908248
20
65.0521163365928
30
0
0
VERTEX
8
0
10
124.88926120356
20
64.4822533519031
30
0
0
VERTEX
8
0
10
127.038078498873
20
63.993682768692
30
0
0
VERTEX
8
0
10
129.186895794185
20
63.4813787842378
30
0
0
VERTEX
8
0
10
131.335713089498
20
62.9688157602441
30
0
0
VERTEX
8
0
10
133.48453038481
20
62.4581983211075
30
0
0
VERTEX
8
0
10
135.633347680123
20
61.9516587105722
30
0
0
VERTEX
8
0
10
137.782164975435
20
61.4512555123049
30
0
0
VERTEX
8
0
10
139.930982270748
20
60.9871210391491
30
0
0
VERTEX
8
0
10
142.07979956606
20
60.5969600182153
30
0
0
VERTEX
8
0
10
144.228616861373
20
60.2008575380863
30
0
0
VERTEX
8
0
10
146.377434156685
20
59.8047509294657
30
0
0
VERTEX
8
0
10
148.526251451998
20
59.4085570710747
30
0
0
VERTEX
8
0
10
150.67506874731
20
59.0122476709963
30
0
0
VERTEX
8
0
10
152.823886042622
20
58.615666195393
30
0
0
VERTEX
8
0
10
154.972703337935
20
58.2200760574515
30
0
0
VERTEX
8
0
10
157.121520633247
20
57.8274216395702
30
0
0
VERTEX
8
0
10
159.27033792856
20
57.4451158305292
30
0
0
VERTEX
8
0
10
161.419155223872
20
57.0682095330481
30
0
0
VERTEX
8
0
10
163.567972519185
20
56.7004964773327
30
0
0
VERTEX
8
0
10
165.716789814497
20
56.3351467297139
30
0
0
VERTEX
8
0
10
167.86560710981
20
55.9694236698444
30
0
0
VERTEX
8
0
10
170.014424405122
20
55.6038170939073
30
0
0
VERTEX
8
0
10
172.163241700435
20
55.2393018201747
30
0
0
VERTEX
8
0
10
174.312058995747
20
54.8771645291654
30
0
0
VERTEX
8
0
10
176.46087629106
20
54.5173094093175
30
0
0
VERTEX
8
0
10
178.609693586372
20
54.1596503904224
30
0
0
VERTEX
8
0
10
180.758510881685
20
53.8883177194515
30
0
0
VERTEX
8
0
10
182.907328176997
20
53.5941793644141
30
0
0
VERTEX
8
0
10
185.056145472309
20
53.3020277240927
30
0
0
VERTEX
8
0
10
187.204962767622
20
53.0117864431725
30
0
0
VERTEX
8
0
10
189.353780062934
20
52.7233374731379
30
0
0
VERTEX
8
0
10
191.502597358247
20
52.4363665815098
30
0
0
VERTEX
8
0
10
193.651414653559
20
52.1531128320822
30
0
0
VERTEX
8
0
10
195.800231948872
20
51.886905888548
30
0
0
VERTEX
8
0
10
197.949049244184
20
51.6210199552617
30
0
0
VERTEX
8
0
10
200.097866539497
20
51.3549793600949
30
0
0
VERTEX
8
0
10
202.246683834809
20
51.0896603036775
30
0
0
VERTEX
8
0
10
204.395501130122
20
50.8452260555047
30
0
0
VERTEX
8
0
10
206.544318425434
20
50.602062247903
30
0
0
VERTEX
8
0
10
208.693135720747
20
50.3588771648276
30
0
0
VERTEX
8
0
10
210.841953016059
20
50.1156698023698
30
0
0
VERTEX
8
0
10
212.990770311371
20
49.8720801965716
30
0
0
VERTEX
8
0
10
215.139587606684
20
49.6286693386577
30
0
0
VERTEX
8
0
10
217.288404901996
20
49.3855127162228
30
0
0
VERTEX
8
0
10
219.437222197309
20
49.1423096316408
30
0
0
VERTEX
8
0
10
221.586039492621
20
48.8990604843913
30
0
0
VERTEX
8
0
10
223.734856787934
20
48.6564763477247
30
0
0
VERTEX
8
0
10
225.883674083246
20
48.4151416414523
30
0
0
VERTEX
8
0
10
228.032491378559
20
48.1750075587377
30
0
0
VERTEX
8
0
10
230.181308673871
20
47.9634134819339
30
0
0
VERTEX
8
0
10
232.330125969184
20
47.7546138370952
30
0
0
VERTEX
8
0
10
234.478943264496
20
47.5472085113017
30
0
0
VERTEX
8
0
10
236.627760559809
20
47.3448395816348
30
0
0
VERTEX
8
0
10
238.776577855121
20
47.1473656998699
30
0
0
VERTEX
8
0
10
240.925395150434
20
46.9503499788114
30
0
0
VERTEX
8
0
10
243.074212445746
20
46.7527392777343
30
0
0
VERTEX
8
0
10
245.223029741058
20
46.5552115143484
30
0
0
VERTEX
8
0
10
247.371847036371
20
46.3579690644552
30
0
0
VERTEX
8
0
10
249.520664331683
20
46.160705166407
30
0
0
VERTEX
8
0
10
251.669481626996
20
45.9634176438506
30
0
0
VERTEX
8
0
10
253.818298922308
20
45.7660920033451
30
0
0
VERTEX
8
0
10
255.967116217621
20
45.5687162920307
30
0
0
VERTEX
8
0
10
258.115933512933
20
45.3716870282046
30
0
0
VERTEX
8
0
10
260.264750808246
20
45.175508126748
30
0
0
VERTEX
8
0
10
262.413568103558
20
45.0060496902316
30
0
0
VERTEX
8
0
10
264.562385398871
20
44.8330600558835
30
0
0
VERTEX
8
0
10
266.711202694183
20
44.6608573982193
30
0
0
VERTEX
8
0
10
268.860019989496
20
44.4893844029318
30
0
0
VERTEX
8
0
10
271.008837284808
20
44.3187534481031
30
0
0
VERTEX
8
0
10
273.15765458012
20
44.1500503201084
30
0
0
VERTEX
8
0
10
275.306471875433
20
43.984321854552
30
0
0
VERTEX
8
0
10
277.455289170745
20
43.8193996091772
30
0
0
VERTEX
8
0
10
279.604106466058
20
43.6543274218002
30
0
0
VERTEX
8
0
10
281.75292376137
20
43.489186589675
30
0
0
VERTEX
8
0
10
283.901741056683
20
43.3239985945
30
0
0
VERTEX
8
0
10
286.050558351995
20
43.158763217941
30
0
0
VERTEX
8
0
10
288.199375647308
20
42.9937339884108
30
0
0
VERTEX
8
0
10
290.34819294262
20
42.8293219694114
30
0
0
VERTEX
8
0
10
292.497010237933
20
42.6655737691281
30
0
0
VERTEX
8
0
10
294.645827533245
20
42.5024617145618
30
0
0
VERTEX
8
0
10
296.794644828558
20
42.3399681009819
30
0
0
VERTEX
8
0
10
298.94346212387
20
42.1780799237467
30
0
0
VERTEX
8
0
10
301.092279419183
20
42.0167858383426
30
0
0
SEQEND
8
0
0
POLYLINE
8
0
62
3
70
0
10
0
20
0
30
0
0
VERTEX
8
0
10
0.257858075437496
20
91.5470192845483
30
0
0
VERTEX
8
0
10
2.40667537074996
20
180.340731815148
30
0
0
VERTEX
8
0
10
4.55549266606242
20
171.689142759827
30
0
0
VERTEX
8
0
10
6.70430996137489
20
174.00657838845
30
0
0
VERTEX
8
0
10
8.85312725668735
20
174.944463927491
30
0
0
VERTEX
8
0
10
11.0019445519998
20
178.492835216885
30
0
0
VERTEX
8
0
10
13.1507618473123
20
181.624916484501
30
0
0
VERTEX
8
0
10
15.2995791426247
20
183.569554396124
30
0
0
VERTEX
8
0
10
17.4483964379372
20
183.454553024709
30
0
0
VERTEX
8
0
10
19.5972137332497
20
182.937838993921
30
0
0
VERTEX
8
0
10
21.7460310285621
20
183.776286243449
30
0
0
VERTEX
8
0
10
23.8948483238746
20
185.302058683263
30
0
0
VERTEX
8
0
10
26.0436656191871
20
186.86726934613
30
0
0
VERTEX
8
0
10
28.1924829144995
20
188.391327235524
30
0
0
VERTEX
8
0
10
30.341300209812
20
189.741250885928
30
0
0
VERTEX
8
0
10
32.4901175051245
20
190.860388335673
30
0
0
VERTEX
8
0
10
34.6389348004369
20
191.618554865043
30
0
0
VERTEX
8
0
10
36.7877520957494
20
192.016856021502
30
0
0
VERTEX
8
0
10
38.9365693910619
20
191.990909967665
30
0
0
VERTEX
8
0
10
41.0853866863743
20
191.23641583388
30
0
0
VERTEX
8
0
10
43.2342039816868
20
190.577576803717
30
0
0
VERTEX
8
0
10
45.3830212769993
20
190.342178824224
30
0
0
VERTEX
8
0
10
47.5318385723117
20
190.158452459427
30
0
0
VERTEX
8
0
10
49.6806558676242
20
190.040996112746
30
0
0
VERTEX
8
0
10
51.8294731629366
20
189.889863067579
30
0
0
VERTEX
8
0
10
53.9782904582491
20
189.693068307447
30
0
0
VERTEX
8
0
10
56.1271077535616
20
189.500580592443
30
0
0
VERTEX
8
0
10
58.275925048874
20
189.208206316446
30
0
0
VERTEX
8
0
10
60.4247423441865
20
188.855019496407
30
0
0
VERTEX
8
0
10
62.573559639499
20
188.495996853692
30
0
0
VERTEX
8
0
10
64.7223769348114
20
188.037111742653
30
0
0
VERTEX
8
0
10
66.8711942301239
20
187.509759937806
30
0
0
VERTEX
8
0
10
69.0200115254364
20
186.914723353845
30
0
0
VERTEX
8
0
10
71.1688288207488
20
186.296373718386
30
0
0
VERTEX
8
0
10
73.3176461160613
20
185.624083114168
30
0
0
VERTEX
8
0
10
75.4664634113738
20
184.911856883646
30
0
0
VERTEX
8
0
10
77.6152807066862
20
184.190784941881
30
0
0
VERTEX
8
0
10
79.7640980019987
20
183.477515330746
30
0
0
VERTEX
8
0
10
81.9129152973112
20
182.81080175426
30
0
0
VERTEX
8
0
10
84.0617325926236
20
182.247670086969
30
0
0
VERTEX
8
0
10
86.2105498879361
20
181.746331016095
30
0
0
VERTEX
8
0
10
88.3593671832486
20
181.281440982782
30
0
0
VERTEX
8
0
10
90.508184478561
20
180.844602107033
30
0
0
VERTEX
8
0
10
92.6570017738735
20
180.430826682787
30
0
0
VERTEX
8
0
10
94.8058190691859
20
180.04194556799
30
0
0
VERTEX
8
0
10
96.9546363644984
20
179.675994844129
30
0
0
VERTEX
8
0
10
99.1034536598109
20
179.340947156519
30
0
0
VERTEX
8
0
10
101.252270955123
20
179.029683364867
30
0
0
VERTEX
8
0
10
103.401088250436
20
178.731112518115
30
0
0
VERTEX
8
0
10
105.549905545748
20
178.443303765934
30
0
0
VERTEX
8
0
10
107.698722841061
20
178.164892466907
30
0
0
VERTEX
8
0
10
109.847540136373
20
177.89857019608
30
0
0
VERTEX
8
0
10
111.996357431686
20
177.6446259482
30
0
0
VERTEX
8
0
10
114.145174726998
20
177.402795497985
30
0
0
VERTEX
8
0
10
116.293992022311
20
177.185174097385
30
0
0
VERTEX
8
0
10
118.442809317623
20
176.980205413569
30
0
0
VERTEX
8
0
10
120.591626612936
20
176.781321086998
30
0
0
VERTEX
8
0
10
122.740443908248
20
176.58388689157
30
0
0
VERTEX
8
0
10
124.88926120356
20
176.393235210525
30
0
0
VERTEX
8
0
10
127.038078498873
20
176.210458317913
30
0
0
VERTEX
8
0
10
129.186895794185
20
176.031738287414
30
0
0
VERTEX
8
0
10
131.335713089498
20
175.856878055574
30
0
0
VERTEX
8
0
10
133.48453038481
20
175.687011615013
30
0
0
VERTEX
8
0
10
135.633347680123
20
175.523139651448
30
0
0
VERTEX
8
0
10
137.782164975435
20
175.366205976205
30
0
0
VERTEX
8
0
10
139.930982270748
20
175.22429647297
30
0
0
VERTEX
8
0
10
142.07979956606
20
175.087009210332
30
0
0
VERTEX
8
0
10
144.228616861373
20
174.951654095331
30
0
0
VERTEX
8
0
10
146.377434156685
20
174.818664777861
30
0
0
VERTEX
8
0
10
148.526251451998
20
174.6878145819
30
0
0
VERTEX
8
0
10
150.67506874731
20
174.558959113573
30
0
0
VERTEX
8
0
10
152.823886042622
20
174.431765467978
30
0
0
VERTEX
8
0
10
154.972703337935
20
174.307767077116
30
0
0
VERTEX
8
0
10
157.121520633247
20
174.187118597192
30
0
0
VERTEX
8
0
10
159.27033792856
20
174.069794121422
30
0
0
VERTEX
8
0
10
161.419155223872
20
173.955898977948
30
0
0
VERTEX
8
0
10
163.567972519185
20
173.848028388053
30
0
0
VERTEX
8
0
10
165.716789814497
20
173.742733723626
30
0
0
VERTEX
8
0
10
167.86560710981
20
173.638282050697
30
0
0
VERTEX
8
0
10
170.014424405122
20
173.536370877956
30
0
0
VERTEX
8
0
10
172.163241700435
20
173.43658757828
30
0
0
VERTEX
8
0
10
174.312058995747
20
173.339364175835
30
0
0
VERTEX
8
0
10
176.46087629106
20
173.244645348792
30
0
0
VERTEX
8
0
10
178.609693586372
20
173.152371242297
30
0
0
VERTEX
8
0
10
180.758510881685
20
173.062487894551
30
0
0
VERTEX
8
0
10
182.907328176997
20
172.974946036325
30
0
0
VERTEX
8
0
10
185.056145472309
20
172.889702545305
30
0
0
VERTEX
8
0
10
187.204962767622
20
172.806721681324
30
0
0
VERTEX
8
0
10
189.353780062934
20
172.725970296914
30
0
0
VERTEX
8
0
10
191.502597358247
20
172.647384069303
30
0
0
VERTEX
8
0
10
193.651414653559
20
172.572225383719
30
0
0
VERTEX
8
0
10
195.800231948872
20
172.506117330872
30
0
0
VERTEX
8
0
10
197.949049244184
20
172.436918472811
30
0
0
VERTEX
8
0
10
200.097866539497
20
172.369363290656
30
0
0
VERTEX
8
0
10
202.246683834809
20
172.306133124945
30
0
0
VERTEX
8
0
10
204.395501130122
20
172.243622889278
30
0
0
VERTEX
8
0
10
206.544318425434
20
172.181739766364
30
0
0
VERTEX
8
0
10
208.693135720747
20
172.12041010588
30
0
0
VERTEX
8
0
10
210.841953016059
20
172.059576866019
30
0
0
VERTEX
8
0
10
212.990770311371
20
171.997921277186
30
0
0
VERTEX
8
0
10
215.139587606684
20
171.937361084828
30
0
0
VERTEX
8
0
10
217.288404901996
20
171.878413826373
30
0
0
VERTEX
8
0
10
219.437222197309
20
171.819863859388
30
0
0
VERTEX
8
0
10
221.586039492621
20
171.76172712831
30
0
0
VERTEX
8
0
10
223.734856787934
20
171.704371635439
30
0
0
VERTEX
8
0
10
225.883674083246
20
171.648044112576
30
0
0
VERTEX
8
0
10
228.032491378559
20
171.592749604278
30
0
0
VERTEX
8
0
10
230.181308673871
20
171.538483279134
30
0
0
VERTEX
8
0
10
232.330125969184
20
171.48522670967
30
0
0
VERTEX
8
0
10
234.478943264496
20
171.433141268447
30
0
0
VERTEX
8
0
10
236.627760559809
20
171.383548115177
30
0
0
VERTEX
8
0
10
238.776577855121
20
171.336538671469
30
0
0
VERTEX
8
0
10
240.925395150434
20
171.290058724468
30
0
0
VERTEX
8
0
10
243.074212445746
20
171.242422766003
30
0
0
VERTEX
8
0
10
245.223029741058
20
171.19559581132
30
0
0
VERTEX
8
0
10
247.371847036371
20
171.150459848359
30
0
0
VERTEX
8
0
10
249.520664331683
20
171.105565518891
30
0
0
VERTEX
8
0
10
251.669481626996
20
171.060894390988
30
0
0
VERTEX
8
0
10
253.818298922308
20
171.016434480303
30
0
0
VERTEX
8
0
10
255.967116217621
20
170.972185525419
30
0
0
VERTEX
8
0
10
258.115933512933
20
170.928441750124
30
0
0
VERTEX
8
0
10
260.264750808246
20
170.885350926531
30
0
0
VERTEX
8
0
10
262.413568103558
20
170.842895459695
30
0
0
VERTEX
8
0
10
264.562385398871
20
170.801069707252
30
0
0
VERTEX
8
0
10
266.711202694183
20
170.75986826036
30
0
0
VERTEX
8
0
10
268.860019989496
20
170.719281237661
30
0
0
VERTEX
8
0
10
271.008837284808
20
170.679352774295
30
0
0
VERTEX
8
0
10
273.15765458012
20
170.640404630541
30
0
0
VERTEX
8
0
10
275.306471875433
20
170.602065401861
30
0
0
VERTEX
8
0
10
277.455289170745
20
170.565304298685
30
0
0
VERTEX
8
0
10
279.604106466058
20
170.528715102311
30
0
0
VERTEX
8
0
10
281.75292376137
20
170.49229080222
30
0
0
VERTEX
8
0
10
283.901741056683
20
170.456021324734
30
0
0
VERTEX
8
0
10
286.050558351995
20
170.41990106187
30
0
0
VERTEX
8
0
10
288.199375647308
20
170.38411668899
30
0
0
VERTEX
8
0
10
290.34819294262
20
170.348811725437
30
0
0
VERTEX
8
0
10
292.497010237933
20
170.313963259134
30
0
0
VERTEX
8
0
10
294.645827533245
20
170.279563991159
30
0
0
VERTEX
8
0
10
296.794644828558
20
170.245607531325
30
0
0
VERTEX
8
0
10
298.94346212387
20
170.212087779247
30
0
0
VERTEX
8
0
10
301.092279419183
20
170.178998464711
30
0
0
SEQEND
8
0
0
POLYLINE
8
0
62
4
70
0
10
0
20
0
30
0
0
VERTEX
8
0
10
0.257858075437496
20
89.8776115486588
30
0
0
VERTEX
8
0
10
2.40667537074996
20
178.798707963608
30
0
0
VERTEX
8
0
10
4.55549266606242
20
171.591964835032
30
0
0
VERTEX
8
0
10
6.70430996137489
20
172.058884222946
30
0
0
VERTEX
8
0
10
8.85312725668735
20
175.488661966673
30
0
0
VERTEX
8
0
10
11.0019445519998
20
178.741668528769
30
0
0
VERTEX
8
0
10
13.1507618473123
20
181.197220399046
30
0
0
VERTEX
8
0
10
15.2995791426247
20
183.370875374784
30
0
0
VERTEX
8
0
10
17.4483964379372
20
184.240684443623
30
0
0
VERTEX
8
0
10
19.5972137332497
20
185.012687884469
30
0
0
VERTEX
8
0
10
21.7460310285621
20
185.282197285619
30
0
0
VERTEX
8
0
10
23.8948483238746
20
185.657472747583
30
0
0
VERTEX
8
0
10
26.0436656191871
20
186.091361103169
30
0
0
VERTEX
8
0
10
28.1924829144995
20
186.509712149146
30
0
0
VERTEX
8
0
10
30.341300209812
20
186.730948756874
30
0
0
VERTEX
8
0
10
32.4901175051245
20
187.016145058626
30
0
0
VERTEX
8
0
10
34.6389348004369
20
187.088085626599
30
0
0
VERTEX
8
0
10
36.7877520957494
20
187.112251235522
30
0
0
VERTEX
8
0
10
38.9365693910619
20
187.043091822791
30
0
0
VERTEX
8
0
10
41.0853866863743
20
186.872858060531
30
0
0
VERTEX
8
0
10
43.2342039816868
20
186.632009545918
30
0
0
VERTEX
8
0
10
45.3830212769993
20
186.494717274884
30
0
0
VERTEX
8
0
10
47.5318385723117
20
186.314550423109
30
0
0
VERTEX
8
0
10
49.6806558676242
20
186.15628006866
30
0
0
VERTEX
8
0
10
51.8294731629366
20
185.977723894365
30
0
0
VERTEX
8
0
10
53.9782904582491
20
185.748205367296
30
0
0
VERTEX
8
0
10
56.1271077535616
20
185.532590354628
30
0
0
VERTEX
8
0
10
58.275925048874
20
185.303271011418
30
0
0
VERTEX
8
0
10
60.4247423441865
20
185.017684805062
30
0
0
VERTEX
8
0
10
62.573559639499
20
184.750750935197
30
0
0
VERTEX
8
0
10
64.7223769348114
20
184.460663019109
30
0
0
VERTEX
8
0
10
66.8711942301239
20
184.114292676621
30
0
0
VERTEX
8
0
10
69.0200115254364
20
183.722018456097
30
0
0
VERTEX
8
0
10
71.1688288207488
20
183.37556975261
30
0
0
VERTEX
8
0
10
73.3176461160613
20
183.001074577546
30
0
0
VERTEX
8
0
10
75.4664634113738
20
182.593123797442
30
0
0
VERTEX
8
0
10
77.6152807066862
20
182.173327163136
30
0
0
VERTEX
8
0
10
79.7640980019987
20
181.776671040706
30
0
0
VERTEX
8
0
10
81.9129152973112
20
181.385363451386
30
0
0
VERTEX
8
0
10
84.0617325926236
20
181.022516140226
30
0
0
VERTEX
8
0
10
86.2105498879361
20
180.670994026311
30
0
0
VERTEX
8
0
10
88.3593671832486
20
180.345218224188
30
0
0
VERTEX
8
0
10
90.508184478561
20
180.032403283086
30
0
0
VERTEX
8
0
10
92.6570017738735
20
179.719485526165
30
0
0
VERTEX
8
0
10
94.8058190691859
20
179.411928992823
30
0
0
VERTEX
8
0
10
96.9546363644984
20
179.11052220821
30
0
0
VERTEX
8
0
10
99.1034536598109
20
178.853544609866
30
0
0
VERTEX
8
0
10
101.252270955123
20
178.617663715936
30
0
0
VERTEX
8
0
10
103.401088250436
20
178.382432753832
30
0
0
VERTEX
8
0
10
105.549905545748
20
178.147178454426
30
0
0
VERTEX
8
0
10
107.698722841061
20
177.91161580877
30
0
0
VERTEX
8
0
10
109.847540136373
20
177.679377296902
30
0
0
VERTEX
8
0
10
111.996357431686
20
177.46275393249
30
0
0
VERTEX
8
0
10
114.145174726998
20
177.256021619728
30
0
0
VERTEX
8
0
10
116.293992022311
20
177.066654673471
30
0
0
VERTEX
8
0
10
118.442809317623
20
176.883656508977
30
0
0
VERTEX
8
0
10
120.591626612936
20
176.700969294287
30
0
0
VERTEX
8
0
10
122.740443908248
20
176.514421854563
30
0
0
VERTEX
8
0
10
124.88926120356
20
176.329769653575
30
0
0
VERTEX
8
0
10
127.038078498873
20
176.177702875439
30
0
0
VERTEX
8
0
10
129.186895794185
20
176.016585399657
30
0
0
VERTEX
8
0
10
131.335713089498
20
175.855168164683
30
0
0
VERTEX
8
0
10
133.48453038481
20
175.694876235622
30
0
0
VERTEX
8
0
10
135.633347680123
20
175.536977624615
30
0
0
VERTEX
8
0
10
137.782164975435
20
175.38266250573
30
0
0
VERTEX
8
0
10
139.930982270748
20
175.2402438859
30
0
0
VERTEX
8
0
10
142.07979956606
20
175.128305252888
30
0
0
VERTEX
8
0
10
144.228616861373
20
175.013576044962
30
0
0
VERTEX
8
0
10
146.377434156685
20
174.898311220802
30
0
0
VERTEX
8
0
10
148.526251451998
20
174.782453169093
30
0
0
VERTEX
8
0
10
150.67506874731
20
174.666015002927
30
0
0
VERTEX
8
0
10
152.823886042622
20
174.548810933679
30
0
0
VERTEX
8
0
10
154.972703337935
20
174.432510599439
30
0
0
VERTEX
8
0
10
157.121520633247
20
174.317396863327
30
0
0
VERTEX
8
0
10
159.27033792856
20
174.206033580962
30
0
0
VERTEX
8
0
10
161.419155223872
20
174.09688179811
30
0
0
VERTEX
8
0
10
163.567972519185
20
173.991889939325
30
0
0
VERTEX
8
0
10
165.716789814497
20
173.887712128169
30
0
0
VERTEX
8
0
10
167.86560710981
20
173.782711151069
30
0
0
VERTEX
8
0
10
170.014424405122
20
173.678672008981
30
0
0
VERTEX
8
0
10
172.163241700435
20
173.575266363239
30
0
0
VERTEX
8
0
10
174.312058995747
20
173.473005252761
30
0
0
VERTEX
8
0
10
176.46087629106
20
173.371908524681
30
0
0
VERTEX
8
0
10
178.609693586372
20
173.271987540768
30
0
0
VERTEX
8
0
10
180.758510881685
20
173.199434270251
30
0
0
VERTEX
8
0
10
182.907328176997
20
173.120106677585
30
0
0
VERTEX
8
0
10
185.056145472309
20
173.041794521942
30
0
0
VERTEX
8
0
10
187.204962767622
20
172.964519257578
30
0
0
VERTEX
8
0
10
189.353780062934
20
172.88830212122
30
0
0
VERTEX
8
0
10
191.502597358247
20
172.813130574644
30
0
0
VERTEX
8
0
10
193.651414653559
20
172.740315033446
30
0
0
VERTEX
8
0
10
195.800231948872
20
172.675519984773
30
0
0
VERTEX
8
0
10
197.949049244184
20
172.606660674552
30
0
0
VERTEX
8
0
10
200.097866539497
20
172.538509755979
30
0
0
VERTEX
8
0
10
202.246683834809
20
172.473786803547
30
0
0
VERTEX
8
0
10
204.395501130122
20
172.41509625061
30
0
0
VERTEX
8
0
10
206.544318425434
20
172.356535991716
30
0
0
VERTEX
8
0
10
208.693135720747
20
172.297684480838
30
0
0
VERTEX
8
0
10
210.841953016059
20
172.238518762718
30
0
0
VERTEX
8
0
10
212.990770311371
20
172.177753997844
30
0
0
VERTEX
8
0
10
215.139587606684
20
172.11733708866
30
0
0
VERTEX
8
0
10
217.288404901996
20
172.057814860719
30
0
0
VERTEX
8
0
10
219.437222197309
20
171.998001537236
30
0
0
VERTEX
8
0
10
221.586039492621
20
171.937940459141
30
0
0
VERTEX
8
0
10
223.734856787934
20
171.878025549927
30
0
0
VERTEX
8
0
10
225.883674083246
20
171.818528547936
30
0
0
VERTEX
8
0
10
228.032491378559
20
171.75947876092
30
0
0
VERTEX
8
0
10
230.181308673871
20
171.708549219892
30
0
0
VERTEX
8
0
10
232.330125969184
20
171.658522944604
30
0
0
VERTEX
8
0
10
234.478943264496
20
171.609078061726
30
0
0
VERTEX
8
0
10
236.627760559809
20
171.561554985934
30
0
0
VERTEX
8
0
10
238.776577855121
20
171.516064862768
30
0
0
VERTEX
8
0
10
240.925395150434
20
171.470574751737
30
0
0
VERTEX
8
0
10
243.074212445746
20
171.423419379965
30
0
0
VERTEX
8
0
10
245.223029741058
20
171.376579467296
30
0
0
VERTEX
8
0
10
247.371847036371
20
171.330953194076
30
0
0
VERTEX
8
0
10
249.520664331683
20
171.285109246664
30
0
0
VERTEX
8
0
10
251.669481626996
20
171.239045135062
30
0
0
VERTEX
8
0
10
253.818298922308
20
171.192764244878
30
0
0
VERTEX
8
0
10
255.967116217621
20
171.146281132752
30
0
0
VERTEX
8
0
10
258.115933512933
20
171.099904029974
30
0
0
VERTEX
8
0
10
260.264750808246
20
171.053794388211
30
0
0
VERTEX
8
0
10
262.413568103558
20
171.014750982838
30
0
0
VERTEX
8
0
10
264.562385398871
20
170.974784606343
30
0
0
VERTEX
8
0
10
266.711202694183
20
170.935052322867
30
0
0
VERTEX
8
0
10
268.860019989496
20
170.895556287331
30
0
0
VERTEX
8
0
10
271.008837284808
20
170.856352223189
30
0
0
VERTEX
8
0
10
273.15765458012
20
170.817772814417
30
0
0
VERTEX
8
0
10
275.306471875433
20
170.779457939885
30
0
0
VERTEX
8
0
10
277.455289170745
20
170.742386359403
30
0
0
VERTEX
8
0
10
279.604106466058
20
170.705163540865
30
0
0
VERTEX
8
0
10
281.75292376137
20
170.667792383973
30
0
0
VERTEX
8
0
10
283.901741056683
20
170.630272417748
30
0
0
VERTEX
8
0
10
286.050558351995
20
170.59260733385
30
0
0
VERTEX
8
0
10
288.199375647308
20
170.554992627889
30
0
0
VERTEX
8
0
10
290.34819294262
20
170.51758041587
30
0
0
VERTEX
8
0
10
292.497010237933
20
170.480356289783
30
0
0
VERTEX
8
0
10
294.645827533245
20
170.443321186885
30
0
0
VERTEX
8
0
10
296.794644828558
20
170.406476709686
30
0
0
VERTEX
8
0
10
298.94346212387
20
170.369824516708
30
0
0
VERTEX
8
0
10
301.092279419183
20
170.333365871926
30
0
0
SEQEND
8
0
0
POLYLINE
8
0
62
2
70
0
10
0
20
0
30
0
0
VERTEX
8
0
10
0.257858075437496
20
88.5109144434132
30
0
0
VERTEX
8
0
10
2.40667537074996
20
165.790214380311
30
0
0
VERTEX
8
0
10
4.55549266606242
20
144.337788836539
30
0
0
VERTEX
8
0
10
6.70430996137489
20
130.515096980569
30
0
0
VERTEX
8
0
10
8.85312725668735
20
120.335343425023
30
0
0
VERTEX
8
0
10
11.0019445519998
20
111.80455318855
30
0
0
VERTEX
8
0
10
13.1507618473123
20
104.974325161088
30
0
0
VERTEX
8
0
10
15.2995791426247
20
98.9588621211692
30
0
0
VERTEX
8
0
10
17.4483964379372
20
93.8200067893197
30
0
0
VERTEX
8
0
10
19.5972137332497
20
89.8650588708817
30
0
0
VERTEX
8
0
10
21.7460310285621
20
85.7339387093124
30
0
0
VERTEX
8
0
10
23.8948483238746
20
82.3794527938194
30
0
0
VERTEX
8
0
10
26.0436656191871
20
79.5015367003372
30
0
0
VERTEX
8
0
10
28.1924829144995
20
76.8558142761618
30
0
0
VERTEX
8
0
10
30.341300209812
20
74.3540139503748
30
0
0
VERTEX
8
0
10
32.4901175051245
20
72.3208147206525
30
0
0
VERTEX
8
0
10
34.6389348004369
20
70.2846002595824
30
0
0
VERTEX
8
0
10
36.7877520957494
20
68.3791525986245
30
0
0
VERTEX
8
0
10
38.9365693910619
20
66.6407465996396
30
0
0
VERTEX
8
0
10
41.0853866863743
20
65.0512354741763
30
0
0
VERTEX
8
0
10
43.2342039816868
20
63.4673203797686
30
0
0
VERTEX
8
0
10
45.3830212769993
20
62.1711533846166
30
0
0
VERTEX
8
0
10
47.5318385723117
20
60.8342433217768
30
0
0
VERTEX
8
0
10
49.6806558676242
20
59.6637555366153
30
0
0
VERTEX
8
0
10
51.8294731629366
20
58.4930836540349
30
0
0
VERTEX
8
0
10
53.9782904582491
20
57.3294199297138
30
0
0
VERTEX
8
0
10
56.1271077535616
20
56.365955709375
30
0
0
VERTEX
8
0
10
58.275925048874
20
55.3400323829948
30
0
0
VERTEX
8
0
10
60.4247423441865
20
54.3455209770674
30
0
0
VERTEX
8
0
10
62.573559639499
20
53.5809311763774
30
0
0
VERTEX
8
0
10
64.7223769348114
20
52.7563248624765
30
0
0
VERTEX
8
0
10
66.8711942301239
20
51.9327397394811
30
0
0
VERTEX
8
0
10
69.0200115254364
20
51.1196783146922
30
0
0
VERTEX
8
0
10
71.1688288207488
20
50.4293819610333
30
0
0
VERTEX
8
0
10
73.3176461160613
20
49.726121085172
30
0
0
VERTEX
8
0
10
75.4664634113738
20
49.021960992928
30
0
0
VERTEX
8
0
10
77.6152807066862
20
48.3524689753592
30
0
0
VERTEX
8
0
10
79.7640980019987
20
47.698179863806
30
0
0
VERTEX
8
0
10
81.9129152973112
20
47.0682028575026
30
0
0
VERTEX
8
0
10
84.0617325926236
20
46.5252242373945
30
0
0
VERTEX
8
0
10
86.2105498879361
20
46.0099655181379
30
0
0
VERTEX
8
0
10
88.3593671832486
20
45.4945696352787
30
0
0
VERTEX
8
0
10
90.508184478561
20
44.9783633988448
30
0
0
VERTEX
8
0
10
92.6570017738735
20
44.4610274888106
30
0
0
VERTEX
8
0
10
94.8058190691859
20
43.95362986813
30
0
0
VERTEX
8
0
10
96.9546363644984
20
43.4636281753813
30
0
0
VERTEX
8
0
10
99.1034536598109
20
43.0230520652761
30
0
0
VERTEX
8
0
10
101.252270955123
20
42.6127166956994
30
0
0
VERTEX
8
0
10
103.401088250436
20
42.2026902130723
30
0
0
VERTEX
8
0
10
105.549905545748
20
41.7920143524076
30
0
0
VERTEX
8
0
10
107.698722841061
20
41.3803519877591
30
0
0
VERTEX
8
0
10
109.847540136373
20
40.9733228087555
30
0
0
VERTEX
8
0
10
111.996357431686
20
40.5777451074908
30
0
0
VERTEX
8
0
10
114.145174726998
20
40.1942890547052
30
0
0
VERTEX
8
0
10
116.293992022311
20
39.869193722018
30
0
0
VERTEX
8
0
10
118.442809317623
20
39.5619058211883
30
0
0
VERTEX
8
0
10
120.591626612936
20
39.2544329254387
30
0
0
VERTEX
8
0
10
122.740443908248
20
38.9441876186319
30
0
0
VERTEX
8
0
10
124.88926120356
20
38.6350496858844
30
0
0
VERTEX
8
0
10
127.038078498873
20
38.3272310280321
30
0
0
VERTEX
8
0
10
129.186895794185
20
38.0191835352798
30
0
0
VERTEX
8
0
10
131.335713089498
20
37.710703441678
30
0
0
VERTEX
8
0
10
133.48453038481
20
37.4054720051298
30
0
0
VERTEX
8
0
10
135.633347680123
20
37.1070490486653
30
0
0
VERTEX
8
0
10
137.782164975435
20
36.8188677305594
30
0
0
VERTEX
8
0
10
139.930982270748
20
36.5911623960024
30
0
0
VERTEX
8
0
10
142.07979956606
20
36.3479792540648
30
0
0
VERTEX
8
0
10
144.228616861373
20
36.1027430667222
30
0
0
VERTEX
8
0
10
146.377434156685
20
35.8574974336958
30
0
0
VERTEX
8
0
10
148.526251451998
20
35.6121036338172
30
0
0
VERTEX
8
0
10
150.67506874731
20
35.3665143075104
30
0
0
VERTEX
8
0
10
152.823886042622
20
35.1204680117883
30
0
0
VERTEX
8
0
10
154.972703337935
20
34.8760734654139
30
0
0
VERTEX
8
0
10
157.121520633247
20
34.6365780027065
30
0
0
VERTEX
8
0
10
159.27033792856
20
34.4018561997981
30
0
0
VERTEX
8
0
10
161.419155223872
20
34.1723699949885
30
0
0
VERTEX
8
0
10
163.567972519185
20
33.9582354312536
30
0
0
VERTEX
8
0
10
165.716789814497
20
33.7480443500483
30
0
0
VERTEX
8
0
10
167.86560710981
20
33.5372267845607
30
0
0
VERTEX
8
0
10
170.014424405122
20
33.3266003434402
30
0
0
VERTEX
8
0
10
172.163241700435
20
33.1177908033932
30
0
0
VERTEX
8
0
10
174.312058995747
20
32.912941868821
30
0
0
VERTEX
8
0
10
176.46087629106
20
32.7118892914638
30
0
0
VERTEX
8
0
10
178.609693586372
20
32.5144843537311
30
0
0
VERTEX
8
0
10
180.758510881685
20
32.3206082497337
30
0
0
VERTEX
8
0
10
182.907328176997
20
32.1301492747269
30
0
0
VERTEX
8
0
10
185.056145472309
20
31.9429958685876
30
0
0
VERTEX
8
0
10
187.204962767622
20
31.7590241910074
30
0
0
VERTEX
8
0
10
189.353780062934
20
31.5780400801101
30
0
0
VERTEX
8
0
10
191.502597358247
20
31.3995210442722
30
0
0
VERTEX
8
0
10
193.651414653559
20
31.2272082546303
30
0
0
VERTEX
8
0
10
195.800231948872
20
31.0833593900422
30
0
0
VERTEX
8
0
10
197.949049244184
20
30.9400338672198
30
0
0
VERTEX
8
0
10
200.097866539497
20
30.7964374721662
30
0
0
VERTEX
8
0
10
202.246683834809
20
30.6540307705674
30
0
0
VERTEX
8
0
10
204.395501130122
20
30.5115579380779
30
0
0
VERTEX
8
0
10
206.544318425434
20
30.3690437982892
30
0
0
VERTEX
8
0
10
208.693135720747
20
30.2264936100412
30
0
0
VERTEX
8
0
10
210.841953016059
20
30.083905704466
30
0
0
VERTEX
8
0
10
212.990770311371
20
29.9406804988321
30
0
0
VERTEX
8
0
10
215.139587606684
20
29.7977525275983
30
0
0
VERTEX
8
0
10
217.288404901996
20
29.6552473982284
30
0
0
VERTEX
8
0
10
219.437222197309
20
29.512664255184
30
0
0
VERTEX
8
0
10
221.586039492621
20
29.3700037815795
30
0
0
VERTEX
8
0
10
223.734856787934
20
29.2284497310869
30
0
0
VERTEX
8
0
10
225.883674083246
20
29.0889743264605
30
0
0
VERTEX
8
0
10
228.032491378559
20
28.9514951505287
30
0
0
VERTEX
8
0
10
230.181308673871
20
28.815892663547
30
0
0
VERTEX
8
0
10
232.330125969184
20
28.6819428984889
30
0
0
VERTEX
8
0
10
234.478943264496
20
28.5503112874965
30
0
0
VERTEX
8
0
10
236.627760559809
20
28.4270657516704
30
0
0
VERTEX
8
0
10
238.776577855121
20
28.3119724263304
30
0
0
VERTEX
8
0
10
240.925395150434
20
28.1976412933338
30
0
0
VERTEX
8
0
10
243.074212445746
20
28.0823187368625
30
0
0
VERTEX
8
0
10
245.223029741058
20
27.9671336081229
30
0
0
VERTEX
8
0
10
247.371847036371
20
27.8524226860334
30
0
0
VERTEX
8
0
10
249.520664331683
20
27.7376752613064
30
0
0
VERTEX
8
0
10
251.669481626996
20
27.6228877171756
30
0
0
VERTEX
8
0
10
253.818298922308
20
27.5080359464625
30
0
0
VERTEX
8
0
10
255.967116217621
20
27.3931000813534
30
0
0
VERTEX
8
0
10
258.115933512933
20
27.2787396645941
30
0
0
VERTEX
8
0
10
260.264750808246
20
27.1657924217714
30
0
0
VERTEX
8
0
10
262.413568103558
20
27.0542793077161
30
0
0
VERTEX
8
0
10
264.562385398871
20
26.9441329661578
30
0
0
VERTEX
8
0
10
266.711202694183
20
26.8352941564793
30
0
0
VERTEX
8
0
10
268.860019989496
20
26.7276682388053
30
0
0
VERTEX
8
0
10
271.008837284808
20
26.6214429088777
30
0
0
VERTEX
8
0
10
273.15765458012
20
26.5184264892173
30
0
0
VERTEX
8
0
10
275.306471875433
20
26.4203623830887
30
0
0
VERTEX
8
0
10
277.455289170745
20
26.323640235055
30
0
0
VERTEX
8
0
10
279.604106466058
20
26.226668180432
30
0
0
VERTEX
8
0
10
281.75292376137
20
26.1295815872197
30
0
0
VERTEX
8
0
10
283.901741056683
20
26.0324162308582
30
0
0
VERTEX
8
0
10
286.050558351995
20
25.9351717639476
30
0
0
VERTEX
8
0
10
288.199375647308
20
25.8382700645016
30
0
0
VERTEX
8
0
10
290.34819294262
20
25.7423949579303
30
0
0
VERTEX
8
0
10
292.497010237933
20
25.6476236213829
30
0
0
VERTEX
8
0
10
294.645827533245
20
25.5539095472999
30
0
0
VERTEX
8
0
10
296.794644828558
20
25.4612227424078
30
0
0
VERTEX
8
0
10
298.94346212387
20
25.3695409616887
30
0
0
VERTEX
8
0
10
301.092279419183
20
25.2788446523658
30
0
0
SEQEND
8
0
0
POLYLINE
8
0
62
4
70
0
10
0
20
0
30
0
0
VERTEX
8
0
10
0.257858075437496
20
89.8028032810676
30
0
0
VERTEX
8
0
10
2.40667537074996
20
175.556770253568
30
0
0
VERTEX
8
0
10
4.55549266606242
20
160.676195420775
30
0
0
VERTEX
8
0
10
6.70430996137489
20
151.748780473722
30
0
0
VERTEX
8
0
10
8.85312725668735
20
145.485020146844
30
0
0
VERTEX
8
0
10
11.0019445519998
20
140.270221180195
30
0
0
VERTEX
8
0
10
13.1507618473123
20
136.242407306942
30
0
0
VERTEX
8
0
10
15.2995791426247
20
132.714328901457
30
0
0
VERTEX
8
0
10
17.4483964379372
20
129.759010924211
30
0
0
VERTEX
8
0
10
19.5972137332497
20
127.641385320471
30
0
0
VERTEX
8
0
10
21.7460310285621
20
125.377820901133
30
0
0
VERTEX
8
0
10
23.8948483238746
20
123.644805581891
30
0
0
VERTEX
8
0
10
26.0436656191871
20
122.227951351551
30
0
0
VERTEX
8
0
10
28.1924829144995
20
120.944302077073
30
0
0
VERTEX
8
0
10
30.341300209812
20
119.738730429826
30
0
0
VERTEX
8
0
10
32.4901175051245
20
118.816020249972
30
0
0
VERTEX
8
0
10
34.6389348004369
20
117.872199823225
30
0
0
VERTEX
8
0
10
36.7877520957494
20
117.016181747754
30
0
0
VERTEX
8
0
10
38.9365693910619
20
116.252945690792
30
0
0
VERTEX
8
0
10
41.0853866863743
20
115.571157868692
30
0
0
VERTEX
8
0
10
43.2342039816868
20
114.886520847724
30
0
0
VERTEX
8
0
10
45.3830212769993
20
114.374050433869
30
0
0
VERTEX
8
0
10
47.5318385723117
20
113.815145957388
30
0
0
VERTEX
8
0
10
49.6806558676242
20
113.348670326524
30
0
0
VERTEX
8
0
10
51.8294731629366
20
112.890469082025
30
0
0
VERTEX
8
0
10
53.9782904582491
20
112.427233648948
30
0
0
VERTEX
8
0
10
56.1271077535616
20
112.072562304036
30
0
0
VERTEX
8
0
10
58.275925048874
20
111.677974414478
30
0
0
VERTEX
8
0
10
60.4247423441865
20
111.301500917833
30
0
0
VERTEX
8
0
10
62.573559639499
20
111.044692987905
30
0
0
VERTEX
8
0
10
64.7223769348114
20
110.75044026472
30
0
0
VERTEX
8
0
10
66.8711942301239
20
110.460066628274
30
0
0
VERTEX
8
0
10
69.0200115254364
20
110.169472912832
30
0
0
VERTEX
8
0
10
71.1688288207488
20
109.940910619879
30
0
0
VERTEX
8
0
10
73.3176461160613
20
109.702398131701
30
0
0
VERTEX
8
0
10
75.4664634113738
20
109.459791389049
30
0
0
VERTEX
8
0
10
77.6152807066862
20
109.233772928765
30
0
0
VERTEX
8
0
10
79.7640980019987
20
109.01490362439
30
0
0
VERTEX
8
0
10
81.9129152973112
20
108.806452886763
30
0
0
VERTEX
8
0
10
84.0617325926236
20
108.643164340847
30
0
0
VERTEX
8
0
10
86.2105498879361
20
108.494308452498
30
0
0
VERTEX
8
0
10
88.3593671832486
20
108.343012625143
30
0
0
VERTEX
8
0
10
90.508184478561
20
108.18820837945
30
0
0
VERTEX
8
0
10
92.6570017738735
20
108.029954392319
30
0
0
VERTEX
8
0
10
94.8058190691859
20
107.877323921776
30
0
0
VERTEX
8
0
10
96.9546363644984
20
107.731605930256
30
0
0
VERTEX
8
0
10
99.1034536598109
20
107.609700538258
30
0
0
VERTEX
8
0
10
101.252270955123
20
107.502658516708
30
0
0
VERTEX
8
0
10
103.401088250436
20
107.394453761577
30
0
0
VERTEX
8
0
10
105.549905545748
20
107.283960506441
30
0
0
VERTEX
8
0
10
107.698722841061
20
107.170698690526
30
0
0
VERTEX
8
0
10
109.847540136373
20
107.060690183409
30
0
0
VERTEX
8
0
10
111.996357431686
20
106.95576121563
30
0
0
VERTEX
8
0
10
114.145174726998
20
106.85665670924
30
0
0
VERTEX
8
0
10
116.293992022311
20
106.784495870626
30
0
0
VERTEX
8
0
10
118.442809317623
20
106.721015734001
30
0
0
VERTEX
8
0
10
120.591626612936
20
106.65616309819
30
0
0
VERTEX
8
0
10
122.740443908248
20
106.583026029802
30
0
0
VERTEX
8
0
10
124.88926120356
20
106.511136218649
30
0
0
VERTEX
8
0
10
127.038078498873
20
106.44292649141
30
0
0
VERTEX
8
0
10
129.186895794185
20
106.372645006641
30
0
0
VERTEX
8
0
10
131.335713089498
20
106.300489047137
30
0
0
VERTEX
8
0
10
133.48453038481
20
106.228813132179
30
0
0
VERTEX
8
0
10
135.633347680123
20
106.159709830548
30
0
0
VERTEX
8
0
10
137.782164975435
20
106.095140935547
30
0
0
VERTEX
8
0
10
139.930982270748
20
106.048836465326
30
0
0
VERTEX
8
0
10
142.07979956606
20
106.00394209069
30
0
0
VERTEX
8
0
10
144.228616861373
20
105.956335413601
30
0
0
VERTEX
8
0
10
146.377434156685
20
105.907032636995
30
0
0
VERTEX
8
0
10
148.526251451998
20
105.855938016616
30
0
0
VERTEX
8
0
10
150.67506874731
20
105.803072553192
30
0
0
VERTEX
8
0
10
152.823886042622
20
105.748128843073
30
0
0
VERTEX
8
0
10
154.972703337935
20
105.69386171328
30
0
0
VERTEX
8
0
10
157.121520633247
20
105.640735973754
30
0
0
VERTEX
8
0
10
159.27033792856
20
105.58890528286
30
0
0
VERTEX
8
0
10
161.419155223872
20
105.538727437868
30
0
0
VERTEX
8
0
10
163.567972519185
20
105.494652106633
30
0
0
VERTEX
8
0
10
165.716789814497
20
105.451157296525
30
0
0
VERTEX
8
0
10
167.86560710981
20
105.405542051134
30
0
0
VERTEX
8
0
10
170.014424405122
20
105.360748533098
30
0
0
VERTEX
8
0
10
172.163241700435
20
105.316233795172
30
0
0
VERTEX
8
0
10
174.312058995747
20
105.272838437732
30
0
0
VERTEX
8
0
10
176.46087629106
20
105.230593207912
30
0
0
VERTEX
8
0
10
178.609693586372
20
105.189514849709
30
0
0
VERTEX
8
0
10
180.758510881685
20
105.149623718528
30
0
0
VERTEX
8
0
10
182.907328176997
20
105.110942210326
30
0
0
VERTEX
8
0
10
185.056145472309
20
105.073497526958
30
0
0
VERTEX
8
0
10
187.204962767622
20
105.03732404858
30
0
0
VERTEX
8
0
10
189.353780062934
20
105.002455766358
30
0
0
VERTEX
8
0
10
191.502597358247
20
104.96887103404
30
0
0
VERTEX
8
0
10
193.651414653559
20
104.938725934562
30
0
0
VERTEX
8
0
10
195.800231948872
20
104.921341184281
30
0
0
VERTEX
8
0
10
197.949049244184
20
104.896824114537
30
0
0
VERTEX
8
0
10
200.097866539497
20
104.873029947305
30
0
0
VERTEX
8
0
10
202.246683834809
20
104.854431248784
30
0
0
VERTEX
8
0
10
204.395501130122
20
104.835165740764
30
0
0
VERTEX
8
0
10
206.544318425434
20
104.815142141574
30
0
0
VERTEX
8
0
10
208.693135720747
20
104.794297982891
30
0
0
VERTEX
8
0
10
210.841953016059
20
104.772595528998
30
0
0
VERTEX
8
0
10
212.990770311371
20
104.747922857473
30
0
0
VERTEX
8
0
10
215.139587606684
20
104.72348049733
30
0
0
VERTEX
8
0
10
217.288404901996
20
104.700166629591
30
0
0
VERTEX
8
0
10
219.437222197309
20
104.676032089122
30
0
0
VERTEX
8
0
10
221.586039492621
20
104.651148014811
30
0
0
VERTEX
8
0
10
223.734856787934
20
104.6261614304
30
0
0
VERTEX
8
0
10
225.883674083246
20
104.601518369449
30
0
0
VERTEX
8
0
10
228.032491378559
20
104.577266497086
30
0
0
VERTEX
8
0
10
230.181308673871
20
104.553435706203
30
0
0
VERTEX
8
0
10
232.330125969184
20
104.530032100054
30
0
0
VERTEX
8
0
10
234.478943264496
20
104.50735532107
30
0
0
VERTEX
8
0
10
236.627760559809
20
104.487605901579
30
0
0
VERTEX
8
0
10
238.776577855121
20
104.470965353318
30
0
0
VERTEX
8
0
10
240.925395150434
20
104.454095289168
30
0
0
VERTEX
8
0
10
243.074212445746
20
104.434262161416
30
0
0
VERTEX
8
0
10
245.223029741058
20
104.41471753844
30
0
0
VERTEX
8
0
10
247.371847036371
20
104.396935212219
30
0
0
VERTEX
8
0
10
249.520664331683
20
104.378565724464
30
0
0
VERTEX
8
0
10
251.669481626996
20
104.359604966258
30
0
0
VERTEX
8
0
10
253.818298922308
20
104.340058461689
30
0
0
VERTEX
8
0
10
255.967116217621
20
104.3199500515
30
0
0
VERTEX
8
0
10
258.115933512933
20
104.299785323761
30
0
0
VERTEX
8
0
10
260.264750808246
20
104.279828939302
30
0
0
VERTEX
8
0
10
262.413568103558
20
104.260073755371
30
0
0
VERTEX
8
0
10
264.562385398871
20
104.240531484264
30
0
0
VERTEX
8
0
10
266.711202694183
20
104.221213517954
30
0
0
VERTEX
8
0
10
268.860019989496
20
104.202123247567
30
0
0
VERTEX
8
0
10
271.008837284808
20
104.18335191375
30
0
0
VERTEX
8
0
10
273.15765458012
20
104.165444918585
30
0
0
VERTEX
8
0
10
275.306471875433
20
104.147811495502
30
0
0
VERTEX
8
0
10
277.455289170745
20
104.132056344011
30
0
0
VERTEX
8
0
10
279.604106466058
20
104.115892573243
30
0
0
VERTEX
8
0
10
281.75292376137
20
104.099324909066
30
0
0
VERTEX
8
0
10
283.901741056683
20
104.08235254628
30
0
0
VERTEX
8
0
10
286.050558351995
20
104.064981499528
30
0
0
VERTEX
8
0
10
288.199375647308
20
104.047532183959
30
0
0
VERTEX
8
0
10
290.34819294262
20
104.0302538414
30
0
0
VERTEX
8
0
10
292.497010237933
20
104.013122723431
30
0
0
VERTEX
8
0
10
294.645827533245
20
103.996140236946
30
0
0
VERTEX
8
0
10
296.794644828558
20
103.979308879065
30
0
0
VERTEX
8
0
10
298.94346212387
20
103.962631238439
30
0
0
VERTEX
8
0
10
301.092279419183
20
103.946109256891
30
0
0
SEQEND
8
0
0
POLYLINE
8
0
62
2
70
0
10
0
20
0
30
0
0
VERTEX
8
0
10
0.257858075437496
20
17.6712677826234
30
0
0
VERTEX
8
0
10
2.40667537074996
20
37.2155644345212
30
0
0
VERTEX
8
0
10
4.55549266606242
20
51.3570057633231
30
0
0
VERTEX
8
0
10
6.70430996137489
20
72.6043754604309
30
0
0
VERTEX
8
0
10
8.85312725668735
20
79.67191988579
30
0
0
VERTEX
8
0
10
11.0019445519998
20
89.1551482641888
30
0
0
VERTEX
8
0
10
13.1507618473123
20
95.2201674367033
30
0
0
VERTEX
8
0
10
15.2995791426247
20
98.4137344062413
30
0
0
VERTEX
8
0
10
17.4483964379372
20
97.5586428402808
30
0
0
VERTEX
8
0
10
19.5972137332497
20
95.0796621286401
30
0
0
VERTEX
8
0
10
21.7460310285621
20
95.3421480133236
30
0
0
VERTEX
8
0
10
23.8948483238746
20
96.3284899877172
30
0
0
VERTEX
8
0
10
26.0436656191871
20
97.0896244629855
30
0
0
VERTEX
8
0
10
28.1924829144995
20
97.8306462544568
30
0
0
VERTEX
8
0
10
30.341300209812
20
98.4212188112302
30
0
0
VERTEX
8
0
10
32.4901175051245
20
98.4612498228075
30
0
0
VERTEX
8
0
10
34.6389348004369
20
98.2055366232972
30
0
0
VERTEX
8
0
10
36.7877520957494
20
97.4533502760236
30
0
0
VERTEX
8
0
10
38.9365693910619
20
96.088876929025
30
0
0
VERTEX
8
0
10
41.0853866863743
20
93.5032370692285
30
0
0
VERTEX
8
0
10
43.2342039816868
20
91.2396256306358
30
0
0
VERTEX
8
0
10
45.3830212769993
20
89.7120050676986
30
0
0
VERTEX
8
0
10
47.5318385723117
20
88.4575810026866
30
0
0
VERTEX
8
0
10
49.6806558676242
20
87.3042602184817
30
0
0
VERTEX
8
0
10
51.8294731629366
20
86.2074580039462
30
0
0
VERTEX
8
0
10
53.9782904582491
20
85.1250304858365
30
0
0
VERTEX
8
0
10
56.1271077535616
20
84.0270196310477
30
0
0
VERTEX
8
0
10
58.275925048874
20
82.8919533610962
30
0
0
VERTEX
8
0
10
60.4247423441865
20
81.7062376459019
30
0
0
VERTEX
8
0
10
62.573559639499
20
80.4634609400213
30
0
0
VERTEX
8
0
10
64.7223769348114
20
79.1579579511874
30
0
0
VERTEX
8
0
10
66.8711942301239
20
77.7839788860933
30
0
0
VERTEX
8
0
10
69.0200115254364
20
76.3463227354431
30
0
0
VERTEX
8
0
10
71.1688288207488
20
74.8491440766462
30
0
0
VERTEX
8
0
10
73.3176461160613
20
73.2992468698831
30
0
0
VERTEX
8
0
10
75.4664634113738
20
71.7130652267931
30
0
0
VERTEX
8
0
10
77.6152807066862
20
70.1142963172041
30
0
0
VERTEX
8
0
10
79.7640980019987
20
68.541527892954
30
0
0
VERTEX
8
0
10
81.9129152973112
20
67.0721609176517
30
0
0
VERTEX
8
0
10
84.0617325926236
20
65.7921309874624
30
0
0
VERTEX
8
0
10
86.2105498879361
20
64.6408715662092
30
0
0
VERTEX
8
0
10
88.3593671832486
20
63.5805069633365
30
0
0
VERTEX
8
0
10
90.508184478561
20
62.5924123557227
30
0
0
VERTEX
8
0
10
92.6570017738735
20
61.66474338745
30
0
0
VERTEX
8
0
10
94.8058190691859
20
60.7890907400032
30
0
0
VERTEX
8
0
10
96.9546363644984
20
59.9590911582927
30
0
0
VERTEX
8
0
10
99.1034536598109
20
59.1697226854789
30
0
0
VERTEX
8
0
10
101.252270955123
20
58.4169011774624
30
0
0
VERTEX
8
0
10
103.401088250436
20
57.6972294727289
30
0
0
VERTEX
8
0
10
105.549905545748
20
57.0078317651773
30
0
0
VERTEX
8
0
10
107.698722841061
20
56.3462390541007
30
0
0
VERTEX
8
0
10
109.847540136373
20
55.7103069536924
30
0
0
VERTEX
8
0
10
111.996357431686
20
55.0981549298535
30
0
0
VERTEX
8
0
10
114.145174726998
20
54.5081202486058
30
0
0
VERTEX
8
0
10
116.293992022311
20
53.9387223355357
30
0
0
VERTEX
8
0
10
118.442809317623
20
53.3886346945236
30
0
0
VERTEX
8
0
10
120.591626612936
20
52.8566624376665
30
0
0
VERTEX
8
0
10
122.740443908248
20
52.3417240610064
30
0
0
VERTEX
8
0
10
124.88926120356
20
51.8428364874168
30
0
0
VERTEX
8
0
10
127.038078498873
20
51.3591026612245
30
0
0
VERTEX
8
0
10
129.186895794185
20
50.8897011623432
30
0
0
VERTEX
8
0
10
131.335713089498
20
50.4338774377428
30
0
0
VERTEX
8
0
10
133.48453038481
20
49.9909363420546
30
0
0
VERTEX
8
0
10
135.633347680123
20
49.56023574811
30
0
0
VERTEX
8
0
10
137.782164975435
20
49.1411810396147
30
0
0
VERTEX
8
0
10
139.930982270748
20
48.7332203369587
30
0
0
VERTEX
8
0
10
142.07979956606
20
48.3358403368094
30
0
0
VERTEX
8
0
10
144.228616861373
20
47.9485626690289
30
0
0
VERTEX
8
0
10
146.377434156685
20
47.5709406923338
30
0
0
VERTEX
8
0
10
148.526251451998
20
47.2025566641855
30
0
0
VERTEX
8
0
10
150.67506874731
20
46.8430192315891
30
0
0
VERTEX
8
0
10
152.823886042622
20
46.4919611984414
30
0
0
VERTEX
8
0
10
154.972703337935
20
46.1490375322944
30
0
0
VERTEX
8
0
10
157.121520633247
20
45.8139235792878
30
0
0
VERTEX
8
0
10
159.27033792856
20
45.4863134608039
30
0
0
VERTEX
8
0
10
161.419155223872
20
45.1659186293672
30
0
0
VERTEX
8
0
10
163.567972519185
20
44.8524665645793
30
0
0
VERTEX
8
0
10
165.716789814497
20
44.5456995926152
30
0
0
VERTEX
8
0
10
167.86560710981
20
44.2453738150873
30
0
0
VERTEX
8
0
10
170.014424405122
20
43.9512581350006
30
0
0
VERTEX
8
0
10
172.163241700435
20
43.6631333691495
30
0
0
VERTEX
8
0
10
174.312058995747
20
43.3807914376743
30
0
0
VERTEX
8
0
10
176.46087629106
20
43.1040346226726
30
0
0
VERTEX
8
0
10
178.609693586372
20
42.8326748887573
30
0
0
VERTEX
8
0
10
180.758510881685
20
42.5665332593159
30
0
0
VERTEX
8
0
10
182.907328176997
20
42.3054392429627
30
0
0
VERTEX
8
0
10
185.056145472309
20
42.0492303053152
30
0
0
VERTEX
8
0
10
187.204962767622
20
41.7977513817814
30
0
0
VERTEX
8
0
10
189.353780062934
20
41.5508544275254
30
0
0
VERTEX
8
0
10
191.502597358247
20
41.3083980011963
30
0
0
VERTEX
8
0
10
193.651414653559
20
41.0702468793782
30
0
0
VERTEX
8
0
10
195.800231948872
20
40.8362716990334
30
0
0
VERTEX
8
0
10
197.949049244184
20
40.6063486255009
30
0
0
VERTEX
8
0
10
200.097866539497
20
40.3803590438557
30
0
0
VERTEX
8
0
10
202.246683834809
20
40.1581892716589
30
0
0
VERTEX
8
0
10
204.395501130122
20
39.9397302913181
30
0
0
VERTEX
8
0
10
206.544318425434
20
39.7248775004569
30
0
0
VERTEX
8
0
10
208.693135720747
20
39.5135304788396
30
0
0
VERTEX
8
0
10
210.841953016059
20
39.3055927705368
30
0
0
VERTEX
8
0
10
212.990770311371
20
39.1009716801402
30
0
0
VERTEX
8
0
10
215.139587606684
20
38.89957808194
30
0
0
VERTEX
8
0
10
217.288404901996
20
38.7013262410828
30
0
0
VERTEX
8
0
10
219.437222197309
20
38.5061336458068
30
0
0
VERTEX
8
0
10
221.586039492621
20
38.3139208499368
30
0
0
VERTEX
8
0
10
223.734856787934
20
38.1246113248891
30
0
0
VERTEX
8
0
10
225.883674083246
20
37.9381313205003
30
0
0
VERTEX
8
0
10
228.032491378559
20
37.7544097340516
30
0
0
VERTEX
8
0
10
230.181308673871
20
37.5733779869143
30
0
0
VERTEX
8
0
10
232.330125969184
20
37.3949699082855
30
0
0
VERTEX
8
0
10
234.478943264496
20
37.219121625529
30
0
0
VERTEX
8
0
10
236.627760559809
20
37.0457714606747
30
0
0
VERTEX
8
0
10
238.776577855121
20
36.8748598326625
30
0
0
VERTEX
8
0
10
240.925395150434
20
36.7063291649526
30
0
0
VERTEX
8
0
10
243.074212445746
20
36.5401237981502
30
0
0
VERTEX
8
0
10
245.223029741058
20
36.3761899073205
30
0
0
VERTEX
8
0
10
247.371847036371
20
36.2144754236956
30
0
0
VERTEX
8
0
10
249.520664331683
20
36.054929960493
30
0
0
VERTEX
8
0
10
251.669481626996
20
35.8975047425918
30
0
0
VERTEX
8
0
10
253.818298922308
20
35.7421525398257
30
0
0
VERTEX
8
0
10
255.967116217621
20
35.5888276036722
30
0
0
VERTEX
8
0
10
258.115933512933
20
35.4374856071331
30
0
0
VERTEX
8
0
10
260.264750808246
20
35.2880835876137
30
0
0
VERTEX
8
0
10
262.413568103558
20
35.1405798926241
30
0
0
VERTEX
8
0
10
264.562385398871
20
34.9949341281359
30
0
0
VERTEX
8
0
10
266.711202694183
20
34.8511071094412
30
0
0
VERTEX
8
0
10
268.860019989496
20
34.7090608143687
30
0
0
VERTEX
8
0
10
271.008837284808
20
34.5687583387225
30
0
0
VERTEX
8
0
10
273.15765458012
20
34.4301638538199
30
0
0
VERTEX
8
0
10
275.306471875433
20
34.2932425660087
30
0
0
VERTEX
8
0
10
277.455289170745
20
34.1579606780558
30
0
0
VERTEX
8
0
10
279.604106466058
20
34.024285352304
30
0
0
VERTEX
8
0
10
281.75292376137
20
33.8921846755
30
0
0
VERTEX
8
0
10
283.901741056683
20
33.7616276252062
30
0
0
VERTEX
8
0
10
286.050558351995
20
33.6325840377083
30
0
0
VERTEX
8
0
10
288.199375647308
20
33.5050245773421
30
0
0
VERTEX
8
0
10
290.34819294262
20
33.3789207071649
30
0
0
VERTEX
8
0
10
292.497010237933
20
33.2542446608994
30
0
0
VERTEX
8
0
10
294.645827533245
20
33.1309694160881
30
0
0
VERTEX
8
0
10
296.794644828558
20
33.0090686683928
30
0
0
VERTEX
8
0
10
298.94346212387
20
32.8885168069841
30
0
0
VERTEX
8
0
10
301.092279419183
20
32.7692888909638
30
0
0
SEQEND
8
0
0
POLYLINE
8
0
62
3
70
0
10
0
20
0
30
0
0
VERTEX
8
0
10
0.257858075437496
20
17.7851978551643
30
0
0
VERTEX
8
0
10
2.40667537074996
20
41.2625734747479
30
0
0
VERTEX
8
0
10
4.55549266606242
20
60.5005947632674
30
0
0
VERTEX
8
0
10
6.70430996137489
20
85.1504371521001
30
0
0
VERTEX
8
0
10
8.85312725668735
20
97.157986659613
30
0
0
VERTEX
8
0
10
11.0019445519998
20
110.380964272928
30
0
0
VERTEX
8
0
10
13.1507618473123
20
120.106688986131
30
0
0
VERTEX
8
0
10
15.2995791426247
20
126.825424128711
30
0
0
VERTEX
8
0
10
17.4483964379372
20
129.684895456125
30
0
0
VERTEX
8
0
10
19.5972137332497
20
131.04934066693
30
0
0
VERTEX
8
0
10
21.7460310285621
20
134.365640740174
30
0
0
VERTEX
8
0
10
23.8948483238746
20
138.017444567242
30
0
0
VERTEX
8
0
10
26.0436656191871
20
141.349581751352
30
0
0
VERTEX
8
0
10
28.1924829144995
20
144.442957504518
30
0
0
VERTEX
8
0
10
30.341300209812
20
147.188242474765
30
0
0
VERTEX
8
0
10
32.4901175051245
20
149.366800754392
30
0
0
VERTEX
8
0
10
34.6389348004369
20
151.075527725047
30
0
0
VERTEX
8
0
10
36.7877520957494
20
152.242195877355
30
0
0
VERTEX
8
0
10
38.9365693910619
20
152.793200530737
30
0
0
VERTEX
8
0
10
41.0853866863743
20
152.36362495648
30
0
0
VERTEX
8
0
10
43.2342039816868
20
152.055582297665
30
0
0
VERTEX
8
0
10
45.3830212769993
20
152.147039494378
30
0
0
VERTEX
8
0
10
47.5318385723117
20
152.336304249718
30
0
0
VERTEX
8
0
10
49.6806558676242
20
152.537402425548
30
0
0
VERTEX
8
0
10
51.8294731629366
20
152.688906231802
30
0
0
VERTEX
8
0
10
53.9782904582491
20
152.786050730878
30
0
0
VERTEX
8
0
10
56.1271077535616
20
152.807757733306
30
0
0
VERTEX
8
0
10
58.275925048874
20
152.734329370205
30
0
0
VERTEX
8
0
10
60.4247423441865
20
152.571931502574
30
0
0
VERTEX
8
0
10
62.573559639499
20
152.314861353346
30
0
0
VERTEX
8
0
10
64.7223769348114
20
151.961493062189
30
0
0
VERTEX
8
0
10
66.8711942301239
20
151.520572043571
30
0
0
VERTEX
8
0
10
69.0200115254364
20
150.996029896661
30
0
0
VERTEX
8
0
10
71.1688288207488
20
150.397257397508
30
0
0
VERTEX
8
0
10
73.3176461160613
20
149.738719361858
30
0
0
VERTEX
8
0
10
75.4664634113738
20
149.033381781478
30
0
0
VERTEX
8
0
10
77.6152807066862
20
148.304511425827
30
0
0
VERTEX
8
0
10
79.7640980019987
20
147.579637551083
30
0
0
VERTEX
8
0
10
81.9129152973112
20
146.904544001321
30
0
0
VERTEX
8
0
10
84.0617325926236
20
146.324557385752
30
0
0
VERTEX
8
0
10
86.2105498879361
20
145.810541015478
30
0
0
VERTEX
8
0
10
88.3593671832486
20
145.343566971855
30
0
0
VERTEX
8
0
10
90.508184478561
20
144.914049280585
30
0
0
VERTEX
8
0
10
92.6570017738735
20
144.515785198113
30
0
0
VERTEX
8
0
10
94.8058190691859
20
144.14432055195
30
0
0
VERTEX
8
0
10
96.9546363644984
20
143.796259363432
30
0
0
VERTEX
8
0
10
99.1034536598109
20
143.468908398522
30
0
0
VERTEX
8
0
10
101.252270955123
20
143.160071030872
30
0
0
VERTEX
8
0
10
103.401088250436
20
142.867917613493
30
0
0
VERTEX
8
0
10
105.549905545748
20
142.590898997635
30
0
0
VERTEX
8
0
10
107.698722841061
20
142.327686167973
30
0
0
VERTEX
8
0
10
109.847540136373
20
142.077126573075
30
0
0
VERTEX
8
0
10
111.996357431686
20
141.838211604141
30
0
0
VERTEX
8
0
10
114.145174726998
20
141.610051788083
30
0
0
VERTEX
8
0
10
116.293992022311
20
141.391857479761
30
0
0
VERTEX
8
0
10
118.442809317623
20
141.182923574108
30
0
0
VERTEX
8
0
10
120.591626612936
20
140.982617220835
30
0
0
VERTEX
8
0
10
122.740443908248
20
140.790367824172
30
0
0
VERTEX
8
0
10
124.88926120356
20
140.605658810192
30
0
0
VERTEX
8
0
10
127.038078498873
20
140.4280207813
30
0
0
VERTEX
8
0
10
129.186895794185
20
140.257025773327
30
0
0
VERTEX
8
0
10
131.335713089498
20
140.092282399111
30
0
0
VERTEX
8
0
10
133.48453038481
20
139.933431712162
30
0
0
VERTEX
8
0
10
135.633347680123
20
139.780143660662
30
0
0
VERTEX
8
0
10
137.782164975435
20
139.632114029529
30
0
0
VERTEX
8
0
10
139.930982270748
20
139.489061789079
30
0
0
VERTEX
8
0
10
142.07979956606
20
139.350726784802
30
0
0
VERTEX
8
0
10
144.228616861373
20
139.216867715133
30
0
0
VERTEX
8
0
10
146.377434156685
20
139.087260353853
30
0
0
VERTEX
8
0
10
148.526251451998
20
138.961695981384
30
0
0
VERTEX
8
0
10
150.67506874731
20
138.839979995382
30
0
0
VERTEX
8
0
10
152.823886042622
20
138.721930675955
30
0
0
VERTEX
8
0
10
154.972703337935
20
138.607378084805
30
0
0
VERTEX
8
0
10
157.121520633247
20
138.496163080845
30
0
0
VERTEX
8
0
10
159.27033792856
20
138.388136437491
30
0
0
VERTEX
8
0
10
161.419155223872
20
138.283158049061
30
0
0
VERTEX
8
0
10
163.567972519185
20
138.181096215487
30
0
0
VERTEX
8
0
10
165.716789814497
20
138.081826996106
30
0
0
VERTEX
8
0
10
167.86560710981
20
137.985233624558
30
0
0
VERTEX
8
0
10
170.014424405122
20
137.891205977889
30
0
0
VERTEX
8
0
10
172.163241700435
20
137.799640093867
30
0
0
VERTEX
8
0
10
174.312058995747
20
137.710437731299
30
0
0
VERTEX
8
0
10
176.46087629106
20
137.623505968783
30
0
0
VERTEX
8
0
10
178.609693586372
20
137.538756837893
30
0
0
VERTEX
8
0
10
180.758510881685
20
137.456106987298
30
0
0
VERTEX
8
0
10
182.907328176997
20
137.375477374701
30
0
0
VERTEX
8
0
10
185.056145472309
20
137.296792983873
30
0
0
VERTEX
8
0
10
187.204962767622
20
137.219982564349
30
0
0
VERTEX
8
0
10
189.353780062934
20
137.144978391644
30
0
0
VERTEX
8
0
10
191.502597358247
20
137.071716046062
30
0
0
VERTEX
8
0
10
193.651414653559
20
137.000134208402
30
0
0
VERTEX
8
0
10
195.800231948872
20
136.930174471021
30
0
0
VERTEX
8
0
10
197.949049244184
20
136.861781162905
30
0
0
VERTEX
8
0
10
200.097866539497
20
136.794901187499
30
0
0
VERTEX
8
0
10
202.246683834809
20
136.729483872226
30
0
0
VERTEX
8
0
10
204.395501130122
20
136.665480828665
30
0
0
VERTEX
8
0
10
206.544318425434
20
136.602845822528
30
0
0
VERTEX
8
0
10
208.693135720747
20
136.541534652608
30
0
0
VERTEX
8
0
10
210.841953016059
20
136.481505037973
30
0
0
VERTEX
8
0
10
212.990770311371
20
136.42271651275
30
0
0
VERTEX
8
0
10
215.139587606684
20
136.365130327881
30
0
0
VERTEX
8
0
10
217.288404901996
20
136.308709359328
30
0
0
VERTEX
8
0
10
219.437222197309
20
136.253418022213
30
0
0
VERTEX
8
0
10
221.586039492621
20
136.199222190445
30
0
0
VERTEX
8
0
10
223.734856787934
20
136.146089121432
30
0
0
VERTEX
8
0
10
225.883674083246
20
136.093987385478
30
0
0
VERTEX
8
0
10
228.032491378559
20
136.042886799545
30
0
0
VERTEX
8
0
10
230.181308673871
20
135.992758365049
30
0
0
VERTEX
8
0
10
232.330125969184
20
135.943574209408
30
0
0
VERTEX
8
0
10
234.478943264496
20
135.895307531066
30
0
0
VERTEX
8
0
10
236.627760559809
20
135.847932547771
30
0
0
VERTEX
8
0
10
238.776577855121
20
135.801424447852
30
0
0
VERTEX
8
0
10
240.925395150434
20
135.75575934432
30
0
0
VERTEX
8
0
10
243.074212445746
20
135.71091423158
30
0
0
VERTEX
8
0
10
245.223029741058
20
135.666866944588
30
0
0
VERTEX
8
0
10
247.371847036371
20
135.623596120294
30
0
0
VERTEX
8
0
10
249.520664331683
20
135.581081161212
30
0
0
VERTEX
8
0
10
251.669481626996
20
135.539302200991
30
0
0
VERTEX
8
0
10
253.818298922308
20
135.498240071845
30
0
0
VERTEX
8
0
10
255.967116217621
20
135.457876273737
30
0
0
VERTEX
8
0
10
258.115933512933
20
135.418192945198
30
0
0
VERTEX
8
0
10
260.264750808246
20
135.379172835682
30
0
0
VERTEX
8
0
10
262.413568103558
20
135.340799279363
30
0
0
VERTEX
8
0
10
264.562385398871
20
135.303056170286
30
0
0
VERTEX
8
0
10
266.711202694183
20
135.265927938786
30
0
0
VERTEX
8
0
10
268.860019989496
20
135.229399529106
30
0
0
VERTEX
8
0
10
271.008837284808
20
135.19345637814
30
0
0
VERTEX
8
0
10
273.15765458012
20
135.158084395229
30
0
0
VERTEX
8
0
10
275.306471875433
20
135.12326994296
30
0
0
VERTEX
8
0
10
277.455289170745
20
135.0889998189
30
0
0
VERTEX
8
0
10
279.604106466058
20
135.055261238213
30
0
0
VERTEX
8
0
10
281.75292376137
20
135.022041817124
30
0
0
VERTEX
8
0
10
283.901741056683
20
134.989329557155
30
0
0
VERTEX
8
0
10
286.050558351995
20
134.957112830116
30
0
0
VERTEX
8
0
10
288.199375647308
20
134.925380363797
30
0
0
VERTEX
8
0
10
290.34819294262
20
134.894121228326
30
0
0
VERTEX
8
0
10
292.497010237933
20
134.863324823148
30
0
0
VERTEX
8
0
10
294.645827533245
20
134.832980864612
30
0
0
VERTEX
8
0
10
296.794644828558
20
134.803079374107
30
0
0
VERTEX
8
0
10
298.94346212387
20
134.773610666741
30
0
0
VERTEX
8
0
10
301.092279419183
20
134.744565340523
30
0
0
SEQEND
8
0
0
POLYLINE
8
0
62
4
70
0
10
0
20
0
30
0
0
VERTEX
8
0
10
0.257858075437496
20
3.66627611528123
30
0
0
VERTEX
8
0
10
2.40667537074996
20
33.8939284768156
30
0
0
VERTEX
8
0
10
4.55549266606242
20
60.2242693691805
30
0
0
VERTEX
8
0
10
6.70430996137489
20
81.0960372939594
30
0
0
VERTEX
8
0
10
8.85312725668735
20
98.1344964409841
30
0
0
VERTEX
8
0
10
11.0019445519998
20
110.782891813256
30
0
0
VERTEX
8
0
10
13.1507618473123
20
119.458943288269
30
0
0
VERTEX
8
0
10
15.2995791426247
20
126.537681502193
30
0
0
VERTEX
8
0
10
17.4483964379372
20
130.794605730608
30
0
0
VERTEX
8
0
10
19.5972137332497
20
133.930472379167
30
0
0
VERTEX
8
0
10
21.7460310285621
20
136.418087719593
30
0
0
VERTEX
8
0
10
23.8948483238746
20
138.494257063735
30
0
0
VERTEX
8
0
10
26.0436656191871
20
140.322209880093
30
0
0
VERTEX
8
0
10
28.1924829144995
20
141.980099031684
30
0
0
VERTEX
8
0
10
30.341300209812
20
143.28671836111
30
0
0
VERTEX
8
0
10
32.4901175051245
20
144.422269212706
30
0
0
VERTEX
8
0
10
34.6389348004369
20
145.286256377744
30
0
0
VERTEX
8
0
10
36.7877520957494
20
146.007560665883
30
0
0
VERTEX
8
0
10
38.9365693910619
20
146.527713477154
30
0
0
VERTEX
8
0
10
41.0853866863743
20
146.849489439362
30
0
0
VERTEX
8
0
10
43.2342039816868
20
147.080230876393
30
0
0
VERTEX
8
0
10
45.3830212769993
20
147.305316125352
30
0
0
VERTEX
8
0
10
47.5318385723117
20
147.51008185905
30
0
0
VERTEX
8
0
10
49.6806558676242
20
147.669358853523
30
0
0
VERTEX
8
0
10
51.8294731629366
20
147.795317163193
30
0
0
VERTEX
8
0
10
53.9782904582491
20
147.85977455419
30
0
0
VERTEX
8
0
10
56.1271077535616
20
147.858320233615
30
0
0
VERTEX
8
0
10
58.275925048874
20
147.869308100803
30
0
0
VERTEX
8
0
10
60.4247423441865
20
147.795533031492
30
0
0
VERTEX
8
0
10
62.573559639499
20
147.654719295866
30
0
0
VERTEX
8
0
10
64.7223769348114
20
147.512969540377
30
0
0
VERTEX
8
0
10
66.8711942301239
20
147.297815490555
30
0
0
VERTEX
8
0
10
69.0200115254364
20
147.025396798279
30
0
0
VERTEX
8
0
10
71.1688288207488
20
146.763741278853
30
0
0
VERTEX
8
0
10
73.3176461160613
20
146.47449314024
30
0
0
VERTEX
8
0
10
75.4664634113738
20
146.146511854281
30
0
0
VERTEX
8
0
10
77.6152807066862
20
145.791302831938
30
0
0
VERTEX
8
0
10
79.7640980019987
20
145.459647058578
30
0
0
VERTEX
8
0
10
81.9129152973112
20
145.126861347554
30
0
0
VERTEX
8
0
10
84.0617325926236
20
144.795767174824
30
0
0
VERTEX
8
0
10
86.2105498879361
20
144.467965708213
30
0
0
VERTEX
8
0
10
88.3593671832486
20
144.174163259713
30
0
0
VERTEX
8
0
10
90.508184478561
20
143.899193185814
30
0
0
VERTEX
8
0
10
92.6570017738735
20
143.626677298414
30
0
0
VERTEX
8
0
10
94.8058190691859
20
143.356629593479
30
0
0
VERTEX
8
0
10
96.9546363644984
20
143.08906404539
30
0
0
VERTEX
8
0
10
99.1034536598109
20
142.859171107702
30
0
0
VERTEX
8
0
10
101.252270955123
20
142.64448185324
30
0
0
VERTEX
8
0
10
103.401088250436
20
142.431469894922
30
0
0
VERTEX
8
0
10
105.549905545748
20
142.220142769319
30
0
0
VERTEX
8
0
10
107.698722841061
20
142.010507998077
30
0
0
VERTEX
8
0
10
109.847540136373
20
141.802573086905
30
0
0
VERTEX
8
0
10
111.996357431686
20
141.610360412255
30
0
0
VERTEX
8
0
10
114.145174726998
20
141.426136613347
30
0
0
VERTEX
8
0
10
116.293992022311
20
141.243306527816
30
0
0
VERTEX
8
0
10
118.442809317623
20
141.061875574831
30
0
0
VERTEX
8
0
10
120.591626612936
20
140.8818491599
30
0
0
VERTEX
8
0
10
122.740443908248
20
140.70323267424
30
0
0
VERTEX
8
0
10
124.88926120356
20
140.526031494152
30
0
0
VERTEX
8
0
10
127.038078498873
20
140.386916735182
30
0
0
VERTEX
8
0
10
129.186895794185
20
140.238007437519
30
0
0
VERTEX
8
0
10
131.335713089498
20
140.090135978835
30
0
0
VERTEX
8
0
10
133.48453038481
20
139.943305649035
30
0
0
VERTEX
8
0
10
135.633347680123
20
139.797519728636
30
0
0
VERTEX
8
0
10
137.782164975435
20
139.652781488466
30
0
0
VERTEX
8
0
10
139.930982270748
20
139.509094189376
30
0
0
VERTEX
8
0
10
142.07979956606
20
139.40260959531
30
0
0
VERTEX
8
0
10
144.228616861373
20
139.294676085507
30
0
0
VERTEX
8
0
10
146.377434156685
20
139.187354691132
30
0
0
VERTEX
8
0
10
148.526251451998
20
139.080646829199
30
0
0
VERTEX
8
0
10
150.67506874731
20
138.974553912962
30
0
0
VERTEX
8
0
10
152.823886042622
20
138.869077351835
30
0
0
VERTEX
8
0
10
154.972703337935
20
138.764218551317
30
0
0
VERTEX
8
0
10
157.121520633247
20
138.659978912915
30
0
0
VERTEX
8
0
10
159.27033792856
20
138.559464552871
30
0
0
VERTEX
8
0
10
161.419155223872
20
138.460468230541
30
0
0
VERTEX
8
0
10
163.567972519185
20
138.362047330757
30
0
0
VERTEX
8
0
10
165.716789814497
20
138.264203082333
30
0
0
VERTEX
8
0
10
167.86560710981
20
138.166936710352
30
0
0
VERTEX
8
0
10
170.014424405122
20
138.070249436106
30
0
0
VERTEX
8
0
10
172.163241700435
20
137.974142477024
30
0
0
VERTEX
8
0
10
174.312058995747
20
137.878617046617
30
0
0
VERTEX
8
0
10
176.46087629106
20
137.783674354407
30
0
0
VERTEX
8
0
10
178.609693586372
20
137.689315605863
30
0
0
VERTEX
8
0
10
180.758510881685
20
137.628487833685
30
0
0
VERTEX
8
0
10
182.907328176997
20
137.558210092004
30
0
0
VERTEX
8
0
10
185.056145472309
20
137.488264113074
30
0
0
VERTEX
8
0
10
187.204962767622
20
137.418650403497
30
0
0
VERTEX
8
0
10
189.353780062934
20
137.349369468492
30
0
0
VERTEX
8
0
10
191.502597358247
20
137.280421811881
30
0
0
VERTEX
8
0
10
193.651414653559
20
137.21180793607
30
0
0
VERTEX
8
0
10
195.800231948872
20
137.143528342039
30
0
0
VERTEX
8
0
10
197.949049244184
20
137.075583529321
30
0
0
VERTEX
8
0
10
200.097866539497
20
137.00797399599
30
0
0
VERTEX
8
0
10
202.246683834809
20
136.940700238641
30
0
0
VERTEX
8
0
10
204.395501130122
20
136.88153067238
30
0
0
VERTEX
8
0
10
206.544318425434
20
136.823102862438
30
0
0
VERTEX
8
0
10
208.693135720747
20
136.764934057423
30
0
0
VERTEX
8
0
10
210.841953016059
20
136.707024587956
30
0
0
VERTEX
8
0
10
212.990770311371
20
136.64937478374
30
0
0
VERTEX
8
0
10
215.139587606684
20
136.591984973559
30
0
0
VERTEX
8
0
10
217.288404901996
20
136.534855485261
30
0
0
VERTEX
8
0
10
219.437222197309
20
136.477986645759
30
0
0
VERTEX
8
0
10
221.586039492621
20
136.421378781015
30
0
0
VERTEX
8
0
10
223.734856787934
20
136.365032216038
30
0
0
VERTEX
8
0
10
225.883674083246
20
136.308947274871
30
0
0
VERTEX
8
0
10
228.032491378559
20
136.253124280585
30
0
0
VERTEX
8
0
10
230.181308673871
20
136.207213308359
30
0
0
VERTEX
8
0
10
232.330125969184
20
136.162112530193
30
0
0
VERTEX
8
0
10
234.478943264496
20
136.117186119135
30
0
0
VERTEX
8
0
10
236.627760559809
20
136.072434247896
30
0
0
VERTEX
8
0
10
238.776577855121
20
136.027857088742
30
0
0
VERTEX
8
0
10
240.925395150434
20
135.98345481349
30
0
0
VERTEX
8
0
10
243.074212445746
20
135.93922759351
30
0
0
VERTEX
8
0
10
245.223029741058
20
135.895175599718
30
0
0
VERTEX
8
0
10
247.371847036371
20
135.851299002573
30
0
0
VERTEX
8
0
10
249.520664331683
20
135.807597972077
30
0
0
VERTEX
8
0
10
251.669481626996
20
135.764072677769
30
0
0
VERTEX
8
0
10
253.818298922308
20
135.720723288722
30
0
0
VERTEX
8
0
10
255.967116217621
20
135.677549973544
30
0
0
VERTEX
8
0
10
258.115933512933
20
135.634552900372
30
0
0
VERTEX
8
0
10
260.264750808246
20
135.591732236867
30
0
0
VERTEX
8
0
10
262.413568103558
20
135.557670658088
30
0
0
VERTEX
8
0
10
264.562385398871
20
135.522280703446
30
0
0
VERTEX
8
0
10
266.711202694183
20
135.487013272366
30
0
0
VERTEX
8
0
10
268.860019989496
20
135.451868460554
30
0
0
VERTEX
8
0
10
271.008837284808
20
135.416846363479
30
0
0
VERTEX
8
0
10
273.15765458012
20
135.381947076378
30
0
0
VERTEX
8
0
10
275.306471875433
20
135.347170694249
30
0
0
VERTEX
8
0
10
277.455289170745
20
135.312517311856
30
0
0
VERTEX
8
0
10
279.604106466058
20
135.277987023722
30
0
0
VERTEX
8
0
10
281.75292376137
20
135.243579924133
30
0
0
VERTEX
8
0
10
283.901741056683
20
135.209296107134
30
0
0
VERTEX
8
0
10
286.050558351995
20
135.175135666527
30
0
0
VERTEX
8
0
10
288.199375647308
20
135.141098695871
30
0
0
VERTEX
8
0
10
290.34819294262
20
135.107185288483
30
0
0
VERTEX
8
0
10
292.497010237933
20
135.073395537433
30
0
0
VERTEX
8
0
10
294.645827533245
20
135.039729535545
30
0
0
VERTEX
8
0
10
296.794644828558
20
135.006187375397
30
0
0
VERTEX
8
0
10
298.94346212387
20
134.972769149315
30
0
0
VERTEX
8
0
10
301.092279419183
20
134.939474949378
30
0
0
SEQEND
8
0
0
ENDSEC
0
EOF
