0
SECTION
2
HEADER
9
$ACADVER
1
AC1009
0
ENDSEC
0
SECTION
2
ENTITIES
0
POLYLINE
8
0
62
0
70
1
10
0
20
0
30
0
0
VERTEX
8
0
10
0
20
0
30
0
0
VERTEX
8
0
10
0
20
117.45
30
0
0
VERTEX
8
0
10
179.2
20
117.45
30
0
0
VERTEX
8
0
10
179.2
20
0
30
0
0
SEQEND
8
0
0
TEXT
8
0
62
0
10
0
20
-12
30
0
40
8
1
0
50
0
0
LINE
8
0
62
0
10
6.76443387501651
20
0
30
0
11
6.76443387501651
21
3.2
31
0
0
LINE
8
0
62
0
10
6.76443387501651
20
117.45
30
0
11
6.76443387501651
21
114.25
31
0
0
LINE
8
0
62
0
10
13.528867750033
20
0
30
0
11
13.528867750033
21
3.2
31
0
0
LINE
8
0
62
0
10
13.528867750033
20
117.45
30
0
11
13.528867750033
21
114.25
31
0
0
LINE
8
0
62
0
10
20.2933016250495
20
0
30
0
11
20.2933016250495
21
3.2
31
0
0
LINE
8
0
62
0
10
20.2933016250495
20
117.45
30
0
11
20.2933016250495
21
114.25
31
0
0
LINE
8
0
62
0
10
27.0577355000661
20
0
30
0
11
27.0577355000661
21
3.2
31
0
0
LINE
8
0
62
0
10
27.0577355000661
20
117.45
30
0
11
27.0577355000661
21
114.25
31
0
0
LINE
8
0
62
0
10
33.8221693750826
20
0
30
0
11
33.8221693750826
21
6.4
31
0
0
LINE
8
0
62
0
10
33.8221693750826
20
117.45
30
0
11
33.8221693750826
21
111.05
31
0
0
TEXT
8
0
62
0
10
33.8221693750826
20
-12
30
0
40
8
1
0.5
50
0
0
LINE
8
0
62
0
10
40.5866032500991
20
0
30
0
11
40.5866032500991
21
3.2
31
0
0
LINE
8
0
62
0
10
40.5866032500991
20
117.45
30
0
11
40.5866032500991
21
114.25
31
0
0
LINE
8
0
62
0
10
47.3510371251156
20
0
30
0
11
47.3510371251156
21
3.2
31
0
0
LINE
8
0
62
0
10
47.3510371251156
20
117.45
30
0
11
47.3510371251156
21
114.25
31
0
0
LINE
8
0
62
0
10
54.1154710001321
20
0
30
0
11
54.1154710001321
21
3.2
31
0
0
LINE
8
0
62
0
10
54.1154710001321
20
117.45
30
0
11
54.1154710001321
21
114.25
31
0
0
LINE
8
0
62
0
10
60.8799048751486
20
0
30
0
11
60.8799048751486
21
3.2
31
0
0
LINE
8
0
62
0
10
60.8799048751486
20
117.45
30
0
11
60.8799048751486
21
114.25
31
0
0
LINE
8
0
62
0
10
67.6443387501651
20
0
30
0
11
67.6443387501651
21
6.4
31
0
0
LINE
8
0
62
0
10
67.6443387501651
20
117.45
30
0
11
67.6443387501651
21
111.05
31
0
0
TEXT
8
0
62
0
10
67.6443387501651
20
-12
30
0
40
8
1
1
50
0
0
LINE
8
0
62
0
10
74.4087726251817
20
0
30
0
11
74.4087726251817
21
3.2
31
0
0
LINE
8
0
62
0
10
74.4087726251817
20
117.45
30
0
11
74.4087726251817
21
114.25
31
0
0
LINE
8
0
62
0
10
81.1732065001982
20
0
30
0
11
81.1732065001982
21
3.2
31
0
0
LINE
8
0
62
0
10
81.1732065001982
20
117.45
30
0
11
81.1732065001982
21
114.25
31
0
0
LINE
8
0
62
0
10
87.9376403752147
20
0
30
0
11
87.9376403752147
21
3.2
31
0
0
LINE
8
0
62
0
10
87.9376403752147
20
117.45
30
0
11
87.9376403752147
21
114.25
31
0
0
LINE
8
0
62
0
10
94.7020742502312
20
0
30
0
11
94.7020742502312
21
3.2
31
0
0
LINE
8
0
62
0
10
94.7020742502312
20
117.45
30
0
11
94.7020742502312
21
114.25
31
0
0
LINE
8
0
62
0
10
101.466508125248
20
0
30
0
11
101.466508125248
21
6.4
31
0
0
LINE
8
0
62
0
10
101.466508125248
20
117.45
30
0
11
101.466508125248
21
111.05
31
0
0
TEXT
8
0
62
0
10
101.466508125248
20
-12
30
0
40
8
1
1.5
50
0
0
LINE
8
0
62
0
10
108.230942000264
20
0
30
0
11
108.230942000264
21
3.2
31
0
0
LINE
8
0
62
0
10
108.230942000264
20
117.45
30
0
11
108.230942000264
21
114.25
31
0
0
LINE
8
0
62
0
10
114.995375875281
20
0
30
0
11
114.995375875281
21
3.2
31
0
0
LINE
8
0
62
0
10
114.995375875281
20
117.45
30
0
11
114.995375875281
21
114.25
31
0
0
LINE
8
0
62
0
10
121.759809750297
20
0
30
0
11
121.759809750297
21
3.2
31
0
0
LINE
8
0
62
0
10
121.759809750297
20
117.45
30
0
11
121.759809750297
21
114.25
31
0
0
LINE
8
0
62
0
10
128.524243625314
20
0
30
0
11
128.524243625314
21
3.2
31
0
0
LINE
8
0
62
0
10
128.524243625314
20
117.45
30
0
11
128.524243625314
21
114.25
31
0
0
LINE
8
0
62
0
10
135.28867750033
20
0
30
0
11
135.28867750033
21
6.4
31
0
0
LINE
8
0
62
0
10
135.28867750033
20
117.45
30
0
11
135.28867750033
21
111.05
31
0
0
TEXT
8
0
62
0
10
135.28867750033
20
-12
30
0
40
8
1
2
50
0
0
LINE
8
0
62
0
10
142.053111375347
20
0
30
0
11
142.053111375347
21
3.2
31
0
0
LINE
8
0
62
0
10
142.053111375347
20
117.45
30
0
11
142.053111375347
21
114.25
31
0
0
LINE
8
0
62
0
10
148.817545250363
20
0
30
0
11
148.817545250363
21
3.2
31
0
0
LINE
8
0
62
0
10
148.817545250363
20
117.45
30
0
11
148.817545250363
21
114.25
31
0
0
LINE
8
0
62
0
10
155.58197912538
20
0
30
0
11
155.58197912538
21
3.2
31
0
0
LINE
8
0
62
0
10
155.58197912538
20
117.45
30
0
11
155.58197912538
21
114.25
31
0
0
LINE
8
0
62
0
10
162.346413000396
20
0
30
0
11
162.346413000396
21
3.2
31
0
0
LINE
8
0
62
0
10
162.346413000396
20
117.45
30
0
11
162.346413000396
21
114.25
31
0
0
LINE
8
0
62
0
10
169.110846875413
20
0
30
0
11
169.110846875413
21
6.4
31
0
0
LINE
8
0
62
0
10
169.110846875413
20
117.45
30
0
11
169.110846875413
21
111.05
31
0
0
TEXT
8
0
62
0
10
169.110846875413
20
-12
30
0
40
8
1
2.5
50
0
0
LINE
8
0
62
0
10
175.875280750429
20
0
30
0
11
175.875280750429
21
3.2
31
0
0
LINE
8
0
62
0
10
175.875280750429
20
117.45
30
0
11
175.875280750429
21
114.25
31
0
0
TEXT
8
0
62
0
10
-4
20
-4
30
0
40
8
1
0
50
0
0
LINE
8
0
62
0
10
0
20
3.915
30
0
11
3.2
21
3.915
31
0
0
LINE
8
0
62
0
10
179.2
20
3.915
30
0
11
176
21
3.915
31
0
0
LINE
8
0
62
0
10
0
20
7.83
30
0
11
3.2
21
7.83
31
0
0
LINE
8
0
62
0
10
179.2
20
7.83
30
0
11
176
21
7.83
31
0
0
LINE
8
0
62
0
10
0
20
11.745
30
0
11
3.2
21
11.745
31
0
0
LINE
8
0
62
0
10
179.2
20
11.745
30
0
11
176
21
11.745
31
0
0
LINE
8
0
62
0
10
0
20
15.66
30
0
11
3.2
21
15.66
31
0
0
LINE
8
0
62
0
10
179.2
20
15.66
30
0
11
176
21
15.66
31
0
0
LINE
8
0
62
0
10
0
20
19.575
30
0
11
6.4
21
19.575
31
0
0
LINE
8
0
62
0
10
179.2
20
19.575
30
0
11
172.8
21
19.575
31
0
0
TEXT
8
0
62
0
10
-4
20
15.575
30
0
40
8
1
10
50
0
0
LINE
8
0
62
0
10
0
20
23.49
30
0
11
3.2
21
23.49
31
0
0
LINE
8
0
62
0
10
179.2
20
23.49
30
0
11
176
21
23.49
31
0
0
LINE
8
0
62
0
10
0
20
27.405
30
0
11
3.2
21
27.405
31
0
0
LINE
8
0
62
0
10
179.2
20
27.405
30
0
11
176
21
27.405
31
0
0
LINE
8
0
62
0
10
0
20
31.32
30
0
11
3.2
21
31.32
31
0
0
LINE
8
0
62
0
10
179.2
20
31.32
30
0
11
176
21
31.32
31
0
0
LINE
8
0
62
0
10
0
20
35.235
30
0
11
3.2
21
35.235
31
0
0
LINE
8
0
62
0
10
179.2
20
35.235
30
0
11
176
21
35.235
31
0
0
LINE
8
0
62
0
10
0
20
39.15
30
0
11
6.4
21
39.15
31
0
0
LINE
8
0
62
0
10
179.2
20
39.15
30
0
11
172.8
21
39.15
31
0
0
TEXT
8
0
62
0
10
-4
20
35.15
30
0
40
8
1
20
50
0
0
LINE
8
0
62
0
10
0
20
43.065
30
0
11
3.2
21
43.065
31
0
0
LINE
8
0
62
0
10
179.2
20
43.065
30
0
11
176
21
43.065
31
0
0
LINE
8
0
62
0
10
0
20
46.98
30
0
11
3.2
21
46.98
31
0
0
LINE
8
0
62
0
10
179.2
20
46.98
30
0
11
176
21
46.98
31
0
0
LINE
8
0
62
0
10
0
20
50.895
30
0
11
3.2
21
50.895
31
0
0
LINE
8
0
62
0
10
179.2
20
50.895
30
0
11
176
21
50.895
31
0
0
LINE
8
0
62
0
10
0
20
54.81
30
0
11
3.2
21
54.81
31
0
0
LINE
8
0
62
0
10
179.2
20
54.81
30
0
11
176
21
54.81
31
0
0
LINE
8
0
62
0
10
0
20
58.725
30
0
11
6.4
21
58.725
31
0
0
LINE
8
0
62
0
10
179.2
20
58.725
30
0
11
172.8
21
58.725
31
0
0
TEXT
8
0
62
0
10
-4
20
54.725
30
0
40
8
1
30
50
0
0
LINE
8
0
62
0
10
0
20
62.64
30
0
11
3.2
21
62.64
31
0
0
LINE
8
0
62
0
10
179.2
20
62.64
30
0
11
176
21
62.64
31
0
0
LINE
8
0
62
0
10
0
20
66.555
30
0
11
3.2
21
66.555
31
0
0
LINE
8
0
62
0
10
179.2
20
66.555
30
0
11
176
21
66.555
31
0
0
LINE
8
0
62
0
10
0
20
70.47
30
0
11
3.2
21
70.47
31
0
0
LINE
8
0
62
0
10
179.2
20
70.47
30
0
11
176
21
70.47
31
0
0
LINE
8
0
62
0
10
0
20
74.385
30
0
11
3.2
21
74.385
31
0
0
LINE
8
0
62
0
10
179.2
20
74.385
30
0
11
176
21
74.385
31
0
0
LINE
8
0
62
0
10
0
20
78.3
30
0
11
6.4
21
78.3
31
0
0
LINE
8
0
62
0
10
179.2
20
78.3
30
0
11
172.8
21
78.3
31
0
0
TEXT
8
0
62
0
10
-4
20
74.3
30
0
40
8
1
40
50
0
0
LINE
8
0
62
0
10
0
20
82.215
30
0
11
3.2
21
82.215
31
0
0
LINE
8
0
62
0
10
179.2
20
82.215
30
0
11
176
21
82.215
31
0
0
LINE
8
0
62
0
10
0
20
86.13
30
0
11
3.2
21
86.13
31
0
0
LINE
8
0
62
0
10
179.2
20
86.13
30
0
11
176
21
86.13
31
0
0
LINE
8
0
62
0
10
0
20
90.045
30
0
11
3.2
21
90.045
31
0
0
LINE
8
0
62
0
10
179.2
20
90.045
30
0
11
176
21
90.045
31
0
0
LINE
8
0
62
0
10
0
20
93.96
30
0
11
3.2
21
93.96
31
0
0
LINE
8
0
62
0
10
179.2
20
93.96
30
0
11
176
21
93.96
31
0
0
LINE
8
0
62
0
10
0
20
97.875
30
0
11
6.4
21
97.875
31
0
0
LINE
8
0
62
0
10
179.2
20
97.875
30
0
11
172.8
21
97.875
31
0
0
TEXT
8
0
62
0
10
-4
20
93.875
30
0
40
8
1
50
50
0
0
LINE
8
0
62
0
10
0
20
101.79
30
0
11
3.2
21
101.79
31
0
0
LINE
8
0
62
0
10
179.2
20
101.79
30
0
11
176
21
101.79
31
0
0
LINE
8
0
62
0
10
0
20
105.705
30
0
11
3.2
21
105.705
31
0
0
LINE
8
0
62
0
10
179.2
20
105.705
30
0
11
176
21
105.705
31
0
0
LINE
8
0
62
0
10
0
20
109.62
30
0
11
3.2
21
109.62
31
0
0
LINE
8
0
62
0
10
179.2
20
109.62
30
0
11
176
21
109.62
31
0
0
LINE
8
0
62
0
10
0
20
113.535
30
0
11
3.2
21
113.535
31
0
0
LINE
8
0
62
0
10
179.2
20
113.535
30
0
11
176
21
113.535
31
0
0
TEXT
8
0
62
0
10
-4
20
113.45
30
0
40
8
1
60
50
0
0
TEXT
8
0
62
0
10
89.6
20
-32
30
0
40
10
1
R (kpc)
50
0
0
TEXT
8
0
62
0
10
-24
20
58.725
30
0
40
10
1
V (km/s)
50
90
0
TEXT
8
0
62
0
10
72.6
20
132.45
30
0
40
11
1
V vs. R
50
0
0
POLYLINE
8
0
62
5
70
0
10
0
20
0
30
0
0
VERTEX
8
0
10
15.558197912538
20
9.65651592174877
30
0
0
VERTEX
8
0
10
16.2346413000396
20
9.9580165930499
30
0
0
VERTEX
8
0
10
16.9110846875413
20
10.259517264351
30
0
0
VERTEX
8
0
10
17.5875280750429
20
10.5610179356522
30
0
0
VERTEX
8
0
10
18.2639714625446
20
10.8625186069533
30
0
0
VERTEX
8
0
10
18.9404148500462
20
11.1600262428645
30
0
0
VERTEX
8
0
10
19.6168582375479
20
11.4587352412832
30
0
0
VERTEX
8
0
10
20.2933016250495
20
11.7574442397019
30
0
0
VERTEX
8
0
10
20.9697450125512
20
12.0576286598158
30
0
0
VERTEX
8
0
10
21.6461884000528
20
12.3591293311169
30
0
0
VERTEX
8
0
10
22.3226317875545
20
12.660630002418
30
0
0
VERTEX
8
0
10
22.9990751750562
20
12.9621306737191
30
0
0
VERTEX
8
0
10
23.6755185625578
20
13.2636313450203
30
0
0
VERTEX
8
0
10
24.3519619500595
20
13.5651320163214
30
0
0
VERTEX
8
0
10
25.0284053375611
20
13.8666326876225
30
0
0
VERTEX
8
0
10
25.7048487250628
20
14.1681333589237
30
0
0
VERTEX
8
0
10
26.3812921125644
20
14.4696340302248
30
0
0
VERTEX
8
0
10
27.0577355000661
20
14.7711347015259
30
0
0
VERTEX
8
0
10
27.7341788875677
20
15.0726353728271
30
0
0
VERTEX
8
0
10
28.4106222750694
20
15.3741360441282
30
0
0
VERTEX
8
0
10
29.087065662571
20
15.6779343146873
30
0
0
VERTEX
8
0
10
29.7635090500727
20
15.9822266588708
30
0
0
VERTEX
8
0
10
30.4399524375743
20
16.2865190030544
30
0
0
VERTEX
8
0
10
31.116395825076
20
16.5908113472379
30
0
0
VERTEX
8
0
10
31.7928392125776
20
16.8899603745304
30
0
0
VERTEX
8
0
10
32.4692826000793
20
17.1886693729491
30
0
0
VERTEX
8
0
10
33.1457259875809
20
17.4873783713678
30
0
0
VERTEX
8
0
10
33.8221693750826
20
17.7860873697865
30
0
0
VERTEX
8
0
10
34.4986127625842
20
18.0904878034715
30
0
0
VERTEX
8
0
10
35.1750561500859
20
18.3947801476551
30
0
0
VERTEX
8
0
10
35.8514995375875
20
18.6990724918386
30
0
0
VERTEX
8
0
10
36.5279429250892
20
19.0033648360222
30
0
0
VERTEX
8
0
10
37.2043863125908
20
19.304537403385
30
0
0
VERTEX
8
0
10
37.8808297000925
20
19.6060380746861
30
0
0
VERTEX
8
0
10
38.5572730875941
20
19.9075387459872
30
0
0
VERTEX
8
0
10
39.2337164750958
20
20.2090394172883
30
0
0
VERTEX
8
0
10
39.9101598625974
20
20.5003585805644
30
0
0
VERTEX
8
0
10
40.5866032500991
20
20.7934842332183
30
0
0
VERTEX
8
0
10
41.2630466376008
20
21.0866098858721
30
0
0
VERTEX
8
0
10
41.9394900251024
20
21.379735538526
30
0
0
VERTEX
8
0
10
42.6159334126041
20
21.5738280208885
30
0
0
VERTEX
8
0
10
43.2923768001057
20
21.7915785057171
30
0
0
VERTEX
8
0
10
43.9688201876074
20
22.0093289905457
30
0
0
VERTEX
8
0
10
44.645263575109
20
22.2270794753743
30
0
0
VERTEX
8
0
10
45.3217069626107
20
22.3462811006132
30
0
0
VERTEX
8
0
10
45.9981503501123
20
22.4942397633814
30
0
0
VERTEX
8
0
10
46.674593737614
20
22.6421984261495
30
0
0
VERTEX
8
0
10
47.3510371251156
20
22.7930057702952
30
0
0
VERTEX
8
0
10
48.0274805126173
20
22.9465477788282
30
0
0
VERTEX
8
0
10
48.7039239001189
20
23.1000897873612
30
0
0
VERTEX
8
0
10
49.3803672876206
20
23.2536317958942
30
0
0
VERTEX
8
0
10
50.0568106751222
20
23.4037770046744
30
0
0
VERTEX
8
0
10
50.7332540626239
20
23.5517356674425
30
0
0
VERTEX
8
0
10
51.4096974501255
20
23.6996943302107
30
0
0
VERTEX
8
0
10
52.0861408376272
20
23.8476529929788
30
0
0
VERTEX
8
0
10
52.7625842251288
20
23.995611655747
30
0
0
VERTEX
8
0
10
53.4390276126305
20
24.1435703185151
30
0
0
VERTEX
8
0
10
54.1154710001321
20
24.2915289812833
30
0
0
VERTEX
8
0
10
54.7919143876338
20
24.4394876440514
30
0
0
VERTEX
8
0
10
55.4683577751354
20
24.5896928250712
30
0
0
VERTEX
8
0
10
56.1448011626371
20
24.7404431607217
30
0
0
VERTEX
8
0
10
56.8212445501388
20
24.8911934963723
30
0
0
VERTEX
8
0
10
57.4976879376404
20
25.0419438320229
30
0
0
VERTEX
8
0
10
58.174131325142
20
25.1901735902342
30
0
0
VERTEX
8
0
10
58.8505747126437
20
25.3381322530024
30
0
0
VERTEX
8
0
10
59.5270181001454
20
25.4860909157705
30
0
0
VERTEX
8
0
10
60.203461487647
20
25.6340495785387
30
0
0
VERTEX
8
0
10
60.8799048751487
20
25.7875975145604
30
0
0
VERTEX
8
0
10
61.5563482626503
20
25.9411395230934
30
0
0
VERTEX
8
0
10
62.232791650152
20
26.0946815316264
30
0
0
VERTEX
8
0
10
62.9092350376536
20
26.2482235401594
30
0
0
VERTEX
8
0
10
63.5856784251553
20
26.3956281570635
30
0
0
VERTEX
8
0
10
64.2621218126569
20
26.5435868198317
30
0
0
VERTEX
8
0
10
64.9385652001586
20
26.6915454825998
30
0
0
VERTEX
8
0
10
65.6150085876602
20
26.839504145368
30
0
0
VERTEX
8
0
10
66.2914519751619
20
26.9908055631382
30
0
0
VERTEX
8
0
10
66.9678953626635
20
27.1415558987887
30
0
0
VERTEX
8
0
10
67.6443387501652
20
27.2923062344393
30
0
0
VERTEX
8
0
10
68.3207821376668
20
27.4430565700899
30
0
0
VERTEX
8
0
10
68.9972255251685
20
27.5757228347922
30
0
0
VERTEX
8
0
10
69.6736689126701
20
27.7125148060307
30
0
0
VERTEX
8
0
10
70.3501123001718
20
27.8493067772692
30
0
0
VERTEX
8
0
10
71.0265556876734
20
27.9860987485077
30
0
0
VERTEX
8
0
10
71.7029990751751
20
28.0334006320695
30
0
0
VERTEX
8
0
10
72.3794424626767
20
28.1059841270124
30
0
0
VERTEX
8
0
10
73.0558858501784
20
28.1785676219553
30
0
0
VERTEX
8
0
10
73.73232923768
20
28.2511511168981
30
0
0
VERTEX
8
0
10
74.4087726251817
20
28.3070748815816
30
0
0
VERTEX
8
0
10
75.0852160126833
20
28.3684916849948
30
0
0
VERTEX
8
0
10
75.761659400185
20
28.429908488408
30
0
0
VERTEX
8
0
10
76.4381027876867
20
28.4880306540811
30
0
0
VERTEX
8
0
10
77.1145461751883
20
28.5438641117294
30
0
0
VERTEX
8
0
10
77.79098956269
20
28.5996975693778
30
0
0
VERTEX
8
0
10
78.4674329501916
20
28.6555310270262
30
0
0
VERTEX
8
0
10
79.1438763376933
20
28.7152072407898
30
0
0
VERTEX
8
0
10
79.8203197251949
20
28.776624044203
30
0
0
VERTEX
8
0
10
80.4967631126966
20
28.8380408476162
30
0
0
VERTEX
8
0
10
81.1732065001982
20
28.8994576510294
30
0
0
VERTEX
8
0
10
81.8496498876999
20
28.9608744544426
30
0
0
VERTEX
8
0
10
82.5260932752015
20
29.0222912578558
30
0
0
VERTEX
8
0
10
83.2025366627032
20
29.083708061269
30
0
0
VERTEX
8
0
10
83.8789800502048
20
29.1451248646822
30
0
0
VERTEX
8
0
10
84.5554234377065
20
29.2016026752296
30
0
0
VERTEX
8
0
10
85.2318668252081
20
29.257436132878
30
0
0
VERTEX
8
0
10
85.9083102127098
20
29.3132695905263
30
0
0
VERTEX
8
0
10
86.5847536002114
20
29.3691030481747
30
0
0
VERTEX
8
0
10
87.2611969877131
20
29.430423617064
30
0
0
VERTEX
8
0
10
87.9376403752147
20
29.4918404204772
30
0
0
VERTEX
8
0
10
88.6140837627164
20
29.5532572238904
30
0
0
VERTEX
8
0
10
89.290527150218
20
29.6146740273036
30
0
0
VERTEX
8
0
10
89.9669705377197
20
29.6760908307168
30
0
0
VERTEX
8
0
10
90.6434139252213
20
29.73750763413
30
0
0
VERTEX
8
0
10
91.319857312723
20
29.7989244375432
30
0
0
VERTEX
8
0
10
91.9963007002247
20
29.8603412409564
30
0
0
VERTEX
8
0
10
92.6727440877263
20
29.9151746963782
30
0
0
VERTEX
8
0
10
93.349187475228
20
29.9710081540265
30
0
0
VERTEX
8
0
10
94.0256308627296
20
30.0268416116749
30
0
0
VERTEX
8
0
10
94.7020742502312
20
30.0826750693233
30
0
0
VERTEX
8
0
10
95.3785176377329
20
30.1456399933382
30
0
0
VERTEX
8
0
10
96.0549610252346
20
30.2070567967514
30
0
0
VERTEX
8
0
10
96.7314044127362
20
30.2684736001646
30
0
0
VERTEX
8
0
10
97.4078478002379
20
30.3298904035778
30
0
0
VERTEX
8
0
10
98.0842911877395
20
30.3836276222492
30
0
0
VERTEX
8
0
10
98.7607345752412
20
30.4394610798975
30
0
0
VERTEX
8
0
10
99.4371779627428
20
30.4952945375459
30
0
0
VERTEX
8
0
10
100.113621350244
20
30.5511279951942
30
0
0
VERTEX
8
0
10
100.790064737746
20
30.5452536794649
30
0
0
VERTEX
8
0
10
101.466508125248
20
30.559212043877
30
0
0
VERTEX
8
0
10
102.142951512749
20
30.5731704082891
30
0
0
VERTEX
8
0
10
102.819394900251
20
30.5791475833827
30
0
0
VERTEX
8
0
10
103.495838287753
20
30.5791475833827
30
0
0
VERTEX
8
0
10
104.172281675254
20
30.5791475833827
30
0
0
VERTEX
8
0
10
104.848725062756
20
30.5791475833827
30
0
0
VERTEX
8
0
10
105.525168450258
20
30.5959802568445
30
0
0
VERTEX
8
0
10
106.201611837759
20
30.6211053127862
30
0
0
VERTEX
8
0
10
106.878055225261
20
30.646230368728
30
0
0
VERTEX
8
0
10
107.554498612763
20
30.6713554246698
30
0
0
VERTEX
8
0
10
108.230942000264
20
30.7050579055672
30
0
0
VERTEX
8
0
10
108.907385387766
20
30.7413496530386
30
0
0
VERTEX
8
0
10
109.583828775268
20
30.7776414005101
30
0
0
VERTEX
8
0
10
110.260272162769
20
30.8139331479815
30
0
0
VERTEX
8
0
10
110.936715550271
20
30.8187854949081
30
0
0
VERTEX
8
0
10
111.613158937773
20
30.8187854949081
30
0
0
VERTEX
8
0
10
112.289602325274
20
30.8187854949081
30
0
0
VERTEX
8
0
10
112.966045712776
20
30.8187854949081
30
0
0
VERTEX
8
0
10
113.642489100278
20
30.8241704441364
30
0
0
VERTEX
8
0
10
114.318932487779
20
30.8297537899012
30
0
0
VERTEX
8
0
10
114.995375875281
20
30.8353371356661
30
0
0
VERTEX
8
0
10
115.671819262782
20
30.8409204814309
30
0
0
VERTEX
8
0
10
116.348262650284
20
30.899901435627
30
0
0
VERTEX
8
0
10
117.024706037786
20
30.9557348932754
30
0
0
VERTEX
8
0
10
117.701149425287
20
31.0115683509237
30
0
0
VERTEX
8
0
10
118.377592812789
20
31.0674018085721
30
0
0
VERTEX
8
0
10
119.054036200291
20
31.0584234064335
30
0
0
VERTEX
8
0
10
119.730479587792
20
31.0584234064335
30
0
0
VERTEX
8
0
10
120.406922975294
20
31.0584234064335
30
0
0
VERTEX
8
0
10
121.083366362796
20
31.0584234064335
30
0
0
VERTEX
8
0
10
121.759809750297
20
31.0584234064335
30
0
0
VERTEX
8
0
10
122.436253137799
20
31.0584234064335
30
0
0
VERTEX
8
0
10
123.112696525301
20
31.0584234064335
30
0
0
VERTEX
8
0
10
123.789139912802
20
31.0584234064335
30
0
0
VERTEX
8
0
10
124.465583300304
20
31.1076766541728
30
0
0
VERTEX
8
0
10
125.142026687806
20
31.1439684016442
30
0
0
VERTEX
8
0
10
125.818470075307
20
31.1802601491157
30
0
0
VERTEX
8
0
10
126.494913462809
20
31.2165518965871
30
0
0
VERTEX
8
0
10
127.171356850311
20
31.1837765446717
30
0
0
VERTEX
8
0
10
127.847800237812
20
31.172609853142
30
0
0
VERTEX
8
0
10
128.524243625314
20
31.1614431616123
30
0
0
VERTEX
8
0
10
129.200687012816
20
31.1379152152238
30
0
0
VERTEX
8
0
10
129.877130400317
20
31.1044151406348
30
0
0
VERTEX
8
0
10
130.553573787819
20
31.0709150660458
30
0
0
VERTEX
8
0
10
131.23001717532
20
31.0374149914568
30
0
0
VERTEX
8
0
10
131.906460562822
20
30.991180404553
30
0
0
VERTEX
8
0
10
132.582903950324
20
30.938138619787
30
0
0
VERTEX
8
0
10
133.259347337825
20
30.8850968350211
30
0
0
VERTEX
8
0
10
133.935790725327
20
30.8320550502552
30
0
0
VERTEX
8
0
10
134.612234112829
20
30.7873863664195
30
0
0
VERTEX
8
0
10
135.28867750033
20
30.7455112731833
30
0
0
VERTEX
8
0
10
135.965120887832
20
30.703636179947
30
0
0
VERTEX
8
0
10
136.641564275334
20
30.6617610867107
30
0
0
VERTEX
8
0
10
137.318007662835
20
30.626987996735
30
0
0
VERTEX
8
0
10
137.994451050337
20
30.593487922146
30
0
0
VERTEX
8
0
10
138.670894437839
20
30.559987847557
30
0
0
VERTEX
8
0
10
139.34733782534
20
30.5264877729679
30
0
0
VERTEX
8
0
10
140.023781212842
20
30.47978073034
30
0
0
VERTEX
8
0
10
140.700224600343
20
30.4323222913389
30
0
0
VERTEX
8
0
10
141.376667987845
20
30.3848638523378
30
0
0
VERTEX
8
0
10
142.053111375347
20
30.3374054133367
30
0
0
VERTEX
8
0
10
142.729554762848
20
30.2899469743356
30
0
0
VERTEX
8
0
10
143.40599815035
20
30.2424885353345
30
0
0
VERTEX
8
0
10
144.082441537852
20
30.1950300963334
30
0
0
VERTEX
8
0
10
144.758884925353
20
30.1475716573323
30
0
0
VERTEX
8
0
10
145.435328312855
20
30.1160607782462
30
0
0
VERTEX
8
0
10
146.111771700357
20
30.0825607036572
30
0
0
VERTEX
8
0
10
146.788215087858
20
30.0490606290682
30
0
0
VERTEX
8
0
10
147.46465847536
20
30.0155605544792
30
0
0
VERTEX
8
0
10
148.141101862861
20
29.9716697663783
30
0
0
VERTEX
8
0
10
148.817545250363
20
29.929794673142
30
0
0
VERTEX
8
0
10
149.493988637865
20
29.8879195799058
30
0
0
VERTEX
8
0
10
150.170432025366
20
29.8460444866695
30
0
0
VERTEX
8
0
10
150.846875412868
20
29.7892188720004
30
0
0
VERTEX
8
0
10
151.52331880037
20
29.7361770872344
30
0
0
VERTEX
8
0
10
152.199762187871
20
29.6831353024685
30
0
0
VERTEX
8
0
10
152.876205575373
20
29.6300935177025
30
0
0
VERTEX
8
0
10
153.552648962875
20
29.6201773955542
30
0
0
VERTEX
8
0
10
154.229092350376
20
29.5971460942743
30
0
0
SEQEND
8
0
0
POLYLINE
8
0
62
6
70
0
10
0
20
0
30
0
0
VERTEX
8
0
10
15.558197912538
20
2.19784868716653
30
0
0
VERTEX
8
0
10
16.2346413000396
20
2.33184898552259
30
0
0
VERTEX
8
0
10
16.9110846875413
20
2.46584928387866
30
0
0
VERTEX
8
0
10
17.5875280750429
20
2.59984958223473
30
0
0
VERTEX
8
0
10
18.2639714625446
20
2.74042468602478
30
0
0
VERTEX
8
0
10
18.9404148500462
20
2.88280000302808
30
0
0
VERTEX
8
0
10
19.6168582375479
20
3.02517532003138
30
0
0
VERTEX
8
0
10
20.2933016250495
20
3.16755063703468
30
0
0
VERTEX
8
0
10
20.9697450125512
20
3.30746029303906
30
0
0
VERTEX
8
0
10
21.6461884000528
20
3.44704393715997
30
0
0
VERTEX
8
0
10
22.3226317875545
20
3.58662758128087
30
0
0
VERTEX
8
0
10
22.9990751750562
20
3.72621122540178
30
0
0
VERTEX
8
0
10
23.6755185625578
20
3.86853458970922
30
0
0
VERTEX
8
0
10
24.3519619500595
20
4.01090990671253
30
0
0
VERTEX
8
0
10
25.0284053375611
20
4.15328522371583
30
0
0
VERTEX
8
0
10
25.7048487250628
20
4.29566054071914
30
0
0
VERTEX
8
0
10
26.3812921125644
20
4.43803585772246
30
0
0
VERTEX
8
0
10
27.0577355000661
20
4.58041117472577
30
0
0
VERTEX
8
0
10
27.7341788875677
20
4.72278649172908
30
0
0
VERTEX
8
0
10
28.4106222750694
20
4.8651618087324
30
0
0
VERTEX
8
0
10
29.087065662571
20
5.0075371257357
30
0
0
VERTEX
8
0
10
29.7635090500727
20
5.14991244273901
30
0
0
VERTEX
8
0
10
30.4399524375743
20
5.29228775974232
30
0
0
VERTEX
8
0
10
31.116395825076
20
5.43466307674563
30
0
0
VERTEX
8
0
10
31.7928392125776
20
5.5699145982502
30
0
0
VERTEX
8
0
10
32.4692826000793
20
5.70670656948867
30
0
0
VERTEX
8
0
10
33.1457259875809
20
5.84349854072715
30
0
0
VERTEX
8
0
10
33.8221693750826
20
5.98029051196562
30
0
0
VERTEX
8
0
10
34.4986127625842
20
6.12859035401504
30
0
0
VERTEX
8
0
10
35.1750561500859
20
6.27375734390077
30
0
0
VERTEX
8
0
10
35.8514995375875
20
6.4189243337865
30
0
0
VERTEX
8
0
10
36.5279429250892
20
6.56409132367224
30
0
0
VERTEX
8
0
10
37.2043863125908
20
6.70103828130879
30
0
0
VERTEX
8
0
10
37.8808297000925
20
6.84062192542969
30
0
0
VERTEX
8
0
10
38.5572730875941
20
6.98020556955058
30
0
0
VERTEX
8
0
10
39.2337164750958
20
7.12138161610125
30
0
0
VERTEX
8
0
10
39.9101598625974
20
7.26375693310456
30
0
0
VERTEX
8
0
10
40.5866032500991
20
7.40613225010787
30
0
0
VERTEX
8
0
10
41.2630466376008
20
7.54850756711117
30
0
0
VERTEX
8
0
10
41.9394900251024
20
7.70021519220141
30
0
0
VERTEX
8
0
10
42.6159334126041
20
7.85654887361681
30
0
0
VERTEX
8
0
10
43.2923768001057
20
8.01288255503221
30
0
0
VERTEX
8
0
10
43.9688201876074
20
8.16921623644762
30
0
0
VERTEX
8
0
10
44.645263575109
20
8.34053356349796
30
0
0
VERTEX
8
0
10
45.3217069626107
20
8.51640895509029
30
0
0
VERTEX
8
0
10
45.9981503501123
20
8.69228434668261
30
0
0
VERTEX
8
0
10
46.674593737614
20
8.86815973827494
30
0
0
VERTEX
8
0
10
47.3510371251156
20
9.03679138988947
30
0
0
VERTEX
8
0
10
48.0274805126173
20
9.20429176283455
30
0
0
VERTEX
8
0
10
48.7039239001189
20
9.37179213577962
30
0
0
VERTEX
8
0
10
49.3803672876206
20
9.5392925087247
30
0
0
VERTEX
8
0
10
50.0568106751222
20
9.71485879921039
30
0
0
VERTEX
8
0
10
50.7332540626239
20
9.89073419080271
30
0
0
VERTEX
8
0
10
51.4096974501255
20
10.066609582395
30
0
0
VERTEX
8
0
10
52.0861408376272
20
10.2424849739874
30
0
0
VERTEX
8
0
10
52.7625842251288
20
10.4124349688441
30
0
0
VERTEX
8
0
10
53.4390276126305
20
10.5827270146715
30
0
0
VERTEX
8
0
10
54.1154710001321
20
10.753019060499
30
0
0
VERTEX
8
0
10
54.7919143876338
20
10.9233111063265
30
0
0
VERTEX
8
0
10
55.4683577751354
20
11.1033134248203
30
0
0
VERTEX
8
0
10
56.1448011626371
20
11.281980489295
30
0
0
VERTEX
8
0
10
56.8212445501388
20
11.4606475537698
30
0
0
VERTEX
8
0
10
57.4976879376404
20
11.6393146182445
30
0
0
VERTEX
8
0
10
58.174131325142
20
11.8039384157471
30
0
0
VERTEX
8
0
10
58.8505747126437
20
11.9714387886922
30
0
0
VERTEX
8
0
10
59.5270181001454
20
12.1389391616373
30
0
0
VERTEX
8
0
10
60.203461487647
20
12.3064395345824
30
0
0
VERTEX
8
0
10
60.8799048751487
20
12.4815096593887
30
0
0
VERTEX
8
0
10
61.5563482626503
20
12.6545933780986
30
0
0
VERTEX
8
0
10
62.232791650152
20
12.8276770968085
30
0
0
VERTEX
8
0
10
62.9092350376536
20
13.0007608155184
30
0
0
VERTEX
8
0
10
63.5856784251553
20
13.1738445342283
30
0
0
VERTEX
8
0
10
64.2621218126569
20
13.3469282529383
30
0
0
VERTEX
8
0
10
64.9385652001586
20
13.5200119716482
30
0
0
VERTEX
8
0
10
65.6150085876602
20
13.6930956903581
30
0
0
VERTEX
8
0
10
66.2914519751619
20
13.866179409068
30
0
0
VERTEX
8
0
10
66.9678953626635
20
14.0392631277779
30
0
0
VERTEX
8
0
10
67.6443387501652
20
14.2123468464878
30
0
0
VERTEX
8
0
10
68.3207821376668
20
14.3890613264198
30
0
0
VERTEX
8
0
10
68.9972255251685
20
14.5677283908945
30
0
0
VERTEX
8
0
10
69.6736689126701
20
14.7463954553693
30
0
0
VERTEX
8
0
10
70.3501123001718
20
14.925062519844
30
0
0
VERTEX
8
0
10
71.0265556876734
20
15.1267134221039
30
0
0
VERTEX
8
0
10
71.7029990751751
20
15.3360888882853
30
0
0
VERTEX
8
0
10
72.3794424626767
20
15.5454643544666
30
0
0
VERTEX
8
0
10
73.0558858501784
20
15.7548398206479
30
0
0
VERTEX
8
0
10
73.73232923768
20
15.9807597797331
30
0
0
VERTEX
8
0
10
74.4087726251817
20
16.2096769560914
30
0
0
VERTEX
8
0
10
75.0852160126833
20
16.4385941324496
30
0
0
VERTEX
8
0
10
75.761659400185
20
16.6675113088079
30
0
0
VERTEX
8
0
10
76.4381027876867
20
16.8937909269923
30
0
0
VERTEX
8
0
10
77.1145461751883
20
17.1199164304681
30
0
0
VERTEX
8
0
10
77.79098956269
20
17.346041933944
30
0
0
VERTEX
8
0
10
78.4674329501916
20
17.5721674374198
30
0
0
VERTEX
8
0
10
79.1438763376933
20
17.7953813235342
30
0
0
VERTEX
8
0
10
79.8203197251949
20
18.0187151541276
30
0
0
VERTEX
8
0
10
80.4967631126966
20
18.2420489847211
30
0
0
VERTEX
8
0
10
81.1732065001982
20
18.4653828153145
30
0
0
VERTEX
8
0
10
81.8496498876999
20
18.691902322457
30
0
0
VERTEX
8
0
10
82.5260932752015
20
18.9180278259329
30
0
0
VERTEX
8
0
10
83.2025366627032
20
19.1441533294087
30
0
0
VERTEX
8
0
10
83.8789800502048
20
19.3702788328845
30
0
0
VERTEX
8
0
10
84.5554234377065
20
19.5964043363604
30
0
0
VERTEX
8
0
10
85.2318668252081
20
19.8225298398362
30
0
0
VERTEX
8
0
10
85.9083102127098
20
20.0486553433121
30
0
0
VERTEX
8
0
10
86.5847536002114
20
20.2747808467879
30
0
0
VERTEX
8
0
10
87.2611969877131
20
20.4971725553395
30
0
0
VERTEX
8
0
10
87.9376403752147
20
20.7205063859329
30
0
0
VERTEX
8
0
10
88.6140837627164
20
20.9438402165264
30
0
0
VERTEX
8
0
10
89.290527150218
20
21.1671740471198
30
0
0
VERTEX
8
0
10
89.9669705377197
20
21.3945157318251
30
0
0
VERTEX
8
0
10
90.6434139252213
20
21.620641235301
30
0
0
VERTEX
8
0
10
91.319857312723
20
21.8467667387768
30
0
0
VERTEX
8
0
10
91.9963007002247
20
22.0669312805843
30
0
0
VERTEX
8
0
10
92.6727440877263
20
22.2818900925305
30
0
0
VERTEX
8
0
10
93.349187475228
20
22.4968489044767
30
0
0
VERTEX
8
0
10
94.0256308627296
20
22.7118077164228
30
0
0
VERTEX
8
0
10
94.7020742502312
20
22.9338237267878
30
0
0
VERTEX
8
0
10
95.3785176377329
20
23.1599492302637
30
0
0
VERTEX
8
0
10
96.0549610252346
20
23.3860747337395
30
0
0
VERTEX
8
0
10
96.7314044127362
20
23.6122002372154
30
0
0
VERTEX
8
0
10
97.4078478002379
20
23.8362873818989
30
0
0
VERTEX
8
0
10
98.0842911877395
20
24.0596212124923
30
0
0
VERTEX
8
0
10
98.7607345752412
20
24.2829550430858
30
0
0
VERTEX
8
0
10
99.4371779627428
20
24.5062888736792
30
0
0
VERTEX
8
0
10
100.113621350244
20
24.7273102862927
30
0
0
VERTEX
8
0
10
100.790064737746
20
24.9478524440037
30
0
0
VERTEX
8
0
10
101.466508125248
20
25.1683946017147
30
0
0
VERTEX
8
0
10
102.142951512749
20
25.3889367594257
30
0
0
VERTEX
8
0
10
102.819394900251
20
25.6043059628017
30
0
0
VERTEX
8
0
10
103.495838287753
20
25.8192647747479
30
0
0
VERTEX
8
0
10
104.172281675254
20
26.0342235866941
30
0
0
VERTEX
8
0
10
104.848725062756
20
26.2491823986402
30
0
0
VERTEX
8
0
10
105.525168450258
20
26.4698622832967
30
0
0
VERTEX
8
0
10
106.201611837759
20
26.6904044410077
30
0
0
VERTEX
8
0
10
106.878055225261
20
26.9109465987187
30
0
0
VERTEX
8
0
10
107.554498612763
20
27.1314887564297
30
0
0
VERTEX
8
0
10
108.230942000264
20
27.3457617230552
30
0
0
VERTEX
8
0
10
108.907385387766
20
27.5607205350014
30
0
0
VERTEX
8
0
10
109.583828775268
20
27.7756793469476
30
0
0
VERTEX
8
0
10
110.260272162769
20
27.9906381588938
30
0
0
VERTEX
8
0
10
110.936715550271
20
28.20559697084
30
0
0
VERTEX
8
0
10
111.613158937773
20
28.4205557827861
30
0
0
VERTEX
8
0
10
112.289602325274
20
28.6355145947323
30
0
0
VERTEX
8
0
10
112.966045712776
20
28.8504734066785
30
0
0
VERTEX
8
0
10
113.642489100278
20
29.0654322186247
30
0
0
VERTEX
8
0
10
114.318932487779
20
29.2803910305708
30
0
0
VERTEX
8
0
10
114.995375875281
20
29.495349842517
30
0
0
VERTEX
8
0
10
115.671819262782
20
29.7103086544632
30
0
0
VERTEX
8
0
10
116.348262650284
20
29.8540455505093
30
0
0
VERTEX
8
0
10
117.024706037786
20
30.0187542505719
30
0
0
VERTEX
8
0
10
117.701149425287
20
30.1834629506346
30
0
0
VERTEX
8
0
10
118.377592812789
20
30.4287645776993
30
0
0
VERTEX
8
0
10
119.054036200291
20
30.7498069591774
30
0
0
VERTEX
8
0
10
119.730479587792
20
31.0708493406554
30
0
0
VERTEX
8
0
10
120.406922975294
20
31.3918917221335
30
0
0
VERTEX
8
0
10
121.083366362796
20
31.6238467364969
30
0
0
VERTEX
8
0
10
121.759809750297
20
31.7997221280892
30
0
0
VERTEX
8
0
10
122.436253137799
20
31.9755975196815
30
0
0
VERTEX
8
0
10
123.112696525301
20
32.1514729112738
30
0
0
VERTEX
8
0
10
123.789139912802
20
32.3511956362978
30
0
0
VERTEX
8
0
10
124.465583300304
20
32.5605711024791
30
0
0
VERTEX
8
0
10
125.142026687806
20
32.7699465686604
30
0
0
VERTEX
8
0
10
125.818470075307
20
32.9793220348418
30
0
0
VERTEX
8
0
10
126.494913462809
20
33.1660841312874
30
0
0
VERTEX
8
0
10
127.171356850311
20
33.3475428686445
30
0
0
VERTEX
8
0
10
127.847800237812
20
33.5290016060017
30
0
0
VERTEX
8
0
10
128.524243625314
20
33.7104603433589
30
0
0
VERTEX
8
0
10
129.200687012816
20
33.8412111574924
30
0
0
VERTEX
8
0
10
129.877130400317
20
33.9668364372012
30
0
0
VERTEX
8
0
10
130.553573787819
20
34.09246171691
30
0
0
VERTEX
8
0
10
131.23001717532
20
34.2180869966188
30
0
0
VERTEX
8
0
10
131.906460562822
20
34.3409028209788
30
0
0
VERTEX
8
0
10
132.582903950324
20
34.4637364278052
30
0
0
VERTEX
8
0
10
133.259347337825
20
34.5865700346316
30
0
0
VERTEX
8
0
10
133.935790725327
20
34.709403641458
30
0
0
VERTEX
8
0
10
134.612234112829
20
34.8322372482844
30
0
0
VERTEX
8
0
10
135.28867750033
20
34.9550708551107
30
0
0
VERTEX
8
0
10
135.965120887832
20
35.0779044619371
30
0
0
VERTEX
8
0
10
136.641564275334
20
35.2007380687635
30
0
0
VERTEX
8
0
10
137.318007662835
20
35.3235716755899
30
0
0
VERTEX
8
0
10
137.994451050337
20
35.4464052824163
30
0
0
VERTEX
8
0
10
138.670894437839
20
35.5692388892427
30
0
0
VERTEX
8
0
10
139.34733782534
20
35.692072496069
30
0
0
VERTEX
8
0
10
140.023781212842
20
35.8149061028954
30
0
0
VERTEX
8
0
10
140.700224600343
20
35.9377397097218
30
0
0
VERTEX
8
0
10
141.376667987845
20
36.0605733165482
30
0
0
VERTEX
8
0
10
142.053111375347
20
36.1834069233746
30
0
0
VERTEX
8
0
10
142.729554762848
20
36.306240530201
30
0
0
VERTEX
8
0
10
143.40599815035
20
36.4290741370273
30
0
0
VERTEX
8
0
10
144.082441537852
20
36.5519077438537
30
0
0
VERTEX
8
0
10
144.758884925353
20
36.6747413506801
30
0
0
VERTEX
8
0
10
145.435328312855
20
36.7975749575065
30
0
0
VERTEX
8
0
10
146.111771700357
20
36.9204085643329
30
0
0
VERTEX
8
0
10
146.788215087858
20
37.0432421711593
30
0
0
VERTEX
8
0
10
147.46465847536
20
37.1660757779857
30
0
0
VERTEX
8
0
10
148.141101862861
20
37.288909384812
30
0
0
VERTEX
8
0
10
148.817545250363
20
37.4117429916384
30
0
0
VERTEX
8
0
10
149.493988637865
20
37.5345765984648
30
0
0
VERTEX
8
0
10
150.170432025366
20
37.6554740085116
30
0
0
VERTEX
8
0
10
150.846875412868
20
37.7755159424555
30
0
0
VERTEX
8
0
10
151.52331880037
20
37.8955578763995
30
0
0
VERTEX
8
0
10
152.199762187871
20
38.0155998103435
30
0
0
VERTEX
8
0
10
152.876205575373
20
38.1329894371267
30
0
0
VERTEX
8
0
10
153.552648962875
20
38.2496813636118
30
0
0
VERTEX
8
0
10
154.229092350376
20
38.3663732900969
30
0
0
SEQEND
8
0
0
POLYLINE
8
0
62
6
70
0
10
0
20
0
30
0
0
VERTEX
8
0
10
15.558197912538
20
18.4998189101187
30
0
0
VERTEX
8
0
10
16.2346413000396
20
19.0441951221902
30
0
0
VERTEX
8
0
10
16.9110846875413
20
19.5885713342616
30
0
0
VERTEX
8
0
10
17.5875280750429
20
20.1329475463331
30
0
0
VERTEX
8
0
10
18.2639714625446
20
20.6900511228652
30
0
0
VERTEX
8
0
10
18.9404148500462
20
21.2455940264664
30
0
0
VERTEX
8
0
10
19.6168582375479
20
21.8011369300676
30
0
0
VERTEX
8
0
10
20.2933016250495
20
22.3566798336687
30
0
0
VERTEX
8
0
10
20.9697450125512
20
22.9087668369671
30
0
0
VERTEX
8
0
10
21.6461884000528
20
23.4615180676858
30
0
0
VERTEX
8
0
10
22.3226317875545
20
24.0142692984046
30
0
0
VERTEX
8
0
10
22.9990751750562
20
24.5670205291233
30
0
0
VERTEX
8
0
10
23.6755185625578
20
25.1235017193324
30
0
0
VERTEX
8
0
10
24.3519619500595
20
25.6790446229336
30
0
0
VERTEX
8
0
10
25.0284053375611
20
26.2345875265348
30
0
0
VERTEX
8
0
10
25.7048487250628
20
26.7901304301359
30
0
0
VERTEX
8
0
10
26.3812921125644
20
27.3456733337371
30
0
0
VERTEX
8
0
10
27.0577355000661
20
27.9012162373382
30
0
0
VERTEX
8
0
10
27.7341788875677
20
28.4567591409394
30
0
0
VERTEX
8
0
10
28.4106222750694
20
29.0108156395574
30
0
0
VERTEX
8
0
10
29.087065662571
20
29.5635668702761
30
0
0
VERTEX
8
0
10
29.7635090500727
20
30.1163181009949
30
0
0
VERTEX
8
0
10
30.4399524375743
20
30.6690693317136
30
0
0
VERTEX
8
0
10
31.116395825076
20
31.2235810266031
30
0
0
VERTEX
8
0
10
31.7928392125776
20
31.7791239302043
30
0
0
VERTEX
8
0
10
32.4692826000793
20
32.3346668338054
30
0
0
VERTEX
8
0
10
33.1457259875809
20
32.8902097374066
30
0
0
VERTEX
8
0
10
33.8221693750826
20
33.4437181176494
30
0
0
VERTEX
8
0
10
34.4986127625842
20
33.9964693483681
30
0
0
VERTEX
8
0
10
35.1750561500859
20
34.5492205790868
30
0
0
VERTEX
8
0
10
35.8514995375875
20
35.1019718098056
30
0
0
VERTEX
8
0
10
36.5279429250892
20
35.6570316230703
30
0
0
VERTEX
8
0
10
37.2043863125908
20
36.2125745266715
30
0
0
VERTEX
8
0
10
37.8808297000925
20
36.7681174302726
30
0
0
VERTEX
8
0
10
38.5572730875941
20
37.3236603338738
30
0
0
VERTEX
8
0
10
39.2337164750958
20
37.8766205957414
30
0
0
VERTEX
8
0
10
39.9101598625974
20
38.4293718264601
30
0
0
VERTEX
8
0
10
40.5866032500991
20
38.9821230571788
30
0
0
VERTEX
8
0
10
41.2630466376008
20
39.5348742878976
30
0
0
VERTEX
8
0
10
41.9394900251024
20
40.0219213974285
30
0
0
VERTEX
8
0
10
42.6159334126041
20
40.5104641518517
30
0
0
VERTEX
8
0
10
43.2923768001057
20
40.9990069062748
30
0
0
VERTEX
8
0
10
43.9688201876074
20
41.4875496606979
30
0
0
VERTEX
8
0
10
44.645263575109
20
41.8696465714213
30
0
0
VERTEX
8
0
10
45.3217069626107
20
42.2632724478422
30
0
0
VERTEX
8
0
10
45.9981503501123
20
42.6568983242632
30
0
0
VERTEX
8
0
10
46.674593737614
20
43.0505242006841
30
0
0
VERTEX
8
0
10
47.3510371251156
20
43.4509597156979
30
0
0
VERTEX
8
0
10
48.0274805126173
20
43.8501689378836
30
0
0
VERTEX
8
0
10
48.7039239001189
20
44.2493781600694
30
0
0
VERTEX
8
0
10
49.3803672876206
20
44.6485873822551
30
0
0
VERTEX
8
0
10
50.0568106751222
20
45.0367599689888
30
0
0
VERTEX
8
0
10
50.7332540626239
20
45.4275941725273
30
0
0
VERTEX
8
0
10
51.4096974501255
20
45.8184283760658
30
0
0
VERTEX
8
0
10
52.0861408376272
20
46.2092625796043
30
0
0
VERTEX
8
0
10
52.7625842251288
20
46.6080026584861
30
0
0
VERTEX
8
0
10
53.4390276126305
20
47.0044202077894
30
0
0
VERTEX
8
0
10
54.1154710001321
20
47.4008377570928
30
0
0
VERTEX
8
0
10
54.7919143876338
20
47.7972553063961
30
0
0
VERTEX
8
0
10
55.4683577751354
20
48.1936728556994
30
0
0
VERTEX
8
0
10
56.1448011626371
20
48.5900904050028
30
0
0
VERTEX
8
0
10
56.8212445501388
20
48.9865079543061
30
0
0
VERTEX
8
0
10
57.4976879376404
20
49.3795067372806
30
0
0
VERTEX
8
0
10
58.174131325142
20
49.7703409408191
30
0
0
VERTEX
8
0
10
58.8505747126437
20
50.1611751443576
30
0
0
VERTEX
8
0
10
59.5270181001454
20
50.5520093478961
30
0
0
VERTEX
8
0
10
60.203461487647
20
50.9468104361387
30
0
0
VERTEX
8
0
10
60.8799048751487
20
51.343227985442
30
0
0
VERTEX
8
0
10
61.5563482626503
20
51.7396455347454
30
0
0
VERTEX
8
0
10
62.232791650152
20
52.1360630840487
30
0
0
VERTEX
8
0
10
62.9092350376536
20
52.5302231318124
30
0
0
VERTEX
8
0
10
63.5856784251553
20
52.9238490082333
30
0
0
VERTEX
8
0
10
64.2621218126569
20
53.3174748846542
30
0
0
VERTEX
8
0
10
64.9385652001586
20
53.7111007610752
30
0
0
VERTEX
8
0
10
65.6150085876602
20
54.1072581982233
30
0
0
VERTEX
8
0
10
66.2914519751619
20
54.5036757475267
30
0
0
VERTEX
8
0
10
66.9678953626635
20
54.90009329683
30
0
0
VERTEX
8
0
10
67.6443387501652
20
55.2965108461334
30
0
0
VERTEX
8
0
10
68.3207821376668
20
55.6901227755218
30
0
0
VERTEX
8
0
10
68.9972255251685
20
56.0837486519427
30
0
0
VERTEX
8
0
10
69.6736689126701
20
56.4773745283637
30
0
0
VERTEX
8
0
10
70.3501123001718
20
56.8710004047846
30
0
0
VERTEX
8
0
10
71.0265556876734
20
57.2061123782585
30
0
0
VERTEX
8
0
10
71.7029990751751
20
57.5466964699135
30
0
0
VERTEX
8
0
10
72.3794424626767
20
57.8872805615685
30
0
0
VERTEX
8
0
10
73.0558858501784
20
58.2278646532234
30
0
0
VERTEX
8
0
10
73.73232923768
20
58.5349113619776
30
0
0
VERTEX
8
0
10
74.4087726251817
20
58.8475787248084
30
0
0
VERTEX
8
0
10
75.0852160126833
20
59.1602460876392
30
0
0
VERTEX
8
0
10
75.761659400185
20
59.47291345047
30
0
0
VERTEX
8
0
10
76.4381027876867
20
59.7892086107785
30
0
0
VERTEX
8
0
10
77.1145461751883
20
60.1046676464917
30
0
0
VERTEX
8
0
10
77.79098956269
20
60.4201266822049
30
0
0
VERTEX
8
0
10
78.4674329501916
20
60.7355857179182
30
0
0
VERTEX
8
0
10
79.1438763376933
20
61.0549466102967
30
0
0
VERTEX
8
0
10
79.8203197251949
20
61.3731973188923
30
0
0
VERTEX
8
0
10
80.4967631126966
20
61.691448027488
30
0
0
VERTEX
8
0
10
81.1732065001982
20
62.0096987360836
30
0
0
VERTEX
8
0
10
81.8496498876999
20
62.3279494446792
30
0
0
VERTEX
8
0
10
82.5260932752015
20
62.6462001532749
30
0
0
VERTEX
8
0
10
83.2025366627032
20
62.9644508618705
30
0
0
VERTEX
8
0
10
83.8789800502048
20
63.2827015704662
30
0
0
VERTEX
8
0
10
84.5554234377065
20
63.6009522790618
30
0
0
VERTEX
8
0
10
85.2318668252081
20
63.9192029876574
30
0
0
VERTEX
8
0
10
85.9083102127098
20
64.2374536962531
30
0
0
VERTEX
8
0
10
86.5847536002114
20
64.553772043503
30
0
0
VERTEX
8
0
10
87.2611969877131
20
64.8692310792162
30
0
0
VERTEX
8
0
10
87.9376403752147
20
65.1846901149295
30
0
0
VERTEX
8
0
10
88.6140837627164
20
65.5001491506427
30
0
0
VERTEX
8
0
10
89.290527150218
20
65.8178146068892
30
0
0
VERTEX
8
0
10
89.9669705377197
20
66.1360653154848
30
0
0
VERTEX
8
0
10
90.6434139252213
20
66.4543160240805
30
0
0
VERTEX
8
0
10
91.319857312723
20
66.7725667326761
30
0
0
VERTEX
8
0
10
91.9963007002247
20
67.0883369615508
30
0
0
VERTEX
8
0
10
92.6727440877263
20
67.4037959972641
30
0
0
VERTEX
8
0
10
93.349187475228
20
67.7192550329773
30
0
0
VERTEX
8
0
10
94.0256308627296
20
68.0347140686905
30
0
0
VERTEX
8
0
10
94.7020742502312
20
68.3501731044037
30
0
0
VERTEX
8
0
10
95.3785176377329
20
68.6656321401169
30
0
0
VERTEX
8
0
10
96.0549610252346
20
68.9810911758302
30
0
0
VERTEX
8
0
10
96.7314044127362
20
69.2965502115434
30
0
0
VERTEX
8
0
10
97.4078478002379
20
69.6059520510643
30
0
0
VERTEX
8
0
10
98.0842911877395
20
69.9158277410127
30
0
0
VERTEX
8
0
10
98.7607345752412
20
70.2257034309611
30
0
0
VERTEX
8
0
10
99.4371779627428
20
70.5355791209095
30
0
0
VERTEX
8
0
10
100.113621350244
20
70.805822923453
30
0
0
VERTEX
8
0
10
100.790064737746
20
71.0821985388124
30
0
0
VERTEX
8
0
10
101.466508125248
20
71.3585741541717
30
0
0
VERTEX
8
0
10
102.142951512749
20
71.6349497695311
30
0
0
VERTEX
8
0
10
102.819394900251
20
71.8827116531197
30
0
0
VERTEX
8
0
10
103.495838287753
20
72.1367538854197
30
0
0
VERTEX
8
0
10
104.172281675254
20
72.3907961177197
30
0
0
VERTEX
8
0
10
104.848725062756
20
72.6448383500198
30
0
0
VERTEX
8
0
10
105.525168450258
20
72.9181344606146
30
0
0
VERTEX
8
0
10
106.201611837759
20
73.1861350573267
30
0
0
VERTEX
8
0
10
106.878055225261
20
73.4541356540388
30
0
0
VERTEX
8
0
10
107.554498612763
20
73.7221362507509
30
0
0
VERTEX
8
0
10
108.230942000264
20
73.990136847463
30
0
0
VERTEX
8
0
10
108.907385387766
20
74.2581374441752
30
0
0
VERTEX
8
0
10
109.583828775268
20
74.5261380408873
30
0
0
VERTEX
8
0
10
110.260272162769
20
74.7893169741441
30
0
0
VERTEX
8
0
10
110.936715550271
20
75.048942552209
30
0
0
VERTEX
8
0
10
111.613158937773
20
75.3085681302739
30
0
0
VERTEX
8
0
10
112.289602325274
20
75.5681937083387
30
0
0
VERTEX
8
0
10
112.966045712776
20
75.835344407761
30
0
0
VERTEX
8
0
10
113.642489100278
20
76.1061366773556
30
0
0
VERTEX
8
0
10
114.318932487779
20
76.3769289469501
30
0
0
VERTEX
8
0
10
114.995375875281
20
76.6477212165446
30
0
0
VERTEX
8
0
10
115.671819262782
20
76.9077367885043
30
0
0
VERTEX
8
0
10
116.348262650284
20
77.1645706936868
30
0
0
VERTEX
8
0
10
117.024706037786
20
77.4214045988692
30
0
0
VERTEX
8
0
10
117.701149425287
20
77.6782385040517
30
0
0
VERTEX
8
0
10
118.377592812789
20
77.947219402807
30
0
0
VERTEX
8
0
10
119.054036200291
20
78.2180116724015
30
0
0
VERTEX
8
0
10
119.730479587792
20
78.4888039419961
30
0
0
VERTEX
8
0
10
120.406922975294
20
78.7595962115906
30
0
0
VERTEX
8
0
10
121.083366362796
20
79.0249815653808
30
0
0
VERTEX
8
0
10
121.759809750297
20
79.2901904892104
30
0
0
VERTEX
8
0
10
122.436253137799
20
79.5553994130401
30
0
0
VERTEX
8
0
10
123.112696525301
20
79.8206083368698
30
0
0
VERTEX
8
0
10
123.789139912802
20
80.0768847094302
30
0
0
VERTEX
8
0
10
124.465583300304
20
80.3337186146126
30
0
0
VERTEX
8
0
10
125.142026687806
20
80.5905525197951
30
0
0
VERTEX
8
0
10
125.818470075307
20
80.8473864249775
30
0
0
VERTEX
8
0
10
126.494913462809
20
81.0912140250504
30
0
0
VERTEX
8
0
10
127.171356850311
20
81.3368812387031
30
0
0
VERTEX
8
0
10
127.847800237812
20
81.5825484523559
30
0
0
VERTEX
8
0
10
128.524243625314
20
81.8282156660087
30
0
0
VERTEX
8
0
10
129.200687012816
20
81.9963188994313
30
0
0
VERTEX
8
0
10
129.877130400317
20
82.1805693096709
30
0
0
VERTEX
8
0
10
130.553573787819
20
82.3648197199105
30
0
0
VERTEX
8
0
10
131.23001717532
20
82.5490701301501
30
0
0
VERTEX
8
0
10
131.906460562822
20
82.7219214564318
30
0
0
VERTEX
8
0
10
132.582903950324
20
82.8977968480241
30
0
0
VERTEX
8
0
10
133.259347337825
20
83.0736722396165
30
0
0
VERTEX
8
0
10
133.935790725327
20
83.2495476312088
30
0
0
VERTEX
8
0
10
134.612234112829
20
83.4254230228011
30
0
0
VERTEX
8
0
10
135.28867750033
20
83.6012984143934
30
0
0
VERTEX
8
0
10
135.965120887832
20
83.7771738059857
30
0
0
VERTEX
8
0
10
136.641564275334
20
83.9546053377235
30
0
0
VERTEX
8
0
10
137.318007662835
20
84.1332724021982
30
0
0
VERTEX
8
0
10
137.994451050337
20
84.311939466673
30
0
0
VERTEX
8
0
10
138.670894437839
20
84.4906065311477
30
0
0
VERTEX
8
0
10
139.34733782534
20
84.6674433962894
30
0
0
VERTEX
8
0
10
140.023781212842
20
84.8433187878818
30
0
0
VERTEX
8
0
10
140.700224600343
20
85.0191941794741
30
0
0
VERTEX
8
0
10
141.376667987845
20
85.1950695710664
30
0
0
VERTEX
8
0
10
142.053111375347
20
85.3709449626587
30
0
0
VERTEX
8
0
10
142.729554762848
20
85.5468203542511
30
0
0
VERTEX
8
0
10
143.40599815035
20
85.7226957458434
30
0
0
VERTEX
8
0
10
144.082441537852
20
85.8985711374357
30
0
0
VERTEX
8
0
10
144.758884925353
20
86.0768248467362
30
0
0
VERTEX
8
0
10
145.435328312855
20
86.255491911211
30
0
0
VERTEX
8
0
10
146.111771700357
20
86.4341589756857
30
0
0
VERTEX
8
0
10
146.788215087858
20
86.6128260401605
30
0
0
VERTEX
8
0
10
147.46465847536
20
86.7914931046352
30
0
0
VERTEX
8
0
10
148.141101862861
20
86.9701601691099
30
0
0
VERTEX
8
0
10
148.817545250363
20
87.1488272335847
30
0
0
VERTEX
8
0
10
149.493988637865
20
87.3274942980594
30
0
0
VERTEX
8
0
10
150.170432025366
20
87.5061613625342
30
0
0
VERTEX
8
0
10
150.846875412868
20
87.6848284270089
30
0
0
VERTEX
8
0
10
151.52331880037
20
87.8634954914836
30
0
0
VERTEX
8
0
10
152.199762187871
20
88.0421625559584
30
0
0
VERTEX
8
0
10
152.876205575373
20
88.2176291251621
30
0
0
VERTEX
8
0
10
153.552648962875
20
88.3935045167544
30
0
0
VERTEX
8
0
10
154.229092350376
20
88.5693799083467
30
0
0
SEQEND
8
0
0
POLYLINE
8
0
62
1
70
0
10
0
20
0
30
0
0
VERTEX
8
0
10
15.558197912538
20
9.90347608664085
30
0
0
VERTEX
8
0
10
16.2346413000396
20
10.2273952773294
30
0
0
VERTEX
8
0
10
16.9110846875413
20
10.5516874095247
30
0
0
VERTEX
8
0
10
17.5875280750429
20
10.8763191240149
30
0
0
VERTEX
8
0
10
18.2639714625446
20
11.2028673984021
30
0
0
VERTEX
8
0
10
18.9404148500462
20
11.5263490142752
30
0
0
VERTEX
8
0
10
19.6168582375479
20
11.8513416559794
30
0
0
VERTEX
8
0
10
20.2933016250495
20
12.176652745639
30
0
0
VERTEX
8
0
10
20.9697450125512
20
12.503027732835
30
0
0
VERTEX
8
0
10
21.6461884000528
20
12.830829658599
30
0
0
VERTEX
8
0
10
22.3226317875545
20
13.1588544130913
30
0
0
VERTEX
8
0
10
22.9990751750562
20
13.4870857378042
30
0
0
VERTEX
8
0
10
23.6755185625578
20
13.8162757763581
30
0
0
VERTEX
8
0
10
24.3519619500595
20
14.1456779583021
30
0
0
VERTEX
8
0
10
25.0284053375611
20
14.475264427394
30
0
0
VERTEX
8
0
10
25.7048487250628
20
14.8050228759478
30
0
0
VERTEX
8
0
10
26.3812921125644
20
15.1349420627589
30
0
0
VERTEX
8
0
10
27.0577355000661
20
15.4650117006156
30
0
0
VERTEX
8
0
10
27.7341788875677
20
15.7952223576832
30
0
0
VERTEX
8
0
10
28.4106222750694
20
16.1255653708175
30
0
0
VERTEX
8
0
10
29.087065662571
20
16.4582214239957
30
0
0
VERTEX
8
0
10
29.7635090500727
20
16.7914611378343
30
0
0
VERTEX
8
0
10
30.4399524375743
20
17.1248068885103
30
0
0
VERTEX
8
0
10
31.116395825076
20
17.4582526020613
30
0
0
VERTEX
8
0
10
31.7928392125776
20
17.784676271583
30
0
0
VERTEX
8
0
10
32.4692826000793
20
18.1112355923831
30
0
0
VERTEX
8
0
10
33.1457259875809
20
18.4378653183839
30
0
0
VERTEX
8
0
10
33.8221693750826
20
18.764561773012
30
0
0
VERTEX
8
0
10
34.4986127625842
20
19.1004023176183
30
0
0
VERTEX
8
0
10
35.1750561500859
20
19.4352249251382
30
0
0
VERTEX
8
0
10
35.8514995375875
20
19.7701264957489
30
0
0
VERTEX
8
0
10
36.5279429250892
20
20.105103083458
30
0
0
VERTEX
8
0
10
37.2043863125908
20
20.4345070507281
30
0
0
VERTEX
8
0
10
37.8808297000925
20
20.7651351383204
30
0
0
VERTEX
8
0
10
38.5572730875941
20
21.0958140093282
30
0
0
VERTEX
8
0
10
39.2337164750958
20
21.4270705018595
30
0
0
VERTEX
8
0
10
39.9101598625974
20
21.7491808285955
30
0
0
VERTEX
8
0
10
40.5866032500991
20
22.0730555533932
30
0
0
VERTEX
8
0
10
41.2630466376008
20
22.3969882566763
30
0
0
VERTEX
8
0
10
41.9394900251024
20
22.7241370728026
30
0
0
VERTEX
8
0
10
42.6159334126041
20
22.9598653236121
30
0
0
VERTEX
8
0
10
43.2923768001057
20
23.2180787450549
30
0
0
VERTEX
8
0
10
43.9688201876074
20
23.4765128699284
30
0
0
VERTEX
8
0
10
44.645263575109
20
23.7404204286369
30
0
0
VERTEX
8
0
10
45.3217069626107
20
23.9141276344751
30
0
0
VERTEX
8
0
10
45.9981503501123
20
24.1152779311388
30
0
0
VERTEX
8
0
10
46.674593737614
20
24.3169366227058
30
0
0
VERTEX
8
0
10
47.3510371251156
20
24.5190683075253
30
0
0
VERTEX
8
0
10
48.0274805126173
20
24.7237343826015
30
0
0
VERTEX
8
0
10
48.7039239001189
20
24.9287913068486
30
0
0
VERTEX
8
0
10
49.3803672876206
20
25.1342295140717
30
0
0
VERTEX
8
0
10
50.0568106751222
20
25.3399932828152
30
0
0
VERTEX
8
0
10
50.7332540626239
20
25.5442924306429
30
0
0
VERTEX
8
0
10
51.4096974501255
20
25.7490221140491
30
0
0
VERTEX
8
0
10
52.0861408376272
20
25.954172144684
30
0
0
VERTEX
8
0
10
52.7625842251288
20
26.1573733527246
30
0
0
VERTEX
8
0
10
53.4390276126305
20
26.3610716548501
30
0
0
VERTEX
8
0
10
54.1154710001321
20
26.565123737035
30
0
0
VERTEX
8
0
10
54.7919143876338
20
26.7695215091592
30
0
0
VERTEX
8
0
10
55.4683577751354
20
26.9802995209681
30
0
0
VERTEX
8
0
10
56.1448011626371
20
27.1914069431822
30
0
0
VERTEX
8
0
10
56.8212445501388
20
27.4028822576308
30
0
0
VERTEX
8
0
10
57.4976879376404
20
27.6147170122866
30
0
0
VERTEX
8
0
10
58.174131325142
20
27.8186593427664
30
0
0
VERTEX
8
0
10
58.8505747126437
20
28.0238522109656
30
0
0
VERTEX
8
0
10
59.5270181001454
20
28.2293229486088
30
0
0
VERTEX
8
0
10
60.203461487647
20
28.4350655320734
30
0
0
VERTEX
8
0
10
60.8799048751487
20
28.6494025932545
30
0
0
VERTEX
8
0
10
61.5563482626503
20
28.8631504399921
30
0
0
VERTEX
8
0
10
62.232791650152
20
29.0771680866103
30
0
0
VERTEX
8
0
10
62.9092350376536
20
29.2914496192404
30
0
0
VERTEX
8
0
10
63.5856784251553
20
29.50049771814
30
0
0
VERTEX
8
0
10
64.2621218126569
20
29.7103095751462
30
0
0
VERTEX
8
0
10
64.9385652001586
20
29.920383085168
30
0
0
VERTEX
8
0
10
65.6150085876602
20
30.1307127754145
30
0
0
VERTEX
8
0
10
66.2914519751619
20
30.344266614166
30
0
0
VERTEX
8
0
10
66.9678953626635
20
30.5575680605976
30
0
0
VERTEX
8
0
10
67.6443387501652
20
30.7711030429409
30
0
0
VERTEX
8
0
10
68.3207821376668
20
30.9865525634044
30
0
0
VERTEX
8
0
10
68.9972255251685
20
31.1871640315717
30
0
0
VERTEX
8
0
10
69.6736689126701
20
31.3917131708451
30
0
0
VERTEX
8
0
10
70.3501123001718
20
31.5965406207025
30
0
0
VERTEX
8
0
10
71.0265556876734
20
31.8125632748397
30
0
0
VERTEX
8
0
10
71.7029990751751
20
31.9541417250957
30
0
0
VERTEX
8
0
10
72.3794424626767
20
32.1186519913876
30
0
0
VERTEX
8
0
10
73.0558858501784
20
32.2838450467007
30
0
0
VERTEX
8
0
10
73.73232923768
20
32.4578530184507
30
0
0
VERTEX
8
0
10
74.4087726251817
20
32.6196890753469
30
0
0
VERTEX
8
0
10
75.0852160126833
20
32.7871727590688
30
0
0
VERTEX
8
0
10
75.761659400185
20
32.955509856297
30
0
0
VERTEX
8
0
10
76.4381027876867
20
33.1205081850021
30
0
0
VERTEX
8
0
10
77.1145461751883
20
33.2842863377764
30
0
0
VERTEX
8
0
10
77.79098956269
20
33.4488844632227
30
0
0
VERTEX
8
0
10
78.4674329501916
20
33.6142905159335
30
0
0
VERTEX
8
0
10
79.1438763376933
20
33.7822249612351
30
0
0
VERTEX
8
0
10
79.8203197251949
20
33.9524400770694
30
0
0
VERTEX
8
0
10
80.4967631126966
20
34.1233783657149
30
0
0
VERTEX
8
0
10
81.1732065001982
20
34.295029013543
30
0
0
VERTEX
8
0
10
81.8496498876999
20
34.4691088019151
30
0
0
VERTEX
8
0
10
82.5260932752015
20
34.6436886990774
30
0
0
VERTEX
8
0
10
83.2025366627032
20
34.8189701354453
30
0
0
VERTEX
8
0
10
83.8789800502048
20
34.9949425694858
30
0
0
VERTEX
8
0
10
84.5554234377065
20
35.1674943906458
30
0
0
VERTEX
8
0
10
85.2318668252081
20
35.3402073893269
30
0
0
VERTEX
8
0
10
85.9083102127098
20
35.5136080279348
30
0
0
VERTEX
8
0
10
86.5847536002114
20
35.6876862830807
30
0
0
VERTEX
8
0
10
87.2611969877131
20
35.864800529812
30
0
0
VERTEX
8
0
10
87.9376403752147
20
36.0431413208724
30
0
0
VERTEX
8
0
10
88.6140837627164
20
36.2220851906239
30
0
0
VERTEX
8
0
10
89.290527150218
20
36.4016232451866
30
0
0
VERTEX
8
0
10
89.9669705377197
20
36.5840903999575
30
0
0
VERTEX
8
0
10
90.6434139252213
20
36.7664451329679
30
0
0
VERTEX
8
0
10
91.319857312723
20
36.9493858483863
30
0
0
VERTEX
8
0
10
91.9963007002247
20
37.1293608235907
30
0
0
VERTEX
8
0
10
92.6727440877263
20
37.3014785660091
30
0
0
VERTEX
8
0
10
93.349187475228
20
37.474918817785
30
0
0
VERTEX
8
0
10
94.0256308627296
20
37.6488701944743
30
0
0
VERTEX
8
0
10
94.7020742502312
20
37.8276038106811
30
0
0
VERTEX
8
0
10
95.3785176377329
20
38.0150346436294
30
0
0
VERTEX
8
0
10
96.0549610252346
20
38.2017639877299
30
0
0
VERTEX
8
0
10
96.7314044127362
20
38.3890152794548
30
0
0
VERTEX
8
0
10
97.4078478002379
20
38.5755213580518
30
0
0
VERTEX
8
0
10
98.0842911877395
20
38.756034373709
30
0
0
VERTEX
8
0
10
98.7607345752412
20
38.938704350031
30
0
0
VERTEX
8
0
10
99.4371779627428
20
39.1218760195864
30
0
0
VERTEX
8
0
10
100.113621350244
20
39.3040875199175
30
0
0
VERTEX
8
0
10
100.790064737746
20
39.4386595095555
30
0
0
VERTEX
8
0
10
101.466508125248
20
39.5893107741252
30
0
0
VERTEX
8
0
10
102.142951512749
20
39.7406197559676
30
0
0
VERTEX
8
0
10
102.819394900251
20
39.8831386774294
30
0
0
VERTEX
8
0
10
103.495838287753
20
40.0214779891353
30
0
0
VERTEX
8
0
10
104.172281675254
20
40.1604913402249
30
0
0
VERTEX
8
0
10
104.848725062756
20
40.3001717555073
30
0
0
VERTEX
8
0
10
105.525168450258
20
40.456984776104
30
0
0
VERTEX
8
0
10
106.201611837759
20
40.6205585855403
30
0
0
VERTEX
8
0
10
106.878055225261
20
40.7846844128067
30
0
0
VERTEX
8
0
10
107.554498612763
20
40.9493556204086
30
0
0
VERTEX
8
0
10
108.230942000264
20
41.1168002791845
30
0
0
VERTEX
8
0
10
108.907385387766
20
41.2870911411645
30
0
0
VERTEX
8
0
10
109.583828775268
20
41.457828854908
30
0
0
VERTEX
8
0
10
110.260272162769
20
41.6290079222457
30
0
0
VERTEX
8
0
10
110.936715550271
20
41.7774250027765
30
0
0
VERTEX
8
0
10
111.613158937773
20
41.9228521260615
30
0
0
VERTEX
8
0
10
112.289602325274
20
42.0688749015978
30
0
0
VERTEX
8
0
10
112.966045712776
20
42.2154871483277
30
0
0
VERTEX
8
0
10
113.642489100278
20
42.3666004492293
30
0
0
VERTEX
8
0
10
114.318932487779
20
42.5184079858249
30
0
0
VERTEX
8
0
10
114.995375875281
20
42.6707590581965
30
0
0
VERTEX
8
0
10
115.671819262782
20
42.8236478652323
30
0
0
VERTEX
8
0
10
116.348262650284
20
42.9658928042156
30
0
0
VERTEX
8
0
10
117.024706037786
20
43.1205650419724
30
0
0
VERTEX
8
0
10
117.701149425287
20
43.275383386821
30
0
0
VERTEX
8
0
10
118.377592812789
20
43.4867010574534
30
0
0
VERTEX
8
0
10
119.054036200291
20
43.7055636334777
30
0
0
VERTEX
8
0
10
119.730479587792
20
43.932030948307
30
0
0
VERTEX
8
0
10
120.406922975294
20
44.1596708591386
30
0
0
VERTEX
8
0
10
121.083366362796
20
44.3248614990136
30
0
0
VERTEX
8
0
10
121.759809750297
20
44.4505117171555
30
0
0
VERTEX
8
0
10
122.436253137799
20
44.5765016711042
30
0
0
VERTEX
8
0
10
123.112696525301
20
44.702828488337
30
0
0
VERTEX
8
0
10
123.789139912802
20
44.8466891040053
30
0
0
VERTEX
8
0
10
124.465583300304
20
45.031970169427
30
0
0
VERTEX
8
0
10
125.142026687806
20
45.2085850908373
30
0
0
VERTEX
8
0
10
125.818470075307
20
45.3855076521606
30
0
0
VERTEX
8
0
10
126.494913462809
20
45.5462649282677
30
0
0
VERTEX
8
0
10
127.171356850311
20
45.6561774020132
30
0
0
VERTEX
8
0
10
127.847800237812
20
45.7812795119519
30
0
0
VERTEX
8
0
10
128.524243625314
20
45.9067606837551
30
0
0
VERTEX
8
0
10
129.200687012816
20
45.9869257132552
30
0
0
VERTEX
8
0
10
129.877130400317
20
46.0568194602333
30
0
0
VERTEX
8
0
10
130.553573787819
20
46.1269737676384
30
0
0
VERTEX
8
0
10
131.23001717532
20
46.197387448427
30
0
0
VERTEX
8
0
10
131.906460562822
20
46.2574412330325
30
0
0
VERTEX
8
0
10
132.582903950324
20
46.3132545803292
30
0
0
VERTEX
8
0
10
133.259347337825
20
46.3693868114417
30
0
0
VERTEX
8
0
10
133.935790725327
20
46.4258367697085
30
0
0
VERTEX
8
0
10
134.612234112829
20
46.4881480701906
30
0
0
VERTEX
8
0
10
135.28867750033
20
46.5525879187747
30
0
0
VERTEX
8
0
10
135.965120887832
20
46.6172999659068
30
0
0
VERTEX
8
0
10
136.641564275334
20
46.6822830796034
30
0
0
VERTEX
8
0
10
137.318007662835
20
46.7521882875303
30
0
0
VERTEX
8
0
10
137.994451050337
20
46.8231689517892
30
0
0
VERTEX
8
0
10
138.670894437839
20
46.894387856148
30
0
0
VERTEX
8
0
10
139.34733782534
20
46.9658439168063
30
0
0
VERTEX
8
0
10
140.023781212842
20
47.0289754569332
30
0
0
VERTEX
8
0
10
140.700224600343
20
47.091903502488
30
0
0
VERTEX
8
0
10
141.376667987845
20
47.1551153030427
30
0
0
VERTEX
8
0
10
142.053111375347
20
47.2186097190044
30
0
0
VERTEX
8
0
10
142.729554762848
20
47.2823856118203
30
0
0
VERTEX
8
0
10
143.40599815035
20
47.346441844038
30
0
0
VERTEX
8
0
10
144.082441537852
20
47.4107772793663
30
0
0
VERTEX
8
0
10
144.758884925353
20
47.4753907827336
30
0
0
VERTEX
8
0
10
145.435328312855
20
47.5503800148046
30
0
0
VERTEX
8
0
10
146.111771700357
20
47.6243323002694
30
0
0
VERTEX
8
0
10
146.788215087858
20
47.6985097800819
30
0
0
VERTEX
8
0
10
147.46465847536
20
47.7729114052574
30
0
0
VERTEX
8
0
10
148.141101862861
20
47.8410258219194
30
0
0
VERTEX
8
0
10
148.817545250363
20
47.9106577167215
30
0
0
VERTEX
8
0
10
149.493988637865
20
47.9805395680471
30
0
0
VERTEX
8
0
10
150.170432025366
20
48.0491528989424
30
0
0
VERTEX
8
0
10
150.846875412868
20
48.1080779674542
30
0
0
VERTEX
8
0
10
151.52331880037
20
48.1696329083678
30
0
0
VERTEX
8
0
10
152.199762187871
20
48.2314663920229
30
0
0
VERTEX
8
0
10
152.876205575373
20
48.2914829476153
30
0
0
VERTEX
8
0
10
153.552648962875
20
48.3776088016133
30
0
0
VERTEX
8
0
10
154.229092350376
20
48.4558526533264
30
0
0
SEQEND
8
0
0
POLYLINE
8
0
62
2
70
0
10
0
20
0
30
0
0
VERTEX
8
0
10
15.558197912538
20
9.90347608664085
30
0
0
VERTEX
8
0
10
16.2346413000396
20
10.2273952773294
30
0
0
VERTEX
8
0
10
16.9110846875413
20
10.5516874095247
30
0
0
VERTEX
8
0
10
17.5875280750429
20
10.8763191240149
30
0
0
VERTEX
8
0
10
18.2639714625446
20
11.2028673984021
30
0
0
VERTEX
8
0
10
18.9404148500462
20
11.5263490142752
30
0
0
VERTEX
8
0
10
19.6168582375479
20
11.8513416559794
30
0
0
VERTEX
8
0
10
20.2933016250495
20
12.176652745639
30
0
0
VERTEX
8
0
10
20.9697450125512
20
12.503027732835
30
0
0
VERTEX
8
0
10
21.6461884000528
20
12.830829658599
30
0
0
VERTEX
8
0
10
22.3226317875545
20
13.1588544130913
30
0
0
VERTEX
8
0
10
22.9990751750562
20
13.4870857378042
30
0
0
VERTEX
8
0
10
23.6755185625578
20
13.8162757763581
30
0
0
VERTEX
8
0
10
24.3519619500595
20
14.1456779583021
30
0
0
VERTEX
8
0
10
25.0284053375611
20
14.475264427394
30
0
0
VERTEX
8
0
10
25.7048487250628
20
14.8050228759478
30
0
0
VERTEX
8
0
10
26.3812921125644
20
15.1349420627589
30
0
0
VERTEX
8
0
10
27.0577355000661
20
15.4650117006156
30
0
0
VERTEX
8
0
10
27.7341788875677
20
15.7952223576832
30
0
0
VERTEX
8
0
10
28.4106222750694
20
16.1255653708175
30
0
0
VERTEX
8
0
10
29.087065662571
20
16.4582214239957
30
0
0
VERTEX
8
0
10
29.7635090500727
20
16.7914611378343
30
0
0
VERTEX
8
0
10
30.4399524375743
20
17.1248068885103
30
0
0
VERTEX
8
0
10
31.116395825076
20
17.4582526020613
30
0
0
VERTEX
8
0
10
31.7928392125776
20
17.784676271583
30
0
0
VERTEX
8
0
10
32.4692826000793
20
18.1112355923831
30
0
0
VERTEX
8
0
10
33.1457259875809
20
18.4378653183839
30
0
0
VERTEX
8
0
10
33.8221693750826
20
18.764561773012
30
0
0
VERTEX
8
0
10
34.4986127625842
20
19.1004023176183
30
0
0
VERTEX
8
0
10
35.1750561500859
20
19.4352249251382
30
0
0
VERTEX
8
0
10
35.8514995375875
20
19.7701264957489
30
0
0
VERTEX
8
0
10
36.5279429250892
20
20.105103083458
30
0
0
VERTEX
8
0
10
37.2043863125908
20
20.4345070507281
30
0
0
VERTEX
8
0
10
37.8808297000925
20
20.7651351383204
30
0
0
VERTEX
8
0
10
38.5572730875941
20
21.0958140093282
30
0
0
VERTEX
8
0
10
39.2337164750958
20
21.4270705018595
30
0
0
VERTEX
8
0
10
39.9101598625974
20
21.7491808285955
30
0
0
VERTEX
8
0
10
40.5866032500991
20
22.0730555533932
30
0
0
VERTEX
8
0
10
41.2630466376008
20
22.3969882566763
30
0
0
VERTEX
8
0
10
41.9394900251024
20
22.7241370728026
30
0
0
VERTEX
8
0
10
42.6159334126041
20
22.9598653236121
30
0
0
VERTEX
8
0
10
43.2923768001057
20
23.2180787450549
30
0
0
VERTEX
8
0
10
43.9688201876074
20
23.4765128699284
30
0
0
VERTEX
8
0
10
44.645263575109
20
23.7404204286369
30
0
0
VERTEX
8
0
10
45.3217069626107
20
23.9141276344751
30
0
0
VERTEX
8
0
10
45.9981503501123
20
24.1152779311388
30
0
0
VERTEX
8
0
10
46.674593737614
20
24.3169366227058
30
0
0
VERTEX
8
0
10
47.3510371251156
20
24.5190683075253
30
0
0
VERTEX
8
0
10
48.0274805126173
20
24.7237343826015
30
0
0
VERTEX
8
0
10
48.7039239001189
20
24.9287913068486
30
0
0
VERTEX
8
0
10
49.3803672876206
20
25.1342295140717
30
0
0
VERTEX
8
0
10
50.0568106751222
20
25.3399932828152
30
0
0
VERTEX
8
0
10
50.7332540626239
20
25.5442924306429
30
0
0
VERTEX
8
0
10
51.4096974501255
20
25.7490221140491
30
0
0
VERTEX
8
0
10
52.0861408376272
20
25.954172144684
30
0
0
VERTEX
8
0
10
52.7625842251288
20
26.1573733527246
30
0
0
VERTEX
8
0
10
53.4390276126305
20
26.3610716548501
30
0
0
VERTEX
8
0
10
54.1154710001321
20
26.565123737035
30
0
0
VERTEX
8
0
10
54.7919143876338
20
26.7695215091592
30
0
0
VERTEX
8
0
10
55.4683577751354
20
26.9802995209681
30
0
0
VERTEX
8
0
10
56.1448011626371
20
27.1914069431822
30
0
0
VERTEX
8
0
10
56.8212445501388
20
27.4028822576308
30
0
0
VERTEX
8
0
10
57.4976879376404
20
27.6147170122866
30
0
0
VERTEX
8
0
10
58.174131325142
20
27.8186593427664
30
0
0
VERTEX
8
0
10
58.8505747126437
20
28.0238522109656
30
0
0
VERTEX
8
0
10
59.5270181001454
20
28.2293229486088
30
0
0
VERTEX
8
0
10
60.203461487647
20
28.4350655320734
30
0
0
VERTEX
8
0
10
60.8799048751487
20
28.6494025932545
30
0
0
VERTEX
8
0
10
61.5563482626503
20
28.8631504399921
30
0
0
VERTEX
8
0
10
62.232791650152
20
29.0771680866103
30
0
0
VERTEX
8
0
10
62.9092350376536
20
29.2914496192404
30
0
0
VERTEX
8
0
10
63.5856784251553
20
29.50049771814
30
0
0
VERTEX
8
0
10
64.2621218126569
20
29.7103095751462
30
0
0
VERTEX
8
0
10
64.9385652001586
20
29.920383085168
30
0
0
VERTEX
8
0
10
65.6150085876602
20
30.1307127754145
30
0
0
VERTEX
8
0
10
66.2914519751619
20
30.344266614166
30
0
0
VERTEX
8
0
10
66.9678953626635
20
30.5575680605976
30
0
0
VERTEX
8
0
10
67.6443387501652
20
30.7711030429409
30
0
0
VERTEX
8
0
10
68.3207821376668
20
30.9865525634044
30
0
0
VERTEX
8
0
10
68.9972255251685
20
31.1871640315717
30
0
0
VERTEX
8
0
10
69.6736689126701
20
31.3917131708451
30
0
0
VERTEX
8
0
10
70.3501123001718
20
31.5965406207025
30
0
0
VERTEX
8
0
10
71.0265556876734
20
31.8125632748397
30
0
0
VERTEX
8
0
10
71.7029990751751
20
31.9541417250957
30
0
0
VERTEX
8
0
10
72.3794424626767
20
32.1186519913876
30
0
0
VERTEX
8
0
10
73.0558858501784
20
32.2838450467007
30
0
0
VERTEX
8
0
10
73.73232923768
20
32.4578530184507
30
0
0
VERTEX
8
0
10
74.4087726251817
20
32.6196890753469
30
0
0
VERTEX
8
0
10
75.0852160126833
20
32.7871727590688
30
0
0
VERTEX
8
0
10
75.761659400185
20
32.955509856297
30
0
0
VERTEX
8
0
10
76.4381027876867
20
33.1205081850021
30
0
0
VERTEX
8
0
10
77.1145461751883
20
33.2842863377764
30
0
0
VERTEX
8
0
10
77.79098956269
20
33.4488844632226
30
0
0
VERTEX
8
0
10
78.4674329501916
20
33.6142905159335
30
0
0
VERTEX
8
0
10
79.1438763376933
20
33.7822249612351
30
0
0
VERTEX
8
0
10
79.8203197251949
20
33.9524400770694
30
0
0
VERTEX
8
0
10
80.4967631126966
20
34.1233783657149
30
0
0
VERTEX
8
0
10
81.1732065001982
20
34.295029013543
30
0
0
VERTEX
8
0
10
81.8496498876999
20
34.4691088019151
30
0
0
VERTEX
8
0
10
82.5260932752015
20
34.6436886990774
30
0
0
VERTEX
8
0
10
83.2025366627032
20
34.8189701354453
30
0
0
VERTEX
8
0
10
83.8789800502048
20
34.9949425694858
30
0
0
VERTEX
8
0
10
84.5554234377065
20
35.1674943906458
30
0
0
VERTEX
8
0
10
85.2318668252081
20
35.3402073893269
30
0
0
VERTEX
8
0
10
85.9083102127098
20
35.5136080279348
30
0
0
VERTEX
8
0
10
86.5847536002114
20
35.6876862830807
30
0
0
VERTEX
8
0
10
87.2611969877131
20
35.864800529812
30
0
0
VERTEX
8
0
10
87.9376403752147
20
36.0431413208724
30
0
0
VERTEX
8
0
10
88.6140837627164
20
36.2220851906239
30
0
0
VERTEX
8
0
10
89.290527150218
20
36.4016232451866
30
0
0
VERTEX
8
0
10
89.9669705377197
20
36.5840903999575
30
0
0
VERTEX
8
0
10
90.6434139252213
20
36.7664451329678
30
0
0
VERTEX
8
0
10
91.319857312723
20
36.9493858483863
30
0
0
VERTEX
8
0
10
91.9963007002247
20
37.1293608235907
30
0
0
VERTEX
8
0
10
92.6727440877263
20
37.3014785660091
30
0
0
VERTEX
8
0
10
93.349187475228
20
37.474918817785
30
0
0
VERTEX
8
0
10
94.0256308627296
20
37.6488701944743
30
0
0
VERTEX
8
0
10
94.7020742502312
20
37.8276038106811
30
0
0
VERTEX
8
0
10
95.3785176377329
20
38.0150346436294
30
0
0
VERTEX
8
0
10
96.0549610252346
20
38.2017639877299
30
0
0
VERTEX
8
0
10
96.7314044127362
20
38.3890152794548
30
0
0
VERTEX
8
0
10
97.4078478002379
20
38.5755213580518
30
0
0
VERTEX
8
0
10
98.0842911877395
20
38.756034373709
30
0
0
VERTEX
8
0
10
98.7607345752412
20
38.938704350031
30
0
0
VERTEX
8
0
10
99.4371779627428
20
39.1218760195864
30
0
0
VERTEX
8
0
10
100.113621350244
20
39.3040875199175
30
0
0
VERTEX
8
0
10
100.790064737746
20
39.4386595095555
30
0
0
VERTEX
8
0
10
101.466508125248
20
39.5893107741252
30
0
0
VERTEX
8
0
10
102.142951512749
20
39.7406197559676
30
0
0
VERTEX
8
0
10
102.819394900251
20
39.8831386774294
30
0
0
VERTEX
8
0
10
103.495838287753
20
40.0214779891353
30
0
0
VERTEX
8
0
10
104.172281675254
20
40.1604913402249
30
0
0
VERTEX
8
0
10
104.848725062756
20
40.3001717555073
30
0
0
VERTEX
8
0
10
105.525168450258
20
40.456984776104
30
0
0
VERTEX
8
0
10
106.201611837759
20
40.6205585855403
30
0
0
VERTEX
8
0
10
106.878055225261
20
40.7846844128067
30
0
0
VERTEX
8
0
10
107.554498612763
20
40.9493556204086
30
0
0
VERTEX
8
0
10
108.230942000264
20
41.1168002791845
30
0
0
VERTEX
8
0
10
108.907385387766
20
41.2870911411645
30
0
0
VERTEX
8
0
10
109.583828775268
20
41.457828854908
30
0
0
VERTEX
8
0
10
110.260272162769
20
41.6290079222457
30
0
0
VERTEX
8
0
10
110.936715550271
20
41.7774250027765
30
0
0
VERTEX
8
0
10
111.613158937773
20
41.9228521260615
30
0
0
VERTEX
8
0
10
112.289602325274
20
42.0688749015978
30
0
0
VERTEX
8
0
10
112.966045712776
20
42.2154871483277
30
0
0
VERTEX
8
0
10
113.642489100278
20
42.3666004492293
30
0
0
VERTEX
8
0
10
114.318932487779
20
42.5184079858249
30
0
0
VERTEX
8
0
10
114.995375875281
20
42.6707590581965
30
0
0
VERTEX
8
0
10
115.671819262782
20
42.8236478652323
30
0
0
VERTEX
8
0
10
116.348262650284
20
42.9658928042156
30
0
0
VERTEX
8
0
10
117.024706037786
20
43.1205650419724
30
0
0
VERTEX
8
0
10
117.701149425287
20
43.275383386821
30
0
0
VERTEX
8
0
10
118.377592812789
20
43.4867010574534
30
0
0
VERTEX
8
0
10
119.054036200291
20
43.7055636334777
30
0
0
VERTEX
8
0
10
119.730479587792
20
43.932030948307
30
0
0
VERTEX
8
0
10
120.406922975294
20
44.1596708591385
30
0
0
VERTEX
8
0
10
121.083366362796
20
44.3248614990136
30
0
0
VERTEX
8
0
10
121.759809750297
20
44.4505117171556
30
0
0
VERTEX
8
0
10
122.436253137799
20
44.5765016711042
30
0
0
VERTEX
8
0
10
123.112696525301
20
44.702828488337
30
0
0
VERTEX
8
0
10
123.789139912802
20
44.8466891040053
30
0
0
VERTEX
8
0
10
124.465583300304
20
45.031970169427
30
0
0
VERTEX
8
0
10
125.142026687806
20
45.2085850908373
30
0
0
VERTEX
8
0
10
125.818470075307
20
45.3855076521606
30
0
0
VERTEX
8
0
10
126.494913462809
20
45.5462649282677
30
0
0
VERTEX
8
0
10
127.171356850311
20
45.6561774020132
30
0
0
VERTEX
8
0
10
127.847800237812
20
45.7812795119519
30
0
0
VERTEX
8
0
10
128.524243625314
20
45.9067606837551
30
0
0
VERTEX
8
0
10
129.200687012816
20
45.9869257132552
30
0
0
VERTEX
8
0
10
129.877130400317
20
46.0568194602334
30
0
0
VERTEX
8
0
10
130.553573787819
20
46.1269737676384
30
0
0
VERTEX
8
0
10
131.23001717532
20
46.197387448427
30
0
0
VERTEX
8
0
10
131.906460562822
20
46.2574412330326
30
0
0
VERTEX
8
0
10
132.582903950324
20
46.3132545803292
30
0
0
VERTEX
8
0
10
133.259347337825
20
46.3693868114417
30
0
0
VERTEX
8
0
10
133.935790725327
20
46.4258367697085
30
0
0
VERTEX
8
0
10
134.612234112829
20
46.4881480701906
30
0
0
VERTEX
8
0
10
135.28867750033
20
46.5525879187747
30
0
0
VERTEX
8
0
10
135.965120887832
20
46.6172999659068
30
0
0
VERTEX
8
0
10
136.641564275334
20
46.6822830796034
30
0
0
VERTEX
8
0
10
137.318007662835
20
46.7521882875303
30
0
0
VERTEX
8
0
10
137.994451050337
20
46.8231689517892
30
0
0
VERTEX
8
0
10
138.670894437839
20
46.894387856148
30
0
0
VERTEX
8
0
10
139.34733782534
20
46.9658439168063
30
0
0
VERTEX
8
0
10
140.023781212842
20
47.0289754569332
30
0
0
VERTEX
8
0
10
140.700224600343
20
47.091903502488
30
0
0
VERTEX
8
0
10
141.376667987845
20
47.1551153030427
30
0
0
VERTEX
8
0
10
142.053111375347
20
47.2186097190044
30
0
0
VERTEX
8
0
10
142.729554762848
20
47.2823856118203
30
0
0
VERTEX
8
0
10
143.40599815035
20
47.346441844038
30
0
0
VERTEX
8
0
10
144.082441537852
20
47.4107772793663
30
0
0
VERTEX
8
0
10
144.758884925353
20
47.4753907827336
30
0
0
VERTEX
8
0
10
145.435328312855
20
47.5503800148046
30
0
0
VERTEX
8
0
10
146.111771700357
20
47.6243323002694
30
0
0
VERTEX
8
0
10
146.788215087858
20
47.6985097800819
30
0
0
VERTEX
8
0
10
147.46465847536
20
47.7729114052574
30
0
0
VERTEX
8
0
10
148.141101862861
20
47.8410258219194
30
0
0
VERTEX
8
0
10
148.817545250363
20
47.9106577167215
30
0
0
VERTEX
8
0
10
149.493988637865
20
47.9805395680471
30
0
0
VERTEX
8
0
10
150.170432025366
20
48.0491528989424
30
0
0
VERTEX
8
0
10
150.846875412868
20
48.1080779674542
30
0
0
VERTEX
8
0
10
151.52331880037
20
48.1696329083678
30
0
0
VERTEX
8
0
10
152.199762187871
20
48.2314663920229
30
0
0
VERTEX
8
0
10
152.876205575373
20
48.2914829476153
30
0
0
VERTEX
8
0
10
153.552648962875
20
48.3776088016133
30
0
0
VERTEX
8
0
10
154.229092350376
20
48.4558526533264
30
0
0
SEQEND
8
0
0
POLYLINE
8
0
62
3
70
0
10
0
20
0
30
0
0
VERTEX
8
0
10
15.558197912538
20
14.6573156942976
30
0
0
VERTEX
8
0
10
16.2346413000396
20
15.1961439816322
30
0
0
VERTEX
8
0
10
16.9110846875413
20
15.9320018360343
30
0
0
VERTEX
8
0
10
17.5875280750429
20
16.317932543068
30
0
0
VERTEX
8
0
10
18.2639714625446
20
16.9369738318244
30
0
0
VERTEX
8
0
10
18.9404148500462
20
17.635988417574
30
0
0
VERTEX
8
0
10
19.6168582375479
20
18.0367424197986
30
0
0
VERTEX
8
0
10
20.2933016250495
20
18.9710960274261
30
0
0
VERTEX
8
0
10
20.9697450125512
20
19.3142003676312
30
0
0
VERTEX
8
0
10
21.6461884000528
20
19.9791306777679
30
0
0
VERTEX
8
0
10
22.3226317875545
20
20.3925504044162
30
0
0
VERTEX
8
0
10
22.9990751750562
20
21.1479229310748
30
0
0
VERTEX
8
0
10
23.6755185625578
20
21.5220137132613
30
0
0
VERTEX
8
0
10
24.3519619500595
20
22.1642965739861
30
0
0
VERTEX
8
0
10
25.0284053375611
20
22.7444782682238
30
0
0
VERTEX
8
0
10
25.7048487250628
20
23.2344429712845
30
0
0
VERTEX
8
0
10
26.3812921125644
20
23.8075530406167
30
0
0
VERTEX
8
0
10
27.0577355000661
20
24.4076270160849
30
0
0
VERTEX
8
0
10
27.7341788875677
20
24.9001342512118
30
0
0
VERTEX
8
0
10
28.4106222750694
20
25.4596697803983
30
0
0
VERTEX
8
0
10
29.087065662571
20
26.1808290722783
30
0
0
VERTEX
8
0
10
29.7635090500727
20
26.5442545658923
30
0
0
VERTEX
8
0
10
30.4399524375743
20
27.1900363722043
30
0
0
VERTEX
8
0
10
31.116395825076
20
27.697912307705
30
0
0
VERTEX
8
0
10
31.7928392125776
20
28.2326719547297
30
0
0
VERTEX
8
0
10
32.4692826000793
20
28.7544969865368
30
0
0
VERTEX
8
0
10
33.1457259875809
20
29.3390906580569
30
0
0
VERTEX
8
0
10
33.8221693750826
20
29.8128513843738
30
0
0
VERTEX
8
0
10
34.4986127625842
20
30.3638712464086
30
0
0
VERTEX
8
0
10
35.1750561500859
20
30.9222934695305
30
0
0
VERTEX
8
0
10
35.8514995375875
20
31.4100901436506
30
0
0
VERTEX
8
0
10
36.5279429250892
20
31.9518224512767
30
0
0
VERTEX
8
0
10
37.2043863125908
20
32.50013436815
30
0
0
VERTEX
8
0
10
37.8808297000925
20
33.0492597771149
30
0
0
VERTEX
8
0
10
38.5572730875941
20
33.522332385382
30
0
0
VERTEX
8
0
10
39.2337164750958
20
34.103481595113
30
0
0
VERTEX
8
0
10
39.9101598625974
20
34.5584836495038
30
0
0
VERTEX
8
0
10
40.5866032500991
20
35.0992515744445
30
0
0
VERTEX
8
0
10
41.2630466376008
20
35.6247548947948
30
0
0
VERTEX
8
0
10
41.9394900251024
20
36.1092482543411
30
0
0
VERTEX
8
0
10
42.6159334126041
20
36.6175166201569
30
0
0
VERTEX
8
0
10
43.2923768001057
20
37.1466796791651
30
0
0
VERTEX
8
0
10
43.9688201876074
20
37.6263977241048
30
0
0
VERTEX
8
0
10
44.645263575109
20
38.1344413663138
30
0
0
VERTEX
8
0
10
45.3217069626107
20
38.6547377852944
30
0
0
VERTEX
8
0
10
45.9981503501123
20
39.1313647580283
30
0
0
VERTEX
8
0
10
46.674593737614
20
39.6635167376883
30
0
0
VERTEX
8
0
10
47.3510371251156
20
40.1463785676354
30
0
0
VERTEX
8
0
10
48.0274805126173
20
40.6376222172021
30
0
0
VERTEX
8
0
10
48.7039239001189
20
41.1190816278132
30
0
0
VERTEX
8
0
10
49.3803672876206
20
41.6278429815685
30
0
0
VERTEX
8
0
10
50.0568106751222
20
42.0973969722376
30
0
0
VERTEX
8
0
10
50.7332540626239
20
42.5805419914718
30
0
0
VERTEX
8
0
10
51.4096974501255
20
43.0723438119407
30
0
0
VERTEX
8
0
10
52.0861408376272
20
43.5388546471821
30
0
0
VERTEX
8
0
10
52.7625842251288
20
44.0189539190086
30
0
0
VERTEX
8
0
10
53.4390276126305
20
44.506606491602
30
0
0
VERTEX
8
0
10
54.1154710001321
20
44.9680292332725
30
0
0
VERTEX
8
0
10
54.7919143876338
20
45.4419672041343
30
0
0
VERTEX
8
0
10
55.4683577751354
20
45.9377081293052
30
0
0
VERTEX
8
0
10
56.1448011626371
20
46.3802861970219
30
0
0
VERTEX
8
0
10
56.8212445501388
20
46.8544025682781
30
0
0
VERTEX
8
0
10
57.4976879376404
20
47.3228652139211
30
0
0
VERTEX
8
0
10
58.174131325142
20
47.773987999125
30
0
0
VERTEX
8
0
10
58.8505747126437
20
48.2374308648517
30
0
0
VERTEX
8
0
10
59.5270181001454
20
48.6965750551663
30
0
0
VERTEX
8
0
10
60.203461487647
20
49.1407176273198
30
0
0
VERTEX
8
0
10
60.8799048751487
20
49.5938994214866
30
0
0
VERTEX
8
0
10
61.5563482626503
20
50.0516773705847
30
0
0
VERTEX
8
0
10
62.232791650152
20
50.4920677917106
30
0
0
VERTEX
8
0
10
62.9092350376536
20
50.9379775867086
30
0
0
VERTEX
8
0
10
63.5856784251553
20
51.3893141012555
30
0
0
VERTEX
8
0
10
64.2621218126569
20
51.8314886604381
30
0
0
VERTEX
8
0
10
64.9385652001586
20
52.2645156220018
30
0
0
VERTEX
8
0
10
65.6150085876602
20
52.7099187385065
30
0
0
VERTEX
8
0
10
66.2914519751619
20
53.1389584341543
30
0
0
VERTEX
8
0
10
66.9678953626635
20
53.5683586262916
30
0
0
VERTEX
8
0
10
67.6443387501652
20
54.0093127096001
30
0
0
VERTEX
8
0
10
68.3207821376668
20
54.4259214792599
30
0
0
VERTEX
8
0
10
68.9972255251685
20
54.8501512090953
30
0
0
VERTEX
8
0
10
69.6736689126701
20
55.2785449872106
30
0
0
VERTEX
8
0
10
70.3501123001718
20
55.695742619055
30
0
0
VERTEX
8
0
10
71.0265556876734
20
56.1135976967115
30
0
0
VERTEX
8
0
10
71.7029990751751
20
56.534416085263
30
0
0
VERTEX
8
0
10
72.3794424626767
20
56.9464744262343
30
0
0
VERTEX
8
0
10
73.0558858501784
20
57.3600561521703
30
0
0
VERTEX
8
0
10
73.73232923768
20
57.7719340423796
30
0
0
VERTEX
8
0
10
74.4087726251817
20
58.1763846600921
30
0
0
VERTEX
8
0
10
75.0852160126833
20
58.5819262323135
30
0
0
VERTEX
8
0
10
75.761659400185
20
58.9846199176488
30
0
0
VERTEX
8
0
10
76.4381027876867
20
59.3886794650939
30
0
0
VERTEX
8
0
10
77.1145461751883
20
59.778692153575
30
0
0
VERTEX
8
0
10
77.79098956269
20
60.1774595633563
30
0
0
VERTEX
8
0
10
78.4674329501916
20
60.5693934232588
30
0
0
VERTEX
8
0
10
79.1438763376933
20
60.9585391497933
30
0
0
VERTEX
8
0
10
79.8203197251949
20
61.3500462750515
30
0
0
VERTEX
8
0
10
80.4967631126966
20
61.7353433554775
30
0
0
VERTEX
8
0
10
81.1732065001982
20
62.1181480518686
30
0
0
VERTEX
8
0
10
81.8496498876999
20
62.50256483082
30
0
0
VERTEX
8
0
10
82.5260932752015
20
62.8819898290485
30
0
0
VERTEX
8
0
10
83.2025366627032
20
63.2548170676736
30
0
0
VERTEX
8
0
10
83.8789800502048
20
63.6341620010869
30
0
0
VERTEX
8
0
10
84.5554234377065
20
64.0026813734615
30
0
0
VERTEX
8
0
10
85.2318668252081
20
64.3751854146782
30
0
0
VERTEX
8
0
10
85.9083102127098
20
64.7384118480554
30
0
0
VERTEX
8
0
10
86.5847536002114
20
65.1042084790256
30
0
0
VERTEX
8
0
10
87.2611969877131
20
65.463844682427
30
0
0
VERTEX
8
0
10
87.9376403752147
20
65.8252839946066
30
0
0
VERTEX
8
0
10
88.6140837627164
20
66.1841403486656
30
0
0
VERTEX
8
0
10
89.290527150218
20
66.5363353980746
30
0
0
VERTEX
8
0
10
89.9669705377197
20
66.8910185877861
30
0
0
VERTEX
8
0
10
90.6434139252213
20
67.2420495900582
30
0
0
VERTEX
8
0
10
91.319857312723
20
67.5886804957064
30
0
0
VERTEX
8
0
10
91.9963007002247
20
67.9326297994608
30
0
0
VERTEX
8
0
10
92.6727440877263
20
68.2805679299175
30
0
0
VERTEX
8
0
10
93.349187475228
20
68.61465819638
30
0
0
VERTEX
8
0
10
94.0256308627296
20
68.9579747661378
30
0
0
VERTEX
8
0
10
94.7020742502312
20
69.2907942282487
30
0
0
VERTEX
8
0
10
95.3785176377329
20
69.6214439304708
30
0
0
VERTEX
8
0
10
96.0549610252346
20
69.9521420413123
30
0
0
VERTEX
8
0
10
96.7314044127362
20
70.2828206415044
30
0
0
VERTEX
8
0
10
97.4078478002379
20
70.6057703744196
30
0
0
VERTEX
8
0
10
98.0842911877395
20
70.9287911534632
30
0
0
VERTEX
8
0
10
98.7607345752412
20
71.2529642676377
30
0
0
VERTEX
8
0
10
99.4371779627428
20
71.5669367102812
30
0
0
VERTEX
8
0
10
100.113621350244
20
71.8845438377172
30
0
0
VERTEX
8
0
10
100.790064737746
20
72.1983522376199
30
0
0
VERTEX
8
0
10
101.466508125248
20
72.5091227185103
30
0
0
VERTEX
8
0
10
102.142951512749
20
72.8139250505151
30
0
0
VERTEX
8
0
10
102.819394900251
20
73.1268020427654
30
0
0
VERTEX
8
0
10
103.495838287753
20
73.4229332632882
30
0
0
VERTEX
8
0
10
104.172281675254
20
73.7237068121765
30
0
0
VERTEX
8
0
10
104.848725062756
20
74.0249414805772
30
0
0
VERTEX
8
0
10
105.525168450258
20
74.3176693686849
30
0
0
VERTEX
8
0
10
106.201611837759
20
74.6104826504293
30
0
0
VERTEX
8
0
10
106.878055225261
20
74.9043133493884
30
0
0
VERTEX
8
0
10
107.554498612763
20
75.1900060149362
30
0
0
VERTEX
8
0
10
108.230942000264
20
75.4734925498372
30
0
0
VERTEX
8
0
10
108.907385387766
20
75.7621372386141
30
0
0
VERTEX
8
0
10
109.583828775268
20
76.0374035421248
30
0
0
VERTEX
8
0
10
110.260272162769
20
76.3173119219653
30
0
0
VERTEX
8
0
10
110.936715550271
20
76.5938366441478
30
0
0
VERTEX
8
0
10
111.613158937773
20
76.8669355519744
30
0
0
VERTEX
8
0
10
112.289602325274
20
77.1331953582374
30
0
0
VERTEX
8
0
10
112.966045712776
20
77.4053605463145
30
0
0
VERTEX
8
0
10
113.642489100278
20
77.6672846986131
30
0
0
VERTEX
8
0
10
114.318932487779
20
77.9291816063456
30
0
0
VERTEX
8
0
10
114.995375875281
20
78.19357183477
30
0
0
VERTEX
8
0
10
115.671819262782
20
78.447847103937
30
0
0
VERTEX
8
0
10
116.348262650284
20
78.7024541913551
30
0
0
VERTEX
8
0
10
117.024706037786
20
78.9577865117956
30
0
0
VERTEX
8
0
10
117.701149425287
20
79.2064155185237
30
0
0
VERTEX
8
0
10
118.377592812789
20
79.4509257500177
30
0
0
VERTEX
8
0
10
119.054036200291
20
79.7023047190729
30
0
0
VERTEX
8
0
10
119.730479587792
20
79.9393592806321
30
0
0
VERTEX
8
0
10
120.406922975294
20
80.1805665226781
30
0
0
VERTEX
8
0
10
121.083366362796
20
80.4196622673827
30
0
0
VERTEX
8
0
10
121.759809750297
20
80.6516086400751
30
0
0
VERTEX
8
0
10
122.436253137799
20
80.8823169752601
30
0
0
VERTEX
8
0
10
123.112696525301
20
81.1164365568753
30
0
0
VERTEX
8
0
10
123.789139912802
20
81.3405228968639
30
0
0
VERTEX
8
0
10
124.465583300304
20
81.5635248749808
30
0
0
VERTEX
8
0
10
125.142026687806
20
81.7903913852166
30
0
0
VERTEX
8
0
10
125.818470075307
20
82.0055747474052
30
0
0
VERTEX
8
0
10
126.494913462809
20
82.2225244897401
30
0
0
VERTEX
8
0
10
127.171356850311
20
82.4399465738029
30
0
0
VERTEX
8
0
10
127.847800237812
20
82.650425900983
30
0
0
VERTEX
8
0
10
128.524243625314
20
82.8566179463907
30
0
0
VERTEX
8
0
10
129.200687012816
20
83.0698333840003
30
0
0
VERTEX
8
0
10
129.877130400317
20
83.2691937284134
30
0
0
VERTEX
8
0
10
130.553573787819
20
83.4696703227974
30
0
0
VERTEX
8
0
10
131.23001717532
20
83.6732528212594
30
0
0
VERTEX
8
0
10
131.906460562822
20
83.8669708773914
30
0
0
VERTEX
8
0
10
132.582903950324
20
84.0596533452329
30
0
0
VERTEX
8
0
10
133.259347337825
20
84.2556885760365
30
0
0
VERTEX
8
0
10
133.935790725327
20
84.4421214447452
30
0
0
VERTEX
8
0
10
134.612234112829
20
84.6262455379268
30
0
0
VERTEX
8
0
10
135.28867750033
20
84.8159832138622
30
0
0
VERTEX
8
0
10
135.965120887832
20
84.993583360133
30
0
0
VERTEX
8
0
10
136.641564275334
20
85.1723186386811
30
0
0
VERTEX
8
0
10
137.318007662835
20
85.3523196414937
30
0
0
VERTEX
8
0
10
137.994451050337
20
85.5248668709902
30
0
0
VERTEX
8
0
10
138.670894437839
20
85.693656077475
30
0
0
VERTEX
8
0
10
139.34733782534
20
85.8675572449871
30
0
0
VERTEX
8
0
10
140.023781212842
20
86.0312986827693
30
0
0
VERTEX
8
0
10
140.700224600343
20
86.1939676717137
30
0
0
VERTEX
8
0
10
141.376667987845
20
86.3603244285402
30
0
0
VERTEX
8
0
10
142.053111375347
20
86.5167467129217
30
0
0
VERTEX
8
0
10
142.729554762848
20
86.6722096459565
30
0
0
VERTEX
8
0
10
143.40599815035
20
86.8305363202113
30
0
0
VERTEX
8
0
10
144.082441537852
20
86.9805300075806
30
0
0
VERTEX
8
0
10
144.758884925353
20
87.1278246889015
30
0
0
VERTEX
8
0
10
145.435328312855
20
87.2802785152588
30
0
0
VERTEX
8
0
10
146.111771700357
20
87.4216341583777
30
0
0
VERTEX
8
0
10
146.788215087858
20
87.5632382411509
30
0
0
VERTEX
8
0
10
147.46465847536
20
87.7069359815914
30
0
0
VERTEX
8
0
10
148.141101862861
20
87.8420553818647
30
0
0
VERTEX
8
0
10
148.817545250363
20
87.9756761089101
30
0
0
VERTEX
8
0
10
149.493988637865
20
88.1130382141643
30
0
0
VERTEX
8
0
10
150.170432025366
20
88.2410771914496
30
0
0
VERTEX
8
0
10
150.846875412868
20
88.367698685664
30
0
0
VERTEX
8
0
10
151.52331880037
20
88.4981133546359
30
0
0
VERTEX
8
0
10
152.199762187871
20
88.6188758394619
30
0
0
VERTEX
8
0
10
152.876205575373
20
88.7390825973507
30
0
0
VERTEX
8
0
10
153.552648962875
20
88.8620870371333
30
0
0
VERTEX
8
0
10
154.229092350376
20
88.9768822204195
30
0
0
SEQEND
8
0
0
POLYLINE
8
0
62
4
70
0
10
0
20
0
30
0
0
VERTEX
8
0
10
15.558197912538
20
13.9999969288872
30
0
0
VERTEX
8
0
10
16.2346413000396
20
14.6467261610716
30
0
0
VERTEX
8
0
10
16.9110846875413
20
15.3412084433612
30
0
0
VERTEX
8
0
10
17.5875280750429
20
15.7381728347734
30
0
0
VERTEX
8
0
10
18.2639714625446
20
16.3727482212737
30
0
0
VERTEX
8
0
10
18.9404148500462
20
17.0475217673725
30
0
0
VERTEX
8
0
10
19.6168582375479
20
17.4838593011261
30
0
0
VERTEX
8
0
10
20.2933016250495
20
18.0992105723217
30
0
0
VERTEX
8
0
10
20.9697450125512
20
18.7721719771356
30
0
0
VERTEX
8
0
10
21.6461884000528
20
19.2270652059938
30
0
0
VERTEX
8
0
10
22.3226317875545
20
19.8562793833423
30
0
0
VERTEX
8
0
10
22.9990751750562
20
20.4996823113569
30
0
0
VERTEX
8
0
10
23.6755185625578
20
20.9961694701806
30
0
0
VERTEX
8
0
10
24.3519619500595
20
21.600844204974
30
0
0
VERTEX
8
0
10
25.0284053375611
20
22.2469954504143
30
0
0
VERTEX
8
0
10
25.7048487250628
20
22.7484450779065
30
0
0
VERTEX
8
0
10
26.3812921125644
20
23.358982260303
30
0
0
VERTEX
8
0
10
27.0577355000661
20
23.9960824862488
30
0
0
VERTEX
8
0
10
27.7341788875677
20
24.5103020431673
30
0
0
VERTEX
8
0
10
28.4106222750694
20
25.1185456831373
30
0
0
VERTEX
8
0
10
29.087065662571
20
25.741566654043
30
0
0
VERTEX
8
0
10
29.7635090500727
20
26.2777816590641
30
0
0
VERTEX
8
0
10
30.4399524375743
20
26.8737548497293
30
0
0
VERTEX
8
0
10
31.116395825076
20
27.5090721374851
30
0
0
VERTEX
8
0
10
31.7928392125776
20
28.0304743810811
30
0
0
VERTEX
8
0
10
32.4692826000793
20
28.6369261467264
30
0
0
VERTEX
8
0
10
33.1457259875809
20
29.2441045360859
30
0
0
VERTEX
8
0
10
33.8221693750826
20
29.782036276277
30
0
0
VERTEX
8
0
10
34.4986127625842
20
30.3805088619337
30
0
0
VERTEX
8
0
10
35.1750561500859
20
30.996954712604
30
0
0
VERTEX
8
0
10
35.8514995375875
20
31.543227168524
30
0
0
VERTEX
8
0
10
36.5279429250892
20
32.1379104411977
30
0
0
VERTEX
8
0
10
37.2043863125908
20
32.7103475987848
30
0
0
VERTEX
8
0
10
37.8808297000925
20
33.2507894029602
30
0
0
VERTEX
8
0
10
38.5572730875941
20
33.7995617923188
30
0
0
VERTEX
8
0
10
39.2337164750958
20
34.3313462902979
30
0
0
VERTEX
8
0
10
39.9101598625974
20
34.8798159733353
30
0
0
VERTEX
8
0
10
40.5866032500991
20
35.4046279433264
30
0
0
VERTEX
8
0
10
41.2630466376008
20
35.945118925297
30
0
0
VERTEX
8
0
10
41.9394900251024
20
36.4770089047374
30
0
0
VERTEX
8
0
10
42.6159334126041
20
36.9531853048394
30
0
0
VERTEX
8
0
10
43.2923768001057
20
37.4400348042226
30
0
0
VERTEX
8
0
10
43.9688201876074
20
37.9345119728173
30
0
0
VERTEX
8
0
10
44.645263575109
20
38.4238823083569
30
0
0
VERTEX
8
0
10
45.3217069626107
20
38.8555159050046
30
0
0
VERTEX
8
0
10
45.9981503501123
20
39.3130929058981
30
0
0
VERTEX
8
0
10
46.674593737614
20
39.7537124400934
30
0
0
VERTEX
8
0
10
47.3510371251156
20
40.208845946566
30
0
0
VERTEX
8
0
10
48.0274805126173
20
40.6570998723561
30
0
0
VERTEX
8
0
10
48.7039239001189
20
41.1119624605768
30
0
0
VERTEX
8
0
10
49.3803672876206
20
41.5509979201411
30
0
0
VERTEX
8
0
10
50.0568106751222
20
42.012182514413
30
0
0
VERTEX
8
0
10
50.7332540626239
20
42.448315468053
30
0
0
VERTEX
8
0
10
51.4096974501255
20
42.8924885077567
30
0
0
VERTEX
8
0
10
52.0861408376272
20
43.3415389428719
30
0
0
VERTEX
8
0
10
52.7625842251288
20
43.7813960675608
30
0
0
VERTEX
8
0
10
53.4390276126305
20
44.2205653831238
30
0
0
VERTEX
8
0
10
54.1154710001321
20
44.6657991004435
30
0
0
VERTEX
8
0
10
54.7919143876338
20
45.1041274971654
30
0
0
VERTEX
8
0
10
55.4683577751354
20
45.537229680751
30
0
0
VERTEX
8
0
10
56.1448011626371
20
45.991295527729
30
0
0
VERTEX
8
0
10
56.8212445501388
20
46.422350069606
30
0
0
VERTEX
8
0
10
57.4976879376404
20
46.8662654480495
30
0
0
VERTEX
8
0
10
58.174131325142
20
47.2989224867768
30
0
0
VERTEX
8
0
10
58.8505747126437
20
47.7363963094366
30
0
0
VERTEX
8
0
10
59.5270181001454
20
48.1592513233321
30
0
0
VERTEX
8
0
10
60.203461487647
20
48.5973009431155
30
0
0
VERTEX
8
0
10
60.8799048751487
20
49.028601416669
30
0
0
VERTEX
8
0
10
61.5563482626503
20
49.4594170290476
30
0
0
VERTEX
8
0
10
62.232791650152
20
49.8976259444334
30
0
0
VERTEX
8
0
10
62.9092350376536
20
50.3251171058822
30
0
0
VERTEX
8
0
10
63.5856784251553
20
50.7503605378115
30
0
0
VERTEX
8
0
10
64.2621218126569
20
51.1762162565638
30
0
0
VERTEX
8
0
10
64.9385652001586
20
51.6045296708883
30
0
0
VERTEX
8
0
10
65.6150085876602
20
52.0195354299822
30
0
0
VERTEX
8
0
10
66.2914519751619
20
52.4559797262021
30
0
0
VERTEX
8
0
10
66.9678953626635
20
52.8700093251268
30
0
0
VERTEX
8
0
10
67.6443387501652
20
53.2950847310701
30
0
0
VERTEX
8
0
10
68.3207821376668
20
53.7165662522909
30
0
0
VERTEX
8
0
10
68.9972255251685
20
54.1262587654111
30
0
0
VERTEX
8
0
10
69.6736689126701
20
54.5351997279405
30
0
0
VERTEX
8
0
10
70.3501123001718
20
54.9526355229548
30
0
0
VERTEX
8
0
10
71.0265556876734
20
55.3662587947344
30
0
0
VERTEX
8
0
10
71.7029990751751
20
55.7350303842292
30
0
0
VERTEX
8
0
10
72.3794424626767
20
56.1262499108966
30
0
0
VERTEX
8
0
10
73.0558858501784
20
56.5013184227647
30
0
0
VERTEX
8
0
10
73.73232923768
20
56.891003388806
30
0
0
VERTEX
8
0
10
74.4087726251817
20
57.2705376583709
30
0
0
VERTEX
8
0
10
75.0852160126833
20
57.6536632935026
30
0
0
VERTEX
8
0
10
75.761659400185
20
58.0253460816008
30
0
0
VERTEX
8
0
10
76.4381027876867
20
58.4133305746082
30
0
0
VERTEX
8
0
10
77.1145461751883
20
58.7796565846141
30
0
0
VERTEX
8
0
10
77.79098956269
20
59.1512215496307
30
0
0
VERTEX
8
0
10
78.4674329501916
20
59.5292916592945
30
0
0
VERTEX
8
0
10
79.1438763376933
20
59.8990911042653
30
0
0
VERTEX
8
0
10
79.8203197251949
20
60.2688654357678
30
0
0
VERTEX
8
0
10
80.4967631126966
20
60.6459026686008
30
0
0
VERTEX
8
0
10
81.1732065001982
20
61.0143125921369
30
0
0
VERTEX
8
0
10
81.8496498876999
20
61.3773068564812
30
0
0
VERTEX
8
0
10
82.5260932752015
20
61.7575723355916
30
0
0
VERTEX
8
0
10
83.2025366627032
20
62.1183356857129
30
0
0
VERTEX
8
0
10
83.8789800502048
20
62.4873850473509
30
0
0
VERTEX
8
0
10
84.5554234377065
20
62.8529322808362
30
0
0
VERTEX
8
0
10
85.2318668252081
20
63.2170914370299
30
0
0
VERTEX
8
0
10
85.9083102127098
20
63.5712073794945
30
0
0
VERTEX
8
0
10
86.5847536002114
20
63.938494062752
30
0
0
VERTEX
8
0
10
87.2611969877131
20
64.2955152445683
30
0
0
VERTEX
8
0
10
87.9376403752147
20
64.65249665229
30
0
0
VERTEX
8
0
10
88.6140837627164
20
65.0173923152218
30
0
0
VERTEX
8
0
10
89.290527150218
20
65.3713410601076
30
0
0
VERTEX
8
0
10
89.9669705377197
20
65.7267933461526
30
0
0
VERTEX
8
0
10
90.6434139252213
20
66.0851148740188
30
0
0
VERTEX
8
0
10
91.319857312723
20
66.4410879027479
30
0
0
VERTEX
8
0
10
91.9963007002247
20
66.786095931738
30
0
0
VERTEX
8
0
10
92.6727440877263
20
67.1420932644245
30
0
0
VERTEX
8
0
10
93.349187475228
20
67.4804431348269
30
0
0
VERTEX
8
0
10
94.0256308627296
20
67.8253285727011
30
0
0
VERTEX
8
0
10
94.7020742502312
20
68.1727638900373
30
0
0
VERTEX
8
0
10
95.3785176377329
20
68.5187669401495
30
0
0
VERTEX
8
0
10
96.0549610252346
20
68.8618198292549
30
0
0
VERTEX
8
0
10
96.7314044127362
20
69.2131817236353
30
0
0
VERTEX
8
0
10
97.4078478002379
20
69.5535323395842
30
0
0
VERTEX
8
0
10
98.0842911877395
20
69.8885775752684
30
0
0
VERTEX
8
0
10
98.7607345752412
20
70.2333003515121
30
0
0
VERTEX
8
0
10
99.4371779627428
20
70.5638992711602
30
0
0
VERTEX
8
0
10
100.113621350244
20
70.899115795219
30
0
0
VERTEX
8
0
10
100.790064737746
20
71.2087726370741
30
0
0
VERTEX
8
0
10
101.466508125248
20
71.5232827413687
30
0
0
VERTEX
8
0
10
102.142951512749
20
71.8303137806499
30
0
0
VERTEX
8
0
10
102.819394900251
20
72.14613122007
30
0
0
VERTEX
8
0
10
103.495838287753
20
72.442919759253
30
0
0
VERTEX
8
0
10
104.172281675254
20
72.7422013223765
30
0
0
VERTEX
8
0
10
104.848725062756
20
73.048221548241
30
0
0
VERTEX
8
0
10
105.525168450258
20
73.3537075956005
30
0
0
VERTEX
8
0
10
106.201611837759
20
73.6614470488287
30
0
0
VERTEX
8
0
10
106.878055225261
20
73.9762728112714
30
0
0
VERTEX
8
0
10
107.554498612763
20
74.2818638136935
30
0
0
VERTEX
8
0
10
108.230942000264
20
74.5843983720511
30
0
0
VERTEX
8
0
10
108.907385387766
20
74.9009927482554
30
0
0
VERTEX
8
0
10
109.583828775268
20
75.2022255474601
30
0
0
VERTEX
8
0
10
110.260272162769
20
75.5074139933393
30
0
0
VERTEX
8
0
10
110.936715550271
20
75.8020070384398
30
0
0
VERTEX
8
0
10
111.613158937773
20
76.0897356899471
30
0
0
VERTEX
8
0
10
112.289602325274
20
76.3713319311836
30
0
0
VERTEX
8
0
10
112.966045712776
20
76.6631087768762
30
0
0
VERTEX
8
0
10
113.642489100278
20
76.9464408003704
30
0
0
VERTEX
8
0
10
114.318932487779
20
77.2290290744075
30
0
0
VERTEX
8
0
10
114.995375875281
20
77.5188407448749
30
0
0
VERTEX
8
0
10
115.671819262782
20
77.7984909592749
30
0
0
VERTEX
8
0
10
116.348262650284
20
78.0714692513833
30
0
0
VERTEX
8
0
10
117.024706037786
20
78.3557023816528
30
0
0
VERTEX
8
0
10
117.701149425287
20
78.6341560667459
30
0
0
VERTEX
8
0
10
118.377592812789
20
78.9381260794954
30
0
0
VERTEX
8
0
10
119.054036200291
20
79.2570684660522
30
0
0
VERTEX
8
0
10
119.730479587792
20
79.5663571958603
30
0
0
VERTEX
8
0
10
120.406922975294
20
79.8787464056034
30
0
0
VERTEX
8
0
10
121.083366362796
20
80.1594748880593
30
0
0
VERTEX
8
0
10
121.759809750297
20
80.4107007220135
30
0
0
VERTEX
8
0
10
122.436253137799
20
80.6600770054806
30
0
0
VERTEX
8
0
10
123.112696525301
20
80.916474415317
30
0
0
VERTEX
8
0
10
123.789139912802
20
81.172834929912
30
0
0
VERTEX
8
0
10
124.465583300304
20
81.450350576941
30
0
0
VERTEX
8
0
10
125.142026687806
20
81.7300513801989
30
0
0
VERTEX
8
0
10
125.818470075307
20
81.9985121218041
30
0
0
VERTEX
8
0
10
126.494913462809
20
82.2596653183411
30
0
0
VERTEX
8
0
10
127.171356850311
20
82.495977697472
30
0
0
VERTEX
8
0
10
127.847800237812
20
82.7341826192893
30
0
0
VERTEX
8
0
10
128.524243625314
20
82.9682096805124
30
0
0
VERTEX
8
0
10
129.200687012816
20
83.1862716660642
30
0
0
VERTEX
8
0
10
129.877130400317
20
83.3865162614169
30
0
0
VERTEX
8
0
10
130.553573787819
20
83.5870570129668
30
0
0
VERTEX
8
0
10
131.23001717532
20
83.7935138942838
30
0
0
VERTEX
8
0
10
131.906460562822
20
83.9852242560409
30
0
0
VERTEX
8
0
10
132.582903950324
20
84.1731711958592
30
0
0
VERTEX
8
0
10
133.259347337825
20
84.3671944529755
30
0
0
VERTEX
8
0
10
133.935790725327
20
84.5526404874356
30
0
0
VERTEX
8
0
10
134.612234112829
20
84.7386004288901
30
0
0
VERTEX
8
0
10
135.28867750033
20
84.9338816969897
30
0
0
VERTEX
8
0
10
135.965120887832
20
85.1181763138825
30
0
0
VERTEX
8
0
10
136.641564275334
20
85.3032654783754
30
0
0
VERTEX
8
0
10
137.318007662835
20
85.4948735853933
30
0
0
VERTEX
8
0
10
137.994451050337
20
85.6801509637677
30
0
0
VERTEX
8
0
10
138.670894437839
20
85.8622261373963
30
0
0
VERTEX
8
0
10
139.34733782534
20
86.0512402973241
30
0
0
VERTEX
8
0
10
140.023781212842
20
86.2266975520251
30
0
0
VERTEX
8
0
10
140.700224600343
20
86.4007642545773
30
0
0
VERTEX
8
0
10
141.376667987845
20
86.5805930046261
30
0
0
VERTEX
8
0
10
142.053111375347
20
86.7518575919815
30
0
0
VERTEX
8
0
10
142.729554762848
20
86.9221053452883
30
0
0
VERTEX
8
0
10
143.40599815035
20
87.097166515399
30
0
0
VERTEX
8
0
10
144.082441537852
20
87.2653334696055
30
0
0
VERTEX
8
0
10
144.758884925353
20
87.4308964086884
30
0
0
VERTEX
8
0
10
145.435328312855
20
87.6087569835437
30
0
0
VERTEX
8
0
10
146.111771700357
20
87.7764866022212
30
0
0
VERTEX
8
0
10
146.788215087858
20
87.9441628999942
30
0
0
VERTEX
8
0
10
147.46465847536
20
88.1160196917211
30
0
0
VERTEX
8
0
10
148.141101862861
20
88.2769845612562
30
0
0
VERTEX
8
0
10
148.817545250363
20
88.437239164217
30
0
0
VERTEX
8
0
10
149.493988637865
20
88.6028053007759
30
0
0
VERTEX
8
0
10
150.170432025366
20
88.7597036499748
30
0
0
VERTEX
8
0
10
150.846875412868
20
88.909938592722
30
0
0
VERTEX
8
0
10
151.52331880037
20
89.0666984507158
30
0
0
VERTEX
8
0
10
152.199762187871
20
89.2153450100364
30
0
0
VERTEX
8
0
10
152.876205575373
20
89.3624539197957
30
0
0
VERTEX
8
0
10
153.552648962875
20
89.5277651991762
30
0
0
VERTEX
8
0
10
154.229092350376
20
89.6818779308392
30
0
0
SEQEND
8
0
0
POLYLINE
8
0
62
2
70
0
10
0
20
0
30
0
0
VERTEX
8
0
10
15.558197912538
20
10.8127622720616
30
0
0
VERTEX
8
0
10
16.2346413000396
20
10.999809945259
30
0
0
VERTEX
8
0
10
16.9110846875413
20
11.393599658978
30
0
0
VERTEX
8
0
10
17.5875280750429
20
11.6995365716054
30
0
0
VERTEX
8
0
10
18.2639714625446
20
12.0124284059829
30
0
0
VERTEX
8
0
10
18.9404148500462
20
12.3800973604672
30
0
0
VERTEX
8
0
10
19.6168582375479
20
12.6527878391815
30
0
0
VERTEX
8
0
10
20.2933016250495
20
13.4384498074911
30
0
0
VERTEX
8
0
10
20.9697450125512
20
13.3029920540415
30
0
0
VERTEX
8
0
10
21.6461884000528
20
13.9325452065218
30
0
0
VERTEX
8
0
10
22.3226317875545
20
13.9549177895192
30
0
0
VERTEX
8
0
10
22.9990751750562
20
14.4533439428736
30
0
0
VERTEX
8
0
10
23.6755185625578
20
14.6029934664659
30
0
0
VERTEX
8
0
10
24.3519619500595
20
14.9919904332963
30
0
0
VERTEX
8
0
10
25.0284053375611
20
15.2287808233597
30
0
0
VERTEX
8
0
10
25.7048487250628
20
15.5414378060937
30
0
0
VERTEX
8
0
10
26.3812921125644
20
15.8184702417047
30
0
0
VERTEX
8
0
10
27.0577355000661
20
16.0961755945205
30
0
0
VERTEX
8
0
10
27.7341788875677
20
16.3936215891955
30
0
0
VERTEX
8
0
10
28.4106222750694
20
16.6519460310073
30
0
0
VERTEX
8
0
10
29.087065662571
20
17.1371120539192
30
0
0
VERTEX
8
0
10
29.7635090500727
20
17.205487748996
30
0
0
VERTEX
8
0
10
30.4399524375743
20
17.6169914902408
30
0
0
VERTEX
8
0
10
31.116395825076
20
17.7543200449169
30
0
0
VERTEX
8
0
10
31.7928392125776
20
18.1016845006189
30
0
0
VERTEX
8
0
10
32.4692826000793
20
18.2965683257406
30
0
0
VERTEX
8
0
10
33.1457259875809
20
18.588153970285
30
0
0
VERTEX
8
0
10
33.8221693750826
20
18.8134314105234
30
0
0
VERTEX
8
0
10
34.4986127625842
20
19.0739279398168
30
0
0
VERTEX
8
0
10
35.1750561500859
20
19.3159260676589
30
0
0
VERTEX
8
0
10
35.8514995375875
20
19.5570060153659
30
0
0
VERTEX
8
0
10
36.5279429250892
20
19.8062828523664
30
0
0
VERTEX
8
0
10
37.2043863125908
20
20.0357773154347
30
0
0
VERTEX
8
0
10
37.8808297000925
20
20.3830349075396
30
0
0
VERTEX
8
0
10
38.5572730875941
20
20.5089504968505
30
0
0
VERTEX
8
0
10
39.2337164750958
20
20.8139357053944
30
0
0
VERTEX
8
0
10
39.9101598625974
20
20.9754951535183
30
0
0
VERTEX
8
0
10
40.5866032500991
20
21.2427248633356
30
0
0
VERTEX
8
0
10
41.2630466376008
20
21.4345933266011
30
0
0
VERTEX
8
0
10
41.9394900251024
20
21.668100054637
30
0
0
VERTEX
8
0
10
42.6159334126041
20
21.869490605805
30
0
0
VERTEX
8
0
10
43.2923768001057
20
22.0889757958633
30
0
0
VERTEX
8
0
10
43.9688201876074
20
22.2974446134118
30
0
0
VERTEX
8
0
10
44.645263575109
20
22.5044503792798
30
0
0
VERTEX
8
0
10
45.3217069626107
20
22.7147214459001
30
0
0
VERTEX
8
0
10
45.9981503501123
20
22.913777304165
30
0
0
VERTEX
8
0
10
46.674593737614
20
23.1793341175725
30
0
0
VERTEX
8
0
10
47.3510371251156
20
23.3163408227256
30
0
0
VERTEX
8
0
10
48.0274805126173
20
23.5546099946933
30
0
0
VERTEX
8
0
10
48.7039239001189
20
23.7116351464734
30
0
0
VERTEX
8
0
10
49.3803672876206
20
23.9250793728256
30
0
0
VERTEX
8
0
10
50.0568106751222
20
24.099246846433
30
0
0
VERTEX
8
0
10
50.7332540626239
20
24.2900957058975
30
0
0
VERTEX
8
0
10
51.4096974501255
20
24.4647977621131
30
0
0
VERTEX
8
0
10
52.0861408376272
20
24.6491103229186
30
0
0
VERTEX
8
0
10
52.7625842251288
20
24.8262223975505
30
0
0
VERTEX
8
0
10
53.4390276126305
20
25.0016589282059
30
0
0
VERTEX
8
0
10
54.1154710001321
20
25.1779452126678
30
0
0
VERTEX
8
0
10
54.7919143876338
20
25.3473498572716
30
0
0
VERTEX
8
0
10
55.4683577751354
20
25.5560072838032
30
0
0
VERTEX
8
0
10
56.1448011626371
20
25.685853899656
30
0
0
VERTEX
8
0
10
56.8212445501388
20
25.8754473308757
30
0
0
VERTEX
8
0
10
57.4976879376404
20
26.0168955045063
30
0
0
VERTEX
8
0
10
58.174131325142
20
26.1888999864857
30
0
0
VERTEX
8
0
10
58.8505747126437
20
26.3402451957873
30
0
0
VERTEX
8
0
10
59.5270181001454
20
26.4960108234407
30
0
0
VERTEX
8
0
10
60.203461487647
20
26.6437549765053
30
0
0
VERTEX
8
0
10
60.8799048751487
20
26.7964751137848
30
0
0
VERTEX
8
0
10
61.5563482626503
20
26.9441336382183
30
0
0
VERTEX
8
0
10
62.232791650152
20
27.0900316024938
30
0
0
VERTEX
8
0
10
62.9092350376536
20
27.2355007317597
30
0
0
VERTEX
8
0
10
63.5856784251553
20
27.37645703455
30
0
0
VERTEX
8
0
10
64.2621218126569
20
27.5409968174208
30
0
0
VERTEX
8
0
10
64.9385652001586
20
27.6555613529527
30
0
0
VERTEX
8
0
10
65.6150085876602
20
27.8059911807463
30
0
0
VERTEX
8
0
10
66.2914519751619
20
27.9271834910488
30
0
0
VERTEX
8
0
10
66.9678953626635
20
28.0644477812783
30
0
0
VERTEX
8
0
10
67.6443387501652
20
28.191187688271
30
0
0
VERTEX
8
0
10
68.3207821376668
20
28.3161582362082
30
0
0
VERTEX
8
0
10
68.9972255251685
20
28.4374086188942
30
0
0
VERTEX
8
0
10
69.6736689126701
20
28.5609417109858
30
0
0
VERTEX
8
0
10
70.3501123001718
20
28.6806873052775
30
0
0
VERTEX
8
0
10
71.0265556876734
20
28.7986417617887
30
0
0
VERTEX
8
0
10
71.7029990751751
20
28.9154625882811
30
0
0
VERTEX
8
0
10
72.3794424626767
20
29.0291235326593
30
0
0
VERTEX
8
0
10
73.0558858501784
20
29.1568765917987
30
0
0
VERTEX
8
0
10
73.73232923768
20
29.2522712697952
30
0
0
VERTEX
8
0
10
74.4087726251817
20
29.3691020831539
30
0
0
VERTEX
8
0
10
75.0852160126833
20
29.4679861186123
30
0
0
VERTEX
8
0
10
75.761659400185
20
29.5745298127097
30
0
0
VERTEX
8
0
10
76.4381027876867
20
29.6761841716338
30
0
0
VERTEX
8
0
10
77.1145461751883
20
29.7730309514365
30
0
0
VERTEX
8
0
10
77.79098956269
20
29.8684339996969
30
0
0
VERTEX
8
0
10
78.4674329501916
20
29.9644930269445
30
0
0
VERTEX
8
0
10
79.1438763376933
20
30.0575540966742
30
0
0
VERTEX
8
0
10
79.8203197251949
20
30.1488182020767
30
0
0
VERTEX
8
0
10
80.4967631126966
20
30.2385563000047
30
0
0
VERTEX
8
0
10
81.1732065001982
20
30.3259217342658
30
0
0
VERTEX
8
0
10
81.8496498876999
20
30.4214326584786
30
0
0
VERTEX
8
0
10
82.5260932752015
20
30.4957305979075
30
0
0
VERTEX
8
0
10
83.2025366627032
20
30.5824725526127
30
0
0
VERTEX
8
0
10
83.8789800502048
20
30.6581822529475
30
0
0
VERTEX
8
0
10
84.5554234377065
20
30.7365985935815
30
0
0
VERTEX
8
0
10
85.2318668252081
20
30.8132235439223
30
0
0
VERTEX
8
0
10
85.9083102127098
20
30.8837284512749
30
0
0
VERTEX
8
0
10
86.5847536002114
20
30.9539327825955
30
0
0
VERTEX
8
0
10
87.2611969877131
20
31.0237901009103
30
0
0
VERTEX
8
0
10
87.9376403752147
20
31.0911509191332
30
0
0
VERTEX
8
0
10
88.6140837627164
20
31.156720834557
30
0
0
VERTEX
8
0
10
89.290527150218
20
31.2205520981312
30
0
0
VERTEX
8
0
10
89.9669705377197
20
31.282466371901
30
0
0
VERTEX
8
0
10
90.6434139252213
20
31.3487264424936
30
0
0
VERTEX
8
0
10
91.319857312723
20
31.4009800611671
30
0
0
VERTEX
8
0
10
91.9963007002247
20
31.4599809953921
30
0
0
VERTEX
8
0
10
92.6727440877263
20
31.5122221616129
30
0
0
VERTEX
8
0
10
93.349187475228
20
31.5642826393824
30
0
0
VERTEX
8
0
10
94.0256308627296
20
31.6161591991455
30
0
0
VERTEX
8
0
10
94.7020742502312
20
31.6615782214019
30
0
0
VERTEX
8
0
10
95.3785176377329
20
31.7071835555564
30
0
0
VERTEX
8
0
10
96.0549610252346
20
31.7518214905602
30
0
0
VERTEX
8
0
10
96.7314044127362
20
31.7942861287419
30
0
0
VERTEX
8
0
10
97.4078478002379
20
31.8349725158006
30
0
0
VERTEX
8
0
10
98.0842911877395
20
31.8738157132164
30
0
0
VERTEX
8
0
10
98.7607345752412
20
31.9109971623924
30
0
0
VERTEX
8
0
10
99.4371779627428
20
31.9500798775284
30
0
0
VERTEX
8
0
10
100.113621350244
20
31.9798666224149
30
0
0
VERTEX
8
0
10
100.790064737746
20
32.0127818475022
30
0
0
VERTEX
8
0
10
101.466508125248
20
32.0415569947834
30
0
0
VERTEX
8
0
10
102.142951512749
20
32.0685394777722
30
0
0
VERTEX
8
0
10
102.819394900251
20
32.0960489100506
30
0
0
VERTEX
8
0
10
103.495838287753
20
32.1173197590959
30
0
0
VERTEX
8
0
10
104.172281675254
20
32.1388790168188
30
0
0
VERTEX
8
0
10
104.848725062756
20
32.1590946914341
30
0
0
VERTEX
8
0
10
105.525168450258
20
32.1773479059169
30
0
0
VERTEX
8
0
10
106.201611837759
20
32.1938409501211
30
0
0
VERTEX
8
0
10
106.878055225261
20
32.2084544895508
30
0
0
VERTEX
8
0
10
107.554498612763
20
32.2215395908084
30
0
0
VERTEX
8
0
10
108.230942000264
20
32.2349650306033
30
0
0
VERTEX
8
0
10
108.907385387766
20
32.2421757906728
30
0
0
VERTEX
8
0
10
109.583828775268
20
32.2502463959943
30
0
0
VERTEX
8
0
10
110.260272162769
20
32.2557386237796
30
0
0
VERTEX
8
0
10
110.936715550271
20
32.2586314917112
30
0
0
VERTEX
8
0
10
111.613158937773
20
32.2622208679394
30
0
0
VERTEX
8
0
10
112.289602325274
20
32.2601035228547
30
0
0
VERTEX
8
0
10
112.966045712776
20
32.2581554035508
30
0
0
VERTEX
8
0
10
113.642489100278
20
32.254649810886
30
0
0
VERTEX
8
0
10
114.318932487779
20
32.2493230673646
30
0
0
VERTEX
8
0
10
114.995375875281
20
32.2422616380582
30
0
0
VERTEX
8
0
10
115.671819262782
20
32.2333310018756
30
0
0
VERTEX
8
0
10
116.348262650284
20
32.2229341222913
30
0
0
VERTEX
8
0
10
117.024706037786
20
32.2119087422826
30
0
0
VERTEX
8
0
10
117.701149425287
20
32.1966661218454
30
0
0
VERTEX
8
0
10
118.377592812789
20
32.1809129307494
30
0
0
VERTEX
8
0
10
119.054036200291
20
32.1634601692295
30
0
0
VERTEX
8
0
10
119.730479587792
20
32.1431168924459
30
0
0
VERTEX
8
0
10
120.406922975294
20
32.1233224334155
30
0
0
VERTEX
8
0
10
121.083366362796
20
32.0985201905252
30
0
0
VERTEX
8
0
10
121.759809750297
20
32.0736518796723
30
0
0
VERTEX
8
0
10
122.436253137799
20
32.0471264638172
30
0
0
VERTEX
8
0
10
123.112696525301
20
32.0188830600837
30
0
0
VERTEX
8
0
10
123.789139912802
20
31.9889434378502
30
0
0
VERTEX
8
0
10
124.465583300304
20
31.9571822609995
30
0
0
VERTEX
8
0
10
125.142026687806
20
31.9239829679713
30
0
0
VERTEX
8
0
10
125.818470075307
20
31.8895943849367
30
0
0
VERTEX
8
0
10
126.494913462809
20
31.8522611155681
30
0
0
VERTEX
8
0
10
127.171356850311
20
31.8136569639238
30
0
0
VERTEX
8
0
10
127.847800237812
20
31.7737982587677
30
0
0
VERTEX
8
0
10
128.524243625314
20
31.7310912331384
30
0
0
VERTEX
8
0
10
129.200687012816
20
31.6886192388061
30
0
0
VERTEX
8
0
10
129.877130400317
20
31.6419179101177
30
0
0
VERTEX
8
0
10
130.553573787819
20
31.5948739434018
30
0
0
VERTEX
8
0
10
131.23001717532
20
31.5461627725708
30
0
0
VERTEX
8
0
10
131.906460562822
20
31.4958265738398
30
0
0
VERTEX
8
0
10
132.582903950324
20
31.4438568889998
30
0
0
VERTEX
8
0
10
133.259347337825
20
31.3901524470359
30
0
0
VERTEX
8
0
10
133.935790725327
20
31.3350368966663
30
0
0
VERTEX
8
0
10
134.612234112829
20
31.2784646112292
30
0
0
VERTEX
8
0
10
135.28867750033
20
31.2197453310623
30
0
0
VERTEX
8
0
10
135.965120887832
20
31.1594207951867
30
0
0
VERTEX
8
0
10
136.641564275334
20
31.098031011786
30
0
0
VERTEX
8
0
10
137.318007662835
20
31.0340556994714
30
0
0
VERTEX
8
0
10
137.994451050337
20
30.96994949025
30
0
0
VERTEX
8
0
10
138.670894437839
20
30.9024233691313
30
0
0
VERTEX
8
0
10
139.34733782534
20
30.8343003716675
30
0
0
VERTEX
8
0
10
140.023781212842
20
30.764585592642
30
0
0
VERTEX
8
0
10
140.700224600343
20
30.6933612719433
30
0
0
VERTEX
8
0
10
141.376667987845
20
30.6206125253537
30
0
0
VERTEX
8
0
10
142.053111375347
20
30.5462711546833
30
0
0
VERTEX
8
0
10
142.729554762848
20
30.4705834059914
30
0
0
VERTEX
8
0
10
143.40599815035
20
30.3934018307486
30
0
0
VERTEX
8
0
10
144.082441537852
20
30.3145873785536
30
0
0
VERTEX
8
0
10
144.758884925353
20
30.2341491429564
30
0
0
VERTEX
8
0
10
145.435328312855
20
30.1527244343699
30
0
0
VERTEX
8
0
10
146.111771700357
20
30.0691376047159
30
0
0
VERTEX
8
0
10
146.788215087858
20
29.9851064916894
30
0
0
VERTEX
8
0
10
147.46465847536
20
29.898481396856
30
0
0
VERTEX
8
0
10
148.141101862861
20
29.8110989266387
30
0
0
VERTEX
8
0
10
148.817545250363
20
29.7223086873236
30
0
0
VERTEX
8
0
10
149.493988637865
20
29.6321979067081
30
0
0
VERTEX
8
0
10
150.170432025366
20
29.5407631481046
30
0
0
VERTEX
8
0
10
150.846875412868
20
29.4479756521414
30
0
0
VERTEX
8
0
10
151.52331880037
20
29.3540057074451
30
0
0
VERTEX
8
0
10
152.199762187871
20
29.2587244359988
30
0
0
VERTEX
8
0
10
152.876205575373
20
29.1622165807947
30
0
0
VERTEX
8
0
10
153.552648962875
20
29.0643409133139
30
0
0
VERTEX
8
0
10
154.229092350376
20
28.9655976349445
30
0
0
SEQEND
8
0
0
POLYLINE
8
0
62
3
70
0
10
0
20
0
30
0
0
VERTEX
8
0
10
15.558197912538
20
14.5306340150982
30
0
0
VERTEX
8
0
10
16.2346413000396
20
14.9366274821497
30
0
0
VERTEX
8
0
10
16.9110846875413
20
15.4914601115787
30
0
0
VERTEX
8
0
10
17.5875280750429
20
15.9818266127809
30
0
0
VERTEX
8
0
10
18.2639714625446
20
16.4761130343551
30
0
0
VERTEX
8
0
10
18.9404148500462
20
17.0074385999542
30
0
0
VERTEX
8
0
10
19.6168582375479
20
17.4714591885589
30
0
0
VERTEX
8
0
10
20.2933016250495
20
18.2968561677914
30
0
0
VERTEX
8
0
10
20.9697450125512
20
18.4684522782908
30
0
0
VERTEX
8
0
10
21.6461884000528
20
19.1750414454717
30
0
0
VERTEX
8
0
10
22.3226317875545
20
19.4609345963187
30
0
0
VERTEX
8
0
10
22.9990751750562
20
20.068590596393
30
0
0
VERTEX
8
0
10
23.6755185625578
20
20.4447473710491
30
0
0
VERTEX
8
0
10
24.3519619500595
20
20.9702316406214
30
0
0
VERTEX
8
0
10
25.0284053375611
20
21.3974550964495
30
0
0
VERTEX
8
0
10
25.7048487250628
20
21.8743615828367
30
0
0
VERTEX
8
0
10
26.3812921125644
20
22.3260039549497
30
0
0
VERTEX
8
0
10
27.0577355000661
20
22.7767057839327
30
0
0
VERTEX
8
0
10
27.7341788875677
20
23.2383476880083
30
0
0
VERTEX
8
0
10
28.4106222750694
20
23.6740245731597
30
0
0
VERTEX
8
0
10
29.087065662571
20
24.2569981907475
30
0
0
VERTEX
8
0
10
29.7635090500727
20
24.5638748442143
30
0
0
VERTEX
8
0
10
30.4399524375743
20
25.0912390740664
30
0
0
VERTEX
8
0
10
31.116395825076
20
25.4444224822275
30
0
0
VERTEX
8
0
10
31.7928392125776
20
25.9233592224336
30
0
0
VERTEX
8
0
10
32.4692826000793
20
26.3142974630616
30
0
0
VERTEX
8
0
10
33.1457259875809
20
26.7510193940812
30
0
0
VERTEX
8
0
10
33.8221693750826
20
27.1516829039387
30
0
0
VERTEX
8
0
10
34.4986127625842
20
27.5723475866179
30
0
0
VERTEX
8
0
10
35.1750561500859
20
27.980167172522
30
0
0
VERTEX
8
0
10
35.8514995375875
20
28.3858508144391
30
0
0
VERTEX
8
0
10
36.5279429250892
20
28.794177640271
30
0
0
VERTEX
8
0
10
37.2043863125908
20
29.1903422312265
30
0
0
VERTEX
8
0
10
37.8808297000925
20
29.6551568446936
30
0
0
VERTEX
8
0
10
38.5572730875941
20
29.9848816576313
30
0
0
VERTEX
8
0
10
39.2337164750958
20
30.4172843902415
30
0
0
VERTEX
8
0
10
39.9101598625974
20
30.7687274222825
30
0
0
VERTEX
8
0
10
40.5866032500991
20
31.1720194945396
30
0
0
VERTEX
8
0
10
41.2630466376008
20
31.5412975479567
30
0
0
VERTEX
8
0
10
41.9394900251024
20
31.9183989301089
30
0
0
VERTEX
8
0
10
42.6159334126041
20
32.2830449507252
30
0
0
VERTEX
8
0
10
43.2923768001057
20
32.6556300596732
30
0
0
VERTEX
8
0
10
43.9688201876074
20
33.0206112999604
30
0
0
VERTEX
8
0
10
44.645263575109
20
33.3830625045925
30
0
0
VERTEX
8
0
10
45.3217069626107
20
33.7447687518941
30
0
0
VERTEX
8
0
10
45.9981503501123
20
34.1001644190665
30
0
0
VERTEX
8
0
10
46.674593737614
20
34.4885922204642
30
0
0
VERTEX
8
0
10
47.3510371251156
20
34.806502691139
30
0
0
VERTEX
8
0
10
48.0274805126173
20
35.1733337095822
30
0
0
VERTEX
8
0
10
48.7039239001189
20
35.5017264577731
30
0
0
VERTEX
8
0
10
49.3803672876206
20
35.8487215833619
30
0
0
VERTEX
8
0
10
50.0568106751222
20
36.185553396068
30
0
0
VERTEX
8
0
10
50.7332540626239
20
36.5142966399358
30
0
0
VERTEX
8
0
10
51.4096974501255
20
36.8408750931418
30
0
0
VERTEX
8
0
10
52.0861408376272
20
37.1696745415531
30
0
0
VERTEX
8
0
10
52.7625842251288
20
37.493439546866
30
0
0
VERTEX
8
0
10
53.4390276126305
20
37.8145348437873
30
0
0
VERTEX
8
0
10
54.1154710001321
20
38.1333345806377
30
0
0
VERTEX
8
0
10
54.7919143876338
20
38.4486116408634
30
0
0
VERTEX
8
0
10
55.4683577751354
20
38.7788146532788
30
0
0
VERTEX
8
0
10
56.1448011626371
20
39.0716855977775
30
0
0
VERTEX
8
0
10
56.8212445501388
20
39.3861321366846
30
0
0
VERTEX
8
0
10
57.4976879376404
20
39.6835771676071
30
0
0
VERTEX
8
0
10
58.174131325142
20
39.983305627413
30
0
0
VERTEX
8
0
10
58.8505747126437
20
40.2841408185732
30
0
0
VERTEX
8
0
10
59.5270181001454
20
40.5700974196616
30
0
0
VERTEX
8
0
10
60.203461487647
20
40.8585603733655
30
0
0
VERTEX
8
0
10
60.8799048751487
20
41.1463072817301
30
0
0
VERTEX
8
0
10
61.5563482626503
20
41.4303918048163
30
0
0
VERTEX
8
0
10
62.232791650152
20
41.711767580303
30
0
0
VERTEX
8
0
10
62.9092350376536
20
41.9901175096366
30
0
0
VERTEX
8
0
10
63.5856784251553
20
42.2663390571222
30
0
0
VERTEX
8
0
10
64.2621218126569
20
42.547680850028
30
0
0
VERTEX
8
0
10
64.9385652001586
20
42.8099071719413
30
0
0
VERTEX
8
0
10
65.6150085876602
20
43.0789791193464
30
0
0
VERTEX
8
0
10
66.2914519751619
20
43.3423789362448
30
0
0
VERTEX
8
0
10
66.9678953626635
20
43.5998395661402
30
0
0
VERTEX
8
0
10
67.6443387501652
20
43.8636801712741
30
0
0
VERTEX
8
0
10
68.3207821376668
20
44.1101357464627
30
0
0
VERTEX
8
0
10
68.9972255251685
20
44.3610835524268
30
0
0
VERTEX
8
0
10
69.6736689126701
20
44.6097619928126
30
0
0
VERTEX
8
0
10
70.3501123001718
20
44.8555467742771
30
0
0
VERTEX
8
0
10
71.0265556876734
20
45.0986310182498
30
0
0
VERTEX
8
0
10
71.7029990751751
20
45.3383704127616
30
0
0
VERTEX
8
0
10
72.3794424626767
20
45.576671815402
30
0
0
VERTEX
8
0
10
73.0558858501784
20
45.814648305741
30
0
0
VERTEX
8
0
10
73.73232923768
20
46.0438278144522
30
0
0
VERTEX
8
0
10
74.4087726251817
20
46.2717775989789
30
0
0
VERTEX
8
0
10
75.0852160126833
20
46.5000552684364
30
0
0
VERTEX
8
0
10
75.761659400185
20
46.7184202148604
30
0
0
VERTEX
8
0
10
76.4381027876867
20
46.945321837543
30
0
0
VERTEX
8
0
10
77.1145461751883
20
47.154512266243
30
0
0
VERTEX
8
0
10
77.79098956269
20
47.3687926113596
30
0
0
VERTEX
8
0
10
78.4674329501916
20
47.5800024586588
30
0
0
VERTEX
8
0
10
79.1438763376933
20
47.7887594700531
30
0
0
VERTEX
8
0
10
79.8203197251949
20
47.9948508267362
30
0
0
VERTEX
8
0
10
80.4967631126966
20
48.1975028012476
30
0
0
VERTEX
8
0
10
81.1732065001982
20
48.3990276167769
30
0
0
VERTEX
8
0
10
81.8496498876999
20
48.5972466203604
30
0
0
VERTEX
8
0
10
82.5260932752015
20
48.7925122993762
30
0
0
VERTEX
8
0
10
83.2025366627032
20
48.982238609698
30
0
0
VERTEX
8
0
10
83.8789800502048
20
49.1752926974154
30
0
0
VERTEX
8
0
10
84.5554234377065
20
49.3568371645802
30
0
0
VERTEX
8
0
10
85.2318668252081
20
49.5473642160974
30
0
0
VERTEX
8
0
10
85.9083102127098
20
49.7210177596994
30
0
0
VERTEX
8
0
10
86.5847536002114
20
49.8996084254097
30
0
0
VERTEX
8
0
10
87.2611969877131
20
50.0747642177211
30
0
0
VERTEX
8
0
10
87.9376403752147
20
50.2477220276112
30
0
0
VERTEX
8
0
10
88.6140837627164
20
50.4180680149225
30
0
0
VERTEX
8
0
10
89.290527150218
20
50.5850115656799
30
0
0
VERTEX
8
0
10
89.9669705377197
20
50.7509276656091
30
0
0
VERTEX
8
0
10
90.6434139252213
20
50.9120253873909
30
0
0
VERTEX
8
0
10
91.319857312723
20
51.073348177441
30
0
0
VERTEX
8
0
10
91.9963007002247
20
51.2270619828311
30
0
0
VERTEX
8
0
10
92.6727440877263
20
51.3853405704462
30
0
0
VERTEX
8
0
10
93.349187475228
20
51.5318988925105
30
0
0
VERTEX
8
0
10
94.0256308627296
20
51.6869214528901
30
0
0
VERTEX
8
0
10
94.7020742502312
20
51.8265397492378
30
0
0
VERTEX
8
0
10
95.3785176377329
20
51.9705329698403
30
0
0
VERTEX
8
0
10
96.0549610252346
20
52.1109943122406
30
0
0
VERTEX
8
0
10
96.7314044127362
20
52.2494065756404
30
0
0
VERTEX
8
0
10
97.4078478002379
20
52.3852780865062
30
0
0
VERTEX
8
0
10
98.0842911877395
20
52.5178668128933
30
0
0
VERTEX
8
0
10
98.7607345752412
20
52.6494119883674
30
0
0
VERTEX
8
0
10
99.4371779627428
20
52.7755349268563
30
0
0
VERTEX
8
0
10
100.113621350244
20
52.9034220532784
30
0
0
VERTEX
8
0
10
100.790064737746
20
53.0230087575306
30
0
0
VERTEX
8
0
10
101.466508125248
20
53.1473391821129
30
0
0
VERTEX
8
0
10
102.142951512749
20
53.2605652429309
30
0
0
VERTEX
8
0
10
102.819394900251
20
53.3811989222742
30
0
0
VERTEX
8
0
10
103.495838287753
20
53.4882313851906
30
0
0
VERTEX
8
0
10
104.172281675254
20
53.5988639097297
30
0
0
VERTEX
8
0
10
104.848725062756
20
53.7060392549449
30
0
0
VERTEX
8
0
10
105.525168450258
20
53.8112578356791
30
0
0
VERTEX
8
0
10
106.201611837759
20
53.9140258029207
30
0
0
VERTEX
8
0
10
106.878055225261
20
54.0136875254672
30
0
0
VERTEX
8
0
10
107.554498612763
20
54.1122327017216
30
0
0
VERTEX
8
0
10
108.230942000264
20
54.2053284846566
30
0
0
VERTEX
8
0
10
108.907385387766
20
54.3007062156904
30
0
0
VERTEX
8
0
10
109.583828775268
20
54.3879555669977
30
0
0
VERTEX
8
0
10
110.260272162769
20
54.4794970970576
30
0
0
VERTEX
8
0
10
110.936715550271
20
54.5610421028452
30
0
0
VERTEX
8
0
10
111.613158937773
20
54.6486605062988
30
0
0
VERTEX
8
0
10
112.289602325274
20
54.724637727826
30
0
0
VERTEX
8
0
10
112.966045712776
20
54.8033504181189
30
0
0
VERTEX
8
0
10
113.642489100278
20
54.8787968650891
30
0
0
VERTEX
8
0
10
114.318932487779
20
54.95235614177
30
0
0
VERTEX
8
0
10
114.995375875281
20
55.0235786732237
30
0
0
VERTEX
8
0
10
115.671819262782
20
55.0919158080948
30
0
0
VERTEX
8
0
10
116.348262650284
20
55.1590470170018
30
0
0
VERTEX
8
0
10
117.024706037786
20
55.2210724071863
30
0
0
VERTEX
8
0
10
117.701149425287
20
55.2852704601304
30
0
0
VERTEX
8
0
10
118.377592812789
20
55.3420529498376
30
0
0
VERTEX
8
0
10
119.054036200291
20
55.4023222792638
30
0
0
VERTEX
8
0
10
119.730479587792
20
55.4539842408869
30
0
0
VERTEX
8
0
10
120.406922975294
20
55.5102804983202
30
0
0
VERTEX
8
0
10
121.083366362796
20
55.5569410253142
30
0
0
VERTEX
8
0
10
121.759809750297
20
55.6054674847321
30
0
0
VERTEX
8
0
10
122.436253137799
20
55.6510031922432
30
0
0
VERTEX
8
0
10
123.112696525301
20
55.6947252371287
30
0
0
VERTEX
8
0
10
123.789139912802
20
55.7362558411577
30
0
0
VERTEX
8
0
10
124.465583300304
20
55.7751624612046
30
0
0
VERTEX
8
0
10
125.142026687806
20
55.8127893694815
30
0
0
VERTEX
8
0
10
125.818470075307
20
55.8458922570832
30
0
0
VERTEX
8
0
10
126.494913462809
20
55.880699581553
30
0
0
VERTEX
8
0
10
127.171356850311
20
55.9091332694374
30
0
0
VERTEX
8
0
10
127.847800237812
20
55.9400878192029
30
0
0
VERTEX
8
0
10
128.524243625314
20
55.963966017449
30
0
0
VERTEX
8
0
10
129.200687012816
20
55.9910611139813
30
0
0
VERTEX
8
0
10
129.877130400317
20
56.0104961372074
30
0
0
VERTEX
8
0
10
130.553573787819
20
56.0309891132836
30
0
0
VERTEX
8
0
10
131.23001717532
20
56.0488354358315
30
0
0
VERTEX
8
0
10
131.906460562822
20
56.0649702357365
30
0
0
VERTEX
8
0
10
132.582903950324
20
56.0791020890857
30
0
0
VERTEX
8
0
10
133.259347337825
20
56.090915515292
30
0
0
VERTEX
8
0
10
133.935790725327
20
56.1014208646708
30
0
0
VERTEX
8
0
10
134.612234112829
20
56.1081348898477
30
0
0
VERTEX
8
0
10
135.28867750033
20
56.115923372442
30
0
0
VERTEX
8
0
10
135.965120887832
20
56.1185644126391
30
0
0
VERTEX
8
0
10
136.641564275334
20
56.1227483430634
30
0
0
VERTEX
8
0
10
137.318007662835
20
56.1214317984044
30
0
0
VERTEX
8
0
10
137.994451050337
20
56.1220419367237
30
0
0
VERTEX
8
0
10
138.670894437839
20
56.1168836728784
30
0
0
VERTEX
8
0
10
139.34733782534
20
56.1120979155474
30
0
0
VERTEX
8
0
10
140.023781212842
20
56.1050747609826
30
0
0
VERTEX
8
0
10
140.700224600343
20
56.0964981893982
30
0
0
VERTEX
8
0
10
141.376667987845
20
56.0861682733381
30
0
0
VERTEX
8
0
10
142.053111375347
20
56.0738812470641
30
0
0
VERTEX
8
0
10
142.729554762848
20
56.0603363335563
30
0
0
VERTEX
8
0
10
143.40599815035
20
56.0438266148074
30
0
0
VERTEX
8
0
10
144.082441537852
20
56.0277604504316
30
0
0
VERTEX
8
0
10
144.758884925353
20
56.0078549685581
30
0
0
VERTEX
8
0
10
145.435328312855
20
55.9886320400507
30
0
0
VERTEX
8
0
10
146.111771700357
20
55.9654596543951
30
0
0
VERTEX
8
0
10
146.788215087858
20
55.9431530037297
30
0
0
VERTEX
8
0
10
147.46465847536
20
55.9168453092933
30
0
0
VERTEX
8
0
10
148.141101862861
20
55.8904132684535
30
0
0
VERTEX
8
0
10
148.817545250363
20
55.8622281429971
30
0
0
VERTEX
8
0
10
149.493988637865
20
55.8327394236324
30
0
0
VERTEX
8
0
10
150.170432025366
20
55.8018366861606
30
0
0
VERTEX
8
0
10
150.846875412868
20
55.7694174371704
30
0
0
VERTEX
8
0
10
151.52331880037
20
55.7359126295931
30
0
0
VERTEX
8
0
10
152.199762187871
20
55.7003311121188
30
0
0
VERTEX
8
0
10
152.876205575373
20
55.6647117706968
30
0
0
VERTEX
8
0
10
153.552648962875
20
55.6265725380449
30
0
0
VERTEX
8
0
10
154.229092350376
20
55.5885050876802
30
0
0
SEQEND
8
0
0
POLYLINE
8
0
62
4
70
0
10
0
20
0
30
0
0
VERTEX
8
0
10
15.558197912538
20
13.6920340591015
30
0
0
VERTEX
8
0
10
16.2346413000396
20
14.1869346997915
30
0
0
VERTEX
8
0
10
16.9110846875413
20
14.6774969833786
30
0
0
VERTEX
8
0
10
17.5875280750429
20
15.1682143223198
30
0
0
VERTEX
8
0
10
18.2639714625446
20
15.65752774222
30
0
0
VERTEX
8
0
10
18.9404148500462
20
16.1410143057365
30
0
0
VERTEX
8
0
10
19.6168582375479
20
16.6271302215375
30
0
0
VERTEX
8
0
10
20.2933016250495
20
17.1003072325058
30
0
0
VERTEX
8
0
10
20.9697450125512
20
17.592627457649
30
0
0
VERTEX
8
0
10
21.6461884000528
20
18.0641766025207
30
0
0
VERTEX
8
0
10
22.3226317875545
20
18.5547782769852
30
0
0
VERTEX
8
0
10
22.9990751750562
20
19.0227760591667
30
0
0
VERTEX
8
0
10
23.6755185625578
20
19.5106174515564
30
0
0
VERTEX
8
0
10
24.3519619500595
20
19.9750755825728
30
0
0
VERTEX
8
0
10
25.0284053375611
20
20.4503990506808
30
0
0
VERTEX
8
0
10
25.7048487250628
20
20.9209801025728
30
0
0
VERTEX
8
0
10
26.3812921125644
20
21.3915114187233
30
0
0
VERTEX
8
0
10
27.0577355000661
20
21.8604180648225
30
0
0
VERTEX
8
0
10
27.7341788875677
20
22.3260903774311
30
0
0
VERTEX
8
0
10
28.4106222750694
20
22.7933365695843
30
0
0
VERTEX
8
0
10
29.087065662571
20
23.2490639822981
30
0
0
VERTEX
8
0
10
29.7635090500727
20
23.7231260093794
30
0
0
VERTEX
8
0
10
30.4399524375743
20
24.1756611148815
30
0
0
VERTEX
8
0
10
31.116395825076
20
24.6466585231423
30
0
0
VERTEX
8
0
10
31.7928392125776
20
25.0922365098968
30
0
0
VERTEX
8
0
10
32.4692826000793
20
25.5563728507892
30
0
0
VERTEX
8
0
10
33.1457259875809
20
25.9981917237116
30
0
0
VERTEX
8
0
10
33.8221693750826
20
26.450209583352
30
0
0
VERTEX
8
0
10
34.4986127625842
20
26.9014009551827
30
0
0
VERTEX
8
0
10
35.1750561500859
20
27.352380003056
30
0
0
VERTEX
8
0
10
35.8514995375875
20
27.8017149512323
30
0
0
VERTEX
8
0
10
36.5279429250892
20
28.2478972782489
30
0
0
VERTEX
8
0
10
37.2043863125908
20
28.6933593589375
30
0
0
VERTEX
8
0
10
37.8808297000925
20
29.126567673302
30
0
0
VERTEX
8
0
10
38.5572730875941
20
29.5767844172228
30
0
0
VERTEX
8
0
10
39.2337164750958
20
30.0066083437974
30
0
0
VERTEX
8
0
10
39.9101598625974
20
30.4468043016532
30
0
0
VERTEX
8
0
10
40.5866032500991
20
30.8676274809982
30
0
0
VERTEX
8
0
10
41.2630466376008
20
31.3058584998228
30
0
0
VERTEX
8
0
10
41.9394900251024
20
31.7233466390469
30
0
0
VERTEX
8
0
10
42.6159334126041
20
32.0834915089991
30
0
0
VERTEX
8
0
10
43.2923768001057
20
32.4552032292948
30
0
0
VERTEX
8
0
10
43.9688201876074
20
32.8267466701923
30
0
0
VERTEX
8
0
10
44.645263575109
20
33.196711242481
30
0
0
VERTEX
8
0
10
45.3217069626107
20
33.4978674960302
30
0
0
VERTEX
8
0
10
45.9981503501123
20
33.8196813349119
30
0
0
VERTEX
8
0
10
46.674593737614
20
34.129907892998
30
0
0
VERTEX
8
0
10
47.3510371251156
20
34.4581193954556
30
0
0
VERTEX
8
0
10
48.0274805126173
20
34.76906393922
30
0
0
VERTEX
8
0
10
48.7039239001189
20
35.0962261268534
30
0
0
VERTEX
8
0
10
49.3803672876206
20
35.4041354627452
30
0
0
VERTEX
8
0
10
50.0568106751222
20
35.7261438459135
30
0
0
VERTEX
8
0
10
50.7332540626239
20
36.0273418760898
30
0
0
VERTEX
8
0
10
51.4096974501255
20
36.3372984608488
30
0
0
VERTEX
8
0
10
52.0861408376272
20
36.6430978369337
30
0
0
VERTEX
8
0
10
52.7625842251288
20
36.948695095433
30
0
0
VERTEX
8
0
10
53.4390276126305
20
37.2527594147702
30
0
0
VERTEX
8
0
10
54.1154710001321
20
37.5539699812853
30
0
0
VERTEX
8
0
10
54.7919143876338
20
37.8562564000556
30
0
0
VERTEX
8
0
10
55.4683577751354
20
38.1489180823638
30
0
0
VERTEX
8
0
10
56.1448011626371
20
38.4567686199192
30
0
0
VERTEX
8
0
10
56.8212445501388
20
38.7466146106896
30
0
0
VERTEX
8
0
10
57.4976879376404
20
39.0513302719794
30
0
0
VERTEX
8
0
10
58.174131325142
20
39.3363838182807
30
0
0
VERTEX
8
0
10
58.8505747126437
20
39.6361505520791
30
0
0
VERTEX
8
0
10
59.5270181001454
20
39.9178537154976
30
0
0
VERTEX
8
0
10
60.203461487647
20
40.2074218811762
30
0
0
VERTEX
8
0
10
60.8799048751487
20
40.4965147879646
30
0
0
VERTEX
8
0
10
61.5563482626503
20
40.7852148130058
30
0
0
VERTEX
8
0
10
62.232791650152
20
41.0723038882178
30
0
0
VERTEX
8
0
10
62.9092350376536
20
41.3565799768015
30
0
0
VERTEX
8
0
10
63.5856784251553
20
41.6377497390652
30
0
0
VERTEX
8
0
10
64.2621218126569
20
41.9089565758991
30
0
0
VERTEX
8
0
10
64.9385652001586
20
42.1935620512537
30
0
0
VERTEX
8
0
10
65.6150085876602
20
42.4615623734051
30
0
0
VERTEX
8
0
10
66.2914519751619
20
42.7450326828446
30
0
0
VERTEX
8
0
10
66.9678953626635
20
43.0115895722552
30
0
0
VERTEX
8
0
10
67.6443387501652
20
43.2914466665982
30
0
0
VERTEX
8
0
10
68.3207821376668
20
43.5548001054137
30
0
0
VERTEX
8
0
10
68.9972255251685
20
43.8136966581081
30
0
0
VERTEX
8
0
10
69.6736689126701
20
44.0713847128897
30
0
0
VERTEX
8
0
10
70.3501123001718
20
44.3285702464078
30
0
0
VERTEX
8
0
10
71.0265556876734
20
44.5841504972072
30
0
0
VERTEX
8
0
10
71.7029990751751
20
44.7809714721399
30
0
0
VERTEX
8
0
10
72.3794424626767
20
44.9943256916063
30
0
0
VERTEX
8
0
10
73.0558858501784
20
45.1983431113848
30
0
0
VERTEX
8
0
10
73.73232923768
20
45.4143836773665
30
0
0
VERTEX
8
0
10
74.4087726251817
20
45.6050845120378
30
0
0
VERTEX
8
0
10
75.0852160126833
20
45.8111804537117
30
0
0
VERTEX
8
0
10
75.761659400185
20
46.0023659216422
30
0
0
VERTEX
8
0
10
76.4381027876867
20
46.2034114107349
30
0
0
VERTEX
8
0
10
77.1145461751883
20
46.3882186924756
30
0
0
VERTEX
8
0
10
77.79098956269
20
46.5791999171692
30
0
0
VERTEX
8
0
10
78.4674329501916
20
46.766710917543
30
0
0
VERTEX
8
0
10
79.1438763376933
20
46.956065638995
30
0
0
VERTEX
8
0
10
79.8203197251949
20
47.144973839002
30
0
0
VERTEX
8
0
10
80.4967631126966
20
47.3314017233432
30
0
0
VERTEX
8
0
10
81.1732065001982
20
47.5182385799428
30
0
0
VERTEX
8
0
10
81.8496498876999
20
47.6965519010732
30
0
0
VERTEX
8
0
10
82.5260932752015
20
47.8854159597725
30
0
0
VERTEX
8
0
10
83.2025366627032
20
48.0607339350867
30
0
0
VERTEX
8
0
10
83.8789800502048
20
48.2464877084275
30
0
0
VERTEX
8
0
10
84.5554234377065
20
48.4158288227094
30
0
0
VERTEX
8
0
10
85.2318668252081
20
48.5951039165913
30
0
0
VERTEX
8
0
10
85.9083102127098
20
48.7610776962029
30
0
0
VERTEX
8
0
10
86.5847536002114
20
48.9322917933964
30
0
0
VERTEX
8
0
10
87.2611969877131
20
49.1035262839123
30
0
0
VERTEX
8
0
10
87.9376403752147
20
49.2741570691439
30
0
0
VERTEX
8
0
10
88.6140837627164
20
49.4432537535331
30
0
0
VERTEX
8
0
10
89.290527150218
20
49.6099731861577
30
0
0
VERTEX
8
0
10
89.9669705377197
20
49.7768452556379
30
0
0
VERTEX
8
0
10
90.6434139252213
20
49.9360695266456
30
0
0
VERTEX
8
0
10
91.319857312723
20
50.1043036363815
30
0
0
VERTEX
8
0
10
91.9963007002247
20
50.260535753101
30
0
0
VERTEX
8
0
10
92.6727440877263
20
50.421729017287
30
0
0
VERTEX
8
0
10
93.349187475228
20
50.5716718598252
30
0
0
VERTEX
8
0
10
94.0256308627296
20
50.7303414530607
30
0
0
VERTEX
8
0
10
94.7020742502312
20
50.8773233006205
30
0
0
VERTEX
8
0
10
95.3785176377329
20
51.0328366716124
30
0
0
VERTEX
8
0
10
96.0549610252346
20
51.1844101320327
30
0
0
VERTEX
8
0
10
96.7314044127362
20
51.3352155070389
30
0
0
VERTEX
8
0
10
97.4078478002379
20
51.4845038532163
30
0
0
VERTEX
8
0
10
98.0842911877395
20
51.627037818804
30
0
0
VERTEX
8
0
10
98.7607345752412
20
51.770741096272
30
0
0
VERTEX
8
0
10
99.4371779627428
20
51.907730364244
30
0
0
VERTEX
8
0
10
100.113621350244
20
52.0522008904388
30
0
0
VERTEX
8
0
10
100.790064737746
20
52.1501081343872
30
0
0
VERTEX
8
0
10
101.466508125248
20
52.2670424668475
30
0
0
VERTEX
8
0
10
102.142951512749
20
52.3738038963502
30
0
0
VERTEX
8
0
10
102.819394900251
20
52.4831431001359
30
0
0
VERTEX
8
0
10
103.495838287753
20
52.5790161103646
30
0
0
VERTEX
8
0
10
104.172281675254
20
52.6784105197026
30
0
0
VERTEX
8
0
10
104.848725062756
20
52.775141383111
30
0
0
VERTEX
8
0
10
105.525168450258
20
52.8808449202235
30
0
0
VERTEX
8
0
10
106.201611837759
20
52.9899129432485
30
0
0
VERTEX
8
0
10
106.878055225261
20
53.0969428056502
30
0
0
VERTEX
8
0
10
107.554498612763
20
53.2037419543931
30
0
0
VERTEX
8
0
10
108.230942000264
20
53.309710621889
30
0
0
VERTEX
8
0
10
108.907385387766
20
53.4232100710585
30
0
0
VERTEX
8
0
10
109.583828775268
20
53.5278855208551
30
0
0
VERTEX
8
0
10
110.260272162769
20
53.6384321716342
30
0
0
VERTEX
8
0
10
110.936715550271
20
53.7223002952367
30
0
0
VERTEX
8
0
10
111.613158937773
20
53.8091324886599
30
0
0
VERTEX
8
0
10
112.289602325274
20
53.8875610370116
30
0
0
VERTEX
8
0
10
112.966045712776
20
53.9686591124205
30
0
0
VERTEX
8
0
10
113.642489100278
20
54.0504338049752
30
0
0
VERTEX
8
0
10
114.318932487779
20
54.1314726012012
30
0
0
VERTEX
8
0
10
114.995375875281
20
54.2111500592049
30
0
0
VERTEX
8
0
10
115.671819262782
20
54.2889854028574
30
0
0
VERTEX
8
0
10
116.348262650284
20
54.396754435405
30
0
0
VERTEX
8
0
10
117.024706037786
20
54.4978650569114
30
0
0
VERTEX
8
0
10
117.701149425287
20
54.6036005412848
30
0
0
VERTEX
8
0
10
118.377592812789
20
54.7020577563717
30
0
0
VERTEX
8
0
10
119.054036200291
20
54.7681915747735
30
0
0
VERTEX
8
0
10
119.730479587792
20
54.832381574398
30
0
0
VERTEX
8
0
10
120.406922975294
20
54.9009021905316
30
0
0
VERTEX
8
0
10
121.083366362796
20
54.9625723757721
30
0
0
VERTEX
8
0
10
121.759809750297
20
55.0261259202434
30
0
0
VERTEX
8
0
10
122.436253137799
20
55.0875803263173
30
0
0
VERTEX
8
0
10
123.112696525301
20
55.1481569167751
30
0
0
VERTEX
8
0
10
123.789139912802
20
55.2074576249831
30
0
0
VERTEX
8
0
10
124.465583300304
20
55.2928096259504
30
0
0
VERTEX
8
0
10
125.142026687806
20
55.370330832183
30
0
0
VERTEX
8
0
10
125.818470075307
20
55.4439002498967
30
0
0
VERTEX
8
0
10
126.494913462809
20
55.5207993445859
30
0
0
VERTEX
8
0
10
127.171356850311
20
55.5531307228451
30
0
0
VERTEX
8
0
10
127.847800237812
20
55.6008163113409
30
0
0
VERTEX
8
0
10
128.524243625314
20
55.6429589568243
30
0
0
VERTEX
8
0
10
129.200687012816
20
55.6812365106777
30
0
0
VERTEX
8
0
10
129.877130400317
20
55.7086110915221
30
0
0
VERTEX
8
0
10
130.553573787819
20
55.7372177683358
30
0
0
VERTEX
8
0
10
131.23001717532
20
55.7640807096405
30
0
0
VERTEX
8
0
10
131.906460562822
20
55.7830355828022
30
0
0
VERTEX
8
0
10
132.582903950324
20
55.7971144085369
30
0
0
VERTEX
8
0
10
133.259347337825
20
55.8098408813724
30
0
0
VERTEX
8
0
10
133.935790725327
20
55.8220431759843
30
0
0
VERTEX
8
0
10
134.612234112829
20
55.8358631316524
30
0
0
VERTEX
8
0
10
135.28867750033
20
55.8534763542506
30
0
0
VERTEX
8
0
10
135.965120887832
20
55.8667794141971
30
0
0
VERTEX
8
0
10
136.641564275334
20
55.8821880540424
30
0
0
VERTEX
8
0
10
137.318007662835
20
55.8973602927474
30
0
0
VERTEX
8
0
10
137.994451050337
20
55.9151797185812
30
0
0
VERTEX
8
0
10
138.670894437839
20
55.929041832604
30
0
0
VERTEX
8
0
10
139.34733782534
20
55.9435421548093
30
0
0
VERTEX
8
0
10
140.023781212842
20
55.9494121561438
30
0
0
VERTEX
8
0
10
140.700224600343
20
55.9540965701981
30
0
0
VERTEX
8
0
10
141.376667987845
20
55.9578083155734
30
0
0
VERTEX
8
0
10
142.053111375347
20
55.9603756587423
30
0
0
VERTEX
8
0
10
142.729554762848
20
55.9623600685142
30
0
0
VERTEX
8
0
10
143.40599815035
20
55.9621277257672
30
0
0
VERTEX
8
0
10
144.082441537852
20
55.9631626668603
30
0
0
VERTEX
8
0
10
144.758884925353
20
55.9611661834749
30
0
0
VERTEX
8
0
10
145.435328312855
20
55.9688953232075
30
0
0
VERTEX
8
0
10
146.111771700357
20
55.9726727656059
30
0
0
VERTEX
8
0
10
146.788215087858
20
55.9774579752436
30
0
0
VERTEX
8
0
10
147.46465847536
20
55.9795344291545
30
0
0
VERTEX
8
0
10
148.141101862861
20
55.9762241017516
30
0
0
VERTEX
8
0
10
148.817545250363
20
55.9728997691932
30
0
0
VERTEX
8
0
10
149.493988637865
20
55.9688786342895
30
0
0
VERTEX
8
0
10
150.170432025366
20
55.9640479386256
30
0
0
VERTEX
8
0
10
150.846875412868
20
55.9503548896358
30
0
0
VERTEX
8
0
10
151.52331880037
20
55.9381313000737
30
0
0
VERTEX
8
0
10
152.199762187871
20
55.9244351939526
30
0
0
VERTEX
8
0
10
152.876205575373
20
55.9112484432013
30
0
0
VERTEX
8
0
10
153.552648962875
20
55.9190000675007
30
0
0
VERTEX
8
0
10
154.229092350376
20
55.9201851611684
30
0
0
SEQEND
8
0
0
POLYLINE
8
0
62
2
70
0
10
0
20
0
30
0
0
VERTEX
8
0
10
15.558197912538
20
0
30
0
0
VERTEX
8
0
10
16.2346413000396
20
0
30
0
0
VERTEX
8
0
10
16.9110846875413
20
0
30
0
0
VERTEX
8
0
10
17.5875280750429
20
0
30
0
0
VERTEX
8
0
10
18.2639714625446
20
0
30
0
0
VERTEX
8
0
10
18.9404148500462
20
0
30
0
0
VERTEX
8
0
10
19.6168582375479
20
0
30
0
0
VERTEX
8
0
10
20.2933016250495
20
0
30
0
0
VERTEX
8
0
10
20.9697450125512
20
0
30
0
0
VERTEX
8
0
10
21.6461884000528
20
0
30
0
0
VERTEX
8
0
10
22.3226317875545
20
0
30
0
0
VERTEX
8
0
10
22.9990751750562
20
0
30
0
0
VERTEX
8
0
10
23.6755185625578
20
0
30
0
0
VERTEX
8
0
10
24.3519619500595
20
0
30
0
0
VERTEX
8
0
10
25.0284053375611
20
0
30
0
0
VERTEX
8
0
10
25.7048487250628
20
0
30
0
0
VERTEX
8
0
10
26.3812921125644
20
0
30
0
0
VERTEX
8
0
10
27.0577355000661
20
0
30
0
0
VERTEX
8
0
10
27.7341788875677
20
0
30
0
0
VERTEX
8
0
10
28.4106222750694
20
0
30
0
0
VERTEX
8
0
10
29.087065662571
20
0
30
0
0
VERTEX
8
0
10
29.7635090500727
20
0
30
0
0
VERTEX
8
0
10
30.4399524375743
20
0
30
0
0
VERTEX
8
0
10
31.116395825076
20
0
30
0
0
VERTEX
8
0
10
31.7928392125776
20
0
30
0
0
VERTEX
8
0
10
32.4692826000793
20
0
30
0
0
VERTEX
8
0
10
33.1457259875809
20
0
30
0
0
VERTEX
8
0
10
33.8221693750826
20
0
30
0
0
VERTEX
8
0
10
34.4986127625842
20
0
30
0
0
VERTEX
8
0
10
35.1750561500859
20
0
30
0
0
VERTEX
8
0
10
35.8514995375875
20
0
30
0
0
VERTEX
8
0
10
36.5279429250892
20
0
30
0
0
VERTEX
8
0
10
37.2043863125908
20
1.55839651149679
30
0
0
VERTEX
8
0
10
37.8808297000925
20
1.53665258466126
30
0
0
VERTEX
8
0
10
38.5572730875941
20
2.39848065182115
30
0
0
VERTEX
8
0
10
39.2337164750958
20
3.21022577823147
30
0
0
VERTEX
8
0
10
39.9101598625974
20
3.27760577235209
30
0
0
VERTEX
8
0
10
40.5866032500991
20
3.7995003782842
30
0
0
VERTEX
8
0
10
41.2630466376008
20
4.38803813262627
30
0
0
VERTEX
8
0
10
41.9394900251024
20
4.4928250114052
30
0
0
VERTEX
8
0
10
42.6159334126041
20
4.91786697407332
30
0
0
VERTEX
8
0
10
43.2923768001057
20
5.41072397618233
30
0
0
VERTEX
8
0
10
43.9688201876074
20
5.53978585510691
30
0
0
VERTEX
8
0
10
44.645263575109
20
5.91592443573565
30
0
0
VERTEX
8
0
10
45.3217069626107
20
6.35331151124627
30
0
0
VERTEX
8
0
10
45.9981503501123
20
6.49999025763025
30
0
0
VERTEX
8
0
10
46.674593737614
20
6.84607798742281
30
0
0
VERTEX
8
0
10
47.3510371251156
20
7.24661169435805
30
0
0
VERTEX
8
0
10
48.0274805126173
20
7.40675092443494
30
0
0
VERTEX
8
0
10
48.7039239001189
20
7.73229663527106
30
0
0
VERTEX
8
0
10
49.3803672876206
20
8.10629097729515
30
0
0
VERTEX
8
0
10
50.0568106751222
20
8.27701112851821
30
0
0
VERTEX
8
0
10
50.7332540626239
20
8.58750234891902
30
0
0
VERTEX
8
0
10
51.4096974501255
20
8.94131094161697
30
0
0
VERTEX
8
0
10
52.0861408376272
20
9.12048672256246
30
0
0
VERTEX
8
0
10
52.7625842251288
20
9.41936965408851
30
0
0
VERTEX
8
0
10
53.4390276126305
20
9.75719059078944
30
0
0
VERTEX
8
0
10
54.1154710001321
20
9.94318449366927
30
0
0
VERTEX
8
0
10
54.7919143876338
20
10.23275149427
30
0
0
VERTEX
8
0
10
55.4683577751354
20
10.5574994732235
30
0
0
VERTEX
8
0
10
56.1448011626371
20
10.7490094610628
30
0
0
VERTEX
8
0
10
56.8212445501388
20
11.0308492645794
30
0
0
VERTEX
8
0
10
57.4976879376404
20
11.344623351358
30
0
0
VERTEX
8
0
10
58.174131325142
20
11.5405886356441
30
0
0
VERTEX
8
0
10
58.8505747126437
20
11.8158359669388
30
0
0
VERTEX
8
0
10
59.5270181001454
20
12.1201905373036
30
0
0
VERTEX
8
0
10
60.203461487647
20
12.3197298078125
30
0
0
VERTEX
8
0
10
60.8799048751487
20
12.5892133741793
30
0
0
VERTEX
8
0
10
61.5563482626503
20
12.8853246200205
30
0
0
VERTEX
8
0
10
62.232791650152
20
13.0876937122236
30
0
0
VERTEX
8
0
10
62.9092350376536
20
13.35202866946
30
0
0
VERTEX
8
0
10
63.5856784251553
20
13.6408018434791
30
0
0
VERTEX
8
0
10
64.2621218126569
20
13.8453636923111
30
0
0
VERTEX
8
0
10
64.9385652001586
20
14.1050119058849
30
0
0
VERTEX
8
0
10
65.6150085876602
20
14.3871530845948
30
0
0
VERTEX
8
0
10
66.2914519751619
20
14.5933557840525
30
0
0
VERTEX
8
0
10
66.9678953626635
20
14.8486664851074
30
0
0
VERTEX
8
0
10
67.6443387501652
20
15.1247321323515
30
0
0
VERTEX
8
0
10
68.3207821376668
20
15.3320925328687
30
0
0
VERTEX
8
0
10
68.9972255251685
20
15.5833305520538
30
0
0
VERTEX
8
0
10
69.6736689126701
20
15.853762673857
30
0
0
VERTEX
8
0
10
70.3501123001718
20
16.0618538737566
30
0
0
VERTEX
8
0
10
71.0265556876734
20
16.3092197340869
30
0
0
VERTEX
8
0
10
71.7029990751751
20
16.5743713866894
30
0
0
VERTEX
8
0
10
72.3794424626767
20
16.782813029609
30
0
0
VERTEX
8
0
10
73.0558858501784
20
17.0264575493403
30
0
0
VERTEX
8
0
10
73.73232923768
20
17.2866117136236
30
0
0
VERTEX
8
0
10
74.4087726251817
20
17.4950623503234
30
0
0
VERTEX
8
0
10
75.0852160126833
20
17.7350974503649
30
0
0
VERTEX
8
0
10
75.761659400185
20
17.9904812382988
30
0
0
VERTEX
8
0
10
76.4381027876867
20
18.1986322352332
30
0
0
VERTEX
8
0
10
77.1145461751883
20
18.4351390655619
30
0
0
VERTEX
8
0
10
77.79098956269
20
18.6859345745847
30
0
0
VERTEX
8
0
10
78.4674329501916
20
18.8935051997224
30
0
0
VERTEX
8
0
10
79.1438763376933
20
19.1265403357954
30
0
0
VERTEX
8
0
10
79.8203197251949
20
19.372893052959
30
0
0
VERTEX
8
0
10
80.4967631126966
20
19.5796264701471
30
0
0
VERTEX
8
0
10
81.1732065001982
20
19.8092266964113
30
0
0
VERTEX
8
0
10
81.8496498876999
20
20.0512520826037
30
0
0
VERTEX
8
0
10
82.5260932752015
20
20.2569120562135
30
0
0
VERTEX
8
0
10
83.2025366627032
20
20.4830980997423
30
0
0
VERTEX
8
0
10
83.8789800502048
20
20.7208868032078
30
0
0
VERTEX
8
0
10
84.5554234377065
20
20.9252549639568
30
0
0
VERTEX
8
0
10
85.2318668252081
20
21.1480344374911
30
0
0
VERTEX
8
0
10
85.9083102127098
20
21.3816564613559
30
0
0
VERTEX
8
0
10
86.5847536002114
20
21.5845300203178
30
0
0
VERTEX
8
0
10
87.2611969877131
20
21.8038997626177
30
0
0
VERTEX
8
0
10
87.9376403752147
20
22.0334078253072
30
0
0
VERTEX
8
0
10
88.6140837627164
20
22.23459764904
30
0
0
VERTEX
8
0
10
89.290527150218
20
22.4505456009547
30
0
0
VERTEX
8
0
10
89.9669705377197
20
22.6759778670477
30
0
0
VERTEX
8
0
10
90.6434139252213
20
22.8753068462223
30
0
0
VERTEX
8
0
10
91.319857312723
20
23.0878135651933
30
0
0
VERTEX
8
0
10
91.9963007002247
20
23.3091958807085
30
0
0
VERTEX
8
0
10
92.6727440877263
20
23.5064975389995
30
0
0
VERTEX
8
0
10
93.349187475228
20
23.7155374300102
30
0
0
VERTEX
8
0
10
94.0256308627296
20
23.932885163872
30
0
0
VERTEX
8
0
10
94.7020742502312
20
24.1280024652402
30
0
0
VERTEX
8
0
10
95.3785176377329
20
24.3335447868936
30
0
0
VERTEX
8
0
10
96.0549610252346
20
24.5468643573265
30
0
0
VERTEX
8
0
10
96.7314044127362
20
24.7396486779183
30
0
0
VERTEX
8
0
10
97.4078478002379
20
24.9416583693913
30
0
0
VERTEX
8
0
10
98.0842911877395
20
25.1509485159769
30
0
0
VERTEX
8
0
10
98.7607345752412
20
25.34125875367
30
0
0
VERTEX
8
0
10
99.4371779627428
20
25.5396971175147
30
0
0
VERTEX
8
0
10
100.113621350244
20
25.7449499669101
30
0
0
VERTEX
8
0
10
100.790064737746
20
25.932651766524
30
0
0
VERTEX
8
0
10
101.466508125248
20
26.1274770352312
30
0
0
VERTEX
8
0
10
102.142951512749
20
26.3286789981263
30
0
0
VERTEX
8
0
10
102.819394900251
20
26.5136440744184
30
0
0
VERTEX
8
0
10
103.495838287753
20
26.7048118822531
30
0
0
VERTEX
8
0
10
104.172281675254
20
26.9019444117553
30
0
0
VERTEX
8
0
10
104.848725062756
20
27.0840499555133
30
0
0
VERTEX
8
0
10
105.525168450258
20
27.2715137329741
30
0
0
VERTEX
8
0
10
106.201611837759
20
27.4645539683829
30
0
0
VERTEX
8
0
10
106.878055225261
20
27.6436821234522
30
0
0
VERTEX
8
0
10
107.554498612763
20
27.8273934283232
30
0
0
VERTEX
8
0
10
108.230942000264
20
28.0163147437998
30
0
0
VERTEX
8
0
10
108.907385387766
20
28.1923521450509
30
0
0
VERTEX
8
0
10
109.583828775268
20
28.3722609408798
30
0
0
VERTEX
8
0
10
110.260272162769
20
28.5570334148669
30
0
0
VERTEX
8
0
10
110.936715550271
20
28.7298707786744
30
0
0
VERTEX
8
0
10
111.613158937773
20
28.9059256699606
30
0
0
VERTEX
8
0
10
112.289602325274
20
29.0865164880561
30
0
0
VERTEX
8
0
10
112.966045712776
20
29.2560482481961
30
0
0
VERTEX
8
0
10
113.642489100278
20
29.4281966795837
30
0
0
VERTEX
8
0
10
114.318932487779
20
29.604570481683
30
0
0
VERTEX
8
0
10
114.995375875281
20
29.7706944647875
30
0
0
VERTEX
8
0
10
115.671819262782
20
29.9388828901688
30
0
0
VERTEX
8
0
10
116.348262650284
20
30.1110020704474
30
0
0
VERTEX
8
0
10
117.024706037786
20
30.2736192061335
30
0
0
VERTEX
8
0
10
117.701149425287
20
30.4377932327302
30
0
0
VERTEX
8
0
10
118.377592812789
20
30.6056181998722
30
0
0
VERTEX
8
0
10
119.054036200291
20
30.7646322611178
30
0
0
VERTEX
8
0
10
119.730479587792
20
30.9247367726925
30
0
0
VERTEX
8
0
10
120.406922975294
20
31.0882261763708
30
0
0
VERTEX
8
0
10
121.083366362796
20
31.2435435467182
30
0
0
VERTEX
8
0
10
121.759809750297
20
31.3995228091953
30
0
0
VERTEX
8
0
10
122.436253137799
20
31.5586337378927
30
0
0
VERTEX
8
0
10
123.112696525301
20
31.7101632024068
30
0
0
VERTEX
8
0
10
123.789139912802
20
31.8619609549981
30
0
0
VERTEX
8
0
10
124.465583300304
20
32.0166491095249
30
0
0
VERTEX
8
0
10
125.142026687806
20
32.1643016668032
30
0
0
VERTEX
8
0
10
125.818470075307
20
32.3118612009763
30
0
0
VERTEX
8
0
10
126.494913462809
20
32.4620810473088
30
0
0
VERTEX
8
0
10
127.171356850311
20
32.6057697405775
30
0
0
VERTEX
8
0
10
127.847800237812
20
32.7490339688757
30
0
0
VERTEX
8
0
10
128.524243625314
20
32.8947388734809
30
0
0
VERTEX
8
0
10
129.200687012816
20
33.0343786386207
30
0
0
VERTEX
8
0
10
129.877130400317
20
33.1732901552802
30
0
0
VERTEX
8
0
10
130.553573787819
20
33.3144325055744
30
0
0
VERTEX
8
0
10
131.23001717532
20
33.4499400347058
30
0
0
VERTEX
8
0
10
131.906460562822
20
33.5844411695327
30
0
0
VERTEX
8
0
10
132.582903950324
20
33.720972481822
30
0
0
VERTEX
8
0
10
133.259347337825
20
33.8522661010576
30
0
0
VERTEX
8
0
10
133.935790725327
20
33.9822989679
30
0
0
VERTEX
8
0
10
134.612234112829
20
34.1141699848967
30
0
0
VERTEX
8
0
10
135.28867750033
20
34.2411695450779
30
0
0
VERTEX
8
0
10
135.965120887832
20
34.3666760862105
30
0
0
VERTEX
8
0
10
136.641564275334
20
34.493836865867
30
0
0
VERTEX
8
0
10
137.318007662835
20
34.6164636454408
30
0
0
VERTEX
8
0
10
137.994451050337
20
34.7373856728704
30
0
0
VERTEX
8
0
10
138.670894437839
20
34.8597856702102
30
0
0
VERTEX
8
0
10
139.34733782534
20
34.9779622894318
30
0
0
VERTEX
8
0
10
140.023781212842
20
35.094241524177
30
0
0
VERTEX
8
0
10
140.700224600343
20
35.2118296675279
30
0
0
VERTEX
8
0
10
141.376667987845
20
35.3254800135172
30
0
0
VERTEX
8
0
10
142.053111375347
20
35.4370581237865
30
0
0
VERTEX
8
0
10
142.729554762848
20
35.5497828868
30
0
0
VERTEX
8
0
10
143.40599815035
20
35.6588320488756
30
0
0
VERTEX
8
0
10
144.082441537852
20
35.765650688054
30
0
0
VERTEX
8
0
10
144.758884925353
20
35.8734601588403
30
0
0
VERTEX
8
0
10
145.435328312855
20
35.9778343739144
30
0
0
VERTEX
8
0
10
146.111771700357
20
36.0798352192253
30
0
0
VERTEX
8
0
10
146.788215087858
20
36.182677167651
30
0
0
VERTEX
8
0
10
147.46465847536
20
36.282303775582
30
0
0
VERTEX
8
0
10
148.141101862861
20
36.3794285683825
30
0
0
VERTEX
8
0
10
148.817545250363
20
36.4772505128229
30
0
0
VERTEX
8
0
10
149.493988637865
20
36.5720579216183
30
0
0
VERTEX
8
0
10
150.170432025366
20
36.6642485100888
30
0
0
VERTEX
8
0
10
150.846875412868
20
36.7569977848064
30
0
0
VERTEX
8
0
10
151.52331880037
20
36.8469154458475
30
0
0
VERTEX
8
0
10
152.199762187871
20
36.9341138311623
30
0
0
VERTEX
8
0
10
152.876205575373
20
37.0217376554161
30
0
0
VERTEX
8
0
10
153.552648962875
20
37.1066960489997
30
0
0
VERTEX
8
0
10
154.229092350376
20
37.1888444358767
30
0
0
SEQEND
8
0
0
POLYLINE
8
0
62
3
70
0
10
0
20
0
30
0
0
VERTEX
8
0
10
15.558197912538
20
1.92290885940445
30
0
0
VERTEX
8
0
10
16.2346413000396
20
2.7964175957799
30
0
0
VERTEX
8
0
10
16.9110846875413
20
3.7206647409792
30
0
0
VERTEX
8
0
10
17.5875280750429
20
3.29486579379557
30
0
0
VERTEX
8
0
10
18.2639714625446
20
3.92412816547318
30
0
0
VERTEX
8
0
10
18.9404148500462
20
4.66638186752757
30
0
0
VERTEX
8
0
10
19.6168582375479
20
4.48019987731354
30
0
0
VERTEX
8
0
10
20.2933016250495
20
5.01273766089693
30
0
0
VERTEX
8
0
10
20.9697450125512
20
5.65284055015708
30
0
0
VERTEX
8
0
10
21.6461884000528
20
5.61101133520245
30
0
0
VERTEX
8
0
10
22.3226317875545
20
6.09328619338201
30
0
0
VERTEX
8
0
10
22.9990751750562
20
6.66980627702511
30
0
0
VERTEX
8
0
10
23.6755185625578
20
6.7237920259173
30
0
0
VERTEX
8
0
10
24.3519619500595
20
7.17672819314595
30
0
0
VERTEX
8
0
10
25.0284053375611
20
7.71104448756022
30
0
0
VERTEX
8
0
10
25.7048487250628
20
7.83272912395107
30
0
0
VERTEX
8
0
10
26.3812921125644
20
8.26735321522853
30
0
0
VERTEX
8
0
10
27.0577355000661
20
8.77233892348463
30
0
0
VERTEX
8
0
10
27.7341788875677
20
8.94404172953201
30
0
0
VERTEX
8
0
10
28.4106222750694
20
9.36671478354913
30
0
0
VERTEX
8
0
10
29.087065662571
20
9.85057610934126
30
0
0
VERTEX
8
0
10
29.7635090500727
20
10.0604921895835
30
0
0
VERTEX
8
0
10
30.4399524375743
20
10.4751038013872
30
0
0
VERTEX
8
0
10
31.116395825076
20
10.9432952418928
30
0
0
VERTEX
8
0
10
31.7928392125776
20
11.1831664714447
30
0
0
VERTEX
8
0
10
32.4692826000793
20
11.5921890070108
30
0
0
VERTEX
8
0
10
33.1457259875809
20
12.0484522665432
30
0
0
VERTEX
8
0
10
33.8221693750826
20
12.3122793645501
30
0
0
VERTEX
8
0
10
34.4986127625842
20
12.7173238392047
30
0
0
VERTEX
8
0
10
35.1750561500859
20
13.1642879949314
30
0
0
VERTEX
8
0
10
35.8514995375875
20
13.4475736239911
30
0
0
VERTEX
8
0
10
36.5279429250892
20
13.8497036783618
30
0
0
VERTEX
8
0
10
37.2043863125908
20
14.2892496084181
30
0
0
VERTEX
8
0
10
37.8808297000925
20
14.588531260269
30
0
0
VERTEX
8
0
10
38.5572730875941
20
14.9884502378958
30
0
0
VERTEX
8
0
10
39.2337164750958
20
15.4219410980389
30
0
0
VERTEX
8
0
10
39.9101598625974
20
15.7344909344503
30
0
0
VERTEX
8
0
10
40.5866032500991
20
16.1326582347172
30
0
0
VERTEX
8
0
10
41.2630466376008
20
16.5610902511116
30
0
0
VERTEX
8
0
10
41.9394900251024
20
16.8847155508188
30
0
0
VERTEX
8
0
10
42.6159334126041
20
17.281421589005
30
0
0
VERTEX
8
0
10
43.2923768001057
20
17.7055255949171
30
0
0
VERTEX
8
0
10
43.9688201876074
20
18.0384321677202
30
0
0
VERTEX
8
0
10
44.645263575109
20
18.4338481098032
30
0
0
VERTEX
8
0
10
45.3217069626107
20
18.8541596241005
30
0
0
VERTEX
8
0
10
45.9981503501123
20
19.1948559363829
30
0
0
VERTEX
8
0
10
46.674593737614
20
19.5890675288902
30
0
0
VERTEX
8
0
10
47.3510371251156
20
20.0059761698257
30
0
0
VERTEX
8
0
10
48.0274805126173
20
20.3532045443072
30
0
0
VERTEX
8
0
10
48.7039239001189
20
20.746235620763
30
0
0
VERTEX
8
0
10
49.3803672876206
20
21.1600206081357
30
0
0
VERTEX
8
0
10
50.0568106751222
20
21.5127068789231
30
0
0
VERTEX
8
0
10
50.7332540626239
20
21.9045359955026
30
0
0
VERTEX
8
0
10
51.4096974501255
20
22.3153920831687
30
0
0
VERTEX
8
0
10
52.0861408376272
20
22.6726081089819
30
0
0
VERTEX
8
0
10
52.7625842251288
20
23.0631805063678
30
0
0
VERTEX
8
0
10
53.4390276126305
20
23.4712372052755
30
0
0
VERTEX
8
0
10
54.1154710001321
20
23.8321725171162
30
0
0
VERTEX
8
0
10
54.7919143876338
20
24.2214088415948
30
0
0
VERTEX
8
0
10
55.4683577751354
20
24.6267448571647
30
0
0
VERTEX
8
0
10
56.1448011626371
20
24.9906849099037
30
0
0
VERTEX
8
0
10
56.8212445501388
20
25.3784876488314
30
0
0
VERTEX
8
0
10
57.4976879376404
20
25.7811418528645
30
0
0
VERTEX
8
0
10
58.174131325142
20
26.1474511271258
30
0
0
VERTEX
8
0
10
58.8505747126437
20
26.5337094080476
30
0
0
VERTEX
8
0
10
59.5270181001454
20
26.9336892657246
30
0
0
VERTEX
8
0
10
60.203461487647
20
27.3017979837231
30
0
0
VERTEX
8
0
10
60.8799048751487
20
27.6863911860316
30
0
0
VERTEX
8
0
10
61.5563482626503
20
28.0836792908
30
0
0
VERTEX
8
0
10
62.232791650152
20
28.4530728605801
30
0
0
VERTEX
8
0
10
62.9092350376536
20
28.8358733550926
30
0
0
VERTEX
8
0
10
63.5856784251553
20
29.2304325405198
30
0
0
VERTEX
8
0
10
64.2621218126569
20
29.6006430849278
30
0
0
VERTEX
8
0
10
64.9385652001586
20
29.9815183259994
30
0
0
VERTEX
8
0
10
65.6150085876602
20
30.3732956962999
30
0
0
VERTEX
8
0
10
66.2914519751619
20
30.7438951926028
30
0
0
VERTEX
8
0
10
66.9678953626635
20
31.1227093248937
30
0
0
VERTEX
8
0
10
67.6443387501652
20
31.5116394558509
30
0
0
VERTEX
8
0
10
68.3207821376668
20
31.8822341327453
30
0
0
VERTEX
8
0
10
68.9972255251685
20
32.2588492311061
30
0
0
VERTEX
8
0
10
69.6736689126701
20
32.6448567288582
30
0
0
VERTEX
8
0
10
70.3501123001718
20
33.0150824543671
30
0
0
VERTEX
8
0
10
71.0265556876734
20
33.3893594839456
30
0
0
VERTEX
8
0
10
71.7029990751751
20
33.7723610429722
30
0
0
VERTEX
8
0
10
72.3794424626767
20
34.1418795002399
30
0
0
VERTEX
8
0
10
73.0558858501784
20
34.5136790620965
30
0
0
VERTEX
8
0
10
73.73232923768
20
34.8935851295068
30
0
0
VERTEX
8
0
10
74.4087726251817
20
35.2620806242291
30
0
0
VERTEX
8
0
10
75.0852160126833
20
35.63126353528
30
0
0
VERTEX
8
0
10
75.761659400185
20
36.0079796636414
30
0
0
VERTEX
8
0
10
76.4381027876867
20
36.3751564419614
30
0
0
VERTEX
8
0
10
77.1145461751883
20
36.7415841863769
30
0
0
VERTEX
8
0
10
77.79098956269
20
37.1150121385053
30
0
0
VERTEX
8
0
10
78.4674329501916
20
37.4805921203966
30
0
0
VERTEX
8
0
10
79.1438763376933
20
37.8441272007995
30
0
0
VERTEX
8
0
10
79.8203197251949
20
38.2141658560056
30
0
0
VERTEX
8
0
10
80.4967631126966
20
38.5778867091294
30
0
0
VERTEX
8
0
10
81.1732065001982
20
38.938392919384
30
0
0
VERTEX
8
0
10
81.8496498876999
20
39.3049390198069
30
0
0
VERTEX
8
0
10
82.5260932752015
20
39.6665525143765
30
0
0
VERTEX
8
0
10
83.2025366627032
20
40.0238951508654
30
0
0
VERTEX
8
0
10
83.8789800502048
20
40.3868439185844
30
0
0
VERTEX
8
0
10
84.5554234377065
20
40.7461145153983
30
0
0
VERTEX
8
0
10
85.2318668252081
20
41.1001605399735
30
0
0
VERTEX
8
0
10
85.9083102127098
20
41.4594061890434
30
0
0
VERTEX
8
0
10
86.5847536002114
20
41.8161098223065
30
0
0
VERTEX
8
0
10
87.2611969877131
20
42.1667279871768
30
0
0
VERTEX
8
0
10
87.9376403752147
20
42.5221641500821
30
0
0
VERTEX
8
0
10
88.6140837627164
20
42.8760871737908
30
0
0
VERTEX
8
0
10
89.290527150218
20
43.2231481165487
30
0
0
VERTEX
8
0
10
89.9669705377197
20
43.5746682005918
30
0
0
VERTEX
8
0
10
90.6434139252213
20
43.9256064730529
30
0
0
VERTEX
8
0
10
91.319857312723
20
44.2689827881392
30
0
0
VERTEX
8
0
10
91.9963007002247
20
44.6164802744207
30
0
0
VERTEX
8
0
10
92.6727440877263
20
44.9642383599604
30
0
0
VERTEX
8
0
10
93.349187475228
20
45.3038046519068
30
0
0
VERTEX
8
0
10
94.0256308627296
20
45.6471733469889
30
0
0
VERTEX
8
0
10
94.7020742502312
20
45.9915638177501
30
0
0
VERTEX
8
0
10
95.3785176377329
20
46.3271967400838
30
0
0
VERTEX
8
0
10
96.0549610252346
20
46.6663309888142
30
0
0
VERTEX
8
0
10
96.7314044127362
20
47.0071738122949
30
0
0
VERTEX
8
0
10
97.4078478002379
20
47.3387520955579
30
0
0
VERTEX
8
0
10
98.0842911877395
20
47.6735469617564
30
0
0
VERTEX
8
0
10
98.7607345752412
20
48.0106689622672
30
0
0
VERTEX
8
0
10
99.4371779627428
20
48.3380734336565
30
0
0
VERTEX
8
0
10
100.113621350244
20
48.6684248544104
30
0
0
VERTEX
8
0
10
100.790064737746
20
49.001659238502
30
0
0
VERTEX
8
0
10
101.466508125248
20
49.324772835457
30
0
0
VERTEX
8
0
10
102.142951512749
20
49.6505777535925
30
0
0
VERTEX
8
0
10
102.819394900251
20
49.979763691142
30
0
0
VERTEX
8
0
10
103.495838287753
20
50.2984714705088
30
0
0
VERTEX
8
0
10
104.172281675254
20
50.6196279491861
30
0
0
VERTEX
8
0
10
104.848725062756
20
50.9446102031333
30
0
0
VERTEX
8
0
10
105.525168450258
20
51.2587993473826
30
0
0
VERTEX
8
0
10
106.201611837759
20
51.5752066699883
30
0
0
VERTEX
8
0
10
106.878055225261
20
51.8958352687819
30
0
0
VERTEX
8
0
10
107.554498612763
20
52.2053950905543
30
0
0
VERTEX
8
0
10
108.230942000264
20
52.516953848646
30
0
0
VERTEX
8
0
10
108.907385387766
20
52.8330837964232
30
0
0
VERTEX
8
0
10
109.583828775268
20
53.1379057422309
30
0
0
VERTEX
8
0
10
110.260272162769
20
53.4445179138724
30
0
0
VERTEX
8
0
10
110.936715550271
20
53.7560089340899
30
0
0
VERTEX
8
0
10
111.613158937773
20
54.055986588154
30
0
0
VERTEX
8
0
10
112.289602325274
20
54.3575556084912
30
0
0
VERTEX
8
0
10
112.966045712776
20
54.6642719173485
30
0
0
VERTEX
8
0
10
113.642489100278
20
54.959301006251
30
0
0
VERTEX
8
0
10
114.318932487779
20
55.2557318321174
30
0
0
VERTEX
8
0
10
114.995375875281
20
55.5575419387044
30
0
0
VERTEX
8
0
10
115.671819262782
20
55.8475203374015
30
0
0
VERTEX
8
0
10
116.348262650284
20
56.1387195072931
30
0
0
VERTEX
8
0
10
117.024706037786
20
56.435496037889
30
0
0
VERTEX
8
0
10
117.701149425287
20
56.7203237776661
30
0
0
VERTEX
8
0
10
118.377592812789
20
57.0061994684104
30
0
0
VERTEX
8
0
10
119.054036200291
20
57.297819012564
30
0
0
VERTEX
8
0
10
119.730479587792
20
57.5773982914256
30
0
0
VERTEX
8
0
10
120.406922975294
20
57.8578603726012
30
0
0
VERTEX
8
0
10
121.083366362796
20
58.1442033491702
30
0
0
VERTEX
8
0
10
121.759809750297
20
58.4184385450025
30
0
0
VERTEX
8
0
10
122.436253137799
20
58.6933986320727
30
0
0
VERTEX
8
0
10
123.112696525301
20
58.9743491735713
30
0
0
VERTEX
8
0
10
123.789139912802
20
59.24314686058
30
0
0
VERTEX
8
0
10
124.465583300304
20
59.5125183676329
30
0
0
VERTEX
8
0
10
125.142026687806
20
59.7879642214452
30
0
0
VERTEX
8
0
10
125.818470075307
20
60.0512331901895
30
0
0
VERTEX
8
0
10
126.494913462809
20
60.3149313830509
30
0
0
VERTEX
8
0
10
127.171356850311
20
60.5847638284723
30
0
0
VERTEX
8
0
10
127.847800237812
20
60.8424151098044
30
0
0
VERTEX
8
0
10
128.524243625314
20
61.1003571602651
30
0
0
VERTEX
8
0
10
129.200687012816
20
61.3644709402434
30
0
0
VERTEX
8
0
10
129.877130400317
20
61.616417833593
30
0
0
VERTEX
8
0
10
130.553573787819
20
61.8685228753975
30
0
0
VERTEX
8
0
10
131.23001717532
20
62.1268161422865
30
0
0
VERTEX
8
0
10
131.906460562822
20
62.3729742485894
30
0
0
VERTEX
8
0
10
132.582903950324
20
62.6191634358255
30
0
0
VERTEX
8
0
10
133.259347337825
20
62.871537710465
30
0
0
VERTEX
8
0
10
133.935790725327
20
63.1118249700812
30
0
0
VERTEX
8
0
10
134.612234112829
20
63.352021538607
30
0
0
VERTEX
8
0
10
135.28867750033
20
63.598381682181
30
0
0
VERTEX
8
0
10
135.965120887832
20
63.8327184182246
30
0
0
VERTEX
8
0
10
136.641564275334
20
64.0668477506908
30
0
0
VERTEX
8
0
10
137.318007662835
20
64.3071019490131
30
0
0
VERTEX
8
0
10
137.994451050337
20
64.5354109164358
30
0
0
VERTEX
8
0
10
138.670894437839
20
64.7634006115275
30
0
0
VERTEX
8
0
10
139.34733782534
20
64.9974603714419
30
0
0
VERTEX
8
0
10
140.023781212842
20
65.2196668123076
30
0
0
VERTEX
8
0
10
140.700224600343
20
65.4414467587573
30
0
0
VERTEX
8
0
10
141.376667987845
20
65.6692269165514
30
0
0
VERTEX
8
0
10
142.053111375347
20
65.8852586219254
30
0
0
VERTEX
8
0
10
142.729554762848
20
66.1007610779269
30
0
0
VERTEX
8
0
10
143.40599815035
20
66.3221798196119
30
0
0
VERTEX
8
0
10
144.082441537852
20
66.5319671985481
30
0
0
VERTEX
8
0
10
144.758884925353
20
66.7411268772181
30
0
0
VERTEX
8
0
10
145.435328312855
20
66.9561057707582
30
0
0
VERTEX
8
0
10
146.111771700357
20
67.1595819268815
30
0
0
VERTEX
8
0
10
146.788215087858
20
67.3623360883354
30
0
0
VERTEX
8
0
10
147.46465847536
20
67.5708001279808
30
0
0
VERTEX
8
0
10
148.141101862861
20
67.7679009442677
30
0
0
VERTEX
8
0
10
148.817545250363
20
67.9641894950539
30
0
0
VERTEX
8
0
10
149.493988637865
20
68.1660671579603
30
0
0
VERTEX
8
0
10
150.170432025366
20
68.3567313902473
30
0
0
VERTEX
8
0
10
150.846875412868
20
68.5464969908671
30
0
0
VERTEX
8
0
10
151.52331880037
20
68.7417203063493
30
0
0
VERTEX
8
0
10
152.199762187871
20
68.9258896863167
30
0
0
VERTEX
8
0
10
152.876205575373
20
69.1090778675614
30
0
0
VERTEX
8
0
10
153.552648962875
20
69.2975824994255
30
0
0
VERTEX
8
0
10
154.229092350376
20
69.4752018477338
30
0
0
SEQEND
8
0
0
POLYLINE
8
0
62
4
70
0
10
0
20
0
30
0
0
VERTEX
8
0
10
15.558197912538
20
2.92029404910803
30
0
0
VERTEX
8
0
10
16.2346413000396
20
3.64108102920962
30
0
0
VERTEX
8
0
10
16.9110846875413
20
4.46360379128465
30
0
0
VERTEX
8
0
10
17.5875280750429
20
4.19706545688415
30
0
0
VERTEX
8
0
10
18.2639714625446
20
4.78630434874694
30
0
0
VERTEX
8
0
10
18.9404148500462
20
5.48503925155042
30
0
0
VERTEX
8
0
10
19.6168582375479
20
5.40591126986073
30
0
0
VERTEX
8
0
10
20.2933016250495
20
5.92966406258848
30
0
0
VERTEX
8
0
10
20.9697450125512
20
6.5493434690456
30
0
0
VERTEX
8
0
10
21.6461884000528
20
6.58525323039909
30
0
0
VERTEX
8
0
10
22.3226317875545
20
7.07050451108437
30
0
0
VERTEX
8
0
10
22.9990751750562
20
7.64008938883268
30
0
0
VERTEX
8
0
10
23.6755185625578
20
7.75725074234201
30
0
0
VERTEX
8
0
10
24.3519619500595
20
8.22148562232281
30
0
0
VERTEX
8
0
10
25.0284053375611
20
8.75842367316569
30
0
0
VERTEX
8
0
10
25.7048487250628
20
8.93332776798673
30
0
0
VERTEX
8
0
10
26.3812921125644
20
9.38324525203193
30
0
0
VERTEX
8
0
10
27.0577355000661
20
9.89616575841553
30
0
0
VERTEX
8
0
10
27.7341788875677
20
10.1143756458849
30
0
0
VERTEX
8
0
10
28.4106222750694
20
10.5548635832732
30
0
0
VERTEX
8
0
10
29.087065662571
20
11.0503066813345
30
0
0
VERTEX
8
0
10
29.7635090500727
20
11.3019954549871
30
0
0
VERTEX
8
0
10
30.4399524375743
20
11.736102819154
30
0
0
VERTEX
8
0
10
31.116395825076
20
12.2184808183741
30
0
0
VERTEX
8
0
10
31.7928392125776
20
12.4934847404496
30
0
0
VERTEX
8
0
10
32.4692826000793
20
12.9207331775138
30
0
0
VERTEX
8
0
10
33.1457259875809
20
13.3907310186804
30
0
0
VERTEX
8
0
10
33.8221693750826
20
13.687808362124
30
0
0
VERTEX
8
0
10
34.4986127625842
20
14.1170090797778
30
0
0
VERTEX
8
0
10
35.1750561500859
20
14.582815558857
30
0
0
VERTEX
8
0
10
35.8514995375875
20
14.901000838049
30
0
0
VERTEX
8
0
10
36.5279429250892
20
15.3264994987093
30
0
0
VERTEX
8
0
10
37.2043863125908
20
15.705348411678
30
0
0
VERTEX
8
0
10
37.8808297000925
20
16.0392659274846
30
0
0
VERTEX
8
0
10
38.5572730875941
20
16.359223725162
30
0
0
VERTEX
8
0
10
39.2337164750958
20
16.6806712636603
30
0
0
VERTEX
8
0
10
39.9101598625974
20
17.0174519288455
30
0
0
VERTEX
8
0
10
40.5866032500991
20
17.340047678703
30
0
0
VERTEX
8
0
10
41.2630466376008
20
17.6633744834564
30
0
0
VERTEX
8
0
10
41.9394900251024
20
18.0055951485966
30
0
0
VERTEX
8
0
10
42.6159334126041
20
18.3354159147203
30
0
0
VERTEX
8
0
10
43.2923768001057
20
18.6659044647338
30
0
0
VERTEX
8
0
10
43.9688201876074
20
19.0113624358393
30
0
0
VERTEX
8
0
10
44.645263575109
20
19.3487233255788
30
0
0
VERTEX
8
0
10
45.3217069626107
20
19.6886766813432
30
0
0
VERTEX
8
0
10
45.9981503501123
20
20.0436630442838
30
0
0
VERTEX
8
0
10
46.674593737614
20
20.3839897955504
30
0
0
VERTEX
8
0
10
47.3510371251156
20
20.7217108387123
30
0
0
VERTEX
8
0
10
48.0274805126173
20
21.0739640984124
30
0
0
VERTEX
8
0
10
48.7039239001189
20
21.4114074505309
30
0
0
VERTEX
8
0
10
49.3803672876206
20
21.7493130993869
30
0
0
VERTEX
8
0
10
50.0568106751222
20
22.1057939356506
30
0
0
VERTEX
8
0
10
50.7332540626239
20
22.4474970412893
30
0
0
VERTEX
8
0
10
51.4096974501255
20
22.7896097148512
30
0
0
VERTEX
8
0
10
52.0861408376272
20
23.1467574154435
30
0
0
VERTEX
8
0
10
52.7625842251288
20
23.4862634824986
30
0
0
VERTEX
8
0
10
53.4390276126305
20
23.8262527223308
30
0
0
VERTEX
8
0
10
54.1154710001321
20
24.1812519925231
30
0
0
VERTEX
8
0
10
54.7919143876338
20
24.5211371810892
30
0
0
VERTEX
8
0
10
55.4683577751354
20
24.8656255932275
30
0
0
VERTEX
8
0
10
56.1448011626371
20
25.2245160832255
30
0
0
VERTEX
8
0
10
56.8212445501388
20
25.5682311119824
30
0
0
VERTEX
8
0
10
57.4976879376404
20
25.9121678181472
30
0
0
VERTEX
8
0
10
58.174131325142
20
26.264747790737
30
0
0
VERTEX
8
0
10
58.8505747126437
20
26.6033663663927
30
0
0
VERTEX
8
0
10
59.5270181001454
20
26.9421313702534
30
0
0
VERTEX
8
0
10
60.203461487647
20
27.2958034251578
30
0
0
VERTEX
8
0
10
60.8799048751487
20
27.6375839555987
30
0
0
VERTEX
8
0
10
61.5563482626503
20
27.9785665378022
30
0
0
VERTEX
8
0
10
62.232791650152
20
28.3344124379612
30
0
0
VERTEX
8
0
10
62.9092350376536
20
28.6749141994039
30
0
0
VERTEX
8
0
10
63.5856784251553
20
29.0154595239303
30
0
0
VERTEX
8
0
10
64.2621218126569
20
29.3708098127716
30
0
0
VERTEX
8
0
10
64.9385652001586
20
29.7107859872571
30
0
0
VERTEX
8
0
10
65.6150085876602
20
30.0507535206791
30
0
0
VERTEX
8
0
10
66.2914519751619
20
30.4054598711854
30
0
0
VERTEX
8
0
10
66.9678953626635
20
30.7447727021498
30
0
0
VERTEX
8
0
10
67.6443387501652
20
31.0840264767135
30
0
0
VERTEX
8
0
10
68.3207821376668
20
31.4396068314191
30
0
0
VERTEX
8
0
10
68.9972255251685
20
31.7806839619845
30
0
0
VERTEX
8
0
10
69.6736689126701
20
32.121660275503
30
0
0
VERTEX
8
0
10
70.3501123001718
20
32.4772229543722
30
0
0
VERTEX
8
0
10
71.0265556876734
20
32.8279779664828
30
0
0
VERTEX
8
0
10
71.7029990751751
20
33.182197123493
30
0
0
VERTEX
8
0
10
72.3794424626767
20
33.5509550477788
30
0
0
VERTEX
8
0
10
73.0558858501784
20
33.9044062548835
30
0
0
VERTEX
8
0
10
73.73232923768
20
34.2654347964546
30
0
0
VERTEX
8
0
10
74.4087726251817
20
34.6423259947822
30
0
0
VERTEX
8
0
10
75.0852160126833
20
35.0040088646721
30
0
0
VERTEX
8
0
10
75.761659400185
20
35.3655640065427
30
0
0
VERTEX
8
0
10
76.4381027876867
20
35.7402009343656
30
0
0
VERTEX
8
0
10
77.1145461751883
20
36.099601033034
30
0
0
VERTEX
8
0
10
77.79098956269
20
36.4588143785543
30
0
0
VERTEX
8
0
10
78.4674329501916
20
36.8322048676469
30
0
0
VERTEX
8
0
10
79.1438763376933
20
37.1890980641299
30
0
0
VERTEX
8
0
10
79.8203197251949
20
37.5458064587046
30
0
0
VERTEX
8
0
10
80.4967631126966
20
37.9165388899475
30
0
0
VERTEX
8
0
10
81.1732065001982
20
38.2722267885033
30
0
0
VERTEX
8
0
10
81.8496498876999
20
38.6291694669053
30
0
0
VERTEX
8
0
10
82.5260932752015
20
38.9998035782924
30
0
0
VERTEX
8
0
10
83.2025366627032
20
39.3554758830803
30
0
0
VERTEX
8
0
10
83.8789800502048
20
39.7108261542925
30
0
0
VERTEX
8
0
10
84.5554234377065
20
40.0799028904696
30
0
0
VERTEX
8
0
10
85.2318668252081
20
40.4341010175011
30
0
0
VERTEX
8
0
10
85.9083102127098
20
40.7879358339149
30
0
0
VERTEX
8
0
10
86.5847536002114
20
41.1553379631182
30
0
0
VERTEX
8
0
10
87.2611969877131
20
41.5061078282419
30
0
0
VERTEX
8
0
10
87.9376403752147
20
41.8569321439078
30
0
0
VERTEX
8
0
10
88.6140837627164
20
42.2211553813393
30
0
0
VERTEX
8
0
10
89.290527150218
20
42.5706799624533
30
0
0
VERTEX
8
0
10
89.9669705377197
20
42.921754856531
30
0
0
VERTEX
8
0
10
90.6434139252213
20
43.2854637048314
30
0
0
VERTEX
8
0
10
91.319857312723
20
43.6345839766345
30
0
0
VERTEX
8
0
10
91.9963007002247
20
43.9802359658809
30
0
0
VERTEX
8
0
10
92.6727440877263
20
44.336327439651
30
0
0
VERTEX
8
0
10
93.349187475228
20
44.6779163678743
30
0
0
VERTEX
8
0
10
94.0256308627296
20
45.018969913257
30
0
0
VERTEX
8
0
10
94.7020742502312
20
45.3764664795632
30
0
0
VERTEX
8
0
10
95.3785176377329
20
45.7216688698812
30
0
0
VERTEX
8
0
10
96.0549610252346
20
46.0663259836578
30
0
0
VERTEX
8
0
10
96.7314044127362
20
46.4237027083669
30
0
0
VERTEX
8
0
10
97.4078478002379
20
46.7657965173452
30
0
0
VERTEX
8
0
10
98.0842911877395
20
47.1069234991003
30
0
0
VERTEX
8
0
10
98.7607345752412
20
47.4605820087415
30
0
0
VERTEX
8
0
10
99.4371779627428
20
47.8001193385894
30
0
0
VERTEX
8
0
10
100.113621350244
20
48.1378541587105
30
0
0
VERTEX
8
0
10
100.790064737746
20
48.4876842306399
30
0
0
VERTEX
8
0
10
101.466508125248
20
48.8235214407004
30
0
0
VERTEX
8
0
10
102.142951512749
20
49.158708722395
30
0
0
VERTEX
8
0
10
102.819394900251
20
49.5033730199693
30
0
0
VERTEX
8
0
10
103.495838287753
20
49.8339611922592
30
0
0
VERTEX
8
0
10
104.172281675254
20
50.1638606802032
30
0
0
VERTEX
8
0
10
104.848725062756
20
50.5057137693701
30
0
0
VERTEX
8
0
10
105.525168450258
20
50.8368238439827
30
0
0
VERTEX
8
0
10
106.201611837759
20
51.1671565322361
30
0
0
VERTEX
8
0
10
106.878055225261
20
51.5092574567055
30
0
0
VERTEX
8
0
10
107.554498612763
20
51.8377963814673
30
0
0
VERTEX
8
0
10
108.230942000264
20
52.1623162247543
30
0
0
VERTEX
8
0
10
108.907385387766
20
52.4987556078977
30
0
0
VERTEX
8
0
10
109.583828775268
20
52.821777695921
30
0
0
VERTEX
8
0
10
110.260272162769
20
53.1440322343961
30
0
0
VERTEX
8
0
10
110.936715550271
20
53.4776469381749
30
0
0
VERTEX
8
0
10
111.613158937773
20
53.7980031059133
30
0
0
VERTEX
8
0
10
112.289602325274
20
54.1175674474138
30
0
0
VERTEX
8
0
10
112.966045712776
20
54.4482881360148
30
0
0
VERTEX
8
0
10
113.642489100278
20
54.7659141924875
30
0
0
VERTEX
8
0
10
114.318932487779
20
55.0827251123351
30
0
0
VERTEX
8
0
10
114.995375875281
20
55.4104852865199
30
0
0
VERTEX
8
0
10
115.671819262782
20
55.7253197341092
30
0
0
VERTEX
8
0
10
116.348262650284
20
56.0013162163527
30
0
0
VERTEX
8
0
10
117.024706037786
20
56.299190047112
30
0
0
VERTEX
8
0
10
117.701149425287
20
56.5842496482649
30
0
0
VERTEX
8
0
10
118.377592812789
20
56.91144547594
30
0
0
VERTEX
8
0
10
119.054036200291
20
57.289860302338
30
0
0
VERTEX
8
0
10
119.730479587792
20
57.6560068709137
30
0
0
VERTEX
8
0
10
120.406922975294
20
58.0215913776621
30
0
0
VERTEX
8
0
10
121.083366362796
20
58.3494391761174
30
0
0
VERTEX
8
0
10
121.759809750297
20
58.6345142114671
30
0
0
VERTEX
8
0
10
122.436253137799
20
58.9186431982407
30
0
0
VERTEX
8
0
10
123.112696525301
20
59.2128079091628
30
0
0
VERTEX
8
0
10
123.789139912802
20
59.5076949069987
30
0
0
VERTEX
8
0
10
124.465583300304
20
59.8068960302657
30
0
0
VERTEX
8
0
10
125.142026687806
20
60.1159526427432
30
0
0
VERTEX
8
0
10
125.818470075307
20
60.4129945894851
30
0
0
VERTEX
8
0
10
126.494913462809
20
60.6967328480185
30
0
0
VERTEX
8
0
10
127.171356850311
20
60.9871790063476
30
0
0
VERTEX
8
0
10
127.847800237812
20
61.2657669436566
30
0
0
VERTEX
8
0
10
128.524243625314
20
61.5433581803808
30
0
0
VERTEX
8
0
10
129.200687012816
20
61.8025541085658
30
0
0
VERTEX
8
0
10
129.877130400317
20
62.047254125135
30
0
0
VERTEX
8
0
10
130.553573787819
20
62.2909195271195
30
0
0
VERTEX
8
0
10
131.23001717532
20
62.5437468765682
30
0
0
VERTEX
8
0
10
131.906460562822
20
62.783523591029
30
0
0
VERTEX
8
0
10
132.582903950324
20
63.0222561707216
30
0
0
VERTEX
8
0
10
133.259347337825
20
63.269938838773
30
0
0
VERTEX
8
0
10
133.935790725327
20
63.5062871616353
30
0
0
VERTEX
8
0
10
134.612234112829
20
63.741562508229
30
0
0
VERTEX
8
0
10
135.28867750033
20
63.9855721179659
30
0
0
VERTEX
8
0
10
135.965120887832
20
64.2184311306857
30
0
0
VERTEX
8
0
10
136.641564275334
20
64.450199065378
30
0
0
VERTEX
8
0
10
137.318007662835
20
64.6904824660102
30
0
0
VERTEX
8
0
10
137.994451050337
20
64.9198039600613
30
0
0
VERTEX
8
0
10
138.670894437839
20
65.1480172910597
30
0
0
VERTEX
8
0
10
139.34733782534
20
65.3845245289808
30
0
0
VERTEX
8
0
10
140.023781212842
20
65.6102632985904
30
0
0
VERTEX
8
0
10
140.700224600343
20
65.834877844407
30
0
0
VERTEX
8
0
10
141.376667987845
20
66.0675621886434
30
0
0
VERTEX
8
0
10
142.053111375347
20
66.2896760573763
30
0
0
VERTEX
8
0
10
142.729554762848
20
66.5106506750563
30
0
0
VERTEX
8
0
10
143.40599815035
20
66.7394686479901
30
0
0
VERTEX
8
0
10
144.082441537852
20
66.957918500234
30
0
0
VERTEX
8
0
10
144.758884925353
20
67.1752151184669
30
0
0
VERTEX
8
0
10
145.435328312855
20
67.4001265317911
30
0
0
VERTEX
8
0
10
146.111771700357
20
67.6148763491017
30
0
0
VERTEX
8
0
10
146.788215087858
20
67.8284600061844
30
0
0
VERTEX
8
0
10
147.46465847536
20
68.0494280020552
30
0
0
VERTEX
8
0
10
148.141101862861
20
68.2604449043424
30
0
0
VERTEX
8
0
10
148.817545250363
20
68.4702837909759
30
0
0
VERTEX
8
0
10
149.493988637865
20
68.6872748883472
30
0
0
VERTEX
8
0
10
150.170432025366
20
68.8934708833469
30
0
0
VERTEX
8
0
10
150.846875412868
20
69.0980098721041
30
0
0
VERTEX
8
0
10
151.52331880037
20
69.309467171278
30
0
0
VERTEX
8
0
10
152.199762187871
20
69.5114043412822
30
0
0
VERTEX
8
0
10
152.876205575373
20
69.710691203647
30
0
0
VERTEX
8
0
10
153.552648962875
20
69.9162797423438
30
0
0
VERTEX
8
0
10
154.229092350376
20
70.1125674950118
30
0
0
SEQEND
8
0
0
ENDSEC
0
EOF
