0
SECTION
2
HEADER
9
$ACADVER
1
AC1009
0
ENDSEC
0
SECTION
2
ENTITIES
0
POLYLINE
8
0
62
0
70
1
10
0
20
0
30
0
0
VERTEX
8
0
10
0
20
0
30
0
0
VERTEX
8
0
10
0
20
117.45
30
0
0
VERTEX
8
0
10
179.2
20
117.45
30
0
0
VERTEX
8
0
10
179.2
20
0
30
0
0
SEQEND
8
0
0
TEXT
8
0
62
0
10
0
20
-12
30
0
40
8
1
0
50
0
0
LINE
8
0
62
0
10
6.76443387501651
20
0
30
0
11
6.76443387501651
21
3.2
31
0
0
LINE
8
0
62
0
10
6.76443387501651
20
117.45
30
0
11
6.76443387501651
21
114.25
31
0
0
LINE
8
0
62
0
10
13.528867750033
20
0
30
0
11
13.528867750033
21
3.2
31
0
0
LINE
8
0
62
0
10
13.528867750033
20
117.45
30
0
11
13.528867750033
21
114.25
31
0
0
LINE
8
0
62
0
10
20.2933016250495
20
0
30
0
11
20.2933016250495
21
3.2
31
0
0
LINE
8
0
62
0
10
20.2933016250495
20
117.45
30
0
11
20.2933016250495
21
114.25
31
0
0
LINE
8
0
62
0
10
27.0577355000661
20
0
30
0
11
27.0577355000661
21
3.2
31
0
0
LINE
8
0
62
0
10
27.0577355000661
20
117.45
30
0
11
27.0577355000661
21
114.25
31
0
0
LINE
8
0
62
0
10
33.8221693750826
20
0
30
0
11
33.8221693750826
21
6.4
31
0
0
LINE
8
0
62
0
10
33.8221693750826
20
117.45
30
0
11
33.8221693750826
21
111.05
31
0
0
TEXT
8
0
62
0
10
33.8221693750826
20
-12
30
0
40
8
1
0.5
50
0
0
LINE
8
0
62
0
10
40.5866032500991
20
0
30
0
11
40.5866032500991
21
3.2
31
0
0
LINE
8
0
62
0
10
40.5866032500991
20
117.45
30
0
11
40.5866032500991
21
114.25
31
0
0
LINE
8
0
62
0
10
47.3510371251156
20
0
30
0
11
47.3510371251156
21
3.2
31
0
0
LINE
8
0
62
0
10
47.3510371251156
20
117.45
30
0
11
47.3510371251156
21
114.25
31
0
0
LINE
8
0
62
0
10
54.1154710001321
20
0
30
0
11
54.1154710001321
21
3.2
31
0
0
LINE
8
0
62
0
10
54.1154710001321
20
117.45
30
0
11
54.1154710001321
21
114.25
31
0
0
LINE
8
0
62
0
10
60.8799048751486
20
0
30
0
11
60.8799048751486
21
3.2
31
0
0
LINE
8
0
62
0
10
60.8799048751486
20
117.45
30
0
11
60.8799048751486
21
114.25
31
0
0
LINE
8
0
62
0
10
67.6443387501651
20
0
30
0
11
67.6443387501651
21
6.4
31
0
0
LINE
8
0
62
0
10
67.6443387501651
20
117.45
30
0
11
67.6443387501651
21
111.05
31
0
0
TEXT
8
0
62
0
10
67.6443387501651
20
-12
30
0
40
8
1
1
50
0
0
LINE
8
0
62
0
10
74.4087726251817
20
0
30
0
11
74.4087726251817
21
3.2
31
0
0
LINE
8
0
62
0
10
74.4087726251817
20
117.45
30
0
11
74.4087726251817
21
114.25
31
0
0
LINE
8
0
62
0
10
81.1732065001982
20
0
30
0
11
81.1732065001982
21
3.2
31
0
0
LINE
8
0
62
0
10
81.1732065001982
20
117.45
30
0
11
81.1732065001982
21
114.25
31
0
0
LINE
8
0
62
0
10
87.9376403752147
20
0
30
0
11
87.9376403752147
21
3.2
31
0
0
LINE
8
0
62
0
10
87.9376403752147
20
117.45
30
0
11
87.9376403752147
21
114.25
31
0
0
LINE
8
0
62
0
10
94.7020742502312
20
0
30
0
11
94.7020742502312
21
3.2
31
0
0
LINE
8
0
62
0
10
94.7020742502312
20
117.45
30
0
11
94.7020742502312
21
114.25
31
0
0
LINE
8
0
62
0
10
101.466508125248
20
0
30
0
11
101.466508125248
21
6.4
31
0
0
LINE
8
0
62
0
10
101.466508125248
20
117.45
30
0
11
101.466508125248
21
111.05
31
0
0
TEXT
8
0
62
0
10
101.466508125248
20
-12
30
0
40
8
1
1.5
50
0
0
LINE
8
0
62
0
10
108.230942000264
20
0
30
0
11
108.230942000264
21
3.2
31
0
0
LINE
8
0
62
0
10
108.230942000264
20
117.45
30
0
11
108.230942000264
21
114.25
31
0
0
LINE
8
0
62
0
10
114.995375875281
20
0
30
0
11
114.995375875281
21
3.2
31
0
0
LINE
8
0
62
0
10
114.995375875281
20
117.45
30
0
11
114.995375875281
21
114.25
31
0
0
LINE
8
0
62
0
10
121.759809750297
20
0
30
0
11
121.759809750297
21
3.2
31
0
0
LINE
8
0
62
0
10
121.759809750297
20
117.45
30
0
11
121.759809750297
21
114.25
31
0
0
LINE
8
0
62
0
10
128.524243625314
20
0
30
0
11
128.524243625314
21
3.2
31
0
0
LINE
8
0
62
0
10
128.524243625314
20
117.45
30
0
11
128.524243625314
21
114.25
31
0
0
LINE
8
0
62
0
10
135.28867750033
20
0
30
0
11
135.28867750033
21
6.4
31
0
0
LINE
8
0
62
0
10
135.28867750033
20
117.45
30
0
11
135.28867750033
21
111.05
31
0
0
TEXT
8
0
62
0
10
135.28867750033
20
-12
30
0
40
8
1
2
50
0
0
LINE
8
0
62
0
10
142.053111375347
20
0
30
0
11
142.053111375347
21
3.2
31
0
0
LINE
8
0
62
0
10
142.053111375347
20
117.45
30
0
11
142.053111375347
21
114.25
31
0
0
LINE
8
0
62
0
10
148.817545250363
20
0
30
0
11
148.817545250363
21
3.2
31
0
0
LINE
8
0
62
0
10
148.817545250363
20
117.45
30
0
11
148.817545250363
21
114.25
31
0
0
LINE
8
0
62
0
10
155.58197912538
20
0
30
0
11
155.58197912538
21
3.2
31
0
0
LINE
8
0
62
0
10
155.58197912538
20
117.45
30
0
11
155.58197912538
21
114.25
31
0
0
LINE
8
0
62
0
10
162.346413000396
20
0
30
0
11
162.346413000396
21
3.2
31
0
0
LINE
8
0
62
0
10
162.346413000396
20
117.45
30
0
11
162.346413000396
21
114.25
31
0
0
LINE
8
0
62
0
10
169.110846875413
20
0
30
0
11
169.110846875413
21
6.4
31
0
0
LINE
8
0
62
0
10
169.110846875413
20
117.45
30
0
11
169.110846875413
21
111.05
31
0
0
TEXT
8
0
62
0
10
169.110846875413
20
-12
30
0
40
8
1
2.5
50
0
0
LINE
8
0
62
0
10
175.875280750429
20
0
30
0
11
175.875280750429
21
3.2
31
0
0
LINE
8
0
62
0
10
175.875280750429
20
117.45
30
0
11
175.875280750429
21
114.25
31
0
0
TEXT
8
0
62
0
10
-4
20
-4
30
0
40
8
1
0
50
0
0
LINE
8
0
62
0
10
0
20
3.915
30
0
11
3.2
21
3.915
31
0
0
LINE
8
0
62
0
10
179.2
20
3.915
30
0
11
176
21
3.915
31
0
0
LINE
8
0
62
0
10
0
20
7.83
30
0
11
3.2
21
7.83
31
0
0
LINE
8
0
62
0
10
179.2
20
7.83
30
0
11
176
21
7.83
31
0
0
LINE
8
0
62
0
10
0
20
11.745
30
0
11
3.2
21
11.745
31
0
0
LINE
8
0
62
0
10
179.2
20
11.745
30
0
11
176
21
11.745
31
0
0
LINE
8
0
62
0
10
0
20
15.66
30
0
11
3.2
21
15.66
31
0
0
LINE
8
0
62
0
10
179.2
20
15.66
30
0
11
176
21
15.66
31
0
0
LINE
8
0
62
0
10
0
20
19.575
30
0
11
6.4
21
19.575
31
0
0
LINE
8
0
62
0
10
179.2
20
19.575
30
0
11
172.8
21
19.575
31
0
0
TEXT
8
0
62
0
10
-4
20
15.575
30
0
40
8
1
10
50
0
0
LINE
8
0
62
0
10
0
20
23.49
30
0
11
3.2
21
23.49
31
0
0
LINE
8
0
62
0
10
179.2
20
23.49
30
0
11
176
21
23.49
31
0
0
LINE
8
0
62
0
10
0
20
27.405
30
0
11
3.2
21
27.405
31
0
0
LINE
8
0
62
0
10
179.2
20
27.405
30
0
11
176
21
27.405
31
0
0
LINE
8
0
62
0
10
0
20
31.32
30
0
11
3.2
21
31.32
31
0
0
LINE
8
0
62
0
10
179.2
20
31.32
30
0
11
176
21
31.32
31
0
0
LINE
8
0
62
0
10
0
20
35.235
30
0
11
3.2
21
35.235
31
0
0
LINE
8
0
62
0
10
179.2
20
35.235
30
0
11
176
21
35.235
31
0
0
LINE
8
0
62
0
10
0
20
39.15
30
0
11
6.4
21
39.15
31
0
0
LINE
8
0
62
0
10
179.2
20
39.15
30
0
11
172.8
21
39.15
31
0
0
TEXT
8
0
62
0
10
-4
20
35.15
30
0
40
8
1
20
50
0
0
LINE
8
0
62
0
10
0
20
43.065
30
0
11
3.2
21
43.065
31
0
0
LINE
8
0
62
0
10
179.2
20
43.065
30
0
11
176
21
43.065
31
0
0
LINE
8
0
62
0
10
0
20
46.98
30
0
11
3.2
21
46.98
31
0
0
LINE
8
0
62
0
10
179.2
20
46.98
30
0
11
176
21
46.98
31
0
0
LINE
8
0
62
0
10
0
20
50.895
30
0
11
3.2
21
50.895
31
0
0
LINE
8
0
62
0
10
179.2
20
50.895
30
0
11
176
21
50.895
31
0
0
LINE
8
0
62
0
10
0
20
54.81
30
0
11
3.2
21
54.81
31
0
0
LINE
8
0
62
0
10
179.2
20
54.81
30
0
11
176
21
54.81
31
0
0
LINE
8
0
62
0
10
0
20
58.725
30
0
11
6.4
21
58.725
31
0
0
LINE
8
0
62
0
10
179.2
20
58.725
30
0
11
172.8
21
58.725
31
0
0
TEXT
8
0
62
0
10
-4
20
54.725
30
0
40
8
1
30
50
0
0
LINE
8
0
62
0
10
0
20
62.64
30
0
11
3.2
21
62.64
31
0
0
LINE
8
0
62
0
10
179.2
20
62.64
30
0
11
176
21
62.64
31
0
0
LINE
8
0
62
0
10
0
20
66.555
30
0
11
3.2
21
66.555
31
0
0
LINE
8
0
62
0
10
179.2
20
66.555
30
0
11
176
21
66.555
31
0
0
LINE
8
0
62
0
10
0
20
70.47
30
0
11
3.2
21
70.47
31
0
0
LINE
8
0
62
0
10
179.2
20
70.47
30
0
11
176
21
70.47
31
0
0
LINE
8
0
62
0
10
0
20
74.385
30
0
11
3.2
21
74.385
31
0
0
LINE
8
0
62
0
10
179.2
20
74.385
30
0
11
176
21
74.385
31
0
0
LINE
8
0
62
0
10
0
20
78.3
30
0
11
6.4
21
78.3
31
0
0
LINE
8
0
62
0
10
179.2
20
78.3
30
0
11
172.8
21
78.3
31
0
0
TEXT
8
0
62
0
10
-4
20
74.3
30
0
40
8
1
40
50
0
0
LINE
8
0
62
0
10
0
20
82.215
30
0
11
3.2
21
82.215
31
0
0
LINE
8
0
62
0
10
179.2
20
82.215
30
0
11
176
21
82.215
31
0
0
LINE
8
0
62
0
10
0
20
86.13
30
0
11
3.2
21
86.13
31
0
0
LINE
8
0
62
0
10
179.2
20
86.13
30
0
11
176
21
86.13
31
0
0
LINE
8
0
62
0
10
0
20
90.045
30
0
11
3.2
21
90.045
31
0
0
LINE
8
0
62
0
10
179.2
20
90.045
30
0
11
176
21
90.045
31
0
0
LINE
8
0
62
0
10
0
20
93.96
30
0
11
3.2
21
93.96
31
0
0
LINE
8
0
62
0
10
179.2
20
93.96
30
0
11
176
21
93.96
31
0
0
LINE
8
0
62
0
10
0
20
97.875
30
0
11
6.4
21
97.875
31
0
0
LINE
8
0
62
0
10
179.2
20
97.875
30
0
11
172.8
21
97.875
31
0
0
TEXT
8
0
62
0
10
-4
20
93.875
30
0
40
8
1
50
50
0
0
LINE
8
0
62
0
10
0
20
101.79
30
0
11
3.2
21
101.79
31
0
0
LINE
8
0
62
0
10
179.2
20
101.79
30
0
11
176
21
101.79
31
0
0
LINE
8
0
62
0
10
0
20
105.705
30
0
11
3.2
21
105.705
31
0
0
LINE
8
0
62
0
10
179.2
20
105.705
30
0
11
176
21
105.705
31
0
0
LINE
8
0
62
0
10
0
20
109.62
30
0
11
3.2
21
109.62
31
0
0
LINE
8
0
62
0
10
179.2
20
109.62
30
0
11
176
21
109.62
31
0
0
LINE
8
0
62
0
10
0
20
113.535
30
0
11
3.2
21
113.535
31
0
0
LINE
8
0
62
0
10
179.2
20
113.535
30
0
11
176
21
113.535
31
0
0
TEXT
8
0
62
0
10
-4
20
113.45
30
0
40
8
1
60
50
0
0
TEXT
8
0
62
0
10
89.6
20
-32
30
0
40
10
1
R (kpc)
50
0
0
TEXT
8
0
62
0
10
-24
20
58.725
30
0
40
10
1
V (km/s)
50
90
0
TEXT
8
0
62
0
10
72.6
20
132.45
30
0
40
11
1
V vs. R
50
0
0
POLYLINE
8
0
62
5
70
0
10
0
20
0
30
0
0
VERTEX
8
0
10
15.558197912538
20
9.65651592174877
30
0
0
VERTEX
8
0
10
16.2346413000396
20
9.9580165930499
30
0
0
VERTEX
8
0
10
16.9110846875413
20
10.259517264351
30
0
0
VERTEX
8
0
10
17.5875280750429
20
10.5610179356522
30
0
0
VERTEX
8
0
10
18.2639714625446
20
10.8625186069533
30
0
0
VERTEX
8
0
10
18.9404148500462
20
11.1600262428645
30
0
0
VERTEX
8
0
10
19.6168582375479
20
11.4587352412832
30
0
0
VERTEX
8
0
10
20.2933016250495
20
11.7574442397019
30
0
0
VERTEX
8
0
10
20.9697450125512
20
12.0576286598158
30
0
0
VERTEX
8
0
10
21.6461884000528
20
12.3591293311169
30
0
0
VERTEX
8
0
10
22.3226317875545
20
12.660630002418
30
0
0
VERTEX
8
0
10
22.9990751750562
20
12.9621306737191
30
0
0
VERTEX
8
0
10
23.6755185625578
20
13.2636313450203
30
0
0
VERTEX
8
0
10
24.3519619500595
20
13.5651320163214
30
0
0
VERTEX
8
0
10
25.0284053375611
20
13.8666326876225
30
0
0
VERTEX
8
0
10
25.7048487250628
20
14.1681333589237
30
0
0
VERTEX
8
0
10
26.3812921125644
20
14.4696340302248
30
0
0
VERTEX
8
0
10
27.0577355000661
20
14.7711347015259
30
0
0
VERTEX
8
0
10
27.7341788875677
20
15.0726353728271
30
0
0
VERTEX
8
0
10
28.4106222750694
20
15.3741360441282
30
0
0
VERTEX
8
0
10
29.087065662571
20
15.6779343146873
30
0
0
VERTEX
8
0
10
29.7635090500727
20
15.9822266588708
30
0
0
VERTEX
8
0
10
30.4399524375743
20
16.2865190030544
30
0
0
VERTEX
8
0
10
31.116395825076
20
16.5908113472379
30
0
0
VERTEX
8
0
10
31.7928392125776
20
16.8899603745304
30
0
0
VERTEX
8
0
10
32.4692826000793
20
17.1886693729491
30
0
0
VERTEX
8
0
10
33.1457259875809
20
17.4873783713678
30
0
0
VERTEX
8
0
10
33.8221693750826
20
17.7860873697865
30
0
0
VERTEX
8
0
10
34.4986127625842
20
18.0904878034715
30
0
0
VERTEX
8
0
10
35.1750561500859
20
18.3947801476551
30
0
0
VERTEX
8
0
10
35.8514995375875
20
18.6990724918386
30
0
0
VERTEX
8
0
10
36.5279429250892
20
19.0033648360222
30
0
0
VERTEX
8
0
10
37.2043863125908
20
19.304537403385
30
0
0
VERTEX
8
0
10
37.8808297000925
20
19.6060380746861
30
0
0
VERTEX
8
0
10
38.5572730875941
20
19.9075387459872
30
0
0
VERTEX
8
0
10
39.2337164750958
20
20.2090394172883
30
0
0
VERTEX
8
0
10
39.9101598625974
20
20.5003585805644
30
0
0
VERTEX
8
0
10
40.5866032500991
20
20.7934842332183
30
0
0
VERTEX
8
0
10
41.2630466376008
20
21.0866098858721
30
0
0
VERTEX
8
0
10
41.9394900251024
20
21.379735538526
30
0
0
VERTEX
8
0
10
42.6159334126041
20
21.5738280208885
30
0
0
VERTEX
8
0
10
43.2923768001057
20
21.7915785057171
30
0
0
VERTEX
8
0
10
43.9688201876074
20
22.0093289905457
30
0
0
VERTEX
8
0
10
44.645263575109
20
22.2270794753743
30
0
0
VERTEX
8
0
10
45.3217069626107
20
22.3462811006132
30
0
0
VERTEX
8
0
10
45.9981503501123
20
22.4942397633814
30
0
0
VERTEX
8
0
10
46.674593737614
20
22.6421984261495
30
0
0
VERTEX
8
0
10
47.3510371251156
20
22.7930057702952
30
0
0
VERTEX
8
0
10
48.0274805126173
20
22.9465477788282
30
0
0
VERTEX
8
0
10
48.7039239001189
20
23.1000897873612
30
0
0
VERTEX
8
0
10
49.3803672876206
20
23.2536317958942
30
0
0
VERTEX
8
0
10
50.0568106751222
20
23.4037770046744
30
0
0
VERTEX
8
0
10
50.7332540626239
20
23.5517356674425
30
0
0
VERTEX
8
0
10
51.4096974501255
20
23.6996943302107
30
0
0
VERTEX
8
0
10
52.0861408376272
20
23.8476529929788
30
0
0
VERTEX
8
0
10
52.7625842251288
20
23.995611655747
30
0
0
VERTEX
8
0
10
53.4390276126305
20
24.1435703185151
30
0
0
VERTEX
8
0
10
54.1154710001321
20
24.2915289812833
30
0
0
VERTEX
8
0
10
54.7919143876338
20
24.4394876440514
30
0
0
VERTEX
8
0
10
55.4683577751354
20
24.5896928250712
30
0
0
VERTEX
8
0
10
56.1448011626371
20
24.7404431607217
30
0
0
VERTEX
8
0
10
56.8212445501388
20
24.8911934963723
30
0
0
VERTEX
8
0
10
57.4976879376404
20
25.0419438320229
30
0
0
VERTEX
8
0
10
58.174131325142
20
25.1901735902342
30
0
0
VERTEX
8
0
10
58.8505747126437
20
25.3381322530024
30
0
0
VERTEX
8
0
10
59.5270181001454
20
25.4860909157705
30
0
0
VERTEX
8
0
10
60.203461487647
20
25.6340495785387
30
0
0
VERTEX
8
0
10
60.8799048751487
20
25.7875975145604
30
0
0
VERTEX
8
0
10
61.5563482626503
20
25.9411395230934
30
0
0
VERTEX
8
0
10
62.232791650152
20
26.0946815316264
30
0
0
VERTEX
8
0
10
62.9092350376536
20
26.2482235401594
30
0
0
VERTEX
8
0
10
63.5856784251553
20
26.3956281570635
30
0
0
VERTEX
8
0
10
64.2621218126569
20
26.5435868198317
30
0
0
VERTEX
8
0
10
64.9385652001586
20
26.6915454825998
30
0
0
VERTEX
8
0
10
65.6150085876602
20
26.839504145368
30
0
0
VERTEX
8
0
10
66.2914519751619
20
26.9908055631382
30
0
0
VERTEX
8
0
10
66.9678953626635
20
27.1415558987887
30
0
0
VERTEX
8
0
10
67.6443387501652
20
27.2923062344393
30
0
0
VERTEX
8
0
10
68.3207821376668
20
27.4430565700899
30
0
0
VERTEX
8
0
10
68.9972255251685
20
27.5757228347922
30
0
0
VERTEX
8
0
10
69.6736689126701
20
27.7125148060307
30
0
0
VERTEX
8
0
10
70.3501123001718
20
27.8493067772692
30
0
0
VERTEX
8
0
10
71.0265556876734
20
27.9860987485077
30
0
0
VERTEX
8
0
10
71.7029990751751
20
28.0334006320695
30
0
0
VERTEX
8
0
10
72.3794424626767
20
28.1059841270124
30
0
0
VERTEX
8
0
10
73.0558858501784
20
28.1785676219553
30
0
0
VERTEX
8
0
10
73.73232923768
20
28.2511511168981
30
0
0
VERTEX
8
0
10
74.4087726251817
20
28.3070748815816
30
0
0
VERTEX
8
0
10
75.0852160126833
20
28.3684916849948
30
0
0
VERTEX
8
0
10
75.761659400185
20
28.429908488408
30
0
0
VERTEX
8
0
10
76.4381027876867
20
28.4880306540811
30
0
0
VERTEX
8
0
10
77.1145461751883
20
28.5438641117294
30
0
0
VERTEX
8
0
10
77.79098956269
20
28.5996975693778
30
0
0
VERTEX
8
0
10
78.4674329501916
20
28.6555310270262
30
0
0
VERTEX
8
0
10
79.1438763376933
20
28.7152072407898
30
0
0
VERTEX
8
0
10
79.8203197251949
20
28.776624044203
30
0
0
VERTEX
8
0
10
80.4967631126966
20
28.8380408476162
30
0
0
VERTEX
8
0
10
81.1732065001982
20
28.8994576510294
30
0
0
VERTEX
8
0
10
81.8496498876999
20
28.9608744544426
30
0
0
VERTEX
8
0
10
82.5260932752015
20
29.0222912578558
30
0
0
VERTEX
8
0
10
83.2025366627032
20
29.083708061269
30
0
0
VERTEX
8
0
10
83.8789800502048
20
29.1451248646822
30
0
0
VERTEX
8
0
10
84.5554234377065
20
29.2016026752296
30
0
0
VERTEX
8
0
10
85.2318668252081
20
29.257436132878
30
0
0
VERTEX
8
0
10
85.9083102127098
20
29.3132695905263
30
0
0
VERTEX
8
0
10
86.5847536002114
20
29.3691030481747
30
0
0
VERTEX
8
0
10
87.2611969877131
20
29.430423617064
30
0
0
VERTEX
8
0
10
87.9376403752147
20
29.4918404204772
30
0
0
VERTEX
8
0
10
88.6140837627164
20
29.5532572238904
30
0
0
VERTEX
8
0
10
89.290527150218
20
29.6146740273036
30
0
0
VERTEX
8
0
10
89.9669705377197
20
29.6760908307168
30
0
0
VERTEX
8
0
10
90.6434139252213
20
29.73750763413
30
0
0
VERTEX
8
0
10
91.319857312723
20
29.7989244375432
30
0
0
VERTEX
8
0
10
91.9963007002247
20
29.8603412409564
30
0
0
VERTEX
8
0
10
92.6727440877263
20
29.9151746963782
30
0
0
VERTEX
8
0
10
93.349187475228
20
29.9710081540265
30
0
0
VERTEX
8
0
10
94.0256308627296
20
30.0268416116749
30
0
0
VERTEX
8
0
10
94.7020742502312
20
30.0826750693233
30
0
0
VERTEX
8
0
10
95.3785176377329
20
30.1456399933382
30
0
0
VERTEX
8
0
10
96.0549610252346
20
30.2070567967514
30
0
0
VERTEX
8
0
10
96.7314044127362
20
30.2684736001646
30
0
0
VERTEX
8
0
10
97.4078478002379
20
30.3298904035778
30
0
0
VERTEX
8
0
10
98.0842911877395
20
30.3836276222492
30
0
0
VERTEX
8
0
10
98.7607345752412
20
30.4394610798975
30
0
0
VERTEX
8
0
10
99.4371779627428
20
30.4952945375459
30
0
0
VERTEX
8
0
10
100.113621350244
20
30.5511279951942
30
0
0
VERTEX
8
0
10
100.790064737746
20
30.5452536794649
30
0
0
VERTEX
8
0
10
101.466508125248
20
30.559212043877
30
0
0
VERTEX
8
0
10
102.142951512749
20
30.5731704082891
30
0
0
VERTEX
8
0
10
102.819394900251
20
30.5791475833827
30
0
0
VERTEX
8
0
10
103.495838287753
20
30.5791475833827
30
0
0
VERTEX
8
0
10
104.172281675254
20
30.5791475833827
30
0
0
VERTEX
8
0
10
104.848725062756
20
30.5791475833827
30
0
0
VERTEX
8
0
10
105.525168450258
20
30.5959802568445
30
0
0
VERTEX
8
0
10
106.201611837759
20
30.6211053127862
30
0
0
VERTEX
8
0
10
106.878055225261
20
30.646230368728
30
0
0
VERTEX
8
0
10
107.554498612763
20
30.6713554246698
30
0
0
VERTEX
8
0
10
108.230942000264
20
30.7050579055672
30
0
0
VERTEX
8
0
10
108.907385387766
20
30.7413496530386
30
0
0
VERTEX
8
0
10
109.583828775268
20
30.7776414005101
30
0
0
VERTEX
8
0
10
110.260272162769
20
30.8139331479815
30
0
0
VERTEX
8
0
10
110.936715550271
20
30.8187854949081
30
0
0
VERTEX
8
0
10
111.613158937773
20
30.8187854949081
30
0
0
VERTEX
8
0
10
112.289602325274
20
30.8187854949081
30
0
0
VERTEX
8
0
10
112.966045712776
20
30.8187854949081
30
0
0
VERTEX
8
0
10
113.642489100278
20
30.8241704441364
30
0
0
VERTEX
8
0
10
114.318932487779
20
30.8297537899012
30
0
0
VERTEX
8
0
10
114.995375875281
20
30.8353371356661
30
0
0
VERTEX
8
0
10
115.671819262782
20
30.8409204814309
30
0
0
VERTEX
8
0
10
116.348262650284
20
30.899901435627
30
0
0
VERTEX
8
0
10
117.024706037786
20
30.9557348932754
30
0
0
VERTEX
8
0
10
117.701149425287
20
31.0115683509237
30
0
0
VERTEX
8
0
10
118.377592812789
20
31.0674018085721
30
0
0
VERTEX
8
0
10
119.054036200291
20
31.0584234064335
30
0
0
VERTEX
8
0
10
119.730479587792
20
31.0584234064335
30
0
0
VERTEX
8
0
10
120.406922975294
20
31.0584234064335
30
0
0
VERTEX
8
0
10
121.083366362796
20
31.0584234064335
30
0
0
VERTEX
8
0
10
121.759809750297
20
31.0584234064335
30
0
0
VERTEX
8
0
10
122.436253137799
20
31.0584234064335
30
0
0
VERTEX
8
0
10
123.112696525301
20
31.0584234064335
30
0
0
VERTEX
8
0
10
123.789139912802
20
31.0584234064335
30
0
0
VERTEX
8
0
10
124.465583300304
20
31.1076766541728
30
0
0
VERTEX
8
0
10
125.142026687806
20
31.1439684016442
30
0
0
VERTEX
8
0
10
125.818470075307
20
31.1802601491157
30
0
0
VERTEX
8
0
10
126.494913462809
20
31.2165518965871
30
0
0
VERTEX
8
0
10
127.171356850311
20
31.1837765446717
30
0
0
VERTEX
8
0
10
127.847800237812
20
31.172609853142
30
0
0
VERTEX
8
0
10
128.524243625314
20
31.1614431616123
30
0
0
VERTEX
8
0
10
129.200687012816
20
31.1379152152238
30
0
0
VERTEX
8
0
10
129.877130400317
20
31.1044151406348
30
0
0
VERTEX
8
0
10
130.553573787819
20
31.0709150660458
30
0
0
VERTEX
8
0
10
131.23001717532
20
31.0374149914568
30
0
0
VERTEX
8
0
10
131.906460562822
20
30.991180404553
30
0
0
VERTEX
8
0
10
132.582903950324
20
30.938138619787
30
0
0
VERTEX
8
0
10
133.259347337825
20
30.8850968350211
30
0
0
VERTEX
8
0
10
133.935790725327
20
30.8320550502552
30
0
0
VERTEX
8
0
10
134.612234112829
20
30.7873863664195
30
0
0
VERTEX
8
0
10
135.28867750033
20
30.7455112731833
30
0
0
VERTEX
8
0
10
135.965120887832
20
30.703636179947
30
0
0
VERTEX
8
0
10
136.641564275334
20
30.6617610867107
30
0
0
VERTEX
8
0
10
137.318007662835
20
30.626987996735
30
0
0
VERTEX
8
0
10
137.994451050337
20
30.593487922146
30
0
0
VERTEX
8
0
10
138.670894437839
20
30.559987847557
30
0
0
VERTEX
8
0
10
139.34733782534
20
30.5264877729679
30
0
0
VERTEX
8
0
10
140.023781212842
20
30.47978073034
30
0
0
VERTEX
8
0
10
140.700224600343
20
30.4323222913389
30
0
0
VERTEX
8
0
10
141.376667987845
20
30.3848638523378
30
0
0
VERTEX
8
0
10
142.053111375347
20
30.3374054133367
30
0
0
VERTEX
8
0
10
142.729554762848
20
30.2899469743356
30
0
0
VERTEX
8
0
10
143.40599815035
20
30.2424885353345
30
0
0
VERTEX
8
0
10
144.082441537852
20
30.1950300963334
30
0
0
VERTEX
8
0
10
144.758884925353
20
30.1475716573323
30
0
0
VERTEX
8
0
10
145.435328312855
20
30.1160607782462
30
0
0
VERTEX
8
0
10
146.111771700357
20
30.0825607036572
30
0
0
VERTEX
8
0
10
146.788215087858
20
30.0490606290682
30
0
0
VERTEX
8
0
10
147.46465847536
20
30.0155605544792
30
0
0
VERTEX
8
0
10
148.141101862861
20
29.9716697663783
30
0
0
VERTEX
8
0
10
148.817545250363
20
29.929794673142
30
0
0
VERTEX
8
0
10
149.493988637865
20
29.8879195799058
30
0
0
VERTEX
8
0
10
150.170432025366
20
29.8460444866695
30
0
0
VERTEX
8
0
10
150.846875412868
20
29.7892188720004
30
0
0
VERTEX
8
0
10
151.52331880037
20
29.7361770872344
30
0
0
VERTEX
8
0
10
152.199762187871
20
29.6831353024685
30
0
0
VERTEX
8
0
10
152.876205575373
20
29.6300935177025
30
0
0
VERTEX
8
0
10
153.552648962875
20
29.6201773955542
30
0
0
VERTEX
8
0
10
154.229092350376
20
29.5971460942743
30
0
0
SEQEND
8
0
0
POLYLINE
8
0
62
6
70
0
10
0
20
0
30
0
0
VERTEX
8
0
10
15.558197912538
20
2.19784868716653
30
0
0
VERTEX
8
0
10
16.2346413000396
20
2.33184898552259
30
0
0
VERTEX
8
0
10
16.9110846875413
20
2.46584928387866
30
0
0
VERTEX
8
0
10
17.5875280750429
20
2.59984958223473
30
0
0
VERTEX
8
0
10
18.2639714625446
20
2.74042468602478
30
0
0
VERTEX
8
0
10
18.9404148500462
20
2.88280000302808
30
0
0
VERTEX
8
0
10
19.6168582375479
20
3.02517532003138
30
0
0
VERTEX
8
0
10
20.2933016250495
20
3.16755063703468
30
0
0
VERTEX
8
0
10
20.9697450125512
20
3.30746029303906
30
0
0
VERTEX
8
0
10
21.6461884000528
20
3.44704393715997
30
0
0
VERTEX
8
0
10
22.3226317875545
20
3.58662758128087
30
0
0
VERTEX
8
0
10
22.9990751750562
20
3.72621122540178
30
0
0
VERTEX
8
0
10
23.6755185625578
20
3.86853458970922
30
0
0
VERTEX
8
0
10
24.3519619500595
20
4.01090990671253
30
0
0
VERTEX
8
0
10
25.0284053375611
20
4.15328522371583
30
0
0
VERTEX
8
0
10
25.7048487250628
20
4.29566054071914
30
0
0
VERTEX
8
0
10
26.3812921125644
20
4.43803585772246
30
0
0
VERTEX
8
0
10
27.0577355000661
20
4.58041117472577
30
0
0
VERTEX
8
0
10
27.7341788875677
20
4.72278649172908
30
0
0
VERTEX
8
0
10
28.4106222750694
20
4.8651618087324
30
0
0
VERTEX
8
0
10
29.087065662571
20
5.0075371257357
30
0
0
VERTEX
8
0
10
29.7635090500727
20
5.14991244273901
30
0
0
VERTEX
8
0
10
30.4399524375743
20
5.29228775974232
30
0
0
VERTEX
8
0
10
31.116395825076
20
5.43466307674563
30
0
0
VERTEX
8
0
10
31.7928392125776
20
5.5699145982502
30
0
0
VERTEX
8
0
10
32.4692826000793
20
5.70670656948867
30
0
0
VERTEX
8
0
10
33.1457259875809
20
5.84349854072715
30
0
0
VERTEX
8
0
10
33.8221693750826
20
5.98029051196562
30
0
0
VERTEX
8
0
10
34.4986127625842
20
6.12859035401504
30
0
0
VERTEX
8
0
10
35.1750561500859
20
6.27375734390077
30
0
0
VERTEX
8
0
10
35.8514995375875
20
6.4189243337865
30
0
0
VERTEX
8
0
10
36.5279429250892
20
6.56409132367224
30
0
0
VERTEX
8
0
10
37.2043863125908
20
6.70103828130879
30
0
0
VERTEX
8
0
10
37.8808297000925
20
6.84062192542969
30
0
0
VERTEX
8
0
10
38.5572730875941
20
6.98020556955058
30
0
0
VERTEX
8
0
10
39.2337164750958
20
7.12138161610125
30
0
0
VERTEX
8
0
10
39.9101598625974
20
7.26375693310456
30
0
0
VERTEX
8
0
10
40.5866032500991
20
7.40613225010787
30
0
0
VERTEX
8
0
10
41.2630466376008
20
7.54850756711117
30
0
0
VERTEX
8
0
10
41.9394900251024
20
7.70021519220141
30
0
0
VERTEX
8
0
10
42.6159334126041
20
7.85654887361681
30
0
0
VERTEX
8
0
10
43.2923768001057
20
8.01288255503221
30
0
0
VERTEX
8
0
10
43.9688201876074
20
8.16921623644762
30
0
0
VERTEX
8
0
10
44.645263575109
20
8.34053356349796
30
0
0
VERTEX
8
0
10
45.3217069626107
20
8.51640895509029
30
0
0
VERTEX
8
0
10
45.9981503501123
20
8.69228434668261
30
0
0
VERTEX
8
0
10
46.674593737614
20
8.86815973827494
30
0
0
VERTEX
8
0
10
47.3510371251156
20
9.03679138988947
30
0
0
VERTEX
8
0
10
48.0274805126173
20
9.20429176283455
30
0
0
VERTEX
8
0
10
48.7039239001189
20
9.37179213577962
30
0
0
VERTEX
8
0
10
49.3803672876206
20
9.5392925087247
30
0
0
VERTEX
8
0
10
50.0568106751222
20
9.71485879921039
30
0
0
VERTEX
8
0
10
50.7332540626239
20
9.89073419080271
30
0
0
VERTEX
8
0
10
51.4096974501255
20
10.066609582395
30
0
0
VERTEX
8
0
10
52.0861408376272
20
10.2424849739874
30
0
0
VERTEX
8
0
10
52.7625842251288
20
10.4124349688441
30
0
0
VERTEX
8
0
10
53.4390276126305
20
10.5827270146715
30
0
0
VERTEX
8
0
10
54.1154710001321
20
10.753019060499
30
0
0
VERTEX
8
0
10
54.7919143876338
20
10.9233111063265
30
0
0
VERTEX
8
0
10
55.4683577751354
20
11.1033134248203
30
0
0
VERTEX
8
0
10
56.1448011626371
20
11.281980489295
30
0
0
VERTEX
8
0
10
56.8212445501388
20
11.4606475537698
30
0
0
VERTEX
8
0
10
57.4976879376404
20
11.6393146182445
30
0
0
VERTEX
8
0
10
58.174131325142
20
11.8039384157471
30
0
0
VERTEX
8
0
10
58.8505747126437
20
11.9714387886922
30
0
0
VERTEX
8
0
10
59.5270181001454
20
12.1389391616373
30
0
0
VERTEX
8
0
10
60.203461487647
20
12.3064395345824
30
0
0
VERTEX
8
0
10
60.8799048751487
20
12.4815096593887
30
0
0
VERTEX
8
0
10
61.5563482626503
20
12.6545933780986
30
0
0
VERTEX
8
0
10
62.232791650152
20
12.8276770968085
30
0
0
VERTEX
8
0
10
62.9092350376536
20
13.0007608155184
30
0
0
VERTEX
8
0
10
63.5856784251553
20
13.1738445342283
30
0
0
VERTEX
8
0
10
64.2621218126569
20
13.3469282529383
30
0
0
VERTEX
8
0
10
64.9385652001586
20
13.5200119716482
30
0
0
VERTEX
8
0
10
65.6150085876602
20
13.6930956903581
30
0
0
VERTEX
8
0
10
66.2914519751619
20
13.866179409068
30
0
0
VERTEX
8
0
10
66.9678953626635
20
14.0392631277779
30
0
0
VERTEX
8
0
10
67.6443387501652
20
14.2123468464878
30
0
0
VERTEX
8
0
10
68.3207821376668
20
14.3890613264198
30
0
0
VERTEX
8
0
10
68.9972255251685
20
14.5677283908945
30
0
0
VERTEX
8
0
10
69.6736689126701
20
14.7463954553693
30
0
0
VERTEX
8
0
10
70.3501123001718
20
14.925062519844
30
0
0
VERTEX
8
0
10
71.0265556876734
20
15.1267134221039
30
0
0
VERTEX
8
0
10
71.7029990751751
20
15.3360888882853
30
0
0
VERTEX
8
0
10
72.3794424626767
20
15.5454643544666
30
0
0
VERTEX
8
0
10
73.0558858501784
20
15.7548398206479
30
0
0
VERTEX
8
0
10
73.73232923768
20
15.9807597797331
30
0
0
VERTEX
8
0
10
74.4087726251817
20
16.2096769560914
30
0
0
VERTEX
8
0
10
75.0852160126833
20
16.4385941324496
30
0
0
VERTEX
8
0
10
75.761659400185
20
16.6675113088079
30
0
0
VERTEX
8
0
10
76.4381027876867
20
16.8937909269923
30
0
0
VERTEX
8
0
10
77.1145461751883
20
17.1199164304681
30
0
0
VERTEX
8
0
10
77.79098956269
20
17.346041933944
30
0
0
VERTEX
8
0
10
78.4674329501916
20
17.5721674374198
30
0
0
VERTEX
8
0
10
79.1438763376933
20
17.7953813235342
30
0
0
VERTEX
8
0
10
79.8203197251949
20
18.0187151541276
30
0
0
VERTEX
8
0
10
80.4967631126966
20
18.2420489847211
30
0
0
VERTEX
8
0
10
81.1732065001982
20
18.4653828153145
30
0
0
VERTEX
8
0
10
81.8496498876999
20
18.691902322457
30
0
0
VERTEX
8
0
10
82.5260932752015
20
18.9180278259329
30
0
0
VERTEX
8
0
10
83.2025366627032
20
19.1441533294087
30
0
0
VERTEX
8
0
10
83.8789800502048
20
19.3702788328845
30
0
0
VERTEX
8
0
10
84.5554234377065
20
19.5964043363604
30
0
0
VERTEX
8
0
10
85.2318668252081
20
19.8225298398362
30
0
0
VERTEX
8
0
10
85.9083102127098
20
20.0486553433121
30
0
0
VERTEX
8
0
10
86.5847536002114
20
20.2747808467879
30
0
0
VERTEX
8
0
10
87.2611969877131
20
20.4971725553395
30
0
0
VERTEX
8
0
10
87.9376403752147
20
20.7205063859329
30
0
0
VERTEX
8
0
10
88.6140837627164
20
20.9438402165264
30
0
0
VERTEX
8
0
10
89.290527150218
20
21.1671740471198
30
0
0
VERTEX
8
0
10
89.9669705377197
20
21.3945157318251
30
0
0
VERTEX
8
0
10
90.6434139252213
20
21.620641235301
30
0
0
VERTEX
8
0
10
91.319857312723
20
21.8467667387768
30
0
0
VERTEX
8
0
10
91.9963007002247
20
22.0669312805843
30
0
0
VERTEX
8
0
10
92.6727440877263
20
22.2818900925305
30
0
0
VERTEX
8
0
10
93.349187475228
20
22.4968489044767
30
0
0
VERTEX
8
0
10
94.0256308627296
20
22.7118077164228
30
0
0
VERTEX
8
0
10
94.7020742502312
20
22.9338237267878
30
0
0
VERTEX
8
0
10
95.3785176377329
20
23.1599492302637
30
0
0
VERTEX
8
0
10
96.0549610252346
20
23.3860747337395
30
0
0
VERTEX
8
0
10
96.7314044127362
20
23.6122002372154
30
0
0
VERTEX
8
0
10
97.4078478002379
20
23.8362873818989
30
0
0
VERTEX
8
0
10
98.0842911877395
20
24.0596212124923
30
0
0
VERTEX
8
0
10
98.7607345752412
20
24.2829550430858
30
0
0
VERTEX
8
0
10
99.4371779627428
20
24.5062888736792
30
0
0
VERTEX
8
0
10
100.113621350244
20
24.7273102862927
30
0
0
VERTEX
8
0
10
100.790064737746
20
24.9478524440037
30
0
0
VERTEX
8
0
10
101.466508125248
20
25.1683946017147
30
0
0
VERTEX
8
0
10
102.142951512749
20
25.3889367594257
30
0
0
VERTEX
8
0
10
102.819394900251
20
25.6043059628017
30
0
0
VERTEX
8
0
10
103.495838287753
20
25.8192647747479
30
0
0
VERTEX
8
0
10
104.172281675254
20
26.0342235866941
30
0
0
VERTEX
8
0
10
104.848725062756
20
26.2491823986402
30
0
0
VERTEX
8
0
10
105.525168450258
20
26.4698622832967
30
0
0
VERTEX
8
0
10
106.201611837759
20
26.6904044410077
30
0
0
VERTEX
8
0
10
106.878055225261
20
26.9109465987187
30
0
0
VERTEX
8
0
10
107.554498612763
20
27.1314887564297
30
0
0
VERTEX
8
0
10
108.230942000264
20
27.3457617230552
30
0
0
VERTEX
8
0
10
108.907385387766
20
27.5607205350014
30
0
0
VERTEX
8
0
10
109.583828775268
20
27.7756793469476
30
0
0
VERTEX
8
0
10
110.260272162769
20
27.9906381588938
30
0
0
VERTEX
8
0
10
110.936715550271
20
28.20559697084
30
0
0
VERTEX
8
0
10
111.613158937773
20
28.4205557827861
30
0
0
VERTEX
8
0
10
112.289602325274
20
28.6355145947323
30
0
0
VERTEX
8
0
10
112.966045712776
20
28.8504734066785
30
0
0
VERTEX
8
0
10
113.642489100278
20
29.0654322186247
30
0
0
VERTEX
8
0
10
114.318932487779
20
29.2803910305708
30
0
0
VERTEX
8
0
10
114.995375875281
20
29.495349842517
30
0
0
VERTEX
8
0
10
115.671819262782
20
29.7103086544632
30
0
0
VERTEX
8
0
10
116.348262650284
20
29.8540455505093
30
0
0
VERTEX
8
0
10
117.024706037786
20
30.0187542505719
30
0
0
VERTEX
8
0
10
117.701149425287
20
30.1834629506346
30
0
0
VERTEX
8
0
10
118.377592812789
20
30.4287645776993
30
0
0
VERTEX
8
0
10
119.054036200291
20
30.7498069591774
30
0
0
VERTEX
8
0
10
119.730479587792
20
31.0708493406554
30
0
0
VERTEX
8
0
10
120.406922975294
20
31.3918917221335
30
0
0
VERTEX
8
0
10
121.083366362796
20
31.6238467364969
30
0
0
VERTEX
8
0
10
121.759809750297
20
31.7997221280892
30
0
0
VERTEX
8
0
10
122.436253137799
20
31.9755975196815
30
0
0
VERTEX
8
0
10
123.112696525301
20
32.1514729112738
30
0
0
VERTEX
8
0
10
123.789139912802
20
32.3511956362978
30
0
0
VERTEX
8
0
10
124.465583300304
20
32.5605711024791
30
0
0
VERTEX
8
0
10
125.142026687806
20
32.7699465686604
30
0
0
VERTEX
8
0
10
125.818470075307
20
32.9793220348418
30
0
0
VERTEX
8
0
10
126.494913462809
20
33.1660841312874
30
0
0
VERTEX
8
0
10
127.171356850311
20
33.3475428686445
30
0
0
VERTEX
8
0
10
127.847800237812
20
33.5290016060017
30
0
0
VERTEX
8
0
10
128.524243625314
20
33.7104603433589
30
0
0
VERTEX
8
0
10
129.200687012816
20
33.8412111574924
30
0
0
VERTEX
8
0
10
129.877130400317
20
33.9668364372012
30
0
0
VERTEX
8
0
10
130.553573787819
20
34.09246171691
30
0
0
VERTEX
8
0
10
131.23001717532
20
34.2180869966188
30
0
0
VERTEX
8
0
10
131.906460562822
20
34.3409028209788
30
0
0
VERTEX
8
0
10
132.582903950324
20
34.4637364278052
30
0
0
VERTEX
8
0
10
133.259347337825
20
34.5865700346316
30
0
0
VERTEX
8
0
10
133.935790725327
20
34.709403641458
30
0
0
VERTEX
8
0
10
134.612234112829
20
34.8322372482844
30
0
0
VERTEX
8
0
10
135.28867750033
20
34.9550708551107
30
0
0
VERTEX
8
0
10
135.965120887832
20
35.0779044619371
30
0
0
VERTEX
8
0
10
136.641564275334
20
35.2007380687635
30
0
0
VERTEX
8
0
10
137.318007662835
20
35.3235716755899
30
0
0
VERTEX
8
0
10
137.994451050337
20
35.4464052824163
30
0
0
VERTEX
8
0
10
138.670894437839
20
35.5692388892427
30
0
0
VERTEX
8
0
10
139.34733782534
20
35.692072496069
30
0
0
VERTEX
8
0
10
140.023781212842
20
35.8149061028954
30
0
0
VERTEX
8
0
10
140.700224600343
20
35.9377397097218
30
0
0
VERTEX
8
0
10
141.376667987845
20
36.0605733165482
30
0
0
VERTEX
8
0
10
142.053111375347
20
36.1834069233746
30
0
0
VERTEX
8
0
10
142.729554762848
20
36.306240530201
30
0
0
VERTEX
8
0
10
143.40599815035
20
36.4290741370273
30
0
0
VERTEX
8
0
10
144.082441537852
20
36.5519077438537
30
0
0
VERTEX
8
0
10
144.758884925353
20
36.6747413506801
30
0
0
VERTEX
8
0
10
145.435328312855
20
36.7975749575065
30
0
0
VERTEX
8
0
10
146.111771700357
20
36.9204085643329
30
0
0
VERTEX
8
0
10
146.788215087858
20
37.0432421711593
30
0
0
VERTEX
8
0
10
147.46465847536
20
37.1660757779857
30
0
0
VERTEX
8
0
10
148.141101862861
20
37.288909384812
30
0
0
VERTEX
8
0
10
148.817545250363
20
37.4117429916384
30
0
0
VERTEX
8
0
10
149.493988637865
20
37.5345765984648
30
0
0
VERTEX
8
0
10
150.170432025366
20
37.6554740085116
30
0
0
VERTEX
8
0
10
150.846875412868
20
37.7755159424555
30
0
0
VERTEX
8
0
10
151.52331880037
20
37.8955578763995
30
0
0
VERTEX
8
0
10
152.199762187871
20
38.0155998103435
30
0
0
VERTEX
8
0
10
152.876205575373
20
38.1329894371267
30
0
0
VERTEX
8
0
10
153.552648962875
20
38.2496813636118
30
0
0
VERTEX
8
0
10
154.229092350376
20
38.3663732900969
30
0
0
SEQEND
8
0
0
POLYLINE
8
0
62
6
70
0
10
0
20
0
30
0
0
VERTEX
8
0
10
15.558197912538
20
18.4998189101187
30
0
0
VERTEX
8
0
10
16.2346413000396
20
19.0441951221902
30
0
0
VERTEX
8
0
10
16.9110846875413
20
19.5885713342616
30
0
0
VERTEX
8
0
10
17.5875280750429
20
20.1329475463331
30
0
0
VERTEX
8
0
10
18.2639714625446
20
20.6900511228652
30
0
0
VERTEX
8
0
10
18.9404148500462
20
21.2455940264664
30
0
0
VERTEX
8
0
10
19.6168582375479
20
21.8011369300676
30
0
0
VERTEX
8
0
10
20.2933016250495
20
22.3566798336687
30
0
0
VERTEX
8
0
10
20.9697450125512
20
22.9087668369671
30
0
0
VERTEX
8
0
10
21.6461884000528
20
23.4615180676858
30
0
0
VERTEX
8
0
10
22.3226317875545
20
24.0142692984046
30
0
0
VERTEX
8
0
10
22.9990751750562
20
24.5670205291233
30
0
0
VERTEX
8
0
10
23.6755185625578
20
25.1235017193324
30
0
0
VERTEX
8
0
10
24.3519619500595
20
25.6790446229336
30
0
0
VERTEX
8
0
10
25.0284053375611
20
26.2345875265348
30
0
0
VERTEX
8
0
10
25.7048487250628
20
26.7901304301359
30
0
0
VERTEX
8
0
10
26.3812921125644
20
27.3456733337371
30
0
0
VERTEX
8
0
10
27.0577355000661
20
27.9012162373382
30
0
0
VERTEX
8
0
10
27.7341788875677
20
28.4567591409394
30
0
0
VERTEX
8
0
10
28.4106222750694
20
29.0108156395574
30
0
0
VERTEX
8
0
10
29.087065662571
20
29.5635668702761
30
0
0
VERTEX
8
0
10
29.7635090500727
20
30.1163181009949
30
0
0
VERTEX
8
0
10
30.4399524375743
20
30.6690693317136
30
0
0
VERTEX
8
0
10
31.116395825076
20
31.2235810266031
30
0
0
VERTEX
8
0
10
31.7928392125776
20
31.7791239302043
30
0
0
VERTEX
8
0
10
32.4692826000793
20
32.3346668338054
30
0
0
VERTEX
8
0
10
33.1457259875809
20
32.8902097374066
30
0
0
VERTEX
8
0
10
33.8221693750826
20
33.4437181176494
30
0
0
VERTEX
8
0
10
34.4986127625842
20
33.9964693483681
30
0
0
VERTEX
8
0
10
35.1750561500859
20
34.5492205790868
30
0
0
VERTEX
8
0
10
35.8514995375875
20
35.1019718098056
30
0
0
VERTEX
8
0
10
36.5279429250892
20
35.6570316230703
30
0
0
VERTEX
8
0
10
37.2043863125908
20
36.2125745266715
30
0
0
VERTEX
8
0
10
37.8808297000925
20
36.7681174302726
30
0
0
VERTEX
8
0
10
38.5572730875941
20
37.3236603338738
30
0
0
VERTEX
8
0
10
39.2337164750958
20
37.8766205957414
30
0
0
VERTEX
8
0
10
39.9101598625974
20
38.4293718264601
30
0
0
VERTEX
8
0
10
40.5866032500991
20
38.9821230571788
30
0
0
VERTEX
8
0
10
41.2630466376008
20
39.5348742878976
30
0
0
VERTEX
8
0
10
41.9394900251024
20
40.0219213974285
30
0
0
VERTEX
8
0
10
42.6159334126041
20
40.5104641518517
30
0
0
VERTEX
8
0
10
43.2923768001057
20
40.9990069062748
30
0
0
VERTEX
8
0
10
43.9688201876074
20
41.4875496606979
30
0
0
VERTEX
8
0
10
44.645263575109
20
41.8696465714213
30
0
0
VERTEX
8
0
10
45.3217069626107
20
42.2632724478422
30
0
0
VERTEX
8
0
10
45.9981503501123
20
42.6568983242632
30
0
0
VERTEX
8
0
10
46.674593737614
20
43.0505242006841
30
0
0
VERTEX
8
0
10
47.3510371251156
20
43.4509597156979
30
0
0
VERTEX
8
0
10
48.0274805126173
20
43.8501689378836
30
0
0
VERTEX
8
0
10
48.7039239001189
20
44.2493781600694
30
0
0
VERTEX
8
0
10
49.3803672876206
20
44.6485873822551
30
0
0
VERTEX
8
0
10
50.0568106751222
20
45.0367599689888
30
0
0
VERTEX
8
0
10
50.7332540626239
20
45.4275941725273
30
0
0
VERTEX
8
0
10
51.4096974501255
20
45.8184283760658
30
0
0
VERTEX
8
0
10
52.0861408376272
20
46.2092625796043
30
0
0
VERTEX
8
0
10
52.7625842251288
20
46.6080026584861
30
0
0
VERTEX
8
0
10
53.4390276126305
20
47.0044202077894
30
0
0
VERTEX
8
0
10
54.1154710001321
20
47.4008377570928
30
0
0
VERTEX
8
0
10
54.7919143876338
20
47.7972553063961
30
0
0
VERTEX
8
0
10
55.4683577751354
20
48.1936728556994
30
0
0
VERTEX
8
0
10
56.1448011626371
20
48.5900904050028
30
0
0
VERTEX
8
0
10
56.8212445501388
20
48.9865079543061
30
0
0
VERTEX
8
0
10
57.4976879376404
20
49.3795067372806
30
0
0
VERTEX
8
0
10
58.174131325142
20
49.7703409408191
30
0
0
VERTEX
8
0
10
58.8505747126437
20
50.1611751443576
30
0
0
VERTEX
8
0
10
59.5270181001454
20
50.5520093478961
30
0
0
VERTEX
8
0
10
60.203461487647
20
50.9468104361387
30
0
0
VERTEX
8
0
10
60.8799048751487
20
51.343227985442
30
0
0
VERTEX
8
0
10
61.5563482626503
20
51.7396455347454
30
0
0
VERTEX
8
0
10
62.232791650152
20
52.1360630840487
30
0
0
VERTEX
8
0
10
62.9092350376536
20
52.5302231318124
30
0
0
VERTEX
8
0
10
63.5856784251553
20
52.9238490082333
30
0
0
VERTEX
8
0
10
64.2621218126569
20
53.3174748846542
30
0
0
VERTEX
8
0
10
64.9385652001586
20
53.7111007610752
30
0
0
VERTEX
8
0
10
65.6150085876602
20
54.1072581982233
30
0
0
VERTEX
8
0
10
66.2914519751619
20
54.5036757475267
30
0
0
VERTEX
8
0
10
66.9678953626635
20
54.90009329683
30
0
0
VERTEX
8
0
10
67.6443387501652
20
55.2965108461334
30
0
0
VERTEX
8
0
10
68.3207821376668
20
55.6901227755218
30
0
0
VERTEX
8
0
10
68.9972255251685
20
56.0837486519427
30
0
0
VERTEX
8
0
10
69.6736689126701
20
56.4773745283637
30
0
0
VERTEX
8
0
10
70.3501123001718
20
56.8710004047846
30
0
0
VERTEX
8
0
10
71.0265556876734
20
57.2061123782585
30
0
0
VERTEX
8
0
10
71.7029990751751
20
57.5466964699135
30
0
0
VERTEX
8
0
10
72.3794424626767
20
57.8872805615685
30
0
0
VERTEX
8
0
10
73.0558858501784
20
58.2278646532234
30
0
0
VERTEX
8
0
10
73.73232923768
20
58.5349113619776
30
0
0
VERTEX
8
0
10
74.4087726251817
20
58.8475787248084
30
0
0
VERTEX
8
0
10
75.0852160126833
20
59.1602460876392
30
0
0
VERTEX
8
0
10
75.761659400185
20
59.47291345047
30
0
0
VERTEX
8
0
10
76.4381027876867
20
59.7892086107785
30
0
0
VERTEX
8
0
10
77.1145461751883
20
60.1046676464917
30
0
0
VERTEX
8
0
10
77.79098956269
20
60.4201266822049
30
0
0
VERTEX
8
0
10
78.4674329501916
20
60.7355857179182
30
0
0
VERTEX
8
0
10
79.1438763376933
20
61.0549466102967
30
0
0
VERTEX
8
0
10
79.8203197251949
20
61.3731973188923
30
0
0
VERTEX
8
0
10
80.4967631126966
20
61.691448027488
30
0
0
VERTEX
8
0
10
81.1732065001982
20
62.0096987360836
30
0
0
VERTEX
8
0
10
81.8496498876999
20
62.3279494446792
30
0
0
VERTEX
8
0
10
82.5260932752015
20
62.6462001532749
30
0
0
VERTEX
8
0
10
83.2025366627032
20
62.9644508618705
30
0
0
VERTEX
8
0
10
83.8789800502048
20
63.2827015704662
30
0
0
VERTEX
8
0
10
84.5554234377065
20
63.6009522790618
30
0
0
VERTEX
8
0
10
85.2318668252081
20
63.9192029876574
30
0
0
VERTEX
8
0
10
85.9083102127098
20
64.2374536962531
30
0
0
VERTEX
8
0
10
86.5847536002114
20
64.553772043503
30
0
0
VERTEX
8
0
10
87.2611969877131
20
64.8692310792162
30
0
0
VERTEX
8
0
10
87.9376403752147
20
65.1846901149295
30
0
0
VERTEX
8
0
10
88.6140837627164
20
65.5001491506427
30
0
0
VERTEX
8
0
10
89.290527150218
20
65.8178146068892
30
0
0
VERTEX
8
0
10
89.9669705377197
20
66.1360653154848
30
0
0
VERTEX
8
0
10
90.6434139252213
20
66.4543160240805
30
0
0
VERTEX
8
0
10
91.319857312723
20
66.7725667326761
30
0
0
VERTEX
8
0
10
91.9963007002247
20
67.0883369615508
30
0
0
VERTEX
8
0
10
92.6727440877263
20
67.4037959972641
30
0
0
VERTEX
8
0
10
93.349187475228
20
67.7192550329773
30
0
0
VERTEX
8
0
10
94.0256308627296
20
68.0347140686905
30
0
0
VERTEX
8
0
10
94.7020742502312
20
68.3501731044037
30
0
0
VERTEX
8
0
10
95.3785176377329
20
68.6656321401169
30
0
0
VERTEX
8
0
10
96.0549610252346
20
68.9810911758302
30
0
0
VERTEX
8
0
10
96.7314044127362
20
69.2965502115434
30
0
0
VERTEX
8
0
10
97.4078478002379
20
69.6059520510643
30
0
0
VERTEX
8
0
10
98.0842911877395
20
69.9158277410127
30
0
0
VERTEX
8
0
10
98.7607345752412
20
70.2257034309611
30
0
0
VERTEX
8
0
10
99.4371779627428
20
70.5355791209095
30
0
0
VERTEX
8
0
10
100.113621350244
20
70.805822923453
30
0
0
VERTEX
8
0
10
100.790064737746
20
71.0821985388124
30
0
0
VERTEX
8
0
10
101.466508125248
20
71.3585741541717
30
0
0
VERTEX
8
0
10
102.142951512749
20
71.6349497695311
30
0
0
VERTEX
8
0
10
102.819394900251
20
71.8827116531197
30
0
0
VERTEX
8
0
10
103.495838287753
20
72.1367538854197
30
0
0
VERTEX
8
0
10
104.172281675254
20
72.3907961177197
30
0
0
VERTEX
8
0
10
104.848725062756
20
72.6448383500198
30
0
0
VERTEX
8
0
10
105.525168450258
20
72.9181344606146
30
0
0
VERTEX
8
0
10
106.201611837759
20
73.1861350573267
30
0
0
VERTEX
8
0
10
106.878055225261
20
73.4541356540388
30
0
0
VERTEX
8
0
10
107.554498612763
20
73.7221362507509
30
0
0
VERTEX
8
0
10
108.230942000264
20
73.990136847463
30
0
0
VERTEX
8
0
10
108.907385387766
20
74.2581374441752
30
0
0
VERTEX
8
0
10
109.583828775268
20
74.5261380408873
30
0
0
VERTEX
8
0
10
110.260272162769
20
74.7893169741441
30
0
0
VERTEX
8
0
10
110.936715550271
20
75.048942552209
30
0
0
VERTEX
8
0
10
111.613158937773
20
75.3085681302739
30
0
0
VERTEX
8
0
10
112.289602325274
20
75.5681937083387
30
0
0
VERTEX
8
0
10
112.966045712776
20
75.835344407761
30
0
0
VERTEX
8
0
10
113.642489100278
20
76.1061366773556
30
0
0
VERTEX
8
0
10
114.318932487779
20
76.3769289469501
30
0
0
VERTEX
8
0
10
114.995375875281
20
76.6477212165446
30
0
0
VERTEX
8
0
10
115.671819262782
20
76.9077367885043
30
0
0
VERTEX
8
0
10
116.348262650284
20
77.1645706936868
30
0
0
VERTEX
8
0
10
117.024706037786
20
77.4214045988692
30
0
0
VERTEX
8
0
10
117.701149425287
20
77.6782385040517
30
0
0
VERTEX
8
0
10
118.377592812789
20
77.947219402807
30
0
0
VERTEX
8
0
10
119.054036200291
20
78.2180116724015
30
0
0
VERTEX
8
0
10
119.730479587792
20
78.4888039419961
30
0
0
VERTEX
8
0
10
120.406922975294
20
78.7595962115906
30
0
0
VERTEX
8
0
10
121.083366362796
20
79.0249815653808
30
0
0
VERTEX
8
0
10
121.759809750297
20
79.2901904892104
30
0
0
VERTEX
8
0
10
122.436253137799
20
79.5553994130401
30
0
0
VERTEX
8
0
10
123.112696525301
20
79.8206083368698
30
0
0
VERTEX
8
0
10
123.789139912802
20
80.0768847094302
30
0
0
VERTEX
8
0
10
124.465583300304
20
80.3337186146126
30
0
0
VERTEX
8
0
10
125.142026687806
20
80.5905525197951
30
0
0
VERTEX
8
0
10
125.818470075307
20
80.8473864249775
30
0
0
VERTEX
8
0
10
126.494913462809
20
81.0912140250504
30
0
0
VERTEX
8
0
10
127.171356850311
20
81.3368812387031
30
0
0
VERTEX
8
0
10
127.847800237812
20
81.5825484523559
30
0
0
VERTEX
8
0
10
128.524243625314
20
81.8282156660087
30
0
0
VERTEX
8
0
10
129.200687012816
20
81.9963188994313
30
0
0
VERTEX
8
0
10
129.877130400317
20
82.1805693096709
30
0
0
VERTEX
8
0
10
130.553573787819
20
82.3648197199105
30
0
0
VERTEX
8
0
10
131.23001717532
20
82.5490701301501
30
0
0
VERTEX
8
0
10
131.906460562822
20
82.7219214564318
30
0
0
VERTEX
8
0
10
132.582903950324
20
82.8977968480241
30
0
0
VERTEX
8
0
10
133.259347337825
20
83.0736722396165
30
0
0
VERTEX
8
0
10
133.935790725327
20
83.2495476312088
30
0
0
VERTEX
8
0
10
134.612234112829
20
83.4254230228011
30
0
0
VERTEX
8
0
10
135.28867750033
20
83.6012984143934
30
0
0
VERTEX
8
0
10
135.965120887832
20
83.7771738059857
30
0
0
VERTEX
8
0
10
136.641564275334
20
83.9546053377235
30
0
0
VERTEX
8
0
10
137.318007662835
20
84.1332724021982
30
0
0
VERTEX
8
0
10
137.994451050337
20
84.311939466673
30
0
0
VERTEX
8
0
10
138.670894437839
20
84.4906065311477
30
0
0
VERTEX
8
0
10
139.34733782534
20
84.6674433962894
30
0
0
VERTEX
8
0
10
140.023781212842
20
84.8433187878818
30
0
0
VERTEX
8
0
10
140.700224600343
20
85.0191941794741
30
0
0
VERTEX
8
0
10
141.376667987845
20
85.1950695710664
30
0
0
VERTEX
8
0
10
142.053111375347
20
85.3709449626587
30
0
0
VERTEX
8
0
10
142.729554762848
20
85.5468203542511
30
0
0
VERTEX
8
0
10
143.40599815035
20
85.7226957458434
30
0
0
VERTEX
8
0
10
144.082441537852
20
85.8985711374357
30
0
0
VERTEX
8
0
10
144.758884925353
20
86.0768248467362
30
0
0
VERTEX
8
0
10
145.435328312855
20
86.255491911211
30
0
0
VERTEX
8
0
10
146.111771700357
20
86.4341589756857
30
0
0
VERTEX
8
0
10
146.788215087858
20
86.6128260401605
30
0
0
VERTEX
8
0
10
147.46465847536
20
86.7914931046352
30
0
0
VERTEX
8
0
10
148.141101862861
20
86.9701601691099
30
0
0
VERTEX
8
0
10
148.817545250363
20
87.1488272335847
30
0
0
VERTEX
8
0
10
149.493988637865
20
87.3274942980594
30
0
0
VERTEX
8
0
10
150.170432025366
20
87.5061613625342
30
0
0
VERTEX
8
0
10
150.846875412868
20
87.6848284270089
30
0
0
VERTEX
8
0
10
151.52331880037
20
87.8634954914836
30
0
0
VERTEX
8
0
10
152.199762187871
20
88.0421625559584
30
0
0
VERTEX
8
0
10
152.876205575373
20
88.2176291251621
30
0
0
VERTEX
8
0
10
153.552648962875
20
88.3935045167544
30
0
0
VERTEX
8
0
10
154.229092350376
20
88.5693799083467
30
0
0
SEQEND
8
0
0
POLYLINE
8
0
62
1
70
0
10
0
20
0
30
0
0
VERTEX
8
0
10
15.558197912538
20
9.90347608664085
30
0
0
VERTEX
8
0
10
16.2346413000396
20
10.2273952773294
30
0
0
VERTEX
8
0
10
16.9110846875413
20
10.5516874095247
30
0
0
VERTEX
8
0
10
17.5875280750429
20
10.8763191240149
30
0
0
VERTEX
8
0
10
18.2639714625446
20
11.2028673984021
30
0
0
VERTEX
8
0
10
18.9404148500462
20
11.5263490142752
30
0
0
VERTEX
8
0
10
19.6168582375479
20
11.8513416559794
30
0
0
VERTEX
8
0
10
20.2933016250495
20
12.176652745639
30
0
0
VERTEX
8
0
10
20.9697450125512
20
12.503027732835
30
0
0
VERTEX
8
0
10
21.6461884000528
20
12.830829658599
30
0
0
VERTEX
8
0
10
22.3226317875545
20
13.1588544130913
30
0
0
VERTEX
8
0
10
22.9990751750562
20
13.4870857378042
30
0
0
VERTEX
8
0
10
23.6755185625578
20
13.8162757763581
30
0
0
VERTEX
8
0
10
24.3519619500595
20
14.1456779583021
30
0
0
VERTEX
8
0
10
25.0284053375611
20
14.475264427394
30
0
0
VERTEX
8
0
10
25.7048487250628
20
14.8050228759478
30
0
0
VERTEX
8
0
10
26.3812921125644
20
15.1349420627589
30
0
0
VERTEX
8
0
10
27.0577355000661
20
15.4650117006156
30
0
0
VERTEX
8
0
10
27.7341788875677
20
15.7952223576832
30
0
0
VERTEX
8
0
10
28.4106222750694
20
16.1255653708175
30
0
0
VERTEX
8
0
10
29.087065662571
20
16.4582214239957
30
0
0
VERTEX
8
0
10
29.7635090500727
20
16.7914611378343
30
0
0
VERTEX
8
0
10
30.4399524375743
20
17.1248068885103
30
0
0
VERTEX
8
0
10
31.116395825076
20
17.4582526020613
30
0
0
VERTEX
8
0
10
31.7928392125776
20
17.784676271583
30
0
0
VERTEX
8
0
10
32.4692826000793
20
18.1112355923831
30
0
0
VERTEX
8
0
10
33.1457259875809
20
18.4378653183839
30
0
0
VERTEX
8
0
10
33.8221693750826
20
18.764561773012
30
0
0
VERTEX
8
0
10
34.4986127625842
20
19.1004023176183
30
0
0
VERTEX
8
0
10
35.1750561500859
20
19.4352249251382
30
0
0
VERTEX
8
0
10
35.8514995375875
20
19.7701264957489
30
0
0
VERTEX
8
0
10
36.5279429250892
20
20.105103083458
30
0
0
VERTEX
8
0
10
37.2043863125908
20
20.4345070507281
30
0
0
VERTEX
8
0
10
37.8808297000925
20
20.7651351383204
30
0
0
VERTEX
8
0
10
38.5572730875941
20
21.0958140093282
30
0
0
VERTEX
8
0
10
39.2337164750958
20
21.4270705018595
30
0
0
VERTEX
8
0
10
39.9101598625974
20
21.7491808285955
30
0
0
VERTEX
8
0
10
40.5866032500991
20
22.0730555533932
30
0
0
VERTEX
8
0
10
41.2630466376008
20
22.3969882566763
30
0
0
VERTEX
8
0
10
41.9394900251024
20
22.7241370728026
30
0
0
VERTEX
8
0
10
42.6159334126041
20
22.9598653236121
30
0
0
VERTEX
8
0
10
43.2923768001057
20
23.2180787450549
30
0
0
VERTEX
8
0
10
43.9688201876074
20
23.4765128699284
30
0
0
VERTEX
8
0
10
44.645263575109
20
23.7404204286369
30
0
0
VERTEX
8
0
10
45.3217069626107
20
23.9141276344751
30
0
0
VERTEX
8
0
10
45.9981503501123
20
24.1152779311388
30
0
0
VERTEX
8
0
10
46.674593737614
20
24.3169366227058
30
0
0
VERTEX
8
0
10
47.3510371251156
20
24.5190683075253
30
0
0
VERTEX
8
0
10
48.0274805126173
20
24.7237343826015
30
0
0
VERTEX
8
0
10
48.7039239001189
20
24.9287913068486
30
0
0
VERTEX
8
0
10
49.3803672876206
20
25.1342295140717
30
0
0
VERTEX
8
0
10
50.0568106751222
20
25.3399932828152
30
0
0
VERTEX
8
0
10
50.7332540626239
20
25.5442924306429
30
0
0
VERTEX
8
0
10
51.4096974501255
20
25.7490221140491
30
0
0
VERTEX
8
0
10
52.0861408376272
20
25.954172144684
30
0
0
VERTEX
8
0
10
52.7625842251288
20
26.1573733527246
30
0
0
VERTEX
8
0
10
53.4390276126305
20
26.3610716548501
30
0
0
VERTEX
8
0
10
54.1154710001321
20
26.565123737035
30
0
0
VERTEX
8
0
10
54.7919143876338
20
26.7695215091592
30
0
0
VERTEX
8
0
10
55.4683577751354
20
26.9802995209681
30
0
0
VERTEX
8
0
10
56.1448011626371
20
27.1914069431822
30
0
0
VERTEX
8
0
10
56.8212445501388
20
27.4028822576308
30
0
0
VERTEX
8
0
10
57.4976879376404
20
27.6147170122866
30
0
0
VERTEX
8
0
10
58.174131325142
20
27.8186593427664
30
0
0
VERTEX
8
0
10
58.8505747126437
20
28.0238522109656
30
0
0
VERTEX
8
0
10
59.5270181001454
20
28.2293229486088
30
0
0
VERTEX
8
0
10
60.203461487647
20
28.4350655320734
30
0
0
VERTEX
8
0
10
60.8799048751487
20
28.6494025932545
30
0
0
VERTEX
8
0
10
61.5563482626503
20
28.8631504399921
30
0
0
VERTEX
8
0
10
62.232791650152
20
29.0771680866103
30
0
0
VERTEX
8
0
10
62.9092350376536
20
29.2914496192404
30
0
0
VERTEX
8
0
10
63.5856784251553
20
29.50049771814
30
0
0
VERTEX
8
0
10
64.2621218126569
20
29.7103095751462
30
0
0
VERTEX
8
0
10
64.9385652001586
20
29.920383085168
30
0
0
VERTEX
8
0
10
65.6150085876602
20
30.1307127754145
30
0
0
VERTEX
8
0
10
66.2914519751619
20
30.344266614166
30
0
0
VERTEX
8
0
10
66.9678953626635
20
30.5575680605976
30
0
0
VERTEX
8
0
10
67.6443387501652
20
30.7711030429409
30
0
0
VERTEX
8
0
10
68.3207821376668
20
30.9865525634044
30
0
0
VERTEX
8
0
10
68.9972255251685
20
31.1871640315717
30
0
0
VERTEX
8
0
10
69.6736689126701
20
31.3917131708451
30
0
0
VERTEX
8
0
10
70.3501123001718
20
31.5965406207025
30
0
0
VERTEX
8
0
10
71.0265556876734
20
31.8125632748397
30
0
0
VERTEX
8
0
10
71.7029990751751
20
31.9541417250957
30
0
0
VERTEX
8
0
10
72.3794424626767
20
32.1186519913876
30
0
0
VERTEX
8
0
10
73.0558858501784
20
32.2838450467007
30
0
0
VERTEX
8
0
10
73.73232923768
20
32.4578530184507
30
0
0
VERTEX
8
0
10
74.4087726251817
20
32.6196890753469
30
0
0
VERTEX
8
0
10
75.0852160126833
20
32.7871727590688
30
0
0
VERTEX
8
0
10
75.761659400185
20
32.955509856297
30
0
0
VERTEX
8
0
10
76.4381027876867
20
33.1205081850021
30
0
0
VERTEX
8
0
10
77.1145461751883
20
33.2842863377764
30
0
0
VERTEX
8
0
10
77.79098956269
20
33.4488844632227
30
0
0
VERTEX
8
0
10
78.4674329501916
20
33.6142905159335
30
0
0
VERTEX
8
0
10
79.1438763376933
20
33.7822249612351
30
0
0
VERTEX
8
0
10
79.8203197251949
20
33.9524400770694
30
0
0
VERTEX
8
0
10
80.4967631126966
20
34.1233783657149
30
0
0
VERTEX
8
0
10
81.1732065001982
20
34.295029013543
30
0
0
VERTEX
8
0
10
81.8496498876999
20
34.4691088019151
30
0
0
VERTEX
8
0
10
82.5260932752015
20
34.6436886990774
30
0
0
VERTEX
8
0
10
83.2025366627032
20
34.8189701354453
30
0
0
VERTEX
8
0
10
83.8789800502048
20
34.9949425694858
30
0
0
VERTEX
8
0
10
84.5554234377065
20
35.1674943906458
30
0
0
VERTEX
8
0
10
85.2318668252081
20
35.3402073893269
30
0
0
VERTEX
8
0
10
85.9083102127098
20
35.5136080279348
30
0
0
VERTEX
8
0
10
86.5847536002114
20
35.6876862830807
30
0
0
VERTEX
8
0
10
87.2611969877131
20
35.864800529812
30
0
0
VERTEX
8
0
10
87.9376403752147
20
36.0431413208724
30
0
0
VERTEX
8
0
10
88.6140837627164
20
36.2220851906239
30
0
0
VERTEX
8
0
10
89.290527150218
20
36.4016232451866
30
0
0
VERTEX
8
0
10
89.9669705377197
20
36.5840903999575
30
0
0
VERTEX
8
0
10
90.6434139252213
20
36.7664451329679
30
0
0
VERTEX
8
0
10
91.319857312723
20
36.9493858483863
30
0
0
VERTEX
8
0
10
91.9963007002247
20
37.1293608235907
30
0
0
VERTEX
8
0
10
92.6727440877263
20
37.3014785660091
30
0
0
VERTEX
8
0
10
93.349187475228
20
37.474918817785
30
0
0
VERTEX
8
0
10
94.0256308627296
20
37.6488701944743
30
0
0
VERTEX
8
0
10
94.7020742502312
20
37.8276038106811
30
0
0
VERTEX
8
0
10
95.3785176377329
20
38.0150346436294
30
0
0
VERTEX
8
0
10
96.0549610252346
20
38.2017639877299
30
0
0
VERTEX
8
0
10
96.7314044127362
20
38.3890152794548
30
0
0
VERTEX
8
0
10
97.4078478002379
20
38.5755213580518
30
0
0
VERTEX
8
0
10
98.0842911877395
20
38.756034373709
30
0
0
VERTEX
8
0
10
98.7607345752412
20
38.938704350031
30
0
0
VERTEX
8
0
10
99.4371779627428
20
39.1218760195864
30
0
0
VERTEX
8
0
10
100.113621350244
20
39.3040875199175
30
0
0
VERTEX
8
0
10
100.790064737746
20
39.4386595095555
30
0
0
VERTEX
8
0
10
101.466508125248
20
39.5893107741252
30
0
0
VERTEX
8
0
10
102.142951512749
20
39.7406197559676
30
0
0
VERTEX
8
0
10
102.819394900251
20
39.8831386774294
30
0
0
VERTEX
8
0
10
103.495838287753
20
40.0214779891353
30
0
0
VERTEX
8
0
10
104.172281675254
20
40.1604913402249
30
0
0
VERTEX
8
0
10
104.848725062756
20
40.3001717555073
30
0
0
VERTEX
8
0
10
105.525168450258
20
40.456984776104
30
0
0
VERTEX
8
0
10
106.201611837759
20
40.6205585855403
30
0
0
VERTEX
8
0
10
106.878055225261
20
40.7846844128067
30
0
0
VERTEX
8
0
10
107.554498612763
20
40.9493556204086
30
0
0
VERTEX
8
0
10
108.230942000264
20
41.1168002791845
30
0
0
VERTEX
8
0
10
108.907385387766
20
41.2870911411645
30
0
0
VERTEX
8
0
10
109.583828775268
20
41.457828854908
30
0
0
VERTEX
8
0
10
110.260272162769
20
41.6290079222457
30
0
0
VERTEX
8
0
10
110.936715550271
20
41.7774250027765
30
0
0
VERTEX
8
0
10
111.613158937773
20
41.9228521260615
30
0
0
VERTEX
8
0
10
112.289602325274
20
42.0688749015978
30
0
0
VERTEX
8
0
10
112.966045712776
20
42.2154871483277
30
0
0
VERTEX
8
0
10
113.642489100278
20
42.3666004492293
30
0
0
VERTEX
8
0
10
114.318932487779
20
42.5184079858249
30
0
0
VERTEX
8
0
10
114.995375875281
20
42.6707590581965
30
0
0
VERTEX
8
0
10
115.671819262782
20
42.8236478652323
30
0
0
VERTEX
8
0
10
116.348262650284
20
42.9658928042156
30
0
0
VERTEX
8
0
10
117.024706037786
20
43.1205650419724
30
0
0
VERTEX
8
0
10
117.701149425287
20
43.275383386821
30
0
0
VERTEX
8
0
10
118.377592812789
20
43.4867010574534
30
0
0
VERTEX
8
0
10
119.054036200291
20
43.7055636334777
30
0
0
VERTEX
8
0
10
119.730479587792
20
43.932030948307
30
0
0
VERTEX
8
0
10
120.406922975294
20
44.1596708591386
30
0
0
VERTEX
8
0
10
121.083366362796
20
44.3248614990136
30
0
0
VERTEX
8
0
10
121.759809750297
20
44.4505117171555
30
0
0
VERTEX
8
0
10
122.436253137799
20
44.5765016711042
30
0
0
VERTEX
8
0
10
123.112696525301
20
44.702828488337
30
0
0
VERTEX
8
0
10
123.789139912802
20
44.8466891040053
30
0
0
VERTEX
8
0
10
124.465583300304
20
45.031970169427
30
0
0
VERTEX
8
0
10
125.142026687806
20
45.2085850908373
30
0
0
VERTEX
8
0
10
125.818470075307
20
45.3855076521606
30
0
0
VERTEX
8
0
10
126.494913462809
20
45.5462649282677
30
0
0
VERTEX
8
0
10
127.171356850311
20
45.6561774020132
30
0
0
VERTEX
8
0
10
127.847800237812
20
45.7812795119519
30
0
0
VERTEX
8
0
10
128.524243625314
20
45.9067606837551
30
0
0
VERTEX
8
0
10
129.200687012816
20
45.9869257132552
30
0
0
VERTEX
8
0
10
129.877130400317
20
46.0568194602333
30
0
0
VERTEX
8
0
10
130.553573787819
20
46.1269737676384
30
0
0
VERTEX
8
0
10
131.23001717532
20
46.197387448427
30
0
0
VERTEX
8
0
10
131.906460562822
20
46.2574412330325
30
0
0
VERTEX
8
0
10
132.582903950324
20
46.3132545803292
30
0
0
VERTEX
8
0
10
133.259347337825
20
46.3693868114417
30
0
0
VERTEX
8
0
10
133.935790725327
20
46.4258367697085
30
0
0
VERTEX
8
0
10
134.612234112829
20
46.4881480701906
30
0
0
VERTEX
8
0
10
135.28867750033
20
46.5525879187747
30
0
0
VERTEX
8
0
10
135.965120887832
20
46.6172999659068
30
0
0
VERTEX
8
0
10
136.641564275334
20
46.6822830796034
30
0
0
VERTEX
8
0
10
137.318007662835
20
46.7521882875303
30
0
0
VERTEX
8
0
10
137.994451050337
20
46.8231689517892
30
0
0
VERTEX
8
0
10
138.670894437839
20
46.894387856148
30
0
0
VERTEX
8
0
10
139.34733782534
20
46.9658439168063
30
0
0
VERTEX
8
0
10
140.023781212842
20
47.0289754569332
30
0
0
VERTEX
8
0
10
140.700224600343
20
47.091903502488
30
0
0
VERTEX
8
0
10
141.376667987845
20
47.1551153030427
30
0
0
VERTEX
8
0
10
142.053111375347
20
47.2186097190044
30
0
0
VERTEX
8
0
10
142.729554762848
20
47.2823856118203
30
0
0
VERTEX
8
0
10
143.40599815035
20
47.346441844038
30
0
0
VERTEX
8
0
10
144.082441537852
20
47.4107772793663
30
0
0
VERTEX
8
0
10
144.758884925353
20
47.4753907827336
30
0
0
VERTEX
8
0
10
145.435328312855
20
47.5503800148046
30
0
0
VERTEX
8
0
10
146.111771700357
20
47.6243323002694
30
0
0
VERTEX
8
0
10
146.788215087858
20
47.6985097800819
30
0
0
VERTEX
8
0
10
147.46465847536
20
47.7729114052574
30
0
0
VERTEX
8
0
10
148.141101862861
20
47.8410258219194
30
0
0
VERTEX
8
0
10
148.817545250363
20
47.9106577167215
30
0
0
VERTEX
8
0
10
149.493988637865
20
47.9805395680471
30
0
0
VERTEX
8
0
10
150.170432025366
20
48.0491528989424
30
0
0
VERTEX
8
0
10
150.846875412868
20
48.1080779674542
30
0
0
VERTEX
8
0
10
151.52331880037
20
48.1696329083678
30
0
0
VERTEX
8
0
10
152.199762187871
20
48.2314663920229
30
0
0
VERTEX
8
0
10
152.876205575373
20
48.2914829476153
30
0
0
VERTEX
8
0
10
153.552648962875
20
48.3776088016133
30
0
0
VERTEX
8
0
10
154.229092350376
20
48.4558526533264
30
0
0
SEQEND
8
0
0
POLYLINE
8
0
62
2
70
0
10
0
20
0
30
0
0
VERTEX
8
0
10
15.558197912538
20
9.90347608664085
30
0
0
VERTEX
8
0
10
16.2346413000396
20
10.2273952773294
30
0
0
VERTEX
8
0
10
16.9110846875413
20
10.5516874095247
30
0
0
VERTEX
8
0
10
17.5875280750429
20
10.8763191240149
30
0
0
VERTEX
8
0
10
18.2639714625446
20
11.2028673984021
30
0
0
VERTEX
8
0
10
18.9404148500462
20
11.5263490142752
30
0
0
VERTEX
8
0
10
19.6168582375479
20
11.8513416559794
30
0
0
VERTEX
8
0
10
20.2933016250495
20
12.176652745639
30
0
0
VERTEX
8
0
10
20.9697450125512
20
12.503027732835
30
0
0
VERTEX
8
0
10
21.6461884000528
20
12.830829658599
30
0
0
VERTEX
8
0
10
22.3226317875545
20
13.1588544130913
30
0
0
VERTEX
8
0
10
22.9990751750562
20
13.4870857378042
30
0
0
VERTEX
8
0
10
23.6755185625578
20
13.8162757763581
30
0
0
VERTEX
8
0
10
24.3519619500595
20
14.1456779583021
30
0
0
VERTEX
8
0
10
25.0284053375611
20
14.475264427394
30
0
0
VERTEX
8
0
10
25.7048487250628
20
14.8050228759478
30
0
0
VERTEX
8
0
10
26.3812921125644
20
15.1349420627589
30
0
0
VERTEX
8
0
10
27.0577355000661
20
15.4650117006156
30
0
0
VERTEX
8
0
10
27.7341788875677
20
15.7952223576832
30
0
0
VERTEX
8
0
10
28.4106222750694
20
16.1255653708175
30
0
0
VERTEX
8
0
10
29.087065662571
20
16.4582214239957
30
0
0
VERTEX
8
0
10
29.7635090500727
20
16.7914611378343
30
0
0
VERTEX
8
0
10
30.4399524375743
20
17.1248068885103
30
0
0
VERTEX
8
0
10
31.116395825076
20
17.4582526020613
30
0
0
VERTEX
8
0
10
31.7928392125776
20
17.784676271583
30
0
0
VERTEX
8
0
10
32.4692826000793
20
18.1112355923831
30
0
0
VERTEX
8
0
10
33.1457259875809
20
18.4378653183839
30
0
0
VERTEX
8
0
10
33.8221693750826
20
18.764561773012
30
0
0
VERTEX
8
0
10
34.4986127625842
20
19.1004023176183
30
0
0
VERTEX
8
0
10
35.1750561500859
20
19.4352249251382
30
0
0
VERTEX
8
0
10
35.8514995375875
20
19.7701264957489
30
0
0
VERTEX
8
0
10
36.5279429250892
20
20.105103083458
30
0
0
VERTEX
8
0
10
37.2043863125908
20
20.4345070507281
30
0
0
VERTEX
8
0
10
37.8808297000925
20
20.7651351383204
30
0
0
VERTEX
8
0
10
38.5572730875941
20
21.0958140093282
30
0
0
VERTEX
8
0
10
39.2337164750958
20
21.4270705018595
30
0
0
VERTEX
8
0
10
39.9101598625974
20
21.7491808285955
30
0
0
VERTEX
8
0
10
40.5866032500991
20
22.0730555533932
30
0
0
VERTEX
8
0
10
41.2630466376008
20
22.3969882566763
30
0
0
VERTEX
8
0
10
41.9394900251024
20
22.7241370728026
30
0
0
VERTEX
8
0
10
42.6159334126041
20
22.9598653236121
30
0
0
VERTEX
8
0
10
43.2923768001057
20
23.2180787450549
30
0
0
VERTEX
8
0
10
43.9688201876074
20
23.4765128699284
30
0
0
VERTEX
8
0
10
44.645263575109
20
23.7404204286369
30
0
0
VERTEX
8
0
10
45.3217069626107
20
23.9141276344751
30
0
0
VERTEX
8
0
10
45.9981503501123
20
24.1152779311388
30
0
0
VERTEX
8
0
10
46.674593737614
20
24.3169366227058
30
0
0
VERTEX
8
0
10
47.3510371251156
20
24.5190683075253
30
0
0
VERTEX
8
0
10
48.0274805126173
20
24.7237343826015
30
0
0
VERTEX
8
0
10
48.7039239001189
20
24.9287913068486
30
0
0
VERTEX
8
0
10
49.3803672876206
20
25.1342295140717
30
0
0
VERTEX
8
0
10
50.0568106751222
20
25.3399932828152
30
0
0
VERTEX
8
0
10
50.7332540626239
20
25.5442924306429
30
0
0
VERTEX
8
0
10
51.4096974501255
20
25.7490221140491
30
0
0
VERTEX
8
0
10
52.0861408376272
20
25.954172144684
30
0
0
VERTEX
8
0
10
52.7625842251288
20
26.1573733527246
30
0
0
VERTEX
8
0
10
53.4390276126305
20
26.3610716548501
30
0
0
VERTEX
8
0
10
54.1154710001321
20
26.565123737035
30
0
0
VERTEX
8
0
10
54.7919143876338
20
26.7695215091592
30
0
0
VERTEX
8
0
10
55.4683577751354
20
26.9802995209681
30
0
0
VERTEX
8
0
10
56.1448011626371
20
27.1914069431822
30
0
0
VERTEX
8
0
10
56.8212445501388
20
27.4028822576308
30
0
0
VERTEX
8
0
10
57.4976879376404
20
27.6147170122866
30
0
0
VERTEX
8
0
10
58.174131325142
20
27.8186593427664
30
0
0
VERTEX
8
0
10
58.8505747126437
20
28.0238522109656
30
0
0
VERTEX
8
0
10
59.5270181001454
20
28.2293229486088
30
0
0
VERTEX
8
0
10
60.203461487647
20
28.4350655320734
30
0
0
VERTEX
8
0
10
60.8799048751487
20
28.6494025932545
30
0
0
VERTEX
8
0
10
61.5563482626503
20
28.8631504399921
30
0
0
VERTEX
8
0
10
62.232791650152
20
29.0771680866103
30
0
0
VERTEX
8
0
10
62.9092350376536
20
29.2914496192404
30
0
0
VERTEX
8
0
10
63.5856784251553
20
29.50049771814
30
0
0
VERTEX
8
0
10
64.2621218126569
20
29.7103095751462
30
0
0
VERTEX
8
0
10
64.9385652001586
20
29.920383085168
30
0
0
VERTEX
8
0
10
65.6150085876602
20
30.1307127754145
30
0
0
VERTEX
8
0
10
66.2914519751619
20
30.344266614166
30
0
0
VERTEX
8
0
10
66.9678953626635
20
30.5575680605976
30
0
0
VERTEX
8
0
10
67.6443387501652
20
30.7711030429409
30
0
0
VERTEX
8
0
10
68.3207821376668
20
30.9865525634044
30
0
0
VERTEX
8
0
10
68.9972255251685
20
31.1871640315717
30
0
0
VERTEX
8
0
10
69.6736689126701
20
31.3917131708451
30
0
0
VERTEX
8
0
10
70.3501123001718
20
31.5965406207025
30
0
0
VERTEX
8
0
10
71.0265556876734
20
31.8125632748397
30
0
0
VERTEX
8
0
10
71.7029990751751
20
31.9541417250957
30
0
0
VERTEX
8
0
10
72.3794424626767
20
32.1186519913876
30
0
0
VERTEX
8
0
10
73.0558858501784
20
32.2838450467007
30
0
0
VERTEX
8
0
10
73.73232923768
20
32.4578530184507
30
0
0
VERTEX
8
0
10
74.4087726251817
20
32.6196890753469
30
0
0
VERTEX
8
0
10
75.0852160126833
20
32.7871727590688
30
0
0
VERTEX
8
0
10
75.761659400185
20
32.955509856297
30
0
0
VERTEX
8
0
10
76.4381027876867
20
33.1205081850021
30
0
0
VERTEX
8
0
10
77.1145461751883
20
33.2842863377764
30
0
0
VERTEX
8
0
10
77.79098956269
20
33.4488844632226
30
0
0
VERTEX
8
0
10
78.4674329501916
20
33.6142905159335
30
0
0
VERTEX
8
0
10
79.1438763376933
20
33.7822249612351
30
0
0
VERTEX
8
0
10
79.8203197251949
20
33.9524400770694
30
0
0
VERTEX
8
0
10
80.4967631126966
20
34.1233783657149
30
0
0
VERTEX
8
0
10
81.1732065001982
20
34.295029013543
30
0
0
VERTEX
8
0
10
81.8496498876999
20
34.4691088019151
30
0
0
VERTEX
8
0
10
82.5260932752015
20
34.6436886990774
30
0
0
VERTEX
8
0
10
83.2025366627032
20
34.8189701354453
30
0
0
VERTEX
8
0
10
83.8789800502048
20
34.9949425694858
30
0
0
VERTEX
8
0
10
84.5554234377065
20
35.1674943906458
30
0
0
VERTEX
8
0
10
85.2318668252081
20
35.3402073893269
30
0
0
VERTEX
8
0
10
85.9083102127098
20
35.5136080279348
30
0
0
VERTEX
8
0
10
86.5847536002114
20
35.6876862830807
30
0
0
VERTEX
8
0
10
87.2611969877131
20
35.864800529812
30
0
0
VERTEX
8
0
10
87.9376403752147
20
36.0431413208724
30
0
0
VERTEX
8
0
10
88.6140837627164
20
36.2220851906239
30
0
0
VERTEX
8
0
10
89.290527150218
20
36.4016232451866
30
0
0
VERTEX
8
0
10
89.9669705377197
20
36.5840903999575
30
0
0
VERTEX
8
0
10
90.6434139252213
20
36.7664451329678
30
0
0
VERTEX
8
0
10
91.319857312723
20
36.9493858483863
30
0
0
VERTEX
8
0
10
91.9963007002247
20
37.1293608235907
30
0
0
VERTEX
8
0
10
92.6727440877263
20
37.3014785660091
30
0
0
VERTEX
8
0
10
93.349187475228
20
37.474918817785
30
0
0
VERTEX
8
0
10
94.0256308627296
20
37.6488701944743
30
0
0
VERTEX
8
0
10
94.7020742502312
20
37.8276038106811
30
0
0
VERTEX
8
0
10
95.3785176377329
20
38.0150346436294
30
0
0
VERTEX
8
0
10
96.0549610252346
20
38.2017639877299
30
0
0
VERTEX
8
0
10
96.7314044127362
20
38.3890152794548
30
0
0
VERTEX
8
0
10
97.4078478002379
20
38.5755213580518
30
0
0
VERTEX
8
0
10
98.0842911877395
20
38.756034373709
30
0
0
VERTEX
8
0
10
98.7607345752412
20
38.938704350031
30
0
0
VERTEX
8
0
10
99.4371779627428
20
39.1218760195864
30
0
0
VERTEX
8
0
10
100.113621350244
20
39.3040875199175
30
0
0
VERTEX
8
0
10
100.790064737746
20
39.4386595095555
30
0
0
VERTEX
8
0
10
101.466508125248
20
39.5893107741252
30
0
0
VERTEX
8
0
10
102.142951512749
20
39.7406197559676
30
0
0
VERTEX
8
0
10
102.819394900251
20
39.8831386774294
30
0
0
VERTEX
8
0
10
103.495838287753
20
40.0214779891353
30
0
0
VERTEX
8
0
10
104.172281675254
20
40.1604913402249
30
0
0
VERTEX
8
0
10
104.848725062756
20
40.3001717555073
30
0
0
VERTEX
8
0
10
105.525168450258
20
40.456984776104
30
0
0
VERTEX
8
0
10
106.201611837759
20
40.6205585855403
30
0
0
VERTEX
8
0
10
106.878055225261
20
40.7846844128067
30
0
0
VERTEX
8
0
10
107.554498612763
20
40.9493556204086
30
0
0
VERTEX
8
0
10
108.230942000264
20
41.1168002791845
30
0
0
VERTEX
8
0
10
108.907385387766
20
41.2870911411645
30
0
0
VERTEX
8
0
10
109.583828775268
20
41.457828854908
30
0
0
VERTEX
8
0
10
110.260272162769
20
41.6290079222457
30
0
0
VERTEX
8
0
10
110.936715550271
20
41.7774250027765
30
0
0
VERTEX
8
0
10
111.613158937773
20
41.9228521260615
30
0
0
VERTEX
8
0
10
112.289602325274
20
42.0688749015978
30
0
0
VERTEX
8
0
10
112.966045712776
20
42.2154871483277
30
0
0
VERTEX
8
0
10
113.642489100278
20
42.3666004492293
30
0
0
VERTEX
8
0
10
114.318932487779
20
42.5184079858249
30
0
0
VERTEX
8
0
10
114.995375875281
20
42.6707590581965
30
0
0
VERTEX
8
0
10
115.671819262782
20
42.8236478652323
30
0
0
VERTEX
8
0
10
116.348262650284
20
42.9658928042156
30
0
0
VERTEX
8
0
10
117.024706037786
20
43.1205650419724
30
0
0
VERTEX
8
0
10
117.701149425287
20
43.275383386821
30
0
0
VERTEX
8
0
10
118.377592812789
20
43.4867010574534
30
0
0
VERTEX
8
0
10
119.054036200291
20
43.7055636334777
30
0
0
VERTEX
8
0
10
119.730479587792
20
43.932030948307
30
0
0
VERTEX
8
0
10
120.406922975294
20
44.1596708591385
30
0
0
VERTEX
8
0
10
121.083366362796
20
44.3248614990136
30
0
0
VERTEX
8
0
10
121.759809750297
20
44.4505117171556
30
0
0
VERTEX
8
0
10
122.436253137799
20
44.5765016711042
30
0
0
VERTEX
8
0
10
123.112696525301
20
44.702828488337
30
0
0
VERTEX
8
0
10
123.789139912802
20
44.8466891040053
30
0
0
VERTEX
8
0
10
124.465583300304
20
45.031970169427
30
0
0
VERTEX
8
0
10
125.142026687806
20
45.2085850908373
30
0
0
VERTEX
8
0
10
125.818470075307
20
45.3855076521606
30
0
0
VERTEX
8
0
10
126.494913462809
20
45.5462649282677
30
0
0
VERTEX
8
0
10
127.171356850311
20
45.6561774020132
30
0
0
VERTEX
8
0
10
127.847800237812
20
45.7812795119519
30
0
0
VERTEX
8
0
10
128.524243625314
20
45.9067606837551
30
0
0
VERTEX
8
0
10
129.200687012816
20
45.9869257132552
30
0
0
VERTEX
8
0
10
129.877130400317
20
46.0568194602334
30
0
0
VERTEX
8
0
10
130.553573787819
20
46.1269737676384
30
0
0
VERTEX
8
0
10
131.23001717532
20
46.197387448427
30
0
0
VERTEX
8
0
10
131.906460562822
20
46.2574412330326
30
0
0
VERTEX
8
0
10
132.582903950324
20
46.3132545803292
30
0
0
VERTEX
8
0
10
133.259347337825
20
46.3693868114417
30
0
0
VERTEX
8
0
10
133.935790725327
20
46.4258367697085
30
0
0
VERTEX
8
0
10
134.612234112829
20
46.4881480701906
30
0
0
VERTEX
8
0
10
135.28867750033
20
46.5525879187747
30
0
0
VERTEX
8
0
10
135.965120887832
20
46.6172999659068
30
0
0
VERTEX
8
0
10
136.641564275334
20
46.6822830796034
30
0
0
VERTEX
8
0
10
137.318007662835
20
46.7521882875303
30
0
0
VERTEX
8
0
10
137.994451050337
20
46.8231689517892
30
0
0
VERTEX
8
0
10
138.670894437839
20
46.894387856148
30
0
0
VERTEX
8
0
10
139.34733782534
20
46.9658439168063
30
0
0
VERTEX
8
0
10
140.023781212842
20
47.0289754569332
30
0
0
VERTEX
8
0
10
140.700224600343
20
47.091903502488
30
0
0
VERTEX
8
0
10
141.376667987845
20
47.1551153030427
30
0
0
VERTEX
8
0
10
142.053111375347
20
47.2186097190044
30
0
0
VERTEX
8
0
10
142.729554762848
20
47.2823856118203
30
0
0
VERTEX
8
0
10
143.40599815035
20
47.346441844038
30
0
0
VERTEX
8
0
10
144.082441537852
20
47.4107772793663
30
0
0
VERTEX
8
0
10
144.758884925353
20
47.4753907827336
30
0
0
VERTEX
8
0
10
145.435328312855
20
47.5503800148046
30
0
0
VERTEX
8
0
10
146.111771700357
20
47.6243323002694
30
0
0
VERTEX
8
0
10
146.788215087858
20
47.6985097800819
30
0
0
VERTEX
8
0
10
147.46465847536
20
47.7729114052574
30
0
0
VERTEX
8
0
10
148.141101862861
20
47.8410258219194
30
0
0
VERTEX
8
0
10
148.817545250363
20
47.9106577167215
30
0
0
VERTEX
8
0
10
149.493988637865
20
47.9805395680471
30
0
0
VERTEX
8
0
10
150.170432025366
20
48.0491528989424
30
0
0
VERTEX
8
0
10
150.846875412868
20
48.1080779674542
30
0
0
VERTEX
8
0
10
151.52331880037
20
48.1696329083678
30
0
0
VERTEX
8
0
10
152.199762187871
20
48.2314663920229
30
0
0
VERTEX
8
0
10
152.876205575373
20
48.2914829476153
30
0
0
VERTEX
8
0
10
153.552648962875
20
48.3776088016133
30
0
0
VERTEX
8
0
10
154.229092350376
20
48.4558526533264
30
0
0
SEQEND
8
0
0
POLYLINE
8
0
62
3
70
0
10
0
20
0
30
0
0
VERTEX
8
0
10
15.558197912538
20
15.7273662953714
30
0
0
VERTEX
8
0
10
16.2346413000396
20
16.3173786680341
30
0
0
VERTEX
8
0
10
16.9110846875413
20
17.0901245666024
30
0
0
VERTEX
8
0
10
17.5875280750429
20
17.5381549922325
30
0
0
VERTEX
8
0
10
18.2639714625446
20
18.2019283892908
30
0
0
VERTEX
8
0
10
18.9404148500462
20
18.9396226042669
30
0
0
VERTEX
8
0
10
19.6168582375479
20
19.4014700638315
30
0
0
VERTEX
8
0
10
20.2933016250495
20
20.3559116809837
30
0
0
VERTEX
8
0
10
20.9697450125512
20
20.7641735702157
30
0
0
VERTEX
8
0
10
21.6461884000528
20
21.4685580618753
30
0
0
VERTEX
8
0
10
22.3226317875545
20
21.9421081352957
30
0
0
VERTEX
8
0
10
22.9990751750562
20
22.7287926162781
30
0
0
VERTEX
8
0
10
23.6755185625578
20
23.1668166721768
30
0
0
VERTEX
8
0
10
24.3519619500595
20
23.8477271174615
30
0
0
VERTEX
8
0
10
25.0284053375611
20
24.4735238195972
30
0
0
VERTEX
8
0
10
25.7048487250628
20
25.0159580235414
30
0
0
VERTEX
8
0
10
26.3812921125644
20
25.6343370089161
30
0
0
VERTEX
8
0
10
27.0577355000661
20
26.2775682580435
30
0
0
VERTEX
8
0
10
27.7341788875677
20
26.8217568904415
30
0
0
VERTEX
8
0
10
28.4106222750694
20
27.4271817746493
30
0
0
VERTEX
8
0
10
29.087065662571
20
28.1799897840262
30
0
0
VERTEX
8
0
10
29.7635090500727
20
28.6061760184315
30
0
0
VERTEX
8
0
10
30.4399524375743
20
29.2883685968599
30
0
0
VERTEX
8
0
10
31.116395825076
20
29.8467596610533
30
0
0
VERTEX
8
0
10
31.7928392125776
20
30.4269676033406
30
0
0
VERTEX
8
0
10
32.4692826000793
20
30.997826920848
30
0
0
VERTEX
8
0
10
33.1457259875809
20
31.6221945752521
30
0
0
VERTEX
8
0
10
33.8221693750826
20
32.1476791932887
30
0
0
VERTEX
8
0
10
34.4986127625842
20
32.742286560001
30
0
0
VERTEX
8
0
10
35.1750561500859
20
33.3438675186934
30
0
0
VERTEX
8
0
10
35.8514995375875
20
33.8813472260031
30
0
0
VERTEX
8
0
10
36.5279429250892
20
34.4665711590633
30
0
0
VERTEX
8
0
10
37.2043863125908
20
35.0583245346321
30
0
0
VERTEX
8
0
10
37.8808297000925
20
35.6499087418833
30
0
0
VERTEX
8
0
10
38.5572730875941
20
36.1730514882289
30
0
0
VERTEX
8
0
10
39.2337164750958
20
36.7920751292927
30
0
0
VERTEX
8
0
10
39.9101598625974
20
37.2997313124766
30
0
0
VERTEX
8
0
10
40.5866032500991
20
37.8807379204342
30
0
0
VERTEX
8
0
10
41.2630466376008
20
38.4514744095302
30
0
0
VERTEX
8
0
10
41.9394900251024
20
38.9815934634509
30
0
0
VERTEX
8
0
10
42.6159334126041
20
39.5340273757964
30
0
0
VERTEX
8
0
10
43.2923768001057
20
40.1049685196992
30
0
0
VERTEX
8
0
10
43.9688201876074
20
40.6319478349324
30
0
0
VERTEX
8
0
10
44.645263575109
20
41.183043096217
30
0
0
VERTEX
8
0
10
45.3217069626107
20
41.7449365967185
30
0
0
VERTEX
8
0
10
45.9981503501123
20
42.2685548216946
30
0
0
VERTEX
8
0
10
46.674593737614
20
42.8392731454855
30
0
0
VERTEX
8
0
10
47.3510371251156
20
43.3678052924225
30
0
0
VERTEX
8
0
10
48.0274805126173
20
43.9019808734869
30
0
0
VERTEX
8
0
10
48.7039239001189
20
44.4286198457315
30
0
0
VERTEX
8
0
10
49.3803672876206
20
44.9765524568615
30
0
0
VERTEX
8
0
10
50.0568106751222
20
45.49353408191
30
0
0
VERTEX
8
0
10
50.7332540626239
20
46.0171459308873
30
0
0
VERTEX
8
0
10
51.4096974501255
20
46.5506369976623
30
0
0
VERTEX
8
0
10
52.0861408376272
20
47.0618236313099
30
0
0
VERTEX
8
0
10
52.7625842251288
20
47.5835931137585
30
0
0
VERTEX
8
0
10
53.4390276126305
20
48.1120803288157
30
0
0
VERTEX
8
0
10
54.1154710001321
20
48.6177010484271
30
0
0
VERTEX
8
0
10
54.7919143876338
20
49.1331412615191
30
0
0
VERTEX
8
0
10
55.4683577751354
20
49.6665336912772
30
0
0
VERTEX
8
0
10
56.1448011626371
20
50.155783816774
30
0
0
VERTEX
8
0
10
56.8212445501388
20
50.6685412316903
30
0
0
VERTEX
8
0
10
57.4976879376404
20
51.1791238990788
30
0
0
VERTEX
8
0
10
58.174131325142
20
51.6720524808603
30
0
0
VERTEX
8
0
10
58.8505747126437
20
52.177343125751
30
0
0
VERTEX
8
0
10
59.5270181001454
20
52.6750606079044
30
0
0
VERTEX
8
0
10
60.203461487647
20
53.1625370533391
30
0
0
VERTEX
8
0
10
60.8799048751487
20
53.6555046306493
30
0
0
VERTEX
8
0
10
61.5563482626503
20
54.1526762724125
30
0
0
VERTEX
8
0
10
62.232791650152
20
54.6355185442472
30
0
0
VERTEX
8
0
10
62.9092350376536
20
55.1208231939724
30
0
0
VERTEX
8
0
10
63.5856784251553
20
55.6113267941738
30
0
0
VERTEX
8
0
10
64.2621218126569
20
56.0933952450364
30
0
0
VERTEX
8
0
10
64.9385652001586
20
56.56756035442
30
0
0
VERTEX
8
0
10
65.6150085876602
20
57.0499013847189
30
0
0
VERTEX
8
0
10
66.2914519751619
20
57.5218456519354
30
0
0
VERTEX
8
0
10
66.9678953626635
20
57.9887387167015
30
0
0
VERTEX
8
0
10
67.6443387501652
20
58.4689349682308
30
0
0
VERTEX
8
0
10
68.3207821376668
20
58.9255038887219
30
0
0
VERTEX
8
0
10
68.9972255251685
20
59.3883271453926
30
0
0
VERTEX
8
0
10
69.6736689126701
20
59.8542603939097
30
0
0
VERTEX
8
0
10
70.3501123001718
20
60.3118597025903
30
0
0
VERTEX
8
0
10
71.0265556876734
20
60.7675886971211
30
0
0
VERTEX
8
0
10
71.7029990751751
20
61.2255359132443
30
0
0
VERTEX
8
0
10
72.3794424626767
20
61.6776117177331
30
0
0
VERTEX
8
0
10
73.0558858501784
20
62.1270889716603
30
0
0
VERTEX
8
0
10
73.73232923768
20
62.5772868614135
30
0
0
VERTEX
8
0
10
74.4087726251817
20
63.0198405997859
30
0
0
VERTEX
8
0
10
75.0852160126833
20
63.4634761912102
30
0
0
VERTEX
8
0
10
75.761659400185
20
63.9015997604155
30
0
0
VERTEX
8
0
10
76.4381027876867
20
64.3453484500091
30
0
0
VERTEX
8
0
10
77.1145461751883
20
64.771077088873
30
0
0
VERTEX
8
0
10
77.79098956269
20
65.2060222704037
30
0
0
VERTEX
8
0
10
78.4674329501916
20
65.636102831455
30
0
0
VERTEX
8
0
10
79.1438763376933
20
66.0612702943137
30
0
0
VERTEX
8
0
10
79.8203197251949
20
66.4882934282441
30
0
0
VERTEX
8
0
10
80.4967631126966
20
66.9112249563885
30
0
0
VERTEX
8
0
10
81.1732065001982
20
67.3296823458211
30
0
0
VERTEX
8
0
10
81.8496498876999
20
67.7479936138159
30
0
0
VERTEX
8
0
10
82.5260932752015
20
68.165772313823
30
0
0
VERTEX
8
0
10
83.2025366627032
20
68.5726853031384
30
0
0
VERTEX
8
0
10
83.8789800502048
20
68.9875021527615
30
0
0
VERTEX
8
0
10
84.5554234377065
20
69.3919488074717
30
0
0
VERTEX
8
0
10
85.2318668252081
20
69.7997120485706
30
0
0
VERTEX
8
0
10
85.9083102127098
20
70.1964134649153
30
0
0
VERTEX
8
0
10
86.5847536002114
20
70.5985514615408
30
0
0
VERTEX
8
0
10
87.2611969877131
20
70.9921367854552
30
0
0
VERTEX
8
0
10
87.9376403752147
20
71.3872095273421
30
0
0
VERTEX
8
0
10
88.6140837627164
20
71.7817174175662
30
0
0
VERTEX
8
0
10
89.290527150218
20
72.1673765665674
30
0
0
VERTEX
8
0
10
89.9669705377197
20
72.5552985910099
30
0
0
VERTEX
8
0
10
90.6434139252213
20
72.9405569159251
30
0
0
VERTEX
8
0
10
91.319857312723
20
73.321117208196
30
0
0
VERTEX
8
0
10
91.9963007002247
20
73.6969694125792
30
0
0
VERTEX
8
0
10
92.6727440877263
20
74.0801847708574
30
0
0
VERTEX
8
0
10
93.349187475228
20
74.4462223020597
30
0
0
VERTEX
8
0
10
94.0256308627296
20
74.8222642266763
30
0
0
VERTEX
8
0
10
94.7020742502312
20
75.1886068304876
30
0
0
VERTEX
8
0
10
95.3785176377329
20
75.5514477772659
30
0
0
VERTEX
8
0
10
96.0549610252346
20
75.9137190087538
30
0
0
VERTEX
8
0
10
96.7314044127362
20
76.2779006478605
30
0
0
VERTEX
8
0
10
97.4078478002379
20
76.6324148564343
30
0
0
VERTEX
8
0
10
98.0842911877395
20
76.9865190407033
30
0
0
VERTEX
8
0
10
98.7607345752412
20
77.3437257962345
30
0
0
VERTEX
8
0
10
99.4371779627428
20
77.6880719780436
30
0
0
VERTEX
8
0
10
100.113621350244
20
78.0370066709979
30
0
0
VERTEX
8
0
10
100.790064737746
20
78.3826448372652
30
0
0
VERTEX
8
0
10
101.466508125248
20
78.724506459889
30
0
0
VERTEX
8
0
10
102.142951512749
20
79.0589824281555
30
0
0
VERTEX
8
0
10
102.819394900251
20
79.4041786955536
30
0
0
VERTEX
8
0
10
103.495838287753
20
79.7299265971133
30
0
0
VERTEX
8
0
10
104.172281675254
20
80.0604579594548
30
0
0
VERTEX
8
0
10
104.848725062756
20
80.3929451247945
30
0
0
VERTEX
8
0
10
105.525168450258
20
80.7151948928603
30
0
0
VERTEX
8
0
10
106.201611837759
20
81.0371688580016
30
0
0
VERTEX
8
0
10
106.878055225261
20
81.3617138681602
30
0
0
VERTEX
8
0
10
107.554498612763
20
81.6764714064951
30
0
0
VERTEX
8
0
10
108.230942000264
20
81.9880943695295
30
0
0
VERTEX
8
0
10
108.907385387766
20
82.3074773263121
30
0
0
VERTEX
8
0
10
109.583828775268
20
82.6107848042085
30
0
0
VERTEX
8
0
10
110.260272162769
20
82.9192614047767
30
0
0
VERTEX
8
0
10
110.936715550271
20
83.2250962080673
30
0
0
VERTEX
8
0
10
111.613158937773
20
83.5265203545571
30
0
0
VERTEX
8
0
10
112.289602325274
20
83.8200923173607
30
0
0
VERTEX
8
0
10
112.966045712776
20
84.1214784554716
30
0
0
VERTEX
8
0
10
113.642489100278
20
84.4108052716463
30
0
0
VERTEX
8
0
10
114.318932487779
20
84.6998363644845
30
0
0
VERTEX
8
0
10
114.995375875281
20
84.9928354739349
30
0
0
VERTEX
8
0
10
115.671819262782
20
85.274003764817
30
0
0
VERTEX
8
0
10
116.348262650284
20
85.5552820487088
30
0
0
VERTEX
8
0
10
117.024706037786
20
85.8382963505801
30
0
0
VERTEX
8
0
10
117.701149425287
20
86.1137294119719
30
0
0
VERTEX
8
0
10
118.377592812789
20
86.3840220893879
30
0
0
VERTEX
8
0
10
119.054036200291
20
86.6632439098744
30
0
0
VERTEX
8
0
10
119.730479587792
20
86.9259280417305
30
0
0
VERTEX
8
0
10
120.406922975294
20
87.1930139236754
30
0
0
VERTEX
8
0
10
121.083366362796
20
87.4588479651066
30
0
0
VERTEX
8
0
10
121.759809750297
20
87.7162547229967
30
0
0
VERTEX
8
0
10
122.436253137799
20
87.9720292616683
30
0
0
VERTEX
8
0
10
123.112696525301
20
88.232601298467
30
0
0
VERTEX
8
0
10
123.789139912802
20
88.481588422385
30
0
0
VERTEX
8
0
10
124.465583300304
20
88.7291579083717
30
0
0
VERTEX
8
0
10
125.142026687806
20
88.9819750143221
30
0
0
VERTEX
8
0
10
125.818470075307
20
89.2212760328683
30
0
0
VERTEX
8
0
10
126.494913462809
20
89.4625992011707
30
0
0
VERTEX
8
0
10
127.171356850311
20
89.7051635248573
30
0
0
VERTEX
8
0
10
127.847800237812
20
89.9397614485617
30
0
0
VERTEX
8
0
10
128.524243625314
20
90.1693519762908
30
0
0
VERTEX
8
0
10
129.200687012816
20
90.4076150461882
30
0
0
VERTEX
8
0
10
129.877130400317
20
90.6301837391022
30
0
0
VERTEX
8
0
10
130.553573787819
20
90.8538099861438
30
0
0
VERTEX
8
0
10
131.23001717532
20
91.0816913569204
30
0
0
VERTEX
8
0
10
131.906460562822
20
91.2983025857123
30
0
0
VERTEX
8
0
10
132.582903950324
20
91.51360738486
30
0
0
VERTEX
8
0
10
133.259347337825
20
91.7334217650762
30
0
0
VERTEX
8
0
10
133.935790725327
20
91.9422768940831
30
0
0
VERTEX
8
0
10
134.612234112829
20
92.148347146198
30
0
0
VERTEX
8
0
10
135.28867750033
20
92.3615542280633
30
0
0
VERTEX
8
0
10
135.965120887832
20
92.5608984691847
30
0
0
VERTEX
8
0
10
136.641564275334
20
92.7614390756886
30
0
0
VERTEX
8
0
10
137.318007662835
20
92.9640708279387
30
0
0
VERTEX
8
0
10
137.994451050337
20
93.1581714994457
30
0
0
VERTEX
8
0
10
138.670894437839
20
93.3480087915338
30
0
0
VERTEX
8
0
10
139.34733782534
20
93.5441967972555
30
0
0
VERTEX
8
0
10
140.023781212842
20
93.728860573648
30
0
0
VERTEX
8
0
10
140.700224600343
20
93.9122261422932
30
0
0
VERTEX
8
0
10
141.376667987845
20
94.1003409747039
30
0
0
VERTEX
8
0
10
142.053111375347
20
94.2772118268581
30
0
0
VERTEX
8
0
10
142.729554762848
20
94.4529159384051
30
0
0
VERTEX
8
0
10
143.40599815035
20
94.632383047906
30
0
0
VERTEX
8
0
10
144.082441537852
20
94.8024854411568
30
0
0
VERTEX
8
0
10
144.758884925353
20
94.9694393537812
30
0
0
VERTEX
8
0
10
145.435328312855
20
95.1427519356909
30
0
0
VERTEX
8
0
10
146.111771700357
20
95.3035506612875
30
0
0
VERTEX
8
0
10
146.788215087858
20
95.4645357976634
30
0
0
VERTEX
8
0
10
147.46465847536
20
95.6284332706495
30
0
0
VERTEX
8
0
10
148.141101862861
20
95.7826376827115
30
0
0
VERTEX
8
0
10
148.817545250363
20
95.9350947335523
30
0
0
VERTEX
8
0
10
149.493988637865
20
96.0922482009291
30
0
0
VERTEX
8
0
10
150.170432025366
20
96.2389048277509
30
0
0
VERTEX
8
0
10
150.846875412868
20
96.383916296214
30
0
0
VERTEX
8
0
10
151.52331880037
20
96.5336530281309
30
0
0
VERTEX
8
0
10
152.199762187871
20
96.6725223628723
30
0
0
VERTEX
8
0
10
152.876205575373
20
96.8107478420418
30
0
0
VERTEX
8
0
10
153.552648962875
20
96.952540756663
30
0
0
VERTEX
8
0
10
154.229092350376
20
97.0851148628486
30
0
0
SEQEND
8
0
0
POLYLINE
8
0
62
4
70
0
10
0
20
0
30
0
0
VERTEX
8
0
10
15.558197912538
20
15.1166484789233
30
0
0
VERTEX
8
0
10
16.2346413000396
20
15.8069807971964
30
0
0
VERTEX
8
0
10
16.9110846875413
20
16.5407482207198
30
0
0
VERTEX
8
0
10
17.5875280750429
20
17.0000600654425
30
0
0
VERTEX
8
0
10
18.2639714625446
20
17.6781220390116
30
0
0
VERTEX
8
0
10
18.9404148500462
20
18.3929120950516
30
0
0
VERTEX
8
0
10
19.6168582375479
20
18.8885759013527
30
0
0
VERTEX
8
0
10
20.2933016250495
20
19.5458967362316
30
0
0
VERTEX
8
0
10
20.9697450125512
20
20.2609725569183
30
0
0
VERTEX
8
0
10
21.6461884000528
20
20.7704925086605
30
0
0
VERTEX
8
0
10
22.3226317875545
20
21.4446223649123
30
0
0
VERTEX
8
0
10
22.9990751750562
20
22.1269144790153
30
0
0
VERTEX
8
0
10
23.6755185625578
20
22.6791413609287
30
0
0
VERTEX
8
0
10
24.3519619500595
20
23.3249762361476
30
0
0
VERTEX
8
0
10
25.0284053375611
20
24.011890450888
30
0
0
VERTEX
8
0
10
25.7048487250628
20
24.5652308988181
30
0
0
VERTEX
8
0
10
26.3812921125644
20
25.2182811536008
30
0
0
VERTEX
8
0
10
27.0577355000661
20
25.8957585655773
30
0
0
VERTEX
8
0
10
27.7341788875677
20
26.4602506263427
30
0
0
VERTEX
8
0
10
28.4106222750694
20
27.1108253656834
30
0
0
VERTEX
8
0
10
29.087065662571
20
27.7723651697241
30
0
0
VERTEX
8
0
10
29.7635090500727
20
28.3590843445276
30
0
0
VERTEX
8
0
10
30.4399524375743
20
28.994985029606
30
0
0
VERTEX
8
0
10
31.116395825076
20
29.6715986412044
30
0
0
VERTEX
8
0
10
31.7928392125776
20
30.2394458590068
30
0
0
VERTEX
8
0
10
32.4692826000793
20
30.8887959622767
30
0
0
VERTEX
8
0
10
33.1457259875809
20
31.534086307216
30
0
0
VERTEX
8
0
10
33.8221693750826
20
32.1191041999823
30
0
0
VERTEX
8
0
10
34.4986127625842
20
32.7577162027327
30
0
0
VERTEX
8
0
10
35.1750561500859
20
33.4131182194004
30
0
0
VERTEX
8
0
10
35.8514995375875
20
34.004810060076
30
0
0
VERTEX
8
0
10
36.5279429250892
20
34.6391520830304
30
0
0
VERTEX
8
0
10
37.2043863125908
20
35.2532867299081
30
0
0
VERTEX
8
0
10
37.8808297000925
20
35.8368165077395
30
0
0
VERTEX
8
0
10
38.5572730875941
20
36.4301147783918
30
0
0
VERTEX
8
0
10
39.2337164750958
20
37.0033873248878
30
0
0
VERTEX
8
0
10
39.9101598625974
20
37.597642561252
30
0
0
VERTEX
8
0
10
40.5866032500991
20
38.1638641140523
30
0
0
VERTEX
8
0
10
41.2630466376008
20
38.748474776516
30
0
0
VERTEX
8
0
10
41.9394900251024
20
39.3224998962732
30
0
0
VERTEX
8
0
10
42.6159334126041
20
39.8451339726264
30
0
0
VERTEX
8
0
10
43.2923768001057
20
40.3768361182618
30
0
0
VERTEX
8
0
10
43.9688201876074
20
40.9174361096094
30
0
0
VERTEX
8
0
10
44.645263575109
20
41.4512020572445
30
0
0
VERTEX
8
0
10
45.3217069626107
20
41.9309205057347
30
0
0
VERTEX
8
0
10
45.9981503501123
20
42.4368506455948
30
0
0
VERTEX
8
0
10
46.674593737614
20
42.9227959993553
30
0
0
VERTEX
8
0
10
47.3510371251156
20
43.4256389261028
30
0
0
VERTEX
8
0
10
48.0274805126173
20
43.9200108740733
30
0
0
VERTEX
8
0
10
48.7039239001189
20
44.4220310751506
30
0
0
VERTEX
8
0
10
49.3803672876206
20
44.9054382872083
30
0
0
VERTEX
8
0
10
50.0568106751222
20
45.4146924579271
30
0
0
VERTEX
8
0
10
50.7332540626239
20
45.8948215969125
30
0
0
VERTEX
8
0
10
51.4096974501255
20
46.3842707587619
30
0
0
VERTEX
8
0
10
52.0861408376272
20
46.8793384920538
30
0
0
VERTEX
8
0
10
52.7625842251288
20
47.3639173962263
30
0
0
VERTEX
8
0
10
53.4390276126305
20
47.8475982152839
30
0
0
VERTEX
8
0
10
54.1154710001321
20
48.3382954953002
30
0
0
VERTEX
8
0
10
54.7919143876338
20
48.8208511204313
30
0
0
VERTEX
8
0
10
55.4683577751354
20
49.2963571446309
30
0
0
VERTEX
8
0
10
56.1448011626371
20
49.7962947103116
30
0
0
VERTEX
8
0
10
56.8212445501388
20
50.2692810422258
30
0
0
VERTEX
8
0
10
57.4976879376404
20
50.7572259690121
30
0
0
VERTEX
8
0
10
58.174131325142
20
51.2331450006181
30
0
0
VERTEX
8
0
10
58.8505747126437
20
51.7144944075895
30
0
0
VERTEX
8
0
10
59.5270181001454
20
52.1787224447554
30
0
0
VERTEX
8
0
10
60.203461487647
20
52.6606387729527
30
0
0
VERTEX
8
0
10
60.8799048751487
20
53.1334364992111
30
0
0
VERTEX
8
0
10
61.5563482626503
20
53.605744773381
30
0
0
VERTEX
8
0
10
62.232791650152
20
54.0866346855365
30
0
0
VERTEX
8
0
10
62.9092350376536
20
54.554972281891
30
0
0
VERTEX
8
0
10
63.5856784251553
20
55.0214245428883
30
0
0
VERTEX
8
0
10
64.2621218126569
20
55.488475233127
30
0
0
VERTEX
8
0
10
64.9385652001586
20
55.958348562141
30
0
0
VERTEX
8
0
10
65.6150085876602
20
56.4126562123906
30
0
0
VERTEX
8
0
10
66.2914519751619
20
56.8915075628518
30
0
0
VERTEX
8
0
10
66.9678953626635
20
57.3442469483895
30
0
0
VERTEX
8
0
10
67.6443387501652
20
57.8098309411797
30
0
0
VERTEX
8
0
10
68.3207821376668
20
58.2709496199433
30
0
0
VERTEX
8
0
10
68.9972255251685
20
58.7204070269255
30
0
0
VERTEX
8
0
10
69.6736689126701
20
59.168428750181
30
0
0
VERTEX
8
0
10
70.3501123001718
20
59.6263098457018
30
0
0
VERTEX
8
0
10
71.0265556876734
20
60.0781707654252
30
0
0
VERTEX
8
0
10
71.7029990751751
20
60.4881778341295
30
0
0
VERTEX
8
0
10
72.3794424626767
20
60.9211192172805
30
0
0
VERTEX
8
0
10
73.0558858501784
20
61.335129622616
30
0
0
VERTEX
8
0
10
73.73232923768
20
61.7649312678619
30
0
0
VERTEX
8
0
10
74.4087726251817
20
62.1845886115065
30
0
0
VERTEX
8
0
10
75.0852160126833
20
62.607632285087
30
0
0
VERTEX
8
0
10
75.761659400185
20
63.0172187025133
30
0
0
VERTEX
8
0
10
76.4381027876867
20
63.4462434456437
30
0
0
VERTEX
8
0
10
77.1145461751883
20
63.8502029743525
30
0
0
VERTEX
8
0
10
77.79098956269
20
64.2601409245458
30
0
0
VERTEX
8
0
10
78.4674329501916
20
64.6775319620126
30
0
0
VERTEX
8
0
10
79.1438763376933
20
65.0849372185191
30
0
0
VERTEX
8
0
10
79.8203197251949
20
65.4919928385449
30
0
0
VERTEX
8
0
10
80.4967631126966
20
65.9073965229634
30
0
0
VERTEX
8
0
10
81.1732065001982
20
66.3126545124405
30
0
0
VERTEX
8
0
10
81.8496498876999
20
66.7112721001589
30
0
0
VERTEX
8
0
10
82.5260932752015
20
67.1299159173108
30
0
0
VERTEX
8
0
10
83.2025366627032
20
67.5257648292954
30
0
0
VERTEX
8
0
10
83.8789800502048
20
67.9311575770102
30
0
0
VERTEX
8
0
10
84.5554234377065
20
68.3329381236115
30
0
0
VERTEX
8
0
10
85.2318668252081
20
68.733077587483
30
0
0
VERTEX
8
0
10
85.9083102127098
20
69.1214359111238
30
0
0
VERTEX
8
0
10
86.5847536002114
20
69.5250208903238
30
0
0
VERTEX
8
0
10
87.2611969877131
20
69.9162485072274
30
0
0
VERTEX
8
0
10
87.9376403752147
20
70.3072613213201
30
0
0
VERTEX
8
0
10
88.6140837627164
20
70.707395830952
30
0
0
VERTEX
8
0
10
89.290527150218
20
71.0947153049548
30
0
0
VERTEX
8
0
10
89.9669705377197
20
71.4833851289019
30
0
0
VERTEX
8
0
10
90.6434139252213
20
71.8754062113441
30
0
0
VERTEX
8
0
10
91.319857312723
20
72.2646155404428
30
0
0
VERTEX
8
0
10
91.9963007002247
20
72.641473821305
30
0
0
VERTEX
8
0
10
92.6727440877263
20
73.0321744629104
30
0
0
VERTEX
8
0
10
93.349187475228
20
73.4021723201312
30
0
0
VERTEX
8
0
10
94.0256308627296
20
73.7797000275424
30
0
0
VERTEX
8
0
10
94.7020742502312
20
74.1595453649422
30
0
0
VERTEX
8
0
10
95.3785176377329
20
74.5365496201413
30
0
0
VERTEX
8
0
10
96.0549610252346
20
74.9102181799577
30
0
0
VERTEX
8
0
10
96.7314044127362
20
75.2934776340419
30
0
0
VERTEX
8
0
10
97.4078478002379
20
75.6640341078703
30
0
0
VERTEX
8
0
10
98.0842911877395
20
76.0292310562673
30
0
0
VERTEX
8
0
10
98.7607345752412
20
76.4053890860033
30
0
0
VERTEX
8
0
10
99.4371779627428
20
76.7650570111345
30
0
0
VERTEX
8
0
10
100.113621350244
20
77.1302235699895
30
0
0
VERTEX
8
0
10
100.790064737746
20
77.472099792996
30
0
0
VERTEX
8
0
10
101.466508125248
20
77.8174467201725
30
0
0
VERTEX
8
0
10
102.142951512749
20
78.1540082090484
30
0
0
VERTEX
8
0
10
102.819394900251
20
78.5019660093757
30
0
0
VERTEX
8
0
10
103.495838287753
20
78.8283622146329
30
0
0
VERTEX
8
0
10
104.172281675254
20
79.1575633516787
30
0
0
VERTEX
8
0
10
104.848725062756
20
79.4945050679369
30
0
0
VERTEX
8
0
10
105.525168450258
20
79.8285232496514
30
0
0
VERTEX
8
0
10
106.201611837759
20
80.164252609986
30
0
0
VERTEX
8
0
10
106.878055225261
20
80.5081440865995
30
0
0
VERTEX
8
0
10
107.554498612763
20
80.8412287667993
30
0
0
VERTEX
8
0
10
108.230942000264
20
81.1703888200454
30
0
0
VERTEX
8
0
10
108.907385387766
20
81.5155083375735
30
0
0
VERTEX
8
0
10
109.583828775268
20
81.8427135170283
30
0
0
VERTEX
8
0
10
110.260272162769
20
82.1744569856149
30
0
0
VERTEX
8
0
10
110.936715550271
20
82.4969399312928
30
0
0
VERTEX
8
0
10
111.613158937773
20
82.8118451597044
30
0
0
VERTEX
8
0
10
112.289602325274
20
83.119542773417
30
0
0
VERTEX
8
0
10
112.966045712776
20
83.4389929443338
30
0
0
VERTEX
8
0
10
113.642489100278
20
83.7480249677404
30
0
0
VERTEX
8
0
10
114.318932487779
20
84.056099517592
30
0
0
VERTEX
8
0
10
114.995375875281
20
84.3724959690615
30
0
0
VERTEX
8
0
10
115.671819262782
20
84.6770110382961
30
0
0
VERTEX
8
0
10
116.348262650284
20
84.9751981566471
30
0
0
VERTEX
8
0
10
117.024706037786
20
85.2848003178167
30
0
0
VERTEX
8
0
10
117.701149425287
20
85.5876663677345
30
0
0
VERTEX
8
0
10
118.377592812789
20
85.9126150151848
30
0
0
VERTEX
8
0
10
119.054036200291
20
86.2539469779959
30
0
0
VERTEX
8
0
10
119.730479587792
20
86.5830295215948
30
0
0
VERTEX
8
0
10
120.406922975294
20
86.9155484164217
30
0
0
VERTEX
8
0
10
121.083366362796
20
87.2196619032265
30
0
0
VERTEX
8
0
10
121.759809750297
20
87.49480074269
30
0
0
VERTEX
8
0
10
122.436253137799
20
87.7677432526291
30
0
0
VERTEX
8
0
10
123.112696525301
20
88.0488017182138
30
0
0
VERTEX
8
0
10
123.789139912802
20
88.3274586704035
30
0
0
VERTEX
8
0
10
124.465583300304
20
88.6251345962518
30
0
0
VERTEX
8
0
10
125.142026687806
20
88.9265149047936
30
0
0
VERTEX
8
0
10
125.818470075307
20
89.2147846350069
30
0
0
VERTEX
8
0
10
126.494913462809
20
89.4967354748143
30
0
0
VERTEX
8
0
10
127.171356850311
20
89.7566594086016
30
0
0
VERTEX
8
0
10
127.847800237812
20
90.0167360077681
30
0
0
VERTEX
8
0
10
128.524243625314
20
90.2719043551178
30
0
0
VERTEX
8
0
10
129.200687012816
20
90.5146144752018
30
0
0
VERTEX
8
0
10
129.877130400317
20
90.7379891479799
30
0
0
VERTEX
8
0
10
130.553573787819
20
90.961667889781
30
0
0
VERTEX
8
0
10
131.23001717532
20
91.1921829626775
30
0
0
VERTEX
8
0
10
131.906460562822
20
91.406942538412
30
0
0
VERTEX
8
0
10
132.582903950324
20
91.6178899846367
30
0
0
VERTEX
8
0
10
133.259347337825
20
91.8358487257209
30
0
0
VERTEX
8
0
10
133.935790725327
20
92.0437907725268
30
0
0
VERTEX
8
0
10
134.612234112829
20
92.2515411826698
30
0
0
VERTEX
8
0
10
135.28867750033
20
92.4698326537232
30
0
0
VERTEX
8
0
10
135.965120887832
20
92.6753184619725
30
0
0
VERTEX
8
0
10
136.641564275334
20
92.8816872067786
30
0
0
VERTEX
8
0
10
137.318007662835
20
93.0949698216862
30
0
0
VERTEX
8
0
10
137.994451050337
20
93.3007520494533
30
0
0
VERTEX
8
0
10
138.670894437839
20
93.5027803366782
30
0
0
VERTEX
8
0
10
139.34733782534
20
93.7128343607766
30
0
0
VERTEX
8
0
10
140.023781212842
20
93.9082441648171
30
0
0
VERTEX
8
0
10
140.700224600343
20
94.1020627817682
30
0
0
VERTEX
8
0
10
141.376667987845
20
94.3025324219107
30
0
0
VERTEX
8
0
10
142.053111375347
20
94.4930156345848
30
0
0
VERTEX
8
0
10
142.729554762848
20
94.682278183471
30
0
0
VERTEX
8
0
10
143.40599815035
20
94.8770904838529
30
0
0
VERTEX
8
0
10
144.082441537852
20
95.0638578587181
30
0
0
VERTEX
8
0
10
144.758884925353
20
95.2475628190998
30
0
0
VERTEX
8
0
10
145.435328312855
20
95.4441749317206
30
0
0
VERTEX
8
0
10
146.111771700357
20
95.6291600400071
30
0
0
VERTEX
8
0
10
146.788215087858
20
95.8140526852273
30
0
0
VERTEX
8
0
10
147.46465847536
20
96.0037684512014
30
0
0
VERTEX
8
0
10
148.141101862861
20
96.1816666053113
30
0
0
VERTEX
8
0
10
148.817545250363
20
96.3585392464244
30
0
0
VERTEX
8
0
10
149.493988637865
20
96.5415442602064
30
0
0
VERTEX
8
0
10
150.170432025366
20
96.7146529258565
30
0
0
VERTEX
8
0
10
150.846875412868
20
96.8813002088477
30
0
0
VERTEX
8
0
10
151.52331880037
20
97.0551743728088
30
0
0
VERTEX
8
0
10
152.199762187871
20
97.2195927280603
30
0
0
VERTEX
8
0
10
152.876205575373
20
97.3824639659707
30
0
0
VERTEX
8
0
10
153.552648962875
20
97.5630328973846
30
0
0
VERTEX
8
0
10
154.229092350376
20
97.7316386206025
30
0
0
SEQEND
8
0
0
POLYLINE
8
0
62
2
70
0
10
0
20
0
30
0
0
VERTEX
8
0
10
15.558197912538
20
10.8127622720616
30
0
0
VERTEX
8
0
10
16.2346413000396
20
10.999809945259
30
0
0
VERTEX
8
0
10
16.9110846875413
20
11.393599658978
30
0
0
VERTEX
8
0
10
17.5875280750429
20
11.6995365716054
30
0
0
VERTEX
8
0
10
18.2639714625446
20
12.0124284059829
30
0
0
VERTEX
8
0
10
18.9404148500462
20
12.3800973604672
30
0
0
VERTEX
8
0
10
19.6168582375479
20
12.6527878391815
30
0
0
VERTEX
8
0
10
20.2933016250495
20
13.4384498074911
30
0
0
VERTEX
8
0
10
20.9697450125512
20
13.3029920540415
30
0
0
VERTEX
8
0
10
21.6461884000528
20
13.9325452065218
30
0
0
VERTEX
8
0
10
22.3226317875545
20
13.9549177895192
30
0
0
VERTEX
8
0
10
22.9990751750562
20
14.4533439428736
30
0
0
VERTEX
8
0
10
23.6755185625578
20
14.6029934664659
30
0
0
VERTEX
8
0
10
24.3519619500595
20
14.9919904332963
30
0
0
VERTEX
8
0
10
25.0284053375611
20
15.2287808233597
30
0
0
VERTEX
8
0
10
25.7048487250628
20
15.5414378060937
30
0
0
VERTEX
8
0
10
26.3812921125644
20
15.8184702417047
30
0
0
VERTEX
8
0
10
27.0577355000661
20
16.0961755945205
30
0
0
VERTEX
8
0
10
27.7341788875677
20
16.3936215891955
30
0
0
VERTEX
8
0
10
28.4106222750694
20
16.6519460310073
30
0
0
VERTEX
8
0
10
29.087065662571
20
17.1371120539192
30
0
0
VERTEX
8
0
10
29.7635090500727
20
17.205487748996
30
0
0
VERTEX
8
0
10
30.4399524375743
20
17.6169914902408
30
0
0
VERTEX
8
0
10
31.116395825076
20
17.7543200449169
30
0
0
VERTEX
8
0
10
31.7928392125776
20
18.1016845006189
30
0
0
VERTEX
8
0
10
32.4692826000793
20
18.2965683257406
30
0
0
VERTEX
8
0
10
33.1457259875809
20
18.588153970285
30
0
0
VERTEX
8
0
10
33.8221693750826
20
18.8134314105234
30
0
0
VERTEX
8
0
10
34.4986127625842
20
19.0739279398168
30
0
0
VERTEX
8
0
10
35.1750561500859
20
19.3159260676589
30
0
0
VERTEX
8
0
10
35.8514995375875
20
19.5570060153659
30
0
0
VERTEX
8
0
10
36.5279429250892
20
19.8062828523664
30
0
0
VERTEX
8
0
10
37.2043863125908
20
20.0357773154347
30
0
0
VERTEX
8
0
10
37.8808297000925
20
20.3830349075396
30
0
0
VERTEX
8
0
10
38.5572730875941
20
20.5089504968505
30
0
0
VERTEX
8
0
10
39.2337164750958
20
20.8139357053944
30
0
0
VERTEX
8
0
10
39.9101598625974
20
20.9754951535183
30
0
0
VERTEX
8
0
10
40.5866032500991
20
21.2427248633356
30
0
0
VERTEX
8
0
10
41.2630466376008
20
21.4345933266011
30
0
0
VERTEX
8
0
10
41.9394900251024
20
21.668100054637
30
0
0
VERTEX
8
0
10
42.6159334126041
20
21.869490605805
30
0
0
VERTEX
8
0
10
43.2923768001057
20
22.0889757958633
30
0
0
VERTEX
8
0
10
43.9688201876074
20
22.2974446134118
30
0
0
VERTEX
8
0
10
44.645263575109
20
22.5044503792798
30
0
0
VERTEX
8
0
10
45.3217069626107
20
22.7147214459001
30
0
0
VERTEX
8
0
10
45.9981503501123
20
22.913777304165
30
0
0
VERTEX
8
0
10
46.674593737614
20
23.1793341175725
30
0
0
VERTEX
8
0
10
47.3510371251156
20
23.3163408227256
30
0
0
VERTEX
8
0
10
48.0274805126173
20
23.5546099946933
30
0
0
VERTEX
8
0
10
48.7039239001189
20
23.7116351464734
30
0
0
VERTEX
8
0
10
49.3803672876206
20
23.9250793728256
30
0
0
VERTEX
8
0
10
50.0568106751222
20
24.099246846433
30
0
0
VERTEX
8
0
10
50.7332540626239
20
24.2900957058975
30
0
0
VERTEX
8
0
10
51.4096974501255
20
24.4647977621131
30
0
0
VERTEX
8
0
10
52.0861408376272
20
24.6491103229186
30
0
0
VERTEX
8
0
10
52.7625842251288
20
24.8262223975505
30
0
0
VERTEX
8
0
10
53.4390276126305
20
25.0016589282059
30
0
0
VERTEX
8
0
10
54.1154710001321
20
25.1779452126678
30
0
0
VERTEX
8
0
10
54.7919143876338
20
25.3473498572716
30
0
0
VERTEX
8
0
10
55.4683577751354
20
25.5560072838032
30
0
0
VERTEX
8
0
10
56.1448011626371
20
25.685853899656
30
0
0
VERTEX
8
0
10
56.8212445501388
20
25.8754473308757
30
0
0
VERTEX
8
0
10
57.4976879376404
20
26.0168955045063
30
0
0
VERTEX
8
0
10
58.174131325142
20
26.1888999864857
30
0
0
VERTEX
8
0
10
58.8505747126437
20
26.3402451957873
30
0
0
VERTEX
8
0
10
59.5270181001454
20
26.4960108234407
30
0
0
VERTEX
8
0
10
60.203461487647
20
26.6437549765053
30
0
0
VERTEX
8
0
10
60.8799048751487
20
26.7964751137848
30
0
0
VERTEX
8
0
10
61.5563482626503
20
26.9441336382183
30
0
0
VERTEX
8
0
10
62.232791650152
20
27.0900316024938
30
0
0
VERTEX
8
0
10
62.9092350376536
20
27.2355007317597
30
0
0
VERTEX
8
0
10
63.5856784251553
20
27.37645703455
30
0
0
VERTEX
8
0
10
64.2621218126569
20
27.5409968174208
30
0
0
VERTEX
8
0
10
64.9385652001586
20
27.6555613529527
30
0
0
VERTEX
8
0
10
65.6150085876602
20
27.8059911807463
30
0
0
VERTEX
8
0
10
66.2914519751619
20
27.9271834910488
30
0
0
VERTEX
8
0
10
66.9678953626635
20
28.0644477812783
30
0
0
VERTEX
8
0
10
67.6443387501652
20
28.191187688271
30
0
0
VERTEX
8
0
10
68.3207821376668
20
28.3161582362082
30
0
0
VERTEX
8
0
10
68.9972255251685
20
28.4374086188942
30
0
0
VERTEX
8
0
10
69.6736689126701
20
28.5609417109858
30
0
0
VERTEX
8
0
10
70.3501123001718
20
28.6806873052775
30
0
0
VERTEX
8
0
10
71.0265556876734
20
28.7986417617887
30
0
0
VERTEX
8
0
10
71.7029990751751
20
28.9154625882811
30
0
0
VERTEX
8
0
10
72.3794424626767
20
29.0291235326593
30
0
0
VERTEX
8
0
10
73.0558858501784
20
29.1568765917987
30
0
0
VERTEX
8
0
10
73.73232923768
20
29.2522712697952
30
0
0
VERTEX
8
0
10
74.4087726251817
20
29.3691020831539
30
0
0
VERTEX
8
0
10
75.0852160126833
20
29.4679861186123
30
0
0
VERTEX
8
0
10
75.761659400185
20
29.5745298127097
30
0
0
VERTEX
8
0
10
76.4381027876867
20
29.6761841716338
30
0
0
VERTEX
8
0
10
77.1145461751883
20
29.7730309514365
30
0
0
VERTEX
8
0
10
77.79098956269
20
29.8684339996969
30
0
0
VERTEX
8
0
10
78.4674329501916
20
29.9644930269445
30
0
0
VERTEX
8
0
10
79.1438763376933
20
30.0575540966742
30
0
0
VERTEX
8
0
10
79.8203197251949
20
30.1488182020767
30
0
0
VERTEX
8
0
10
80.4967631126966
20
30.2385563000047
30
0
0
VERTEX
8
0
10
81.1732065001982
20
30.3259217342658
30
0
0
VERTEX
8
0
10
81.8496498876999
20
30.4214326584786
30
0
0
VERTEX
8
0
10
82.5260932752015
20
30.4957305979075
30
0
0
VERTEX
8
0
10
83.2025366627032
20
30.5824725526127
30
0
0
VERTEX
8
0
10
83.8789800502048
20
30.6581822529475
30
0
0
VERTEX
8
0
10
84.5554234377065
20
30.7365985935815
30
0
0
VERTEX
8
0
10
85.2318668252081
20
30.8132235439223
30
0
0
VERTEX
8
0
10
85.9083102127098
20
30.8837284512749
30
0
0
VERTEX
8
0
10
86.5847536002114
20
30.9539327825955
30
0
0
VERTEX
8
0
10
87.2611969877131
20
31.0237901009103
30
0
0
VERTEX
8
0
10
87.9376403752147
20
31.0911509191332
30
0
0
VERTEX
8
0
10
88.6140837627164
20
31.156720834557
30
0
0
VERTEX
8
0
10
89.290527150218
20
31.2205520981312
30
0
0
VERTEX
8
0
10
89.9669705377197
20
31.282466371901
30
0
0
VERTEX
8
0
10
90.6434139252213
20
31.3487264424936
30
0
0
VERTEX
8
0
10
91.319857312723
20
31.4009800611671
30
0
0
VERTEX
8
0
10
91.9963007002247
20
31.4599809953921
30
0
0
VERTEX
8
0
10
92.6727440877263
20
31.5122221616129
30
0
0
VERTEX
8
0
10
93.349187475228
20
31.5642826393824
30
0
0
VERTEX
8
0
10
94.0256308627296
20
31.6161591991455
30
0
0
VERTEX
8
0
10
94.7020742502312
20
31.6615782214019
30
0
0
VERTEX
8
0
10
95.3785176377329
20
31.7071835555564
30
0
0
VERTEX
8
0
10
96.0549610252346
20
31.7518214905602
30
0
0
VERTEX
8
0
10
96.7314044127362
20
31.7942861287419
30
0
0
VERTEX
8
0
10
97.4078478002379
20
31.8349725158006
30
0
0
VERTEX
8
0
10
98.0842911877395
20
31.8738157132164
30
0
0
VERTEX
8
0
10
98.7607345752412
20
31.9109971623924
30
0
0
VERTEX
8
0
10
99.4371779627428
20
31.9500798775284
30
0
0
VERTEX
8
0
10
100.113621350244
20
31.9798666224149
30
0
0
VERTEX
8
0
10
100.790064737746
20
32.0127818475022
30
0
0
VERTEX
8
0
10
101.466508125248
20
32.0415569947834
30
0
0
VERTEX
8
0
10
102.142951512749
20
32.0685394777722
30
0
0
VERTEX
8
0
10
102.819394900251
20
32.0960489100506
30
0
0
VERTEX
8
0
10
103.495838287753
20
32.1173197590959
30
0
0
VERTEX
8
0
10
104.172281675254
20
32.1388790168188
30
0
0
VERTEX
8
0
10
104.848725062756
20
32.1590946914341
30
0
0
VERTEX
8
0
10
105.525168450258
20
32.1773479059169
30
0
0
VERTEX
8
0
10
106.201611837759
20
32.1938409501211
30
0
0
VERTEX
8
0
10
106.878055225261
20
32.2084544895508
30
0
0
VERTEX
8
0
10
107.554498612763
20
32.2215395908084
30
0
0
VERTEX
8
0
10
108.230942000264
20
32.2349650306033
30
0
0
VERTEX
8
0
10
108.907385387766
20
32.2421757906728
30
0
0
VERTEX
8
0
10
109.583828775268
20
32.2502463959943
30
0
0
VERTEX
8
0
10
110.260272162769
20
32.2557386237796
30
0
0
VERTEX
8
0
10
110.936715550271
20
32.2586314917112
30
0
0
VERTEX
8
0
10
111.613158937773
20
32.2622208679394
30
0
0
VERTEX
8
0
10
112.289602325274
20
32.2601035228547
30
0
0
VERTEX
8
0
10
112.966045712776
20
32.2581554035508
30
0
0
VERTEX
8
0
10
113.642489100278
20
32.254649810886
30
0
0
VERTEX
8
0
10
114.318932487779
20
32.2493230673646
30
0
0
VERTEX
8
0
10
114.995375875281
20
32.2422616380582
30
0
0
VERTEX
8
0
10
115.671819262782
20
32.2333310018756
30
0
0
VERTEX
8
0
10
116.348262650284
20
32.2229341222913
30
0
0
VERTEX
8
0
10
117.024706037786
20
32.2119087422826
30
0
0
VERTEX
8
0
10
117.701149425287
20
32.1966661218454
30
0
0
VERTEX
8
0
10
118.377592812789
20
32.1809129307494
30
0
0
VERTEX
8
0
10
119.054036200291
20
32.1634601692295
30
0
0
VERTEX
8
0
10
119.730479587792
20
32.1431168924459
30
0
0
VERTEX
8
0
10
120.406922975294
20
32.1233224334155
30
0
0
VERTEX
8
0
10
121.083366362796
20
32.0985201905252
30
0
0
VERTEX
8
0
10
121.759809750297
20
32.0736518796723
30
0
0
VERTEX
8
0
10
122.436253137799
20
32.0471264638172
30
0
0
VERTEX
8
0
10
123.112696525301
20
32.0188830600837
30
0
0
VERTEX
8
0
10
123.789139912802
20
31.9889434378502
30
0
0
VERTEX
8
0
10
124.465583300304
20
31.9571822609995
30
0
0
VERTEX
8
0
10
125.142026687806
20
31.9239829679713
30
0
0
VERTEX
8
0
10
125.818470075307
20
31.8895943849367
30
0
0
VERTEX
8
0
10
126.494913462809
20
31.8522611155681
30
0
0
VERTEX
8
0
10
127.171356850311
20
31.8136569639238
30
0
0
VERTEX
8
0
10
127.847800237812
20
31.7737982587677
30
0
0
VERTEX
8
0
10
128.524243625314
20
31.7310912331384
30
0
0
VERTEX
8
0
10
129.200687012816
20
31.6886192388061
30
0
0
VERTEX
8
0
10
129.877130400317
20
31.6419179101177
30
0
0
VERTEX
8
0
10
130.553573787819
20
31.5948739434018
30
0
0
VERTEX
8
0
10
131.23001717532
20
31.5461627725708
30
0
0
VERTEX
8
0
10
131.906460562822
20
31.4958265738398
30
0
0
VERTEX
8
0
10
132.582903950324
20
31.4438568889998
30
0
0
VERTEX
8
0
10
133.259347337825
20
31.3901524470359
30
0
0
VERTEX
8
0
10
133.935790725327
20
31.3350368966663
30
0
0
VERTEX
8
0
10
134.612234112829
20
31.2784646112292
30
0
0
VERTEX
8
0
10
135.28867750033
20
31.2197453310623
30
0
0
VERTEX
8
0
10
135.965120887832
20
31.1594207951867
30
0
0
VERTEX
8
0
10
136.641564275334
20
31.098031011786
30
0
0
VERTEX
8
0
10
137.318007662835
20
31.0340556994714
30
0
0
VERTEX
8
0
10
137.994451050337
20
30.96994949025
30
0
0
VERTEX
8
0
10
138.670894437839
20
30.9024233691313
30
0
0
VERTEX
8
0
10
139.34733782534
20
30.8343003716675
30
0
0
VERTEX
8
0
10
140.023781212842
20
30.764585592642
30
0
0
VERTEX
8
0
10
140.700224600343
20
30.6933612719433
30
0
0
VERTEX
8
0
10
141.376667987845
20
30.6206125253537
30
0
0
VERTEX
8
0
10
142.053111375347
20
30.5462711546833
30
0
0
VERTEX
8
0
10
142.729554762848
20
30.4705834059914
30
0
0
VERTEX
8
0
10
143.40599815035
20
30.3934018307486
30
0
0
VERTEX
8
0
10
144.082441537852
20
30.3145873785536
30
0
0
VERTEX
8
0
10
144.758884925353
20
30.2341491429564
30
0
0
VERTEX
8
0
10
145.435328312855
20
30.1527244343699
30
0
0
VERTEX
8
0
10
146.111771700357
20
30.0691376047159
30
0
0
VERTEX
8
0
10
146.788215087858
20
29.9851064916894
30
0
0
VERTEX
8
0
10
147.46465847536
20
29.898481396856
30
0
0
VERTEX
8
0
10
148.141101862861
20
29.8110989266387
30
0
0
VERTEX
8
0
10
148.817545250363
20
29.7223086873236
30
0
0
VERTEX
8
0
10
149.493988637865
20
29.6321979067081
30
0
0
VERTEX
8
0
10
150.170432025366
20
29.5407631481046
30
0
0
VERTEX
8
0
10
150.846875412868
20
29.4479756521414
30
0
0
VERTEX
8
0
10
151.52331880037
20
29.3540057074451
30
0
0
VERTEX
8
0
10
152.199762187871
20
29.2587244359988
30
0
0
VERTEX
8
0
10
152.876205575373
20
29.1622165807947
30
0
0
VERTEX
8
0
10
153.552648962875
20
29.0643409133139
30
0
0
VERTEX
8
0
10
154.229092350376
20
28.9655976349445
30
0
0
SEQEND
8
0
0
POLYLINE
8
0
62
3
70
0
10
0
20
0
30
0
0
VERTEX
8
0
10
15.558197912538
20
15.3655514613772
30
0
0
VERTEX
8
0
10
16.2346413000396
20
15.8161980358779
30
0
0
VERTEX
8
0
10
16.9110846875413
20
16.406428994636
30
0
0
VERTEX
8
0
10
17.5875280750429
20
16.9357975988683
30
0
0
VERTEX
8
0
10
18.2639714625446
20
17.4685264226732
30
0
0
VERTEX
8
0
10
18.9404148500462
20
18.0354430303443
30
0
0
VERTEX
8
0
10
19.6168582375479
20
18.5393114907154
30
0
0
VERTEX
8
0
10
20.2933016250495
20
19.3809115239682
30
0
0
VERTEX
8
0
10
20.9697450125512
20
19.6101855902234
30
0
0
VERTEX
8
0
10
21.6461884000528
20
20.3386792528309
30
0
0
VERTEX
8
0
10
22.3226317875545
20
20.6753112934553
30
0
0
VERTEX
8
0
10
22.9990751750562
20
21.3096485277873
30
0
0
VERTEX
8
0
10
23.6755185625578
20
21.7307537759946
30
0
0
VERTEX
8
0
10
24.3519619500595
20
22.2868586098758
30
0
0
VERTEX
8
0
10
25.0284053375611
20
22.753106390875
30
0
0
VERTEX
8
0
10
25.7048487250628
20
23.2649681633154
30
0
0
VERTEX
8
0
10
26.3812921125644
20
23.7530710872245
30
0
0
VERTEX
8
0
10
27.0577355000661
20
24.2399147426177
30
0
0
VERTEX
8
0
10
27.7341788875677
20
24.7362733824686
30
0
0
VERTEX
8
0
10
28.4106222750694
20
25.2086269067486
30
0
0
VERTEX
8
0
10
29.087065662571
20
25.8162140543911
30
0
0
VERTEX
8
0
10
29.7635090500727
20
26.1687929449732
30
0
0
VERTEX
8
0
10
30.4399524375743
20
26.7232677544803
30
0
0
VERTEX
8
0
10
31.116395825076
20
27.118680292731
30
0
0
VERTEX
8
0
10
31.7928392125776
20
27.6268450026981
30
0
0
VERTEX
8
0
10
32.4692826000793
20
28.0569967701192
30
0
0
VERTEX
8
0
10
33.1457259875809
20
28.5247257630773
30
0
0
VERTEX
8
0
10
33.8221693750826
20
28.9611118428455
30
0
0
VERTEX
8
0
10
34.4986127625842
20
29.4151371907392
30
0
0
VERTEX
8
0
10
35.1750561500859
20
29.8570974900091
30
0
0
VERTEX
8
0
10
35.8514995375875
20
30.2966680153201
30
0
0
VERTEX
8
0
10
36.5279429250892
20
30.7379571723268
30
0
0
VERTEX
8
0
10
37.2043863125908
20
31.1681982715958
30
0
0
VERTEX
8
0
10
37.8808297000925
20
31.6596987010438
30
0
0
VERTEX
8
0
10
38.5572730875941
20
32.0288422340555
30
0
0
VERTEX
8
0
10
39.2337164750958
20
32.4891538910822
30
0
0
VERTEX
8
0
10
39.9101598625974
20
32.877902380248
30
0
0
VERTEX
8
0
10
40.5866032500991
20
33.310141022765
30
0
0
VERTEX
8
0
10
41.2630466376008
20
33.7148323969641
30
0
0
VERTEX
8
0
10
41.9394900251024
20
34.1217512998447
30
0
0
VERTEX
8
0
10
42.6159334126041
20
34.5193241108311
30
0
0
VERTEX
8
0
10
43.2923768001057
20
34.9232382322663
30
0
0
VERTEX
8
0
10
43.9688201876074
20
35.3199939097425
30
0
0
VERTEX
8
0
10
44.645263575109
20
35.7139904449447
30
0
0
VERTEX
8
0
10
45.3217069626107
20
36.1065507608544
30
0
0
VERTEX
8
0
10
45.9981503501123
20
36.4935089838967
30
0
0
VERTEX
8
0
10
46.674593737614
20
36.9084418356404
30
0
0
VERTEX
8
0
10
47.3510371251156
20
37.2613884308786
30
0
0
VERTEX
8
0
10
48.0274805126173
20
37.6553291542137
30
0
0
VERTEX
8
0
10
48.7039239001189
20
38.017301215361
30
0
0
VERTEX
8
0
10
49.3803672876206
20
38.3919083649323
30
0
0
VERTEX
8
0
10
50.0568106751222
20
38.7609845936998
30
0
0
VERTEX
8
0
10
50.7332540626239
20
39.117749276093
30
0
0
VERTEX
8
0
10
51.4096974501255
20
39.4746044067256
30
0
0
VERTEX
8
0
10
52.0861408376272
20
39.8324927165528
30
0
0
VERTEX
8
0
10
52.7625842251288
20
40.1856096697956
30
0
0
VERTEX
8
0
10
53.4390276126305
20
40.5358400719807
30
0
0
VERTEX
8
0
10
54.1154710001321
20
40.8832137129483
30
0
0
VERTEX
8
0
10
54.7919143876338
20
41.2275443817333
30
0
0
VERTEX
8
0
10
55.4683577751354
20
41.5830837366064
30
0
0
VERTEX
8
0
10
56.1448011626371
20
41.9074027696935
30
0
0
VERTEX
8
0
10
56.8212445501388
20
42.2474505066391
30
0
0
VERTEX
8
0
10
57.4976879376404
20
42.5752500114737
30
0
0
VERTEX
8
0
10
58.174131325142
20
42.9007832436006
30
0
0
VERTEX
8
0
10
58.8505747126437
20
43.2309530671735
30
0
0
VERTEX
8
0
10
59.5270181001454
20
43.542861935408
30
0
0
VERTEX
8
0
10
60.203461487647
20
43.8590090194483
30
0
0
VERTEX
8
0
10
60.8799048751487
20
44.173502093927
30
0
0
VERTEX
8
0
10
61.5563482626503
20
44.4844849039266
30
0
0
VERTEX
8
0
10
62.232791650152
20
44.7925501252052
30
0
0
VERTEX
8
0
10
62.9092350376536
20
45.0971114224951
30
0
0
VERTEX
8
0
10
63.5856784251553
20
45.3998793255427
30
0
0
VERTEX
8
0
10
64.2621218126569
20
45.7049039231872
30
0
0
VERTEX
8
0
10
64.9385652001586
20
45.99538641942
30
0
0
VERTEX
8
0
10
65.6150085876602
20
46.2882043422111
30
0
0
VERTEX
8
0
10
66.2914519751619
20
46.578988566005
30
0
0
VERTEX
8
0
10
66.9678953626635
20
46.8602196094842
30
0
0
VERTEX
8
0
10
67.6443387501652
20
47.1506207700378
30
0
0
VERTEX
8
0
10
68.3207821376668
20
47.4208355607218
30
0
0
VERTEX
8
0
10
68.9972255251685
20
47.6969161665348
30
0
0
VERTEX
8
0
10
69.6736689126701
20
47.9699577631101
30
0
0
VERTEX
8
0
10
70.3501123001718
20
48.240184798878
30
0
0
VERTEX
8
0
10
71.0265556876734
20
48.5075092493217
30
0
0
VERTEX
8
0
10
71.7029990751751
20
48.7710703091698
30
0
0
VERTEX
8
0
10
72.3794424626767
20
49.0334285331929
30
0
0
VERTEX
8
0
10
73.0558858501784
20
49.2931886357366
30
0
0
VERTEX
8
0
10
73.73232923768
20
49.5476678723304
30
0
0
VERTEX
8
0
10
74.4087726251817
20
49.797339332011
30
0
0
VERTEX
8
0
10
75.0852160126833
20
50.0501917471276
30
0
0
VERTEX
8
0
10
75.761659400185
20
50.2901911504452
30
0
0
VERTEX
8
0
10
76.4381027876867
20
50.5409755289985
30
0
0
VERTEX
8
0
10
77.1145461751883
20
50.7716898784338
30
0
0
VERTEX
8
0
10
77.79098956269
20
51.0086000497446
30
0
0
VERTEX
8
0
10
78.4674329501916
20
51.2417933285001
30
0
0
VERTEX
8
0
10
79.1438763376933
20
51.4725621139545
30
0
0
VERTEX
8
0
10
79.8203197251949
20
51.7004701487974
30
0
0
VERTEX
8
0
10
80.4967631126966
20
51.9245672170006
30
0
0
VERTEX
8
0
10
81.1732065001982
20
52.1476987728179
30
0
0
VERTEX
8
0
10
81.8496498876999
20
52.3656880262618
30
0
0
VERTEX
8
0
10
82.5260932752015
20
52.5834664928121
30
0
0
VERTEX
8
0
10
83.2025366627032
20
52.7928224147859
30
0
0
VERTEX
8
0
10
83.8789800502048
20
53.0077686428576
30
0
0
VERTEX
8
0
10
84.5554234377065
20
53.2087853946284
30
0
0
VERTEX
8
0
10
85.2318668252081
20
53.4206078788359
30
0
0
VERTEX
8
0
10
85.9083102127098
20
53.613561006825
30
0
0
VERTEX
8
0
10
86.5847536002114
20
53.8123434055481
30
0
0
VERTEX
8
0
10
87.2611969877131
20
54.0071413478556
30
0
0
VERTEX
8
0
10
87.9376403752147
20
54.1997331703673
30
0
0
VERTEX
8
0
10
88.6140837627164
20
54.3895259206209
30
0
0
VERTEX
8
0
10
89.290527150218
20
54.5755847255686
30
0
0
VERTEX
8
0
10
89.9669705377197
20
54.7607210603483
30
0
0
VERTEX
8
0
10
90.6434139252213
20
54.939544048455
30
0
0
VERTEX
8
0
10
91.319857312723
20
55.1207394278896
30
0
0
VERTEX
8
0
10
91.9963007002247
20
55.2919895299172
30
0
0
VERTEX
8
0
10
92.6727440877263
20
55.4695995635218
30
0
0
VERTEX
8
0
10
93.349187475228
20
55.6334943560945
30
0
0
VERTEX
8
0
10
94.0256308627296
20
55.807325494745
30
0
0
VERTEX
8
0
10
94.7020742502312
20
55.9640705067348
30
0
0
VERTEX
8
0
10
95.3785176377329
20
56.1259036664656
30
0
0
VERTEX
8
0
10
96.0549610252346
20
56.283735967496
30
0
0
VERTEX
8
0
10
96.7314044127362
20
56.4394845630841
30
0
0
VERTEX
8
0
10
97.4078478002379
20
56.5925143788821
30
0
0
VERTEX
8
0
10
98.0842911877395
20
56.7419662712944
30
0
0
VERTEX
8
0
10
98.7607345752412
20
56.8904347291656
30
0
0
VERTEX
8
0
10
99.4371779627428
20
57.0322652255183
30
0
0
VERTEX
8
0
10
100.113621350244
20
57.1775310874273
30
0
0
VERTEX
8
0
10
100.790064737746
20
57.3126093956304
30
0
0
VERTEX
8
0
10
101.466508125248
20
57.4538423732229
30
0
0
VERTEX
8
0
10
102.142951512749
20
57.5823374193796
30
0
0
VERTEX
8
0
10
102.819394900251
20
57.7194121593628
30
0
0
VERTEX
8
0
10
103.495838287753
20
57.8414850110927
30
0
0
VERTEX
8
0
10
104.172281675254
20
57.967716907535
30
0
0
VERTEX
8
0
10
104.848725062756
20
58.0900929487048
30
0
0
VERTEX
8
0
10
105.525168450258
20
58.2104587613468
30
0
0
VERTEX
8
0
10
106.201611837759
20
58.3282069056348
30
0
0
VERTEX
8
0
10
106.878055225261
20
58.4425882003879
30
0
0
VERTEX
8
0
10
107.554498612763
20
58.5558773114077
30
0
0
VERTEX
8
0
10
108.230942000264
20
58.6627375093559
30
0
0
VERTEX
8
0
10
108.907385387766
20
58.7731592390067
30
0
0
VERTEX
8
0
10
109.583828775268
20
58.8739461349494
30
0
0
VERTEX
8
0
10
110.260272162769
20
58.9801123172474
30
0
0
VERTEX
8
0
10
110.936715550271
20
59.0749645139165
30
0
0
VERTEX
8
0
10
111.613158937773
20
59.176800666209
30
0
0
VERTEX
8
0
10
112.289602325274
20
59.2658517737179
30
0
0
VERTEX
8
0
10
112.966045712776
20
59.3580625366424
30
0
0
VERTEX
8
0
10
113.642489100278
20
59.4466719050204
30
0
0
VERTEX
8
0
10
114.318932487779
20
59.5333281968373
30
0
0
VERTEX
8
0
10
114.995375875281
20
59.6174937235064
30
0
0
VERTEX
8
0
10
115.671819262782
20
59.6985470758343
30
0
0
VERTEX
8
0
10
116.348262650284
20
59.7783908533961
30
0
0
VERTEX
8
0
10
117.024706037786
20
59.8523538376507
30
0
0
VERTEX
8
0
10
117.701149425287
20
59.9294417318954
30
0
0
VERTEX
8
0
10
118.377592812789
20
59.9979368960584
30
0
0
VERTEX
8
0
10
119.054036200291
20
60.0707296338387
30
0
0
VERTEX
8
0
10
119.730479587792
20
60.1338783998334
30
0
0
VERTEX
8
0
10
120.406922975294
20
60.2023427156096
30
0
0
VERTEX
8
0
10
121.083366362796
20
60.2602636543136
30
0
0
VERTEX
8
0
10
121.759809750297
20
60.3203569916233
30
0
0
VERTEX
8
0
10
122.436253137799
20
60.3771832364518
30
0
0
VERTEX
8
0
10
123.112696525301
20
60.432123216632
30
0
0
VERTEX
8
0
10
123.789139912802
20
60.4847330689829
30
0
0
VERTEX
8
0
10
124.465583300304
20
60.5345259131066
30
0
0
VERTEX
8
0
10
125.142026687806
20
60.5830145147616
30
0
0
VERTEX
8
0
10
125.818470075307
20
60.626383527819
30
0
0
VERTEX
8
0
10
126.494913462809
20
60.672134491261
30
0
0
VERTEX
8
0
10
127.171356850311
20
60.7106221072449
30
0
0
VERTEX
8
0
10
127.847800237812
20
60.7522056053782
30
0
0
VERTEX
8
0
10
128.524243625314
20
60.7859266596059
30
0
0
VERTEX
8
0
10
129.200687012816
20
60.8233463085466
30
0
0
VERTEX
8
0
10
129.877130400317
20
60.8524145887131
30
0
0
VERTEX
8
0
10
130.553573787819
20
60.8827460272746
30
0
0
VERTEX
8
0
10
131.23001717532
20
60.9102096123656
30
0
0
VERTEX
8
0
10
131.906460562822
20
60.9358877521655
30
0
0
VERTEX
8
0
10
132.582903950324
20
60.9594419596996
30
0
0
VERTEX
8
0
10
133.259347337825
20
60.980518580732
30
0
0
VERTEX
8
0
10
133.935790725327
20
61.0002485923841
30
0
0
VERTEX
8
0
10
134.612234112829
20
61.0157491902726
30
0
0
VERTEX
8
0
10
135.28867750033
20
61.0327734507421
30
0
0
VERTEX
8
0
10
135.965120887832
20
61.0440106277116
30
0
0
VERTEX
8
0
10
136.641564275334
20
61.0571677261134
30
0
0
VERTEX
8
0
10
137.318007662835
20
61.0642596725766
30
0
0
VERTEX
8
0
10
137.994451050337
20
61.0735901608654
30
0
0
VERTEX
8
0
10
138.670894437839
20
61.0766557986702
30
0
0
VERTEX
8
0
10
139.34733782534
20
61.0802147422492
30
0
0
VERTEX
8
0
10
140.023781212842
20
61.0813666729619
30
0
0
VERTEX
8
0
10
140.700224600343
20
61.0808948850442
30
0
0
VERTEX
8
0
10
141.376667987845
20
61.0785685265617
30
0
0
VERTEX
8
0
10
142.053111375347
20
61.0741594604618
30
0
0
VERTEX
8
0
10
142.729554762848
20
61.0684465628306
30
0
0
VERTEX
8
0
10
143.40599815035
20
61.0594669013817
30
0
0
VERTEX
8
0
10
144.082441537852
20
61.0511954062821
30
0
0
VERTEX
8
0
10
144.758884925353
20
61.0386581202466
30
0
0
VERTEX
8
0
10
145.435328312855
20
61.0270195967175
30
0
0
VERTEX
8
0
10
146.111771700357
20
61.0110574483047
30
0
0
VERTEX
8
0
10
146.788215087858
20
60.9961341338523
30
0
0
VERTEX
8
0
10
147.46465847536
20
60.9768827617378
30
0
0
VERTEX
8
0
10
148.141101862861
20
60.9575609700303
30
0
0
VERTEX
8
0
10
148.817545250363
20
60.936363416123
30
0
0
VERTEX
8
0
10
149.493988637865
20
60.9137994876487
30
0
0
VERTEX
8
0
10
150.170432025366
20
60.8897409443897
30
0
0
VERTEX
8
0
10
150.846875412868
20
60.864072050763
30
0
0
VERTEX
8
0
10
151.52331880037
20
60.8372698368358
30
0
0
VERTEX
8
0
10
152.199762187871
20
60.8082016431531
30
0
0
VERTEX
8
0
10
152.876205575373
20
60.7792184176428
30
0
0
VERTEX
8
0
10
153.552648962875
20
60.7474617878032
30
0
0
VERTEX
8
0
10
154.229092350376
20
60.7158698364056
30
0
0
SEQEND
8
0
0
POLYLINE
8
0
62
4
70
0
10
0
20
0
30
0
0
VERTEX
8
0
10
15.558197912538
20
14.5750692453621
30
0
0
VERTEX
8
0
10
16.2346413000396
20
15.1102083356169
30
0
0
VERTEX
8
0
10
16.9110846875413
20
15.6401564462919
30
0
0
VERTEX
8
0
10
17.5875280750429
20
16.1702561561859
30
0
0
VERTEX
8
0
10
18.2639714625446
20
16.6986613133261
30
0
0
VERTEX
8
0
10
18.9404148500462
20
17.2208182264251
30
0
0
VERTEX
8
0
10
19.6168582375479
20
17.7458627227942
30
0
0
VERTEX
8
0
10
20.2933016250495
20
18.255555135934
30
0
0
VERTEX
8
0
10
20.9697450125512
20
18.7876605832425
30
0
0
VERTEX
8
0
10
21.6461884000528
20
19.2949251265982
30
0
0
VERTEX
8
0
10
22.3226317875545
20
19.8247400645549
30
0
0
VERTEX
8
0
10
22.9990751750562
20
20.3277839630737
30
0
0
VERTEX
8
0
10
23.6755185625578
20
20.8543078990376
30
0
0
VERTEX
8
0
10
24.3519619500595
20
21.3531519023486
30
0
0
VERTEX
8
0
10
25.0284053375611
20
21.8648482080712
30
0
0
VERTEX
8
0
10
25.7048487250628
20
22.3709288460637
30
0
0
VERTEX
8
0
10
26.3812921125644
20
22.8769467861357
30
0
0
VERTEX
8
0
10
27.0577355000661
20
23.3810397187627
30
0
0
VERTEX
8
0
10
27.7341788875677
20
23.8813050130156
30
0
0
VERTEX
8
0
10
28.4106222750694
20
24.3834292708681
30
0
0
VERTEX
8
0
10
29.087065662571
20
24.8715484626351
30
0
0
VERTEX
8
0
10
29.7635090500727
20
25.3812624684342
30
0
0
VERTEX
8
0
10
30.4399524375743
20
25.8655243818346
30
0
0
VERTEX
8
0
10
31.116395825076
20
26.3716128009202
30
0
0
VERTEX
8
0
10
31.7928392125776
20
26.8485073048087
30
0
0
VERTEX
8
0
10
32.4692826000793
20
27.347413224518
30
0
0
VERTEX
8
0
10
33.1457259875809
20
27.8199373496621
30
0
0
VERTEX
8
0
10
33.8221693750826
20
28.3045173366552
30
0
0
VERTEX
8
0
10
34.4986127625842
20
28.7871728008194
30
0
0
VERTEX
8
0
10
35.1750561500859
20
29.2695952714965
30
0
0
VERTEX
8
0
10
35.8514995375875
20
29.750074295714
30
0
0
VERTEX
8
0
10
36.5279429250892
20
30.2268265914703
30
0
0
VERTEX
8
0
10
37.2043863125908
20
30.7032469817527
30
0
0
VERTEX
8
0
10
37.8808297000925
20
31.1651269656476
30
0
0
VERTEX
8
0
10
38.5572730875941
20
31.6471133485304
30
0
0
VERTEX
8
0
10
39.2337164750958
20
32.1049914371527
30
0
0
VERTEX
8
0
10
39.9101598625974
20
32.5768287272037
30
0
0
VERTEX
8
0
10
40.5866032500991
20
33.0254617211359
30
0
0
VERTEX
8
0
10
41.2630466376008
20
33.4946749343469
30
0
0
VERTEX
8
0
10
41.9394900251024
20
33.9393642174983
30
0
0
VERTEX
8
0
10
42.6159334126041
20
34.3327711259386
30
0
0
VERTEX
8
0
10
43.2923768001057
20
34.7358980118296
30
0
0
VERTEX
8
0
10
43.9688201876074
20
35.138817511552
30
0
0
VERTEX
8
0
10
44.645263575109
20
35.5398633738615
30
0
0
VERTEX
8
0
10
45.3217069626107
20
35.8759071872607
30
0
0
VERTEX
8
0
10
45.9981503501123
20
36.2315584835289
30
0
0
VERTEX
8
0
10
46.674593737614
20
36.5734972100005
30
0
0
VERTEX
8
0
10
47.3510371251156
20
36.9361669705997
30
0
0
VERTEX
8
0
10
48.0274805126173
20
37.2779856842629
30
0
0
VERTEX
8
0
10
48.7039239001189
20
37.6389120268395
30
0
0
VERTEX
8
0
10
49.3803672876206
20
37.9771062168298
30
0
0
VERTEX
8
0
10
50.0568106751222
20
38.3324536938642
30
0
0
VERTEX
8
0
10
50.7332540626239
20
38.6635980215848
30
0
0
VERTEX
8
0
10
51.4096974501255
20
39.0050455053164
30
0
0
VERTEX
8
0
10
52.0861408376272
20
39.3415732981836
30
0
0
VERTEX
8
0
10
52.7625842251288
20
39.6778437510653
30
0
0
VERTEX
8
0
10
53.4390276126305
20
40.0122902231795
30
0
0
VERTEX
8
0
10
54.1154710001321
20
40.3433590398101
30
0
0
VERTEX
8
0
10
54.7919143876338
20
40.6756785716552
30
0
0
VERTEX
8
0
10
55.4683577751354
20
40.9962966374668
30
0
0
VERTEX
8
0
10
56.1448011626371
20
41.3346929846557
30
0
0
VERTEX
8
0
10
56.8212445501388
20
41.6518884735355
30
0
0
VERTEX
8
0
10
57.4976879376404
20
41.9865694327756
30
0
0
VERTEX
8
0
10
58.174131325142
20
42.2985054809078
30
0
0
VERTEX
8
0
10
58.8505747126437
20
42.6277812253066
30
0
0
VERTEX
8
0
10
59.5270181001454
20
42.9358016827104
30
0
0
VERTEX
8
0
10
60.203461487647
20
43.2530633679856
30
0
0
VERTEX
8
0
10
60.8799048751487
20
43.5688810309772
30
0
0
VERTEX
8
0
10
61.5563482626503
20
43.8842315577032
30
0
0
VERTEX
8
0
10
62.232791650152
20
44.1976825040851
30
0
0
VERTEX
8
0
10
62.9092350376536
20
44.5078217570511
30
0
0
VERTEX
8
0
10
63.5856784251553
20
44.81526334649
30
0
0
VERTEX
8
0
10
64.2621218126569
20
45.110904870026
30
0
0
VERTEX
8
0
10
64.9385652001586
20
45.4222863622532
30
0
0
VERTEX
8
0
10
65.6150085876602
20
45.7141520587638
30
0
0
VERTEX
8
0
10
66.2914519751619
20
46.023669812787
30
0
0
VERTEX
8
0
10
66.9678953626635
20
46.3133998880244
30
0
0
VERTEX
8
0
10
67.6443387501652
20
46.6187511128195
30
0
0
VERTEX
8
0
10
68.3207821376668
20
46.9047138561594
30
0
0
VERTEX
8
0
10
68.9972255251685
20
47.1882410426663
30
0
0
VERTEX
8
0
10
69.6736689126701
20
47.4697054262053
30
0
0
VERTEX
8
0
10
70.3501123001718
20
47.7505758405199
30
0
0
VERTEX
8
0
10
71.0265556876734
20
48.0295576641136
30
0
0
VERTEX
8
0
10
71.7029990751751
20
48.2533405414155
30
0
0
VERTEX
8
0
10
72.3794424626767
20
48.49261226613
30
0
0
VERTEX
8
0
10
73.0558858501784
20
48.720905846608
30
0
0
VERTEX
8
0
10
73.73232923768
20
48.963287844822
30
0
0
VERTEX
8
0
10
74.4087726251817
20
49.1784641456827
30
0
0
VERTEX
8
0
10
75.0852160126833
20
49.4108369542465
30
0
0
VERTEX
8
0
10
75.761659400185
20
49.6257010929287
30
0
0
VERTEX
8
0
10
76.4381027876867
20
49.852604655945
30
0
0
VERTEX
8
0
10
77.1145461751883
20
50.0607960334785
30
0
0
VERTEX
8
0
10
77.79098956269
20
50.2762034217027
30
0
0
VERTEX
8
0
10
78.4674329501916
20
50.4875232072219
30
0
0
VERTEX
8
0
10
79.1438763376933
20
50.7004064991783
30
0
0
VERTEX
8
0
10
79.8203197251949
20
50.9124883108872
30
0
0
VERTEX
8
0
10
80.4967631126966
20
51.1216489707935
30
0
0
VERTEX
8
0
10
81.1732065001982
20
51.3312732239458
30
0
0
VERTEX
8
0
10
81.8496498876999
20
51.5309030256158
30
0
0
VERTEX
8
0
10
82.5260932752015
20
51.7428715240694
30
0
0
VERTEX
8
0
10
83.2025366627032
20
51.9389694322186
30
0
0
VERTEX
8
0
10
83.8789800502048
20
52.1472693514981
30
0
0
VERTEX
8
0
10
84.5554234377065
20
52.3370800567881
30
0
0
VERTEX
8
0
10
85.2318668252081
20
52.5385969554388
30
0
0
VERTEX
8
0
10
85.9083102127098
20
52.7245390199605
30
0
0
VERTEX
8
0
10
86.5847536002114
20
52.9166000602978
30
0
0
VERTEX
8
0
10
87.2611969877131
20
53.1078675774292
30
0
0
VERTEX
8
0
10
87.9376403752147
20
53.2984058077687
30
0
0
VERTEX
8
0
10
88.6140837627164
20
53.4871413448953
30
0
0
VERTEX
8
0
10
89.290527150218
20
53.6730890909871
30
0
0
VERTEX
8
0
10
89.9669705377197
20
53.8592075297539
30
0
0
VERTEX
8
0
10
90.6434139252213
20
54.0363785886487
30
0
0
VERTEX
8
0
10
91.319857312723
20
54.2240745786398
30
0
0
VERTEX
8
0
10
91.9963007002247
20
54.3977359912377
30
0
0
VERTEX
8
0
10
92.6727440877263
20
54.578145876252
30
0
0
VERTEX
8
0
10
93.349187475228
20
54.7452562830745
30
0
0
VERTEX
8
0
10
94.0256308627296
20
54.9225570557609
30
0
0
VERTEX
8
0
10
94.7020742502312
20
55.0861960162373
30
0
0
VERTEX
8
0
10
95.3785176377329
20
55.2587656753169
30
0
0
VERTEX
8
0
10
96.0549610252346
20
55.4269523500306
30
0
0
VERTEX
8
0
10
96.7314044127362
20
55.5942378434507
30
0
0
VERTEX
8
0
10
97.4078478002379
20
55.7597476728082
30
0
0
VERTEX
8
0
10
98.0842911877395
20
55.9184713283557
30
0
0
VERTEX
8
0
10
98.7607345752412
20
56.0782543826913
30
0
0
VERTEX
8
0
10
99.4371779627428
20
56.2301935040695
30
0
0
VERTEX
8
0
10
100.113621350244
20
56.3908646311174
30
0
0
VERTEX
8
0
10
100.790064737746
20
56.5060131000516
30
0
0
VERTEX
8
0
10
101.466508125248
20
56.640516148247
30
0
0
VERTEX
8
0
10
102.142951512749
20
56.7631315842963
30
0
0
VERTEX
8
0
10
102.819394900251
20
56.8898800430476
30
0
0
VERTEX
8
0
10
103.495838287753
20
57.0017493302333
30
0
0
VERTEX
8
0
10
104.172281675254
20
57.1177111405972
30
0
0
VERTEX
8
0
10
104.848725062756
20
57.2305494848934
30
0
0
VERTEX
8
0
10
105.525168450258
20
57.3514585588306
30
0
0
VERTEX
8
0
10
106.201611837759
20
57.4751112768091
30
0
0
VERTEX
8
0
10
106.878055225261
20
57.5963801880622
30
0
0
VERTEX
8
0
10
107.554498612763
20
57.7173734476285
30
0
0
VERTEX
8
0
10
108.230942000264
20
57.8361857538307
30
0
0
VERTEX
8
0
10
108.907385387766
20
57.9634102318641
30
0
0
VERTEX
8
0
10
109.583828775268
20
58.0803439304295
30
0
0
VERTEX
8
0
10
110.260272162769
20
58.2041188477053
30
0
0
VERTEX
8
0
10
110.936715550271
20
58.3011978091671
30
0
0
VERTEX
8
0
10
111.613158937773
20
58.4024004741046
30
0
0
VERTEX
8
0
10
112.289602325274
20
58.4937983596565
30
0
0
VERTEX
8
0
10
112.966045712776
20
58.5882969324547
30
0
0
VERTEX
8
0
10
113.642489100278
20
58.6828241458217
30
0
0
VERTEX
8
0
10
114.318932487779
20
58.7764582688939
30
0
0
VERTEX
8
0
10
114.995375875281
20
58.8684986950195
30
0
0
VERTEX
8
0
10
115.671819262782
20
58.958385931359
30
0
0
VERTEX
8
0
10
116.348262650284
20
59.0757347673588
30
0
0
VERTEX
8
0
10
117.024706037786
20
59.1857644866478
30
0
0
VERTEX
8
0
10
117.701149425287
20
59.3011808357901
30
0
0
VERTEX
8
0
10
118.377592812789
20
59.4081200667232
30
0
0
VERTEX
8
0
10
119.054036200291
20
59.4863854438764
30
0
0
VERTEX
8
0
10
119.730479587792
20
59.5611369295265
30
0
0
VERTEX
8
0
10
120.406922975294
20
59.6409246137234
30
0
0
VERTEX
8
0
10
121.083366362796
20
59.7127293109194
30
0
0
VERTEX
8
0
10
121.759809750297
20
59.7867208265495
30
0
0
VERTEX
8
0
10
122.436253137799
20
59.8582626332696
30
0
0
VERTEX
8
0
10
123.112696525301
20
59.9287769652292
30
0
0
VERTEX
8
0
10
123.789139912802
20
59.9978007651066
30
0
0
VERTEX
8
0
10
124.465583300304
20
60.090389217265
30
0
0
VERTEX
8
0
10
125.142026687806
20
60.1756406443596
30
0
0
VERTEX
8
0
10
125.818470075307
20
60.2562923900314
30
0
0
VERTEX
8
0
10
126.494913462809
20
60.3408193337118
30
0
0
VERTEX
8
0
10
127.171356850311
20
60.3829345661378
30
0
0
VERTEX
8
0
10
127.847800237812
20
60.4399523095897
30
0
0
VERTEX
8
0
10
128.524243625314
20
60.4905138756122
30
0
0
VERTEX
8
0
10
129.200687012816
20
60.5382575802923
30
0
0
VERTEX
8
0
10
129.877130400317
20
60.5746649473767
30
0
0
VERTEX
8
0
10
130.553573787819
20
60.6124943172908
30
0
0
VERTEX
8
0
10
131.23001717532
20
60.6482842189347
30
0
0
VERTEX
8
0
10
131.906460562822
20
60.6765901105415
30
0
0
VERTEX
8
0
10
132.582903950324
20
60.7001305537248
30
0
0
VERTEX
8
0
10
133.259347337825
20
60.7220815044698
30
0
0
VERTEX
8
0
10
133.935790725327
20
60.7434063058632
30
0
0
VERTEX
8
0
10
134.612234112829
20
60.7654709525856
30
0
0
VERTEX
8
0
10
135.28867750033
20
60.7915569795894
30
0
0
VERTEX
8
0
10
135.965120887832
20
60.8126220771248
30
0
0
VERTEX
8
0
10
136.641564275334
20
60.8361224180443
30
0
0
VERTEX
8
0
10
137.318007662835
20
60.8583896431225
30
0
0
VERTEX
8
0
10
137.994451050337
20
60.8835539940894
30
0
0
VERTEX
8
0
10
138.670894437839
20
60.9041129211077
30
0
0
VERTEX
8
0
10
139.34733782534
20
60.925405286319
30
0
0
VERTEX
8
0
10
140.023781212842
20
60.9384169577733
30
0
0
VERTEX
8
0
10
140.700224600343
20
60.950139735949
30
0
0
VERTEX
8
0
10
141.376667987845
20
60.9607215602895
30
0
0
VERTEX
8
0
10
142.053111375347
20
60.9699634210127
30
0
0
VERTEX
8
0
10
142.729554762848
20
60.9785175303883
30
0
0
VERTEX
8
0
10
143.40599815035
20
60.984487668959
30
0
0
VERTEX
8
0
10
144.082441537852
20
60.9919182771173
30
0
0
VERTEX
8
0
10
144.758884925353
20
60.9958202466022
30
0
0
VERTEX
8
0
10
145.435328312855
20
61.0089128475677
30
0
0
VERTEX
8
0
10
146.111771700357
20
61.0176741047888
30
0
0
VERTEX
8
0
10
146.788215087858
20
61.0275987783098
30
0
0
VERTEX
8
0
10
147.46465847536
20
61.0343748792447
30
0
0
VERTEX
8
0
10
148.141101862861
20
61.0362483184047
30
0
0
VERTEX
8
0
10
148.817545250363
20
61.0378354945005
30
0
0
VERTEX
8
0
10
149.493988637865
20
61.0386070618757
30
0
0
VERTEX
8
0
10
150.170432025366
20
61.0384324536823
30
0
0
VERTEX
8
0
10
150.846875412868
20
61.0299070750996
30
0
0
VERTEX
8
0
10
151.52331880037
20
61.0225858014114
30
0
0
VERTEX
8
0
10
152.199762187871
20
61.0135472894119
30
0
0
VERTEX
8
0
10
152.876205575373
20
61.0050896026073
30
0
0
VERTEX
8
0
10
153.552648962875
20
61.0153514279758
30
0
0
VERTEX
8
0
10
154.229092350376
20
61.0196858445506
30
0
0
SEQEND
8
0
0
POLYLINE
8
0
62
2
70
0
10
0
20
0
30
0
0
VERTEX
8
0
10
15.558197912538
20
0
30
0
0
VERTEX
8
0
10
16.2346413000396
20
0
30
0
0
VERTEX
8
0
10
16.9110846875413
20
0
30
0
0
VERTEX
8
0
10
17.5875280750429
20
0
30
0
0
VERTEX
8
0
10
18.2639714625446
20
0
30
0
0
VERTEX
8
0
10
18.9404148500462
20
0
30
0
0
VERTEX
8
0
10
19.6168582375479
20
0
30
0
0
VERTEX
8
0
10
20.2933016250495
20
0
30
0
0
VERTEX
8
0
10
20.9697450125512
20
0
30
0
0
VERTEX
8
0
10
21.6461884000528
20
0
30
0
0
VERTEX
8
0
10
22.3226317875545
20
0
30
0
0
VERTEX
8
0
10
22.9990751750562
20
0
30
0
0
VERTEX
8
0
10
23.6755185625578
20
0
30
0
0
VERTEX
8
0
10
24.3519619500595
20
0
30
0
0
VERTEX
8
0
10
25.0284053375611
20
0
30
0
0
VERTEX
8
0
10
25.7048487250628
20
0
30
0
0
VERTEX
8
0
10
26.3812921125644
20
0
30
0
0
VERTEX
8
0
10
27.0577355000661
20
0
30
0
0
VERTEX
8
0
10
27.7341788875677
20
0
30
0
0
VERTEX
8
0
10
28.4106222750694
20
0
30
0
0
VERTEX
8
0
10
29.087065662571
20
0
30
0
0
VERTEX
8
0
10
29.7635090500727
20
0
30
0
0
VERTEX
8
0
10
30.4399524375743
20
0
30
0
0
VERTEX
8
0
10
31.116395825076
20
0
30
0
0
VERTEX
8
0
10
31.7928392125776
20
0
30
0
0
VERTEX
8
0
10
32.4692826000793
20
0
30
0
0
VERTEX
8
0
10
33.1457259875809
20
0
30
0
0
VERTEX
8
0
10
33.8221693750826
20
0
30
0
0
VERTEX
8
0
10
34.4986127625842
20
0
30
0
0
VERTEX
8
0
10
35.1750561500859
20
0
30
0
0
VERTEX
8
0
10
35.8514995375875
20
0
30
0
0
VERTEX
8
0
10
36.5279429250892
20
0
30
0
0
VERTEX
8
0
10
37.2043863125908
20
1.55839651149679
30
0
0
VERTEX
8
0
10
37.8808297000925
20
1.53665258466126
30
0
0
VERTEX
8
0
10
38.5572730875941
20
2.39848065182115
30
0
0
VERTEX
8
0
10
39.2337164750958
20
3.21022577823147
30
0
0
VERTEX
8
0
10
39.9101598625974
20
3.27760577235209
30
0
0
VERTEX
8
0
10
40.5866032500991
20
3.7995003782842
30
0
0
VERTEX
8
0
10
41.2630466376008
20
4.38803813262627
30
0
0
VERTEX
8
0
10
41.9394900251024
20
4.4928250114052
30
0
0
VERTEX
8
0
10
42.6159334126041
20
4.91786697407332
30
0
0
VERTEX
8
0
10
43.2923768001057
20
5.41072397618233
30
0
0
VERTEX
8
0
10
43.9688201876074
20
5.53978585510691
30
0
0
VERTEX
8
0
10
44.645263575109
20
5.91592443573565
30
0
0
VERTEX
8
0
10
45.3217069626107
20
6.35331151124627
30
0
0
VERTEX
8
0
10
45.9981503501123
20
6.49999025763025
30
0
0
VERTEX
8
0
10
46.674593737614
20
6.84607798742281
30
0
0
VERTEX
8
0
10
47.3510371251156
20
7.24661169435805
30
0
0
VERTEX
8
0
10
48.0274805126173
20
7.40675092443494
30
0
0
VERTEX
8
0
10
48.7039239001189
20
7.73229663527106
30
0
0
VERTEX
8
0
10
49.3803672876206
20
8.10629097729515
30
0
0
VERTEX
8
0
10
50.0568106751222
20
8.27701112851821
30
0
0
VERTEX
8
0
10
50.7332540626239
20
8.58750234891902
30
0
0
VERTEX
8
0
10
51.4096974501255
20
8.94131094161697
30
0
0
VERTEX
8
0
10
52.0861408376272
20
9.12048672256246
30
0
0
VERTEX
8
0
10
52.7625842251288
20
9.41936965408851
30
0
0
VERTEX
8
0
10
53.4390276126305
20
9.75719059078944
30
0
0
VERTEX
8
0
10
54.1154710001321
20
9.94318449366927
30
0
0
VERTEX
8
0
10
54.7919143876338
20
10.23275149427
30
0
0
VERTEX
8
0
10
55.4683577751354
20
10.5574994732235
30
0
0
VERTEX
8
0
10
56.1448011626371
20
10.7490094610628
30
0
0
VERTEX
8
0
10
56.8212445501388
20
11.0308492645794
30
0
0
VERTEX
8
0
10
57.4976879376404
20
11.344623351358
30
0
0
VERTEX
8
0
10
58.174131325142
20
11.5405886356441
30
0
0
VERTEX
8
0
10
58.8505747126437
20
11.8158359669388
30
0
0
VERTEX
8
0
10
59.5270181001454
20
12.1201905373036
30
0
0
VERTEX
8
0
10
60.203461487647
20
12.3197298078125
30
0
0
VERTEX
8
0
10
60.8799048751487
20
12.5892133741793
30
0
0
VERTEX
8
0
10
61.5563482626503
20
12.8853246200205
30
0
0
VERTEX
8
0
10
62.232791650152
20
13.0876937122236
30
0
0
VERTEX
8
0
10
62.9092350376536
20
13.35202866946
30
0
0
VERTEX
8
0
10
63.5856784251553
20
13.6408018434791
30
0
0
VERTEX
8
0
10
64.2621218126569
20
13.8453636923111
30
0
0
VERTEX
8
0
10
64.9385652001586
20
14.1050119058849
30
0
0
VERTEX
8
0
10
65.6150085876602
20
14.3871530845948
30
0
0
VERTEX
8
0
10
66.2914519751619
20
14.5933557840525
30
0
0
VERTEX
8
0
10
66.9678953626635
20
14.8486664851074
30
0
0
VERTEX
8
0
10
67.6443387501652
20
15.1247321323515
30
0
0
VERTEX
8
0
10
68.3207821376668
20
15.3320925328687
30
0
0
VERTEX
8
0
10
68.9972255251685
20
15.5833305520538
30
0
0
VERTEX
8
0
10
69.6736689126701
20
15.853762673857
30
0
0
VERTEX
8
0
10
70.3501123001718
20
16.0618538737566
30
0
0
VERTEX
8
0
10
71.0265556876734
20
16.3092197340869
30
0
0
VERTEX
8
0
10
71.7029990751751
20
16.5743713866894
30
0
0
VERTEX
8
0
10
72.3794424626767
20
16.782813029609
30
0
0
VERTEX
8
0
10
73.0558858501784
20
17.0264575493403
30
0
0
VERTEX
8
0
10
73.73232923768
20
17.2866117136236
30
0
0
VERTEX
8
0
10
74.4087726251817
20
17.4950623503234
30
0
0
VERTEX
8
0
10
75.0852160126833
20
17.7350974503649
30
0
0
VERTEX
8
0
10
75.761659400185
20
17.9904812382988
30
0
0
VERTEX
8
0
10
76.4381027876867
20
18.1986322352332
30
0
0
VERTEX
8
0
10
77.1145461751883
20
18.4351390655619
30
0
0
VERTEX
8
0
10
77.79098956269
20
18.6859345745847
30
0
0
VERTEX
8
0
10
78.4674329501916
20
18.8935051997224
30
0
0
VERTEX
8
0
10
79.1438763376933
20
19.1265403357954
30
0
0
VERTEX
8
0
10
79.8203197251949
20
19.372893052959
30
0
0
VERTEX
8
0
10
80.4967631126966
20
19.5796264701471
30
0
0
VERTEX
8
0
10
81.1732065001982
20
19.8092266964113
30
0
0
VERTEX
8
0
10
81.8496498876999
20
20.0512520826037
30
0
0
VERTEX
8
0
10
82.5260932752015
20
20.2569120562135
30
0
0
VERTEX
8
0
10
83.2025366627032
20
20.4830980997423
30
0
0
VERTEX
8
0
10
83.8789800502048
20
20.7208868032078
30
0
0
VERTEX
8
0
10
84.5554234377065
20
20.9252549639568
30
0
0
VERTEX
8
0
10
85.2318668252081
20
21.1480344374911
30
0
0
VERTEX
8
0
10
85.9083102127098
20
21.3816564613559
30
0
0
VERTEX
8
0
10
86.5847536002114
20
21.5845300203178
30
0
0
VERTEX
8
0
10
87.2611969877131
20
21.8038997626177
30
0
0
VERTEX
8
0
10
87.9376403752147
20
22.0334078253072
30
0
0
VERTEX
8
0
10
88.6140837627164
20
22.23459764904
30
0
0
VERTEX
8
0
10
89.290527150218
20
22.4505456009547
30
0
0
VERTEX
8
0
10
89.9669705377197
20
22.6759778670477
30
0
0
VERTEX
8
0
10
90.6434139252213
20
22.8753068462223
30
0
0
VERTEX
8
0
10
91.319857312723
20
23.0878135651933
30
0
0
VERTEX
8
0
10
91.9963007002247
20
23.3091958807085
30
0
0
VERTEX
8
0
10
92.6727440877263
20
23.5064975389995
30
0
0
VERTEX
8
0
10
93.349187475228
20
23.7155374300102
30
0
0
VERTEX
8
0
10
94.0256308627296
20
23.932885163872
30
0
0
VERTEX
8
0
10
94.7020742502312
20
24.1280024652402
30
0
0
VERTEX
8
0
10
95.3785176377329
20
24.3335447868936
30
0
0
VERTEX
8
0
10
96.0549610252346
20
24.5468643573265
30
0
0
VERTEX
8
0
10
96.7314044127362
20
24.7396486779183
30
0
0
VERTEX
8
0
10
97.4078478002379
20
24.9416583693913
30
0
0
VERTEX
8
0
10
98.0842911877395
20
25.1509485159769
30
0
0
VERTEX
8
0
10
98.7607345752412
20
25.34125875367
30
0
0
VERTEX
8
0
10
99.4371779627428
20
25.5396971175147
30
0
0
VERTEX
8
0
10
100.113621350244
20
25.7449499669101
30
0
0
VERTEX
8
0
10
100.790064737746
20
25.932651766524
30
0
0
VERTEX
8
0
10
101.466508125248
20
26.1274770352312
30
0
0
VERTEX
8
0
10
102.142951512749
20
26.3286789981263
30
0
0
VERTEX
8
0
10
102.819394900251
20
26.5136440744184
30
0
0
VERTEX
8
0
10
103.495838287753
20
26.7048118822531
30
0
0
VERTEX
8
0
10
104.172281675254
20
26.9019444117553
30
0
0
VERTEX
8
0
10
104.848725062756
20
27.0840499555133
30
0
0
VERTEX
8
0
10
105.525168450258
20
27.2715137329741
30
0
0
VERTEX
8
0
10
106.201611837759
20
27.4645539683829
30
0
0
VERTEX
8
0
10
106.878055225261
20
27.6436821234522
30
0
0
VERTEX
8
0
10
107.554498612763
20
27.8273934283232
30
0
0
VERTEX
8
0
10
108.230942000264
20
28.0163147437998
30
0
0
VERTEX
8
0
10
108.907385387766
20
28.1923521450509
30
0
0
VERTEX
8
0
10
109.583828775268
20
28.3722609408798
30
0
0
VERTEX
8
0
10
110.260272162769
20
28.5570334148669
30
0
0
VERTEX
8
0
10
110.936715550271
20
28.7298707786744
30
0
0
VERTEX
8
0
10
111.613158937773
20
28.9059256699606
30
0
0
VERTEX
8
0
10
112.289602325274
20
29.0865164880561
30
0
0
VERTEX
8
0
10
112.966045712776
20
29.2560482481961
30
0
0
VERTEX
8
0
10
113.642489100278
20
29.4281966795837
30
0
0
VERTEX
8
0
10
114.318932487779
20
29.604570481683
30
0
0
VERTEX
8
0
10
114.995375875281
20
29.7706944647875
30
0
0
VERTEX
8
0
10
115.671819262782
20
29.9388828901688
30
0
0
VERTEX
8
0
10
116.348262650284
20
30.1110020704474
30
0
0
VERTEX
8
0
10
117.024706037786
20
30.2736192061335
30
0
0
VERTEX
8
0
10
117.701149425287
20
30.4377932327302
30
0
0
VERTEX
8
0
10
118.377592812789
20
30.6056181998722
30
0
0
VERTEX
8
0
10
119.054036200291
20
30.7646322611178
30
0
0
VERTEX
8
0
10
119.730479587792
20
30.9247367726925
30
0
0
VERTEX
8
0
10
120.406922975294
20
31.0882261763708
30
0
0
VERTEX
8
0
10
121.083366362796
20
31.2435435467182
30
0
0
VERTEX
8
0
10
121.759809750297
20
31.3995228091953
30
0
0
VERTEX
8
0
10
122.436253137799
20
31.5586337378927
30
0
0
VERTEX
8
0
10
123.112696525301
20
31.7101632024068
30
0
0
VERTEX
8
0
10
123.789139912802
20
31.8619609549981
30
0
0
VERTEX
8
0
10
124.465583300304
20
32.0166491095249
30
0
0
VERTEX
8
0
10
125.142026687806
20
32.1643016668032
30
0
0
VERTEX
8
0
10
125.818470075307
20
32.3118612009763
30
0
0
VERTEX
8
0
10
126.494913462809
20
32.4620810473088
30
0
0
VERTEX
8
0
10
127.171356850311
20
32.6057697405775
30
0
0
VERTEX
8
0
10
127.847800237812
20
32.7490339688757
30
0
0
VERTEX
8
0
10
128.524243625314
20
32.8947388734809
30
0
0
VERTEX
8
0
10
129.200687012816
20
33.0343786386207
30
0
0
VERTEX
8
0
10
129.877130400317
20
33.1732901552802
30
0
0
VERTEX
8
0
10
130.553573787819
20
33.3144325055744
30
0
0
VERTEX
8
0
10
131.23001717532
20
33.4499400347058
30
0
0
VERTEX
8
0
10
131.906460562822
20
33.5844411695327
30
0
0
VERTEX
8
0
10
132.582903950324
20
33.720972481822
30
0
0
VERTEX
8
0
10
133.259347337825
20
33.8522661010576
30
0
0
VERTEX
8
0
10
133.935790725327
20
33.9822989679
30
0
0
VERTEX
8
0
10
134.612234112829
20
34.1141699848967
30
0
0
VERTEX
8
0
10
135.28867750033
20
34.2411695450779
30
0
0
VERTEX
8
0
10
135.965120887832
20
34.3666760862105
30
0
0
VERTEX
8
0
10
136.641564275334
20
34.493836865867
30
0
0
VERTEX
8
0
10
137.318007662835
20
34.6164636454408
30
0
0
VERTEX
8
0
10
137.994451050337
20
34.7373856728704
30
0
0
VERTEX
8
0
10
138.670894437839
20
34.8597856702102
30
0
0
VERTEX
8
0
10
139.34733782534
20
34.9779622894318
30
0
0
VERTEX
8
0
10
140.023781212842
20
35.094241524177
30
0
0
VERTEX
8
0
10
140.700224600343
20
35.2118296675279
30
0
0
VERTEX
8
0
10
141.376667987845
20
35.3254800135172
30
0
0
VERTEX
8
0
10
142.053111375347
20
35.4370581237865
30
0
0
VERTEX
8
0
10
142.729554762848
20
35.5497828868
30
0
0
VERTEX
8
0
10
143.40599815035
20
35.6588320488756
30
0
0
VERTEX
8
0
10
144.082441537852
20
35.765650688054
30
0
0
VERTEX
8
0
10
144.758884925353
20
35.8734601588403
30
0
0
VERTEX
8
0
10
145.435328312855
20
35.9778343739144
30
0
0
VERTEX
8
0
10
146.111771700357
20
36.0798352192253
30
0
0
VERTEX
8
0
10
146.788215087858
20
36.182677167651
30
0
0
VERTEX
8
0
10
147.46465847536
20
36.282303775582
30
0
0
VERTEX
8
0
10
148.141101862861
20
36.3794285683825
30
0
0
VERTEX
8
0
10
148.817545250363
20
36.4772505128229
30
0
0
VERTEX
8
0
10
149.493988637865
20
36.5720579216183
30
0
0
VERTEX
8
0
10
150.170432025366
20
36.6642485100888
30
0
0
VERTEX
8
0
10
150.846875412868
20
36.7569977848064
30
0
0
VERTEX
8
0
10
151.52331880037
20
36.8469154458475
30
0
0
VERTEX
8
0
10
152.199762187871
20
36.9341138311623
30
0
0
VERTEX
8
0
10
152.876205575373
20
37.0217376554161
30
0
0
VERTEX
8
0
10
153.552648962875
20
37.1066960489997
30
0
0
VERTEX
8
0
10
154.229092350376
20
37.1888444358767
30
0
0
SEQEND
8
0
0
POLYLINE
8
0
62
3
70
0
10
0
20
0
30
0
0
VERTEX
8
0
10
15.558197912538
20
3.35408391018373
30
0
0
VERTEX
8
0
10
16.2346413000396
20
4.0130694344737
30
0
0
VERTEX
8
0
10
16.9110846875413
20
4.78554545960564
30
0
0
VERTEX
8
0
10
17.5875280750429
20
4.55693320356329
30
0
0
VERTEX
8
0
10
18.2639714625446
20
5.1147611585724
30
0
0
VERTEX
8
0
10
18.9404148500462
20
5.78204973095708
30
0
0
VERTEX
8
0
10
19.6168582375479
20
5.71935049529036
30
0
0
VERTEX
8
0
10
20.2933016250495
20
6.2244203637064
30
0
0
VERTEX
8
0
10
20.9697450125512
20
6.82579850061802
30
0
0
VERTEX
8
0
10
21.6461884000528
20
6.87292597854649
30
0
0
VERTEX
8
0
10
22.3226317875545
20
7.34762630648339
30
0
0
VERTEX
8
0
10
22.9990751750562
20
7.90549767035258
30
0
0
VERTEX
8
0
10
23.6755185625578
20
8.02967839015653
30
0
0
VERTEX
8
0
10
24.3519619500595
20
8.48587190407167
30
0
0
VERTEX
8
0
10
25.0284053375611
20
9.01385143620166
30
0
0
VERTEX
8
0
10
25.7048487250628
20
9.19453164633799
30
0
0
VERTEX
8
0
10
26.3812921125644
20
9.6390273270668
30
0
0
VERTEX
8
0
10
27.0577355000661
20
10.1457935533284
30
0
0
VERTEX
8
0
10
27.7341788875677
20
10.3693501164598
30
0
0
VERTEX
8
0
10
28.4106222750694
20
10.8062680688573
30
0
0
VERTEX
8
0
10
29.087065662571
20
11.2975623975121
30
0
0
VERTEX
8
0
10
29.7635090500727
20
11.5545481175426
30
0
0
VERTEX
8
0
10
30.4399524375743
20
11.9864713568207
30
0
0
VERTEX
8
0
10
31.116395825076
20
12.4662039709496
30
0
0
VERTEX
8
0
10
31.7928392125776
20
12.7498153999043
30
0
0
VERTEX
8
0
10
32.4692826000793
20
13.1783992220745
30
0
0
VERTEX
8
0
10
33.1457259875809
20
13.6492933845068
30
0
0
VERTEX
8
0
10
33.8221693750826
20
13.954471625282
30
0
0
VERTEX
8
0
10
34.4986127625842
20
14.3807869474245
30
0
0
VERTEX
8
0
10
35.1750561500859
20
14.8447711527078
30
0
0
VERTEX
8
0
10
35.8514995375875
20
15.1676496867006
30
0
0
VERTEX
8
0
10
36.5279429250892
20
15.5923864861984
30
0
0
VERTEX
8
0
10
37.2043863125908
20
16.050842210865
30
0
0
VERTEX
8
0
10
37.8808297000925
20
16.3883944138447
30
0
0
VERTEX
8
0
10
38.5572730875941
20
16.8119873636654
30
0
0
VERTEX
8
0
10
39.2337164750958
20
17.2659106843832
30
0
0
VERTEX
8
0
10
39.9101598625974
20
17.6157171599067
30
0
0
VERTEX
8
0
10
40.5866032500991
20
18.0384259413101
30
0
0
VERTEX
8
0
10
41.2630466376008
20
18.4885359266594
30
0
0
VERTEX
8
0
10
41.9394900251024
20
18.8486264003854
30
0
0
VERTEX
8
0
10
42.6159334126041
20
19.2705885608512
30
0
0
VERTEX
8
0
10
43.2923768001057
20
19.7174017390334
30
0
0
VERTEX
8
0
10
43.9688201876074
20
20.0861448535158
30
0
0
VERTEX
8
0
10
44.645263575109
20
20.5074114691072
30
0
0
VERTEX
8
0
10
45.3217069626107
20
20.9512940797912
30
0
0
VERTEX
8
0
10
45.9981503501123
20
21.3273188365733
30
0
0
VERTEX
8
0
10
46.674593737614
20
21.7478790896644
30
0
0
VERTEX
8
0
10
47.3510371251156
20
22.1890844354754
30
0
0
VERTEX
8
0
10
48.0274805126173
20
22.5712230706234
30
0
0
VERTEX
8
0
10
48.7039239001189
20
22.9910215018176
30
0
0
VERTEX
8
0
10
49.3803672876206
20
23.4297170918358
30
0
0
VERTEX
8
0
10
50.0568106751222
20
23.816962791021
30
0
0
VERTEX
8
0
10
50.7332540626239
20
24.2359116023579
30
0
0
VERTEX
8
0
10
51.4096974501255
20
24.6721991687131
30
0
0
VERTEX
8
0
10
52.0861408376272
20
25.063674261574
30
0
0
VERTEX
8
0
10
52.7625842251288
20
25.4816622119231
30
0
0
VERTEX
8
0
10
53.4390276126305
20
25.9155926659072
30
0
0
VERTEX
8
0
10
54.1154710001321
20
26.3105243531106
30
0
0
VERTEX
8
0
10
54.7919143876338
20
26.7274232666861
30
0
0
VERTEX
8
0
10
55.4683577751354
20
27.1590080058377
30
0
0
VERTEX
8
0
10
56.1448011626371
20
27.5567095890211
30
0
0
VERTEX
8
0
10
56.8212445501388
20
27.9723791665382
30
0
0
VERTEX
8
0
10
57.4976879376404
20
28.4015987144697
30
0
0
VERTEX
8
0
10
58.174131325142
20
28.8014549054449
30
0
0
VERTEX
8
0
10
58.8505747126437
20
29.2157463119838
30
0
0
VERTEX
8
0
10
59.5270181001454
20
29.642556983506
30
0
0
VERTEX
8
0
10
60.203461487647
20
30.044012278316
30
0
0
VERTEX
8
0
10
60.8799048751487
20
30.4567708388046
30
0
0
VERTEX
8
0
10
61.5563482626503
20
30.8811099265722
30
0
0
VERTEX
8
0
10
62.232791650152
20
31.2836593108889
30
0
0
VERTEX
8
0
10
62.9092350376536
20
31.6947265476173
30
0
0
VERTEX
8
0
10
63.5856784251553
20
32.1165163900842
30
0
0
VERTEX
8
0
10
64.2621218126569
20
32.5196978382042
30
0
0
VERTEX
8
0
10
64.9385652001586
20
32.9289130184885
30
0
0
VERTEX
8
0
10
65.6150085876602
20
33.3480642133821
30
0
0
VERTEX
8
0
10
66.2914519751619
20
33.7514525816751
30
0
0
VERTEX
8
0
10
66.9678953626635
20
34.1586538977283
30
0
0
VERTEX
8
0
10
67.6443387501652
20
34.5750678570453
30
0
0
VERTEX
8
0
10
68.3207821376668
20
34.9782698723472
30
0
0
VERTEX
8
0
10
68.9972255251685
20
35.3832953430107
30
0
0
VERTEX
8
0
10
69.6736689126701
20
35.7968663364181
30
0
0
VERTEX
8
0
10
70.3501123001718
20
36.1995164519506
30
0
0
VERTEX
8
0
10
71.0265556876734
20
36.6022046124199
30
0
0
VERTEX
8
0
10
71.7029990751751
20
37.0128214104516
30
0
0
VERTEX
8
0
10
72.3794424626767
20
37.414578355017
30
0
0
VERTEX
8
0
10
73.0558858501784
20
37.8147687843556
30
0
0
VERTEX
8
0
10
73.73232923768
20
38.2223159861993
30
0
0
VERTEX
8
0
10
74.4087726251817
20
38.6228598717776
30
0
0
VERTEX
8
0
10
75.0852160126833
20
39.0203935955042
30
0
0
VERTEX
8
0
10
75.761659400185
20
39.424752706796
30
0
0
VERTEX
8
0
10
76.4381027876867
20
39.823782589431
30
0
0
VERTEX
8
0
10
77.1145461751883
20
40.2185023856044
30
0
0
VERTEX
8
0
10
77.79098956269
20
40.6195526968672
30
0
0
VERTEX
8
0
10
78.4674329501916
20
41.0167845080598
30
0
0
VERTEX
8
0
10
79.1438763376933
20
41.4085351385855
30
0
0
VERTEX
8
0
10
79.8203197251949
20
41.8061544439762
30
0
0
VERTEX
8
0
10
80.4967631126966
20
42.2013192269106
30
0
0
VERTEX
8
0
10
81.1732065001982
20
42.5899476107758
30
0
0
VERTEX
8
0
10
81.8496498876999
20
42.9840127981772
30
0
0
VERTEX
8
0
10
82.5260932752015
20
43.3768551965131
30
0
0
VERTEX
8
0
10
83.2025366627032
20
43.7622105379073
30
0
0
VERTEX
8
0
10
83.8789800502048
20
44.1525980751139
30
0
0
VERTEX
8
0
10
84.5554234377065
20
44.542875032121
30
0
0
VERTEX
8
0
10
85.2318668252081
20
44.9248089135505
30
0
0
VERTEX
8
0
10
85.9083102127098
20
45.3113952500339
30
0
0
VERTEX
8
0
10
86.5847536002114
20
45.6988748840842
30
0
0
VERTEX
8
0
10
87.2611969877131
20
46.0772413323274
30
0
0
VERTEX
8
0
10
87.9376403752147
20
46.4599032323747
30
0
0
VERTEX
8
0
10
88.6140837627164
20
46.8443638610391
30
0
0
VERTEX
8
0
10
89.290527150218
20
47.2190193922218
30
0
0
VERTEX
8
0
10
89.9669705377197
20
47.5976342120209
30
0
0
VERTEX
8
0
10
90.6434139252213
20
47.9788635021004
30
0
0
VERTEX
8
0
10
91.319857312723
20
48.3496671506714
30
0
0
VERTEX
8
0
10
91.9963007002247
20
48.7241130696306
30
0
0
VERTEX
8
0
10
92.6727440877263
20
49.1019072943905
30
0
0
VERTEX
8
0
10
93.349187475228
20
49.4687206300921
30
0
0
VERTEX
8
0
10
94.0256308627296
20
49.8388768445894
30
0
0
VERTEX
8
0
10
94.7020742502312
20
50.2130402328605
30
0
0
VERTEX
8
0
10
95.3785176377329
20
50.5757273686061
30
0
0
VERTEX
8
0
10
96.0549610252346
20
50.9414742550825
30
0
0
VERTEX
8
0
10
96.7314044127362
20
51.3118184193298
30
0
0
VERTEX
8
0
10
97.4078478002379
20
51.67024601262
30
0
0
VERTEX
8
0
10
98.0842911877395
20
52.0314652654704
30
0
0
VERTEX
8
0
10
98.7607345752412
20
52.3978086981665
30
0
0
VERTEX
8
0
10
99.4371779627428
20
52.751845947908
30
0
0
VERTEX
8
0
10
100.113621350244
20
53.1084206968693
30
0
0
VERTEX
8
0
10
100.790064737746
20
53.4705883261887
30
0
0
VERTEX
8
0
10
101.466508125248
20
53.8201069666901
30
0
0
VERTEX
8
0
10
102.142951512749
20
54.1719218774461
30
0
0
VERTEX
8
0
10
102.819394900251
20
54.5297446747462
30
0
0
VERTEX
8
0
10
103.495838287753
20
54.8746189680859
30
0
0
VERTEX
8
0
10
104.172281675254
20
55.2215603293271
30
0
0
VERTEX
8
0
10
104.848725062756
20
55.5748749620641
30
0
0
VERTEX
8
0
10
105.525168450258
20
55.9149816899368
30
0
0
VERTEX
8
0
10
106.201611837759
20
56.2569374894663
30
0
0
VERTEX
8
0
10
106.878055225261
20
56.6055860141404
30
0
0
VERTEX
8
0
10
107.554498612763
20
56.9408044701458
30
0
0
VERTEX
8
0
10
108.230942000264
20
57.2776644622953
30
0
0
VERTEX
8
0
10
108.907385387766
20
57.6214940528944
30
0
0
VERTEX
8
0
10
109.583828775268
20
57.9517060358564
30
0
0
VERTEX
8
0
10
110.260272162769
20
58.283361802135
30
0
0
VERTEX
8
0
10
110.936715550271
20
58.6222245101768
30
0
0
VERTEX
8
0
10
111.613158937773
20
58.9473143192462
30
0
0
VERTEX
8
0
10
112.289602325274
20
59.2736593237382
30
0
0
VERTEX
8
0
10
112.966045712776
20
59.6074118665659
30
0
0
VERTEX
8
0
10
113.642489100278
20
59.9272662986111
30
0
0
VERTEX
8
0
10
114.318932487779
20
60.2481959396139
30
0
0
VERTEX
8
0
10
114.995375875281
20
60.5766995141452
30
0
0
VERTEX
8
0
10
115.671819262782
20
60.8912078638321
30
0
0
VERTEX
8
0
10
116.348262650284
20
61.2066195228321
30
0
0
VERTEX
8
0
10
117.024706037786
20
61.5297396424092
30
0
0
VERTEX
8
0
10
117.701149425287
20
61.8387937054213
30
0
0
VERTEX
8
0
10
118.377592812789
20
62.1485867945238
30
0
0
VERTEX
8
0
10
119.054036200291
20
62.4661931466985
30
0
0
VERTEX
8
0
10
119.730479587792
20
62.7696872264803
30
0
0
VERTEX
8
0
10
120.406922975294
20
63.0737632351721
30
0
0
VERTEX
8
0
10
121.083366362796
20
63.3857295587598
30
0
0
VERTEX
8
0
10
121.759809750297
20
63.6835604770395
30
0
0
VERTEX
8
0
10
122.436253137799
20
63.9818230191024
30
0
0
VERTEX
8
0
10
123.112696525301
20
64.2880269989992
30
0
0
VERTEX
8
0
10
123.789139912802
20
64.5800941105092
30
0
0
VERTEX
8
0
10
124.465583300304
20
64.8724489718416
30
0
0
VERTEX
8
0
10
125.142026687806
20
65.1727721502901
30
0
0
VERTEX
8
0
10
125.818470075307
20
65.4589773619407
30
0
0
VERTEX
8
0
10
126.494913462809
20
65.745332549951
30
0
0
VERTEX
8
0
10
127.171356850311
20
66.0396602533107
30
0
0
VERTEX
8
0
10
127.847800237812
20
66.3199080480819
30
0
0
VERTEX
8
0
10
128.524243625314
20
66.6001738432958
30
0
0
VERTEX
8
0
10
129.200687012816
20
66.8883951232975
30
0
0
VERTEX
8
0
10
129.877130400317
20
67.1625925892293
30
0
0
VERTEX
8
0
10
130.553573787819
20
67.4366815996806
30
0
0
VERTEX
8
0
10
131.23001717532
20
67.7186891885467
30
0
0
VERTEX
8
0
10
131.906460562822
20
67.9867460530932
30
0
0
VERTEX
8
0
10
132.582903950324
20
68.2545732720696
30
0
0
VERTEX
8
0
10
133.259347337825
20
68.5302635508893
30
0
0
VERTEX
8
0
10
133.935790725327
20
68.7920922209493
30
0
0
VERTEX
8
0
10
134.612234112829
20
69.0535750886655
30
0
0
VERTEX
8
0
10
135.28867750033
20
69.3228480685398
30
0
0
VERTEX
8
0
10
135.965120887832
20
69.5783636765521
30
0
0
VERTEX
8
0
10
136.641564275334
20
69.8334221462613
30
0
0
VERTEX
8
0
10
137.318007662835
20
70.096181461918
30
0
0
VERTEX
8
0
10
137.994451050337
20
70.3453019183428
30
0
0
VERTEX
8
0
10
138.670894437839
20
70.59385852746
30
0
0
VERTEX
8
0
10
139.34733782534
20
70.8500114430787
30
0
0
VERTEX
8
0
10
140.023781212842
20
71.0926574956761
30
0
0
VERTEX
8
0
10
140.700224600343
20
71.3346374424333
30
0
0
VERTEX
8
0
10
141.376667987845
20
71.5840948696122
30
0
0
VERTEX
8
0
10
142.053111375347
20
71.8201901699262
30
0
0
VERTEX
8
0
10
142.729554762848
20
72.0555213961437
30
0
0
VERTEX
8
0
10
143.40599815035
20
72.2981979239088
30
0
0
VERTEX
8
0
10
144.082441537852
20
72.5276691014175
30
0
0
VERTEX
8
0
10
144.758884925353
20
72.7562823820127
30
0
0
VERTEX
8
0
10
145.435328312855
20
72.9920963189733
30
0
0
VERTEX
8
0
10
146.111771700357
20
73.2148730633896
30
0
0
VERTEX
8
0
10
146.788215087858
20
73.4367021031613
30
0
0
VERTEX
8
0
10
147.46465847536
20
73.665575531997
30
0
0
VERTEX
8
0
10
148.141101862861
20
73.8815906843012
30
0
0
VERTEX
8
0
10
148.817545250363
20
74.0965722227003
30
0
0
VERTEX
8
0
10
149.493988637865
20
74.3184310671821
30
0
0
VERTEX
8
0
10
150.170432025366
20
74.527620719905
30
0
0
VERTEX
8
0
10
150.846875412868
20
74.7356946444945
30
0
0
VERTEX
8
0
10
151.52331880037
20
74.9504687494053
30
0
0
VERTEX
8
0
10
152.199762187871
20
75.1527723568843
30
0
0
VERTEX
8
0
10
152.876205575373
20
75.3538818261931
30
0
0
VERTEX
8
0
10
153.552648962875
20
75.5615050505996
30
0
0
VERTEX
8
0
10
154.229092350376
20
75.7568655498705
30
0
0
SEQEND
8
0
0
POLYLINE
8
0
62
4
70
0
10
0
20
0
30
0
0
VERTEX
8
0
10
15.558197912538
20
4.01003961679096
30
0
0
VERTEX
8
0
10
16.2346413000396
20
4.64136251301165
30
0
0
VERTEX
8
0
10
16.9110846875413
20
5.38348010461236
30
0
0
VERTEX
8
0
10
17.5875280750429
20
5.2464138296539
30
0
0
VERTEX
8
0
10
18.2639714625446
20
5.80264673825788
30
0
0
VERTEX
8
0
10
18.9404148500462
20
6.46085404174398
30
0
0
VERTEX
8
0
10
19.6168582375479
20
6.47013568674607
30
0
0
VERTEX
8
0
10
20.2933016250495
20
6.98403793677424
30
0
0
VERTEX
8
0
10
20.9697450125512
20
7.5849073007565
30
0
0
VERTEX
8
0
10
21.6461884000528
20
7.68890261424155
30
0
0
VERTEX
8
0
10
22.3226317875545
20
8.17627725474934
30
0
0
VERTEX
8
0
10
22.9990751750562
20
8.73965351213996
30
0
0
VERTEX
8
0
10
23.6755185625578
20
8.91298462475525
30
0
0
VERTEX
8
0
10
24.3519619500595
20
9.38602260023263
30
0
0
VERTEX
8
0
10
25.0284053375611
20
9.92468114668935
30
0
0
VERTEX
8
0
10
25.7048487250628
20
10.1485029278511
30
0
0
VERTEX
8
0
10
26.3812921125644
20
10.611645022633
30
0
0
VERTEX
8
0
10
27.0577355000661
20
11.1318144682847
30
0
0
VERTEX
8
0
10
27.7341788875677
20
11.3942149393533
30
0
0
VERTEX
8
0
10
28.4106222750694
20
11.8509589907802
30
0
0
VERTEX
8
0
10
29.087065662571
20
12.3576026878719
30
0
0
VERTEX
8
0
10
29.7635090500727
20
12.6502640434295
30
0
0
VERTEX
8
0
10
30.4399524375743
20
13.1028166941235
30
0
0
VERTEX
8
0
10
31.116395825076
20
13.5993310204238
30
0
0
VERTEX
8
0
10
31.7928392125776
20
13.9133655656508
30
0
0
VERTEX
8
0
10
32.4692826000793
20
14.3609437686602
30
0
0
VERTEX
8
0
10
33.1457259875809
20
14.8475481171749
30
0
0
VERTEX
8
0
10
33.8221693750826
20
15.1819350857625
30
0
0
VERTEX
8
0
10
34.4986127625842
20
15.6322312212474
30
0
0
VERTEX
8
0
10
35.1750561500859
20
16.1160560245494
30
0
0
VERTEX
8
0
10
35.8514995375875
20
16.4699783430746
30
0
0
VERTEX
8
0
10
36.5279429250892
20
16.9177365873952
30
0
0
VERTEX
8
0
10
37.2043863125908
20
17.3235345711724
30
0
0
VERTEX
8
0
10
37.8808297000925
20
17.6921530239951
30
0
0
VERTEX
8
0
10
38.5572730875941
20
18.0447632146301
30
0
0
VERTEX
8
0
10
39.2337164750958
20
18.3989184012545
30
0
0
VERTEX
8
0
10
39.9101598625974
20
18.7705342556386
30
0
0
VERTEX
8
0
10
40.5866032500991
20
19.1258830442319
30
0
0
VERTEX
8
0
10
41.2630466376008
20
19.4820699246442
30
0
0
VERTEX
8
0
10
41.9394900251024
20
19.858966604645
30
0
0
VERTEX
8
0
10
42.6159334126041
20
20.2211653499609
30
0
0
VERTEX
8
0
10
43.2923768001057
20
20.5841269971
30
0
0
VERTEX
8
0
10
43.9688201876074
20
20.9642572411669
30
0
0
VERTEX
8
0
10
44.645263575109
20
21.333547838036
30
0
0
VERTEX
8
0
10
45.3217069626107
20
21.7053306344156
30
0
0
VERTEX
8
0
10
45.9981503501123
20
22.0943536355139
30
0
0
VERTEX
8
0
10
46.674593737614
20
22.4665466467891
30
0
0
VERTEX
8
0
10
47.3510371251156
20
22.8364989799275
30
0
0
VERTEX
8
0
10
48.0274805126173
20
23.2232456496203
30
0
0
VERTEX
8
0
10
48.7039239001189
20
23.5929893459366
30
0
0
VERTEX
8
0
10
49.3803672876206
20
23.9632591932294
30
0
0
VERTEX
8
0
10
50.0568106751222
20
24.3539993605949
30
0
0
VERTEX
8
0
10
50.7332540626239
20
24.7277341751672
30
0
0
VERTEX
8
0
10
51.4096974501255
20
25.1019321756381
30
0
0
VERTEX
8
0
10
52.0861408376272
20
25.4933910627089
30
0
0
VERTEX
8
0
10
52.7625842251288
20
25.8652157613771
30
0
0
VERTEX
8
0
10
53.4390276126305
20
26.2375548797385
30
0
0
VERTEX
8
0
10
54.1154710001321
20
26.627132642775
30
0
0
VERTEX
8
0
10
54.7919143876338
20
26.9993458598298
30
0
0
VERTEX
8
0
10
55.4683577751354
20
27.3758011708121
30
0
0
VERTEX
8
0
10
56.1448011626371
20
27.7689416928421
30
0
0
VERTEX
8
0
10
56.8212445501388
20
28.144640752556
30
0
0
VERTEX
8
0
10
57.4976879376404
20
28.5205886218372
30
0
0
VERTEX
8
0
10
58.174131325142
20
28.9079847228403
30
0
0
VERTEX
8
0
10
58.8505747126437
20
29.2790232016029
30
0
0
VERTEX
8
0
10
59.5270181001454
20
29.6502278208749
30
0
0
VERTEX
8
0
10
60.203461487647
20
30.0385649667295
30
0
0
VERTEX
8
0
10
60.8799048751487
20
30.4124099657402
30
0
0
VERTEX
8
0
10
61.5563482626503
20
30.7855500730253
30
0
0
VERTEX
8
0
10
62.232791650152
20
31.1757744550921
30
0
0
VERTEX
8
0
10
62.9092350376536
20
31.5483565835127
30
0
0
VERTEX
8
0
10
63.5856784251553
20
31.9209857290389
30
0
0
VERTEX
8
0
10
64.2621218126569
20
32.3106351764371
30
0
0
VERTEX
8
0
10
64.9385652001586
20
32.6826050893673
30
0
0
VERTEX
8
0
10
65.6150085876602
20
33.0545622038108
30
0
0
VERTEX
8
0
10
66.2914519751619
20
33.4434664731033
30
0
0
VERTEX
8
0
10
66.9678953626635
20
33.8146661803695
30
0
0
VERTEX
8
0
10
67.6443387501652
20
34.1857952683388
30
0
0
VERTEX
8
0
10
68.3207821376668
20
34.575300254398
30
0
0
VERTEX
8
0
10
68.9972255251685
20
34.9479056412116
30
0
0
VERTEX
8
0
10
69.6736689126701
20
35.3203911008151
30
0
0
VERTEX
8
0
10
70.3501123001718
20
35.7096532147035
30
0
0
VERTEX
8
0
10
71.0265556876734
20
36.0908325355509
30
0
0
VERTEX
8
0
10
71.7029990751751
20
36.4751255554722
30
0
0
VERTEX
8
0
10
72.3794424626767
20
36.8761348610844
30
0
0
VERTEX
8
0
10
73.0558858501784
20
37.2595150170941
30
0
0
VERTEX
8
0
10
73.73232923768
20
37.6497433981802
30
0
0
VERTEX
8
0
10
74.4087726251817
20
38.0578733648388
30
0
0
VERTEX
8
0
10
75.0852160126833
20
38.4484695641521
30
0
0
VERTEX
8
0
10
75.761659400185
20
38.8388934450465
30
0
0
VERTEX
8
0
10
76.4381027876867
20
39.24466354018
30
0
0
VERTEX
8
0
10
77.1145461751883
20
39.6328792842568
30
0
0
VERTEX
8
0
10
77.79098956269
20
40.020858076034
30
0
0
VERTEX
8
0
10
78.4674329501916
20
40.425154806103
30
0
0
VERTEX
8
0
10
79.1438763376933
20
40.810756346295
30
0
0
VERTEX
8
0
10
79.8203197251949
20
41.1961121946937
30
0
0
VERTEX
8
0
10
80.4967631126966
20
41.5976191980033
30
0
0
VERTEX
8
0
10
81.1732065001982
20
41.9817643470939
30
0
0
VERTEX
8
0
10
81.8496498876999
20
42.3669665964654
30
0
0
VERTEX
8
0
10
82.5260932752015
20
42.7679887007662
30
0
0
VERTEX
8
0
10
83.2025366627032
20
43.1517365826726
30
0
0
VERTEX
8
0
10
83.8789800502048
20
43.5350946815887
30
0
0
VERTEX
8
0
10
84.5554234377065
20
43.934274589831
30
0
0
VERTEX
8
0
10
85.2318668252081
20
44.3162699761715
30
0
0
VERTEX
8
0
10
85.9083102127098
20
44.6978286670423
30
0
0
VERTEX
8
0
10
86.5847536002114
20
45.0950326295309
30
0
0
VERTEX
8
0
10
87.2611969877131
20
45.4734670627017
30
0
0
VERTEX
8
0
10
87.9376403752147
20
45.8518367446147
30
0
0
VERTEX
8
0
10
88.6140837627164
20
46.2456650503171
30
0
0
VERTEX
8
0
10
89.290527150218
20
46.6225058498955
30
0
0
VERTEX
8
0
10
89.9669705377197
20
47.0006395036686
30
0
0
VERTEX
8
0
10
90.6434139252213
20
47.3934996288516
30
0
0
VERTEX
8
0
10
91.319857312723
20
47.7694923073096
30
0
0
VERTEX
8
0
10
91.9963007002247
20
48.1421856375356
30
0
0
VERTEX
8
0
10
92.6727440877263
20
48.5275643267982
30
0
0
VERTEX
8
0
10
93.349187475228
20
48.8961738361473
30
0
0
VERTEX
8
0
10
94.0256308627296
20
49.2641539317466
30
0
0
VERTEX
8
0
10
94.7020742502312
20
49.6502686517969
30
0
0
VERTEX
8
0
10
95.3785176377329
20
50.0216557634411
30
0
0
VERTEX
8
0
10
96.0549610252346
20
50.3923976504026
30
0
0
VERTEX
8
0
10
96.7314044127362
20
50.7778346607434
30
0
0
VERTEX
8
0
10
97.4078478002379
20
51.1458365553025
30
0
0
VERTEX
8
0
10
98.0842911877395
20
51.5127997618761
30
0
0
VERTEX
8
0
10
98.7607345752412
20
51.8942469525642
30
0
0
VERTEX
8
0
10
99.4371779627428
20
52.259346689541
30
0
0
VERTEX
8
0
10
100.113621350244
20
52.6226355678956
30
0
0
VERTEX
8
0
10
100.790064737746
20
52.9999691497337
30
0
0
VERTEX
8
0
10
101.466508125248
20
53.3610995436475
30
0
0
VERTEX
8
0
10
102.142951512749
20
53.7214658389351
30
0
0
VERTEX
8
0
10
102.819394900251
20
54.0934396764047
30
0
0
VERTEX
8
0
10
103.495838287753
20
54.4491621857914
30
0
0
VERTEX
8
0
10
104.172281675254
20
54.8040774927771
30
0
0
VERTEX
8
0
10
104.848725062756
20
55.1728243037585
30
0
0
VERTEX
8
0
10
105.525168450258
20
55.5284010700368
30
0
0
VERTEX
8
0
10
106.201611837759
20
55.8830831310877
30
0
0
VERTEX
8
0
10
106.878055225261
20
56.2513844585257
30
0
0
VERTEX
8
0
10
107.554498612763
20
56.6039669178138
30
0
0
VERTEX
8
0
10
108.230942000264
20
56.9526789417824
30
0
0
VERTEX
8
0
10
108.907385387766
20
57.315104238112
30
0
0
VERTEX
8
0
10
109.583828775268
20
57.6619753802572
30
0
0
VERTEX
8
0
10
110.260272162769
20
58.0079471283278
30
0
0
VERTEX
8
0
10
110.936715550271
20
58.3670748971002
30
0
0
VERTEX
8
0
10
111.613158937773
20
58.7108279418471
30
0
0
VERTEX
8
0
10
112.289602325274
20
59.0536530988706
30
0
0
VERTEX
8
0
10
112.966045712776
20
59.4094016643755
30
0
0
VERTEX
8
0
10
113.642489100278
20
59.74996097294
30
0
0
VERTEX
8
0
10
114.318932487779
20
60.0895649799223
30
0
0
VERTEX
8
0
10
114.995375875281
20
60.4418558405
30
0
0
VERTEX
8
0
10
115.671819262782
20
60.7791487826923
30
0
0
VERTEX
8
0
10
116.348262650284
20
61.0806177396572
30
0
0
VERTEX
8
0
10
117.024706037786
20
61.4047428736651
30
0
0
VERTEX
8
0
10
117.701149425287
20
61.7140063985118
30
0
0
VERTEX
8
0
10
118.377592812789
20
62.0616845475947
30
0
0
VERTEX
8
0
10
119.054036200291
20
62.4588930105674
30
0
0
VERTEX
8
0
10
119.730479587792
20
62.8418011263168
30
0
0
VERTEX
8
0
10
120.406922975294
20
63.2239880721511
30
0
0
VERTEX
8
0
10
121.083366362796
20
63.57404643999
30
0
0
VERTEX
8
0
10
121.759809750297
20
63.881829731241
30
0
0
VERTEX
8
0
10
122.436253137799
20
64.1885126030035
30
0
0
VERTEX
8
0
10
123.112696525301
20
64.5068459581241
30
0
0
VERTEX
8
0
10
123.789139912802
20
64.8228652446219
30
0
0
VERTEX
8
0
10
124.465583300304
20
65.1426097567586
30
0
0
VERTEX
8
0
10
125.142026687806
20
65.4737911393052
30
0
0
VERTEX
8
0
10
125.818470075307
20
65.7910102132328
30
0
0
VERTEX
8
0
10
126.494913462809
20
66.0957728057191
30
0
0
VERTEX
8
0
10
127.171356850311
20
66.4090289145477
30
0
0
VERTEX
8
0
10
127.847800237812
20
66.7085071509379
30
0
0
VERTEX
8
0
10
128.524243625314
20
67.006823883571
30
0
0
VERTEX
8
0
10
129.200687012816
20
67.2905253563724
30
0
0
VERTEX
8
0
10
129.877130400317
20
67.558068660464
30
0
0
VERTEX
8
0
10
130.553573787819
20
67.8244097499359
30
0
0
VERTEX
8
0
10
131.23001717532
20
68.1013939269803
30
0
0
VERTEX
8
0
10
131.906460562822
20
68.363590871003
30
0
0
VERTEX
8
0
10
132.582903950324
20
68.6245722463736
30
0
0
VERTEX
8
0
10
133.259347337825
20
68.895950018401
30
0
0
VERTEX
8
0
10
133.935790725327
20
69.1541611917715
30
0
0
VERTEX
8
0
10
134.612234112829
20
69.4111258408067
30
0
0
VERTEX
8
0
10
135.28867750033
20
69.678235848828
30
0
0
VERTEX
8
0
10
135.965120887832
20
69.932393410585
30
0
0
VERTEX
8
0
10
136.641564275334
20
70.1852835537093
30
0
0
VERTEX
8
0
10
137.318007662835
20
70.4480646728251
30
0
0
VERTEX
8
0
10
137.994451050337
20
70.6981130302808
30
0
0
VERTEX
8
0
10
138.670894437839
20
70.9468742086786
30
0
0
VERTEX
8
0
10
139.34733782534
20
71.2052688684491
30
0
0
VERTEX
8
0
10
140.023781212842
20
71.4511557695148
30
0
0
VERTEX
8
0
10
140.700224600343
20
71.6957368743228
30
0
0
VERTEX
8
0
10
141.376667987845
20
71.9496910906113
30
0
0
VERTEX
8
0
10
142.053111375347
20
72.191367656793
30
0
0
VERTEX
8
0
10
142.729554762848
20
72.4317209640107
30
0
0
VERTEX
8
0
10
143.40599815035
20
72.6811843769473
30
0
0
VERTEX
8
0
10
144.082441537852
20
72.918605142035
30
0
0
VERTEX
8
0
10
144.758884925353
20
73.1546863531145
30
0
0
VERTEX
8
0
10
145.435328312855
20
73.3996122711474
30
0
0
VERTEX
8
0
10
146.111771700357
20
73.6327352255712
30
0
0
VERTEX
8
0
10
146.788215087858
20
73.8645035136713
30
0
0
VERTEX
8
0
10
147.46465847536
20
74.1048489636927
30
0
0
VERTEX
8
0
10
148.141101862861
20
74.3336356045452
30
0
0
VERTEX
8
0
10
148.817545250363
20
74.5610536664485
30
0
0
VERTEX
8
0
10
149.493988637865
20
74.7967794499959
30
0
0
VERTEX
8
0
10
150.170432025366
20
75.0202229679848
30
0
0
VERTEX
8
0
10
150.846875412868
20
75.2418551908549
30
0
0
VERTEX
8
0
10
151.52331880037
20
75.47152373343
30
0
0
VERTEX
8
0
10
152.199762187871
20
75.6901331573185
30
0
0
VERTEX
8
0
10
152.876205575373
20
75.906016432569
30
0
0
VERTEX
8
0
10
153.552648962875
20
76.1293128713032
30
0
0
VERTEX
8
0
10
154.229092350376
20
76.3418045824199
30
0
0
SEQEND
8
0
0
ENDSEC
0
EOF
