0
SECTION
2
HEADER
9
$ACADVER
1
AC1009
0
ENDSEC
0
SECTION
2
ENTITIES
0
POLYLINE
8
0
62
0
70
1
10
0
20
0
30
0
0
VERTEX
8
0
10
0
20
0
30
0
0
VERTEX
8
0
10
0
20
116.187
30
0
0
VERTEX
8
0
10
179.2
20
116.187
30
0
0
VERTEX
8
0
10
179.2
20
0
30
0
0
SEQEND
8
0
0
TEXT
8
0
62
0
10
0
20
-12
30
0
40
8
1
0
50
0
0
LINE
8
0
62
0
10
9.18983784449071
20
0
30
0
11
9.18983784449071
21
3.2
31
0
0
LINE
8
0
62
0
10
9.18983784449071
20
116.187
30
0
11
9.18983784449071
21
112.987
31
0
0
LINE
8
0
62
0
10
18.3796756889814
20
0
30
0
11
18.3796756889814
21
3.2
31
0
0
LINE
8
0
62
0
10
18.3796756889814
20
116.187
30
0
11
18.3796756889814
21
112.987
31
0
0
LINE
8
0
62
0
10
27.5695135334721
20
0
30
0
11
27.5695135334721
21
3.2
31
0
0
LINE
8
0
62
0
10
27.5695135334721
20
116.187
30
0
11
27.5695135334721
21
112.987
31
0
0
LINE
8
0
62
0
10
36.7593513779628
20
0
30
0
11
36.7593513779628
21
3.2
31
0
0
LINE
8
0
62
0
10
36.7593513779628
20
116.187
30
0
11
36.7593513779628
21
112.987
31
0
0
LINE
8
0
62
0
10
45.9491892224536
20
0
30
0
11
45.9491892224536
21
6.4
31
0
0
LINE
8
0
62
0
10
45.9491892224536
20
116.187
30
0
11
45.9491892224536
21
109.787
31
0
0
TEXT
8
0
62
0
10
45.9491892224536
20
-12
30
0
40
8
1
0.5
50
0
0
LINE
8
0
62
0
10
55.1390270669443
20
0
30
0
11
55.1390270669443
21
3.2
31
0
0
LINE
8
0
62
0
10
55.1390270669443
20
116.187
30
0
11
55.1390270669443
21
112.987
31
0
0
LINE
8
0
62
0
10
64.328864911435
20
0
30
0
11
64.328864911435
21
3.2
31
0
0
LINE
8
0
62
0
10
64.328864911435
20
116.187
30
0
11
64.328864911435
21
112.987
31
0
0
LINE
8
0
62
0
10
73.5187027559257
20
0
30
0
11
73.5187027559257
21
3.2
31
0
0
LINE
8
0
62
0
10
73.5187027559257
20
116.187
30
0
11
73.5187027559257
21
112.987
31
0
0
LINE
8
0
62
0
10
82.7085406004164
20
0
30
0
11
82.7085406004164
21
3.2
31
0
0
LINE
8
0
62
0
10
82.7085406004164
20
116.187
30
0
11
82.7085406004164
21
112.987
31
0
0
LINE
8
0
62
0
10
91.8983784449071
20
0
30
0
11
91.8983784449071
21
6.4
31
0
0
LINE
8
0
62
0
10
91.8983784449071
20
116.187
30
0
11
91.8983784449071
21
109.787
31
0
0
TEXT
8
0
62
0
10
91.8983784449071
20
-12
30
0
40
8
1
1
50
0
0
LINE
8
0
62
0
10
101.088216289398
20
0
30
0
11
101.088216289398
21
3.2
31
0
0
LINE
8
0
62
0
10
101.088216289398
20
116.187
30
0
11
101.088216289398
21
112.987
31
0
0
LINE
8
0
62
0
10
110.278054133889
20
0
30
0
11
110.278054133889
21
3.2
31
0
0
LINE
8
0
62
0
10
110.278054133889
20
116.187
30
0
11
110.278054133889
21
112.987
31
0
0
LINE
8
0
62
0
10
119.467891978379
20
0
30
0
11
119.467891978379
21
3.2
31
0
0
LINE
8
0
62
0
10
119.467891978379
20
116.187
30
0
11
119.467891978379
21
112.987
31
0
0
LINE
8
0
62
0
10
128.65772982287
20
0
30
0
11
128.65772982287
21
3.2
31
0
0
LINE
8
0
62
0
10
128.65772982287
20
116.187
30
0
11
128.65772982287
21
112.987
31
0
0
LINE
8
0
62
0
10
137.847567667361
20
0
30
0
11
137.847567667361
21
6.4
31
0
0
LINE
8
0
62
0
10
137.847567667361
20
116.187
30
0
11
137.847567667361
21
109.787
31
0
0
TEXT
8
0
62
0
10
137.847567667361
20
-12
30
0
40
8
1
1.5
50
0
0
LINE
8
0
62
0
10
147.037405511851
20
0
30
0
11
147.037405511851
21
3.2
31
0
0
LINE
8
0
62
0
10
147.037405511851
20
116.187
30
0
11
147.037405511851
21
112.987
31
0
0
LINE
8
0
62
0
10
156.227243356342
20
0
30
0
11
156.227243356342
21
3.2
31
0
0
LINE
8
0
62
0
10
156.227243356342
20
116.187
30
0
11
156.227243356342
21
112.987
31
0
0
LINE
8
0
62
0
10
165.417081200833
20
0
30
0
11
165.417081200833
21
3.2
31
0
0
LINE
8
0
62
0
10
165.417081200833
20
116.187
30
0
11
165.417081200833
21
112.987
31
0
0
LINE
8
0
62
0
10
174.606919045324
20
0
30
0
11
174.606919045324
21
3.2
31
0
0
LINE
8
0
62
0
10
174.606919045324
20
116.187
30
0
11
174.606919045324
21
112.987
31
0
0
TEXT
8
0
62
0
10
-4
20
-4
30
0
40
8
1
0
50
0
0
LINE
8
0
62
0
10
0
20
4.64748
30
0
11
3.2
21
4.64748
31
0
0
LINE
8
0
62
0
10
179.2
20
4.64748
30
0
11
176
21
4.64748
31
0
0
LINE
8
0
62
0
10
0
20
9.29496
30
0
11
3.2
21
9.29496
31
0
0
LINE
8
0
62
0
10
179.2
20
9.29496
30
0
11
176
21
9.29496
31
0
0
LINE
8
0
62
0
10
0
20
13.94244
30
0
11
3.2
21
13.94244
31
0
0
LINE
8
0
62
0
10
179.2
20
13.94244
30
0
11
176
21
13.94244
31
0
0
LINE
8
0
62
0
10
0
20
18.58992
30
0
11
3.2
21
18.58992
31
0
0
LINE
8
0
62
0
10
179.2
20
18.58992
30
0
11
176
21
18.58992
31
0
0
LINE
8
0
62
0
10
0
20
23.2374
30
0
11
6.4
21
23.2374
31
0
0
LINE
8
0
62
0
10
179.2
20
23.2374
30
0
11
172.8
21
23.2374
31
0
0
TEXT
8
0
62
0
10
-4
20
19.2374
30
0
40
8
1
5
50
0
0
LINE
8
0
62
0
10
0
20
27.88488
30
0
11
3.2
21
27.88488
31
0
0
LINE
8
0
62
0
10
179.2
20
27.88488
30
0
11
176
21
27.88488
31
0
0
LINE
8
0
62
0
10
0
20
32.53236
30
0
11
3.2
21
32.53236
31
0
0
LINE
8
0
62
0
10
179.2
20
32.53236
30
0
11
176
21
32.53236
31
0
0
LINE
8
0
62
0
10
0
20
37.17984
30
0
11
3.2
21
37.17984
31
0
0
LINE
8
0
62
0
10
179.2
20
37.17984
30
0
11
176
21
37.17984
31
0
0
LINE
8
0
62
0
10
0
20
41.82732
30
0
11
3.2
21
41.82732
31
0
0
LINE
8
0
62
0
10
179.2
20
41.82732
30
0
11
176
21
41.82732
31
0
0
LINE
8
0
62
0
10
0
20
46.4748
30
0
11
6.4
21
46.4748
31
0
0
LINE
8
0
62
0
10
179.2
20
46.4748
30
0
11
172.8
21
46.4748
31
0
0
TEXT
8
0
62
0
10
-4
20
42.4748
30
0
40
8
1
10
50
0
0
LINE
8
0
62
0
10
0
20
51.12228
30
0
11
3.2
21
51.12228
31
0
0
LINE
8
0
62
0
10
179.2
20
51.12228
30
0
11
176
21
51.12228
31
0
0
LINE
8
0
62
0
10
0
20
55.76976
30
0
11
3.2
21
55.76976
31
0
0
LINE
8
0
62
0
10
179.2
20
55.76976
30
0
11
176
21
55.76976
31
0
0
LINE
8
0
62
0
10
0
20
60.41724
30
0
11
3.2
21
60.41724
31
0
0
LINE
8
0
62
0
10
179.2
20
60.41724
30
0
11
176
21
60.41724
31
0
0
LINE
8
0
62
0
10
0
20
65.06472
30
0
11
3.2
21
65.06472
31
0
0
LINE
8
0
62
0
10
179.2
20
65.06472
30
0
11
176
21
65.06472
31
0
0
LINE
8
0
62
0
10
0
20
69.7122
30
0
11
6.4
21
69.7122
31
0
0
LINE
8
0
62
0
10
179.2
20
69.7122
30
0
11
172.8
21
69.7122
31
0
0
TEXT
8
0
62
0
10
-4
20
65.7122
30
0
40
8
1
15
50
0
0
LINE
8
0
62
0
10
0
20
74.35968
30
0
11
3.2
21
74.35968
31
0
0
LINE
8
0
62
0
10
179.2
20
74.35968
30
0
11
176
21
74.35968
31
0
0
LINE
8
0
62
0
10
0
20
79.00716
30
0
11
3.2
21
79.00716
31
0
0
LINE
8
0
62
0
10
179.2
20
79.00716
30
0
11
176
21
79.00716
31
0
0
LINE
8
0
62
0
10
0
20
83.65464
30
0
11
3.2
21
83.65464
31
0
0
LINE
8
0
62
0
10
179.2
20
83.65464
30
0
11
176
21
83.65464
31
0
0
LINE
8
0
62
0
10
0
20
88.30212
30
0
11
3.2
21
88.30212
31
0
0
LINE
8
0
62
0
10
179.2
20
88.30212
30
0
11
176
21
88.30212
31
0
0
LINE
8
0
62
0
10
0
20
92.9496
30
0
11
6.4
21
92.9496
31
0
0
LINE
8
0
62
0
10
179.2
20
92.9496
30
0
11
172.8
21
92.9496
31
0
0
TEXT
8
0
62
0
10
-4
20
88.9496
30
0
40
8
1
20
50
0
0
LINE
8
0
62
0
10
0
20
97.59708
30
0
11
3.2
21
97.59708
31
0
0
LINE
8
0
62
0
10
179.2
20
97.59708
30
0
11
176
21
97.59708
31
0
0
LINE
8
0
62
0
10
0
20
102.24456
30
0
11
3.2
21
102.24456
31
0
0
LINE
8
0
62
0
10
179.2
20
102.24456
30
0
11
176
21
102.24456
31
0
0
LINE
8
0
62
0
10
0
20
106.89204
30
0
11
3.2
21
106.89204
31
0
0
LINE
8
0
62
0
10
179.2
20
106.89204
30
0
11
176
21
106.89204
31
0
0
LINE
8
0
62
0
10
0
20
111.53952
30
0
11
3.2
21
111.53952
31
0
0
LINE
8
0
62
0
10
179.2
20
111.53952
30
0
11
176
21
111.53952
31
0
0
TEXT
8
0
62
0
10
-4
20
112.187
30
0
40
8
1
25
50
0
0
TEXT
8
0
62
0
10
89.6
20
-32
30
0
40
10
1
R (kpc)
50
0
0
TEXT
8
0
62
0
10
-24
20
58.0935
30
0
40
10
1
V (km/s)
50
90
0
TEXT
8
0
62
0
10
72.6
20
131.187
30
0
40
11
1
V vs. R
50
0
0
POLYLINE
8
0
62
5
70
0
10
0
20
0
30
0
0
VERTEX
8
0
10
14.7037405511851
20
10.9617992317555
30
0
0
VERTEX
8
0
10
15.6227243356342
20
11.6186361747293
30
0
0
VERTEX
8
0
10
16.5417081200833
20
12.275473117703
30
0
0
VERTEX
8
0
10
17.4606919045324
20
12.9323100606768
30
0
0
VERTEX
8
0
10
18.3796756889814
20
13.5981639925605
30
0
0
VERTEX
8
0
10
19.2986594734305
20
14.2663824215983
30
0
0
VERTEX
8
0
10
20.2176432578796
20
14.9346008506361
30
0
0
VERTEX
8
0
10
21.1366270423286
20
15.602819279674
30
0
0
VERTEX
8
0
10
22.0556108267777
20
16.2710377087118
30
0
0
VERTEX
8
0
10
22.9745946112268
20
16.9392561377496
30
0
0
VERTEX
8
0
10
23.8935783956759
20
17.6074745667875
30
0
0
VERTEX
8
0
10
24.8125621801249
20
18.2756929958253
30
0
0
VERTEX
8
0
10
25.731545964574
20
18.9439114248631
30
0
0
VERTEX
8
0
10
26.6505297490231
20
19.5900016256029
30
0
0
VERTEX
8
0
10
27.5695135334721
20
20.2392507456056
30
0
0
VERTEX
8
0
10
28.4884973179212
20
20.8884998656084
30
0
0
VERTEX
8
0
10
29.4074811023703
20
21.5916388022141
30
0
0
VERTEX
8
0
10
30.3264648868194
20
22.2826193092107
30
0
0
VERTEX
8
0
10
31.2454486712684
20
22.9735998162072
30
0
0
VERTEX
8
0
10
32.1644324557175
20
23.6430925997601
30
0
0
VERTEX
8
0
10
33.0834162401666
20
24.3188985205842
30
0
0
VERTEX
8
0
10
34.0024000246157
20
24.9516186377922
30
0
0
VERTEX
8
0
10
34.9213838090647
20
25.547749287365
30
0
0
VERTEX
8
0
10
35.8403675935138
20
26.1438799369379
30
0
0
VERTEX
8
0
10
36.7593513779629
20
26.6313642486819
30
0
0
VERTEX
8
0
10
37.6783351624119
20
27.0643047093754
30
0
0
VERTEX
8
0
10
38.597318946861
20
27.4972451700689
30
0
0
VERTEX
8
0
10
39.5163027313101
20
27.9181708145643
30
0
0
VERTEX
8
0
10
40.4352865157592
20
28.3359276774977
30
0
0
VERTEX
8
0
10
41.3542703002082
20
28.7536845404311
30
0
0
VERTEX
8
0
10
42.2732540846573
20
29.1714414033646
30
0
0
VERTEX
8
0
10
43.1922378691064
20
29.589198266298
30
0
0
VERTEX
8
0
10
44.1112216535554
20
30.0069551292315
30
0
0
VERTEX
8
0
10
45.0302054380045
20
30.4207547675239
30
0
0
VERTEX
8
0
10
45.9491892224536
20
30.8347156481522
30
0
0
VERTEX
8
0
10
46.8681730069027
20
31.2486765287806
30
0
0
VERTEX
8
0
10
47.7871567913517
20
31.662637409409
30
0
0
VERTEX
8
0
10
48.7061405758008
20
32.0765982900373
30
0
0
VERTEX
8
0
10
49.6251243602499
20
32.4905591706657
30
0
0
VERTEX
8
0
10
50.5441081446989
20
32.8455874071278
30
0
0
VERTEX
8
0
10
51.463091929148
20
33.2139939145133
30
0
0
VERTEX
8
0
10
52.3820757135971
20
33.5824004218988
30
0
0
VERTEX
8
0
10
53.3010594980462
20
33.9400294153428
30
0
0
VERTEX
8
0
10
54.2200432824952
20
34.3008430630786
30
0
0
VERTEX
8
0
10
55.1390270669443
20
34.6575169874726
30
0
0
VERTEX
8
0
10
56.0580108513934
20
35.0107376429469
30
0
0
VERTEX
8
0
10
56.9769946358424
20
35.3639582984212
30
0
0
VERTEX
8
0
10
57.8959784202915
20
35.7248213115527
30
0
0
VERTEX
8
0
10
58.8149622047406
20
36.0894314056897
30
0
0
VERTEX
8
0
10
59.7339459891897
20
36.4540414998266
30
0
0
VERTEX
8
0
10
60.6529297736387
20
36.809576865352
30
0
0
VERTEX
8
0
10
61.5719135580878
20
37.1627975208263
30
0
0
VERTEX
8
0
10
62.4908973425369
20
37.5160181763006
30
0
0
VERTEX
8
0
10
63.409881126986
20
37.7746586875588
30
0
0
VERTEX
8
0
10
64.328864911435
20
38.025360966356
30
0
0
VERTEX
8
0
10
65.2478486958841
20
38.2760632451532
30
0
0
VERTEX
8
0
10
66.1668324803332
20
38.455076925579
30
0
0
VERTEX
8
0
10
67.0858162647822
20
38.6374201883967
30
0
0
VERTEX
8
0
10
68.0048000492313
20
38.8197634512144
30
0
0
VERTEX
8
0
10
68.9237838336804
20
39.0021067140321
30
0
0
VERTEX
8
0
10
69.8427676181295
20
39.1844499768498
30
0
0
VERTEX
8
0
10
70.7617514025785
20
39.3667932396675
30
0
0
VERTEX
8
0
10
71.6807351870276
20
39.559022197315
30
0
0
VERTEX
8
0
10
72.5997189714767
20
39.7489614370806
30
0
0
VERTEX
8
0
10
73.5187027559257
20
39.9389006768462
30
0
0
VERTEX
8
0
10
74.4376865403748
20
40.1288399166117
30
0
0
VERTEX
8
0
10
75.3566703248239
20
40.3187791563773
30
0
0
VERTEX
8
0
10
76.275654109273
20
40.4918816549473
30
0
0
VERTEX
8
0
10
77.194637893722
20
40.6514361907461
30
0
0
VERTEX
8
0
10
78.1136216781711
20
40.8109907265449
30
0
0
VERTEX
8
0
10
79.0326054626202
20
40.9317689801267
30
0
0
VERTEX
8
0
10
79.9515892470693
20
41.0343464729529
30
0
0
VERTEX
8
0
10
80.8705730315183
20
41.1369239657791
30
0
0
VERTEX
8
0
10
81.7895568159674
20
41.2211032795894
30
0
0
VERTEX
8
0
10
82.7085406004165
20
41.3008878648099
30
0
0
VERTEX
8
0
10
83.6275243848655
20
41.3806724500305
30
0
0
VERTEX
8
0
10
84.5465081693146
20
41.460457035251
30
0
0
VERTEX
8
0
10
85.4654919537637
20
41.5402416204716
30
0
0
VERTEX
8
0
10
86.3844757382128
20
41.6200262056921
30
0
0
VERTEX
8
0
10
87.3034595226618
20
41.7038398953172
30
0
0
VERTEX
8
0
10
88.2224433071109
20
41.7874233814323
30
0
0
VERTEX
8
0
10
89.14142709156
20
41.8710068675474
30
0
0
VERTEX
8
0
10
90.060410876009
20
41.9455695265329
30
0
0
VERTEX
8
0
10
90.9793946604581
20
42.0215551776737
30
0
0
VERTEX
8
0
10
91.8983784449072
20
42.0975408288146
30
0
0
VERTEX
8
0
10
92.8173622293563
20
42.0986439127039
30
0
0
VERTEX
8
0
10
93.7363460138053
20
42.1176415701381
30
0
0
VERTEX
8
0
10
94.6553297982544
20
42.1366392275722
30
0
0
VERTEX
8
0
10
95.5743135827035
20
42.0789868503058
30
0
0
VERTEX
8
0
10
96.4932973671526
20
42.0447889756492
30
0
0
VERTEX
8
0
10
97.4122811516016
20
42.0019576697018
30
0
0
VERTEX
8
0
10
98.3312649360507
20
41.9525598765085
30
0
0
VERTEX
8
0
10
99.2502487204998
20
41.9031620833153
30
0
0
VERTEX
8
0
10
100.169232504949
20
41.8881018298586
30
0
0
VERTEX
8
0
10
101.088216289398
20
41.8881018298586
30
0
0
VERTEX
8
0
10
102.007200073847
20
41.8881018298586
30
0
0
VERTEX
8
0
10
102.926183858296
20
41.8881018298586
30
0
0
VERTEX
8
0
10
103.845167642745
20
41.8881018298586
30
0
0
VERTEX
8
0
10
104.764151427194
20
41.8881018298586
30
0
0
VERTEX
8
0
10
105.683135211643
20
41.8989198592431
30
0
0
VERTEX
8
0
10
106.602118996092
20
41.9103185532828
30
0
0
VERTEX
8
0
10
107.521102780541
20
41.9217172473226
30
0
0
VERTEX
8
0
10
108.44008656499
20
42.0026107888688
30
0
0
VERTEX
8
0
10
109.35907034944
20
42.0785964400097
30
0
0
VERTEX
8
0
10
110.278054133889
20
42.1545820911505
30
0
0
VERTEX
8
0
10
111.197037918338
20
42.2625499029944
30
0
0
VERTEX
8
0
10
112.116021702787
20
42.3651273958206
30
0
0
VERTEX
8
0
10
113.035005487236
20
42.4677048886468
30
0
0
VERTEX
8
0
10
113.953989271685
20
42.5450329881342
30
0
0
VERTEX
8
0
10
114.872973056134
20
42.6286164742493
30
0
0
VERTEX
8
0
10
115.791956840583
20
42.7121999603644
30
0
0
VERTEX
8
0
10
116.710940625032
20
42.8234392240568
30
0
0
VERTEX
8
0
10
117.629924409481
20
42.926016716883
30
0
0
VERTEX
8
0
10
118.54890819393
20
43.0219540897588
30
0
0
VERTEX
8
0
10
119.467891978379
20
43.1131352781094
30
0
0
VERTEX
8
0
10
120.386875762828
20
43.20431646646
30
0
0
VERTEX
8
0
10
121.305859547277
20
43.2954976548106
30
0
0
VERTEX
8
0
10
122.224843331727
20
43.3866788431612
30
0
0
VERTEX
8
0
10
123.143827116176
20
43.4778600315118
30
0
0
VERTEX
8
0
10
124.062810900625
20
43.5690412198624
30
0
0
VERTEX
8
0
10
124.981794685074
20
43.660222408213
30
0
0
VERTEX
8
0
10
125.900778469523
20
43.7514035965636
30
0
0
VERTEX
8
0
10
126.819762253972
20
43.7950416948438
30
0
0
VERTEX
8
0
10
127.738746038421
20
43.8368354458648
30
0
0
VERTEX
8
0
10
128.65772982287
20
43.8786291968858
30
0
0
VERTEX
8
0
10
129.576713607319
20
43.7879491830229
30
0
0
VERTEX
8
0
10
130.495697391768
20
43.7081499591323
30
0
0
VERTEX
8
0
10
131.414681176217
20
43.6283507352418
30
0
0
VERTEX
8
0
10
132.333664960666
20
43.5346796210073
30
0
0
VERTEX
8
0
10
133.252648745115
20
43.4434793127612
30
0
0
VERTEX
8
0
10
134.171632529565
20
43.3522790045151
30
0
0
VERTEX
8
0
10
135.090616314014
20
43.261078696269
30
0
0
VERTEX
8
0
10
136.009600098463
20
43.1698783880229
30
0
0
VERTEX
8
0
10
136.928583882912
20
43.0786780797768
30
0
0
VERTEX
8
0
10
137.847567667361
20
42.9930691206308
30
0
0
VERTEX
8
0
10
138.76655145181
20
42.9056692070406
30
0
0
VERTEX
8
0
10
139.685535236259
20
42.8159947140743
30
0
0
VERTEX
8
0
10
140.604519020708
20
42.7247944058282
30
0
0
VERTEX
8
0
10
141.523502805157
20
42.6335940975821
30
0
0
VERTEX
8
0
10
142.442486589606
20
42.5396355132344
30
0
0
VERTEX
8
0
10
143.361470374055
20
42.4446347771276
30
0
0
VERTEX
8
0
10
144.280454158504
20
42.3496340410208
30
0
0
VERTEX
8
0
10
145.199437942953
20
42.2578753055618
30
0
0
VERTEX
8
0
10
146.118421727402
20
42.1666749973157
30
0
0
VERTEX
8
0
10
147.037405511852
20
42.0754746890696
30
0
0
VERTEX
8
0
10
147.956389296301
20
41.9842743808235
30
0
0
VERTEX
8
0
10
148.87537308075
20
41.8930740725774
30
0
0
VERTEX
8
0
10
149.794356865199
20
41.8018737643313
30
0
0
VERTEX
8
0
10
150.713340649648
20
41.7148827736594
30
0
0
VERTEX
8
0
10
151.632324434097
20
41.6274828600693
30
0
0
VERTEX
8
0
10
152.551308218546
20
41.5400829464792
30
0
0
VERTEX
8
0
10
153.470292002995
20
41.4593424714036
30
0
0
VERTEX
8
0
10
154.389275787444
20
41.3773354418107
30
0
0
SEQEND
8
0
0
POLYLINE
8
0
62
6
70
0
10
0
20
0
30
0
0
VERTEX
8
0
10
14.7037405511851
20
9.06207445553197
30
0
0
VERTEX
8
0
10
15.6227243356342
20
9.43010132308449
30
0
0
VERTEX
8
0
10
16.5417081200833
20
9.79812819063702
30
0
0
VERTEX
8
0
10
17.4606919045324
20
10.1661550581895
30
0
0
VERTEX
8
0
10
18.3796756889814
20
10.6099766185211
30
0
0
VERTEX
8
0
10
19.2986594734305
20
11.0732826838157
30
0
0
VERTEX
8
0
10
20.2176432578796
20
11.5365887491104
30
0
0
VERTEX
8
0
10
21.1366270423286
20
11.9824170236235
30
0
0
VERTEX
8
0
10
22.0556108267777
20
12.4267448346159
30
0
0
VERTEX
8
0
10
22.9745946112268
20
12.8710726456083
30
0
0
VERTEX
8
0
10
23.8935783956759
20
13.3233443818464
30
0
0
VERTEX
8
0
10
24.8125621801249
20
13.775263593987
30
0
0
VERTEX
8
0
10
25.731545964574
20
14.2271828061275
30
0
0
VERTEX
8
0
10
26.6505297490231
20
14.6879983149801
30
0
0
VERTEX
8
0
10
27.5695135334721
20
15.1475087956985
30
0
0
VERTEX
8
0
10
28.4884973179212
20
15.6070192764169
30
0
0
VERTEX
8
0
10
29.4074811023703
20
16.0419078937295
30
0
0
VERTEX
8
0
10
30.3264648868194
20
16.4824399544329
30
0
0
VERTEX
8
0
10
31.2454486712684
20
16.9229720151363
30
0
0
VERTEX
8
0
10
32.1644324557175
20
17.3905079604382
30
0
0
VERTEX
8
0
10
33.0834162401666
20
17.8500184411567
30
0
0
VERTEX
8
0
10
34.0024000246157
20
18.3032851994499
30
0
0
VERTEX
8
0
10
34.9213838090647
20
18.7514087275878
30
0
0
VERTEX
8
0
10
35.8403675935138
20
19.1995322557258
30
0
0
VERTEX
8
0
10
36.7593513779629
20
19.6220788760515
30
0
0
VERTEX
8
0
10
37.6783351624119
20
20.0322437412279
30
0
0
VERTEX
8
0
10
38.597318946861
20
20.4424086064043
30
0
0
VERTEX
8
0
10
39.5163027313101
20
20.8525734715807
30
0
0
VERTEX
8
0
10
40.4352865157592
20
21.2627383367571
30
0
0
VERTEX
8
0
10
41.3542703002082
20
21.6729032019335
30
0
0
VERTEX
8
0
10
42.2732540846573
20
22.079556591262
30
0
0
VERTEX
8
0
10
43.1922378691064
20
22.4859254078391
30
0
0
VERTEX
8
0
10
44.1112216535554
20
22.8922942244162
30
0
0
VERTEX
8
0
10
45.0302054380045
20
23.30663971537
30
0
0
VERTEX
8
0
10
45.9491892224536
20
23.7206005959983
30
0
0
VERTEX
8
0
10
46.8681730069027
20
24.1345614766267
30
0
0
VERTEX
8
0
10
47.7871567913517
20
24.5395921200914
30
0
0
VERTEX
8
0
10
48.7061405758008
20
24.9459609366685
30
0
0
VERTEX
8
0
10
49.6251243602499
20
25.3523297532456
30
0
0
VERTEX
8
0
10
50.5441081446989
20
25.6895058027086
30
0
0
VERTEX
8
0
10
51.463091929148
20
26.0427264581829
30
0
0
VERTEX
8
0
10
52.3820757135971
20
26.3959471136572
30
0
0
VERTEX
8
0
10
53.3010594980462
20
26.73832717686
30
0
0
VERTEX
8
0
10
54.2200432824952
20
27.0839547074573
30
0
0
VERTEX
8
0
10
55.1390270669443
20
27.4295822380547
30
0
0
VERTEX
8
0
10
56.0580108513934
20
27.7752097686521
30
0
0
VERTEX
8
0
10
56.9769946358424
20
28.1208372992494
30
0
0
VERTEX
8
0
10
57.8959784202915
20
28.4664648298468
30
0
0
VERTEX
8
0
10
58.8149622047406
20
28.8120923604441
30
0
0
VERTEX
8
0
10
59.7339459891897
20
29.1577198910415
30
0
0
VERTEX
8
0
10
60.6529297736387
20
29.5033474216389
30
0
0
VERTEX
8
0
10
61.5719135580878
20
29.8489749522362
30
0
0
VERTEX
8
0
10
62.4908973425369
20
30.1946024828336
30
0
0
VERTEX
8
0
10
63.409881126986
20
30.5048825988926
30
0
0
VERTEX
8
0
10
64.328864911435
20
30.8125425157533
30
0
0
VERTEX
8
0
10
65.2478486958841
20
31.1202024326139
30
0
0
VERTEX
8
0
10
66.1668324803332
20
31.3997696239599
30
0
0
VERTEX
8
0
10
67.0858162647822
20
31.6808502382669
30
0
0
VERTEX
8
0
10
68.0048000492313
20
31.961930852574
30
0
0
VERTEX
8
0
10
68.9237838336804
20
32.2475034072827
30
0
0
VERTEX
8
0
10
69.8427676181295
20
32.5323811642945
30
0
0
VERTEX
8
0
10
70.7617514025785
20
32.8172589213063
30
0
0
VERTEX
8
0
10
71.6807351870276
20
33.0872251035869
30
0
0
VERTEX
8
0
10
72.5997189714767
20
33.3607113329977
30
0
0
VERTEX
8
0
10
73.5187027559257
20
33.6341975624086
30
0
0
VERTEX
8
0
10
74.4376865403748
20
33.9240314312675
30
0
0
VERTEX
8
0
10
75.3566703248239
20
34.2089091882793
30
0
0
VERTEX
8
0
10
76.275654109273
20
34.4852645778327
30
0
0
VERTEX
8
0
10
77.194637893722
20
34.7549535650512
30
0
0
VERTEX
8
0
10
78.1136216781711
20
35.0246425522697
30
0
0
VERTEX
8
0
10
79.0326054626202
20
35.2499688640112
30
0
0
VERTEX
8
0
10
79.9515892470693
20
35.4550996596057
30
0
0
VERTEX
8
0
10
80.8705730315183
20
35.6602304552002
30
0
0
VERTEX
8
0
10
81.7895568159674
20
35.8653612507947
30
0
0
VERTEX
8
0
10
82.7085406004165
20
36.0704920463892
30
0
0
VERTEX
8
0
10
83.6275243848655
20
36.2756228419837
30
0
0
VERTEX
8
0
10
84.5465081693146
20
36.4736155387525
30
0
0
VERTEX
8
0
10
85.4654919537637
20
36.6711506227758
30
0
0
VERTEX
8
0
10
86.3844757382128
20
36.8686857067991
30
0
0
VERTEX
8
0
10
87.3034595226618
20
37.0702695851095
30
0
0
VERTEX
8
0
10
88.2224433071109
20
37.2716025415041
30
0
0
VERTEX
8
0
10
89.14142709156
20
37.4729354978986
30
0
0
VERTEX
8
0
10
90.060410876009
20
37.6652114629148
30
0
0
VERTEX
8
0
10
90.9793946604581
20
37.8589486413953
30
0
0
VERTEX
8
0
10
91.8983784449072
20
38.0526858198758
30
0
0
VERTEX
8
0
10
92.8173622293563
20
38.1262107552834
30
0
0
VERTEX
8
0
10
93.7363460138053
20
38.2287882481096
30
0
0
VERTEX
8
0
10
94.6553297982544
20
38.3313657409359
30
0
0
VERTEX
8
0
10
95.5743135827035
20
38.3790368709449
30
0
0
VERTEX
8
0
10
96.4932973671526
20
38.4436255207315
30
0
0
VERTEX
8
0
10
97.4122811516016
20
38.4995205280913
30
0
0
VERTEX
8
0
10
98.3312649360507
20
38.5489127114542
30
0
0
VERTEX
8
0
10
99.2502487204998
20
38.598304894817
30
0
0
VERTEX
8
0
10
100.169232504949
20
38.650352269468
30
0
0
VERTEX
8
0
10
101.088216289398
20
38.7035436192186
30
0
0
VERTEX
8
0
10
102.007200073847
20
38.7567349689692
30
0
0
VERTEX
8
0
10
102.926183858296
20
38.8318838221445
30
0
0
VERTEX
8
0
10
103.845167642745
20
38.9116684073651
30
0
0
VERTEX
8
0
10
104.764151427194
20
38.9914529925856
30
0
0
VERTEX
8
0
10
105.683135211643
20
38.9663014296429
30
0
0
VERTEX
8
0
10
106.602118996092
20
38.935903451624
30
0
0
VERTEX
8
0
10
107.521102780541
20
38.9055054736051
30
0
0
VERTEX
8
0
10
108.44008656499
20
38.797167009377
30
0
0
VERTEX
8
0
10
109.35907034944
20
38.6945653179329
30
0
0
VERTEX
8
0
10
110.278054133889
20
38.5919636264888
30
0
0
VERTEX
8
0
10
111.197037918338
20
38.48477561316
30
0
0
VERTEX
8
0
10
112.116021702787
20
38.3783733942385
30
0
0
VERTEX
8
0
10
113.035005487236
20
38.271971175317
30
0
0
VERTEX
8
0
10
113.953989271685
20
38.1503580840019
30
0
0
VERTEX
8
0
10
114.872973056134
20
38.0325540834078
30
0
0
VERTEX
8
0
10
115.791956840583
20
37.9147500828137
30
0
0
VERTEX
8
0
10
116.710940625032
20
37.8247174528482
30
0
0
VERTEX
8
0
10
117.629924409481
20
37.7259162556756
30
0
0
VERTEX
8
0
10
118.54890819393
20
37.6226401119727
30
0
0
VERTEX
8
0
10
119.467891978379
20
37.5162378930512
30
0
0
VERTEX
8
0
10
120.386875762828
20
37.4098356741298
30
0
0
VERTEX
8
0
10
121.305859547277
20
37.2979906571715
30
0
0
VERTEX
8
0
10
122.224843331727
20
37.1839872836755
30
0
0
VERTEX
8
0
10
123.143827116176
20
37.0699839101794
30
0
0
VERTEX
8
0
10
124.062810900625
20
36.9623912988128
30
0
0
VERTEX
8
0
10
124.981794685074
20
36.8559890798914
30
0
0
VERTEX
8
0
10
125.900778469523
20
36.7495868609699
30
0
0
VERTEX
8
0
10
126.819762253972
20
36.6284274422341
30
0
0
VERTEX
8
0
10
127.738746038421
20
36.5068227813342
30
0
0
VERTEX
8
0
10
128.65772982287
20
36.3852181204342
30
0
0
VERTEX
8
0
10
129.576713607319
20
36.2093554688745
30
0
0
VERTEX
8
0
10
130.495697391768
20
36.0383392018956
30
0
0
VERTEX
8
0
10
131.414681176217
20
35.8673229349167
30
0
0
VERTEX
8
0
10
132.333664960666
20
35.6869891987301
30
0
0
VERTEX
8
0
10
133.252648745115
20
35.5083706480169
30
0
0
VERTEX
8
0
10
134.171632529565
20
35.3297520973036
30
0
0
VERTEX
8
0
10
135.090616314014
20
35.1614207455938
30
0
0
VERTEX
8
0
10
136.009600098463
20
34.9904044786149
30
0
0
VERTEX
8
0
10
136.928583882912
20
34.819388211636
30
0
0
VERTEX
8
0
10
137.847567667361
20
34.6483719446571
30
0
0
VERTEX
8
0
10
138.76655145181
20
34.4773556776782
30
0
0
VERTEX
8
0
10
139.685535236259
20
34.3017154174648
30
0
0
VERTEX
8
0
10
140.604519020708
20
34.1230968667516
30
0
0
VERTEX
8
0
10
141.523502805157
20
33.9444783160383
30
0
0
VERTEX
8
0
10
142.442486589606
20
33.7714534883553
30
0
0
VERTEX
8
0
10
143.361470374055
20
33.6004372213764
30
0
0
VERTEX
8
0
10
144.280454158504
20
33.4294209543975
30
0
0
VERTEX
8
0
10
145.199437942953
20
33.2485597513867
30
0
0
VERTEX
8
0
10
146.118421727402
20
33.0661400089844
30
0
0
VERTEX
8
0
10
147.037405511852
20
32.8837202665821
30
0
0
VERTEX
8
0
10
147.956389296301
20
32.716366698611
30
0
0
VERTEX
8
0
10
148.87537308075
20
32.5491515236783
30
0
0
VERTEX
8
0
10
149.794356865199
20
32.3819363487456
30
0
0
VERTEX
8
0
10
150.713340649648
20
32.1977161122293
30
0
0
VERTEX
8
0
10
151.632324434097
20
32.015296369827
30
0
0
VERTEX
8
0
10
152.551308218546
20
31.8328766274247
30
0
0
VERTEX
8
0
10
153.470292002995
20
31.6793247533199
30
0
0
VERTEX
8
0
10
154.389275787444
20
31.5200736635475
30
0
0
SEQEND
8
0
0
POLYLINE
8
0
62
6
70
0
10
0
20
0
30
0
0
VERTEX
8
0
10
14.7037405511851
20
21.1431864159704
30
0
0
VERTEX
8
0
10
15.6227243356342
20
21.9782990695802
30
0
0
VERTEX
8
0
10
16.5417081200833
20
22.8134117231901
30
0
0
VERTEX
8
0
10
17.4606919045324
20
23.6485243767999
30
0
0
VERTEX
8
0
10
18.3796756889814
20
24.4885774491638
30
0
0
VERTEX
8
0
10
19.2986594734305
20
25.3274824084705
30
0
0
VERTEX
8
0
10
20.2176432578796
20
26.1663873677771
30
0
0
VERTEX
8
0
10
21.1366270423286
20
27.0485818410824
30
0
0
VERTEX
8
0
10
22.0556108267777
20
27.9178240544608
30
0
0
VERTEX
8
0
10
22.9745946112268
20
28.7849767153781
30
0
0
VERTEX
8
0
10
23.8935783956759
20
29.6504268878341
30
0
0
VERTEX
8
0
10
24.8125621801249
20
30.51587706029
30
0
0
VERTEX
8
0
10
25.731545964574
20
31.3710863313996
30
0
0
VERTEX
8
0
10
26.6505297490231
20
32.2213680092086
30
0
0
VERTEX
8
0
10
27.5695135334721
20
33.0716496870176
30
0
0
VERTEX
8
0
10
28.4884973179212
20
33.9219313648266
30
0
0
VERTEX
8
0
10
29.4074811023703
20
34.7722130426356
30
0
0
VERTEX
8
0
10
30.3264648868194
20
35.6224947204446
30
0
0
VERTEX
8
0
10
31.2454486712684
20
36.4902856249657
30
0
0
VERTEX
8
0
10
32.1644324557175
20
37.3595278383441
30
0
0
VERTEX
8
0
10
33.0834162401666
20
38.2287700517225
30
0
0
VERTEX
8
0
10
34.0024000246157
20
39.0543144681573
30
0
0
VERTEX
8
0
10
34.9213838090647
20
39.8818424110768
30
0
0
VERTEX
8
0
10
35.8403675935138
20
40.7093703539963
30
0
0
VERTEX
8
0
10
36.7593513779629
20
41.3457767209013
30
0
0
VERTEX
8
0
10
37.6783351624119
20
42.0102013543695
30
0
0
VERTEX
8
0
10
38.597318946861
20
42.6746259878377
30
0
0
VERTEX
8
0
10
39.5163027313101
20
43.2996981892143
30
0
0
VERTEX
8
0
10
40.4352865157592
20
43.9337712658318
30
0
0
VERTEX
8
0
10
41.3542703002082
20
44.5678443424493
30
0
0
VERTEX
8
0
10
42.2732540846573
20
45.2073103955156
30
0
0
VERTEX
8
0
10
43.1922378691064
20
45.8451775326609
30
0
0
VERTEX
8
0
10
44.1112216535554
20
46.4830446698063
30
0
0
VERTEX
8
0
10
45.0302054380045
20
47.1209118069516
30
0
0
VERTEX
8
0
10
45.9491892224536
20
47.758778944097
30
0
0
VERTEX
8
0
10
46.8681730069027
20
48.3991924239828
30
0
0
VERTEX
8
0
10
47.7871567913517
20
49.0408535885347
30
0
0
VERTEX
8
0
10
48.7061405758008
20
49.6825147530866
30
0
0
VERTEX
8
0
10
49.6251243602499
20
50.2637705977228
30
0
0
VERTEX
8
0
10
50.5441081446989
20
50.8295449206043
30
0
0
VERTEX
8
0
10
51.463091929148
20
51.3953192434857
30
0
0
VERTEX
8
0
10
52.3820757135971
20
51.9506077224211
30
0
0
VERTEX
8
0
10
53.3010594980462
20
52.5049978761678
30
0
0
VERTEX
8
0
10
54.2200432824952
20
53.0593880299146
30
0
0
VERTEX
8
0
10
55.1390270669443
20
53.5978971533433
30
0
0
VERTEX
8
0
10
56.0580108513934
20
54.1371079510768
30
0
0
VERTEX
8
0
10
56.9769946358424
20
54.6763187488103
30
0
0
VERTEX
8
0
10
57.8959784202915
20
55.2333108166724
30
0
0
VERTEX
8
0
10
58.8149622047406
20
55.7877009704192
30
0
0
VERTEX
8
0
10
59.7339459891897
20
56.3420911241659
30
0
0
VERTEX
8
0
10
60.6529297736387
20
56.88664098985
30
0
0
VERTEX
8
0
10
61.5719135580878
20
57.4334415318535
30
0
0
VERTEX
8
0
10
62.4908973425369
20
57.980242073857
30
0
0
VERTEX
8
0
10
63.409881126986
20
58.429922254021
30
0
0
VERTEX
8
0
10
64.328864911435
20
58.9084103262123
30
0
0
VERTEX
8
0
10
65.2478486958841
20
59.3349812085819
30
0
0
VERTEX
8
0
10
66.1668324803332
20
59.718573037445
30
0
0
VERTEX
8
0
10
67.0858162647822
20
60.1021648663081
30
0
0
VERTEX
8
0
10
68.0048000492313
20
60.4934189126486
30
0
0
VERTEX
8
0
10
68.9237838336804
20
60.8883993845395
30
0
0
VERTEX
8
0
10
69.8427676181295
20
61.2833798564304
30
0
0
VERTEX
8
0
10
70.7617514025785
20
61.6722981248058
30
0
0
VERTEX
8
0
10
71.6807351870276
20
62.0596862011613
30
0
0
VERTEX
8
0
10
72.5997189714767
20
62.4470742775168
30
0
0
VERTEX
8
0
10
73.5187027559257
20
62.8344623538722
30
0
0
VERTEX
8
0
10
74.4376865403748
20
63.2218504302277
30
0
0
VERTEX
8
0
10
75.3566703248239
20
63.6092385065832
30
0
0
VERTEX
8
0
10
76.275654109273
20
63.9966265829387
30
0
0
VERTEX
8
0
10
77.194637893722
20
64.3840146592941
30
0
0
VERTEX
8
0
10
78.1136216781711
20
64.7714027356496
30
0
0
VERTEX
8
0
10
79.0326054626202
20
65.0472149374569
30
0
0
VERTEX
8
0
10
79.9515892470693
20
65.3396868803937
30
0
0
VERTEX
8
0
10
80.8705730315183
20
65.6321588233304
30
0
0
VERTEX
8
0
10
81.7895568159674
20
65.8949782441313
30
0
0
VERTEX
8
0
10
82.7085406004165
20
66.1646672313498
30
0
0
VERTEX
8
0
10
83.6275243848655
20
66.4343562185683
30
0
0
VERTEX
8
0
10
84.5465081693146
20
66.7040452057868
30
0
0
VERTEX
8
0
10
85.4654919537637
20
66.9737341930053
30
0
0
VERTEX
8
0
10
86.3844757382128
20
67.2455256214671
30
0
0
VERTEX
8
0
10
87.3034595226618
20
67.5190118508779
30
0
0
VERTEX
8
0
10
88.2224433071109
20
67.7924980802888
30
0
0
VERTEX
8
0
10
89.14142709156
20
68.0634031718561
30
0
0
VERTEX
8
0
10
90.060410876009
20
68.3330921590746
30
0
0
VERTEX
8
0
10
90.9793946604581
20
68.6027811462931
30
0
0
VERTEX
8
0
10
91.8983784449072
20
68.8020854688261
30
0
0
VERTEX
8
0
10
92.8173622293563
20
68.9844287316438
30
0
0
VERTEX
8
0
10
93.7363460138053
20
69.1667719944615
30
0
0
VERTEX
8
0
10
94.6553297982544
20
69.3066276427083
30
0
0
VERTEX
8
0
10
95.5743135827035
20
69.4433922571523
30
0
0
VERTEX
8
0
10
96.4932973671526
20
69.5801568715962
30
0
0
VERTEX
8
0
10
97.4122811516016
20
69.6887709567028
30
0
0
VERTEX
8
0
10
98.3312649360507
20
69.7989458199328
30
0
0
VERTEX
8
0
10
99.2502487204998
20
69.9091206831628
30
0
0
VERTEX
8
0
10
100.169232504949
20
70.0508124423903
30
0
0
VERTEX
8
0
10
101.088216289398
20
70.1875770568342
30
0
0
VERTEX
8
0
10
102.007200073847
20
70.3243416712782
30
0
0
VERTEX
8
0
10
102.926183858296
20
70.4262253589216
30
0
0
VERTEX
8
0
10
103.845167642745
20
70.5364002221516
30
0
0
VERTEX
8
0
10
104.764151427194
20
70.6465750853815
30
0
0
VERTEX
8
0
10
105.683135211643
20
70.7786058312364
30
0
0
VERTEX
8
0
10
106.602118996092
20
70.9039750370976
30
0
0
VERTEX
8
0
10
107.521102780541
20
71.0164674696526
30
0
0
VERTEX
8
0
10
108.44008656499
20
71.1190449624788
30
0
0
VERTEX
8
0
10
109.35907034944
20
71.221622455305
30
0
0
VERTEX
8
0
10
110.278054133889
20
71.3215727235584
30
0
0
VERTEX
8
0
10
111.197037918338
20
71.4203514814092
30
0
0
VERTEX
8
0
10
112.116021702787
20
71.5191302392599
30
0
0
VERTEX
8
0
10
113.035005487236
20
71.6148006676387
30
0
0
VERTEX
8
0
10
113.953989271685
20
71.709780657331
30
0
0
VERTEX
8
0
10
114.872973056134
20
71.8047606470234
30
0
0
VERTEX
8
0
10
115.791956840583
20
71.903330095811
30
0
0
VERTEX
8
0
10
116.710940625032
20
72.0021088536618
30
0
0
VERTEX
8
0
10
117.629924409481
20
72.1008876115126
30
0
0
VERTEX
8
0
10
118.54890819393
20
72.2118777791583
30
0
0
VERTEX
8
0
10
119.467891978379
20
72.3220526423882
30
0
0
VERTEX
8
0
10
120.386875762828
20
72.4322275056182
30
0
0
VERTEX
8
0
10
121.305859547277
20
72.533299607688
30
0
0
VERTEX
8
0
10
122.224843331727
20
72.6358771005142
30
0
0
VERTEX
8
0
10
123.143827116176
20
72.7384545933404
30
0
0
VERTEX
8
0
10
124.062810900625
20
72.825934543415
30
0
0
VERTEX
8
0
10
124.981794685074
20
72.9171157317656
30
0
0
VERTEX
8
0
10
125.900778469523
20
73.0082969201162
30
0
0
VERTEX
8
0
10
126.819762253972
20
73.0663946587278
30
0
0
VERTEX
8
0
10
127.738746038421
20
73.1347823421522
30
0
0
VERTEX
8
0
10
128.65772982287
20
73.1526447454344
30
0
0
VERTEX
8
0
10
129.576713607319
20
73.1336462581437
30
0
0
VERTEX
8
0
10
130.495697391768
20
73.114647770853
30
0
0
VERTEX
8
0
10
131.414681176217
20
73.1090472931074
30
0
0
VERTEX
8
0
10
132.333664960666
20
73.1090472931074
30
0
0
VERTEX
8
0
10
133.252648745115
20
73.1090472931074
30
0
0
VERTEX
8
0
10
134.171632529565
20
73.0426397832391
30
0
0
VERTEX
8
0
10
135.090616314014
20
72.9628405593486
30
0
0
VERTEX
8
0
10
136.009600098463
20
72.8830413354581
30
0
0
VERTEX
8
0
10
136.928583882912
20
72.8761571701536
30
0
0
VERTEX
8
0
10
137.847567667361
20
72.8723575390857
30
0
0
VERTEX
8
0
10
138.76655145181
20
72.8685579080179
30
0
0
VERTEX
8
0
10
139.685535236259
20
72.8152206974261
30
0
0
VERTEX
8
0
10
140.604519020708
20
72.7658229042329
30
0
0
VERTEX
8
0
10
141.523502805157
20
72.7164251110397
30
0
0
VERTEX
8
0
10
142.442486589606
20
72.68547280233
30
0
0
VERTEX
8
0
10
143.361470374055
20
72.6512749276734
30
0
0
VERTEX
8
0
10
144.280454158504
20
72.6170770530169
30
0
0
VERTEX
8
0
10
145.199437942953
20
72.6032555686589
30
0
0
VERTEX
8
0
10
146.118421727402
20
72.5842570813682
30
0
0
VERTEX
8
0
10
147.037405511852
20
72.5652585940775
30
0
0
VERTEX
8
0
10
147.956389296301
20
72.4793362349163
30
0
0
VERTEX
8
0
10
148.87537308075
20
72.4147379919877
30
0
0
VERTEX
8
0
10
149.794356865199
20
72.3885639362632
30
0
0
VERTEX
8
0
10
150.713340649648
20
72.3885639362632
30
0
0
VERTEX
8
0
10
151.632324434097
20
72.3885639362632
30
0
0
VERTEX
8
0
10
152.551308218546
20
72.3364519710692
30
0
0
VERTEX
8
0
10
153.470292002995
20
72.2642533040647
30
0
0
VERTEX
8
0
10
154.389275787444
20
72.1920546370602
30
0
0
SEQEND
8
0
0
POLYLINE
8
0
62
1
70
0
10
0
20
0
30
0
0
VERTEX
8
0
10
14.7037405511851
20
14.2225959597719
30
0
0
VERTEX
8
0
10
15.6227243356342
20
14.9639405747406
30
0
0
VERTEX
8
0
10
16.5417081200833
20
15.7063858447322
30
0
0
VERTEX
8
0
10
17.4606919045324
20
16.4497827393748
30
0
0
VERTEX
8
0
10
18.3796756889814
20
17.2476568789541
30
0
0
VERTEX
8
0
10
19.2986594734305
20
18.059547524647
30
0
0
VERTEX
8
0
10
20.2176432578796
20
18.8715442540859
30
0
0
VERTEX
8
0
10
21.1366270423286
20
19.6729836883526
30
0
0
VERTEX
8
0
10
22.0556108267777
20
20.4736575946501
30
0
0
VERTEX
8
0
10
22.9745946112268
20
21.27446614016
30
0
0
VERTEX
8
0
10
23.8935783956759
20
22.0801871852878
30
0
0
VERTEX
8
0
10
24.8125621801249
20
22.8857781506655
30
0
0
VERTEX
8
0
10
25.731545964574
20
23.6914438283535
30
0
0
VERTEX
8
0
10
26.6505297490231
20
24.484800554466
30
0
0
VERTEX
8
0
10
27.5695135334721
20
25.2799187787315
30
0
0
VERTEX
8
0
10
28.4884973179212
20
26.0750546946689
30
0
0
VERTEX
8
0
10
29.4074811023703
20
26.8987299892798
30
0
0
VERTEX
8
0
10
30.3264648868194
20
27.7161676667373
30
0
0
VERTEX
8
0
10
31.2454486712684
20
28.5337216349414
30
0
0
VERTEX
8
0
10
32.1644324557175
20
29.3500527223189
30
0
0
VERTEX
8
0
10
33.0834162401666
20
30.1667363764147
30
0
0
VERTEX
8
0
10
34.0024000246157
20
30.9450080261456
30
0
0
VERTEX
8
0
10
34.9213838090647
20
31.6907371785372
30
0
0
VERTEX
8
0
10
35.8403675935138
20
32.4364686270821
30
0
0
VERTEX
8
0
10
36.7593513779629
20
33.0795335693229
30
0
0
VERTEX
8
0
10
37.6783351624119
20
33.6714623785467
30
0
0
VERTEX
8
0
10
38.597318946861
20
34.263545665533
30
0
0
VERTEX
8
0
10
39.5163027313101
20
34.8461487401242
30
0
0
VERTEX
8
0
10
40.4352865157592
20
35.4263861961925
30
0
0
VERTEX
8
0
10
41.3542703002082
20
36.0067925237865
30
0
0
VERTEX
8
0
10
42.2732540846573
20
36.585240368442
30
0
0
VERTEX
8
0
10
43.1922378691064
20
37.163658263002
30
0
0
VERTEX
8
0
10
44.1112216535554
20
37.7422109975681
30
0
0
VERTEX
8
0
10
45.0302054380045
20
38.3226013658766
30
0
0
VERTEX
8
0
10
45.9491892224536
20
38.9030407775187
30
0
0
VERTEX
8
0
10
46.8681730069027
20
39.4836275241959
30
0
0
VERTEX
8
0
10
47.7871567913517
20
40.0588840226504
30
0
0
VERTEX
8
0
10
48.7061405758008
20
40.6350725963941
30
0
0
VERTEX
8
0
10
49.6251243602499
20
41.2113705079051
30
0
0
VERTEX
8
0
10
50.5441081446989
20
41.6987208497655
30
0
0
VERTEX
8
0
10
51.463091929148
20
42.2065515427293
30
0
0
VERTEX
8
0
10
52.3820757135971
20
42.7144430154923
30
0
0
VERTEX
8
0
10
53.3010594980462
20
43.2072185743441
30
0
0
VERTEX
8
0
10
54.2200432824952
20
43.7045585429432
30
0
0
VERTEX
8
0
10
55.1390270669443
20
44.1987043417695
30
0
0
VERTEX
8
0
10
56.0580108513934
20
44.6902005812894
30
0
0
VERTEX
8
0
10
56.9769946358424
20
45.1817555761541
30
0
0
VERTEX
8
0
10
57.8959784202915
20
45.6793441026825
30
0
0
VERTEX
8
0
10
58.8149622047406
20
46.1799060779983
30
0
0
VERTEX
8
0
10
59.7339459891897
20
46.6805073977942
30
0
0
VERTEX
8
0
10
60.6529297736387
20
47.1740655242706
30
0
0
VERTEX
8
0
10
61.5719135580878
20
47.6658664588525
30
0
0
VERTEX
8
0
10
62.4908973425369
20
48.1577162965693
30
0
0
VERTEX
8
0
10
63.409881126986
20
48.5538124284158
30
0
0
VERTEX
8
0
10
64.328864911435
20
48.9422195339236
30
0
0
VERTEX
8
0
10
65.2478486958841
20
49.330761366452
30
0
0
VERTEX
8
0
10
66.1668324803332
20
49.6461325159367
30
0
0
VERTEX
8
0
10
67.0858162647822
20
49.9652530328249
30
0
0
VERTEX
8
0
10
68.0048000492313
20
50.284580720465
30
0
0
VERTEX
8
0
10
68.9237838336804
20
50.6069738685831
30
0
0
VERTEX
8
0
10
69.8427676181295
20
50.9291364957937
30
0
0
VERTEX
8
0
10
70.7617514025785
20
51.2515062518439
30
0
0
VERTEX
8
0
10
71.6807351870276
20
51.5720922812241
30
0
0
VERTEX
8
0
10
72.5997189714767
20
51.893323231126
30
0
0
VERTEX
8
0
10
73.5187027559257
20
52.214701310475
30
0
0
VERTEX
8
0
10
74.4376865403748
20
52.546776319796
30
0
0
VERTEX
8
0
10
75.3566703248239
20
52.8758302110961
30
0
0
VERTEX
8
0
10
76.275654109273
20
53.1867084238288
30
0
0
VERTEX
8
0
10
77.194637893722
20
53.4831381061281
30
0
0
VERTEX
8
0
10
78.1136216781711
20
53.7797596684515
30
0
0
VERTEX
8
0
10
79.0326054626202
20
54.0182378160952
30
0
0
VERTEX
8
0
10
79.9515892470693
20
54.2298965731534
30
0
0
VERTEX
8
0
10
80.8705730315183
20
54.4416986278375
30
0
0
VERTEX
8
0
10
81.7895568159674
20
54.6397611015694
30
0
0
VERTEX
8
0
10
82.7085406004165
20
54.8346946274914
30
0
0
VERTEX
8
0
10
83.6275243848655
20
55.0298179625425
30
0
0
VERTEX
8
0
10
84.5465081693146
20
55.2204140516949
30
0
0
VERTEX
8
0
10
85.4654919537637
20
55.4108740400787
30
0
0
VERTEX
8
0
10
86.3844757382128
20
55.6014978854818
30
0
0
VERTEX
8
0
10
87.3034595226618
20
55.7979851708549
30
0
0
VERTEX
8
0
10
88.2224433071109
20
55.9942953243536
30
0
0
VERTEX
8
0
10
89.14142709156
20
56.1907653527861
30
0
0
VERTEX
8
0
10
90.060410876009
20
56.3746304418157
30
0
0
VERTEX
8
0
10
90.9793946604581
20
56.5606850363579
30
0
0
VERTEX
8
0
10
91.8983784449072
20
56.746892795464
30
0
0
VERTEX
8
0
10
92.8173622293563
20
56.7970401151762
30
0
0
VERTEX
8
0
10
93.7363460138053
20
56.8800139095397
30
0
0
VERTEX
8
0
10
94.6553297982544
20
56.9630578968508
30
0
0
VERTEX
8
0
10
95.5743135827035
20
56.9525381830306
30
0
0
VERTEX
8
0
10
96.4932973671526
20
56.970840113036
30
0
0
VERTEX
8
0
10
97.4122811516016
20
56.976991224356
30
0
0
VERTEX
8
0
10
98.3312649360507
20
56.9739936411987
30
0
0
VERTEX
8
0
10
99.2502487204998
20
56.971081553134
30
0
0
VERTEX
8
0
10
100.169232504949
20
56.9952875724176
30
0
0
VERTEX
8
0
10
101.088216289398
20
57.0313717491817
30
0
0
VERTEX
8
0
10
102.007200073847
20
57.0674826881607
30
0
0
VERTEX
8
0
10
102.926183858296
20
57.118545815568
30
0
0
VERTEX
8
0
10
103.845167642745
20
57.1728170825379
30
0
0
VERTEX
8
0
10
104.764151427194
20
57.2271481150478
30
0
0
VERTEX
8
0
10
105.683135211643
20
57.2179354090749
30
0
0
VERTEX
8
0
10
106.602118996092
20
57.2055887027818
30
0
0
VERTEX
8
0
10
107.521102780541
20
57.1932577592953
30
0
0
VERTEX
8
0
10
108.44008656499
20
57.1790125923375
30
0
0
VERTEX
8
0
10
109.35907034944
20
57.1653536987656
30
0
0
VERTEX
8
0
10
110.278054133889
20
57.1519767622065
30
0
0
VERTEX
8
0
10
111.197037918338
20
57.1594356016429
30
0
0
VERTEX
8
0
10
112.116021702787
20
57.1638309042676
30
0
0
VERTEX
8
0
10
113.035005487236
20
57.1686079606063
30
0
0
VERTEX
8
0
10
113.953989271685
20
57.1448130095724
30
0
0
VERTEX
8
0
10
114.872973056134
20
57.1285752720648
30
0
0
VERTEX
8
0
10
115.791956840583
20
57.1126982316225
30
0
0
VERTEX
8
0
10
116.710940625032
20
57.136294921567
30
0
0
VERTEX
8
0
10
117.629924409481
20
57.1479454443322
30
0
0
VERTEX
8
0
10
118.54890819393
20
57.1520041879227
30
0
0
VERTEX
8
0
10
119.467891978379
20
57.1507702411487
30
0
0
VERTEX
8
0
10
120.386875762828
20
57.1498798467627
30
0
0
VERTEX
8
0
10
121.305859547277
20
57.1457804587545
30
0
0
VERTEX
8
0
10
122.224843331727
20
57.1406406277717
30
0
0
VERTEX
8
0
10
123.143827116176
20
57.135873319839
30
0
0
VERTEX
8
0
10
124.062810900625
20
57.1356256931227
30
0
0
VERTEX
8
0
10
124.981794685074
20
57.1364940453271
30
0
0
VERTEX
8
0
10
125.900778469523
20
57.137706036569
30
0
0
VERTEX
8
0
10
126.819762253972
20
57.093321622972
30
0
0
VERTEX
8
0
10
127.738746038421
20
57.0474911937026
30
0
0
VERTEX
8
0
10
128.65772982287
20
57.0019139842635
30
0
0
VERTEX
8
0
10
129.576713607319
20
56.8199077535885
30
0
0
VERTEX
8
0
10
130.495697391768
20
56.6494860107387
30
0
0
VERTEX
8
0
10
131.414681176217
20
56.4791806101583
30
0
0
VERTEX
8
0
10
132.333664960666
20
56.2923576320448
30
0
0
VERTEX
8
0
10
133.252648745115
20
56.1086471132147
30
0
0
VERTEX
8
0
10
134.171632529565
20
55.9250523302594
30
0
0
VERTEX
8
0
10
135.090616314014
20
55.748062197833
30
0
0
VERTEX
8
0
10
136.009600098463
20
55.5694772839709
30
0
0
VERTEX
8
0
10
136.928583882912
20
55.3909947602826
30
0
0
VERTEX
8
0
10
137.847567667361
20
55.2169690478084
30
0
0
VERTEX
8
0
10
138.76655145181
20
55.0416615358687
30
0
0
VERTEX
8
0
10
139.685535236259
20
54.8617998605257
30
0
0
VERTEX
8
0
10
140.604519020708
20
54.6790069112269
30
0
0
VERTEX
8
0
10
141.523502805157
20
54.4963389029518
30
0
0
VERTEX
8
0
10
142.442486589606
20
54.3151144739195
30
0
0
VERTEX
8
0
10
143.361470374055
20
54.1344289970016
30
0
0
VERTEX
8
0
10
144.280454158504
20
53.9538477659814
30
0
0
VERTEX
8
0
10
145.199437942953
20
53.7698312335267
30
0
0
VERTEX
8
0
10
146.118421727402
20
53.5854280138081
30
0
0
VERTEX
8
0
10
147.037405511852
20
53.4011669243413
30
0
0
VERTEX
8
0
10
147.956389296301
20
53.2263087696513
30
0
0
VERTEX
8
0
10
148.87537308075
20
53.0516438968844
30
0
0
VERTEX
8
0
10
149.794356865199
20
52.8770881564341
30
0
0
VERTEX
8
0
10
150.713340649648
20
52.695582050717
30
0
0
VERTEX
8
0
10
151.632324434097
20
52.5150124337148
30
0
0
VERTEX
8
0
10
152.551308218546
20
52.3346016090427
30
0
0
VERTEX
8
0
10
153.470292002995
20
52.1771664139347
30
0
0
VERTEX
8
0
10
154.389275787444
20
52.0153720742204
30
0
0
SEQEND
8
0
0
POLYLINE
8
0
62
2
70
0
10
0
20
0
30
0
0
VERTEX
8
0
10
14.7037405511851
20
14.2225959597719
30
0
0
VERTEX
8
0
10
15.6227243356342
20
14.9639405747406
30
0
0
VERTEX
8
0
10
16.5417081200833
20
15.7063858447322
30
0
0
VERTEX
8
0
10
17.4606919045324
20
16.4497827393748
30
0
0
VERTEX
8
0
10
18.3796756889814
20
17.2476568789541
30
0
0
VERTEX
8
0
10
19.2986594734305
20
18.059547524647
30
0
0
VERTEX
8
0
10
20.2176432578796
20
18.8715442540859
30
0
0
VERTEX
8
0
10
21.1366270423286
20
19.6729836883526
30
0
0
VERTEX
8
0
10
22.0556108267777
20
20.4736575946501
30
0
0
VERTEX
8
0
10
22.9745946112268
20
21.27446614016
30
0
0
VERTEX
8
0
10
23.8935783956759
20
22.0801871852878
30
0
0
VERTEX
8
0
10
24.8125621801249
20
22.8857781506655
30
0
0
VERTEX
8
0
10
25.731545964574
20
23.6914438283535
30
0
0
VERTEX
8
0
10
26.6505297490231
20
24.484800554466
30
0
0
VERTEX
8
0
10
27.5695135334721
20
25.2799187787315
30
0
0
VERTEX
8
0
10
28.4884973179212
20
26.0750546946689
30
0
0
VERTEX
8
0
10
29.4074811023703
20
26.8987299892798
30
0
0
VERTEX
8
0
10
30.3264648868194
20
27.7161676667373
30
0
0
VERTEX
8
0
10
31.2454486712684
20
28.5337216349414
30
0
0
VERTEX
8
0
10
32.1644324557175
20
29.3500527223189
30
0
0
VERTEX
8
0
10
33.0834162401666
20
30.1667363764147
30
0
0
VERTEX
8
0
10
34.0024000246157
20
30.9450080261456
30
0
0
VERTEX
8
0
10
34.9213838090647
20
31.6907371785372
30
0
0
VERTEX
8
0
10
35.8403675935138
20
32.4364686270821
30
0
0
VERTEX
8
0
10
36.7593513779629
20
33.0795335693229
30
0
0
VERTEX
8
0
10
37.6783351624119
20
33.6714623785467
30
0
0
VERTEX
8
0
10
38.597318946861
20
34.263545665533
30
0
0
VERTEX
8
0
10
39.5163027313101
20
34.8461487401242
30
0
0
VERTEX
8
0
10
40.4352865157592
20
35.4263861961925
30
0
0
VERTEX
8
0
10
41.3542703002082
20
36.0067925237865
30
0
0
VERTEX
8
0
10
42.2732540846573
20
36.585240368442
30
0
0
VERTEX
8
0
10
43.1922378691064
20
37.163658263002
30
0
0
VERTEX
8
0
10
44.1112216535554
20
37.7422109975681
30
0
0
VERTEX
8
0
10
45.0302054380045
20
38.3226013658766
30
0
0
VERTEX
8
0
10
45.9491892224536
20
38.9030407775187
30
0
0
VERTEX
8
0
10
46.8681730069027
20
39.4836275241959
30
0
0
VERTEX
8
0
10
47.7871567913517
20
40.0588840226504
30
0
0
VERTEX
8
0
10
48.7061405758008
20
40.6350725963941
30
0
0
VERTEX
8
0
10
49.6251243602499
20
41.2113705079051
30
0
0
VERTEX
8
0
10
50.5441081446989
20
41.6987208497655
30
0
0
VERTEX
8
0
10
51.463091929148
20
42.2065515427293
30
0
0
VERTEX
8
0
10
52.3820757135971
20
42.7144430154923
30
0
0
VERTEX
8
0
10
53.3010594980462
20
43.2072185743441
30
0
0
VERTEX
8
0
10
54.2200432824952
20
43.7045585429432
30
0
0
VERTEX
8
0
10
55.1390270669443
20
44.1987043417695
30
0
0
VERTEX
8
0
10
56.0580108513934
20
44.6902005812894
30
0
0
VERTEX
8
0
10
56.9769946358424
20
45.1817555761541
30
0
0
VERTEX
8
0
10
57.8959784202915
20
45.6793441026825
30
0
0
VERTEX
8
0
10
58.8149622047406
20
46.1799060779983
30
0
0
VERTEX
8
0
10
59.7339459891897
20
46.6805073977942
30
0
0
VERTEX
8
0
10
60.6529297736387
20
47.1740655242706
30
0
0
VERTEX
8
0
10
61.5719135580878
20
47.6658664588525
30
0
0
VERTEX
8
0
10
62.4908973425369
20
48.1577162965693
30
0
0
VERTEX
8
0
10
63.409881126986
20
48.5538124284158
30
0
0
VERTEX
8
0
10
64.328864911435
20
48.9422195339236
30
0
0
VERTEX
8
0
10
65.2478486958841
20
49.330761366452
30
0
0
VERTEX
8
0
10
66.1668324803332
20
49.6461325159367
30
0
0
VERTEX
8
0
10
67.0858162647822
20
49.9652530328249
30
0
0
VERTEX
8
0
10
68.0048000492313
20
50.284580720465
30
0
0
VERTEX
8
0
10
68.9237838336804
20
50.6069738685831
30
0
0
VERTEX
8
0
10
69.8427676181295
20
50.9291364957937
30
0
0
VERTEX
8
0
10
70.7617514025785
20
51.2515062518439
30
0
0
VERTEX
8
0
10
71.6807351870276
20
51.5720922812241
30
0
0
VERTEX
8
0
10
72.5997189714767
20
51.893323231126
30
0
0
VERTEX
8
0
10
73.5187027559257
20
52.2147013104749
30
0
0
VERTEX
8
0
10
74.4376865403748
20
52.546776319796
30
0
0
VERTEX
8
0
10
75.3566703248239
20
52.8758302110961
30
0
0
VERTEX
8
0
10
76.275654109273
20
53.1867084238288
30
0
0
VERTEX
8
0
10
77.194637893722
20
53.483138106128
30
0
0
VERTEX
8
0
10
78.1136216781711
20
53.7797596684515
30
0
0
VERTEX
8
0
10
79.0326054626202
20
54.0182378160952
30
0
0
VERTEX
8
0
10
79.9515892470693
20
54.2298965731534
30
0
0
VERTEX
8
0
10
80.8705730315183
20
54.4416986278375
30
0
0
VERTEX
8
0
10
81.7895568159674
20
54.6397611015694
30
0
0
VERTEX
8
0
10
82.7085406004165
20
54.8346946274914
30
0
0
VERTEX
8
0
10
83.6275243848655
20
55.0298179625425
30
0
0
VERTEX
8
0
10
84.5465081693146
20
55.2204140516949
30
0
0
VERTEX
8
0
10
85.4654919537637
20
55.4108740400787
30
0
0
VERTEX
8
0
10
86.3844757382128
20
55.6014978854818
30
0
0
VERTEX
8
0
10
87.3034595226618
20
55.7979851708549
30
0
0
VERTEX
8
0
10
88.2224433071109
20
55.9942953243536
30
0
0
VERTEX
8
0
10
89.14142709156
20
56.1907653527861
30
0
0
VERTEX
8
0
10
90.060410876009
20
56.3746304418157
30
0
0
VERTEX
8
0
10
90.9793946604581
20
56.5606850363579
30
0
0
VERTEX
8
0
10
91.8983784449072
20
56.746892795464
30
0
0
VERTEX
8
0
10
92.8173622293563
20
56.7970401151762
30
0
0
VERTEX
8
0
10
93.7363460138053
20
56.8800139095397
30
0
0
VERTEX
8
0
10
94.6553297982544
20
56.9630578968508
30
0
0
VERTEX
8
0
10
95.5743135827035
20
56.9525381830306
30
0
0
VERTEX
8
0
10
96.4932973671526
20
56.970840113036
30
0
0
VERTEX
8
0
10
97.4122811516016
20
56.976991224356
30
0
0
VERTEX
8
0
10
98.3312649360507
20
56.9739936411987
30
0
0
VERTEX
8
0
10
99.2502487204998
20
56.971081553134
30
0
0
VERTEX
8
0
10
100.169232504949
20
56.9952875724176
30
0
0
VERTEX
8
0
10
101.088216289398
20
57.0313717491817
30
0
0
VERTEX
8
0
10
102.007200073847
20
57.0674826881608
30
0
0
VERTEX
8
0
10
102.926183858296
20
57.1185458155679
30
0
0
VERTEX
8
0
10
103.845167642745
20
57.1728170825379
30
0
0
VERTEX
8
0
10
104.764151427194
20
57.2271481150478
30
0
0
VERTEX
8
0
10
105.683135211643
20
57.2179354090749
30
0
0
VERTEX
8
0
10
106.602118996092
20
57.2055887027818
30
0
0
VERTEX
8
0
10
107.521102780541
20
57.1932577592953
30
0
0
VERTEX
8
0
10
108.44008656499
20
57.1790125923375
30
0
0
VERTEX
8
0
10
109.35907034944
20
57.1653536987656
30
0
0
VERTEX
8
0
10
110.278054133889
20
57.1519767622065
30
0
0
VERTEX
8
0
10
111.197037918338
20
57.1594356016429
30
0
0
VERTEX
8
0
10
112.116021702787
20
57.1638309042676
30
0
0
VERTEX
8
0
10
113.035005487236
20
57.1686079606063
30
0
0
VERTEX
8
0
10
113.953989271685
20
57.1448130095724
30
0
0
VERTEX
8
0
10
114.872973056134
20
57.1285752720648
30
0
0
VERTEX
8
0
10
115.791956840583
20
57.1126982316225
30
0
0
VERTEX
8
0
10
116.710940625032
20
57.136294921567
30
0
0
VERTEX
8
0
10
117.629924409481
20
57.1479454443322
30
0
0
VERTEX
8
0
10
118.54890819393
20
57.1520041879227
30
0
0
VERTEX
8
0
10
119.467891978379
20
57.1507702411487
30
0
0
VERTEX
8
0
10
120.386875762828
20
57.1498798467627
30
0
0
VERTEX
8
0
10
121.305859547277
20
57.1457804587545
30
0
0
VERTEX
8
0
10
122.224843331727
20
57.1406406277717
30
0
0
VERTEX
8
0
10
123.143827116176
20
57.135873319839
30
0
0
VERTEX
8
0
10
124.062810900625
20
57.1356256931227
30
0
0
VERTEX
8
0
10
124.981794685074
20
57.1364940453271
30
0
0
VERTEX
8
0
10
125.900778469523
20
57.137706036569
30
0
0
VERTEX
8
0
10
126.819762253972
20
57.093321622972
30
0
0
VERTEX
8
0
10
127.738746038421
20
57.0474911937026
30
0
0
VERTEX
8
0
10
128.65772982287
20
57.0019139842635
30
0
0
VERTEX
8
0
10
129.576713607319
20
56.8199077535885
30
0
0
VERTEX
8
0
10
130.495697391768
20
56.6494860107387
30
0
0
VERTEX
8
0
10
131.414681176217
20
56.4791806101583
30
0
0
VERTEX
8
0
10
132.333664960666
20
56.2923576320448
30
0
0
VERTEX
8
0
10
133.252648745115
20
56.1086471132147
30
0
0
VERTEX
8
0
10
134.171632529565
20
55.9250523302594
30
0
0
VERTEX
8
0
10
135.090616314014
20
55.748062197833
30
0
0
VERTEX
8
0
10
136.009600098463
20
55.5694772839709
30
0
0
VERTEX
8
0
10
136.928583882912
20
55.3909947602826
30
0
0
VERTEX
8
0
10
137.847567667361
20
55.2169690478084
30
0
0
VERTEX
8
0
10
138.76655145181
20
55.0416615358687
30
0
0
VERTEX
8
0
10
139.685535236259
20
54.8617998605257
30
0
0
VERTEX
8
0
10
140.604519020708
20
54.6790069112269
30
0
0
VERTEX
8
0
10
141.523502805157
20
54.4963389029519
30
0
0
VERTEX
8
0
10
142.442486589606
20
54.3151144739195
30
0
0
VERTEX
8
0
10
143.361470374055
20
54.1344289970016
30
0
0
VERTEX
8
0
10
144.280454158504
20
53.9538477659814
30
0
0
VERTEX
8
0
10
145.199437942953
20
53.7698312335267
30
0
0
VERTEX
8
0
10
146.118421727402
20
53.5854280138081
30
0
0
VERTEX
8
0
10
147.037405511852
20
53.4011669243413
30
0
0
VERTEX
8
0
10
147.956389296301
20
53.2263087696513
30
0
0
VERTEX
8
0
10
148.87537308075
20
53.0516438968844
30
0
0
VERTEX
8
0
10
149.794356865199
20
52.8770881564341
30
0
0
VERTEX
8
0
10
150.713340649648
20
52.695582050717
30
0
0
VERTEX
8
0
10
151.632324434097
20
52.5150124337148
30
0
0
VERTEX
8
0
10
152.551308218546
20
52.3346016090427
30
0
0
VERTEX
8
0
10
153.470292002995
20
52.1771664139347
30
0
0
VERTEX
8
0
10
154.389275787444
20
52.0153720742204
30
0
0
SEQEND
8
0
0
POLYLINE
8
0
62
3
70
0
10
0
20
0
30
0
0
VERTEX
8
0
10
14.7037405511851
20
20.1053051790593
30
0
0
VERTEX
8
0
10
15.6227243356342
20
20.9996434990221
30
0
0
VERTEX
8
0
10
16.5417081200833
20
21.9562433108998
30
0
0
VERTEX
8
0
10
17.4606919045324
20
23.1310428433488
30
0
0
VERTEX
8
0
10
18.3796756889814
20
23.9731721511279
30
0
0
VERTEX
8
0
10
19.2986594734305
20
24.910975487533
30
0
0
VERTEX
8
0
10
20.2176432578796
20
26.0213354503591
30
0
0
VERTEX
8
0
10
21.1366270423286
20
26.8204314472311
30
0
0
VERTEX
8
0
10
22.0556108267777
20
27.7363394333039
30
0
0
VERTEX
8
0
10
22.9745946112268
20
28.7905569149154
30
0
0
VERTEX
8
0
10
23.8935783956759
20
29.5430597356313
30
0
0
VERTEX
8
0
10
24.8125621801249
20
30.444826397485
30
0
0
VERTEX
8
0
10
25.731545964574
20
31.3135469213875
30
0
0
VERTEX
8
0
10
26.6505297490231
20
32.1659737085045
30
0
0
VERTEX
8
0
10
27.5695135334721
20
33.0456556902326
30
0
0
VERTEX
8
0
10
28.4884973179212
20
33.8708062438513
30
0
0
VERTEX
8
0
10
29.4074811023703
20
34.6913683665825
30
0
0
VERTEX
8
0
10
30.3264648868194
20
35.5459894860355
30
0
0
VERTEX
8
0
10
31.2454486712684
20
36.3315929928069
30
0
0
VERTEX
8
0
10
32.1644324557175
20
37.1234377364426
30
0
0
VERTEX
8
0
10
33.0834162401666
20
37.951600347119
30
0
0
VERTEX
8
0
10
34.0024000246157
20
38.7008340800375
30
0
0
VERTEX
8
0
10
34.9213838090647
20
39.4661025711512
30
0
0
VERTEX
8
0
10
35.8403675935138
20
40.2672738377591
30
0
0
VERTEX
8
0
10
36.7593513779629
20
40.9827192116089
30
0
0
VERTEX
8
0
10
37.6783351624119
20
41.7229343767434
30
0
0
VERTEX
8
0
10
38.597318946861
20
42.4970699073919
30
0
0
VERTEX
8
0
10
39.5163027313101
20
43.1841084575133
30
0
0
VERTEX
8
0
10
40.4352865157592
20
43.8971660112584
30
0
0
VERTEX
8
0
10
41.3542703002082
20
44.6013844632959
30
0
0
VERTEX
8
0
10
42.2732540846573
20
45.2989405112806
30
0
0
VERTEX
8
0
10
43.1922378691064
20
45.9917326288054
30
0
0
VERTEX
8
0
10
44.1112216535554
20
46.6669102088961
30
0
0
VERTEX
8
0
10
45.0302054380045
20
47.3375022520746
30
0
0
VERTEX
8
0
10
45.9491892224536
20
48.0093220111441
30
0
0
VERTEX
8
0
10
46.8681730069027
20
48.6565089148364
30
0
0
VERTEX
8
0
10
47.7871567913517
20
49.3019378848029
30
0
0
VERTEX
8
0
10
48.7061405758008
20
49.9524272692164
30
0
0
VERTEX
8
0
10
49.6251243602499
20
50.5726509418118
30
0
0
VERTEX
8
0
10
50.5441081446989
20
51.1943498469929
30
0
0
VERTEX
8
0
10
51.463091929148
20
51.8234009700912
30
0
0
VERTEX
8
0
10
52.3820757135971
20
52.4176667023806
30
0
0
VERTEX
8
0
10
53.3010594980462
20
53.0168176858074
30
0
0
VERTEX
8
0
10
54.2200432824952
20
53.6245130747364
30
0
0
VERTEX
8
0
10
55.1390270669443
20
54.1984946054977
30
0
0
VERTEX
8
0
10
56.0580108513934
20
54.7714370229385
30
0
0
VERTEX
8
0
10
56.9769946358424
20
55.3407661493002
30
0
0
VERTEX
8
0
10
57.8959784202915
20
55.9059090197176
30
0
0
VERTEX
8
0
10
58.8149622047406
20
56.4603816498961
30
0
0
VERTEX
8
0
10
59.7339459891897
20
57.0072045347351
30
0
0
VERTEX
8
0
10
60.6529297736387
20
57.5498400324378
30
0
0
VERTEX
8
0
10
61.5719135580878
20
58.0860006219733
30
0
0
VERTEX
8
0
10
62.4908973425369
20
58.6111021276229
30
0
0
VERTEX
8
0
10
63.409881126986
20
59.1327077533011
30
0
0
VERTEX
8
0
10
64.328864911435
20
59.6509781928278
30
0
0
VERTEX
8
0
10
65.2478486958841
20
60.15535942394
30
0
0
VERTEX
8
0
10
66.1668324803332
20
60.6574666687772
30
0
0
VERTEX
8
0
10
67.0858162647822
20
61.1586216901269
30
0
0
VERTEX
8
0
10
68.0048000492313
20
61.6436336540169
30
0
0
VERTEX
8
0
10
68.9237838336804
20
62.128053648198
30
0
0
VERTEX
8
0
10
69.8427676181295
20
62.6134477208817
30
0
0
VERTEX
8
0
10
70.7617514025785
20
63.0854494631575
30
0
0
VERTEX
8
0
10
71.6807351870276
20
63.5504181916436
30
0
0
VERTEX
8
0
10
72.5997189714767
20
64.015252050627
30
0
0
VERTEX
8
0
10
73.5187027559257
20
64.4793165673382
30
0
0
VERTEX
8
0
10
74.4376865403748
20
64.9355508056977
30
0
0
VERTEX
8
0
10
75.3566703248239
20
65.392304462134
30
0
0
VERTEX
8
0
10
76.275654109273
20
65.8520197430071
30
0
0
VERTEX
8
0
10
77.194637893722
20
66.3150287121556
30
0
0
VERTEX
8
0
10
78.1136216781711
20
66.7931084189827
30
0
0
VERTEX
8
0
10
79.0326054626202
20
67.2630822877492
30
0
0
VERTEX
8
0
10
79.9515892470693
20
67.6992923990339
30
0
0
VERTEX
8
0
10
80.8705730315183
20
68.1105051609567
30
0
0
VERTEX
8
0
10
81.7895568159674
20
68.5053071373713
30
0
0
VERTEX
8
0
10
82.7085406004165
20
68.8856682244166
30
0
0
VERTEX
8
0
10
83.6275243848655
20
69.2487231013272
30
0
0
VERTEX
8
0
10
84.5465081693146
20
69.6006284532305
30
0
0
VERTEX
8
0
10
85.4654919537637
20
69.9423771245138
30
0
0
VERTEX
8
0
10
86.3844757382128
20
70.2712585960291
30
0
0
VERTEX
8
0
10
87.3034595226618
20
70.5844957164944
30
0
0
VERTEX
8
0
10
88.2224433071109
20
70.8902133088017
30
0
0
VERTEX
8
0
10
89.14142709156
20
71.1874732857234
30
0
0
VERTEX
8
0
10
90.060410876009
20
71.4700539088145
30
0
0
VERTEX
8
0
10
90.9793946604581
20
71.7447523902197
30
0
0
VERTEX
8
0
10
91.8983784449072
20
72.010866555325
30
0
0
VERTEX
8
0
10
92.8173622293563
20
72.2646618085204
30
0
0
VERTEX
8
0
10
93.7363460138053
20
72.5101030584041
30
0
0
VERTEX
8
0
10
94.6553297982544
20
72.746947883961
30
0
0
VERTEX
8
0
10
95.5743135827035
20
72.9732336865673
30
0
0
VERTEX
8
0
10
96.4932973671526
20
73.1906990529496
30
0
0
VERTEX
8
0
10
97.4122811516016
20
73.3996791874808
30
0
0
VERTEX
8
0
10
98.3312649360507
20
73.5994160970503
30
0
0
VERTEX
8
0
10
99.2502487204998
20
73.7899206071221
30
0
0
VERTEX
8
0
10
100.169232504949
20
73.972152727111
30
0
0
VERTEX
8
0
10
101.088216289398
20
74.1461196539507
30
0
0
VERTEX
8
0
10
102.007200073847
20
74.3126442040879
30
0
0
VERTEX
8
0
10
102.926183858296
20
74.4669325693915
30
0
0
VERTEX
8
0
10
103.845167642745
20
74.6150805130491
30
0
0
VERTEX
8
0
10
104.764151427194
20
74.756265790961
30
0
0
VERTEX
8
0
10
105.683135211643
20
74.8862490354536
30
0
0
VERTEX
8
0
10
106.602118996092
20
75.0097474969265
30
0
0
VERTEX
8
0
10
107.521102780541
20
75.1259069285266
30
0
0
VERTEX
8
0
10
108.44008656499
20
75.232120605595
30
0
0
VERTEX
8
0
10
109.35907034944
20
75.33156059434
30
0
0
VERTEX
8
0
10
110.278054133889
20
75.4234752187807
30
0
0
VERTEX
8
0
10
111.197037918338
20
75.5064369949564
30
0
0
VERTEX
8
0
10
112.116021702787
20
75.5823982276074
30
0
0
VERTEX
8
0
10
113.035005487236
20
75.6507944243849
30
0
0
VERTEX
8
0
10
113.953989271685
20
75.7110203915482
30
0
0
VERTEX
8
0
10
114.872973056134
20
75.7640850386037
30
0
0
VERTEX
8
0
10
115.791956840583
20
75.809656251681
30
0
0
VERTEX
8
0
10
116.710940625032
20
75.8476742265573
30
0
0
VERTEX
8
0
10
117.629924409481
20
75.8795961528426
30
0
0
VERTEX
8
0
10
118.54890819393
20
75.9018637663371
30
0
0
VERTEX
8
0
10
119.467891978379
20
75.9181782586951
30
0
0
VERTEX
8
0
10
120.386875762828
20
75.9280668944213
30
0
0
VERTEX
8
0
10
121.305859547277
20
75.9292706538931
30
0
0
VERTEX
8
0
10
122.224843331727
20
75.9244574955972
30
0
0
VERTEX
8
0
10
123.143827116176
20
75.9130874149312
30
0
0
VERTEX
8
0
10
124.062810900625
20
75.893819326998
30
0
0
VERTEX
8
0
10
124.981794685074
20
75.8685206488394
30
0
0
VERTEX
8
0
10
125.900778469523
20
75.8366710578065
30
0
0
VERTEX
8
0
10
126.819762253972
20
75.7975803278858
30
0
0
VERTEX
8
0
10
127.738746038421
20
75.7525010382361
30
0
0
VERTEX
8
0
10
128.65772982287
20
75.7009885404416
30
0
0
VERTEX
8
0
10
129.576713607319
20
75.6427953594417
30
0
0
VERTEX
8
0
10
130.495697391768
20
75.5787165146337
30
0
0
VERTEX
8
0
10
131.414681176217
20
75.5084146490612
30
0
0
VERTEX
8
0
10
132.333664960666
20
75.4319265443778
30
0
0
VERTEX
8
0
10
133.252648745115
20
75.3501678369651
30
0
0
VERTEX
8
0
10
134.171632529565
20
75.2615832836192
30
0
0
VERTEX
8
0
10
135.090616314014
20
75.1677814374031
30
0
0
VERTEX
8
0
10
136.009600098463
20
75.068638508518
30
0
0
VERTEX
8
0
10
136.928583882912
20
74.9634550131363
30
0
0
VERTEX
8
0
10
137.847567667361
20
74.8532970777097
30
0
0
VERTEX
8
0
10
138.76655145181
20
74.7380464688499
30
0
0
VERTEX
8
0
10
139.685535236259
20
74.6174034897667
30
0
0
VERTEX
8
0
10
140.604519020708
20
74.4921089741744
30
0
0
VERTEX
8
0
10
141.523502805157
20
74.3620963669066
30
0
0
VERTEX
8
0
10
142.442486589606
20
74.2273313537382
30
0
0
VERTEX
8
0
10
143.361470374055
20
74.0883361053276
30
0
0
VERTEX
8
0
10
144.280454158504
20
73.945125105996
30
0
0
VERTEX
8
0
10
145.199437942953
20
73.7978353116674
30
0
0
VERTEX
8
0
10
146.118421727402
20
73.6468620308377
30
0
0
VERTEX
8
0
10
147.037405511852
20
73.4923201389866
30
0
0
VERTEX
8
0
10
147.956389296301
20
73.3344615872272
30
0
0
VERTEX
8
0
10
148.87537308075
20
73.1736883133322
30
0
0
VERTEX
8
0
10
149.794356865199
20
73.010084320283
30
0
0
VERTEX
8
0
10
150.713340649648
20
72.8441633804865
30
0
0
VERTEX
8
0
10
151.632324434097
20
72.6762609832082
30
0
0
VERTEX
8
0
10
152.551308218546
20
72.5067627932601
30
0
0
VERTEX
8
0
10
153.470292002995
20
72.3362294295952
30
0
0
VERTEX
8
0
10
154.389275787444
20
72.1652642555346
30
0
0
SEQEND
8
0
0
POLYLINE
8
0
62
4
70
0
10
0
20
0
30
0
0
VERTEX
8
0
10
14.7037405511851
20
16.9908347588391
30
0
0
VERTEX
8
0
10
15.6227243356342
20
17.9120370420734
30
0
0
VERTEX
8
0
10
16.5417081200833
20
18.8322578441478
30
0
0
VERTEX
8
0
10
17.4606919045324
20
19.7483649903677
30
0
0
VERTEX
8
0
10
18.3796756889814
20
20.7108413105804
30
0
0
VERTEX
8
0
10
19.2986594734305
20
21.6822609521303
30
0
0
VERTEX
8
0
10
20.2176432578796
20
22.6491748845615
30
0
0
VERTEX
8
0
10
21.1366270423286
20
23.6085176360985
30
0
0
VERTEX
8
0
10
22.0556108267777
20
24.5638418472458
30
0
0
VERTEX
8
0
10
22.9745946112268
20
25.5150953565947
30
0
0
VERTEX
8
0
10
23.8935783956759
20
26.4739028003723
30
0
0
VERTEX
8
0
10
24.8125621801249
20
27.4246632344577
30
0
0
VERTEX
8
0
10
25.731545964574
20
28.3756866712187
30
0
0
VERTEX
8
0
10
26.6505297490231
20
29.3157317680567
30
0
0
VERTEX
8
0
10
27.5695135334721
20
30.2515337145596
30
0
0
VERTEX
8
0
10
28.4884973179212
20
31.1877987460586
30
0
0
VERTEX
8
0
10
29.4074811023703
20
32.146553737001
30
0
0
VERTEX
8
0
10
30.3264648868194
20
33.0948938366984
30
0
0
VERTEX
8
0
10
31.2454486712684
20
34.0440535910254
30
0
0
VERTEX
8
0
10
32.1644324557175
20
34.9901859707466
30
0
0
VERTEX
8
0
10
33.0834162401666
20
35.9318825783655
30
0
0
VERTEX
8
0
10
34.0024000246157
20
36.8422696349356
30
0
0
VERTEX
8
0
10
34.9213838090647
20
37.7226682037317
30
0
0
VERTEX
8
0
10
35.8403675935138
20
38.5987062689679
30
0
0
VERTEX
8
0
10
36.7593513779629
20
39.3896115980791
30
0
0
VERTEX
8
0
10
37.6783351624119
20
40.134380283108
30
0
0
VERTEX
8
0
10
38.597318946861
20
40.8753652336683
30
0
0
VERTEX
8
0
10
39.5163027313101
20
41.611581164902
30
0
0
VERTEX
8
0
10
40.4352865157592
20
42.3385317231342
30
0
0
VERTEX
8
0
10
41.3542703002082
20
43.0656815849199
30
0
0
VERTEX
8
0
10
42.2732540846573
20
43.7904325107625
30
0
0
VERTEX
8
0
10
43.1922378691064
20
44.5098753393059
30
0
0
VERTEX
8
0
10
44.1112216535554
20
45.2296989374845
30
0
0
VERTEX
8
0
10
45.0302054380045
20
45.9496343238308
30
0
0
VERTEX
8
0
10
45.9491892224536
20
46.6646975164051
30
0
0
VERTEX
8
0
10
46.8681730069027
20
47.3803577953514
30
0
0
VERTEX
8
0
10
47.7871567913517
20
48.0895348225104
30
0
0
VERTEX
8
0
10
48.7061405758008
20
48.7949461965942
30
0
0
VERTEX
8
0
10
49.6251243602499
20
49.5011290890357
30
0
0
VERTEX
8
0
10
50.5441081446989
20
50.1306769941675
30
0
0
VERTEX
8
0
10
51.463091929148
20
50.7731340487909
30
0
0
VERTEX
8
0
10
52.3820757135971
20
51.4165641708024
30
0
0
VERTEX
8
0
10
53.3010594980462
20
52.0443010598711
30
0
0
VERTEX
8
0
10
54.2200432824952
20
52.6720201084944
30
0
0
VERTEX
8
0
10
55.1390270669443
20
53.2997768664973
30
0
0
VERTEX
8
0
10
56.0580108513934
20
53.9185072855591
30
0
0
VERTEX
8
0
10
56.9769946358424
20
54.5371030114183
30
0
0
VERTEX
8
0
10
57.8959784202915
20
55.1597718836597
30
0
0
VERTEX
8
0
10
58.8149622047406
20
55.7799353480575
30
0
0
VERTEX
8
0
10
59.7339459891897
20
56.4001443898187
30
0
0
VERTEX
8
0
10
60.6529297736387
20
57.0130194831435
30
0
0
VERTEX
8
0
10
61.5719135580878
20
57.6198350277652
30
0
0
VERTEX
8
0
10
62.4908973425369
20
58.2269022919408
30
0
0
VERTEX
8
0
10
63.409881126986
20
58.7527688722247
30
0
0
VERTEX
8
0
10
64.328864911435
20
59.2680927995744
30
0
0
VERTEX
8
0
10
65.2478486958841
20
59.7839980492961
30
0
0
VERTEX
8
0
10
66.1668324803332
20
60.2370897245839
30
0
0
VERTEX
8
0
10
67.0858162647822
20
60.6894874751021
30
0
0
VERTEX
8
0
10
68.0048000492313
20
61.1427800040416
30
0
0
VERTEX
8
0
10
68.9237838336804
20
61.5956746034393
30
0
0
VERTEX
8
0
10
69.8427676181295
20
62.0448535512393
30
0
0
VERTEX
8
0
10
70.7617514025785
20
62.4964482566066
30
0
0
VERTEX
8
0
10
71.6807351870276
20
62.9403850175232
30
0
0
VERTEX
8
0
10
72.5997189714767
20
63.3845212978242
30
0
0
VERTEX
8
0
10
73.5187027559257
20
63.8277895484549
30
0
0
VERTEX
8
0
10
74.4376865403748
20
64.2752557306292
30
0
0
VERTEX
8
0
10
75.3566703248239
20
64.7200769279113
30
0
0
VERTEX
8
0
10
76.275654109273
20
65.1485384926875
30
0
0
VERTEX
8
0
10
77.194637893722
20
65.5609809737313
30
0
0
VERTEX
8
0
10
78.1136216781711
20
65.9735709122904
30
0
0
VERTEX
8
0
10
79.0326054626202
20
66.3365026783894
30
0
0
VERTEX
8
0
10
79.9515892470693
20
66.673188458635
30
0
0
VERTEX
8
0
10
80.8705730315183
20
67.0096183912767
30
0
0
VERTEX
8
0
10
81.7895568159674
20
67.3319532548377
30
0
0
VERTEX
8
0
10
82.7085406004165
20
67.6476845200528
30
0
0
VERTEX
8
0
10
83.6275243848655
20
67.9633002283854
30
0
0
VERTEX
8
0
10
84.5465081693146
20
68.2719394293374
30
0
0
VERTEX
8
0
10
85.4654919537637
20
68.5767097692589
30
0
0
VERTEX
8
0
10
86.3844757382128
20
68.8825077439121
30
0
0
VERTEX
8
0
10
87.3034595226618
20
69.1871796824155
30
0
0
VERTEX
8
0
10
88.2224433071109
20
69.4905209393567
30
0
0
VERTEX
8
0
10
89.14142709156
20
69.7922595107121
30
0
0
VERTEX
8
0
10
90.060410876009
20
70.0794223743957
30
0
0
VERTEX
8
0
10
90.9793946604581
20
70.3672723240756
30
0
0
VERTEX
8
0
10
91.8983784449072
20
70.6531311954796
30
0
0
VERTEX
8
0
10
92.8173622293563
20
70.825733484493
30
0
0
VERTEX
8
0
10
93.7363460138053
20
71.0238707336827
30
0
0
VERTEX
8
0
10
94.6553297982544
20
71.2197651623415
30
0
0
VERTEX
8
0
10
95.5743135827035
20
71.3372827294684
30
0
0
VERTEX
8
0
10
96.4932973671526
20
71.4772132645879
30
0
0
VERTEX
8
0
10
97.4122811516016
20
71.6050002059546
30
0
0
VERTEX
8
0
10
98.3312649360507
20
71.7222760386117
30
0
0
VERTEX
8
0
10
99.2502487204998
20
71.8390538901885
30
0
0
VERTEX
8
0
10
100.169232504949
20
71.9746001397675
30
0
0
VERTEX
8
0
10
101.088216289398
20
72.116467166016
30
0
0
VERTEX
8
0
10
102.007200073847
20
72.2584496166413
30
0
0
VERTEX
8
0
10
102.926183858296
20
72.407706882341
30
0
0
VERTEX
8
0
10
103.845167642745
20
72.558130058293
30
0
0
VERTEX
8
0
10
104.764151427194
20
72.7068540435568
30
0
0
VERTEX
8
0
10
105.683135211643
20
72.8020856192101
30
0
0
VERTEX
8
0
10
106.602118996092
20
72.893667443208
30
0
0
VERTEX
8
0
10
107.521102780541
20
72.9833801563604
30
0
0
VERTEX
8
0
10
108.44008656499
20
73.0684249717692
30
0
0
VERTEX
8
0
10
109.35907034944
20
73.1527780625052
30
0
0
VERTEX
8
0
10
110.278054133889
20
73.2352471573498
30
0
0
VERTEX
8
0
10
111.197037918338
20
73.3310067929555
30
0
0
VERTEX
8
0
10
112.116021702787
20
73.423208278951
30
0
0
VERTEX
8
0
10
113.035005487236
20
73.513393390276
30
0
0
VERTEX
8
0
10
113.953989271685
20
73.5786077694277
30
0
0
VERTEX
8
0
10
114.872973056134
20
73.6485817182253
30
0
0
VERTEX
8
0
10
115.791956840583
20
73.7164335534832
30
0
0
VERTEX
8
0
10
116.710940625032
20
73.8122839541707
30
0
0
VERTEX
8
0
10
117.629924409481
20
73.8981456278852
30
0
0
VERTEX
8
0
10
118.54890819393
20
73.9747588508161
30
0
0
VERTEX
8
0
10
119.467891978379
20
74.045757168243
30
0
0
VERTEX
8
0
10
120.386875762828
20
74.1152817338499
30
0
0
VERTEX
8
0
10
121.305859547277
20
74.1796275976428
30
0
0
VERTEX
8
0
10
122.224843331727
20
74.2416987635358
30
0
0
VERTEX
8
0
10
123.143827116176
20
74.302210745517
30
0
0
VERTEX
8
0
10
124.062810900625
20
74.3637014760803
30
0
0
VERTEX
8
0
10
124.981794685074
20
74.424607238173
30
0
0
VERTEX
8
0
10
125.900778469523
20
74.4838551927261
30
0
0
VERTEX
8
0
10
126.819762253972
20
74.5058488492391
30
0
0
VERTEX
8
0
10
127.738746038421
20
74.5253876448089
30
0
0
VERTEX
8
0
10
128.65772982287
20
74.5432341824211
30
0
0
VERTEX
8
0
10
129.576713607319
20
74.4548426231584
30
0
0
VERTEX
8
0
10
130.495697391768
20
74.3742639603793
30
0
0
VERTEX
8
0
10
131.414681176217
20
74.2921631649012
30
0
0
VERTEX
8
0
10
132.333664960666
20
74.1958824735418
30
0
0
VERTEX
8
0
10
133.252648745115
20
74.1011414890888
30
0
0
VERTEX
8
0
10
134.171632529565
20
74.0045958298582
30
0
0
VERTEX
8
0
10
135.090616314014
20
73.9118967341819
30
0
0
VERTEX
8
0
10
136.009600098463
20
73.8167612399251
30
0
0
VERTEX
8
0
10
136.928583882912
20
73.7201414589764
30
0
0
VERTEX
8
0
10
137.847567667361
20
73.6257609002583
30
0
0
VERTEX
8
0
10
138.76655145181
20
73.5291843099103
30
0
0
VERTEX
8
0
10
139.685535236259
20
73.4277922241596
30
0
0
VERTEX
8
0
10
140.604519020708
20
73.3231656025036
30
0
0
VERTEX
8
0
10
141.523502805157
20
73.2174624688802
30
0
0
VERTEX
8
0
10
142.442486589606
20
73.1115895675118
30
0
0
VERTEX
8
0
10
143.361470374055
20
73.0051287903749
30
0
0
VERTEX
8
0
10
144.280454158504
20
72.8976428939699
30
0
0
VERTEX
8
0
10
145.199437942953
20
72.7865153945389
30
0
0
VERTEX
8
0
10
146.118421727402
20
72.6741900489369
30
0
0
VERTEX
8
0
10
147.037405511852
20
72.5609773980533
30
0
0
VERTEX
8
0
10
147.956389296301
20
72.4537192563969
30
0
0
VERTEX
8
0
10
148.87537308075
20
72.3457657146654
30
0
0
VERTEX
8
0
10
149.794356865199
20
72.2369559264778
30
0
0
VERTEX
8
0
10
150.713340649648
20
72.1222621478329
30
0
0
VERTEX
8
0
10
151.632324434097
20
72.0074892066593
30
0
0
VERTEX
8
0
10
152.551308218546
20
71.8920914848666
30
0
0
VERTEX
8
0
10
153.470292002995
20
71.7927187903732
30
0
0
VERTEX
8
0
10
154.389275787444
20
71.6894909370061
30
0
0
SEQEND
8
0
0
POLYLINE
8
0
62
2
70
0
10
0
20
0
30
0
0
VERTEX
8
0
10
14.7037405511851
20
13.947140949302
30
0
0
VERTEX
8
0
10
15.6227243356342
20
14.6260562747526
30
0
0
VERTEX
8
0
10
16.5417081200833
20
15.2920492351168
30
0
0
VERTEX
8
0
10
17.4606919045324
20
15.9456452712824
30
0
0
VERTEX
8
0
10
18.3796756889814
20
16.5873185739704
30
0
0
VERTEX
8
0
10
19.2986594734305
20
17.2174989444657
30
0
0
VERTEX
8
0
10
20.2176432578796
20
17.8365776118815
30
0
0
VERTEX
8
0
10
21.1366270423286
20
18.4449121482375
30
0
0
VERTEX
8
0
10
22.0556108267777
20
19.0428306198357
30
0
0
VERTEX
8
0
10
22.9745946112268
20
19.6306351008978
30
0
0
VERTEX
8
0
10
23.8935783956759
20
20.2086046578929
30
0
0
VERTEX
8
0
10
24.8125621801249
20
20.7769978958613
30
0
0
VERTEX
8
0
10
25.731545964574
20
21.3360551417996
30
0
0
VERTEX
8
0
10
26.6505297490231
20
21.8860003263305
30
0
0
VERTEX
8
0
10
27.5695135334721
20
22.4270426136985
30
0
0
VERTEX
8
0
10
28.4884973179212
20
22.9593778205157
30
0
0
VERTEX
8
0
10
29.4074811023703
20
23.483189656427
30
0
0
VERTEX
8
0
10
30.3264648868194
20
23.9986508140618
30
0
0
VERTEX
8
0
10
31.2454486712684
20
24.5059239301664
30
0
0
VERTEX
8
0
10
32.1644324557175
20
25.0051624369767
30
0
0
VERTEX
8
0
10
33.0834162401666
20
25.4965113185862
30
0
0
VERTEX
8
0
10
34.0024000246157
20
25.9801077860688
30
0
0
VERTEX
8
0
10
34.9213838090647
20
26.4560818810602
30
0
0
VERTEX
8
0
10
35.8403675935138
20
26.9245570179931
30
0
0
VERTEX
8
0
10
36.7593513779629
20
27.3856504720908
30
0
0
VERTEX
8
0
10
37.6783351624119
20
27.8394738198554
30
0
0
VERTEX
8
0
10
38.597318946861
20
28.2861333380595
30
0
0
VERTEX
8
0
10
39.5163027313101
20
28.7257303655836
30
0
0
VERTEX
8
0
10
40.4352865157592
20
29.1583616326729
30
0
0
VERTEX
8
0
10
41.3542703002082
20
29.5841195611135
30
0
0
VERTEX
8
0
10
42.2732540846573
20
30.0030925385625
30
0
0
VERTEX
8
0
10
43.1922378691064
20
30.4153651696081
30
0
0
VERTEX
8
0
10
44.1112216535554
20
30.8210185062774
30
0
0
VERTEX
8
0
10
45.0302054380045
20
31.2201302597188
30
0
0
VERTEX
8
0
10
45.9491892224536
20
31.6127749953523
30
0
0
VERTEX
8
0
10
46.8681730069027
20
31.9990243126528
30
0
0
VERTEX
8
0
10
47.7871567913517
20
32.3789470114842
30
0
0
VERTEX
8
0
10
48.7061405758008
20
32.7526092459602
30
0
0
VERTEX
8
0
10
49.6251243602499
20
33.12007466698
30
0
0
VERTEX
8
0
10
50.5441081446989
20
33.4814045547649
30
0
0
VERTEX
8
0
10
51.463091929148
20
33.8366579418135
30
0
0
VERTEX
8
0
10
52.3820757135971
20
34.185891727647
30
0
0
VERTEX
8
0
10
53.3010594980462
20
34.5291607855277
30
0
0
VERTEX
8
0
10
54.2200432824952
20
34.8665180622706
30
0
0
VERTEX
8
0
10
55.1390270669443
20
35.1980146714085
30
0
0
VERTEX
8
0
10
56.0580108513934
20
35.5236999804719
30
0
0
VERTEX
8
0
10
56.9769946358424
20
35.8436216926813
30
0
0
VERTEX
8
0
10
57.8959784202915
20
36.15782592364
30
0
0
VERTEX
8
0
10
58.8149622047406
20
36.4663572732972
30
0
0
VERTEX
8
0
10
59.7339459891897
20
36.7692588936949
30
0
0
VERTEX
8
0
10
60.6529297736387
20
37.0665725526296
30
0
0
VERTEX
8
0
10
61.5719135580878
20
37.3583386936862
30
0
0
VERTEX
8
0
10
62.4908973425369
20
37.6445964927963
30
0
0
VERTEX
8
0
10
63.409881126986
20
37.9253839118447
30
0
0
VERTEX
8
0
10
64.328864911435
20
38.2007377489654
30
0
0
VERTEX
8
0
10
65.2478486958841
20
38.4706936865209
30
0
0
VERTEX
8
0
10
66.1668324803332
20
38.7352863361816
30
0
0
VERTEX
8
0
10
67.0858162647822
20
38.9945492819453
30
0
0
VERTEX
8
0
10
68.0048000492313
20
39.2485151207878
30
0
0
VERTEX
8
0
10
68.9237838336804
20
39.4972155012993
30
0
0
VERTEX
8
0
10
69.8427676181295
20
39.7406811604525
30
0
0
VERTEX
8
0
10
70.7617514025785
20
39.9789419585544
30
0
0
VERTEX
8
0
10
71.6807351870276
20
40.2120269125412
30
0
0
VERTEX
8
0
10
72.5997189714767
20
40.4399642277579
30
0
0
VERTEX
8
0
10
73.5187027559257
20
40.6627813282335
30
0
0
VERTEX
8
0
10
74.4376865403748
20
40.8805048856101
30
0
0
VERTEX
8
0
10
75.3566703248239
20
41.0931608469148
30
0
0
VERTEX
8
0
10
76.275654109273
20
41.3007744609496
30
0
0
VERTEX
8
0
10
77.194637893722
20
41.5033703037876
30
0
0
VERTEX
8
0
10
78.1136216781711
20
41.7009723030368
30
0
0
VERTEX
8
0
10
79.0326054626202
20
41.893603761337
30
0
0
VERTEX
8
0
10
79.9515892470693
20
42.0812873787415
30
0
0
VERTEX
8
0
10
80.8705730315183
20
42.2640452744886
30
0
0
VERTEX
8
0
10
81.7895568159674
20
42.4418990077833
30
0
0
VERTEX
8
0
10
82.7085406004165
20
42.6148695979666
30
0
0
VERTEX
8
0
10
83.6275243848655
20
42.7829775439316
30
0
0
VERTEX
8
0
10
84.5465081693146
20
42.9462428429685
30
0
0
VERTEX
8
0
10
85.4654919537637
20
43.104685008991
30
0
0
VERTEX
8
0
10
86.3844757382128
20
43.2583230901846
30
0
0
VERTEX
8
0
10
87.3034595226618
20
43.4071756862089
30
0
0
VERTEX
8
0
10
88.2224433071109
20
43.551260964883
30
0
0
VERTEX
8
0
10
89.14142709156
20
43.6905966784919
30
0
0
VERTEX
8
0
10
90.060410876009
20
43.8252001796346
30
0
0
VERTEX
8
0
10
90.9793946604581
20
43.9550884367899
30
0
0
VERTEX
8
0
10
91.8983784449072
20
44.0802780495044
30
0
0
VERTEX
8
0
10
92.8173622293563
20
44.2007852633342
30
0
0
VERTEX
8
0
10
93.7363460138053
20
44.3166259844806
30
0
0
VERTEX
8
0
10
94.6553297982544
20
44.427815794238
30
0
0
VERTEX
8
0
10
95.5743135827035
20
44.534369963265
30
0
0
VERTEX
8
0
10
96.4932973671526
20
44.6363034656087
30
0
0
VERTEX
8
0
10
97.4122811516016
20
44.7336309927187
30
0
0
VERTEX
8
0
10
98.3312649360507
20
44.8263669672317
30
0
0
VERTEX
8
0
10
99.2502487204998
20
44.9145255567792
30
0
0
VERTEX
8
0
10
100.169232504949
20
44.9981206877089
30
0
0
VERTEX
8
0
10
101.088216289398
20
45.0771660587834
30
0
0
VERTEX
8
0
10
102.007200073847
20
45.1516751549311
30
0
0
VERTEX
8
0
10
102.926183858296
20
45.2216612610204
30
0
0
VERTEX
8
0
10
103.845167642745
20
45.2871374757094
30
0
0
VERTEX
8
0
10
104.764151427194
20
45.3481167254224
30
0
0
VERTEX
8
0
10
105.683135211643
20
45.4046117784708
30
0
0
VERTEX
8
0
10
106.602118996092
20
45.4566352593289
30
0
0
VERTEX
8
0
10
107.521102780541
20
45.504199663132
30
0
0
VERTEX
8
0
10
108.44008656499
20
45.5473173704535
30
0
0
VERTEX
8
0
10
109.35907034944
20
45.5860006623023
30
0
0
VERTEX
8
0
10
110.278054133889
20
45.6202617354904
30
0
0
VERTEX
8
0
10
111.197037918338
20
45.6501127183476
30
0
0
VERTEX
8
0
10
112.116021702787
20
45.675565686854
30
0
0
VERTEX
8
0
10
113.035005487236
20
45.6966326811647
30
0
0
VERTEX
8
0
10
113.953989271685
20
45.7133257227295
30
0
0
VERTEX
8
0
10
114.872973056134
20
45.725656831837
30
0
0
VERTEX
8
0
10
115.791956840583
20
45.7336380458376
30
0
0
VERTEX
8
0
10
116.710940625032
20
45.7372814379786
30
0
0
VERTEX
8
0
10
117.629924409481
20
45.7365991369453
30
0
0
VERTEX
8
0
10
118.54890819393
20
45.7316033471553
30
0
0
VERTEX
8
0
10
119.467891978379
20
45.722306369913
30
0
0
VERTEX
8
0
10
120.386875762828
20
45.7087206254057
30
0
0
VERTEX
8
0
10
121.305859547277
20
45.6908586757433
30
0
0
VERTEX
8
0
10
122.224843331727
20
45.6687332489587
30
0
0
VERTEX
8
0
10
123.143827116176
20
45.6423572642063
30
0
0
VERTEX
8
0
10
124.062810900625
20
45.6117438581275
30
0
0
VERTEX
8
0
10
124.981794685074
20
45.5769064125852
30
0
0
VERTEX
8
0
10
125.900778469523
20
45.5378585837418
30
0
0
VERTEX
8
0
10
126.819762253972
20
45.49461433272
30
0
0
VERTEX
8
0
10
127.738746038421
20
45.4471879578713
30
0
0
VERTEX
8
0
10
128.65772982287
20
45.3955941288242
30
0
0
VERTEX
8
0
10
129.576713607319
20
45.3398479224424
30
0
0
VERTEX
8
0
10
130.495697391768
20
45.2799648608076
30
0
0
VERTEX
8
0
10
131.414681176217
20
45.2159609514442
30
0
0
VERTEX
8
0
10
132.333664960666
20
45.1478527299107
30
0
0
VERTEX
8
0
10
133.252648745115
20
45.0756573049447
30
0
0
VERTEX
8
0
10
134.171632529565
20
44.9993924064073
30
0
0
VERTEX
8
0
10
135.090616314014
20
44.9190764361891
30
0
0
VERTEX
8
0
10
136.009600098463
20
44.8347285223491
30
0
0
VERTEX
8
0
10
136.928583882912
20
44.7463685767433
30
0
0
VERTEX
8
0
10
137.847567667361
20
44.6540173564137
30
0
0
VERTEX
8
0
10
138.76655145181
20
44.5576965290396
30
0
0
VERTEX
8
0
10
139.685535236259
20
44.457428742818
30
0
0
VERTEX
8
0
10
140.604519020708
20
44.3532377010977
30
0
0
VERTEX
8
0
10
141.523502805157
20
44.2451482421943
30
0
0
VERTEX
8
0
10
142.442486589606
20
44.1331864248333
30
0
0
VERTEX
8
0
10
143.361470374055
20
44.0173796196717
30
0
0
VERTEX
8
0
10
144.280454158504
20
43.89775660747
30
0
0
VERTEX
8
0
10
145.199437942953
20
43.7743476844789
30
0
0
VERTEX
8
0
10
146.118421727402
20
43.6471847756884
30
0
0
VERTEX
8
0
10
147.037405511852
20
43.5163015566787
30
0
0
VERTEX
8
0
10
147.956389296301
20
43.3817335848341
30
0
0
VERTEX
8
0
10
148.87537308075
20
43.2435184408565
30
0
0
VERTEX
8
0
10
149.794356865199
20
43.1016958815076
30
0
0
VERTEX
8
0
10
150.713340649648
20
42.9563080047244
30
0
0
VERTEX
8
0
10
151.632324434097
20
42.8073994283359
30
0
0
VERTEX
8
0
10
152.551308218546
20
42.6550174837576
30
0
0
VERTEX
8
0
10
153.470292002995
20
42.4992124262435
30
0
0
VERTEX
8
0
10
154.389275787444
20
42.3400376634554
30
0
0
SEQEND
8
0
0
POLYLINE
8
0
62
3
70
0
10
0
20
0
30
0
0
VERTEX
8
0
10
14.7037405511851
20
15.7207692917165
30
0
0
VERTEX
8
0
10
15.6227243356342
20
16.5199869050486
30
0
0
VERTEX
8
0
10
16.5417081200833
20
17.3065416867144
30
0
0
VERTEX
8
0
10
17.4606919045324
20
18.0809013192715
30
0
0
VERTEX
8
0
10
18.3796756889814
20
18.8434871004954
30
0
0
VERTEX
8
0
10
19.2986594734305
20
19.5946802224337
30
0
0
VERTEX
8
0
10
20.2176432578796
20
20.3348270862496
30
0
0
VERTEX
8
0
10
21.1366270423286
20
21.0642437858545
30
0
0
VERTEX
8
0
10
22.0556108267777
20
21.7832198896259
30
0
0
VERTEX
8
0
10
22.9745946112268
20
22.4920216371398
30
0
0
VERTEX
8
0
10
23.8935783956759
20
23.1908946511765
30
0
0
VERTEX
8
0
10
24.8125621801249
20
23.880066249165
30
0
0
VERTEX
8
0
10
25.731545964574
20
24.559747423107
30
0
0
VERTEX
8
0
10
26.6505297490231
20
25.2301345442017
30
0
0
VERTEX
8
0
10
27.5695135334721
20
25.8914108380483
30
0
0
VERTEX
8
0
10
28.4884973179212
20
26.5437476674574
30
0
0
VERTEX
8
0
10
29.4074811023703
20
27.1873056532211
30
0
0
VERTEX
8
0
10
30.3264648868194
20
27.8222356578496
30
0
0
VERTEX
8
0
10
31.2454486712684
20
28.4486796522993
30
0
0
VERTEX
8
0
10
32.1644324557175
20
29.0667714830593
30
0
0
VERTEX
8
0
10
33.0834162401666
20
29.6766375530916
30
0
0
VERTEX
8
0
10
34.0024000246157
20
30.2783974291208
30
0
0
VERTEX
8
0
10
34.9213838090647
20
30.8721643841704
30
0
0
VERTEX
8
0
10
35.8403675935138
20
31.4580458845735
30
0
0
VERTEX
8
0
10
36.7593513779629
20
32.0361440279563
30
0
0
VERTEX
8
0
10
37.6783351624119
20
32.6065559383099
30
0
0
VERTEX
8
0
10
38.597318946861
20
33.1693741235983
30
0
0
VERTEX
8
0
10
39.5163027313101
20
33.7246867998655
30
0
0
VERTEX
8
0
10
40.4352865157592
20
34.2725781859808
30
0
0
VERTEX
8
0
10
41.3542703002082
20
34.8131287721969
30
0
0
VERTEX
8
0
10
42.2732540846573
20
35.3464155654561
30
0
0
VERTEX
8
0
10
43.1922378691064
20
35.8725123137806
30
0
0
VERTEX
8
0
10
44.1112216535554
20
36.3914897121978
30
0
0
VERTEX
8
0
10
45.0302054380045
20
36.9034155917802
30
0
0
VERTEX
8
0
10
45.9491892224536
20
37.4083550938509
30
0
0
VERTEX
8
0
10
46.8681730069027
20
37.9063708304353
30
0
0
VERTEX
8
0
10
47.7871567913517
20
38.3975230326653
30
0
0
VERTEX
8
0
10
48.7061405758008
20
38.8818696880343
30
0
0
VERTEX
8
0
10
49.6251243602499
20
39.3594666675387
30
0
0
VERTEX
8
0
10
50.5441081446989
20
39.830367843886
30
0
0
VERTEX
8
0
10
51.463091929148
20
40.2946252011729
30
0
0
VERTEX
8
0
10
52.3820757135971
20
40.7522889372382
30
0
0
VERTEX
8
0
10
53.3010594980462
20
41.203407558887
30
0
0
VERTEX
8
0
10
54.2200432824952
20
41.6480279709672
30
0
0
VERTEX
8
0
10
55.1390270669443
20
42.0861955595529
30
0
0
VERTEX
8
0
10
56.0580108513934
20
42.5179542699048
30
0
0
VERTEX
8
0
10
56.9769946358424
20
42.9433466794888
30
0
0
VERTEX
8
0
10
57.8959784202915
20
43.3624140665692
30
0
0
VERTEX
8
0
10
58.8149622047406
20
43.7751964746297
30
0
0
VERTEX
8
0
10
59.7339459891897
20
44.1817327730709
30
0
0
VERTEX
8
0
10
60.6529297736387
20
44.5820607143182
30
0
0
VERTEX
8
0
10
61.5719135580878
20
44.9762169877366
30
0
0
VERTEX
8
0
10
62.4908973425369
20
45.3642372705017
30
0
0
VERTEX
8
0
10
63.409881126986
20
45.7461562758732
30
0
0
VERTEX
8
0
10
64.328864911435
20
46.1220077985933
30
0
0
VERTEX
8
0
10
65.2478486958841
20
46.491824758246
30
0
0
VERTEX
8
0
10
66.1668324803332
20
46.8556392401091
30
0
0
VERTEX
8
0
10
67.0858162647822
20
47.2134825342037
30
0
0
VERTEX
8
0
10
68.0048000492313
20
47.5653851723012
30
0
0
VERTEX
8
0
10
68.9237838336804
20
47.911376963188
30
0
0
VERTEX
8
0
10
69.8427676181295
20
48.2514870263206
30
0
0
VERTEX
8
0
10
70.7617514025785
20
48.5857438239225
30
0
0
VERTEX
8
0
10
71.6807351870276
20
48.9141751916639
30
0
0
VERTEX
8
0
10
72.5997189714767
20
49.2368083680487
30
0
0
VERTEX
8
0
10
73.5187027559257
20
49.5536700225245
30
0
0
VERTEX
8
0
10
74.4376865403748
20
49.8647862824554
30
0
0
VERTEX
8
0
10
75.3566703248239
20
50.1701827591204
30
0
0
VERTEX
8
0
10
76.275654109273
20
50.4698845725541
30
0
0
VERTEX
8
0
10
77.194637893722
20
50.7639163756428
30
0
0
VERTEX
8
0
10
78.1136216781711
20
51.0523023772032
30
0
0
VERTEX
8
0
10
79.0326054626202
20
51.3350663644272
30
0
0
VERTEX
8
0
10
79.9515892470693
20
51.6122317244172
30
0
0
VERTEX
8
0
10
80.8705730315183
20
51.8838214652285
30
0
0
VERTEX
8
0
10
81.7895568159674
20
52.1498582361136
30
0
0
VERTEX
8
0
10
82.7085406004165
20
52.4103643472824
30
0
0
VERTEX
8
0
10
83.6275243848655
20
52.6653617890672
30
0
0
VERTEX
8
0
10
84.5465081693146
20
52.9148722506461
30
0
0
VERTEX
8
0
10
85.4654919537637
20
53.1589171382906
30
0
0
VERTEX
8
0
10
86.3844757382128
20
53.3975175931739
30
0
0
VERTEX
8
0
10
87.3034595226618
20
53.6306945088533
30
0
0
VERTEX
8
0
10
88.2224433071109
20
53.858468548371
30
0
0
VERTEX
8
0
10
89.14142709156
20
54.0808601610914
30
0
0
VERTEX
8
0
10
90.060410876009
20
54.2978895992112
30
0
0
VERTEX
8
0
10
90.9793946604581
20
54.5095769340944
30
0
0
VERTEX
8
0
10
91.8983784449072
20
54.7159420723527
30
0
0
VERTEX
8
0
10
92.8173622293563
20
54.9170047717837
30
0
0
VERTEX
8
0
10
93.7363460138053
20
55.1127846571241
30
0
0
VERTEX
8
0
10
94.6553297982544
20
55.3033012357141
30
0
0
VERTEX
8
0
10
95.5743135827035
20
55.488573913087
30
0
0
VERTEX
8
0
10
96.4932973671526
20
55.6686220084293
30
0
0
VERTEX
8
0
10
97.4122811516016
20
55.8434647701074
30
0
0
VERTEX
8
0
10
98.3312649360507
20
56.0131213910864
30
0
0
VERTEX
8
0
10
99.2502487204998
20
56.1776110244477
30
0
0
VERTEX
8
0
10
100.169232504949
20
56.3369527989194
30
0
0
VERTEX
8
0
10
101.088216289398
20
56.4911658344755
30
0
0
VERTEX
8
0
10
102.007200073847
20
56.6402692580671
30
0
0
VERTEX
8
0
10
102.926183858296
20
56.7842822194613
30
0
0
VERTEX
8
0
10
103.845167642745
20
56.923223907239
30
0
0
VERTEX
8
0
10
104.764151427194
20
57.0571135649883
30
0
0
VERTEX
8
0
10
105.683135211643
20
57.1859705077163
30
0
0
VERTEX
8
0
10
106.602118996092
20
57.3098141384847
30
0
0
VERTEX
8
0
10
107.521102780541
20
57.4286639653307
30
0
0
VERTEX
8
0
10
108.44008656499
20
57.5425396185138
30
0
0
VERTEX
8
0
10
109.35907034944
20
57.6514608680521
30
0
0
VERTEX
8
0
10
110.278054133889
20
57.7554476416589
30
0
0
VERTEX
8
0
10
111.197037918338
20
57.8545200430746
30
0
0
VERTEX
8
0
10
112.116021702787
20
57.9486983708386
30
0
0
VERTEX
8
0
10
113.035005487236
20
58.0380031374931
30
0
0
VERTEX
8
0
10
113.953989271685
20
58.1224550893721
30
0
0
VERTEX
8
0
10
114.872973056134
20
58.202075226845
30
0
0
VERTEX
8
0
10
115.791956840583
20
58.2768848252156
30
0
0
VERTEX
8
0
10
116.710940625032
20
58.3469054562207
30
0
0
VERTEX
8
0
10
117.629924409481
20
58.4121590102037
30
0
0
VERTEX
8
0
10
118.54890819393
20
58.4726677189983
30
0
0
VERTEX
8
0
10
119.467891978379
20
58.5284541796044
30
0
0
VERTEX
8
0
10
120.386875762828
20
58.5795413786369
30
0
0
VERTEX
8
0
10
121.305859547277
20
58.6259527177062
30
0
0
VERTEX
8
0
10
122.224843331727
20
58.6677120396548
30
0
0
VERTEX
8
0
10
123.143827116176
20
58.7048436558388
30
0
0
VERTEX
8
0
10
124.062810900625
20
58.7373723744147
30
0
0
VERTEX
8
0
10
124.981794685074
20
58.7653235297891
30
0
0
VERTEX
8
0
10
125.900778469523
20
58.7887230131978
30
0
0
VERTEX
8
0
10
126.819762253972
20
58.8075973045921
30
0
0
VERTEX
8
0
10
127.738746038421
20
58.8219735058406
30
0
0
VERTEX
8
0
10
128.65772982287
20
58.8318793753646
30
0
0
VERTEX
8
0
10
129.576713607319
20
58.8373433642966
30
0
0
VERTEX
8
0
10
130.495697391768
20
58.838394654226
30
0
0
VERTEX
8
0
10
131.414681176217
20
58.8350631966896
30
0
0
VERTEX
8
0
10
132.333664960666
20
58.8273797544732
30
0
0
VERTEX
8
0
10
133.252648745115
20
58.815375944846
30
0
0
VERTEX
8
0
10
134.171632529565
20
58.799084284889
30
0
0
VERTEX
8
0
10
135.090616314014
20
58.7785382390105
30
0
0
VERTEX
8
0
10
136.009600098463
20
58.7537722688184
30
0
0
VERTEX
8
0
10
136.928583882912
20
58.7248218855096
30
0
0
VERTEX
8
0
10
137.847567667361
20
58.691723704937
30
0
0
VERTEX
8
0
10
138.76655145181
20
58.6545155055338
30
0
0
VERTEX
8
0
10
139.685535236259
20
58.6132362893217
30
0
0
VERTEX
8
0
10
140.604519020708
20
58.5679263461862
30
0
0
VERTEX
8
0
10
141.523502805157
20
58.518627321674
30
0
0
VERTEX
8
0
10
142.442486589606
20
58.465382288577
30
0
0
VERTEX
8
0
10
143.361470374055
20
58.4082358225563
30
0
0
VERTEX
8
0
10
144.280454158504
20
58.347234082145
30
0
0
VERTEX
8
0
10
145.199437942953
20
58.282424893449
30
0
0
VERTEX
8
0
10
146.118421727402
20
58.2138578399164
30
0
0
VERTEX
8
0
10
147.037405511852
20
58.1415843576012
30
0
0
VERTEX
8
0
10
147.956389296301
20
58.0656578363488
30
0
0
VERTEX
8
0
10
148.87537308075
20
57.9861337274411
30
0
0
VERTEX
8
0
10
149.794356865199
20
57.9030696582217
30
0
0
VERTEX
8
0
10
150.713340649648
20
57.8165255543511
30
0
0
VERTEX
8
0
10
151.632324434097
20
57.7265637703927
30
0
0
VERTEX
8
0
10
152.551308218546
20
57.6332492295017
30
0
0
VERTEX
8
0
10
153.470292002995
20
57.5366495731205
30
0
0
VERTEX
8
0
10
154.389275787444
20
57.4368353216775
30
0
0
SEQEND
8
0
0
POLYLINE
8
0
62
4
70
0
10
0
20
0
30
0
0
VERTEX
8
0
10
14.7037405511851
20
13.1446144432234
30
0
0
VERTEX
8
0
10
15.6227243356342
20
13.9277116480588
30
0
0
VERTEX
8
0
10
16.5417081200833
20
14.7090739208216
30
0
0
VERTEX
8
0
10
17.4606919045324
20
15.4887066246716
30
0
0
VERTEX
8
0
10
18.3796756889814
20
16.2741492128074
30
0
0
VERTEX
8
0
10
19.2986594734305
20
17.059861972362
30
0
0
VERTEX
8
0
10
20.2176432578796
20
17.8438783421884
30
0
0
VERTEX
8
0
10
21.1366270423286
20
18.6262060438479
30
0
0
VERTEX
8
0
10
22.0556108267777
20
19.4068528840294
30
0
0
VERTEX
8
0
10
22.9745946112268
20
20.1858267445565
30
0
0
VERTEX
8
0
10
23.8935783956759
20
20.9631355746946
30
0
0
VERTEX
8
0
10
24.8125621801249
20
21.7387873851682
30
0
0
VERTEX
8
0
10
25.731545964574
20
22.5127902434584
30
0
0
VERTEX
8
0
10
26.6505297490231
20
23.2665176278166
30
0
0
VERTEX
8
0
10
27.5695135334721
20
24.0212444625888
30
0
0
VERTEX
8
0
10
28.4884973179212
20
24.774320111034
30
0
0
VERTEX
8
0
10
29.4074811023703
20
25.5712388907387
30
0
0
VERTEX
8
0
10
30.3264648868194
20
26.3563404019765
30
0
0
VERTEX
8
0
10
31.2454486712684
20
27.1398849445476
30
0
0
VERTEX
8
0
10
32.1644324557175
20
27.9036715080584
30
0
0
VERTEX
8
0
10
33.0834162401666
20
28.6712321376888
30
0
0
VERTEX
8
0
10
34.0024000246157
20
29.4006568454831
30
0
0
VERTEX
8
0
10
34.9213838090647
20
30.0974045212529
30
0
0
VERTEX
8
0
10
35.8403675935138
20
30.7925208194749
30
0
0
VERTEX
8
0
10
36.7593513779629
20
31.3937929238632
30
0
0
VERTEX
8
0
10
37.6783351624119
20
31.9472655636384
30
0
0
VERTEX
8
0
10
38.597318946861
20
32.4992389522528
30
0
0
VERTEX
8
0
10
39.5163027313101
20
33.0395395903757
30
0
0
VERTEX
8
0
10
40.4352865157592
20
33.5756512931144
30
0
0
VERTEX
8
0
10
41.3542703002082
20
34.1102356977189
30
0
0
VERTEX
8
0
10
42.2732540846573
20
34.6432753214574
30
0
0
VERTEX
8
0
10
43.1922378691064
20
35.1747545171821
30
0
0
VERTEX
8
0
10
44.1112216535554
20
35.7046593295107
30
0
0
VERTEX
8
0
10
45.0302054380045
20
36.2296545599274
30
0
0
VERTEX
8
0
10
45.9491892224536
20
36.7531927459816
30
0
0
VERTEX
8
0
10
46.8681730069027
20
37.275128133557
30
0
0
VERTEX
8
0
10
47.7871567913517
20
37.7954517527078
30
0
0
VERTEX
8
0
10
48.7061405758008
20
38.3141558158228
30
0
0
VERTEX
8
0
10
49.6251243602499
20
38.8312336351716
30
0
0
VERTEX
8
0
10
50.5441081446989
20
39.2974091224689
30
0
0
VERTEX
8
0
10
51.463091929148
20
39.7731918656906
30
0
0
VERTEX
8
0
10
52.3820757135971
20
40.2473785296197
30
0
0
VERTEX
8
0
10
53.3010594980462
20
40.7109745231584
30
0
0
VERTEX
8
0
10
54.2200432824952
20
41.17562369803
30
0
0
VERTEX
8
0
10
55.1390270669443
20
41.6352147058856
30
0
0
VERTEX
8
0
10
56.0580108513934
20
42.0903186647285
30
0
0
VERTEX
8
0
10
56.9769946358424
20
42.5438051250612
30
0
0
VERTEX
8
0
10
57.8959784202915
20
43.0020166492075
30
0
0
VERTEX
8
0
10
58.8149622047406
20
43.4617035192439
30
0
0
VERTEX
8
0
10
59.7339459891897
20
43.9197478693875
30
0
0
VERTEX
8
0
10
60.6529297736387
20
44.3686182536942
30
0
0
VERTEX
8
0
10
61.5719135580878
20
44.8139280151799
30
0
0
VERTEX
8
0
10
62.4908973425369
20
45.2575960235786
30
0
0
VERTEX
8
0
10
63.409881126986
20
45.6212769233542
30
0
0
VERTEX
8
0
10
64.328864911435
20
45.976856302165
30
0
0
VERTEX
8
0
10
65.2478486958841
20
46.3309023673865
30
0
0
VERTEX
8
0
10
66.1668324803332
20
46.6242583040789
30
0
0
VERTEX
8
0
10
67.0858162647822
20
46.9189545719022
30
0
0
VERTEX
8
0
10
68.0048000492313
20
47.2122225891866
30
0
0
VERTEX
8
0
10
68.9237838336804
20
47.5040454938879
30
0
0
VERTEX
8
0
10
69.8427676181295
20
47.7944074253744
30
0
0
VERTEX
8
0
10
70.7617514025785
20
48.0832934892473
30
0
0
VERTEX
8
0
10
71.6807351870276
20
48.3787728603519
30
0
0
VERTEX
8
0
10
72.5997189714767
20
48.6708591136024
30
0
0
VERTEX
8
0
10
73.5187027559257
20
48.9614155701047
30
0
0
VERTEX
8
0
10
74.4376865403748
20
49.2504317173526
30
0
0
VERTEX
8
0
10
75.3566703248239
20
49.537897839471
30
0
0
VERTEX
8
0
10
76.275654109273
20
49.8101170210526
30
0
0
VERTEX
8
0
10
77.194637893722
20
50.0697985175719
30
0
0
VERTEX
8
0
10
78.1136216781711
20
50.3279589401048
30
0
0
VERTEX
8
0
10
79.0326054626202
20
50.5531869852999
30
0
0
VERTEX
8
0
10
79.9515892470693
20
50.7622429231121
30
0
0
VERTEX
8
0
10
80.8705730315183
20
50.9698726723735
30
0
0
VERTEX
8
0
10
81.7895568159674
20
51.1612380445044
30
0
0
VERTEX
8
0
10
82.7085406004165
20
51.3476632241897
30
0
0
VERTEX
8
0
10
83.6275243848655
20
51.5326810603281
30
0
0
VERTEX
8
0
10
84.5465081693146
20
51.7162781776383
30
0
0
VERTEX
8
0
10
85.4654919537637
20
51.8984419369066
30
0
0
VERTEX
8
0
10
86.3844757382128
20
52.0791604185496
30
0
0
VERTEX
8
0
10
87.3034595226618
20
52.261637502692
30
0
0
VERTEX
8
0
10
88.2224433071109
20
52.4424547061215
30
0
0
VERTEX
8
0
10
89.14142709156
20
52.6217864932679
30
0
0
VERTEX
8
0
10
90.060410876009
20
52.7924563460376
30
0
0
VERTEX
8
0
10
90.9793946604581
20
52.9627725633602
30
0
0
VERTEX
8
0
10
91.8983784449072
20
53.1315946285931
30
0
0
VERTEX
8
0
10
92.8173622293563
20
53.2396827047022
30
0
0
VERTEX
8
0
10
93.7363460138053
20
53.3605793207384
30
0
0
VERTEX
8
0
10
94.6553297982544
20
53.4800960799059
30
0
0
VERTEX
8
0
10
95.5743135827035
20
53.5379572007689
30
0
0
VERTEX
8
0
10
96.4932973671526
20
53.6130596893177
30
0
0
VERTEX
8
0
10
97.4122811516016
20
53.680157077126
30
0
0
VERTEX
8
0
10
98.3312649360507
20
53.7408957190303
30
0
0
VERTEX
8
0
10
99.2502487204998
20
53.8004123311725
30
0
0
VERTEX
8
0
10
100.169232504949
20
53.8853826204349
30
0
0
VERTEX
8
0
10
101.088216289398
20
53.9806816588647
30
0
0
VERTEX
8
0
10
102.007200073847
20
54.0745726496154
30
0
0
VERTEX
8
0
10
102.926183858296
20
54.1670484232025
30
0
0
VERTEX
8
0
10
103.845167642745
20
54.2581023825794
30
0
0
VERTEX
8
0
10
104.764151427194
20
54.3477284965439
30
0
0
VERTEX
8
0
10
105.683135211643
20
54.4442461379255
30
0
0
VERTEX
8
0
10
106.602118996092
20
54.5397461373414
30
0
0
VERTEX
8
0
10
107.521102780541
20
54.6337774167699
30
0
0
VERTEX
8
0
10
108.44008656499
20
54.7796044088
30
0
0
VERTEX
8
0
10
109.35907034944
20
54.9200852348056
30
0
0
VERTEX
8
0
10
110.278054133889
20
55.0589887552733
30
0
0
VERTEX
8
0
10
111.197037918338
20
55.2207915781707
30
0
0
VERTEX
8
0
10
112.116021702787
20
55.3768756912525
30
0
0
VERTEX
8
0
10
113.035005487236
20
55.5313742698626
30
0
0
VERTEX
8
0
10
113.953989271685
20
55.6649932088843
30
0
0
VERTEX
8
0
10
114.872973056134
20
55.8018351895083
30
0
0
VERTEX
8
0
10
115.791956840583
20
55.9371225705963
30
0
0
VERTEX
8
0
10
116.710940625032
20
56.0919727764746
30
0
0
VERTEX
8
0
10
117.629924409481
20
56.2386586859769
30
0
0
VERTEX
8
0
10
118.54890819393
20
56.3787358777771
30
0
0
VERTEX
8
0
10
119.467891978379
20
56.5136539464439
30
0
0
VERTEX
8
0
10
120.386875762828
20
56.6470518937577
30
0
0
VERTEX
8
0
10
121.305859547277
20
56.7789387247568
30
0
0
VERTEX
8
0
10
122.224843331727
20
56.9093238445417
30
0
0
VERTEX
8
0
10
123.143827116176
20
57.038217056135
30
0
0
VERTEX
8
0
10
124.062810900625
20
57.1656285585078
30
0
0
VERTEX
8
0
10
124.981794685074
20
57.2915689447746
30
0
0
VERTEX
8
0
10
125.900778469523
20
57.4160492005418
30
0
0
VERTEX
8
0
10
126.819762253972
20
57.5028629244601
30
0
0
VERTEX
8
0
10
127.738746038421
20
57.5868545394829
30
0
0
VERTEX
8
0
10
128.65772982287
20
57.6694387412113
30
0
0
VERTEX
8
0
10
129.576713607319
20
57.6499406607927
30
0
0
VERTEX
8
0
10
130.495697391768
20
57.6375211172416
30
0
0
VERTEX
8
0
10
131.414681176217
20
57.6239058418745
30
0
0
VERTEX
8
0
10
132.333664960666
20
57.5986139794965
30
0
0
VERTEX
8
0
10
133.252648745115
20
57.574034606401
30
0
0
VERTEX
8
0
10
134.171632529565
20
57.5483022397792
30
0
0
VERTEX
8
0
10
135.090616314014
20
57.5214226145304
30
0
0
VERTEX
8
0
10
136.009600098463
20
57.4934020056225
30
0
0
VERTEX
8
0
10
136.928583882912
20
57.4642472306051
30
0
0
VERTEX
8
0
10
137.847567667361
20
57.438150717107
30
0
0
VERTEX
8
0
10
138.76655145181
20
57.4095838629658
30
0
0
VERTEX
8
0
10
139.685535236259
20
57.3782005751379
30
0
0
VERTEX
8
0
10
140.604519020708
20
57.3445756714836
30
0
0
VERTEX
8
0
10
141.523502805157
20
57.3098590673246
30
0
0
VERTEX
8
0
10
142.442486589606
20
57.272012115336
30
0
0
VERTEX
8
0
10
143.361470374055
20
57.2323276189673
30
0
0
VERTEX
8
0
10
144.280454158504
20
57.1915919806079
30
0
0
VERTEX
8
0
10
145.199437942953
20
57.1522139693581
30
0
0
VERTEX
8
0
10
146.118421727402
20
57.1122139834568
30
0
0
VERTEX
8
0
10
147.037405511852
20
57.0711915133266
30
0
0
VERTEX
8
0
10
147.956389296301
20
57.0291601413407
30
0
0
VERTEX
8
0
10
148.87537308075
20
56.9861340394525
30
0
0
VERTEX
8
0
10
149.794356865199
20
56.9421279738648
30
0
0
VERTEX
8
0
10
150.713340649648
20
56.900243185775
30
0
0
VERTEX
8
0
10
151.632324434097
20
56.8571020030522
30
0
0
VERTEX
8
0
10
152.551308218546
20
56.8130213191533
30
0
0
VERTEX
8
0
10
153.470292002995
20
56.7728814259963
30
0
0
VERTEX
8
0
10
154.389275787444
20
56.7309011975908
30
0
0
SEQEND
8
0
0
POLYLINE
8
0
62
2
70
0
10
0
20
0
30
0
0
VERTEX
8
0
10
14.7037405511851
20
11.1037978059832
30
0
0
VERTEX
8
0
10
15.6227243356342
20
11.4079775359854
30
0
0
VERTEX
8
0
10
16.5417081200833
20
11.8434146813042
30
0
0
VERTEX
8
0
10
17.4606919045324
20
12.7035023628573
30
0
0
VERTEX
8
0
10
18.3796756889814
20
12.9659772302484
30
0
0
VERTEX
8
0
10
19.2986594734305
20
13.4216707840902
30
0
0
VERTEX
8
0
10
20.2176432578796
20
14.2167667666707
30
0
0
VERTEX
8
0
10
21.1366270423286
20
14.449392412404
30
0
0
VERTEX
8
0
10
22.0556108267777
20
14.9152088872455
30
0
0
VERTEX
8
0
10
22.9745946112268
20
15.6562176626118
30
0
0
VERTEX
8
0
10
23.8935783956759
20
15.8452457531544
30
0
0
VERTEX
8
0
10
24.8125621801249
20
16.3355593980261
30
0
0
VERTEX
8
0
10
25.731545964574
20
16.7754549384771
30
0
0
VERTEX
8
0
10
26.6505297490231
20
17.1972725578039
30
0
0
VERTEX
8
0
10
27.5695135334721
20
17.6907354560764
30
0
0
VERTEX
8
0
10
28.4884973179212
20
18.0922130323696
30
0
0
VERTEX
8
0
10
29.4074811023703
20
18.4978809753032
30
0
0
VERTEX
8
0
10
30.3264648868194
20
18.9867343088388
30
0
0
VERTEX
8
0
10
31.2454486712684
20
19.3551033878817
30
0
0
VERTEX
8
0
10
32.1644324557175
20
19.7485179547076
30
0
0
VERTEX
8
0
10
33.0834162401666
20
20.2282890395432
30
0
0
VERTEX
8
0
10
34.0024000246157
20
20.5676748272566
30
0
0
VERTEX
8
0
10
34.9213838090647
20
20.951183980137
30
0
0
VERTEX
8
0
10
35.8403675935138
20
21.4192890420653
30
0
0
VERTEX
8
0
10
36.7593513779629
20
21.733003968952
30
0
0
VERTEX
8
0
10
37.6783351624119
20
22.1080494037891
30
0
0
VERTEX
8
0
10
38.597318946861
20
22.5630381394785
30
0
0
VERTEX
8
0
10
39.5163027313101
20
22.856728401276
30
0
0
VERTEX
8
0
10
40.4352865157592
20
23.2212984384851
30
0
0
VERTEX
8
0
10
41.3542703002082
20
23.5775219926473
30
0
0
VERTEX
8
0
10
42.2732540846573
20
23.9308646501548
30
0
0
VERTEX
8
0
10
43.1922378691064
20
24.2930756506367
30
0
0
VERTEX
8
0
10
44.1112216535554
20
24.6295381948251
30
0
0
VERTEX
8
0
10
45.0302054380045
20
24.9678887170197
30
0
0
VERTEX
8
0
10
45.9491892224536
20
25.3254821178719
30
0
0
VERTEX
8
0
10
46.8681730069027
20
25.6432611122635
30
0
0
VERTEX
8
0
10
47.7871567913517
20
25.9691297374242
30
0
0
VERTEX
8
0
10
48.7061405758008
20
26.320598934171
30
0
0
VERTEX
8
0
10
49.6251243602499
20
26.6208368648781
30
0
0
VERTEX
8
0
10
50.5441081446989
20
26.9361383629796
30
0
0
VERTEX
8
0
10
51.463091929148
20
27.2805300430203
30
0
0
VERTEX
8
0
10
52.3820757135971
20
27.5644183740733
30
0
0
VERTEX
8
0
10
53.3010594980462
20
27.8706741414333
30
0
0
VERTEX
8
0
10
54.2200432824952
20
28.2074645411431
30
0
0
VERTEX
8
0
10
55.1390270669443
20
28.4822020245315
30
0
0
VERTEX
8
0
10
56.0580108513934
20
28.7747398484874
30
0
0
VERTEX
8
0
10
56.9769946358424
20
29.0676902076645
30
0
0
VERTEX
8
0
10
57.8959784202915
20
29.3612726425572
30
0
0
VERTEX
8
0
10
58.8149622047406
20
29.6506664546925
30
0
0
VERTEX
8
0
10
59.7339459891897
20
29.9321975971808
30
0
0
VERTEX
8
0
10
60.6529297736387
20
30.215250362403
30
0
0
VERTEX
8
0
10
61.5719135580878
20
30.5012693989938
30
0
0
VERTEX
8
0
10
62.4908973425369
20
30.7723761821351
30
0
0
VERTEX
8
0
10
63.409881126986
20
31.0471775296442
30
0
0
VERTEX
8
0
10
64.328864911435
20
31.3301270920465
30
0
0
VERTEX
8
0
10
65.2478486958841
20
31.5922552049846
30
0
0
VERTEX
8
0
10
66.1668324803332
20
31.8612201654332
30
0
0
VERTEX
8
0
10
67.0858162647822
20
32.1421025133337
30
0
0
VERTEX
8
0
10
68.0048000492313
20
32.3973940694969
30
0
0
VERTEX
8
0
10
68.9237838336804
20
32.6634917306765
30
0
0
VERTEX
8
0
10
69.8427676181295
20
32.9444257562838
30
0
0
VERTEX
8
0
10
70.7617514025785
20
33.2019424467186
30
0
0
VERTEX
8
0
10
71.6807351870276
20
33.4639683843218
30
0
0
VERTEX
8
0
10
72.5997189714767
20
33.7324953743234
30
0
0
VERTEX
8
0
10
73.5187027559257
20
34.0074814407586
30
0
0
VERTEX
8
0
10
74.4376865403748
20
34.2821423061897
30
0
0
VERTEX
8
0
10
75.3566703248239
20
34.5640084110037
30
0
0
VERTEX
8
0
10
76.275654109273
20
34.8601264826644
30
0
0
VERTEX
8
0
10
77.194637893722
20
35.1760873600505
30
0
0
VERTEX
8
0
10
78.1136216781711
20
35.5260289411682
30
0
0
VERTEX
8
0
10
79.0326054626202
20
35.8704144371495
30
0
0
VERTEX
8
0
10
79.9515892470693
20
36.1652743245769
30
0
0
VERTEX
8
0
10
80.8705730315183
20
36.4197883417303
30
0
0
VERTEX
8
0
10
81.7895568159674
20
36.6547933935471
30
0
0
VERTEX
8
0
10
82.7085406004165
20
36.8760449321553
30
0
0
VERTEX
8
0
10
83.6275243848655
20
37.0711905756565
30
0
0
VERTEX
8
0
10
84.5465081693146
20
37.2572693759879
30
0
0
VERTEX
8
0
10
85.4654919537637
20
37.436908088298
30
0
0
VERTEX
8
0
10
86.3844757382128
20
37.5964620957121
30
0
0
VERTEX
8
0
10
87.3034595226618
20
37.7430450708275
30
0
0
VERTEX
8
0
10
88.2224433071109
20
37.8832234608385
30
0
0
VERTEX
8
0
10
89.14142709156
20
38.0161904720109
30
0
0
VERTEX
8
0
10
90.060410876009
20
38.1352062019618
30
0
0
VERTEX
8
0
10
90.9793946604581
20
38.2468008269893
30
0
0
VERTEX
8
0
10
91.8983784449072
20
38.3515173538341
30
0
0
VERTEX
8
0
10
92.8173622293563
20
38.4459512905189
30
0
0
VERTEX
8
0
10
93.7363460138053
20
38.5317722827098
30
0
0
VERTEX
8
0
10
94.6553297982544
20
38.6111722868639
30
0
0
VERTEX
8
0
10
95.5743135827035
20
38.6828957669257
30
0
0
VERTEX
8
0
10
96.4932973671526
20
38.7448505984894
30
0
0
VERTEX
8
0
10
97.4122811516016
20
38.8009875843124
30
0
0
VERTEX
8
0
10
98.3312649360507
20
38.8512798452555
30
0
0
VERTEX
8
0
10
99.2502487204998
20
38.8907732850768
30
0
0
VERTEX
8
0
10
100.169232504949
20
38.9251622198365
30
0
0
VERTEX
8
0
10
101.088216289398
20
38.9549571548108
30
0
0
VERTEX
8
0
10
102.007200073847
20
38.9757534714826
30
0
0
VERTEX
8
0
10
102.926183858296
20
38.9868908636473
30
0
0
VERTEX
8
0
10
103.845167642745
20
38.9940276814561
30
0
0
VERTEX
8
0
10
104.764151427194
20
38.9962490624012
30
0
0
VERTEX
8
0
10
105.683135211643
20
38.9887161344997
30
0
0
VERTEX
8
0
10
106.602118996092
20
38.9762640072626
30
0
0
VERTEX
8
0
10
107.521102780541
20
38.9584991872741
30
0
0
VERTEX
8
0
10
108.44008656499
20
38.9327446290344
30
0
0
VERTEX
8
0
10
109.35907034944
20
38.9012762057766
30
0
0
VERTEX
8
0
10
110.278054133889
20
38.8643712787569
30
0
0
VERTEX
8
0
10
111.197037918338
20
38.8207902740961
30
0
0
VERTEX
8
0
10
112.116021702787
20
38.7708353108365
30
0
0
VERTEX
8
0
10
113.035005487236
20
38.7155161019878
30
0
0
VERTEX
8
0
10
113.953989271685
20
38.6544770073116
30
0
0
VERTEX
8
0
10
114.872973056134
20
38.5865444493767
30
0
0
VERTEX
8
0
10
115.791956840583
20
38.5134529163722
30
0
0
VERTEX
8
0
10
116.710940625032
20
38.4353184854017
30
0
0
VERTEX
8
0
10
117.629924409481
20
38.3513800660822
30
0
0
VERTEX
8
0
10
118.54890819393
20
38.2596394933614
30
0
0
VERTEX
8
0
10
119.467891978379
20
38.1638163038366
30
0
0
VERTEX
8
0
10
120.386875762828
20
38.0633416967533
30
0
0
VERTEX
8
0
10
121.305859547277
20
37.9555351591911
30
0
0
VERTEX
8
0
10
122.224843331727
20
37.8432692231097
30
0
0
VERTEX
8
0
10
123.143827116176
20
37.7261389832435
30
0
0
VERTEX
8
0
10
124.062810900625
20
37.6026629426775
30
0
0
VERTEX
8
0
10
124.981794685074
20
37.4744555202233
30
0
0
VERTEX
8
0
10
125.900778469523
20
37.3413561549049
30
0
0
VERTEX
8
0
10
126.819762253972
20
37.2026761332813
30
0
0
VERTEX
8
0
10
127.738746038421
20
37.0591064133557
30
0
0
VERTEX
8
0
10
128.65772982287
20
36.9107590708351
30
0
0
VERTEX
8
0
10
129.576713607319
20
36.757434720709
30
0
0
VERTEX
8
0
10
130.495697391768
20
36.5991843875803
30
0
0
VERTEX
8
0
10
131.414681176217
20
36.4363814439168
30
0
0
VERTEX
8
0
10
132.333664960666
20
36.2690982493515
30
0
0
VERTEX
8
0
10
133.252648745115
20
36.0975625558747
30
0
0
VERTEX
8
0
10
134.171632529565
20
35.9206330068514
30
0
0
VERTEX
8
0
10
135.090616314014
20
35.7400321531764
30
0
0
VERTEX
8
0
10
136.009600098463
20
35.5555926896382
30
0
0
VERTEX
8
0
10
136.928583882912
20
35.3664407384022
30
0
0
VERTEX
8
0
10
137.847567667361
20
35.1737945070132
30
0
0
VERTEX
8
0
10
138.76655145181
20
34.977576093182
30
0
0
VERTEX
8
0
10
139.685535236259
20
34.7774401897829
30
0
0
VERTEX
8
0
10
140.604519020708
20
34.5741491243969
30
0
0
VERTEX
8
0
10
141.523502805157
20
34.3677519857039
30
0
0
VERTEX
8
0
10
142.442486589606
20
34.1582450824867
30
0
0
VERTEX
8
0
10
143.361470374055
20
33.9461251309466
30
0
0
VERTEX
8
0
10
144.280454158504
20
33.7315852137231
30
0
0
VERTEX
8
0
10
145.199437942953
20
33.5148460997336
30
0
0
VERTEX
8
0
10
146.118421727402
20
33.2963022616652
30
0
0
VERTEX
8
0
10
147.037405511852
20
33.0763027885533
30
0
0
VERTEX
8
0
10
147.956389296301
20
32.8552424830566
30
0
0
VERTEX
8
0
10
148.87537308075
20
32.6336310813334
30
0
0
VERTEX
8
0
10
149.794356865199
20
32.4118014768119
30
0
0
VERTEX
8
0
10
150.713340649648
20
32.1905484816488
30
0
0
VERTEX
8
0
10
151.632324434097
20
31.9705097511496
30
0
0
VERTEX
8
0
10
152.551308218546
20
31.7524462321757
30
0
0
VERTEX
8
0
10
153.470292002995
20
31.5374262569711
30
0
0
VERTEX
8
0
10
154.389275787444
20
31.3267042144689
30
0
0
SEQEND
8
0
0
POLYLINE
8
0
62
3
70
0
10
0
20
0
30
0
0
VERTEX
8
0
10
14.7037405511851
20
12.5331843208233
30
0
0
VERTEX
8
0
10
15.6227243356342
20
12.9643765659227
30
0
0
VERTEX
8
0
10
16.5417081200833
20
13.5114853059702
30
0
0
VERTEX
8
0
10
17.4606919045324
20
14.4265779207546
30
0
0
VERTEX
8
0
10
18.3796756889814
20
14.820120677008
30
0
0
VERTEX
8
0
10
19.2986594734305
20
15.3819766844524
30
0
0
VERTEX
8
0
10
20.2176432578796
20
16.2359079201764
30
0
0
VERTEX
8
0
10
21.1366270423286
20
16.6022039725368
30
0
0
VERTEX
8
0
10
22.0556108267777
20
17.1696201588636
30
0
0
VERTEX
8
0
10
22.9745946112268
20
17.9723434795081
30
0
0
VERTEX
8
0
10
23.8935783956759
20
18.3023163512467
30
0
0
VERTEX
8
0
10
24.8125621801249
20
18.8846469468848
30
0
0
VERTEX
8
0
10
25.731545964574
20
19.4256795842804
30
0
0
VERTEX
8
0
10
26.6505297490231
20
19.9521972598931
30
0
0
VERTEX
8
0
10
27.5695135334721
20
20.5341229375106
30
0
0
VERTEX
8
0
10
28.4884973179212
20
21.0395098653668
30
0
0
VERTEX
8
0
10
29.4074811023703
20
21.5485834908991
30
0
0
VERTEX
8
0
10
30.3264648868194
20
22.1233038116016
30
0
0
VERTEX
8
0
10
31.2454486712684
20
22.5977272183694
30
0
0
VERTEX
8
0
10
32.1644324557175
20
23.0926920241696
30
0
0
VERTEX
8
0
10
33.0834162401666
20
23.6563131626609
30
0
0
VERTEX
8
0
10
34.0024000246157
20
24.1033858122632
30
0
0
VERTEX
8
0
10
34.9213838090647
20
24.5862302599115
30
0
0
VERTEX
8
0
10
35.8403675935138
20
25.1365210689378
30
0
0
VERTEX
8
0
10
36.7593513779629
20
25.5591226335652
30
0
0
VERTEX
8
0
10
37.6783351624119
20
26.0310538174678
30
0
0
VERTEX
8
0
10
38.597318946861
20
26.5667756975234
30
0
0
VERTEX
8
0
10
39.5163027313101
20
26.9724437810379
30
0
0
VERTEX
8
0
10
40.4352865157592
20
27.4290278410631
30
0
0
VERTEX
8
0
10
41.3542703002082
20
27.8806305727321
30
0
0
VERTEX
8
0
10
42.2732540846573
20
28.3306356815131
30
0
0
VERTEX
8
0
10
43.1922378691064
20
28.781979266499
30
0
0
VERTEX
8
0
10
44.1112216535554
20
29.2140374644139
30
0
0
VERTEX
8
0
10
45.0302054380045
20
29.6475468989514
30
0
0
VERTEX
8
0
10
45.9491892224536
20
30.0916926932016
30
0
0
VERTEX
8
0
10
46.8681730069027
20
30.5051292448512
30
0
0
VERTEX
8
0
10
47.7871567913517
20
30.924283405649
30
0
0
VERTEX
8
0
10
48.7061405758008
20
31.3599298412652
30
0
0
VERTEX
8
0
10
49.6251243602499
20
31.7557145554819
30
0
0
VERTEX
8
0
10
50.5441081446989
20
32.1621400668089
30
0
0
VERTEX
8
0
10
51.463091929148
20
32.5884652600248
30
0
0
VERTEX
8
0
10
52.3820757135971
20
32.9676012002346
30
0
0
VERTEX
8
0
10
53.3010594980462
20
33.3625862766422
30
0
0
VERTEX
8
0
10
54.2200432824952
20
33.7791380682236
30
0
0
VERTEX
8
0
10
55.1390270669443
20
34.1500945946747
30
0
0
VERTEX
8
0
10
56.0580108513934
20
34.5272917886706
30
0
0
VERTEX
8
0
10
56.9769946358424
20
34.9065806683606
30
0
0
VERTEX
8
0
10
57.8959784202915
20
35.2869906571861
30
0
0
VERTEX
8
0
10
58.8149622047406
20
35.6581949859985
30
0
0
VERTEX
8
0
10
59.7339459891897
20
36.0249338380249
30
0
0
VERTEX
8
0
10
60.6529297736387
20
36.3926359339912
30
0
0
VERTEX
8
0
10
61.5719135580878
20
36.7576301429774
30
0
0
VERTEX
8
0
10
62.4908973425369
20
37.1126295144964
30
0
0
VERTEX
8
0
10
63.409881126986
20
37.4695384575352
30
0
0
VERTEX
8
0
10
64.328864911435
20
37.8285552987121
30
0
0
VERTEX
8
0
10
65.2478486958841
20
38.1729943555906
30
0
0
VERTEX
8
0
10
66.1668324803332
20
38.5211284112311
30
0
0
VERTEX
8
0
10
67.0858162647822
20
38.8749800518084
30
0
0
VERTEX
8
0
10
68.0048000492313
20
39.2106070277072
30
0
0
VERTEX
8
0
10
68.9237838336804
20
39.552433649583
30
0
0
VERTEX
8
0
10
69.8427676181295
20
39.9028549761092
30
0
0
VERTEX
8
0
10
70.7617514025785
20
40.2392772182202
30
0
0
VERTEX
8
0
10
71.6807351870276
20
40.5716541153056
30
0
0
VERTEX
8
0
10
72.5997189714767
20
40.9107467156657
30
0
0
VERTEX
8
0
10
73.5187027559257
20
41.255497237214
30
0
0
VERTEX
8
0
10
74.4376865403748
20
41.5948175551281
30
0
0
VERTEX
8
0
10
75.3566703248239
20
41.9417005471271
30
0
0
VERTEX
8
0
10
76.275654109273
20
42.2998729958669
30
0
0
VERTEX
8
0
10
77.194637893722
20
42.6697530728824
30
0
0
VERTEX
8
0
10
78.1136216781711
20
43.0694991177816
30
0
0
VERTEX
8
0
10
79.0326054626202
20
43.4630095622517
30
0
0
VERTEX
8
0
10
79.9515892470693
20
43.8106348704849
30
0
0
VERTEX
8
0
10
80.8705730315183
20
44.1260692045531
30
0
0
VERTEX
8
0
10
81.7895568159674
20
44.4226225243268
30
0
0
VERTEX
8
0
10
82.7085406004165
20
44.7033443459156
30
0
0
VERTEX
8
0
10
83.6275243848655
20
44.9638223329705
30
0
0
VERTEX
8
0
10
84.5465081693146
20
45.2135353161245
30
0
0
VERTEX
8
0
10
85.4654919537637
20
45.4539948355704
30
0
0
VERTEX
8
0
10
86.3844757382128
20
45.6810124620358
30
0
0
VERTEX
8
0
10
87.3034595226618
20
45.8903000867272
30
0
0
VERTEX
8
0
10
88.2224433071109
20
46.0943348860957
30
0
0
VERTEX
8
0
10
89.14142709156
20
46.2916506191134
30
0
0
VERTEX
8
0
10
90.060410876009
20
46.4726563777101
30
0
0
VERTEX
8
0
10
90.9793946604581
20
46.6477814906559
30
0
0
VERTEX
8
0
10
91.8983784449072
20
46.8159223468231
30
0
0
VERTEX
8
0
10
92.8173622293563
20
46.9713096815037
30
0
0
VERTEX
8
0
10
93.7363460138053
20
47.1200171145752
30
0
0
VERTEX
8
0
10
94.6553297982544
20
47.2616472296893
30
0
0
VERTEX
8
0
10
95.5743135827035
20
47.3931535115172
30
0
0
VERTEX
8
0
10
96.4932973671526
20
47.5171858546154
30
0
0
VERTEX
8
0
10
97.4122811516016
20
47.6342350342154
30
0
0
VERTEX
8
0
10
98.3312649360507
20
47.7431071658952
30
0
0
VERTEX
8
0
10
99.2502487204998
20
47.8437916849326
30
0
0
VERTEX
8
0
10
100.169232504949
20
47.9377422123254
30
0
0
VERTEX
8
0
10
101.088216289398
20
48.024943960402
30
0
0
VERTEX
8
0
10
102.007200073847
20
48.1066418177056
30
0
0
VERTEX
8
0
10
102.926183858296
20
48.1754018054325
30
0
0
VERTEX
8
0
10
103.845167642745
20
48.2406138018075
30
0
0
VERTEX
8
0
10
104.764151427194
20
48.300984116691
30
0
0
VERTEX
8
0
10
105.683135211643
20
48.3499231818478
30
0
0
VERTEX
8
0
10
106.602118996092
20
48.3947044930022
30
0
0
VERTEX
8
0
10
107.521102780541
20
48.4339802926703
30
0
0
VERTEX
8
0
10
108.44008656499
20
48.4636782040588
30
0
0
VERTEX
8
0
10
109.35907034944
20
48.4886902417273
30
0
0
VERTEX
8
0
10
110.278054133889
20
48.5078228927008
30
0
0
VERTEX
8
0
10
111.197037918338
20
48.5188266372838
30
0
0
VERTEX
8
0
10
112.116021702787
20
48.5247079224821
30
0
0
VERTEX
8
0
10
113.035005487236
20
48.5245596461512
30
0
0
VERTEX
8
0
10
113.953989271685
20
48.5174074236594
30
0
0
VERTEX
8
0
10
114.872973056134
20
48.5047937942782
30
0
0
VERTEX
8
0
10
115.791956840583
20
48.4861699463526
30
0
0
VERTEX
8
0
10
116.710940625032
20
48.4614105166246
30
0
0
VERTEX
8
0
10
117.629924409481
20
48.432765686931
30
0
0
VERTEX
8
0
10
118.54890819393
20
48.3946283488902
30
0
0
VERTEX
8
0
10
119.467891978379
20
48.3527645689982
30
0
0
VERTEX
8
0
10
120.386875762828
20
48.3064040701881
30
0
0
VERTEX
8
0
10
121.305859547277
20
48.2519617215034
30
0
0
VERTEX
8
0
10
122.224843331727
20
48.1935971891796
30
0
0
VERTEX
8
0
10
123.143827116176
20
48.1304287557311
30
0
0
VERTEX
8
0
10
124.062810900625
20
48.0603048116464
30
0
0
VERTEX
8
0
10
124.981794685074
20
47.9861352463666
30
0
0
VERTEX
8
0
10
125.900778469523
20
47.9070633999565
30
0
0
VERTEX
8
0
10
126.819762253972
20
47.8219581659224
30
0
0
VERTEX
8
0
10
127.738746038421
20
47.7327649149529
30
0
0
VERTEX
8
0
10
128.65772982287
20
47.6387409065628
30
0
0
VERTEX
8
0
10
129.576713607319
20
47.5394522015372
30
0
0
VERTEX
8
0
10
130.495697391768
20
47.4361223595787
30
0
0
VERTEX
8
0
10
131.414681176217
20
47.3281736543477
30
0
0
VERTEX
8
0
10
132.333664960666
20
47.2156217095507
30
0
0
VERTEX
8
0
10
133.252648745115
20
47.0998868950366
30
0
0
VERTEX
8
0
10
134.171632529565
20
46.9784376668239
30
0
0
VERTEX
8
0
10
135.090616314014
20
46.8538024999719
30
0
0
VERTEX
8
0
10
136.009600098463
20
46.7257394987641
30
0
0
VERTEX
8
0
10
136.928583882912
20
46.5930776191236
30
0
0
VERTEX
8
0
10
137.847567667361
20
46.4574821955215
30
0
0
VERTEX
8
0
10
138.76655145181
20
46.3187154484131
30
0
0
VERTEX
8
0
10
139.685535236259
20
46.1762431911345
30
0
0
VERTEX
8
0
10
140.604519020708
20
46.0312100962813
30
0
0
VERTEX
8
0
10
141.523502805157
20
45.8834570675329
30
0
0
VERTEX
8
0
10
142.442486589606
20
45.73287432196
30
0
0
VERTEX
8
0
10
143.361470374055
20
45.5802537833286
30
0
0
VERTEX
8
0
10
144.280454158504
20
45.4255633086127
30
0
0
VERTEX
8
0
10
145.199437942953
20
45.2689677950299
30
0
0
VERTEX
8
0
10
146.118421727402
20
45.1110523307011
30
0
0
VERTEX
8
0
10
147.037405511852
20
44.9519442048866
30
0
0
VERTEX
8
0
10
147.956389296301
20
44.7919929933974
30
0
0
VERTEX
8
0
10
148.87537308075
20
44.6317931156705
30
0
0
VERTEX
8
0
10
149.794356865199
20
44.4714170744531
30
0
0
VERTEX
8
0
10
150.713340649648
20
44.3116408117108
30
0
0
VERTEX
8
0
10
151.632324434097
20
44.1529471922562
30
0
0
VERTEX
8
0
10
152.551308218546
20
43.9959001954526
30
0
0
VERTEX
8
0
10
153.470292002995
20
43.8413508458733
30
0
0
VERTEX
8
0
10
154.389275787444
20
43.6902198815894
30
0
0
SEQEND
8
0
0
POLYLINE
8
0
62
4
70
0
10
0
20
0
30
0
0
VERTEX
8
0
10
14.7037405511851
20
10.7660381264965
30
0
0
VERTEX
8
0
10
15.6227243356342
20
11.2632108763504
30
0
0
VERTEX
8
0
10
16.5417081200833
20
11.7599778868956
30
0
0
VERTEX
8
0
10
17.4606919045324
20
12.2514442776203
30
0
0
VERTEX
8
0
10
18.3796756889814
20
12.8098015281785
30
0
0
VERTEX
8
0
10
19.2986594734305
20
13.3821354603901
30
0
0
VERTEX
8
0
10
20.2176432578796
20
13.9492339811414
30
0
0
VERTEX
8
0
10
21.1366270423286
20
14.5060867702527
30
0
0
VERTEX
8
0
10
22.0556108267777
20
15.0584324361516
30
0
0
VERTEX
8
0
10
22.9745946112268
20
15.6061683220087
30
0
0
VERTEX
8
0
10
23.8935783956759
20
16.1683170540577
30
0
0
VERTEX
8
0
10
24.8125621801249
20
16.7193683058263
30
0
0
VERTEX
8
0
10
25.731545964574
20
17.2729230160162
30
0
0
VERTEX
8
0
10
26.6505297490231
20
17.8348335167769
30
0
0
VERTEX
8
0
10
27.5695135334721
20
18.3884503575392
30
0
0
VERTEX
8
0
10
28.4884973179212
20
18.9449690857672
30
0
0
VERTEX
8
0
10
29.4074811023703
20
19.4810846402007
30
0
0
VERTEX
8
0
10
30.3264648868194
20
20.015377055591
30
0
0
VERTEX
8
0
10
31.2454486712684
20
20.5529615896427
30
0
0
VERTEX
8
0
10
32.1644324557175
20
21.111566276281
30
0
0
VERTEX
8
0
10
33.0834162401666
20
21.657807676037
30
0
0
VERTEX
8
0
10
34.0024000246157
20
22.2025721236852
30
0
0
VERTEX
8
0
10
34.9213838090647
20
22.7408429371669
30
0
0
VERTEX
8
0
10
35.8403675935138
20
23.2740367624584
30
0
0
VERTEX
8
0
10
36.7593513779629
20
23.7901506447758
30
0
0
VERTEX
8
0
10
37.6783351624119
20
24.2928117704701
30
0
0
VERTEX
8
0
10
38.597318946861
20
24.7910256042414
30
0
0
VERTEX
8
0
10
39.5163027313101
20
25.2964920631147
30
0
0
VERTEX
8
0
10
40.4352865157592
20
25.7919931124763
30
0
0
VERTEX
8
0
10
41.3542703002082
20
26.2896320061688
30
0
0
VERTEX
8
0
10
42.2732540846573
20
26.7851722876919
30
0
0
VERTEX
8
0
10
43.1922378691064
20
27.2739004796991
30
0
0
VERTEX
8
0
10
44.1112216535554
20
27.7651394402958
30
0
0
VERTEX
8
0
10
45.0302054380045
20
28.2627143948012
30
0
0
VERTEX
8
0
10
45.9491892224536
20
28.7540747942671
30
0
0
VERTEX
8
0
10
46.8681730069027
20
29.2483012744744
30
0
0
VERTEX
8
0
10
47.7871567913517
20
29.7339399719274
30
0
0
VERTEX
8
0
10
48.7061405758008
20
30.2154304693707
30
0
0
VERTEX
8
0
10
49.6251243602499
20
30.7001152352902
30
0
0
VERTEX
8
0
10
50.5441081446989
20
31.1255266968264
30
0
0
VERTEX
8
0
10
51.463091929148
20
31.5595365927869
30
0
0
VERTEX
8
0
10
52.3820757135971
20
31.997055999322
30
0
0
VERTEX
8
0
10
53.3010594980462
20
32.4226128833758
30
0
0
VERTEX
8
0
10
54.2200432824952
20
32.8467611095503
30
0
0
VERTEX
8
0
10
55.1390270669443
20
33.2772461362597
30
0
0
VERTEX
8
0
10
56.0580108513934
20
33.6988204927783
30
0
0
VERTEX
8
0
10
56.9769946358424
20
34.1221372478171
30
0
0
VERTEX
8
0
10
57.8959784202915
20
34.5460127707766
30
0
0
VERTEX
8
0
10
58.8149622047406
20
34.9640031266276
30
0
0
VERTEX
8
0
10
59.7339459891897
20
35.3840646941788
30
0
0
VERTEX
8
0
10
60.6529297736387
20
35.8037722152744
30
0
0
VERTEX
8
0
10
61.5719135580878
20
36.2181894146733
30
0
0
VERTEX
8
0
10
62.4908973425369
20
36.6349853648364
30
0
0
VERTEX
8
0
10
63.409881126986
20
37.0214389514465
30
0
0
VERTEX
8
0
10
64.328864911435
20
37.4010094605618
30
0
0
VERTEX
8
0
10
65.2478486958841
20
37.783249047454
30
0
0
VERTEX
8
0
10
66.1668324803332
20
38.1403397478589
30
0
0
VERTEX
8
0
10
67.0858162647822
20
38.4944878115081
30
0
0
VERTEX
8
0
10
68.0048000492313
20
38.8515840708166
30
0
0
VERTEX
8
0
10
68.9237838336804
20
39.209600757562
30
0
0
VERTEX
8
0
10
69.8427676181295
20
39.5633475713577
30
0
0
VERTEX
8
0
10
70.7617514025785
20
39.9224614962257
30
0
0
VERTEX
8
0
10
71.6807351870276
20
40.2614754160915
30
0
0
VERTEX
8
0
10
72.5997189714767
20
40.6047412662389
30
0
0
VERTEX
8
0
10
73.5187027559257
20
40.9483394536746
30
0
0
VERTEX
8
0
10
74.4376865403748
20
41.3001631339657
30
0
0
VERTEX
8
0
10
75.3566703248239
20
41.6495502400793
30
0
0
VERTEX
8
0
10
76.275654109273
20
41.9914790175606
30
0
0
VERTEX
8
0
10
77.194637893722
20
42.3232501427728
30
0
0
VERTEX
8
0
10
78.1136216781711
20
42.6568705819137
30
0
0
VERTEX
8
0
10
79.0326054626202
20
42.9523791335157
30
0
0
VERTEX
8
0
10
79.9515892470693
20
43.2262507355845
30
0
0
VERTEX
8
0
10
80.8705730315183
20
43.501276265261
30
0
0
VERTEX
8
0
10
81.7895568159674
20
43.7735039820347
30
0
0
VERTEX
8
0
10
82.7085406004165
20
44.0411932438234
30
0
0
VERTEX
8
0
10
83.6275243848655
20
44.3101902576388
30
0
0
VERTEX
8
0
10
84.5465081693146
20
44.5699930995759
30
0
0
VERTEX
8
0
10
85.4654919537637
20
44.8254040394362
30
0
0
VERTEX
8
0
10
86.3844757382128
20
45.0839319845673
30
0
0
VERTEX
8
0
10
87.3034595226618
20
45.3385826635996
30
0
0
VERTEX
8
0
10
88.2224433071109
20
45.5929977608357
30
0
0
VERTEX
8
0
10
89.14142709156
20
45.8465601094293
30
0
0
VERTEX
8
0
10
90.060410876009
20
46.0877640299534
30
0
0
VERTEX
8
0
10
90.9793946604581
20
46.3303112091037
30
0
0
VERTEX
8
0
10
91.8983784449072
20
46.5714354508051
30
0
0
VERTEX
8
0
10
92.8173622293563
20
46.7099637028232
30
0
0
VERTEX
8
0
10
93.7363460138053
20
46.8725803487503
30
0
0
VERTEX
8
0
10
94.6553297982544
20
47.0333315114197
30
0
0
VERTEX
8
0
10
95.5743135827035
20
47.1454668657841
30
0
0
VERTEX
8
0
10
96.4932973671526
20
47.2718927780667
30
0
0
VERTEX
8
0
10
97.4122811516016
20
47.3889944045011
30
0
0
VERTEX
8
0
10
98.3312649360507
20
47.4973789537393
30
0
0
VERTEX
8
0
10
99.2502487204998
20
47.6063577354248
30
0
0
VERTEX
8
0
10
100.169232504949
20
47.7148677576366
30
0
0
VERTEX
8
0
10
101.088216289398
20
47.8212384213476
30
0
0
VERTEX
8
0
10
102.007200073847
20
47.9293660897174
30
0
0
VERTEX
8
0
10
102.926183858296
20
48.0500455887136
30
0
0
VERTEX
8
0
10
103.845167642745
20
48.1740652571246
30
0
0
VERTEX
8
0
10
104.764151427194
20
48.2971120479995
30
0
0
VERTEX
8
0
10
105.683135211643
20
48.3318500885263
30
0
0
VERTEX
8
0
10
106.602118996092
20
48.3622047118962
30
0
0
VERTEX
8
0
10
107.521102780541
20
48.391364355871
30
0
0
VERTEX
8
0
10
108.44008656499
20
48.3548308721109
30
0
0
VERTEX
8
0
10
109.35907034944
20
48.3230087646023
30
0
0
VERTEX
8
0
10
110.278054133889
20
48.289845552091
30
0
0
VERTEX
8
0
10
111.197037918338
20
48.2503962133859
30
0
0
VERTEX
8
0
10
112.116021702787
20
48.2117117788799
30
0
0
VERTEX
8
0
10
113.035005487236
20
48.1714176608277
30
0
0
VERTEX
8
0
10
113.953989271685
20
48.1167336000913
30
0
0
VERTEX
8
0
10
114.872973056134
20
48.065255419992
30
0
0
VERTEX
8
0
10
115.791956840583
20
48.0119869862432
30
0
0
VERTEX
8
0
10
116.710940625032
20
47.9785770169807
30
0
0
VERTEX
8
0
10
117.629924409481
20
47.9390153887449
30
0
0
VERTEX
8
0
10
118.54890819393
20
47.8926203904134
30
0
0
VERTEX
8
0
10
119.467891978379
20
47.8432970460857
30
0
0
VERTEX
8
0
10
120.386875762828
20
47.7931637186102
30
0
0
VERTEX
8
0
10
121.305859547277
20
47.7364563810019
30
0
0
VERTEX
8
0
10
122.224843331727
20
47.6776540409936
30
0
0
VERTEX
8
0
10
123.143827116176
20
47.6178571202911
30
0
0
VERTEX
8
0
10
124.062810900625
20
47.5610240505217
30
0
0
VERTEX
8
0
10
124.981794685074
20
47.5047186119701
30
0
0
VERTEX
8
0
10
125.900778469523
20
47.4472547000558
30
0
0
VERTEX
8
0
10
126.819762253972
20
47.3766004292881
30
0
0
VERTEX
8
0
10
127.738746038421
20
47.3052596214996
30
0
0
VERTEX
8
0
10
128.65772982287
20
47.2327174493376
30
0
0
VERTEX
8
0
10
129.576713607319
20
47.1169601295156
30
0
0
VERTEX
8
0
10
130.495697391768
20
47.0047582602836
30
0
0
VERTEX
8
0
10
131.414681176217
20
46.8914809240131
30
0
0
VERTEX
8
0
10
132.333664960666
20
46.769954497183
30
0
0
VERTEX
8
0
10
133.252648745115
20
46.6498629057675
30
0
0
VERTEX
8
0
10
134.171632529565
20
46.5281969697912
30
0
0
VERTEX
8
0
10
135.090616314014
20
46.4139463873195
30
0
0
VERTEX
8
0
10
136.009600098463
20
46.2971161712259
30
0
0
VERTEX
8
0
10
136.928583882912
20
46.1792111988867
30
0
0
VERTEX
8
0
10
137.847567667361
20
46.0609542925557
30
0
0
VERTEX
8
0
10
138.76655145181
20
45.9421443335186
30
0
0
VERTEX
8
0
10
139.685535236259
20
45.8190219196526
30
0
0
VERTEX
8
0
10
140.604519020708
20
45.6933939977067
30
0
0
VERTEX
8
0
10
141.523502805157
20
45.5672784360146
30
0
0
VERTEX
8
0
10
142.442486589606
20
45.4447043928015
30
0
0
VERTEX
8
0
10
143.361470374055
20
45.3233880575405
30
0
0
VERTEX
8
0
10
144.280454158504
20
45.2016387559171
30
0
0
VERTEX
8
0
10
145.199437942953
20
45.0721783551689
30
0
0
VERTEX
8
0
10
146.118421727402
20
44.9414387083551
30
0
0
VERTEX
8
0
10
147.037405511852
20
44.8104289224061
30
0
0
VERTEX
8
0
10
147.956389296301
20
44.6902263102135
30
0
0
VERTEX
8
0
10
148.87537308075
20
44.5700610733126
30
0
0
VERTEX
8
0
10
149.794356865199
20
44.4496553792254
30
0
0
VERTEX
8
0
10
150.713340649648
20
44.316848068431
30
0
0
VERTEX
8
0
10
151.632324434097
20
44.1853873318054
30
0
0
VERTEX
8
0
10
152.551308218546
20
44.0539830963996
30
0
0
VERTEX
8
0
10
153.470292002995
20
43.9435365657269
30
0
0
VERTEX
8
0
10
154.389275787444
20
43.8290766514225
30
0
0
SEQEND
8
0
0
ENDSEC
0
EOF
