0
SECTION
2
HEADER
9
$ACADVER
1
AC1009
0
ENDSEC
0
SECTION
2
ENTITIES
0
POLYLINE
8
0
62
0
70
1
10
0
20
0
30
0
0
VERTEX
8
0
10
0
20
0
30
0
0
VERTEX
8
0
10
0
20
116.632
30
0
0
VERTEX
8
0
10
179.2
20
116.632
30
0
0
VERTEX
8
0
10
179.2
20
0
30
0
0
SEQEND
8
0
0
TEXT
8
0
62
0
10
0
20
-12
30
0
40
8
1
0
50
0
0
LINE
8
0
62
0
10
6.44639099231973
20
0
30
0
11
6.44639099231973
21
3.2
31
0
0
LINE
8
0
62
0
10
6.44639099231973
20
116.632
30
0
11
6.44639099231973
21
113.432
31
0
0
LINE
8
0
62
0
10
12.8927819846395
20
0
30
0
11
12.8927819846395
21
3.2
31
0
0
LINE
8
0
62
0
10
12.8927819846395
20
116.632
30
0
11
12.8927819846395
21
113.432
31
0
0
LINE
8
0
62
0
10
19.3391729769592
20
0
30
0
11
19.3391729769592
21
3.2
31
0
0
LINE
8
0
62
0
10
19.3391729769592
20
116.632
30
0
11
19.3391729769592
21
113.432
31
0
0
LINE
8
0
62
0
10
25.7855639692789
20
0
30
0
11
25.7855639692789
21
3.2
31
0
0
LINE
8
0
62
0
10
25.7855639692789
20
116.632
30
0
11
25.7855639692789
21
113.432
31
0
0
LINE
8
0
62
0
10
32.2319549615986
20
0
30
0
11
32.2319549615986
21
6.4
31
0
0
LINE
8
0
62
0
10
32.2319549615986
20
116.632
30
0
11
32.2319549615986
21
110.232
31
0
0
TEXT
8
0
62
0
10
32.2319549615986
20
-12
30
0
40
8
1
0.5
50
0
0
LINE
8
0
62
0
10
38.6783459539184
20
0
30
0
11
38.6783459539184
21
3.2
31
0
0
LINE
8
0
62
0
10
38.6783459539184
20
116.632
30
0
11
38.6783459539184
21
113.432
31
0
0
LINE
8
0
62
0
10
45.1247369462381
20
0
30
0
11
45.1247369462381
21
3.2
31
0
0
LINE
8
0
62
0
10
45.1247369462381
20
116.632
30
0
11
45.1247369462381
21
113.432
31
0
0
LINE
8
0
62
0
10
51.5711279385578
20
0
30
0
11
51.5711279385578
21
3.2
31
0
0
LINE
8
0
62
0
10
51.5711279385578
20
116.632
30
0
11
51.5711279385578
21
113.432
31
0
0
LINE
8
0
62
0
10
58.0175189308776
20
0
30
0
11
58.0175189308776
21
3.2
31
0
0
LINE
8
0
62
0
10
58.0175189308776
20
116.632
30
0
11
58.0175189308776
21
113.432
31
0
0
LINE
8
0
62
0
10
64.4639099231973
20
0
30
0
11
64.4639099231973
21
6.4
31
0
0
LINE
8
0
62
0
10
64.4639099231973
20
116.632
30
0
11
64.4639099231973
21
110.232
31
0
0
TEXT
8
0
62
0
10
64.4639099231973
20
-12
30
0
40
8
1
1
50
0
0
LINE
8
0
62
0
10
70.910300915517
20
0
30
0
11
70.910300915517
21
3.2
31
0
0
LINE
8
0
62
0
10
70.910300915517
20
116.632
30
0
11
70.910300915517
21
113.432
31
0
0
LINE
8
0
62
0
10
77.3566919078368
20
0
30
0
11
77.3566919078368
21
3.2
31
0
0
LINE
8
0
62
0
10
77.3566919078368
20
116.632
30
0
11
77.3566919078368
21
113.432
31
0
0
LINE
8
0
62
0
10
83.8030829001565
20
0
30
0
11
83.8030829001565
21
3.2
31
0
0
LINE
8
0
62
0
10
83.8030829001565
20
116.632
30
0
11
83.8030829001565
21
113.432
31
0
0
LINE
8
0
62
0
10
90.2494738924762
20
0
30
0
11
90.2494738924762
21
3.2
31
0
0
LINE
8
0
62
0
10
90.2494738924762
20
116.632
30
0
11
90.2494738924762
21
113.432
31
0
0
LINE
8
0
62
0
10
96.695864884796
20
0
30
0
11
96.695864884796
21
6.4
31
0
0
LINE
8
0
62
0
10
96.695864884796
20
116.632
30
0
11
96.695864884796
21
110.232
31
0
0
TEXT
8
0
62
0
10
96.695864884796
20
-12
30
0
40
8
1
1.5
50
0
0
LINE
8
0
62
0
10
103.142255877116
20
0
30
0
11
103.142255877116
21
3.2
31
0
0
LINE
8
0
62
0
10
103.142255877116
20
116.632
30
0
11
103.142255877116
21
113.432
31
0
0
LINE
8
0
62
0
10
109.588646869435
20
0
30
0
11
109.588646869435
21
3.2
31
0
0
LINE
8
0
62
0
10
109.588646869435
20
116.632
30
0
11
109.588646869435
21
113.432
31
0
0
LINE
8
0
62
0
10
116.035037861755
20
0
30
0
11
116.035037861755
21
3.2
31
0
0
LINE
8
0
62
0
10
116.035037861755
20
116.632
30
0
11
116.035037861755
21
113.432
31
0
0
LINE
8
0
62
0
10
122.481428854075
20
0
30
0
11
122.481428854075
21
3.2
31
0
0
LINE
8
0
62
0
10
122.481428854075
20
116.632
30
0
11
122.481428854075
21
113.432
31
0
0
LINE
8
0
62
0
10
128.927819846395
20
0
30
0
11
128.927819846395
21
6.4
31
0
0
LINE
8
0
62
0
10
128.927819846395
20
116.632
30
0
11
128.927819846395
21
110.232
31
0
0
TEXT
8
0
62
0
10
128.927819846395
20
-12
30
0
40
8
1
2
50
0
0
LINE
8
0
62
0
10
135.374210838714
20
0
30
0
11
135.374210838714
21
3.2
31
0
0
LINE
8
0
62
0
10
135.374210838714
20
116.632
30
0
11
135.374210838714
21
113.432
31
0
0
LINE
8
0
62
0
10
141.820601831034
20
0
30
0
11
141.820601831034
21
3.2
31
0
0
LINE
8
0
62
0
10
141.820601831034
20
116.632
30
0
11
141.820601831034
21
113.432
31
0
0
LINE
8
0
62
0
10
148.266992823354
20
0
30
0
11
148.266992823354
21
3.2
31
0
0
LINE
8
0
62
0
10
148.266992823354
20
116.632
30
0
11
148.266992823354
21
113.432
31
0
0
LINE
8
0
62
0
10
154.713383815674
20
0
30
0
11
154.713383815674
21
3.2
31
0
0
LINE
8
0
62
0
10
154.713383815674
20
116.632
30
0
11
154.713383815674
21
113.432
31
0
0
LINE
8
0
62
0
10
161.159774807993
20
0
30
0
11
161.159774807993
21
6.4
31
0
0
LINE
8
0
62
0
10
161.159774807993
20
116.632
30
0
11
161.159774807993
21
110.232
31
0
0
TEXT
8
0
62
0
10
161.159774807993
20
-12
30
0
40
8
1
2.5
50
0
0
LINE
8
0
62
0
10
167.606165800313
20
0
30
0
11
167.606165800313
21
3.2
31
0
0
LINE
8
0
62
0
10
167.606165800313
20
116.632
30
0
11
167.606165800313
21
113.432
31
0
0
LINE
8
0
62
0
10
174.052556792633
20
0
30
0
11
174.052556792633
21
3.2
31
0
0
LINE
8
0
62
0
10
174.052556792633
20
116.632
30
0
11
174.052556792633
21
113.432
31
0
0
TEXT
8
0
62
0
10
-4
20
-4
30
0
40
8
1
0
50
0
0
LINE
8
0
62
0
10
0
20
3.88773333333333
30
0
11
3.2
21
3.88773333333333
31
0
0
LINE
8
0
62
0
10
179.2
20
3.88773333333333
30
0
11
176
21
3.88773333333333
31
0
0
LINE
8
0
62
0
10
0
20
7.77546666666667
30
0
11
3.2
21
7.77546666666667
31
0
0
LINE
8
0
62
0
10
179.2
20
7.77546666666667
30
0
11
176
21
7.77546666666667
31
0
0
LINE
8
0
62
0
10
0
20
11.6632
30
0
11
3.2
21
11.6632
31
0
0
LINE
8
0
62
0
10
179.2
20
11.6632
30
0
11
176
21
11.6632
31
0
0
LINE
8
0
62
0
10
0
20
15.5509333333333
30
0
11
3.2
21
15.5509333333333
31
0
0
LINE
8
0
62
0
10
179.2
20
15.5509333333333
30
0
11
176
21
15.5509333333333
31
0
0
LINE
8
0
62
0
10
0
20
19.4386666666667
30
0
11
6.4
21
19.4386666666667
31
0
0
LINE
8
0
62
0
10
179.2
20
19.4386666666667
30
0
11
172.8
21
19.4386666666667
31
0
0
TEXT
8
0
62
0
10
-4
20
15.4386666666667
30
0
40
8
1
10
50
0
0
LINE
8
0
62
0
10
0
20
23.3264
30
0
11
3.2
21
23.3264
31
0
0
LINE
8
0
62
0
10
179.2
20
23.3264
30
0
11
176
21
23.3264
31
0
0
LINE
8
0
62
0
10
0
20
27.2141333333333
30
0
11
3.2
21
27.2141333333333
31
0
0
LINE
8
0
62
0
10
179.2
20
27.2141333333333
30
0
11
176
21
27.2141333333333
31
0
0
LINE
8
0
62
0
10
0
20
31.1018666666667
30
0
11
3.2
21
31.1018666666667
31
0
0
LINE
8
0
62
0
10
179.2
20
31.1018666666667
30
0
11
176
21
31.1018666666667
31
0
0
LINE
8
0
62
0
10
0
20
34.9896
30
0
11
3.2
21
34.9896
31
0
0
LINE
8
0
62
0
10
179.2
20
34.9896
30
0
11
176
21
34.9896
31
0
0
LINE
8
0
62
0
10
0
20
38.8773333333333
30
0
11
6.4
21
38.8773333333333
31
0
0
LINE
8
0
62
0
10
179.2
20
38.8773333333333
30
0
11
172.8
21
38.8773333333333
31
0
0
TEXT
8
0
62
0
10
-4
20
34.8773333333333
30
0
40
8
1
20
50
0
0
LINE
8
0
62
0
10
0
20
42.7650666666667
30
0
11
3.2
21
42.7650666666667
31
0
0
LINE
8
0
62
0
10
179.2
20
42.7650666666667
30
0
11
176
21
42.7650666666667
31
0
0
LINE
8
0
62
0
10
0
20
46.6528
30
0
11
3.2
21
46.6528
31
0
0
LINE
8
0
62
0
10
179.2
20
46.6528
30
0
11
176
21
46.6528
31
0
0
LINE
8
0
62
0
10
0
20
50.5405333333333
30
0
11
3.2
21
50.5405333333333
31
0
0
LINE
8
0
62
0
10
179.2
20
50.5405333333333
30
0
11
176
21
50.5405333333333
31
0
0
LINE
8
0
62
0
10
0
20
54.4282666666666
30
0
11
3.2
21
54.4282666666666
31
0
0
LINE
8
0
62
0
10
179.2
20
54.4282666666666
30
0
11
176
21
54.4282666666666
31
0
0
LINE
8
0
62
0
10
0
20
58.316
30
0
11
6.4
21
58.316
31
0
0
LINE
8
0
62
0
10
179.2
20
58.316
30
0
11
172.8
21
58.316
31
0
0
TEXT
8
0
62
0
10
-4
20
54.316
30
0
40
8
1
30
50
0
0
LINE
8
0
62
0
10
0
20
62.2037333333333
30
0
11
3.2
21
62.2037333333333
31
0
0
LINE
8
0
62
0
10
179.2
20
62.2037333333333
30
0
11
176
21
62.2037333333333
31
0
0
LINE
8
0
62
0
10
0
20
66.0914666666666
30
0
11
3.2
21
66.0914666666666
31
0
0
LINE
8
0
62
0
10
179.2
20
66.0914666666666
30
0
11
176
21
66.0914666666666
31
0
0
LINE
8
0
62
0
10
0
20
69.9792
30
0
11
3.2
21
69.9792
31
0
0
LINE
8
0
62
0
10
179.2
20
69.9792
30
0
11
176
21
69.9792
31
0
0
LINE
8
0
62
0
10
0
20
73.8669333333333
30
0
11
3.2
21
73.8669333333333
31
0
0
LINE
8
0
62
0
10
179.2
20
73.8669333333333
30
0
11
176
21
73.8669333333333
31
0
0
LINE
8
0
62
0
10
0
20
77.7546666666666
30
0
11
6.4
21
77.7546666666666
31
0
0
LINE
8
0
62
0
10
179.2
20
77.7546666666666
30
0
11
172.8
21
77.7546666666666
31
0
0
TEXT
8
0
62
0
10
-4
20
73.7546666666666
30
0
40
8
1
40
50
0
0
LINE
8
0
62
0
10
0
20
81.6424
30
0
11
3.2
21
81.6424
31
0
0
LINE
8
0
62
0
10
179.2
20
81.6424
30
0
11
176
21
81.6424
31
0
0
LINE
8
0
62
0
10
0
20
85.5301333333333
30
0
11
3.2
21
85.5301333333333
31
0
0
LINE
8
0
62
0
10
179.2
20
85.5301333333333
30
0
11
176
21
85.5301333333333
31
0
0
LINE
8
0
62
0
10
0
20
89.4178666666666
30
0
11
3.2
21
89.4178666666666
31
0
0
LINE
8
0
62
0
10
179.2
20
89.4178666666666
30
0
11
176
21
89.4178666666666
31
0
0
LINE
8
0
62
0
10
0
20
93.3055999999999
30
0
11
3.2
21
93.3055999999999
31
0
0
LINE
8
0
62
0
10
179.2
20
93.3055999999999
30
0
11
176
21
93.3055999999999
31
0
0
LINE
8
0
62
0
10
0
20
97.1933333333333
30
0
11
6.4
21
97.1933333333333
31
0
0
LINE
8
0
62
0
10
179.2
20
97.1933333333333
30
0
11
172.8
21
97.1933333333333
31
0
0
TEXT
8
0
62
0
10
-4
20
93.1933333333333
30
0
40
8
1
50
50
0
0
LINE
8
0
62
0
10
0
20
101.081066666667
30
0
11
3.2
21
101.081066666667
31
0
0
LINE
8
0
62
0
10
179.2
20
101.081066666667
30
0
11
176
21
101.081066666667
31
0
0
LINE
8
0
62
0
10
0
20
104.9688
30
0
11
3.2
21
104.9688
31
0
0
LINE
8
0
62
0
10
179.2
20
104.9688
30
0
11
176
21
104.9688
31
0
0
LINE
8
0
62
0
10
0
20
108.856533333333
30
0
11
3.2
21
108.856533333333
31
0
0
LINE
8
0
62
0
10
179.2
20
108.856533333333
30
0
11
176
21
108.856533333333
31
0
0
LINE
8
0
62
0
10
0
20
112.744266666667
30
0
11
3.2
21
112.744266666667
31
0
0
LINE
8
0
62
0
10
179.2
20
112.744266666667
30
0
11
176
21
112.744266666667
31
0
0
TEXT
8
0
62
0
10
-4
20
112.632
30
0
40
8
1
60
50
0
0
TEXT
8
0
62
0
10
89.6
20
-32
30
0
40
10
1
R (kpc)
50
0
0
TEXT
8
0
62
0
10
-24
20
58.316
30
0
40
10
1
V (km/s)
50
90
0
TEXT
8
0
62
0
10
72.6
20
131.632
30
0
40
11
1
V vs. R
50
0
0
POLYLINE
8
0
62
5
70
0
10
0
20
0
30
0
0
VERTEX
8
0
10
6.44639099231973
20
3.08548629630938
30
0
0
VERTEX
8
0
10
7.0910300915517
20
3.41303286697753
30
0
0
VERTEX
8
0
10
7.73566919078367
20
3.74057943764569
30
0
0
VERTEX
8
0
10
8.38030829001565
20
4.06812600831385
30
0
0
VERTEX
8
0
10
9.02494738924762
20
4.395672578982
30
0
0
VERTEX
8
0
10
9.6695864884796
20
4.73957854333264
30
0
0
VERTEX
8
0
10
10.3142255877116
20
5.08044001524748
30
0
0
VERTEX
8
0
10
10.9588646869435
20
5.42130148716232
30
0
0
VERTEX
8
0
10
11.6035037861755
20
5.76216295907716
30
0
0
VERTEX
8
0
10
12.2481428854075
20
6.08492129470841
30
0
0
VERTEX
8
0
10
12.8927819846395
20
6.40980488512724
30
0
0
VERTEX
8
0
10
13.5374210838714
20
6.73468847554607
30
0
0
VERTEX
8
0
10
14.1820601831034
20
7.05957206596489
30
0
0
VERTEX
8
0
10
14.8266992823354
20
7.35683065613674
30
0
0
VERTEX
8
0
10
15.4713383815674
20
7.65508444406222
30
0
0
VERTEX
8
0
10
16.1159774807993
20
7.9533382319877
30
0
0
VERTEX
8
0
10
16.7606165800313
20
8.25159201991318
30
0
0
VERTEX
8
0
10
17.4052556792633
20
8.52225989048185
30
0
0
VERTEX
8
0
10
18.0498947784953
20
8.79122089566465
30
0
0
VERTEX
8
0
10
18.6945338777272
20
9.06018190084744
30
0
0
VERTEX
8
0
10
19.3391729769592
20
9.32914290603024
30
0
0
VERTEX
8
0
10
19.9838120761912
20
9.59810391121304
30
0
0
VERTEX
8
0
10
20.6284511754231
20
9.86706491639584
30
0
0
VERTEX
8
0
10
21.2730902746551
20
10.1360259215786
30
0
0
VERTEX
8
0
10
21.9177293738871
20
10.4049869267614
30
0
0
VERTEX
8
0
10
22.5623684731191
20
10.6739479319442
30
0
0
VERTEX
8
0
10
23.207007572351
20
10.942908937127
30
0
0
VERTEX
8
0
10
23.851646671583
20
11.2118699423098
30
0
0
VERTEX
8
0
10
24.496285770815
20
11.4808309474926
30
0
0
VERTEX
8
0
10
25.140924870047
20
11.7707168638887
30
0
0
VERTEX
8
0
10
25.7855639692789
20
12.0716336320635
30
0
0
VERTEX
8
0
10
26.4302030685109
20
12.3725504002383
30
0
0
VERTEX
8
0
10
27.0748421677429
20
12.6734671684132
30
0
0
VERTEX
8
0
10
27.7194812669749
20
12.9848073093044
30
0
0
VERTEX
8
0
10
28.3641203662068
20
13.3043649392246
30
0
0
VERTEX
8
0
10
29.0087594654388
20
13.6239225691448
30
0
0
VERTEX
8
0
10
29.6533985646708
20
13.9434801990649
30
0
0
VERTEX
8
0
10
30.2980376639027
20
14.2630378289851
30
0
0
VERTEX
8
0
10
30.9426767631347
20
14.5903901471825
30
0
0
VERTEX
8
0
10
31.5873158623667
20
14.9152737376013
30
0
0
VERTEX
8
0
10
32.2319549615987
20
15.2401573280202
30
0
0
VERTEX
8
0
10
32.8765940608306
20
15.565040918439
30
0
0
VERTEX
8
0
10
33.5212331600626
20
15.8753538897268
30
0
0
VERTEX
8
0
10
34.1658722592946
20
16.1895855591483
30
0
0
VERTEX
8
0
10
34.8105113585266
20
16.5038172285698
30
0
0
VERTEX
8
0
10
35.4551504577585
20
16.8180488979913
30
0
0
VERTEX
8
0
10
36.0997895569905
20
16.9527183997897
30
0
0
VERTEX
8
0
10
36.7444286562225
20
17.1258121159965
30
0
0
VERTEX
8
0
10
37.3890677554545
20
17.2989058322032
30
0
0
VERTEX
8
0
10
38.0337068546864
20
17.47199954841
30
0
0
VERTEX
8
0
10
38.6783459539184
20
17.5448284303463
30
0
0
VERTEX
8
0
10
39.3229850531504
20
17.6327067785743
30
0
0
VERTEX
8
0
10
39.9676241523823
20
17.7205851268023
30
0
0
VERTEX
8
0
10
40.6122632516143
20
17.8084634750304
30
0
0
VERTEX
8
0
10
41.2569023508463
20
17.9107347568337
30
0
0
VERTEX
8
0
10
41.9015414500783
20
18.0119280063084
30
0
0
VERTEX
8
0
10
42.5461805493102
20
18.1131212557831
30
0
0
VERTEX
8
0
10
43.1908196485422
20
18.2143145052579
30
0
0
VERTEX
8
0
10
43.8354587477742
20
18.3076360626551
30
0
0
VERTEX
8
0
10
44.4800978470062
20
18.4008403713818
30
0
0
VERTEX
8
0
10
45.1247369462381
20
18.4940446801085
30
0
0
VERTEX
8
0
10
45.7693760454701
20
18.5872489888352
30
0
0
VERTEX
8
0
10
46.4140151447021
20
18.680453297562
30
0
0
VERTEX
8
0
10
47.0586542439341
20
18.7736576062887
30
0
0
VERTEX
8
0
10
47.703293343166
20
18.8668619150154
30
0
0
VERTEX
8
0
10
48.347932442398
20
18.9600662237421
30
0
0
VERTEX
8
0
10
48.99257154163
20
19.0553850511162
30
0
0
VERTEX
8
0
10
49.637210640862
20
19.1512523400922
30
0
0
VERTEX
8
0
10
50.2818497400939
20
19.2471196290683
30
0
0
VERTEX
8
0
10
50.9264888393259
20
19.3429869180443
30
0
0
VERTEX
8
0
10
51.5711279385579
20
19.4369943777289
30
0
0
VERTEX
8
0
10
52.2157670377898
20
19.5301986864556
30
0
0
VERTEX
8
0
10
52.8604061370218
20
19.6234029951823
30
0
0
VERTEX
8
0
10
53.5050452362538
20
19.716607303909
30
0
0
VERTEX
8
0
10
54.1496843354858
20
19.8130218925069
30
0
0
VERTEX
8
0
10
54.7943234347177
20
19.9115521617323
30
0
0
VERTEX
8
0
10
55.4389625339497
20
20.0100824309576
30
0
0
VERTEX
8
0
10
56.0836016331817
20
20.108612700183
30
0
0
VERTEX
8
0
10
56.7282407324137
20
20.1922880130321
30
0
0
VERTEX
8
0
10
57.3728798316456
20
20.2615254995148
30
0
0
VERTEX
8
0
10
58.0175189308776
20
20.3307629859975
30
0
0
VERTEX
8
0
10
58.6621580301096
20
20.4000004724802
30
0
0
VERTEX
8
0
10
59.3067971293416
20
20.4692379589629
30
0
0
VERTEX
8
0
10
59.9514362285735
20
20.5384754454456
30
0
0
VERTEX
8
0
10
60.5960753278055
20
20.6077129319283
30
0
0
VERTEX
8
0
10
61.2407144270375
20
20.676950418411
30
0
0
VERTEX
8
0
10
61.8853535262694
20
20.7461879048937
30
0
0
VERTEX
8
0
10
62.5299926255014
20
20.825937547728
30
0
0
VERTEX
8
0
10
63.1746317247334
20
20.9031639749587
30
0
0
VERTEX
8
0
10
63.8192708239654
20
20.9803904021894
30
0
0
VERTEX
8
0
10
64.4639099231973
20
21.0576168294201
30
0
0
VERTEX
8
0
10
65.1085490224293
20
21.1283445311282
30
0
0
VERTEX
8
0
10
65.7531881216613
20
21.2002449978602
30
0
0
VERTEX
8
0
10
66.3978272208933
20
21.2721454645922
30
0
0
VERTEX
8
0
10
67.0424663201252
20
21.3440459313243
30
0
0
VERTEX
8
0
10
67.6871054193572
20
21.4189410714617
30
0
0
VERTEX
8
0
10
68.3317445185892
20
21.4935045184431
30
0
0
VERTEX
8
0
10
68.9763836178212
20
21.5680679654245
30
0
0
VERTEX
8
0
10
69.6210227170531
20
21.6426314124058
30
0
0
VERTEX
8
0
10
70.2656618162851
20
21.7254148115357
30
0
0
VERTEX
8
0
10
70.9103009155171
20
21.8079671992651
30
0
0
VERTEX
8
0
10
71.5549400147491
20
21.8905195869945
30
0
0
VERTEX
8
0
10
72.199579113981
20
21.9730719747239
30
0
0
VERTEX
8
0
10
72.844218213213
20
22.0556243624532
30
0
0
VERTEX
8
0
10
73.488857312445
20
22.1381767501826
30
0
0
VERTEX
8
0
10
74.1334964116769
20
22.220729137912
30
0
0
VERTEX
8
0
10
74.7781355109089
20
22.3032815256414
30
0
0
VERTEX
8
0
10
75.4227746101409
20
22.3769114920199
30
0
0
VERTEX
8
0
10
76.0674137093729
20
22.4488119587519
30
0
0
VERTEX
8
0
10
76.7120528086048
20
22.5207124254839
30
0
0
VERTEX
8
0
10
77.3566919078368
20
22.592612892216
30
0
0
VERTEX
8
0
10
78.0013310070688
20
22.6566096950207
30
0
0
VERTEX
8
0
10
78.6459701063008
20
22.7178582407554
30
0
0
VERTEX
8
0
10
79.2906092055327
20
22.7791067864901
30
0
0
VERTEX
8
0
10
79.9352483047647
20
22.8403553322248
30
0
0
VERTEX
8
0
10
80.5798874039967
20
22.8998826513336
30
0
0
VERTEX
8
0
10
81.2245265032286
20
22.958468216819
30
0
0
VERTEX
8
0
10
81.8691656024606
20
23.0170537823043
30
0
0
VERTEX
8
0
10
82.5138047016926
20
23.0756393477897
30
0
0
VERTEX
8
0
10
83.1584438009246
20
23.1342249132751
30
0
0
VERTEX
8
0
10
83.8030829001565
20
23.1928104787604
30
0
0
VERTEX
8
0
10
84.4477219993885
20
23.2513960442458
30
0
0
VERTEX
8
0
10
85.0923610986205
20
23.3099816097311
30
0
0
VERTEX
8
0
10
85.7370001978525
20
23.3685671752165
30
0
0
VERTEX
8
0
10
86.3816392970844
20
23.4271527407019
30
0
0
VERTEX
8
0
10
87.0262783963164
20
23.4857383061872
30
0
0
VERTEX
8
0
10
87.6709174955484
20
23.5443238716726
30
0
0
VERTEX
8
0
10
88.3155565947804
20
23.6029094371579
30
0
0
VERTEX
8
0
10
88.9601956940123
20
23.6071929205299
30
0
0
VERTEX
8
0
10
89.6048347932443
20
23.6258337822752
30
0
0
VERTEX
8
0
10
90.2494738924763
20
23.6444746440206
30
0
0
VERTEX
8
0
10
90.8941129917083
20
23.6631155057659
30
0
0
VERTEX
8
0
10
91.5387520909402
20
23.7288726598346
30
0
0
VERTEX
8
0
10
92.1833911901722
20
23.7847952450706
30
0
0
VERTEX
8
0
10
92.8280302894042
20
23.8407178303066
30
0
0
VERTEX
8
0
10
93.4726693886361
20
23.8966404155426
30
0
0
VERTEX
8
0
10
94.1173084878681
20
23.8996800791506
30
0
0
VERTEX
8
0
10
94.7619475871001
20
23.910332000148
30
0
0
VERTEX
8
0
10
95.4065866863321
20
23.9209839211453
30
0
0
VERTEX
8
0
10
96.051225785564
20
23.9316358421426
30
0
0
VERTEX
8
0
10
96.695864884796
20
23.9708484705387
30
0
0
VERTEX
8
0
10
97.340503984028
20
24.0081301940293
30
0
0
VERTEX
8
0
10
97.98514308326
20
24.04541191752
30
0
0
VERTEX
8
0
10
98.6297821824919
20
24.0826936410107
30
0
0
VERTEX
8
0
10
99.2744212817239
20
24.0393325415983
30
0
0
VERTEX
8
0
10
99.9190603809559
20
23.9940618773596
30
0
0
VERTEX
8
0
10
100.563699480188
20
23.9487912131209
30
0
0
VERTEX
8
0
10
101.20833857942
20
23.9035205488822
30
0
0
VERTEX
8
0
10
101.852977678652
20
23.872330036812
30
0
0
VERTEX
8
0
10
102.497616777884
20
23.8430372540693
30
0
0
VERTEX
8
0
10
103.142255877116
20
23.8137444713266
30
0
0
VERTEX
8
0
10
103.786894976348
20
23.7844516885839
30
0
0
VERTEX
8
0
10
104.43153407558
20
23.7551589058413
30
0
0
VERTEX
8
0
10
105.076173174812
20
23.7258661230986
30
0
0
VERTEX
8
0
10
105.720812274044
20
23.6965733403559
30
0
0
VERTEX
8
0
10
106.365451373276
20
23.6672805576132
30
0
0
VERTEX
8
0
10
107.010090472508
20
23.6306385216054
30
0
0
VERTEX
8
0
10
107.65472957174
20
23.5906938178654
30
0
0
VERTEX
8
0
10
108.299368670972
20
23.5507491141254
30
0
0
VERTEX
8
0
10
108.944007770204
20
23.5108044103854
30
0
0
VERTEX
8
0
10
109.588646869435
20
23.4835206983284
30
0
0
VERTEX
8
0
10
110.233285968667
20
23.464879836583
30
0
0
VERTEX
8
0
10
110.877925067899
20
23.4462389748377
30
0
0
VERTEX
8
0
10
111.522564167131
20
23.4275981130924
30
0
0
VERTEX
8
0
10
112.167203266363
20
23.408957251347
30
0
0
VERTEX
8
0
10
112.811842365595
20
23.3743527301864
30
0
0
VERTEX
8
0
10
113.456481464827
20
23.3450599474437
30
0
0
VERTEX
8
0
10
114.101120564059
20
23.315767164701
30
0
0
VERTEX
8
0
10
114.745759663291
20
23.2864743819583
30
0
0
VERTEX
8
0
10
115.390398762523
20
23.2571815992157
30
0
0
VERTEX
8
0
10
116.035037861755
20
23.227888816473
30
0
0
VERTEX
8
0
10
116.679676960987
20
23.1985960337303
30
0
0
VERTEX
8
0
10
117.324316060219
20
23.1693032509876
30
0
0
VERTEX
8
0
10
117.968955159451
20
23.1608996850971
30
0
0
VERTEX
8
0
10
118.613594258683
20
23.1475847838504
30
0
0
VERTEX
8
0
10
119.258233357915
20
23.1342698826037
30
0
0
VERTEX
8
0
10
119.902872457147
20
23.120954981357
30
0
0
VERTEX
8
0
10
120.547511556379
20
23.0689179186769
30
0
0
VERTEX
8
0
10
121.192150655611
20
23.0236472544382
30
0
0
VERTEX
8
0
10
121.836789754843
20
22.9783765901995
30
0
0
VERTEX
8
0
10
122.481428854075
20
22.9331059259608
30
0
0
VERTEX
8
0
10
123.126067953307
20
22.9294454657453
30
0
0
VERTEX
8
0
10
123.770707052539
20
22.9214565249973
30
0
0
VERTEX
8
0
10
124.415346151771
20
22.9134675842493
30
0
0
VERTEX
8
0
10
125.059985251003
20
22.9054786435013
30
0
0
VERTEX
8
0
10
125.704624350235
20
22.854010213564
30
0
0
VERTEX
8
0
10
126.349263449467
20
22.8034135888267
30
0
0
VERTEX
8
0
10
126.993902548699
20
22.7528169640893
30
0
0
VERTEX
8
0
10
127.638541647931
20
22.702220339352
30
0
0
VERTEX
8
0
10
128.283180747163
20
22.671325944362
30
0
0
VERTEX
8
0
10
128.927819846395
20
22.6420331616194
30
0
0
VERTEX
8
0
10
129.572458945627
20
22.6127403788767
30
0
0
VERTEX
8
0
10
130.217098044859
20
22.583447596134
30
0
0
VERTEX
8
0
10
130.861737144091
20
22.5541548133913
30
0
0
VERTEX
8
0
10
131.506376243323
20
22.5248620306486
30
0
0
VERTEX
8
0
10
132.151015342554
20
22.495569247906
30
0
0
VERTEX
8
0
10
132.795654441786
20
22.4662764651633
30
0
0
VERTEX
8
0
10
133.440293541018
20
22.4252632823808
30
0
0
VERTEX
8
0
10
134.08493264025
20
22.3799926181421
30
0
0
VERTEX
8
0
10
134.729571739482
20
22.3347219539034
30
0
0
VERTEX
8
0
10
135.374210838714
20
22.2894512896648
30
0
0
VERTEX
8
0
10
136.018849937946
20
22.2594690212827
30
0
0
VERTEX
8
0
10
136.663489037178
20
22.238165179288
30
0
0
VERTEX
8
0
10
137.30812813641
20
22.2168613372933
30
0
0
VERTEX
8
0
10
137.952767235642
20
22.1955574952986
30
0
0
VERTEX
8
0
10
138.597406334874
20
22.1583694190608
30
0
0
VERTEX
8
0
10
139.242045434106
20
22.1077727943234
30
0
0
VERTEX
8
0
10
139.886684533338
20
22.057176169586
30
0
0
VERTEX
8
0
10
140.53132363257
20
22.0065795448487
30
0
0
VERTEX
8
0
10
141.175962731802
20
21.9559829201113
30
0
0
VERTEX
8
0
10
141.820601831034
20
21.9439094172567
30
0
0
VERTEX
8
0
10
142.465240930266
20
21.9199425950127
30
0
0
VERTEX
8
0
10
143.109880029498
20
21.8959757727687
30
0
0
VERTEX
8
0
10
143.75451912873
20
21.8720089505247
30
0
0
VERTEX
8
0
10
144.399158227962
20
21.8336516369512
30
0
0
VERTEX
8
0
10
145.043797327194
20
21.7990328937098
30
0
0
VERTEX
8
0
10
145.688436426426
20
21.7644141504685
30
0
0
VERTEX
8
0
10
146.333075525658
20
21.7297954072271
30
0
0
VERTEX
8
0
10
146.97771462489
20
21.6818049300798
30
0
0
VERTEX
8
0
10
147.622353724121
20
21.6365342658412
30
0
0
VERTEX
8
0
10
148.266992823353
20
21.5912636016025
30
0
0
VERTEX
8
0
10
148.911631922585
20
21.5459929373638
30
0
0
VERTEX
8
0
10
149.556271021817
20
21.5346929584515
30
0
0
VERTEX
8
0
10
150.200910121049
20
21.5187150769555
30
0
0
VERTEX
8
0
10
150.845549220281
20
21.5027371954595
30
0
0
VERTEX
8
0
10
151.490188319513
20
21.4867593139635
30
0
0
VERTEX
8
0
10
152.134827418745
20
21.4282781109972
30
0
0
VERTEX
8
0
10
152.779466517977
20
21.3723555257612
30
0
0
VERTEX
8
0
10
153.424105617209
20
21.3164329405252
30
0
0
VERTEX
8
0
10
154.068744716441
20
21.2605103552891
30
0
0
VERTEX
8
0
10
154.713383815673
20
21.2587439436376
30
0
0
VERTEX
8
0
10
155.358022914905
20
21.2587439436376
30
0
0
SEQEND
8
0
0
POLYLINE
8
0
62
6
70
0
10
0
20
0
30
0
0
VERTEX
8
0
10
27.6450903229712
20
0
30
0
0
VERTEX
8
0
10
27.7194812669749
20
0.0366885291308377
30
0
0
VERTEX
8
0
10
28.3641203662068
20
0.372224040547003
30
0
0
VERTEX
8
0
10
29.0087594654388
20
0.707759551963169
30
0
0
VERTEX
8
0
10
29.6533985646708
20
1.04329506337933
30
0
0
VERTEX
8
0
10
30.2980376639027
20
1.3788305747955
30
0
0
VERTEX
8
0
10
30.9426767631347
20
1.71436608621167
30
0
0
VERTEX
8
0
10
31.5873158623667
20
2.04990159762783
30
0
0
VERTEX
8
0
10
32.2319549615987
20
2.385437109044
30
0
0
VERTEX
8
0
10
32.8765940608306
20
2.72097262046017
30
0
0
VERTEX
8
0
10
33.5212331600626
20
3.04193751274534
30
0
0
VERTEX
8
0
10
34.1658722592946
20
3.36682110316416
30
0
0
VERTEX
8
0
10
34.8105113585266
20
3.69170469358299
30
0
0
VERTEX
8
0
10
35.4551504577585
20
4.01658828400181
30
0
0
VERTEX
8
0
10
36.0997895569905
20
3.99928736630878
30
0
0
VERTEX
8
0
10
36.7444286562225
20
4.05520995154482
30
0
0
VERTEX
8
0
10
37.3890677554545
20
4.11113253678085
30
0
0
VERTEX
8
0
10
38.0337068546864
20
4.16705512201688
30
0
0
VERTEX
8
0
10
38.6783459539184
20
4.0788470079891
30
0
0
VERTEX
8
0
10
39.3229850531504
20
4.01227250175573
30
0
0
VERTEX
8
0
10
39.9676241523823
20
3.94569799552237
30
0
0
VERTEX
8
0
10
40.6122632516143
20
3.879123489289
30
0
0
VERTEX
8
0
10
41.2569023508463
20
3.81542756977068
30
0
0
VERTEX
8
0
10
41.9015414500783
20
3.75151604378665
30
0
0
VERTEX
8
0
10
42.5461805493102
20
3.68760451780261
30
0
0
VERTEX
8
0
10
43.1908196485422
20
3.62369299181857
30
0
0
VERTEX
8
0
10
43.8354587477742
20
3.57027705527117
30
0
0
VERTEX
8
0
10
44.4800978470062
20
3.51701745028447
30
0
0
VERTEX
8
0
10
45.1247369462381
20
3.46375784529778
30
0
0
VERTEX
8
0
10
45.7693760454701
20
3.41049824031109
30
0
0
VERTEX
8
0
10
46.4140151447021
20
3.60363626766331
30
0
0
VERTEX
8
0
10
47.0586542439341
20
3.82732660860742
30
0
0
VERTEX
8
0
10
47.703293343166
20
4.05101694955153
30
0
0
VERTEX
8
0
10
48.347932442398
20
4.27470729049564
30
0
0
VERTEX
8
0
10
48.99257154163
20
4.59037919259996
30
0
0
VERTEX
8
0
10
49.637210640862
20
4.92990917439013
30
0
0
VERTEX
8
0
10
50.2818497400939
20
5.26943915618031
30
0
0
VERTEX
8
0
10
50.9264888393259
20
5.60896913797048
30
0
0
VERTEX
8
0
10
51.5711279385579
20
5.93919997330333
30
0
0
VERTEX
8
0
10
52.2157670377898
20
6.26541505384682
30
0
0
VERTEX
8
0
10
52.8604061370218
20
6.59163013439031
30
0
0
VERTEX
8
0
10
53.5050452362538
20
6.9178452149338
30
0
0
VERTEX
8
0
10
54.1496843354858
20
7.2577039849296
30
0
0
VERTEX
8
0
10
54.7943234347177
20
7.60655439759244
30
0
0
VERTEX
8
0
10
55.4389625339497
20
7.95540481025528
30
0
0
VERTEX
8
0
10
56.0836016331817
20
8.30425522291812
30
0
0
VERTEX
8
0
10
56.7282407324137
20
8.69496960355065
30
0
0
VERTEX
8
0
10
57.3728798316456
20
9.12637240394286
30
0
0
VERTEX
8
0
10
58.0175189308776
20
9.55777520433507
30
0
0
VERTEX
8
0
10
58.6621580301096
20
9.98917800472728
30
0
0
VERTEX
8
0
10
59.3067971293416
20
10.4205808051195
30
0
0
VERTEX
8
0
10
59.9514362285735
20
10.9008472446621
30
0
0
VERTEX
8
0
10
60.5960753278055
20
11.3668687882956
30
0
0
VERTEX
8
0
10
61.2407144270375
20
11.8328903319292
30
0
0
VERTEX
8
0
10
61.8853535262694
20
12.2989118755628
30
0
0
VERTEX
8
0
10
62.5299926255014
20
12.7649334191963
30
0
0
VERTEX
8
0
10
63.1746317247334
20
13.2309549628299
30
0
0
VERTEX
8
0
10
63.8192708239654
20
13.6969765064634
30
0
0
VERTEX
8
0
10
64.4639099231973
20
14.162998050097
30
0
0
VERTEX
8
0
10
65.1085490224293
20
14.6322689564919
30
0
0
VERTEX
8
0
10
65.7531881216613
20
15.1009534803748
30
0
0
VERTEX
8
0
10
66.3978272208933
20
15.5696380042577
30
0
0
VERTEX
8
0
10
67.0424663201252
20
16.0383225281406
30
0
0
VERTEX
8
0
10
67.6871054193572
20
16.5279697658613
30
0
0
VERTEX
8
0
10
68.3317445185892
20
17.0152951514896
30
0
0
VERTEX
8
0
10
68.9763836178212
20
17.5026205371178
30
0
0
VERTEX
8
0
10
69.6210227170531
20
17.9899459227461
30
0
0
VERTEX
8
0
10
70.2656618162851
20
18.4800112924238
30
0
0
VERTEX
8
0
10
70.9103009155171
20
18.9699996583014
30
0
0
VERTEX
8
0
10
71.5549400147491
20
19.459988024179
30
0
0
VERTEX
8
0
10
72.199579113981
20
19.9499763900565
30
0
0
VERTEX
8
0
10
72.844218213213
20
20.4374794612405
30
0
0
VERTEX
8
0
10
73.488857312445
20
20.9248048468687
30
0
0
VERTEX
8
0
10
74.1334964116769
20
21.412130232497
30
0
0
VERTEX
8
0
10
74.7781355109089
20
21.8994556181252
30
0
0
VERTEX
8
0
10
75.4227746101409
20
22.3733973717271
30
0
0
VERTEX
8
0
10
76.0674137093729
20
22.8447448758594
30
0
0
VERTEX
8
0
10
76.7120528086048
20
23.3160923799916
30
0
0
VERTEX
8
0
10
77.3566919078368
20
23.7874398841238
30
0
0
VERTEX
8
0
10
78.0013310070688
20
24.1264010174742
30
0
0
VERTEX
8
0
10
78.6459701063008
20
24.419328844901
30
0
0
VERTEX
8
0
10
79.2906092055327
20
24.7122566723278
30
0
0
VERTEX
8
0
10
79.9352483047647
20
25.0051844997546
30
0
0
VERTEX
8
0
10
80.5798874039967
20
25.2912274206777
30
0
0
VERTEX
8
0
10
81.2245265032286
20
25.5735033271072
30
0
0
VERTEX
8
0
10
81.8691656024606
20
25.8557792335367
30
0
0
VERTEX
8
0
10
82.5138047016926
20
26.1380551399661
30
0
0
VERTEX
8
0
10
83.1584438009246
20
26.4232641209357
30
0
0
VERTEX
8
0
10
83.8030829001565
20
26.7108659878638
30
0
0
VERTEX
8
0
10
84.4477219993885
20
26.9984678547919
30
0
0
VERTEX
8
0
10
85.0923610986205
20
27.2860697217201
30
0
0
VERTEX
8
0
10
85.7370001978525
20
27.5736715886482
30
0
0
VERTEX
8
0
10
86.3816392970844
20
27.8341496584321
30
0
0
VERTEX
8
0
10
87.0262783963164
20
28.1031106636149
30
0
0
VERTEX
8
0
10
87.6709174955484
20
28.3720716687977
30
0
0
VERTEX
8
0
10
88.3155565947804
20
28.6410326739805
30
0
0
VERTEX
8
0
10
88.9601956940123
20
28.8303506253969
30
0
0
VERTEX
8
0
10
89.6048347932443
20
29.0407260650944
30
0
0
VERTEX
8
0
10
90.2494738924763
20
29.2511015047918
30
0
0
VERTEX
8
0
10
90.8941129917083
20
29.4614769444893
30
0
0
VERTEX
8
0
10
91.5387520909402
20
29.668486934735
30
0
0
VERTEX
8
0
10
92.1833911901722
20
29.8761993941831
30
0
0
VERTEX
8
0
10
92.8280302894042
20
30.0839118536312
30
0
0
VERTEX
8
0
10
93.4726693886361
20
30.2916243130793
30
0
0
VERTEX
8
0
10
94.1173084878681
20
30.4931152523359
30
0
0
VERTEX
8
0
10
94.7619475871001
20
30.6955017512853
30
0
0
VERTEX
8
0
10
95.4065866863321
20
30.8978882502348
30
0
0
VERTEX
8
0
10
96.051225785564
20
31.1002747491842
30
0
0
VERTEX
8
0
10
96.695864884796
20
31.294093035914
30
0
0
VERTEX
8
0
10
97.340503984028
20
31.4884905941155
30
0
0
VERTEX
8
0
10
97.98514308326
20
31.6828881523169
30
0
0
VERTEX
8
0
10
98.6297821824919
20
31.8772857105183
30
0
0
VERTEX
8
0
10
99.2744212817239
20
32.0378653107281
30
0
0
VERTEX
8
0
10
99.9190603809559
20
32.1976441256882
30
0
0
VERTEX
8
0
10
100.563699480188
20
32.3574229406483
30
0
0
VERTEX
8
0
10
101.20833857942
20
32.5172017556084
30
0
0
VERTEX
8
0
10
101.852977678652
20
32.6793272625965
30
0
0
VERTEX
8
0
10
102.497616777884
20
32.8417690578059
30
0
0
VERTEX
8
0
10
103.142255877116
20
33.0042108530153
30
0
0
VERTEX
8
0
10
103.786894976348
20
33.1666526482247
30
0
0
VERTEX
8
0
10
104.43153407558
20
33.327002440762
30
0
0
VERTEX
8
0
10
105.076173174812
20
33.4867812557221
30
0
0
VERTEX
8
0
10
105.720812274044
20
33.6465600706821
30
0
0
VERTEX
8
0
10
106.365451373276
20
33.8063388856422
30
0
0
VERTEX
8
0
10
107.010090472508
20
33.9477445674395
30
0
0
VERTEX
8
0
10
107.65472957174
20
34.0808935799062
30
0
0
VERTEX
8
0
10
108.299368670972
20
34.214042592373
30
0
0
VERTEX
8
0
10
108.944007770204
20
34.3471916048397
30
0
0
VERTEX
8
0
10
109.588646869435
20
34.4423576422573
30
0
0
VERTEX
8
0
10
110.233285968667
20
34.51159512874
30
0
0
VERTEX
8
0
10
110.877925067899
20
34.5808326152227
30
0
0
VERTEX
8
0
10
111.522564167131
20
34.6500701017054
30
0
0
VERTEX
8
0
10
112.167203266363
20
34.7193075881881
30
0
0
VERTEX
8
0
10
112.811842365595
20
34.7725814152556
30
0
0
VERTEX
8
0
10
113.456481464827
20
34.8311669807409
30
0
0
VERTEX
8
0
10
114.101120564059
20
34.8897525462263
30
0
0
VERTEX
8
0
10
114.745759663291
20
34.9483381117116
30
0
0
VERTEX
8
0
10
115.390398762523
20
35.0106599026949
30
0
0
VERTEX
8
0
10
116.035037861755
20
35.0719084484296
30
0
0
VERTEX
8
0
10
116.679676960987
20
35.1331569941643
30
0
0
VERTEX
8
0
10
117.324316060219
20
35.194405539899
30
0
0
VERTEX
8
0
10
117.968955159451
20
35.2730617663438
30
0
0
VERTEX
8
0
10
118.613594258683
20
35.3476252133252
30
0
0
VERTEX
8
0
10
119.258233357915
20
35.4221886603065
30
0
0
VERTEX
8
0
10
119.902872457147
20
35.4967521072879
30
0
0
VERTEX
8
0
10
120.547511556379
20
35.5842229414138
30
0
0
VERTEX
8
0
10
121.192150655611
20
35.6694383093925
30
0
0
VERTEX
8
0
10
121.836789754843
20
35.7546536773712
30
0
0
VERTEX
8
0
10
122.481428854075
20
35.8398690453499
30
0
0
VERTEX
8
0
10
123.126067953307
20
35.9161679410379
30
0
0
VERTEX
8
0
10
123.770707052539
20
35.9933943682687
30
0
0
VERTEX
8
0
10
124.415346151771
20
36.0706207954994
30
0
0
VERTEX
8
0
10
125.059985251003
20
36.1478472227301
30
0
0
VERTEX
8
0
10
125.704624350235
20
36.2033339053662
30
0
0
VERTEX
8
0
10
126.349263449467
20
36.2592564906022
30
0
0
VERTEX
8
0
10
126.993902548699
20
36.3151790758382
30
0
0
VERTEX
8
0
10
127.638541647931
20
36.3711016610742
30
0
0
VERTEX
8
0
10
128.283180747163
20
36.4270242463103
30
0
0
VERTEX
8
0
10
128.927819846395
20
36.4829468315463
30
0
0
VERTEX
8
0
10
129.572458945627
20
36.5388694167823
30
0
0
VERTEX
8
0
10
130.217098044859
20
36.5947920020183
30
0
0
VERTEX
8
0
10
130.861737144091
20
36.6529226766169
30
0
0
VERTEX
8
0
10
131.506376243323
20
36.7115082421022
30
0
0
VERTEX
8
0
10
132.151015342554
20
36.7700938075876
30
0
0
VERTEX
8
0
10
132.795654441786
20
36.828679373073
30
0
0
VERTEX
8
0
10
133.440293541018
20
36.8833581385451
30
0
0
VERTEX
8
0
10
134.08493264025
20
36.9366177435318
30
0
0
VERTEX
8
0
10
134.729571739482
20
36.9898773485184
30
0
0
VERTEX
8
0
10
135.374210838714
20
37.0431369535051
30
0
0
VERTEX
8
0
10
136.018849937946
20
37.0997939797933
30
0
0
VERTEX
8
0
10
136.663489037178
20
37.1583795452787
30
0
0
VERTEX
8
0
10
137.30812813641
20
37.216965110764
30
0
0
VERTEX
8
0
10
137.952767235642
20
37.2755506762494
30
0
0
VERTEX
8
0
10
138.597406334874
20
37.3312481991451
30
0
0
VERTEX
8
0
10
139.242045434106
20
37.3845078041318
30
0
0
VERTEX
8
0
10
139.886684533338
20
37.4377674091185
30
0
0
VERTEX
8
0
10
140.53132363257
20
37.4910270141051
30
0
0
VERTEX
8
0
10
141.175962731802
20
37.5442866190918
30
0
0
VERTEX
8
0
10
141.820601831034
20
37.6052508484551
30
0
0
VERTEX
8
0
10
142.465240930266
20
37.6638364139404
30
0
0
VERTEX
8
0
10
143.109880029498
20
37.7224219794258
30
0
0
VERTEX
8
0
10
143.75451912873
20
37.7810075449112
30
0
0
VERTEX
8
0
10
144.399158227962
20
37.8323978647318
30
0
0
VERTEX
8
0
10
145.043797327194
20
37.8856574697185
30
0
0
VERTEX
8
0
10
145.688436426426
20
37.9389170747052
30
0
0
VERTEX
8
0
10
146.333075525658
20
37.9921766796919
30
0
0
VERTEX
8
0
10
146.97771462489
20
38.0521221516315
30
0
0
VERTEX
8
0
10
147.622353724121
20
38.1107077171169
30
0
0
VERTEX
8
0
10
148.266992823353
20
38.1692932826022
30
0
0
VERTEX
8
0
10
148.911631922585
20
38.2278788480876
30
0
0
VERTEX
8
0
10
149.556271021817
20
38.2802879253318
30
0
0
VERTEX
8
0
10
150.200910121049
20
38.3335475303185
30
0
0
VERTEX
8
0
10
150.845549220281
20
38.3868071353052
30
0
0
VERTEX
8
0
10
151.490188319513
20
38.4400667402918
30
0
0
VERTEX
8
0
10
152.134827418745
20
38.4989934548079
30
0
0
VERTEX
8
0
10
152.779466517977
20
38.5575790202933
30
0
0
VERTEX
8
0
10
153.424105617209
20
38.6161645857786
30
0
0
VERTEX
8
0
10
154.068744716441
20
38.674750151264
30
0
0
VERTEX
8
0
10
154.713383815673
20
38.7158787816745
30
0
0
VERTEX
8
0
10
155.358022914905
20
38.7564380193182
30
0
0
SEQEND
8
0
0
POLYLINE
8
0
62
6
70
0
10
0
20
0
30
0
0
VERTEX
8
0
10
6.44639099231973
20
13.850844838145
30
0
0
VERTEX
8
0
10
7.0910300915517
20
14.7522201397956
30
0
0
VERTEX
8
0
10
7.73566919078367
20
15.6535954414462
30
0
0
VERTEX
8
0
10
8.38030829001565
20
16.5501831927523
30
0
0
VERTEX
8
0
10
9.02494738924762
20
17.4462633657951
30
0
0
VERTEX
8
0
10
9.6695864884796
20
18.3423435388379
30
0
0
VERTEX
8
0
10
10.3142255877116
20
19.2699794081622
30
0
0
VERTEX
8
0
10
10.9588646869435
20
20.194445682577
30
0
0
VERTEX
8
0
10
11.6035037861755
20
21.1189119569919
30
0
0
VERTEX
8
0
10
12.2481428854075
20
22.0326250667878
30
0
0
VERTEX
8
0
10
12.8927819846395
20
22.9489399269573
30
0
0
VERTEX
8
0
10
13.5374210838714
20
23.8652547871268
30
0
0
VERTEX
8
0
10
14.1820601831034
20
24.7613221601985
30
0
0
VERTEX
8
0
10
14.8266992823354
20
25.6625329292663
30
0
0
VERTEX
8
0
10
15.4713383815674
20
26.5637436983341
30
0
0
VERTEX
8
0
10
16.1159774807993
20
27.2664159453091
30
0
0
VERTEX
8
0
10
16.7606165800313
20
28.0218442647064
30
0
0
VERTEX
8
0
10
17.4052556792633
20
28.7772725841038
30
0
0
VERTEX
8
0
10
18.0498947784953
20
29.4693637530939
30
0
0
VERTEX
8
0
10
18.6945338777272
20
30.1621380649583
30
0
0
VERTEX
8
0
10
19.3391729769592
20
30.8549123768227
30
0
0
VERTEX
8
0
10
19.9838120761912
20
31.5476866886871
30
0
0
VERTEX
8
0
10
20.6284511754231
20
32.2487587849155
30
0
0
VERTEX
8
0
10
21.2730902746551
20
32.9479775089833
30
0
0
VERTEX
8
0
10
21.9177293738871
20
33.6471962330511
30
0
0
VERTEX
8
0
10
22.5623684731191
20
34.3427784789218
30
0
0
VERTEX
8
0
10
23.207007572351
20
35.0355527907862
30
0
0
VERTEX
8
0
10
23.851646671583
20
35.7283271026507
30
0
0
VERTEX
8
0
10
24.496285770815
20
36.4211014145151
30
0
0
VERTEX
8
0
10
25.140924870047
20
37.0561020199938
30
0
0
VERTEX
8
0
10
25.7855639692789
20
37.6801777818546
30
0
0
VERTEX
8
0
10
26.4302030685109
20
38.3042535437153
30
0
0
VERTEX
8
0
10
27.0748421677429
20
38.9283293055761
30
0
0
VERTEX
8
0
10
27.7194812669749
20
39.5192836415815
30
0
0
VERTEX
8
0
10
28.3641203662068
20
40.1078022766845
30
0
0
VERTEX
8
0
10
29.0087594654388
20
40.6963209117874
30
0
0
VERTEX
8
0
10
29.6533985646708
20
41.2848395468904
30
0
0
VERTEX
8
0
10
30.2980376639027
20
41.8733581819933
30
0
0
VERTEX
8
0
10
30.9426767631347
20
42.4618768170963
30
0
0
VERTEX
8
0
10
31.5873158623667
20
43.0503954521993
30
0
0
VERTEX
8
0
10
32.2319549615987
20
43.6389140873022
30
0
0
VERTEX
8
0
10
32.8765940608306
20
44.2294039069707
30
0
0
VERTEX
8
0
10
33.5212331600626
20
44.820585522323
30
0
0
VERTEX
8
0
10
34.1658722592946
20
45.4117671376753
30
0
0
VERTEX
8
0
10
34.8105113585266
20
46.0029487530276
30
0
0
VERTEX
8
0
10
35.4551504577585
20
46.5168880839466
30
0
0
VERTEX
8
0
10
36.0997895569905
20
46.9882355880788
30
0
0
VERTEX
8
0
10
36.7444286562225
20
47.4595830922111
30
0
0
VERTEX
8
0
10
37.3890677554545
20
47.9309305963433
30
0
0
VERTEX
8
0
10
38.0337068546864
20
48.3686565658397
30
0
0
VERTEX
8
0
10
38.6783459539184
20
48.7787555242373
30
0
0
VERTEX
8
0
10
39.3229850531504
20
49.1888544826348
30
0
0
VERTEX
8
0
10
39.9676241523823
20
49.5989534410324
30
0
0
VERTEX
8
0
10
40.6122632516143
20
50.0090523994299
30
0
0
VERTEX
8
0
10
41.2569023508463
20
50.4191513578274
30
0
0
VERTEX
8
0
10
41.9015414500783
20
50.829250316225
30
0
0
VERTEX
8
0
10
42.5461805493102
20
51.2393492746225
30
0
0
VERTEX
8
0
10
43.1908196485422
20
51.64944823302
30
0
0
VERTEX
8
0
10
43.8354587477742
20
52.0703934135914
30
0
0
VERTEX
8
0
10
44.4800978470062
20
52.4884813127369
30
0
0
VERTEX
8
0
10
45.1247369462381
20
52.9065692118824
30
0
0
VERTEX
8
0
10
45.7693760454701
20
53.324657111028
30
0
0
VERTEX
8
0
10
46.4140151447021
20
53.7024163937491
30
0
0
VERTEX
8
0
10
47.0586542439341
20
54.0885485299026
30
0
0
VERTEX
8
0
10
47.703293343166
20
54.4746806660561
30
0
0
VERTEX
8
0
10
48.347932442398
20
54.8608128022096
30
0
0
VERTEX
8
0
10
48.99257154163
20
55.2624750817605
30
0
0
VERTEX
8
0
10
49.637210640862
20
55.6619221191607
30
0
0
VERTEX
8
0
10
50.2818497400939
20
56.0613691565609
30
0
0
VERTEX
8
0
10
50.9264888393259
20
56.4608161939611
30
0
0
VERTEX
8
0
10
51.5711279385579
20
56.8517092133906
30
0
0
VERTEX
8
0
10
52.2157670377898
20
57.2431673100428
30
0
0
VERTEX
8
0
10
52.8604061370218
20
57.634625406695
30
0
0
VERTEX
8
0
10
53.5050452362538
20
58.0260835033472
30
0
0
VERTEX
8
0
10
54.1496843354858
20
58.420138249967
30
0
0
VERTEX
8
0
10
54.7943234347177
20
58.8142593268686
30
0
0
VERTEX
8
0
10
55.4389625339497
20
59.2083804037701
30
0
0
VERTEX
8
0
10
56.0836016331817
20
59.6025014806716
30
0
0
VERTEX
8
0
10
56.7282407324137
20
59.9989645181849
30
0
0
VERTEX
8
0
10
57.3728798316456
20
60.3957485753358
30
0
0
VERTEX
8
0
10
58.0175189308776
20
60.7925326324866
30
0
0
VERTEX
8
0
10
58.6621580301096
20
61.1893166896375
30
0
0
VERTEX
8
0
10
59.3067971293416
20
61.5819262042766
30
0
0
VERTEX
8
0
10
59.9514362285735
20
61.9733843009288
30
0
0
VERTEX
8
0
10
60.5960753278055
20
62.364842397581
30
0
0
VERTEX
8
0
10
61.2407144270375
20
62.7563004942332
30
0
0
VERTEX
8
0
10
61.8853535262694
20
63.1514237546853
30
0
0
VERTEX
8
0
10
62.5299926255014
20
63.5482078118362
30
0
0
VERTEX
8
0
10
63.1746317247334
20
63.9449918689871
30
0
0
VERTEX
8
0
10
63.8192708239654
20
64.3417759261379
30
0
0
VERTEX
8
0
10
64.4639099231973
20
64.7338263056565
30
0
0
VERTEX
8
0
10
65.1085490224293
20
65.1226214220594
30
0
0
VERTEX
8
0
10
65.7531881216613
20
65.5114165384622
30
0
0
VERTEX
8
0
10
66.3978272208933
20
65.9002116548651
30
0
0
VERTEX
8
0
10
67.0424663201252
20
66.289006771268
30
0
0
VERTEX
8
0
10
67.6871054193572
20
66.7057051717335
30
0
0
VERTEX
8
0
10
68.3317445185892
20
67.1131411498817
30
0
0
VERTEX
8
0
10
68.9763836178212
20
67.5205771280299
30
0
0
VERTEX
8
0
10
69.6210227170531
20
67.9280131061781
30
0
0
VERTEX
8
0
10
70.2656618162851
20
68.3429120724895
30
0
0
VERTEX
8
0
10
70.9103009155171
20
68.7556740111364
30
0
0
VERTEX
8
0
10
71.5549400147491
20
69.1684359497833
30
0
0
VERTEX
8
0
10
72.199579113981
20
69.5811978884302
30
0
0
VERTEX
8
0
10
72.844218213213
20
69.9870062176255
30
0
0
VERTEX
8
0
10
73.488857312445
20
70.3944421957738
30
0
0
VERTEX
8
0
10
74.1334964116769
20
70.8018781739219
30
0
0
VERTEX
8
0
10
74.7781355109089
20
71.2093141520701
30
0
0
VERTEX
8
0
10
75.4227746101409
20
71.603861668739
30
0
0
VERTEX
8
0
10
76.0674137093729
20
72.0006457258899
30
0
0
VERTEX
8
0
10
76.7120528086048
20
72.3974297830408
30
0
0
VERTEX
8
0
10
77.3566919078368
20
72.7942138401916
30
0
0
VERTEX
8
0
10
78.0013310070688
20
73.1227470990221
30
0
0
VERTEX
8
0
10
78.6459701063008
20
73.4582826104382
30
0
0
VERTEX
8
0
10
79.2906092055327
20
73.7938181218544
30
0
0
VERTEX
8
0
10
79.9352483047647
20
74.1293536332706
30
0
0
VERTEX
8
0
10
80.5798874039967
20
74.4676018813447
30
0
0
VERTEX
8
0
10
81.2245265032286
20
74.8058003730102
30
0
0
VERTEX
8
0
10
81.8691656024606
20
75.1439988646758
30
0
0
VERTEX
8
0
10
82.5138047016926
20
75.4821973563412
30
0
0
VERTEX
8
0
10
83.1584438009246
20
75.8179378007046
30
0
0
VERTEX
8
0
10
83.8030829001565
20
76.1534733121208
30
0
0
VERTEX
8
0
10
84.4477219993885
20
76.4890088235369
30
0
0
VERTEX
8
0
10
85.0923610986205
20
76.8245443349531
30
0
0
VERTEX
8
0
10
85.7370001978525
20
77.1402496248531
30
0
0
VERTEX
8
0
10
86.3816392970844
20
77.4518183140253
30
0
0
VERTEX
8
0
10
87.0262783963164
20
77.7633870031974
30
0
0
VERTEX
8
0
10
87.6709174955484
20
78.0749556923696
30
0
0
VERTEX
8
0
10
88.3155565947804
20
78.3631403584576
30
0
0
VERTEX
8
0
10
88.9601956940123
20
78.6427532846378
30
0
0
VERTEX
8
0
10
89.6048347932443
20
78.9223662108179
30
0
0
VERTEX
8
0
10
90.2494738924763
20
79.2019791369981
30
0
0
VERTEX
8
0
10
90.8941129917083
20
79.4798980839438
30
0
0
VERTEX
8
0
10
91.5387520909402
20
79.7568480298746
30
0
0
VERTEX
8
0
10
92.1833911901722
20
80.0337979758054
30
0
0
VERTEX
8
0
10
92.8280302894042
20
80.3107479217362
30
0
0
VERTEX
8
0
10
93.4726693886361
20
80.5891371575455
30
0
0
VERTEX
8
0
10
94.1173084878681
20
80.8687500837257
30
0
0
VERTEX
8
0
10
94.7619475871001
20
81.1483630099058
30
0
0
VERTEX
8
0
10
95.4065866863321
20
81.4279759360859
30
0
0
VERTEX
8
0
10
96.051225785564
20
81.7075888622661
30
0
0
VERTEX
8
0
10
96.695864884796
20
81.9602687230423
30
0
0
VERTEX
8
0
10
97.340503984028
20
82.2212407874771
30
0
0
VERTEX
8
0
10
97.98514308326
20
82.4822128519119
30
0
0
VERTEX
8
0
10
98.6297821824919
20
82.7431849163467
30
0
0
VERTEX
8
0
10
99.2744212817239
20
82.9610422837885
30
0
0
VERTEX
8
0
10
99.9190603809559
20
83.1900585852313
30
0
0
VERTEX
8
0
10
100.563699480188
20
83.4190748866741
30
0
0
VERTEX
8
0
10
101.20833857942
20
83.6480911881168
30
0
0
VERTEX
8
0
10
101.852977678652
20
83.8737692874994
30
0
0
VERTEX
8
0
10
102.497616777884
20
84.1001226086929
30
0
0
VERTEX
8
0
10
103.142255877116
20
84.3264759298863
30
0
0
VERTEX
8
0
10
103.786894976348
20
84.5528292510798
30
0
0
VERTEX
8
0
10
104.43153407558
20
84.7699320341603
30
0
0
VERTEX
8
0
10
105.076173174812
20
84.9882964146058
30
0
0
VERTEX
8
0
10
105.720812274044
20
85.2066607950512
30
0
0
VERTEX
8
0
10
106.365451373276
20
85.4250251754967
30
0
0
VERTEX
8
0
10
107.010090472508
20
85.6377319092453
30
0
0
VERTEX
8
0
10
107.65472957174
20
85.8507703291921
30
0
0
VERTEX
8
0
10
108.299368670972
20
86.0638087491389
30
0
0
VERTEX
8
0
10
108.944007770204
20
86.2768471690856
30
0
0
VERTEX
8
0
10
109.588646869435
20
86.4589959811225
30
0
0
VERTEX
8
0
10
110.233285968667
20
86.6400786380773
30
0
0
VERTEX
8
0
10
110.877925067899
20
86.821161295032
30
0
0
VERTEX
8
0
10
111.522564167131
20
87.0022439519868
30
0
0
VERTEX
8
0
10
112.167203266363
20
87.1740488303952
30
0
0
VERTEX
8
0
10
112.811842365595
20
87.3444795663526
30
0
0
VERTEX
8
0
10
113.456481464827
20
87.51491030231
30
0
0
VERTEX
8
0
10
114.101120564059
20
87.6853410382674
30
0
0
VERTEX
8
0
10
114.745759663291
20
87.8537070189441
30
0
0
VERTEX
8
0
10
115.390398762523
20
88.0214747746522
30
0
0
VERTEX
8
0
10
116.035037861755
20
88.1892425303603
30
0
0
VERTEX
8
0
10
116.679676960987
20
88.3570102860684
30
0
0
VERTEX
8
0
10
117.324316060219
20
88.5320183054756
30
0
0
VERTEX
8
0
10
117.968955159451
20
88.7104379821811
30
0
0
VERTEX
8
0
10
118.613594258683
20
88.8888576588865
30
0
0
VERTEX
8
0
10
119.258233357915
20
89.0672773355919
30
0
0
VERTEX
8
0
10
119.902872457147
20
89.2425862591595
30
0
0
VERTEX
8
0
10
120.547511556379
20
89.4156799753663
30
0
0
VERTEX
8
0
10
121.192150655611
20
89.588773691573
30
0
0
VERTEX
8
0
10
121.836789754843
20
89.7618674077798
30
0
0
VERTEX
8
0
10
122.481428854075
20
89.9349611239865
30
0
0
VERTEX
8
0
10
123.126067953307
20
90.0961638378063
30
0
0
VERTEX
8
0
10
123.770707052539
20
90.261268613265
30
0
0
VERTEX
8
0
10
124.415346151771
20
90.4263733887238
30
0
0
VERTEX
8
0
10
125.059985251003
20
90.5914781641825
30
0
0
VERTEX
8
0
10
125.704624350235
20
90.7194931585769
30
0
0
VERTEX
8
0
10
126.349263449467
20
90.8579681315423
30
0
0
VERTEX
8
0
10
126.993902548699
20
90.9964431045077
30
0
0
VERTEX
8
0
10
127.638541647931
20
91.1349180774731
30
0
0
VERTEX
8
0
10
128.283180747163
20
91.276847339189
30
0
0
VERTEX
8
0
10
128.927819846395
20
91.4179852924038
30
0
0
VERTEX
8
0
10
129.572458945627
20
91.5591232456185
30
0
0
VERTEX
8
0
10
130.217098044859
20
91.7002611988332
30
0
0
VERTEX
8
0
10
130.861737144091
20
91.8445987514426
30
0
0
VERTEX
8
0
10
131.506376243323
20
91.9883996849066
30
0
0
VERTEX
8
0
10
132.151015342554
20
92.1322006183707
30
0
0
VERTEX
8
0
10
132.795654441786
20
92.2760015518348
30
0
0
VERTEX
8
0
10
133.440293541018
20
92.4139126652213
30
0
0
VERTEX
8
0
10
134.08493264025
20
92.5523876381867
30
0
0
VERTEX
8
0
10
134.729571739482
20
92.6908626111521
30
0
0
VERTEX
8
0
10
135.374210838714
20
92.8293375841176
30
0
0
VERTEX
8
0
10
136.018849937946
20
92.9705027777658
30
0
0
VERTEX
8
0
10
136.663489037178
20
93.1116407309805
30
0
0
VERTEX
8
0
10
137.30812813641
20
93.2527786841953
30
0
0
VERTEX
8
0
10
137.952767235642
20
93.39391663741
30
0
0
VERTEX
8
0
10
138.597406334874
20
93.5326190592978
30
0
0
VERTEX
8
0
10
139.242045434106
20
93.6710940322632
30
0
0
VERTEX
8
0
10
139.886684533338
20
93.8095690052286
30
0
0
VERTEX
8
0
10
140.53132363257
20
93.948043978194
30
0
0
VERTEX
8
0
10
141.175962731802
20
94.0886997931304
30
0
0
VERTEX
8
0
10
141.820601831034
20
94.2298377463452
30
0
0
VERTEX
8
0
10
142.465240930266
20
94.3709756995599
30
0
0
VERTEX
8
0
10
143.109880029498
20
94.5121136527746
30
0
0
VERTEX
8
0
10
143.75451912873
20
94.6551777586045
30
0
0
VERTEX
8
0
10
144.399158227962
20
94.7989786920686
30
0
0
VERTEX
8
0
10
145.043797327194
20
94.9427796255327
30
0
0
VERTEX
8
0
10
145.688436426426
20
95.0865805589967
30
0
0
VERTEX
8
0
10
146.333075525658
20
95.2270385659423
30
0
0
VERTEX
8
0
10
146.97771462489
20
95.3655135389077
30
0
0
VERTEX
8
0
10
147.622353724121
20
95.5039885118731
30
0
0
VERTEX
8
0
10
148.266992823353
20
95.6424634848385
30
0
0
VERTEX
8
0
10
148.911631922585
20
95.7823552317072
30
0
0
VERTEX
8
0
10
149.556271021817
20
95.923493184922
30
0
0
VERTEX
8
0
10
150.200910121049
20
96.0646311381367
30
0
0
VERTEX
8
0
10
150.845549220281
20
96.2057690913514
30
0
0
VERTEX
8
0
10
151.490188319513
20
96.3469070445661
30
0
0
VERTEX
8
0
10
152.134827418745
20
96.4842199329841
30
0
0
VERTEX
8
0
10
152.779466517977
20
96.6226949059495
30
0
0
VERTEX
8
0
10
153.424105617209
20
96.7611698789149
30
0
0
VERTEX
8
0
10
154.068744716441
20
96.8996448518803
30
0
0
VERTEX
8
0
10
154.713383815673
20
97.0488309511684
30
0
0
VERTEX
8
0
10
155.358022914905
20
97.1952948648818
30
0
0
SEQEND
8
0
0
POLYLINE
8
0
62
1
70
0
10
0
20
0
30
0
0
VERTEX
8
0
10
6.44639099231973
20
3.08548629630938
30
0
0
VERTEX
8
0
10
7.0910300915517
20
3.41303286697753
30
0
0
VERTEX
8
0
10
7.73566919078367
20
3.74057943764569
30
0
0
VERTEX
8
0
10
8.38030829001565
20
4.06812600831385
30
0
0
VERTEX
8
0
10
9.02494738924762
20
4.395672578982
30
0
0
VERTEX
8
0
10
9.6695864884796
20
4.73957854333264
30
0
0
VERTEX
8
0
10
10.3142255877116
20
5.08044001524748
30
0
0
VERTEX
8
0
10
10.9588646869435
20
5.42130148716232
30
0
0
VERTEX
8
0
10
11.6035037861755
20
5.76216295907716
30
0
0
VERTEX
8
0
10
12.2481428854075
20
6.08492129470841
30
0
0
VERTEX
8
0
10
12.8927819846395
20
6.40980488512724
30
0
0
VERTEX
8
0
10
13.5374210838714
20
6.73468847554607
30
0
0
VERTEX
8
0
10
14.1820601831034
20
7.05957206596489
30
0
0
VERTEX
8
0
10
14.8266992823354
20
7.35683065613674
30
0
0
VERTEX
8
0
10
15.4713383815674
20
7.65508444406222
30
0
0
VERTEX
8
0
10
16.1159774807993
20
7.9533382319877
30
0
0
VERTEX
8
0
10
16.7606165800313
20
8.25159201991318
30
0
0
VERTEX
8
0
10
17.4052556792633
20
8.52225989048185
30
0
0
VERTEX
8
0
10
18.0498947784953
20
8.79122089566465
30
0
0
VERTEX
8
0
10
18.6945338777272
20
9.06018190084744
30
0
0
VERTEX
8
0
10
19.3391729769592
20
9.32914290603024
30
0
0
VERTEX
8
0
10
19.9838120761912
20
9.59810391121304
30
0
0
VERTEX
8
0
10
20.6284511754231
20
9.86706491639584
30
0
0
VERTEX
8
0
10
21.2730902746551
20
10.1360259215786
30
0
0
VERTEX
8
0
10
21.9177293738871
20
10.4049869267614
30
0
0
VERTEX
8
0
10
22.5623684731191
20
10.6739479319442
30
0
0
VERTEX
8
0
10
23.207007572351
20
10.942908937127
30
0
0
VERTEX
8
0
10
23.851646671583
20
11.2118699423098
30
0
0
VERTEX
8
0
10
24.496285770815
20
11.4808309474926
30
0
0
VERTEX
8
0
10
25.140924870047
20
11.7707168638887
30
0
0
VERTEX
8
0
10
25.7855639692789
20
12.0716336320635
30
0
0
VERTEX
8
0
10
26.4302030685109
20
12.3725504002383
30
0
0
VERTEX
8
0
10
27.0748421677429
20
12.6734671684132
30
0
0
VERTEX
8
0
10
27.7194812669749
20
12.9848591408585
30
0
0
VERTEX
8
0
10
28.3641203662068
20
13.3095708861116
30
0
0
VERTEX
8
0
10
29.0087594654388
20
13.6422941528706
30
0
0
VERTEX
8
0
10
29.6533985646708
20
13.9824570319736
30
0
0
VERTEX
8
0
10
30.2980376639027
20
14.3295297154181
30
0
0
VERTEX
8
0
10
30.9426767631347
20
14.690763619518
30
0
0
VERTEX
8
0
10
31.5873158623667
20
15.0554803054415
30
0
0
VERTEX
8
0
10
32.2319549615987
20
15.4257157235576
30
0
0
VERTEX
8
0
10
32.8765940608306
20
15.8010819501063
30
0
0
VERTEX
8
0
10
33.5212331600626
20
16.1641654580591
30
0
0
VERTEX
8
0
10
34.1658722592946
20
16.5359657993628
30
0
0
VERTEX
8
0
10
34.8105113585266
20
16.9116724973806
30
0
0
VERTEX
8
0
10
35.4551504577585
20
17.2910309171665
30
0
0
VERTEX
8
0
10
36.0997895569905
20
17.4180642030303
30
0
0
VERTEX
8
0
10
36.7444286562225
20
17.5993797726943
30
0
0
VERTEX
8
0
10
37.3890677554545
20
17.7807073460651
30
0
0
VERTEX
8
0
10
38.0337068546864
20
17.9620465596091
30
0
0
VERTEX
8
0
10
38.6783459539184
20
18.0127176618318
30
0
0
VERTEX
8
0
10
39.3229850531504
20
18.0834365917412
30
0
0
VERTEX
8
0
10
39.9676241523823
20
18.1545495650021
30
0
0
VERTEX
8
0
10
40.6122632516143
20
18.2260519692731
30
0
0
VERTEX
8
0
10
41.2569023508463
20
18.3126160629719
30
0
0
VERTEX
8
0
10
41.9015414500783
20
18.3984625208528
30
0
0
VERTEX
8
0
10
42.5461805493102
20
18.4846852476968
30
0
0
VERTEX
8
0
10
43.1908196485422
20
18.5712790026805
30
0
0
VERTEX
8
0
10
43.8354587477742
20
18.6525176974591
30
0
0
VERTEX
8
0
10
44.4800978470062
20
18.7339354679864
30
0
0
VERTEX
8
0
10
45.1247369462381
20
18.8156133846525
30
0
0
VERTEX
8
0
10
45.7693760454701
20
18.8975480742905
30
0
0
VERTEX
8
0
10
46.4140151447021
20
19.0248660902518
30
0
0
VERTEX
8
0
10
47.0586542439341
20
19.1598186026673
30
0
0
VERTEX
8
0
10
47.703293343166
20
19.2968706490408
30
0
0
VERTEX
8
0
10
48.347932442398
20
19.4359778150754
30
0
0
VERTEX
8
0
10
48.99257154163
20
19.6004918453123
30
0
0
VERTEX
8
0
10
49.637210640862
20
19.7756029152495
30
0
0
VERTEX
8
0
10
50.2818497400939
20
19.9554153812029
30
0
0
VERTEX
8
0
10
50.9264888393259
20
20.1398033183628
30
0
0
VERTEX
8
0
10
51.5711279385579
20
20.3241444288007
30
0
0
VERTEX
8
0
10
52.2157670377898
20
20.510584743722
30
0
0
VERTEX
8
0
10
52.8604061370218
20
20.7009065729
30
0
0
VERTEX
8
0
10
53.5050452362538
20
20.8950038524606
30
0
0
VERTEX
8
0
10
54.1496843354858
20
21.1004763843336
30
0
0
VERTEX
8
0
10
54.7943234347177
20
21.3150083108808
30
0
0
VERTEX
8
0
10
55.4389625339497
20
21.5335056270165
30
0
0
VERTEX
8
0
10
56.0836016331817
20
21.7558488580272
30
0
0
VERTEX
8
0
10
56.7282407324137
20
21.9847900059998
30
0
0
VERTEX
8
0
10
57.3728798316456
20
22.2220631090576
30
0
0
VERTEX
8
0
10
58.0175189308776
20
22.4653286299
30
0
0
VERTEX
8
0
10
58.6621580301096
20
22.714394037423
30
0
0
VERTEX
8
0
10
59.3067971293416
20
22.9690706589681
30
0
0
VERTEX
8
0
10
59.9514362285735
20
23.2520417227096
30
0
0
VERTEX
8
0
10
60.5960753278055
20
23.5347304708402
30
0
0
VERTEX
8
0
10
61.2407144270375
20
23.8233828876776
30
0
0
VERTEX
8
0
10
61.8853535262694
20
24.1177848466233
30
0
0
VERTEX
8
0
10
62.5299926255014
20
24.4266903189601
30
0
0
VERTEX
8
0
10
63.1746317247334
20
24.73864251313
30
0
0
VERTEX
8
0
10
63.8192708239654
20
25.0556170717644
30
0
0
VERTEX
8
0
10
64.4639099231973
20
25.3774258013244
30
0
0
VERTEX
8
0
10
65.1085490224293
20
25.7003937215205
30
0
0
VERTEX
8
0
10
65.7531881216613
20
26.0286223989234
30
0
0
VERTEX
8
0
10
66.3978272208933
20
26.3612935997154
30
0
0
VERTEX
8
0
10
67.0424663201252
20
26.6982412573402
30
0
0
VERTEX
8
0
10
67.6871054193572
20
27.0544787642264
30
0
0
VERTEX
8
0
10
68.3317445185892
20
27.4133362722715
30
0
0
VERTEX
8
0
10
68.9763836178212
20
27.7763079156951
30
0
0
VERTEX
8
0
10
69.6210227170531
20
28.1432345112744
30
0
0
VERTEX
8
0
10
70.2656618162851
20
28.5219996862318
30
0
0
VERTEX
8
0
10
70.9103009155171
20
28.9041228962267
30
0
0
VERTEX
8
0
10
71.5549400147491
20
29.2896907066254
30
0
0
VERTEX
8
0
10
72.199579113981
20
29.6785688666116
30
0
0
VERTEX
8
0
10
72.844218213213
20
30.0689396678078
30
0
0
VERTEX
8
0
10
73.488857312445
20
30.4622114709662
30
0
0
VERTEX
8
0
10
74.1334964116769
20
30.8583882358405
30
0
0
VERTEX
8
0
10
74.7781355109089
20
31.2573595043191
30
0
0
VERTEX
8
0
10
75.4227746101409
20
31.6432469553126
30
0
0
VERTEX
8
0
10
76.0674137093729
20
32.0286048213547
30
0
0
VERTEX
8
0
10
76.7120528086048
20
32.4163948029951
30
0
0
VERTEX
8
0
10
77.3566919078368
20
32.8065306537941
30
0
0
VERTEX
8
0
10
78.0013310070688
20
33.0969060325657
30
0
0
VERTEX
8
0
10
78.6459701063008
20
33.3527315865203
30
0
0
VERTEX
8
0
10
79.2906092055327
20
33.6092745507744
30
0
0
VERTEX
8
0
10
79.9352483047647
20
33.866518621923
30
0
0
VERTEX
8
0
10
80.5798874039967
20
34.1181888424531
30
0
0
VERTEX
8
0
10
81.2245265032286
20
34.3670675979818
30
0
0
VERTEX
8
0
10
81.8691656024606
20
34.6165579541189
30
0
0
VERTEX
8
0
10
82.5138047016926
20
34.8666467818339
30
0
0
VERTEX
8
0
10
83.1584438009246
20
35.1195280313207
30
0
0
VERTEX
8
0
10
83.8030829001565
20
35.3748048719045
30
0
0
VERTEX
8
0
10
84.4477219993885
20
35.6306705594015
30
0
0
VERTEX
8
0
10
85.0923610986205
20
35.8871124988424
30
0
0
VERTEX
8
0
10
85.7370001978525
20
36.1441184247345
30
0
0
VERTEX
8
0
10
86.3816392970844
20
36.3809204493808
30
0
0
VERTEX
8
0
10
87.0262783963164
20
36.6246465205891
30
0
0
VERTEX
8
0
10
87.6709174955484
20
36.8688165982258
30
0
0
VERTEX
8
0
10
88.3155565947804
20
37.1134219189056
30
0
0
VERTEX
8
0
10
88.9601956940123
20
37.262429802288
30
0
0
VERTEX
8
0
10
89.6048347932443
20
37.4371979760178
30
0
0
VERTEX
8
0
10
90.2494738924763
20
37.6123400021238
30
0
0
VERTEX
8
0
10
90.8941129917083
20
37.7878506823277
30
0
0
VERTEX
8
0
10
91.5387520909402
20
37.9905055863065
30
0
0
VERTEX
8
0
10
92.1833911901722
20
38.1877437810997
30
0
0
VERTEX
8
0
10
92.8280302894042
20
38.3851739488224
30
0
0
VERTEX
8
0
10
93.4726693886361
20
38.5827931424681
30
0
0
VERTEX
8
0
10
94.1173084878681
20
38.7430611294202
30
0
0
VERTEX
8
0
10
94.7619475871001
20
38.9090966757192
30
0
0
VERTEX
8
0
10
95.4065866863321
20
39.0754778611815
30
0
0
VERTEX
8
0
10
96.051225785564
20
39.2422002894291
30
0
0
VERTEX
8
0
10
96.695864884796
20
39.4198152626058
30
0
0
VERTEX
8
0
10
97.340503984028
20
39.5969109313992
30
0
0
VERTEX
8
0
10
97.98514308326
20
39.774203146706
30
0
0
VERTEX
8
0
10
98.6297821824919
20
39.9516892919034
30
0
0
VERTEX
8
0
10
99.2744212817239
20
40.0538927285963
30
0
0
VERTEX
8
0
10
99.9190603809559
20
40.1547418447563
30
0
0
VERTEX
8
0
10
100.563699480188
20
40.2560233993579
30
0
0
VERTEX
8
0
10
101.20833857942
20
40.3577341366655
30
0
0
VERTEX
8
0
10
101.852977678652
20
40.4700700731091
30
0
0
VERTEX
8
0
10
102.497616777884
20
40.5841375459082
30
0
0
VERTEX
8
0
10
103.142255877116
20
40.6985547627423
30
0
0
VERTEX
8
0
10
103.786894976348
20
40.8133187821644
30
0
0
VERTEX
8
0
10
104.43153407558
20
40.9267231320603
30
0
0
VERTEX
8
0
10
105.076173174812
20
41.0399956403479
30
0
0
VERTEX
8
0
10
105.720812274044
20
41.1535975664933
30
0
0
VERTEX
8
0
10
106.365451373276
20
41.2675261900161
30
0
0
VERTEX
8
0
10
107.010090472508
20
41.3625003856742
30
0
0
VERTEX
8
0
10
107.65472957174
20
41.4491030302607
30
0
0
VERTEX
8
0
10
108.299368670972
20
41.5359903499265
30
0
0
VERTEX
8
0
10
108.944007770204
20
41.6231605619151
30
0
0
VERTEX
8
0
10
109.588646869435
20
41.6863496164629
30
0
0
VERTEX
8
0
10
110.233285968667
20
41.7330897978493
30
0
0
VERTEX
8
0
10
110.877925067899
20
41.779900746977
30
0
0
VERTEX
8
0
10
111.522564167131
20
41.8267822262443
30
0
0
VERTEX
8
0
10
112.167203266363
20
41.8737339987564
30
0
0
VERTEX
8
0
10
112.811842365595
20
41.8986012157417
30
0
0
VERTEX
8
0
10
113.456481464827
20
41.9309195843592
30
0
0
VERTEX
8
0
10
114.101120564059
20
41.9633153029578
30
0
0
VERTEX
8
0
10
114.745759663291
20
41.9957881925333
30
0
0
VERTEX
8
0
10
115.390398762523
20
42.0314501624803
30
0
0
VERTEX
8
0
10
116.035037861755
20
42.0662998264105
30
0
0
VERTEX
8
0
10
116.679676960987
20
42.1012301282612
30
0
0
VERTEX
8
0
10
117.324316060219
20
42.1362408674896
30
0
0
VERTEX
8
0
10
117.968955159451
20
42.1973477910098
30
0
0
VERTEX
8
0
10
118.613594258683
20
42.252399808144
30
0
0
VERTEX
8
0
10
119.258233357915
20
42.3075157919665
30
0
0
VERTEX
8
0
10
119.902872457147
20
42.3626954928058
30
0
0
VERTEX
8
0
10
120.547511556379
20
42.4076867593941
30
0
0
VERTEX
8
0
10
121.192150655611
20
42.4546482991481
30
0
0
VERTEX
8
0
10
121.836789754843
20
42.5017770253172
30
0
0
VERTEX
8
0
10
122.481428854075
20
42.5490723823584
30
0
0
VERTEX
8
0
10
123.126067953307
20
42.6113903661384
30
0
0
VERTEX
8
0
10
123.770707052539
20
42.6722111845292
30
0
0
VERTEX
8
0
10
124.415346151771
20
42.7330864940406
30
0
0
VERTEX
8
0
10
125.059985251003
20
42.7940160621287
30
0
0
VERTEX
8
0
10
125.704624350235
20
42.8133994060869
30
0
0
VERTEX
8
0
10
126.349263449467
20
42.8337408190595
30
0
0
VERTEX
8
0
10
126.993902548699
20
42.8542052908644
30
0
0
VERTEX
8
0
10
127.638541647931
20
42.8747926452908
30
0
0
VERTEX
8
0
10
128.283180747163
20
42.9059100301669
30
0
0
VERTEX
8
0
10
128.927819846395
20
42.9379444687948
30
0
0
VERTEX
8
0
10
129.572458945627
20
42.9700477739919
30
0
0
VERTEX
8
0
10
130.217098044859
20
43.0022197915214
30
0
0
VERTEX
8
0
10
130.861737144091
20
43.0363409235088
30
0
0
VERTEX
8
0
10
131.506376243323
20
43.0709211291063
30
0
0
VERTEX
8
0
10
132.151015342554
20
43.1055731246683
30
0
0
VERTEX
8
0
10
132.795654441786
20
43.1402967372011
30
0
0
VERTEX
8
0
10
133.440293541018
20
43.1656639108015
30
0
0
VERTEX
8
0
10
134.08493264025
20
43.1877042677645
30
0
0
VERTEX
8
0
10
134.729571739482
20
43.2098464590724
30
0
0
VERTEX
8
0
10
135.374210838714
20
43.2320903282559
30
0
0
VERTEX
8
0
10
136.018849937946
20
43.2652132139962
30
0
0
VERTEX
8
0
10
136.663489037178
20
43.304516634784
30
0
0
VERTEX
8
0
10
137.30812813641
20
43.3438740739259
30
0
0
VERTEX
8
0
10
137.952767235642
20
43.3832853844052
30
0
0
VERTEX
8
0
10
138.597406334874
20
43.4121575991995
30
0
0
VERTEX
8
0
10
139.242045434106
20
43.4321890040396
30
0
0
VERTEX
8
0
10
139.886684533338
20
43.4523353705575
30
0
0
VERTEX
8
0
10
140.53132363257
20
43.4725965389245
30
0
0
VERTEX
8
0
10
141.175962731802
20
43.4929723486995
30
0
0
VERTEX
8
0
10
141.820601831034
20
43.5395228716163
30
0
0
VERTEX
8
0
10
142.465240930266
20
43.5780731192273
30
0
0
VERTEX
8
0
10
143.109880029498
20
43.6166811556718
30
0
0
VERTEX
8
0
10
143.75451912873
20
43.6553468276277
30
0
0
VERTEX
8
0
10
144.399158227962
20
43.6806441344344
30
0
0
VERTEX
8
0
10
145.043797327194
20
43.7095055681699
30
0
0
VERTEX
8
0
10
145.688436426426
20
43.7384402112657
30
0
0
VERTEX
8
0
10
146.333075525658
20
43.7674479185258
30
0
0
VERTEX
8
0
10
146.97771462489
20
43.7957151473602
30
0
0
VERTEX
8
0
10
147.622353724121
20
43.8242587813694
30
0
0
VERTEX
8
0
10
148.266992823353
20
43.8529088386071
30
0
0
VERTEX
8
0
10
148.911631922585
20
43.8816651106244
30
0
0
VERTEX
8
0
10
149.556271021817
20
43.9217878103918
30
0
0
VERTEX
8
0
10
150.200910121049
20
43.9603908629391
30
0
0
VERTEX
8
0
10
150.845549220281
20
43.9990303181799
30
0
0
VERTEX
8
0
10
151.490188319513
20
44.0377060802931
30
0
0
VERTEX
8
0
10
152.134827418745
20
44.060680882569
30
0
0
VERTEX
8
0
10
152.779466517977
20
44.0847420387791
30
0
0
VERTEX
8
0
10
153.424105617209
20
44.1089387836961
30
0
0
VERTEX
8
0
10
154.068744716441
20
44.1332708943043
30
0
0
VERTEX
8
0
10
154.713383815673
20
44.1684668502141
30
0
0
VERTEX
8
0
10
155.358022914905
20
44.2040233689921
30
0
0
SEQEND
8
0
0
POLYLINE
8
0
62
2
70
0
10
0
20
0
30
0
0
VERTEX
8
0
10
6.44639099231973
20
3.08548629630938
30
0
0
VERTEX
8
0
10
7.0910300915517
20
3.41303286697753
30
0
0
VERTEX
8
0
10
7.73566919078367
20
3.74057943764569
30
0
0
VERTEX
8
0
10
8.38030829001565
20
4.06812600831385
30
0
0
VERTEX
8
0
10
9.02494738924762
20
4.395672578982
30
0
0
VERTEX
8
0
10
9.6695864884796
20
4.73957854333264
30
0
0
VERTEX
8
0
10
10.3142255877116
20
5.08044001524748
30
0
0
VERTEX
8
0
10
10.9588646869435
20
5.42130148716232
30
0
0
VERTEX
8
0
10
11.6035037861755
20
5.76216295907716
30
0
0
VERTEX
8
0
10
12.2481428854075
20
6.08492129470841
30
0
0
VERTEX
8
0
10
12.8927819846395
20
6.40980488512724
30
0
0
VERTEX
8
0
10
13.5374210838714
20
6.73468847554607
30
0
0
VERTEX
8
0
10
14.1820601831034
20
7.05957206596489
30
0
0
VERTEX
8
0
10
14.8266992823354
20
7.35683065613674
30
0
0
VERTEX
8
0
10
15.4713383815674
20
7.65508444406222
30
0
0
VERTEX
8
0
10
16.1159774807993
20
7.9533382319877
30
0
0
VERTEX
8
0
10
16.7606165800313
20
8.25159201991318
30
0
0
VERTEX
8
0
10
17.4052556792633
20
8.52225989048185
30
0
0
VERTEX
8
0
10
18.0498947784953
20
8.79122089566465
30
0
0
VERTEX
8
0
10
18.6945338777272
20
9.06018190084744
30
0
0
VERTEX
8
0
10
19.3391729769592
20
9.32914290603024
30
0
0
VERTEX
8
0
10
19.9838120761912
20
9.59810391121304
30
0
0
VERTEX
8
0
10
20.6284511754231
20
9.86706491639584
30
0
0
VERTEX
8
0
10
21.2730902746551
20
10.1360259215786
30
0
0
VERTEX
8
0
10
21.9177293738871
20
10.4049869267614
30
0
0
VERTEX
8
0
10
22.5623684731191
20
10.6739479319442
30
0
0
VERTEX
8
0
10
23.207007572351
20
10.942908937127
30
0
0
VERTEX
8
0
10
23.851646671583
20
11.2118699423098
30
0
0
VERTEX
8
0
10
24.496285770815
20
11.4808309474926
30
0
0
VERTEX
8
0
10
25.140924870047
20
11.7707168638887
30
0
0
VERTEX
8
0
10
25.7855639692789
20
12.0716336320635
30
0
0
VERTEX
8
0
10
26.4302030685109
20
12.3725504002383
30
0
0
VERTEX
8
0
10
27.0748421677429
20
12.6734671684132
30
0
0
VERTEX
8
0
10
27.7194812669749
20
12.9848591408585
30
0
0
VERTEX
8
0
10
28.3641203662068
20
13.3095708861116
30
0
0
VERTEX
8
0
10
29.0087594654388
20
13.6422941528706
30
0
0
VERTEX
8
0
10
29.6533985646708
20
13.9824570319736
30
0
0
VERTEX
8
0
10
30.2980376639027
20
14.3295297154181
30
0
0
VERTEX
8
0
10
30.9426767631347
20
14.690763619518
30
0
0
VERTEX
8
0
10
31.5873158623667
20
15.0554803054415
30
0
0
VERTEX
8
0
10
32.2319549615987
20
15.4257157235576
30
0
0
VERTEX
8
0
10
32.8765940608306
20
15.8010819501063
30
0
0
VERTEX
8
0
10
33.5212331600626
20
16.1641654580591
30
0
0
VERTEX
8
0
10
34.1658722592946
20
16.5359657993628
30
0
0
VERTEX
8
0
10
34.8105113585266
20
16.9116724973806
30
0
0
VERTEX
8
0
10
35.4551504577585
20
17.2910309171665
30
0
0
VERTEX
8
0
10
36.0997895569905
20
17.4180642030303
30
0
0
VERTEX
8
0
10
36.7444286562225
20
17.5993797726943
30
0
0
VERTEX
8
0
10
37.3890677554545
20
17.7807073460651
30
0
0
VERTEX
8
0
10
38.0337068546864
20
17.9620465596091
30
0
0
VERTEX
8
0
10
38.6783459539184
20
18.0127176618318
30
0
0
VERTEX
8
0
10
39.3229850531504
20
18.0834365917412
30
0
0
VERTEX
8
0
10
39.9676241523823
20
18.1545495650021
30
0
0
VERTEX
8
0
10
40.6122632516143
20
18.2260519692731
30
0
0
VERTEX
8
0
10
41.2569023508463
20
18.3126160629719
30
0
0
VERTEX
8
0
10
41.9015414500783
20
18.3984625208528
30
0
0
VERTEX
8
0
10
42.5461805493102
20
18.4846852476968
30
0
0
VERTEX
8
0
10
43.1908196485422
20
18.5712790026805
30
0
0
VERTEX
8
0
10
43.8354587477742
20
18.6525176974591
30
0
0
VERTEX
8
0
10
44.4800978470062
20
18.7339354679864
30
0
0
VERTEX
8
0
10
45.1247369462381
20
18.8156133846524
30
0
0
VERTEX
8
0
10
45.7693760454701
20
18.8975480742905
30
0
0
VERTEX
8
0
10
46.4140151447021
20
19.0248660902518
30
0
0
VERTEX
8
0
10
47.0586542439341
20
19.1598186026673
30
0
0
VERTEX
8
0
10
47.703293343166
20
19.2968706490408
30
0
0
VERTEX
8
0
10
48.347932442398
20
19.4359778150754
30
0
0
VERTEX
8
0
10
48.99257154163
20
19.6004918453123
30
0
0
VERTEX
8
0
10
49.637210640862
20
19.7756029152495
30
0
0
VERTEX
8
0
10
50.2818497400939
20
19.9554153812029
30
0
0
VERTEX
8
0
10
50.9264888393259
20
20.1398033183628
30
0
0
VERTEX
8
0
10
51.5711279385579
20
20.3241444288007
30
0
0
VERTEX
8
0
10
52.2157670377898
20
20.510584743722
30
0
0
VERTEX
8
0
10
52.8604061370218
20
20.7009065729
30
0
0
VERTEX
8
0
10
53.5050452362538
20
20.8950038524606
30
0
0
VERTEX
8
0
10
54.1496843354858
20
21.1004763843336
30
0
0
VERTEX
8
0
10
54.7943234347177
20
21.3150083108808
30
0
0
VERTEX
8
0
10
55.4389625339497
20
21.5335056270165
30
0
0
VERTEX
8
0
10
56.0836016331817
20
21.7558488580272
30
0
0
VERTEX
8
0
10
56.7282407324137
20
21.9847900059998
30
0
0
VERTEX
8
0
10
57.3728798316456
20
22.2220631090576
30
0
0
VERTEX
8
0
10
58.0175189308776
20
22.4653286299
30
0
0
VERTEX
8
0
10
58.6621580301096
20
22.714394037423
30
0
0
VERTEX
8
0
10
59.3067971293416
20
22.9690706589681
30
0
0
VERTEX
8
0
10
59.9514362285735
20
23.2520417227096
30
0
0
VERTEX
8
0
10
60.5960753278055
20
23.5347304708402
30
0
0
VERTEX
8
0
10
61.2407144270375
20
23.8233828876776
30
0
0
VERTEX
8
0
10
61.8853535262694
20
24.1177848466233
30
0
0
VERTEX
8
0
10
62.5299926255014
20
24.4266903189601
30
0
0
VERTEX
8
0
10
63.1746317247334
20
24.73864251313
30
0
0
VERTEX
8
0
10
63.8192708239654
20
25.0556170717644
30
0
0
VERTEX
8
0
10
64.4639099231973
20
25.3774258013244
30
0
0
VERTEX
8
0
10
65.1085490224293
20
25.7003937215205
30
0
0
VERTEX
8
0
10
65.7531881216613
20
26.0286223989234
30
0
0
VERTEX
8
0
10
66.3978272208933
20
26.3612935997154
30
0
0
VERTEX
8
0
10
67.0424663201252
20
26.6982412573402
30
0
0
VERTEX
8
0
10
67.6871054193572
20
27.0544787642264
30
0
0
VERTEX
8
0
10
68.3317445185892
20
27.4133362722715
30
0
0
VERTEX
8
0
10
68.9763836178212
20
27.7763079156951
30
0
0
VERTEX
8
0
10
69.6210227170531
20
28.1432345112743
30
0
0
VERTEX
8
0
10
70.2656618162851
20
28.5219996862318
30
0
0
VERTEX
8
0
10
70.9103009155171
20
28.9041228962267
30
0
0
VERTEX
8
0
10
71.5549400147491
20
29.2896907066254
30
0
0
VERTEX
8
0
10
72.199579113981
20
29.6785688666116
30
0
0
VERTEX
8
0
10
72.844218213213
20
30.0689396678078
30
0
0
VERTEX
8
0
10
73.488857312445
20
30.4622114709662
30
0
0
VERTEX
8
0
10
74.1334964116769
20
30.8583882358405
30
0
0
VERTEX
8
0
10
74.7781355109089
20
31.2573595043191
30
0
0
VERTEX
8
0
10
75.4227746101409
20
31.6432469553126
30
0
0
VERTEX
8
0
10
76.0674137093729
20
32.0286048213547
30
0
0
VERTEX
8
0
10
76.7120528086048
20
32.4163948029951
30
0
0
VERTEX
8
0
10
77.3566919078368
20
32.8065306537941
30
0
0
VERTEX
8
0
10
78.0013310070688
20
33.0969060325657
30
0
0
VERTEX
8
0
10
78.6459701063008
20
33.3527315865203
30
0
0
VERTEX
8
0
10
79.2906092055327
20
33.6092745507744
30
0
0
VERTEX
8
0
10
79.9352483047647
20
33.866518621923
30
0
0
VERTEX
8
0
10
80.5798874039967
20
34.1181888424531
30
0
0
VERTEX
8
0
10
81.2245265032286
20
34.3670675979818
30
0
0
VERTEX
8
0
10
81.8691656024606
20
34.6165579541189
30
0
0
VERTEX
8
0
10
82.5138047016926
20
34.8666467818339
30
0
0
VERTEX
8
0
10
83.1584438009246
20
35.1195280313207
30
0
0
VERTEX
8
0
10
83.8030829001565
20
35.3748048719045
30
0
0
VERTEX
8
0
10
84.4477219993885
20
35.6306705594015
30
0
0
VERTEX
8
0
10
85.0923610986205
20
35.8871124988424
30
0
0
VERTEX
8
0
10
85.7370001978525
20
36.1441184247345
30
0
0
VERTEX
8
0
10
86.3816392970844
20
36.3809204493808
30
0
0
VERTEX
8
0
10
87.0262783963164
20
36.6246465205891
30
0
0
VERTEX
8
0
10
87.6709174955484
20
36.8688165982257
30
0
0
VERTEX
8
0
10
88.3155565947804
20
37.1134219189056
30
0
0
VERTEX
8
0
10
88.9601956940123
20
37.262429802288
30
0
0
VERTEX
8
0
10
89.6048347932443
20
37.4371979760178
30
0
0
VERTEX
8
0
10
90.2494738924763
20
37.6123400021238
30
0
0
VERTEX
8
0
10
90.8941129917083
20
37.7878506823277
30
0
0
VERTEX
8
0
10
91.5387520909402
20
37.9905055863065
30
0
0
VERTEX
8
0
10
92.1833911901722
20
38.1877437810997
30
0
0
VERTEX
8
0
10
92.8280302894042
20
38.3851739488224
30
0
0
VERTEX
8
0
10
93.4726693886361
20
38.5827931424681
30
0
0
VERTEX
8
0
10
94.1173084878681
20
38.7430611294202
30
0
0
VERTEX
8
0
10
94.7619475871001
20
38.9090966757192
30
0
0
VERTEX
8
0
10
95.4065866863321
20
39.0754778611815
30
0
0
VERTEX
8
0
10
96.051225785564
20
39.2422002894291
30
0
0
VERTEX
8
0
10
96.695864884796
20
39.4198152626058
30
0
0
VERTEX
8
0
10
97.340503984028
20
39.5969109313992
30
0
0
VERTEX
8
0
10
97.98514308326
20
39.774203146706
30
0
0
VERTEX
8
0
10
98.6297821824919
20
39.9516892919034
30
0
0
VERTEX
8
0
10
99.2744212817239
20
40.0538927285963
30
0
0
VERTEX
8
0
10
99.9190603809559
20
40.1547418447563
30
0
0
VERTEX
8
0
10
100.563699480188
20
40.2560233993579
30
0
0
VERTEX
8
0
10
101.20833857942
20
40.3577341366655
30
0
0
VERTEX
8
0
10
101.852977678652
20
40.4700700731091
30
0
0
VERTEX
8
0
10
102.497616777884
20
40.5841375459082
30
0
0
VERTEX
8
0
10
103.142255877116
20
40.6985547627423
30
0
0
VERTEX
8
0
10
103.786894976348
20
40.8133187821644
30
0
0
VERTEX
8
0
10
104.43153407558
20
40.9267231320603
30
0
0
VERTEX
8
0
10
105.076173174812
20
41.0399956403479
30
0
0
VERTEX
8
0
10
105.720812274044
20
41.1535975664933
30
0
0
VERTEX
8
0
10
106.365451373276
20
41.2675261900161
30
0
0
VERTEX
8
0
10
107.010090472508
20
41.3625003856742
30
0
0
VERTEX
8
0
10
107.65472957174
20
41.4491030302607
30
0
0
VERTEX
8
0
10
108.299368670972
20
41.5359903499265
30
0
0
VERTEX
8
0
10
108.944007770204
20
41.6231605619151
30
0
0
VERTEX
8
0
10
109.588646869435
20
41.6863496164629
30
0
0
VERTEX
8
0
10
110.233285968667
20
41.7330897978493
30
0
0
VERTEX
8
0
10
110.877925067899
20
41.779900746977
30
0
0
VERTEX
8
0
10
111.522564167131
20
41.8267822262443
30
0
0
VERTEX
8
0
10
112.167203266363
20
41.8737339987564
30
0
0
VERTEX
8
0
10
112.811842365595
20
41.8986012157417
30
0
0
VERTEX
8
0
10
113.456481464827
20
41.9309195843592
30
0
0
VERTEX
8
0
10
114.101120564059
20
41.9633153029578
30
0
0
VERTEX
8
0
10
114.745759663291
20
41.9957881925333
30
0
0
VERTEX
8
0
10
115.390398762523
20
42.0314501624803
30
0
0
VERTEX
8
0
10
116.035037861755
20
42.0662998264105
30
0
0
VERTEX
8
0
10
116.679676960987
20
42.1012301282612
30
0
0
VERTEX
8
0
10
117.324316060219
20
42.1362408674896
30
0
0
VERTEX
8
0
10
117.968955159451
20
42.1973477910098
30
0
0
VERTEX
8
0
10
118.613594258683
20
42.252399808144
30
0
0
VERTEX
8
0
10
119.258233357915
20
42.3075157919665
30
0
0
VERTEX
8
0
10
119.902872457147
20
42.3626954928058
30
0
0
VERTEX
8
0
10
120.547511556379
20
42.4076867593941
30
0
0
VERTEX
8
0
10
121.192150655611
20
42.4546482991481
30
0
0
VERTEX
8
0
10
121.836789754843
20
42.5017770253172
30
0
0
VERTEX
8
0
10
122.481428854075
20
42.5490723823584
30
0
0
VERTEX
8
0
10
123.126067953307
20
42.6113903661384
30
0
0
VERTEX
8
0
10
123.770707052539
20
42.6722111845291
30
0
0
VERTEX
8
0
10
124.415346151771
20
42.7330864940406
30
0
0
VERTEX
8
0
10
125.059985251003
20
42.7940160621287
30
0
0
VERTEX
8
0
10
125.704624350235
20
42.8133994060869
30
0
0
VERTEX
8
0
10
126.349263449467
20
42.8337408190595
30
0
0
VERTEX
8
0
10
126.993902548699
20
42.8542052908644
30
0
0
VERTEX
8
0
10
127.638541647931
20
42.8747926452908
30
0
0
VERTEX
8
0
10
128.283180747163
20
42.9059100301669
30
0
0
VERTEX
8
0
10
128.927819846395
20
42.9379444687948
30
0
0
VERTEX
8
0
10
129.572458945627
20
42.9700477739919
30
0
0
VERTEX
8
0
10
130.217098044859
20
43.0022197915214
30
0
0
VERTEX
8
0
10
130.861737144091
20
43.0363409235088
30
0
0
VERTEX
8
0
10
131.506376243323
20
43.0709211291063
30
0
0
VERTEX
8
0
10
132.151015342554
20
43.1055731246683
30
0
0
VERTEX
8
0
10
132.795654441786
20
43.1402967372011
30
0
0
VERTEX
8
0
10
133.440293541018
20
43.1656639108015
30
0
0
VERTEX
8
0
10
134.08493264025
20
43.1877042677645
30
0
0
VERTEX
8
0
10
134.729571739482
20
43.2098464590724
30
0
0
VERTEX
8
0
10
135.374210838714
20
43.2320903282559
30
0
0
VERTEX
8
0
10
136.018849937946
20
43.2652132139962
30
0
0
VERTEX
8
0
10
136.663489037178
20
43.304516634784
30
0
0
VERTEX
8
0
10
137.30812813641
20
43.3438740739259
30
0
0
VERTEX
8
0
10
137.952767235642
20
43.3832853844052
30
0
0
VERTEX
8
0
10
138.597406334874
20
43.4121575991995
30
0
0
VERTEX
8
0
10
139.242045434106
20
43.4321890040396
30
0
0
VERTEX
8
0
10
139.886684533338
20
43.4523353705575
30
0
0
VERTEX
8
0
10
140.53132363257
20
43.4725965389245
30
0
0
VERTEX
8
0
10
141.175962731802
20
43.4929723486995
30
0
0
VERTEX
8
0
10
141.820601831034
20
43.5395228716163
30
0
0
VERTEX
8
0
10
142.465240930266
20
43.5780731192273
30
0
0
VERTEX
8
0
10
143.109880029498
20
43.6166811556718
30
0
0
VERTEX
8
0
10
143.75451912873
20
43.6553468276277
30
0
0
VERTEX
8
0
10
144.399158227962
20
43.6806441344344
30
0
0
VERTEX
8
0
10
145.043797327194
20
43.7095055681699
30
0
0
VERTEX
8
0
10
145.688436426426
20
43.7384402112657
30
0
0
VERTEX
8
0
10
146.333075525658
20
43.7674479185258
30
0
0
VERTEX
8
0
10
146.97771462489
20
43.7957151473602
30
0
0
VERTEX
8
0
10
147.622353724121
20
43.8242587813694
30
0
0
VERTEX
8
0
10
148.266992823353
20
43.8529088386071
30
0
0
VERTEX
8
0
10
148.911631922585
20
43.8816651106244
30
0
0
VERTEX
8
0
10
149.556271021817
20
43.9217878103918
30
0
0
VERTEX
8
0
10
150.200910121049
20
43.9603908629391
30
0
0
VERTEX
8
0
10
150.845549220281
20
43.9990303181799
30
0
0
VERTEX
8
0
10
151.490188319513
20
44.0377060802931
30
0
0
VERTEX
8
0
10
152.134827418745
20
44.060680882569
30
0
0
VERTEX
8
0
10
152.779466517977
20
44.0847420387791
30
0
0
VERTEX
8
0
10
153.424105617209
20
44.1089387836961
30
0
0
VERTEX
8
0
10
154.068744716441
20
44.1332708943043
30
0
0
VERTEX
8
0
10
154.713383815673
20
44.1684668502141
30
0
0
VERTEX
8
0
10
155.358022914905
20
44.2040233689921
30
0
0
SEQEND
8
0
0
POLYLINE
8
0
62
3
70
0
10
0
20
0
30
0
0
VERTEX
8
0
10
6.44639099231973
20
6.33275258419135
30
0
0
VERTEX
8
0
10
7.0910300915517
20
6.91147036394859
30
0
0
VERTEX
8
0
10
7.73566919078367
20
7.46134458314812
30
0
0
VERTEX
8
0
10
8.38030829001565
20
8.01606254268918
30
0
0
VERTEX
8
0
10
9.02494738924762
20
8.63905431442454
30
0
0
VERTEX
8
0
10
9.6695864884796
20
9.10773022340236
30
0
0
VERTEX
8
0
10
10.3142255877116
20
9.64511265194775
30
0
0
VERTEX
8
0
10
10.9588646869435
20
10.3615391338738
30
0
0
VERTEX
8
0
10
11.6035037861755
20
10.703881437318
30
0
0
VERTEX
8
0
10
12.2481428854075
20
11.2255775853054
30
0
0
VERTEX
8
0
10
12.8927819846395
20
12.0910851082763
30
0
0
VERTEX
8
0
10
13.5374210838714
20
12.4075441557266
30
0
0
VERTEX
8
0
10
14.1820601831034
20
12.8704781785108
30
0
0
VERTEX
8
0
10
14.8266992823354
20
13.8334298204863
30
0
0
VERTEX
8
0
10
15.4713383815674
20
14.201704384224
30
0
0
VERTEX
8
0
10
16.1159774807993
20
14.6930095611592
30
0
0
VERTEX
8
0
10
16.7606165800313
20
15.5885990450738
30
0
0
VERTEX
8
0
10
17.4052556792633
20
15.9981462994311
30
0
0
VERTEX
8
0
10
18.0498947784953
20
16.5113463050421
30
0
0
VERTEX
8
0
10
18.6945338777272
20
17.3543009277438
30
0
0
VERTEX
8
0
10
19.3391729769592
20
17.7960026767383
30
0
0
VERTEX
8
0
10
19.9838120761912
20
18.3258119139912
30
0
0
VERTEX
8
0
10
20.6284511754231
20
19.1278366415911
30
0
0
VERTEX
8
0
10
21.2730902746551
20
19.5945160358693
30
0
0
VERTEX
8
0
10
21.9177293738871
20
20.136918925175
30
0
0
VERTEX
8
0
10
22.5623684731191
20
20.9068109038527
30
0
0
VERTEX
8
0
10
23.207007572351
20
21.3930167701104
30
0
0
VERTEX
8
0
10
23.851646671583
20
21.9450304409312
30
0
0
VERTEX
8
0
10
24.496285770815
20
22.6892820642123
30
0
0
VERTEX
8
0
10
25.140924870047
20
23.1909049775478
30
0
0
VERTEX
8
0
10
25.7855639692789
20
23.75031086512
30
0
0
VERTEX
8
0
10
26.4302030685109
20
24.4737163995446
30
0
0
VERTEX
8
0
10
27.0748421677429
20
24.9876378953465
30
0
0
VERTEX
8
0
10
27.7194812669749
20
25.5527645236389
30
0
0
VERTEX
8
0
10
28.3641203662068
20
26.2588997159223
30
0
0
VERTEX
8
0
10
29.0087594654388
20
26.7827218377902
30
0
0
VERTEX
8
0
10
29.6533985646708
20
27.3522874030633
30
0
0
VERTEX
8
0
10
30.2980376639027
20
28.0438574083254
30
0
0
VERTEX
8
0
10
30.9426767631347
20
28.5757073174447
30
0
0
VERTEX
8
0
10
31.5873158623667
20
29.1487103753876
30
0
0
VERTEX
8
0
10
32.2319549615987
20
29.8277942640065
30
0
0
VERTEX
8
0
10
32.8765940608306
20
30.3661864301316
30
0
0
VERTEX
8
0
10
33.5212331600626
20
30.9418310021019
30
0
0
VERTEX
8
0
10
34.1658722592946
20
31.610052509647
30
0
0
VERTEX
8
0
10
34.8105113585266
20
32.1537919846783
30
0
0
VERTEX
8
0
10
35.4551504577585
20
32.7314362477409
30
0
0
VERTEX
8
0
10
36.0997895569905
20
33.3900838877546
30
0
0
VERTEX
8
0
10
36.7444286562225
20
33.9381981507861
30
0
0
VERTEX
8
0
10
37.3890677554545
20
34.5173191319006
30
0
0
VERTEX
8
0
10
38.0337068546864
20
35.1674319744544
30
0
0
VERTEX
8
0
10
38.6783459539184
20
35.7191226119408
30
0
0
VERTEX
8
0
10
39.3229850531504
20
36.299291857932
30
0
0
VERTEX
8
0
10
39.9676241523823
20
36.9417220532172
30
0
0
VERTEX
8
0
10
40.6122632516143
20
37.4963303951276
30
0
0
VERTEX
8
0
10
41.2569023508463
20
38.0771973759712
30
0
0
VERTEX
8
0
10
41.9015414500783
20
38.7126569071266
30
0
0
VERTEX
8
0
10
42.5461805493102
20
39.2696397479604
30
0
0
VERTEX
8
0
10
43.1908196485422
20
39.8509209666169
30
0
0
VERTEX
8
0
10
43.8354587477742
20
40.4800177677883
30
0
0
VERTEX
8
0
10
44.4800978470062
20
41.0389306980171
30
0
0
VERTEX
8
0
10
45.1247369462381
20
41.6204033300703
30
0
0
VERTEX
8
0
10
45.7693760454701
20
42.243670437596
30
0
0
VERTEX
8
0
10
46.4140151447021
20
42.804157323727
30
0
0
VERTEX
8
0
10
47.0586542439341
20
43.3856568665043
30
0
0
VERTEX
8
0
10
47.703293343166
20
44.0035774317352
30
0
0
VERTEX
8
0
10
48.347932442398
20
44.5653654067696
30
0
0
VERTEX
8
0
10
48.99257154163
20
45.1467874301749
30
0
0
VERTEX
8
0
10
49.637210640862
20
45.7598180885152
30
0
0
VERTEX
8
0
10
50.2818497400939
20
46.3227182373491
30
0
0
VERTEX
8
0
10
50.9264888393259
20
46.9040250703039
30
0
0
VERTEX
8
0
10
51.5711279385579
20
47.5126203522475
30
0
0
VERTEX
8
0
10
52.2157670377898
20
48.0765353504742
30
0
0
VERTEX
8
0
10
52.8604061370218
20
48.6577696867402
30
0
0
VERTEX
8
0
10
53.5050452362538
20
49.262411107692
30
0
0
VERTEX
8
0
10
54.1496843354858
20
49.8273528559133
30
0
0
VERTEX
8
0
10
54.7943234347177
20
50.4086624020333
30
0
0
VERTEX
8
0
10
55.4389625339497
20
51.0098982797768
30
0
0
VERTEX
8
0
10
56.0836016331817
20
51.5760221218161
30
0
0
VERTEX
8
0
10
56.7282407324137
20
52.1577039657511
30
0
0
VERTEX
8
0
10
57.3728798316456
20
52.7562118290828
30
0
0
VERTEX
8
0
10
58.0175189308776
20
53.3238820676856
30
0
0
VERTEX
8
0
10
58.6621580301096
20
53.9064664585671
30
0
0
VERTEX
8
0
10
59.3067971293416
20
54.5031650081976
30
0
0
VERTEX
8
0
10
59.9514362285735
20
55.0730879655072
30
0
0
VERTEX
8
0
10
60.5960753278055
20
55.6575121136858
30
0
0
VERTEX
8
0
10
61.2407144270375
20
56.2537950760441
30
0
0
VERTEX
8
0
10
61.8853535262694
20
56.827324677495
30
0
0
VERTEX
8
0
10
62.5299926255014
20
57.4153540734235
30
0
0
VERTEX
8
0
10
63.1746317247334
20
58.013690622227
30
0
0
VERTEX
8
0
10
63.8192708239654
20
58.5937021629223
30
0
0
VERTEX
8
0
10
64.4639099231973
20
59.1892743085806
30
0
0
VERTEX
8
0
10
65.1085490224293
20
59.795411381343
30
0
0
VERTEX
8
0
10
65.7531881216613
20
60.3902412139075
30
0
0
VERTEX
8
0
10
66.3978272208933
20
61.0075109359143
30
0
0
VERTEX
8
0
10
67.0424663201252
20
61.6460032142174
30
0
0
VERTEX
8
0
10
67.6871054193572
20
62.2658259862352
30
0
0
VERTEX
8
0
10
68.3317445185892
20
62.8716808987593
30
0
0
VERTEX
8
0
10
68.9763836178212
20
63.4615927112809
30
0
0
VERTEX
8
0
10
69.6210227170531
20
64.02603875307
30
0
0
VERTEX
8
0
10
70.2656618162851
20
64.5900299203218
30
0
0
VERTEX
8
0
10
70.9103009155171
20
65.1449940884456
30
0
0
VERTEX
8
0
10
71.5549400147491
20
65.6818236955488
30
0
0
VERTEX
8
0
10
72.199579113981
20
66.2206531458526
30
0
0
VERTEX
8
0
10
72.844218213213
20
66.7511438480147
30
0
0
VERTEX
8
0
10
73.488857312445
20
67.2673741474641
30
0
0
VERTEX
8
0
10
74.1334964116769
20
67.7862943412482
30
0
0
VERTEX
8
0
10
74.7781355109089
20
68.2965683330365
30
0
0
VERTEX
8
0
10
75.4227746101409
20
68.7954266496873
30
0
0
VERTEX
8
0
10
76.0674137093729
20
69.2971516393529
30
0
0
VERTEX
8
0
10
76.7120528086048
20
69.7896484853649
30
0
0
VERTEX
8
0
10
77.3566919078368
20
70.2730452250383
30
0
0
VERTEX
8
0
10
78.0013310070688
20
70.7592793196715
30
0
0
VERTEX
8
0
10
78.6459701063008
20
71.2356307606916
30
0
0
VERTEX
8
0
10
79.2906092055327
20
71.7048515567079
30
0
0
VERTEX
8
0
10
79.9352483047647
20
72.1767857965814
30
0
0
VERTEX
8
0
10
80.5798874039967
20
72.6381845100297
30
0
0
VERTEX
8
0
10
81.2245265032286
20
73.0941656774288
30
0
0
VERTEX
8
0
10
81.8691656024606
20
73.5526912020313
30
0
0
VERTEX
8
0
10
82.5138047016926
20
74.0000605862218
30
0
0
VERTEX
8
0
10
83.1584438009246
20
74.4435219748452
30
0
0
VERTEX
8
0
10
83.8030829001565
20
74.8893381176438
30
0
0
VERTEX
8
0
10
84.4477219993885
20
75.3234225623282
30
0
0
VERTEX
8
0
10
85.0923610986205
20
75.754940103854
30
0
0
VERTEX
8
0
10
85.7370001978525
20
76.1886155304367
30
0
0
VERTEX
8
0
10
86.3816392970844
20
76.6100334290524
30
0
0
VERTEX
8
0
10
87.0262783963164
20
77.0300823791356
30
0
0
VERTEX
8
0
10
87.6709174955484
20
77.4520925250648
30
0
0
VERTEX
8
0
10
88.3155565947804
20
77.8613697684929
30
0
0
VERTEX
8
0
10
88.9601956940123
20
78.2703522220961
30
0
0
VERTEX
8
0
10
89.6048347932443
20
78.6811036389634
30
0
0
VERTEX
8
0
10
90.2494738924763
20
79.0786959981124
30
0
0
VERTEX
8
0
10
90.8941129917083
20
79.4769593088842
30
0
0
VERTEX
8
0
10
91.5387520909402
20
79.8768062621708
30
0
0
VERTEX
8
0
10
92.1833911901722
20
80.2631150240416
30
0
0
VERTEX
8
0
10
92.8280302894042
20
80.6509646459358
30
0
0
VERTEX
8
0
10
93.4726693886361
20
81.0402208700177
30
0
0
VERTEX
8
0
10
94.1173084878681
20
81.4156041608175
30
0
0
VERTEX
8
0
10
94.7619475871001
20
81.7933129046517
30
0
0
VERTEX
8
0
10
95.4065866863321
20
82.1722601944685
30
0
0
VERTEX
8
0
10
96.051225785564
20
82.5370414271523
30
0
0
VERTEX
8
0
10
96.695864884796
20
82.9048563225032
30
0
0
VERTEX
8
0
10
97.340503984028
20
83.2737509821917
30
0
0
VERTEX
8
0
10
97.98514308326
20
83.6282253187952
30
0
0
VERTEX
8
0
10
98.6297821824919
20
83.986372824243
30
0
0
VERTEX
8
0
10
99.2744212817239
20
84.3454506191451
30
0
0
VERTEX
8
0
10
99.9190603809559
20
84.6898900218494
30
0
0
VERTEX
8
0
10
100.563699480188
20
85.0385800648523
30
0
0
VERTEX
8
0
10
101.20833857942
20
85.3880601011098
30
0
0
VERTEX
8
0
10
101.852977678652
20
85.7227173549532
30
0
0
VERTEX
8
0
10
102.497616777884
20
86.0621465232201
30
0
0
VERTEX
8
0
10
103.142255877116
20
86.4022343419217
30
0
0
VERTEX
8
0
10
103.786894976348
20
86.7273463121872
30
0
0
VERTEX
8
0
10
104.43153407558
20
87.0577004177414
30
0
0
VERTEX
8
0
10
105.076173174812
20
87.3885905029933
30
0
0
VERTEX
8
0
10
105.720812274044
20
87.7043808127071
30
0
0
VERTEX
8
0
10
106.365451373276
20
88.025836984421
30
0
0
VERTEX
8
0
10
107.010090472508
20
88.3477148271074
30
0
0
VERTEX
8
0
10
107.65472957174
20
88.6543960883565
30
0
0
VERTEX
8
0
10
108.299368670972
20
88.9671245050834
30
0
0
VERTEX
8
0
10
108.944007770204
20
89.2801683252625
30
0
0
VERTEX
8
0
10
109.588646869435
20
89.5779440228301
30
0
0
VERTEX
8
0
10
110.233285968667
20
89.8821093693583
30
0
0
VERTEX
8
0
10
110.877925067899
20
90.1864915735053
30
0
0
VERTEX
8
0
10
111.522564167131
20
90.4755576746789
30
0
0
VERTEX
8
0
10
112.167203266363
20
90.7713203819889
30
0
0
VERTEX
8
0
10
112.811842365595
20
91.0672088125073
30
0
0
VERTEX
8
0
10
113.456481464827
20
91.3477551594238
30
0
0
VERTEX
8
0
10
114.101120564059
20
91.6352724759937
30
0
0
VERTEX
8
0
10
114.745759663291
20
91.9228314970682
30
0
0
VERTEX
8
0
10
115.390398762523
20
92.1950430253873
30
0
0
VERTEX
8
0
10
116.035037861755
20
92.4744699557293
30
0
0
VERTEX
8
0
10
116.679676960987
20
92.7538614098055
30
0
0
VERTEX
8
0
10
117.324316060219
20
93.0179192283558
30
0
0
VERTEX
8
0
10
117.968955159451
20
93.2894093672502
30
0
0
VERTEX
8
0
10
118.613594258683
20
93.5607934294986
30
0
0
VERTEX
8
0
10
119.258233357915
20
93.8168757886024
30
0
0
VERTEX
8
0
10
119.902872457147
20
94.0805820739431
30
0
0
VERTEX
8
0
10
120.547511556379
20
94.3441180267897
30
0
0
VERTEX
8
0
10
121.192150655611
20
94.5924011982222
30
0
0
VERTEX
8
0
10
121.836789754843
20
94.8484766013042
30
0
0
VERTEX
8
0
10
122.481428854075
20
95.1043235474659
30
0
0
VERTEX
8
0
10
123.126067953307
20
95.3449826351195
30
0
0
VERTEX
8
0
10
123.770707052539
20
95.5935808043077
30
0
0
VERTEX
8
0
10
124.415346151771
20
95.8418983339637
30
0
0
VERTEX
8
0
10
125.059985251003
20
96.0751080318947
30
0
0
VERTEX
8
0
10
125.704624350235
20
96.3163839036102
30
0
0
VERTEX
8
0
10
126.349263449467
20
96.5573327297522
30
0
0
VERTEX
8
0
10
126.993902548699
20
96.7832680424164
30
0
0
VERTEX
8
0
10
127.638541647931
20
97.0173784321919
30
0
0
VERTEX
8
0
10
128.283180747163
20
97.2511210070129
30
0
0
VERTEX
8
0
10
128.927819846395
20
97.4699579456168
30
0
0
VERTEX
8
0
10
129.572458945627
20
97.6970621315327
30
0
0
VERTEX
8
0
10
130.217098044859
20
97.9237632564941
30
0
0
VERTEX
8
0
10
130.861737144091
20
98.1356795252351
30
0
0
VERTEX
8
0
10
131.506376243323
20
98.3559398362586
30
0
0
VERTEX
8
0
10
132.151015342554
20
98.575767279009
30
0
0
VERTEX
8
0
10
132.795654441786
20
98.7809429655155
30
0
0
VERTEX
8
0
10
133.440293541018
20
98.9945253884154
30
0
0
VERTEX
8
0
10
134.08493264025
20
99.2076505210298
30
0
0
VERTEX
8
0
10
134.729571739482
20
99.4062688070584
30
0
0
VERTEX
8
0
10
135.374210838714
20
99.6133436277624
30
0
0
VERTEX
8
0
10
136.018849937946
20
99.819942103463
30
0
0
VERTEX
8
0
10
136.663489037178
20
100.012190014887
30
0
0
VERTEX
8
0
10
137.30812813641
20
100.212932513767
30
0
0
VERTEX
8
0
10
137.952767235642
20
100.413185003487
30
0
0
VERTEX
8
0
10
138.597406334874
20
100.599254223462
30
0
0
VERTEX
8
0
10
139.242045434106
20
100.793845449963
30
0
0
VERTEX
8
0
10
139.886684533338
20
100.987938467
30
0
0
VERTEX
8
0
10
140.53132363257
20
101.168026244171
30
0
0
VERTEX
8
0
10
141.175962731802
20
101.356653905521
30
0
0
VERTEX
8
0
10
141.820601831034
20
101.544780757293
30
0
0
VERTEX
8
0
10
142.465240930266
20
101.719090953527
30
0
0
VERTEX
8
0
10
143.109880029498
20
101.901950467092
30
0
0
VERTEX
8
0
10
143.75451912873
20
102.084312390734
30
0
0
VERTEX
8
0
10
144.399158227962
20
102.253056733604
30
0
0
VERTEX
8
0
10
145.043797327194
20
102.43035251737
30
0
0
VERTEX
8
0
10
145.688436426426
20
102.607160085195
30
0
0
VERTEX
8
0
10
146.333075525658
20
102.770559725786
30
0
0
VERTEX
8
0
10
146.97771462489
20
102.942506843798
30
0
0
VERTEX
8
0
10
147.622353724121
20
103.11398177633
30
0
0
VERTEX
8
0
10
148.266992823353
20
103.272269315599
30
0
0
VERTEX
8
0
10
148.911631922585
20
103.439095672391
30
0
0
VERTEX
8
0
10
149.556271021817
20
103.60547329184
30
0
0
VERTEX
8
0
10
150.200910121049
20
103.758895557726
30
0
0
VERTEX
8
0
10
150.845549220281
20
103.920844985168
30
0
0
VERTEX
8
0
10
151.490188319513
20
104.082377732077
30
0
0
VERTEX
8
0
10
152.134827418745
20
104.231199833068
30
0
0
VERTEX
8
0
10
152.779466517977
20
104.388536729404
30
0
0
VERTEX
8
0
10
153.424105617209
20
104.545499581134
30
0
0
VERTEX
8
0
10
154.068744716441
20
104.69001131735
30
0
0
VERTEX
8
0
10
154.713383815673
20
104.843028250903
30
0
0
VERTEX
8
0
10
155.358022914905
20
104.995727920212
30
0
0
SEQEND
8
0
0
POLYLINE
8
0
62
4
70
0
10
0
20
0
30
0
0
VERTEX
8
0
10
6.44639099231973
20
5.49704518059914
30
0
0
VERTEX
8
0
10
7.0910300915517
20
6.04614970318031
30
0
0
VERTEX
8
0
10
7.73566919078367
20
6.5932889456284
30
0
0
VERTEX
8
0
10
8.38030829001565
20
7.13845897392697
30
0
0
VERTEX
8
0
10
9.02494738924762
20
7.68165816034179
30
0
0
VERTEX
8
0
10
9.6695864884796
20
8.23229414385687
30
0
0
VERTEX
8
0
10
10.3142255877116
20
8.77928343568457
30
0
0
VERTEX
8
0
10
10.9588646869435
20
9.3243636842125
30
0
0
VERTEX
8
0
10
11.6035037861755
20
9.86753208836272
30
0
0
VERTEX
8
0
10
12.2481428854075
20
10.3981832554078
30
0
0
VERTEX
8
0
10
12.8927819846395
20
10.9281047334808
30
0
0
VERTEX
8
0
10
13.5374210838714
20
11.4560596728127
30
0
0
VERTEX
8
0
10
14.1820601831034
20
11.982052187685
30
0
0
VERTEX
8
0
10
14.8266992823354
20
12.4897946470282
30
0
0
VERTEX
8
0
10
15.4713383815674
20
12.9961353372425
30
0
0
VERTEX
8
0
10
16.1159774807993
20
13.5004892288762
30
0
0
VERTEX
8
0
10
16.7606165800313
20
14.0028580806156
30
0
0
VERTEX
8
0
10
17.4052556792633
20
14.4869989277945
30
0
0
VERTEX
8
0
10
18.0498947784953
20
14.9681725093536
30
0
0
VERTEX
8
0
10
18.6945338777272
20
15.4473790613723
30
0
0
VERTEX
8
0
10
19.3391729769592
20
15.9246142017947
30
0
0
VERTEX
8
0
10
19.9838120761912
20
16.3998746276764
30
0
0
VERTEX
8
0
10
20.6284511754231
20
16.8731579587133
30
0
0
VERTEX
8
0
10
21.2730902746551
20
17.3444626081207
30
0
0
VERTEX
8
0
10
21.9177293738871
20
17.8137876754581
30
0
0
VERTEX
8
0
10
22.5623684731191
20
18.2811328571802
30
0
0
VERTEX
8
0
10
23.207007572351
20
18.7464983715996
30
0
0
VERTEX
8
0
10
23.851646671583
20
19.2098848956308
30
0
0
VERTEX
8
0
10
24.496285770815
20
19.6712935112261
30
0
0
VERTEX
8
0
10
25.140924870047
20
20.1429461635981
30
0
0
VERTEX
8
0
10
25.7855639692789
20
20.6190979285027
30
0
0
VERTEX
8
0
10
26.4302030685109
20
21.093317597981
30
0
0
VERTEX
8
0
10
27.0748421677429
20
21.5656099379858
30
0
0
VERTEX
8
0
10
27.7194812669749
20
25.1932346590725
30
0
0
VERTEX
8
0
10
28.3641203662068
20
25.9569387255382
30
0
0
VERTEX
8
0
10
29.0087594654388
20
26.541209802301
30
0
0
VERTEX
8
0
10
29.6533985646708
20
27.1766769218388
30
0
0
VERTEX
8
0
10
30.2980376639027
20
27.9392338410712
30
0
0
VERTEX
8
0
10
30.9426767631347
20
28.5495811741747
30
0
0
VERTEX
8
0
10
31.5873158623667
20
29.2040561305205
30
0
0
VERTEX
8
0
10
32.2319549615987
20
29.9679660427136
30
0
0
VERTEX
8
0
10
32.8765940608306
20
30.5952828935958
30
0
0
VERTEX
8
0
10
33.5212331600626
20
31.2542811356952
30
0
0
VERTEX
8
0
10
34.1658722592946
20
32.0101216701944
30
0
0
VERTEX
8
0
10
34.8105113585266
20
32.6458119195175
30
0
0
VERTEX
8
0
10
35.4551504577585
20
33.3177550485081
30
0
0
VERTEX
8
0
10
36.0997895569905
20
33.9397590596403
30
0
0
VERTEX
8
0
10
36.7444286562225
20
34.4824994487639
30
0
0
VERTEX
8
0
10
37.3890677554545
20
35.0570258269646
30
0
0
VERTEX
8
0
10
38.0337068546864
20
35.7027232953689
30
0
0
VERTEX
8
0
10
38.6783459539184
20
36.1874764556943
30
0
0
VERTEX
8
0
10
39.3229850531504
20
36.7124397196544
30
0
0
VERTEX
8
0
10
39.9676241523823
20
37.301259542133
30
0
0
VERTEX
8
0
10
40.6122632516143
20
37.8052865576742
30
0
0
VERTEX
8
0
10
41.2569023508463
20
38.3443850469872
30
0
0
VERTEX
8
0
10
41.9015414500783
20
38.9391000480472
30
0
0
VERTEX
8
0
10
42.5461805493102
20
39.4576426158936
30
0
0
VERTEX
8
0
10
43.1908196485422
20
40.0021010818109
30
0
0
VERTEX
8
0
10
43.8354587477742
20
40.5051327723937
30
0
0
VERTEX
8
0
10
44.4800978470062
20
41.0081179337298
30
0
0
VERTEX
8
0
10
45.1247369462381
20
41.5118405073567
30
0
0
VERTEX
8
0
10
45.7693760454701
20
41.9972116646595
30
0
0
VERTEX
8
0
10
46.4140151447021
20
42.5210234475143
30
0
0
VERTEX
8
0
10
47.0586542439341
20
43.048462990526
30
0
0
VERTEX
8
0
10
47.703293343166
20
43.5575239381208
30
0
0
VERTEX
8
0
10
48.347932442398
20
44.0857167418082
30
0
0
VERTEX
8
0
10
48.99257154163
20
44.6251581151129
30
0
0
VERTEX
8
0
10
49.637210640862
20
45.1493472512291
30
0
0
VERTEX
8
0
10
50.2818497400939
20
45.6940459920078
30
0
0
VERTEX
8
0
10
50.9264888393259
20
46.2406314969697
30
0
0
VERTEX
8
0
10
51.5711279385579
20
46.7668317468166
30
0
0
VERTEX
8
0
10
52.2157670377898
20
47.3127159621915
30
0
0
VERTEX
8
0
10
52.8604061370218
20
47.8601041413705
30
0
0
VERTEX
8
0
10
53.5050452362538
20
48.3883536576696
30
0
0
VERTEX
8
0
10
54.1496843354858
20
48.9405828065417
30
0
0
VERTEX
8
0
10
54.7943234347177
20
49.496456727967
30
0
0
VERTEX
8
0
10
55.4389625339497
20
50.0328774406933
30
0
0
VERTEX
8
0
10
56.0836016331817
20
50.5902963251566
30
0
0
VERTEX
8
0
10
56.7282407324137
20
51.1502344984734
30
0
0
VERTEX
8
0
10
57.3728798316456
20
51.6922574389233
30
0
0
VERTEX
8
0
10
58.0175189308776
20
52.256467343429
30
0
0
VERTEX
8
0
10
58.6621580301096
20
52.82280775717
30
0
0
VERTEX
8
0
10
59.3067971293416
20
53.3697675490737
30
0
0
VERTEX
8
0
10
59.9514362285735
20
53.9487805558931
30
0
0
VERTEX
8
0
10
60.5960753278055
20
54.5272954607713
30
0
0
VERTEX
8
0
10
61.2407144270375
20
55.086355848325
30
0
0
VERTEX
8
0
10
61.8853535262694
20
55.6680223498626
30
0
0
VERTEX
8
0
10
62.5299926255014
20
56.2555857741271
30
0
0
VERTEX
8
0
10
63.1746317247334
20
56.8222454841602
30
0
0
VERTEX
8
0
10
63.8192708239654
20
57.4114443074614
30
0
0
VERTEX
8
0
10
64.4639099231973
20
58.0023602932455
30
0
0
VERTEX
8
0
10
65.1085490224293
20
58.5713637485243
30
0
0
VERTEX
8
0
10
65.7531881216613
20
59.16321963977
30
0
0
VERTEX
8
0
10
66.3978272208933
20
59.7566168623309
30
0
0
VERTEX
8
0
10
67.0424663201252
20
60.3291703016614
30
0
0
VERTEX
8
0
10
67.6871054193572
20
60.9298553317432
30
0
0
VERTEX
8
0
10
68.3317445185892
20
61.5290455483232
30
0
0
VERTEX
8
0
10
68.9763836178212
20
62.1054788137879
30
0
0
VERTEX
8
0
10
69.6210227170531
20
62.7019396556409
30
0
0
VERTEX
8
0
10
70.2656618162851
20
63.3010454203809
30
0
0
VERTEX
8
0
10
70.9103009155171
20
63.8775914902332
30
0
0
VERTEX
8
0
10
71.5549400147491
20
64.4737867614027
30
0
0
VERTEX
8
0
10
72.199579113981
20
65.068953744195
30
0
0
VERTEX
8
0
10
72.844218213213
20
65.6412046355288
30
0
0
VERTEX
8
0
10
73.488857312445
20
66.2326623246741
30
0
0
VERTEX
8
0
10
74.1334964116769
20
66.8230285158862
30
0
0
VERTEX
8
0
10
74.7781355109089
20
67.3915457131558
30
0
0
VERTEX
8
0
10
75.4227746101409
20
67.9716291757654
30
0
0
VERTEX
8
0
10
76.0674137093729
20
68.5490760143072
30
0
0
VERTEX
8
0
10
76.7120528086048
20
69.1048894767255
30
0
0
VERTEX
8
0
10
77.3566919078368
20
69.6791812928877
30
0
0
VERTEX
8
0
10
78.0013310070688
20
70.2040769014341
30
0
0
VERTEX
8
0
10
78.6459701063008
20
70.6900457335944
30
0
0
VERTEX
8
0
10
79.2906092055327
20
71.1932409406614
30
0
0
VERTEX
8
0
10
79.9352483047647
20
71.6942524486132
30
0
0
VERTEX
8
0
10
80.5798874039967
20
72.1703093665585
30
0
0
VERTEX
8
0
10
81.2245265032286
20
72.6617361866388
30
0
0
VERTEX
8
0
10
81.8691656024606
20
73.1509860559086
30
0
0
VERTEX
8
0
10
82.5138047016926
20
73.6185180516999
30
0
0
VERTEX
8
0
10
83.1584438009246
20
74.1038675123198
30
0
0
VERTEX
8
0
10
83.8030829001565
20
74.5879378959117
30
0
0
VERTEX
8
0
10
84.4477219993885
20
75.0506095398157
30
0
0
VERTEX
8
0
10
85.0923610986205
20
75.5298552092481
30
0
0
VERTEX
8
0
10
85.7370001978525
20
76.0070030365406
30
0
0
VERTEX
8
0
10
86.3816392970844
20
76.4531733816355
30
0
0
VERTEX
8
0
10
87.0262783963164
20
76.9187285404709
30
0
0
VERTEX
8
0
10
87.6709174955484
20
77.3821642481141
30
0
0
VERTEX
8
0
10
88.3155565947804
20
77.8247409852414
30
0
0
VERTEX
8
0
10
88.9601956940123
20
78.2376370264956
30
0
0
VERTEX
8
0
10
89.6048347932443
20
78.6605247399701
30
0
0
VERTEX
8
0
10
90.2494738924763
20
79.0627970130694
30
0
0
VERTEX
8
0
10
90.8941129917083
20
79.4809512176565
30
0
0
VERTEX
8
0
10
91.5387520909402
20
79.9097476375612
30
0
0
VERTEX
8
0
10
92.1833911901722
20
80.3154429661357
30
0
0
VERTEX
8
0
10
92.8280302894042
20
80.7367405368607
30
0
0
VERTEX
8
0
10
93.4726693886361
20
81.1558946964471
30
0
0
VERTEX
8
0
10
94.1173084878681
20
81.5370473668106
30
0
0
VERTEX
8
0
10
94.7619475871001
20
81.9362701894246
30
0
0
VERTEX
8
0
10
95.4065866863321
20
82.3334641043894
30
0
0
VERTEX
8
0
10
96.051225785564
20
82.7108428682298
30
0
0
VERTEX
8
0
10
96.695864884796
20
83.1085279608641
30
0
0
VERTEX
8
0
10
97.340503984028
20
83.5037982546672
30
0
0
VERTEX
8
0
10
97.98514308326
20
83.8794485366973
30
0
0
VERTEX
8
0
10
98.6297821824919
20
84.2701375699481
30
0
0
VERTEX
8
0
10
99.2744212817239
20
84.6230288787644
30
0
0
VERTEX
8
0
10
99.9190603809559
20
84.9558821464525
30
0
0
VERTEX
8
0
10
100.563699480188
20
85.3037618363667
30
0
0
VERTEX
8
0
10
101.20833857942
20
85.6497902942117
30
0
0
VERTEX
8
0
10
101.852977678652
20
85.9816588943119
30
0
0
VERTEX
8
0
10
102.497616777884
20
86.3289675958536
30
0
0
VERTEX
8
0
10
103.142255877116
20
86.6743910954531
30
0
0
VERTEX
8
0
10
103.786894976348
20
87.0010452238699
30
0
0
VERTEX
8
0
10
104.43153407558
20
87.34150155682
30
0
0
VERTEX
8
0
10
105.076173174812
20
87.6798695042868
30
0
0
VERTEX
8
0
10
105.720812274044
20
87.9997058210303
30
0
0
VERTEX
8
0
10
106.365451373276
20
88.3339502945008
30
0
0
VERTEX
8
0
10
107.010090472508
20
88.6573455218797
30
0
0
VERTEX
8
0
10
107.65472957174
20
88.9584172735792
30
0
0
VERTEX
8
0
10
108.299368670972
20
89.2737226121441
30
0
0
VERTEX
8
0
10
108.944007770204
20
89.5872066082208
30
0
0
VERTEX
8
0
10
109.588646869435
20
89.8713896668437
30
0
0
VERTEX
8
0
10
110.233285968667
20
90.1619099327527
30
0
0
VERTEX
8
0
10
110.877925067899
20
90.4505934516214
30
0
0
VERTEX
8
0
10
111.522564167131
20
90.7214240872496
30
0
0
VERTEX
8
0
10
112.167203266363
20
91.0060877071502
30
0
0
VERTEX
8
0
10
112.811842365595
20
91.2787582797819
30
0
0
VERTEX
8
0
10
113.456481464827
20
91.5372240005366
30
0
0
VERTEX
8
0
10
114.101120564059
20
91.8093739185006
30
0
0
VERTEX
8
0
10
114.745759663291
20
92.0797491090182
30
0
0
VERTEX
8
0
10
115.390398762523
20
92.3341676801627
30
0
0
VERTEX
8
0
10
116.035037861755
20
92.6016797027056
30
0
0
VERTEX
8
0
10
116.679676960987
20
92.8674304725731
30
0
0
VERTEX
8
0
10
117.324316060219
20
93.11603369825
30
0
0
VERTEX
8
0
10
117.968955159451
20
93.3897080097284
30
0
0
VERTEX
8
0
10
118.613594258683
20
93.6588305976223
30
0
0
VERTEX
8
0
10
119.258233357915
20
93.9110033543985
30
0
0
VERTEX
8
0
10
119.902872457147
20
94.176272203396
30
0
0
VERTEX
8
0
10
120.547511556379
20
94.4351754069807
30
0
0
VERTEX
8
0
10
121.192150655611
20
94.6782368922702
30
0
0
VERTEX
8
0
10
121.836789754843
20
94.9342683411837
30
0
0
VERTEX
8
0
10
122.481428854075
20
95.1886179006252
30
0
0
VERTEX
8
0
10
123.126067953307
20
95.433186253722
30
0
0
VERTEX
8
0
10
123.770707052539
20
95.6897796332673
30
0
0
VERTEX
8
0
10
124.415346151771
20
95.9446477466757
30
0
0
VERTEX
8
0
10
125.059985251003
20
96.1832827891087
30
0
0
VERTEX
8
0
10
125.704624350235
20
96.4159710501194
30
0
0
VERTEX
8
0
10
126.349263449467
20
96.6474173268006
30
0
0
VERTEX
8
0
10
126.993902548699
20
96.8629559464987
30
0
0
VERTEX
8
0
10
127.638541647931
20
97.0909303144449
30
0
0
VERTEX
8
0
10
128.283180747163
20
97.321900801153
30
0
0
VERTEX
8
0
10
128.927819846395
20
97.5375372865048
30
0
0
VERTEX
8
0
10
129.572458945627
20
97.7653858574586
30
0
0
VERTEX
8
0
10
130.217098044859
20
97.9916263987232
30
0
0
VERTEX
8
0
10
130.861737144091
20
98.2032271988793
30
0
0
VERTEX
8
0
10
131.506376243323
20
98.4270249336232
30
0
0
VERTEX
8
0
10
132.151015342554
20
98.6492393375956
30
0
0
VERTEX
8
0
10
132.795654441786
20
98.8562360957323
30
0
0
VERTEX
8
0
10
133.440293541018
20
99.0709678732765
30
0
0
VERTEX
8
0
10
134.08493264025
20
99.2826777336064
30
0
0
VERTEX
8
0
10
134.729571739482
20
99.4794475149829
30
0
0
VERTEX
8
0
10
135.374210838714
20
99.6879072130819
30
0
0
VERTEX
8
0
10
136.018849937946
20
99.8995359635747
30
0
0
VERTEX
8
0
10
136.663489037178
20
100.099090869177
30
0
0
VERTEX
8
0
10
137.30812813641
20
100.310112175331
30
0
0
VERTEX
8
0
10
137.952767235642
20
100.519624826735
30
0
0
VERTEX
8
0
10
138.597406334874
20
100.710095751183
30
0
0
VERTEX
8
0
10
139.242045434106
20
100.908031997284
30
0
0
VERTEX
8
0
10
139.886684533338
20
101.104539657425
30
0
0
VERTEX
8
0
10
140.53132363257
20
101.286873403488
30
0
0
VERTEX
8
0
10
141.175962731802
20
101.480355812819
30
0
0
VERTEX
8
0
10
141.820601831034
20
101.683596845002
30
0
0
VERTEX
8
0
10
142.465240930266
20
101.869423948782
30
0
0
VERTEX
8
0
10
143.109880029498
20
102.06617396867
30
0
0
VERTEX
8
0
10
143.75451912873
20
102.261517538506
30
0
0
VERTEX
8
0
10
144.399158227962
20
102.437436524334
30
0
0
VERTEX
8
0
10
145.043797327194
20
102.625602107243
30
0
0
VERTEX
8
0
10
145.688436426426
20
102.812412680226
30
0
0
VERTEX
8
0
10
146.333075525658
20
102.985800647667
30
0
0
VERTEX
8
0
10
146.97771462489
20
103.169418390788
30
0
0
VERTEX
8
0
10
147.622353724121
20
103.351804553977
30
0
0
VERTEX
8
0
10
148.266992823353
20
103.521045604041
30
0
0
VERTEX
8
0
10
148.911631922585
20
103.700695793709
30
0
0
VERTEX
8
0
10
149.556271021817
20
103.883840070367
30
0
0
VERTEX
8
0
10
150.200910121049
20
104.053408933062
30
0
0
VERTEX
8
0
10
150.845549220281
20
104.233169383461
30
0
0
VERTEX
8
0
10
151.490188319513
20
104.41166600277
30
0
0
VERTEX
8
0
10
152.134827418745
20
104.570882386521
30
0
0
VERTEX
8
0
10
152.779466517977
20
104.740565111433
30
0
0
VERTEX
8
0
10
153.424105617209
20
104.909078428474
30
0
0
VERTEX
8
0
10
154.068744716441
20
105.065263493165
30
0
0
VERTEX
8
0
10
154.713383815673
20
105.235838031488
30
0
0
VERTEX
8
0
10
155.358022914905
20
105.405370848794
30
0
0
SEQEND
8
0
0
POLYLINE
8
0
62
2
70
0
10
0
20
0
30
0
0
VERTEX
8
0
10
6.44639099231973
20
4.40527811377975
30
0
0
VERTEX
8
0
10
7.0910300915517
20
4.76526678756849
30
0
0
VERTEX
8
0
10
7.73566919078367
20
5.11782555361805
30
0
0
VERTEX
8
0
10
8.38030829001565
20
5.46345233212349
30
0
0
VERTEX
8
0
10
9.02494738924762
20
5.80254580208285
30
0
0
VERTEX
8
0
10
9.6695864884796
20
6.13544519327782
30
0
0
VERTEX
8
0
10
10.3142255877116
20
6.46244931687707
30
0
0
VERTEX
8
0
10
10.9588646869435
20
6.78382605546444
30
0
0
VERTEX
8
0
10
11.6035037861755
20
7.09981762274588
30
0
0
VERTEX
8
0
10
12.2481428854075
20
7.41064398507066
30
0
0
VERTEX
8
0
10
12.8927819846395
20
7.71650546362141
30
0
0
VERTEX
8
0
10
13.5374210838714
20
8.01758492368837
30
0
0
VERTEX
8
0
10
14.1820601831034
20
8.31404970049783
30
0
0
VERTEX
8
0
10
14.8266992823354
20
8.60605331341892
30
0
0
VERTEX
8
0
10
15.4713383815674
20
8.89373698940401
30
0
0
VERTEX
8
0
10
16.1159774807993
20
9.17723100870092
30
0
0
VERTEX
8
0
10
16.7606165800313
20
9.45665588754882
30
0
0
VERTEX
8
0
10
17.4052556792633
20
9.73212341322407
30
0
0
VERTEX
8
0
10
18.0498947784953
20
10.0037375484552
30
0
0
VERTEX
8
0
10
18.6945338777272
20
10.2715952213377
30
0
0
VERTEX
8
0
10
19.3391729769592
20
10.5357870157534
30
0
0
VERTEX
8
0
10
19.9838120761912
20
10.7963977763966
30
0
0
VERTEX
8
0
10
20.6284511754231
20
11.0535071398637
30
0
0
VERTEX
8
0
10
21.2730902746551
20
11.3071900025976
30
0
0
VERTEX
8
0
10
21.9177293738871
20
11.5575169342955
30
0
0
VERTEX
8
0
10
22.5623684731191
20
11.8045545443425
30
0
0
VERTEX
8
0
10
23.207007572351
20
12.0483658079004
30
0
0
VERTEX
8
0
10
23.851646671583
20
12.2890103565535
30
0
0
VERTEX
8
0
10
24.496285770815
20
12.5265447387767
30
0
0
VERTEX
8
0
10
25.140924870047
20
12.7610226535126
30
0
0
VERTEX
8
0
10
25.7855639692789
20
12.9924951605263
30
0
0
VERTEX
8
0
10
26.4302030685109
20
13.2210108703567
30
0
0
VERTEX
8
0
10
27.0748421677429
20
13.4466161162219
30
0
0
VERTEX
8
0
10
27.7194812669749
20
13.6693551099306
30
0
0
VERTEX
8
0
10
28.3641203662068
20
13.8892700838434
30
0
0
VERTEX
8
0
10
29.0087594654388
20
14.1064014200693
30
0
0
VERTEX
8
0
10
29.6533985646708
20
14.3207877687213
30
0
0
VERTEX
8
0
10
30.2980376639027
20
14.5324661560755
30
0
0
VERTEX
8
0
10
30.9426767631347
20
14.7414720837514
30
0
0
VERTEX
8
0
10
31.5873158623667
20
14.9478396198639
30
0
0
VERTEX
8
0
10
32.2319549615987
20
15.1516014830999
30
0
0
VERTEX
8
0
10
32.8765940608306
20
15.3527891200372
30
0
0
VERTEX
8
0
10
33.5212331600626
20
15.5514327767274
30
0
0
VERTEX
8
0
10
34.1658722592946
20
15.7475615648801
30
0
0
VERTEX
8
0
10
34.8105113585266
20
15.9412035232009
30
0
0
VERTEX
8
0
10
35.4551504577585
20
16.1323856743493
30
0
0
VERTEX
8
0
10
36.0997895569905
20
16.3211340778066
30
0
0
VERTEX
8
0
10
36.7444286562225
20
16.5074738791717
30
0
0
VERTEX
8
0
10
37.3890677554545
20
16.6914293560325
30
0
0
VERTEX
8
0
10
38.0337068546864
20
16.8730239608011
30
0
0
VERTEX
8
0
10
38.6783459539184
20
17.0522803607112
30
0
0
VERTEX
8
0
10
39.3229850531504
20
17.2292204752738
30
0
0
VERTEX
8
0
10
39.9676241523823
20
17.4038655113083
30
0
0
VERTEX
8
0
10
40.6122632516143
20
17.5762359957801
30
0
0
VERTEX
8
0
10
41.2569023508463
20
17.7463518066917
30
0
0
VERTEX
8
0
10
41.9015414500783
20
17.9142322020313
30
0
0
VERTEX
8
0
10
42.5461805493102
20
18.0798958469741
30
0
0
VERTEX
8
0
10
43.1908196485422
20
18.2433608395911
30
0
0
VERTEX
8
0
10
43.8354587477742
20
18.4046447350376
30
0
0
VERTEX
8
0
10
44.4800978470062
20
18.5637645682554
30
0
0
VERTEX
8
0
10
45.1247369462381
20
18.7207368755817
30
0
0
VERTEX
8
0
10
45.7693760454701
20
18.8755777150343
30
0
0
VERTEX
8
0
10
46.4140151447021
20
19.0283026855625
30
0
0
VERTEX
8
0
10
47.0586542439341
20
19.1789269452268
30
0
0
VERTEX
8
0
10
47.703293343166
20
19.3274652284236
30
0
0
VERTEX
8
0
10
48.347932442398
20
19.4739318622854
30
0
0
VERTEX
8
0
10
48.99257154163
20
19.6183407820866
30
0
0
VERTEX
8
0
10
49.637210640862
20
19.7607055460354
30
0
0
VERTEX
8
0
10
50.2818497400939
20
19.9010393492374
30
0
0
VERTEX
8
0
10
50.9264888393259
20
20.0393550369697
30
0
0
VERTEX
8
0
10
51.5711279385579
20
20.1756651173417
30
0
0
VERTEX
8
0
10
52.2157670377898
20
20.3099817733755
30
0
0
VERTEX
8
0
10
52.8604061370218
20
20.4423168744096
30
0
0
VERTEX
8
0
10
53.5050452362538
20
20.5726819871071
30
0
0
VERTEX
8
0
10
54.1496843354858
20
20.7010883858454
30
0
0
VERTEX
8
0
10
54.7943234347177
20
20.8275470627346
30
0
0
VERTEX
8
0
10
55.4389625339497
20
20.9520687371299
30
0
0
VERTEX
8
0
10
56.0836016331817
20
21.0746638646757
30
0
0
VERTEX
8
0
10
56.7282407324137
20
21.1953426460799
30
0
0
VERTEX
8
0
10
57.3728798316456
20
21.3141150354248
30
0
0
VERTEX
8
0
10
58.0175189308776
20
21.4309907481613
30
0
0
VERTEX
8
0
10
58.6621580301096
20
21.5459792687615
30
0
0
VERTEX
8
0
10
59.3067971293416
20
21.6590898580131
30
0
0
VERTEX
8
0
10
59.9514362285735
20
21.7703315601323
30
0
0
VERTEX
8
0
10
60.5960753278055
20
21.8797132094519
30
0
0
VERTEX
8
0
10
61.2407144270375
20
21.9872434369983
30
0
0
VERTEX
8
0
10
61.8853535262694
20
22.0929306766477
30
0
0
VERTEX
8
0
10
62.5299926255014
20
22.1967831712071
30
0
0
VERTEX
8
0
10
63.1746317247334
20
22.2988089781476
30
0
0
VERTEX
8
0
10
63.8192708239654
20
22.3990159751907
30
0
0
VERTEX
8
0
10
64.4639099231973
20
22.497411865677
30
0
0
VERTEX
8
0
10
65.1085490224293
20
22.5940041837582
30
0
0
VERTEX
8
0
10
65.7531881216613
20
22.6888002993707
30
0
0
VERTEX
8
0
10
66.3978272208933
20
22.7818074230521
30
0
0
VERTEX
8
0
10
67.0424663201252
20
22.8730326106397
30
0
0
VERTEX
8
0
10
67.6871054193572
20
22.9624827677456
30
0
0
VERTEX
8
0
10
68.3317445185892
20
23.0501646541208
30
0
0
VERTEX
8
0
10
68.9763836178212
20
23.1360848879121
30
0
0
VERTEX
8
0
10
69.6210227170531
20
23.2202499497046
30
0
0
VERTEX
8
0
10
70.2656618162851
20
23.3026661865303
30
0
0
VERTEX
8
0
10
70.9103009155171
20
23.3833398157066
30
0
0
VERTEX
8
0
10
71.5549400147491
20
23.4622769285785
30
0
0
VERTEX
8
0
10
72.199579113981
20
23.5394834941473
30
0
0
VERTEX
8
0
10
72.844218213213
20
23.6149653626237
30
0
0
VERTEX
8
0
10
73.488857312445
20
23.6887282688563
30
0
0
VERTEX
8
0
10
74.1334964116769
20
23.7607778356983
30
0
0
VERTEX
8
0
10
74.7781355109089
20
23.831119577278
30
0
0
VERTEX
8
0
10
75.4227746101409
20
23.8997589021867
30
0
0
VERTEX
8
0
10
76.0674137093729
20
23.9667011166079
30
0
0
VERTEX
8
0
10
76.7120528086048
20
24.0319514273679
30
0
0
VERTEX
8
0
10
77.3566919078368
20
24.095514944923
30
0
0
VERTEX
8
0
10
78.0013310070688
20
24.1573966863011
30
0
0
VERTEX
8
0
10
78.6459701063008
20
24.2176015779415
30
0
0
VERTEX
8
0
10
79.2906092055327
20
24.2761344585595
30
0
0
VERTEX
8
0
10
79.9352483047647
20
24.3330000818886
30
0
0
VERTEX
8
0
10
80.5798874039967
20
24.3882031194227
30
0
0
VERTEX
8
0
10
81.2245265032286
20
24.4417481630967
30
0
0
VERTEX
8
0
10
81.8691656024606
20
24.4936397279673
30
0
0
VERTEX
8
0
10
82.5138047016926
20
24.5438822547915
30
0
0
VERTEX
8
0
10
83.1584438009246
20
24.5924801126633
30
0
0
VERTEX
8
0
10
83.8030829001565
20
24.6394376015413
30
0
0
VERTEX
8
0
10
84.4477219993885
20
24.6847589548084
30
0
0
VERTEX
8
0
10
85.0923610986205
20
24.7284483418191
30
0
0
VERTEX
8
0
10
85.7370001978525
20
24.7705098703656
30
0
0
VERTEX
8
0
10
86.3816392970844
20
24.8109475892191
30
0
0
VERTEX
8
0
10
87.0262783963164
20
24.8497654906078
30
0
0
VERTEX
8
0
10
87.6709174955484
20
24.8869675126869
30
0
0
VERTEX
8
0
10
88.3155565947804
20
24.9225575420502
30
0
0
VERTEX
8
0
10
88.9601956940123
20
24.9565394162023
30
0
0
VERTEX
8
0
10
89.6048347932443
20
24.988916926063
30
0
0
VERTEX
8
0
10
90.2494738924763
20
25.0196938184605
30
0
0
VERTEX
8
0
10
90.8941129917083
20
25.0488737986576
30
0
0
VERTEX
8
0
10
91.5387520909402
20
25.0764605328876
30
0
0
VERTEX
8
0
10
92.1833911901722
20
25.1024576509003
30
0
0
VERTEX
8
0
10
92.8280302894042
20
25.1268687485488
30
0
0
VERTEX
8
0
10
93.4726693886361
20
25.1496973903992
30
0
0
VERTEX
8
0
10
94.1173084878681
20
25.1709471123656
30
0
0
VERTEX
8
0
10
94.7619475871001
20
25.1906214243948
30
0
0
VERTEX
8
0
10
95.4065866863321
20
25.2087238131816
30
0
0
VERTEX
8
0
10
96.051225785564
20
25.2252577449324
30
0
0
VERTEX
8
0
10
96.695864884796
20
25.240226668184
30
0
0
VERTEX
8
0
10
97.340503984028
20
25.2536340166724
30
0
0
VERTEX
8
0
10
97.98514308326
20
25.2654832122566
30
0
0
VERTEX
8
0
10
98.6297821824919
20
25.2757776679228
30
0
0
VERTEX
8
0
10
99.2744212817239
20
25.284520790837
30
0
0
VERTEX
8
0
10
99.9190603809559
20
25.2917159854995
30
0
0
VERTEX
8
0
10
100.563699480188
20
25.2973666569525
30
0
0
VERTEX
8
0
10
101.20833857942
20
25.3014762140923
30
0
0
VERTEX
8
0
10
101.852977678652
20
25.3040480730798
30
0
0
VERTEX
8
0
10
102.497616777884
20
25.305085660832
30
0
0
VERTEX
8
0
10
103.142255877116
20
25.3045924186427
30
0
0
VERTEX
8
0
10
103.786894976348
20
25.3025718058946
30
0
0
VERTEX
8
0
10
104.43153407558
20
25.2990273039176
30
0
0
VERTEX
8
0
10
105.076173174812
20
25.2939624199556
30
0
0
VERTEX
8
0
10
105.720812274044
20
25.2873806912828
30
0
0
VERTEX
8
0
10
106.365451373276
20
25.2792856894663
30
0
0
VERTEX
8
0
10
107.010090472508
20
25.2696810247853
30
0
0
VERTEX
8
0
10
107.65472957174
20
25.2585703508091
30
0
0
VERTEX
8
0
10
108.299368670972
20
25.2459573691587
30
0
0
VERTEX
8
0
10
108.944007770204
20
25.2318458344588
30
0
0
VERTEX
8
0
10
109.588646869435
20
25.2162395594797
30
0
0
VERTEX
8
0
10
110.233285968667
20
25.1991424204935
30
0
0
VERTEX
8
0
10
110.877925067899
20
25.1805583628623
30
0
0
VERTEX
8
0
10
111.522564167131
20
25.160491406849
30
0
0
VERTEX
8
0
10
112.167203266363
20
25.1389456536971
30
0
0
VERTEX
8
0
10
112.811842365595
20
25.1159252919646
30
0
0
VERTEX
8
0
10
113.456481464827
20
25.0914346041533
30
0
0
VERTEX
8
0
10
114.101120564059
20
25.065477973628
30
0
0
VERTEX
8
0
10
114.745759663291
20
25.0380598918733
30
0
0
VERTEX
8
0
10
115.390398762523
20
25.0091849660649
30
0
0
VERTEX
8
0
10
116.035037861755
20
24.9788579270304
30
0
0
VERTEX
8
0
10
116.679676960987
20
24.9470836375726
30
0
0
VERTEX
8
0
10
117.324316060219
20
24.9138671012111
30
0
0
VERTEX
8
0
10
117.968955159451
20
24.8792134713518
30
0
0
VERTEX
8
0
10
118.613594258683
20
24.8431280609225
30
0
0
VERTEX
8
0
10
119.258233357915
20
24.8056163524867
30
0
0
VERTEX
8
0
10
119.902872457147
20
24.7666840088941
30
0
0
VERTEX
8
0
10
120.547511556379
20
24.7263368844719
30
0
0
VERTEX
8
0
10
121.192150655611
20
24.6845810368115
30
0
0
VERTEX
8
0
10
121.836789754843
20
24.6414227391886
30
0
0
VERTEX
8
0
10
122.481428854075
20
24.596868493642
30
0
0
VERTEX
8
0
10
123.126067953307
20
24.5509250447802
30
0
0
VERTEX
8
0
10
123.770707052539
20
24.5035993943369
30
0
0
VERTEX
8
0
10
124.415346151771
20
24.4548988165543
30
0
0
VERTEX
8
0
10
125.059985251003
20
24.4048308744255
30
0
0
VERTEX
8
0
10
125.704624350235
20
24.353403436871
30
0
0
VERTEX
8
0
10
126.349263449467
20
24.3006246969054
30
0
0
VERTEX
8
0
10
126.993902548699
20
24.2465031908778
30
0
0
VERTEX
8
0
10
127.638541647931
20
24.1910478188386
30
0
0
VERTEX
8
0
10
128.283180747163
20
24.1342678661443
30
0
0
VERTEX
8
0
10
128.927819846395
20
24.0761730263623
30
0
0
VERTEX
8
0
10
129.572458945627
20
24.0167734255921
30
0
0
VERTEX
8
0
10
130.217098044859
20
23.9560796482985
30
0
0
VERTEX
8
0
10
130.861737144091
20
23.8941027647811
30
0
0
VERTEX
8
0
10
131.506376243323
20
23.8308543603929
30
0
0
VERTEX
8
0
10
132.151015342554
20
23.7663465666632
30
0
0
VERTEX
8
0
10
132.795654441786
20
23.7005920944665
30
0
0
VERTEX
8
0
10
133.440293541018
20
23.633604269398
30
0
0
VERTEX
8
0
10
134.08493264025
20
23.5653970695594
30
0
0
VERTEX
8
0
10
134.729571739482
20
23.495985165936
30
0
0
VERTEX
8
0
10
135.374210838714
20
23.4253839656013
30
0
0
VERTEX
8
0
10
136.018849937946
20
23.3536096579975
30
0
0
VERTEX
8
0
10
136.663489037178
20
23.2806792645589
30
0
0
VERTEX
8
0
10
137.30812813641
20
23.2066106919997
30
0
0
VERTEX
8
0
10
137.952767235642
20
23.1314227895977
30
0
0
VERTEX
8
0
10
138.597406334874
20
23.0551354108686
30
0
0
VERTEX
8
0
10
139.242045434106
20
22.9777694800619
30
0
0
VERTEX
8
0
10
139.886684533338
20
22.8993470639696
30
0
0
VERTEX
8
0
10
140.53132363257
20
22.8198914496056
30
0
0
VERTEX
8
0
10
141.175962731802
20
22.7394272283857
30
0
0
VERTEX
8
0
10
141.820601831034
20
22.6579803875394
30
0
0
VERTEX
8
0
10
142.465240930266
20
22.575578409574
30
0
0
VERTEX
8
0
10
143.109880029498
20
22.4922503807673
30
0
0
VERTEX
8
0
10
143.75451912873
20
22.4080271097873
30
0
0
VERTEX
8
0
10
144.399158227962
20
22.3229412577517
30
0
0
VERTEX
8
0
10
145.043797327194
20
22.2370274812484
30
0
0
VERTEX
8
0
10
145.688436426426
20
22.1503225901286
30
0
0
VERTEX
8
0
10
146.333075525658
20
22.0628657222179
30
0
0
VERTEX
8
0
10
146.97771462489
20
21.9746985375315
30
0
0
VERTEX
8
0
10
147.622353724121
20
21.8858654351097
30
0
0
VERTEX
8
0
10
148.266992823353
20
21.7964137962894
30
0
0
VERTEX
8
0
10
148.911631922585
20
21.7063942591045
30
0
0
VERTEX
8
0
10
149.556271021817
20
21.6158610296673
30
0
0
VERTEX
8
0
10
150.200910121049
20
21.5248722379053
30
0
0
VERTEX
8
0
10
150.845549220281
20
21.4334903470584
30
0
0
VERTEX
8
0
10
151.490188319513
20
21.3417826291233
30
0
0
VERTEX
8
0
10
152.134827418745
20
21.2498217222474
30
0
0
VERTEX
8
0
10
152.779466517977
20
21.1576862914957
30
0
0
VERTEX
8
0
10
153.424105617209
20
21.0654618221968
30
0
0
VERTEX
8
0
10
154.068744716441
20
20.9732415866015
30
0
0
VERTEX
8
0
10
154.713383815673
20
20.8811278421061
30
0
0
VERTEX
8
0
10
155.358022914905
20
20.7892333467833
30
0
0
SEQEND
8
0
0
POLYLINE
8
0
62
3
70
0
10
0
20
0
30
0
0
VERTEX
8
0
10
6.44639099231973
20
6.33275258419135
30
0
0
VERTEX
8
0
10
7.0910300915517
20
6.9003550951311
30
0
0
VERTEX
8
0
10
7.73566919078367
20
7.46134458314812
30
0
0
VERTEX
8
0
10
8.38030829001565
20
8.01606254268918
30
0
0
VERTEX
8
0
10
9.02494738924762
20
8.56478093450152
30
0
0
VERTEX
8
0
10
9.6695864884796
20
9.10773022340236
30
0
0
VERTEX
8
0
10
10.3142255877116
20
9.64511265194775
30
0
0
VERTEX
8
0
10
10.9588646869435
20
10.1771088355952
30
0
0
VERTEX
8
0
10
11.6035037861755
20
10.703881437318
30
0
0
VERTEX
8
0
10
12.2481428854075
20
11.2255775853054
30
0
0
VERTEX
8
0
10
12.8927819846395
20
11.7423307299115
30
0
0
VERTEX
8
0
10
13.5374210838714
20
12.2542622125099
30
0
0
VERTEX
8
0
10
14.1820601831034
20
12.7614826449047
30
0
0
VERTEX
8
0
10
14.8266992823354
20
13.2640931335418
30
0
0
VERTEX
8
0
10
15.4713383815674
20
13.7621863631799
30
0
0
VERTEX
8
0
10
16.1159774807993
20
14.2558475501692
30
0
0
VERTEX
8
0
10
16.7606165800313
20
14.7451552768453
30
0
0
VERTEX
8
0
10
17.4052556792633
20
15.2301822189765
30
0
0
VERTEX
8
0
10
18.0498947784953
20
15.7109957791277
30
0
0
VERTEX
8
0
10
18.6945338777272
20
16.187658637996
30
0
0
VERTEX
8
0
10
19.3391729769592
20
16.660229234803
30
0
0
VERTEX
8
0
10
19.9838120761912
20
17.1287621870129
30
0
0
VERTEX
8
0
10
20.6284511754231
20
17.5933086577351
30
0
0
VERTEX
8
0
10
21.2730902746551
20
18.0539166785611
30
0
0
VERTEX
8
0
10
21.9177293738871
20
18.5106314340368
30
0
0
VERTEX
8
0
10
22.5623684731191
20
18.9634955131793
30
0
0
VERTEX
8
0
10
23.207007572351
20
19.4125491327418
30
0
0
VERTEX
8
0
10
23.851646671583
20
19.8578303357541
30
0
0
VERTEX
8
0
10
24.496285770815
20
20.2993751690163
30
0
0
VERTEX
8
0
10
25.140924870047
20
20.7372178419199
30
0
0
VERTEX
8
0
10
25.7855639692789
20
21.1713908691592
30
0
0
VERTEX
8
0
10
26.4302030685109
20
21.6019251993184
30
0
0
VERTEX
8
0
10
27.0748421677429
20
22.0288503309988
30
0
0
VERTEX
8
0
10
27.7194812669749
20
22.4521944179296
30
0
0
VERTEX
8
0
10
28.3641203662068
20
22.8719843644758
30
0
0
VERTEX
8
0
10
29.0087594654388
20
23.2882459123995
30
0
0
VERTEX
8
0
10
29.6533985646708
20
23.701003720115
30
0
0
VERTEX
8
0
10
30.2980376639027
20
24.1102814350494
30
0
0
VERTEX
8
0
10
30.9426767631347
20
24.5161017598814
30
0
0
VERTEX
8
0
10
31.5873158623667
20
24.9184865133177
30
0
0
VERTEX
8
0
10
32.2319549615987
20
25.3174566860495
30
0
0
VERTEX
8
0
10
32.8765940608306
20
25.7130324921464
30
0
0
VERTEX
8
0
10
33.5212331600626
20
26.1052334165577
30
0
0
VERTEX
8
0
10
34.1658722592946
20
26.494078258973
30
0
0
VERTEX
8
0
10
34.8105113585266
20
26.8795851744184
30
0
0
VERTEX
8
0
10
35.4551504577585
20
27.2617717109042
30
0
0
VERTEX
8
0
10
36.0997895569905
20
27.6406548443337
30
0
0
VERTEX
8
0
10
36.7444286562225
20
28.0162510110149
30
0
0
VERTEX
8
0
10
37.3890677554545
20
28.388576137888
30
0
0
VERTEX
8
0
10
38.0337068546864
20
28.7576456707262
30
0
0
VERTEX
8
0
10
38.6783459539184
20
29.1234746004498
30
0
0
VERTEX
8
0
10
39.3229850531504
20
29.4860774877516
30
0
0
VERTEX
8
0
10
39.9676241523823
20
29.8454684861166
30
0
0
VERTEX
8
0
10
40.6122632516143
20
30.2016613633949
30
0
0
VERTEX
8
0
10
41.2569023508463
20
30.554669522083
30
0
0
VERTEX
8
0
10
41.9015414500783
20
30.9045060183349
30
0
0
VERTEX
8
0
10
42.5461805493102
20
31.251183579826
30
0
0
VERTEX
8
0
10
43.1908196485422
20
31.5947146226329
30
0
0
VERTEX
8
0
10
43.8354587477742
20
31.9351112671234
30
0
0
VERTEX
8
0
10
44.4800978470062
20
32.2723853528839
30
0
0
VERTEX
8
0
10
45.1247369462381
20
32.6065484529262
30
0
0
VERTEX
8
0
10
45.7693760454701
20
32.9376118870435
30
0
0
VERTEX
8
0
10
46.4140151447021
20
33.2655867344933
30
0
0
VERTEX
8
0
10
47.0586542439341
20
33.5904838459931
30
0
0
VERTEX
8
0
10
47.703293343166
20
33.9123138551017
30
0
0
VERTEX
8
0
10
48.347932442398
20
34.2310871890663
30
0
0
VERTEX
8
0
10
48.99257154163
20
34.5468140790458
30
0
0
VERTEX
8
0
10
49.637210640862
20
34.8595045699312
30
0
0
VERTEX
8
0
10
50.2818497400939
20
35.1691685296464
30
0
0
VERTEX
8
0
10
50.9264888393259
20
35.4758156580131
30
0
0
VERTEX
8
0
10
51.5711279385579
20
35.779455495227
30
0
0
VERTEX
8
0
10
52.2157670377898
20
36.0800974299685
30
0
0
VERTEX
8
0
10
52.8604061370218
20
36.3777507070955
30
0
0
VERTEX
8
0
10
53.5050452362538
20
36.6724244350829
30
0
0
VERTEX
8
0
10
54.1496843354858
20
36.9641275930849
30
0
0
VERTEX
8
0
10
54.7943234347177
20
37.2528690377615
30
0
0
VERTEX
8
0
10
55.4389625339497
20
37.5386575097991
30
0
0
VERTEX
8
0
10
56.0836016331817
20
37.8215016401447
30
0
0
VERTEX
8
0
10
56.7282407324137
20
38.1014099560731
30
0
0
VERTEX
8
0
10
57.3728798316456
20
38.3783908869746
30
0
0
VERTEX
8
0
10
58.0175189308776
20
38.6524527699537
30
0
0
VERTEX
8
0
10
58.6621580301096
20
38.9236038552222
30
0
0
VERTEX
8
0
10
59.3067971293416
20
39.1918523112812
30
0
0
VERTEX
8
0
10
59.9514362285735
20
39.4572062299944
30
0
0
VERTEX
8
0
10
60.5960753278055
20
39.7196736314136
30
0
0
VERTEX
8
0
10
61.2407144270375
20
39.9792624685393
30
0
0
VERTEX
8
0
10
61.8853535262694
20
40.2359806318399
30
0
0
VERTEX
8
0
10
62.5299926255014
20
40.4898359537264
30
0
0
VERTEX
8
0
10
63.1746317247334
20
40.7408362128327
30
0
0
VERTEX
8
0
10
63.8192708239654
20
40.9889891382115
30
0
0
VERTEX
8
0
10
64.4639099231973
20
41.2343024134109
30
0
0
VERTEX
8
0
10
65.1085490224293
20
41.4767836804543
30
0
0
VERTEX
8
0
10
65.7531881216613
20
41.7164405437012
30
0
0
VERTEX
8
0
10
66.3978272208933
20
41.9532805736259
30
0
0
VERTEX
8
0
10
67.0424663201252
20
42.1873113105337
30
0
0
VERTEX
8
0
10
67.6871054193572
20
42.4185402681593
30
0
0
VERTEX
8
0
10
68.3317445185892
20
42.6469749372126
30
0
0
VERTEX
8
0
10
68.9763836178212
20
42.872622788869
30
0
0
VERTEX
8
0
10
69.6210227170531
20
43.095491278153
30
0
0
VERTEX
8
0
10
70.2656618162851
20
43.3155878473092
30
0
0
VERTEX
8
0
10
70.9103009155171
20
43.5329199290913
30
0
0
VERTEX
8
0
10
71.5549400147491
20
43.747494950009
30
0
0
VERTEX
8
0
10
72.199579113981
20
43.9593203335214
30
0
0
VERTEX
8
0
10
72.844218213213
20
44.1684035032034
30
0
0
VERTEX
8
0
10
73.488857312445
20
44.3747518858556
30
0
0
VERTEX
8
0
10
74.1334964116769
20
44.5783729145941
30
0
0
VERTEX
8
0
10
74.7781355109089
20
44.7792740319003
30
0
0
VERTEX
8
0
10
75.4227746101409
20
44.9774626926427
30
0
0
VERTEX
8
0
10
76.0674137093729
20
45.1729463670812
30
0
0
VERTEX
8
0
10
76.7120528086048
20
45.3657325438425
30
0
0
VERTEX
8
0
10
77.3566919078368
20
45.5558287328821
30
0
0
VERTEX
8
0
10
78.0013310070688
20
45.7432424684339
30
0
0
VERTEX
8
0
10
78.6459701063008
20
45.9279813119266
30
0
0
VERTEX
8
0
10
79.2906092055327
20
46.1100528549297
30
0
0
VERTEX
8
0
10
79.9352483047647
20
46.2894647220524
30
0
0
VERTEX
8
0
10
80.5798874039967
20
46.4662245738637
30
0
0
VERTEX
8
0
10
81.2245265032286
20
46.6403401097976
30
0
0
VERTEX
8
0
10
81.8691656024606
20
46.8118190710812
30
0
0
VERTEX
8
0
10
82.5138047016926
20
46.9806692436275
30
0
0
VERTEX
8
0
10
83.1584438009246
20
47.1468984609819
30
0
0
VERTEX
8
0
10
83.8030829001565
20
47.3105146072332
30
0
0
VERTEX
8
0
10
84.4477219993885
20
47.4715256199649
30
0
0
VERTEX
8
0
10
85.0923610986205
20
47.629939493222
30
0
0
VERTEX
8
0
10
85.7370001978525
20
47.7857642804596
30
0
0
VERTEX
8
0
10
86.3816392970844
20
47.9390080975574
30
0
0
VERTEX
8
0
10
87.0262783963164
20
48.0896791258228
30
0
0
VERTEX
8
0
10
87.6709174955484
20
48.2377856150171
30
0
0
VERTEX
8
0
10
88.3155565947804
20
48.3833358864309
30
0
0
VERTEX
8
0
10
88.9601956940123
20
48.5263383359621
30
0
0
VERTEX
8
0
10
89.6048347932443
20
48.6668014372414
30
0
0
VERTEX
8
0
10
90.2494738924763
20
48.8047337447768
30
0
0
VERTEX
8
0
10
90.8941129917083
20
48.9401438971448
30
0
0
VERTEX
8
0
10
91.5387520909402
20
49.0730406202148
30
0
0
VERTEX
8
0
10
92.1833911901722
20
49.2034327304074
30
0
0
VERTEX
8
0
10
92.8280302894042
20
49.3313291380033
30
0
0
VERTEX
8
0
10
93.4726693886361
20
49.4567388504937
30
0
0
VERTEX
8
0
10
94.1173084878681
20
49.5796709759743
30
0
0
VERTEX
8
0
10
94.7619475871001
20
49.700134726595
30
0
0
VERTEX
8
0
10
95.4065866863321
20
49.8181394220563
30
0
0
VERTEX
8
0
10
96.051225785564
20
49.9336944931614
30
0
0
VERTEX
8
0
10
96.695864884796
20
50.0468094854284
30
0
0
VERTEX
8
0
10
97.340503984028
20
50.1574940627601
30
0
0
VERTEX
8
0
10
97.98514308326
20
50.2657580111727
30
0
0
VERTEX
8
0
10
98.6297821824919
20
50.3716112425988
30
0
0
VERTEX
8
0
10
99.2744212817239
20
50.4750637987463
30
0
0
VERTEX
8
0
10
99.9190603809559
20
50.5761258550432
30
0
0
VERTEX
8
0
10
100.563699480188
20
50.6748077246389
30
0
0
VERTEX
8
0
10
101.20833857942
20
50.7711198624944
30
0
0
VERTEX
8
0
10
101.852977678652
20
50.8650728695518
30
0
0
VERTEX
8
0
10
102.497616777884
20
50.9566774969788
30
0
0
VERTEX
8
0
10
103.142255877116
20
51.0459446505097
30
0
0
VERTEX
8
0
10
103.786894976348
20
51.1328853948646
30
0
0
VERTEX
8
0
10
104.43153407558
20
51.2175109582741
30
0
0
VERTEX
8
0
10
105.076173174812
20
51.2998327370886
30
0
0
VERTEX
8
0
10
105.720812274044
20
51.379862300495
30
0
0
VERTEX
8
0
10
106.365451373276
20
51.4576113953357
30
0
0
VERTEX
8
0
10
107.010090472508
20
51.5330919510353
30
0
0
VERTEX
8
0
10
107.65472957174
20
51.606316084636
30
0
0
VERTEX
8
0
10
108.299368670972
20
51.6772961059518
30
0
0
VERTEX
8
0
10
108.944007770204
20
51.7460445228457
30
0
0
VERTEX
8
0
10
109.588646869435
20
51.8125740466242
30
0
0
VERTEX
8
0
10
110.233285968667
20
51.8768975975653
30
0
0
VERTEX
8
0
10
110.877925067899
20
51.9390283105832
30
0
0
VERTEX
8
0
10
111.522564167131
20
51.9989795410239
30
0
0
VERTEX
8
0
10
112.167203266363
20
52.0567648706147
30
0
0
VERTEX
8
0
10
112.811842365595
20
52.1123981135549
30
0
0
VERTEX
8
0
10
113.456481464827
20
52.1658933227678
30
0
0
VERTEX
8
0
10
114.101120564059
20
52.2172647963091
30
0
0
VERTEX
8
0
10
114.745759663291
20
52.2665270839494
30
0
0
VERTEX
8
0
10
115.390398762523
20
52.3136949939192
30
0
0
VERTEX
8
0
10
116.035037861755
20
52.3587835998483
30
0
0
VERTEX
8
0
10
116.679676960987
20
52.4018082478821
30
0
0
VERTEX
8
0
10
117.324316060219
20
52.4427845639998
30
0
0
VERTEX
8
0
10
117.968955159451
20
52.4817284615314
30
0
0
VERTEX
8
0
10
118.613594258683
20
52.518656148891
30
0
0
VERTEX
8
0
10
119.258233357915
20
52.5535841375236
30
0
0
VERTEX
8
0
10
119.902872457147
20
52.5865292500894
30
0
0
VERTEX
8
0
10
120.547511556379
20
52.6175086288823
30
0
0
VERTEX
8
0
10
121.192150655611
20
52.6465397444986
30
0
0
VERTEX
8
0
10
121.836789754843
20
52.6736404047713
30
0
0
VERTEX
8
0
10
122.481428854075
20
52.6988287639707
30
0
0
VERTEX
8
0
10
123.126067953307
20
52.7221233322968
30
0
0
VERTEX
8
0
10
123.770707052539
20
52.7435429856645
30
0
0
VERTEX
8
0
10
124.415346151771
20
52.7631069758089
30
0
0
VERTEX
8
0
10
125.059985251003
20
52.7808349407145
30
0
0
VERTEX
8
0
10
125.704624350235
20
52.7967469153911
30
0
0
VERTEX
8
0
10
126.349263449467
20
52.8108633430126
30
0
0
VERTEX
8
0
10
126.993902548699
20
52.8232050864415
30
0
0
VERTEX
8
0
10
127.638541647931
20
52.8337934401511
30
0
0
VERTEX
8
0
10
128.283180747163
20
52.84265014258
30
0
0
VERTEX
8
0
10
128.927819846395
20
52.8497973889321
30
0
0
VERTEX
8
0
10
129.572458945627
20
52.8552578444563
30
0
0
VERTEX
8
0
10
130.217098044859
20
52.8590546582316
30
0
0
VERTEX
8
0
10
130.861737144091
20
52.8612114774916
30
0
0
VERTEX
8
0
10
131.506376243323
20
52.8617524625191
30
0
0
VERTEX
8
0
10
132.151015342554
20
52.8607023021554
30
0
0
VERTEX
8
0
10
132.795654441786
20
52.8580862299623
30
0
0
VERTEX
8
0
10
133.440293541018
20
52.8539300410808
30
0
0
VERTEX
8
0
10
134.08493264025
20
52.8482601098487
30
0
0
VERTEX
8
0
10
134.729571739482
20
52.8411034082219
30
0
0
VERTEX
8
0
10
135.374210838714
20
52.8324875250722
30
0
0
VERTEX
8
0
10
136.018849937946
20
52.8224406864315
30
0
0
VERTEX
8
0
10
136.663489037178
20
52.8109917767594
30
0
0
VERTEX
8
0
10
137.30812813641
20
52.7981703613309
30
0
0
VERTEX
8
0
10
137.952767235642
20
52.7840067098405
30
0
0
VERTEX
8
0
10
138.597406334874
20
52.7685318213431
30
0
0
VERTEX
8
0
10
139.242045434106
20
52.7517774506617
30
0
0
VERTEX
8
0
10
139.886684533338
20
52.7337761364126
30
0
0
VERTEX
8
0
10
140.53132363257
20
52.7145612308231
30
0
0
VERTEX
8
0
10
141.175962731802
20
52.6941669315371
30
0
0
VERTEX
8
0
10
141.820601831034
20
52.6726283156429
30
0
0
VERTEX
8
0
10
142.465240930266
20
52.6499813761867
30
0
0
VERTEX
8
0
10
143.109880029498
20
52.6262630614902
30
0
0
VERTEX
8
0
10
143.75451912873
20
52.6015113176313
30
0
0
VERTEX
8
0
10
144.399158227962
20
52.5757651345282
30
0
0
VERTEX
8
0
10
145.043797327194
20
52.5490645961366
30
0
0
VERTEX
8
0
10
145.688436426426
20
52.5214509353759
30
0
0
VERTEX
8
0
10
146.333075525658
20
52.4929665945233
30
0
0
VERTEX
8
0
10
146.97771462489
20
52.4636552919711
30
0
0
VERTEX
8
0
10
147.622353724121
20
52.4335620964385
30
0
0
VERTEX
8
0
10
148.266992823353
20
52.4027335099863
30
0
0
VERTEX
8
0
10
148.911631922585
20
52.3712175615075
30
0
0
VERTEX
8
0
10
149.556271021817
20
52.3390639127891
30
0
0
VERTEX
8
0
10
150.200910121049
20
52.3063239798178
30
0
0
VERTEX
8
0
10
150.845549220281
20
52.273051072744
30
0
0
VERTEX
8
0
10
151.490188319513
20
52.2393005589713
30
0
0
VERTEX
8
0
10
152.134827418745
20
52.2051300552565
30
0
0
VERTEX
8
0
10
152.779466517977
20
52.1705996567436
30
0
0
VERTEX
8
0
10
153.424105617209
20
52.1357722137836
30
0
0
VERTEX
8
0
10
154.068744716441
20
52.1007136717287
30
0
0
VERTEX
8
0
10
154.713383815673
20
52.0654934955052
30
0
0
VERTEX
8
0
10
155.358022914905
20
52.0301852111595
30
0
0
SEQEND
8
0
0
POLYLINE
8
0
62
4
70
0
10
0
20
0
30
0
0
VERTEX
8
0
10
6.44639099231973
20
5.49704518059914
30
0
0
VERTEX
8
0
10
7.0910300915517
20
6.04614970318031
30
0
0
VERTEX
8
0
10
7.73566919078367
20
6.5932889456284
30
0
0
VERTEX
8
0
10
8.38030829001565
20
7.13845897392697
30
0
0
VERTEX
8
0
10
9.02494738924762
20
7.68165816034179
30
0
0
VERTEX
8
0
10
9.6695864884796
20
8.23229414385687
30
0
0
VERTEX
8
0
10
10.3142255877116
20
8.77928343568457
30
0
0
VERTEX
8
0
10
10.9588646869435
20
9.3243636842125
30
0
0
VERTEX
8
0
10
11.6035037861755
20
9.86753208836272
30
0
0
VERTEX
8
0
10
12.2481428854075
20
10.3981832554078
30
0
0
VERTEX
8
0
10
12.8927819846395
20
10.9281047334808
30
0
0
VERTEX
8
0
10
13.5374210838714
20
11.4560596728127
30
0
0
VERTEX
8
0
10
14.1820601831034
20
11.982052187685
30
0
0
VERTEX
8
0
10
14.8266992823354
20
12.4897946470282
30
0
0
VERTEX
8
0
10
15.4713383815674
20
12.9961353372425
30
0
0
VERTEX
8
0
10
16.1159774807993
20
13.5004892288762
30
0
0
VERTEX
8
0
10
16.7606165800313
20
14.0028580806156
30
0
0
VERTEX
8
0
10
17.4052556792633
20
14.4869989277945
30
0
0
VERTEX
8
0
10
18.0498947784953
20
14.9681725093536
30
0
0
VERTEX
8
0
10
18.6945338777272
20
15.4473790613723
30
0
0
VERTEX
8
0
10
19.3391729769592
20
15.9246142017947
30
0
0
VERTEX
8
0
10
19.9838120761912
20
16.3998746276764
30
0
0
VERTEX
8
0
10
20.6284511754231
20
16.8731579587133
30
0
0
VERTEX
8
0
10
21.2730902746551
20
17.3444626081207
30
0
0
VERTEX
8
0
10
21.9177293738871
20
17.8137876754581
30
0
0
VERTEX
8
0
10
22.5623684731191
20
18.2811328571802
30
0
0
VERTEX
8
0
10
23.207007572351
20
18.7464983715996
30
0
0
VERTEX
8
0
10
23.851646671583
20
19.2098848956308
30
0
0
VERTEX
8
0
10
24.496285770815
20
19.6712935112261
30
0
0
VERTEX
8
0
10
25.140924870047
20
20.1429461635981
30
0
0
VERTEX
8
0
10
25.7855639692789
20
20.6190979285027
30
0
0
VERTEX
8
0
10
26.4302030685109
20
21.093317597981
30
0
0
VERTEX
8
0
10
27.0748421677429
20
21.5656099379858
30
0
0
VERTEX
8
0
10
27.7194812669749
20
22.0421184535173
30
0
0
VERTEX
8
0
10
28.3641203662068
20
22.5215890146088
30
0
0
VERTEX
8
0
10
29.0087594654388
20
22.9991978734545
30
0
0
VERTEX
8
0
10
29.6533985646708
20
23.4749495225413
30
0
0
VERTEX
8
0
10
30.2980376639027
20
23.9488485403968
30
0
0
VERTEX
8
0
10
30.9426767631347
20
24.4255548750041
30
0
0
VERTEX
8
0
10
31.5873158623667
20
24.8989648676567
30
0
0
VERTEX
8
0
10
32.2319549615987
20
25.3705534218338
30
0
0
VERTEX
8
0
10
32.8765940608306
20
25.8403251715323
30
0
0
VERTEX
8
0
10
33.5212331600626
20
26.2994869046518
30
0
0
VERTEX
8
0
10
34.1658722592946
20
26.7591697952288
30
0
0
VERTEX
8
0
10
34.8105113585266
20
27.2170188024835
30
0
0
VERTEX
8
0
10
35.4551504577585
20
27.6730391899179
30
0
0
VERTEX
8
0
10
36.0997895569905
20
28.0182269920924
30
0
0
VERTEX
8
0
10
36.7444286562225
20
28.3849796102282
30
0
0
VERTEX
8
0
10
37.3890677554545
20
28.749949290054
30
0
0
VERTEX
8
0
10
38.0337068546864
20
29.1131244486212
30
0
0
VERTEX
8
0
10
38.6783459539184
20
29.4145799214103
30
0
0
VERTEX
8
0
10
39.3229850531504
20
29.7236450619246
30
0
0
VERTEX
8
0
10
39.9676241523823
20
30.0312602408943
30
0
0
VERTEX
8
0
10
40.6122632516143
20
30.3373968670899
30
0
0
VERTEX
8
0
10
41.2569023508463
20
30.6504363213068
30
0
0
VERTEX
8
0
10
41.9015414500783
20
30.9612391120485
30
0
0
VERTEX
8
0
10
42.5461805493102
20
31.2704173769596
30
0
0
VERTEX
8
0
10
43.1908196485422
20
31.5779516476059
30
0
0
VERTEX
8
0
10
43.8354587477742
20
31.8793024080395
30
0
0
VERTEX
8
0
10
44.4800978470062
20
32.1789438576299
30
0
0
VERTEX
8
0
10
45.1247369462381
20
32.4769256777502
30
0
0
VERTEX
8
0
10
45.7693760454701
20
32.7732309624511
30
0
0
VERTEX
8
0
10
46.4140151447021
20
33.0678437927105
30
0
0
VERTEX
8
0
10
47.0586542439341
20
33.3607491845693
30
0
0
VERTEX
8
0
10
47.703293343166
20
33.6519330406331
30
0
0
VERTEX
8
0
10
48.347932442398
20
33.9413821046994
30
0
0
VERTEX
8
0
10
48.99257154163
20
34.2302609896036
30
0
0
VERTEX
8
0
10
49.637210640862
20
34.5176772303385
30
0
0
VERTEX
8
0
10
50.2818497400939
20
34.8033139500025
30
0
0
VERTEX
8
0
10
50.9264888393259
20
35.0871613160033
30
0
0
VERTEX
8
0
10
51.5711279385579
20
35.3681880091089
30
0
0
VERTEX
8
0
10
52.2157670377898
20
35.6469736675304
30
0
0
VERTEX
8
0
10
52.8604061370218
20
35.9239526280885
30
0
0
VERTEX
8
0
10
53.5050452362538
20
36.1991170248777
30
0
0
VERTEX
8
0
10
54.1496843354858
20
36.4742032794718
30
0
0
VERTEX
8
0
10
54.7943234347177
20
36.7485978560213
30
0
0
VERTEX
8
0
10
55.4389625339497
20
37.0211429073482
30
0
0
VERTEX
8
0
10
56.0836016331817
20
37.2918333423333
30
0
0
VERTEX
8
0
10
56.7282407324137
20
37.5526748176112
30
0
0
VERTEX
8
0
10
57.3728798316456
20
37.8039522126666
30
0
0
VERTEX
8
0
10
58.0175189308776
20
38.0534448411512
30
0
0
VERTEX
8
0
10
58.6621580301096
20
38.3011453315114
30
0
0
VERTEX
8
0
10
59.3067971293416
20
38.5470467965114
30
0
0
VERTEX
8
0
10
59.9514362285735
20
38.7911428145832
30
0
0
VERTEX
8
0
10
60.5960753278055
20
39.0334274121927
30
0
0
VERTEX
8
0
10
61.2407144270375
20
39.2738950471678
30
0
0
VERTEX
8
0
10
61.8853535262694
20
39.5125405929281
30
0
0
VERTEX
8
0
10
62.5299926255014
20
39.7548652010286
30
0
0
VERTEX
8
0
10
63.1746317247334
20
39.994013522538
30
0
0
VERTEX
8
0
10
63.8192708239654
20
40.2313074028654
30
0
0
VERTEX
8
0
10
64.4639099231973
20
40.4667441413488
30
0
0
VERTEX
8
0
10
65.1085490224293
20
40.6969470850771
30
0
0
VERTEX
8
0
10
65.7531881216613
20
40.9259103818196
30
0
0
VERTEX
8
0
10
66.3978272208933
20
41.1530214455162
30
0
0
VERTEX
8
0
10
67.0424663201252
20
41.3782782571118
30
0
0
VERTEX
8
0
10
67.6871054193572
20
41.603220791727
30
0
0
VERTEX
8
0
10
68.3317445185892
20
41.8261295985834
30
0
0
VERTEX
8
0
10
68.9763836178212
20
42.0471748946008
30
0
0
VERTEX
8
0
10
69.6210227170531
20
42.2663560675848
30
0
0
VERTEX
8
0
10
70.2656618162851
20
42.4878753044959
30
0
0
VERTEX
8
0
10
70.9103009155171
20
42.7073994757359
30
0
0
VERTEX
8
0
10
71.5549400147491
20
42.9250477404085
30
0
0
VERTEX
8
0
10
72.199579113981
20
43.1408211908432
30
0
0
VERTEX
8
0
10
72.844218213213
20
43.3547211380896
30
0
0
VERTEX
8
0
10
73.488857312445
20
43.5667491070639
30
0
0
VERTEX
8
0
10
74.1334964116769
20
43.7769068319777
30
0
0
VERTEX
8
0
10
74.7781355109089
20
43.9851962520291
30
0
0
VERTEX
8
0
10
75.4227746101409
20
44.1871004095891
30
0
0
VERTEX
8
0
10
76.0674137093729
20
44.3862758004069
30
0
0
VERTEX
8
0
10
76.7120528086048
20
44.5836011105365
30
0
0
VERTEX
8
0
10
77.3566919078368
20
44.7790782439322
30
0
0
VERTEX
8
0
10
78.0013310070688
20
44.9687266857661
30
0
0
VERTEX
8
0
10
78.6459701063008
20
45.1551583348772
30
0
0
VERTEX
8
0
10
79.2906092055327
20
45.3397615347133
30
0
0
VERTEX
8
0
10
79.9352483047647
20
45.5225381868283
30
0
0
VERTEX
8
0
10
80.5798874039967
20
45.7026279353755
30
0
0
VERTEX
8
0
10
81.2245265032286
20
45.8804264926999
30
0
0
VERTEX
8
0
10
81.8691656024606
20
46.0564087010447
30
0
0
VERTEX
8
0
10
82.5138047016926
20
46.2305770865054
30
0
0
VERTEX
8
0
10
83.1584438009246
20
46.4029343763559
30
0
0
VERTEX
8
0
10
83.8030829001565
20
46.5734834963489
30
0
0
VERTEX
8
0
10
84.4477219993885
20
46.7422275681889
30
0
0
VERTEX
8
0
10
85.0923610986205
20
46.9091699071725
30
0
0
VERTEX
8
0
10
85.7370001978525
20
47.0743140199873
30
0
0
VERTEX
8
0
10
86.3816392970844
20
47.2376636026685
30
0
0
VERTEX
8
0
10
87.0262783963164
20
47.3992225386989
30
0
0
VERTEX
8
0
10
87.6709174955484
20
47.558994897254
30
0
0
VERTEX
8
0
10
88.3155565947804
20
47.7169849315845
30
0
0
VERTEX
8
0
10
88.9601956940123
20
47.8463813704958
30
0
0
VERTEX
8
0
10
89.6048347932443
20
47.9811589574689
30
0
0
VERTEX
8
0
10
90.2494738924763
20
48.1142197101935
30
0
0
VERTEX
8
0
10
90.8941129917083
20
48.2455660297543
30
0
0
VERTEX
8
0
10
91.5387520909402
20
48.398283446445
30
0
0
VERTEX
8
0
10
92.1833911901722
20
48.5444218957278
30
0
0
VERTEX
8
0
10
92.8280302894042
20
48.688811117951
30
0
0
VERTEX
8
0
10
93.4726693886361
20
48.8314566856962
30
0
0
VERTEX
8
0
10
94.1173084878681
20
48.9465208512118
30
0
0
VERTEX
8
0
10
94.7619475871001
20
49.0636317495129
30
0
0
VERTEX
8
0
10
95.4065866863321
20
49.1790680161983
30
0
0
VERTEX
8
0
10
96.051225785564
20
49.2928332673121
30
0
0
VERTEX
8
0
10
96.695864884796
20
49.4187785543814
30
0
0
VERTEX
8
0
10
97.340503984028
20
49.5420881172892
30
0
0
VERTEX
8
0
10
97.98514308326
20
49.6637052662421
30
0
0
VERTEX
8
0
10
98.6297821824919
20
49.7836360209258
30
0
0
VERTEX
8
0
10
99.2744212817239
20
49.8629580240762
30
0
0
VERTEX
8
0
10
99.9190603809559
20
49.9398499636168
30
0
0
VERTEX
8
0
10
100.563699480188
20
50.0152374654214
30
0
0
VERTEX
8
0
10
101.20833857942
20
50.0891226526312
30
0
0
VERTEX
8
0
10
101.852977678652
20
50.1682063714316
30
0
0
VERTEX
8
0
10
102.497616777884
20
50.2466520947217
30
0
0
VERTEX
8
0
10
103.142255877116
20
50.323558037314
30
0
0
VERTEX
8
0
10
103.786894976348
20
50.398928271725
30
0
0
VERTEX
8
0
10
104.43153407558
20
50.4727671212737
30
0
0
VERTEX
8
0
10
105.076173174812
20
50.545079159522
30
0
0
VERTEX
8
0
10
105.720812274044
20
50.6158692098321
30
0
0
VERTEX
8
0
10
106.365451373276
20
50.6851423450355
30
0
0
VERTEX
8
0
10
107.010090472508
20
50.7494814148701
30
0
0
VERTEX
8
0
10
107.65472957174
20
50.8107992307625
30
0
0
VERTEX
8
0
10
108.299368670972
20
50.87064333359
30
0
0
VERTEX
8
0
10
108.944007770204
20
50.9290192677007
30
0
0
VERTEX
8
0
10
109.588646869435
20
50.9917624347763
30
0
0
VERTEX
8
0
10
110.233285968667
20
51.056990817764
30
0
0
VERTEX
8
0
10
110.877925067899
20
51.1207224562334
30
0
0
VERTEX
8
0
10
111.522564167131
20
51.1829649280136
30
0
0
VERTEX
8
0
10
112.167203266363
20
51.2437260531504
30
0
0
VERTEX
8
0
10
112.811842365595
20
51.2957376341277
30
0
0
VERTEX
8
0
10
113.456481464827
20
51.3487308471946
30
0
0
VERTEX
8
0
10
114.101120564059
20
51.4002875015304
30
0
0
VERTEX
8
0
10
114.745759663291
20
51.4504159303867
30
0
0
VERTEX
8
0
10
115.390398762523
20
51.4991247225509
30
0
0
VERTEX
8
0
10
116.035037861755
20
51.5464227234771
30
0
0
VERTEX
8
0
10
116.679676960987
20
51.5923190364997
30
0
0
VERTEX
8
0
10
117.324316060219
20
51.6368230241318
30
0
0
VERTEX
8
0
10
117.968955159451
20
51.6893009585151
30
0
0
VERTEX
8
0
10
118.613594258683
20
51.7381765542582
30
0
0
VERTEX
8
0
10
119.258233357915
20
51.7856644842389
30
0
0
VERTEX
8
0
10
119.902872457147
20
51.8317757849761
30
0
0
VERTEX
8
0
10
120.547511556379
20
51.8592851138999
30
0
0
VERTEX
8
0
10
121.192150655611
20
51.8885145191395
30
0
0
VERTEX
8
0
10
121.836789754843
20
51.9164566356448
30
0
0
VERTEX
8
0
10
122.481428854075
20
51.9431223629474
30
0
0
VERTEX
8
0
10
123.126067953307
20
51.9868621622625
30
0
0
VERTEX
8
0
10
123.770707052539
20
52.0273784908468
30
0
0
VERTEX
8
0
10
124.415346151771
20
52.0665956093463
30
0
0
VERTEX
8
0
10
125.059985251003
20
52.104526856287
30
0
0
VERTEX
8
0
10
125.704624350235
20
52.1221067180764
30
0
0
VERTEX
8
0
10
126.349263449467
20
52.1388779863701
30
0
0
VERTEX
8
0
10
126.993902548699
20
52.1544701671905
30
0
0
VERTEX
8
0
10
127.638541647931
20
52.1688963180141
30
0
0
VERTEX
8
0
10
128.283180747163
20
52.1907253133334
30
0
0
VERTEX
8
0
10
128.927819846395
20
52.2120737200479
30
0
0
VERTEX
8
0
10
129.572458945627
20
52.2322592223447
30
0
0
VERTEX
8
0
10
130.217098044859
20
52.2512967549478
30
0
0
VERTEX
8
0
10
130.861737144091
20
52.2692015557976
30
0
0
VERTEX
8
0
10
131.506376243323
20
52.2859891688218
30
0
0
VERTEX
8
0
10
132.151015342554
20
52.3016754467549
30
0
0
VERTEX
8
0
10
132.795654441786
20
52.3162765540036
30
0
0
VERTEX
8
0
10
133.440293541018
20
52.3247847898972
30
0
0
VERTEX
8
0
10
134.08493264025
20
52.3304378653602
30
0
0
VERTEX
8
0
10
134.729571739482
20
52.3350809232077
30
0
0
VERTEX
8
0
10
135.374210838714
20
52.3387310024365
30
0
0
VERTEX
8
0
10
136.018849937946
20
52.3479046106231
30
0
0
VERTEX
8
0
10
136.663489037178
20
52.3597824285681
30
0
0
VERTEX
8
0
10
137.30812813641
20
52.3706878069651
30
0
0
VERTEX
8
0
10
137.952767235642
20
52.3806397116384
30
0
0
VERTEX
8
0
10
138.597406334874
20
52.3829363159243
30
0
0
VERTEX
8
0
10
139.242045434106
20
52.3786764996091
30
0
0
VERTEX
8
0
10
139.886684533338
20
52.3735627031932
30
0
0
VERTEX
8
0
10
140.53132363257
20
52.3676146415909
30
0
0
VERTEX
8
0
10
141.175962731802
20
52.3608523987326
30
0
0
VERTEX
8
0
10
141.820601831034
20
52.3694267578757
30
0
0
VERTEX
8
0
10
142.465240930266
20
52.3722033311053
30
0
0
VERTEX
8
0
10
143.109880029498
20
52.3741920383285
30
0
0
VERTEX
8
0
10
143.75451912873
20
52.375414933705
30
0
0
VERTEX
8
0
10
144.399158227962
20
52.3698932296771
30
0
0
VERTEX
8
0
10
145.043797327194
20
52.3652235154991
30
0
0
VERTEX
8
0
10
145.688436426426
20
52.3598676547549
30
0
0
VERTEX
8
0
10
146.333075525658
20
52.3538490128192
30
0
0
VERTEX
8
0
10
146.97771462489
20
52.3416508700807
30
0
0
VERTEX
8
0
10
147.622353724121
20
52.3299813043561
30
0
0
VERTEX
8
0
10
148.266992823353
20
52.3177358918891
30
0
0
VERTEX
8
0
10
148.911631922585
20
52.3049394302297
30
0
0
VERTEX
8
0
10
149.556271021817
20
52.3055940032031
30
0
0
VERTEX
8
0
10
150.200910121049
20
52.3037905126073
30
0
0
VERTEX
8
0
10
150.845549220281
20
52.3014824540687
30
0
0
VERTEX
8
0
10
151.490188319513
20
52.2986965699719
30
0
0
VERTEX
8
0
10
152.134827418745
20
52.2780239073857
30
0
0
VERTEX
8
0
10
152.779466517977
20
52.2580267523986
30
0
0
VERTEX
8
0
10
153.424105617209
20
52.2376815704239
30
0
0
VERTEX
8
0
10
154.068744716441
20
52.2170164124767
30
0
0
VERTEX
8
0
10
154.713383815673
20
52.2180840996035
30
0
0
VERTEX
8
0
10
155.358022914905
20
52.2195571028873
30
0
0
SEQEND
8
0
0
POLYLINE
8
0
62
2
70
0
10
0
20
0
30
0
0
VERTEX
8
0
10
6.44639099231973
20
0
30
0
0
VERTEX
8
0
10
7.0910300915517
20
0
30
0
0
VERTEX
8
0
10
7.73566919078367
20
0
30
0
0
VERTEX
8
0
10
8.38030829001565
20
0
30
0
0
VERTEX
8
0
10
9.02494738924762
20
0
30
0
0
VERTEX
8
0
10
9.6695864884796
20
0
30
0
0
VERTEX
8
0
10
10.3142255877116
20
0
30
0
0
VERTEX
8
0
10
10.9588646869435
20
0
30
0
0
VERTEX
8
0
10
11.6035037861755
20
0
30
0
0
VERTEX
8
0
10
12.2481428854075
20
0
30
0
0
VERTEX
8
0
10
12.8927819846395
20
0
30
0
0
VERTEX
8
0
10
13.5374210838714
20
0
30
0
0
VERTEX
8
0
10
14.1820601831034
20
0
30
0
0
VERTEX
8
0
10
14.8266992823354
20
0
30
0
0
VERTEX
8
0
10
15.4713383815674
20
0
30
0
0
VERTEX
8
0
10
16.1159774807993
20
0
30
0
0
VERTEX
8
0
10
16.7606165800313
20
0
30
0
0
VERTEX
8
0
10
17.4052556792633
20
0
30
0
0
VERTEX
8
0
10
18.0498947784953
20
0
30
0
0
VERTEX
8
0
10
18.6945338777272
20
0
30
0
0
VERTEX
8
0
10
19.3391729769592
20
0
30
0
0
VERTEX
8
0
10
19.9838120761912
20
0
30
0
0
VERTEX
8
0
10
20.6284511754231
20
0
30
0
0
VERTEX
8
0
10
21.2730902746551
20
0
30
0
0
VERTEX
8
0
10
21.9177293738871
20
0
30
0
0
VERTEX
8
0
10
22.5623684731191
20
0
30
0
0
VERTEX
8
0
10
23.207007572351
20
0
30
0
0
VERTEX
8
0
10
23.851646671583
20
0
30
0
0
VERTEX
8
0
10
24.496285770815
20
0
30
0
0
VERTEX
8
0
10
25.140924870047
20
0
30
0
0
VERTEX
8
0
10
25.7855639692789
20
0
30
0
0
VERTEX
8
0
10
26.4302030685109
20
0
30
0
0
VERTEX
8
0
10
27.0748421677429
20
0
30
0
0
VERTEX
8
0
10
27.7194812669749
20
0
30
0
0
VERTEX
8
0
10
28.3641203662068
20
0
30
0
0
VERTEX
8
0
10
29.0087594654388
20
0
30
0
0
VERTEX
8
0
10
29.6533985646708
20
0
30
0
0
VERTEX
8
0
10
30.2980376639027
20
0
30
0
0
VERTEX
8
0
10
30.9426767631347
20
0
30
0
0
VERTEX
8
0
10
31.5873158623667
20
0
30
0
0
VERTEX
8
0
10
32.2319549615987
20
0
30
0
0
VERTEX
8
0
10
32.8765940608306
20
0
30
0
0
VERTEX
8
0
10
33.5212331600626
20
0
30
0
0
VERTEX
8
0
10
34.1658722592946
20
0
30
0
0
VERTEX
8
0
10
34.8105113585266
20
0
30
0
0
VERTEX
8
0
10
35.4551504577585
20
0
30
0
0
VERTEX
8
0
10
36.0997895569905
20
0
30
0
0
VERTEX
8
0
10
36.7444286562225
20
0
30
0
0
VERTEX
8
0
10
37.3890677554545
20
0
30
0
0
VERTEX
8
0
10
38.0337068546864
20
0
30
0
0
VERTEX
8
0
10
38.6783459539184
20
0
30
0
0
VERTEX
8
0
10
39.3229850531504
20
0
30
0
0
VERTEX
8
0
10
39.9676241523823
20
0
30
0
0
VERTEX
8
0
10
40.6122632516143
20
0
30
0
0
VERTEX
8
0
10
41.2569023508463
20
0
30
0
0
VERTEX
8
0
10
41.9015414500783
20
0
30
0
0
VERTEX
8
0
10
42.5461805493102
20
0
30
0
0
VERTEX
8
0
10
43.1908196485422
20
0
30
0
0
VERTEX
8
0
10
43.8354587477742
20
2.67423375984327
30
0
0
VERTEX
8
0
10
44.4800978470062
20
2.97910717212703
30
0
0
VERTEX
8
0
10
45.1247369462381
20
3.54773010888077
30
0
0
VERTEX
8
0
10
45.7693760454701
20
4.64669706112105
30
0
0
VERTEX
8
0
10
46.4140151447021
20
4.90180332417896
30
0
0
VERTEX
8
0
10
47.0586542439341
20
5.33033451184131
30
0
0
VERTEX
8
0
10
47.703293343166
20
6.15428629985897
30
0
0
VERTEX
8
0
10
48.347932442398
20
6.40660476782472
30
0
0
VERTEX
8
0
10
48.99257154163
20
6.79173497735613
30
0
0
VERTEX
8
0
10
49.637210640862
20
7.48908414069745
30
0
0
VERTEX
8
0
10
50.2818497400939
20
7.74697499889911
30
0
0
VERTEX
8
0
10
50.9264888393259
20
8.11341444533445
30
0
0
VERTEX
8
0
10
51.5711279385579
20
8.73647096586393
30
0
0
VERTEX
8
0
10
52.2157670377898
20
9.00271550594264
30
0
0
VERTEX
8
0
10
52.8604061370218
20
9.36099333464047
30
0
0
VERTEX
8
0
10
53.5050452362538
20
9.93570935038119
30
0
0
VERTEX
8
0
10
54.1496843354858
20
10.2117329807904
30
0
0
VERTEX
8
0
10
54.7943234347177
20
10.5677281939474
30
0
0
VERTEX
8
0
10
55.4389625339497
20
11.1096164533739
30
0
0
VERTEX
8
0
10
56.0836016331817
20
11.3966432850716
30
0
0
VERTEX
8
0
10
56.7282407324137
20
11.7544900124712
30
0
0
VERTEX
8
0
10
57.3728798316456
20
12.2742411782869
30
0
0
VERTEX
8
0
10
58.0175189308776
20
12.5738476829973
30
0
0
VERTEX
8
0
10
58.6621580301096
20
12.937255525617
30
0
0
VERTEX
8
0
10
59.3067971293416
20
13.4433976779623
30
0
0
VERTEX
8
0
10
59.9514362285735
20
13.7580595515908
30
0
0
VERTEX
8
0
10
60.5960753278055
20
14.1313266406963
30
0
0
VERTEX
8
0
10
61.2407144270375
20
14.6320729243788
30
0
0
VERTEX
8
0
10
61.8853535262694
20
14.9661644278511
30
0
0
VERTEX
8
0
10
62.5299926255014
20
15.3557145511114
30
0
0
VERTEX
8
0
10
63.1746317247334
20
15.8614081751221
30
0
0
VERTEX
8
0
10
63.8192708239654
20
16.2239337362596
30
0
0
VERTEX
8
0
10
64.4639099231973
20
16.642613774187
30
0
0
VERTEX
8
0
10
65.1085490224293
20
17.1728792952022
30
0
0
VERTEX
8
0
10
65.7531881216613
20
17.5898323099251
30
0
0
VERTEX
8
0
10
66.3978272208933
20
18.0823168469548
30
0
0
VERTEX
8
0
10
67.0424663201252
20
18.7147371990148
30
0
0
VERTEX
8
0
10
67.6871054193572
20
19.2160095062926
30
0
0
VERTEX
8
0
10
68.3317445185892
20
19.6775437476922
30
0
0
VERTEX
8
0
10
68.9763836178212
20
20.1625422070104
30
0
0
VERTEX
8
0
10
69.6210227170531
20
20.5100473636657
30
0
0
VERTEX
8
0
10
70.2656618162851
20
20.8647987887609
30
0
0
VERTEX
8
0
10
70.9103009155171
20
21.2647901389566
30
0
0
VERTEX
8
0
10
71.5549400147491
20
21.555517336283
30
0
0
VERTEX
8
0
10
72.199579113981
20
21.8612975026208
30
0
0
VERTEX
8
0
10
72.844218213213
20
22.2131043009152
30
0
0
VERTEX
8
0
10
73.488857312445
20
22.4705261795706
30
0
0
VERTEX
8
0
10
74.1334964116769
20
22.7448922098973
30
0
0
VERTEX
8
0
10
74.7781355109089
20
23.0629806255932
30
0
0
VERTEX
8
0
10
75.4227746101409
20
23.2973165278103
30
0
0
VERTEX
8
0
10
76.0674137093729
20
23.5488464112765
30
0
0
VERTEX
8
0
10
76.7120528086048
20
23.8410832123173
30
0
0
VERTEX
8
0
10
77.3566919078368
20
24.0579964384089
30
0
0
VERTEX
8
0
10
78.0013310070688
20
24.2917387299876
30
0
0
VERTEX
8
0
10
78.6459701063008
20
24.563082097947
30
0
0
VERTEX
8
0
10
79.2906092055327
20
24.7661222785022
30
0
0
VERTEX
8
0
10
79.9352483047647
20
24.9853710067307
30
0
0
VERTEX
8
0
10
80.5798874039967
20
25.2392284617305
30
0
0
VERTEX
8
0
10
81.2245265032286
20
25.4307969288954
30
0
0
VERTEX
8
0
10
81.8691656024606
20
25.6378493555341
30
0
0
VERTEX
8
0
10
82.5138047016926
20
25.8767012640354
30
0
0
VERTEX
8
0
10
83.1584438009246
20
26.0585102180996
30
0
0
VERTEX
8
0
10
83.8030829001565
20
26.2550455825059
30
0
0
VERTEX
8
0
10
84.4477219993885
20
26.480773290461
30
0
0
VERTEX
8
0
10
85.0923610986205
20
26.6540917744175
30
0
0
VERTEX
8
0
10
85.7370001978525
20
26.8413815462499
30
0
0
VERTEX
8
0
10
86.3816392970844
20
27.0554570160495
30
0
0
VERTEX
8
0
10
87.0262783963164
20
27.2212541752518
30
0
0
VERTEX
8
0
10
87.6709174955484
20
27.4002879212092
30
0
0
VERTEX
8
0
10
88.3155565947804
20
27.6038911188252
30
0
0
VERTEX
8
0
10
88.9601956940123
20
27.7629250011468
30
0
0
VERTEX
8
0
10
89.6048347932443
20
27.9344901624447
30
0
0
VERTEX
8
0
10
90.2494738924763
20
28.1285856540623
30
0
0
VERTEX
8
0
10
90.8941129917083
20
28.2814609794361
30
0
0
VERTEX
8
0
10
91.5387520909402
20
28.4461957560475
30
0
0
VERTEX
8
0
10
92.1833911901722
20
28.6315848232616
30
0
0
VERTEX
8
0
10
92.8280302894042
20
28.7787920486282
30
0
0
VERTEX
8
0
10
93.4726693886361
20
28.9372217485762
30
0
0
VERTEX
8
0
10
94.1173084878681
20
29.1145790750594
30
0
0
VERTEX
8
0
10
94.7619475871001
20
29.2565216616254
30
0
0
VERTEX
8
0
10
95.4065866863321
20
29.4090844439107
30
0
0
VERTEX
8
0
10
96.051225785564
20
29.5789846822344
30
0
0
VERTEX
8
0
10
96.695864884796
20
29.7159986389457
30
0
0
VERTEX
8
0
10
97.340503984028
20
29.8630642089696
30
0
0
VERTEX
8
0
10
97.98514308326
20
30.0260016844958
30
0
0
VERTEX
8
0
10
98.6297821824919
20
30.1583698941652
30
0
0
VERTEX
8
0
10
99.2744212817239
20
30.3002533755427
30
0
0
VERTEX
8
0
10
99.9190603809559
20
30.4566570023512
30
0
0
VERTEX
8
0
10
100.563699480188
20
30.5846199283901
30
0
0
VERTEX
8
0
10
101.20833857942
20
30.7215923484086
30
0
0
VERTEX
8
0
10
101.852977678652
20
30.871837122805
30
0
0
VERTEX
8
0
10
102.497616777884
20
30.9956009469315
30
0
0
VERTEX
8
0
10
103.142255877116
20
31.1278972918362
30
0
0
VERTEX
8
0
10
103.786894976348
20
31.2723132871606
30
0
0
VERTEX
8
0
10
104.43153407558
20
31.3920561867038
30
0
0
VERTEX
8
0
10
105.076173174812
20
31.5198816791679
30
0
0
VERTEX
8
0
10
105.720812274044
20
31.6587611821986
30
0
0
VERTEX
8
0
10
106.365451373276
20
31.7746382363441
30
0
0
VERTEX
8
0
10
107.010090472508
20
31.8981732901185
30
0
0
VERTEX
8
0
10
107.65472957174
20
32.0317765323335
30
0
0
VERTEX
8
0
10
108.299368670972
20
32.1439236020865
30
0
0
VERTEX
8
0
10
108.944007770204
20
32.2633277774045
30
0
0
VERTEX
8
0
10
109.588646869435
20
32.3918875882919
30
0
0
VERTEX
8
0
10
110.233285968667
20
32.5004244173906
30
0
0
VERTEX
8
0
10
110.877925067899
20
32.6158396112867
30
0
0
VERTEX
8
0
10
111.522564167131
20
32.7395652337215
30
0
0
VERTEX
8
0
10
112.167203266363
20
32.8445979507626
30
0
0
VERTEX
8
0
10
112.811842365595
20
32.956150994407
30
0
0
VERTEX
8
0
10
113.456481464827
20
33.0752312408717
30
0
0
VERTEX
8
0
10
114.101120564059
20
33.1768543959727
30
0
0
VERTEX
8
0
10
114.745759663291
20
33.2846591874057
30
0
0
VERTEX
8
0
10
115.390398762523
20
33.3992650721367
30
0
0
VERTEX
8
0
10
116.035037861755
20
33.4975633080572
30
0
0
VERTEX
8
0
10
116.679676960987
20
33.601722577034
30
0
0
VERTEX
8
0
10
117.324316060219
20
33.7120095275495
30
0
0
VERTEX
8
0
10
117.968955159451
20
33.8070589609687
30
0
0
VERTEX
8
0
10
118.613594258683
20
33.9076657400513
30
0
0
VERTEX
8
0
10
119.258233357915
20
34.013775467668
30
0
0
VERTEX
8
0
10
119.902872457147
20
34.1056448387005
30
0
0
VERTEX
8
0
10
120.547511556379
20
34.2027836975897
30
0
0
VERTEX
8
0
10
121.192150655611
20
34.3048457897427
30
0
0
VERTEX
8
0
10
121.836789754843
20
34.3935974246758
30
0
0
VERTEX
8
0
10
122.481428854075
20
34.4873455124557
30
0
0
VERTEX
8
0
10
123.126067953307
20
34.5854787957989
30
0
0
VERTEX
8
0
10
123.770707052539
20
34.6711694181976
30
0
0
VERTEX
8
0
10
124.415346151771
20
34.761597348272
30
0
0
VERTEX
8
0
10
125.059985251003
20
34.8559110620709
30
0
0
VERTEX
8
0
10
125.704624350235
20
34.9385924798967
30
0
0
VERTEX
8
0
10
126.349263449467
20
35.0257650856886
30
0
0
VERTEX
8
0
10
126.993902548699
20
35.1163598968227
30
0
0
VERTEX
8
0
10
127.638541647931
20
35.1960795875633
30
0
0
VERTEX
8
0
10
128.283180747163
20
35.2800565710031
30
0
0
VERTEX
8
0
10
128.927819846395
20
35.3670254561217
30
0
0
VERTEX
8
0
10
129.572458945627
20
35.4438270675969
30
0
0
VERTEX
8
0
10
130.217098044859
20
35.5246635582893
30
0
0
VERTEX
8
0
10
130.861737144091
20
35.6080925739572
30
0
0
VERTEX
8
0
10
131.506376243323
20
35.6820163549242
30
0
0
VERTEX
8
0
10
132.151015342554
20
35.75976339461
30
0
0
VERTEX
8
0
10
132.795654441786
20
35.8397323523312
30
0
0
VERTEX
8
0
10
133.440293541018
20
35.9108155244016
30
0
0
VERTEX
8
0
10
134.08493264025
20
35.9855204884065
30
0
0
VERTEX
8
0
10
134.729571739482
20
36.062103548651
30
0
0
VERTEX
8
0
10
135.374210838714
20
36.1303806289566
30
0
0
VERTEX
8
0
10
136.018849937946
20
36.2020875944412
30
0
0
VERTEX
8
0
10
136.663489037178
20
36.2753537913985
30
0
0
VERTEX
8
0
10
137.30812813641
20
36.340856873602
30
0
0
VERTEX
8
0
10
137.952767235642
20
36.4096069425465
30
0
0
VERTEX
8
0
10
138.597406334874
20
36.4796206491883
30
0
0
VERTEX
8
0
10
139.242045434106
20
36.5423796492504
30
0
0
VERTEX
8
0
10
139.886684533338
20
36.608211232917
30
0
0
VERTEX
8
0
10
140.53132363257
20
36.6750325746463
30
0
0
VERTEX
8
0
10
141.175962731802
20
36.7350754467291
30
0
0
VERTEX
8
0
10
141.820601831034
20
36.7980245170262
30
0
0
VERTEX
8
0
10
142.465240930266
20
36.8617097407747
30
0
0
VERTEX
8
0
10
143.109880029498
20
36.9190626673985
30
0
0
VERTEX
8
0
10
143.75451912873
20
36.9791629799576
30
0
0
VERTEX
8
0
10
144.399158227962
20
37.0397647844962
30
0
0
VERTEX
8
0
10
145.043797327194
20
37.0944523449341
30
0
0
VERTEX
8
0
10
145.688436426426
20
37.151735637617
30
0
0
VERTEX
8
0
10
146.333075525658
20
37.2093034701626
30
0
0
VERTEX
8
0
10
146.97771462489
20
37.2613487899348
30
0
0
VERTEX
8
0
10
147.622353724121
20
37.3158449602647
30
0
0
VERTEX
8
0
10
148.266992823353
20
37.3704252834765
30
0
0
VERTEX
8
0
10
148.911631922585
20
37.4198501676848
30
0
0
VERTEX
8
0
10
149.556271021817
20
37.4715874319165
30
0
0
VERTEX
8
0
10
150.200910121049
20
37.5232239650643
30
0
0
VERTEX
8
0
10
150.845549220281
20
37.5700490177062
30
0
0
VERTEX
8
0
10
151.490188319513
20
37.6190540539534
30
0
0
VERTEX
8
0
10
152.134827418745
20
37.6677879912473
30
0
0
VERTEX
8
0
10
152.779466517977
20
37.7120327224643
30
0
0
VERTEX
8
0
10
153.424105617209
20
37.758330799952
30
0
0
VERTEX
8
0
10
154.068744716441
20
37.8042010088663
30
0
0
VERTEX
8
0
10
154.713383815673
20
37.845883931678
30
0
0
VERTEX
8
0
10
155.358022914905
20
37.8894990278684
30
0
0
SEQEND
8
0
0
POLYLINE
8
0
62
3
70
0
10
0
20
0
30
0
0
VERTEX
8
0
10
6.44639099231973
20
0
30
0
0
VERTEX
8
0
10
7.0910300915517
20
0.391819030724579
30
0
0
VERTEX
8
0
10
7.73566919078367
20
0
30
0
0
VERTEX
8
0
10
8.38030829001565
20
0
30
0
0
VERTEX
8
0
10
9.02494738924762
20
1.13039240601507
30
0
0
VERTEX
8
0
10
9.6695864884796
20
0
30
0
0
VERTEX
8
0
10
10.3142255877116
20
0
30
0
0
VERTEX
8
0
10
10.9588646869435
20
1.94626539075394
30
0
0
VERTEX
8
0
10
11.6035037861755
20
0
30
0
0
VERTEX
8
0
10
12.2481428854075
20
0
30
0
0
VERTEX
8
0
10
12.8927819846395
20
2.883055345455
30
0
0
VERTEX
8
0
10
13.5374210838714
20
1.94427611294213
30
0
0
VERTEX
8
0
10
14.1820601831034
20
1.67145722270066
30
0
0
VERTEX
8
0
10
14.8266992823354
20
3.92780014041576
30
0
0
VERTEX
8
0
10
15.4713383815674
20
3.50580004021807
30
0
0
VERTEX
8
0
10
16.1159774807993
20
3.5574345518435
30
0
0
VERTEX
8
0
10
16.7606165800313
20
5.0581435378798
30
0
0
VERTEX
8
0
10
17.4052556792633
20
4.89716597582467
30
0
0
VERTEX
8
0
10
18.0498947784953
20
5.07830369643813
30
0
0
VERTEX
8
0
10
18.6945338777272
20
6.25551504757205
30
0
0
VERTEX
8
0
10
19.3391729769592
20
6.25575519935779
30
0
0
VERTEX
8
0
10
19.9838120761912
20
6.51466716323534
30
0
0
VERTEX
8
0
10
20.6284511754231
20
7.50663873255257
30
0
0
VERTEX
8
0
10
21.2730902746551
20
7.6158486883284
30
0
0
VERTEX
8
0
10
21.9177293738871
20
7.92792707536588
30
0
0
VERTEX
8
0
10
22.5623684731191
20
8.80230538501592
30
0
0
VERTEX
8
0
10
23.207007572351
20
8.98966643959103
30
0
0
VERTEX
8
0
10
23.851646671583
20
9.34082091733932
30
0
0
VERTEX
8
0
10
24.496285770815
20
10.1360193536176
30
0
0
VERTEX
8
0
10
25.140924870047
20
10.3819973923331
30
0
0
VERTEX
8
0
10
25.7855639692789
20
10.7633393914306
30
0
0
VERTEX
8
0
10
26.4302030685109
20
11.5030266490343
30
0
0
VERTEX
8
0
10
27.0748421677429
20
11.7945665746314
30
0
0
VERTEX
8
0
10
27.7194812669749
20
12.200112319976
30
0
0
VERTEX
8
0
10
28.3641203662068
20
12.8996955592774
30
0
0
VERTEX
8
0
10
29.0087594654388
20
13.2276903261323
30
0
0
VERTEX
8
0
10
29.6533985646708
20
13.6532065405483
30
0
0
VERTEX
8
0
10
30.2980376639027
20
14.3231374866404
30
0
0
VERTEX
8
0
10
30.9426767631347
20
14.6810014369389
30
0
0
VERTEX
8
0
10
31.5873158623667
20
15.1233708687526
30
0
0
VERTEX
8
0
10
32.2319549615987
20
15.7709764315944
30
0
0
VERTEX
8
0
10
32.8765940608306
20
16.1537995025113
30
0
0
VERTEX
8
0
10
33.5212331600626
20
16.6106500182766
30
0
0
VERTEX
8
0
10
34.1658722592946
20
17.2412075235482
30
0
0
VERTEX
8
0
10
34.8105113585266
20
17.6452327795683
30
0
0
VERTEX
8
0
10
35.4551504577585
20
18.1147101004259
30
0
0
VERTEX
8
0
10
36.0997895569905
20
18.7321088457148
30
0
0
VERTEX
8
0
10
36.7444286562225
20
19.1543982680174
30
0
0
VERTEX
8
0
10
37.3890677554545
20
19.6350213882443
30
0
0
VERTEX
8
0
10
38.0337068546864
20
20.2421858294712
30
0
0
VERTEX
8
0
10
38.6783459539184
20
20.6804000774602
30
0
0
VERTEX
8
0
10
39.3229850531504
20
21.1709665290379
30
0
0
VERTEX
8
0
10
39.9676241523823
20
21.7701364052083
30
0
0
VERTEX
8
0
10
40.6122632516143
20
22.2223861003132
30
0
0
VERTEX
8
0
10
41.2569023508463
20
22.7219085995204
30
0
0
VERTEX
8
0
10
41.9015414500783
20
23.3148303140211
30
0
0
VERTEX
8
0
10
42.5461805493102
20
23.7795738144023
30
0
0
VERTEX
8
0
10
43.1908196485422
20
24.287237591005
30
0
0
VERTEX
8
0
10
43.8354587477742
20
24.8752991306015
30
0
0
VERTEX
8
0
10
44.4800978470062
20
25.3512716933808
30
0
0
VERTEX
8
0
10
45.1247369462381
20
25.8664062317266
30
0
0
VERTEX
8
0
10
45.7693760454701
20
26.4507356271752
30
0
0
VERTEX
8
0
10
46.4140151447021
20
26.9369007757811
30
0
0
VERTEX
8
0
10
47.0586542439341
20
27.458962411754
30
0
0
VERTEX
8
0
10
47.703293343166
20
28.0405027733775
30
0
0
VERTEX
8
0
10
48.347932442398
20
28.5360204599983
30
0
0
VERTEX
8
0
10
48.99257154163
20
29.0645841575832
30
0
0
VERTEX
8
0
10
49.637210640862
20
29.6441544428737
30
0
0
VERTEX
8
0
10
50.2818497400939
20
30.1483633026765
30
0
0
VERTEX
8
0
10
50.9264888393259
20
30.683123556678
30
0
0
VERTEX
8
0
10
51.5711279385579
20
31.2614724093711
30
0
0
VERTEX
8
0
10
52.2157670377898
20
31.7738858301809
30
0
0
VERTEX
8
0
10
52.8604061370218
20
32.3146685636766
30
0
0
VERTEX
8
0
10
53.5050452362538
20
32.8925285467139
30
0
0
VERTEX
8
0
10
54.1496843354858
20
33.4128472882787
30
0
0
VERTEX
8
0
10
54.7943234347177
20
33.9596377132848
30
0
0
VERTEX
8
0
10
55.4389625339497
20
34.5377896640069
30
0
0
VERTEX
8
0
10
56.0836016331817
20
35.0659389093547
30
0
0
VERTEX
8
0
10
56.7282407324137
20
35.6189365694455
30
0
0
VERTEX
8
0
10
57.3728798316456
20
36.1983010579453
30
0
0
VERTEX
8
0
10
58.0175189308776
20
36.7345109350177
30
0
0
VERTEX
8
0
10
58.6621580301096
20
37.2942380130009
30
0
0
VERTEX
8
0
10
59.3067971293416
20
37.8760307888979
30
0
0
VERTEX
8
0
10
59.9514362285735
20
38.4210085055063
30
0
0
VERTEX
8
0
10
60.5960753278055
20
38.988539101883
30
0
0
VERTEX
8
0
10
61.2407144270375
20
39.5745882218528
30
0
0
VERTEX
8
0
10
61.8853535262694
20
40.1299226587298
30
0
0
VERTEX
8
0
10
62.5299926255014
20
40.7074448696662
30
0
0
VERTEX
8
0
10
63.1746317247334
20
41.3009995555872
30
0
0
VERTEX
8
0
10
63.8192708239654
20
41.8703320094888
30
0
0
VERTEX
8
0
10
64.4639099231973
20
42.4629544150637
30
0
0
VERTEX
8
0
10
65.1085490224293
20
43.0716570123422
30
0
0
VERTEX
8
0
10
65.7531881216613
20
43.6660030485706
30
0
0
VERTEX
8
0
10
66.3978272208933
20
44.2926476935657
30
0
0
VERTEX
8
0
10
67.0424663201252
20
44.9495325523572
30
0
0
VERTEX
8
0
10
67.6871054193572
20
45.581800395187
30
0
0
VERTEX
8
0
10
68.3317445185892
20
46.1961447281066
30
0
0
VERTEX
8
0
10
68.9763836178212
20
46.7900840419832
30
0
0
VERTEX
8
0
10
69.6210227170531
20
47.3509479303663
30
0
0
VERTEX
8
0
10
70.2656618162851
20
47.9127521078689
30
0
0
VERTEX
8
0
10
70.9103009155171
20
48.4639570942256
30
0
0
VERTEX
8
0
10
71.5549400147491
20
48.9924346156842
30
0
0
VERTEX
8
0
10
72.199579113981
20
49.5252769692222
30
0
0
VERTEX
8
0
10
72.844218213213
20
50.0486497020305
30
0
0
VERTEX
8
0
10
73.488857312445
20
50.5547329116046
30
0
0
VERTEX
8
0
10
74.1334964116769
20
51.0661372027072
30
0
0
VERTEX
8
0
10
74.7781355109089
20
51.5677987046674
30
0
0
VERTEX
8
0
10
75.4227746101409
20
52.0561098973447
30
0
0
VERTEX
8
0
10
76.0674137093729
20
52.5499775627381
30
0
0
VERTEX
8
0
10
76.7120528086048
20
53.0334361178997
30
0
0
VERTEX
8
0
10
77.3566919078368
20
53.5067038198074
30
0
0
VERTEX
8
0
10
78.0013310070688
20
53.9854737713151
30
0
0
VERTEX
8
0
10
78.6459701063008
20
54.4530588900652
30
0
0
VERTEX
8
0
10
79.2906092055327
20
54.9131019200801
30
0
0
VERTEX
8
0
10
79.9352483047647
20
55.3784602862111
30
0
0
VERTEX
8
0
10
80.5798874039967
20
55.8318531195624
30
0
0
VERTEX
8
0
10
81.2245265032286
20
56.2799762839486
30
0
0
VERTEX
8
0
10
81.8691656024606
20
56.7331647126946
30
0
0
VERTEX
8
0
10
82.5138047016926
20
57.1736450139867
30
0
0
VERTEX
8
0
10
83.1584438009246
20
57.6108317031539
30
0
0
VERTEX
8
0
10
83.8030829001565
20
58.0528050252316
30
0
0
VERTEX
8
0
10
84.4477219993885
20
58.4813837200871
30
0
0
VERTEX
8
0
10
85.0923610986205
20
58.9084018965929
30
0
0
VERTEX
8
0
10
85.7370001978525
20
59.3399180027833
30
0
0
VERTEX
8
0
10
86.3816392970844
20
59.7574156454482
30
0
0
VERTEX
8
0
10
87.0262783963164
20
60.1748814116972
30
0
0
VERTEX
8
0
10
87.6709174955484
20
60.596556630479
30
0
0
VERTEX
8
0
10
88.3155565947804
20
61.0036532572172
30
0
0
VERTEX
8
0
10
88.9601956940123
20
61.4120714898522
30
0
0
VERTEX
8
0
10
89.6048347932443
20
61.824416759994
30
0
0
VERTEX
8
0
10
90.2494738924763
20
62.2216853264465
30
0
0
VERTEX
8
0
10
90.8941129917083
20
62.6214769572932
30
0
0
VERTEX
8
0
10
91.5387520909402
20
63.0249225539478
30
0
0
VERTEX
8
0
10
92.1833911901722
20
63.4128523322111
30
0
0
VERTEX
8
0
10
92.8280302894042
20
63.804373390842
30
0
0
VERTEX
8
0
10
93.4726693886361
20
64.1992864519173
30
0
0
VERTEX
8
0
10
94.1173084878681
20
64.5782999682173
30
0
0
VERTEX
8
0
10
94.7619475871001
20
64.9618553004497
30
0
0
VERTEX
8
0
10
95.4065866863321
20
65.3485526235432
30
0
0
VERTEX
8
0
10
96.051225785564
20
65.7190182657279
30
0
0
VERTEX
8
0
10
96.695864884796
20
66.0948716783997
30
0
0
VERTEX
8
0
10
97.340503984028
20
66.4736292975512
30
0
0
VERTEX
8
0
10
97.98514308326
20
66.8358709192407
30
0
0
VERTEX
8
0
10
98.6297821824919
20
67.2042528490366
30
0
0
VERTEX
8
0
10
99.2744212817239
20
67.5753133522823
30
0
0
VERTEX
8
0
10
99.9190603809559
20
67.9296177334142
30
0
0
VERTEX
8
0
10
100.563699480188
20
68.2907311537749
30
0
0
VERTEX
8
0
10
101.20833857942
20
68.6543093748598
30
0
0
VERTEX
8
0
10
101.852977678652
20
69.0009321146633
30
0
0
VERTEX
8
0
10
102.497616777884
20
69.3549571599111
30
0
0
VERTEX
8
0
10
103.142255877116
20
69.7112446741088
30
0
0
VERTEX
8
0
10
103.786894976348
20
70.0504149134728
30
0
0
VERTEX
8
0
10
104.43153407558
20
70.397512550262
30
0
0
VERTEX
8
0
10
105.076173174812
20
70.7466812737289
30
0
0
VERTEX
8
0
10
105.720812274044
20
71.0786055274195
30
0
0
VERTEX
8
0
10
106.365451373276
20
71.418920506365
30
0
0
VERTEX
8
0
10
107.010090472508
20
71.7611256122564
30
0
0
VERTEX
8
0
10
107.65472957174
20
72.0859909133795
30
0
0
VERTEX
8
0
10
108.299368670972
20
72.4196541684699
30
0
0
VERTEX
8
0
10
108.944007770204
20
72.7550364746447
30
0
0
VERTEX
8
0
10
109.588646869435
20
73.0730129803088
30
0
0
VERTEX
8
0
10
110.233285968667
20
73.4001435988855
30
0
0
VERTEX
8
0
10
110.877925067899
20
73.7288315416051
30
0
0
VERTEX
8
0
10
111.522564167131
20
74.0400747111747
30
0
0
VERTEX
8
0
10
112.167203266363
20
74.360781565925
30
0
0
VERTEX
8
0
10
112.811842365595
20
74.6828928453844
30
0
0
VERTEX
8
0
10
113.456481464827
20
74.98754527589
30
0
0
VERTEX
8
0
10
114.101120564059
20
75.3019283879353
30
0
0
VERTEX
8
0
10
114.745759663291
20
75.6175713509842
30
0
0
VERTEX
8
0
10
115.390398762523
20
75.9157643347956
30
0
0
VERTEX
8
0
10
116.035037861755
20
76.2239160207434
30
0
0
VERTEX
8
0
10
116.679676960987
20
76.5331908310479
30
0
0
VERTEX
8
0
10
117.324316060219
20
76.8250456865913
30
0
0
VERTEX
8
0
10
117.968955159451
20
77.1270515304487
30
0
0
VERTEX
8
0
10
118.613594258683
20
77.4300511653703
30
0
0
VERTEX
8
0
10
119.258233357915
20
77.7156803806945
30
0
0
VERTEX
8
0
10
119.902872457147
20
78.011620062664
30
0
0
VERTEX
8
0
10
120.547511556379
20
78.3084311676739
30
0
0
VERTEX
8
0
10
121.192150655611
20
78.5879393887914
30
0
0
VERTEX
8
0
10
121.836789754843
20
78.8778873962595
30
0
0
VERTEX
8
0
10
122.481428854075
20
79.1685910214825
30
0
0
VERTEX
8
0
10
123.126067953307
20
79.4420759108505
30
0
0
VERTEX
8
0
10
123.770707052539
20
79.7261021517362
30
0
0
VERTEX
8
0
10
124.415346151771
20
80.0107743901856
30
0
0
VERTEX
8
0
10
125.059985251003
20
80.2783273760813
30
0
0
VERTEX
8
0
10
125.704624350235
20
80.5564977107357
30
0
0
VERTEX
8
0
10
126.349263449467
20
80.8352102542557
30
0
0
VERTEX
8
0
10
126.993902548699
20
81.0969171878066
30
0
0
VERTEX
8
0
10
127.638541647931
20
81.3692938925893
30
0
0
VERTEX
8
0
10
128.283180747163
20
81.6421145183633
30
0
0
VERTEX
8
0
10
128.927819846395
20
81.8980562520817
30
0
0
VERTEX
8
0
10
129.572458945627
20
82.1646984253493
30
0
0
VERTEX
8
0
10
130.217098044859
20
82.431691423578
30
0
0
VERTEX
8
0
10
130.861737144091
20
82.6819443228784
30
0
0
VERTEX
8
0
10
131.506376243323
20
82.9429082421461
30
0
0
VERTEX
8
0
10
132.151015342554
20
83.2041347937003
30
0
0
VERTEX
8
0
10
132.795654441786
20
83.4487711908468
30
0
0
VERTEX
8
0
10
133.440293541018
20
83.7041106283924
30
0
0
VERTEX
8
0
10
134.08493264025
20
83.9596291396321
30
0
0
VERTEX
8
0
10
134.729571739482
20
84.1987177381149
30
0
0
VERTEX
8
0
10
135.374210838714
20
84.4484842410789
30
0
0
VERTEX
8
0
10
136.018849937946
20
84.6983506419525
30
0
0
VERTEX
8
0
10
136.663489037178
20
84.9319568780147
30
0
0
VERTEX
8
0
10
137.30812813641
20
85.1762000179907
30
0
0
VERTEX
8
0
10
137.952767235642
20
85.420468028454
30
0
0
VERTEX
8
0
10
138.597406334874
20
85.6486543953654
30
0
0
VERTEX
8
0
10
139.242045434106
20
85.8874219917384
30
0
0
VERTEX
8
0
10
139.886684533338
20
86.1261433608241
30
0
0
VERTEX
8
0
10
140.53132363257
20
86.3489697007613
30
0
0
VERTEX
8
0
10
141.175962731802
20
86.5823080214131
30
0
0
VERTEX
8
0
10
141.820601831034
20
86.8155327425275
30
0
0
VERTEX
8
0
10
142.465240930266
20
87.0330565101508
30
0
0
VERTEX
8
0
10
143.109880029498
20
87.2610104524379
30
0
0
VERTEX
8
0
10
143.75451912873
20
87.4887869580438
30
0
0
VERTEX
8
0
10
144.399158227962
20
87.7010634592567
30
0
0
VERTEX
8
0
10
145.043797327194
20
87.9236767139758
30
0
0
VERTEX
8
0
10
145.688436426426
20
88.1460520522147
30
0
0
VERTEX
8
0
10
146.333075525658
20
88.3531346611857
30
0
0
VERTEX
8
0
10
146.97771462489
20
88.5704498616249
30
0
0
VERTEX
8
0
10
147.622353724121
20
88.7874698572285
30
0
0
VERTEX
8
0
10
148.266992823353
20
88.9894102142217
30
0
0
VERTEX
8
0
10
148.911631922585
20
89.2014690722481
30
0
0
VERTEX
8
0
10
149.556271021817
20
89.413178473641
30
0
0
VERTEX
8
0
10
150.200910121049
20
89.610026665979
30
0
0
VERTEX
8
0
10
150.845549220281
20
89.8168700967566
30
0
0
VERTEX
8
0
10
151.490188319513
20
90.0233127110536
30
0
0
VERTEX
8
0
10
152.134827418745
20
90.2151174391222
30
0
0
VERTEX
8
0
10
152.779466517977
20
90.4167856759019
30
0
0
VERTEX
8
0
10
153.424105617209
20
90.6180044932651
30
0
0
VERTEX
8
0
10
154.068744716441
20
90.8048132233278
30
0
0
VERTEX
8
0
10
154.713383815673
20
91.001345923503
30
0
0
VERTEX
8
0
10
155.358022914905
20
91.1973832321278
30
0
0
SEQEND
8
0
0
POLYLINE
8
0
62
4
70
0
10
0
20
0
30
0
0
VERTEX
8
0
10
6.44639099231973
20
0
30
0
0
VERTEX
8
0
10
7.0910300915517
20
0
30
0
0
VERTEX
8
0
10
7.73566919078367
20
0
30
0
0
VERTEX
8
0
10
8.38030829001565
20
0
30
0
0
VERTEX
8
0
10
9.02494738924762
20
0
30
0
0
VERTEX
8
0
10
9.6695864884796
20
0
30
0
0
VERTEX
8
0
10
10.3142255877116
20
0
30
0
0
VERTEX
8
0
10
10.9588646869435
20
0
30
0
0
VERTEX
8
0
10
11.6035037861755
20
0
30
0
0
VERTEX
8
0
10
12.2481428854075
20
0
30
0
0
VERTEX
8
0
10
12.8927819846395
20
0
30
0
0
VERTEX
8
0
10
13.5374210838714
20
0
30
0
0
VERTEX
8
0
10
14.1820601831034
20
0
30
0
0
VERTEX
8
0
10
14.8266992823354
20
0
30
0
0
VERTEX
8
0
10
15.4713383815674
20
0
30
0
0
VERTEX
8
0
10
16.1159774807993
20
0
30
0
0
VERTEX
8
0
10
16.7606165800313
20
0
30
0
0
VERTEX
8
0
10
17.4052556792633
20
0
30
0
0
VERTEX
8
0
10
18.0498947784953
20
0
30
0
0
VERTEX
8
0
10
18.6945338777272
20
0
30
0
0
VERTEX
8
0
10
19.3391729769592
20
0
30
0
0
VERTEX
8
0
10
19.9838120761912
20
0
30
0
0
VERTEX
8
0
10
20.6284511754231
20
0
30
0
0
VERTEX
8
0
10
21.2730902746551
20
0
30
0
0
VERTEX
8
0
10
21.9177293738871
20
0
30
0
0
VERTEX
8
0
10
22.5623684731191
20
0
30
0
0
VERTEX
8
0
10
23.207007572351
20
0
30
0
0
VERTEX
8
0
10
23.851646671583
20
0
30
0
0
VERTEX
8
0
10
24.496285770815
20
0
30
0
0
VERTEX
8
0
10
25.140924870047
20
0
30
0
0
VERTEX
8
0
10
25.7855639692789
20
0
30
0
0
VERTEX
8
0
10
26.4302030685109
20
0
30
0
0
VERTEX
8
0
10
27.0748421677429
20
0
30
0
0
VERTEX
8
0
10
27.7194812669749
20
12.200167485252
30
0
0
VERTEX
8
0
10
28.3641203662068
20
12.9050647521972
30
0
0
VERTEX
8
0
10
29.0087594654388
20
13.2466114515165
30
0
0
VERTEX
8
0
10
29.6533985646708
20
13.6930096555923
30
0
0
VERTEX
8
0
10
30.2980376639027
20
14.3893516606967
30
0
0
VERTEX
8
0
10
30.9426767631347
20
14.7807595971572
30
0
0
VERTEX
8
0
10
31.5873158623667
20
15.2616658000951
30
0
0
VERTEX
8
0
10
32.2319549615987
20
15.950360742225
30
0
0
VERTEX
8
0
10
32.8765940608306
20
16.3813592344661
30
0
0
VERTEX
8
0
10
33.5212331600626
20
16.8868907102853
30
0
0
VERTEX
8
0
10
34.1658722592946
20
17.5668642964749
30
0
0
VERTEX
8
0
10
34.8105113585266
20
18.0272827511462
30
0
0
VERTEX
8
0
10
35.4551504577585
20
18.5546679696957
30
0
0
VERTEX
8
0
10
36.0997895569905
20
19.1542737070875
30
0
0
VERTEX
8
0
10
36.7444286562225
20
19.5789606660041
30
0
0
VERTEX
8
0
10
37.3890677554545
20
20.0607944920381
30
0
0
VERTEX
8
0
10
38.0337068546864
20
20.6666503223133
30
0
0
VERTEX
8
0
10
38.6783459539184
20
21.078803103554
30
0
0
VERTEX
8
0
10
39.3229850531504
20
21.5478108958192
30
0
0
VERTEX
8
0
10
39.9676241523823
20
22.1248134856148
30
0
0
VERTEX
8
0
10
40.6122632516143
20
22.5584140186438
30
0
0
VERTEX
8
0
10
41.2569023508463
20
23.0400220908125
30
0
0
VERTEX
8
0
10
41.9015414500783
20
23.6147239068846
30
0
0
VERTEX
8
0
10
42.5461805493102
20
24.0638018167189
30
0
0
VERTEX
8
0
10
43.1908196485422
20
24.5560799131475
30
0
0
VERTEX
8
0
10
43.8354587477742
20
24.9875140597462
30
0
0
VERTEX
8
0
10
44.4800978470062
20
25.4200965512368
30
0
0
VERTEX
8
0
10
45.1247369462381
20
25.8550227389208
30
0
0
VERTEX
8
0
10
45.7693760454701
20
26.2617805924894
30
0
0
VERTEX
8
0
10
46.4140151447021
20
26.7311642455947
30
0
0
VERTEX
8
0
10
47.0586542439341
20
27.207178826386
30
0
0
VERTEX
8
0
10
47.703293343166
20
27.6551133472404
30
0
0
VERTEX
8
0
10
48.347932442398
20
28.1341963002632
30
0
0
VERTEX
8
0
10
48.99257154163
20
28.6302981015296
30
0
0
VERTEX
8
0
10
49.637210640862
20
29.1031530222112
30
0
0
VERTEX
8
0
10
50.2818497400939
20
29.6087010390069
30
0
0
VERTEX
8
0
10
50.9264888393259
20
30.1178869116562
30
0
0
VERTEX
8
0
10
51.5711279385579
20
30.5978402601781
30
0
0
VERTEX
8
0
10
52.2157670377898
20
31.1092648589677
30
0
0
VERTEX
8
0
10
52.8604061370218
20
31.623712558738
30
0
0
VERTEX
8
0
10
53.5050452362538
20
32.1100715713765
30
0
0
VERTEX
8
0
10
54.1496843354858
20
32.6314746919555
30
0
0
VERTEX
8
0
10
54.7943234347177
20
33.1578012576217
30
0
0
VERTEX
8
0
10
55.4389625339497
20
33.6559623667061
30
0
0
VERTEX
8
0
10
56.0836016331817
20
34.1862143010131
30
0
0
VERTEX
8
0
10
56.7282407324137
20
34.7295710208399
30
0
0
VERTEX
8
0
10
57.3728798316456
20
35.2555056159224
30
0
0
VERTEX
8
0
10
58.0175189308776
20
35.8144344494831
30
0
0
VERTEX
8
0
10
58.6621580301096
20
36.3767959782796
30
0
0
VERTEX
8
0
10
59.3067971293416
20
36.9114788583405
30
0
0
VERTEX
8
0
10
59.9514362285735
20
37.4929081641651
30
0
0
VERTEX
8
0
10
60.5960753278055
20
38.0738426577005
30
0
0
VERTEX
8
0
10
61.2407144270375
20
38.6272930513172
30
0
0
VERTEX
8
0
10
61.8853535262694
20
39.2133631334653
30
0
0
VERTEX
8
0
10
62.5299926255014
20
39.8025328796826
30
0
0
VERTEX
8
0
10
63.1746317247334
20
40.3639252826235
30
0
0
VERTEX
8
0
10
63.8192708239654
20
40.9574882301746
30
0
0
VERTEX
8
0
10
64.4639099231973
20
41.5537774237923
30
0
0
VERTEX
8
0
10
65.1085490224293
20
42.1231901607223
30
0
0
VERTEX
8
0
10
65.7531881216613
20
42.724190074979
30
0
0
VERTEX
8
0
10
66.3978272208933
20
43.3276134207308
30
0
0
VERTEX
8
0
10
67.0424663201252
20
43.902697841521
30
0
0
VERTEX
8
0
10
67.6871054193572
20
44.5153826278284
30
0
0
VERTEX
8
0
10
68.3317445185892
20
45.126470379259
30
0
0
VERTEX
8
0
10
68.9763836178212
20
45.7069533230198
30
0
0
VERTEX
8
0
10
69.6210227170531
20
46.3150988485157
30
0
0
VERTEX
8
0
10
70.2656618162851
20
46.9233716118389
30
0
0
VERTEX
8
0
10
70.9103009155171
20
47.5018391708471
30
0
0
VERTEX
8
0
10
71.5549400147491
20
48.1072703012599
30
0
0
VERTEX
8
0
10
72.199579113981
20
48.71178798139
30
0
0
VERTEX
8
0
10
72.844218213213
20
49.2862648315112
30
0
0
VERTEX
8
0
10
73.488857312445
20
49.8869114182914
30
0
0
VERTEX
8
0
10
74.1334964116769
20
50.4866276182048
30
0
0
VERTEX
8
0
10
74.7781355109089
20
51.0580350608878
30
0
0
VERTEX
8
0
10
75.4227746101409
20
51.6492258431881
30
0
0
VERTEX
8
0
10
76.0674137093729
20
52.2382459792199
30
0
0
VERTEX
8
0
10
76.7120528086048
20
52.7995100508235
30
0
0
VERTEX
8
0
10
77.3566919078368
20
53.3856015913552
30
0
0
VERTEX
8
0
10
78.0013310070688
20
53.9112792821999
30
0
0
VERTEX
8
0
10
78.6459701063008
20
54.3883649466487
30
0
0
VERTEX
8
0
10
79.2906092055327
20
54.8888292789197
30
0
0
VERTEX
8
0
10
79.9352483047647
20
55.3874024593521
30
0
0
VERTEX
8
0
10
80.5798874039967
20
55.8553789161384
30
0
0
VERTEX
8
0
10
81.2245265032286
20
56.3446037389975
30
0
0
VERTEX
8
0
10
81.8691656024606
20
56.8319802445249
30
0
0
VERTEX
8
0
10
82.5138047016926
20
57.2924073711094
30
0
0
VERTEX
8
0
10
83.1584438009246
20
57.7767328735975
30
0
0
VERTEX
8
0
10
83.8030829001565
20
58.2603734503969
30
0
0
VERTEX
8
0
10
84.4477219993885
20
58.7176136628653
30
0
0
VERTEX
8
0
10
85.0923610986205
20
59.1970337647927
30
0
0
VERTEX
8
0
10
85.7370001978525
20
59.6747305829219
30
0
0
VERTEX
8
0
10
86.3816392970844
20
60.1139822128226
30
0
0
VERTEX
8
0
10
87.0262783963164
20
60.5789113719415
30
0
0
VERTEX
8
0
10
87.6709174955484
20
61.0421276503783
30
0
0
VERTEX
8
0
10
88.3155565947804
20
61.479912641926
30
0
0
VERTEX
8
0
10
88.9601956940123
20
61.9019518047593
30
0
0
VERTEX
8
0
10
89.6048347932443
20
62.3320666869434
30
0
0
VERTEX
8
0
10
90.2494738924763
20
62.7371320129399
30
0
0
VERTEX
8
0
10
90.8941129917083
20
63.1631772865497
30
0
0
VERTEX
8
0
10
91.5387520909402
20
63.585956994735
30
0
0
VERTEX
8
0
10
92.1833911901722
20
63.984447185673
30
0
0
VERTEX
8
0
10
92.8280302894042
20
64.4035786617239
30
0
0
VERTEX
8
0
10
93.4726693886361
20
64.8210465970259
30
0
0
VERTEX
8
0
10
94.1173084878681
20
65.2114115002843
30
0
0
VERTEX
8
0
10
94.7619475871001
20
65.6224992826589
30
0
0
VERTEX
8
0
10
95.4065866863321
20
66.0319512091451
30
0
0
VERTEX
8
0
10
96.051225785564
20
66.4176190212655
30
0
0
VERTEX
8
0
10
96.695864884796
20
66.8192468231628
30
0
0
VERTEX
8
0
10
97.340503984028
20
67.2195345709483
30
0
0
VERTEX
8
0
10
97.98514308326
20
67.5964367851464
30
0
0
VERTEX
8
0
10
98.6297821824919
20
67.9929825099176
30
0
0
VERTEX
8
0
10
99.2744212817239
20
68.3720881186571
30
0
0
VERTEX
8
0
10
99.9190603809559
20
68.7278203996997
30
0
0
VERTEX
8
0
10
100.563699480188
20
69.1028784111999
30
0
0
VERTEX
8
0
10
101.20833857942
20
69.4763727416171
30
0
0
VERTEX
8
0
10
101.852977678652
20
69.8283376265772
30
0
0
VERTEX
8
0
10
102.497616777884
20
70.1994629569055
30
0
0
VERTEX
8
0
10
103.142255877116
20
70.5690412166174
30
0
0
VERTEX
8
0
10
103.786894976348
20
70.9163584732562
30
0
0
VERTEX
8
0
10
104.43153407558
20
71.2813978070132
30
0
0
VERTEX
8
0
10
105.076173174812
20
71.6446403371977
30
0
0
VERTEX
8
0
10
105.720812274044
20
71.9859848076072
30
0
0
VERTEX
8
0
10
106.365451373276
20
72.3457194317316
30
0
0
VERTEX
8
0
10
107.010090472508
20
72.6953578374006
30
0
0
VERTEX
8
0
10
107.65472957174
20
73.0196048013914
30
0
0
VERTEX
8
0
10
108.299368670972
20
73.3619465108221
30
0
0
VERTEX
8
0
10
108.944007770204
20
73.702799026185
30
0
0
VERTEX
8
0
10
109.588646869435
20
74.0047758218684
30
0
0
VERTEX
8
0
10
110.233285968667
20
74.3125406062568
30
0
0
VERTEX
8
0
10
110.877925067899
20
74.6189090733928
30
0
0
VERTEX
8
0
10
111.522564167131
20
74.9044784348461
30
0
0
VERTEX
8
0
10
112.167203266363
20
75.2076361811165
30
0
0
VERTEX
8
0
10
112.811842365595
20
75.502046420409
30
0
0
VERTEX
8
0
10
113.456481464827
20
75.778435046567
30
0
0
VERTEX
8
0
10
114.101120564059
20
76.0721472292394
30
0
0
VERTEX
8
0
10
114.745759663291
20
76.3644871427154
30
0
0
VERTEX
8
0
10
115.390398762523
20
76.6383629391935
30
0
0
VERTEX
8
0
10
116.035037861755
20
76.928781273169
30
0
0
VERTEX
8
0
10
116.679676960987
20
77.2178234542663
30
0
0
VERTEX
8
0
10
117.324316060219
20
77.4869940033043
30
0
0
VERTEX
8
0
10
117.968955159451
20
77.7808056564239
30
0
0
VERTEX
8
0
10
118.613594258683
20
78.0713624561178
30
0
0
VERTEX
8
0
10
119.258233357915
20
78.3423353299842
30
0
0
VERTEX
8
0
10
119.902872457147
20
78.6297479654113
30
0
0
VERTEX
8
0
10
120.547511556379
20
78.9215870444991
30
0
0
VERTEX
8
0
10
121.192150655611
20
79.193122188899
30
0
0
VERTEX
8
0
10
121.836789754843
20
79.4807953903022
30
0
0
VERTEX
8
0
10
122.481428854075
20
79.7670672459449
30
0
0
VERTEX
8
0
10
123.126067953307
20
80.0303642442012
30
0
0
VERTEX
8
0
10
123.770707052539
20
80.3099359583447
30
0
0
VERTEX
8
0
10
124.415346151771
20
80.5881197999214
30
0
0
VERTEX
8
0
10
125.059985251003
20
80.8476478889282
30
0
0
VERTEX
8
0
10
125.704624350235
20
81.1130412745504
30
0
0
VERTEX
8
0
10
126.349263449467
20
81.3772737210037
30
0
0
VERTEX
8
0
10
126.993902548699
20
81.6231797731072
30
0
0
VERTEX
8
0
10
127.638541647931
20
81.8844002621054
30
0
0
VERTEX
8
0
10
128.283180747163
20
82.1442667921362
30
0
0
VERTEX
8
0
10
128.927819846395
20
82.3861064607899
30
0
0
VERTEX
8
0
10
129.572458945627
20
82.642977731853
30
0
0
VERTEX
8
0
10
130.217098044859
20
82.8984971618505
30
0
0
VERTEX
8
0
10
130.861737144091
20
83.137262409789
30
0
0
VERTEX
8
0
10
131.506376243323
20
83.3909741753982
30
0
0
VERTEX
8
0
10
132.151015342554
20
83.6433330717311
30
0
0
VERTEX
8
0
10
132.795654441786
20
83.8782607267234
30
0
0
VERTEX
8
0
10
133.440293541018
20
84.1259387587368
30
0
0
VERTEX
8
0
10
134.08493264025
20
84.3716502788397
30
0
0
VERTEX
8
0
10
134.729571739482
20
84.6002351217037
30
0
0
VERTEX
8
0
10
135.374210838714
20
84.8430084425265
30
0
0
VERTEX
8
0
10
136.018849937946
20
85.0859222704594
30
0
0
VERTEX
8
0
10
136.663489037178
20
85.3128429772962
30
0
0
VERTEX
8
0
10
137.30812813641
20
85.5536653992859
30
0
0
VERTEX
8
0
10
137.952767235642
20
85.7931440075897
30
0
0
VERTEX
8
0
10
138.597406334874
20
86.0148322624315
30
0
0
VERTEX
8
0
10
139.242045434106
20
86.2490879355497
30
0
0
VERTEX
8
0
10
139.886684533338
20
86.4820089331568
30
0
0
VERTEX
8
0
10
140.53132363257
20
86.6986946880055
30
0
0
VERTEX
8
0
10
141.175962731802
20
86.9287280015905
30
0
0
VERTEX
8
0
10
141.820601831034
20
87.1607538310015
30
0
0
VERTEX
8
0
10
142.465240930266
20
87.3758081730982
30
0
0
VERTEX
8
0
10
143.109880029498
20
87.6039261502305
30
0
0
VERTEX
8
0
10
143.75451912873
20
87.8307114840837
30
0
0
VERTEX
8
0
10
144.399158227962
20
88.0387567199192
30
0
0
VERTEX
8
0
10
145.043797327194
20
88.2603964077093
30
0
0
VERTEX
8
0
10
145.688436426426
20
88.4807123632362
30
0
0
VERTEX
8
0
10
146.333075525658
20
88.6856788246212
30
0
0
VERTEX
8
0
10
146.97771462489
20
88.9060204670534
30
0
0
VERTEX
8
0
10
147.622353724121
20
89.1244554611654
30
0
0
VERTEX
8
0
10
148.266992823353
20
89.327831016433
30
0
0
VERTEX
8
0
10
148.911631922585
20
89.543439845135
30
0
0
VERTEX
8
0
10
149.556271021817
20
89.7550949179918
30
0
0
VERTEX
8
0
10
150.200910121049
20
89.9523507675273
30
0
0
VERTEX
8
0
10
150.845549220281
20
90.1615690459517
30
0
0
VERTEX
8
0
10
151.490188319513
20
90.3694767858925
30
0
0
VERTEX
8
0
10
152.134827418745
20
90.5653226098953
30
0
0
VERTEX
8
0
10
152.779466517977
20
90.7727085626948
30
0
0
VERTEX
8
0
10
153.424105617209
20
90.9787852241321
30
0
0
VERTEX
8
0
10
154.068744716441
20
91.1706794417337
30
0
0
VERTEX
8
0
10
154.713383815673
20
91.3665874330234
30
0
0
VERTEX
8
0
10
155.358022914905
20
91.5609636239703
30
0
0
SEQEND
8
0
0
ENDSEC
0
EOF
