0
SECTION
2
HEADER
9
$ACADVER
1
AC1009
0
ENDSEC
0
SECTION
2
ENTITIES
0
POLYLINE
8
0
62
0
70
1
10
0
20
0
30
0
0
VERTEX
8
0
10
0
20
0
30
0
0
VERTEX
8
0
10
0
20
194.9796875
30
0
0
VERTEX
8
0
10
280
20
194.9796875
30
0
0
VERTEX
8
0
10
280
20
0
30
0
0
SEQEND
8
0
0
TEXT
8
0
62
0
10
0
20
-12
30
0
40
8
1
0
50
0
0
LINE
8
0
62
0
10
14
20
0
30
0
11
14
21
3.2
31
0
0
LINE
8
0
62
0
10
14
20
194.9796875
30
0
11
14
21
191.7796875
31
0
0
LINE
8
0
62
0
10
28
20
0
30
0
11
28
21
3.2
31
0
0
LINE
8
0
62
0
10
28
20
194.9796875
30
0
11
28
21
191.7796875
31
0
0
LINE
8
0
62
0
10
42
20
0
30
0
11
42
21
3.2
31
0
0
LINE
8
0
62
0
10
42
20
194.9796875
30
0
11
42
21
191.7796875
31
0
0
LINE
8
0
62
0
10
56
20
0
30
0
11
56
21
3.2
31
0
0
LINE
8
0
62
0
10
56
20
194.9796875
30
0
11
56
21
191.7796875
31
0
0
LINE
8
0
62
0
10
70
20
0
30
0
11
70
21
6.4
31
0
0
LINE
8
0
62
0
10
70
20
194.9796875
30
0
11
70
21
188.5796875
31
0
0
TEXT
8
0
62
0
10
70
20
-12
30
0
40
8
1
10
50
0
0
LINE
8
0
62
0
10
84
20
0
30
0
11
84
21
3.2
31
0
0
LINE
8
0
62
0
10
84
20
194.9796875
30
0
11
84
21
191.7796875
31
0
0
LINE
8
0
62
0
10
98
20
0
30
0
11
98
21
3.2
31
0
0
LINE
8
0
62
0
10
98
20
194.9796875
30
0
11
98
21
191.7796875
31
0
0
LINE
8
0
62
0
10
112
20
0
30
0
11
112
21
3.2
31
0
0
LINE
8
0
62
0
10
112
20
194.9796875
30
0
11
112
21
191.7796875
31
0
0
LINE
8
0
62
0
10
126
20
0
30
0
11
126
21
3.2
31
0
0
LINE
8
0
62
0
10
126
20
194.9796875
30
0
11
126
21
191.7796875
31
0
0
LINE
8
0
62
0
10
140
20
0
30
0
11
140
21
6.4
31
0
0
LINE
8
0
62
0
10
140
20
194.9796875
30
0
11
140
21
188.5796875
31
0
0
TEXT
8
0
62
0
10
140
20
-12
30
0
40
8
1
20
50
0
0
LINE
8
0
62
0
10
154
20
0
30
0
11
154
21
3.2
31
0
0
LINE
8
0
62
0
10
154
20
194.9796875
30
0
11
154
21
191.7796875
31
0
0
LINE
8
0
62
0
10
168
20
0
30
0
11
168
21
3.2
31
0
0
LINE
8
0
62
0
10
168
20
194.9796875
30
0
11
168
21
191.7796875
31
0
0
LINE
8
0
62
0
10
182
20
0
30
0
11
182
21
3.2
31
0
0
LINE
8
0
62
0
10
182
20
194.9796875
30
0
11
182
21
191.7796875
31
0
0
LINE
8
0
62
0
10
196
20
0
30
0
11
196
21
3.2
31
0
0
LINE
8
0
62
0
10
196
20
194.9796875
30
0
11
196
21
191.7796875
31
0
0
LINE
8
0
62
0
10
210
20
0
30
0
11
210
21
6.4
31
0
0
LINE
8
0
62
0
10
210
20
194.9796875
30
0
11
210
21
188.5796875
31
0
0
TEXT
8
0
62
0
10
210
20
-12
30
0
40
8
1
30
50
0
0
LINE
8
0
62
0
10
224
20
0
30
0
11
224
21
3.2
31
0
0
LINE
8
0
62
0
10
224
20
194.9796875
30
0
11
224
21
191.7796875
31
0
0
LINE
8
0
62
0
10
238
20
0
30
0
11
238
21
3.2
31
0
0
LINE
8
0
62
0
10
238
20
194.9796875
30
0
11
238
21
191.7796875
31
0
0
LINE
8
0
62
0
10
252
20
0
30
0
11
252
21
3.2
31
0
0
LINE
8
0
62
0
10
252
20
194.9796875
30
0
11
252
21
191.7796875
31
0
0
LINE
8
0
62
0
10
266
20
0
30
0
11
266
21
3.2
31
0
0
LINE
8
0
62
0
10
266
20
194.9796875
30
0
11
266
21
191.7796875
31
0
0
LINE
8
0
62
0
10
280
20
0
30
0
11
280
21
6.4
31
0
0
LINE
8
0
62
0
10
280
20
194.9796875
30
0
11
280
21
188.5796875
31
0
0
TEXT
8
0
62
0
10
280
20
-12
30
0
40
8
1
40
50
0
0
TEXT
8
0
62
0
10
-4
20
-4
30
0
40
8
1
0
50
0
0
LINE
8
0
62
0
10
0
20
9.748984375
30
0
11
3.2
21
9.748984375
31
0
0
LINE
8
0
62
0
10
280
20
9.748984375
30
0
11
276.8
21
9.748984375
31
0
0
LINE
8
0
62
0
10
0
20
19.49796875
30
0
11
3.2
21
19.49796875
31
0
0
LINE
8
0
62
0
10
280
20
19.49796875
30
0
11
276.8
21
19.49796875
31
0
0
LINE
8
0
62
0
10
0
20
29.246953125
30
0
11
3.2
21
29.246953125
31
0
0
LINE
8
0
62
0
10
280
20
29.246953125
30
0
11
276.8
21
29.246953125
31
0
0
LINE
8
0
62
0
10
0
20
38.9959375
30
0
11
3.2
21
38.9959375
31
0
0
LINE
8
0
62
0
10
280
20
38.9959375
30
0
11
276.8
21
38.9959375
31
0
0
LINE
8
0
62
0
10
0
20
48.744921875
30
0
11
6.4
21
48.744921875
31
0
0
LINE
8
0
62
0
10
280
20
48.744921875
30
0
11
273.6
21
48.744921875
31
0
0
TEXT
8
0
62
0
10
-4
20
44.744921875
30
0
40
8
1
50
50
0
0
LINE
8
0
62
0
10
0
20
58.49390625
30
0
11
3.2
21
58.49390625
31
0
0
LINE
8
0
62
0
10
280
20
58.49390625
30
0
11
276.8
21
58.49390625
31
0
0
LINE
8
0
62
0
10
0
20
68.242890625
30
0
11
3.2
21
68.242890625
31
0
0
LINE
8
0
62
0
10
280
20
68.242890625
30
0
11
276.8
21
68.242890625
31
0
0
LINE
8
0
62
0
10
0
20
77.991875
30
0
11
3.2
21
77.991875
31
0
0
LINE
8
0
62
0
10
280
20
77.991875
30
0
11
276.8
21
77.991875
31
0
0
LINE
8
0
62
0
10
0
20
87.740859375
30
0
11
3.2
21
87.740859375
31
0
0
LINE
8
0
62
0
10
280
20
87.740859375
30
0
11
276.8
21
87.740859375
31
0
0
LINE
8
0
62
0
10
0
20
97.48984375
30
0
11
6.4
21
97.48984375
31
0
0
LINE
8
0
62
0
10
280
20
97.48984375
30
0
11
273.6
21
97.48984375
31
0
0
TEXT
8
0
62
0
10
-4
20
93.48984375
30
0
40
8
1
100
50
0
0
LINE
8
0
62
0
10
0
20
107.238828125
30
0
11
3.2
21
107.238828125
31
0
0
LINE
8
0
62
0
10
280
20
107.238828125
30
0
11
276.8
21
107.238828125
31
0
0
LINE
8
0
62
0
10
0
20
116.9878125
30
0
11
3.2
21
116.9878125
31
0
0
LINE
8
0
62
0
10
280
20
116.9878125
30
0
11
276.8
21
116.9878125
31
0
0
LINE
8
0
62
0
10
0
20
126.736796875
30
0
11
3.2
21
126.736796875
31
0
0
LINE
8
0
62
0
10
280
20
126.736796875
30
0
11
276.8
21
126.736796875
31
0
0
LINE
8
0
62
0
10
0
20
136.48578125
30
0
11
3.2
21
136.48578125
31
0
0
LINE
8
0
62
0
10
280
20
136.48578125
30
0
11
276.8
21
136.48578125
31
0
0
LINE
8
0
62
0
10
0
20
146.234765625
30
0
11
6.4
21
146.234765625
31
0
0
LINE
8
0
62
0
10
280
20
146.234765625
30
0
11
273.6
21
146.234765625
31
0
0
TEXT
8
0
62
0
10
-4
20
142.234765625
30
0
40
8
1
150
50
0
0
LINE
8
0
62
0
10
0
20
155.98375
30
0
11
3.2
21
155.98375
31
0
0
LINE
8
0
62
0
10
280
20
155.98375
30
0
11
276.8
21
155.98375
31
0
0
LINE
8
0
62
0
10
0
20
165.732734375
30
0
11
3.2
21
165.732734375
31
0
0
LINE
8
0
62
0
10
280
20
165.732734375
30
0
11
276.8
21
165.732734375
31
0
0
LINE
8
0
62
0
10
0
20
175.48171875
30
0
11
3.2
21
175.48171875
31
0
0
LINE
8
0
62
0
10
280
20
175.48171875
30
0
11
276.8
21
175.48171875
31
0
0
LINE
8
0
62
0
10
0
20
185.230703125
30
0
11
3.2
21
185.230703125
31
0
0
LINE
8
0
62
0
10
280
20
185.230703125
30
0
11
276.8
21
185.230703125
31
0
0
LINE
8
0
62
0
10
0
20
194.9796875
30
0
11
6.4
21
194.9796875
31
0
0
LINE
8
0
62
0
10
280
20
194.9796875
30
0
11
273.6
21
194.9796875
31
0
0
TEXT
8
0
62
0
10
-4
20
190.9796875
30
0
40
8
1
200
50
0
0
TEXT
8
0
62
0
10
140
20
-32
30
0
40
10
1
R (kpc)
50
0
0
TEXT
8
0
62
0
10
-24
20
97.48984375
30
0
40
10
1
V (km/s)
50
90
0
TEXT
8
0
62
0
10
123
20
209.9796875
30
0
40
11
1
V vs. R
50
0
0
POLYLINE
8
0
62
5
70
0
10
0
20
0
30
0
0
VERTEX
8
0
10
8.4
20
66.7755119561712
30
0
0
VERTEX
8
0
10
9.1
20
68.1585163515424
30
0
0
VERTEX
8
0
10
9.8
20
69.5415207469135
30
0
0
VERTEX
8
0
10
10.5
20
70.9245251422847
30
0
0
VERTEX
8
0
10
11.2
20
72.3075295376559
30
0
0
VERTEX
8
0
10
11.9
20
73.3181865958118
30
0
0
VERTEX
8
0
10
12.6
20
74.3288436539676
30
0
0
VERTEX
8
0
10
13.3
20
75.3395007121235
30
0
0
VERTEX
8
0
10
14
20
76.3501577702793
30
0
0
VERTEX
8
0
10
14.7
20
76.9884674912199
30
0
0
VERTEX
8
0
10
15.4
20
77.6267772121604
30
0
0
VERTEX
8
0
10
16.1
20
78.265086933101
30
0
0
VERTEX
8
0
10
16.8
20
78.9033966540415
30
0
0
VERTEX
8
0
10
17.5
20
79.5417063749821
30
0
0
VERTEX
8
0
10
18.2
20
80.1800160959226
30
0
0
VERTEX
8
0
10
18.9
20
80.8183258168632
30
0
0
VERTEX
8
0
10
19.6
20
81.4566355378037
30
0
0
VERTEX
8
0
10
20.3
20
82.8396399331749
30
0
0
VERTEX
8
0
10
21
20
84.2226443285461
30
0
0
VERTEX
8
0
10
21.7
20
85.6056487239173
30
0
0
VERTEX
8
0
10
22.4
20
86.9886531192885
30
0
0
VERTEX
8
0
10
23.1
20
88.2652725611696
30
0
0
VERTEX
8
0
10
23.8
20
89.5418920030507
30
0
0
VERTEX
8
0
10
24.5
20
90.8185114449318
30
0
0
VERTEX
8
0
10
25.2
20
92.0951308868129
30
0
0
VERTEX
8
0
10
25.9
20
93.5313277589291
30
0
0
VERTEX
8
0
10
26.6
20
94.9675246310453
30
0
0
VERTEX
8
0
10
27.3
20
96.4037215031615
30
0
0
VERTEX
8
0
10
28
20
97.8399183752778
30
0
0
VERTEX
8
0
10
28.7
20
99.0633453404138
30
0
0
VERTEX
8
0
10
29.4
20
100.28677230555
30
0
0
VERTEX
8
0
10
30.1
20
101.510199270686
30
0
0
VERTEX
8
0
10
30.8
20
102.733626235822
30
0
0
VERTEX
8
0
10
31.5
20
104.063438154448
30
0
0
VERTEX
8
0
10
32.2
20
105.393250073074
30
0
0
VERTEX
8
0
10
32.9
20
106.7230619917
30
0
0
VERTEX
8
0
10
33.6
20
108.052873910326
30
0
0
VERTEX
8
0
10
34.3
20
109.435878305698
30
0
0
VERTEX
8
0
10
35
20
110.818882701069
30
0
0
VERTEX
8
0
10
35.7
20
112.20188709644
30
0
0
VERTEX
8
0
10
36.4
20
113.584891491811
30
0
0
VERTEX
8
0
10
37.1
20
114.435971119732
30
0
0
VERTEX
8
0
10
37.8
20
115.287050747653
30
0
0
VERTEX
8
0
10
38.5
20
116.138130375573
30
0
0
VERTEX
8
0
10
39.2
20
116.989210003494
30
0
0
VERTEX
8
0
10
39.9
20
117.095594956984
30
0
0
VERTEX
8
0
10
40.6
20
117.201979910474
30
0
0
VERTEX
8
0
10
41.3
20
117.308364863964
30
0
0
VERTEX
8
0
10
42
20
117.414749817454
30
0
0
VERTEX
8
0
10
42.7
20
117.521134770945
30
0
0
VERTEX
8
0
10
43.4
20
117.627519724435
30
0
0
VERTEX
8
0
10
44.1
20
117.733904677925
30
0
0
VERTEX
8
0
10
44.8
20
117.840289631415
30
0
0
VERTEX
8
0
10
45.5
20
117.627519724435
30
0
0
VERTEX
8
0
10
46.1999999999999
20
117.414749817455
30
0
0
VERTEX
8
0
10
46.8999999999999
20
117.201979910474
30
0
0
VERTEX
8
0
10
47.5999999999999
20
116.989210003494
30
0
0
VERTEX
8
0
10
48.2999999999999
20
116.776440096514
30
0
0
VERTEX
8
0
10
48.9999999999999
20
116.563670189534
30
0
0
VERTEX
8
0
10
49.6999999999999
20
116.350900282554
30
0
0
VERTEX
8
0
10
50.3999999999999
20
116.138130375573
30
0
0
VERTEX
8
0
10
51.0999999999999
20
115.765783038358
30
0
0
VERTEX
8
0
10
51.7999999999999
20
115.393435701143
30
0
0
VERTEX
8
0
10
52.4999999999999
20
115.021088363927
30
0
0
VERTEX
8
0
10
53.1999999999999
20
114.648741026712
30
0
0
VERTEX
8
0
10
53.8999999999999
20
114.276393689497
30
0
0
VERTEX
8
0
10
54.5999999999999
20
113.904046352282
30
0
0
VERTEX
8
0
10
55.2999999999999
20
113.531699015066
30
0
0
VERTEX
8
0
10
55.9999999999999
20
113.159351677851
30
0
0
VERTEX
8
0
10
56.6999999999999
20
112.733811863891
30
0
0
VERTEX
8
0
10
57.3999999999999
20
112.30827204993
30
0
0
VERTEX
8
0
10
58.0999999999999
20
111.88273223597
30
0
0
VERTEX
8
0
10
58.7999999999999
20
111.457192422009
30
0
0
VERTEX
8
0
10
59.4999999999999
20
111.191230038284
30
0
0
VERTEX
8
0
10
60.1999999999999
20
110.925267654559
30
0
0
VERTEX
8
0
10
60.8999999999999
20
110.659305270834
30
0
0
VERTEX
8
0
10
61.5999999999999
20
110.393342887109
30
0
0
VERTEX
8
0
10
62.2999999999999
20
110.020995549893
30
0
0
VERTEX
8
0
10
62.9999999999999
20
109.648648212678
30
0
0
VERTEX
8
0
10
63.6999999999999
20
109.276300875463
30
0
0
VERTEX
8
0
10
64.3999999999999
20
108.903953538247
30
0
0
VERTEX
8
0
10
65.0999999999999
20
108.797568584757
30
0
0
VERTEX
8
0
10
65.7999999999999
20
108.691183631267
30
0
0
VERTEX
8
0
10
66.4999999999999
20
108.584798677777
30
0
0
VERTEX
8
0
10
67.1999999999999
20
108.478413724287
30
0
0
VERTEX
8
0
10
67.8999999999999
20
108.372028770797
30
0
0
VERTEX
8
0
10
68.5999999999999
20
108.265643817307
30
0
0
VERTEX
8
0
10
69.2999999999999
20
108.159258863817
30
0
0
VERTEX
8
0
10
69.9999999999999
20
108.052873910326
30
0
0
VERTEX
8
0
10
70.6999999999999
20
108.052873910326
30
0
0
VERTEX
8
0
10
71.3999999999999
20
108.052873910326
30
0
0
VERTEX
8
0
10
72.0999999999999
20
108.052873910326
30
0
0
VERTEX
8
0
10
72.7999999999999
20
108.052873910326
30
0
0
VERTEX
8
0
10
73.4999999999999
20
108.052873910326
30
0
0
VERTEX
8
0
10
74.1999999999998
20
108.052873910326
30
0
0
VERTEX
8
0
10
74.8999999999998
20
108.052873910326
30
0
0
VERTEX
8
0
10
75.5999999999998
20
108.052873910326
30
0
0
VERTEX
8
0
10
76.2999999999998
20
107.786911526601
30
0
0
VERTEX
8
0
10
76.9999999999998
20
107.520949142876
30
0
0
VERTEX
8
0
10
77.6999999999998
20
107.254986759151
30
0
0
VERTEX
8
0
10
78.3999999999998
20
106.989024375426
30
0
0
VERTEX
8
0
10
79.0999999999998
20
106.61667703821
30
0
0
VERTEX
8
0
10
79.7999999999998
20
106.244329700995
30
0
0
VERTEX
8
0
10
80.4999999999998
20
105.87198236378
30
0
0
VERTEX
8
0
10
81.1999999999998
20
105.499635026564
30
0
0
VERTEX
8
0
10
81.8999999999998
20
105.127287689349
30
0
0
VERTEX
8
0
10
82.5999999999998
20
104.754940352134
30
0
0
VERTEX
8
0
10
83.2999999999998
20
104.382593014918
30
0
0
VERTEX
8
0
10
83.9999999999998
20
104.010245677703
30
0
0
VERTEX
8
0
10
84.6999999999998
20
103.637898340488
30
0
0
VERTEX
8
0
10
85.3999999999998
20
103.265551003273
30
0
0
VERTEX
8
0
10
86.0999999999998
20
102.893203666057
30
0
0
VERTEX
8
0
10
86.7999999999998
20
102.520856328842
30
0
0
VERTEX
8
0
10
87.4999999999998
20
102.095316514882
30
0
0
VERTEX
8
0
10
88.1999999999998
20
101.669776700921
30
0
0
VERTEX
8
0
10
88.8999999999998
20
101.244236886961
30
0
0
VERTEX
8
0
10
89.5999999999998
20
100.818697073
30
0
0
VERTEX
8
0
10
90.2999999999998
20
100.339964782295
30
0
0
VERTEX
8
0
10
90.9999999999998
20
99.8612324915896
30
0
0
VERTEX
8
0
10
91.6999999999998
20
99.3825002008842
30
0
0
VERTEX
8
0
10
92.3999999999998
20
98.9037679101788
30
0
0
VERTEX
8
0
10
93.0999999999998
20
98.5314205729635
30
0
0
VERTEX
8
0
10
93.7999999999998
20
98.1590732357482
30
0
0
VERTEX
8
0
10
94.4999999999998
20
97.7867258985328
30
0
0
VERTEX
8
0
10
95.1999999999998
20
97.4143785613175
30
0
0
VERTEX
8
0
10
95.8999999999998
20
96.9356462706122
30
0
0
VERTEX
8
0
10
96.5999999999998
20
96.4569139799067
30
0
0
VERTEX
8
0
10
97.2999999999998
20
95.9781816892013
30
0
0
VERTEX
8
0
10
97.9999999999998
20
95.4994493984959
30
0
0
VERTEX
8
0
10
98.6999999999998
20
95.1271020612806
30
0
0
VERTEX
8
0
10
99.3999999999998
20
94.7547547240652
30
0
0
VERTEX
8
0
10
100.1
20
94.3824073868499
30
0
0
VERTEX
8
0
10
100.8
20
94.0100600496346
30
0
0
VERTEX
8
0
10
101.5
20
93.6909051891643
30
0
0
VERTEX
8
0
10
102.2
20
93.371750328694
30
0
0
VERTEX
8
0
10
102.9
20
93.0525954682238
30
0
0
VERTEX
8
0
10
103.6
20
92.7334406077535
30
0
0
VERTEX
8
0
10
104.3
20
92.5206707007733
30
0
0
VERTEX
8
0
10
105
20
92.3079007937931
30
0
0
VERTEX
8
0
10
105.7
20
92.0951308868129
30
0
0
VERTEX
8
0
10
106.4
20
91.8823609798327
30
0
0
VERTEX
8
0
10
107.1
20
91.6695910728526
30
0
0
VERTEX
8
0
10
107.8
20
91.4568211658724
30
0
0
VERTEX
8
0
10
108.5
20
91.2440512588922
30
0
0
VERTEX
8
0
10
109.2
20
91.031281351912
30
0
0
VERTEX
8
0
10
109.9
20
90.9248963984219
30
0
0
VERTEX
8
0
10
110.6
20
90.8185114449318
30
0
0
VERTEX
8
0
10
111.3
20
90.7121264914417
30
0
0
VERTEX
8
0
10
112
20
90.6057415379516
30
0
0
VERTEX
8
0
10
112.7
20
90.3929716309715
30
0
0
VERTEX
8
0
10
113.4
20
90.1802017239913
30
0
0
VERTEX
8
0
10
114.1
20
89.9674318170111
30
0
0
VERTEX
8
0
10
114.8
20
89.7546619100309
30
0
0
VERTEX
8
0
10
115.5
20
89.4355070495607
30
0
0
VERTEX
8
0
10
116.2
20
89.1163521890904
30
0
0
VERTEX
8
0
10
116.9
20
88.7971973286201
30
0
0
VERTEX
8
0
10
117.6
20
88.4780424681498
30
0
0
VERTEX
8
0
10
118.3
20
88.2652725611696
30
0
0
VERTEX
8
0
10
119
20
88.0525026541894
30
0
0
VERTEX
8
0
10
119.7
20
87.8397327472092
30
0
0
VERTEX
8
0
10
120.4
20
87.6269628402291
30
0
0
VERTEX
8
0
10
121.1
20
87.3078079797588
30
0
0
VERTEX
8
0
10
121.8
20
86.9886531192885
30
0
0
VERTEX
8
0
10
122.5
20
86.6694982588183
30
0
0
VERTEX
8
0
10
123.2
20
86.350343398348
30
0
0
VERTEX
8
0
10
123.9
20
86.0843810146227
30
0
0
VERTEX
8
0
10
124.6
20
85.8184186308975
30
0
0
VERTEX
8
0
10
125.3
20
85.5524562471723
30
0
0
VERTEX
8
0
10
126
20
85.286493863447
30
0
0
VERTEX
8
0
10
126.7
20
84.9673390029768
30
0
0
VERTEX
8
0
10
127.4
20
84.6481841425065
30
0
0
VERTEX
8
0
10
128.1
20
84.3290292820362
30
0
0
VERTEX
8
0
10
128.8
20
84.0098744215659
30
0
0
VERTEX
8
0
10
129.5
20
83.6375270843506
30
0
0
VERTEX
8
0
10
130.2
20
83.2651797471353
30
0
0
VERTEX
8
0
10
130.9
20
82.8928324099199
30
0
0
VERTEX
8
0
10
131.6
20
82.5204850727046
30
0
0
VERTEX
8
0
10
132.3
20
82.1481377354893
30
0
0
VERTEX
8
0
10
133
20
81.775790398274
30
0
0
VERTEX
8
0
10
133.7
20
81.4034430610587
30
0
0
VERTEX
8
0
10
134.4
20
81.0310957238433
30
0
0
VERTEX
8
0
10
135.1
20
80.7119408633731
30
0
0
VERTEX
8
0
10
135.8
20
80.3927860029028
30
0
0
VERTEX
8
0
10
136.5
20
80.0736311424325
30
0
0
VERTEX
8
0
10
137.2
20
79.7544762819622
30
0
0
VERTEX
8
0
10
137.9
20
79.3289364680018
30
0
0
VERTEX
8
0
10
138.6
20
78.9033966540414
30
0
0
VERTEX
8
0
10
139.3
20
78.4778568400811
30
0
0
VERTEX
8
0
10
140
20
78.0523170261207
30
0
0
VERTEX
8
0
10
140.7
20
77.7863546423955
30
0
0
VERTEX
8
0
10
141.4
20
77.5203922586703
30
0
0
VERTEX
8
0
10
142.1
20
77.254429874945
30
0
0
VERTEX
8
0
10
142.8
20
76.9884674912198
30
0
0
VERTEX
8
0
10
143.5
20
76.7756975842397
30
0
0
VERTEX
8
0
10
144.2
20
76.5629276772595
30
0
0
VERTEX
8
0
10
144.9
20
76.3501577702793
30
0
0
VERTEX
8
0
10
145.6
20
76.1373878632991
30
0
0
VERTEX
8
0
10
146.3
20
75.8182330028288
30
0
0
VERTEX
8
0
10
147
20
75.4990781423585
30
0
0
VERTEX
8
0
10
147.7
20
75.1799232818882
30
0
0
VERTEX
8
0
10
148.4
20
74.8607684214179
30
0
0
VERTEX
8
0
10
149.1
20
74.6479985144378
30
0
0
VERTEX
8
0
10
149.8
20
74.4352286074576
30
0
0
VERTEX
8
0
10
150.5
20
74.2224587004774
30
0
0
VERTEX
8
0
10
151.2
20
74.0096887934972
30
0
0
VERTEX
8
0
10
151.9
20
73.796918886517
30
0
0
VERTEX
8
0
10
152.6
20
73.5841489795368
30
0
0
VERTEX
8
0
10
153.3
20
73.3713790725567
30
0
0
VERTEX
8
0
10
154
20
73.1586091655765
30
0
0
VERTEX
8
0
10
154.7
20
72.9458392585963
30
0
0
VERTEX
8
0
10
155.4
20
72.7330693516161
30
0
0
VERTEX
8
0
10
156.1
20
72.5202994446359
30
0
0
VERTEX
8
0
10
156.8
20
72.3075295376558
30
0
0
VERTEX
8
0
10
157.5
20
72.0947596306756
30
0
0
VERTEX
8
0
10
158.2
20
71.8819897236954
30
0
0
VERTEX
8
0
10
158.9
20
71.6692198167152
30
0
0
VERTEX
8
0
10
159.6
20
71.456449909735
30
0
0
VERTEX
8
0
10
160.3
20
71.2436800027548
30
0
0
VERTEX
8
0
10
161
20
71.0309100957746
30
0
0
VERTEX
8
0
10
161.7
20
70.8181401887944
30
0
0
VERTEX
8
0
10
162.4
20
70.6053702818143
30
0
0
VERTEX
8
0
10
163.1
20
70.3926003748341
30
0
0
VERTEX
8
0
10
163.8
20
70.1798304678539
30
0
0
VERTEX
8
0
10
164.5
20
69.9670605608737
30
0
0
VERTEX
8
0
10
165.2
20
69.7542906538935
30
0
0
VERTEX
8
0
10
165.9
20
69.5415207469133
30
0
0
VERTEX
8
0
10
166.6
20
69.3287508399331
30
0
0
VERTEX
8
0
10
167.3
20
69.115980932953
30
0
0
VERTEX
8
0
10
168.000000000001
20
68.9032110259728
30
0
0
VERTEX
8
0
10
168.700000000001
20
68.7968260724828
30
0
0
VERTEX
8
0
10
169.400000000001
20
68.6904411189927
30
0
0
VERTEX
8
0
10
170.100000000001
20
68.5840561655026
30
0
0
VERTEX
8
0
10
170.800000000001
20
68.4776712120125
30
0
0
VERTEX
8
0
10
171.500000000001
20
68.2649013050322
30
0
0
VERTEX
8
0
10
172.200000000001
20
68.052131398052
30
0
0
VERTEX
8
0
10
172.900000000001
20
67.8393614910718
30
0
0
VERTEX
8
0
10
173.600000000001
20
67.6265915840916
30
0
0
VERTEX
8
0
10
174.300000000001
20
67.5202066306017
30
0
0
VERTEX
8
0
10
175.000000000001
20
67.4138216771116
30
0
0
VERTEX
8
0
10
175.700000000001
20
67.3074367236215
30
0
0
VERTEX
8
0
10
176.400000000001
20
67.2010517701314
30
0
0
VERTEX
8
0
10
177.100000000001
20
66.9882818631511
30
0
0
VERTEX
8
0
10
177.800000000001
20
66.7755119561709
30
0
0
VERTEX
8
0
10
178.500000000001
20
66.5627420491907
30
0
0
VERTEX
8
0
10
179.200000000001
20
66.3499721422105
30
0
0
VERTEX
8
0
10
179.900000000001
20
66.2435871887206
30
0
0
VERTEX
8
0
10
180.600000000001
20
66.1372022352305
30
0
0
VERTEX
8
0
10
181.300000000001
20
66.0308172817404
30
0
0
VERTEX
8
0
10
182.000000000001
20
65.9244323282503
30
0
0
VERTEX
8
0
10
182.700000000001
20
65.8180473747602
30
0
0
VERTEX
8
0
10
183.400000000001
20
65.7116624212701
30
0
0
VERTEX
8
0
10
184.100000000001
20
65.60527746778
30
0
0
VERTEX
8
0
10
184.800000000001
20
65.4988925142899
30
0
0
VERTEX
8
0
10
185.500000000001
20
65.3925075607998
30
0
0
VERTEX
8
0
10
186.200000000001
20
65.2861226073097
30
0
0
VERTEX
8
0
10
186.900000000001
20
65.1797376538196
30
0
0
VERTEX
8
0
10
187.600000000001
20
65.0733527003295
30
0
0
VERTEX
8
0
10
188.300000000001
20
64.9669677468394
30
0
0
VERTEX
8
0
10
189.000000000001
20
64.8605827933494
30
0
0
VERTEX
8
0
10
189.700000000001
20
64.7541978398593
30
0
0
VERTEX
8
0
10
190.400000000001
20
64.6478128863692
30
0
0
VERTEX
8
0
10
191.100000000001
20
64.4350429793888
30
0
0
VERTEX
8
0
10
191.800000000001
20
64.2222730724087
30
0
0
VERTEX
8
0
10
192.500000000001
20
64.0095031654285
30
0
0
VERTEX
8
0
10
193.200000000001
20
63.7967332584483
30
0
0
VERTEX
8
0
10
193.900000000001
20
63.6903483049584
30
0
0
VERTEX
8
0
10
194.600000000001
20
63.5839633514683
30
0
0
VERTEX
8
0
10
195.300000000001
20
63.4775783979782
30
0
0
VERTEX
8
0
10
196.000000000001
20
63.3711934444881
30
0
0
VERTEX
8
0
10
196.700000000001
20
63.264808490998
30
0
0
VERTEX
8
0
10
197.400000000001
20
63.1584235375079
30
0
0
VERTEX
8
0
10
198.100000000001
20
63.0520385840178
30
0
0
VERTEX
8
0
10
198.800000000001
20
62.9456536305277
30
0
0
VERTEX
8
0
10
199.500000000001
20
62.7328837235473
30
0
0
VERTEX
8
0
10
200.200000000001
20
62.5201138165671
30
0
0
VERTEX
8
0
10
200.900000000001
20
62.307343909587
30
0
0
VERTEX
8
0
10
201.600000000001
20
62.0945740026068
30
0
0
VERTEX
8
0
10
202.300000000001
20
61.9881890491169
30
0
0
VERTEX
8
0
10
203.000000000001
20
61.8818040956268
30
0
0
VERTEX
8
0
10
203.700000000001
20
61.7754191421367
30
0
0
VERTEX
8
0
10
204.400000000001
20
61.6690341886466
30
0
0
VERTEX
8
0
10
205.100000000001
20
61.5626492351565
30
0
0
VERTEX
8
0
10
205.800000000001
20
61.4562642816664
30
0
0
VERTEX
8
0
10
206.500000000001
20
61.3498793281763
30
0
0
VERTEX
8
0
10
207.200000000001
20
61.2434943746862
30
0
0
VERTEX
8
0
10
207.900000000001
20
61.1371094211961
30
0
0
VERTEX
8
0
10
208.600000000001
20
61.030724467706
30
0
0
VERTEX
8
0
10
209.300000000001
20
60.9243395142159
30
0
0
VERTEX
8
0
10
210.000000000001
20
60.8179545607258
30
0
0
VERTEX
8
0
10
210.700000000001
20
60.7115696072357
30
0
0
VERTEX
8
0
10
211.400000000001
20
60.6051846537456
30
0
0
VERTEX
8
0
10
212.100000000001
20
60.4987997002556
30
0
0
VERTEX
8
0
10
212.800000000001
20
60.3924147467655
30
0
0
VERTEX
8
0
10
213.500000000001
20
60.2860297932754
30
0
0
VERTEX
8
0
10
214.200000000001
20
60.1796448397853
30
0
0
VERTEX
8
0
10
214.900000000001
20
60.0732598862952
30
0
0
VERTEX
8
0
10
215.600000000001
20
59.9668749328051
30
0
0
VERTEX
8
0
10
216.300000000001
20
59.860489979315
30
0
0
VERTEX
8
0
10
217.000000000001
20
59.7541050258249
30
0
0
VERTEX
8
0
10
217.700000000001
20
59.6477200723348
30
0
0
VERTEX
8
0
10
218.400000000001
20
59.5413351188447
30
0
0
VERTEX
8
0
10
219.100000000001
20
59.4349501653546
30
0
0
VERTEX
8
0
10
219.800000000001
20
59.3285652118645
30
0
0
VERTEX
8
0
10
220.500000000001
20
59.2221802583744
30
0
0
VERTEX
8
0
10
221.200000000001
20
59.1157953048843
30
0
0
VERTEX
8
0
10
221.900000000001
20
59.0094103513942
30
0
0
VERTEX
8
0
10
222.600000000001
20
58.9030253979042
30
0
0
VERTEX
8
0
10
223.300000000001
20
58.7966404444141
30
0
0
VERTEX
8
0
10
224.000000000001
20
58.690255490924
30
0
0
VERTEX
8
0
10
224.700000000001
20
58.5838705374339
30
0
0
VERTEX
8
0
10
225.400000000001
20
58.4774855839438
30
0
0
VERTEX
8
0
10
226.100000000001
20
58.3711006304537
30
0
0
VERTEX
8
0
10
226.800000000001
20
58.2647156769636
30
0
0
VERTEX
8
0
10
227.500000000001
20
58.1583307234735
30
0
0
VERTEX
8
0
10
228.200000000001
20
58.0519457699834
30
0
0
VERTEX
8
0
10
228.900000000001
20
57.9455608164933
30
0
0
VERTEX
8
0
10
229.600000000001
20
57.8391758630032
30
0
0
VERTEX
8
0
10
230.300000000001
20
57.7327909095131
30
0
0
VERTEX
8
0
10
231.000000000001
20
57.626405956023
30
0
0
VERTEX
8
0
10
231.700000000001
20
57.5200210025329
30
0
0
VERTEX
8
0
10
232.400000000001
20
57.4136360490428
30
0
0
VERTEX
8
0
10
233.100000000001
20
57.3072510955527
30
0
0
VERTEX
8
0
10
233.800000000001
20
57.2008661420627
30
0
0
VERTEX
8
0
10
234.500000000001
20
57.0944811885726
30
0
0
VERTEX
8
0
10
235.200000000001
20
56.9880962350825
30
0
0
VERTEX
8
0
10
235.900000000001
20
56.9880962350828
30
0
0
VERTEX
8
0
10
236.600000000001
20
56.9880962350828
30
0
0
VERTEX
8
0
10
237.300000000001
20
56.9880962350828
30
0
0
VERTEX
8
0
10
238.000000000001
20
56.9880962350828
30
0
0
VERTEX
8
0
10
238.700000000001
20
56.8817112815924
30
0
0
VERTEX
8
0
10
239.400000000002
20
56.7753263281023
30
0
0
VERTEX
8
0
10
240.100000000002
20
56.6689413746122
30
0
0
VERTEX
8
0
10
240.800000000002
20
56.5625564211221
30
0
0
VERTEX
8
0
10
241.500000000002
20
56.456171467632
30
0
0
VERTEX
8
0
10
242.200000000002
20
56.3497865141419
30
0
0
VERTEX
8
0
10
242.900000000002
20
56.2434015606518
30
0
0
VERTEX
8
0
10
243.600000000002
20
56.1370166071617
30
0
0
VERTEX
8
0
10
244.300000000002
20
56.0306316536716
30
0
0
VERTEX
8
0
10
245.000000000002
20
55.9242467001815
30
0
0
VERTEX
8
0
10
245.700000000002
20
55.8178617466915
30
0
0
VERTEX
8
0
10
246.400000000002
20
55.7114767932014
30
0
0
VERTEX
8
0
10
247.100000000002
20
55.7114767932017
30
0
0
VERTEX
8
0
10
247.800000000002
20
55.7114767932017
30
0
0
VERTEX
8
0
10
248.500000000002
20
55.7114767932017
30
0
0
VERTEX
8
0
10
249.200000000002
20
55.7114767932017
30
0
0
VERTEX
8
0
10
249.900000000002
20
55.6050918397113
30
0
0
VERTEX
8
0
10
250.600000000002
20
55.4987068862212
30
0
0
VERTEX
8
0
10
251.300000000002
20
55.3923219327311
30
0
0
VERTEX
8
0
10
252.000000000002
20
55.285936979241
30
0
0
VERTEX
8
0
10
252.700000000002
20
55.1795520257509
30
0
0
VERTEX
8
0
10
253.400000000002
20
55.0731670722608
30
0
0
VERTEX
8
0
10
254.100000000002
20
54.9667821187707
30
0
0
VERTEX
8
0
10
254.800000000002
20
54.8603971652806
30
0
0
VERTEX
8
0
10
255.500000000002
20
54.7540122117905
30
0
0
VERTEX
8
0
10
256.200000000002
20
54.6476272583004
30
0
0
VERTEX
8
0
10
256.900000000002
20
54.5412423048103
30
0
0
VERTEX
8
0
10
257.600000000002
20
54.4348573513202
30
0
0
VERTEX
8
0
10
258.300000000002
20
54.3284723978301
30
0
0
VERTEX
8
0
10
259.000000000002
20
54.2220874443401
30
0
0
VERTEX
8
0
10
259.700000000002
20
54.11570249085
30
0
0
VERTEX
8
0
10
260.400000000002
20
54.0093175373599
30
0
0
VERTEX
8
0
10
261.100000000002
20
54.0093175373602
30
0
0
VERTEX
8
0
10
261.800000000002
20
54.0093175373602
30
0
0
VERTEX
8
0
10
262.500000000002
20
54.0093175373602
30
0
0
VERTEX
8
0
10
263.200000000002
20
54.0093175373602
30
0
0
VERTEX
8
0
10
263.900000000002
20
53.9029325838698
30
0
0
VERTEX
8
0
10
264.600000000002
20
53.7965476303797
30
0
0
VERTEX
8
0
10
265.300000000002
20
53.6901626768896
30
0
0
VERTEX
8
0
10
266.000000000002
20
53.5837777233995
30
0
0
SEQEND
8
0
0
POLYLINE
8
0
62
6
70
0
10
0
20
0
30
0
0
VERTEX
8
0
10
8.4
20
0.391300978354344
30
0
0
VERTEX
8
0
10
9.1
20
0.391300978354344
30
0
0
VERTEX
8
0
10
9.8
20
0.391300978354344
30
0
0
VERTEX
8
0
10
10.5
20
0.391300978354344
30
0
0
VERTEX
8
0
10
11.2
20
0.391300978354344
30
0
0
VERTEX
8
0
10
11.9
20
0.391300978354344
30
0
0
VERTEX
8
0
10
12.6
20
0.391300978354344
30
0
0
VERTEX
8
0
10
13.3
20
0.391300978354344
30
0
0
VERTEX
8
0
10
14
20
0.391300978354344
30
0
0
VERTEX
8
0
10
14.7
20
0.391300978354344
30
0
0
VERTEX
8
0
10
15.4
20
0.391300978354344
30
0
0
VERTEX
8
0
10
16.1
20
0.391300978354344
30
0
0
VERTEX
8
0
10
16.8
20
0.391300978354344
30
0
0
VERTEX
8
0
10
17.5
20
0.391300978354344
30
0
0
VERTEX
8
0
10
18.2
20
0.391300978354344
30
0
0
VERTEX
8
0
10
18.9
20
0.391300978354344
30
0
0
VERTEX
8
0
10
19.6
20
0.391300978354344
30
0
0
VERTEX
8
0
10
20.3
20
0.391300978354344
30
0
0
VERTEX
8
0
10
21
20
0.391300978354344
30
0
0
VERTEX
8
0
10
21.7
20
0.391300978354344
30
0
0
VERTEX
8
0
10
22.4
20
0.391300978354344
30
0
0
VERTEX
8
0
10
23.1
20
0.391300978354344
30
0
0
VERTEX
8
0
10
23.8
20
0.391300978354344
30
0
0
VERTEX
8
0
10
24.5
20
0.391300978354344
30
0
0
VERTEX
8
0
10
25.2
20
0.391300978354344
30
0
0
VERTEX
8
0
10
25.9
20
0.391300978354344
30
0
0
VERTEX
8
0
10
26.6
20
0.391300978354344
30
0
0
VERTEX
8
0
10
27.3
20
0.391300978354344
30
0
0
VERTEX
8
0
10
28
20
0.391300978354344
30
0
0
VERTEX
8
0
10
28.7
20
0.391300978354344
30
0
0
VERTEX
8
0
10
29.4
20
0.391300978354344
30
0
0
VERTEX
8
0
10
30.1
20
0.391300978354344
30
0
0
VERTEX
8
0
10
30.8
20
0.391300978354344
30
0
0
VERTEX
8
0
10
31.5
20
0.816840792314712
30
0
0
VERTEX
8
0
10
32.2
20
1.24238060627507
30
0
0
VERTEX
8
0
10
32.9
20
1.66792042023543
30
0
0
VERTEX
8
0
10
33.6
20
2.09346023419579
30
0
0
VERTEX
8
0
10
34.3
20
2.78496243188139
30
0
0
VERTEX
8
0
10
35
20
3.47646462956699
30
0
0
VERTEX
8
0
10
35.7
20
4.16796682725259
30
0
0
VERTEX
8
0
10
36.4
20
4.85946902493819
30
0
0
VERTEX
8
0
10
37.1
20
5.39139379238864
30
0
0
VERTEX
8
0
10
37.8
20
5.92331855983908
30
0
0
VERTEX
8
0
10
38.5
20
6.45524332728952
30
0
0
VERTEX
8
0
10
39.2
20
6.98716809473996
30
0
0
VERTEX
8
0
10
39.9
20
7.41270790870033
30
0
0
VERTEX
8
0
10
40.6
20
7.83824772266069
30
0
0
VERTEX
8
0
10
41.3
20
8.26378753662105
30
0
0
VERTEX
8
0
10
42
20
8.68932735058141
30
0
0
VERTEX
8
0
10
42.7
20
9.11486716454177
30
0
0
VERTEX
8
0
10
43.4
20
9.54040697850214
30
0
0
VERTEX
8
0
10
44.1
20
9.9659467924625
30
0
0
VERTEX
8
0
10
44.8
20
10.3914866064229
30
0
0
VERTEX
8
0
10
45.5
20
10.8170264203832
30
0
0
VERTEX
8
0
10
46.1999999999999
20
11.2425662343436
30
0
0
VERTEX
8
0
10
46.8999999999999
20
11.668106048304
30
0
0
VERTEX
8
0
10
47.5999999999999
20
12.0936458622643
30
0
0
VERTEX
8
0
10
48.2999999999999
20
12.5191856762247
30
0
0
VERTEX
8
0
10
48.9999999999999
20
12.944725490185
30
0
0
VERTEX
8
0
10
49.6999999999999
20
13.3702653041454
30
0
0
VERTEX
8
0
10
50.3999999999999
20
13.7958051181058
30
0
0
VERTEX
8
0
10
51.0999999999999
20
14.2213449320661
30
0
0
VERTEX
8
0
10
51.7999999999999
20
14.6468847460265
30
0
0
VERTEX
8
0
10
52.4999999999999
20
15.0724245599869
30
0
0
VERTEX
8
0
10
53.1999999999999
20
15.4979643739472
30
0
0
VERTEX
8
0
10
53.8999999999999
20
15.8171192344175
30
0
0
VERTEX
8
0
10
54.5999999999999
20
16.1362740948878
30
0
0
VERTEX
8
0
10
55.2999999999999
20
16.455428955358
30
0
0
VERTEX
8
0
10
55.9999999999999
20
16.7745838158283
30
0
0
VERTEX
8
0
10
56.6999999999999
20
17.2001236297887
30
0
0
VERTEX
8
0
10
57.3999999999999
20
17.625663443749
30
0
0
VERTEX
8
0
10
58.0999999999999
20
18.0512032577094
30
0
0
VERTEX
8
0
10
58.7999999999999
20
18.4767430716697
30
0
0
VERTEX
8
0
10
59.4999999999999
20
18.79589793214
30
0
0
VERTEX
8
0
10
60.1999999999999
20
19.1150527926103
30
0
0
VERTEX
8
0
10
60.8999999999999
20
19.4342076530806
30
0
0
VERTEX
8
0
10
61.5999999999999
20
19.7533625135509
30
0
0
VERTEX
8
0
10
62.2999999999999
20
20.1789023275112
30
0
0
VERTEX
8
0
10
62.9999999999999
20
20.6044421414716
30
0
0
VERTEX
8
0
10
63.6999999999999
20
21.029981955432
30
0
0
VERTEX
8
0
10
64.3999999999999
20
21.4555217693923
30
0
0
VERTEX
8
0
10
65.0999999999999
20
21.8810615833527
30
0
0
VERTEX
8
0
10
65.7999999999999
20
22.306601397313
30
0
0
VERTEX
8
0
10
66.4999999999999
20
22.7321412112734
30
0
0
VERTEX
8
0
10
67.1999999999999
20
23.1576810252338
30
0
0
VERTEX
8
0
10
67.8999999999999
20
23.5832208391941
30
0
0
VERTEX
8
0
10
68.5999999999999
20
24.0087606531545
30
0
0
VERTEX
8
0
10
69.2999999999999
20
24.4343004671148
30
0
0
VERTEX
8
0
10
69.9999999999999
20
24.8598402810752
30
0
0
VERTEX
8
0
10
70.6999999999999
20
25.2853800950356
30
0
0
VERTEX
8
0
10
71.3999999999999
20
25.7109199089959
30
0
0
VERTEX
8
0
10
72.0999999999999
20
26.1364597229563
30
0
0
VERTEX
8
0
10
72.7999999999999
20
26.5619995369166
30
0
0
VERTEX
8
0
10
73.4999999999999
20
26.8811543973869
30
0
0
VERTEX
8
0
10
74.1999999999998
20
27.2003092578572
30
0
0
VERTEX
8
0
10
74.8999999999998
20
27.5194641183275
30
0
0
VERTEX
8
0
10
75.5999999999998
20
27.8386189787977
30
0
0
VERTEX
8
0
10
76.2999999999998
20
28.157773839268
30
0
0
VERTEX
8
0
10
76.9999999999998
20
28.4769286997383
30
0
0
VERTEX
8
0
10
77.6999999999998
20
28.7960835602086
30
0
0
VERTEX
8
0
10
78.3999999999998
20
29.1152384206788
30
0
0
VERTEX
8
0
10
79.0999999999998
20
29.3812008044041
30
0
0
VERTEX
8
0
10
79.7999999999998
20
29.6471631881293
30
0
0
VERTEX
8
0
10
80.4999999999998
20
29.9131255718545
30
0
0
VERTEX
8
0
10
81.1999999999998
20
30.1790879555797
30
0
0
VERTEX
8
0
10
81.8999999999998
20
30.49824281605
30
0
0
VERTEX
8
0
10
82.5999999999998
20
30.8173976765203
30
0
0
VERTEX
8
0
10
83.2999999999998
20
31.1365525369906
30
0
0
VERTEX
8
0
10
83.9999999999998
20
31.4557073974608
30
0
0
VERTEX
8
0
10
84.6999999999998
20
31.7216697811861
30
0
0
VERTEX
8
0
10
85.3999999999998
20
31.9876321649113
30
0
0
VERTEX
8
0
10
86.0999999999998
20
32.2535945486365
30
0
0
VERTEX
8
0
10
86.7999999999998
20
32.5195569323617
30
0
0
VERTEX
8
0
10
87.4999999999998
20
32.785519316087
30
0
0
VERTEX
8
0
10
88.1999999999998
20
33.0514816998122
30
0
0
VERTEX
8
0
10
88.8999999999998
20
33.3174440835374
30
0
0
VERTEX
8
0
10
89.5999999999998
20
33.5834064672626
30
0
0
VERTEX
8
0
10
90.2999999999998
20
33.6897914207528
30
0
0
VERTEX
8
0
10
90.9999999999998
20
33.7961763742429
30
0
0
VERTEX
8
0
10
91.6999999999998
20
33.902561327733
30
0
0
VERTEX
8
0
10
92.3999999999998
20
34.0089462812231
30
0
0
VERTEX
8
0
10
93.0999999999998
20
34.1153312347132
30
0
0
VERTEX
8
0
10
93.7999999999998
20
34.2217161882033
30
0
0
VERTEX
8
0
10
94.4999999999998
20
34.3281011416933
30
0
0
VERTEX
8
0
10
95.1999999999998
20
34.4344860951834
30
0
0
VERTEX
8
0
10
95.8999999999998
20
34.5408710486735
30
0
0
VERTEX
8
0
10
96.5999999999998
20
34.6472560021636
30
0
0
VERTEX
8
0
10
97.2999999999998
20
34.7536409556537
30
0
0
VERTEX
8
0
10
97.9999999999998
20
34.8600259091438
30
0
0
VERTEX
8
0
10
98.6999999999998
20
34.9132183858889
30
0
0
VERTEX
8
0
10
99.3999999999998
20
34.9664108626339
30
0
0
VERTEX
8
0
10
100.1
20
35.019603339379
30
0
0
VERTEX
8
0
10
100.8
20
35.072795816124
30
0
0
VERTEX
8
0
10
101.5
20
35.125988292869
30
0
0
VERTEX
8
0
10
102.2
20
35.1791807696141
30
0
0
VERTEX
8
0
10
102.9
20
35.2323732463591
30
0
0
VERTEX
8
0
10
103.6
20
35.2855657231042
30
0
0
VERTEX
8
0
10
104.3
20
35.2855657231042
30
0
0
VERTEX
8
0
10
105
20
35.2855657231042
30
0
0
VERTEX
8
0
10
105.7
20
35.2855657231042
30
0
0
VERTEX
8
0
10
106.4
20
35.2855657231042
30
0
0
VERTEX
8
0
10
107.1
20
35.3387581998492
30
0
0
VERTEX
8
0
10
107.8
20
35.3919506765943
30
0
0
VERTEX
8
0
10
108.5
20
35.4451431533393
30
0
0
VERTEX
8
0
10
109.2
20
35.4983356300844
30
0
0
VERTEX
8
0
10
109.9
20
35.5515281068294
30
0
0
VERTEX
8
0
10
110.6
20
35.6047205835745
30
0
0
VERTEX
8
0
10
111.3
20
35.6579130603195
30
0
0
VERTEX
8
0
10
112
20
35.7111055370646
30
0
0
VERTEX
8
0
10
112.7
20
35.7111055370646
30
0
0
VERTEX
8
0
10
113.4
20
35.7111055370646
30
0
0
VERTEX
8
0
10
114.1
20
35.7111055370646
30
0
0
VERTEX
8
0
10
114.8
20
35.7111055370646
30
0
0
VERTEX
8
0
10
115.5
20
35.8174904905546
30
0
0
VERTEX
8
0
10
116.2
20
35.9238754440447
30
0
0
VERTEX
8
0
10
116.9
20
36.0302603975348
30
0
0
VERTEX
8
0
10
117.6
20
36.1366453510249
30
0
0
VERTEX
8
0
10
118.3
20
36.243030304515
30
0
0
VERTEX
8
0
10
119
20
36.3494152580051
30
0
0
VERTEX
8
0
10
119.7
20
36.4558002114952
30
0
0
VERTEX
8
0
10
120.4
20
36.5621851649853
30
0
0
VERTEX
8
0
10
121.1
20
36.6685701184754
30
0
0
VERTEX
8
0
10
121.8
20
36.7749550719655
30
0
0
VERTEX
8
0
10
122.5
20
36.8813400254556
30
0
0
VERTEX
8
0
10
123.2
20
36.9877249789456
30
0
0
VERTEX
8
0
10
123.9
20
37.0941099324357
30
0
0
VERTEX
8
0
10
124.6
20
37.2004948859258
30
0
0
VERTEX
8
0
10
125.3
20
37.3068798394159
30
0
0
VERTEX
8
0
10
126
20
37.413264792906
30
0
0
VERTEX
8
0
10
126.7
20
37.5196497463961
30
0
0
VERTEX
8
0
10
127.4
20
37.6260346998862
30
0
0
VERTEX
8
0
10
128.1
20
37.7324196533763
30
0
0
VERTEX
8
0
10
128.8
20
37.8388046068664
30
0
0
VERTEX
8
0
10
129.5
20
37.8388046068664
30
0
0
VERTEX
8
0
10
130.2
20
37.8388046068664
30
0
0
VERTEX
8
0
10
130.9
20
37.8388046068664
30
0
0
VERTEX
8
0
10
131.6
20
37.8388046068664
30
0
0
VERTEX
8
0
10
132.3
20
37.9451895603565
30
0
0
VERTEX
8
0
10
133
20
38.0515745138466
30
0
0
VERTEX
8
0
10
133.7
20
38.1579594673367
30
0
0
VERTEX
8
0
10
134.4
20
38.2643444208268
30
0
0
VERTEX
8
0
10
135.1
20
38.3707293743168
30
0
0
VERTEX
8
0
10
135.8
20
38.4771143278069
30
0
0
VERTEX
8
0
10
136.5
20
38.583499281297
30
0
0
VERTEX
8
0
10
137.2
20
38.6898842347871
30
0
0
VERTEX
8
0
10
137.9
20
38.7962691882772
30
0
0
VERTEX
8
0
10
138.6
20
38.9026541417673
30
0
0
VERTEX
8
0
10
139.3
20
39.0090390952574
30
0
0
VERTEX
8
0
10
140
20
39.1154240487475
30
0
0
VERTEX
8
0
10
140.7
20
39.1154240487475
30
0
0
VERTEX
8
0
10
141.4
20
39.1154240487475
30
0
0
VERTEX
8
0
10
142.1
20
39.1154240487475
30
0
0
VERTEX
8
0
10
142.8
20
39.1154240487475
30
0
0
VERTEX
8
0
10
143.5
20
39.1154240487475
30
0
0
VERTEX
8
0
10
144.2
20
39.1154240487475
30
0
0
VERTEX
8
0
10
144.9
20
39.1154240487475
30
0
0
VERTEX
8
0
10
145.6
20
39.1154240487475
30
0
0
VERTEX
8
0
10
146.3
20
39.1154240487475
30
0
0
VERTEX
8
0
10
147
20
39.1154240487475
30
0
0
VERTEX
8
0
10
147.7
20
39.1154240487475
30
0
0
VERTEX
8
0
10
148.4
20
39.1154240487475
30
0
0
VERTEX
8
0
10
149.1
20
39.2218090022376
30
0
0
VERTEX
8
0
10
149.8
20
39.3281939557277
30
0
0
VERTEX
8
0
10
150.5
20
39.4345789092178
30
0
0
VERTEX
8
0
10
151.2
20
39.5409638627079
30
0
0
VERTEX
8
0
10
151.9
20
39.5409638627079
30
0
0
VERTEX
8
0
10
152.6
20
39.5409638627079
30
0
0
VERTEX
8
0
10
153.3
20
39.5409638627079
30
0
0
VERTEX
8
0
10
154
20
39.5409638627079
30
0
0
VERTEX
8
0
10
154.7
20
39.594156339453
30
0
0
VERTEX
8
0
10
155.4
20
39.647348816198
30
0
0
VERTEX
8
0
10
156.1
20
39.7005412929431
30
0
0
VERTEX
8
0
10
156.8
20
39.7537337696881
30
0
0
VERTEX
8
0
10
157.5
20
39.8069262464331
30
0
0
VERTEX
8
0
10
158.2
20
39.8601187231782
30
0
0
VERTEX
8
0
10
158.9
20
39.9133111999232
30
0
0
VERTEX
8
0
10
159.6
20
39.9665036766682
30
0
0
VERTEX
8
0
10
160.3
20
40.0728886301584
30
0
0
VERTEX
8
0
10
161
20
40.1792735836485
30
0
0
VERTEX
8
0
10
161.7
20
40.2856585371386
30
0
0
VERTEX
8
0
10
162.4
20
40.3920434906287
30
0
0
VERTEX
8
0
10
163.1
20
40.3920434906286
30
0
0
VERTEX
8
0
10
163.8
20
40.3920434906286
30
0
0
VERTEX
8
0
10
164.5
20
40.3920434906286
30
0
0
VERTEX
8
0
10
165.2
20
40.3920434906286
30
0
0
VERTEX
8
0
10
165.9
20
40.5516209208639
30
0
0
VERTEX
8
0
10
166.6
20
40.711198351099
30
0
0
VERTEX
8
0
10
167.3
20
40.8707757813341
30
0
0
VERTEX
8
0
10
168.000000000001
20
41.0303532115693
30
0
0
VERTEX
8
0
10
168.700000000001
20
41.1899306418044
30
0
0
VERTEX
8
0
10
169.400000000001
20
41.3495080720395
30
0
0
VERTEX
8
0
10
170.100000000001
20
41.5090855022747
30
0
0
VERTEX
8
0
10
170.800000000001
20
41.6686629325098
30
0
0
VERTEX
8
0
10
171.500000000001
20
41.7750478859999
30
0
0
VERTEX
8
0
10
172.200000000001
20
41.88143283949
30
0
0
VERTEX
8
0
10
172.900000000001
20
41.9878177929801
30
0
0
VERTEX
8
0
10
173.600000000001
20
42.0942027464702
30
0
0
VERTEX
8
0
10
174.300000000001
20
42.2537801767054
30
0
0
VERTEX
8
0
10
175.000000000001
20
42.4133576069405
30
0
0
VERTEX
8
0
10
175.700000000001
20
42.5729350371756
30
0
0
VERTEX
8
0
10
176.400000000001
20
42.7325124674108
30
0
0
VERTEX
8
0
10
177.100000000001
20
42.8920898976459
30
0
0
VERTEX
8
0
10
177.800000000001
20
43.051667327881
30
0
0
VERTEX
8
0
10
178.500000000001
20
43.2112447581162
30
0
0
VERTEX
8
0
10
179.200000000001
20
43.3708221883513
30
0
0
VERTEX
8
0
10
179.900000000001
20
43.3708221883511
30
0
0
VERTEX
8
0
10
180.600000000001
20
43.3708221883511
30
0
0
VERTEX
8
0
10
181.300000000001
20
43.3708221883511
30
0
0
VERTEX
8
0
10
182.000000000001
20
43.3708221883511
30
0
0
VERTEX
8
0
10
182.700000000001
20
43.3708221883511
30
0
0
VERTEX
8
0
10
183.400000000001
20
43.3708221883511
30
0
0
VERTEX
8
0
10
184.100000000001
20
43.3708221883511
30
0
0
VERTEX
8
0
10
184.800000000001
20
43.3708221883511
30
0
0
VERTEX
8
0
10
185.500000000001
20
43.4772071418414
30
0
0
VERTEX
8
0
10
186.200000000001
20
43.5835920953315
30
0
0
VERTEX
8
0
10
186.900000000001
20
43.6899770488216
30
0
0
VERTEX
8
0
10
187.600000000001
20
43.7963620023117
30
0
0
VERTEX
8
0
10
188.300000000001
20
43.7963620023115
30
0
0
VERTEX
8
0
10
189.000000000001
20
43.7963620023115
30
0
0
VERTEX
8
0
10
189.700000000001
20
43.7963620023115
30
0
0
VERTEX
8
0
10
190.400000000001
20
43.7963620023115
30
0
0
VERTEX
8
0
10
191.100000000001
20
43.7963620023115
30
0
0
VERTEX
8
0
10
191.800000000001
20
43.7963620023115
30
0
0
VERTEX
8
0
10
192.500000000001
20
43.7963620023115
30
0
0
VERTEX
8
0
10
193.200000000001
20
43.7963620023115
30
0
0
VERTEX
8
0
10
193.900000000001
20
43.6899770488213
30
0
0
VERTEX
8
0
10
194.600000000001
20
43.5835920953311
30
0
0
VERTEX
8
0
10
195.300000000001
20
43.477207141841
30
0
0
VERTEX
8
0
10
196.000000000001
20
43.3708221883509
30
0
0
VERTEX
8
0
10
196.700000000001
20
43.3708221883511
30
0
0
VERTEX
8
0
10
197.400000000001
20
43.3708221883511
30
0
0
VERTEX
8
0
10
198.100000000001
20
43.3708221883511
30
0
0
VERTEX
8
0
10
198.800000000001
20
43.3708221883511
30
0
0
VERTEX
8
0
10
199.500000000001
20
43.2644372348609
30
0
0
VERTEX
8
0
10
200.200000000001
20
43.1580522813708
30
0
0
VERTEX
8
0
10
200.900000000001
20
43.0516673278807
30
0
0
VERTEX
8
0
10
201.600000000001
20
42.9452823743906
30
0
0
VERTEX
8
0
10
202.300000000001
20
42.9452823743908
30
0
0
VERTEX
8
0
10
203.000000000001
20
42.9452823743908
30
0
0
VERTEX
8
0
10
203.700000000001
20
42.9452823743908
30
0
0
VERTEX
8
0
10
204.400000000001
20
42.9452823743908
30
0
0
VERTEX
8
0
10
205.100000000001
20
42.8388974209005
30
0
0
VERTEX
8
0
10
205.800000000001
20
42.7325124674104
30
0
0
VERTEX
8
0
10
206.500000000001
20
42.6261275139203
30
0
0
VERTEX
8
0
10
207.200000000001
20
42.5197425604302
30
0
0
VERTEX
8
0
10
207.900000000001
20
42.5197425604304
30
0
0
VERTEX
8
0
10
208.600000000001
20
42.5197425604304
30
0
0
VERTEX
8
0
10
209.300000000001
20
42.5197425604304
30
0
0
VERTEX
8
0
10
210.000000000001
20
42.5197425604304
30
0
0
VERTEX
8
0
10
210.700000000001
20
42.4665500836852
30
0
0
VERTEX
8
0
10
211.400000000001
20
42.4133576069402
30
0
0
VERTEX
8
0
10
212.100000000001
20
42.3601651301952
30
0
0
VERTEX
8
0
10
212.800000000001
20
42.3069726534501
30
0
0
VERTEX
8
0
10
213.500000000001
20
42.2537801767051
30
0
0
VERTEX
8
0
10
214.200000000001
20
42.20058769996
30
0
0
VERTEX
8
0
10
214.900000000001
20
42.147395223215
30
0
0
VERTEX
8
0
10
215.600000000001
20
42.09420274647
30
0
0
VERTEX
8
0
10
216.300000000001
20
42.0942027464701
30
0
0
VERTEX
8
0
10
217.000000000001
20
42.0942027464701
30
0
0
VERTEX
8
0
10
217.700000000001
20
42.0942027464701
30
0
0
VERTEX
8
0
10
218.400000000001
20
42.0942027464701
30
0
0
VERTEX
8
0
10
219.100000000001
20
42.2005876999604
30
0
0
VERTEX
8
0
10
219.800000000001
20
42.3069726534505
30
0
0
VERTEX
8
0
10
220.500000000001
20
42.4133576069406
30
0
0
VERTEX
8
0
10
221.200000000001
20
42.5197425604306
30
0
0
VERTEX
8
0
10
221.900000000001
20
42.5197425604304
30
0
0
VERTEX
8
0
10
222.600000000001
20
42.5197425604304
30
0
0
VERTEX
8
0
10
223.300000000001
20
42.5197425604304
30
0
0
VERTEX
8
0
10
224.000000000001
20
42.5197425604304
30
0
0
VERTEX
8
0
10
224.700000000001
20
42.5197425604304
30
0
0
VERTEX
8
0
10
225.400000000001
20
42.5197425604304
30
0
0
VERTEX
8
0
10
226.100000000001
20
42.5197425604304
30
0
0
VERTEX
8
0
10
226.800000000001
20
42.5197425604304
30
0
0
VERTEX
8
0
10
227.500000000001
20
42.6261275139208
30
0
0
VERTEX
8
0
10
228.200000000001
20
42.7325124674109
30
0
0
VERTEX
8
0
10
228.900000000001
20
42.838897420901
30
0
0
VERTEX
8
0
10
229.600000000001
20
42.9452823743911
30
0
0
VERTEX
8
0
10
230.300000000001
20
42.9452823743908
30
0
0
VERTEX
8
0
10
231.000000000001
20
42.9452823743908
30
0
0
VERTEX
8
0
10
231.700000000001
20
42.9452823743908
30
0
0
VERTEX
8
0
10
232.400000000001
20
42.9452823743908
30
0
0
VERTEX
8
0
10
233.100000000001
20
43.0516673278812
30
0
0
VERTEX
8
0
10
233.800000000001
20
43.1580522813712
30
0
0
VERTEX
8
0
10
234.500000000001
20
43.2644372348613
30
0
0
VERTEX
8
0
10
235.200000000001
20
43.3708221883514
30
0
0
VERTEX
8
0
10
235.900000000001
20
43.4240146650963
30
0
0
VERTEX
8
0
10
236.600000000001
20
43.4772071418413
30
0
0
VERTEX
8
0
10
237.300000000001
20
43.5303996185864
30
0
0
VERTEX
8
0
10
238.000000000001
20
43.5835920953315
30
0
0
VERTEX
8
0
10
238.700000000001
20
43.6367845720765
30
0
0
VERTEX
8
0
10
239.400000000002
20
43.6899770488216
30
0
0
VERTEX
8
0
10
240.100000000002
20
43.7431695255666
30
0
0
VERTEX
8
0
10
240.800000000002
20
43.7963620023117
30
0
0
VERTEX
8
0
10
241.500000000002
20
43.9027469558019
30
0
0
VERTEX
8
0
10
242.200000000002
20
44.009131909292
30
0
0
VERTEX
8
0
10
242.900000000002
20
44.1155168627821
30
0
0
VERTEX
8
0
10
243.600000000002
20
44.2219018162722
30
0
0
VERTEX
8
0
10
244.300000000002
20
44.2219018162718
30
0
0
VERTEX
8
0
10
245.000000000002
20
44.2219018162718
30
0
0
VERTEX
8
0
10
245.700000000002
20
44.2219018162718
30
0
0
VERTEX
8
0
10
246.400000000002
20
44.2219018162718
30
0
0
VERTEX
8
0
10
247.100000000002
20
44.3282867697623
30
0
0
VERTEX
8
0
10
247.800000000002
20
44.4346717232524
30
0
0
VERTEX
8
0
10
248.500000000002
20
44.5410566767425
30
0
0
VERTEX
8
0
10
249.200000000002
20
44.6474416302326
30
0
0
VERTEX
8
0
10
249.900000000002
20
44.6474416302323
30
0
0
VERTEX
8
0
10
250.600000000002
20
44.6474416302323
30
0
0
VERTEX
8
0
10
251.300000000002
20
44.6474416302323
30
0
0
VERTEX
8
0
10
252.000000000002
20
44.6474416302323
30
0
0
VERTEX
8
0
10
252.700000000002
20
44.7538265837227
30
0
0
VERTEX
8
0
10
253.400000000002
20
44.8602115372127
30
0
0
VERTEX
8
0
10
254.100000000002
20
44.9665964907028
30
0
0
VERTEX
8
0
10
254.800000000002
20
45.0729814441929
30
0
0
VERTEX
8
0
10
255.500000000002
20
45.0729814441926
30
0
0
VERTEX
8
0
10
256.200000000002
20
45.0729814441926
30
0
0
VERTEX
8
0
10
256.900000000002
20
45.0729814441926
30
0
0
VERTEX
8
0
10
257.600000000002
20
45.0729814441926
30
0
0
VERTEX
8
0
10
258.300000000002
20
45.179366397683
30
0
0
VERTEX
8
0
10
259.000000000002
20
45.2857513511731
30
0
0
VERTEX
8
0
10
259.700000000002
20
45.3921363046632
30
0
0
VERTEX
8
0
10
260.400000000002
20
45.4985212581533
30
0
0
VERTEX
8
0
10
261.100000000002
20
45.498521258153
30
0
0
VERTEX
8
0
10
261.800000000002
20
45.498521258153
30
0
0
VERTEX
8
0
10
262.500000000002
20
45.498521258153
30
0
0
VERTEX
8
0
10
263.200000000002
20
45.498521258153
30
0
0
VERTEX
8
0
10
263.900000000002
20
45.6049062116434
30
0
0
VERTEX
8
0
10
264.600000000002
20
45.7112911651335
30
0
0
VERTEX
8
0
10
265.300000000002
20
45.8176761186236
30
0
0
VERTEX
8
0
10
266.000000000002
20
45.9240610721137
30
0
0
SEQEND
8
0
0
POLYLINE
8
0
62
1
70
0
10
0
20
0
30
0
0
VERTEX
8
0
10
8.4
20
66.776658447877
30
0
0
VERTEX
8
0
10
9.1
20
68.1596395801733
30
0
0
VERTEX
8
0
10
9.8
20
69.5426216377343
30
0
0
VERTEX
8
0
10
10.5
20
70.9256045664345
30
0
0
VERTEX
8
0
10
11.2
20
72.3085883162895
30
0
0
VERTEX
8
0
10
11.9
20
73.3192307798843
30
0
0
VERTEX
8
0
10
12.6
20
74.3298736403582
30
0
0
VERTEX
8
0
10
13.3
20
75.3405168817398
30
0
0
VERTEX
8
0
10
14
20
76.3511604889029
30
0
0
VERTEX
8
0
10
14.7
20
76.9894618964328
30
0
0
VERTEX
8
0
10
15.4
20
77.6277634406792
30
0
0
VERTEX
8
0
10
16.1
20
78.2660651182971
30
0
0
VERTEX
8
0
10
16.8
20
78.9043669260496
30
0
0
VERTEX
8
0
10
17.5
20
79.5426688608041
30
0
0
VERTEX
8
0
10
18.2
20
80.1809709195272
30
0
0
VERTEX
8
0
10
18.9
20
80.8192730992819
30
0
0
VERTEX
8
0
10
19.6
20
81.4575753972229
30
0
0
VERTEX
8
0
10
20.3
20
82.8405641018561
30
0
0
VERTEX
8
0
10
21
20
84.2235533217902
30
0
0
VERTEX
8
0
10
21.7
20
85.6065430320509
30
0
0
VERTEX
8
0
10
22.4
20
86.989533209252
30
0
0
VERTEX
8
0
10
23.1
20
88.266139922131
30
0
0
VERTEX
8
0
10
23.8
20
89.5427469979654
30
0
0
VERTEX
8
0
10
24.5
20
90.8193544214495
30
0
0
VERTEX
8
0
10
25.2
20
92.0959621781262
30
0
0
VERTEX
8
0
10
25.9
20
93.5321462856695
30
0
0
VERTEX
8
0
10
26.6
20
94.9683307792859
30
0
0
VERTEX
8
0
10
27.3
20
96.4045156417208
30
0
0
VERTEX
8
0
10
28
20
97.8407008567328
30
0
0
VERTEX
8
0
10
28.7
20
99.064118158341
30
0
0
VERTEX
8
0
10
29.4
20
100.287535695723
30
0
0
VERTEX
8
0
10
30.1
20
101.510953460353
30
0
0
VERTEX
8
0
10
30.8
20
102.734371444114
30
0
0
VERTEX
8
0
10
31.5
20
104.066643980695
30
0
0
VERTEX
8
0
10
32.2
20
105.40057243932
30
0
0
VERTEX
8
0
10
32.9
20
106.736094735626
30
0
0
VERTEX
8
0
10
33.6
20
108.073151781712
30
0
0
VERTEX
8
0
10
34.3
20
109.471308918303
30
0
0
VERTEX
8
0
10
35
20
110.873398835942
30
0
0
VERTEX
8
0
10
35.7
20
112.279274202657
30
0
0
VERTEX
8
0
10
36.4
20
113.68879458597
30
0
0
VERTEX
8
0
10
37.1
20
114.562902429804
30
0
0
VERTEX
8
0
10
37.8
20
115.439117169412
30
0
0
VERTEX
8
0
10
38.5
20
116.317391191293
30
0
0
VERTEX
8
0
10
39.2
20
117.197678198955
30
0
0
VERTEX
8
0
10
39.9
20
117.329990185246
30
0
0
VERTEX
8
0
10
40.6
20
117.463791111546
30
0
0
VERTEX
8
0
10
41.3
20
117.599075895635
30
0
0
VERTEX
8
0
10
42
20
117.735839422416
30
0
0
VERTEX
8
0
10
42.7
20
117.874076544751
30
0
0
VERTEX
8
0
10
43.4
20
118.013782084288
30
0
0
VERTEX
8
0
10
44.1
20
118.15495083229
30
0
0
VERTEX
8
0
10
44.8
20
118.29757755046
30
0
0
VERTEX
8
0
10
45.5
20
118.123839495258
30
0
0
VERTEX
8
0
10
46.1999999999999
20
117.951764591417
30
0
0
VERTEX
8
0
10
46.8999999999999
20
117.781360128374
30
0
0
VERTEX
8
0
10
47.5999999999999
20
117.612633366843
30
0
0
VERTEX
8
0
10
48.2999999999999
20
117.445591537573
30
0
0
VERTEX
8
0
10
48.9999999999999
20
117.280241840093
30
0
0
VERTEX
8
0
10
49.6999999999999
20
117.116591441452
30
0
0
VERTEX
8
0
10
50.3999999999999
20
116.954647474953
30
0
0
VERTEX
8
0
10
51.0999999999999
20
116.636028628212
30
0
0
VERTEX
8
0
10
51.7999999999999
20
116.319285742637
30
0
0
VERTEX
8
0
10
52.4999999999999
20
116.004434184814
30
0
0
VERTEX
8
0
10
53.1999999999999
20
115.691489396352
30
0
0
VERTEX
8
0
10
53.8999999999999
20
115.365832964326
30
0
0
VERTEX
8
0
10
54.5999999999999
20
115.041345250688
30
0
0
VERTEX
8
0
10
55.2999999999999
20
114.718036172837
30
0
0
VERTEX
8
0
10
55.9999999999999
20
114.395915724058
30
0
0
VERTEX
8
0
10
56.6999999999999
20
114.038399630313
30
0
0
VERTEX
8
0
10
57.3999999999999
20
113.682944994724
30
0
0
VERTEX
8
0
10
58.0999999999999
20
113.329571214387
30
0
0
VERTEX
8
0
10
58.7999999999999
20
112.978297814816
30
0
0
VERTEX
8
0
10
59.4999999999999
20
112.768681008967
30
0
0
VERTEX
8
0
10
60.1999999999999
20
112.560207211518
30
0
0
VERTEX
8
0
10
60.8999999999999
20
112.352882785119
30
0
0
VERTEX
8
0
10
61.5999999999999
20
112.146714104259
30
0
0
VERTEX
8
0
10
62.2999999999999
20
111.856191428695
30
0
0
VERTEX
8
0
10
62.9999999999999
20
111.567778013317
30
0
0
VERTEX
8
0
10
63.6999999999999
20
111.281490258131
30
0
0
VERTEX
8
0
10
64.3999999999999
20
110.99734461084
30
0
0
VERTEX
8
0
10
65.0999999999999
20
110.976086550073
30
0
0
VERTEX
8
0
10
65.7999999999999
20
110.956558458995
30
0
0
VERTEX
8
0
10
66.4999999999999
20
110.938761251163
30
0
0
VERTEX
8
0
10
67.1999999999999
20
110.922695759723
30
0
0
VERTEX
8
0
10
67.8999999999999
20
110.90836273721
30
0
0
VERTEX
8
0
10
68.5999999999999
20
110.895762855379
30
0
0
VERTEX
8
0
10
69.2999999999999
20
110.88489670504
30
0
0
VERTEX
8
0
10
69.9999999999999
20
110.875764795926
30
0
0
VERTEX
8
0
10
70.6999999999999
20
110.971951441936
30
0
0
VERTEX
8
0
10
71.3999999999999
20
111.06968516588
30
0
0
VERTEX
8
0
10
72.0999999999999
20
111.168961887438
30
0
0
VERTEX
8
0
10
72.7999999999999
20
111.269777476546
30
0
0
VERTEX
8
0
10
73.4999999999999
20
111.346396538088
30
0
0
VERTEX
8
0
10
74.1999999999998
20
111.423877082087
30
0
0
VERTEX
8
0
10
74.8999999999998
20
111.502217312665
30
0
0
VERTEX
8
0
10
75.5999999999998
20
111.58141541909
30
0
0
VERTEX
8
0
10
76.2999999999998
20
111.404122562977
30
0
0
VERTEX
8
0
10
76.9999999999998
20
111.228098845368
30
0
0
VERTEX
8
0
10
77.6999999999998
20
111.05335030116
30
0
0
VERTEX
8
0
10
78.3999999999998
20
110.879882959437
30
0
0
VERTEX
8
0
10
79.0999999999998
20
110.5910067925
30
0
0
VERTEX
8
0
10
79.7999999999998
20
110.303272293787
30
0
0
VERTEX
8
0
10
80.4999999999998
20
110.016688420957
30
0
0
VERTEX
8
0
10
81.1999999999998
20
109.731264189241
30
0
0
VERTEX
8
0
10
81.8999999999998
20
109.461817232247
30
0
0
VERTEX
8
0
10
82.5999999999998
20
109.193907924077
30
0
0
VERTEX
8
0
10
83.2999999999998
20
108.927547610358
30
0
0
VERTEX
8
0
10
83.9999999999998
20
108.662747682041
30
0
0
VERTEX
8
0
10
84.6999999999998
20
108.383939336693
30
0
0
VERTEX
8
0
10
85.3999999999998
20
108.106348729051
30
0
0
VERTEX
8
0
10
86.0999999999998
20
107.829985263713
30
0
0
VERTEX
8
0
10
86.7999999999998
20
107.554858400149
30
0
0
VERTEX
8
0
10
87.4999999999998
20
107.230331208569
30
0
0
VERTEX
8
0
10
88.1999999999998
20
106.907174394276
30
0
0
VERTEX
8
0
10
88.8999999999998
20
106.585400421834
30
0
0
VERTEX
8
0
10
89.5999999999998
20
106.265021853114
30
0
0
VERTEX
8
0
10
90.2999999999998
20
105.844747524315
30
0
0
VERTEX
8
0
10
90.9999999999998
20
105.425079047911
30
0
0
VERTEX
8
0
10
91.6999999999998
20
105.006023687974
30
0
0
VERTEX
8
0
10
92.3999999999998
20
104.587588814303
30
0
0
VERTEX
8
0
10
93.0999999999998
20
104.270305770053
30
0
0
VERTEX
8
0
10
93.7999999999998
20
103.953496898214
30
0
0
VERTEX
8
0
10
94.4999999999998
20
103.637166547282
30
0
0
VERTEX
8
0
10
95.1999999999998
20
103.321319112403
30
0
0
VERTEX
8
0
10
95.8999999999998
20
102.905739833609
30
0
0
VERTEX
8
0
10
96.5999999999998
20
102.490822042789
30
0
0
VERTEX
8
0
10
97.2999999999998
20
102.076573806333
30
0
0
VERTEX
8
0
10
97.9999999999998
20
101.663003308982
30
0
0
VERTEX
8
0
10
98.6999999999998
20
101.331625688321
30
0
0
VERTEX
8
0
10
99.3999999999998
20
101.000561540183
30
0
0
VERTEX
8
0
10
100.1
20
100.669813957237
30
0
0
VERTEX
8
0
10
100.8
20
100.339386069955
30
0
0
VERTEX
8
0
10
101.5
20
100.059086387573
30
0
0
VERTEX
8
0
10
102.2
20
99.7790484974935
30
0
0
VERTEX
8
0
10
102.9
20
99.499274610138
30
0
0
VERTEX
8
0
10
103.6
20
99.2197669587631
30
0
0
VERTEX
8
0
10
104.3
20
99.0209354395344
30
0
0
VERTEX
8
0
10
105
20
98.8221619747122
30
0
0
VERTEX
8
0
10
105.7
20
98.6234469153188
30
0
0
VERTEX
8
0
10
106.4
20
98.4247906151077
30
0
0
VERTEX
8
0
10
107.1
20
98.2453141812444
30
0
0
VERTEX
8
0
10
107.8
20
98.0659997678137
30
0
0
VERTEX
8
0
10
108.5
20
97.8868482652091
30
0
0
VERTEX
8
0
10
109.2
20
97.7078605695421
30
0
0
VERTEX
8
0
10
109.9
20
97.628110377055
30
0
0
VERTEX
8
0
10
110.6
20
97.548440012681
30
0
0
VERTEX
8
0
10
111.3
20
97.4688496721728
30
0
0
VERTEX
8
0
10
112
20
97.3893395517264
30
0
0
VERTEX
8
0
10
112.7
20
97.1914213238853
30
0
0
VERTEX
8
0
10
113.4
20
96.9935659807346
30
0
0
VERTEX
8
0
10
114.1
20
96.7957739078928
30
0
0
VERTEX
8
0
10
114.8
20
96.5980454940126
30
0
0
VERTEX
8
0
10
115.5
20
96.341074035185
30
0
0
VERTEX
8
0
10
116.2
20
96.0845932208137
30
0
0
VERTEX
8
0
10
116.9
20
95.8286069904601
30
0
0
VERTEX
8
0
10
117.6
20
95.5731193182554
30
0
0
VERTEX
8
0
10
118.3
20
95.4165372770966
30
0
0
VERTEX
8
0
10
119
20
95.2602919020561
30
0
0
VERTEX
8
0
10
119.7
20
95.104384852443
30
0
0
VERTEX
8
0
10
120.4
20
94.9488177948602
30
0
0
VERTEX
8
0
10
121.1
20
94.695498144125
30
0
0
VERTEX
8
0
10
121.8
20
94.4426973992854
30
0
0
VERTEX
8
0
10
122.5
20
94.1904197384669
30
0
0
VERTEX
8
0
10
123.2
20
93.9386693759856
30
0
0
VERTEX
8
0
10
123.9
20
93.7362984459615
30
0
0
VERTEX
8
0
10
124.6
20
93.534366925028
30
0
0
VERTEX
8
0
10
125.3
20
93.3328776652523
30
0
0
VERTEX
8
0
10
126
20
93.1318335371096
30
0
0
VERTEX
8
0
10
126.7
20
92.8825754075489
30
0
0
VERTEX
8
0
10
127.4
20
92.6338683520273
30
0
0
VERTEX
8
0
10
128.1
20
92.3857168211029
30
0
0
VERTEX
8
0
10
128.8
20
92.1381253032852
30
0
0
VERTEX
8
0
10
129.5
20
91.7987531008025
30
0
0
VERTEX
8
0
10
130.2
20
91.4596375041983
30
0
0
VERTEX
8
0
10
130.9
20
91.1207813784303
30
0
0
VERTEX
8
0
10
131.6
20
90.7821876290227
30
0
0
VERTEX
8
0
10
132.3
20
90.4884188400942
30
0
0
VERTEX
8
0
10
133
20
90.1953558574124
30
0
0
VERTEX
8
0
10
133.7
20
89.9030055832725
30
0
0
VERTEX
8
0
10
134.4
20
89.6113749931465
30
0
0
VERTEX
8
0
10
135.1
20
89.3685082713687
30
0
0
VERTEX
8
0
10
135.8
20
89.1262496030415
30
0
0
VERTEX
8
0
10
136.5
20
88.8846039599895
30
0
0
VERTEX
8
0
10
137.2
20
88.6435763556012
30
0
0
VERTEX
8
0
10
137.9
20
88.3075912029851
30
0
0
VERTEX
8
0
10
138.6
20
87.9725099267889
30
0
0
VERTEX
8
0
10
139.3
20
87.6383428948059
30
0
0
VERTEX
8
0
10
140
20
87.3051006050585
30
0
0
VERTEX
8
0
10
140.7
20
87.0674070307934
30
0
0
VERTEX
8
0
10
141.4
20
86.8298774296696
30
0
0
VERTEX
8
0
10
142.1
20
86.5925131510579
30
0
0
VERTEX
8
0
10
142.8
20
86.3553155582211
30
0
0
VERTEX
8
0
10
143.5
20
86.1656784227917
30
0
0
VERTEX
8
0
10
144.2
20
85.9761495592039
30
0
0
VERTEX
8
0
10
144.9
20
85.7867296850735
30
0
0
VERTEX
8
0
10
145.6
20
85.597419523954
30
0
0
VERTEX
8
0
10
146.3
20
85.3136615917085
30
0
0
VERTEX
8
0
10
147
20
85.0301546444512
30
0
0
VERTEX
8
0
10
147.7
20
84.74690120107
30
0
0
VERTEX
8
0
10
148.4
20
84.4639038119746
30
0
0
VERTEX
8
0
10
149.1
20
84.3248123841347
30
0
0
VERTEX
8
0
10
149.8
20
84.1861633385428
30
0
0
VERTEX
8
0
10
150.5
20
84.0479588645162
30
0
0
VERTEX
8
0
10
151.2
20
83.9102011587523
30
0
0
VERTEX
8
0
10
151.9
20
83.7225958767115
30
0
0
VERTEX
8
0
10
152.6
20
83.5351112062146
30
0
0
VERTEX
8
0
10
153.3
20
83.3477479611824
30
0
0
VERTEX
8
0
10
154
20
83.1605069623409
30
0
0
VERTEX
8
0
10
154.7
20
82.9987510832182
30
0
0
VERTEX
8
0
10
155.4
20
82.8372600069575
30
0
0
VERTEX
8
0
10
156.1
20
82.6760352852768
30
0
0
VERTEX
8
0
10
156.8
20
82.5150784794525
30
0
0
VERTEX
8
0
10
157.5
20
82.3543911603617
30
0
0
VERTEX
8
0
10
158.2
20
82.1939749085254
30
0
0
VERTEX
8
0
10
158.9
20
82.0338313141508
30
0
0
VERTEX
8
0
10
159.6
20
81.8739619771732
30
0
0
VERTEX
8
0
10
160.3
20
81.7404327337457
30
0
0
VERTEX
8
0
10
161
20
81.6073784332256
30
0
0
VERTEX
8
0
10
161.7
20
81.4748014024623
30
0
0
VERTEX
8
0
10
162.4
20
81.3427039751012
30
0
0
VERTEX
8
0
10
163.1
20
81.1580887212108
30
0
0
VERTEX
8
0
10
163.8
20
80.9736116388885
30
0
0
VERTEX
8
0
10
164.5
20
80.7892736746519
30
0
0
VERTEX
8
0
10
165.2
20
80.6050757829598
30
0
0
VERTEX
8
0
10
165.9
20
80.5012861207995
30
0
0
VERTEX
8
0
10
166.6
20
80.3982422955133
30
0
0
VERTEX
8
0
10
167.3
20
80.2959471784996
30
0
0
VERTEX
8
0
10
168.000000000001
20
80.1944036348913
30
0
0
VERTEX
8
0
10
168.700000000001
20
80.1848717896593
30
0
0
VERTEX
8
0
10
169.400000000001
20
80.1757975883088
30
0
0
VERTEX
8
0
10
170.100000000001
20
80.1671811862433
30
0
0
VERTEX
8
0
10
170.800000000001
20
80.1590227310913
30
0
0
VERTEX
8
0
10
171.500000000001
20
80.0328143705029
30
0
0
VERTEX
8
0
10
172.200000000001
20
79.9071148553522
30
0
0
VERTEX
8
0
10
172.900000000001
20
79.7819265907562
30
0
0
VERTEX
8
0
10
173.600000000001
20
79.6572519871384
30
0
0
VERTEX
8
0
10
174.300000000001
20
79.6514924069881
30
0
0
VERTEX
8
0
10
175.000000000001
20
79.6461942380652
30
0
0
VERTEX
8
0
10
175.700000000001
20
79.6413575724566
30
0
0
VERTEX
8
0
10
176.400000000001
20
79.6369824942489
30
0
0
VERTEX
8
0
10
177.100000000001
20
79.5434553106962
30
0
0
VERTEX
8
0
10
177.800000000001
20
79.4507083462398
30
0
0
VERTEX
8
0
10
178.500000000001
20
79.3587443364178
30
0
0
VERTEX
8
0
10
179.200000000001
20
79.2675660063162
30
0
0
VERTEX
8
0
10
179.900000000001
20
79.1785391436543
30
0
0
VERTEX
8
0
10
180.600000000001
20
79.0895551687917
30
0
0
VERTEX
8
0
10
181.300000000001
20
79.0006142266511
30
0
0
VERTEX
8
0
10
182.000000000001
20
78.9117164627384
30
0
0
VERTEX
8
0
10
182.700000000001
20
78.8228620231449
30
0
0
VERTEX
8
0
10
183.400000000001
20
78.7340510545503
30
0
0
VERTEX
8
0
10
184.100000000001
20
78.6452837042246
30
0
0
VERTEX
8
0
10
184.800000000001
20
78.5565601200312
30
0
0
VERTEX
8
0
10
185.500000000001
20
78.5267316647258
30
0
0
VERTEX
8
0
10
186.200000000001
20
78.4971802361646
30
0
0
VERTEX
8
0
10
186.900000000001
20
78.4679061473371
30
0
0
VERTEX
8
0
10
187.600000000001
20
78.4389097087601
30
0
0
VERTEX
8
0
10
188.300000000001
20
78.3506746802884
30
0
0
VERTEX
8
0
10
189.000000000001
20
78.2624847863294
30
0
0
VERTEX
8
0
10
189.700000000001
20
78.1743401796341
30
0
0
VERTEX
8
0
10
190.400000000001
20
78.0862410135647
30
0
0
VERTEX
8
0
10
191.100000000001
20
77.9101796198238
30
0
0
VERTEX
8
0
10
191.800000000001
20
77.7343018443244
30
0
0
VERTEX
8
0
10
192.500000000001
20
77.5586089362265
30
0
0
VERTEX
8
0
10
193.200000000001
20
77.3831021547154
30
0
0
VERTEX
8
0
10
193.900000000001
20
77.2351899184137
30
0
0
VERTEX
8
0
10
194.600000000001
20
77.0872875084671
30
0
0
VERTEX
8
0
10
195.300000000001
20
76.9393949815439
30
0
0
VERTEX
8
0
10
196.000000000001
20
76.791512394745
30
0
0
VERTEX
8
0
10
196.700000000001
20
76.7037431335409
30
0
0
VERTEX
8
0
10
197.400000000001
20
76.616021046755
30
0
0
VERTEX
8
0
10
198.100000000001
20
76.5283462966112
30
0
0
VERTEX
8
0
10
198.800000000001
20
76.4407190459897
30
0
0
VERTEX
8
0
10
199.500000000001
20
76.2051588117322
30
0
0
VERTEX
8
0
10
200.200000000001
20
75.969613059157
30
0
0
VERTEX
8
0
10
200.900000000001
20
75.7340819233854
30
0
0
VERTEX
8
0
10
201.600000000001
20
75.4985655412164
30
0
0
VERTEX
8
0
10
202.300000000001
20
75.4110924188558
30
0
0
VERTEX
8
0
10
203.000000000001
20
75.3236679692757
30
0
0
VERTEX
8
0
10
203.700000000001
20
75.2362923621495
30
0
0
VERTEX
8
0
10
204.400000000001
20
75.1489657678442
30
0
0
VERTEX
8
0
10
205.100000000001
20
75.0008727488511
30
0
0
VERTEX
8
0
10
205.800000000001
20
74.8527891346435
30
0
0
VERTEX
8
0
10
206.500000000001
20
74.7047149811495
30
0
0
VERTEX
8
0
10
207.200000000001
20
74.5566503447377
30
0
0
VERTEX
8
0
10
207.900000000001
20
74.4692866609086
30
0
0
VERTEX
8
0
10
208.600000000001
20
74.3819725233092
30
0
0
VERTEX
8
0
10
209.300000000001
20
74.2947081066258
30
0
0
VERTEX
8
0
10
210.000000000001
20
74.2074935862665
30
0
0
VERTEX
8
0
10
210.700000000001
20
74.0898276431008
30
0
0
VERTEX
8
0
10
211.400000000001
20
73.9721657815208
30
0
0
VERTEX
8
0
10
212.100000000001
20
73.8545080210345
30
0
0
VERTEX
8
0
10
212.800000000001
20
73.7368543812734
30
0
0
VERTEX
8
0
10
213.500000000001
20
73.619204881994
30
0
0
VERTEX
8
0
10
214.200000000001
20
73.5015595430785
30
0
0
VERTEX
8
0
10
214.900000000001
20
73.3839183845361
30
0
0
VERTEX
8
0
10
215.600000000001
20
73.2662814265035
30
0
0
VERTEX
8
0
10
216.300000000001
20
73.1792331568499
30
0
0
VERTEX
8
0
10
217.000000000001
20
73.0922360603248
30
0
0
VERTEX
8
0
10
217.700000000001
20
73.0052903198703
30
0
0
VERTEX
8
0
10
218.400000000001
20
72.9183961191927
30
0
0
VERTEX
8
0
10
219.100000000001
20
72.8930922885031
30
0
0
VERTEX
8
0
10
219.800000000001
20
72.8680903084352
30
0
0
VERTEX
8
0
10
220.500000000001
20
72.8433904898009
30
0
0
VERTEX
8
0
10
221.200000000001
20
72.8189931400749
30
0
0
VERTEX
8
0
10
221.900000000001
20
72.7326544093127
30
0
0
VERTEX
8
0
10
222.600000000001
20
72.6463688592308
30
0
0
VERTEX
8
0
10
223.300000000001
20
72.56013667955
30
0
0
VERTEX
8
0
10
224.000000000001
20
72.4739580607766
30
0
0
VERTEX
8
0
10
224.700000000001
20
72.3878331942053
30
0
0
VERTEX
8
0
10
225.400000000001
20
72.3017622719227
30
0
0
VERTEX
8
0
10
226.100000000001
20
72.2157454868108
30
0
0
VERTEX
8
0
10
226.800000000001
20
72.1297830325496
30
0
0
VERTEX
8
0
10
227.500000000001
20
72.1067138300863
30
0
0
VERTEX
8
0
10
228.200000000001
20
72.0839512614182
30
0
0
VERTEX
8
0
10
228.900000000001
20
72.0614956171214
30
0
0
VERTEX
8
0
10
229.600000000001
20
72.0393471842132
30
0
0
VERTEX
8
0
10
230.300000000001
20
71.9539604498441
30
0
0
VERTEX
8
0
10
231.000000000001
20
71.8686297463958
30
0
0
VERTEX
8
0
10
231.700000000001
20
71.7833552736844
30
0
0
VERTEX
8
0
10
232.400000000001
20
71.6981372323446
30
0
0
VERTEX
8
0
10
233.100000000001
20
71.6768239240501
30
0
0
VERTEX
8
0
10
233.800000000001
20
71.655820169221
30
0
0
VERTEX
8
0
10
234.500000000001
20
71.6351262401451
30
0
0
VERTEX
8
0
10
235.200000000001
20
71.6147424054057
30
0
0
VERTEX
8
0
10
235.900000000001
20
71.6469689668276
30
0
0
VERTEX
8
0
10
236.600000000001
20
71.6792205130164
30
0
0
VERTEX
8
0
10
237.300000000001
20
71.7114970102625
30
0
0
VERTEX
8
0
10
238.000000000001
20
71.7437984248903
30
0
0
VERTEX
8
0
10
238.700000000001
20
71.6916874268715
30
0
0
VERTEX
8
0
10
239.400000000002
20
71.6397360002747
30
0
0
VERTEX
8
0
10
240.100000000002
20
71.587944492503
30
0
0
VERTEX
8
0
10
240.800000000002
20
71.5363132508948
30
0
0
VERTEX
8
0
10
241.500000000002
20
71.5174837857698
30
0
0
VERTEX
8
0
10
242.200000000002
20
71.4989659477592
30
0
0
VERTEX
8
0
10
242.900000000002
20
71.4807599790541
30
0
0
VERTEX
8
0
10
243.600000000002
20
71.462866118011
30
0
0
VERTEX
8
0
10
244.300000000002
20
71.379326725302
30
0
0
VERTEX
8
0
10
245.000000000002
20
71.2958481906959
30
0
0
VERTEX
8
0
10
245.700000000002
20
71.2124307282145
30
0
0
VERTEX
8
0
10
246.400000000002
20
71.129074552727
30
0
0
VERTEX
8
0
10
247.100000000002
20
71.1952642696249
30
0
0
VERTEX
8
0
10
247.800000000002
20
71.2615513277157
30
0
0
VERTEX
8
0
10
248.500000000002
20
71.327935455614
30
0
0
VERTEX
8
0
10
249.200000000002
20
71.3944163825468
30
0
0
VERTEX
8
0
10
249.900000000002
20
71.3114316405702
30
0
0
VERTEX
8
0
10
250.600000000002
20
71.228509110943
30
0
0
VERTEX
8
0
10
251.300000000002
20
71.1456490111962
30
0
0
VERTEX
8
0
10
252.000000000002
20
71.0628515597116
30
0
0
VERTEX
8
0
10
252.700000000002
20
71.0470826681045
30
0
0
VERTEX
8
0
10
253.400000000002
20
71.0316289446654
30
0
0
VERTEX
8
0
10
254.100000000002
20
71.0164905951435
30
0
0
VERTEX
8
0
10
254.800000000002
20
71.0016678212624
30
0
0
VERTEX
8
0
10
255.500000000002
20
70.9195002066246
30
0
0
VERTEX
8
0
10
256.200000000002
20
70.8373970529033
30
0
0
VERTEX
8
0
10
256.900000000002
20
70.7553585844956
30
0
0
VERTEX
8
0
10
257.600000000002
20
70.6733850266641
30
0
0
VERTEX
8
0
10
258.300000000002
20
70.6594513223665
30
0
0
VERTEX
8
0
10
259.000000000002
20
70.6458352789599
30
0
0
VERTEX
8
0
10
259.700000000002
20
70.6325370801539
30
0
0
VERTEX
8
0
10
260.400000000002
20
70.619556905506
30
0
0
VERTEX
8
0
10
261.100000000002
20
70.619556905506
30
0
0
VERTEX
8
0
10
261.800000000002
20
70.619556905506
30
0
0
VERTEX
8
0
10
262.500000000002
20
70.619556905506
30
0
0
VERTEX
8
0
10
263.200000000002
20
70.619556905506
30
0
0
VERTEX
8
0
10
263.900000000002
20
70.6068949304103
30
0
0
VERTEX
8
0
10
264.600000000002
20
70.5945513260855
30
0
0
VERTEX
8
0
10
265.300000000002
20
70.5825262595634
30
0
0
VERTEX
8
0
10
266.000000000002
20
70.5708198936778
30
0
0
SEQEND
8
0
0
POLYLINE
8
0
62
5
70
0
10
0
20
0
30
0
0
VERTEX
8
0
10
8.4
20
80.4899494986288
30
0
0
VERTEX
8
0
10
9.1
20
82.43288544074
30
0
0
VERTEX
8
0
10
9.8
20
84.3546688746875
30
0
0
VERTEX
8
0
10
10.5
20
86.2575300587948
30
0
0
VERTEX
8
0
10
11.2
20
88.143332875544
30
0
0
VERTEX
8
0
10
11.9
20
89.6413118730045
30
0
0
VERTEX
8
0
10
12.6
20
91.1251565246667
30
0
0
VERTEX
8
0
10
13.3
20
92.5960297143825
30
0
0
VERTEX
8
0
10
14
20
94.0549431093219
30
0
0
VERTEX
8
0
10
14.7
20
95.1304407847013
30
0
0
VERTEX
8
0
10
15.4
20
96.1956472990556
30
0
0
VERTEX
8
0
10
16.1
20
97.2512568985164
30
0
0
VERTEX
8
0
10
16.8
20
98.2978891147924
30
0
0
VERTEX
8
0
10
17.5
20
99.3360995598722
30
0
0
VERTEX
8
0
10
18.2
20
100.366388794626
30
0
0
VERTEX
8
0
10
18.9
20
101.38920967541
30
0
0
VERTEX
8
0
10
19.6
20
102.404973486233
30
0
0
VERTEX
8
0
10
20.3
20
104.158741384472
30
0
0
VERTEX
8
0
10
21
20
105.90617029038
30
0
0
VERTEX
8
0
10
21.7
20
107.647574644934
30
0
0
VERTEX
8
0
10
22.4
20
109.383243721663
30
0
0
VERTEX
8
0
10
23.1
20
111.007060450272
30
0
0
VERTEX
8
0
10
23.8
20
112.62565544601
30
0
0
VERTEX
8
0
10
24.5
20
114.239257460838
30
0
0
VERTEX
8
0
10
25.2
20
115.848079017008
30
0
0
VERTEX
8
0
10
25.9
20
117.611894006139
30
0
0
VERTEX
8
0
10
26.6
20
119.371311052912
30
0
0
VERTEX
8
0
10
27.3
20
121.126502661144
30
0
0
VERTEX
8
0
10
28
20
122.877630343834
30
0
0
VERTEX
8
0
10
28.7
20
124.412077328571
30
0
0
VERTEX
8
0
10
29.4
20
125.942754074236
30
0
0
VERTEX
8
0
10
30.1
20
127.469794459188
30
0
0
VERTEX
8
0
10
30.8
20
128.993324621199
30
0
0
VERTEX
8
0
10
31.5
20
130.622317911323
30
0
0
VERTEX
8
0
10
32.2
20
132.249688139161
30
0
0
VERTEX
8
0
10
32.9
20
133.875479581583
30
0
0
VERTEX
8
0
10
33.6
20
135.499733883216
30
0
0
VERTEX
8
0
10
34.3
20
137.182111896998
30
0
0
VERTEX
8
0
10
35
20
138.865536976456
30
0
0
VERTEX
8
0
10
35.7
20
140.5499479412
30
0
0
VERTEX
8
0
10
36.4
20
142.235286307103
30
0
0
VERTEX
8
0
10
37.1
20
143.382572544819
30
0
0
VERTEX
8
0
10
37.8
20
144.529400452526
30
0
0
VERTEX
8
0
10
38.5
20
145.675793352265
30
0
0
VERTEX
8
0
10
39.2
20
146.821772672861
30
0
0
VERTEX
8
0
10
39.9
20
147.21741512204
30
0
0
VERTEX
8
0
10
40.6
20
147.612246549695
30
0
0
VERTEX
8
0
10
41.3
20
148.006321105611
30
0
0
VERTEX
8
0
10
42
20
148.399690407137
30
0
0
VERTEX
8
0
10
42.7
20
148.792403685246
30
0
0
VERTEX
8
0
10
43.4
20
149.184507919922
30
0
0
VERTEX
8
0
10
44.1
20
149.576047965805
30
0
0
VERTEX
8
0
10
44.8
20
149.967066668969
30
0
0
VERTEX
8
0
10
45.5
20
150.039787499053
30
0
0
VERTEX
8
0
10
46.1999999999999
20
150.112282823163
30
0
0
VERTEX
8
0
10
46.8999999999999
20
150.18460269587
30
0
0
VERTEX
8
0
10
47.5999999999999
20
150.256795553084
30
0
0
VERTEX
8
0
10
48.2999999999999
20
150.328908292352
30
0
0
VERTEX
8
0
10
48.9999999999999
20
150.400986347858
30
0
0
VERTEX
8
0
10
49.6999999999999
20
150.473073760519
30
0
0
VERTEX
8
0
10
50.3999999999999
20
150.54521324357
30
0
0
VERTEX
8
0
10
51.0999999999999
20
150.459057833316
30
0
0
VERTEX
8
0
10
51.7999999999999
20
150.373191547447
30
0
0
VERTEX
8
0
10
52.4999999999999
20
150.287661811694
30
0
0
VERTEX
8
0
10
53.1999999999999
20
150.202515061638
30
0
0
VERTEX
8
0
10
53.8999999999999
20
150.103162862053
30
0
0
VERTEX
8
0
10
54.5999999999999
20
150.003514582369
30
0
0
VERTEX
8
0
10
55.2999999999999
20
149.903608220633
30
0
0
VERTEX
8
0
10
55.9999999999999
20
149.803480964896
30
0
0
VERTEX
8
0
10
56.6999999999999
20
149.666574888636
30
0
0
VERTEX
8
0
10
57.3999999999999
20
149.530372631743
30
0
0
VERTEX
8
0
10
58.0999999999999
20
149.394918351838
30
0
0
VERTEX
8
0
10
58.7999999999999
20
149.260255591353
30
0
0
VERTEX
8
0
10
59.4999999999999
20
149.265963867447
30
0
0
VERTEX
8
0
10
60.1999999999999
20
149.271552215556
30
0
0
VERTEX
8
0
10
60.8999999999999
20
149.277048963369
30
0
0
VERTEX
8
0
10
61.5999999999999
20
149.282481821012
30
0
0
VERTEX
8
0
10
62.2999999999999
20
149.202361779431
30
0
0
VERTEX
8
0
10
62.9999999999999
20
149.12317224397
30
0
0
VERTEX
8
0
10
63.6999999999999
20
149.044949206872
30
0
0
VERTEX
8
0
10
64.3999999999999
20
148.967728171279
30
0
0
VERTEX
8
0
10
65.0999999999999
20
149.152273154819
30
0
0
VERTEX
8
0
10
65.7999999999999
20
149.337444582611
30
0
0
VERTEX
8
0
10
66.4999999999999
20
149.523260931572
30
0
0
VERTEX
8
0
10
67.1999999999999
20
149.709740137208
30
0
0
VERTEX
8
0
10
67.8999999999999
20
149.896899610176
30
0
0
VERTEX
8
0
10
68.5999999999999
20
150.084756252098
30
0
0
VERTEX
8
0
10
69.2999999999999
20
150.273326470666
30
0
0
VERTEX
8
0
10
69.9999999999999
20
150.462626194062
30
0
0
VERTEX
8
0
10
70.6999999999999
20
150.756254770118
30
0
0
VERTEX
8
0
10
71.3999999999999
20
151.050455384353
30
0
0
VERTEX
8
0
10
72.0999999999999
20
151.34523826064
30
0
0
VERTEX
8
0
10
72.7999999999999
20
151.640613226744
30
0
0
VERTEX
8
0
10
73.4999999999999
20
151.910858510645
30
0
0
VERTEX
8
0
10
74.1999999999998
20
152.181045421859
30
0
0
VERTEX
8
0
10
74.8999999999998
20
152.451185151063
30
0
0
VERTEX
8
0
10
75.5999999999998
20
152.721288571346
30
0
0
VERTEX
8
0
10
76.2999999999998
20
152.734019235207
30
0
0
VERTEX
8
0
10
76.9999999999998
20
152.747149351019
30
0
0
VERTEX
8
0
10
77.6999999999998
20
152.760696786453
30
0
0
VERTEX
8
0
10
78.3999999999998
20
152.774679137457
30
0
0
VERTEX
8
0
10
79.0999999999998
20
152.67241768557
30
0
0
VERTEX
8
0
10
79.7999999999998
20
152.570473983809
30
0
0
VERTEX
8
0
10
80.4999999999998
20
152.468867807398
30
0
0
VERTEX
8
0
10
81.1999999999998
20
152.367618754472
30
0
0
VERTEX
8
0
10
81.8999999999998
20
152.281554813947
30
0
0
VERTEX
8
0
10
82.5999999999998
20
152.19624649443
30
0
0
VERTEX
8
0
10
83.2999999999998
20
152.111715061784
30
0
0
VERTEX
8
0
10
83.9999999999998
20
152.02798161922
30
0
0
VERTEX
8
0
10
84.6999999999998
20
151.929486874643
30
0
0
VERTEX
8
0
10
85.3999999999998
20
151.831466297028
30
0
0
VERTEX
8
0
10
86.0999999999998
20
151.733938414733
30
0
0
VERTEX
8
0
10
86.7999999999998
20
151.636921625916
30
0
0
VERTEX
8
0
10
87.4999999999998
20
151.489787759616
30
0
0
VERTEX
8
0
10
88.1999999999998
20
151.343316105136
30
0
0
VERTEX
8
0
10
88.8999999999998
20
151.197527541051
30
0
0
VERTEX
8
0
10
89.5999999999998
20
151.052442877937
30
0
0
VERTEX
8
0
10
90.2999999999998
20
150.806779039898
30
0
0
VERTEX
8
0
10
90.9999999999998
20
150.561045570871
30
0
0
VERTEX
8
0
10
91.6999999999998
20
150.315257514154
30
0
0
VERTEX
8
0
10
92.3999999999998
20
150.069429870585
30
0
0
VERTEX
8
0
10
93.0999999999998
20
149.92410147011
30
0
0
VERTEX
8
0
10
93.7999999999998
20
149.778602002032
30
0
0
VERTEX
8
0
10
94.4999999999998
20
149.632943024363
30
0
0
VERTEX
8
0
10
95.1999999999998
20
149.487136008491
30
0
0
VERTEX
8
0
10
95.8999999999998
20
149.240973140852
30
0
0
VERTEX
8
0
10
96.5999999999998
20
148.994854573207
30
0
0
VERTEX
8
0
10
97.2999999999998
20
148.748795068491
30
0
0
VERTEX
8
0
10
97.9999999999998
20
148.502809387758
30
0
0
VERTEX
8
0
10
98.6999999999998
20
148.338419127684
30
0
0
VERTEX
8
0
10
99.3999999999998
20
148.173751228866
30
0
0
VERTEX
8
0
10
100.1
20
148.00881501723
30
0
0
VERTEX
8
0
10
100.8
20
147.843619747718
30
0
0
VERTEX
8
0
10
101.5
20
147.727979947893
30
0
0
VERTEX
8
0
10
102.2
20
147.612035119893
30
0
0
VERTEX
8
0
10
102.9
20
147.495793287769
30
0
0
VERTEX
8
0
10
103.6
20
147.379262399702
30
0
0
VERTEX
8
0
10
104.3
20
147.342857970404
30
0
0
VERTEX
8
0
10
105
20
147.305967446569
30
0
0
VERTEX
8
0
10
105.7
20
147.268596611732
30
0
0
VERTEX
8
0
10
106.4
20
147.23075116236
30
0
0
VERTEX
8
0
10
107.1
20
147.211557460605
30
0
0
VERTEX
8
0
10
107.8
20
147.192002829808
30
0
0
VERTEX
8
0
10
108.5
20
147.172093245838
30
0
0
VERTEX
8
0
10
109.2
20
147.151834608389
30
0
0
VERTEX
8
0
10
109.9
20
147.230305537227
30
0
0
VERTEX
8
0
10
110.6
20
147.30835320253
30
0
0
VERTEX
8
0
10
111.3
20
147.385982568753
30
0
0
VERTEX
8
0
10
112
20
147.46319852593
30
0
0
VERTEX
8
0
10
112.7
20
147.421517367213
30
0
0
VERTEX
8
0
10
113.4
20
147.37941463366
30
0
0
VERTEX
8
0
10
114.1
20
147.336895189766
30
0
0
VERTEX
8
0
10
114.8
20
147.293963834473
30
0
0
VERTEX
8
0
10
115.5
20
147.191318207029
30
0
0
VERTEX
8
0
10
116.2
20
147.088696274291
30
0
0
VERTEX
8
0
10
116.9
20
146.986106188948
30
0
0
VERTEX
8
0
10
117.6
20
146.883556075282
30
0
0
VERTEX
8
0
10
118.3
20
146.879457094674
30
0
0
VERTEX
8
0
10
119
20
146.875244310287
30
0
0
VERTEX
8
0
10
119.7
20
146.870923350371
30
0
0
VERTEX
8
0
10
120.4
20
146.866499792529
30
0
0
VERTEX
8
0
10
121.1
20
146.763884905812
30
0
0
VERTEX
8
0
10
121.8
20
146.661353987885
30
0
0
VERTEX
8
0
10
122.5
20
146.558914960992
30
0
0
VERTEX
8
0
10
123.2
20
146.456575730154
30
0
0
VERTEX
8
0
10
123.9
20
146.403192067845
30
0
0
VERTEX
8
0
10
124.6
20
146.349827537734
30
0
0
VERTEX
8
0
10
125.3
20
146.296488528617
30
0
0
VERTEX
8
0
10
126
20
146.243181398367
30
0
0
VERTEX
8
0
10
126.7
20
146.141250452963
30
0
0
VERTEX
8
0
10
127.4
20
146.039464159457
30
0
0
VERTEX
8
0
10
128.1
20
145.937830313477
30
0
0
VERTEX
8
0
10
128.8
20
145.836356702966
30
0
0
VERTEX
8
0
10
129.5
20
145.642705884817
30
0
0
VERTEX
8
0
10
130.2
20
145.448918360316
30
0
0
VERTEX
8
0
10
130.9
20
145.255000162064
30
0
0
VERTEX
8
0
10
131.6
20
145.060957320937
30
0
0
VERTEX
8
0
10
132.3
20
144.9113555049
30
0
0
VERTEX
8
0
10
133
20
144.762078602827
30
0
0
VERTEX
8
0
10
133.7
20
144.613136520134
30
0
0
VERTEX
8
0
10
134.4
20
144.464539196154
30
0
0
VERTEX
8
0
10
135.1
20
144.364333740541
30
0
0
VERTEX
8
0
10
135.8
20
144.264367225873
30
0
0
VERTEX
8
0
10
136.5
20
144.164647474288
30
0
0
VERTEX
8
0
10
137.2
20
144.065182312992
30
0
0
VERTEX
8
0
10
137.9
20
143.870398933065
30
0
0
VERTEX
8
0
10
138.6
20
143.676161501918
30
0
0
VERTEX
8
0
10
139.3
20
143.482483095519
30
0
0
VERTEX
8
0
10
140
20
143.289376886087
30
0
0
VERTEX
8
0
10
140.7
20
143.191469487676
30
0
0
VERTEX
8
0
10
141.4
20
143.09337876595
30
0
0
VERTEX
8
0
10
142.1
20
142.995108646045
30
0
0
VERTEX
8
0
10
142.8
20
142.896663035308
30
0
0
VERTEX
8
0
10
143.5
20
142.845438218315
30
0
0
VERTEX
8
0
10
144.2
20
142.793984491836
30
0
0
VERTEX
8
0
10
144.9
20
142.742305025731
30
0
0
VERTEX
8
0
10
145.6
20
142.69040296622
30
0
0
VERTEX
8
0
10
146.3
20
142.543723222747
30
0
0
VERTEX
8
0
10
147
20
142.396966916409
30
0
0
VERTEX
8
0
10
147.7
20
142.250138902956
30
0
0
VERTEX
8
0
10
148.4
20
142.103244042004
30
0
0
VERTEX
8
0
10
149.1
20
142.099934522532
30
0
0
VERTEX
8
0
10
149.8
20
142.096749020784
30
0
0
VERTEX
8
0
10
150.5
20
142.093691955018
30
0
0
VERTEX
8
0
10
151.2
20
142.090767724981
30
0
0
VERTEX
8
0
10
151.9
20
142.037684163714
30
0
0
VERTEX
8
0
10
152.6
20
141.984411611561
30
0
0
VERTEX
8
0
10
153.3
20
141.930953010309
30
0
0
VERTEX
8
0
10
154
20
141.877311284286
30
0
0
VERTEX
8
0
10
154.7
20
141.848851386744
30
0
0
VERTEX
8
0
10
155.4
20
141.820355057053
30
0
0
VERTEX
8
0
10
156.1
20
141.791825880026
30
0
0
VERTEX
8
0
10
156.8
20
141.763267427266
30
0
0
VERTEX
8
0
10
157.5
20
141.734683257566
30
0
0
VERTEX
8
0
10
158.2
20
141.706076917301
30
0
0
VERTEX
8
0
10
158.9
20
141.677451940806
30
0
0
VERTEX
8
0
10
159.6
20
141.648811850761
30
0
0
VERTEX
8
0
10
160.3
20
141.646224385
30
0
0
VERTEX
8
0
10
161
20
141.643826273825
30
0
0
VERTEX
8
0
10
161.7
20
141.641621704607
30
0
0
VERTEX
8
0
10
162.4
20
141.639614851399
30
0
0
VERTEX
8
0
10
163.1
20
141.584810104865
30
0
0
VERTEX
8
0
10
163.8
20
141.529865264185
30
0
0
VERTEX
8
0
10
164.5
20
141.47478305774
30
0
0
VERTEX
8
0
10
165.2
20
141.419566202911
30
0
0
VERTEX
8
0
10
165.9
20
141.444484600958
30
0
0
VERTEX
8
0
10
166.6
20
141.46987758511
30
0
0
VERTEX
8
0
10
167.3
20
141.495749734546
30
0
0
VERTEX
8
0
10
168.000000000001
20
141.522105604332
30
0
0
VERTEX
8
0
10
168.700000000001
20
141.640206991789
30
0
0
VERTEX
8
0
10
169.400000000001
20
141.75850149744
30
0
0
VERTEX
8
0
10
170.100000000001
20
141.876990914627
30
0
0
VERTEX
8
0
10
170.800000000001
20
141.995677012082
30
0
0
VERTEX
8
0
10
171.500000000001
20
141.996053541969
30
0
0
VERTEX
8
0
10
172.200000000001
20
141.996680843318
30
0
0
VERTEX
8
0
10
172.900000000001
20
141.997562893276
30
0
0
VERTEX
8
0
10
173.600000000001
20
141.998703658406
30
0
0
VERTEX
8
0
10
174.300000000001
20
142.118506041662
30
0
0
VERTEX
8
0
10
175.000000000001
20
142.238517955819
30
0
0
VERTEX
8
0
10
175.700000000001
20
142.358741002744
30
0
0
VERTEX
8
0
10
176.400000000001
20
142.47917676128
30
0
0
VERTEX
8
0
10
177.100000000001
20
142.510213018623
30
0
0
VERTEX
8
0
10
177.800000000001
20
142.541783564549
30
0
0
VERTEX
8
0
10
178.500000000001
20
142.573892585519
30
0
0
VERTEX
8
0
10
179.200000000001
20
142.606544243334
30
0
0
VERTEX
8
0
10
179.900000000001
20
142.64110574841
30
0
0
VERTEX
8
0
10
180.600000000001
20
142.675469929976
30
0
0
VERTEX
8
0
10
181.300000000001
20
142.709638328187
30
0
0
VERTEX
8
0
10
182.000000000001
20
142.743612470327
30
0
0
VERTEX
8
0
10
182.700000000001
20
142.777393870991
30
0
0
VERTEX
8
0
10
183.400000000001
20
142.810984032267
30
0
0
VERTEX
8
0
10
184.100000000001
20
142.84438444391
30
0
0
VERTEX
8
0
10
184.800000000001
20
142.877596583523
30
0
0
VERTEX
8
0
10
185.500000000001
20
142.969473131018
30
0
0
VERTEX
8
0
10
186.200000000001
20
143.061397288995
30
0
0
VERTEX
8
0
10
186.900000000001
20
143.153370662934
30
0
0
VERTEX
8
0
10
187.600000000001
20
143.245394843753
30
0
0
VERTEX
8
0
10
188.300000000001
20
143.277954859776
30
0
0
VERTEX
8
0
10
189.000000000001
20
143.310335692099
30
0
0
VERTEX
8
0
10
189.700000000001
20
143.342538738538
30
0
0
VERTEX
8
0
10
190.400000000001
20
143.374565386046
30
0
0
VERTEX
8
0
10
191.100000000001
20
143.318409188585
30
0
0
VERTEX
8
0
10
191.800000000001
20
143.26221720315
30
0
0
VERTEX
8
0
10
192.500000000001
20
143.205991878937
30
0
0
VERTEX
8
0
10
193.200000000001
20
143.149735664273
30
0
0
VERTEX
8
0
10
193.900000000001
20
143.120858156158
30
0
0
VERTEX
8
0
10
194.600000000001
20
143.091775803488
30
0
0
VERTEX
8
0
10
195.300000000001
20
143.062489820194
30
0
0
VERTEX
8
0
10
196.000000000001
20
143.033001410276
30
0
0
VERTEX
8
0
10
196.700000000001
20
143.063415095872
30
0
0
VERTEX
8
0
10
197.400000000001
20
143.093665852372
30
0
0
VERTEX
8
0
10
198.100000000001
20
143.123754958585
30
0
0
VERTEX
8
0
10
198.800000000001
20
143.153683684124
30
0
0
VERTEX
8
0
10
199.500000000001
20
143.035472642826
30
0
0
VERTEX
8
0
10
200.200000000001
20
142.917070387393
30
0
0
VERTEX
8
0
10
200.900000000001
20
142.798478130833
30
0
0
VERTEX
8
0
10
201.600000000001
20
142.67969707845
30
0
0
VERTEX
8
0
10
202.300000000001
20
142.708756795687
30
0
0
VERTEX
8
0
10
203.000000000001
20
142.7376637456
30
0
0
VERTEX
8
0
10
203.700000000001
20
142.766419138898
30
0
0
VERTEX
8
0
10
204.400000000001
20
142.795024178053
30
0
0
VERTEX
8
0
10
205.100000000001
20
142.762664448827
30
0
0
VERTEX
8
0
10
205.800000000001
20
142.730116795243
30
0
0
VERTEX
8
0
10
206.500000000001
20
142.69738227916
30
0
0
VERTEX
8
0
10
207.200000000001
20
142.664461954358
30
0
0
VERTEX
8
0
10
207.900000000001
20
142.692048245332
30
0
0
VERTEX
8
0
10
208.600000000001
20
142.719490726406
30
0
0
VERTEX
8
0
10
209.300000000001
20
142.746790544724
30
0
0
VERTEX
8
0
10
210.000000000001
20
142.773948840026
30
0
0
VERTEX
8
0
10
210.700000000001
20
142.770465249484
30
0
0
VERTEX
8
0
10
211.400000000001
20
142.766796225857
30
0
0
VERTEX
8
0
10
212.100000000001
20
142.762942729177
30
0
0
VERTEX
8
0
10
212.800000000001
20
142.758905711844
30
0
0
VERTEX
8
0
10
213.500000000001
20
142.754686118719
30
0
0
VERTEX
8
0
10
214.200000000001
20
142.750284887211
30
0
0
VERTEX
8
0
10
214.900000000001
20
142.745702947367
30
0
0
VERTEX
8
0
10
215.600000000001
20
142.740941221958
30
0
0
VERTEX
8
0
10
216.300000000001
20
142.766585094165
30
0
0
VERTEX
8
0
10
217.000000000001
20
142.792097936811
30
0
0
VERTEX
8
0
10
217.700000000001
20
142.817480813758
30
0
0
VERTEX
8
0
10
218.400000000001
20
142.842734782554
30
0
0
VERTEX
8
0
10
219.100000000001
20
142.929399540256
30
0
0
VERTEX
8
0
10
219.800000000001
20
143.016187427427
30
0
0
VERTEX
8
0
10
220.500000000001
20
143.103099607965
30
0
0
VERTEX
8
0
10
221.200000000001
20
143.190137235667
30
0
0
VERTEX
8
0
10
221.900000000001
20
143.21505730022
30
0
0
VERTEX
8
0
10
222.600000000001
20
143.239855196355
30
0
0
VERTEX
8
0
10
223.300000000001
20
143.264531940264
30
0
0
VERTEX
8
0
10
224.000000000001
20
143.289088542453
30
0
0
VERTEX
8
0
10
224.700000000001
20
143.313526007814
30
0
0
VERTEX
8
0
10
225.400000000001
20
143.3378453357
30
0
0
VERTEX
8
0
10
226.100000000001
20
143.362047519998
30
0
0
VERTEX
8
0
10
226.800000000001
20
143.386133549195
30
0
0
VERTEX
8
0
10
227.500000000001
20
143.472943132919
30
0
0
VERTEX
8
0
10
228.200000000001
20
143.559890435787
30
0
0
VERTEX
8
0
10
228.900000000001
20
143.646976524996
30
0
0
VERTEX
8
0
10
229.600000000001
20
143.734202458251
30
0
0
VERTEX
8
0
10
230.300000000001
20
143.758023487522
30
0
0
VERTEX
8
0
10
231.000000000001
20
143.781734704201
30
0
0
VERTEX
8
0
10
231.700000000001
20
143.805337061371
30
0
0
VERTEX
8
0
10
232.400000000001
20
143.828831507247
30
0
0
VERTEX
8
0
10
233.100000000001
20
143.916067085458
30
0
0
VERTEX
8
0
10
233.800000000001
20
144.003449352813
30
0
0
VERTEX
8
0
10
234.500000000001
20
144.090979312482
30
0
0
VERTEX
8
0
10
235.200000000001
20
144.17865795848
30
0
0
VERTEX
8
0
10
235.900000000001
20
144.318786312668
30
0
0
VERTEX
8
0
10
236.600000000001
20
144.458779678353
30
0
0
VERTEX
8
0
10
237.300000000001
20
144.598638731243
30
0
0
VERTEX
8
0
10
238.000000000001
20
144.738364141852
30
0
0
VERTEX
8
0
10
238.700000000001
20
144.793519279168
30
0
0
VERTEX
8
0
10
239.400000000002
20
144.848676821154
30
0
0
VERTEX
8
0
10
240.100000000002
20
144.903837804039
30
0
0
VERTEX
8
0
10
240.800000000002
20
144.959003258971
30
0
0
VERTEX
8
0
10
241.500000000002
20
145.046815375113
30
0
0
VERTEX
8
0
10
242.200000000002
20
145.134784677024
30
0
0
VERTEX
8
0
10
242.900000000002
20
145.222912075957
30
0
0
VERTEX
8
0
10
243.600000000002
20
145.311198474512
30
0
0
VERTEX
8
0
10
244.300000000002
20
145.333686892839
30
0
0
VERTEX
8
0
10
245.000000000002
20
145.356084375462
30
0
0
VERTEX
8
0
10
245.700000000002
20
145.378391786485
30
0
0
VERTEX
8
0
10
246.400000000002
20
145.400609986233
30
0
0
VERTEX
8
0
10
247.100000000002
20
145.57222422097
30
0
0
VERTEX
8
0
10
247.800000000002
20
145.743786575844
30
0
0
VERTEX
8
0
10
248.500000000002
20
145.915297411318
30
0
0
VERTEX
8
0
10
249.200000000002
20
146.086757084018
30
0
0
VERTEX
8
0
10
249.900000000002
20
146.108603749001
30
0
0
VERTEX
8
0
10
250.600000000002
20
146.130365906164
30
0
0
VERTEX
8
0
10
251.300000000002
20
146.15204438736
30
0
0
VERTEX
8
0
10
252.000000000002
20
146.173640021016
30
0
0
VERTEX
8
0
10
252.700000000002
20
146.262119324563
30
0
0
VERTEX
8
0
10
253.400000000002
20
146.350769507911
30
0
0
VERTEX
8
0
10
254.100000000002
20
146.439591374278
30
0
0
VERTEX
8
0
10
254.800000000002
20
146.528585718745
30
0
0
VERTEX
8
0
10
255.500000000002
20
146.550092714198
30
0
0
VERTEX
8
0
10
256.200000000002
20
146.571522247562
30
0
0
VERTEX
8
0
10
256.900000000002
20
146.592875124489
30
0
0
VERTEX
8
0
10
257.600000000002
20
146.614152147541
30
0
0
VERTEX
8
0
10
258.300000000002
20
146.703328833057
30
0
0
VERTEX
8
0
10
259.000000000002
20
146.79268355789
30
0
0
VERTEX
8
0
10
259.700000000002
20
146.882217071403
30
0
0
VERTEX
8
0
10
260.400000000002
20
146.971930114998
30
0
0
VERTEX
8
0
10
261.100000000002
20
147.074485397233
30
0
0
VERTEX
8
0
10
261.800000000002
20
147.176903297793
30
0
0
VERTEX
8
0
10
262.500000000002
20
147.279184367307
30
0
0
VERTEX
8
0
10
263.200000000002
20
147.381329152737
30
0
0
VERTEX
8
0
10
263.900000000002
20
147.470676222312
30
0
0
VERTEX
8
0
10
264.600000000002
20
147.560206461625
30
0
0
VERTEX
8
0
10
265.300000000002
20
147.649920573867
30
0
0
VERTEX
8
0
10
266.000000000002
20
147.739819254496
30
0
0
SEQEND
8
0
0
POLYLINE
8
0
62
2
70
0
10
0
20
0
30
0
0
VERTEX
8
0
10
8.4
20
66.776658447877
30
0
0
VERTEX
8
0
10
9.1
20
68.1596395801733
30
0
0
VERTEX
8
0
10
9.8
20
69.5426216377343
30
0
0
VERTEX
8
0
10
10.5
20
70.9256045664345
30
0
0
VERTEX
8
0
10
11.2
20
72.3085883162895
30
0
0
VERTEX
8
0
10
11.9
20
73.3192307798843
30
0
0
VERTEX
8
0
10
12.6
20
74.3298736403582
30
0
0
VERTEX
8
0
10
13.3
20
75.3405168817398
30
0
0
VERTEX
8
0
10
14
20
76.3511604889029
30
0
0
VERTEX
8
0
10
14.7
20
76.9894618964328
30
0
0
VERTEX
8
0
10
15.4
20
77.6277634406792
30
0
0
VERTEX
8
0
10
16.1
20
78.266065118297
30
0
0
VERTEX
8
0
10
16.8
20
78.9043669260496
30
0
0
VERTEX
8
0
10
17.5
20
79.5426688608041
30
0
0
VERTEX
8
0
10
18.2
20
80.1809709195272
30
0
0
VERTEX
8
0
10
18.9
20
80.8192730992819
30
0
0
VERTEX
8
0
10
19.6
20
81.4575753972229
30
0
0
VERTEX
8
0
10
20.3
20
82.8405641018561
30
0
0
VERTEX
8
0
10
21
20
84.2235533217902
30
0
0
VERTEX
8
0
10
21.7
20
85.6065430320509
30
0
0
VERTEX
8
0
10
22.4
20
86.989533209252
30
0
0
VERTEX
8
0
10
23.1
20
88.266139922131
30
0
0
VERTEX
8
0
10
23.8
20
89.5427469979654
30
0
0
VERTEX
8
0
10
24.5
20
90.8193544214495
30
0
0
VERTEX
8
0
10
25.2
20
92.0959621781262
30
0
0
VERTEX
8
0
10
25.9
20
93.5321462856695
30
0
0
VERTEX
8
0
10
26.6
20
94.9683307792859
30
0
0
VERTEX
8
0
10
27.3
20
96.4045156417208
30
0
0
VERTEX
8
0
10
28
20
97.8407008567328
30
0
0
VERTEX
8
0
10
28.7
20
99.064118158341
30
0
0
VERTEX
8
0
10
29.4
20
100.287535695723
30
0
0
VERTEX
8
0
10
30.1
20
101.510953460353
30
0
0
VERTEX
8
0
10
30.8
20
102.734371444114
30
0
0
VERTEX
8
0
10
31.5
20
104.066643980695
30
0
0
VERTEX
8
0
10
32.2
20
105.40057243932
30
0
0
VERTEX
8
0
10
32.9
20
106.736094735626
30
0
0
VERTEX
8
0
10
33.6
20
108.073151781712
30
0
0
VERTEX
8
0
10
34.3
20
109.471308918303
30
0
0
VERTEX
8
0
10
35
20
110.873398835942
30
0
0
VERTEX
8
0
10
35.7
20
112.279274202657
30
0
0
VERTEX
8
0
10
36.4
20
113.68879458597
30
0
0
VERTEX
8
0
10
37.1
20
114.562902429804
30
0
0
VERTEX
8
0
10
37.8
20
115.439117169412
30
0
0
VERTEX
8
0
10
38.5
20
116.317391191293
30
0
0
VERTEX
8
0
10
39.2
20
117.197678198955
30
0
0
VERTEX
8
0
10
39.9
20
117.329990185246
30
0
0
VERTEX
8
0
10
40.6
20
117.463791111546
30
0
0
VERTEX
8
0
10
41.3
20
117.599075895635
30
0
0
VERTEX
8
0
10
42
20
117.735839422416
30
0
0
VERTEX
8
0
10
42.7
20
117.874076544751
30
0
0
VERTEX
8
0
10
43.4
20
118.013782084288
30
0
0
VERTEX
8
0
10
44.1
20
118.15495083229
30
0
0
VERTEX
8
0
10
44.8
20
118.29757755046
30
0
0
VERTEX
8
0
10
45.5
20
118.123839495258
30
0
0
VERTEX
8
0
10
46.1999999999999
20
117.951764591417
30
0
0
VERTEX
8
0
10
46.8999999999999
20
117.781360128374
30
0
0
VERTEX
8
0
10
47.5999999999999
20
117.612633366843
30
0
0
VERTEX
8
0
10
48.2999999999999
20
117.445591537573
30
0
0
VERTEX
8
0
10
48.9999999999999
20
117.280241840093
30
0
0
VERTEX
8
0
10
49.6999999999999
20
117.116591441452
30
0
0
VERTEX
8
0
10
50.3999999999999
20
116.954647474953
30
0
0
VERTEX
8
0
10
51.0999999999999
20
116.636028628212
30
0
0
VERTEX
8
0
10
51.7999999999999
20
116.319285742637
30
0
0
VERTEX
8
0
10
52.4999999999999
20
116.004434184814
30
0
0
VERTEX
8
0
10
53.1999999999999
20
115.691489396352
30
0
0
VERTEX
8
0
10
53.8999999999999
20
115.365832964326
30
0
0
VERTEX
8
0
10
54.5999999999999
20
115.041345250688
30
0
0
VERTEX
8
0
10
55.2999999999999
20
114.718036172837
30
0
0
VERTEX
8
0
10
55.9999999999999
20
114.395915724058
30
0
0
VERTEX
8
0
10
56.6999999999999
20
114.038399630313
30
0
0
VERTEX
8
0
10
57.3999999999999
20
113.682944994724
30
0
0
VERTEX
8
0
10
58.0999999999999
20
113.329571214387
30
0
0
VERTEX
8
0
10
58.7999999999999
20
112.978297814816
30
0
0
VERTEX
8
0
10
59.4999999999999
20
112.768681008967
30
0
0
VERTEX
8
0
10
60.1999999999999
20
112.560207211518
30
0
0
VERTEX
8
0
10
60.8999999999999
20
112.352882785119
30
0
0
VERTEX
8
0
10
61.5999999999999
20
112.146714104259
30
0
0
VERTEX
8
0
10
62.2999999999999
20
111.856191428695
30
0
0
VERTEX
8
0
10
62.9999999999999
20
111.567778013317
30
0
0
VERTEX
8
0
10
63.6999999999999
20
111.281490258131
30
0
0
VERTEX
8
0
10
64.3999999999999
20
110.99734461084
30
0
0
VERTEX
8
0
10
65.0999999999999
20
110.976086550073
30
0
0
VERTEX
8
0
10
65.7999999999999
20
110.956558458995
30
0
0
VERTEX
8
0
10
66.4999999999999
20
110.938761251163
30
0
0
VERTEX
8
0
10
67.1999999999999
20
110.922695759723
30
0
0
VERTEX
8
0
10
67.8999999999999
20
110.90836273721
30
0
0
VERTEX
8
0
10
68.5999999999999
20
110.895762855379
30
0
0
VERTEX
8
0
10
69.2999999999999
20
110.88489670504
30
0
0
VERTEX
8
0
10
69.9999999999999
20
110.875764795926
30
0
0
VERTEX
8
0
10
70.6999999999999
20
110.971951441936
30
0
0
VERTEX
8
0
10
71.3999999999999
20
111.06968516588
30
0
0
VERTEX
8
0
10
72.0999999999999
20
111.168961887438
30
0
0
VERTEX
8
0
10
72.7999999999999
20
111.269777476546
30
0
0
VERTEX
8
0
10
73.4999999999999
20
111.346396538088
30
0
0
VERTEX
8
0
10
74.1999999999998
20
111.423877082087
30
0
0
VERTEX
8
0
10
74.8999999999998
20
111.502217312665
30
0
0
VERTEX
8
0
10
75.5999999999998
20
111.58141541909
30
0
0
VERTEX
8
0
10
76.2999999999998
20
111.404122562977
30
0
0
VERTEX
8
0
10
76.9999999999998
20
111.228098845368
30
0
0
VERTEX
8
0
10
77.6999999999998
20
111.05335030116
30
0
0
VERTEX
8
0
10
78.3999999999998
20
110.879882959437
30
0
0
VERTEX
8
0
10
79.0999999999998
20
110.5910067925
30
0
0
VERTEX
8
0
10
79.7999999999998
20
110.303272293787
30
0
0
VERTEX
8
0
10
80.4999999999998
20
110.016688420957
30
0
0
VERTEX
8
0
10
81.1999999999998
20
109.731264189241
30
0
0
VERTEX
8
0
10
81.8999999999998
20
109.461817232247
30
0
0
VERTEX
8
0
10
82.5999999999998
20
109.193907924077
30
0
0
VERTEX
8
0
10
83.2999999999998
20
108.927547610358
30
0
0
VERTEX
8
0
10
83.9999999999998
20
108.662747682041
30
0
0
VERTEX
8
0
10
84.6999999999998
20
108.383939336693
30
0
0
VERTEX
8
0
10
85.3999999999998
20
108.106348729051
30
0
0
VERTEX
8
0
10
86.0999999999998
20
107.829985263713
30
0
0
VERTEX
8
0
10
86.7999999999998
20
107.554858400149
30
0
0
VERTEX
8
0
10
87.4999999999998
20
107.230331208569
30
0
0
VERTEX
8
0
10
88.1999999999998
20
106.907174394276
30
0
0
VERTEX
8
0
10
88.8999999999998
20
106.585400421834
30
0
0
VERTEX
8
0
10
89.5999999999998
20
106.265021853114
30
0
0
VERTEX
8
0
10
90.2999999999998
20
105.844747524315
30
0
0
VERTEX
8
0
10
90.9999999999998
20
105.425079047911
30
0
0
VERTEX
8
0
10
91.6999999999998
20
105.006023687974
30
0
0
VERTEX
8
0
10
92.3999999999998
20
104.587588814303
30
0
0
VERTEX
8
0
10
93.0999999999998
20
104.270305770053
30
0
0
VERTEX
8
0
10
93.7999999999998
20
103.953496898214
30
0
0
VERTEX
8
0
10
94.4999999999998
20
103.637166547282
30
0
0
VERTEX
8
0
10
95.1999999999998
20
103.321319112403
30
0
0
VERTEX
8
0
10
95.8999999999998
20
102.905739833609
30
0
0
VERTEX
8
0
10
96.5999999999998
20
102.490822042789
30
0
0
VERTEX
8
0
10
97.2999999999998
20
102.076573806333
30
0
0
VERTEX
8
0
10
97.9999999999998
20
101.663003308982
30
0
0
VERTEX
8
0
10
98.6999999999998
20
101.331625688321
30
0
0
VERTEX
8
0
10
99.3999999999998
20
101.000561540183
30
0
0
VERTEX
8
0
10
100.1
20
100.669813957237
30
0
0
VERTEX
8
0
10
100.8
20
100.339386069955
30
0
0
VERTEX
8
0
10
101.5
20
100.059086387573
30
0
0
VERTEX
8
0
10
102.2
20
99.7790484974935
30
0
0
VERTEX
8
0
10
102.9
20
99.499274610138
30
0
0
VERTEX
8
0
10
103.6
20
99.219766958763
30
0
0
VERTEX
8
0
10
104.3
20
99.0209354395344
30
0
0
VERTEX
8
0
10
105
20
98.8221619747122
30
0
0
VERTEX
8
0
10
105.7
20
98.6234469153188
30
0
0
VERTEX
8
0
10
106.4
20
98.4247906151077
30
0
0
VERTEX
8
0
10
107.1
20
98.2453141812444
30
0
0
VERTEX
8
0
10
107.8
20
98.0659997678137
30
0
0
VERTEX
8
0
10
108.5
20
97.8868482652091
30
0
0
VERTEX
8
0
10
109.2
20
97.7078605695421
30
0
0
VERTEX
8
0
10
109.9
20
97.628110377055
30
0
0
VERTEX
8
0
10
110.6
20
97.548440012681
30
0
0
VERTEX
8
0
10
111.3
20
97.4688496721728
30
0
0
VERTEX
8
0
10
112
20
97.3893395517264
30
0
0
VERTEX
8
0
10
112.7
20
97.1914213238853
30
0
0
VERTEX
8
0
10
113.4
20
96.9935659807347
30
0
0
VERTEX
8
0
10
114.1
20
96.7957739078928
30
0
0
VERTEX
8
0
10
114.8
20
96.5980454940126
30
0
0
VERTEX
8
0
10
115.5
20
96.341074035185
30
0
0
VERTEX
8
0
10
116.2
20
96.0845932208137
30
0
0
VERTEX
8
0
10
116.9
20
95.8286069904601
30
0
0
VERTEX
8
0
10
117.6
20
95.5731193182554
30
0
0
VERTEX
8
0
10
118.3
20
95.4165372770966
30
0
0
VERTEX
8
0
10
119
20
95.2602919020561
30
0
0
VERTEX
8
0
10
119.7
20
95.104384852443
30
0
0
VERTEX
8
0
10
120.4
20
94.9488177948602
30
0
0
VERTEX
8
0
10
121.1
20
94.695498144125
30
0
0
VERTEX
8
0
10
121.8
20
94.4426973992854
30
0
0
VERTEX
8
0
10
122.5
20
94.1904197384669
30
0
0
VERTEX
8
0
10
123.2
20
93.9386693759856
30
0
0
VERTEX
8
0
10
123.9
20
93.7362984459615
30
0
0
VERTEX
8
0
10
124.6
20
93.534366925028
30
0
0
VERTEX
8
0
10
125.3
20
93.3328776652522
30
0
0
VERTEX
8
0
10
126
20
93.1318335371096
30
0
0
VERTEX
8
0
10
126.7
20
92.882575407549
30
0
0
VERTEX
8
0
10
127.4
20
92.6338683520273
30
0
0
VERTEX
8
0
10
128.1
20
92.3857168211029
30
0
0
VERTEX
8
0
10
128.8
20
92.1381253032852
30
0
0
VERTEX
8
0
10
129.5
20
91.7987531008025
30
0
0
VERTEX
8
0
10
130.2
20
91.4596375041983
30
0
0
VERTEX
8
0
10
130.9
20
91.1207813784303
30
0
0
VERTEX
8
0
10
131.6
20
90.7821876290227
30
0
0
VERTEX
8
0
10
132.3
20
90.4884188400942
30
0
0
VERTEX
8
0
10
133
20
90.1953558574124
30
0
0
VERTEX
8
0
10
133.7
20
89.9030055832725
30
0
0
VERTEX
8
0
10
134.4
20
89.6113749931465
30
0
0
VERTEX
8
0
10
135.1
20
89.3685082713687
30
0
0
VERTEX
8
0
10
135.8
20
89.1262496030415
30
0
0
VERTEX
8
0
10
136.5
20
88.8846039599895
30
0
0
VERTEX
8
0
10
137.2
20
88.6435763556012
30
0
0
VERTEX
8
0
10
137.9
20
88.3075912029851
30
0
0
VERTEX
8
0
10
138.6
20
87.9725099267888
30
0
0
VERTEX
8
0
10
139.3
20
87.6383428948059
30
0
0
VERTEX
8
0
10
140
20
87.3051006050585
30
0
0
VERTEX
8
0
10
140.7
20
87.0674070307934
30
0
0
VERTEX
8
0
10
141.4
20
86.8298774296695
30
0
0
VERTEX
8
0
10
142.1
20
86.5925131510579
30
0
0
VERTEX
8
0
10
142.8
20
86.3553155582211
30
0
0
VERTEX
8
0
10
143.5
20
86.1656784227917
30
0
0
VERTEX
8
0
10
144.2
20
85.9761495592039
30
0
0
VERTEX
8
0
10
144.9
20
85.7867296850735
30
0
0
VERTEX
8
0
10
145.6
20
85.597419523954
30
0
0
VERTEX
8
0
10
146.3
20
85.3136615917085
30
0
0
VERTEX
8
0
10
147
20
85.0301546444512
30
0
0
VERTEX
8
0
10
147.7
20
84.74690120107
30
0
0
VERTEX
8
0
10
148.4
20
84.4639038119746
30
0
0
VERTEX
8
0
10
149.1
20
84.3248123841347
30
0
0
VERTEX
8
0
10
149.8
20
84.1861633385428
30
0
0
VERTEX
8
0
10
150.5
20
84.0479588645162
30
0
0
VERTEX
8
0
10
151.2
20
83.9102011587523
30
0
0
VERTEX
8
0
10
151.9
20
83.7225958767115
30
0
0
VERTEX
8
0
10
152.6
20
83.5351112062146
30
0
0
VERTEX
8
0
10
153.3
20
83.3477479611824
30
0
0
VERTEX
8
0
10
154
20
83.1605069623409
30
0
0
VERTEX
8
0
10
154.7
20
82.9987510832182
30
0
0
VERTEX
8
0
10
155.4
20
82.8372600069575
30
0
0
VERTEX
8
0
10
156.1
20
82.6760352852768
30
0
0
VERTEX
8
0
10
156.8
20
82.5150784794525
30
0
0
VERTEX
8
0
10
157.5
20
82.3543911603616
30
0
0
VERTEX
8
0
10
158.2
20
82.1939749085254
30
0
0
VERTEX
8
0
10
158.9
20
82.0338313141508
30
0
0
VERTEX
8
0
10
159.6
20
81.8739619771732
30
0
0
VERTEX
8
0
10
160.3
20
81.7404327337457
30
0
0
VERTEX
8
0
10
161
20
81.6073784332256
30
0
0
VERTEX
8
0
10
161.7
20
81.4748014024623
30
0
0
VERTEX
8
0
10
162.4
20
81.3427039751012
30
0
0
VERTEX
8
0
10
163.1
20
81.1580887212108
30
0
0
VERTEX
8
0
10
163.8
20
80.9736116388885
30
0
0
VERTEX
8
0
10
164.5
20
80.7892736746519
30
0
0
VERTEX
8
0
10
165.2
20
80.6050757829598
30
0
0
VERTEX
8
0
10
165.9
20
80.5012861207995
30
0
0
VERTEX
8
0
10
166.6
20
80.3982422955132
30
0
0
VERTEX
8
0
10
167.3
20
80.2959471784996
30
0
0
VERTEX
8
0
10
168.000000000001
20
80.1944036348913
30
0
0
VERTEX
8
0
10
168.700000000001
20
80.1848717896593
30
0
0
VERTEX
8
0
10
169.400000000001
20
80.1757975883088
30
0
0
VERTEX
8
0
10
170.100000000001
20
80.1671811862433
30
0
0
VERTEX
8
0
10
170.800000000001
20
80.1590227310913
30
0
0
VERTEX
8
0
10
171.500000000001
20
80.0328143705029
30
0
0
VERTEX
8
0
10
172.200000000001
20
79.9071148553522
30
0
0
VERTEX
8
0
10
172.900000000001
20
79.7819265907562
30
0
0
VERTEX
8
0
10
173.600000000001
20
79.6572519871384
30
0
0
VERTEX
8
0
10
174.300000000001
20
79.6514924069881
30
0
0
VERTEX
8
0
10
175.000000000001
20
79.6461942380652
30
0
0
VERTEX
8
0
10
175.700000000001
20
79.6413575724566
30
0
0
VERTEX
8
0
10
176.400000000001
20
79.6369824942489
30
0
0
VERTEX
8
0
10
177.100000000001
20
79.5434553106961
30
0
0
VERTEX
8
0
10
177.800000000001
20
79.4507083462399
30
0
0
VERTEX
8
0
10
178.500000000001
20
79.3587443364178
30
0
0
VERTEX
8
0
10
179.200000000001
20
79.2675660063162
30
0
0
VERTEX
8
0
10
179.900000000001
20
79.1785391436543
30
0
0
VERTEX
8
0
10
180.600000000001
20
79.0895551687917
30
0
0
VERTEX
8
0
10
181.300000000001
20
79.0006142266511
30
0
0
VERTEX
8
0
10
182.000000000001
20
78.9117164627384
30
0
0
VERTEX
8
0
10
182.700000000001
20
78.8228620231449
30
0
0
VERTEX
8
0
10
183.400000000001
20
78.7340510545503
30
0
0
VERTEX
8
0
10
184.100000000001
20
78.6452837042246
30
0
0
VERTEX
8
0
10
184.800000000001
20
78.5565601200312
30
0
0
VERTEX
8
0
10
185.500000000001
20
78.5267316647258
30
0
0
VERTEX
8
0
10
186.200000000001
20
78.4971802361647
30
0
0
VERTEX
8
0
10
186.900000000001
20
78.4679061473371
30
0
0
VERTEX
8
0
10
187.600000000001
20
78.4389097087601
30
0
0
VERTEX
8
0
10
188.300000000001
20
78.3506746802885
30
0
0
VERTEX
8
0
10
189.000000000001
20
78.2624847863294
30
0
0
VERTEX
8
0
10
189.700000000001
20
78.1743401796341
30
0
0
VERTEX
8
0
10
190.400000000001
20
78.0862410135647
30
0
0
VERTEX
8
0
10
191.100000000001
20
77.9101796198238
30
0
0
VERTEX
8
0
10
191.800000000001
20
77.7343018443245
30
0
0
VERTEX
8
0
10
192.500000000001
20
77.5586089362265
30
0
0
VERTEX
8
0
10
193.200000000001
20
77.3831021547154
30
0
0
VERTEX
8
0
10
193.900000000001
20
77.2351899184138
30
0
0
VERTEX
8
0
10
194.600000000001
20
77.0872875084671
30
0
0
VERTEX
8
0
10
195.300000000001
20
76.9393949815439
30
0
0
VERTEX
8
0
10
196.000000000001
20
76.791512394745
30
0
0
VERTEX
8
0
10
196.700000000001
20
76.7037431335409
30
0
0
VERTEX
8
0
10
197.400000000001
20
76.616021046755
30
0
0
VERTEX
8
0
10
198.100000000001
20
76.5283462966111
30
0
0
VERTEX
8
0
10
198.800000000001
20
76.4407190459897
30
0
0
VERTEX
8
0
10
199.500000000001
20
76.2051588117322
30
0
0
VERTEX
8
0
10
200.200000000001
20
75.969613059157
30
0
0
VERTEX
8
0
10
200.900000000001
20
75.7340819233854
30
0
0
VERTEX
8
0
10
201.600000000001
20
75.4985655412164
30
0
0
VERTEX
8
0
10
202.300000000001
20
75.4110924188558
30
0
0
VERTEX
8
0
10
203.000000000001
20
75.3236679692757
30
0
0
VERTEX
8
0
10
203.700000000001
20
75.2362923621494
30
0
0
VERTEX
8
0
10
204.400000000001
20
75.1489657678442
30
0
0
VERTEX
8
0
10
205.100000000001
20
75.0008727488511
30
0
0
VERTEX
8
0
10
205.800000000001
20
74.8527891346435
30
0
0
VERTEX
8
0
10
206.500000000001
20
74.7047149811495
30
0
0
VERTEX
8
0
10
207.200000000001
20
74.5566503447377
30
0
0
VERTEX
8
0
10
207.900000000001
20
74.4692866609086
30
0
0
VERTEX
8
0
10
208.600000000001
20
74.3819725233092
30
0
0
VERTEX
8
0
10
209.300000000001
20
74.2947081066258
30
0
0
VERTEX
8
0
10
210.000000000001
20
74.2074935862665
30
0
0
VERTEX
8
0
10
210.700000000001
20
74.0898276431007
30
0
0
VERTEX
8
0
10
211.400000000001
20
73.9721657815208
30
0
0
VERTEX
8
0
10
212.100000000001
20
73.8545080210345
30
0
0
VERTEX
8
0
10
212.800000000001
20
73.7368543812733
30
0
0
VERTEX
8
0
10
213.500000000001
20
73.619204881994
30
0
0
VERTEX
8
0
10
214.200000000001
20
73.5015595430785
30
0
0
VERTEX
8
0
10
214.900000000001
20
73.3839183845361
30
0
0
VERTEX
8
0
10
215.600000000001
20
73.2662814265035
30
0
0
VERTEX
8
0
10
216.300000000001
20
73.1792331568499
30
0
0
VERTEX
8
0
10
217.000000000001
20
73.0922360603248
30
0
0
VERTEX
8
0
10
217.700000000001
20
73.0052903198703
30
0
0
VERTEX
8
0
10
218.400000000001
20
72.9183961191927
30
0
0
VERTEX
8
0
10
219.100000000001
20
72.8930922885031
30
0
0
VERTEX
8
0
10
219.800000000001
20
72.8680903084352
30
0
0
VERTEX
8
0
10
220.500000000001
20
72.8433904898009
30
0
0
VERTEX
8
0
10
221.200000000001
20
72.8189931400749
30
0
0
VERTEX
8
0
10
221.900000000001
20
72.7326544093127
30
0
0
VERTEX
8
0
10
222.600000000001
20
72.6463688592308
30
0
0
VERTEX
8
0
10
223.300000000001
20
72.56013667955
30
0
0
VERTEX
8
0
10
224.000000000001
20
72.4739580607766
30
0
0
VERTEX
8
0
10
224.700000000001
20
72.3878331942053
30
0
0
VERTEX
8
0
10
225.400000000001
20
72.3017622719227
30
0
0
VERTEX
8
0
10
226.100000000001
20
72.2157454868108
30
0
0
VERTEX
8
0
10
226.800000000001
20
72.1297830325496
30
0
0
VERTEX
8
0
10
227.500000000001
20
72.1067138300863
30
0
0
VERTEX
8
0
10
228.200000000001
20
72.0839512614182
30
0
0
VERTEX
8
0
10
228.900000000001
20
72.0614956171214
30
0
0
VERTEX
8
0
10
229.600000000001
20
72.0393471842132
30
0
0
VERTEX
8
0
10
230.300000000001
20
71.9539604498441
30
0
0
VERTEX
8
0
10
231.000000000001
20
71.8686297463958
30
0
0
VERTEX
8
0
10
231.700000000001
20
71.7833552736844
30
0
0
VERTEX
8
0
10
232.400000000001
20
71.6981372323446
30
0
0
VERTEX
8
0
10
233.100000000001
20
71.6768239240501
30
0
0
VERTEX
8
0
10
233.800000000001
20
71.655820169221
30
0
0
VERTEX
8
0
10
234.500000000001
20
71.6351262401451
30
0
0
VERTEX
8
0
10
235.200000000001
20
71.6147424054057
30
0
0
VERTEX
8
0
10
235.900000000001
20
71.6469689668276
30
0
0
VERTEX
8
0
10
236.600000000001
20
71.6792205130164
30
0
0
VERTEX
8
0
10
237.300000000001
20
71.7114970102625
30
0
0
VERTEX
8
0
10
238.000000000001
20
71.7437984248903
30
0
0
VERTEX
8
0
10
238.700000000001
20
71.6916874268715
30
0
0
VERTEX
8
0
10
239.400000000002
20
71.6397360002747
30
0
0
VERTEX
8
0
10
240.100000000002
20
71.587944492503
30
0
0
VERTEX
8
0
10
240.800000000002
20
71.5363132508948
30
0
0
VERTEX
8
0
10
241.500000000002
20
71.5174837857698
30
0
0
VERTEX
8
0
10
242.200000000002
20
71.4989659477592
30
0
0
VERTEX
8
0
10
242.900000000002
20
71.4807599790541
30
0
0
VERTEX
8
0
10
243.600000000002
20
71.462866118011
30
0
0
VERTEX
8
0
10
244.300000000002
20
71.379326725302
30
0
0
VERTEX
8
0
10
245.000000000002
20
71.2958481906959
30
0
0
VERTEX
8
0
10
245.700000000002
20
71.2124307282145
30
0
0
VERTEX
8
0
10
246.400000000002
20
71.129074552727
30
0
0
VERTEX
8
0
10
247.100000000002
20
71.1952642696249
30
0
0
VERTEX
8
0
10
247.800000000002
20
71.2615513277157
30
0
0
VERTEX
8
0
10
248.500000000002
20
71.327935455614
30
0
0
VERTEX
8
0
10
249.200000000002
20
71.3944163825469
30
0
0
VERTEX
8
0
10
249.900000000002
20
71.3114316405702
30
0
0
VERTEX
8
0
10
250.600000000002
20
71.228509110943
30
0
0
VERTEX
8
0
10
251.300000000002
20
71.1456490111962
30
0
0
VERTEX
8
0
10
252.000000000002
20
71.0628515597116
30
0
0
VERTEX
8
0
10
252.700000000002
20
71.0470826681045
30
0
0
VERTEX
8
0
10
253.400000000002
20
71.0316289446654
30
0
0
VERTEX
8
0
10
254.100000000002
20
71.0164905951435
30
0
0
VERTEX
8
0
10
254.800000000002
20
71.0016678212624
30
0
0
VERTEX
8
0
10
255.500000000002
20
70.9195002066246
30
0
0
VERTEX
8
0
10
256.200000000002
20
70.8373970529033
30
0
0
VERTEX
8
0
10
256.900000000002
20
70.7553585844956
30
0
0
VERTEX
8
0
10
257.600000000002
20
70.6733850266641
30
0
0
VERTEX
8
0
10
258.300000000002
20
70.6594513223665
30
0
0
VERTEX
8
0
10
259.000000000002
20
70.6458352789599
30
0
0
VERTEX
8
0
10
259.700000000002
20
70.6325370801539
30
0
0
VERTEX
8
0
10
260.400000000002
20
70.619556905506
30
0
0
VERTEX
8
0
10
261.100000000002
20
70.619556905506
30
0
0
VERTEX
8
0
10
261.800000000002
20
70.619556905506
30
0
0
VERTEX
8
0
10
262.500000000002
20
70.619556905506
30
0
0
VERTEX
8
0
10
263.200000000002
20
70.619556905506
30
0
0
VERTEX
8
0
10
263.900000000002
20
70.6068949304103
30
0
0
VERTEX
8
0
10
264.600000000002
20
70.5945513260855
30
0
0
VERTEX
8
0
10
265.300000000002
20
70.5825262595634
30
0
0
VERTEX
8
0
10
266.000000000002
20
70.5708198936778
30
0
0
SEQEND
8
0
0
POLYLINE
8
0
62
4
70
0
10
0
20
0
30
0
0
VERTEX
8
0
10
8.4
20
0
30
0
0
VERTEX
8
0
10
9.1
20
0
30
0
0
VERTEX
8
0
10
9.8
20
0
30
0
0
VERTEX
8
0
10
10.5
20
0
30
0
0
VERTEX
8
0
10
11.2
20
0
30
0
0
VERTEX
8
0
10
11.9
20
0
30
0
0
VERTEX
8
0
10
12.6
20
0
30
0
0
VERTEX
8
0
10
13.3
20
0
30
0
0
VERTEX
8
0
10
14
20
0
30
0
0
VERTEX
8
0
10
14.7
20
0
30
0
0
VERTEX
8
0
10
15.4
20
0
30
0
0
VERTEX
8
0
10
16.1
20
0
30
0
0
VERTEX
8
0
10
16.8
20
0
30
0
0
VERTEX
8
0
10
17.5
20
0
30
0
0
VERTEX
8
0
10
18.2
20
0
30
0
0
VERTEX
8
0
10
18.9
20
0
30
0
0
VERTEX
8
0
10
19.6
20
0
30
0
0
VERTEX
8
0
10
20.3
20
0
30
0
0
VERTEX
8
0
10
21
20
0
30
0
0
VERTEX
8
0
10
21.7
20
0
30
0
0
VERTEX
8
0
10
22.4
20
0
30
0
0
VERTEX
8
0
10
23.1
20
0
30
0
0
VERTEX
8
0
10
23.8
20
0
30
0
0
VERTEX
8
0
10
24.5
20
0
30
0
0
VERTEX
8
0
10
25.2
20
0
30
0
0
VERTEX
8
0
10
25.9
20
0
30
0
0
VERTEX
8
0
10
26.6
20
0
30
0
0
VERTEX
8
0
10
27.3
20
0
30
0
0
VERTEX
8
0
10
28
20
0
30
0
0
VERTEX
8
0
10
28.7
20
0
30
0
0
VERTEX
8
0
10
29.4
20
0
30
0
0
VERTEX
8
0
10
30.1
20
0
30
0
0
VERTEX
8
0
10
30.8
20
0
30
0
0
VERTEX
8
0
10
31.5
20
0
30
0
0
VERTEX
8
0
10
32.2
20
0
30
0
0
VERTEX
8
0
10
32.9
20
0
30
0
0
VERTEX
8
0
10
33.6
20
0
30
0
0
VERTEX
8
0
10
34.3
20
0
30
0
0
VERTEX
8
0
10
35
20
0
30
0
0
VERTEX
8
0
10
35.7
20
0
30
0
0
VERTEX
8
0
10
36.4
20
0
30
0
0
VERTEX
8
0
10
37.1
20
0
30
0
0
VERTEX
8
0
10
37.8
20
0
30
0
0
VERTEX
8
0
10
38.5
20
0
30
0
0
VERTEX
8
0
10
39.2
20
0
30
0
0
VERTEX
8
0
10
39.9
20
0
30
0
0
VERTEX
8
0
10
40.6
20
0
30
0
0
VERTEX
8
0
10
41.3
20
0
30
0
0
VERTEX
8
0
10
42
20
0
30
0
0
VERTEX
8
0
10
42.7
20
0
30
0
0
VERTEX
8
0
10
43.4
20
0
30
0
0
VERTEX
8
0
10
44.1
20
0
30
0
0
VERTEX
8
0
10
44.8
20
0
30
0
0
VERTEX
8
0
10
45.5
20
0
30
0
0
VERTEX
8
0
10
46.1999999999999
20
0
30
0
0
VERTEX
8
0
10
46.8999999999999
20
0
30
0
0
VERTEX
8
0
10
47.5999999999999
20
0
30
0
0
VERTEX
8
0
10
48.2999999999999
20
0
30
0
0
VERTEX
8
0
10
48.9999999999999
20
0
30
0
0
VERTEX
8
0
10
49.6999999999999
20
0
30
0
0
VERTEX
8
0
10
50.3999999999999
20
0
30
0
0
VERTEX
8
0
10
51.0999999999999
20
0
30
0
0
VERTEX
8
0
10
51.7999999999999
20
0
30
0
0
VERTEX
8
0
10
52.4999999999999
20
0
30
0
0
VERTEX
8
0
10
53.1999999999999
20
0
30
0
0
VERTEX
8
0
10
53.8999999999999
20
0
30
0
0
VERTEX
8
0
10
54.5999999999999
20
0
30
0
0
VERTEX
8
0
10
55.2999999999999
20
0
30
0
0
VERTEX
8
0
10
55.9999999999999
20
0
30
0
0
VERTEX
8
0
10
56.6999999999999
20
0
30
0
0
VERTEX
8
0
10
57.3999999999999
20
0
30
0
0
VERTEX
8
0
10
58.0999999999999
20
0
30
0
0
VERTEX
8
0
10
58.7999999999999
20
0
30
0
0
VERTEX
8
0
10
59.4999999999999
20
0
30
0
0
VERTEX
8
0
10
60.1999999999999
20
0
30
0
0
VERTEX
8
0
10
60.8999999999999
20
0
30
0
0
VERTEX
8
0
10
61.5999999999999
20
0
30
0
0
VERTEX
8
0
10
62.2999999999999
20
0
30
0
0
VERTEX
8
0
10
62.9999999999999
20
0
30
0
0
VERTEX
8
0
10
63.6999999999999
20
0
30
0
0
VERTEX
8
0
10
64.3999999999999
20
0
30
0
0
VERTEX
8
0
10
65.0999999999999
20
0
30
0
0
VERTEX
8
0
10
65.7999999999999
20
0
30
0
0
VERTEX
8
0
10
66.4999999999999
20
0
30
0
0
VERTEX
8
0
10
67.1999999999999
20
0
30
0
0
VERTEX
8
0
10
67.8999999999999
20
0
30
0
0
VERTEX
8
0
10
68.5999999999999
20
0
30
0
0
VERTEX
8
0
10
69.2999999999999
20
0
30
0
0
VERTEX
8
0
10
69.9999999999999
20
0
30
0
0
VERTEX
8
0
10
70.6999999999999
20
0
30
0
0
VERTEX
8
0
10
71.3999999999999
20
0
30
0
0
VERTEX
8
0
10
72.0999999999999
20
0
30
0
0
VERTEX
8
0
10
72.7999999999999
20
0
30
0
0
VERTEX
8
0
10
73.4999999999999
20
0
30
0
0
VERTEX
8
0
10
74.1999999999998
20
0
30
0
0
VERTEX
8
0
10
74.8999999999998
20
0
30
0
0
VERTEX
8
0
10
75.5999999999998
20
0
30
0
0
VERTEX
8
0
10
76.2999999999998
20
0
30
0
0
VERTEX
8
0
10
76.9999999999998
20
0
30
0
0
VERTEX
8
0
10
77.6999999999998
20
0
30
0
0
VERTEX
8
0
10
78.3999999999998
20
0
30
0
0
VERTEX
8
0
10
79.0999999999998
20
0
30
0
0
VERTEX
8
0
10
79.7999999999998
20
0
30
0
0
VERTEX
8
0
10
80.4999999999998
20
0
30
0
0
VERTEX
8
0
10
81.1999999999998
20
0
30
0
0
VERTEX
8
0
10
81.8999999999998
20
0
30
0
0
VERTEX
8
0
10
82.5999999999998
20
0
30
0
0
VERTEX
8
0
10
83.2999999999998
20
0
30
0
0
VERTEX
8
0
10
83.9999999999998
20
0
30
0
0
VERTEX
8
0
10
84.6999999999998
20
0
30
0
0
VERTEX
8
0
10
85.3999999999998
20
0
30
0
0
VERTEX
8
0
10
86.0999999999998
20
0
30
0
0
VERTEX
8
0
10
86.7999999999998
20
0
30
0
0
VERTEX
8
0
10
87.4999999999998
20
0
30
0
0
VERTEX
8
0
10
88.1999999999998
20
0
30
0
0
VERTEX
8
0
10
88.8999999999998
20
0
30
0
0
VERTEX
8
0
10
89.5999999999998
20
0
30
0
0
VERTEX
8
0
10
90.2999999999998
20
0
30
0
0
VERTEX
8
0
10
90.9999999999998
20
0
30
0
0
VERTEX
8
0
10
91.6999999999998
20
0
30
0
0
VERTEX
8
0
10
92.3999999999998
20
0
30
0
0
VERTEX
8
0
10
93.0999999999998
20
0
30
0
0
VERTEX
8
0
10
93.7999999999998
20
0
30
0
0
VERTEX
8
0
10
94.4999999999998
20
0
30
0
0
VERTEX
8
0
10
95.1999999999998
20
0
30
0
0
VERTEX
8
0
10
95.8999999999998
20
0
30
0
0
VERTEX
8
0
10
96.5999999999998
20
0
30
0
0
VERTEX
8
0
10
97.2999999999998
20
0
30
0
0
VERTEX
8
0
10
97.9999999999998
20
0
30
0
0
VERTEX
8
0
10
98.6999999999998
20
0
30
0
0
VERTEX
8
0
10
99.3999999999998
20
0
30
0
0
VERTEX
8
0
10
100.1
20
0
30
0
0
VERTEX
8
0
10
100.8
20
0
30
0
0
VERTEX
8
0
10
101.5
20
0
30
0
0
VERTEX
8
0
10
102.2
20
0
30
0
0
VERTEX
8
0
10
102.9
20
0
30
0
0
VERTEX
8
0
10
103.6
20
0
30
0
0
VERTEX
8
0
10
104.3
20
0
30
0
0
VERTEX
8
0
10
105
20
0
30
0
0
VERTEX
8
0
10
105.7
20
0
30
0
0
VERTEX
8
0
10
106.4
20
0
30
0
0
VERTEX
8
0
10
107.1
20
0
30
0
0
VERTEX
8
0
10
107.8
20
0
30
0
0
VERTEX
8
0
10
108.5
20
0
30
0
0
VERTEX
8
0
10
109.2
20
0
30
0
0
VERTEX
8
0
10
109.9
20
0
30
0
0
VERTEX
8
0
10
110.6
20
0
30
0
0
VERTEX
8
0
10
111.3
20
0
30
0
0
VERTEX
8
0
10
112
20
0
30
0
0
VERTEX
8
0
10
112.7
20
0
30
0
0
VERTEX
8
0
10
113.4
20
0
30
0
0
VERTEX
8
0
10
114.1
20
0
30
0
0
VERTEX
8
0
10
114.8
20
0
30
0
0
VERTEX
8
0
10
115.5
20
0
30
0
0
VERTEX
8
0
10
116.2
20
0
30
0
0
VERTEX
8
0
10
116.9
20
0
30
0
0
VERTEX
8
0
10
117.6
20
0
30
0
0
VERTEX
8
0
10
118.3
20
0
30
0
0
VERTEX
8
0
10
119
20
0
30
0
0
VERTEX
8
0
10
119.7
20
0
30
0
0
VERTEX
8
0
10
120.4
20
0
30
0
0
VERTEX
8
0
10
121.1
20
0
30
0
0
VERTEX
8
0
10
121.8
20
0
30
0
0
VERTEX
8
0
10
122.5
20
0
30
0
0
VERTEX
8
0
10
123.2
20
0
30
0
0
VERTEX
8
0
10
123.9
20
0
30
0
0
VERTEX
8
0
10
124.6
20
0
30
0
0
VERTEX
8
0
10
125.3
20
0
30
0
0
VERTEX
8
0
10
126
20
0
30
0
0
VERTEX
8
0
10
126.7
20
0
30
0
0
VERTEX
8
0
10
127.4
20
0
30
0
0
VERTEX
8
0
10
128.1
20
0
30
0
0
VERTEX
8
0
10
128.8
20
0
30
0
0
VERTEX
8
0
10
129.5
20
0
30
0
0
VERTEX
8
0
10
130.2
20
0
30
0
0
VERTEX
8
0
10
130.9
20
0
30
0
0
VERTEX
8
0
10
131.6
20
0
30
0
0
VERTEX
8
0
10
132.3
20
0
30
0
0
VERTEX
8
0
10
133
20
0
30
0
0
VERTEX
8
0
10
133.7
20
0
30
0
0
VERTEX
8
0
10
134.4
20
0
30
0
0
VERTEX
8
0
10
135.1
20
0
30
0
0
VERTEX
8
0
10
135.8
20
0
30
0
0
VERTEX
8
0
10
136.5
20
0
30
0
0
VERTEX
8
0
10
137.2
20
0
30
0
0
VERTEX
8
0
10
137.9
20
0
30
0
0
VERTEX
8
0
10
138.6
20
0
30
0
0
VERTEX
8
0
10
139.3
20
0
30
0
0
VERTEX
8
0
10
140
20
0
30
0
0
VERTEX
8
0
10
140.7
20
0
30
0
0
VERTEX
8
0
10
141.4
20
0
30
0
0
VERTEX
8
0
10
142.1
20
0
30
0
0
VERTEX
8
0
10
142.8
20
0
30
0
0
VERTEX
8
0
10
143.5
20
0
30
0
0
VERTEX
8
0
10
144.2
20
0
30
0
0
VERTEX
8
0
10
144.9
20
0
30
0
0
VERTEX
8
0
10
145.6
20
0
30
0
0
VERTEX
8
0
10
146.3
20
0
30
0
0
VERTEX
8
0
10
147
20
0
30
0
0
VERTEX
8
0
10
147.7
20
0
30
0
0
VERTEX
8
0
10
148.4
20
0
30
0
0
VERTEX
8
0
10
149.1
20
0
30
0
0
VERTEX
8
0
10
149.8
20
0
30
0
0
VERTEX
8
0
10
150.5
20
0
30
0
0
VERTEX
8
0
10
151.2
20
0
30
0
0
VERTEX
8
0
10
151.9
20
0
30
0
0
VERTEX
8
0
10
152.6
20
0
30
0
0
VERTEX
8
0
10
153.3
20
0
30
0
0
VERTEX
8
0
10
154
20
0
30
0
0
VERTEX
8
0
10
154.7
20
0
30
0
0
VERTEX
8
0
10
155.4
20
0
30
0
0
VERTEX
8
0
10
156.1
20
0
30
0
0
VERTEX
8
0
10
156.8
20
0
30
0
0
VERTEX
8
0
10
157.5
20
0
30
0
0
VERTEX
8
0
10
158.2
20
0
30
0
0
VERTEX
8
0
10
158.9
20
0
30
0
0
VERTEX
8
0
10
159.6
20
0
30
0
0
VERTEX
8
0
10
160.3
20
0
30
0
0
VERTEX
8
0
10
161
20
0
30
0
0
VERTEX
8
0
10
161.7
20
0
30
0
0
VERTEX
8
0
10
162.4
20
0
30
0
0
VERTEX
8
0
10
163.1
20
0
30
0
0
VERTEX
8
0
10
163.8
20
0
30
0
0
VERTEX
8
0
10
164.5
20
0
30
0
0
VERTEX
8
0
10
165.2
20
0
30
0
0
VERTEX
8
0
10
165.9
20
0
30
0
0
VERTEX
8
0
10
166.6
20
0
30
0
0
VERTEX
8
0
10
167.3
20
0
30
0
0
VERTEX
8
0
10
168.000000000001
20
0
30
0
0
VERTEX
8
0
10
168.700000000001
20
0
30
0
0
VERTEX
8
0
10
169.400000000001
20
0
30
0
0
VERTEX
8
0
10
170.100000000001
20
0
30
0
0
VERTEX
8
0
10
170.800000000001
20
0
30
0
0
VERTEX
8
0
10
171.500000000001
20
0
30
0
0
VERTEX
8
0
10
172.200000000001
20
0
30
0
0
VERTEX
8
0
10
172.900000000001
20
0
30
0
0
VERTEX
8
0
10
173.600000000001
20
0
30
0
0
VERTEX
8
0
10
174.300000000001
20
0
30
0
0
VERTEX
8
0
10
175.000000000001
20
0
30
0
0
VERTEX
8
0
10
175.700000000001
20
0
30
0
0
VERTEX
8
0
10
176.400000000001
20
0
30
0
0
VERTEX
8
0
10
177.100000000001
20
0
30
0
0
VERTEX
8
0
10
177.800000000001
20
0
30
0
0
VERTEX
8
0
10
178.500000000001
20
0
30
0
0
VERTEX
8
0
10
179.200000000001
20
0
30
0
0
VERTEX
8
0
10
179.900000000001
20
0
30
0
0
VERTEX
8
0
10
180.600000000001
20
0
30
0
0
VERTEX
8
0
10
181.300000000001
20
0
30
0
0
VERTEX
8
0
10
182.000000000001
20
0
30
0
0
VERTEX
8
0
10
182.700000000001
20
0
30
0
0
VERTEX
8
0
10
183.400000000001
20
0
30
0
0
VERTEX
8
0
10
184.100000000001
20
0
30
0
0
VERTEX
8
0
10
184.800000000001
20
0
30
0
0
VERTEX
8
0
10
185.500000000001
20
0
30
0
0
VERTEX
8
0
10
186.200000000001
20
0
30
0
0
VERTEX
8
0
10
186.900000000001
20
0
30
0
0
VERTEX
8
0
10
187.600000000001
20
0
30
0
0
VERTEX
8
0
10
188.300000000001
20
0
30
0
0
VERTEX
8
0
10
189.000000000001
20
0
30
0
0
VERTEX
8
0
10
189.700000000001
20
0
30
0
0
VERTEX
8
0
10
190.400000000001
20
0
30
0
0
VERTEX
8
0
10
191.100000000001
20
0
30
0
0
VERTEX
8
0
10
191.800000000001
20
0
30
0
0
VERTEX
8
0
10
192.500000000001
20
0
30
0
0
VERTEX
8
0
10
193.200000000001
20
0
30
0
0
VERTEX
8
0
10
193.900000000001
20
0
30
0
0
VERTEX
8
0
10
194.600000000001
20
0
30
0
0
VERTEX
8
0
10
195.300000000001
20
0
30
0
0
VERTEX
8
0
10
196.000000000001
20
0
30
0
0
VERTEX
8
0
10
196.700000000001
20
0
30
0
0
VERTEX
8
0
10
197.400000000001
20
0
30
0
0
VERTEX
8
0
10
198.100000000001
20
0
30
0
0
VERTEX
8
0
10
198.800000000001
20
0
30
0
0
VERTEX
8
0
10
199.500000000001
20
0
30
0
0
VERTEX
8
0
10
200.200000000001
20
0
30
0
0
VERTEX
8
0
10
200.900000000001
20
0
30
0
0
VERTEX
8
0
10
201.600000000001
20
0
30
0
0
VERTEX
8
0
10
202.300000000001
20
0
30
0
0
VERTEX
8
0
10
203.000000000001
20
0
30
0
0
VERTEX
8
0
10
203.700000000001
20
0
30
0
0
VERTEX
8
0
10
204.400000000001
20
0
30
0
0
VERTEX
8
0
10
205.100000000001
20
0
30
0
0
VERTEX
8
0
10
205.800000000001
20
0
30
0
0
VERTEX
8
0
10
206.500000000001
20
0
30
0
0
VERTEX
8
0
10
207.200000000001
20
0
30
0
0
VERTEX
8
0
10
207.900000000001
20
0
30
0
0
VERTEX
8
0
10
208.600000000001
20
0
30
0
0
VERTEX
8
0
10
209.300000000001
20
0
30
0
0
VERTEX
8
0
10
210.000000000001
20
0
30
0
0
VERTEX
8
0
10
210.700000000001
20
0
30
0
0
VERTEX
8
0
10
211.400000000001
20
0
30
0
0
VERTEX
8
0
10
212.100000000001
20
0
30
0
0
VERTEX
8
0
10
212.800000000001
20
0
30
0
0
VERTEX
8
0
10
213.500000000001
20
0
30
0
0
VERTEX
8
0
10
214.200000000001
20
0
30
0
0
VERTEX
8
0
10
214.900000000001
20
0
30
0
0
VERTEX
8
0
10
215.600000000001
20
0
30
0
0
VERTEX
8
0
10
216.300000000001
20
0
30
0
0
VERTEX
8
0
10
217.000000000001
20
0
30
0
0
VERTEX
8
0
10
217.700000000001
20
0
30
0
0
VERTEX
8
0
10
218.400000000001
20
0
30
0
0
VERTEX
8
0
10
219.100000000001
20
0
30
0
0
VERTEX
8
0
10
219.800000000001
20
0
30
0
0
VERTEX
8
0
10
220.500000000001
20
0
30
0
0
VERTEX
8
0
10
221.200000000001
20
0
30
0
0
VERTEX
8
0
10
221.900000000001
20
0
30
0
0
VERTEX
8
0
10
222.600000000001
20
0
30
0
0
VERTEX
8
0
10
223.300000000001
20
0
30
0
0
VERTEX
8
0
10
224.000000000001
20
0
30
0
0
VERTEX
8
0
10
224.700000000001
20
0
30
0
0
VERTEX
8
0
10
225.400000000001
20
0
30
0
0
VERTEX
8
0
10
226.100000000001
20
0
30
0
0
VERTEX
8
0
10
226.800000000001
20
0
30
0
0
VERTEX
8
0
10
227.500000000001
20
0
30
0
0
VERTEX
8
0
10
228.200000000001
20
0
30
0
0
VERTEX
8
0
10
228.900000000001
20
0
30
0
0
VERTEX
8
0
10
229.600000000001
20
0
30
0
0
VERTEX
8
0
10
230.300000000001
20
0
30
0
0
VERTEX
8
0
10
231.000000000001
20
0
30
0
0
VERTEX
8
0
10
231.700000000001
20
0
30
0
0
VERTEX
8
0
10
232.400000000001
20
0
30
0
0
VERTEX
8
0
10
233.100000000001
20
0
30
0
0
VERTEX
8
0
10
233.800000000001
20
0
30
0
0
VERTEX
8
0
10
234.500000000001
20
0
30
0
0
VERTEX
8
0
10
235.200000000001
20
0
30
0
0
VERTEX
8
0
10
235.900000000001
20
0
30
0
0
VERTEX
8
0
10
236.600000000001
20
0
30
0
0
VERTEX
8
0
10
237.300000000001
20
0
30
0
0
VERTEX
8
0
10
238.000000000001
20
0
30
0
0
VERTEX
8
0
10
238.700000000001
20
0
30
0
0
VERTEX
8
0
10
239.400000000002
20
0
30
0
0
VERTEX
8
0
10
240.100000000002
20
0
30
0
0
VERTEX
8
0
10
240.800000000002
20
0
30
0
0
VERTEX
8
0
10
241.500000000002
20
0
30
0
0
VERTEX
8
0
10
242.200000000002
20
0
30
0
0
VERTEX
8
0
10
242.900000000002
20
0
30
0
0
VERTEX
8
0
10
243.600000000002
20
0
30
0
0
VERTEX
8
0
10
244.300000000002
20
0
30
0
0
VERTEX
8
0
10
245.000000000002
20
0
30
0
0
VERTEX
8
0
10
245.700000000002
20
0
30
0
0
VERTEX
8
0
10
246.400000000002
20
0
30
0
0
VERTEX
8
0
10
247.100000000002
20
0
30
0
0
VERTEX
8
0
10
247.800000000002
20
0
30
0
0
VERTEX
8
0
10
248.500000000002
20
0
30
0
0
VERTEX
8
0
10
249.200000000002
20
0
30
0
0
VERTEX
8
0
10
249.900000000002
20
0
30
0
0
VERTEX
8
0
10
250.600000000002
20
0
30
0
0
VERTEX
8
0
10
251.300000000002
20
0
30
0
0
VERTEX
8
0
10
252.000000000002
20
0
30
0
0
VERTEX
8
0
10
252.700000000002
20
0
30
0
0
VERTEX
8
0
10
253.400000000002
20
0
30
0
0
VERTEX
8
0
10
254.100000000002
20
0
30
0
0
VERTEX
8
0
10
254.800000000002
20
0
30
0
0
VERTEX
8
0
10
255.500000000002
20
0
30
0
0
VERTEX
8
0
10
256.200000000002
20
0
30
0
0
VERTEX
8
0
10
256.900000000002
20
0
30
0
0
VERTEX
8
0
10
257.600000000002
20
0
30
0
0
VERTEX
8
0
10
258.300000000002
20
0
30
0
0
VERTEX
8
0
10
259.000000000002
20
0
30
0
0
VERTEX
8
0
10
259.700000000002
20
0
30
0
0
VERTEX
8
0
10
260.400000000002
20
0
30
0
0
VERTEX
8
0
10
261.100000000002
20
0
30
0
0
VERTEX
8
0
10
261.800000000002
20
0
30
0
0
VERTEX
8
0
10
262.500000000002
20
0
30
0
0
VERTEX
8
0
10
263.200000000002
20
0
30
0
0
VERTEX
8
0
10
263.900000000002
20
0
30
0
0
VERTEX
8
0
10
264.600000000002
20
0
30
0
0
VERTEX
8
0
10
265.300000000002
20
0
30
0
0
VERTEX
8
0
10
266.000000000002
20
0
30
0
0
SEQEND
8
0
0
POLYLINE
8
0
62
9
70
0
10
0
20
0
30
0
0
VERTEX
8
0
10
8.4
20
80.4899494986288
30
0
0
VERTEX
8
0
10
9.1
20
82.4328854407399
30
0
0
VERTEX
8
0
10
9.8
20
84.3546688746875
30
0
0
VERTEX
8
0
10
10.5
20
86.2575300587948
30
0
0
VERTEX
8
0
10
11.2
20
88.143332875544
30
0
0
VERTEX
8
0
10
11.9
20
89.6413118730045
30
0
0
VERTEX
8
0
10
12.6
20
91.1251565246667
30
0
0
VERTEX
8
0
10
13.3
20
92.5960297143825
30
0
0
VERTEX
8
0
10
14
20
94.0549431093219
30
0
0
VERTEX
8
0
10
14.7
20
95.1304407847013
30
0
0
VERTEX
8
0
10
15.4
20
96.1956472990556
30
0
0
VERTEX
8
0
10
16.1
20
97.2512568985164
30
0
0
VERTEX
8
0
10
16.8
20
98.2978891147924
30
0
0
VERTEX
8
0
10
17.5
20
99.3360995598722
30
0
0
VERTEX
8
0
10
18.2
20
100.366388794626
30
0
0
VERTEX
8
0
10
18.9
20
101.38920967541
30
0
0
VERTEX
8
0
10
19.6
20
102.404973486233
30
0
0
VERTEX
8
0
10
20.3
20
104.158741384472
30
0
0
VERTEX
8
0
10
21
20
105.90617029038
30
0
0
VERTEX
8
0
10
21.7
20
107.647574644934
30
0
0
VERTEX
8
0
10
22.4
20
109.383243721663
30
0
0
VERTEX
8
0
10
23.1
20
111.007060450272
30
0
0
VERTEX
8
0
10
23.8
20
112.62565544601
30
0
0
VERTEX
8
0
10
24.5
20
114.239257460838
30
0
0
VERTEX
8
0
10
25.2
20
115.848079017008
30
0
0
VERTEX
8
0
10
25.9
20
117.611894006139
30
0
0
VERTEX
8
0
10
26.6
20
119.371311052912
30
0
0
VERTEX
8
0
10
27.3
20
121.126502661144
30
0
0
VERTEX
8
0
10
28
20
122.877630343834
30
0
0
VERTEX
8
0
10
28.7
20
124.412077328571
30
0
0
VERTEX
8
0
10
29.4
20
125.942754074236
30
0
0
VERTEX
8
0
10
30.1
20
127.469794459188
30
0
0
VERTEX
8
0
10
30.8
20
128.993324621199
30
0
0
VERTEX
8
0
10
31.5
20
130.622317911323
30
0
0
VERTEX
8
0
10
32.2
20
132.249688139161
30
0
0
VERTEX
8
0
10
32.9
20
133.875479581583
30
0
0
VERTEX
8
0
10
33.6
20
135.499733883216
30
0
0
VERTEX
8
0
10
34.3
20
137.182111896998
30
0
0
VERTEX
8
0
10
35
20
138.865536976456
30
0
0
VERTEX
8
0
10
35.7
20
140.5499479412
30
0
0
VERTEX
8
0
10
36.4
20
142.235286307103
30
0
0
VERTEX
8
0
10
37.1
20
143.382572544819
30
0
0
VERTEX
8
0
10
37.8
20
144.529400452526
30
0
0
VERTEX
8
0
10
38.5
20
145.675793352265
30
0
0
VERTEX
8
0
10
39.2
20
146.821772672861
30
0
0
VERTEX
8
0
10
39.9
20
147.217415122039
30
0
0
VERTEX
8
0
10
40.6
20
147.612246549695
30
0
0
VERTEX
8
0
10
41.3
20
148.006321105611
30
0
0
VERTEX
8
0
10
42
20
148.399690407137
30
0
0
VERTEX
8
0
10
42.7
20
148.792403685246
30
0
0
VERTEX
8
0
10
43.4
20
149.184507919921
30
0
0
VERTEX
8
0
10
44.1
20
149.576047965805
30
0
0
VERTEX
8
0
10
44.8
20
149.967066668969
30
0
0
VERTEX
8
0
10
45.5
20
150.039787499053
30
0
0
VERTEX
8
0
10
46.1999999999999
20
150.112282823163
30
0
0
VERTEX
8
0
10
46.8999999999999
20
150.18460269587
30
0
0
VERTEX
8
0
10
47.5999999999999
20
150.256795553084
30
0
0
VERTEX
8
0
10
48.2999999999999
20
150.328908292352
30
0
0
VERTEX
8
0
10
48.9999999999999
20
150.400986347858
30
0
0
VERTEX
8
0
10
49.6999999999999
20
150.473073760519
30
0
0
VERTEX
8
0
10
50.3999999999999
20
150.54521324357
30
0
0
VERTEX
8
0
10
51.0999999999999
20
150.459057833316
30
0
0
VERTEX
8
0
10
51.7999999999999
20
150.373191547447
30
0
0
VERTEX
8
0
10
52.4999999999999
20
150.287661811694
30
0
0
VERTEX
8
0
10
53.1999999999999
20
150.202515061638
30
0
0
VERTEX
8
0
10
53.8999999999999
20
150.103162862053
30
0
0
VERTEX
8
0
10
54.5999999999999
20
150.003514582369
30
0
0
VERTEX
8
0
10
55.2999999999999
20
149.903608220633
30
0
0
VERTEX
8
0
10
55.9999999999999
20
149.803480964896
30
0
0
VERTEX
8
0
10
56.6999999999999
20
149.666574888636
30
0
0
VERTEX
8
0
10
57.3999999999999
20
149.530372631743
30
0
0
VERTEX
8
0
10
58.0999999999999
20
149.394918351838
30
0
0
VERTEX
8
0
10
58.7999999999999
20
149.260255591353
30
0
0
VERTEX
8
0
10
59.4999999999999
20
149.265963867447
30
0
0
VERTEX
8
0
10
60.1999999999999
20
149.271552215556
30
0
0
VERTEX
8
0
10
60.8999999999999
20
149.277048963369
30
0
0
VERTEX
8
0
10
61.5999999999999
20
149.282481821012
30
0
0
VERTEX
8
0
10
62.2999999999999
20
149.202361779431
30
0
0
VERTEX
8
0
10
62.9999999999999
20
149.12317224397
30
0
0
VERTEX
8
0
10
63.6999999999999
20
149.044949206872
30
0
0
VERTEX
8
0
10
64.3999999999999
20
148.967728171279
30
0
0
VERTEX
8
0
10
65.0999999999999
20
149.152273154819
30
0
0
VERTEX
8
0
10
65.7999999999999
20
149.337444582611
30
0
0
VERTEX
8
0
10
66.4999999999999
20
149.523260931572
30
0
0
VERTEX
8
0
10
67.1999999999999
20
149.709740137208
30
0
0
VERTEX
8
0
10
67.8999999999999
20
149.896899610176
30
0
0
VERTEX
8
0
10
68.5999999999999
20
150.084756252098
30
0
0
VERTEX
8
0
10
69.2999999999999
20
150.273326470666
30
0
0
VERTEX
8
0
10
69.9999999999999
20
150.462626194062
30
0
0
VERTEX
8
0
10
70.6999999999999
20
150.756254770118
30
0
0
VERTEX
8
0
10
71.3999999999999
20
151.050455384353
30
0
0
VERTEX
8
0
10
72.0999999999999
20
151.34523826064
30
0
0
VERTEX
8
0
10
72.7999999999999
20
151.640613226744
30
0
0
VERTEX
8
0
10
73.4999999999999
20
151.910858510645
30
0
0
VERTEX
8
0
10
74.1999999999998
20
152.181045421859
30
0
0
VERTEX
8
0
10
74.8999999999998
20
152.451185151063
30
0
0
VERTEX
8
0
10
75.5999999999998
20
152.721288571346
30
0
0
VERTEX
8
0
10
76.2999999999998
20
152.734019235207
30
0
0
VERTEX
8
0
10
76.9999999999998
20
152.747149351019
30
0
0
VERTEX
8
0
10
77.6999999999998
20
152.760696786453
30
0
0
VERTEX
8
0
10
78.3999999999998
20
152.774679137457
30
0
0
VERTEX
8
0
10
79.0999999999998
20
152.67241768557
30
0
0
VERTEX
8
0
10
79.7999999999998
20
152.570473983809
30
0
0
VERTEX
8
0
10
80.4999999999998
20
152.468867807398
30
0
0
VERTEX
8
0
10
81.1999999999998
20
152.367618754472
30
0
0
VERTEX
8
0
10
81.8999999999998
20
152.281554813947
30
0
0
VERTEX
8
0
10
82.5999999999998
20
152.19624649443
30
0
0
VERTEX
8
0
10
83.2999999999998
20
152.111715061784
30
0
0
VERTEX
8
0
10
83.9999999999998
20
152.02798161922
30
0
0
VERTEX
8
0
10
84.6999999999998
20
151.929486874643
30
0
0
VERTEX
8
0
10
85.3999999999998
20
151.831466297028
30
0
0
VERTEX
8
0
10
86.0999999999998
20
151.733938414733
30
0
0
VERTEX
8
0
10
86.7999999999998
20
151.636921625916
30
0
0
VERTEX
8
0
10
87.4999999999998
20
151.489787759616
30
0
0
VERTEX
8
0
10
88.1999999999998
20
151.343316105136
30
0
0
VERTEX
8
0
10
88.8999999999998
20
151.197527541051
30
0
0
VERTEX
8
0
10
89.5999999999998
20
151.052442877937
30
0
0
VERTEX
8
0
10
90.2999999999998
20
150.806779039898
30
0
0
VERTEX
8
0
10
90.9999999999998
20
150.561045570871
30
0
0
VERTEX
8
0
10
91.6999999999998
20
150.315257514154
30
0
0
VERTEX
8
0
10
92.3999999999998
20
150.069429870585
30
0
0
VERTEX
8
0
10
93.0999999999998
20
149.92410147011
30
0
0
VERTEX
8
0
10
93.7999999999998
20
149.778602002032
30
0
0
VERTEX
8
0
10
94.4999999999998
20
149.632943024363
30
0
0
VERTEX
8
0
10
95.1999999999998
20
149.487136008491
30
0
0
VERTEX
8
0
10
95.8999999999998
20
149.240973140852
30
0
0
VERTEX
8
0
10
96.5999999999998
20
148.994854573207
30
0
0
VERTEX
8
0
10
97.2999999999998
20
148.748795068491
30
0
0
VERTEX
8
0
10
97.9999999999998
20
148.502809387758
30
0
0
VERTEX
8
0
10
98.6999999999998
20
148.338419127684
30
0
0
VERTEX
8
0
10
99.3999999999998
20
148.173751228866
30
0
0
VERTEX
8
0
10
100.1
20
148.00881501723
30
0
0
VERTEX
8
0
10
100.8
20
147.843619747718
30
0
0
VERTEX
8
0
10
101.5
20
147.727979947893
30
0
0
VERTEX
8
0
10
102.2
20
147.612035119893
30
0
0
VERTEX
8
0
10
102.9
20
147.495793287769
30
0
0
VERTEX
8
0
10
103.6
20
147.379262399701
30
0
0
VERTEX
8
0
10
104.3
20
147.342857970404
30
0
0
VERTEX
8
0
10
105
20
147.305967446569
30
0
0
VERTEX
8
0
10
105.7
20
147.268596611732
30
0
0
VERTEX
8
0
10
106.4
20
147.23075116236
30
0
0
VERTEX
8
0
10
107.1
20
147.211557460605
30
0
0
VERTEX
8
0
10
107.8
20
147.192002829808
30
0
0
VERTEX
8
0
10
108.5
20
147.172093245838
30
0
0
VERTEX
8
0
10
109.2
20
147.151834608389
30
0
0
VERTEX
8
0
10
109.9
20
147.230305537227
30
0
0
VERTEX
8
0
10
110.6
20
147.30835320253
30
0
0
VERTEX
8
0
10
111.3
20
147.385982568753
30
0
0
VERTEX
8
0
10
112
20
147.46319852593
30
0
0
VERTEX
8
0
10
112.7
20
147.421517367213
30
0
0
VERTEX
8
0
10
113.4
20
147.37941463366
30
0
0
VERTEX
8
0
10
114.1
20
147.336895189766
30
0
0
VERTEX
8
0
10
114.8
20
147.293963834473
30
0
0
VERTEX
8
0
10
115.5
20
147.191318207029
30
0
0
VERTEX
8
0
10
116.2
20
147.088696274291
30
0
0
VERTEX
8
0
10
116.9
20
146.986106188948
30
0
0
VERTEX
8
0
10
117.6
20
146.883556075282
30
0
0
VERTEX
8
0
10
118.3
20
146.879457094674
30
0
0
VERTEX
8
0
10
119
20
146.875244310287
30
0
0
VERTEX
8
0
10
119.7
20
146.870923350371
30
0
0
VERTEX
8
0
10
120.4
20
146.866499792529
30
0
0
VERTEX
8
0
10
121.1
20
146.763884905812
30
0
0
VERTEX
8
0
10
121.8
20
146.661353987885
30
0
0
VERTEX
8
0
10
122.5
20
146.558914960992
30
0
0
VERTEX
8
0
10
123.2
20
146.456575730154
30
0
0
VERTEX
8
0
10
123.9
20
146.403192067845
30
0
0
VERTEX
8
0
10
124.6
20
146.349827537734
30
0
0
VERTEX
8
0
10
125.3
20
146.296488528617
30
0
0
VERTEX
8
0
10
126
20
146.243181398367
30
0
0
VERTEX
8
0
10
126.7
20
146.141250452963
30
0
0
VERTEX
8
0
10
127.4
20
146.039464159457
30
0
0
VERTEX
8
0
10
128.1
20
145.937830313477
30
0
0
VERTEX
8
0
10
128.8
20
145.836356702966
30
0
0
VERTEX
8
0
10
129.5
20
145.642705884817
30
0
0
VERTEX
8
0
10
130.2
20
145.448918360316
30
0
0
VERTEX
8
0
10
130.9
20
145.255000162064
30
0
0
VERTEX
8
0
10
131.6
20
145.060957320937
30
0
0
VERTEX
8
0
10
132.3
20
144.9113555049
30
0
0
VERTEX
8
0
10
133
20
144.762078602827
30
0
0
VERTEX
8
0
10
133.7
20
144.613136520134
30
0
0
VERTEX
8
0
10
134.4
20
144.464539196154
30
0
0
VERTEX
8
0
10
135.1
20
144.364333740541
30
0
0
VERTEX
8
0
10
135.8
20
144.264367225873
30
0
0
VERTEX
8
0
10
136.5
20
144.164647474288
30
0
0
VERTEX
8
0
10
137.2
20
144.065182312992
30
0
0
VERTEX
8
0
10
137.9
20
143.870398933065
30
0
0
VERTEX
8
0
10
138.6
20
143.676161501918
30
0
0
VERTEX
8
0
10
139.3
20
143.482483095519
30
0
0
VERTEX
8
0
10
140
20
143.289376886087
30
0
0
VERTEX
8
0
10
140.7
20
143.191469487676
30
0
0
VERTEX
8
0
10
141.4
20
143.09337876595
30
0
0
VERTEX
8
0
10
142.1
20
142.995108646045
30
0
0
VERTEX
8
0
10
142.8
20
142.896663035308
30
0
0
VERTEX
8
0
10
143.5
20
142.845438218315
30
0
0
VERTEX
8
0
10
144.2
20
142.793984491836
30
0
0
VERTEX
8
0
10
144.9
20
142.742305025731
30
0
0
VERTEX
8
0
10
145.6
20
142.69040296622
30
0
0
VERTEX
8
0
10
146.3
20
142.543723222747
30
0
0
VERTEX
8
0
10
147
20
142.396966916409
30
0
0
VERTEX
8
0
10
147.7
20
142.250138902956
30
0
0
VERTEX
8
0
10
148.4
20
142.103244042004
30
0
0
VERTEX
8
0
10
149.1
20
142.099934522532
30
0
0
VERTEX
8
0
10
149.8
20
142.096749020784
30
0
0
VERTEX
8
0
10
150.5
20
142.093691955018
30
0
0
VERTEX
8
0
10
151.2
20
142.090767724981
30
0
0
VERTEX
8
0
10
151.9
20
142.037684163714
30
0
0
VERTEX
8
0
10
152.6
20
141.984411611561
30
0
0
VERTEX
8
0
10
153.3
20
141.930953010309
30
0
0
VERTEX
8
0
10
154
20
141.877311284286
30
0
0
VERTEX
8
0
10
154.7
20
141.848851386744
30
0
0
VERTEX
8
0
10
155.4
20
141.820355057053
30
0
0
VERTEX
8
0
10
156.1
20
141.791825880026
30
0
0
VERTEX
8
0
10
156.8
20
141.763267427266
30
0
0
VERTEX
8
0
10
157.5
20
141.734683257566
30
0
0
VERTEX
8
0
10
158.2
20
141.706076917301
30
0
0
VERTEX
8
0
10
158.9
20
141.677451940806
30
0
0
VERTEX
8
0
10
159.6
20
141.648811850761
30
0
0
VERTEX
8
0
10
160.3
20
141.646224385
30
0
0
VERTEX
8
0
10
161
20
141.643826273825
30
0
0
VERTEX
8
0
10
161.7
20
141.641621704607
30
0
0
VERTEX
8
0
10
162.4
20
141.639614851399
30
0
0
VERTEX
8
0
10
163.1
20
141.584810104865
30
0
0
VERTEX
8
0
10
163.8
20
141.529865264185
30
0
0
VERTEX
8
0
10
164.5
20
141.47478305774
30
0
0
VERTEX
8
0
10
165.2
20
141.419566202911
30
0
0
VERTEX
8
0
10
165.9
20
141.444484600958
30
0
0
VERTEX
8
0
10
166.6
20
141.46987758511
30
0
0
VERTEX
8
0
10
167.3
20
141.495749734546
30
0
0
VERTEX
8
0
10
168.000000000001
20
141.522105604332
30
0
0
VERTEX
8
0
10
168.700000000001
20
141.640206991789
30
0
0
VERTEX
8
0
10
169.400000000001
20
141.75850149744
30
0
0
VERTEX
8
0
10
170.100000000001
20
141.876990914627
30
0
0
VERTEX
8
0
10
170.800000000001
20
141.995677012082
30
0
0
VERTEX
8
0
10
171.500000000001
20
141.996053541969
30
0
0
VERTEX
8
0
10
172.200000000001
20
141.996680843318
30
0
0
VERTEX
8
0
10
172.900000000001
20
141.997562893276
30
0
0
VERTEX
8
0
10
173.600000000001
20
141.998703658406
30
0
0
VERTEX
8
0
10
174.300000000001
20
142.118506041662
30
0
0
VERTEX
8
0
10
175.000000000001
20
142.238517955819
30
0
0
VERTEX
8
0
10
175.700000000001
20
142.358741002744
30
0
0
VERTEX
8
0
10
176.400000000001
20
142.47917676128
30
0
0
VERTEX
8
0
10
177.100000000001
20
142.510213018623
30
0
0
VERTEX
8
0
10
177.800000000001
20
142.541783564549
30
0
0
VERTEX
8
0
10
178.500000000001
20
142.573892585519
30
0
0
VERTEX
8
0
10
179.200000000001
20
142.606544243334
30
0
0
VERTEX
8
0
10
179.900000000001
20
142.64110574841
30
0
0
VERTEX
8
0
10
180.600000000001
20
142.675469929976
30
0
0
VERTEX
8
0
10
181.300000000001
20
142.709638328187
30
0
0
VERTEX
8
0
10
182.000000000001
20
142.743612470327
30
0
0
VERTEX
8
0
10
182.700000000001
20
142.777393870991
30
0
0
VERTEX
8
0
10
183.400000000001
20
142.810984032267
30
0
0
VERTEX
8
0
10
184.100000000001
20
142.84438444391
30
0
0
VERTEX
8
0
10
184.800000000001
20
142.877596583523
30
0
0
VERTEX
8
0
10
185.500000000001
20
142.969473131018
30
0
0
VERTEX
8
0
10
186.200000000001
20
143.061397288995
30
0
0
VERTEX
8
0
10
186.900000000001
20
143.153370662934
30
0
0
VERTEX
8
0
10
187.600000000001
20
143.245394843753
30
0
0
VERTEX
8
0
10
188.300000000001
20
143.277954859776
30
0
0
VERTEX
8
0
10
189.000000000001
20
143.310335692099
30
0
0
VERTEX
8
0
10
189.700000000001
20
143.342538738538
30
0
0
VERTEX
8
0
10
190.400000000001
20
143.374565386046
30
0
0
VERTEX
8
0
10
191.100000000001
20
143.318409188585
30
0
0
VERTEX
8
0
10
191.800000000001
20
143.26221720315
30
0
0
VERTEX
8
0
10
192.500000000001
20
143.205991878937
30
0
0
VERTEX
8
0
10
193.200000000001
20
143.149735664273
30
0
0
VERTEX
8
0
10
193.900000000001
20
143.120858156158
30
0
0
VERTEX
8
0
10
194.600000000001
20
143.091775803488
30
0
0
VERTEX
8
0
10
195.300000000001
20
143.062489820194
30
0
0
VERTEX
8
0
10
196.000000000001
20
143.033001410276
30
0
0
VERTEX
8
0
10
196.700000000001
20
143.063415095872
30
0
0
VERTEX
8
0
10
197.400000000001
20
143.093665852372
30
0
0
VERTEX
8
0
10
198.100000000001
20
143.123754958585
30
0
0
VERTEX
8
0
10
198.800000000001
20
143.153683684124
30
0
0
VERTEX
8
0
10
199.500000000001
20
143.035472642826
30
0
0
VERTEX
8
0
10
200.200000000001
20
142.917070387393
30
0
0
VERTEX
8
0
10
200.900000000001
20
142.798478130833
30
0
0
VERTEX
8
0
10
201.600000000001
20
142.67969707845
30
0
0
VERTEX
8
0
10
202.300000000001
20
142.708756795687
30
0
0
VERTEX
8
0
10
203.000000000001
20
142.7376637456
30
0
0
VERTEX
8
0
10
203.700000000001
20
142.766419138898
30
0
0
VERTEX
8
0
10
204.400000000001
20
142.795024178053
30
0
0
VERTEX
8
0
10
205.100000000001
20
142.762664448827
30
0
0
VERTEX
8
0
10
205.800000000001
20
142.730116795243
30
0
0
VERTEX
8
0
10
206.500000000001
20
142.69738227916
30
0
0
VERTEX
8
0
10
207.200000000001
20
142.664461954358
30
0
0
VERTEX
8
0
10
207.900000000001
20
142.692048245332
30
0
0
VERTEX
8
0
10
208.600000000001
20
142.719490726406
30
0
0
VERTEX
8
0
10
209.300000000001
20
142.746790544724
30
0
0
VERTEX
8
0
10
210.000000000001
20
142.773948840026
30
0
0
VERTEX
8
0
10
210.700000000001
20
142.770465249484
30
0
0
VERTEX
8
0
10
211.400000000001
20
142.766796225857
30
0
0
VERTEX
8
0
10
212.100000000001
20
142.762942729177
30
0
0
VERTEX
8
0
10
212.800000000001
20
142.758905711844
30
0
0
VERTEX
8
0
10
213.500000000001
20
142.754686118719
30
0
0
VERTEX
8
0
10
214.200000000001
20
142.750284887211
30
0
0
VERTEX
8
0
10
214.900000000001
20
142.745702947367
30
0
0
VERTEX
8
0
10
215.600000000001
20
142.740941221958
30
0
0
VERTEX
8
0
10
216.300000000001
20
142.766585094165
30
0
0
VERTEX
8
0
10
217.000000000001
20
142.792097936811
30
0
0
VERTEX
8
0
10
217.700000000001
20
142.817480813758
30
0
0
VERTEX
8
0
10
218.400000000001
20
142.842734782554
30
0
0
VERTEX
8
0
10
219.100000000001
20
142.929399540256
30
0
0
VERTEX
8
0
10
219.800000000001
20
143.016187427427
30
0
0
VERTEX
8
0
10
220.500000000001
20
143.103099607965
30
0
0
VERTEX
8
0
10
221.200000000001
20
143.190137235667
30
0
0
VERTEX
8
0
10
221.900000000001
20
143.21505730022
30
0
0
VERTEX
8
0
10
222.600000000001
20
143.239855196355
30
0
0
VERTEX
8
0
10
223.300000000001
20
143.264531940264
30
0
0
VERTEX
8
0
10
224.000000000001
20
143.289088542453
30
0
0
VERTEX
8
0
10
224.700000000001
20
143.313526007814
30
0
0
VERTEX
8
0
10
225.400000000001
20
143.3378453357
30
0
0
VERTEX
8
0
10
226.100000000001
20
143.362047519998
30
0
0
VERTEX
8
0
10
226.800000000001
20
143.386133549195
30
0
0
VERTEX
8
0
10
227.500000000001
20
143.472943132919
30
0
0
VERTEX
8
0
10
228.200000000001
20
143.559890435787
30
0
0
VERTEX
8
0
10
228.900000000001
20
143.646976524996
30
0
0
VERTEX
8
0
10
229.600000000001
20
143.734202458251
30
0
0
VERTEX
8
0
10
230.300000000001
20
143.758023487522
30
0
0
VERTEX
8
0
10
231.000000000001
20
143.781734704201
30
0
0
VERTEX
8
0
10
231.700000000001
20
143.805337061371
30
0
0
VERTEX
8
0
10
232.400000000001
20
143.828831507247
30
0
0
VERTEX
8
0
10
233.100000000001
20
143.916067085458
30
0
0
VERTEX
8
0
10
233.800000000001
20
144.003449352813
30
0
0
VERTEX
8
0
10
234.500000000001
20
144.090979312482
30
0
0
VERTEX
8
0
10
235.200000000001
20
144.17865795848
30
0
0
VERTEX
8
0
10
235.900000000001
20
144.318786312668
30
0
0
VERTEX
8
0
10
236.600000000001
20
144.458779678353
30
0
0
VERTEX
8
0
10
237.300000000001
20
144.598638731243
30
0
0
VERTEX
8
0
10
238.000000000001
20
144.738364141852
30
0
0
VERTEX
8
0
10
238.700000000001
20
144.793519279168
30
0
0
VERTEX
8
0
10
239.400000000002
20
144.848676821154
30
0
0
VERTEX
8
0
10
240.100000000002
20
144.903837804039
30
0
0
VERTEX
8
0
10
240.800000000002
20
144.959003258971
30
0
0
VERTEX
8
0
10
241.500000000002
20
145.046815375113
30
0
0
VERTEX
8
0
10
242.200000000002
20
145.134784677024
30
0
0
VERTEX
8
0
10
242.900000000002
20
145.222912075957
30
0
0
VERTEX
8
0
10
243.600000000002
20
145.311198474512
30
0
0
VERTEX
8
0
10
244.300000000002
20
145.333686892839
30
0
0
VERTEX
8
0
10
245.000000000002
20
145.356084375462
30
0
0
VERTEX
8
0
10
245.700000000002
20
145.378391786485
30
0
0
VERTEX
8
0
10
246.400000000002
20
145.400609986233
30
0
0
VERTEX
8
0
10
247.100000000002
20
145.57222422097
30
0
0
VERTEX
8
0
10
247.800000000002
20
145.743786575844
30
0
0
VERTEX
8
0
10
248.500000000002
20
145.915297411318
30
0
0
VERTEX
8
0
10
249.200000000002
20
146.086757084018
30
0
0
VERTEX
8
0
10
249.900000000002
20
146.108603749001
30
0
0
VERTEX
8
0
10
250.600000000002
20
146.130365906164
30
0
0
VERTEX
8
0
10
251.300000000002
20
146.15204438736
30
0
0
VERTEX
8
0
10
252.000000000002
20
146.173640021016
30
0
0
VERTEX
8
0
10
252.700000000002
20
146.262119324563
30
0
0
VERTEX
8
0
10
253.400000000002
20
146.350769507911
30
0
0
VERTEX
8
0
10
254.100000000002
20
146.439591374278
30
0
0
VERTEX
8
0
10
254.800000000002
20
146.528585718745
30
0
0
VERTEX
8
0
10
255.500000000002
20
146.550092714198
30
0
0
VERTEX
8
0
10
256.200000000002
20
146.571522247562
30
0
0
VERTEX
8
0
10
256.900000000002
20
146.592875124489
30
0
0
VERTEX
8
0
10
257.600000000002
20
146.614152147541
30
0
0
VERTEX
8
0
10
258.300000000002
20
146.703328833057
30
0
0
VERTEX
8
0
10
259.000000000002
20
146.79268355789
30
0
0
VERTEX
8
0
10
259.700000000002
20
146.882217071403
30
0
0
VERTEX
8
0
10
260.400000000002
20
146.971930114998
30
0
0
VERTEX
8
0
10
261.100000000002
20
147.074485397233
30
0
0
VERTEX
8
0
10
261.800000000002
20
147.176903297793
30
0
0
VERTEX
8
0
10
262.500000000002
20
147.279184367307
30
0
0
VERTEX
8
0
10
263.200000000002
20
147.381329152737
30
0
0
VERTEX
8
0
10
263.900000000002
20
147.470676222312
30
0
0
VERTEX
8
0
10
264.600000000002
20
147.560206461625
30
0
0
VERTEX
8
0
10
265.300000000002
20
147.649920573867
30
0
0
VERTEX
8
0
10
266.000000000002
20
147.739819254496
30
0
0
SEQEND
8
0
0
ENDSEC
0
EOF
