0
SECTION
2
HEADER
9
$ACADVER
1
AC1009
0
ENDSEC
0
SECTION
2
ENTITIES
0
POLYLINE
8
0
62
0
70
1
10
0
20
0
30
0
0
VERTEX
8
0
10
0
20
0
30
0
0
VERTEX
8
0
10
0
20
116.187
30
0
0
VERTEX
8
0
10
179.2
20
116.187
30
0
0
VERTEX
8
0
10
179.2
20
0
30
0
0
SEQEND
8
0
0
TEXT
8
0
62
0
10
0
20
-12
30
0
40
8
1
0
50
0
0
LINE
8
0
62
0
10
6.37520500624357
20
0
30
0
11
6.37520500624357
21
3.2
31
0
0
LINE
8
0
62
0
10
6.37520500624357
20
116.187
30
0
11
6.37520500624357
21
112.987
31
0
0
LINE
8
0
62
0
10
12.7504100124871
20
0
30
0
11
12.7504100124871
21
3.2
31
0
0
LINE
8
0
62
0
10
12.7504100124871
20
116.187
30
0
11
12.7504100124871
21
112.987
31
0
0
LINE
8
0
62
0
10
19.1256150187307
20
0
30
0
11
19.1256150187307
21
3.2
31
0
0
LINE
8
0
62
0
10
19.1256150187307
20
116.187
30
0
11
19.1256150187307
21
112.987
31
0
0
LINE
8
0
62
0
10
25.5008200249743
20
0
30
0
11
25.5008200249743
21
3.2
31
0
0
LINE
8
0
62
0
10
25.5008200249743
20
116.187
30
0
11
25.5008200249743
21
112.987
31
0
0
LINE
8
0
62
0
10
31.8760250312179
20
0
30
0
11
31.8760250312179
21
6.4
31
0
0
LINE
8
0
62
0
10
31.8760250312179
20
116.187
30
0
11
31.8760250312179
21
109.787
31
0
0
TEXT
8
0
62
0
10
31.8760250312179
20
-12
30
0
40
8
1
0.5
50
0
0
LINE
8
0
62
0
10
38.2512300374614
20
0
30
0
11
38.2512300374614
21
3.2
31
0
0
LINE
8
0
62
0
10
38.2512300374614
20
116.187
30
0
11
38.2512300374614
21
112.987
31
0
0
LINE
8
0
62
0
10
44.626435043705
20
0
30
0
11
44.626435043705
21
3.2
31
0
0
LINE
8
0
62
0
10
44.626435043705
20
116.187
30
0
11
44.626435043705
21
112.987
31
0
0
LINE
8
0
62
0
10
51.0016400499486
20
0
30
0
11
51.0016400499486
21
3.2
31
0
0
LINE
8
0
62
0
10
51.0016400499486
20
116.187
30
0
11
51.0016400499486
21
112.987
31
0
0
LINE
8
0
62
0
10
57.3768450561922
20
0
30
0
11
57.3768450561922
21
3.2
31
0
0
LINE
8
0
62
0
10
57.3768450561922
20
116.187
30
0
11
57.3768450561922
21
112.987
31
0
0
LINE
8
0
62
0
10
63.7520500624358
20
0
30
0
11
63.7520500624358
21
6.4
31
0
0
LINE
8
0
62
0
10
63.7520500624358
20
116.187
30
0
11
63.7520500624358
21
109.787
31
0
0
TEXT
8
0
62
0
10
63.7520500624358
20
-12
30
0
40
8
1
1
50
0
0
LINE
8
0
62
0
10
70.1272550686793
20
0
30
0
11
70.1272550686793
21
3.2
31
0
0
LINE
8
0
62
0
10
70.1272550686793
20
116.187
30
0
11
70.1272550686793
21
112.987
31
0
0
LINE
8
0
62
0
10
76.5024600749229
20
0
30
0
11
76.5024600749229
21
3.2
31
0
0
LINE
8
0
62
0
10
76.5024600749229
20
116.187
30
0
11
76.5024600749229
21
112.987
31
0
0
LINE
8
0
62
0
10
82.8776650811665
20
0
30
0
11
82.8776650811665
21
3.2
31
0
0
LINE
8
0
62
0
10
82.8776650811665
20
116.187
30
0
11
82.8776650811665
21
112.987
31
0
0
LINE
8
0
62
0
10
89.25287008741
20
0
30
0
11
89.25287008741
21
3.2
31
0
0
LINE
8
0
62
0
10
89.25287008741
20
116.187
30
0
11
89.25287008741
21
112.987
31
0
0
LINE
8
0
62
0
10
95.6280750936536
20
0
30
0
11
95.6280750936536
21
6.4
31
0
0
LINE
8
0
62
0
10
95.6280750936536
20
116.187
30
0
11
95.6280750936536
21
109.787
31
0
0
TEXT
8
0
62
0
10
95.6280750936536
20
-12
30
0
40
8
1
1.5
50
0
0
LINE
8
0
62
0
10
102.003280099897
20
0
30
0
11
102.003280099897
21
3.2
31
0
0
LINE
8
0
62
0
10
102.003280099897
20
116.187
30
0
11
102.003280099897
21
112.987
31
0
0
LINE
8
0
62
0
10
108.378485106141
20
0
30
0
11
108.378485106141
21
3.2
31
0
0
LINE
8
0
62
0
10
108.378485106141
20
116.187
30
0
11
108.378485106141
21
112.987
31
0
0
LINE
8
0
62
0
10
114.753690112384
20
0
30
0
11
114.753690112384
21
3.2
31
0
0
LINE
8
0
62
0
10
114.753690112384
20
116.187
30
0
11
114.753690112384
21
112.987
31
0
0
LINE
8
0
62
0
10
121.128895118628
20
0
30
0
11
121.128895118628
21
3.2
31
0
0
LINE
8
0
62
0
10
121.128895118628
20
116.187
30
0
11
121.128895118628
21
112.987
31
0
0
LINE
8
0
62
0
10
127.504100124871
20
0
30
0
11
127.504100124871
21
6.4
31
0
0
LINE
8
0
62
0
10
127.504100124871
20
116.187
30
0
11
127.504100124871
21
109.787
31
0
0
TEXT
8
0
62
0
10
127.504100124871
20
-12
30
0
40
8
1
2
50
0
0
LINE
8
0
62
0
10
133.879305131115
20
0
30
0
11
133.879305131115
21
3.2
31
0
0
LINE
8
0
62
0
10
133.879305131115
20
116.187
30
0
11
133.879305131115
21
112.987
31
0
0
LINE
8
0
62
0
10
140.254510137359
20
0
30
0
11
140.254510137359
21
3.2
31
0
0
LINE
8
0
62
0
10
140.254510137359
20
116.187
30
0
11
140.254510137359
21
112.987
31
0
0
LINE
8
0
62
0
10
146.629715143602
20
0
30
0
11
146.629715143602
21
3.2
31
0
0
LINE
8
0
62
0
10
146.629715143602
20
116.187
30
0
11
146.629715143602
21
112.987
31
0
0
LINE
8
0
62
0
10
153.004920149846
20
0
30
0
11
153.004920149846
21
3.2
31
0
0
LINE
8
0
62
0
10
153.004920149846
20
116.187
30
0
11
153.004920149846
21
112.987
31
0
0
LINE
8
0
62
0
10
159.380125156089
20
0
30
0
11
159.380125156089
21
6.4
31
0
0
LINE
8
0
62
0
10
159.380125156089
20
116.187
30
0
11
159.380125156089
21
109.787
31
0
0
TEXT
8
0
62
0
10
159.380125156089
20
-12
30
0
40
8
1
2.5
50
0
0
LINE
8
0
62
0
10
165.755330162333
20
0
30
0
11
165.755330162333
21
3.2
31
0
0
LINE
8
0
62
0
10
165.755330162333
20
116.187
30
0
11
165.755330162333
21
112.987
31
0
0
LINE
8
0
62
0
10
172.130535168576
20
0
30
0
11
172.130535168576
21
3.2
31
0
0
LINE
8
0
62
0
10
172.130535168576
20
116.187
30
0
11
172.130535168576
21
112.987
31
0
0
LINE
8
0
62
0
10
178.50574017482
20
0
30
0
11
178.50574017482
21
3.2
31
0
0
LINE
8
0
62
0
10
178.50574017482
20
116.187
30
0
11
178.50574017482
21
112.987
31
0
0
TEXT
8
0
62
0
10
-4
20
-4
30
0
40
8
1
0
50
0
0
LINE
8
0
62
0
10
0
20
5.80935
30
0
11
3.2
21
5.80935
31
0
0
LINE
8
0
62
0
10
179.2
20
5.80935
30
0
11
176
21
5.80935
31
0
0
LINE
8
0
62
0
10
0
20
11.6187
30
0
11
3.2
21
11.6187
31
0
0
LINE
8
0
62
0
10
179.2
20
11.6187
30
0
11
176
21
11.6187
31
0
0
LINE
8
0
62
0
10
0
20
17.42805
30
0
11
3.2
21
17.42805
31
0
0
LINE
8
0
62
0
10
179.2
20
17.42805
30
0
11
176
21
17.42805
31
0
0
LINE
8
0
62
0
10
0
20
23.2374
30
0
11
3.2
21
23.2374
31
0
0
LINE
8
0
62
0
10
179.2
20
23.2374
30
0
11
176
21
23.2374
31
0
0
LINE
8
0
62
0
10
0
20
29.04675
30
0
11
6.4
21
29.04675
31
0
0
LINE
8
0
62
0
10
179.2
20
29.04675
30
0
11
172.8
21
29.04675
31
0
0
TEXT
8
0
62
0
10
-4
20
25.04675
30
0
40
8
1
10
50
0
0
LINE
8
0
62
0
10
0
20
34.8561
30
0
11
3.2
21
34.8561
31
0
0
LINE
8
0
62
0
10
179.2
20
34.8561
30
0
11
176
21
34.8561
31
0
0
LINE
8
0
62
0
10
0
20
40.66545
30
0
11
3.2
21
40.66545
31
0
0
LINE
8
0
62
0
10
179.2
20
40.66545
30
0
11
176
21
40.66545
31
0
0
LINE
8
0
62
0
10
0
20
46.4748
30
0
11
3.2
21
46.4748
31
0
0
LINE
8
0
62
0
10
179.2
20
46.4748
30
0
11
176
21
46.4748
31
0
0
LINE
8
0
62
0
10
0
20
52.28415
30
0
11
3.2
21
52.28415
31
0
0
LINE
8
0
62
0
10
179.2
20
52.28415
30
0
11
176
21
52.28415
31
0
0
LINE
8
0
62
0
10
0
20
58.0935
30
0
11
6.4
21
58.0935
31
0
0
LINE
8
0
62
0
10
179.2
20
58.0935
30
0
11
172.8
21
58.0935
31
0
0
TEXT
8
0
62
0
10
-4
20
54.0935
30
0
40
8
1
20
50
0
0
LINE
8
0
62
0
10
0
20
63.90285
30
0
11
3.2
21
63.90285
31
0
0
LINE
8
0
62
0
10
179.2
20
63.90285
30
0
11
176
21
63.90285
31
0
0
LINE
8
0
62
0
10
0
20
69.7122
30
0
11
3.2
21
69.7122
31
0
0
LINE
8
0
62
0
10
179.2
20
69.7122
30
0
11
176
21
69.7122
31
0
0
LINE
8
0
62
0
10
0
20
75.52155
30
0
11
3.2
21
75.52155
31
0
0
LINE
8
0
62
0
10
179.2
20
75.52155
30
0
11
176
21
75.52155
31
0
0
LINE
8
0
62
0
10
0
20
81.3309
30
0
11
3.2
21
81.3309
31
0
0
LINE
8
0
62
0
10
179.2
20
81.3309
30
0
11
176
21
81.3309
31
0
0
LINE
8
0
62
0
10
0
20
87.14025
30
0
11
6.4
21
87.14025
31
0
0
LINE
8
0
62
0
10
179.2
20
87.14025
30
0
11
172.8
21
87.14025
31
0
0
TEXT
8
0
62
0
10
-4
20
83.14025
30
0
40
8
1
30
50
0
0
LINE
8
0
62
0
10
0
20
92.9496
30
0
11
3.2
21
92.9496
31
0
0
LINE
8
0
62
0
10
179.2
20
92.9496
30
0
11
176
21
92.9496
31
0
0
LINE
8
0
62
0
10
0
20
98.75895
30
0
11
3.2
21
98.75895
31
0
0
LINE
8
0
62
0
10
179.2
20
98.75895
30
0
11
176
21
98.75895
31
0
0
LINE
8
0
62
0
10
0
20
104.5683
30
0
11
3.2
21
104.5683
31
0
0
LINE
8
0
62
0
10
179.2
20
104.5683
30
0
11
176
21
104.5683
31
0
0
LINE
8
0
62
0
10
0
20
110.37765
30
0
11
3.2
21
110.37765
31
0
0
LINE
8
0
62
0
10
179.2
20
110.37765
30
0
11
176
21
110.37765
31
0
0
TEXT
8
0
62
0
10
-4
20
112.187
30
0
40
8
1
40
50
0
0
TEXT
8
0
62
0
10
89.6
20
-32
30
0
40
10
1
R (kpc)
50
0
0
TEXT
8
0
62
0
10
-24
20
58.0935
30
0
40
10
1
V (km/s)
50
90
0
TEXT
8
0
62
0
10
72.6
20
131.187
30
0
40
11
1
V vs. R
50
0
0
POLYLINE
8
0
62
5
70
0
10
0
20
0
30
0
0
VERTEX
8
0
10
23.5882585231012
20
18.4602946715244
30
0
0
VERTEX
8
0
10
24.2257790237256
20
18.7425011401482
30
0
0
VERTEX
8
0
10
24.8632995243499
20
19.024707608772
30
0
0
VERTEX
8
0
10
25.5008200249743
20
19.3069140773959
30
0
0
VERTEX
8
0
10
26.1383405255987
20
19.5891205460197
30
0
0
VERTEX
8
0
10
26.775861026223
20
19.8791552207106
30
0
0
VERTEX
8
0
10
27.4133815268474
20
20.1692740202304
30
0
0
VERTEX
8
0
10
28.0509020274717
20
20.4593928197502
30
0
0
VERTEX
8
0
10
28.6884225280961
20
20.7495116192701
30
0
0
VERTEX
8
0
10
29.3259430287204
20
21.0373890820477
30
0
0
VERTEX
8
0
10
29.9634635293448
20
21.3248704379356
30
0
0
VERTEX
8
0
10
30.6009840299692
20
21.6123517938234
30
0
0
VERTEX
8
0
10
31.2385045305935
20
21.8998331497112
30
0
0
VERTEX
8
0
10
31.8760250312179
20
22.187314505599
30
0
0
VERTEX
8
0
10
32.5135455318422
20
22.4747958614868
30
0
0
VERTEX
8
0
10
33.1510660324666
20
22.7622772173746
30
0
0
VERTEX
8
0
10
33.788586533091
20
23.0497585732624
30
0
0
VERTEX
8
0
10
34.4261070337153
20
23.3387451353318
30
0
0
VERTEX
8
0
10
35.0636275343397
20
23.6288639348516
30
0
0
VERTEX
8
0
10
35.701148034964
20
23.9189827343714
30
0
0
VERTEX
8
0
10
36.3386685355884
20
24.2091015338912
30
0
0
VERTEX
8
0
10
36.9761890362127
20
24.499220333411
30
0
0
VERTEX
8
0
10
37.6137095368371
20
24.7817899638643
30
0
0
VERTEX
8
0
10
38.2512300374615
20
25.0666338761201
30
0
0
VERTEX
8
0
10
38.8887505380858
20
25.3514777883759
30
0
0
VERTEX
8
0
10
39.5262710387102
20
25.6363217006317
30
0
0
VERTEX
8
0
10
40.1637915393345
20
25.9279786513935
30
0
0
VERTEX
8
0
10
40.8013120399589
20
26.2180974509134
30
0
0
VERTEX
8
0
10
41.4388325405832
20
26.5082162504332
30
0
0
VERTEX
8
0
10
42.0763530412076
20
26.798335049953
30
0
0
VERTEX
8
0
10
42.713873541832
20
27.0489539478271
30
0
0
VERTEX
8
0
10
43.3513940424563
20
27.3047859801309
30
0
0
VERTEX
8
0
10
43.9889145430807
20
27.5606180124347
30
0
0
VERTEX
8
0
10
44.626435043705
20
27.8164500447386
30
0
0
VERTEX
8
0
10
45.2639555443294
20
27.922740310264
30
0
0
VERTEX
8
0
10
45.9014760449537
20
28.0308754991759
30
0
0
VERTEX
8
0
10
46.5389965455781
20
28.1390106880878
30
0
0
VERTEX
8
0
10
47.1765170462025
20
28.2471458769997
30
0
0
VERTEX
8
0
10
47.8140375468268
20
28.3368624786141
30
0
0
VERTEX
8
0
10
48.4515580474512
20
28.42389811847
30
0
0
VERTEX
8
0
10
49.0890785480755
20
28.510933758326
30
0
0
VERTEX
8
0
10
49.7265990486999
20
28.5979693981819
30
0
0
VERTEX
8
0
10
50.3641195493243
20
28.6869392961698
30
0
0
VERTEX
8
0
10
51.0016400499486
20
28.7766123796577
30
0
0
VERTEX
8
0
10
51.639160550573
20
28.8662854631457
30
0
0
VERTEX
8
0
10
52.2766810511973
20
28.9559585466336
30
0
0
VERTEX
8
0
10
52.9142015518217
20
29.0424992444182
30
0
0
VERTEX
8
0
10
53.551722052446
20
29.1268974406422
30
0
0
VERTEX
8
0
10
54.1892425530704
20
29.2112956368661
30
0
0
VERTEX
8
0
10
54.8267630536948
20
29.2956938330901
30
0
0
VERTEX
8
0
10
55.4642835543191
20
29.380092029314
30
0
0
VERTEX
8
0
10
56.1018040549435
20
29.4836680815548
30
0
0
VERTEX
8
0
10
56.7393245555678
20
29.5812534959388
30
0
0
VERTEX
8
0
10
57.3768450561922
20
29.6788389103227
30
0
0
VERTEX
8
0
10
58.0143655568166
20
29.7764243247066
30
0
0
VERTEX
8
0
10
58.6518860574409
20
29.8497371976288
30
0
0
VERTEX
8
0
10
59.2894065580653
20
29.9288605065888
30
0
0
VERTEX
8
0
10
59.9269270586896
20
30.0079838155487
30
0
0
VERTEX
8
0
10
60.564447559314
20
30.0871071245087
30
0
0
VERTEX
8
0
10
61.2019680599383
20
30.1848270773256
30
0
0
VERTEX
8
0
10
61.8394885605627
20
30.2797750480776
30
0
0
VERTEX
8
0
10
62.4770090611871
20
30.3747230188295
30
0
0
VERTEX
8
0
10
63.1145295618114
20
30.4696709895814
30
0
0
VERTEX
8
0
10
63.7520500624358
20
30.5509620835206
30
0
0
VERTEX
8
0
10
64.3895705630601
20
30.6327228361125
30
0
0
VERTEX
8
0
10
65.0270910636845
20
30.7144835887045
30
0
0
VERTEX
8
0
10
65.6646115643088
20
30.7962443412964
30
0
0
VERTEX
8
0
10
66.3021320649332
20
30.8661885434769
30
0
0
VERTEX
8
0
10
66.9396525655576
20
30.9347620779089
30
0
0
VERTEX
8
0
10
67.5771730661819
20
31.0033356123408
30
0
0
VERTEX
8
0
10
68.2146935668063
20
31.0719091467728
30
0
0
VERTEX
8
0
10
68.8522140674306
20
31.1105540091746
30
0
0
VERTEX
8
0
10
69.489734568055
20
31.1395658891265
30
0
0
VERTEX
8
0
10
70.1272550686793
20
31.1685777690785
30
0
0
VERTEX
8
0
10
70.7647755693037
20
31.1975896490305
30
0
0
VERTEX
8
0
10
71.4022960699281
20
31.2314830675477
30
0
0
VERTEX
8
0
10
72.0398165705524
20
31.2684072783957
30
0
0
VERTEX
8
0
10
72.6773370711768
20
31.3053314892436
30
0
0
VERTEX
8
0
10
73.3148575718011
20
31.3422557000916
30
0
0
VERTEX
8
0
10
73.9523780724255
20
31.3791799109396
30
0
0
VERTEX
8
0
10
74.5898985730499
20
31.4355869111549
30
0
0
VERTEX
8
0
10
75.2274190736742
20
31.4856983401629
30
0
0
VERTEX
8
0
10
75.8649395742986
20
31.5358097691708
30
0
0
VERTEX
8
0
10
76.5024600749229
20
31.5859211981788
30
0
0
VERTEX
8
0
10
77.1399805755473
20
31.6113331790344
30
0
0
VERTEX
8
0
10
77.7775010761716
20
31.6429825026184
30
0
0
VERTEX
8
0
10
78.415021576796
20
31.6746318262024
30
0
0
VERTEX
8
0
10
79.0525420774204
20
31.7062811497863
30
0
0
VERTEX
8
0
10
79.6900625780447
20
31.7410909006832
30
0
0
VERTEX
8
0
10
80.3275830786691
20
31.7753776678992
30
0
0
VERTEX
8
0
10
80.9651035792934
20
31.8096644351152
30
0
0
VERTEX
8
0
10
81.6026240799178
20
31.8439512023312
30
0
0
VERTEX
8
0
10
82.2401445805422
20
31.9005768658083
30
0
0
VERTEX
8
0
10
82.8776650811665
20
31.9559631820803
30
0
0
VERTEX
8
0
10
83.5151855817909
20
32.0113494983522
30
0
0
VERTEX
8
0
10
84.1527060824152
20
32.0667358146242
30
0
0
VERTEX
8
0
10
84.7902265830396
20
32.1003034601248
30
0
0
VERTEX
8
0
10
85.4277470836639
20
32.1319527837088
30
0
0
VERTEX
8
0
10
86.0652675842883
20
32.1636021072928
30
0
0
VERTEX
8
0
10
86.7027880849127
20
32.1952514308768
30
0
0
VERTEX
8
0
10
87.340308585537
20
32.2248445229886
30
0
0
VERTEX
8
0
10
87.9778290861614
20
32.2538564029406
30
0
0
VERTEX
8
0
10
88.6153495867857
20
32.2828682828926
30
0
0
VERTEX
8
0
10
89.2528700874101
20
32.3118801628446
30
0
0
VERTEX
8
0
10
89.8903905880344
20
32.3223222146864
30
0
0
VERTEX
8
0
10
90.5279110886588
20
32.3223222146864
30
0
0
VERTEX
8
0
10
91.1654315892832
20
32.3223222146864
30
0
0
VERTEX
8
0
10
91.8029520899075
20
32.3223222146864
30
0
0
VERTEX
8
0
10
92.4404725905319
20
32.29988049919
30
0
0
VERTEX
8
0
10
93.0779930911562
20
32.2550439574461
30
0
0
VERTEX
8
0
10
93.7155135917806
20
32.2102074157021
30
0
0
VERTEX
8
0
10
94.3530340924049
20
32.1653708739581
30
0
0
VERTEX
8
0
10
94.9905545930293
20
32.1205343322142
30
0
0
VERTEX
8
0
10
95.6280750936537
20
32.1187715416295
30
0
0
VERTEX
8
0
10
96.265595594278
20
32.1055843234696
30
0
0
VERTEX
8
0
10
96.9031160949024
20
32.0923971053096
30
0
0
VERTEX
8
0
10
97.5406365955267
20
32.0792098871496
30
0
0
VERTEX
8
0
10
98.1781570961511
20
32.0724654969556
30
0
0
VERTEX
8
0
10
98.8156775967754
20
32.0645531660596
30
0
0
VERTEX
8
0
10
99.4531980973998
20
32.0566408351636
30
0
0
VERTEX
8
0
10
100.090718598024
20
32.0487285042676
30
0
0
VERTEX
8
0
10
100.728239098649
20
31.9951625941279
30
0
0
VERTEX
8
0
10
101.365759599273
20
31.9450511651199
30
0
0
VERTEX
8
0
10
102.003280099897
20
31.8949397361119
30
0
0
VERTEX
8
0
10
102.640800600522
20
31.844828307104
30
0
0
VERTEX
8
0
10
103.278321101146
20
31.8369666962778
30
0
0
VERTEX
8
0
10
103.91584160177
20
31.8316918090138
30
0
0
VERTEX
8
0
10
104.553362102395
20
31.8264169217498
30
0
0
VERTEX
8
0
10
105.190882603019
20
31.8211420344858
30
0
0
VERTEX
8
0
10
105.828403103643
20
31.7883433113734
30
0
0
VERTEX
8
0
10
106.465923604268
20
31.7487816568934
30
0
0
VERTEX
8
0
10
107.103444104892
20
31.7092200024135
30
0
0
VERTEX
8
0
10
107.740964605516
20
31.6696583479335
30
0
0
VERTEX
8
0
10
108.378485106141
20
31.6475882220727
30
0
0
VERTEX
8
0
10
109.016005606765
20
31.6344010039127
30
0
0
VERTEX
8
0
10
109.65352610739
20
31.6212137857527
30
0
0
VERTEX
8
0
10
110.291046608014
20
31.6080265675927
30
0
0
VERTEX
8
0
10
110.928567108638
20
31.5755041232897
30
0
0
VERTEX
8
0
10
111.566087609263
20
31.5253926942817
30
0
0
VERTEX
8
0
10
112.203608109887
20
31.4752812652738
30
0
0
VERTEX
8
0
10
112.841128610511
20
31.4251698362658
30
0
0
VERTEX
8
0
10
113.478649111136
20
31.3750584072579
30
0
0
VERTEX
8
0
10
114.11616961176
20
31.2993937167163
30
0
0
VERTEX
8
0
10
114.753690112384
20
31.2308201822844
30
0
0
VERTEX
8
0
10
115.391210613009
20
31.1622466478524
30
0
0
VERTEX
8
0
10
116.028731113633
20
31.0936731134204
30
0
0
VERTEX
8
0
10
116.666251614257
20
31.0250995789885
30
0
0
VERTEX
8
0
10
117.303772114882
20
30.9565260445565
30
0
0
VERTEX
8
0
10
117.941292615506
20
30.8879525101246
30
0
0
VERTEX
8
0
10
118.578813116131
20
30.8193789756926
30
0
0
VERTEX
8
0
10
119.216333616755
20
30.7566341120063
30
0
0
VERTEX
8
0
10
119.853854117379
20
30.6933354648384
30
0
0
VERTEX
8
0
10
120.491374618004
20
30.6300368176704
30
0
0
VERTEX
8
0
10
121.128895118628
20
30.5667381705025
30
0
0
VERTEX
8
0
10
121.766415619252
20
30.5034395233345
30
0
0
VERTEX
8
0
10
122.403936119877
20
30.4401408761665
30
0
0
VERTEX
8
0
10
123.041456620501
20
30.3768422289986
30
0
0
VERTEX
8
0
10
123.678977121125
20
30.3135435818306
30
0
0
VERTEX
8
0
10
124.31649762175
20
30.2502449346627
30
0
0
VERTEX
8
0
10
124.954018122374
20
30.1869462874947
30
0
0
VERTEX
8
0
10
125.591538622998
20
30.1236476403267
30
0
0
VERTEX
8
0
10
126.229059123623
20
30.0603489931588
30
0
0
VERTEX
8
0
10
126.866579624247
20
29.9970503459908
30
0
0
VERTEX
8
0
10
127.504100124872
20
29.9337516988229
30
0
0
VERTEX
8
0
10
128.141620625496
20
29.8704530516549
30
0
0
VERTEX
8
0
10
128.77914112612
20
29.807154404487
30
0
0
VERTEX
8
0
10
129.416661626745
20
29.7424136830673
30
0
0
VERTEX
8
0
10
130.054182127369
20
29.6764775922673
30
0
0
VERTEX
8
0
10
130.691702627993
20
29.6105415014674
30
0
0
VERTEX
8
0
10
131.329223128618
20
29.5446054106674
30
0
0
VERTEX
8
0
10
131.966743629242
20
29.4786693198675
30
0
0
VERTEX
8
0
10
132.604264129866
20
29.4127332290675
30
0
0
VERTEX
8
0
10
133.241784630491
20
29.3467971382675
30
0
0
VERTEX
8
0
10
133.879305131115
20
29.2808610474676
30
0
0
VERTEX
8
0
10
134.516825631739
20
29.2149249566676
30
0
0
VERTEX
8
0
10
135.154346132364
20
29.2225433869776
30
0
0
VERTEX
8
0
10
135.791866632988
20
29.2146310560816
30
0
0
VERTEX
8
0
10
136.429387133612
20
29.2067187251856
30
0
0
VERTEX
8
0
10
137.066907634237
20
29.1988063942896
30
0
0
VERTEX
8
0
10
137.704428134861
20
29.1998200295223
30
0
0
VERTEX
8
0
10
138.341948635485
20
29.1998200295223
30
0
0
VERTEX
8
0
10
138.97946913611
20
29.1998200295223
30
0
0
VERTEX
8
0
10
139.616989636734
20
29.1998200295223
30
0
0
VERTEX
8
0
10
140.254510137358
20
29.1998200295223
30
0
0
VERTEX
8
0
10
140.892030637983
20
29.1998200295223
30
0
0
VERTEX
8
0
10
141.529551138607
20
29.1998200295223
30
0
0
VERTEX
8
0
10
142.167071639231
20
29.1998200295223
30
0
0
VERTEX
8
0
10
142.804592139856
20
29.1998200295223
30
0
0
VERTEX
8
0
10
143.44211264048
20
29.1998200295223
30
0
0
VERTEX
8
0
10
144.079633141104
20
29.1998200295223
30
0
0
VERTEX
8
0
10
144.717153641729
20
29.1998200295223
30
0
0
VERTEX
8
0
10
145.354674142353
20
29.1661397578848
30
0
0
VERTEX
8
0
10
145.992194642978
20
29.1186657725088
30
0
0
VERTEX
8
0
10
146.629715143602
20
29.0711917871329
30
0
0
VERTEX
8
0
10
147.267235644226
20
29.0237178017569
30
0
0
VERTEX
8
0
10
147.904756144851
20
28.9972866692863
30
0
0
VERTEX
8
0
10
148.542276645475
20
28.9867368947583
30
0
0
VERTEX
8
0
10
149.179797146099
20
28.9761871202303
30
0
0
VERTEX
8
0
10
149.817317646724
20
28.9656373457023
30
0
0
VERTEX
8
0
10
150.454838147348
20
28.9550875711743
30
0
0
VERTEX
8
0
10
151.092358647972
20
28.9596275537405
30
0
0
VERTEX
8
0
10
151.729879148597
20
28.9596275537405
30
0
0
VERTEX
8
0
10
152.367399649221
20
28.9596275537405
30
0
0
VERTEX
8
0
10
153.004920149845
20
28.9596275537405
30
0
0
VERTEX
8
0
10
153.64244065047
20
28.9596275537405
30
0
0
VERTEX
8
0
10
154.279961151094
20
28.9596275537405
30
0
0
VERTEX
8
0
10
154.917481651718
20
28.9596275537405
30
0
0
SEQEND
8
0
0
POLYLINE
8
0
62
6
70
0
10
0
20
0
30
0
0
VERTEX
8
0
10
23.5882585231012
20
8.634441167154
30
0
0
VERTEX
8
0
10
24.2257790237256
20
8.87972342492984
30
0
0
VERTEX
8
0
10
24.8632995243499
20
9.12500568270567
30
0
0
VERTEX
8
0
10
25.5008200249743
20
9.37028794048151
30
0
0
VERTEX
8
0
10
26.1383405255987
20
9.61557019825735
30
0
0
VERTEX
8
0
10
26.775861026223
20
9.87526018768937
30
0
0
VERTEX
8
0
10
27.4133815268474
20
10.1310922199932
30
0
0
VERTEX
8
0
10
28.0509020274717
20
10.386924252297
30
0
0
VERTEX
8
0
10
28.6884225280961
20
10.6427562846009
30
0
0
VERTEX
8
0
10
29.3259430287204
20
10.8985883169047
30
0
0
VERTEX
8
0
10
29.9634635293448
20
11.1544203492085
30
0
0
VERTEX
8
0
10
30.6009840299692
20
11.4102523815124
30
0
0
VERTEX
8
0
10
31.2385045305935
20
11.6660844138162
30
0
0
VERTEX
8
0
10
31.8760250312179
20
11.92191644612
30
0
0
VERTEX
8
0
10
32.5135455318422
20
12.1777484784239
30
0
0
VERTEX
8
0
10
33.1510660324666
20
12.4335805107277
30
0
0
VERTEX
8
0
10
33.788586533091
20
12.6894125430315
30
0
0
VERTEX
8
0
10
34.4261070337153
20
12.9427468382621
30
0
0
VERTEX
8
0
10
35.0636275343397
20
13.195941426934
30
0
0
VERTEX
8
0
10
35.701148034964
20
13.4491360156058
30
0
0
VERTEX
8
0
10
36.3386685355884
20
13.7023306042776
30
0
0
VERTEX
8
0
10
36.9761890362127
20
13.9576548647424
30
0
0
VERTEX
8
0
10
37.6137095368371
20
14.2134868970462
30
0
0
VERTEX
8
0
10
38.2512300374615
20
14.4693189293501
30
0
0
VERTEX
8
0
10
38.8887505380858
20
14.7251509616539
30
0
0
VERTEX
8
0
10
39.5262710387102
20
14.9809829939577
30
0
0
VERTEX
8
0
10
40.1637915393345
20
15.2368150262616
30
0
0
VERTEX
8
0
10
40.8013120399589
20
15.4926470585654
30
0
0
VERTEX
8
0
10
41.4388325405832
20
15.7484790908692
30
0
0
VERTEX
8
0
10
42.0763530412076
20
15.9931627933138
30
0
0
VERTEX
8
0
10
42.713873541832
20
16.2278952765616
30
0
0
VERTEX
8
0
10
43.3513940424563
20
16.4626277598095
30
0
0
VERTEX
8
0
10
43.9889145430807
20
16.6973602430573
30
0
0
VERTEX
8
0
10
44.626435043705
20
16.9320927263052
30
0
0
VERTEX
8
0
10
45.2639555443294
20
17.0789151395338
30
0
0
VERTEX
8
0
10
45.9014760449537
20
17.2503489756137
30
0
0
VERTEX
8
0
10
46.5389965455781
20
17.4217828116936
30
0
0
VERTEX
8
0
10
47.1765170462025
20
17.5932166477735
30
0
0
VERTEX
8
0
10
47.8140375468268
20
17.7481762123341
30
0
0
VERTEX
8
0
10
48.4515580474512
20
17.906422830254
30
0
0
VERTEX
8
0
10
49.0890785480755
20
18.0646694481739
30
0
0
VERTEX
8
0
10
49.7265990486999
20
18.2229160660938
30
0
0
VERTEX
8
0
10
50.3641195493243
20
18.3840894730373
30
0
0
VERTEX
8
0
10
51.0016400499486
20
18.5449735345891
30
0
0
VERTEX
8
0
10
51.639160550573
20
18.705857596141
30
0
0
VERTEX
8
0
10
52.2766810511973
20
18.8667416576929
30
0
0
VERTEX
8
0
10
52.9142015518217
20
19.0276257192448
30
0
0
VERTEX
8
0
10
53.551722052446
20
19.1885097807967
30
0
0
VERTEX
8
0
10
54.1892425530704
20
19.3493938423486
30
0
0
VERTEX
8
0
10
54.8267630536948
20
19.5102779039005
30
0
0
VERTEX
8
0
10
55.4642835543191
20
19.6689713069894
30
0
0
VERTEX
8
0
10
56.1018040549435
20
19.8272179249093
30
0
0
VERTEX
8
0
10
56.7393245555678
20
19.9854645428291
30
0
0
VERTEX
8
0
10
57.3768450561922
20
20.143711160749
30
0
0
VERTEX
8
0
10
58.0143655568166
20
20.3019577786689
30
0
0
VERTEX
8
0
10
58.6518860574409
20
20.4602043965888
30
0
0
VERTEX
8
0
10
59.2894065580653
20
20.6184510145087
30
0
0
VERTEX
8
0
10
59.9269270586896
20
20.7766976324286
30
0
0
VERTEX
8
0
10
60.564447559314
20
20.936398778251
30
0
0
VERTEX
8
0
10
61.2019680599383
20
21.0972828398029
30
0
0
VERTEX
8
0
10
61.8394885605627
20
21.2581669013548
30
0
0
VERTEX
8
0
10
62.4770090611871
20
21.4190509629067
30
0
0
VERTEX
8
0
10
63.1145295618114
20
21.5799350244586
30
0
0
VERTEX
8
0
10
63.7520500624358
20
21.7408190860105
30
0
0
VERTEX
8
0
10
64.3895705630601
20
21.9017031475624
30
0
0
VERTEX
8
0
10
65.0270910636845
20
22.0625872091143
30
0
0
VERTEX
8
0
10
65.6646115643088
20
22.2234712706662
30
0
0
VERTEX
8
0
10
66.3021320649332
20
22.3675761273483
30
0
0
VERTEX
8
0
10
66.9396525655576
20
22.5152729707402
30
0
0
VERTEX
8
0
10
67.5771730661819
20
22.6629698141321
30
0
0
VERTEX
8
0
10
68.2146935668063
20
22.810666657524
30
0
0
VERTEX
8
0
10
68.8522140674306
20
22.9464123981412
30
0
0
VERTEX
8
0
10
69.489734568055
20
23.0835594670051
30
0
0
VERTEX
8
0
10
70.1272550686793
20
23.220706535869
30
0
0
VERTEX
8
0
10
70.7647755693037
20
23.357853604733
30
0
0
VERTEX
8
0
10
71.4022960699281
20
23.4950006735969
30
0
0
VERTEX
8
0
10
72.0398165705524
20
23.6321477424608
30
0
0
VERTEX
8
0
10
72.6773370711768
20
23.7692948113247
30
0
0
VERTEX
8
0
10
73.3148575718011
20
23.9064418801886
30
0
0
VERTEX
8
0
10
73.9523780724255
20
24.0458405941856
30
0
0
VERTEX
8
0
10
74.5898985730499
20
24.1856251066815
30
0
0
VERTEX
8
0
10
75.2274190736742
20
24.3254096191774
30
0
0
VERTEX
8
0
10
75.8649395742986
20
24.4651941316733
30
0
0
VERTEX
8
0
10
76.5024600749229
20
24.6049786441692
30
0
0
VERTEX
8
0
10
77.1399805755473
20
24.7447631566651
30
0
0
VERTEX
8
0
10
77.7775010761716
20
24.8845476691611
30
0
0
VERTEX
8
0
10
78.415021576796
20
25.024332181657
30
0
0
VERTEX
8
0
10
79.0525420774204
20
25.1595701504351
30
0
0
VERTEX
8
0
10
79.6900625780447
20
25.291442332035
30
0
0
VERTEX
8
0
10
80.3275830786691
20
25.423314513635
30
0
0
VERTEX
8
0
10
80.9651035792934
20
25.5551866952349
30
0
0
VERTEX
8
0
10
81.6026240799178
20
25.6870588768348
30
0
0
VERTEX
8
0
10
82.2401445805422
20
25.8340706301319
30
0
0
VERTEX
8
0
10
82.8776650811665
20
25.9764925862598
30
0
0
VERTEX
8
0
10
83.5151855817909
20
26.1189145423877
30
0
0
VERTEX
8
0
10
84.1527060824152
20
26.2613364985156
30
0
0
VERTEX
8
0
10
84.7902265830396
20
26.3935079717114
30
0
0
VERTEX
8
0
10
85.4277470836639
20
26.5280175969434
30
0
0
VERTEX
8
0
10
86.0652675842883
20
26.6625272221753
30
0
0
VERTEX
8
0
10
86.7027880849127
20
26.7970368474072
30
0
0
VERTEX
8
0
10
87.340308585537
20
26.9406927597304
30
0
0
VERTEX
8
0
10
87.9778290861614
20
27.0831147158583
30
0
0
VERTEX
8
0
10
88.6153495867857
20
27.2255366719862
30
0
0
VERTEX
8
0
10
89.2528700874101
20
27.3679586281141
30
0
0
VERTEX
8
0
10
89.8903905880344
20
27.5318261609099
30
0
0
VERTEX
8
0
10
90.5279110886588
20
27.6953476660938
30
0
0
VERTEX
8
0
10
91.1654315892832
20
27.8588691712777
30
0
0
VERTEX
8
0
10
91.8029520899075
20
28.0223906764616
30
0
0
VERTEX
8
0
10
92.4404725905319
20
28.1951627088583
30
0
0
VERTEX
8
0
10
93.0779930911562
20
28.3692339885702
30
0
0
VERTEX
8
0
10
93.7155135917806
20
28.5433052682821
30
0
0
VERTEX
8
0
10
94.3530340924049
20
28.717376547994
30
0
0
VERTEX
8
0
10
94.9905545930293
20
28.88755869466
30
0
0
VERTEX
8
0
10
95.6280750936537
20
29.0563550871079
30
0
0
VERTEX
8
0
10
96.265595594278
20
29.2251514795557
30
0
0
VERTEX
8
0
10
96.9031160949024
20
29.3939478720036
30
0
0
VERTEX
8
0
10
97.5406365955267
20
29.5643207656942
30
0
0
VERTEX
8
0
10
98.1781570961511
20
29.7357546017741
30
0
0
VERTEX
8
0
10
98.8156775967754
20
29.907188437854
30
0
0
VERTEX
8
0
10
99.4531980973998
20
30.0786222739338
30
0
0
VERTEX
8
0
10
100.090718598024
20
30.2500561100137
30
0
0
VERTEX
8
0
10
100.728239098649
20
30.4137981869048
30
0
0
VERTEX
8
0
10
101.365759599273
20
30.5799571357207
30
0
0
VERTEX
8
0
10
102.003280099897
20
30.7461160845366
30
0
0
VERTEX
8
0
10
102.640800600522
20
30.9122750333525
30
0
0
VERTEX
8
0
10
103.278321101146
20
31.0540892819696
30
0
0
VERTEX
8
0
10
103.91584160177
20
31.2017861253615
30
0
0
VERTEX
8
0
10
104.553362102395
20
31.3494829687534
30
0
0
VERTEX
8
0
10
105.190882603019
20
31.4971798121453
30
0
0
VERTEX
8
0
10
105.828403103643
20
31.750608122688
30
0
0
VERTEX
8
0
10
106.465923604268
20
31.9879780495678
30
0
0
VERTEX
8
0
10
107.103444104892
20
32.2253479764477
30
0
0
VERTEX
8
0
10
107.740964605516
20
32.4627179033275
30
0
0
VERTEX
8
0
10
108.378485106141
20
32.593162163818
30
0
0
VERTEX
8
0
10
109.016005606765
20
32.7276717890499
30
0
0
VERTEX
8
0
10
109.65352610739
20
32.8621814142818
30
0
0
VERTEX
8
0
10
110.291046608014
20
32.9966910395137
30
0
0
VERTEX
8
0
10
110.928567108638
20
33.1929147450514
30
0
0
VERTEX
8
0
10
111.566087609263
20
33.3959979047153
30
0
0
VERTEX
8
0
10
112.203608109887
20
33.5990810643792
30
0
0
VERTEX
8
0
10
112.841128610511
20
33.802164224043
30
0
0
VERTEX
8
0
10
113.478649111136
20
34.0192862560581
30
0
0
VERTEX
8
0
10
114.11616961176
20
34.240831521146
30
0
0
VERTEX
8
0
10
114.753690112384
20
34.4623767862338
30
0
0
VERTEX
8
0
10
115.391210613009
20
34.6839220513217
30
0
0
VERTEX
8
0
10
116.028731113633
20
34.9054673164095
30
0
0
VERTEX
8
0
10
116.666251614257
20
35.1270125814974
30
0
0
VERTEX
8
0
10
117.303772114882
20
35.3485578465852
30
0
0
VERTEX
8
0
10
117.941292615506
20
35.5701031116731
30
0
0
VERTEX
8
0
10
118.578813116131
20
35.7916483767609
30
0
0
VERTEX
8
0
10
119.216333616755
20
36.0053799093198
30
0
0
VERTEX
8
0
10
119.853854117379
20
36.2216502871437
30
0
0
VERTEX
8
0
10
120.491374618004
20
36.4379206649675
30
0
0
VERTEX
8
0
10
121.128895118628
20
36.6541910427914
30
0
0
VERTEX
8
0
10
121.766415619252
20
36.8740002215994
30
0
0
VERTEX
8
0
10
122.403936119877
20
37.0929080430553
30
0
0
VERTEX
8
0
10
123.041456620501
20
37.3118158645112
30
0
0
VERTEX
8
0
10
123.678977121125
20
37.530723685967
30
0
0
VERTEX
8
0
10
124.31649762175
20
37.7528022431268
30
0
0
VERTEX
8
0
10
124.954018122374
20
37.9743475082146
30
0
0
VERTEX
8
0
10
125.591538622998
20
38.1958927733025
30
0
0
VERTEX
8
0
10
126.229059123623
20
38.4174380383904
30
0
0
VERTEX
8
0
10
126.866579624247
20
38.6333779626309
30
0
0
VERTEX
8
0
10
127.504100124872
20
38.8496483404547
30
0
0
VERTEX
8
0
10
128.141620625496
20
39.0659187182786
30
0
0
VERTEX
8
0
10
128.77914112612
20
39.2821890961024
30
0
0
VERTEX
8
0
10
129.416661626745
20
39.5008940790697
30
0
0
VERTEX
8
0
10
130.054182127369
20
39.7198019005255
30
0
0
VERTEX
8
0
10
130.691702627993
20
39.9387097219814
30
0
0
VERTEX
8
0
10
131.329223128618
20
40.1576175434372
30
0
0
VERTEX
8
0
10
131.966743629242
20
40.3723922851669
30
0
0
VERTEX
8
0
10
132.604264129866
20
40.5860252193587
30
0
0
VERTEX
8
0
10
133.241784630491
20
40.7996581535506
30
0
0
VERTEX
8
0
10
133.879305131115
20
41.0132910877424
30
0
0
VERTEX
8
0
10
134.516825631739
20
41.2014469031917
30
0
0
VERTEX
8
0
10
135.154346132364
20
41.3755181829035
30
0
0
VERTEX
8
0
10
135.791866632988
20
41.5495894626154
30
0
0
VERTEX
8
0
10
136.429387133612
20
41.7236607423273
30
0
0
VERTEX
8
0
10
137.066907634237
20
41.8977320220392
30
0
0
VERTEX
8
0
10
137.704428134861
20
42.0718033017511
30
0
0
VERTEX
8
0
10
138.341948635485
20
42.2458745814629
30
0
0
VERTEX
8
0
10
138.97946913611
20
42.4199458611748
30
0
0
VERTEX
8
0
10
139.616989636734
20
42.5940171408867
30
0
0
VERTEX
8
0
10
140.254510137358
20
42.7680884205986
30
0
0
VERTEX
8
0
10
140.892030637983
20
42.9421597003105
30
0
0
VERTEX
8
0
10
141.529551138607
20
43.1162309800223
30
0
0
VERTEX
8
0
10
142.167071639231
20
43.2903022597342
30
0
0
VERTEX
8
0
10
142.804592139856
20
43.4643735394461
30
0
0
VERTEX
8
0
10
143.44211264048
20
43.638444819158
30
0
0
VERTEX
8
0
10
144.079633141104
20
43.8125160988699
30
0
0
VERTEX
8
0
10
144.717153641729
20
43.9865873785817
30
0
0
VERTEX
8
0
10
145.354674142353
20
44.1606586582936
30
0
0
VERTEX
8
0
10
145.992194642978
20
44.3347299380055
30
0
0
VERTEX
8
0
10
146.629715143602
20
44.5088012177174
30
0
0
VERTEX
8
0
10
147.267235644226
20
44.6828724974293
30
0
0
VERTEX
8
0
10
147.904756144851
20
44.8594393689546
30
0
0
VERTEX
8
0
10
148.542276645475
20
45.0361480922985
30
0
0
VERTEX
8
0
10
149.179797146099
20
45.2128568156424
30
0
0
VERTEX
8
0
10
149.817317646724
20
45.3895655389863
30
0
0
VERTEX
8
0
10
150.454838147348
20
45.5641467357969
30
0
0
VERTEX
8
0
10
151.092358647972
20
45.7382180155088
30
0
0
VERTEX
8
0
10
151.729879148597
20
45.9122892952207
30
0
0
VERTEX
8
0
10
152.367399649221
20
46.0863605749326
30
0
0
VERTEX
8
0
10
153.004920149845
20
46.2559159040953
30
0
0
VERTEX
8
0
10
153.64244065047
20
46.4232177451517
30
0
0
VERTEX
8
0
10
154.279961151094
20
46.5905195862081
30
0
0
VERTEX
8
0
10
154.917481651718
20
46.7578214272645
30
0
0
SEQEND
8
0
0
POLYLINE
8
0
62
6
70
0
10
0
20
0
30
0
0
VERTEX
8
0
10
23.5882585231012
20
35.5189220199342
30
0
0
VERTEX
8
0
10
24.2257790237256
20
36.0859724008138
30
0
0
VERTEX
8
0
10
24.8632995243499
20
36.6530227816934
30
0
0
VERTEX
8
0
10
25.5008200249743
20
37.2200731625731
30
0
0
VERTEX
8
0
10
26.1383405255987
20
37.8125648057109
30
0
0
VERTEX
8
0
10
26.775861026223
20
38.4139019538065
30
0
0
VERTEX
8
0
10
27.4133815268474
20
39.0152391019021
30
0
0
VERTEX
8
0
10
28.0509020274717
20
39.6165762499977
30
0
0
VERTEX
8
0
10
28.6884225280961
20
40.2163244431999
30
0
0
VERTEX
8
0
10
29.3259430287204
20
40.8150241476635
30
0
0
VERTEX
8
0
10
29.9634635293448
20
41.4137238521271
30
0
0
VERTEX
8
0
10
30.6009840299692
20
42.0124235565907
30
0
0
VERTEX
8
0
10
31.2385045305935
20
42.6111232610543
30
0
0
VERTEX
8
0
10
31.8760250312179
20
43.2098229655179
30
0
0
VERTEX
8
0
10
32.5135455318422
20
43.8085226699815
30
0
0
VERTEX
8
0
10
33.1510660324666
20
44.4072223744451
30
0
0
VERTEX
8
0
10
33.788586533091
20
45.0059220789087
30
0
0
VERTEX
8
0
10
34.4261070337153
20
45.5801899076181
30
0
0
VERTEX
8
0
10
35.0636275343397
20
46.1604275066577
30
0
0
VERTEX
8
0
10
35.701148034964
20
46.7406651056973
30
0
0
VERTEX
8
0
10
36.3386685355884
20
47.3209027047369
30
0
0
VERTEX
8
0
10
36.9761890362127
20
47.9198735198842
30
0
0
VERTEX
8
0
10
37.6137095368371
20
48.5159357807158
30
0
0
VERTEX
8
0
10
38.2512300374615
20
49.1119980415474
30
0
0
VERTEX
8
0
10
38.8887505380858
20
49.708060302379
30
0
0
VERTEX
8
0
10
39.5262710387102
20
50.306876700615
30
0
0
VERTEX
8
0
10
40.1637915393345
20
50.9055764050786
30
0
0
VERTEX
8
0
10
40.8013120399589
20
51.5042761095422
30
0
0
VERTEX
8
0
10
41.4388325405832
20
52.1029758140058
30
0
0
VERTEX
8
0
10
42.0763530412076
20
52.6778147972287
30
0
0
VERTEX
8
0
10
42.713873541832
20
53.2501400653723
30
0
0
VERTEX
8
0
10
43.3513940424563
20
53.822465333516
30
0
0
VERTEX
8
0
10
43.9889145430807
20
54.3947906016596
30
0
0
VERTEX
8
0
10
44.626435043705
20
54.8520894797069
30
0
0
VERTEX
8
0
10
45.2639555443294
20
55.2740804608266
30
0
0
VERTEX
8
0
10
45.9014760449537
20
55.6960714419463
30
0
0
VERTEX
8
0
10
46.5389965455781
20
56.1180624230661
30
0
0
VERTEX
8
0
10
47.1765170462025
20
56.521904046987
30
0
0
VERTEX
8
0
10
47.8140375468268
20
56.9148831481548
30
0
0
VERTEX
8
0
10
48.4515580474512
20
57.3078622493225
30
0
0
VERTEX
8
0
10
49.0890785480755
20
57.7008413504903
30
0
0
VERTEX
8
0
10
49.7265990486999
20
58.093820451658
30
0
0
VERTEX
8
0
10
50.3641195493243
20
58.4789609129952
30
0
0
VERTEX
8
0
10
51.0016400499486
20
58.866665126899
30
0
0
VERTEX
8
0
10
51.639160550573
20
59.2543693408027
30
0
0
VERTEX
8
0
10
52.2766810511973
20
59.6420735547065
30
0
0
VERTEX
8
0
10
52.9142015518217
20
60.0226752593403
30
0
0
VERTEX
8
0
10
53.551722052446
20
60.40510458598
30
0
0
VERTEX
8
0
10
54.1892425530704
20
60.7875339126198
30
0
0
VERTEX
8
0
10
54.8267630536948
20
61.1699632392595
30
0
0
VERTEX
8
0
10
55.4642835543191
20
61.555575755254
30
0
0
VERTEX
8
0
10
56.1018040549435
20
61.9406425255257
30
0
0
VERTEX
8
0
10
56.7393245555678
20
62.3257092957975
30
0
0
VERTEX
8
0
10
57.3768450561922
20
62.7107760660692
30
0
0
VERTEX
8
0
10
58.0143655568166
20
63.0986579604154
30
0
0
VERTEX
8
0
10
58.6518860574409
20
63.4863621743191
30
0
0
VERTEX
8
0
10
59.2894065580653
20
63.8740663882228
30
0
0
VERTEX
8
0
10
59.9269270586896
20
64.2617706021266
30
0
0
VERTEX
8
0
10
60.564447559314
20
64.644580698442
30
0
0
VERTEX
8
0
10
61.2019680599383
20
65.0270100250818
30
0
0
VERTEX
8
0
10
61.8394885605627
20
65.4094393517215
30
0
0
VERTEX
8
0
10
62.4770090611871
20
65.7918686783613
30
0
0
VERTEX
8
0
10
63.1145295618114
20
66.1805349855427
30
0
0
VERTEX
8
0
10
63.7520500624358
20
66.5708766430784
30
0
0
VERTEX
8
0
10
64.3895705630601
20
66.9612183006141
30
0
0
VERTEX
8
0
10
65.0270910636845
20
67.3515599581499
30
0
0
VERTEX
8
0
10
65.6646115643088
20
67.7111049074806
30
0
0
VERTEX
8
0
10
66.3021320649332
20
68.0539725796404
30
0
0
VERTEX
8
0
10
66.9396525655576
20
68.3968402518002
30
0
0
VERTEX
8
0
10
67.5771730661819
20
68.73970792396
30
0
0
VERTEX
8
0
10
68.2146935668063
20
69.063775514773
30
0
0
VERTEX
8
0
10
68.8522140674306
20
69.3697189760848
30
0
0
VERTEX
8
0
10
69.489734568055
20
69.6756624373966
30
0
0
VERTEX
8
0
10
70.1272550686793
20
69.9816058987084
30
0
0
VERTEX
8
0
10
70.7647755693037
20
70.2875493600202
30
0
0
VERTEX
8
0
10
71.4022960699281
20
70.5862683387219
30
0
0
VERTEX
8
0
10
72.0398165705524
20
70.8869369127697
30
0
0
VERTEX
8
0
10
72.6773370711768
20
71.1876054868175
30
0
0
VERTEX
8
0
10
73.3148575718011
20
71.4882740608653
30
0
0
VERTEX
8
0
10
73.9523780724255
20
71.7954309869627
30
0
0
VERTEX
8
0
10
74.5898985730499
20
72.1013744482745
30
0
0
VERTEX
8
0
10
75.2274190736742
20
72.4073179095863
30
0
0
VERTEX
8
0
10
75.8649395742986
20
72.7132613708981
30
0
0
VERTEX
8
0
10
76.5024600749229
20
73.0163287214654
30
0
0
VERTEX
8
0
10
77.1399805755473
20
73.3196347391452
30
0
0
VERTEX
8
0
10
77.7775010761716
20
73.622940756825
30
0
0
VERTEX
8
0
10
78.415021576796
20
73.9262467745048
30
0
0
VERTEX
8
0
10
79.0525420774204
20
74.2320608376488
30
0
0
VERTEX
8
0
10
79.6900625780447
20
74.5380042989606
30
0
0
VERTEX
8
0
10
80.3275830786691
20
74.8439477602724
30
0
0
VERTEX
8
0
10
80.9651035792934
20
75.1498912215842
30
0
0
VERTEX
8
0
10
81.6026240799178
20
75.453694702712
30
0
0
VERTEX
8
0
10
82.2401445805422
20
75.7570007203918
30
0
0
VERTEX
8
0
10
82.8776650811665
20
76.0603067380716
30
0
0
VERTEX
8
0
10
83.5151855817909
20
76.3636127557514
30
0
0
VERTEX
8
0
10
84.1527060824152
20
76.6686906883349
30
0
0
VERTEX
8
0
10
84.7902265830396
20
76.9746341496467
30
0
0
VERTEX
8
0
10
85.4277470836639
20
77.2805776109585
30
0
0
VERTEX
8
0
10
86.0652675842883
20
77.5865210722703
30
0
0
VERTEX
8
0
10
86.7027880849127
20
77.8896568343353
30
0
0
VERTEX
8
0
10
87.340308585537
20
78.190325408383
30
0
0
VERTEX
8
0
10
87.9778290861614
20
78.4909939824309
30
0
0
VERTEX
8
0
10
88.6153495867857
20
78.7916625564787
30
0
0
VERTEX
8
0
10
89.2528700874101
20
79.0923311305265
30
0
0
VERTEX
8
0
10
89.8903905880344
20
79.3415745129222
30
0
0
VERTEX
8
0
10
90.5279110886588
20
79.605318876122
30
0
0
VERTEX
8
0
10
91.1654315892832
20
79.8690632393218
30
0
0
VERTEX
8
0
10
91.8029520899075
20
80.1328076025217
30
0
0
VERTEX
8
0
10
92.4404725905319
20
80.3800261522471
30
0
0
VERTEX
8
0
10
93.0779930911562
20
80.6305832972869
30
0
0
VERTEX
8
0
10
93.7155135917806
20
80.8811404423268
30
0
0
VERTEX
8
0
10
94.3530340924049
20
81.1316975873666
30
0
0
VERTEX
8
0
10
94.9905545930293
20
81.3881289272356
30
0
0
VERTEX
8
0
10
95.6280750936537
20
81.6439609595395
30
0
0
VERTEX
8
0
10
96.265595594278
20
81.8997929918433
30
0
0
VERTEX
8
0
10
96.9031160949024
20
82.1556250241471
30
0
0
VERTEX
8
0
10
97.5406365955267
20
82.411457056451
30
0
0
VERTEX
8
0
10
98.1781570961511
20
82.6672890887548
30
0
0
VERTEX
8
0
10
98.8156775967754
20
82.9231211210586
30
0
0
VERTEX
8
0
10
99.4531980973998
20
83.1789531533625
30
0
0
VERTEX
8
0
10
100.090718598024
20
83.4347851856663
30
0
0
VERTEX
8
0
10
100.728239098649
20
83.6906172179701
30
0
0
VERTEX
8
0
10
101.365759599273
20
83.946449250274
30
0
0
VERTEX
8
0
10
102.003280099897
20
84.2022812825778
30
0
0
VERTEX
8
0
10
102.640800600522
20
84.4544475117341
30
0
0
VERTEX
8
0
10
103.278321101146
20
84.7050046567739
30
0
0
VERTEX
8
0
10
103.91584160177
20
84.9555618018137
30
0
0
VERTEX
8
0
10
104.553362102395
20
85.2061189468536
30
0
0
VERTEX
8
0
10
105.190882603019
20
85.4566760918934
30
0
0
VERTEX
8
0
10
105.828403103643
20
85.7072332369332
30
0
0
VERTEX
8
0
10
106.465923604268
20
85.9577903819731
30
0
0
VERTEX
8
0
10
107.103444104892
20
86.2083475270129
30
0
0
VERTEX
8
0
10
107.740964605516
20
86.4589046720527
30
0
0
VERTEX
8
0
10
108.378485106141
20
86.716930246383
30
0
0
VERTEX
8
0
10
109.016005606765
20
86.9727622786869
30
0
0
VERTEX
8
0
10
109.65352610739
20
87.2285943109907
30
0
0
VERTEX
8
0
10
110.291046608014
20
87.4844263432945
30
0
0
VERTEX
8
0
10
110.928567108638
20
87.7200614794086
30
0
0
VERTEX
8
0
10
111.566087609263
20
87.9600688499204
30
0
0
VERTEX
8
0
10
112.203608109887
20
88.2000762204323
30
0
0
VERTEX
8
0
10
112.841128610511
20
88.4400835909441
30
0
0
VERTEX
8
0
10
113.478649111136
20
88.6740947932866
30
0
0
VERTEX
8
0
10
114.11616961176
20
88.9088272765344
30
0
0
VERTEX
8
0
10
114.753690112384
20
89.1435597597823
30
0
0
VERTEX
8
0
10
115.391210613009
20
89.3782922430301
30
0
0
VERTEX
8
0
10
116.028731113633
20
89.6103947074735
30
0
0
VERTEX
8
0
10
116.666251614257
20
89.8424897470894
30
0
0
VERTEX
8
0
10
117.303772114882
20
90.0745847867052
30
0
0
VERTEX
8
0
10
117.941292615506
20
90.3066798263211
30
0
0
VERTEX
8
0
10
118.578813116131
20
90.5410368194611
30
0
0
VERTEX
8
0
10
119.216333616755
20
90.7757693027089
30
0
0
VERTEX
8
0
10
119.853854117379
20
91.0105017859567
30
0
0
VERTEX
8
0
10
120.491374618004
20
91.2452342692046
30
0
0
VERTEX
8
0
10
121.128895118628
20
91.4799667524525
30
0
0
VERTEX
8
0
10
121.766415619252
20
91.7146992357003
30
0
0
VERTEX
8
0
10
122.403936119877
20
91.9494317189481
30
0
0
VERTEX
8
0
10
123.041456620501
20
92.184164202196
30
0
0
VERTEX
8
0
10
123.678977121125
20
92.4173708624802
30
0
0
VERTEX
8
0
10
124.31649762175
20
92.6494659020961
30
0
0
VERTEX
8
0
10
124.954018122374
20
92.8815609417119
30
0
0
VERTEX
8
0
10
125.591538622998
20
93.1136559813278
30
0
0
VERTEX
8
0
10
126.229059123623
20
93.3457510209436
30
0
0
VERTEX
8
0
10
126.866579624247
20
93.5854364631901
30
0
0
VERTEX
8
0
10
127.504100124872
20
93.8228063900699
30
0
0
VERTEX
8
0
10
128.141620625496
20
94.0601763169498
30
0
0
VERTEX
8
0
10
128.77914112612
20
94.2975462438296
30
0
0
VERTEX
8
0
10
129.416661626745
20
94.5280618986394
30
0
0
VERTEX
8
0
10
130.054182127369
20
94.7601569382552
30
0
0
VERTEX
8
0
10
130.691702627993
20
94.992251977871
30
0
0
VERTEX
8
0
10
131.329223128618
20
95.2243470174869
30
0
0
VERTEX
8
0
10
131.966743629242
20
95.4625601986123
30
0
0
VERTEX
8
0
10
132.604264129866
20
95.6999301254921
30
0
0
VERTEX
8
0
10
133.241784630491
20
95.9373000523719
30
0
0
VERTEX
8
0
10
133.879305131115
20
96.1746699792518
30
0
0
VERTEX
8
0
10
134.516825631739
20
96.3878208568611
30
0
0
VERTEX
8
0
10
135.154346132364
20
96.6014537910529
30
0
0
VERTEX
8
0
10
135.791866632988
20
96.8150867252448
30
0
0
VERTEX
8
0
10
136.429387133612
20
97.0287196594366
30
0
0
VERTEX
8
0
10
137.066907634237
20
97.2423525936285
30
0
0
VERTEX
8
0
10
137.704428134861
20
97.4559855278204
30
0
0
VERTEX
8
0
10
138.341948635485
20
97.6696184620122
30
0
0
VERTEX
8
0
10
138.97946913611
20
97.8832513962041
30
0
0
VERTEX
8
0
10
139.616989636734
20
98.094929455482
30
0
0
VERTEX
8
0
10
140.254510137358
20
98.3059249460418
30
0
0
VERTEX
8
0
10
140.892030637983
20
98.5169204366017
30
0
0
VERTEX
8
0
10
141.529551138607
20
98.7279159271615
30
0
0
VERTEX
8
0
10
142.167071639231
20
98.9404982273551
30
0
0
VERTEX
8
0
10
142.804592139856
20
99.1541311615469
30
0
0
VERTEX
8
0
10
143.44211264048
20
99.3677640957388
30
0
0
VERTEX
8
0
10
144.079633141104
20
99.5813970299306
30
0
0
VERTEX
8
0
10
144.717153641729
20
99.7950299641225
30
0
0
VERTEX
8
0
10
145.354674142353
20
100.008662898314
30
0
0
VERTEX
8
0
10
145.992194642978
20
100.222295832506
30
0
0
VERTEX
8
0
10
146.629715143602
20
100.435928766698
30
0
0
VERTEX
8
0
10
147.267235644226
20
100.64956170089
30
0
0
VERTEX
8
0
10
147.904756144851
20
100.859706512377
30
0
0
VERTEX
8
0
10
148.542276645475
20
101.070702002936
30
0
0
VERTEX
8
0
10
149.179797146099
20
101.281697493496
30
0
0
VERTEX
8
0
10
149.817317646724
20
101.492692984056
30
0
0
VERTEX
8
0
10
150.454838147348
20
101.706808532041
30
0
0
VERTEX
8
0
10
151.092358647972
20
101.920441466233
30
0
0
VERTEX
8
0
10
151.729879148597
20
102.134074400425
30
0
0
VERTEX
8
0
10
152.367399649221
20
102.347707334616
30
0
0
VERTEX
8
0
10
153.004920149845
20
102.558588276664
30
0
0
VERTEX
8
0
10
153.64244065047
20
102.769583767224
30
0
0
VERTEX
8
0
10
154.279961151094
20
102.980579257783
30
0
0
VERTEX
8
0
10
154.917481651718
20
103.191574748343
30
0
0
SEQEND
8
0
0
POLYLINE
8
0
62
1
70
0
10
0
20
0
30
0
0
VERTEX
8
0
10
23.5882585231012
20
20.3797952302901
30
0
0
VERTEX
8
0
10
24.2257790237256
20
20.7395958758049
30
0
0
VERTEX
8
0
10
24.8632995243499
20
21.099886926443
30
0
0
VERTEX
8
0
10
25.5008200249743
20
21.4606436827855
30
0
0
VERTEX
8
0
10
26.1383405255987
20
21.8218430478295
30
0
0
VERTEX
8
0
10
26.775861026223
20
22.1968821248316
30
0
0
VERTEX
8
0
10
27.4133815268474
20
22.5707475302248
30
0
0
VERTEX
8
0
10
28.0509020274717
20
22.9450419475713
30
0
0
VERTEX
8
0
10
28.6884225280961
20
23.3197447192638
30
0
0
VERTEX
8
0
10
29.3259430287204
20
23.6928463188962
30
0
0
VERTEX
8
0
10
29.9634635293448
20
24.0659758273288
30
0
0
VERTEX
8
0
10
30.6009840299692
20
24.4394682730576
30
0
0
VERTEX
8
0
10
31.2385045305935
20
24.8133072671797
30
0
0
VERTEX
8
0
10
31.8760250312179
20
25.1874773790197
30
0
0
VERTEX
8
0
10
32.5135455318422
20
25.5619640681083
30
0
0
VERTEX
8
0
10
33.1510660324666
20
25.9367536217885
30
0
0
VERTEX
8
0
10
33.788586533091
20
26.3118330979225
30
0
0
VERTEX
8
0
10
34.4261070337153
20
26.687295108559
30
0
0
VERTEX
8
0
10
35.0636275343397
20
27.0639258237751
30
0
0
VERTEX
8
0
10
35.701148034964
20
27.4407907067822
30
0
0
VERTEX
8
0
10
36.3386685355884
20
27.817880240363
30
0
0
VERTEX
8
0
10
36.9761890362127
20
28.1962395767288
30
0
0
VERTEX
8
0
10
37.6137095368371
20
28.5685198003955
30
0
0
VERTEX
8
0
10
38.2512300374615
20
28.9430012983916
30
0
0
VERTEX
8
0
10
38.8887505380858
20
29.3176993793512
30
0
0
VERTEX
8
0
10
39.5262710387102
20
29.6926058439392
30
0
0
VERTEX
8
0
10
40.1637915393345
20
30.0735865684762
30
0
0
VERTEX
8
0
10
40.8013120399589
20
30.4534192961458
30
0
0
VERTEX
8
0
10
41.4388325405832
20
30.8334254090471
30
0
0
VERTEX
8
0
10
42.0763530412076
20
31.207883901075
30
0
0
VERTEX
8
0
10
42.713873541832
20
31.5434699229289
30
0
0
VERTEX
8
0
10
43.3513940424563
20
31.8836862702355
30
0
0
VERTEX
8
0
10
43.9889145430807
20
32.2240516433575
30
0
0
VERTEX
8
0
10
44.626435043705
20
32.564561369434
30
0
0
VERTEX
8
0
10
45.2639555443294
20
32.7317700220724
30
0
0
VERTEX
8
0
10
45.9014760449537
20
32.9135917370128
30
0
0
VERTEX
8
0
10
46.5389965455781
20
33.0956558907985
30
0
0
VERTEX
8
0
10
47.1765170462025
20
33.2779585042712
30
0
0
VERTEX
8
0
10
47.8140375468268
20
33.4361411349448
30
0
0
VERTEX
8
0
10
48.4515580474512
20
33.5940167712199
30
0
0
VERTEX
8
0
10
49.0890785480755
20
33.752120319225
30
0
0
VERTEX
8
0
10
49.7265990486999
20
33.9104485911238
30
0
0
VERTEX
8
0
10
50.3641195493243
20
34.0722061500979
30
0
0
VERTEX
8
0
10
51.0016400499486
20
34.2346237520975
30
0
0
VERTEX
8
0
10
51.639160550573
20
34.3972607171984
30
0
0
VERTEX
8
0
10
52.2766810511973
20
34.5601139484882
30
0
0
VERTEX
8
0
10
52.9142015518217
20
34.7205602327166
30
0
0
VERTEX
8
0
10
53.551722052446
20
34.879436092423
30
0
0
VERTEX
8
0
10
54.1892425530704
20
35.0385335716367
30
0
0
VERTEX
8
0
10
54.8267630536948
20
35.1978496651369
30
0
0
VERTEX
8
0
10
55.4642835543191
20
35.3561626866679
30
0
0
VERTEX
8
0
10
56.1018040549435
20
35.5303427254106
30
0
0
VERTEX
8
0
10
56.7393245555678
20
35.6997108025215
30
0
0
VERTEX
8
0
10
57.3768450561922
20
35.8692427909006
30
0
0
VERTEX
8
0
10
58.0143655568166
20
36.038936377366
30
0
0
VERTEX
8
0
10
58.6518860574409
20
36.1887658634237
30
0
0
VERTEX
8
0
10
59.2894065580653
20
36.3435993465224
30
0
0
VERTEX
8
0
10
59.9269270586896
20
36.4986336344746
30
0
0
VERTEX
8
0
10
60.564447559314
20
36.6546969558283
30
0
0
VERTEX
8
0
10
61.2019680599383
20
36.8268805210364
30
0
0
VERTEX
8
0
10
61.8394885605627
20
36.9969517253521
30
0
0
VERTEX
8
0
10
62.4770090611871
20
37.167183678915
30
0
0
VERTEX
8
0
10
63.1145295618114
20
37.337574183029
30
0
0
VERTEX
8
0
10
63.7520500624358
20
37.4969931962464
30
0
0
VERTEX
8
0
10
64.3895705630601
20
37.6569822093863
30
0
0
VERTEX
8
0
10
65.0270910636845
20
37.8171555842129
30
0
0
VERTEX
8
0
10
65.6646115643088
20
37.9775109880434
30
0
0
VERTEX
8
0
10
66.3021320649332
20
38.1186313633398
30
0
0
VERTEX
8
0
10
66.9396525655576
20
38.260907226094
30
0
0
VERTEX
8
0
10
67.5771730661819
20
38.4033464673029
30
0
0
VERTEX
8
0
10
68.2146935668063
20
38.545947275764
30
0
0
VERTEX
8
0
10
68.8522140674306
20
38.6575272450701
30
0
0
VERTEX
8
0
10
69.489734568055
20
38.7623951972787
30
0
0
VERTEX
8
0
10
70.1272550686793
20
38.8674857968977
30
0
0
VERTEX
8
0
10
70.7647755693037
20
38.9727972428132
30
0
0
VERTEX
8
0
10
71.4022960699281
20
39.0822285860317
30
0
0
VERTEX
8
0
10
72.0398165705524
20
39.194281478924
30
0
0
VERTEX
8
0
10
72.6773370711768
20
39.3065281534645
30
0
0
VERTEX
8
0
10
73.3148575718011
20
39.4189669542564
30
0
0
VERTEX
8
0
10
73.9523780724255
20
39.5329657597821
30
0
0
VERTEX
8
0
10
74.5898985730499
20
39.662836336421
30
0
0
VERTEX
8
0
10
75.2274190736742
20
39.7878719349063
30
0
0
VERTEX
8
0
10
75.8649395742986
20
39.9130683072323
30
0
0
VERTEX
8
0
10
76.5024600749229
20
40.0384239452252
30
0
0
VERTEX
8
0
10
77.1399805755473
20
40.1444851634116
30
0
0
VERTEX
8
0
10
77.7775010761716
20
40.2556710832121
30
0
0
VERTEX
8
0
10
78.415021576796
20
40.3670596212231
30
0
0
VERTEX
8
0
10
79.0525420774204
20
40.4758228391217
30
0
0
VERTEX
8
0
10
79.6900625780447
20
40.5851439174495
30
0
0
VERTEX
8
0
10
80.3275830786691
20
40.6942200662063
30
0
0
VERTEX
8
0
10
80.9651035792934
20
40.8034596388951
30
0
0
VERTEX
8
0
10
81.6026240799178
20
40.9128613264634
30
0
0
VERTEX
8
0
10
82.2401445805422
20
41.0493119271686
30
0
0
VERTEX
8
0
10
82.8776650811665
20
41.1820561650154
30
0
0
VERTEX
8
0
10
83.5151855817909
20
41.3149391089738
30
0
0
VERTEX
8
0
10
84.1527060824152
20
41.4479594249605
30
0
0
VERTEX
8
0
10
84.7902265830396
20
41.5577519277077
30
0
0
VERTEX
8
0
10
85.4277470836639
20
41.6677106080743
30
0
0
VERTEX
8
0
10
86.0652675842883
20
41.7778369280829
30
0
0
VERTEX
8
0
10
86.7027880849127
20
41.8881295655305
30
0
0
VERTEX
8
0
10
87.340308585537
20
42.0028752694977
30
0
0
VERTEX
8
0
10
87.9778290861614
20
42.1165805304022
30
0
0
VERTEX
8
0
10
88.6153495867857
20
42.2304798889174
30
0
0
VERTEX
8
0
10
89.2528700874101
20
42.3445717787793
30
0
0
VERTEX
8
0
10
89.8903905880344
20
42.4586147336978
30
0
0
VERTEX
8
0
10
90.5279110886588
20
42.5648305023739
30
0
0
VERTEX
8
0
10
91.1654315892832
20
42.6714085173243
30
0
0
VERTEX
8
0
10
91.8029520899075
20
42.7783460710469
30
0
0
VERTEX
8
0
10
92.4404725905319
20
42.8748117248455
30
0
0
VERTEX
8
0
10
93.0779930911562
20
42.9558063338942
30
0
0
VERTEX
8
0
10
93.7155135917806
20
43.037399287142
30
0
0
VERTEX
8
0
10
94.3530340924049
20
43.1195871879422
30
0
0
VERTEX
8
0
10
94.9905545930293
20
43.1997658920089
30
0
0
VERTEX
8
0
10
95.6280750936537
20
43.311514130673
30
0
0
VERTEX
8
0
10
96.265595594278
20
43.4151819500321
30
0
0
VERTEX
8
0
10
96.9031160949024
20
43.5192615225368
30
0
0
VERTEX
8
0
10
97.5406365955267
20
43.6248182726375
30
0
0
VERTEX
8
0
10
98.1781570961511
20
43.7362337746443
30
0
0
VERTEX
8
0
10
98.8156775967754
20
43.8471833758608
30
0
0
VERTEX
8
0
10
99.4531980973998
20
43.9585229453023
30
0
0
VERTEX
8
0
10
100.090718598024
20
44.0702495273085
30
0
0
VERTEX
8
0
10
100.728239098649
20
44.1439639087662
30
0
0
VERTEX
8
0
10
101.365759599273
20
44.2223933360085
30
0
0
VERTEX
8
0
10
102.003280099897
20
44.3013638058019
30
0
0
VERTEX
8
0
10
102.640800600522
20
44.3808724299845
30
0
0
VERTEX
8
0
10
103.278321101146
20
44.4741375357908
30
0
0
VERTEX
8
0
10
103.91584160177
20
44.5736251704619
30
0
0
VERTEX
8
0
10
104.553362102395
20
44.6733801775196
30
0
0
VERTEX
8
0
10
105.190882603019
20
44.7734007698492
30
0
0
VERTEX
8
0
10
105.828403103643
20
44.9288313518418
30
0
0
VERTEX
8
0
10
106.465923604268
20
45.0690123743213
30
0
0
VERTEX
8
0
10
107.103444104892
20
45.2100396523228
30
0
0
VERTEX
8
0
10
107.740964605516
20
45.3519052912428
30
0
0
VERTEX
8
0
10
108.378485106141
20
45.4299907562263
30
0
0
VERTEX
8
0
10
109.016005606765
20
45.5174233410473
30
0
0
VERTEX
8
0
10
109.65352610739
20
45.605088845319
30
0
0
VERTEX
8
0
10
110.291046608014
20
45.6929859284198
30
0
0
VERTEX
8
0
10
110.928567108638
20
45.812466097255
30
0
0
VERTEX
8
0
10
111.566087609263
20
45.9254075711955
30
0
0
VERTEX
8
0
10
112.203608109887
20
46.0390223516835
30
0
0
VERTEX
8
0
10
112.841128610511
20
46.1533054663187
30
0
0
VERTEX
8
0
10
113.478649111136
20
46.2785709311606
30
0
0
VERTEX
8
0
10
114.11616961176
20
46.3905873027441
30
0
0
VERTEX
8
0
10
114.753690112384
20
46.5082739199653
30
0
0
VERTEX
8
0
10
115.391210613009
20
46.6268170155732
30
0
0
VERTEX
8
0
10
116.028731113633
20
46.7462100737715
30
0
0
VERTEX
8
0
10
116.666251614257
20
46.866446598679
30
0
0
VERTEX
8
0
10
117.303772114882
20
46.9875201152464
30
0
0
VERTEX
8
0
10
117.941292615506
20
47.1094241701463
30
0
0
VERTEX
8
0
10
118.578813116131
20
47.2321523326331
30
0
0
VERTEX
8
0
10
119.216333616755
20
47.3535418349492
30
0
0
VERTEX
8
0
10
119.853854117379
20
47.4772449862167
30
0
0
VERTEX
8
0
10
120.491374618004
20
47.601693434565
30
0
0
VERTEX
8
0
10
121.128895118628
20
47.7268813498797
30
0
0
VERTEX
8
0
10
121.766415619252
20
47.8555296188041
30
0
0
VERTEX
8
0
10
122.403936119877
20
47.9842266130384
30
0
0
VERTEX
8
0
10
123.041456620501
20
48.113658631543
30
0
0
VERTEX
8
0
10
123.678977121125
20
48.2438197583893
30
0
0
VERTEX
8
0
10
124.31649762175
20
48.3771784606722
30
0
0
VERTEX
8
0
10
124.954018122374
20
48.5108523408808
30
0
0
VERTEX
8
0
10
125.591538622998
20
48.645250250237
30
0
0
VERTEX
8
0
10
126.229059123623
20
48.7803662042841
30
0
0
VERTEX
8
0
10
126.866579624247
20
48.9117667056037
30
0
0
VERTEX
8
0
10
127.504100124872
20
49.0441094010665
30
0
0
VERTEX
8
0
10
128.141620625496
20
49.1771285336412
30
0
0
VERTEX
8
0
10
128.77914112612
20
49.3108186291292
30
0
0
VERTEX
8
0
10
129.416661626745
20
49.4462516753352
30
0
0
VERTEX
8
0
10
130.054182127369
20
49.5818110328913
30
0
0
VERTEX
8
0
10
130.691702627993
20
49.7180520763516
30
0
0
VERTEX
8
0
10
131.329223128618
20
49.8549692170902
30
0
0
VERTEX
8
0
10
131.966743629242
20
49.9892188746483
30
0
0
VERTEX
8
0
10
132.604264129866
20
50.1231914298233
30
0
0
VERTEX
8
0
10
133.241784630491
20
50.2578014612777
30
0
0
VERTEX
8
0
10
133.879305131115
20
50.393043860527
30
0
0
VERTEX
8
0
10
134.516825631739
20
50.5081287234069
30
0
0
VERTEX
8
0
10
135.154346132364
20
50.6546201931035
30
0
0
VERTEX
8
0
10
135.791866632988
20
50.7923523008617
30
0
0
VERTEX
8
0
10
136.429387133612
20
50.9303081124877
30
0
0
VERTEX
8
0
10
137.066907634237
20
51.0684858150486
30
0
0
VERTEX
8
0
10
137.704428134861
20
51.2119724558401
30
0
0
VERTEX
8
0
10
138.341948635485
20
51.3550718907995
30
0
0
VERTEX
8
0
10
138.97946913611
20
51.4983620770748
30
0
0
VERTEX
8
0
10
139.616989636734
20
51.6418414268376
30
0
0
VERTEX
8
0
10
140.254510137358
20
51.7855083677725
30
0
0
VERTEX
8
0
10
140.892030637983
20
51.9293613429191
30
0
0
VERTEX
8
0
10
141.529551138607
20
52.0733988105168
30
0
0
VERTEX
8
0
10
142.167071639231
20
52.2176192438495
30
0
0
VERTEX
8
0
10
142.804592139856
20
52.3620211310927
30
0
0
VERTEX
8
0
10
143.44211264048
20
52.506602975161
30
0
0
VERTEX
8
0
10
144.079633141104
20
52.651363293558
30
0
0
VERTEX
8
0
10
144.717153641729
20
52.7963006182261
30
0
0
VERTEX
8
0
10
145.354674142353
20
52.922844609023
30
0
0
VERTEX
8
0
10
145.992194642978
20
53.0421056807416
30
0
0
VERTEX
8
0
10
146.629715143602
20
53.161711576684
30
0
0
VERTEX
8
0
10
147.267235644226
20
53.2816599746812
30
0
0
VERTEX
8
0
10
147.904756144851
20
53.4154653136869
30
0
0
VERTEX
8
0
10
148.542276645475
20
53.5582444708318
30
0
0
VERTEX
8
0
10
149.179797146099
20
53.7012275600696
30
0
0
VERTEX
8
0
10
149.817317646724
20
53.8444129567839
30
0
0
VERTEX
8
0
10
150.454838147348
20
53.9860034084355
30
0
0
VERTEX
8
0
10
151.092358647972
20
54.1354284668144
30
0
0
VERTEX
8
0
10
151.729879148597
20
54.2825785715767
30
0
0
VERTEX
8
0
10
152.367399649221
20
54.4298875535681
30
0
0
VERTEX
8
0
10
153.004920149845
20
54.5735264040918
30
0
0
VERTEX
8
0
10
153.64244065047
20
54.7154016147659
30
0
0
VERTEX
8
0
10
154.279961151094
20
54.857420130409
30
0
0
VERTEX
8
0
10
154.917481651718
20
54.9995808409057
30
0
0
SEQEND
8
0
0
POLYLINE
8
0
62
2
70
0
10
0
20
0
30
0
0
VERTEX
8
0
10
23.5882585231012
20
20.3797952302901
30
0
0
VERTEX
8
0
10
24.2257790237256
20
20.7395958758049
30
0
0
VERTEX
8
0
10
24.8632995243499
20
21.099886926443
30
0
0
VERTEX
8
0
10
25.5008200249743
20
21.4606436827855
30
0
0
VERTEX
8
0
10
26.1383405255987
20
21.8218430478295
30
0
0
VERTEX
8
0
10
26.775861026223
20
22.1968821248316
30
0
0
VERTEX
8
0
10
27.4133815268474
20
22.5707475302248
30
0
0
VERTEX
8
0
10
28.0509020274717
20
22.9450419475713
30
0
0
VERTEX
8
0
10
28.6884225280961
20
23.3197447192638
30
0
0
VERTEX
8
0
10
29.3259430287204
20
23.6928463188962
30
0
0
VERTEX
8
0
10
29.9634635293448
20
24.0659758273288
30
0
0
VERTEX
8
0
10
30.6009840299692
20
24.4394682730576
30
0
0
VERTEX
8
0
10
31.2385045305935
20
24.8133072671797
30
0
0
VERTEX
8
0
10
31.8760250312179
20
25.1874773790197
30
0
0
VERTEX
8
0
10
32.5135455318422
20
25.5619640681083
30
0
0
VERTEX
8
0
10
33.1510660324666
20
25.9367536217885
30
0
0
VERTEX
8
0
10
33.788586533091
20
26.3118330979225
30
0
0
VERTEX
8
0
10
34.4261070337153
20
26.687295108559
30
0
0
VERTEX
8
0
10
35.0636275343397
20
27.0639258237751
30
0
0
VERTEX
8
0
10
35.701148034964
20
27.4407907067822
30
0
0
VERTEX
8
0
10
36.3386685355884
20
27.817880240363
30
0
0
VERTEX
8
0
10
36.9761890362127
20
28.1962395767288
30
0
0
VERTEX
8
0
10
37.6137095368371
20
28.5685198003955
30
0
0
VERTEX
8
0
10
38.2512300374615
20
28.9430012983916
30
0
0
VERTEX
8
0
10
38.8887505380858
20
29.3176993793512
30
0
0
VERTEX
8
0
10
39.5262710387102
20
29.6926058439392
30
0
0
VERTEX
8
0
10
40.1637915393345
20
30.0735865684762
30
0
0
VERTEX
8
0
10
40.8013120399589
20
30.4534192961458
30
0
0
VERTEX
8
0
10
41.4388325405832
20
30.8334254090471
30
0
0
VERTEX
8
0
10
42.0763530412076
20
31.207883901075
30
0
0
VERTEX
8
0
10
42.713873541832
20
31.5434699229289
30
0
0
VERTEX
8
0
10
43.3513940424563
20
31.8836862702355
30
0
0
VERTEX
8
0
10
43.9889145430807
20
32.2240516433575
30
0
0
VERTEX
8
0
10
44.626435043705
20
32.564561369434
30
0
0
VERTEX
8
0
10
45.2639555443294
20
32.7317700220724
30
0
0
VERTEX
8
0
10
45.9014760449537
20
32.9135917370128
30
0
0
VERTEX
8
0
10
46.5389965455781
20
33.0956558907985
30
0
0
VERTEX
8
0
10
47.1765170462025
20
33.2779585042712
30
0
0
VERTEX
8
0
10
47.8140375468268
20
33.4361411349448
30
0
0
VERTEX
8
0
10
48.4515580474512
20
33.5940167712199
30
0
0
VERTEX
8
0
10
49.0890785480755
20
33.752120319225
30
0
0
VERTEX
8
0
10
49.7265990486999
20
33.9104485911238
30
0
0
VERTEX
8
0
10
50.3641195493243
20
34.0722061500979
30
0
0
VERTEX
8
0
10
51.0016400499486
20
34.2346237520975
30
0
0
VERTEX
8
0
10
51.639160550573
20
34.3972607171984
30
0
0
VERTEX
8
0
10
52.2766810511973
20
34.5601139484882
30
0
0
VERTEX
8
0
10
52.9142015518217
20
34.7205602327166
30
0
0
VERTEX
8
0
10
53.551722052446
20
34.879436092423
30
0
0
VERTEX
8
0
10
54.1892425530704
20
35.0385335716367
30
0
0
VERTEX
8
0
10
54.8267630536948
20
35.1978496651369
30
0
0
VERTEX
8
0
10
55.4642835543191
20
35.3561626866679
30
0
0
VERTEX
8
0
10
56.1018040549435
20
35.5303427254106
30
0
0
VERTEX
8
0
10
56.7393245555678
20
35.6997108025215
30
0
0
VERTEX
8
0
10
57.3768450561922
20
35.8692427909006
30
0
0
VERTEX
8
0
10
58.0143655568166
20
36.038936377366
30
0
0
VERTEX
8
0
10
58.6518860574409
20
36.1887658634237
30
0
0
VERTEX
8
0
10
59.2894065580653
20
36.3435993465224
30
0
0
VERTEX
8
0
10
59.9269270586896
20
36.4986336344746
30
0
0
VERTEX
8
0
10
60.564447559314
20
36.6546969558283
30
0
0
VERTEX
8
0
10
61.2019680599383
20
36.8268805210364
30
0
0
VERTEX
8
0
10
61.8394885605627
20
36.9969517253521
30
0
0
VERTEX
8
0
10
62.4770090611871
20
37.167183678915
30
0
0
VERTEX
8
0
10
63.1145295618114
20
37.337574183029
30
0
0
VERTEX
8
0
10
63.7520500624358
20
37.4969931962464
30
0
0
VERTEX
8
0
10
64.3895705630601
20
37.6569822093863
30
0
0
VERTEX
8
0
10
65.0270910636845
20
37.8171555842129
30
0
0
VERTEX
8
0
10
65.6646115643088
20
37.9775109880434
30
0
0
VERTEX
8
0
10
66.3021320649332
20
38.1186313633398
30
0
0
VERTEX
8
0
10
66.9396525655576
20
38.260907226094
30
0
0
VERTEX
8
0
10
67.5771730661819
20
38.4033464673029
30
0
0
VERTEX
8
0
10
68.2146935668063
20
38.545947275764
30
0
0
VERTEX
8
0
10
68.8522140674306
20
38.6575272450701
30
0
0
VERTEX
8
0
10
69.489734568055
20
38.7623951972787
30
0
0
VERTEX
8
0
10
70.1272550686793
20
38.8674857968977
30
0
0
VERTEX
8
0
10
70.7647755693037
20
38.9727972428132
30
0
0
VERTEX
8
0
10
71.4022960699281
20
39.0822285860317
30
0
0
VERTEX
8
0
10
72.0398165705524
20
39.194281478924
30
0
0
VERTEX
8
0
10
72.6773370711768
20
39.3065281534645
30
0
0
VERTEX
8
0
10
73.3148575718011
20
39.4189669542564
30
0
0
VERTEX
8
0
10
73.9523780724255
20
39.5329657597821
30
0
0
VERTEX
8
0
10
74.5898985730499
20
39.662836336421
30
0
0
VERTEX
8
0
10
75.2274190736742
20
39.7878719349063
30
0
0
VERTEX
8
0
10
75.8649395742986
20
39.9130683072323
30
0
0
VERTEX
8
0
10
76.5024600749229
20
40.0384239452252
30
0
0
VERTEX
8
0
10
77.1399805755473
20
40.1444851634116
30
0
0
VERTEX
8
0
10
77.7775010761716
20
40.2556710832121
30
0
0
VERTEX
8
0
10
78.415021576796
20
40.3670596212231
30
0
0
VERTEX
8
0
10
79.0525420774204
20
40.4758228391217
30
0
0
VERTEX
8
0
10
79.6900625780447
20
40.5851439174495
30
0
0
VERTEX
8
0
10
80.3275830786691
20
40.6942200662063
30
0
0
VERTEX
8
0
10
80.9651035792934
20
40.8034596388951
30
0
0
VERTEX
8
0
10
81.6026240799178
20
40.9128613264634
30
0
0
VERTEX
8
0
10
82.2401445805422
20
41.0493119271686
30
0
0
VERTEX
8
0
10
82.8776650811665
20
41.1820561650154
30
0
0
VERTEX
8
0
10
83.5151855817909
20
41.3149391089738
30
0
0
VERTEX
8
0
10
84.1527060824152
20
41.4479594249605
30
0
0
VERTEX
8
0
10
84.7902265830396
20
41.5577519277077
30
0
0
VERTEX
8
0
10
85.4277470836639
20
41.6677106080743
30
0
0
VERTEX
8
0
10
86.0652675842883
20
41.7778369280829
30
0
0
VERTEX
8
0
10
86.7027880849127
20
41.8881295655305
30
0
0
VERTEX
8
0
10
87.340308585537
20
42.0028752694977
30
0
0
VERTEX
8
0
10
87.9778290861614
20
42.1165805304022
30
0
0
VERTEX
8
0
10
88.6153495867857
20
42.2304798889174
30
0
0
VERTEX
8
0
10
89.2528700874101
20
42.3445717787793
30
0
0
VERTEX
8
0
10
89.8903905880344
20
42.4586147336977
30
0
0
VERTEX
8
0
10
90.5279110886588
20
42.5648305023739
30
0
0
VERTEX
8
0
10
91.1654315892832
20
42.6714085173243
30
0
0
VERTEX
8
0
10
91.8029520899075
20
42.7783460710469
30
0
0
VERTEX
8
0
10
92.4404725905319
20
42.8748117248455
30
0
0
VERTEX
8
0
10
93.0779930911562
20
42.9558063338942
30
0
0
VERTEX
8
0
10
93.7155135917806
20
43.037399287142
30
0
0
VERTEX
8
0
10
94.3530340924049
20
43.1195871879422
30
0
0
VERTEX
8
0
10
94.9905545930293
20
43.1997658920089
30
0
0
VERTEX
8
0
10
95.6280750936537
20
43.311514130673
30
0
0
VERTEX
8
0
10
96.265595594278
20
43.4151819500321
30
0
0
VERTEX
8
0
10
96.9031160949024
20
43.5192615225367
30
0
0
VERTEX
8
0
10
97.5406365955267
20
43.6248182726375
30
0
0
VERTEX
8
0
10
98.1781570961511
20
43.7362337746443
30
0
0
VERTEX
8
0
10
98.8156775967754
20
43.8471833758608
30
0
0
VERTEX
8
0
10
99.4531980973998
20
43.9585229453023
30
0
0
VERTEX
8
0
10
100.090718598024
20
44.0702495273085
30
0
0
VERTEX
8
0
10
100.728239098649
20
44.1439639087662
30
0
0
VERTEX
8
0
10
101.365759599273
20
44.2223933360085
30
0
0
VERTEX
8
0
10
102.003280099897
20
44.3013638058019
30
0
0
VERTEX
8
0
10
102.640800600522
20
44.3808724299845
30
0
0
VERTEX
8
0
10
103.278321101146
20
44.4741375357908
30
0
0
VERTEX
8
0
10
103.91584160177
20
44.5736251704619
30
0
0
VERTEX
8
0
10
104.553362102395
20
44.6733801775196
30
0
0
VERTEX
8
0
10
105.190882603019
20
44.7734007698492
30
0
0
VERTEX
8
0
10
105.828403103643
20
44.9288313518418
30
0
0
VERTEX
8
0
10
106.465923604268
20
45.0690123743213
30
0
0
VERTEX
8
0
10
107.103444104892
20
45.2100396523228
30
0
0
VERTEX
8
0
10
107.740964605516
20
45.3519052912428
30
0
0
VERTEX
8
0
10
108.378485106141
20
45.4299907562263
30
0
0
VERTEX
8
0
10
109.016005606765
20
45.5174233410473
30
0
0
VERTEX
8
0
10
109.65352610739
20
45.605088845319
30
0
0
VERTEX
8
0
10
110.291046608014
20
45.6929859284198
30
0
0
VERTEX
8
0
10
110.928567108638
20
45.812466097255
30
0
0
VERTEX
8
0
10
111.566087609263
20
45.9254075711955
30
0
0
VERTEX
8
0
10
112.203608109887
20
46.0390223516835
30
0
0
VERTEX
8
0
10
112.841128610511
20
46.1533054663187
30
0
0
VERTEX
8
0
10
113.478649111136
20
46.2785709311606
30
0
0
VERTEX
8
0
10
114.11616961176
20
46.3905873027441
30
0
0
VERTEX
8
0
10
114.753690112384
20
46.5082739199653
30
0
0
VERTEX
8
0
10
115.391210613009
20
46.6268170155732
30
0
0
VERTEX
8
0
10
116.028731113633
20
46.7462100737715
30
0
0
VERTEX
8
0
10
116.666251614257
20
46.866446598679
30
0
0
VERTEX
8
0
10
117.303772114882
20
46.9875201152464
30
0
0
VERTEX
8
0
10
117.941292615506
20
47.1094241701463
30
0
0
VERTEX
8
0
10
118.578813116131
20
47.2321523326331
30
0
0
VERTEX
8
0
10
119.216333616755
20
47.3535418349492
30
0
0
VERTEX
8
0
10
119.853854117379
20
47.4772449862167
30
0
0
VERTEX
8
0
10
120.491374618004
20
47.601693434565
30
0
0
VERTEX
8
0
10
121.128895118628
20
47.7268813498797
30
0
0
VERTEX
8
0
10
121.766415619252
20
47.8555296188041
30
0
0
VERTEX
8
0
10
122.403936119877
20
47.9842266130384
30
0
0
VERTEX
8
0
10
123.041456620501
20
48.113658631543
30
0
0
VERTEX
8
0
10
123.678977121125
20
48.2438197583892
30
0
0
VERTEX
8
0
10
124.31649762175
20
48.3771784606722
30
0
0
VERTEX
8
0
10
124.954018122374
20
48.5108523408808
30
0
0
VERTEX
8
0
10
125.591538622998
20
48.645250250237
30
0
0
VERTEX
8
0
10
126.229059123623
20
48.7803662042841
30
0
0
VERTEX
8
0
10
126.866579624247
20
48.9117667056037
30
0
0
VERTEX
8
0
10
127.504100124872
20
49.0441094010665
30
0
0
VERTEX
8
0
10
128.141620625496
20
49.1771285336412
30
0
0
VERTEX
8
0
10
128.77914112612
20
49.3108186291292
30
0
0
VERTEX
8
0
10
129.416661626745
20
49.4462516753352
30
0
0
VERTEX
8
0
10
130.054182127369
20
49.5818110328912
30
0
0
VERTEX
8
0
10
130.691702627993
20
49.7180520763516
30
0
0
VERTEX
8
0
10
131.329223128618
20
49.8549692170902
30
0
0
VERTEX
8
0
10
131.966743629242
20
49.9892188746483
30
0
0
VERTEX
8
0
10
132.604264129866
20
50.1231914298233
30
0
0
VERTEX
8
0
10
133.241784630491
20
50.2578014612777
30
0
0
VERTEX
8
0
10
133.879305131115
20
50.393043860527
30
0
0
VERTEX
8
0
10
134.516825631739
20
50.5081287234069
30
0
0
VERTEX
8
0
10
135.154346132364
20
50.6546201931035
30
0
0
VERTEX
8
0
10
135.791866632988
20
50.7923523008617
30
0
0
VERTEX
8
0
10
136.429387133612
20
50.9303081124877
30
0
0
VERTEX
8
0
10
137.066907634237
20
51.0684858150486
30
0
0
VERTEX
8
0
10
137.704428134861
20
51.2119724558401
30
0
0
VERTEX
8
0
10
138.341948635485
20
51.3550718907995
30
0
0
VERTEX
8
0
10
138.97946913611
20
51.4983620770748
30
0
0
VERTEX
8
0
10
139.616989636734
20
51.6418414268376
30
0
0
VERTEX
8
0
10
140.254510137358
20
51.7855083677725
30
0
0
VERTEX
8
0
10
140.892030637983
20
51.9293613429191
30
0
0
VERTEX
8
0
10
141.529551138607
20
52.0733988105168
30
0
0
VERTEX
8
0
10
142.167071639231
20
52.2176192438495
30
0
0
VERTEX
8
0
10
142.804592139856
20
52.3620211310927
30
0
0
VERTEX
8
0
10
143.44211264048
20
52.506602975161
30
0
0
VERTEX
8
0
10
144.079633141104
20
52.651363293558
30
0
0
VERTEX
8
0
10
144.717153641729
20
52.7963006182261
30
0
0
VERTEX
8
0
10
145.354674142353
20
52.922844609023
30
0
0
VERTEX
8
0
10
145.992194642978
20
53.0421056807416
30
0
0
VERTEX
8
0
10
146.629715143602
20
53.161711576684
30
0
0
VERTEX
8
0
10
147.267235644226
20
53.2816599746812
30
0
0
VERTEX
8
0
10
147.904756144851
20
53.4154653136869
30
0
0
VERTEX
8
0
10
148.542276645475
20
53.5582444708318
30
0
0
VERTEX
8
0
10
149.179797146099
20
53.7012275600696
30
0
0
VERTEX
8
0
10
149.817317646724
20
53.8444129567838
30
0
0
VERTEX
8
0
10
150.454838147348
20
53.9860034084355
30
0
0
VERTEX
8
0
10
151.092358647972
20
54.1354284668144
30
0
0
VERTEX
8
0
10
151.729879148597
20
54.2825785715767
30
0
0
VERTEX
8
0
10
152.367399649221
20
54.4298875535681
30
0
0
VERTEX
8
0
10
153.004920149845
20
54.5735264040918
30
0
0
VERTEX
8
0
10
153.64244065047
20
54.7154016147659
30
0
0
VERTEX
8
0
10
154.279961151094
20
54.857420130409
30
0
0
VERTEX
8
0
10
154.917481651718
20
54.9995808409057
30
0
0
SEQEND
8
0
0
POLYLINE
8
0
62
3
70
0
10
0
20
0
30
0
0
VERTEX
8
0
10
23.5882585231012
20
28.7975631717349
30
0
0
VERTEX
8
0
10
24.2257790237256
20
29.5648809686697
30
0
0
VERTEX
8
0
10
24.8632995243499
20
30.127405517381
30
0
0
VERTEX
8
0
10
25.5008200249743
20
30.7912397134436
30
0
0
VERTEX
8
0
10
26.1383405255987
20
31.4359286976985
30
0
0
VERTEX
8
0
10
26.775861026223
20
32.0766839929081
30
0
0
VERTEX
8
0
10
27.4133815268474
20
32.7485619884246
30
0
0
VERTEX
8
0
10
28.0509020274717
20
33.3670337386813
30
0
0
VERTEX
8
0
10
28.6884225280961
20
33.9959624270912
30
0
0
VERTEX
8
0
10
29.3259430287204
20
34.6698030120161
30
0
0
VERTEX
8
0
10
29.9634635293448
20
35.2625435016884
30
0
0
VERTEX
8
0
10
30.6009840299692
20
35.8838191426863
30
0
0
VERTEX
8
0
10
31.2385045305935
20
36.5551646597995
30
0
0
VERTEX
8
0
10
31.8760250312179
20
37.1281297072869
30
0
0
VERTEX
8
0
10
32.5135455318422
20
37.7393020358136
30
0
0
VERTEX
8
0
10
33.1510660324666
20
38.3450293117193
30
0
0
VERTEX
8
0
10
33.788586533091
20
38.9495379659261
30
0
0
VERTEX
8
0
10
34.4261070337153
20
39.5621702232814
30
0
0
VERTEX
8
0
10
35.0636275343397
20
40.1495074142267
30
0
0
VERTEX
8
0
10
35.701148034964
20
40.7414505611799
30
0
0
VERTEX
8
0
10
36.3386685355884
20
41.3522514311146
30
0
0
VERTEX
8
0
10
36.9761890362127
20
41.9210077845478
30
0
0
VERTEX
8
0
10
37.6137095368371
20
42.5030483892971
30
0
0
VERTEX
8
0
10
38.2512300374615
20
43.109717941364
30
0
0
VERTEX
8
0
10
38.8887505380858
20
43.6662977461828
30
0
0
VERTEX
8
0
10
39.5262710387102
20
44.2339963167424
30
0
0
VERTEX
8
0
10
40.1637915393345
20
44.8014380429313
30
0
0
VERTEX
8
0
10
40.8013120399589
20
45.3687014469151
30
0
0
VERTEX
8
0
10
41.4388325405832
20
45.9340361614969
30
0
0
VERTEX
8
0
10
42.0763530412076
20
46.4872235072376
30
0
0
VERTEX
8
0
10
42.713873541832
20
47.0419564280225
30
0
0
VERTEX
8
0
10
43.3513940424563
20
47.6031722827968
30
0
0
VERTEX
8
0
10
43.9889145430807
20
48.141592276044
30
0
0
VERTEX
8
0
10
44.626435043705
20
48.6857556638676
30
0
0
VERTEX
8
0
10
45.2639555443294
20
49.2413999361135
30
0
0
VERTEX
8
0
10
45.9014760449537
20
49.7714314494453
30
0
0
VERTEX
8
0
10
46.5389965455781
20
50.2998533591493
30
0
0
VERTEX
8
0
10
47.1765170462025
20
50.8300888697303
30
0
0
VERTEX
8
0
10
47.8140375468268
20
51.3603095774522
30
0
0
VERTEX
8
0
10
48.4515580474512
20
51.8842000020833
30
0
0
VERTEX
8
0
10
49.0890785480755
20
52.4023999027692
30
0
0
VERTEX
8
0
10
49.7265990486999
20
52.9205190653514
30
0
0
VERTEX
8
0
10
50.3641195493243
20
53.4387506982788
30
0
0
VERTEX
8
0
10
51.0016400499486
20
53.9445026176188
30
0
0
VERTEX
8
0
10
51.639160550573
20
54.4518573361106
30
0
0
VERTEX
8
0
10
52.2766810511973
20
54.9635848714826
30
0
0
VERTEX
8
0
10
52.9142015518217
20
55.462690584485
30
0
0
VERTEX
8
0
10
53.551722052446
20
55.9542695393909
30
0
0
VERTEX
8
0
10
54.1892425530704
20
56.4482123036659
30
0
0
VERTEX
8
0
10
54.8267630536948
20
56.9420553114858
30
0
0
VERTEX
8
0
10
55.4642835543191
20
57.4277091300129
30
0
0
VERTEX
8
0
10
56.1018040549435
20
57.910988763513
30
0
0
VERTEX
8
0
10
56.7393245555678
20
58.3931683105763
30
0
0
VERTEX
8
0
10
57.3768450561922
20
58.8722286500526
30
0
0
VERTEX
8
0
10
58.0143655568166
20
59.3444478076325
30
0
0
VERTEX
8
0
10
58.6518860574409
20
59.8159904796796
30
0
0
VERTEX
8
0
10
59.2894065580653
20
60.2878722716352
30
0
0
VERTEX
8
0
10
59.9269270586896
20
60.7542271107556
30
0
0
VERTEX
8
0
10
60.564447559314
20
61.2104915940229
30
0
0
VERTEX
8
0
10
61.2019680599383
20
61.6690411058001
30
0
0
VERTEX
8
0
10
61.8394885605627
20
62.1272157397917
30
0
0
VERTEX
8
0
10
62.4770090611871
20
62.5767211887549
30
0
0
VERTEX
8
0
10
63.1145295618114
20
63.0254304564103
30
0
0
VERTEX
8
0
10
63.7520500624358
20
63.4724443037734
30
0
0
VERTEX
8
0
10
64.3895705630601
20
63.9147261011614
30
0
0
VERTEX
8
0
10
65.0270910636845
20
64.3533144155816
30
0
0
VERTEX
8
0
10
65.6646115643088
20
64.7899077154676
30
0
0
VERTEX
8
0
10
66.3021320649332
20
65.2246122906976
30
0
0
VERTEX
8
0
10
66.9396525655576
20
65.6575359721748
30
0
0
VERTEX
8
0
10
67.5771730661819
20
66.0796662105852
30
0
0
VERTEX
8
0
10
68.2146935668063
20
66.5036413105825
30
0
0
VERTEX
8
0
10
68.8522140674306
20
66.9269510686565
30
0
0
VERTEX
8
0
10
69.489734568055
20
67.3417809196937
30
0
0
VERTEX
8
0
10
70.1272550686793
20
67.7564936855944
30
0
0
VERTEX
8
0
10
70.7647755693037
20
68.1691129252801
30
0
0
VERTEX
8
0
10
71.4022960699281
20
68.5763634854384
30
0
0
VERTEX
8
0
10
72.0398165705524
20
68.9815788803067
30
0
0
VERTEX
8
0
10
72.6773370711768
20
69.3841012012614
30
0
0
VERTEX
8
0
10
73.3148575718011
20
69.7835230448843
30
0
0
VERTEX
8
0
10
73.9523780724255
20
70.1830222479073
30
0
0
VERTEX
8
0
10
74.5898985730499
20
70.571999149997
30
0
0
VERTEX
8
0
10
75.2274190736742
20
70.9622649130718
30
0
0
VERTEX
8
0
10
75.8649395742986
20
71.3515445939569
30
0
0
VERTEX
8
0
10
76.5024600749229
20
71.7329341131206
30
0
0
VERTEX
8
0
10
77.1399805755473
20
72.1143381876281
30
0
0
VERTEX
8
0
10
77.7775010761716
20
72.4934244940067
30
0
0
VERTEX
8
0
10
78.415021576796
20
72.8670348964411
30
0
0
VERTEX
8
0
10
79.0525420774204
20
73.23942867732
30
0
0
VERTEX
8
0
10
79.6900625780447
20
73.6087734374673
30
0
0
VERTEX
8
0
10
80.3275830786691
20
73.974467462974
30
0
0
VERTEX
8
0
10
80.9651035792934
20
74.3409463445669
30
0
0
VERTEX
8
0
10
81.6026240799178
20
74.69774242105
30
0
0
VERTEX
8
0
10
82.2401445805422
20
75.0552096317451
30
0
0
VERTEX
8
0
10
82.8776650811665
20
75.4114115838843
30
0
0
VERTEX
8
0
10
83.5151855817909
20
75.76048734394
30
0
0
VERTEX
8
0
10
84.1527060824152
20
76.1094402999468
30
0
0
VERTEX
8
0
10
84.7902265830396
20
76.4559390320663
30
0
0
VERTEX
8
0
10
85.4277470836639
20
76.7971987527372
30
0
0
VERTEX
8
0
10
86.0652675842883
20
77.137532340652
30
0
0
VERTEX
8
0
10
86.7027880849127
20
77.474710507229
30
0
0
VERTEX
8
0
10
87.340308585537
20
77.8080724428712
30
0
0
VERTEX
8
0
10
87.9778290861614
20
78.1422814951838
30
0
0
VERTEX
8
0
10
88.6153495867857
20
78.4679160270414
30
0
0
VERTEX
8
0
10
89.2528700874101
20
78.7936368780835
30
0
0
VERTEX
8
0
10
89.8903905880344
20
79.1178381895017
30
0
0
VERTEX
8
0
10
90.5279110886588
20
79.4357789197575
30
0
0
VERTEX
8
0
10
91.1654315892832
20
79.7533020912005
30
0
0
VERTEX
8
0
10
91.8029520899075
20
80.0683292344945
30
0
0
VERTEX
8
0
10
92.4404725905319
20
80.3785316637889
30
0
0
VERTEX
8
0
10
93.0779930911562
20
80.6878190328052
30
0
0
VERTEX
8
0
10
93.7155135917806
20
80.9939861526729
30
0
0
VERTEX
8
0
10
94.3530340924049
20
81.2964384028572
30
0
0
VERTEX
8
0
10
94.9905545930293
20
81.5994211040907
30
0
0
VERTEX
8
0
10
95.6280750936537
20
81.8950735901084
30
0
0
VERTEX
8
0
10
96.265595594278
20
82.190272568371
30
0
0
VERTEX
8
0
10
96.9031160949024
20
82.4837622746565
30
0
0
VERTEX
8
0
10
97.5406365955267
20
82.771869449315
30
0
0
VERTEX
8
0
10
98.1781570961511
20
83.0592258766062
30
0
0
VERTEX
8
0
10
98.8156775967754
20
83.3441016500875
30
0
0
VERTEX
8
0
10
99.4531980973998
20
83.6246843325473
30
0
0
VERTEX
8
0
10
100.090718598024
20
83.9042035661954
30
0
0
VERTEX
8
0
10
100.728239098649
20
84.1807548415259
30
0
0
VERTEX
8
0
10
101.365759599273
20
84.4538445717069
30
0
0
VERTEX
8
0
10
102.003280099897
20
84.7269861890868
30
0
0
VERTEX
8
0
10
102.640800600522
20
84.9940553701861
30
0
0
VERTEX
8
0
10
103.278321101146
20
85.2602260836724
30
0
0
VERTEX
8
0
10
103.91584160177
20
85.5245541721042
30
0
0
VERTEX
8
0
10
104.553362102395
20
85.7843717688169
30
0
0
VERTEX
8
0
10
105.190882603019
20
86.0431132890365
30
0
0
VERTEX
8
0
10
105.828403103643
20
86.2994614203167
30
0
0
VERTEX
8
0
10
106.465923604268
20
86.5520938569075
30
0
0
VERTEX
8
0
10
107.103444104892
20
86.8034739424972
30
0
0
VERTEX
8
0
10
107.740964605516
20
87.0521097571916
30
0
0
VERTEX
8
0
10
108.378485106141
20
87.2976486182395
30
0
0
VERTEX
8
0
10
109.016005606765
20
87.542718972047
30
0
0
VERTEX
8
0
10
109.65352610739
20
87.7829400178185
30
0
0
VERTEX
8
0
10
110.291046608014
20
88.0219209563484
30
0
0
VERTEX
8
0
10
110.928567108638
20
88.2590126040613
30
0
0
VERTEX
8
0
10
111.566087609263
20
88.492421350139
30
0
0
VERTEX
8
0
10
112.203608109887
20
88.7245038548167
30
0
0
VERTEX
8
0
10
112.841128610511
20
88.9543394127244
30
0
0
VERTEX
8
0
10
113.478649111136
20
89.181065980138
30
0
0
VERTEX
8
0
10
114.11616961176
20
89.4063727362706
30
0
0
VERTEX
8
0
10
114.753690112384
20
89.6292318897749
30
0
0
VERTEX
8
0
10
115.391210613009
20
89.8494209085306
30
0
0
VERTEX
8
0
10
116.028731113633
20
90.0686984505754
30
0
0
VERTEX
8
0
10
116.666251614257
20
90.2842605473405
30
0
0
VERTEX
8
0
10
117.303772114882
20
90.498384355131
30
0
0
VERTEX
8
0
10
117.941292615506
20
90.7106645387052
30
0
0
VERTEX
8
0
10
118.578813116131
20
90.9200486159985
30
0
0
VERTEX
8
0
10
119.216333616755
20
91.127966039669
30
0
0
VERTEX
8
0
10
119.853854117379
20
91.3338662296887
30
0
0
VERTEX
8
0
10
120.491374618004
20
91.5372674887185
30
0
0
VERTEX
8
0
10
121.128895118628
20
91.7391821302231
30
0
0
VERTEX
8
0
10
121.766415619252
20
91.9390091541433
30
0
0
VERTEX
8
0
10
122.403936119877
20
92.1366526339017
30
0
0
VERTEX
8
0
10
123.041456620501
20
92.3331002111964
30
0
0
VERTEX
8
0
10
123.678977121125
20
92.5268686571833
30
0
0
VERTEX
8
0
10
124.31649762175
20
92.719169681964
30
0
0
VERTEX
8
0
10
124.954018122374
20
92.9098065614771
30
0
0
VERTEX
8
0
10
125.591538622998
20
93.0982913750514
30
0
0
VERTEX
8
0
10
126.229059123623
20
93.2853446459994
30
0
0
VERTEX
8
0
10
126.866579624247
20
93.4707132679896
30
0
0
VERTEX
8
0
10
127.504100124872
20
93.6542167137829
30
0
0
VERTEX
8
0
10
128.141620625496
20
93.8363342790005
30
0
0
VERTEX
8
0
10
128.77914112612
20
94.0168252164003
30
0
0
VERTEX
8
0
10
129.416661626745
20
94.1956880470443
30
0
0
VERTEX
8
0
10
130.054182127369
20
94.3733439683889
30
0
0
VERTEX
8
0
10
130.691702627993
20
94.5492687523831
30
0
0
VERTEX
8
0
10
131.329223128618
20
94.7239454867369
30
0
0
VERTEX
8
0
10
131.966743629242
20
94.8973335226025
30
0
0
VERTEX
8
0
10
132.604264129866
20
95.0693353624984
30
0
0
VERTEX
8
0
10
133.241784630491
20
95.2402121668107
30
0
0
VERTEX
8
0
10
133.879305131115
20
95.409939340942
30
0
0
VERTEX
8
0
10
134.516825631739
20
95.5785363166204
30
0
0
VERTEX
8
0
10
135.154346132364
20
95.7461771473339
30
0
0
VERTEX
8
0
10
135.791866632988
20
95.9128766568727
30
0
0
VERTEX
8
0
10
136.429387133612
20
96.0787240914855
30
0
0
VERTEX
8
0
10
137.066907634237
20
96.2438650603998
30
0
0
VERTEX
8
0
10
137.704428134861
20
96.4083496734347
30
0
0
VERTEX
8
0
10
138.341948635485
20
96.572356120335
30
0
0
VERTEX
8
0
10
138.97946913611
20
96.7360380762818
30
0
0
VERTEX
8
0
10
139.616989636734
20
96.8995953083146
30
0
0
VERTEX
8
0
10
140.254510137358
20
97.0632559001142
30
0
0
VERTEX
8
0
10
140.892030637983
20
97.2271362454426
30
0
0
VERTEX
8
0
10
141.529551138607
20
97.3911438821074
30
0
0
VERTEX
8
0
10
142.167071639231
20
97.5550850025142
30
0
0
VERTEX
8
0
10
142.804592139856
20
97.718788063577
30
0
0
VERTEX
8
0
10
143.44211264048
20
97.8821174325843
30
0
0
VERTEX
8
0
10
144.079633141104
20
98.0449680167019
30
0
0
VERTEX
8
0
10
144.717153641729
20
98.2072517465789
30
0
0
VERTEX
8
0
10
145.354674142353
20
98.3688961393921
30
0
0
VERTEX
8
0
10
145.992194642978
20
98.5298364264368
30
0
0
VERTEX
8
0
10
146.629715143602
20
98.6900173943533
30
0
0
VERTEX
8
0
10
147.267235644226
20
98.8493876814771
30
0
0
VERTEX
8
0
10
147.904756144851
20
99.0079026756787
30
0
0
VERTEX
8
0
10
148.542276645475
20
99.1655197261786
30
0
0
VERTEX
8
0
10
149.179797146099
20
99.3222013960522
30
0
0
VERTEX
8
0
10
149.817317646724
20
99.4779111660594
30
0
0
VERTEX
8
0
10
150.454838147348
20
99.6326167878448
30
0
0
VERTEX
8
0
10
151.092358647972
20
99.786286307678
30
0
0
VERTEX
8
0
10
151.729879148597
20
99.9388914133699
30
0
0
VERTEX
8
0
10
152.367399649221
20
100.090403695952
30
0
0
VERTEX
8
0
10
153.004920149845
20
100.240797940428
30
0
0
VERTEX
8
0
10
153.64244065047
20
100.390048581228
30
0
0
VERTEX
8
0
10
154.279961151094
20
100.538132912106
30
0
0
VERTEX
8
0
10
154.917481651718
20
100.685027708874
30
0
0
SEQEND
8
0
0
POLYLINE
8
0
62
4
70
0
10
0
20
0
30
0
0
VERTEX
8
0
10
23.5882585231012
20
29.4006591264964
30
0
0
VERTEX
8
0
10
24.2257790237256
20
30.0274193154442
30
0
0
VERTEX
8
0
10
24.8632995243499
20
30.6684627228504
30
0
0
VERTEX
8
0
10
25.5008200249743
20
31.2928085866209
30
0
0
VERTEX
8
0
10
26.1383405255987
20
31.9227215593149
30
0
0
VERTEX
8
0
10
26.775861026223
20
32.5636176884419
30
0
0
VERTEX
8
0
10
27.4133815268474
20
33.1930579166961
30
0
0
VERTEX
8
0
10
28.0509020274717
20
33.8289779583637
30
0
0
VERTEX
8
0
10
28.6884225280961
20
34.4637617257394
30
0
0
VERTEX
8
0
10
29.3259430287204
20
35.088513367949
30
0
0
VERTEX
8
0
10
29.9634635293448
20
35.7204067813912
30
0
0
VERTEX
8
0
10
30.6009840299692
20
36.3484168003
30
0
0
VERTEX
8
0
10
31.2385045305935
20
36.969318530134
30
0
0
VERTEX
8
0
10
31.8760250312179
20
37.603282123445
30
0
0
VERTEX
8
0
10
32.5135455318422
20
38.2211198379908
30
0
0
VERTEX
8
0
10
33.1510660324666
20
38.8437107941798
30
0
0
VERTEX
8
0
10
33.788586533091
20
39.4675742194124
30
0
0
VERTEX
8
0
10
34.4261070337153
20
40.0815348551754
30
0
0
VERTEX
8
0
10
35.0636275343397
20
40.7017660467695
30
0
0
VERTEX
8
0
10
35.701148034964
20
41.3205612113414
30
0
0
VERTEX
8
0
10
36.3386685355884
20
41.9309707911927
30
0
0
VERTEX
8
0
10
36.9761890362127
20
42.5485970967282
30
0
0
VERTEX
8
0
10
37.6137095368371
20
43.1581218632113
30
0
0
VERTEX
8
0
10
38.2512300374615
20
43.7620992997169
30
0
0
VERTEX
8
0
10
38.8887505380858
20
44.3778067343465
30
0
0
VERTEX
8
0
10
39.5262710387102
20
44.9784964410023
30
0
0
VERTEX
8
0
10
40.1637915393345
20
45.587109609937
30
0
0
VERTEX
8
0
10
40.8013120399589
20
46.1957098769102
30
0
0
VERTEX
8
0
10
41.4388325405832
20
46.7949893972536
30
0
0
VERTEX
8
0
10
42.0763530412076
20
47.3953998430718
30
0
0
VERTEX
8
0
10
42.713873541832
20
47.9685752882718
30
0
0
VERTEX
8
0
10
43.3513940424563
20
48.5369037412712
30
0
0
VERTEX
8
0
10
43.9889145430807
20
49.1109593347987
30
0
0
VERTEX
8
0
10
44.626435043705
20
49.6812427869671
30
0
0
VERTEX
8
0
10
45.2639555443294
20
50.1316885057155
30
0
0
VERTEX
8
0
10
45.9014760449537
20
50.6025146410489
30
0
0
VERTEX
8
0
10
46.5389965455781
20
51.0600905791081
30
0
0
VERTEX
8
0
10
47.1765170462025
20
51.5216031310524
30
0
0
VERTEX
8
0
10
47.8140375468268
20
51.9685030575988
30
0
0
VERTEX
8
0
10
48.4515580474512
20
52.4069967564546
30
0
0
VERTEX
8
0
10
49.0890785480755
20
52.8502869121075
30
0
0
VERTEX
8
0
10
49.7265990486999
20
53.2924915466403
30
0
0
VERTEX
8
0
10
50.3641195493243
20
53.7299181098224
30
0
0
VERTEX
8
0
10
51.0016400499486
20
54.1730940944341
30
0
0
VERTEX
8
0
10
51.639160550573
20
54.6130610525611
30
0
0
VERTEX
8
0
10
52.2766810511973
20
55.0473838335939
30
0
0
VERTEX
8
0
10
52.9142015518217
20
55.4897359092002
30
0
0
VERTEX
8
0
10
53.551722052446
20
55.9186927869254
30
0
0
VERTEX
8
0
10
54.1892425530704
20
56.3509420018932
30
0
0
VERTEX
8
0
10
54.8267630536948
20
56.7838795559114
30
0
0
VERTEX
8
0
10
55.4642835543191
20
57.2084536434421
30
0
0
VERTEX
8
0
10
56.1018040549435
20
57.6466465886504
30
0
0
VERTEX
8
0
10
56.7393245555678
20
58.080371925595
30
0
0
VERTEX
8
0
10
57.3768450561922
20
58.5075998418448
30
0
0
VERTEX
8
0
10
58.0143655568166
20
58.9393512663355
30
0
0
VERTEX
8
0
10
58.6518860574409
20
59.3556446493467
30
0
0
VERTEX
8
0
10
59.2894065580653
20
59.7695498081716
30
0
0
VERTEX
8
0
10
59.9269270586896
20
60.1917681614657
30
0
0
VERTEX
8
0
10
60.564447559314
20
60.6032963042019
30
0
0
VERTEX
8
0
10
61.2019680599383
20
61.0270374410849
30
0
0
VERTEX
8
0
10
61.8394885605627
20
61.4496372717356
30
0
0
VERTEX
8
0
10
62.4770090611871
20
61.865175323576
30
0
0
VERTEX
8
0
10
63.1145295618114
20
62.2838538688898
30
0
0
VERTEX
8
0
10
63.7520500624358
20
62.694348384718
30
0
0
VERTEX
8
0
10
64.3895705630601
20
63.0991261059272
30
0
0
VERTEX
8
0
10
65.0270910636845
20
63.5076244911717
30
0
0
VERTEX
8
0
10
65.6646115643088
20
63.9130274011048
30
0
0
VERTEX
8
0
10
66.3021320649332
20
64.3019608975899
30
0
0
VERTEX
8
0
10
66.9396525655576
20
64.6984500913071
30
0
0
VERTEX
8
0
10
67.5771730661819
20
65.0849442497584
30
0
0
VERTEX
8
0
10
68.2146935668063
20
65.4734274557543
30
0
0
VERTEX
8
0
10
68.8522140674306
20
65.8435777956545
30
0
0
VERTEX
8
0
10
69.489734568055
20
66.2034744234138
30
0
0
VERTEX
8
0
10
70.1272550686793
20
66.5660101337185
30
0
0
VERTEX
8
0
10
70.7647755693037
20
66.9271435582663
30
0
0
VERTEX
8
0
10
71.4022960699281
20
67.2853017274673
30
0
0
VERTEX
8
0
10
72.0398165705524
20
67.6479161378462
30
0
0
VERTEX
8
0
10
72.6773370711768
20
68.0077064351174
30
0
0
VERTEX
8
0
10
73.3148575718011
20
68.3630835380825
30
0
0
VERTEX
8
0
10
73.9523780724255
20
68.7250023320087
30
0
0
VERTEX
8
0
10
74.5898985730499
20
69.0871869315715
30
0
0
VERTEX
8
0
10
75.2274190736742
20
69.4479399148777
30
0
0
VERTEX
8
0
10
75.8649395742986
20
69.8084158111024
30
0
0
VERTEX
8
0
10
76.5024600749229
20
70.1632877594431
30
0
0
VERTEX
8
0
10
77.1399805755473
20
70.508938796534
30
0
0
VERTEX
8
0
10
77.7775010761716
20
70.8558935100836
30
0
0
VERTEX
8
0
10
78.415021576796
20
71.1981253169926
30
0
0
VERTEX
8
0
10
79.0525420774204
20
71.5410298858903
30
0
0
VERTEX
8
0
10
79.6900625780447
20
71.8814831195275
30
0
0
VERTEX
8
0
10
80.3275830786691
20
72.2177182059702
30
0
0
VERTEX
8
0
10
80.9651035792934
20
72.5584454261777
30
0
0
VERTEX
8
0
10
81.6026240799178
20
72.8916095706163
30
0
0
VERTEX
8
0
10
82.2401445805422
20
73.2407723774007
30
0
0
VERTEX
8
0
10
82.8776650811665
20
73.5872197827883
30
0
0
VERTEX
8
0
10
83.5151855817909
20
73.9287264679522
30
0
0
VERTEX
8
0
10
84.1527060824152
20
74.2714408754462
30
0
0
VERTEX
8
0
10
84.7902265830396
20
74.5995253974441
30
0
0
VERTEX
8
0
10
85.4277470836639
20
74.9234354026675
30
0
0
VERTEX
8
0
10
86.0652675842883
20
75.2488879243481
30
0
0
VERTEX
8
0
10
86.7027880849127
20
75.5718568101847
30
0
0
VERTEX
8
0
10
87.340308585537
20
75.8936624547034
30
0
0
VERTEX
8
0
10
87.9778290861614
20
76.2181175069492
30
0
0
VERTEX
8
0
10
88.6153495867857
20
76.5361784407398
30
0
0
VERTEX
8
0
10
89.2528700874101
20
76.854693476881
30
0
0
VERTEX
8
0
10
89.8903905880344
20
77.1723696609282
30
0
0
VERTEX
8
0
10
90.5279110886588
20
77.4814416333329
30
0
0
VERTEX
8
0
10
91.1654315892832
20
77.7913245742104
30
0
0
VERTEX
8
0
10
91.8029520899075
20
78.099767028627
30
0
0
VERTEX
8
0
10
92.4404725905319
20
78.3987818034389
30
0
0
VERTEX
8
0
10
93.0779930911562
20
78.6901817483581
30
0
0
VERTEX
8
0
10
93.7155135917806
20
78.9795918364272
30
0
0
VERTEX
8
0
10
94.3530340924049
20
79.266197492171
30
0
0
VERTEX
8
0
10
94.9905545930293
20
79.5539326985703
30
0
0
VERTEX
8
0
10
95.6280750936537
20
79.8534410343649
30
0
0
VERTEX
8
0
10
96.265595594278
20
80.1485003478997
30
0
0
VERTEX
8
0
10
96.9031160949024
20
80.4428163581212
30
0
0
VERTEX
8
0
10
97.5406365955267
20
80.7342902795508
30
0
0
VERTEX
8
0
10
98.1781570961511
20
81.0290442421758
30
0
0
VERTEX
8
0
10
98.8156775967754
20
81.3219338525626
30
0
0
VERTEX
8
0
10
99.4531980973998
20
81.6118700770635
30
0
0
VERTEX
8
0
10
100.090718598024
20
81.9022642364927
30
0
0
VERTEX
8
0
10
100.728239098649
20
82.1700858633911
30
0
0
VERTEX
8
0
10
101.365759599273
20
82.4377527340795
30
0
0
VERTEX
8
0
10
102.003280099897
20
82.7069928603204
30
0
0
VERTEX
8
0
10
102.640800600522
20
82.972198938491
30
0
0
VERTEX
8
0
10
103.278321101146
20
83.2443677251565
30
0
0
VERTEX
8
0
10
103.91584160177
20
83.5187787049487
30
0
0
VERTEX
8
0
10
104.553362102395
20
83.7903107410426
30
0
0
VERTEX
8
0
10
105.190882603019
20
84.0616917871832
30
0
0
VERTEX
8
0
10
105.828403103643
20
84.361027790012
30
0
0
VERTEX
8
0
10
106.465923604268
20
84.64957549734
30
0
0
VERTEX
8
0
10
107.103444104892
20
84.9383399959985
30
0
0
VERTEX
8
0
10
107.740964605516
20
85.2256198820431
30
0
0
VERTEX
8
0
10
108.378485106141
20
85.4766575062814
30
0
0
VERTEX
8
0
10
109.016005606765
20
85.7331399641361
30
0
0
VERTEX
8
0
10
109.65352610739
20
85.9863478446156
30
0
0
VERTEX
8
0
10
110.291046608014
20
86.2389965311913
30
0
0
VERTEX
8
0
10
110.928567108638
20
86.5072178030511
30
0
0
VERTEX
8
0
10
111.566087609263
20
86.7695115194478
30
0
0
VERTEX
8
0
10
112.203608109887
20
87.0315317419904
30
0
0
VERTEX
8
0
10
112.841128610511
20
87.2924401718603
30
0
0
VERTEX
8
0
10
113.478649111136
20
87.5569826693706
30
0
0
VERTEX
8
0
10
114.11616961176
20
87.8139359196919
30
0
0
VERTEX
8
0
10
114.753690112384
20
88.0722013848794
30
0
0
VERTEX
8
0
10
115.391210613009
20
88.3289981429507
30
0
0
VERTEX
8
0
10
116.028731113633
20
88.5860583897794
30
0
0
VERTEX
8
0
10
116.666251614257
20
88.8409696643601
30
0
0
VERTEX
8
0
10
117.303772114882
20
89.09542166693
30
0
0
VERTEX
8
0
10
117.941292615506
20
89.3491198178116
30
0
0
VERTEX
8
0
10
118.578813116131
20
89.6012987104497
30
0
0
VERTEX
8
0
10
119.216333616755
20
89.8519121385705
30
0
0
VERTEX
8
0
10
119.853854117379
20
90.1023932914474
30
0
0
VERTEX
8
0
10
120.491374618004
20
90.3515263960603
30
0
0
VERTEX
8
0
10
121.128895118628
20
90.6002105810718
30
0
0
VERTEX
8
0
10
121.766415619252
20
90.8492658661498
30
0
0
VERTEX
8
0
10
122.403936119877
20
91.096784832088
30
0
0
VERTEX
8
0
10
123.041456620501
20
91.3440552409184
30
0
0
VERTEX
8
0
10
123.678977121125
20
91.5898162333509
30
0
0
VERTEX
8
0
10
124.31649762175
20
91.8362581853197
30
0
0
VERTEX
8
0
10
124.954018122374
20
92.0817131677496
30
0
0
VERTEX
8
0
10
125.591538622998
20
92.3260390567328
30
0
0
VERTEX
8
0
10
126.229059123623
20
92.5697655840722
30
0
0
VERTEX
8
0
10
126.866579624247
20
92.8103269926736
30
0
0
VERTEX
8
0
10
127.504100124872
20
93.0500207070914
30
0
0
VERTEX
8
0
10
128.141620625496
20
93.2891073952936
30
0
0
VERTEX
8
0
10
128.77914112612
20
93.5273286831353
30
0
0
VERTEX
8
0
10
129.416661626745
20
93.7652254862622
30
0
0
VERTEX
8
0
10
130.054182127369
20
94.0023051424997
30
0
0
VERTEX
8
0
10
130.691702627993
20
94.2384052795766
30
0
0
VERTEX
8
0
10
131.329223128618
20
94.4738577644759
30
0
0
VERTEX
8
0
10
131.966743629242
20
94.7068494341992
30
0
0
VERTEX
8
0
10
132.604264129866
20
94.9385477034966
30
0
0
VERTEX
8
0
10
133.241784630491
20
95.1696039353662
30
0
0
VERTEX
8
0
10
133.879305131115
20
95.3999591800058
30
0
0
VERTEX
8
0
10
134.516825631739
20
95.6186116456616
30
0
0
VERTEX
8
0
10
135.154346132364
20
95.8529019917745
30
0
0
VERTEX
8
0
10
135.791866632988
20
96.081572101496
30
0
0
VERTEX
8
0
10
136.429387133612
20
96.3093848839874
30
0
0
VERTEX
8
0
10
137.066907634237
20
96.5363998590648
30
0
0
VERTEX
8
0
10
137.704428134861
20
96.7652728846709
30
0
0
VERTEX
8
0
10
138.341948635485
20
96.9930428890063
30
0
0
VERTEX
8
0
10
138.97946913611
20
97.2200255283356
30
0
0
VERTEX
8
0
10
139.616989636734
20
97.4462357982726
30
0
0
VERTEX
8
0
10
140.254510137358
20
97.6716919409687
30
0
0
VERTEX
8
0
10
140.892030637983
20
97.8964024163602
30
0
0
VERTEX
8
0
10
141.529551138607
20
98.1203688062262
30
0
0
VERTEX
8
0
10
142.167071639231
20
98.343586921896
30
0
0
VERTEX
8
0
10
142.804592139856
20
98.5660509744889
30
0
0
VERTEX
8
0
10
143.44211264048
20
98.7877547045132
30
0
0
VERTEX
8
0
10
144.079633141104
20
99.0086920359228
30
0
0
VERTEX
8
0
10
144.717153641729
20
99.2288568390155
30
0
0
VERTEX
8
0
10
145.354674142353
20
99.4383593155404
30
0
0
VERTEX
8
0
10
145.992194642978
20
99.6430994598488
30
0
0
VERTEX
8
0
10
146.629715143602
20
99.8471307154409
30
0
0
VERTEX
8
0
10
147.267235644226
20
100.050446588458
30
0
0
VERTEX
8
0
10
147.904756144851
20
100.260241488048
30
0
0
VERTEX
8
0
10
148.542276645475
20
100.473916514233
30
0
0
VERTEX
8
0
10
149.179797146099
20
100.686797089025
30
0
0
VERTEX
8
0
10
149.817317646724
20
100.898877851953
30
0
0
VERTEX
8
0
10
150.454838147348
20
101.109194918321
30
0
0
VERTEX
8
0
10
151.092358647972
20
101.322780193993
30
0
0
VERTEX
8
0
10
151.729879148597
20
101.534232556619
30
0
0
VERTEX
8
0
10
152.367399649221
20
101.744847494705
30
0
0
VERTEX
8
0
10
153.004920149845
20
101.952571538659
30
0
0
VERTEX
8
0
10
153.64244065047
20
102.158418236193
30
0
0
VERTEX
8
0
10
154.279961151094
20
102.3634040547
30
0
0
VERTEX
8
0
10
154.917481651718
20
102.567524694893
30
0
0
SEQEND
8
0
0
POLYLINE
8
0
62
2
70
0
10
0
20
0
30
0
0
VERTEX
8
0
10
23.5882585231012
20
18.4835439285866
30
0
0
VERTEX
8
0
10
24.2257790237256
20
19.0002880264445
30
0
0
VERTEX
8
0
10
24.8632995243499
20
19.1750915193661
30
0
0
VERTEX
8
0
10
25.5008200249743
20
19.5345167569011
30
0
0
VERTEX
8
0
10
26.1383405255987
20
19.8549918187092
30
0
0
VERTEX
8
0
10
26.775861026223
20
20.1659349352297
30
0
0
VERTEX
8
0
10
27.4133815268474
20
20.5431837605088
30
0
0
VERTEX
8
0
10
28.0509020274717
20
20.8245087477145
30
0
0
VERTEX
8
0
10
28.6884225280961
20
21.124131191718
30
0
0
VERTEX
8
0
10
29.3259430287204
20
21.5100031180584
30
0
0
VERTEX
8
0
10
29.9634635293448
20
21.7528899133928
30
0
0
VERTEX
8
0
10
30.6009840299692
20
22.0477313633317
30
0
0
VERTEX
8
0
10
31.2385045305935
20
22.4358021372663
30
0
0
VERTEX
8
0
10
31.8760250312179
20
22.641430420799
30
0
0
VERTEX
8
0
10
32.5135455318422
20
22.9358468524954
30
0
0
VERTEX
8
0
10
33.1510660324666
20
23.2129783448855
30
0
0
VERTEX
8
0
10
33.788586533091
20
23.4856626667227
30
0
0
VERTEX
8
0
10
34.4261070337153
20
23.7882231248759
30
0
0
VERTEX
8
0
10
35.0636275343397
20
24.0388852585846
30
0
0
VERTEX
8
0
10
35.701148034964
20
24.2991081452465
30
0
0
VERTEX
8
0
10
36.3386685355884
20
24.6049847276667
30
0
0
VERTEX
8
0
10
36.9761890362127
20
24.8286112330245
30
0
0
VERTEX
8
0
10
37.6137095368371
20
25.0809164809196
30
0
0
VERTEX
8
0
10
38.2512300374615
20
25.3864800021701
30
0
0
VERTEX
8
0
10
38.8887505380858
20
25.5863854568214
30
0
0
VERTEX
8
0
10
39.5262710387102
20
25.8306834777172
30
0
0
VERTEX
8
0
10
40.1637915393345
20
26.0671638884713
30
0
0
VERTEX
8
0
10
40.8013120399589
20
26.3013620412775
30
0
0
VERTEX
8
0
10
41.4388325405832
20
26.548298689495
30
0
0
VERTEX
8
0
10
42.0763530412076
20
26.7651617468175
30
0
0
VERTEX
8
0
10
42.713873541832
20
26.9870687668621
30
0
0
VERTEX
8
0
10
43.3513940424563
20
27.2338444365082
30
0
0
VERTEX
8
0
10
43.9889145430807
20
27.4302858821353
30
0
0
VERTEX
8
0
10
44.626435043705
20
27.6431175633336
30
0
0
VERTEX
8
0
10
45.2639555443294
20
27.8875281793184
30
0
0
VERTEX
8
0
10
45.9014760449537
20
28.0676346733751
30
0
0
VERTEX
8
0
10
46.5389965455781
20
28.2693344762022
30
0
0
VERTEX
8
0
10
47.1765170462025
20
28.4676885759956
30
0
0
VERTEX
8
0
10
47.8140375468268
20
28.6646934117984
30
0
0
VERTEX
8
0
10
48.4515580474512
20
28.8656952003076
30
0
0
VERTEX
8
0
10
49.0890785480755
20
29.0484828262108
30
0
0
VERTEX
8
0
10
49.7265990486999
20
29.2337194231097
30
0
0
VERTEX
8
0
10
50.3641195493243
20
29.4322794761998
30
0
0
VERTEX
8
0
10
51.0016400499486
20
29.5987433459934
30
0
0
VERTEX
8
0
10
51.639160550573
20
29.7745370538262
30
0
0
VERTEX
8
0
10
52.2766810511973
20
29.9692386139679
30
0
0
VERTEX
8
0
10
52.9142015518217
20
30.1235703993626
30
0
0
VERTEX
8
0
10
53.551722052446
20
30.2870835166568
30
0
0
VERTEX
8
0
10
54.1892425530704
20
30.4493872473787
30
0
0
VERTEX
8
0
10
54.8267630536948
20
30.6106949723072
30
0
0
VERTEX
8
0
10
55.4642835543191
20
30.7713781930197
30
0
0
VERTEX
8
0
10
56.1018040549435
20
30.9206621306778
30
0
0
VERTEX
8
0
10
56.7393245555678
20
31.0707914582537
30
0
0
VERTEX
8
0
10
57.3768450561922
20
31.2274999198443
30
0
0
VERTEX
8
0
10
58.0143655568166
20
31.3631257718967
30
0
0
VERTEX
8
0
10
58.6518860574409
20
31.5037878377794
30
0
0
VERTEX
8
0
10
59.2894065580653
20
31.6555701218693
30
0
0
VERTEX
8
0
10
59.9269270586896
20
31.7815014427564
30
0
0
VERTEX
8
0
10
60.564447559314
20
31.9096760513446
30
0
0
VERTEX
8
0
10
61.2019680599383
20
32.0375902341566
30
0
0
VERTEX
8
0
10
61.8394885605627
20
32.1645711779728
30
0
0
VERTEX
8
0
10
62.4770090611871
20
32.2884960923786
30
0
0
VERTEX
8
0
10
63.1145295618114
20
32.4050628496238
30
0
0
VERTEX
8
0
10
63.7520500624358
20
32.5214305902844
30
0
0
VERTEX
8
0
10
64.3895705630601
20
32.6403238734179
30
0
0
VERTEX
8
0
10
65.0270910636845
20
32.7450308623851
30
0
0
VERTEX
8
0
10
65.6646115643088
20
32.8520608637103
30
0
0
VERTEX
8
0
10
66.3021320649332
20
32.9652619667092
30
0
0
VERTEX
8
0
10
66.9396525655576
20
33.0616821905519
30
0
0
VERTEX
8
0
10
67.5771730661819
20
33.1564819030165
30
0
0
VERTEX
8
0
10
68.2146935668063
20
33.2513350545659
30
0
0
VERTEX
8
0
10
68.8522140674306
20
33.3451687907639
30
0
0
VERTEX
8
0
10
69.489734568055
20
33.4347436293542
30
0
0
VERTEX
8
0
10
70.1272550686793
20
33.5193840577021
30
0
0
VERTEX
8
0
10
70.7647755693037
20
33.6031188906708
30
0
0
VERTEX
8
0
10
71.4022960699281
20
33.6869192336048
30
0
0
VERTEX
8
0
10
72.0398165705524
20
33.7609484169124
30
0
0
VERTEX
8
0
10
72.6773370711768
20
33.8355436847502
30
0
0
VERTEX
8
0
10
73.3148575718011
20
33.9130999763133
30
0
0
VERTEX
8
0
10
73.9523780724255
20
33.9796295462279
30
0
0
VERTEX
8
0
10
74.5898985730499
20
34.0424798006853
30
0
0
VERTEX
8
0
10
75.2274190736742
20
34.1053502453375
30
0
0
VERTEX
8
0
10
75.8649395742986
20
34.1670411874995
30
0
0
VERTEX
8
0
10
76.5024600749229
20
34.2239844755626
30
0
0
VERTEX
8
0
10
77.1399805755473
20
34.277434449484
30
0
0
VERTEX
8
0
10
77.7775010761716
20
34.3294886943803
30
0
0
VERTEX
8
0
10
78.415021576796
20
34.3801318521407
30
0
0
VERTEX
8
0
10
79.0525420774204
20
34.423860908518
30
0
0
VERTEX
8
0
10
79.6900625780447
20
34.4670049380238
30
0
0
VERTEX
8
0
10
80.3275830786691
20
34.511010198945
30
0
0
VERTEX
8
0
10
80.9651035792934
20
34.5476491904916
30
0
0
VERTEX
8
0
10
81.6026240799178
20
34.5796418301606
30
0
0
VERTEX
8
0
10
82.2401445805422
20
34.6114349486763
30
0
0
VERTEX
8
0
10
82.8776650811665
20
34.6418577854881
30
0
0
VERTEX
8
0
10
83.5151855817909
20
34.6674678799292
30
0
0
VERTEX
8
0
10
84.1527060824152
20
34.6904135270518
30
0
0
VERTEX
8
0
10
84.7902265830396
20
34.7116205300033
30
0
0
VERTEX
8
0
10
85.4277470836639
20
34.7305664863519
30
0
0
VERTEX
8
0
10
86.0652675842883
20
34.7444485077992
30
0
0
VERTEX
8
0
10
86.7027880849127
20
34.7569941278255
30
0
0
VERTEX
8
0
10
87.340308585537
20
34.769034879252
30
0
0
VERTEX
8
0
10
87.9778290861614
20
34.7760144716078
30
0
0
VERTEX
8
0
10
88.6153495867857
20
34.7780528418281
30
0
0
VERTEX
8
0
10
89.2528700874101
20
34.7795816000666
30
0
0
VERTEX
8
0
10
89.8903905880344
20
34.7795467056178
30
0
0
VERTEX
8
0
10
90.5279110886588
20
34.7748878534039
30
0
0
VERTEX
8
0
10
91.1654315892832
20
34.7680099816002
30
0
0
VERTEX
8
0
10
91.8029520899075
20
34.7591587050244
30
0
0
VERTEX
8
0
10
92.4404725905319
20
34.7476072299774
30
0
0
VERTEX
8
0
10
93.0779930911562
20
34.7321815575914
30
0
0
VERTEX
8
0
10
93.7155135917806
20
34.714943873515
30
0
0
VERTEX
8
0
10
94.3530340924049
20
34.6963364849239
30
0
0
VERTEX
8
0
10
94.9905545930293
20
34.6740857965143
30
0
0
VERTEX
8
0
10
95.6280750936537
20
34.6470165038783
30
0
0
VERTEX
8
0
10
96.265595594278
20
34.6191005294101
30
0
0
VERTEX
8
0
10
96.9031160949024
20
34.5894474025955
30
0
0
VERTEX
8
0
10
97.5406365955267
20
34.5555130069441
30
0
0
VERTEX
8
0
10
98.1781570961511
20
34.5195725041205
30
0
0
VERTEX
8
0
10
98.8156775967754
20
34.4815132437062
30
0
0
VERTEX
8
0
10
99.4531980973998
20
34.4405938361881
30
0
0
VERTEX
8
0
10
100.090718598024
20
34.3965600145235
30
0
0
VERTEX
8
0
10
100.728239098649
20
34.3504416348303
30
0
0
VERTEX
8
0
10
101.365759599273
20
34.3024461676105
30
0
0
VERTEX
8
0
10
102.003280099897
20
34.251651012511
30
0
0
VERTEX
8
0
10
102.640800600522
20
34.1964217248389
30
0
0
VERTEX
8
0
10
103.278321101146
20
34.140031269974
30
0
0
VERTEX
8
0
10
103.91584160177
20
34.0817741726024
30
0
0
VERTEX
8
0
10
104.553362102395
20
34.0196774217808
30
0
0
VERTEX
8
0
10
105.190882603019
20
33.9556650665392
30
0
0
VERTEX
8
0
10
105.828403103643
20
33.8894769947584
30
0
0
VERTEX
8
0
10
106.465923604268
20
33.8204724103666
30
0
0
VERTEX
8
0
10
107.103444104892
20
33.7488497714415
30
0
0
VERTEX
8
0
10
107.740964605516
20
33.675037988129
30
0
0
VERTEX
8
0
10
108.378485106141
20
33.599116453779
30
0
0
VERTEX
8
0
10
109.016005606765
20
33.5208908418454
30
0
0
VERTEX
8
0
10
109.65352610739
20
33.4387880523127
30
0
0
VERTEX
8
0
10
110.291046608014
20
33.3552828636928
30
0
0
VERTEX
8
0
10
110.928567108638
20
33.2698602372149
30
0
0
VERTEX
8
0
10
111.566087609263
20
33.1811193629933
30
0
0
VERTEX
8
0
10
112.203608109887
20
33.0905268567248
30
0
0
VERTEX
8
0
10
112.841128610511
20
32.9978111735372
30
0
0
VERTEX
8
0
10
113.478649111136
20
32.9024964185034
30
0
0
VERTEX
8
0
10
114.11616961176
20
32.8049360580094
30
0
0
VERTEX
8
0
10
114.753690112384
20
32.7052517715682
30
0
0
VERTEX
8
0
10
115.391210613009
20
32.6034697726947
30
0
0
VERTEX
8
0
10
116.028731113633
20
32.4997195634099
30
0
0
VERTEX
8
0
10
116.666251614257
20
32.392788052018
30
0
0
VERTEX
8
0
10
117.303772114882
20
32.2843568633126
30
0
0
VERTEX
8
0
10
117.941292615506
20
32.1740975209484
30
0
0
VERTEX
8
0
10
118.578813116131
20
32.0611437121673
30
0
0
VERTEX
8
0
10
119.216333616755
20
31.9464861462413
30
0
0
VERTEX
8
0
10
119.853854117379
20
31.8299271685131
30
0
0
VERTEX
8
0
10
120.491374618004
20
31.7111850867715
30
0
0
VERTEX
8
0
10
121.128895118628
20
31.5905973767354
30
0
0
VERTEX
8
0
10
121.766415619252
20
31.4681771091961
30
0
0
VERTEX
8
0
10
122.403936119877
20
31.3439529584037
30
0
0
VERTEX
8
0
10
123.041456620501
20
31.2181389495095
30
0
0
VERTEX
8
0
10
123.678977121125
20
31.0900170958223
30
0
0
VERTEX
8
0
10
124.31649762175
20
30.9605712093183
30
0
0
VERTEX
8
0
10
124.954018122374
20
30.8296537187374
30
0
0
VERTEX
8
0
10
125.591538622998
20
30.6968670948885
30
0
0
VERTEX
8
0
10
126.229059123623
20
30.5627872949856
30
0
0
VERTEX
8
0
10
126.866579624247
20
30.4273452600203
30
0
0
VERTEX
8
0
10
127.504100124872
20
30.2904627416611
30
0
0
VERTEX
8
0
10
128.141620625496
20
30.1523996911658
30
0
0
VERTEX
8
0
10
128.77914112612
20
30.0131988372835
30
0
0
VERTEX
8
0
10
129.416661626745
20
29.8729451826784
30
0
0
VERTEX
8
0
10
130.054182127369
20
29.7318435702823
30
0
0
VERTEX
8
0
10
130.691702627993
20
29.5896854796259
30
0
0
VERTEX
8
0
10
131.329223128618
20
29.4469565428135
30
0
0
VERTEX
8
0
10
131.966743629242
20
29.3037043055031
30
0
0
VERTEX
8
0
10
132.604264129866
20
29.1599295768461
30
0
0
VERTEX
8
0
10
133.241784630491
20
29.0159606928149
30
0
0
VERTEX
8
0
10
133.879305131115
20
28.8719231957918
30
0
0
VERTEX
8
0
10
134.516825631739
20
28.7279760708993
30
0
0
VERTEX
8
0
10
135.154346132364
20
28.5843899656628
30
0
0
VERTEX
8
0
10
135.791866632988
20
28.4413944388368
30
0
0
VERTEX
8
0
10
136.429387133612
20
28.2992694498724
30
0
0
VERTEX
8
0
10
137.066907634237
20
28.1583560840963
30
0
0
VERTEX
8
0
10
137.704428134861
20
28.0190005719868
30
0
0
VERTEX
8
0
10
138.341948635485
20
27.8817051710126
30
0
0
VERTEX
8
0
10
138.97946913611
20
27.747035679554
30
0
0
VERTEX
8
0
10
139.616989636734
20
27.6157205485517
30
0
0
VERTEX
8
0
10
140.254510137358
20
27.488585419916
30
0
0
VERTEX
8
0
10
140.892030637983
20
27.3661205305344
30
0
0
VERTEX
8
0
10
141.529551138607
20
27.2480953175039
30
0
0
VERTEX
8
0
10
142.167071639231
20
27.1339349051279
30
0
0
VERTEX
8
0
10
142.804592139856
20
27.0231266794717
30
0
0
VERTEX
8
0
10
143.44211264048
20
26.9152840183791
30
0
0
VERTEX
8
0
10
144.079633141104
20
26.8101131480129
30
0
0
VERTEX
8
0
10
144.717153641729
20
26.7073825272234
30
0
0
VERTEX
8
0
10
145.354674142353
20
26.6069034710432
30
0
0
VERTEX
8
0
10
145.992194642978
20
26.5085181484649
30
0
0
VERTEX
8
0
10
146.629715143602
20
26.412091847584
30
0
0
VERTEX
8
0
10
147.267235644226
20
26.3175077518852
30
0
0
VERTEX
8
0
10
147.904756144851
20
26.2246632626059
30
0
0
VERTEX
8
0
10
148.542276645475
20
26.1334673183265
30
0
0
VERTEX
8
0
10
149.179797146099
20
26.0438383847156
30
0
0
VERTEX
8
0
10
149.817317646724
20
25.9557029105611
30
0
0
VERTEX
8
0
10
150.454838147348
20
25.8689941178822
30
0
0
VERTEX
8
0
10
151.092358647972
20
25.7836510374414
30
0
0
VERTEX
8
0
10
151.729879148597
20
25.6996177283995
30
0
0
VERTEX
8
0
10
152.367399649221
20
25.6168426387377
30
0
0
VERTEX
8
0
10
153.004920149845
20
25.5352780750438
30
0
0
VERTEX
8
0
10
153.64244065047
20
25.4548797584921
30
0
0
VERTEX
8
0
10
154.279961151094
20
25.3756064496266
30
0
0
VERTEX
8
0
10
154.917481651718
20
25.2974196286965
30
0
0
SEQEND
8
0
0
POLYLINE
8
0
62
3
70
0
10
0
20
0
30
0
0
VERTEX
8
0
10
23.5882585231012
20
25.1156412367357
30
0
0
VERTEX
8
0
10
24.2257790237256
20
25.7612607601211
30
0
0
VERTEX
8
0
10
24.8632995243499
20
26.1710625325471
30
0
0
VERTEX
8
0
10
25.5008200249743
20
26.696301478058
30
0
0
VERTEX
8
0
10
26.1383405255987
20
27.1988105430725
30
0
0
VERTEX
8
0
10
26.775861026223
20
27.6958786244534
30
0
0
VERTEX
8
0
10
27.4133815268474
20
28.2284112603078
30
0
0
VERTEX
8
0
10
28.0509020274717
20
28.6981855017474
30
0
0
VERTEX
8
0
10
28.6884225280961
20
29.179450750389
30
0
0
VERTEX
8
0
10
29.3259430287204
20
29.7123531683054
30
0
0
VERTEX
8
0
10
29.9634635293448
20
30.1500461879299
30
0
0
VERTEX
8
0
10
30.6009840299692
20
30.6203061647929
30
0
0
VERTEX
8
0
10
31.2385045305935
20
31.1487905337913
30
0
0
VERTEX
8
0
10
31.8760250312179
20
31.5611378086316
30
0
0
VERTEX
8
0
10
32.5135455318422
20
32.0177962487576
30
0
0
VERTEX
8
0
10
33.1510660324666
20
32.4673973893339
30
0
0
VERTEX
8
0
10
33.788586533091
20
32.9150564729681
30
0
0
VERTEX
8
0
10
34.4261070337153
20
33.3717623269532
30
0
0
VERTEX
8
0
10
35.0636275343397
20
33.798013323945
30
0
0
VERTEX
8
0
10
35.701148034964
20
34.2291535605495
30
0
0
VERTEX
8
0
10
36.3386685355884
20
34.682337830602
30
0
0
VERTEX
8
0
10
36.9761890362127
20
35.0848746268186
30
0
0
VERTEX
8
0
10
37.6137095368371
20
35.5028228903415
30
0
0
VERTEX
8
0
10
38.2512300374615
20
35.9498289312702
30
0
0
VERTEX
8
0
10
38.8887505380858
20
36.3363903265135
30
0
0
VERTEX
8
0
10
39.5262710387102
20
36.7358044581308
30
0
0
VERTEX
8
0
10
40.1637915393345
20
37.1345318281459
30
0
0
VERTEX
8
0
10
40.8013120399589
20
37.5326270137899
30
0
0
VERTEX
8
0
10
41.4388325405832
20
37.9280661851208
30
0
0
VERTEX
8
0
10
42.0763530412076
20
38.3084025821762
30
0
0
VERTEX
8
0
10
42.713873541832
20
38.6902903731284
30
0
0
VERTEX
8
0
10
43.3513940424563
20
39.0797263259747
30
0
0
VERTEX
8
0
10
43.9889145430807
20
39.4411075643097
30
0
0
VERTEX
8
0
10
44.626435043705
20
39.8091484264112
30
0
0
VERTEX
8
0
10
45.2639555443294
20
40.1910019865844
30
0
0
VERTEX
8
0
10
45.9014760449537
20
40.5411918818079
30
0
0
VERTEX
8
0
10
46.5389965455781
20
40.8891368677966
30
0
0
VERTEX
8
0
10
47.1765170462025
20
41.2390280158813
30
0
0
VERTEX
8
0
10
47.8140375468268
20
41.5886951935216
30
0
0
VERTEX
8
0
10
48.4515580474512
20
41.9303096919562
30
0
0
VERTEX
8
0
10
49.0890785480755
20
42.2646899070152
30
0
0
VERTEX
8
0
10
49.7265990486999
20
42.5987521354595
30
0
0
VERTEX
8
0
10
50.3641195493243
20
42.9328046166611
30
0
0
VERTEX
8
0
10
51.0016400499486
20
43.2511348884296
30
0
0
VERTEX
8
0
10
51.639160550573
20
43.5713148253819
30
0
0
VERTEX
8
0
10
52.2766810511973
20
43.8968187192325
30
0
0
VERTEX
8
0
10
52.9142015518217
20
44.2064204100109
30
0
0
VERTEX
8
0
10
53.551722052446
20
44.5064264807268
30
0
0
VERTEX
8
0
10
54.1892425530704
20
44.8093004127929
30
0
0
VERTEX
8
0
10
54.8267630536948
20
45.1119487053231
30
0
0
VERTEX
8
0
10
55.4642835543191
20
45.4041983222502
30
0
0
VERTEX
8
0
10
56.1018040549435
20
45.6933563048837
30
0
0
VERTEX
8
0
10
56.7393245555678
20
45.9810798155074
30
0
0
VERTEX
8
0
10
57.3768450561922
20
46.2647926999112
30
0
0
VERTEX
8
0
10
58.0143655568166
20
46.5397805985793
30
0
0
VERTEX
8
0
10
58.6518860574409
20
46.8138702201529
30
0
0
VERTEX
8
0
10
59.2894065580653
20
47.08841074686
30
0
0
VERTEX
8
0
10
59.9269270586896
20
47.3558837062024
30
0
0
VERTEX
8
0
10
60.564447559314
20
47.6104315877188
30
0
0
VERTEX
8
0
10
61.2019680599383
20
47.8679230205778
30
0
0
VERTEX
8
0
10
61.8394885605627
20
48.1249940459759
30
0
0
VERTEX
8
0
10
62.4770090611871
20
48.3709191498732
30
0
0
VERTEX
8
0
10
63.1145295618114
20
48.6158849483057
30
0
0
VERTEX
8
0
10
63.7520500624358
20
48.8587254545897
30
0
0
VERTEX
8
0
10
64.3895705630601
20
49.0955230075373
30
0
0
VERTEX
8
0
10
65.0270910636845
20
49.3276034388545
30
0
0
VERTEX
8
0
10
65.6646115643088
20
49.5572051351409
30
0
0
VERTEX
8
0
10
66.3021320649332
20
49.7844616633376
30
0
0
VERTEX
8
0
10
66.9396525655576
20
50.009546329816
30
0
0
VERTEX
8
0
10
67.5771730661819
20
50.2205980344006
30
0
0
VERTEX
8
0
10
68.2146935668063
20
50.4342366884832
30
0
0
VERTEX
8
0
10
68.8522140674306
20
50.6471738103423
30
0
0
VERTEX
8
0
10
69.489734568055
20
50.8491008228895
30
0
0
VERTEX
8
0
10
70.1272550686793
20
51.0510576169361
30
0
0
VERTEX
8
0
10
70.7647755693037
20
51.2504596239434
30
0
0
VERTEX
8
0
10
71.4022960699281
20
51.4429374019501
30
0
0
VERTEX
8
0
10
72.0398165705524
20
51.632942075498
30
0
0
VERTEX
8
0
10
72.6773370711768
20
51.8195902933044
30
0
0
VERTEX
8
0
10
73.3148575718011
20
52.0023556183265
30
0
0
VERTEX
8
0
10
73.9523780724255
20
52.185500548903
30
0
0
VERTEX
8
0
10
74.5898985730499
20
52.3547821430882
30
0
0
VERTEX
8
0
10
75.2274190736742
20
52.5260784162859
30
0
0
VERTEX
8
0
10
75.8649395742986
20
52.6963640385683
30
0
0
VERTEX
8
0
10
76.5024600749229
20
52.8562783470166
30
0
0
VERTEX
8
0
10
77.1399805755473
20
53.0165432125948
30
0
0
VERTEX
8
0
10
77.7775010761716
20
53.1739976106754
30
0
0
VERTEX
8
0
10
78.415021576796
20
53.3243468604751
30
0
0
VERTEX
8
0
10
79.0525420774204
20
53.4733921963632
30
0
0
VERTEX
8
0
10
79.6900625780447
20
53.6186486607366
30
0
0
VERTEX
8
0
10
80.3275830786691
20
53.7592790872143
30
0
0
VERTEX
8
0
10
80.9651035792934
20
53.9014079025602
30
0
0
VERTEX
8
0
10
81.6026240799178
20
54.0305921396925
30
0
0
VERTEX
8
0
10
82.2401445805422
20
54.1611267427295
30
0
0
VERTEX
8
0
10
82.8776650811665
20
54.2903497568965
30
0
0
VERTEX
8
0
10
83.5151855817909
20
54.4101295332001
30
0
0
VERTEX
8
0
10
84.1527060824152
20
54.530191519391
30
0
0
VERTEX
8
0
10
84.7902265830396
20
54.6473137952207
30
0
0
VERTEX
8
0
10
85.4277470836639
20
54.7575884320324
30
0
0
VERTEX
8
0
10
86.0652675842883
20
54.8670664804627
30
0
0
VERTEX
8
0
10
86.7027880849127
20
54.9726196421225
30
0
0
VERTEX
8
0
10
87.340308585537
20
55.0733226245616
30
0
0
VERTEX
8
0
10
87.9778290861614
20
55.1757638539599
30
0
0
VERTEX
8
0
10
88.6153495867857
20
55.2666164365561
30
0
0
VERTEX
8
0
10
89.2528700874101
20
55.3581410341605
30
0
0
VERTEX
8
0
10
89.8903905880344
20
55.4480878191432
30
0
0
VERTEX
8
0
10
90.5279110886588
20
55.52968329079
30
0
0
VERTEX
8
0
10
91.1654315892832
20
55.6112799112482
30
0
0
VERTEX
8
0
10
91.8029520899075
20
55.6899100212345
30
0
0
VERTEX
8
0
10
92.4404725905319
20
55.7622302298163
30
0
0
VERTEX
8
0
10
93.0779930911562
20
55.8338629692783
30
0
0
VERTEX
8
0
10
93.7155135917806
20
55.9016435600412
30
0
0
VERTEX
8
0
10
94.3530340924049
20
55.9646995904039
30
0
0
VERTEX
8
0
10
94.9905545930293
20
56.0292124926014
30
0
0
VERTEX
8
0
10
95.6280750936537
20
56.0837370151565
30
0
0
VERTEX
8
0
10
96.265595594278
20
56.1382974357593
30
0
0
VERTEX
8
0
10
96.9031160949024
20
56.1910724373861
30
0
0
VERTEX
8
0
10
97.5406365955267
20
56.2366763488482
30
0
0
VERTEX
8
0
10
98.1781570961511
20
56.2819092197978
30
0
0
VERTEX
8
0
10
98.8156775967754
20
56.3242429753234
30
0
0
VERTEX
8
0
10
99.4531980973998
20
56.3609873059576
30
0
0
VERTEX
8
0
10
100.090718598024
20
56.3969361866723
30
0
0
VERTEX
8
0
10
100.728239098649
20
56.4292644421396
30
0
0
VERTEX
8
0
10
101.365759599273
20
56.4572383295274
30
0
0
VERTEX
8
0
10
102.003280099897
20
56.486114735063
30
0
0
VERTEX
8
0
10
102.640800600522
20
56.5067234660869
30
0
0
VERTEX
8
0
10
103.278321101146
20
56.5268224960916
30
0
0
VERTEX
8
0
10
103.91584160177
20
56.5450133865007
30
0
0
VERTEX
8
0
10
104.553362102395
20
56.557256658627
30
0
0
VERTEX
8
0
10
105.190882603019
20
56.5687596381775
30
0
0
VERTEX
8
0
10
105.828403103643
20
56.577529895998
30
0
0
VERTEX
8
0
10
106.465923604268
20
56.5815549577177
30
0
0
VERTEX
8
0
10
107.103444104892
20
56.5845964375832
30
0
0
VERTEX
8
0
10
107.740964605516
20
56.5843839367416
30
0
0
VERTEX
8
0
10
108.378485106141
20
56.5803686966862
30
0
0
VERTEX
8
0
10
109.016005606765
20
56.5766179615525
30
0
0
VERTEX
8
0
10
109.65352610739
20
56.5663593394317
30
0
0
VERTEX
8
0
10
110.291046608014
20
56.5551860640955
30
0
0
VERTEX
8
0
10
110.928567108638
20
56.5421004898397
30
0
0
VERTEX
8
0
10
111.566087609263
20
56.524310490496
30
0
0
VERTEX
8
0
10
112.203608109887
20
56.5054985718067
30
0
0
VERTEX
8
0
10
112.841128610511
20
56.4842382093144
30
0
0
VERTEX
8
0
10
113.478649111136
20
56.4591697957673
30
0
0
VERTEX
8
0
10
114.11616961176
20
56.4329676454021
30
0
0
VERTEX
8
0
10
114.753690112384
20
56.4040123276851
30
0
0
VERTEX
8
0
10
115.391210613009
20
56.3719564084517
30
0
0
VERTEX
8
0
10
116.028731113633
20
56.3396073323834
30
0
0
VERTEX
8
0
10
116.666251614257
20
56.3024981023787
30
0
0
VERTEX
8
0
10
117.303772114882
20
56.2642719400552
30
0
0
VERTEX
8
0
10
117.941292615506
20
56.2242963996073
30
0
0
VERTEX
8
0
10
118.578813116131
20
56.180876242863
30
0
0
VERTEX
8
0
10
119.216333616755
20
56.1363316379095
30
0
0
VERTEX
8
0
10
119.853854117379
20
56.0897797879072
30
0
0
VERTEX
8
0
10
120.491374618004
20
56.0404465431457
30
0
0
VERTEX
8
0
10
121.128895118628
20
55.9899887798809
30
0
0
VERTEX
8
0
10
121.766415619252
20
55.937439278849
30
0
0
VERTEX
8
0
10
122.403936119877
20
55.8826444037102
30
0
0
VERTEX
8
0
10
123.041456620501
20
55.8272473797583
30
0
0
VERTEX
8
0
10
123.678977121125
20
55.7688058038775
30
0
0
VERTEX
8
0
10
124.31649762175
20
55.7093382158231
30
0
0
VERTEX
8
0
10
124.954018122374
20
55.6485305191386
30
0
0
VERTEX
8
0
10
125.591538622998
20
55.58558316044
30
0
0
VERTEX
8
0
10
126.229059123623
20
55.5217103938717
30
0
0
VERTEX
8
0
10
126.866579624247
20
55.4565068920607
30
0
0
VERTEX
8
0
10
127.504100124872
20
55.3896786271918
30
0
0
VERTEX
8
0
10
128.141620625496
20
55.3220528748185
30
0
0
VERTEX
8
0
10
128.77914112612
20
55.2532361444824
30
0
0
VERTEX
8
0
10
129.416661626745
20
55.1832440180855
30
0
0
VERTEX
8
0
10
130.054182127369
20
55.1128101466212
30
0
0
VERTEX
8
0
10
130.691702627993
20
55.0410589233856
30
0
0
VERTEX
8
0
10
131.329223128618
20
54.9688337060326
30
0
0
VERTEX
8
0
10
131.966743629242
20
54.8960884818737
30
0
0
VERTEX
8
0
10
132.604264129866
20
54.8226724541457
30
0
0
VERTEX
8
0
10
133.241784630491
20
54.7490619497497
30
0
0
VERTEX
8
0
10
133.879305131115
20
54.67523518282
30
0
0
VERTEX
8
0
10
134.516825631739
20
54.6012520760872
30
0
0
VERTEX
8
0
10
135.154346132364
20
54.527439475581
30
0
0
VERTEX
8
0
10
135.791866632988
20
54.4538525704322
30
0
0
VERTEX
8
0
10
136.429387133612
20
54.3806734932106
30
0
0
VERTEX
8
0
10
137.066907634237
20
54.3081910432396
30
0
0
VERTEX
8
0
10
137.704428134861
20
54.2365226605489
30
0
0
VERTEX
8
0
10
138.341948635485
20
54.1660198788248
30
0
0
VERTEX
8
0
10
138.97946913611
20
54.0969895464757
30
0
0
VERTEX
8
0
10
139.616989636734
20
54.0298288748233
30
0
0
VERTEX
8
0
10
140.254510137358
20
53.9649855755647
30
0
0
VERTEX
8
0
10
140.892030637983
20
53.9027147785172
30
0
0
VERTEX
8
0
10
141.529551138607
20
53.842891556011
30
0
0
VERTEX
8
0
10
142.167071639231
20
53.7852092056452
30
0
0
VERTEX
8
0
10
142.804592139856
20
53.7293931474385
30
0
0
VERTEX
8
0
10
143.44211264048
20
53.675234769528
30
0
0
VERTEX
8
0
10
144.079633141104
20
53.6225743605029
30
0
0
VERTEX
8
0
10
144.717153641729
20
53.5712851772976
30
0
0
VERTEX
8
0
10
145.354674142353
20
53.5212633111384
30
0
0
VERTEX
8
0
10
145.992194642978
20
53.4724213827327
30
0
0
VERTEX
8
0
10
146.629715143602
20
53.4246844620603
30
0
0
VERTEX
8
0
10
147.267235644226
20
53.3779873016595
30
0
0
VERTEX
8
0
10
147.904756144851
20
53.3322723812016
30
0
0
VERTEX
8
0
10
148.542276645475
20
53.2874884769741
30
0
0
VERTEX
8
0
10
149.179797146099
20
53.2435895851773
30
0
0
VERTEX
8
0
10
149.817317646724
20
53.200534092121
30
0
0
VERTEX
8
0
10
150.454838147348
20
53.1582841218247
30
0
0
VERTEX
8
0
10
151.092358647972
20
53.1168050142906
30
0
0
VERTEX
8
0
10
151.729879148597
20
53.0760649020957
30
0
0
VERTEX
8
0
10
152.367399649221
20
53.0360343623415
30
0
0
VERTEX
8
0
10
153.004920149845
20
52.9966861272988
30
0
0
VERTEX
8
0
10
153.64244065047
20
52.9579948414297
30
0
0
VERTEX
8
0
10
154.279961151094
20
52.9199368555173
30
0
0
VERTEX
8
0
10
154.917481651718
20
52.8824900508285
30
0
0
SEQEND
8
0
0
POLYLINE
8
0
62
4
70
0
10
0
20
0
30
0
0
VERTEX
8
0
10
23.5882585231012
20
25.0985361710985
30
0
0
VERTEX
8
0
10
24.2257790237256
20
25.571721878895
30
0
0
VERTEX
8
0
10
24.8632995243499
20
26.0610797724441
30
0
0
VERTEX
8
0
10
25.5008200249743
20
26.530211059727
30
0
0
VERTEX
8
0
10
26.1383405255987
20
27.0053372243975
30
0
0
VERTEX
8
0
10
26.775861026223
20
27.4877713403187
30
0
0
VERTEX
8
0
10
27.4133815268474
20
27.9574751679436
30
0
0
VERTEX
8
0
10
28.0509020274717
20
28.4343531852215
30
0
0
VERTEX
8
0
10
28.6884225280961
20
28.9094043509666
30
0
0
VERTEX
8
0
10
29.3259430287204
20
29.3720179090353
30
0
0
VERTEX
8
0
10
29.9634635293448
20
29.8427070612714
30
0
0
VERTEX
8
0
10
30.6009840299692
20
30.3083229726753
30
0
0
VERTEX
8
0
10
31.2385045305935
20
30.7649902675205
30
0
0
VERTEX
8
0
10
31.8760250312179
20
31.2369648532938
30
0
0
VERTEX
8
0
10
32.5135455318422
20
31.6891567385649
30
0
0
VERTEX
8
0
10
33.1510660324666
20
32.146707354213
30
0
0
VERTEX
8
0
10
33.788586533091
20
32.60545908294
30
0
0
VERTEX
8
0
10
34.4261070337153
20
33.0528665301475
30
0
0
VERTEX
8
0
10
35.0636275343397
20
33.5076246699449
30
0
0
VERTEX
8
0
10
35.701148034964
20
33.9603597134136
30
0
0
VERTEX
8
0
10
36.3386685355884
20
34.402614450439
30
0
0
VERTEX
8
0
10
36.9761890362127
20
34.8525506780197
30
0
0
VERTEX
8
0
10
37.6137095368371
20
35.2921404206826
30
0
0
VERTEX
8
0
10
38.2512300374615
20
35.7246828840573
30
0
0
VERTEX
8
0
10
38.8887505380858
20
36.1713639122195
30
0
0
VERTEX
8
0
10
39.5262710387102
20
36.5994004130982
30
0
0
VERTEX
8
0
10
40.1637915393345
20
37.0369612394736
30
0
0
VERTEX
8
0
10
40.8013120399589
20
37.4743256013434
30
0
0
VERTEX
8
0
10
41.4388325405832
20
37.9000207126064
30
0
0
VERTEX
8
0
10
42.0763530412076
20
38.3315873205679
30
0
0
VERTEX
8
0
10
42.713873541832
20
38.7334816173465
30
0
0
VERTEX
8
0
10
43.3513940424563
20
39.1291970827655
30
0
0
VERTEX
8
0
10
43.9889145430807
20
39.5318611698351
30
0
0
VERTEX
8
0
10
44.626435043705
20
39.9297037668349
30
0
0
VERTEX
8
0
10
45.2639555443294
20
40.2154427946255
30
0
0
VERTEX
8
0
10
45.9014760449537
20
40.5157513109385
30
0
0
VERTEX
8
0
10
46.5389965455781
20
40.7991441646798
30
0
0
VERTEX
8
0
10
47.1765170462025
20
41.0870951641909
30
0
0
VERTEX
8
0
10
47.8140375468268
20
41.363422182396
30
0
0
VERTEX
8
0
10
48.4515580474512
20
41.6274007802008
30
0
0
VERTEX
8
0
10
49.0890785480755
20
41.8970524285795
30
0
0
VERTEX
8
0
10
49.7265990486999
20
42.1649995362097
30
0
0
VERTEX
8
0
10
50.3641195493243
20
42.425312294306
30
0
0
VERTEX
8
0
10
51.0016400499486
20
42.6927216457819
30
0
0
VERTEX
8
0
10
51.639160550573
20
42.9557779033588
30
0
0
VERTEX
8
0
10
52.2766810511973
20
43.2113754227122
30
0
0
VERTEX
8
0
10
52.9142015518217
20
43.4769464684826
30
0
0
VERTEX
8
0
10
53.551722052446
20
43.725172665835
30
0
0
VERTEX
8
0
10
54.1892425530704
20
43.9773579530136
30
0
0
VERTEX
8
0
10
54.8267630536948
20
44.2302040066087
30
0
0
VERTEX
8
0
10
55.4642835543191
20
44.4730628250331
30
0
0
VERTEX
8
0
10
56.1018040549435
20
44.7334566890243
30
0
0
VERTEX
8
0
10
56.7393245555678
20
44.9879559165424
30
0
0
VERTEX
8
0
10
57.3768450561922
20
45.2339227945882
30
0
0
VERTEX
8
0
10
58.0143655568166
20
45.4856127313359
30
0
0
VERTEX
8
0
10
58.6518860574409
20
45.7171369141704
30
0
0
VERTEX
8
0
10
59.2894065580653
20
45.94540236136
30
0
0
VERTEX
8
0
10
59.9269270586896
20
46.1843586110457
30
0
0
VERTEX
8
0
10
60.564447559314
20
46.4086175767902
30
0
0
VERTEX
8
0
10
61.2019680599383
20
46.6482009511651
30
0
0
VERTEX
8
0
10
61.8394885605627
20
46.8862473420994
30
0
0
VERTEX
8
0
10
62.4770090611871
20
47.1149937702069
30
0
0
VERTEX
8
0
10
63.1145295618114
20
47.347830163928
30
0
0
VERTEX
8
0
10
63.7520500624358
20
47.569873760995
30
0
0
VERTEX
8
0
10
64.3895705630601
20
47.7843420502585
30
0
0
VERTEX
8
0
10
65.0270910636845
20
48.0036969093333
30
0
0
VERTEX
8
0
10
65.6646115643088
20
48.2189521178379
30
0
0
VERTEX
8
0
10
66.3021320649332
20
48.4200962594668
30
0
0
VERTEX
8
0
10
66.9396525655576
20
48.6296144305277
30
0
0
VERTEX
8
0
10
67.5771730661819
20
48.8258435036121
30
0
0
VERTEX
8
0
10
68.2146935668063
20
49.0247334053358
30
0
0
VERTEX
8
0
10
68.8522140674306
20
49.2047000198991
30
0
0
VERTEX
8
0
10
69.489734568055
20
49.3702495101959
30
0
0
VERTEX
8
0
10
70.1272550686793
20
49.5392936601552
30
0
0
VERTEX
8
0
10
70.7647755693037
20
49.7064343158328
30
0
0
VERTEX
8
0
10
71.4022960699281
20
49.8695580057419
30
0
0
VERTEX
8
0
10
72.0398165705524
20
50.0387086473056
30
0
0
VERTEX
8
0
10
72.6773370711768
20
50.2040805251397
30
0
0
VERTEX
8
0
10
73.3148575718011
20
50.363514891451
30
0
0
VERTEX
8
0
10
73.9523780724255
20
50.5308240119215
30
0
0
VERTEX
8
0
10
74.5898985730499
20
50.6984112839735
30
0
0
VERTEX
8
0
10
75.2274190736742
20
50.8641641866295
30
0
0
VERTEX
8
0
10
75.8649395742986
20
51.0296715370025
30
0
0
VERTEX
8
0
10
76.5024600749229
20
51.1876495382558
30
0
0
VERTEX
8
0
10
77.1399805755473
20
51.33310556678
30
0
0
VERTEX
8
0
10
77.7775010761716
20
51.4804678450336
30
0
0
VERTEX
8
0
10
78.415021576796
20
51.6214568106243
30
0
0
VERTEX
8
0
10
79.0525420774204
20
51.7657197137872
30
0
0
VERTEX
8
0
10
79.6900625780447
20
51.9083991890638
30
0
0
VERTEX
8
0
10
80.3275830786691
20
52.0454117954979
30
0
0
VERTEX
8
0
10
80.9651035792934
20
52.1888537981391
30
0
0
VERTEX
8
0
10
81.6026240799178
20
52.3219885520424
30
0
0
VERTEX
8
0
10
82.2401445805422
20
52.4702108363108
30
0
0
VERTEX
8
0
10
82.8776650811665
20
52.6171773168291
30
0
0
VERTEX
8
0
10
83.5151855817909
20
52.757514756851
30
0
0
VERTEX
8
0
10
84.1527060824152
20
52.8998349928287
30
0
0
VERTEX
8
0
10
84.7902265830396
20
53.0269911219416
30
0
0
VERTEX
8
0
10
85.4277470836639
20
53.147376530958
30
0
0
VERTEX
8
0
10
86.0652675842883
20
53.2702129015517
30
0
0
VERTEX
8
0
10
86.7027880849127
20
53.3898350270268
30
0
0
VERTEX
8
0
10
87.340308585537
20
53.5035109409205
30
0
0
VERTEX
8
0
10
87.9778290861614
20
53.6218704187012
30
0
0
VERTEX
8
0
10
88.6153495867857
20
53.731457429024
30
0
0
VERTEX
8
0
10
89.2528700874101
20
53.8420103835317
30
0
0
VERTEX
8
0
10
89.8903905880344
20
53.9407646136128
30
0
0
VERTEX
8
0
10
90.5279110886588
20
54.0276356553629
30
0
0
VERTEX
8
0
10
91.1654315892832
20
54.1159167771974
30
0
0
VERTEX
8
0
10
91.8029520899075
20
54.2023936523299
30
0
0
VERTEX
8
0
10
92.4404725905319
20
54.2707323725801
30
0
0
VERTEX
8
0
10
93.0779930911562
20
54.3275591115543
30
0
0
VERTEX
8
0
10
93.7155135917806
20
54.3816502722669
30
0
0
VERTEX
8
0
10
94.3530340924049
20
54.4318189869525
30
0
0
VERTEX
8
0
10
94.9905545930293
20
54.4858619506381
30
0
0
VERTEX
8
0
10
95.6280750936537
20
54.5580909701632
30
0
0
VERTEX
8
0
10
96.265595594278
20
54.6241234462558
30
0
0
VERTEX
8
0
10
96.9031160949024
20
54.6893838145168
30
0
0
VERTEX
8
0
10
97.5406365955267
20
54.7499405897013
30
0
0
VERTEX
8
0
10
98.1781570961511
20
54.8151025048
30
0
0
VERTEX
8
0
10
98.8156775967754
20
54.8778749671162
30
0
0
VERTEX
8
0
10
99.4531980973998
20
54.9366417607384
30
0
0
VERTEX
8
0
10
100.090718598024
20
54.9964732428464
30
0
0
VERTEX
8
0
10
100.728239098649
20
55.0272611929552
30
0
0
VERTEX
8
0
10
101.365759599273
20
55.056772886334
30
0
0
VERTEX
8
0
10
102.003280099897
20
55.0889529901419
30
0
0
VERTEX
8
0
10
102.640800600522
20
55.1154028198898
30
0
0
VERTEX
8
0
10
103.278321101146
20
55.1664062161905
30
0
0
VERTEX
8
0
10
103.91584160177
20
55.2180026037824
30
0
0
VERTEX
8
0
10
104.553362102395
20
55.2657727978613
30
0
0
VERTEX
8
0
10
105.190882603019
20
55.3138541169374
30
0
0
VERTEX
8
0
10
105.828403103643
20
55.344548138331
30
0
0
VERTEX
8
0
10
106.465923604268
20
55.3681600206287
30
0
0
VERTEX
8
0
10
107.103444104892
20
55.3922948276228
30
0
0
VERTEX
8
0
10
107.740964605516
20
55.4143625955716
30
0
0
VERTEX
8
0
10
108.378485106141
20
55.4437312565832
30
0
0
VERTEX
8
0
10
109.016005606765
20
55.4797161493541
30
0
0
VERTEX
8
0
10
109.65352610739
20
55.5112747448165
30
0
0
VERTEX
8
0
10
110.291046608014
20
55.5426099434042
30
0
0
VERTEX
8
0
10
110.928567108638
20
55.5620192959111
30
0
0
VERTEX
8
0
10
111.566087609263
20
55.5685286720232
30
0
0
VERTEX
8
0
10
112.203608109887
20
55.5750099588018
30
0
0
VERTEX
8
0
10
112.841128610511
20
55.5801666341538
30
0
0
VERTEX
8
0
10
113.478649111136
20
55.5828919139379
30
0
0
VERTEX
8
0
10
114.11616961176
20
55.5712880409564
30
0
0
VERTEX
8
0
10
114.753690112384
20
55.5620665785405
30
0
0
VERTEX
8
0
10
115.391210613009
20
55.5508491765783
30
0
0
VERTEX
8
0
10
116.028731113633
20
55.5404005238628
30
0
0
VERTEX
8
0
10
116.666251614257
20
55.5268887897706
30
0
0
VERTEX
8
0
10
117.303772114882
20
55.5130174248714
30
0
0
VERTEX
8
0
10
117.941292615506
20
55.4983293857672
30
0
0
VERTEX
8
0
10
118.578813116131
20
55.4816009117529
30
0
0
VERTEX
8
0
10
119.216333616755
20
55.4678311687883
30
0
0
VERTEX
8
0
10
119.853854117379
20
55.4526823071723
30
0
0
VERTEX
8
0
10
120.491374618004
20
55.4358326770649
30
0
0
VERTEX
8
0
10
121.128895118628
20
55.4187556999997
30
0
0
VERTEX
8
0
10
121.766415619252
20
55.4004581682581
30
0
0
VERTEX
8
0
10
122.403936119877
20
55.3807614163417
30
0
0
VERTEX
8
0
10
123.041456620501
20
55.3611948420129
30
0
0
VERTEX
8
0
10
123.678977121125
20
55.3396915627438
30
0
0
VERTEX
8
0
10
124.31649762175
20
55.3177251289746
30
0
0
VERTEX
8
0
10
124.954018122374
20
55.2950551739153
30
0
0
VERTEX
8
0
10
125.591538622998
20
55.2710914764988
30
0
0
VERTEX
8
0
10
126.229059123623
20
55.2467278615931
30
0
0
VERTEX
8
0
10
126.866579624247
20
55.2215885913888
30
0
0
VERTEX
8
0
10
127.504100124872
20
55.1954151726972
30
0
0
VERTEX
8
0
10
128.141620625496
20
55.1688888111726
30
0
0
VERTEX
8
0
10
128.77914112612
20
55.1415855202273
30
0
0
VERTEX
8
0
10
129.416661626745
20
55.1126912622399
30
0
0
VERTEX
8
0
10
130.054182127369
20
55.0829614531946
30
0
0
VERTEX
8
0
10
130.691702627993
20
55.0522737826017
30
0
0
VERTEX
8
0
10
131.329223128618
20
55.0212062593975
30
0
0
VERTEX
8
0
10
131.966743629242
20
54.989684391306
30
0
0
VERTEX
8
0
10
132.604264129866
20
54.9575545133898
30
0
0
VERTEX
8
0
10
133.241784630491
20
54.925115491232
30
0
0
VERTEX
8
0
10
133.879305131115
20
54.8922782999038
30
0
0
VERTEX
8
0
10
134.516825631739
20
54.8590189428318
30
0
0
VERTEX
8
0
10
135.154346132364
20
54.8646639291435
30
0
0
VERTEX
8
0
10
135.791866632988
20
54.861678883168
30
0
0
VERTEX
8
0
10
136.429387133612
20
54.8583759955651
30
0
0
VERTEX
8
0
10
137.066907634237
20
54.8548711773298
30
0
0
VERTEX
8
0
10
137.704428134861
20
54.855861008754
30
0
0
VERTEX
8
0
10
138.341948635485
20
54.8561547688722
30
0
0
VERTEX
8
0
10
138.97946913611
20
54.856319405749
30
0
0
VERTEX
8
0
10
139.616989636734
20
54.8563932152259
30
0
0
VERTEX
8
0
10
140.254510137358
20
54.8564201305497
30
0
0
VERTEX
8
0
10
140.892030637983
20
54.8564271289968
30
0
0
VERTEX
8
0
10
141.529551138607
20
54.8564286336348
30
0
0
VERTEX
8
0
10
142.167071639231
20
54.856428936049
30
0
0
VERTEX
8
0
10
142.804592139856
20
54.8564289961872
30
0
0
VERTEX
8
0
10
143.44211264048
20
54.8564290081885
30
0
0
VERTEX
8
0
10
144.079633141104
20
54.8564290105991
30
0
0
VERTEX
8
0
10
144.717153641729
20
54.8564290110868
30
0
0
VERTEX
8
0
10
145.354674142353
20
54.8385085727107
30
0
0
VERTEX
8
0
10
145.992194642978
20
54.8132740353658
30
0
0
VERTEX
8
0
10
146.629715143602
20
54.7880690116904
30
0
0
VERTEX
8
0
10
147.267235644226
20
54.762893542449
30
0
0
VERTEX
8
0
10
147.904756144851
20
54.7488899274348
30
0
0
VERTEX
8
0
10
148.542276645475
20
54.743303059932
30
0
0
VERTEX
8
0
10
149.179797146099
20
54.7377176554906
30
0
0
VERTEX
8
0
10
149.817317646724
20
54.732133714559
30
0
0
VERTEX
8
0
10
150.454838147348
20
54.7265512375847
30
0
0
VERTEX
8
0
10
151.092358647972
20
54.7289534173364
30
0
0
VERTEX
8
0
10
151.729879148597
20
54.7289534173364
30
0
0
VERTEX
8
0
10
152.367399649221
20
54.7289534173364
30
0
0
VERTEX
8
0
10
153.004920149845
20
54.7289534173364
30
0
0
VERTEX
8
0
10
153.64244065047
20
54.7289534173364
30
0
0
VERTEX
8
0
10
154.279961151094
20
54.7289534173364
30
0
0
VERTEX
8
0
10
154.917481651718
20
54.7289534173365
30
0
0
SEQEND
8
0
0
POLYLINE
8
0
62
2
70
0
10
0
20
0
30
0
0
VERTEX
8
0
10
23.5882585231012
20
6.21253128975562
30
0
0
VERTEX
8
0
10
24.2257790237256
20
6.4464073676702
30
0
0
VERTEX
8
0
10
24.8632995243499
20
6.68034811656317
30
0
0
VERTEX
8
0
10
25.5008200249743
20
6.91537824024713
30
0
0
VERTEX
8
0
10
26.1383405255987
20
7.15049615175948
30
0
0
VERTEX
8
0
10
26.775861026223
20
7.38654880669161
30
0
0
VERTEX
8
0
10
27.4133815268474
20
7.62269397940579
30
0
0
VERTEX
8
0
10
28.0509020274717
20
7.85964224395774
30
0
0
VERTEX
8
0
10
28.6884225280961
20
8.09667612186477
30
0
0
VERTEX
8
0
10
29.3259430287204
20
8.33439878282865
30
0
0
VERTEX
8
0
10
29.9634635293448
20
8.572192631865
30
0
0
VERTEX
8
0
10
30.6009840299692
20
8.81057453159773
30
0
0
VERTEX
8
0
10
31.2385045305935
20
9.04900827248234
30
0
0
VERTEX
8
0
10
31.8760250312179
20
9.28794026275303
30
0
0
VERTEX
8
0
10
32.5135455318422
20
9.52690152454851
30
0
0
VERTEX
8
0
10
33.1510660324666
20
9.76628022595945
30
0
0
VERTEX
8
0
10
33.788586533091
20
10.0056635498165
30
0
0
VERTEX
8
0
10
34.4261070337153
20
10.2453910223911
30
0
0
VERTEX
8
0
10
35.0636275343397
20
10.4850971763974
30
0
0
VERTEX
8
0
10
35.701148034964
20
10.7250805576412
30
0
0
VERTEX
8
0
10
36.3386685355884
20
10.9650159392832
30
0
0
VERTEX
8
0
10
36.9761890362127
20
11.2051670795232
30
0
0
VERTEX
8
0
10
37.6137095368371
20
11.4452431903328
30
0
0
VERTEX
8
0
10
38.2512300374615
20
11.6854783010278
30
0
0
VERTEX
8
0
10
38.8887505380858
20
11.9256112824562
30
0
0
VERTEX
8
0
10
39.5262710387102
20
12.1658506046162
30
0
0
VERTEX
8
0
10
40.1637915393345
20
12.4059608265306
30
0
0
VERTEX
8
0
10
40.8013120399589
20
12.646128322462
30
0
0
VERTEX
8
0
10
41.4388325405832
20
12.8861400172921
30
0
0
VERTEX
8
0
10
42.0763530412076
20
13.1261630866333
30
0
0
VERTEX
8
0
10
42.713873541832
20
13.3660040229212
30
0
0
VERTEX
8
0
10
43.3513940424563
20
13.6058132422536
30
0
0
VERTEX
8
0
10
43.9889145430807
20
13.8454144331874
30
0
0
VERTEX
8
0
10
44.626435043705
20
14.0849433178694
30
0
0
VERTEX
8
0
10
45.2639555443294
20
14.3242387602189
30
0
0
VERTEX
8
0
10
45.9014760449537
20
14.563423546748
30
0
0
VERTEX
8
0
10
46.5389965455781
20
14.8023499864026
30
0
0
VERTEX
8
0
10
47.1765170462025
20
15.0411294344254
30
0
0
VERTEX
8
0
10
47.8140375468268
20
15.279626155362
30
0
0
VERTEX
8
0
10
48.4515580474512
20
15.5179413664663
30
0
0
VERTEX
8
0
10
49.0890785480755
20
15.7559500004426
30
0
0
VERTEX
8
0
10
49.7265990486999
20
15.9937442532898
30
0
0
VERTEX
8
0
10
50.3641195493243
20
16.231208607932
30
0
0
VERTEX
8
0
10
51.0016400499486
20
16.4684272073435
30
0
0
VERTEX
8
0
10
51.639160550573
20
16.7052931102282
30
0
0
VERTEX
8
0
10
52.2766810511973
20
16.9418832493084
30
0
0
VERTEX
8
0
10
52.9142015518217
20
17.1780984065726
30
0
0
VERTEX
8
0
10
53.551722052446
20
17.4140090406756
30
0
0
VERTEX
8
0
10
54.1892425530704
20
17.6495229082513
30
0
0
VERTEX
8
0
10
54.8267630536948
20
17.884704639384
30
0
0
VERTEX
8
0
10
55.4642835543191
20
18.1194683055487
30
0
0
VERTEX
8
0
10
56.1018040549435
20
18.3538732761393
30
0
0
VERTEX
8
0
10
56.7393245555678
20
18.5878393546217
30
0
0
VERTEX
8
0
10
57.3768450561922
20
18.8214211503632
30
0
0
VERTEX
8
0
10
58.0143655568166
20
19.0545436818717
30
0
0
VERTEX
8
0
10
58.6518860574409
20
19.2872572419065
30
0
0
VERTEX
8
0
10
59.2894065580653
20
19.5194916042775
30
0
0
VERTEX
8
0
10
59.9269270586896
20
19.7512931386607
30
0
0
VERTEX
8
0
10
60.564447559314
20
19.9825959642113
30
0
0
VERTEX
8
0
10
61.2019680599383
20
20.2134428777545
30
0
0
VERTEX
8
0
10
61.8394885605627
20
20.4437719772039
30
0
0
VERTEX
8
0
10
62.4770090611871
20
20.6736227989442
30
0
0
VERTEX
8
0
10
63.1145295618114
20
20.9029370912252
30
0
0
VERTEX
8
0
10
63.7520500624358
20
21.1317514094761
30
0
0
VERTEX
8
0
10
64.3895705630601
20
21.3600108570008
30
0
0
VERTEX
8
0
10
65.0270910636845
20
21.5877492588051
30
0
0
VERTEX
8
0
10
65.6646115643088
20
21.8149148074996
30
0
0
VERTEX
8
0
10
66.3021320649332
20
22.0415388228017
30
0
0
VERTEX
8
0
10
66.9396525655576
20
22.2675723466835
30
0
0
VERTEX
8
0
10
67.5771730661819
20
22.4930443962312
30
0
0
VERTEX
8
0
10
68.2146935668063
20
22.7179086457728
30
0
0
VERTEX
8
0
10
68.8522140674306
20
22.9421919927617
30
0
0
VERTEX
8
0
10
69.489734568055
20
23.1658505471697
30
0
0
VERTEX
8
0
10
70.1272550686793
20
23.3889092522073
30
0
0
VERTEX
8
0
10
70.7647755693037
20
23.6113264748017
30
0
0
VERTEX
8
0
10
71.4022960699281
20
23.8331253538029
30
0
0
VERTEX
8
0
10
72.0398165705524
20
24.0542663506207
30
0
0
VERTEX
8
0
10
72.6773370711768
20
24.2747709356489
30
0
0
VERTEX
8
0
10
73.3148575718011
20
24.494601516628
30
0
0
VERTEX
8
0
10
73.9523780724255
20
24.7137780191713
30
0
0
VERTEX
8
0
10
74.5898985730499
20
24.9322646620584
30
0
0
VERTEX
8
0
10
75.2274190736742
20
25.1500799387174
30
0
0
VERTEX
8
0
10
75.8649395742986
20
25.3671897552163
30
0
0
VERTEX
8
0
10
76.5024600749229
20
25.5836112755202
30
0
0
VERTEX
8
0
10
77.1399805755473
20
25.7993119796424
30
0
0
VERTEX
8
0
10
77.7775010761716
20
26.0143077958672
30
0
0
VERTEX
8
0
10
78.415021576796
20
26.2285676741562
30
0
0
VERTEX
8
0
10
79.0525420774204
20
26.4421063930496
30
0
0
VERTEX
8
0
10
79.6900625780447
20
26.6548942768079
30
0
0
VERTEX
8
0
10
80.3275830786691
20
26.8669450328617
30
0
0
VERTEX
8
0
10
80.9651035792934
20
27.0782302718592
30
0
0
VERTEX
8
0
10
81.6026240799178
20
27.2887627023028
30
0
0
VERTEX
8
0
10
82.2401445805422
20
27.4985151401768
30
0
0
VERTEX
8
0
10
82.8776650811665
20
27.7074993614023
30
0
0
VERTEX
8
0
10
83.5151855817909
20
27.9156893124687
30
0
0
VERTEX
8
0
10
84.1527060824152
20
28.123095897706
30
0
0
VERTEX
8
0
10
84.7902265830396
20
28.3296941250179
30
0
0
VERTEX
8
0
10
85.4277470836639
20
28.5354940834226
30
0
0
VERTEX
8
0
10
86.0652675842883
20
28.7404717781808
30
0
0
VERTEX
8
0
10
86.7027880849127
20
28.9446365348892
30
0
0
VERTEX
8
0
10
87.340308585537
20
29.1479652970318
30
0
0
VERTEX
8
0
10
87.9778290861614
20
29.3504666745488
30
0
0
VERTEX
8
0
10
88.6153495867857
20
29.5521184941678
30
0
0
VERTEX
8
0
10
89.2528700874101
20
29.752928694541
30
0
0
VERTEX
8
0
10
89.8903905880344
20
29.9528759346002
30
0
0
VERTEX
8
0
10
90.5279110886588
20
30.1519675226679
30
0
0
VERTEX
8
0
10
91.1654315892832
20
30.3501829024448
30
0
0
VERTEX
8
0
10
91.8029520899075
20
30.5475287899163
30
0
0
VERTEX
8
0
10
92.4404725905319
20
30.7439853694292
30
0
0
VERTEX
8
0
10
93.0779930911562
20
30.9395587998055
30
0
0
VERTEX
8
0
10
93.7155135917806
20
31.1342299649489
30
0
0
VERTEX
8
0
10
94.3530340924049
20
31.3280044992528
30
0
0
VERTEX
8
0
10
94.9905545930293
20
31.5208639477791
30
0
0
VERTEX
8
0
10
95.6280750936537
20
31.7128134509059
30
0
0
VERTEX
8
0
10
96.265595594278
20
31.9038351790948
30
0
0
VERTEX
8
0
10
96.9031160949024
20
32.0939338069622
30
0
0
VERTEX
8
0
10
97.5406365955267
20
32.2830920969358
30
0
0
VERTEX
8
0
10
98.1781570961511
20
32.4713142842066
30
0
0
VERTEX
8
0
10
98.8156775967754
20
32.6585836918877
30
0
0
VERTEX
8
0
10
99.4531980973998
20
32.8449041403088
30
0
0
VERTEX
8
0
10
100.090718598024
20
33.0302594839916
30
0
0
VERTEX
8
0
10
100.728239098649
20
33.2146531513217
30
0
0
VERTEX
8
0
10
101.365759599273
20
33.3980695007904
30
0
0
VERTEX
8
0
10
102.003280099897
20
33.5805115902034
30
0
0
VERTEX
8
0
10
102.640800600522
20
33.7619642563235
30
0
0
VERTEX
8
0
10
103.278321101146
20
33.9424302063874
30
0
0
VERTEX
8
0
10
103.91584160177
20
34.121894731324
30
0
0
VERTEX
8
0
10
104.553362102395
20
34.3003602064656
30
0
0
VERTEX
8
0
10
105.190882603019
20
34.4778123542245
30
0
0
VERTEX
8
0
10
105.828403103643
20
34.6542532355488
30
0
0
VERTEX
8
0
10
106.465923604268
20
34.8296689830872
30
0
0
VERTEX
8
0
10
107.103444104892
20
35.0040613597796
30
0
0
VERTEX
8
0
10
107.740964605516
20
35.1774168884462
30
0
0
VERTEX
8
0
10
108.378485106141
20
35.3497370494277
30
0
0
VERTEX
8
0
10
109.016005606765
20
35.5210087368847
30
0
0
VERTEX
8
0
10
109.65352610739
20
35.6912331630423
30
0
0
VERTEX
8
0
10
110.291046608014
20
35.8603975755517
30
0
0
VERTEX
8
0
10
110.928567108638
20
36.0285029320905
30
0
0
VERTEX
8
0
10
111.566087609263
20
36.1955368172122
30
0
0
VERTEX
8
0
10
112.203608109887
20
36.3614999466399
30
0
0
VERTEX
8
0
10
112.841128610511
20
36.5263802260677
30
0
0
VERTEX
8
0
10
113.478649111136
20
36.6901781414332
30
0
0
VERTEX
8
0
10
114.11616961176
20
36.8528819045761
30
0
0
VERTEX
8
0
10
114.753690112384
20
37.0144917828835
30
0
0
VERTEX
8
0
10
115.391210613009
20
37.1749962803714
30
0
0
VERTEX
8
0
10
116.028731113633
20
37.3343954565245
30
0
0
VERTEX
8
0
10
116.666251614257
20
37.4926780942651
30
0
0
VERTEX
8
0
10
117.303772114882
20
37.6498440552407
30
0
0
VERTEX
8
0
10
117.941292615506
20
37.8058823887384
30
0
0
VERTEX
8
0
10
118.578813116131
20
37.9607927680273
30
0
0
VERTEX
8
0
10
119.216333616755
20
38.1145644969475
30
0
0
VERTEX
8
0
10
119.853854117379
20
38.2671970693491
30
0
0
VERTEX
8
0
10
120.491374618004
20
38.4186800324276
30
0
0
VERTEX
8
0
10
121.128895118628
20
38.5690127090933
30
0
0
VERTEX
8
0
10
121.766415619252
20
38.7181848793017
30
0
0
VERTEX
8
0
10
122.403936119877
20
38.8661957030697
30
0
0
VERTEX
8
0
10
123.041456620501
20
39.0130351830854
30
0
0
VERTEX
8
0
10
123.678977121125
20
39.1587023240824
30
0
0
VERTEX
8
0
10
124.31649762175
20
39.3031873420032
30
0
0
VERTEX
8
0
10
124.954018122374
20
39.4464890935157
30
0
0
VERTEX
8
0
10
125.591538622998
20
39.5885979988628
30
0
0
VERTEX
8
0
10
126.229059123623
20
39.729512773483
30
0
0
VERTEX
8
0
10
126.866579624247
20
39.8692240334653
30
0
0
VERTEX
8
0
10
127.504100124872
20
40.0077303595429
30
0
0
VERTEX
8
0
10
128.141620625496
20
40.1450225555815
30
0
0
VERTEX
8
0
10
128.77914112612
20
40.2810990738397
30
0
0
VERTEX
8
0
10
129.416661626745
20
40.4159508983737
30
0
0
VERTEX
8
0
10
130.054182127369
20
40.5495763588946
30
0
0
VERTEX
8
0
10
130.691702627993
20
40.6819666124472
30
0
0
VERTEX
8
0
10
131.329223128618
20
40.8131198718566
30
0
0
VERTEX
8
0
10
131.966743629242
20
40.9430274603761
30
0
0
VERTEX
8
0
10
132.604264129866
20
41.0716874793594
30
0
0
VERTEX
8
0
10
133.241784630491
20
41.1990914118124
30
0
0
VERTEX
8
0
10
133.879305131115
20
41.3252372528067
30
0
0
VERTEX
8
0
10
134.516825631739
20
41.4501166390852
30
0
0
VERTEX
8
0
10
135.154346132364
20
41.5737274643784
30
0
0
VERTEX
8
0
10
135.791866632988
20
41.6960615134194
30
0
0
VERTEX
8
0
10
136.429387133612
20
41.8171165834304
30
0
0
VERTEX
8
0
10
137.066907634237
20
41.9368846017233
30
0
0
VERTEX
8
0
10
137.704428134861
20
42.0553632736083
30
0
0
VERTEX
8
0
10
138.341948635485
20
42.1725446639173
30
0
0
VERTEX
8
0
10
138.97946913611
20
42.2884263904991
30
0
0
VERTEX
8
0
10
139.616989636734
20
42.4030006509155
30
0
0
VERTEX
8
0
10
140.254510137358
20
42.5162649798892
30
0
0
VERTEX
8
0
10
140.892030637983
20
42.628211703233
30
0
0
VERTEX
8
0
10
141.529551138607
20
42.7388382767109
30
0
0
VERTEX
8
0
10
142.167071639231
20
42.8481371502097
30
0
0
VERTEX
8
0
10
142.804592139856
20
42.9561057046256
30
0
0
VERTEX
8
0
10
143.44211264048
20
43.0627365099842
30
0
0
VERTEX
8
0
10
144.079633141104
20
43.168026876299
30
0
0
VERTEX
8
0
10
144.717153641729
20
43.2719694901071
30
0
0
VERTEX
8
0
10
145.354674142353
20
43.3745615944345
30
0
0
VERTEX
8
0
10
145.992194642978
20
43.47579598897
30
0
0
VERTEX
8
0
10
146.629715143602
20
43.5756698535861
30
0
0
VERTEX
8
0
10
147.267235644226
20
43.6741760980101
30
0
0
VERTEX
8
0
10
147.904756144851
20
43.7713118427544
30
0
0
VERTEX
8
0
10
148.542276645475
20
43.8670701047305
30
0
0
VERTEX
8
0
10
149.179797146099
20
43.9614479488639
30
0
0
VERTEX
8
0
10
149.817317646724
20
44.0544384966866
30
0
0
VERTEX
8
0
10
150.454838147348
20
44.1460387612188
30
0
0
VERTEX
8
0
10
151.092358647972
20
44.2362419663188
30
0
0
VERTEX
8
0
10
151.729879148597
20
44.3250450768568
30
0
0
VERTEX
8
0
10
152.367399649221
20
44.4124414169501
30
0
0
VERTEX
8
0
10
153.004920149845
20
44.4984279070237
30
0
0
VERTEX
8
0
10
153.64244065047
20
44.5829979697008
30
0
0
VERTEX
8
0
10
154.279961151094
20
44.6661484847792
30
0
0
VERTEX
8
0
10
154.917481651718
20
44.7478729718433
30
0
0
SEQEND
8
0
0
POLYLINE
8
0
62
3
70
0
10
0
20
0
30
0
0
VERTEX
8
0
10
23.5882585231012
20
14.08915220649
30
0
0
VERTEX
8
0
10
24.2257790237256
20
14.5065375172939
30
0
0
VERTEX
8
0
10
24.8632995243499
20
14.9243441774248
30
0
0
VERTEX
8
0
10
25.5008200249743
20
15.3430091730203
30
0
0
VERTEX
8
0
10
26.1383405255987
20
15.7620531063956
30
0
0
VERTEX
8
0
10
26.775861026223
20
16.1818405380981
30
0
0
VERTEX
8
0
10
27.4133815268474
20
16.6019610296078
30
0
0
VERTEX
8
0
10
28.0509020274717
20
17.0227227383163
30
0
0
VERTEX
8
0
10
28.6884225280961
20
17.4437700985141
30
0
0
VERTEX
8
0
10
29.3259430287204
20
17.865366217738
30
0
0
VERTEX
8
0
10
29.9634635293448
20
18.28720014311
30
0
0
VERTEX
8
0
10
30.6009840299692
20
18.7094983000445
30
0
0
VERTEX
8
0
10
31.2385045305935
20
19.1319866084796
30
0
0
VERTEX
8
0
10
31.8760250312179
20
19.5548611804249
30
0
0
VERTEX
8
0
10
32.5135455318422
20
19.977878804403
30
0
0
VERTEX
8
0
10
33.1510660324666
20
20.4012102503672
30
0
0
VERTEX
8
0
10
33.788586533091
20
20.8246384155989
30
0
0
VERTEX
8
0
10
34.4261070337153
20
21.2483126852285
30
0
0
VERTEX
8
0
10
35.0636275343397
20
21.6720382280828
30
0
0
VERTEX
8
0
10
35.701148034964
20
22.0959462426344
30
0
0
VERTEX
8
0
10
36.3386685355884
20
22.519861034787
30
0
0
VERTEX
8
0
10
36.9761890362127
20
22.9438982322651
30
0
0
VERTEX
8
0
10
37.6137095368371
20
23.3678986902968
30
0
0
VERTEX
8
0
10
38.2512300374615
20
23.7919646266627
30
0
0
VERTEX
8
0
10
38.8887505380858
20
24.2159512903694
30
0
0
VERTEX
8
0
10
39.5262710387102
20
24.639949288981
30
0
0
VERTEX
8
0
10
40.1637915393345
20
25.0638264560509
30
0
0
VERTEX
8
0
10
40.8013120399589
20
25.4876632986049
30
0
0
VERTEX
8
0
10
41.4388325405832
20
25.9113387061109
30
0
0
VERTEX
8
0
10
42.0763530412076
20
26.3349243593708
30
0
0
VERTEX
8
0
10
42.713873541832
20
26.7583089043193
30
0
0
VERTEX
8
0
10
43.3513940424563
20
27.1815562776041
30
0
0
VERTEX
8
0
10
43.9889145430807
20
27.6045637707501
30
0
0
VERTEX
8
0
10
44.626435043705
20
28.0273884999259
30
0
0
VERTEX
8
0
10
45.2639555443294
20
28.4499354477765
30
0
0
VERTEX
8
0
10
45.9014760449537
20
28.8722557021316
30
0
0
VERTEX
8
0
10
46.5389965455781
20
29.2942611130324
30
0
0
VERTEX
8
0
10
47.1765170462025
20
29.7159974224328
30
0
0
VERTEX
8
0
10
47.8140375468268
20
30.137382633402
30
0
0
VERTEX
8
0
10
48.4515580474512
20
30.5584577325627
30
0
0
VERTEX
8
0
10
49.0890785480755
20
30.979146254111
30
0
0
VERTEX
8
0
10
49.7265990486999
20
31.3994849423984
30
0
0
VERTEX
8
0
10
50.3641195493243
20
31.8194023190315
30
0
0
VERTEX
8
0
10
51.0016400499486
20
32.2389313334848
30
0
0
VERTEX
8
0
10
51.639160550573
20
32.6580050177534
30
0
0
VERTEX
8
0
10
52.2766810511973
20
33.0766529179648
30
0
0
VERTEX
8
0
10
52.9142015518217
20
33.4948121565668
30
0
0
VERTEX
8
0
10
53.551722052446
20
33.9125092200867
30
0
0
VERTEX
8
0
10
54.1892425530704
20
34.3296849504305
30
0
0
VERTEX
8
0
10
54.8267630536948
20
34.7463630773726
30
0
0
VERTEX
8
0
10
55.4642835543191
20
35.1624878334162
30
0
0
VERTEX
8
0
10
56.1018040549435
20
35.5780804592192
30
0
0
VERTEX
8
0
10
56.7393245555678
20
35.9930882857699
30
0
0
VERTEX
8
0
10
57.3768450561922
20
36.4075303015505
30
0
0
VERTEX
8
0
10
58.0143655568166
20
36.8213566755616
30
0
0
VERTEX
8
0
10
58.6518860574409
20
37.2345843548145
30
0
0
VERTEX
8
0
10
59.2894065580653
20
37.6471661134806
30
0
0
VERTEX
8
0
10
59.9269270586896
20
38.0591170448016
30
0
0
VERTEX
8
0
10
60.564447559314
20
38.4703923194591
30
0
0
VERTEX
8
0
10
61.2019680599383
20
38.8810053445754
30
0
0
VERTEX
8
0
10
61.8394885605627
20
39.2909134998591
30
0
0
VERTEX
8
0
10
62.4770090611871
20
39.7001286563608
30
0
0
VERTEX
8
0
10
63.1145295618114
20
40.1086102340745
30
0
0
VERTEX
8
0
10
63.7520500624358
20
40.5163687026446
30
0
0
VERTEX
8
0
10
64.3895705630601
20
40.9233653699553
30
0
0
VERTEX
8
0
10
65.0270910636845
20
41.3296094253237
30
0
0
VERTEX
8
0
10
65.6646115643088
20
41.7350639267795
30
0
0
VERTEX
8
0
10
66.3021320649332
20
42.1397368924332
30
0
0
VERTEX
8
0
10
66.9396525655576
20
42.5435930055679
30
0
0
VERTEX
8
0
10
67.5771730661819
20
42.9466392115787
30
0
0
VERTEX
8
0
10
68.2146935668063
20
43.3488417055943
30
0
0
VERTEX
8
0
10
68.8522140674306
20
43.7502064494708
30
0
0
VERTEX
8
0
10
69.489734568055
20
44.1507010469782
30
0
0
VERTEX
8
0
10
70.1272550686793
20
44.5503305572278
30
0
0
VERTEX
8
0
10
70.7647755693037
20
44.94906389853
30
0
0
VERTEX
8
0
10
71.4022960699281
20
45.3469053006489
30
0
0
VERTEX
8
0
10
72.0398165705524
20
45.7438249105629
30
0
0
VERTEX
8
0
10
72.6773370711768
20
46.1398261953917
30
0
0
VERTEX
8
0
10
73.3148575718011
20
46.5348804522048
30
0
0
VERTEX
8
0
10
73.9523780724255
20
46.9289904463191
30
0
0
VERTEX
8
0
10
74.5898985730499
20
47.3221285528975
30
0
0
VERTEX
8
0
10
75.2274190736742
20
47.7142968909651
30
0
0
VERTEX
8
0
10
75.8649395742986
20
48.1054688477111
30
0
0
VERTEX
8
0
10
76.5024600749229
20
48.4956459466209
30
0
0
VERTEX
8
0
10
77.1399805755473
20
48.8848025262112
30
0
0
VERTEX
8
0
10
77.7775010761716
20
49.2729395608598
30
0
0
VERTEX
8
0
10
78.415021576796
20
49.6600322845536
30
0
0
VERTEX
8
0
10
79.0525420774204
20
50.0460811652037
30
0
0
VERTEX
8
0
10
79.6900625780447
20
50.4310622807499
30
0
0
VERTEX
8
0
10
80.3275830786691
20
50.8149756317327
30
0
0
VERTEX
8
0
10
80.9651035792934
20
51.1977980925703
30
0
0
VERTEX
8
0
10
81.6026240799178
20
51.5795292323973
30
0
0
VERTEX
8
0
10
82.2401445805422
20
51.9601466782302
30
0
0
VERTEX
8
0
10
82.8776650811665
20
52.3396496009273
30
0
0
VERTEX
8
0
10
83.5151855817909
20
52.7180163394989
30
0
0
VERTEX
8
0
10
84.1527060824152
20
53.0952456970462
30
0
0
VERTEX
8
0
10
84.7902265830396
20
53.4713166870025
30
0
0
VERTEX
8
0
10
85.4277470836639
20
53.8462277729423
30
0
0
VERTEX
8
0
10
86.0652675842883
20
54.2199586078191
30
0
0
VERTEX
8
0
10
86.7027880849127
20
54.5925073417723
30
0
0
VERTEX
8
0
10
87.340308585537
20
54.9638542349974
30
0
0
VERTEX
8
0
10
87.9778290861614
20
55.3339971482686
30
0
0
VERTEX
8
0
10
88.6153495867857
20
55.7029169189677
30
0
0
VERTEX
8
0
10
89.2528700874101
20
56.0706111409291
30
0
0
VERTEX
8
0
10
89.8903905880344
20
56.4370612007815
30
0
0
VERTEX
8
0
10
90.5279110886588
20
56.8022644461746
30
0
0
VERTEX
8
0
10
91.1654315892832
20
57.1662027869885
30
0
0
VERTEX
8
0
10
91.8029520899075
20
57.5288733440019
30
0
0
VERTEX
8
0
10
92.4404725905319
20
57.8902585261431
30
0
0
VERTEX
8
0
10
93.0779930911562
20
58.2503552452564
30
0
0
VERTEX
8
0
10
93.7155135917806
20
58.6091463867669
30
0
0
VERTEX
8
0
10
94.3530340924049
20
58.966628670337
30
0
0
VERTEX
8
0
10
94.9905545930293
20
59.3227854368087
30
0
0
VERTEX
8
0
10
95.6280750936537
20
59.6776132292843
30
0
0
VERTEX
8
0
10
96.265595594278
20
60.0310958243921
30
0
0
VERTEX
8
0
10
96.9031160949024
20
60.3832296032474
30
0
0
VERTEX
8
0
10
97.5406365955267
20
60.7339987599148
30
0
0
VERTEX
8
0
10
98.1781570961511
20
61.0833995271672
30
0
0
VERTEX
8
0
10
98.8156775967754
20
61.4314164993519
30
0
0
VERTEX
8
0
10
99.4531980973998
20
61.7780457736878
30
0
0
VERTEX
8
0
10
100.090718598024
20
62.1232723287657
30
0
0
VERTEX
8
0
10
100.728239098649
20
62.4670921382465
30
0
0
VERTEX
8
0
10
101.365759599273
20
62.8094905499557
30
0
0
VERTEX
8
0
10
102.003280099897
20
63.1504634252434
30
0
0
VERTEX
8
0
10
102.640800600522
20
63.48999646714
30
0
0
VERTEX
8
0
10
103.278321101146
20
63.8280854352869
30
0
0
VERTEX
8
0
10
103.91584160177
20
64.164716374793
30
0
0
VERTEX
8
0
10
104.553362102395
20
64.4998849535469
30
0
0
VERTEX
8
0
10
105.190882603019
20
64.8335775464231
30
0
0
VERTEX
8
0
10
105.828403103643
20
65.1657897389741
30
0
0
VERTEX
8
0
10
106.465923604268
20
65.4965082243451
30
0
0
VERTEX
8
0
10
107.103444104892
20
65.8257285146289
30
0
0
VERTEX
8
0
10
107.740964605516
20
66.1534376104337
30
0
0
VERTEX
8
0
10
108.378485106141
20
66.4796309588182
30
0
0
VERTEX
8
0
10
109.016005606765
20
66.8042958577615
30
0
0
VERTEX
8
0
10
109.65352610739
20
67.1274276972849
30
0
0
VERTEX
8
0
10
110.291046608014
20
67.4490140632255
30
0
0
VERTEX
8
0
10
110.928567108638
20
67.7690502961398
30
0
0
VERTEX
8
0
10
111.566087609263
20
68.0875242609433
30
0
0
VERTEX
8
0
10
112.203608109887
20
68.40443125584
30
0
0
VERTEX
8
0
10
112.841128610511
20
68.7197594165433
30
0
0
VERTEX
8
0
10
113.478649111136
20
69.0335040058553
30
0
0
VERTEX
8
0
10
114.11616961176
20
69.3456534224745
30
0
0
VERTEX
8
0
10
114.753690112384
20
69.6562029003117
30
0
0
VERTEX
8
0
10
115.391210613009
20
69.965141093847
30
0
0
VERTEX
8
0
10
116.028731113633
20
70.2724632143596
30
0
0
VERTEX
8
0
10
116.666251614257
20
70.5781581653397
30
0
0
VERTEX
8
0
10
117.303772114882
20
70.8822211414437
30
0
0
VERTEX
8
0
10
117.941292615506
20
71.1846412888525
30
0
0
VERTEX
8
0
10
118.578813116131
20
71.4854137913438
30
0
0
VERTEX
8
0
10
119.216333616755
20
71.7845280319214
30
0
0
VERTEX
8
0
10
119.853854117379
20
72.081979189023
30
0
0
VERTEX
8
0
10
120.491374618004
20
72.3777568769993
30
0
0
VERTEX
8
0
10
121.128895118628
20
72.67185627429
30
0
0
VERTEX
8
0
10
121.766415619252
20
72.9642672215018
30
0
0
VERTEX
8
0
10
122.403936119877
20
73.2549849022491
30
0
0
VERTEX
8
0
10
123.041456620501
20
73.5439993786719
30
0
0
VERTEX
8
0
10
123.678977121125
20
73.8313058445607
30
0
0
VERTEX
8
0
10
124.31649762175
20
74.1168945792244
30
0
0
VERTEX
8
0
10
124.954018122374
20
74.4007607914837
30
0
0
VERTEX
8
0
10
125.591538622998
20
74.682894973801
30
0
0
VERTEX
8
0
10
126.229059123623
20
74.9632923547381
30
0
0
VERTEX
8
0
10
126.866579624247
20
75.2419436362296
30
0
0
VERTEX
8
0
10
127.504100124872
20
75.5188440711894
30
0
0
VERTEX
8
0
10
128.141620625496
20
75.7939845676166
30
0
0
VERTEX
8
0
10
128.77914112612
20
76.0673604072944
30
0
0
VERTEX
8
0
10
129.416661626745
20
76.3389627012085
30
0
0
VERTEX
8
0
10
130.054182127369
20
76.6087867644328
30
0
0
VERTEX
8
0
10
130.691702627993
20
76.8768239081374
30
0
0
VERTEX
8
0
10
131.329223128618
20
77.1430694850342
30
0
0
VERTEX
8
0
10
131.966743629242
20
77.4075150039733
30
0
0
VERTEX
8
0
10
132.604264129866
20
77.6701558595877
30
0
0
VERTEX
8
0
10
133.241784630491
20
77.9309837561517
30
0
0
VERTEX
8
0
10
133.879305131115
20
78.1899941344515
30
0
0
VERTEX
8
0
10
134.516825631739
20
78.44717889224
30
0
0
VERTEX
8
0
10
135.154346132364
20
78.7025335206275
30
0
0
VERTEX
8
0
10
135.791866632988
20
78.9560501091215
30
0
0
VERTEX
8
0
10
136.429387133612
20
79.2077242033415
30
0
0
VERTEX
8
0
10
137.066907634237
20
79.4575480830829
30
0
0
VERTEX
8
0
10
137.704428134861
20
79.7055173526088
30
0
0
VERTEX
8
0
10
138.341948635485
20
79.9516244808044
30
0
0
VERTEX
8
0
10
138.97946913611
20
80.1958651347084
30
0
0
VERTEX
8
0
10
139.616989636734
20
80.4382319713236
30
0
0
VERTEX
8
0
10
140.254510137358
20
80.6787207246133
30
0
0
VERTEX
8
0
10
140.892030637983
20
80.9173242389766
30
0
0
VERTEX
8
0
10
141.529551138607
20
81.154038319439
30
0
0
VERTEX
8
0
10
142.167071639231
20
81.3888559973216
30
0
0
VERTEX
8
0
10
142.804592139856
20
81.6217731528927
30
0
0
VERTEX
8
0
10
143.44211264048
20
81.8527830041367
30
0
0
VERTEX
8
0
10
144.079633141104
20
82.0818815107722
30
0
0
VERTEX
8
0
10
144.717153641729
20
82.3090620774443
30
0
0
VERTEX
8
0
10
145.354674142353
20
82.5343207475673
30
0
0
VERTEX
8
0
10
145.992194642978
20
82.7576511126788
30
0
0
VERTEX
8
0
10
146.629715143602
20
82.9790493041891
30
0
0
VERTEX
8
0
10
147.267235644226
20
83.1985091009859
30
0
0
VERTEX
8
0
10
147.904756144851
20
83.4160267268466
30
0
0
VERTEX
8
0
10
148.542276645475
20
83.6315961487013
30
0
0
VERTEX
8
0
10
149.179797146099
20
83.8452136871459
30
0
0
VERTEX
8
0
10
149.817317646724
20
84.0568734980994
30
0
0
VERTEX
8
0
10
150.454838147348
20
84.2665720034754
30
0
0
VERTEX
8
0
10
151.092358647972
20
84.4743035493736
30
0
0
VERTEX
8
0
10
151.729879148597
20
84.6800646636613
30
0
0
VERTEX
8
0
10
152.367399649221
20
84.8838498840339
30
0
0
VERTEX
8
0
10
153.004920149845
20
85.0856558490228
30
0
0
VERTEX
8
0
10
153.64244065047
20
85.2854772896092
30
0
0
VERTEX
8
0
10
154.279961151094
20
85.4833109598611
30
0
0
VERTEX
8
0
10
154.917481651718
20
85.679151785955
30
0
0
SEQEND
8
0
0
POLYLINE
8
0
62
4
70
0
10
0
20
0
30
0
0
VERTEX
8
0
10
23.5882585231012
20
15.3121598457074
30
0
0
VERTEX
8
0
10
24.2257790237256
20
15.7395346466771
30
0
0
VERTEX
8
0
10
24.8632995243499
20
16.1670877673493
30
0
0
VERTEX
8
0
10
25.5008200249743
20
16.5948115495547
30
0
0
VERTEX
8
0
10
26.1383405255987
20
17.0226881881248
30
0
0
VERTEX
8
0
10
26.775861026223
20
17.4588551658281
30
0
0
VERTEX
8
0
10
27.4133815268474
20
17.8929784020144
30
0
0
VERTEX
8
0
10
28.0509020274717
20
18.3272286133376
30
0
0
VERTEX
8
0
10
28.6884225280961
20
18.7615887483137
30
0
0
VERTEX
8
0
10
29.3259430287204
20
19.1960499667002
30
0
0
VERTEX
8
0
10
29.9634635293448
20
19.630595912585
30
0
0
VERTEX
8
0
10
30.6009840299692
20
20.0652177280073
30
0
0
VERTEX
8
0
10
31.2385045305935
20
20.4998996685807
30
0
0
VERTEX
8
0
10
31.8760250312179
20
20.9346328654096
30
0
0
VERTEX
8
0
10
32.5135455318422
20
21.3694021177178
30
0
0
VERTEX
8
0
10
33.1510660324666
20
21.8041985531335
30
0
0
VERTEX
8
0
10
33.788586533091
20
22.2390074588673
30
0
0
VERTEX
8
0
10
34.4261070337153
20
22.6723940175469
30
0
0
VERTEX
8
0
10
35.0636275343397
20
23.1056886567802
30
0
0
VERTEX
8
0
10
35.701148034964
20
23.5389623168856
30
0
0
VERTEX
8
0
10
36.3386685355884
20
23.9722012019402
30
0
0
VERTEX
8
0
10
36.9761890362127
20
24.4066143931471
30
0
0
VERTEX
8
0
10
37.6137095368371
20
24.841262191898
30
0
0
VERTEX
8
0
10
38.2512300374615
20
25.2758455437563
30
0
0
VERTEX
8
0
10
38.8887505380858
20
25.7103512866082
30
0
0
VERTEX
8
0
10
39.5262710387102
20
26.1447706338183
30
0
0
VERTEX
8
0
10
40.1637915393345
20
26.5790907431789
30
0
0
VERTEX
8
0
10
40.8013120399589
20
27.0133028664795
30
0
0
VERTEX
8
0
10
41.4388325405832
20
27.447394460551
30
0
0
VERTEX
8
0
10
42.0763530412076
20
27.874959009303
30
0
0
VERTEX
8
0
10
42.713873541832
20
28.2966714824425
30
0
0
VERTEX
8
0
10
43.3513940424563
20
28.7182339367783
30
0
0
VERTEX
8
0
10
43.9889145430807
20
29.1396341643667
30
0
0
VERTEX
8
0
10
44.626435043705
20
29.5608633492052
30
0
0
VERTEX
8
0
10
45.2639555443294
20
29.9316613849998
30
0
0
VERTEX
8
0
10
45.9014760449537
20
30.3164705021503
30
0
0
VERTEX
8
0
10
46.5389965455781
20
30.7011837780955
30
0
0
VERTEX
8
0
10
47.1765170462025
20
31.0857877519999
30
0
0
VERTEX
8
0
10
47.8140375468268
20
31.4609697150059
30
0
0
VERTEX
8
0
10
48.4515580474512
20
31.8379147136802
30
0
0
VERTEX
8
0
10
49.0890785480755
20
32.2147454512516
30
0
0
VERTEX
8
0
10
49.7265990486999
20
32.5914477947845
30
0
0
VERTEX
8
0
10
50.3641195493243
20
32.9696371957415
30
0
0
VERTEX
8
0
10
51.0016400499486
20
33.3474982905793
30
0
0
VERTEX
8
0
10
51.639160550573
20
33.7251772752653
30
0
0
VERTEX
8
0
10
52.2766810511973
20
34.1026612011503
30
0
0
VERTEX
8
0
10
52.9142015518217
20
34.4799349919554
30
0
0
VERTEX
8
0
10
53.551722052446
20
34.8569860765595
30
0
0
VERTEX
8
0
10
54.1892425530704
20
35.2337998514672
30
0
0
VERTEX
8
0
10
54.8267630536948
20
35.6103640946569
30
0
0
VERTEX
8
0
10
55.4642835543191
20
35.9854672226793
30
0
0
VERTEX
8
0
10
56.1018040549435
20
36.3600565946746
30
0
0
VERTEX
8
0
10
56.7393245555678
20
36.7343630061375
30
0
0
VERTEX
8
0
10
57.3768450561922
20
37.1083746325094
30
0
0
VERTEX
8
0
10
58.0143655568166
20
37.4820778793202
30
0
0
VERTEX
8
0
10
58.6518860574409
20
37.8554612190965
30
0
0
VERTEX
8
0
10
59.2894065580653
20
38.2285114296154
30
0
0
VERTEX
8
0
10
59.9269270586896
20
38.6012172617648
30
0
0
VERTEX
8
0
10
60.564447559314
20
38.9743471728025
30
0
0
VERTEX
8
0
10
61.2019680599383
20
39.3477400476228
30
0
0
VERTEX
8
0
10
61.8394885605627
20
39.7207468585796
30
0
0
VERTEX
8
0
10
62.4770090611871
20
40.0933570538832
30
0
0
VERTEX
8
0
10
63.1145295618114
20
40.4655585841719
30
0
0
VERTEX
8
0
10
63.7520500624358
20
40.8373411199527
30
0
0
VERTEX
8
0
10
64.3895705630601
20
41.2086928954997
30
0
0
VERTEX
8
0
10
65.0270910636845
20
41.5796037925873
30
0
0
VERTEX
8
0
10
65.6646115643088
20
41.9500623149958
30
0
0
VERTEX
8
0
10
66.3021320649332
20
42.3111859145917
30
0
0
VERTEX
8
0
10
66.9396525655576
20
42.6737629528446
30
0
0
VERTEX
8
0
10
67.5771730661819
20
43.0358800787778
30
0
0
VERTEX
8
0
10
68.2146935668063
20
43.3975254748433
30
0
0
VERTEX
8
0
10
68.8522140674306
20
43.7524197374745
30
0
0
VERTEX
8
0
10
69.489734568055
20
44.1075785895417
30
0
0
VERTEX
8
0
10
70.1272550686793
20
44.462254652404
30
0
0
VERTEX
8
0
10
70.7647755693037
20
44.8164359635457
30
0
0
VERTEX
8
0
10
71.4022960699281
20
45.1701119421709
30
0
0
VERTEX
8
0
10
72.0398165705524
20
45.5232709139307
30
0
0
VERTEX
8
0
10
72.6773370711768
20
45.8759025327066
30
0
0
VERTEX
8
0
10
73.3148575718011
20
46.2279953990376
30
0
0
VERTEX
8
0
10
73.9523780724255
20
46.5807016929846
30
0
0
VERTEX
8
0
10
74.5898985730499
20
46.933042639477
30
0
0
VERTEX
8
0
10
75.2274190736742
20
47.284808977261
30
0
0
VERTEX
8
0
10
75.8649395742986
20
47.6359899748228
30
0
0
VERTEX
8
0
10
76.5024600749229
20
47.986576080849
30
0
0
VERTEX
8
0
10
77.1399805755473
20
48.3365567979682
30
0
0
VERTEX
8
0
10
77.7775010761716
20
48.6859227659164
30
0
0
VERTEX
8
0
10
78.415021576796
20
49.0346637125516
30
0
0
VERTEX
8
0
10
79.0525420774204
20
49.3804538218055
30
0
0
VERTEX
8
0
10
79.6900625780447
20
49.7238947498255
30
0
0
VERTEX
8
0
10
80.3275830786691
20
50.0666948571001
30
0
0
VERTEX
8
0
10
80.9651035792934
20
50.4088438857714
30
0
0
VERTEX
8
0
10
81.6026240799178
20
50.7503326073348
30
0
0
VERTEX
8
0
10
82.2401445805422
20
51.0988034422658
30
0
0
VERTEX
8
0
10
82.8776650811665
20
51.4442568861652
30
0
0
VERTEX
8
0
10
83.5151855817909
20
51.7890068822906
30
0
0
VERTEX
8
0
10
84.1527060824152
20
52.1330450620948
30
0
0
VERTEX
8
0
10
84.7902265830396
20
52.4712054566829
30
0
0
VERTEX
8
0
10
85.4277470836639
20
52.8098242793353
30
0
0
VERTEX
8
0
10
86.0652675842883
20
53.1477144501478
30
0
0
VERTEX
8
0
10
86.7027880849127
20
53.4848675564025
30
0
0
VERTEX
8
0
10
87.340308585537
20
53.825851760871
30
0
0
VERTEX
8
0
10
87.9778290861614
20
54.1654543884119
30
0
0
VERTEX
8
0
10
88.6153495867857
20
54.5042850871906
30
0
0
VERTEX
8
0
10
89.2528700874101
20
54.8423360852271
30
0
0
VERTEX
8
0
10
89.8903905880344
20
55.1902940015884
30
0
0
VERTEX
8
0
10
90.5279110886588
20
55.5372702162335
30
0
0
VERTEX
8
0
10
91.1654315892832
20
55.8834298372389
30
0
0
VERTEX
8
0
10
91.8029520899075
20
56.2287660569186
30
0
0
VERTEX
8
0
10
92.4404725905319
20
56.5778808016613
30
0
0
VERTEX
8
0
10
93.0779930911562
20
56.9268040958756
30
0
0
VERTEX
8
0
10
93.7155135917806
20
57.2748814081138
30
0
0
VERTEX
8
0
10
94.3530340924049
20
57.6221064057839
30
0
0
VERTEX
8
0
10
94.9905545930293
20
57.9665339252285
30
0
0
VERTEX
8
0
10
95.6280750936537
20
58.309405371005
30
0
0
VERTEX
8
0
10
96.265595594278
20
58.6514044652426
30
0
0
VERTEX
8
0
10
96.9031160949024
20
58.9925249638875
30
0
0
VERTEX
8
0
10
97.5406365955267
20
59.3335455907277
30
0
0
VERTEX
8
0
10
98.1781570961511
20
59.6742033728875
30
0
0
VERTEX
8
0
10
98.8156775967754
20
60.0139630803875
30
0
0
VERTEX
8
0
10
99.4531980973998
20
60.3528187372204
30
0
0
VERTEX
8
0
10
100.090718598024
20
60.6907638600236
30
0
0
VERTEX
8
0
10
100.728239098649
20
61.02395870803
30
0
0
VERTEX
8
0
10
101.365759599273
20
61.3574350440749
30
0
0
VERTEX
8
0
10
102.003280099897
20
61.6899823832607
30
0
0
VERTEX
8
0
10
102.640800600522
20
62.0215943739744
30
0
0
VERTEX
8
0
10
103.278321101146
20
62.3401346096664
30
0
0
VERTEX
8
0
10
103.91584160177
20
62.6606621798308
30
0
0
VERTEX
8
0
10
104.553362102395
20
62.9802392114832
30
0
0
VERTEX
8
0
10
105.190882603019
20
63.2988591433807
30
0
0
VERTEX
8
0
10
105.828403103643
20
63.6691762248511
30
0
0
VERTEX
8
0
10
106.465923604268
20
64.0305980591304
30
0
0
VERTEX
8
0
10
107.103444104892
20
64.3911117702246
30
0
0
VERTEX
8
0
10
107.740964605516
20
64.7507119837692
30
0
0
VERTEX
8
0
10
108.378485106141
20
65.055757952651
30
0
0
VERTEX
8
0
10
109.016005606765
20
65.3618572570981
30
0
0
VERTEX
8
0
10
109.65352610739
20
65.6669657579877
30
0
0
VERTEX
8
0
10
110.291046608014
20
65.9710770215379
30
0
0
VERTEX
8
0
10
110.928567108638
20
66.3050582066355
30
0
0
VERTEX
8
0
10
111.566087609263
20
66.6414792043973
30
0
0
VERTEX
8
0
10
112.203608109887
20
66.9769048660519
30
0
0
VERTEX
8
0
10
112.841128610511
20
67.3113303098186
30
0
0
VERTEX
8
0
10
113.478649111136
20
67.6518095888644
30
0
0
VERTEX
8
0
10
114.11616961176
20
67.9935238620327
30
0
0
VERTEX
8
0
10
114.753690112384
20
68.3342477407968
30
0
0
VERTEX
8
0
10
115.391210613009
20
68.6739766483524
30
0
0
VERTEX
8
0
10
116.028731113633
20
69.0127064437144
30
0
0
VERTEX
8
0
10
116.666251614257
20
69.3504326751622
30
0
0
VERTEX
8
0
10
117.303772114882
20
69.6871513149589
30
0
0
VERTEX
8
0
10
117.941292615506
20
70.0228580365479
30
0
0
VERTEX
8
0
10
118.578813116131
20
70.3575489259555
30
0
0
VERTEX
8
0
10
119.216333616755
20
70.6872394452364
30
0
0
VERTEX
8
0
10
119.853854117379
20
71.0171901850987
30
0
0
VERTEX
8
0
10
120.491374618004
20
71.3461055524297
30
0
0
VERTEX
8
0
10
121.128895118628
20
71.6739818483549
30
0
0
VERTEX
8
0
10
121.766415619252
20
72.0026273351567
30
0
0
VERTEX
8
0
10
122.403936119877
20
72.3297689177145
30
0
0
VERTEX
8
0
10
123.041456620501
20
72.6558637242764
30
0
0
VERTEX
8
0
10
123.678977121125
20
72.9809082938776
30
0
0
VERTEX
8
0
10
124.31649762175
20
73.3065317965317
30
0
0
VERTEX
8
0
10
124.954018122374
20
73.6308276010896
30
0
0
VERTEX
8
0
10
125.591538622998
20
73.9540663851681
30
0
0
VERTEX
8
0
10
126.229059123623
20
74.2762449298371
30
0
0
VERTEX
8
0
10
126.866579624247
20
74.5944565630074
30
0
0
VERTEX
8
0
10
127.504100124872
20
74.911764746959
30
0
0
VERTEX
8
0
10
128.141620625496
20
75.2279952275155
30
0
0
VERTEX
8
0
10
128.77914112612
20
75.5431450028306
30
0
0
VERTEX
8
0
10
129.416661626745
20
75.8584785790134
30
0
0
VERTEX
8
0
10
130.054182127369
20
76.1728345911422
30
0
0
VERTEX
8
0
10
130.691702627993
20
76.4861044961971
30
0
0
VERTEX
8
0
10
131.329223128618
20
76.7982855450775
30
0
0
VERTEX
8
0
10
131.966743629242
20
77.1072106893813
30
0
0
VERTEX
8
0
10
132.604264129866
20
77.414436909125
30
0
0
VERTEX
8
0
10
133.241784630491
20
77.7205584223975
30
0
0
VERTEX
8
0
10
133.879305131115
20
78.0255726963454
30
0
0
VERTEX
8
0
10
134.516825631739
20
78.3160707241743
30
0
0
VERTEX
8
0
10
135.154346132364
20
78.5980118844419
30
0
0
VERTEX
8
0
10
135.791866632988
20
78.8787974528969
30
0
0
VERTEX
8
0
10
136.429387133612
20
79.1584246928982
30
0
0
VERTEX
8
0
10
137.066907634237
20
79.4368907112293
30
0
0
VERTEX
8
0
10
137.704428134861
20
79.7141928983358
30
0
0
VERTEX
8
0
10
138.341948635485
20
79.990328495651
30
0
0
VERTEX
8
0
10
138.97946913611
20
80.2652950220995
30
0
0
VERTEX
8
0
10
139.616989636734
20
80.5390898549833
30
0
0
VERTEX
8
0
10
140.254510137358
20
80.8117106431495
30
0
0
VERTEX
8
0
10
140.892030637983
20
81.0831549010458
30
0
0
VERTEX
8
0
10
141.529551138607
20
81.3534204089341
30
0
0
VERTEX
8
0
10
142.167071639231
20
81.6225048197415
30
0
0
VERTEX
8
0
10
142.804592139856
20
81.8904060466903
30
0
0
VERTEX
8
0
10
143.44211264048
20
82.1571218825773
30
0
0
VERTEX
8
0
10
144.079633141104
20
82.4226503751809
30
0
0
VERTEX
8
0
10
144.717153641729
20
82.686989458617
30
0
0
VERTEX
8
0
10
145.354674142353
20
82.9501373168679
30
0
0
VERTEX
8
0
10
145.992194642978
20
83.2120920268756
30
0
0
VERTEX
8
0
10
146.629715143602
20
83.4728519105259
30
0
0
VERTEX
8
0
10
147.267235644226
20
83.732415189151
30
0
0
VERTEX
8
0
10
147.904756144851
20
83.9921131711499
30
0
0
VERTEX
8
0
10
148.542276645475
20
84.2506894321795
30
0
0
VERTEX
8
0
10
149.179797146099
20
84.5080669162079
30
0
0
VERTEX
8
0
10
149.817317646724
20
84.7642441766283
30
0
0
VERTEX
8
0
10
150.454838147348
20
85.0180797634897
30
0
0
VERTEX
8
0
10
151.092358647972
20
85.2704371050321
30
0
0
VERTEX
8
0
10
151.729879148597
20
85.5215881441903
30
0
0
VERTEX
8
0
10
152.367399649221
20
85.7715316965011
30
0
0
VERTEX
8
0
10
153.004920149845
20
86.0178382731658
30
0
0
VERTEX
8
0
10
153.64244065047
20
86.2617184756011
30
0
0
VERTEX
8
0
10
154.279961151094
20
86.504382244536
30
0
0
VERTEX
8
0
10
154.917481651718
20
86.7458286021895
30
0
0
SEQEND
8
0
0
ENDSEC
0
EOF
