0
SECTION
2
HEADER
9
$ACADVER
1
AC1009
0
ENDSEC
0
SECTION
2
ENTITIES
0
POLYLINE
8
0
62
0
70
1
10
0
20
0
30
0
0
VERTEX
8
0
10
0
20
0
30
0
0
VERTEX
8
0
10
0
20
104.55
30
0
0
VERTEX
8
0
10
179.2
20
104.55
30
0
0
VERTEX
8
0
10
179.2
20
0
30
0
0
SEQEND
8
0
0
TEXT
8
0
62
0
10
0
20
-12
30
0
40
8
1
0
50
0
0
LINE
8
0
62
0
10
7.168
20
0
30
0
11
7.168
21
3.2
31
0
0
LINE
8
0
62
0
10
7.168
20
104.55
30
0
11
7.168
21
101.35
31
0
0
LINE
8
0
62
0
10
14.336
20
0
30
0
11
14.336
21
3.2
31
0
0
LINE
8
0
62
0
10
14.336
20
104.55
30
0
11
14.336
21
101.35
31
0
0
LINE
8
0
62
0
10
21.504
20
0
30
0
11
21.504
21
3.2
31
0
0
LINE
8
0
62
0
10
21.504
20
104.55
30
0
11
21.504
21
101.35
31
0
0
LINE
8
0
62
0
10
28.672
20
0
30
0
11
28.672
21
3.2
31
0
0
LINE
8
0
62
0
10
28.672
20
104.55
30
0
11
28.672
21
101.35
31
0
0
LINE
8
0
62
0
10
35.84
20
0
30
0
11
35.84
21
6.4
31
0
0
LINE
8
0
62
0
10
35.84
20
104.55
30
0
11
35.84
21
98.15
31
0
0
TEXT
8
0
62
0
10
35.84
20
-12
30
0
40
8
1
5
50
0
0
LINE
8
0
62
0
10
43.008
20
0
30
0
11
43.008
21
3.2
31
0
0
LINE
8
0
62
0
10
43.008
20
104.55
30
0
11
43.008
21
101.35
31
0
0
LINE
8
0
62
0
10
50.176
20
0
30
0
11
50.176
21
3.2
31
0
0
LINE
8
0
62
0
10
50.176
20
104.55
30
0
11
50.176
21
101.35
31
0
0
LINE
8
0
62
0
10
57.344
20
0
30
0
11
57.344
21
3.2
31
0
0
LINE
8
0
62
0
10
57.344
20
104.55
30
0
11
57.344
21
101.35
31
0
0
LINE
8
0
62
0
10
64.512
20
0
30
0
11
64.512
21
3.2
31
0
0
LINE
8
0
62
0
10
64.512
20
104.55
30
0
11
64.512
21
101.35
31
0
0
LINE
8
0
62
0
10
71.68
20
0
30
0
11
71.68
21
6.4
31
0
0
LINE
8
0
62
0
10
71.68
20
104.55
30
0
11
71.68
21
98.15
31
0
0
TEXT
8
0
62
0
10
71.68
20
-12
30
0
40
8
1
10
50
0
0
LINE
8
0
62
0
10
78.848
20
0
30
0
11
78.848
21
3.2
31
0
0
LINE
8
0
62
0
10
78.848
20
104.55
30
0
11
78.848
21
101.35
31
0
0
LINE
8
0
62
0
10
86.016
20
0
30
0
11
86.016
21
3.2
31
0
0
LINE
8
0
62
0
10
86.016
20
104.55
30
0
11
86.016
21
101.35
31
0
0
LINE
8
0
62
0
10
93.184
20
0
30
0
11
93.184
21
3.2
31
0
0
LINE
8
0
62
0
10
93.184
20
104.55
30
0
11
93.184
21
101.35
31
0
0
LINE
8
0
62
0
10
100.352
20
0
30
0
11
100.352
21
3.2
31
0
0
LINE
8
0
62
0
10
100.352
20
104.55
30
0
11
100.352
21
101.35
31
0
0
LINE
8
0
62
0
10
107.52
20
0
30
0
11
107.52
21
6.4
31
0
0
LINE
8
0
62
0
10
107.52
20
104.55
30
0
11
107.52
21
98.15
31
0
0
TEXT
8
0
62
0
10
107.52
20
-12
30
0
40
8
1
15
50
0
0
LINE
8
0
62
0
10
114.688
20
0
30
0
11
114.688
21
3.2
31
0
0
LINE
8
0
62
0
10
114.688
20
104.55
30
0
11
114.688
21
101.35
31
0
0
LINE
8
0
62
0
10
121.856
20
0
30
0
11
121.856
21
3.2
31
0
0
LINE
8
0
62
0
10
121.856
20
104.55
30
0
11
121.856
21
101.35
31
0
0
LINE
8
0
62
0
10
129.024
20
0
30
0
11
129.024
21
3.2
31
0
0
LINE
8
0
62
0
10
129.024
20
104.55
30
0
11
129.024
21
101.35
31
0
0
LINE
8
0
62
0
10
136.192
20
0
30
0
11
136.192
21
3.2
31
0
0
LINE
8
0
62
0
10
136.192
20
104.55
30
0
11
136.192
21
101.35
31
0
0
LINE
8
0
62
0
10
143.36
20
0
30
0
11
143.36
21
6.4
31
0
0
LINE
8
0
62
0
10
143.36
20
104.55
30
0
11
143.36
21
98.15
31
0
0
TEXT
8
0
62
0
10
143.36
20
-12
30
0
40
8
1
20
50
0
0
LINE
8
0
62
0
10
150.528
20
0
30
0
11
150.528
21
3.2
31
0
0
LINE
8
0
62
0
10
150.528
20
104.55
30
0
11
150.528
21
101.35
31
0
0
LINE
8
0
62
0
10
157.696
20
0
30
0
11
157.696
21
3.2
31
0
0
LINE
8
0
62
0
10
157.696
20
104.55
30
0
11
157.696
21
101.35
31
0
0
LINE
8
0
62
0
10
164.864
20
0
30
0
11
164.864
21
3.2
31
0
0
LINE
8
0
62
0
10
164.864
20
104.55
30
0
11
164.864
21
101.35
31
0
0
LINE
8
0
62
0
10
172.032
20
0
30
0
11
172.032
21
3.2
31
0
0
LINE
8
0
62
0
10
172.032
20
104.55
30
0
11
172.032
21
101.35
31
0
0
LINE
8
0
62
0
10
179.2
20
0
30
0
11
179.2
21
6.4
31
0
0
LINE
8
0
62
0
10
179.2
20
104.55
30
0
11
179.2
21
98.15
31
0
0
TEXT
8
0
62
0
10
179.2
20
-12
30
0
40
8
1
25
50
0
0
TEXT
8
0
62
0
10
-4
20
-4
30
0
40
8
1
0
50
0
0
LINE
8
0
62
0
10
0
20
6.97
30
0
11
3.2
21
6.97
31
0
0
LINE
8
0
62
0
10
179.2
20
6.97
30
0
11
176
21
6.97
31
0
0
LINE
8
0
62
0
10
0
20
13.94
30
0
11
3.2
21
13.94
31
0
0
LINE
8
0
62
0
10
179.2
20
13.94
30
0
11
176
21
13.94
31
0
0
LINE
8
0
62
0
10
0
20
20.91
30
0
11
3.2
21
20.91
31
0
0
LINE
8
0
62
0
10
179.2
20
20.91
30
0
11
176
21
20.91
31
0
0
LINE
8
0
62
0
10
0
20
27.88
30
0
11
3.2
21
27.88
31
0
0
LINE
8
0
62
0
10
179.2
20
27.88
30
0
11
176
21
27.88
31
0
0
LINE
8
0
62
0
10
0
20
34.85
30
0
11
6.4
21
34.85
31
0
0
LINE
8
0
62
0
10
179.2
20
34.85
30
0
11
172.8
21
34.85
31
0
0
TEXT
8
0
62
0
10
-4
20
30.85
30
0
40
8
1
50
50
0
0
LINE
8
0
62
0
10
0
20
41.82
30
0
11
3.2
21
41.82
31
0
0
LINE
8
0
62
0
10
179.2
20
41.82
30
0
11
176
21
41.82
31
0
0
LINE
8
0
62
0
10
0
20
48.79
30
0
11
3.2
21
48.79
31
0
0
LINE
8
0
62
0
10
179.2
20
48.79
30
0
11
176
21
48.79
31
0
0
LINE
8
0
62
0
10
0
20
55.76
30
0
11
3.2
21
55.76
31
0
0
LINE
8
0
62
0
10
179.2
20
55.76
30
0
11
176
21
55.76
31
0
0
LINE
8
0
62
0
10
0
20
62.73
30
0
11
3.2
21
62.73
31
0
0
LINE
8
0
62
0
10
179.2
20
62.73
30
0
11
176
21
62.73
31
0
0
LINE
8
0
62
0
10
0
20
69.7
30
0
11
6.4
21
69.7
31
0
0
LINE
8
0
62
0
10
179.2
20
69.7
30
0
11
172.8
21
69.7
31
0
0
TEXT
8
0
62
0
10
-4
20
65.7
30
0
40
8
1
100
50
0
0
LINE
8
0
62
0
10
0
20
76.67
30
0
11
3.2
21
76.67
31
0
0
LINE
8
0
62
0
10
179.2
20
76.67
30
0
11
176
21
76.67
31
0
0
LINE
8
0
62
0
10
0
20
83.64
30
0
11
3.2
21
83.64
31
0
0
LINE
8
0
62
0
10
179.2
20
83.64
30
0
11
176
21
83.64
31
0
0
LINE
8
0
62
0
10
0
20
90.61
30
0
11
3.2
21
90.61
31
0
0
LINE
8
0
62
0
10
179.2
20
90.61
30
0
11
176
21
90.61
31
0
0
LINE
8
0
62
0
10
0
20
97.58
30
0
11
3.2
21
97.58
31
0
0
LINE
8
0
62
0
10
179.2
20
97.58
30
0
11
176
21
97.58
31
0
0
TEXT
8
0
62
0
10
-4
20
100.55
30
0
40
8
1
150
50
0
0
TEXT
8
0
62
0
10
89.6
20
-32
30
0
40
10
1
R (kpc)
50
0
0
TEXT
8
0
62
0
10
-24
20
52.275
30
0
40
10
1
V (km/s)
50
90
0
TEXT
8
0
62
0
10
72.6
20
119.55
30
0
40
11
1
V vs. R
50
0
0
POLYLINE
8
0
62
5
70
0
10
0
20
0
30
0
0
VERTEX
8
0
10
2.79552
20
22.6440682972499
30
0
0
VERTEX
8
0
10
3.51232
20
26.4220811069911
30
0
0
VERTEX
8
0
10
4.22912
20
29.0360881084339
30
0
0
VERTEX
8
0
10
4.94592
20
31.5322098538884
30
0
0
VERTEX
8
0
10
5.66272
20
32.6678133715114
30
0
0
VERTEX
8
0
10
6.37952
20
34.1393166993351
30
0
0
VERTEX
8
0
10
7.09632
20
35.3783346477593
30
0
0
VERTEX
8
0
10
7.81312
20
36.693341314426
30
0
0
VERTEX
8
0
10
8.52992
20
37.5584570743038
30
0
0
VERTEX
8
0
10
9.24672
20
38.568621286425
30
0
0
VERTEX
8
0
10
9.96352
20
39.2449867096361
30
0
0
VERTEX
8
0
10
10.68032
20
39.8358858092032
30
0
0
VERTEX
8
0
10
11.39712
20
40.4267849087703
30
0
0
VERTEX
8
0
10
12.11392
20
41.0176840083374
30
0
0
VERTEX
8
0
10
12.83072
20
41.3873228207995
30
0
0
VERTEX
8
0
10
13.54752
20
41.8052400409348
30
0
0
VERTEX
8
0
10
14.26432
20
42.22315726107
30
0
0
VERTEX
8
0
10
14.98112
20
42.6111163095176
30
0
0
VERTEX
8
0
10
15.69792
20
42.9786463470834
30
0
0
VERTEX
8
0
10
16.41472
20
43.3461763846491
30
0
0
VERTEX
8
0
10
17.13152
20
43.7137064222148
30
0
0
VERTEX
8
0
10
17.84832
20
43.9760430814038
30
0
0
VERTEX
8
0
10
18.56512
20
44.2279789942513
30
0
0
VERTEX
8
0
10
19.28192
20
44.4799149070988
30
0
0
VERTEX
8
0
10
19.99872
20
44.7318508199463
30
0
0
VERTEX
8
0
10
20.71552
20
44.8602889805377
30
0
0
VERTEX
8
0
10
21.43232
20
45.0114505282462
30
0
0
VERTEX
8
0
10
22.14912
20
45.1626120759547
30
0
0
VERTEX
8
0
10
22.86592
20
45.2640695990079
30
0
0
VERTEX
8
0
10
23.58272
20
45.3233486373249
30
0
0
VERTEX
8
0
10
24.29952
20
45.382627675642
30
0
0
VERTEX
8
0
10
25.01632
20
45.441906713959
30
0
0
VERTEX
8
0
10
25.73312
20
45.4224960853369
30
0
0
VERTEX
8
0
10
26.44992
20
45.3898926142625
30
0
0
VERTEX
8
0
10
27.16672
20
45.3572891431882
30
0
0
VERTEX
8
0
10
27.88352
20
45.3246856721138
30
0
0
VERTEX
8
0
10
28.60032
20
45.2330344508203
30
0
0
VERTEX
8
0
10
29.31712
20
45.1500437971764
30
0
0
VERTEX
8
0
10
30.03392
20
45.0670531435325
30
0
0
VERTEX
8
0
10
30.75072
20
44.9840624898887
30
0
0
VERTEX
8
0
10
31.46752
20
44.8437624049677
30
0
0
VERTEX
8
0
10
32.18432
20
44.7222403764177
30
0
0
VERTEX
8
0
10
32.90112
20
44.6007183478678
30
0
0
VERTEX
8
0
10
33.61792
20
44.4482629936019
30
0
0
VERTEX
8
0
10
34.33472
20
44.2882095901459
30
0
0
VERTEX
8
0
10
35.05152
20
44.1281561866898
30
0
0
VERTEX
8
0
10
35.76832
20
43.9681027832338
30
0
0
VERTEX
8
0
10
36.48512
20
43.7715897993418
30
0
0
VERTEX
8
0
10
37.20192
20
43.5789329248113
30
0
0
VERTEX
8
0
10
37.91872
20
43.3862760502809
30
0
0
VERTEX
8
0
10
38.63552
20
43.1936191757505
30
0
0
VERTEX
8
0
10
39.35232
20
42.9754651330329
30
0
0
VERTEX
8
0
10
40.06912
20
42.7650245470073
30
0
0
VERTEX
8
0
10
40.78592
20
42.5545839609818
30
0
0
VERTEX
8
0
10
41.50272
20
42.3419227781221
30
0
0
VERTEX
8
0
10
42.21952
20
42.1285182401807
30
0
0
VERTEX
8
0
10
42.93632
20
41.9151137022393
30
0
0
VERTEX
8
0
10
43.65312
20
41.7017091642979
30
0
0
VERTEX
8
0
10
44.36992
20
41.4788377736974
30
0
0
VERTEX
8
0
10
45.08672
20
41.2565413800085
30
0
0
VERTEX
8
0
10
45.80352
20
41.0342449863195
30
0
0
VERTEX
8
0
10
46.52032
20
40.8119485926306
30
0
0
VERTEX
8
0
10
47.2371199999999
20
40.5610177310387
30
0
0
VERTEX
8
0
10
47.9539199999999
20
40.3179736739387
30
0
0
VERTEX
8
0
10
48.6707199999999
20
40.0749296168388
30
0
0
VERTEX
8
0
10
49.3875199999999
20
39.8298238526641
30
0
0
VERTEX
8
0
10
50.1043199999999
20
39.5838158436483
30
0
0
VERTEX
8
0
10
50.8211199999999
20
39.3378078346325
30
0
0
VERTEX
8
0
10
51.5379199999999
20
39.0917998256167
30
0
0
VERTEX
8
0
10
52.2547199999999
20
38.8607754555693
30
0
0
VERTEX
8
0
10
52.9715199999999
20
38.6295872061328
30
0
0
VERTEX
8
0
10
53.6883199999999
20
38.3983989566963
30
0
0
VERTEX
8
0
10
54.4051199999999
20
38.1672107072597
30
0
0
VERTEX
8
0
10
55.1219199999999
20
37.9320907093107
30
0
0
VERTEX
8
0
10
55.8387199999999
20
37.6979385079584
30
0
0
VERTEX
8
0
10
56.5555199999999
20
37.463786306606
30
0
0
VERTEX
8
0
10
57.2723199999999
20
37.2315369225691
30
0
0
VERTEX
8
0
10
57.9891199999999
20
37.0003486731326
30
0
0
VERTEX
8
0
10
58.7059199999999
20
36.7691604236961
30
0
0
VERTEX
8
0
10
59.4227199999999
20
36.5379721742596
30
0
0
VERTEX
8
0
10
60.1395199999999
20
36.315297438926
30
0
0
VERTEX
8
0
10
60.8563199999999
20
36.0930010452371
30
0
0
VERTEX
8
0
10
61.5731199999999
20
35.8707046515481
30
0
0
VERTEX
8
0
10
62.2899199999999
20
35.6484082578591
30
0
0
VERTEX
8
0
10
63.0067199999999
20
35.4412032991828
30
0
0
VERTEX
8
0
10
63.7235199999999
20
35.2307627131573
30
0
0
VERTEX
8
0
10
64.4403199999999
20
35.0203221271317
30
0
0
VERTEX
8
0
10
65.1571199999999
20
34.8011619033255
30
0
0
VERTEX
8
0
10
65.8739199999999
20
34.5759015577207
30
0
0
VERTEX
8
0
10
66.5907199999999
20
34.3506412121159
30
0
0
VERTEX
8
0
10
67.3075199999999
20
34.1253808665111
30
0
0
VERTEX
8
0
10
68.0243199999999
20
33.9081573657312
30
0
0
VERTEX
8
0
10
68.7411199999999
20
33.6917888758739
30
0
0
VERTEX
8
0
10
69.4579199999999
20
33.4754203860167
30
0
0
VERTEX
8
0
10
70.1747199999999
20
33.2590518961594
30
0
0
VERTEX
8
0
10
70.8915199999999
20
33.0535253132836
30
0
0
VERTEX
8
0
10
71.6083199999999
20
32.8460486791739
30
0
0
VERTEX
8
0
10
72.3251199999999
20
32.6385720450642
30
0
0
VERTEX
8
0
10
73.0419199999999
20
32.4406056377352
30
0
0
VERTEX
8
0
10
73.7587199999999
20
32.2509127151206
30
0
0
VERTEX
8
0
10
74.4755199999999
20
32.0612197925061
30
0
0
VERTEX
8
0
10
75.1923199999999
20
31.8715268698915
30
0
0
VERTEX
8
0
10
75.9091199999998
20
31.6969542983706
30
0
0
VERTEX
8
0
10
76.6259199999999
20
31.5250450872512
30
0
0
VERTEX
8
0
10
77.3427199999998
20
31.3531358761317
30
0
0
VERTEX
8
0
10
78.0595199999999
20
31.1812266650123
30
0
0
VERTEX
8
0
10
78.7763199999998
20
31.0300479292995
30
0
0
VERTEX
8
0
10
79.4931199999998
20
30.8759224296752
30
0
0
VERTEX
8
0
10
80.2099199999998
20
30.7217969300508
30
0
0
VERTEX
8
0
10
80.9267199999998
20
30.5676714304265
30
0
0
VERTEX
8
0
10
81.6435199999998
20
30.4311063306153
30
0
0
VERTEX
8
0
10
82.3603199999998
20
30.2888366386544
30
0
0
VERTEX
8
0
10
83.0771199999998
20
30.1465669466934
30
0
0
VERTEX
8
0
10
83.7939199999998
20
30.0042972547325
30
0
0
VERTEX
8
0
10
84.5107199999998
20
29.8620275627716
30
0
0
VERTEX
8
0
10
85.2275199999998
20
29.7197578708107
30
0
0
VERTEX
8
0
10
85.9443199999998
20
29.5774881788497
30
0
0
VERTEX
8
0
10
86.6611199999998
20
29.4451070553141
30
0
0
VERTEX
8
0
10
87.3779199999998
20
29.3117292191007
30
0
0
VERTEX
8
0
10
88.0947199999998
20
29.1783513828874
30
0
0
VERTEX
8
0
10
88.8115199999998
20
29.044973546674
30
0
0
VERTEX
8
0
10
89.5283199999998
20
28.9454453920121
30
0
0
VERTEX
8
0
10
90.2451199999998
20
28.8357791711256
30
0
0
VERTEX
8
0
10
90.9619199999998
20
28.726112950239
30
0
0
VERTEX
8
0
10
91.6787199999998
20
28.6252558453402
30
0
0
VERTEX
8
0
10
92.3955199999998
20
28.527445432117
30
0
0
VERTEX
8
0
10
93.1123199999998
20
28.4296350188939
30
0
0
VERTEX
8
0
10
93.8291199999998
20
28.3318246056708
30
0
0
VERTEX
8
0
10
94.5459199999998
20
28.2183276938688
30
0
0
VERTEX
8
0
10
95.2627199999998
20
28.1056975210664
30
0
0
VERTEX
8
0
10
95.9795199999998
20
27.993067348264
30
0
0
VERTEX
8
0
10
96.6963199999998
20
27.8804371754616
30
0
0
VERTEX
8
0
10
97.4131199999998
20
27.7840962843976
30
0
0
VERTEX
8
0
10
98.1299199999998
20
27.6833219192586
30
0
0
VERTEX
8
0
10
98.8467199999998
20
27.5825475541196
30
0
0
VERTEX
8
0
10
99.5635199999998
20
27.4858599674557
30
0
0
VERTEX
8
0
10
100.28032
20
27.3910135061485
30
0
0
VERTEX
8
0
10
100.99712
20
27.2961670448412
30
0
0
VERTEX
8
0
10
101.71392
20
27.2013205835339
30
0
0
VERTEX
8
0
10
102.43072
20
27.1183877620522
30
0
0
VERTEX
8
0
10
103.14752
20
27.0353971084084
30
0
0
VERTEX
8
0
10
103.86432
20
26.9524064547645
30
0
0
VERTEX
8
0
10
104.58112
20
26.8694158011206
30
0
0
VERTEX
8
0
10
105.29792
20
26.790338578152
30
0
0
VERTEX
8
0
10
106.01472
20
26.7103118764239
30
0
0
VERTEX
8
0
10
106.73152
20
26.6302851746959
30
0
0
VERTEX
8
0
10
107.44832
20
26.542720475055
30
0
0
VERTEX
8
0
10
108.16512
20
26.4508379656636
30
0
0
VERTEX
8
0
10
108.88192
20
26.3589554562721
30
0
0
VERTEX
8
0
10
109.59872
20
26.2670729468807
30
0
0
VERTEX
8
0
10
110.31552
20
26.1836489980804
30
0
0
VERTEX
8
0
10
111.03232
20
26.1006583444366
30
0
0
VERTEX
8
0
10
111.74912
20
26.0176676907927
30
0
0
VERTEX
8
0
10
112.46592
20
25.9346770371488
30
0
0
VERTEX
8
0
10
113.18272
20
25.8591954653367
30
0
0
VERTEX
8
0
10
113.89952
20
25.7821327155246
30
0
0
VERTEX
8
0
10
114.61632
20
25.7050699657124
30
0
0
VERTEX
8
0
10
115.33312
20
25.6280072159002
30
0
0
VERTEX
8
0
10
116.04992
20
25.550944466088
30
0
0
VERTEX
8
0
10
116.76672
20
25.4738817162759
30
0
0
VERTEX
8
0
10
117.48352
20
25.3968189664637
30
0
0
VERTEX
8
0
10
118.20032
20
25.3250774775269
30
0
0
VERTEX
8
0
10
118.91712
20
25.2539426315465
30
0
0
VERTEX
8
0
10
119.63392
20
25.182807785566
30
0
0
VERTEX
8
0
10
120.35072
20
25.1116729395855
30
0
0
VERTEX
8
0
10
121.06752
20
25.0513250470747
30
0
0
VERTEX
8
0
10
121.78432
20
24.9890820568418
30
0
0
VERTEX
8
0
10
122.50112
20
24.9268390666089
30
0
0
VERTEX
8
0
10
123.21792
20
24.8630293564165
30
0
0
VERTEX
8
0
10
123.93472
20
24.7978224142677
30
0
0
VERTEX
8
0
10
124.65152
20
24.7326154721189
30
0
0
VERTEX
8
0
10
125.36832
20
24.6674085299702
30
0
0
VERTEX
8
0
10
126.08512
20
24.6072050691781
30
0
0
VERTEX
8
0
10
126.80192
20
24.5479260308611
30
0
0
VERTEX
8
0
10
127.51872
20
24.488646992544
30
0
0
VERTEX
8
0
10
128.23552
20
24.429367954227
30
0
0
VERTEX
8
0
10
128.95232
20
24.3632153931155
30
0
0
VERTEX
8
0
10
129.66912
20
24.2980084509668
30
0
0
VERTEX
8
0
10
130.38592
20
24.232801508818
30
0
0
VERTEX
8
0
10
131.10272
20
24.1675945666692
30
0
0
VERTEX
8
0
10
131.81952
20
24.1023876245205
30
0
0
VERTEX
8
0
10
132.53632
20
24.0371806823717
30
0
0
VERTEX
8
0
10
133.25312
20
23.971973740223
30
0
0
VERTEX
8
0
10
133.96992
20
23.9114524999122
30
0
0
VERTEX
8
0
10
134.68672
20
23.8521734615952
30
0
0
VERTEX
8
0
10
135.40352
20
23.7928944232781
30
0
0
VERTEX
8
0
10
136.12032
20
23.733615384961
30
0
0
VERTEX
8
0
10
136.83712
20
23.6677806033683
30
0
0
VERTEX
8
0
10
137.55392
20
23.6025736612195
30
0
0
VERTEX
8
0
10
138.27072
20
23.5373667190708
30
0
0
VERTEX
8
0
10
138.98752
20
23.472159776922
30
0
0
VERTEX
8
0
10
139.70432
20
23.4111657271299
30
0
0
VERTEX
8
0
10
140.42112
20
23.348922736897
30
0
0
VERTEX
8
0
10
141.13792
20
23.2866797466641
30
0
0
VERTEX
8
0
10
141.85472
20
23.2397244845489
30
0
0
VERTEX
8
0
10
142.57152
20
23.1982291577269
30
0
0
VERTEX
8
0
10
143.28832
20
23.156733830905
30
0
0
VERTEX
8
0
10
144.00512
20
23.1152385040831
30
0
0
VERTEX
8
0
10
144.72192
20
23.0612672497471
30
0
0
VERTEX
8
0
10
145.43872
20
23.0079161152618
30
0
0
VERTEX
8
0
10
146.15552
20
22.9545649807764
30
0
0
VERTEX
8
0
10
146.87232
20
22.9012138462911
30
0
0
VERTEX
8
0
10
147.58912
20
22.8438087092084
30
0
0
VERTEX
8
0
10
148.30592
20
22.7874936228072
30
0
0
VERTEX
8
0
10
149.02272
20
22.731178536406
30
0
0
VERTEX
8
0
10
149.73952
20
22.6748634500048
30
0
0
VERTEX
8
0
10
150.45632
20
22.6185483636036
30
0
0
VERTEX
8
0
10
151.17312
20
22.5622332772024
30
0
0
VERTEX
8
0
10
151.88992
20
22.5059181908012
30
0
0
VERTEX
8
0
10
152.60672
20
22.4762439334723
30
0
0
VERTEX
8
0
10
153.32352
20
22.4466044143138
30
0
0
VERTEX
8
0
10
154.04032
20
22.4169648951553
30
0
0
VERTEX
8
0
10
154.75712
20
22.3873253759968
30
0
0
VERTEX
8
0
10
155.47392
20
22.3382102926483
30
0
0
VERTEX
8
0
10
156.19072
20
22.2937510139105
30
0
0
VERTEX
8
0
10
156.90752
20
22.2492917351727
30
0
0
VERTEX
8
0
10
157.62432
20
22.201100093153
30
0
0
VERTEX
8
0
10
158.34112
20
22.1507129105835
30
0
0
VERTEX
8
0
10
159.05792
20
22.100325728014
30
0
0
VERTEX
8
0
10
159.77472
20
22.0499385454445
30
0
0
VERTEX
8
0
10
160.49152
20
22.0264945066252
30
0
0
VERTEX
8
0
10
161.20832
20
22.0046158615621
30
0
0
VERTEX
8
0
10
161.92512
20
21.9827372164991
30
0
0
SEQEND
8
0
0
POLYLINE
8
0
62
6
70
0
10
0
20
0
30
0
0
VERTEX
8
0
10
2.79552
20
2.91866046569211
30
0
0
VERTEX
8
0
10
3.51232
20
3.54701827185289
30
0
0
VERTEX
8
0
10
4.22912
20
4.17537607801367
30
0
0
VERTEX
8
0
10
4.94592
20
4.80373388417446
30
0
0
VERTEX
8
0
10
5.66272
20
5.43209169033524
30
0
0
VERTEX
8
0
10
6.37952
20
5.91928711360233
30
0
0
VERTEX
8
0
10
7.09632
20
6.44094265079241
30
0
0
VERTEX
8
0
10
7.81312
20
6.9625981879825
30
0
0
VERTEX
8
0
10
8.52992
20
7.4445165569553
30
0
0
VERTEX
8
0
10
9.24672
20
7.90392910391248
30
0
0
VERTEX
8
0
10
9.96352
20
8.36334165086965
30
0
0
VERTEX
8
0
10
10.68032
20
8.82275419782682
30
0
0
VERTEX
8
0
10
11.39712
20
9.20017600687584
30
0
0
VERTEX
8
0
10
12.11392
20
9.57363394827328
30
0
0
VERTEX
8
0
10
12.83072
20
9.94709188967073
30
0
0
VERTEX
8
0
10
13.54752
20
10.3205498310682
30
0
0
VERTEX
8
0
10
14.26432
20
10.6977700600089
30
0
0
VERTEX
8
0
10
14.98112
20
11.0741919533222
30
0
0
VERTEX
8
0
10
15.69792
20
11.4506138466355
30
0
0
VERTEX
8
0
10
16.41472
20
11.7906352566778
30
0
0
VERTEX
8
0
10
17.13152
20
12.1048141597582
30
0
0
VERTEX
8
0
10
17.84832
20
12.4189930628386
30
0
0
VERTEX
8
0
10
18.56512
20
12.733171965919
30
0
0
VERTEX
8
0
10
19.28192
20
13.0446824919343
30
0
0
VERTEX
8
0
10
19.99872
20
13.3558974430988
30
0
0
VERTEX
8
0
10
20.71552
20
13.6671123942634
30
0
0
VERTEX
8
0
10
21.43232
20
13.9783273454279
30
0
0
VERTEX
8
0
10
22.14912
20
14.2571117165373
30
0
0
VERTEX
8
0
10
22.86592
20
14.5416511004592
30
0
0
VERTEX
8
0
10
23.58272
20
14.826190484381
30
0
0
VERTEX
8
0
10
24.29952
20
15.1170277346505
30
0
0
VERTEX
8
0
10
25.01632
20
15.4134229262357
30
0
0
VERTEX
8
0
10
25.73312
20
15.709818117821
30
0
0
VERTEX
8
0
10
26.44992
20
16.0062133094063
30
0
0
VERTEX
8
0
10
27.16672
20
16.3051179882973
30
0
0
VERTEX
8
0
10
27.88352
20
16.6044771317984
30
0
0
VERTEX
8
0
10
28.60032
20
16.9038362752995
30
0
0
VERTEX
8
0
10
29.31712
20
17.2031954188007
30
0
0
VERTEX
8
0
10
30.03392
20
17.4956655462527
30
0
0
VERTEX
8
0
10
30.75072
20
17.7890967859221
30
0
0
VERTEX
8
0
10
31.46752
20
18.0825280255915
30
0
0
VERTEX
8
0
10
32.18432
20
18.3759592652609
30
0
0
VERTEX
8
0
10
32.90112
20
18.6825290911605
30
0
0
VERTEX
8
0
10
33.61792
20
18.9848521865775
30
0
0
VERTEX
8
0
10
34.33472
20
19.2871752819945
30
0
0
VERTEX
8
0
10
35.05152
20
19.5941995725042
30
0
0
VERTEX
8
0
10
35.76832
20
19.9024505717529
30
0
0
VERTEX
8
0
10
36.48512
20
20.2107015710016
30
0
0
VERTEX
8
0
10
37.20192
20
20.5189525702503
30
0
0
VERTEX
8
0
10
37.91872
20
20.8403460425598
30
0
0
VERTEX
8
0
10
38.63552
20
21.1604528494719
30
0
0
VERTEX
8
0
10
39.35232
20
21.480559656384
30
0
0
VERTEX
8
0
10
40.06912
20
21.8006664632961
30
0
0
VERTEX
8
0
10
40.78592
20
22.103890714272
30
0
0
VERTEX
8
0
10
41.50272
20
22.4121417135207
30
0
0
VERTEX
8
0
10
42.21952
20
22.7203927127694
30
0
0
VERTEX
8
0
10
42.93632
20
23.028643712018
30
0
0
VERTEX
8
0
10
43.65312
20
23.3368947112667
30
0
0
VERTEX
8
0
10
44.36992
20
23.6451457105154
30
0
0
VERTEX
8
0
10
45.08672
20
23.9533967097641
30
0
0
VERTEX
8
0
10
45.80352
20
24.23350715246
30
0
0
VERTEX
8
0
10
46.52032
20
24.5150825844661
30
0
0
VERTEX
8
0
10
47.2371199999999
20
24.7966580164721
30
0
0
VERTEX
8
0
10
47.9539199999999
20
25.0782334484781
30
0
0
VERTEX
8
0
10
48.6707199999999
20
25.34762363281
30
0
0
VERTEX
8
0
10
49.3875199999999
20
25.6203072090684
30
0
0
VERTEX
8
0
10
50.1043199999999
20
25.8929907853269
30
0
0
VERTEX
8
0
10
50.8211199999999
20
26.1351820911702
30
0
0
VERTEX
8
0
10
51.5379199999999
20
26.3634063886909
30
0
0
VERTEX
8
0
10
52.2547199999999
20
26.5916306862115
30
0
0
VERTEX
8
0
10
52.9715199999999
20
26.8198549837322
30
0
0
VERTEX
8
0
10
53.6883199999999
20
26.9976260225621
30
0
0
VERTEX
8
0
10
54.4051199999999
20
27.1754631375133
30
0
0
VERTEX
8
0
10
55.1219199999999
20
27.3533002524645
30
0
0
VERTEX
8
0
10
55.8387199999999
20
27.5311373674156
30
0
0
VERTEX
8
0
10
56.5555199999999
20
27.6426258714559
30
0
0
VERTEX
8
0
10
57.2723199999999
20
27.7700758038376
30
0
0
VERTEX
8
0
10
57.9891199999999
20
27.8975257362193
30
0
0
VERTEX
8
0
10
58.7059199999999
20
27.991244959771
30
0
0
VERTEX
8
0
10
59.4227199999999
20
28.0653437576674
30
0
0
VERTEX
8
0
10
60.1395199999999
20
28.1394425555637
30
0
0
VERTEX
8
0
10
60.8563199999999
20
28.21354135346
30
0
0
VERTEX
8
0
10
61.5731199999999
20
28.1921358857928
30
0
0
VERTEX
8
0
10
62.2899199999999
20
28.1654603185501
30
0
0
VERTEX
8
0
10
63.0067199999999
20
28.1387847513074
30
0
0
VERTEX
8
0
10
63.7235199999999
20
28.1121091840648
30
0
0
VERTEX
8
0
10
64.4403199999999
20
28.0142981924081
30
0
0
VERTEX
8
0
10
65.1571199999999
20
27.9313075387643
30
0
0
VERTEX
8
0
10
65.8739199999999
20
27.8483168851204
30
0
0
VERTEX
8
0
10
66.5907199999999
20
27.7361705768239
30
0
0
VERTEX
8
0
10
67.3075199999999
20
27.6027927406105
30
0
0
VERTEX
8
0
10
68.0243199999999
20
27.4694149043971
30
0
0
VERTEX
8
0
10
68.7411199999999
20
27.3360370681838
30
0
0
VERTEX
8
0
10
69.4579199999999
20
27.1947090542869
30
0
0
VERTEX
8
0
10
70.1747199999999
20
27.052439362326
30
0
0
VERTEX
8
0
10
70.8915199999999
20
26.9101696703651
30
0
0
VERTEX
8
0
10
71.6083199999999
20
26.7678999784041
30
0
0
VERTEX
8
0
10
72.3251199999999
20
26.5897794869767
30
0
0
VERTEX
8
0
10
73.0419199999999
20
26.4178702758573
30
0
0
VERTEX
8
0
10
73.7587199999999
20
26.2459610647378
30
0
0
VERTEX
8
0
10
74.4755199999999
20
26.0833887461161
30
0
0
VERTEX
8
0
10
75.1923199999999
20
25.9292632464918
30
0
0
VERTEX
8
0
10
75.9091199999998
20
25.7751377468675
30
0
0
VERTEX
8
0
10
76.6259199999999
20
25.6210122472431
30
0
0
VERTEX
8
0
10
77.3427199999998
20
25.4768514254926
30
0
0
VERTEX
8
0
10
78.0595199999999
20
25.3345817335317
30
0
0
VERTEX
8
0
10
78.7763199999998
20
25.1923120415708
30
0
0
VERTEX
8
0
10
79.4931199999998
20
25.0500423496098
30
0
0
VERTEX
8
0
10
80.2099199999998
20
24.897494087087
30
0
0
VERTEX
8
0
10
80.9267199999998
20
24.7463325393785
30
0
0
VERTEX
8
0
10
81.6435199999998
20
24.59517099167
30
0
0
VERTEX
8
0
10
82.3603199999998
20
24.4440094439615
30
0
0
VERTEX
8
0
10
83.0771199999998
20
24.3277375835021
30
0
0
VERTEX
8
0
10
83.7939199999998
20
24.2002876511205
30
0
0
VERTEX
8
0
10
84.5107199999998
20
24.0728377187388
30
0
0
VERTEX
8
0
10
85.2275199999998
20
23.9523846254845
30
0
0
VERTEX
8
0
10
85.9443199999998
20
23.8338265488504
30
0
0
VERTEX
8
0
10
86.6611199999998
20
23.7152684722162
30
0
0
VERTEX
8
0
10
87.3779199999998
20
23.5967103955821
30
0
0
VERTEX
8
0
10
88.0947199999998
20
23.5010234219437
30
0
0
VERTEX
8
0
10
88.8115199999998
20
23.4032130087205
30
0
0
VERTEX
8
0
10
89.5283199999998
20
23.3054025954974
30
0
0
VERTEX
8
0
10
90.2451199999998
20
23.2075921822743
30
0
0
VERTEX
8
0
10
90.9619199999998
20
23.092972484464
30
0
0
VERTEX
8
0
10
91.6787199999998
20
22.9833062635774
30
0
0
VERTEX
8
0
10
92.3955199999998
20
22.8736400426909
30
0
0
VERTEX
8
0
10
93.1123199999998
20
22.7704939916536
30
0
0
VERTEX
8
0
10
93.8291199999998
20
22.6697196265146
30
0
0
VERTEX
8
0
10
94.5459199999998
20
22.5689452613756
30
0
0
VERTEX
8
0
10
95.2627199999998
20
22.4681708962367
30
0
0
VERTEX
8
0
10
95.9795199999998
20
22.3767217631035
30
0
0
VERTEX
8
0
10
96.6963199999998
20
22.284839253712
30
0
0
VERTEX
8
0
10
97.4131199999998
20
22.1929567443206
30
0
0
VERTEX
8
0
10
98.1299199999998
20
22.1010742349292
30
0
0
VERTEX
8
0
10
98.8467199999998
20
22.0213220197
30
0
0
VERTEX
8
0
10
99.5635199999998
20
21.9383313660562
30
0
0
VERTEX
8
0
10
100.28032
20
21.8553407124123
30
0
0
VERTEX
8
0
10
100.99712
20
21.770335558578
30
0
0
VERTEX
8
0
10
101.71392
20
21.6843809530183
30
0
0
VERTEX
8
0
10
102.43072
20
21.5984263474585
30
0
0
VERTEX
8
0
10
103.14752
20
21.5124717418988
30
0
0
VERTEX
8
0
10
103.86432
20
21.4265171363391
30
0
0
VERTEX
8
0
10
104.58112
20
21.3405625307794
30
0
0
VERTEX
8
0
10
105.29792
20
21.2546079252196
30
0
0
VERTEX
8
0
10
106.01472
20
21.1686533196599
30
0
0
VERTEX
8
0
10
106.73152
20
21.0865832557283
30
0
0
VERTEX
8
0
10
107.44832
20
21.0035926020844
30
0
0
VERTEX
8
0
10
108.16512
20
20.9206019484405
30
0
0
VERTEX
8
0
10
108.88192
20
20.8394669052277
30
0
0
VERTEX
8
0
10
109.59872
20
20.7594402034997
30
0
0
VERTEX
8
0
10
110.31552
20
20.6794135017716
30
0
0
VERTEX
8
0
10
111.03232
20
20.5993868000436
30
0
0
VERTEX
8
0
10
111.74912
20
20.5109882048659
30
0
0
VERTEX
8
0
10
112.46592
20
20.4220696473903
30
0
0
VERTEX
8
0
10
113.18272
20
20.3331510899147
30
0
0
VERTEX
8
0
10
113.89952
20
20.2442325324391
30
0
0
VERTEX
8
0
10
114.61632
20
20.1888448417822
30
0
0
VERTEX
8
0
10
115.33312
20
20.1266018515493
30
0
0
VERTEX
8
0
10
116.04992
20
20.0643588613164
30
0
0
VERTEX
8
0
10
116.76672
20
20.0021158710835
30
0
0
VERTEX
8
0
10
117.48352
20
19.9398728808506
30
0
0
VERTEX
8
0
10
118.20032
20
19.8776298906177
30
0
0
VERTEX
8
0
10
118.91712
20
19.8153869003848
30
0
0
VERTEX
8
0
10
119.63392
20
19.7505121687613
30
0
0
VERTEX
8
0
10
120.35072
20
19.6853052266125
30
0
0
VERTEX
8
0
10
121.06752
20
19.6200982844638
30
0
0
VERTEX
8
0
10
121.78432
20
19.554891342315
30
0
0
VERTEX
8
0
10
122.50112
20
19.4932511622756
30
0
0
VERTEX
8
0
10
123.21792
20
19.4310081720427
30
0
0
VERTEX
8
0
10
123.93472
20
19.3687651818098
30
0
0
VERTEX
8
0
10
124.65152
20
19.3065221915769
30
0
0
VERTEX
8
0
10
125.36832
20
19.244279201344
30
0
0
VERTEX
8
0
10
126.08512
20
19.1820362111111
30
0
0
VERTEX
8
0
10
126.80192
20
19.1197932208782
30
0
0
VERTEX
8
0
10
127.51872
20
19.0600230822765
30
0
0
VERTEX
8
0
10
128.23552
20
19.0007440439594
30
0
0
VERTEX
8
0
10
128.95232
20
18.9414650056424
30
0
0
VERTEX
8
0
10
129.66912
20
18.8821859673253
30
0
0
VERTEX
8
0
10
130.38592
20
18.8535777801587
30
0
0
VERTEX
8
0
10
131.10272
20
18.8209743090843
30
0
0
VERTEX
8
0
10
131.81952
20
18.7883708380099
30
0
0
VERTEX
8
0
10
132.53632
20
18.7557673669355
30
0
0
VERTEX
8
0
10
133.25312
20
18.7101352166545
30
0
0
VERTEX
8
0
10
133.96992
20
18.6686398898326
30
0
0
VERTEX
8
0
10
134.68672
20
18.6271445630106
30
0
0
VERTEX
8
0
10
135.40352
20
18.5694515030857
30
0
0
VERTEX
8
0
10
136.12032
20
18.5072085128527
30
0
0
VERTEX
8
0
10
136.83712
20
18.4449655226198
30
0
0
VERTEX
8
0
10
137.55392
20
18.3827225323869
30
0
0
VERTEX
8
0
10
138.27072
20
18.3237285247447
30
0
0
VERTEX
8
0
10
138.98752
20
18.2644494864277
30
0
0
VERTEX
8
0
10
139.70432
20
18.2051704481106
30
0
0
VERTEX
8
0
10
140.42112
20
18.1458914097936
30
0
0
VERTEX
8
0
10
141.13792
20
18.1284524045718
30
0
0
VERTEX
8
0
10
141.85472
20
18.0988128854133
30
0
0
VERTEX
8
0
10
142.57152
20
18.0691733662547
30
0
0
VERTEX
8
0
10
143.28832
20
18.0309135586462
30
0
0
VERTEX
8
0
10
144.00512
20
17.9894182318242
30
0
0
VERTEX
8
0
10
144.72192
20
17.9479229050023
30
0
0
VERTEX
8
0
10
145.43872
20
17.9064275781804
30
0
0
VERTEX
8
0
10
146.15552
20
17.8556619728644
30
0
0
VERTEX
8
0
10
146.87232
20
17.8052747902949
30
0
0
VERTEX
8
0
10
147.58912
20
17.7548876077254
30
0
0
VERTEX
8
0
10
148.30592
20
17.7045004251559
30
0
0
VERTEX
8
0
10
149.02272
20
17.6822890374377
30
0
0
VERTEX
8
0
10
149.73952
20
17.6526495182791
30
0
0
VERTEX
8
0
10
150.45632
20
17.6230099991206
30
0
0
VERTEX
8
0
10
151.17312
20
17.5793972034899
30
0
0
VERTEX
8
0
10
151.88992
20
17.5290100209204
30
0
0
VERTEX
8
0
10
152.60672
20
17.4786228383509
30
0
0
VERTEX
8
0
10
153.32352
20
17.4282356557814
30
0
0
VERTEX
8
0
10
154.04032
20
17.3837108793559
30
0
0
VERTEX
8
0
10
154.75712
20
17.3392516006181
30
0
0
VERTEX
8
0
10
155.47392
20
17.2947923218803
30
0
0
VERTEX
8
0
10
156.19072
20
17.2503330431426
30
0
0
VERTEX
8
0
10
156.90752
20
17.2368035547314
30
0
0
VERTEX
8
0
10
157.62432
20
17.2160558913205
30
0
0
VERTEX
8
0
10
158.34112
20
17.1953082279095
30
0
0
VERTEX
8
0
10
159.05792
20
17.1672113941233
30
0
0
VERTEX
8
0
10
159.77472
20
17.1346079230489
30
0
0
VERTEX
8
0
10
160.49152
20
17.1020044519745
30
0
0
VERTEX
8
0
10
161.20832
20
17.0694009809001
30
0
0
VERTEX
8
0
10
161.92512
20
17.0156852776756
30
0
0
SEQEND
8
0
0
POLYLINE
8
0
62
1
70
0
10
0
20
0
30
0
0
VERTEX
8
0
10
2.79552
20
22.8313908460372
30
0
0
VERTEX
8
0
10
3.51232
20
26.6591017974214
30
0
0
VERTEX
8
0
10
4.22912
20
29.334760575699
30
0
0
VERTEX
8
0
10
4.94592
20
31.8960204022324
30
0
0
VERTEX
8
0
10
5.66272
20
33.1163652988686
30
0
0
VERTEX
8
0
10
6.37952
20
34.6486782522907
30
0
0
VERTEX
8
0
10
7.09632
20
35.9598707544902
30
0
0
VERTEX
8
0
10
7.81312
20
37.3480798749314
30
0
0
VERTEX
8
0
10
8.52992
20
38.2891436907265
30
0
0
VERTEX
8
0
10
9.24672
20
39.3701745387971
30
0
0
VERTEX
8
0
10
9.96352
20
40.1262316372805
30
0
0
VERTEX
8
0
10
10.68032
20
40.8012106418321
30
0
0
VERTEX
8
0
10
11.39712
20
41.4604411049554
30
0
0
VERTEX
8
0
10
12.11392
20
42.120124268375
30
0
0
VERTEX
8
0
10
12.83072
20
42.5658915956735
30
0
0
VERTEX
8
0
10
13.54752
20
43.0603279562028
30
0
0
VERTEX
8
0
10
14.26432
20
43.5572874884315
30
0
0
VERTEX
8
0
10
14.98112
20
44.0266392149374
30
0
0
VERTEX
8
0
10
15.69792
20
44.4778663977087
30
0
0
VERTEX
8
0
10
16.41472
20
44.9211541139041
30
0
0
VERTEX
8
0
10
17.13152
20
45.3587329519892
30
0
0
VERTEX
8
0
10
17.84832
20
45.6959927542046
30
0
0
VERTEX
8
0
10
18.56512
20
46.0244260608386
30
0
0
VERTEX
8
0
10
19.28192
20
46.3532800506946
30
0
0
VERTEX
8
0
10
19.99872
20
46.6831712107104
30
0
0
VERTEX
8
0
10
20.71552
20
46.8960071713443
30
0
0
VERTEX
8
0
10
21.43232
20
47.1319882249062
30
0
0
VERTEX
8
0
10
22.14912
20
47.3595477598867
30
0
0
VERTEX
8
0
10
22.86592
20
47.5425663315656
30
0
0
VERTEX
8
0
10
23.58272
20
47.6867052330066
30
0
0
VERTEX
8
0
10
24.29952
20
47.8341658469774
30
0
0
VERTEX
8
0
10
25.01632
20
47.984794384296
30
0
0
VERTEX
8
0
10
25.73312
20
48.0624753411377
30
0
0
VERTEX
8
0
10
26.44992
20
48.1294215219807
30
0
0
VERTEX
8
0
10
27.16672
20
48.1989683606513
30
0
0
VERTEX
8
0
10
27.88352
20
48.2704442914744
30
0
0
VERTEX
8
0
10
28.60032
20
48.2883742369861
30
0
0
VERTEX
8
0
10
29.31712
20
48.3164194400247
30
0
0
VERTEX
8
0
10
30.03392
20
48.3439509344067
30
0
0
VERTEX
8
0
10
30.75072
20
48.3737309141347
30
0
0
VERTEX
8
0
10
31.46752
20
48.3522579248322
30
0
0
VERTEX
8
0
10
32.18432
20
48.3503326069699
30
0
0
VERTEX
8
0
10
32.90112
20
48.3555681425406
30
0
0
VERTEX
8
0
10
33.61792
20
48.3329359308391
30
0
0
VERTEX
8
0
10
34.33472
20
48.3056998609799
30
0
0
VERTEX
8
0
10
35.05152
20
48.282779801126
30
0
0
VERTEX
8
0
10
35.76832
20
48.2628387179834
30
0
0
VERTEX
8
0
10
36.48512
20
48.2122861058665
30
0
0
VERTEX
8
0
10
37.20192
20
48.1679437950738
30
0
0
VERTEX
8
0
10
37.91872
20
48.1319953116928
30
0
0
VERTEX
8
0
10
38.63552
20
48.0983731772134
30
0
0
VERTEX
8
0
10
39.35232
20
48.0448233064916
30
0
0
VERTEX
8
0
10
40.06912
20
48.0012123050035
30
0
0
VERTEX
8
0
10
40.78592
20
47.9528372549605
30
0
0
VERTEX
8
0
10
41.50272
20
47.907645744029
30
0
0
VERTEX
8
0
10
42.21952
20
47.8646873397884
30
0
0
VERTEX
8
0
10
42.93632
20
47.8246295112332
30
0
0
VERTEX
8
0
10
43.65312
20
47.7874795525819
30
0
0
VERTEX
8
0
10
44.36992
20
47.7450196222414
30
0
0
VERTEX
8
0
10
45.08672
20
47.706052242621
30
0
0
VERTEX
8
0
10
45.80352
20
47.6557670225296
30
0
0
VERTEX
8
0
10
46.52032
20
47.608869153244
30
0
0
VERTEX
8
0
10
47.2371199999999
20
47.5401978136766
30
0
0
VERTEX
8
0
10
47.9539199999999
20
47.4811203960983
30
0
0
VERTEX
8
0
10
48.6707199999999
20
47.418372047395
30
0
0
VERTEX
8
0
10
49.3875199999999
20
47.3583678943995
30
0
0
VERTEX
8
0
10
50.1043199999999
20
47.3003747189479
30
0
0
VERTEX
8
0
10
50.8211199999999
20
47.2282846202686
30
0
0
VERTEX
8
0
10
51.5379199999999
20
47.1508007357389
30
0
0
VERTEX
8
0
10
52.2547199999999
20
47.0879463510572
30
0
0
VERTEX
8
0
10
52.9715199999999
20
47.0271158914157
30
0
0
VERTEX
8
0
10
53.6883199999999
20
46.9394168401327
30
0
0
VERTEX
8
0
10
54.4051199999999
20
46.8534072390761
30
0
0
VERTEX
8
0
10
55.1219199999999
20
46.7658693951139
30
0
0
VERTEX
8
0
10
55.8387199999999
20
46.6808107523136
30
0
0
VERTEX
8
0
10
56.5555199999999
20
46.5580288403227
30
0
0
VERTEX
8
0
10
57.2723199999999
20
46.447437515621
30
0
0
VERTEX
8
0
10
57.9891199999999
20
46.3389441413634
30
0
0
VERTEX
8
0
10
58.7059199999999
20
46.2112643482237
30
0
0
VERTEX
8
0
10
59.4227199999999
20
46.0726266978887
30
0
0
VERTEX
8
0
10
60.1395199999999
20
45.941583074765
30
0
0
VERTEX
8
0
10
60.8563199999999
20
45.8116648917596
30
0
0
VERTEX
8
0
10
61.5731199999999
20
45.6235024740714
30
0
0
VERTEX
8
0
10
62.2899199999999
20
45.432391157354
30
0
0
VERTEX
8
0
10
63.0067199999999
20
45.2533987516343
30
0
0
VERTEX
8
0
10
63.7235199999999
20
45.0721346746254
30
0
0
VERTEX
8
0
10
64.4403199999999
20
44.846670613338
30
0
0
VERTEX
8
0
10
65.1571199999999
20
44.6237471605255
30
0
0
VERTEX
8
0
10
65.8739199999999
20
44.3961903980879
30
0
0
VERTEX
8
0
10
66.5907199999999
20
44.1504440515629
30
0
0
VERTEX
8
0
10
67.3075199999999
20
43.8914090268875
30
0
0
VERTEX
8
0
10
68.0243199999999
20
43.6386513440677
30
0
0
VERTEX
8
0
10
68.7411199999999
20
43.3865827215002
30
0
0
VERTEX
8
0
10
69.4579199999999
20
43.1295255082624
30
0
0
VERTEX
8
0
10
70.1747199999999
20
42.8718906567433
30
0
0
VERTEX
8
0
10
70.8915199999999
20
42.6226790256515
30
0
0
VERTEX
8
0
10
71.6083199999999
20
42.3719645884931
30
0
0
VERTEX
8
0
10
72.3251199999999
20
42.0986075578147
30
0
0
VERTEX
8
0
10
73.0419199999999
20
41.8365481852301
30
0
0
VERTEX
8
0
10
73.7587199999999
20
41.5809071951306
30
0
0
VERTEX
8
0
10
74.4755199999999
20
41.3311623725295
30
0
0
VERTEX
8
0
10
75.1923199999999
20
41.0867486852402
30
0
0
VERTEX
8
0
10
75.9091199999998
20
40.8540651302045
30
0
0
VERTEX
8
0
10
76.6259199999999
20
40.6234505713953
30
0
0
VERTEX
8
0
10
77.3427199999998
20
40.3991223645242
30
0
0
VERTEX
8
0
10
78.0595199999999
20
40.1759869567366
30
0
0
VERTEX
8
0
10
78.7763199999998
20
39.9689437000091
30
0
0
VERTEX
8
0
10
79.4931199999998
20
39.759617799981
30
0
0
VERTEX
8
0
10
80.2099199999998
20
39.5438240238323
30
0
0
VERTEX
8
0
10
80.9267199999998
20
39.3289144374469
30
0
0
VERTEX
8
0
10
81.6435199999998
20
39.1276713926947
30
0
0
VERTEX
8
0
10
82.3603199999998
20
38.922014626938
30
0
0
VERTEX
8
0
10
83.0771199999998
20
38.7382797062958
30
0
0
VERTEX
8
0
10
83.7939199999998
20
38.547526200099
30
0
0
VERTEX
8
0
10
84.5107199999998
20
38.3567752293185
30
0
0
VERTEX
8
0
10
85.2275199999998
20
38.1704170418238
30
0
0
VERTEX
8
0
10
85.9443199999998
20
37.9852483857968
30
0
0
VERTEX
8
0
10
86.6611199999998
20
37.8077807892529
30
0
0
VERTEX
8
0
10
87.3779199999998
20
37.6295390791179
30
0
0
VERTEX
8
0
10
88.0947199999998
20
37.4656414772521
30
0
0
VERTEX
8
0
10
88.8115199999998
20
37.3004137706077
30
0
0
VERTEX
8
0
10
89.5283199999998
20
37.1615473181644
30
0
0
VERTEX
8
0
10
90.2451199999998
20
37.0147875220793
30
0
0
VERTEX
8
0
10
90.9619199999998
20
36.8574950776379
30
0
0
VERTEX
8
0
10
91.6787199999998
20
36.710184404557
30
0
0
VERTEX
8
0
10
92.3955199999998
20
36.5652642775217
30
0
0
VERTEX
8
0
10
93.1123199999998
20
36.4244360825456
30
0
0
VERTEX
8
0
10
93.8291199999998
20
36.2850998817872
30
0
0
VERTEX
8
0
10
94.5459199999998
20
36.133520559856
30
0
0
VERTEX
8
0
10
95.2627199999998
20
35.9826199236267
30
0
0
VERTEX
8
0
10
95.9795199999998
20
35.8375431137207
30
0
0
VERTEX
8
0
10
96.6963199999998
20
35.6921957528344
30
0
0
VERTEX
8
0
10
97.4131199999998
20
35.5595744546523
30
0
0
VERTEX
8
0
10
98.1299199999998
20
35.4234921319617
30
0
0
VERTEX
8
0
10
98.8467199999998
20
35.2949791481819
30
0
0
VERTEX
8
0
10
99.5635199999998
20
35.1676396887461
30
0
0
VERTEX
8
0
10
100.28032
20
35.0417399475202
30
0
0
VERTEX
8
0
10
100.99712
20
34.9145849992945
30
0
0
VERTEX
8
0
10
101.71392
20
34.7868397357938
30
0
0
VERTEX
8
0
10
102.43072
20
34.6684146666619
30
0
0
VERTEX
8
0
10
103.14752
20
34.5499513350646
30
0
0
VERTEX
8
0
10
103.86432
20
34.4314950342947
30
0
0
VERTEX
8
0
10
104.58112
20
34.3130458371683
30
0
0
VERTEX
8
0
10
105.29792
20
34.1976694993508
30
0
0
VERTEX
8
0
10
106.01472
20
34.0815587070747
30
0
0
VERTEX
8
0
10
106.73152
20
33.9678683741913
30
0
0
VERTEX
8
0
10
107.44832
20
33.847701730121
30
0
0
VERTEX
8
0
10
108.16512
20
33.7241518050622
30
0
0
VERTEX
8
0
10
108.88192
20
33.6017546214453
30
0
0
VERTEX
8
0
10
109.59872
20
33.4800459790519
30
0
0
VERTEX
8
0
10
110.31552
20
33.3649759123536
30
0
0
VERTEX
8
0
10
111.03232
20
33.250249661481
30
0
0
VERTEX
8
0
10
111.74912
20
33.1303436325171
30
0
0
VERTEX
8
0
10
112.46592
20
33.0101257450509
30
0
0
VERTEX
8
0
10
113.18272
20
32.8958207582634
30
0
0
VERTEX
8
0
10
113.89952
20
32.780288561701
30
0
0
VERTEX
8
0
10
114.61632
20
32.6854719713166
30
0
0
VERTEX
8
0
10
115.33312
20
32.5864213430843
30
0
0
VERTEX
8
0
10
116.04992
20
32.4873707711905
30
0
0
VERTEX
8
0
10
116.76672
20
32.388320256152
30
0
0
VERTEX
8
0
10
117.48352
20
32.289269798492
30
0
0
VERTEX
8
0
10
118.20032
20
32.1944050932941
30
0
0
VERTEX
8
0
10
118.91712
20
32.1000183247515
30
0
0
VERTEX
8
0
10
119.63392
20
32.0040081691833
30
0
0
VERTEX
8
0
10
120.35072
20
31.9077946541219
30
0
0
VERTEX
8
0
10
121.06752
20
31.8200745333227
30
0
0
VERTEX
8
0
10
121.78432
20
31.7308682114644
30
0
0
VERTEX
8
0
10
122.50112
20
31.6438642824826
30
0
0
VERTEX
8
0
10
123.21792
20
31.5552579986287
30
0
0
VERTEX
8
0
10
123.93472
20
31.4655535650915
30
0
0
VERTEX
8
0
10
124.65152
20
31.3758516573741
30
0
0
VERTEX
8
0
10
125.36832
20
31.2861522972021
30
0
0
VERTEX
8
0
10
126.08512
20
31.2004015121755
30
0
0
VERTEX
8
0
10
126.80192
20
31.115384703162
30
0
0
VERTEX
8
0
10
127.51872
20
31.0318918440747
30
0
0
VERTEX
8
0
10
128.23552
20
30.9487042195157
30
0
0
VERTEX
8
0
10
128.95232
20
30.8600933383442
30
0
0
VERTEX
8
0
10
129.66912
20
30.7722303642084
30
0
0
VERTEX
8
0
10
130.38592
20
30.7031930599777
30
0
0
VERTEX
8
0
10
131.10272
20
30.6317107109954
30
0
0
VERTEX
8
0
10
131.81952
20
30.560235076799
30
0
0
VERTEX
8
0
10
132.53632
20
30.4887662046136
30
0
0
VERTEX
8
0
10
133.25312
20
30.4092861610961
30
0
0
VERTEX
8
0
10
133.96992
20
30.336045819978
30
0
0
VERTEX
8
0
10
134.68672
20
30.26378517987
30
0
0
VERTEX
8
0
10
135.40352
20
30.1815565231932
30
0
0
VERTEX
8
0
10
136.12032
20
30.0965324610572
30
0
0
VERTEX
8
0
10
136.83712
20
30.0063425265361
30
0
0
VERTEX
8
0
10
137.55392
20
29.9166503996691
30
0
0
VERTEX
8
0
10
138.27072
20
29.828956721893
30
0
0
VERTEX
8
0
10
138.98752
20
29.7410894157498
30
0
0
VERTEX
8
0
10
139.70432
20
29.6565492218482
30
0
0
VERTEX
8
0
10
140.42112
20
29.5710258197041
30
0
0
VERTEX
8
0
10
141.13792
20
29.5111883903126
30
0
0
VERTEX
8
0
10
141.85472
20
29.4559301665886
30
0
0
VERTEX
8
0
10
142.57152
20
29.4049802277468
30
0
0
VERTEX
8
0
10
143.28832
20
29.3487336264233
30
0
0
VERTEX
8
0
10
144.00512
20
29.2905004979453
30
0
0
VERTEX
8
0
10
144.72192
20
29.2224226197652
30
0
0
VERTEX
8
0
10
145.43872
20
29.1548341202542
30
0
0
VERTEX
8
0
10
146.15552
20
29.0815528805785
30
0
0
VERTEX
8
0
10
146.87232
20
29.0085057524765
30
0
0
VERTEX
8
0
10
147.58912
20
28.9322593363509
30
0
0
VERTEX
8
0
10
148.30592
20
28.8568744134534
30
0
0
VERTEX
8
0
10
149.02272
20
28.7987816280038
30
0
0
VERTEX
8
0
10
149.73952
20
28.7361352219042
30
0
0
VERTEX
8
0
10
150.45632
20
28.6734931863172
30
0
0
VERTEX
8
0
10
151.17312
20
28.6022652335959
30
0
0
VERTEX
8
0
10
151.88992
20
28.5268741001282
30
0
0
VERTEX
8
0
10
152.60672
20
28.4725095079846
30
0
0
VERTEX
8
0
10
153.32352
20
28.4181886791918
30
0
0
VERTEX
8
0
10
154.04032
20
28.3674764307237
30
0
0
VERTEX
8
0
10
154.75712
20
28.3168145023463
30
0
0
VERTEX
8
0
10
155.47392
20
28.2507607072013
30
0
0
VERTEX
8
0
10
156.19072
20
28.1883898860785
30
0
0
VERTEX
8
0
10
156.90752
20
28.144953002292
30
0
0
VERTEX
8
0
10
157.62432
20
28.09415287563
30
0
0
VERTEX
8
0
10
158.34112
20
28.0416245517249
30
0
0
VERTEX
8
0
10
159.05792
20
27.9845947681011
30
0
0
VERTEX
8
0
10
159.77472
20
27.9248022111973
30
0
0
VERTEX
8
0
10
160.49152
20
27.8862872488567
30
0
0
VERTEX
8
0
10
161.20832
20
27.8490137897496
30
0
0
VERTEX
8
0
10
161.92512
20
27.7988179784421
30
0
0
SEQEND
8
0
0
POLYLINE
8
0
62
2
70
0
10
0
20
0
30
0
0
VERTEX
8
0
10
2.79552
20
22.8313908460372
30
0
0
VERTEX
8
0
10
3.51232
20
26.6591017974214
30
0
0
VERTEX
8
0
10
4.22912
20
29.334760575699
30
0
0
VERTEX
8
0
10
4.94592
20
31.8960204022324
30
0
0
VERTEX
8
0
10
5.66272
20
33.1163652988686
30
0
0
VERTEX
8
0
10
6.37952
20
34.6486782522907
30
0
0
VERTEX
8
0
10
7.09632
20
35.9598707544902
30
0
0
VERTEX
8
0
10
7.81312
20
37.3480798749314
30
0
0
VERTEX
8
0
10
8.52992
20
38.2891436907265
30
0
0
VERTEX
8
0
10
9.24672
20
39.3701745387971
30
0
0
VERTEX
8
0
10
9.96352
20
40.1262316372805
30
0
0
VERTEX
8
0
10
10.68032
20
40.8012106418321
30
0
0
VERTEX
8
0
10
11.39712
20
41.4604411049554
30
0
0
VERTEX
8
0
10
12.11392
20
42.120124268375
30
0
0
VERTEX
8
0
10
12.83072
20
42.5658915956735
30
0
0
VERTEX
8
0
10
13.54752
20
43.0603279562028
30
0
0
VERTEX
8
0
10
14.26432
20
43.5572874884315
30
0
0
VERTEX
8
0
10
14.98112
20
44.0266392149374
30
0
0
VERTEX
8
0
10
15.69792
20
44.4778663977087
30
0
0
VERTEX
8
0
10
16.41472
20
44.9211541139041
30
0
0
VERTEX
8
0
10
17.13152
20
45.3587329519892
30
0
0
VERTEX
8
0
10
17.84832
20
45.6959927542046
30
0
0
VERTEX
8
0
10
18.56512
20
46.0244260608386
30
0
0
VERTEX
8
0
10
19.28192
20
46.3532800506946
30
0
0
VERTEX
8
0
10
19.99872
20
46.6831712107104
30
0
0
VERTEX
8
0
10
20.71552
20
46.8960071713443
30
0
0
VERTEX
8
0
10
21.43232
20
47.1319882249062
30
0
0
VERTEX
8
0
10
22.14912
20
47.3595477598867
30
0
0
VERTEX
8
0
10
22.86592
20
47.5425663315656
30
0
0
VERTEX
8
0
10
23.58272
20
47.6867052330066
30
0
0
VERTEX
8
0
10
24.29952
20
47.8341658469774
30
0
0
VERTEX
8
0
10
25.01632
20
47.984794384296
30
0
0
VERTEX
8
0
10
25.73312
20
48.0624753411376
30
0
0
VERTEX
8
0
10
26.44992
20
48.1294215219807
30
0
0
VERTEX
8
0
10
27.16672
20
48.1989683606513
30
0
0
VERTEX
8
0
10
27.88352
20
48.2704442914744
30
0
0
VERTEX
8
0
10
28.60032
20
48.2883742369862
30
0
0
VERTEX
8
0
10
29.31712
20
48.3164194400247
30
0
0
VERTEX
8
0
10
30.03392
20
48.3439509344067
30
0
0
VERTEX
8
0
10
30.75072
20
48.3737309141347
30
0
0
VERTEX
8
0
10
31.46752
20
48.3522579248322
30
0
0
VERTEX
8
0
10
32.18432
20
48.3503326069699
30
0
0
VERTEX
8
0
10
32.90112
20
48.3555681425406
30
0
0
VERTEX
8
0
10
33.61792
20
48.3329359308391
30
0
0
VERTEX
8
0
10
34.33472
20
48.3056998609799
30
0
0
VERTEX
8
0
10
35.05152
20
48.2827798011259
30
0
0
VERTEX
8
0
10
35.76832
20
48.2628387179834
30
0
0
VERTEX
8
0
10
36.48512
20
48.2122861058665
30
0
0
VERTEX
8
0
10
37.20192
20
48.1679437950738
30
0
0
VERTEX
8
0
10
37.91872
20
48.1319953116928
30
0
0
VERTEX
8
0
10
38.63552
20
48.0983731772134
30
0
0
VERTEX
8
0
10
39.35232
20
48.0448233064916
30
0
0
VERTEX
8
0
10
40.06912
20
48.0012123050035
30
0
0
VERTEX
8
0
10
40.78592
20
47.9528372549605
30
0
0
VERTEX
8
0
10
41.50272
20
47.907645744029
30
0
0
VERTEX
8
0
10
42.21952
20
47.8646873397884
30
0
0
VERTEX
8
0
10
42.93632
20
47.8246295112331
30
0
0
VERTEX
8
0
10
43.65312
20
47.7874795525819
30
0
0
VERTEX
8
0
10
44.36992
20
47.7450196222414
30
0
0
VERTEX
8
0
10
45.08672
20
47.7060522426211
30
0
0
VERTEX
8
0
10
45.80352
20
47.6557670225296
30
0
0
VERTEX
8
0
10
46.52032
20
47.608869153244
30
0
0
VERTEX
8
0
10
47.2371199999999
20
47.5401978136766
30
0
0
VERTEX
8
0
10
47.9539199999999
20
47.4811203960983
30
0
0
VERTEX
8
0
10
48.6707199999999
20
47.418372047395
30
0
0
VERTEX
8
0
10
49.3875199999999
20
47.3583678943995
30
0
0
VERTEX
8
0
10
50.1043199999999
20
47.3003747189479
30
0
0
VERTEX
8
0
10
50.8211199999999
20
47.2282846202686
30
0
0
VERTEX
8
0
10
51.5379199999999
20
47.1508007357389
30
0
0
VERTEX
8
0
10
52.2547199999999
20
47.0879463510572
30
0
0
VERTEX
8
0
10
52.9715199999999
20
47.0271158914157
30
0
0
VERTEX
8
0
10
53.6883199999999
20
46.9394168401327
30
0
0
VERTEX
8
0
10
54.4051199999999
20
46.8534072390761
30
0
0
VERTEX
8
0
10
55.1219199999999
20
46.7658693951139
30
0
0
VERTEX
8
0
10
55.8387199999999
20
46.6808107523136
30
0
0
VERTEX
8
0
10
56.5555199999999
20
46.5580288403227
30
0
0
VERTEX
8
0
10
57.2723199999999
20
46.447437515621
30
0
0
VERTEX
8
0
10
57.9891199999999
20
46.3389441413634
30
0
0
VERTEX
8
0
10
58.7059199999999
20
46.2112643482236
30
0
0
VERTEX
8
0
10
59.4227199999999
20
46.0726266978887
30
0
0
VERTEX
8
0
10
60.1395199999999
20
45.941583074765
30
0
0
VERTEX
8
0
10
60.8563199999999
20
45.8116648917596
30
0
0
VERTEX
8
0
10
61.5731199999999
20
45.6235024740714
30
0
0
VERTEX
8
0
10
62.2899199999999
20
45.432391157354
30
0
0
VERTEX
8
0
10
63.0067199999999
20
45.2533987516343
30
0
0
VERTEX
8
0
10
63.7235199999999
20
45.0721346746254
30
0
0
VERTEX
8
0
10
64.4403199999999
20
44.846670613338
30
0
0
VERTEX
8
0
10
65.1571199999999
20
44.6237471605255
30
0
0
VERTEX
8
0
10
65.8739199999999
20
44.3961903980879
30
0
0
VERTEX
8
0
10
66.5907199999999
20
44.1504440515629
30
0
0
VERTEX
8
0
10
67.3075199999999
20
43.8914090268875
30
0
0
VERTEX
8
0
10
68.0243199999999
20
43.6386513440677
30
0
0
VERTEX
8
0
10
68.7411199999999
20
43.3865827215002
30
0
0
VERTEX
8
0
10
69.4579199999999
20
43.1295255082624
30
0
0
VERTEX
8
0
10
70.1747199999999
20
42.8718906567433
30
0
0
VERTEX
8
0
10
70.8915199999999
20
42.6226790256515
30
0
0
VERTEX
8
0
10
71.6083199999999
20
42.3719645884931
30
0
0
VERTEX
8
0
10
72.3251199999999
20
42.0986075578147
30
0
0
VERTEX
8
0
10
73.0419199999999
20
41.8365481852301
30
0
0
VERTEX
8
0
10
73.7587199999999
20
41.5809071951306
30
0
0
VERTEX
8
0
10
74.4755199999999
20
41.3311623725295
30
0
0
VERTEX
8
0
10
75.1923199999999
20
41.0867486852402
30
0
0
VERTEX
8
0
10
75.9091199999998
20
40.8540651302045
30
0
0
VERTEX
8
0
10
76.6259199999999
20
40.6234505713953
30
0
0
VERTEX
8
0
10
77.3427199999998
20
40.3991223645242
30
0
0
VERTEX
8
0
10
78.0595199999999
20
40.1759869567366
30
0
0
VERTEX
8
0
10
78.7763199999998
20
39.9689437000091
30
0
0
VERTEX
8
0
10
79.4931199999998
20
39.759617799981
30
0
0
VERTEX
8
0
10
80.2099199999998
20
39.5438240238323
30
0
0
VERTEX
8
0
10
80.9267199999998
20
39.3289144374469
30
0
0
VERTEX
8
0
10
81.6435199999998
20
39.1276713926947
30
0
0
VERTEX
8
0
10
82.3603199999998
20
38.922014626938
30
0
0
VERTEX
8
0
10
83.0771199999998
20
38.7382797062958
30
0
0
VERTEX
8
0
10
83.7939199999998
20
38.547526200099
30
0
0
VERTEX
8
0
10
84.5107199999998
20
38.3567752293185
30
0
0
VERTEX
8
0
10
85.2275199999998
20
38.1704170418238
30
0
0
VERTEX
8
0
10
85.9443199999998
20
37.9852483857968
30
0
0
VERTEX
8
0
10
86.6611199999998
20
37.8077807892529
30
0
0
VERTEX
8
0
10
87.3779199999998
20
37.6295390791179
30
0
0
VERTEX
8
0
10
88.0947199999998
20
37.4656414772521
30
0
0
VERTEX
8
0
10
88.8115199999998
20
37.3004137706077
30
0
0
VERTEX
8
0
10
89.5283199999998
20
37.1615473181644
30
0
0
VERTEX
8
0
10
90.2451199999998
20
37.0147875220793
30
0
0
VERTEX
8
0
10
90.9619199999998
20
36.8574950776379
30
0
0
VERTEX
8
0
10
91.6787199999998
20
36.710184404557
30
0
0
VERTEX
8
0
10
92.3955199999998
20
36.5652642775217
30
0
0
VERTEX
8
0
10
93.1123199999998
20
36.4244360825456
30
0
0
VERTEX
8
0
10
93.8291199999998
20
36.2850998817872
30
0
0
VERTEX
8
0
10
94.5459199999998
20
36.133520559856
30
0
0
VERTEX
8
0
10
95.2627199999998
20
35.9826199236267
30
0
0
VERTEX
8
0
10
95.9795199999998
20
35.8375431137207
30
0
0
VERTEX
8
0
10
96.6963199999998
20
35.6921957528344
30
0
0
VERTEX
8
0
10
97.4131199999998
20
35.5595744546523
30
0
0
VERTEX
8
0
10
98.1299199999998
20
35.4234921319617
30
0
0
VERTEX
8
0
10
98.8467199999998
20
35.2949791481819
30
0
0
VERTEX
8
0
10
99.5635199999998
20
35.1676396887461
30
0
0
VERTEX
8
0
10
100.28032
20
35.0417399475202
30
0
0
VERTEX
8
0
10
100.99712
20
34.9145849992945
30
0
0
VERTEX
8
0
10
101.71392
20
34.7868397357938
30
0
0
VERTEX
8
0
10
102.43072
20
34.6684146666619
30
0
0
VERTEX
8
0
10
103.14752
20
34.5499513350646
30
0
0
VERTEX
8
0
10
103.86432
20
34.4314950342947
30
0
0
VERTEX
8
0
10
104.58112
20
34.3130458371683
30
0
0
VERTEX
8
0
10
105.29792
20
34.1976694993508
30
0
0
VERTEX
8
0
10
106.01472
20
34.0815587070747
30
0
0
VERTEX
8
0
10
106.73152
20
33.9678683741913
30
0
0
VERTEX
8
0
10
107.44832
20
33.847701730121
30
0
0
VERTEX
8
0
10
108.16512
20
33.7241518050622
30
0
0
VERTEX
8
0
10
108.88192
20
33.6017546214453
30
0
0
VERTEX
8
0
10
109.59872
20
33.4800459790519
30
0
0
VERTEX
8
0
10
110.31552
20
33.3649759123536
30
0
0
VERTEX
8
0
10
111.03232
20
33.250249661481
30
0
0
VERTEX
8
0
10
111.74912
20
33.1303436325171
30
0
0
VERTEX
8
0
10
112.46592
20
33.0101257450509
30
0
0
VERTEX
8
0
10
113.18272
20
32.8958207582634
30
0
0
VERTEX
8
0
10
113.89952
20
32.780288561701
30
0
0
VERTEX
8
0
10
114.61632
20
32.6854719713166
30
0
0
VERTEX
8
0
10
115.33312
20
32.5864213430843
30
0
0
VERTEX
8
0
10
116.04992
20
32.4873707711905
30
0
0
VERTEX
8
0
10
116.76672
20
32.388320256152
30
0
0
VERTEX
8
0
10
117.48352
20
32.289269798492
30
0
0
VERTEX
8
0
10
118.20032
20
32.1944050932941
30
0
0
VERTEX
8
0
10
118.91712
20
32.1000183247515
30
0
0
VERTEX
8
0
10
119.63392
20
32.0040081691833
30
0
0
VERTEX
8
0
10
120.35072
20
31.9077946541219
30
0
0
VERTEX
8
0
10
121.06752
20
31.8200745333227
30
0
0
VERTEX
8
0
10
121.78432
20
31.7308682114644
30
0
0
VERTEX
8
0
10
122.50112
20
31.6438642824826
30
0
0
VERTEX
8
0
10
123.21792
20
31.5552579986287
30
0
0
VERTEX
8
0
10
123.93472
20
31.4655535650915
30
0
0
VERTEX
8
0
10
124.65152
20
31.3758516573742
30
0
0
VERTEX
8
0
10
125.36832
20
31.2861522972021
30
0
0
VERTEX
8
0
10
126.08512
20
31.2004015121755
30
0
0
VERTEX
8
0
10
126.80192
20
31.115384703162
30
0
0
VERTEX
8
0
10
127.51872
20
31.0318918440747
30
0
0
VERTEX
8
0
10
128.23552
20
30.9487042195157
30
0
0
VERTEX
8
0
10
128.95232
20
30.8600933383442
30
0
0
VERTEX
8
0
10
129.66912
20
30.7722303642084
30
0
0
VERTEX
8
0
10
130.38592
20
30.7031930599777
30
0
0
VERTEX
8
0
10
131.10272
20
30.6317107109954
30
0
0
VERTEX
8
0
10
131.81952
20
30.560235076799
30
0
0
VERTEX
8
0
10
132.53632
20
30.4887662046136
30
0
0
VERTEX
8
0
10
133.25312
20
30.4092861610961
30
0
0
VERTEX
8
0
10
133.96992
20
30.336045819978
30
0
0
VERTEX
8
0
10
134.68672
20
30.26378517987
30
0
0
VERTEX
8
0
10
135.40352
20
30.1815565231932
30
0
0
VERTEX
8
0
10
136.12032
20
30.0965324610572
30
0
0
VERTEX
8
0
10
136.83712
20
30.0063425265361
30
0
0
VERTEX
8
0
10
137.55392
20
29.9166503996691
30
0
0
VERTEX
8
0
10
138.27072
20
29.828956721893
30
0
0
VERTEX
8
0
10
138.98752
20
29.7410894157498
30
0
0
VERTEX
8
0
10
139.70432
20
29.6565492218482
30
0
0
VERTEX
8
0
10
140.42112
20
29.5710258197041
30
0
0
VERTEX
8
0
10
141.13792
20
29.5111883903126
30
0
0
VERTEX
8
0
10
141.85472
20
29.4559301665886
30
0
0
VERTEX
8
0
10
142.57152
20
29.4049802277468
30
0
0
VERTEX
8
0
10
143.28832
20
29.3487336264233
30
0
0
VERTEX
8
0
10
144.00512
20
29.2905004979453
30
0
0
VERTEX
8
0
10
144.72192
20
29.2224226197652
30
0
0
VERTEX
8
0
10
145.43872
20
29.1548341202542
30
0
0
VERTEX
8
0
10
146.15552
20
29.0815528805785
30
0
0
VERTEX
8
0
10
146.87232
20
29.0085057524765
30
0
0
VERTEX
8
0
10
147.58912
20
28.9322593363509
30
0
0
VERTEX
8
0
10
148.30592
20
28.8568744134534
30
0
0
VERTEX
8
0
10
149.02272
20
28.7987816280039
30
0
0
VERTEX
8
0
10
149.73952
20
28.7361352219042
30
0
0
VERTEX
8
0
10
150.45632
20
28.6734931863172
30
0
0
VERTEX
8
0
10
151.17312
20
28.6022652335959
30
0
0
VERTEX
8
0
10
151.88992
20
28.5268741001282
30
0
0
VERTEX
8
0
10
152.60672
20
28.4725095079846
30
0
0
VERTEX
8
0
10
153.32352
20
28.4181886791918
30
0
0
VERTEX
8
0
10
154.04032
20
28.3674764307237
30
0
0
VERTEX
8
0
10
154.75712
20
28.3168145023463
30
0
0
VERTEX
8
0
10
155.47392
20
28.2507607072013
30
0
0
VERTEX
8
0
10
156.19072
20
28.1883898860785
30
0
0
VERTEX
8
0
10
156.90752
20
28.144953002292
30
0
0
VERTEX
8
0
10
157.62432
20
28.09415287563
30
0
0
VERTEX
8
0
10
158.34112
20
28.0416245517249
30
0
0
VERTEX
8
0
10
159.05792
20
27.9845947681011
30
0
0
VERTEX
8
0
10
159.77472
20
27.9248022111973
30
0
0
VERTEX
8
0
10
160.49152
20
27.8862872488567
30
0
0
VERTEX
8
0
10
161.20832
20
27.8490137897497
30
0
0
VERTEX
8
0
10
161.92512
20
27.7988179784421
30
0
0
SEQEND
8
0
0
POLYLINE
8
0
62
3
70
0
10
0
20
0
30
0
0
VERTEX
8
0
10
2.79552
20
18.7124179125871
30
0
0
VERTEX
8
0
10
3.51232
20
28.3456500715852
30
0
0
VERTEX
8
0
10
4.22912
20
30.3144148547909
30
0
0
VERTEX
8
0
10
4.94592
20
32.5052027551634
30
0
0
VERTEX
8
0
10
5.66272
20
34.8502870148548
30
0
0
VERTEX
8
0
10
6.37952
20
37.2645525324793
30
0
0
VERTEX
8
0
10
7.09632
20
39.6764969186984
30
0
0
VERTEX
8
0
10
7.81312
20
42.0359014785384
30
0
0
VERTEX
8
0
10
8.52992
20
44.3112919720815
30
0
0
VERTEX
8
0
10
9.24672
20
46.4848068510098
30
0
0
VERTEX
8
0
10
9.96352
20
48.547592996045
30
0
0
VERTEX
8
0
10
10.68032
20
50.4964733395953
30
0
0
VERTEX
8
0
10
11.39712
20
52.3317491294548
30
0
0
VERTEX
8
0
10
12.11392
20
54.0558111128791
30
0
0
VERTEX
8
0
10
12.83072
20
55.6722770976456
30
0
0
VERTEX
8
0
10
13.54752
20
57.1752465202339
30
0
0
VERTEX
8
0
10
14.26432
20
58.5642034943927
30
0
0
VERTEX
8
0
10
14.98112
20
59.8609892198625
30
0
0
VERTEX
8
0
10
15.69792
20
61.0709200037837
30
0
0
VERTEX
8
0
10
16.41472
20
62.1990450445071
30
0
0
VERTEX
8
0
10
17.13152
20
63.3671165202595
30
0
0
VERTEX
8
0
10
17.84832
20
64.3081880670658
30
0
0
VERTEX
8
0
10
18.56512
20
65.1911178859368
30
0
0
VERTEX
8
0
10
19.28192
20
66.0179614029728
30
0
0
VERTEX
8
0
10
19.99872
20
66.7910495970216
30
0
0
VERTEX
8
0
10
20.71552
20
67.5129100800214
30
0
0
VERTEX
8
0
10
21.43232
20
68.1862051423428
30
0
0
VERTEX
8
0
10
22.14912
20
68.813683121155
30
0
0
VERTEX
8
0
10
22.86592
20
69.3981401996211
30
0
0
VERTEX
8
0
10
23.58272
20
69.9423903648045
30
0
0
VERTEX
8
0
10
24.29952
20
70.4492417527544
30
0
0
VERTEX
8
0
10
25.01632
20
70.9214780092434
30
0
0
VERTEX
8
0
10
25.73312
20
71.3618436109815
30
0
0
VERTEX
8
0
10
26.44992
20
71.773032344458
30
0
0
VERTEX
8
0
10
27.16672
20
72.1484564745331
30
0
0
VERTEX
8
0
10
27.88352
20
72.5061447352158
30
0
0
VERTEX
8
0
10
28.60032
20
72.8423877393771
30
0
0
VERTEX
8
0
10
29.31712
20
73.1596571996042
30
0
0
VERTEX
8
0
10
30.03392
20
73.4603290733976
30
0
0
VERTEX
8
0
10
30.75072
20
73.7566109562269
30
0
0
VERTEX
8
0
10
31.46752
20
74.0275153473345
30
0
0
VERTEX
8
0
10
32.18432
20
74.2892915302453
30
0
0
VERTEX
8
0
10
32.90112
20
74.5438245445353
30
0
0
VERTEX
8
0
10
33.61792
20
74.7929750634428
30
0
0
VERTEX
8
0
10
34.33472
20
75.0385976904347
30
0
0
VERTEX
8
0
10
35.05152
20
75.2825754895827
30
0
0
VERTEX
8
0
10
35.76832
20
75.526887588175
30
0
0
VERTEX
8
0
10
36.48512
20
75.773758527292
30
0
0
VERTEX
8
0
10
37.20192
20
76.026089889442
30
0
0
VERTEX
8
0
10
37.91872
20
76.2887049206236
30
0
0
VERTEX
8
0
10
38.63552
20
76.561544262978
30
0
0
VERTEX
8
0
10
39.35232
20
76.8388737332644
30
0
0
VERTEX
8
0
10
40.06912
20
77.1175103969435
30
0
0
VERTEX
8
0
10
40.78592
20
77.3909097165255
30
0
0
VERTEX
8
0
10
41.50272
20
77.6656186982776
30
0
0
VERTEX
8
0
10
42.21952
20
77.9369341585107
30
0
0
VERTEX
8
0
10
42.93632
20
78.2039297855327
30
0
0
VERTEX
8
0
10
43.65312
20
78.4658348545765
30
0
0
VERTEX
8
0
10
44.36992
20
78.7231322275396
30
0
0
VERTEX
8
0
10
45.08672
20
78.9724193737842
30
0
0
VERTEX
8
0
10
45.80352
20
79.2150663517344
30
0
0
VERTEX
8
0
10
46.52032
20
79.4505883393211
30
0
0
VERTEX
8
0
10
47.2371199999999
20
79.6785001220644
30
0
0
VERTEX
8
0
10
47.9539199999999
20
79.8982756613657
30
0
0
VERTEX
8
0
10
48.6707199999999
20
80.1098062964384
30
0
0
VERTEX
8
0
10
49.3875199999999
20
80.3132132852246
30
0
0
VERTEX
8
0
10
50.1043199999999
20
80.5085176392294
30
0
0
VERTEX
8
0
10
50.8211199999999
20
80.695707719886
30
0
0
VERTEX
8
0
10
51.5379199999999
20
80.8747646862291
30
0
0
VERTEX
8
0
10
52.2547199999999
20
81.0456708690281
30
0
0
VERTEX
8
0
10
52.9715199999999
20
81.2084129507436
30
0
0
VERTEX
8
0
10
53.6883199999999
20
81.3629830671761
30
0
0
VERTEX
8
0
10
54.4051199999999
20
81.506967874195
30
0
0
VERTEX
8
0
10
55.1219199999999
20
81.6447985648505
30
0
0
VERTEX
8
0
10
55.8387199999999
20
81.7744682956844
30
0
0
VERTEX
8
0
10
56.5555199999999
20
81.8959923937574
30
0
0
VERTEX
8
0
10
57.2723199999999
20
82.0093881625481
30
0
0
VERTEX
8
0
10
57.9891199999999
20
82.1144075023478
30
0
0
VERTEX
8
0
10
58.7059199999999
20
82.2115437588465
30
0
0
VERTEX
8
0
10
59.4227199999999
20
82.3006482085103
30
0
0
VERTEX
8
0
10
60.1395199999999
20
82.3817246419299
30
0
0
VERTEX
8
0
10
60.8563199999999
20
82.4547707958954
30
0
0
VERTEX
8
0
10
61.5731199999999
20
82.5197749175254
30
0
0
VERTEX
8
0
10
62.2899199999999
20
82.5767111220955
30
0
0
VERTEX
8
0
10
63.0067199999999
20
82.6255328427524
30
0
0
VERTEX
8
0
10
63.7235199999999
20
82.6661631106659
30
0
0
VERTEX
8
0
10
64.4403199999999
20
82.6984792192383
30
0
0
VERTEX
8
0
10
65.1571199999999
20
82.7222865283707
30
0
0
VERTEX
8
0
10
65.8739199999999
20
82.7372685143948
30
0
0
VERTEX
8
0
10
66.5907199999999
20
82.7428745845203
30
0
0
VERTEX
8
0
10
67.3075199999999
20
82.7380056339715
30
0
0
VERTEX
8
0
10
68.0243199999999
20
82.7195433819541
30
0
0
VERTEX
8
0
10
68.7411199999999
20
82.6937232256874
30
0
0
VERTEX
8
0
10
69.4579199999999
20
82.6653115830379
30
0
0
VERTEX
8
0
10
70.1747199999999
20
82.6309533202809
30
0
0
VERTEX
8
0
10
70.8915199999999
20
82.5864977211984
30
0
0
VERTEX
8
0
10
71.6083199999999
20
82.5258927682192
30
0
0
VERTEX
8
0
10
72.3251199999999
20
82.462859666513
30
0
0
VERTEX
8
0
10
73.0419199999999
20
82.4154947905478
30
0
0
VERTEX
8
0
10
73.7587199999999
20
82.3785365383883
30
0
0
VERTEX
8
0
10
74.4755199999999
20
82.348107280276
30
0
0
VERTEX
8
0
10
75.1923199999999
20
82.3222515595591
30
0
0
VERTEX
8
0
10
75.9091199999998
20
82.2997979668382
30
0
0
VERTEX
8
0
10
76.6259199999999
20
82.2799606399073
30
0
0
VERTEX
8
0
10
77.3427199999998
20
82.2621737394637
30
0
0
VERTEX
8
0
10
78.0595199999999
20
82.2460099258924
30
0
0
VERTEX
8
0
10
78.7763199999998
20
82.231135221903
30
0
0
VERTEX
8
0
10
79.4931199999998
20
82.217281845694
30
0
0
VERTEX
8
0
10
80.2099199999998
20
82.2042308035728
30
0
0
VERTEX
8
0
10
80.9267199999998
20
82.1918001780346
30
0
0
VERTEX
8
0
10
81.6435199999998
20
82.1792544890847
30
0
0
VERTEX
8
0
10
82.3603199999998
20
82.1675515142281
30
0
0
VERTEX
8
0
10
83.0771199999998
20
82.1560760393777
30
0
0
VERTEX
8
0
10
83.7939199999998
20
82.1447321125125
30
0
0
VERTEX
8
0
10
84.5107199999998
20
82.1334363748558
30
0
0
VERTEX
8
0
10
85.2275199999998
20
82.1218779489461
30
0
0
VERTEX
8
0
10
85.9443199999998
20
82.1104997094433
30
0
0
VERTEX
8
0
10
86.6611199999998
20
82.0989797933502
30
0
0
VERTEX
8
0
10
87.3779199999998
20
82.0872679120864
30
0
0
VERTEX
8
0
10
88.0947199999998
20
82.0753194929924
30
0
0
VERTEX
8
0
10
88.8115199999998
20
82.0630949304911
30
0
0
VERTEX
8
0
10
89.5283199999998
20
82.050558955236
30
0
0
VERTEX
8
0
10
90.2451199999998
20
82.0376800988392
30
0
0
VERTEX
8
0
10
90.9619199999998
20
82.0244302368605
30
0
0
VERTEX
8
0
10
91.6787199999998
20
82.0107841964935
30
0
0
VERTEX
8
0
10
92.3955199999998
20
81.9967194182728
30
0
0
VERTEX
8
0
10
93.1123199999998
20
81.982215663299
30
0
0
VERTEX
8
0
10
93.8291199999998
20
81.9672547592049
30
0
0
VERTEX
8
0
10
94.5459199999998
20
81.9518203794298
30
0
0
VERTEX
8
0
10
95.2627199999998
20
81.9355994024183
30
0
0
VERTEX
8
0
10
95.9795199999998
20
81.9191395189775
30
0
0
VERTEX
8
0
10
96.6963199999998
20
81.9021678302214
30
0
0
VERTEX
8
0
10
97.4131199999998
20
81.8846738187142
30
0
0
VERTEX
8
0
10
98.1299199999998
20
81.86664807352
30
0
0
VERTEX
8
0
10
98.8467199999998
20
81.8479409570368
30
0
0
VERTEX
8
0
10
99.5635199999998
20
81.8288487669967
30
0
0
VERTEX
8
0
10
100.28032
20
81.8092030394519
30
0
0
VERTEX
8
0
10
100.99712
20
81.7889980263624
30
0
0
VERTEX
8
0
10
101.71392
20
81.7682289820933
30
0
0
VERTEX
8
0
10
102.43072
20
81.746892285027
30
0
0
VERTEX
8
0
10
103.14752
20
81.7249857038643
30
0
0
VERTEX
8
0
10
103.86432
20
81.7025089699546
30
0
0
VERTEX
8
0
10
104.58112
20
81.6794649723027
30
0
0
VERTEX
8
0
10
105.29792
20
81.6558605103678
30
0
0
VERTEX
8
0
10
106.01472
20
81.6316944869284
30
0
0
VERTEX
8
0
10
106.73152
20
81.6069407693296
30
0
0
VERTEX
8
0
10
107.44832
20
81.5815685883733
30
0
0
VERTEX
8
0
10
108.16512
20
81.5555554438552
30
0
0
VERTEX
8
0
10
108.88192
20
81.5287452848576
30
0
0
VERTEX
8
0
10
109.59872
20
81.5013923537149
30
0
0
VERTEX
8
0
10
110.31552
20
81.4733641344286
30
0
0
VERTEX
8
0
10
111.03232
20
81.444655365652
30
0
0
VERTEX
8
0
10
111.74912
20
81.4152631788794
30
0
0
VERTEX
8
0
10
112.46592
20
81.3851186821023
30
0
0
VERTEX
8
0
10
113.18272
20
81.3543713582929
30
0
0
VERTEX
8
0
10
113.89952
20
81.3229437231034
30
0
0
VERTEX
8
0
10
114.61632
20
81.2908404306382
30
0
0
VERTEX
8
0
10
115.33312
20
81.2580677802624
30
0
0
VERTEX
8
0
10
116.04992
20
81.2246336552702
30
0
0
VERTEX
8
0
10
116.76672
20
81.1905474753557
30
0
0
VERTEX
8
0
10
117.48352
20
81.1558201602245
30
0
0
VERTEX
8
0
10
118.20032
20
81.1204641025094
30
0
0
VERTEX
8
0
10
118.91712
20
81.0844931487234
30
0
0
VERTEX
8
0
10
119.63392
20
81.047922587384
30
0
0
VERTEX
8
0
10
120.35072
20
81.010769143758
30
0
0
VERTEX
8
0
10
121.06752
20
80.9730509809125
30
0
0
VERTEX
8
0
10
121.78432
20
80.9347877069787
30
0
0
VERTEX
8
0
10
122.50112
20
80.8959615168936
30
0
0
VERTEX
8
0
10
123.21792
20
80.85667112937
30
0
0
VERTEX
8
0
10
123.93472
20
80.8169040901281
30
0
0
VERTEX
8
0
10
124.65152
20
80.7766859532206
30
0
0
VERTEX
8
0
10
125.36832
20
80.7360438503808
30
0
0
VERTEX
8
0
10
126.08512
20
80.6949920268412
30
0
0
VERTEX
8
0
10
126.80192
20
80.6535935956339
30
0
0
VERTEX
8
0
10
127.51872
20
80.6118621457852
30
0
0
VERTEX
8
0
10
128.23552
20
80.5698318190477
30
0
0
VERTEX
8
0
10
128.95232
20
80.5275387763333
30
0
0
VERTEX
8
0
10
129.66912
20
80.485021356631
30
0
0
VERTEX
8
0
10
130.38592
20
80.4423202804916
30
0
0
VERTEX
8
0
10
131.10272
20
80.3994789167135
30
0
0
VERTEX
8
0
10
131.81952
20
80.3565436427505
30
0
0
VERTEX
8
0
10
132.53632
20
80.3135643518137
30
0
0
VERTEX
8
0
10
133.25312
20
80.2705952047118
30
0
0
VERTEX
8
0
10
133.96992
20
80.2276958166292
30
0
0
VERTEX
8
0
10
134.68672
20
80.1849332220146
30
0
0
VERTEX
8
0
10
135.40352
20
80.1423847699841
30
0
0
VERTEX
8
0
10
136.12032
20
80.1001376850067
30
0
0
VERTEX
8
0
10
136.83712
20
80.0582657635284
30
0
0
VERTEX
8
0
10
137.55392
20
80.0167975530884
30
0
0
VERTEX
8
0
10
138.27072
20
79.9757413182376
30
0
0
VERTEX
8
0
10
138.98752
20
79.9351142624684
30
0
0
VERTEX
8
0
10
139.70432
20
79.8949464180798
30
0
0
VERTEX
8
0
10
140.42112
20
79.8552795294358
30
0
0
VERTEX
8
0
10
141.13792
20
79.8161675719534
30
0
0
VERTEX
8
0
10
141.85472
20
79.7776796582757
30
0
0
VERTEX
8
0
10
142.57152
20
79.7399048776639
30
0
0
VERTEX
8
0
10
143.28832
20
79.7029485482874
30
0
0
VERTEX
8
0
10
144.00512
20
79.666880572221
30
0
0
VERTEX
8
0
10
144.72192
20
79.6316697129474
30
0
0
VERTEX
8
0
10
145.43872
20
79.5972327283425
30
0
0
VERTEX
8
0
10
146.15552
20
79.5634956898088
30
0
0
VERTEX
8
0
10
146.87232
20
79.530402267115
30
0
0
VERTEX
8
0
10
147.58912
20
79.4979085608383
30
0
0
VERTEX
8
0
10
148.30592
20
79.4659789033217
30
0
0
VERTEX
8
0
10
149.02272
20
79.4345833258508
30
0
0
VERTEX
8
0
10
149.73952
20
79.4036960158651
30
0
0
VERTEX
8
0
10
150.45632
20
79.3732943245046
30
0
0
VERTEX
8
0
10
151.17312
20
79.3433580930653
30
0
0
VERTEX
8
0
10
151.88992
20
79.3138691750685
30
0
0
VERTEX
8
0
10
152.60672
20
79.2848110847134
30
0
0
VERTEX
8
0
10
153.32352
20
79.2561687306095
30
0
0
VERTEX
8
0
10
154.04032
20
79.2279282091705
30
0
0
VERTEX
8
0
10
154.75712
20
79.2000766410159
30
0
0
VERTEX
8
0
10
155.47392
20
79.1726020391772
30
0
0
VERTEX
8
0
10
156.19072
20
79.1454932013303
30
0
0
VERTEX
8
0
10
156.90752
20
79.1187396205317
30
0
0
VERTEX
8
0
10
157.62432
20
79.0923314104359
30
0
0
VERTEX
8
0
10
158.34112
20
79.0662592420047
30
0
0
VERTEX
8
0
10
159.05792
20
79.0405142894682
30
0
0
VERTEX
8
0
10
159.77472
20
79.0150881838039
30
0
0
VERTEX
8
0
10
160.49152
20
78.9899729723986
30
0
0
VERTEX
8
0
10
161.20832
20
78.9651610838401
30
0
0
VERTEX
8
0
10
161.92512
20
78.9406452969983
30
0
0
SEQEND
8
0
0
POLYLINE
8
0
62
4
70
0
10
0
20
0
30
0
0
VERTEX
8
0
10
2.79552
20
24.7230844012799
30
0
0
VERTEX
8
0
10
3.51232
20
29.1118439707455
30
0
0
VERTEX
8
0
10
4.22912
20
32.4335630160714
30
0
0
VERTEX
8
0
10
4.94592
20
35.637741890927
30
0
0
VERTEX
8
0
10
5.66272
20
37.6356912607879
30
0
0
VERTEX
8
0
10
6.37952
20
39.9034858474586
30
0
0
VERTEX
8
0
10
7.09632
20
41.9649740811812
30
0
0
VERTEX
8
0
10
7.81312
20
44.0737925424118
30
0
0
VERTEX
8
0
10
8.52992
20
45.7842362878352
30
0
0
VERTEX
8
0
10
9.24672
20
47.5912590845808
30
0
0
VERTEX
8
0
10
9.96352
20
49.1074826565875
30
0
0
VERTEX
8
0
10
10.68032
20
50.5365056823944
30
0
0
VERTEX
8
0
10
11.39712
20
51.9303720591482
30
0
0
VERTEX
8
0
10
12.11392
20
53.300447258656
30
0
0
VERTEX
8
0
10
12.83072
20
54.4777400183125
30
0
0
VERTEX
8
0
10
13.54752
20
55.6572795932526
30
0
0
VERTEX
8
0
10
14.26432
20
56.8248401353882
30
0
0
VERTEX
8
0
10
14.98112
20
57.9461638576234
30
0
0
VERTEX
8
0
10
15.69792
20
59.0286737793885
30
0
0
VERTEX
8
0
10
16.41472
20
60.0802455377634
30
0
0
VERTEX
8
0
10
17.13152
20
61.0953000765446
30
0
0
VERTEX
8
0
10
17.84832
20
62.0207215854226
30
0
0
VERTEX
8
0
10
18.56512
20
62.9164949399545
30
0
0
VERTEX
8
0
10
19.28192
20
63.7898350447247
30
0
0
VERTEX
8
0
10
19.99872
20
64.6416426308648
30
0
0
VERTEX
8
0
10
20.71552
20
65.3877057120508
30
0
0
VERTEX
8
0
10
21.43232
20
66.1301287785337
30
0
0
VERTEX
8
0
10
22.14912
20
66.8468219907265
30
0
0
VERTEX
8
0
10
22.86592
20
67.5130871617906
30
0
0
VERTEX
8
0
10
23.58272
20
68.1340990542664
30
0
0
VERTEX
8
0
10
24.29952
20
68.7403651370659
30
0
0
VERTEX
8
0
10
25.01632
20
69.3324152242236
30
0
0
VERTEX
8
0
10
25.73312
20
69.8585238595762
30
0
0
VERTEX
8
0
10
26.44992
20
70.3627973204768
30
0
0
VERTEX
8
0
10
27.16672
20
70.8501641697265
30
0
0
VERTEX
8
0
10
27.88352
20
71.3302959730516
30
0
0
VERTEX
8
0
10
28.60032
20
71.7620275854699
30
0
0
VERTEX
8
0
10
29.31712
20
72.1892162917624
30
0
0
VERTEX
8
0
10
30.03392
20
72.6053239741093
30
0
0
VERTEX
8
0
10
30.75072
20
73.0097228482977
30
0
0
VERTEX
8
0
10
31.46752
20
73.3745297020666
30
0
0
VERTEX
8
0
10
32.18432
20
73.7435747481887
30
0
0
VERTEX
8
0
10
32.90112
20
74.1091682639846
30
0
0
VERTEX
8
0
10
33.61792
20
74.4490680115006
30
0
0
VERTEX
8
0
10
34.33472
20
74.7791170623253
30
0
0
VERTEX
8
0
10
35.05152
20
75.1056132385168
30
0
0
VERTEX
8
0
10
35.76832
20
75.4281574211674
30
0
0
VERTEX
8
0
10
36.48512
20
75.7258046971271
30
0
0
VERTEX
8
0
10
37.20192
20
76.0226128483119
30
0
0
VERTEX
8
0
10
37.91872
20
76.3203008409738
30
0
0
VERTEX
8
0
10
38.63552
20
76.6151288584663
30
0
0
VERTEX
8
0
10
39.35232
20
76.8930477717322
30
0
0
VERTEX
8
0
10
40.06912
20
77.1726663864226
30
0
0
VERTEX
8
0
10
40.78592
20
77.4421558810743
30
0
0
VERTEX
8
0
10
41.50272
20
77.7110740443574
30
0
0
VERTEX
8
0
10
42.21952
20
77.9764814463071
30
0
0
VERTEX
8
0
10
42.93632
20
78.2386649118662
30
0
0
VERTEX
8
0
10
43.65312
20
78.4975120417965
30
0
0
VERTEX
8
0
10
44.36992
20
78.7461172898365
30
0
0
VERTEX
8
0
10
45.08672
20
78.9937009086416
30
0
0
VERTEX
8
0
10
45.80352
20
79.2291174419323
30
0
0
VERTEX
8
0
10
46.52032
20
79.4611941245884
30
0
0
VERTEX
8
0
10
47.2371199999999
20
79.6748346733501
30
0
0
VERTEX
8
0
10
47.9539199999999
20
79.8887883465309
30
0
0
VERTEX
8
0
10
48.6707199999999
20
80.0951078911434
30
0
0
VERTEX
8
0
10
49.3875199999999
20
80.2975935171531
30
0
0
VERTEX
8
0
10
50.1043199999999
20
80.4957934234145
30
0
0
VERTEX
8
0
10
50.8211199999999
20
80.6802666166235
30
0
0
VERTEX
8
0
10
51.5379199999999
20
80.8561871806172
30
0
0
VERTEX
8
0
10
52.2547199999999
20
81.0352327216804
30
0
0
VERTEX
8
0
10
52.9715199999999
20
81.2100264831184
30
0
0
VERTEX
8
0
10
53.6883199999999
20
81.3639028322747
30
0
0
VERTEX
8
0
10
54.4051199999999
20
81.5120243345327
30
0
0
VERTEX
8
0
10
55.1219199999999
20
81.6553024799169
30
0
0
VERTEX
8
0
10
55.8387199999999
20
81.7947696321281
30
0
0
VERTEX
8
0
10
56.5555199999999
20
81.9075807537168
30
0
0
VERTEX
8
0
10
57.2723199999999
20
82.022276331366
30
0
0
VERTEX
8
0
10
57.9891199999999
20
82.1321104679171
30
0
0
VERTEX
8
0
10
58.7059199999999
20
82.2273332574974
30
0
0
VERTEX
8
0
10
59.4227199999999
20
82.3115148052085
30
0
0
VERTEX
8
0
10
60.1395199999999
20
82.3951093657575
30
0
0
VERTEX
8
0
10
60.8563199999999
20
82.4745154815179
30
0
0
VERTEX
8
0
10
61.5731199999999
20
82.5169295548881
30
0
0
VERTEX
8
0
10
62.2899199999999
20
82.5532588504329
30
0
0
VERTEX
8
0
10
63.0067199999999
20
82.5918237507596
30
0
0
VERTEX
8
0
10
63.7235199999999
20
82.624731696435
30
0
0
VERTEX
8
0
10
64.4403199999999
20
82.6292841181198
30
0
0
VERTEX
8
0
10
65.1571199999999
20
82.6311267263842
30
0
0
VERTEX
8
0
10
65.8739199999999
20
82.6264343089165
30
0
0
VERTEX
8
0
10
66.5907199999999
20
82.608051117315
30
0
0
VERTEX
8
0
10
67.3075199999999
20
82.5787919923977
30
0
0
VERTEX
8
0
10
68.0243199999999
20
82.548518712662
30
0
0
VERTEX
8
0
10
68.7411199999999
20
82.5158727142666
30
0
0
VERTEX
8
0
10
69.4579199999999
20
82.477647490492
30
0
0
VERTEX
8
0
10
70.1747199999999
20
82.4362640696857
30
0
0
VERTEX
8
0
10
70.8915199999999
20
82.3964237892413
30
0
0
VERTEX
8
0
10
71.6083199999999
20
82.3525814008332
30
0
0
VERTEX
8
0
10
72.3251199999999
20
82.2958732950433
30
0
0
VERTEX
8
0
10
73.0419199999999
20
82.244196090349
30
0
0
VERTEX
8
0
10
73.7587199999999
20
82.1951499212954
30
0
0
VERTEX
8
0
10
74.4755199999999
20
82.1484304556742
30
0
0
VERTEX
8
0
10
75.1923199999999
20
82.103713459186
30
0
0
VERTEX
8
0
10
75.9091199999998
20
82.0641485503519
30
0
0
VERTEX
8
0
10
76.6259199999999
20
82.0248670576807
30
0
0
VERTEX
8
0
10
77.3427199999998
20
81.9879391102771
30
0
0
VERTEX
8
0
10
78.0595199999999
20
81.950828525357
30
0
0
VERTEX
8
0
10
78.7763199999998
20
81.9208033584539
30
0
0
VERTEX
8
0
10
79.4931199999998
20
81.8888362047628
30
0
0
VERTEX
8
0
10
80.2099199999998
20
81.8529304861075
30
0
0
VERTEX
8
0
10
80.9267199999998
20
81.8166764359033
30
0
0
VERTEX
8
0
10
81.6435199999998
20
81.7858003467852
30
0
0
VERTEX
8
0
10
82.3603199999998
20
81.7523522762897
30
0
0
VERTEX
8
0
10
83.0771199999998
20
81.7285030394884
30
0
0
VERTEX
8
0
10
83.7939199999998
20
81.7004655429076
30
0
0
VERTEX
8
0
10
84.5107199999998
20
81.6715928734473
30
0
0
VERTEX
8
0
10
85.2275199999998
20
81.6436662259225
30
0
0
VERTEX
8
0
10
85.9443199999998
20
81.615790311807
30
0
0
VERTEX
8
0
10
86.6611199999998
20
81.5906506490032
30
0
0
VERTEX
8
0
10
87.3779199999998
20
81.5643005558338
30
0
0
VERTEX
8
0
10
88.0947199999998
20
81.5437004195062
30
0
0
VERTEX
8
0
10
88.8115199999998
20
81.5216066053464
30
0
0
VERTEX
8
0
10
89.5283199999998
20
81.5106585416865
30
0
0
VERTEX
8
0
10
90.2451199999998
20
81.4951734838182
30
0
0
VERTEX
8
0
10
90.9619199999998
20
81.4740090058187
30
0
0
VERTEX
8
0
10
91.6787199999998
20
81.4564764418999
30
0
0
VERTEX
8
0
10
92.3955199999998
20
81.4391268174202
30
0
0
VERTEX
8
0
10
93.1123199999998
20
81.4227200704288
30
0
0
VERTEX
8
0
10
93.8291199999998
20
81.4060880943796
30
0
0
VERTEX
8
0
10
94.5459199999998
20
81.3831353012182
30
0
0
VERTEX
8
0
10
95.2627199999998
20
81.3594409863082
30
0
0
VERTEX
8
0
10
95.9795199999998
20
81.3376773836216
30
0
0
VERTEX
8
0
10
96.6963199999998
20
81.3149633830728
30
0
0
VERTEX
8
0
10
97.4131199999998
20
81.2969947975905
30
0
0
VERTEX
8
0
10
98.1299199999998
20
81.276667424277
30
0
0
VERTEX
8
0
10
98.8467199999998
20
81.2586500784543
30
0
0
VERTEX
8
0
10
99.5635199999998
20
81.2404746580018
30
0
0
VERTEX
8
0
10
100.28032
20
81.2220842845352
30
0
0
VERTEX
8
0
10
100.99712
20
81.20232447751
30
0
0
VERTEX
8
0
10
101.71392
20
81.1814961539462
30
0
0
VERTEX
8
0
10
102.43072
20
81.1638450590096
30
0
0
VERTEX
8
0
10
103.14752
20
81.1453584614308
30
0
0
VERTEX
8
0
10
103.86432
20
81.1260662419209
30
0
0
VERTEX
8
0
10
104.58112
20
81.1059788706559
30
0
0
VERTEX
8
0
10
105.29792
20
81.0863995561802
30
0
0
VERTEX
8
0
10
106.01472
20
81.0657249414496
30
0
0
VERTEX
8
0
10
106.73152
20
81.045288301756
30
0
0
VERTEX
8
0
10
107.44832
20
81.02137070687
30
0
0
VERTEX
8
0
10
108.16512
20
80.9952942198255
30
0
0
VERTEX
8
0
10
108.88192
20
80.9688620403309
30
0
0
VERTEX
8
0
10
109.59872
20
80.9420806163991
30
0
0
VERTEX
8
0
10
110.31552
20
80.9173176605441
30
0
0
VERTEX
8
0
10
111.03232
20
80.8919694213726
30
0
0
VERTEX
8
0
10
111.74912
20
80.8637815098726
30
0
0
VERTEX
8
0
10
112.46592
20
80.8347058757048
30
0
0
VERTEX
8
0
10
113.18272
20
80.8074362970702
30
0
0
VERTEX
8
0
10
113.89952
20
80.7789823535772
30
0
0
VERTEX
8
0
10
114.61632
20
80.758239276898
30
0
0
VERTEX
8
0
10
115.33312
20
80.7350798027858
30
0
0
VERTEX
8
0
10
116.04992
20
80.7112353146295
30
0
0
VERTEX
8
0
10
116.76672
20
80.6867193662401
30
0
0
VERTEX
8
0
10
117.48352
20
80.6615459808913
30
0
0
VERTEX
8
0
10
118.20032
20
80.6374006964138
30
0
0
VERTEX
8
0
10
118.91712
20
80.6128087202685
30
0
0
VERTEX
8
0
10
119.63392
20
80.586949489224
30
0
0
VERTEX
8
0
10
120.35072
20
80.5604065473077
30
0
0
VERTEX
8
0
10
121.06752
20
80.5366326564808
30
0
0
VERTEX
8
0
10
121.78432
20
80.5116863652789
30
0
0
VERTEX
8
0
10
122.50112
20
80.4870106977868
30
0
0
VERTEX
8
0
10
123.21792
20
80.4611820768955
30
0
0
VERTEX
8
0
10
123.93472
20
80.4343932413343
30
0
0
VERTEX
8
0
10
124.65152
20
80.4070957425243
30
0
0
VERTEX
8
0
10
125.36832
20
80.3793088834659
30
0
0
VERTEX
8
0
10
126.08512
20
80.3525708123655
30
0
0
VERTEX
8
0
10
126.80192
20
80.3256766134149
30
0
0
VERTEX
8
0
10
127.51872
20
80.298932284668
30
0
0
VERTEX
8
0
10
128.23552
20
80.271885119149
30
0
0
VERTEX
8
0
10
128.95232
20
80.2423528492927
30
0
0
VERTEX
8
0
10
129.66912
20
80.2127407039468
30
0
0
VERTEX
8
0
10
130.38592
20
80.1899892448507
30
0
0
VERTEX
8
0
10
131.10272
20
80.1659493493481
30
0
0
VERTEX
8
0
10
131.81952
20
80.1415854744925
30
0
0
VERTEX
8
0
10
132.53632
20
80.1169219862365
30
0
0
VERTEX
8
0
10
133.25312
20
80.0889390276075
30
0
0
VERTEX
8
0
10
133.96992
20
80.063081197866
30
0
0
VERTEX
8
0
10
134.68672
20
80.0373704544543
30
0
0
VERTEX
8
0
10
135.40352
20
80.0077002830527
30
0
0
VERTEX
8
0
10
136.12032
20
79.9768223534462
30
0
0
VERTEX
8
0
10
136.83712
20
79.9438792116383
30
0
0
VERTEX
8
0
10
137.55392
20
79.9110275014378
30
0
0
VERTEX
8
0
10
138.27072
20
79.8788456254441
30
0
0
VERTEX
8
0
10
138.98752
20
79.8465379747562
30
0
0
VERTEX
8
0
10
139.70432
20
79.815425103886
30
0
0
VERTEX
8
0
10
140.42112
20
79.7839199218409
30
0
0
VERTEX
8
0
10
141.13792
20
79.7619087175728
30
0
0
VERTEX
8
0
10
141.85472
20
79.7415628068755
30
0
0
VERTEX
8
0
10
142.57152
20
79.7227944633786
30
0
0
VERTEX
8
0
10
143.28832
20
79.7020786725583
30
0
0
VERTEX
8
0
10
144.00512
20
79.6806569812137
30
0
0
VERTEX
8
0
10
144.72192
20
79.6556573874937
30
0
0
VERTEX
8
0
10
145.43872
20
79.6308868371308
30
0
0
VERTEX
8
0
10
146.15552
20
79.6040859913123
30
0
0
VERTEX
8
0
10
146.87232
20
79.5774289293986
30
0
0
VERTEX
8
0
10
147.58912
20
79.5496663689175
30
0
0
VERTEX
8
0
10
148.30592
20
79.5222798341921
30
0
0
VERTEX
8
0
10
149.02272
20
79.5012176785584
30
0
0
VERTEX
8
0
10
149.73952
20
79.4785458888627
30
0
0
VERTEX
8
0
10
150.45632
20
79.4559186003304
30
0
0
VERTEX
8
0
10
151.17312
20
79.4302421349045
30
0
0
VERTEX
8
0
10
151.88992
20
79.4031254740086
30
0
0
VERTEX
8
0
10
152.60672
20
79.3836103159769
30
0
0
VERTEX
8
0
10
153.32352
20
79.3641432696324
30
0
0
VERTEX
8
0
10
154.04032
20
79.34599869032
30
0
0
VERTEX
8
0
10
154.75712
20
79.3279003420414
30
0
0
VERTEX
8
0
10
155.47392
20
79.304345843416
30
0
0
VERTEX
8
0
10
156.19072
20
79.2821487693553
30
0
0
VERTEX
8
0
10
156.90752
20
79.2667153893601
30
0
0
VERTEX
8
0
10
157.62432
20
79.2486921968803
30
0
0
VERTEX
8
0
10
158.34112
20
79.230085804677
30
0
0
VERTEX
8
0
10
159.05792
20
79.2099194132365
30
0
0
VERTEX
8
0
10
159.77472
20
79.1888146624956
30
0
0
VERTEX
8
0
10
160.49152
20
79.1752411151513
30
0
0
VERTEX
8
0
10
161.20832
20
79.1621207281504
30
0
0
VERTEX
8
0
10
161.92512
20
79.1444759292469
30
0
0
SEQEND
8
0
0
POLYLINE
8
0
62
2
70
0
10
0
20
0
30
0
0
VERTEX
8
0
10
2.79552
20
16.1072022720022
30
0
0
VERTEX
8
0
10
3.51232
20
25.7837423700044
30
0
0
VERTEX
8
0
10
4.22912
20
26.9078819207686
30
0
0
VERTEX
8
0
10
4.94592
20
28.2519648955925
30
0
0
VERTEX
8
0
10
5.66272
20
29.7704083025245
30
0
0
VERTEX
8
0
10
6.37952
20
31.3843178977468
30
0
0
VERTEX
8
0
10
7.09632
20
33.0203518868252
30
0
0
VERTEX
8
0
10
7.81312
20
34.6239594493637
30
0
0
VERTEX
8
0
10
8.52992
20
36.1594355413943
30
0
0
VERTEX
8
0
10
9.24672
20
37.6055761155278
30
0
0
VERTEX
8
0
10
9.96352
20
38.9510978511166
30
0
0
VERTEX
8
0
10
10.68032
20
40.1911086217092
30
0
0
VERTEX
8
0
10
11.39712
20
41.3247001282903
30
0
0
VERTEX
8
0
10
12.11392
20
42.3533943178567
30
0
0
VERTEX
8
0
10
12.83072
20
43.2801645549611
30
0
0
VERTEX
8
0
10
13.54752
20
44.1109939018638
30
0
0
VERTEX
8
0
10
14.26432
20
44.8139325953238
30
0
0
VERTEX
8
0
10
14.98112
20
45.4289662392359
30
0
0
VERTEX
8
0
10
15.69792
20
45.961286453556
30
0
0
VERTEX
8
0
10
16.41472
20
46.4157898736382
30
0
0
VERTEX
8
0
10
17.13152
20
46.9647723851701
30
0
0
VERTEX
8
0
10
17.84832
20
47.2257742667834
30
0
0
VERTEX
8
0
10
18.56512
20
47.4349046878842
30
0
0
VERTEX
8
0
10
19.28192
20
47.593541844016
30
0
0
VERTEX
8
0
10
19.99872
20
47.7034170060016
30
0
0
VERTEX
8
0
10
20.71552
20
47.7665293613193
30
0
0
VERTEX
8
0
10
21.43232
20
47.7850789946602
30
0
0
VERTEX
8
0
10
22.14912
20
47.7614143971181
30
0
0
VERTEX
8
0
10
22.86592
20
47.6979915409914
30
0
0
VERTEX
8
0
10
23.58272
20
47.5973421309479
30
0
0
VERTEX
8
0
10
24.29952
20
47.4620491279079
30
0
0
VERTEX
8
0
10
25.01632
20
47.2947280447763
30
0
0
VERTEX
8
0
10
25.73312
20
47.0980128411398
30
0
0
VERTEX
8
0
10
26.44992
20
46.8745455138532
30
0
0
VERTEX
8
0
10
27.16672
20
46.6202098338517
30
0
0
VERTEX
8
0
10
27.88352
20
46.3470711797607
30
0
0
VERTEX
8
0
10
28.60032
20
46.0549909626071
30
0
0
VERTEX
8
0
10
29.31712
20
45.7466782900968
30
0
0
VERTEX
8
0
10
30.03392
20
45.4248095515802
30
0
0
VERTEX
8
0
10
30.75072
20
45.1132859937596
30
0
0
VERTEX
8
0
10
31.46752
20
44.7660383072467
30
0
0
VERTEX
8
0
10
32.18432
20
44.4145421624756
30
0
0
VERTEX
8
0
10
32.90112
20
44.0612245958452
30
0
0
VERTEX
8
0
10
33.61792
20
43.7086010774033
30
0
0
VERTEX
8
0
10
34.33472
20
43.3593126845878
30
0
0
VERTEX
8
0
10
35.05152
20
43.0161928926521
30
0
0
VERTEX
8
0
10
35.76832
20
42.6823956874957
30
0
0
VERTEX
8
0
10
36.48512
20
42.3616760285103
30
0
0
VERTEX
8
0
10
37.20192
20
42.0591950066041
30
0
0
VERTEX
8
0
10
37.91872
20
41.7838815497297
30
0
0
VERTEX
8
0
10
38.63552
20
41.5364423887113
30
0
0
VERTEX
8
0
10
39.35232
20
41.3074813753435
30
0
0
VERTEX
8
0
10
40.06912
20
41.0920217215569
30
0
0
VERTEX
8
0
10
40.78592
20
40.883247154811
30
0
0
VERTEX
8
0
10
41.50272
20
40.6852092221107
30
0
0
VERTEX
8
0
10
42.21952
20
40.4938108668932
30
0
0
VERTEX
8
0
10
42.93632
20
40.307810376804
30
0
0
VERTEX
8
0
10
43.65312
20
40.126205212952
30
0
0
VERTEX
8
0
10
44.36992
20
39.9539897402719
30
0
0
VERTEX
8
0
10
45.08672
20
39.7771447365182
30
0
0
VERTEX
8
0
10
45.80352
20
39.6029459263319
30
0
0
VERTEX
8
0
10
46.52032
20
39.430861648695
30
0
0
VERTEX
8
0
10
47.2371199999999
20
39.26043530723
30
0
0
VERTEX
8
0
10
47.9539199999999
20
39.091273168734
30
0
0
VERTEX
8
0
10
48.6707199999999
20
38.923034715199
30
0
0
VERTEX
8
0
10
49.3875199999999
20
38.7554248668498
30
0
0
VERTEX
8
0
10
50.1043199999999
20
38.5881876060667
30
0
0
VERTEX
8
0
10
50.8211199999999
20
38.4211006685376
30
0
0
VERTEX
8
0
10
51.5379199999999
20
38.2539710588054
30
0
0
VERTEX
8
0
10
52.2547199999999
20
38.0866312083835
30
0
0
VERTEX
8
0
10
52.9715199999999
20
37.9189356369428
30
0
0
VERTEX
8
0
10
53.6883199999999
20
37.7507580060929
30
0
0
VERTEX
8
0
10
54.4051199999999
20
37.5798877937135
30
0
0
VERTEX
8
0
10
55.1219199999999
20
37.4098675760785
30
0
0
VERTEX
8
0
10
55.8387199999999
20
37.2390508257319
30
0
0
VERTEX
8
0
10
56.5555199999999
20
37.0673728726812
30
0
0
VERTEX
8
0
10
57.2723199999999
20
36.8947754230991
30
0
0
VERTEX
8
0
10
57.9891199999999
20
36.7228558572797
30
0
0
VERTEX
8
0
10
58.7059199999999
20
36.5477304099332
30
0
0
VERTEX
8
0
10
59.4227199999999
20
36.3716468763747
30
0
0
VERTEX
8
0
10
60.1395199999999
20
36.1945336179802
30
0
0
VERTEX
8
0
10
60.8563199999999
20
36.0163124376993
30
0
0
VERTEX
8
0
10
61.5731199999999
20
35.8368932408209
30
0
0
VERTEX
8
0
10
62.2899199999999
20
35.6561666441911
30
0
0
VERTEX
8
0
10
63.0067199999999
20
35.4739931677641
30
0
0
VERTEX
8
0
10
63.7235199999999
20
35.2901864552015
30
0
0
VERTEX
8
0
10
64.4403199999999
20
35.1044853676385
30
0
0
VERTEX
8
0
10
65.1571199999999
20
34.9165034536744
30
0
0
VERTEX
8
0
10
65.8739199999999
20
34.7256264781943
30
0
0
VERTEX
8
0
10
66.5907199999999
20
34.5307677599089
30
0
0
VERTEX
8
0
10
67.3075199999999
20
34.3296441544412
30
0
0
VERTEX
8
0
10
68.0243199999999
20
34.1168399810081
30
0
0
VERTEX
8
0
10
68.7411199999999
20
33.9045889002114
30
0
0
VERTEX
8
0
10
69.4579199999999
20
33.7070880479134
30
0
0
VERTEX
8
0
10
70.1747199999999
20
33.5194965048224
30
0
0
VERTEX
8
0
10
70.8915199999999
20
33.3386180529564
30
0
0
VERTEX
8
0
10
71.6083199999999
20
33.1632983345462
30
0
0
VERTEX
8
0
10
72.3251199999999
20
32.9915959076248
30
0
0
VERTEX
8
0
10
73.0419199999999
20
32.8235005591025
30
0
0
VERTEX
8
0
10
73.7587199999999
20
32.6585611085277
30
0
0
VERTEX
8
0
10
74.4755199999999
20
32.4964381532116
30
0
0
VERTEX
8
0
10
75.1923199999999
20
32.3368674837388
30
0
0
VERTEX
8
0
10
75.9091199999998
20
32.1796381464768
30
0
0
VERTEX
8
0
10
76.6259199999999
20
32.0245784295932
30
0
0
VERTEX
8
0
10
77.3427199999998
20
31.8715464547346
30
0
0
VERTEX
8
0
10
78.0595199999999
20
31.7204236017124
30
0
0
VERTEX
8
0
10
78.7763199999998
20
31.5711097576335
30
0
0
VERTEX
8
0
10
79.4931199999998
20
31.4235197864834
30
0
0
VERTEX
8
0
10
80.2099199999998
20
31.2775808417294
30
0
0
VERTEX
8
0
10
80.9267199999998
20
31.1332302773941
30
0
0
VERTEX
8
0
10
81.6435199999998
20
30.9899022266642
30
0
0
VERTEX
8
0
10
82.3603199999998
20
30.8484700600709
30
0
0
VERTEX
8
0
10
83.0771199999998
20
30.7084809741905
30
0
0
VERTEX
8
0
10
83.7939199999998
20
30.5699005703347
30
0
0
VERTEX
8
0
10
84.5107199999998
20
30.4326988170779
30
0
0
VERTEX
8
0
10
85.2275199999998
20
30.2969625594923
30
0
0
VERTEX
8
0
10
85.9443199999998
20
30.1623897988045
30
0
0
VERTEX
8
0
10
86.6611199999998
20
30.0291411590236
30
0
0
VERTEX
8
0
10
87.3779199999998
20
29.8971969647589
30
0
0
VERTEX
8
0
10
88.0947199999998
20
29.7665396810675
30
0
0
VERTEX
8
0
10
88.8115199999998
20
29.6371536011968
30
0
0
VERTEX
8
0
10
89.5283199999998
20
29.509024570821
30
0
0
VERTEX
8
0
10
90.2451199999998
20
29.3821397435059
30
0
0
VERTEX
8
0
10
90.9619199999998
20
29.2564873632107
30
0
0
VERTEX
8
0
10
91.6787199999998
20
29.1320565704769
30
0
0
VERTEX
8
0
10
92.3955199999998
20
29.0088372296702
30
0
0
VERTEX
8
0
10
93.1123199999998
20
28.886819775227
30
0
0
VERTEX
8
0
10
93.8291199999998
20
28.765995075383
30
0
0
VERTEX
8
0
10
94.5459199999998
20
28.6463543123367
30
0
0
VERTEX
8
0
10
95.2627199999998
20
28.5276284530461
30
0
0
VERTEX
8
0
10
95.9795199999998
20
28.4102828110146
30
0
0
VERTEX
8
0
10
96.6963199999998
20
28.294094613859
30
0
0
VERTEX
8
0
10
97.4131199999998
20
28.179055892559
30
0
0
VERTEX
8
0
10
98.1299199999998
20
28.0651586019531
30
0
0
VERTEX
8
0
10
98.8467199999998
20
27.9524125126594
30
0
0
VERTEX
8
0
10
99.5635199999998
20
27.8407571807238
30
0
0
VERTEX
8
0
10
100.28032
20
27.7302248757077
30
0
0
VERTEX
8
0
10
100.99712
20
27.6208069752189
30
0
0
VERTEX
8
0
10
101.71392
20
27.5124954019448
30
0
0
VERTEX
8
0
10
102.43072
20
27.4052831210111
30
0
0
VERTEX
8
0
10
103.14752
20
27.2991650646879
30
0
0
VERTEX
8
0
10
103.86432
20
27.1941399835474
30
0
0
VERTEX
8
0
10
104.58112
20
27.0902142322658
30
0
0
VERTEX
8
0
10
105.29792
20
26.9874046120921
30
0
0
VERTEX
8
0
10
106.01472
20
26.8857047417984
30
0
0
VERTEX
8
0
10
106.73152
20
26.7850344479154
30
0
0
VERTEX
8
0
10
107.44832
20
26.6852981168862
30
0
0
VERTEX
8
0
10
108.16512
20
26.586421702882
30
0
0
VERTEX
8
0
10
108.88192
20
26.488226458562
30
0
0
VERTEX
8
0
10
109.59872
20
26.390887613302
30
0
0
VERTEX
8
0
10
110.31552
20
26.2942627294856
30
0
0
VERTEX
8
0
10
111.03232
20
26.1983166548494
30
0
0
VERTEX
8
0
10
111.74912
20
26.1030184362271
30
0
0
VERTEX
8
0
10
112.46592
20
26.0083361902194
30
0
0
VERTEX
8
0
10
113.18272
20
25.9142504320845
30
0
0
VERTEX
8
0
10
113.89952
20
25.8207409437736
30
0
0
VERTEX
8
0
10
114.61632
20
25.7277879433296
30
0
0
VERTEX
8
0
10
115.33312
20
25.6353738527424
30
0
0
VERTEX
8
0
10
116.04992
20
25.5434831444188
30
0
0
VERTEX
8
0
10
116.76672
20
25.4521022236163
30
0
0
VERTEX
8
0
10
117.48352
20
25.3612193392579
30
0
0
VERTEX
8
0
10
118.20032
20
25.270824517929
30
0
0
VERTEX
8
0
10
118.91712
20
25.1809095174827
30
0
0
VERTEX
8
0
10
119.63392
20
25.0914677978436
30
0
0
VERTEX
8
0
10
120.35072
20
25.0024945074635
30
0
0
VERTEX
8
0
10
121.06752
20
24.91398648458
30
0
0
VERTEX
8
0
10
121.78432
20
24.8259422730136
30
0
0
VERTEX
8
0
10
122.50112
20
24.7383290955395
30
0
0
VERTEX
8
0
10
123.21792
20
24.6512123262334
30
0
0
VERTEX
8
0
10
123.93472
20
24.5645663061569
30
0
0
VERTEX
8
0
10
124.65152
20
24.4783969178934
30
0
0
VERTEX
8
0
10
125.36832
20
24.3927120592033
30
0
0
VERTEX
8
0
10
126.08512
20
24.3075190922763
30
0
0
VERTEX
8
0
10
126.80192
20
24.222835710982
30
0
0
VERTEX
8
0
10
127.51872
20
24.1386744720741
30
0
0
VERTEX
8
0
10
128.23552
20
24.0550529103099
30
0
0
VERTEX
8
0
10
128.95232
20
23.971991693405
30
0
0
VERTEX
8
0
10
129.66912
20
23.8895150485514
30
0
0
VERTEX
8
0
10
130.38592
20
23.807651323095
30
0
0
VERTEX
8
0
10
131.10272
20
23.7264337403191
30
0
0
VERTEX
8
0
10
131.81952
20
23.6459014516115
30
0
0
VERTEX
8
0
10
132.53632
20
23.5661010631975
30
0
0
VERTEX
8
0
10
133.25312
20
23.487088971361
30
0
0
VERTEX
8
0
10
133.96992
20
23.4089351630335
30
0
0
VERTEX
8
0
10
134.68672
20
23.3317296975765
30
0
0
VERTEX
8
0
10
135.40352
20
23.2555926049379
30
0
0
VERTEX
8
0
10
136.12032
20
23.1806735079728
30
0
0
VERTEX
8
0
10
136.83712
20
23.1070758109572
30
0
0
VERTEX
8
0
10
137.55392
20
23.0347498274098
30
0
0
VERTEX
8
0
10
138.27072
20
22.9635714842915
30
0
0
VERTEX
8
0
10
138.98752
20
22.8934355497686
30
0
0
VERTEX
8
0
10
139.70432
20
22.824264144289
30
0
0
VERTEX
8
0
10
140.42112
20
22.7559975815006
30
0
0
VERTEX
8
0
10
141.13792
20
22.6885878704729
30
0
0
VERTEX
8
0
10
141.85472
20
22.6219949656501
30
0
0
VERTEX
8
0
10
142.57152
20
22.5561845312397
30
0
0
VERTEX
8
0
10
143.28832
20
22.4911265230334
30
0
0
VERTEX
8
0
10
144.00512
20
22.4267942369491
30
0
0
VERTEX
8
0
10
144.72192
20
22.3631636410443
30
0
0
VERTEX
8
0
10
145.43872
20
22.3002128891443
30
0
0
VERTEX
8
0
10
146.15552
20
22.2379219560465
30
0
0
VERTEX
8
0
10
146.87232
20
22.176272357104
30
0
0
VERTEX
8
0
10
147.58912
20
22.1152469281621
30
0
0
VERTEX
8
0
10
148.30592
20
22.0548296497716
30
0
0
VERTEX
8
0
10
149.02272
20
21.9950055046027
30
0
0
VERTEX
8
0
10
149.73952
20
21.9357603602273
30
0
0
VERTEX
8
0
10
150.45632
20
21.8770808716089
30
0
0
VERTEX
8
0
10
151.17312
20
21.8189543991281
30
0
0
VERTEX
8
0
10
151.88992
20
21.7613689390143
30
0
0
VERTEX
8
0
10
152.60672
20
21.7043130638019
30
0
0
VERTEX
8
0
10
153.32352
20
21.6477758709721
30
0
0
VERTEX
8
0
10
154.04032
20
21.5917469383411
30
0
0
VERTEX
8
0
10
154.75712
20
21.5362162850616
30
0
0
VERTEX
8
0
10
155.47392
20
21.4811743373254
30
0
0
VERTEX
8
0
10
156.19072
20
21.4266118980395
30
0
0
VERTEX
8
0
10
156.90752
20
21.3725201198772
30
0
0
VERTEX
8
0
10
157.62432
20
21.3188904812183
30
0
0
VERTEX
8
0
10
158.34112
20
21.2657147645747
30
0
0
VERTEX
8
0
10
159.05792
20
21.2129850371654
30
0
0
VERTEX
8
0
10
159.77472
20
21.1606936333621
30
0
0
VERTEX
8
0
10
160.49152
20
21.1088331387673
30
0
0
VERTEX
8
0
10
161.20832
20
21.0573963757269
30
0
0
VERTEX
8
0
10
161.92512
20
21.0063763901041
30
0
0
SEQEND
8
0
0
POLYLINE
8
0
62
3
70
0
10
0
20
0
30
0
0
VERTEX
8
0
10
2.79552
20
18.5469181072938
30
0
0
VERTEX
8
0
10
3.51232
20
28.1600327863689
30
0
0
VERTEX
8
0
10
4.22912
20
30.0479980167163
30
0
0
VERTEX
8
0
10
4.94592
20
32.1493901098538
30
0
0
VERTEX
8
0
10
5.66272
20
34.3983718754749
30
0
0
VERTEX
8
0
10
6.37952
20
36.71068835717
30
0
0
VERTEX
8
0
10
7.09632
20
39.0150458605551
30
0
0
VERTEX
8
0
10
7.81312
20
41.2611436568618
30
0
0
VERTEX
8
0
10
8.52992
20
43.4173423227359
30
0
0
VERTEX
8
0
10
9.24672
20
45.4656203944197
30
0
0
VERTEX
8
0
10
9.96352
20
47.3969970502986
30
0
0
VERTEX
8
0
10
10.68032
20
49.2082020791391
30
0
0
VERTEX
8
0
10
11.39712
20
50.8994731561032
30
0
0
VERTEX
8
0
10
12.11392
20
52.4731612653474
30
0
0
VERTEX
8
0
10
12.83072
20
53.9328636604789
30
0
0
VERTEX
8
0
10
13.54752
20
55.2723237238594
30
0
0
VERTEX
8
0
10
14.26432
20
56.4907754418299
30
0
0
VERTEX
8
0
10
14.98112
20
57.610635366326
30
0
0
VERTEX
8
0
10
15.69792
20
58.6372783767341
30
0
0
VERTEX
8
0
10
16.41472
20
59.575819983775
30
0
0
VERTEX
8
0
10
17.13152
20
60.5535322002778
30
0
0
VERTEX
8
0
10
17.84832
20
61.2911293495709
30
0
0
VERTEX
8
0
10
18.56512
20
61.9648596340181
30
0
0
VERTEX
8
0
10
19.28192
20
62.5768464911519
30
0
0
VERTEX
8
0
10
19.99872
20
63.1295078788147
30
0
0
VERTEX
8
0
10
20.71552
20
63.6254780983642
30
0
0
VERTEX
8
0
10
21.43232
20
64.0675465315243
30
0
0
VERTEX
8
0
10
22.14912
20
64.4586096709172
30
0
0
VERTEX
8
0
10
22.86592
20
64.8016335577564
30
0
0
VERTEX
8
0
10
23.58272
20
65.0996243501153
30
0
0
VERTEX
8
0
10
24.29952
20
65.3556052396328
30
0
0
VERTEX
8
0
10
25.01632
20
65.5725983312877
30
0
0
VERTEX
8
0
10
25.73312
20
65.7536104158206
30
0
0
VERTEX
8
0
10
26.44992
20
65.9016218169841
30
0
0
VERTEX
8
0
10
27.16672
20
66.009498313883
30
0
0
VERTEX
8
0
10
27.88352
20
66.0969937012694
30
0
0
VERTEX
8
0
10
28.60032
20
66.160205896098
30
0
0
VERTEX
8
0
10
29.31712
20
66.2019969042611
30
0
0
VERTEX
8
0
10
30.03392
20
66.2251563552291
30
0
0
VERTEX
8
0
10
30.75072
20
66.2434544526926
30
0
0
VERTEX
8
0
10
31.46752
20
66.2337617600354
30
0
0
VERTEX
8
0
10
32.18432
20
66.2143649677952
30
0
0
VERTEX
8
0
10
32.90112
20
66.1876460600194
30
0
0
VERTEX
8
0
10
33.61792
20
66.155988280805
30
0
0
VERTEX
8
0
10
34.33472
20
66.1217964364022
30
0
0
VERTEX
8
0
10
35.05152
20
66.0875358732947
30
0
0
VERTEX
8
0
10
35.76832
20
66.0558098304269
30
0
0
VERTEX
8
0
10
36.48512
20
66.0295319277062
30
0
0
VERTEX
8
0
10
37.20192
20
66.012426949848
30
0
0
VERTEX
8
0
10
37.91872
20
66.0104808335011
30
0
0
VERTEX
8
0
10
38.63552
20
66.0240843814534
30
0
0
VERTEX
8
0
10
39.35232
20
66.0470127250338
30
0
0
VERTEX
8
0
10
40.06912
20
66.0759204147013
30
0
0
VERTEX
8
0
10
40.78592
20
66.1034701284601
30
0
0
VERTEX
8
0
10
41.50272
20
66.1375964092274
30
0
0
VERTEX
8
0
10
42.21952
20
66.1730694294152
30
0
0
VERTEX
8
0
10
42.93632
20
66.2090488398424
30
0
0
VERTEX
8
0
10
43.65312
20
66.2448617002148
30
0
0
VERTEX
8
0
10
44.36992
20
66.2813115294126
30
0
0
VERTEX
8
0
10
45.08672
20
66.3145818827596
30
0
0
VERTEX
8
0
10
45.80352
20
66.3465192881015
30
0
0
VERTEX
8
0
10
46.52032
20
66.3767881236692
30
0
0
VERTEX
8
0
10
47.2371199999999
20
66.4051076849819
30
0
0
VERTEX
8
0
10
47.9539199999999
20
66.431243504259
30
0
0
VERTEX
8
0
10
48.6707199999999
20
66.4550004424211
30
0
0
VERTEX
8
0
10
49.3875199999999
20
66.4762170887535
30
0
0
VERTEX
8
0
10
50.1043199999999
20
66.4947611465169
30
0
0
VERTEX
8
0
10
50.8211199999999
20
66.5105255753568
30
0
0
VERTEX
8
0
10
51.5379199999999
20
66.5234253232609
30
0
0
VERTEX
8
0
10
52.2547199999999
20
66.5333945227385
30
0
0
VERTEX
8
0
10
52.9715199999999
20
66.5403840552059
30
0
0
VERTEX
8
0
10
53.6883199999999
20
66.5443594079736
30
0
0
VERTEX
8
0
10
54.4051199999999
20
66.5423455017444
30
0
0
VERTEX
8
0
10
55.1219199999999
20
66.5397496430587
30
0
0
VERTEX
8
0
10
55.8387199999999
20
66.5341075797974
30
0
0
VERTEX
8
0
10
56.5555199999999
20
66.5254310016741
30
0
0
VERTEX
8
0
10
57.2723199999999
20
66.5137372779928
30
0
0
VERTEX
8
0
10
57.9891199999999
20
66.4987193380299
30
0
0
VERTEX
8
0
10
58.7059199999999
20
66.4809886241739
30
0
0
VERTEX
8
0
10
59.4227199999999
20
66.4603688641049
30
0
0
VERTEX
8
0
10
60.1395199999999
20
66.4368764336293
30
0
0
VERTEX
8
0
10
60.8563199999999
20
66.4105258246382
30
0
0
VERTEX
8
0
10
61.5731199999999
20
66.381326740974
30
0
0
VERTEX
8
0
10
62.2899199999999
20
66.3492801758
30
0
0
VERTEX
8
0
10
63.0067199999999
20
66.3143727754584
30
0
0
VERTEX
8
0
10
63.7235199999999
20
66.2765681905587
30
0
0
VERTEX
8
0
10
64.4403199999999
20
66.2357927881427
30
0
0
VERTEX
8
0
10
65.1571199999999
20
66.1919098607494
30
0
0
VERTEX
8
0
10
65.8739199999999
20
66.1446673541828
30
0
0
VERTEX
8
0
10
66.5907199999999
20
66.0935729434026
30
0
0
VERTEX
8
0
10
67.3075199999999
20
66.0375246753847
30
0
0
VERTEX
8
0
10
68.0243199999999
20
65.973007994666
30
0
0
VERTEX
8
0
10
68.7411199999999
20
65.9084359949928
30
0
0
VERTEX
8
0
10
69.4579199999999
20
65.8507602111341
30
0
0
VERTEX
8
0
10
70.1747199999999
20
65.7974836115005
30
0
0
VERTEX
8
0
10
70.8915199999999
20
65.7469341101343
30
0
0
VERTEX
8
0
10
71.6083199999999
20
65.6978792329197
30
0
0
VERTEX
8
0
10
72.3251199999999
20
65.6506772344107
30
0
0
VERTEX
8
0
10
73.0419199999999
20
65.6045832420648
30
0
0
VERTEX
8
0
10
73.7587199999999
20
65.5593689312004
30
0
0
VERTEX
8
0
10
74.4755199999999
20
65.5148659071976
30
0
0
VERTEX
8
0
10
75.1923199999999
20
65.4709462650337
30
0
0
VERTEX
8
0
10
75.9091199999998
20
65.4275108764357
30
0
0
VERTEX
8
0
10
76.6259199999999
20
65.384481869898
30
0
0
VERTEX
8
0
10
77.3427199999998
20
65.3417975553981
30
0
0
VERTEX
8
0
10
78.0595199999999
20
65.2994088577513
30
0
0
VERTEX
8
0
10
78.7763199999998
20
65.2572767248244
30
0
0
VERTEX
8
0
10
79.4931199999998
20
65.2153701902452
30
0
0
VERTEX
8
0
10
80.2099199999998
20
65.1736648899431
30
0
0
VERTEX
8
0
10
80.9267199999998
20
65.1321419022225
30
0
0
VERTEX
8
0
10
81.6435199999998
20
65.0900514628842
30
0
0
VERTEX
8
0
10
82.3603199999998
20
65.0487559942369
30
0
0
VERTEX
8
0
10
83.0771199999998
20
65.0076123909941
30
0
0
VERTEX
8
0
10
83.7939199999998
20
64.9666162527146
30
0
0
VERTEX
8
0
10
84.5107199999998
20
64.9257653388536
30
0
0
VERTEX
8
0
10
85.2275199999998
20
64.8847578832465
30
0
0
VERTEX
8
0
10
85.9443199999998
20
64.8442361674132
30
0
0
VERTEX
8
0
10
86.6611199999998
20
64.803866460483
30
0
0
VERTEX
8
0
10
87.3779199999998
20
64.763651305706
30
0
0
VERTEX
8
0
10
88.0947199999998
20
64.7235941282928
30
0
0
VERTEX
8
0
10
88.8115199999998
20
64.6836990556286
30
0
0
VERTEX
8
0
10
89.5283199999998
20
64.6439707588979
30
0
0
VERTEX
8
0
10
90.2451199999998
20
64.6044143131638
30
0
0
VERTEX
8
0
10
90.9619199999998
20
64.5650350735505
30
0
0
VERTEX
8
0
10
91.6787199999998
20
64.5258385656147
30
0
0
VERTEX
8
0
10
92.3955199999998
20
64.4868303883757
30
0
0
VERTEX
8
0
10
93.1123199999998
20
64.4480161287871
30
0
0
VERTEX
8
0
10
93.8291199999998
20
64.4094012866981
30
0
0
VERTEX
8
0
10
94.5459199999998
20
64.3709912096034
30
0
0
VERTEX
8
0
10
95.2627199999998
20
64.3324109238998
30
0
0
VERTEX
8
0
10
95.9795199999998
20
64.2943794936391
30
0
0
VERTEX
8
0
10
96.6963199999998
20
64.2565691548086
30
0
0
VERTEX
8
0
10
97.4131199999998
20
64.2189843093159
30
0
0
VERTEX
8
0
10
98.1299199999998
20
64.1816290038054
30
0
0
VERTEX
8
0
10
98.8467199999998
20
64.1443266893629
30
0
0
VERTEX
8
0
10
99.5635199999998
20
64.1074681985952
30
0
0
VERTEX
8
0
10
100.28032
20
64.0708499565648
30
0
0
VERTEX
8
0
10
100.99712
20
64.0344745127479
30
0
0
VERTEX
8
0
10
101.71392
20
63.9983443315326
30
0
0
VERTEX
8
0
10
102.43072
20
63.9624620047608
30
0
0
VERTEX
8
0
10
103.14752
20
63.9268306436323
30
0
0
VERTEX
8
0
10
103.86432
20
63.8914546572429
30
0
0
VERTEX
8
0
10
104.58112
20
63.8563413239651
30
0
0
VERTEX
8
0
10
105.29792
20
63.821501794948
30
0
0
VERTEX
8
0
10
106.01472
20
63.7869360210769
30
0
0
VERTEX
8
0
10
106.73152
20
63.7526108297516
30
0
0
VERTEX
8
0
10
107.44832
20
63.7184860318624
30
0
0
VERTEX
8
0
10
108.16512
20
63.6845309684788
30
0
0
VERTEX
8
0
10
108.88192
20
63.6505428916289
30
0
0
VERTEX
8
0
10
109.59872
20
63.6168435528244
30
0
0
VERTEX
8
0
10
110.31552
20
63.5832584086694
30
0
0
VERTEX
8
0
10
111.03232
20
63.5497749230302
30
0
0
VERTEX
8
0
10
111.74912
20
63.5163826816343
30
0
0
VERTEX
8
0
10
112.46592
20
63.4829856951131
30
0
0
VERTEX
8
0
10
113.18272
20
63.4497669972166
30
0
0
VERTEX
8
0
10
113.89952
20
63.4166177609776
30
0
0
VERTEX
8
0
10
114.61632
20
63.3835335360144
30
0
0
VERTEX
8
0
10
115.33312
20
63.3505110764036
30
0
0
VERTEX
8
0
10
116.04992
20
63.3175482642213
30
0
0
VERTEX
8
0
10
116.76672
20
63.2846440489475
30
0
0
VERTEX
8
0
10
117.48352
20
63.251798399346
30
0
0
VERTEX
8
0
10
118.20032
20
63.2190122654696
30
0
0
VERTEX
8
0
10
118.91712
20
63.1862875491502
30
0
0
VERTEX
8
0
10
119.63392
20
63.1536270818268
30
0
0
VERTEX
8
0
10
120.35072
20
63.1210346089461
30
0
0
VERTEX
8
0
10
121.06752
20
63.0885147804521
30
0
0
VERTEX
8
0
10
121.78432
20
63.056073147137
30
0
0
VERTEX
8
0
10
122.50112
20
63.0236662677136
30
0
0
VERTEX
8
0
10
123.21792
20
62.9913992802949
30
0
0
VERTEX
8
0
10
123.93472
20
62.9592336194214
30
0
0
VERTEX
8
0
10
124.65152
20
62.92717847441
30
0
0
VERTEX
8
0
10
125.36832
20
62.8952440028855
30
0
0
VERTEX
8
0
10
126.08512
20
62.8634227337709
30
0
0
VERTEX
8
0
10
126.80192
20
62.8317688046214
30
0
0
VERTEX
8
0
10
127.51872
20
62.8002716213167
30
0
0
VERTEX
8
0
10
128.23552
20
62.7689457687518
30
0
0
VERTEX
8
0
10
128.95232
20
62.7378071697256
30
0
0
VERTEX
8
0
10
129.66912
20
62.7068732312475
30
0
0
VERTEX
8
0
10
130.38592
20
62.6761630392856
30
0
0
VERTEX
8
0
10
131.10272
20
62.6456976240981
30
0
0
VERTEX
8
0
10
131.81952
20
62.6155003330204
30
0
0
VERTEX
8
0
10
132.53632
20
62.5855973756938
30
0
0
VERTEX
8
0
10
133.25312
20
62.556018663561
30
0
0
VERTEX
8
0
10
133.96992
20
62.5267991823028
30
0
0
VERTEX
8
0
10
134.68672
20
62.497981330061
30
0
0
VERTEX
8
0
10
135.40352
20
62.4696184064132
30
0
0
VERTEX
8
0
10
136.12032
20
62.4417737656193
30
0
0
VERTEX
8
0
10
136.83712
20
62.4144905654994
30
0
0
VERTEX
8
0
10
137.55392
20
62.3877504992199
30
0
0
VERTEX
8
0
10
138.27072
20
62.3615052187185
30
0
0
VERTEX
8
0
10
138.98752
20
62.3357129572301
30
0
0
VERTEX
8
0
10
139.70432
20
62.3103422592501
30
0
0
VERTEX
8
0
10
140.42112
20
62.2853686244608
30
0
0
VERTEX
8
0
10
141.13792
20
62.2607720664858
30
0
0
VERTEX
8
0
10
141.85472
20
62.2365356923495
30
0
0
VERTEX
8
0
10
142.57152
20
62.21264485108
30
0
0
VERTEX
8
0
10
143.28832
20
62.1890865910924
30
0
0
VERTEX
8
0
10
144.00512
20
62.165849294494
30
0
0
VERTEX
8
0
10
144.72192
20
62.1429224191735
30
0
0
VERTEX
8
0
10
145.43872
20
62.1202963101469
30
0
0
VERTEX
8
0
10
146.15552
20
62.0979620574018
30
0
0
VERTEX
8
0
10
146.87232
20
62.0759113861064
30
0
0
VERTEX
8
0
10
147.58912
20
62.0541365700376
30
0
0
VERTEX
8
0
10
148.30592
20
62.0326303620904
30
0
0
VERTEX
8
0
10
149.02272
20
62.0113859376388
30
0
0
VERTEX
8
0
10
149.73952
20
61.9903968477425
30
0
0
VERTEX
8
0
10
150.45632
20
61.9696569800269
30
0
0
VERTEX
8
0
10
151.17312
20
61.949160525632
30
0
0
VERTEX
8
0
10
151.88992
20
61.9289019510211
30
0
0
VERTEX
8
0
10
152.60672
20
61.9088759737311
30
0
0
VERTEX
8
0
10
153.32352
20
61.889077541349
30
0
0
VERTEX
8
0
10
154.04032
20
61.8695018131604
30
0
0
VERTEX
8
0
10
154.75712
20
61.8501441440214
30
0
0
VERTEX
8
0
10
155.47392
20
61.8310000701093
30
0
0
VERTEX
8
0
10
156.19072
20
61.8120652962552
30
0
0
VERTEX
8
0
10
156.90752
20
61.7933356846338
30
0
0
VERTEX
8
0
10
157.62432
20
61.7748072446162
30
0
0
VERTEX
8
0
10
158.34112
20
61.7564761236223
30
0
0
VERTEX
8
0
10
159.05792
20
61.7383385988503
30
0
0
VERTEX
8
0
10
159.77472
20
61.7203910697615
30
0
0
VERTEX
8
0
10
160.49152
20
61.7026300512354
30
0
0
VERTEX
8
0
10
161.20832
20
61.68505216731
30
0
0
VERTEX
8
0
10
161.92512
20
61.6676541454433
30
0
0
SEQEND
8
0
0
POLYLINE
8
0
62
4
70
0
10
0
20
0
30
0
0
VERTEX
8
0
10
2.79552
20
24.4397224881542
30
0
0
VERTEX
8
0
10
3.51232
20
28.7456509049809
30
0
0
VERTEX
8
0
10
4.22912
20
31.9678352096493
30
0
0
VERTEX
8
0
10
4.94592
20
35.0669363110528
30
0
0
VERTEX
8
0
10
5.66272
20
36.9344934669523
30
0
0
VERTEX
8
0
10
6.37952
20
39.0920986191319
30
0
0
VERTEX
8
0
10
7.09632
20
41.0299491496188
30
0
0
VERTEX
8
0
10
7.81312
20
43.0123785059367
30
0
0
VERTEX
8
0
10
8.52992
20
44.5892199247723
30
0
0
VERTEX
8
0
10
9.24672
20
46.2653415723304
30
0
0
VERTEX
8
0
10
9.96352
20
47.6388107263213
30
0
0
VERTEX
8
0
10
10.68032
20
48.9185009768619
30
0
0
VERTEX
8
0
10
11.39712
20
50.1732046508466
30
0
0
VERTEX
8
0
10
12.11392
20
51.4010996413803
30
0
0
VERTEX
8
0
10
12.83072
20
52.4260586825709
30
0
0
VERTEX
8
0
10
13.54752
20
53.4502393044692
30
0
0
VERTEX
8
0
10
14.26432
20
54.4583709309604
30
0
0
VERTEX
8
0
10
14.98112
20
55.4157158835774
30
0
0
VERTEX
8
0
10
15.69792
20
56.3298731118085
30
0
0
VERTEX
8
0
10
16.41472
20
57.2166390511933
30
0
0
VERTEX
8
0
10
17.13152
20
58.0683093081487
30
0
0
VERTEX
8
0
10
17.84832
20
58.823644454812
30
0
0
VERTEX
8
0
10
18.56512
20
59.5456780348569
30
0
0
VERTEX
8
0
10
19.28192
20
60.2426702733356
30
0
0
VERTEX
8
0
10
19.99872
20
60.9151643579065
30
0
0
VERTEX
8
0
10
20.71552
20
61.4736176211957
30
0
0
VERTEX
8
0
10
21.43232
20
62.0263445859892
30
0
0
VERTEX
8
0
10
22.14912
20
62.5573431742236
30
0
0
VERTEX
8
0
10
22.86592
20
63.0316532495625
30
0
0
VERTEX
8
0
10
23.58272
20
63.4559693354071
30
0
0
VERTEX
8
0
10
24.29952
20
63.8615058040813
30
0
0
VERTEX
8
0
10
25.01632
20
64.249056311258
30
0
0
VERTEX
8
0
10
25.73312
20
64.5640582658323
30
0
0
VERTEX
8
0
10
26.44992
20
64.8540136962454
30
0
0
VERTEX
8
0
10
27.16672
20
65.1236791122624
30
0
0
VERTEX
8
0
10
27.88352
20
65.3841624606429
30
0
0
VERTEX
8
0
10
28.60032
20
65.5906857509308
30
0
0
VERTEX
8
0
10
29.31712
20
65.7911261069541
30
0
0
VERTEX
8
0
10
30.03392
20
65.9802795577527
30
0
0
VERTEX
8
0
10
30.75072
20
66.1555180069313
30
0
0
VERTEX
8
0
10
31.46752
20
66.286318632071
30
0
0
VERTEX
8
0
10
32.18432
20
66.4211514268772
30
0
0
VERTEX
8
0
10
32.90112
20
66.5480056442469
30
0
0
VERTEX
8
0
10
33.61792
20
66.646988382183
30
0
0
VERTEX
8
0
10
34.33472
20
66.7346047879047
30
0
0
VERTEX
8
0
10
35.05152
20
66.8166425021721
30
0
0
VERTEX
8
0
10
35.76832
20
66.8937752940181
30
0
0
VERTEX
8
0
10
36.48512
20
66.9428081589752
30
0
0
VERTEX
8
0
10
37.20192
20
66.9909547780197
30
0
0
VERTEX
8
0
10
37.91872
20
67.0362571450656
30
0
0
VERTEX
8
0
10
38.63552
20
67.0790012567145
30
0
0
VERTEX
8
0
10
39.35232
20
67.1028350796518
30
0
0
VERTEX
8
0
10
40.06912
20
67.1291317833858
30
0
0
VERTEX
8
0
10
40.78592
20
67.1499924139616
30
0
0
VERTEX
8
0
10
41.50272
20
67.1694412206278
30
0
0
VERTEX
8
0
10
42.21952
20
67.185850060111
30
0
0
VERTEX
8
0
10
42.93632
20
67.1996676150701
30
0
0
VERTEX
8
0
10
43.65312
20
67.2108763825642
30
0
0
VERTEX
8
0
10
44.36992
20
67.2114941431151
30
0
0
VERTEX
8
0
10
45.08672
20
67.2123852689046
30
0
0
VERTEX
8
0
10
45.80352
20
67.2106878197191
30
0
0
VERTEX
8
0
10
46.52032
20
67.2064007307597
30
0
0
VERTEX
8
0
10
47.2371199999999
20
67.1822350440835
30
0
0
VERTEX
8
0
10
47.9539199999999
20
67.1604159958973
30
0
0
VERTEX
8
0
10
48.6707199999999
20
67.1361634006307
30
0
0
VERTEX
8
0
10
49.3875199999999
20
67.1082658839825
30
0
0
VERTEX
8
0
10
50.1043199999999
20
67.0774441519293
30
0
0
VERTEX
8
0
10
50.8211199999999
20
67.0442552420621
30
0
0
VERTEX
8
0
10
51.5379199999999
20
67.0087205412671
30
0
0
VERTEX
8
0
10
52.2547199999999
20
66.9795564252492
30
0
0
VERTEX
8
0
10
52.9715199999999
20
66.9479054048139
30
0
0
VERTEX
8
0
10
53.6883199999999
20
66.9138930373999
30
0
0
VERTEX
8
0
10
54.4051199999999
20
66.8757934641361
30
0
0
VERTEX
8
0
10
55.1219199999999
20
66.8347484178745
30
0
0
VERTEX
8
0
10
55.8387199999999
20
66.7920289614593
30
0
0
VERTEX
8
0
10
56.5555199999999
20
66.7471207072122
30
0
0
VERTEX
8
0
10
57.2723199999999
20
66.7011254386428
30
0
0
VERTEX
8
0
10
57.9891199999999
20
66.6523617977407
30
0
0
VERTEX
8
0
10
58.7059199999999
20
66.602975974005
30
0
0
VERTEX
8
0
10
59.4227199999999
20
66.5515390029423
30
0
0
VERTEX
8
0
10
60.1395199999999
20
66.5027451652328
30
0
0
VERTEX
8
0
10
60.8563199999999
20
66.4521474682832
30
0
0
VERTEX
8
0
10
61.5731199999999
20
66.3995864063667
30
0
0
VERTEX
8
0
10
62.2899199999999
20
66.345111134186
30
0
0
VERTEX
8
0
10
63.0067199999999
20
66.296838059065
30
0
0
VERTEX
8
0
10
63.7235199999999
20
66.2449460142106
30
0
0
VERTEX
8
0
10
64.4403199999999
20
66.191225364357
30
0
0
VERTEX
8
0
10
65.1571199999999
20
66.1311393173034
30
0
0
VERTEX
8
0
10
65.8739199999999
20
66.0661854023798
30
0
0
VERTEX
8
0
10
66.5907199999999
20
65.9996440446434
30
0
0
VERTEX
8
0
10
67.3075199999999
20
65.9315691969024
30
0
0
VERTEX
8
0
10
68.0243199999999
20
65.8653334426673
30
0
0
VERTEX
8
0
10
68.7411199999999
20
65.7992205460687
30
0
0
VERTEX
8
0
10
69.4579199999999
20
65.7324775566465
30
0
0
VERTEX
8
0
10
70.1747199999999
20
65.6651866417838
30
0
0
VERTEX
8
0
10
70.8915199999999
20
65.6028309361517
30
0
0
VERTEX
8
0
10
71.6083199999999
20
65.5383085920887
30
0
0
VERTEX
8
0
10
72.3251199999999
20
65.473982664457
30
0
0
VERTEX
8
0
10
73.0419199999999
20
65.4138521075977
30
0
0
VERTEX
8
0
10
73.7587199999999
20
65.3572537055845
30
0
0
VERTEX
8
0
10
74.4755199999999
20
65.3000840487664
30
0
0
VERTEX
8
0
10
75.1923199999999
20
65.2423637768917
30
0
0
VERTEX
8
0
10
75.9091199999998
20
65.1914640121
30
0
0
VERTEX
8
0
10
76.6259199999999
20
65.1412719675865
30
0
0
VERTEX
8
0
10
77.3427199999998
20
65.0905074770623
30
0
0
VERTEX
8
0
10
78.0595199999999
20
65.0391914159038
30
0
0
VERTEX
8
0
10
78.7763199999998
20
64.9972389314068
30
0
0
VERTEX
8
0
10
79.4931199999998
20
64.9532870543326
30
0
0
VERTEX
8
0
10
80.2099199999998
20
64.908769349657
30
0
0
VERTEX
8
0
10
80.9267199999998
20
64.8637064770779
30
0
0
VERTEX
8
0
10
81.6435199999998
20
64.8258666885983
30
0
0
VERTEX
8
0
10
82.3603199999998
20
64.7852311586042
30
0
0
VERTEX
8
0
10
83.0771199999998
20
64.7440681739028
30
0
0
VERTEX
8
0
10
83.7939199999998
20
64.7023976387095
30
0
0
VERTEX
8
0
10
84.5107199999998
20
64.6602392332772
30
0
0
VERTEX
8
0
10
85.2275199999998
20
64.617256775074
30
0
0
VERTEX
8
0
10
85.9443199999998
20
64.5742441901585
30
0
0
VERTEX
8
0
10
86.6611199999998
20
64.5353090871846
30
0
0
VERTEX
8
0
10
87.3779199999998
20
64.4954697161853
30
0
0
VERTEX
8
0
10
88.0947199999998
20
64.4552010447772
30
0
0
VERTEX
8
0
10
88.8115199999998
20
64.4145211754709
30
0
0
VERTEX
8
0
10
89.5283199999998
20
64.3886576447893
30
0
0
VERTEX
8
0
10
90.2451199999998
20
64.3577685539666
30
0
0
VERTEX
8
0
10
90.9619199999998
20
64.3264429798897
30
0
0
VERTEX
8
0
10
91.6787199999998
20
64.2986189181501
30
0
0
VERTEX
8
0
10
92.3955199999998
20
64.2717185004731
30
0
0
VERTEX
8
0
10
93.1123199999998
20
64.2443972149905
30
0
0
VERTEX
8
0
10
93.8291199999998
20
64.2166706309229
30
0
0
VERTEX
8
0
10
94.5459199999998
20
64.1816555704001
30
0
0
VERTEX
8
0
10
95.2627199999998
20
64.1464242438512
30
0
0
VERTEX
8
0
10
95.9795199999998
20
64.1111135813027
30
0
0
VERTEX
8
0
10
96.6963199999998
20
64.0754997376029
30
0
0
VERTEX
8
0
10
97.4131199999998
20
64.0466608111997
30
0
0
VERTEX
8
0
10
98.1299199999998
20
64.015581593192
30
0
0
VERTEX
8
0
10
98.8467199999998
20
63.9840152751381
30
0
0
VERTEX
8
0
10
99.5635199999998
20
63.9541415124029
30
0
0
VERTEX
8
0
10
100.28032
20
63.9247687785676
30
0
0
VERTEX
8
0
10
100.99712
20
63.8951147076311
30
0
0
VERTEX
8
0
10
101.71392
20
63.8651901697909
30
0
0
VERTEX
8
0
10
102.43072
20
63.8400654572089
30
0
0
VERTEX
8
0
10
103.14752
20
63.8146375036316
30
0
0
VERTEX
8
0
10
103.86432
20
63.7889405969137
30
0
0
VERTEX
8
0
10
104.58112
20
63.7629839768042
30
0
0
VERTEX
8
0
10
105.29792
20
63.7384211037409
30
0
0
VERTEX
8
0
10
106.01472
20
63.7132077989299
30
0
0
VERTEX
8
0
10
106.73152
20
63.6877492593307
30
0
0
VERTEX
8
0
10
107.44832
20
63.6589061861925
30
0
0
VERTEX
8
0
10
108.16512
20
63.6280480197015
30
0
0
VERTEX
8
0
10
108.88192
20
63.5968552856568
30
0
0
VERTEX
8
0
10
109.59872
20
63.5655799611971
30
0
0
VERTEX
8
0
10
110.31552
20
63.5375949515803
30
0
0
VERTEX
8
0
10
111.03232
20
63.5095777283477
30
0
0
VERTEX
8
0
10
111.74912
20
63.4813541880316
30
0
0
VERTEX
8
0
10
112.46592
20
63.4528438637991
30
0
0
VERTEX
8
0
10
113.18272
20
63.4273012720766
30
0
0
VERTEX
8
0
10
113.89952
20
63.400907822502
30
0
0
VERTEX
8
0
10
114.61632
20
63.3743155623499
30
0
0
VERTEX
8
0
10
115.33312
20
63.3475304564424
30
0
0
VERTEX
8
0
10
116.04992
20
63.3205586689813
30
0
0
VERTEX
8
0
10
116.76672
20
63.2934065641547
30
0
0
VERTEX
8
0
10
117.48352
20
63.2660807067491
30
0
0
VERTEX
8
0
10
118.20032
20
63.2407186016128
30
0
0
VERTEX
8
0
10
118.91712
20
63.2154280896182
30
0
0
VERTEX
8
0
10
119.63392
20
63.1899728224739
30
0
0
VERTEX
8
0
10
120.35072
20
63.1643601751236
30
0
0
VERTEX
8
0
10
121.06752
20
63.1428765678574
30
0
0
VERTEX
8
0
10
121.78432
20
63.1204814068909
30
0
0
VERTEX
8
0
10
122.50112
20
63.097899245835
30
0
0
VERTEX
8
0
10
123.21792
20
63.0745934819601
30
0
0
VERTEX
8
0
10
123.93472
20
63.0506080591207
30
0
0
VERTEX
8
0
10
124.65152
20
63.0265034979096
30
0
0
VERTEX
8
0
10
125.36832
20
63.0022885311617
30
0
0
VERTEX
8
0
10
126.08512
20
62.979909294155
30
0
0
VERTEX
8
0
10
126.80192
20
62.9578118556609
30
0
0
VERTEX
8
0
10
127.51872
20
62.9356206131935
30
0
0
VERTEX
8
0
10
128.23552
20
62.9133451744994
30
0
0
VERTEX
8
0
10
128.95232
20
62.8883322008808
30
0
0
VERTEX
8
0
10
129.66912
20
62.8636320607395
30
0
0
VERTEX
8
0
10
130.38592
20
62.8388878066028
30
0
0
VERTEX
8
0
10
131.10272
20
62.8141098791909
30
0
0
VERTEX
8
0
10
131.81952
20
62.7893089283342
30
0
0
VERTEX
8
0
10
132.53632
20
62.7644958133864
30
0
0
VERTEX
8
0
10
133.25312
20
62.739681603345
30
0
0
VERTEX
8
0
10
133.96992
20
62.7166639034034
30
0
0
VERTEX
8
0
10
134.68672
20
62.694132408814
30
0
0
VERTEX
8
0
10
135.40352
20
62.6716240532611
30
0
0
VERTEX
8
0
10
136.12032
20
62.6491499220445
30
0
0
VERTEX
8
0
10
136.83712
20
62.6242406637131
30
0
0
VERTEX
8
0
10
137.55392
20
62.5996261664145
30
0
0
VERTEX
8
0
10
138.27072
20
62.5750697154874
30
0
0
VERTEX
8
0
10
138.98752
20
62.5505715657989
30
0
0
VERTEX
8
0
10
139.70432
20
62.527709053185
30
0
0
VERTEX
8
0
10
140.42112
20
62.5044311367545
30
0
0
VERTEX
8
0
10
141.13792
20
62.4812065535103
30
0
0
VERTEX
8
0
10
141.85472
20
62.463721574022
30
0
0
VERTEX
8
0
10
142.57152
20
62.4482950512957
30
0
0
VERTEX
8
0
10
143.28832
20
62.4328922962461
30
0
0
VERTEX
8
0
10
144.00512
20
62.4175133264689
30
0
0
VERTEX
8
0
10
144.72192
20
62.3975461530623
30
0
0
VERTEX
8
0
10
145.43872
20
62.3778480129462
30
0
0
VERTEX
8
0
10
146.15552
20
62.3581892955206
30
0
0
VERTEX
8
0
10
146.87232
20
62.3385700380818
30
0
0
VERTEX
8
0
10
147.58912
20
62.3175040827391
30
0
0
VERTEX
8
0
10
148.30592
20
62.2968826215949
30
0
0
VERTEX
8
0
10
149.02272
20
62.2763052566002
30
0
0
VERTEX
8
0
10
149.73952
20
62.2557720314803
30
0
0
VERTEX
8
0
10
150.45632
20
62.2352829899242
30
0
0
VERTEX
8
0
10
151.17312
20
62.2148381755847
30
0
0
VERTEX
8
0
10
151.88992
20
62.1944376320771
30
0
0
VERTEX
8
0
10
152.60672
20
62.1837057444814
30
0
0
VERTEX
8
0
10
153.32352
20
62.1729987091821
30
0
0
VERTEX
8
0
10
154.04032
20
62.162303962047
30
0
0
VERTEX
8
0
10
154.75712
20
62.1516215094186
30
0
0
VERTEX
8
0
10
155.47392
20
62.1339469037487
30
0
0
VERTEX
8
0
10
156.19072
20
62.1179768909898
30
0
0
VERTEX
8
0
10
156.90752
20
62.102034600133
30
0
0
VERTEX
8
0
10
157.62432
20
62.0847852867794
30
0
0
VERTEX
8
0
10
158.34112
20
62.0667850078154
30
0
0
VERTEX
8
0
10
159.05792
20
62.0488204242724
30
0
0
VERTEX
8
0
10
159.77472
20
62.0308915671633
30
0
0
VERTEX
8
0
10
160.49152
20
62.0225618546161
30
0
0
VERTEX
8
0
10
161.20832
20
62.0147953151036
30
0
0
VERTEX
8
0
10
161.92512
20
62.007035522503
30
0
0
SEQEND
8
0
0
POLYLINE
8
0
62
2
70
0
10
0
20
0
30
0
0
VERTEX
8
0
10
2.79552
20
0.868403567369723
30
0
0
VERTEX
8
0
10
3.51232
20
1.37213579730364
30
0
0
VERTEX
8
0
10
4.22912
20
1.87664771399812
30
0
0
VERTEX
8
0
10
4.94592
20
2.39210286312705
30
0
0
VERTEX
8
0
10
5.66272
20
2.91782255277725
30
0
0
VERTEX
8
0
10
6.37952
20
3.45169340925854
30
0
0
VERTEX
8
0
10
7.09632
20
3.99174448770861
30
0
0
VERTEX
8
0
10
7.81312
20
4.53633403034908
30
0
0
VERTEX
8
0
10
8.52992
20
5.08409772443347
30
0
0
VERTEX
8
0
10
9.24672
20
5.6338809851277
30
0
0
VERTEX
8
0
10
9.96352
20
6.18468871035705
30
0
0
VERTEX
8
0
10
10.68032
20
6.73565072928378
30
0
0
VERTEX
8
0
10
11.39712
20
7.28599757555404
30
0
0
VERTEX
8
0
10
12.11392
20
7.83504277193132
30
0
0
VERTEX
8
0
10
12.83072
20
8.38216935908043
30
0
0
VERTEX
8
0
10
13.54752
20
8.92681934473262
30
0
0
VERTEX
8
0
10
14.26432
20
9.46848526491174
30
0
0
VERTEX
8
0
10
14.98112
20
10.0067033313966
30
0
0
VERTEX
8
0
10
15.69792
20
10.5410478028362
30
0
0
VERTEX
8
0
10
16.41472
20
11.0711263158756
30
0
0
VERTEX
8
0
10
17.13152
20
11.5965759803552
30
0
0
VERTEX
8
0
10
17.84832
20
12.1170600884758
30
0
0
VERTEX
8
0
10
18.56512
20
12.6322653221711
30
0
0
VERTEX
8
0
10
19.28192
20
13.1418993669578
30
0
0
VERTEX
8
0
10
19.99872
20
13.6456888611527
30
0
0
VERTEX
8
0
10
20.71552
20
14.1433776226292
30
0
0
VERTEX
8
0
10
21.43232
20
14.6347251069156
30
0
0
VERTEX
8
0
10
22.14912
20
15.119505059578
30
0
0
VERTEX
8
0
10
22.86592
20
15.597504332346
30
0
0
VERTEX
8
0
10
23.58272
20
16.0685218379062
30
0
0
VERTEX
8
0
10
24.29952
20
16.5323676228506
30
0
0
VERTEX
8
0
10
25.01632
20
16.9888620415038
30
0
0
VERTEX
8
0
10
25.73312
20
17.4378350162084
30
0
0
VERTEX
8
0
10
26.44992
20
17.8791253719615
30
0
0
VERTEX
8
0
10
27.16672
20
18.312580234885
30
0
0
VERTEX
8
0
10
27.88352
20
18.7380544858702
30
0
0
VERTEX
8
0
10
28.60032
20
19.1554102613705
30
0
0
VERTEX
8
0
10
29.31712
20
19.5645164947036
30
0
0
VERTEX
8
0
10
30.03392
20
19.9652484917539
30
0
0
VERTEX
8
0
10
30.75072
20
20.3574875355807
30
0
0
VERTEX
8
0
10
31.46752
20
20.7411205146686
30
0
0
VERTEX
8
0
10
32.18432
20
21.116039570108
30
0
0
VERTEX
8
0
10
32.90112
20
21.4821417565676
30
0
0
VERTEX
8
0
10
33.61792
20
21.8393287124573
30
0
0
VERTEX
8
0
10
34.33472
20
22.1875063336368
30
0
0
VERTEX
8
0
10
35.05152
20
22.5265844449889
30
0
0
VERTEX
8
0
10
35.76832
20
22.8564764628876
30
0
0
VERTEX
8
0
10
36.48512
20
23.1770990405268
30
0
0
VERTEX
8
0
10
37.20192
20
23.4883716854756
30
0
0
VERTEX
8
0
10
37.91872
20
23.7902163363896
30
0
0
VERTEX
8
0
10
38.63552
20
24.0825568807858
30
0
0
VERTEX
8
0
10
39.35232
20
24.3653185890991
30
0
0
VERTEX
8
0
10
40.06912
20
24.6384274298855
30
0
0
VERTEX
8
0
10
40.78592
20
24.9018092138332
30
0
0
VERTEX
8
0
10
41.50272
20
25.1553884873026
30
0
0
VERTEX
8
0
10
42.21952
20
25.3990870484303
30
0
0
VERTEX
8
0
10
42.93632
20
25.6328218739873
30
0
0
VERTEX
8
0
10
43.65312
20
25.8565020811048
30
0
0
VERTEX
8
0
10
44.36992
20
26.0700242050608
30
0
0
VERTEX
8
0
10
45.08672
20
26.2732642755079
30
0
0
VERTEX
8
0
10
45.80352
20
26.4660630042293
30
0
0
VERTEX
8
0
10
46.52032
20
26.6481929490712
30
0
0
VERTEX
8
0
10
47.2371199999999
20
26.8192604134875
30
0
0
VERTEX
8
0
10
47.9539199999999
20
26.9786046025175
30
0
0
VERTEX
8
0
10
48.6707199999999
20
27.1266314337694
30
0
0
VERTEX
8
0
10
49.3875199999999
20
27.2642761973114
30
0
0
VERTEX
8
0
10
50.1043199999999
20
27.3920769463177
30
0
0
VERTEX
8
0
10
50.8211199999999
20
27.5103928484312
30
0
0
VERTEX
8
0
10
51.5379199999999
20
27.6194906889926
30
0
0
VERTEX
8
0
10
52.2547199999999
20
27.7195786243327
30
0
0
VERTEX
8
0
10
52.9715199999999
20
27.8108231056856
30
0
0
VERTEX
8
0
10
53.6883199999999
20
27.8933585777491
30
0
0
VERTEX
8
0
10
54.4051199999999
20
27.9672934738816
30
0
0
VERTEX
8
0
10
55.1219199999999
20
28.0327140646318
30
0
0
VERTEX
8
0
10
55.8387199999999
20
28.089686932411
30
0
0
VERTEX
8
0
10
56.5555199999999
20
28.1382604836489
30
0
0
VERTEX
8
0
10
57.2723199999999
20
28.1784657223051
30
0
0
VERTEX
8
0
10
57.9891199999999
20
28.2103163996679
30
0
0
VERTEX
8
0
10
58.7059199999999
20
28.2338085832827
30
0
0
VERTEX
8
0
10
59.4227199999999
20
28.2489196316641
30
0
0
VERTEX
8
0
10
60.1395199999999
20
28.2556065087278
30
0
0
VERTEX
8
0
10
60.8563199999999
20
28.2538033127829
30
0
0
VERTEX
8
0
10
61.5731199999999
20
28.2434178193839
30
0
0
VERTEX
8
0
10
62.2899199999999
20
28.2243267312425
30
0
0
VERTEX
8
0
10
63.0067199999999
20
28.1963691701619
30
0
0
VERTEX
8
0
10
63.7235199999999
20
28.1593376984622
30
0
0
VERTEX
8
0
10
64.4403199999999
20
28.1129657538353
30
0
0
VERTEX
8
0
10
65.1571199999999
20
28.056909694871
30
0
0
VERTEX
8
0
10
65.8739199999999
20
27.9907224304336
30
0
0
VERTEX
8
0
10
66.5907199999999
20
27.9138133004102
30
0
0
VERTEX
8
0
10
67.3075199999999
20
27.8253842373902
30
0
0
VERTEX
8
0
10
68.0243199999999
20
27.7243221108051
30
0
0
VERTEX
8
0
10
68.7411199999999
20
27.6090025695749
30
0
0
VERTEX
8
0
10
69.4579199999999
20
27.4768919176268
30
0
0
VERTEX
8
0
10
70.1747199999999
20
27.3236010693764
30
0
0
VERTEX
8
0
10
70.8915199999999
20
27.1401596576008
30
0
0
VERTEX
8
0
10
71.6083199999999
20
26.9101159505706
30
0
0
VERTEX
8
0
10
72.3251199999999
20
26.6713295649107
30
0
0
VERTEX
8
0
10
73.0419199999999
20
26.478681351697
30
0
0
VERTEX
8
0
10
73.7587199999999
20
26.3167407007968
30
0
0
VERTEX
8
0
10
74.4755199999999
20
26.1742743305709
30
0
0
VERTEX
8
0
10
75.1923199999999
20
26.0457531453868
30
0
0
VERTEX
8
0
10
75.9091199999998
20
25.927934636468
30
0
0
VERTEX
8
0
10
76.6259199999999
20
25.818679668177
30
0
0
VERTEX
8
0
10
77.3427199999998
20
25.7164671601427
30
0
0
VERTEX
8
0
10
78.0595199999999
20
25.6201582199122
30
0
0
VERTEX
8
0
10
78.7763199999998
20
25.5288673104462
30
0
0
VERTEX
8
0
10
79.4931199999998
20
25.4418857585845
30
0
0
VERTEX
8
0
10
80.2099199999998
20
25.3586334008838
30
0
0
VERTEX
8
0
10
80.9267199999998
20
25.2786264819004
30
0
0
VERTEX
8
0
10
81.6435199999998
20
25.2014554860239
30
0
0
VERTEX
8
0
10
82.3603199999998
20
25.1267693249497
30
0
0
VERTEX
8
0
10
83.0771199999998
20
25.0542637483786
30
0
0
VERTEX
8
0
10
83.7939199999998
20
24.9836726518697
30
0
0
VERTEX
8
0
10
84.5107199999998
20
24.91476142687
30
0
0
VERTEX
8
0
10
85.2275199999998
20
24.8473217845956
30
0
0
VERTEX
8
0
10
85.9443199999998
20
24.7811676655741
30
0
0
VERTEX
8
0
10
86.6611199999998
20
24.7161319635753
30
0
0
VERTEX
8
0
10
87.3779199999998
20
24.6520638703037
30
0
0
VERTEX
8
0
10
88.0947199999998
20
24.5888267001095
30
0
0
VERTEX
8
0
10
88.8115199999998
20
24.5262960907584
30
0
0
VERTEX
8
0
10
89.5283199999998
20
24.4643585022398
30
0
0
VERTEX
8
0
10
90.2451199999998
20
24.4029099543399
30
0
0
VERTEX
8
0
10
90.9619199999998
20
24.3418549573725
30
0
0
VERTEX
8
0
10
91.6787199999998
20
24.2811056005521
30
0
0
VERTEX
8
0
10
92.3955199999998
20
24.2205807701348
30
0
0
VERTEX
8
0
10
93.1123199999998
20
24.1602054751459
30
0
0
VERTEX
8
0
10
93.8291199999998
20
24.0999102630034
30
0
0
VERTEX
8
0
10
94.5459199999998
20
24.0396307107148
30
0
0
VERTEX
8
0
10
95.2627199999998
20
23.979306980022
30
0
0
VERTEX
8
0
10
95.9795199999998
20
23.9188834269821
30
0
0
VERTEX
8
0
10
96.6963199999998
20
23.8583082581294
30
0
0
VERTEX
8
0
10
97.4131199999998
20
23.7975332267394
30
0
0
VERTEX
8
0
10
98.1299199999998
20
23.7365133637489
30
0
0
VERTEX
8
0
10
98.8467199999998
20
23.6752067388358
30
0
0
VERTEX
8
0
10
99.5635199999998
20
23.6135742477927
30
0
0
VERTEX
8
0
10
100.28032
20
23.5515794230117
30
0
0
VERTEX
8
0
10
100.99712
20
23.4891882643093
30
0
0
VERTEX
8
0
10
101.71392
20
23.4263690877745
30
0
0
VERTEX
8
0
10
102.43072
20
23.3630923906434
30
0
0
VERTEX
8
0
10
103.14752
20
23.2993307304946
30
0
0
VERTEX
8
0
10
103.86432
20
23.2350586172895
30
0
0
VERTEX
8
0
10
104.58112
20
23.1702524170086
30
0
0
VERTEX
8
0
10
105.29792
20
23.1048902657902
30
0
0
VERTEX
8
0
10
106.01472
20
23.038951993636
30
0
0
VERTEX
8
0
10
106.73152
20
22.9724190568711
30
0
0
VERTEX
8
0
10
107.44832
20
22.9052744786774
30
0
0
VERTEX
8
0
10
108.16512
20
22.8375027970891
30
0
0
VERTEX
8
0
10
108.88192
20
22.7690900199548
30
0
0
VERTEX
8
0
10
109.59872
20
22.7000235864198
30
0
0
VERTEX
8
0
10
110.31552
20
22.6302923345794
30
0
0
VERTEX
8
0
10
111.03232
20
22.5598864749939
30
0
0
VERTEX
8
0
10
111.74912
20
22.4887975698221
30
0
0
VERTEX
8
0
10
112.46592
20
22.4170185173847
30
0
0
VERTEX
8
0
10
113.18272
20
22.3445435420139
30
0
0
VERTEX
8
0
10
113.89952
20
22.2713681890992
30
0
0
VERTEX
8
0
10
114.61632
20
22.1974893252718
30
0
0
VERTEX
8
0
10
115.33312
20
22.1229051437346
30
0
0
VERTEX
8
0
10
116.04992
20
22.0476151747747
30
0
0
VERTEX
8
0
10
116.76672
20
21.9716203015446
30
0
0
VERTEX
8
0
10
117.48352
20
21.8949227812552
30
0
0
VERTEX
8
0
10
118.20032
20
21.8175262719606
30
0
0
VERTEX
8
0
10
118.91712
20
21.7394358651851
30
0
0
VERTEX
8
0
10
119.63392
20
21.6606581246916
30
0
0
VERTEX
8
0
10
120.35072
20
21.5812011317635
30
0
0
VERTEX
8
0
10
121.06752
20
21.501074537448
30
0
0
VERTEX
8
0
10
121.78432
20
21.4202896222948
30
0
0
VERTEX
8
0
10
122.50112
20
21.3388593642224
30
0
0
VERTEX
8
0
10
123.21792
20
21.256798515269
30
0
0
VERTEX
8
0
10
123.93472
20
21.1741236881109
30
0
0
VERTEX
8
0
10
124.65152
20
21.0908534534137
30
0
0
VERTEX
8
0
10
125.36832
20
21.0070084492654
30
0
0
VERTEX
8
0
10
126.08512
20
20.9226115041916
30
0
0
VERTEX
8
0
10
126.80192
20
20.8376877755504
30
0
0
VERTEX
8
0
10
127.51872
20
20.752264905474
30
0
0
VERTEX
8
0
10
128.23552
20
20.6663731969846
30
0
0
VERTEX
8
0
10
128.95232
20
20.5800458135085
30
0
0
VERTEX
8
0
10
129.66912
20
20.4933190057562
30
0
0
VERTEX
8
0
10
130.38592
20
20.4062323709232
30
0
0
VERTEX
8
0
10
131.10272
20
20.3188291504501
30
0
0
VERTEX
8
0
10
131.81952
20
20.2311565742983
30
0
0
VERTEX
8
0
10
132.53632
20
20.1432662620283
30
0
0
VERTEX
8
0
10
133.25312
20
20.0552146941805
30
0
0
VERTEX
8
0
10
133.96992
20
19.9670637719769
30
0
0
VERTEX
8
0
10
134.68672
20
19.8788814898609
30
0
0
VERTEX
8
0
10
135.40352
20
19.7907427549665
30
0
0
VERTEX
8
0
10
136.12032
20
19.7027304021187
30
0
0
VERTEX
8
0
10
136.83712
20
19.6149364756863
30
0
0
VERTEX
8
0
10
137.55392
20
19.5274638865638
30
0
0
VERTEX
8
0
10
138.27072
20
19.4404286154016
30
0
0
VERTEX
8
0
10
138.98752
20
19.3539627457507
30
0
0
VERTEX
8
0
10
139.70432
20
19.2682188241007
30
0
0
VERTEX
8
0
10
140.42112
20
19.1833764684414
30
0
0
VERTEX
8
0
10
141.13792
20
19.0996529878445
30
0
0
VERTEX
8
0
10
141.85472
20
19.0173210134509
30
0
0
VERTEX
8
0
10
142.57152
20
18.9367334679351
30
0
0
VERTEX
8
0
10
143.28832
20
18.8583152949549
30
0
0
VERTEX
8
0
10
144.00512
20
18.7823609491557
30
0
0
VERTEX
8
0
10
144.72192
20
18.7087670136277
30
0
0
VERTEX
8
0
10
145.43872
20
18.6372255773323
30
0
0
VERTEX
8
0
10
146.15552
20
18.5674684567568
30
0
0
VERTEX
8
0
10
146.87232
20
18.4992983675233
30
0
0
VERTEX
8
0
10
147.58912
20
18.4325670961377
30
0
0
VERTEX
8
0
10
148.30592
20
18.3671582741859
30
0
0
VERTEX
8
0
10
149.02272
20
18.3029771318209
30
0
0
VERTEX
8
0
10
149.73952
20
18.2399443333058
30
0
0
VERTEX
8
0
10
150.45632
20
18.1779920603175
30
0
0
VERTEX
8
0
10
151.17312
20
18.1170613868963
30
0
0
VERTEX
8
0
10
151.88992
20
18.0571004400871
30
0
0
VERTEX
8
0
10
152.60672
20
17.9980630638571
30
0
0
VERTEX
8
0
10
153.32352
20
17.9399078196745
30
0
0
VERTEX
8
0
10
154.04032
20
17.8825972205244
30
0
0
VERTEX
8
0
10
154.75712
20
17.8260971317131
30
0
0
VERTEX
8
0
10
155.47392
20
17.770376293899
30
0
0
VERTEX
8
0
10
156.19072
20
17.7154059376574
30
0
0
VERTEX
8
0
10
156.90752
20
17.6611594678931
30
0
0
VERTEX
8
0
10
157.62432
20
17.6076122024377
30
0
0
VERTEX
8
0
10
158.34112
20
17.5547411532911
30
0
0
VERTEX
8
0
10
159.05792
20
17.5025248418635
30
0
0
VERTEX
8
0
10
159.77472
20
17.4509431416388
30
0
0
VERTEX
8
0
10
160.49152
20
17.3999771431847
30
0
0
VERTEX
8
0
10
161.20832
20
17.3496090375474
30
0
0
VERTEX
8
0
10
161.92512
20
17.2998220148991
30
0
0
SEQEND
8
0
0
POLYLINE
8
0
62
3
70
0
10
0
20
0
30
0
0
VERTEX
8
0
10
2.79552
20
2.4832262999267
30
0
0
VERTEX
8
0
10
3.51232
20
3.23858479144603
30
0
0
VERTEX
8
0
10
4.22912
20
4.01018243672063
30
0
0
VERTEX
8
0
10
4.94592
20
4.79634462051223
30
0
0
VERTEX
8
0
10
5.66272
20
5.59415027812942
30
0
0
VERTEX
8
0
10
6.37952
20
6.40095584960961
30
0
0
VERTEX
8
0
10
7.09632
20
7.21461047030731
30
0
0
VERTEX
8
0
10
7.81312
20
8.03337022931197
30
0
0
VERTEX
8
0
10
8.52992
20
8.85578804316263
30
0
0
VERTEX
8
0
10
9.24672
20
9.68063170078313
30
0
0
VERTEX
8
0
10
9.96352
20
10.5068290327589
30
0
0
VERTEX
8
0
10
10.68032
20
11.3334314254365
30
0
0
VERTEX
8
0
10
11.39712
20
12.1595887833148
30
0
0
VERTEX
8
0
10
12.11392
20
12.9845316393052
30
0
0
VERTEX
8
0
10
12.83072
20
13.8075578802782
30
0
0
VERTEX
8
0
10
13.54752
20
14.6280225872947
30
0
0
VERTEX
8
0
10
14.26432
20
15.4453300681269
30
0
0
VERTEX
8
0
10
14.98112
20
16.2589274882668
30
0
0
VERTEX
8
0
10
15.69792
20
17.0682997008472
30
0
0
VERTEX
8
0
10
16.41472
20
17.872964994915
30
0
0
VERTEX
8
0
10
17.13152
20
18.6724715600819
30
0
0
VERTEX
8
0
10
17.84832
20
19.4663945178163
30
0
0
VERTEX
8
0
10
18.56512
20
20.2543334068178
30
0
0
VERTEX
8
0
10
19.28192
20
21.0359100356326
30
0
0
VERTEX
8
0
10
19.99872
20
21.8107666360099
30
0
0
VERTEX
8
0
10
20.71552
20
22.5785642640899
30
0
0
VERTEX
8
0
10
21.43232
20
23.3389814076071
30
0
0
VERTEX
8
0
10
22.14912
20
24.0917127658261
30
0
0
VERTEX
8
0
10
22.86592
20
24.8364681750953
30
0
0
VERTEX
8
0
10
23.58272
20
25.572971657916
30
0
0
VERTEX
8
0
10
24.29952
20
26.300960577502
30
0
0
VERTEX
8
0
10
25.01632
20
27.0201848827722
30
0
0
VERTEX
8
0
10
25.73312
20
27.7304064312564
30
0
0
VERTEX
8
0
10
26.44992
20
28.4313983794292
30
0
0
VERTEX
8
0
10
27.16672
20
29.1229446314599
30
0
0
VERTEX
8
0
10
27.88352
20
29.8048393389132
30
0
0
VERTEX
8
0
10
28.60032
20
30.4768864446432
30
0
0
VERTEX
8
0
10
29.31712
20
31.1388992652567
30
0
0
VERTEX
8
0
10
30.03392
20
31.7907001070648
30
0
0
VERTEX
8
0
10
30.75072
20
32.4321199110118
30
0
0
VERTEX
8
0
10
31.46752
20
33.0629979223711
30
0
0
VERTEX
8
0
10
32.18432
20
33.6831813814757
30
0
0
VERTEX
8
0
10
32.90112
20
34.2925252316021
30
0
0
VERTEX
8
0
10
33.61792
20
34.890891840576
30
0
0
VERTEX
8
0
10
34.33472
20
35.4781507321043
30
0
0
VERTEX
8
0
10
35.05152
20
36.0541783229169
30
0
0
VERTEX
8
0
10
35.76832
20
36.6188576610918
30
0
0
VERTEX
8
0
10
36.48512
20
37.1720781603663
30
0
0
VERTEX
8
0
10
37.20192
20
37.7137353237319
30
0
0
VERTEX
8
0
10
37.91872
20
38.2437304482181
30
0
0
VERTEX
8
0
10
38.63552
20
38.761970299801
30
0
0
VERTEX
8
0
10
39.35232
20
39.2683667434205
30
0
0
VERTEX
8
0
10
40.06912
20
39.762836306943
30
0
0
VERTEX
8
0
10
40.78592
20
40.2452996476257
30
0
0
VERTEX
8
0
10
41.50272
20
40.7156808735454
30
0
0
VERTEX
8
0
10
42.21952
20
41.1739066438665
30
0
0
VERTEX
8
0
10
42.93632
20
41.6199049208896
30
0
0
VERTEX
8
0
10
43.65312
20
42.0536031481857
30
0
0
VERTEX
8
0
10
44.36992
20
42.4749254226025
30
0
0
VERTEX
8
0
10
45.08672
20
42.8837877462289
30
0
0
VERTEX
8
0
10
45.80352
20
43.2800891341881
30
0
0
VERTEX
8
0
10
46.52032
20
43.6636918486033
30
0
0
VERTEX
8
0
10
47.2371199999999
20
44.0343622078006
30
0
0
VERTEX
8
0
10
47.9539199999999
20
44.3917147690584
30
0
0
VERTEX
8
0
10
48.6707199999999
20
44.7360478926189
30
0
0
VERTEX
8
0
10
49.3875199999999
20
45.0680018390753
30
0
0
VERTEX
8
0
10
50.1043199999999
20
45.3879736552954
30
0
0
VERTEX
8
0
10
50.8211199999999
20
45.6962496503059
30
0
0
VERTEX
8
0
10
51.5379199999999
20
45.993058675342
30
0
0
VERTEX
8
0
10
52.2547199999999
20
46.2785931062349
30
0
0
VERTEX
8
0
10
52.9715199999999
20
46.5530194913735
30
0
0
VERTEX
8
0
10
53.6883199999999
20
46.8164847524033
30
0
0
VERTEX
8
0
10
54.4051199999999
20
47.0691201019473
30
0
0
VERTEX
8
0
10
55.1219199999999
20
47.3110436381833
30
0
0
VERTEX
8
0
10
55.8387199999999
20
47.5423620953128
30
0
0
VERTEX
8
0
10
56.5555199999999
20
47.76317200731
30
0
0
VERTEX
8
0
10
57.2723199999999
20
47.9735604276943
30
0
0
VERTEX
8
0
10
57.9891199999999
20
48.1736052819753
30
0
0
VERTEX
8
0
10
58.7059199999999
20
48.3633753863934
30
0
0
VERTEX
8
0
10
59.4227199999999
20
48.5429301339349
30
0
0
VERTEX
8
0
10
60.1395199999999
20
48.7123188189748
30
0
0
VERTEX
8
0
10
60.8563199999999
20
48.8715795396333
30
0
0
VERTEX
8
0
10
61.5731199999999
20
49.0207375765308
30
0
0
VERTEX
8
0
10
62.2899199999999
20
49.1598030904844
30
0
0
VERTEX
8
0
10
63.0067199999999
20
49.2887678984401
30
0
0
VERTEX
8
0
10
63.7235199999999
20
49.4076009569524
30
0
0
VERTEX
8
0
10
64.4403199999999
20
49.516241970701
30
0
0
VERTEX
8
0
10
65.1571199999999
20
49.6145921828275
30
0
0
VERTEX
8
0
10
65.8739199999999
20
49.7025007602994
30
0
0
VERTEX
8
0
10
66.5907199999999
20
49.7797439736765
30
0
0
VERTEX
8
0
10
67.3075199999999
20
49.8459919254804
30
0
0
VERTEX
8
0
10
68.0243199999999
20
49.9007522333553
30
0
0
VERTEX
8
0
10
68.7411199999999
20
49.9432670699517
30
0
0
VERTEX
8
0
10
69.4579199999999
20
49.9723035164126
30
0
0
VERTEX
8
0
10
70.1747199999999
20
49.9856539120252
30
0
0
VERTEX
8
0
10
70.8915199999999
20
49.9786980719903
30
0
0
VERTEX
8
0
10
71.6083199999999
20
49.943084020596
30
0
0
VERTEX
8
0
10
72.3251199999999
20
49.9010200601374
30
0
0
VERTEX
8
0
10
73.0419199999999
20
49.8833884094273
30
0
0
VERTEX
8
0
10
73.7587199999999
20
49.8817845265115
30
0
0
VERTEX
8
0
10
74.4755199999999
20
49.8900102004977
30
0
0
VERTEX
8
0
10
75.1923199999999
20
49.9049927061051
30
0
0
VERTEX
8
0
10
75.9091199999998
20
49.9249192878292
30
0
0
VERTEX
8
0
10
76.6259199999999
20
49.9485881032655
30
0
0
VERTEX
8
0
10
77.3427199999998
20
49.975141026025
30
0
0
VERTEX
8
0
10
78.0595199999999
20
50.0039333608689
30
0
0
VERTEX
8
0
10
78.7763199999998
20
50.0344624668097
30
0
0
VERTEX
8
0
10
79.4931199999998
20
50.0663252600345
30
0
0
VERTEX
8
0
10
80.2099199999998
20
50.0991912791062
30
0
0
VERTEX
8
0
10
80.9267199999998
20
50.1327847594238
30
0
0
VERTEX
8
0
10
81.6435199999998
20
50.1668722260102
30
0
0
VERTEX
8
0
10
82.3603199999998
20
50.2012536242428
30
0
0
VERTEX
8
0
10
83.0771199999998
20
50.2357558061016
30
0
0
VERTEX
8
0
10
83.7939199999998
20
50.2702276353405
30
0
0
VERTEX
8
0
10
84.5107199999998
20
50.3045362358764
30
0
0
VERTEX
8
0
10
85.2275199999998
20
50.3385640666684
30
0
0
VERTEX
8
0
10
85.9443199999998
20
50.3722066064138
30
0
0
VERTEX
8
0
10
86.6611199999998
20
50.4053704964145
30
0
0
VERTEX
8
0
10
87.3779199999998
20
50.4379720332169
30
0
0
VERTEX
8
0
10
88.0947199999998
20
50.469935932125
30
0
0
VERTEX
8
0
10
88.8115199999998
20
50.5011943032209
30
0
0
VERTEX
8
0
10
89.5283199999998
20
50.531685796037
30
0
0
VERTEX
8
0
10
90.2451199999998
20
50.561354879518
30
0
0
VERTEX
8
0
10
90.9619199999998
20
50.5901512315666
30
0
0
VERTEX
8
0
10
91.6787199999998
20
50.6180292181358
30
0
0
VERTEX
8
0
10
92.3955199999998
20
50.6449474461158
30
0
0
VERTEX
8
0
10
93.1123199999998
20
50.6708683774737
30
0
0
VERTEX
8
0
10
93.8291199999998
20
50.695757994624
30
0
0
VERTEX
8
0
10
94.5459199999998
20
50.7195855089087
30
0
0
VERTEX
8
0
10
95.2627199999998
20
50.7423231055897
30
0
0
VERTEX
8
0
10
95.9795199999998
20
50.7639457199459
30
0
0
VERTEX
8
0
10
96.6963199999998
20
50.7844308400031
30
0
0
VERTEX
8
0
10
97.4131199999998
20
50.8037583322048
30
0
0
VERTEX
8
0
10
98.1299199999998
20
50.8219102869174
30
0
0
VERTEX
8
0
10
98.8467199999998
20
50.8388708811955
30
0
0
VERTEX
8
0
10
99.5635199999998
20
50.8546262565965
30
0
0
VERTEX
8
0
10
100.28032
20
50.8691644102162
30
0
0
VERTEX
8
0
10
100.99712
20
50.8824750973512
30
0
0
VERTEX
8
0
10
101.71392
20
50.8945497444533
30
0
0
VERTEX
8
0
10
102.43072
20
50.9053813712199
30
0
0
VERTEX
8
0
10
103.14752
20
50.914964520828
30
0
0
VERTEX
8
0
10
103.86432
20
50.9232951974535
30
0
0
VERTEX
8
0
10
104.58112
20
50.9303708103415
30
0
0
VERTEX
8
0
10
105.29792
20
50.9361901237823
30
0
0
VERTEX
8
0
10
106.01472
20
50.9407532124355
30
0
0
VERTEX
8
0
10
106.73152
20
50.9440614215152
30
0
0
VERTEX
8
0
10
107.44832
20
50.9461173314199
30
0
0
VERTEX
8
0
10
108.16512
20
50.9469247264308
30
0
0
VERTEX
8
0
10
108.88192
20
50.9464885671633
30
0
0
VERTEX
8
0
10
109.59872
20
50.9448149664874
30
0
0
VERTEX
8
0
10
110.31552
20
50.941911168679
30
0
0
VERTEX
8
0
10
111.03232
20
50.9377855315878
30
0
0
VERTEX
8
0
10
111.74912
20
50.9324475116441
30
0
0
VERTEX
8
0
10
112.46592
20
50.9259076515474
30
0
0
VERTEX
8
0
10
113.18272
20
50.9181775705096
30
0
0
VERTEX
8
0
10
113.89952
20
50.9092699569449
30
0
0
VERTEX
8
0
10
114.61632
20
50.8991985635178
30
0
0
VERTEX
8
0
10
115.33312
20
50.8879782044855
30
0
0
VERTEX
8
0
10
116.04992
20
50.8756247552879
30
0
0
VERTEX
8
0
10
116.76672
20
50.8621551543581
30
0
0
VERTEX
8
0
10
117.48352
20
50.8475874071444
30
0
0
VERTEX
8
0
10
118.20032
20
50.8319405923572
30
0
0
VERTEX
8
0
10
118.91712
20
50.8152348704743
30
0
0
VERTEX
8
0
10
119.63392
20
50.7974914945624
30
0
0
VERTEX
8
0
10
120.35072
20
50.778732823491
30
0
0
VERTEX
8
0
10
121.06752
20
50.7589823376527
30
0
0
VERTEX
8
0
10
121.78432
20
50.7382646573237
30
0
0
VERTEX
8
0
10
122.50112
20
50.7166055638447
30
0
0
VERTEX
8
0
10
123.21792
20
50.6940320238346
30
0
0
VERTEX
8
0
10
123.93472
20
50.6705722167026
30
0
0
VERTEX
8
0
10
124.65152
20
50.6462555657868
30
0
0
VERTEX
8
0
10
125.36832
20
50.6211127735068
30
0
0
VERTEX
8
0
10
126.08512
20
50.5951758610164
30
0
0
VERTEX
8
0
10
126.80192
20
50.5684782129371
30
0
0
VERTEX
8
0
10
127.51872
20
50.5410546278955
30
0
0
VERTEX
8
0
10
128.23552
20
50.5129413757419
30
0
0
VERTEX
8
0
10
128.95232
20
50.4841762625497
30
0
0
VERTEX
8
0
10
129.66912
20
50.4547987047575
30
0
0
VERTEX
8
0
10
130.38592
20
50.4248498141748
30
0
0
VERTEX
8
0
10
131.10272
20
50.3943724960351
30
0
0
VERTEX
8
0
10
131.81952
20
50.3634115629074
30
0
0
VERTEX
8
0
10
132.53632
20
50.3320138681184
30
0
0
VERTEX
8
0
10
133.25312
20
50.300228463526
30
0
0
VERTEX
8
0
10
133.96992
20
50.2681067881173
30
0
0
VERTEX
8
0
10
134.68672
20
50.2357028963096
30
0
0
VERTEX
8
0
10
135.40352
20
50.203073738341
30
0
0
VERTEX
8
0
10
136.12032
20
50.1702795104855
30
0
0
VERTEX
8
0
10
136.83712
20
50.1373841012166
30
0
0
VERTEX
8
0
10
137.55392
20
50.1044556731138
30
0
0
VERTEX
8
0
10
138.27072
20
50.0715674435841
30
0
0
VERTEX
8
0
10
138.98752
20
50.0387987692319
30
0
0
VERTEX
8
0
10
139.70432
20
50.0062367178631
30
0
0
VERTEX
8
0
10
140.42112
20
49.9739784691929
30
0
0
VERTEX
8
0
10
141.13792
20
49.9421351922326
30
0
0
VERTEX
8
0
10
141.85472
20
49.9108384689474
30
0
0
VERTEX
8
0
10
142.57152
20
49.8802491025483
30
0
0
VERTEX
8
0
10
143.28832
20
49.8505518149654
30
0
0
VERTEX
8
0
10
144.00512
20
49.821873124189
30
0
0
VERTEX
8
0
10
144.72192
20
49.7941765116818
30
0
0
VERTEX
8
0
10
145.43872
20
49.7673411420528
30
0
0
VERTEX
8
0
10
146.15552
20
49.7412600835536
30
0
0
VERTEX
8
0
10
146.87232
20
49.7158537124064
30
0
0
VERTEX
8
0
10
147.58912
20
49.6910615714188
30
0
0
VERTEX
8
0
10
148.30592
20
49.6668357500599
30
0
0
VERTEX
8
0
10
149.02272
20
49.643136909796
30
0
0
VERTEX
8
0
10
149.73952
20
49.6199318786242
30
0
0
VERTEX
8
0
10
150.45632
20
49.5971921151011
30
0
0
VERTEX
8
0
10
151.17312
20
49.5748926741538
30
0
0
VERTEX
8
0
10
151.88992
20
49.5530114792299
30
0
0
VERTEX
8
0
10
152.60672
20
49.5315287913453
30
0
0
VERTEX
8
0
10
153.32352
20
49.5104268102764
30
0
0
VERTEX
8
0
10
154.04032
20
49.4896893676734
30
0
0
VERTEX
8
0
10
154.75712
20
49.4693016860614
30
0
0
VERTEX
8
0
10
155.47392
20
49.4492501862674
30
0
0
VERTEX
8
0
10
156.19072
20
49.4295223312273
30
0
0
VERTEX
8
0
10
156.90752
20
49.4101064976352
30
0
0
VERTEX
8
0
10
157.62432
20
49.3909918692542
30
0
0
VERTEX
8
0
10
158.34112
20
49.3721683473225
30
0
0
VERTEX
8
0
10
159.05792
20
49.3536264746305
30
0
0
VERTEX
8
0
10
159.77472
20
49.3353573706526
30
0
0
VERTEX
8
0
10
160.49152
20
49.317352675713
30
0
0
VERTEX
8
0
10
161.20832
20
49.2996045026028
30
0
0
VERTEX
8
0
10
161.92512
20
49.2821053943973
30
0
0
SEQEND
8
0
0
POLYLINE
8
0
62
4
70
0
10
0
20
0
30
0
0
VERTEX
8
0
10
2.79552
20
3.73240766996603
30
0
0
VERTEX
8
0
10
3.51232
20
4.60293530543302
30
0
0
VERTEX
8
0
10
4.22912
20
5.47663417859702
30
0
0
VERTEX
8
0
10
4.94592
20
6.35284383885688
30
0
0
VERTEX
8
0
10
5.66272
20
7.2310752324263
30
0
0
VERTEX
8
0
10
6.37952
20
8.00599827194531
30
0
0
VERTEX
8
0
10
7.09632
20
8.80921803646116
30
0
0
VERTEX
8
0
10
7.81312
20
9.61428543021216
30
0
0
VERTEX
8
0
10
8.52992
20
10.3921970227962
30
0
0
VERTEX
8
0
10
9.24672
20
11.155541692419
30
0
0
VERTEX
8
0
10
9.96352
20
11.9200908322369
30
0
0
VERTEX
8
0
10
10.68032
20
12.6853722359039
30
0
0
VERTEX
8
0
10
11.39712
20
13.3945166865337
30
0
0
VERTEX
8
0
10
12.11392
20
14.1019372296736
30
0
0
VERTEX
8
0
10
12.83072
20
14.8098794226854
30
0
0
VERTEX
8
0
10
13.54752
20
15.5178829102578
30
0
0
VERTEX
8
0
10
14.26432
20
16.2280094884849
30
0
0
VERTEX
8
0
10
14.98112
20
16.9368337928067
30
0
0
VERTEX
8
0
10
15.69792
20
17.64453806029
30
0
0
VERTEX
8
0
10
16.41472
20
18.3273598634227
30
0
0
VERTEX
8
0
10
17.13152
20
18.9922917399717
30
0
0
VERTEX
8
0
10
17.84832
20
19.6557563840817
30
0
0
VERTEX
8
0
10
18.56512
20
20.3174201831452
30
0
0
VERTEX
8
0
10
19.28192
20
20.9753124737477
30
0
0
VERTEX
8
0
10
19.99872
20
21.6306429230772
30
0
0
VERTEX
8
0
10
20.71552
20
22.2833210013403
30
0
0
VERTEX
8
0
10
21.43232
20
22.9330876587864
30
0
0
VERTEX
8
0
10
22.14912
20
23.5600599583764
30
0
0
VERTEX
8
0
10
22.86592
20
24.1873443507644
30
0
0
VERTEX
8
0
10
23.58272
20
24.8111952481225
30
0
0
VERTEX
8
0
10
24.29952
20
25.4351307370814
30
0
0
VERTEX
8
0
10
25.01632
20
26.0584451557831
30
0
0
VERTEX
8
0
10
25.73312
20
26.6776261328699
30
0
0
VERTEX
8
0
10
26.44992
20
27.292492635333
30
0
0
VERTEX
8
0
10
27.16672
20
27.904339837385
30
0
0
VERTEX
8
0
10
27.88352
20
28.5117944528821
30
0
0
VERTEX
8
0
10
28.60032
20
29.1144387873163
30
0
0
VERTEX
8
0
10
29.31712
20
29.7121300885299
30
0
0
VERTEX
8
0
10
30.03392
20
30.3007554174179
30
0
0
VERTEX
8
0
10
30.75072
20
30.8847384256339
30
0
0
VERTEX
8
0
10
31.46752
20
31.4634005029179
30
0
0
VERTEX
8
0
10
32.18432
20
32.0366268475561
30
0
0
VERTEX
8
0
10
32.90112
20
32.6118347468041
30
0
0
VERTEX
8
0
10
33.61792
20
33.1789491600655
30
0
0
VERTEX
8
0
10
34.33472
20
33.740315238941
30
0
0
VERTEX
8
0
10
35.05152
20
34.2985338559916
30
0
0
VERTEX
8
0
10
35.76832
20
34.8515388306719
30
0
0
VERTEX
8
0
10
36.48512
20
35.3985583437811
30
0
0
VERTEX
8
0
10
37.20192
20
35.9395275736011
30
0
0
VERTEX
8
0
10
37.91872
20
36.4818934327343
30
0
0
VERTEX
8
0
10
38.63552
20
37.0173683613665
30
0
0
VERTEX
8
0
10
39.35232
20
37.5466419257295
30
0
0
VERTEX
8
0
10
40.06912
20
38.0696743248336
30
0
0
VERTEX
8
0
10
40.78592
20
38.576754999786
30
0
0
VERTEX
8
0
10
41.50272
20
39.0803940005243
30
0
0
VERTEX
8
0
10
42.21952
20
39.5776857641595
30
0
0
VERTEX
8
0
10
42.93632
20
40.0686081567029
30
0
0
VERTEX
8
0
10
43.65312
20
40.5531440536941
30
0
0
VERTEX
8
0
10
44.36992
20
41.0312812775168
30
0
0
VERTEX
8
0
10
45.08672
20
41.5030125377456
30
0
0
VERTEX
8
0
10
45.80352
20
41.9520737679052
30
0
0
VERTEX
8
0
10
46.52032
20
42.3955312801013
30
0
0
VERTEX
8
0
10
47.2371199999999
20
42.8325410722641
30
0
0
VERTEX
8
0
10
47.9539199999999
20
43.2631139278581
30
0
0
VERTEX
8
0
10
48.6707199999999
20
43.6802228924912
30
0
0
VERTEX
8
0
10
49.3875199999999
20
44.0929039040372
30
0
0
VERTEX
8
0
10
50.1043199999999
20
44.4993173533013
30
0
0
VERTEX
8
0
10
50.8211199999999
20
44.8817697998496
30
0
0
VERTEX
8
0
10
51.5379199999999
20
45.2499102408985
30
0
0
VERTEX
8
0
10
52.2547199999999
20
45.6119278624984
30
0
0
VERTEX
8
0
10
52.9715199999999
20
45.9678840419797
30
0
0
VERTEX
8
0
10
53.6883199999999
20
46.2883959830026
30
0
0
VERTEX
8
0
10
54.4051199999999
20
46.6029865958788
30
0
0
VERTEX
8
0
10
55.1219199999999
20
46.911670477677
30
0
0
VERTEX
8
0
10
55.8387199999999
20
47.2145020770577
30
0
0
VERTEX
8
0
10
56.5555199999999
20
47.4728729088885
30
0
0
VERTEX
8
0
10
57.2723199999999
20
47.7348266970501
30
0
0
VERTEX
8
0
10
57.9891199999999
20
47.991105808235
30
0
0
VERTEX
8
0
10
58.7059199999999
20
48.2221725562595
30
0
0
VERTEX
8
0
10
59.4227199999999
20
48.4363306400052
30
0
0
VERTEX
8
0
10
60.1395199999999
20
48.6450298888103
30
0
0
VERTEX
8
0
10
60.8563199999999
20
48.8483142059649
30
0
0
VERTEX
8
0
10
61.5731199999999
20
48.9912092954421
30
0
0
VERTEX
8
0
10
62.2899199999999
20
49.1260295100173
30
0
0
VERTEX
8
0
10
63.0067199999999
20
49.2558485242783
30
0
0
VERTEX
8
0
10
63.7235199999999
20
49.3806988152475
30
0
0
VERTEX
8
0
10
64.4403199999999
20
49.4602899166378
30
0
0
VERTEX
8
0
10
65.1571199999999
20
49.5436728217355
30
0
0
VERTEX
8
0
10
65.8739199999999
20
49.6224424326743
30
0
0
VERTEX
8
0
10
66.5907199999999
20
49.680349187393
30
0
0
VERTEX
8
0
10
67.3075199999999
20
49.7220782968468
30
0
0
VERTEX
8
0
10
68.0243199999999
20
49.75957990318
30
0
0
VERTEX
8
0
10
68.7411199999999
20
49.7928893048681
30
0
0
VERTEX
8
0
10
69.4579199999999
20
49.8177049835782
30
0
0
VERTEX
8
0
10
70.1747199999999
20
49.837946356834
30
0
0
VERTEX
8
0
10
70.8915199999999
20
49.8541796283817
30
0
0
VERTEX
8
0
10
71.6083199999999
20
49.8665997464135
30
0
0
VERTEX
8
0
10
72.3251199999999
20
49.8574804362215
30
0
0
VERTEX
8
0
10
73.0419199999999
20
49.8511358245036
30
0
0
VERTEX
8
0
10
73.7587199999999
20
49.8444787177886
30
0
0
VERTEX
8
0
10
74.4755199999999
20
49.8423880803759
30
0
0
VERTEX
8
0
10
75.1923199999999
20
49.8442948850904
30
0
0
VERTEX
8
0
10
75.9091199999998
20
49.8457370018068
30
0
0
VERTEX
8
0
10
76.6259199999999
20
49.8467000138938
30
0
0
VERTEX
8
0
10
77.3427199999998
20
49.8522616932172
30
0
0
VERTEX
8
0
10
78.0595199999999
20
49.8582177374792
30
0
0
VERTEX
8
0
10
78.7763199999998
20
49.8635834471219
30
0
0
VERTEX
8
0
10
79.4931199999998
20
49.8683466319864
30
0
0
VERTEX
8
0
10
80.2099199999998
20
49.8673629809777
30
0
0
VERTEX
8
0
10
80.9267199999998
20
49.8665030363348
30
0
0
VERTEX
8
0
10
81.6435199999998
20
49.8650593746391
30
0
0
VERTEX
8
0
10
82.3603199999998
20
49.8630216335994
30
0
0
VERTEX
8
0
10
83.0771199999998
20
49.8773881169483
30
0
0
VERTEX
8
0
10
83.7939199999998
20
49.8855270567541
30
0
0
VERTEX
8
0
10
84.5107199999998
20
49.8929107667761
30
0
0
VERTEX
8
0
10
85.2275199999998
20
49.9028893118823
30
0
0
VERTEX
8
0
10
85.9443199999998
20
49.9129664064422
30
0
0
VERTEX
8
0
10
86.6611199999998
20
49.9222210478383
30
0
0
VERTEX
8
0
10
87.3779199999998
20
49.9306470141436
30
0
0
VERTEX
8
0
10
88.0947199999998
20
49.9489953490911
30
0
0
VERTEX
8
0
10
88.8115199999998
20
49.9654060851272
30
0
0
VERTEX
8
0
10
89.5283199999998
20
49.9808785697242
30
0
0
VERTEX
8
0
10
90.2451199999998
20
49.9954090683504
30
0
0
VERTEX
8
0
10
90.9619199999998
20
50.001228755254
30
0
0
VERTEX
8
0
10
91.6787199999998
20
50.0084508813089
30
0
0
VERTEX
8
0
10
92.3955199999998
20
50.0147735952068
30
0
0
VERTEX
8
0
10
93.1123199999998
20
50.023162336561
30
0
0
VERTEX
8
0
10
93.8291199999998
20
50.031693874078
30
0
0
VERTEX
8
0
10
94.5459199999998
20
50.0392825657895
30
0
0
VERTEX
8
0
10
95.2627199999998
20
50.0459278496505
30
0
0
VERTEX
8
0
10
95.9795199999998
20
50.0557976415061
30
0
0
VERTEX
8
0
10
96.6963199999998
20
50.0644944383434
30
0
0
VERTEX
8
0
10
97.4131199999998
20
50.0722138721126
30
0
0
VERTEX
8
0
10
98.1299199999998
20
50.0789574660046
30
0
0
VERTEX
8
0
10
98.8467199999998
20
50.0900589123588
30
0
0
VERTEX
8
0
10
99.5635199999998
20
50.0987275893209
30
0
0
VERTEX
8
0
10
100.28032
20
50.1063959203893
30
0
0
VERTEX
8
0
10
100.99712
20
50.1121922993744
30
0
0
VERTEX
8
0
10
101.71392
20
50.1165920865497
30
0
0
VERTEX
8
0
10
102.43072
20
50.1200138386074
30
0
0
VERTEX
8
0
10
103.14752
20
50.1224624306728
30
0
0
VERTEX
8
0
10
103.86432
20
50.1239431949636
30
0
0
VERTEX
8
0
10
104.58112
20
50.1244619217114
30
0
0
VERTEX
8
0
10
105.29792
20
50.1240248602075
30
0
0
VERTEX
8
0
10
106.01472
20
50.1226387199751
30
0
0
VERTEX
8
0
10
106.73152
20
50.1219447966196
30
0
0
VERTEX
8
0
10
107.44832
20
50.1199179408505
30
0
0
VERTEX
8
0
10
108.16512
20
50.1169551245748
30
0
0
VERTEX
8
0
10
108.88192
20
50.113836591119
30
0
0
VERTEX
8
0
10
109.59872
20
50.1102530297773
30
0
0
VERTEX
8
0
10
110.31552
20
50.1057514178393
30
0
0
VERTEX
8
0
10
111.03232
20
50.1003418514807
30
0
0
VERTEX
8
0
10
111.74912
20
50.0906062104472
30
0
0
VERTEX
8
0
10
112.46592
20
50.0797991170894
30
0
0
VERTEX
8
0
10
113.18272
20
50.068145704093
30
0
0
VERTEX
8
0
10
113.89952
20
50.0556577957192
30
0
0
VERTEX
8
0
10
114.61632
20
50.0558621752579
30
0
0
VERTEX
8
0
10
115.33312
20
50.0524074928699
30
0
0
VERTEX
8
0
10
116.04992
20
50.0480804413275
30
0
0
VERTEX
8
0
10
116.76672
20
50.0428952758631
30
0
0
VERTEX
8
0
10
117.48352
20
50.0368667287885
30
0
0
VERTEX
8
0
10
118.20032
20
50.0300100122478
30
0
0
VERTEX
8
0
10
118.91712
20
50.0223408210463
30
0
0
VERTEX
8
0
10
119.63392
20
50.012835979114
30
0
0
VERTEX
8
0
10
120.35072
20
50.0024270084439
30
0
0
VERTEX
8
0
10
121.06752
20
49.9912626203946
30
0
0
VERTEX
8
0
10
121.78432
20
49.9793604235126
30
0
0
VERTEX
8
0
10
122.50112
20
49.9681298612235
30
0
0
VERTEX
8
0
10
123.21792
20
49.9559553836859
30
0
0
VERTEX
8
0
10
123.93472
20
49.9430920095737
30
0
0
VERTEX
8
0
10
124.65152
20
49.9295594069832
30
0
0
VERTEX
8
0
10
125.36832
20
49.9153777549551
30
0
0
VERTEX
8
0
10
126.08512
20
49.9005677468325
30
0
0
VERTEX
8
0
10
126.80192
20
49.8851505936397
30
0
0
VERTEX
8
0
10
127.51872
20
49.8700930828273
30
0
0
VERTEX
8
0
10
128.23552
20
49.8546541411747
30
0
0
VERTEX
8
0
10
128.95232
20
49.8386683588361
30
0
0
VERTEX
8
0
10
129.66912
20
49.8221590797766
30
0
0
VERTEX
8
0
10
130.38592
20
49.8167497365942
30
0
0
VERTEX
8
0
10
131.10272
20
49.8093067123722
30
0
0
VERTEX
8
0
10
131.81952
20
49.8013695260241
30
0
0
VERTEX
8
0
10
132.53632
20
49.7929638989295
30
0
0
VERTEX
8
0
10
133.25312
20
49.779217620195
30
0
0
VERTEX
8
0
10
133.96992
20
49.766625761886
30
0
0
VERTEX
8
0
10
134.68672
20
49.7536574612324
30
0
0
VERTEX
8
0
10
135.40352
20
49.7342904152607
30
0
0
VERTEX
8
0
10
136.12032
20
49.7129372276461
30
0
0
VERTEX
8
0
10
136.83712
20
49.6913302770046
30
0
0
VERTEX
8
0
10
137.55392
20
49.6694988917816
30
0
0
VERTEX
8
0
10
138.27072
20
49.6486719717196
30
0
0
VERTEX
8
0
10
138.98752
20
49.6275691863509
30
0
0
VERTEX
8
0
10
139.70432
20
49.6063270669608
30
0
0
VERTEX
8
0
10
140.42112
20
49.5849772246134
30
0
0
VERTEX
8
0
10
141.13792
20
49.5788353018502
30
0
0
VERTEX
8
0
10
141.85472
20
49.5681382140375
30
0
0
VERTEX
8
0
10
142.57152
20
49.5573849414638
30
0
0
VERTEX
8
0
10
143.28832
20
49.5434688354781
30
0
0
VERTEX
8
0
10
144.00512
20
49.5283870835494
30
0
0
VERTEX
8
0
10
144.72192
20
49.5133314159957
30
0
0
VERTEX
8
0
10
145.43872
20
49.498305180498
30
0
0
VERTEX
8
0
10
146.15552
20
49.479962957709
30
0
0
VERTEX
8
0
10
146.87232
20
49.4618022378952
30
0
0
VERTEX
8
0
10
147.58912
20
49.4436861925148
30
0
0
VERTEX
8
0
10
148.30592
20
49.4256148738565
30
0
0
VERTEX
8
0
10
149.02272
20
49.4176629957375
30
0
0
VERTEX
8
0
10
149.73952
20
49.4070653385972
30
0
0
VERTEX
8
0
10
150.45632
20
49.3964831924945
30
0
0
VERTEX
8
0
10
151.17312
20
49.3809404162716
30
0
0
VERTEX
8
0
10
151.88992
20
49.3630252584952
30
0
0
VERTEX
8
0
10
152.60672
20
49.3451550477108
30
0
0
VERTEX
8
0
10
153.32352
20
49.3273298327689
30
0
0
VERTEX
8
0
10
154.04032
20
49.3116160178749
30
0
0
VERTEX
8
0
10
154.75712
20
49.2959604473514
30
0
0
VERTEX
8
0
10
155.47392
20
49.2803400131764
30
0
0
VERTEX
8
0
10
156.19072
20
49.2647547487719
30
0
0
VERTEX
8
0
10
156.90752
20
49.2600189519017
30
0
0
VERTEX
8
0
10
157.62432
20
49.2527628748923
30
0
0
VERTEX
8
0
10
158.34112
20
49.2455144699506
30
0
0
VERTEX
8
0
10
159.05792
20
49.2357107941767
30
0
0
VERTEX
8
0
10
159.77472
20
49.2243522967434
30
0
0
VERTEX
8
0
10
160.49152
20
49.2130127774419
30
0
0
VERTEX
8
0
10
161.20832
20
49.2016922493938
30
0
0
VERTEX
8
0
10
161.92512
20
49.1830826181748
30
0
0
SEQEND
8
0
0
ENDSEC
0
EOF
