0
SECTION
2
HEADER
9
$ACADVER
1
AC1009
0
ENDSEC
0
SECTION
2
ENTITIES
0
POLYLINE
8
0
62
0
70
1
10
0
20
0
30
0
0
VERTEX
8
0
10
0
20
0
30
0
0
VERTEX
8
0
10
0
20
117.509
30
0
0
VERTEX
8
0
10
179.2
20
117.509
30
0
0
VERTEX
8
0
10
179.2
20
0
30
0
0
SEQEND
8
0
0
TEXT
8
0
62
0
10
0
20
-12
30
0
40
8
1
0
50
0
0
LINE
8
0
62
0
10
12.7871215418757
20
0
30
0
11
12.7871215418757
21
3.2
31
0
0
LINE
8
0
62
0
10
12.7871215418757
20
117.509
30
0
11
12.7871215418757
21
114.309
31
0
0
LINE
8
0
62
0
10
25.5742430837514
20
0
30
0
11
25.5742430837514
21
3.2
31
0
0
LINE
8
0
62
0
10
25.5742430837514
20
117.509
30
0
11
25.5742430837514
21
114.309
31
0
0
LINE
8
0
62
0
10
38.361364625627
20
0
30
0
11
38.361364625627
21
3.2
31
0
0
LINE
8
0
62
0
10
38.361364625627
20
117.509
30
0
11
38.361364625627
21
114.309
31
0
0
LINE
8
0
62
0
10
51.1484861675027
20
0
30
0
11
51.1484861675027
21
3.2
31
0
0
LINE
8
0
62
0
10
51.1484861675027
20
117.509
30
0
11
51.1484861675027
21
114.309
31
0
0
LINE
8
0
62
0
10
63.9356077093784
20
0
30
0
11
63.9356077093784
21
6.4
31
0
0
LINE
8
0
62
0
10
63.9356077093784
20
117.509
30
0
11
63.9356077093784
21
111.109
31
0
0
TEXT
8
0
62
0
10
63.9356077093784
20
-12
30
0
40
8
1
0.5
50
0
0
LINE
8
0
62
0
10
76.7227292512541
20
0
30
0
11
76.7227292512541
21
3.2
31
0
0
LINE
8
0
62
0
10
76.7227292512541
20
117.509
30
0
11
76.7227292512541
21
114.309
31
0
0
LINE
8
0
62
0
10
89.5098507931298
20
0
30
0
11
89.5098507931298
21
3.2
31
0
0
LINE
8
0
62
0
10
89.5098507931298
20
117.509
30
0
11
89.5098507931298
21
114.309
31
0
0
LINE
8
0
62
0
10
102.296972335005
20
0
30
0
11
102.296972335005
21
3.2
31
0
0
LINE
8
0
62
0
10
102.296972335005
20
117.509
30
0
11
102.296972335005
21
114.309
31
0
0
LINE
8
0
62
0
10
115.084093876881
20
0
30
0
11
115.084093876881
21
3.2
31
0
0
LINE
8
0
62
0
10
115.084093876881
20
117.509
30
0
11
115.084093876881
21
114.309
31
0
0
LINE
8
0
62
0
10
127.871215418757
20
0
30
0
11
127.871215418757
21
6.4
31
0
0
LINE
8
0
62
0
10
127.871215418757
20
117.509
30
0
11
127.871215418757
21
111.109
31
0
0
TEXT
8
0
62
0
10
127.871215418757
20
-12
30
0
40
8
1
1
50
0
0
LINE
8
0
62
0
10
140.658336960632
20
0
30
0
11
140.658336960632
21
3.2
31
0
0
LINE
8
0
62
0
10
140.658336960632
20
117.509
30
0
11
140.658336960632
21
114.309
31
0
0
LINE
8
0
62
0
10
153.445458502508
20
0
30
0
11
153.445458502508
21
3.2
31
0
0
LINE
8
0
62
0
10
153.445458502508
20
117.509
30
0
11
153.445458502508
21
114.309
31
0
0
LINE
8
0
62
0
10
166.232580044384
20
0
30
0
11
166.232580044384
21
3.2
31
0
0
LINE
8
0
62
0
10
166.232580044384
20
117.509
30
0
11
166.232580044384
21
114.309
31
0
0
LINE
8
0
62
0
10
179.01970158626
20
0
30
0
11
179.01970158626
21
3.2
31
0
0
LINE
8
0
62
0
10
179.01970158626
20
117.509
30
0
11
179.01970158626
21
114.309
31
0
0
TEXT
8
0
62
0
10
-4
20
-4
30
0
40
8
1
0
50
0
0
LINE
8
0
62
0
10
0
20
3.91696666666667
30
0
11
3.2
21
3.91696666666667
31
0
0
LINE
8
0
62
0
10
179.2
20
3.91696666666667
30
0
11
176
21
3.91696666666667
31
0
0
LINE
8
0
62
0
10
0
20
7.83393333333333
30
0
11
3.2
21
7.83393333333333
31
0
0
LINE
8
0
62
0
10
179.2
20
7.83393333333333
30
0
11
176
21
7.83393333333333
31
0
0
LINE
8
0
62
0
10
0
20
11.7509
30
0
11
3.2
21
11.7509
31
0
0
LINE
8
0
62
0
10
179.2
20
11.7509
30
0
11
176
21
11.7509
31
0
0
LINE
8
0
62
0
10
0
20
15.6678666666667
30
0
11
3.2
21
15.6678666666667
31
0
0
LINE
8
0
62
0
10
179.2
20
15.6678666666667
30
0
11
176
21
15.6678666666667
31
0
0
LINE
8
0
62
0
10
0
20
19.5848333333333
30
0
11
6.4
21
19.5848333333333
31
0
0
LINE
8
0
62
0
10
179.2
20
19.5848333333333
30
0
11
172.8
21
19.5848333333333
31
0
0
TEXT
8
0
62
0
10
-4
20
15.5848333333333
30
0
40
8
1
5
50
0
0
LINE
8
0
62
0
10
0
20
23.5018
30
0
11
3.2
21
23.5018
31
0
0
LINE
8
0
62
0
10
179.2
20
23.5018
30
0
11
176
21
23.5018
31
0
0
LINE
8
0
62
0
10
0
20
27.4187666666667
30
0
11
3.2
21
27.4187666666667
31
0
0
LINE
8
0
62
0
10
179.2
20
27.4187666666667
30
0
11
176
21
27.4187666666667
31
0
0
LINE
8
0
62
0
10
0
20
31.3357333333333
30
0
11
3.2
21
31.3357333333333
31
0
0
LINE
8
0
62
0
10
179.2
20
31.3357333333333
30
0
11
176
21
31.3357333333333
31
0
0
LINE
8
0
62
0
10
0
20
35.2527
30
0
11
3.2
21
35.2527
31
0
0
LINE
8
0
62
0
10
179.2
20
35.2527
30
0
11
176
21
35.2527
31
0
0
LINE
8
0
62
0
10
0
20
39.1696666666667
30
0
11
6.4
21
39.1696666666667
31
0
0
LINE
8
0
62
0
10
179.2
20
39.1696666666667
30
0
11
172.8
21
39.1696666666667
31
0
0
TEXT
8
0
62
0
10
-4
20
35.1696666666667
30
0
40
8
1
10
50
0
0
LINE
8
0
62
0
10
0
20
43.0866333333333
30
0
11
3.2
21
43.0866333333333
31
0
0
LINE
8
0
62
0
10
179.2
20
43.0866333333333
30
0
11
176
21
43.0866333333333
31
0
0
LINE
8
0
62
0
10
0
20
47.0036
30
0
11
3.2
21
47.0036
31
0
0
LINE
8
0
62
0
10
179.2
20
47.0036
30
0
11
176
21
47.0036
31
0
0
LINE
8
0
62
0
10
0
20
50.9205666666667
30
0
11
3.2
21
50.9205666666667
31
0
0
LINE
8
0
62
0
10
179.2
20
50.9205666666667
30
0
11
176
21
50.9205666666667
31
0
0
LINE
8
0
62
0
10
0
20
54.8375333333333
30
0
11
3.2
21
54.8375333333333
31
0
0
LINE
8
0
62
0
10
179.2
20
54.8375333333333
30
0
11
176
21
54.8375333333333
31
0
0
LINE
8
0
62
0
10
0
20
58.7545
30
0
11
6.4
21
58.7545
31
0
0
LINE
8
0
62
0
10
179.2
20
58.7545
30
0
11
172.8
21
58.7545
31
0
0
TEXT
8
0
62
0
10
-4
20
54.7545
30
0
40
8
1
15
50
0
0
LINE
8
0
62
0
10
0
20
62.6714666666667
30
0
11
3.2
21
62.6714666666667
31
0
0
LINE
8
0
62
0
10
179.2
20
62.6714666666667
30
0
11
176
21
62.6714666666667
31
0
0
LINE
8
0
62
0
10
0
20
66.5884333333333
30
0
11
3.2
21
66.5884333333333
31
0
0
LINE
8
0
62
0
10
179.2
20
66.5884333333333
30
0
11
176
21
66.5884333333333
31
0
0
LINE
8
0
62
0
10
0
20
70.5054
30
0
11
3.2
21
70.5054
31
0
0
LINE
8
0
62
0
10
179.2
20
70.5054
30
0
11
176
21
70.5054
31
0
0
LINE
8
0
62
0
10
0
20
74.4223666666667
30
0
11
3.2
21
74.4223666666667
31
0
0
LINE
8
0
62
0
10
179.2
20
74.4223666666667
30
0
11
176
21
74.4223666666667
31
0
0
LINE
8
0
62
0
10
0
20
78.3393333333333
30
0
11
6.4
21
78.3393333333333
31
0
0
LINE
8
0
62
0
10
179.2
20
78.3393333333333
30
0
11
172.8
21
78.3393333333333
31
0
0
TEXT
8
0
62
0
10
-4
20
74.3393333333333
30
0
40
8
1
20
50
0
0
LINE
8
0
62
0
10
0
20
82.2563
30
0
11
3.2
21
82.2563
31
0
0
LINE
8
0
62
0
10
179.2
20
82.2563
30
0
11
176
21
82.2563
31
0
0
LINE
8
0
62
0
10
0
20
86.1732666666667
30
0
11
3.2
21
86.1732666666667
31
0
0
LINE
8
0
62
0
10
179.2
20
86.1732666666667
30
0
11
176
21
86.1732666666667
31
0
0
LINE
8
0
62
0
10
0
20
90.0902333333333
30
0
11
3.2
21
90.0902333333333
31
0
0
LINE
8
0
62
0
10
179.2
20
90.0902333333333
30
0
11
176
21
90.0902333333333
31
0
0
LINE
8
0
62
0
10
0
20
94.0072
30
0
11
3.2
21
94.0072
31
0
0
LINE
8
0
62
0
10
179.2
20
94.0072
30
0
11
176
21
94.0072
31
0
0
LINE
8
0
62
0
10
0
20
97.9241666666667
30
0
11
6.4
21
97.9241666666667
31
0
0
LINE
8
0
62
0
10
179.2
20
97.9241666666667
30
0
11
172.8
21
97.9241666666667
31
0
0
TEXT
8
0
62
0
10
-4
20
93.9241666666667
30
0
40
8
1
25
50
0
0
LINE
8
0
62
0
10
0
20
101.841133333333
30
0
11
3.2
21
101.841133333333
31
0
0
LINE
8
0
62
0
10
179.2
20
101.841133333333
30
0
11
176
21
101.841133333333
31
0
0
LINE
8
0
62
0
10
0
20
105.7581
30
0
11
3.2
21
105.7581
31
0
0
LINE
8
0
62
0
10
179.2
20
105.7581
30
0
11
176
21
105.7581
31
0
0
LINE
8
0
62
0
10
0
20
109.675066666667
30
0
11
3.2
21
109.675066666667
31
0
0
LINE
8
0
62
0
10
179.2
20
109.675066666667
30
0
11
176
21
109.675066666667
31
0
0
LINE
8
0
62
0
10
0
20
113.592033333333
30
0
11
3.2
21
113.592033333333
31
0
0
LINE
8
0
62
0
10
179.2
20
113.592033333333
30
0
11
176
21
113.592033333333
31
0
0
TEXT
8
0
62
0
10
-4
20
113.509
30
0
40
8
1
30
50
0
0
TEXT
8
0
62
0
10
89.6
20
-32
30
0
40
10
1
R (kpc)
50
0
0
TEXT
8
0
62
0
10
-24
20
58.7545
30
0
40
10
1
V (km/s)
50
90
0
TEXT
8
0
62
0
10
72.6
20
132.509
30
0
40
11
1
V vs. R
50
0
0
POLYLINE
8
0
62
5
70
0
10
0
20
0
30
0
0
VERTEX
8
0
10
11.5084093876881
20
11.658841548444
30
0
0
VERTEX
8
0
10
12.7871215418757
20
12.5161523742788
30
0
0
VERTEX
8
0
10
14.0658336960632
20
13.3734632001135
30
0
0
VERTEX
8
0
10
15.3445458502508
20
14.2307740259483
30
0
0
VERTEX
8
0
10
16.6232580044384
20
15.088084851783
30
0
0
VERTEX
8
0
10
17.901970158626
20
15.9406346444979
30
0
0
VERTEX
8
0
10
19.1806823128135
20
16.7926534281979
30
0
0
VERTEX
8
0
10
20.4593944670011
20
17.6579230972882
30
0
0
VERTEX
8
0
10
21.7381066211887
20
18.5258180073925
30
0
0
VERTEX
8
0
10
23.0168187753762
20
19.4018586984443
30
0
0
VERTEX
8
0
10
24.2955309295638
20
20.2803376928182
30
0
0
VERTEX
8
0
10
25.5742430837514
20
21.1401725914386
30
0
0
VERTEX
8
0
10
26.8529552379389
20
21.9921913751386
30
0
0
VERTEX
8
0
10
28.1316673921265
20
22.8408254110109
30
0
0
VERTEX
8
0
10
29.4103795463141
20
23.6875521525761
30
0
0
VERTEX
8
0
10
30.6890917005016
20
24.300146803288
30
0
0
VERTEX
8
0
10
31.9678038546892
20
24.7393863004749
30
0
0
VERTEX
8
0
10
33.2465160088768
20
25.0357057230405
30
0
0
VERTEX
8
0
10
34.5252281630643
20
25.1944669870839
30
0
0
VERTEX
8
0
10
35.8039403172519
20
25.3532282511274
30
0
0
VERTEX
8
0
10
37.0826524714395
20
25.5655015471237
30
0
0
VERTEX
8
0
10
38.3613646256271
20
25.7613071061107
30
0
0
VERTEX
8
0
10
39.6400767798146
20
25.9206101417466
30
0
0
VERTEX
8
0
10
40.9187889340022
20
26.0899554900596
30
0
0
VERTEX
8
0
10
42.1975010881898
20
26.273213705067
30
0
0
VERTEX
8
0
10
43.4762132423773
20
26.4531431376496
30
0
0
VERTEX
8
0
10
44.7549253965649
20
26.6330725702322
30
0
0
VERTEX
8
0
10
46.0336375507525
20
26.8130020028148
30
0
0
VERTEX
8
0
10
47.31234970494
20
27.0054680167995
30
0
0
VERTEX
8
0
10
48.5910618591276
20
27.1959815336516
30
0
0
VERTEX
8
0
10
49.8697740133152
20
27.3154044179677
30
0
0
VERTEX
8
0
10
51.1484861675027
20
27.4424134292025
30
0
0
VERTEX
8
0
10
52.4271983216903
20
27.4745599235031
30
0
0
VERTEX
8
0
10
53.7059104758779
20
27.5116042184466
30
0
0
VERTEX
8
0
10
54.9846226300655
20
27.4753434391435
30
0
0
VERTEX
8
0
10
56.263334784253
20
27.4382991442
30
0
0
VERTEX
8
0
10
57.5420469384406
20
27.3621188059858
30
0
0
VERTEX
8
0
10
58.8207590926282
20
27.282738173964
30
0
0
VERTEX
8
0
10
60.0994712468157
20
27.2715765532292
30
0
0
VERTEX
8
0
10
61.3781834010033
20
27.2715765532292
30
0
0
VERTEX
8
0
10
62.6568955551909
20
27.2295379256018
30
0
0
VERTEX
8
0
10
63.9356077093784
20
27.176617504254
30
0
0
VERTEX
8
0
10
65.214319863566
20
27.1159775000268
30
0
0
VERTEX
8
0
10
66.4930320177536
20
27.0524729944094
30
0
0
VERTEX
8
0
10
67.7717441719411
20
27.0311571301916
30
0
0
VERTEX
8
0
10
69.0504563261287
20
27.0311571301916
30
0
0
VERTEX
8
0
10
70.3291684803163
20
26.989925695875
30
0
0
VERTEX
8
0
10
71.6078806345038
20
26.9211291481229
30
0
0
VERTEX
8
0
10
72.8865927886914
20
26.8608153327823
30
0
0
VERTEX
8
0
10
74.165304942879
20
26.8078949114345
30
0
0
VERTEX
8
0
10
75.4440170970665
20
26.7549744900866
30
0
0
VERTEX
8
0
10
76.7227292512541
20
26.6165230376339
30
0
0
VERTEX
8
0
10
78.0014414054417
20
26.5053901528035
30
0
0
VERTEX
8
0
10
79.2801535596293
20
26.4091202218915
30
0
0
VERTEX
8
0
10
80.5588657138168
20
26.3085714213306
30
0
0
VERTEX
8
0
10
81.8375778680044
20
26.2151100264059
30
0
0
VERTEX
8
0
10
83.116290022192
20
26.1198532679798
30
0
0
VERTEX
8
0
10
84.3950021763795
20
26.0245965095538
30
0
0
VERTEX
8
0
10
85.6737143305671
20
25.9293397511277
30
0
0
VERTEX
8
0
10
86.9524264847547
20
25.8340829927016
30
0
0
VERTEX
8
0
10
88.2311386389422
20
25.7388262342755
30
0
0
VERTEX
8
0
10
89.5098507931298
20
25.6435694758494
30
0
0
VERTEX
8
0
10
90.7885629473174
20
25.5483127174234
30
0
0
VERTEX
8
0
10
92.0672751015049
20
25.4416337183094
30
0
0
VERTEX
8
0
10
93.3459872556925
20
25.3357928756137
30
0
0
VERTEX
8
0
10
94.6246994098801
20
25.2192179348763
30
0
0
VERTEX
8
0
10
95.9034115640677
20
25.1027930079111
30
0
0
VERTEX
8
0
10
97.1821237182552
20
24.9863680809459
30
0
0
VERTEX
8
0
10
98.4608358724428
20
24.8699431539807
30
0
0
VERTEX
8
0
10
99.7395480266304
20
24.7535182270154
30
0
0
VERTEX
8
0
10
101.018260180818
20
24.6370933000502
30
0
0
VERTEX
8
0
10
102.296972335006
20
24.5119987029815
30
0
0
VERTEX
8
0
10
103.575684489193
20
24.3849896917468
30
0
0
VERTEX
8
0
10
104.854396643381
20
24.2659622079694
30
0
0
VERTEX
8
0
10
106.133108797568
20
24.1495372810041
30
0
0
VERTEX
8
0
10
107.411820951756
20
24.0331123540389
30
0
0
VERTEX
8
0
10
108.690533105943
20
23.9166874270737
30
0
0
VERTEX
8
0
10
109.969245260131
20
23.8002625001085
30
0
0
VERTEX
8
0
10
111.247957414318
20
23.6838375731433
30
0
0
VERTEX
8
0
10
112.526669568506
20
23.5674126461781
30
0
0
VERTEX
8
0
10
113.805381722694
20
23.4509877192129
30
0
0
VERTEX
8
0
10
115.084093876881
20
23.3345627922477
30
0
0
VERTEX
8
0
10
116.362806031069
20
23.2181378652824
30
0
0
VERTEX
8
0
10
117.641518185256
20
23.1017129383172
30
0
0
VERTEX
8
0
10
118.920230339444
20
22.9928504606002
30
0
0
VERTEX
8
0
10
120.198942493631
20
22.8817175757698
30
0
0
VERTEX
8
0
10
121.477654647819
20
22.7705846909394
30
0
0
VERTEX
8
0
10
122.756366802007
20
22.6594518061089
30
0
0
VERTEX
8
0
10
124.035078956194
20
22.5414446146764
30
0
0
VERTEX
8
0
10
125.313791110382
20
22.4250196877112
30
0
0
VERTEX
8
0
10
126.592503264569
20
22.315124996025
30
0
0
VERTEX
8
0
10
127.871215418757
20
22.2039921111946
30
0
0
VERTEX
8
0
10
129.149927572944
20
22.0928592263642
30
0
0
VERTEX
8
0
10
130.428639727132
20
21.9817263415337
30
0
0
VERTEX
8
0
10
131.70735188132
20
21.8647513640704
30
0
0
VERTEX
8
0
10
132.986064035507
20
21.7483264371052
30
0
0
VERTEX
8
0
10
134.264776189695
20
21.6428975527597
30
0
0
VERTEX
8
0
10
135.543488343882
20
21.5370567100641
30
0
0
VERTEX
8
0
10
136.82220049807
20
21.4312158673684
30
0
0
VERTEX
8
0
10
138.100912652257
20
21.3253750246728
30
0
0
VERTEX
8
0
10
139.379624806445
20
21.2291539393047
30
0
0
VERTEX
8
0
10
140.658336960633
20
21.1338971808786
30
0
0
VERTEX
8
0
10
141.93704911482
20
21.0386404224525
30
0
0
VERTEX
8
0
10
143.215761269008
20
20.9433836640265
30
0
0
VERTEX
8
0
10
144.494473423195
20
20.8481269056004
30
0
0
VERTEX
8
0
10
145.773185577383
20
20.7528701471743
30
0
0
VERTEX
8
0
10
147.05189773157
20
20.6576133887482
30
0
0
VERTEX
8
0
10
148.330609885758
20
20.5623566303221
30
0
0
VERTEX
8
0
10
149.609322039946
20
20.4602326851529
30
0
0
VERTEX
8
0
10
150.888034194133
20
20.3543918424573
30
0
0
VERTEX
8
0
10
152.166746348321
20
20.2516405218101
30
0
0
VERTEX
8
0
10
153.445458502508
20
20.1510917212493
30
0
0
VERTEX
8
0
10
154.724170656696
20
20.0841218949461
30
0
0
SEQEND
8
0
0
POLYLINE
8
0
62
6
70
0
10
0
20
0
30
0
0
VERTEX
8
0
10
11.5084093876881
20
6.47648299325112
30
0
0
VERTEX
8
0
10
12.7871215418757
20
7.18561663931196
30
0
0
VERTEX
8
0
10
14.0658336960632
20
7.89475028537279
30
0
0
VERTEX
8
0
10
15.3445458502508
20
8.6282782239662
30
0
0
VERTEX
8
0
10
16.6232580044384
20
9.35858003856618
30
0
0
VERTEX
8
0
10
17.901970158626
20
10.0888818531661
30
0
0
VERTEX
8
0
10
19.1806823128135
20
10.8191836677661
30
0
0
VERTEX
8
0
10
20.4593944670011
20
11.5494854823661
30
0
0
VERTEX
8
0
10
21.7381066211887
20
12.279787296966
30
0
0
VERTEX
8
0
10
23.0168187753762
20
13.010089111566
30
0
0
VERTEX
8
0
10
24.2955309295638
20
13.740390926166
30
0
0
VERTEX
8
0
10
25.5742430837514
20
14.4801373164478
30
0
0
VERTEX
8
0
10
26.8529552379389
20
15.2210232153174
30
0
0
VERTEX
8
0
10
28.1316673921265
20
15.9400180315975
30
0
0
VERTEX
8
0
10
29.4103795463141
20
16.6544437197931
30
0
0
VERTEX
8
0
10
30.6890917005016
20
17.3688694079887
30
0
0
VERTEX
8
0
10
31.9678038546892
20
18.0832950961844
30
0
0
VERTEX
8
0
10
33.2465160088768
20
18.7792704150211
30
0
0
VERTEX
8
0
10
34.5252281630643
20
19.4672358925428
30
0
0
VERTEX
8
0
10
35.8039403172519
20
20.1485093649671
30
0
0
VERTEX
8
0
10
37.0826524714395
20
20.8258907582192
30
0
0
VERTEX
8
0
10
38.3613646256271
20
21.5122779451484
30
0
0
VERTEX
8
0
10
39.6400767798146
20
22.2055354648049
30
0
0
VERTEX
8
0
10
40.9187889340022
20
22.8961351245588
30
0
0
VERTEX
8
0
10
42.1975010881898
20
23.5841006020805
30
0
0
VERTEX
8
0
10
43.4762132423773
20
24.2720660796022
30
0
0
VERTEX
8
0
10
44.7549253965649
20
24.9638344724811
30
0
0
VERTEX
8
0
10
46.0336375507525
20
25.6544459710702
30
0
0
VERTEX
8
0
10
47.31234970494
20
26.265178116355
30
0
0
VERTEX
8
0
10
48.5910618591276
20
26.8975771514615
30
0
0
VERTEX
8
0
10
49.8697740133152
20
27.7548010487859
30
0
0
VERTEX
8
0
10
51.1484861675027
20
28.5591914532728
30
0
0
VERTEX
8
0
10
52.4271983216903
20
28.9494440028128
30
0
0
VERTEX
8
0
10
53.7059104758779
20
29.4204357528084
30
0
0
VERTEX
8
0
10
54.9846226300655
20
29.9163456844926
30
0
0
VERTEX
8
0
10
56.263334784253
20
30.4085056030274
30
0
0
VERTEX
8
0
10
57.5420469384406
20
30.8888945733639
30
0
0
VERTEX
8
0
10
58.8207590926282
20
31.3704704076291
30
0
0
VERTEX
8
0
10
60.0994712468157
20
31.8575876446704
30
0
0
VERTEX
8
0
10
61.3781834010033
20
32.3444555210704
30
0
0
VERTEX
8
0
10
62.6568955551909
20
32.8209287345644
30
0
0
VERTEX
8
0
10
63.9356077093784
20
33.2972125266948
30
0
0
VERTEX
8
0
10
65.214319863566
20
33.7832028390851
30
0
0
VERTEX
8
0
10
66.4930320177536
20
34.2700707154851
30
0
0
VERTEX
8
0
10
67.7717441719411
20
34.7479202142713
30
0
0
VERTEX
8
0
10
69.0504563261287
20
35.2242040064017
30
0
0
VERTEX
8
0
10
70.3291684803163
20
35.7088180334998
30
0
0
VERTEX
8
0
10
71.6078806345038
20
36.1956859098997
30
0
0
VERTEX
8
0
10
72.8865927886914
20
36.6175960015666
30
0
0
VERTEX
8
0
10
74.165304942879
20
37.0144991616753
30
0
0
VERTEX
8
0
10
75.4440170970665
20
37.3557707243805
30
0
0
VERTEX
8
0
10
76.7227292512541
20
37.6680012103326
30
0
0
VERTEX
8
0
10
78.0014414054417
20
37.9739658892555
30
0
0
VERTEX
8
0
10
79.2801535596293
20
38.2756122909381
30
0
0
VERTEX
8
0
10
80.5588657138168
20
38.5800475248123
30
0
0
VERTEX
8
0
10
81.8375778680044
20
38.8869859686297
30
0
0
VERTEX
8
0
10
83.116290022192
20
39.1939244124471
30
0
0
VERTEX
8
0
10
84.3950021763795
20
39.5008628562644
30
0
0
VERTEX
8
0
10
85.6737143305671
20
39.8078013000818
30
0
0
VERTEX
8
0
10
86.9524264847547
20
40.1073470122189
30
0
0
VERTEX
8
0
10
88.2311386389422
20
40.4089934139015
30
0
0
VERTEX
8
0
10
89.5098507931298
20
40.7247371362986
30
0
0
VERTEX
8
0
10
90.7885629473174
20
41.0369676222507
30
0
0
VERTEX
8
0
10
92.0672751015049
20
41.3290843411003
30
0
0
VERTEX
8
0
10
93.3459872556925
20
41.6254387006482
30
0
0
VERTEX
8
0
10
94.6246994098801
20
41.8391063299512
30
0
0
VERTEX
8
0
10
95.9034115640677
20
42.0666641417469
30
0
0
VERTEX
8
0
10
97.1821237182552
20
42.2220245968855
30
0
0
VERTEX
8
0
10
98.4608358724428
20
42.3860779030638
30
0
0
VERTEX
8
0
10
99.7395480266304
20
42.5728207095022
30
0
0
VERTEX
8
0
10
101.018260180818
20
42.7580421842195
30
0
0
VERTEX
8
0
10
102.296972335006
20
42.916622140227
30
0
0
VERTEX
8
0
10
103.575684489193
20
43.0753834042705
30
0
0
VERTEX
8
0
10
104.854396643381
20
43.2640500628275
30
0
0
VERTEX
8
0
10
106.133108797568
20
43.4545635796797
30
0
0
VERTEX
8
0
10
107.411820951756
20
43.6125959688608
30
0
0
VERTEX
8
0
10
108.690533105943
20
43.7660651907695
30
0
0
VERTEX
8
0
10
109.969245260131
20
43.9496070410879
30
0
0
VERTEX
8
0
10
111.247957414318
20
44.14012055794
30
0
0
VERTEX
8
0
10
112.526669568506
20
44.3029699456438
30
0
0
VERTEX
8
0
10
113.805381722694
20
44.4564391675525
30
0
0
VERTEX
8
0
10
115.084093876881
20
44.6243401779681
30
0
0
VERTEX
8
0
10
116.362806031069
20
44.7989775684159
30
0
0
VERTEX
8
0
10
117.641518185256
20
44.9540317040417
30
0
0
VERTEX
8
0
10
118.920230339444
20
45.0969168416809
30
0
0
VERTEX
8
0
10
120.198942493631
20
45.23980197932
30
0
0
VERTEX
8
0
10
121.477654647819
20
45.3826871169591
30
0
0
VERTEX
8
0
10
122.756366802007
20
45.5255722545982
30
0
0
VERTEX
8
0
10
124.035078956194
20
45.6763251675297
30
0
0
VERTEX
8
0
10
125.313791110382
20
45.8245023473036
30
0
0
VERTEX
8
0
10
126.592503264569
20
45.9952506389854
30
0
0
VERTEX
8
0
10
127.871215418757
20
46.1593039451636
30
0
0
VERTEX
8
0
10
129.149927572944
20
46.2874590881107
30
0
0
VERTEX
8
0
10
130.428639727132
20
46.4250521836151
30
0
0
VERTEX
8
0
10
131.70735188132
20
46.5694808404426
30
0
0
VERTEX
8
0
10
132.986064035507
20
46.7123659780817
30
0
0
VERTEX
8
0
10
134.264776189695
20
46.8552511157208
30
0
0
VERTEX
8
0
10
135.543488343882
20
46.99813625336
30
0
0
VERTEX
8
0
10
136.82220049807
20
47.1102842976137
30
0
0
VERTEX
8
0
10
138.100912652257
20
47.2267092245789
30
0
0
VERTEX
8
0
10
139.379624806445
20
47.325724109482
30
0
0
VERTEX
8
0
10
140.658336960633
20
47.4262729100429
30
0
0
VERTEX
8
0
10
141.93704911482
20
47.5268217106038
30
0
0
VERTEX
8
0
10
143.215761269008
20
47.6273705111646
30
0
0
VERTEX
8
0
10
144.494473423195
20
47.7228041070176
30
0
0
VERTEX
8
0
10
145.773185577383
20
47.8180608654437
30
0
0
VERTEX
8
0
10
147.05189773157
20
47.9133176238697
30
0
0
VERTEX
8
0
10
148.330609885758
20
48.0085743822958
30
0
0
VERTEX
8
0
10
149.609322039946
20
48.1038311407219
30
0
0
VERTEX
8
0
10
150.888034194133
20
48.199087899148
30
0
0
VERTEX
8
0
10
152.166746348321
20
48.3025106390516
30
0
0
VERTEX
8
0
10
153.445458502508
20
48.4083514817473
30
0
0
VERTEX
8
0
10
154.724170656696
20
48.5412549792614
30
0
0
SEQEND
8
0
0
POLYLINE
8
0
62
6
70
0
10
0
20
0
30
0
0
VERTEX
8
0
10
11.5084093876881
20
9.15014920123925
30
0
0
VERTEX
8
0
10
12.7871215418757
20
9.90880063127349
30
0
0
VERTEX
8
0
10
14.0658336960632
20
10.6674520613077
30
0
0
VERTEX
8
0
10
15.3445458502508
20
11.426103491342
30
0
0
VERTEX
8
0
10
16.6232580044384
20
12.1847549213762
30
0
0
VERTEX
8
0
10
17.901970158626
20
12.9434063514105
30
0
0
VERTEX
8
0
10
19.1806823128135
20
13.7020577814447
30
0
0
VERTEX
8
0
10
20.4593944670011
20
14.4607092114789
30
0
0
VERTEX
8
0
10
21.7381066211887
20
15.2193606415132
30
0
0
VERTEX
8
0
10
23.0168187753762
20
15.9780120715474
30
0
0
VERTEX
8
0
10
24.2955309295638
20
16.7366635015817
30
0
0
VERTEX
8
0
10
25.5742430837514
20
17.4953149316159
30
0
0
VERTEX
8
0
10
26.8529552379389
20
18.2539663616501
30
0
0
VERTEX
8
0
10
28.1316673921265
20
19.0126177916844
30
0
0
VERTEX
8
0
10
29.4103795463141
20
19.7712692217186
30
0
0
VERTEX
8
0
10
30.6890917005016
20
20.5299206517529
30
0
0
VERTEX
8
0
10
31.9678038546892
20
21.2885720817871
30
0
0
VERTEX
8
0
10
33.2465160088768
20
22.0472235118213
30
0
0
VERTEX
8
0
10
34.5252281630643
20
22.8058749418556
30
0
0
VERTEX
8
0
10
35.8039403172519
20
23.5645263718898
30
0
0
VERTEX
8
0
10
37.0826524714395
20
24.3231778019241
30
0
0
VERTEX
8
0
10
38.3613646256271
20
25.0818292319583
30
0
0
VERTEX
8
0
10
39.6400767798146
20
25.8404806619925
30
0
0
VERTEX
8
0
10
40.9187889340022
20
26.5991320920268
30
0
0
VERTEX
8
0
10
42.1975010881898
20
27.357783522061
30
0
0
VERTEX
8
0
10
43.4762132423773
20
28.1164349520953
30
0
0
VERTEX
8
0
10
44.7549253965649
20
28.8750863821295
30
0
0
VERTEX
8
0
10
46.0336375507525
20
29.6337378121638
30
0
0
VERTEX
8
0
10
47.31234970494
20
30.392389242198
30
0
0
VERTEX
8
0
10
48.5910618591276
20
31.1510406722322
30
0
0
VERTEX
8
0
10
49.8697740133152
20
31.9133997254559
30
0
0
VERTEX
8
0
10
51.1484861675027
20
32.6781342711949
30
0
0
VERTEX
8
0
10
52.4271983216903
20
33.4428688169339
30
0
0
VERTEX
8
0
10
53.7059104758779
20
34.2076033626728
30
0
0
VERTEX
8
0
10
54.9846226300655
20
34.9723379084118
30
0
0
VERTEX
8
0
10
56.263334784253
20
35.7370724541508
30
0
0
VERTEX
8
0
10
57.5420469384406
20
36.5018069998898
30
0
0
VERTEX
8
0
10
58.8207590926282
20
37.2665415456288
30
0
0
VERTEX
8
0
10
60.0994712468157
20
38.0312760913677
30
0
0
VERTEX
8
0
10
61.3781834010033
20
38.8247582920713
30
0
0
VERTEX
8
0
10
62.6568955551909
20
39.6293227620675
30
0
0
VERTEX
8
0
10
63.9356077093784
20
40.4338872320637
30
0
0
VERTEX
8
0
10
65.214319863566
20
41.23845170206
30
0
0
VERTEX
8
0
10
66.4930320177536
20
42.0430161720562
30
0
0
VERTEX
8
0
10
67.7717441719411
20
42.8475806420524
30
0
0
VERTEX
8
0
10
69.0504563261287
20
43.6521451120486
30
0
0
VERTEX
8
0
10
70.3291684803163
20
44.4567095820448
30
0
0
VERTEX
8
0
10
71.6078806345038
20
45.261274052041
30
0
0
VERTEX
8
0
10
72.8865927886914
20
46.062516601466
30
0
0
VERTEX
8
0
10
74.165304942879
20
46.8630980790365
30
0
0
VERTEX
8
0
10
75.4440170970665
20
47.663679556607
30
0
0
VERTEX
8
0
10
76.7227292512541
20
48.4642610341775
30
0
0
VERTEX
8
0
10
78.0014414054417
20
49.264842511748
30
0
0
VERTEX
8
0
10
79.2801535596293
20
50.0654239893185
30
0
0
VERTEX
8
0
10
80.5588657138168
20
50.866005466889
30
0
0
VERTEX
8
0
10
81.8375778680044
20
51.6665869444595
30
0
0
VERTEX
8
0
10
83.116290022192
20
52.46716842203
30
0
0
VERTEX
8
0
10
84.3950021763795
20
53.2715189752466
30
0
0
VERTEX
8
0
10
85.6737143305671
20
54.0760834452428
30
0
0
VERTEX
8
0
10
86.9524264847547
20
54.880647915239
30
0
0
VERTEX
8
0
10
88.2311386389422
20
55.6852123852353
30
0
0
VERTEX
8
0
10
89.5098507931298
20
56.4897768552315
30
0
0
VERTEX
8
0
10
90.7885629473174
20
57.2943413252277
30
0
0
VERTEX
8
0
10
92.0672751015049
20
58.0989057952239
30
0
0
VERTEX
8
0
10
93.3459872556925
20
58.9034702652201
30
0
0
VERTEX
8
0
10
94.6246994098801
20
59.7080347352164
30
0
0
VERTEX
8
0
10
95.9034115640677
20
60.4701706097473
30
0
0
VERTEX
8
0
10
97.1821237182552
20
61.2346535980699
30
0
0
VERTEX
8
0
10
98.4608358724428
20
61.9991365863925
30
0
0
VERTEX
8
0
10
99.7395480266304
20
62.7636195747151
30
0
0
VERTEX
8
0
10
101.018260180818
20
63.5281025630377
30
0
0
VERTEX
8
0
10
102.296972335006
20
64.2925855513603
30
0
0
VERTEX
8
0
10
103.575684489193
20
65.057068539683
30
0
0
VERTEX
8
0
10
104.854396643381
20
65.8215515280056
30
0
0
VERTEX
8
0
10
106.133108797568
20
66.5860345163282
30
0
0
VERTEX
8
0
10
107.411820951756
20
67.3219037637694
30
0
0
VERTEX
8
0
10
108.690533105943
20
68.0441251061433
30
0
0
VERTEX
8
0
10
109.969245260131
20
68.7663464485172
30
0
0
VERTEX
8
0
10
111.247957414318
20
69.488567790891
30
0
0
VERTEX
8
0
10
112.526669568506
20
70.2107891332649
30
0
0
VERTEX
8
0
10
113.805381722694
20
70.9330104756388
30
0
0
VERTEX
8
0
10
115.084093876881
20
71.6552318180127
30
0
0
VERTEX
8
0
10
116.362806031069
20
72.3774531603866
30
0
0
VERTEX
8
0
10
117.641518185256
20
73.0996745027605
30
0
0
VERTEX
8
0
10
118.920230339444
20
73.8218958451344
30
0
0
VERTEX
8
0
10
120.198942493631
20
74.5558499090855
30
0
0
VERTEX
8
0
10
121.477654647819
20
75.2871273184484
30
0
0
VERTEX
8
0
10
122.756366802007
20
76.0184047278113
30
0
0
VERTEX
8
0
10
124.035078956194
20
76.7496821371742
30
0
0
VERTEX
8
0
10
125.313791110382
20
77.4809595465371
30
0
0
VERTEX
8
0
10
126.592503264569
20
78.2122369559
30
0
0
VERTEX
8
0
10
127.871215418757
20
78.9435143652629
30
0
0
VERTEX
8
0
10
129.149927572944
20
79.6747917746258
30
0
0
VERTEX
8
0
10
130.428639727132
20
80.4060691839887
30
0
0
VERTEX
8
0
10
131.70735188132
20
81.1235846506655
30
0
0
VERTEX
8
0
10
132.986064035507
20
81.8398063486592
30
0
0
VERTEX
8
0
10
134.264776189695
20
82.5560280466529
30
0
0
VERTEX
8
0
10
135.543488343882
20
83.2722497446465
30
0
0
VERTEX
8
0
10
136.82220049807
20
83.9884714426402
30
0
0
VERTEX
8
0
10
138.100912652257
20
84.7046931406338
30
0
0
VERTEX
8
0
10
139.379624806445
20
85.4209148386275
30
0
0
VERTEX
8
0
10
140.658336960633
20
86.1371365366212
30
0
0
VERTEX
8
0
10
141.93704911482
20
86.8533582346148
30
0
0
VERTEX
8
0
10
143.215761269008
20
87.5695799326085
30
0
0
VERTEX
8
0
10
144.494473423195
20
88.2623416396017
30
0
0
VERTEX
8
0
10
145.773185577383
20
88.9559797705415
30
0
0
VERTEX
8
0
10
147.05189773157
20
89.6496179014813
30
0
0
VERTEX
8
0
10
148.330609885758
20
90.3432560324211
30
0
0
VERTEX
8
0
10
149.609322039946
20
91.0368941633609
30
0
0
VERTEX
8
0
10
150.888034194133
20
91.7305322943007
30
0
0
VERTEX
8
0
10
152.166746348321
20
92.4241704252405
30
0
0
VERTEX
8
0
10
153.445458502508
20
93.1178085561804
30
0
0
VERTEX
8
0
10
154.724170656696
20
93.8114466871202
30
0
0
SEQEND
8
0
0
POLYLINE
8
0
62
1
70
0
10
0
20
0
30
0
0
VERTEX
8
0
10
11.5084093876881
20
13.33691936744
30
0
0
VERTEX
8
0
10
12.7871215418757
20
14.4321570370933
30
0
0
VERTEX
8
0
10
14.0658336960632
20
15.5298615587256
30
0
0
VERTEX
8
0
10
15.3445458502508
20
16.6421787782662
30
0
0
VERTEX
8
0
10
16.6232580044384
20
17.7548113150451
30
0
0
VERTEX
8
0
10
17.901970158626
20
18.8650303449666
30
0
0
VERTEX
8
0
10
19.1806823128135
20
19.9761844303767
30
0
0
VERTEX
8
0
10
20.4593944670011
20
21.0995939064507
30
0
0
VERTEX
8
0
10
21.7381066211887
20
22.2260907246812
30
0
0
VERTEX
8
0
10
23.0168187753762
20
23.3601057284698
30
0
0
VERTEX
8
0
10
24.2955309295638
20
24.4967434517041
30
0
0
VERTEX
8
0
10
25.5742430837514
20
25.623841903567
30
0
0
VERTEX
8
0
10
26.8529552379389
20
26.7457665659811
30
0
0
VERTEX
8
0
10
28.1316673921265
20
27.8529617869256
30
0
0
VERTEX
8
0
10
29.4103795463141
20
28.9563572052282
30
0
0
VERTEX
8
0
10
30.6890917005016
20
29.8692945878056
30
0
0
VERTEX
8
0
10
31.9678038546892
20
30.6438051824478
30
0
0
VERTEX
8
0
10
33.2465160088768
20
31.2961268908977
30
0
0
VERTEX
8
0
10
34.5252281630643
20
31.8391965988335
30
0
0
VERTEX
8
0
10
35.8039403172519
20
32.3843884052784
30
0
0
VERTEX
8
0
10
37.0826524714395
20
32.9744233494578
30
0
0
VERTEX
8
0
10
38.3613646256271
20
33.562226478657
30
0
0
VERTEX
8
0
10
39.6400767798146
20
34.1315665535457
30
0
0
VERTEX
8
0
10
40.9187889340022
20
34.711940036756
30
0
0
VERTEX
8
0
10
42.1975010881898
20
35.305687354889
30
0
0
VERTEX
8
0
10
43.4762132423773
20
35.9012809469739
30
0
0
VERTEX
8
0
10
44.7549253965649
20
36.5036105899223
30
0
0
VERTEX
8
0
10
46.0336375507525
20
37.1091319554299
30
0
0
VERTEX
8
0
10
47.31234970494
20
37.6716721727379
30
0
0
VERTEX
8
0
10
48.5910618591276
20
38.2505041561225
30
0
0
VERTEX
8
0
10
49.8697740133152
20
38.9417552220597
30
0
0
VERTEX
8
0
10
51.1484861675027
20
39.6069876572804
30
0
0
VERTEX
8
0
10
52.4271983216903
20
39.9114238165235
30
0
0
VERTEX
8
0
10
53.7059104758779
20
40.2796525128703
30
0
0
VERTEX
8
0
10
54.9846226300655
20
40.618742425301
30
0
0
VERTEX
8
0
10
56.263334784253
20
40.957752293503
30
0
0
VERTEX
8
0
10
57.5420469384406
20
41.2651106083247
30
0
0
VERTEX
8
0
10
58.8207590926282
20
41.5746823904286
30
0
0
VERTEX
8
0
10
60.0994712468157
20
41.9361989006693
30
0
0
VERTEX
8
0
10
61.3781834010033
20
42.307241586437
30
0
0
VERTEX
8
0
10
62.6568955551909
20
42.6457629623523
30
0
0
VERTEX
8
0
10
63.9356077093784
20
42.9799127618985
30
0
0
VERTEX
8
0
10
65.214319863566
20
43.3195225025476
30
0
0
VERTEX
8
0
10
66.4930320177536
20
43.6608983182618
30
0
0
VERTEX
8
0
10
67.7717441719411
20
44.0238732395785
30
0
0
VERTEX
8
0
10
69.0504563261287
20
44.4007658006223
30
0
0
VERTEX
8
0
10
70.3291684803163
20
44.7613200701058
30
0
0
VERTEX
8
0
10
71.6078806345038
20
45.1095873745042
30
0
0
VERTEX
8
0
10
72.8865927886914
20
45.4131229632557
30
0
0
VERTEX
8
0
10
74.165304942879
20
45.7026955197631
30
0
0
VERTEX
8
0
10
75.4440170970665
20
45.9486916720995
30
0
0
VERTEX
8
0
10
76.7227292512541
20
46.122853487122
30
0
0
VERTEX
8
0
10
78.0014414054417
20
46.3093704611785
30
0
0
VERTEX
8
0
10
79.2801535596293
20
46.5023023853715
30
0
0
VERTEX
8
0
10
80.5588657138168
20
46.6964773537365
30
0
0
VERTEX
8
0
10
81.8375778680044
20
46.8980774810756
30
0
0
VERTEX
8
0
10
83.116290022192
20
47.1000047302483
30
0
0
VERTEX
8
0
10
84.3950021763795
20
47.30325348086
30
0
0
VERTEX
8
0
10
85.6737143305671
20
47.5078067719002
30
0
0
VERTEX
8
0
10
86.9524264847547
20
47.7074326330011
30
0
0
VERTEX
8
0
10
88.2311386389422
20
47.9100607873019
30
0
0
VERTEX
8
0
10
89.5098507931298
20
48.1258440994372
30
0
0
VERTEX
8
0
10
90.7885629473174
20
48.3399316749301
30
0
0
VERTEX
8
0
10
92.0672751015049
20
48.5321536584809
30
0
0
VERTEX
8
0
10
93.3459872556925
20
48.7296577830936
30
0
0
VERTEX
8
0
10
94.6246994098801
20
48.8520191162633
30
0
0
VERTEX
8
0
10
95.9034115640677
20
48.9872886452451
30
0
0
VERTEX
8
0
10
97.1821237182552
20
49.0613692321822
30
0
0
VERTEX
8
0
10
98.4608358724428
20
49.1436025591004
30
0
0
VERTEX
8
0
10
99.7395480266304
20
49.246134140444
30
0
0
VERTEX
8
0
10
101.018260180818
20
49.3481158475466
30
0
0
VERTEX
8
0
10
102.296972335006
20
49.4234209291708
30
0
0
VERTEX
8
0
10
103.575684489193
20
49.4986502613101
30
0
0
VERTEX
8
0
10
104.854396643381
20
49.6045859746601
30
0
0
VERTEX
8
0
10
106.133108797568
20
49.714175511488
30
0
0
VERTEX
8
0
10
107.411820951756
20
49.7960743087741
30
0
0
VERTEX
8
0
10
108.690533105943
20
49.8746067630315
30
0
0
VERTEX
8
0
10
109.969245260131
20
49.9802006212471
30
0
0
VERTEX
8
0
10
111.247957414318
20
50.0926581951938
30
0
0
VERTEX
8
0
10
112.526669568506
20
50.1814316738757
30
0
0
VERTEX
8
0
10
113.805381722694
20
50.2625487661039
30
0
0
VERTEX
8
0
10
115.084093876881
20
50.357060647186
30
0
0
VERTEX
8
0
10
116.362806031069
20
50.45820366508
30
0
0
VERTEX
8
0
10
117.641518185256
20
50.5425969567493
30
0
0
VERTEX
8
0
10
118.920230339444
20
50.6201845208905
30
0
0
VERTEX
8
0
10
120.198942493631
20
50.6972650381199
30
0
0
VERTEX
8
0
10
121.477654647819
20
50.7748738759935
30
0
0
VERTEX
8
0
10
122.756366802007
20
50.8530086156367
30
0
0
VERTEX
8
0
10
124.035078956194
20
50.9356791073451
30
0
0
VERTEX
8
0
10
125.313791110382
20
51.0173159169734
30
0
0
VERTEX
8
0
10
126.592503264569
20
51.1226748608805
30
0
0
VERTEX
8
0
10
127.871215418757
20
51.2220519539777
30
0
0
VERTEX
8
0
10
129.149927572944
20
51.289602236998
30
0
0
VERTEX
8
0
10
130.428639727132
20
51.3661538681402
30
0
0
VERTEX
8
0
10
131.70735188132
20
51.4469036771016
30
0
0
VERTEX
8
0
10
132.986064035507
20
51.5270301694667
30
0
0
VERTEX
8
0
10
134.264776189695
20
51.6123005842261
30
0
0
VERTEX
8
0
10
135.543488343882
20
51.6978686506697
30
0
0
VERTEX
8
0
10
136.82220049807
20
51.7559262322271
30
0
0
VERTEX
8
0
10
138.100912652257
20
51.818275580396
30
0
0
VERTEX
8
0
10
139.379624806445
20
51.8690769097109
30
0
0
VERTEX
8
0
10
140.658336960633
20
51.9219892934566
30
0
0
VERTEX
8
0
10
141.93704911482
20
51.975216908992
30
0
0
VERTEX
8
0
10
143.215761269008
20
52.0287587888311
30
0
0
VERTEX
8
0
10
144.494473423195
20
52.0779264881849
30
0
0
VERTEX
8
0
10
145.773185577383
20
52.1272343816239
30
0
0
VERTEX
8
0
10
147.05189773157
20
52.1768434906216
30
0
0
VERTEX
8
0
10
148.330609885758
20
52.2267529568227
30
0
0
VERTEX
8
0
10
149.609322039946
20
52.2742737103605
30
0
0
VERTEX
8
0
10
150.888034194133
20
52.3206779541902
30
0
0
VERTEX
8
0
10
152.166746348321
20
52.3761537138831
30
0
0
VERTEX
8
0
10
153.445458502508
20
52.4350549798375
30
0
0
VERTEX
8
0
10
154.724170656696
20
52.5321367093775
30
0
0
SEQEND
8
0
0
POLYLINE
8
0
62
2
70
0
10
0
20
0
30
0
0
VERTEX
8
0
10
11.5084093876881
20
13.33691936744
30
0
0
VERTEX
8
0
10
12.7871215418757
20
14.4321570370933
30
0
0
VERTEX
8
0
10
14.0658336960632
20
15.5298615587256
30
0
0
VERTEX
8
0
10
15.3445458502508
20
16.6421787782662
30
0
0
VERTEX
8
0
10
16.6232580044384
20
17.7548113150451
30
0
0
VERTEX
8
0
10
17.901970158626
20
18.8650303449666
30
0
0
VERTEX
8
0
10
19.1806823128135
20
19.9761844303767
30
0
0
VERTEX
8
0
10
20.4593944670011
20
21.0995939064507
30
0
0
VERTEX
8
0
10
21.7381066211887
20
22.2260907246812
30
0
0
VERTEX
8
0
10
23.0168187753762
20
23.3601057284698
30
0
0
VERTEX
8
0
10
24.2955309295638
20
24.4967434517041
30
0
0
VERTEX
8
0
10
25.5742430837514
20
25.623841903567
30
0
0
VERTEX
8
0
10
26.8529552379389
20
26.7457665659811
30
0
0
VERTEX
8
0
10
28.1316673921265
20
27.8529617869256
30
0
0
VERTEX
8
0
10
29.4103795463141
20
28.9563572052282
30
0
0
VERTEX
8
0
10
30.6890917005016
20
29.8692945878056
30
0
0
VERTEX
8
0
10
31.9678038546892
20
30.6438051824478
30
0
0
VERTEX
8
0
10
33.2465160088768
20
31.2961268908977
30
0
0
VERTEX
8
0
10
34.5252281630643
20
31.8391965988335
30
0
0
VERTEX
8
0
10
35.8039403172519
20
32.3843884052784
30
0
0
VERTEX
8
0
10
37.0826524714395
20
32.9744233494578
30
0
0
VERTEX
8
0
10
38.3613646256271
20
33.562226478657
30
0
0
VERTEX
8
0
10
39.6400767798146
20
34.1315665535457
30
0
0
VERTEX
8
0
10
40.9187889340022
20
34.711940036756
30
0
0
VERTEX
8
0
10
42.1975010881898
20
35.305687354889
30
0
0
VERTEX
8
0
10
43.4762132423773
20
35.9012809469739
30
0
0
VERTEX
8
0
10
44.7549253965649
20
36.5036105899223
30
0
0
VERTEX
8
0
10
46.0336375507525
20
37.1091319554299
30
0
0
VERTEX
8
0
10
47.31234970494
20
37.6716721727379
30
0
0
VERTEX
8
0
10
48.5910618591276
20
38.2505041561225
30
0
0
VERTEX
8
0
10
49.8697740133152
20
38.9417552220597
30
0
0
VERTEX
8
0
10
51.1484861675027
20
39.6069876572804
30
0
0
VERTEX
8
0
10
52.4271983216903
20
39.9114238165235
30
0
0
VERTEX
8
0
10
53.7059104758779
20
40.2796525128703
30
0
0
VERTEX
8
0
10
54.9846226300655
20
40.618742425301
30
0
0
VERTEX
8
0
10
56.263334784253
20
40.957752293503
30
0
0
VERTEX
8
0
10
57.5420469384406
20
41.2651106083247
30
0
0
VERTEX
8
0
10
58.8207590926282
20
41.5746823904285
30
0
0
VERTEX
8
0
10
60.0994712468157
20
41.9361989006693
30
0
0
VERTEX
8
0
10
61.3781834010033
20
42.307241586437
30
0
0
VERTEX
8
0
10
62.6568955551909
20
42.6457629623523
30
0
0
VERTEX
8
0
10
63.9356077093784
20
42.9799127618985
30
0
0
VERTEX
8
0
10
65.214319863566
20
43.3195225025476
30
0
0
VERTEX
8
0
10
66.4930320177536
20
43.6608983182618
30
0
0
VERTEX
8
0
10
67.7717441719411
20
44.0238732395785
30
0
0
VERTEX
8
0
10
69.0504563261287
20
44.4007658006224
30
0
0
VERTEX
8
0
10
70.3291684803163
20
44.7613200701058
30
0
0
VERTEX
8
0
10
71.6078806345038
20
45.1095873745042
30
0
0
VERTEX
8
0
10
72.8865927886914
20
45.4131229632557
30
0
0
VERTEX
8
0
10
74.165304942879
20
45.7026955197631
30
0
0
VERTEX
8
0
10
75.4440170970665
20
45.9486916720995
30
0
0
VERTEX
8
0
10
76.7227292512541
20
46.122853487122
30
0
0
VERTEX
8
0
10
78.0014414054417
20
46.3093704611785
30
0
0
VERTEX
8
0
10
79.2801535596293
20
46.5023023853715
30
0
0
VERTEX
8
0
10
80.5588657138168
20
46.6964773537365
30
0
0
VERTEX
8
0
10
81.8375778680044
20
46.8980774810756
30
0
0
VERTEX
8
0
10
83.116290022192
20
47.1000047302483
30
0
0
VERTEX
8
0
10
84.3950021763795
20
47.30325348086
30
0
0
VERTEX
8
0
10
85.6737143305671
20
47.5078067719002
30
0
0
VERTEX
8
0
10
86.9524264847547
20
47.7074326330011
30
0
0
VERTEX
8
0
10
88.2311386389422
20
47.9100607873019
30
0
0
VERTEX
8
0
10
89.5098507931298
20
48.1258440994372
30
0
0
VERTEX
8
0
10
90.7885629473174
20
48.3399316749301
30
0
0
VERTEX
8
0
10
92.0672751015049
20
48.5321536584809
30
0
0
VERTEX
8
0
10
93.3459872556925
20
48.7296577830936
30
0
0
VERTEX
8
0
10
94.6246994098801
20
48.8520191162633
30
0
0
VERTEX
8
0
10
95.9034115640677
20
48.9872886452451
30
0
0
VERTEX
8
0
10
97.1821237182552
20
49.0613692321822
30
0
0
VERTEX
8
0
10
98.4608358724428
20
49.1436025591004
30
0
0
VERTEX
8
0
10
99.7395480266304
20
49.246134140444
30
0
0
VERTEX
8
0
10
101.018260180818
20
49.3481158475466
30
0
0
VERTEX
8
0
10
102.296972335006
20
49.4234209291708
30
0
0
VERTEX
8
0
10
103.575684489193
20
49.4986502613101
30
0
0
VERTEX
8
0
10
104.854396643381
20
49.6045859746601
30
0
0
VERTEX
8
0
10
106.133108797568
20
49.714175511488
30
0
0
VERTEX
8
0
10
107.411820951756
20
49.7960743087741
30
0
0
VERTEX
8
0
10
108.690533105943
20
49.8746067630315
30
0
0
VERTEX
8
0
10
109.969245260131
20
49.9802006212472
30
0
0
VERTEX
8
0
10
111.247957414318
20
50.0926581951938
30
0
0
VERTEX
8
0
10
112.526669568506
20
50.1814316738757
30
0
0
VERTEX
8
0
10
113.805381722694
20
50.2625487661039
30
0
0
VERTEX
8
0
10
115.084093876881
20
50.357060647186
30
0
0
VERTEX
8
0
10
116.362806031069
20
50.45820366508
30
0
0
VERTEX
8
0
10
117.641518185256
20
50.5425969567493
30
0
0
VERTEX
8
0
10
118.920230339444
20
50.6201845208905
30
0
0
VERTEX
8
0
10
120.198942493631
20
50.6972650381199
30
0
0
VERTEX
8
0
10
121.477654647819
20
50.7748738759935
30
0
0
VERTEX
8
0
10
122.756366802007
20
50.8530086156367
30
0
0
VERTEX
8
0
10
124.035078956194
20
50.9356791073451
30
0
0
VERTEX
8
0
10
125.313791110382
20
51.0173159169734
30
0
0
VERTEX
8
0
10
126.592503264569
20
51.1226748608805
30
0
0
VERTEX
8
0
10
127.871215418757
20
51.2220519539777
30
0
0
VERTEX
8
0
10
129.149927572944
20
51.289602236998
30
0
0
VERTEX
8
0
10
130.428639727132
20
51.3661538681402
30
0
0
VERTEX
8
0
10
131.70735188132
20
51.4469036771016
30
0
0
VERTEX
8
0
10
132.986064035507
20
51.5270301694667
30
0
0
VERTEX
8
0
10
134.264776189695
20
51.6123005842261
30
0
0
VERTEX
8
0
10
135.543488343882
20
51.6978686506697
30
0
0
VERTEX
8
0
10
136.82220049807
20
51.7559262322271
30
0
0
VERTEX
8
0
10
138.100912652257
20
51.818275580396
30
0
0
VERTEX
8
0
10
139.379624806445
20
51.8690769097109
30
0
0
VERTEX
8
0
10
140.658336960633
20
51.9219892934566
30
0
0
VERTEX
8
0
10
141.93704911482
20
51.975216908992
30
0
0
VERTEX
8
0
10
143.215761269008
20
52.0287587888311
30
0
0
VERTEX
8
0
10
144.494473423195
20
52.0779264881849
30
0
0
VERTEX
8
0
10
145.773185577383
20
52.1272343816239
30
0
0
VERTEX
8
0
10
147.05189773157
20
52.1768434906216
30
0
0
VERTEX
8
0
10
148.330609885758
20
52.2267529568227
30
0
0
VERTEX
8
0
10
149.609322039946
20
52.2742737103605
30
0
0
VERTEX
8
0
10
150.888034194133
20
52.3206779541902
30
0
0
VERTEX
8
0
10
152.166746348321
20
52.3761537138832
30
0
0
VERTEX
8
0
10
153.445458502508
20
52.4350549798375
30
0
0
VERTEX
8
0
10
154.724170656696
20
52.5321367093775
30
0
0
SEQEND
8
0
0
POLYLINE
8
0
62
3
70
0
10
0
20
0
30
0
0
VERTEX
8
0
10
11.5084093876881
20
22.0722065332619
30
0
0
VERTEX
8
0
10
12.7871215418757
20
23.9521650301733
30
0
0
VERTEX
8
0
10
14.0658336960632
20
25.7683730821157
30
0
0
VERTEX
8
0
10
15.3445458502508
20
27.5260549142828
30
0
0
VERTEX
8
0
10
16.6232580044384
20
29.229765446198
30
0
0
VERTEX
8
0
10
17.901970158626
20
30.8835235032405
30
0
0
VERTEX
8
0
10
19.1806823128135
20
32.4909098834479
30
0
0
VERTEX
8
0
10
20.4593944670011
20
34.0551417169416
30
0
0
VERTEX
8
0
10
21.7381066211887
20
35.5791303726563
30
0
0
VERTEX
8
0
10
23.0168187753762
20
37.0655280407512
30
0
0
VERTEX
8
0
10
24.2955309295638
20
38.5167670074781
30
0
0
VERTEX
8
0
10
25.5742430837514
20
39.935095319769
30
0
0
VERTEX
8
0
10
26.8529552379389
20
41.3226132970065
30
0
0
VERTEX
8
0
10
28.1316673921265
20
42.681318510001
30
0
0
VERTEX
8
0
10
29.4103795463141
20
44.0131777736214
30
0
0
VERTEX
8
0
10
30.6890917005016
20
45.3202933648202
30
0
0
VERTEX
8
0
10
31.9678038546892
20
46.6056564062693
30
0
0
VERTEX
8
0
10
33.2465160088768
20
47.8712105984576
30
0
0
VERTEX
8
0
10
34.5252281630643
20
49.1140308670331
30
0
0
VERTEX
8
0
10
35.8039403172519
20
50.3328657817966
30
0
0
VERTEX
8
0
10
37.0826524714395
20
51.5271895050115
30
0
0
VERTEX
8
0
10
38.3613646256271
20
52.6967712099225
30
0
0
VERTEX
8
0
10
39.6400767798146
20
53.8415397013786
30
0
0
VERTEX
8
0
10
40.9187889340022
20
54.9615209024233
30
0
0
VERTEX
8
0
10
42.1975010881898
20
56.0568034393402
30
0
0
VERTEX
8
0
10
43.4762132423773
20
57.1275174553136
30
0
0
VERTEX
8
0
10
44.7549253965649
20
58.1738203667311
30
0
0
VERTEX
8
0
10
46.0336375507525
20
59.1958864371373
30
0
0
VERTEX
8
0
10
47.31234970494
20
60.1938983803979
30
0
0
VERTEX
8
0
10
48.5910618591276
20
61.1680397968606
30
0
0
VERTEX
8
0
10
49.8697740133152
20
62.1184874632062
30
0
0
VERTEX
8
0
10
51.1484861675027
20
63.0454024624607
30
0
0
VERTEX
8
0
10
52.4271983216903
20
63.9489188496217
30
0
0
VERTEX
8
0
10
53.7059104758779
20
64.8291278767141
30
0
0
VERTEX
8
0
10
54.9846226300655
20
65.686054421374
30
0
0
VERTEX
8
0
10
56.263334784253
20
66.5196193756134
30
0
0
VERTEX
8
0
10
57.5420469384406
20
67.3295752839553
30
0
0
VERTEX
8
0
10
58.8207590926282
20
68.1153864520677
30
0
0
VERTEX
8
0
10
60.0994712468157
20
68.8759785150233
30
0
0
VERTEX
8
0
10
61.3781834010033
20
69.6091169487326
30
0
0
VERTEX
8
0
10
62.6568955551909
20
70.3093142376963
30
0
0
VERTEX
8
0
10
63.9356077093784
20
70.9580708924102
30
0
0
VERTEX
8
0
10
65.214319863566
20
71.5999359008471
30
0
0
VERTEX
8
0
10
66.4930320177536
20
72.2744359361059
30
0
0
VERTEX
8
0
10
67.7717441719411
20
72.9596285549707
30
0
0
VERTEX
8
0
10
69.0504563261287
20
73.6480892356106
30
0
0
VERTEX
8
0
10
70.3291684803163
20
74.3361754966765
30
0
0
VERTEX
8
0
10
71.6078806345038
20
75.0216924992324
30
0
0
VERTEX
8
0
10
72.8865927886914
20
75.7031680353237
30
0
0
VERTEX
8
0
10
74.165304942879
20
76.3795476313787
30
0
0
VERTEX
8
0
10
75.4440170970665
20
77.0500423760587
30
0
0
VERTEX
8
0
10
76.7227292512541
20
77.7140439119646
30
0
0
VERTEX
8
0
10
78.0014414054417
20
78.3710729623527
30
0
0
VERTEX
8
0
10
79.2801535596293
20
79.020746212476
30
0
0
VERTEX
8
0
10
80.5588657138168
20
79.6627539653228
30
0
0
VERTEX
8
0
10
81.8375778680044
20
80.2968444815674
30
0
0
VERTEX
8
0
10
83.116290022192
20
80.9228126572428
30
0
0
VERTEX
8
0
10
84.3950021763795
20
81.5404916232404
30
0
0
VERTEX
8
0
10
85.6737143305671
20
82.1497463762839
30
0
0
VERTEX
8
0
10
86.9524264847547
20
82.7504688612201
30
0
0
VERTEX
8
0
10
88.2311386389422
20
83.3425741146664
30
0
0
VERTEX
8
0
10
89.5098507931298
20
83.925997201889
30
0
0
VERTEX
8
0
10
90.7885629473174
20
84.500690757075
30
0
0
VERTEX
8
0
10
92.0672751015049
20
85.0666229909565
30
0
0
VERTEX
8
0
10
93.3459872556925
20
85.6237760661481
30
0
0
VERTEX
8
0
10
94.6246994098801
20
86.1721447661176
30
0
0
VERTEX
8
0
10
95.9034115640677
20
86.7117354021796
30
0
0
VERTEX
8
0
10
97.1821237182552
20
87.2425649164093
30
0
0
VERTEX
8
0
10
98.4608358724428
20
87.7646601481891
30
0
0
VERTEX
8
0
10
99.7395480266304
20
88.2780572399049
30
0
0
VERTEX
8
0
10
101.018260180818
20
88.7828011630721
30
0
0
VERTEX
8
0
10
102.296972335006
20
89.2789453510405
30
0
0
VERTEX
8
0
10
103.575684489193
20
89.7665514282501
30
0
0
VERTEX
8
0
10
104.854396643381
20
90.2456890296062
30
0
0
VERTEX
8
0
10
106.133108797568
20
90.7164357067795
30
0
0
VERTEX
8
0
10
107.411820951756
20
91.178876921162
30
0
0
VERTEX
8
0
10
108.690533105943
20
91.6331061272621
30
0
0
VERTEX
8
0
10
109.969245260131
20
92.0792249538992
30
0
0
VERTEX
8
0
10
111.247957414318
20
92.5173434961224
30
0
0
VERTEX
8
0
10
112.526669568506
20
92.9475807377088
30
0
0
VERTEX
8
0
10
113.805381722694
20
93.3700651339853
30
0
0
VERTEX
8
0
10
115.084093876881
20
93.7849353994625
30
0
0
VERTEX
8
0
10
116.362806031069
20
94.1923415677436
30
0
0
VERTEX
8
0
10
117.641518185256
20
94.5924464280927
30
0
0
VERTEX
8
0
10
118.920230339444
20
94.98542750656
30
0
0
VERTEX
8
0
10
120.198942493631
20
95.3714798740408
30
0
0
VERTEX
8
0
10
121.477654647819
20
95.7508202863677
30
0
0
VERTEX
8
0
10
122.756366802007
20
96.1236936357919
30
0
0
VERTEX
8
0
10
124.035078956194
20
96.4903838334396
30
0
0
VERTEX
8
0
10
125.313791110382
20
96.8512344867423
30
0
0
VERTEX
8
0
10
126.592503264569
20
97.2066957541329
30
0
0
VERTEX
8
0
10
127.871215418757
20
97.5574233327597
30
0
0
VERTEX
8
0
10
129.149927572944
20
97.9039603588076
30
0
0
VERTEX
8
0
10
130.428639727132
20
98.2459280118127
30
0
0
VERTEX
8
0
10
131.70735188132
20
98.5828405394516
30
0
0
VERTEX
8
0
10
132.986064035507
20
98.9144068268655
30
0
0
VERTEX
8
0
10
134.264776189695
20
99.2404328165535
30
0
0
VERTEX
8
0
10
135.543488343882
20
99.5607766421868
30
0
0
VERTEX
8
0
10
136.82220049807
20
99.8753290907837
30
0
0
VERTEX
8
0
10
138.100912652257
20
100.184003436877
30
0
0
VERTEX
8
0
10
139.379624806445
20
100.486729471006
30
0
0
VERTEX
8
0
10
140.658336960633
20
100.783449690764
30
0
0
VERTEX
8
0
10
141.93704911482
20
101.074116722139
30
0
0
VERTEX
8
0
10
143.215761269008
20
101.358691492931
30
0
0
VERTEX
8
0
10
144.494473423195
20
101.637141892171
30
0
0
VERTEX
8
0
10
145.773185577383
20
101.909441757715
30
0
0
VERTEX
8
0
10
147.05189773157
20
102.175570093541
30
0
0
VERTEX
8
0
10
148.330609885758
20
102.435510452749
30
0
0
VERTEX
8
0
10
149.609322039946
20
102.689250443182
30
0
0
VERTEX
8
0
10
150.888034194133
20
102.936781325793
30
0
0
VERTEX
8
0
10
152.166746348321
20
103.178097684541
30
0
0
VERTEX
8
0
10
153.445458502508
20
103.413197152375
30
0
0
VERTEX
8
0
10
154.724170656696
20
103.642080181894
30
0
0
SEQEND
8
0
0
POLYLINE
8
0
62
4
70
0
10
0
20
0
30
0
0
VERTEX
8
0
10
11.5084093876881
20
19.188173812868
30
0
0
VERTEX
8
0
10
12.7871215418757
20
20.952582711964
30
0
0
VERTEX
8
0
10
14.0658336960632
20
22.7020695004217
30
0
0
VERTEX
8
0
10
15.3445458502508
20
24.444873800569
30
0
0
VERTEX
8
0
10
16.6232580044384
20
26.1713690740531
30
0
0
VERTEX
8
0
10
17.901970158626
20
27.8800243983289
30
0
0
VERTEX
8
0
10
19.1806823128135
20
29.5734850139973
30
0
0
VERTEX
8
0
10
20.4593944670011
20
31.2597925635964
30
0
0
VERTEX
8
0
10
21.7381066211887
20
32.9331755540865
30
0
0
VERTEX
8
0
10
23.0168187753762
20
34.5970655071078
30
0
0
VERTEX
8
0
10
24.2955309295638
20
36.2486017741413
30
0
0
VERTEX
8
0
10
25.5742430837514
20
37.8799920242182
30
0
0
VERTEX
8
0
10
26.8529552379389
20
39.4945851449141
30
0
0
VERTEX
8
0
10
28.1316673921265
20
41.0862837959505
30
0
0
VERTEX
8
0
10
29.4103795463141
20
42.6628434387954
30
0
0
VERTEX
8
0
10
30.6890917005016
20
44.0979616456816
30
0
0
VERTEX
8
0
10
31.9678038546892
20
45.427716851457
30
0
0
VERTEX
8
0
10
33.2465160088768
20
46.6641685622452
30
0
0
VERTEX
8
0
10
34.5252281630643
20
47.8171207001495
30
0
0
VERTEX
8
0
10
35.8039403172519
20
48.9614213868591
30
0
0
VERTEX
8
0
10
37.0826524714395
20
50.1248692674984
30
0
0
VERTEX
8
0
10
38.3613646256271
20
51.2759805708626
30
0
0
VERTEX
8
0
10
39.6400767798146
20
52.404065786838
30
0
0
VERTEX
8
0
10
40.9187889340022
20
53.5283080008917
30
0
0
VERTEX
8
0
10
42.1975010881898
20
54.6500467597987
30
0
0
VERTEX
8
0
10
43.4762132423773
20
55.7617203816403
30
0
0
VERTEX
8
0
10
44.7549253965649
20
56.8664402581358
30
0
0
VERTEX
8
0
10
46.0336375507525
20
57.9619092656836
30
0
0
VERTEX
8
0
10
47.31234970494
20
59.0186606771064
30
0
0
VERTEX
8
0
10
48.5910618591276
20
60.0746927590436
30
0
0
VERTEX
8
0
10
49.8697740133152
20
61.1911109718579
30
0
0
VERTEX
8
0
10
51.1484861675027
20
62.279790357193
30
0
0
VERTEX
8
0
10
52.4271983216903
20
63.1286999582521
30
0
0
VERTEX
8
0
10
53.7059104758779
20
64.0081566921429
30
0
0
VERTEX
8
0
10
54.9846226300655
20
64.8593688908904
30
0
0
VERTEX
8
0
10
56.263334784253
20
65.7007271521023
30
0
0
VERTEX
8
0
10
57.5420469384406
20
66.5126732874785
30
0
0
VERTEX
8
0
10
58.8207590926282
20
67.3164365170534
30
0
0
VERTEX
8
0
10
60.0994712468157
20
68.1426464791931
30
0
0
VERTEX
8
0
10
61.3781834010033
20
68.965025292784
30
0
0
VERTEX
8
0
10
62.6568955551909
20
69.7579150371172
30
0
0
VERTEX
8
0
10
63.9356077093784
20
70.5388476336436
30
0
0
VERTEX
8
0
10
65.214319863566
20
71.3158675008412
30
0
0
VERTEX
8
0
10
66.4930320177536
20
72.0886008098073
30
0
0
VERTEX
8
0
10
67.7717441719411
20
72.8689875586033
30
0
0
VERTEX
8
0
10
69.0504563261287
20
73.6522183608243
30
0
0
VERTEX
8
0
10
70.3291684803163
20
74.4199670225056
30
0
0
VERTEX
8
0
10
71.6078806345038
20
75.1746662234489
30
0
0
VERTEX
8
0
10
72.8865927886914
20
75.8968887856667
30
0
0
VERTEX
8
0
10
74.165304942879
20
76.6051526792061
30
0
0
VERTEX
8
0
10
75.4440170970665
20
77.2818602821823
30
0
0
VERTEX
8
0
10
76.7227292512541
20
77.9104826535234
30
0
0
VERTEX
8
0
10
78.0014414054417
20
78.541108012201
30
0
0
VERTEX
8
0
10
79.2801535596293
20
79.1700946398373
30
0
0
VERTEX
8
0
10
80.5588657138168
20
79.7943162015028
30
0
0
VERTEX
8
0
10
81.8375778680044
20
80.4173199104858
30
0
0
VERTEX
8
0
10
83.116290022192
20
81.0348924031089
30
0
0
VERTEX
8
0
10
84.3950021763795
20
81.6475711025492
30
0
0
VERTEX
8
0
10
85.6737143305671
20
82.2553076305156
30
0
0
VERTEX
8
0
10
86.9524264847547
20
82.8544806587252
30
0
0
VERTEX
8
0
10
88.2311386389422
20
83.4496468079922
30
0
0
VERTEX
8
0
10
89.5098507931298
20
84.0465876047175
30
0
0
VERTEX
8
0
10
90.7885629473174
20
84.6367509123348
30
0
0
VERTEX
8
0
10
92.0672751015049
20
85.2086488414479
30
0
0
VERTEX
8
0
10
93.3459872556925
20
85.7777990484252
30
0
0
VERTEX
8
0
10
94.6246994098801
20
86.2986253692553
30
0
0
VERTEX
8
0
10
95.9034115640677
20
86.8212222032521
30
0
0
VERTEX
8
0
10
97.1821237182552
20
87.3038537469267
30
0
0
VERTEX
8
0
10
98.4608358724428
20
87.785726803642
30
0
0
VERTEX
8
0
10
99.7395480266304
20
88.2735601090045
30
0
0
VERTEX
8
0
10
101.018260180818
20
88.755646359717
30
0
0
VERTEX
8
0
10
102.296972335006
20
89.217520146385
30
0
0
VERTEX
8
0
10
103.575684489193
20
89.6740317750356
30
0
0
VERTEX
8
0
10
104.854396643381
20
90.1421280171844
30
0
0
VERTEX
8
0
10
106.133108797568
20
90.6068262507349
30
0
0
VERTEX
8
0
10
107.411820951756
20
91.0509858906785
30
0
0
VERTEX
8
0
10
108.690533105943
20
91.4880354338902
30
0
0
VERTEX
8
0
10
109.969245260131
20
91.9345568046357
30
0
0
VERTEX
8
0
10
111.247957414318
20
92.3795074318547
30
0
0
VERTEX
8
0
10
112.526669568506
20
92.8063744462325
30
0
0
VERTEX
8
0
10
113.805381722694
20
93.2239447461823
30
0
0
VERTEX
8
0
10
115.084093876881
20
93.6436119648805
30
0
0
VERTEX
8
0
10
116.362806031069
20
94.061735338017
30
0
0
VERTEX
8
0
10
117.641518185256
20
94.4658251777291
30
0
0
VERTEX
8
0
10
118.920230339444
20
94.8613070439117
30
0
0
VERTEX
8
0
10
120.198942493631
20
95.2516134918627
30
0
0
VERTEX
8
0
10
121.477654647819
20
95.637350695325
30
0
0
VERTEX
8
0
10
122.756366802007
20
96.0185727215425
30
0
0
VERTEX
8
0
10
124.035078956194
20
96.3974567426422
30
0
0
VERTEX
8
0
10
125.313791110382
20
96.7711137292172
30
0
0
VERTEX
8
0
10
126.592503264569
20
97.152638544421
30
0
0
VERTEX
8
0
10
127.871215418757
20
97.5264272030955
30
0
0
VERTEX
8
0
10
129.149927572944
20
97.8790049556094
30
0
0
VERTEX
8
0
10
130.428639727132
20
98.2318355561393
30
0
0
VERTEX
8
0
10
131.70735188132
20
98.5823717183439
30
0
0
VERTEX
8
0
10
132.986064035507
20
98.9280785519521
30
0
0
VERTEX
8
0
10
134.264776189695
20
99.2719471696289
30
0
0
VERTEX
8
0
10
135.543488343882
20
99.6114404638899
30
0
0
VERTEX
8
0
10
136.82220049807
20
99.932146796902
30
0
0
VERTEX
8
0
10
138.100912652257
20
100.250583173136
30
0
0
VERTEX
8
0
10
139.379624806445
20
100.558559919629
30
0
0
VERTEX
8
0
10
140.658336960633
20
100.863140100121
30
0
0
VERTEX
8
0
10
141.93704911482
20
101.163391035336
30
0
0
VERTEX
8
0
10
143.215761269008
20
101.45930912036
30
0
0
VERTEX
8
0
10
144.494473423195
20
101.748492805737
30
0
0
VERTEX
8
0
10
145.773185577383
20
102.033261139744
30
0
0
VERTEX
8
0
10
147.05189773157
20
102.313697099978
30
0
0
VERTEX
8
0
10
148.330609885758
20
102.589801925622
30
0
0
VERTEX
8
0
10
149.609322039946
20
102.860211919509
30
0
0
VERTEX
8
0
10
150.888034194133
20
103.125583536321
30
0
0
VERTEX
8
0
10
152.166746348321
20
103.391086174482
30
0
0
VERTEX
8
0
10
153.445458502508
20
103.653850424028
30
0
0
VERTEX
8
0
10
154.724170656696
20
103.931440586735
30
0
0
SEQEND
8
0
0
POLYLINE
8
0
62
2
70
0
10
0
20
0
30
0
0
VERTEX
8
0
10
11.5084093876881
20
14.4391782546332
30
0
0
VERTEX
8
0
10
12.7871215418757
20
15.4251921593811
30
0
0
VERTEX
8
0
10
14.0658336960632
20
16.3434464911828
30
0
0
VERTEX
8
0
10
15.3445458502508
20
17.2000216823364
30
0
0
VERTEX
8
0
10
16.6232580044384
20
18.0002427350678
30
0
0
VERTEX
8
0
10
17.901970158626
20
18.7488401499941
30
0
0
VERTEX
8
0
10
19.1806823128135
20
19.4500666490661
30
0
0
VERTEX
8
0
10
20.4593944670011
20
20.1077846425554
30
0
0
VERTEX
8
0
10
21.7381066211887
20
20.7255341724333
30
0
0
VERTEX
8
0
10
23.0168187753762
20
21.3065881898695
30
0
0
VERTEX
8
0
10
24.2955309295638
20
21.8540006716934
30
0
0
VERTEX
8
0
10
25.5742430837514
20
22.3706530793567
30
0
0
VERTEX
8
0
10
26.8529552379389
20
22.8593066355349
30
0
0
VERTEX
8
0
10
28.1316673921265
20
23.3226744385999
30
0
0
VERTEX
8
0
10
29.4103795463141
20
23.7635489649616
30
0
0
VERTEX
8
0
10
30.6890917005016
20
24.1851147926517
30
0
0
VERTEX
8
0
10
31.9678038546892
20
24.5923958553052
30
0
0
VERTEX
8
0
10
33.2465160088768
20
24.9887814030559
30
0
0
VERTEX
8
0
10
34.5252281630643
20
25.368656640424
30
0
0
VERTEX
8
0
10
35.8039403172519
20
25.729435588499
30
0
0
VERTEX
8
0
10
37.0826524714395
20
26.0698206152167
30
0
0
VERTEX
8
0
10
38.3613646256271
20
26.3890187660719
30
0
0
VERTEX
8
0
10
39.6400767798146
20
26.6864996293362
30
0
0
VERTEX
8
0
10
40.9187889340022
20
26.9618844753049
30
0
0
VERTEX
8
0
10
42.1975010881898
20
27.2148851556361
30
0
0
VERTEX
8
0
10
43.4762132423773
20
27.4452659568357
30
0
0
VERTEX
8
0
10
44.7549253965649
20
27.6528171362891
30
0
0
VERTEX
8
0
10
46.0336375507525
20
27.8373345073549
30
0
0
VERTEX
8
0
10
47.31234970494
20
27.9986017634296
30
0
0
VERTEX
8
0
10
48.5910618591276
20
28.1363731849295
30
0
0
VERTEX
8
0
10
49.8697740133152
20
28.2503546083988
30
0
0
VERTEX
8
0
10
51.1484861675027
20
28.340180234871
30
0
0
VERTEX
8
0
10
52.4271983216903
20
28.405381931773
30
0
0
VERTEX
8
0
10
53.7059104758779
20
28.4453457690868
30
0
0
VERTEX
8
0
10
54.9846226300655
20
28.459246722543
30
0
0
VERTEX
8
0
10
56.263334784253
20
28.4459446099878
30
0
0
VERTEX
8
0
10
57.5420469384406
20
28.4038068328818
30
0
0
VERTEX
8
0
10
58.8207590926282
20
28.330380271464
30
0
0
VERTEX
8
0
10
60.0994712468157
20
28.2217109741322
30
0
0
VERTEX
8
0
10
61.3781834010033
20
28.0706699205567
30
0
0
VERTEX
8
0
10
62.6568955551909
20
27.8613702193977
30
0
0
VERTEX
8
0
10
63.9356077093784
20
27.5429463516262
30
0
0
VERTEX
8
0
10
65.214319863566
20
27.2209000706326
30
0
0
VERTEX
8
0
10
66.4930320177536
20
26.9963795271738
30
0
0
VERTEX
8
0
10
67.7717441719411
20
26.8154051572462
30
0
0
VERTEX
8
0
10
69.0504563261287
20
26.6600976157085
30
0
0
VERTEX
8
0
10
70.3291684803163
20
26.521851334819
30
0
0
VERTEX
8
0
10
71.6078806345038
20
26.3955464276611
30
0
0
VERTEX
8
0
10
72.8865927886914
20
26.2777737272169
30
0
0
VERTEX
8
0
10
74.165304942879
20
26.1660970057767
30
0
0
VERTEX
8
0
10
75.4440170970665
20
26.0586888489214
30
0
0
VERTEX
8
0
10
76.7227292512541
20
25.9541294507765
30
0
0
VERTEX
8
0
10
78.0014414054417
20
25.8512860847627
30
0
0
VERTEX
8
0
10
79.2801535596293
20
25.7492363745557
30
0
0
VERTEX
8
0
10
80.5588657138168
20
25.6472170732641
30
0
0
VERTEX
8
0
10
81.8375778680044
20
25.5445885461615
30
0
0
VERTEX
8
0
10
83.116290022192
20
25.4408093682668
30
0
0
VERTEX
8
0
10
84.3950021763795
20
25.3354176876086
30
0
0
VERTEX
8
0
10
85.6737143305671
20
25.2280172619339
30
0
0
VERTEX
8
0
10
86.9524264847547
20
25.1182668152394
30
0
0
VERTEX
8
0
10
88.2311386389422
20
25.0058718120279
30
0
0
VERTEX
8
0
10
89.5098507931298
20
24.8905780325573
30
0
0
VERTEX
8
0
10
90.7885629473174
20
24.7721665184711
30
0
0
VERTEX
8
0
10
92.0672751015049
20
24.6504495824869
30
0
0
VERTEX
8
0
10
93.3459872556925
20
24.525267661377
30
0
0
VERTEX
8
0
10
94.6246994098801
20
24.3964868513089
30
0
0
VERTEX
8
0
10
95.9034115640677
20
24.2639970077548
30
0
0
VERTEX
8
0
10
97.1821237182552
20
24.1277103239096
30
0
0
VERTEX
8
0
10
98.4608358724428
20
23.9875603255785
30
0
0
VERTEX
8
0
10
99.7395480266304
20
23.843501239268
30
0
0
VERTEX
8
0
10
101.018260180818
20
23.6955077055012
30
0
0
VERTEX
8
0
10
102.296972335006
20
23.5435748224276
30
0
0
VERTEX
8
0
10
103.575684489193
20
23.3877185166561
30
0
0
VERTEX
8
0
10
104.854396643381
20
23.2279762497494
30
0
0
VERTEX
8
0
10
106.133108797568
20
23.0644080808573
30
0
0
VERTEX
8
0
10
107.411820951756
20
22.8970981194578
30
0
0
VERTEX
8
0
10
108.690533105943
20
22.7261564182879
30
0
0
VERTEX
8
0
10
109.969245260131
20
22.5517213768926
30
0
0
VERTEX
8
0
10
111.247957414318
20
22.3739627531055
30
0
0
VERTEX
8
0
10
112.526669568506
20
22.193085416834
30
0
0
VERTEX
8
0
10
113.805381722694
20
22.0093340335178
30
0
0
VERTEX
8
0
10
115.084093876881
20
21.8229989433714
30
0
0
VERTEX
8
0
10
116.362806031069
20
21.6344236240962
30
0
0
VERTEX
8
0
10
117.641518185256
20
21.4440143208096
30
0
0
VERTEX
8
0
10
118.920230339444
20
21.2522527590487
30
0
0
VERTEX
8
0
10
120.198942493631
20
21.0597134531722
30
0
0
VERTEX
8
0
10
121.477654647819
20
20.8670882734385
30
0
0
VERTEX
8
0
10
122.756366802007
20
20.675223368539
30
0
0
VERTEX
8
0
10
124.035078956194
20
20.4851793532343
30
0
0
VERTEX
8
0
10
125.313791110382
20
20.298342107019
30
0
0
VERTEX
8
0
10
126.592503264569
20
20.1166673670541
30
0
0
VERTEX
8
0
10
127.871215418757
20
19.9432030035493
30
0
0
VERTEX
8
0
10
129.149927572944
20
19.7806606931885
30
0
0
VERTEX
8
0
10
130.428639727132
20
19.6274626386418
30
0
0
VERTEX
8
0
10
131.70735188132
20
19.4814832510502
30
0
0
VERTEX
8
0
10
132.986064035507
20
19.3414824022865
30
0
0
VERTEX
8
0
10
134.264776189695
20
19.2066501113945
30
0
0
VERTEX
8
0
10
135.543488343882
20
19.0763994008311
30
0
0
VERTEX
8
0
10
136.82220049807
20
18.9502777160839
30
0
0
VERTEX
8
0
10
138.100912652257
20
18.8279216658918
30
0
0
VERTEX
8
0
10
139.379624806445
20
18.7090308992761
30
0
0
VERTEX
8
0
10
140.658336960633
20
18.5933517246309
30
0
0
VERTEX
8
0
10
141.93704911482
20
18.4806662014539
30
0
0
VERTEX
8
0
10
143.215761269008
20
18.370784536206
30
0
0
VERTEX
8
0
10
144.494473423195
20
18.2635395864899
30
0
0
VERTEX
8
0
10
145.773185577383
20
18.1587827709062
30
0
0
VERTEX
8
0
10
147.05189773157
20
18.0563809502532
30
0
0
VERTEX
8
0
10
148.330609885758
20
17.9562140002207
30
0
0
VERTEX
8
0
10
149.609322039946
20
17.8581728889056
30
0
0
VERTEX
8
0
10
150.888034194133
20
17.7621581309135
30
0
0
VERTEX
8
0
10
152.166746348321
20
17.6680785277
30
0
0
VERTEX
8
0
10
153.445458502508
20
17.5758501290816
30
0
0
VERTEX
8
0
10
154.724170656696
20
17.485395368138
30
0
0
SEQEND
8
0
0
POLYLINE
8
0
62
3
70
0
10
0
20
0
30
0
0
VERTEX
8
0
10
11.5084093876881
20
17.431135500786
30
0
0
VERTEX
8
0
10
12.7871215418757
20
18.7677678994171
30
0
0
VERTEX
8
0
10
14.0658336960632
20
20.0349590140559
30
0
0
VERTEX
8
0
10
15.3445458502508
20
21.2382527158844
30
0
0
VERTEX
8
0
10
16.6232580044384
20
22.3825208486913
30
0
0
VERTEX
8
0
10
17.901970158626
20
23.4721039738299
30
0
0
VERTEX
8
0
10
19.1806823128135
20
24.5109128320004
30
0
0
VERTEX
8
0
10
20.4593944670011
20
25.5025038438257
30
0
0
VERTEX
8
0
10
21.7381066211887
20
26.4501372539752
30
0
0
VERTEX
8
0
10
23.0168187753762
20
27.35682389375
30
0
0
VERTEX
8
0
10
24.2955309295638
20
28.2253652284555
30
0
0
VERTEX
8
0
10
25.5742430837514
20
29.0583911592859
30
0
0
VERTEX
8
0
10
26.8529552379389
20
29.8584013799164
30
0
0
VERTEX
8
0
10
28.1316673921265
20
30.6278208500254
30
0
0
VERTEX
8
0
10
29.4103795463141
20
31.3690958685538
30
0
0
VERTEX
8
0
10
30.6890917005016
20
32.0849273522267
30
0
0
VERTEX
8
0
10
31.9678038546892
20
32.7793481275717
30
0
0
VERTEX
8
0
10
33.2465160088768
20
33.4549921993717
30
0
0
VERTEX
8
0
10
34.5252281630643
20
34.1075427125156
30
0
0
VERTEX
8
0
10
35.8039403172519
20
34.7349928152664
30
0
0
VERTEX
8
0
10
37.0826524714395
20
35.3363402910883
30
0
0
VERTEX
8
0
10
38.3613646256271
20
35.9109885317463
30
0
0
VERTEX
8
0
10
39.6400767798146
20
36.4585595902999
30
0
0
VERTEX
8
0
10
40.9187889340022
20
36.9788080131036
30
0
0
VERTEX
8
0
10
42.1975010881898
20
37.4715732329464
30
0
0
VERTEX
8
0
10
43.4762132423773
20
37.9367499669886
30
0
0
VERTEX
8
0
10
44.7549253965649
20
38.3742679514342
30
0
0
VERTEX
8
0
10
46.0336375507525
20
38.7840766880602
30
0
0
VERTEX
8
0
10
47.31234970494
20
39.1661326900359
30
0
0
VERTEX
8
0
10
48.5910618591276
20
39.5203874856262
30
0
0
VERTEX
8
0
10
49.8697740133152
20
39.846774873851
30
0
0
VERTEX
8
0
10
51.1484861675027
20
40.1451957785824
30
0
0
VERTEX
8
0
10
52.4271983216903
20
40.4154984784409
30
0
0
VERTEX
8
0
10
53.7059104758779
20
40.6574507663178
30
0
0
VERTEX
8
0
10
54.9846226300655
20
40.8706981296208
30
0
0
VERTEX
8
0
10
56.263334784253
20
41.0546969303881
30
0
0
VERTEX
8
0
10
57.5420469384406
20
41.2086001655559
30
0
0
VERTEX
8
0
10
58.8207590926282
20
41.3310451649025
30
0
0
VERTEX
8
0
10
60.0994712468157
20
41.4197116432839
30
0
0
VERTEX
8
0
10
61.3781834010033
20
41.4702297500951
30
0
0
VERTEX
8
0
10
62.6568955551909
20
41.4725233744589
30
0
0
VERTEX
8
0
10
63.9356077093784
20
41.3937604729989
30
0
0
VERTEX
8
0
10
65.214319863566
20
41.3088410457879
30
0
0
VERTEX
8
0
10
66.4930320177536
20
41.2871568547179
30
0
0
VERTEX
8
0
10
67.7717441719411
20
41.2921574237952
30
0
0
VERTEX
8
0
10
69.0504563261287
20
41.311632382487
30
0
0
VERTEX
8
0
10
70.3291684803163
20
41.3396686648822
30
0
0
VERTEX
8
0
10
71.6078806345038
20
41.3727356222687
30
0
0
VERTEX
8
0
10
72.8865927886914
20
41.4084790882201
30
0
0
VERTEX
8
0
10
74.165304942879
20
41.445218221857
30
0
0
VERTEX
8
0
10
75.4440170970665
20
41.4816963506242
30
0
0
VERTEX
8
0
10
76.7227292512541
20
41.516942883125
30
0
0
VERTEX
8
0
10
78.0014414054417
20
41.5501903685685
30
0
0
VERTEX
8
0
10
79.2801535596293
20
41.5808215710126
30
0
0
VERTEX
8
0
10
80.5588657138168
20
41.6083340645858
30
0
0
VERTEX
8
0
10
81.8375778680044
20
41.6323156390239
30
0
0
VERTEX
8
0
10
83.116290022192
20
41.6524266827815
30
0
0
VERTEX
8
0
10
84.3950021763795
20
41.6683872423623
30
0
0
VERTEX
8
0
10
85.6737143305671
20
41.679967317365
30
0
0
VERTEX
8
0
10
86.9524264847547
20
41.6869794573509
30
0
0
VERTEX
8
0
10
88.2311386389422
20
41.6892730367333
30
0
0
VERTEX
8
0
10
89.5098507931298
20
41.6867297800811
30
0
0
VERTEX
8
0
10
90.7885629473174
20
41.6792602382577
30
0
0
VERTEX
8
0
10
92.0672751015049
20
41.666801001335
30
0
0
VERTEX
8
0
10
93.3459872556925
20
41.6493124930243
30
0
0
VERTEX
8
0
10
94.6246994098801
20
41.6267772323972
30
0
0
VERTEX
8
0
10
95.9034115640677
20
41.5991984781224
30
0
0
VERTEX
8
0
10
97.1821237182552
20
41.5665991919165
30
0
0
VERTEX
8
0
10
98.4608358724428
20
41.5290212739672
30
0
0
VERTEX
8
0
10
99.7395480266304
20
41.4865250353659
30
0
0
VERTEX
8
0
10
101.018260180818
20
41.4391888822954
30
0
0
VERTEX
8
0
10
102.296972335006
20
41.387109194686
30
0
0
VERTEX
8
0
10
103.575684489193
20
41.3304003889075
30
0
0
VERTEX
8
0
10
104.854396643381
20
41.2691951603604
30
0
0
VERTEX
8
0
10
106.133108797568
20
41.2036449080475
30
0
0
VERTEX
8
0
10
107.411820951756
20
41.1339203498348
30
0
0
VERTEX
8
0
10
108.690533105943
20
41.0602123447691
30
0
0
VERTEX
8
0
10
109.969245260131
20
40.9827329482935
30
0
0
VERTEX
8
0
10
111.247957414318
20
40.9017167386232
30
0
0
VERTEX
8
0
10
112.526669568506
20
40.817422469698
30
0
0
VERTEX
8
0
10
113.805381722694
20
40.7301351307846
30
0
0
VERTEX
8
0
10
115.084093876881
20
40.6401685297797
30
0
0
VERTEX
8
0
10
116.362806031069
20
40.5478685748388
30
0
0
VERTEX
8
0
10
117.641518185256
20
40.4536175226464
30
0
0
VERTEX
8
0
10
118.920230339444
20
40.3578396215319
30
0
0
VERTEX
8
0
10
120.198942493631
20
40.2610088667051
30
0
0
VERTEX
8
0
10
121.477654647819
20
40.1636601457461
30
0
0
VERTEX
8
0
10
122.756366802007
20
40.0664062438929
30
0
0
VERTEX
8
0
10
124.035078956194
20
39.9699660362251
30
0
0
VERTEX
8
0
10
125.313791110382
20
39.8752173007561
30
0
0
VERTEX
8
0
10
126.592503264569
20
39.7833150822711
30
0
0
VERTEX
8
0
10
127.871215418757
20
39.6959417989075
30
0
0
VERTEX
8
0
10
129.149927572944
20
39.6145339423326
30
0
0
VERTEX
8
0
10
130.428639727132
20
39.5382607266325
30
0
0
VERTEX
8
0
10
131.70735188132
20
39.4659975370635
30
0
0
VERTEX
8
0
10
132.986064035507
20
39.3970774735997
30
0
0
VERTEX
8
0
10
134.264776189695
20
39.3310587251937
30
0
0
VERTEX
8
0
10
135.543488343882
20
39.2676175244075
30
0
0
VERTEX
8
0
10
136.82220049807
20
39.2065019793889
30
0
0
VERTEX
8
0
10
138.100912652257
20
39.1475083012965
30
0
0
VERTEX
8
0
10
139.379624806445
20
39.0904669853557
30
0
0
VERTEX
8
0
10
140.658336960633
20
39.0352340879231
30
0
0
VERTEX
8
0
10
141.93704911482
20
38.9816853816338
30
0
0
VERTEX
8
0
10
143.215761269008
20
38.9297122570771
30
0
0
VERTEX
8
0
10
144.494473423195
20
38.8792187443421
30
0
0
VERTEX
8
0
10
145.773185577383
20
38.8301192847006
30
0
0
VERTEX
8
0
10
147.05189773157
20
38.7823370229771
30
0
0
VERTEX
8
0
10
148.330609885758
20
38.7358024721941
30
0
0
VERTEX
8
0
10
149.609322039946
20
38.6904524511302
30
0
0
VERTEX
8
0
10
150.888034194133
20
38.6462292262867
30
0
0
VERTEX
8
0
10
152.166746348321
20
38.60307980983
30
0
0
VERTEX
8
0
10
153.445458502508
20
38.560955378505
30
0
0
VERTEX
8
0
10
154.724170656696
20
38.5198107877392
30
0
0
SEQEND
8
0
0
POLYLINE
8
0
62
4
70
0
10
0
20
0
30
0
0
VERTEX
8
0
10
11.5084093876881
20
15.2079979757171
30
0
0
VERTEX
8
0
10
12.7871215418757
20
16.4604565255258
30
0
0
VERTEX
8
0
10
14.0658336960632
20
17.6957864320729
30
0
0
VERTEX
8
0
10
15.3445458502508
20
18.9139515154431
30
0
0
VERTEX
8
0
10
16.6232580044384
20
20.1151387147926
30
0
0
VERTEX
8
0
10
17.901970158626
20
21.2961144544638
30
0
0
VERTEX
8
0
10
19.1806823128135
20
22.4604756041445
30
0
0
VERTEX
8
0
10
20.4593944670011
20
23.6189954736162
30
0
0
VERTEX
8
0
10
21.7381066211887
20
24.7642469472515
30
0
0
VERTEX
8
0
10
23.0168187753762
20
25.9009118413882
30
0
0
VERTEX
8
0
10
24.2955309295638
20
27.0252843436674
30
0
0
VERTEX
8
0
10
25.5742430837514
20
28.1220709544113
30
0
0
VERTEX
8
0
10
26.8529552379389
20
29.1998752495195
30
0
0
VERTEX
8
0
10
28.1316673921265
20
30.2625110079882
30
0
0
VERTEX
8
0
10
29.4103795463141
20
31.3115640487888
30
0
0
VERTEX
8
0
10
30.6890917005016
20
32.1717254794528
30
0
0
VERTEX
8
0
10
31.9678038546892
20
32.8897699032485
30
0
0
VERTEX
8
0
10
33.2465160088768
20
33.4900562570592
30
0
0
VERTEX
8
0
10
34.5252281630643
20
33.9781826604897
30
0
0
VERTEX
8
0
10
35.8039403172519
20
34.4572496425302
30
0
0
VERTEX
8
0
10
37.0826524714395
20
34.9659300979396
30
0
0
VERTEX
8
0
10
38.3613646256271
20
35.4522739708819
30
0
0
VERTEX
8
0
10
39.6400767798146
20
35.9017455711182
30
0
0
VERTEX
8
0
10
40.9187889340022
20
36.3479683762872
30
0
0
VERTEX
8
0
10
42.1975010881898
20
36.7933497375507
30
0
0
VERTEX
8
0
10
43.4762132423773
20
37.2253026378207
30
0
0
VERTEX
8
0
10
44.7549253965649
20
37.6460715050944
30
0
0
VERTEX
8
0
10
46.0336375507525
20
38.0555447796232
30
0
0
VERTEX
8
0
10
47.31234970494
20
38.4624433960293
30
0
0
VERTEX
8
0
10
48.5910618591276
20
38.8564916402798
30
0
0
VERTEX
8
0
10
49.8697740133152
20
39.1894660701599
30
0
0
VERTEX
8
0
10
51.1484861675027
20
39.5165406276284
30
0
0
VERTEX
8
0
10
52.4271983216903
20
39.7667981809088
30
0
0
VERTEX
8
0
10
53.7059104758779
20
40.0097359846962
30
0
0
VERTEX
8
0
10
54.9846226300655
20
40.1917869556319
30
0
0
VERTEX
8
0
10
56.263334784253
20
40.3630602806345
30
0
0
VERTEX
8
0
10
57.5420469384406
20
40.4976299375392
30
0
0
VERTEX
8
0
10
58.8207590926282
20
40.6201015553449
30
0
0
VERTEX
8
0
10
60.0994712468157
20
40.7782592811902
30
0
0
VERTEX
8
0
10
61.3781834010033
20
40.9335599897622
30
0
0
VERTEX
8
0
10
62.6568955551909
20
41.0507244781926
30
0
0
VERTEX
8
0
10
63.9356077093784
20
41.1509179890312
30
0
0
VERTEX
8
0
10
65.214319863566
20
41.2397767170576
30
0
0
VERTEX
8
0
10
66.4930320177536
20
41.3238564110868
30
0
0
VERTEX
8
0
10
67.7717441719411
20
41.4325930489673
30
0
0
VERTEX
8
0
10
69.0504563261287
20
41.5520591670708
30
0
0
VERTEX
8
0
10
70.3291684803163
20
41.6415140954897
30
0
0
VERTEX
8
0
10
71.6078806345038
20
41.7100176967745
30
0
0
VERTEX
8
0
10
72.8865927886914
20
41.7809065086265
30
0
0
VERTEX
8
0
10
74.165304942879
20
41.853371555039
30
0
0
VERTEX
8
0
10
75.4440170970665
20
41.9226016316459
30
0
0
VERTEX
8
0
10
76.7227292512541
20
41.9342224135121
30
0
0
VERTEX
8
0
10
78.0014414054417
20
41.9602792481219
30
0
0
VERTEX
8
0
10
79.2801535596293
20
41.9926562572786
30
0
0
VERTEX
8
0
10
80.5588657138168
20
42.0192176302498
30
0
0
VERTEX
8
0
10
81.8375778680044
20
42.0470652385063
30
0
0
VERTEX
8
0
10
83.116290022192
20
42.0706144713004
30
0
0
VERTEX
8
0
10
84.3950021763795
20
42.0909815692025
30
0
0
VERTEX
8
0
10
85.6737143305671
20
42.1081640604004
30
0
0
VERTEX
8
0
10
86.9524264847547
20
42.1221648606745
30
0
0
VERTEX
8
0
10
88.2311386389422
20
42.1329922646132
30
0
0
VERTEX
8
0
10
89.5098507931298
20
42.1406599429268
30
0
0
VERTEX
8
0
10
90.7885629473174
20
42.1451869458045
30
0
0
VERTEX
8
0
10
92.0672751015049
20
42.1397006078915
30
0
0
VERTEX
8
0
10
93.3459872556925
20
42.1316849641146
30
0
0
VERTEX
8
0
10
94.6246994098801
20
42.1142370857685
30
0
0
VERTEX
8
0
10
95.9034115640677
20
42.0939660762432
30
0
0
VERTEX
8
0
10
97.1821237182552
20
42.0708254350143
30
0
0
VERTEX
8
0
10
98.4608358724428
20
42.0448644911907
30
0
0
VERTEX
8
0
10
99.7395480266304
20
42.0161382420881
30
0
0
VERTEX
8
0
10
101.018260180818
20
41.9847074072985
30
0
0
VERTEX
8
0
10
102.296972335006
20
41.9455715480024
30
0
0
VERTEX
8
0
10
103.575684489193
20
41.9027963405745
30
0
0
VERTEX
8
0
10
104.854396643381
20
41.8622086183182
30
0
0
VERTEX
8
0
10
106.133108797568
20
41.8207315152994
30
0
0
VERTEX
8
0
10
107.411820951756
20
41.7769408941863
30
0
0
VERTEX
8
0
10
108.690533105943
20
41.7309332478125
30
0
0
VERTEX
8
0
10
109.969245260131
20
41.6828113006334
30
0
0
VERTEX
8
0
10
111.247957414318
20
41.6326840965155
30
0
0
VERTEX
8
0
10
112.526669568506
20
41.5806670892393
30
0
0
VERTEX
8
0
10
113.805381722694
20
41.5268822352423
30
0
0
VERTEX
8
0
10
115.084093876881
20
41.4714580880857
30
0
0
VERTEX
8
0
10
116.362806031069
20
41.4145298940699
30
0
0
VERTEX
8
0
10
117.641518185256
20
41.3562396883697
30
0
0
VERTEX
8
0
10
118.920230339444
20
41.3009460410572
30
0
0
VERTEX
8
0
10
120.198942493631
20
41.2433061653946
30
0
0
VERTEX
8
0
10
121.477654647819
20
41.1847514313096
30
0
0
VERTEX
8
0
10
122.756366802007
20
41.1254520232307
30
0
0
VERTEX
8
0
10
124.035078956194
20
41.0618111768019
30
0
0
VERTEX
8
0
10
125.313791110382
20
40.9986801065983
30
0
0
VERTEX
8
0
10
126.592503264569
20
40.9389381465467
30
0
0
VERTEX
8
0
10
127.871215418757
20
40.8785238840087
30
0
0
VERTEX
8
0
10
129.149927572944
20
40.818270306385
30
0
0
VERTEX
8
0
10
130.428639727132
20
40.7582269561615
30
0
0
VERTEX
8
0
10
131.70735188132
20
40.6952592343036
30
0
0
VERTEX
8
0
10
132.986064035507
20
40.6328250895473
30
0
0
VERTEX
8
0
10
134.264776189695
20
40.576493027643
30
0
0
VERTEX
8
0
10
135.543488343882
20
40.5201380016855
30
0
0
VERTEX
8
0
10
136.82220049807
20
40.4639813352179
30
0
0
VERTEX
8
0
10
138.100912652257
20
40.4080238552451
30
0
0
VERTEX
8
0
10
139.379624806445
20
40.3573258395773
30
0
0
VERTEX
8
0
10
140.658336960633
20
40.3072993637017
30
0
0
VERTEX
8
0
10
141.93704911482
20
40.2574361176712
30
0
0
VERTEX
8
0
10
143.215761269008
20
40.2077367087695
30
0
0
VERTEX
8
0
10
144.494473423195
20
40.1582017452866
30
0
0
VERTEX
8
0
10
145.773185577383
20
40.1088318364995
30
0
0
VERTEX
8
0
10
147.05189773157
20
40.0596275926538
30
0
0
VERTEX
8
0
10
148.330609885758
20
40.0105896249439
30
0
0
VERTEX
8
0
10
149.609322039946
20
39.9582018298337
30
0
0
VERTEX
8
0
10
150.888034194133
20
39.9041105554228
30
0
0
VERTEX
8
0
10
152.166746348321
20
39.8517968950931
30
0
0
VERTEX
8
0
10
153.445458502508
20
39.8007948350447
30
0
0
VERTEX
8
0
10
154.724170656696
20
39.7669300328071
30
0
0
SEQEND
8
0
0
POLYLINE
8
0
62
2
70
0
10
0
20
0
30
0
0
VERTEX
8
0
10
11.5084093876881
20
9.40105507475931
30
0
0
VERTEX
8
0
10
12.7871215418757
20
10.2491995258389
30
0
0
VERTEX
8
0
10
14.0658336960632
20
11.0767074765094
30
0
0
VERTEX
8
0
10
15.3445458502508
20
11.8849994797347
30
0
0
VERTEX
8
0
10
16.6232580044384
20
12.6752994103074
30
0
0
VERTEX
8
0
10
17.901970158626
20
13.4486663454142
30
0
0
VERTEX
8
0
10
19.1806823128135
20
14.2060219950737
30
0
0
VERTEX
8
0
10
20.4593944670011
20
14.948174003123
30
0
0
VERTEX
8
0
10
21.7381066211887
20
15.675835166499
30
0
0
VERTEX
8
0
10
23.0168187753762
20
16.3896390011864
30
0
0
VERTEX
8
0
10
24.2955309295638
20
17.0901522669725
30
0
0
VERTEX
8
0
10
25.5742430837514
20
17.7778850583039
30
0
0
VERTEX
8
0
10
26.8529552379389
20
18.4532989806594
30
0
0
VERTEX
8
0
10
28.1316673921265
20
19.1168138277743
30
0
0
VERTEX
8
0
10
29.4103795463141
20
19.7688130811102
30
0
0
VERTEX
8
0
10
30.6890917005016
20
20.4096484783236
30
0
0
VERTEX
8
0
10
31.9678038546892
20
21.0396438391639
30
0
0
VERTEX
8
0
10
33.2465160088768
20
21.6590982941974
30
0
0
VERTEX
8
0
10
34.5252281630643
20
22.2682890289005
30
0
0
VERTEX
8
0
10
35.8039403172519
20
22.8674736310763
30
0
0
VERTEX
8
0
10
37.0826524714395
20
23.4568921113018
30
0
0
VERTEX
8
0
10
38.3613646256271
20
24.0367686517139
30
0
0
VERTEX
8
0
10
39.6400767798146
20
24.6073131275328
30
0
0
VERTEX
8
0
10
40.9187889340022
20
25.1687224372801
30
0
0
VERTEX
8
0
10
42.1975010881898
20
25.7211816710536
30
0
0
VERTEX
8
0
10
43.4762132423773
20
26.2648651410782
30
0
0
VERTEX
8
0
10
44.7549253965649
20
26.7999372938857
30
0
0
VERTEX
8
0
10
46.0336375507525
20
27.3265535215521
30
0
0
VERTEX
8
0
10
47.31234970494
20
27.8448608847907
30
0
0
VERTEX
8
0
10
48.5910618591276
20
28.354998760232
30
0
0
VERTEX
8
0
10
49.8697740133152
20
28.8570994214737
30
0
0
VERTEX
8
0
10
51.1484861675027
20
29.3512885621181
30
0
0
VERTEX
8
0
10
52.4271983216903
20
29.8376857679806
30
0
0
VERTEX
8
0
10
53.7059104758779
20
30.3164049445858
30
0
0
VERTEX
8
0
10
54.9846226300655
20
30.7875547051315
30
0
0
VERTEX
8
0
10
56.263334784253
20
31.2512387233362
30
0
0
VERTEX
8
0
10
57.5420469384406
20
31.7075560551195
30
0
0
VERTEX
8
0
10
58.8207590926282
20
32.1566014326655
30
0
0
VERTEX
8
0
10
60.0994712468157
20
32.59846553356
30
0
0
VERTEX
8
0
10
61.3781834010033
20
33.0332352277565
30
0
0
VERTEX
8
0
10
62.6568955551909
20
33.460993804552
30
0
0
VERTEX
8
0
10
63.9356077093784
20
33.8818211815978
30
0
0
VERTEX
8
0
10
65.214319863566
20
34.295794097837
30
0
0
VERTEX
8
0
10
66.4930320177536
20
34.7029862915127
30
0
0
VERTEX
8
0
10
67.7717441719411
20
35.1034686652275
30
0
0
VERTEX
8
0
10
69.0504563261287
20
35.4973094387239
30
0
0
VERTEX
8
0
10
70.3291684803163
20
35.8845742908297
30
0
0
VERTEX
8
0
10
71.6078806345038
20
36.2653264913699
30
0
0
VERTEX
8
0
10
72.8865927886914
20
36.6396270239964
30
0
0
VERTEX
8
0
10
74.165304942879
20
37.007534700734
30
0
0
VERTEX
8
0
10
75.4440170970665
20
37.3691062688213
30
0
0
VERTEX
8
0
10
76.7227292512541
20
37.7243965106487
30
0
0
VERTEX
8
0
10
78.0014414054417
20
38.0734583372801
30
0
0
VERTEX
8
0
10
79.2801535596293
20
38.4163428759628
30
0
0
VERTEX
8
0
10
80.5588657138168
20
38.7530995524107
30
0
0
VERTEX
8
0
10
81.8375778680044
20
39.0837761678665
30
0
0
VERTEX
8
0
10
83.116290022192
20
39.4084189717465
30
0
0
VERTEX
8
0
10
84.3950021763795
20
39.7270727298503
30
0
0
VERTEX
8
0
10
85.6737143305671
20
40.0397807886704
30
0
0
VERTEX
8
0
10
86.9524264847547
20
40.3465851362352
30
0
0
VERTEX
8
0
10
88.2311386389422
20
40.6475264591022
30
0
0
VERTEX
8
0
10
89.5098507931298
20
40.9426441967606
30
0
0
VERTEX
8
0
10
90.7885629473174
20
41.2319765927403
30
0
0
VERTEX
8
0
10
92.0672751015049
20
41.515560743076
30
0
0
VERTEX
8
0
10
93.3459872556925
20
41.7934326423315
30
0
0
VERTEX
8
0
10
94.6246994098801
20
42.0656272272187
30
0
0
VERTEX
8
0
10
95.9034115640677
20
42.3321784179761
30
0
0
VERTEX
8
0
10
97.1821237182552
20
42.593119157807
30
0
0
VERTEX
8
0
10
98.4608358724428
20
42.8484814503036
30
0
0
VERTEX
8
0
10
99.7395480266304
20
43.0982963951654
30
0
0
VERTEX
8
0
10
101.018260180818
20
43.3425942222181
30
0
0
VERTEX
8
0
10
102.296972335006
20
43.5814043239342
30
0
0
VERTEX
8
0
10
103.575684489193
20
43.8147552864071
30
0
0
VERTEX
8
0
10
104.854396643381
20
44.042674918997
30
0
0
VERTEX
8
0
10
106.133108797568
20
44.2651902828635
30
0
0
VERTEX
8
0
10
107.411820951756
20
44.4823277180136
30
0
0
VERTEX
8
0
10
108.690533105943
20
44.6941128695476
30
0
0
VERTEX
8
0
10
109.969245260131
20
44.9005707126881
30
0
0
VERTEX
8
0
10
111.247957414318
20
45.101725576862
30
0
0
VERTEX
8
0
10
112.526669568506
20
45.2976011689311
30
0
0
VERTEX
8
0
10
113.805381722694
20
45.4882205955719
30
0
0
VERTEX
8
0
10
115.084093876881
20
45.6736063848063
30
0
0
VERTEX
8
0
10
116.362806031069
20
45.8537805069022
30
0
0
VERTEX
8
0
10
117.641518185256
20
46.0287643944917
30
0
0
VERTEX
8
0
10
118.920230339444
20
46.1985789621195
30
0
0
VERTEX
8
0
10
120.198942493631
20
46.3632446252097
30
0
0
VERTEX
8
0
10
121.477654647819
20
46.5227813184388
30
0
0
VERTEX
8
0
10
122.756366802007
20
46.6772085136684
30
0
0
VERTEX
8
0
10
124.035078956194
20
46.826545237367
30
0
0
VERTEX
8
0
10
125.313791110382
20
46.9708100876655
30
0
0
VERTEX
8
0
10
126.592503264569
20
47.1100212509849
30
0
0
VERTEX
8
0
10
127.871215418757
20
47.244196518322
30
0
0
VERTEX
8
0
10
129.149927572944
20
47.3733533012936
30
0
0
VERTEX
8
0
10
130.428639727132
20
47.4975086478023
30
0
0
VERTEX
8
0
10
131.70735188132
20
47.6166792575167
30
0
0
VERTEX
8
0
10
132.986064035507
20
47.7308814971673
30
0
0
VERTEX
8
0
10
134.264776189695
20
47.8401314156039
30
0
0
VERTEX
8
0
10
135.543488343882
20
47.9444447587642
30
0
0
VERTEX
8
0
10
136.82220049807
20
48.0438369845061
30
0
0
VERTEX
8
0
10
138.100912652257
20
48.1383232773557
30
0
0
VERTEX
8
0
10
139.379624806445
20
48.227918563264
30
0
0
VERTEX
8
0
10
140.658336960633
20
48.3126375242349
30
0
0
VERTEX
8
0
10
141.93704911482
20
48.3924946131062
30
0
0
VERTEX
8
0
10
143.215761269008
20
48.4675040682837
30
0
0
VERTEX
8
0
10
144.494473423195
20
48.5376799286053
30
0
0
VERTEX
8
0
10
145.773185577383
20
48.6030360483152
30
0
0
VERTEX
8
0
10
147.05189773157
20
48.6635861121864
30
0
0
VERTEX
8
0
10
148.330609885758
20
48.7193436508349
30
0
0
VERTEX
8
0
10
149.609322039946
20
48.7703220562653
30
0
0
VERTEX
8
0
10
150.888034194133
20
48.8165345976736
30
0
0
VERTEX
8
0
10
152.166746348321
20
48.857994437562
30
0
0
VERTEX
8
0
10
153.445458502508
20
48.8947146481894
30
0
0
VERTEX
8
0
10
154.724170656696
20
48.9267082284165
30
0
0
SEQEND
8
0
0
POLYLINE
8
0
62
3
70
0
10
0
20
0
30
0
0
VERTEX
8
0
10
11.5084093876881
20
13.5402295549302
30
0
0
VERTEX
8
0
10
12.7871215418757
20
14.8821066286419
30
0
0
VERTEX
8
0
10
14.0658336960632
20
16.2052296683572
30
0
0
VERTEX
8
0
10
15.3445458502508
20
17.5105773954013
30
0
0
VERTEX
8
0
10
16.6232580044384
20
18.7989879647189
30
0
0
VERTEX
8
0
10
17.901970158626
20
20.0711823024186
30
0
0
VERTEX
8
0
10
19.1806823128135
20
21.3277841604891
30
0
0
VERTEX
8
0
10
20.4593944670011
20
22.5693370539906
30
0
0
VERTEX
8
0
10
21.7381066211887
20
23.7963181463089
30
0
0
VERTEX
8
0
10
23.0168187753762
20
25.0091494334786
30
0
0
VERTEX
8
0
10
24.2955309295638
20
26.2082066999756
30
0
0
VERTEX
8
0
10
25.5742430837514
20
27.3938267029813
30
0
0
VERTEX
8
0
10
26.8529552379389
20
28.5663129705208
30
0
0
VERTEX
8
0
10
28.1316673921265
20
29.7259405188617
30
0
0
VERTEX
8
0
10
29.4103795463141
20
30.8729597240349
30
0
0
VERTEX
8
0
10
30.6890917005016
20
32.0075995269202
30
0
0
VERTEX
8
0
10
31.9678038546892
20
33.1300701084483
30
0
0
VERTEX
8
0
10
33.2465160088768
20
34.240565139931
30
0
0
VERTEX
8
0
10
34.5252281630643
20
35.339263689582
30
0
0
VERTEX
8
0
10
35.8039403172519
20
36.4263318484272
30
0
0
VERTEX
8
0
10
37.0826524714395
20
37.5019241255402
30
0
0
VERTEX
8
0
10
38.3613646256271
20
38.5661846521497
30
0
0
VERTEX
8
0
10
39.6400767798146
20
39.6192482262811
30
0
0
VERTEX
8
0
10
40.9187889340022
20
40.6612412235232
30
0
0
VERTEX
8
0
10
42.1975010881898
20
41.6922823947642
30
0
0
VERTEX
8
0
10
43.4762132423773
20
42.7124835680314
30
0
0
VERTEX
8
0
10
44.7549253965649
20
43.7219502681688
30
0
0
VERTEX
8
0
10
46.0336375507525
20
44.7207822665606
30
0
0
VERTEX
8
0
10
47.31234970494
20
45.7090740699937
30
0
0
VERTEX
8
0
10
48.5910618591276
20
46.6869153572634
30
0
0
VERTEX
8
0
10
49.8697740133152
20
47.6543913702519
30
0
0
VERTEX
8
0
10
51.1484861675027
20
48.6115832652356
30
0
0
VERTEX
8
0
10
52.4271983216903
20
49.5585684294315
30
0
0
VERTEX
8
0
10
53.7059104758779
20
50.4954207670338
30
0
0
VERTEX
8
0
10
54.9846226300655
20
51.4222109583506
30
0
0
VERTEX
8
0
10
56.263334784253
20
52.339006695107
30
0
0
VERTEX
8
0
10
57.5420469384406
20
53.2458728946493
30
0
0
VERTEX
8
0
10
58.8207590926282
20
54.1428718954889
30
0
0
VERTEX
8
0
10
60.0994712468157
20
55.0300636360632
30
0
0
VERTEX
8
0
10
61.3781834010033
20
55.9075058185988
30
0
0
VERTEX
8
0
10
62.6568955551909
20
56.7752540595821
30
0
0
VERTEX
8
0
10
63.9356077093784
20
57.6333620282238
30
0
0
VERTEX
8
0
10
65.214319863566
20
58.4818815742042
30
0
0
VERTEX
8
0
10
66.4930320177536
20
59.3208628455133
30
0
0
VERTEX
8
0
10
67.7717441719411
20
60.1503543976908
30
0
0
VERTEX
8
0
10
69.0504563261287
20
60.9704032949652
30
0
0
VERTEX
8
0
10
70.3291684803163
20
61.7810552042488
30
0
0
VERTEX
8
0
10
71.6078806345038
20
62.5823544825476
30
0
0
VERTEX
8
0
10
72.8865927886914
20
63.3743442584212
30
0
0
VERTEX
8
0
10
74.165304942879
20
64.1570665080371
30
0
0
VERTEX
8
0
10
75.4440170970665
20
64.930562126221
30
0
0
VERTEX
8
0
10
76.7227292512541
20
65.6948709930242
30
0
0
VERTEX
8
0
10
78.0014414054417
20
66.4500320361558
30
0
0
VERTEX
8
0
10
79.2801535596293
20
67.1960832895501
30
0
0
VERTEX
8
0
10
80.5588657138168
20
67.9330619485784
30
0
0
VERTEX
8
0
10
81.8375778680044
20
68.6610044219403
30
0
0
VERTEX
8
0
10
83.116290022192
20
69.3799463807427
30
0
0
VERTEX
8
0
10
84.3950021763795
20
70.0899228047819
30
0
0
VERTEX
8
0
10
85.6737143305671
20
70.7909680263744
30
0
0
VERTEX
8
0
10
86.9524264847547
20
71.483115772007
30
0
0
VERTEX
8
0
10
88.2311386389422
20
72.1663992016185
30
0
0
VERTEX
8
0
10
89.5098507931298
20
72.8408509462512
30
0
0
VERTEX
8
0
10
90.7885629473174
20
73.5065031436976
30
0
0
VERTEX
8
0
10
92.0672751015049
20
74.1633874725304
30
0
0
VERTEX
8
0
10
93.3459872556925
20
74.8115351846511
30
0
0
VERTEX
8
0
10
94.6246994098801
20
75.450977136397
30
0
0
VERTEX
8
0
10
95.9034115640677
20
76.0817438183128
30
0
0
VERTEX
8
0
10
97.1821237182552
20
76.7038653837762
30
0
0
VERTEX
8
0
10
98.4608358724428
20
77.3173716764448
30
0
0
VERTEX
8
0
10
99.7395480266304
20
77.9222922567213
30
0
0
VERTEX
8
0
10
101.018260180818
20
78.5186564272405
30
0
0
VERTEX
8
0
10
102.296972335006
20
79.1064932575147
30
0
0
VERTEX
8
0
10
103.575684489193
20
79.685831607716
30
0
0
VERTEX
8
0
10
104.854396643381
20
80.2567001517286
30
0
0
VERTEX
8
0
10
106.133108797568
20
80.8191273996063
30
0
0
VERTEX
8
0
10
107.411820951756
20
81.3731417192298
30
0
0
VERTEX
8
0
10
108.690533105943
20
81.9187713575622
30
0
0
VERTEX
8
0
10
109.969245260131
20
82.4560444612743
30
0
0
VERTEX
8
0
10
111.247957414318
20
82.9849890969019
30
0
0
VERTEX
8
0
10
112.526669568506
20
83.505633270595
30
0
0
VERTEX
8
0
10
113.805381722694
20
84.0180049474675
30
0
0
VERTEX
8
0
10
115.084093876881
20
84.5221320705557
30
0
0
VERTEX
8
0
10
116.362806031069
20
85.0180425795142
30
0
0
VERTEX
8
0
10
117.641518185256
20
85.505764428973
30
0
0
VERTEX
8
0
10
118.920230339444
20
85.9853256066795
30
0
0
VERTEX
8
0
10
120.198942493631
20
86.4567541514234
30
0
0
VERTEX
8
0
10
121.477654647819
20
86.9200781707501
30
0
0
VERTEX
8
0
10
122.756366802007
20
87.375325858545
30
0
0
VERTEX
8
0
10
124.035078956194
20
87.8225255124647
30
0
0
VERTEX
8
0
10
125.313791110382
20
88.2617055512946
30
0
0
VERTEX
8
0
10
126.592503264569
20
88.6928945322076
30
0
0
VERTEX
8
0
10
127.871215418757
20
89.1161211679741
30
0
0
VERTEX
8
0
10
129.149927572944
20
89.5314143441884
30
0
0
VERTEX
8
0
10
130.428639727132
20
89.9388031364389
30
0
0
VERTEX
8
0
10
131.70735188132
20
90.3383168275314
30
0
0
VERTEX
8
0
10
132.986064035507
20
90.7299849247747
30
0
0
VERTEX
8
0
10
134.264776189695
20
91.1138371773039
30
0
0
VERTEX
8
0
10
135.543488343882
20
91.4899035935237
30
0
0
VERTEX
8
0
10
136.82220049807
20
91.8582144586564
30
0
0
VERTEX
8
0
10
138.100912652257
20
92.2188003524229
30
0
0
VERTEX
8
0
10
139.379624806445
20
92.5716921669141
30
0
0
VERTEX
8
0
10
140.658336960633
20
92.9169211245816
30
0
0
VERTEX
8
0
10
141.93704911482
20
93.2545187965062
30
0
0
VERTEX
8
0
10
143.215761269008
20
93.5845171208372
30
0
0
VERTEX
8
0
10
144.494473423195
20
93.9069484215034
30
0
0
VERTEX
8
0
10
145.773185577383
20
94.221845427189
30
0
0
VERTEX
8
0
10
147.05189773157
20
94.5292412905994
30
0
0
VERTEX
8
0
10
148.330609885758
20
94.8291696080402
30
0
0
VERTEX
8
0
10
149.609322039946
20
95.1216644393344
30
0
0
VERTEX
8
0
10
150.888034194133
20
95.4067603280994
30
0
0
VERTEX
8
0
10
152.166746348321
20
95.6844923224062
30
0
0
VERTEX
8
0
10
153.445458502508
20
95.9548959958423
30
0
0
VERTEX
8
0
10
154.724170656696
20
96.2180074690119
30
0
0
SEQEND
8
0
0
POLYLINE
8
0
62
4
70
0
10
0
20
0
30
0
0
VERTEX
8
0
10
11.5084093876881
20
11.7005475018658
30
0
0
VERTEX
8
0
10
12.7871215418757
20
12.9639536127282
30
0
0
VERTEX
8
0
10
14.0658336960632
20
14.2212201358547
30
0
0
VERTEX
8
0
10
15.3445458502508
20
15.4859385636523
30
0
0
VERTEX
8
0
10
16.6232580044384
20
16.7428120008246
30
0
0
VERTEX
8
0
10
17.901970158626
20
17.9936452558616
30
0
0
VERTEX
8
0
10
19.1806823128135
20
19.2384524197959
30
0
0
VERTEX
8
0
10
20.4593944670011
20
20.4772479580723
30
0
0
VERTEX
8
0
10
21.7381066211887
20
21.7100466423228
30
0
0
VERTEX
8
0
10
23.0168187753762
20
22.9368635058881
30
0
0
VERTEX
8
0
10
24.2955309295638
20
24.1577138141051
30
0
0
VERTEX
8
0
10
25.5742430837514
20
25.3780007287787
30
0
0
VERTEX
8
0
10
26.8529552379389
20
26.5930355766575
30
0
0
VERTEX
8
0
10
28.1316673921265
20
27.7896229490933
30
0
0
VERTEX
8
0
10
29.4103795463141
20
28.9776494405907
30
0
0
VERTEX
8
0
10
30.6890917005016
20
30.1597463679443
30
0
0
VERTEX
8
0
10
31.9678038546892
20
31.3359297619764
30
0
0
VERTEX
8
0
10
33.2465160088768
20
32.4955498415497
30
0
0
VERTEX
8
0
10
34.5252281630643
20
33.6446152473626
30
0
0
VERTEX
8
0
10
35.8039403172519
20
34.7838860867203
30
0
0
VERTEX
8
0
10
37.0826524714395
20
35.914986446744
30
0
0
VERTEX
8
0
10
38.3613646256271
20
37.0454106981824
30
0
0
VERTEX
8
0
10
39.6400767798146
20
38.1739541564394
30
0
0
VERTEX
8
0
10
40.9187889340022
20
39.2951008696346
30
0
0
VERTEX
8
0
10
42.1975010881898
20
40.4088731089902
30
0
0
VERTEX
8
0
10
43.4762132423773
20
41.5168195246565
30
0
0
VERTEX
8
0
10
44.7549253965649
20
42.6211840270241
30
0
0
VERTEX
8
0
10
46.0336375507525
20
43.7190855033523
30
0
0
VERTEX
8
0
10
47.31234970494
20
44.764302252204
30
0
0
VERTEX
8
0
10
48.5910618591276
20
45.8163919083808
30
0
0
VERTEX
8
0
10
49.8697740133152
20
46.9950828396547
30
0
0
VERTEX
8
0
10
51.1484861675027
20
48.1374625812464
30
0
0
VERTEX
8
0
10
52.4271983216903
20
49.0289151507341
30
0
0
VERTEX
8
0
10
53.7059104758779
20
49.962637536071
30
0
0
VERTEX
8
0
10
54.9846226300655
20
50.9053827629034
30
0
0
VERTEX
8
0
10
56.263334784253
20
51.8402248557706
30
0
0
VERTEX
8
0
10
57.5420469384406
20
52.76246466276
30
0
0
VERTEX
8
0
10
58.8207590926282
20
53.6796979778012
30
0
0
VERTEX
8
0
10
60.0994712468157
20
54.5944487945827
30
0
0
VERTEX
8
0
10
61.3781834010033
20
55.5033186413107
30
0
0
VERTEX
8
0
10
62.6568955551909
20
56.4003965424107
30
0
0
VERTEX
8
0
10
63.9356077093784
20
57.2916309258379
30
0
0
VERTEX
8
0
10
65.214319863566
20
58.182761826204
30
0
0
VERTEX
8
0
10
66.4930320177536
20
59.0686486897375
30
0
0
VERTEX
8
0
10
67.7717441719411
20
59.9435532901959
30
0
0
VERTEX
8
0
10
69.0504563261287
20
60.8118051733937
30
0
0
VERTEX
8
0
10
70.3291684803163
20
61.6791358197078
30
0
0
VERTEX
8
0
10
71.6078806345038
20
62.542024795666
30
0
0
VERTEX
8
0
10
72.8865927886914
20
63.3616096596454
30
0
0
VERTEX
8
0
10
74.165304942879
20
64.1610840500714
30
0
0
VERTEX
8
0
10
75.4440170970665
20
64.9228881143551
30
0
0
VERTEX
8
0
10
76.7227292512541
20
65.6625029821364
30
0
0
VERTEX
8
0
10
78.0014414054417
20
66.3930765457051
30
0
0
VERTEX
8
0
10
79.2801535596293
20
67.1157262177713
30
0
0
VERTEX
8
0
10
80.5588657138168
20
67.8344915791893
30
0
0
VERTEX
8
0
10
81.8375778680044
20
68.5491768470943
30
0
0
VERTEX
8
0
10
83.116290022192
20
69.2583365725068
30
0
0
VERTEX
8
0
10
84.3950021763795
20
69.9619549289961
30
0
0
VERTEX
8
0
10
85.6737143305671
20
70.6600180643423
30
0
0
VERTEX
8
0
10
86.9524264847547
20
71.348358023694
30
0
0
VERTEX
8
0
10
88.2311386389422
20
72.0323157701367
30
0
0
VERTEX
8
0
10
89.5098507931298
20
72.7185923101655
30
0
0
VERTEX
8
0
10
90.7885629473174
20
73.3972943799688
30
0
0
VERTEX
8
0
10
92.0672751015049
20
74.059161958953
30
0
0
VERTEX
8
0
10
93.3459872556925
20
74.7178153566913
30
0
0
VERTEX
8
0
10
94.6246994098801
20
75.3249213428514
30
0
0
VERTEX
8
0
10
95.9034115640677
20
75.9343311344648
30
0
0
VERTEX
8
0
10
97.1821237182552
20
76.4984217241201
30
0
0
VERTEX
8
0
10
98.4608358724428
20
77.0620736832398
30
0
0
VERTEX
8
0
10
99.7395480266304
20
77.6328895606738
30
0
0
VERTEX
8
0
10
101.018260180818
20
78.197500629206
30
0
0
VERTEX
8
0
10
102.296972335006
20
78.7422055100187
30
0
0
VERTEX
8
0
10
103.575684489193
20
79.2816979739362
30
0
0
VERTEX
8
0
10
104.854396643381
20
79.8320658198375
30
0
0
VERTEX
8
0
10
106.133108797568
20
80.3780030776836
30
0
0
VERTEX
8
0
10
107.411820951756
20
80.9009841793547
30
0
0
VERTEX
8
0
10
108.690533105943
20
81.4161521924205
30
0
0
VERTEX
8
0
10
109.969245260131
20
81.9420891663165
30
0
0
VERTEX
8
0
10
111.247957414318
20
82.4663143851587
30
0
0
VERTEX
8
0
10
112.526669568506
20
82.9703034963002
30
0
0
VERTEX
8
0
10
113.805381722694
20
83.463895942255
30
0
0
VERTEX
8
0
10
115.084093876881
20
83.9597774287025
30
0
0
VERTEX
8
0
10
116.362806031069
20
84.4538144103175
30
0
0
VERTEX
8
0
10
117.641518185256
20
84.9320526382554
30
0
0
VERTEX
8
0
10
118.920230339444
20
85.398474402023
30
0
0
VERTEX
8
0
10
120.198942493631
20
85.8595339455714
30
0
0
VERTEX
8
0
10
121.477654647819
20
86.3152309709117
30
0
0
VERTEX
8
0
10
122.756366802007
20
86.7655663461438
30
0
0
VERTEX
8
0
10
124.035078956194
20
87.2146623528994
30
0
0
VERTEX
8
0
10
125.313791110382
20
87.6570401160678
30
0
0
VERTEX
8
0
10
126.592503264569
20
88.105837034649
30
0
0
VERTEX
8
0
10
127.871215418757
20
88.5457525128406
30
0
0
VERTEX
8
0
10
129.149927572944
20
88.9616120598941
30
0
0
VERTEX
8
0
10
130.428639727132
20
89.3770689389534
30
0
0
VERTEX
8
0
10
131.70735188132
20
89.7907561470921
30
0
0
VERTEX
8
0
10
132.986064035507
20
90.1983273194324
30
0
0
VERTEX
8
0
10
134.264776189695
20
90.6005944154189
30
0
0
VERTEX
8
0
10
135.543488343882
20
90.9975685807893
30
0
0
VERTEX
8
0
10
136.82220049807
20
91.3734106725841
30
0
0
VERTEX
8
0
10
138.100912652257
20
91.7462317191707
30
0
0
VERTEX
8
0
10
139.379624806445
20
92.1048870809138
30
0
0
VERTEX
8
0
10
140.658336960633
20
92.4591512445441
30
0
0
VERTEX
8
0
10
141.93704911482
20
92.8082459860111
30
0
0
VERTEX
8
0
10
143.215761269008
20
93.1521836348399
30
0
0
VERTEX
8
0
10
144.494473423195
20
93.4883662325101
30
0
0
VERTEX
8
0
10
145.773185577383
20
93.8193369595125
30
0
0
VERTEX
8
0
10
147.05189773157
20
94.1452008941721
30
0
0
VERTEX
8
0
10
148.330609885758
20
94.4659736466139
30
0
0
VERTEX
8
0
10
149.609322039946
20
94.7816717654452
30
0
0
VERTEX
8
0
10
150.888034194133
20
95.092312730774
30
0
0
VERTEX
8
0
10
152.166746348321
20
95.4020491633773
30
0
0
VERTEX
8
0
10
153.445458502508
20
95.7079800132958
30
0
0
VERTEX
8
0
10
154.724170656696
20
96.0225786895972
30
0
0
SEQEND
8
0
0
ENDSEC
0
EOF
