0
SECTION
2
HEADER
9
$ACADVER
1
AC1009
0
ENDSEC
0
SECTION
2
ENTITIES
0
POLYLINE
8
0
62
0
70
1
10
0
20
0
30
0
0
VERTEX
8
0
10
0
20
0
30
0
0
VERTEX
8
0
10
0
20
107.54
30
0
0
VERTEX
8
0
10
179.2
20
107.54
30
0
0
VERTEX
8
0
10
179.2
20
0
30
0
0
SEQEND
8
0
0
TEXT
8
0
62
0
10
0
20
-12
30
0
40
8
1
0
50
0
0
LINE
8
0
62
0
10
9.18974358974359
20
0
30
0
11
9.18974358974359
21
3.2
31
0
0
LINE
8
0
62
0
10
9.18974358974359
20
107.54
30
0
11
9.18974358974359
21
104.34
31
0
0
LINE
8
0
62
0
10
18.3794871794872
20
0
30
0
11
18.3794871794872
21
3.2
31
0
0
LINE
8
0
62
0
10
18.3794871794872
20
107.54
30
0
11
18.3794871794872
21
104.34
31
0
0
LINE
8
0
62
0
10
27.5692307692308
20
0
30
0
11
27.5692307692308
21
3.2
31
0
0
LINE
8
0
62
0
10
27.5692307692308
20
107.54
30
0
11
27.5692307692308
21
104.34
31
0
0
LINE
8
0
62
0
10
36.7589743589744
20
0
30
0
11
36.7589743589744
21
3.2
31
0
0
LINE
8
0
62
0
10
36.7589743589744
20
107.54
30
0
11
36.7589743589744
21
104.34
31
0
0
LINE
8
0
62
0
10
45.9487179487179
20
0
30
0
11
45.9487179487179
21
6.4
31
0
0
LINE
8
0
62
0
10
45.9487179487179
20
107.54
30
0
11
45.9487179487179
21
101.14
31
0
0
TEXT
8
0
62
0
10
45.9487179487179
20
-12
30
0
40
8
1
5
50
0
0
LINE
8
0
62
0
10
55.1384615384615
20
0
30
0
11
55.1384615384615
21
3.2
31
0
0
LINE
8
0
62
0
10
55.1384615384615
20
107.54
30
0
11
55.1384615384615
21
104.34
31
0
0
LINE
8
0
62
0
10
64.3282051282051
20
0
30
0
11
64.3282051282051
21
3.2
31
0
0
LINE
8
0
62
0
10
64.3282051282051
20
107.54
30
0
11
64.3282051282051
21
104.34
31
0
0
LINE
8
0
62
0
10
73.5179487179487
20
0
30
0
11
73.5179487179487
21
3.2
31
0
0
LINE
8
0
62
0
10
73.5179487179487
20
107.54
30
0
11
73.5179487179487
21
104.34
31
0
0
LINE
8
0
62
0
10
82.7076923076923
20
0
30
0
11
82.7076923076923
21
3.2
31
0
0
LINE
8
0
62
0
10
82.7076923076923
20
107.54
30
0
11
82.7076923076923
21
104.34
31
0
0
LINE
8
0
62
0
10
91.8974358974359
20
0
30
0
11
91.8974358974359
21
6.4
31
0
0
LINE
8
0
62
0
10
91.8974358974359
20
107.54
30
0
11
91.8974358974359
21
101.14
31
0
0
TEXT
8
0
62
0
10
91.8974358974359
20
-12
30
0
40
8
1
10
50
0
0
LINE
8
0
62
0
10
101.087179487179
20
0
30
0
11
101.087179487179
21
3.2
31
0
0
LINE
8
0
62
0
10
101.087179487179
20
107.54
30
0
11
101.087179487179
21
104.34
31
0
0
LINE
8
0
62
0
10
110.276923076923
20
0
30
0
11
110.276923076923
21
3.2
31
0
0
LINE
8
0
62
0
10
110.276923076923
20
107.54
30
0
11
110.276923076923
21
104.34
31
0
0
LINE
8
0
62
0
10
119.466666666667
20
0
30
0
11
119.466666666667
21
3.2
31
0
0
LINE
8
0
62
0
10
119.466666666667
20
107.54
30
0
11
119.466666666667
21
104.34
31
0
0
LINE
8
0
62
0
10
128.65641025641
20
0
30
0
11
128.65641025641
21
3.2
31
0
0
LINE
8
0
62
0
10
128.65641025641
20
107.54
30
0
11
128.65641025641
21
104.34
31
0
0
LINE
8
0
62
0
10
137.846153846154
20
0
30
0
11
137.846153846154
21
6.4
31
0
0
LINE
8
0
62
0
10
137.846153846154
20
107.54
30
0
11
137.846153846154
21
101.14
31
0
0
TEXT
8
0
62
0
10
137.846153846154
20
-12
30
0
40
8
1
15
50
0
0
LINE
8
0
62
0
10
147.035897435897
20
0
30
0
11
147.035897435897
21
3.2
31
0
0
LINE
8
0
62
0
10
147.035897435897
20
107.54
30
0
11
147.035897435897
21
104.34
31
0
0
LINE
8
0
62
0
10
156.225641025641
20
0
30
0
11
156.225641025641
21
3.2
31
0
0
LINE
8
0
62
0
10
156.225641025641
20
107.54
30
0
11
156.225641025641
21
104.34
31
0
0
LINE
8
0
62
0
10
165.415384615385
20
0
30
0
11
165.415384615385
21
3.2
31
0
0
LINE
8
0
62
0
10
165.415384615385
20
107.54
30
0
11
165.415384615385
21
104.34
31
0
0
LINE
8
0
62
0
10
174.605128205128
20
0
30
0
11
174.605128205128
21
3.2
31
0
0
LINE
8
0
62
0
10
174.605128205128
20
107.54
30
0
11
174.605128205128
21
104.34
31
0
0
TEXT
8
0
62
0
10
-4
20
-4
30
0
40
8
1
0
50
0
0
LINE
8
0
62
0
10
0
20
6.72125
30
0
11
3.2
21
6.72125
31
0
0
LINE
8
0
62
0
10
179.2
20
6.72125
30
0
11
176
21
6.72125
31
0
0
LINE
8
0
62
0
10
0
20
13.4425
30
0
11
3.2
21
13.4425
31
0
0
LINE
8
0
62
0
10
179.2
20
13.4425
30
0
11
176
21
13.4425
31
0
0
LINE
8
0
62
0
10
0
20
20.16375
30
0
11
3.2
21
20.16375
31
0
0
LINE
8
0
62
0
10
179.2
20
20.16375
30
0
11
176
21
20.16375
31
0
0
LINE
8
0
62
0
10
0
20
26.885
30
0
11
3.2
21
26.885
31
0
0
LINE
8
0
62
0
10
179.2
20
26.885
30
0
11
176
21
26.885
31
0
0
LINE
8
0
62
0
10
0
20
33.60625
30
0
11
6.4
21
33.60625
31
0
0
LINE
8
0
62
0
10
179.2
20
33.60625
30
0
11
172.8
21
33.60625
31
0
0
TEXT
8
0
62
0
10
-4
20
29.60625
30
0
40
8
1
50
50
0
0
LINE
8
0
62
0
10
0
20
40.3275
30
0
11
3.2
21
40.3275
31
0
0
LINE
8
0
62
0
10
179.2
20
40.3275
30
0
11
176
21
40.3275
31
0
0
LINE
8
0
62
0
10
0
20
47.04875
30
0
11
3.2
21
47.04875
31
0
0
LINE
8
0
62
0
10
179.2
20
47.04875
30
0
11
176
21
47.04875
31
0
0
LINE
8
0
62
0
10
0
20
53.77
30
0
11
3.2
21
53.77
31
0
0
LINE
8
0
62
0
10
179.2
20
53.77
30
0
11
176
21
53.77
31
0
0
LINE
8
0
62
0
10
0
20
60.49125
30
0
11
3.2
21
60.49125
31
0
0
LINE
8
0
62
0
10
179.2
20
60.49125
30
0
11
176
21
60.49125
31
0
0
LINE
8
0
62
0
10
0
20
67.2125
30
0
11
6.4
21
67.2125
31
0
0
LINE
8
0
62
0
10
179.2
20
67.2125
30
0
11
172.8
21
67.2125
31
0
0
TEXT
8
0
62
0
10
-4
20
63.2125
30
0
40
8
1
100
50
0
0
LINE
8
0
62
0
10
0
20
73.93375
30
0
11
3.2
21
73.93375
31
0
0
LINE
8
0
62
0
10
179.2
20
73.93375
30
0
11
176
21
73.93375
31
0
0
LINE
8
0
62
0
10
0
20
80.655
30
0
11
3.2
21
80.655
31
0
0
LINE
8
0
62
0
10
179.2
20
80.655
30
0
11
176
21
80.655
31
0
0
LINE
8
0
62
0
10
0
20
87.37625
30
0
11
3.2
21
87.37625
31
0
0
LINE
8
0
62
0
10
179.2
20
87.37625
30
0
11
176
21
87.37625
31
0
0
LINE
8
0
62
0
10
0
20
94.0975
30
0
11
3.2
21
94.0975
31
0
0
LINE
8
0
62
0
10
179.2
20
94.0975
30
0
11
176
21
94.0975
31
0
0
LINE
8
0
62
0
10
0
20
100.81875
30
0
11
6.4
21
100.81875
31
0
0
LINE
8
0
62
0
10
179.2
20
100.81875
30
0
11
172.8
21
100.81875
31
0
0
TEXT
8
0
62
0
10
-4
20
96.81875
30
0
40
8
1
150
50
0
0
TEXT
8
0
62
0
10
89.6
20
-32
30
0
40
10
1
R (kpc)
50
0
0
TEXT
8
0
62
0
10
-24
20
53.77
30
0
40
10
1
V (km/s)
50
90
0
TEXT
8
0
62
0
10
72.6
20
122.54
30
0
40
11
1
V vs. R
50
0
0
POLYLINE
8
0
62
5
70
0
10
0
20
0
30
0
0
VERTEX
8
0
10
1.83794871794872
20
10.756917955117
30
0
0
VERTEX
8
0
10
2.75692307692308
20
13.3929314754191
30
0
0
VERTEX
8
0
10
3.67589743589744
20
16.0289449957212
30
0
0
VERTEX
8
0
10
4.59487179487179
20
18.6649585160233
30
0
0
VERTEX
8
0
10
5.51384615384615
20
21.4322208599155
30
0
0
VERTEX
8
0
10
6.43282051282051
20
24.2952474006534
30
0
0
VERTEX
8
0
10
7.35179487179487
20
27.6722899972713
30
0
0
VERTEX
8
0
10
8.27076923076923
20
29.5508965593332
30
0
0
VERTEX
8
0
10
9.18974358974359
20
31.4815132234672
30
0
0
VERTEX
8
0
10
10.1087179487179
20
33.3342579266321
30
0
0
VERTEX
8
0
10
11.0276923076923
20
35.1526851457545
30
0
0
VERTEX
8
0
10
11.9466666666667
20
36.3649503541225
30
0
0
VERTEX
8
0
10
12.865641025641
20
37.5990138534008
30
0
0
VERTEX
8
0
10
13.7846153846154
20
38.7481159295951
30
0
0
VERTEX
8
0
10
14.7035897435897
20
39.8972180057894
30
0
0
VERTEX
8
0
10
15.6225641025641
20
40.4465160286063
30
0
0
VERTEX
8
0
10
16.5415384615385
20
41.1752354537589
30
0
0
VERTEX
8
0
10
17.4605128205128
20
41.7059201909616
30
0
0
VERTEX
8
0
10
18.3794871794872
20
42.2493005715667
30
0
0
VERTEX
8
0
10
19.2984615384615
20
42.6490881808162
30
0
0
VERTEX
8
0
10
20.2174358974359
20
42.990280512824
30
0
0
VERTEX
8
0
10
21.1364102564103
20
43.3314728448319
30
0
0
VERTEX
8
0
10
22.0553846153846
20
43.5075248279366
30
0
0
VERTEX
8
0
10
22.974358974359
20
43.7265618805836
30
0
0
VERTEX
8
0
10
23.8933333333333
20
43.8200422583154
30
0
0
VERTEX
8
0
10
24.8123076923077
20
43.9127117805891
30
0
0
VERTEX
8
0
10
25.7312820512821
20
43.9224268465207
30
0
0
VERTEX
8
0
10
26.6502564102564
20
43.8845165874087
30
0
0
VERTEX
8
0
10
27.5692307692308
20
43.8466063282967
30
0
0
VERTEX
8
0
10
28.4882051282051
20
43.7818014245625
30
0
0
VERTEX
8
0
10
29.4071794871795
20
43.7228299103883
30
0
0
VERTEX
8
0
10
30.3261538461539
20
43.5593776671541
30
0
0
VERTEX
8
0
10
31.2451282051282
20
43.386675375644
30
0
0
VERTEX
8
0
10
32.1641025641026
20
43.2068919311161
30
0
0
VERTEX
8
0
10
33.0830769230769
20
43.0215528865686
30
0
0
VERTEX
8
0
10
34.0020512820513
20
42.8362138420211
30
0
0
VERTEX
8
0
10
34.9210256410257
20
42.5546708993504
30
0
0
VERTEX
8
0
10
35.84
20
42.2892990855665
30
0
0
VERTEX
8
0
10
36.7589743589744
20
42.0097109087165
30
0
0
VERTEX
8
0
10
37.6779487179487
20
41.7274900908829
30
0
0
VERTEX
8
0
10
38.5969230769231
20
41.4452692730492
30
0
0
VERTEX
8
0
10
39.5158974358974
20
41.1317631077837
30
0
0
VERTEX
8
0
10
40.4348717948718
20
40.8284810348878
30
0
0
VERTEX
8
0
10
41.3538461538461
20
40.5157033676044
30
0
0
VERTEX
8
0
10
42.2728205128205
20
40.2039967926836
30
0
0
VERTEX
8
0
10
43.1917948717949
20
39.8825746430592
30
0
0
VERTEX
8
0
10
44.1107692307692
20
39.5582313151012
30
0
0
VERTEX
8
0
10
45.0297435897436
20
39.2338879871431
30
0
0
VERTEX
8
0
10
45.9487179487179
20
38.9154861628061
30
0
0
VERTEX
8
0
10
46.8676923076923
20
38.5953550858605
30
0
0
VERTEX
8
0
10
47.7866666666666
20
38.2752240089148
30
0
0
VERTEX
8
0
10
48.705641025641
20
37.9550929319692
30
0
0
VERTEX
8
0
10
49.6246153846154
20
37.6378848140595
30
0
0
VERTEX
8
0
10
50.5435897435897
20
37.3219659881263
30
0
0
VERTEX
8
0
10
51.4625641025641
20
37.0060471621931
30
0
0
VERTEX
8
0
10
52.3815384615384
20
36.7126320872829
30
0
0
VERTEX
8
0
10
53.3005128205128
20
36.4135622653994
30
0
0
VERTEX
8
0
10
54.2194871794871
20
36.1186091089792
30
0
0
VERTEX
8
0
10
55.1384615384615
20
35.8237515381082
30
0
0
VERTEX
8
0
10
56.0574358974358
20
35.5262865740667
30
0
0
VERTEX
8
0
10
56.9764102564102
20
35.2272167521832
30
0
0
VERTEX
8
0
10
57.8953846153846
20
34.9281469302998
30
0
0
VERTEX
8
0
10
58.8143589743589
20
34.6396978521972
30
0
0
VERTEX
8
0
10
59.7333333333333
20
34.3490525323387
30
0
0
VERTEX
8
0
10
60.6523076923076
20
34.0584072124802
30
0
0
VERTEX
8
0
10
61.571282051282
20
33.7677618926217
30
0
0
VERTEX
8
0
10
62.4902564102563
20
33.4908675365946
30
0
0
VERTEX
8
0
10
63.4092307692307
20
33.2254957228107
30
0
0
VERTEX
8
0
10
64.328205128205
20
32.9601239090268
30
0
0
VERTEX
8
0
10
65.2471794871794
20
32.7097365133182
30
0
0
VERTEX
8
0
10
66.1661538461537
20
32.4570014525717
30
0
0
VERTEX
8
0
10
67.0851282051281
20
32.2112374592901
30
0
0
VERTEX
8
0
10
68.0041025641025
20
31.9669269005685
30
0
0
VERTEX
8
0
10
68.9230769230768
20
31.7226163418468
30
0
0
VERTEX
8
0
10
69.8420512820512
20
31.4783057831251
30
0
0
VERTEX
8
0
10
70.7610256410255
20
31.2339952244035
30
0
0
VERTEX
8
0
10
71.6799999999999
20
30.9803261853623
30
0
0
VERTEX
8
0
10
72.5989743589742
20
30.7275911246157
30
0
0
VERTEX
8
0
10
73.5179487179486
20
30.5002158068067
30
0
0
VERTEX
8
0
10
74.436923076923
20
30.2811787541597
30
0
0
VERTEX
8
0
10
75.3558974358973
20
30.0621417015126
30
0
0
VERTEX
8
0
10
76.2748717948717
20
29.8724693818008
30
0
0
VERTEX
8
0
10
77.193846153846
20
29.674493584216
30
0
0
VERTEX
8
0
10
78.1128205128204
20
29.4721541123368
30
0
0
VERTEX
8
0
10
79.0317948717947
20
29.2699660637395
30
0
0
VERTEX
8
0
10
79.9507692307691
20
29.0763412211479
30
0
0
VERTEX
8
0
10
80.8697435897435
20
28.886789925588
30
0
0
VERTEX
8
0
10
81.7887179487178
20
28.6972386300281
30
0
0
VERTEX
8
0
10
82.7076923076922
20
28.4965725730247
30
0
0
VERTEX
8
0
10
83.6266666666665
20
28.2985967754399
30
0
0
VERTEX
8
0
10
84.5456410256409
20
28.1087171947134
30
0
0
VERTEX
8
0
10
85.4646153846152
20
27.9191658991535
30
0
0
VERTEX
8
0
10
86.3835897435896
20
27.7499252926859
30
0
0
VERTEX
8
0
10
87.3025641025639
20
27.5940720052255
30
0
0
VERTEX
8
0
10
88.2215384615383
20
27.4382187177651
30
0
0
VERTEX
8
0
10
89.1405128205126
20
27.2823654303048
30
0
0
VERTEX
8
0
10
90.059487179487
20
27.1265121428444
30
0
0
VERTEX
8
0
10
90.9784615384614
20
26.9631937702564
30
0
0
VERTEX
8
0
10
91.8974358974357
20
26.7989159807712
30
0
0
VERTEX
8
0
10
92.8164102564101
20
26.6390847318283
30
0
0
VERTEX
8
0
10
93.7353846153844
20
26.483231444368
30
0
0
VERTEX
8
0
10
94.6543589743588
20
26.3273781569076
30
0
0
VERTEX
8
0
10
95.5733333333331
20
26.1764511184383
30
0
0
VERTEX
8
0
10
96.4923076923075
20
26.0248100819904
30
0
0
VERTEX
8
0
10
97.4112820512818
20
25.8800029989394
30
0
0
VERTEX
8
0
10
98.3302564102562
20
25.7367864645164
30
0
0
VERTEX
8
0
10
99.2492307692306
20
25.5935699300933
30
0
0
VERTEX
8
0
10
100.168205128205
20
25.4687132619253
30
0
0
VERTEX
8
0
10
101.087179487179
20
25.3381334805396
30
0
0
VERTEX
8
0
10
102.006153846154
20
25.1983323329024
30
0
0
VERTEX
8
0
10
102.925128205128
20
25.0593280494917
30
0
0
VERTEX
8
0
10
103.844102564102
20
24.9234251769143
30
0
0
VERTEX
8
0
10
104.763076923077
20
24.7886331445162
30
0
0
VERTEX
8
0
10
105.682051282051
20
24.653841112118
30
0
0
VERTEX
8
0
10
106.601025641025
20
24.5306578588259
30
0
0
VERTEX
8
0
10
107.52
20
24.4042903284526
30
0
0
VERTEX
8
0
10
108.438974358974
20
24.2779227980793
30
0
0
VERTEX
8
0
10
109.357948717948
20
24.151555267706
30
0
0
VERTEX
8
0
10
110.276923076923
20
24.0419028071398
30
0
0
VERTEX
8
0
10
111.195897435897
20
23.9408087828412
30
0
0
VERTEX
8
0
10
112.114871794872
20
23.8397147585426
30
0
0
VERTEX
8
0
10
113.033846153846
20
23.738620734244
30
0
0
VERTEX
8
0
10
113.95282051282
20
23.6375267099453
30
0
0
VERTEX
8
0
10
114.871794871795
20
23.5284735828565
30
0
0
VERTEX
8
0
10
115.790769230769
20
23.418955056533
30
0
0
VERTEX
8
0
10
116.709743589743
20
23.3143770884145
30
0
0
VERTEX
8
0
10
117.628717948718
20
23.2132830641159
30
0
0
VERTEX
8
0
10
118.547692307692
20
23.1121890398173
30
0
0
VERTEX
8
0
10
119.466666666666
20
23.0110950155187
30
0
0
VERTEX
8
0
10
120.385641025641
20
22.9100009912201
30
0
0
VERTEX
8
0
10
121.304615384615
20
22.8235629090406
30
0
0
VERTEX
8
0
10
122.223589743589
20
22.7393178887917
30
0
0
VERTEX
8
0
10
123.142564102564
20
22.6507634420685
30
0
0
VERTEX
8
0
10
124.061538461538
20
22.5580939197947
30
0
0
VERTEX
8
0
10
124.980512820513
20
22.465424397521
30
0
0
VERTEX
8
0
10
125.899487179487
20
22.3727548752473
30
0
0
VERTEX
8
0
10
126.818461538461
20
22.2800853529735
30
0
0
VERTEX
8
0
10
127.737435897436
20
22.1941126700287
30
0
0
VERTEX
8
0
10
128.65641025641
20
22.1098676497799
30
0
0
VERTEX
8
0
10
129.575384615384
20
22.025622629531
30
0
0
VERTEX
8
0
10
130.494358974359
20
21.9413776092822
30
0
0
VERTEX
8
0
10
131.413333333333
20
21.8571325890333
30
0
0
VERTEX
8
0
10
132.332307692307
20
21.7819718209679
30
0
0
VERTEX
8
0
10
133.251282051282
20
21.706151302744
30
0
0
VERTEX
8
0
10
134.170256410256
20
21.6363964921183
30
0
0
VERTEX
8
0
10
135.08923076923
20
21.5690004759192
30
0
0
VERTEX
8
0
10
136.008205128205
20
21.5016044597201
30
0
0
VERTEX
8
0
10
136.927179487179
20
21.4055292809261
30
0
0
VERTEX
8
0
10
137.846153846153
20
21.3170720096648
30
0
0
VERTEX
8
0
10
138.765128205128
20
21.2412944190827
30
0
0
VERTEX
8
0
10
139.684102564102
20
21.1654739008587
30
0
0
VERTEX
8
0
10
140.603076923077
20
21.1201706163531
30
0
0
VERTEX
8
0
10
141.522051282051
20
21.0916569171919
30
0
0
VERTEX
8
0
10
142.441025641025
20
21.0631432180308
30
0
0
VERTEX
8
0
10
143.36
20
21.0346295188696
30
0
0
VERTEX
8
0
10
144.278974358974
20
21.0061158197085
30
0
0
VERTEX
8
0
10
145.197948717948
20
20.9776021205473
30
0
0
VERTEX
8
0
10
146.116923076923
20
20.9490884213862
30
0
0
VERTEX
8
0
10
147.035897435897
20
20.920574722225
30
0
0
VERTEX
8
0
10
147.954871794871
20
20.8920610230639
30
0
0
VERTEX
8
0
10
148.873846153846
20
20.8635473239027
30
0
0
VERTEX
8
0
10
149.79282051282
20
20.8350336247416
30
0
0
VERTEX
8
0
10
150.711794871795
20
20.8065199255804
30
0
0
VERTEX
8
0
10
151.630769230769
20
20.7780062264193
30
0
0
VERTEX
8
0
10
152.549743589743
20
20.7494925272581
30
0
0
VERTEX
8
0
10
153.468717948718
20
20.720978828097
30
0
0
VERTEX
8
0
10
154.387692307692
20
20.6924651289358
30
0
0
VERTEX
8
0
10
155.306666666666
20
20.6639514297747
30
0
0
VERTEX
8
0
10
156.225641025641
20
20.6354377306135
30
0
0
VERTEX
8
0
10
157.144615384615
20
20.6069240314524
30
0
0
VERTEX
8
0
10
158.063589743589
20
20.5784103322912
30
0
0
VERTEX
8
0
10
158.982564102564
20
20.5498966331301
30
0
0
VERTEX
8
0
10
159.901538461538
20
20.521382933969
30
0
0
VERTEX
8
0
10
160.820512820513
20
20.4928692348078
30
0
0
VERTEX
8
0
10
161.739487179487
20
20.4643555356467
30
0
0
VERTEX
8
0
10
162.658461538461
20
20.4358418364855
30
0
0
VERTEX
8
0
10
163.577435897436
20
20.4073281373244
30
0
0
VERTEX
8
0
10
164.49641025641
20
20.3788144381632
30
0
0
VERTEX
8
0
10
165.415384615384
20
20.3503007390021
30
0
0
VERTEX
8
0
10
166.334358974359
20
20.3217870398409
30
0
0
VERTEX
8
0
10
167.253333333333
20
20.2932733406798
30
0
0
VERTEX
8
0
10
168.172307692308
20
20.2647596415186
30
0
0
VERTEX
8
0
10
169.091282051282
20
20.2362459423575
30
0
0
VERTEX
8
0
10
170.010256410256
20
20.2077322431963
30
0
0
VERTEX
8
0
10
170.929230769231
20
20.1792185440352
30
0
0
VERTEX
8
0
10
171.848205128205
20
20.150704844874
30
0
0
SEQEND
8
0
0
POLYLINE
8
0
62
6
70
0
10
0
20
0
30
0
0
VERTEX
8
0
10
1.83794871794872
20
1.67817558318521
30
0
0
VERTEX
8
0
10
2.75692307692308
20
2.01936791519306
30
0
0
VERTEX
8
0
10
3.67589743589744
20
2.3605602472009
30
0
0
VERTEX
8
0
10
4.59487179487179
20
2.70175257920874
30
0
0
VERTEX
8
0
10
5.51384615384615
20
3.04294491121658
30
0
0
VERTEX
8
0
10
6.43282051282051
20
3.38413724322442
30
0
0
VERTEX
8
0
10
7.35179487179487
20
3.84815280870101
30
0
0
VERTEX
8
0
10
8.27076923076923
20
4.34519842816923
30
0
0
VERTEX
8
0
10
9.18974358974359
20
4.84224404763744
30
0
0
VERTEX
8
0
10
10.1087179487179
20
5.49587533193505
30
0
0
VERTEX
8
0
10
11.0276923076923
20
6.10243947772677
30
0
0
VERTEX
8
0
10
11.9466666666667
20
6.84891447512945
30
0
0
VERTEX
8
0
10
12.865641025641
20
7.58605840230688
30
0
0
VERTEX
8
0
10
13.7846153846154
20
8.31719436751395
30
0
0
VERTEX
8
0
10
14.7035897435897
20
9.04591379266652
30
0
0
VERTEX
8
0
10
15.6225641025641
20
9.77463321781908
30
0
0
VERTEX
8
0
10
16.5415384615385
20
10.4576969653313
30
0
0
VERTEX
8
0
10
17.4605128205128
20
11.1527183823843
30
0
0
VERTEX
8
0
10
18.3794871794872
20
11.705018427414
30
0
0
VERTEX
8
0
10
19.2984615384615
20
12.256823310044
30
0
0
VERTEX
8
0
10
20.2174358974359
20
12.7467946449171
30
0
0
VERTEX
8
0
10
21.1364102564103
20
13.2017177542609
30
0
0
VERTEX
8
0
10
22.0553846153846
20
13.6566408636047
30
0
0
VERTEX
8
0
10
22.974358974359
20
13.9983447023144
30
0
0
VERTEX
8
0
10
23.8933333333333
20
14.3648105403969
30
0
0
VERTEX
8
0
10
24.8123076923077
20
14.6846909199139
30
0
0
VERTEX
8
0
10
25.7312820512821
20
15.0006097458471
30
0
0
VERTEX
8
0
10
26.6502564102564
20
15.2833086822167
30
0
0
VERTEX
8
0
10
27.5692307692308
20
15.5402559939757
30
0
0
VERTEX
8
0
10
28.4882051282051
20
15.7972033057347
30
0
0
VERTEX
8
0
10
29.4071794871795
20
16.0490747895193
30
0
0
VERTEX
8
0
10
30.3261538461539
20
16.3018098502658
30
0
0
VERTEX
8
0
10
31.2451282051282
20
16.5581114666942
30
0
0
VERTEX
8
0
10
32.1641025641026
20
16.8150587784532
30
0
0
VERTEX
8
0
10
33.0830769230769
20
17.0720060902122
30
0
0
VERTEX
8
0
10
34.0020512820513
20
17.3289534019711
30
0
0
VERTEX
8
0
10
34.9210256410257
20
17.5859007137301
30
0
0
VERTEX
8
0
10
35.84
20
17.8523685497073
30
0
0
VERTEX
8
0
10
36.7589743589744
20
18.1177403634912
30
0
0
VERTEX
8
0
10
37.6779487179487
20
18.389614156908
30
0
0
VERTEX
8
0
10
38.5969230769231
20
18.6634104727168
30
0
0
VERTEX
8
0
10
39.5158974358974
20
18.9372067885255
30
0
0
VERTEX
8
0
10
40.4348717948718
20
19.240772947016
30
0
0
VERTEX
8
0
10
41.3538461538461
20
19.535630517887
30
0
0
VERTEX
8
0
10
42.2728205128205
20
19.8571562662205
30
0
0
VERTEX
8
0
10
43.1917948717949
20
20.1772873431661
30
0
0
VERTEX
8
0
10
44.1107692307692
20
20.4974184201117
30
0
0
VERTEX
8
0
10
45.0297435897436
20
20.8175494970573
30
0
0
VERTEX
8
0
10
45.9487179487179
20
21.137680574003
30
0
0
VERTEX
8
0
10
46.8676923076923
20
21.4578116509486
30
0
0
VERTEX
8
0
10
47.7866666666666
20
21.7779427278942
30
0
0
VERTEX
8
0
10
48.705641025641
20
22.0939446744614
30
0
0
VERTEX
8
0
10
49.6246153846154
20
22.4098635003946
30
0
0
VERTEX
8
0
10
50.5435897435897
20
22.7153028939844
30
0
0
VERTEX
8
0
10
51.4625641025641
20
23.0143727158678
30
0
0
VERTEX
8
0
10
52.3815384615384
20
23.3134425377513
30
0
0
VERTEX
8
0
10
53.3005128205128
20
23.553961154772
30
0
0
VERTEX
8
0
10
54.2194871794871
20
23.8066962155186
30
0
0
VERTEX
8
0
10
55.1384615384615
20
24.055617711752
30
0
0
VERTEX
8
0
10
56.0574358974358
20
24.3041405214861
30
0
0
VERTEX
8
0
10
56.9764102564102
20
24.5526633312202
30
0
0
VERTEX
8
0
10
57.8953846153846
20
24.8011861409544
30
0
0
VERTEX
8
0
10
58.8143589743589
20
25.0497089506885
30
0
0
VERTEX
8
0
10
59.7333333333333
20
25.2932244894822
30
0
0
VERTEX
8
0
10
60.6523076923076
20
25.5375350482039
30
0
0
VERTEX
8
0
10
61.571282051282
20
25.7538616177432
30
0
0
VERTEX
8
0
10
62.4902564102563
20
25.9644741683654
30
0
0
VERTEX
8
0
10
63.4092307692307
20
26.1750867189875
30
0
0
VERTEX
8
0
10
64.328205128205
20
26.1066552880659
30
0
0
VERTEX
8
0
10
65.2471794871794
20
26.1277165431281
30
0
0
VERTEX
8
0
10
66.1661538461537
20
26.1487777981903
30
0
0
VERTEX
8
0
10
67.0851282051281
20
26.1698390532525
30
0
0
VERTEX
8
0
10
68.0041025641025
20
26.2290895017043
30
0
0
VERTEX
8
0
10
68.9230769230768
20
26.3006977689158
30
0
0
VERTEX
8
0
10
69.8420512820512
20
26.3723060361273
30
0
0
VERTEX
8
0
10
70.7610256410255
20
26.3438623077995
30
0
0
VERTEX
8
0
10
71.6799999999999
20
26.3438623077995
30
0
0
VERTEX
8
0
10
72.5989743589742
20
26.3438623077995
30
0
0
VERTEX
8
0
10
73.5179487179486
20
26.3438623077995
30
0
0
VERTEX
8
0
10
74.436923076923
20
26.3065930378766
30
0
0
VERTEX
8
0
10
75.3558974358973
20
26.2518337747149
30
0
0
VERTEX
8
0
10
76.2748717948717
20
26.1970745115531
30
0
0
VERTEX
8
0
10
77.193846153846
20
26.1256057114804
30
0
0
VERTEX
8
0
10
78.1128205128204
20
26.0582096952813
30
0
0
VERTEX
8
0
10
79.0317948717947
20
25.9826925323934
30
0
0
VERTEX
8
0
10
79.9507692307691
20
25.9068720141695
30
0
0
VERTEX
8
0
10
80.8697435897435
20
25.8285001948937
30
0
0
VERTEX
8
0
10
81.7887179487178
20
25.7484674256573
30
0
0
VERTEX
8
0
10
82.7076923076922
20
25.6684346564209
30
0
0
VERTEX
8
0
10
83.6266666666665
20
25.5884018871845
30
0
0
VERTEX
8
0
10
84.5456410256409
20
25.5083691179481
30
0
0
VERTEX
8
0
10
85.4646153846152
20
25.4320813561907
30
0
0
VERTEX
8
0
10
86.3835897435896
20
25.3562608379668
30
0
0
VERTEX
8
0
10
87.3025641025639
20
25.2849117901158
30
0
0
VERTEX
8
0
10
88.2215384615383
20
25.2175157739167
30
0
0
VERTEX
8
0
10
89.1405128205126
20
25.1501197577176
30
0
0
VERTEX
8
0
10
90.059487179487
20
25.0728463137058
30
0
0
VERTEX
8
0
10
90.9784615384614
20
24.9970257954819
30
0
0
VERTEX
8
0
10
91.8974358974357
20
24.9246347188717
30
0
0
VERTEX
8
0
10
92.8164102564101
20
24.8530264516602
30
0
0
VERTEX
8
0
10
93.7353846153844
20
24.7814181844486
30
0
0
VERTEX
8
0
10
94.6543589743588
20
24.6852802359026
30
0
0
VERTEX
8
0
10
95.5733333333331
20
24.5968229646414
30
0
0
VERTEX
8
0
10
96.4923076923075
20
24.5176119894621
30
0
0
VERTEX
8
0
10
97.4112820512818
20
24.4375792202257
30
0
0
VERTEX
8
0
10
98.3302564102562
20
24.3450909479956
30
0
0
VERTEX
8
0
10
99.2492307692306
20
24.2482091747094
30
0
0
VERTEX
8
0
10
100.168205128205
20
24.1513274014232
30
0
0
VERTEX
8
0
10
101.087179487179
20
24.0486287736687
30
0
0
VERTEX
8
0
10
102.006153846154
20
23.9475347493701
30
0
0
VERTEX
8
0
10
102.925128205128
20
23.8507483072472
30
0
0
VERTEX
8
0
10
103.844102564102
20
23.753866533961
30
0
0
VERTEX
8
0
10
104.763076923077
20
23.6513881409086
30
0
0
VERTEX
8
0
10
105.682051282051
20
23.5460818655975
30
0
0
VERTEX
8
0
10
106.601025641025
20
23.4407755902865
30
0
0
VERTEX
8
0
10
107.52
20
23.3409706035784
30
0
0
VERTEX
8
0
10
108.438974358974
20
23.2398765792798
30
0
0
VERTEX
8
0
10
109.357948717948
20
23.1387825549811
30
0
0
VERTEX
8
0
10
110.276923076923
20
23.0376885306825
30
0
0
VERTEX
8
0
10
111.195897435897
20
22.9341117623661
30
0
0
VERTEX
8
0
10
112.114871794872
20
22.8288054870551
30
0
0
VERTEX
8
0
10
113.033846153846
20
22.723499211744
30
0
0
VERTEX
8
0
10
113.95282051282
20
22.6181929364329
30
0
0
VERTEX
8
0
10
114.871794871795
20
22.5128866611219
30
0
0
VERTEX
8
0
10
115.790769230769
20
22.4112568362559
30
0
0
VERTEX
8
0
10
116.709743589743
20
22.3101628119572
30
0
0
VERTEX
8
0
10
117.628717948718
20
22.2047344313537
30
0
0
VERTEX
8
0
10
118.547692307692
20
22.0952159050302
30
0
0
VERTEX
8
0
10
119.466666666666
20
21.9856973787067
30
0
0
VERTEX
8
0
10
120.385641025641
20
21.9005296367448
30
0
0
VERTEX
8
0
10
121.304615384615
20
21.8120723654835
30
0
0
VERTEX
8
0
10
122.223589743589
20
21.7236150942222
30
0
0
VERTEX
8
0
10
123.142564102564
20
21.6351578229609
30
0
0
VERTEX
8
0
10
124.061538461538
20
21.5467005516996
30
0
0
VERTEX
8
0
10
124.980512820513
20
21.4521794171387
30
0
0
VERTEX
8
0
10
125.899487179487
20
21.359509894865
30
0
0
VERTEX
8
0
10
126.818461538461
20
21.2713949635983
30
0
0
VERTEX
8
0
10
127.737435897436
20
21.182937692337
30
0
0
VERTEX
8
0
10
128.65641025641
20
21.0944804210757
30
0
0
VERTEX
8
0
10
129.575384615384
20
21.0060231498144
30
0
0
VERTEX
8
0
10
130.494358974359
20
20.9175658785531
30
0
0
VERTEX
8
0
10
131.413333333333
20
20.9095847713716
30
0
0
VERTEX
8
0
10
132.332307692307
20
20.8800990142845
30
0
0
VERTEX
8
0
10
133.251282051282
20
20.7997449554972
30
0
0
VERTEX
8
0
10
134.170256410256
20
20.7197121862608
30
0
0
VERTEX
8
0
10
135.08923076923
20
20.6778959569117
30
0
0
VERTEX
8
0
10
136.008205128205
20
20.6568347018495
30
0
0
VERTEX
8
0
10
136.927179487179
20
20.6357734467873
30
0
0
VERTEX
8
0
10
137.846153846153
20
20.5386539497598
30
0
0
VERTEX
8
0
10
138.765128205128
20
20.4586211805234
30
0
0
VERTEX
8
0
10
139.684102564102
20
20.4173583838731
30
0
0
VERTEX
8
0
10
140.603076923077
20
20.3789493055623
30
0
0
VERTEX
8
0
10
141.522051282051
20
20.3405402272515
30
0
0
VERTEX
8
0
10
142.441025641025
20
20.3021311489407
30
0
0
VERTEX
8
0
10
143.36
20
20.2637220706298
30
0
0
VERTEX
8
0
10
144.278974358974
20
20.225312992319
30
0
0
VERTEX
8
0
10
145.197948717948
20
20.1869039140082
30
0
0
VERTEX
8
0
10
146.116923076923
20
20.1484948356974
30
0
0
VERTEX
8
0
10
147.035897435897
20
20.1100857573865
30
0
0
VERTEX
8
0
10
147.954871794871
20
20.0716766790757
30
0
0
VERTEX
8
0
10
148.873846153846
20
20.0332676007649
30
0
0
VERTEX
8
0
10
149.79282051282
20
19.9948585224541
30
0
0
VERTEX
8
0
10
150.711794871795
20
19.9564494441432
30
0
0
VERTEX
8
0
10
151.630769230769
20
19.9180403658324
30
0
0
VERTEX
8
0
10
152.549743589743
20
19.8796312875216
30
0
0
VERTEX
8
0
10
153.468717948718
20
19.8412222092107
30
0
0
VERTEX
8
0
10
154.387692307692
20
19.8028131308999
30
0
0
VERTEX
8
0
10
155.306666666666
20
19.7644040525891
30
0
0
VERTEX
8
0
10
156.225641025641
20
19.7259949742783
30
0
0
VERTEX
8
0
10
157.144615384615
20
19.6875858959674
30
0
0
VERTEX
8
0
10
158.063589743589
20
19.6491768176566
30
0
0
VERTEX
8
0
10
158.982564102564
20
19.6107677393458
30
0
0
VERTEX
8
0
10
159.901538461538
20
19.572358661035
30
0
0
VERTEX
8
0
10
160.820512820513
20
19.5339495827241
30
0
0
VERTEX
8
0
10
161.739487179487
20
19.4955405044133
30
0
0
VERTEX
8
0
10
162.658461538461
20
19.4571314261025
30
0
0
VERTEX
8
0
10
163.577435897436
20
19.4187223477917
30
0
0
VERTEX
8
0
10
164.49641025641
20
19.3803132694808
30
0
0
VERTEX
8
0
10
165.415384615384
20
19.34190419117
30
0
0
VERTEX
8
0
10
166.334358974359
20
19.3034951128592
30
0
0
VERTEX
8
0
10
167.253333333333
20
19.2650860345483
30
0
0
VERTEX
8
0
10
168.172307692308
20
19.2266769562375
30
0
0
VERTEX
8
0
10
169.091282051282
20
19.1882678779267
30
0
0
VERTEX
8
0
10
170.010256410256
20
19.1498587996159
30
0
0
VERTEX
8
0
10
170.929230769231
20
19.111449721305
30
0
0
VERTEX
8
0
10
171.848205128205
20
19.0730406429942
30
0
0
SEQEND
8
0
0
POLYLINE
8
0
62
1
70
0
10
0
20
0
30
0
0
VERTEX
8
0
10
1.83794871794872
20
10.8870361982092
30
0
0
VERTEX
8
0
10
2.75692307692308
20
13.5443146848478
30
0
0
VERTEX
8
0
10
3.67589743589744
20
16.2018308334744
30
0
0
VERTEX
8
0
10
4.59487179487179
20
18.8594841765127
30
0
0
VERTEX
8
0
10
5.51384615384615
20
21.6471615857807
30
0
0
VERTEX
8
0
10
6.43282051282051
20
24.5298069935321
30
0
0
VERTEX
8
0
10
7.35179487179487
20
27.9385739387714
30
0
0
VERTEX
8
0
10
8.27076923076923
20
29.8686497324632
30
0
0
VERTEX
8
0
10
9.18974358974359
20
31.8517346820581
30
0
0
VERTEX
8
0
10
10.1087179487179
20
33.7842773666007
30
0
0
VERTEX
8
0
10
11.0276923076923
20
35.6784394352649
30
0
0
VERTEX
8
0
10
11.9466666666667
20
37.0042868293044
30
0
0
VERTEX
8
0
10
12.865641025641
20
38.3566698871452
30
0
0
VERTEX
8
0
10
13.7846153846154
20
39.6306978268153
30
0
0
VERTEX
8
0
10
14.7035897435897
20
40.9098589700067
30
0
0
VERTEX
8
0
10
15.6225641025641
20
41.6108653286038
30
0
0
VERTEX
8
0
10
16.5415384615385
20
42.482507464734
30
0
0
VERTEX
8
0
10
17.4605128205128
20
43.1713667410661
30
0
0
VERTEX
8
0
10
18.3794871794872
20
43.840744236072
30
0
0
VERTEX
8
0
10
19.2984615384615
20
44.3753810159267
30
0
0
VERTEX
8
0
10
20.2174358974359
20
44.8402162382273
30
0
0
VERTEX
8
0
10
21.1364102564103
20
45.2979236893433
30
0
0
VERTEX
8
0
10
22.0553846153846
20
45.6005324128019
30
0
0
VERTEX
8
0
10
22.974358974359
20
45.9125894314546
30
0
0
VERTEX
8
0
10
23.8933333333333
20
46.1144650341088
30
0
0
VERTEX
8
0
10
24.8123076923077
20
46.3029848210511
30
0
0
VERTEX
8
0
10
25.7312820512821
20
46.4133372301019
30
0
0
VERTEX
8
0
10
26.6502564102564
20
46.4696709735121
30
0
0
VERTEX
8
0
10
27.5692307692308
20
46.5190761179425
30
0
0
VERTEX
8
0
10
28.4882051282051
20
46.5445782907369
30
0
0
VERTEX
8
0
10
29.4071794871795
20
46.5753009327082
30
0
0
VERTEX
8
0
10
30.3261538461539
20
46.5098740822203
30
0
0
VERTEX
8
0
10
31.2451282051282
20
46.4389346937996
30
0
0
VERTEX
8
0
10
32.1641025641026
20
46.363581743325
30
0
0
VERTEX
8
0
10
33.0830769230769
20
46.2850667571741
30
0
0
VERTEX
8
0
10
34.0020512820513
20
46.2085905684976
30
0
0
VERTEX
8
0
10
34.9210256410257
20
46.0452377479495
30
0
0
VERTEX
8
0
10
35.84
20
45.9030704853507
30
0
0
VERTEX
8
0
10
36.7589743589744
20
45.7500636776913
30
0
0
VERTEX
8
0
10
37.6779487179487
20
45.6000146724174
30
0
0
VERTEX
8
0
10
38.5969230769231
20
45.4536383096961
30
0
0
VERTEX
8
0
10
39.5158974358974
20
45.2817815164798
30
0
0
VERTEX
8
0
10
40.4348717948718
20
45.1350441144663
30
0
0
VERTEX
8
0
10
41.3538461538461
20
44.9795851370719
30
0
0
VERTEX
8
0
10
42.2728205128205
20
44.8404729355881
30
0
0
VERTEX
8
0
10
43.1917948717949
20
44.6961148724124
30
0
0
VERTEX
8
0
10
44.1107692307692
20
44.5533144296604
30
0
0
VERTEX
8
0
10
45.0297435897436
20
44.4147310433163
30
0
0
VERTEX
8
0
10
45.9487179487179
20
44.2856252449498
30
0
0
VERTEX
8
0
10
46.8676923076923
20
44.1592472201604
30
0
0
VERTEX
8
0
10
47.7866666666666
20
44.0371611527361
30
0
0
VERTEX
8
0
10
48.705641025641
20
43.9173254052723
30
0
0
VERTEX
8
0
10
49.6246153846154
20
43.8042504259886
30
0
0
VERTEX
8
0
10
50.5435897435897
20
43.6911218760094
30
0
0
VERTEX
8
0
10
51.4625641025641
20
43.5787663670662
30
0
0
VERTEX
8
0
10
52.3815384615384
20
43.4894695039756
30
0
0
VERTEX
8
0
10
53.3005128205128
20
43.3674601854505
30
0
0
VERTEX
8
0
10
54.2194871794871
20
43.2586720631277
30
0
0
VERTEX
8
0
10
55.1384615384615
20
43.1510592889452
30
0
0
VERTEX
8
0
10
56.0574358974358
20
43.044259596732
30
0
0
VERTEX
8
0
10
56.9764102564102
20
42.939376762612
30
0
0
VERTEX
8
0
10
57.8953846153846
20
42.8377670050959
30
0
0
VERTEX
8
0
10
58.8143589743589
20
42.7480594390637
30
0
0
VERTEX
8
0
10
59.7333333333333
20
42.6568237793756
30
0
0
VERTEX
8
0
10
60.6523076923076
20
42.569247094462
30
0
0
VERTEX
8
0
10
61.571282051282
20
42.4679070765521
30
0
0
VERTEX
8
0
10
62.4902564102563
20
42.3767875987956
30
0
0
VERTEX
8
0
10
63.4092307692307
20
42.2973844436394
30
0
0
VERTEX
8
0
10
64.328205128205
20
42.046726607767
30
0
0
VERTEX
8
0
10
65.2471794871794
20
41.8638798312908
30
0
0
VERTEX
8
0
10
66.1661538461537
20
41.6799175098916
30
0
0
VERTEX
8
0
10
67.0851282051281
20
41.5020998834025
30
0
0
VERTEX
8
0
10
68.0041025641025
20
41.350327103358
30
0
0
VERTEX
8
0
10
68.9230769230768
20
41.2074154819719
30
0
0
VERTEX
8
0
10
69.8420512820512
20
41.0655848690736
30
0
0
VERTEX
8
0
10
70.7610256410255
20
40.8602684642472
30
0
0
VERTEX
8
0
10
71.6799999999999
20
40.6666902002578
30
0
0
VERTEX
8
0
10
72.5989743589742
20
40.4744850197487
30
0
0
VERTEX
8
0
10
73.5179487179486
20
40.302136984955
30
0
0
VERTEX
8
0
10
74.436923076923
20
40.1121755082148
30
0
0
VERTEX
8
0
10
75.3558974358973
20
39.9110403299273
30
0
0
VERTEX
8
0
10
76.2748717948717
20
39.7322430770086
30
0
0
VERTEX
8
0
10
77.193846153846
20
39.5363483805904
30
0
0
VERTEX
8
0
10
78.1128205128204
20
39.3400325437662
30
0
0
VERTEX
8
0
10
79.0317948717947
20
39.1386155172275
30
0
0
VERTEX
8
0
10
79.9507692307691
20
38.9435442193848
30
0
0
VERTEX
8
0
10
80.8697435897435
20
38.7499426389598
30
0
0
VERTEX
8
0
10
81.7887179487178
20
38.5553508576813
30
0
0
VERTEX
8
0
10
82.7076923076922
20
38.3526164181873
30
0
0
VERTEX
8
0
10
83.6266666666665
20
38.1520234142176
30
0
0
VERTEX
8
0
10
84.5456410256409
20
37.9575668001765
30
0
0
VERTEX
8
0
10
85.4646153846152
20
37.7659977574055
30
0
0
VERTEX
8
0
10
86.3835897435896
20
37.5898698778362
30
0
0
VERTEX
8
0
10
87.3025641025639
20
37.4267227267297
30
0
0
VERTEX
8
0
10
88.2215384615383
20
37.2663245868392
30
0
0
VERTEX
8
0
10
89.1405128205126
20
37.1060101237014
30
0
0
VERTEX
8
0
10
90.059487179487
20
36.9390752903561
30
0
0
VERTEX
8
0
10
90.9784615384614
20
36.7677184077606
30
0
0
VERTEX
8
0
10
91.8974358974357
20
36.5980780043654
30
0
0
VERTEX
8
0
10
92.8164102564101
20
36.432317510096
30
0
0
VERTEX
8
0
10
93.7353846153844
20
36.2695496934892
30
0
0
VERTEX
8
0
10
94.6543589743588
20
36.0900803676282
30
0
0
VERTEX
8
0
10
95.5733333333331
20
35.9194973950068
30
0
0
VERTEX
8
0
10
96.4923076923075
20
35.7547764287442
30
0
0
VERTEX
8
0
10
97.4112820512818
20
35.5945197097801
30
0
0
VERTEX
8
0
10
98.3302564102562
20
35.4269054644389
30
0
0
VERTEX
8
0
10
99.2492307692306
20
35.2562968836354
30
0
0
VERTEX
8
0
10
100.168205128205
20
35.0990309049823
30
0
0
VERTEX
8
0
10
101.087179487179
20
34.9336163912551
30
0
0
VERTEX
8
0
10
102.006153846154
20
34.7626289703711
30
0
0
VERTEX
8
0
10
102.925128205128
20
34.5952036720077
30
0
0
VERTEX
8
0
10
103.844102564102
20
34.4299767334002
30
0
0
VERTEX
8
0
10
104.763076923077
20
34.2617059435942
30
0
0
VERTEX
8
0
10
105.682051282051
20
34.0914923815749
30
0
0
VERTEX
8
0
10
106.601025641025
20
33.9296792684656
30
0
0
VERTEX
8
0
10
107.52
20
33.7693691849954
30
0
0
VERTEX
8
0
10
108.438974358974
20
33.6081745831227
30
0
0
VERTEX
8
0
10
109.357948717948
20
33.4469861119916
30
0
0
VERTEX
8
0
10
110.276923076923
20
33.2978705539063
30
0
0
VERTEX
8
0
10
111.195897435897
20
33.1532171516621
30
0
0
VERTEX
8
0
10
112.114871794872
20
33.0073682642901
30
0
0
VERTEX
8
0
10
113.033846153846
20
32.8615205185397
30
0
0
VERTEX
8
0
10
113.95282051282
20
32.7156739296791
30
0
0
VERTEX
8
0
10
114.871794871795
20
32.5640773699439
30
0
0
VERTEX
8
0
10
115.790769230769
20
32.4146863153191
30
0
0
VERTEX
8
0
10
116.709743589743
20
32.2692352515028
30
0
0
VERTEX
8
0
10
117.628717948718
20
32.1233052748579
30
0
0
VERTEX
8
0
10
118.547692307692
20
31.9745500062495
30
0
0
VERTEX
8
0
10
119.466666666666
20
31.825797445489
30
0
0
VERTEX
8
0
10
120.385641025641
20
31.6938691829767
30
0
0
VERTEX
8
0
10
121.304615384615
20
31.5702632985539
30
0
0
VERTEX
8
0
10
122.223589743589
20
31.448243684019
30
0
0
VERTEX
8
0
10
123.142564102564
20
31.323108698419
30
0
0
VERTEX
8
0
10
124.061538461538
20
31.1949980919841
30
0
0
VERTEX
8
0
10
124.980512820513
20
31.0626994175626
30
0
0
VERTEX
8
0
10
125.899487179487
20
30.9316799358964
30
0
0
VERTEX
8
0
10
126.818461538461
20
30.8038057232086
30
0
0
VERTEX
8
0
10
127.737435897436
20
30.6805392144167
30
0
0
VERTEX
8
0
10
128.65641025641
20
30.5585233891615
30
0
0
VERTEX
8
0
10
129.575384615384
20
30.4365086826503
30
0
0
VERTEX
8
0
10
130.494358974359
20
30.3144951083919
30
0
0
VERTEX
8
0
10
131.413333333333
20
30.2480574636746
30
0
0
VERTEX
8
0
10
132.332307692307
20
30.1733795133354
30
0
0
VERTEX
8
0
10
133.251282051282
20
30.0630403417776
30
0
0
VERTEX
8
0
10
134.170256410256
20
29.9573050564572
30
0
0
VERTEX
8
0
10
135.08923076923
20
29.8797115570929
30
0
0
VERTEX
8
0
10
136.008205128205
20
29.8165023810941
30
0
0
VERTEX
8
0
10
136.927179487179
20
29.7326727615214
30
0
0
VERTEX
8
0
10
137.846153846153
20
29.6015855172188
30
0
0
VERTEX
8
0
10
138.765128205128
20
29.491486385164
30
0
0
VERTEX
8
0
10
139.684102564102
20
29.408260894236
30
0
0
VERTEX
8
0
10
140.603076923077
20
29.3489894487449
30
0
0
VERTEX
8
0
10
141.522051282051
20
29.3018014505758
30
0
0
VERTEX
8
0
10
142.441025641025
20
29.2546155574135
30
0
0
VERTEX
8
0
10
143.36
20
29.2074317794604
30
0
0
VERTEX
8
0
10
144.278974358974
20
29.1602501269841
30
0
0
VERTEX
8
0
10
145.197948717948
20
29.1130706103185
30
0
0
VERTEX
8
0
10
146.116923076923
20
29.0658932398641
30
0
0
VERTEX
8
0
10
147.035897435897
20
29.0187180260886
30
0
0
VERTEX
8
0
10
147.954871794871
20
28.9715449795273
30
0
0
VERTEX
8
0
10
148.873846153846
20
28.9243741107839
30
0
0
VERTEX
8
0
10
149.79282051282
20
28.8772054305306
30
0
0
VERTEX
8
0
10
150.711794871795
20
28.8300389495092
30
0
0
VERTEX
8
0
10
151.630769230769
20
28.7828746785315
30
0
0
VERTEX
8
0
10
152.549743589743
20
28.7357126284794
30
0
0
VERTEX
8
0
10
153.468717948718
20
28.6885528103061
30
0
0
VERTEX
8
0
10
154.387692307692
20
28.6413952350364
30
0
0
VERTEX
8
0
10
155.306666666666
20
28.5942399137674
30
0
0
VERTEX
8
0
10
156.225641025641
20
28.5470868576687
30
0
0
VERTEX
8
0
10
157.144615384615
20
28.4999360779835
30
0
0
VERTEX
8
0
10
158.063589743589
20
28.452787586029
30
0
0
VERTEX
8
0
10
158.982564102564
20
28.4056413931968
30
0
0
VERTEX
8
0
10
159.901538461538
20
28.358497510954
30
0
0
VERTEX
8
0
10
160.820512820513
20
28.3113559508431
30
0
0
VERTEX
8
0
10
161.739487179487
20
28.2642167244835
30
0
0
VERTEX
8
0
10
162.658461538461
20
28.2170798435713
30
0
0
VERTEX
8
0
10
163.577435897436
20
28.1699453198804
30
0
0
VERTEX
8
0
10
164.49641025641
20
28.1228131652633
30
0
0
VERTEX
8
0
10
165.415384615384
20
28.075683391651
30
0
0
VERTEX
8
0
10
166.334358974359
20
28.0285560110546
30
0
0
VERTEX
8
0
10
167.253333333333
20
27.9814310355652
30
0
0
VERTEX
8
0
10
168.172307692308
20
27.9343084773552
30
0
0
VERTEX
8
0
10
169.091282051282
20
27.8871883486782
30
0
0
VERTEX
8
0
10
170.010256410256
20
27.8400706618705
30
0
0
VERTEX
8
0
10
170.929230769231
20
27.7929554293512
30
0
0
VERTEX
8
0
10
171.848205128205
20
27.7458426636233
30
0
0
SEQEND
8
0
0
POLYLINE
8
0
62
2
70
0
10
0
20
0
30
0
0
VERTEX
8
0
10
1.83794871794872
20
10.8870361982092
30
0
0
VERTEX
8
0
10
2.75692307692308
20
13.5443146848478
30
0
0
VERTEX
8
0
10
3.67589743589744
20
16.2018308334744
30
0
0
VERTEX
8
0
10
4.59487179487179
20
18.8594841765127
30
0
0
VERTEX
8
0
10
5.51384615384615
20
21.6471615857807
30
0
0
VERTEX
8
0
10
6.43282051282051
20
24.5298069935321
30
0
0
VERTEX
8
0
10
7.35179487179487
20
27.9385739387714
30
0
0
VERTEX
8
0
10
8.27076923076923
20
29.8686497324632
30
0
0
VERTEX
8
0
10
9.18974358974359
20
31.8517346820581
30
0
0
VERTEX
8
0
10
10.1087179487179
20
33.7842773666007
30
0
0
VERTEX
8
0
10
11.0276923076923
20
35.6784394352649
30
0
0
VERTEX
8
0
10
11.9466666666667
20
37.0042868293044
30
0
0
VERTEX
8
0
10
12.865641025641
20
38.3566698871452
30
0
0
VERTEX
8
0
10
13.7846153846154
20
39.6306978268153
30
0
0
VERTEX
8
0
10
14.7035897435897
20
40.9098589700067
30
0
0
VERTEX
8
0
10
15.6225641025641
20
41.6108653286038
30
0
0
VERTEX
8
0
10
16.5415384615385
20
42.482507464734
30
0
0
VERTEX
8
0
10
17.4605128205128
20
43.1713667410661
30
0
0
VERTEX
8
0
10
18.3794871794872
20
43.840744236072
30
0
0
VERTEX
8
0
10
19.2984615384615
20
44.3753810159267
30
0
0
VERTEX
8
0
10
20.2174358974359
20
44.8402162382273
30
0
0
VERTEX
8
0
10
21.1364102564103
20
45.2979236893433
30
0
0
VERTEX
8
0
10
22.0553846153846
20
45.6005324128019
30
0
0
VERTEX
8
0
10
22.974358974359
20
45.9125894314546
30
0
0
VERTEX
8
0
10
23.8933333333333
20
46.1144650341088
30
0
0
VERTEX
8
0
10
24.8123076923077
20
46.3029848210511
30
0
0
VERTEX
8
0
10
25.7312820512821
20
46.4133372301019
30
0
0
VERTEX
8
0
10
26.6502564102564
20
46.4696709735121
30
0
0
VERTEX
8
0
10
27.5692307692308
20
46.5190761179425
30
0
0
VERTEX
8
0
10
28.4882051282051
20
46.5445782907369
30
0
0
VERTEX
8
0
10
29.4071794871795
20
46.5753009327082
30
0
0
VERTEX
8
0
10
30.3261538461539
20
46.5098740822203
30
0
0
VERTEX
8
0
10
31.2451282051282
20
46.4389346937996
30
0
0
VERTEX
8
0
10
32.1641025641026
20
46.363581743325
30
0
0
VERTEX
8
0
10
33.0830769230769
20
46.2850667571741
30
0
0
VERTEX
8
0
10
34.0020512820513
20
46.2085905684976
30
0
0
VERTEX
8
0
10
34.9210256410257
20
46.0452377479495
30
0
0
VERTEX
8
0
10
35.84
20
45.9030704853507
30
0
0
VERTEX
8
0
10
36.7589743589744
20
45.7500636776913
30
0
0
VERTEX
8
0
10
37.6779487179487
20
45.6000146724174
30
0
0
VERTEX
8
0
10
38.5969230769231
20
45.4536383096961
30
0
0
VERTEX
8
0
10
39.5158974358974
20
45.2817815164798
30
0
0
VERTEX
8
0
10
40.4348717948718
20
45.1350441144663
30
0
0
VERTEX
8
0
10
41.3538461538461
20
44.9795851370719
30
0
0
VERTEX
8
0
10
42.2728205128205
20
44.8404729355881
30
0
0
VERTEX
8
0
10
43.1917948717949
20
44.6961148724124
30
0
0
VERTEX
8
0
10
44.1107692307692
20
44.5533144296604
30
0
0
VERTEX
8
0
10
45.0297435897436
20
44.4147310433163
30
0
0
VERTEX
8
0
10
45.9487179487179
20
44.2856252449498
30
0
0
VERTEX
8
0
10
46.8676923076923
20
44.1592472201604
30
0
0
VERTEX
8
0
10
47.7866666666666
20
44.0371611527361
30
0
0
VERTEX
8
0
10
48.705641025641
20
43.9173254052723
30
0
0
VERTEX
8
0
10
49.6246153846154
20
43.8042504259886
30
0
0
VERTEX
8
0
10
50.5435897435897
20
43.6911218760094
30
0
0
VERTEX
8
0
10
51.4625641025641
20
43.5787663670662
30
0
0
VERTEX
8
0
10
52.3815384615384
20
43.4894695039756
30
0
0
VERTEX
8
0
10
53.3005128205128
20
43.3674601854505
30
0
0
VERTEX
8
0
10
54.2194871794871
20
43.2586720631277
30
0
0
VERTEX
8
0
10
55.1384615384615
20
43.1510592889452
30
0
0
VERTEX
8
0
10
56.0574358974358
20
43.044259596732
30
0
0
VERTEX
8
0
10
56.9764102564102
20
42.939376762612
30
0
0
VERTEX
8
0
10
57.8953846153846
20
42.8377670050959
30
0
0
VERTEX
8
0
10
58.8143589743589
20
42.7480594390637
30
0
0
VERTEX
8
0
10
59.7333333333333
20
42.6568237793756
30
0
0
VERTEX
8
0
10
60.6523076923076
20
42.569247094462
30
0
0
VERTEX
8
0
10
61.571282051282
20
42.4679070765521
30
0
0
VERTEX
8
0
10
62.4902564102563
20
42.3767875987956
30
0
0
VERTEX
8
0
10
63.4092307692307
20
42.2973844436394
30
0
0
VERTEX
8
0
10
64.328205128205
20
42.046726607767
30
0
0
VERTEX
8
0
10
65.2471794871794
20
41.8638798312908
30
0
0
VERTEX
8
0
10
66.1661538461537
20
41.6799175098916
30
0
0
VERTEX
8
0
10
67.0851282051281
20
41.5020998834025
30
0
0
VERTEX
8
0
10
68.0041025641025
20
41.350327103358
30
0
0
VERTEX
8
0
10
68.9230769230768
20
41.2074154819719
30
0
0
VERTEX
8
0
10
69.8420512820512
20
41.0655848690736
30
0
0
VERTEX
8
0
10
70.7610256410255
20
40.8602684642472
30
0
0
VERTEX
8
0
10
71.6799999999999
20
40.6666902002578
30
0
0
VERTEX
8
0
10
72.5989743589742
20
40.4744850197487
30
0
0
VERTEX
8
0
10
73.5179487179486
20
40.302136984955
30
0
0
VERTEX
8
0
10
74.436923076923
20
40.1121755082148
30
0
0
VERTEX
8
0
10
75.3558974358973
20
39.9110403299273
30
0
0
VERTEX
8
0
10
76.2748717948717
20
39.7322430770086
30
0
0
VERTEX
8
0
10
77.193846153846
20
39.5363483805904
30
0
0
VERTEX
8
0
10
78.1128205128204
20
39.3400325437662
30
0
0
VERTEX
8
0
10
79.0317948717947
20
39.1386155172275
30
0
0
VERTEX
8
0
10
79.9507692307691
20
38.9435442193848
30
0
0
VERTEX
8
0
10
80.8697435897435
20
38.7499426389598
30
0
0
VERTEX
8
0
10
81.7887179487178
20
38.5553508576813
30
0
0
VERTEX
8
0
10
82.7076923076922
20
38.3526164181873
30
0
0
VERTEX
8
0
10
83.6266666666665
20
38.1520234142176
30
0
0
VERTEX
8
0
10
84.5456410256409
20
37.9575668001765
30
0
0
VERTEX
8
0
10
85.4646153846152
20
37.7659977574055
30
0
0
VERTEX
8
0
10
86.3835897435896
20
37.5898698778362
30
0
0
VERTEX
8
0
10
87.3025641025639
20
37.4267227267297
30
0
0
VERTEX
8
0
10
88.2215384615383
20
37.2663245868392
30
0
0
VERTEX
8
0
10
89.1405128205126
20
37.1060101237014
30
0
0
VERTEX
8
0
10
90.059487179487
20
36.9390752903561
30
0
0
VERTEX
8
0
10
90.9784615384614
20
36.7677184077606
30
0
0
VERTEX
8
0
10
91.8974358974357
20
36.5980780043654
30
0
0
VERTEX
8
0
10
92.8164102564101
20
36.432317510096
30
0
0
VERTEX
8
0
10
93.7353846153844
20
36.2695496934892
30
0
0
VERTEX
8
0
10
94.6543589743588
20
36.0900803676282
30
0
0
VERTEX
8
0
10
95.5733333333331
20
35.9194973950068
30
0
0
VERTEX
8
0
10
96.4923076923075
20
35.7547764287442
30
0
0
VERTEX
8
0
10
97.4112820512818
20
35.5945197097801
30
0
0
VERTEX
8
0
10
98.3302564102562
20
35.4269054644389
30
0
0
VERTEX
8
0
10
99.2492307692306
20
35.2562968836354
30
0
0
VERTEX
8
0
10
100.168205128205
20
35.0990309049823
30
0
0
VERTEX
8
0
10
101.087179487179
20
34.9336163912551
30
0
0
VERTEX
8
0
10
102.006153846154
20
34.7626289703711
30
0
0
VERTEX
8
0
10
102.925128205128
20
34.5952036720077
30
0
0
VERTEX
8
0
10
103.844102564102
20
34.4299767334002
30
0
0
VERTEX
8
0
10
104.763076923077
20
34.2617059435942
30
0
0
VERTEX
8
0
10
105.682051282051
20
34.0914923815749
30
0
0
VERTEX
8
0
10
106.601025641025
20
33.9296792684656
30
0
0
VERTEX
8
0
10
107.52
20
33.7693691849954
30
0
0
VERTEX
8
0
10
108.438974358974
20
33.6081745831227
30
0
0
VERTEX
8
0
10
109.357948717948
20
33.4469861119916
30
0
0
VERTEX
8
0
10
110.276923076923
20
33.2978705539063
30
0
0
VERTEX
8
0
10
111.195897435897
20
33.1532171516622
30
0
0
VERTEX
8
0
10
112.114871794872
20
33.0073682642901
30
0
0
VERTEX
8
0
10
113.033846153846
20
32.8615205185397
30
0
0
VERTEX
8
0
10
113.95282051282
20
32.7156739296791
30
0
0
VERTEX
8
0
10
114.871794871795
20
32.5640773699439
30
0
0
VERTEX
8
0
10
115.790769230769
20
32.4146863153191
30
0
0
VERTEX
8
0
10
116.709743589743
20
32.2692352515028
30
0
0
VERTEX
8
0
10
117.628717948718
20
32.1233052748579
30
0
0
VERTEX
8
0
10
118.547692307692
20
31.9745500062495
30
0
0
VERTEX
8
0
10
119.466666666666
20
31.825797445489
30
0
0
VERTEX
8
0
10
120.385641025641
20
31.6938691829767
30
0
0
VERTEX
8
0
10
121.304615384615
20
31.5702632985539
30
0
0
VERTEX
8
0
10
122.223589743589
20
31.448243684019
30
0
0
VERTEX
8
0
10
123.142564102564
20
31.323108698419
30
0
0
VERTEX
8
0
10
124.061538461538
20
31.1949980919841
30
0
0
VERTEX
8
0
10
124.980512820513
20
31.0626994175626
30
0
0
VERTEX
8
0
10
125.899487179487
20
30.9316799358964
30
0
0
VERTEX
8
0
10
126.818461538461
20
30.8038057232086
30
0
0
VERTEX
8
0
10
127.737435897436
20
30.6805392144167
30
0
0
VERTEX
8
0
10
128.65641025641
20
30.5585233891615
30
0
0
VERTEX
8
0
10
129.575384615384
20
30.4365086826503
30
0
0
VERTEX
8
0
10
130.494358974359
20
30.3144951083919
30
0
0
VERTEX
8
0
10
131.413333333333
20
30.2480574636746
30
0
0
VERTEX
8
0
10
132.332307692307
20
30.1733795133354
30
0
0
VERTEX
8
0
10
133.251282051282
20
30.0630403417776
30
0
0
VERTEX
8
0
10
134.170256410256
20
29.9573050564572
30
0
0
VERTEX
8
0
10
135.08923076923
20
29.8797115570929
30
0
0
VERTEX
8
0
10
136.008205128205
20
29.8165023810941
30
0
0
VERTEX
8
0
10
136.927179487179
20
29.7326727615214
30
0
0
VERTEX
8
0
10
137.846153846153
20
29.6015855172188
30
0
0
VERTEX
8
0
10
138.765128205128
20
29.491486385164
30
0
0
VERTEX
8
0
10
139.684102564102
20
29.408260894236
30
0
0
VERTEX
8
0
10
140.603076923077
20
29.3489894487449
30
0
0
VERTEX
8
0
10
141.522051282051
20
29.3018014505758
30
0
0
VERTEX
8
0
10
142.441025641025
20
29.2546155574135
30
0
0
VERTEX
8
0
10
143.36
20
29.2074317794604
30
0
0
VERTEX
8
0
10
144.278974358974
20
29.1602501269841
30
0
0
VERTEX
8
0
10
145.197948717948
20
29.1130706103185
30
0
0
VERTEX
8
0
10
146.116923076923
20
29.0658932398641
30
0
0
VERTEX
8
0
10
147.035897435897
20
29.0187180260886
30
0
0
VERTEX
8
0
10
147.954871794871
20
28.9715449795273
30
0
0
VERTEX
8
0
10
148.873846153846
20
28.9243741107839
30
0
0
VERTEX
8
0
10
149.79282051282
20
28.8772054305306
30
0
0
VERTEX
8
0
10
150.711794871795
20
28.8300389495092
30
0
0
VERTEX
8
0
10
151.630769230769
20
28.7828746785315
30
0
0
VERTEX
8
0
10
152.549743589743
20
28.7357126284794
30
0
0
VERTEX
8
0
10
153.468717948718
20
28.6885528103061
30
0
0
VERTEX
8
0
10
154.387692307692
20
28.6413952350364
30
0
0
VERTEX
8
0
10
155.306666666666
20
28.5942399137674
30
0
0
VERTEX
8
0
10
156.225641025641
20
28.5470868576687
30
0
0
VERTEX
8
0
10
157.144615384615
20
28.4999360779835
30
0
0
VERTEX
8
0
10
158.063589743589
20
28.452787586029
30
0
0
VERTEX
8
0
10
158.982564102564
20
28.4056413931968
30
0
0
VERTEX
8
0
10
159.901538461538
20
28.358497510954
30
0
0
VERTEX
8
0
10
160.820512820513
20
28.3113559508431
30
0
0
VERTEX
8
0
10
161.739487179487
20
28.2642167244835
30
0
0
VERTEX
8
0
10
162.658461538461
20
28.2170798435713
30
0
0
VERTEX
8
0
10
163.577435897436
20
28.1699453198804
30
0
0
VERTEX
8
0
10
164.49641025641
20
28.1228131652633
30
0
0
VERTEX
8
0
10
165.415384615384
20
28.075683391651
30
0
0
VERTEX
8
0
10
166.334358974359
20
28.0285560110546
30
0
0
VERTEX
8
0
10
167.253333333333
20
27.9814310355652
30
0
0
VERTEX
8
0
10
168.172307692308
20
27.9343084773552
30
0
0
VERTEX
8
0
10
169.091282051282
20
27.8871883486782
30
0
0
VERTEX
8
0
10
170.010256410256
20
27.8400706618705
30
0
0
VERTEX
8
0
10
170.929230769231
20
27.7929554293512
30
0
0
VERTEX
8
0
10
171.848205128205
20
27.7458426636233
30
0
0
SEQEND
8
0
0
POLYLINE
8
0
62
3
70
0
10
0
20
0
30
0
0
VERTEX
8
0
10
1.83794871794872
20
18.7333011293764
30
0
0
VERTEX
8
0
10
2.75692307692308
20
21.1431376836148
30
0
0
VERTEX
8
0
10
3.67589743589744
20
23.1575236249111
30
0
0
VERTEX
8
0
10
4.59487179487179
20
26.1551436823116
30
0
0
VERTEX
8
0
10
5.51384615384615
20
28.5222543957498
30
0
0
VERTEX
8
0
10
6.43282051282051
20
31.3445666301433
30
0
0
VERTEX
8
0
10
7.35179487179487
20
34.6006504420012
30
0
0
VERTEX
8
0
10
8.27076923076923
20
37.0314696472087
30
0
0
VERTEX
8
0
10
9.18974358974359
20
39.7860007160328
30
0
0
VERTEX
8
0
10
10.1087179487179
20
42.2880226038388
30
0
0
VERTEX
8
0
10
11.0276923076923
20
44.5983470410315
30
0
0
VERTEX
8
0
10
11.9466666666667
20
46.7559669167622
30
0
0
VERTEX
8
0
10
12.865641025641
20
48.6707319030553
30
0
0
VERTEX
8
0
10
13.7846153846154
20
50.7972584077987
30
0
0
VERTEX
8
0
10
14.7035897435897
20
52.3876202632095
30
0
0
VERTEX
8
0
10
15.6225641025641
20
53.8122070594192
30
0
0
VERTEX
8
0
10
16.5415384615385
20
55.1789240184091
30
0
0
VERTEX
8
0
10
17.4605128205128
20
56.5283199820222
30
0
0
VERTEX
8
0
10
18.3794871794872
20
57.7059246009194
30
0
0
VERTEX
8
0
10
19.2984615384615
20
58.8333563556939
30
0
0
VERTEX
8
0
10
20.2174358974359
20
59.9350090934741
30
0
0
VERTEX
8
0
10
21.1364102564103
20
60.8736481608195
30
0
0
VERTEX
8
0
10
22.0553846153846
20
61.7770141440504
30
0
0
VERTEX
8
0
10
22.974358974359
20
62.6381459349855
30
0
0
VERTEX
8
0
10
23.8933333333333
20
63.3539711503012
30
0
0
VERTEX
8
0
10
24.8123076923077
20
64.0520994569861
30
0
0
VERTEX
8
0
10
25.7312820512821
20
64.7320516012178
30
0
0
VERTEX
8
0
10
26.6502564102564
20
65.2980420945056
30
0
0
VERTEX
8
0
10
27.5692307692308
20
65.8291795711113
30
0
0
VERTEX
8
0
10
28.4882051282051
20
66.3084804859788
30
0
0
VERTEX
8
0
10
29.4071794871795
20
66.7527340187441
30
0
0
VERTEX
8
0
10
30.3261538461539
20
67.1729011937938
30
0
0
VERTEX
8
0
10
31.2451282051282
20
67.544268305927
30
0
0
VERTEX
8
0
10
32.1641025641026
20
67.8915151806906
30
0
0
VERTEX
8
0
10
33.0830769230769
20
68.224229647942
30
0
0
VERTEX
8
0
10
34.0020512820513
20
68.512545911545
30
0
0
VERTEX
8
0
10
34.9210256410257
20
68.7792303536669
30
0
0
VERTEX
8
0
10
35.84
20
69.0443858748143
30
0
0
VERTEX
8
0
10
36.7589743589744
20
69.26993055696
30
0
0
VERTEX
8
0
10
37.6779487179487
20
69.4983488556537
30
0
0
VERTEX
8
0
10
38.5969230769231
20
69.7171068281067
30
0
0
VERTEX
8
0
10
39.5158974358974
20
69.9058902701309
30
0
0
VERTEX
8
0
10
40.4348717948718
20
70.0924894903735
30
0
0
VERTEX
8
0
10
41.3538461538461
20
70.2763383298971
30
0
0
VERTEX
8
0
10
42.2728205128205
20
70.4587501429904
30
0
0
VERTEX
8
0
10
43.1917948717949
20
70.6356232467822
30
0
0
VERTEX
8
0
10
44.1107692307692
20
70.811743229713
30
0
0
VERTEX
8
0
10
45.0297435897436
20
70.9911604607683
30
0
0
VERTEX
8
0
10
45.9487179487179
20
71.1729662118718
30
0
0
VERTEX
8
0
10
46.8676923076923
20
71.3543228432266
30
0
0
VERTEX
8
0
10
47.7866666666666
20
71.5494537466884
30
0
0
VERTEX
8
0
10
48.705641025641
20
71.7503429202917
30
0
0
VERTEX
8
0
10
49.6246153846154
20
71.9497103557222
30
0
0
VERTEX
8
0
10
50.5435897435897
20
72.1491762576351
30
0
0
VERTEX
8
0
10
51.4625641025641
20
72.3497329132767
30
0
0
VERTEX
8
0
10
52.3815384615384
20
72.5423939964877
30
0
0
VERTEX
8
0
10
53.3005128205128
20
72.7349589787925
30
0
0
VERTEX
8
0
10
54.2194871794871
20
72.9271359271541
30
0
0
VERTEX
8
0
10
55.1384615384615
20
73.1124901987546
30
0
0
VERTEX
8
0
10
56.0574358974358
20
73.2888940639703
30
0
0
VERTEX
8
0
10
56.9764102564102
20
73.4644237849725
30
0
0
VERTEX
8
0
10
57.8953846153846
20
73.6375071976575
30
0
0
VERTEX
8
0
10
58.8143589743589
20
73.7976564557457
30
0
0
VERTEX
8
0
10
59.7333333333333
20
73.956783877428
30
0
0
VERTEX
8
0
10
60.6523076923076
20
74.1119928702949
30
0
0
VERTEX
8
0
10
61.571282051282
20
74.2581622422568
30
0
0
VERTEX
8
0
10
62.4902564102563
20
74.3999334264734
30
0
0
VERTEX
8
0
10
63.4092307692307
20
74.536984083458
30
0
0
VERTEX
8
0
10
64.328205128205
20
74.666287179394
30
0
0
VERTEX
8
0
10
65.2471794871794
20
74.7904287261362
30
0
0
VERTEX
8
0
10
66.1661538461537
20
74.909216579133
30
0
0
VERTEX
8
0
10
67.0851282051281
20
75.0211742781948
30
0
0
VERTEX
8
0
10
68.0041025641025
20
75.1271285591141
30
0
0
VERTEX
8
0
10
68.9230769230768
20
75.2272887635727
30
0
0
VERTEX
8
0
10
69.8420512820512
20
75.3212559022991
30
0
0
VERTEX
8
0
10
70.7610256410255
20
75.4102344477536
30
0
0
VERTEX
8
0
10
71.6799999999999
20
75.4879742826343
30
0
0
VERTEX
8
0
10
72.5989743589742
20
75.5624342519806
30
0
0
VERTEX
8
0
10
73.5179487179486
20
75.6319363659435
30
0
0
VERTEX
8
0
10
74.436923076923
20
75.6901186214594
30
0
0
VERTEX
8
0
10
75.3558974358973
20
75.7434624268042
30
0
0
VERTEX
8
0
10
76.2748717948717
20
75.7894621707965
30
0
0
VERTEX
8
0
10
77.193846153846
20
75.8218325014651
30
0
0
VERTEX
8
0
10
78.1128205128204
20
75.8419062568078
30
0
0
VERTEX
8
0
10
79.0317948717947
20
75.8594435663806
30
0
0
VERTEX
8
0
10
79.9507692307691
20
75.882804876659
30
0
0
VERTEX
8
0
10
80.8697435897435
20
75.911655462007
30
0
0
VERTEX
8
0
10
81.7887179487178
20
75.9420014005061
30
0
0
VERTEX
8
0
10
82.7076923076922
20
75.9707687059121
30
0
0
VERTEX
8
0
10
83.6266666666665
20
76.0014516089477
30
0
0
VERTEX
8
0
10
84.5456410256409
20
76.0312394434156
30
0
0
VERTEX
8
0
10
85.4646153846152
20
76.0592592931755
30
0
0
VERTEX
8
0
10
86.3835897435896
20
76.08996754528
30
0
0
VERTEX
8
0
10
87.3025641025639
20
76.11455150843
30
0
0
VERTEX
8
0
10
88.2215384615383
20
76.1403465279771
30
0
0
VERTEX
8
0
10
89.1405128205126
20
76.1663135113441
30
0
0
VERTEX
8
0
10
90.059487179487
20
76.1874377484259
30
0
0
VERTEX
8
0
10
90.9784615384614
20
76.2093497612344
30
0
0
VERTEX
8
0
10
91.8974358974357
20
76.2305651065936
30
0
0
VERTEX
8
0
10
92.8164102564101
20
76.2476135221955
30
0
0
VERTEX
8
0
10
93.7353846153844
20
76.2651303182635
30
0
0
VERTEX
8
0
10
94.6543589743588
20
76.2810229590362
30
0
0
VERTEX
8
0
10
95.5733333333331
20
76.2935650167171
30
0
0
VERTEX
8
0
10
96.4923076923075
20
76.3063145552722
30
0
0
VERTEX
8
0
10
97.4112820512818
20
76.3171067079001
30
0
0
VERTEX
8
0
10
98.3302564102562
20
76.3249358595776
30
0
0
VERTEX
8
0
10
99.2492307692306
20
76.3327459014238
30
0
0
VERTEX
8
0
10
100.168205128205
20
76.3382966234919
30
0
0
VERTEX
8
0
10
101.087179487179
20
76.341201548616
30
0
0
VERTEX
8
0
10
102.006153846154
20
76.3454148456868
30
0
0
VERTEX
8
0
10
102.925128205128
20
76.3440273694733
30
0
0
VERTEX
8
0
10
103.844102564102
20
76.342517408054
30
0
0
VERTEX
8
0
10
104.763076923077
20
76.3401355255333
30
0
0
VERTEX
8
0
10
105.682051282051
20
76.333437154962
30
0
0
VERTEX
8
0
10
106.601025641025
20
76.3263628674543
30
0
0
VERTEX
8
0
10
107.52
20
76.3179585950901
30
0
0
VERTEX
8
0
10
108.438974358974
20
76.3058266614004
30
0
0
VERTEX
8
0
10
109.357948717948
20
76.2932908816703
30
0
0
VERTEX
8
0
10
110.276923076923
20
76.2790508427013
30
0
0
VERTEX
8
0
10
111.195897435897
20
76.2616430523497
30
0
0
VERTEX
8
0
10
112.114871794872
20
76.2438400415473
30
0
0
VERTEX
8
0
10
113.033846153846
20
76.2241273417149
30
0
0
VERTEX
8
0
10
113.95282051282
20
76.2017928560601
30
0
0
VERTEX
8
0
10
114.871794871795
20
76.1791256715339
30
0
0
VERTEX
8
0
10
115.790769230769
20
76.1545402039807
30
0
0
VERTEX
8
0
10
116.709743589743
20
76.127902634649
30
0
0
VERTEX
8
0
10
117.628717948718
20
76.1019890364338
30
0
0
VERTEX
8
0
10
118.547692307692
20
76.0726431228497
30
0
0
VERTEX
8
0
10
119.466666666666
20
76.0433961738485
30
0
0
VERTEX
8
0
10
120.385641025641
20
76.0139669440113
30
0
0
VERTEX
8
0
10
121.304615384615
20
75.9823735815576
30
0
0
VERTEX
8
0
10
122.223589743589
20
75.950748779648
30
0
0
VERTEX
8
0
10
123.142564102564
20
75.9183526349026
30
0
0
VERTEX
8
0
10
124.061538461538
20
75.8838937369344
30
0
0
VERTEX
8
0
10
124.980512820513
20
75.8491555592301
30
0
0
VERTEX
8
0
10
125.899487179487
20
75.8133331476091
30
0
0
VERTEX
8
0
10
126.818461538461
20
75.7756853481911
30
0
0
VERTEX
8
0
10
127.737435897436
20
75.7376403867358
30
0
0
VERTEX
8
0
10
128.65641025641
20
75.6983587358742
30
0
0
VERTEX
8
0
10
129.575384615384
20
75.6574972228728
30
0
0
VERTEX
8
0
10
130.494358974359
20
75.6161750944233
30
0
0
VERTEX
8
0
10
131.413333333333
20
75.5735689071446
30
0
0
VERTEX
8
0
10
132.332307692307
20
75.5296175223211
30
0
0
VERTEX
8
0
10
133.251282051282
20
75.4855262313803
30
0
0
VERTEX
8
0
10
134.170256410256
20
75.4394940972131
30
0
0
VERTEX
8
0
10
135.08923076923
20
75.3929118753133
30
0
0
VERTEX
8
0
10
136.008205128205
20
75.3456167401102
30
0
0
VERTEX
8
0
10
136.927179487179
20
75.296968767326
30
0
0
VERTEX
8
0
10
137.846153846153
20
75.2478267567275
30
0
0
VERTEX
8
0
10
138.765128205128
20
75.1979829963581
30
0
0
VERTEX
8
0
10
139.684102564102
20
75.1471032746163
30
0
0
VERTEX
8
0
10
140.603076923077
20
75.0958151397359
30
0
0
VERTEX
8
0
10
141.522051282051
20
75.0439165356726
30
0
0
VERTEX
8
0
10
142.441025641025
20
74.9912843620837
30
0
0
VERTEX
8
0
10
143.36
20
74.9383646845053
30
0
0
VERTEX
8
0
10
144.278974358974
20
74.8849984366066
30
0
0
VERTEX
8
0
10
145.197948717948
20
74.8311987668849
30
0
0
VERTEX
8
0
10
146.116923076923
20
74.7772766830537
30
0
0
VERTEX
8
0
10
147.035897435897
20
74.72314140253
30
0
0
VERTEX
8
0
10
147.954871794871
20
74.6688870643777
30
0
0
VERTEX
8
0
10
148.873846153846
20
74.614773922793
30
0
0
VERTEX
8
0
10
149.79282051282
20
74.5606766245224
30
0
0
VERTEX
8
0
10
150.711794871795
20
74.5068736958188
30
0
0
VERTEX
8
0
10
151.630769230769
20
74.4534609460458
30
0
0
VERTEX
8
0
10
152.549743589743
20
74.4005467630184
30
0
0
VERTEX
8
0
10
153.468717948718
20
74.3483441158863
30
0
0
VERTEX
8
0
10
154.387692307692
20
74.297037377847
30
0
0
VERTEX
8
0
10
155.306666666666
20
74.2468786163251
30
0
0
VERTEX
8
0
10
156.225641025641
20
74.1981812697108
30
0
0
VERTEX
8
0
10
157.144615384615
20
74.1511436903975
30
0
0
VERTEX
8
0
10
158.063589743589
20
74.1056616857388
30
0
0
VERTEX
8
0
10
158.982564102564
20
74.0615235682763
30
0
0
VERTEX
8
0
10
159.901538461538
20
74.0185654335541
30
0
0
VERTEX
8
0
10
160.820512820513
20
73.976669683709
30
0
0
VERTEX
8
0
10
161.739487179487
20
73.935747274833
30
0
0
VERTEX
8
0
10
162.658461538461
20
73.8957272704726
30
0
0
VERTEX
8
0
10
163.577435897436
20
73.8565510564081
30
0
0
VERTEX
8
0
10
164.49641025641
20
73.8181689080246
30
0
0
VERTEX
8
0
10
165.415384615384
20
73.7805378026287
30
0
0
VERTEX
8
0
10
166.334358974359
20
73.7436199427432
30
0
0
VERTEX
8
0
10
167.253333333333
20
73.7073817135627
30
0
0
VERTEX
8
0
10
168.172307692308
20
73.6717929202467
30
0
0
VERTEX
8
0
10
169.091282051282
20
73.6368262135831
30
0
0
VERTEX
8
0
10
170.010256410256
20
73.602456647032
30
0
0
VERTEX
8
0
10
170.929230769231
20
73.5686613281492
30
0
0
VERTEX
8
0
10
171.848205128205
20
73.5354191395191
30
0
0
SEQEND
8
0
0
POLYLINE
8
0
62
4
70
0
10
0
20
0
30
0
0
VERTEX
8
0
10
1.83794871794872
20
12.0404867807256
30
0
0
VERTEX
8
0
10
2.75692307692308
20
15.5134714477069
30
0
0
VERTEX
8
0
10
3.67589743589744
20
18.9817679164846
30
0
0
VERTEX
8
0
10
4.59487179487179
20
22.4185678299014
30
0
0
VERTEX
8
0
10
5.51384615384615
20
25.9246422604677
30
0
0
VERTEX
8
0
10
6.43282051282051
20
29.4630516831981
30
0
0
VERTEX
8
0
10
7.35179487179487
20
33.3922160652571
30
0
0
VERTEX
8
0
10
8.27076923076923
20
36.0481747085382
30
0
0
VERTEX
8
0
10
9.18974358974359
20
38.7032953736539
30
0
0
VERTEX
8
0
10
10.1087179487179
20
41.2784142931533
30
0
0
VERTEX
8
0
10
11.0276923076923
20
43.7685988426307
30
0
0
VERTEX
8
0
10
11.9466666666667
20
45.7654194534236
30
0
0
VERTEX
8
0
10
12.865641025641
20
47.7506684988265
30
0
0
VERTEX
8
0
10
13.7846153846154
20
49.6295028626037
30
0
0
VERTEX
8
0
10
14.7035897435897
20
51.4829712824439
30
0
0
VERTEX
8
0
10
15.6225641025641
20
52.8478763716879
30
0
0
VERTEX
8
0
10
16.5415384615385
20
54.3164753508646
30
0
0
VERTEX
8
0
10
17.4605128205128
20
55.6075037394027
30
0
0
VERTEX
8
0
10
18.3794871794872
20
56.8574454712768
30
0
0
VERTEX
8
0
10
19.2984615384615
20
57.9738638034873
30
0
0
VERTEX
8
0
10
20.2174358974359
20
59.0059739941282
30
0
0
VERTEX
8
0
10
21.1364102564103
20
60.010288608593
30
0
0
VERTEX
8
0
10
22.0553846153846
20
60.8702259163868
30
0
0
VERTEX
8
0
10
22.974358974359
20
61.7019535475948
30
0
0
VERTEX
8
0
10
23.8933333333333
20
62.4430980772644
30
0
0
VERTEX
8
0
10
24.8123076923077
20
63.1438548234921
30
0
0
VERTEX
8
0
10
25.7312820512821
20
63.7646119547092
30
0
0
VERTEX
8
0
10
26.6502564102564
20
64.3345079726574
30
0
0
VERTEX
8
0
10
27.5692307692308
20
64.8749207864635
30
0
0
VERTEX
8
0
10
28.4882051282051
20
65.3838688720415
30
0
0
VERTEX
8
0
10
29.4071794871795
20
65.8802236438208
30
0
0
VERTEX
8
0
10
30.3261538461539
20
66.2873179420624
30
0
0
VERTEX
8
0
10
31.2451282051282
20
66.679870478191
30
0
0
VERTEX
8
0
10
32.1641025641026
20
67.0550815674036
30
0
0
VERTEX
8
0
10
33.0830769230769
20
67.4099980136464
30
0
0
VERTEX
8
0
10
34.0020512820513
20
67.7583550766478
30
0
0
VERTEX
8
0
10
34.9210256410257
20
68.0309042052542
30
0
0
VERTEX
8
0
10
35.84
20
68.3063494550806
30
0
0
VERTEX
8
0
10
36.7589743589744
20
68.5698419136463
30
0
0
VERTEX
8
0
10
37.6779487179487
20
68.8213723228296
30
0
0
VERTEX
8
0
10
38.5969230769231
20
69.0661364758065
30
0
0
VERTEX
8
0
10
39.5158974358974
20
69.2950088895009
30
0
0
VERTEX
8
0
10
40.4348717948718
20
69.5233954973694
30
0
0
VERTEX
8
0
10
41.3538461538461
20
69.7426648767003
30
0
0
VERTEX
8
0
10
42.2728205128205
20
69.9681398928347
30
0
0
VERTEX
8
0
10
43.1917948717949
20
70.1783553360553
30
0
0
VERTEX
8
0
10
44.1107692307692
20
70.3880836902337
30
0
0
VERTEX
8
0
10
45.0297435897436
20
70.5964597232193
30
0
0
VERTEX
8
0
10
45.9487179487179
20
70.8009095477631
30
0
0
VERTEX
8
0
10
46.8676923076923
20
71.0051344267139
30
0
0
VERTEX
8
0
10
47.7866666666666
20
71.2096833030393
30
0
0
VERTEX
8
0
10
48.705641025641
20
71.4070250141408
30
0
0
VERTEX
8
0
10
49.6246153846154
20
71.6077649787477
30
0
0
VERTEX
8
0
10
50.5435897435897
20
71.8049662329313
30
0
0
VERTEX
8
0
10
51.4625641025641
20
71.9944583433451
30
0
0
VERTEX
8
0
10
52.3815384615384
20
72.1986914530146
30
0
0
VERTEX
8
0
10
53.3005128205128
20
72.3767354277388
30
0
0
VERTEX
8
0
10
54.2194871794871
20
72.5550788087509
30
0
0
VERTEX
8
0
10
55.1384615384615
20
72.7379490295955
30
0
0
VERTEX
8
0
10
56.0574358974358
20
72.9082773615848
30
0
0
VERTEX
8
0
10
56.9764102564102
20
73.0784421860587
30
0
0
VERTEX
8
0
10
57.8953846153846
20
73.2478876937858
30
0
0
VERTEX
8
0
10
58.8143589743589
20
73.4132642584633
30
0
0
VERTEX
8
0
10
59.7333333333333
20
73.577824978809
30
0
0
VERTEX
8
0
10
60.6523076923076
20
73.7408031493932
30
0
0
VERTEX
8
0
10
61.571282051282
20
73.8859630668405
30
0
0
VERTEX
8
0
10
62.4902564102563
20
74.0374274651294
30
0
0
VERTEX
8
0
10
63.4092307692307
20
74.1909751418183
30
0
0
VERTEX
8
0
10
64.328205128205
20
74.2390919254816
30
0
0
VERTEX
8
0
10
65.2471794871794
20
74.3258672176177
30
0
0
VERTEX
8
0
10
66.1661538461537
20
74.4071344166252
30
0
0
VERTEX
8
0
10
67.0851282051281
20
74.4847621052861
30
0
0
VERTEX
8
0
10
68.0041025641025
20
74.5770462206612
30
0
0
VERTEX
8
0
10
68.9230769230768
20
74.6684763559486
30
0
0
VERTEX
8
0
10
69.8420512820512
20
74.753877421058
30
0
0
VERTEX
8
0
10
70.7610256410255
20
74.8061742077329
30
0
0
VERTEX
8
0
10
71.6799999999999
20
74.8552506182107
30
0
0
VERTEX
8
0
10
72.5989743589742
20
74.9038009489818
30
0
0
VERTEX
8
0
10
73.5179487179486
20
74.9602067515308
30
0
0
VERTEX
8
0
10
74.436923076923
20
75.000254182648
30
0
0
VERTEX
8
0
10
75.3558974358973
20
75.0333242935115
30
0
0
VERTEX
8
0
10
76.2748717948717
20
75.0752764558435
30
0
0
VERTEX
8
0
10
77.193846153846
20
75.1014026113714
30
0
0
VERTEX
8
0
10
78.1128205128204
20
75.1265975054986
30
0
0
VERTEX
8
0
10
79.0317948717947
20
75.1463220865101
30
0
0
VERTEX
8
0
10
79.9507692307691
20
75.1646060063998
30
0
0
VERTEX
8
0
10
80.8697435897435
20
75.184509094934
30
0
0
VERTEX
8
0
10
81.7887179487178
20
75.2012719531411
30
0
0
VERTEX
8
0
10
82.7076923076922
20
75.2092919011867
30
0
0
VERTEX
8
0
10
83.6266666666665
20
75.2198910874611
30
0
0
VERTEX
8
0
10
84.5456410256409
20
75.2305267779467
30
0
0
VERTEX
8
0
10
85.4646153846152
20
75.2386350281947
30
0
0
VERTEX
8
0
10
86.3835897435896
20
75.2576481785781
30
0
0
VERTEX
8
0
10
87.3025641025639
20
75.2763823142107
30
0
0
VERTEX
8
0
10
88.2215384615383
20
75.296323854818
30
0
0
VERTEX
8
0
10
89.1405128205126
20
75.3154070847438
30
0
0
VERTEX
8
0
10
90.059487179487
20
75.326485733836
30
0
0
VERTEX
8
0
10
90.9784615384614
20
75.3354998643658
30
0
0
VERTEX
8
0
10
91.8974358974357
20
75.343997593213
30
0
0
VERTEX
8
0
10
92.8164102564101
20
75.3501440365673
30
0
0
VERTEX
8
0
10
93.7353846153844
20
75.3580129244211
30
0
0
VERTEX
8
0
10
94.6543589743588
20
75.3558705336754
30
0
0
VERTEX
8
0
10
95.5733333333331
20
75.3543919916535
30
0
0
VERTEX
8
0
10
96.4923076923075
20
75.3561605723677
30
0
0
VERTEX
8
0
10
97.4112820512818
20
75.357708978834
30
0
0
VERTEX
8
0
10
98.3302564102562
20
75.3525492610617
30
0
0
VERTEX
8
0
10
99.2492307692306
20
75.3465614962644
30
0
0
VERTEX
8
0
10
100.168205128205
20
75.3442555479129
30
0
0
VERTEX
8
0
10
101.087179487179
20
75.3351535207738
30
0
0
VERTEX
8
0
10
102.006153846154
20
75.3252468498186
30
0
0
VERTEX
8
0
10
102.925128205128
20
75.3119449349836
30
0
0
VERTEX
8
0
10
103.844102564102
20
75.2993422349106
30
0
0
VERTEX
8
0
10
104.763076923077
20
75.2844946326232
30
0
0
VERTEX
8
0
10
105.682051282051
20
75.2652515073169
30
0
0
VERTEX
8
0
10
106.601025641025
20
75.2495784545895
30
0
0
VERTEX
8
0
10
107.52
20
75.233407583374
30
0
0
VERTEX
8
0
10
108.438974358974
20
75.2137015680268
30
0
0
VERTEX
8
0
10
109.357948717948
20
75.1938849058839
30
0
0
VERTEX
8
0
10
110.276923076923
20
75.1779539279069
30
0
0
VERTEX
8
0
10
111.195897435897
20
75.1611939164139
30
0
0
VERTEX
8
0
10
112.114871794872
20
75.1438571937183
30
0
0
VERTEX
8
0
10
113.033846153846
20
75.1247668148661
30
0
0
VERTEX
8
0
10
113.95282051282
20
75.1032393176339
30
0
0
VERTEX
8
0
10
114.871794871795
20
75.0792618141044
30
0
0
VERTEX
8
0
10
115.790769230769
20
75.0543804621498
30
0
0
VERTEX
8
0
10
116.709743589743
20
75.0291225738808
30
0
0
VERTEX
8
0
10
117.628717948718
20
75.0044369028155
30
0
0
VERTEX
8
0
10
118.547692307692
20
74.9753113000174
30
0
0
VERTEX
8
0
10
119.466666666666
20
74.9457923735586
30
0
0
VERTEX
8
0
10
120.385641025641
20
74.9226802090042
30
0
0
VERTEX
8
0
10
121.304615384615
20
74.9008286325404
30
0
0
VERTEX
8
0
10
122.223589743589
20
74.8792432929667
30
0
0
VERTEX
8
0
10
123.142564102564
20
74.8553710308671
30
0
0
VERTEX
8
0
10
124.061538461538
20
74.8282808655572
30
0
0
VERTEX
8
0
10
124.980512820513
20
74.7990993820663
30
0
0
VERTEX
8
0
10
125.899487179487
20
74.7693638208848
30
0
0
VERTEX
8
0
10
126.818461538461
20
74.7392302044444
30
0
0
VERTEX
8
0
10
127.737435897436
20
74.7106588442408
30
0
0
VERTEX
8
0
10
128.65641025641
20
74.6814153950389
30
0
0
VERTEX
8
0
10
129.575384615384
20
74.6506919975524
30
0
0
VERTEX
8
0
10
130.494358974359
20
74.6196364741694
30
0
0
VERTEX
8
0
10
131.413333333333
20
74.6098902099293
30
0
0
VERTEX
8
0
10
132.332307692307
20
74.5954228198014
30
0
0
VERTEX
8
0
10
133.251282051282
20
74.5663995703748
30
0
0
VERTEX
8
0
10
134.170256410256
20
74.5374953319782
30
0
0
VERTEX
8
0
10
135.08923076923
20
74.5192906866403
30
0
0
VERTEX
8
0
10
136.008205128205
20
74.506071178564
30
0
0
VERTEX
8
0
10
136.927179487179
20
74.4833145063079
30
0
0
VERTEX
8
0
10
137.846153846153
20
74.4411849880104
30
0
0
VERTEX
8
0
10
138.765128205128
20
74.4067331353905
30
0
0
VERTEX
8
0
10
139.684102564102
20
74.381923619794
30
0
0
VERTEX
8
0
10
140.603076923077
20
74.3660554103135
30
0
0
VERTEX
8
0
10
141.522051282051
20
74.3541943096865
30
0
0
VERTEX
8
0
10
142.441025641025
20
74.3414474031119
30
0
0
VERTEX
8
0
10
143.36
20
74.3282004967505
30
0
0
VERTEX
8
0
10
144.278974358974
20
74.3142721507074
30
0
0
VERTEX
8
0
10
145.197948717948
20
74.2996509205068
30
0
0
VERTEX
8
0
10
146.116923076923
20
74.2846013932897
30
0
0
VERTEX
8
0
10
147.035897435897
20
74.2689903591952
30
0
0
VERTEX
8
0
10
147.954871794871
20
74.2528652891329
30
0
0
VERTEX
8
0
10
148.873846153846
20
74.2364258323117
30
0
0
VERTEX
8
0
10
149.79282051282
20
74.2195089416007
30
0
0
VERTEX
8
0
10
150.711794871795
20
74.2022964559096
30
0
0
VERTEX
8
0
10
151.630769230769
20
74.1848096294601
30
0
0
VERTEX
8
0
10
152.549743589743
20
74.167067815367
30
0
0
VERTEX
8
0
10
153.468717948718
20
74.1491570861184
30
0
0
VERTEX
8
0
10
154.387692307692
20
74.131113568254
30
0
0
VERTEX
8
0
10
155.306666666666
20
74.1129869786908
30
0
0
VERTEX
8
0
10
156.225641025641
20
74.0948314003998
30
0
0
VERTEX
8
0
10
157.144615384615
20
74.0766824168117
30
0
0
VERTEX
8
0
10
158.063589743589
20
74.058556086861
30
0
0
VERTEX
8
0
10
158.982564102564
20
74.0404557116829
30
0
0
VERTEX
8
0
10
159.901538461538
20
74.0223817601886
30
0
0
VERTEX
8
0
10
160.820512820513
20
74.0043343076293
30
0
0
VERTEX
8
0
10
161.739487179487
20
73.9863133803129
30
0
0
VERTEX
8
0
10
162.658461538461
20
73.9683189984909
30
0
0
VERTEX
8
0
10
163.577435897436
20
73.9503511816505
30
0
0
VERTEX
8
0
10
164.49641025641
20
73.932409949174
30
0
0
VERTEX
8
0
10
165.415384615384
20
73.9144953204216
30
0
0
VERTEX
8
0
10
166.334358974359
20
73.8966073147424
30
0
0
VERTEX
8
0
10
167.253333333333
20
73.8787459514746
30
0
0
VERTEX
8
0
10
168.172307692308
20
73.8609112499464
30
0
0
VERTEX
8
0
10
169.091282051282
20
73.8431032294762
30
0
0
VERTEX
8
0
10
170.010256410256
20
73.8253219093718
30
0
0
VERTEX
8
0
10
170.929230769231
20
73.8075673089307
30
0
0
VERTEX
8
0
10
171.848205128205
20
73.7898394474401
30
0
0
SEQEND
8
0
0
POLYLINE
8
0
62
2
70
0
10
0
20
0
30
0
0
VERTEX
8
0
10
1.83794871794872
20
17.5421452532884
30
0
0
VERTEX
8
0
10
2.75692307692308
20
19.3315855602923
30
0
0
VERTEX
8
0
10
3.67589743589744
20
20.724687865264
30
0
0
VERTEX
8
0
10
4.59487179487179
20
22.2755237067711
30
0
0
VERTEX
8
0
10
5.51384615384615
20
24.1197912049459
30
0
0
VERTEX
8
0
10
6.43282051282051
20
26.1669750544867
30
0
0
VERTEX
8
0
10
7.35179487179487
20
28.2705826420265
30
0
0
VERTEX
8
0
10
8.27076923076923
20
30.3182270886408
30
0
0
VERTEX
8
0
10
9.18974358974359
20
32.2462055315083
30
0
0
VERTEX
8
0
10
10.1087179487179
20
34.025761508975
30
0
0
VERTEX
8
0
10
11.0276923076923
20
35.6619300700304
30
0
0
VERTEX
8
0
10
11.9466666666667
20
37.0131062741032
30
0
0
VERTEX
8
0
10
12.865641025641
20
38.2237207198153
30
0
0
VERTEX
8
0
10
13.7846153846154
20
39.7548690392584
30
0
0
VERTEX
8
0
10
14.7035897435897
20
40.5313550217295
30
0
0
VERTEX
8
0
10
15.6225641025641
20
41.2529046026787
30
0
0
VERTEX
8
0
10
16.5415384615385
20
41.9116258924045
30
0
0
VERTEX
8
0
10
17.4605128205128
20
42.502861849618
30
0
0
VERTEX
8
0
10
18.3794871794872
20
43.0243912719357
30
0
0
VERTEX
8
0
10
19.2984615384615
20
43.4757890925659
30
0
0
VERTEX
8
0
10
20.2174358974359
20
43.8579327056372
30
0
0
VERTEX
8
0
10
21.1364102564103
20
44.1726292196483
30
0
0
VERTEX
8
0
10
22.0553846153846
20
44.4223377535857
30
0
0
VERTEX
8
0
10
22.974358974359
20
44.5961660816203
30
0
0
VERTEX
8
0
10
23.8933333333333
20
44.7080567261977
30
0
0
VERTEX
8
0
10
24.8123076923077
20
44.7640123973062
30
0
0
VERTEX
8
0
10
25.7312820512821
20
44.8376544416354
30
0
0
VERTEX
8
0
10
26.6502564102564
20
44.7670854272109
30
0
0
VERTEX
8
0
10
27.5692307692308
20
44.6607267220473
30
0
0
VERTEX
8
0
10
28.4882051282051
20
44.5205204532101
30
0
0
VERTEX
8
0
10
29.4071794871795
20
44.3486124347514
30
0
0
VERTEX
8
0
10
30.3261538461539
20
44.1472980026018
30
0
0
VERTEX
8
0
10
31.2451282051282
20
43.9189782785409
30
0
0
VERTEX
8
0
10
32.1641025641026
20
43.6661250081012
30
0
0
VERTEX
8
0
10
33.0830769230769
20
43.391252429831
30
0
0
VERTEX
8
0
10
34.0020512820513
20
43.0968949225157
30
0
0
VERTEX
8
0
10
34.9210256410257
20
42.7788059663999
30
0
0
VERTEX
8
0
10
35.84
20
42.4486947374779
30
0
0
VERTEX
8
0
10
36.7589743589744
20
42.1064083490477
30
0
0
VERTEX
8
0
10
37.6779487179487
20
41.770255288618
30
0
0
VERTEX
8
0
10
38.5969230769231
20
41.4053340754743
30
0
0
VERTEX
8
0
10
39.5158974358974
20
41.0376270017414
30
0
0
VERTEX
8
0
10
40.4348717948718
20
40.6692252322431
30
0
0
VERTEX
8
0
10
41.3538461538461
20
40.3022464674649
30
0
0
VERTEX
8
0
10
42.2728205128205
20
39.9388504018386
30
0
0
VERTEX
8
0
10
43.1917948717949
20
39.5812719280383
30
0
0
VERTEX
8
0
10
44.1107692307692
20
39.2318883508833
30
0
0
VERTEX
8
0
10
45.0297435897436
20
38.8933635368389
30
0
0
VERTEX
8
0
10
45.9487179487179
20
38.5690171651018
30
0
0
VERTEX
8
0
10
46.8676923076923
20
38.2605600599219
30
0
0
VERTEX
8
0
10
47.7866666666666
20
37.9787363746819
30
0
0
VERTEX
8
0
10
48.705641025641
20
37.7146413834139
30
0
0
VERTEX
8
0
10
49.6246153846154
20
37.4682319006801
30
0
0
VERTEX
8
0
10
50.5435897435897
20
37.2238140039913
30
0
0
VERTEX
8
0
10
51.4625641025641
20
36.9874136167986
30
0
0
VERTEX
8
0
10
52.3815384615384
20
36.7575316068616
30
0
0
VERTEX
8
0
10
53.3005128205128
20
36.5330115253621
30
0
0
VERTEX
8
0
10
54.2194871794871
20
36.312936107215
30
0
0
VERTEX
8
0
10
55.1384615384615
20
36.096564784111
30
0
0
VERTEX
8
0
10
56.0574358974358
20
35.8832928031932
30
0
0
VERTEX
8
0
10
56.9764102564102
20
35.672622882481
30
0
0
VERTEX
8
0
10
57.8953846153846
20
35.4641446731318
30
0
0
VERTEX
8
0
10
58.8143589743589
20
35.2553048190759
30
0
0
VERTEX
8
0
10
59.7333333333333
20
35.0493639630453
30
0
0
VERTEX
8
0
10
60.6523076923076
20
34.844697650416
30
0
0
VERTEX
8
0
10
61.571282051282
20
34.643175557069
30
0
0
VERTEX
8
0
10
62.4902564102563
20
34.4397724530535
30
0
0
VERTEX
8
0
10
63.4092307692307
20
34.237498369635
30
0
0
VERTEX
8
0
10
64.328205128205
20
34.0362419842817
30
0
0
VERTEX
8
0
10
65.2471794871794
20
33.8359168140976
30
0
0
VERTEX
8
0
10
66.1661538461537
20
33.6364580104818
30
0
0
VERTEX
8
0
10
67.0851282051281
20
33.4378195773652
30
0
0
VERTEX
8
0
10
68.0041025641025
20
33.2399719379542
30
0
0
VERTEX
8
0
10
68.9230769230768
20
33.0428997910731
30
0
0
VERTEX
8
0
10
69.8420512820512
20
32.8466002100421
30
0
0
VERTEX
8
0
10
70.7610256410255
20
32.64987311099
30
0
0
VERTEX
8
0
10
71.6799999999999
20
32.4547433692491
30
0
0
VERTEX
8
0
10
72.5989743589742
20
32.2604127487948
30
0
0
VERTEX
8
0
10
73.5179487179486
20
32.0676345709096
30
0
0
VERTEX
8
0
10
74.436923076923
20
31.8747147213697
30
0
0
VERTEX
8
0
10
75.3558974358973
20
31.6828327302464
30
0
0
VERTEX
8
0
10
76.2748717948717
20
31.4920234642493
30
0
0
VERTEX
8
0
10
77.193846153846
20
31.3023250704846
30
0
0
VERTEX
8
0
10
78.1128205128204
20
31.1137781393636
30
0
0
VERTEX
8
0
10
79.0317948717947
20
30.9264249314447
30
0
0
VERTEX
8
0
10
79.9507692307691
20
30.7403086625049
30
0
0
VERTEX
8
0
10
80.8697435897435
20
30.5554728420903
30
0
0
VERTEX
8
0
10
81.7887179487178
20
30.3719606615205
30
0
0
VERTEX
8
0
10
82.7076923076922
20
30.1892194856554
30
0
0
VERTEX
8
0
10
83.6266666666665
20
30.0083070016302
30
0
0
VERTEX
8
0
10
84.5456410256409
20
29.8288352820256
30
0
0
VERTEX
8
0
10
85.4646153846152
20
29.6510661717915
30
0
0
VERTEX
8
0
10
86.3835897435896
20
29.474485421927
30
0
0
VERTEX
8
0
10
87.3025641025639
20
29.2994983942376
30
0
0
VERTEX
8
0
10
88.2215384615383
20
29.1261282207654
30
0
0
VERTEX
8
0
10
89.1405128205126
20
28.9543947078949
30
0
0
VERTEX
8
0
10
90.059487179487
20
28.7843140772694
30
0
0
VERTEX
8
0
10
90.9784615384614
20
28.6158987518017
30
0
0
VERTEX
8
0
10
91.8974358974357
20
28.449157189999
30
0
0
VERTEX
8
0
10
92.8164102564101
20
28.2840937734543
30
0
0
VERTEX
8
0
10
93.7353846153844
20
28.1207087547032
30
0
0
VERTEX
8
0
10
94.6543589743588
20
27.9587437955272
30
0
0
VERTEX
8
0
10
95.5733333333331
20
27.7986374136607
30
0
0
VERTEX
8
0
10
96.4923076923075
20
27.6401872576914
30
0
0
VERTEX
8
0
10
97.4112820512818
20
27.4834344719293
30
0
0
VERTEX
8
0
10
98.3302564102562
20
27.3282217680079
30
0
0
VERTEX
8
0
10
99.2492307692306
20
27.1746326572774
30
0
0
VERTEX
8
0
10
100.168205128205
20
27.0226485670282
30
0
0
VERTEX
8
0
10
101.087179487179
20
26.8722605791677
30
0
0
VERTEX
8
0
10
102.006153846154
20
26.723463472261
30
0
0
VERTEX
8
0
10
102.925128205128
20
26.5761539871993
30
0
0
VERTEX
8
0
10
103.844102564102
20
26.4301688838252
30
0
0
VERTEX
8
0
10
104.763076923077
20
26.285395427468
30
0
0
VERTEX
8
0
10
105.682051282051
20
26.1417615036056
30
0
0
VERTEX
8
0
10
106.601025641025
20
25.9991486583322
30
0
0
VERTEX
8
0
10
107.52
20
25.8576662536029
30
0
0
VERTEX
8
0
10
108.438974358974
20
25.7172472070555
30
0
0
VERTEX
8
0
10
109.357948717948
20
25.5779061081275
30
0
0
VERTEX
8
0
10
110.276923076923
20
25.4396489216483
30
0
0
VERTEX
8
0
10
111.195897435897
20
25.3025297499499
30
0
0
VERTEX
8
0
10
112.114871794872
20
25.1666037460237
30
0
0
VERTEX
8
0
10
113.033846153846
20
25.0319449200791
30
0
0
VERTEX
8
0
10
113.95282051282
20
24.8986490237569
30
0
0
VERTEX
8
0
10
114.871794871795
20
24.7668380137844
30
0
0
VERTEX
8
0
10
115.790769230769
20
24.6366671554879
30
0
0
VERTEX
8
0
10
116.709743589743
20
24.5083370716247
30
0
0
VERTEX
8
0
10
117.628717948718
20
24.3821163672751
30
0
0
VERTEX
8
0
10
118.547692307692
20
24.258388318772
30
0
0
VERTEX
8
0
10
119.466666666666
20
24.1377147433299
30
0
0
VERTEX
8
0
10
120.385641025641
20
24.0205156392037
30
0
0
VERTEX
8
0
10
121.304615384615
20
23.9064936772646
30
0
0
VERTEX
8
0
10
122.223589743589
20
23.7951928876791
30
0
0
VERTEX
8
0
10
123.142564102564
20
23.6863065176751
30
0
0
VERTEX
8
0
10
124.061538461538
20
23.579621694675
30
0
0
VERTEX
8
0
10
124.980512820513
20
23.4749772443276
30
0
0
VERTEX
8
0
10
125.899487179487
20
23.3722438808822
30
0
0
VERTEX
8
0
10
126.818461538461
20
23.2713138719785
30
0
0
VERTEX
8
0
10
127.737435897436
20
23.1720950107546
30
0
0
VERTEX
8
0
10
128.65641025641
20
23.0745068002809
30
0
0
VERTEX
8
0
10
129.575384615384
20
22.9784778884411
30
0
0
VERTEX
8
0
10
130.494358974359
20
22.8839442622114
30
0
0
VERTEX
8
0
10
131.413333333333
20
22.7908479293785
30
0
0
VERTEX
8
0
10
132.332307692307
20
22.6991359272108
30
0
0
VERTEX
8
0
10
133.251282051282
20
22.6087595584629
30
0
0
VERTEX
8
0
10
134.170256410256
20
22.5196737902441
30
0
0
VERTEX
8
0
10
135.08923076923
20
22.4318367725647
30
0
0
VERTEX
8
0
10
136.008205128205
20
22.3452094467562
30
0
0
VERTEX
8
0
10
136.927179487179
20
22.2597552226774
30
0
0
VERTEX
8
0
10
137.846153846153
20
22.1754397094431
30
0
0
VERTEX
8
0
10
138.765128205128
20
22.09223048842
30
0
0
VERTEX
8
0
10
139.684102564102
20
22.0100969200381
30
0
0
VERTEX
8
0
10
140.603076923077
20
21.9290099779789
30
0
0
VERTEX
8
0
10
141.522051282051
20
21.848942105761
30
0
0
VERTEX
8
0
10
142.441025641025
20
21.7698670918317
30
0
0
VERTEX
8
0
10
143.36
20
21.6917599600791
30
0
0
VERTEX
8
0
10
144.278974358974
20
21.6145968733015
30
0
0
VERTEX
8
0
10
145.197948717948
20
21.5383550476438
30
0
0
VERTEX
8
0
10
146.116923076923
20
21.4630126763784
30
0
0
VERTEX
8
0
10
147.035897435897
20
21.3885488617019
30
0
0
VERTEX
8
0
10
147.954871794871
20
21.3149435534454
30
0
0
VERTEX
8
0
10
148.873846153846
20
21.242177493781
30
0
0
VERTEX
8
0
10
149.79282051282
20
21.1702321671563
30
0
0
VERTEX
8
0
10
150.711794871795
20
21.0990897548078
30
0
0
VERTEX
8
0
10
151.630769230769
20
21.0287330933028
30
0
0
VERTEX
8
0
10
152.549743589743
20
20.9591456366411
30
0
0
VERTEX
8
0
10
153.468717948718
20
20.8903114215125
30
0
0
VERTEX
8
0
10
154.387692307692
20
20.8222150353668
30
0
0
VERTEX
8
0
10
155.306666666666
20
20.7548415869921
30
0
0
VERTEX
8
0
10
156.225641025641
20
20.6881766793457
30
0
0
VERTEX
8
0
10
157.144615384615
20
20.6222063844068
30
0
0
VERTEX
8
0
10
158.063589743589
20
20.556917219854
30
0
0
VERTEX
8
0
10
158.982564102564
20
20.4922961273935
30
0
0
VERTEX
8
0
10
159.901538461538
20
20.4283304525817
30
0
0
VERTEX
8
0
10
160.820512820513
20
20.3650079260081
30
0
0
VERTEX
8
0
10
161.739487179487
20
20.302316645717
30
0
0
VERTEX
8
0
10
162.658461538461
20
20.2402450607598
30
0
0
VERTEX
8
0
10
163.577435897436
20
20.1787819557834
30
0
0
VERTEX
8
0
10
164.49641025641
20
20.117916436567
30
0
0
VERTEX
8
0
10
165.415384615384
20
20.0576379164322
30
0
0
VERTEX
8
0
10
166.334358974359
20
19.9979361034553
30
0
0
VERTEX
8
0
10
167.253333333333
20
19.9388009884209
30
0
0
VERTEX
8
0
10
168.172307692308
20
19.88022283346
30
0
0
VERTEX
8
0
10
169.091282051282
20
19.8221921613203
30
0
0
VERTEX
8
0
10
170.010256410256
20
19.7646997452252
30
0
0
VERTEX
8
0
10
170.929230769231
20
19.7077365992757
30
0
0
VERTEX
8
0
10
171.848205128205
20
19.6512939693605
30
0
0
SEQEND
8
0
0
POLYLINE
8
0
62
3
70
0
10
0
20
0
30
0
0
VERTEX
8
0
10
1.83794871794872
20
18.2173397495456
30
0
0
VERTEX
8
0
10
2.75692307692308
20
20.6344997031854
30
0
0
VERTEX
8
0
10
3.67589743589744
20
22.7652989322208
30
0
0
VERTEX
8
0
10
4.59487179487179
20
25.0826415389344
30
0
0
VERTEX
8
0
10
5.51384615384615
20
27.6638236455229
30
0
0
VERTEX
8
0
10
6.43282051282051
20
30.400028965387
30
0
0
VERTEX
8
0
10
7.35179487179487
20
33.1510657455473
30
0
0
VERTEX
8
0
10
8.27076923076923
20
35.8161061093881
30
0
0
VERTEX
8
0
10
9.18974358974359
20
38.3402209448989
30
0
0
VERTEX
8
0
10
10.1087179487179
20
40.6998358816947
30
0
0
VERTEX
8
0
10
11.0276923076923
20
42.8857799714662
30
0
0
VERTEX
8
0
10
11.9466666666667
20
44.809118643943
30
0
0
VERTEX
8
0
10
12.865641025641
20
46.5801722515654
30
0
0
VERTEX
8
0
10
13.7846153846154
20
48.5686804341629
30
0
0
VERTEX
8
0
10
14.7035897435897
20
49.9152346621048
30
0
0
VERTEX
8
0
10
15.6225641025641
20
51.185616880617
30
0
0
VERTEX
8
0
10
16.5415384615385
20
52.3739591269486
30
0
0
VERTEX
8
0
10
17.4605128205128
20
53.4773468405609
30
0
0
VERTEX
8
0
10
18.3794871794872
20
54.4950405665994
30
0
0
VERTEX
8
0
10
19.2984615384615
20
55.4278738502816
30
0
0
VERTEX
8
0
10
20.2174358974359
20
56.2777995426404
30
0
0
VERTEX
8
0
10
21.1364102564103
20
57.0475531618567
30
0
0
VERTEX
8
0
10
22.0553846153846
20
57.7404053376268
30
0
0
VERTEX
8
0
10
22.974358974359
20
58.3410510437351
30
0
0
VERTEX
8
0
10
23.8933333333333
20
58.8773170197011
30
0
0
VERTEX
8
0
10
24.8123076923077
20
59.3480782278933
30
0
0
VERTEX
8
0
10
25.7312820512821
20
59.8046872443761
30
0
0
VERTEX
8
0
10
26.6502564102564
20
60.1387429906911
30
0
0
VERTEX
8
0
10
27.5692307692308
20
60.4266149685615
30
0
0
VERTEX
8
0
10
28.4882051282051
20
60.6709360711277
30
0
0
VERTEX
8
0
10
29.4071794871795
20
60.874476935766
30
0
0
VERTEX
8
0
10
30.3261538461539
20
61.0400964289299
30
0
0
VERTEX
8
0
10
31.2451282051282
20
61.170701686807
30
0
0
VERTEX
8
0
10
32.1641025641026
20
61.2692159005722
30
0
0
VERTEX
8
0
10
33.0830769230769
20
61.3385523799901
30
0
0
VERTEX
8
0
10
34.0020512820513
20
61.3815937276328
30
0
0
VERTEX
8
0
10
34.9210256410257
20
61.3922526799781
30
0
0
VERTEX
8
0
10
35.84
20
61.3876072046048
30
0
0
VERTEX
8
0
10
36.7589743589744
20
61.3649031916411
30
0
0
VERTEX
8
0
10
37.6779487179487
20
61.3348243140093
30
0
0
VERTEX
8
0
10
38.5969230769231
20
61.2805538456557
30
0
0
VERTEX
8
0
10
39.5158974358974
20
61.2172324984406
30
0
0
VERTEX
8
0
10
40.4348717948718
20
61.1470074819628
30
0
0
VERTEX
8
0
10
41.3538461538461
20
61.0719829380196
30
0
0
VERTEX
8
0
10
42.2728205128205
20
60.9942275268757
30
0
0
VERTEX
8
0
10
43.1917948717949
20
60.9157935386493
30
0
0
VERTEX
8
0
10
44.1107692307692
20
60.8387575005282
30
0
0
VERTEX
8
0
10
45.0297435897436
20
60.7653087750157
30
0
0
VERTEX
8
0
10
45.9487179487179
20
60.6979781119596
30
0
0
VERTEX
8
0
10
46.8676923076923
20
60.6357636620439
30
0
0
VERTEX
8
0
10
47.7866666666666
20
60.5900750402135
30
0
0
VERTEX
8
0
10
48.705641025641
20
60.5530850867631
30
0
0
VERTEX
8
0
10
49.6246153846154
20
60.5228260544985
30
0
0
VERTEX
8
0
10
50.5435897435897
20
60.4933121549293
30
0
0
VERTEX
8
0
10
51.4625641025641
20
60.4660599913069
30
0
0
VERTEX
8
0
10
52.3815384615384
20
60.4400864312615
30
0
0
VERTEX
8
0
10
53.3005128205128
20
60.4146446782256
30
0
0
VERTEX
8
0
10
54.2194871794871
20
60.3891546102113
30
0
0
VERTEX
8
0
10
55.1384615384615
20
60.3631602260245
30
0
0
VERTEX
8
0
10
56.0574358974358
20
60.3363014956489
30
0
0
VERTEX
8
0
10
56.9764102564102
20
60.3082946387359
30
0
0
VERTEX
8
0
10
57.8953846153846
20
60.2789176939887
30
0
0
VERTEX
8
0
10
58.8143589743589
20
60.2450883606895
30
0
0
VERTEX
8
0
10
59.7333333333333
20
60.2117557134098
30
0
0
VERTEX
8
0
10
60.6523076923076
20
60.1766428372058
30
0
0
VERTEX
8
0
10
61.571282051282
20
60.13974399559
30
0
0
VERTEX
8
0
10
62.4902564102563
20
60.1007435295829
30
0
0
VERTEX
8
0
10
63.4092307692307
20
60.0600117601262
30
0
0
VERTEX
8
0
10
64.328205128205
20
60.017537932046
30
0
0
VERTEX
8
0
10
65.2471794871794
20
59.9733283060843
30
0
0
VERTEX
8
0
10
66.1661538461537
20
59.927403741149
30
0
0
VERTEX
8
0
10
67.0851282051281
20
59.8797975888098
30
0
0
VERTEX
8
0
10
68.0041025641025
20
59.8305538469201
30
0
0
VERTEX
8
0
10
68.9230769230768
20
59.7797255305197
30
0
0
VERTEX
8
0
10
69.8420512820512
20
59.7273732265272
30
0
0
VERTEX
8
0
10
70.7610256410255
20
59.6719503525811
30
0
0
VERTEX
8
0
10
71.6799999999999
20
59.6164095686915
30
0
0
VERTEX
8
0
10
72.5989743589742
20
59.5595624553841
30
0
0
VERTEX
8
0
10
73.5179487179486
20
59.5012247511125
30
0
0
VERTEX
8
0
10
74.436923076923
20
59.4420146428305
30
0
0
VERTEX
8
0
10
75.3558974358973
20
59.3817993569752
30
0
0
VERTEX
8
0
10
76.2748717948717
20
59.3206568004938
30
0
0
VERTEX
8
0
10
77.193846153846
20
59.2586656201503
30
0
0
VERTEX
8
0
10
78.1128205128204
20
59.1959046023394
30
0
0
VERTEX
8
0
10
79.0317948717947
20
59.1324521281619
30
0
0
VERTEX
8
0
10
79.9507692307691
20
59.0683856793506
30
0
0
VERTEX
8
0
10
80.8697435897435
20
59.0037813913009
30
0
0
VERTEX
8
0
10
81.7887179487178
20
58.9387136499752
30
0
0
VERTEX
8
0
10
82.7076923076922
20
58.8724494166259
30
0
0
VERTEX
8
0
10
83.6266666666665
20
58.8065209514516
30
0
0
VERTEX
8
0
10
84.5456410256409
20
58.7403444972804
30
0
0
VERTEX
8
0
10
85.4646153846152
20
58.6737631415489
30
0
0
VERTEX
8
0
10
86.3835897435896
20
58.6073169024557
30
0
0
VERTEX
8
0
10
87.3025641025639
20
58.5408223093289
30
0
0
VERTEX
8
0
10
88.2215384615383
20
58.4743309307226
30
0
0
VERTEX
8
0
10
89.1405128205126
20
58.4078909318898
30
0
0
VERTEX
8
0
10
90.059487179487
20
58.3415469747656
30
0
0
VERTEX
8
0
10
90.9784615384614
20
58.2753401518634
30
0
0
VERTEX
8
0
10
91.8974358974357
20
58.2093079549288
30
0
0
VERTEX
8
0
10
92.8164102564101
20
58.1434842799631
30
0
0
VERTEX
8
0
10
93.7353846153844
20
58.0778994713081
30
0
0
VERTEX
8
0
10
94.6543589743588
20
58.0122321155838
30
0
0
VERTEX
8
0
10
95.5733333333331
20
57.947149449641
30
0
0
VERTEX
8
0
10
96.4923076923075
20
57.8823820050003
30
0
0
VERTEX
8
0
10
97.4112820512818
20
57.8178302904111
30
0
0
VERTEX
8
0
10
98.3302564102562
20
57.7537697639269
30
0
0
VERTEX
8
0
10
99.2492307692306
20
57.6900742546721
30
0
0
VERTEX
8
0
10
100.168205128205
20
57.6267564653954
30
0
0
VERTEX
8
0
10
101.087179487179
20
57.5638327385727
30
0
0
VERTEX
8
0
10
102.006153846154
20
57.5013197930507
30
0
0
VERTEX
8
0
10
102.925128205128
20
57.4391859210957
30
0
0
VERTEX
8
0
10
103.844102564102
20
57.3773705939712
30
0
0
VERTEX
8
0
10
104.763076923077
20
57.3158383540798
30
0
0
VERTEX
8
0
10
105.682051282051
20
57.2545743123928
30
0
0
VERTEX
8
0
10
106.601025641025
20
57.1934766827357
30
0
0
VERTEX
8
0
10
107.52
20
57.1327493321991
30
0
0
VERTEX
8
0
10
108.438974358974
20
57.0723210673326
30
0
0
VERTEX
8
0
10
109.357948717948
20
57.0121875656415
30
0
0
VERTEX
8
0
10
110.276923076923
20
56.9524557180469
30
0
0
VERTEX
8
0
10
111.195897435897
20
56.8931262663166
30
0
0
VERTEX
8
0
10
112.114871794872
20
56.8342500679643
30
0
0
VERTEX
8
0
10
113.033846153846
20
56.7758870367411
30
0
0
VERTEX
8
0
10
113.95282051282
20
56.7181072408475
30
0
0
VERTEX
8
0
10
114.871794871795
20
56.6609926635344
30
0
0
VERTEX
8
0
10
115.790769230769
20
56.6046400689273
30
0
0
VERTEX
8
0
10
116.709743589743
20
56.5491659411005
30
0
0
VERTEX
8
0
10
117.628717948718
20
56.4947158641769
30
0
0
VERTEX
8
0
10
118.547692307692
20
56.4414835356456
30
0
0
VERTEX
8
0
10
119.466666666666
20
56.3897378855267
30
0
0
VERTEX
8
0
10
120.385641025641
20
56.3396718376133
30
0
0
VERTEX
8
0
10
121.304615384615
20
56.2911529829651
30
0
0
VERTEX
8
0
10
122.223589743589
20
56.2439745183433
30
0
0
VERTEX
8
0
10
123.142564102564
20
56.1979944621104
30
0
0
VERTEX
8
0
10
124.061538461538
20
56.1531123303233
30
0
0
VERTEX
8
0
10
124.980512820513
20
56.1092507679427
30
0
0
VERTEX
8
0
10
125.899487179487
20
56.0663468503666
30
0
0
VERTEX
8
0
10
126.818461538461
20
56.0243475146863
30
0
0
VERTEX
8
0
10
127.737435897436
20
55.9832068776488
30
0
0
VERTEX
8
0
10
128.65641025641
20
55.9428845269388
30
0
0
VERTEX
8
0
10
129.575384615384
20
55.9033443649641
30
0
0
VERTEX
8
0
10
130.494358974359
20
55.8645537896275
30
0
0
VERTEX
8
0
10
131.413333333333
20
55.8264830923303
30
0
0
VERTEX
8
0
10
132.332307692307
20
55.7891050023228
30
0
0
VERTEX
8
0
10
133.251282051282
20
55.7523943332533
30
0
0
VERTEX
8
0
10
134.170256410256
20
55.7163277032612
30
0
0
VERTEX
8
0
10
135.08923076923
20
55.6808833093475
30
0
0
VERTEX
8
0
10
136.008205128205
20
55.6460407426944
30
0
0
VERTEX
8
0
10
136.927179487179
20
55.6117808354642
30
0
0
VERTEX
8
0
10
137.846153846153
20
55.5780855322072
30
0
0
VERTEX
8
0
10
138.765128205128
20
55.5449377807885
30
0
0
VERTEX
8
0
10
139.684102564102
20
55.5123214390074
30
0
0
VERTEX
8
0
10
140.603076923077
20
55.4802211939759
30
0
0
VERTEX
8
0
10
141.522051282051
20
55.4486224919889
30
0
0
VERTEX
8
0
10
142.441025641025
20
55.4175114770973
30
0
0
VERTEX
8
0
10
143.36
20
55.3868749369729
30
0
0
VERTEX
8
0
10
144.278974358974
20
55.3567002549243
30
0
0
VERTEX
8
0
10
145.197948717948
20
55.326975367144
30
0
0
VERTEX
8
0
10
146.116923076923
20
55.2976887244357
30
0
0
VERTEX
8
0
10
147.035897435897
20
55.2688292577978
30
0
0
VERTEX
8
0
10
147.954871794871
20
55.2403863473524
30
0
0
VERTEX
8
0
10
148.873846153846
20
55.2123497941854
30
0
0
VERTEX
8
0
10
149.79282051282
20
55.1847097947384
30
0
0
VERTEX
8
0
10
150.711794871795
20
55.1574569174434
30
0
0
VERTEX
8
0
10
151.630769230769
20
55.1305820813417
30
0
0
VERTEX
8
0
10
152.549743589743
20
55.1040765364608
30
0
0
VERTEX
8
0
10
153.468717948718
20
55.0779318457581
30
0
0
VERTEX
8
0
10
154.387692307692
20
55.0521398684669
30
0
0
VERTEX
8
0
10
155.306666666666
20
55.0266927446974
30
0
0
VERTEX
8
0
10
156.225641025641
20
55.0015828811682
30
0
0
VERTEX
8
0
10
157.144615384615
20
54.9768029379597
30
0
0
VERTEX
8
0
10
158.063589743589
20
54.9523458161899
30
0
0
VERTEX
8
0
10
158.982564102564
20
54.9282046465291
30
0
0
VERTEX
8
0
10
159.901538461538
20
54.9043727784779
30
0
0
VERTEX
8
0
10
160.820512820513
20
54.8808437703409
30
0
0
VERTEX
8
0
10
161.739487179487
20
54.8576113798364
30
0
0
VERTEX
8
0
10
162.658461538461
20
54.8346695552897
30
0
0
VERTEX
8
0
10
163.577435897436
20
54.8120124273617
30
0
0
VERTEX
8
0
10
164.49641025641
20
54.7896343012698
30
0
0
VERTEX
8
0
10
165.415384615384
20
54.7675296494636
30
0
0
VERTEX
8
0
10
166.334358974359
20
54.745693104719
30
0
0
VERTEX
8
0
10
167.253333333333
20
54.7241194536198
30
0
0
VERTEX
8
0
10
168.172307692308
20
54.702803630401
30
0
0
VERTEX
8
0
10
169.091282051282
20
54.6817407111231
30
0
0
VERTEX
8
0
10
170.010256410256
20
54.6609259081577
30
0
0
VERTEX
8
0
10
170.929230769231
20
54.6403545649608
30
0
0
VERTEX
8
0
10
171.848205128205
20
54.6200221511162
30
0
0
SEQEND
8
0
0
POLYLINE
8
0
62
4
70
0
10
0
20
0
30
0
0
VERTEX
8
0
10
1.83794871794872
20
11.8260682966075
30
0
0
VERTEX
8
0
10
2.75692307692308
20
15.2132505149665
30
0
0
VERTEX
8
0
10
3.67589743589744
20
18.5922894242912
30
0
0
VERTEX
8
0
10
4.59487179487179
20
21.9390206382288
30
0
0
VERTEX
8
0
10
5.51384615384615
20
25.3547412116275
30
0
0
VERTEX
8
0
10
6.43282051282051
20
28.8046910042999
30
0
0
VERTEX
8
0
10
7.35179487179487
20
32.6423490398444
30
0
0
VERTEX
8
0
10
8.27076923076923
20
35.1689358738783
30
0
0
VERTEX
8
0
10
9.18974358974359
20
37.6993427762704
30
0
0
VERTEX
8
0
10
10.1087179487179
20
40.1235211073315
30
0
0
VERTEX
8
0
10
11.0276923076923
20
42.4632563564998
30
0
0
VERTEX
8
0
10
11.9466666666667
20
44.2752379084144
30
0
0
VERTEX
8
0
10
12.865641025641
20
46.0689208042394
30
0
0
VERTEX
8
0
10
13.7846153846154
20
47.7481266112148
30
0
0
VERTEX
8
0
10
14.7035897435897
20
49.4016995262005
30
0
0
VERTEX
8
0
10
15.6225641025641
20
50.5379648991123
30
0
0
VERTEX
8
0
10
16.5415384615385
20
51.786554474679
30
0
0
VERTEX
8
0
10
17.4605128205128
20
52.8461648435607
30
0
0
VERTEX
8
0
10
18.3794871794872
20
53.885198346311
30
0
0
VERTEX
8
0
10
19.2984615384615
20
54.781837181647
30
0
0
VERTEX
8
0
10
20.2174358974359
20
55.6042865139075
30
0
0
VERTEX
8
0
10
21.1364102564103
20
56.3987472243909
30
0
0
VERTEX
8
0
10
22.0553846153846
20
57.0395918087895
30
0
0
VERTEX
8
0
10
22.974358974359
20
57.679046642648
30
0
0
VERTEX
8
0
10
23.8933333333333
20
58.2058779396551
30
0
0
VERTEX
8
0
10
24.8123076923077
20
58.7086351345613
30
0
0
VERTEX
8
0
10
25.7312820512821
20
59.1216114518041
30
0
0
VERTEX
8
0
10
26.6502564102564
20
59.4846809436156
30
0
0
VERTEX
8
0
10
27.5692307692308
20
59.8274198986219
30
0
0
VERTEX
8
0
10
28.4882051282051
20
60.1309560734069
30
0
0
VERTEX
8
0
10
29.4071794871795
20
60.4200990787674
30
0
0
VERTEX
8
0
10
30.3261538461539
20
60.6162423272204
30
0
0
VERTEX
8
0
10
31.2451282051282
20
60.7896511914396
30
0
0
VERTEX
8
0
10
32.1641025641026
20
60.9427752419837
30
0
0
VERTEX
8
0
10
33.0830769230769
20
61.0775837227971
30
0
0
VERTEX
8
0
10
34.0020512820513
20
61.1988473167687
30
0
0
VERTEX
8
0
10
34.9210256410257
20
61.2362838892385
30
0
0
VERTEX
8
0
10
35.84
20
61.2774954656255
30
0
0
VERTEX
8
0
10
36.7589743589744
20
61.2985932162939
30
0
0
VERTEX
8
0
10
37.6779487179487
20
61.3057083479083
30
0
0
VERTEX
8
0
10
38.5969230769231
20
61.307543865696
30
0
0
VERTEX
8
0
10
39.5158974358974
20
61.2803774563189
30
0
0
VERTEX
8
0
10
40.4348717948718
20
61.2530448763528
30
0
0
VERTEX
8
0
10
41.3538461538461
20
61.2130561974255
30
0
0
VERTEX
8
0
10
42.2728205128205
20
61.1681729193046
30
0
0
VERTEX
8
0
10
43.1917948717949
20
61.1120002549517
30
0
0
VERTEX
8
0
10
44.1107692307692
20
61.0497093802334
30
0
0
VERTEX
8
0
10
45.0297435897436
20
60.9838256417387
30
0
0
VERTEX
8
0
10
45.9487179487179
20
60.9187206455089
30
0
0
VERTEX
8
0
10
46.8676923076923
20
60.8475703129058
30
0
0
VERTEX
8
0
10
47.7866666666666
20
60.7763568313676
30
0
0
VERTEX
8
0
10
48.705641025641
20
60.7031384552699
30
0
0
VERTEX
8
0
10
49.6246153846154
20
60.6280005041923
30
0
0
VERTEX
8
0
10
50.5435897435897
20
60.5537581962411
30
0
0
VERTEX
8
0
10
51.4625641025641
20
60.4774600275396
30
0
0
VERTEX
8
0
10
52.3815384615384
20
60.4127906387805
30
0
0
VERTEX
8
0
10
53.3005128205128
20
60.3424881600033
30
0
0
VERTEX
8
0
10
54.2194871794871
20
60.2725027668219
30
0
0
VERTEX
8
0
10
55.1384615384615
20
60.2004177520663
30
0
0
VERTEX
8
0
10
56.0574358974358
20
60.1246672632527
30
0
0
VERTEX
8
0
10
56.9764102564102
20
60.0459089282707
30
0
0
VERTEX
8
0
10
57.8953846153846
20
59.9651382800578
30
0
0
VERTEX
8
0
10
58.8143589743589
20
59.8869169434597
30
0
0
VERTEX
8
0
10
59.7333333333333
20
59.8068141748638
30
0
0
VERTEX
8
0
10
60.6523076923076
20
59.7247895823741
30
0
0
VERTEX
8
0
10
61.571282051282
20
59.6397597112362
30
0
0
VERTEX
8
0
10
62.4902564102563
20
59.5620655664687
30
0
0
VERTEX
8
0
10
63.4092307692307
20
59.4889257260732
30
0
0
VERTEX
8
0
10
64.328205128205
20
59.4138776643168
30
0
0
VERTEX
8
0
10
65.2471794871794
20
59.3452416308969
30
0
0
VERTEX
8
0
10
66.1661538461537
20
59.273428743038
30
0
0
VERTEX
8
0
10
67.0851282051281
20
59.2035995514393
30
0
0
VERTEX
8
0
10
68.0041025641025
20
59.1327646458332
30
0
0
VERTEX
8
0
10
68.9230769230768
20
59.0601959484844
30
0
0
VERTEX
8
0
10
69.8420512820512
20
58.985961907546
30
0
0
VERTEX
8
0
10
70.7610256410255
20
58.9091665396415
30
0
0
VERTEX
8
0
10
71.6799999999999
20
58.8267501503321
30
0
0
VERTEX
8
0
10
72.5989743589742
20
58.7434430849586
30
0
0
VERTEX
8
0
10
73.5179487179486
20
58.671336478478
30
0
0
VERTEX
8
0
10
74.436923076923
20
58.6029474768219
30
0
0
VERTEX
8
0
10
75.3558974358973
20
58.5331407729084
30
0
0
VERTEX
8
0
10
76.2748717948717
20
58.4769801574583
30
0
0
VERTEX
8
0
10
77.193846153846
20
58.415147571004
30
0
0
VERTEX
8
0
10
78.1128205128204
20
58.3497712043934
30
0
0
VERTEX
8
0
10
79.0317948717947
20
58.2832227062088
30
0
0
VERTEX
8
0
10
79.9507692307691
20
58.2197666510873
30
0
0
VERTEX
8
0
10
80.8697435897435
20
58.1571657672015
30
0
0
VERTEX
8
0
10
81.7887179487178
20
58.0934374716938
30
0
0
VERTEX
8
0
10
82.7076923076922
20
58.0226763909574
30
0
0
VERTEX
8
0
10
83.6266666666665
20
57.9527307101949
30
0
0
VERTEX
8
0
10
84.5456410256409
20
57.8858241688701
30
0
0
VERTEX
8
0
10
85.4646153846152
20
57.8178569351293
30
0
0
VERTEX
8
0
10
86.3835897435896
20
57.7592473753522
30
0
0
VERTEX
8
0
10
87.3025641025639
20
57.7061528810235
30
0
0
VERTEX
8
0
10
88.2215384615383
20
57.652162830783
30
0
0
VERTEX
8
0
10
89.1405128205126
20
57.5973281818146
30
0
0
VERTEX
8
0
10
90.059487179487
20
57.5416981635559
30
0
0
VERTEX
8
0
10
90.9784615384614
20
57.4818182274571
30
0
0
VERTEX
8
0
10
91.8974358974357
20
57.4208227519852
30
0
0
VERTEX
8
0
10
92.8164102564101
20
57.3612729895205
30
0
0
VERTEX
8
0
10
93.7353846153844
20
57.3029640932168
30
0
0
VERTEX
8
0
10
94.6543589743588
20
57.2438517312144
30
0
0
VERTEX
8
0
10
95.5733333333331
20
57.1866634840576
30
0
0
VERTEX
8
0
10
96.4923076923075
20
57.1286349805087
30
0
0
VERTEX
8
0
10
97.4112820512818
20
57.0730837115278
30
0
0
VERTEX
8
0
10
98.3302564102562
20
57.0179655412518
30
0
0
VERTEX
8
0
10
99.2492307692306
20
56.9623983801436
30
0
0
VERTEX
8
0
10
100.168205128205
20
56.9146279998652
30
0
0
VERTEX
8
0
10
101.087179487179
20
56.8638501967403
30
0
0
VERTEX
8
0
10
102.006153846154
20
56.8085753240548
30
0
0
VERTEX
8
0
10
102.925128205128
20
56.7533086332323
30
0
0
VERTEX
8
0
10
103.844102564102
20
56.6990824581812
30
0
0
VERTEX
8
0
10
104.763076923077
20
56.6450319677379
30
0
0
VERTEX
8
0
10
105.682051282051
20
56.590692403994
30
0
0
VERTEX
8
0
10
106.601025641025
20
56.5410578171947
30
0
0
VERTEX
8
0
10
107.52
20
56.4898356220709
30
0
0
VERTEX
8
0
10
108.438974358974
20
56.4383784626507
30
0
0
VERTEX
8
0
10
109.357948717948
20
56.3866816898526
30
0
0
VERTEX
8
0
10
110.276923076923
20
56.3419875904935
30
0
0
VERTEX
8
0
10
111.195897435897
20
56.3007293894539
30
0
0
VERTEX
8
0
10
112.114871794872
20
56.2592751148395
30
0
0
VERTEX
8
0
10
113.033846153846
20
56.2176591178536
30
0
0
VERTEX
8
0
10
113.95282051282
20
56.1759168571322
30
0
0
VERTEX
8
0
10
114.871794871795
20
56.1307482005651
30
0
0
VERTEX
8
0
10
115.790769230769
20
56.0853578462545
30
0
0
VERTEX
8
0
10
116.709743589743
20
56.04203566644
30
0
0
VERTEX
8
0
10
117.628717948718
20
56.0001949339599
30
0
0
VERTEX
8
0
10
118.547692307692
20
55.9584215475425
30
0
0
VERTEX
8
0
10
119.466666666666
20
55.916757412973
30
0
0
VERTEX
8
0
10
120.385641025641
20
55.8752324076994
30
0
0
VERTEX
8
0
10
121.304615384615
20
55.8398467769515
30
0
0
VERTEX
8
0
10
122.223589743589
20
55.8054660683496
30
0
0
VERTEX
8
0
10
123.142564102564
20
55.7694410015259
30
0
0
VERTEX
8
0
10
124.061538461538
20
55.731867602048
30
0
0
VERTEX
8
0
10
124.980512820513
20
55.6944230464677
30
0
0
VERTEX
8
0
10
125.899487179487
20
55.6571075948623
30
0
0
VERTEX
8
0
10
126.818461538461
20
55.6199215070822
30
0
0
VERTEX
8
0
10
127.737435897436
20
55.58553860788
30
0
0
VERTEX
8
0
10
128.65641025641
20
55.5519550745874
30
0
0
VERTEX
8
0
10
129.575384615384
20
55.5184790618106
30
0
0
VERTEX
8
0
10
130.494358974359
20
55.4851107641617
30
0
0
VERTEX
8
0
10
131.413333333333
20
55.4518503760945
30
0
0
VERTEX
8
0
10
132.332307692307
20
55.4222677407524
30
0
0
VERTEX
8
0
10
133.251282051282
20
55.3925127566515
30
0
0
VERTEX
8
0
10
134.170256410256
20
55.3652157792448
30
0
0
VERTEX
8
0
10
135.08923076923
20
55.3389125900428
30
0
0
VERTEX
8
0
10
136.008205128205
20
55.3126790117823
30
0
0
VERTEX
8
0
10
136.927179487179
20
55.2754027476487
30
0
0
VERTEX
8
0
10
137.846153846153
20
55.2412076640566
30
0
0
VERTEX
8
0
10
138.765128205128
20
55.2120100495929
30
0
0
VERTEX
8
0
10
139.684102564102
20
55.1828845799686
30
0
0
VERTEX
8
0
10
140.603076923077
20
55.1655243062373
30
0
0
VERTEX
8
0
10
141.522051282051
20
55.1546141010045
30
0
0
VERTEX
8
0
10
142.441025641025
20
55.1437164810413
30
0
0
VERTEX
8
0
10
143.36
20
55.1328314538106
30
0
0
VERTEX
8
0
10
144.278974358974
20
55.1219590267727
30
0
0
VERTEX
8
0
10
145.197948717948
20
55.1110992073845
30
0
0
VERTEX
8
0
10
146.116923076923
20
55.1002520031012
30
0
0
VERTEX
8
0
10
147.035897435897
20
55.0894174213741
30
0
0
VERTEX
8
0
10
147.954871794871
20
55.0785954696525
30
0
0
VERTEX
8
0
10
148.873846153846
20
55.0677861553823
30
0
0
VERTEX
8
0
10
149.79282051282
20
55.0569894860072
30
0
0
VERTEX
8
0
10
150.711794871795
20
55.0462054689673
30
0
0
VERTEX
8
0
10
151.630769230769
20
55.0354341117003
30
0
0
VERTEX
8
0
10
152.549743589743
20
55.024675421641
30
0
0
VERTEX
8
0
10
153.468717948718
20
55.0139294062207
30
0
0
VERTEX
8
0
10
154.387692307692
20
55.0031960728685
30
0
0
VERTEX
8
0
10
155.306666666666
20
54.9924754290101
30
0
0
VERTEX
8
0
10
156.225641025641
20
54.9817674820683
30
0
0
VERTEX
8
0
10
157.144615384615
20
54.9710722394628
30
0
0
VERTEX
8
0
10
158.063589743589
20
54.9603897086106
30
0
0
VERTEX
8
0
10
158.982564102564
20
54.9497198969251
30
0
0
VERTEX
8
0
10
159.901538461538
20
54.9390628118171
30
0
0
VERTEX
8
0
10
160.820512820513
20
54.9284184606942
30
0
0
VERTEX
8
0
10
161.739487179487
20
54.9177868509607
30
0
0
VERTEX
8
0
10
162.658461538461
20
54.907167990018
30
0
0
VERTEX
8
0
10
163.577435897436
20
54.8965618852641
30
0
0
VERTEX
8
0
10
164.49641025641
20
54.885968544094
30
0
0
VERTEX
8
0
10
165.415384615384
20
54.8753879738996
30
0
0
VERTEX
8
0
10
166.334358974359
20
54.8648201820697
30
0
0
VERTEX
8
0
10
167.253333333333
20
54.8542651759892
30
0
0
VERTEX
8
0
10
168.172307692308
20
54.8437229630403
30
0
0
VERTEX
8
0
10
169.091282051282
20
54.8331935506019
30
0
0
VERTEX
8
0
10
170.010256410256
20
54.8226769460496
30
0
0
VERTEX
8
0
10
170.929230769231
20
54.8121731567554
30
0
0
VERTEX
8
0
10
171.848205128205
20
54.8016821900882
30
0
0
SEQEND
8
0
0
POLYLINE
8
0
62
2
70
0
10
0
20
0
30
0
0
VERTEX
8
0
10
1.83794871794872
20
4.0943798530078
30
0
0
VERTEX
8
0
10
2.75692307692308
20
4.01282129638917
30
0
0
VERTEX
8
0
10
3.67589743589744
20
2.99165881191903
30
0
0
VERTEX
8
0
10
4.59487179487179
20
6.4016048372016
30
0
0
VERTEX
8
0
10
5.51384615384615
20
5.31669036463014
30
0
0
VERTEX
8
0
10
6.43282051282051
20
5.60457762748491
30
0
0
VERTEX
8
0
10
7.35179487179487
20
7.96887621144252
30
0
0
VERTEX
8
0
10
8.27076923076923
20
6.69329421563269
30
0
0
VERTEX
8
0
10
9.18974358974359
20
7.72631938712172
30
0
0
VERTEX
8
0
10
10.1087179487179
20
8.24586684972163
30
0
0
VERTEX
8
0
10
11.0276923076923
20
8.63134394872998
30
0
0
VERTEX
8
0
10
11.9466666666667
20
9.53907921452229
30
0
0
VERTEX
8
0
10
12.865641025641
20
9.94460160384778
30
0
0
VERTEX
8
0
10
13.7846153846154
20
10.3641934211612
30
0
0
VERTEX
8
0
10
14.7035897435897
20
11.1710449744713
30
0
0
VERTEX
8
0
10
15.6225641025641
20
11.5116274629645
30
0
0
VERTEX
8
0
10
16.5415384615385
20
11.942077576142
30
0
0
VERTEX
8
0
10
17.4605128205128
20
12.6700484902833
30
0
0
VERTEX
8
0
10
18.3794871794872
20
12.9660032153258
30
0
0
VERTEX
8
0
10
19.2984615384615
20
13.3949669226235
30
0
0
VERTEX
8
0
10
20.2174358974359
20
14.0579898676115
30
0
0
VERTEX
8
0
10
21.1364102564103
20
14.3194629756029
30
0
0
VERTEX
8
0
10
22.0553846153846
20
14.7404049564316
30
0
0
VERTEX
8
0
10
22.974358974359
20
15.3477716201688
30
0
0
VERTEX
8
0
10
23.8933333333333
20
15.5665896128687
30
0
0
VERTEX
8
0
10
24.8123076923077
20
15.9898292770657
30
0
0
VERTEX
8
0
10
25.7312820512821
20
16.3736185302985
30
0
0
VERTEX
8
0
10
26.6502564102564
20
16.7404829091389
30
0
0
VERTEX
8
0
10
27.5692307692308
20
17.1513692596609
30
0
0
VERTEX
8
0
10
28.4882051282051
20
17.4952937249123
30
0
0
VERTEX
8
0
10
29.4071794871795
20
17.8376810068434
30
0
0
VERTEX
8
0
10
30.3261538461539
20
18.2311437121366
30
0
0
VERTEX
8
0
10
31.2451282051282
20
18.5397156520471
30
0
0
VERTEX
8
0
10
32.1641025641026
20
18.8606762435935
30
0
0
VERTEX
8
0
10
33.0830769230769
20
19.2339360543301
30
0
0
VERTEX
8
0
10
34.0020512820513
20
19.5106574710636
30
0
0
VERTEX
8
0
10
34.9210256410257
20
19.8120236324462
30
0
0
VERTEX
8
0
10
35.84
20
20.1635820234938
30
0
0
VERTEX
8
0
10
36.7589743589744
20
20.4112410636805
30
0
0
VERTEX
8
0
10
37.6779487179487
20
20.6941130883388
30
0
0
VERTEX
8
0
10
38.5969230769231
20
21.0232091383299
30
0
0
VERTEX
8
0
10
39.5158974358974
20
21.245897129463
30
0
0
VERTEX
8
0
10
40.4348717948718
20
21.5090884906445
30
0
0
VERTEX
8
0
10
41.3538461538461
20
21.7627303832322
30
0
0
VERTEX
8
0
10
42.2728205128205
20
22.0102501874883
30
0
0
VERTEX
8
0
10
43.1917948717949
20
22.2588254639432
30
0
0
VERTEX
8
0
10
44.1107692307692
20
22.4872723276853
30
0
0
VERTEX
8
0
10
45.0297435897436
20
22.7125371668568
30
0
0
VERTEX
8
0
10
45.9487179487179
20
22.9449307007002
30
0
0
VERTEX
8
0
10
46.8676923076923
20
23.1490589962538
30
0
0
VERTEX
8
0
10
47.7866666666666
20
23.3536395687015
30
0
0
VERTEX
8
0
10
48.705641025641
20
23.5687459123814
30
0
0
VERTEX
8
0
10
49.6246153846154
20
23.7493740683904
30
0
0
VERTEX
8
0
10
50.5435897435897
20
23.93433225982
30
0
0
VERTEX
8
0
10
51.4625641025641
20
24.131347506636
30
0
0
VERTEX
8
0
10
52.3815384615384
20
24.2892096849989
30
0
0
VERTEX
8
0
10
53.3005128205128
20
24.4552264003857
30
0
0
VERTEX
8
0
10
54.2194871794871
20
24.633535546732
30
0
0
VERTEX
8
0
10
55.1384615384615
20
24.7725437243636
30
0
0
VERTEX
8
0
10
56.0574358974358
20
24.9167146132317
30
0
0
VERTEX
8
0
10
56.9764102564102
20
25.0562747263585
30
0
0
VERTEX
8
0
10
57.8953846153846
20
25.1912313964535
30
0
0
VERTEX
8
0
10
58.8143589743589
20
25.3189019745538
30
0
0
VERTEX
8
0
10
59.7333333333333
20
25.437300438746
30
0
0
VERTEX
8
0
10
60.6523076923076
20
25.5513068536529
30
0
0
VERTEX
8
0
10
61.571282051282
20
25.6615011265431
30
0
0
VERTEX
8
0
10
62.4902564102563
20
25.7585641832908
30
0
0
VERTEX
8
0
10
63.4092307692307
20
25.8519562108178
30
0
0
VERTEX
8
0
10
64.328205128205
20
25.9436528124193
30
0
0
VERTEX
8
0
10
65.2471794871794
20
26.0190095750499
30
0
0
VERTEX
8
0
10
66.1661538461537
20
26.0916326155757
30
0
0
VERTEX
8
0
10
67.0851282051281
20
26.1635876905618
30
0
0
VERTEX
8
0
10
68.0041025641025
20
26.2164726776455
30
0
0
VERTEX
8
0
10
68.9230769230768
20
26.2674985010004
30
0
0
VERTEX
8
0
10
69.8420512820512
20
26.3179124646659
30
0
0
VERTEX
8
0
10
70.7610256410255
20
26.349327973861
30
0
0
VERTEX
8
0
10
71.6799999999999
20
26.3741358315386
30
0
0
VERTEX
8
0
10
72.5989743589742
20
26.3922674352064
30
0
0
VERTEX
8
0
10
73.5179487179486
20
26.4023911949385
30
0
0
VERTEX
8
0
10
74.436923076923
20
26.3997180837585
30
0
0
VERTEX
8
0
10
75.3558974358973
20
26.3848743841951
30
0
0
VERTEX
8
0
10
76.2748717948717
20
26.3561954628307
30
0
0
VERTEX
8
0
10
77.193846153846
20
26.3062140593827
30
0
0
VERTEX
8
0
10
78.1128205128204
20
26.2213665233581
30
0
0
VERTEX
8
0
10
79.0317948717947
20
26.1356637688131
30
0
0
VERTEX
8
0
10
79.9507692307691
20
26.0790172275125
30
0
0
VERTEX
8
0
10
80.8697435897435
20
26.0344034127
30
0
0
VERTEX
8
0
10
81.7887179487178
20
26.0002953575174
30
0
0
VERTEX
8
0
10
82.7076923076922
20
25.9741086941751
30
0
0
VERTEX
8
0
10
83.6266666666665
20
25.9473897136613
30
0
0
VERTEX
8
0
10
84.5456410256409
20
25.9255602663142
30
0
0
VERTEX
8
0
10
85.4646153846152
20
25.9083690109784
30
0
0
VERTEX
8
0
10
86.3835897435896
20
25.8886573274165
30
0
0
VERTEX
8
0
10
87.3025641025639
20
25.8687105384826
30
0
0
VERTEX
8
0
10
88.2215384615383
20
25.8507946962949
30
0
0
VERTEX
8
0
10
89.1405128205126
20
25.8340044121569
30
0
0
VERTEX
8
0
10
90.059487179487
20
25.8148167544953
30
0
0
VERTEX
8
0
10
90.9784615384614
20
25.795792423481
30
0
0
VERTEX
8
0
10
91.8974358974357
20
25.7768472070744
30
0
0
VERTEX
8
0
10
92.8164102564101
20
25.7561285924252
30
0
0
VERTEX
8
0
10
93.7353846153844
20
25.7341400603584
30
0
0
VERTEX
8
0
10
94.6543589743588
20
25.7116663424774
30
0
0
VERTEX
8
0
10
95.5733333333331
20
25.6879294919224
30
0
0
VERTEX
8
0
10
96.4923076923075
20
25.6617768408368
30
0
0
VERTEX
8
0
10
97.4112820512818
20
25.6348812504264
30
0
0
VERTEX
8
0
10
98.3302564102562
20
25.6070904167727
30
0
0
VERTEX
8
0
10
99.2492307692306
20
25.5759570188498
30
0
0
VERTEX
8
0
10
100.168205128205
20
25.5440232187262
30
0
0
VERTEX
8
0
10
101.087179487179
20
25.5114261346662
30
0
0
VERTEX
8
0
10
102.006153846154
20
25.4759970943696
30
0
0
VERTEX
8
0
10
102.925128205128
20
25.4373273253552
30
0
0
VERTEX
8
0
10
103.844102564102
20
25.3980017683239
30
0
0
VERTEX
8
0
10
104.763076923077
20
25.3575164666076
30
0
0
VERTEX
8
0
10
105.682051282051
20
25.313508285547
30
0
0
VERTEX
8
0
10
106.601025641025
20
25.2682016630344
30
0
0
VERTEX
8
0
10
107.52
20
25.2213516407352
30
0
0
VERTEX
8
0
10
108.438974358974
20
25.1716283505128
30
0
0
VERTEX
8
0
10
109.357948717948
20
25.1200618115365
30
0
0
VERTEX
8
0
10
110.276923076923
20
25.0667366612587
30
0
0
VERTEX
8
0
10
111.195897435897
20
25.0110160901429
30
0
0
VERTEX
8
0
10
112.114871794872
20
24.9530015420234
30
0
0
VERTEX
8
0
10
113.033846153846
20
24.8931368920533
30
0
0
VERTEX
8
0
10
113.95282051282
20
24.8312157564014
30
0
0
VERTEX
8
0
10
114.871794871795
20
24.7666409366141
30
0
0
VERTEX
8
0
10
115.790769230769
20
24.7002122969179
30
0
0
VERTEX
8
0
10
116.709743589743
20
24.6319565411402
30
0
0
VERTEX
8
0
10
117.628717948718
20
24.5614804811811
30
0
0
VERTEX
8
0
10
118.547692307692
20
24.4877963777826
30
0
0
VERTEX
8
0
10
119.466666666666
20
24.4126691937458
30
0
0
VERTEX
8
0
10
120.385641025641
20
24.3358035223605
30
0
0
VERTEX
8
0
10
121.304615384615
20
24.2558869152445
30
0
0
VERTEX
8
0
10
122.223589743589
20
24.1742836565947
30
0
0
VERTEX
8
0
10
123.142564102564
20
24.0907807410296
30
0
0
VERTEX
8
0
10
124.061538461538
20
24.004646593494
30
0
0
VERTEX
8
0
10
124.980512820513
20
23.9166441869296
30
0
0
VERTEX
8
0
10
125.899487179487
20
23.8266816069681
30
0
0
VERTEX
8
0
10
126.818461538461
20
23.7344129091108
30
0
0
VERTEX
8
0
10
127.737435897436
20
23.6401591726852
30
0
0
VERTEX
8
0
10
128.65641025641
20
23.5439630807657
30
0
0
VERTEX
8
0
10
129.575384615384
20
23.4457178400458
30
0
0
VERTEX
8
0
10
130.494358974359
20
23.3454384635204
30
0
0
VERTEX
8
0
10
131.413333333333
20
23.2432964790054
30
0
0
VERTEX
8
0
10
132.332307692307
20
23.1393188494593
30
0
0
VERTEX
8
0
10
133.251282051282
20
23.0336083008845
30
0
0
VERTEX
8
0
10
134.170256410256
20
22.9256074708045
30
0
0
VERTEX
8
0
10
135.08923076923
20
22.8161420565103
30
0
0
VERTEX
8
0
10
136.008205128205
20
22.7051260402735
30
0
0
VERTEX
8
0
10
136.927179487179
20
22.5921334245416
30
0
0
VERTEX
8
0
10
137.846153846153
20
22.4777478413065
30
0
0
VERTEX
8
0
10
138.765128205128
20
22.3619281836829
30
0
0
VERTEX
8
0
10
139.684102564102
20
22.2445051996882
30
0
0
VERTEX
8
0
10
140.603076923077
20
22.1258436508037
30
0
0
VERTEX
8
0
10
141.522051282051
20
22.005964979488
30
0
0
VERTEX
8
0
10
142.441025641025
20
21.8848656952992
30
0
0
VERTEX
8
0
10
143.36
20
21.7627832201885
30
0
0
VERTEX
8
0
10
144.278974358974
20
21.6398090341414
30
0
0
VERTEX
8
0
10
145.197948717948
20
21.5160480614565
30
0
0
VERTEX
8
0
10
146.116923076923
20
21.3916885883006
30
0
0
VERTEX
8
0
10
147.035897435897
20
21.2668969423492
30
0
0
VERTEX
8
0
10
147.954871794871
20
21.1418611196103
30
0
0
VERTEX
8
0
10
148.873846153846
20
21.0168237423373
30
0
0
VERTEX
8
0
10
149.79282051282
20
20.8919423376581
30
0
0
VERTEX
8
0
10
150.711794871795
20
20.7675946113839
30
0
0
VERTEX
8
0
10
151.630769230769
20
20.6440821141509
30
0
0
VERTEX
8
0
10
152.549743589743
20
20.5217641725916
30
0
0
VERTEX
8
0
10
153.468717948718
20
20.4011452436947
30
0
0
VERTEX
8
0
10
154.387692307692
20
20.2828165274534
30
0
0
VERTEX
8
0
10
155.306666666666
20
20.1675792376942
30
0
0
VERTEX
8
0
10
156.225641025641
20
20.0564597380159
30
0
0
VERTEX
8
0
10
157.144615384615
20
19.950142681216
30
0
0
VERTEX
8
0
10
158.063589743589
20
19.8482654164586
30
0
0
VERTEX
8
0
10
158.982564102564
20
19.7501000920697
30
0
0
VERTEX
8
0
10
159.901538461538
20
19.655094082429
30
0
0
VERTEX
8
0
10
160.820512820513
20
19.5628599424062
30
0
0
VERTEX
8
0
10
161.739487179487
20
19.473110777267
30
0
0
VERTEX
8
0
10
162.658461538461
20
19.3856227175818
30
0
0
VERTEX
8
0
10
163.577435897436
20
19.3002143035869
30
0
0
VERTEX
8
0
10
164.49641025641
20
19.216734338085
30
0
0
VERTEX
8
0
10
165.415384615384
20
19.1350541962657
30
0
0
VERTEX
8
0
10
166.334358974359
20
19.0550626684211
30
0
0
VERTEX
8
0
10
167.253333333333
20
18.9766623421653
30
0
0
VERTEX
8
0
10
168.172307692308
20
18.8997669724068
30
0
0
VERTEX
8
0
10
169.091282051282
20
18.8242995132546
30
0
0
VERTEX
8
0
10
170.010256410256
20
18.7501906095617
30
0
0
VERTEX
8
0
10
170.929230769231
20
18.6773774172136
30
0
0
VERTEX
8
0
10
171.848205128205
20
18.605802664494
30
0
0
SEQEND
8
0
0
POLYLINE
8
0
62
3
70
0
10
0
20
0
30
0
0
VERTEX
8
0
10
1.83794871794872
20
4.36636045849647
30
0
0
VERTEX
8
0
10
2.75692307692308
20
4.60973894136439
30
0
0
VERTEX
8
0
10
3.67589743589744
20
4.24406231869199
30
0
0
VERTEX
8
0
10
4.59487179487179
20
7.41300441600333
30
0
0
VERTEX
8
0
10
5.51384615384615
20
6.94491591923754
30
0
0
VERTEX
8
0
10
6.43282051282051
20
7.63675953105299
30
0
0
VERTEX
8
0
10
7.35179487179487
20
9.91018924864519
30
0
0
VERTEX
8
0
10
8.27076923076923
20
9.40937231664205
30
0
0
VERTEX
8
0
10
9.18974358974359
20
10.6279495140171
30
0
0
VERTEX
8
0
10
10.1087179487179
20
11.4804274722632
30
0
0
VERTEX
8
0
10
11.0276923076923
20
12.2401975078539
30
0
0
VERTEX
8
0
10
11.9466666666667
20
13.3515290762671
30
0
0
VERTEX
8
0
10
12.865641025641
20
14.1112613537409
30
0
0
VERTEX
8
0
10
13.7846153846154
20
14.8810195427878
30
0
0
VERTEX
8
0
10
14.7035897435897
20
15.9038393310939
30
0
0
VERTEX
8
0
10
15.6225641025641
20
16.6068134558226
30
0
0
VERTEX
8
0
10
16.5415384615385
20
17.36899712701
30
0
0
VERTEX
8
0
10
17.4605128205128
20
18.3200528078999
30
0
0
VERTEX
8
0
10
18.3794871794872
20
18.9806292754396
30
0
0
VERTEX
8
0
10
19.2984615384615
20
19.7259884546591
30
0
0
VERTEX
8
0
10
20.2174358974359
20
20.615882073615
30
0
0
VERTEX
8
0
10
21.1364102564103
20
21.2409443917256
30
0
0
VERTEX
8
0
10
22.0553846153846
20
21.9646322072725
30
0
0
VERTEX
8
0
10
22.974358974359
20
22.8004186208243
30
0
0
VERTEX
8
0
10
23.8933333333333
20
23.3920328546881
30
0
0
VERTEX
8
0
10
24.8123076923077
20
24.0930914476225
30
0
0
VERTEX
8
0
10
25.7312820512821
20
24.7717154857124
30
0
0
VERTEX
8
0
10
26.6502564102564
20
25.4394554359056
30
0
0
VERTEX
8
0
10
27.5692307692308
20
26.1171416209132
30
0
0
VERTEX
8
0
10
28.4882051282051
20
26.7554125479792
30
0
0
VERTEX
8
0
10
29.4071794871795
20
27.3902456501232
30
0
0
VERTEX
8
0
10
30.3261538461539
20
28.0411355465167
30
0
0
VERTEX
8
0
10
31.2451282051282
20
28.6421618619602
30
0
0
VERTEX
8
0
10
32.1641025641026
20
29.246213711505
30
0
0
VERTEX
8
0
10
33.0830769230769
20
29.8685035276685
30
0
0
VERTEX
8
0
10
34.0020512820513
20
30.4346660690963
30
0
0
VERTEX
8
0
10
34.9210256410257
20
31.0092540852001
30
0
0
VERTEX
8
0
10
35.84
20
31.6020395310717
30
0
0
VERTEX
8
0
10
36.7589743589744
20
32.1352133281635
30
0
0
VERTEX
8
0
10
37.6779487179487
20
32.6811844955436
30
0
0
VERTEX
8
0
10
38.5969230769231
20
33.2440777410252
30
0
0
VERTEX
8
0
10
39.5158974358974
20
33.7532804285961
30
0
0
VERTEX
8
0
10
40.4348717948718
20
34.263691554748
30
0
0
VERTEX
8
0
10
41.3538461538461
20
34.7703412274945
30
0
0
VERTEX
8
0
10
42.2728205128205
20
35.2723642546408
30
0
0
VERTEX
8
0
10
43.1917948717949
20
35.7583188785213
30
0
0
VERTEX
8
0
10
44.1107692307692
20
36.2346321220836
30
0
0
VERTEX
8
0
10
45.0297435897436
20
36.7058866265828
30
0
0
VERTEX
8
0
10
45.9487179487179
20
37.166471079675
30
0
0
VERTEX
8
0
10
46.8676923076923
20
37.6130768953586
30
0
0
VERTEX
8
0
10
47.7866666666666
20
38.054791263004
30
0
0
VERTEX
8
0
10
48.705641025641
20
38.4894218669843
30
0
0
VERTEX
8
0
10
49.6246153846154
20
38.9069190074109
30
0
0
VERTEX
8
0
10
50.5435897435897
20
39.3200053303859
30
0
0
VERTEX
8
0
10
51.4625641025641
20
39.728320399309
30
0
0
VERTEX
8
0
10
52.3815384615384
20
40.1172641006748
30
0
0
VERTEX
8
0
10
53.3005128205128
20
40.5024069167546
30
0
0
VERTEX
8
0
10
54.2194871794871
20
40.8841920551405
30
0
0
VERTEX
8
0
10
55.1384615384615
20
41.2519709903694
30
0
0
VERTEX
8
0
10
56.0574358974358
20
41.6027969606134
30
0
0
VERTEX
8
0
10
56.9764102564102
20
41.9515334621447
30
0
0
VERTEX
8
0
10
57.8953846153846
20
42.2957982301598
30
0
0
VERTEX
8
0
10
58.8143589743589
20
42.6218655947036
30
0
0
VERTEX
8
0
10
59.7333333333333
20
42.9435717587773
30
0
0
VERTEX
8
0
10
60.6523076923076
20
43.2592087774383
30
0
0
VERTEX
8
0
10
61.571282051282
20
43.560140630423
30
0
0
VERTEX
8
0
10
62.4902564102563
20
43.8548825224167
30
0
0
VERTEX
8
0
10
63.4092307692307
20
44.1424623648384
30
0
0
VERTEX
8
0
10
64.328205128205
20
44.4178970881238
30
0
0
VERTEX
8
0
10
65.2471794871794
20
44.6856590074476
30
0
0
VERTEX
8
0
10
66.1661538461537
20
44.9454893103276
30
0
0
VERTEX
8
0
10
67.0851282051281
20
45.1949823631169
30
0
0
VERTEX
8
0
10
68.0041025641025
20
45.435561754076
30
0
0
VERTEX
8
0
10
68.9230769230768
20
45.6675967203628
30
0
0
VERTEX
8
0
10
69.8420512820512
20
45.8904399429636
30
0
0
VERTEX
8
0
10
70.7610256410255
20
46.1081532983512
30
0
0
VERTEX
8
0
10
71.6799999999999
20
46.3067810523869
30
0
0
VERTEX
8
0
10
72.5989743589742
20
46.5009676265783
30
0
0
VERTEX
8
0
10
73.5179487179486
20
46.6882646023573
30
0
0
VERTEX
8
0
10
74.436923076923
20
46.8576669514406
30
0
0
VERTEX
8
0
10
75.3558974358973
20
47.0199320025949
30
0
0
VERTEX
8
0
10
76.2748717948717
20
47.170989526367
30
0
0
VERTEX
8
0
10
77.193846153846
20
47.3007487551672
30
0
0
VERTEX
8
0
10
78.1128205128204
20
47.4113870602533
30
0
0
VERTEX
8
0
10
79.0317948717947
20
47.5185046430496
30
0
0
VERTEX
8
0
10
79.9507692307691
20
47.6353428578466
30
0
0
VERTEX
8
0
10
80.8697435897435
20
47.761210375262
30
0
0
VERTEX
8
0
10
81.7887179487178
20
47.8896190212523
30
0
0
VERTEX
8
0
10
82.7076923076922
20
48.0165846083832
30
0
0
VERTEX
8
0
10
83.6266666666665
20
48.1457551633963
30
0
0
VERTEX
8
0
10
84.5456410256409
20
48.2734015752238
30
0
0
VERTEX
8
0
10
85.4646153846152
20
48.3983516561869
30
0
0
VERTEX
8
0
10
86.3835897435896
20
48.5269571118662
30
0
0
VERTEX
8
0
10
87.3025641025639
20
48.6456274980293
30
0
0
VERTEX
8
0
10
88.2215384615383
20
48.7658178605135
30
0
0
VERTEX
8
0
10
89.1405128205126
20
48.8858424372213
30
0
0
VERTEX
8
0
10
90.059487179487
20
48.9978526801072
30
0
0
VERTEX
8
0
10
90.9784615384614
20
49.1105866510957
30
0
0
VERTEX
8
0
10
91.8974358974357
20
49.2216976939933
30
0
0
VERTEX
8
0
10
92.8164102564101
20
49.325792478335
30
0
0
VERTEX
8
0
10
93.7353846153844
20
49.430028276973
30
0
0
VERTEX
8
0
10
94.6543589743588
20
49.5315595216286
30
0
0
VERTEX
8
0
10
95.5733333333331
20
49.6269678060326
30
0
0
VERTEX
8
0
10
96.4923076923075
20
49.7220624515451
30
0
0
VERTEX
8
0
10
97.4112820512818
20
49.8136454876999
30
0
0
VERTEX
8
0
10
98.3302564102562
20
49.8998788778486
30
0
0
VERTEX
8
0
10
99.2492307692306
20
49.9854321712012
30
0
0
VERTEX
8
0
10
100.168205128205
20
50.0668799772289
30
0
0
VERTEX
8
0
10
101.087179487179
20
50.1436358308015
30
0
0
VERTEX
8
0
10
102.006153846154
20
50.2217143277421
30
0
0
VERTEX
8
0
10
102.925128205128
20
50.2906595275175
30
0
0
VERTEX
8
0
10
103.844102564102
20
50.3588850941035
30
0
0
VERTEX
8
0
10
104.763076923077
20
50.4253008501267
30
0
0
VERTEX
8
0
10
105.682051282051
20
50.4847239092899
30
0
0
VERTEX
8
0
10
106.601025641025
20
50.5432477539351
30
0
0
VERTEX
8
0
10
107.52
20
50.5992070873249
30
0
0
VERTEX
8
0
10
108.438974358974
20
50.6490804503595
30
0
0
VERTEX
8
0
10
109.357948717948
20
50.6978964310677
30
0
0
VERTEX
8
0
10
110.276923076923
20
50.7435846698606
30
0
0
VERTEX
8
0
10
111.195897435897
20
50.7839579462742
30
0
0
VERTEX
8
0
10
112.114871794872
20
50.8231361044668
30
0
0
VERTEX
8
0
10
113.033846153846
20
50.8587872466222
30
0
0
VERTEX
8
0
10
113.95282051282
20
50.8897783989439
30
0
0
VERTEX
8
0
10
114.871794871795
20
50.9194569733638
30
0
0
VERTEX
8
0
10
115.790769230769
20
50.9453502917283
30
0
0
VERTEX
8
0
10
116.709743589743
20
50.9671403054603
30
0
0
VERTEX
8
0
10
117.628717948718
20
50.9888204877051
30
0
0
VERTEX
8
0
10
118.547692307692
20
51.0039799230599
30
0
0
VERTEX
8
0
10
119.466666666666
20
51.0176005203545
30
0
0
VERTEX
8
0
10
120.385641025641
20
51.0290559171467
30
0
0
VERTEX
8
0
10
121.304615384615
20
51.035548306409
30
0
0
VERTEX
8
0
10
122.223589743589
20
51.0404895212532
30
0
0
VERTEX
8
0
10
123.142564102564
20
51.0429396217932
30
0
0
VERTEX
8
0
10
124.061538461538
20
51.0410942701706
30
0
0
VERTEX
8
0
10
124.980512820513
20
51.0376956504544
30
0
0
VERTEX
8
0
10
125.899487179487
20
51.0316199410204
30
0
0
VERTEX
8
0
10
126.818461538461
20
51.0218284221736
30
0
0
VERTEX
8
0
10
127.737435897436
20
51.010496165445
30
0
0
VERTEX
8
0
10
128.65641025641
20
50.9964232678204
30
0
0
VERTEX
8
0
10
129.575384615384
20
50.9791425471362
30
0
0
VERTEX
8
0
10
130.494358974359
20
50.960352881395
30
0
0
VERTEX
8
0
10
131.413333333333
20
50.9388663292058
30
0
0
VERTEX
8
0
10
132.332307692307
20
50.9146234996186
30
0
0
VERTEX
8
0
10
133.251282051282
20
50.8894409139837
30
0
0
VERTEX
8
0
10
134.170256410256
20
50.8606733823516
30
0
0
VERTEX
8
0
10
135.08923076923
20
50.8304081719751
30
0
0
VERTEX
8
0
10
136.008205128205
20
50.7984262709974
30
0
0
VERTEX
8
0
10
136.927179487179
20
50.7637994820715
30
0
0
VERTEX
8
0
10
137.846153846153
20
50.7278211653638
30
0
0
VERTEX
8
0
10
138.765128205128
20
50.6902015546289
30
0
0
VERTEX
8
0
10
139.684102564102
20
50.6504619822778
30
0
0
VERTEX
8
0
10
140.603076923077
20
50.6095495708952
30
0
0
VERTEX
8
0
10
141.522051282051
20
50.567179798303
30
0
0
VERTEX
8
0
10
142.441025641025
20
50.5231843014738
30
0
0
VERTEX
8
0
10
143.36
20
50.478238740115
30
0
0
VERTEX
8
0
10
144.278974358974
20
50.4321200004227
30
0
0
VERTEX
8
0
10
145.197948717948
20
50.3848598848155
30
0
0
VERTEX
8
0
10
146.116923076923
20
50.3369320665194
30
0
0
VERTEX
8
0
10
147.035897435897
20
50.2882130676254
30
0
0
VERTEX
8
0
10
147.954871794871
20
50.2388536058301
30
0
0
VERTEX
8
0
10
148.873846153846
20
50.1892510180618
30
0
0
VERTEX
8
0
10
149.79282051282
20
50.1392291881029
30
0
0
VERTEX
8
0
10
150.711794871795
20
50.0892121551643
30
0
0
VERTEX
8
0
10
151.630769230769
20
50.0393521762304
30
0
0
VERTEX
8
0
10
152.549743589743
20
49.9898200406839
30
0
0
VERTEX
8
0
10
153.468717948718
20
49.9409420853099
30
0
0
VERTEX
8
0
10
154.387692307692
20
49.8930021047837
30
0
0
VERTEX
8
0
10
155.306666666666
20
49.8463847219433
30
0
0
VERTEX
8
0
10
156.225641025641
20
49.8015660827935
30
0
0
VERTEX
8
0
10
157.144615384615
20
49.7588509645743
30
0
0
VERTEX
8
0
10
158.063589743589
20
49.7180931168829
30
0
0
VERTEX
8
0
10
158.982564102564
20
49.6789855730103
30
0
0
VERTEX
8
0
10
159.901538461538
20
49.6412920726612
30
0
0
VERTEX
8
0
10
160.820512820513
20
49.6048449705069
30
0
0
VERTEX
8
0
10
161.739487179487
20
49.5695188476427
30
0
0
VERTEX
8
0
10
162.658461538461
20
49.5352149848393
30
0
0
VERTEX
8
0
10
163.577435897436
20
49.5018527694728
30
0
0
VERTEX
8
0
10
164.49641025641
20
49.4693646014052
30
0
0
VERTEX
8
0
10
165.415384615384
20
49.4376926498421
30
0
0
VERTEX
8
0
10
166.334358974359
20
49.4067866668506
30
0
0
VERTEX
8
0
10
167.253333333333
20
49.3766024458426
30
0
0
VERTEX
8
0
10
168.172307692308
20
49.3471006955576
30
0
0
VERTEX
8
0
10
169.091282051282
20
49.3182461935838
30
0
0
VERTEX
8
0
10
170.010256410256
20
49.2900071347238
30
0
0
VERTEX
8
0
10
170.929230769231
20
49.2623546192352
30
0
0
VERTEX
8
0
10
171.848205128205
20
49.2352622440089
30
0
0
SEQEND
8
0
0
POLYLINE
8
0
62
4
70
0
10
0
20
0
30
0
0
VERTEX
8
0
10
1.83794871794872
20
2.26217385733378
30
0
0
VERTEX
8
0
10
2.75692307692308
20
3.03723642933637
30
0
0
VERTEX
8
0
10
3.67589743589744
20
3.82547868882753
30
0
0
VERTEX
8
0
10
4.59487179487179
20
4.61210981864733
30
0
0
VERTEX
8
0
10
5.51384615384615
20
5.40593881066248
30
0
0
VERTEX
8
0
10
6.43282051282051
20
6.19364114504568
30
0
0
VERTEX
8
0
10
7.35179487179487
20
7.03684182782174
30
0
0
VERTEX
8
0
10
8.27076923076923
20
7.91308089913986
30
0
0
VERTEX
8
0
10
9.18974358974359
20
8.75811777824229
30
0
0
VERTEX
8
0
10
10.1087179487179
20
9.69590328472435
30
0
0
VERTEX
8
0
10
11.0276923076923
20
10.6095289362589
30
0
0
VERTEX
8
0
10
11.9466666666667
20
11.5834764169101
30
0
0
VERTEX
8
0
10
12.865641025641
20
12.5610858614031
30
0
0
VERTEX
8
0
10
13.7846153846154
20
13.5352857195036
30
0
0
VERTEX
8
0
10
14.7035897435897
20
14.4902869534024
30
0
0
VERTEX
8
0
10
15.6225641025641
20
15.4535478403279
30
0
0
VERTEX
8
0
10
16.5415384615385
20
16.3839027762676
30
0
0
VERTEX
8
0
10
17.4605128205128
20
17.3054134147349
30
0
0
VERTEX
8
0
10
18.3794871794872
20
18.1426157071668
30
0
0
VERTEX
8
0
10
19.2984615384615
20
18.9715365563469
30
0
0
VERTEX
8
0
10
20.2174358974359
20
19.7450826353049
30
0
0
VERTEX
8
0
10
21.1364102564103
20
20.5040496099157
30
0
0
VERTEX
8
0
10
22.0553846153846
20
21.2525144253248
30
0
0
VERTEX
8
0
10
22.974358974359
20
21.9148043565255
30
0
0
VERTEX
8
0
10
23.8933333333333
20
22.6100922324707
30
0
0
VERTEX
8
0
10
24.8123076923077
20
23.2474205581435
30
0
0
VERTEX
8
0
10
25.7312820512821
20
23.8864144876654
30
0
0
VERTEX
8
0
10
26.6502564102564
20
24.5051351581699
30
0
0
VERTEX
8
0
10
27.5692307692308
20
25.0885466961299
30
0
0
VERTEX
8
0
10
28.4882051282051
20
25.6771967000746
30
0
0
VERTEX
8
0
10
29.4071794871795
20
26.2605311193772
30
0
0
VERTEX
8
0
10
30.3261538461539
20
26.8268463685124
30
0
0
VERTEX
8
0
10
31.2451282051282
20
27.4011575487503
30
0
0
VERTEX
8
0
10
32.1641025641026
20
27.9707366691728
30
0
0
VERTEX
8
0
10
33.0830769230769
20
28.5243159214122
30
0
0
VERTEX
8
0
10
34.0020512820513
20
29.0842873351217
30
0
0
VERTEX
8
0
10
34.9210256410257
20
29.636488699255
30
0
0
VERTEX
8
0
10
35.84
20
30.179892732411
30
0
0
VERTEX
8
0
10
36.7589743589744
20
30.7295572660229
30
0
0
VERTEX
8
0
10
37.6779487179487
20
31.272854240679
30
0
0
VERTEX
8
0
10
38.5969230769231
20
31.8043436160925
30
0
0
VERTEX
8
0
10
39.5158974358974
20
32.3498623769422
30
0
0
VERTEX
8
0
10
40.4348717948718
20
32.8871861803219
30
0
0
VERTEX
8
0
10
41.3538461538461
20
33.421565718478
30
0
0
VERTEX
8
0
10
42.2728205128205
20
33.9705051740084
30
0
0
VERTEX
8
0
10
43.1917948717949
20
34.5010866859642
30
0
0
VERTEX
8
0
10
44.1107692307692
20
35.0344874398411
30
0
0
VERTEX
8
0
10
45.0297435897436
20
35.564492623263
30
0
0
VERTEX
8
0
10
45.9487179487179
20
36.0787786337754
30
0
0
VERTEX
8
0
10
46.8676923076923
20
36.5964793658038
30
0
0
VERTEX
8
0
10
47.7866666666666
20
37.108670771471
30
0
0
VERTEX
8
0
10
48.705641025641
20
37.6044173342768
30
0
0
VERTEX
8
0
10
49.6246153846154
20
38.1040360082133
30
0
0
VERTEX
8
0
10
50.5435897435897
20
38.5900964500423
30
0
0
VERTEX
8
0
10
51.4625641025641
20
39.0599393339135
30
0
0
VERTEX
8
0
10
52.3815384615384
20
39.5341090042824
30
0
0
VERTEX
8
0
10
53.3005128205128
20
39.9646838325635
30
0
0
VERTEX
8
0
10
54.2194871794871
20
40.3913960041924
30
0
0
VERTEX
8
0
10
55.1384615384615
20
40.8254691523408
30
0
0
VERTEX
8
0
10
56.0574358974358
20
41.2388323587966
30
0
0
VERTEX
8
0
10
56.9764102564102
20
41.6527013928142
30
0
0
VERTEX
8
0
10
57.8953846153846
20
42.0646555038193
30
0
0
VERTEX
8
0
10
58.8143589743589
20
42.4625075577282
30
0
0
VERTEX
8
0
10
59.7333333333333
20
42.8583866572876
30
0
0
VERTEX
8
0
10
60.6523076923076
20
43.251075806952
30
0
0
VERTEX
8
0
10
61.571282051282
20
43.6146145219756
30
0
0
VERTEX
8
0
10
62.4902564102563
20
43.9761413849598
30
0
0
VERTEX
8
0
10
63.4092307692307
20
44.3324769040897
30
0
0
VERTEX
8
0
10
64.328205128205
20
44.5133003810064
30
0
0
VERTEX
8
0
10
65.2471794871794
20
44.7490428212872
30
0
0
VERTEX
8
0
10
66.1661538461537
20
44.9786871433319
30
0
0
VERTEX
8
0
10
67.0851282051281
20
45.1986015937869
30
0
0
VERTEX
8
0
10
68.0041025641025
20
45.4428428725485
30
0
0
VERTEX
8
0
10
68.9230769230768
20
45.6867006452149
30
0
0
VERTEX
8
0
10
69.8420512820512
20
45.9216559732343
30
0
0
VERTEX
8
0
10
70.7610256410255
20
46.1050300640013
30
0
0
VERTEX
8
0
10
71.6799999999999
20
46.289545384088
30
0
0
VERTEX
8
0
10
72.5989743589742
20
46.4735117150504
30
0
0
VERTEX
8
0
10
73.5179487179486
20
46.6551912659402
30
0
0
VERTEX
8
0
10
74.436923076923
20
46.8052633203859
30
0
0
VERTEX
8
0
10
75.3558974358973
20
46.9454064397589
30
0
0
VERTEX
8
0
10
76.2748717948717
20
47.0822676448953
30
0
0
VERTEX
8
0
10
77.193846153846
20
47.20054245931
30
0
0
VERTEX
8
0
10
78.1128205128204
20
47.3213466962651
30
0
0
VERTEX
8
0
10
79.0317948717947
20
47.4345409391508
30
0
0
VERTEX
8
0
10
79.9507692307691
20
47.541316422563
30
0
0
VERTEX
8
0
10
80.8697435897435
20
47.6492862252149
30
0
0
VERTEX
8
0
10
81.7887179487178
20
47.7533645525913
30
0
0
VERTEX
8
0
10
82.7076923076922
20
47.8519238140761
30
0
0
VERTEX
8
0
10
83.6266666666665
20
47.9532378306319
30
0
0
VERTEX
8
0
10
84.5456410256409
20
48.0506349549932
30
0
0
VERTEX
8
0
10
85.4646153846152
20
48.1450684944451
30
0
0
VERTEX
8
0
10
86.3835897435896
20
48.2450303347766
30
0
0
VERTEX
8
0
10
87.3025641025639
20
48.3377042688951
30
0
0
VERTEX
8
0
10
88.2215384615383
20
48.4330930974115
30
0
0
VERTEX
8
0
10
89.1405128205126
20
48.5279129023392
30
0
0
VERTEX
8
0
10
90.059487179487
20
48.6110319316925
30
0
0
VERTEX
8
0
10
90.9784615384614
20
48.6957709978951
30
0
0
VERTEX
8
0
10
91.8974358974357
20
48.7808065514623
30
0
0
VERTEX
8
0
10
92.8164102564101
20
48.8602964312861
30
0
0
VERTEX
8
0
10
93.7353846153844
20
48.9407848123498
30
0
0
VERTEX
8
0
10
94.6543589743588
20
49.0066185618106
30
0
0
VERTEX
8
0
10
95.5733333333331
20
49.0710700106787
30
0
0
VERTEX
8
0
10
96.4923076923075
20
49.1413268183945
30
0
0
VERTEX
8
0
10
97.4112820512818
20
49.2082047853362
30
0
0
VERTEX
8
0
10
98.3302564102562
20
49.2641683749696
30
0
0
VERTEX
8
0
10
99.2492307692306
20
49.3192609443021
30
0
0
VERTEX
8
0
10
100.168205128205
20
49.3708614843427
30
0
0
VERTEX
8
0
10
101.087179487179
20
49.4154621227125
30
0
0
VERTEX
8
0
10
102.006153846154
20
49.4639119221003
30
0
0
VERTEX
8
0
10
102.925128205128
20
49.5070803933244
30
0
0
VERTEX
8
0
10
103.844102564102
20
49.550025120181
30
0
0
VERTEX
8
0
10
104.763076923077
20
49.5892678456077
30
0
0
VERTEX
8
0
10
105.682051282051
20
49.622088002181
30
0
0
VERTEX
8
0
10
106.601025641025
20
49.6548873577019
30
0
0
VERTEX
8
0
10
107.52
20
49.6886716264129
30
0
0
VERTEX
8
0
10
108.438974358974
20
49.7173042317342
30
0
0
VERTEX
8
0
10
109.357948717948
20
49.7459792872404
30
0
0
VERTEX
8
0
10
110.276923076923
20
49.7725345058815
30
0
0
VERTEX
8
0
10
111.195897435897
20
49.7939046586654
30
0
0
VERTEX
8
0
10
112.114871794872
20
49.8145886011591
30
0
0
VERTEX
8
0
10
113.033846153846
20
49.832774278549
30
0
0
VERTEX
8
0
10
113.95282051282
20
49.8473963338343
30
0
0
VERTEX
8
0
10
114.871794871795
20
49.8621566019321
30
0
0
VERTEX
8
0
10
115.790769230769
20
49.875772292915
30
0
0
VERTEX
8
0
10
116.709743589743
20
49.8864658255914
30
0
0
VERTEX
8
0
10
117.628717948718
20
49.8963297494607
30
0
0
VERTEX
8
0
10
118.547692307692
20
49.8994224660172
30
0
0
VERTEX
8
0
10
119.466666666666
20
49.9017838851406
30
0
0
VERTEX
8
0
10
120.385641025641
20
49.9135894630539
30
0
0
VERTEX
8
0
10
121.304615384615
20
49.9203930450048
30
0
0
VERTEX
8
0
10
122.223589743589
20
49.9264562433744
30
0
0
VERTEX
8
0
10
123.142564102564
20
49.930912494627
30
0
0
VERTEX
8
0
10
124.061538461538
20
49.932259621236
30
0
0
VERTEX
8
0
10
124.980512820513
20
49.9303165410487
30
0
0
VERTEX
8
0
10
125.899487179487
20
49.9273886794989
30
0
0
VERTEX
8
0
10
126.818461538461
20
49.9237104300046
30
0
0
VERTEX
8
0
10
127.737435897436
20
49.919239203061
30
0
0
VERTEX
8
0
10
128.65641025641
20
49.9128650028966
30
0
0
VERTEX
8
0
10
129.575384615384
20
49.9041511136773
30
0
0
VERTEX
8
0
10
130.494358974359
20
49.8948156728321
30
0
0
VERTEX
8
0
10
131.413333333333
20
49.9172115307429
30
0
0
VERTEX
8
0
10
132.332307692307
20
49.9284422362374
30
0
0
VERTEX
8
0
10
133.251282051282
20
49.9181076904263
30
0
0
VERTEX
8
0
10
134.170256410256
20
49.9052210904063
30
0
0
VERTEX
8
0
10
135.08923076923
20
49.9072082748735
30
0
0
VERTEX
8
0
10
136.008205128205
20
49.9165521946858
30
0
0
VERTEX
8
0
10
136.927179487179
20
49.9238819697628
30
0
0
VERTEX
8
0
10
137.846153846153
20
49.8988877454775
30
0
0
VERTEX
8
0
10
138.765128205128
20
49.8798143758061
30
0
0
VERTEX
8
0
10
139.684102564102
20
49.8750419630373
30
0
0
VERTEX
8
0
10
140.603076923077
20
49.8705837674652
30
0
0
VERTEX
8
0
10
141.522051282051
20
49.864965204158
30
0
0
VERTEX
8
0
10
142.441025641025
20
49.8580117398216
30
0
0
VERTEX
8
0
10
143.36
20
49.8502987450512
30
0
0
VERTEX
8
0
10
144.278974358974
20
49.8415557375589
30
0
0
VERTEX
8
0
10
145.197948717948
20
49.8317656827749
30
0
0
VERTEX
8
0
10
146.116923076923
20
49.8213230791263
30
0
0
VERTEX
8
0
10
147.035897435897
20
49.8100292827441
30
0
0
VERTEX
8
0
10
147.954871794871
20
49.7979550256483
30
0
0
VERTEX
8
0
10
148.873846153846
20
49.7853979425836
30
0
0
VERTEX
8
0
10
149.79282051282
20
49.7721148462674
30
0
0
VERTEX
8
0
10
150.711794871795
20
49.7583768103314
30
0
0
VERTEX
8
0
10
151.630769230769
20
49.7442154616588
30
0
0
VERTEX
8
0
10
152.549743589743
20
49.7296595913575
30
0
0
VERTEX
8
0
10
153.468717948718
20
49.7148375021907
30
0
0
VERTEX
8
0
10
154.387692307692
20
49.6998030241464
30
0
0
VERTEX
8
0
10
155.306666666666
20
49.6846302702688
30
0
0
VERTEX
8
0
10
156.225641025641
20
49.6693998836451
30
0
0
VERTEX
8
0
10
157.144615384615
20
49.6541649282811
30
0
0
VERTEX
8
0
10
158.063589743589
20
49.6389493517781
30
0
0
VERTEX
8
0
10
158.982564102564
20
49.6237580725519
30
0
0
VERTEX
8
0
10
159.901538461538
20
49.6085917841891
30
0
0
VERTEX
8
0
10
160.820512820513
20
49.5934505930191
30
0
0
VERTEX
8
0
10
161.739487179487
20
49.5783345323571
30
0
0
VERTEX
8
0
10
162.658461538461
20
49.5632436264864
30
0
0
VERTEX
8
0
10
163.577435897436
20
49.5481778985545
30
0
0
VERTEX
8
0
10
164.49641025641
20
49.533137371556
30
0
0
VERTEX
8
0
10
165.415384615384
20
49.5181220684572
30
0
0
VERTEX
8
0
10
166.334358974359
20
49.5031320122111
30
0
0
VERTEX
8
0
10
167.253333333333
20
49.48816722576
30
0
0
VERTEX
8
0
10
168.172307692308
20
49.4732277320344
30
0
0
VERTEX
8
0
10
169.091282051282
20
49.4583135539547
30
0
0
VERTEX
8
0
10
170.010256410256
20
49.4434247144295
30
0
0
VERTEX
8
0
10
170.929230769231
20
49.4285612363562
30
0
0
VERTEX
8
0
10
171.848205128205
20
49.4137231426205
30
0
0
SEQEND
8
0
0
ENDSEC
0
EOF
