0
SECTION
2
HEADER
9
$ACADVER
1
AC1009
0
ENDSEC
0
SECTION
2
ENTITIES
0
POLYLINE
8
0
62
0
70
1
10
0
20
0
30
0
0
VERTEX
8
0
10
0
20
0
30
0
0
VERTEX
8
0
10
0
20
107.54
30
0
0
VERTEX
8
0
10
179.2
20
107.54
30
0
0
VERTEX
8
0
10
179.2
20
0
30
0
0
SEQEND
8
0
0
TEXT
8
0
62
0
10
0
20
-12
30
0
40
8
1
0
50
0
0
LINE
8
0
62
0
10
9.18974358974359
20
0
30
0
11
9.18974358974359
21
3.2
31
0
0
LINE
8
0
62
0
10
9.18974358974359
20
107.54
30
0
11
9.18974358974359
21
104.34
31
0
0
LINE
8
0
62
0
10
18.3794871794872
20
0
30
0
11
18.3794871794872
21
3.2
31
0
0
LINE
8
0
62
0
10
18.3794871794872
20
107.54
30
0
11
18.3794871794872
21
104.34
31
0
0
LINE
8
0
62
0
10
27.5692307692308
20
0
30
0
11
27.5692307692308
21
3.2
31
0
0
LINE
8
0
62
0
10
27.5692307692308
20
107.54
30
0
11
27.5692307692308
21
104.34
31
0
0
LINE
8
0
62
0
10
36.7589743589744
20
0
30
0
11
36.7589743589744
21
3.2
31
0
0
LINE
8
0
62
0
10
36.7589743589744
20
107.54
30
0
11
36.7589743589744
21
104.34
31
0
0
LINE
8
0
62
0
10
45.9487179487179
20
0
30
0
11
45.9487179487179
21
6.4
31
0
0
LINE
8
0
62
0
10
45.9487179487179
20
107.54
30
0
11
45.9487179487179
21
101.14
31
0
0
TEXT
8
0
62
0
10
45.9487179487179
20
-12
30
0
40
8
1
5
50
0
0
LINE
8
0
62
0
10
55.1384615384615
20
0
30
0
11
55.1384615384615
21
3.2
31
0
0
LINE
8
0
62
0
10
55.1384615384615
20
107.54
30
0
11
55.1384615384615
21
104.34
31
0
0
LINE
8
0
62
0
10
64.3282051282051
20
0
30
0
11
64.3282051282051
21
3.2
31
0
0
LINE
8
0
62
0
10
64.3282051282051
20
107.54
30
0
11
64.3282051282051
21
104.34
31
0
0
LINE
8
0
62
0
10
73.5179487179487
20
0
30
0
11
73.5179487179487
21
3.2
31
0
0
LINE
8
0
62
0
10
73.5179487179487
20
107.54
30
0
11
73.5179487179487
21
104.34
31
0
0
LINE
8
0
62
0
10
82.7076923076923
20
0
30
0
11
82.7076923076923
21
3.2
31
0
0
LINE
8
0
62
0
10
82.7076923076923
20
107.54
30
0
11
82.7076923076923
21
104.34
31
0
0
LINE
8
0
62
0
10
91.8974358974359
20
0
30
0
11
91.8974358974359
21
6.4
31
0
0
LINE
8
0
62
0
10
91.8974358974359
20
107.54
30
0
11
91.8974358974359
21
101.14
31
0
0
TEXT
8
0
62
0
10
91.8974358974359
20
-12
30
0
40
8
1
10
50
0
0
LINE
8
0
62
0
10
101.087179487179
20
0
30
0
11
101.087179487179
21
3.2
31
0
0
LINE
8
0
62
0
10
101.087179487179
20
107.54
30
0
11
101.087179487179
21
104.34
31
0
0
LINE
8
0
62
0
10
110.276923076923
20
0
30
0
11
110.276923076923
21
3.2
31
0
0
LINE
8
0
62
0
10
110.276923076923
20
107.54
30
0
11
110.276923076923
21
104.34
31
0
0
LINE
8
0
62
0
10
119.466666666667
20
0
30
0
11
119.466666666667
21
3.2
31
0
0
LINE
8
0
62
0
10
119.466666666667
20
107.54
30
0
11
119.466666666667
21
104.34
31
0
0
LINE
8
0
62
0
10
128.65641025641
20
0
30
0
11
128.65641025641
21
3.2
31
0
0
LINE
8
0
62
0
10
128.65641025641
20
107.54
30
0
11
128.65641025641
21
104.34
31
0
0
LINE
8
0
62
0
10
137.846153846154
20
0
30
0
11
137.846153846154
21
6.4
31
0
0
LINE
8
0
62
0
10
137.846153846154
20
107.54
30
0
11
137.846153846154
21
101.14
31
0
0
TEXT
8
0
62
0
10
137.846153846154
20
-12
30
0
40
8
1
15
50
0
0
LINE
8
0
62
0
10
147.035897435897
20
0
30
0
11
147.035897435897
21
3.2
31
0
0
LINE
8
0
62
0
10
147.035897435897
20
107.54
30
0
11
147.035897435897
21
104.34
31
0
0
LINE
8
0
62
0
10
156.225641025641
20
0
30
0
11
156.225641025641
21
3.2
31
0
0
LINE
8
0
62
0
10
156.225641025641
20
107.54
30
0
11
156.225641025641
21
104.34
31
0
0
LINE
8
0
62
0
10
165.415384615385
20
0
30
0
11
165.415384615385
21
3.2
31
0
0
LINE
8
0
62
0
10
165.415384615385
20
107.54
30
0
11
165.415384615385
21
104.34
31
0
0
LINE
8
0
62
0
10
174.605128205128
20
0
30
0
11
174.605128205128
21
3.2
31
0
0
LINE
8
0
62
0
10
174.605128205128
20
107.54
30
0
11
174.605128205128
21
104.34
31
0
0
TEXT
8
0
62
0
10
-4
20
-4
30
0
40
8
1
0
50
0
0
LINE
8
0
62
0
10
0
20
6.72125
30
0
11
3.2
21
6.72125
31
0
0
LINE
8
0
62
0
10
179.2
20
6.72125
30
0
11
176
21
6.72125
31
0
0
LINE
8
0
62
0
10
0
20
13.4425
30
0
11
3.2
21
13.4425
31
0
0
LINE
8
0
62
0
10
179.2
20
13.4425
30
0
11
176
21
13.4425
31
0
0
LINE
8
0
62
0
10
0
20
20.16375
30
0
11
3.2
21
20.16375
31
0
0
LINE
8
0
62
0
10
179.2
20
20.16375
30
0
11
176
21
20.16375
31
0
0
LINE
8
0
62
0
10
0
20
26.885
30
0
11
3.2
21
26.885
31
0
0
LINE
8
0
62
0
10
179.2
20
26.885
30
0
11
176
21
26.885
31
0
0
LINE
8
0
62
0
10
0
20
33.60625
30
0
11
6.4
21
33.60625
31
0
0
LINE
8
0
62
0
10
179.2
20
33.60625
30
0
11
172.8
21
33.60625
31
0
0
TEXT
8
0
62
0
10
-4
20
29.60625
30
0
40
8
1
50
50
0
0
LINE
8
0
62
0
10
0
20
40.3275
30
0
11
3.2
21
40.3275
31
0
0
LINE
8
0
62
0
10
179.2
20
40.3275
30
0
11
176
21
40.3275
31
0
0
LINE
8
0
62
0
10
0
20
47.04875
30
0
11
3.2
21
47.04875
31
0
0
LINE
8
0
62
0
10
179.2
20
47.04875
30
0
11
176
21
47.04875
31
0
0
LINE
8
0
62
0
10
0
20
53.77
30
0
11
3.2
21
53.77
31
0
0
LINE
8
0
62
0
10
179.2
20
53.77
30
0
11
176
21
53.77
31
0
0
LINE
8
0
62
0
10
0
20
60.49125
30
0
11
3.2
21
60.49125
31
0
0
LINE
8
0
62
0
10
179.2
20
60.49125
30
0
11
176
21
60.49125
31
0
0
LINE
8
0
62
0
10
0
20
67.2125
30
0
11
6.4
21
67.2125
31
0
0
LINE
8
0
62
0
10
179.2
20
67.2125
30
0
11
172.8
21
67.2125
31
0
0
TEXT
8
0
62
0
10
-4
20
63.2125
30
0
40
8
1
100
50
0
0
LINE
8
0
62
0
10
0
20
73.93375
30
0
11
3.2
21
73.93375
31
0
0
LINE
8
0
62
0
10
179.2
20
73.93375
30
0
11
176
21
73.93375
31
0
0
LINE
8
0
62
0
10
0
20
80.655
30
0
11
3.2
21
80.655
31
0
0
LINE
8
0
62
0
10
179.2
20
80.655
30
0
11
176
21
80.655
31
0
0
LINE
8
0
62
0
10
0
20
87.37625
30
0
11
3.2
21
87.37625
31
0
0
LINE
8
0
62
0
10
179.2
20
87.37625
30
0
11
176
21
87.37625
31
0
0
LINE
8
0
62
0
10
0
20
94.0975
30
0
11
3.2
21
94.0975
31
0
0
LINE
8
0
62
0
10
179.2
20
94.0975
30
0
11
176
21
94.0975
31
0
0
LINE
8
0
62
0
10
0
20
100.81875
30
0
11
6.4
21
100.81875
31
0
0
LINE
8
0
62
0
10
179.2
20
100.81875
30
0
11
172.8
21
100.81875
31
0
0
TEXT
8
0
62
0
10
-4
20
96.81875
30
0
40
8
1
150
50
0
0
TEXT
8
0
62
0
10
89.6
20
-32
30
0
40
10
1
R (kpc)
50
0
0
TEXT
8
0
62
0
10
-24
20
53.77
30
0
40
10
1
V (km/s)
50
90
0
TEXT
8
0
62
0
10
72.6
20
122.54
30
0
40
11
1
V vs. R
50
0
0
POLYLINE
8
0
62
5
70
0
10
0
20
0
30
0
0
VERTEX
8
0
10
1.83794871794872
20
10.756917955117
30
0
0
VERTEX
8
0
10
2.75692307692308
20
13.3929314754191
30
0
0
VERTEX
8
0
10
3.67589743589744
20
16.0289449957212
30
0
0
VERTEX
8
0
10
4.59487179487179
20
18.6649585160233
30
0
0
VERTEX
8
0
10
5.51384615384615
20
21.4322208599155
30
0
0
VERTEX
8
0
10
6.43282051282051
20
24.2952474006534
30
0
0
VERTEX
8
0
10
7.35179487179487
20
27.6722899972713
30
0
0
VERTEX
8
0
10
8.27076923076923
20
29.5508965593332
30
0
0
VERTEX
8
0
10
9.18974358974359
20
31.4815132234672
30
0
0
VERTEX
8
0
10
10.1087179487179
20
33.3342579266321
30
0
0
VERTEX
8
0
10
11.0276923076923
20
35.1526851457545
30
0
0
VERTEX
8
0
10
11.9466666666667
20
36.3649503541225
30
0
0
VERTEX
8
0
10
12.865641025641
20
37.5990138534008
30
0
0
VERTEX
8
0
10
13.7846153846154
20
38.7481159295951
30
0
0
VERTEX
8
0
10
14.7035897435897
20
39.8972180057894
30
0
0
VERTEX
8
0
10
15.6225641025641
20
40.4465160286063
30
0
0
VERTEX
8
0
10
16.5415384615385
20
41.1752354537589
30
0
0
VERTEX
8
0
10
17.4605128205128
20
41.7059201909616
30
0
0
VERTEX
8
0
10
18.3794871794872
20
42.2493005715667
30
0
0
VERTEX
8
0
10
19.2984615384615
20
42.6490881808162
30
0
0
VERTEX
8
0
10
20.2174358974359
20
42.990280512824
30
0
0
VERTEX
8
0
10
21.1364102564103
20
43.3314728448319
30
0
0
VERTEX
8
0
10
22.0553846153846
20
43.5075248279366
30
0
0
VERTEX
8
0
10
22.974358974359
20
43.7265618805836
30
0
0
VERTEX
8
0
10
23.8933333333333
20
43.8200422583154
30
0
0
VERTEX
8
0
10
24.8123076923077
20
43.9127117805891
30
0
0
VERTEX
8
0
10
25.7312820512821
20
43.9224268465207
30
0
0
VERTEX
8
0
10
26.6502564102564
20
43.8845165874087
30
0
0
VERTEX
8
0
10
27.5692307692308
20
43.8466063282967
30
0
0
VERTEX
8
0
10
28.4882051282051
20
43.7818014245625
30
0
0
VERTEX
8
0
10
29.4071794871795
20
43.7228299103883
30
0
0
VERTEX
8
0
10
30.3261538461539
20
43.5593776671541
30
0
0
VERTEX
8
0
10
31.2451282051282
20
43.386675375644
30
0
0
VERTEX
8
0
10
32.1641025641026
20
43.2068919311161
30
0
0
VERTEX
8
0
10
33.0830769230769
20
43.0215528865686
30
0
0
VERTEX
8
0
10
34.0020512820513
20
42.8362138420211
30
0
0
VERTEX
8
0
10
34.9210256410257
20
42.5546708993504
30
0
0
VERTEX
8
0
10
35.84
20
42.2892990855665
30
0
0
VERTEX
8
0
10
36.7589743589744
20
42.0097109087165
30
0
0
VERTEX
8
0
10
37.6779487179487
20
41.7274900908829
30
0
0
VERTEX
8
0
10
38.5969230769231
20
41.4452692730492
30
0
0
VERTEX
8
0
10
39.5158974358974
20
41.1317631077837
30
0
0
VERTEX
8
0
10
40.4348717948718
20
40.8284810348878
30
0
0
VERTEX
8
0
10
41.3538461538461
20
40.5157033676044
30
0
0
VERTEX
8
0
10
42.2728205128205
20
40.2039967926836
30
0
0
VERTEX
8
0
10
43.1917948717949
20
39.8825746430592
30
0
0
VERTEX
8
0
10
44.1107692307692
20
39.5582313151012
30
0
0
VERTEX
8
0
10
45.0297435897436
20
39.2338879871431
30
0
0
VERTEX
8
0
10
45.9487179487179
20
38.9154861628061
30
0
0
VERTEX
8
0
10
46.8676923076923
20
38.5953550858605
30
0
0
VERTEX
8
0
10
47.7866666666666
20
38.2752240089148
30
0
0
VERTEX
8
0
10
48.705641025641
20
37.9550929319692
30
0
0
VERTEX
8
0
10
49.6246153846154
20
37.6378848140595
30
0
0
VERTEX
8
0
10
50.5435897435897
20
37.3219659881263
30
0
0
VERTEX
8
0
10
51.4625641025641
20
37.0060471621931
30
0
0
VERTEX
8
0
10
52.3815384615384
20
36.7126320872829
30
0
0
VERTEX
8
0
10
53.3005128205128
20
36.4135622653994
30
0
0
VERTEX
8
0
10
54.2194871794871
20
36.1186091089792
30
0
0
VERTEX
8
0
10
55.1384615384615
20
35.8237515381082
30
0
0
VERTEX
8
0
10
56.0574358974358
20
35.5262865740667
30
0
0
VERTEX
8
0
10
56.9764102564102
20
35.2272167521832
30
0
0
VERTEX
8
0
10
57.8953846153846
20
34.9281469302998
30
0
0
VERTEX
8
0
10
58.8143589743589
20
34.6396978521972
30
0
0
VERTEX
8
0
10
59.7333333333333
20
34.3490525323387
30
0
0
VERTEX
8
0
10
60.6523076923076
20
34.0584072124802
30
0
0
VERTEX
8
0
10
61.571282051282
20
33.7677618926217
30
0
0
VERTEX
8
0
10
62.4902564102563
20
33.4908675365946
30
0
0
VERTEX
8
0
10
63.4092307692307
20
33.2254957228107
30
0
0
VERTEX
8
0
10
64.328205128205
20
32.9601239090268
30
0
0
VERTEX
8
0
10
65.2471794871794
20
32.7097365133182
30
0
0
VERTEX
8
0
10
66.1661538461537
20
32.4570014525717
30
0
0
VERTEX
8
0
10
67.0851282051281
20
32.2112374592901
30
0
0
VERTEX
8
0
10
68.0041025641025
20
31.9669269005685
30
0
0
VERTEX
8
0
10
68.9230769230768
20
31.7226163418468
30
0
0
VERTEX
8
0
10
69.8420512820512
20
31.4783057831251
30
0
0
VERTEX
8
0
10
70.7610256410255
20
31.2339952244035
30
0
0
VERTEX
8
0
10
71.6799999999999
20
30.9803261853623
30
0
0
VERTEX
8
0
10
72.5989743589742
20
30.7275911246157
30
0
0
VERTEX
8
0
10
73.5179487179486
20
30.5002158068067
30
0
0
VERTEX
8
0
10
74.436923076923
20
30.2811787541597
30
0
0
VERTEX
8
0
10
75.3558974358973
20
30.0621417015126
30
0
0
VERTEX
8
0
10
76.2748717948717
20
29.8724693818008
30
0
0
VERTEX
8
0
10
77.193846153846
20
29.674493584216
30
0
0
VERTEX
8
0
10
78.1128205128204
20
29.4721541123368
30
0
0
VERTEX
8
0
10
79.0317948717947
20
29.2699660637395
30
0
0
VERTEX
8
0
10
79.9507692307691
20
29.0763412211479
30
0
0
VERTEX
8
0
10
80.8697435897435
20
28.886789925588
30
0
0
VERTEX
8
0
10
81.7887179487178
20
28.6972386300281
30
0
0
VERTEX
8
0
10
82.7076923076922
20
28.4965725730247
30
0
0
VERTEX
8
0
10
83.6266666666665
20
28.2985967754399
30
0
0
VERTEX
8
0
10
84.5456410256409
20
28.1087171947134
30
0
0
VERTEX
8
0
10
85.4646153846152
20
27.9191658991535
30
0
0
VERTEX
8
0
10
86.3835897435896
20
27.7499252926859
30
0
0
VERTEX
8
0
10
87.3025641025639
20
27.5940720052255
30
0
0
VERTEX
8
0
10
88.2215384615383
20
27.4382187177651
30
0
0
VERTEX
8
0
10
89.1405128205126
20
27.2823654303048
30
0
0
VERTEX
8
0
10
90.059487179487
20
27.1265121428444
30
0
0
VERTEX
8
0
10
90.9784615384614
20
26.9631937702564
30
0
0
VERTEX
8
0
10
91.8974358974357
20
26.7989159807712
30
0
0
VERTEX
8
0
10
92.8164102564101
20
26.6390847318283
30
0
0
VERTEX
8
0
10
93.7353846153844
20
26.483231444368
30
0
0
VERTEX
8
0
10
94.6543589743588
20
26.3273781569076
30
0
0
VERTEX
8
0
10
95.5733333333331
20
26.1764511184383
30
0
0
VERTEX
8
0
10
96.4923076923075
20
26.0248100819904
30
0
0
VERTEX
8
0
10
97.4112820512818
20
25.8800029989394
30
0
0
VERTEX
8
0
10
98.3302564102562
20
25.7367864645164
30
0
0
VERTEX
8
0
10
99.2492307692306
20
25.5935699300933
30
0
0
VERTEX
8
0
10
100.168205128205
20
25.4687132619253
30
0
0
VERTEX
8
0
10
101.087179487179
20
25.3381334805396
30
0
0
VERTEX
8
0
10
102.006153846154
20
25.1983323329024
30
0
0
VERTEX
8
0
10
102.925128205128
20
25.0593280494917
30
0
0
VERTEX
8
0
10
103.844102564102
20
24.9234251769143
30
0
0
VERTEX
8
0
10
104.763076923077
20
24.7886331445162
30
0
0
VERTEX
8
0
10
105.682051282051
20
24.653841112118
30
0
0
VERTEX
8
0
10
106.601025641025
20
24.5306578588259
30
0
0
VERTEX
8
0
10
107.52
20
24.4042903284526
30
0
0
VERTEX
8
0
10
108.438974358974
20
24.2779227980793
30
0
0
VERTEX
8
0
10
109.357948717948
20
24.151555267706
30
0
0
VERTEX
8
0
10
110.276923076923
20
24.0419028071398
30
0
0
VERTEX
8
0
10
111.195897435897
20
23.9408087828412
30
0
0
VERTEX
8
0
10
112.114871794872
20
23.8397147585426
30
0
0
VERTEX
8
0
10
113.033846153846
20
23.738620734244
30
0
0
VERTEX
8
0
10
113.95282051282
20
23.6375267099453
30
0
0
VERTEX
8
0
10
114.871794871795
20
23.5284735828565
30
0
0
VERTEX
8
0
10
115.790769230769
20
23.418955056533
30
0
0
VERTEX
8
0
10
116.709743589743
20
23.3143770884145
30
0
0
VERTEX
8
0
10
117.628717948718
20
23.2132830641159
30
0
0
VERTEX
8
0
10
118.547692307692
20
23.1121890398173
30
0
0
VERTEX
8
0
10
119.466666666666
20
23.0110950155187
30
0
0
VERTEX
8
0
10
120.385641025641
20
22.9100009912201
30
0
0
VERTEX
8
0
10
121.304615384615
20
22.8235629090406
30
0
0
VERTEX
8
0
10
122.223589743589
20
22.7393178887917
30
0
0
VERTEX
8
0
10
123.142564102564
20
22.6507634420685
30
0
0
VERTEX
8
0
10
124.061538461538
20
22.5580939197947
30
0
0
VERTEX
8
0
10
124.980512820513
20
22.465424397521
30
0
0
VERTEX
8
0
10
125.899487179487
20
22.3727548752473
30
0
0
VERTEX
8
0
10
126.818461538461
20
22.2800853529735
30
0
0
VERTEX
8
0
10
127.737435897436
20
22.1941126700287
30
0
0
VERTEX
8
0
10
128.65641025641
20
22.1098676497799
30
0
0
VERTEX
8
0
10
129.575384615384
20
22.025622629531
30
0
0
VERTEX
8
0
10
130.494358974359
20
21.9413776092822
30
0
0
VERTEX
8
0
10
131.413333333333
20
21.8571325890333
30
0
0
VERTEX
8
0
10
132.332307692307
20
21.7819718209679
30
0
0
VERTEX
8
0
10
133.251282051282
20
21.706151302744
30
0
0
VERTEX
8
0
10
134.170256410256
20
21.6363964921183
30
0
0
VERTEX
8
0
10
135.08923076923
20
21.5690004759192
30
0
0
VERTEX
8
0
10
136.008205128205
20
21.5016044597201
30
0
0
VERTEX
8
0
10
136.927179487179
20
21.4055292809261
30
0
0
VERTEX
8
0
10
137.846153846153
20
21.3170720096648
30
0
0
VERTEX
8
0
10
138.765128205128
20
21.2412944190827
30
0
0
VERTEX
8
0
10
139.684102564102
20
21.1654739008587
30
0
0
VERTEX
8
0
10
140.603076923077
20
21.1201706163531
30
0
0
VERTEX
8
0
10
141.522051282051
20
21.0916569171919
30
0
0
VERTEX
8
0
10
142.441025641025
20
21.0631432180308
30
0
0
VERTEX
8
0
10
143.36
20
21.0346295188696
30
0
0
VERTEX
8
0
10
144.278974358974
20
21.0061158197085
30
0
0
VERTEX
8
0
10
145.197948717948
20
20.9776021205473
30
0
0
VERTEX
8
0
10
146.116923076923
20
20.9490884213862
30
0
0
VERTEX
8
0
10
147.035897435897
20
20.920574722225
30
0
0
VERTEX
8
0
10
147.954871794871
20
20.8920610230639
30
0
0
VERTEX
8
0
10
148.873846153846
20
20.8635473239027
30
0
0
VERTEX
8
0
10
149.79282051282
20
20.8350336247416
30
0
0
VERTEX
8
0
10
150.711794871795
20
20.8065199255804
30
0
0
VERTEX
8
0
10
151.630769230769
20
20.7780062264193
30
0
0
VERTEX
8
0
10
152.549743589743
20
20.7494925272581
30
0
0
VERTEX
8
0
10
153.468717948718
20
20.720978828097
30
0
0
VERTEX
8
0
10
154.387692307692
20
20.6924651289358
30
0
0
VERTEX
8
0
10
155.306666666666
20
20.6639514297747
30
0
0
VERTEX
8
0
10
156.225641025641
20
20.6354377306135
30
0
0
VERTEX
8
0
10
157.144615384615
20
20.6069240314524
30
0
0
VERTEX
8
0
10
158.063589743589
20
20.5784103322912
30
0
0
VERTEX
8
0
10
158.982564102564
20
20.5498966331301
30
0
0
VERTEX
8
0
10
159.901538461538
20
20.521382933969
30
0
0
VERTEX
8
0
10
160.820512820513
20
20.4928692348078
30
0
0
VERTEX
8
0
10
161.739487179487
20
20.4643555356467
30
0
0
VERTEX
8
0
10
162.658461538461
20
20.4358418364855
30
0
0
VERTEX
8
0
10
163.577435897436
20
20.4073281373244
30
0
0
VERTEX
8
0
10
164.49641025641
20
20.3788144381632
30
0
0
VERTEX
8
0
10
165.415384615384
20
20.3503007390021
30
0
0
VERTEX
8
0
10
166.334358974359
20
20.3217870398409
30
0
0
VERTEX
8
0
10
167.253333333333
20
20.2932733406798
30
0
0
VERTEX
8
0
10
168.172307692308
20
20.2647596415186
30
0
0
VERTEX
8
0
10
169.091282051282
20
20.2362459423575
30
0
0
VERTEX
8
0
10
170.010256410256
20
20.2077322431963
30
0
0
VERTEX
8
0
10
170.929230769231
20
20.1792185440352
30
0
0
VERTEX
8
0
10
171.848205128205
20
20.150704844874
30
0
0
SEQEND
8
0
0
POLYLINE
8
0
62
6
70
0
10
0
20
0
30
0
0
VERTEX
8
0
10
1.83794871794872
20
1.67817558318521
30
0
0
VERTEX
8
0
10
2.75692307692308
20
2.01936791519306
30
0
0
VERTEX
8
0
10
3.67589743589744
20
2.3605602472009
30
0
0
VERTEX
8
0
10
4.59487179487179
20
2.70175257920874
30
0
0
VERTEX
8
0
10
5.51384615384615
20
3.04294491121658
30
0
0
VERTEX
8
0
10
6.43282051282051
20
3.38413724322442
30
0
0
VERTEX
8
0
10
7.35179487179487
20
3.84815280870101
30
0
0
VERTEX
8
0
10
8.27076923076923
20
4.34519842816923
30
0
0
VERTEX
8
0
10
9.18974358974359
20
4.84224404763744
30
0
0
VERTEX
8
0
10
10.1087179487179
20
5.49587533193505
30
0
0
VERTEX
8
0
10
11.0276923076923
20
6.10243947772677
30
0
0
VERTEX
8
0
10
11.9466666666667
20
6.84891447512945
30
0
0
VERTEX
8
0
10
12.865641025641
20
7.58605840230688
30
0
0
VERTEX
8
0
10
13.7846153846154
20
8.31719436751395
30
0
0
VERTEX
8
0
10
14.7035897435897
20
9.04591379266652
30
0
0
VERTEX
8
0
10
15.6225641025641
20
9.77463321781908
30
0
0
VERTEX
8
0
10
16.5415384615385
20
10.4576969653313
30
0
0
VERTEX
8
0
10
17.4605128205128
20
11.1527183823843
30
0
0
VERTEX
8
0
10
18.3794871794872
20
11.705018427414
30
0
0
VERTEX
8
0
10
19.2984615384615
20
12.256823310044
30
0
0
VERTEX
8
0
10
20.2174358974359
20
12.7467946449171
30
0
0
VERTEX
8
0
10
21.1364102564103
20
13.2017177542609
30
0
0
VERTEX
8
0
10
22.0553846153846
20
13.6566408636047
30
0
0
VERTEX
8
0
10
22.974358974359
20
13.9983447023144
30
0
0
VERTEX
8
0
10
23.8933333333333
20
14.3648105403969
30
0
0
VERTEX
8
0
10
24.8123076923077
20
14.6846909199139
30
0
0
VERTEX
8
0
10
25.7312820512821
20
15.0006097458471
30
0
0
VERTEX
8
0
10
26.6502564102564
20
15.2833086822167
30
0
0
VERTEX
8
0
10
27.5692307692308
20
15.5402559939757
30
0
0
VERTEX
8
0
10
28.4882051282051
20
15.7972033057347
30
0
0
VERTEX
8
0
10
29.4071794871795
20
16.0490747895193
30
0
0
VERTEX
8
0
10
30.3261538461539
20
16.3018098502658
30
0
0
VERTEX
8
0
10
31.2451282051282
20
16.5581114666942
30
0
0
VERTEX
8
0
10
32.1641025641026
20
16.8150587784532
30
0
0
VERTEX
8
0
10
33.0830769230769
20
17.0720060902122
30
0
0
VERTEX
8
0
10
34.0020512820513
20
17.3289534019711
30
0
0
VERTEX
8
0
10
34.9210256410257
20
17.5859007137301
30
0
0
VERTEX
8
0
10
35.84
20
17.8523685497073
30
0
0
VERTEX
8
0
10
36.7589743589744
20
18.1177403634912
30
0
0
VERTEX
8
0
10
37.6779487179487
20
18.389614156908
30
0
0
VERTEX
8
0
10
38.5969230769231
20
18.6634104727168
30
0
0
VERTEX
8
0
10
39.5158974358974
20
18.9372067885255
30
0
0
VERTEX
8
0
10
40.4348717948718
20
19.240772947016
30
0
0
VERTEX
8
0
10
41.3538461538461
20
19.535630517887
30
0
0
VERTEX
8
0
10
42.2728205128205
20
19.8571562662205
30
0
0
VERTEX
8
0
10
43.1917948717949
20
20.1772873431661
30
0
0
VERTEX
8
0
10
44.1107692307692
20
20.4974184201117
30
0
0
VERTEX
8
0
10
45.0297435897436
20
20.8175494970573
30
0
0
VERTEX
8
0
10
45.9487179487179
20
21.137680574003
30
0
0
VERTEX
8
0
10
46.8676923076923
20
21.4578116509486
30
0
0
VERTEX
8
0
10
47.7866666666666
20
21.7779427278942
30
0
0
VERTEX
8
0
10
48.705641025641
20
22.0939446744614
30
0
0
VERTEX
8
0
10
49.6246153846154
20
22.4098635003946
30
0
0
VERTEX
8
0
10
50.5435897435897
20
22.7153028939844
30
0
0
VERTEX
8
0
10
51.4625641025641
20
23.0143727158678
30
0
0
VERTEX
8
0
10
52.3815384615384
20
23.3134425377513
30
0
0
VERTEX
8
0
10
53.3005128205128
20
23.553961154772
30
0
0
VERTEX
8
0
10
54.2194871794871
20
23.8066962155186
30
0
0
VERTEX
8
0
10
55.1384615384615
20
24.055617711752
30
0
0
VERTEX
8
0
10
56.0574358974358
20
24.3041405214861
30
0
0
VERTEX
8
0
10
56.9764102564102
20
24.5526633312202
30
0
0
VERTEX
8
0
10
57.8953846153846
20
24.8011861409544
30
0
0
VERTEX
8
0
10
58.8143589743589
20
25.0497089506885
30
0
0
VERTEX
8
0
10
59.7333333333333
20
25.2932244894822
30
0
0
VERTEX
8
0
10
60.6523076923076
20
25.5375350482039
30
0
0
VERTEX
8
0
10
61.571282051282
20
25.7538616177432
30
0
0
VERTEX
8
0
10
62.4902564102563
20
25.9644741683654
30
0
0
VERTEX
8
0
10
63.4092307692307
20
26.1750867189875
30
0
0
VERTEX
8
0
10
64.328205128205
20
26.1066552880659
30
0
0
VERTEX
8
0
10
65.2471794871794
20
26.1277165431281
30
0
0
VERTEX
8
0
10
66.1661538461537
20
26.1487777981903
30
0
0
VERTEX
8
0
10
67.0851282051281
20
26.1698390532525
30
0
0
VERTEX
8
0
10
68.0041025641025
20
26.2290895017043
30
0
0
VERTEX
8
0
10
68.9230769230768
20
26.3006977689158
30
0
0
VERTEX
8
0
10
69.8420512820512
20
26.3723060361273
30
0
0
VERTEX
8
0
10
70.7610256410255
20
26.3438623077995
30
0
0
VERTEX
8
0
10
71.6799999999999
20
26.3438623077995
30
0
0
VERTEX
8
0
10
72.5989743589742
20
26.3438623077995
30
0
0
VERTEX
8
0
10
73.5179487179486
20
26.3438623077995
30
0
0
VERTEX
8
0
10
74.436923076923
20
26.3065930378766
30
0
0
VERTEX
8
0
10
75.3558974358973
20
26.2518337747149
30
0
0
VERTEX
8
0
10
76.2748717948717
20
26.1970745115531
30
0
0
VERTEX
8
0
10
77.193846153846
20
26.1256057114804
30
0
0
VERTEX
8
0
10
78.1128205128204
20
26.0582096952813
30
0
0
VERTEX
8
0
10
79.0317948717947
20
25.9826925323934
30
0
0
VERTEX
8
0
10
79.9507692307691
20
25.9068720141695
30
0
0
VERTEX
8
0
10
80.8697435897435
20
25.8285001948937
30
0
0
VERTEX
8
0
10
81.7887179487178
20
25.7484674256573
30
0
0
VERTEX
8
0
10
82.7076923076922
20
25.6684346564209
30
0
0
VERTEX
8
0
10
83.6266666666665
20
25.5884018871845
30
0
0
VERTEX
8
0
10
84.5456410256409
20
25.5083691179481
30
0
0
VERTEX
8
0
10
85.4646153846152
20
25.4320813561907
30
0
0
VERTEX
8
0
10
86.3835897435896
20
25.3562608379668
30
0
0
VERTEX
8
0
10
87.3025641025639
20
25.2849117901158
30
0
0
VERTEX
8
0
10
88.2215384615383
20
25.2175157739167
30
0
0
VERTEX
8
0
10
89.1405128205126
20
25.1501197577176
30
0
0
VERTEX
8
0
10
90.059487179487
20
25.0728463137058
30
0
0
VERTEX
8
0
10
90.9784615384614
20
24.9970257954819
30
0
0
VERTEX
8
0
10
91.8974358974357
20
24.9246347188717
30
0
0
VERTEX
8
0
10
92.8164102564101
20
24.8530264516602
30
0
0
VERTEX
8
0
10
93.7353846153844
20
24.7814181844486
30
0
0
VERTEX
8
0
10
94.6543589743588
20
24.6852802359026
30
0
0
VERTEX
8
0
10
95.5733333333331
20
24.5968229646414
30
0
0
VERTEX
8
0
10
96.4923076923075
20
24.5176119894621
30
0
0
VERTEX
8
0
10
97.4112820512818
20
24.4375792202257
30
0
0
VERTEX
8
0
10
98.3302564102562
20
24.3450909479956
30
0
0
VERTEX
8
0
10
99.2492307692306
20
24.2482091747094
30
0
0
VERTEX
8
0
10
100.168205128205
20
24.1513274014232
30
0
0
VERTEX
8
0
10
101.087179487179
20
24.0486287736687
30
0
0
VERTEX
8
0
10
102.006153846154
20
23.9475347493701
30
0
0
VERTEX
8
0
10
102.925128205128
20
23.8507483072472
30
0
0
VERTEX
8
0
10
103.844102564102
20
23.753866533961
30
0
0
VERTEX
8
0
10
104.763076923077
20
23.6513881409086
30
0
0
VERTEX
8
0
10
105.682051282051
20
23.5460818655975
30
0
0
VERTEX
8
0
10
106.601025641025
20
23.4407755902865
30
0
0
VERTEX
8
0
10
107.52
20
23.3409706035784
30
0
0
VERTEX
8
0
10
108.438974358974
20
23.2398765792798
30
0
0
VERTEX
8
0
10
109.357948717948
20
23.1387825549811
30
0
0
VERTEX
8
0
10
110.276923076923
20
23.0376885306825
30
0
0
VERTEX
8
0
10
111.195897435897
20
22.9341117623661
30
0
0
VERTEX
8
0
10
112.114871794872
20
22.8288054870551
30
0
0
VERTEX
8
0
10
113.033846153846
20
22.723499211744
30
0
0
VERTEX
8
0
10
113.95282051282
20
22.6181929364329
30
0
0
VERTEX
8
0
10
114.871794871795
20
22.5128866611219
30
0
0
VERTEX
8
0
10
115.790769230769
20
22.4112568362559
30
0
0
VERTEX
8
0
10
116.709743589743
20
22.3101628119572
30
0
0
VERTEX
8
0
10
117.628717948718
20
22.2047344313537
30
0
0
VERTEX
8
0
10
118.547692307692
20
22.0952159050302
30
0
0
VERTEX
8
0
10
119.466666666666
20
21.9856973787067
30
0
0
VERTEX
8
0
10
120.385641025641
20
21.9005296367448
30
0
0
VERTEX
8
0
10
121.304615384615
20
21.8120723654835
30
0
0
VERTEX
8
0
10
122.223589743589
20
21.7236150942222
30
0
0
VERTEX
8
0
10
123.142564102564
20
21.6351578229609
30
0
0
VERTEX
8
0
10
124.061538461538
20
21.5467005516996
30
0
0
VERTEX
8
0
10
124.980512820513
20
21.4521794171387
30
0
0
VERTEX
8
0
10
125.899487179487
20
21.359509894865
30
0
0
VERTEX
8
0
10
126.818461538461
20
21.2713949635983
30
0
0
VERTEX
8
0
10
127.737435897436
20
21.182937692337
30
0
0
VERTEX
8
0
10
128.65641025641
20
21.0944804210757
30
0
0
VERTEX
8
0
10
129.575384615384
20
21.0060231498144
30
0
0
VERTEX
8
0
10
130.494358974359
20
20.9175658785531
30
0
0
VERTEX
8
0
10
131.413333333333
20
20.9095847713716
30
0
0
VERTEX
8
0
10
132.332307692307
20
20.8800990142845
30
0
0
VERTEX
8
0
10
133.251282051282
20
20.7997449554972
30
0
0
VERTEX
8
0
10
134.170256410256
20
20.7197121862608
30
0
0
VERTEX
8
0
10
135.08923076923
20
20.6778959569117
30
0
0
VERTEX
8
0
10
136.008205128205
20
20.6568347018495
30
0
0
VERTEX
8
0
10
136.927179487179
20
20.6357734467873
30
0
0
VERTEX
8
0
10
137.846153846153
20
20.5386539497598
30
0
0
VERTEX
8
0
10
138.765128205128
20
20.4586211805234
30
0
0
VERTEX
8
0
10
139.684102564102
20
20.4173583838731
30
0
0
VERTEX
8
0
10
140.603076923077
20
20.3789493055623
30
0
0
VERTEX
8
0
10
141.522051282051
20
20.3405402272515
30
0
0
VERTEX
8
0
10
142.441025641025
20
20.3021311489407
30
0
0
VERTEX
8
0
10
143.36
20
20.2637220706298
30
0
0
VERTEX
8
0
10
144.278974358974
20
20.225312992319
30
0
0
VERTEX
8
0
10
145.197948717948
20
20.1869039140082
30
0
0
VERTEX
8
0
10
146.116923076923
20
20.1484948356974
30
0
0
VERTEX
8
0
10
147.035897435897
20
20.1100857573865
30
0
0
VERTEX
8
0
10
147.954871794871
20
20.0716766790757
30
0
0
VERTEX
8
0
10
148.873846153846
20
20.0332676007649
30
0
0
VERTEX
8
0
10
149.79282051282
20
19.9948585224541
30
0
0
VERTEX
8
0
10
150.711794871795
20
19.9564494441432
30
0
0
VERTEX
8
0
10
151.630769230769
20
19.9180403658324
30
0
0
VERTEX
8
0
10
152.549743589743
20
19.8796312875216
30
0
0
VERTEX
8
0
10
153.468717948718
20
19.8412222092107
30
0
0
VERTEX
8
0
10
154.387692307692
20
19.8028131308999
30
0
0
VERTEX
8
0
10
155.306666666666
20
19.7644040525891
30
0
0
VERTEX
8
0
10
156.225641025641
20
19.7259949742783
30
0
0
VERTEX
8
0
10
157.144615384615
20
19.6875858959674
30
0
0
VERTEX
8
0
10
158.063589743589
20
19.6491768176566
30
0
0
VERTEX
8
0
10
158.982564102564
20
19.6107677393458
30
0
0
VERTEX
8
0
10
159.901538461538
20
19.572358661035
30
0
0
VERTEX
8
0
10
160.820512820513
20
19.5339495827241
30
0
0
VERTEX
8
0
10
161.739487179487
20
19.4955405044133
30
0
0
VERTEX
8
0
10
162.658461538461
20
19.4571314261025
30
0
0
VERTEX
8
0
10
163.577435897436
20
19.4187223477917
30
0
0
VERTEX
8
0
10
164.49641025641
20
19.3803132694808
30
0
0
VERTEX
8
0
10
165.415384615384
20
19.34190419117
30
0
0
VERTEX
8
0
10
166.334358974359
20
19.3034951128592
30
0
0
VERTEX
8
0
10
167.253333333333
20
19.2650860345483
30
0
0
VERTEX
8
0
10
168.172307692308
20
19.2266769562375
30
0
0
VERTEX
8
0
10
169.091282051282
20
19.1882678779267
30
0
0
VERTEX
8
0
10
170.010256410256
20
19.1498587996159
30
0
0
VERTEX
8
0
10
170.929230769231
20
19.111449721305
30
0
0
VERTEX
8
0
10
171.848205128205
20
19.0730406429942
30
0
0
SEQEND
8
0
0
POLYLINE
8
0
62
1
70
0
10
0
20
0
30
0
0
VERTEX
8
0
10
1.83794871794872
20
10.8870361982092
30
0
0
VERTEX
8
0
10
2.75692307692308
20
13.5443146848478
30
0
0
VERTEX
8
0
10
3.67589743589744
20
16.2018308334744
30
0
0
VERTEX
8
0
10
4.59487179487179
20
18.8594841765127
30
0
0
VERTEX
8
0
10
5.51384615384615
20
21.6471615857807
30
0
0
VERTEX
8
0
10
6.43282051282051
20
24.5298069935321
30
0
0
VERTEX
8
0
10
7.35179487179487
20
27.9385739387714
30
0
0
VERTEX
8
0
10
8.27076923076923
20
29.8686497324632
30
0
0
VERTEX
8
0
10
9.18974358974359
20
31.8517346820581
30
0
0
VERTEX
8
0
10
10.1087179487179
20
33.7842773666007
30
0
0
VERTEX
8
0
10
11.0276923076923
20
35.6784394352649
30
0
0
VERTEX
8
0
10
11.9466666666667
20
37.0042868293044
30
0
0
VERTEX
8
0
10
12.865641025641
20
38.3566698871452
30
0
0
VERTEX
8
0
10
13.7846153846154
20
39.6306978268153
30
0
0
VERTEX
8
0
10
14.7035897435897
20
40.9098589700067
30
0
0
VERTEX
8
0
10
15.6225641025641
20
41.6108653286038
30
0
0
VERTEX
8
0
10
16.5415384615385
20
42.482507464734
30
0
0
VERTEX
8
0
10
17.4605128205128
20
43.1713667410661
30
0
0
VERTEX
8
0
10
18.3794871794872
20
43.840744236072
30
0
0
VERTEX
8
0
10
19.2984615384615
20
44.3753810159267
30
0
0
VERTEX
8
0
10
20.2174358974359
20
44.8402162382273
30
0
0
VERTEX
8
0
10
21.1364102564103
20
45.2979236893433
30
0
0
VERTEX
8
0
10
22.0553846153846
20
45.6005324128019
30
0
0
VERTEX
8
0
10
22.974358974359
20
45.9125894314546
30
0
0
VERTEX
8
0
10
23.8933333333333
20
46.1144650341088
30
0
0
VERTEX
8
0
10
24.8123076923077
20
46.3029848210511
30
0
0
VERTEX
8
0
10
25.7312820512821
20
46.4133372301019
30
0
0
VERTEX
8
0
10
26.6502564102564
20
46.4696709735121
30
0
0
VERTEX
8
0
10
27.5692307692308
20
46.5190761179425
30
0
0
VERTEX
8
0
10
28.4882051282051
20
46.5445782907369
30
0
0
VERTEX
8
0
10
29.4071794871795
20
46.5753009327082
30
0
0
VERTEX
8
0
10
30.3261538461539
20
46.5098740822203
30
0
0
VERTEX
8
0
10
31.2451282051282
20
46.4389346937996
30
0
0
VERTEX
8
0
10
32.1641025641026
20
46.363581743325
30
0
0
VERTEX
8
0
10
33.0830769230769
20
46.2850667571741
30
0
0
VERTEX
8
0
10
34.0020512820513
20
46.2085905684976
30
0
0
VERTEX
8
0
10
34.9210256410257
20
46.0452377479495
30
0
0
VERTEX
8
0
10
35.84
20
45.9030704853507
30
0
0
VERTEX
8
0
10
36.7589743589744
20
45.7500636776913
30
0
0
VERTEX
8
0
10
37.6779487179487
20
45.6000146724174
30
0
0
VERTEX
8
0
10
38.5969230769231
20
45.4536383096961
30
0
0
VERTEX
8
0
10
39.5158974358974
20
45.2817815164798
30
0
0
VERTEX
8
0
10
40.4348717948718
20
45.1350441144663
30
0
0
VERTEX
8
0
10
41.3538461538461
20
44.9795851370719
30
0
0
VERTEX
8
0
10
42.2728205128205
20
44.8404729355881
30
0
0
VERTEX
8
0
10
43.1917948717949
20
44.6961148724124
30
0
0
VERTEX
8
0
10
44.1107692307692
20
44.5533144296604
30
0
0
VERTEX
8
0
10
45.0297435897436
20
44.4147310433163
30
0
0
VERTEX
8
0
10
45.9487179487179
20
44.2856252449498
30
0
0
VERTEX
8
0
10
46.8676923076923
20
44.1592472201604
30
0
0
VERTEX
8
0
10
47.7866666666666
20
44.0371611527361
30
0
0
VERTEX
8
0
10
48.705641025641
20
43.9173254052723
30
0
0
VERTEX
8
0
10
49.6246153846154
20
43.8042504259886
30
0
0
VERTEX
8
0
10
50.5435897435897
20
43.6911218760094
30
0
0
VERTEX
8
0
10
51.4625641025641
20
43.5787663670662
30
0
0
VERTEX
8
0
10
52.3815384615384
20
43.4894695039756
30
0
0
VERTEX
8
0
10
53.3005128205128
20
43.3674601854505
30
0
0
VERTEX
8
0
10
54.2194871794871
20
43.2586720631277
30
0
0
VERTEX
8
0
10
55.1384615384615
20
43.1510592889452
30
0
0
VERTEX
8
0
10
56.0574358974358
20
43.044259596732
30
0
0
VERTEX
8
0
10
56.9764102564102
20
42.939376762612
30
0
0
VERTEX
8
0
10
57.8953846153846
20
42.8377670050959
30
0
0
VERTEX
8
0
10
58.8143589743589
20
42.7480594390637
30
0
0
VERTEX
8
0
10
59.7333333333333
20
42.6568237793756
30
0
0
VERTEX
8
0
10
60.6523076923076
20
42.569247094462
30
0
0
VERTEX
8
0
10
61.571282051282
20
42.4679070765521
30
0
0
VERTEX
8
0
10
62.4902564102563
20
42.3767875987956
30
0
0
VERTEX
8
0
10
63.4092307692307
20
42.2973844436394
30
0
0
VERTEX
8
0
10
64.328205128205
20
42.046726607767
30
0
0
VERTEX
8
0
10
65.2471794871794
20
41.8638798312908
30
0
0
VERTEX
8
0
10
66.1661538461537
20
41.6799175098916
30
0
0
VERTEX
8
0
10
67.0851282051281
20
41.5020998834025
30
0
0
VERTEX
8
0
10
68.0041025641025
20
41.350327103358
30
0
0
VERTEX
8
0
10
68.9230769230768
20
41.2074154819719
30
0
0
VERTEX
8
0
10
69.8420512820512
20
41.0655848690736
30
0
0
VERTEX
8
0
10
70.7610256410255
20
40.8602684642472
30
0
0
VERTEX
8
0
10
71.6799999999999
20
40.6666902002578
30
0
0
VERTEX
8
0
10
72.5989743589742
20
40.4744850197487
30
0
0
VERTEX
8
0
10
73.5179487179486
20
40.302136984955
30
0
0
VERTEX
8
0
10
74.436923076923
20
40.1121755082148
30
0
0
VERTEX
8
0
10
75.3558974358973
20
39.9110403299273
30
0
0
VERTEX
8
0
10
76.2748717948717
20
39.7322430770086
30
0
0
VERTEX
8
0
10
77.193846153846
20
39.5363483805904
30
0
0
VERTEX
8
0
10
78.1128205128204
20
39.3400325437662
30
0
0
VERTEX
8
0
10
79.0317948717947
20
39.1386155172275
30
0
0
VERTEX
8
0
10
79.9507692307691
20
38.9435442193848
30
0
0
VERTEX
8
0
10
80.8697435897435
20
38.7499426389598
30
0
0
VERTEX
8
0
10
81.7887179487178
20
38.5553508576813
30
0
0
VERTEX
8
0
10
82.7076923076922
20
38.3526164181873
30
0
0
VERTEX
8
0
10
83.6266666666665
20
38.1520234142176
30
0
0
VERTEX
8
0
10
84.5456410256409
20
37.9575668001765
30
0
0
VERTEX
8
0
10
85.4646153846152
20
37.7659977574055
30
0
0
VERTEX
8
0
10
86.3835897435896
20
37.5898698778362
30
0
0
VERTEX
8
0
10
87.3025641025639
20
37.4267227267297
30
0
0
VERTEX
8
0
10
88.2215384615383
20
37.2663245868392
30
0
0
VERTEX
8
0
10
89.1405128205126
20
37.1060101237014
30
0
0
VERTEX
8
0
10
90.059487179487
20
36.9390752903561
30
0
0
VERTEX
8
0
10
90.9784615384614
20
36.7677184077606
30
0
0
VERTEX
8
0
10
91.8974358974357
20
36.5980780043654
30
0
0
VERTEX
8
0
10
92.8164102564101
20
36.432317510096
30
0
0
VERTEX
8
0
10
93.7353846153844
20
36.2695496934892
30
0
0
VERTEX
8
0
10
94.6543589743588
20
36.0900803676282
30
0
0
VERTEX
8
0
10
95.5733333333331
20
35.9194973950068
30
0
0
VERTEX
8
0
10
96.4923076923075
20
35.7547764287442
30
0
0
VERTEX
8
0
10
97.4112820512818
20
35.5945197097801
30
0
0
VERTEX
8
0
10
98.3302564102562
20
35.4269054644389
30
0
0
VERTEX
8
0
10
99.2492307692306
20
35.2562968836354
30
0
0
VERTEX
8
0
10
100.168205128205
20
35.0990309049823
30
0
0
VERTEX
8
0
10
101.087179487179
20
34.9336163912551
30
0
0
VERTEX
8
0
10
102.006153846154
20
34.7626289703711
30
0
0
VERTEX
8
0
10
102.925128205128
20
34.5952036720077
30
0
0
VERTEX
8
0
10
103.844102564102
20
34.4299767334002
30
0
0
VERTEX
8
0
10
104.763076923077
20
34.2617059435942
30
0
0
VERTEX
8
0
10
105.682051282051
20
34.0914923815749
30
0
0
VERTEX
8
0
10
106.601025641025
20
33.9296792684656
30
0
0
VERTEX
8
0
10
107.52
20
33.7693691849954
30
0
0
VERTEX
8
0
10
108.438974358974
20
33.6081745831227
30
0
0
VERTEX
8
0
10
109.357948717948
20
33.4469861119916
30
0
0
VERTEX
8
0
10
110.276923076923
20
33.2978705539063
30
0
0
VERTEX
8
0
10
111.195897435897
20
33.1532171516621
30
0
0
VERTEX
8
0
10
112.114871794872
20
33.0073682642901
30
0
0
VERTEX
8
0
10
113.033846153846
20
32.8615205185397
30
0
0
VERTEX
8
0
10
113.95282051282
20
32.7156739296791
30
0
0
VERTEX
8
0
10
114.871794871795
20
32.5640773699439
30
0
0
VERTEX
8
0
10
115.790769230769
20
32.4146863153191
30
0
0
VERTEX
8
0
10
116.709743589743
20
32.2692352515028
30
0
0
VERTEX
8
0
10
117.628717948718
20
32.1233052748579
30
0
0
VERTEX
8
0
10
118.547692307692
20
31.9745500062495
30
0
0
VERTEX
8
0
10
119.466666666666
20
31.825797445489
30
0
0
VERTEX
8
0
10
120.385641025641
20
31.6938691829767
30
0
0
VERTEX
8
0
10
121.304615384615
20
31.5702632985539
30
0
0
VERTEX
8
0
10
122.223589743589
20
31.448243684019
30
0
0
VERTEX
8
0
10
123.142564102564
20
31.323108698419
30
0
0
VERTEX
8
0
10
124.061538461538
20
31.1949980919841
30
0
0
VERTEX
8
0
10
124.980512820513
20
31.0626994175626
30
0
0
VERTEX
8
0
10
125.899487179487
20
30.9316799358964
30
0
0
VERTEX
8
0
10
126.818461538461
20
30.8038057232086
30
0
0
VERTEX
8
0
10
127.737435897436
20
30.6805392144167
30
0
0
VERTEX
8
0
10
128.65641025641
20
30.5585233891615
30
0
0
VERTEX
8
0
10
129.575384615384
20
30.4365086826503
30
0
0
VERTEX
8
0
10
130.494358974359
20
30.3144951083919
30
0
0
VERTEX
8
0
10
131.413333333333
20
30.2480574636746
30
0
0
VERTEX
8
0
10
132.332307692307
20
30.1733795133354
30
0
0
VERTEX
8
0
10
133.251282051282
20
30.0630403417776
30
0
0
VERTEX
8
0
10
134.170256410256
20
29.9573050564572
30
0
0
VERTEX
8
0
10
135.08923076923
20
29.8797115570929
30
0
0
VERTEX
8
0
10
136.008205128205
20
29.8165023810941
30
0
0
VERTEX
8
0
10
136.927179487179
20
29.7326727615214
30
0
0
VERTEX
8
0
10
137.846153846153
20
29.6015855172188
30
0
0
VERTEX
8
0
10
138.765128205128
20
29.491486385164
30
0
0
VERTEX
8
0
10
139.684102564102
20
29.408260894236
30
0
0
VERTEX
8
0
10
140.603076923077
20
29.3489894487449
30
0
0
VERTEX
8
0
10
141.522051282051
20
29.3018014505758
30
0
0
VERTEX
8
0
10
142.441025641025
20
29.2546155574135
30
0
0
VERTEX
8
0
10
143.36
20
29.2074317794604
30
0
0
VERTEX
8
0
10
144.278974358974
20
29.1602501269841
30
0
0
VERTEX
8
0
10
145.197948717948
20
29.1130706103185
30
0
0
VERTEX
8
0
10
146.116923076923
20
29.0658932398641
30
0
0
VERTEX
8
0
10
147.035897435897
20
29.0187180260886
30
0
0
VERTEX
8
0
10
147.954871794871
20
28.9715449795273
30
0
0
VERTEX
8
0
10
148.873846153846
20
28.9243741107839
30
0
0
VERTEX
8
0
10
149.79282051282
20
28.8772054305306
30
0
0
VERTEX
8
0
10
150.711794871795
20
28.8300389495092
30
0
0
VERTEX
8
0
10
151.630769230769
20
28.7828746785315
30
0
0
VERTEX
8
0
10
152.549743589743
20
28.7357126284794
30
0
0
VERTEX
8
0
10
153.468717948718
20
28.6885528103061
30
0
0
VERTEX
8
0
10
154.387692307692
20
28.6413952350364
30
0
0
VERTEX
8
0
10
155.306666666666
20
28.5942399137674
30
0
0
VERTEX
8
0
10
156.225641025641
20
28.5470868576687
30
0
0
VERTEX
8
0
10
157.144615384615
20
28.4999360779835
30
0
0
VERTEX
8
0
10
158.063589743589
20
28.452787586029
30
0
0
VERTEX
8
0
10
158.982564102564
20
28.4056413931968
30
0
0
VERTEX
8
0
10
159.901538461538
20
28.358497510954
30
0
0
VERTEX
8
0
10
160.820512820513
20
28.3113559508431
30
0
0
VERTEX
8
0
10
161.739487179487
20
28.2642167244835
30
0
0
VERTEX
8
0
10
162.658461538461
20
28.2170798435713
30
0
0
VERTEX
8
0
10
163.577435897436
20
28.1699453198804
30
0
0
VERTEX
8
0
10
164.49641025641
20
28.1228131652633
30
0
0
VERTEX
8
0
10
165.415384615384
20
28.075683391651
30
0
0
VERTEX
8
0
10
166.334358974359
20
28.0285560110546
30
0
0
VERTEX
8
0
10
167.253333333333
20
27.9814310355652
30
0
0
VERTEX
8
0
10
168.172307692308
20
27.9343084773552
30
0
0
VERTEX
8
0
10
169.091282051282
20
27.8871883486782
30
0
0
VERTEX
8
0
10
170.010256410256
20
27.8400706618705
30
0
0
VERTEX
8
0
10
170.929230769231
20
27.7929554293512
30
0
0
VERTEX
8
0
10
171.848205128205
20
27.7458426636233
30
0
0
SEQEND
8
0
0
POLYLINE
8
0
62
2
70
0
10
0
20
0
30
0
0
VERTEX
8
0
10
1.83794871794872
20
10.8870361982092
30
0
0
VERTEX
8
0
10
2.75692307692308
20
13.5443146848478
30
0
0
VERTEX
8
0
10
3.67589743589744
20
16.2018308334744
30
0
0
VERTEX
8
0
10
4.59487179487179
20
18.8594841765127
30
0
0
VERTEX
8
0
10
5.51384615384615
20
21.6471615857807
30
0
0
VERTEX
8
0
10
6.43282051282051
20
24.5298069935321
30
0
0
VERTEX
8
0
10
7.35179487179487
20
27.9385739387714
30
0
0
VERTEX
8
0
10
8.27076923076923
20
29.8686497324632
30
0
0
VERTEX
8
0
10
9.18974358974359
20
31.8517346820581
30
0
0
VERTEX
8
0
10
10.1087179487179
20
33.7842773666007
30
0
0
VERTEX
8
0
10
11.0276923076923
20
35.6784394352649
30
0
0
VERTEX
8
0
10
11.9466666666667
20
37.0042868293044
30
0
0
VERTEX
8
0
10
12.865641025641
20
38.3566698871452
30
0
0
VERTEX
8
0
10
13.7846153846154
20
39.6306978268153
30
0
0
VERTEX
8
0
10
14.7035897435897
20
40.9098589700067
30
0
0
VERTEX
8
0
10
15.6225641025641
20
41.6108653286038
30
0
0
VERTEX
8
0
10
16.5415384615385
20
42.482507464734
30
0
0
VERTEX
8
0
10
17.4605128205128
20
43.1713667410661
30
0
0
VERTEX
8
0
10
18.3794871794872
20
43.840744236072
30
0
0
VERTEX
8
0
10
19.2984615384615
20
44.3753810159267
30
0
0
VERTEX
8
0
10
20.2174358974359
20
44.8402162382273
30
0
0
VERTEX
8
0
10
21.1364102564103
20
45.2979236893433
30
0
0
VERTEX
8
0
10
22.0553846153846
20
45.6005324128019
30
0
0
VERTEX
8
0
10
22.974358974359
20
45.9125894314546
30
0
0
VERTEX
8
0
10
23.8933333333333
20
46.1144650341088
30
0
0
VERTEX
8
0
10
24.8123076923077
20
46.3029848210511
30
0
0
VERTEX
8
0
10
25.7312820512821
20
46.4133372301019
30
0
0
VERTEX
8
0
10
26.6502564102564
20
46.4696709735121
30
0
0
VERTEX
8
0
10
27.5692307692308
20
46.5190761179425
30
0
0
VERTEX
8
0
10
28.4882051282051
20
46.5445782907369
30
0
0
VERTEX
8
0
10
29.4071794871795
20
46.5753009327082
30
0
0
VERTEX
8
0
10
30.3261538461539
20
46.5098740822203
30
0
0
VERTEX
8
0
10
31.2451282051282
20
46.4389346937996
30
0
0
VERTEX
8
0
10
32.1641025641026
20
46.363581743325
30
0
0
VERTEX
8
0
10
33.0830769230769
20
46.2850667571741
30
0
0
VERTEX
8
0
10
34.0020512820513
20
46.2085905684976
30
0
0
VERTEX
8
0
10
34.9210256410257
20
46.0452377479495
30
0
0
VERTEX
8
0
10
35.84
20
45.9030704853507
30
0
0
VERTEX
8
0
10
36.7589743589744
20
45.7500636776913
30
0
0
VERTEX
8
0
10
37.6779487179487
20
45.6000146724174
30
0
0
VERTEX
8
0
10
38.5969230769231
20
45.4536383096961
30
0
0
VERTEX
8
0
10
39.5158974358974
20
45.2817815164798
30
0
0
VERTEX
8
0
10
40.4348717948718
20
45.1350441144663
30
0
0
VERTEX
8
0
10
41.3538461538461
20
44.9795851370719
30
0
0
VERTEX
8
0
10
42.2728205128205
20
44.8404729355881
30
0
0
VERTEX
8
0
10
43.1917948717949
20
44.6961148724124
30
0
0
VERTEX
8
0
10
44.1107692307692
20
44.5533144296604
30
0
0
VERTEX
8
0
10
45.0297435897436
20
44.4147310433163
30
0
0
VERTEX
8
0
10
45.9487179487179
20
44.2856252449498
30
0
0
VERTEX
8
0
10
46.8676923076923
20
44.1592472201604
30
0
0
VERTEX
8
0
10
47.7866666666666
20
44.0371611527361
30
0
0
VERTEX
8
0
10
48.705641025641
20
43.9173254052723
30
0
0
VERTEX
8
0
10
49.6246153846154
20
43.8042504259886
30
0
0
VERTEX
8
0
10
50.5435897435897
20
43.6911218760094
30
0
0
VERTEX
8
0
10
51.4625641025641
20
43.5787663670662
30
0
0
VERTEX
8
0
10
52.3815384615384
20
43.4894695039756
30
0
0
VERTEX
8
0
10
53.3005128205128
20
43.3674601854505
30
0
0
VERTEX
8
0
10
54.2194871794871
20
43.2586720631277
30
0
0
VERTEX
8
0
10
55.1384615384615
20
43.1510592889452
30
0
0
VERTEX
8
0
10
56.0574358974358
20
43.044259596732
30
0
0
VERTEX
8
0
10
56.9764102564102
20
42.939376762612
30
0
0
VERTEX
8
0
10
57.8953846153846
20
42.8377670050959
30
0
0
VERTEX
8
0
10
58.8143589743589
20
42.7480594390637
30
0
0
VERTEX
8
0
10
59.7333333333333
20
42.6568237793756
30
0
0
VERTEX
8
0
10
60.6523076923076
20
42.569247094462
30
0
0
VERTEX
8
0
10
61.571282051282
20
42.4679070765521
30
0
0
VERTEX
8
0
10
62.4902564102563
20
42.3767875987956
30
0
0
VERTEX
8
0
10
63.4092307692307
20
42.2973844436394
30
0
0
VERTEX
8
0
10
64.328205128205
20
42.046726607767
30
0
0
VERTEX
8
0
10
65.2471794871794
20
41.8638798312908
30
0
0
VERTEX
8
0
10
66.1661538461537
20
41.6799175098916
30
0
0
VERTEX
8
0
10
67.0851282051281
20
41.5020998834025
30
0
0
VERTEX
8
0
10
68.0041025641025
20
41.350327103358
30
0
0
VERTEX
8
0
10
68.9230769230768
20
41.2074154819719
30
0
0
VERTEX
8
0
10
69.8420512820512
20
41.0655848690736
30
0
0
VERTEX
8
0
10
70.7610256410255
20
40.8602684642472
30
0
0
VERTEX
8
0
10
71.6799999999999
20
40.6666902002578
30
0
0
VERTEX
8
0
10
72.5989743589742
20
40.4744850197487
30
0
0
VERTEX
8
0
10
73.5179487179486
20
40.302136984955
30
0
0
VERTEX
8
0
10
74.436923076923
20
40.1121755082148
30
0
0
VERTEX
8
0
10
75.3558974358973
20
39.9110403299273
30
0
0
VERTEX
8
0
10
76.2748717948717
20
39.7322430770086
30
0
0
VERTEX
8
0
10
77.193846153846
20
39.5363483805904
30
0
0
VERTEX
8
0
10
78.1128205128204
20
39.3400325437662
30
0
0
VERTEX
8
0
10
79.0317948717947
20
39.1386155172275
30
0
0
VERTEX
8
0
10
79.9507692307691
20
38.9435442193848
30
0
0
VERTEX
8
0
10
80.8697435897435
20
38.7499426389598
30
0
0
VERTEX
8
0
10
81.7887179487178
20
38.5553508576813
30
0
0
VERTEX
8
0
10
82.7076923076922
20
38.3526164181873
30
0
0
VERTEX
8
0
10
83.6266666666665
20
38.1520234142176
30
0
0
VERTEX
8
0
10
84.5456410256409
20
37.9575668001765
30
0
0
VERTEX
8
0
10
85.4646153846152
20
37.7659977574055
30
0
0
VERTEX
8
0
10
86.3835897435896
20
37.5898698778362
30
0
0
VERTEX
8
0
10
87.3025641025639
20
37.4267227267297
30
0
0
VERTEX
8
0
10
88.2215384615383
20
37.2663245868392
30
0
0
VERTEX
8
0
10
89.1405128205126
20
37.1060101237014
30
0
0
VERTEX
8
0
10
90.059487179487
20
36.9390752903561
30
0
0
VERTEX
8
0
10
90.9784615384614
20
36.7677184077606
30
0
0
VERTEX
8
0
10
91.8974358974357
20
36.5980780043654
30
0
0
VERTEX
8
0
10
92.8164102564101
20
36.432317510096
30
0
0
VERTEX
8
0
10
93.7353846153844
20
36.2695496934892
30
0
0
VERTEX
8
0
10
94.6543589743588
20
36.0900803676282
30
0
0
VERTEX
8
0
10
95.5733333333331
20
35.9194973950068
30
0
0
VERTEX
8
0
10
96.4923076923075
20
35.7547764287442
30
0
0
VERTEX
8
0
10
97.4112820512818
20
35.5945197097801
30
0
0
VERTEX
8
0
10
98.3302564102562
20
35.4269054644389
30
0
0
VERTEX
8
0
10
99.2492307692306
20
35.2562968836354
30
0
0
VERTEX
8
0
10
100.168205128205
20
35.0990309049823
30
0
0
VERTEX
8
0
10
101.087179487179
20
34.9336163912551
30
0
0
VERTEX
8
0
10
102.006153846154
20
34.7626289703711
30
0
0
VERTEX
8
0
10
102.925128205128
20
34.5952036720077
30
0
0
VERTEX
8
0
10
103.844102564102
20
34.4299767334002
30
0
0
VERTEX
8
0
10
104.763076923077
20
34.2617059435942
30
0
0
VERTEX
8
0
10
105.682051282051
20
34.0914923815749
30
0
0
VERTEX
8
0
10
106.601025641025
20
33.9296792684656
30
0
0
VERTEX
8
0
10
107.52
20
33.7693691849954
30
0
0
VERTEX
8
0
10
108.438974358974
20
33.6081745831227
30
0
0
VERTEX
8
0
10
109.357948717948
20
33.4469861119916
30
0
0
VERTEX
8
0
10
110.276923076923
20
33.2978705539063
30
0
0
VERTEX
8
0
10
111.195897435897
20
33.1532171516622
30
0
0
VERTEX
8
0
10
112.114871794872
20
33.0073682642901
30
0
0
VERTEX
8
0
10
113.033846153846
20
32.8615205185397
30
0
0
VERTEX
8
0
10
113.95282051282
20
32.7156739296791
30
0
0
VERTEX
8
0
10
114.871794871795
20
32.5640773699439
30
0
0
VERTEX
8
0
10
115.790769230769
20
32.4146863153191
30
0
0
VERTEX
8
0
10
116.709743589743
20
32.2692352515028
30
0
0
VERTEX
8
0
10
117.628717948718
20
32.1233052748579
30
0
0
VERTEX
8
0
10
118.547692307692
20
31.9745500062495
30
0
0
VERTEX
8
0
10
119.466666666666
20
31.825797445489
30
0
0
VERTEX
8
0
10
120.385641025641
20
31.6938691829767
30
0
0
VERTEX
8
0
10
121.304615384615
20
31.5702632985539
30
0
0
VERTEX
8
0
10
122.223589743589
20
31.448243684019
30
0
0
VERTEX
8
0
10
123.142564102564
20
31.323108698419
30
0
0
VERTEX
8
0
10
124.061538461538
20
31.1949980919841
30
0
0
VERTEX
8
0
10
124.980512820513
20
31.0626994175626
30
0
0
VERTEX
8
0
10
125.899487179487
20
30.9316799358964
30
0
0
VERTEX
8
0
10
126.818461538461
20
30.8038057232086
30
0
0
VERTEX
8
0
10
127.737435897436
20
30.6805392144167
30
0
0
VERTEX
8
0
10
128.65641025641
20
30.5585233891615
30
0
0
VERTEX
8
0
10
129.575384615384
20
30.4365086826503
30
0
0
VERTEX
8
0
10
130.494358974359
20
30.3144951083919
30
0
0
VERTEX
8
0
10
131.413333333333
20
30.2480574636746
30
0
0
VERTEX
8
0
10
132.332307692307
20
30.1733795133354
30
0
0
VERTEX
8
0
10
133.251282051282
20
30.0630403417776
30
0
0
VERTEX
8
0
10
134.170256410256
20
29.9573050564572
30
0
0
VERTEX
8
0
10
135.08923076923
20
29.8797115570929
30
0
0
VERTEX
8
0
10
136.008205128205
20
29.8165023810941
30
0
0
VERTEX
8
0
10
136.927179487179
20
29.7326727615214
30
0
0
VERTEX
8
0
10
137.846153846153
20
29.6015855172188
30
0
0
VERTEX
8
0
10
138.765128205128
20
29.491486385164
30
0
0
VERTEX
8
0
10
139.684102564102
20
29.408260894236
30
0
0
VERTEX
8
0
10
140.603076923077
20
29.3489894487449
30
0
0
VERTEX
8
0
10
141.522051282051
20
29.3018014505758
30
0
0
VERTEX
8
0
10
142.441025641025
20
29.2546155574135
30
0
0
VERTEX
8
0
10
143.36
20
29.2074317794604
30
0
0
VERTEX
8
0
10
144.278974358974
20
29.1602501269841
30
0
0
VERTEX
8
0
10
145.197948717948
20
29.1130706103185
30
0
0
VERTEX
8
0
10
146.116923076923
20
29.0658932398641
30
0
0
VERTEX
8
0
10
147.035897435897
20
29.0187180260886
30
0
0
VERTEX
8
0
10
147.954871794871
20
28.9715449795273
30
0
0
VERTEX
8
0
10
148.873846153846
20
28.9243741107839
30
0
0
VERTEX
8
0
10
149.79282051282
20
28.8772054305306
30
0
0
VERTEX
8
0
10
150.711794871795
20
28.8300389495092
30
0
0
VERTEX
8
0
10
151.630769230769
20
28.7828746785315
30
0
0
VERTEX
8
0
10
152.549743589743
20
28.7357126284794
30
0
0
VERTEX
8
0
10
153.468717948718
20
28.6885528103061
30
0
0
VERTEX
8
0
10
154.387692307692
20
28.6413952350364
30
0
0
VERTEX
8
0
10
155.306666666666
20
28.5942399137674
30
0
0
VERTEX
8
0
10
156.225641025641
20
28.5470868576687
30
0
0
VERTEX
8
0
10
157.144615384615
20
28.4999360779835
30
0
0
VERTEX
8
0
10
158.063589743589
20
28.452787586029
30
0
0
VERTEX
8
0
10
158.982564102564
20
28.4056413931968
30
0
0
VERTEX
8
0
10
159.901538461538
20
28.358497510954
30
0
0
VERTEX
8
0
10
160.820512820513
20
28.3113559508431
30
0
0
VERTEX
8
0
10
161.739487179487
20
28.2642167244835
30
0
0
VERTEX
8
0
10
162.658461538461
20
28.2170798435713
30
0
0
VERTEX
8
0
10
163.577435897436
20
28.1699453198804
30
0
0
VERTEX
8
0
10
164.49641025641
20
28.1228131652633
30
0
0
VERTEX
8
0
10
165.415384615384
20
28.075683391651
30
0
0
VERTEX
8
0
10
166.334358974359
20
28.0285560110546
30
0
0
VERTEX
8
0
10
167.253333333333
20
27.9814310355652
30
0
0
VERTEX
8
0
10
168.172307692308
20
27.9343084773552
30
0
0
VERTEX
8
0
10
169.091282051282
20
27.8871883486782
30
0
0
VERTEX
8
0
10
170.010256410256
20
27.8400706618705
30
0
0
VERTEX
8
0
10
170.929230769231
20
27.7929554293512
30
0
0
VERTEX
8
0
10
171.848205128205
20
27.7458426636233
30
0
0
SEQEND
8
0
0
POLYLINE
8
0
62
3
70
0
10
0
20
0
30
0
0
VERTEX
8
0
10
1.83794871794872
20
18.7442419828676
30
0
0
VERTEX
8
0
10
2.75692307692308
20
21.1641074818536
30
0
0
VERTEX
8
0
10
3.67589743589744
20
23.1902435720915
30
0
0
VERTEX
8
0
10
4.59487179487179
20
26.1986523112823
30
0
0
VERTEX
8
0
10
5.51384615384615
20
28.5775091371457
30
0
0
VERTEX
8
0
10
6.43282051282051
20
31.4103759235009
30
0
0
VERTEX
8
0
10
7.35179487179487
20
34.6755100536287
30
0
0
VERTEX
8
0
10
8.27076923076923
20
37.1166456856046
30
0
0
VERTEX
8
0
10
9.18974358974359
20
39.8800835095334
30
0
0
VERTEX
8
0
10
10.1087179487179
20
42.3910223113159
30
0
0
VERTEX
8
0
10
11.0276923076923
20
44.7099329229719
30
0
0
VERTEX
8
0
10
11.9466666666667
20
46.87604769271
30
0
0
VERTEX
8
0
10
12.865641025641
20
48.7994042637602
30
0
0
VERTEX
8
0
10
13.7846153846154
20
50.9332840496058
30
0
0
VERTEX
8
0
10
14.7035897435897
20
52.5319815244357
30
0
0
VERTEX
8
0
10
15.6225641025641
20
53.9649047985777
30
0
0
VERTEX
8
0
10
16.5415384615385
20
55.3396300476251
30
0
0
VERTEX
8
0
10
17.4605128205128
20
56.6965385576979
30
0
0
VERTEX
8
0
10
18.3794871794872
20
57.8817482400674
30
0
0
VERTEX
8
0
10
19.2984615384615
20
59.0164664765511
30
0
0
VERTEX
8
0
10
20.2174358974359
20
60.124984878028
30
0
0
VERTEX
8
0
10
21.1364102564103
20
61.0706405505274
30
0
0
VERTEX
8
0
10
22.0553846153846
20
61.9806970503357
30
0
0
VERTEX
8
0
10
22.974358974359
20
62.8480910115904
30
0
0
VERTEX
8
0
10
23.8933333333333
20
63.5705074503245
30
0
0
VERTEX
8
0
10
24.8123076923077
20
64.2747974182614
30
0
0
VERTEX
8
0
10
25.7312820512821
20
64.960599318435
30
0
0
VERTEX
8
0
10
26.6502564102564
20
65.5326333390434
30
0
0
VERTEX
8
0
10
27.5692307692308
20
66.0695393348078
30
0
0
VERTEX
8
0
10
28.4882051282051
20
66.5545552271968
30
0
0
VERTEX
8
0
10
29.4071794871795
20
67.0043847187127
30
0
0
VERTEX
8
0
10
30.3261538461539
20
67.4298701331621
30
0
0
VERTEX
8
0
10
31.2451282051282
20
67.8065516365808
30
0
0
VERTEX
8
0
10
32.1641025641026
20
68.158965180274
30
0
0
VERTEX
8
0
10
33.0830769230769
20
68.4966053736608
30
0
0
VERTEX
8
0
10
34.0020512820513
20
68.7898839244732
30
0
0
VERTEX
8
0
10
34.9210256410257
20
69.0613436606026
30
0
0
VERTEX
8
0
10
35.84
20
69.331081190861
30
0
0
VERTEX
8
0
10
36.7589743589744
20
69.5612787673669
30
0
0
VERTEX
8
0
10
37.6779487179487
20
69.7941047519549
30
0
0
VERTEX
8
0
10
38.5969230769231
20
70.017151357982
30
0
0
VERTEX
8
0
10
39.5158974358974
20
70.2103465283435
30
0
0
VERTEX
8
0
10
40.4348717948718
20
70.4010910912271
30
0
0
VERTEX
8
0
10
41.3538461538461
20
70.5890285270864
30
0
0
VERTEX
8
0
10
42.2728205128205
20
70.7754536959719
30
0
0
VERTEX
8
0
10
43.1917948717949
20
70.9561684177744
30
0
0
VERTEX
8
0
10
44.1107692307692
20
71.1360966332171
30
0
0
VERTEX
8
0
10
45.0297435897436
20
71.3192315704892
30
0
0
VERTEX
8
0
10
45.9487179487179
20
71.5045790670197
30
0
0
VERTEX
8
0
10
46.8676923076923
20
71.6894373343629
30
0
0
VERTEX
8
0
10
47.7866666666666
20
71.88795691849
30
0
0
VERTEX
8
0
10
48.705641025641
20
72.092062810434
30
0
0
VERTEX
8
0
10
49.6246153846154
20
72.2946301548816
30
0
0
VERTEX
8
0
10
50.5435897435897
20
72.4972297920461
30
0
0
VERTEX
8
0
10
51.4625641025641
20
72.7007775891077
30
0
0
VERTEX
8
0
10
52.3815384615384
20
72.8964696393462
30
0
0
VERTEX
8
0
10
53.3005128205128
20
73.0919560032099
30
0
0
VERTEX
8
0
10
54.2194871794871
20
73.2869279422498
30
0
0
VERTEX
8
0
10
55.1384615384615
20
73.475159139618
30
0
0
VERTEX
8
0
10
56.0574358974358
20
73.6542744874578
30
0
0
VERTEX
8
0
10
56.9764102564102
20
73.8324908962529
30
0
0
VERTEX
8
0
10
57.8953846153846
20
74.0082237600522
30
0
0
VERTEX
8
0
10
58.8143589743589
20
74.170910171691
30
0
0
VERTEX
8
0
10
59.7333333333333
20
74.3325739953719
30
0
0
VERTEX
8
0
10
60.6523076923076
20
74.4902755627217
30
0
0
VERTEX
8
0
10
61.571282051282
20
74.638825023988
30
0
0
VERTEX
8
0
10
62.4902564102563
20
74.7829986690736
30
0
0
VERTEX
8
0
10
63.4092307692307
20
74.9223993774973
30
0
0
VERTEX
8
0
10
64.328205128205
20
75.0539599438154
30
0
0
VERTEX
8
0
10
65.2471794871794
20
75.1803728523864
30
0
0
VERTEX
8
0
10
66.1661538461537
20
75.3013722443466
30
0
0
VERTEX
8
0
10
67.0851282051281
20
75.4154564069948
30
0
0
VERTEX
8
0
10
68.0041025641025
20
75.5235603903265
30
0
0
VERTEX
8
0
10
68.9230769230768
20
75.6258038459407
30
0
0
VERTEX
8
0
10
69.8420512820512
20
75.7217775828422
30
0
0
VERTEX
8
0
10
70.7610256410255
20
75.8128059232778
30
0
0
VERTEX
8
0
10
71.6799999999999
20
75.8924957986533
30
0
0
VERTEX
8
0
10
72.5989743589742
20
75.9688927752632
30
0
0
VERTEX
8
0
10
73.5179487179486
20
76.0403045503519
30
0
0
VERTEX
8
0
10
74.436923076923
20
76.1003425393652
30
0
0
VERTEX
8
0
10
75.3558974358973
20
76.155542571657
30
0
0
VERTEX
8
0
10
76.2748717948717
20
76.2033829177755
30
0
0
VERTEX
8
0
10
77.193846153846
20
76.2375555267338
30
0
0
VERTEX
8
0
10
78.1128205128204
20
76.2594787926947
30
0
0
VERTEX
8
0
10
79.0317948717947
20
76.2788278618485
30
0
0
VERTEX
8
0
10
79.9507692307691
20
76.3038875280164
30
0
0
VERTEX
8
0
10
80.8697435897435
20
76.3344104869871
30
0
0
VERTEX
8
0
10
81.7887179487178
20
76.36637146306
30
0
0
VERTEX
8
0
10
82.7076923076922
20
76.3966835922557
30
0
0
VERTEX
8
0
10
83.6266666666665
20
76.4289138698083
30
0
0
VERTEX
8
0
10
84.5456410256409
20
76.4601980191104
30
0
0
VERTEX
8
0
10
85.4646153846152
20
76.4896546448847
30
0
0
VERTEX
8
0
10
86.3835897435896
20
76.5218246904991
30
0
0
VERTEX
8
0
10
87.3025641025639
20
76.5477950629624
30
0
0
VERTEX
8
0
10
88.2215384615383
20
76.5749610499628
30
0
0
VERTEX
8
0
10
89.1405128205126
20
76.6022782343555
30
0
0
VERTEX
8
0
10
90.059487179487
20
76.6247017208031
30
0
0
VERTEX
8
0
10
90.9784615384614
20
76.6479035540976
30
0
0
VERTEX
8
0
10
91.8974358974357
20
76.6703854642923
30
0
0
VERTEX
8
0
10
92.8164102564101
20
76.6886534884299
30
0
0
VERTEX
8
0
10
93.7353846153844
20
76.7073853821284
30
0
0
VERTEX
8
0
10
94.6543589743588
20
76.7244659647919
30
0
0
VERTEX
8
0
10
95.5733333333331
20
76.7381539835175
30
0
0
VERTEX
8
0
10
96.4923076923075
20
76.752049100943
30
0
0
VERTEX
8
0
10
97.4112820512818
20
76.7639569055895
30
0
0
VERTEX
8
0
10
98.3302564102562
20
76.7728640400613
30
0
0
VERTEX
8
0
10
99.2492307692306
20
76.781754993688
30
0
0
VERTEX
8
0
10
100.168205128205
20
76.7883552343985
30
0
0
VERTEX
8
0
10
101.087179487179
20
76.7922741656338
30
0
0
VERTEX
8
0
10
102.006153846154
20
76.7975150479511
30
0
0
VERTEX
8
0
10
102.925128205128
20
76.797105689829
30
0
0
VERTEX
8
0
10
103.844102564102
20
76.7965643189283
30
0
0
VERTEX
8
0
10
104.763076923077
20
76.7951376730575
30
0
0
VERTEX
8
0
10
105.682051282051
20
76.7893611166676
30
0
0
VERTEX
8
0
10
106.601025641025
20
76.7832019527001
30
0
0
VERTEX
8
0
10
107.52
20
76.7756978396232
30
0
0
VERTEX
8
0
10
108.438974358974
20
76.7644356838915
30
0
0
VERTEX
8
0
10
109.357948717948
20
76.7527654721922
30
0
0
VERTEX
8
0
10
110.276923076923
20
76.7393741391646
30
0
0
VERTEX
8
0
10
111.195897435897
20
76.7227874728001
30
0
0
VERTEX
8
0
10
112.114871794872
20
76.7058033738922
30
0
0
VERTEX
8
0
10
113.033846153846
20
76.6868905976624
30
0
0
VERTEX
8
0
10
113.95282051282
20
76.6653310378544
30
0
0
VERTEX
8
0
10
114.871794871795
20
76.6434376990095
30
0
0
VERTEX
8
0
10
115.790769230769
20
76.6196054428606
30
0
0
VERTEX
8
0
10
116.709743589743
20
76.5936981946116
30
0
0
VERTEX
8
0
10
117.628717948718
20
76.5685186588614
30
0
0
VERTEX
8
0
10
118.547692307692
20
76.5398749265925
30
0
0
VERTEX
8
0
10
119.466666666666
20
76.5113197824508
30
0
0
VERTEX
8
0
10
120.385641025641
20
76.4825689246231
30
0
0
VERTEX
8
0
10
121.304615384615
20
76.4516301834855
30
0
0
VERTEX
8
0
10
122.223589743589
20
76.4206516527508
30
0
0
VERTEX
8
0
10
123.142564102564
20
76.3888891934332
30
0
0
VERTEX
8
0
10
124.061538461538
20
76.3550441318365
30
0
0
VERTEX
8
0
10
124.980512820513
20
76.3209135321636
30
0
0
VERTEX
8
0
10
125.899487179487
20
76.2856861144449
30
0
0
VERTEX
8
0
10
126.818461538461
20
76.248616124885
30
0
0
VERTEX
8
0
10
127.737435897436
20
76.2111438524806
30
0
0
VERTEX
8
0
10
128.65641025641
20
76.1724222326046
30
0
0
VERTEX
8
0
10
129.575384615384
20
76.1321058087696
30
0
0
VERTEX
8
0
10
130.494358974359
20
76.091324329143
30
0
0
VERTEX
8
0
10
131.413333333333
20
76.0492462460655
30
0
0
VERTEX
8
0
10
132.332307692307
20
76.0058099847042
30
0
0
VERTEX
8
0
10
133.251282051282
20
75.9622315870973
30
0
0
VERTEX
8
0
10
134.170256410256
20
75.9166964702602
30
0
0
VERTEX
8
0
10
135.08923076923
20
75.8706043860067
30
0
0
VERTEX
8
0
10
136.008205128205
20
75.8237915875662
30
0
0
VERTEX
8
0
10
136.927179487179
20
75.7756144480204
30
0
0
VERTEX
8
0
10
137.846153846153
20
75.7269370031922
30
0
0
VERTEX
8
0
10
138.765128205128
20
75.6775499653385
30
0
0
VERTEX
8
0
10
139.684102564102
20
75.6271169785961
30
0
0
VERTEX
8
0
10
140.603076923077
20
75.576269714077
30
0
0
VERTEX
8
0
10
141.522051282051
20
75.5248042860872
30
0
0
VERTEX
8
0
10
142.441025641025
20
75.4725965904397
30
0
0
VERTEX
8
0
10
143.36
20
75.4200957400492
30
0
0
VERTEX
8
0
10
144.278974358974
20
75.3671409093544
30
0
0
VERTEX
8
0
10
145.197948717948
20
75.3137449851036
30
0
0
VERTEX
8
0
10
146.116923076923
20
75.2602210253754
30
0
0
VERTEX
8
0
10
147.035897435897
20
75.206476785309
30
0
0
VERTEX
8
0
10
147.954871794871
20
75.1526065188134
30
0
0
VERTEX
8
0
10
148.873846153846
20
75.0988718543861
30
0
0
VERTEX
8
0
10
149.79282051282
20
75.0451457368661
30
0
0
VERTEX
8
0
10
150.711794871795
20
74.9917076705772
30
0
0
VERTEX
8
0
10
151.630769230769
20
74.9386531561322
30
0
0
VERTEX
8
0
10
152.549743589743
20
74.8860901590642
30
0
0
VERTEX
8
0
10
153.468717948718
20
74.834231569004
30
0
0
VERTEX
8
0
10
154.387692307692
20
74.783261092875
30
0
0
VERTEX
8
0
10
155.306666666666
20
74.7334298949157
30
0
0
VERTEX
8
0
10
156.225641025641
20
74.6850501705587
30
0
0
VERTEX
8
0
10
157.144615384615
20
74.6383194874207
30
0
0
VERTEX
8
0
10
158.063589743589
20
74.5931345402488
30
0
0
VERTEX
8
0
10
158.982564102564
20
74.5492850407029
30
0
0
VERTEX
8
0
10
159.901538461538
20
74.506608134364
30
0
0
VERTEX
8
0
10
160.820512820513
20
74.4649869693237
30
0
0
VERTEX
8
0
10
161.739487179487
20
74.4243330634359
30
0
0
VERTEX
8
0
10
162.658461538461
20
74.3845759259363
30
0
0
VERTEX
8
0
10
163.577435897436
20
74.3456573096044
30
0
0
VERTEX
8
0
10
164.49641025641
20
74.3075278002368
30
0
0
VERTEX
8
0
10
165.415384615384
20
74.2701446430156
30
0
0
VERTEX
8
0
10
166.334358974359
20
74.2334702752679
30
0
0
VERTEX
8
0
10
167.253333333333
20
74.1974712905915
30
0
0
VERTEX
8
0
10
168.172307692308
20
74.1621176810172
30
0
0
VERTEX
8
0
10
169.091282051282
20
74.1273822663312
30
0
0
VERTEX
8
0
10
170.010256410256
20
74.0932402539364
30
0
0
VERTEX
8
0
10
170.929230769231
20
74.0596688924898
30
0
0
VERTEX
8
0
10
171.848205128205
20
74.0266471946019
30
0
0
SEQEND
8
0
0
POLYLINE
8
0
62
4
70
0
10
0
20
0
30
0
0
VERTEX
8
0
10
1.83794871794872
20
12.0575021553068
30
0
0
VERTEX
8
0
10
2.75692307692308
20
15.5420388223031
30
0
0
VERTEX
8
0
10
3.67589743589744
20
19.021672106571
30
0
0
VERTEX
8
0
10
4.59487179487179
20
22.4693129718954
30
0
0
VERTEX
8
0
10
5.51384615384615
20
25.9854210856974
30
0
0
VERTEX
8
0
10
6.43282051282051
20
29.5330539042435
30
0
0
VERTEX
8
0
10
7.35179487179487
20
33.4697786102412
30
0
0
VERTEX
8
0
10
8.27076923076923
20
36.1356685635656
30
0
0
VERTEX
8
0
10
9.18974358974359
20
38.8000036150964
30
0
0
VERTEX
8
0
10
10.1087179487179
20
41.3839268727958
30
0
0
VERTEX
8
0
10
11.0276923076923
20
43.8822946965117
30
0
0
VERTEX
8
0
10
11.9466666666667
20
45.888092384797
30
0
0
VERTEX
8
0
10
12.865641025641
20
47.8818134013703
30
0
0
VERTEX
8
0
10
13.7846153846154
20
49.7687202640208
30
0
0
VERTEX
8
0
10
14.7035897435897
20
51.6298620771966
30
0
0
VERTEX
8
0
10
15.6225641025641
20
53.0033523308759
30
0
0
VERTEX
8
0
10
16.5415384615385
20
54.4797255180285
30
0
0
VERTEX
8
0
10
17.4605128205128
20
55.7784994111738
30
0
0
VERTEX
8
0
10
18.3794871794872
20
57.0358847638815
30
0
0
VERTEX
8
0
10
19.2984615384615
20
58.1596800163748
30
0
0
VERTEX
8
0
10
20.2174358974359
20
59.1989312280552
30
0
0
VERTEX
8
0
10
21.1364102564103
20
60.2101057608364
30
0
0
VERTEX
8
0
10
22.0553846153846
20
61.076932907631
30
0
0
VERTEX
8
0
10
22.974358974359
20
61.9150731988436
30
0
0
VERTEX
8
0
10
23.8933333333333
20
62.6627820517524
30
0
0
VERTEX
8
0
10
24.8123076923077
20
63.3697446758399
30
0
0
VERTEX
8
0
10
25.7312820512821
20
63.9966147311104
30
0
0
VERTEX
8
0
10
26.6502564102564
20
64.572599816467
30
0
0
VERTEX
8
0
10
27.5692307692308
20
65.118802906365
30
0
0
VERTEX
8
0
10
28.4882051282051
20
65.6334102862778
30
0
0
VERTEX
8
0
10
29.4071794871795
20
66.1351944120217
30
0
0
VERTEX
8
0
10
30.3261538461539
20
66.5477065820903
30
0
0
VERTEX
8
0
10
31.2451282051282
20
66.9455404851553
30
0
0
VERTEX
8
0
10
32.1641025641026
20
67.3258543572007
30
0
0
VERTEX
8
0
10
33.0830769230769
20
67.6856503910519
30
0
0
VERTEX
8
0
10
34.0020512820513
20
68.0387673738583
30
0
0
VERTEX
8
0
10
34.9210256410257
20
68.3161078161626
30
0
0
VERTEX
8
0
10
35.84
20
68.5961294399552
30
0
0
VERTEX
8
0
10
36.7589743589744
20
68.8641520999693
30
0
0
VERTEX
8
0
10
37.6779487179487
20
69.1200249772977
30
0
0
VERTEX
8
0
10
38.5969230769231
20
69.3689967312462
30
0
0
VERTEX
8
0
10
39.5158974358974
20
69.6021373390681
30
0
0
VERTEX
8
0
10
40.4348717948718
20
69.8345119934318
30
0
0
VERTEX
8
0
10
41.3538461538461
20
70.057737070529
30
0
0
VERTEX
8
0
10
42.2728205128205
20
70.2870541011757
30
0
0
VERTEX
8
0
10
43.1917948717949
20
70.5009795871223
30
0
0
VERTEX
8
0
10
44.1107692307692
20
70.7143803661103
30
0
0
VERTEX
8
0
10
45.0297435897436
20
70.9263565516418
30
0
0
VERTEX
8
0
10
45.9487179487179
20
71.1342568735061
30
0
0
VERTEX
8
0
10
46.8676923076923
20
71.3418891806059
30
0
0
VERTEX
8
0
10
47.7866666666666
20
71.5497939520745
30
0
0
VERTEX
8
0
10
48.705641025641
20
71.7503800160963
30
0
0
VERTEX
8
0
10
49.6246153846154
20
71.9543239438073
30
0
0
VERTEX
8
0
10
50.5435897435897
20
72.1546801571308
30
0
0
VERTEX
8
0
10
51.4625641025641
20
72.3472269101594
30
0
0
VERTEX
8
0
10
52.3815384615384
20
72.5544444308277
30
0
0
VERTEX
8
0
10
53.3005128205128
20
72.7354906899338
30
0
0
VERTEX
8
0
10
54.2194871794871
20
72.9167066838523
30
0
0
VERTEX
8
0
10
55.1384615384615
20
73.1024761315321
30
0
0
VERTEX
8
0
10
56.0574358974358
20
73.2755557125819
30
0
0
VERTEX
8
0
10
56.9764102564102
20
73.4484435657309
30
0
0
VERTEX
8
0
10
57.8953846153846
20
73.6205662123998
30
0
0
VERTEX
8
0
10
58.8143589743589
20
73.7884624207589
30
0
0
VERTEX
8
0
10
59.7333333333333
20
73.9555407247969
30
0
0
VERTEX
8
0
10
60.6523076923076
20
74.1209802641677
30
0
0
VERTEX
8
0
10
61.571282051282
20
74.2685335770048
30
0
0
VERTEX
8
0
10
62.4902564102563
20
74.4223586143928
30
0
0
VERTEX
8
0
10
63.4092307692307
20
74.5781786095466
30
0
0
VERTEX
8
0
10
64.328205128205
20
74.6289838602417
30
0
0
VERTEX
8
0
10
65.2471794871794
20
74.7182358653865
30
0
0
VERTEX
8
0
10
66.1661538461537
20
74.8019223381053
30
0
0
VERTEX
8
0
10
67.0851282051281
20
74.8818687058296
30
0
0
VERTEX
8
0
10
68.0041025641025
20
74.9763866260056
30
0
0
VERTEX
8
0
10
68.9230769230768
20
75.0699579988267
30
0
0
VERTEX
8
0
10
69.8420512820512
20
75.1574227810424
30
0
0
VERTEX
8
0
10
70.7610256410255
20
75.2119789800342
30
0
0
VERTEX
8
0
10
71.6799999999999
20
75.2631729491129
30
0
0
VERTEX
8
0
10
72.5989743589742
20
75.3138141114845
30
0
0
VERTEX
8
0
10
73.5179487179486
20
75.3722144684657
30
0
0
VERTEX
8
0
10
74.436923076923
20
75.4142307866355
30
0
0
VERTEX
8
0
10
75.3558974358973
20
75.4492830881647
30
0
0
VERTEX
8
0
10
76.2748717948717
20
75.4931131090502
30
0
0
VERTEX
8
0
10
77.193846153846
20
75.5210915109606
30
0
0
VERTEX
8
0
10
78.1128205128204
20
75.5481238272679
30
0
0
VERTEX
8
0
10
79.0317948717947
20
75.569664051828
30
0
0
VERTEX
8
0
10
79.9507692307691
20
75.5896895881732
30
0
0
VERTEX
8
0
10
80.8697435897435
20
75.6113298207326
30
0
0
VERTEX
8
0
10
81.7887179487178
20
75.6297984731539
30
0
0
VERTEX
8
0
10
82.7076923076922
20
75.6394946731266
30
0
0
VERTEX
8
0
10
83.6266666666665
20
75.6517696016483
30
0
0
VERTEX
8
0
10
84.5456410256409
20
75.6640249332992
30
0
0
VERTEX
8
0
10
85.4646153846152
20
75.673697837314
30
0
0
VERTEX
8
0
10
86.3835897435896
20
75.694254090336
30
0
0
VERTEX
8
0
10
87.3025641025639
20
75.7144220871233
30
0
0
VERTEX
8
0
10
88.2215384615383
20
75.735782008589
30
0
0
VERTEX
8
0
10
89.1405128205126
20
75.7562687909451
30
0
0
VERTEX
8
0
10
90.059487179487
20
75.7687184538684
30
0
0
VERTEX
8
0
10
90.9784615384614
20
75.7791110268651
30
0
0
VERTEX
8
0
10
91.8974358974357
20
75.7889630757583
30
0
0
VERTEX
8
0
10
92.8164102564101
20
75.7964063288611
30
0
0
VERTEX
8
0
10
93.7353846153844
20
75.8055603608196
30
0
0
VERTEX
8
0
10
94.6543589743588
20
75.8047256956554
30
0
0
VERTEX
8
0
10
95.5733333333331
20
75.8044893543238
30
0
0
VERTEX
8
0
10
96.4923076923075
20
75.8074820607695
30
0
0
VERTEX
8
0
10
97.4112820512818
20
75.8102143914448
30
0
0
VERTEX
8
0
10
98.3302564102562
20
75.8062233532698
30
0
0
VERTEX
8
0
10
99.2492307692306
20
75.8014124694899
30
0
0
VERTEX
8
0
10
100.168205128205
20
75.8002164396458
30
0
0
VERTEX
8
0
10
101.087179487179
20
75.792213806182
30
0
0
VERTEX
8
0
10
102.006153846154
20
75.7834332988838
30
0
0
VERTEX
8
0
10
102.925128205128
20
75.7711949043558
30
0
0
VERTEX
8
0
10
103.844102564102
20
75.7596414194422
30
0
0
VERTEX
8
0
10
104.763076923077
20
75.7458382372031
30
0
0
VERTEX
8
0
10
105.682051282051
20
75.7276068371048
30
0
0
VERTEX
8
0
10
106.601025641025
20
75.7129149559588
30
0
0
VERTEX
8
0
10
107.52
20
75.6977053235123
30
0
0
VERTEX
8
0
10
108.438974358974
20
75.6789290816858
30
0
0
VERTEX
8
0
10
109.357948717948
20
75.6600363554862
30
0
0
VERTEX
8
0
10
110.276923076923
20
75.6449780394824
30
0
0
VERTEX
8
0
10
111.195897435897
20
75.6290485692715
30
0
0
VERTEX
8
0
10
112.114871794872
20
75.6125412937767
30
0
0
VERTEX
8
0
10
113.033846153846
20
75.5942602948125
30
0
0
VERTEX
8
0
10
113.95282051282
20
75.5735158945758
30
0
0
VERTEX
8
0
10
114.871794871795
20
75.5503336113974
30
0
0
VERTEX
8
0
10
115.790769230769
20
75.5262204211032
30
0
0
VERTEX
8
0
10
116.709743589743
20
75.5016971847858
30
0
0
VERTEX
8
0
10
117.628717948718
20
75.477750823798
30
0
0
VERTEX
8
0
10
118.547692307692
20
75.4493388083454
30
0
0
VERTEX
8
0
10
119.466666666666
20
75.4205260370154
30
0
0
VERTEX
8
0
10
120.385641025641
20
75.398064885282
30
0
0
VERTEX
8
0
10
121.304615384615
20
75.3768186677193
30
0
0
VERTEX
8
0
10
122.223589743589
20
75.3558281420168
30
0
0
VERTEX
8
0
10
123.142564102564
20
75.3325473987039
30
0
0
VERTEX
8
0
10
124.061538461538
20
75.3060359665217
30
0
0
VERTEX
8
0
10
124.980512820513
20
75.2774382647546
30
0
0
VERTEX
8
0
10
125.899487179487
20
75.2482703401286
30
0
0
VERTEX
8
0
10
126.818461538461
20
75.2186778833885
30
0
0
VERTEX
8
0
10
127.737435897436
20
75.190629874297
30
0
0
VERTEX
8
0
10
128.65641025641
20
75.1618932630323
30
0
0
VERTEX
8
0
10
129.575384615384
20
75.1316608665223
30
0
0
VERTEX
8
0
10
130.494358974359
20
75.1010908695043
30
0
0
VERTEX
8
0
10
131.413333333333
20
75.091672337014
30
0
0
VERTEX
8
0
10
132.332307692307
20
75.0775408096708
30
0
0
VERTEX
8
0
10
133.251282051282
20
75.0489433779862
30
0
0
VERTEX
8
0
10
134.170256410256
20
75.0204355071259
30
0
0
VERTEX
8
0
10
135.08923076923
20
75.0025475120623
30
0
0
VERTEX
8
0
10
136.008205128205
20
74.9895996204298
30
0
0
VERTEX
8
0
10
136.927179487179
20
74.9671553366737
30
0
0
VERTEX
8
0
10
137.846153846153
20
74.9254534767335
30
0
0
VERTEX
8
0
10
138.765128205128
20
74.8913670453208
30
0
0
VERTEX
8
0
10
139.684102564102
20
74.8668434843441
30
0
0
VERTEX
8
0
10
140.603076923077
20
74.8511943103338
30
0
0
VERTEX
8
0
10
141.522051282051
20
74.8395140609652
30
0
0
VERTEX
8
0
10
142.441025641025
20
74.826939719716
30
0
0
VERTEX
8
0
10
143.36
20
74.8138605402462
30
0
0
VERTEX
8
0
10
144.278974358974
20
74.8000934711269
30
0
0
VERTEX
8
0
10
145.197948717948
20
74.7856269727101
30
0
0
VERTEX
8
0
10
146.116923076923
20
74.7707279944119
30
0
0
VERTEX
8
0
10
147.035897435897
20
74.755262145022
30
0
0
VERTEX
8
0
10
147.954871794871
20
74.7392773231379
30
0
0
VERTEX
8
0
10
148.873846153846
20
74.7229749582303
30
0
0
VERTEX
8
0
10
149.79282051282
20
74.7061905566948
30
0
0
VERTEX
8
0
10
150.711794871795
20
74.6891075777139
30
0
0
VERTEX
8
0
10
151.630769230769
20
74.6717474669634
30
0
0
VERTEX
8
0
10
152.549743589743
20
74.6541297518406
30
0
0
VERTEX
8
0
10
153.468717948718
20
74.6363412710654
30
0
0
VERTEX
8
0
10
154.387692307692
20
74.6184184731175
30
0
0
VERTEX
8
0
10
155.306666666666
20
74.6004115169249
30
0
0
VERTEX
8
0
10
156.225641025641
20
74.5823749655351
30
0
0
VERTEX
8
0
10
157.144615384615
20
74.5643447177904
30
0
0
VERTEX
8
0
10
158.063589743589
20
74.5463369745907
30
0
0
VERTEX
8
0
10
158.982564102564
20
74.5283550658358
30
0
0
VERTEX
8
0
10
159.901538461538
20
74.5103994640845
30
0
0
VERTEX
8
0
10
160.820512820513
20
74.4924702447457
30
0
0
VERTEX
8
0
10
161.739487179487
20
74.4745674338505
30
0
0
VERTEX
8
0
10
162.658461538461
20
74.4566910513207
30
0
0
VERTEX
8
0
10
163.577435897436
20
74.4388411163067
30
0
0
VERTEX
8
0
10
164.49641025641
20
74.421017647853
30
0
0
VERTEX
8
0
10
165.415384615384
20
74.4032206649817
30
0
0
VERTEX
8
0
10
166.334358974359
20
74.3854501867037
30
0
0
VERTEX
8
0
10
167.253333333333
20
74.3677062320187
30
0
0
VERTEX
8
0
10
168.172307692308
20
74.349988819917
30
0
0
VERTEX
8
0
10
169.091282051282
20
74.3322979693781
30
0
0
VERTEX
8
0
10
170.010256410256
20
74.314633699371
30
0
0
VERTEX
8
0
10
170.929230769231
20
74.2969960288547
30
0
0
VERTEX
8
0
10
171.848205128205
20
74.2793849767773
30
0
0
SEQEND
8
0
0
POLYLINE
8
0
62
2
70
0
10
0
20
0
30
0
0
VERTEX
8
0
10
1.83794871794872
20
17.5421452532884
30
0
0
VERTEX
8
0
10
2.75692307692308
20
19.3315855602923
30
0
0
VERTEX
8
0
10
3.67589743589744
20
20.724687865264
30
0
0
VERTEX
8
0
10
4.59487179487179
20
22.2755237067711
30
0
0
VERTEX
8
0
10
5.51384615384615
20
24.1197912049459
30
0
0
VERTEX
8
0
10
6.43282051282051
20
26.1669750544867
30
0
0
VERTEX
8
0
10
7.35179487179487
20
28.2705826420265
30
0
0
VERTEX
8
0
10
8.27076923076923
20
30.3182270886408
30
0
0
VERTEX
8
0
10
9.18974358974359
20
32.2462055315083
30
0
0
VERTEX
8
0
10
10.1087179487179
20
34.025761508975
30
0
0
VERTEX
8
0
10
11.0276923076923
20
35.6619300700304
30
0
0
VERTEX
8
0
10
11.9466666666667
20
37.0131062741032
30
0
0
VERTEX
8
0
10
12.865641025641
20
38.2237207198153
30
0
0
VERTEX
8
0
10
13.7846153846154
20
39.7548690392584
30
0
0
VERTEX
8
0
10
14.7035897435897
20
40.5313550217295
30
0
0
VERTEX
8
0
10
15.6225641025641
20
41.2529046026787
30
0
0
VERTEX
8
0
10
16.5415384615385
20
41.9116258924045
30
0
0
VERTEX
8
0
10
17.4605128205128
20
42.502861849618
30
0
0
VERTEX
8
0
10
18.3794871794872
20
43.0243912719357
30
0
0
VERTEX
8
0
10
19.2984615384615
20
43.4757890925659
30
0
0
VERTEX
8
0
10
20.2174358974359
20
43.8579327056372
30
0
0
VERTEX
8
0
10
21.1364102564103
20
44.1726292196483
30
0
0
VERTEX
8
0
10
22.0553846153846
20
44.4223377535857
30
0
0
VERTEX
8
0
10
22.974358974359
20
44.5961660816203
30
0
0
VERTEX
8
0
10
23.8933333333333
20
44.7080567261977
30
0
0
VERTEX
8
0
10
24.8123076923077
20
44.7640123973062
30
0
0
VERTEX
8
0
10
25.7312820512821
20
44.8376544416354
30
0
0
VERTEX
8
0
10
26.6502564102564
20
44.7670854272109
30
0
0
VERTEX
8
0
10
27.5692307692308
20
44.6607267220473
30
0
0
VERTEX
8
0
10
28.4882051282051
20
44.5205204532101
30
0
0
VERTEX
8
0
10
29.4071794871795
20
44.3486124347514
30
0
0
VERTEX
8
0
10
30.3261538461539
20
44.1472980026018
30
0
0
VERTEX
8
0
10
31.2451282051282
20
43.9189782785409
30
0
0
VERTEX
8
0
10
32.1641025641026
20
43.6661250081012
30
0
0
VERTEX
8
0
10
33.0830769230769
20
43.391252429831
30
0
0
VERTEX
8
0
10
34.0020512820513
20
43.0968949225157
30
0
0
VERTEX
8
0
10
34.9210256410257
20
42.7788059663999
30
0
0
VERTEX
8
0
10
35.84
20
42.4486947374779
30
0
0
VERTEX
8
0
10
36.7589743589744
20
42.1064083490477
30
0
0
VERTEX
8
0
10
37.6779487179487
20
41.770255288618
30
0
0
VERTEX
8
0
10
38.5969230769231
20
41.4053340754743
30
0
0
VERTEX
8
0
10
39.5158974358974
20
41.0376270017414
30
0
0
VERTEX
8
0
10
40.4348717948718
20
40.6692252322431
30
0
0
VERTEX
8
0
10
41.3538461538461
20
40.3022464674649
30
0
0
VERTEX
8
0
10
42.2728205128205
20
39.9388504018386
30
0
0
VERTEX
8
0
10
43.1917948717949
20
39.5812719280383
30
0
0
VERTEX
8
0
10
44.1107692307692
20
39.2318883508833
30
0
0
VERTEX
8
0
10
45.0297435897436
20
38.8933635368389
30
0
0
VERTEX
8
0
10
45.9487179487179
20
38.5690171651018
30
0
0
VERTEX
8
0
10
46.8676923076923
20
38.2605600599219
30
0
0
VERTEX
8
0
10
47.7866666666666
20
37.9787363746819
30
0
0
VERTEX
8
0
10
48.705641025641
20
37.7146413834139
30
0
0
VERTEX
8
0
10
49.6246153846154
20
37.4682319006801
30
0
0
VERTEX
8
0
10
50.5435897435897
20
37.2238140039913
30
0
0
VERTEX
8
0
10
51.4625641025641
20
36.9874136167986
30
0
0
VERTEX
8
0
10
52.3815384615384
20
36.7575316068616
30
0
0
VERTEX
8
0
10
53.3005128205128
20
36.5330115253621
30
0
0
VERTEX
8
0
10
54.2194871794871
20
36.312936107215
30
0
0
VERTEX
8
0
10
55.1384615384615
20
36.096564784111
30
0
0
VERTEX
8
0
10
56.0574358974358
20
35.8832928031932
30
0
0
VERTEX
8
0
10
56.9764102564102
20
35.672622882481
30
0
0
VERTEX
8
0
10
57.8953846153846
20
35.4641446731318
30
0
0
VERTEX
8
0
10
58.8143589743589
20
35.2553048190759
30
0
0
VERTEX
8
0
10
59.7333333333333
20
35.0493639630453
30
0
0
VERTEX
8
0
10
60.6523076923076
20
34.844697650416
30
0
0
VERTEX
8
0
10
61.571282051282
20
34.643175557069
30
0
0
VERTEX
8
0
10
62.4902564102563
20
34.4397724530535
30
0
0
VERTEX
8
0
10
63.4092307692307
20
34.237498369635
30
0
0
VERTEX
8
0
10
64.328205128205
20
34.0362419842817
30
0
0
VERTEX
8
0
10
65.2471794871794
20
33.8359168140976
30
0
0
VERTEX
8
0
10
66.1661538461537
20
33.6364580104818
30
0
0
VERTEX
8
0
10
67.0851282051281
20
33.4378195773652
30
0
0
VERTEX
8
0
10
68.0041025641025
20
33.2399719379542
30
0
0
VERTEX
8
0
10
68.9230769230768
20
33.0428997910731
30
0
0
VERTEX
8
0
10
69.8420512820512
20
32.8466002100421
30
0
0
VERTEX
8
0
10
70.7610256410255
20
32.64987311099
30
0
0
VERTEX
8
0
10
71.6799999999999
20
32.4547433692491
30
0
0
VERTEX
8
0
10
72.5989743589742
20
32.2604127487948
30
0
0
VERTEX
8
0
10
73.5179487179486
20
32.0676345709096
30
0
0
VERTEX
8
0
10
74.436923076923
20
31.8747147213697
30
0
0
VERTEX
8
0
10
75.3558974358973
20
31.6828327302464
30
0
0
VERTEX
8
0
10
76.2748717948717
20
31.4920234642493
30
0
0
VERTEX
8
0
10
77.193846153846
20
31.3023250704846
30
0
0
VERTEX
8
0
10
78.1128205128204
20
31.1137781393636
30
0
0
VERTEX
8
0
10
79.0317948717947
20
30.9264249314447
30
0
0
VERTEX
8
0
10
79.9507692307691
20
30.7403086625049
30
0
0
VERTEX
8
0
10
80.8697435897435
20
30.5554728420903
30
0
0
VERTEX
8
0
10
81.7887179487178
20
30.3719606615205
30
0
0
VERTEX
8
0
10
82.7076923076922
20
30.1892194856554
30
0
0
VERTEX
8
0
10
83.6266666666665
20
30.0083070016302
30
0
0
VERTEX
8
0
10
84.5456410256409
20
29.8288352820256
30
0
0
VERTEX
8
0
10
85.4646153846152
20
29.6510661717915
30
0
0
VERTEX
8
0
10
86.3835897435896
20
29.474485421927
30
0
0
VERTEX
8
0
10
87.3025641025639
20
29.2994983942376
30
0
0
VERTEX
8
0
10
88.2215384615383
20
29.1261282207654
30
0
0
VERTEX
8
0
10
89.1405128205126
20
28.9543947078949
30
0
0
VERTEX
8
0
10
90.059487179487
20
28.7843140772694
30
0
0
VERTEX
8
0
10
90.9784615384614
20
28.6158987518017
30
0
0
VERTEX
8
0
10
91.8974358974357
20
28.449157189999
30
0
0
VERTEX
8
0
10
92.8164102564101
20
28.2840937734543
30
0
0
VERTEX
8
0
10
93.7353846153844
20
28.1207087547032
30
0
0
VERTEX
8
0
10
94.6543589743588
20
27.9587437955272
30
0
0
VERTEX
8
0
10
95.5733333333331
20
27.7986374136607
30
0
0
VERTEX
8
0
10
96.4923076923075
20
27.6401872576914
30
0
0
VERTEX
8
0
10
97.4112820512818
20
27.4834344719293
30
0
0
VERTEX
8
0
10
98.3302564102562
20
27.3282217680079
30
0
0
VERTEX
8
0
10
99.2492307692306
20
27.1746326572774
30
0
0
VERTEX
8
0
10
100.168205128205
20
27.0226485670282
30
0
0
VERTEX
8
0
10
101.087179487179
20
26.8722605791677
30
0
0
VERTEX
8
0
10
102.006153846154
20
26.723463472261
30
0
0
VERTEX
8
0
10
102.925128205128
20
26.5761539871993
30
0
0
VERTEX
8
0
10
103.844102564102
20
26.4301688838252
30
0
0
VERTEX
8
0
10
104.763076923077
20
26.285395427468
30
0
0
VERTEX
8
0
10
105.682051282051
20
26.1417615036056
30
0
0
VERTEX
8
0
10
106.601025641025
20
25.9991486583322
30
0
0
VERTEX
8
0
10
107.52
20
25.8576662536029
30
0
0
VERTEX
8
0
10
108.438974358974
20
25.7172472070555
30
0
0
VERTEX
8
0
10
109.357948717948
20
25.5779061081275
30
0
0
VERTEX
8
0
10
110.276923076923
20
25.4396489216483
30
0
0
VERTEX
8
0
10
111.195897435897
20
25.3025297499499
30
0
0
VERTEX
8
0
10
112.114871794872
20
25.1666037460237
30
0
0
VERTEX
8
0
10
113.033846153846
20
25.0319449200791
30
0
0
VERTEX
8
0
10
113.95282051282
20
24.8986490237569
30
0
0
VERTEX
8
0
10
114.871794871795
20
24.7668380137844
30
0
0
VERTEX
8
0
10
115.790769230769
20
24.6366671554879
30
0
0
VERTEX
8
0
10
116.709743589743
20
24.5083370716247
30
0
0
VERTEX
8
0
10
117.628717948718
20
24.3821163672751
30
0
0
VERTEX
8
0
10
118.547692307692
20
24.258388318772
30
0
0
VERTEX
8
0
10
119.466666666666
20
24.1377147433299
30
0
0
VERTEX
8
0
10
120.385641025641
20
24.0205156392037
30
0
0
VERTEX
8
0
10
121.304615384615
20
23.9064936772646
30
0
0
VERTEX
8
0
10
122.223589743589
20
23.7951928876791
30
0
0
VERTEX
8
0
10
123.142564102564
20
23.6863065176751
30
0
0
VERTEX
8
0
10
124.061538461538
20
23.579621694675
30
0
0
VERTEX
8
0
10
124.980512820513
20
23.4749772443276
30
0
0
VERTEX
8
0
10
125.899487179487
20
23.3722438808822
30
0
0
VERTEX
8
0
10
126.818461538461
20
23.2713138719785
30
0
0
VERTEX
8
0
10
127.737435897436
20
23.1720950107546
30
0
0
VERTEX
8
0
10
128.65641025641
20
23.0745068002809
30
0
0
VERTEX
8
0
10
129.575384615384
20
22.9784778884411
30
0
0
VERTEX
8
0
10
130.494358974359
20
22.8839442622114
30
0
0
VERTEX
8
0
10
131.413333333333
20
22.7908479293785
30
0
0
VERTEX
8
0
10
132.332307692307
20
22.6991359272108
30
0
0
VERTEX
8
0
10
133.251282051282
20
22.6087595584629
30
0
0
VERTEX
8
0
10
134.170256410256
20
22.5196737902441
30
0
0
VERTEX
8
0
10
135.08923076923
20
22.4318367725647
30
0
0
VERTEX
8
0
10
136.008205128205
20
22.3452094467562
30
0
0
VERTEX
8
0
10
136.927179487179
20
22.2597552226774
30
0
0
VERTEX
8
0
10
137.846153846153
20
22.1754397094431
30
0
0
VERTEX
8
0
10
138.765128205128
20
22.09223048842
30
0
0
VERTEX
8
0
10
139.684102564102
20
22.0100969200381
30
0
0
VERTEX
8
0
10
140.603076923077
20
21.9290099779789
30
0
0
VERTEX
8
0
10
141.522051282051
20
21.848942105761
30
0
0
VERTEX
8
0
10
142.441025641025
20
21.7698670918317
30
0
0
VERTEX
8
0
10
143.36
20
21.6917599600791
30
0
0
VERTEX
8
0
10
144.278974358974
20
21.6145968733015
30
0
0
VERTEX
8
0
10
145.197948717948
20
21.5383550476438
30
0
0
VERTEX
8
0
10
146.116923076923
20
21.4630126763784
30
0
0
VERTEX
8
0
10
147.035897435897
20
21.3885488617019
30
0
0
VERTEX
8
0
10
147.954871794871
20
21.3149435534454
30
0
0
VERTEX
8
0
10
148.873846153846
20
21.242177493781
30
0
0
VERTEX
8
0
10
149.79282051282
20
21.1702321671563
30
0
0
VERTEX
8
0
10
150.711794871795
20
21.0990897548078
30
0
0
VERTEX
8
0
10
151.630769230769
20
21.0287330933028
30
0
0
VERTEX
8
0
10
152.549743589743
20
20.9591456366411
30
0
0
VERTEX
8
0
10
153.468717948718
20
20.8903114215125
30
0
0
VERTEX
8
0
10
154.387692307692
20
20.8222150353668
30
0
0
VERTEX
8
0
10
155.306666666666
20
20.7548415869921
30
0
0
VERTEX
8
0
10
156.225641025641
20
20.6881766793457
30
0
0
VERTEX
8
0
10
157.144615384615
20
20.6222063844068
30
0
0
VERTEX
8
0
10
158.063589743589
20
20.556917219854
30
0
0
VERTEX
8
0
10
158.982564102564
20
20.4922961273935
30
0
0
VERTEX
8
0
10
159.901538461538
20
20.4283304525817
30
0
0
VERTEX
8
0
10
160.820512820513
20
20.3650079260081
30
0
0
VERTEX
8
0
10
161.739487179487
20
20.302316645717
30
0
0
VERTEX
8
0
10
162.658461538461
20
20.2402450607598
30
0
0
VERTEX
8
0
10
163.577435897436
20
20.1787819557834
30
0
0
VERTEX
8
0
10
164.49641025641
20
20.117916436567
30
0
0
VERTEX
8
0
10
165.415384615384
20
20.0576379164322
30
0
0
VERTEX
8
0
10
166.334358974359
20
19.9979361034553
30
0
0
VERTEX
8
0
10
167.253333333333
20
19.9388009884209
30
0
0
VERTEX
8
0
10
168.172307692308
20
19.88022283346
30
0
0
VERTEX
8
0
10
169.091282051282
20
19.8221921613203
30
0
0
VERTEX
8
0
10
170.010256410256
20
19.7646997452252
30
0
0
VERTEX
8
0
10
170.929230769231
20
19.7077365992757
30
0
0
VERTEX
8
0
10
171.848205128205
20
19.6512939693605
30
0
0
SEQEND
8
0
0
POLYLINE
8
0
62
3
70
0
10
0
20
0
30
0
0
VERTEX
8
0
10
1.83794871794872
20
18.2276116064107
30
0
0
VERTEX
8
0
10
2.75692307692308
20
20.6540540774226
30
0
0
VERTEX
8
0
10
3.67589743589744
20
22.7955001437982
30
0
0
VERTEX
8
0
10
4.59487179487179
20
25.1236962644224
30
0
0
VERTEX
8
0
10
5.51384615384615
20
27.7152056329319
30
0
0
VERTEX
8
0
10
6.43282051282051
20
30.4610309059541
30
0
0
VERTEX
8
0
10
7.35179487179487
20
33.2210925849556
30
0
0
VERTEX
8
0
10
8.27076923076923
20
35.8947207824477
30
0
0
VERTEX
8
0
10
9.18974358974359
20
38.4270998911595
30
0
0
VERTEX
8
0
10
10.1087179487179
20
40.7947209817307
30
0
0
VERTEX
8
0
10
11.0276923076923
20
42.9882287275962
30
0
0
VERTEX
8
0
10
11.9466666666667
20
44.9193435568376
30
0
0
VERTEX
8
0
10
12.865641025641
20
46.6979664770619
30
0
0
VERTEX
8
0
10
13.7846153846154
20
48.6927786880588
30
0
0
VERTEX
8
0
10
14.7035897435897
20
50.0468799671296
30
0
0
VERTEX
8
0
10
15.6225641025641
20
51.3244906877072
30
0
0
VERTEX
8
0
10
16.5415384615385
20
52.5197702003699
30
0
0
VERTEX
8
0
10
17.4605128205128
20
53.6298270442064
30
0
0
VERTEX
8
0
10
18.3794871794872
20
54.6539412116716
30
0
0
VERTEX
8
0
10
19.2984615384615
20
55.5929626955414
30
0
0
VERTEX
8
0
10
20.2174358974359
20
56.4488584015873
30
0
0
VERTEX
8
0
10
21.1364102564103
20
57.2243760228004
30
0
0
VERTEX
8
0
10
22.0553846153846
20
57.9227968954009
30
0
0
VERTEX
8
0
10
22.974358974359
20
58.5287567120308
30
0
0
VERTEX
8
0
10
23.8933333333333
20
59.0702572475658
30
0
0
VERTEX
8
0
10
24.8123076923077
20
59.5460874531629
30
0
0
VERTEX
8
0
10
25.7312820512821
20
60.0073662818475
30
0
0
VERTEX
8
0
10
26.6502564102564
20
60.3462599097919
30
0
0
VERTEX
8
0
10
27.5692307692308
20
60.6388000957897
30
0
0
VERTEX
8
0
10
28.4882051282051
20
60.8876290258449
30
0
0
VERTEX
8
0
10
29.4071794871795
20
61.0955258505994
30
0
0
VERTEX
8
0
10
30.3261538461539
20
61.2653572481263
30
0
0
VERTEX
8
0
10
31.2451282051282
20
61.4000375295087
30
0
0
VERTEX
8
0
10
32.1641025641026
20
61.5024964775045
30
0
0
VERTEX
8
0
10
33.0830769230769
20
61.5756534536553
30
0
0
VERTEX
8
0
10
34.0020512820513
20
61.6223966076066
30
0
0
VERTEX
8
0
10
34.9210256410257
20
61.6366143239912
30
0
0
VERTEX
8
0
10
35.84
20
61.6354543399158
30
0
0
VERTEX
8
0
10
36.7589743589744
20
61.6161325181747
30
0
0
VERTEX
8
0
10
37.6779487179487
20
61.5892608927479
30
0
0
VERTEX
8
0
10
38.5969230769231
20
61.53820031733
30
0
0
VERTEX
8
0
10
39.5158974358974
20
61.477989010864
30
0
0
VERTEX
8
0
10
40.4348717948718
20
61.4107773768835
30
0
0
VERTEX
8
0
10
41.3538461538461
20
61.338672190866
30
0
0
VERTEX
8
0
10
42.2728205128205
20
61.2637441398083
30
0
0
VERTEX
8
0
10
43.1917948717949
20
61.1880468375242
30
0
0
VERTEX
8
0
10
44.1107692307692
20
61.1136572381326
30
0
0
VERTEX
8
0
10
45.0297435897436
20
61.0427638164167
30
0
0
VERTEX
8
0
10
45.9487179487179
20
60.9778940424559
30
0
0
VERTEX
8
0
10
46.8676923076923
20
60.9180207417681
30
0
0
VERTEX
8
0
10
47.7866666666666
20
60.8745749128434
30
0
0
VERTEX
8
0
10
48.705641025641
20
60.8397341992116
30
0
0
VERTEX
8
0
10
49.6246153846154
20
60.8115124950664
30
0
0
VERTEX
8
0
10
50.5435897435897
20
60.7840116536282
30
0
0
VERTEX
8
0
10
51.4625641025641
20
60.7587077500496
30
0
0
VERTEX
8
0
10
52.3815384615384
20
60.7346224236483
30
0
0
VERTEX
8
0
10
53.3005128205128
20
60.7110127226812
30
0
0
VERTEX
8
0
10
54.2194871794871
20
60.6873017332656
30
0
0
VERTEX
8
0
10
55.1384615384615
20
60.6630361986231
30
0
0
VERTEX
8
0
10
56.0574358974358
20
60.6378584811747
30
0
0
VERTEX
8
0
10
56.9764102564102
20
60.611486917391
30
0
0
VERTEX
8
0
10
57.8953846153846
20
60.5837014416723
30
0
0
VERTEX
8
0
10
58.8143589743589
20
60.551411277662
30
0
0
VERTEX
8
0
10
59.7333333333333
20
60.519587705577
30
0
0
VERTEX
8
0
10
60.6523076923076
20
60.4859452025006
30
0
0
VERTEX
8
0
10
61.571282051282
20
60.4504616744067
30
0
0
VERTEX
8
0
10
62.4902564102563
20
60.4128632117155
30
0
0
VERTEX
8
0
10
63.4092307692307
20
60.3734973490907
30
0
0
VERTEX
8
0
10
64.328205128205
20
60.3323544726954
30
0
0
VERTEX
8
0
10
65.2471794871794
20
60.2894419184727
30
0
0
VERTEX
8
0
10
66.1661538461537
20
60.2447815615305
30
0
0
VERTEX
8
0
10
67.0851282051281
20
60.1984077167045
30
0
0
VERTEX
8
0
10
68.0041025641025
20
60.150365297379
30
0
0
VERTEX
8
0
10
68.9230769230768
20
60.1007081908796
30
0
0
VERTEX
8
0
10
69.8420512820512
20
60.0494978170685
30
0
0
VERTEX
8
0
10
70.7610256410255
20
59.9951823933509
30
0
0
VERTEX
8
0
10
71.6799999999999
20
59.9407272810518
30
0
0
VERTEX
8
0
10
72.5989743589742
20
59.8849390532048
30
0
0
VERTEX
8
0
10
73.5179487179486
20
59.8276255246438
30
0
0
VERTEX
8
0
10
74.436923076923
20
59.7694253142108
30
0
0
VERTEX
8
0
10
75.3558974358973
20
59.7101946489372
30
0
0
VERTEX
8
0
10
76.2748717948717
20
59.6500120984317
30
0
0
VERTEX
8
0
10
77.193846153846
20
59.5889569497462
30
0
0
VERTEX
8
0
10
78.1128205128204
20
59.5271086087721
30
0
0
VERTEX
8
0
10
79.0317948717947
20
59.4645460567809
30
0
0
VERTEX
8
0
10
79.9507692307691
20
59.4013473577145
30
0
0
VERTEX
8
0
10
80.8697435897435
20
59.3375892124922
30
0
0
VERTEX
8
0
10
81.7887179487178
20
59.2733465571111
30
0
0
VERTEX
8
0
10
82.7076923076922
20
59.2078837388306
30
0
0
VERTEX
8
0
10
83.6266666666665
20
59.1427397519289
30
0
0
VERTEX
8
0
10
84.5456410256409
20
59.0773283801999
30
0
0
VERTEX
8
0
10
85.4646153846152
20
59.0114893121156
30
0
0
VERTEX
8
0
10
86.3835897435896
20
58.9457719759866
30
0
0
VERTEX
8
0
10
87.3025641025639
20
58.8799881110425
30
0
0
VERTEX
8
0
10
88.2215384615383
20
58.8141897690408
30
0
0
VERTEX
8
0
10
89.1405128205126
20
58.7484255893697
30
0
0
VERTEX
8
0
10
90.059487179487
20
58.6827406997914
30
0
0
VERTEX
8
0
10
90.9784615384614
20
58.6171766510346
30
0
0
VERTEX
8
0
10
91.8974358974357
20
58.5517713860805
30
0
0
VERTEX
8
0
10
92.8164102564101
20
58.4865592457372
30
0
0
VERTEX
8
0
10
93.7353846153844
20
58.421571013179
30
0
0
VERTEX
8
0
10
94.6543589743588
20
58.3564842848592
30
0
0
VERTEX
8
0
10
95.5733333333331
20
58.2919695293255
30
0
0
VERTEX
8
0
10
96.4923076923075
20
58.2277563603988
30
0
0
VERTEX
8
0
10
97.4112820512818
20
58.1637441830455
30
0
0
VERTEX
8
0
10
98.3302564102562
20
58.1002123524971
30
0
0
VERTEX
8
0
10
99.2492307692306
20
58.03703301866
30
0
0
VERTEX
8
0
10
100.168205128205
20
57.9742192688844
30
0
0
VERTEX
8
0
10
101.087179487179
20
57.9117877908492
30
0
0
VERTEX
8
0
10
102.006153846154
20
57.8497556225906
30
0
0
VERTEX
8
0
10
102.925128205128
20
57.7880916181263
30
0
0
VERTEX
8
0
10
103.844102564102
20
57.7267359544393
30
0
0
VERTEX
8
0
10
104.763076923077
20
57.6656537392296
30
0
0
VERTEX
8
0
10
105.682051282051
20
57.6048305422493
30
0
0
VERTEX
8
0
10
106.601025641025
20
57.5441645426246
30
0
0
VERTEX
8
0
10
107.52
20
57.4838608177805
30
0
0
VERTEX
8
0
10
108.438974358974
20
57.4238480567363
30
0
0
VERTEX
8
0
10
109.357948717948
20
57.3641218704755
30
0
0
VERTEX
8
0
10
110.276923076923
20
57.3047901744278
30
0
0
VERTEX
8
0
10
111.195897435897
20
57.2458534180272
30
0
0
VERTEX
8
0
10
112.114871794872
20
57.1873626282644
30
0
0
VERTEX
8
0
10
113.033846153846
20
57.1293778473434
30
0
0
VERTEX
8
0
10
113.95282051282
20
57.0719692236336
30
0
0
VERTEX
8
0
10
114.871794871795
20
57.0152187608301
30
0
0
VERTEX
8
0
10
115.790769230769
20
56.9592231653472
30
0
0
VERTEX
8
0
10
116.709743589743
20
56.9040987538483
30
0
0
VERTEX
8
0
10
117.628717948718
20
56.8499907736499
30
0
0
VERTEX
8
0
10
118.547692307692
20
56.7970922879131
30
0
0
VERTEX
8
0
10
119.466666666666
20
56.7456711331757
30
0
0
VERTEX
8
0
10
120.385641025641
20
56.6959194228396
30
0
0
VERTEX
8
0
10
121.304615384615
20
56.6477056974467
30
0
0
VERTEX
8
0
10
122.223589743589
20
56.6008244309755
30
0
0
VERTEX
8
0
10
123.142564102564
20
56.5551344990918
30
0
0
VERTEX
8
0
10
124.061538461538
20
56.5105360178871
30
0
0
VERTEX
8
0
10
124.980512820513
20
56.4669520904651
30
0
0
VERTEX
8
0
10
125.899487179487
20
56.4243201624321
30
0
0
VERTEX
8
0
10
126.818461538461
20
56.3825874813611
30
0
0
VERTEX
8
0
10
127.737435897436
20
56.3417084312558
30
0
0
VERTEX
8
0
10
128.65641025641
20
56.3016428343029
30
0
0
VERTEX
8
0
10
129.575384615384
20
56.2623548017214
30
0
0
VERTEX
8
0
10
130.494358974359
20
56.2238119195169
30
0
0
VERTEX
8
0
10
131.413333333333
20
56.1859846501356
30
0
0
VERTEX
8
0
10
132.332307692307
20
56.1488458795655
30
0
0
VERTEX
8
0
10
133.251282051282
20
56.1123705660133
30
0
0
VERTEX
8
0
10
134.170256410256
20
56.0765354616725
30
0
0
VERTEX
8
0
10
135.08923076923
20
56.0413188884434
30
0
0
VERTEX
8
0
10
136.008205128205
20
56.0067005543499
30
0
0
VERTEX
8
0
10
136.927179487179
20
55.9726614012476
30
0
0
VERTEX
8
0
10
137.846153846153
20
55.93918347699
30
0
0
VERTEX
8
0
10
138.765128205128
20
55.9062498269977
30
0
0
VERTEX
8
0
10
139.684102564102
20
55.8738444014251
30
0
0
VERTEX
8
0
10
140.603076923077
20
55.8419519750116
30
0
0
VERTEX
8
0
10
141.522051282051
20
55.8105580773575
30
0
0
VERTEX
8
0
10
142.441025641025
20
55.779648931857
30
0
0
VERTEX
8
0
10
143.36
20
55.7492114018745
30
0
0
VERTEX
8
0
10
144.278974358974
20
55.7192329430381
30
0
0
VERTEX
8
0
10
145.197948717948
20
55.6897015607335
30
0
0
VERTEX
8
0
10
146.116923076923
20
55.6606057720502
30
0
0
VERTEX
8
0
10
147.035897435897
20
55.6319345715626
30
0
0
VERTEX
8
0
10
147.954871794871
20
55.6036774004361
30
0
0
VERTEX
8
0
10
148.873846153846
20
55.5758241184285
30
0
0
VERTEX
8
0
10
149.79282051282
20
55.5483649784268
30
0
0
VERTEX
8
0
10
150.711794871795
20
55.521290603215
30
0
0
VERTEX
8
0
10
151.630769230769
20
55.4945919642138
30
0
0
VERTEX
8
0
10
152.549743589743
20
55.4682603619686
30
0
0
VERTEX
8
0
10
153.468717948718
20
55.4422874081958
30
0
0
VERTEX
8
0
10
154.387692307692
20
55.4166650092214
30
0
0
VERTEX
8
0
10
155.306666666666
20
55.3913853506693
30
0
0
VERTEX
8
0
10
156.225641025641
20
55.3664408832736
30
0
0
VERTEX
8
0
10
157.144615384615
20
55.3418243097051
30
0
0
VERTEX
8
0
10
158.063589743589
20
55.3175285723173
30
0
0
VERTEX
8
0
10
158.982564102564
20
55.2935468417247
30
0
0
VERTEX
8
0
10
159.901538461538
20
55.269872506141
30
0
0
VERTEX
8
0
10
160.820512820513
20
55.2464991614092
30
0
0
VERTEX
8
0
10
161.739487179487
20
55.2234206016629
30
0
0
VERTEX
8
0
10
162.658461538461
20
55.2006308105697
30
0
0
VERTEX
8
0
10
163.577435897436
20
55.1781239531053
30
0
0
VERTEX
8
0
10
164.49641025641
20
55.155894367818
30
0
0
VERTEX
8
0
10
165.415384615384
20
55.1339365595447
30
0
0
VERTEX
8
0
10
166.334358974359
20
55.112245192544
30
0
0
VERTEX
8
0
10
167.253333333333
20
55.0908150840143
30
0
0
VERTEX
8
0
10
168.172307692308
20
55.0696411979706
30
0
0
VERTEX
8
0
10
169.091282051282
20
55.0487186394517
30
0
0
VERTEX
8
0
10
170.010256410256
20
55.0280426490358
30
0
0
VERTEX
8
0
10
170.929230769231
20
55.0076085976444
30
0
0
VERTEX
8
0
10
171.848205128205
20
54.9874119816111
30
0
0
SEQEND
8
0
0
POLYLINE
8
0
62
4
70
0
10
0
20
0
30
0
0
VERTEX
8
0
10
1.83794871794872
20
11.8418853515733
30
0
0
VERTEX
8
0
10
2.75692307692308
20
15.2397625658495
30
0
0
VERTEX
8
0
10
3.67589743589744
20
18.6292570267615
30
0
0
VERTEX
8
0
10
4.59487179487179
20
21.985946283499
30
0
0
VERTEX
8
0
10
5.51384615384615
20
25.4107927167515
30
0
0
VERTEX
8
0
10
6.43282051282051
20
28.8690641796772
30
0
0
VERTEX
8
0
10
7.35179487179487
20
32.7134648625246
30
0
0
VERTEX
8
0
10
8.27076923076923
20
35.2489939390034
30
0
0
VERTEX
8
0
10
9.18974358974359
20
37.7876952155621
30
0
0
VERTEX
8
0
10
10.1087179487179
20
40.2197658525115
30
0
0
VERTEX
8
0
10
11.0276923076923
20
42.5667220463702
30
0
0
VERTEX
8
0
10
11.9466666666667
20
44.3867886175261
30
0
0
VERTEX
8
0
10
12.865641025641
20
46.1880189028992
30
0
0
VERTEX
8
0
10
13.7846153846154
20
47.8743519238541
30
0
0
VERTEX
8
0
10
14.7035897435897
20
49.5347096402945
30
0
0
VERTEX
8
0
10
15.6225641025641
20
50.6786134878129
30
0
0
VERTEX
8
0
10
16.5415384615385
20
51.9340147844096
30
0
0
VERTEX
8
0
10
17.4605128205128
20
53.0004609636429
30
0
0
VERTEX
8
0
10
18.3794871794872
20
54.0458920218255
30
0
0
VERTEX
8
0
10
19.2984615384615
20
54.9488670192718
30
0
0
VERTEX
8
0
10
20.2174358974359
20
55.7774109492502
30
0
0
VERTEX
8
0
10
21.1364102564103
20
56.5775978451253
30
0
0
VERTEX
8
0
10
22.0553846153846
20
57.224217123048
30
0
0
VERTEX
8
0
10
22.974358974359
20
57.8688996523447
30
0
0
VERTEX
8
0
10
23.8933333333333
20
58.4010364512586
30
0
0
VERTEX
8
0
10
24.8123076923077
20
58.908793749309
30
0
0
VERTEX
8
0
10
25.7312820512821
20
59.3266241441754
30
0
0
VERTEX
8
0
10
26.6502564102564
20
59.6944716331715
30
0
0
VERTEX
8
0
10
27.5692307692308
20
60.0417225954117
30
0
0
VERTEX
8
0
10
28.4882051282051
20
60.3495879268785
30
0
0
VERTEX
8
0
10
29.4071794871795
20
60.6428042676641
30
0
0
VERTEX
8
0
10
30.3261538461539
20
60.8430724122293
30
0
0
VERTEX
8
0
10
31.2451282051282
20
61.0204191705173
30
0
0
VERTEX
8
0
10
32.1641025641026
20
61.1773006113335
30
0
0
VERTEX
8
0
10
33.0830769230769
20
61.3156939419848
30
0
0
VERTEX
8
0
10
34.0020512820513
20
61.4403664378898
30
0
0
VERTEX
8
0
10
34.9210256410257
20
61.4812654453823
30
0
0
VERTEX
8
0
10
35.84
20
61.5257861706842
30
0
0
VERTEX
8
0
10
36.7589743589744
20
61.5500932011841
30
0
0
VERTEX
8
0
10
37.6779487179487
20
61.5602652668373
30
0
0
VERTEX
8
0
10
38.5969230769231
20
61.5650773857205
30
0
0
VERTEX
8
0
10
39.5158974358974
20
61.5408664160709
30
0
0
VERTEX
8
0
10
40.4348717948718
20
61.5163601057347
30
0
0
VERTEX
8
0
10
41.3538461538461
20
61.4791334941047
30
0
0
VERTEX
8
0
10
42.2728205128205
20
61.4369264588779
30
0
0
VERTEX
8
0
10
43.1917948717949
20
61.3833833256928
30
0
0
VERTEX
8
0
10
44.1107692307692
20
61.3236634768572
30
0
0
VERTEX
8
0
10
45.0297435897436
20
61.2602910026211
30
0
0
VERTEX
8
0
10
45.9487179487179
20
61.1976269152539
30
0
0
VERTEX
8
0
10
46.8676923076923
20
61.1288494018925
30
0
0
VERTEX
8
0
10
47.7866666666666
20
61.05998875806
30
0
0
VERTEX
8
0
10
48.705641025641
20
60.9890823199171
30
0
0
VERTEX
8
0
10
49.6246153846154
20
60.9161885171001
30
0
0
VERTEX
8
0
10
50.5435897435897
20
60.8441688982891
30
0
0
VERTEX
8
0
10
51.4625641025641
20
60.7700528876375
30
0
0
VERTEX
8
0
10
52.3815384615384
20
60.7074590630335
30
0
0
VERTEX
8
0
10
53.3005128205128
20
60.6392088632218
30
0
0
VERTEX
8
0
10
54.2194871794871
20
60.5712240829338
30
0
0
VERTEX
8
0
10
55.1384615384615
20
60.5011003692168
30
0
0
VERTEX
8
0
10
56.0574358974358
20
60.4272803998821
30
0
0
VERTEX
8
0
10
56.9764102564102
20
60.3504194113567
30
0
0
VERTEX
8
0
10
57.8953846153846
20
60.2715087828526
30
0
0
VERTEX
8
0
10
58.8143589743589
20
60.1950625643178
30
0
0
VERTEX
8
0
10
59.7333333333333
20
60.1167197350985
30
0
0
VERTEX
8
0
10
60.6523076923076
20
60.0364199011077
30
0
0
VERTEX
8
0
10
61.571282051282
20
59.9530687055117
30
0
0
VERTEX
8
0
10
62.4902564102563
20
59.8769932709807
30
0
0
VERTEX
8
0
10
63.4092307692307
20
59.8054048859835
30
0
0
VERTEX
8
0
10
64.328205128205
20
59.7318758779999
30
0
0
VERTEX
8
0
10
65.2471794871794
20
59.6646830458443
30
0
0
VERTEX
8
0
10
66.1661538461537
20
59.5942895015777
30
0
0
VERTEX
8
0
10
67.0851282051281
20
59.5258291180974
30
0
0
VERTEX
8
0
10
68.0041025641025
20
59.4563295742214
30
0
0
VERTEX
8
0
10
68.9230769230768
20
59.3850678707566
30
0
0
VERTEX
8
0
10
69.8420512820512
20
59.3121132459442
30
0
0
VERTEX
8
0
10
70.7610256410255
20
59.2365609562688
30
0
0
VERTEX
8
0
10
71.6799999999999
20
59.1553973054789
30
0
0
VERTEX
8
0
10
72.5989743589742
20
59.0733150500716
30
0
0
VERTEX
8
0
10
73.5179487179486
20
59.0023283710515
30
0
0
VERTEX
8
0
10
74.436923076923
20
58.9350197298999
30
0
0
VERTEX
8
0
10
75.3558974358973
20
58.8662706384821
30
0
0
VERTEX
8
0
10
76.2748717948717
20
58.8110604260529
30
0
0
VERTEX
8
0
10
77.193846153846
20
58.7501813190402
30
0
0
VERTEX
8
0
10
78.1128205128204
20
58.6857507171574
30
0
0
VERTEX
8
0
10
79.0317948717947
20
58.6201278749134
30
0
0
VERTEX
8
0
10
79.9507692307691
20
58.5575538257397
30
0
0
VERTEX
8
0
10
80.8697435897435
20
58.4958050218288
30
0
0
VERTEX
8
0
10
81.7887179487178
20
58.4329112970012
30
0
0
VERTEX
8
0
10
82.7076923076922
20
58.3629948862074
30
0
0
VERTEX
8
0
10
83.6266666666665
20
58.2938740839828
30
0
0
VERTEX
8
0
10
84.5456410256409
20
58.2277536625975
30
0
0
VERTEX
8
0
10
85.4646153846152
20
58.1605533864184
30
0
0
VERTEX
8
0
10
86.3835897435896
20
58.1026427687009
30
0
0
VERTEX
8
0
10
87.3025641025639
20
58.0501955520578
30
0
0
VERTEX
8
0
10
88.2215384615383
20
57.9968397368356
30
0
0
VERTEX
8
0
10
89.1405128205126
20
57.9426267941127
30
0
0
VERTEX
8
0
10
90.059487179487
20
57.8876064471139
30
0
0
VERTEX
8
0
10
90.9784615384614
20
57.8283456054003
30
0
0
VERTEX
8
0
10
91.8974358974357
20
57.7679607167415
30
0
0
VERTEX
8
0
10
92.8164102564101
20
57.7089983206181
30
0
0
VERTEX
8
0
10
93.7353846153844
20
57.6512553767656
30
0
0
VERTEX
8
0
10
94.6543589743588
20
57.5926969682954
30
0
0
VERTEX
8
0
10
95.5733333333331
20
57.5360414236818
30
0
0
VERTEX
8
0
10
96.4923076923075
20
57.4785385942387
30
0
0
VERTEX
8
0
10
97.4112820512818
20
57.4234840656942
30
0
0
VERTEX
8
0
10
98.3302564102562
20
57.3688517222016
30
0
0
VERTEX
8
0
10
99.2492307692306
20
57.3137624250723
30
0
0
VERTEX
8
0
10
100.168205128205
20
57.2664117915358
30
0
0
VERTEX
8
0
10
101.087179487179
20
57.2160622970097
30
0
0
VERTEX
8
0
10
102.006153846154
20
57.1612340489565
30
0
0
VERTEX
8
0
10
102.925128205128
20
57.1064050208527
30
0
0
VERTEX
8
0
10
103.844102564102
20
57.0526015118967
30
0
0
VERTEX
8
0
10
104.763076923077
20
56.9989643903096
30
0
0
VERTEX
8
0
10
105.682051282051
20
56.9450321702554
30
0
0
VERTEX
8
0
10
106.601025641025
20
56.8957671267149
30
0
0
VERTEX
8
0
10
107.52
20
56.844918302964
30
0
0
VERTEX
8
0
10
108.438974358974
20
56.7938293930232
30
0
0
VERTEX
8
0
10
109.357948717948
20
56.7424957059842
30
0
0
VERTEX
8
0
10
110.276923076923
20
56.6981157558735
30
0
0
VERTEX
8
0
10
111.195897435897
20
56.6571447126285
30
0
0
VERTEX
8
0
10
112.114871794872
20
56.6159738946167
30
0
0
VERTEX
8
0
10
113.033846153846
20
56.5746379670868
30
0
0
VERTEX
8
0
10
113.95282051282
20
56.5331727114137
30
0
0
VERTEX
8
0
10
114.871794871795
20
56.488299445845
30
0
0
VERTEX
8
0
10
115.790769230769
20
56.4432032312965
30
0
0
VERTEX
8
0
10
116.709743589743
20
56.4001599997033
30
0
0
VERTEX
8
0
10
117.628717948718
20
56.3585873051437
30
0
0
VERTEX
8
0
10
118.547692307692
20
56.3170806305657
30
0
0
VERTEX
8
0
10
119.466666666666
20
56.2756822538598
30
0
0
VERTEX
8
0
10
120.385641025641
20
56.2344223145005
30
0
0
VERTEX
8
0
10
121.304615384615
20
56.1992628484251
30
0
0
VERTEX
8
0
10
122.223589743589
20
56.165102152064
30
0
0
VERTEX
8
0
10
123.142564102564
20
56.1293079083437
30
0
0
VERTEX
8
0
10
124.061538461538
20
56.0919755674482
30
0
0
VERTEX
8
0
10
124.980512820513
20
56.0547715643005
30
0
0
VERTEX
8
0
10
125.899487179487
20
56.0176961546359
30
0
0
VERTEX
8
0
10
126.818461538461
20
55.9807495939541
30
0
0
VERTEX
8
0
10
127.737435897436
20
55.9465884480469
30
0
0
VERTEX
8
0
10
128.65641025641
20
55.9132217749611
30
0
0
VERTEX
8
0
10
129.575384615384
20
55.8799621866704
30
0
0
VERTEX
8
0
10
130.494358974359
20
55.8468098744979
30
0
0
VERTEX
8
0
10
131.413333333333
20
55.8137650296036
30
0
0
VERTEX
8
0
10
132.332307692307
20
55.7843743191106
30
0
0
VERTEX
8
0
10
133.251282051282
20
55.754812582797
30
0
0
VERTEX
8
0
10
134.170256410256
20
55.7276930702263
30
0
0
VERTEX
8
0
10
135.08923076923
20
55.7015610489995
30
0
0
VERTEX
8
0
10
136.008205128205
20
55.6754983462875
30
0
0
VERTEX
8
0
10
136.927179487179
20
55.6384651618086
30
0
0
VERTEX
8
0
10
137.846153846153
20
55.6044933510812
30
0
0
VERTEX
8
0
10
138.765128205128
20
55.5754865958308
30
0
0
VERTEX
8
0
10
139.684102564102
20
55.5465517130733
30
0
0
VERTEX
8
0
10
140.603076923077
20
55.5293051336776
30
0
0
VERTEX
8
0
10
141.522051282051
20
55.5184664168395
30
0
0
VERTEX
8
0
10
142.441025641025
20
55.5076402307689
30
0
0
VERTEX
8
0
10
143.36
20
55.4968265827994
30
0
0
VERTEX
8
0
10
144.278974358974
20
55.4860254802614
30
0
0
VERTEX
8
0
10
145.197948717948
20
55.4752369304827
30
0
0
VERTEX
8
0
10
146.116923076923
20
55.4644609407886
30
0
0
VERTEX
8
0
10
147.035897435897
20
55.4536975185011
30
0
0
VERTEX
8
0
10
147.954871794871
20
55.4429466709395
30
0
0
VERTEX
8
0
10
148.873846153846
20
55.4322084054202
30
0
0
VERTEX
8
0
10
149.79282051282
20
55.4214827292569
30
0
0
VERTEX
8
0
10
150.711794871795
20
55.4107696497602
30
0
0
VERTEX
8
0
10
151.630769230769
20
55.4000691742378
30
0
0
VERTEX
8
0
10
152.549743589743
20
55.3893813099943
30
0
0
VERTEX
8
0
10
153.468717948718
20
55.3787060643318
30
0
0
VERTEX
8
0
10
154.387692307692
20
55.3680434445487
30
0
0
VERTEX
8
0
10
155.306666666666
20
55.357393457941
30
0
0
VERTEX
8
0
10
156.225641025641
20
55.3467561118015
30
0
0
VERTEX
8
0
10
157.144615384615
20
55.3361314134197
30
0
0
VERTEX
8
0
10
158.063589743589
20
55.3255193700824
30
0
0
VERTEX
8
0
10
158.982564102564
20
55.314919989073
30
0
0
VERTEX
8
0
10
159.901538461538
20
55.3043332776718
30
0
0
VERTEX
8
0
10
160.820512820513
20
55.2937592431564
30
0
0
VERTEX
8
0
10
161.739487179487
20
55.2831978928007
30
0
0
VERTEX
8
0
10
162.658461538461
20
55.2726492338757
30
0
0
VERTEX
8
0
10
163.577435897436
20
55.2621132736492
30
0
0
VERTEX
8
0
10
164.49641025641
20
55.2515900193858
30
0
0
VERTEX
8
0
10
165.415384615384
20
55.2410794783468
30
0
0
VERTEX
8
0
10
166.334358974359
20
55.2305816577904
30
0
0
VERTEX
8
0
10
167.253333333333
20
55.2200965649712
30
0
0
VERTEX
8
0
10
168.172307692308
20
55.2096242071409
30
0
0
VERTEX
8
0
10
169.091282051282
20
55.1991645915478
30
0
0
VERTEX
8
0
10
170.010256410256
20
55.1887177254365
30
0
0
VERTEX
8
0
10
170.929230769231
20
55.1782836160491
30
0
0
VERTEX
8
0
10
171.848205128205
20
55.167862270623
30
0
0
SEQEND
8
0
0
POLYLINE
8
0
62
2
70
0
10
0
20
0
30
0
0
VERTEX
8
0
10
1.83794871794872
20
4.0943798530078
30
0
0
VERTEX
8
0
10
2.75692307692308
20
4.01282129638917
30
0
0
VERTEX
8
0
10
3.67589743589744
20
2.99165881191903
30
0
0
VERTEX
8
0
10
4.59487179487179
20
6.4016048372016
30
0
0
VERTEX
8
0
10
5.51384615384615
20
5.31669036463014
30
0
0
VERTEX
8
0
10
6.43282051282051
20
5.60457762748491
30
0
0
VERTEX
8
0
10
7.35179487179487
20
7.96887621144252
30
0
0
VERTEX
8
0
10
8.27076923076923
20
6.69329421563269
30
0
0
VERTEX
8
0
10
9.18974358974359
20
7.72631938712172
30
0
0
VERTEX
8
0
10
10.1087179487179
20
8.24586684972163
30
0
0
VERTEX
8
0
10
11.0276923076923
20
8.63134394872998
30
0
0
VERTEX
8
0
10
11.9466666666667
20
9.53907921452229
30
0
0
VERTEX
8
0
10
12.865641025641
20
9.94460160384778
30
0
0
VERTEX
8
0
10
13.7846153846154
20
10.3641934211612
30
0
0
VERTEX
8
0
10
14.7035897435897
20
11.1710449744713
30
0
0
VERTEX
8
0
10
15.6225641025641
20
11.5116274629645
30
0
0
VERTEX
8
0
10
16.5415384615385
20
11.942077576142
30
0
0
VERTEX
8
0
10
17.4605128205128
20
12.6700484902833
30
0
0
VERTEX
8
0
10
18.3794871794872
20
12.9660032153258
30
0
0
VERTEX
8
0
10
19.2984615384615
20
13.3949669226235
30
0
0
VERTEX
8
0
10
20.2174358974359
20
14.0579898676115
30
0
0
VERTEX
8
0
10
21.1364102564103
20
14.3194629756029
30
0
0
VERTEX
8
0
10
22.0553846153846
20
14.7404049564316
30
0
0
VERTEX
8
0
10
22.974358974359
20
15.3477716201688
30
0
0
VERTEX
8
0
10
23.8933333333333
20
15.5665896128687
30
0
0
VERTEX
8
0
10
24.8123076923077
20
15.9898292770657
30
0
0
VERTEX
8
0
10
25.7312820512821
20
16.3736185302985
30
0
0
VERTEX
8
0
10
26.6502564102564
20
16.7404829091389
30
0
0
VERTEX
8
0
10
27.5692307692308
20
17.1513692596609
30
0
0
VERTEX
8
0
10
28.4882051282051
20
17.4952937249123
30
0
0
VERTEX
8
0
10
29.4071794871795
20
17.8376810068434
30
0
0
VERTEX
8
0
10
30.3261538461539
20
18.2311437121366
30
0
0
VERTEX
8
0
10
31.2451282051282
20
18.5397156520471
30
0
0
VERTEX
8
0
10
32.1641025641026
20
18.8606762435935
30
0
0
VERTEX
8
0
10
33.0830769230769
20
19.2339360543301
30
0
0
VERTEX
8
0
10
34.0020512820513
20
19.5106574710636
30
0
0
VERTEX
8
0
10
34.9210256410257
20
19.8120236324462
30
0
0
VERTEX
8
0
10
35.84
20
20.1635820234938
30
0
0
VERTEX
8
0
10
36.7589743589744
20
20.4112410636805
30
0
0
VERTEX
8
0
10
37.6779487179487
20
20.6941130883388
30
0
0
VERTEX
8
0
10
38.5969230769231
20
21.0232091383299
30
0
0
VERTEX
8
0
10
39.5158974358974
20
21.245897129463
30
0
0
VERTEX
8
0
10
40.4348717948718
20
21.5090884906445
30
0
0
VERTEX
8
0
10
41.3538461538461
20
21.7627303832322
30
0
0
VERTEX
8
0
10
42.2728205128205
20
22.0102501874883
30
0
0
VERTEX
8
0
10
43.1917948717949
20
22.2588254639432
30
0
0
VERTEX
8
0
10
44.1107692307692
20
22.4872723276853
30
0
0
VERTEX
8
0
10
45.0297435897436
20
22.7125371668568
30
0
0
VERTEX
8
0
10
45.9487179487179
20
22.9449307007002
30
0
0
VERTEX
8
0
10
46.8676923076923
20
23.1490589962538
30
0
0
VERTEX
8
0
10
47.7866666666666
20
23.3536395687015
30
0
0
VERTEX
8
0
10
48.705641025641
20
23.5687459123814
30
0
0
VERTEX
8
0
10
49.6246153846154
20
23.7493740683904
30
0
0
VERTEX
8
0
10
50.5435897435897
20
23.93433225982
30
0
0
VERTEX
8
0
10
51.4625641025641
20
24.131347506636
30
0
0
VERTEX
8
0
10
52.3815384615384
20
24.2892096849989
30
0
0
VERTEX
8
0
10
53.3005128205128
20
24.4552264003857
30
0
0
VERTEX
8
0
10
54.2194871794871
20
24.633535546732
30
0
0
VERTEX
8
0
10
55.1384615384615
20
24.7725437243636
30
0
0
VERTEX
8
0
10
56.0574358974358
20
24.9167146132317
30
0
0
VERTEX
8
0
10
56.9764102564102
20
25.0562747263585
30
0
0
VERTEX
8
0
10
57.8953846153846
20
25.1912313964535
30
0
0
VERTEX
8
0
10
58.8143589743589
20
25.3189019745538
30
0
0
VERTEX
8
0
10
59.7333333333333
20
25.437300438746
30
0
0
VERTEX
8
0
10
60.6523076923076
20
25.5513068536529
30
0
0
VERTEX
8
0
10
61.571282051282
20
25.6615011265431
30
0
0
VERTEX
8
0
10
62.4902564102563
20
25.7585641832908
30
0
0
VERTEX
8
0
10
63.4092307692307
20
25.8519562108178
30
0
0
VERTEX
8
0
10
64.328205128205
20
25.9436528124193
30
0
0
VERTEX
8
0
10
65.2471794871794
20
26.0190095750499
30
0
0
VERTEX
8
0
10
66.1661538461537
20
26.0916326155757
30
0
0
VERTEX
8
0
10
67.0851282051281
20
26.1635876905618
30
0
0
VERTEX
8
0
10
68.0041025641025
20
26.2164726776455
30
0
0
VERTEX
8
0
10
68.9230769230768
20
26.2674985010004
30
0
0
VERTEX
8
0
10
69.8420512820512
20
26.3179124646659
30
0
0
VERTEX
8
0
10
70.7610256410255
20
26.349327973861
30
0
0
VERTEX
8
0
10
71.6799999999999
20
26.3741358315386
30
0
0
VERTEX
8
0
10
72.5989743589742
20
26.3922674352064
30
0
0
VERTEX
8
0
10
73.5179487179486
20
26.4023911949385
30
0
0
VERTEX
8
0
10
74.436923076923
20
26.3997180837585
30
0
0
VERTEX
8
0
10
75.3558974358973
20
26.3848743841951
30
0
0
VERTEX
8
0
10
76.2748717948717
20
26.3561954628307
30
0
0
VERTEX
8
0
10
77.193846153846
20
26.3062140593827
30
0
0
VERTEX
8
0
10
78.1128205128204
20
26.2213665233581
30
0
0
VERTEX
8
0
10
79.0317948717947
20
26.1356637688131
30
0
0
VERTEX
8
0
10
79.9507692307691
20
26.0790172275125
30
0
0
VERTEX
8
0
10
80.8697435897435
20
26.0344034127
30
0
0
VERTEX
8
0
10
81.7887179487178
20
26.0002953575174
30
0
0
VERTEX
8
0
10
82.7076923076922
20
25.9741086941751
30
0
0
VERTEX
8
0
10
83.6266666666665
20
25.9473897136613
30
0
0
VERTEX
8
0
10
84.5456410256409
20
25.9255602663142
30
0
0
VERTEX
8
0
10
85.4646153846152
20
25.9083690109784
30
0
0
VERTEX
8
0
10
86.3835897435896
20
25.8886573274165
30
0
0
VERTEX
8
0
10
87.3025641025639
20
25.8687105384826
30
0
0
VERTEX
8
0
10
88.2215384615383
20
25.8507946962949
30
0
0
VERTEX
8
0
10
89.1405128205126
20
25.8340044121569
30
0
0
VERTEX
8
0
10
90.059487179487
20
25.8148167544953
30
0
0
VERTEX
8
0
10
90.9784615384614
20
25.795792423481
30
0
0
VERTEX
8
0
10
91.8974358974357
20
25.7768472070744
30
0
0
VERTEX
8
0
10
92.8164102564101
20
25.7561285924252
30
0
0
VERTEX
8
0
10
93.7353846153844
20
25.7341400603584
30
0
0
VERTEX
8
0
10
94.6543589743588
20
25.7116663424774
30
0
0
VERTEX
8
0
10
95.5733333333331
20
25.6879294919224
30
0
0
VERTEX
8
0
10
96.4923076923075
20
25.6617768408368
30
0
0
VERTEX
8
0
10
97.4112820512818
20
25.6348812504264
30
0
0
VERTEX
8
0
10
98.3302564102562
20
25.6070904167727
30
0
0
VERTEX
8
0
10
99.2492307692306
20
25.5759570188498
30
0
0
VERTEX
8
0
10
100.168205128205
20
25.5440232187262
30
0
0
VERTEX
8
0
10
101.087179487179
20
25.5114261346662
30
0
0
VERTEX
8
0
10
102.006153846154
20
25.4759970943696
30
0
0
VERTEX
8
0
10
102.925128205128
20
25.4373273253552
30
0
0
VERTEX
8
0
10
103.844102564102
20
25.3980017683239
30
0
0
VERTEX
8
0
10
104.763076923077
20
25.3575164666076
30
0
0
VERTEX
8
0
10
105.682051282051
20
25.313508285547
30
0
0
VERTEX
8
0
10
106.601025641025
20
25.2682016630344
30
0
0
VERTEX
8
0
10
107.52
20
25.2213516407352
30
0
0
VERTEX
8
0
10
108.438974358974
20
25.1716283505128
30
0
0
VERTEX
8
0
10
109.357948717948
20
25.1200618115365
30
0
0
VERTEX
8
0
10
110.276923076923
20
25.0667366612587
30
0
0
VERTEX
8
0
10
111.195897435897
20
25.0110160901429
30
0
0
VERTEX
8
0
10
112.114871794872
20
24.9530015420234
30
0
0
VERTEX
8
0
10
113.033846153846
20
24.8931368920533
30
0
0
VERTEX
8
0
10
113.95282051282
20
24.8312157564014
30
0
0
VERTEX
8
0
10
114.871794871795
20
24.7666409366141
30
0
0
VERTEX
8
0
10
115.790769230769
20
24.7002122969179
30
0
0
VERTEX
8
0
10
116.709743589743
20
24.6319565411402
30
0
0
VERTEX
8
0
10
117.628717948718
20
24.5614804811811
30
0
0
VERTEX
8
0
10
118.547692307692
20
24.4877963777826
30
0
0
VERTEX
8
0
10
119.466666666666
20
24.4126691937458
30
0
0
VERTEX
8
0
10
120.385641025641
20
24.3358035223605
30
0
0
VERTEX
8
0
10
121.304615384615
20
24.2558869152445
30
0
0
VERTEX
8
0
10
122.223589743589
20
24.1742836565947
30
0
0
VERTEX
8
0
10
123.142564102564
20
24.0907807410296
30
0
0
VERTEX
8
0
10
124.061538461538
20
24.004646593494
30
0
0
VERTEX
8
0
10
124.980512820513
20
23.9166441869296
30
0
0
VERTEX
8
0
10
125.899487179487
20
23.8266816069681
30
0
0
VERTEX
8
0
10
126.818461538461
20
23.7344129091108
30
0
0
VERTEX
8
0
10
127.737435897436
20
23.6401591726852
30
0
0
VERTEX
8
0
10
128.65641025641
20
23.5439630807657
30
0
0
VERTEX
8
0
10
129.575384615384
20
23.4457178400458
30
0
0
VERTEX
8
0
10
130.494358974359
20
23.3454384635204
30
0
0
VERTEX
8
0
10
131.413333333333
20
23.2432964790054
30
0
0
VERTEX
8
0
10
132.332307692307
20
23.1393188494593
30
0
0
VERTEX
8
0
10
133.251282051282
20
23.0336083008845
30
0
0
VERTEX
8
0
10
134.170256410256
20
22.9256074708045
30
0
0
VERTEX
8
0
10
135.08923076923
20
22.8161420565103
30
0
0
VERTEX
8
0
10
136.008205128205
20
22.7051260402735
30
0
0
VERTEX
8
0
10
136.927179487179
20
22.5921334245416
30
0
0
VERTEX
8
0
10
137.846153846153
20
22.4777478413065
30
0
0
VERTEX
8
0
10
138.765128205128
20
22.3619281836829
30
0
0
VERTEX
8
0
10
139.684102564102
20
22.2445051996882
30
0
0
VERTEX
8
0
10
140.603076923077
20
22.1258436508037
30
0
0
VERTEX
8
0
10
141.522051282051
20
22.005964979488
30
0
0
VERTEX
8
0
10
142.441025641025
20
21.8848656952992
30
0
0
VERTEX
8
0
10
143.36
20
21.7627832201885
30
0
0
VERTEX
8
0
10
144.278974358974
20
21.6398090341414
30
0
0
VERTEX
8
0
10
145.197948717948
20
21.5160480614565
30
0
0
VERTEX
8
0
10
146.116923076923
20
21.3916885883006
30
0
0
VERTEX
8
0
10
147.035897435897
20
21.2668969423492
30
0
0
VERTEX
8
0
10
147.954871794871
20
21.1418611196103
30
0
0
VERTEX
8
0
10
148.873846153846
20
21.0168237423373
30
0
0
VERTEX
8
0
10
149.79282051282
20
20.8919423376581
30
0
0
VERTEX
8
0
10
150.711794871795
20
20.7675946113839
30
0
0
VERTEX
8
0
10
151.630769230769
20
20.6440821141509
30
0
0
VERTEX
8
0
10
152.549743589743
20
20.5217641725916
30
0
0
VERTEX
8
0
10
153.468717948718
20
20.4011452436947
30
0
0
VERTEX
8
0
10
154.387692307692
20
20.2828165274534
30
0
0
VERTEX
8
0
10
155.306666666666
20
20.1675792376942
30
0
0
VERTEX
8
0
10
156.225641025641
20
20.0564597380159
30
0
0
VERTEX
8
0
10
157.144615384615
20
19.950142681216
30
0
0
VERTEX
8
0
10
158.063589743589
20
19.8482654164586
30
0
0
VERTEX
8
0
10
158.982564102564
20
19.7501000920697
30
0
0
VERTEX
8
0
10
159.901538461538
20
19.655094082429
30
0
0
VERTEX
8
0
10
160.820512820513
20
19.5628599424062
30
0
0
VERTEX
8
0
10
161.739487179487
20
19.473110777267
30
0
0
VERTEX
8
0
10
162.658461538461
20
19.3856227175818
30
0
0
VERTEX
8
0
10
163.577435897436
20
19.3002143035869
30
0
0
VERTEX
8
0
10
164.49641025641
20
19.216734338085
30
0
0
VERTEX
8
0
10
165.415384615384
20
19.1350541962657
30
0
0
VERTEX
8
0
10
166.334358974359
20
19.0550626684211
30
0
0
VERTEX
8
0
10
167.253333333333
20
18.9766623421653
30
0
0
VERTEX
8
0
10
168.172307692308
20
18.8997669724068
30
0
0
VERTEX
8
0
10
169.091282051282
20
18.8242995132546
30
0
0
VERTEX
8
0
10
170.010256410256
20
18.7501906095617
30
0
0
VERTEX
8
0
10
170.929230769231
20
18.6773774172136
30
0
0
VERTEX
8
0
10
171.848205128205
20
18.605802664494
30
0
0
SEQEND
8
0
0
POLYLINE
8
0
62
3
70
0
10
0
20
0
30
0
0
VERTEX
8
0
10
1.83794871794872
20
4.3704442151958
30
0
0
VERTEX
8
0
10
2.75692307692308
20
4.61838669562771
30
0
0
VERTEX
8
0
10
3.67589743589744
20
4.26058330830721
30
0
0
VERTEX
8
0
10
4.59487179487179
20
7.42760182969601
30
0
0
VERTEX
8
0
10
5.51384615384615
20
6.96716622508352
30
0
0
VERTEX
8
0
10
6.43282051282051
20
7.66402712691933
30
0
0
VERTEX
8
0
10
7.35179487179487
20
9.93730370579029
30
0
0
VERTEX
8
0
10
8.27076923076923
20
9.44533783942242
30
0
0
VERTEX
8
0
10
9.18974358974359
20
10.6667265213939
30
0
0
VERTEX
8
0
10
10.1087179487179
20
11.5234331959371
30
0
0
VERTEX
8
0
10
11.0276923076923
20
12.2878107423789
30
0
0
VERTEX
8
0
10
11.9466666666667
20
13.4021051224056
30
0
0
VERTEX
8
0
10
12.865641025641
20
14.1662197994069
30
0
0
VERTEX
8
0
10
13.7846153846154
20
14.9403054759117
30
0
0
VERTEX
8
0
10
14.7035897435897
20
15.9661795192015
30
0
0
VERTEX
8
0
10
15.6225641025641
20
16.6735600747717
30
0
0
VERTEX
8
0
10
16.5415384615385
20
17.4398506848066
30
0
0
VERTEX
8
0
10
17.4605128205128
20
18.3939972717471
30
0
0
VERTEX
8
0
10
18.3794871794872
20
19.0589477505367
30
0
0
VERTEX
8
0
10
19.2984615384615
20
19.8082259203096
30
0
0
VERTEX
8
0
10
20.2174358974359
20
20.7012123253844
30
0
0
VERTEX
8
0
10
21.1364102564103
20
21.3305866317098
30
0
0
VERTEX
8
0
10
22.0553846153846
20
22.0580236344881
30
0
0
VERTEX
8
0
10
22.974358974359
20
22.8968814807837
30
0
0
VERTEX
8
0
10
23.8933333333333
20
23.4928526619941
30
0
0
VERTEX
8
0
10
24.8123076923077
20
24.1973769689778
30
0
0
VERTEX
8
0
10
25.7312820512821
20
24.8796192841942
30
0
0
VERTEX
8
0
10
26.6502564102564
20
25.5510263443436
30
0
0
VERTEX
8
0
10
27.5692307692308
20
26.232040539321
30
0
0
VERTEX
8
0
10
28.4882051282051
20
26.8738804994938
30
0
0
VERTEX
8
0
10
29.4071794871795
20
27.512257133358
30
0
0
VERTEX
8
0
10
30.3261538461539
20
28.1663520434324
30
0
0
VERTEX
8
0
10
31.2451282051282
20
28.770885217859
30
0
0
VERTEX
8
0
10
32.1641025641026
20
29.3783502171302
30
0
0
VERTEX
8
0
10
33.0830769230769
20
30.0037305925508
30
0
0
VERTEX
8
0
10
34.0020512820513
20
30.5733277004208
30
0
0
VERTEX
8
0
10
34.9210256410257
20
31.1511952079438
30
0
0
VERTEX
8
0
10
35.84
20
31.7469618610336
30
0
0
VERTEX
8
0
10
36.7589743589744
20
32.2834898555602
30
0
0
VERTEX
8
0
10
37.6779487179487
20
32.8326057572634
30
0
0
VERTEX
8
0
10
38.5969230769231
20
33.3983740021985
30
0
0
VERTEX
8
0
10
39.5158974358974
20
33.9109071953282
30
0
0
VERTEX
8
0
10
40.4348717948718
20
34.4242654068624
30
0
0
VERTEX
8
0
10
41.3538461538461
20
34.9339124957296
30
0
0
VERTEX
8
0
10
42.2728205128205
20
35.4389404446967
30
0
0
VERTEX
8
0
10
43.1917948717949
20
35.9277157740442
30
0
0
VERTEX
8
0
10
44.1107692307692
20
36.4069381188592
30
0
0
VERTEX
8
0
10
45.0297435897436
20
36.8810761428979
30
0
0
VERTEX
8
0
10
45.9487179487179
20
37.3443605608489
30
0
0
VERTEX
8
0
10
46.8676923076923
20
37.7937848623694
30
0
0
VERTEX
8
0
10
47.7866666666666
20
38.2382593627807
30
0
0
VERTEX
8
0
10
48.705641025641
20
38.6754736600968
30
0
0
VERTEX
8
0
10
49.6246153846154
20
39.0956966595238
30
0
0
VERTEX
8
0
10
50.5435897435897
20
39.5114192963544
30
0
0
VERTEX
8
0
10
51.4625641025641
20
39.9222055328231
30
0
0
VERTEX
8
0
10
52.3815384615384
20
40.3137808315841
30
0
0
VERTEX
8
0
10
53.3005128205128
20
40.7014369102814
30
0
0
VERTEX
8
0
10
54.2194871794871
20
41.0855840356212
30
0
0
VERTEX
8
0
10
55.1384615384615
20
41.4559410670741
30
0
0
VERTEX
8
0
10
56.0574358974358
20
41.8091170570584
30
0
0
VERTEX
8
0
10
56.9764102564102
20
42.1602225516921
30
0
0
VERTEX
8
0
10
57.8953846153846
20
42.5068500802431
30
0
0
VERTEX
8
0
10
58.8143589743589
20
42.8351550479332
30
0
0
VERTEX
8
0
10
59.7333333333333
20
43.1591364687062
30
0
0
VERTEX
8
0
10
60.6523076923076
20
43.4770236604383
30
0
0
VERTEX
8
0
10
61.571282051282
20
43.7800854763051
30
0
0
VERTEX
8
0
10
62.4902564102563
20
44.0770104306227
30
0
0
VERTEX
8
0
10
63.4092307692307
20
44.366730173865
30
0
0
VERTEX
8
0
10
64.328205128205
20
44.644192310186
30
0
0
VERTEX
8
0
10
65.2471794871794
20
44.9140474170715
30
0
0
VERTEX
8
0
10
66.1661538461537
20
45.1759112413366
30
0
0
VERTEX
8
0
10
67.0851282051281
20
45.4273350907661
30
0
0
VERTEX
8
0
10
68.0041025641025
20
45.6699214869388
30
0
0
VERTEX
8
0
10
68.9230769230768
20
45.9038896205915
30
0
0
VERTEX
8
0
10
69.8420512820512
20
46.1285747907228
30
0
0
VERTEX
8
0
10
70.7610256410255
20
46.3482430254821
30
0
0
VERTEX
8
0
10
71.6799999999999
20
46.5486856051509
30
0
0
VERTEX
8
0
10
72.5989743589742
20
46.7446974970785
30
0
0
VERTEX
8
0
10
73.5179487179486
20
46.9338165952149
30
0
0
VERTEX
8
0
10
74.436923076923
20
47.1049671713896
30
0
0
VERTEX
8
0
10
75.3558974358973
20
47.2690101373986
30
0
0
VERTEX
8
0
10
76.2748717948717
20
47.4218475469912
30
0
0
VERTEX
8
0
10
77.193846153846
20
47.5533498539599
30
0
0
VERTEX
8
0
10
78.1128205128204
20
47.6658310156542
30
0
0
VERTEX
8
0
10
79.0317948717947
20
47.7747563284053
30
0
0
VERTEX
8
0
10
79.9507692307691
20
47.8932477910646
30
0
0
VERTEX
8
0
10
80.8697435897435
20
48.0207531265949
30
0
0
VERTEX
8
0
10
81.7887179487178
20
48.1507328953015
30
0
0
VERTEX
8
0
10
82.7076923076922
20
48.2791856503851
30
0
0
VERTEX
8
0
10
83.6266666666665
20
48.4098668656937
30
0
0
VERTEX
8
0
10
84.5456410256409
20
48.5389653019056
30
0
0
VERTEX
8
0
10
85.4646153846152
20
48.6652997202298
30
0
0
VERTEX
8
0
10
86.3835897435896
20
48.7953442463362
30
0
0
VERTEX
8
0
10
87.3025641025639
20
48.915354736982
30
0
0
VERTEX
8
0
10
88.2215384615383
20
49.0368814425895
30
0
0
VERTEX
8
0
10
89.1405128205126
20
49.1582294378459
30
0
0
VERTEX
8
0
10
90.059487179487
20
49.2715014766457
30
0
0
VERTEX
8
0
10
90.9784615384614
20
49.3855011182397
30
0
0
VERTEX
8
0
10
91.8974358974357
20
49.497859295078
30
0
0
VERTEX
8
0
10
92.8164102564101
20
49.6031446731287
30
0
0
VERTEX
8
0
10
93.7353846153844
20
49.7085808740748
30
0
0
VERTEX
8
0
10
94.6543589743588
20
49.811288073021
30
0
0
VERTEX
8
0
10
95.5733333333331
20
49.907820681635
30
0
0
VERTEX
8
0
10
96.4923076923075
20
50.0040541399155
30
0
0
VERTEX
8
0
10
97.4112820512818
20
50.0967458265748
30
0
0
VERTEX
8
0
10
98.3302564102562
20
50.1840410639526
30
0
0
VERTEX
8
0
10
99.2492307692306
20
50.2706743370497
30
0
0
VERTEX
8
0
10
100.168205128205
20
50.3531667302811
30
0
0
VERTEX
8
0
10
101.087179487179
20
50.4309250995608
30
0
0
VERTEX
8
0
10
102.006153846154
20
50.5100395163855
30
0
0
VERTEX
8
0
10
102.925128205128
20
50.5799556096069
30
0
0
VERTEX
8
0
10
103.844102564102
20
50.649148534183
30
0
0
VERTEX
8
0
10
104.763076923077
20
50.716521460478
30
0
0
VERTEX
8
0
10
105.682051282051
20
50.776859679432
30
0
0
VERTEX
8
0
10
106.601025641025
20
50.8362983428226
30
0
0
VERTEX
8
0
10
107.52
20
50.893157931525
30
0
0
VERTEX
8
0
10
108.438974358974
20
50.9438932574179
30
0
0
VERTEX
8
0
10
109.357948717948
20
50.9935734152704
30
0
0
VERTEX
8
0
10
110.276923076923
20
51.0401074287221
30
0
0
VERTEX
8
0
10
111.195897435897
20
51.081291918257
30
0
0
VERTEX
8
0
10
112.114871794872
20
51.1212854577973
30
0
0
VERTEX
8
0
10
113.033846153846
20
51.1577303671039
30
0
0
VERTEX
8
0
10
113.95282051282
20
51.1894843896715
30
0
0
VERTEX
8
0
10
114.871794871795
20
51.2199313937127
30
0
0
VERTEX
8
0
10
115.790769230769
20
51.2465690033958
30
0
0
VERTEX
8
0
10
116.709743589743
20
51.2690759438819
30
0
0
VERTEX
8
0
10
117.628717948718
20
51.2914866098491
30
0
0
VERTEX
8
0
10
118.547692307692
20
51.3073363313348
30
0
0
VERTEX
8
0
10
119.466666666666
20
51.3216412685519
30
0
0
VERTEX
8
0
10
120.385641025641
20
51.3337712437787
30
0
0
VERTEX
8
0
10
121.304615384615
20
51.3409115319149
30
0
0
VERTEX
8
0
10
122.223589743589
20
51.3464962072873
30
0
0
VERTEX
8
0
10
123.142564102564
20
51.3495779339641
30
0
0
VERTEX
8
0
10
124.061538461538
20
51.3483406094665
30
0
0
VERTEX
8
0
10
124.980512820513
20
51.3455466812567
30
0
0
VERTEX
8
0
10
125.899487179487
20
51.3400623310779
30
0
0
VERTEX
8
0
10
126.818461538461
20
51.3308415074869
30
0
0
VERTEX
8
0
10
127.737435897436
20
51.3200773416296
30
0
0
VERTEX
8
0
10
128.65641025641
20
51.3065582839152
30
0
0
VERTEX
8
0
10
129.575384615384
20
51.2898134822395
30
0
0
VERTEX
8
0
10
130.494358974359
20
51.2715575285326
30
0
0
VERTEX
8
0
10
131.413333333333
20
51.2505900794268
30
0
0
VERTEX
8
0
10
132.332307692307
20
51.2268509458053
30
0
0
VERTEX
8
0
10
133.251282051282
20
51.2021727776684
30
0
0
VERTEX
8
0
10
134.170256410256
20
51.1738895685427
30
0
0
VERTEX
8
0
10
135.08923076923
20
51.1441021735814
30
0
0
VERTEX
8
0
10
136.008205128205
20
51.1125900706476
30
0
0
VERTEX
8
0
10
136.927179487179
20
51.07841932398
30
0
0
VERTEX
8
0
10
137.846153846153
20
51.0428911780386
30
0
0
VERTEX
8
0
10
138.765128205128
20
51.0057133960268
30
0
0
VERTEX
8
0
10
139.684102564102
20
50.9664039765373
30
0
0
VERTEX
8
0
10
140.603076923077
20
50.9259162265679
30
0
0
VERTEX
8
0
10
141.522051282051
20
50.8839627932582
30
0
0
VERTEX
8
0
10
142.441025641025
20
50.8403737313372
30
0
0
VERTEX
8
0
10
143.36
20
50.7958292530724
30
0
0
VERTEX
8
0
10
144.278974358974
20
50.7501035377263
30
0
0
VERTEX
8
0
10
145.197948717948
20
50.7032279421898
30
0
0
VERTEX
8
0
10
146.116923076923
20
50.6556791868075
30
0
0
VERTEX
8
0
10
147.035897435897
20
50.607331546769
30
0
0
VERTEX
8
0
10
147.954871794871
20
50.5583358717415
30
0
0
VERTEX
8
0
10
148.873846153846
20
50.5090915317133
30
0
0
VERTEX
8
0
10
149.79282051282
20
50.4594198033525
30
0
0
VERTEX
8
0
10
150.711794871795
20
50.4097461717738
30
0
0
VERTEX
8
0
10
151.630769230769
20
50.3602223940731
30
0
0
VERTEX
8
0
10
152.549743589743
20
50.3110185916401
30
0
0
VERTEX
8
0
10
153.468717948718
20
50.262460957163
30
0
0
VERTEX
8
0
10
154.387692307692
20
50.2148322604073
30
0
0
VERTEX
8
0
10
155.306666666666
20
50.1685157523315
30
0
0
VERTEX
8
0
10
156.225641025641
20
50.1239857044293
30
0
0
VERTEX
8
0
10
157.144615384615
20
50.0815456828162
30
0
0
VERTEX
8
0
10
158.063589743589
20
50.0410506803216
30
0
0
VERTEX
8
0
10
158.982564102564
20
50.0021957292074
30
0
0
VERTEX
8
0
10
159.901538461538
20
49.9647460600231
30
0
0
VERTEX
8
0
10
160.820512820513
20
49.9285350751449
30
0
0
VERTEX
8
0
10
161.739487179487
20
49.8934381355812
30
0
0
VERTEX
8
0
10
162.658461538461
20
49.8593571338075
30
0
0
VERTEX
8
0
10
163.577435897436
20
49.8262119552839
30
0
0
VERTEX
8
0
10
164.49641025641
20
49.7939354165653
30
0
0
VERTEX
8
0
10
165.415384615384
20
49.7624700426191
30
0
0
VERTEX
8
0
10
166.334358974359
20
49.7317658941043
30
0
0
VERTEX
8
0
10
167.253333333333
20
49.7017790355345
30
0
0
VERTEX
8
0
10
168.172307692308
20
49.6724704163164
30
0
0
VERTEX
8
0
10
169.091282051282
20
49.6438050295631
30
0
0
VERTEX
8
0
10
170.010256410256
20
49.6157512645273
30
0
0
VERTEX
8
0
10
170.929230769231
20
49.5882803980293
30
0
0
VERTEX
8
0
10
171.848205128205
20
49.5613661881776
30
0
0
SEQEND
8
0
0
POLYLINE
8
0
62
4
70
0
10
0
20
0
30
0
0
VERTEX
8
0
10
1.83794871794872
20
2.27004615490992
30
0
0
VERTEX
8
0
10
2.75692307692308
20
3.05034550346477
30
0
0
VERTEX
8
0
10
3.67589743589744
20
3.84379920921454
30
0
0
VERTEX
8
0
10
4.59487179487179
20
4.63553572395701
30
0
0
VERTEX
8
0
10
5.51384615384615
20
5.43449376734323
30
0
0
VERTEX
8
0
10
6.43282051282051
20
6.22723102997067
30
0
0
VERTEX
8
0
10
7.35179487179487
20
7.07497681317278
30
0
0
VERTEX
8
0
10
8.27076923076923
20
7.95581352370499
30
0
0
VERTEX
8
0
10
9.18974358974359
20
8.8051332089455
30
0
0
VERTEX
8
0
10
10.1087179487179
20
9.74678604372017
30
0
0
VERTEX
8
0
10
11.0276923076923
20
10.664425069293
30
0
0
VERTEX
8
0
10
11.9466666666667
20
11.6417360792416
30
0
0
VERTEX
8
0
10
12.865641025641
20
12.6227954284725
30
0
0
VERTEX
8
0
10
13.7846153846154
20
13.6004391322237
30
0
0
VERTEX
8
0
10
14.7035897435897
20
14.5586812233136
30
0
0
VERTEX
8
0
10
15.6225641025641
20
15.5252534041746
30
0
0
VERTEX
8
0
10
16.5415384615385
20
16.4589975664514
30
0
0
VERTEX
8
0
10
17.4605128205128
20
17.3836743585377
30
0
0
VERTEX
8
0
10
18.3794871794872
20
18.224535833978
30
0
0
VERTEX
8
0
10
19.2984615384615
20
19.0570300127141
30
0
0
VERTEX
8
0
10
20.2174358974359
20
19.8341595824594
30
0
0
VERTEX
8
0
10
21.1364102564103
20
20.5968992279513
30
0
0
VERTEX
8
0
10
22.0553846153846
20
21.3490212435493
30
0
0
VERTEX
8
0
10
22.974358974359
20
22.0151480177856
30
0
0
VERTEX
8
0
10
23.8933333333333
20
22.7143830179072
30
0
0
VERTEX
8
0
10
24.8123076923077
20
23.3554824245296
30
0
0
VERTEX
8
0
10
25.7312820512821
20
23.9982992042752
30
0
0
VERTEX
8
0
10
26.6502564102564
20
24.6209403454476
30
0
0
VERTEX
8
0
10
27.5692307692308
20
25.2081343961357
30
0
0
VERTEX
8
0
10
28.4882051282051
20
25.8006159396017
30
0
0
VERTEX
8
0
10
29.4071794871795
20
26.3877666821141
30
0
0
VERTEX
8
0
10
30.3261538461539
20
26.9577037370807
30
0
0
VERTEX
8
0
10
31.2451282051282
20
27.5356829423918
30
0
0
VERTEX
8
0
10
32.1641025641026
20
28.1088696826737
30
0
0
VERTEX
8
0
10
33.0830769230769
20
28.6658846937008
30
0
0
VERTEX
8
0
10
34.0020512820513
20
29.2293557529385
30
0
0
VERTEX
8
0
10
34.9210256410257
20
29.784972492584
30
0
0
VERTEX
8
0
10
35.84
20
30.3316107422989
30
0
0
VERTEX
8
0
10
36.7589743589744
20
30.884583069442
30
0
0
VERTEX
8
0
10
37.6779487179487
20
31.4310609610761
30
0
0
VERTEX
8
0
10
38.5969230769231
20
31.9655901555076
30
0
0
VERTEX
8
0
10
39.5158974358974
20
32.5142935172489
30
0
0
VERTEX
8
0
10
40.4348717948718
20
33.054447578236
30
0
0
VERTEX
8
0
10
41.3538461538461
20
33.5917053490506
30
0
0
VERTEX
8
0
10
42.2728205128205
20
34.1434333585249
30
0
0
VERTEX
8
0
10
43.1917948717949
20
34.6766257619582
30
0
0
VERTEX
8
0
10
44.1107692307692
20
35.2126665894547
30
0
0
VERTEX
8
0
10
45.0297435897436
20
35.7452766105511
30
0
0
VERTEX
8
0
10
45.9487179487179
20
36.2620043694131
30
0
0
VERTEX
8
0
10
46.8676923076923
20
36.7821821356293
30
0
0
VERTEX
8
0
10
47.7866666666666
20
37.2967932596075
30
0
0
VERTEX
8
0
10
48.705641025641
20
37.7948259716672
30
0
0
VERTEX
8
0
10
49.6246153846154
20
38.2967715448638
30
0
0
VERTEX
8
0
10
50.5435897435897
20
38.7851128611781
30
0
0
VERTEX
8
0
10
51.4625641025641
20
39.2571256413894
30
0
0
VERTEX
8
0
10
52.3815384615384
20
39.7335100485243
30
0
0
VERTEX
8
0
10
53.3005128205128
20
40.1663784071705
30
0
0
VERTEX
8
0
10
54.2194871794871
20
40.5952328077322
30
0
0
VERTEX
8
0
10
55.1384615384615
20
41.031559447274
30
0
0
VERTEX
8
0
10
56.0574358974358
20
41.4469642852371
30
0
0
VERTEX
8
0
10
56.9764102564102
20
41.8628802055198
30
0
0
VERTEX
8
0
10
57.8953846153846
20
42.2768612656245
30
0
0
VERTEX
8
0
10
58.8143589743589
20
42.6765934593849
30
0
0
VERTEX
8
0
10
59.7333333333333
20
43.0743776761629
30
0
0
VERTEX
8
0
10
60.6523076923076
20
43.468931442802
30
0
0
VERTEX
8
0
10
61.571282051282
20
43.8342860381104
30
0
0
VERTEX
8
0
10
62.4902564102563
20
44.197659876471
30
0
0
VERTEX
8
0
10
63.4092307692307
20
44.5557883011963
30
0
0
VERTEX
8
0
10
64.328205128205
20
44.739113045605
30
0
0
VERTEX
8
0
10
65.2471794871794
20
44.977109376598
30
0
0
VERTEX
8
0
10
66.1661538461537
20
45.2089398712033
30
0
0
VERTEX
8
0
10
67.0851282051281
20
45.4309358111868
30
0
0
VERTEX
8
0
10
68.0041025641025
20
45.6771652475702
30
0
0
VERTEX
8
0
10
68.9230769230768
20
45.9228952477001
30
0
0
VERTEX
8
0
10
69.8420512820512
20
46.1596297795882
30
0
0
VERTEX
8
0
10
70.7610256410255
20
46.3451359709663
30
0
0
VERTEX
8
0
10
71.6799999999999
20
46.5315395403916
30
0
0
VERTEX
8
0
10
72.5989743589742
20
46.7173848263601
30
0
0
VERTEX
8
0
10
73.5179487179486
20
46.9009164161533
30
0
0
VERTEX
8
0
10
74.436923076923
20
47.0528389640437
30
0
0
VERTEX
8
0
10
75.3558974358973
20
47.1948778961764
30
0
0
VERTEX
8
0
10
76.2748717948717
20
47.3335958750126
30
0
0
VERTEX
8
0
10
77.193846153846
20
47.4536769701441
30
0
0
VERTEX
8
0
10
78.1128205128204
20
47.5762722014228
30
0
0
VERTEX
8
0
10
79.0317948717947
20
47.6912437752985
30
0
0
VERTEX
8
0
10
79.9507692307691
20
47.7997286810498
30
0
0
VERTEX
8
0
10
80.8697435897435
20
47.9094353140151
30
0
0
VERTEX
8
0
10
81.7887179487178
20
48.0152194043375
30
0
0
VERTEX
8
0
10
82.7076923076922
20
48.1154235388038
30
0
0
VERTEX
8
0
10
83.6266666666665
20
48.2184040397609
30
0
0
VERTEX
8
0
10
84.5456410256409
20
48.3174230740298
30
0
0
VERTEX
8
0
10
85.4646153846152
20
48.4134131636955
30
0
0
VERTEX
8
0
10
86.3835897435896
20
48.5149771265026
30
0
0
VERTEX
8
0
10
87.3025641025639
20
48.6091401729646
30
0
0
VERTEX
8
0
10
88.2215384615383
20
48.7060084280402
30
0
0
VERTEX
8
0
10
89.1405128205126
20
48.8022977053754
30
0
0
VERTEX
8
0
10
90.059487179487
20
48.8868460423214
30
0
0
VERTEX
8
0
10
90.9784615384614
20
48.9730141257848
30
0
0
VERTEX
8
0
10
91.8974358974357
20
49.0594500451
30
0
0
VERTEX
8
0
10
92.8164102564101
20
49.1402759984182
30
0
0
VERTEX
8
0
10
93.7353846153844
20
49.2221061627885
30
0
0
VERTEX
8
0
10
94.6543589743588
20
49.2893263669899
30
0
0
VERTEX
8
0
10
95.5733333333331
20
49.3550862988017
30
0
0
VERTEX
8
0
10
96.4923076923075
20
49.4266318644565
30
0
0
VERTEX
8
0
10
97.4112820512818
20
49.4947682470965
30
0
0
VERTEX
8
0
10
98.3302564102562
20
49.5519762588928
30
0
0
VERTEX
8
0
10
99.2492307692306
20
49.6083336653441
30
0
0
VERTEX
8
0
10
100.168205128205
20
49.6611608082151
30
0
0
VERTEX
8
0
10
101.087179487179
20
49.7069601652194
30
0
0
VERTEX
8
0
10
102.006153846154
20
49.7566285490364
30
0
0
VERTEX
8
0
10
102.925128205128
20
49.8009285337955
30
0
0
VERTEX
8
0
10
103.844102564102
20
49.8449990342781
30
0
0
VERTEX
8
0
10
104.763076923077
20
49.8853692848791
30
0
0
VERTEX
8
0
10
105.682051282051
20
49.9192723144448
30
0
0
VERTEX
8
0
10
106.601025641025
20
49.9531497924892
30
0
0
VERTEX
8
0
10
107.52
20
49.9879770982448
30
0
0
VERTEX
8
0
10
108.438974358974
20
50.0176093973613
30
0
0
VERTEX
8
0
10
109.357948717948
20
50.0472804692708
30
0
0
VERTEX
8
0
10
110.276923076923
20
50.074807761262
30
0
0
VERTEX
8
0
10
111.195897435897
20
50.0971150916447
30
0
0
VERTEX
8
0
10
112.114871794872
20
50.1187380214943
30
0
0
VERTEX
8
0
10
113.033846153846
20
50.1378352984344
30
0
0
VERTEX
8
0
10
113.95282051282
20
50.1533317721681
30
0
0
VERTEX
8
0
10
114.871794871795
20
50.1689638572493
30
0
0
VERTEX
8
0
10
115.790769230769
20
50.1834114034471
30
0
0
VERTEX
8
0
10
116.709743589743
20
50.1949024283438
30
0
0
VERTEX
8
0
10
117.628717948718
20
50.2055824225537
30
0
0
VERTEX
8
0
10
118.547692307692
20
50.2094528536894
30
0
0
VERTEX
8
0
10
119.466666666666
20
50.2125814369539
30
0
0
VERTEX
8
0
10
120.385641025641
20
50.225072776449
30
0
0
VERTEX
8
0
10
121.304615384615
20
50.2325357488537
30
0
0
VERTEX
8
0
10
122.223589743589
20
50.2392489515656
30
0
0
VERTEX
8
0
10
123.142564102564
20
50.2443379029749
30
0
0
VERTEX
8
0
10
124.061538461538
20
50.2462867277956
30
0
0
VERTEX
8
0
10
124.980512820513
20
50.2449529463211
30
0
0
VERTEX
8
0
10
125.899487179487
20
50.2426104686846
30
0
0
VERTEX
8
0
10
126.818461538461
20
50.2394782757939
30
0
0
VERTEX
8
0
10
127.737435897436
20
50.2355458009405
30
0
0
VERTEX
8
0
10
128.65641025641
20
50.2296907180153
30
0
0
VERTEX
8
0
10
129.575384615384
20
50.22147240552
30
0
0
VERTEX
8
0
10
130.494358974359
20
50.2126246737931
30
0
0
VERTEX
8
0
10
131.413333333333
20
50.2352753310825
30
0
0
VERTEX
8
0
10
132.332307692307
20
50.2467980656792
30
0
0
VERTEX
8
0
10
133.251282051282
20
50.2368866074458
30
0
0
VERTEX
8
0
10
134.170256410256
20
50.2243961511682
30
0
0
VERTEX
8
0
10
135.08923076923
20
50.2266685138856
30
0
0
VERTEX
8
0
10
136.008205128205
20
50.2362312989828
30
0
0
VERTEX
8
0
10
136.927179487179
20
50.2437615402268
30
0
0
VERTEX
8
0
10
137.846153846153
20
50.2191586733959
30
0
0
VERTEX
8
0
10
138.765128205128
20
50.2004197945953
30
0
0
VERTEX
8
0
10
139.684102564102
20
50.1958648306427
30
0
0
VERTEX
8
0
10
140.603076923077
20
50.1916084724755
30
0
0
VERTEX
8
0
10
141.522051282051
20
50.1861808828254
30
0
0
VERTEX
8
0
10
142.441025641025
20
50.179405973263
30
0
0
VERTEX
8
0
10
143.36
20
50.1718643083362
30
0
0
VERTEX
8
0
10
144.278974358974
20
50.1632829836037
30
0
0
VERTEX
8
0
10
145.197948717948
20
50.1536448247597
30
0
0
VERTEX
8
0
10
146.116923076923
20
50.1433478874522
30
0
0
VERTEX
8
0
10
147.035897435897
20
50.1321917523814
30
0
0
VERTEX
8
0
10
147.954871794871
20
50.1202477969561
30
0
0
VERTEX
8
0
10
148.873846153846
20
50.1078163354419
30
0
0
VERTEX
8
0
10
149.79282051282
20
50.0946520058168
30
0
0
VERTEX
8
0
10
150.711794871795
20
50.0810283198791
30
0
0
VERTEX
8
0
10
151.630769230769
20
50.0669771931522
30
0
0
VERTEX
8
0
10
152.549743589743
20
50.0525276794359
30
0
0
VERTEX
8
0
10
153.468717948718
20
50.0378092343308
30
0
0
VERTEX
8
0
10
154.387692307692
20
50.0228761723259
30
0
0
VERTEX
8
0
10
155.306666666666
20
50.0078032714621
30
0
0
VERTEX
8
0
10
156.225641025641
20
49.9926718969934
30
0
0
VERTEX
8
0
10
157.144615384615
20
49.977535587404
30
0
0
VERTEX
8
0
10
158.063589743589
20
49.9624185039102
30
0
0
VERTEX
8
0
10
158.982564102564
20
49.9473256083021
30
0
0
VERTEX
8
0
10
159.901538461538
20
49.9322575997686
30
0
0
VERTEX
8
0
10
160.820512820513
20
49.9172145849924
30
0
0
VERTEX
8
0
10
161.739487179487
20
49.9021965969894
30
0
0
VERTEX
8
0
10
162.658461538461
20
49.8872036596637
30
0
0
VERTEX
8
0
10
163.577435897436
20
49.8722357957724
30
0
0
VERTEX
8
0
10
164.49641025641
20
49.8572930279187
30
0
0
VERTEX
8
0
10
165.415384615384
20
49.8423753786769
30
0
0
VERTEX
8
0
10
166.334358974359
20
49.8274828706079
30
0
0
VERTEX
8
0
10
167.253333333333
20
49.812615526261
30
0
0
VERTEX
8
0
10
168.172307692308
20
49.7977733681744
30
0
0
VERTEX
8
0
10
169.091282051282
20
49.7829564188752
30
0
0
VERTEX
8
0
10
170.010256410256
20
49.7681647008786
30
0
0
VERTEX
8
0
10
170.929230769231
20
49.7533982366884
30
0
0
VERTEX
8
0
10
171.848205128205
20
49.7386570487971
30
0
0
SEQEND
8
0
0
ENDSEC
0
EOF
