0
SECTION
2
HEADER
9
$ACADVER
1
AC1009
0
ENDSEC
0
SECTION
2
ENTITIES
0
POLYLINE
8
0
62
0
70
1
10
0
20
0
30
0
0
VERTEX
8
0
10
0
20
0
30
0
0
VERTEX
8
0
10
0
20
121.298
30
0
0
VERTEX
8
0
10
179.2
20
121.298
30
0
0
VERTEX
8
0
10
179.2
20
0
30
0
0
SEQEND
8
0
0
TEXT
8
0
62
0
10
0
20
-12
30
0
40
8
1
0
50
0
0
LINE
8
0
62
0
10
7.902443627839
20
0
30
0
11
7.902443627839
21
3.2
31
0
0
LINE
8
0
62
0
10
7.902443627839
20
121.298
30
0
11
7.902443627839
21
118.098
31
0
0
LINE
8
0
62
0
10
15.804887255678
20
0
30
0
11
15.804887255678
21
3.2
31
0
0
LINE
8
0
62
0
10
15.804887255678
20
121.298
30
0
11
15.804887255678
21
118.098
31
0
0
LINE
8
0
62
0
10
23.707330883517
20
0
30
0
11
23.707330883517
21
3.2
31
0
0
LINE
8
0
62
0
10
23.707330883517
20
121.298
30
0
11
23.707330883517
21
118.098
31
0
0
LINE
8
0
62
0
10
31.609774511356
20
0
30
0
11
31.609774511356
21
3.2
31
0
0
LINE
8
0
62
0
10
31.609774511356
20
121.298
30
0
11
31.609774511356
21
118.098
31
0
0
LINE
8
0
62
0
10
39.512218139195
20
0
30
0
11
39.512218139195
21
6.4
31
0
0
LINE
8
0
62
0
10
39.512218139195
20
121.298
30
0
11
39.512218139195
21
114.898
31
0
0
TEXT
8
0
62
0
10
39.512218139195
20
-12
30
0
40
8
1
5
50
0
0
LINE
8
0
62
0
10
47.414661767034
20
0
30
0
11
47.414661767034
21
3.2
31
0
0
LINE
8
0
62
0
10
47.414661767034
20
121.298
30
0
11
47.414661767034
21
118.098
31
0
0
LINE
8
0
62
0
10
55.317105394873
20
0
30
0
11
55.317105394873
21
3.2
31
0
0
LINE
8
0
62
0
10
55.317105394873
20
121.298
30
0
11
55.317105394873
21
118.098
31
0
0
LINE
8
0
62
0
10
63.219549022712
20
0
30
0
11
63.219549022712
21
3.2
31
0
0
LINE
8
0
62
0
10
63.219549022712
20
121.298
30
0
11
63.219549022712
21
118.098
31
0
0
LINE
8
0
62
0
10
71.121992650551
20
0
30
0
11
71.121992650551
21
3.2
31
0
0
LINE
8
0
62
0
10
71.121992650551
20
121.298
30
0
11
71.121992650551
21
118.098
31
0
0
LINE
8
0
62
0
10
79.02443627839
20
0
30
0
11
79.02443627839
21
6.4
31
0
0
LINE
8
0
62
0
10
79.02443627839
20
121.298
30
0
11
79.02443627839
21
114.898
31
0
0
TEXT
8
0
62
0
10
79.02443627839
20
-12
30
0
40
8
1
10
50
0
0
LINE
8
0
62
0
10
86.926879906229
20
0
30
0
11
86.926879906229
21
3.2
31
0
0
LINE
8
0
62
0
10
86.926879906229
20
121.298
30
0
11
86.926879906229
21
118.098
31
0
0
LINE
8
0
62
0
10
94.8293235340681
20
0
30
0
11
94.8293235340681
21
3.2
31
0
0
LINE
8
0
62
0
10
94.8293235340681
20
121.298
30
0
11
94.8293235340681
21
118.098
31
0
0
LINE
8
0
62
0
10
102.731767161907
20
0
30
0
11
102.731767161907
21
3.2
31
0
0
LINE
8
0
62
0
10
102.731767161907
20
121.298
30
0
11
102.731767161907
21
118.098
31
0
0
LINE
8
0
62
0
10
110.634210789746
20
0
30
0
11
110.634210789746
21
3.2
31
0
0
LINE
8
0
62
0
10
110.634210789746
20
121.298
30
0
11
110.634210789746
21
118.098
31
0
0
LINE
8
0
62
0
10
118.536654417585
20
0
30
0
11
118.536654417585
21
6.4
31
0
0
LINE
8
0
62
0
10
118.536654417585
20
121.298
30
0
11
118.536654417585
21
114.898
31
0
0
TEXT
8
0
62
0
10
118.536654417585
20
-12
30
0
40
8
1
15
50
0
0
LINE
8
0
62
0
10
126.439098045424
20
0
30
0
11
126.439098045424
21
3.2
31
0
0
LINE
8
0
62
0
10
126.439098045424
20
121.298
30
0
11
126.439098045424
21
118.098
31
0
0
LINE
8
0
62
0
10
134.341541673263
20
0
30
0
11
134.341541673263
21
3.2
31
0
0
LINE
8
0
62
0
10
134.341541673263
20
121.298
30
0
11
134.341541673263
21
118.098
31
0
0
LINE
8
0
62
0
10
142.243985301102
20
0
30
0
11
142.243985301102
21
3.2
31
0
0
LINE
8
0
62
0
10
142.243985301102
20
121.298
30
0
11
142.243985301102
21
118.098
31
0
0
LINE
8
0
62
0
10
150.146428928941
20
0
30
0
11
150.146428928941
21
3.2
31
0
0
LINE
8
0
62
0
10
150.146428928941
20
121.298
30
0
11
150.146428928941
21
118.098
31
0
0
LINE
8
0
62
0
10
158.04887255678
20
0
30
0
11
158.04887255678
21
6.4
31
0
0
LINE
8
0
62
0
10
158.04887255678
20
121.298
30
0
11
158.04887255678
21
114.898
31
0
0
TEXT
8
0
62
0
10
158.04887255678
20
-12
30
0
40
8
1
20
50
0
0
LINE
8
0
62
0
10
165.951316184619
20
0
30
0
11
165.951316184619
21
3.2
31
0
0
LINE
8
0
62
0
10
165.951316184619
20
121.298
30
0
11
165.951316184619
21
118.098
31
0
0
LINE
8
0
62
0
10
173.853759812458
20
0
30
0
11
173.853759812458
21
3.2
31
0
0
LINE
8
0
62
0
10
173.853759812458
20
121.298
30
0
11
173.853759812458
21
118.098
31
0
0
TEXT
8
0
62
0
10
-4
20
-4
30
0
40
8
1
0
50
0
0
LINE
8
0
62
0
10
0
20
7.581125
30
0
11
3.2
21
7.581125
31
0
0
LINE
8
0
62
0
10
179.2
20
7.581125
30
0
11
176
21
7.581125
31
0
0
LINE
8
0
62
0
10
0
20
15.16225
30
0
11
3.2
21
15.16225
31
0
0
LINE
8
0
62
0
10
179.2
20
15.16225
30
0
11
176
21
15.16225
31
0
0
LINE
8
0
62
0
10
0
20
22.743375
30
0
11
3.2
21
22.743375
31
0
0
LINE
8
0
62
0
10
179.2
20
22.743375
30
0
11
176
21
22.743375
31
0
0
LINE
8
0
62
0
10
0
20
30.3245
30
0
11
3.2
21
30.3245
31
0
0
LINE
8
0
62
0
10
179.2
20
30.3245
30
0
11
176
21
30.3245
31
0
0
LINE
8
0
62
0
10
0
20
37.905625
30
0
11
6.4
21
37.905625
31
0
0
LINE
8
0
62
0
10
179.2
20
37.905625
30
0
11
172.8
21
37.905625
31
0
0
TEXT
8
0
62
0
10
-4
20
33.905625
30
0
40
8
1
50
50
0
0
LINE
8
0
62
0
10
0
20
45.48675
30
0
11
3.2
21
45.48675
31
0
0
LINE
8
0
62
0
10
179.2
20
45.48675
30
0
11
176
21
45.48675
31
0
0
LINE
8
0
62
0
10
0
20
53.067875
30
0
11
3.2
21
53.067875
31
0
0
LINE
8
0
62
0
10
179.2
20
53.067875
30
0
11
176
21
53.067875
31
0
0
LINE
8
0
62
0
10
0
20
60.649
30
0
11
3.2
21
60.649
31
0
0
LINE
8
0
62
0
10
179.2
20
60.649
30
0
11
176
21
60.649
31
0
0
LINE
8
0
62
0
10
0
20
68.230125
30
0
11
3.2
21
68.230125
31
0
0
LINE
8
0
62
0
10
179.2
20
68.230125
30
0
11
176
21
68.230125
31
0
0
LINE
8
0
62
0
10
0
20
75.81125
30
0
11
6.4
21
75.81125
31
0
0
LINE
8
0
62
0
10
179.2
20
75.81125
30
0
11
172.8
21
75.81125
31
0
0
TEXT
8
0
62
0
10
-4
20
71.81125
30
0
40
8
1
100
50
0
0
LINE
8
0
62
0
10
0
20
83.392375
30
0
11
3.2
21
83.392375
31
0
0
LINE
8
0
62
0
10
179.2
20
83.392375
30
0
11
176
21
83.392375
31
0
0
LINE
8
0
62
0
10
0
20
90.9735
30
0
11
3.2
21
90.9735
31
0
0
LINE
8
0
62
0
10
179.2
20
90.9735
30
0
11
176
21
90.9735
31
0
0
LINE
8
0
62
0
10
0
20
98.554625
30
0
11
3.2
21
98.554625
31
0
0
LINE
8
0
62
0
10
179.2
20
98.554625
30
0
11
176
21
98.554625
31
0
0
LINE
8
0
62
0
10
0
20
106.13575
30
0
11
3.2
21
106.13575
31
0
0
LINE
8
0
62
0
10
179.2
20
106.13575
30
0
11
176
21
106.13575
31
0
0
LINE
8
0
62
0
10
0
20
113.716875
30
0
11
6.4
21
113.716875
31
0
0
LINE
8
0
62
0
10
179.2
20
113.716875
30
0
11
172.8
21
113.716875
31
0
0
TEXT
8
0
62
0
10
-4
20
109.716875
30
0
40
8
1
150
50
0
0
TEXT
8
0
62
0
10
89.6
20
-32
30
0
40
10
1
R (kpc)
50
0
0
TEXT
8
0
62
0
10
-24
20
60.649
30
0
40
10
1
V (km/s)
50
90
0
TEXT
8
0
62
0
10
72.6
20
136.298
30
0
40
11
1
V vs. R
50
0
0
POLYLINE
8
0
62
5
70
0
10
0
20
0
30
0
0
VERTEX
8
0
10
2.3707330883517
20
29.3357658107009
30
0
0
VERTEX
8
0
10
3.1609774511356
20
36.5745587885006
30
0
0
VERTEX
8
0
10
3.9512218139195
20
43.1821065435308
30
0
0
VERTEX
8
0
10
4.7414661767034
20
46.3593783022778
30
0
0
VERTEX
8
0
10
5.5317105394873
20
48.7953925415575
30
0
0
VERTEX
8
0
10
6.3219549022712
20
50.9789040162629
30
0
0
VERTEX
8
0
10
7.1121992650551
20
52.4044022359674
30
0
0
VERTEX
8
0
10
7.902443627839
20
54.0309814471849
30
0
0
VERTEX
8
0
10
8.6926879906229
20
55.6557466012058
30
0
0
VERTEX
8
0
10
9.4829323534068
20
57.3266375769392
30
0
0
VERTEX
8
0
10
10.2731767161907
20
59.3588822307041
30
0
0
VERTEX
8
0
10
11.0634210789746
20
61.4163974744454
30
0
0
VERTEX
8
0
10
11.8536654417585
20
63.4561113799997
30
0
0
VERTEX
8
0
10
12.6439098045424
20
66.1574189579821
30
0
0
VERTEX
8
0
10
13.4341541673263
20
68.1239810050624
30
0
0
VERTEX
8
0
10
14.2243985301102
20
70.0733030131495
30
0
0
VERTEX
8
0
10
15.0146428928941
20
71.5355031041821
30
0
0
VERTEX
8
0
10
15.804887255678
20
72.5863690451731
30
0
0
VERTEX
8
0
10
16.5951316184619
20
73.4952453807784
30
0
0
VERTEX
8
0
10
17.3853759812458
20
74.4024530574586
30
0
0
VERTEX
8
0
10
18.1756203440297
20
73.8709049424054
30
0
0
VERTEX
8
0
10
18.9658647068136
20
73.608164917021
30
0
0
VERTEX
8
0
10
19.7561090695975
20
73.3488230547162
30
0
0
VERTEX
8
0
10
20.5463534323814
20
73.0279493284146
30
0
0
VERTEX
8
0
10
21.3365977951653
20
72.7207007618194
30
0
0
VERTEX
8
0
10
22.1268421579492
20
72.4315992361179
30
0
0
VERTEX
8
0
10
22.9170865207331
20
72.3543986663112
30
0
0
VERTEX
8
0
10
23.707330883517
20
72.4665132255086
30
0
0
VERTEX
8
0
10
24.4975752463009
20
72.5963788176003
30
0
0
VERTEX
8
0
10
25.2878196090848
20
72.732427933404
30
0
0
VERTEX
8
0
10
26.0780639718687
20
72.915092422281
30
0
0
VERTEX
8
0
10
26.8683083346526
20
73.0948222211383
30
0
0
VERTEX
8
0
10
27.6585526974365
20
73.2827792546737
30
0
0
VERTEX
8
0
10
28.4487970602204
20
73.1992850585919
30
0
0
VERTEX
8
0
10
29.2390414230043
20
73.0469997852435
30
0
0
VERTEX
8
0
10
30.0292857857882
20
72.8992983731662
30
0
0
VERTEX
8
0
10
30.8195301485721
20
72.7128382627609
30
0
0
VERTEX
8
0
10
31.609774511356
20
72.4799604163485
30
0
0
VERTEX
8
0
10
32.4000188741399
20
72.2466728037848
30
0
0
VERTEX
8
0
10
33.1902632369238
20
72.0191680304034
30
0
0
VERTEX
8
0
10
33.9805075997077
20
71.8268831631557
30
0
0
VERTEX
8
0
10
34.7707519624916
20
71.5594208329735
30
0
0
VERTEX
8
0
10
35.5609963252755
20
71.3098281536813
30
0
0
VERTEX
8
0
10
36.3512406880594
20
71.0576763938685
30
0
0
VERTEX
8
0
10
37.1414850508433
20
70.7871388655975
30
0
0
VERTEX
8
0
10
37.9317294136272
20
70.516711064881
30
0
0
VERTEX
8
0
10
38.7219737764111
20
70.2481893452995
30
0
0
VERTEX
8
0
10
39.512218139195
20
69.9007046166191
30
0
0
VERTEX
8
0
10
40.3024625019789
20
69.57428847015
30
0
0
VERTEX
8
0
10
41.0927068647628
20
69.249629788756
30
0
0
VERTEX
8
0
10
41.8829512275467
20
68.859300196244
30
0
0
VERTEX
8
0
10
42.6731955903306
20
68.4639788598628
30
0
0
VERTEX
8
0
10
43.4634399531145
20
68.0732856245114
30
0
0
VERTEX
8
0
10
44.2536843158984
20
67.6793155132873
30
0
0
VERTEX
8
0
10
45.0439286786823
20
67.2789778341408
30
0
0
VERTEX
8
0
10
45.8341730414662
20
66.8794150028256
30
0
0
VERTEX
8
0
10
46.6244174042501
20
66.4814417054755
30
0
0
VERTEX
8
0
10
47.414661767034
20
66.1190225175725
30
0
0
VERTEX
8
0
10
48.2049061298179
20
65.7554627320515
30
0
0
VERTEX
8
0
10
48.9951504926018
20
65.3938597308358
30
0
0
VERTEX
8
0
10
49.7853948553857
20
65.0684778270022
30
0
0
VERTEX
8
0
10
50.5756392181696
20
64.7618121573265
30
0
0
VERTEX
8
0
10
51.3658835809535
20
64.4539226479741
30
0
0
VERTEX
8
0
10
52.1561279437374
20
64.1366135034587
30
0
0
VERTEX
8
0
10
52.9463723065213
20
63.8253521621455
30
0
0
VERTEX
8
0
10
53.7366166693052
20
63.5178535782047
30
0
0
VERTEX
8
0
10
54.5268610320891
20
63.2132297751195
30
0
0
VERTEX
8
0
10
55.3171053948729
20
62.9294994201801
30
0
0
VERTEX
8
0
10
56.1073497576568
20
62.638707861166
30
0
0
VERTEX
8
0
10
56.8975941204407
20
62.3506220962988
30
0
0
VERTEX
8
0
10
57.6878384832246
20
62.0783543502091
30
0
0
VERTEX
8
0
10
58.4780828460085
20
61.809211754677
30
0
0
VERTEX
8
0
10
59.2683272087924
20
61.5425773881478
30
0
0
VERTEX
8
0
10
60.0585715715763
20
61.2944605858181
30
0
0
VERTEX
8
0
10
60.8488159343602
20
61.0626596041953
30
0
0
VERTEX
8
0
10
61.6390602971441
20
60.8353485174441
30
0
0
VERTEX
8
0
10
62.429304659928
20
60.6111011072352
30
0
0
VERTEX
8
0
10
63.2195490227119
20
60.4206313199803
30
0
0
VERTEX
8
0
10
64.0097933854958
20
60.2158084117926
30
0
0
VERTEX
8
0
10
64.8000377482797
20
60.0136332389645
30
0
0
VERTEX
8
0
10
65.5902821110636
20
59.8327270087455
30
0
0
VERTEX
8
0
10
66.3805264738475
20
59.6472281174577
30
0
0
VERTEX
8
0
10
67.1707708366314
20
59.465054256352
30
0
0
VERTEX
8
0
10
67.9610151994153
20
59.287495024191
30
0
0
VERTEX
8
0
10
68.7512595621992
20
59.103435601567
30
0
0
VERTEX
8
0
10
69.5415039249831
20
58.9197700819363
30
0
0
VERTEX
8
0
10
70.331748287767
20
58.7384068556817
30
0
0
VERTEX
8
0
10
71.1219926505509
20
58.5867244257066
30
0
0
VERTEX
8
0
10
71.9122370133348
20
58.3930841599704
30
0
0
VERTEX
8
0
10
72.7024813761187
20
58.2130966357512
30
0
0
VERTEX
8
0
10
73.4927257389026
20
58.0436868619931
30
0
0
VERTEX
8
0
10
74.2829701016865
20
57.8959585451908
30
0
0
VERTEX
8
0
10
75.0732144644704
20
57.7475539989592
30
0
0
VERTEX
8
0
10
75.8634588272543
20
57.6130813671503
30
0
0
VERTEX
8
0
10
76.6537031900382
20
57.4805892127905
30
0
0
VERTEX
8
0
10
77.4439475528221
20
57.3489838208097
30
0
0
VERTEX
8
0
10
78.234191915606
20
57.2192766707898
30
0
0
VERTEX
8
0
10
79.0244362783899
20
57.1137464019917
30
0
0
VERTEX
8
0
10
79.8146806411738
20
56.9787785027963
30
0
0
VERTEX
8
0
10
80.6049250039577
20
56.8533529692711
30
0
0
VERTEX
8
0
10
81.3951693667416
20
56.7461074700016
30
0
0
VERTEX
8
0
10
82.1854137295255
20
56.609023347124
30
0
0
VERTEX
8
0
10
82.9756580923094
20
56.4766679224316
30
0
0
VERTEX
8
0
10
83.7659024550933
20
56.3528355096204
30
0
0
VERTEX
8
0
10
84.5561468178772
20
56.2129358359095
30
0
0
VERTEX
8
0
10
85.3463911806611
20
56.0686547341539
30
0
0
VERTEX
8
0
10
86.136635543445
20
55.9251636141566
30
0
0
VERTEX
8
0
10
86.9268799062288
20
55.7895542558403
30
0
0
VERTEX
8
0
10
87.7171242690127
20
55.6412158890052
30
0
0
VERTEX
8
0
10
88.5073686317966
20
55.4971914633709
30
0
0
VERTEX
8
0
10
89.2976129945805
20
55.3644332989517
30
0
0
VERTEX
8
0
10
90.0878573573644
20
55.2388144931177
30
0
0
VERTEX
8
0
10
90.8781017201483
20
55.1132157687653
30
0
0
VERTEX
8
0
10
91.6683460829322
20
54.9900876270674
30
0
0
VERTEX
8
0
10
92.4585904457161
20
54.8557827585363
30
0
0
VERTEX
8
0
10
93.2488348085
20
54.7183917464119
30
0
0
VERTEX
8
0
10
94.0390791712839
20
54.5815810474317
30
0
0
VERTEX
8
0
10
94.8293235340678
20
54.4623403242864
30
0
0
VERTEX
8
0
10
95.6195678968517
20
54.303478922697
30
0
0
VERTEX
8
0
10
96.4098122596356
20
54.155780172745
30
0
0
VERTEX
8
0
10
97.2000566224195
20
54.0134861690192
30
0
0
VERTEX
8
0
10
97.9903009852034
20
53.8508615121996
30
0
0
VERTEX
8
0
10
98.7805453479873
20
53.6902624469729
30
0
0
VERTEX
8
0
10
99.5707897107712
20
53.5398748160856
30
0
0
VERTEX
8
0
10
100.361034073555
20
53.3676345788181
30
0
0
VERTEX
8
0
10
101.151278436339
20
53.1866990213573
30
0
0
VERTEX
8
0
10
101.941522799123
20
53.005829192367
30
0
0
VERTEX
8
0
10
102.731767161907
20
52.8316181116695
30
0
0
VERTEX
8
0
10
103.522011524691
20
52.6588393366092
30
0
0
VERTEX
8
0
10
104.312255887475
20
52.4852467061638
30
0
0
VERTEX
8
0
10
105.102500250258
20
52.3166064583062
30
0
0
VERTEX
8
0
10
105.892744613042
20
52.1618034217752
30
0
0
VERTEX
8
0
10
106.682988975826
20
52.0061380466209
30
0
0
VERTEX
8
0
10
107.47323333861
20
51.8505652238833
30
0
0
VERTEX
8
0
10
108.263477701394
20
51.7045053942742
30
0
0
VERTEX
8
0
10
109.053722064178
20
51.5619776048732
30
0
0
VERTEX
8
0
10
109.843966426962
20
51.4195894965712
30
0
0
VERTEX
8
0
10
110.634210789746
20
51.2869659019019
30
0
0
VERTEX
8
0
10
111.42445515253
20
51.1162007995867
30
0
0
VERTEX
8
0
10
112.214699515314
20
50.9556596160236
30
0
0
VERTEX
8
0
10
113.004943878097
20
50.7975338004726
30
0
0
VERTEX
8
0
10
113.795188240881
20
50.6395371165198
30
0
0
VERTEX
8
0
10
114.585432603665
20
50.4815855554029
30
0
0
VERTEX
8
0
10
115.375676966449
20
50.3282682524268
30
0
0
VERTEX
8
0
10
116.165921329233
20
50.1730964202183
30
0
0
VERTEX
8
0
10
116.956165692017
20
50.0160970128022
30
0
0
VERTEX
8
0
10
117.746410054801
20
49.8591213875313
30
0
0
VERTEX
8
0
10
118.536654417585
20
49.7084413035332
30
0
0
VERTEX
8
0
10
119.326898780369
20
49.5474400388863
30
0
0
VERTEX
8
0
10
120.117143143153
20
49.3888855793222
30
0
0
VERTEX
8
0
10
120.907387505936
20
49.2372528667364
30
0
0
VERTEX
8
0
10
121.69763186872
20
49.0747925395793
30
0
0
VERTEX
8
0
10
122.487876231504
20
48.912706242377
30
0
0
VERTEX
8
0
10
123.278120594288
20
48.7491457484806
30
0
0
VERTEX
8
0
10
124.068364957072
20
48.5740672395856
30
0
0
VERTEX
8
0
10
124.858609319856
20
48.3943431310297
30
0
0
VERTEX
8
0
10
125.64885368264
20
48.214621241351
30
0
0
VERTEX
8
0
10
126.439098045424
20
48.0441555750686
30
0
0
VERTEX
8
0
10
127.229342408208
20
47.8864461620591
30
0
0
VERTEX
8
0
10
128.019586770992
20
47.7248937296145
30
0
0
VERTEX
8
0
10
128.809831133775
20
47.5588297519205
30
0
0
VERTEX
8
0
10
129.600075496559
20
47.3902003267585
30
0
0
VERTEX
8
0
10
130.390319859343
20
47.2216018234652
30
0
0
VERTEX
8
0
10
131.180564222127
20
47.0572842144387
30
0
0
VERTEX
8
0
10
131.970808584911
20
46.8901584154085
30
0
0
VERTEX
8
0
10
132.761052947695
20
46.7202130127557
30
0
0
VERTEX
8
0
10
133.551297310479
20
46.5502756204112
30
0
0
VERTEX
8
0
10
134.341541673263
20
46.3925111263949
30
0
0
VERTEX
8
0
10
135.131786036047
20
46.2294861986742
30
0
0
VERTEX
8
0
10
135.922030398831
20
46.0672046328864
30
0
0
VERTEX
8
0
10
136.712274761615
20
45.9071583739814
30
0
0
VERTEX
8
0
10
137.502519124398
20
45.7538028002906
30
0
0
VERTEX
8
0
10
138.292763487182
20
45.6005011893001
30
0
0
VERTEX
8
0
10
139.083007849966
20
45.441677007401
30
0
0
VERTEX
8
0
10
139.87325221275
20
45.287047525598
30
0
0
VERTEX
8
0
10
140.663496575534
20
45.1368946543382
30
0
0
VERTEX
8
0
10
141.453740938318
20
44.9867419482154
30
0
0
VERTEX
8
0
10
142.243985301102
20
44.8546082031501
30
0
0
VERTEX
8
0
10
143.034229663886
20
44.7672903380047
30
0
0
VERTEX
8
0
10
143.82447402667
20
44.668497715234
30
0
0
VERTEX
8
0
10
144.614718389454
20
44.5588931464183
30
0
0
VERTEX
8
0
10
145.404962752238
20
44.4773804940504
30
0
0
VERTEX
8
0
10
146.195207115022
20
44.3967779138021
30
0
0
VERTEX
8
0
10
146.985451477805
20
44.3242541238003
30
0
0
VERTEX
8
0
10
147.775695840589
20
44.2584775227447
30
0
0
VERTEX
8
0
10
148.565940203373
20
44.1927787577785
30
0
0
VERTEX
8
0
10
149.356184566157
20
44.1271581765609
30
0
0
VERTEX
8
0
10
150.146428928941
20
44.058694173198
30
0
0
VERTEX
8
0
10
150.936673291725
20
43.9908116250756
30
0
0
VERTEX
8
0
10
151.726917654509
20
43.9230143227717
30
0
0
VERTEX
8
0
10
152.517162017293
20
43.8636591701008
30
0
0
VERTEX
8
0
10
153.307406380077
20
43.8056799459928
30
0
0
VERTEX
8
0
10
154.097650742861
20
43.7477641488501
30
0
0
VERTEX
8
0
10
154.887895105645
20
43.7596399430683
30
0
0
SEQEND
8
0
0
POLYLINE
8
0
62
1
70
0
10
0
20
0
30
0
0
VERTEX
8
0
10
2.3707330883517
20
29.3357658107009
30
0
0
VERTEX
8
0
10
3.1609774511356
20
36.5745587885006
30
0
0
VERTEX
8
0
10
3.9512218139195
20
43.1821065435308
30
0
0
VERTEX
8
0
10
4.7414661767034
20
46.3593783022778
30
0
0
VERTEX
8
0
10
5.5317105394873
20
48.7953925415575
30
0
0
VERTEX
8
0
10
6.3219549022712
20
50.9789040162629
30
0
0
VERTEX
8
0
10
7.1121992650551
20
52.4044022359674
30
0
0
VERTEX
8
0
10
7.902443627839
20
54.0309814471849
30
0
0
VERTEX
8
0
10
8.6926879906229
20
55.6557466012058
30
0
0
VERTEX
8
0
10
9.4829323534068
20
57.3266375769392
30
0
0
VERTEX
8
0
10
10.2731767161907
20
59.3588822307041
30
0
0
VERTEX
8
0
10
11.0634210789746
20
61.4163974744454
30
0
0
VERTEX
8
0
10
11.8536654417585
20
63.4561113799997
30
0
0
VERTEX
8
0
10
12.6439098045424
20
66.1574189579821
30
0
0
VERTEX
8
0
10
13.4341541673263
20
68.1239810050624
30
0
0
VERTEX
8
0
10
14.2243985301102
20
70.0733030131495
30
0
0
VERTEX
8
0
10
15.0146428928941
20
71.5355031041821
30
0
0
VERTEX
8
0
10
15.804887255678
20
72.5863690451731
30
0
0
VERTEX
8
0
10
16.5951316184619
20
73.4952453807784
30
0
0
VERTEX
8
0
10
17.3853759812458
20
74.4024530574586
30
0
0
VERTEX
8
0
10
18.1756203440297
20
73.8709049424054
30
0
0
VERTEX
8
0
10
18.9658647068136
20
73.608164917021
30
0
0
VERTEX
8
0
10
19.7561090695975
20
73.3488230547162
30
0
0
VERTEX
8
0
10
20.5463534323814
20
73.0279493284146
30
0
0
VERTEX
8
0
10
21.3365977951653
20
72.7207007618194
30
0
0
VERTEX
8
0
10
22.1268421579492
20
72.4315992361179
30
0
0
VERTEX
8
0
10
22.9170865207331
20
72.3543986663112
30
0
0
VERTEX
8
0
10
23.707330883517
20
72.4665132255086
30
0
0
VERTEX
8
0
10
24.4975752463009
20
72.5963788176003
30
0
0
VERTEX
8
0
10
25.2878196090848
20
72.732427933404
30
0
0
VERTEX
8
0
10
26.0780639718687
20
72.915092422281
30
0
0
VERTEX
8
0
10
26.8683083346526
20
73.0948222211383
30
0
0
VERTEX
8
0
10
27.6585526974365
20
73.2827792546737
30
0
0
VERTEX
8
0
10
28.4487970602204
20
73.1992850585919
30
0
0
VERTEX
8
0
10
29.2390414230043
20
73.0469997852435
30
0
0
VERTEX
8
0
10
30.0292857857882
20
72.8992983731662
30
0
0
VERTEX
8
0
10
30.8195301485721
20
72.7128382627609
30
0
0
VERTEX
8
0
10
31.609774511356
20
72.4799604163485
30
0
0
VERTEX
8
0
10
32.4000188741399
20
72.2466728037848
30
0
0
VERTEX
8
0
10
33.1902632369238
20
72.0191680304034
30
0
0
VERTEX
8
0
10
33.9805075997077
20
71.8268831631557
30
0
0
VERTEX
8
0
10
34.7707519624916
20
71.5594208329735
30
0
0
VERTEX
8
0
10
35.5609963252755
20
71.3098281536813
30
0
0
VERTEX
8
0
10
36.3512406880594
20
71.0576763938685
30
0
0
VERTEX
8
0
10
37.1414850508433
20
70.7871388655975
30
0
0
VERTEX
8
0
10
37.9317294136272
20
70.516711064881
30
0
0
VERTEX
8
0
10
38.7219737764111
20
70.2481893452995
30
0
0
VERTEX
8
0
10
39.512218139195
20
69.9007046166191
30
0
0
VERTEX
8
0
10
40.3024625019789
20
69.57428847015
30
0
0
VERTEX
8
0
10
41.0927068647628
20
69.249629788756
30
0
0
VERTEX
8
0
10
41.8829512275467
20
68.859300196244
30
0
0
VERTEX
8
0
10
42.6731955903306
20
68.4639788598628
30
0
0
VERTEX
8
0
10
43.4634399531145
20
68.0732856245114
30
0
0
VERTEX
8
0
10
44.2536843158984
20
67.6793155132873
30
0
0
VERTEX
8
0
10
45.0439286786823
20
67.2789778341408
30
0
0
VERTEX
8
0
10
45.8341730414662
20
66.8794150028256
30
0
0
VERTEX
8
0
10
46.6244174042501
20
66.4814417054755
30
0
0
VERTEX
8
0
10
47.414661767034
20
66.1190225175725
30
0
0
VERTEX
8
0
10
48.2049061298179
20
65.7554627320515
30
0
0
VERTEX
8
0
10
48.9951504926018
20
65.3938597308358
30
0
0
VERTEX
8
0
10
49.7853948553857
20
65.0684778270022
30
0
0
VERTEX
8
0
10
50.5756392181696
20
64.7618121573265
30
0
0
VERTEX
8
0
10
51.3658835809535
20
64.4539226479741
30
0
0
VERTEX
8
0
10
52.1561279437374
20
64.1366135034587
30
0
0
VERTEX
8
0
10
52.9463723065213
20
63.8253521621455
30
0
0
VERTEX
8
0
10
53.7366166693052
20
63.5178535782047
30
0
0
VERTEX
8
0
10
54.5268610320891
20
63.2132297751195
30
0
0
VERTEX
8
0
10
55.3171053948729
20
62.9294994201801
30
0
0
VERTEX
8
0
10
56.1073497576568
20
62.638707861166
30
0
0
VERTEX
8
0
10
56.8975941204407
20
62.3506220962988
30
0
0
VERTEX
8
0
10
57.6878384832246
20
62.0783543502091
30
0
0
VERTEX
8
0
10
58.4780828460085
20
61.809211754677
30
0
0
VERTEX
8
0
10
59.2683272087924
20
61.5425773881478
30
0
0
VERTEX
8
0
10
60.0585715715763
20
61.2944605858181
30
0
0
VERTEX
8
0
10
60.8488159343602
20
61.0626596041953
30
0
0
VERTEX
8
0
10
61.6390602971441
20
60.8353485174441
30
0
0
VERTEX
8
0
10
62.429304659928
20
60.6111011072352
30
0
0
VERTEX
8
0
10
63.2195490227119
20
60.4206313199803
30
0
0
VERTEX
8
0
10
64.0097933854958
20
60.2158084117926
30
0
0
VERTEX
8
0
10
64.8000377482797
20
60.0136332389645
30
0
0
VERTEX
8
0
10
65.5902821110636
20
59.8327270087455
30
0
0
VERTEX
8
0
10
66.3805264738475
20
59.6472281174577
30
0
0
VERTEX
8
0
10
67.1707708366314
20
59.465054256352
30
0
0
VERTEX
8
0
10
67.9610151994153
20
59.287495024191
30
0
0
VERTEX
8
0
10
68.7512595621992
20
59.103435601567
30
0
0
VERTEX
8
0
10
69.5415039249831
20
58.9197700819363
30
0
0
VERTEX
8
0
10
70.331748287767
20
58.7384068556817
30
0
0
VERTEX
8
0
10
71.1219926505509
20
58.5867244257066
30
0
0
VERTEX
8
0
10
71.9122370133348
20
58.3930841599704
30
0
0
VERTEX
8
0
10
72.7024813761187
20
58.2130966357512
30
0
0
VERTEX
8
0
10
73.4927257389026
20
58.0436868619931
30
0
0
VERTEX
8
0
10
74.2829701016865
20
57.8959585451908
30
0
0
VERTEX
8
0
10
75.0732144644704
20
57.7475539989592
30
0
0
VERTEX
8
0
10
75.8634588272543
20
57.6130813671503
30
0
0
VERTEX
8
0
10
76.6537031900382
20
57.4805892127905
30
0
0
VERTEX
8
0
10
77.4439475528221
20
57.3489838208097
30
0
0
VERTEX
8
0
10
78.234191915606
20
57.2192766707898
30
0
0
VERTEX
8
0
10
79.0244362783899
20
57.1137464019917
30
0
0
VERTEX
8
0
10
79.8146806411738
20
56.9787785027963
30
0
0
VERTEX
8
0
10
80.6049250039577
20
56.8533529692711
30
0
0
VERTEX
8
0
10
81.3951693667416
20
56.7461074700016
30
0
0
VERTEX
8
0
10
82.1854137295255
20
56.609023347124
30
0
0
VERTEX
8
0
10
82.9756580923094
20
56.4766679224316
30
0
0
VERTEX
8
0
10
83.7659024550933
20
56.3528355096204
30
0
0
VERTEX
8
0
10
84.5561468178772
20
56.2129358359095
30
0
0
VERTEX
8
0
10
85.3463911806611
20
56.0686547341539
30
0
0
VERTEX
8
0
10
86.136635543445
20
55.9251636141566
30
0
0
VERTEX
8
0
10
86.9268799062288
20
55.7895542558403
30
0
0
VERTEX
8
0
10
87.7171242690127
20
55.6412158890052
30
0
0
VERTEX
8
0
10
88.5073686317966
20
55.4971914633709
30
0
0
VERTEX
8
0
10
89.2976129945805
20
55.3644332989517
30
0
0
VERTEX
8
0
10
90.0878573573644
20
55.2388144931177
30
0
0
VERTEX
8
0
10
90.8781017201483
20
55.1132157687653
30
0
0
VERTEX
8
0
10
91.6683460829322
20
54.9900876270674
30
0
0
VERTEX
8
0
10
92.4585904457161
20
54.8557827585363
30
0
0
VERTEX
8
0
10
93.2488348085
20
54.7183917464119
30
0
0
VERTEX
8
0
10
94.0390791712839
20
54.5815810474317
30
0
0
VERTEX
8
0
10
94.8293235340678
20
54.4623403242864
30
0
0
VERTEX
8
0
10
95.6195678968517
20
54.303478922697
30
0
0
VERTEX
8
0
10
96.4098122596356
20
54.155780172745
30
0
0
VERTEX
8
0
10
97.2000566224195
20
54.0134861690192
30
0
0
VERTEX
8
0
10
97.9903009852034
20
53.8508615121996
30
0
0
VERTEX
8
0
10
98.7805453479873
20
53.6902624469729
30
0
0
VERTEX
8
0
10
99.5707897107712
20
53.5398748160856
30
0
0
VERTEX
8
0
10
100.361034073555
20
53.3676345788181
30
0
0
VERTEX
8
0
10
101.151278436339
20
53.1866990213573
30
0
0
VERTEX
8
0
10
101.941522799123
20
53.005829192367
30
0
0
VERTEX
8
0
10
102.731767161907
20
52.8316181116695
30
0
0
VERTEX
8
0
10
103.522011524691
20
52.6588393366092
30
0
0
VERTEX
8
0
10
104.312255887475
20
52.4852467061638
30
0
0
VERTEX
8
0
10
105.102500250258
20
52.3166064583062
30
0
0
VERTEX
8
0
10
105.892744613042
20
52.1618034217752
30
0
0
VERTEX
8
0
10
106.682988975826
20
52.0061380466209
30
0
0
VERTEX
8
0
10
107.47323333861
20
51.8505652238833
30
0
0
VERTEX
8
0
10
108.263477701394
20
51.7045053942742
30
0
0
VERTEX
8
0
10
109.053722064178
20
51.5619776048732
30
0
0
VERTEX
8
0
10
109.843966426962
20
51.4195894965712
30
0
0
VERTEX
8
0
10
110.634210789746
20
51.2869659019019
30
0
0
VERTEX
8
0
10
111.42445515253
20
51.1162007995867
30
0
0
VERTEX
8
0
10
112.214699515314
20
50.9556596160236
30
0
0
VERTEX
8
0
10
113.004943878097
20
50.7975338004726
30
0
0
VERTEX
8
0
10
113.795188240881
20
50.6395371165198
30
0
0
VERTEX
8
0
10
114.585432603665
20
50.4815855554029
30
0
0
VERTEX
8
0
10
115.375676966449
20
50.3282682524268
30
0
0
VERTEX
8
0
10
116.165921329233
20
50.1730964202183
30
0
0
VERTEX
8
0
10
116.956165692017
20
50.0160970128022
30
0
0
VERTEX
8
0
10
117.746410054801
20
49.8591213875313
30
0
0
VERTEX
8
0
10
118.536654417585
20
49.7084413035332
30
0
0
VERTEX
8
0
10
119.326898780369
20
49.5474400388863
30
0
0
VERTEX
8
0
10
120.117143143153
20
49.3888855793222
30
0
0
VERTEX
8
0
10
120.907387505936
20
49.2372528667364
30
0
0
VERTEX
8
0
10
121.69763186872
20
49.0747925395793
30
0
0
VERTEX
8
0
10
122.487876231504
20
48.912706242377
30
0
0
VERTEX
8
0
10
123.278120594288
20
48.7491457484806
30
0
0
VERTEX
8
0
10
124.068364957072
20
48.5740672395856
30
0
0
VERTEX
8
0
10
124.858609319856
20
48.3943431310297
30
0
0
VERTEX
8
0
10
125.64885368264
20
48.214621241351
30
0
0
VERTEX
8
0
10
126.439098045424
20
48.0441555750686
30
0
0
VERTEX
8
0
10
127.229342408208
20
47.8864461620591
30
0
0
VERTEX
8
0
10
128.019586770992
20
47.7248937296145
30
0
0
VERTEX
8
0
10
128.809831133775
20
47.5588297519205
30
0
0
VERTEX
8
0
10
129.600075496559
20
47.3902003267585
30
0
0
VERTEX
8
0
10
130.390319859343
20
47.2216018234652
30
0
0
VERTEX
8
0
10
131.180564222127
20
47.0572842144387
30
0
0
VERTEX
8
0
10
131.970808584911
20
46.8901584154085
30
0
0
VERTEX
8
0
10
132.761052947695
20
46.7202130127557
30
0
0
VERTEX
8
0
10
133.551297310479
20
46.5502756204112
30
0
0
VERTEX
8
0
10
134.341541673263
20
46.3925111263949
30
0
0
VERTEX
8
0
10
135.131786036047
20
46.2294861986742
30
0
0
VERTEX
8
0
10
135.922030398831
20
46.0672046328864
30
0
0
VERTEX
8
0
10
136.712274761615
20
45.9071583739814
30
0
0
VERTEX
8
0
10
137.502519124398
20
45.7538028002906
30
0
0
VERTEX
8
0
10
138.292763487182
20
45.6005011893001
30
0
0
VERTEX
8
0
10
139.083007849966
20
45.441677007401
30
0
0
VERTEX
8
0
10
139.87325221275
20
45.287047525598
30
0
0
VERTEX
8
0
10
140.663496575534
20
45.1368946543382
30
0
0
VERTEX
8
0
10
141.453740938318
20
44.9867419482154
30
0
0
VERTEX
8
0
10
142.243985301102
20
44.8546082031501
30
0
0
VERTEX
8
0
10
143.034229663886
20
44.7672903380047
30
0
0
VERTEX
8
0
10
143.82447402667
20
44.668497715234
30
0
0
VERTEX
8
0
10
144.614718389454
20
44.5588931464183
30
0
0
VERTEX
8
0
10
145.404962752238
20
44.4773804940504
30
0
0
VERTEX
8
0
10
146.195207115022
20
44.3967779138021
30
0
0
VERTEX
8
0
10
146.985451477805
20
44.3242541238003
30
0
0
VERTEX
8
0
10
147.775695840589
20
44.2584775227447
30
0
0
VERTEX
8
0
10
148.565940203373
20
44.1927787577785
30
0
0
VERTEX
8
0
10
149.356184566157
20
44.1271581765609
30
0
0
VERTEX
8
0
10
150.146428928941
20
44.058694173198
30
0
0
VERTEX
8
0
10
150.936673291725
20
43.9908116250756
30
0
0
VERTEX
8
0
10
151.726917654509
20
43.9230143227717
30
0
0
VERTEX
8
0
10
152.517162017293
20
43.8636591701008
30
0
0
VERTEX
8
0
10
153.307406380077
20
43.8056799459928
30
0
0
VERTEX
8
0
10
154.097650742861
20
43.7477641488501
30
0
0
VERTEX
8
0
10
154.887895105645
20
43.7596399430683
30
0
0
SEQEND
8
0
0
POLYLINE
8
0
62
2
70
0
10
0
20
0
30
0
0
VERTEX
8
0
10
2.3707330883517
20
29.0486647852483
30
0
0
VERTEX
8
0
10
3.1609774511356
20
36.5603061546488
30
0
0
VERTEX
8
0
10
3.9512218139195
20
43.0069299677054
30
0
0
VERTEX
8
0
10
4.7414661767034
20
46.3291098262631
30
0
0
VERTEX
8
0
10
5.5317105394873
20
48.8619684171764
30
0
0
VERTEX
8
0
10
6.3219549022712
20
51.1556624968327
30
0
0
VERTEX
8
0
10
7.1121992650551
20
52.4886286641819
30
0
0
VERTEX
8
0
10
7.902443627839
20
54.0082083770525
30
0
0
VERTEX
8
0
10
8.6926879906229
20
55.5533979983586
30
0
0
VERTEX
8
0
10
9.4829323534068
20
57.3095143316197
30
0
0
VERTEX
8
0
10
10.2731767161907
20
59.3268757221024
30
0
0
VERTEX
8
0
10
11.0634210789746
20
61.3931619936296
30
0
0
VERTEX
8
0
10
11.8536654417585
20
63.4858461522861
30
0
0
VERTEX
8
0
10
12.6439098045424
20
66.1916023883637
30
0
0
VERTEX
8
0
10
13.4341541673263
20
68.2378444029833
30
0
0
VERTEX
8
0
10
14.2243985301102
20
70.2612722624297
30
0
0
VERTEX
8
0
10
15.0146428928941
20
71.5495544927963
30
0
0
VERTEX
8
0
10
15.804887255678
20
72.5834815368194
30
0
0
VERTEX
8
0
10
16.5951316184619
20
73.4804854152647
30
0
0
VERTEX
8
0
10
17.3853759812458
20
74.3694619021118
30
0
0
VERTEX
8
0
10
18.1756203440297
20
73.8701371686601
30
0
0
VERTEX
8
0
10
18.9658647068136
20
73.6047707619798
30
0
0
VERTEX
8
0
10
19.7561090695975
20
73.3540458826453
30
0
0
VERTEX
8
0
10
20.5463534323814
20
73.0484115453612
30
0
0
VERTEX
8
0
10
21.3365977951653
20
72.7580849379308
30
0
0
VERTEX
8
0
10
22.1268421579492
20
72.4926624548924
30
0
0
VERTEX
8
0
10
22.9170865207331
20
72.3532624259535
30
0
0
VERTEX
8
0
10
23.707330883517
20
72.4650715981304
30
0
0
VERTEX
8
0
10
24.4975752463009
20
72.5695879072634
30
0
0
VERTEX
8
0
10
25.2878196090848
20
72.7102639226725
30
0
0
VERTEX
8
0
10
26.0780639718687
20
72.9000747200943
30
0
0
VERTEX
8
0
10
26.8683083346526
20
73.0928360927802
30
0
0
VERTEX
8
0
10
27.6585526974365
20
73.2894900432825
30
0
0
VERTEX
8
0
10
28.4487970602204
20
73.2234757711502
30
0
0
VERTEX
8
0
10
29.2390414230043
20
73.0861924465305
30
0
0
VERTEX
8
0
10
30.0292857857882
20
72.9013372462618
30
0
0
VERTEX
8
0
10
30.8195301485721
20
72.7149058761245
30
0
0
VERTEX
8
0
10
31.609774511356
20
72.48198042595
30
0
0
VERTEX
8
0
10
32.4000188741399
20
72.2296036462829
30
0
0
VERTEX
8
0
10
33.1902632369238
20
72.0073173995826
30
0
0
VERTEX
8
0
10
33.9805075997077
20
71.8193084632136
30
0
0
VERTEX
8
0
10
34.7707519624916
20
71.5614046653423
30
0
0
VERTEX
8
0
10
35.5609963252755
20
71.3189543601495
30
0
0
VERTEX
8
0
10
36.3512406880594
20
71.0751095446074
30
0
0
VERTEX
8
0
10
37.1414850508433
20
70.8138481686854
30
0
0
VERTEX
8
0
10
37.9317294136272
20
70.5197088855755
30
0
0
VERTEX
8
0
10
38.7219737764111
20
70.2501588012421
30
0
0
VERTEX
8
0
10
39.512218139195
20
69.904201061652
30
0
0
VERTEX
8
0
10
40.3024625019789
20
69.565573914627
30
0
0
VERTEX
8
0
10
41.0927068647628
20
69.2440915743114
30
0
0
VERTEX
8
0
10
41.8829512275467
20
68.8592011183699
30
0
0
VERTEX
8
0
10
42.6731955903306
20
68.4669999056617
30
0
0
VERTEX
8
0
10
43.4634399531145
20
68.0794439203983
30
0
0
VERTEX
8
0
10
44.2536843158984
20
67.6887087619418
30
0
0
VERTEX
8
0
10
45.0439286786823
20
67.2915141389113
30
0
0
VERTEX
8
0
10
45.8341730414662
20
66.8806016330931
30
0
0
VERTEX
8
0
10
46.6244174042501
20
66.4831824869757
30
0
0
VERTEX
8
0
10
47.414661767034
20
66.1196724327241
30
0
0
VERTEX
8
0
10
48.2049061298179
20
65.7497983523758
30
0
0
VERTEX
8
0
10
48.9951504926018
20
65.3908123424845
30
0
0
VERTEX
8
0
10
49.7853948553857
20
65.0673071995064
30
0
0
VERTEX
8
0
10
50.5756392181696
20
64.7636072926042
30
0
0
VERTEX
8
0
10
51.3658835809535
20
64.4587762695765
30
0
0
VERTEX
8
0
10
52.1561279437374
20
64.1449343979605
30
0
0
VERTEX
8
0
10
52.9463723065213
20
63.8365545151376
30
0
0
VERTEX
8
0
10
53.7366166693052
20
63.5185018145493
30
0
0
VERTEX
8
0
10
54.5268610320891
20
63.214594999187
30
0
0
VERTEX
8
0
10
55.3171053948729
20
62.9223445982776
30
0
0
VERTEX
8
0
10
56.1073497576568
20
62.6339758573017
30
0
0
VERTEX
8
0
10
56.8975941204407
20
62.3481379177013
30
0
0
VERTEX
8
0
10
57.6878384832246
20
62.0773572700256
30
0
0
VERTEX
8
0
10
58.4780828460085
20
61.8103926467884
30
0
0
VERTEX
8
0
10
59.2683272087924
20
61.5468426094481
30
0
0
VERTEX
8
0
10
60.0585715715763
20
61.301780348679
30
0
0
VERTEX
8
0
10
60.8488159343602
20
61.0733119424787
30
0
0
VERTEX
8
0
10
61.6390602971441
20
60.8346528286672
30
0
0
VERTEX
8
0
10
62.429304659928
20
60.6123556826819
30
0
0
VERTEX
8
0
10
63.2195490227119
20
60.4113313208734
30
0
0
VERTEX
8
0
10
64.0097933854958
20
60.2101604484095
30
0
0
VERTEX
8
0
10
64.8000377482797
20
60.0112105689852
30
0
0
VERTEX
8
0
10
65.5902821110636
20
59.8315595758246
30
0
0
VERTEX
8
0
10
66.3805264738475
20
59.6499774573147
30
0
0
VERTEX
8
0
10
67.1707708366314
20
59.4711763626714
30
0
0
VERTEX
8
0
10
67.9610151994153
20
59.2961843112176
30
0
0
VERTEX
8
0
10
68.7512595621992
20
59.1042061470206
30
0
0
VERTEX
8
0
10
69.5415039249831
20
58.9198367296158
30
0
0
VERTEX
8
0
10
70.331748287767
20
58.7412349948682
30
0
0
VERTEX
8
0
10
71.1219926505509
20
58.5780498758202
30
0
0
VERTEX
8
0
10
71.9122370133348
20
58.3903140623809
30
0
0
VERTEX
8
0
10
72.7024813761187
20
58.2101306703448
30
0
0
VERTEX
8
0
10
73.4927257389026
20
58.0438193227933
30
0
0
VERTEX
8
0
10
74.2829701016865
20
57.8971276394872
30
0
0
VERTEX
8
0
10
75.0732144644704
20
57.7535155700672
30
0
0
VERTEX
8
0
10
75.8634588272543
20
57.6218618893122
30
0
0
VERTEX
8
0
10
76.6537031900382
20
57.4806454651472
30
0
0
VERTEX
8
0
10
77.4439475528221
20
57.3487850531898
30
0
0
VERTEX
8
0
10
78.234191915606
20
57.2219488985645
30
0
0
VERTEX
8
0
10
79.0244362783899
20
57.1050197665601
30
0
0
VERTEX
8
0
10
79.8146806411738
20
56.9761232008567
30
0
0
VERTEX
8
0
10
80.6049250039577
20
56.8540714885498
30
0
0
VERTEX
8
0
10
81.3951693667416
20
56.74558666419
30
0
0
VERTEX
8
0
10
82.1854137295255
20
56.6145496880098
30
0
0
VERTEX
8
0
10
82.9756580923094
20
56.4850181045794
30
0
0
VERTEX
8
0
10
83.7659024550933
20
56.362010632047
30
0
0
VERTEX
8
0
10
84.5561468178772
20
56.2151531280705
30
0
0
VERTEX
8
0
10
85.3463911806611
20
56.0705011950831
30
0
0
VERTEX
8
0
10
86.136635543445
20
55.9276988761891
30
0
0
VERTEX
8
0
10
86.9268799062288
20
55.7850368798242
30
0
0
VERTEX
8
0
10
87.7171242690127
20
55.6396808351803
30
0
0
VERTEX
8
0
10
88.5073686317966
20
55.4971985850807
30
0
0
VERTEX
8
0
10
89.2976129945805
20
55.3660926535517
30
0
0
VERTEX
8
0
10
90.0878573573644
20
55.2425844383966
30
0
0
VERTEX
8
0
10
90.8781017201483
20
55.1205677149929
30
0
0
VERTEX
8
0
10
91.6683460829322
20
54.9986605854865
30
0
0
VERTEX
8
0
10
92.4585904457161
20
54.8582345325542
30
0
0
VERTEX
8
0
10
93.2488348085
20
54.7205943625294
30
0
0
VERTEX
8
0
10
94.0390791712839
20
54.5810947207922
30
0
0
VERTEX
8
0
10
94.8293235340678
20
54.4581500468259
30
0
0
VERTEX
8
0
10
95.6195678968517
20
54.3070302216605
30
0
0
VERTEX
8
0
10
96.4098122596356
20
54.1592798284598
30
0
0
VERTEX
8
0
10
97.2000566224195
20
54.0152750613365
30
0
0
VERTEX
8
0
10
97.9903009852034
20
53.8562679228903
30
0
0
VERTEX
8
0
10
98.7805453479873
20
53.6980670712595
30
0
0
VERTEX
8
0
10
99.5707897107712
20
53.5454798457619
30
0
0
VERTEX
8
0
10
100.361034073555
20
53.370917267657
30
0
0
VERTEX
8
0
10
101.151278436339
20
53.1894585926028
30
0
0
VERTEX
8
0
10
101.941522799123
20
53.0066186331931
30
0
0
VERTEX
8
0
10
102.731767161907
20
52.8316302712447
30
0
0
VERTEX
8
0
10
103.522011524691
20
52.6586357911467
30
0
0
VERTEX
8
0
10
104.312255887475
20
52.4855073623096
30
0
0
VERTEX
8
0
10
105.102500250258
20
52.3184581954781
30
0
0
VERTEX
8
0
10
105.892744613042
20
52.1626228414589
30
0
0
VERTEX
8
0
10
106.682988975826
20
52.0079990849839
30
0
0
VERTEX
8
0
10
107.47323333861
20
51.8518886571038
30
0
0
VERTEX
8
0
10
108.263477701394
20
51.7053185308732
30
0
0
VERTEX
8
0
10
109.053722064178
20
51.5633048068106
30
0
0
VERTEX
8
0
10
109.843966426962
20
51.4219683700053
30
0
0
VERTEX
8
0
10
110.634210789746
20
51.284341188387
30
0
0
VERTEX
8
0
10
111.42445515253
20
51.1210768405562
30
0
0
VERTEX
8
0
10
112.214699515314
20
50.9578640657934
30
0
0
VERTEX
8
0
10
113.004943878097
20
50.7993845436395
30
0
0
VERTEX
8
0
10
113.795188240881
20
50.6415343984887
30
0
0
VERTEX
8
0
10
114.585432603665
20
50.4846919400867
30
0
0
VERTEX
8
0
10
115.375676966449
20
50.3295745005613
30
0
0
VERTEX
8
0
10
116.165921329233
20
50.1745689384634
30
0
0
VERTEX
8
0
10
116.956165692017
20
50.0177105513163
30
0
0
VERTEX
8
0
10
117.746410054801
20
49.8612472192273
30
0
0
VERTEX
8
0
10
118.536654417585
20
49.7082943668098
30
0
0
VERTEX
8
0
10
119.326898780369
20
49.5494917415933
30
0
0
VERTEX
8
0
10
120.117143143153
20
49.3916501901042
30
0
0
VERTEX
8
0
10
120.907387505936
20
49.2373232300069
30
0
0
VERTEX
8
0
10
121.69763186872
20
49.078630451898
30
0
0
VERTEX
8
0
10
122.487876231504
20
48.9195342459775
30
0
0
VERTEX
8
0
10
123.278120594288
20
48.7621709991307
30
0
0
VERTEX
8
0
10
124.068364957072
20
48.606463063536
30
0
0
VERTEX
8
0
10
124.858609319856
20
48.4522954365769
30
0
0
VERTEX
8
0
10
125.64885368264
20
48.2996113329124
30
0
0
VERTEX
8
0
10
126.439098045424
20
48.1483749128614
30
0
0
VERTEX
8
0
10
127.229342408208
20
47.9985577066981
30
0
0
VERTEX
8
0
10
128.019586770992
20
47.8501344083787
30
0
0
VERTEX
8
0
10
128.809831133775
20
47.7030813872297
30
0
0
VERTEX
8
0
10
129.600075496559
20
47.5573760516022
30
0
0
VERTEX
8
0
10
130.390319859343
20
47.4129965201475
30
0
0
VERTEX
8
0
10
131.180564222127
20
47.2699214149377
30
0
0
VERTEX
8
0
10
131.970808584911
20
47.1281296985635
30
0
0
VERTEX
8
0
10
132.761052947695
20
46.9876005116641
30
0
0
VERTEX
8
0
10
133.551297310479
20
46.8483129737289
30
0
0
VERTEX
8
0
10
134.341541673263
20
46.7102458982091
30
0
0
VERTEX
8
0
10
135.131786036047
20
46.5733773362707
30
0
0
VERTEX
8
0
10
135.922030398831
20
46.4376837724579
30
0
0
VERTEX
8
0
10
136.712274761615
20
46.3031385578487
30
0
0
VERTEX
8
0
10
137.502519124398
20
46.1697084787227
30
0
0
VERTEX
8
0
10
138.292763487182
20
46.0373451870198
30
0
0
VERTEX
8
0
10
139.083007849966
20
45.9059613593898
30
0
0
VERTEX
8
0
10
139.87325221275
20
45.7753655182156
30
0
0
VERTEX
8
0
10
140.663496575534
20
45.6451704341705
30
0
0
VERTEX
8
0
10
141.453740938318
20
45.5157393430998
30
0
0
VERTEX
8
0
10
142.243985301102
20
45.3956215971168
30
0
0
VERTEX
8
0
10
143.034229663886
20
45.2968797602427
30
0
0
VERTEX
8
0
10
143.82447402667
20
45.1971423618345
30
0
0
VERTEX
8
0
10
144.614718389454
20
45.094001712273
30
0
0
VERTEX
8
0
10
145.404962752238
20
45.0059233618382
30
0
0
VERTEX
8
0
10
146.195207115022
20
44.923671891636
30
0
0
VERTEX
8
0
10
146.985451477805
20
44.8502048981691
30
0
0
VERTEX
8
0
10
147.775695840589
20
44.7823966447478
30
0
0
VERTEX
8
0
10
148.565940203373
20
44.7131177437083
30
0
0
VERTEX
8
0
10
149.356184566157
20
44.6465111868634
30
0
0
VERTEX
8
0
10
150.146428928941
20
44.5777524978672
30
0
0
VERTEX
8
0
10
150.936673291725
20
44.5083897160371
30
0
0
VERTEX
8
0
10
151.726917654509
20
44.4412038919548
30
0
0
VERTEX
8
0
10
152.517162017293
20
44.3795229419087
30
0
0
VERTEX
8
0
10
153.307406380077
20
44.3232049263056
30
0
0
VERTEX
8
0
10
154.097650742861
20
44.2812715334707
30
0
0
VERTEX
8
0
10
154.887895105645
20
44.2528412272197
30
0
0
SEQEND
8
0
0
POLYLINE
8
0
62
3
70
0
10
0
20
0
30
0
0
VERTEX
8
0
10
2.3707330883517
20
31.4390107044936
30
0
0
VERTEX
8
0
10
3.1609774511356
20
39.7868003185783
30
0
0
VERTEX
8
0
10
3.9512218139195
20
47.0411921779951
30
0
0
VERTEX
8
0
10
4.7414661767034
20
51.3104728006227
30
0
0
VERTEX
8
0
10
5.5317105394873
20
54.7966615868663
30
0
0
VERTEX
8
0
10
6.3219549022712
20
58.022371554712
30
0
0
VERTEX
8
0
10
7.1121992650551
20
60.2941089451693
30
0
0
VERTEX
8
0
10
7.902443627839
20
62.7662772128708
30
0
0
VERTEX
8
0
10
8.6926879906229
20
65.2452507881592
30
0
0
VERTEX
8
0
10
9.4829323534068
20
67.8340594738802
30
0
0
VERTEX
8
0
10
10.2731767161907
20
70.6982191172776
30
0
0
VERTEX
8
0
10
11.0634210789746
20
73.5818445724662
30
0
0
VERTEX
8
0
10
11.8536654417585
20
76.4613250822458
30
0
0
VERTEX
8
0
10
12.6439098045424
20
79.8230314069566
30
0
0
VERTEX
8
0
10
13.4341541673263
20
82.5788841549047
30
0
0
VERTEX
8
0
10
14.2243985301102
20
85.2650616701223
30
0
0
VERTEX
8
0
10
15.0146428928941
20
87.1697456233062
30
0
0
VERTEX
8
0
10
15.804887255678
20
88.8933771080923
30
0
0
VERTEX
8
0
10
16.5951316184619
20
90.3775630545959
30
0
0
VERTEX
8
0
10
17.3853759812458
20
91.914281709689
30
0
0
VERTEX
8
0
10
18.1756203440297
20
92.2397371307679
30
0
0
VERTEX
8
0
10
18.9658647068136
20
92.7173016811269
30
0
0
VERTEX
8
0
10
19.7561090695975
20
93.1824932277473
30
0
0
VERTEX
8
0
10
20.5463534323814
20
93.5828953753209
30
0
0
VERTEX
8
0
10
21.3365977951653
20
93.9798348299736
30
0
0
VERTEX
8
0
10
22.1268421579492
20
94.3858032620055
30
0
0
VERTEX
8
0
10
22.9170865207331
20
94.834101400966
30
0
0
VERTEX
8
0
10
23.707330883517
20
95.5026585824224
30
0
0
VERTEX
8
0
10
24.4975752463009
20
96.1067696980017
30
0
0
VERTEX
8
0
10
25.2878196090848
20
96.7843366351353
30
0
0
VERTEX
8
0
10
26.0780639718687
20
97.4850627123898
30
0
0
VERTEX
8
0
10
26.8683083346526
20
98.1713190824879
30
0
0
VERTEX
8
0
10
27.6585526974365
20
98.8402767554799
30
0
0
VERTEX
8
0
10
28.4487970602204
20
99.2876319752378
30
0
0
VERTEX
8
0
10
29.2390414230043
20
99.6629727900628
30
0
0
VERTEX
8
0
10
30.0292857857882
20
99.9487276037308
30
0
0
VERTEX
8
0
10
30.8195301485721
20
100.246410791554
30
0
0
VERTEX
8
0
10
31.609774511356
20
100.495611120695
30
0
0
VERTEX
8
0
10
32.4000188741399
20
100.690081795047
30
0
0
VERTEX
8
0
10
33.1902632369238
20
100.930188260704
30
0
0
VERTEX
8
0
10
33.9805075997077
20
101.184375282196
30
0
0
VERTEX
8
0
10
34.7707519624916
20
101.375226622035
30
0
0
VERTEX
8
0
10
35.5609963252755
20
101.565449830043
30
0
0
VERTEX
8
0
10
36.3512406880594
20
101.743444028734
30
0
0
VERTEX
8
0
10
37.1414850508433
20
101.897889127496
30
0
0
VERTEX
8
0
10
37.9317294136272
20
101.991193572359
30
0
0
VERTEX
8
0
10
38.7219737764111
20
102.113067275404
30
0
0
VERTEX
8
0
10
39.512218139195
20
102.172078851598
30
0
0
VERTEX
8
0
10
40.3024625019789
20
102.210717242652
30
0
0
VERTEX
8
0
10
41.0927068647628
20
102.276793831469
30
0
0
VERTEX
8
0
10
41.8829512275467
20
102.289155740014
30
0
0
VERTEX
8
0
10
42.6731955903306
20
102.288273437967
30
0
0
VERTEX
8
0
10
43.4634399531145
20
102.28386156949
30
0
0
VERTEX
8
0
10
44.2536843158984
20
102.271075453682
30
0
0
VERTEX
8
0
10
45.0439286786823
20
102.248306489001
30
0
0
VERTEX
8
0
10
45.8341730414662
20
102.19888933433
30
0
0
VERTEX
8
0
10
46.6244174042501
20
102.165053944066
30
0
0
VERTEX
8
0
10
47.414661767034
20
102.150273648302
30
0
0
VERTEX
8
0
10
48.2049061298179
20
102.119558431873
30
0
0
VERTEX
8
0
10
48.9951504926018
20
102.104662216806
30
0
0
VERTEX
8
0
10
49.7853948553857
20
102.110912321515
30
0
0
VERTEX
8
0
10
50.5756392181696
20
102.127859683401
30
0
0
VERTEX
8
0
10
51.3658835809535
20
102.141111155359
30
0
0
VERTEX
8
0
10
52.1561279437374
20
102.145529551927
30
0
0
VERTEX
8
0
10
52.9463723065213
20
102.151175279166
30
0
0
VERTEX
8
0
10
53.7366166693052
20
102.134683272097
30
0
0
VERTEX
8
0
10
54.5268610320891
20
102.13590558705
30
0
0
VERTEX
8
0
10
55.3171053948729
20
102.131440343512
30
0
0
VERTEX
8
0
10
56.1073497576568
20
102.142293429035
30
0
0
VERTEX
8
0
10
56.8975941204407
20
102.152569882398
30
0
0
VERTEX
8
0
10
57.6878384832246
20
102.170939172469
30
0
0
VERTEX
8
0
10
58.4780828460085
20
102.190301070101
30
0
0
VERTEX
8
0
10
59.2683272087924
20
102.210575493753
30
0
0
VERTEX
8
0
10
60.0585715715763
20
102.241618602382
30
0
0
VERTEX
8
0
10
60.8488159343602
20
102.281947598824
30
0
0
VERTEX
8
0
10
61.6390602971441
20
102.29858483891
30
0
0
VERTEX
8
0
10
62.429304659928
20
102.336535284553
30
0
0
VERTEX
8
0
10
63.2195490227119
20
102.373477484906
30
0
0
VERTEX
8
0
10
64.0097933854958
20
102.425832020953
30
0
0
VERTEX
8
0
10
64.8000377482797
20
102.477581577337
30
0
0
VERTEX
8
0
10
65.5902821110636
20
102.539992771223
30
0
0
VERTEX
8
0
10
66.3805264738475
20
102.599808087439
30
0
0
VERTEX
8
0
10
67.1707708366314
20
102.659732310825
30
0
0
VERTEX
8
0
10
67.9610151994153
20
102.720241495952
30
0
0
VERTEX
8
0
10
68.7512595621992
20
102.755084016401
30
0
0
VERTEX
8
0
10
69.5415039249831
20
102.803287035848
30
0
0
VERTEX
8
0
10
70.331748287767
20
102.85344541947
30
0
0
VERTEX
8
0
10
71.1219926505509
20
102.900765412816
30
0
0
VERTEX
8
0
10
71.9122370133348
20
102.946093074646
30
0
0
VERTEX
8
0
10
72.7024813761187
20
102.994143058212
30
0
0
VERTEX
8
0
10
73.4927257389026
20
103.049341544848
30
0
0
VERTEX
8
0
10
74.2829701016865
20
103.115117983144
30
0
0
VERTEX
8
0
10
75.0732144644704
20
103.181506077914
30
0
0
VERTEX
8
0
10
75.8634588272543
20
103.253909020409
30
0
0
VERTEX
8
0
10
76.6537031900382
20
103.302892668316
30
0
0
VERTEX
8
0
10
77.4439475528221
20
103.367760179699
30
0
0
VERTEX
8
0
10
78.234191915606
20
103.433919494677
30
0
0
VERTEX
8
0
10
79.0244362783899
20
103.492290991893
30
0
0
VERTEX
8
0
10
79.8146806411738
20
103.557917278131
30
0
0
VERTEX
8
0
10
80.6049250039577
20
103.625123720818
30
0
0
VERTEX
8
0
10
81.3951693667416
20
103.698500628453
30
0
0
VERTEX
8
0
10
82.1854137295255
20
103.756586108849
30
0
0
VERTEX
8
0
10
82.9756580923094
20
103.813670964066
30
0
0
VERTEX
8
0
10
83.7659024550933
20
103.872303788605
30
0
0
VERTEX
8
0
10
84.5561468178772
20
103.900266707339
30
0
0
VERTEX
8
0
10
85.3463911806611
20
103.93902453414
30
0
0
VERTEX
8
0
10
86.136635543445
20
103.976849453741
30
0
0
VERTEX
8
0
10
86.9268799062288
20
104.004813211627
30
0
0
VERTEX
8
0
10
87.7171242690127
20
104.040541990437
30
0
0
VERTEX
8
0
10
88.5073686317966
20
104.075772873699
30
0
0
VERTEX
8
0
10
89.2976129945805
20
104.115771593595
30
0
0
VERTEX
8
0
10
90.0878573573644
20
104.158303300721
30
0
0
VERTEX
8
0
10
90.8781017201483
20
104.199686147988
30
0
0
VERTEX
8
0
10
91.6683460829322
20
104.239038870591
30
0
0
VERTEX
8
0
10
92.4585904457161
20
104.252726755114
30
0
0
VERTEX
8
0
10
93.2488348085
20
104.276516795598
30
0
0
VERTEX
8
0
10
94.0390791712839
20
104.286400823402
30
0
0
VERTEX
8
0
10
94.8293235340678
20
104.319244525154
30
0
0
VERTEX
8
0
10
95.6195678968517
20
104.332202611475
30
0
0
VERTEX
8
0
10
96.4098122596356
20
104.344509890587
30
0
0
VERTEX
8
0
10
97.2000566224195
20
104.356886513219
30
0
0
VERTEX
8
0
10
97.9903009852034
20
104.358675727251
30
0
0
VERTEX
8
0
10
98.7805453479873
20
104.359308959013
30
0
0
VERTEX
8
0
10
99.5707897107712
20
104.361214497346
30
0
0
VERTEX
8
0
10
100.361034073555
20
104.34152896745
30
0
0
VERTEX
8
0
10
101.151278436339
20
104.322791064275
30
0
0
VERTEX
8
0
10
101.941522799123
20
104.298777893973
30
0
0
VERTEX
8
0
10
102.731767161907
20
104.281408221053
30
0
0
VERTEX
8
0
10
103.522011524691
20
104.263888036624
30
0
0
VERTEX
8
0
10
104.312255887475
20
104.244962180782
30
0
0
VERTEX
8
0
10
105.102500250258
20
104.228229222582
30
0
0
VERTEX
8
0
10
105.892744613042
20
104.216569039087
30
0
0
VERTEX
8
0
10
106.682988975826
20
104.204157510081
30
0
0
VERTEX
8
0
10
107.47323333861
20
104.185752735992
30
0
0
VERTEX
8
0
10
108.263477701394
20
104.174320599074
30
0
0
VERTEX
8
0
10
109.053722064178
20
104.164124851185
30
0
0
VERTEX
8
0
10
109.843966426962
20
104.148116834199
30
0
0
VERTEX
8
0
10
110.634210789746
20
104.141189148277
30
0
0
VERTEX
8
0
10
111.42445515253
20
104.117641425594
30
0
0
VERTEX
8
0
10
112.214699515314
20
104.092517260822
30
0
0
VERTEX
8
0
10
113.004943878097
20
104.068822434743
30
0
0
VERTEX
8
0
10
113.795188240881
20
104.044343230692
30
0
0
VERTEX
8
0
10
114.585432603665
20
104.019390100764
30
0
0
VERTEX
8
0
10
115.375676966449
20
103.992198294667
30
0
0
VERTEX
8
0
10
116.165921329233
20
103.965789701077
30
0
0
VERTEX
8
0
10
116.956165692017
20
103.937578846756
30
0
0
VERTEX
8
0
10
117.746410054801
20
103.907233712404
30
0
0
VERTEX
8
0
10
118.536654417585
20
103.880239179917
30
0
0
VERTEX
8
0
10
119.326898780369
20
103.848958248232
30
0
0
VERTEX
8
0
10
120.117143143153
20
103.81719271089
30
0
0
VERTEX
8
0
10
120.907387505936
20
103.786425815198
30
0
0
VERTEX
8
0
10
121.69763186872
20
103.75249993124
30
0
0
VERTEX
8
0
10
122.487876231504
20
103.717936674157
30
0
0
VERTEX
8
0
10
123.278120594288
20
103.683635750984
30
0
0
VERTEX
8
0
10
124.068364957072
20
103.649604615833
30
0
0
VERTEX
8
0
10
124.858609319856
20
103.615825071376
30
0
0
VERTEX
8
0
10
125.64885368264
20
103.582302755669
30
0
0
VERTEX
8
0
10
126.439098045424
20
103.54905047929
30
0
0
VERTEX
8
0
10
127.229342408208
20
103.516082422282
30
0
0
VERTEX
8
0
10
128.019586770992
20
103.483412611262
30
0
0
VERTEX
8
0
10
128.809831133775
20
103.451054576914
30
0
0
VERTEX
8
0
10
129.600075496559
20
103.419021345096
30
0
0
VERTEX
8
0
10
130.390319859343
20
103.387325529904
30
0
0
VERTEX
8
0
10
131.180564222127
20
103.355979459032
30
0
0
VERTEX
8
0
10
131.970808584911
20
103.324995308373
30
0
0
VERTEX
8
0
10
132.761052947695
20
103.29438523697
30
0
0
VERTEX
8
0
10
133.551297310479
20
103.264161516332
30
0
0
VERTEX
8
0
10
134.341541673263
20
103.234336644188
30
0
0
VERTEX
8
0
10
135.131786036047
20
103.204923419426
30
0
0
VERTEX
8
0
10
135.922030398831
20
103.175934919705
30
0
0
VERTEX
8
0
10
136.712274761615
20
103.147384226018
30
0
0
VERTEX
8
0
10
137.502519124398
20
103.119283445513
30
0
0
VERTEX
8
0
10
138.292763487182
20
103.091640635848
30
0
0
VERTEX
8
0
10
139.083007849966
20
103.064450219205
30
0
0
VERTEX
8
0
10
139.87325221275
20
103.037665619681
30
0
0
VERTEX
8
0
10
140.663496575534
20
103.011163037308
30
0
0
VERTEX
8
0
10
141.453740938318
20
102.985183019051
30
0
0
VERTEX
8
0
10
142.243985301102
20
102.962688661922
30
0
0
VERTEX
8
0
10
143.034229663886
20
102.951762646539
30
0
0
VERTEX
8
0
10
143.82447402667
20
102.940768595886
30
0
0
VERTEX
8
0
10
144.614718389454
20
102.928444238322
30
0
0
VERTEX
8
0
10
145.404962752238
20
102.924869429234
30
0
0
VERTEX
8
0
10
146.195207115022
20
102.917453059774
30
0
0
VERTEX
8
0
10
146.985451477805
20
102.918042517645
30
0
0
VERTEX
8
0
10
147.775695840589
20
102.921157303352
30
0
0
VERTEX
8
0
10
148.565940203373
20
102.917442018287
30
0
0
VERTEX
8
0
10
149.356184566157
20
102.922965835575
30
0
0
VERTEX
8
0
10
150.146428928941
20
102.927014050276
30
0
0
VERTEX
8
0
10
150.936673291725
20
102.930412777186
30
0
0
VERTEX
8
0
10
151.726917654509
20
102.934535540754
30
0
0
VERTEX
8
0
10
152.517162017293
20
102.94109400508
30
0
0
VERTEX
8
0
10
153.307406380077
20
102.949478374238
30
0
0
VERTEX
8
0
10
154.097650742861
20
102.955339857394
30
0
0
VERTEX
8
0
10
154.887895105645
20
102.97249048102
30
0
0
SEQEND
8
0
0
POLYLINE
8
0
62
4
70
0
10
0
20
0
30
0
0
VERTEX
8
0
10
2.3707330883517
20
31.4390107044936
30
0
0
VERTEX
8
0
10
3.1609774511356
20
39.7868003185783
30
0
0
VERTEX
8
0
10
3.9512218139195
20
47.0411921779951
30
0
0
VERTEX
8
0
10
4.7414661767034
20
51.3104728006227
30
0
0
VERTEX
8
0
10
5.5317105394873
20
54.7966615868663
30
0
0
VERTEX
8
0
10
6.3219549022712
20
58.022371554712
30
0
0
VERTEX
8
0
10
7.1121992650551
20
60.2941089451693
30
0
0
VERTEX
8
0
10
7.902443627839
20
62.7662772128708
30
0
0
VERTEX
8
0
10
8.6926879906229
20
65.2452507881592
30
0
0
VERTEX
8
0
10
9.4829323534068
20
67.8340594738802
30
0
0
VERTEX
8
0
10
10.2731767161907
20
70.6982191172776
30
0
0
VERTEX
8
0
10
11.0634210789746
20
73.5818445724662
30
0
0
VERTEX
8
0
10
11.8536654417585
20
76.4613250822458
30
0
0
VERTEX
8
0
10
12.6439098045424
20
79.8230314069566
30
0
0
VERTEX
8
0
10
13.4341541673263
20
82.5788841549047
30
0
0
VERTEX
8
0
10
14.2243985301102
20
85.2650616701223
30
0
0
VERTEX
8
0
10
15.0146428928941
20
87.1697456233062
30
0
0
VERTEX
8
0
10
15.804887255678
20
88.8933771080923
30
0
0
VERTEX
8
0
10
16.5951316184619
20
90.3775630545959
30
0
0
VERTEX
8
0
10
17.3853759812458
20
91.914281709689
30
0
0
VERTEX
8
0
10
18.1756203440297
20
92.2397371307679
30
0
0
VERTEX
8
0
10
18.9658647068136
20
92.7173016811269
30
0
0
VERTEX
8
0
10
19.7561090695975
20
93.1824932277473
30
0
0
VERTEX
8
0
10
20.5463534323814
20
93.5828953753209
30
0
0
VERTEX
8
0
10
21.3365977951653
20
93.9798348299736
30
0
0
VERTEX
8
0
10
22.1268421579492
20
94.3858032620055
30
0
0
VERTEX
8
0
10
22.9170865207331
20
94.834101400966
30
0
0
VERTEX
8
0
10
23.707330883517
20
95.5026585824224
30
0
0
VERTEX
8
0
10
24.4975752463009
20
96.1067696980017
30
0
0
VERTEX
8
0
10
25.2878196090848
20
96.7843366351353
30
0
0
VERTEX
8
0
10
26.0780639718687
20
97.4850627123898
30
0
0
VERTEX
8
0
10
26.8683083346526
20
98.1713190824879
30
0
0
VERTEX
8
0
10
27.6585526974365
20
98.8402767554799
30
0
0
VERTEX
8
0
10
28.4487970602204
20
99.2876319752378
30
0
0
VERTEX
8
0
10
29.2390414230043
20
99.6629727900628
30
0
0
VERTEX
8
0
10
30.0292857857882
20
99.9487276037308
30
0
0
VERTEX
8
0
10
30.8195301485721
20
100.246410791554
30
0
0
VERTEX
8
0
10
31.609774511356
20
100.495611120695
30
0
0
VERTEX
8
0
10
32.4000188741399
20
100.690081795047
30
0
0
VERTEX
8
0
10
33.1902632369238
20
100.930188260704
30
0
0
VERTEX
8
0
10
33.9805075997077
20
101.184375282196
30
0
0
VERTEX
8
0
10
34.7707519624916
20
101.375226622035
30
0
0
VERTEX
8
0
10
35.5609963252755
20
101.565449830043
30
0
0
VERTEX
8
0
10
36.3512406880594
20
101.743444028734
30
0
0
VERTEX
8
0
10
37.1414850508433
20
101.897889127496
30
0
0
VERTEX
8
0
10
37.9317294136272
20
101.991193572359
30
0
0
VERTEX
8
0
10
38.7219737764111
20
102.113067275404
30
0
0
VERTEX
8
0
10
39.512218139195
20
102.172078851598
30
0
0
VERTEX
8
0
10
40.3024625019789
20
102.210717242652
30
0
0
VERTEX
8
0
10
41.0927068647628
20
102.276793831469
30
0
0
VERTEX
8
0
10
41.8829512275467
20
102.289155740014
30
0
0
VERTEX
8
0
10
42.6731955903306
20
102.288273437967
30
0
0
VERTEX
8
0
10
43.4634399531145
20
102.28386156949
30
0
0
VERTEX
8
0
10
44.2536843158984
20
102.271075453682
30
0
0
VERTEX
8
0
10
45.0439286786823
20
102.248306489001
30
0
0
VERTEX
8
0
10
45.8341730414662
20
102.19888933433
30
0
0
VERTEX
8
0
10
46.6244174042501
20
102.165053944066
30
0
0
VERTEX
8
0
10
47.414661767034
20
102.150273648302
30
0
0
VERTEX
8
0
10
48.2049061298179
20
102.119558431873
30
0
0
VERTEX
8
0
10
48.9951504926018
20
102.104662216806
30
0
0
VERTEX
8
0
10
49.7853948553857
20
102.110912321515
30
0
0
VERTEX
8
0
10
50.5756392181696
20
102.127859683401
30
0
0
VERTEX
8
0
10
51.3658835809535
20
102.141111155359
30
0
0
VERTEX
8
0
10
52.1561279437374
20
102.145529551927
30
0
0
VERTEX
8
0
10
52.9463723065213
20
102.151175279166
30
0
0
VERTEX
8
0
10
53.7366166693052
20
102.134683272097
30
0
0
VERTEX
8
0
10
54.5268610320891
20
102.13590558705
30
0
0
VERTEX
8
0
10
55.3171053948729
20
102.131440343512
30
0
0
VERTEX
8
0
10
56.1073497576568
20
102.142293429035
30
0
0
VERTEX
8
0
10
56.8975941204407
20
102.152569882398
30
0
0
VERTEX
8
0
10
57.6878384832246
20
102.170939172469
30
0
0
VERTEX
8
0
10
58.4780828460085
20
102.190301070101
30
0
0
VERTEX
8
0
10
59.2683272087924
20
102.210575493753
30
0
0
VERTEX
8
0
10
60.0585715715763
20
102.241618602382
30
0
0
VERTEX
8
0
10
60.8488159343602
20
102.281947598824
30
0
0
VERTEX
8
0
10
61.6390602971441
20
102.29858483891
30
0
0
VERTEX
8
0
10
62.429304659928
20
102.336535284553
30
0
0
VERTEX
8
0
10
63.2195490227119
20
102.373477484906
30
0
0
VERTEX
8
0
10
64.0097933854958
20
102.425832020953
30
0
0
VERTEX
8
0
10
64.8000377482797
20
102.477581577337
30
0
0
VERTEX
8
0
10
65.5902821110636
20
102.539992771223
30
0
0
VERTEX
8
0
10
66.3805264738475
20
102.599808087439
30
0
0
VERTEX
8
0
10
67.1707708366314
20
102.659732310825
30
0
0
VERTEX
8
0
10
67.9610151994153
20
102.720241495952
30
0
0
VERTEX
8
0
10
68.7512595621992
20
102.755084016401
30
0
0
VERTEX
8
0
10
69.5415039249831
20
102.803287035848
30
0
0
VERTEX
8
0
10
70.331748287767
20
102.85344541947
30
0
0
VERTEX
8
0
10
71.1219926505509
20
102.900765412816
30
0
0
VERTEX
8
0
10
71.9122370133348
20
102.946093074646
30
0
0
VERTEX
8
0
10
72.7024813761187
20
102.994143058212
30
0
0
VERTEX
8
0
10
73.4927257389026
20
103.049341544848
30
0
0
VERTEX
8
0
10
74.2829701016865
20
103.115117983144
30
0
0
VERTEX
8
0
10
75.0732144644704
20
103.181506077914
30
0
0
VERTEX
8
0
10
75.8634588272543
20
103.253909020409
30
0
0
VERTEX
8
0
10
76.6537031900382
20
103.302892668316
30
0
0
VERTEX
8
0
10
77.4439475528221
20
103.367760179699
30
0
0
VERTEX
8
0
10
78.234191915606
20
103.433919494677
30
0
0
VERTEX
8
0
10
79.0244362783899
20
103.492290991893
30
0
0
VERTEX
8
0
10
79.8146806411738
20
103.557917278131
30
0
0
VERTEX
8
0
10
80.6049250039577
20
103.625123720818
30
0
0
VERTEX
8
0
10
81.3951693667416
20
103.698500628453
30
0
0
VERTEX
8
0
10
82.1854137295255
20
103.756586108849
30
0
0
VERTEX
8
0
10
82.9756580923094
20
103.813670964066
30
0
0
VERTEX
8
0
10
83.7659024550933
20
103.872303788605
30
0
0
VERTEX
8
0
10
84.5561468178772
20
103.900266707339
30
0
0
VERTEX
8
0
10
85.3463911806611
20
103.93902453414
30
0
0
VERTEX
8
0
10
86.136635543445
20
103.976849453741
30
0
0
VERTEX
8
0
10
86.9268799062288
20
104.004813211627
30
0
0
VERTEX
8
0
10
87.7171242690127
20
104.040541990437
30
0
0
VERTEX
8
0
10
88.5073686317966
20
104.075772873699
30
0
0
VERTEX
8
0
10
89.2976129945805
20
104.115771593595
30
0
0
VERTEX
8
0
10
90.0878573573644
20
104.158303300721
30
0
0
VERTEX
8
0
10
90.8781017201483
20
104.199686147988
30
0
0
VERTEX
8
0
10
91.6683460829322
20
104.239038870591
30
0
0
VERTEX
8
0
10
92.4585904457161
20
104.252726755114
30
0
0
VERTEX
8
0
10
93.2488348085
20
104.276516795598
30
0
0
VERTEX
8
0
10
94.0390791712839
20
104.286400823402
30
0
0
VERTEX
8
0
10
94.8293235340678
20
104.319244525154
30
0
0
VERTEX
8
0
10
95.6195678968517
20
104.332202611475
30
0
0
VERTEX
8
0
10
96.4098122596356
20
104.344509890587
30
0
0
VERTEX
8
0
10
97.2000566224195
20
104.356886513219
30
0
0
VERTEX
8
0
10
97.9903009852034
20
104.358675727251
30
0
0
VERTEX
8
0
10
98.7805453479873
20
104.359308959013
30
0
0
VERTEX
8
0
10
99.5707897107712
20
104.361214497346
30
0
0
VERTEX
8
0
10
100.361034073555
20
104.34152896745
30
0
0
VERTEX
8
0
10
101.151278436339
20
104.322791064275
30
0
0
VERTEX
8
0
10
101.941522799123
20
104.298777893973
30
0
0
VERTEX
8
0
10
102.731767161907
20
104.281408221053
30
0
0
VERTEX
8
0
10
103.522011524691
20
104.263888036624
30
0
0
VERTEX
8
0
10
104.312255887475
20
104.244962180782
30
0
0
VERTEX
8
0
10
105.102500250258
20
104.228229222582
30
0
0
VERTEX
8
0
10
105.892744613042
20
104.216569039087
30
0
0
VERTEX
8
0
10
106.682988975826
20
104.204157510081
30
0
0
VERTEX
8
0
10
107.47323333861
20
104.185752735992
30
0
0
VERTEX
8
0
10
108.263477701394
20
104.174320599074
30
0
0
VERTEX
8
0
10
109.053722064178
20
104.164124851185
30
0
0
VERTEX
8
0
10
109.843966426962
20
104.148116834199
30
0
0
VERTEX
8
0
10
110.634210789746
20
104.141189148277
30
0
0
VERTEX
8
0
10
111.42445515253
20
104.117641425594
30
0
0
VERTEX
8
0
10
112.214699515314
20
104.092517260822
30
0
0
VERTEX
8
0
10
113.004943878097
20
104.068822434743
30
0
0
VERTEX
8
0
10
113.795188240881
20
104.044343230692
30
0
0
VERTEX
8
0
10
114.585432603665
20
104.019390100764
30
0
0
VERTEX
8
0
10
115.375676966449
20
103.992198294667
30
0
0
VERTEX
8
0
10
116.165921329233
20
103.965789701077
30
0
0
VERTEX
8
0
10
116.956165692017
20
103.937578846756
30
0
0
VERTEX
8
0
10
117.746410054801
20
103.907233712404
30
0
0
VERTEX
8
0
10
118.536654417585
20
103.880239179917
30
0
0
VERTEX
8
0
10
119.326898780369
20
103.848958248232
30
0
0
VERTEX
8
0
10
120.117143143153
20
103.81719271089
30
0
0
VERTEX
8
0
10
120.907387505936
20
103.786425815198
30
0
0
VERTEX
8
0
10
121.69763186872
20
103.75249993124
30
0
0
VERTEX
8
0
10
122.487876231504
20
103.717936674157
30
0
0
VERTEX
8
0
10
123.278120594288
20
103.683635750984
30
0
0
VERTEX
8
0
10
124.068364957072
20
103.649604615833
30
0
0
VERTEX
8
0
10
124.858609319856
20
103.615825071376
30
0
0
VERTEX
8
0
10
125.64885368264
20
103.582302755669
30
0
0
VERTEX
8
0
10
126.439098045424
20
103.54905047929
30
0
0
VERTEX
8
0
10
127.229342408208
20
103.516082422282
30
0
0
VERTEX
8
0
10
128.019586770992
20
103.483412611262
30
0
0
VERTEX
8
0
10
128.809831133775
20
103.451054576914
30
0
0
VERTEX
8
0
10
129.600075496559
20
103.419021345096
30
0
0
VERTEX
8
0
10
130.390319859343
20
103.387325529904
30
0
0
VERTEX
8
0
10
131.180564222127
20
103.355979459032
30
0
0
VERTEX
8
0
10
131.970808584911
20
103.324995308373
30
0
0
VERTEX
8
0
10
132.761052947695
20
103.29438523697
30
0
0
VERTEX
8
0
10
133.551297310479
20
103.264161516332
30
0
0
VERTEX
8
0
10
134.341541673263
20
103.234336644188
30
0
0
VERTEX
8
0
10
135.131786036047
20
103.204923419426
30
0
0
VERTEX
8
0
10
135.922030398831
20
103.175934919705
30
0
0
VERTEX
8
0
10
136.712274761615
20
103.147384226018
30
0
0
VERTEX
8
0
10
137.502519124398
20
103.119283445513
30
0
0
VERTEX
8
0
10
138.292763487182
20
103.091640635848
30
0
0
VERTEX
8
0
10
139.083007849966
20
103.064450219205
30
0
0
VERTEX
8
0
10
139.87325221275
20
103.037665619681
30
0
0
VERTEX
8
0
10
140.663496575534
20
103.011163037308
30
0
0
VERTEX
8
0
10
141.453740938318
20
102.985183019051
30
0
0
VERTEX
8
0
10
142.243985301102
20
102.962688661922
30
0
0
VERTEX
8
0
10
143.034229663886
20
102.951762646539
30
0
0
VERTEX
8
0
10
143.82447402667
20
102.940768595886
30
0
0
VERTEX
8
0
10
144.614718389454
20
102.928444238322
30
0
0
VERTEX
8
0
10
145.404962752238
20
102.924869429234
30
0
0
VERTEX
8
0
10
146.195207115022
20
102.917453059774
30
0
0
VERTEX
8
0
10
146.985451477805
20
102.918042517645
30
0
0
VERTEX
8
0
10
147.775695840589
20
102.921157303352
30
0
0
VERTEX
8
0
10
148.565940203373
20
102.917442018287
30
0
0
VERTEX
8
0
10
149.356184566157
20
102.922965835575
30
0
0
VERTEX
8
0
10
150.146428928941
20
102.927014050276
30
0
0
VERTEX
8
0
10
150.936673291725
20
102.930412777186
30
0
0
VERTEX
8
0
10
151.726917654509
20
102.934535540754
30
0
0
VERTEX
8
0
10
152.517162017293
20
102.94109400508
30
0
0
VERTEX
8
0
10
153.307406380077
20
102.949478374238
30
0
0
VERTEX
8
0
10
154.097650742861
20
102.955339857394
30
0
0
VERTEX
8
0
10
154.887895105645
20
102.97249048102
30
0
0
SEQEND
8
0
0
POLYLINE
8
0
62
2
70
0
10
0
20
0
30
0
0
VERTEX
8
0
10
2.3707330883517
20
29.0486647852483
30
0
0
VERTEX
8
0
10
3.1609774511356
20
36.5603061546488
30
0
0
VERTEX
8
0
10
3.9512218139195
20
43.0069299677054
30
0
0
VERTEX
8
0
10
4.7414661767034
20
46.3291098262631
30
0
0
VERTEX
8
0
10
5.5317105394873
20
48.8619684171764
30
0
0
VERTEX
8
0
10
6.3219549022712
20
51.1556624968327
30
0
0
VERTEX
8
0
10
7.1121992650551
20
52.4886286641819
30
0
0
VERTEX
8
0
10
7.902443627839
20
54.0082083770525
30
0
0
VERTEX
8
0
10
8.6926879906229
20
55.5533979983586
30
0
0
VERTEX
8
0
10
9.4829323534068
20
57.3095143316197
30
0
0
VERTEX
8
0
10
10.2731767161907
20
59.3268757221024
30
0
0
VERTEX
8
0
10
11.0634210789746
20
61.3931619936296
30
0
0
VERTEX
8
0
10
11.8536654417585
20
63.4858461522861
30
0
0
VERTEX
8
0
10
12.6439098045424
20
66.1916023883637
30
0
0
VERTEX
8
0
10
13.4341541673263
20
68.2378444029833
30
0
0
VERTEX
8
0
10
14.2243985301102
20
70.2612722624297
30
0
0
VERTEX
8
0
10
15.0146428928941
20
71.5495544927963
30
0
0
VERTEX
8
0
10
15.804887255678
20
72.5834815368194
30
0
0
VERTEX
8
0
10
16.5951316184619
20
73.4804854152647
30
0
0
VERTEX
8
0
10
17.3853759812458
20
74.3694619021118
30
0
0
VERTEX
8
0
10
18.1756203440297
20
73.8701371686601
30
0
0
VERTEX
8
0
10
18.9658647068136
20
73.6047707619798
30
0
0
VERTEX
8
0
10
19.7561090695975
20
73.3540458826453
30
0
0
VERTEX
8
0
10
20.5463534323814
20
73.0484115453612
30
0
0
VERTEX
8
0
10
21.3365977951653
20
72.7580849379308
30
0
0
VERTEX
8
0
10
22.1268421579492
20
72.4926624548924
30
0
0
VERTEX
8
0
10
22.9170865207331
20
72.3532624259535
30
0
0
VERTEX
8
0
10
23.707330883517
20
72.4650715981304
30
0
0
VERTEX
8
0
10
24.4975752463009
20
72.5695879072634
30
0
0
VERTEX
8
0
10
25.2878196090848
20
72.7102639226725
30
0
0
VERTEX
8
0
10
26.0780639718687
20
72.9000747200943
30
0
0
VERTEX
8
0
10
26.8683083346526
20
73.0928360927802
30
0
0
VERTEX
8
0
10
27.6585526974365
20
73.2894900432825
30
0
0
VERTEX
8
0
10
28.4487970602204
20
73.2234757711502
30
0
0
VERTEX
8
0
10
29.2390414230043
20
73.0861924465305
30
0
0
VERTEX
8
0
10
30.0292857857882
20
72.9013372462618
30
0
0
VERTEX
8
0
10
30.8195301485721
20
72.7149058761245
30
0
0
VERTEX
8
0
10
31.609774511356
20
72.48198042595
30
0
0
VERTEX
8
0
10
32.4000188741399
20
72.2296036462829
30
0
0
VERTEX
8
0
10
33.1902632369238
20
72.0073173995826
30
0
0
VERTEX
8
0
10
33.9805075997077
20
71.8193084632136
30
0
0
VERTEX
8
0
10
34.7707519624916
20
71.5614046653423
30
0
0
VERTEX
8
0
10
35.5609963252755
20
71.3189543601495
30
0
0
VERTEX
8
0
10
36.3512406880594
20
71.0751095446074
30
0
0
VERTEX
8
0
10
37.1414850508433
20
70.8138481686854
30
0
0
VERTEX
8
0
10
37.9317294136272
20
70.5197088855755
30
0
0
VERTEX
8
0
10
38.7219737764111
20
70.2501588012421
30
0
0
VERTEX
8
0
10
39.512218139195
20
69.904201061652
30
0
0
VERTEX
8
0
10
40.3024625019789
20
69.565573914627
30
0
0
VERTEX
8
0
10
41.0927068647628
20
69.2440915743114
30
0
0
VERTEX
8
0
10
41.8829512275467
20
68.8592011183699
30
0
0
VERTEX
8
0
10
42.6731955903306
20
68.4669999056617
30
0
0
VERTEX
8
0
10
43.4634399531145
20
68.0794439203983
30
0
0
VERTEX
8
0
10
44.2536843158984
20
67.6887087619418
30
0
0
VERTEX
8
0
10
45.0439286786823
20
67.2915141389113
30
0
0
VERTEX
8
0
10
45.8341730414662
20
66.8806016330931
30
0
0
VERTEX
8
0
10
46.6244174042501
20
66.4831824869757
30
0
0
VERTEX
8
0
10
47.414661767034
20
66.1196724327241
30
0
0
VERTEX
8
0
10
48.2049061298179
20
65.7497983523758
30
0
0
VERTEX
8
0
10
48.9951504926018
20
65.3908123424845
30
0
0
VERTEX
8
0
10
49.7853948553857
20
65.0673071995064
30
0
0
VERTEX
8
0
10
50.5756392181696
20
64.7636072926042
30
0
0
VERTEX
8
0
10
51.3658835809535
20
64.4587762695765
30
0
0
VERTEX
8
0
10
52.1561279437374
20
64.1449343979605
30
0
0
VERTEX
8
0
10
52.9463723065213
20
63.8365545151376
30
0
0
VERTEX
8
0
10
53.7366166693052
20
63.5185018145493
30
0
0
VERTEX
8
0
10
54.5268610320891
20
63.214594999187
30
0
0
VERTEX
8
0
10
55.3171053948729
20
62.9223445982776
30
0
0
VERTEX
8
0
10
56.1073497576568
20
62.6339758573017
30
0
0
VERTEX
8
0
10
56.8975941204407
20
62.3481379177013
30
0
0
VERTEX
8
0
10
57.6878384832246
20
62.0773572700256
30
0
0
VERTEX
8
0
10
58.4780828460085
20
61.8103926467884
30
0
0
VERTEX
8
0
10
59.2683272087924
20
61.5468426094481
30
0
0
VERTEX
8
0
10
60.0585715715763
20
61.301780348679
30
0
0
VERTEX
8
0
10
60.8488159343602
20
61.0733119424787
30
0
0
VERTEX
8
0
10
61.6390602971441
20
60.8346528286672
30
0
0
VERTEX
8
0
10
62.429304659928
20
60.6123556826819
30
0
0
VERTEX
8
0
10
63.2195490227119
20
60.4113313208734
30
0
0
VERTEX
8
0
10
64.0097933854958
20
60.2101604484095
30
0
0
VERTEX
8
0
10
64.8000377482797
20
60.0112105689852
30
0
0
VERTEX
8
0
10
65.5902821110636
20
59.8315595758246
30
0
0
VERTEX
8
0
10
66.3805264738475
20
59.6499774573147
30
0
0
VERTEX
8
0
10
67.1707708366314
20
59.4711763626714
30
0
0
VERTEX
8
0
10
67.9610151994153
20
59.2961843112176
30
0
0
VERTEX
8
0
10
68.7512595621992
20
59.1042061470206
30
0
0
VERTEX
8
0
10
69.5415039249831
20
58.9198367296158
30
0
0
VERTEX
8
0
10
70.331748287767
20
58.7412349948682
30
0
0
VERTEX
8
0
10
71.1219926505509
20
58.5780498758202
30
0
0
VERTEX
8
0
10
71.9122370133348
20
58.3903140623809
30
0
0
VERTEX
8
0
10
72.7024813761187
20
58.2101306703448
30
0
0
VERTEX
8
0
10
73.4927257389026
20
58.0438193227933
30
0
0
VERTEX
8
0
10
74.2829701016865
20
57.8971276394872
30
0
0
VERTEX
8
0
10
75.0732144644704
20
57.7535155700672
30
0
0
VERTEX
8
0
10
75.8634588272543
20
57.6218618893122
30
0
0
VERTEX
8
0
10
76.6537031900382
20
57.4806454651472
30
0
0
VERTEX
8
0
10
77.4439475528221
20
57.3487850531898
30
0
0
VERTEX
8
0
10
78.234191915606
20
57.2219488985645
30
0
0
VERTEX
8
0
10
79.0244362783899
20
57.1050197665601
30
0
0
VERTEX
8
0
10
79.8146806411738
20
56.9761232008567
30
0
0
VERTEX
8
0
10
80.6049250039577
20
56.8540714885498
30
0
0
VERTEX
8
0
10
81.3951693667416
20
56.74558666419
30
0
0
VERTEX
8
0
10
82.1854137295255
20
56.6145496880098
30
0
0
VERTEX
8
0
10
82.9756580923094
20
56.4850181045794
30
0
0
VERTEX
8
0
10
83.7659024550933
20
56.362010632047
30
0
0
VERTEX
8
0
10
84.5561468178772
20
56.2151531280705
30
0
0
VERTEX
8
0
10
85.3463911806611
20
56.0705011950831
30
0
0
VERTEX
8
0
10
86.136635543445
20
55.9276988761891
30
0
0
VERTEX
8
0
10
86.9268799062288
20
55.7850368798242
30
0
0
VERTEX
8
0
10
87.7171242690127
20
55.6396808351803
30
0
0
VERTEX
8
0
10
88.5073686317966
20
55.4971985850807
30
0
0
VERTEX
8
0
10
89.2976129945805
20
55.3660926535517
30
0
0
VERTEX
8
0
10
90.0878573573644
20
55.2425844383966
30
0
0
VERTEX
8
0
10
90.8781017201483
20
55.1205677149929
30
0
0
VERTEX
8
0
10
91.6683460829322
20
54.9986605854865
30
0
0
VERTEX
8
0
10
92.4585904457161
20
54.8582345325542
30
0
0
VERTEX
8
0
10
93.2488348085
20
54.7205943625294
30
0
0
VERTEX
8
0
10
94.0390791712839
20
54.5810947207922
30
0
0
VERTEX
8
0
10
94.8293235340678
20
54.4581500468259
30
0
0
VERTEX
8
0
10
95.6195678968517
20
54.3070302216605
30
0
0
VERTEX
8
0
10
96.4098122596356
20
54.1592798284598
30
0
0
VERTEX
8
0
10
97.2000566224195
20
54.0152750613365
30
0
0
VERTEX
8
0
10
97.9903009852034
20
53.8562679228903
30
0
0
VERTEX
8
0
10
98.7805453479873
20
53.6980670712595
30
0
0
VERTEX
8
0
10
99.5707897107712
20
53.5454798457619
30
0
0
VERTEX
8
0
10
100.361034073555
20
53.370917267657
30
0
0
VERTEX
8
0
10
101.151278436339
20
53.1894585926028
30
0
0
VERTEX
8
0
10
101.941522799123
20
53.0066186331931
30
0
0
VERTEX
8
0
10
102.731767161907
20
52.8316302712447
30
0
0
VERTEX
8
0
10
103.522011524691
20
52.6586357911467
30
0
0
VERTEX
8
0
10
104.312255887475
20
52.4855073623096
30
0
0
VERTEX
8
0
10
105.102500250258
20
52.3184581954781
30
0
0
VERTEX
8
0
10
105.892744613042
20
52.1626228414589
30
0
0
VERTEX
8
0
10
106.682988975826
20
52.0079990849839
30
0
0
VERTEX
8
0
10
107.47323333861
20
51.8518886571038
30
0
0
VERTEX
8
0
10
108.263477701394
20
51.7053185308732
30
0
0
VERTEX
8
0
10
109.053722064178
20
51.5633048068106
30
0
0
VERTEX
8
0
10
109.843966426962
20
51.4219683700053
30
0
0
VERTEX
8
0
10
110.634210789746
20
51.284341188387
30
0
0
VERTEX
8
0
10
111.42445515253
20
51.1210768405562
30
0
0
VERTEX
8
0
10
112.214699515314
20
50.9578640657934
30
0
0
VERTEX
8
0
10
113.004943878097
20
50.7993845436395
30
0
0
VERTEX
8
0
10
113.795188240881
20
50.6415343984887
30
0
0
VERTEX
8
0
10
114.585432603665
20
50.4846919400867
30
0
0
VERTEX
8
0
10
115.375676966449
20
50.3295745005613
30
0
0
VERTEX
8
0
10
116.165921329233
20
50.1745689384634
30
0
0
VERTEX
8
0
10
116.956165692017
20
50.0177105513163
30
0
0
VERTEX
8
0
10
117.746410054801
20
49.8612472192273
30
0
0
VERTEX
8
0
10
118.536654417585
20
49.7082943668098
30
0
0
VERTEX
8
0
10
119.326898780369
20
49.5494917415933
30
0
0
VERTEX
8
0
10
120.117143143153
20
49.3916501901042
30
0
0
VERTEX
8
0
10
120.907387505936
20
49.2373232300069
30
0
0
VERTEX
8
0
10
121.69763186872
20
49.078630451898
30
0
0
VERTEX
8
0
10
122.487876231504
20
48.9195342459775
30
0
0
VERTEX
8
0
10
123.278120594288
20
48.7621709991307
30
0
0
VERTEX
8
0
10
124.068364957072
20
48.606463063536
30
0
0
VERTEX
8
0
10
124.858609319856
20
48.4522954365769
30
0
0
VERTEX
8
0
10
125.64885368264
20
48.2996113329124
30
0
0
VERTEX
8
0
10
126.439098045424
20
48.1483749128614
30
0
0
VERTEX
8
0
10
127.229342408208
20
47.9985577066981
30
0
0
VERTEX
8
0
10
128.019586770992
20
47.8501344083787
30
0
0
VERTEX
8
0
10
128.809831133775
20
47.7030813872297
30
0
0
VERTEX
8
0
10
129.600075496559
20
47.5573760516022
30
0
0
VERTEX
8
0
10
130.390319859343
20
47.4129965201475
30
0
0
VERTEX
8
0
10
131.180564222127
20
47.2699214149377
30
0
0
VERTEX
8
0
10
131.970808584911
20
47.1281296985635
30
0
0
VERTEX
8
0
10
132.761052947695
20
46.9876005116641
30
0
0
VERTEX
8
0
10
133.551297310479
20
46.8483129737289
30
0
0
VERTEX
8
0
10
134.341541673263
20
46.7102458982091
30
0
0
VERTEX
8
0
10
135.131786036047
20
46.5733773362707
30
0
0
VERTEX
8
0
10
135.922030398831
20
46.4376837724579
30
0
0
VERTEX
8
0
10
136.712274761615
20
46.3031385578487
30
0
0
VERTEX
8
0
10
137.502519124398
20
46.1697084787227
30
0
0
VERTEX
8
0
10
138.292763487182
20
46.0373451870198
30
0
0
VERTEX
8
0
10
139.083007849966
20
45.9059613593898
30
0
0
VERTEX
8
0
10
139.87325221275
20
45.7753655182156
30
0
0
VERTEX
8
0
10
140.663496575534
20
45.6451704341705
30
0
0
VERTEX
8
0
10
141.453740938318
20
45.5157393430998
30
0
0
VERTEX
8
0
10
142.243985301102
20
45.3956215971168
30
0
0
VERTEX
8
0
10
143.034229663886
20
45.2968797602427
30
0
0
VERTEX
8
0
10
143.82447402667
20
45.1971423618345
30
0
0
VERTEX
8
0
10
144.614718389454
20
45.094001712273
30
0
0
VERTEX
8
0
10
145.404962752238
20
45.0059233618382
30
0
0
VERTEX
8
0
10
146.195207115022
20
44.923671891636
30
0
0
VERTEX
8
0
10
146.985451477805
20
44.8502048981691
30
0
0
VERTEX
8
0
10
147.775695840589
20
44.7823966447478
30
0
0
VERTEX
8
0
10
148.565940203373
20
44.7131177437083
30
0
0
VERTEX
8
0
10
149.356184566157
20
44.6465111868634
30
0
0
VERTEX
8
0
10
150.146428928941
20
44.5777524978672
30
0
0
VERTEX
8
0
10
150.936673291725
20
44.5083897160371
30
0
0
VERTEX
8
0
10
151.726917654509
20
44.4412038919548
30
0
0
VERTEX
8
0
10
152.517162017293
20
44.3795229419087
30
0
0
VERTEX
8
0
10
153.307406380077
20
44.3232049263056
30
0
0
VERTEX
8
0
10
154.097650742861
20
44.2812715334707
30
0
0
VERTEX
8
0
10
154.887895105645
20
44.2528412272197
30
0
0
SEQEND
8
0
0
POLYLINE
8
0
62
4
70
0
10
0
20
0
30
0
0
VERTEX
8
0
10
2.3707330883517
20
31.4390107044936
30
0
0
VERTEX
8
0
10
3.1609774511356
20
39.7868003185783
30
0
0
VERTEX
8
0
10
3.9512218139195
20
47.0411921779951
30
0
0
VERTEX
8
0
10
4.7414661767034
20
51.3104728006227
30
0
0
VERTEX
8
0
10
5.5317105394873
20
54.7966615868663
30
0
0
VERTEX
8
0
10
6.3219549022712
20
58.022371554712
30
0
0
VERTEX
8
0
10
7.1121992650551
20
60.2941089451693
30
0
0
VERTEX
8
0
10
7.902443627839
20
62.7662772128708
30
0
0
VERTEX
8
0
10
8.6926879906229
20
65.2452507881592
30
0
0
VERTEX
8
0
10
9.4829323534068
20
67.8340594738802
30
0
0
VERTEX
8
0
10
10.2731767161907
20
70.6982191172776
30
0
0
VERTEX
8
0
10
11.0634210789746
20
73.5818445724662
30
0
0
VERTEX
8
0
10
11.8536654417585
20
76.4613250822458
30
0
0
VERTEX
8
0
10
12.6439098045424
20
79.8230314069566
30
0
0
VERTEX
8
0
10
13.4341541673263
20
82.5788841549047
30
0
0
VERTEX
8
0
10
14.2243985301102
20
85.2650616701223
30
0
0
VERTEX
8
0
10
15.0146428928941
20
87.1697456233062
30
0
0
VERTEX
8
0
10
15.804887255678
20
88.8933771080923
30
0
0
VERTEX
8
0
10
16.5951316184619
20
90.3775630545959
30
0
0
VERTEX
8
0
10
17.3853759812458
20
91.914281709689
30
0
0
VERTEX
8
0
10
18.1756203440297
20
92.2397371307679
30
0
0
VERTEX
8
0
10
18.9658647068136
20
92.7173016811269
30
0
0
VERTEX
8
0
10
19.7561090695975
20
93.1824932277473
30
0
0
VERTEX
8
0
10
20.5463534323814
20
93.5828953753209
30
0
0
VERTEX
8
0
10
21.3365977951653
20
93.9798348299736
30
0
0
VERTEX
8
0
10
22.1268421579492
20
94.3858032620055
30
0
0
VERTEX
8
0
10
22.9170865207331
20
94.834101400966
30
0
0
VERTEX
8
0
10
23.707330883517
20
95.5026585824224
30
0
0
VERTEX
8
0
10
24.4975752463009
20
96.1067696980017
30
0
0
VERTEX
8
0
10
25.2878196090848
20
96.7843366351353
30
0
0
VERTEX
8
0
10
26.0780639718687
20
97.4850627123898
30
0
0
VERTEX
8
0
10
26.8683083346526
20
98.1713190824879
30
0
0
VERTEX
8
0
10
27.6585526974365
20
98.8402767554799
30
0
0
VERTEX
8
0
10
28.4487970602204
20
99.2876319752378
30
0
0
VERTEX
8
0
10
29.2390414230043
20
99.6629727900628
30
0
0
VERTEX
8
0
10
30.0292857857882
20
99.9487276037308
30
0
0
VERTEX
8
0
10
30.8195301485721
20
100.246410791554
30
0
0
VERTEX
8
0
10
31.609774511356
20
100.495611120695
30
0
0
VERTEX
8
0
10
32.4000188741399
20
100.690081795047
30
0
0
VERTEX
8
0
10
33.1902632369238
20
100.930188260704
30
0
0
VERTEX
8
0
10
33.9805075997077
20
101.184375282196
30
0
0
VERTEX
8
0
10
34.7707519624916
20
101.375226622035
30
0
0
VERTEX
8
0
10
35.5609963252755
20
101.565449830043
30
0
0
VERTEX
8
0
10
36.3512406880594
20
101.743444028734
30
0
0
VERTEX
8
0
10
37.1414850508433
20
101.897889127496
30
0
0
VERTEX
8
0
10
37.9317294136272
20
101.991193572359
30
0
0
VERTEX
8
0
10
38.7219737764111
20
102.113067275404
30
0
0
VERTEX
8
0
10
39.512218139195
20
102.172078851598
30
0
0
VERTEX
8
0
10
40.3024625019789
20
102.210717242652
30
0
0
VERTEX
8
0
10
41.0927068647628
20
102.276793831469
30
0
0
VERTEX
8
0
10
41.8829512275467
20
102.289155740014
30
0
0
VERTEX
8
0
10
42.6731955903306
20
102.288273437967
30
0
0
VERTEX
8
0
10
43.4634399531145
20
102.28386156949
30
0
0
VERTEX
8
0
10
44.2536843158984
20
102.271075453682
30
0
0
VERTEX
8
0
10
45.0439286786823
20
102.248306489001
30
0
0
VERTEX
8
0
10
45.8341730414662
20
102.19888933433
30
0
0
VERTEX
8
0
10
46.6244174042501
20
102.165053944066
30
0
0
VERTEX
8
0
10
47.414661767034
20
102.150273648302
30
0
0
VERTEX
8
0
10
48.2049061298179
20
102.119558431873
30
0
0
VERTEX
8
0
10
48.9951504926018
20
102.104662216806
30
0
0
VERTEX
8
0
10
49.7853948553857
20
102.110912321515
30
0
0
VERTEX
8
0
10
50.5756392181696
20
102.127859683401
30
0
0
VERTEX
8
0
10
51.3658835809535
20
102.141111155359
30
0
0
VERTEX
8
0
10
52.1561279437374
20
102.145529551927
30
0
0
VERTEX
8
0
10
52.9463723065213
20
102.151175279166
30
0
0
VERTEX
8
0
10
53.7366166693052
20
102.134683272097
30
0
0
VERTEX
8
0
10
54.5268610320891
20
102.13590558705
30
0
0
VERTEX
8
0
10
55.3171053948729
20
102.131440343512
30
0
0
VERTEX
8
0
10
56.1073497576568
20
102.142293429035
30
0
0
VERTEX
8
0
10
56.8975941204407
20
102.152569882398
30
0
0
VERTEX
8
0
10
57.6878384832246
20
102.170939172469
30
0
0
VERTEX
8
0
10
58.4780828460085
20
102.190301070101
30
0
0
VERTEX
8
0
10
59.2683272087924
20
102.210575493753
30
0
0
VERTEX
8
0
10
60.0585715715763
20
102.241618602382
30
0
0
VERTEX
8
0
10
60.8488159343602
20
102.281947598824
30
0
0
VERTEX
8
0
10
61.6390602971441
20
102.29858483891
30
0
0
VERTEX
8
0
10
62.429304659928
20
102.336535284553
30
0
0
VERTEX
8
0
10
63.2195490227119
20
102.373477484906
30
0
0
VERTEX
8
0
10
64.0097933854958
20
102.425832020953
30
0
0
VERTEX
8
0
10
64.8000377482797
20
102.477581577337
30
0
0
VERTEX
8
0
10
65.5902821110636
20
102.539992771223
30
0
0
VERTEX
8
0
10
66.3805264738475
20
102.599808087439
30
0
0
VERTEX
8
0
10
67.1707708366314
20
102.659732310825
30
0
0
VERTEX
8
0
10
67.9610151994153
20
102.720241495952
30
0
0
VERTEX
8
0
10
68.7512595621992
20
102.755084016401
30
0
0
VERTEX
8
0
10
69.5415039249831
20
102.803287035848
30
0
0
VERTEX
8
0
10
70.331748287767
20
102.85344541947
30
0
0
VERTEX
8
0
10
71.1219926505509
20
102.900765412816
30
0
0
VERTEX
8
0
10
71.9122370133348
20
102.946093074646
30
0
0
VERTEX
8
0
10
72.7024813761187
20
102.994143058212
30
0
0
VERTEX
8
0
10
73.4927257389026
20
103.049341544848
30
0
0
VERTEX
8
0
10
74.2829701016865
20
103.115117983144
30
0
0
VERTEX
8
0
10
75.0732144644704
20
103.181506077914
30
0
0
VERTEX
8
0
10
75.8634588272543
20
103.253909020409
30
0
0
VERTEX
8
0
10
76.6537031900382
20
103.302892668316
30
0
0
VERTEX
8
0
10
77.4439475528221
20
103.367760179699
30
0
0
VERTEX
8
0
10
78.234191915606
20
103.433919494677
30
0
0
VERTEX
8
0
10
79.0244362783899
20
103.492290991893
30
0
0
VERTEX
8
0
10
79.8146806411738
20
103.557917278131
30
0
0
VERTEX
8
0
10
80.6049250039577
20
103.625123720818
30
0
0
VERTEX
8
0
10
81.3951693667416
20
103.698500628453
30
0
0
VERTEX
8
0
10
82.1854137295255
20
103.756586108849
30
0
0
VERTEX
8
0
10
82.9756580923094
20
103.813670964066
30
0
0
VERTEX
8
0
10
83.7659024550933
20
103.872303788605
30
0
0
VERTEX
8
0
10
84.5561468178772
20
103.900266707339
30
0
0
VERTEX
8
0
10
85.3463911806611
20
103.93902453414
30
0
0
VERTEX
8
0
10
86.136635543445
20
103.976849453741
30
0
0
VERTEX
8
0
10
86.9268799062288
20
104.004813211627
30
0
0
VERTEX
8
0
10
87.7171242690127
20
104.040541990437
30
0
0
VERTEX
8
0
10
88.5073686317966
20
104.075772873699
30
0
0
VERTEX
8
0
10
89.2976129945805
20
104.115771593595
30
0
0
VERTEX
8
0
10
90.0878573573644
20
104.158303300721
30
0
0
VERTEX
8
0
10
90.8781017201483
20
104.199686147988
30
0
0
VERTEX
8
0
10
91.6683460829322
20
104.239038870591
30
0
0
VERTEX
8
0
10
92.4585904457161
20
104.252726755114
30
0
0
VERTEX
8
0
10
93.2488348085
20
104.276516795598
30
0
0
VERTEX
8
0
10
94.0390791712839
20
104.286400823402
30
0
0
VERTEX
8
0
10
94.8293235340678
20
104.319244525154
30
0
0
VERTEX
8
0
10
95.6195678968517
20
104.332202611475
30
0
0
VERTEX
8
0
10
96.4098122596356
20
104.344509890587
30
0
0
VERTEX
8
0
10
97.2000566224195
20
104.356886513219
30
0
0
VERTEX
8
0
10
97.9903009852034
20
104.358675727251
30
0
0
VERTEX
8
0
10
98.7805453479873
20
104.359308959013
30
0
0
VERTEX
8
0
10
99.5707897107712
20
104.361214497346
30
0
0
VERTEX
8
0
10
100.361034073555
20
104.34152896745
30
0
0
VERTEX
8
0
10
101.151278436339
20
104.322791064275
30
0
0
VERTEX
8
0
10
101.941522799123
20
104.298777893973
30
0
0
VERTEX
8
0
10
102.731767161907
20
104.281408221053
30
0
0
VERTEX
8
0
10
103.522011524691
20
104.263888036624
30
0
0
VERTEX
8
0
10
104.312255887475
20
104.244962180782
30
0
0
VERTEX
8
0
10
105.102500250258
20
104.228229222582
30
0
0
VERTEX
8
0
10
105.892744613042
20
104.216569039087
30
0
0
VERTEX
8
0
10
106.682988975826
20
104.204157510081
30
0
0
VERTEX
8
0
10
107.47323333861
20
104.185752735992
30
0
0
VERTEX
8
0
10
108.263477701394
20
104.174320599074
30
0
0
VERTEX
8
0
10
109.053722064178
20
104.164124851185
30
0
0
VERTEX
8
0
10
109.843966426962
20
104.148116834199
30
0
0
VERTEX
8
0
10
110.634210789746
20
104.141189148277
30
0
0
VERTEX
8
0
10
111.42445515253
20
104.117641425594
30
0
0
VERTEX
8
0
10
112.214699515314
20
104.092517260822
30
0
0
VERTEX
8
0
10
113.004943878097
20
104.068822434743
30
0
0
VERTEX
8
0
10
113.795188240881
20
104.044343230692
30
0
0
VERTEX
8
0
10
114.585432603665
20
104.019390100764
30
0
0
VERTEX
8
0
10
115.375676966449
20
103.992198294667
30
0
0
VERTEX
8
0
10
116.165921329233
20
103.965789701077
30
0
0
VERTEX
8
0
10
116.956165692017
20
103.937578846756
30
0
0
VERTEX
8
0
10
117.746410054801
20
103.907233712404
30
0
0
VERTEX
8
0
10
118.536654417585
20
103.880239179917
30
0
0
VERTEX
8
0
10
119.326898780369
20
103.848958248232
30
0
0
VERTEX
8
0
10
120.117143143153
20
103.81719271089
30
0
0
VERTEX
8
0
10
120.907387505936
20
103.786425815198
30
0
0
VERTEX
8
0
10
121.69763186872
20
103.75249993124
30
0
0
VERTEX
8
0
10
122.487876231504
20
103.717936674157
30
0
0
VERTEX
8
0
10
123.278120594288
20
103.683635750984
30
0
0
VERTEX
8
0
10
124.068364957072
20
103.649604615833
30
0
0
VERTEX
8
0
10
124.858609319856
20
103.615825071376
30
0
0
VERTEX
8
0
10
125.64885368264
20
103.582302755669
30
0
0
VERTEX
8
0
10
126.439098045424
20
103.54905047929
30
0
0
VERTEX
8
0
10
127.229342408208
20
103.516082422282
30
0
0
VERTEX
8
0
10
128.019586770992
20
103.483412611262
30
0
0
VERTEX
8
0
10
128.809831133775
20
103.451054576914
30
0
0
VERTEX
8
0
10
129.600075496559
20
103.419021345096
30
0
0
VERTEX
8
0
10
130.390319859343
20
103.387325529904
30
0
0
VERTEX
8
0
10
131.180564222127
20
103.355979459032
30
0
0
VERTEX
8
0
10
131.970808584911
20
103.324995308373
30
0
0
VERTEX
8
0
10
132.761052947695
20
103.29438523697
30
0
0
VERTEX
8
0
10
133.551297310479
20
103.264161516332
30
0
0
VERTEX
8
0
10
134.341541673263
20
103.234336644188
30
0
0
VERTEX
8
0
10
135.131786036047
20
103.204923419426
30
0
0
VERTEX
8
0
10
135.922030398831
20
103.175934919705
30
0
0
VERTEX
8
0
10
136.712274761615
20
103.147384226018
30
0
0
VERTEX
8
0
10
137.502519124398
20
103.119283445513
30
0
0
VERTEX
8
0
10
138.292763487182
20
103.091640635848
30
0
0
VERTEX
8
0
10
139.083007849966
20
103.064450219205
30
0
0
VERTEX
8
0
10
139.87325221275
20
103.037665619681
30
0
0
VERTEX
8
0
10
140.663496575534
20
103.011163037308
30
0
0
VERTEX
8
0
10
141.453740938318
20
102.985183019051
30
0
0
VERTEX
8
0
10
142.243985301102
20
102.962688661922
30
0
0
VERTEX
8
0
10
143.034229663886
20
102.951762646539
30
0
0
VERTEX
8
0
10
143.82447402667
20
102.940768595886
30
0
0
VERTEX
8
0
10
144.614718389454
20
102.928444238322
30
0
0
VERTEX
8
0
10
145.404962752238
20
102.924869429234
30
0
0
VERTEX
8
0
10
146.195207115022
20
102.917453059774
30
0
0
VERTEX
8
0
10
146.985451477805
20
102.918042517645
30
0
0
VERTEX
8
0
10
147.775695840589
20
102.921157303352
30
0
0
VERTEX
8
0
10
148.565940203373
20
102.917442018287
30
0
0
VERTEX
8
0
10
149.356184566157
20
102.922965835575
30
0
0
VERTEX
8
0
10
150.146428928941
20
102.927014050276
30
0
0
VERTEX
8
0
10
150.936673291725
20
102.930412777186
30
0
0
VERTEX
8
0
10
151.726917654509
20
102.934535540754
30
0
0
VERTEX
8
0
10
152.517162017293
20
102.94109400508
30
0
0
VERTEX
8
0
10
153.307406380077
20
102.949478374238
30
0
0
VERTEX
8
0
10
154.097650742861
20
102.955339857394
30
0
0
VERTEX
8
0
10
154.887895105645
20
102.97249048102
30
0
0
SEQEND
8
0
0
ENDSEC
0
EOF
