0
SECTION
2
HEADER
9
$ACADVER
1
AC1009
0
ENDSEC
0
SECTION
2
ENTITIES
0
POLYLINE
8
0
62
0
70
1
10
0
20
0
30
0
0
VERTEX
8
0
10
0
20
0
30
0
0
VERTEX
8
0
10
0
20
118.283
30
0
0
VERTEX
8
0
10
179.2
20
118.283
30
0
0
VERTEX
8
0
10
179.2
20
0
30
0
0
SEQEND
8
0
0
TEXT
8
0
62
0
10
0
20
-12
30
0
40
8
1
0
50
0
0
LINE
8
0
62
0
10
6.76463815603212
20
0
30
0
11
6.76463815603212
21
3.2
31
0
0
LINE
8
0
62
0
10
6.76463815603212
20
118.283
30
0
11
6.76463815603212
21
115.083
31
0
0
LINE
8
0
62
0
10
13.5292763120642
20
0
30
0
11
13.5292763120642
21
3.2
31
0
0
LINE
8
0
62
0
10
13.5292763120642
20
118.283
30
0
11
13.5292763120642
21
115.083
31
0
0
LINE
8
0
62
0
10
20.2939144680963
20
0
30
0
11
20.2939144680963
21
3.2
31
0
0
LINE
8
0
62
0
10
20.2939144680963
20
118.283
30
0
11
20.2939144680963
21
115.083
31
0
0
LINE
8
0
62
0
10
27.0585526241285
20
0
30
0
11
27.0585526241285
21
3.2
31
0
0
LINE
8
0
62
0
10
27.0585526241285
20
118.283
30
0
11
27.0585526241285
21
115.083
31
0
0
LINE
8
0
62
0
10
33.8231907801606
20
0
30
0
11
33.8231907801606
21
6.4
31
0
0
LINE
8
0
62
0
10
33.8231907801606
20
118.283
30
0
11
33.8231907801606
21
111.883
31
0
0
TEXT
8
0
62
0
10
33.8231907801606
20
-12
30
0
40
8
1
0.5
50
0
0
LINE
8
0
62
0
10
40.5878289361927
20
0
30
0
11
40.5878289361927
21
3.2
31
0
0
LINE
8
0
62
0
10
40.5878289361927
20
118.283
30
0
11
40.5878289361927
21
115.083
31
0
0
LINE
8
0
62
0
10
47.3524670922248
20
0
30
0
11
47.3524670922248
21
3.2
31
0
0
LINE
8
0
62
0
10
47.3524670922248
20
118.283
30
0
11
47.3524670922248
21
115.083
31
0
0
LINE
8
0
62
0
10
54.1171052482569
20
0
30
0
11
54.1171052482569
21
3.2
31
0
0
LINE
8
0
62
0
10
54.1171052482569
20
118.283
30
0
11
54.1171052482569
21
115.083
31
0
0
LINE
8
0
62
0
10
60.881743404289
20
0
30
0
11
60.881743404289
21
3.2
31
0
0
LINE
8
0
62
0
10
60.881743404289
20
118.283
30
0
11
60.881743404289
21
115.083
31
0
0
LINE
8
0
62
0
10
67.6463815603211
20
0
30
0
11
67.6463815603211
21
6.4
31
0
0
LINE
8
0
62
0
10
67.6463815603211
20
118.283
30
0
11
67.6463815603211
21
111.883
31
0
0
TEXT
8
0
62
0
10
67.6463815603211
20
-12
30
0
40
8
1
1
50
0
0
LINE
8
0
62
0
10
74.4110197163533
20
0
30
0
11
74.4110197163533
21
3.2
31
0
0
LINE
8
0
62
0
10
74.4110197163533
20
118.283
30
0
11
74.4110197163533
21
115.083
31
0
0
LINE
8
0
62
0
10
81.1756578723854
20
0
30
0
11
81.1756578723854
21
3.2
31
0
0
LINE
8
0
62
0
10
81.1756578723854
20
118.283
30
0
11
81.1756578723854
21
115.083
31
0
0
LINE
8
0
62
0
10
87.9402960284175
20
0
30
0
11
87.9402960284175
21
3.2
31
0
0
LINE
8
0
62
0
10
87.9402960284175
20
118.283
30
0
11
87.9402960284175
21
115.083
31
0
0
LINE
8
0
62
0
10
94.7049341844496
20
0
30
0
11
94.7049341844496
21
3.2
31
0
0
LINE
8
0
62
0
10
94.7049341844496
20
118.283
30
0
11
94.7049341844496
21
115.083
31
0
0
LINE
8
0
62
0
10
101.469572340482
20
0
30
0
11
101.469572340482
21
6.4
31
0
0
LINE
8
0
62
0
10
101.469572340482
20
118.283
30
0
11
101.469572340482
21
111.883
31
0
0
TEXT
8
0
62
0
10
101.469572340482
20
-12
30
0
40
8
1
1.5
50
0
0
LINE
8
0
62
0
10
108.234210496514
20
0
30
0
11
108.234210496514
21
3.2
31
0
0
LINE
8
0
62
0
10
108.234210496514
20
118.283
30
0
11
108.234210496514
21
115.083
31
0
0
LINE
8
0
62
0
10
114.998848652546
20
0
30
0
11
114.998848652546
21
3.2
31
0
0
LINE
8
0
62
0
10
114.998848652546
20
118.283
30
0
11
114.998848652546
21
115.083
31
0
0
LINE
8
0
62
0
10
121.763486808578
20
0
30
0
11
121.763486808578
21
3.2
31
0
0
LINE
8
0
62
0
10
121.763486808578
20
118.283
30
0
11
121.763486808578
21
115.083
31
0
0
LINE
8
0
62
0
10
128.52812496461
20
0
30
0
11
128.52812496461
21
3.2
31
0
0
LINE
8
0
62
0
10
128.52812496461
20
118.283
30
0
11
128.52812496461
21
115.083
31
0
0
LINE
8
0
62
0
10
135.292763120642
20
0
30
0
11
135.292763120642
21
6.4
31
0
0
LINE
8
0
62
0
10
135.292763120642
20
118.283
30
0
11
135.292763120642
21
111.883
31
0
0
TEXT
8
0
62
0
10
135.292763120642
20
-12
30
0
40
8
1
2
50
0
0
LINE
8
0
62
0
10
142.057401276674
20
0
30
0
11
142.057401276674
21
3.2
31
0
0
LINE
8
0
62
0
10
142.057401276674
20
118.283
30
0
11
142.057401276674
21
115.083
31
0
0
LINE
8
0
62
0
10
148.822039432707
20
0
30
0
11
148.822039432707
21
3.2
31
0
0
LINE
8
0
62
0
10
148.822039432707
20
118.283
30
0
11
148.822039432707
21
115.083
31
0
0
LINE
8
0
62
0
10
155.586677588739
20
0
30
0
11
155.586677588739
21
3.2
31
0
0
LINE
8
0
62
0
10
155.586677588739
20
118.283
30
0
11
155.586677588739
21
115.083
31
0
0
LINE
8
0
62
0
10
162.351315744771
20
0
30
0
11
162.351315744771
21
3.2
31
0
0
LINE
8
0
62
0
10
162.351315744771
20
118.283
30
0
11
162.351315744771
21
115.083
31
0
0
LINE
8
0
62
0
10
169.115953900803
20
0
30
0
11
169.115953900803
21
6.4
31
0
0
LINE
8
0
62
0
10
169.115953900803
20
118.283
30
0
11
169.115953900803
21
111.883
31
0
0
TEXT
8
0
62
0
10
169.115953900803
20
-12
30
0
40
8
1
2.5
50
0
0
LINE
8
0
62
0
10
175.880592056835
20
0
30
0
11
175.880592056835
21
3.2
31
0
0
LINE
8
0
62
0
10
175.880592056835
20
118.283
30
0
11
175.880592056835
21
115.083
31
0
0
TEXT
8
0
62
0
10
-4
20
-4
30
0
40
8
1
0
50
0
0
LINE
8
0
62
0
10
0
20
5.25702222222222
30
0
11
3.2
21
5.25702222222222
31
0
0
LINE
8
0
62
0
10
179.2
20
5.25702222222222
30
0
11
176
21
5.25702222222222
31
0
0
LINE
8
0
62
0
10
0
20
10.5140444444444
30
0
11
3.2
21
10.5140444444444
31
0
0
LINE
8
0
62
0
10
179.2
20
10.5140444444444
30
0
11
176
21
10.5140444444444
31
0
0
LINE
8
0
62
0
10
0
20
15.7710666666667
30
0
11
3.2
21
15.7710666666667
31
0
0
LINE
8
0
62
0
10
179.2
20
15.7710666666667
30
0
11
176
21
15.7710666666667
31
0
0
LINE
8
0
62
0
10
0
20
21.0280888888889
30
0
11
3.2
21
21.0280888888889
31
0
0
LINE
8
0
62
0
10
179.2
20
21.0280888888889
30
0
11
176
21
21.0280888888889
31
0
0
LINE
8
0
62
0
10
0
20
26.2851111111111
30
0
11
6.4
21
26.2851111111111
31
0
0
LINE
8
0
62
0
10
179.2
20
26.2851111111111
30
0
11
172.8
21
26.2851111111111
31
0
0
TEXT
8
0
62
0
10
-4
20
22.2851111111111
30
0
40
8
1
10
50
0
0
LINE
8
0
62
0
10
0
20
31.5421333333333
30
0
11
3.2
21
31.5421333333333
31
0
0
LINE
8
0
62
0
10
179.2
20
31.5421333333333
30
0
11
176
21
31.5421333333333
31
0
0
LINE
8
0
62
0
10
0
20
36.7991555555556
30
0
11
3.2
21
36.7991555555556
31
0
0
LINE
8
0
62
0
10
179.2
20
36.7991555555556
30
0
11
176
21
36.7991555555556
31
0
0
LINE
8
0
62
0
10
0
20
42.0561777777778
30
0
11
3.2
21
42.0561777777778
31
0
0
LINE
8
0
62
0
10
179.2
20
42.0561777777778
30
0
11
176
21
42.0561777777778
31
0
0
LINE
8
0
62
0
10
0
20
47.3132
30
0
11
3.2
21
47.3132
31
0
0
LINE
8
0
62
0
10
179.2
20
47.3132
30
0
11
176
21
47.3132
31
0
0
LINE
8
0
62
0
10
0
20
52.5702222222222
30
0
11
6.4
21
52.5702222222222
31
0
0
LINE
8
0
62
0
10
179.2
20
52.5702222222222
30
0
11
172.8
21
52.5702222222222
31
0
0
TEXT
8
0
62
0
10
-4
20
48.5702222222222
30
0
40
8
1
20
50
0
0
LINE
8
0
62
0
10
0
20
57.8272444444444
30
0
11
3.2
21
57.8272444444444
31
0
0
LINE
8
0
62
0
10
179.2
20
57.8272444444444
30
0
11
176
21
57.8272444444444
31
0
0
LINE
8
0
62
0
10
0
20
63.0842666666667
30
0
11
3.2
21
63.0842666666667
31
0
0
LINE
8
0
62
0
10
179.2
20
63.0842666666667
30
0
11
176
21
63.0842666666667
31
0
0
LINE
8
0
62
0
10
0
20
68.3412888888889
30
0
11
3.2
21
68.3412888888889
31
0
0
LINE
8
0
62
0
10
179.2
20
68.3412888888889
30
0
11
176
21
68.3412888888889
31
0
0
LINE
8
0
62
0
10
0
20
73.5983111111111
30
0
11
3.2
21
73.5983111111111
31
0
0
LINE
8
0
62
0
10
179.2
20
73.5983111111111
30
0
11
176
21
73.5983111111111
31
0
0
LINE
8
0
62
0
10
0
20
78.8553333333333
30
0
11
6.4
21
78.8553333333333
31
0
0
LINE
8
0
62
0
10
179.2
20
78.8553333333333
30
0
11
172.8
21
78.8553333333333
31
0
0
TEXT
8
0
62
0
10
-4
20
74.8553333333333
30
0
40
8
1
30
50
0
0
LINE
8
0
62
0
10
0
20
84.1123555555555
30
0
11
3.2
21
84.1123555555555
31
0
0
LINE
8
0
62
0
10
179.2
20
84.1123555555555
30
0
11
176
21
84.1123555555555
31
0
0
LINE
8
0
62
0
10
0
20
89.3693777777777
30
0
11
3.2
21
89.3693777777777
31
0
0
LINE
8
0
62
0
10
179.2
20
89.3693777777777
30
0
11
176
21
89.3693777777777
31
0
0
LINE
8
0
62
0
10
0
20
94.6264
30
0
11
3.2
21
94.6264
31
0
0
LINE
8
0
62
0
10
179.2
20
94.6264
30
0
11
176
21
94.6264
31
0
0
LINE
8
0
62
0
10
0
20
99.8834222222222
30
0
11
3.2
21
99.8834222222222
31
0
0
LINE
8
0
62
0
10
179.2
20
99.8834222222222
30
0
11
176
21
99.8834222222222
31
0
0
LINE
8
0
62
0
10
0
20
105.140444444444
30
0
11
6.4
21
105.140444444444
31
0
0
LINE
8
0
62
0
10
179.2
20
105.140444444444
30
0
11
172.8
21
105.140444444444
31
0
0
TEXT
8
0
62
0
10
-4
20
101.140444444444
30
0
40
8
1
40
50
0
0
LINE
8
0
62
0
10
0
20
110.397466666667
30
0
11
3.2
21
110.397466666667
31
0
0
LINE
8
0
62
0
10
179.2
20
110.397466666667
30
0
11
176
21
110.397466666667
31
0
0
LINE
8
0
62
0
10
0
20
115.654488888889
30
0
11
3.2
21
115.654488888889
31
0
0
LINE
8
0
62
0
10
179.2
20
115.654488888889
30
0
11
176
21
115.654488888889
31
0
0
TEXT
8
0
62
0
10
89.6
20
-32
30
0
40
10
1
R (kpc)
50
0
0
TEXT
8
0
62
0
10
-24
20
59.1415
30
0
40
10
1
V (km/s)
50
90
0
TEXT
8
0
62
0
10
72.6
20
133.283
30
0
40
11
1
V vs. R
50
0
0
POLYLINE
8
0
62
5
70
0
10
0
20
0
30
0
0
VERTEX
8
0
10
23.6762335461124
20
16.9302551999522
30
0
0
VERTEX
8
0
10
24.3526973617156
20
17.1533343267669
30
0
0
VERTEX
8
0
10
25.0291611773188
20
17.3764134535816
30
0
0
VERTEX
8
0
10
25.705624992922
20
17.5994925803963
30
0
0
VERTEX
8
0
10
26.3820888085253
20
17.8253446869468
30
0
0
VERTEX
8
0
10
27.0585526241285
20
18.0512193973437
30
0
0
VERTEX
8
0
10
27.7350164397317
20
18.2770941077405
30
0
0
VERTEX
8
0
10
28.4114802553349
20
18.5029688181373
30
0
0
VERTEX
8
0
10
29.0879440709381
20
18.7379833047069
30
0
0
VERTEX
8
0
10
29.7644078865413
20
18.9722447658501
30
0
0
VERTEX
8
0
10
30.4408717021445
20
19.2065062269932
30
0
0
VERTEX
8
0
10
31.1173355177477
20
19.4407676881364
30
0
0
VERTEX
8
0
10
31.793799333351
20
19.6650685361413
30
0
0
VERTEX
8
0
10
32.4702631489542
20
19.8909432465381
30
0
0
VERTEX
8
0
10
33.1467269645574
20
20.1168179569349
30
0
0
VERTEX
8
0
10
33.8231907801606
20
20.3426926673318
30
0
0
VERTEX
8
0
10
34.4996545957638
20
20.5793488278321
30
0
0
VERTEX
8
0
10
35.176118411367
20
20.8136102889753
30
0
0
VERTEX
8
0
10
35.8525822269702
20
21.0478717501184
30
0
0
VERTEX
8
0
10
36.5290460425734
20
21.2821332112616
30
0
0
VERTEX
8
0
10
37.2055098581766
20
21.5047923853358
30
0
0
VERTEX
8
0
10
37.8819736737799
20
21.7306670957326
30
0
0
VERTEX
8
0
10
38.5584374893831
20
21.9565418061294
30
0
0
VERTEX
8
0
10
39.2349013049863
20
22.1824165165262
30
0
0
VERTEX
8
0
10
39.9113651205895
20
22.4248553923022
30
0
0
VERTEX
8
0
10
40.5878289361927
20
22.6619124370274
30
0
0
VERTEX
8
0
10
41.2642927517959
20
22.8989694817527
30
0
0
VERTEX
8
0
10
41.9407565673991
20
23.1279311760556
30
0
0
VERTEX
8
0
10
42.6172203830023
20
23.3510103028703
30
0
0
VERTEX
8
0
10
43.2936841986056
20
23.574089429685
30
0
0
VERTEX
8
0
10
43.9701480142088
20
23.7971685564997
30
0
0
VERTEX
8
0
10
44.646611829812
20
24.0164623185019
30
0
0
VERTEX
8
0
10
45.3230756454152
20
24.2339502781524
30
0
0
VERTEX
8
0
10
45.9995394610184
20
24.4514382378029
30
0
0
VERTEX
8
0
10
46.6760032766216
20
24.6689261974534
30
0
0
VERTEX
8
0
10
47.3524670922248
20
24.8842478623758
30
0
0
VERTEX
8
0
10
48.028930907828
20
25.0989402384442
30
0
0
VERTEX
8
0
10
48.7053947234313
20
25.3136326145125
30
0
0
VERTEX
8
0
10
49.3818585390345
20
25.5283249905809
30
0
0
VERTEX
8
0
10
50.0583223546377
20
25.7405774595994
30
0
0
VERTEX
8
0
10
50.7347861702409
20
25.9524742520857
30
0
0
VERTEX
8
0
10
51.4112499858441
20
26.164371044572
30
0
0
VERTEX
8
0
10
52.0877138014473
20
26.3762678370582
30
0
0
VERTEX
8
0
10
52.7641776170505
20
26.5881646295445
30
0
0
VERTEX
8
0
10
53.4406414326537
20
26.8000614220308
30
0
0
VERTEX
8
0
10
54.117105248257
20
27.011958214517
30
0
0
VERTEX
8
0
10
54.7935690638602
20
27.2238550070033
30
0
0
VERTEX
8
0
10
55.4700328794634
20
27.4417260628764
30
0
0
VERTEX
8
0
10
56.1464966950666
20
27.6592140225269
30
0
0
VERTEX
8
0
10
56.8229605106698
20
27.8767019821774
30
0
0
VERTEX
8
0
10
57.499424326273
20
28.0941899418279
30
0
0
VERTEX
8
0
10
58.1758881418762
20
28.3051564134479
30
0
0
VERTEX
8
0
10
58.8523519574794
20
28.5170532059342
30
0
0
VERTEX
8
0
10
59.5288157730826
20
28.7289499984204
30
0
0
VERTEX
8
0
10
60.2052795886859
20
28.9408467909067
30
0
0
VERTEX
8
0
10
60.8817434042891
20
29.15627793973
30
0
0
VERTEX
8
0
10
61.5582072198923
20
29.3709703157984
30
0
0
VERTEX
8
0
10
62.2346710354955
20
29.5856626918668
30
0
0
VERTEX
8
0
10
62.9111348510987
20
29.8003550679351
30
0
0
VERTEX
8
0
10
63.5875986667019
20
30.0112394753447
30
0
0
VERTEX
8
0
10
64.2640624823051
20
30.2231362678309
30
0
0
VERTEX
8
0
10
64.9405262979083
20
30.4350330603172
30
0
0
VERTEX
8
0
10
65.6169901135116
20
30.6469298528035
30
0
0
VERTEX
8
0
10
66.2934539291148
20
30.7853581876386
30
0
0
VERTEX
8
0
10
66.969917744718
20
30.9469344756469
30
0
0
VERTEX
8
0
10
67.6463815603212
20
31.1085107636552
30
0
0
VERTEX
8
0
10
68.3228453759244
20
31.1843085170467
30
0
0
VERTEX
8
0
10
68.9993091915276
20
31.192127708039
30
0
0
VERTEX
8
0
10
69.6757730071308
20
31.1999468990312
30
0
0
VERTEX
8
0
10
70.352236822734
20
31.2077660900234
30
0
0
VERTEX
8
0
10
71.0287006383373
20
31.2100856148894
30
0
0
VERTEX
8
0
10
71.7051644539405
20
31.2095180551353
30
0
0
VERTEX
8
0
10
72.3816282695437
20
31.2089504953812
30
0
0
VERTEX
8
0
10
73.0580920851469
20
31.2083829356271
30
0
0
VERTEX
8
0
10
73.7345559007501
20
31.2183495476925
30
0
0
VERTEX
8
0
10
74.4110197163533
20
31.231759905849
30
0
0
VERTEX
8
0
10
75.0874835319565
20
31.2451702640055
30
0
0
VERTEX
8
0
10
75.7639473475597
20
31.2585806221619
30
0
0
VERTEX
8
0
10
76.4404111631629
20
31.3005563405467
30
0
0
VERTEX
8
0
10
77.1168749787662
20
31.3475137016884
30
0
0
VERTEX
8
0
10
77.7933387943694
20
31.3944710628302
30
0
0
VERTEX
8
0
10
78.4698026099726
20
31.441428423972
30
0
0
VERTEX
8
0
10
79.1462664255758
20
31.4432667819866
30
0
0
VERTEX
8
0
10
79.822730241179
20
31.4426992222325
30
0
0
VERTEX
8
0
10
80.4991940567822
20
31.4421316624784
30
0
0
VERTEX
8
0
10
81.1756578723854
20
31.4415641027243
30
0
0
VERTEX
8
0
10
81.8521216879886
20
31.4409965429702
30
0
0
VERTEX
8
0
10
82.5285855035919
20
31.4404289832161
30
0
0
VERTEX
8
0
10
83.2050493191951
20
31.439861423462
30
0
0
VERTEX
8
0
10
83.8815131347983
20
31.4392938637079
30
0
0
VERTEX
8
0
10
84.5579769504015
20
31.4611352895114
30
0
0
VERTEX
8
0
10
85.2344407660047
20
31.480136814832
30
0
0
VERTEX
8
0
10
85.9109045816079
20
31.4991383401527
30
0
0
VERTEX
8
0
10
86.5873683972111
20
31.5181398654734
30
0
0
VERTEX
8
0
10
87.2638322128144
20
31.564940558577
30
0
0
VERTEX
8
0
10
87.9402960284175
20
31.6063067525546
30
0
0
VERTEX
8
0
10
88.6167598440208
20
31.6476729465322
30
0
0
VERTEX
8
0
10
89.293223659624
20
31.6890391405097
30
0
0
VERTEX
8
0
10
89.9696874752272
20
31.6104530690581
30
0
0
VERTEX
8
0
10
90.6461512908304
20
31.5623605884081
30
0
0
VERTEX
8
0
10
91.3226151064336
20
31.5142681077582
30
0
0
VERTEX
8
0
10
91.9990789220368
20
31.4661756271082
30
0
0
VERTEX
8
0
10
92.67554273764
20
31.4663485938558
30
0
0
VERTEX
8
0
10
93.3520065532433
20
31.4518031161911
30
0
0
VERTEX
8
0
10
94.0284703688465
20
31.4372576385265
30
0
0
VERTEX
8
0
10
94.7049341844497
20
31.4302129076426
30
0
0
VERTEX
8
0
10
95.3813980000529
20
31.4296453478885
30
0
0
VERTEX
8
0
10
96.0578618156561
20
31.4290777881344
30
0
0
VERTEX
8
0
10
96.7343256312593
20
31.4285102283803
30
0
0
VERTEX
8
0
10
97.4107894468625
20
31.3942411967454
30
0
0
VERTEX
8
0
10
98.0872532624657
20
31.3405575489313
30
0
0
VERTEX
8
0
10
98.763717078069
20
31.2868739011171
30
0
0
VERTEX
8
0
10
99.4401808936722
20
31.2331902533029
30
0
0
VERTEX
8
0
10
100.116644709275
20
31.2122645894844
30
0
0
VERTEX
8
0
10
100.793108524879
20
31.203310278984
30
0
0
VERTEX
8
0
10
101.469572340482
20
31.1943559684836
30
0
0
VERTEX
8
0
10
102.146036156085
20
31.1854016579832
30
0
0
VERTEX
8
0
10
102.822499971688
20
31.1834103064473
30
0
0
VERTEX
8
0
10
103.498963787291
20
31.1828427466933
30
0
0
VERTEX
8
0
10
104.175427602895
20
31.1822751869392
30
0
0
VERTEX
8
0
10
104.851891418498
20
31.1817076271851
30
0
0
VERTEX
8
0
10
105.528355234101
20
31.1318426932079
30
0
0
VERTEX
8
0
10
106.204819049704
20
31.0781590453937
30
0
0
VERTEX
8
0
10
106.881282865307
20
31.0244753975795
30
0
0
VERTEX
8
0
10
107.557746680911
20
30.9707917497654
30
0
0
VERTEX
8
0
10
108.234210496514
20
30.962999477393
30
0
0
VERTEX
8
0
10
108.910674312117
20
30.9540451668926
30
0
0
VERTEX
8
0
10
109.58713812772
20
30.9450908563922
30
0
0
VERTEX
8
0
10
110.263601943324
20
30.9361365458918
30
0
0
VERTEX
8
0
10
110.940065758927
20
30.9083312956699
30
0
0
VERTEX
8
0
10
111.61652957453
20
30.8826034836768
30
0
0
VERTEX
8
0
10
112.292993390133
20
30.8568756716838
30
0
0
VERTEX
8
0
10
112.969457205736
20
30.8311478596907
30
0
0
VERTEX
8
0
10
113.64592102134
20
30.7917583052628
30
0
0
VERTEX
8
0
10
114.322384836943
20
30.7548481589413
30
0
0
VERTEX
8
0
10
114.998848652546
20
30.7179380126198
30
0
0
VERTEX
8
0
10
115.675312468149
20
30.6810278662983
30
0
0
VERTEX
8
0
10
116.351776283752
20
30.6109162886022
30
0
0
VERTEX
8
0
10
117.028240099356
20
30.5488458900417
30
0
0
VERTEX
8
0
10
117.704703914959
20
30.4867754914812
30
0
0
VERTEX
8
0
10
118.381167730562
20
30.4247050929207
30
0
0
VERTEX
8
0
10
119.057631546165
20
30.3903733161263
30
0
0
VERTEX
8
0
10
119.734095361769
20
30.3478720026406
30
0
0
VERTEX
8
0
10
120.410559177372
20
30.3053706891548
30
0
0
VERTEX
8
0
10
121.087022992975
20
30.2643100646611
30
0
0
VERTEX
8
0
10
121.763486808578
20
30.2246043347574
30
0
0
VERTEX
8
0
10
122.439950624181
20
30.1848986048538
30
0
0
VERTEX
8
0
10
123.116414439785
20
30.1451928749502
30
0
0
VERTEX
8
0
10
123.792878255388
20
30.1037728437328
30
0
0
VERTEX
8
0
10
124.469342070991
20
30.0612715302471
30
0
0
VERTEX
8
0
10
125.145805886594
20
30.0187702167613
30
0
0
VERTEX
8
0
10
125.822269702197
20
29.9762689032756
30
0
0
VERTEX
8
0
10
126.498733517801
20
29.9218401079765
30
0
0
VERTEX
8
0
10
127.175197333404
20
29.8625652929981
30
0
0
VERTEX
8
0
10
127.851661149007
20
29.8032904780197
30
0
0
VERTEX
8
0
10
128.52812496461
20
29.7440156630413
30
0
0
VERTEX
8
0
10
129.204588780213
20
29.7005715297644
30
0
0
VERTEX
8
0
10
129.881052595817
20
29.6608657998608
30
0
0
VERTEX
8
0
10
130.55751641142
20
29.6211600699572
30
0
0
VERTEX
8
0
10
131.233980227023
20
29.5814543400536
30
0
0
VERTEX
8
0
10
131.910444042626
20
29.5544243015457
30
0
0
VERTEX
8
0
10
132.58690785823
20
29.5286964895526
30
0
0
VERTEX
8
0
10
133.263371673833
20
29.5029686775596
30
0
0
VERTEX
8
0
10
133.939835489436
20
29.4772408655665
30
0
0
VERTEX
8
0
10
134.616299305039
20
29.476791808982
30
0
0
VERTEX
8
0
10
135.292763120642
20
29.4762242492279
30
0
0
VERTEX
8
0
10
135.969226936246
20
29.4756566894738
30
0
0
VERTEX
8
0
10
136.645690751849
20
29.4750891297197
30
0
0
VERTEX
8
0
10
137.322154567452
20
29.4745215699656
30
0
0
VERTEX
8
0
10
137.998618383055
20
29.4739540102116
30
0
0
VERTEX
8
0
10
138.675082198658
20
29.4733864504575
30
0
0
VERTEX
8
0
10
139.351546014262
20
29.4728188907034
30
0
0
VERTEX
8
0
10
140.028009829865
20
29.4722513309493
30
0
0
VERTEX
8
0
10
140.704473645468
20
29.4716837711952
30
0
0
VERTEX
8
0
10
141.380937461071
20
29.4711162114411
30
0
0
VERTEX
8
0
10
142.057401276674
20
29.470548651687
30
0
0
VERTEX
8
0
10
142.733865092278
20
29.469981091933
30
0
0
VERTEX
8
0
10
143.410328907881
20
29.4694135321789
30
0
0
VERTEX
8
0
10
144.086792723484
20
29.4688459724248
30
0
0
VERTEX
8
0
10
144.763256539087
20
29.4682784126707
30
0
0
VERTEX
8
0
10
145.43972035469
20
29.4677108529166
30
0
0
VERTEX
8
0
10
146.116184170294
20
29.4671432931625
30
0
0
VERTEX
8
0
10
146.792647985897
20
29.4665757334084
30
0
0
VERTEX
8
0
10
147.4691118015
20
29.4660081736544
30
0
0
VERTEX
8
0
10
148.145575617103
20
29.4654406139003
30
0
0
VERTEX
8
0
10
148.822039432706
20
29.4648730541462
30
0
0
VERTEX
8
0
10
149.49850324831
20
29.4643054943921
30
0
0
VERTEX
8
0
10
150.174967063913
20
29.463737934638
30
0
0
VERTEX
8
0
10
150.851430879516
20
29.4631703748839
30
0
0
VERTEX
8
0
10
151.527894695119
20
29.4626028151298
30
0
0
VERTEX
8
0
10
152.204358510722
20
29.4620352553757
30
0
0
VERTEX
8
0
10
152.880822326326
20
29.4614676956217
30
0
0
VERTEX
8
0
10
153.557286141929
20
29.4609001358676
30
0
0
VERTEX
8
0
10
154.233749957532
20
29.4603325761135
30
0
0
VERTEX
8
0
10
154.910213773135
20
29.4597650163594
30
0
0
SEQEND
8
0
0
POLYLINE
8
0
62
6
70
0
10
0
20
0
30
0
0
VERTEX
8
0
10
23.6762335461124
20
8.93056957208005
30
0
0
VERTEX
8
0
10
24.3526973617156
20
8.93000201232596
30
0
0
VERTEX
8
0
10
25.0291611773188
20
8.92943445257188
30
0
0
VERTEX
8
0
10
25.705624992922
20
8.92886689281779
30
0
0
VERTEX
8
0
10
26.3820888085253
20
8.92829933306371
30
0
0
VERTEX
8
0
10
27.0585526241285
20
8.92773177330962
30
0
0
VERTEX
8
0
10
27.7350164397317
20
8.92716421355553
30
0
0
VERTEX
8
0
10
28.4114802553349
20
8.92659665380145
30
0
0
VERTEX
8
0
10
29.0879440709381
20
8.92602909404736
30
0
0
VERTEX
8
0
10
29.7644078865413
20
8.92546153429327
30
0
0
VERTEX
8
0
10
30.4408717021445
20
8.92489397453918
30
0
0
VERTEX
8
0
10
31.1173355177477
20
8.92432641478509
30
0
0
VERTEX
8
0
10
31.793799333351
20
8.923758855031
30
0
0
VERTEX
8
0
10
32.4702631489542
20
8.92319129527692
30
0
0
VERTEX
8
0
10
33.1467269645574
20
8.92262373552283
30
0
0
VERTEX
8
0
10
33.8231907801606
20
8.92205617576874
30
0
0
VERTEX
8
0
10
34.4996545957638
20
8.92148861601466
30
0
0
VERTEX
8
0
10
35.176118411367
20
8.92092105626057
30
0
0
VERTEX
8
0
10
35.8525822269702
20
8.92035349650649
30
0
0
VERTEX
8
0
10
36.5290460425734
20
8.9197859367524
30
0
0
VERTEX
8
0
10
37.2055098581766
20
8.91921837699832
30
0
0
VERTEX
8
0
10
37.8819736737799
20
8.91865081724423
30
0
0
VERTEX
8
0
10
38.5584374893831
20
8.91808325749015
30
0
0
VERTEX
8
0
10
39.2349013049863
20
8.91751569773606
30
0
0
VERTEX
8
0
10
39.9113651205895
20
8.92009747732615
30
0
0
VERTEX
8
0
10
40.5878289361927
20
8.92232550115418
30
0
0
VERTEX
8
0
10
41.2642927517959
20
8.92455352498221
30
0
0
VERTEX
8
0
10
41.9407565673991
20
8.92678154881023
30
0
0
VERTEX
8
0
10
42.6172203830023
20
8.96666204096395
30
0
0
VERTEX
8
0
10
43.2936841986056
20
8.99964148419518
30
0
0
VERTEX
8
0
10
43.9701480142088
20
9.03262092742641
30
0
0
VERTEX
8
0
10
44.646611829812
20
9.06560037065764
30
0
0
VERTEX
8
0
10
45.3230756454152
20
9.24274580941182
30
0
0
VERTEX
8
0
10
45.9995394610184
20
9.38475301234534
30
0
0
VERTEX
8
0
10
46.6760032766216
20
9.52676021527887
30
0
0
VERTEX
8
0
10
47.3524670922248
20
9.66876741821239
30
0
0
VERTEX
8
0
10
48.028930907828
20
9.81077462114591
30
0
0
VERTEX
8
0
10
48.7053947234313
20
9.95278182407943
30
0
0
VERTEX
8
0
10
49.3818585390345
20
10.094789027013
30
0
0
VERTEX
8
0
10
50.0583223546377
20
10.2367962299465
30
0
0
VERTEX
8
0
10
50.7347861702409
20
10.37880343288
30
0
0
VERTEX
8
0
10
51.4112499858441
20
10.5208106358135
30
0
0
VERTEX
8
0
10
52.0877138014473
20
10.662817838747
30
0
0
VERTEX
8
0
10
52.7641776170505
20
10.8065468590516
30
0
0
VERTEX
8
0
10
53.4406414326537
20
10.9513496455672
30
0
0
VERTEX
8
0
10
54.117105248257
20
11.0961524320828
30
0
0
VERTEX
8
0
10
54.7935690638602
20
11.2409552185985
30
0
0
VERTEX
8
0
10
55.4700328794634
20
11.3837625754212
30
0
0
VERTEX
8
0
10
56.1464966950666
20
11.5257697783548
30
0
0
VERTEX
8
0
10
56.8229605106698
20
11.6677769812883
30
0
0
VERTEX
8
0
10
57.499424326273
20
11.8097841842218
30
0
0
VERTEX
8
0
10
58.1758881418762
20
11.9517913871553
30
0
0
VERTEX
8
0
10
58.8523519574794
20
12.0937985900888
30
0
0
VERTEX
8
0
10
59.5288157730826
20
12.2358057930224
30
0
0
VERTEX
8
0
10
60.2052795886859
20
12.3778129959559
30
0
0
VERTEX
8
0
10
60.8817434042891
20
12.5223628532258
30
0
0
VERTEX
8
0
10
61.5582072198923
20
12.6671656397414
30
0
0
VERTEX
8
0
10
62.2346710354955
20
12.8119684262571
30
0
0
VERTEX
8
0
10
62.9111348510987
20
12.9567712127727
30
0
0
VERTEX
8
0
10
63.5875986667019
20
13.0987577326301
30
0
0
VERTEX
8
0
10
64.2640624823051
20
13.2407649355636
30
0
0
VERTEX
8
0
10
64.9405262979083
20
13.3827721384972
30
0
0
VERTEX
8
0
10
65.6169901135116
20
13.5247793414307
30
0
0
VERTEX
8
0
10
66.2934539291148
20
13.7347638819245
30
0
0
VERTEX
8
0
10
66.969917744718
20
13.9382739236645
30
0
0
VERTEX
8
0
10
67.6463815603212
20
14.1417839654044
30
0
0
VERTEX
8
0
10
68.3228453759244
20
14.3452940071444
30
0
0
VERTEX
8
0
10
68.9993091915276
20
14.642981805335
30
0
0
VERTEX
8
0
10
69.6757730071308
20
14.924768187374
30
0
0
VERTEX
8
0
10
70.352236822734
20
15.206554569413
30
0
0
VERTEX
8
0
10
71.0287006383373
20
15.488340951452
30
0
0
VERTEX
8
0
10
71.7051644539405
20
15.7737644371146
30
0
0
VERTEX
8
0
10
72.3816282695437
20
16.0583464027358
30
0
0
VERTEX
8
0
10
73.0580920851469
20
16.3429283683569
30
0
0
VERTEX
8
0
10
73.7345559007501
20
16.627510333978
30
0
0
VERTEX
8
0
10
74.4110197163533
20
16.9081815836537
30
0
0
VERTEX
8
0
10
75.0874835319565
20
17.1899679656928
30
0
0
VERTEX
8
0
10
75.7639473475597
20
17.4717543477318
30
0
0
VERTEX
8
0
10
76.4404111631629
20
17.7535407297708
30
0
0
VERTEX
8
0
10
77.1168749787662
20
18.0436957683442
30
0
0
VERTEX
8
0
10
77.7933387943694
20
18.3310733175474
30
0
0
VERTEX
8
0
10
78.4698026099726
20
18.6184508667506
30
0
0
VERTEX
8
0
10
79.1462664255758
20
18.9025037019401
30
0
0
VERTEX
8
0
10
79.822730241179
20
19.1842900839791
30
0
0
VERTEX
8
0
10
80.4991940567822
20
19.4660764660181
30
0
0
VERTEX
8
0
10
81.1756578723854
20
19.7478628480571
30
0
0
VERTEX
8
0
10
81.8521216879886
20
20.0335211687535
30
0
0
VERTEX
8
0
10
82.5285855035919
20
20.3208987179567
30
0
0
VERTEX
8
0
10
83.2050493191951
20
20.60827626716
30
0
0
VERTEX
8
0
10
83.8815131347983
20
20.8956538163632
30
0
0
VERTEX
8
0
10
84.5579769504015
20
21.1786122022655
30
0
0
VERTEX
8
0
10
85.2344407660047
20
21.4603985843045
30
0
0
VERTEX
8
0
10
85.9109045816079
20
21.7421849663435
30
0
0
VERTEX
8
0
10
86.5873683972111
20
22.0239713483826
30
0
0
VERTEX
8
0
10
87.2638322128144
20
22.2958249545325
30
0
0
VERTEX
8
0
10
87.9402960284175
20
22.5664290022431
30
0
0
VERTEX
8
0
10
88.6167598440208
20
22.8370330499537
30
0
0
VERTEX
8
0
10
89.293223659624
20
23.1076370976642
30
0
0
VERTEX
8
0
10
89.9696874752272
20
23.2955369565531
30
0
0
VERTEX
8
0
10
90.6461512908304
20
23.4822734968003
30
0
0
VERTEX
8
0
10
91.3226151064336
20
23.6690100370476
30
0
0
VERTEX
8
0
10
91.9990789220368
20
23.8557465772949
30
0
0
VERTEX
8
0
10
92.67554273764
20
24.0303614430788
30
0
0
VERTEX
8
0
10
93.3520065532433
20
24.2059156489976
30
0
0
VERTEX
8
0
10
94.0284703688465
20
24.3814698549164
30
0
0
VERTEX
8
0
10
94.7049341844497
20
24.5570240608353
30
0
0
VERTEX
8
0
10
95.3813980000529
20
24.7325782667541
30
0
0
VERTEX
8
0
10
96.0578618156561
20
24.908132472673
30
0
0
VERTEX
8
0
10
96.7343256312593
20
25.0836866785918
30
0
0
VERTEX
8
0
10
97.4107894468625
20
25.2592408845106
30
0
0
VERTEX
8
0
10
98.0872532624657
20
25.4347950904295
30
0
0
VERTEX
8
0
10
98.763717078069
20
25.6103492963483
30
0
0
VERTEX
8
0
10
99.4401808936722
20
25.7859035022671
30
0
0
VERTEX
8
0
10
100.116644709275
20
25.961457708186
30
0
0
VERTEX
8
0
10
100.793108524879
20
26.1370119141048
30
0
0
VERTEX
8
0
10
101.469572340482
20
26.3125661200236
30
0
0
VERTEX
8
0
10
102.146036156085
20
26.4881203259425
30
0
0
VERTEX
8
0
10
102.822499971688
20
26.6636745318613
30
0
0
VERTEX
8
0
10
103.498963787291
20
26.8433536056832
30
0
0
VERTEX
8
0
10
104.175427602895
20
27.0217033951841
30
0
0
VERTEX
8
0
10
104.851891418498
20
27.2000531846851
30
0
0
VERTEX
8
0
10
105.528355234101
20
27.3751971809006
30
0
0
VERTEX
8
0
10
106.204819049704
20
27.5479558032373
30
0
0
VERTEX
8
0
10
106.881282865307
20
27.720714425574
30
0
0
VERTEX
8
0
10
107.557746680911
20
27.8934730479108
30
0
0
VERTEX
8
0
10
108.234210496514
20
28.068108179212
30
0
0
VERTEX
8
0
10
108.910674312117
20
28.2436623851309
30
0
0
VERTEX
8
0
10
109.58713812772
20
28.4192165910497
30
0
0
VERTEX
8
0
10
110.263601943324
20
28.5947707969685
30
0
0
VERTEX
8
0
10
110.940065758927
20
28.7789254880326
30
0
0
VERTEX
8
0
10
111.61652957453
20
28.9656620282799
30
0
0
VERTEX
8
0
10
112.292993390133
20
29.1523985685271
30
0
0
VERTEX
8
0
10
112.969457205736
20
29.3391351087744
30
0
0
VERTEX
8
0
10
113.64592102134
20
29.4870919112921
30
0
0
VERTEX
8
0
10
114.322384836943
20
29.6290991142256
30
0
0
VERTEX
8
0
10
114.998848652546
20
29.7711063171591
30
0
0
VERTEX
8
0
10
115.675312468149
20
29.9131135200926
30
0
0
VERTEX
8
0
10
116.351776283752
20
30.2115667869601
30
0
0
VERTEX
8
0
10
117.028240099356
20
30.515717837656
30
0
0
VERTEX
8
0
10
117.704703914959
20
30.8198688883519
30
0
0
VERTEX
8
0
10
118.381167730562
20
31.1240199390478
30
0
0
VERTEX
8
0
10
119.057631546165
20
31.2766521189075
30
0
0
VERTEX
8
0
10
119.734095361769
20
31.4382284069158
30
0
0
VERTEX
8
0
10
120.410559177372
20
31.5998046949241
30
0
0
VERTEX
8
0
10
121.087022992975
20
31.7613809829323
30
0
0
VERTEX
8
0
10
121.763486808578
20
31.9683812589694
30
0
0
VERTEX
8
0
10
122.439950624181
20
32.1690957171273
30
0
0
VERTEX
8
0
10
123.116414439785
20
32.3698101752851
30
0
0
VERTEX
8
0
10
123.792878255388
20
32.5705246334429
30
0
0
VERTEX
8
0
10
124.469342070991
20
32.774757274496
30
0
0
VERTEX
8
0
10
125.145805886594
20
32.9782673162359
30
0
0
VERTEX
8
0
10
125.822269702197
20
33.1817773579759
30
0
0
VERTEX
8
0
10
126.498733517801
20
33.3852873997158
30
0
0
VERTEX
8
0
10
127.175197333404
20
33.5887974414557
30
0
0
VERTEX
8
0
10
127.851661149007
20
33.7923074831957
30
0
0
VERTEX
8
0
10
128.52812496461
20
33.9958175249356
30
0
0
VERTEX
8
0
10
129.204588780213
20
34.1993275666756
30
0
0
VERTEX
8
0
10
129.881052595817
20
34.3987722008766
30
0
0
VERTEX
8
0
10
130.55751641142
20
34.5994866590345
30
0
0
VERTEX
8
0
10
131.233980227023
20
34.8002011171923
30
0
0
VERTEX
8
0
10
131.910444042626
20
34.9901115214002
30
0
0
VERTEX
8
0
10
132.58690785823
20
35.1712568944833
30
0
0
VERTEX
8
0
10
133.263371673833
20
35.3524022675663
30
0
0
VERTEX
8
0
10
133.939835489436
20
35.5335476406494
30
0
0
VERTEX
8
0
10
134.616299305039
20
35.6510963127202
30
0
0
VERTEX
8
0
10
135.292763120642
20
35.7343962604294
30
0
0
VERTEX
8
0
10
135.969226936246
20
35.8176962081387
30
0
0
VERTEX
8
0
10
136.645690751849
20
35.9009961558479
30
0
0
VERTEX
8
0
10
137.322154567452
20
35.9633894943356
30
0
0
VERTEX
8
0
10
137.998618383055
20
36.0187336062237
30
0
0
VERTEX
8
0
10
138.675082198658
20
36.0740777181119
30
0
0
VERTEX
8
0
10
139.351546014262
20
36.12942183
30
0
0
VERTEX
8
0
10
140.028009829865
20
36.1847659418881
30
0
0
VERTEX
8
0
10
140.704473645468
20
36.2401100537762
30
0
0
VERTEX
8
0
10
141.380937461071
20
36.2954541656643
30
0
0
VERTEX
8
0
10
142.057401276674
20
36.3507982775524
30
0
0
VERTEX
8
0
10
142.733865092278
20
36.4061423894405
30
0
0
VERTEX
8
0
10
143.410328907881
20
36.4614865013286
30
0
0
VERTEX
8
0
10
144.086792723484
20
36.5168306132167
30
0
0
VERTEX
8
0
10
144.763256539087
20
36.5721747251049
30
0
0
VERTEX
8
0
10
145.43972035469
20
36.627518836993
30
0
0
VERTEX
8
0
10
146.116184170294
20
36.6828629488811
30
0
0
VERTEX
8
0
10
146.792647985897
20
36.7382070607692
30
0
0
VERTEX
8
0
10
147.4691118015
20
36.7935511726573
30
0
0
VERTEX
8
0
10
148.145575617103
20
36.8488952845454
30
0
0
VERTEX
8
0
10
148.822039432706
20
36.9042393964335
30
0
0
VERTEX
8
0
10
149.49850324831
20
36.9595835083216
30
0
0
VERTEX
8
0
10
150.174967063913
20
37.0149276202097
30
0
0
VERTEX
8
0
10
150.851430879516
20
37.0702717320978
30
0
0
VERTEX
8
0
10
151.527894695119
20
37.125615843986
30
0
0
VERTEX
8
0
10
152.204358510722
20
37.1809599558741
30
0
0
VERTEX
8
0
10
152.880822326326
20
37.2363040677622
30
0
0
VERTEX
8
0
10
153.557286141929
20
37.2818262458268
30
0
0
VERTEX
8
0
10
154.233749957532
20
37.3298135588146
30
0
0
VERTEX
8
0
10
154.910213773135
20
37.3778008718025
30
0
0
SEQEND
8
0
0
POLYLINE
8
0
62
6
70
0
10
0
20
0
30
0
0
VERTEX
8
0
10
23.6762335461124
20
33.7169837007266
30
0
0
VERTEX
8
0
10
24.3526973617156
20
34.2419858544092
30
0
0
VERTEX
8
0
10
25.0291611773188
20
34.7669880080917
30
0
0
VERTEX
8
0
10
25.705624992922
20
35.2919901617743
30
0
0
VERTEX
8
0
10
26.3820888085253
20
35.835815724139
30
0
0
VERTEX
8
0
10
27.0585526241285
20
36.3747957957321
30
0
0
VERTEX
8
0
10
27.7350164397317
20
36.9137758673252
30
0
0
VERTEX
8
0
10
28.4114802553349
20
37.4527559389183
30
0
0
VERTEX
8
0
10
29.0879440709381
20
37.9876977164532
30
0
0
VERTEX
8
0
10
29.7644078865413
20
38.5238822044643
30
0
0
VERTEX
8
0
10
30.4408717021445
20
39.0600666924753
30
0
0
VERTEX
8
0
10
31.1173355177477
20
39.5947348576884
30
0
0
VERTEX
8
0
10
31.793799333351
20
40.1281237621173
30
0
0
VERTEX
8
0
10
32.4702631489542
20
40.6615126665462
30
0
0
VERTEX
8
0
10
33.1467269645574
20
41.1949015709751
30
0
0
VERTEX
8
0
10
33.8231907801606
20
41.7300804105237
30
0
0
VERTEX
8
0
10
34.4996545957638
20
42.2662648985347
30
0
0
VERTEX
8
0
10
35.176118411367
20
42.8024493865457
30
0
0
VERTEX
8
0
10
35.8525822269702
20
43.3386338745568
30
0
0
VERTEX
8
0
10
36.5290460425734
20
43.8748183625678
30
0
0
VERTEX
8
0
10
37.2055098581766
20
44.4110028505788
30
0
0
VERTEX
8
0
10
37.8819736737799
20
44.9471873385898
30
0
0
VERTEX
8
0
10
38.5584374893831
20
45.4833718266008
30
0
0
VERTEX
8
0
10
39.2349013049863
20
46.0172191548486
30
0
0
VERTEX
8
0
10
39.9113651205895
20
46.5506080592775
30
0
0
VERTEX
8
0
10
40.5878289361927
20
47.0839969637064
30
0
0
VERTEX
8
0
10
41.2642927517959
20
47.6173858681353
30
0
0
VERTEX
8
0
10
41.9407565673991
20
48.1481640004791
30
0
0
VERTEX
8
0
10
42.6172203830023
20
48.6787573213259
30
0
0
VERTEX
8
0
10
43.2936841986056
20
49.2093506421727
30
0
0
VERTEX
8
0
10
43.9701480142088
20
49.7399439630195
30
0
0
VERTEX
8
0
10
44.646611829812
20
50.2215027489496
30
0
0
VERTEX
8
0
10
45.3230756454152
20
50.7045711489005
30
0
0
VERTEX
8
0
10
45.9995394610184
20
51.1876395488514
30
0
0
VERTEX
8
0
10
46.6760032766216
20
51.6707079488023
30
0
0
VERTEX
8
0
10
47.3524670922248
20
52.1348283683813
30
0
0
VERTEX
8
0
10
48.028930907828
20
52.6011232668396
30
0
0
VERTEX
8
0
10
48.7053947234313
20
53.0674181652978
30
0
0
VERTEX
8
0
10
49.3818585390345
20
53.5337130637561
30
0
0
VERTEX
8
0
10
50.0583223546377
20
54.0000079622144
30
0
0
VERTEX
8
0
10
50.7347861702409
20
54.4663028606726
30
0
0
VERTEX
8
0
10
51.4112499858441
20
54.9325977591309
30
0
0
VERTEX
8
0
10
52.0877138014473
20
55.3988926575892
30
0
0
VERTEX
8
0
10
52.7641776170505
20
55.8688927774197
30
0
0
VERTEX
8
0
10
53.4406414326537
20
56.3379832594601
30
0
0
VERTEX
8
0
10
54.117105248257
20
56.8070737415004
30
0
0
VERTEX
8
0
10
54.7935690638602
20
57.2761642235408
30
0
0
VERTEX
8
0
10
55.4700328794634
20
57.7412758718871
30
0
0
VERTEX
8
0
10
56.1464966950666
20
58.2075707703454
30
0
0
VERTEX
8
0
10
56.8229605106698
20
58.6738656688037
30
0
0
VERTEX
8
0
10
57.499424326273
20
59.1416174296957
30
0
0
VERTEX
8
0
10
58.1758881418762
20
59.6107079117361
30
0
0
VERTEX
8
0
10
58.8523519574794
20
60.0797983937764
30
0
0
VERTEX
8
0
10
59.5288157730826
20
60.5488888758168
30
0
0
VERTEX
8
0
10
60.2052795886859
20
61.0162488831017
30
0
0
VERTEX
8
0
10
60.8817434042891
20
61.4825437815599
30
0
0
VERTEX
8
0
10
61.5582072198923
20
61.9488386800182
30
0
0
VERTEX
8
0
10
62.2346710354955
20
62.4151335784765
30
0
0
VERTEX
8
0
10
62.9111348510987
20
62.8814284769347
30
0
0
VERTEX
8
0
10
63.5875986667019
20
63.347723375393
30
0
0
VERTEX
8
0
10
64.2640624823051
20
63.8140182738513
30
0
0
VERTEX
8
0
10
64.9405262979083
20
64.2803131723095
30
0
0
VERTEX
8
0
10
65.6169901135116
20
64.7238310767767
30
0
0
VERTEX
8
0
10
66.2934539291148
20
65.1621701394138
30
0
0
VERTEX
8
0
10
66.969917744718
20
65.600509202051
30
0
0
VERTEX
8
0
10
67.6463815603212
20
66.0388482646882
30
0
0
VERTEX
8
0
10
68.3228453759244
20
66.4083019108608
30
0
0
VERTEX
8
0
10
68.9993091915276
20
66.771160216781
30
0
0
VERTEX
8
0
10
69.6757730071308
20
67.1340185227012
30
0
0
VERTEX
8
0
10
70.352236822734
20
67.4968768286214
30
0
0
VERTEX
8
0
10
71.0287006383373
20
67.8427855902854
30
0
0
VERTEX
8
0
10
71.7051644539405
20
68.1888703947129
30
0
0
VERTEX
8
0
10
72.3816282695437
20
68.5349551991405
30
0
0
VERTEX
8
0
10
73.0580920851469
20
68.881040003568
30
0
0
VERTEX
8
0
10
73.7345559007501
20
69.2457160261825
30
0
0
VERTEX
8
0
10
74.4110197163533
20
69.6085743321027
30
0
0
VERTEX
8
0
10
75.0874835319565
20
69.9714326380229
30
0
0
VERTEX
8
0
10
75.7639473475597
20
70.3342909439431
30
0
0
VERTEX
8
0
10
76.4404111631629
20
70.6735442090593
30
0
0
VERTEX
8
0
10
77.1168749787662
20
71.0168334299047
30
0
0
VERTEX
8
0
10
77.7933387943694
20
71.3601226507502
30
0
0
VERTEX
8
0
10
78.4698026099726
20
71.7034118715956
30
0
0
VERTEX
8
0
10
79.1462664255758
20
72.0722214194976
30
0
0
VERTEX
8
0
10
79.822730241179
20
72.4350797254178
30
0
0
VERTEX
8
0
10
80.4991940567822
20
72.797938031338
30
0
0
VERTEX
8
0
10
81.1756578723854
20
73.1607963372582
30
0
0
VERTEX
8
0
10
81.8521216879886
20
73.5001384031991
30
0
0
VERTEX
8
0
10
82.5285855035919
20
73.8462232076267
30
0
0
VERTEX
8
0
10
83.2050493191951
20
74.1923080120542
30
0
0
VERTEX
8
0
10
83.8815131347983
20
74.5383928164818
30
0
0
VERTEX
8
0
10
84.5579769504015
20
74.913828520471
30
0
0
VERTEX
8
0
10
85.2344407660047
20
75.2794824099734
30
0
0
VERTEX
8
0
10
85.9109045816079
20
75.6451362994757
30
0
0
VERTEX
8
0
10
86.5873683972111
20
75.9957510594557
30
0
0
VERTEX
8
0
10
87.2638322128144
20
76.336244696719
30
0
0
VERTEX
8
0
10
87.9402960284175
20
76.6767383339824
30
0
0
VERTEX
8
0
10
88.6167598440208
20
77.0172319712457
30
0
0
VERTEX
8
0
10
89.293223659624
20
77.3246669543854
30
0
0
VERTEX
8
0
10
89.9696874752272
20
77.6176356707528
30
0
0
VERTEX
8
0
10
90.6461512908304
20
77.9106043871203
30
0
0
VERTEX
8
0
10
91.3226151064336
20
78.2035731034877
30
0
0
VERTEX
8
0
10
91.9990789220368
20
78.4832323856455
30
0
0
VERTEX
8
0
10
92.67554273764
20
78.7594276005203
30
0
0
VERTEX
8
0
10
93.3520065532433
20
79.035622815395
30
0
0
VERTEX
8
0
10
94.0284703688465
20
79.3118180302698
30
0
0
VERTEX
8
0
10
94.7049341844497
20
79.5855213937879
30
0
0
VERTEX
8
0
10
95.3813980000529
20
79.8589210250806
30
0
0
VERTEX
8
0
10
96.0578618156561
20
80.1323206563733
30
0
0
VERTEX
8
0
10
96.7343256312593
20
80.4057202876659
30
0
0
VERTEX
8
0
10
97.4107894468625
20
80.6791199189586
30
0
0
VERTEX
8
0
10
98.0872532624657
20
80.9525195502513
30
0
0
VERTEX
8
0
10
98.763717078069
20
81.225919181544
30
0
0
VERTEX
8
0
10
99.4401808936722
20
81.4993188128367
30
0
0
VERTEX
8
0
10
100.116644709275
20
81.77879659613
30
0
0
VERTEX
8
0
10
100.793108524879
20
82.0577873945869
30
0
0
VERTEX
8
0
10
101.469572340482
20
82.3367781930438
30
0
0
VERTEX
8
0
10
102.146036156085
20
82.6157689915007
30
0
0
VERTEX
8
0
10
102.822499971688
20
82.8848217249913
30
0
0
VERTEX
8
0
10
103.498963787291
20
83.1554257727018
30
0
0
VERTEX
8
0
10
104.175427602895
20
83.4260298204124
30
0
0
VERTEX
8
0
10
104.851891418498
20
83.696633868123
30
0
0
VERTEX
8
0
10
105.528355234101
20
83.9744105171214
30
0
0
VERTEX
8
0
10
106.204819049704
20
84.2506057319962
30
0
0
VERTEX
8
0
10
106.881282865307
20
84.526800946871
30
0
0
VERTEX
8
0
10
107.557746680911
20
84.8029961617458
30
0
0
VERTEX
8
0
10
108.234210496514
20
85.0791913766206
30
0
0
VERTEX
8
0
10
108.910674312117
20
85.3553865914954
30
0
0
VERTEX
8
0
10
109.58713812772
20
85.6315818063702
30
0
0
VERTEX
8
0
10
110.263601943324
20
85.907777021245
30
0
0
VERTEX
8
0
10
110.940065758927
20
86.1715716602572
30
0
0
VERTEX
8
0
10
111.61652957453
20
86.4393801243857
30
0
0
VERTEX
8
0
10
112.292993390133
20
86.7071885885141
30
0
0
VERTEX
8
0
10
112.969457205736
20
86.962104620425
30
0
0
VERTEX
8
0
10
113.64592102134
20
87.2075484158966
30
0
0
VERTEX
8
0
10
114.322384836943
20
87.4529922113682
30
0
0
VERTEX
8
0
10
114.998848652546
20
87.6984360068398
30
0
0
VERTEX
8
0
10
115.675312468149
20
87.9457649686603
30
0
0
VERTEX
8
0
10
116.351776283752
20
88.194004347714
30
0
0
VERTEX
8
0
10
117.028240099356
20
88.4422437267677
30
0
0
VERTEX
8
0
10
117.704703914959
20
88.6904831058214
30
0
0
VERTEX
8
0
10
118.381167730562
20
88.9365637062043
30
0
0
VERTEX
8
0
10
119.057631546165
20
89.1820075016759
30
0
0
VERTEX
8
0
10
119.734095361769
20
89.4274512971475
30
0
0
VERTEX
8
0
10
120.410559177372
20
89.6728950926191
30
0
0
VERTEX
8
0
10
121.087022992975
20
89.9183388880907
30
0
0
VERTEX
8
0
10
121.763486808578
20
90.1637826835622
30
0
0
VERTEX
8
0
10
122.439950624181
20
90.4092264790339
30
0
0
VERTEX
8
0
10
123.116414439785
20
90.6546702745054
30
0
0
VERTEX
8
0
10
123.792878255388
20
90.900114069977
30
0
0
VERTEX
8
0
10
124.469342070991
20
91.1455578654486
30
0
0
VERTEX
8
0
10
125.145805886594
20
91.3910016609202
30
0
0
VERTEX
8
0
10
125.822269702197
20
91.6364454563918
30
0
0
VERTEX
8
0
10
126.498733517801
20
91.8818892518634
30
0
0
VERTEX
8
0
10
127.175197333404
20
92.1273330473349
30
0
0
VERTEX
8
0
10
127.851661149007
20
92.3727768428065
30
0
0
VERTEX
8
0
10
128.52812496461
20
92.6182206382781
30
0
0
VERTEX
8
0
10
129.204588780213
20
92.8636644337497
30
0
0
VERTEX
8
0
10
129.881052595817
20
93.1091082292213
30
0
0
VERTEX
8
0
10
130.55751641142
20
93.3545520246929
30
0
0
VERTEX
8
0
10
131.233980227023
20
93.5999958201645
30
0
0
VERTEX
8
0
10
131.910444042626
20
93.8383859350765
30
0
0
VERTEX
8
0
10
132.58690785823
20
94.0782385633839
30
0
0
VERTEX
8
0
10
133.263371673833
20
94.3180911916912
30
0
0
VERTEX
8
0
10
133.939835489436
20
94.5579438199986
30
0
0
VERTEX
8
0
10
134.616299305039
20
94.7445901118842
30
0
0
VERTEX
8
0
10
135.292763120642
20
94.945304570042
30
0
0
VERTEX
8
0
10
135.969226936246
20
95.1460190281998
30
0
0
VERTEX
8
0
10
136.645690751849
20
95.3467334863576
30
0
0
VERTEX
8
0
10
137.322154567452
20
95.5148554251286
30
0
0
VERTEX
8
0
10
137.998618383055
20
95.6932052146296
30
0
0
VERTEX
8
0
10
138.675082198658
20
95.8715550041305
30
0
0
VERTEX
8
0
10
139.351546014262
20
96.0514568872945
30
0
0
VERTEX
8
0
10
140.028009829865
20
96.2326022603776
30
0
0
VERTEX
8
0
10
140.704473645468
20
96.4137476334606
30
0
0
VERTEX
8
0
10
141.380937461071
20
96.5948930065437
30
0
0
VERTEX
8
0
10
142.057401276674
20
96.7760383796267
30
0
0
VERTEX
8
0
10
142.733865092278
20
96.9571837527098
30
0
0
VERTEX
8
0
10
143.410328907881
20
97.1383291257928
30
0
0
VERTEX
8
0
10
144.086792723484
20
97.3194744988759
30
0
0
VERTEX
8
0
10
144.763256539087
20
97.4985205536523
30
0
0
VERTEX
8
0
10
145.43972035469
20
97.6768703431533
30
0
0
VERTEX
8
0
10
146.116184170294
20
97.8552201326542
30
0
0
VERTEX
8
0
10
146.792647985897
20
98.0335699221551
30
0
0
VERTEX
8
0
10
147.4691118015
20
98.2166655729129
30
0
0
VERTEX
8
0
10
148.145575617103
20
98.4006065295781
30
0
0
VERTEX
8
0
10
148.822039432706
20
98.5845474862432
30
0
0
VERTEX
8
0
10
149.49850324831
20
98.7684884429084
30
0
0
VERTEX
8
0
10
150.174967063913
20
98.9471363136731
30
0
0
VERTEX
8
0
10
150.851430879516
20
99.1254861031741
30
0
0
VERTEX
8
0
10
151.527894695119
20
99.303835892675
30
0
0
VERTEX
8
0
10
152.204358510722
20
99.482185682176
30
0
0
VERTEX
8
0
10
152.880822326326
20
99.6576153164049
30
0
0
VERTEX
8
0
10
153.557286141929
20
99.8331695223237
30
0
0
VERTEX
8
0
10
154.233749957532
20
100.008723728243
30
0
0
VERTEX
8
0
10
154.910213773135
20
100.184277934161
30
0
0
SEQEND
8
0
0
POLYLINE
8
0
62
1
70
0
10
0
20
0
30
0
0
VERTEX
8
0
10
23.6762335461124
20
19.1412803651498
30
0
0
VERTEX
8
0
10
24.3526973617156
20
19.3386094243093
30
0
0
VERTEX
8
0
10
25.0291611773188
20
19.5364926266869
30
0
0
VERTEX
8
0
10
25.705624992922
20
19.734913303004
30
0
0
VERTEX
8
0
10
26.3820888085253
20
19.936334723044
30
0
0
VERTEX
8
0
10
27.0585526241285
20
20.1382947725769
30
0
0
VERTEX
8
0
10
27.7350164397317
20
20.3407578501635
30
0
0
VERTEX
8
0
10
28.4114802553349
20
20.5437090834304
30
0
0
VERTEX
8
0
10
29.0879440709381
20
20.7553851738592
30
0
0
VERTEX
8
0
10
29.7644078865413
20
20.9668770935367
30
0
0
VERTEX
8
0
10
30.4408717021445
20
21.1788482667093
30
0
0
VERTEX
8
0
10
31.1173355177477
20
21.3912844462813
30
0
0
VERTEX
8
0
10
31.793799333351
20
21.5951011258081
30
0
0
VERTEX
8
0
10
32.4702631489542
20
21.8007560907668
30
0
0
VERTEX
8
0
10
33.1467269645574
20
22.0068075612565
30
0
0
VERTEX
8
0
10
33.8231907801606
20
22.2132445032482
30
0
0
VERTEX
8
0
10
34.4996545957638
20
22.4299477775423
30
0
0
VERTEX
8
0
10
35.176118411367
20
22.6448494310157
30
0
0
VERTEX
8
0
10
35.8525822269702
20
22.8601314893871
30
0
0
VERTEX
8
0
10
36.5290460425734
20
23.0757833058678
30
0
0
VERTEX
8
0
10
37.2055098581766
20
23.2810771226973
30
0
0
VERTEX
8
0
10
37.8819736737799
20
23.489662084106
30
0
0
VERTEX
8
0
10
38.5584374893831
20
23.6985640297431
30
0
0
VERTEX
8
0
10
39.2349013049863
20
23.9077746503522
30
0
0
VERTEX
8
0
10
39.9113651205895
20
24.1338409369637
30
0
0
VERTEX
8
0
10
40.5878289361927
20
24.3550850471117
30
0
0
VERTEX
8
0
10
41.2642927517959
20
24.5766242382169
30
0
0
VERTEX
8
0
10
41.9407565673991
20
24.7908981141173
30
0
0
VERTEX
8
0
10
42.6172203830023
20
25.0134106095434
30
0
0
VERTEX
8
0
10
43.2936841986056
20
25.23353402286
30
0
0
VERTEX
8
0
10
43.9701480142088
20
25.4537516316365
30
0
0
VERTEX
8
0
10
44.646611829812
20
25.670519519022
30
0
0
VERTEX
8
0
10
45.3230756454152
20
25.9367055768724
30
0
0
VERTEX
8
0
10
45.9995394610184
20
26.1905788595787
30
0
0
VERTEX
8
0
10
46.6760032766216
20
26.4445661702895
30
0
0
VERTEX
8
0
10
47.3524670922248
20
26.6966450151258
30
0
0
VERTEX
8
0
10
48.028930907828
20
26.9482485471674
30
0
0
VERTEX
8
0
10
48.7053947234313
20
27.1999607018142
30
0
0
VERTEX
8
0
10
49.3818585390345
20
27.4517784911036
30
0
0
VERTEX
8
0
10
50.0583223546377
20
27.701431822328
30
0
0
VERTEX
8
0
10
50.7347861702409
20
27.9508583142546
30
0
0
VERTEX
8
0
10
51.4112499858441
20
28.2003859653141
30
0
0
VERTEX
8
0
10
52.0877138014473
20
28.4500121137854
30
0
0
VERTEX
8
0
10
52.7641776170505
20
28.7003824605987
30
0
0
VERTEX
8
0
10
53.4406414326537
20
28.951258198636
30
0
0
VERTEX
8
0
10
54.117105248257
20
29.2022342532011
30
0
0
VERTEX
8
0
10
54.7935690638602
20
29.4533080598576
30
0
0
VERTEX
8
0
10
55.4700328794634
20
29.7092305468101
30
0
0
VERTEX
8
0
10
56.1464966950666
20
29.964570568049
30
0
0
VERTEX
8
0
10
56.8229605106698
20
30.2199856566514
30
0
0
VERTEX
8
0
10
57.499424326273
20
30.4754739251976
30
0
0
VERTEX
8
0
10
58.1758881418762
20
30.7250255809793
30
0
0
VERTEX
8
0
10
58.8523519574794
20
30.9755110997013
30
0
0
VERTEX
8
0
10
59.5288157730826
20
31.2260710211243
30
0
0
VERTEX
8
0
10
60.2052795886859
20
31.4767035684741
30
0
0
VERTEX
8
0
10
60.8817434042891
20
31.7316579259048
30
0
0
VERTEX
8
0
10
61.5582072198923
20
31.9861060874273
30
0
0
VERTEX
8
0
10
62.2346710354955
20
32.2406261085656
30
0
0
VERTEX
8
0
10
62.9111348510987
20
32.4952163007902
30
0
0
VERTEX
8
0
10
63.5875986667019
20
32.7452584198785
30
0
0
VERTEX
8
0
10
64.2640624823051
20
32.9963001250554
30
0
0
VERTEX
8
0
10
64.9405262979083
20
33.2474033195607
30
0
0
VERTEX
8
0
10
65.6169901135116
20
33.4985666206339
30
0
0
VERTEX
8
0
10
66.2934539291148
20
33.71026576035
30
0
0
VERTEX
8
0
10
66.969917744718
20
33.9409521582864
30
0
0
VERTEX
8
0
10
67.6463815603212
20
34.1720572347733
30
0
0
VERTEX
8
0
10
68.3228453759244
20
34.3256253815974
30
0
0
VERTEX
8
0
10
68.9993091915276
20
34.4581738794438
30
0
0
VERTEX
8
0
10
69.6757730071308
20
34.5859132010305
30
0
0
VERTEX
8
0
10
70.352236822734
20
34.715471568195
30
0
0
VERTEX
8
0
10
71.0287006383373
20
34.8419022086503
30
0
0
VERTEX
8
0
10
71.7051644539405
20
34.9692101962769
30
0
0
VERTEX
8
0
10
72.3816282695437
20
35.0979925382266
30
0
0
VERTEX
8
0
10
73.0580920851469
20
35.2286030536266
30
0
0
VERTEX
8
0
10
73.7345559007501
20
35.370318748754
30
0
0
VERTEX
8
0
10
74.4110197163533
20
35.5149184327151
30
0
0
VERTEX
8
0
10
75.0874835319565
20
35.6616834079413
30
0
0
VERTEX
8
0
10
75.7639473475597
20
35.8100692892332
30
0
0
VERTEX
8
0
10
76.4404111631629
20
35.9849001064525
30
0
0
VERTEX
8
0
10
77.1168749787662
20
36.1696222299612
30
0
0
VERTEX
8
0
10
77.7933387943694
20
36.3543816105869
30
0
0
VERTEX
8
0
10
78.4698026099726
20
36.5405272816001
30
0
0
VERTEX
8
0
10
79.1462664255758
20
36.6876501308688
30
0
0
VERTEX
8
0
10
79.822730241179
20
36.8331416038062
30
0
0
VERTEX
8
0
10
80.4991940567822
20
36.9802079018154
30
0
0
VERTEX
8
0
10
81.1756578723854
20
37.128830311382
30
0
0
VERTEX
8
0
10
81.8521216879886
20
37.2810707200579
30
0
0
VERTEX
8
0
10
82.5285855035919
20
37.4358050448246
30
0
0
VERTEX
8
0
10
83.2050493191951
20
37.5920993964169
30
0
0
VERTEX
8
0
10
83.8815131347983
20
37.7499343981136
30
0
0
VERTEX
8
0
10
84.5579769504015
20
37.9254090092498
30
0
0
VERTEX
8
0
10
85.2344407660047
20
38.0991826851675
30
0
0
VERTEX
8
0
10
85.9109045816079
20
38.274251439875
30
0
0
VERTEX
8
0
10
86.5873683972111
20
38.4505975835737
30
0
0
VERTEX
8
0
10
87.2638322128144
20
38.6451715337072
30
0
0
VERTEX
8
0
10
87.9402960284175
20
38.8355809078461
30
0
0
VERTEX
8
0
10
88.6167598440208
20
39.0269814545699
30
0
0
VERTEX
8
0
10
89.293223659624
20
39.2193586623507
30
0
0
VERTEX
8
0
10
89.9696874752272
20
39.2670699865072
30
0
0
VERTEX
8
0
10
90.6461512908304
20
39.33954466553
30
0
0
VERTEX
8
0
10
91.3226151064336
20
39.4128295165613
30
0
0
VERTEX
8
0
10
91.9990789220368
20
39.4869200287404
30
0
0
VERTEX
8
0
10
92.67554273764
20
39.5927943559817
30
0
0
VERTEX
8
0
10
93.3520065532433
20
39.6880620800013
30
0
0
VERTEX
8
0
10
94.0284703688465
20
39.7838816622673
30
0
0
VERTEX
8
0
10
94.7049341844497
20
39.8861594308625
30
0
0
VERTEX
8
0
10
95.3813980000529
20
39.9940374857949
30
0
0
VERTEX
8
0
10
96.0578618156561
20
40.1023938673096
30
0
0
VERTEX
8
0
10
96.7343256312593
20
40.2112247085956
30
0
0
VERTEX
8
0
10
97.4107894468625
20
40.2942629958802
30
0
0
VERTEX
8
0
10
98.0872532624657
20
40.3628461430807
30
0
0
VERTEX
8
0
10
98.763717078069
20
40.432146487484
30
0
0
VERTEX
8
0
10
99.4401808936722
20
40.5021603476561
30
0
0
VERTEX
8
0
10
100.116644709275
20
40.5980633422077
30
0
0
VERTEX
8
0
10
100.793108524879
20
40.7036848966357
30
0
0
VERTEX
8
0
10
101.469572340482
20
40.8097902482858
30
0
0
VERTEX
8
0
10
102.146036156085
20
40.9163756333738
30
0
0
VERTEX
8
0
10
102.822499971688
20
41.0287291770203
30
0
0
VERTEX
8
0
10
103.498963787291
20
41.1452951692505
30
0
0
VERTEX
8
0
10
104.175427602895
20
41.2614437485082
30
0
0
VERTEX
8
0
10
104.851891418498
20
41.3780350403079
30
0
0
VERTEX
8
0
10
105.528355234101
20
41.4559169500305
30
0
0
VERTEX
8
0
10
106.204819049704
20
41.5300113001177
30
0
0
VERTEX
8
0
10
106.881282865307
20
41.6047603281073
30
0
0
VERTEX
8
0
10
107.557746680911
20
41.6801605117094
30
0
0
VERTEX
8
0
10
108.234210496514
20
41.791458857008
30
0
0
VERTEX
8
0
10
108.910674312117
20
41.902951890282
30
0
0
VERTEX
8
0
10
109.58713812772
20
42.0148845025113
30
0
0
VERTEX
8
0
10
110.263601943324
20
42.1272531897966
30
0
0
VERTEX
8
0
10
110.940065758927
20
42.2321145069557
30
0
0
VERTEX
8
0
10
111.61652957453
20
42.3408168870954
30
0
0
VERTEX
8
0
10
112.292993390133
20
42.4500779565363
30
0
0
VERTEX
8
0
10
112.969457205736
20
42.5598934124256
30
0
0
VERTEX
8
0
10
113.64592102134
20
42.6335662232789
30
0
0
VERTEX
8
0
10
114.322384836943
20
42.7053181653074
30
0
0
VERTEX
8
0
10
114.998848652546
20
42.7774530225298
30
0
0
VERTEX
8
0
10
115.675312468149
20
42.8499688611149
30
0
0
VERTEX
8
0
10
116.351776283752
20
43.0089172585264
30
0
0
VERTEX
8
0
10
117.028240099356
20
43.1791734562041
30
0
0
VERTEX
8
0
10
117.704703914959
20
43.3509838200148
30
0
0
VERTEX
8
0
10
118.381167730562
20
43.5243299449566
30
0
0
VERTEX
8
0
10
119.057631546165
20
43.6096750510788
30
0
0
VERTEX
8
0
10
119.734095361769
20
43.6961730641719
30
0
0
VERTEX
8
0
10
120.410559177372
20
43.7831377286328
30
0
0
VERTEX
8
0
10
121.087022992975
20
43.871560100285
30
0
0
VERTEX
8
0
10
121.763486808578
20
43.9943644971884
30
0
0
VERTEX
8
0
10
122.439950624181
20
44.1132499714428
30
0
0
VERTEX
8
0
10
123.116414439785
20
44.2327623402828
30
0
0
VERTEX
8
0
10
123.792878255388
20
44.3517329348558
30
0
0
VERTEX
8
0
10
124.469342070991
20
44.4731914800071
30
0
0
VERTEX
8
0
10
125.145805886594
20
44.5947606845001
30
0
0
VERTEX
8
0
10
125.822269702197
20
44.7169659748486
30
0
0
VERTEX
8
0
10
126.498733517801
20
44.8318405846663
30
0
0
VERTEX
8
0
10
127.175197333404
20
44.9441889396362
30
0
0
VERTEX
8
0
10
127.851661149007
20
45.0572543366333
30
0
0
VERTEX
8
0
10
128.52812496461
20
45.1710313912796
30
0
0
VERTEX
8
0
10
129.204588780213
20
45.2958933591935
30
0
0
VERTEX
8
0
10
129.881052595817
20
45.4207275252737
30
0
0
VERTEX
8
0
10
130.55751641142
20
45.5470921240723
30
0
0
VERTEX
8
0
10
131.233980227023
20
45.6740236750574
30
0
0
VERTEX
8
0
10
131.910444042626
20
45.8014399345241
30
0
0
VERTEX
8
0
10
132.58690785823
20
45.9234278763014
30
0
0
VERTEX
8
0
10
133.263371673833
20
46.0458196460535
30
0
0
VERTEX
8
0
10
133.939835489436
20
46.1686120321688
30
0
0
VERTEX
8
0
10
134.616299305039
20
46.2588577858222
30
0
0
VERTEX
8
0
10
135.292763120642
20
46.3227252230281
30
0
0
VERTEX
8
0
10
135.969226936246
20
46.3866543192569
30
0
0
VERTEX
8
0
10
136.645690751849
20
46.4506448199282
30
0
0
VERTEX
8
0
10
137.322154567452
20
46.4985247690683
30
0
0
VERTEX
8
0
10
137.998618383055
20
46.5409833973475
30
0
0
VERTEX
8
0
10
138.675082198658
20
46.583469085829
30
0
0
VERTEX
8
0
10
139.351546014262
20
46.6259817605408
30
0
0
VERTEX
8
0
10
140.028009829865
20
46.6685213477336
30
0
0
VERTEX
8
0
10
140.704473645468
20
46.7110877738802
30
0
0
VERTEX
8
0
10
141.380937461071
20
46.7536809656748
30
0
0
VERTEX
8
0
10
142.057401276674
20
46.7963008500326
30
0
0
VERTEX
8
0
10
142.733865092278
20
46.8389473540888
30
0
0
VERTEX
8
0
10
143.410328907881
20
46.8816204051986
30
0
0
VERTEX
8
0
10
144.086792723484
20
46.9243199309362
30
0
0
VERTEX
8
0
10
144.763256539087
20
46.9670458590944
30
0
0
VERTEX
8
0
10
145.43972035469
20
47.0097981176837
30
0
0
VERTEX
8
0
10
146.116184170294
20
47.0525766349322
30
0
0
VERTEX
8
0
10
146.792647985897
20
47.0953813392847
30
0
0
VERTEX
8
0
10
147.4691118015
20
47.1382121594022
30
0
0
VERTEX
8
0
10
148.145575617103
20
47.1810690241613
30
0
0
VERTEX
8
0
10
148.822039432706
20
47.2239518626536
30
0
0
VERTEX
8
0
10
149.49850324831
20
47.2668606041851
30
0
0
VERTEX
8
0
10
150.174967063913
20
47.3097951782756
30
0
0
VERTEX
8
0
10
150.851430879516
20
47.3527555146584
30
0
0
VERTEX
8
0
10
151.527894695119
20
47.3957415432791
30
0
0
VERTEX
8
0
10
152.204358510722
20
47.4387531942958
30
0
0
VERTEX
8
0
10
152.880822326326
20
47.4817903980779
30
0
0
VERTEX
8
0
10
153.557286141929
20
47.5171464319943
30
0
0
VERTEX
8
0
10
154.233749957532
20
47.5544548473755
30
0
0
VERTEX
8
0
10
154.910213773135
20
47.5917824086389
30
0
0
SEQEND
8
0
0
POLYLINE
8
0
62
2
70
0
10
0
20
0
30
0
0
VERTEX
8
0
10
23.6762335461124
20
19.1412803651498
30
0
0
VERTEX
8
0
10
24.3526973617156
20
19.3386094243093
30
0
0
VERTEX
8
0
10
25.0291611773188
20
19.5364926266869
30
0
0
VERTEX
8
0
10
25.705624992922
20
19.734913303004
30
0
0
VERTEX
8
0
10
26.3820888085253
20
19.936334723044
30
0
0
VERTEX
8
0
10
27.0585526241285
20
20.1382947725769
30
0
0
VERTEX
8
0
10
27.7350164397317
20
20.3407578501635
30
0
0
VERTEX
8
0
10
28.4114802553349
20
20.5437090834304
30
0
0
VERTEX
8
0
10
29.0879440709381
20
20.7553851738592
30
0
0
VERTEX
8
0
10
29.7644078865413
20
20.9668770935367
30
0
0
VERTEX
8
0
10
30.4408717021445
20
21.1788482667093
30
0
0
VERTEX
8
0
10
31.1173355177477
20
21.3912844462813
30
0
0
VERTEX
8
0
10
31.793799333351
20
21.5951011258081
30
0
0
VERTEX
8
0
10
32.4702631489542
20
21.8007560907668
30
0
0
VERTEX
8
0
10
33.1467269645574
20
22.0068075612565
30
0
0
VERTEX
8
0
10
33.8231907801606
20
22.2132445032482
30
0
0
VERTEX
8
0
10
34.4996545957638
20
22.4299477775423
30
0
0
VERTEX
8
0
10
35.176118411367
20
22.6448494310157
30
0
0
VERTEX
8
0
10
35.8525822269702
20
22.8601314893871
30
0
0
VERTEX
8
0
10
36.5290460425734
20
23.0757833058678
30
0
0
VERTEX
8
0
10
37.2055098581766
20
23.2810771226973
30
0
0
VERTEX
8
0
10
37.8819736737799
20
23.489662084106
30
0
0
VERTEX
8
0
10
38.5584374893831
20
23.6985640297431
30
0
0
VERTEX
8
0
10
39.2349013049863
20
23.9077746503522
30
0
0
VERTEX
8
0
10
39.9113651205895
20
24.1338409369637
30
0
0
VERTEX
8
0
10
40.5878289361927
20
24.3550850471117
30
0
0
VERTEX
8
0
10
41.2642927517959
20
24.5766242382169
30
0
0
VERTEX
8
0
10
41.9407565673991
20
24.7908981141173
30
0
0
VERTEX
8
0
10
42.6172203830023
20
25.0134106095434
30
0
0
VERTEX
8
0
10
43.2936841986056
20
25.23353402286
30
0
0
VERTEX
8
0
10
43.9701480142088
20
25.4537516316365
30
0
0
VERTEX
8
0
10
44.646611829812
20
25.670519519022
30
0
0
VERTEX
8
0
10
45.3230756454152
20
25.9367055768724
30
0
0
VERTEX
8
0
10
45.9995394610184
20
26.1905788595787
30
0
0
VERTEX
8
0
10
46.6760032766216
20
26.4445661702895
30
0
0
VERTEX
8
0
10
47.3524670922248
20
26.6966450151258
30
0
0
VERTEX
8
0
10
48.028930907828
20
26.9482485471674
30
0
0
VERTEX
8
0
10
48.7053947234313
20
27.1999607018142
30
0
0
VERTEX
8
0
10
49.3818585390345
20
27.4517784911036
30
0
0
VERTEX
8
0
10
50.0583223546377
20
27.701431822328
30
0
0
VERTEX
8
0
10
50.7347861702409
20
27.9508583142546
30
0
0
VERTEX
8
0
10
51.4112499858441
20
28.2003859653141
30
0
0
VERTEX
8
0
10
52.0877138014473
20
28.4500121137854
30
0
0
VERTEX
8
0
10
52.7641776170505
20
28.7003824605987
30
0
0
VERTEX
8
0
10
53.4406414326537
20
28.951258198636
30
0
0
VERTEX
8
0
10
54.117105248257
20
29.2022342532011
30
0
0
VERTEX
8
0
10
54.7935690638602
20
29.4533080598576
30
0
0
VERTEX
8
0
10
55.4700328794634
20
29.7092305468101
30
0
0
VERTEX
8
0
10
56.1464966950666
20
29.964570568049
30
0
0
VERTEX
8
0
10
56.8229605106698
20
30.2199856566514
30
0
0
VERTEX
8
0
10
57.499424326273
20
30.4754739251976
30
0
0
VERTEX
8
0
10
58.1758881418762
20
30.7250255809793
30
0
0
VERTEX
8
0
10
58.8523519574794
20
30.9755110997013
30
0
0
VERTEX
8
0
10
59.5288157730826
20
31.2260710211243
30
0
0
VERTEX
8
0
10
60.2052795886859
20
31.4767035684741
30
0
0
VERTEX
8
0
10
60.8817434042891
20
31.7316579259048
30
0
0
VERTEX
8
0
10
61.5582072198923
20
31.9861060874273
30
0
0
VERTEX
8
0
10
62.2346710354955
20
32.2406261085656
30
0
0
VERTEX
8
0
10
62.9111348510987
20
32.4952163007902
30
0
0
VERTEX
8
0
10
63.5875986667019
20
32.7452584198785
30
0
0
VERTEX
8
0
10
64.2640624823051
20
32.9963001250554
30
0
0
VERTEX
8
0
10
64.9405262979083
20
33.2474033195607
30
0
0
VERTEX
8
0
10
65.6169901135116
20
33.4985666206339
30
0
0
VERTEX
8
0
10
66.2934539291148
20
33.71026576035
30
0
0
VERTEX
8
0
10
66.969917744718
20
33.9409521582864
30
0
0
VERTEX
8
0
10
67.6463815603212
20
34.1720572347733
30
0
0
VERTEX
8
0
10
68.3228453759244
20
34.3256253815974
30
0
0
VERTEX
8
0
10
68.9993091915276
20
34.4581738794438
30
0
0
VERTEX
8
0
10
69.6757730071308
20
34.5859132010305
30
0
0
VERTEX
8
0
10
70.352236822734
20
34.715471568195
30
0
0
VERTEX
8
0
10
71.0287006383373
20
34.8419022086503
30
0
0
VERTEX
8
0
10
71.7051644539405
20
34.9692101962769
30
0
0
VERTEX
8
0
10
72.3816282695437
20
35.0979925382266
30
0
0
VERTEX
8
0
10
73.0580920851469
20
35.2286030536266
30
0
0
VERTEX
8
0
10
73.7345559007501
20
35.370318748754
30
0
0
VERTEX
8
0
10
74.4110197163533
20
35.5149184327151
30
0
0
VERTEX
8
0
10
75.0874835319565
20
35.6616834079413
30
0
0
VERTEX
8
0
10
75.7639473475597
20
35.8100692892332
30
0
0
VERTEX
8
0
10
76.4404111631629
20
35.9849001064525
30
0
0
VERTEX
8
0
10
77.1168749787662
20
36.1696222299612
30
0
0
VERTEX
8
0
10
77.7933387943694
20
36.3543816105869
30
0
0
VERTEX
8
0
10
78.4698026099726
20
36.5405272816001
30
0
0
VERTEX
8
0
10
79.1462664255758
20
36.6876501308688
30
0
0
VERTEX
8
0
10
79.822730241179
20
36.8331416038062
30
0
0
VERTEX
8
0
10
80.4991940567822
20
36.9802079018154
30
0
0
VERTEX
8
0
10
81.1756578723854
20
37.128830311382
30
0
0
VERTEX
8
0
10
81.8521216879886
20
37.2810707200579
30
0
0
VERTEX
8
0
10
82.5285855035919
20
37.4358050448246
30
0
0
VERTEX
8
0
10
83.2050493191951
20
37.5920993964169
30
0
0
VERTEX
8
0
10
83.8815131347983
20
37.7499343981136
30
0
0
VERTEX
8
0
10
84.5579769504015
20
37.9254090092498
30
0
0
VERTEX
8
0
10
85.2344407660047
20
38.0991826851675
30
0
0
VERTEX
8
0
10
85.9109045816079
20
38.274251439875
30
0
0
VERTEX
8
0
10
86.5873683972111
20
38.4505975835737
30
0
0
VERTEX
8
0
10
87.2638322128144
20
38.6451715337072
30
0
0
VERTEX
8
0
10
87.9402960284175
20
38.8355809078461
30
0
0
VERTEX
8
0
10
88.6167598440208
20
39.0269814545699
30
0
0
VERTEX
8
0
10
89.293223659624
20
39.2193586623508
30
0
0
VERTEX
8
0
10
89.9696874752272
20
39.2670699865072
30
0
0
VERTEX
8
0
10
90.6461512908304
20
39.33954466553
30
0
0
VERTEX
8
0
10
91.3226151064336
20
39.4128295165613
30
0
0
VERTEX
8
0
10
91.9990789220368
20
39.4869200287404
30
0
0
VERTEX
8
0
10
92.67554273764
20
39.5927943559817
30
0
0
VERTEX
8
0
10
93.3520065532433
20
39.6880620800013
30
0
0
VERTEX
8
0
10
94.0284703688465
20
39.7838816622673
30
0
0
VERTEX
8
0
10
94.7049341844497
20
39.8861594308625
30
0
0
VERTEX
8
0
10
95.3813980000529
20
39.9940374857949
30
0
0
VERTEX
8
0
10
96.0578618156561
20
40.1023938673096
30
0
0
VERTEX
8
0
10
96.7343256312593
20
40.2112247085956
30
0
0
VERTEX
8
0
10
97.4107894468625
20
40.2942629958802
30
0
0
VERTEX
8
0
10
98.0872532624657
20
40.3628461430807
30
0
0
VERTEX
8
0
10
98.763717078069
20
40.432146487484
30
0
0
VERTEX
8
0
10
99.4401808936722
20
40.5021603476561
30
0
0
VERTEX
8
0
10
100.116644709275
20
40.5980633422077
30
0
0
VERTEX
8
0
10
100.793108524879
20
40.7036848966357
30
0
0
VERTEX
8
0
10
101.469572340482
20
40.8097902482858
30
0
0
VERTEX
8
0
10
102.146036156085
20
40.9163756333738
30
0
0
VERTEX
8
0
10
102.822499971688
20
41.0287291770203
30
0
0
VERTEX
8
0
10
103.498963787291
20
41.1452951692505
30
0
0
VERTEX
8
0
10
104.175427602895
20
41.2614437485082
30
0
0
VERTEX
8
0
10
104.851891418498
20
41.3780350403079
30
0
0
VERTEX
8
0
10
105.528355234101
20
41.4559169500305
30
0
0
VERTEX
8
0
10
106.204819049704
20
41.5300113001177
30
0
0
VERTEX
8
0
10
106.881282865307
20
41.6047603281073
30
0
0
VERTEX
8
0
10
107.557746680911
20
41.6801605117094
30
0
0
VERTEX
8
0
10
108.234210496514
20
41.791458857008
30
0
0
VERTEX
8
0
10
108.910674312117
20
41.902951890282
30
0
0
VERTEX
8
0
10
109.58713812772
20
42.0148845025113
30
0
0
VERTEX
8
0
10
110.263601943324
20
42.1272531897966
30
0
0
VERTEX
8
0
10
110.940065758927
20
42.2321145069557
30
0
0
VERTEX
8
0
10
111.61652957453
20
42.3408168870954
30
0
0
VERTEX
8
0
10
112.292993390133
20
42.4500779565363
30
0
0
VERTEX
8
0
10
112.969457205736
20
42.5598934124256
30
0
0
VERTEX
8
0
10
113.64592102134
20
42.6335662232789
30
0
0
VERTEX
8
0
10
114.322384836943
20
42.7053181653074
30
0
0
VERTEX
8
0
10
114.998848652546
20
42.7774530225298
30
0
0
VERTEX
8
0
10
115.675312468149
20
42.8499688611149
30
0
0
VERTEX
8
0
10
116.351776283752
20
43.0089172585264
30
0
0
VERTEX
8
0
10
117.028240099356
20
43.1791734562041
30
0
0
VERTEX
8
0
10
117.704703914959
20
43.3509838200148
30
0
0
VERTEX
8
0
10
118.381167730562
20
43.5243299449566
30
0
0
VERTEX
8
0
10
119.057631546165
20
43.6096750510788
30
0
0
VERTEX
8
0
10
119.734095361769
20
43.6961730641719
30
0
0
VERTEX
8
0
10
120.410559177372
20
43.7831377286328
30
0
0
VERTEX
8
0
10
121.087022992975
20
43.871560100285
30
0
0
VERTEX
8
0
10
121.763486808578
20
43.9943644971884
30
0
0
VERTEX
8
0
10
122.439950624181
20
44.1132499714428
30
0
0
VERTEX
8
0
10
123.116414439785
20
44.2327623402828
30
0
0
VERTEX
8
0
10
123.792878255388
20
44.3517329348558
30
0
0
VERTEX
8
0
10
124.469342070991
20
44.4731914800071
30
0
0
VERTEX
8
0
10
125.145805886594
20
44.5947606845001
30
0
0
VERTEX
8
0
10
125.822269702197
20
44.7169659748486
30
0
0
VERTEX
8
0
10
126.498733517801
20
44.8318405846663
30
0
0
VERTEX
8
0
10
127.175197333404
20
44.9441889396362
30
0
0
VERTEX
8
0
10
127.851661149007
20
45.0572543366333
30
0
0
VERTEX
8
0
10
128.52812496461
20
45.1710313912796
30
0
0
VERTEX
8
0
10
129.204588780213
20
45.2958933591935
30
0
0
VERTEX
8
0
10
129.881052595817
20
45.4207275252737
30
0
0
VERTEX
8
0
10
130.55751641142
20
45.5470921240723
30
0
0
VERTEX
8
0
10
131.233980227023
20
45.6740236750574
30
0
0
VERTEX
8
0
10
131.910444042626
20
45.8014399345241
30
0
0
VERTEX
8
0
10
132.58690785823
20
45.9234278763014
30
0
0
VERTEX
8
0
10
133.263371673833
20
46.0458196460535
30
0
0
VERTEX
8
0
10
133.939835489436
20
46.1686120321688
30
0
0
VERTEX
8
0
10
134.616299305039
20
46.2588577858222
30
0
0
VERTEX
8
0
10
135.292763120642
20
46.3227252230281
30
0
0
VERTEX
8
0
10
135.969226936246
20
46.3866543192569
30
0
0
VERTEX
8
0
10
136.645690751849
20
46.4506448199282
30
0
0
VERTEX
8
0
10
137.322154567452
20
46.4985247690683
30
0
0
VERTEX
8
0
10
137.998618383055
20
46.5409833973475
30
0
0
VERTEX
8
0
10
138.675082198658
20
46.583469085829
30
0
0
VERTEX
8
0
10
139.351546014262
20
46.6259817605408
30
0
0
VERTEX
8
0
10
140.028009829865
20
46.6685213477336
30
0
0
VERTEX
8
0
10
140.704473645468
20
46.7110877738802
30
0
0
VERTEX
8
0
10
141.380937461071
20
46.7536809656748
30
0
0
VERTEX
8
0
10
142.057401276674
20
46.7963008500326
30
0
0
VERTEX
8
0
10
142.733865092278
20
46.8389473540888
30
0
0
VERTEX
8
0
10
143.410328907881
20
46.8816204051986
30
0
0
VERTEX
8
0
10
144.086792723484
20
46.9243199309362
30
0
0
VERTEX
8
0
10
144.763256539087
20
46.9670458590944
30
0
0
VERTEX
8
0
10
145.43972035469
20
47.0097981176837
30
0
0
VERTEX
8
0
10
146.116184170294
20
47.0525766349322
30
0
0
VERTEX
8
0
10
146.792647985897
20
47.0953813392847
30
0
0
VERTEX
8
0
10
147.4691118015
20
47.1382121594022
30
0
0
VERTEX
8
0
10
148.145575617103
20
47.1810690241613
30
0
0
VERTEX
8
0
10
148.822039432706
20
47.2239518626536
30
0
0
VERTEX
8
0
10
149.49850324831
20
47.2668606041851
30
0
0
VERTEX
8
0
10
150.174967063913
20
47.3097951782756
30
0
0
VERTEX
8
0
10
150.851430879516
20
47.3527555146584
30
0
0
VERTEX
8
0
10
151.527894695119
20
47.3957415432792
30
0
0
VERTEX
8
0
10
152.204358510722
20
47.4387531942958
30
0
0
VERTEX
8
0
10
152.880822326326
20
47.4817903980779
30
0
0
VERTEX
8
0
10
153.557286141929
20
47.5171464319943
30
0
0
VERTEX
8
0
10
154.233749957532
20
47.5544548473755
30
0
0
VERTEX
8
0
10
154.910213773135
20
47.5917824086389
30
0
0
SEQEND
8
0
0
POLYLINE
8
0
62
3
70
0
10
0
20
0
30
0
0
VERTEX
8
0
10
23.6762335461124
20
28.9392981033775
30
0
0
VERTEX
8
0
10
24.3526973617156
20
29.6431972613622
30
0
0
VERTEX
8
0
10
25.0291611773188
20
30.3418331261915
30
0
0
VERTEX
8
0
10
25.705624992922
20
31.0352554012117
30
0
0
VERTEX
8
0
10
26.3820888085253
20
31.7235128646535
30
0
0
VERTEX
8
0
10
27.0585526241285
20
32.4066535042972
30
0
0
VERTEX
8
0
10
27.7350164397317
20
33.0847246365121
30
0
0
VERTEX
8
0
10
28.4114802553349
20
33.7577730114269
30
0
0
VERTEX
8
0
10
29.0879440709381
20
34.4258449059418
30
0
0
VERTEX
8
0
10
29.7644078865413
20
35.0889862059916
30
0
0
VERTEX
8
0
10
30.4408717021445
20
35.7472424793433
30
0
0
VERTEX
8
0
10
31.1173355177477
20
36.4006590399236
30
0
0
VERTEX
8
0
10
31.793799333351
20
37.0492810046546
30
0
0
VERTEX
8
0
10
32.4702631489542
20
37.693153343534
30
0
0
VERTEX
8
0
10
33.1467269645574
20
38.3323209237402
30
0
0
VERTEX
8
0
10
33.8231907801606
20
38.9668285484131
30
0
0
VERTEX
8
0
10
34.4996545957638
20
39.5967209905095
30
0
0
VERTEX
8
0
10
35.176118411367
20
40.2220430223389
30
0
0
VERTEX
8
0
10
35.8525822269702
20
40.8428394411708
30
0
0
VERTEX
8
0
10
36.5290460425734
20
41.459155091252
30
0
0
VERTEX
8
0
10
37.2055098581766
20
42.0710348826635
30
0
0
VERTEX
8
0
10
37.8819736737799
20
42.6785238071268
30
0
0
VERTEX
8
0
10
38.5584374893831
20
43.2816669512681
30
0
0
VERTEX
8
0
10
39.2349013049863
20
43.8805095073725
30
0
0
VERTEX
8
0
10
39.9113651205895
20
44.4750967819144
30
0
0
VERTEX
8
0
10
40.5878289361927
20
45.0654742021096
30
0
0
VERTEX
8
0
10
41.2642927517959
20
45.6516873205538
30
0
0
VERTEX
8
0
10
41.9407565673991
20
46.2337818181782
30
0
0
VERTEX
8
0
10
42.6172203830023
20
46.8118035056209
30
0
0
VERTEX
8
0
10
43.2936841986056
20
47.3857983231903
30
0
0
VERTEX
8
0
10
43.9701480142088
20
47.9558123394783
30
0
0
VERTEX
8
0
10
44.646611829812
20
48.5218917487133
30
0
0
VERTEX
8
0
10
45.3230756454152
20
49.0840828670874
30
0
0
VERTEX
8
0
10
45.9995394610184
20
49.6424321279689
30
0
0
VERTEX
8
0
10
46.6760032766216
20
50.1969860761388
30
0
0
VERTEX
8
0
10
47.3524670922248
20
50.7477913612395
30
0
0
VERTEX
8
0
10
48.028930907828
20
51.2948947303413
30
0
0
VERTEX
8
0
10
48.7053947234313
20
51.8383430197542
30
0
0
VERTEX
8
0
10
49.3818585390345
20
52.3781831462027
30
0
0
VERTEX
8
0
10
50.0583223546377
20
52.9144620972916
30
0
0
VERTEX
8
0
10
50.7347861702409
20
53.4472269215172
30
0
0
VERTEX
8
0
10
51.4112499858441
20
53.976524717579
30
0
0
VERTEX
8
0
10
52.0877138014473
20
54.5024026233663
30
0
0
VERTEX
8
0
10
52.7641776170505
20
55.0249078044223
30
0
0
VERTEX
8
0
10
53.4406414326537
20
55.5440874420178
30
0
0
VERTEX
8
0
10
54.117105248257
20
56.0599887209002
30
0
0
VERTEX
8
0
10
54.7935690638602
20
56.5726588167256
30
0
0
VERTEX
8
0
10
55.4700328794634
20
57.0821448831971
30
0
0
VERTEX
8
0
10
56.1464966950666
20
57.588494038961
30
0
0
VERTEX
8
0
10
56.8229605106698
20
58.0917533543601
30
0
0
VERTEX
8
0
10
57.499424326273
20
58.5919698379851
30
0
0
VERTEX
8
0
10
58.1758881418762
20
59.0891904230967
30
0
0
VERTEX
8
0
10
58.8523519574794
20
59.5834619539604
30
0
0
VERTEX
8
0
10
59.5288157730826
20
60.0748311721863
30
0
0
VERTEX
8
0
10
60.2052795886859
20
60.5633447029989
30
0
0
VERTEX
8
0
10
60.8817434042891
20
61.0490490415731
30
0
0
VERTEX
8
0
10
61.5582072198923
20
61.5319905394229
30
0
0
VERTEX
8
0
10
62.2346710354955
20
62.0122153908829
30
0
0
VERTEX
8
0
10
62.9111348510987
20
62.4897696198006
30
0
0
VERTEX
8
0
10
63.5875986667019
20
62.9646990663528
30
0
0
VERTEX
8
0
10
64.2640624823051
20
63.4370493741924
30
0
0
VERTEX
8
0
10
64.9405262979083
20
63.906865977772
30
0
0
VERTEX
8
0
10
65.6169901135116
20
64.3741940901387
30
0
0
VERTEX
8
0
10
66.2934539291148
20
64.8390786910305
30
0
0
VERTEX
8
0
10
66.969917744718
20
65.3015645154556
30
0
0
VERTEX
8
0
10
67.6463815603212
20
65.761696042844
30
0
0
VERTEX
8
0
10
68.3228453759244
20
66.2195174866999
30
0
0
VERTEX
8
0
10
68.9993091915276
20
66.675072784981
30
0
0
VERTEX
8
0
10
69.6757730071308
20
67.1284055911414
30
0
0
VERTEX
8
0
10
70.352236822734
20
67.5795592661138
30
0
0
VERTEX
8
0
10
71.0287006383373
20
68.0285768710617
30
0
0
VERTEX
8
0
10
71.7051644539405
20
68.4755011612493
30
0
0
VERTEX
8
0
10
72.3816282695437
20
68.9203745810322
30
0
0
VERTEX
8
0
10
73.0580920851469
20
69.3632392600332
30
0
0
VERTEX
8
0
10
73.7345559007501
20
69.8041370107853
30
0
0
VERTEX
8
0
10
74.4110197163533
20
70.2431093278622
30
0
0
VERTEX
8
0
10
75.0874835319565
20
70.6801973887667
30
0
0
VERTEX
8
0
10
75.7639473475597
20
71.1154420566635
30
0
0
VERTEX
8
0
10
76.4404111631629
20
71.548883885294
30
0
0
VERTEX
8
0
10
77.1168749787662
20
71.980563126193
30
0
0
VERTEX
8
0
10
77.7933387943694
20
72.4105197385842
30
0
0
VERTEX
8
0
10
78.4698026099726
20
72.8387934021895
30
0
0
VERTEX
8
0
10
79.1462664255758
20
73.2654235333392
30
0
0
VERTEX
8
0
10
79.822730241179
20
73.6904493048215
30
0
0
VERTEX
8
0
10
80.4991940567822
20
74.1139096698648
30
0
0
VERTEX
8
0
10
81.1756578723854
20
74.5358433908635
30
0
0
VERTEX
8
0
10
81.8521216879886
20
74.9562890734616
30
0
0
VERTEX
8
0
10
82.5285855035919
20
75.37528520665
30
0
0
VERTEX
8
0
10
83.2050493191951
20
75.7928702098723
30
0
0
VERTEX
8
0
10
83.8815131347983
20
76.2090824880038
30
0
0
VERTEX
8
0
10
84.5579769504015
20
76.6239604954897
30
0
0
VERTEX
8
0
10
85.2344407660047
20
77.0375428109683
30
0
0
VERTEX
8
0
10
85.9109045816079
20
77.4498682241551
30
0
0
VERTEX
8
0
10
86.5873683972111
20
77.8609758368898
30
0
0
VERTEX
8
0
10
87.2638322128144
20
78.2709051808867
30
0
0
VERTEX
8
0
10
87.9402960284175
20
78.6796963550214
30
0
0
VERTEX
8
0
10
88.6167598440208
20
79.0873901859173
30
0
0
VERTEX
8
0
10
89.293223659624
20
79.4940284160937
30
0
0
VERTEX
8
0
10
89.9696874752272
20
79.899653925313
30
0
0
VERTEX
8
0
10
90.6461512908304
20
80.3043109919447
30
0
0
VERTEX
8
0
10
91.3226151064336
20
80.7080456030778
30
0
0
VERTEX
8
0
10
91.9990789220368
20
81.1109058242516
30
0
0
VERTEX
8
0
10
92.67554273764
20
81.5129422432678
30
0
0
VERTEX
8
0
10
93.3520065532433
20
81.9142085062502
30
0
0
VERTEX
8
0
10
94.0284703688465
20
82.3147619702973
30
0
0
VERTEX
8
0
10
94.7049341844497
20
82.7146645050177
30
0
0
VERTEX
8
0
10
95.3813980000529
20
83.1139834865113
30
0
0
VERTEX
8
0
10
96.0578618156561
20
83.5127930437154
30
0
0
VERTEX
8
0
10
96.7343256312593
20
83.9111756407905
30
0
0
VERTEX
8
0
10
97.4107894468625
20
84.3092241148645
30
0
0
VERTEX
8
0
10
98.0872532624657
20
84.7070443429987
30
0
0
VERTEX
8
0
10
98.763717078069
20
85.1047587985255
30
0
0
VERTEX
8
0
10
99.4401808936722
20
85.5025113971113
30
0
0
VERTEX
8
0
10
100.116644709275
20
85.9004742705666
30
0
0
VERTEX
8
0
10
100.793108524879
20
86.2988575262179
30
0
0
VERTEX
8
0
10
101.469572340482
20
86.6979238317558
30
0
0
VERTEX
8
0
10
102.146036156085
20
87.0980112172903
30
0
0
VERTEX
8
0
10
102.822499971688
20
87.4995708072333
30
0
0
VERTEX
8
0
10
103.498963787291
20
87.9032339412648
30
0
0
VERTEX
8
0
10
104.175427602895
20
88.3099425251922
30
0
0
VERTEX
8
0
10
104.851891418498
20
88.721220887962
30
0
0
VERTEX
8
0
10
105.528355234101
20
89.1396445176373
30
0
0
VERTEX
8
0
10
106.204819049704
20
89.5676883908719
30
0
0
VERTEX
8
0
10
106.881282865307
20
89.9966692672784
30
0
0
VERTEX
8
0
10
107.557746680911
20
90.4111310316085
30
0
0
VERTEX
8
0
10
108.234210496514
20
90.8104098343075
30
0
0
VERTEX
8
0
10
108.910674312117
20
91.1977247035045
30
0
0
VERTEX
8
0
10
109.58713812772
20
91.5751523675894
30
0
0
VERTEX
8
0
10
110.263601943324
20
91.9439422507084
30
0
0
VERTEX
8
0
10
110.940065758927
20
92.3049098363367
30
0
0
VERTEX
8
0
10
111.61652957453
20
92.6586280079199
30
0
0
VERTEX
8
0
10
112.292993390133
20
93.0055217743557
30
0
0
VERTEX
8
0
10
112.969457205736
20
93.3459195412337
30
0
0
VERTEX
8
0
10
113.64592102134
20
93.6800831989819
30
0
0
VERTEX
8
0
10
114.322384836943
20
94.0082269536573
30
0
0
VERTEX
8
0
10
114.998848652546
20
94.3305297299915
30
0
0
VERTEX
8
0
10
115.675312468149
20
94.6471436865715
30
0
0
VERTEX
8
0
10
116.351776283752
20
94.9582002681196
30
0
0
VERTEX
8
0
10
117.028240099356
20
95.2638146374683
30
0
0
VERTEX
8
0
10
117.704703914959
20
95.5640890084879
30
0
0
VERTEX
8
0
10
118.381167730562
20
95.8591152149915
30
0
0
VERTEX
8
0
10
119.057631546165
20
96.1489767386519
30
0
0
VERTEX
8
0
10
119.734095361769
20
96.4337503496225
30
0
0
VERTEX
8
0
10
120.410559177372
20
96.7135074693154
30
0
0
VERTEX
8
0
10
121.087022992975
20
96.9883153368803
30
0
0
VERTEX
8
0
10
121.763486808578
20
97.2582380431234
30
0
0
VERTEX
8
0
10
122.439950624181
20
97.5233374855323
30
0
0
VERTEX
8
0
10
123.116414439785
20
97.7836742938307
30
0
0
VERTEX
8
0
10
123.792878255388
20
98.0393087768821
30
0
0
VERTEX
8
0
10
124.469342070991
20
98.2903019496525
30
0
0
VERTEX
8
0
10
125.145805886594
20
98.5367167155694
30
0
0
VERTEX
8
0
10
125.822269702197
20
98.7786193099754
30
0
0
VERTEX
8
0
10
126.498733517801
20
99.0160811639205
30
0
0
VERTEX
8
0
10
127.175197333404
20
99.2491814434806
30
0
0
VERTEX
8
0
10
127.851661149007
20
99.4780106977508
30
0
0
VERTEX
8
0
10
128.52812496461
20
99.7026763952163
30
0
0
VERTEX
8
0
10
129.204588780213
20
99.9233118401357
30
0
0
VERTEX
8
0
10
129.881052595817
20
100.140091477254
30
0
0
VERTEX
8
0
10
130.55751641142
20
100.353258667336
30
0
0
VERTEX
8
0
10
131.233980227023
20
100.563175432833
30
0
0
VERTEX
8
0
10
131.910444042626
20
100.770377758201
30
0
0
VERTEX
8
0
10
132.58690785823
20
100.975325011396
30
0
0
VERTEX
8
0
10
133.263371673833
20
101.17671311614
30
0
0
VERTEX
8
0
10
133.939835489436
20
101.371003142054
30
0
0
VERTEX
8
0
10
134.616299305039
20
101.556860057917
30
0
0
VERTEX
8
0
10
135.292763120642
20
101.734912801054
30
0
0
VERTEX
8
0
10
135.969226936246
20
101.905879766605
30
0
0
VERTEX
8
0
10
136.645690751849
20
102.070266041302
30
0
0
VERTEX
8
0
10
137.322154567452
20
102.228428156454
30
0
0
VERTEX
8
0
10
137.998618383055
20
102.380633920459
30
0
0
VERTEX
8
0
10
138.675082198658
20
102.527096252486
30
0
0
VERTEX
8
0
10
139.351546014262
20
102.667992055339
30
0
0
VERTEX
8
0
10
140.028009829865
20
102.80347332837
30
0
0
VERTEX
8
0
10
140.704473645468
20
102.933674113708
30
0
0
VERTEX
8
0
10
141.380937461071
20
103.058715070849
30
0
0
VERTEX
8
0
10
142.057401276674
20
103.17870662343
30
0
0
VERTEX
8
0
10
142.733865092278
20
103.293751203938
30
0
0
VERTEX
8
0
10
143.410328907881
20
103.403944904882
30
0
0
VERTEX
8
0
10
144.086792723484
20
103.509378725949
30
0
0
VERTEX
8
0
10
144.763256539087
20
103.610139538066
30
0
0
VERTEX
8
0
10
145.43972035469
20
103.706310844173
30
0
0
VERTEX
8
0
10
146.116184170294
20
103.797973390899
30
0
0
VERTEX
8
0
10
146.792647985897
20
103.885205668904
30
0
0
VERTEX
8
0
10
147.4691118015
20
103.968084328756
30
0
0
VERTEX
8
0
10
148.145575617103
20
104.046684531952
30
0
0
VERTEX
8
0
10
148.822039432706
20
104.121080251568
30
0
0
VERTEX
8
0
10
149.49850324831
20
104.191344533501
30
0
0
VERTEX
8
0
10
150.174967063913
20
104.257549726737
30
0
0
VERTEX
8
0
10
150.851430879516
20
104.319767689224
30
0
0
VERTEX
8
0
10
151.527894695119
20
104.378069974642
30
0
0
VERTEX
8
0
10
152.204358510722
20
104.432528004328
30
0
0
VERTEX
8
0
10
152.880822326326
20
104.483213227998
30
0
0
VERTEX
8
0
10
153.557286141929
20
104.530197276306
30
0
0
VERTEX
8
0
10
154.233749957532
20
104.573552108049
30
0
0
VERTEX
8
0
10
154.910213773135
20
104.613350154534
30
0
0
SEQEND
8
0
0
POLYLINE
8
0
62
4
70
0
10
0
20
0
30
0
0
VERTEX
8
0
10
23.6762335461124
20
30.0117924343815
30
0
0
VERTEX
8
0
10
24.3526973617156
20
30.6044485489928
30
0
0
VERTEX
8
0
10
25.0291611773188
20
31.1967305117619
30
0
0
VERTEX
8
0
10
25.705624992922
20
31.788484707528
30
0
0
VERTEX
8
0
10
26.3820888085253
20
32.3810968858983
30
0
0
VERTEX
8
0
10
27.0585526241285
20
32.9729072140615
30
0
0
VERTEX
8
0
10
27.7350164397317
20
33.5637861663141
30
0
0
VERTEX
8
0
10
28.4114802553349
20
34.1536265494657
30
0
0
VERTEX
8
0
10
29.0879440709381
20
34.7472580705684
30
0
0
VERTEX
8
0
10
29.7644078865413
20
35.3392132571301
30
0
0
VERTEX
8
0
10
30.4408717021445
20
35.9298202345279
30
0
0
VERTEX
8
0
10
31.1173355177477
20
36.5190059919518
30
0
0
VERTEX
8
0
10
31.793799333351
20
37.1014233625666
30
0
0
VERTEX
8
0
10
32.4702631489542
20
37.6831649055672
30
0
0
VERTEX
8
0
10
33.1467269645574
20
38.2633350494794
30
0
0
VERTEX
8
0
10
33.8231907801606
20
38.8418810923979
30
0
0
VERTEX
8
0
10
34.4996545957638
20
39.4243818062428
30
0
0
VERTEX
8
0
10
35.176118411367
20
40.0038827856687
30
0
0
VERTEX
8
0
10
35.8525822269702
20
40.5816004352298
30
0
0
VERTEX
8
0
10
36.5290460425734
20
41.1575005702156
30
0
0
VERTEX
8
0
10
37.2055098581766
20
41.7255715462619
30
0
0
VERTEX
8
0
10
37.8819736737799
20
42.2934542709691
30
0
0
VERTEX
8
0
10
38.5584374893831
20
42.8594598320984
30
0
0
VERTEX
8
0
10
39.2349013049863
20
43.4235647628935
30
0
0
VERTEX
8
0
10
39.9113651205895
20
43.9948274855392
30
0
0
VERTEX
8
0
10
40.5878289361927
20
44.5612864042351
30
0
0
VERTEX
8
0
10
41.2642927517959
20
45.1257499520202
30
0
0
VERTEX
8
0
10
41.9407565673991
20
45.6841075862421
30
0
0
VERTEX
8
0
10
42.6172203830023
20
46.2447805862641
30
0
0
VERTEX
8
0
10
43.2936841986056
20
46.8019919612631
30
0
0
VERTEX
8
0
10
43.9701480142088
20
47.3570872989873
30
0
0
VERTEX
8
0
10
44.646611829812
20
47.9081668815953
30
0
0
VERTEX
8
0
10
45.3230756454152
20
48.4835098130184
30
0
0
VERTEX
8
0
10
45.9995394610184
20
49.0500066830362
30
0
0
VERTEX
8
0
10
46.6760032766216
20
49.6143253258561
30
0
0
VERTEX
8
0
10
47.3524670922248
20
50.1753984501711
30
0
0
VERTEX
8
0
10
48.028930907828
20
50.734002258438
30
0
0
VERTEX
8
0
10
48.7053947234313
20
51.2904579138127
30
0
0
VERTEX
8
0
10
49.3818585390345
20
51.8447744093646
30
0
0
VERTEX
8
0
10
50.0583223546377
20
52.3957627136989
30
0
0
VERTEX
8
0
10
50.7347861702409
20
52.9444626883957
30
0
0
VERTEX
8
0
10
51.4112499858441
20
53.4910600154613
30
0
0
VERTEX
8
0
10
52.0877138014473
20
54.0355658075392
30
0
0
VERTEX
8
0
10
52.7641776170505
20
54.5783325994283
30
0
0
VERTEX
8
0
10
53.4406414326537
20
55.119247196736
30
0
0
VERTEX
8
0
10
54.117105248257
20
55.6581102619387
30
0
0
VERTEX
8
0
10
54.7935690638602
20
56.194934755492
30
0
0
VERTEX
8
0
10
55.4700328794634
20
56.7322231219542
30
0
0
VERTEX
8
0
10
56.1464966950666
20
57.2671422878968
30
0
0
VERTEX
8
0
10
56.8229605106698
20
57.8000525020251
30
0
0
VERTEX
8
0
10
57.499424326273
20
58.330968630398
30
0
0
VERTEX
8
0
10
58.1758881418762
20
58.8567692220775
30
0
0
VERTEX
8
0
10
58.8523519574794
20
59.3810613988315
30
0
0
VERTEX
8
0
10
59.5288157730826
20
59.9034121771405
30
0
0
VERTEX
8
0
10
60.2052795886859
20
60.4238368357633
30
0
0
VERTEX
8
0
10
60.8817434042891
20
60.9445640095733
30
0
0
VERTEX
8
0
10
61.5582072198923
20
61.4630943397684
30
0
0
VERTEX
8
0
10
62.2346710354955
20
61.9797457494105
30
0
0
VERTEX
8
0
10
62.9111348510987
20
62.4945342189293
30
0
0
VERTEX
8
0
10
63.5875986667019
20
63.0050763168506
30
0
0
VERTEX
8
0
10
64.2640624823051
20
63.5142739800651
30
0
0
VERTEX
8
0
10
64.9405262979083
20
64.0216561700044
30
0
0
VERTEX
8
0
10
65.6169901135116
20
64.5272389047311
30
0
0
VERTEX
8
0
10
66.2934539291148
20
65.0105353869633
30
0
0
VERTEX
8
0
10
66.969917744718
20
65.5018997235391
30
0
0
VERTEX
8
0
10
67.6463815603212
20
65.9917093066372
30
0
0
VERTEX
8
0
10
68.3228453759244
20
66.4396704953693
30
0
0
VERTEX
8
0
10
68.9993091915276
20
66.875170904344
30
0
0
VERTEX
8
0
10
69.6757730071308
20
67.3066343914581
30
0
0
VERTEX
8
0
10
70.352236822734
20
67.7374859898599
30
0
0
VERTEX
8
0
10
71.0287006383373
20
68.165198025042
30
0
0
VERTEX
8
0
10
71.7051644539405
20
68.5918332388788
30
0
0
VERTEX
8
0
10
72.3816282695437
20
69.0177001332597
30
0
0
VERTEX
8
0
10
73.0580920851469
20
69.4429811273078
30
0
0
VERTEX
8
0
10
73.7345559007501
20
69.8723739252619
30
0
0
VERTEX
8
0
10
74.4110197163533
20
70.3016983354783
30
0
0
VERTEX
8
0
10
75.0874835319565
20
70.7305928701907
30
0
0
VERTEX
8
0
10
75.7639473475597
20
71.1587870773716
30
0
0
VERTEX
8
0
10
76.4404111631629
20
71.5987594257246
30
0
0
VERTEX
8
0
10
77.1168749787662
20
72.0421573343654
30
0
0
VERTEX
8
0
10
77.7933387943694
20
72.4840341227627
30
0
0
VERTEX
8
0
10
78.4698026099726
20
72.9250773257563
30
0
0
VERTEX
8
0
10
79.1462664255758
20
73.3450752151245
30
0
0
VERTEX
8
0
10
79.822730241179
20
73.7628020936298
30
0
0
VERTEX
8
0
10
80.4991940567822
20
74.1798693802991
30
0
0
VERTEX
8
0
10
81.1756578723854
20
74.5962726657042
30
0
0
VERTEX
8
0
10
81.8521216879886
20
75.0130416672163
30
0
0
VERTEX
8
0
10
82.5285855035919
20
75.4296191580664
30
0
0
VERTEX
8
0
10
83.2050493191951
20
75.845545609096
30
0
0
VERTEX
8
0
10
83.8815131347983
20
76.2608166891285
30
0
0
VERTEX
8
0
10
84.5579769504015
20
76.683398449163
30
0
0
VERTEX
8
0
10
85.2344407660047
20
77.1037176927714
30
0
0
VERTEX
8
0
10
85.9109045816079
20
77.5232640610358
30
0
0
VERTEX
8
0
10
86.5873683972111
20
77.9420351870504
30
0
0
VERTEX
8
0
10
87.2638322128144
20
78.368394492349
30
0
0
VERTEX
8
0
10
87.9402960284175
20
78.7912995013597
30
0
0
VERTEX
8
0
10
88.6167598440208
20
79.2133005668476
30
0
0
VERTEX
8
0
10
89.293223659624
20
79.6343970234509
30
0
0
VERTEX
8
0
10
89.9696874752272
20
79.9829923538456
30
0
0
VERTEX
8
0
10
90.6461512908304
20
80.3425826176604
30
0
0
VERTEX
8
0
10
91.3226151064336
20
80.7013712300268
30
0
0
VERTEX
8
0
10
91.9990789220368
20
81.0593532653035
30
0
0
VERTEX
8
0
10
92.67554273764
20
81.4315831823933
30
0
0
VERTEX
8
0
10
93.3520065532433
20
81.7973977672914
30
0
0
VERTEX
8
0
10
94.0284703688465
20
82.1622321487855
30
0
0
VERTEX
8
0
10
94.7049341844497
20
82.5289392471768
30
0
0
VERTEX
8
0
10
95.3813980000529
20
82.897087615441
30
0
0
VERTEX
8
0
10
96.0578618156561
20
83.2641960542418
30
0
0
VERTEX
8
0
10
96.7343256312593
20
83.6302611466842
30
0
0
VERTEX
8
0
10
97.4107894468625
20
83.9826751097535
30
0
0
VERTEX
8
0
10
98.0872532624657
20
84.3269412500592
30
0
0
VERTEX
8
0
10
98.763717078069
20
84.6703499487617
30
0
0
VERTEX
8
0
10
99.4401808936722
20
85.0128932855218
30
0
0
VERTEX
8
0
10
100.116644709275
20
85.3665347778539
30
0
0
VERTEX
8
0
10
100.793108524879
20
85.7235256175461
30
0
0
VERTEX
8
0
10
101.469572340482
20
86.0794620520239
30
0
0
VERTEX
8
0
10
102.146036156085
20
86.434337425777
30
0
0
VERTEX
8
0
10
102.822499971688
20
86.7906462152913
30
0
0
VERTEX
8
0
10
103.498963787291
20
87.147638198514
30
0
0
VERTEX
8
0
10
104.175427602895
20
87.5031176251551
30
0
0
VERTEX
8
0
10
104.851891418498
20
87.8574836082591
30
0
0
VERTEX
8
0
10
105.528355234101
20
88.1923043760627
30
0
0
VERTEX
8
0
10
106.204819049704
20
88.5239297604092
30
0
0
VERTEX
8
0
10
106.881282865307
20
88.853864475017
30
0
0
VERTEX
8
0
10
107.557746680911
20
89.1813000420733
30
0
0
VERTEX
8
0
10
108.234210496514
20
89.5223869348366
30
0
0
VERTEX
8
0
10
108.910674312117
20
89.8603729830034
30
0
0
VERTEX
8
0
10
109.58713812772
20
90.1953708601048
30
0
0
VERTEX
8
0
10
110.263601943324
20
90.5273815408191
30
0
0
VERTEX
8
0
10
110.940065758927
20
90.8527155878511
30
0
0
VERTEX
8
0
10
111.61652957453
20
91.1766576659127
30
0
0
VERTEX
8
0
10
112.292993390133
20
91.497683685203
30
0
0
VERTEX
8
0
10
112.969457205736
20
91.8157952487962
30
0
0
VERTEX
8
0
10
113.64592102134
20
92.1140058257132
30
0
0
VERTEX
8
0
10
114.322384836943
20
92.4082042229873
30
0
0
VERTEX
8
0
10
114.998848652546
20
92.6994603363703
30
0
0
VERTEX
8
0
10
115.675312468149
20
92.9877755648847
30
0
0
VERTEX
8
0
10
116.351776283752
20
93.3127833915592
30
0
0
VERTEX
8
0
10
117.028240099356
20
93.6398518182509
30
0
0
VERTEX
8
0
10
117.704703914959
20
93.9644963612559
30
0
0
VERTEX
8
0
10
118.381167730562
20
94.2867186150966
30
0
0
VERTEX
8
0
10
119.057631546165
20
94.5652049075888
30
0
0
VERTEX
8
0
10
119.734095361769
20
94.84112382954
30
0
0
VERTEX
8
0
10
120.410559177372
20
95.1141636160779
30
0
0
VERTEX
8
0
10
121.087022992975
20
95.3847854408842
30
0
0
VERTEX
8
0
10
121.763486808578
20
95.6681301721566
30
0
0
VERTEX
8
0
10
122.439950624181
20
95.9465822611919
30
0
0
VERTEX
8
0
10
123.116414439785
20
96.222240726599
30
0
0
VERTEX
8
0
10
123.792878255388
20
96.4945768598843
30
0
0
VERTEX
8
0
10
124.469342070991
20
96.7649920316212
30
0
0
VERTEX
8
0
10
125.145805886594
20
97.0324026597052
30
0
0
VERTEX
8
0
10
125.822269702197
20
97.2970597380813
30
0
0
VERTEX
8
0
10
126.498733517801
20
97.555311702585
30
0
0
VERTEX
8
0
10
127.175197333404
20
97.8093768030133
30
0
0
VERTEX
8
0
10
127.851661149007
20
98.0607555844156
30
0
0
VERTEX
8
0
10
128.52812496461
20
98.3094558654702
30
0
0
VERTEX
8
0
10
129.204588780213
20
98.5602551896521
30
0
0
VERTEX
8
0
10
129.881052595817
20
98.8080593874432
30
0
0
VERTEX
8
0
10
130.55751641142
20
99.0535965986991
30
0
0
VERTEX
8
0
10
131.233980227023
20
99.2964355534516
30
0
0
VERTEX
8
0
10
131.910444042626
20
99.5365457038791
30
0
0
VERTEX
8
0
10
132.58690785823
20
99.7711874911881
30
0
0
VERTEX
8
0
10
133.263371673833
20
100.002937540802
30
0
0
VERTEX
8
0
10
133.939835489436
20
100.23160537147
30
0
0
VERTEX
8
0
10
134.616299305039
20
100.441910029875
30
0
0
VERTEX
8
0
10
135.292763120642
20
100.636692081492
30
0
0
VERTEX
8
0
10
135.969226936246
20
100.828156779053
30
0
0
VERTEX
8
0
10
136.645690751849
20
101.016333468587
30
0
0
VERTEX
8
0
10
137.322154567452
20
101.193820694881
30
0
0
VERTEX
8
0
10
137.998618383055
20
101.365572171672
30
0
0
VERTEX
8
0
10
138.675082198658
20
101.534123509829
30
0
0
VERTEX
8
0
10
139.351546014262
20
101.69950506146
30
0
0
VERTEX
8
0
10
140.028009829865
20
101.861747419503
30
0
0
VERTEX
8
0
10
140.704473645468
20
102.020881424667
30
0
0
VERTEX
8
0
10
141.380937461071
20
102.1769381728
30
0
0
VERTEX
8
0
10
142.057401276674
20
102.329949022283
30
0
0
VERTEX
8
0
10
142.733865092278
20
102.4799456014
30
0
0
VERTEX
8
0
10
143.410328907881
20
102.626959815661
30
0
0
VERTEX
8
0
10
144.086792723484
20
102.771023855085
30
0
0
VERTEX
8
0
10
144.763256539087
20
102.912170201451
30
0
0
VERTEX
8
0
10
145.43972035469
20
103.050431635501
30
0
0
VERTEX
8
0
10
146.116184170294
20
103.185841244114
30
0
0
VERTEX
8
0
10
146.792647985897
20
103.318432427442
30
0
0
VERTEX
8
0
10
147.4691118015
20
103.448238906014
30
0
0
VERTEX
8
0
10
148.145575617103
20
103.575294727805
30
0
0
VERTEX
8
0
10
148.822039432706
20
103.699634275274
30
0
0
VERTEX
8
0
10
149.49850324831
20
103.821292272366
30
0
0
VERTEX
8
0
10
150.174967063913
20
103.940303791492
30
0
0
VERTEX
8
0
10
150.851430879516
20
104.056704260463
30
0
0
VERTEX
8
0
10
151.527894695119
20
104.170529469405
30
0
0
VERTEX
8
0
10
152.204358510722
20
104.281815577631
30
0
0
VERTEX
8
0
10
152.880822326326
20
104.390599120491
30
0
0
VERTEX
8
0
10
153.557286141929
20
104.493412281136
30
0
0
VERTEX
8
0
10
154.233749957532
20
104.594674256061
30
0
0
VERTEX
8
0
10
154.910213773135
20
104.693543283553
30
0
0
SEQEND
8
0
0
POLYLINE
8
0
62
2
70
0
10
0
20
0
30
0
0
VERTEX
8
0
10
23.6762335461124
20
15.3989154784131
30
0
0
VERTEX
8
0
10
24.3526973617156
20
15.7169646708762
30
0
0
VERTEX
8
0
10
25.0291611773188
20
16.0308829175266
30
0
0
VERTEX
8
0
10
25.705624992922
20
16.3407439852469
30
0
0
VERTEX
8
0
10
26.3820888085253
20
16.646617923739
30
0
0
VERTEX
8
0
10
27.0585526241285
20
16.9485713399097
30
0
0
VERTEX
8
0
10
27.7350164397317
20
17.2466676456993
30
0
0
VERTEX
8
0
10
28.4114802553349
20
17.5409672822865
30
0
0
VERTEX
8
0
10
29.0879440709381
20
17.8315279235429
30
0
0
VERTEX
8
0
10
29.7644078865413
20
18.1184046610582
30
0
0
VERTEX
8
0
10
30.4408717021445
20
18.4016501729268
30
0
0
VERTEX
8
0
10
31.1173355177477
20
18.6813148777834
30
0
0
VERTEX
8
0
10
31.793799333351
20
18.9574470760151
30
0
0
VERTEX
8
0
10
32.4702631489542
20
19.2300930791047
30
0
0
VERTEX
8
0
10
33.1467269645574
20
19.4992973285449
30
0
0
VERTEX
8
0
10
33.8231907801606
20
19.7651025055136
30
0
0
VERTEX
8
0
10
34.4996545957638
20
20.027549631736
30
0
0
VERTEX
8
0
10
35.176118411367
20
20.2866781628641
30
0
0
VERTEX
8
0
10
35.8525822269702
20
20.5425260748119
30
0
0
VERTEX
8
0
10
36.5290460425734
20
20.7951299437724
30
0
0
VERTEX
8
0
10
37.2055098581766
20
21.0445250205165
30
0
0
VERTEX
8
0
10
37.8819736737799
20
21.2907452993601
30
0
0
VERTEX
8
0
10
38.5584374893831
20
21.5338235824648
30
0
0
VERTEX
8
0
10
39.2349013049863
20
21.7737915396929
30
0
0
VERTEX
8
0
10
39.9113651205895
20
22.0106797644594
30
0
0
VERTEX
8
0
10
40.5878289361927
20
22.2445178259306
30
0
0
VERTEX
8
0
10
41.2642927517959
20
22.4753343178748
30
0
0
VERTEX
8
0
10
41.9407565673991
20
22.703156904362
30
0
0
VERTEX
8
0
10
42.6172203830023
20
22.9280123625992
30
0
0
VERTEX
8
0
10
43.2936841986056
20
23.1499266232281
30
0
0
VERTEX
8
0
10
43.9701480142088
20
23.3689248080906
30
0
0
VERTEX
8
0
10
44.646611829812
20
23.5850312657025
30
0
0
VERTEX
8
0
10
45.3230756454152
20
23.7982696048092
30
0
0
VERTEX
8
0
10
45.9995394610184
20
24.0086627259386
30
0
0
VERTEX
8
0
10
46.6760032766216
20
24.216232850966
30
0
0
VERTEX
8
0
10
47.3524670922248
20
24.4210015513763
30
0
0
VERTEX
8
0
10
48.028930907828
20
24.622989774683
30
0
0
VERTEX
8
0
10
48.7053947234313
20
24.8222178695486
30
0
0
VERTEX
8
0
10
49.3818585390345
20
25.0187056095015
30
0
0
VERTEX
8
0
10
50.0583223546377
20
25.2124722154047
30
0
0
VERTEX
8
0
10
50.7347861702409
20
25.4035363768496
30
0
0
VERTEX
8
0
10
51.4112499858441
20
25.5919162722531
30
0
0
VERTEX
8
0
10
52.0877138014473
20
25.7776295881529
30
0
0
VERTEX
8
0
10
52.7641776170505
20
25.9606935374239
30
0
0
VERTEX
8
0
10
53.4406414326537
20
26.1411248765929
30
0
0
VERTEX
8
0
10
54.117105248257
20
26.318939922355
30
0
0
VERTEX
8
0
10
54.7935690638602
20
26.4941545673329
30
0
0
VERTEX
8
0
10
55.4700328794634
20
26.6667842949515
30
0
0
VERTEX
8
0
10
56.1464966950666
20
26.8368441938
30
0
0
VERTEX
8
0
10
56.8229605106698
20
27.0043489711834
30
0
0
VERTEX
8
0
10
57.499424326273
20
27.1693129661918
30
0
0
VERTEX
8
0
10
58.1758881418762
20
27.3317501621098
30
0
0
VERTEX
8
0
10
58.8523519574794
20
27.4916741982138
30
0
0
VERTEX
8
0
10
59.5288157730826
20
27.6490983812187
30
0
0
VERTEX
8
0
10
60.2052795886859
20
27.8040356961188
30
0
0
VERTEX
8
0
10
60.8817434042891
20
27.956498816616
30
0
0
VERTEX
8
0
10
61.5582072198923
20
28.1065001151028
30
0
0
VERTEX
8
0
10
62.2346710354955
20
28.2540516721781
30
0
0
VERTEX
8
0
10
62.9111348510987
20
28.3991652859256
30
0
0
VERTEX
8
0
10
63.5875986667019
20
28.5418524806381
30
0
0
VERTEX
8
0
10
64.2640624823051
20
28.6821245153973
30
0
0
VERTEX
8
0
10
64.9405262979083
20
28.819992392105
30
0
0
VERTEX
8
0
10
65.6169901135116
20
28.9554668634147
30
0
0
VERTEX
8
0
10
66.2934539291148
20
29.0885584402119
30
0
0
VERTEX
8
0
10
66.969917744718
20
29.2192773988998
30
0
0
VERTEX
8
0
10
67.6463815603212
20
29.3476337884045
30
0
0
VERTEX
8
0
10
68.3228453759244
20
29.4736374369462
30
0
0
VERTEX
8
0
10
68.9993091915276
20
29.5972979585282
30
0
0
VERTEX
8
0
10
69.6757730071308
20
29.7186247592202
30
0
0
VERTEX
8
0
10
70.352236822734
20
29.8376270432868
30
0
0
VERTEX
8
0
10
71.0287006383373
20
29.954313819025
30
0
0
VERTEX
8
0
10
71.7051644539405
20
30.0686939044581
30
0
0
VERTEX
8
0
10
72.3816282695437
20
30.180775932889
30
0
0
VERTEX
8
0
10
73.0580920851469
20
30.2905683581679
30
0
0
VERTEX
8
0
10
73.7345559007501
20
30.3980794599342
30
0
0
VERTEX
8
0
10
74.4110197163533
20
30.5033173486119
30
0
0
VERTEX
8
0
10
75.0874835319565
20
30.6062899702947
30
0
0
VERTEX
8
0
10
75.7639473475597
20
30.7070051114805
30
0
0
VERTEX
8
0
10
76.4404111631629
20
30.8054704037092
30
0
0
VERTEX
8
0
10
77.1168749787662
20
30.9016933280249
30
0
0
VERTEX
8
0
10
77.7933387943694
20
30.9956812193833
30
0
0
VERTEX
8
0
10
78.4698026099726
20
31.0874412709065
30
0
0
VERTEX
8
0
10
79.1462664255758
20
31.1769805380414
30
0
0
VERTEX
8
0
10
79.822730241179
20
31.2643059426509
30
0
0
VERTEX
8
0
10
80.4991940567822
20
31.3494242769832
30
0
0
VERTEX
8
0
10
81.1756578723854
20
31.4323422075708
30
0
0
VERTEX
8
0
10
81.8521216879886
20
31.513066279077
30
0
0
VERTEX
8
0
10
82.5285855035919
20
31.5916029179883
30
0
0
VERTEX
8
0
10
83.2050493191951
20
31.6679584363564
30
0
0
VERTEX
8
0
10
83.8815131347983
20
31.7421390353788
30
0
0
VERTEX
8
0
10
84.5579769504015
20
31.8141508089652
30
0
0
VERTEX
8
0
10
85.2344407660047
20
31.8839997472475
30
0
0
VERTEX
8
0
10
85.9109045816079
20
31.9516917400697
30
0
0
VERTEX
8
0
10
86.5873683972111
20
32.0172325803514
30
0
0
VERTEX
8
0
10
87.2638322128144
20
32.0806279675292
30
0
0
VERTEX
8
0
10
87.9402960284175
20
32.1418835108531
30
0
0
VERTEX
8
0
10
88.6167598440208
20
32.2010047327262
30
0
0
VERTEX
8
0
10
89.293223659624
20
32.2579970720266
30
0
0
VERTEX
8
0
10
89.9696874752272
20
32.3128658873256
30
0
0
VERTEX
8
0
10
90.6461512908304
20
32.3656164602017
30
0
0
VERTEX
8
0
10
91.3226151064336
20
32.4162539984748
30
0
0
VERTEX
8
0
10
91.9990789220368
20
32.4647836394258
30
0
0
VERTEX
8
0
10
92.67554273764
20
32.5112104530748
30
0
0
VERTEX
8
0
10
93.3520065532433
20
32.5555394454057
30
0
0
VERTEX
8
0
10
94.0284703688465
20
32.597775561633
30
0
0
VERTEX
8
0
10
94.7049341844497
20
32.6379236894548
30
0
0
VERTEX
8
0
10
95.3813980000529
20
32.6759886623447
30
0
0
VERTEX
8
0
10
96.0578618156561
20
32.7119752628672
30
0
0
VERTEX
8
0
10
96.7343256312593
20
32.7458882259914
30
0
0
VERTEX
8
0
10
97.4107894468625
20
32.7777322424712
30
0
0
VERTEX
8
0
10
98.0872532624657
20
32.8075119622394
30
0
0
VERTEX
8
0
10
98.763717078069
20
32.8352319978635
30
0
0
VERTEX
8
0
10
99.4401808936722
20
32.8608969280309
30
0
0
VERTEX
8
0
10
100.116644709275
20
32.8845113010944
30
0
0
VERTEX
8
0
10
100.793108524879
20
32.9060796386906
30
0
0
VERTEX
8
0
10
101.469572340482
20
32.925606439393
30
0
0
VERTEX
8
0
10
102.146036156085
20
32.9430961824726
30
0
0
VERTEX
8
0
10
102.822499971688
20
32.9585533317111
30
0
0
VERTEX
8
0
10
103.498963787291
20
32.9719823393125
30
0
0
VERTEX
8
0
10
104.175427602895
20
32.9833876498865
30
0
0
VERTEX
8
0
10
104.851891418498
20
32.9927737045711
30
0
0
VERTEX
8
0
10
105.528355234101
20
33.0001449452014
30
0
0
VERTEX
8
0
10
106.204819049704
20
33.0055058186518
30
0
0
VERTEX
8
0
10
106.881282865307
20
33.0088607812657
30
0
0
VERTEX
8
0
10
107.557746680911
20
33.0102143034204
30
0
0
VERTEX
8
0
10
108.234210496514
20
33.0095708742456
30
0
0
VERTEX
8
0
10
108.910674312117
20
33.0069350064705
30
0
0
VERTEX
8
0
10
109.58713812772
20
33.0023112414524
30
0
0
VERTEX
8
0
10
110.263601943324
20
32.9957041543535
30
0
0
VERTEX
8
0
10
110.940065758927
20
32.9871183595102
30
0
0
VERTEX
8
0
10
111.61652957453
20
32.9765585159951
30
0
0
VERTEX
8
0
10
112.292993390133
20
32.9640293333748
30
0
0
VERTEX
8
0
10
112.969457205736
20
32.9495355776951
30
0
0
VERTEX
8
0
10
113.64592102134
20
32.9330820776811
30
0
0
VERTEX
8
0
10
114.322384836943
20
32.9146737311999
30
0
0
VERTEX
8
0
10
114.998848652546
20
32.8943155119685
30
0
0
VERTEX
8
0
10
115.675312468149
20
32.8720124765448
30
0
0
VERTEX
8
0
10
116.351776283752
20
32.8477697716093
30
0
0
VERTEX
8
0
10
117.028240099356
20
32.8215926415543
30
0
0
VERTEX
8
0
10
117.704703914959
20
32.7934864364054
30
0
0
VERTEX
8
0
10
118.381167730562
20
32.7634566200934
30
0
0
VERTEX
8
0
10
119.057631546165
20
32.7315087790977
30
0
0
VERTEX
8
0
10
119.734095361769
20
32.6976486314692
30
0
0
VERTEX
8
0
10
120.410559177372
20
32.6618820363017
30
0
0
VERTEX
8
0
10
121.087022992975
20
32.6242150036068
30
0
0
VERTEX
8
0
10
121.763486808578
20
32.584653704699
30
0
0
VERTEX
8
0
10
122.439950624181
20
32.5432044830525
30
0
0
VERTEX
8
0
10
123.116414439785
20
32.4998738657042
30
0
0
VERTEX
8
0
10
123.792878255388
20
32.4546685752201
30
0
0
VERTEX
8
0
10
124.469342070991
20
32.4075955422547
30
0
0
VERTEX
8
0
10
125.145805886594
20
32.3586619187553
30
0
0
VERTEX
8
0
10
125.822269702197
20
32.3078750918482
30
0
0
VERTEX
8
0
10
126.498733517801
20
32.255242698441
30
0
0
VERTEX
8
0
10
127.175197333404
20
32.2007726405971
30
0
0
VERTEX
8
0
10
127.851661149007
20
32.1444731017377
30
0
0
VERTEX
8
0
10
128.52812496461
20
32.0863525637032
30
0
0
VERTEX
8
0
10
129.204588780213
20
32.0264198247629
30
0
0
VERTEX
8
0
10
129.881052595817
20
31.9646840186043
30
0
0
VERTEX
8
0
10
130.55751641142
20
31.9011546343987
30
0
0
VERTEX
8
0
10
131.233980227023
20
31.8358415379901
30
0
0
VERTEX
8
0
10
131.910444042626
20
31.7687549943004
30
0
0
VERTEX
8
0
10
132.58690785823
20
31.6999056910308
30
0
0
VERTEX
8
0
10
133.263371673833
20
31.6293047637571
30
0
0
VERTEX
8
0
10
133.939835489436
20
31.5569638225002
30
0
0
VERTEX
8
0
10
134.616299305039
20
31.4828949799087
30
0
0
VERTEX
8
0
10
135.292763120642
20
31.4071108811377
30
0
0
VERTEX
8
0
10
135.969226936246
20
31.3296247355761
30
0
0
VERTEX
8
0
10
136.645690751849
20
31.2504503505456
30
0
0
VERTEX
8
0
10
137.322154567452
20
31.1696021671334
30
0
0
VERTEX
8
0
10
137.998618383055
20
31.0870952983091
30
0
0
VERTEX
8
0
10
138.675082198658
20
31.0029455695234
30
0
0
VERTEX
8
0
10
139.351546014262
20
30.9171695619765
30
0
0
VERTEX
8
0
10
140.028009829865
20
30.8297846587649
30
0
0
VERTEX
8
0
10
140.704473645468
20
30.7408090941733
30
0
0
VERTEX
8
0
10
141.380937461071
20
30.6502620063457
30
0
0
VERTEX
8
0
10
142.057401276674
20
30.558163493645
30
0
0
VERTEX
8
0
10
142.733865092278
20
30.4645346750259
30
0
0
VERTEX
8
0
10
143.410328907881
20
30.3693977547677
30
0
0
VERTEX
8
0
10
144.086792723484
20
30.2727760919883
30
0
0
VERTEX
8
0
10
144.763256539087
20
30.1746942753692
30
0
0
VERTEX
8
0
10
145.43972035469
20
30.07517820361
30
0
0
VERTEX
8
0
10
146.116184170294
20
29.9742551721711
30
0
0
VERTEX
8
0
10
146.792647985897
20
29.8719539669472
30
0
0
VERTEX
8
0
10
147.4691118015
20
29.7683049655993
30
0
0
VERTEX
8
0
10
148.145575617103
20
29.6633402473674
30
0
0
VERTEX
8
0
10
148.822039432706
20
29.5570937123147
30
0
0
VERTEX
8
0
10
149.49850324831
20
29.4496012110792
30
0
0
VERTEX
8
0
10
150.174967063913
20
29.3409006863996
30
0
0
VERTEX
8
0
10
150.851430879516
20
29.2310323278552
30
0
0
VERTEX
8
0
10
151.527894695119
20
29.1200387415251
30
0
0
VERTEX
8
0
10
152.204358510722
20
29.0079651365588
30
0
0
VERTEX
8
0
10
152.880822326326
20
28.8948595310145
30
0
0
VERTEX
8
0
10
153.557286141929
20
28.7807729797682
30
0
0
VERTEX
8
0
10
154.233749957532
20
28.6657598278652
30
0
0
VERTEX
8
0
10
154.910213773135
20
28.5498779933801
30
0
0
SEQEND
8
0
0
POLYLINE
8
0
62
3
70
0
10
0
20
0
30
0
0
VERTEX
8
0
10
23.6762335461124
20
24.3579080894649
30
0
0
VERTEX
8
0
10
24.3526973617156
20
24.9332376634051
30
0
0
VERTEX
8
0
10
25.0291611773188
20
25.5036923805841
30
0
0
VERTEX
8
0
10
25.705624992922
20
26.0693199394119
30
0
0
VERTEX
8
0
10
26.3820888085253
20
26.630165603784
30
0
0
VERTEX
8
0
10
27.0585526241285
20
27.1862723918901
30
0
0
VERTEX
8
0
10
27.7350164397317
20
27.7376812463806
30
0
0
VERTEX
8
0
10
28.4114802553349
20
28.2844311880024
30
0
0
VERTEX
8
0
10
29.0879440709381
20
28.8265594547357
30
0
0
VERTEX
8
0
10
29.7644078865413
20
29.3641016280818
30
0
0
VERTEX
8
0
10
30.4408717021445
20
29.8970917480426
30
0
0
VERTEX
8
0
10
31.1173355177477
20
30.4255624178683
30
0
0
VERTEX
8
0
10
31.793799333351
20
30.949544899903
30
0
0
VERTEX
8
0
10
32.4702631489542
20
31.4690692032332
30
0
0
VERTEX
8
0
10
33.1467269645574
20
31.9841641641346
30
0
0
VERTEX
8
0
10
33.8231907801606
20
32.4948575201394
30
0
0
VERTEX
8
0
10
34.4996545957638
20
33.0011759780637
30
0
0
VERTEX
8
0
10
35.176118411367
20
33.5031452768862
30
0
0
VERTEX
8
0
10
35.8525822269702
20
34.0007902458078
30
0
0
VERTEX
8
0
10
36.5290460425734
20
34.4941348579908
30
0
0
VERTEX
8
0
10
37.2055098581766
20
34.9832022803959
30
0
0
VERTEX
8
0
10
37.8819736737799
20
35.4680149199947
30
0
0
VERTEX
8
0
10
38.5584374893831
20
35.9485944668062
30
0
0
VERTEX
8
0
10
39.2349013049863
20
36.4249619339194
30
0
0
VERTEX
8
0
10
39.9113651205895
20
36.8971376948117
30
0
0
VERTEX
8
0
10
40.5878289361927
20
37.3651415181971
30
0
0
VERTEX
8
0
10
41.2642927517959
20
37.8289926006165
30
0
0
VERTEX
8
0
10
41.9407565673991
20
38.2887095969132
30
0
0
VERTEX
8
0
10
42.6172203830023
20
38.7443106487877
30
0
0
VERTEX
8
0
10
43.2936841986056
20
39.1958134116454
30
0
0
VERTEX
8
0
10
43.9701480142088
20
39.6432350797608
30
0
0
VERTEX
8
0
10
44.646611829812
20
40.0865924099165
30
0
0
VERTEX
8
0
10
45.3230756454152
20
40.5259017437563
30
0
0
VERTEX
8
0
10
45.9995394610184
20
40.9611790288136
30
0
0
VERTEX
8
0
10
46.6760032766216
20
41.3924398382378
30
0
0
VERTEX
8
0
10
47.3524670922248
20
41.8196993896377
30
0
0
VERTEX
8
0
10
48.028930907828
20
42.2429725627286
30
0
0
VERTEX
8
0
10
48.7053947234313
20
42.6622739161192
30
0
0
VERTEX
8
0
10
49.3818585390345
20
43.0776177031824
30
0
0
VERTEX
8
0
10
50.0583223546377
20
43.4890178871105
30
0
0
VERTEX
8
0
10
50.7347861702409
20
43.8964881552652
30
0
0
VERTEX
8
0
10
51.4112499858441
20
44.300041932697
30
0
0
VERTEX
8
0
10
52.0877138014473
20
44.6996923951335
30
0
0
VERTEX
8
0
10
52.7641776170505
20
45.0954524812781
30
0
0
VERTEX
8
0
10
53.4406414326537
20
45.4873349045296
30
0
0
VERTEX
8
0
10
54.117105248257
20
45.8753521641876
30
0
0
VERTEX
8
0
10
54.7935690638602
20
46.2595165561724
30
0
0
VERTEX
8
0
10
55.4700328794634
20
46.6398401831908
30
0
0
VERTEX
8
0
10
56.1464966950666
20
47.0163349645669
30
0
0
VERTEX
8
0
10
56.8229605106698
20
47.3890126455698
30
0
0
VERTEX
8
0
10
57.499424326273
20
47.7578848064318
30
0
0
VERTEX
8
0
10
58.1758881418762
20
48.1229628709568
30
0
0
VERTEX
8
0
10
58.8523519574794
20
48.4842581147529
30
0
0
VERTEX
8
0
10
59.5288157730826
20
48.8417816732385
30
0
0
VERTEX
8
0
10
60.2052795886859
20
49.1955445492812
30
0
0
VERTEX
8
0
10
60.8817434042891
20
49.545557620584
30
0
0
VERTEX
8
0
10
61.5582072198923
20
49.8918316467971
30
0
0
VERTEX
8
0
10
62.2346710354955
20
50.2343772763522
30
0
0
VERTEX
8
0
10
62.9111348510987
20
50.5732050531486
30
0
0
VERTEX
8
0
10
63.5875986667019
20
50.9083254229138
30
0
0
VERTEX
8
0
10
64.2640624823051
20
51.2397487394743
30
0
0
VERTEX
8
0
10
64.9405262979083
20
51.5674852707072
30
0
0
VERTEX
8
0
10
65.6169901135116
20
51.8915452044323
30
0
0
VERTEX
8
0
10
66.2934539291148
20
52.211938654044
30
0
0
VERTEX
8
0
10
66.969917744718
20
52.528675664033
30
0
0
VERTEX
8
0
10
67.6463815603212
20
52.8417662153475
30
0
0
VERTEX
8
0
10
68.3228453759244
20
53.151220230626
30
0
0
VERTEX
8
0
10
68.9993091915276
20
53.4570475792705
30
0
0
VERTEX
8
0
10
69.6757730071308
20
53.7592580824111
30
0
0
VERTEX
8
0
10
70.352236822734
20
54.0578615177867
30
0
0
VERTEX
8
0
10
71.0287006383373
20
54.3528676244686
30
0
0
VERTEX
8
0
10
71.7051644539405
20
54.6442861075125
30
0
0
VERTEX
8
0
10
72.3816282695437
20
54.9321266425387
30
0
0
VERTEX
8
0
10
73.0580920851469
20
55.2163988801632
30
0
0
VERTEX
8
0
10
73.7345559007501
20
55.4971124504247
30
0
0
VERTEX
8
0
10
74.4110197163533
20
55.7742769670865
30
0
0
VERTEX
8
0
10
75.0874835319565
20
56.0479020318885
30
0
0
VERTEX
8
0
10
75.7639473475597
20
56.3179972387305
30
0
0
VERTEX
8
0
10
76.4404111631629
20
56.5845721778154
30
0
0
VERTEX
8
0
10
77.1168749787662
20
56.8476364397109
30
0
0
VERTEX
8
0
10
77.7933387943694
20
57.1071996193976
30
0
0
VERTEX
8
0
10
78.4698026099726
20
57.3632713202494
30
0
0
VERTEX
8
0
10
79.1462664255758
20
57.6158611579798
30
0
0
VERTEX
8
0
10
79.822730241179
20
57.8649787645692
30
0
0
VERTEX
8
0
10
80.4991940567822
20
58.1106337921458
30
0
0
VERTEX
8
0
10
81.1756578723854
20
58.3528359168478
30
0
0
VERTEX
8
0
10
81.8521216879886
20
58.5915948426799
30
0
0
VERTEX
8
0
10
82.5285855035919
20
58.8269203053047
30
0
0
VERTEX
8
0
10
83.2050493191951
20
59.0588220758883
30
0
0
VERTEX
8
0
10
83.8815131347983
20
59.2873099648781
30
0
0
VERTEX
8
0
10
84.5579769504015
20
59.5123938257996
30
0
0
VERTEX
8
0
10
85.2344407660047
20
59.734083559048
30
0
0
VERTEX
8
0
10
85.9109045816079
20
59.9523891156928
30
0
0
VERTEX
8
0
10
86.5873683972111
20
60.1673205012438
30
0
0
VERTEX
8
0
10
87.2638322128144
20
60.3788877794853
30
0
0
VERTEX
8
0
10
87.9402960284175
20
60.5871010762594
30
0
0
VERTEX
8
0
10
88.6167598440208
20
60.7919705833047
30
0
0
VERTEX
8
0
10
89.293223659624
20
60.9935065621122
30
0
0
VERTEX
8
0
10
89.9696874752272
20
61.1917193477569
30
0
0
VERTEX
8
0
10
90.6461512908304
20
61.3866193528131
30
0
0
VERTEX
8
0
10
91.3226151064336
20
61.5782170712576
30
0
0
VERTEX
8
0
10
91.9990789220368
20
61.7665230823981
30
0
0
VERTEX
8
0
10
92.67554273764
20
61.9515480548655
30
0
0
VERTEX
8
0
10
93.3520065532433
20
62.1333027506125
30
0
0
VERTEX
8
0
10
94.0284703688465
20
62.3117980289687
30
0
0
VERTEX
8
0
10
94.7049341844497
20
62.4870448507227
30
0
0
VERTEX
8
0
10
95.3813980000529
20
62.6590542822612
30
0
0
VERTEX
8
0
10
96.0578618156561
20
62.8278374997575
30
0
0
VERTEX
8
0
10
96.7343256312593
20
62.9934057933946
30
0
0
VERTEX
8
0
10
97.4107894468625
20
63.1557705716607
30
0
0
VERTEX
8
0
10
98.0872532624657
20
63.3149433656919
30
0
0
VERTEX
8
0
10
98.763717078069
20
63.4709358336832
30
0
0
VERTEX
8
0
10
99.4401808936722
20
63.6237597653553
30
0
0
VERTEX
8
0
10
100.116644709275
20
63.7734270864919
30
0
0
VERTEX
8
0
10
100.793108524879
20
63.9199498635543
30
0
0
VERTEX
8
0
10
101.469572340482
20
64.0633403083553
30
0
0
VERTEX
8
0
10
102.146036156085
20
64.2036107828285
30
0
0
VERTEX
8
0
10
102.822499971688
20
64.3407738038656
30
0
0
VERTEX
8
0
10
103.498963787291
20
64.4748420482472
30
0
0
VERTEX
8
0
10
104.175427602895
20
64.605828357649
30
0
0
VERTEX
8
0
10
104.851891418498
20
64.7337457437651
30
0
0
VERTEX
8
0
10
105.528355234101
20
64.8586073934928
30
0
0
VERTEX
8
0
10
106.204819049704
20
64.9804266742513
30
0
0
VERTEX
8
0
10
106.881282865307
20
65.0992171393843
30
0
0
VERTEX
8
0
10
107.557746680911
20
65.2149925336747
30
0
0
VERTEX
8
0
10
108.234210496514
20
65.3277667989791
30
0
0
VERTEX
8
0
10
108.910674312117
20
65.4375540799676
30
0
0
VERTEX
8
0
10
109.58713812772
20
65.5443687299983
30
0
0
VERTEX
8
0
10
110.263601943324
20
65.6482253171061
30
0
0
VERTEX
8
0
10
110.940065758927
20
65.7491386301298
30
0
0
VERTEX
8
0
10
111.61652957453
20
65.8471236849747
30
0
0
VERTEX
8
0
10
112.292993390133
20
65.9421957310129
30
0
0
VERTEX
8
0
10
112.969457205736
20
66.0343702576354
30
0
0
VERTEX
8
0
10
113.64592102134
20
66.1236630009491
30
0
0
VERTEX
8
0
10
114.322384836943
20
66.2100899506393
30
0
0
VERTEX
8
0
10
114.998848652546
20
66.2936673569905
30
0
0
VERTEX
8
0
10
115.675312468149
20
66.3744117380794
30
0
0
VERTEX
8
0
10
116.351776283752
20
66.452339887144
30
0
0
VERTEX
8
0
10
117.028240099356
20
66.5274688801341
30
0
0
VERTEX
8
0
10
117.704703914959
20
66.5998160834533
30
0
0
VERTEX
8
0
10
118.381167730562
20
66.6693991618981
30
0
0
VERTEX
8
0
10
119.057631546165
20
66.736236086803
30
0
0
VERTEX
8
0
10
119.734095361769
20
66.8003451443891
30
0
0
VERTEX
8
0
10
120.410559177372
20
66.8617449443516
30
0
0
VERTEX
8
0
10
121.087022992975
20
66.9204544286543
30
0
0
VERTEX
8
0
10
121.763486808578
20
66.9764928805839
30
0
0
VERTEX
8
0
10
122.439950624181
20
67.0298799340367
30
0
0
VERTEX
8
0
10
123.116414439785
20
67.0806355830721
30
0
0
VERTEX
8
0
10
123.792878255388
20
67.1287801917335
30
0
0
VERTEX
8
0
10
124.469342070991
20
67.1743345041454
30
0
0
VERTEX
8
0
10
125.145805886594
20
67.2173196549043
30
0
0
VERTEX
8
0
10
125.822269702197
20
67.2577571797776
30
0
0
VERTEX
8
0
10
126.498733517801
20
67.2956690267134
30
0
0
VERTEX
8
0
10
127.175197333404
20
67.3310775671843
30
0
0
VERTEX
8
0
10
127.851661149007
20
67.3640056078816
30
0
0
VERTEX
8
0
10
128.52812496461
20
67.3944764027624
30
0
0
VERTEX
8
0
10
129.204588780213
20
67.4225136654852
30
0
0
VERTEX
8
0
10
129.881052595817
20
67.4481415822351
30
0
0
VERTEX
8
0
10
130.55751641142
20
67.4713848249718
30
0
0
VERTEX
8
0
10
131.233980227023
20
67.4922685651089
30
0
0
VERTEX
8
0
10
131.910444042626
20
67.5108184876556
30
0
0
VERTEX
8
0
10
132.58690785823
20
67.5270608058403
30
0
0
VERTEX
8
0
10
133.263371673833
20
67.541022276246
30
0
0
VERTEX
8
0
10
133.939835489436
20
67.5527302144767
30
0
0
VERTEX
8
0
10
134.616299305039
20
67.5622125113989
30
0
0
VERTEX
8
0
10
135.292763120642
20
67.5694976499764
30
0
0
VERTEX
8
0
10
135.969226936246
20
67.5746147227447
30
0
0
VERTEX
8
0
10
136.645690751849
20
67.5775934499581
30
0
0
VERTEX
8
0
10
137.322154567452
20
67.5784641984565
30
0
0
VERTEX
8
0
10
137.998618383055
20
67.5772580012931
30
0
0
VERTEX
8
0
10
138.675082198658
20
67.5740065781802
30
0
0
VERTEX
8
0
10
139.351546014262
20
67.5687423568081
30
0
0
VERTEX
8
0
10
140.028009829865
20
67.5614984950925
30
0
0
VERTEX
8
0
10
140.704473645468
20
67.5523089044344
30
0
0
VERTEX
8
0
10
141.380937461071
20
67.5412082740539
30
0
0
VERTEX
8
0
10
142.057401276674
20
67.5282320964947
30
0
0
VERTEX
8
0
10
142.733865092278
20
67.5134166943906
30
0
0
VERTEX
8
0
10
143.410328907881
20
67.4967992486011
30
0
0
VERTEX
8
0
10
144.086792723484
20
67.4784178278405
30
0
0
VERTEX
8
0
10
144.763256539087
20
67.4583114199345
30
0
0
VERTEX
8
0
10
145.43972035469
20
67.4365199648606
30
0
0
VERTEX
8
0
10
146.116184170294
20
67.413084389749
30
0
0
VERTEX
8
0
10
146.792647985897
20
67.3880466460438
30
0
0
VERTEX
8
0
10
147.4691118015
20
67.361449749059
30
0
0
VERTEX
8
0
10
148.145575617103
20
67.3333378201895
30
0
0
VERTEX
8
0
10
148.822039432706
20
67.3037561320918
30
0
0
VERTEX
8
0
10
149.49850324831
20
67.2727511571843
30
0
0
VERTEX
8
0
10
150.174967063913
20
67.2403706198913
30
0
0
VERTEX
8
0
10
150.851430879516
20
67.2066635531149
30
0
0
VERTEX
8
0
10
151.527894695119
20
67.1716803595164
30
0
0
VERTEX
8
0
10
152.204358510722
20
67.1354728782906
30
0
0
VERTEX
8
0
10
152.880822326326
20
67.0980944582556
30
0
0
VERTEX
8
0
10
153.557286141929
20
67.0596000382404
30
0
0
VERTEX
8
0
10
154.233749957532
20
67.0200462359684
30
0
0
VERTEX
8
0
10
154.910213773135
20
66.9794914468916
30
0
0
SEQEND
8
0
0
POLYLINE
8
0
62
4
70
0
10
0
20
0
30
0
0
VERTEX
8
0
10
23.6762335461124
20
25.3537892576044
30
0
0
VERTEX
8
0
10
24.3526973617156
20
25.8627191230951
30
0
0
VERTEX
8
0
10
25.0291611773188
20
26.370226818096
30
0
0
VERTEX
8
0
10
25.705624992922
20
26.8762286639971
30
0
0
VERTEX
8
0
10
26.3820888085253
20
27.3824532318504
30
0
0
VERTEX
8
0
10
27.0585526241285
20
27.887019522227
30
0
0
VERTEX
8
0
10
27.7350164397317
20
28.3898500360218
30
0
0
VERTEX
8
0
10
28.4114802553349
20
28.8908873092462
30
0
0
VERTEX
8
0
10
29.0879440709381
20
29.3959038003052
30
0
0
VERTEX
8
0
10
29.7644078865413
20
29.8984940827759
30
0
0
VERTEX
8
0
10
30.4408717021445
20
30.3990994496816
30
0
0
VERTEX
8
0
10
31.1173355177477
20
30.8976822947094
30
0
0
VERTEX
8
0
10
31.793799333351
20
31.3879666496945
30
0
0
VERTEX
8
0
10
32.4702631489542
20
31.8771934135339
30
0
0
VERTEX
8
0
10
33.1467269645574
20
32.3643403406245
30
0
0
VERTEX
8
0
10
33.8231907801606
20
32.8493779721658
30
0
0
VERTEX
8
0
10
34.4996545957638
20
33.3389332441978
30
0
0
VERTEX
8
0
10
35.176118411367
20
33.8248105068137
30
0
0
VERTEX
8
0
10
35.8525822269702
20
34.3084722046104
30
0
0
VERTEX
8
0
10
36.5290460425734
20
34.7898994572384
30
0
0
VERTEX
8
0
10
37.2055098581766
20
35.2619980146949
30
0
0
VERTEX
8
0
10
37.8819736737799
20
35.7338234644475
30
0
0
VERTEX
8
0
10
38.5584374893831
20
36.2033923015853
30
0
0
VERTEX
8
0
10
39.2349013049863
20
36.6706893361186
30
0
0
VERTEX
8
0
10
39.9113651205895
20
37.145698078539
30
0
0
VERTEX
8
0
10
40.5878289361927
20
37.615123323874
30
0
0
VERTEX
8
0
10
41.2642927517959
20
38.0822114878259
30
0
0
VERTEX
8
0
10
41.9407565673991
20
38.5420958129814
30
0
0
VERTEX
8
0
10
42.6172203830023
20
38.9961221009862
30
0
0
VERTEX
8
0
10
43.2936841986056
20
39.4478184286339
30
0
0
VERTEX
8
0
10
43.9701480142088
20
39.8971762435569
30
0
0
VERTEX
8
0
10
44.646611829812
20
40.3419341818241
30
0
0
VERTEX
8
0
10
45.3230756454152
20
40.7832738024471
30
0
0
VERTEX
8
0
10
45.9995394610184
20
41.2222650207352
30
0
0
VERTEX
8
0
10
46.6760032766216
20
41.6589013537964
30
0
0
VERTEX
8
0
10
47.3524670922248
20
42.0918962740276
30
0
0
VERTEX
8
0
10
48.028930907828
20
42.5221578307627
30
0
0
VERTEX
8
0
10
48.7053947234313
20
42.9500536888275
30
0
0
VERTEX
8
0
10
49.3818585390345
20
43.3755794593151
30
0
0
VERTEX
8
0
10
50.0583223546377
20
43.7972972856374
30
0
0
VERTEX
8
0
10
50.7347861702409
20
44.2164328244669
30
0
0
VERTEX
8
0
10
51.4112499858441
20
44.6331922330314
30
0
0
VERTEX
8
0
10
52.0877138014473
20
45.047572831927
30
0
0
VERTEX
8
0
10
52.7641776170505
20
45.4595724123636
30
0
0
VERTEX
8
0
10
53.4406414326537
20
45.8691892137613
30
0
0
VERTEX
8
0
10
54.117105248257
20
46.2764219028925
30
0
0
VERTEX
8
0
10
54.7935690638602
20
46.6812695544519
30
0
0
VERTEX
8
0
10
55.4700328794634
20
47.0872130943216
30
0
0
VERTEX
8
0
10
56.1464966950666
20
47.4905429276399
30
0
0
VERTEX
8
0
10
56.8229605106698
20
47.8914832675671
30
0
0
VERTEX
8
0
10
57.499424326273
20
48.2900352310602
30
0
0
VERTEX
8
0
10
58.1758881418762
20
48.6824081999366
30
0
0
VERTEX
8
0
10
58.8523519574794
20
49.0729401836423
30
0
0
VERTEX
8
0
10
59.5288157730826
20
49.4610914126824
30
0
0
VERTEX
8
0
10
60.2052795886859
20
49.8468636474152
30
0
0
VERTEX
8
0
10
60.8817434042891
20
50.2323102907874
30
0
0
VERTEX
8
0
10
61.5582072198923
20
50.6149524710196
30
0
0
VERTEX
8
0
10
62.2346710354955
20
50.9952219464304
30
0
0
VERTEX
8
0
10
62.9111348510987
20
51.3731217913171
30
0
0
VERTEX
8
0
10
63.5875986667019
20
51.7464467300439
30
0
0
VERTEX
8
0
10
64.2640624823051
20
52.117996412291
30
0
0
VERTEX
8
0
10
64.9405262979083
20
52.4871871321584
30
0
0
VERTEX
8
0
10
65.6169901135116
20
52.8540226645805
30
0
0
VERTEX
8
0
10
66.2934539291148
20
53.1759399035433
30
0
0
VERTEX
8
0
10
66.969917744718
20
53.5089557807223
30
0
0
VERTEX
8
0
10
67.6463815603212
20
53.8396516492408
30
0
0
VERTEX
8
0
10
68.3228453759244
20
54.1185550982868
30
0
0
VERTEX
8
0
10
68.9993091915276
20
54.3562758143078
30
0
0
VERTEX
8
0
10
69.6757730071308
20
54.5921043603772
30
0
0
VERTEX
8
0
10
70.352236822734
20
54.8260254681254
30
0
0
VERTEX
8
0
10
71.0287006383373
20
55.0549066543855
30
0
0
VERTEX
8
0
10
71.7051644539405
20
55.2802466375965
30
0
0
VERTEX
8
0
10
72.3816282695437
20
55.5036745863174
30
0
0
VERTEX
8
0
10
73.0580920851469
20
55.7251768888102
30
0
0
VERTEX
8
0
10
73.7345559007501
20
55.9506175476601
30
0
0
VERTEX
8
0
10
74.4110197163533
20
56.1759773279268
30
0
0
VERTEX
8
0
10
75.0874835319565
20
56.3993173829001
30
0
0
VERTEX
8
0
10
75.7639473475597
20
56.6206279775963
30
0
0
VERTEX
8
0
10
76.4404111631629
20
56.855620909285
30
0
0
VERTEX
8
0
10
77.1168749787662
20
57.0912053955755
30
0
0
VERTEX
8
0
10
77.7933387943694
20
57.3246265354688
30
0
0
VERTEX
8
0
10
78.4698026099726
20
57.5558799179392
30
0
0
VERTEX
8
0
10
79.1462664255758
20
57.7603875283864
30
0
0
VERTEX
8
0
10
79.822730241179
20
57.9615586033377
30
0
0
VERTEX
8
0
10
80.4991940567822
20
58.1606997955424
30
0
0
VERTEX
8
0
10
81.1756578723854
20
58.357803900682
30
0
0
VERTEX
8
0
10
81.8521216879886
20
58.5528641785721
30
0
0
VERTEX
8
0
10
82.5285855035919
20
58.7458743430335
30
0
0
VERTEX
8
0
10
83.2050493191951
20
58.9368285521976
30
0
0
VERTEX
8
0
10
83.8815131347983
20
59.1257213992253
30
0
0
VERTEX
8
0
10
84.5579769504015
20
59.3244288711356
30
0
0
VERTEX
8
0
10
85.2344407660047
20
59.5194952317087
30
0
0
VERTEX
8
0
10
85.9109045816079
20
59.7124281184334
30
0
0
VERTEX
8
0
10
86.5873683972111
20
59.9032254121147
30
0
0
VERTEX
8
0
10
87.2638322128144
20
60.1064794440929
30
0
0
VERTEX
8
0
10
87.9402960284175
20
60.3046828010578
30
0
0
VERTEX
8
0
10
88.6167598440208
20
60.5006957359583
30
0
0
VERTEX
8
0
10
89.293223659624
20
60.6945192689777
30
0
0
VERTEX
8
0
10
89.9696874752272
20
60.8237285778625
30
0
0
VERTEX
8
0
10
90.6461512908304
20
60.9669296638021
30
0
0
VERTEX
8
0
10
91.3226151064336
20
61.1082023033648
30
0
0
VERTEX
8
0
10
91.9990789220368
20
61.2475420366378
30
0
0
VERTEX
8
0
10
92.67554273764
20
61.4096620663251
30
0
0
VERTEX
8
0
10
93.3520065532433
20
61.5621643656033
30
0
0
VERTEX
8
0
10
94.0284703688465
20
61.7126111088121
30
0
0
VERTEX
8
0
10
94.7049341844497
20
61.8648122508854
30
0
0
VERTEX
8
0
10
95.3813980000529
20
62.0182187359466
30
0
0
VERTEX
8
0
10
96.0578618156561
20
62.1695324890746
30
0
0
VERTEX
8
0
10
96.7343256312593
20
62.3187550655303
30
0
0
VERTEX
8
0
10
97.4107894468625
20
62.4489391892331
30
0
0
VERTEX
8
0
10
98.0872532624657
20
62.5674017338595
30
0
0
VERTEX
8
0
10
98.763717078069
20
62.6839350532049
30
0
0
VERTEX
8
0
10
99.4401808936722
20
62.7985384635979
30
0
0
VERTEX
8
0
10
100.116644709275
20
62.927453306552
30
0
0
VERTEX
8
0
10
100.793108524879
20
63.0602607490486
30
0
0
VERTEX
8
0
10
101.469572340482
20
63.1910108824888
30
0
0
VERTEX
8
0
10
102.146036156085
20
63.3197072642872
30
0
0
VERTEX
8
0
10
102.822499971688
20
63.4497755260111
30
0
0
VERTEX
8
0
10
103.498963787291
20
63.5784815761393
30
0
0
VERTEX
8
0
10
104.175427602895
20
63.7051291714357
30
0
0
VERTEX
8
0
10
104.851891418498
20
63.8297235764392
30
0
0
VERTEX
8
0
10
105.528355234101
20
63.9282489678357
30
0
0
VERTEX
8
0
10
106.204819049704
20
64.0229990399815
30
0
0
VERTEX
8
0
10
106.881282865307
20
64.1158424710987
30
0
0
VERTEX
8
0
10
107.557746680911
20
64.2067826979115
30
0
0
VERTEX
8
0
10
108.234210496514
20
64.3179032795457
30
0
0
VERTEX
8
0
10
108.910674312117
20
64.4264591425087
30
0
0
VERTEX
8
0
10
109.58713812772
20
64.5330176967314
30
0
0
VERTEX
8
0
10
110.263601943324
20
64.6375861169797
30
0
0
VERTEX
8
0
10
110.940065758927
20
64.7311686625739
30
0
0
VERTEX
8
0
10
111.61652957453
20
64.8238033746518
30
0
0
VERTEX
8
0
10
112.292993390133
20
64.9145031880655
30
0
0
VERTEX
8
0
10
112.969457205736
20
65.0032756011787
30
0
0
VERTEX
8
0
10
113.64592102134
20
65.083663795591
30
0
0
VERTEX
8
0
10
114.322384836943
20
65.1633405353036
30
0
0
VERTEX
8
0
10
114.998848652546
20
65.2411377459462
30
0
0
VERTEX
8
0
10
115.675312468149
20
65.3170636223839
30
0
0
VERTEX
8
0
10
116.351776283752
20
65.3755741354191
30
0
0
VERTEX
8
0
10
117.028240099356
20
65.4360692377117
30
0
0
VERTEX
8
0
10
117.704703914959
20
65.4947801703546
30
0
0
VERTEX
8
0
10
118.381167730562
20
65.5517152704867
30
0
0
VERTEX
8
0
10
119.057631546165
20
65.6197251622626
30
0
0
VERTEX
8
0
10
119.734095361769
20
65.682137758078
30
0
0
VERTEX
8
0
10
120.410559177372
20
65.7427554294564
30
0
0
VERTEX
8
0
10
121.087022992975
20
65.8022513294642
30
0
0
VERTEX
8
0
10
121.763486808578
20
65.8605925324119
30
0
0
VERTEX
8
0
10
122.439950624181
20
65.9171658199206
30
0
0
VERTEX
8
0
10
123.116414439785
20
65.9719828594699
30
0
0
VERTEX
8
0
10
123.792878255388
20
66.0242739992631
30
0
0
VERTEX
8
0
10
124.469342070991
20
66.0743445919798
30
0
0
VERTEX
8
0
10
125.145805886594
20
66.122701288922
30
0
0
VERTEX
8
0
10
125.822269702197
20
66.1693569960064
30
0
0
VERTEX
8
0
10
126.498733517801
20
66.2089337149069
30
0
0
VERTEX
8
0
10
127.175197333404
20
66.2446756621643
30
0
0
VERTEX
8
0
10
127.851661149007
20
66.2787916596824
30
0
0
VERTEX
8
0
10
128.52812496461
20
66.3112953916863
30
0
0
VERTEX
8
0
10
129.204588780213
20
66.3492858392253
30
0
0
VERTEX
8
0
10
129.881052595817
20
66.387331159532
30
0
0
VERTEX
8
0
10
130.55751641142
20
66.423770045682
30
0
0
VERTEX
8
0
10
131.233980227023
20
66.4586183313003
30
0
0
VERTEX
8
0
10
131.910444042626
20
66.4975248771042
30
0
0
VERTEX
8
0
10
132.58690785823
20
66.5354329408589
30
0
0
VERTEX
8
0
10
133.263371673833
20
66.5717802906817
30
0
0
VERTEX
8
0
10
133.939835489436
20
66.6065846803596
30
0
0
VERTEX
8
0
10
134.616299305039
20
66.651040040419
30
0
0
VERTEX
8
0
10
135.292763120642
20
66.6939142258187
30
0
0
VERTEX
8
0
10
135.969226936246
20
66.7352793215934
30
0
0
VERTEX
8
0
10
136.645690751849
20
66.7751553242734
30
0
0
VERTEX
8
0
10
137.322154567452
20
66.8135625898146
30
0
0
VERTEX
8
0
10
137.998618383055
20
66.8505218370301
30
0
0
VERTEX
8
0
10
138.675082198658
20
66.8860541510644
30
0
0
VERTEX
8
0
10
139.351546014262
20
66.9201809869109
30
0
0
VERTEX
8
0
10
140.028009829865
20
66.9529241729681
30
0
0
VERTEX
8
0
10
140.704473645468
20
66.9843059146323
30
0
0
VERTEX
8
0
10
141.380937461071
20
67.0143487979235
30
0
0
VERTEX
8
0
10
142.057401276674
20
67.0430757931434
30
0
0
VERTEX
8
0
10
142.733865092278
20
67.0705102585589
30
0
0
VERTEX
8
0
10
143.410328907881
20
67.0966759441124
30
0
0
VERTEX
8
0
10
144.086792723484
20
67.121596995151
30
0
0
VERTEX
8
0
10
144.763256539087
20
67.1452979561752
30
0
0
VERTEX
8
0
10
145.43972035469
20
67.1678037746006
30
0
0
VERTEX
8
0
10
146.116184170294
20
67.1891398045307
30
0
0
VERTEX
8
0
10
146.792647985897
20
67.2093318105355
30
0
0
VERTEX
8
0
10
147.4691118015
20
67.228405971434
30
0
0
VERTEX
8
0
10
148.145575617103
20
67.2463888840729
30
0
0
VERTEX
8
0
10
148.822039432706
20
67.2633075671014
30
0
0
VERTEX
8
0
10
149.49850324831
20
67.2791894647351
30
0
0
VERTEX
8
0
10
150.174967063913
20
67.294062450503
30
0
0
VERTEX
8
0
10
150.851430879516
20
67.3079548309775
30
0
0
VERTEX
8
0
10
151.527894695119
20
67.3208953494769
30
0
0
VERTEX
8
0
10
152.204358510722
20
67.3329131897387
30
0
0
VERTEX
8
0
10
152.880822326326
20
67.3440379795575
30
0
0
VERTEX
8
0
10
153.557286141929
20
67.3542997943812
30
0
0
VERTEX
8
0
10
154.233749957532
20
67.36372916086
30
0
0
VERTEX
8
0
10
154.910213773135
20
67.3723570603437
30
0
0
SEQEND
8
0
0
POLYLINE
8
0
62
2
70
0
10
0
20
0
30
0
0
VERTEX
8
0
10
23.6762335461124
20
8.12633408725645
30
0
0
VERTEX
8
0
10
24.3526973617156
20
8.30937475918028
30
0
0
VERTEX
8
0
10
25.0291611773188
20
8.48976912944625
30
0
0
VERTEX
8
0
10
25.705624992922
20
8.66753753400579
30
0
0
VERTEX
8
0
10
26.3820888085253
20
8.842702461929
30
0
0
VERTEX
8
0
10
27.0585526241285
20
9.01528851915781
30
0
0
VERTEX
8
0
10
27.7350164397317
20
9.18532239464406
30
0
0
VERTEX
8
0
10
28.4114802553349
20
9.35283282845515
30
0
0
VERTEX
8
0
10
29.0879440709381
20
9.5178505815359
30
0
0
VERTEX
8
0
10
29.7644078865413
20
9.68040840693008
30
0
0
VERTEX
8
0
10
30.4408717021445
20
9.84054102216921
30
0
0
VERTEX
8
0
10
31.1173355177477
20
9.99828508292233
30
0
0
VERTEX
8
0
10
31.793799333351
20
10.1536791572034
30
0
0
VERTEX
8
0
10
32.4702631489542
20
10.3067637004579
30
0
0
VERTEX
8
0
10
33.1467269645574
20
10.4575810311498
30
0
0
VERTEX
8
0
10
33.8231907801606
20
10.6061753065406
30
0
0
VERTEX
8
0
10
34.4996545957638
20
10.7525924989035
30
0
0
VERTEX
8
0
10
35.176118411367
20
10.8968803715149
30
0
0
VERTEX
8
0
10
35.8525822269702
20
11.0390884546849
30
0
0
VERTEX
8
0
10
36.5290460425734
20
11.1792680213947
30
0
0
VERTEX
8
0
10
37.2055098581766
20
11.317472062696
30
0
0
VERTEX
8
0
10
37.8819736737799
20
11.4537552622795
30
0
0
VERTEX
8
0
10
38.5584374893831
20
11.5881739705768
30
0
0
VERTEX
8
0
10
39.2349013049863
20
11.7207861778733
30
0
0
VERTEX
8
0
10
39.9113651205895
20
11.8516514864122
30
0
0
VERTEX
8
0
10
40.5878289361927
20
11.9808310815501
30
0
0
VERTEX
8
0
10
41.2642927517959
20
12.108387701409
30
0
0
VERTEX
8
0
10
41.9407565673991
20
12.2343856053348
30
0
0
VERTEX
8
0
10
42.6172203830023
20
12.3588905407916
30
0
0
VERTEX
8
0
10
43.2936841986056
20
12.4819697085804
30
0
0
VERTEX
8
0
10
43.9701480142088
20
12.6036917264031
30
0
0
VERTEX
8
0
10
44.646611829812
20
12.7241265905126
30
0
0
VERTEX
8
0
10
45.3230756454152
20
12.8433456354732
30
0
0
VERTEX
8
0
10
45.9995394610184
20
12.9614214917211
30
0
0
VERTEX
8
0
10
46.6760032766216
20
13.0784280412748
30
0
0
VERTEX
8
0
10
47.3524670922248
20
13.1944403709206
30
0
0
VERTEX
8
0
10
48.028930907828
20
13.3095347233993
30
0
0
VERTEX
8
0
10
48.7053947234313
20
13.4237884459645
30
0
0
VERTEX
8
0
10
49.3818585390345
20
13.5372799368618
30
0
0
VERTEX
8
0
10
50.0583223546377
20
13.6500885890896
30
0
0
VERTEX
8
0
10
50.7347861702409
20
13.7622947320147
30
0
0
VERTEX
8
0
10
51.4112499858441
20
13.8739795702749
30
0
0
VERTEX
8
0
10
52.0877138014473
20
13.9852251204315
30
0
0
VERTEX
8
0
10
52.7641776170505
20
14.0961141451096
30
0
0
VERTEX
8
0
10
53.4406414326537
20
14.2067300847908
30
0
0
VERTEX
8
0
10
54.117105248257
20
14.3171569873222
30
0
0
VERTEX
8
0
10
54.7935690638602
20
14.427479435119
30
0
0
VERTEX
8
0
10
55.4700328794634
20
14.5377824704165
30
0
0
VERTEX
8
0
10
56.1464966950666
20
14.6481515181445
30
0
0
VERTEX
8
0
10
56.8229605106698
20
14.7586723074169
30
0
0
VERTEX
8
0
10
57.499424326273
20
14.8694307909015
30
0
0
VERTEX
8
0
10
58.1758881418762
20
14.9805130627737
30
0
0
VERTEX
8
0
10
58.8523519574794
20
15.0920052754508
30
0
0
VERTEX
8
0
10
59.5288157730826
20
15.2039935551253
30
0
0
VERTEX
8
0
10
60.2052795886859
20
15.3165639164228
30
0
0
VERTEX
8
0
10
60.8817434042891
20
15.4298021765222
30
0
0
VERTEX
8
0
10
61.5582072198923
20
15.5437938689446
30
0
0
VERTEX
8
0
10
62.2346710354955
20
15.6586241573741
30
0
0
VERTEX
8
0
10
62.9111348510987
20
15.7743777497768
30
0
0
VERTEX
8
0
10
63.5875986667019
20
15.8911388132607
30
0
0
VERTEX
8
0
10
64.2640624823051
20
16.0089908899628
30
0
0
VERTEX
8
0
10
64.9405262979083
20
16.1280168143263
30
0
0
VERTEX
8
0
10
65.6169901135116
20
16.2482986323293
30
0
0
VERTEX
8
0
10
66.2934539291148
20
16.3699175228784
30
0
0
VERTEX
8
0
10
66.969917744718
20
16.4929537218437
30
0
0
VERTEX
8
0
10
67.6463815603212
20
16.6174864494606
30
0
0
VERTEX
8
0
10
68.3228453759244
20
16.7435938409687
30
0
0
VERTEX
8
0
10
68.9993091915276
20
16.8713528816563
30
0
0
VERTEX
8
0
10
69.6757730071308
20
17.0008393461397
30
0
0
VERTEX
8
0
10
70.352236822734
20
17.1321277430326
30
0
0
VERTEX
8
0
10
71.0287006383373
20
17.2652912647685
30
0
0
VERTEX
8
0
10
71.7051644539405
20
17.4004017437961
30
0
0
VERTEX
8
0
10
72.3816282695437
20
17.5375296152961
30
0
0
VERTEX
8
0
10
73.0580920851469
20
17.6767438869869
30
0
0
VERTEX
8
0
10
73.7345559007501
20
17.8181121167438
30
0
0
VERTEX
8
0
10
74.4110197163533
20
17.9617003985058
30
0
0
VERTEX
8
0
10
75.0874835319565
20
18.1075733572673
30
0
0
VERTEX
8
0
10
75.7639473475597
20
18.2557941535051
30
0
0
VERTEX
8
0
10
76.4404111631629
20
18.4064244981487
30
0
0
VERTEX
8
0
10
77.1168749787662
20
18.5595246785364
30
0
0
VERTEX
8
0
10
77.7933387943694
20
18.7151535963941
30
0
0
VERTEX
8
0
10
78.4698026099726
20
18.8733688186451
30
0
0
VERTEX
8
0
10
79.1462664255758
20
19.0342266421029
30
0
0
VERTEX
8
0
10
79.822730241179
20
19.1977821732831
30
0
0
VERTEX
8
0
10
80.4991940567822
20
19.3640894244433
30
0
0
VERTEX
8
0
10
81.1756578723854
20
19.5332014275391
30
0
0
VERTEX
8
0
10
81.8521216879886
20
19.70517036773
30
0
0
VERTEX
8
0
10
82.5285855035919
20
19.880047738352
30
0
0
VERTEX
8
0
10
83.2050493191951
20
20.0578845198685
30
0
0
VERTEX
8
0
10
83.8815131347983
20
20.2387313854175
30
0
0
VERTEX
8
0
10
84.5579769504015
20
20.4226389363514
30
0
0
VERTEX
8
0
10
85.2344407660047
20
20.6096579714576
30
0
0
VERTEX
8
0
10
85.9109045816079
20
20.7998397948697
30
0
0
VERTEX
8
0
10
86.5873683972111
20
20.9932365680699
30
0
0
VERTEX
8
0
10
87.2638322128144
20
21.1899017129755
30
0
0
VERTEX
8
0
10
87.9402960284175
20
21.3898903744271
30
0
0
VERTEX
8
0
10
88.6167598440208
20
21.5932599526814
30
0
0
VERTEX
8
0
10
89.293223659624
20
21.8000707181729
30
0
0
VERTEX
8
0
10
89.9696874752272
20
22.0103865250573
30
0
0
VERTEX
8
0
10
90.6461512908304
20
22.2242756430383
30
0
0
VERTEX
8
0
10
91.3226151064336
20
22.4418117332308
30
0
0
VERTEX
8
0
10
91.9990789220368
20
22.6630749997157
30
0
0
VERTEX
8
0
10
92.67554273764
20
22.8881535593023
30
0
0
VERTEX
8
0
10
93.3520065532433
20
23.1171450830246
30
0
0
VERTEX
8
0
10
94.0284703688465
20
23.350158781183
30
0
0
VERTEX
8
0
10
94.7049341844497
20
23.587317827573
30
0
0
VERTEX
8
0
10
95.3813980000529
20
23.8287623519869
30
0
0
VERTEX
8
0
10
96.0578618156561
20
24.0746531790932
30
0
0
VERTEX
8
0
10
96.7343256312593
20
24.3251765628336
30
0
0
VERTEX
8
0
10
97.4107894468625
20
24.5805502721575
30
0
0
VERTEX
8
0
10
98.0872532624657
20
24.8410315476902
30
0
0
VERTEX
8
0
10
98.763717078069
20
25.1069277081302
30
0
0
VERTEX
8
0
10
99.4401808936722
20
25.378610607167
30
0
0
VERTEX
8
0
10
100.116644709275
20
25.6565368581933
30
0
0
VERTEX
8
0
10
100.793108524879
20
25.9412770118421
30
0
0
VERTEX
8
0
10
101.469572340482
20
26.233559237709
30
0
0
VERTEX
8
0
10
102.146036156085
20
26.5343377655794
30
0
0
VERTEX
8
0
10
102.822499971688
20
26.8449064283007
30
0
0
VERTEX
8
0
10
103.498963787291
20
27.1671012243567
30
0
0
VERTEX
8
0
10
104.175427602895
20
27.50369491595
30
0
0
VERTEX
8
0
10
104.851891418498
20
27.8592224757069
30
0
0
VERTEX
8
0
10
105.528355234101
20
28.2414085578993
30
0
0
VERTEX
8
0
10
106.204819049704
20
28.6576881081028
30
0
0
VERTEX
8
0
10
106.881282865307
20
29.0819950990552
30
0
0
VERTEX
8
0
10
107.557746680911
20
29.4691341770415
30
0
0
VERTEX
8
0
10
108.234210496514
20
29.8189040016472
30
0
0
VERTEX
8
0
10
108.910674312117
20
30.1419637225184
30
0
0
VERTEX
8
0
10
109.58713812772
20
30.4450583681005
30
0
0
VERTEX
8
0
10
110.263601943324
20
30.7322416468465
30
0
0
VERTEX
8
0
10
110.940065758927
20
31.0061601665148
30
0
0
VERTEX
8
0
10
111.61652957453
20
31.2686712907782
30
0
0
VERTEX
8
0
10
112.292993390133
20
31.5211492396314
30
0
0
VERTEX
8
0
10
112.969457205736
20
31.7646512702537
30
0
0
VERTEX
8
0
10
113.64592102134
20
32.0000155107474
30
0
0
VERTEX
8
0
10
114.322384836943
20
32.2279223658896
30
0
0
VERTEX
8
0
10
114.998848652546
20
32.4489350608047
30
0
0
VERTEX
8
0
10
115.675312468149
20
32.6635275293645
30
0
0
VERTEX
8
0
10
116.351776283752
20
32.8721042627695
30
0
0
VERTEX
8
0
10
117.028240099356
20
33.0750148536742
30
0
0
VERTEX
8
0
10
117.704703914959
20
33.2725649312795
30
0
0
VERTEX
8
0
10
118.381167730562
20
33.4650245787943
30
0
0
VERTEX
8
0
10
119.057631546165
20
33.6526349604322
30
0
0
VERTEX
8
0
10
119.734095361769
20
33.8356136588392
30
0
0
VERTEX
8
0
10
120.410559177372
20
34.0141590788665
30
0
0
VERTEX
8
0
10
121.087022992975
20
34.1884541814044
30
0
0
VERTEX
8
0
10
121.763486808578
20
34.3586697512063
30
0
0
VERTEX
8
0
10
122.439950624181
20
34.5249673675528
30
0
0
VERTEX
8
0
10
123.116414439785
20
34.6875022294724
30
0
0
VERTEX
8
0
10
123.792878255388
20
34.8464259871527
30
0
0
VERTEX
8
0
10
124.469342070991
20
35.0018897498573
30
0
0
VERTEX
8
0
10
125.145805886594
20
35.154047483963
30
0
0
VERTEX
8
0
10
125.822269702197
20
35.3030600961811
30
0
0
VERTEX
8
0
10
126.498733517801
20
35.4491006422614
30
0
0
VERTEX
8
0
10
127.175197333404
20
35.5923613630425
30
0
0
VERTEX
8
0
10
127.851661149007
20
35.733063736028
30
0
0
VERTEX
8
0
10
128.52812496461
20
35.8714736791519
30
0
0
VERTEX
8
0
10
129.204588780213
20
36.0079259950795
30
0
0
VERTEX
8
0
10
129.881052595817
20
36.1428663179359
30
0
0
VERTEX
8
0
10
130.55751641142
20
36.2769273776921
30
0
0
VERTEX
8
0
10
131.233980227023
20
36.4110666110122
30
0
0
VERTEX
8
0
10
131.910444042626
20
36.5467263794993
30
0
0
VERTEX
8
0
10
132.58690785823
20
36.6851961265697
30
0
0
VERTEX
8
0
10
133.263371673833
20
36.8231496104616
30
0
0
VERTEX
8
0
10
133.939835489436
20
36.9513779711463
30
0
0
VERTEX
8
0
10
134.616299305039
20
37.0665318273351
30
0
0
VERTEX
8
0
10
135.292763120642
20
37.1703772878513
30
0
0
VERTEX
8
0
10
135.969226936246
20
37.2648285170707
30
0
0
VERTEX
8
0
10
136.645690751849
20
37.3511892632683
30
0
0
VERTEX
8
0
10
137.322154567452
20
37.4303470856738
30
0
0
VERTEX
8
0
10
137.998618383055
20
37.5029415082411
30
0
0
VERTEX
8
0
10
138.675082198658
20
37.5694581693788
30
0
0
VERTEX
8
0
10
139.351546014262
20
37.6302812152589
30
0
0
VERTEX
8
0
10
140.028009829865
20
37.6857241366057
30
0
0
VERTEX
8
0
10
140.704473645468
20
37.736049039822
30
0
0
VERTEX
8
0
10
141.380937461071
20
37.7814793313981
30
0
0
VERTEX
8
0
10
142.057401276674
20
37.8222084326561
30
0
0
VERTEX
8
0
10
142.733865092278
20
37.8584059831949
30
0
0
VERTEX
8
0
10
143.410328907881
20
37.890222389376
30
0
0
VERTEX
8
0
10
144.086792723484
20
37.9177922442034
30
0
0
VERTEX
8
0
10
144.763256539087
20
37.9412369545763
30
0
0
VERTEX
8
0
10
145.43972035469
20
37.9606667977725
30
0
0
VERTEX
8
0
10
146.116184170294
20
37.9761825577813
30
0
0
VERTEX
8
0
10
146.792647985897
20
37.9878768463811
30
0
0
VERTEX
8
0
10
147.4691118015
20
37.9958351835494
30
0
0
VERTEX
8
0
10
148.145575617103
20
38.0001368914835
30
0
0
VERTEX
8
0
10
148.822039432706
20
38.000855842146
30
0
0
VERTEX
8
0
10
149.49850324831
20
37.9980610884098
30
0
0
VERTEX
8
0
10
150.174967063913
20
37.9918174015994
30
0
0
VERTEX
8
0
10
150.851430879516
20
37.9821857330924
30
0
0
VERTEX
8
0
10
151.527894695119
20
37.9692236136661
30
0
0
VERTEX
8
0
10
152.204358510722
20
37.9529855014514
30
0
0
VERTEX
8
0
10
152.880822326326
20
37.9335230871338
30
0
0
VERTEX
8
0
10
153.557286141929
20
37.9108855633116
30
0
0
VERTEX
8
0
10
154.233749957532
20
37.8851198636812
30
0
0
VERTEX
8
0
10
154.910213773135
20
37.8562708766227
30
0
0
SEQEND
8
0
0
POLYLINE
8
0
62
3
70
0
10
0
20
0
30
0
0
VERTEX
8
0
10
23.6762335461124
20
15.6261091837133
30
0
0
VERTEX
8
0
10
24.3526973617156
20
16.0328663530945
30
0
0
VERTEX
8
0
10
25.0291611773188
20
16.4374119743404
30
0
0
VERTEX
8
0
10
25.705624992922
20
16.8397635290707
30
0
0
VERTEX
8
0
10
26.3820888085253
20
17.2399404984146
30
0
0
VERTEX
8
0
10
27.0585526241285
20
17.6379643037833
30
0
0
VERTEX
8
0
10
27.7350164397317
20
18.0338582490829
30
0
0
VERTEX
8
0
10
28.4114802553349
20
18.4276474641278
30
0
0
VERTEX
8
0
10
29.0879440709381
20
18.8193588490826
30
0
0
VERTEX
8
0
10
29.7644078865413
20
19.2090210198217
30
0
0
VERTEX
8
0
10
30.4408717021445
20
19.5966642540533
30
0
0
VERTEX
8
0
10
31.1173355177477
20
19.9823204382567
30
0
0
VERTEX
8
0
10
31.793799333351
20
20.3660230150795
30
0
0
VERTEX
8
0
10
32.4702631489542
20
20.7478069313672
30
0
0
VERTEX
8
0
10
33.1467269645574
20
21.1277085866475
30
0
0
VERTEX
8
0
10
33.8231907801606
20
21.5057657819307
30
0
0
VERTEX
8
0
10
34.4996545957638
20
21.8820176689703
30
0
0
VERTEX
8
0
10
35.176118411367
20
22.2565046996769
30
0
0
VERTEX
8
0
10
35.8525822269702
20
22.6292685758475
30
0
0
VERTEX
8
0
10
36.5290460425734
20
23.0003521990258
30
0
0
VERTEX
8
0
10
37.2055098581766
20
23.3697996206043
30
0
0
VERTEX
8
0
10
37.8819736737799
20
23.7376559919154
30
0
0
VERTEX
8
0
10
38.5584374893831
20
24.1039675145317
30
0
0
VERTEX
8
0
10
39.2349013049863
20
24.4687813905625
30
0
0
VERTEX
8
0
10
39.9113651205895
20
24.8321457729846
30
0
0
VERTEX
8
0
10
40.5878289361927
20
25.1941097160847
30
0
0
VERTEX
8
0
10
41.2642927517959
20
25.5547231257964
30
0
0
VERTEX
8
0
10
41.9407565673991
20
25.9140367101335
30
0
0
VERTEX
8
0
10
42.6172203830023
20
26.2721019295962
30
0
0
VERTEX
8
0
10
43.2936841986056
20
26.6289709475515
30
0
0
VERTEX
8
0
10
43.9701480142088
20
26.9846965806563
30
0
0
VERTEX
8
0
10
44.646611829812
20
27.3393322492536
30
0
0
VERTEX
8
0
10
45.3230756454152
20
27.6929319278136
30
0
0
VERTEX
8
0
10
45.9995394610184
20
28.0455500953268
30
0
0
VERTEX
8
0
10
46.6760032766216
20
28.3972416858738
30
0
0
VERTEX
8
0
10
47.3524670922248
20
28.748062039105
30
0
0
VERTEX
8
0
10
48.028930907828
20
29.0980668509327
30
0
0
VERTEX
8
0
10
48.7053947234313
20
29.4473121241942
30
0
0
VERTEX
8
0
10
49.3818585390345
20
29.7958541195854
30
0
0
VERTEX
8
0
10
50.0583223546377
20
30.1437493066189
30
0
0
VERTEX
8
0
10
50.7347861702409
20
30.4910543149103
30
0
0
VERTEX
8
0
10
51.4112499858441
20
30.8378258855695
30
0
0
VERTEX
8
0
10
52.0877138014473
20
31.1841208229441
30
0
0
VERTEX
8
0
10
52.7641776170505
20
31.5299959466214
30
0
0
VERTEX
8
0
10
53.4406414326537
20
31.8755080437894
30
0
0
VERTEX
8
0
10
54.117105248257
20
32.220713822
30
0
0
VERTEX
8
0
10
54.7935690638602
20
32.565669862339
30
0
0
VERTEX
8
0
10
55.4700328794634
20
32.9104325731632
30
0
0
VERTEX
8
0
10
56.1464966950666
20
33.2550581442145
30
0
0
VERTEX
8
0
10
56.8229605106698
20
33.599602501545
30
0
0
VERTEX
8
0
10
57.499424326273
20
33.9441212629072
30
0
0
VERTEX
8
0
10
58.1758881418762
20
34.2886696939017
30
0
0
VERTEX
8
0
10
58.8523519574794
20
34.6333026649359
30
0
0
VERTEX
8
0
10
59.5288157730826
20
34.978074608966
30
0
0
VERTEX
8
0
10
60.2052795886859
20
35.3230394801177
30
0
0
VERTEX
8
0
10
60.8817434042891
20
35.6682507132855
30
0
0
VERTEX
8
0
10
61.5582072198923
20
36.0137611847372
30
0
0
VERTEX
8
0
10
62.2346710354955
20
36.3596231738224
30
0
0
VERTEX
8
0
10
62.9111348510987
20
36.7058883258251
30
0
0
VERTEX
8
0
10
63.5875986667019
20
37.0526076160785
30
0
0
VERTEX
8
0
10
64.2640624823051
20
37.3998313153851
30
0
0
VERTEX
8
0
10
64.9405262979083
20
37.7476089568109
30
0
0
VERTEX
8
0
10
65.6169901135116
20
38.0959893040096
30
0
0
VERTEX
8
0
10
66.2934539291148
20
38.4450203210765
30
0
0
VERTEX
8
0
10
66.969917744718
20
38.7947491440406
30
0
0
VERTEX
8
0
10
67.6463815603212
20
39.145222054217
30
0
0
VERTEX
8
0
10
68.3228453759244
20
39.4964844532631
30
0
0
VERTEX
8
0
10
68.9993091915276
20
39.8485808403527
30
0
0
VERTEX
8
0
10
69.6757730071308
20
40.2015547912951
30
0
0
VERTEX
8
0
10
70.352236822734
20
40.5554489400128
30
0
0
VERTEX
8
0
10
71.0287006383373
20
40.9103049621847
30
0
0
VERTEX
8
0
10
71.7051644539405
20
41.2661635615013
30
0
0
VERTEX
8
0
10
72.3816282695437
20
41.6230644585172
30
0
0
VERTEX
8
0
10
73.0580920851469
20
41.9810463822822
30
0
0
VERTEX
8
0
10
73.7345559007501
20
42.3401470649949
30
0
0
VERTEX
8
0
10
74.4110197163533
20
42.7004032398375
30
0
0
VERTEX
8
0
10
75.0874835319565
20
43.0618506422896
30
0
0
VERTEX
8
0
10
75.7639473475597
20
43.4245240150426
30
0
0
VERTEX
8
0
10
76.4404111631629
20
43.7884571169718
30
0
0
VERTEX
8
0
10
77.1168749787662
20
44.1536827363507
30
0
0
VERTEX
8
0
10
77.7933387943694
20
44.5202327087603
30
0
0
VERTEX
8
0
10
78.4698026099726
20
44.888137940065
30
0
0
VERTEX
8
0
10
79.1462664255758
20
45.2574284349429
30
0
0
VERTEX
8
0
10
79.822730241179
20
45.6281333315578
30
0
0
VERTEX
8
0
10
80.4991940567822
20
46.0002809429246
30
0
0
VERTEX
8
0
10
81.1756578723854
20
46.3738988057805
30
0
0
VERTEX
8
0
10
81.8521216879886
20
46.7490137377847
30
0
0
VERTEX
8
0
10
82.5285855035919
20
47.1256519040019
30
0
0
VERTEX
8
0
10
83.2050493191951
20
47.5038388939159
30
0
0
VERTEX
8
0
10
83.8815131347983
20
47.8835998102883
30
0
0
VERTEX
8
0
10
84.5579769504015
20
48.2649593715493
30
0
0
VERTEX
8
0
10
85.2344407660047
20
48.6479420295704
30
0
0
VERTEX
8
0
10
85.9109045816079
20
49.0325721052806
30
0
0
VERTEX
8
0
10
86.5873683972111
20
49.4188739448133
30
0
0
VERTEX
8
0
10
87.2638322128144
20
49.8068720996178
30
0
0
VERTEX
8
0
10
87.9402960284175
20
50.1965915346202
30
0
0
VERTEX
8
0
10
88.6167598440208
20
50.5880578696014
30
0
0
VERTEX
8
0
10
89.293223659624
20
50.9812976597918
30
0
0
VERTEX
8
0
10
89.9696874752272
20
51.3763387236784
30
0
0
VERTEX
8
0
10
90.6461512908304
20
51.7732105274901
30
0
0
VERTEX
8
0
10
91.3226151064336
20
52.1719446387956
30
0
0
VERTEX
8
0
10
91.9990789220368
20
52.5725752645064
30
0
0
VERTEX
8
0
10
92.67554273764
20
52.9751398937275
30
0
0
VERTEX
8
0
10
93.3520065532433
20
53.3796800712233
30
0
0
VERTEX
8
0
10
94.0284703688465
20
53.7862423359701
30
0
0
VERTEX
8
0
10
94.7049341844497
20
54.1948793706694
30
0
0
VERTEX
8
0
10
95.3813980000529
20
54.6056514240855
30
0
0
VERTEX
8
0
10
96.0578618156561
20
55.0186280914611
30
0
0
VERTEX
8
0
10
96.7343256312593
20
55.433890572179
30
0
0
VERTEX
8
0
10
97.4107894468625
20
55.8515345747116
30
0
0
VERTEX
8
0
10
98.0872532624657
20
56.2716741169656
30
0
0
VERTEX
8
0
10
98.763717078069
20
56.6944465935745
30
0
0
VERTEX
8
0
10
99.4401808936722
20
57.1200196825378
30
0
0
VERTEX
8
0
10
100.116644709275
20
57.5486010043005
30
0
0
VERTEX
8
0
10
100.793108524879
20
57.9804520486962
30
0
0
VERTEX
8
0
10
101.469572340482
20
58.4159090083582
30
0
0
VERTEX
8
0
10
102.146036156085
20
58.8554153876625
30
0
0
VERTEX
8
0
10
102.822499971688
20
59.2995760336433
30
0
0
VERTEX
8
0
10
103.498963787291
20
59.7492533860156
30
0
0
VERTEX
8
0
10
104.175427602895
20
60.2057546337953
30
0
0
VERTEX
8
0
10
104.851891418498
20
60.6712221554183
30
0
0
VERTEX
8
0
10
105.528355234101
20
61.1493031171043
30
0
0
VERTEX
8
0
10
106.204819049704
20
61.6434502028932
30
0
0
VERTEX
8
0
10
106.881282865307
20
62.1409076779797
30
0
0
VERTEX
8
0
10
107.557746680911
20
62.6193050364457
30
0
0
VERTEX
8
0
10
108.234210496514
20
63.0778361972976
30
0
0
VERTEX
8
0
10
108.910674312117
20
63.5212681479794
30
0
0
VERTEX
8
0
10
109.58713812772
20
63.9526720234053
30
0
0
VERTEX
8
0
10
110.263601943324
20
64.3739002183033
30
0
0
VERTEX
8
0
10
110.940065758927
20
64.7861647984369
30
0
0
VERTEX
8
0
10
111.61652957453
20
65.1903186579551
30
0
0
VERTEX
8
0
10
112.292993390133
20
65.5869949204333
30
0
0
VERTEX
8
0
10
112.969457205736
20
65.9766825452446
30
0
0
VERTEX
8
0
10
113.64592102134
20
66.3597707915352
30
0
0
VERTEX
8
0
10
114.322384836943
20
66.7365771050523
30
0
0
VERTEX
8
0
10
114.998848652546
20
67.1073655234766
30
0
0
VERTEX
8
0
10
115.675312468149
20
67.4723593366233
30
0
0
VERTEX
8
0
10
116.351776283752
20
67.831750100405
30
0
0
VERTEX
8
0
10
117.028240099356
20
68.185704247186
30
0
0
VERTEX
8
0
10
117.704703914959
20
68.5343680621073
30
0
0
VERTEX
8
0
10
118.381167730562
20
68.8778715204855
30
0
0
VERTEX
8
0
10
119.057631546165
20
69.2163313160726
30
0
0
VERTEX
8
0
10
119.734095361769
20
69.5498533074212
30
0
0
VERTEX
8
0
10
120.410559177372
20
69.8785345439772
30
0
0
VERTEX
8
0
10
121.087022992975
20
70.2024649919684
30
0
0
VERTEX
8
0
10
121.763486808578
20
70.5217290533205
30
0
0
VERTEX
8
0
10
122.439950624181
20
70.836406955362
30
0
0
VERTEX
8
0
10
123.116414439785
20
71.1465760818681
30
0
0
VERTEX
8
0
10
123.792878255388
20
71.4523123168085
30
0
0
VERTEX
8
0
10
124.469342070991
20
71.7536914818956
30
0
0
VERTEX
8
0
10
125.145805886594
20
72.0507909706394
30
0
0
VERTEX
8
0
10
125.822269702197
20
72.3436917217466
30
0
0
VERTEX
8
0
10
126.498733517801
20
72.6324807459249
30
0
0
VERTEX
8
0
10
127.175197333404
20
72.9172545481709
30
0
0
VERTEX
8
0
10
127.851661149007
20
73.1981240254361
30
0
0
VERTEX
8
0
10
128.52812496461
20
73.4752218830724
30
0
0
VERTEX
8
0
10
129.204588780213
20
73.7487145659398
30
0
0
VERTEX
8
0
10
129.881052595817
20
74.0188227289215
30
0
0
VERTEX
8
0
10
130.55751641142
20
74.2858583779835
30
0
0
VERTEX
8
0
10
131.233980227023
20
74.5502913278672
30
0
0
VERTEX
8
0
10
131.910444042626
20
74.8128225684426
30
0
0
VERTEX
8
0
10
132.58690785823
20
75.0740455822212
30
0
0
VERTEX
8
0
10
133.263371673833
20
75.332181614934
30
0
0
VERTEX
8
0
10
133.939835489436
20
75.5824643591116
30
0
0
VERTEX
8
0
10
134.616299305039
20
75.823105089332
30
0
0
VERTEX
8
0
10
135.292763120642
20
76.0549503317699
30
0
0
VERTEX
8
0
10
135.969226936246
20
76.2789602451322
30
0
0
VERTEX
8
0
10
136.645690751849
20
76.4958042852958
30
0
0
VERTEX
8
0
10
137.322154567452
20
76.7059495731413
30
0
0
VERTEX
8
0
10
137.998618383055
20
76.9097419250749
30
0
0
VERTEX
8
0
10
138.675082198658
20
77.107451656364
30
0
0
VERTEX
8
0
10
139.351546014262
20
77.299299149439
30
0
0
VERTEX
8
0
10
140.028009829865
20
77.4854699248477
30
0
0
VERTEX
8
0
10
140.704473645468
20
77.6661240710964
30
0
0
VERTEX
8
0
10
141.380937461071
20
77.8414024599723
30
0
0
VERTEX
8
0
10
142.057401276674
20
78.0114310239586
30
0
0
VERTEX
8
0
10
142.733865092278
20
78.176323807344
30
0
0
VERTEX
8
0
10
143.410328907881
20
78.3361852089174
30
0
0
VERTEX
8
0
10
144.086792723484
20
78.4911116731267
30
0
0
VERTEX
8
0
10
144.763256539087
20
78.6411929936764
30
0
0
VERTEX
8
0
10
145.43972035469
20
78.786513337862
30
0
0
VERTEX
8
0
10
146.116184170294
20
78.9271520651687
30
0
0
VERTEX
8
0
10
146.792647985897
20
79.063184391353
30
0
0
VERTEX
8
0
10
147.4691118015
20
79.194681934435
30
0
0
VERTEX
8
0
10
148.145575617103
20
79.321713169118
30
0
0
VERTEX
8
0
10
148.822039432706
20
79.444343809143
30
0
0
VERTEX
8
0
10
149.49850324831
20
79.5626371322767
30
0
0
VERTEX
8
0
10
150.174967063913
20
79.6766542590903
30
0
0
VERTEX
8
0
10
150.851430879516
20
79.7864543941649
30
0
0
VERTEX
8
0
10
151.527894695119
20
79.8920950364316
30
0
0
VERTEX
8
0
10
152.204358510722
20
79.9936321639613
30
0
0
VERTEX
8
0
10
152.880822326326
20
80.0911203974464
30
0
0
VERTEX
8
0
10
153.557286141929
20
80.1846131457567
30
0
0
VERTEX
8
0
10
154.233749957532
20
80.274162736359
30
0
0
VERTEX
8
0
10
154.910213773135
20
80.3598205328436
30
0
0
SEQEND
8
0
0
POLYLINE
8
0
62
4
70
0
10
0
20
0
30
0
0
VERTEX
8
0
10
23.6762335461124
20
16.0590490193344
30
0
0
VERTEX
8
0
10
24.3526973617156
20
16.3631302185075
30
0
0
VERTEX
8
0
10
25.0291611773188
20
16.6687471690487
30
0
0
VERTEX
8
0
10
25.705624992922
20
16.975750139575
30
0
0
VERTEX
8
0
10
26.3820888085253
20
17.2840009991742
30
0
0
VERTEX
8
0
10
27.0585526241285
20
17.5933723974125
30
0
0
VERTEX
8
0
10
27.7350164397317
20
17.9037470030788
30
0
0
VERTEX
8
0
10
28.4114802553349
20
18.2150167983674
30
0
0
VERTEX
8
0
10
29.0879440709381
20
18.5270824250847
30
0
0
VERTEX
8
0
10
29.7644078865413
20
18.8398525794428
30
0
0
VERTEX
8
0
10
30.4408717021445
20
19.1532434520595
30
0
0
VERTEX
8
0
10
31.1173355177477
20
19.4671782098849
30
0
0
VERTEX
8
0
10
31.793799333351
20
19.7815865169118
30
0
0
VERTEX
8
0
10
32.4702631489542
20
20.0964040906904
30
0
0
VERTEX
8
0
10
33.1467269645574
20
20.4115722918385
30
0
0
VERTEX
8
0
10
33.8231907801606
20
20.7270377439171
30
0
0
VERTEX
8
0
10
34.4996545957638
20
21.0427519812245
30
0
0
VERTEX
8
0
10
35.176118411367
20
21.358671122232
30
0
0
VERTEX
8
0
10
35.8525822269702
20
21.6747555665599
30
0
0
VERTEX
8
0
10
36.5290460425734
20
21.990969713556
30
0
0
VERTEX
8
0
10
37.2055098581766
20
22.3072817006886
30
0
0
VERTEX
8
0
10
37.8819736737799
20
22.623663160113
30
0
0
VERTEX
8
0
10
38.5584374893831
20
22.9400889919105
30
0
0
VERTEX
8
0
10
39.2349013049863
20
23.2565371526175
30
0
0
VERTEX
8
0
10
39.9113651205895
20
23.5741799378129
30
0
0
VERTEX
8
0
10
40.5878289361927
20
23.8916458899344
30
0
0
VERTEX
8
0
10
41.2642927517959
20
24.2090577455784
30
0
0
VERTEX
8
0
10
41.9407565673991
20
24.5264048791156
30
0
0
VERTEX
8
0
10
42.6172203830023
20
24.857236221203
30
0
0
VERTEX
8
0
10
43.2936841986056
20
25.1852352135864
30
0
0
VERTEX
8
0
10
43.9701480142088
20
25.512919182925
30
0
0
VERTEX
8
0
10
44.646611829812
20
25.8402941241805
30
0
0
VERTEX
8
0
10
45.3230756454152
20
26.2178431939717
30
0
0
VERTEX
8
0
10
45.9995394610184
20
26.5824758471847
30
0
0
VERTEX
8
0
10
46.6760032766216
20
26.9465622210802
30
0
0
VERTEX
8
0
10
47.3524670922248
20
27.3101240877799
30
0
0
VERTEX
8
0
10
48.028930907828
20
27.6731833834653
30
0
0
VERTEX
8
0
10
48.7053947234313
20
28.0357621821742
30
0
0
VERTEX
8
0
10
49.3818585390345
20
28.3978826697793
30
0
0
VERTEX
8
0
10
50.0583223546377
20
28.7595671181563
30
0
0
VERTEX
8
0
10
50.7347861702409
20
29.1208378595522
30
0
0
VERTEX
8
0
10
51.4112499858441
20
29.4817172611594
30
0
0
VERTEX
8
0
10
52.0877138014473
20
29.8422276999076
30
0
0
VERTEX
8
0
10
52.7641776170505
20
30.2030075558525
30
0
0
VERTEX
8
0
10
53.4406414326537
20
30.5638494369909
30
0
0
VERTEX
8
0
10
54.117105248257
20
30.924391890474
30
0
0
VERTEX
8
0
10
54.7935690638602
20
31.2846570215914
30
0
0
VERTEX
8
0
10
55.4700328794634
20
31.6439489218577
30
0
0
VERTEX
8
0
10
56.1464966950666
20
32.0027173574402
30
0
0
VERTEX
8
0
10
56.8229605106698
20
32.3612716015486
30
0
0
VERTEX
8
0
10
57.499424326273
20
32.7196332305764
30
0
0
VERTEX
8
0
10
58.1758881418762
20
33.0778236151601
30
0
0
VERTEX
8
0
10
58.8523519574794
20
33.4358638976841
30
0
0
VERTEX
8
0
10
59.5288157730826
20
33.7937749701134
30
0
0
VERTEX
8
0
10
60.2052795886859
20
34.1515774521609
30
0
0
VERTEX
8
0
10
60.8817434042891
20
34.5102142150267
30
0
0
VERTEX
8
0
10
61.5582072198923
20
34.8688765545392
30
0
0
VERTEX
8
0
10
62.2346710354955
20
35.2274924142476
30
0
0
VERTEX
8
0
10
62.9111348510987
20
35.5860810522235
30
0
0
VERTEX
8
0
10
63.5875986667019
20
35.943634937314
30
0
0
VERTEX
8
0
10
64.2640624823051
20
36.3012045142196
30
0
0
VERTEX
8
0
10
64.9405262979083
20
36.6588003855016
30
0
0
VERTEX
8
0
10
65.6169901135116
20
37.0164402507893
30
0
0
VERTEX
8
0
10
66.2934539291148
20
37.3990524836441
30
0
0
VERTEX
8
0
10
66.969917744718
20
37.7794986553457
30
0
0
VERTEX
8
0
10
67.6463815603212
20
38.1601573306521
30
0
0
VERTEX
8
0
10
68.3228453759244
20
38.541040588014
30
0
0
VERTEX
8
0
10
68.9993091915276
20
38.9574609424706
30
0
0
VERTEX
8
0
10
69.6757730071308
20
39.368581059153
30
0
0
VERTEX
8
0
10
70.352236822734
20
39.7803210091992
30
0
0
VERTEX
8
0
10
71.0287006383373
20
40.192679371623
30
0
0
VERTEX
8
0
10
71.7051644539405
20
40.6070673498672
30
0
0
VERTEX
8
0
10
72.3816282695437
20
41.0217629935714
30
0
0
VERTEX
8
0
10
73.0580920851469
20
41.4370883214355
30
0
0
VERTEX
8
0
10
73.7345559007501
20
41.8530409168448
30
0
0
VERTEX
8
0
10
74.4110197163533
20
42.2680536588196
30
0
0
VERTEX
8
0
10
75.0874835319565
20
42.6841160914875
30
0
0
VERTEX
8
0
10
75.7639473475597
20
43.1007826581531
30
0
0
VERTEX
8
0
10
76.4404111631629
20
43.5180505344904
30
0
0
VERTEX
8
0
10
77.1168749787662
20
43.9393525199185
30
0
0
VERTEX
8
0
10
77.7933387943694
20
44.3601442206723
30
0
0
VERTEX
8
0
10
78.4698026099726
20
44.7815541248772
30
0
0
VERTEX
8
0
10
79.1462664255758
20
45.2021867931508
30
0
0
VERTEX
8
0
10
79.822730241179
20
45.6224582522232
30
0
0
VERTEX
8
0
10
80.4991940567822
20
46.0433059257372
30
0
0
VERTEX
8
0
10
81.1756578723854
20
46.4647244638945
30
0
0
VERTEX
8
0
10
81.8521216879886
20
46.8883622730972
30
0
0
VERTEX
8
0
10
82.5285855035919
20
47.3133141304164
30
0
0
VERTEX
8
0
10
83.2050493191951
20
47.7388419313909
30
0
0
VERTEX
8
0
10
83.8815131347983
20
48.1649377775374
30
0
0
VERTEX
8
0
10
84.5579769504015
20
48.5896669758774
30
0
0
VERTEX
8
0
10
85.2344407660047
20
49.0144159345921
30
0
0
VERTEX
8
0
10
85.9109045816079
20
49.4396844536653
30
0
0
VERTEX
8
0
10
86.5873683972111
20
49.8654633421246
30
0
0
VERTEX
8
0
10
87.2638322128144
20
50.2873382089893
30
0
0
VERTEX
8
0
10
87.9402960284175
20
50.7091126857567
30
0
0
VERTEX
8
0
10
88.6167598440208
20
51.1313289692214
30
0
0
VERTEX
8
0
10
89.293223659624
20
51.5539767621888
30
0
0
VERTEX
8
0
10
89.9696874752272
20
51.9398989964539
30
0
0
VERTEX
8
0
10
90.6461512908304
20
52.32555846854
30
0
0
VERTEX
8
0
10
91.3226151064336
20
52.7114686729334
30
0
0
VERTEX
8
0
10
91.9990789220368
20
53.0976209095997
30
0
0
VERTEX
8
0
10
92.67554273764
20
53.4785578011487
30
0
0
VERTEX
8
0
10
93.3520065532433
20
53.860135537547
30
0
0
VERTEX
8
0
10
94.0284703688465
20
54.241921258409
30
0
0
VERTEX
8
0
10
94.7049341844497
20
54.6239033613208
30
0
0
VERTEX
8
0
10
95.3813980000529
20
55.0060694827614
30
0
0
VERTEX
8
0
10
96.0578618156561
20
55.3884065003599
30
0
0
VERTEX
8
0
10
96.7343256312593
20
55.7709005355396
30
0
0
VERTEX
8
0
10
97.4107894468625
20
56.1535369565433
30
0
0
VERTEX
8
0
10
98.0872532624657
20
56.5363003818323
30
0
0
VERTEX
8
0
10
98.763717078069
20
56.9191746838564
30
0
0
VERTEX
8
0
10
99.4401808936722
20
57.3021429931859
30
0
0
VERTEX
8
0
10
100.116644709275
20
57.6851877029994
30
0
0
VERTEX
8
0
10
100.793108524879
20
58.0682904739246
30
0
0
VERTEX
8
0
10
101.469572340482
20
58.4514322392105
30
0
0
VERTEX
8
0
10
102.146036156085
20
58.8345932101009
30
0
0
VERTEX
8
0
10
102.822499971688
20
59.2177528800836
30
0
0
VERTEX
8
0
10
103.498963787291
20
59.6027476216626
30
0
0
VERTEX
8
0
10
104.175427602895
20
59.9870995412548
30
0
0
VERTEX
8
0
10
104.851891418498
20
60.3713824103017
30
0
0
VERTEX
8
0
10
105.528355234101
20
60.7541071456614
30
0
0
VERTEX
8
0
10
106.204819049704
20
61.1354376295156
30
0
0
VERTEX
8
0
10
106.881282865307
20
61.5155913274509
30
0
0
VERTEX
8
0
10
107.557746680911
20
61.8934029826886
30
0
0
VERTEX
8
0
10
108.234210496514
20
62.2692948429128
30
0
0
VERTEX
8
0
10
108.910674312117
20
62.6427808690127
30
0
0
VERTEX
8
0
10
109.58713812772
20
63.013447386611
30
0
0
VERTEX
8
0
10
110.263601943324
20
63.3813006304467
30
0
0
VERTEX
8
0
10
110.940065758927
20
63.7502292800927
30
0
0
VERTEX
8
0
10
111.61652957453
20
64.1175281742171
30
0
0
VERTEX
8
0
10
112.292993390133
20
64.482039325723
30
0
0
VERTEX
8
0
10
112.969457205736
20
64.8437693096729
30
0
0
VERTEX
8
0
10
113.64592102134
20
65.1851729782318
30
0
0
VERTEX
8
0
10
114.322384836943
20
65.5211054393726
30
0
0
VERTEX
8
0
10
114.998848652546
20
65.8542625216376
30
0
0
VERTEX
8
0
10
115.675312468149
20
66.1846477988273
30
0
0
VERTEX
8
0
10
116.351776283752
20
66.5831048445802
30
0
0
VERTEX
8
0
10
117.028240099356
20
66.9816593647947
30
0
0
VERTEX
8
0
10
117.704703914959
20
67.3777437056287
30
0
0
VERTEX
8
0
10
118.381167730562
20
67.77136513528
30
0
0
VERTEX
8
0
10
119.057631546165
20
68.0928017402969
30
0
0
VERTEX
8
0
10
119.734095361769
20
68.415608955698
30
0
0
VERTEX
8
0
10
120.410559177372
20
68.7356838107305
30
0
0
VERTEX
8
0
10
121.087022992975
20
69.0530304445615
30
0
0
VERTEX
8
0
10
121.763486808578
20
69.3885688129991
30
0
0
VERTEX
8
0
10
122.439950624181
20
69.7185333887107
30
0
0
VERTEX
8
0
10
123.116414439785
20
70.0458213460117
30
0
0
VERTEX
8
0
10
123.792878255388
20
70.3704384400037
30
0
0
VERTEX
8
0
10
124.469342070991
20
70.6940214559903
30
0
0
VERTEX
8
0
10
125.145805886594
20
71.0146149758708
30
0
0
VERTEX
8
0
10
125.822269702197
20
71.3325593849738
30
0
0
VERTEX
8
0
10
126.498733517801
20
71.6478606639695
30
0
0
VERTEX
8
0
10
127.175197333404
20
71.9605248522305
30
0
0
VERTEX
8
0
10
127.851661149007
20
72.270558057337
30
0
0
VERTEX
8
0
10
128.52812496461
20
72.5779664639438
30
0
0
VERTEX
8
0
10
129.204588780213
20
72.882756339714
30
0
0
VERTEX
8
0
10
129.881052595817
20
73.1830230410519
30
0
0
VERTEX
8
0
10
130.55751641142
20
73.4812749757119
30
0
0
VERTEX
8
0
10
131.233980227023
20
73.7769216158775
30
0
0
VERTEX
8
0
10
131.910444042626
20
74.0648574958415
30
0
0
VERTEX
8
0
10
132.58690785823
20
74.345988572177
30
0
0
VERTEX
8
0
10
133.263371673833
20
74.6242962159027
30
0
0
VERTEX
8
0
10
133.939835489436
20
74.8995166376937
30
0
0
VERTEX
8
0
10
134.616299305039
20
75.141307893727
30
0
0
VERTEX
8
0
10
135.292763120642
20
75.3635561683774
30
0
0
VERTEX
8
0
10
135.969226936246
20
75.5825356370788
30
0
0
VERTEX
8
0
10
136.645690751849
20
75.7982734556401
30
0
0
VERTEX
8
0
10
137.322154567452
20
76.0009026320383
30
0
0
VERTEX
8
0
10
137.998618383055
20
76.1970271848396
30
0
0
VERTEX
8
0
10
138.675082198658
20
76.3900124166123
30
0
0
VERTEX
8
0
10
139.351546014262
20
76.5798844764412
30
0
0
VERTEX
8
0
10
140.028009829865
20
76.7666694083008
30
0
0
VERTEX
8
0
10
140.704473645468
20
76.9503931620943
30
0
0
VERTEX
8
0
10
141.380937461071
20
77.1310816050078
30
0
0
VERTEX
8
0
10
142.057401276674
20
77.3087605326711
30
0
0
VERTEX
8
0
10
142.733865092278
20
77.4834556800515
30
0
0
VERTEX
8
0
10
143.410328907881
20
77.6551927320769
30
0
0
VERTEX
8
0
10
144.086792723484
20
77.8239973340039
30
0
0
VERTEX
8
0
10
144.763256539087
20
77.9898951015383
30
0
0
VERTEX
8
0
10
145.43972035469
20
78.1529116307248
30
0
0
VERTEX
8
0
10
146.116184170294
20
78.3130725076135
30
0
0
VERTEX
8
0
10
146.792647985897
20
78.4704033177173
30
0
0
VERTEX
8
0
10
147.4691118015
20
78.6249296552679
30
0
0
VERTEX
8
0
10
148.145575617103
20
78.7766771322816
30
0
0
VERTEX
8
0
10
148.822039432706
20
78.9256713874455
30
0
0
VERTEX
8
0
10
149.49850324831
20
79.0719380948287
30
0
0
VERTEX
8
0
10
150.174967063913
20
79.2155029724328
30
0
0
VERTEX
8
0
10
150.851430879516
20
79.3563917905836
30
0
0
VERTEX
8
0
10
151.527894695119
20
79.4946303801764
30
0
0
VERTEX
8
0
10
152.204358510722
20
79.6302446407775
30
0
0
VERTEX
8
0
10
152.880822326326
20
79.7632605485946
30
0
0
VERTEX
8
0
10
153.557286141929
20
79.889120093816
30
0
0
VERTEX
8
0
10
154.233749957532
20
80.0135855731627
30
0
0
VERTEX
8
0
10
154.910213773135
20
80.1355321277567
30
0
0
SEQEND
8
0
0
ENDSEC
0
EOF
