0
SECTION
2
HEADER
9
$ACADVER
1
AC1009
0
ENDSEC
0
SECTION
2
ENTITIES
0
POLYLINE
8
0
62
0
70
1
10
0
20
0
30
0
0
VERTEX
8
0
10
0
20
0
30
0
0
VERTEX
8
0
10
0
20
150
30
0
0
VERTEX
8
0
10
500
20
150
30
0
0
VERTEX
8
0
10
500
20
0
30
0
0
SEQEND
8
0
0
TEXT
8
0
62
0
10
0
20
-12
30
0
40
8
1
0
50
0
0
LINE
8
0
62
0
10
2.5
20
0
30
0
11
2.5
21
3.2
31
0
0
LINE
8
0
62
0
10
2.5
20
150
30
0
11
2.5
21
146.8
31
0
0
LINE
8
0
62
0
10
5
20
0
30
0
11
5
21
3.2
31
0
0
LINE
8
0
62
0
10
5
20
150
30
0
11
5
21
146.8
31
0
0
LINE
8
0
62
0
10
7.5
20
0
30
0
11
7.5
21
3.2
31
0
0
LINE
8
0
62
0
10
7.5
20
150
30
0
11
7.5
21
146.8
31
0
0
LINE
8
0
62
0
10
10
20
0
30
0
11
10
21
3.2
31
0
0
LINE
8
0
62
0
10
10
20
150
30
0
11
10
21
146.8
31
0
0
LINE
8
0
62
0
10
12.5
20
0
30
0
11
12.5
21
6.4
31
0
0
LINE
8
0
62
0
10
12.5
20
150
30
0
11
12.5
21
143.6
31
0
0
TEXT
8
0
62
0
10
12.5
20
-12
30
0
40
8
1
5
50
0
0
LINE
8
0
62
0
10
15
20
0
30
0
11
15
21
3.2
31
0
0
LINE
8
0
62
0
10
15
20
150
30
0
11
15
21
146.8
31
0
0
LINE
8
0
62
0
10
17.5
20
0
30
0
11
17.5
21
3.2
31
0
0
LINE
8
0
62
0
10
17.5
20
150
30
0
11
17.5
21
146.8
31
0
0
LINE
8
0
62
0
10
20
20
0
30
0
11
20
21
3.2
31
0
0
LINE
8
0
62
0
10
20
20
150
30
0
11
20
21
146.8
31
0
0
LINE
8
0
62
0
10
22.5
20
0
30
0
11
22.5
21
3.2
31
0
0
LINE
8
0
62
0
10
22.5
20
150
30
0
11
22.5
21
146.8
31
0
0
LINE
8
0
62
0
10
25
20
0
30
0
11
25
21
6.4
31
0
0
LINE
8
0
62
0
10
25
20
150
30
0
11
25
21
143.6
31
0
0
TEXT
8
0
62
0
10
25
20
-12
30
0
40
8
1
10
50
0
0
LINE
8
0
62
0
10
27.5
20
0
30
0
11
27.5
21
3.2
31
0
0
LINE
8
0
62
0
10
27.5
20
150
30
0
11
27.5
21
146.8
31
0
0
LINE
8
0
62
0
10
30
20
0
30
0
11
30
21
3.2
31
0
0
LINE
8
0
62
0
10
30
20
150
30
0
11
30
21
146.8
31
0
0
LINE
8
0
62
0
10
32.5
20
0
30
0
11
32.5
21
3.2
31
0
0
LINE
8
0
62
0
10
32.5
20
150
30
0
11
32.5
21
146.8
31
0
0
LINE
8
0
62
0
10
35
20
0
30
0
11
35
21
3.2
31
0
0
LINE
8
0
62
0
10
35
20
150
30
0
11
35
21
146.8
31
0
0
LINE
8
0
62
0
10
37.5
20
0
30
0
11
37.5
21
6.4
31
0
0
LINE
8
0
62
0
10
37.5
20
150
30
0
11
37.5
21
143.6
31
0
0
TEXT
8
0
62
0
10
37.5
20
-12
30
0
40
8
1
15
50
0
0
LINE
8
0
62
0
10
40
20
0
30
0
11
40
21
3.2
31
0
0
LINE
8
0
62
0
10
40
20
150
30
0
11
40
21
146.8
31
0
0
LINE
8
0
62
0
10
42.5
20
0
30
0
11
42.5
21
3.2
31
0
0
LINE
8
0
62
0
10
42.5
20
150
30
0
11
42.5
21
146.8
31
0
0
LINE
8
0
62
0
10
45
20
0
30
0
11
45
21
3.2
31
0
0
LINE
8
0
62
0
10
45
20
150
30
0
11
45
21
146.8
31
0
0
LINE
8
0
62
0
10
47.5
20
0
30
0
11
47.5
21
3.2
31
0
0
LINE
8
0
62
0
10
47.5
20
150
30
0
11
47.5
21
146.8
31
0
0
LINE
8
0
62
0
10
50
20
0
30
0
11
50
21
6.4
31
0
0
LINE
8
0
62
0
10
50
20
150
30
0
11
50
21
143.6
31
0
0
TEXT
8
0
62
0
10
50
20
-12
30
0
40
8
1
20
50
0
0
LINE
8
0
62
0
10
52.5
20
0
30
0
11
52.5
21
3.2
31
0
0
LINE
8
0
62
0
10
52.5
20
150
30
0
11
52.5
21
146.8
31
0
0
LINE
8
0
62
0
10
55
20
0
30
0
11
55
21
3.2
31
0
0
LINE
8
0
62
0
10
55
20
150
30
0
11
55
21
146.8
31
0
0
LINE
8
0
62
0
10
57.5
20
0
30
0
11
57.5
21
3.2
31
0
0
LINE
8
0
62
0
10
57.5
20
150
30
0
11
57.5
21
146.8
31
0
0
LINE
8
0
62
0
10
60
20
0
30
0
11
60
21
3.2
31
0
0
LINE
8
0
62
0
10
60
20
150
30
0
11
60
21
146.8
31
0
0
LINE
8
0
62
0
10
62.5
20
0
30
0
11
62.5
21
6.4
31
0
0
LINE
8
0
62
0
10
62.5
20
150
30
0
11
62.5
21
143.6
31
0
0
TEXT
8
0
62
0
10
62.5
20
-12
30
0
40
8
1
25
50
0
0
LINE
8
0
62
0
10
65
20
0
30
0
11
65
21
3.2
31
0
0
LINE
8
0
62
0
10
65
20
150
30
0
11
65
21
146.8
31
0
0
LINE
8
0
62
0
10
67.5
20
0
30
0
11
67.5
21
3.2
31
0
0
LINE
8
0
62
0
10
67.5
20
150
30
0
11
67.5
21
146.8
31
0
0
LINE
8
0
62
0
10
70
20
0
30
0
11
70
21
3.2
31
0
0
LINE
8
0
62
0
10
70
20
150
30
0
11
70
21
146.8
31
0
0
LINE
8
0
62
0
10
72.5
20
0
30
0
11
72.5
21
3.2
31
0
0
LINE
8
0
62
0
10
72.5
20
150
30
0
11
72.5
21
146.8
31
0
0
LINE
8
0
62
0
10
75
20
0
30
0
11
75
21
6.4
31
0
0
LINE
8
0
62
0
10
75
20
150
30
0
11
75
21
143.6
31
0
0
TEXT
8
0
62
0
10
75
20
-12
30
0
40
8
1
30
50
0
0
LINE
8
0
62
0
10
77.5
20
0
30
0
11
77.5
21
3.2
31
0
0
LINE
8
0
62
0
10
77.5
20
150
30
0
11
77.5
21
146.8
31
0
0
LINE
8
0
62
0
10
80
20
0
30
0
11
80
21
3.2
31
0
0
LINE
8
0
62
0
10
80
20
150
30
0
11
80
21
146.8
31
0
0
LINE
8
0
62
0
10
82.5
20
0
30
0
11
82.5
21
3.2
31
0
0
LINE
8
0
62
0
10
82.5
20
150
30
0
11
82.5
21
146.8
31
0
0
LINE
8
0
62
0
10
85
20
0
30
0
11
85
21
3.2
31
0
0
LINE
8
0
62
0
10
85
20
150
30
0
11
85
21
146.8
31
0
0
LINE
8
0
62
0
10
87.5
20
0
30
0
11
87.5
21
6.4
31
0
0
LINE
8
0
62
0
10
87.5
20
150
30
0
11
87.5
21
143.6
31
0
0
TEXT
8
0
62
0
10
87.5
20
-12
30
0
40
8
1
35
50
0
0
LINE
8
0
62
0
10
90
20
0
30
0
11
90
21
3.2
31
0
0
LINE
8
0
62
0
10
90
20
150
30
0
11
90
21
146.8
31
0
0
LINE
8
0
62
0
10
92.5
20
0
30
0
11
92.5
21
3.2
31
0
0
LINE
8
0
62
0
10
92.5
20
150
30
0
11
92.5
21
146.8
31
0
0
LINE
8
0
62
0
10
95
20
0
30
0
11
95
21
3.2
31
0
0
LINE
8
0
62
0
10
95
20
150
30
0
11
95
21
146.8
31
0
0
LINE
8
0
62
0
10
97.5
20
0
30
0
11
97.5
21
3.2
31
0
0
LINE
8
0
62
0
10
97.5
20
150
30
0
11
97.5
21
146.8
31
0
0
LINE
8
0
62
0
10
100
20
0
30
0
11
100
21
6.4
31
0
0
LINE
8
0
62
0
10
100
20
150
30
0
11
100
21
143.6
31
0
0
TEXT
8
0
62
0
10
100
20
-12
30
0
40
8
1
40
50
0
0
LINE
8
0
62
0
10
102.5
20
0
30
0
11
102.5
21
3.2
31
0
0
LINE
8
0
62
0
10
102.5
20
150
30
0
11
102.5
21
146.8
31
0
0
LINE
8
0
62
0
10
105
20
0
30
0
11
105
21
3.2
31
0
0
LINE
8
0
62
0
10
105
20
150
30
0
11
105
21
146.8
31
0
0
LINE
8
0
62
0
10
107.5
20
0
30
0
11
107.5
21
3.2
31
0
0
LINE
8
0
62
0
10
107.5
20
150
30
0
11
107.5
21
146.8
31
0
0
LINE
8
0
62
0
10
110
20
0
30
0
11
110
21
3.2
31
0
0
LINE
8
0
62
0
10
110
20
150
30
0
11
110
21
146.8
31
0
0
LINE
8
0
62
0
10
112.5
20
0
30
0
11
112.5
21
6.4
31
0
0
LINE
8
0
62
0
10
112.5
20
150
30
0
11
112.5
21
143.6
31
0
0
TEXT
8
0
62
0
10
112.5
20
-12
30
0
40
8
1
45
50
0
0
LINE
8
0
62
0
10
115
20
0
30
0
11
115
21
3.2
31
0
0
LINE
8
0
62
0
10
115
20
150
30
0
11
115
21
146.8
31
0
0
LINE
8
0
62
0
10
117.5
20
0
30
0
11
117.5
21
3.2
31
0
0
LINE
8
0
62
0
10
117.5
20
150
30
0
11
117.5
21
146.8
31
0
0
LINE
8
0
62
0
10
120
20
0
30
0
11
120
21
3.2
31
0
0
LINE
8
0
62
0
10
120
20
150
30
0
11
120
21
146.8
31
0
0
LINE
8
0
62
0
10
122.5
20
0
30
0
11
122.5
21
3.2
31
0
0
LINE
8
0
62
0
10
122.5
20
150
30
0
11
122.5
21
146.8
31
0
0
LINE
8
0
62
0
10
125
20
0
30
0
11
125
21
6.4
31
0
0
LINE
8
0
62
0
10
125
20
150
30
0
11
125
21
143.6
31
0
0
TEXT
8
0
62
0
10
125
20
-12
30
0
40
8
1
50
50
0
0
LINE
8
0
62
0
10
127.5
20
0
30
0
11
127.5
21
3.2
31
0
0
LINE
8
0
62
0
10
127.5
20
150
30
0
11
127.5
21
146.8
31
0
0
LINE
8
0
62
0
10
130
20
0
30
0
11
130
21
3.2
31
0
0
LINE
8
0
62
0
10
130
20
150
30
0
11
130
21
146.8
31
0
0
LINE
8
0
62
0
10
132.5
20
0
30
0
11
132.5
21
3.2
31
0
0
LINE
8
0
62
0
10
132.5
20
150
30
0
11
132.5
21
146.8
31
0
0
LINE
8
0
62
0
10
135
20
0
30
0
11
135
21
3.2
31
0
0
LINE
8
0
62
0
10
135
20
150
30
0
11
135
21
146.8
31
0
0
LINE
8
0
62
0
10
137.5
20
0
30
0
11
137.5
21
6.4
31
0
0
LINE
8
0
62
0
10
137.5
20
150
30
0
11
137.5
21
143.6
31
0
0
TEXT
8
0
62
0
10
137.5
20
-12
30
0
40
8
1
55
50
0
0
LINE
8
0
62
0
10
140
20
0
30
0
11
140
21
3.2
31
0
0
LINE
8
0
62
0
10
140
20
150
30
0
11
140
21
146.8
31
0
0
LINE
8
0
62
0
10
142.5
20
0
30
0
11
142.5
21
3.2
31
0
0
LINE
8
0
62
0
10
142.5
20
150
30
0
11
142.5
21
146.8
31
0
0
LINE
8
0
62
0
10
145
20
0
30
0
11
145
21
3.2
31
0
0
LINE
8
0
62
0
10
145
20
150
30
0
11
145
21
146.8
31
0
0
LINE
8
0
62
0
10
147.5
20
0
30
0
11
147.5
21
3.2
31
0
0
LINE
8
0
62
0
10
147.5
20
150
30
0
11
147.5
21
146.8
31
0
0
LINE
8
0
62
0
10
150
20
0
30
0
11
150
21
6.4
31
0
0
LINE
8
0
62
0
10
150
20
150
30
0
11
150
21
143.6
31
0
0
TEXT
8
0
62
0
10
150
20
-12
30
0
40
8
1
60
50
0
0
LINE
8
0
62
0
10
152.5
20
0
30
0
11
152.5
21
3.2
31
0
0
LINE
8
0
62
0
10
152.5
20
150
30
0
11
152.5
21
146.8
31
0
0
LINE
8
0
62
0
10
155
20
0
30
0
11
155
21
3.2
31
0
0
LINE
8
0
62
0
10
155
20
150
30
0
11
155
21
146.8
31
0
0
LINE
8
0
62
0
10
157.5
20
0
30
0
11
157.5
21
3.2
31
0
0
LINE
8
0
62
0
10
157.5
20
150
30
0
11
157.5
21
146.8
31
0
0
LINE
8
0
62
0
10
160
20
0
30
0
11
160
21
3.2
31
0
0
LINE
8
0
62
0
10
160
20
150
30
0
11
160
21
146.8
31
0
0
LINE
8
0
62
0
10
162.5
20
0
30
0
11
162.5
21
6.4
31
0
0
LINE
8
0
62
0
10
162.5
20
150
30
0
11
162.5
21
143.6
31
0
0
TEXT
8
0
62
0
10
162.5
20
-12
30
0
40
8
1
65
50
0
0
LINE
8
0
62
0
10
165
20
0
30
0
11
165
21
3.2
31
0
0
LINE
8
0
62
0
10
165
20
150
30
0
11
165
21
146.8
31
0
0
LINE
8
0
62
0
10
167.5
20
0
30
0
11
167.5
21
3.2
31
0
0
LINE
8
0
62
0
10
167.5
20
150
30
0
11
167.5
21
146.8
31
0
0
LINE
8
0
62
0
10
170
20
0
30
0
11
170
21
3.2
31
0
0
LINE
8
0
62
0
10
170
20
150
30
0
11
170
21
146.8
31
0
0
LINE
8
0
62
0
10
172.5
20
0
30
0
11
172.5
21
3.2
31
0
0
LINE
8
0
62
0
10
172.5
20
150
30
0
11
172.5
21
146.8
31
0
0
LINE
8
0
62
0
10
175
20
0
30
0
11
175
21
6.4
31
0
0
LINE
8
0
62
0
10
175
20
150
30
0
11
175
21
143.6
31
0
0
TEXT
8
0
62
0
10
175
20
-12
30
0
40
8
1
70
50
0
0
LINE
8
0
62
0
10
177.5
20
0
30
0
11
177.5
21
3.2
31
0
0
LINE
8
0
62
0
10
177.5
20
150
30
0
11
177.5
21
146.8
31
0
0
LINE
8
0
62
0
10
180
20
0
30
0
11
180
21
3.2
31
0
0
LINE
8
0
62
0
10
180
20
150
30
0
11
180
21
146.8
31
0
0
LINE
8
0
62
0
10
182.5
20
0
30
0
11
182.5
21
3.2
31
0
0
LINE
8
0
62
0
10
182.5
20
150
30
0
11
182.5
21
146.8
31
0
0
LINE
8
0
62
0
10
185
20
0
30
0
11
185
21
3.2
31
0
0
LINE
8
0
62
0
10
185
20
150
30
0
11
185
21
146.8
31
0
0
LINE
8
0
62
0
10
187.5
20
0
30
0
11
187.5
21
6.4
31
0
0
LINE
8
0
62
0
10
187.5
20
150
30
0
11
187.5
21
143.6
31
0
0
TEXT
8
0
62
0
10
187.5
20
-12
30
0
40
8
1
75
50
0
0
LINE
8
0
62
0
10
190
20
0
30
0
11
190
21
3.2
31
0
0
LINE
8
0
62
0
10
190
20
150
30
0
11
190
21
146.8
31
0
0
LINE
8
0
62
0
10
192.5
20
0
30
0
11
192.5
21
3.2
31
0
0
LINE
8
0
62
0
10
192.5
20
150
30
0
11
192.5
21
146.8
31
0
0
LINE
8
0
62
0
10
195
20
0
30
0
11
195
21
3.2
31
0
0
LINE
8
0
62
0
10
195
20
150
30
0
11
195
21
146.8
31
0
0
LINE
8
0
62
0
10
197.5
20
0
30
0
11
197.5
21
3.2
31
0
0
LINE
8
0
62
0
10
197.5
20
150
30
0
11
197.5
21
146.8
31
0
0
LINE
8
0
62
0
10
200
20
0
30
0
11
200
21
6.4
31
0
0
LINE
8
0
62
0
10
200
20
150
30
0
11
200
21
143.6
31
0
0
TEXT
8
0
62
0
10
200
20
-12
30
0
40
8
1
80
50
0
0
LINE
8
0
62
0
10
202.5
20
0
30
0
11
202.5
21
3.2
31
0
0
LINE
8
0
62
0
10
202.5
20
150
30
0
11
202.5
21
146.8
31
0
0
LINE
8
0
62
0
10
205
20
0
30
0
11
205
21
3.2
31
0
0
LINE
8
0
62
0
10
205
20
150
30
0
11
205
21
146.8
31
0
0
LINE
8
0
62
0
10
207.5
20
0
30
0
11
207.5
21
3.2
31
0
0
LINE
8
0
62
0
10
207.5
20
150
30
0
11
207.5
21
146.8
31
0
0
LINE
8
0
62
0
10
210
20
0
30
0
11
210
21
3.2
31
0
0
LINE
8
0
62
0
10
210
20
150
30
0
11
210
21
146.8
31
0
0
LINE
8
0
62
0
10
212.5
20
0
30
0
11
212.5
21
6.4
31
0
0
LINE
8
0
62
0
10
212.5
20
150
30
0
11
212.5
21
143.6
31
0
0
TEXT
8
0
62
0
10
212.5
20
-12
30
0
40
8
1
85
50
0
0
LINE
8
0
62
0
10
215
20
0
30
0
11
215
21
3.2
31
0
0
LINE
8
0
62
0
10
215
20
150
30
0
11
215
21
146.8
31
0
0
LINE
8
0
62
0
10
217.5
20
0
30
0
11
217.5
21
3.2
31
0
0
LINE
8
0
62
0
10
217.5
20
150
30
0
11
217.5
21
146.8
31
0
0
LINE
8
0
62
0
10
220
20
0
30
0
11
220
21
3.2
31
0
0
LINE
8
0
62
0
10
220
20
150
30
0
11
220
21
146.8
31
0
0
LINE
8
0
62
0
10
222.5
20
0
30
0
11
222.5
21
3.2
31
0
0
LINE
8
0
62
0
10
222.5
20
150
30
0
11
222.5
21
146.8
31
0
0
LINE
8
0
62
0
10
225
20
0
30
0
11
225
21
6.4
31
0
0
LINE
8
0
62
0
10
225
20
150
30
0
11
225
21
143.6
31
0
0
TEXT
8
0
62
0
10
225
20
-12
30
0
40
8
1
90
50
0
0
LINE
8
0
62
0
10
227.5
20
0
30
0
11
227.5
21
3.2
31
0
0
LINE
8
0
62
0
10
227.5
20
150
30
0
11
227.5
21
146.8
31
0
0
LINE
8
0
62
0
10
230
20
0
30
0
11
230
21
3.2
31
0
0
LINE
8
0
62
0
10
230
20
150
30
0
11
230
21
146.8
31
0
0
LINE
8
0
62
0
10
232.5
20
0
30
0
11
232.5
21
3.2
31
0
0
LINE
8
0
62
0
10
232.5
20
150
30
0
11
232.5
21
146.8
31
0
0
LINE
8
0
62
0
10
235
20
0
30
0
11
235
21
3.2
31
0
0
LINE
8
0
62
0
10
235
20
150
30
0
11
235
21
146.8
31
0
0
LINE
8
0
62
0
10
237.5
20
0
30
0
11
237.5
21
6.4
31
0
0
LINE
8
0
62
0
10
237.5
20
150
30
0
11
237.5
21
143.6
31
0
0
TEXT
8
0
62
0
10
237.5
20
-12
30
0
40
8
1
95
50
0
0
LINE
8
0
62
0
10
240
20
0
30
0
11
240
21
3.2
31
0
0
LINE
8
0
62
0
10
240
20
150
30
0
11
240
21
146.8
31
0
0
LINE
8
0
62
0
10
242.5
20
0
30
0
11
242.5
21
3.2
31
0
0
LINE
8
0
62
0
10
242.5
20
150
30
0
11
242.5
21
146.8
31
0
0
LINE
8
0
62
0
10
245
20
0
30
0
11
245
21
3.2
31
0
0
LINE
8
0
62
0
10
245
20
150
30
0
11
245
21
146.8
31
0
0
LINE
8
0
62
0
10
247.5
20
0
30
0
11
247.5
21
3.2
31
0
0
LINE
8
0
62
0
10
247.5
20
150
30
0
11
247.5
21
146.8
31
0
0
LINE
8
0
62
0
10
250
20
0
30
0
11
250
21
6.4
31
0
0
LINE
8
0
62
0
10
250
20
150
30
0
11
250
21
143.6
31
0
0
TEXT
8
0
62
0
10
250
20
-12
30
0
40
8
1
100
50
0
0
LINE
8
0
62
0
10
252.5
20
0
30
0
11
252.5
21
3.2
31
0
0
LINE
8
0
62
0
10
252.5
20
150
30
0
11
252.5
21
146.8
31
0
0
LINE
8
0
62
0
10
255
20
0
30
0
11
255
21
3.2
31
0
0
LINE
8
0
62
0
10
255
20
150
30
0
11
255
21
146.8
31
0
0
LINE
8
0
62
0
10
257.5
20
0
30
0
11
257.5
21
3.2
31
0
0
LINE
8
0
62
0
10
257.5
20
150
30
0
11
257.5
21
146.8
31
0
0
LINE
8
0
62
0
10
260
20
0
30
0
11
260
21
3.2
31
0
0
LINE
8
0
62
0
10
260
20
150
30
0
11
260
21
146.8
31
0
0
LINE
8
0
62
0
10
262.5
20
0
30
0
11
262.5
21
6.4
31
0
0
LINE
8
0
62
0
10
262.5
20
150
30
0
11
262.5
21
143.6
31
0
0
TEXT
8
0
62
0
10
262.5
20
-12
30
0
40
8
1
105
50
0
0
LINE
8
0
62
0
10
265
20
0
30
0
11
265
21
3.2
31
0
0
LINE
8
0
62
0
10
265
20
150
30
0
11
265
21
146.8
31
0
0
LINE
8
0
62
0
10
267.5
20
0
30
0
11
267.5
21
3.2
31
0
0
LINE
8
0
62
0
10
267.5
20
150
30
0
11
267.5
21
146.8
31
0
0
LINE
8
0
62
0
10
270
20
0
30
0
11
270
21
3.2
31
0
0
LINE
8
0
62
0
10
270
20
150
30
0
11
270
21
146.8
31
0
0
LINE
8
0
62
0
10
272.5
20
0
30
0
11
272.5
21
3.2
31
0
0
LINE
8
0
62
0
10
272.5
20
150
30
0
11
272.5
21
146.8
31
0
0
LINE
8
0
62
0
10
275
20
0
30
0
11
275
21
6.4
31
0
0
LINE
8
0
62
0
10
275
20
150
30
0
11
275
21
143.6
31
0
0
TEXT
8
0
62
0
10
275
20
-12
30
0
40
8
1
110
50
0
0
LINE
8
0
62
0
10
277.5
20
0
30
0
11
277.5
21
3.2
31
0
0
LINE
8
0
62
0
10
277.5
20
150
30
0
11
277.5
21
146.8
31
0
0
LINE
8
0
62
0
10
280
20
0
30
0
11
280
21
3.2
31
0
0
LINE
8
0
62
0
10
280
20
150
30
0
11
280
21
146.8
31
0
0
LINE
8
0
62
0
10
282.5
20
0
30
0
11
282.5
21
3.2
31
0
0
LINE
8
0
62
0
10
282.5
20
150
30
0
11
282.5
21
146.8
31
0
0
LINE
8
0
62
0
10
285
20
0
30
0
11
285
21
3.2
31
0
0
LINE
8
0
62
0
10
285
20
150
30
0
11
285
21
146.8
31
0
0
LINE
8
0
62
0
10
287.5
20
0
30
0
11
287.5
21
6.4
31
0
0
LINE
8
0
62
0
10
287.5
20
150
30
0
11
287.5
21
143.6
31
0
0
TEXT
8
0
62
0
10
287.5
20
-12
30
0
40
8
1
115
50
0
0
LINE
8
0
62
0
10
290
20
0
30
0
11
290
21
3.2
31
0
0
LINE
8
0
62
0
10
290
20
150
30
0
11
290
21
146.8
31
0
0
LINE
8
0
62
0
10
292.5
20
0
30
0
11
292.5
21
3.2
31
0
0
LINE
8
0
62
0
10
292.5
20
150
30
0
11
292.5
21
146.8
31
0
0
LINE
8
0
62
0
10
295
20
0
30
0
11
295
21
3.2
31
0
0
LINE
8
0
62
0
10
295
20
150
30
0
11
295
21
146.8
31
0
0
LINE
8
0
62
0
10
297.5
20
0
30
0
11
297.5
21
3.2
31
0
0
LINE
8
0
62
0
10
297.5
20
150
30
0
11
297.5
21
146.8
31
0
0
LINE
8
0
62
0
10
300
20
0
30
0
11
300
21
6.4
31
0
0
LINE
8
0
62
0
10
300
20
150
30
0
11
300
21
143.6
31
0
0
TEXT
8
0
62
0
10
300
20
-12
30
0
40
8
1
120
50
0
0
LINE
8
0
62
0
10
302.5
20
0
30
0
11
302.5
21
3.2
31
0
0
LINE
8
0
62
0
10
302.5
20
150
30
0
11
302.5
21
146.8
31
0
0
LINE
8
0
62
0
10
305
20
0
30
0
11
305
21
3.2
31
0
0
LINE
8
0
62
0
10
305
20
150
30
0
11
305
21
146.8
31
0
0
LINE
8
0
62
0
10
307.5
20
0
30
0
11
307.5
21
3.2
31
0
0
LINE
8
0
62
0
10
307.5
20
150
30
0
11
307.5
21
146.8
31
0
0
LINE
8
0
62
0
10
310
20
0
30
0
11
310
21
3.2
31
0
0
LINE
8
0
62
0
10
310
20
150
30
0
11
310
21
146.8
31
0
0
LINE
8
0
62
0
10
312.5
20
0
30
0
11
312.5
21
6.4
31
0
0
LINE
8
0
62
0
10
312.5
20
150
30
0
11
312.5
21
143.6
31
0
0
TEXT
8
0
62
0
10
312.5
20
-12
30
0
40
8
1
125
50
0
0
LINE
8
0
62
0
10
315
20
0
30
0
11
315
21
3.2
31
0
0
LINE
8
0
62
0
10
315
20
150
30
0
11
315
21
146.8
31
0
0
LINE
8
0
62
0
10
317.5
20
0
30
0
11
317.5
21
3.2
31
0
0
LINE
8
0
62
0
10
317.5
20
150
30
0
11
317.5
21
146.8
31
0
0
LINE
8
0
62
0
10
320
20
0
30
0
11
320
21
3.2
31
0
0
LINE
8
0
62
0
10
320
20
150
30
0
11
320
21
146.8
31
0
0
LINE
8
0
62
0
10
322.5
20
0
30
0
11
322.5
21
3.2
31
0
0
LINE
8
0
62
0
10
322.5
20
150
30
0
11
322.5
21
146.8
31
0
0
LINE
8
0
62
0
10
325
20
0
30
0
11
325
21
6.4
31
0
0
LINE
8
0
62
0
10
325
20
150
30
0
11
325
21
143.6
31
0
0
TEXT
8
0
62
0
10
325
20
-12
30
0
40
8
1
130
50
0
0
LINE
8
0
62
0
10
327.5
20
0
30
0
11
327.5
21
3.2
31
0
0
LINE
8
0
62
0
10
327.5
20
150
30
0
11
327.5
21
146.8
31
0
0
LINE
8
0
62
0
10
330
20
0
30
0
11
330
21
3.2
31
0
0
LINE
8
0
62
0
10
330
20
150
30
0
11
330
21
146.8
31
0
0
LINE
8
0
62
0
10
332.5
20
0
30
0
11
332.5
21
3.2
31
0
0
LINE
8
0
62
0
10
332.5
20
150
30
0
11
332.5
21
146.8
31
0
0
LINE
8
0
62
0
10
335
20
0
30
0
11
335
21
3.2
31
0
0
LINE
8
0
62
0
10
335
20
150
30
0
11
335
21
146.8
31
0
0
LINE
8
0
62
0
10
337.5
20
0
30
0
11
337.5
21
6.4
31
0
0
LINE
8
0
62
0
10
337.5
20
150
30
0
11
337.5
21
143.6
31
0
0
TEXT
8
0
62
0
10
337.5
20
-12
30
0
40
8
1
135
50
0
0
LINE
8
0
62
0
10
340
20
0
30
0
11
340
21
3.2
31
0
0
LINE
8
0
62
0
10
340
20
150
30
0
11
340
21
146.8
31
0
0
LINE
8
0
62
0
10
342.5
20
0
30
0
11
342.5
21
3.2
31
0
0
LINE
8
0
62
0
10
342.5
20
150
30
0
11
342.5
21
146.8
31
0
0
LINE
8
0
62
0
10
345
20
0
30
0
11
345
21
3.2
31
0
0
LINE
8
0
62
0
10
345
20
150
30
0
11
345
21
146.8
31
0
0
LINE
8
0
62
0
10
347.5
20
0
30
0
11
347.5
21
3.2
31
0
0
LINE
8
0
62
0
10
347.5
20
150
30
0
11
347.5
21
146.8
31
0
0
LINE
8
0
62
0
10
350
20
0
30
0
11
350
21
6.4
31
0
0
LINE
8
0
62
0
10
350
20
150
30
0
11
350
21
143.6
31
0
0
TEXT
8
0
62
0
10
350
20
-12
30
0
40
8
1
140
50
0
0
LINE
8
0
62
0
10
352.5
20
0
30
0
11
352.5
21
3.2
31
0
0
LINE
8
0
62
0
10
352.5
20
150
30
0
11
352.5
21
146.8
31
0
0
LINE
8
0
62
0
10
355
20
0
30
0
11
355
21
3.2
31
0
0
LINE
8
0
62
0
10
355
20
150
30
0
11
355
21
146.8
31
0
0
LINE
8
0
62
0
10
357.5
20
0
30
0
11
357.5
21
3.2
31
0
0
LINE
8
0
62
0
10
357.5
20
150
30
0
11
357.5
21
146.8
31
0
0
LINE
8
0
62
0
10
360
20
0
30
0
11
360
21
3.2
31
0
0
LINE
8
0
62
0
10
360
20
150
30
0
11
360
21
146.8
31
0
0
LINE
8
0
62
0
10
362.5
20
0
30
0
11
362.5
21
6.4
31
0
0
LINE
8
0
62
0
10
362.5
20
150
30
0
11
362.5
21
143.6
31
0
0
TEXT
8
0
62
0
10
362.5
20
-12
30
0
40
8
1
145
50
0
0
LINE
8
0
62
0
10
365
20
0
30
0
11
365
21
3.2
31
0
0
LINE
8
0
62
0
10
365
20
150
30
0
11
365
21
146.8
31
0
0
LINE
8
0
62
0
10
367.5
20
0
30
0
11
367.5
21
3.2
31
0
0
LINE
8
0
62
0
10
367.5
20
150
30
0
11
367.5
21
146.8
31
0
0
LINE
8
0
62
0
10
370
20
0
30
0
11
370
21
3.2
31
0
0
LINE
8
0
62
0
10
370
20
150
30
0
11
370
21
146.8
31
0
0
LINE
8
0
62
0
10
372.5
20
0
30
0
11
372.5
21
3.2
31
0
0
LINE
8
0
62
0
10
372.5
20
150
30
0
11
372.5
21
146.8
31
0
0
LINE
8
0
62
0
10
375
20
0
30
0
11
375
21
6.4
31
0
0
LINE
8
0
62
0
10
375
20
150
30
0
11
375
21
143.6
31
0
0
TEXT
8
0
62
0
10
375
20
-12
30
0
40
8
1
150
50
0
0
LINE
8
0
62
0
10
377.5
20
0
30
0
11
377.5
21
3.2
31
0
0
LINE
8
0
62
0
10
377.5
20
150
30
0
11
377.5
21
146.8
31
0
0
LINE
8
0
62
0
10
380
20
0
30
0
11
380
21
3.2
31
0
0
LINE
8
0
62
0
10
380
20
150
30
0
11
380
21
146.8
31
0
0
LINE
8
0
62
0
10
382.5
20
0
30
0
11
382.5
21
3.2
31
0
0
LINE
8
0
62
0
10
382.5
20
150
30
0
11
382.5
21
146.8
31
0
0
LINE
8
0
62
0
10
385
20
0
30
0
11
385
21
3.2
31
0
0
LINE
8
0
62
0
10
385
20
150
30
0
11
385
21
146.8
31
0
0
LINE
8
0
62
0
10
387.5
20
0
30
0
11
387.5
21
6.4
31
0
0
LINE
8
0
62
0
10
387.5
20
150
30
0
11
387.5
21
143.6
31
0
0
TEXT
8
0
62
0
10
387.5
20
-12
30
0
40
8
1
155
50
0
0
LINE
8
0
62
0
10
390
20
0
30
0
11
390
21
3.2
31
0
0
LINE
8
0
62
0
10
390
20
150
30
0
11
390
21
146.8
31
0
0
LINE
8
0
62
0
10
392.5
20
0
30
0
11
392.5
21
3.2
31
0
0
LINE
8
0
62
0
10
392.5
20
150
30
0
11
392.5
21
146.8
31
0
0
LINE
8
0
62
0
10
395
20
0
30
0
11
395
21
3.2
31
0
0
LINE
8
0
62
0
10
395
20
150
30
0
11
395
21
146.8
31
0
0
LINE
8
0
62
0
10
397.5
20
0
30
0
11
397.5
21
3.2
31
0
0
LINE
8
0
62
0
10
397.5
20
150
30
0
11
397.5
21
146.8
31
0
0
LINE
8
0
62
0
10
400
20
0
30
0
11
400
21
6.4
31
0
0
LINE
8
0
62
0
10
400
20
150
30
0
11
400
21
143.6
31
0
0
TEXT
8
0
62
0
10
400
20
-12
30
0
40
8
1
160
50
0
0
LINE
8
0
62
0
10
402.5
20
0
30
0
11
402.5
21
3.2
31
0
0
LINE
8
0
62
0
10
402.5
20
150
30
0
11
402.5
21
146.8
31
0
0
LINE
8
0
62
0
10
405
20
0
30
0
11
405
21
3.2
31
0
0
LINE
8
0
62
0
10
405
20
150
30
0
11
405
21
146.8
31
0
0
LINE
8
0
62
0
10
407.5
20
0
30
0
11
407.5
21
3.2
31
0
0
LINE
8
0
62
0
10
407.5
20
150
30
0
11
407.5
21
146.8
31
0
0
LINE
8
0
62
0
10
410
20
0
30
0
11
410
21
3.2
31
0
0
LINE
8
0
62
0
10
410
20
150
30
0
11
410
21
146.8
31
0
0
LINE
8
0
62
0
10
412.5
20
0
30
0
11
412.5
21
6.4
31
0
0
LINE
8
0
62
0
10
412.5
20
150
30
0
11
412.5
21
143.6
31
0
0
TEXT
8
0
62
0
10
412.5
20
-12
30
0
40
8
1
165
50
0
0
LINE
8
0
62
0
10
415
20
0
30
0
11
415
21
3.2
31
0
0
LINE
8
0
62
0
10
415
20
150
30
0
11
415
21
146.8
31
0
0
LINE
8
0
62
0
10
417.5
20
0
30
0
11
417.5
21
3.2
31
0
0
LINE
8
0
62
0
10
417.5
20
150
30
0
11
417.5
21
146.8
31
0
0
LINE
8
0
62
0
10
420
20
0
30
0
11
420
21
3.2
31
0
0
LINE
8
0
62
0
10
420
20
150
30
0
11
420
21
146.8
31
0
0
LINE
8
0
62
0
10
422.5
20
0
30
0
11
422.5
21
3.2
31
0
0
LINE
8
0
62
0
10
422.5
20
150
30
0
11
422.5
21
146.8
31
0
0
LINE
8
0
62
0
10
425
20
0
30
0
11
425
21
6.4
31
0
0
LINE
8
0
62
0
10
425
20
150
30
0
11
425
21
143.6
31
0
0
TEXT
8
0
62
0
10
425
20
-12
30
0
40
8
1
170
50
0
0
LINE
8
0
62
0
10
427.5
20
0
30
0
11
427.5
21
3.2
31
0
0
LINE
8
0
62
0
10
427.5
20
150
30
0
11
427.5
21
146.8
31
0
0
LINE
8
0
62
0
10
430
20
0
30
0
11
430
21
3.2
31
0
0
LINE
8
0
62
0
10
430
20
150
30
0
11
430
21
146.8
31
0
0
LINE
8
0
62
0
10
432.5
20
0
30
0
11
432.5
21
3.2
31
0
0
LINE
8
0
62
0
10
432.5
20
150
30
0
11
432.5
21
146.8
31
0
0
LINE
8
0
62
0
10
435
20
0
30
0
11
435
21
3.2
31
0
0
LINE
8
0
62
0
10
435
20
150
30
0
11
435
21
146.8
31
0
0
LINE
8
0
62
0
10
437.5
20
0
30
0
11
437.5
21
6.4
31
0
0
LINE
8
0
62
0
10
437.5
20
150
30
0
11
437.5
21
143.6
31
0
0
TEXT
8
0
62
0
10
437.5
20
-12
30
0
40
8
1
175
50
0
0
LINE
8
0
62
0
10
440
20
0
30
0
11
440
21
3.2
31
0
0
LINE
8
0
62
0
10
440
20
150
30
0
11
440
21
146.8
31
0
0
LINE
8
0
62
0
10
442.5
20
0
30
0
11
442.5
21
3.2
31
0
0
LINE
8
0
62
0
10
442.5
20
150
30
0
11
442.5
21
146.8
31
0
0
LINE
8
0
62
0
10
445
20
0
30
0
11
445
21
3.2
31
0
0
LINE
8
0
62
0
10
445
20
150
30
0
11
445
21
146.8
31
0
0
LINE
8
0
62
0
10
447.5
20
0
30
0
11
447.5
21
3.2
31
0
0
LINE
8
0
62
0
10
447.5
20
150
30
0
11
447.5
21
146.8
31
0
0
LINE
8
0
62
0
10
450
20
0
30
0
11
450
21
6.4
31
0
0
LINE
8
0
62
0
10
450
20
150
30
0
11
450
21
143.6
31
0
0
TEXT
8
0
62
0
10
450
20
-12
30
0
40
8
1
180
50
0
0
LINE
8
0
62
0
10
452.5
20
0
30
0
11
452.5
21
3.2
31
0
0
LINE
8
0
62
0
10
452.5
20
150
30
0
11
452.5
21
146.8
31
0
0
LINE
8
0
62
0
10
455
20
0
30
0
11
455
21
3.2
31
0
0
LINE
8
0
62
0
10
455
20
150
30
0
11
455
21
146.8
31
0
0
LINE
8
0
62
0
10
457.5
20
0
30
0
11
457.5
21
3.2
31
0
0
LINE
8
0
62
0
10
457.5
20
150
30
0
11
457.5
21
146.8
31
0
0
LINE
8
0
62
0
10
460
20
0
30
0
11
460
21
3.2
31
0
0
LINE
8
0
62
0
10
460
20
150
30
0
11
460
21
146.8
31
0
0
LINE
8
0
62
0
10
462.5
20
0
30
0
11
462.5
21
6.4
31
0
0
LINE
8
0
62
0
10
462.5
20
150
30
0
11
462.5
21
143.6
31
0
0
TEXT
8
0
62
0
10
462.5
20
-12
30
0
40
8
1
185
50
0
0
LINE
8
0
62
0
10
465
20
0
30
0
11
465
21
3.2
31
0
0
LINE
8
0
62
0
10
465
20
150
30
0
11
465
21
146.8
31
0
0
LINE
8
0
62
0
10
467.5
20
0
30
0
11
467.5
21
3.2
31
0
0
LINE
8
0
62
0
10
467.5
20
150
30
0
11
467.5
21
146.8
31
0
0
LINE
8
0
62
0
10
470
20
0
30
0
11
470
21
3.2
31
0
0
LINE
8
0
62
0
10
470
20
150
30
0
11
470
21
146.8
31
0
0
LINE
8
0
62
0
10
472.5
20
0
30
0
11
472.5
21
3.2
31
0
0
LINE
8
0
62
0
10
472.5
20
150
30
0
11
472.5
21
146.8
31
0
0
LINE
8
0
62
0
10
475
20
0
30
0
11
475
21
6.4
31
0
0
LINE
8
0
62
0
10
475
20
150
30
0
11
475
21
143.6
31
0
0
TEXT
8
0
62
0
10
475
20
-12
30
0
40
8
1
190
50
0
0
LINE
8
0
62
0
10
477.5
20
0
30
0
11
477.5
21
3.2
31
0
0
LINE
8
0
62
0
10
477.5
20
150
30
0
11
477.5
21
146.8
31
0
0
LINE
8
0
62
0
10
480
20
0
30
0
11
480
21
3.2
31
0
0
LINE
8
0
62
0
10
480
20
150
30
0
11
480
21
146.8
31
0
0
LINE
8
0
62
0
10
482.5
20
0
30
0
11
482.5
21
3.2
31
0
0
LINE
8
0
62
0
10
482.5
20
150
30
0
11
482.5
21
146.8
31
0
0
LINE
8
0
62
0
10
485
20
0
30
0
11
485
21
3.2
31
0
0
LINE
8
0
62
0
10
485
20
150
30
0
11
485
21
146.8
31
0
0
LINE
8
0
62
0
10
487.5
20
0
30
0
11
487.5
21
6.4
31
0
0
LINE
8
0
62
0
10
487.5
20
150
30
0
11
487.5
21
143.6
31
0
0
TEXT
8
0
62
0
10
487.5
20
-12
30
0
40
8
1
195
50
0
0
LINE
8
0
62
0
10
490
20
0
30
0
11
490
21
3.2
31
0
0
LINE
8
0
62
0
10
490
20
150
30
0
11
490
21
146.8
31
0
0
LINE
8
0
62
0
10
492.5
20
0
30
0
11
492.5
21
3.2
31
0
0
LINE
8
0
62
0
10
492.5
20
150
30
0
11
492.5
21
146.8
31
0
0
LINE
8
0
62
0
10
495
20
0
30
0
11
495
21
3.2
31
0
0
LINE
8
0
62
0
10
495
20
150
30
0
11
495
21
146.8
31
0
0
LINE
8
0
62
0
10
497.5
20
0
30
0
11
497.5
21
3.2
31
0
0
LINE
8
0
62
0
10
497.5
20
150
30
0
11
497.5
21
146.8
31
0
0
LINE
8
0
62
0
10
500
20
0
30
0
11
500
21
6.4
31
0
0
LINE
8
0
62
0
10
500
20
150
30
0
11
500
21
143.6
31
0
0
TEXT
8
0
62
0
10
500
20
-12
30
0
40
8
1
200
50
0
0
TEXT
8
0
62
0
10
-4
20
-4
30
0
40
8
1
0
50
0
0
LINE
8
0
62
0
10
0
20
8
30
0
11
3.2
21
8
31
0
0
LINE
8
0
62
0
10
500
20
8
30
0
11
496.8
21
8
31
0
0
LINE
8
0
62
0
10
0
20
16
30
0
11
3.2
21
16
31
0
0
LINE
8
0
62
0
10
500
20
16
30
0
11
496.8
21
16
31
0
0
LINE
8
0
62
0
10
0
20
24
30
0
11
3.2
21
24
31
0
0
LINE
8
0
62
0
10
500
20
24
30
0
11
496.8
21
24
31
0
0
LINE
8
0
62
0
10
0
20
32
30
0
11
3.2
21
32
31
0
0
LINE
8
0
62
0
10
500
20
32
30
0
11
496.8
21
32
31
0
0
LINE
8
0
62
0
10
0
20
40
30
0
11
6.4
21
40
31
0
0
LINE
8
0
62
0
10
500
20
40
30
0
11
493.6
21
40
31
0
0
TEXT
8
0
62
0
10
-4
20
36
30
0
40
8
1
40
50
0
0
LINE
8
0
62
0
10
0
20
48
30
0
11
3.2
21
48
31
0
0
LINE
8
0
62
0
10
500
20
48
30
0
11
496.8
21
48
31
0
0
LINE
8
0
62
0
10
0
20
56
30
0
11
3.2
21
56
31
0
0
LINE
8
0
62
0
10
500
20
56
30
0
11
496.8
21
56
31
0
0
LINE
8
0
62
0
10
0
20
64
30
0
11
3.2
21
64
31
0
0
LINE
8
0
62
0
10
500
20
64
30
0
11
496.8
21
64
31
0
0
LINE
8
0
62
0
10
0
20
72
30
0
11
3.2
21
72
31
0
0
LINE
8
0
62
0
10
500
20
72
30
0
11
496.8
21
72
31
0
0
LINE
8
0
62
0
10
0
20
80
30
0
11
6.4
21
80
31
0
0
LINE
8
0
62
0
10
500
20
80
30
0
11
493.6
21
80
31
0
0
TEXT
8
0
62
0
10
-4
20
76
30
0
40
8
1
80
50
0
0
LINE
8
0
62
0
10
0
20
88
30
0
11
3.2
21
88
31
0
0
LINE
8
0
62
0
10
500
20
88
30
0
11
496.8
21
88
31
0
0
LINE
8
0
62
0
10
0
20
96
30
0
11
3.2
21
96
31
0
0
LINE
8
0
62
0
10
500
20
96
30
0
11
496.8
21
96
31
0
0
LINE
8
0
62
0
10
0
20
104
30
0
11
3.2
21
104
31
0
0
LINE
8
0
62
0
10
500
20
104
30
0
11
496.8
21
104
31
0
0
LINE
8
0
62
0
10
0
20
112
30
0
11
3.2
21
112
31
0
0
LINE
8
0
62
0
10
500
20
112
30
0
11
496.8
21
112
31
0
0
LINE
8
0
62
0
10
0
20
120
30
0
11
6.4
21
120
31
0
0
LINE
8
0
62
0
10
500
20
120
30
0
11
493.6
21
120
31
0
0
TEXT
8
0
62
0
10
-4
20
116
30
0
40
8
1
120
50
0
0
LINE
8
0
62
0
10
0
20
128
30
0
11
3.2
21
128
31
0
0
LINE
8
0
62
0
10
500
20
128
30
0
11
496.8
21
128
31
0
0
LINE
8
0
62
0
10
0
20
136
30
0
11
3.2
21
136
31
0
0
LINE
8
0
62
0
10
500
20
136
30
0
11
496.8
21
136
31
0
0
LINE
8
0
62
0
10
0
20
144
30
0
11
3.2
21
144
31
0
0
LINE
8
0
62
0
10
500
20
144
30
0
11
496.8
21
144
31
0
0
TEXT
8
0
62
0
10
250
20
-32
30
0
40
10
1
R (kpc)
50
0
0
TEXT
8
0
62
0
10
-24
20
75
30
0
40
10
1
V (km/s)
50
90
0
TEXT
8
0
62
0
10
233
20
165
30
0
40
11
1
V vs. R
50
0
0
POLYLINE
8
0
62
0
70
0
10
0
20
0
30
0
0
VERTEX
8
0
10
0
20
0
30
0
0
VERTEX
8
0
10
2.5
20
0
30
0
0
VERTEX
8
0
10
5
20
0
30
0
0
VERTEX
8
0
10
7.5
20
0
30
0
0
VERTEX
8
0
10
10
20
0
30
0
0
VERTEX
8
0
10
12.5
20
0
30
0
0
VERTEX
8
0
10
15
20
0
30
0
0
VERTEX
8
0
10
17.5
20
0
30
0
0
VERTEX
8
0
10
20
20
0
30
0
0
VERTEX
8
0
10
22.5
20
0
30
0
0
VERTEX
8
0
10
25
20
0
30
0
0
VERTEX
8
0
10
27.5
20
0
30
0
0
VERTEX
8
0
10
30
20
0
30
0
0
VERTEX
8
0
10
32.5
20
0
30
0
0
VERTEX
8
0
10
35
20
0
30
0
0
VERTEX
8
0
10
37.5
20
0
30
0
0
VERTEX
8
0
10
40
20
0
30
0
0
VERTEX
8
0
10
42.5
20
0
30
0
0
VERTEX
8
0
10
45
20
0
30
0
0
VERTEX
8
0
10
47.5
20
0
30
0
0
VERTEX
8
0
10
50
20
0
30
0
0
VERTEX
8
0
10
52.5
20
0
30
0
0
VERTEX
8
0
10
55
20
0
30
0
0
VERTEX
8
0
10
57.5
20
0
30
0
0
VERTEX
8
0
10
60
20
0
30
0
0
VERTEX
8
0
10
62.5
20
0
30
0
0
VERTEX
8
0
10
65
20
0
30
0
0
VERTEX
8
0
10
67.5
20
0
30
0
0
VERTEX
8
0
10
70
20
0
30
0
0
VERTEX
8
0
10
72.5
20
0
30
0
0
VERTEX
8
0
10
75
20
0
30
0
0
VERTEX
8
0
10
77.5
20
0
30
0
0
VERTEX
8
0
10
80
20
0
30
0
0
VERTEX
8
0
10
82.5
20
0
30
0
0
VERTEX
8
0
10
85
20
0
30
0
0
VERTEX
8
0
10
87.5
20
0
30
0
0
VERTEX
8
0
10
90
20
0
30
0
0
VERTEX
8
0
10
92.5
20
0
30
0
0
VERTEX
8
0
10
95
20
0
30
0
0
VERTEX
8
0
10
97.5
20
0
30
0
0
VERTEX
8
0
10
100
20
0
30
0
0
VERTEX
8
0
10
102.5
20
0
30
0
0
VERTEX
8
0
10
105
20
0
30
0
0
VERTEX
8
0
10
107.5
20
0
30
0
0
VERTEX
8
0
10
110
20
0
30
0
0
VERTEX
8
0
10
112.5
20
0
30
0
0
VERTEX
8
0
10
115
20
0
30
0
0
VERTEX
8
0
10
117.5
20
0
30
0
0
VERTEX
8
0
10
120
20
0
30
0
0
VERTEX
8
0
10
122.5
20
0
30
0
0
VERTEX
8
0
10
125
20
0
30
0
0
VERTEX
8
0
10
127.5
20
0
30
0
0
VERTEX
8
0
10
130
20
0
30
0
0
VERTEX
8
0
10
132.5
20
0
30
0
0
VERTEX
8
0
10
135
20
0
30
0
0
VERTEX
8
0
10
137.5
20
0
30
0
0
VERTEX
8
0
10
140
20
0
30
0
0
VERTEX
8
0
10
142.5
20
0
30
0
0
VERTEX
8
0
10
145
20
0
30
0
0
VERTEX
8
0
10
147.5
20
0
30
0
0
VERTEX
8
0
10
150
20
0
30
0
0
VERTEX
8
0
10
152.5
20
0
30
0
0
VERTEX
8
0
10
155
20
0
30
0
0
VERTEX
8
0
10
157.5
20
0
30
0
0
VERTEX
8
0
10
160
20
0
30
0
0
VERTEX
8
0
10
162.5
20
0
30
0
0
VERTEX
8
0
10
165
20
0
30
0
0
VERTEX
8
0
10
167.5
20
0
30
0
0
VERTEX
8
0
10
170
20
0
30
0
0
VERTEX
8
0
10
172.5
20
0
30
0
0
VERTEX
8
0
10
175
20
0
30
0
0
VERTEX
8
0
10
177.5
20
0
30
0
0
VERTEX
8
0
10
180
20
0
30
0
0
VERTEX
8
0
10
182.5
20
0
30
0
0
VERTEX
8
0
10
185
20
0
30
0
0
VERTEX
8
0
10
187.5
20
0
30
0
0
VERTEX
8
0
10
190
20
0
30
0
0
VERTEX
8
0
10
192.5
20
0
30
0
0
VERTEX
8
0
10
195
20
0
30
0
0
VERTEX
8
0
10
197.5
20
0
30
0
0
VERTEX
8
0
10
200
20
0
30
0
0
VERTEX
8
0
10
202.5
20
0
30
0
0
VERTEX
8
0
10
205
20
0
30
0
0
VERTEX
8
0
10
207.5
20
0
30
0
0
VERTEX
8
0
10
210
20
0
30
0
0
VERTEX
8
0
10
212.5
20
0
30
0
0
VERTEX
8
0
10
215
20
0
30
0
0
VERTEX
8
0
10
217.5
20
0
30
0
0
VERTEX
8
0
10
220
20
0
30
0
0
VERTEX
8
0
10
222.5
20
0
30
0
0
VERTEX
8
0
10
225
20
0
30
0
0
VERTEX
8
0
10
227.5
20
0
30
0
0
VERTEX
8
0
10
230
20
0
30
0
0
VERTEX
8
0
10
232.5
20
0
30
0
0
VERTEX
8
0
10
235
20
0
30
0
0
VERTEX
8
0
10
237.5
20
0
30
0
0
VERTEX
8
0
10
240
20
0
30
0
0
VERTEX
8
0
10
242.5
20
0
30
0
0
VERTEX
8
0
10
245
20
0
30
0
0
VERTEX
8
0
10
247.5
20
0
30
0
0
VERTEX
8
0
10
250
20
0
30
0
0
VERTEX
8
0
10
252.5
20
0
30
0
0
VERTEX
8
0
10
255
20
0
30
0
0
VERTEX
8
0
10
257.5
20
0
30
0
0
VERTEX
8
0
10
260
20
0
30
0
0
VERTEX
8
0
10
262.5
20
0
30
0
0
VERTEX
8
0
10
265
20
0
30
0
0
VERTEX
8
0
10
267.5
20
0
30
0
0
VERTEX
8
0
10
270
20
0
30
0
0
VERTEX
8
0
10
272.5
20
0
30
0
0
VERTEX
8
0
10
275
20
0
30
0
0
VERTEX
8
0
10
277.5
20
0
30
0
0
VERTEX
8
0
10
280
20
0
30
0
0
VERTEX
8
0
10
282.5
20
0
30
0
0
VERTEX
8
0
10
285
20
0
30
0
0
VERTEX
8
0
10
287.5
20
0
30
0
0
VERTEX
8
0
10
290
20
0
30
0
0
VERTEX
8
0
10
292.5
20
0
30
0
0
VERTEX
8
0
10
295
20
0
30
0
0
VERTEX
8
0
10
297.5
20
0
30
0
0
VERTEX
8
0
10
300
20
0
30
0
0
VERTEX
8
0
10
302.5
20
0
30
0
0
VERTEX
8
0
10
305
20
0
30
0
0
VERTEX
8
0
10
307.5
20
0
30
0
0
VERTEX
8
0
10
310
20
0
30
0
0
VERTEX
8
0
10
312.5
20
0
30
0
0
VERTEX
8
0
10
315
20
0
30
0
0
VERTEX
8
0
10
317.5
20
0
30
0
0
VERTEX
8
0
10
320
20
0
30
0
0
VERTEX
8
0
10
322.5
20
0
30
0
0
VERTEX
8
0
10
325
20
0
30
0
0
VERTEX
8
0
10
327.5
20
0
30
0
0
VERTEX
8
0
10
330
20
0
30
0
0
VERTEX
8
0
10
332.5
20
0
30
0
0
VERTEX
8
0
10
335
20
0
30
0
0
VERTEX
8
0
10
337.5
20
0
30
0
0
VERTEX
8
0
10
340
20
0
30
0
0
VERTEX
8
0
10
342.5
20
0
30
0
0
VERTEX
8
0
10
345
20
0
30
0
0
VERTEX
8
0
10
347.5
20
0
30
0
0
VERTEX
8
0
10
350
20
0
30
0
0
VERTEX
8
0
10
352.5
20
0
30
0
0
VERTEX
8
0
10
355
20
0
30
0
0
VERTEX
8
0
10
357.5
20
0
30
0
0
VERTEX
8
0
10
360
20
0
30
0
0
VERTEX
8
0
10
362.5
20
0
30
0
0
VERTEX
8
0
10
365
20
0
30
0
0
VERTEX
8
0
10
367.5
20
0
30
0
0
VERTEX
8
0
10
370
20
0
30
0
0
VERTEX
8
0
10
372.5
20
0
30
0
0
VERTEX
8
0
10
375
20
0
30
0
0
VERTEX
8
0
10
377.5
20
0
30
0
0
VERTEX
8
0
10
380
20
0
30
0
0
VERTEX
8
0
10
382.5
20
0
30
0
0
VERTEX
8
0
10
385
20
0
30
0
0
VERTEX
8
0
10
387.5
20
0
30
0
0
VERTEX
8
0
10
390
20
0
30
0
0
VERTEX
8
0
10
392.5
20
0
30
0
0
VERTEX
8
0
10
395
20
0
30
0
0
VERTEX
8
0
10
397.5
20
0
30
0
0
VERTEX
8
0
10
400
20
0
30
0
0
VERTEX
8
0
10
402.5
20
0
30
0
0
VERTEX
8
0
10
405
20
0
30
0
0
VERTEX
8
0
10
407.5
20
0
30
0
0
VERTEX
8
0
10
410
20
0
30
0
0
VERTEX
8
0
10
412.5
20
0
30
0
0
VERTEX
8
0
10
415
20
0
30
0
0
VERTEX
8
0
10
417.5
20
0
30
0
0
VERTEX
8
0
10
420
20
0
30
0
0
VERTEX
8
0
10
422.5
20
0
30
0
0
VERTEX
8
0
10
425
20
0
30
0
0
VERTEX
8
0
10
427.5
20
0
30
0
0
VERTEX
8
0
10
430
20
0
30
0
0
VERTEX
8
0
10
432.5
20
0
30
0
0
VERTEX
8
0
10
435
20
0
30
0
0
VERTEX
8
0
10
437.5
20
0
30
0
0
VERTEX
8
0
10
440
20
0
30
0
0
VERTEX
8
0
10
442.5
20
0
30
0
0
VERTEX
8
0
10
445
20
0
30
0
0
VERTEX
8
0
10
447.5
20
0
30
0
0
VERTEX
8
0
10
450
20
0
30
0
0
VERTEX
8
0
10
452.5
20
0
30
0
0
VERTEX
8
0
10
455
20
0
30
0
0
VERTEX
8
0
10
457.5
20
0
30
0
0
VERTEX
8
0
10
460
20
0
30
0
0
VERTEX
8
0
10
462.5
20
0
30
0
0
VERTEX
8
0
10
465
20
0
30
0
0
VERTEX
8
0
10
467.5
20
0
30
0
0
VERTEX
8
0
10
470
20
0
30
0
0
VERTEX
8
0
10
472.5
20
0
30
0
0
VERTEX
8
0
10
475
20
0
30
0
0
SEQEND
8
0
0
POLYLINE
8
0
62
1
70
0
10
0
20
0
30
0
0
VERTEX
8
0
10
0
20
0
30
0
0
VERTEX
8
0
10
2.5
20
0
30
0
0
VERTEX
8
0
10
5
20
0
30
0
0
VERTEX
8
0
10
7.5
20
0
30
0
0
VERTEX
8
0
10
10
20
0
30
0
0
VERTEX
8
0
10
12.5
20
0
30
0
0
VERTEX
8
0
10
15
20
0
30
0
0
VERTEX
8
0
10
17.5
20
0
30
0
0
VERTEX
8
0
10
20
20
0
30
0
0
VERTEX
8
0
10
22.5
20
0
30
0
0
VERTEX
8
0
10
25
20
0
30
0
0
VERTEX
8
0
10
27.5
20
0
30
0
0
VERTEX
8
0
10
30
20
0
30
0
0
VERTEX
8
0
10
32.5
20
0
30
0
0
VERTEX
8
0
10
35
20
0
30
0
0
VERTEX
8
0
10
37.5
20
0
30
0
0
VERTEX
8
0
10
40
20
0
30
0
0
VERTEX
8
0
10
42.5
20
0
30
0
0
VERTEX
8
0
10
45
20
0
30
0
0
VERTEX
8
0
10
47.5
20
0
30
0
0
VERTEX
8
0
10
50
20
0
30
0
0
VERTEX
8
0
10
52.5
20
0
30
0
0
VERTEX
8
0
10
55
20
0
30
0
0
VERTEX
8
0
10
57.5
20
0
30
0
0
VERTEX
8
0
10
60
20
0
30
0
0
VERTEX
8
0
10
62.5
20
0
30
0
0
VERTEX
8
0
10
65
20
0
30
0
0
VERTEX
8
0
10
67.5
20
0
30
0
0
VERTEX
8
0
10
70
20
0
30
0
0
VERTEX
8
0
10
72.5
20
0
30
0
0
VERTEX
8
0
10
75
20
0
30
0
0
VERTEX
8
0
10
77.5
20
0
30
0
0
VERTEX
8
0
10
80
20
0
30
0
0
VERTEX
8
0
10
82.5
20
0
30
0
0
VERTEX
8
0
10
85
20
0
30
0
0
VERTEX
8
0
10
87.5
20
0
30
0
0
VERTEX
8
0
10
90
20
0
30
0
0
VERTEX
8
0
10
92.5
20
0
30
0
0
VERTEX
8
0
10
95
20
0
30
0
0
VERTEX
8
0
10
97.5
20
0
30
0
0
VERTEX
8
0
10
100
20
0
30
0
0
VERTEX
8
0
10
102.5
20
0
30
0
0
VERTEX
8
0
10
105
20
0
30
0
0
VERTEX
8
0
10
107.5
20
0
30
0
0
VERTEX
8
0
10
110
20
0
30
0
0
VERTEX
8
0
10
112.5
20
0
30
0
0
VERTEX
8
0
10
115
20
0
30
0
0
VERTEX
8
0
10
117.5
20
0
30
0
0
VERTEX
8
0
10
120
20
0
30
0
0
VERTEX
8
0
10
122.5
20
0
30
0
0
VERTEX
8
0
10
125
20
0
30
0
0
VERTEX
8
0
10
127.5
20
0
30
0
0
VERTEX
8
0
10
130
20
0
30
0
0
VERTEX
8
0
10
132.5
20
0
30
0
0
VERTEX
8
0
10
135
20
0
30
0
0
VERTEX
8
0
10
137.5
20
0
30
0
0
VERTEX
8
0
10
140
20
0
30
0
0
VERTEX
8
0
10
142.5
20
0
30
0
0
VERTEX
8
0
10
145
20
0
30
0
0
VERTEX
8
0
10
147.5
20
0
30
0
0
VERTEX
8
0
10
150
20
0
30
0
0
VERTEX
8
0
10
152.5
20
0
30
0
0
VERTEX
8
0
10
155
20
0
30
0
0
VERTEX
8
0
10
157.5
20
0
30
0
0
VERTEX
8
0
10
160
20
0
30
0
0
VERTEX
8
0
10
162.5
20
0
30
0
0
VERTEX
8
0
10
165
20
0
30
0
0
VERTEX
8
0
10
167.5
20
0
30
0
0
VERTEX
8
0
10
170
20
0
30
0
0
VERTEX
8
0
10
172.5
20
0
30
0
0
VERTEX
8
0
10
175
20
0
30
0
0
VERTEX
8
0
10
177.5
20
0
30
0
0
VERTEX
8
0
10
180
20
0
30
0
0
VERTEX
8
0
10
182.5
20
0
30
0
0
VERTEX
8
0
10
185
20
0
30
0
0
VERTEX
8
0
10
187.5
20
0
30
0
0
VERTEX
8
0
10
190
20
0
30
0
0
VERTEX
8
0
10
192.5
20
0
30
0
0
VERTEX
8
0
10
195
20
0
30
0
0
VERTEX
8
0
10
197.5
20
0
30
0
0
VERTEX
8
0
10
200
20
0
30
0
0
VERTEX
8
0
10
202.5
20
0
30
0
0
VERTEX
8
0
10
205
20
0
30
0
0
VERTEX
8
0
10
207.5
20
0
30
0
0
VERTEX
8
0
10
210
20
0
30
0
0
VERTEX
8
0
10
212.5
20
0
30
0
0
VERTEX
8
0
10
215
20
0
30
0
0
VERTEX
8
0
10
217.5
20
0
30
0
0
VERTEX
8
0
10
220
20
0
30
0
0
VERTEX
8
0
10
222.5
20
0
30
0
0
VERTEX
8
0
10
225
20
0
30
0
0
VERTEX
8
0
10
227.5
20
0
30
0
0
VERTEX
8
0
10
230
20
0
30
0
0
VERTEX
8
0
10
232.5
20
0
30
0
0
VERTEX
8
0
10
235
20
0
30
0
0
VERTEX
8
0
10
237.5
20
0
30
0
0
VERTEX
8
0
10
240
20
0
30
0
0
VERTEX
8
0
10
242.5
20
0
30
0
0
VERTEX
8
0
10
245
20
0
30
0
0
VERTEX
8
0
10
247.5
20
0
30
0
0
VERTEX
8
0
10
250
20
0
30
0
0
VERTEX
8
0
10
252.5
20
0
30
0
0
VERTEX
8
0
10
255
20
0
30
0
0
VERTEX
8
0
10
257.5
20
0
30
0
0
VERTEX
8
0
10
260
20
0
30
0
0
VERTEX
8
0
10
262.5
20
0
30
0
0
VERTEX
8
0
10
265
20
0
30
0
0
VERTEX
8
0
10
267.5
20
0
30
0
0
VERTEX
8
0
10
270
20
0
30
0
0
VERTEX
8
0
10
272.5
20
0
30
0
0
VERTEX
8
0
10
275
20
0
30
0
0
VERTEX
8
0
10
277.5
20
0
30
0
0
VERTEX
8
0
10
280
20
0
30
0
0
VERTEX
8
0
10
282.5
20
0
30
0
0
VERTEX
8
0
10
285
20
0
30
0
0
VERTEX
8
0
10
287.5
20
0
30
0
0
VERTEX
8
0
10
290
20
0
30
0
0
VERTEX
8
0
10
292.5
20
0
30
0
0
VERTEX
8
0
10
295
20
0
30
0
0
VERTEX
8
0
10
297.5
20
0
30
0
0
VERTEX
8
0
10
300
20
0
30
0
0
VERTEX
8
0
10
302.5
20
0
30
0
0
VERTEX
8
0
10
305
20
0
30
0
0
VERTEX
8
0
10
307.5
20
0
30
0
0
VERTEX
8
0
10
310
20
0
30
0
0
VERTEX
8
0
10
312.5
20
0
30
0
0
VERTEX
8
0
10
315
20
0
30
0
0
VERTEX
8
0
10
317.5
20
0
30
0
0
VERTEX
8
0
10
320
20
0
30
0
0
VERTEX
8
0
10
322.5
20
0
30
0
0
VERTEX
8
0
10
325
20
0
30
0
0
VERTEX
8
0
10
327.5
20
0
30
0
0
VERTEX
8
0
10
330
20
0
30
0
0
VERTEX
8
0
10
332.5
20
0
30
0
0
VERTEX
8
0
10
335
20
0
30
0
0
VERTEX
8
0
10
337.5
20
0
30
0
0
VERTEX
8
0
10
340
20
0
30
0
0
VERTEX
8
0
10
342.5
20
0
30
0
0
VERTEX
8
0
10
345
20
0
30
0
0
VERTEX
8
0
10
347.5
20
0
30
0
0
VERTEX
8
0
10
350
20
0
30
0
0
VERTEX
8
0
10
352.5
20
0
30
0
0
VERTEX
8
0
10
355
20
0
30
0
0
VERTEX
8
0
10
357.5
20
0
30
0
0
VERTEX
8
0
10
360
20
0
30
0
0
VERTEX
8
0
10
362.5
20
0
30
0
0
VERTEX
8
0
10
365
20
0
30
0
0
VERTEX
8
0
10
367.5
20
0
30
0
0
VERTEX
8
0
10
370
20
0
30
0
0
VERTEX
8
0
10
372.5
20
0
30
0
0
VERTEX
8
0
10
375
20
0
30
0
0
VERTEX
8
0
10
377.5
20
0
30
0
0
VERTEX
8
0
10
380
20
0
30
0
0
VERTEX
8
0
10
382.5
20
0
30
0
0
VERTEX
8
0
10
385
20
0
30
0
0
VERTEX
8
0
10
387.5
20
0
30
0
0
VERTEX
8
0
10
390
20
0
30
0
0
VERTEX
8
0
10
392.5
20
0
30
0
0
VERTEX
8
0
10
395
20
0
30
0
0
VERTEX
8
0
10
397.5
20
0
30
0
0
VERTEX
8
0
10
400
20
0
30
0
0
VERTEX
8
0
10
402.5
20
0
30
0
0
VERTEX
8
0
10
405
20
0
30
0
0
VERTEX
8
0
10
407.5
20
0
30
0
0
VERTEX
8
0
10
410
20
0
30
0
0
VERTEX
8
0
10
412.5
20
0
30
0
0
VERTEX
8
0
10
415
20
0
30
0
0
VERTEX
8
0
10
417.5
20
0
30
0
0
VERTEX
8
0
10
420
20
0
30
0
0
VERTEX
8
0
10
422.5
20
0
30
0
0
VERTEX
8
0
10
425
20
0
30
0
0
VERTEX
8
0
10
427.5
20
0
30
0
0
VERTEX
8
0
10
430
20
0
30
0
0
VERTEX
8
0
10
432.5
20
0
30
0
0
VERTEX
8
0
10
435
20
0
30
0
0
VERTEX
8
0
10
437.5
20
0
30
0
0
VERTEX
8
0
10
440
20
0
30
0
0
VERTEX
8
0
10
442.5
20
0
30
0
0
VERTEX
8
0
10
445
20
0
30
0
0
VERTEX
8
0
10
447.5
20
0
30
0
0
VERTEX
8
0
10
450
20
0
30
0
0
VERTEX
8
0
10
452.5
20
0
30
0
0
VERTEX
8
0
10
455
20
0
30
0
0
VERTEX
8
0
10
457.5
20
0
30
0
0
VERTEX
8
0
10
460
20
0
30
0
0
VERTEX
8
0
10
462.5
20
0
30
0
0
VERTEX
8
0
10
465
20
0
30
0
0
VERTEX
8
0
10
467.5
20
0
30
0
0
VERTEX
8
0
10
470
20
0
30
0
0
VERTEX
8
0
10
472.5
20
0
30
0
0
VERTEX
8
0
10
475
20
0
30
0
0
SEQEND
8
0
0
POLYLINE
8
0
62
2
70
0
10
0
20
0
30
0
0
VERTEX
8
0
10
0
20
0
30
0
0
VERTEX
8
0
10
2.5
20
8.00201884204021
30
0
0
VERTEX
8
0
10
5
20
16.0043454630412
30
0
0
VERTEX
8
0
10
7.5
20
24.0068960137412
30
0
0
VERTEX
8
0
10
10
20
32.0096306589893
30
0
0
VERTEX
8
0
10
12.5
20
40.0125624910366
30
0
0
VERTEX
8
0
10
15
20
48.0157559068378
30
0
0
VERTEX
8
0
10
17.5
20
56.0193733185236
30
0
0
VERTEX
8
0
10
20
20
64.0238855404246
30
0
0
VERTEX
8
0
10
22.5
20
72.0314962087929
30
0
0
VERTEX
8
0
10
25
20
80.032437099421
30
0
0
VERTEX
8
0
10
27.5
20
76.3197799661108
30
0
0
VERTEX
8
0
10
30
20
73.0676586735331
30
0
0
VERTEX
8
0
10
32.5
20
70.2002585962957
30
0
0
VERTEX
8
0
10
35
20
67.6462632005447
30
0
0
VERTEX
8
0
10
37.5
20
65.3522787258291
30
0
0
VERTEX
8
0
10
40
20
63.2769352907266
30
0
0
VERTEX
8
0
10
42.5
20
61.3875530049101
30
0
0
VERTEX
8
0
10
45
20
59.657913780777
30
0
0
VERTEX
8
0
10
47.5
20
58.0667021203938
30
0
0
VERTEX
8
0
10
50
20
56.596384614578
30
0
0
VERTEX
8
0
10
52.5
20
55.2323880777596
30
0
0
VERTEX
8
0
10
55
20
53.9624862062278
30
0
0
VERTEX
8
0
10
57.5
20
52.7763348498732
30
0
0
VERTEX
8
0
10
60
20
51.6651150801272
30
0
0
VERTEX
8
0
10
62.5
20
50.6212556748658
30
0
0
VERTEX
8
0
10
65
20
49.638214937385
30
0
0
VERTEX
8
0
10
67.5
20
48.7103074119395
30
0
0
VERTEX
8
0
10
70
20
47.8325649679187
30
0
0
VERTEX
8
0
10
72.5
20
47.0006244752719
30
0
0
VERTEX
8
0
10
75
20
46.210636256846
30
0
0
VERTEX
8
0
10
77.5
20
45.4591889228429
30
0
0
VERTEX
8
0
10
80
20
44.7432472316156
30
0
0
VERTEX
8
0
10
82.5
20
44.0601003900829
30
0
0
VERTEX
8
0
10
85
20
43.4073187822322
30
0
0
VERTEX
8
0
10
87.5
20
42.7827175485682
30
0
0
VERTEX
8
0
10
90
20
42.1843257704003
30
0
0
VERTEX
8
0
10
92.5
20
41.6103602672883
30
0
0
VERTEX
8
0
10
95
20
41.0592032130662
30
0
0
VERTEX
8
0
10
97.5
20
40.5293829297159
30
0
0
VERTEX
8
0
10
100
20
40.019557339295
30
0
0
VERTEX
8
0
10
102.5
20
39.5284996498237
30
0
0
VERTEX
8
0
10
105
20
39.055085927242
30
0
0
VERTEX
8
0
10
107.5
20
38.5982842665999
30
0
0
VERTEX
8
0
10
110
20
38.1571453248287
30
0
0
VERTEX
8
0
10
112.5
20
37.7307940172805
30
0
0
VERTEX
8
0
10
115
20
37.3184222126592
30
0
0
VERTEX
8
0
10
117.5
20
36.9192822875036
30
0
0
VERTEX
8
0
10
120
20
36.5326814231957
30
0
0
VERTEX
8
0
10
122.5
20
36.1579765464727
30
0
0
VERTEX
8
0
10
125
20
35.7945698293538
30
0
0
VERTEX
8
0
10
127.5
20
35.4419046768233
30
0
0
VERTEX
8
0
10
130
20
35.0994621409945
30
0
0
VERTEX
8
0
10
132.5
20
34.7667577091962
30
0
0
VERTEX
8
0
10
135
20
34.4433384207578
30
0
0
VERTEX
8
0
10
137.5
20
34.1287802734628
30
0
0
VERTEX
8
0
10
140
20
33.8226858858948
30
0
0
VERTEX
8
0
10
142.5
20
33.5246823863635
30
0
0
VERTEX
8
0
10
145
20
33.2344195029034
30
0
0
VERTEX
8
0
10
147.5
20
32.9515678320989
30
0
0
VERTEX
8
0
10
150
20
32.6758172672776
30
0
0
VERTEX
8
0
10
152.5
20
32.4068755690205
30
0
0
VERTEX
8
0
10
155
20
32.1444670630046
30
0
0
VERTEX
8
0
10
157.5
20
31.8883314519891
30
0
0
VERTEX
8
0
10
160
20
31.6382227303035
30
0
0
VERTEX
8
0
10
162.5
20
31.3939081905498
30
0
0
VERTEX
8
0
10
165
20
31.155167513399
30
0
0
VERTEX
8
0
10
167.5
20
30.9217919323921
30
0
0
VERTEX
8
0
10
170
20
30.6935834665464
30
0
0
VERTEX
8
0
10
172.5
20
30.470354214359
30
0
0
VERTEX
8
0
10
175
20
30.2519257034824
30
0
0
VERTEX
8
0
10
177.5
20
30.0381282909595
30
0
0
VERTEX
8
0
10
180
20
29.828800609436
30
0
0
VERTEX
8
0
10
182.5
20
29.6237890552421
30
0
0
VERTEX
8
0
10
185
20
29.4229473146541
30
0
0
VERTEX
8
0
10
187.5
20
29.2261359250141
30
0
0
VERTEX
8
0
10
190
20
29.0332218677175
30
0
0
VERTEX
8
0
10
192.5
20
28.8440781903699
30
0
0
VERTEX
8
0
10
195
20
28.6585836556726
30
0
0
VERTEX
8
0
10
197.5
20
28.4766224148321
30
0
0
VERTEX
8
0
10
200
20
28.2980837034945
30
0
0
VERTEX
8
0
10
202.5
20
28.1228615583911
30
0
0
VERTEX
8
0
10
205
20
27.9508545530476
30
0
0
VERTEX
8
0
10
207.5
20
27.7819655510617
30
0
0
VERTEX
8
0
10
210
20
27.616101475583
30
0
0
VERTEX
8
0
10
212.5
20
27.453173093754
30
0
0
VERTEX
8
0
10
215
20
27.2930948149772
30
0
0
VERTEX
8
0
10
217.5
20
27.1357845019734
30
0
0
VERTEX
8
0
10
220
20
26.9811632936823
30
0
0
VERTEX
8
0
10
222.5
20
26.8291554391393
30
0
0
VERTEX
8
0
10
225
20
26.679688141532
30
0
0
VERTEX
8
0
10
227.5
20
26.5326914117093
30
0
0
VERTEX
8
0
10
230
20
26.3880979304718
30
0
0
VERTEX
8
0
10
232.5
20
26.2458429190279
30
0
0
VERTEX
8
0
10
235
20
26.1058640170516
30
0
0
VERTEX
8
0
10
237.5
20
25.9681011678172
30
0
0
VERTEX
8
0
10
240
20
25.8324965099336
30
0
0
VERTEX
8
0
10
242.5
20
25.698994275233
30
0
0
VERTEX
8
0
10
245
20
25.5675406924047
30
0
0
VERTEX
8
0
10
247.5
20
25.4380838959971
30
0
0
VERTEX
8
0
10
250
20
25.3105738404366
30
0
0
VERTEX
8
0
10
252.5
20
25.1849622187409
30
0
0
VERTEX
8
0
10
255
20
25.0612023856261
30
0
0
VERTEX
8
0
10
257.5
20
24.9392492847297
30
0
0
VERTEX
8
0
10
260
20
24.819059379692
30
0
0
VERTEX
8
0
10
262.5
20
24.700590588856
30
0
0
VERTEX
8
0
10
265
20
24.583802223364
30
0
0
VERTEX
8
0
10
267.5
20
24.4686549284434
30
0
0
VERTEX
8
0
10
270
20
24.3551106276892
30
0
0
VERTEX
8
0
10
272.5
20
24.2431324701655
30
0
0
VERTEX
8
0
10
275
20
24.1326847801571
30
0
0
VERTEX
8
0
10
277.5
20
24.0237330094171
30
0
0
VERTEX
8
0
10
280
20
23.9162436917641
30
0
0
VERTEX
8
0
10
282.5
20
23.8101843998951
30
0
0
VERTEX
8
0
10
285
20
23.7055237042864
30
0
0
VERTEX
8
0
10
287.5
20
23.6022311340635
30
0
0
VERTEX
8
0
10
290
20
23.500277139732
30
0
0
VERTEX
8
0
10
292.5
20
23.3996330576627
30
0
0
VERTEX
8
0
10
295
20
23.3002710762364
30
0
0
VERTEX
8
0
10
297.5
20
23.2021642035569
30
0
0
VERTEX
8
0
10
300
20
23.1052862366465
30
0
0
VERTEX
8
0
10
302.5
20
23.0096117320447
30
0
0
VERTEX
8
0
10
305
20
22.9151159777352
30
0
0
VERTEX
8
0
10
307.5
20
22.821774966331
30
0
0
VERTEX
8
0
10
310
20
22.7295653694511
30
0
0
VERTEX
8
0
10
312.5
20
22.6384645132267
30
0
0
VERTEX
8
0
10
315
20
22.548450354879
30
0
0
VERTEX
8
0
10
317.5
20
22.4595014603133
30
0
0
VERTEX
8
0
10
320
20
22.3715969826778
30
0
0
VERTEX
8
0
10
322.5
20
22.2847166418382
30
0
0
VERTEX
8
0
10
325
20
22.1988407047225
30
0
0
VERTEX
8
0
10
327.5
20
22.1139499664925
30
0
0
VERTEX
8
0
10
330
20
22.0300257325018
30
0
0
VERTEX
8
0
10
332.5
20
21.947049801
30
0
0
VERTEX
8
0
10
335
20
21.8650044465503
30
0
0
VERTEX
8
0
10
337.5
20
21.7838724041215
30
0
0
VERTEX
8
0
10
340
20
21.7036368538266
30
0
0
VERTEX
8
0
10
342.5
20
21.624281406274
30
0
0
VERTEX
8
0
10
345
20
21.5457900885037
30
0
0
VERTEX
8
0
10
347.5
20
21.4681473304818
30
0
0
VERTEX
8
0
10
350
20
21.3913379521255
30
0
0
VERTEX
8
0
10
352.5
20
21.3153471508358
30
0
0
VERTEX
8
0
10
355
20
21.2401604895136
30
0
0
VERTEX
8
0
10
357.5
20
21.165763885038
30
0
0
VERTEX
8
0
10
360
20
21.0921435971846
30
0
0
VERTEX
8
0
10
362.5
20
21.0192862179658
30
0
0
VERTEX
8
0
10
365
20
20.9471786613727
30
0
0
VERTEX
8
0
10
367.5
20
20.8758081535019
30
0
0
VERTEX
8
0
10
370
20
20.8051622230493
30
0
0
VERTEX
8
0
10
372.5
20
20.7352286921564
30
0
0
VERTEX
8
0
10
375
20
20.6659956675911
30
0
0
VERTEX
8
0
10
377.5
20
20.5974515322524
30
0
0
VERTEX
8
0
10
380
20
20.5295849369811
30
0
0
VERTEX
8
0
10
382.5
20
20.4623847926667
30
0
0
VERTEX
8
0
10
385
20
20.3958402626357
30
0
0
VERTEX
8
0
10
387.5
20
20.3299407553113
30
0
0
VERTEX
8
0
10
390
20
20.2646759171314
30
0
0
VERTEX
8
0
10
392.5
20
20.200035625716
30
0
0
VERTEX
8
0
10
395
20
20.1360099832723
30
0
0
VERTEX
8
0
10
397.5
20
20.0725893102281
30
0
0
VERTEX
8
0
10
400
20
20.0097641390852
30
0
0
VERTEX
8
0
10
402.5
20
19.947525208482
30
0
0
VERTEX
8
0
10
405
20
19.8858634574591
30
0
0
VERTEX
8
0
10
407.5
20
19.8247700199177
30
0
0
VERTEX
8
0
10
410
20
19.7642362192651
30
0
0
VERTEX
8
0
10
412.5
20
19.704253563238
30
0
0
VERTEX
8
0
10
415
20
19.6448137388983
30
0
0
VERTEX
8
0
10
417.5
20
19.5859086077938
30
0
0
VERTEX
8
0
10
420
20
19.5275302012771
30
0
0
VERTEX
8
0
10
422.5
20
19.4696707159776
30
0
0
VERTEX
8
0
10
425
20
19.4123225094203
30
0
0
VERTEX
8
0
10
427.5
20
19.3554780957851
30
0
0
VERTEX
8
0
10
430
20
19.2991301418024
30
0
0
VERTEX
8
0
10
432.5
20
19.2432714627793
30
0
0
VERTEX
8
0
10
435
20
19.1878950187515
30
0
0
VERTEX
8
0
10
437.5
20
19.1329939107564
30
0
0
VERTEX
8
0
10
440
20
19.0785613772227
30
0
0
VERTEX
8
0
10
442.5
20
19.0245907904724
30
0
0
VERTEX
8
0
10
445
20
18.9710756533314
30
0
0
VERTEX
8
0
10
447.5
20
18.9180095958435
30
0
0
VERTEX
8
0
10
450
20
18.8653863720859
30
0
0
VERTEX
8
0
10
452.5
20
18.8131998570813
30
0
0
VERTEX
8
0
10
455
20
18.7614440438028
30
0
0
VERTEX
8
0
10
457.5
20
18.7101130402703
30
0
0
VERTEX
8
0
10
460
20
18.6592010667323
30
0
0
VERTEX
8
0
10
462.5
20
18.6087024529325
30
0
0
VERTEX
8
0
10
465
20
18.5586116354575
30
0
0
VERTEX
8
0
10
467.5
20
18.5089231551617
30
0
0
VERTEX
8
0
10
470
20
18.4596316546685
30
0
0
VERTEX
8
0
10
472.5
20
18.4107318759441
30
0
0
VERTEX
8
0
10
475
20
18.3622186579412
30
0
0
SEQEND
8
0
0
POLYLINE
8
0
62
3
70
0
10
0
20
0
30
0
0
VERTEX
8
0
10
0
20
0
30
0
0
VERTEX
8
0
10
2.5
20
14.6810062394914
30
0
0
VERTEX
8
0
10
5
20
29.2996175441086
30
0
0
VERTEX
8
0
10
7.5
20
43.7909425013945
30
0
0
VERTEX
8
0
10
10
20
58.0851063413357
30
0
0
VERTEX
8
0
10
12.5
20
72.1037367191385
30
0
0
VERTEX
8
0
10
15
20
85.7546863566191
30
0
0
VERTEX
8
0
10
17.5
20
98.9231554668592
30
0
0
VERTEX
8
0
10
20
20
111.454402784279
30
0
0
VERTEX
8
0
10
22.5
20
123.111944764523
30
0
0
VERTEX
8
0
10
25
20
133.386793701112
30
0
0
VERTEX
8
0
10
27.5
20
134.383498025727
30
0
0
VERTEX
8
0
10
30
20
134.642502573409
30
0
0
VERTEX
8
0
10
32.5
20
134.606033289129
30
0
0
VERTEX
8
0
10
35
20
134.423882788661
30
0
0
VERTEX
8
0
10
37.5
20
134.167411050616
30
0
0
VERTEX
8
0
10
40
20
133.874424127396
30
0
0
VERTEX
8
0
10
42.5
20
133.566115715732
30
0
0
VERTEX
8
0
10
45
20
133.254727826005
30
0
0
VERTEX
8
0
10
47.5
20
132.947404897073
30
0
0
VERTEX
8
0
10
50
20
132.648276395362
30
0
0
VERTEX
8
0
10
52.5
20
132.359641488772
30
0
0
VERTEX
8
0
10
55
20
132.082669423323
30
0
0
VERTEX
8
0
10
57.5
20
131.817826009817
30
0
0
VERTEX
8
0
10
60
20
131.56513931401
30
0
0
VERTEX
8
0
10
62.5
20
131.324368059425
30
0
0
VERTEX
8
0
10
65
20
131.095109703549
30
0
0
VERTEX
8
0
10
67.5
20
130.876870344858
30
0
0
VERTEX
8
0
10
70
20
130.669110079116
30
0
0
VERTEX
8
0
10
72.5
20
130.47127235405
30
0
0
VERTEX
8
0
10
75
20
130.282802786868
30
0
0
VERTEX
8
0
10
77.5
20
130.103160991443
30
0
0
VERTEX
8
0
10
80
20
129.931827747486
30
0
0
VERTEX
8
0
10
82.5
20
129.768309062211
30
0
0
VERTEX
8
0
10
85
20
129.612138164466
30
0
0
VERTEX
8
0
10
87.5
20
129.46287613373
30
0
0
VERTEX
8
0
10
90
20
129.320111640752
30
0
0
VERTEX
8
0
10
92.5
20
129.183460124379
30
0
0
VERTEX
8
0
10
95
20
129.052562625585
30
0
0
VERTEX
8
0
10
97.5
20
128.927084428857
30
0
0
VERTEX
8
0
10
100
20
128.806713612326
30
0
0
VERTEX
8
0
10
102.5
20
128.691159574377
30
0
0
VERTEX
8
0
10
105
20
128.580151581153
30
0
0
VERTEX
8
0
10
107.5
20
128.473437363283
30
0
0
VERTEX
8
0
10
110
20
128.370781778998
30
0
0
VERTEX
8
0
10
112.5
20
128.271965553156
30
0
0
VERTEX
8
0
10
115
20
128.176784096498
30
0
0
VERTEX
8
0
10
117.5
20
128.085046405924
30
0
0
VERTEX
8
0
10
120
20
127.996574044277
30
0
0
VERTEX
8
0
10
122.5
20
127.911200196658
30
0
0
VERTEX
8
0
10
125
20
127.828768799391
30
0
0
VERTEX
8
0
10
127.5
20
127.749133737279
30
0
0
VERTEX
8
0
10
130
20
127.6721581046
30
0
0
VERTEX
8
0
10
132.5
20
127.597713525233
30
0
0
VERTEX
8
0
10
135
20
127.525679527465
30
0
0
VERTEX
8
0
10
137.5
20
127.455942969156
30
0
0
VERTEX
8
0
10
140
20
127.388397509216
30
0
0
VERTEX
8
0
10
142.5
20
127.322943121567
30
0
0
VERTEX
8
0
10
145
20
127.259485648061
30
0
0
VERTEX
8
0
10
147.5
20
127.197936387064
30
0
0
VERTEX
8
0
10
150
20
127.138211714675
30
0
0
VERTEX
8
0
10
152.5
20
127.080232735831
30
0
0
VERTEX
8
0
10
155
20
127.02392496273
30
0
0
VERTEX
8
0
10
157.5
20
126.969218018253
30
0
0
VERTEX
8
0
10
160
20
126.916045362272
30
0
0
VERTEX
8
0
10
162.5
20
126.864344038893
30
0
0
VERTEX
8
0
10
165
20
126.814054442881
30
0
0
VERTEX
8
0
10
167.5
20
126.765120103637
30
0
0
VERTEX
8
0
10
170
20
126.717487485291
30
0
0
VERTEX
8
0
10
172.5
20
126.671105801548
30
0
0
VERTEX
8
0
10
175
20
126.625926844081
30
0
0
VERTEX
8
0
10
177.5
20
126.581904823368
30
0
0
VERTEX
8
0
10
180
20
126.538996220951
30
0
0
VERTEX
8
0
10
182.5
20
126.497159652198
30
0
0
VERTEX
8
0
10
185
20
126.456355738741
30
0
0
VERTEX
8
0
10
187.5
20
126.416546989799
30
0
0
VERTEX
8
0
10
190
20
126.377697691706
30
0
0
VERTEX
8
0
10
192.5
20
126.339773804992
30
0
0
VERTEX
8
0
10
195
20
126.302742868445
30
0
0
VERTEX
8
0
10
197.5
20
126.266573909592
30
0
0
VERTEX
8
0
10
200
20
126.231237361151
30
0
0
VERTEX
8
0
10
202.5
20
126.196704982959
30
0
0
VERTEX
8
0
10
205
20
126.162949789004
30
0
0
VERTEX
8
0
10
207.5
20
126.129945979159
30
0
0
VERTEX
8
0
10
210
20
126.097668875281
30
0
0
VERTEX
8
0
10
212.5
20
126.066094861359
30
0
0
VERTEX
8
0
10
215
20
126.035201327414
30
0
0
VERTEX
8
0
10
217.5
20
126.004966616886
30
0
0
VERTEX
8
0
10
220
20
125.975369977259
30
0
0
VERTEX
8
0
10
222.5
20
125.946391513695
30
0
0
VERTEX
8
0
10
225
20
125.918012145475
30
0
0
VERTEX
8
0
10
227.5
20
125.890213565038
30
0
0
VERTEX
8
0
10
230
20
125.862978199458
30
0
0
VERTEX
8
0
10
232.5
20
125.836289174178
30
0
0
VERTEX
8
0
10
235
20
125.810130278863
30
0
0
VERTEX
8
0
10
237.5
20
125.784485935216
30
0
0
VERTEX
8
0
10
240
20
125.759341166644
30
0
0
VERTEX
8
0
10
242.5
20
125.734681569631
30
0
0
VERTEX
8
0
10
245
20
125.710493286732
30
0
0
VERTEX
8
0
10
247.5
20
125.686762981063
30
0
0
VERTEX
8
0
10
250
20
125.663477812203
30
0
0
VERTEX
8
0
10
252.5
20
125.640625413415
30
0
0
VERTEX
8
0
10
255
20
125.618193870099
30
0
0
VERTEX
8
0
10
257.5
20
125.596171699411
30
0
0
VERTEX
8
0
10
260
20
125.574547830962
30
0
0
VERTEX
8
0
10
262.5
20
125.553311588543
30
0
0
VERTEX
8
0
10
265
20
125.532452672806
30
0
0
VERTEX
8
0
10
267.5
20
125.511961144847
30
0
0
VERTEX
8
0
10
270
20
125.491827410636
30
0
0
VERTEX
8
0
10
272.5
20
125.472042206242
30
0
0
VERTEX
8
0
10
275
20
125.452596583809
30
0
0
VERTEX
8
0
10
277.5
20
125.43348189824
30
0
0
VERTEX
8
0
10
280
20
125.414689794541
30
0
0
VERTEX
8
0
10
282.5
20
125.396212195795
30
0
0
VERTEX
8
0
10
285
20
125.378041291729
30
0
0
VERTEX
8
0
10
287.5
20
125.360169527836
30
0
0
VERTEX
8
0
10
290
20
125.34258959502
30
0
0
VERTEX
8
0
10
292.5
20
125.325294419744
30
0
0
VERTEX
8
0
10
295
20
125.308277154647
30
0
0
VERTEX
8
0
10
297.5
20
125.291531169598
30
0
0
VERTEX
8
0
10
300
20
125.275050043177
30
0
0
VERTEX
8
0
10
302.5
20
125.258827554548
30
0
0
VERTEX
8
0
10
305
20
125.24285767571
30
0
0
VERTEX
8
0
10
307.5
20
125.227134564105
30
0
0
VERTEX
8
0
10
310
20
125.211652555554
30
0
0
VERTEX
8
0
10
312.5
20
125.196406157524
30
0
0
VERTEX
8
0
10
315
20
125.181390042688
30
0
0
VERTEX
8
0
10
317.5
20
125.16659904278
30
0
0
VERTEX
8
0
10
320
20
125.152028142709
30
0
0
VERTEX
8
0
10
322.5
20
125.137672474947
30
0
0
VERTEX
8
0
10
325
20
125.123527314149
30
0
0
VERTEX
8
0
10
327.5
20
125.109588072015
30
0
0
VERTEX
8
0
10
330
20
125.095850292364
30
0
0
VERTEX
8
0
10
332.5
20
125.082309646426
30
0
0
VERTEX
8
0
10
335
20
125.068961928329
30
0
0
VERTEX
8
0
10
337.5
20
125.055803050778
30
0
0
VERTEX
8
0
10
340
20
125.042829040915
30
0
0
VERTEX
8
0
10
342.5
20
125.030036036349
30
0
0
VERTEX
8
0
10
345
20
125.017420281347
30
0
0
VERTEX
8
0
10
347.5
20
125.004978123192
30
0
0
VERTEX
8
0
10
350
20
124.992706008676
30
0
0
VERTEX
8
0
10
352.5
20
124.980600480743
30
0
0
VERTEX
8
0
10
355
20
124.968658175263
30
0
0
VERTEX
8
0
10
357.5
20
124.956875817939
30
0
0
VERTEX
8
0
10
360
20
124.94525022133
30
0
0
VERTEX
8
0
10
362.5
20
124.933778281998
30
0
0
VERTEX
8
0
10
365
20
124.922456977761
30
0
0
VERTEX
8
0
10
367.5
20
124.911283365058
30
0
0
VERTEX
8
0
10
370
20
124.90025457641
30
0
0
VERTEX
8
0
10
372.5
20
124.889367817985
30
0
0
VERTEX
8
0
10
375
20
124.87862036725
30
0
0
VERTEX
8
0
10
377.5
20
124.868009570716
30
0
0
VERTEX
8
0
10
380
20
124.857532841767
30
0
0
VERTEX
8
0
10
382.5
20
124.847187658564
30
0
0
VERTEX
8
0
10
385
20
124.836971562043
30
0
0
VERTEX
8
0
10
387.5
20
124.826882153968
30
0
0
VERTEX
8
0
10
390
20
124.816917095068
30
0
0
VERTEX
8
0
10
392.5
20
124.807074103238
30
0
0
VERTEX
8
0
10
395
20
124.797350951807
30
0
0
VERTEX
8
0
10
397.5
20
124.787745467864
30
0
0
VERTEX
8
0
10
400
20
124.77825553065
30
0
0
VERTEX
8
0
10
402.5
20
124.768879070007
30
0
0
VERTEX
8
0
10
405
20
124.759614064873
30
0
0
VERTEX
8
0
10
407.5
20
124.750458541844
30
0
0
VERTEX
8
0
10
410
20
124.741410573775
30
0
0
VERTEX
8
0
10
412.5
20
124.732468278437
30
0
0
VERTEX
8
0
10
415
20
124.723629817214
30
0
0
VERTEX
8
0
10
417.5
20
124.714893393852
30
0
0
VERTEX
8
0
10
420
20
124.706257253246
30
0
0
VERTEX
8
0
10
422.5
20
124.697719680271
30
0
0
VERTEX
8
0
10
425
20
124.689278998648
30
0
0
VERTEX
8
0
10
427.5
20
124.680933569856
30
0
0
VERTEX
8
0
10
430
20
124.672681792073
30
0
0
VERTEX
8
0
10
432.5
20
124.664522099156
30
0
0
VERTEX
8
0
10
435
20
124.656452959656
30
0
0
VERTEX
8
0
10
437.5
20
124.648472875862
30
0
0
VERTEX
8
0
10
440
20
124.640580382876
30
0
0
VERTEX
8
0
10
442.5
20
124.632774047726
30
0
0
VERTEX
8
0
10
445
20
124.625052468496
30
0
0
VERTEX
8
0
10
447.5
20
124.617414273493
30
0
0
VERTEX
8
0
10
450
20
124.609858120438
30
0
0
VERTEX
8
0
10
452.5
20
124.60238269568
30
0
0
VERTEX
8
0
10
455
20
124.59498671344
30
0
0
VERTEX
8
0
10
457.5
20
124.587668915077
30
0
0
VERTEX
8
0
10
460
20
124.580428068373
30
0
0
VERTEX
8
0
10
462.5
20
124.573262966849
30
0
0
VERTEX
8
0
10
465
20
124.56617242909
30
0
0
VERTEX
8
0
10
467.5
20
124.559155298107
30
0
0
VERTEX
8
0
10
470
20
124.552210440701
30
0
0
VERTEX
8
0
10
472.5
20
124.54533674686
30
0
0
VERTEX
8
0
10
475
20
124.53853312917
30
0
0
SEQEND
8
0
0
POLYLINE
8
0
62
4
70
0
10
0
20
0
30
0
0
VERTEX
8
0
10
0
20
0
30
0
0
VERTEX
8
0
10
2.5
20
14.6810062394914
30
0
0
VERTEX
8
0
10
5
20
29.2996175441086
30
0
0
VERTEX
8
0
10
7.5
20
43.7909425013945
30
0
0
VERTEX
8
0
10
10
20
58.0851063413357
30
0
0
VERTEX
8
0
10
12.5
20
72.1037367191385
30
0
0
VERTEX
8
0
10
15
20
85.7546863566191
30
0
0
VERTEX
8
0
10
17.5
20
98.9231554668592
30
0
0
VERTEX
8
0
10
20
20
111.454402784279
30
0
0
VERTEX
8
0
10
22.5
20
123.111944764523
30
0
0
VERTEX
8
0
10
25
20
133.386793701112
30
0
0
VERTEX
8
0
10
27.5
20
134.383498025727
30
0
0
VERTEX
8
0
10
30
20
134.642502573409
30
0
0
VERTEX
8
0
10
32.5
20
134.606033289129
30
0
0
VERTEX
8
0
10
35
20
134.423882788661
30
0
0
VERTEX
8
0
10
37.5
20
134.167411050616
30
0
0
VERTEX
8
0
10
40
20
133.874424127396
30
0
0
VERTEX
8
0
10
42.5
20
133.566115715732
30
0
0
VERTEX
8
0
10
45
20
133.254727826005
30
0
0
VERTEX
8
0
10
47.5
20
132.947404897073
30
0
0
VERTEX
8
0
10
50
20
132.648276395362
30
0
0
VERTEX
8
0
10
52.5
20
132.359641488772
30
0
0
VERTEX
8
0
10
55
20
132.082669423323
30
0
0
VERTEX
8
0
10
57.5
20
131.817826009817
30
0
0
VERTEX
8
0
10
60
20
131.56513931401
30
0
0
VERTEX
8
0
10
62.5
20
131.324368059425
30
0
0
VERTEX
8
0
10
65
20
131.095109703549
30
0
0
VERTEX
8
0
10
67.5
20
130.876870344858
30
0
0
VERTEX
8
0
10
70
20
130.669110079116
30
0
0
VERTEX
8
0
10
72.5
20
130.47127235405
30
0
0
VERTEX
8
0
10
75
20
130.282802786868
30
0
0
VERTEX
8
0
10
77.5
20
130.103160991443
30
0
0
VERTEX
8
0
10
80
20
129.931827747486
30
0
0
VERTEX
8
0
10
82.5
20
129.768309062211
30
0
0
VERTEX
8
0
10
85
20
129.612138164466
30
0
0
VERTEX
8
0
10
87.5
20
129.46287613373
30
0
0
VERTEX
8
0
10
90
20
129.320111640752
30
0
0
VERTEX
8
0
10
92.5
20
129.183460124379
30
0
0
VERTEX
8
0
10
95
20
129.052562625585
30
0
0
VERTEX
8
0
10
97.5
20
128.927084428857
30
0
0
VERTEX
8
0
10
100
20
128.806713612326
30
0
0
VERTEX
8
0
10
102.5
20
128.691159574377
30
0
0
VERTEX
8
0
10
105
20
128.580151581153
30
0
0
VERTEX
8
0
10
107.5
20
128.473437363283
30
0
0
VERTEX
8
0
10
110
20
128.370781778998
30
0
0
VERTEX
8
0
10
112.5
20
128.271965553156
30
0
0
VERTEX
8
0
10
115
20
128.176784096498
30
0
0
VERTEX
8
0
10
117.5
20
128.085046405924
30
0
0
VERTEX
8
0
10
120
20
127.996574044277
30
0
0
VERTEX
8
0
10
122.5
20
127.911200196658
30
0
0
VERTEX
8
0
10
125
20
127.828768799391
30
0
0
VERTEX
8
0
10
127.5
20
127.749133737279
30
0
0
VERTEX
8
0
10
130
20
127.6721581046
30
0
0
VERTEX
8
0
10
132.5
20
127.597713525233
30
0
0
VERTEX
8
0
10
135
20
127.525679527465
30
0
0
VERTEX
8
0
10
137.5
20
127.455942969156
30
0
0
VERTEX
8
0
10
140
20
127.388397509216
30
0
0
VERTEX
8
0
10
142.5
20
127.322943121567
30
0
0
VERTEX
8
0
10
145
20
127.259485648061
30
0
0
VERTEX
8
0
10
147.5
20
127.197936387064
30
0
0
VERTEX
8
0
10
150
20
127.138211714675
30
0
0
VERTEX
8
0
10
152.5
20
127.080232735831
30
0
0
VERTEX
8
0
10
155
20
127.02392496273
30
0
0
VERTEX
8
0
10
157.5
20
126.969218018253
30
0
0
VERTEX
8
0
10
160
20
126.916045362272
30
0
0
VERTEX
8
0
10
162.5
20
126.864344038893
30
0
0
VERTEX
8
0
10
165
20
126.814054442881
30
0
0
VERTEX
8
0
10
167.5
20
126.765120103637
30
0
0
VERTEX
8
0
10
170
20
126.717487485291
30
0
0
VERTEX
8
0
10
172.5
20
126.671105801548
30
0
0
VERTEX
8
0
10
175
20
126.625926844081
30
0
0
VERTEX
8
0
10
177.5
20
126.581904823368
30
0
0
VERTEX
8
0
10
180
20
126.538996220951
30
0
0
VERTEX
8
0
10
182.5
20
126.497159652198
30
0
0
VERTEX
8
0
10
185
20
126.456355738741
30
0
0
VERTEX
8
0
10
187.5
20
126.416546989799
30
0
0
VERTEX
8
0
10
190
20
126.377697691706
30
0
0
VERTEX
8
0
10
192.5
20
126.339773804992
30
0
0
VERTEX
8
0
10
195
20
126.302742868445
30
0
0
VERTEX
8
0
10
197.5
20
126.266573909592
30
0
0
VERTEX
8
0
10
200
20
126.231237361151
30
0
0
VERTEX
8
0
10
202.5
20
126.196704982959
30
0
0
VERTEX
8
0
10
205
20
126.162949789004
30
0
0
VERTEX
8
0
10
207.5
20
126.129945979159
30
0
0
VERTEX
8
0
10
210
20
126.097668875281
30
0
0
VERTEX
8
0
10
212.5
20
126.066094861359
30
0
0
VERTEX
8
0
10
215
20
126.035201327414
30
0
0
VERTEX
8
0
10
217.5
20
126.004966616886
30
0
0
VERTEX
8
0
10
220
20
125.975369977259
30
0
0
VERTEX
8
0
10
222.5
20
125.946391513695
30
0
0
VERTEX
8
0
10
225
20
125.918012145475
30
0
0
VERTEX
8
0
10
227.5
20
125.890213565038
30
0
0
VERTEX
8
0
10
230
20
125.862978199458
30
0
0
VERTEX
8
0
10
232.5
20
125.836289174178
30
0
0
VERTEX
8
0
10
235
20
125.810130278863
30
0
0
VERTEX
8
0
10
237.5
20
125.784485935216
30
0
0
VERTEX
8
0
10
240
20
125.759341166644
30
0
0
VERTEX
8
0
10
242.5
20
125.734681569631
30
0
0
VERTEX
8
0
10
245
20
125.710493286732
30
0
0
VERTEX
8
0
10
247.5
20
125.686762981063
30
0
0
VERTEX
8
0
10
250
20
125.663477812203
30
0
0
VERTEX
8
0
10
252.5
20
125.640625413415
30
0
0
VERTEX
8
0
10
255
20
125.618193870099
30
0
0
VERTEX
8
0
10
257.5
20
125.596171699411
30
0
0
VERTEX
8
0
10
260
20
125.574547830962
30
0
0
VERTEX
8
0
10
262.5
20
125.553311588543
30
0
0
VERTEX
8
0
10
265
20
125.532452672806
30
0
0
VERTEX
8
0
10
267.5
20
125.511961144847
30
0
0
VERTEX
8
0
10
270
20
125.491827410636
30
0
0
VERTEX
8
0
10
272.5
20
125.472042206242
30
0
0
VERTEX
8
0
10
275
20
125.452596583809
30
0
0
VERTEX
8
0
10
277.5
20
125.43348189824
30
0
0
VERTEX
8
0
10
280
20
125.414689794541
30
0
0
VERTEX
8
0
10
282.5
20
125.396212195795
30
0
0
VERTEX
8
0
10
285
20
125.378041291729
30
0
0
VERTEX
8
0
10
287.5
20
125.360169527836
30
0
0
VERTEX
8
0
10
290
20
125.34258959502
30
0
0
VERTEX
8
0
10
292.5
20
125.325294419744
30
0
0
VERTEX
8
0
10
295
20
125.308277154647
30
0
0
VERTEX
8
0
10
297.5
20
125.291531169598
30
0
0
VERTEX
8
0
10
300
20
125.275050043177
30
0
0
VERTEX
8
0
10
302.5
20
125.258827554548
30
0
0
VERTEX
8
0
10
305
20
125.24285767571
30
0
0
VERTEX
8
0
10
307.5
20
125.227134564105
30
0
0
VERTEX
8
0
10
310
20
125.211652555554
30
0
0
VERTEX
8
0
10
312.5
20
125.196406157524
30
0
0
VERTEX
8
0
10
315
20
125.181390042688
30
0
0
VERTEX
8
0
10
317.5
20
125.16659904278
30
0
0
VERTEX
8
0
10
320
20
125.152028142709
30
0
0
VERTEX
8
0
10
322.5
20
125.137672474947
30
0
0
VERTEX
8
0
10
325
20
125.123527314149
30
0
0
VERTEX
8
0
10
327.5
20
125.109588072015
30
0
0
VERTEX
8
0
10
330
20
125.095850292364
30
0
0
VERTEX
8
0
10
332.5
20
125.082309646426
30
0
0
VERTEX
8
0
10
335
20
125.068961928329
30
0
0
VERTEX
8
0
10
337.5
20
125.055803050778
30
0
0
VERTEX
8
0
10
340
20
125.042829040915
30
0
0
VERTEX
8
0
10
342.5
20
125.030036036349
30
0
0
VERTEX
8
0
10
345
20
125.017420281347
30
0
0
VERTEX
8
0
10
347.5
20
125.004978123192
30
0
0
VERTEX
8
0
10
350
20
124.992706008676
30
0
0
VERTEX
8
0
10
352.5
20
124.980600480743
30
0
0
VERTEX
8
0
10
355
20
124.968658175263
30
0
0
VERTEX
8
0
10
357.5
20
124.956875817939
30
0
0
VERTEX
8
0
10
360
20
124.94525022133
30
0
0
VERTEX
8
0
10
362.5
20
124.933778281998
30
0
0
VERTEX
8
0
10
365
20
124.922456977761
30
0
0
VERTEX
8
0
10
367.5
20
124.911283365058
30
0
0
VERTEX
8
0
10
370
20
124.90025457641
30
0
0
VERTEX
8
0
10
372.5
20
124.889367817985
30
0
0
VERTEX
8
0
10
375
20
124.87862036725
30
0
0
VERTEX
8
0
10
377.5
20
124.868009570716
30
0
0
VERTEX
8
0
10
380
20
124.857532841767
30
0
0
VERTEX
8
0
10
382.5
20
124.847187658564
30
0
0
VERTEX
8
0
10
385
20
124.836971562043
30
0
0
VERTEX
8
0
10
387.5
20
124.826882153968
30
0
0
VERTEX
8
0
10
390
20
124.816917095068
30
0
0
VERTEX
8
0
10
392.5
20
124.807074103238
30
0
0
VERTEX
8
0
10
395
20
124.797350951807
30
0
0
VERTEX
8
0
10
397.5
20
124.787745467864
30
0
0
VERTEX
8
0
10
400
20
124.77825553065
30
0
0
VERTEX
8
0
10
402.5
20
124.768879070007
30
0
0
VERTEX
8
0
10
405
20
124.759614064873
30
0
0
VERTEX
8
0
10
407.5
20
124.750458541844
30
0
0
VERTEX
8
0
10
410
20
124.741410573775
30
0
0
VERTEX
8
0
10
412.5
20
124.732468278437
30
0
0
VERTEX
8
0
10
415
20
124.723629817214
30
0
0
VERTEX
8
0
10
417.5
20
124.714893393852
30
0
0
VERTEX
8
0
10
420
20
124.706257253246
30
0
0
VERTEX
8
0
10
422.5
20
124.697719680271
30
0
0
VERTEX
8
0
10
425
20
124.689278998648
30
0
0
VERTEX
8
0
10
427.5
20
124.680933569856
30
0
0
VERTEX
8
0
10
430
20
124.672681792073
30
0
0
VERTEX
8
0
10
432.5
20
124.664522099156
30
0
0
VERTEX
8
0
10
435
20
124.656452959656
30
0
0
VERTEX
8
0
10
437.5
20
124.648472875862
30
0
0
VERTEX
8
0
10
440
20
124.640580382876
30
0
0
VERTEX
8
0
10
442.5
20
124.632774047726
30
0
0
VERTEX
8
0
10
445
20
124.625052468496
30
0
0
VERTEX
8
0
10
447.5
20
124.617414273493
30
0
0
VERTEX
8
0
10
450
20
124.609858120438
30
0
0
VERTEX
8
0
10
452.5
20
124.60238269568
30
0
0
VERTEX
8
0
10
455
20
124.59498671344
30
0
0
VERTEX
8
0
10
457.5
20
124.587668915077
30
0
0
VERTEX
8
0
10
460
20
124.580428068373
30
0
0
VERTEX
8
0
10
462.5
20
124.573262966849
30
0
0
VERTEX
8
0
10
465
20
124.56617242909
30
0
0
VERTEX
8
0
10
467.5
20
124.559155298107
30
0
0
VERTEX
8
0
10
470
20
124.552210440701
30
0
0
VERTEX
8
0
10
472.5
20
124.54533674686
30
0
0
VERTEX
8
0
10
475
20
124.53853312917
30
0
0
SEQEND
8
0
0
POLYLINE
8
0
62
2
70
0
10
0
20
0
30
0
0
VERTEX
8
0
10
0
20
0
30
0
0
VERTEX
8
0
10
2.5
20
8.00201884204021
30
0
0
VERTEX
8
0
10
5
20
16.0043454630412
30
0
0
VERTEX
8
0
10
7.5
20
24.0068960137412
30
0
0
VERTEX
8
0
10
10
20
32.0096306589893
30
0
0
VERTEX
8
0
10
12.5
20
40.0125624910366
30
0
0
VERTEX
8
0
10
15
20
48.0157559068378
30
0
0
VERTEX
8
0
10
17.5
20
56.0193733185236
30
0
0
VERTEX
8
0
10
20
20
64.0238855404246
30
0
0
VERTEX
8
0
10
22.5
20
72.0314962087929
30
0
0
VERTEX
8
0
10
25
20
80.032437099421
30
0
0
VERTEX
8
0
10
27.5
20
76.3197799661108
30
0
0
VERTEX
8
0
10
30
20
73.0676586735331
30
0
0
VERTEX
8
0
10
32.5
20
70.2002585962957
30
0
0
VERTEX
8
0
10
35
20
67.6462632005447
30
0
0
VERTEX
8
0
10
37.5
20
65.3522787258291
30
0
0
VERTEX
8
0
10
40
20
63.2769352907266
30
0
0
VERTEX
8
0
10
42.5
20
61.3875530049101
30
0
0
VERTEX
8
0
10
45
20
59.657913780777
30
0
0
VERTEX
8
0
10
47.5
20
58.0667021203938
30
0
0
VERTEX
8
0
10
50
20
56.596384614578
30
0
0
VERTEX
8
0
10
52.5
20
55.2323880777596
30
0
0
VERTEX
8
0
10
55
20
53.9624862062278
30
0
0
VERTEX
8
0
10
57.5
20
52.7763348498732
30
0
0
VERTEX
8
0
10
60
20
51.6651150801272
30
0
0
VERTEX
8
0
10
62.5
20
50.6212556748658
30
0
0
VERTEX
8
0
10
65
20
49.638214937385
30
0
0
VERTEX
8
0
10
67.5
20
48.7103074119395
30
0
0
VERTEX
8
0
10
70
20
47.8325649679187
30
0
0
VERTEX
8
0
10
72.5
20
47.0006244752719
30
0
0
VERTEX
8
0
10
75
20
46.210636256846
30
0
0
VERTEX
8
0
10
77.5
20
45.4591889228429
30
0
0
VERTEX
8
0
10
80
20
44.7432472316156
30
0
0
VERTEX
8
0
10
82.5
20
44.0601003900829
30
0
0
VERTEX
8
0
10
85
20
43.4073187822322
30
0
0
VERTEX
8
0
10
87.5
20
42.7827175485682
30
0
0
VERTEX
8
0
10
90
20
42.1843257704003
30
0
0
VERTEX
8
0
10
92.5
20
41.6103602672883
30
0
0
VERTEX
8
0
10
95
20
41.0592032130662
30
0
0
VERTEX
8
0
10
97.5
20
40.5293829297159
30
0
0
VERTEX
8
0
10
100
20
40.019557339295
30
0
0
VERTEX
8
0
10
102.5
20
39.5284996498237
30
0
0
VERTEX
8
0
10
105
20
39.055085927242
30
0
0
VERTEX
8
0
10
107.5
20
38.5982842665999
30
0
0
VERTEX
8
0
10
110
20
38.1571453248287
30
0
0
VERTEX
8
0
10
112.5
20
37.7307940172805
30
0
0
VERTEX
8
0
10
115
20
37.3184222126592
30
0
0
VERTEX
8
0
10
117.5
20
36.9192822875036
30
0
0
VERTEX
8
0
10
120
20
36.5326814231957
30
0
0
VERTEX
8
0
10
122.5
20
36.1579765464727
30
0
0
VERTEX
8
0
10
125
20
35.7945698293538
30
0
0
VERTEX
8
0
10
127.5
20
35.4419046768233
30
0
0
VERTEX
8
0
10
130
20
35.0994621409945
30
0
0
VERTEX
8
0
10
132.5
20
34.7667577091962
30
0
0
VERTEX
8
0
10
135
20
34.4433384207578
30
0
0
VERTEX
8
0
10
137.5
20
34.1287802734628
30
0
0
VERTEX
8
0
10
140
20
33.8226858858948
30
0
0
VERTEX
8
0
10
142.5
20
33.5246823863635
30
0
0
VERTEX
8
0
10
145
20
33.2344195029034
30
0
0
VERTEX
8
0
10
147.5
20
32.9515678320989
30
0
0
VERTEX
8
0
10
150
20
32.6758172672776
30
0
0
VERTEX
8
0
10
152.5
20
32.4068755690205
30
0
0
VERTEX
8
0
10
155
20
32.1444670630046
30
0
0
VERTEX
8
0
10
157.5
20
31.8883314519891
30
0
0
VERTEX
8
0
10
160
20
31.6382227303035
30
0
0
VERTEX
8
0
10
162.5
20
31.3939081905498
30
0
0
VERTEX
8
0
10
165
20
31.155167513399
30
0
0
VERTEX
8
0
10
167.5
20
30.9217919323921
30
0
0
VERTEX
8
0
10
170
20
30.6935834665464
30
0
0
VERTEX
8
0
10
172.5
20
30.470354214359
30
0
0
VERTEX
8
0
10
175
20
30.2519257034824
30
0
0
VERTEX
8
0
10
177.5
20
30.0381282909595
30
0
0
VERTEX
8
0
10
180
20
29.828800609436
30
0
0
VERTEX
8
0
10
182.5
20
29.6237890552421
30
0
0
VERTEX
8
0
10
185
20
29.4229473146541
30
0
0
VERTEX
8
0
10
187.5
20
29.2261359250141
30
0
0
VERTEX
8
0
10
190
20
29.0332218677175
30
0
0
VERTEX
8
0
10
192.5
20
28.8440781903699
30
0
0
VERTEX
8
0
10
195
20
28.6585836556726
30
0
0
VERTEX
8
0
10
197.5
20
28.4766224148321
30
0
0
VERTEX
8
0
10
200
20
28.2980837034945
30
0
0
VERTEX
8
0
10
202.5
20
28.1228615583911
30
0
0
VERTEX
8
0
10
205
20
27.9508545530476
30
0
0
VERTEX
8
0
10
207.5
20
27.7819655510617
30
0
0
VERTEX
8
0
10
210
20
27.616101475583
30
0
0
VERTEX
8
0
10
212.5
20
27.453173093754
30
0
0
VERTEX
8
0
10
215
20
27.2930948149772
30
0
0
VERTEX
8
0
10
217.5
20
27.1357845019734
30
0
0
VERTEX
8
0
10
220
20
26.9811632936823
30
0
0
VERTEX
8
0
10
222.5
20
26.8291554391393
30
0
0
VERTEX
8
0
10
225
20
26.679688141532
30
0
0
VERTEX
8
0
10
227.5
20
26.5326914117093
30
0
0
VERTEX
8
0
10
230
20
26.3880979304718
30
0
0
VERTEX
8
0
10
232.5
20
26.2458429190279
30
0
0
VERTEX
8
0
10
235
20
26.1058640170516
30
0
0
VERTEX
8
0
10
237.5
20
25.9681011678172
30
0
0
VERTEX
8
0
10
240
20
25.8324965099336
30
0
0
VERTEX
8
0
10
242.5
20
25.698994275233
30
0
0
VERTEX
8
0
10
245
20
25.5675406924047
30
0
0
VERTEX
8
0
10
247.5
20
25.4380838959971
30
0
0
VERTEX
8
0
10
250
20
25.3105738404366
30
0
0
VERTEX
8
0
10
252.5
20
25.1849622187409
30
0
0
VERTEX
8
0
10
255
20
25.0612023856261
30
0
0
VERTEX
8
0
10
257.5
20
24.9392492847297
30
0
0
VERTEX
8
0
10
260
20
24.819059379692
30
0
0
VERTEX
8
0
10
262.5
20
24.700590588856
30
0
0
VERTEX
8
0
10
265
20
24.583802223364
30
0
0
VERTEX
8
0
10
267.5
20
24.4686549284434
30
0
0
VERTEX
8
0
10
270
20
24.3551106276892
30
0
0
VERTEX
8
0
10
272.5
20
24.2431324701655
30
0
0
VERTEX
8
0
10
275
20
24.1326847801571
30
0
0
VERTEX
8
0
10
277.5
20
24.0237330094171
30
0
0
VERTEX
8
0
10
280
20
23.9162436917641
30
0
0
VERTEX
8
0
10
282.5
20
23.8101843998951
30
0
0
VERTEX
8
0
10
285
20
23.7055237042864
30
0
0
VERTEX
8
0
10
287.5
20
23.6022311340635
30
0
0
VERTEX
8
0
10
290
20
23.500277139732
30
0
0
VERTEX
8
0
10
292.5
20
23.3996330576627
30
0
0
VERTEX
8
0
10
295
20
23.3002710762364
30
0
0
VERTEX
8
0
10
297.5
20
23.2021642035569
30
0
0
VERTEX
8
0
10
300
20
23.1052862366465
30
0
0
VERTEX
8
0
10
302.5
20
23.0096117320447
30
0
0
VERTEX
8
0
10
305
20
22.9151159777352
30
0
0
VERTEX
8
0
10
307.5
20
22.821774966331
30
0
0
VERTEX
8
0
10
310
20
22.7295653694511
30
0
0
VERTEX
8
0
10
312.5
20
22.6384645132267
30
0
0
VERTEX
8
0
10
315
20
22.548450354879
30
0
0
VERTEX
8
0
10
317.5
20
22.4595014603133
30
0
0
VERTEX
8
0
10
320
20
22.3715969826778
30
0
0
VERTEX
8
0
10
322.5
20
22.2847166418382
30
0
0
VERTEX
8
0
10
325
20
22.1988407047225
30
0
0
VERTEX
8
0
10
327.5
20
22.1139499664925
30
0
0
VERTEX
8
0
10
330
20
22.0300257325018
30
0
0
VERTEX
8
0
10
332.5
20
21.947049801
30
0
0
VERTEX
8
0
10
335
20
21.8650044465503
30
0
0
VERTEX
8
0
10
337.5
20
21.7838724041215
30
0
0
VERTEX
8
0
10
340
20
21.7036368538266
30
0
0
VERTEX
8
0
10
342.5
20
21.624281406274
30
0
0
VERTEX
8
0
10
345
20
21.5457900885037
30
0
0
VERTEX
8
0
10
347.5
20
21.4681473304818
30
0
0
VERTEX
8
0
10
350
20
21.3913379521255
30
0
0
VERTEX
8
0
10
352.5
20
21.3153471508358
30
0
0
VERTEX
8
0
10
355
20
21.2401604895136
30
0
0
VERTEX
8
0
10
357.5
20
21.165763885038
30
0
0
VERTEX
8
0
10
360
20
21.0921435971846
30
0
0
VERTEX
8
0
10
362.5
20
21.0192862179658
30
0
0
VERTEX
8
0
10
365
20
20.9471786613727
30
0
0
VERTEX
8
0
10
367.5
20
20.8758081535019
30
0
0
VERTEX
8
0
10
370
20
20.8051622230493
30
0
0
VERTEX
8
0
10
372.5
20
20.7352286921564
30
0
0
VERTEX
8
0
10
375
20
20.6659956675911
30
0
0
VERTEX
8
0
10
377.5
20
20.5974515322524
30
0
0
VERTEX
8
0
10
380
20
20.5295849369811
30
0
0
VERTEX
8
0
10
382.5
20
20.4623847926667
30
0
0
VERTEX
8
0
10
385
20
20.3958402626357
30
0
0
VERTEX
8
0
10
387.5
20
20.3299407553113
30
0
0
VERTEX
8
0
10
390
20
20.2646759171314
30
0
0
VERTEX
8
0
10
392.5
20
20.200035625716
30
0
0
VERTEX
8
0
10
395
20
20.1360099832723
30
0
0
VERTEX
8
0
10
397.5
20
20.0725893102281
30
0
0
VERTEX
8
0
10
400
20
20.0097641390852
30
0
0
VERTEX
8
0
10
402.5
20
19.947525208482
30
0
0
VERTEX
8
0
10
405
20
19.8858634574591
30
0
0
VERTEX
8
0
10
407.5
20
19.8247700199177
30
0
0
VERTEX
8
0
10
410
20
19.7642362192651
30
0
0
VERTEX
8
0
10
412.5
20
19.704253563238
30
0
0
VERTEX
8
0
10
415
20
19.6448137388983
30
0
0
VERTEX
8
0
10
417.5
20
19.5859086077938
30
0
0
VERTEX
8
0
10
420
20
19.5275302012771
30
0
0
VERTEX
8
0
10
422.5
20
19.4696707159776
30
0
0
VERTEX
8
0
10
425
20
19.4123225094203
30
0
0
VERTEX
8
0
10
427.5
20
19.3554780957851
30
0
0
VERTEX
8
0
10
430
20
19.2991301418024
30
0
0
VERTEX
8
0
10
432.5
20
19.2432714627793
30
0
0
VERTEX
8
0
10
435
20
19.1878950187515
30
0
0
VERTEX
8
0
10
437.5
20
19.1329939107564
30
0
0
VERTEX
8
0
10
440
20
19.0785613772227
30
0
0
VERTEX
8
0
10
442.5
20
19.0245907904724
30
0
0
VERTEX
8
0
10
445
20
18.9710756533314
30
0
0
VERTEX
8
0
10
447.5
20
18.9180095958435
30
0
0
VERTEX
8
0
10
450
20
18.8653863720859
30
0
0
VERTEX
8
0
10
452.5
20
18.8131998570813
30
0
0
VERTEX
8
0
10
455
20
18.7614440438028
30
0
0
VERTEX
8
0
10
457.5
20
18.7101130402703
30
0
0
VERTEX
8
0
10
460
20
18.6592010667323
30
0
0
VERTEX
8
0
10
462.5
20
18.6087024529325
30
0
0
VERTEX
8
0
10
465
20
18.5586116354575
30
0
0
VERTEX
8
0
10
467.5
20
18.5089231551617
30
0
0
VERTEX
8
0
10
470
20
18.4596316546685
30
0
0
VERTEX
8
0
10
472.5
20
18.4107318759441
30
0
0
VERTEX
8
0
10
475
20
18.3622186579412
30
0
0
SEQEND
8
0
0
POLYLINE
8
0
62
4
70
0
10
0
20
0
30
0
0
VERTEX
8
0
10
0
20
0
30
0
0
VERTEX
8
0
10
2.5
20
14.6810062394914
30
0
0
VERTEX
8
0
10
5
20
29.2996175441086
30
0
0
VERTEX
8
0
10
7.5
20
43.7909425013945
30
0
0
VERTEX
8
0
10
10
20
58.0851063413357
30
0
0
VERTEX
8
0
10
12.5
20
72.1037367191385
30
0
0
VERTEX
8
0
10
15
20
85.7546863566191
30
0
0
VERTEX
8
0
10
17.5
20
98.9231554668592
30
0
0
VERTEX
8
0
10
20
20
111.454402784279
30
0
0
VERTEX
8
0
10
22.5
20
123.111944764523
30
0
0
VERTEX
8
0
10
25
20
133.386793701112
30
0
0
VERTEX
8
0
10
27.5
20
134.383498025727
30
0
0
VERTEX
8
0
10
30
20
134.642502573409
30
0
0
VERTEX
8
0
10
32.5
20
134.606033289129
30
0
0
VERTEX
8
0
10
35
20
134.423882788661
30
0
0
VERTEX
8
0
10
37.5
20
134.167411050616
30
0
0
VERTEX
8
0
10
40
20
133.874424127396
30
0
0
VERTEX
8
0
10
42.5
20
133.566115715732
30
0
0
VERTEX
8
0
10
45
20
133.254727826005
30
0
0
VERTEX
8
0
10
47.5
20
132.947404897073
30
0
0
VERTEX
8
0
10
50
20
132.648276395362
30
0
0
VERTEX
8
0
10
52.5
20
132.359641488772
30
0
0
VERTEX
8
0
10
55
20
132.082669423323
30
0
0
VERTEX
8
0
10
57.5
20
131.817826009817
30
0
0
VERTEX
8
0
10
60
20
131.56513931401
30
0
0
VERTEX
8
0
10
62.5
20
131.324368059425
30
0
0
VERTEX
8
0
10
65
20
131.095109703549
30
0
0
VERTEX
8
0
10
67.5
20
130.876870344858
30
0
0
VERTEX
8
0
10
70
20
130.669110079116
30
0
0
VERTEX
8
0
10
72.5
20
130.47127235405
30
0
0
VERTEX
8
0
10
75
20
130.282802786868
30
0
0
VERTEX
8
0
10
77.5
20
130.103160991443
30
0
0
VERTEX
8
0
10
80
20
129.931827747486
30
0
0
VERTEX
8
0
10
82.5
20
129.768309062211
30
0
0
VERTEX
8
0
10
85
20
129.612138164466
30
0
0
VERTEX
8
0
10
87.5
20
129.46287613373
30
0
0
VERTEX
8
0
10
90
20
129.320111640752
30
0
0
VERTEX
8
0
10
92.5
20
129.183460124379
30
0
0
VERTEX
8
0
10
95
20
129.052562625585
30
0
0
VERTEX
8
0
10
97.5
20
128.927084428857
30
0
0
VERTEX
8
0
10
100
20
128.806713612326
30
0
0
VERTEX
8
0
10
102.5
20
128.691159574377
30
0
0
VERTEX
8
0
10
105
20
128.580151581153
30
0
0
VERTEX
8
0
10
107.5
20
128.473437363283
30
0
0
VERTEX
8
0
10
110
20
128.370781778998
30
0
0
VERTEX
8
0
10
112.5
20
128.271965553156
30
0
0
VERTEX
8
0
10
115
20
128.176784096498
30
0
0
VERTEX
8
0
10
117.5
20
128.085046405924
30
0
0
VERTEX
8
0
10
120
20
127.996574044277
30
0
0
VERTEX
8
0
10
122.5
20
127.911200196658
30
0
0
VERTEX
8
0
10
125
20
127.828768799391
30
0
0
VERTEX
8
0
10
127.5
20
127.749133737279
30
0
0
VERTEX
8
0
10
130
20
127.6721581046
30
0
0
VERTEX
8
0
10
132.5
20
127.597713525233
30
0
0
VERTEX
8
0
10
135
20
127.525679527465
30
0
0
VERTEX
8
0
10
137.5
20
127.455942969156
30
0
0
VERTEX
8
0
10
140
20
127.388397509216
30
0
0
VERTEX
8
0
10
142.5
20
127.322943121567
30
0
0
VERTEX
8
0
10
145
20
127.259485648061
30
0
0
VERTEX
8
0
10
147.5
20
127.197936387064
30
0
0
VERTEX
8
0
10
150
20
127.138211714675
30
0
0
VERTEX
8
0
10
152.5
20
127.080232735831
30
0
0
VERTEX
8
0
10
155
20
127.02392496273
30
0
0
VERTEX
8
0
10
157.5
20
126.969218018253
30
0
0
VERTEX
8
0
10
160
20
126.916045362272
30
0
0
VERTEX
8
0
10
162.5
20
126.864344038893
30
0
0
VERTEX
8
0
10
165
20
126.814054442881
30
0
0
VERTEX
8
0
10
167.5
20
126.765120103637
30
0
0
VERTEX
8
0
10
170
20
126.717487485291
30
0
0
VERTEX
8
0
10
172.5
20
126.671105801548
30
0
0
VERTEX
8
0
10
175
20
126.625926844081
30
0
0
VERTEX
8
0
10
177.5
20
126.581904823368
30
0
0
VERTEX
8
0
10
180
20
126.538996220951
30
0
0
VERTEX
8
0
10
182.5
20
126.497159652198
30
0
0
VERTEX
8
0
10
185
20
126.456355738741
30
0
0
VERTEX
8
0
10
187.5
20
126.416546989799
30
0
0
VERTEX
8
0
10
190
20
126.377697691706
30
0
0
VERTEX
8
0
10
192.5
20
126.339773804992
30
0
0
VERTEX
8
0
10
195
20
126.302742868445
30
0
0
VERTEX
8
0
10
197.5
20
126.266573909592
30
0
0
VERTEX
8
0
10
200
20
126.231237361151
30
0
0
VERTEX
8
0
10
202.5
20
126.196704982959
30
0
0
VERTEX
8
0
10
205
20
126.162949789004
30
0
0
VERTEX
8
0
10
207.5
20
126.129945979159
30
0
0
VERTEX
8
0
10
210
20
126.097668875281
30
0
0
VERTEX
8
0
10
212.5
20
126.066094861359
30
0
0
VERTEX
8
0
10
215
20
126.035201327414
30
0
0
VERTEX
8
0
10
217.5
20
126.004966616886
30
0
0
VERTEX
8
0
10
220
20
125.975369977259
30
0
0
VERTEX
8
0
10
222.5
20
125.946391513695
30
0
0
VERTEX
8
0
10
225
20
125.918012145475
30
0
0
VERTEX
8
0
10
227.5
20
125.890213565038
30
0
0
VERTEX
8
0
10
230
20
125.862978199458
30
0
0
VERTEX
8
0
10
232.5
20
125.836289174178
30
0
0
VERTEX
8
0
10
235
20
125.810130278863
30
0
0
VERTEX
8
0
10
237.5
20
125.784485935216
30
0
0
VERTEX
8
0
10
240
20
125.759341166644
30
0
0
VERTEX
8
0
10
242.5
20
125.734681569631
30
0
0
VERTEX
8
0
10
245
20
125.710493286732
30
0
0
VERTEX
8
0
10
247.5
20
125.686762981063
30
0
0
VERTEX
8
0
10
250
20
125.663477812203
30
0
0
VERTEX
8
0
10
252.5
20
125.640625413415
30
0
0
VERTEX
8
0
10
255
20
125.618193870099
30
0
0
VERTEX
8
0
10
257.5
20
125.596171699411
30
0
0
VERTEX
8
0
10
260
20
125.574547830962
30
0
0
VERTEX
8
0
10
262.5
20
125.553311588543
30
0
0
VERTEX
8
0
10
265
20
125.532452672806
30
0
0
VERTEX
8
0
10
267.5
20
125.511961144847
30
0
0
VERTEX
8
0
10
270
20
125.491827410636
30
0
0
VERTEX
8
0
10
272.5
20
125.472042206242
30
0
0
VERTEX
8
0
10
275
20
125.452596583809
30
0
0
VERTEX
8
0
10
277.5
20
125.43348189824
30
0
0
VERTEX
8
0
10
280
20
125.414689794541
30
0
0
VERTEX
8
0
10
282.5
20
125.396212195795
30
0
0
VERTEX
8
0
10
285
20
125.378041291729
30
0
0
VERTEX
8
0
10
287.5
20
125.360169527836
30
0
0
VERTEX
8
0
10
290
20
125.34258959502
30
0
0
VERTEX
8
0
10
292.5
20
125.325294419744
30
0
0
VERTEX
8
0
10
295
20
125.308277154647
30
0
0
VERTEX
8
0
10
297.5
20
125.291531169598
30
0
0
VERTEX
8
0
10
300
20
125.275050043177
30
0
0
VERTEX
8
0
10
302.5
20
125.258827554548
30
0
0
VERTEX
8
0
10
305
20
125.24285767571
30
0
0
VERTEX
8
0
10
307.5
20
125.227134564105
30
0
0
VERTEX
8
0
10
310
20
125.211652555554
30
0
0
VERTEX
8
0
10
312.5
20
125.196406157524
30
0
0
VERTEX
8
0
10
315
20
125.181390042688
30
0
0
VERTEX
8
0
10
317.5
20
125.16659904278
30
0
0
VERTEX
8
0
10
320
20
125.152028142709
30
0
0
VERTEX
8
0
10
322.5
20
125.137672474947
30
0
0
VERTEX
8
0
10
325
20
125.123527314149
30
0
0
VERTEX
8
0
10
327.5
20
125.109588072015
30
0
0
VERTEX
8
0
10
330
20
125.095850292364
30
0
0
VERTEX
8
0
10
332.5
20
125.082309646426
30
0
0
VERTEX
8
0
10
335
20
125.068961928329
30
0
0
VERTEX
8
0
10
337.5
20
125.055803050778
30
0
0
VERTEX
8
0
10
340
20
125.042829040915
30
0
0
VERTEX
8
0
10
342.5
20
125.030036036349
30
0
0
VERTEX
8
0
10
345
20
125.017420281347
30
0
0
VERTEX
8
0
10
347.5
20
125.004978123192
30
0
0
VERTEX
8
0
10
350
20
124.992706008676
30
0
0
VERTEX
8
0
10
352.5
20
124.980600480743
30
0
0
VERTEX
8
0
10
355
20
124.968658175263
30
0
0
VERTEX
8
0
10
357.5
20
124.956875817939
30
0
0
VERTEX
8
0
10
360
20
124.94525022133
30
0
0
VERTEX
8
0
10
362.5
20
124.933778281998
30
0
0
VERTEX
8
0
10
365
20
124.922456977761
30
0
0
VERTEX
8
0
10
367.5
20
124.911283365058
30
0
0
VERTEX
8
0
10
370
20
124.90025457641
30
0
0
VERTEX
8
0
10
372.5
20
124.889367817985
30
0
0
VERTEX
8
0
10
375
20
124.87862036725
30
0
0
VERTEX
8
0
10
377.5
20
124.868009570716
30
0
0
VERTEX
8
0
10
380
20
124.857532841767
30
0
0
VERTEX
8
0
10
382.5
20
124.847187658564
30
0
0
VERTEX
8
0
10
385
20
124.836971562043
30
0
0
VERTEX
8
0
10
387.5
20
124.826882153968
30
0
0
VERTEX
8
0
10
390
20
124.816917095068
30
0
0
VERTEX
8
0
10
392.5
20
124.807074103238
30
0
0
VERTEX
8
0
10
395
20
124.797350951807
30
0
0
VERTEX
8
0
10
397.5
20
124.787745467864
30
0
0
VERTEX
8
0
10
400
20
124.77825553065
30
0
0
VERTEX
8
0
10
402.5
20
124.768879070007
30
0
0
VERTEX
8
0
10
405
20
124.759614064873
30
0
0
VERTEX
8
0
10
407.5
20
124.750458541844
30
0
0
VERTEX
8
0
10
410
20
124.741410573775
30
0
0
VERTEX
8
0
10
412.5
20
124.732468278437
30
0
0
VERTEX
8
0
10
415
20
124.723629817214
30
0
0
VERTEX
8
0
10
417.5
20
124.714893393852
30
0
0
VERTEX
8
0
10
420
20
124.706257253246
30
0
0
VERTEX
8
0
10
422.5
20
124.697719680271
30
0
0
VERTEX
8
0
10
425
20
124.689278998648
30
0
0
VERTEX
8
0
10
427.5
20
124.680933569856
30
0
0
VERTEX
8
0
10
430
20
124.672681792073
30
0
0
VERTEX
8
0
10
432.5
20
124.664522099156
30
0
0
VERTEX
8
0
10
435
20
124.656452959656
30
0
0
VERTEX
8
0
10
437.5
20
124.648472875862
30
0
0
VERTEX
8
0
10
440
20
124.640580382876
30
0
0
VERTEX
8
0
10
442.5
20
124.632774047726
30
0
0
VERTEX
8
0
10
445
20
124.625052468496
30
0
0
VERTEX
8
0
10
447.5
20
124.617414273493
30
0
0
VERTEX
8
0
10
450
20
124.609858120438
30
0
0
VERTEX
8
0
10
452.5
20
124.60238269568
30
0
0
VERTEX
8
0
10
455
20
124.59498671344
30
0
0
VERTEX
8
0
10
457.5
20
124.587668915077
30
0
0
VERTEX
8
0
10
460
20
124.580428068373
30
0
0
VERTEX
8
0
10
462.5
20
124.573262966849
30
0
0
VERTEX
8
0
10
465
20
124.56617242909
30
0
0
VERTEX
8
0
10
467.5
20
124.559155298107
30
0
0
VERTEX
8
0
10
470
20
124.552210440701
30
0
0
VERTEX
8
0
10
472.5
20
124.54533674686
30
0
0
VERTEX
8
0
10
475
20
124.53853312917
30
0
0
SEQEND
8
0
0
ENDSEC
0
EOF
